{
    "header": {
        "PPQ": 480,
        "timeSignature": [
            4,
            4
        ],
        "bpm": 89.9999550000225,
        "name": "Bydlo"
    },
    "startTime": 0,
    "duration": 170.6667519999997,
    "tracks": [
        {
            "startTime": 0,
            "duration": 0,
            "length": 0,
            "notes": [],
            "controlChanges": {},
            "id": 0,
            "name": "Bydlo"
        },
        {
            "startTime": 1.333334,
            "duration": 162.00008099999988,
            "length": 279,
            "notes": [
                {
                    "name": "D#3",
                    "midi": 51,
                    "time": 1.333334,
                    "velocity": 0.44881889763779526,
                    "duration": 2.000001
                },
                {
                    "name": "F#3",
                    "midi": 54,
                    "time": 3.333335,
                    "velocity": 0.4645669291338583,
                    "duration": 0.33333350000000017
                },
                {
                    "name": "E3",
                    "midi": 52,
                    "time": 3.6666685,
                    "velocity": 0.4330708661417323,
                    "duration": 0.33333350000000017
                },
                {
                    "name": "D#3",
                    "midi": 51,
                    "time": 4.000002,
                    "velocity": 0.4645669291338583,
                    "duration": 0.6666670000000003
                },
                {
                    "name": "E3",
                    "midi": 52,
                    "time": 4.666669000000001,
                    "velocity": 0.4409448818897638,
                    "duration": 0.6666670000000003
                },
                {
                    "name": "D#3",
                    "midi": 51,
                    "time": 5.333336000000001,
                    "velocity": 0.4645669291338583,
                    "duration": 0.6666670000000003
                },
                {
                    "name": "G#3",
                    "midi": 56,
                    "time": 6.000003000000001,
                    "velocity": 0.5433070866141733,
                    "duration": 0.6666670000000003
                },
                {
                    "name": "A#3",
                    "midi": 58,
                    "time": 6.666670000000002,
                    "velocity": 0.5511811023622047,
                    "duration": 0.6666670000000003
                },
                {
                    "name": "B3",
                    "midi": 59,
                    "time": 7.333337000000002,
                    "velocity": 0.5511811023622047,
                    "duration": 0.6666670000000003
                },
                {
                    "name": "A#3",
                    "midi": 58,
                    "time": 8.000004000000002,
                    "velocity": 0.5748031496062992,
                    "duration": 1.3333340000000007
                },
                {
                    "name": "G#3",
                    "midi": 56,
                    "time": 9.333338000000003,
                    "velocity": 0.5275590551181102,
                    "duration": 0.6666670000000003
                },
                {
                    "name": "C#4",
                    "midi": 61,
                    "time": 10.666672000000004,
                    "velocity": 0.5748031496062992,
                    "duration": 1.3333340000000007
                },
                {
                    "name": "G#4",
                    "midi": 68,
                    "time": 12.000006000000004,
                    "velocity": 0.5433070866141733,
                    "duration": 0.6666670000000003
                },
                {
                    "name": "C#4",
                    "midi": 61,
                    "time": 13.333340000000005,
                    "velocity": 0.5826771653543307,
                    "duration": 1.3333340000000007
                },
                {
                    "name": "G#4",
                    "midi": 68,
                    "time": 14.666674000000006,
                    "velocity": 0.5433070866141733,
                    "duration": 0.6666670000000003
                },
                {
                    "name": "G#4",
                    "midi": 68,
                    "time": 15.333341000000006,
                    "velocity": 0.5275590551181102,
                    "duration": 0.6666669999999986
                },
                {
                    "name": "D#4",
                    "midi": 63,
                    "time": 16.000008000000005,
                    "velocity": 0.5511811023622047,
                    "duration": 1.3333340000000007
                },
                {
                    "name": "C#4",
                    "midi": 61,
                    "time": 17.333342000000005,
                    "velocity": 0.5354330708661418,
                    "duration": 1.3333340000000007
                },
                {
                    "name": "B3",
                    "midi": 59,
                    "time": 18.666676000000006,
                    "velocity": 0.5196850393700787,
                    "duration": 0.6666670000000003
                },
                {
                    "name": "D#4",
                    "midi": 63,
                    "time": 19.333343000000006,
                    "velocity": 0.4881889763779528,
                    "duration": 0.6666670000000003
                },
                {
                    "name": "A#3",
                    "midi": 58,
                    "time": 20.000010000000007,
                    "velocity": 0.5196850393700787,
                    "duration": 0.6666670000000003
                },
                {
                    "name": "G#3",
                    "midi": 56,
                    "time": 21.333344000000007,
                    "velocity": 0.5433070866141733,
                    "duration": 1.3333340000000007
                },
                {
                    "name": "F#3",
                    "midi": 54,
                    "time": 22.666678000000008,
                    "velocity": 0.44881889763779526,
                    "duration": 0.6666670000000003
                },
                {
                    "name": "E3",
                    "midi": 52,
                    "time": 23.33334500000001,
                    "velocity": 0.41732283464566927,
                    "duration": 0.6666670000000003
                },
                {
                    "name": "D#3",
                    "midi": 51,
                    "time": 24.00001200000001,
                    "velocity": 0.4330708661417323,
                    "duration": 0.6666670000000003
                },
                {
                    "name": "D#3",
                    "midi": 51,
                    "time": 25.33334600000001,
                    "velocity": 0.5275590551181102,
                    "duration": 2.000001000000001
                },
                {
                    "name": "F#3",
                    "midi": 54,
                    "time": 27.33334700000001,
                    "velocity": 0.5039370078740157,
                    "duration": 0.3333334999999984
                },
                {
                    "name": "E3",
                    "midi": 52,
                    "time": 27.66668050000001,
                    "velocity": 0.47244094488188976,
                    "duration": 0.3333334999999984
                },
                {
                    "name": "D#3",
                    "midi": 51,
                    "time": 28.000014000000007,
                    "velocity": 0.5039370078740157,
                    "duration": 0.6666670000000003
                },
                {
                    "name": "E3",
                    "midi": 52,
                    "time": 28.666681000000008,
                    "velocity": 0.48031496062992124,
                    "duration": 0.6666670000000003
                },
                {
                    "name": "D#3",
                    "midi": 51,
                    "time": 29.333348000000008,
                    "velocity": 0.5039370078740157,
                    "duration": 0.6666670000000003
                },
                {
                    "name": "G#3",
                    "midi": 56,
                    "time": 30.00001500000001,
                    "velocity": 0.5905511811023622,
                    "duration": 0.6666670000000003
                },
                {
                    "name": "A#3",
                    "midi": 58,
                    "time": 30.66668200000001,
                    "velocity": 0.6062992125984252,
                    "duration": 0.6666670000000003
                },
                {
                    "name": "B3",
                    "midi": 59,
                    "time": 31.33334900000001,
                    "velocity": 0.6062992125984252,
                    "duration": 0.6666670000000003
                },
                {
                    "name": "A#3",
                    "midi": 58,
                    "time": 32.00001600000001,
                    "velocity": 0.6299212598425197,
                    "duration": 1.3333340000000007
                },
                {
                    "name": "G#3",
                    "midi": 56,
                    "time": 33.33335000000001,
                    "velocity": 0.6062992125984252,
                    "duration": 0.6666669999999968
                },
                {
                    "name": "C#4",
                    "midi": 61,
                    "time": 34.666684000000004,
                    "velocity": 0.6299212598425197,
                    "duration": 1.3333340000000007
                },
                {
                    "name": "E4",
                    "midi": 64,
                    "time": 36.000018000000004,
                    "velocity": 0.5905511811023622,
                    "duration": 0.6666669999999968
                },
                {
                    "name": "E4",
                    "midi": 64,
                    "time": 37.333352,
                    "velocity": 0.6377952755905512,
                    "duration": 1.3333340000000007
                },
                {
                    "name": "E4",
                    "midi": 64,
                    "time": 38.666686,
                    "velocity": 0.6141732283464567,
                    "duration": 1.3333340000000007
                },
                {
                    "name": "D4",
                    "midi": 62,
                    "time": 40.00002,
                    "velocity": 0.6299212598425197,
                    "duration": 4.000002000000002
                },
                {
                    "name": "C4",
                    "midi": 60,
                    "time": 44.000022,
                    "velocity": 0.5905511811023622,
                    "duration": 0.6666669999999968
                },
                {
                    "name": "C#4",
                    "midi": 61,
                    "time": 45.333355999999995,
                    "velocity": 0.6771653543307087,
                    "duration": 1.3333340000000007
                },
                {
                    "name": "G#4",
                    "midi": 68,
                    "time": 46.666689999999996,
                    "velocity": 0.5984251968503937,
                    "duration": 0.6666669999999968
                },
                {
                    "name": "G#4",
                    "midi": 68,
                    "time": 47.33335699999999,
                    "velocity": 0.5590551181102362,
                    "duration": 0.6666669999999968
                },
                {
                    "name": "D#4",
                    "midi": 63,
                    "time": 48.00002399999999,
                    "velocity": 0.6062992125984252,
                    "duration": 0.6666669999999968
                },
                {
                    "name": "B3",
                    "midi": 59,
                    "time": 48.666690999999986,
                    "velocity": 0.5354330708661418,
                    "duration": 0.6666669999999968
                },
                {
                    "name": "A#3",
                    "midi": 58,
                    "time": 49.33335799999998,
                    "velocity": 0.5748031496062992,
                    "duration": 1.3333340000000007
                },
                {
                    "name": "G#3",
                    "midi": 56,
                    "time": 50.66669199999998,
                    "velocity": 0.5511811023622047,
                    "duration": 2.0000009999999975
                },
                {
                    "name": "E6",
                    "midi": 88,
                    "time": 53.33335999999998,
                    "velocity": 0.5511811023622047,
                    "duration": 0.6666669999999968
                },
                {
                    "name": "C#6",
                    "midi": 85,
                    "time": 53.33335999999998,
                    "velocity": 0.5511811023622047,
                    "duration": 0.6666669999999968
                },
                {
                    "name": "E5",
                    "midi": 76,
                    "time": 53.33335999999998,
                    "velocity": 0.5039370078740157,
                    "duration": 0.6666669999999968
                },
                {
                    "name": "A5",
                    "midi": 81,
                    "time": 53.33335999999998,
                    "velocity": 0.5039370078740157,
                    "duration": 0.6666669999999968
                },
                {
                    "name": "C#6",
                    "midi": 85,
                    "time": 54.000026999999974,
                    "velocity": 0.5669291338582677,
                    "duration": 0.6666669999999968
                },
                {
                    "name": "C#5",
                    "midi": 73,
                    "time": 54.000026999999974,
                    "velocity": 0.5196850393700787,
                    "duration": 0.6666669999999968
                },
                {
                    "name": "D#6",
                    "midi": 87,
                    "time": 54.66669399999997,
                    "velocity": 0.5669291338582677,
                    "duration": 0.6666669999999968
                },
                {
                    "name": "D#5",
                    "midi": 75,
                    "time": 54.66669399999997,
                    "velocity": 0.5196850393700787,
                    "duration": 0.6666669999999968
                },
                {
                    "name": "F#5",
                    "midi": 78,
                    "time": 54.66669399999997,
                    "velocity": 0.5196850393700787,
                    "duration": 0.6666669999999968
                },
                {
                    "name": "B5",
                    "midi": 83,
                    "time": 54.66669399999997,
                    "velocity": 0.5669291338582677,
                    "duration": 0.6666669999999968
                },
                {
                    "name": "B4",
                    "midi": 71,
                    "time": 55.33336099999997,
                    "velocity": 0.47244094488188976,
                    "duration": 0.6666669999999968
                },
                {
                    "name": "B5",
                    "midi": 83,
                    "time": 55.33336099999997,
                    "velocity": 0.5196850393700787,
                    "duration": 0.6666669999999968
                },
                {
                    "name": "E5",
                    "midi": 76,
                    "time": 56.000027999999965,
                    "velocity": 0.5196850393700787,
                    "duration": 0.6666669999999968
                },
                {
                    "name": "A5",
                    "midi": 81,
                    "time": 56.000027999999965,
                    "velocity": 0.5669291338582677,
                    "duration": 0.6666669999999968
                },
                {
                    "name": "C#6",
                    "midi": 85,
                    "time": 56.000027999999965,
                    "velocity": 0.5669291338582677,
                    "duration": 0.6666669999999968
                },
                {
                    "name": "C#5",
                    "midi": 73,
                    "time": 56.000027999999965,
                    "velocity": 0.5196850393700787,
                    "duration": 0.6666669999999968
                },
                {
                    "name": "A4",
                    "midi": 69,
                    "time": 56.66669499999996,
                    "velocity": 0.49606299212598426,
                    "duration": 0.6666669999999968
                },
                {
                    "name": "A5",
                    "midi": 81,
                    "time": 56.66669499999996,
                    "velocity": 0.5433070866141733,
                    "duration": 0.6666669999999968
                },
                {
                    "name": "F#5",
                    "midi": 78,
                    "time": 57.33336199999996,
                    "velocity": 0.5433070866141733,
                    "duration": 1.3333340000000007
                },
                {
                    "name": "F#4",
                    "midi": 66,
                    "time": 57.33336199999996,
                    "velocity": 0.49606299212598426,
                    "duration": 1.3333340000000007
                },
                {
                    "name": "A4",
                    "midi": 69,
                    "time": 57.33336199999996,
                    "velocity": 0.49606299212598426,
                    "duration": 1.3333340000000007
                },
                {
                    "name": "D5",
                    "midi": 74,
                    "time": 57.33336199999996,
                    "velocity": 0.5433070866141733,
                    "duration": 1.3333340000000007
                },
                {
                    "name": "A5",
                    "midi": 81,
                    "time": 58.66669599999996,
                    "velocity": 0.5511811023622047,
                    "duration": 0.6666669999999968
                },
                {
                    "name": "C#6",
                    "midi": 85,
                    "time": 58.66669599999996,
                    "velocity": 0.6062992125984252,
                    "duration": 0.6666669999999968
                },
                {
                    "name": "E6",
                    "midi": 88,
                    "time": 58.66669599999996,
                    "velocity": 0.6062992125984252,
                    "duration": 0.6666669999999968
                },
                {
                    "name": "E5",
                    "midi": 76,
                    "time": 58.66669599999996,
                    "velocity": 0.5511811023622047,
                    "duration": 0.6666669999999968
                },
                {
                    "name": "C#6",
                    "midi": 85,
                    "time": 59.333362999999956,
                    "velocity": 0.6220472440944882,
                    "duration": 0.6666669999999968
                },
                {
                    "name": "C#5",
                    "midi": 73,
                    "time": 59.333362999999956,
                    "velocity": 0.5669291338582677,
                    "duration": 0.6666669999999968
                },
                {
                    "name": "D#6",
                    "midi": 87,
                    "time": 60.00002999999995,
                    "velocity": 0.6299212598425197,
                    "duration": 0.6666669999999968
                },
                {
                    "name": "D#5",
                    "midi": 75,
                    "time": 60.00002999999995,
                    "velocity": 0.5748031496062992,
                    "duration": 0.6666669999999968
                },
                {
                    "name": "F#5",
                    "midi": 78,
                    "time": 60.00002999999995,
                    "velocity": 0.5748031496062992,
                    "duration": 0.6666669999999968
                },
                {
                    "name": "B5",
                    "midi": 83,
                    "time": 60.00002999999995,
                    "velocity": 0.6299212598425197,
                    "duration": 0.6666669999999968
                },
                {
                    "name": "B4",
                    "midi": 71,
                    "time": 60.66669699999995,
                    "velocity": 0.5196850393700787,
                    "duration": 0.6666669999999968
                },
                {
                    "name": "B5",
                    "midi": 83,
                    "time": 60.66669699999995,
                    "velocity": 0.5669291338582677,
                    "duration": 0.6666669999999968
                },
                {
                    "name": "E5",
                    "midi": 76,
                    "time": 61.333363999999946,
                    "velocity": 0.5748031496062992,
                    "duration": 1.3333340000000007
                },
                {
                    "name": "A5",
                    "midi": 81,
                    "time": 61.333363999999946,
                    "velocity": 0.6299212598425197,
                    "duration": 1.3333340000000007
                },
                {
                    "name": "C#6",
                    "midi": 85,
                    "time": 61.333363999999946,
                    "velocity": 0.6299212598425197,
                    "duration": 1.3333340000000007
                },
                {
                    "name": "C#5",
                    "midi": 73,
                    "time": 61.333363999999946,
                    "velocity": 0.5748031496062992,
                    "duration": 1.3333340000000007
                },
                {
                    "name": "D5",
                    "midi": 74,
                    "time": 62.66669799999995,
                    "velocity": 0.6062992125984252,
                    "duration": 1.3333340000000007
                },
                {
                    "name": "F#4",
                    "midi": 66,
                    "time": 62.66669799999995,
                    "velocity": 0.5511811023622047,
                    "duration": 1.3333340000000007
                },
                {
                    "name": "A4",
                    "midi": 69,
                    "time": 62.66669799999995,
                    "velocity": 0.5511811023622047,
                    "duration": 1.3333340000000007
                },
                {
                    "name": "F#5",
                    "midi": 78,
                    "time": 62.66669799999995,
                    "velocity": 0.6062992125984252,
                    "duration": 1.3333340000000007
                },
                {
                    "name": "A5",
                    "midi": 81,
                    "time": 64.00003199999995,
                    "velocity": 0.6062992125984252,
                    "duration": 0.6666670000000039
                },
                {
                    "name": "E5",
                    "midi": 76,
                    "time": 64.00003199999995,
                    "velocity": 0.6062992125984252,
                    "duration": 0.6666670000000039
                },
                {
                    "name": "E6",
                    "midi": 88,
                    "time": 64.00003199999995,
                    "velocity": 0.6614173228346457,
                    "duration": 0.6666670000000039
                },
                {
                    "name": "C#6",
                    "midi": 85,
                    "time": 64.00003199999995,
                    "velocity": 0.6614173228346457,
                    "duration": 0.6666670000000039
                },
                {
                    "name": "C#6",
                    "midi": 85,
                    "time": 64.66669899999995,
                    "velocity": 0.6771653543307087,
                    "duration": 0.6666670000000039
                },
                {
                    "name": "C#5",
                    "midi": 73,
                    "time": 64.66669899999995,
                    "velocity": 0.6220472440944882,
                    "duration": 0.6666670000000039
                },
                {
                    "name": "D#6",
                    "midi": 87,
                    "time": 65.33336599999996,
                    "velocity": 0.6771653543307087,
                    "duration": 0.6666670000000039
                },
                {
                    "name": "B5",
                    "midi": 83,
                    "time": 65.33336599999996,
                    "velocity": 0.6771653543307087,
                    "duration": 0.6666670000000039
                },
                {
                    "name": "F#5",
                    "midi": 78,
                    "time": 65.33336599999996,
                    "velocity": 0.6220472440944882,
                    "duration": 0.6666670000000039
                },
                {
                    "name": "D#5",
                    "midi": 75,
                    "time": 65.33336599999996,
                    "velocity": 0.6220472440944882,
                    "duration": 0.6666670000000039
                },
                {
                    "name": "B4",
                    "midi": 71,
                    "time": 66.00003299999996,
                    "velocity": 0.5669291338582677,
                    "duration": 0.6666670000000039
                },
                {
                    "name": "B5",
                    "midi": 83,
                    "time": 66.00003299999996,
                    "velocity": 0.6220472440944882,
                    "duration": 0.6666670000000039
                },
                {
                    "name": "E5",
                    "midi": 76,
                    "time": 66.66669999999996,
                    "velocity": 0.6220472440944882,
                    "duration": 0.6666670000000039
                },
                {
                    "name": "C#5",
                    "midi": 73,
                    "time": 66.66669999999996,
                    "velocity": 0.6220472440944882,
                    "duration": 0.6666670000000039
                },
                {
                    "name": "C#6",
                    "midi": 85,
                    "time": 66.66669999999996,
                    "velocity": 0.6771653543307087,
                    "duration": 0.6666670000000039
                },
                {
                    "name": "A5",
                    "midi": 81,
                    "time": 66.66669999999996,
                    "velocity": 0.6771653543307087,
                    "duration": 0.6666670000000039
                },
                {
                    "name": "A4",
                    "midi": 69,
                    "time": 67.33336699999997,
                    "velocity": 0.5905511811023622,
                    "duration": 0.6666670000000039
                },
                {
                    "name": "A5",
                    "midi": 81,
                    "time": 67.33336699999997,
                    "velocity": 0.6456692913385826,
                    "duration": 0.6666670000000039
                },
                {
                    "name": "A4",
                    "midi": 69,
                    "time": 68.00003399999997,
                    "velocity": 0.5905511811023622,
                    "duration": 1.3333339999999936
                },
                {
                    "name": "F#4",
                    "midi": 66,
                    "time": 68.00003399999997,
                    "velocity": 0.5905511811023622,
                    "duration": 1.3333339999999936
                },
                {
                    "name": "F#5",
                    "midi": 78,
                    "time": 68.00003399999997,
                    "velocity": 0.6456692913385826,
                    "duration": 1.3333339999999936
                },
                {
                    "name": "D5",
                    "midi": 74,
                    "time": 68.00003399999997,
                    "velocity": 0.6456692913385826,
                    "duration": 1.3333339999999936
                },
                {
                    "name": "F#5",
                    "midi": 78,
                    "time": 69.33336799999996,
                    "velocity": 0.6377952755905512,
                    "duration": 1.3333339999999936
                },
                {
                    "name": "C#5",
                    "midi": 73,
                    "time": 69.33336799999996,
                    "velocity": 0.6377952755905512,
                    "duration": 1.3333339999999936
                },
                {
                    "name": "C#6",
                    "midi": 85,
                    "time": 69.33336799999996,
                    "velocity": 0.7007874015748031,
                    "duration": 1.3333339999999936
                },
                {
                    "name": "A5",
                    "midi": 81,
                    "time": 69.33336799999996,
                    "velocity": 0.7007874015748031,
                    "duration": 1.3333339999999936
                },
                {
                    "name": "D5",
                    "midi": 74,
                    "time": 70.66670199999996,
                    "velocity": 0.6692913385826772,
                    "duration": 1.3333339999999936
                },
                {
                    "name": "A4",
                    "midi": 69,
                    "time": 70.66670199999996,
                    "velocity": 0.6141732283464567,
                    "duration": 1.3333339999999936
                },
                {
                    "name": "F#4",
                    "midi": 66,
                    "time": 70.66670199999996,
                    "velocity": 0.6141732283464567,
                    "duration": 1.3333339999999936
                },
                {
                    "name": "F#5",
                    "midi": 78,
                    "time": 70.66670199999996,
                    "velocity": 0.6692913385826772,
                    "duration": 1.3333339999999936
                },
                {
                    "name": "F#5",
                    "midi": 78,
                    "time": 72.00003599999995,
                    "velocity": 0.6456692913385826,
                    "duration": 1.3333339999999936
                },
                {
                    "name": "C#5",
                    "midi": 73,
                    "time": 72.00003599999995,
                    "velocity": 0.6456692913385826,
                    "duration": 1.3333339999999936
                },
                {
                    "name": "A5",
                    "midi": 81,
                    "time": 72.00003599999995,
                    "velocity": 0.7086614173228346,
                    "duration": 1.3333339999999936
                },
                {
                    "name": "C#6",
                    "midi": 85,
                    "time": 72.00003599999995,
                    "velocity": 0.7086614173228346,
                    "duration": 1.3333339999999936
                },
                {
                    "name": "D5",
                    "midi": 74,
                    "time": 73.33336999999995,
                    "velocity": 0.5826771653543307,
                    "duration": 0.6666670000000039
                },
                {
                    "name": "G#5",
                    "midi": 80,
                    "time": 73.33336999999995,
                    "velocity": 0.6377952755905512,
                    "duration": 0.6666670000000039
                },
                {
                    "name": "G#4",
                    "midi": 68,
                    "time": 73.33336999999995,
                    "velocity": 0.5826771653543307,
                    "duration": 0.6666670000000039
                },
                {
                    "name": "B4",
                    "midi": 71,
                    "time": 73.33336999999995,
                    "velocity": 0.5826771653543307,
                    "duration": 0.6666670000000039
                },
                {
                    "name": "F#4",
                    "midi": 66,
                    "time": 74.00003699999995,
                    "velocity": 0.5905511811023622,
                    "duration": 0.6666670000000039
                },
                {
                    "name": "F#5",
                    "midi": 78,
                    "time": 74.00003699999995,
                    "velocity": 0.6456692913385826,
                    "duration": 0.6666670000000039
                },
                {
                    "name": "A5",
                    "midi": 81,
                    "time": 74.66670399999995,
                    "velocity": 0.6929133858267716,
                    "duration": 1.3333339999999936
                },
                {
                    "name": "C#6",
                    "midi": 85,
                    "time": 74.66670399999995,
                    "velocity": 0.6929133858267716,
                    "duration": 1.3333339999999936
                },
                {
                    "name": "C#5",
                    "midi": 73,
                    "time": 74.66670399999995,
                    "velocity": 0.6299212598425197,
                    "duration": 1.3333339999999936
                },
                {
                    "name": "E5",
                    "midi": 76,
                    "time": 74.66670399999995,
                    "velocity": 0.6299212598425197,
                    "duration": 1.3333339999999936
                },
                {
                    "name": "A4",
                    "midi": 69,
                    "time": 76.00003799999995,
                    "velocity": 0.6062992125984252,
                    "duration": 1.3333339999999936
                },
                {
                    "name": "D5",
                    "midi": 74,
                    "time": 76.00003799999995,
                    "velocity": 0.6614173228346457,
                    "duration": 1.3333339999999936
                },
                {
                    "name": "F#5",
                    "midi": 78,
                    "time": 76.00003799999995,
                    "velocity": 0.6614173228346457,
                    "duration": 1.3333339999999936
                },
                {
                    "name": "F#4",
                    "midi": 66,
                    "time": 76.00003799999995,
                    "velocity": 0.6062992125984252,
                    "duration": 1.3333339999999936
                },
                {
                    "name": "F#5",
                    "midi": 78,
                    "time": 77.33337199999994,
                    "velocity": 0.6299212598425197,
                    "duration": 1.3333339999999936
                },
                {
                    "name": "C#5",
                    "midi": 73,
                    "time": 77.33337199999994,
                    "velocity": 0.6299212598425197,
                    "duration": 1.3333339999999936
                },
                {
                    "name": "C#6",
                    "midi": 85,
                    "time": 77.33337199999994,
                    "velocity": 0.6929133858267716,
                    "duration": 1.3333339999999936
                },
                {
                    "name": "A5",
                    "midi": 81,
                    "time": 77.33337199999994,
                    "velocity": 0.6929133858267716,
                    "duration": 1.3333339999999936
                },
                {
                    "name": "D#5",
                    "midi": 75,
                    "time": 78.66670599999993,
                    "velocity": 0.6220472440944882,
                    "duration": 1.3333339999999936
                },
                {
                    "name": "F#5",
                    "midi": 78,
                    "time": 78.66670599999993,
                    "velocity": 0.6220472440944882,
                    "duration": 1.3333339999999936
                },
                {
                    "name": "D#6",
                    "midi": 87,
                    "time": 78.66670599999993,
                    "velocity": 0.6771653543307087,
                    "duration": 1.3333339999999936
                },
                {
                    "name": "C6",
                    "midi": 84,
                    "time": 78.66670599999993,
                    "velocity": 0.6771653543307087,
                    "duration": 1.3333339999999936
                },
                {
                    "name": "E6",
                    "midi": 88,
                    "time": 80.00003999999993,
                    "velocity": 0.6062992125984252,
                    "duration": 0.6666670000000039
                },
                {
                    "name": "G#5",
                    "midi": 80,
                    "time": 80.00003999999993,
                    "velocity": 0.5511811023622047,
                    "duration": 0.6666670000000039
                },
                {
                    "name": "C#6",
                    "midi": 85,
                    "time": 80.00003999999993,
                    "velocity": 0.6062992125984252,
                    "duration": 0.6666670000000039
                },
                {
                    "name": "E5",
                    "midi": 76,
                    "time": 80.00003999999993,
                    "velocity": 0.5511811023622047,
                    "duration": 0.6666670000000039
                },
                {
                    "name": "G#5",
                    "midi": 80,
                    "time": 80.66670699999993,
                    "velocity": 0.5354330708661418,
                    "duration": 0.6666670000000039
                },
                {
                    "name": "G#6",
                    "midi": 92,
                    "time": 80.66670699999993,
                    "velocity": 0.5905511811023622,
                    "duration": 0.6666670000000039
                },
                {
                    "name": "D5",
                    "midi": 74,
                    "time": 81.33337399999994,
                    "velocity": 0.5590551181102362,
                    "duration": 1.3333339999999936
                },
                {
                    "name": "F#5",
                    "midi": 78,
                    "time": 81.33337399999994,
                    "velocity": 0.5590551181102362,
                    "duration": 1.3333339999999936
                },
                {
                    "name": "A5",
                    "midi": 81,
                    "time": 81.33337399999994,
                    "velocity": 0.5590551181102362,
                    "duration": 1.3333339999999936
                },
                {
                    "name": "D6",
                    "midi": 86,
                    "time": 81.33337399999994,
                    "velocity": 0.6141732283464567,
                    "duration": 1.3333339999999936
                },
                {
                    "name": "C5",
                    "midi": 72,
                    "time": 82.66670799999993,
                    "velocity": 0.48031496062992124,
                    "duration": 1.3333339999999936
                },
                {
                    "name": "F#5",
                    "midi": 78,
                    "time": 82.66670799999993,
                    "velocity": 0.48031496062992124,
                    "duration": 1.3333339999999936
                },
                {
                    "name": "C6",
                    "midi": 84,
                    "time": 82.66670799999993,
                    "velocity": 0.48031496062992124,
                    "duration": 1.3333339999999936
                },
                {
                    "name": "G#5",
                    "midi": 80,
                    "time": 82.66670799999993,
                    "velocity": 0.48031496062992124,
                    "duration": 1.3333339999999936
                },
                {
                    "name": "E5",
                    "midi": 76,
                    "time": 84.00004199999992,
                    "velocity": 0.4330708661417323,
                    "duration": 0.6666670000000039
                },
                {
                    "name": "C#5",
                    "midi": 73,
                    "time": 84.00004199999992,
                    "velocity": 0.4330708661417323,
                    "duration": 0.6666670000000039
                },
                {
                    "name": "G#5",
                    "midi": 80,
                    "time": 84.00004199999992,
                    "velocity": 0.4330708661417323,
                    "duration": 0.6666670000000039
                },
                {
                    "name": "C#6",
                    "midi": 85,
                    "time": 84.00004199999992,
                    "velocity": 0.4330708661417323,
                    "duration": 0.6666670000000039
                },
                {
                    "name": "G#4",
                    "midi": 68,
                    "time": 84.66670899999993,
                    "velocity": 0.3464566929133858,
                    "duration": 0.6666670000000039
                },
                {
                    "name": "G#5",
                    "midi": 80,
                    "time": 84.66670899999993,
                    "velocity": 0.3464566929133858,
                    "duration": 0.6666670000000039
                },
                {
                    "name": "D#5",
                    "midi": 75,
                    "time": 85.33337599999993,
                    "velocity": 0.3464566929133858,
                    "duration": 1.3333339999999936
                },
                {
                    "name": "A5",
                    "midi": 81,
                    "time": 85.33337599999993,
                    "velocity": 0.3464566929133858,
                    "duration": 1.3333339999999936
                },
                {
                    "name": "C#5",
                    "midi": 73,
                    "time": 85.33337599999993,
                    "velocity": 0.3464566929133858,
                    "duration": 1.3333339999999936
                },
                {
                    "name": "A4",
                    "midi": 69,
                    "time": 85.33337599999993,
                    "velocity": 0.3464566929133858,
                    "duration": 1.3333339999999936
                },
                {
                    "name": "E5",
                    "midi": 76,
                    "time": 86.66670999999992,
                    "velocity": 0.2992125984251969,
                    "duration": 1.3333339999999936
                },
                {
                    "name": "G#5",
                    "midi": 80,
                    "time": 86.66670999999992,
                    "velocity": 0.2992125984251969,
                    "duration": 1.3333339999999936
                },
                {
                    "name": "G#4",
                    "midi": 68,
                    "time": 86.66670999999992,
                    "velocity": 0.2992125984251969,
                    "duration": 1.3333339999999936
                },
                {
                    "name": "C#5",
                    "midi": 73,
                    "time": 86.66670999999992,
                    "velocity": 0.2992125984251969,
                    "duration": 1.3333339999999936
                },
                {
                    "name": "F#4",
                    "midi": 66,
                    "time": 88.00004399999992,
                    "velocity": 0.3700787401574803,
                    "duration": 1.3333339999999936
                },
                {
                    "name": "C#5",
                    "midi": 73,
                    "time": 88.00004399999992,
                    "velocity": 0.3700787401574803,
                    "duration": 1.3333339999999936
                },
                {
                    "name": "D#5",
                    "midi": 75,
                    "time": 88.00004399999992,
                    "velocity": 0.3700787401574803,
                    "duration": 1.3333339999999936
                },
                {
                    "name": "F#5",
                    "midi": 78,
                    "time": 88.00004399999992,
                    "velocity": 0.3700787401574803,
                    "duration": 1.3333339999999936
                },
                {
                    "name": "C#5",
                    "midi": 73,
                    "time": 89.33337799999991,
                    "velocity": 0.4094488188976378,
                    "duration": 0.33333349999999484
                },
                {
                    "name": "C#6",
                    "midi": 85,
                    "time": 89.33337799999991,
                    "velocity": 0.4094488188976378,
                    "duration": 0.33333349999999484
                },
                {
                    "name": "C#5",
                    "midi": 73,
                    "time": 90.6667119999999,
                    "velocity": 0.6614173228346457,
                    "duration": 2.6666680000000014
                },
                {
                    "name": "G5",
                    "midi": 79,
                    "time": 90.6667119999999,
                    "velocity": 0.6614173228346457,
                    "duration": 2.6666680000000014
                },
                {
                    "name": "A#5",
                    "midi": 82,
                    "time": 90.6667119999999,
                    "velocity": 0.6614173228346457,
                    "duration": 2.6666680000000014
                },
                {
                    "name": "A#4",
                    "midi": 70,
                    "time": 90.6667119999999,
                    "velocity": 0.6614173228346457,
                    "duration": 2.6666680000000014
                },
                {
                    "name": "D#5",
                    "midi": 75,
                    "time": 93.3333799999999,
                    "velocity": 0.7559055118110236,
                    "duration": 0.6666670000000039
                },
                {
                    "name": "G#5",
                    "midi": 80,
                    "time": 93.3333799999999,
                    "velocity": 0.7559055118110236,
                    "duration": 0.6666670000000039
                },
                {
                    "name": "B5",
                    "midi": 83,
                    "time": 93.3333799999999,
                    "velocity": 0.7559055118110236,
                    "duration": 0.6666670000000039
                },
                {
                    "name": "B4",
                    "midi": 71,
                    "time": 93.3333799999999,
                    "velocity": 0.7559055118110236,
                    "duration": 0.6666670000000039
                },
                {
                    "name": "G#6",
                    "midi": 92,
                    "time": 94.66671399999991,
                    "velocity": 0.8188976377952756,
                    "duration": 0.6666670000000039
                },
                {
                    "name": "G#5",
                    "midi": 80,
                    "time": 94.66671399999991,
                    "velocity": 0.8188976377952756,
                    "duration": 0.6666670000000039
                },
                {
                    "name": "E6",
                    "midi": 88,
                    "time": 96.00004799999992,
                    "velocity": 0.7795275590551181,
                    "duration": 0.6666670000000039
                },
                {
                    "name": "E5",
                    "midi": 76,
                    "time": 96.00004799999992,
                    "velocity": 0.7795275590551181,
                    "duration": 0.6666670000000039
                },
                {
                    "name": "C#6",
                    "midi": 85,
                    "time": 96.00004799999992,
                    "velocity": 0.7795275590551181,
                    "duration": 0.6666670000000039
                },
                {
                    "name": "G#5",
                    "midi": 80,
                    "time": 96.00004799999992,
                    "velocity": 0.7795275590551181,
                    "duration": 0.6666670000000039
                },
                {
                    "name": "D#6",
                    "midi": 87,
                    "time": 97.33338199999993,
                    "velocity": 0.7480314960629921,
                    "duration": 0.6666670000000039
                },
                {
                    "name": "B5",
                    "midi": 83,
                    "time": 97.33338199999993,
                    "velocity": 0.7480314960629921,
                    "duration": 0.6666670000000039
                },
                {
                    "name": "G5",
                    "midi": 79,
                    "time": 97.33338199999993,
                    "velocity": 0.7480314960629921,
                    "duration": 0.6666670000000039
                },
                {
                    "name": "D#5",
                    "midi": 75,
                    "time": 97.33338199999993,
                    "velocity": 0.7480314960629921,
                    "duration": 0.6666670000000039
                },
                {
                    "name": "B4",
                    "midi": 71,
                    "time": 98.00004899999993,
                    "velocity": 0.7401574803149606,
                    "duration": 0.6666670000000039
                },
                {
                    "name": "B5",
                    "midi": 83,
                    "time": 98.00004899999993,
                    "velocity": 0.7401574803149606,
                    "duration": 0.6666670000000039
                },
                {
                    "name": "G#4",
                    "midi": 68,
                    "time": 98.66671599999994,
                    "velocity": 0.7086614173228346,
                    "duration": 0.6666670000000039
                },
                {
                    "name": "G#5",
                    "midi": 80,
                    "time": 98.66671599999994,
                    "velocity": 0.7874015748031497,
                    "duration": 0.6666670000000039
                },
                {
                    "name": "D#5",
                    "midi": 75,
                    "time": 100.00004999999994,
                    "velocity": 0.8031496062992126,
                    "duration": 2.0000009999999975
                },
                {
                    "name": "D#4",
                    "midi": 63,
                    "time": 100.00004999999994,
                    "velocity": 0.6771653543307087,
                    "duration": 2.0000009999999975
                },
                {
                    "name": "F#5",
                    "midi": 78,
                    "time": 102.00005099999994,
                    "velocity": 0.7874015748031497,
                    "duration": 0.33333349999999484
                },
                {
                    "name": "F#4",
                    "midi": 66,
                    "time": 102.00005099999994,
                    "velocity": 0.7086614173228346,
                    "duration": 0.33333349999999484
                },
                {
                    "name": "E5",
                    "midi": 76,
                    "time": 102.33338449999994,
                    "velocity": 0.7244094488188977,
                    "duration": 0.33333349999999484
                },
                {
                    "name": "E4",
                    "midi": 64,
                    "time": 102.33338449999994,
                    "velocity": 0.6456692913385826,
                    "duration": 0.33333349999999484
                },
                {
                    "name": "D#4",
                    "midi": 63,
                    "time": 102.66671799999993,
                    "velocity": 0.6929133858267716,
                    "duration": 0.6666670000000039
                },
                {
                    "name": "D#5",
                    "midi": 75,
                    "time": 102.66671799999993,
                    "velocity": 0.7716535433070866,
                    "duration": 0.6666670000000039
                },
                {
                    "name": "E4",
                    "midi": 64,
                    "time": 103.33338499999994,
                    "velocity": 0.6456692913385826,
                    "duration": 0.6666670000000039
                },
                {
                    "name": "E5",
                    "midi": 76,
                    "time": 103.33338499999994,
                    "velocity": 0.7244094488188977,
                    "duration": 0.6666670000000039
                },
                {
                    "name": "D#5",
                    "midi": 75,
                    "time": 104.00005199999994,
                    "velocity": 0.7559055118110236,
                    "duration": 0.6666670000000039
                },
                {
                    "name": "D#4",
                    "midi": 63,
                    "time": 104.00005199999994,
                    "velocity": 0.6771653543307087,
                    "duration": 0.6666670000000039
                },
                {
                    "name": "G#5",
                    "midi": 80,
                    "time": 104.66671899999994,
                    "velocity": 0.8346456692913385,
                    "duration": 0.6666670000000039
                },
                {
                    "name": "G#4",
                    "midi": 68,
                    "time": 104.66671899999994,
                    "velocity": 0.7480314960629921,
                    "duration": 0.6666670000000039
                },
                {
                    "name": "A#5",
                    "midi": 82,
                    "time": 105.33338599999995,
                    "velocity": 0.8661417322834646,
                    "duration": 0.6666670000000039
                },
                {
                    "name": "A#4",
                    "midi": 70,
                    "time": 105.33338599999995,
                    "velocity": 0.7795275590551181,
                    "duration": 0.6666670000000039
                },
                {
                    "name": "B5",
                    "midi": 83,
                    "time": 106.00005299999995,
                    "velocity": 0.8661417322834646,
                    "duration": 0.6666670000000039
                },
                {
                    "name": "B4",
                    "midi": 71,
                    "time": 106.00005299999995,
                    "velocity": 0.7795275590551181,
                    "duration": 0.6666670000000039
                },
                {
                    "name": "A#5",
                    "midi": 82,
                    "time": 106.66671999999996,
                    "velocity": 0.889763779527559,
                    "duration": 1.3333339999999936
                },
                {
                    "name": "A#4",
                    "midi": 70,
                    "time": 106.66671999999996,
                    "velocity": 0.7952755905511811,
                    "duration": 1.3333339999999936
                },
                {
                    "name": "G#5",
                    "midi": 80,
                    "time": 108.00005399999995,
                    "velocity": 0.8661417322834646,
                    "duration": 0.6666670000000039
                },
                {
                    "name": "G#4",
                    "midi": 68,
                    "time": 108.00005399999995,
                    "velocity": 0.7795275590551181,
                    "duration": 0.6666670000000039
                },
                {
                    "name": "C#6",
                    "midi": 85,
                    "time": 109.33338799999996,
                    "velocity": 0.889763779527559,
                    "duration": 1.3333339999999936
                },
                {
                    "name": "C#5",
                    "midi": 73,
                    "time": 109.33338799999996,
                    "velocity": 0.7952755905511811,
                    "duration": 1.3333339999999936
                },
                {
                    "name": "G#5",
                    "midi": 80,
                    "time": 110.66672199999995,
                    "velocity": 0.7480314960629921,
                    "duration": 0.6666670000000039
                },
                {
                    "name": "G#6",
                    "midi": 92,
                    "time": 110.66672199999995,
                    "velocity": 0.8346456692913385,
                    "duration": 0.6666670000000039
                },
                {
                    "name": "C#6",
                    "midi": 85,
                    "time": 112.00005599999996,
                    "velocity": 0.905511811023622,
                    "duration": 1.3333339999999936
                },
                {
                    "name": "C#5",
                    "midi": 73,
                    "time": 112.00005599999996,
                    "velocity": 0.8110236220472441,
                    "duration": 1.3333339999999936
                },
                {
                    "name": "G#6",
                    "midi": 92,
                    "time": 113.33338999999995,
                    "velocity": 0.8346456692913385,
                    "duration": 0.6666670000000039
                },
                {
                    "name": "G#5",
                    "midi": 80,
                    "time": 113.33338999999995,
                    "velocity": 0.7480314960629921,
                    "duration": 0.6666670000000039
                },
                {
                    "name": "G#6",
                    "midi": 92,
                    "time": 114.00005699999996,
                    "velocity": 0.8188976377952756,
                    "duration": 0.6666670000000039
                },
                {
                    "name": "G#5",
                    "midi": 80,
                    "time": 114.00005699999996,
                    "velocity": 0.7322834645669292,
                    "duration": 0.6666670000000039
                },
                {
                    "name": "D#6",
                    "midi": 87,
                    "time": 114.66672399999996,
                    "velocity": 0.8661417322834646,
                    "duration": 1.3333339999999936
                },
                {
                    "name": "D#5",
                    "midi": 75,
                    "time": 114.66672399999996,
                    "velocity": 0.7795275590551181,
                    "duration": 1.3333339999999936
                },
                {
                    "name": "C#6",
                    "midi": 85,
                    "time": 116.00005799999995,
                    "velocity": 0.8267716535433071,
                    "duration": 1.3333339999999936
                },
                {
                    "name": "C#5",
                    "midi": 73,
                    "time": 116.00005799999995,
                    "velocity": 0.7401574803149606,
                    "duration": 1.3333339999999936
                },
                {
                    "name": "B5",
                    "midi": 83,
                    "time": 117.33339199999995,
                    "velocity": 0.8031496062992126,
                    "duration": 0.6666670000000039
                },
                {
                    "name": "B4",
                    "midi": 71,
                    "time": 117.33339199999995,
                    "velocity": 0.7165354330708661,
                    "duration": 0.6666670000000039
                },
                {
                    "name": "D#6",
                    "midi": 87,
                    "time": 118.00005899999995,
                    "velocity": 0.7559055118110236,
                    "duration": 0.6666670000000039
                },
                {
                    "name": "D#5",
                    "midi": 75,
                    "time": 118.00005899999995,
                    "velocity": 0.6771653543307087,
                    "duration": 0.6666670000000039
                },
                {
                    "name": "A#5",
                    "midi": 82,
                    "time": 118.66672599999995,
                    "velocity": 0.8031496062992126,
                    "duration": 0.6666670000000039
                },
                {
                    "name": "A#4",
                    "midi": 70,
                    "time": 118.66672599999995,
                    "velocity": 0.7165354330708661,
                    "duration": 0.6666670000000039
                },
                {
                    "name": "G#5",
                    "midi": 80,
                    "time": 120.00005999999996,
                    "velocity": 0.7559055118110236,
                    "duration": 1.3333339999999936
                },
                {
                    "name": "G#4",
                    "midi": 68,
                    "time": 120.00005999999996,
                    "velocity": 0.6771653543307087,
                    "duration": 1.3333339999999936
                },
                {
                    "name": "F#5",
                    "midi": 78,
                    "time": 121.33339399999996,
                    "velocity": 0.7007874015748031,
                    "duration": 0.6666670000000039
                },
                {
                    "name": "F#4",
                    "midi": 66,
                    "time": 121.33339399999996,
                    "velocity": 0.6299212598425197,
                    "duration": 0.6666670000000039
                },
                {
                    "name": "E5",
                    "midi": 76,
                    "time": 122.00006099999996,
                    "velocity": 0.6377952755905512,
                    "duration": 0.6666670000000039
                },
                {
                    "name": "E4",
                    "midi": 64,
                    "time": 122.00006099999996,
                    "velocity": 0.5669291338582677,
                    "duration": 0.6666670000000039
                },
                {
                    "name": "D#5",
                    "midi": 75,
                    "time": 122.66672799999996,
                    "velocity": 0.6692913385826772,
                    "duration": 0.6666670000000039
                },
                {
                    "name": "D#4",
                    "midi": 63,
                    "time": 122.66672799999996,
                    "velocity": 0.5984251968503937,
                    "duration": 0.6666670000000039
                },
                {
                    "name": "D#3",
                    "midi": 51,
                    "time": 124.00006199999997,
                    "velocity": 0.44881889763779526,
                    "duration": 2.0000009999999975
                },
                {
                    "name": "F#3",
                    "midi": 54,
                    "time": 126.00006299999997,
                    "velocity": 0.4645669291338583,
                    "duration": 0.33333349999999484
                },
                {
                    "name": "E3",
                    "midi": 52,
                    "time": 126.33339649999996,
                    "velocity": 0.4409448818897638,
                    "duration": 0.33333349999999484
                },
                {
                    "name": "D#3",
                    "midi": 51,
                    "time": 126.66672999999996,
                    "velocity": 0.4645669291338583,
                    "duration": 0.6666670000000039
                },
                {
                    "name": "E3",
                    "midi": 52,
                    "time": 127.33339699999996,
                    "velocity": 0.4409448818897638,
                    "duration": 0.6666669999999897
                },
                {
                    "name": "D#3",
                    "midi": 51,
                    "time": 128.00006399999995,
                    "velocity": 0.4645669291338583,
                    "duration": 0.6666669999999897
                },
                {
                    "name": "G#3",
                    "midi": 56,
                    "time": 128.66673099999994,
                    "velocity": 0.4566929133858268,
                    "duration": 0.6666669999999897
                },
                {
                    "name": "A#3",
                    "midi": 58,
                    "time": 129.33339799999993,
                    "velocity": 0.4645669291338583,
                    "duration": 0.6666669999999897
                },
                {
                    "name": "B3",
                    "midi": 59,
                    "time": 130.00006499999992,
                    "velocity": 0.4645669291338583,
                    "duration": 0.6666669999999897
                },
                {
                    "name": "A#3",
                    "midi": 58,
                    "time": 130.6667319999999,
                    "velocity": 0.4881889763779528,
                    "duration": 1.3333340000000078
                },
                {
                    "name": "G#3",
                    "midi": 56,
                    "time": 132.00006599999992,
                    "velocity": 0.4645669291338583,
                    "duration": 0.6666669999999897
                },
                {
                    "name": "C#4",
                    "midi": 61,
                    "time": 133.3333999999999,
                    "velocity": 0.5354330708661418,
                    "duration": 1.3333340000000078
                },
                {
                    "name": "E4",
                    "midi": 64,
                    "time": 134.6667339999999,
                    "velocity": 0.49606299212598426,
                    "duration": 0.6666669999999897
                },
                {
                    "name": "E4",
                    "midi": 64,
                    "time": 136.00006799999989,
                    "velocity": 0.5354330708661418,
                    "duration": 1.3333340000000078
                },
                {
                    "name": "E4",
                    "midi": 64,
                    "time": 137.3334019999999,
                    "velocity": 0.5196850393700787,
                    "duration": 1.3333340000000078
                },
                {
                    "name": "G#4",
                    "midi": 68,
                    "time": 140.0000699999999,
                    "velocity": 0.5039370078740157,
                    "duration": 1.3333340000000078
                },
                {
                    "name": "D#4",
                    "midi": 63,
                    "time": 141.33340399999992,
                    "velocity": 0.5118110236220472,
                    "duration": 0.6666669999999897
                },
                {
                    "name": "B3",
                    "midi": 59,
                    "time": 142.0000709999999,
                    "velocity": 0.44881889763779526,
                    "duration": 0.6666669999999897
                },
                {
                    "name": "A#3",
                    "midi": 58,
                    "time": 142.6667379999999,
                    "velocity": 0.4881889763779528,
                    "duration": 1.3333340000000078
                },
                {
                    "name": "G#3",
                    "midi": 56,
                    "time": 144.0000719999999,
                    "velocity": 0.4251968503937008,
                    "duration": 0.6666669999999897
                },
                {
                    "name": "D#3",
                    "midi": 51,
                    "time": 150.66674199999989,
                    "velocity": 0.2755905511811024,
                    "duration": 2.0000009999999975
                },
                {
                    "name": "F#3",
                    "midi": 54,
                    "time": 152.66674299999988,
                    "velocity": 0.25984251968503935,
                    "duration": 0.33333350000000905
                },
                {
                    "name": "E3",
                    "midi": 52,
                    "time": 153.0000764999999,
                    "velocity": 0.23622047244094488,
                    "duration": 0.33333350000000905
                },
                {
                    "name": "D#3",
                    "midi": 51,
                    "time": 153.3334099999999,
                    "velocity": 0.2677165354330709,
                    "duration": 0.6666669999999897
                },
                {
                    "name": "E3",
                    "midi": 52,
                    "time": 154.0000769999999,
                    "velocity": 0.25196850393700787,
                    "duration": 0.6666669999999897
                },
                {
                    "name": "D#3",
                    "midi": 51,
                    "time": 160.00007999999988,
                    "velocity": 0.2283464566929134,
                    "duration": 2.0000009999999975
                }
            ],
            "controlChanges": {
                "7": [
                    {
                        "number": 7,
                        "time": 0,
                        "value": 0.7874015748031497
                    }
                ],
                "10": [
                    {
                        "number": 10,
                        "time": 0,
                        "value": 0.5039370078740157
                    }
                ],
                "91": [
                    {
                        "number": 91,
                        "time": 0,
                        "value": 1
                    }
                ]
            },
            "id": 1,
            "name": "Piano right",
            "instrumentNumber": 0,
            "instrument": "acoustic grand piano",
            "instrumentFamily": "piano",
            "channelNumber": 0,
            "isPercussion": false
        },
        {
            "startTime": 0,
            "duration": 170.6667519999997,
            "length": 701,
            "notes": [
                {
                    "name": "G#1",
                    "midi": 32,
                    "time": 0,
                    "velocity": 0.25196850393700787,
                    "duration": 0.666667
                },
                {
                    "name": "D#2",
                    "midi": 39,
                    "time": 0,
                    "velocity": 0.25196850393700787,
                    "duration": 0.666667
                },
                {
                    "name": "G#2",
                    "midi": 44,
                    "time": 0,
                    "velocity": 0.2992125984251969,
                    "duration": 0.666667
                },
                {
                    "name": "D#2",
                    "midi": 39,
                    "time": 0.666667,
                    "velocity": 0.2283464566929134,
                    "duration": 0.666667
                },
                {
                    "name": "B1",
                    "midi": 35,
                    "time": 0.666667,
                    "velocity": 0.2283464566929134,
                    "duration": 0.666667
                },
                {
                    "name": "B2",
                    "midi": 47,
                    "time": 0.666667,
                    "velocity": 0.2755905511811024,
                    "duration": 0.666667
                },
                {
                    "name": "G#1",
                    "midi": 32,
                    "time": 1.333334,
                    "velocity": 0.25196850393700787,
                    "duration": 0.6666670000000001
                },
                {
                    "name": "G#2",
                    "midi": 44,
                    "time": 1.333334,
                    "velocity": 0.2992125984251969,
                    "duration": 0.6666670000000001
                },
                {
                    "name": "D#2",
                    "midi": 39,
                    "time": 1.333334,
                    "velocity": 0.25196850393700787,
                    "duration": 0.6666670000000001
                },
                {
                    "name": "D#2",
                    "midi": 39,
                    "time": 2.000001,
                    "velocity": 0.2283464566929134,
                    "duration": 0.6666669999999999
                },
                {
                    "name": "B2",
                    "midi": 47,
                    "time": 2.000001,
                    "velocity": 0.2755905511811024,
                    "duration": 0.6666669999999999
                },
                {
                    "name": "B1",
                    "midi": 35,
                    "time": 2.000001,
                    "velocity": 0.2283464566929134,
                    "duration": 0.6666669999999999
                },
                {
                    "name": "G#1",
                    "midi": 32,
                    "time": 2.666668,
                    "velocity": 0.25196850393700787,
                    "duration": 0.6666669999999999
                },
                {
                    "name": "G#2",
                    "midi": 44,
                    "time": 2.666668,
                    "velocity": 0.2992125984251969,
                    "duration": 0.6666669999999999
                },
                {
                    "name": "D#2",
                    "midi": 39,
                    "time": 2.666668,
                    "velocity": 0.25196850393700787,
                    "duration": 0.6666669999999999
                },
                {
                    "name": "B1",
                    "midi": 35,
                    "time": 3.333335,
                    "velocity": 0.2283464566929134,
                    "duration": 0.6666670000000003
                },
                {
                    "name": "B2",
                    "midi": 47,
                    "time": 3.333335,
                    "velocity": 0.2755905511811024,
                    "duration": 0.6666670000000003
                },
                {
                    "name": "D#2",
                    "midi": 39,
                    "time": 3.333335,
                    "velocity": 0.2283464566929134,
                    "duration": 0.6666670000000003
                },
                {
                    "name": "D#2",
                    "midi": 39,
                    "time": 4.000002,
                    "velocity": 0.25196850393700787,
                    "duration": 0.6666670000000003
                },
                {
                    "name": "G#1",
                    "midi": 32,
                    "time": 4.000002,
                    "velocity": 0.25196850393700787,
                    "duration": 0.6666670000000003
                },
                {
                    "name": "G#2",
                    "midi": 44,
                    "time": 4.000002,
                    "velocity": 0.2992125984251969,
                    "duration": 0.6666670000000003
                },
                {
                    "name": "D#2",
                    "midi": 39,
                    "time": 4.666669000000001,
                    "velocity": 0.2283464566929134,
                    "duration": 0.6666670000000003
                },
                {
                    "name": "B1",
                    "midi": 35,
                    "time": 4.666669000000001,
                    "velocity": 0.2283464566929134,
                    "duration": 0.6666670000000003
                },
                {
                    "name": "B2",
                    "midi": 47,
                    "time": 4.666669000000001,
                    "velocity": 0.2755905511811024,
                    "duration": 0.6666670000000003
                },
                {
                    "name": "D#2",
                    "midi": 39,
                    "time": 5.333336000000001,
                    "velocity": 0.25196850393700787,
                    "duration": 0.6666670000000003
                },
                {
                    "name": "G#1",
                    "midi": 32,
                    "time": 5.333336000000001,
                    "velocity": 0.25196850393700787,
                    "duration": 0.6666670000000003
                },
                {
                    "name": "G#2",
                    "midi": 44,
                    "time": 5.333336000000001,
                    "velocity": 0.2992125984251969,
                    "duration": 0.6666670000000003
                },
                {
                    "name": "D#2",
                    "midi": 39,
                    "time": 6.000003000000001,
                    "velocity": 0.2283464566929134,
                    "duration": 0.6666670000000003
                },
                {
                    "name": "B2",
                    "midi": 47,
                    "time": 6.000003000000001,
                    "velocity": 0.2755905511811024,
                    "duration": 0.6666670000000003
                },
                {
                    "name": "B1",
                    "midi": 35,
                    "time": 6.000003000000001,
                    "velocity": 0.2283464566929134,
                    "duration": 0.6666670000000003
                },
                {
                    "name": "D#2",
                    "midi": 39,
                    "time": 6.666670000000002,
                    "velocity": 0.2755905511811024,
                    "duration": 0.6666670000000003
                },
                {
                    "name": "G#2",
                    "midi": 44,
                    "time": 6.666670000000002,
                    "velocity": 0.33070866141732286,
                    "duration": 0.6666670000000003
                },
                {
                    "name": "G#1",
                    "midi": 32,
                    "time": 6.666670000000002,
                    "velocity": 0.2755905511811024,
                    "duration": 0.6666670000000003
                },
                {
                    "name": "D#2",
                    "midi": 39,
                    "time": 7.333337000000002,
                    "velocity": 0.2440944881889764,
                    "duration": 0.6666670000000003
                },
                {
                    "name": "B1",
                    "midi": 35,
                    "time": 7.333337000000002,
                    "velocity": 0.2440944881889764,
                    "duration": 0.6666670000000003
                },
                {
                    "name": "B2",
                    "midi": 47,
                    "time": 7.333337000000002,
                    "velocity": 0.29133858267716534,
                    "duration": 0.6666670000000003
                },
                {
                    "name": "D#2",
                    "midi": 39,
                    "time": 8.000004000000002,
                    "velocity": 0.28346456692913385,
                    "duration": 0.6666670000000003
                },
                {
                    "name": "G#1",
                    "midi": 32,
                    "time": 8.000004000000002,
                    "velocity": 0.28346456692913385,
                    "duration": 0.6666670000000003
                },
                {
                    "name": "G#2",
                    "midi": 44,
                    "time": 8.000004000000002,
                    "velocity": 0.33858267716535434,
                    "duration": 0.6666670000000003
                },
                {
                    "name": "D#2",
                    "midi": 39,
                    "time": 8.666671000000003,
                    "velocity": 0.25196850393700787,
                    "duration": 0.6666670000000003
                },
                {
                    "name": "B1",
                    "midi": 35,
                    "time": 8.666671000000003,
                    "velocity": 0.25196850393700787,
                    "duration": 0.6666670000000003
                },
                {
                    "name": "B2",
                    "midi": 47,
                    "time": 8.666671000000003,
                    "velocity": 0.2992125984251969,
                    "duration": 0.6666670000000003
                },
                {
                    "name": "D#2",
                    "midi": 39,
                    "time": 9.333338000000003,
                    "velocity": 0.25196850393700787,
                    "duration": 0.6666670000000003
                },
                {
                    "name": "G#2",
                    "midi": 44,
                    "time": 9.333338000000003,
                    "velocity": 0.2992125984251969,
                    "duration": 0.6666670000000003
                },
                {
                    "name": "G#1",
                    "midi": 32,
                    "time": 9.333338000000003,
                    "velocity": 0.25196850393700787,
                    "duration": 0.6666670000000003
                },
                {
                    "name": "D#2",
                    "midi": 39,
                    "time": 10.000005000000003,
                    "velocity": 0.2283464566929134,
                    "duration": 0.6666670000000003
                },
                {
                    "name": "B2",
                    "midi": 47,
                    "time": 10.000005000000003,
                    "velocity": 0.2755905511811024,
                    "duration": 0.6666670000000003
                },
                {
                    "name": "B1",
                    "midi": 35,
                    "time": 10.000005000000003,
                    "velocity": 0.2283464566929134,
                    "duration": 0.6666670000000003
                },
                {
                    "name": "A1",
                    "midi": 33,
                    "time": 10.666672000000004,
                    "velocity": 0.2992125984251969,
                    "duration": 0.6666670000000003
                },
                {
                    "name": "C#2",
                    "midi": 37,
                    "time": 10.666672000000004,
                    "velocity": 0.2992125984251969,
                    "duration": 0.6666670000000003
                },
                {
                    "name": "A2",
                    "midi": 45,
                    "time": 10.666672000000004,
                    "velocity": 0.3543307086614173,
                    "duration": 0.6666670000000003
                },
                {
                    "name": "C#2",
                    "midi": 37,
                    "time": 11.333339000000004,
                    "velocity": 0.2677165354330709,
                    "duration": 0.6666670000000003
                },
                {
                    "name": "C#3",
                    "midi": 49,
                    "time": 11.333339000000004,
                    "velocity": 0.3228346456692913,
                    "duration": 0.6666670000000003
                },
                {
                    "name": "E2",
                    "midi": 40,
                    "time": 11.333339000000004,
                    "velocity": 0.2677165354330709,
                    "duration": 0.6666670000000003
                },
                {
                    "name": "G#1",
                    "midi": 32,
                    "time": 12.000006000000004,
                    "velocity": 0.29133858267716534,
                    "duration": 0.6666670000000003
                },
                {
                    "name": "E2",
                    "midi": 40,
                    "time": 12.000006000000004,
                    "velocity": 0.3464566929133858,
                    "duration": 0.6666670000000003
                },
                {
                    "name": "E1",
                    "midi": 28,
                    "time": 12.000006000000004,
                    "velocity": 0.29133858267716534,
                    "duration": 0.6666670000000003
                },
                {
                    "name": "B1",
                    "midi": 35,
                    "time": 12.666673000000005,
                    "velocity": 0.25984251968503935,
                    "duration": 0.6666670000000003
                },
                {
                    "name": "G#2",
                    "midi": 44,
                    "time": 12.666673000000005,
                    "velocity": 0.30708661417322836,
                    "duration": 0.6666670000000003
                },
                {
                    "name": "G#1",
                    "midi": 32,
                    "time": 12.666673000000005,
                    "velocity": 0.25984251968503935,
                    "duration": 0.6666670000000003
                },
                {
                    "name": "C#2",
                    "midi": 37,
                    "time": 13.333340000000005,
                    "velocity": 0.2992125984251969,
                    "duration": 0.6666670000000003
                },
                {
                    "name": "A1",
                    "midi": 33,
                    "time": 13.333340000000005,
                    "velocity": 0.2992125984251969,
                    "duration": 0.6666670000000003
                },
                {
                    "name": "A2",
                    "midi": 45,
                    "time": 13.333340000000005,
                    "velocity": 0.3543307086614173,
                    "duration": 0.6666670000000003
                },
                {
                    "name": "C#2",
                    "midi": 37,
                    "time": 14.000007000000005,
                    "velocity": 0.25984251968503935,
                    "duration": 0.6666670000000003
                },
                {
                    "name": "E2",
                    "midi": 40,
                    "time": 14.000007000000005,
                    "velocity": 0.25984251968503935,
                    "duration": 0.6666670000000003
                },
                {
                    "name": "C#3",
                    "midi": 49,
                    "time": 14.000007000000005,
                    "velocity": 0.30708661417322836,
                    "duration": 0.6666670000000003
                },
                {
                    "name": "E1",
                    "midi": 28,
                    "time": 14.666674000000006,
                    "velocity": 0.2992125984251969,
                    "duration": 0.6666670000000003
                },
                {
                    "name": "G#1",
                    "midi": 32,
                    "time": 14.666674000000006,
                    "velocity": 0.2992125984251969,
                    "duration": 0.6666670000000003
                },
                {
                    "name": "E2",
                    "midi": 40,
                    "time": 14.666674000000006,
                    "velocity": 0.3543307086614173,
                    "duration": 0.6666670000000003
                },
                {
                    "name": "G#1",
                    "midi": 32,
                    "time": 15.333341000000006,
                    "velocity": 0.2677165354330709,
                    "duration": 0.6666669999999986
                },
                {
                    "name": "B1",
                    "midi": 35,
                    "time": 15.333341000000006,
                    "velocity": 0.2677165354330709,
                    "duration": 0.6666669999999986
                },
                {
                    "name": "G#2",
                    "midi": 44,
                    "time": 15.333341000000006,
                    "velocity": 0.31496062992125984,
                    "duration": 0.6666669999999986
                },
                {
                    "name": "A#1",
                    "midi": 34,
                    "time": 16.000008000000005,
                    "velocity": 0.2992125984251969,
                    "duration": 0.6666670000000003
                },
                {
                    "name": "G1",
                    "midi": 31,
                    "time": 16.000008000000005,
                    "velocity": 0.2992125984251969,
                    "duration": 0.6666670000000003
                },
                {
                    "name": "G2",
                    "midi": 43,
                    "time": 16.000008000000005,
                    "velocity": 0.3543307086614173,
                    "duration": 0.6666670000000003
                },
                {
                    "name": "A#1",
                    "midi": 34,
                    "time": 16.666675000000005,
                    "velocity": 0.2283464566929134,
                    "duration": 0.6666670000000003
                },
                {
                    "name": "D#2",
                    "midi": 39,
                    "time": 16.666675000000005,
                    "velocity": 0.2283464566929134,
                    "duration": 0.6666670000000003
                },
                {
                    "name": "A#2",
                    "midi": 46,
                    "time": 16.666675000000005,
                    "velocity": 0.2755905511811024,
                    "duration": 0.6666670000000003
                },
                {
                    "name": "G1",
                    "midi": 31,
                    "time": 17.333342000000005,
                    "velocity": 0.25196850393700787,
                    "duration": 0.6666670000000003
                },
                {
                    "name": "A#1",
                    "midi": 34,
                    "time": 17.333342000000005,
                    "velocity": 0.25196850393700787,
                    "duration": 0.6666670000000003
                },
                {
                    "name": "G2",
                    "midi": 43,
                    "time": 17.333342000000005,
                    "velocity": 0.2992125984251969,
                    "duration": 0.6666670000000003
                },
                {
                    "name": "A#1",
                    "midi": 34,
                    "time": 18.000009000000006,
                    "velocity": 0.2283464566929134,
                    "duration": 0.6666670000000003
                },
                {
                    "name": "D#2",
                    "midi": 39,
                    "time": 18.000009000000006,
                    "velocity": 0.2283464566929134,
                    "duration": 0.6666670000000003
                },
                {
                    "name": "A#2",
                    "midi": 46,
                    "time": 18.000009000000006,
                    "velocity": 0.2755905511811024,
                    "duration": 0.6666670000000003
                },
                {
                    "name": "G#1",
                    "midi": 32,
                    "time": 18.666676000000006,
                    "velocity": 0.2755905511811024,
                    "duration": 0.6666670000000003
                },
                {
                    "name": "D#2",
                    "midi": 39,
                    "time": 18.666676000000006,
                    "velocity": 0.2755905511811024,
                    "duration": 0.6666670000000003
                },
                {
                    "name": "G#2",
                    "midi": 44,
                    "time": 18.666676000000006,
                    "velocity": 0.33070866141732286,
                    "duration": 0.6666670000000003
                },
                {
                    "name": "B1",
                    "midi": 35,
                    "time": 19.333343000000006,
                    "velocity": 0.2283464566929134,
                    "duration": 0.6666670000000003
                },
                {
                    "name": "D#2",
                    "midi": 39,
                    "time": 19.333343000000006,
                    "velocity": 0.2283464566929134,
                    "duration": 0.6666670000000003
                },
                {
                    "name": "B2",
                    "midi": 47,
                    "time": 19.333343000000006,
                    "velocity": 0.2755905511811024,
                    "duration": 0.6666670000000003
                },
                {
                    "name": "G1",
                    "midi": 31,
                    "time": 20.000010000000007,
                    "velocity": 0.25196850393700787,
                    "duration": 0.6666670000000003
                },
                {
                    "name": "A#1",
                    "midi": 34,
                    "time": 20.000010000000007,
                    "velocity": 0.25196850393700787,
                    "duration": 0.6666670000000003
                },
                {
                    "name": "G2",
                    "midi": 43,
                    "time": 20.000010000000007,
                    "velocity": 0.2992125984251969,
                    "duration": 0.6666670000000003
                },
                {
                    "name": "A#1",
                    "midi": 34,
                    "time": 20.666677000000007,
                    "velocity": 0.2283464566929134,
                    "duration": 0.6666670000000003
                },
                {
                    "name": "D#2",
                    "midi": 39,
                    "time": 20.666677000000007,
                    "velocity": 0.2283464566929134,
                    "duration": 0.6666670000000003
                },
                {
                    "name": "A#2",
                    "midi": 46,
                    "time": 20.666677000000007,
                    "velocity": 0.2755905511811024,
                    "duration": 0.6666670000000003
                },
                {
                    "name": "G#1",
                    "midi": 32,
                    "time": 21.333344000000007,
                    "velocity": 0.2677165354330709,
                    "duration": 0.6666670000000003
                },
                {
                    "name": "B1",
                    "midi": 35,
                    "time": 21.333344000000007,
                    "velocity": 0.2677165354330709,
                    "duration": 0.6666670000000003
                },
                {
                    "name": "G#2",
                    "midi": 44,
                    "time": 21.333344000000007,
                    "velocity": 0.31496062992125984,
                    "duration": 0.6666670000000003
                },
                {
                    "name": "B1",
                    "midi": 35,
                    "time": 22.000011000000008,
                    "velocity": 0.2283464566929134,
                    "duration": 0.6666670000000003
                },
                {
                    "name": "D#2",
                    "midi": 39,
                    "time": 22.000011000000008,
                    "velocity": 0.2283464566929134,
                    "duration": 0.6666670000000003
                },
                {
                    "name": "B2",
                    "midi": 47,
                    "time": 22.000011000000008,
                    "velocity": 0.2755905511811024,
                    "duration": 0.6666670000000003
                },
                {
                    "name": "A1",
                    "midi": 33,
                    "time": 22.666678000000008,
                    "velocity": 0.25196850393700787,
                    "duration": 0.6666670000000003
                },
                {
                    "name": "C#2",
                    "midi": 37,
                    "time": 22.666678000000008,
                    "velocity": 0.25196850393700787,
                    "duration": 0.6666670000000003
                },
                {
                    "name": "A2",
                    "midi": 45,
                    "time": 22.666678000000008,
                    "velocity": 0.2992125984251969,
                    "duration": 0.6666670000000003
                },
                {
                    "name": "C#2",
                    "midi": 37,
                    "time": 23.33334500000001,
                    "velocity": 0.2204724409448819,
                    "duration": 0.6666670000000003
                },
                {
                    "name": "E2",
                    "midi": 40,
                    "time": 23.33334500000001,
                    "velocity": 0.2204724409448819,
                    "duration": 0.6666670000000003
                },
                {
                    "name": "C#3",
                    "midi": 49,
                    "time": 23.33334500000001,
                    "velocity": 0.25984251968503935,
                    "duration": 0.6666670000000003
                },
                {
                    "name": "G#1",
                    "midi": 32,
                    "time": 24.00001200000001,
                    "velocity": 0.23622047244094488,
                    "duration": 0.6666670000000003
                },
                {
                    "name": "D#2",
                    "midi": 39,
                    "time": 24.00001200000001,
                    "velocity": 0.23622047244094488,
                    "duration": 0.6666670000000003
                },
                {
                    "name": "G#2",
                    "midi": 44,
                    "time": 24.00001200000001,
                    "velocity": 0.28346456692913385,
                    "duration": 0.6666670000000003
                },
                {
                    "name": "B1",
                    "midi": 35,
                    "time": 24.66667900000001,
                    "velocity": 0.2047244094488189,
                    "duration": 0.6666670000000003
                },
                {
                    "name": "D#2",
                    "midi": 39,
                    "time": 24.66667900000001,
                    "velocity": 0.2047244094488189,
                    "duration": 0.6666670000000003
                },
                {
                    "name": "B2",
                    "midi": 47,
                    "time": 24.66667900000001,
                    "velocity": 0.2440944881889764,
                    "duration": 0.6666670000000003
                },
                {
                    "name": "G#1",
                    "midi": 32,
                    "time": 25.33334600000001,
                    "velocity": 0.2992125984251969,
                    "duration": 0.6666670000000003
                },
                {
                    "name": "D#2",
                    "midi": 39,
                    "time": 25.33334600000001,
                    "velocity": 0.2992125984251969,
                    "duration": 0.6666670000000003
                },
                {
                    "name": "G#2",
                    "midi": 44,
                    "time": 25.33334600000001,
                    "velocity": 0.3543307086614173,
                    "duration": 0.6666670000000003
                },
                {
                    "name": "B1",
                    "midi": 35,
                    "time": 26.00001300000001,
                    "velocity": 0.25196850393700787,
                    "duration": 0.6666670000000003
                },
                {
                    "name": "D#2",
                    "midi": 39,
                    "time": 26.00001300000001,
                    "velocity": 0.25196850393700787,
                    "duration": 0.6666670000000003
                },
                {
                    "name": "B2",
                    "midi": 47,
                    "time": 26.00001300000001,
                    "velocity": 0.2992125984251969,
                    "duration": 0.6666670000000003
                },
                {
                    "name": "G#1",
                    "midi": 32,
                    "time": 26.66668000000001,
                    "velocity": 0.2677165354330709,
                    "duration": 0.6666670000000003
                },
                {
                    "name": "D#2",
                    "midi": 39,
                    "time": 26.66668000000001,
                    "velocity": 0.2677165354330709,
                    "duration": 0.6666670000000003
                },
                {
                    "name": "G#2",
                    "midi": 44,
                    "time": 26.66668000000001,
                    "velocity": 0.3228346456692913,
                    "duration": 0.6666670000000003
                },
                {
                    "name": "B1",
                    "midi": 35,
                    "time": 27.33334700000001,
                    "velocity": 0.25196850393700787,
                    "duration": 0.6666670000000003
                },
                {
                    "name": "D#2",
                    "midi": 39,
                    "time": 27.33334700000001,
                    "velocity": 0.25196850393700787,
                    "duration": 0.6666670000000003
                },
                {
                    "name": "B2",
                    "midi": 47,
                    "time": 27.33334700000001,
                    "velocity": 0.2992125984251969,
                    "duration": 0.6666670000000003
                },
                {
                    "name": "G#1",
                    "midi": 32,
                    "time": 28.00001400000001,
                    "velocity": 0.2677165354330709,
                    "duration": 0.6666670000000003
                },
                {
                    "name": "D#2",
                    "midi": 39,
                    "time": 28.00001400000001,
                    "velocity": 0.2677165354330709,
                    "duration": 0.6666670000000003
                },
                {
                    "name": "G#2",
                    "midi": 44,
                    "time": 28.00001400000001,
                    "velocity": 0.3228346456692913,
                    "duration": 0.6666670000000003
                },
                {
                    "name": "B1",
                    "midi": 35,
                    "time": 28.66668100000001,
                    "velocity": 0.25196850393700787,
                    "duration": 0.6666670000000003
                },
                {
                    "name": "D#2",
                    "midi": 39,
                    "time": 28.66668100000001,
                    "velocity": 0.25196850393700787,
                    "duration": 0.6666670000000003
                },
                {
                    "name": "B2",
                    "midi": 47,
                    "time": 28.66668100000001,
                    "velocity": 0.2992125984251969,
                    "duration": 0.6666670000000003
                },
                {
                    "name": "G#1",
                    "midi": 32,
                    "time": 29.33334800000001,
                    "velocity": 0.2677165354330709,
                    "duration": 0.6666670000000003
                },
                {
                    "name": "D#2",
                    "midi": 39,
                    "time": 29.33334800000001,
                    "velocity": 0.2677165354330709,
                    "duration": 0.6666670000000003
                },
                {
                    "name": "G#2",
                    "midi": 44,
                    "time": 29.33334800000001,
                    "velocity": 0.3228346456692913,
                    "duration": 0.6666670000000003
                },
                {
                    "name": "B1",
                    "midi": 35,
                    "time": 30.000015000000012,
                    "velocity": 0.25196850393700787,
                    "duration": 0.6666670000000003
                },
                {
                    "name": "D#2",
                    "midi": 39,
                    "time": 30.000015000000012,
                    "velocity": 0.25196850393700787,
                    "duration": 0.6666670000000003
                },
                {
                    "name": "B2",
                    "midi": 47,
                    "time": 30.000015000000012,
                    "velocity": 0.2992125984251969,
                    "duration": 0.6666670000000003
                },
                {
                    "name": "G#1",
                    "midi": 32,
                    "time": 30.666682000000012,
                    "velocity": 0.30708661417322836,
                    "duration": 0.6666670000000003
                },
                {
                    "name": "D#2",
                    "midi": 39,
                    "time": 30.666682000000012,
                    "velocity": 0.30708661417322836,
                    "duration": 0.6666670000000003
                },
                {
                    "name": "G#2",
                    "midi": 44,
                    "time": 30.666682000000012,
                    "velocity": 0.36220472440944884,
                    "duration": 0.6666670000000003
                },
                {
                    "name": "B1",
                    "midi": 35,
                    "time": 31.333349000000013,
                    "velocity": 0.2677165354330709,
                    "duration": 0.6666669999999968
                },
                {
                    "name": "D#2",
                    "midi": 39,
                    "time": 31.333349000000013,
                    "velocity": 0.2677165354330709,
                    "duration": 0.6666669999999968
                },
                {
                    "name": "B2",
                    "midi": 47,
                    "time": 31.333349000000013,
                    "velocity": 0.31496062992125984,
                    "duration": 0.6666669999999968
                },
                {
                    "name": "G#1",
                    "midi": 32,
                    "time": 32.00001600000001,
                    "velocity": 0.30708661417322836,
                    "duration": 0.6666669999999968
                },
                {
                    "name": "D#2",
                    "midi": 39,
                    "time": 32.00001600000001,
                    "velocity": 0.30708661417322836,
                    "duration": 0.6666669999999968
                },
                {
                    "name": "G#2",
                    "midi": 44,
                    "time": 32.00001600000001,
                    "velocity": 0.3700787401574803,
                    "duration": 0.6666669999999968
                },
                {
                    "name": "B1",
                    "midi": 35,
                    "time": 32.666683000000006,
                    "velocity": 0.2677165354330709,
                    "duration": 0.6666669999999968
                },
                {
                    "name": "D#2",
                    "midi": 39,
                    "time": 32.666683000000006,
                    "velocity": 0.2677165354330709,
                    "duration": 0.6666669999999968
                },
                {
                    "name": "B2",
                    "midi": 47,
                    "time": 32.666683000000006,
                    "velocity": 0.3228346456692913,
                    "duration": 0.6666669999999968
                },
                {
                    "name": "G#1",
                    "midi": 32,
                    "time": 33.33335,
                    "velocity": 0.2677165354330709,
                    "duration": 0.6666669999999968
                },
                {
                    "name": "D#2",
                    "midi": 39,
                    "time": 33.33335,
                    "velocity": 0.2677165354330709,
                    "duration": 0.6666669999999968
                },
                {
                    "name": "G#2",
                    "midi": 44,
                    "time": 33.33335,
                    "velocity": 0.3228346456692913,
                    "duration": 0.6666669999999968
                },
                {
                    "name": "B1",
                    "midi": 35,
                    "time": 34.000017,
                    "velocity": 0.25196850393700787,
                    "duration": 0.6666669999999968
                },
                {
                    "name": "D#2",
                    "midi": 39,
                    "time": 34.000017,
                    "velocity": 0.25196850393700787,
                    "duration": 0.6666669999999968
                },
                {
                    "name": "B2",
                    "midi": 47,
                    "time": 34.000017,
                    "velocity": 0.2992125984251969,
                    "duration": 0.6666669999999968
                },
                {
                    "name": "C#2",
                    "midi": 37,
                    "time": 34.666684,
                    "velocity": 0.36220472440944884,
                    "duration": 0.6666669999999968
                },
                {
                    "name": "A1",
                    "midi": 33,
                    "time": 34.666684,
                    "velocity": 0.36220472440944884,
                    "duration": 0.6666669999999968
                },
                {
                    "name": "A2",
                    "midi": 45,
                    "time": 34.666684,
                    "velocity": 0.4330708661417323,
                    "duration": 0.6666669999999968
                },
                {
                    "name": "C#2",
                    "midi": 37,
                    "time": 35.33335099999999,
                    "velocity": 0.3228346456692913,
                    "duration": 0.6666669999999968
                },
                {
                    "name": "E2",
                    "midi": 40,
                    "time": 35.33335099999999,
                    "velocity": 0.3228346456692913,
                    "duration": 0.6666669999999968
                },
                {
                    "name": "C#3",
                    "midi": 49,
                    "time": 35.33335099999999,
                    "velocity": 0.3858267716535433,
                    "duration": 0.6666669999999968
                },
                {
                    "name": "E1",
                    "midi": 28,
                    "time": 36.00001799999999,
                    "velocity": 0.3543307086614173,
                    "duration": 0.6666669999999968
                },
                {
                    "name": "G#1",
                    "midi": 32,
                    "time": 36.00001799999999,
                    "velocity": 0.3543307086614173,
                    "duration": 0.6666669999999968
                },
                {
                    "name": "E2",
                    "midi": 40,
                    "time": 36.00001799999999,
                    "velocity": 0.41732283464566927,
                    "duration": 0.6666669999999968
                },
                {
                    "name": "G#1",
                    "midi": 32,
                    "time": 36.66668499999999,
                    "velocity": 0.3228346456692913,
                    "duration": 0.6666669999999968
                },
                {
                    "name": "B1",
                    "midi": 35,
                    "time": 36.66668499999999,
                    "velocity": 0.3228346456692913,
                    "duration": 0.6666669999999968
                },
                {
                    "name": "G#2",
                    "midi": 44,
                    "time": 36.66668499999999,
                    "velocity": 0.3858267716535433,
                    "duration": 0.6666669999999968
                },
                {
                    "name": "C#2",
                    "midi": 37,
                    "time": 37.333351999999984,
                    "velocity": 0.3779527559055118,
                    "duration": 0.6666669999999968
                },
                {
                    "name": "A1",
                    "midi": 33,
                    "time": 37.333351999999984,
                    "velocity": 0.3779527559055118,
                    "duration": 0.6666669999999968
                },
                {
                    "name": "A2",
                    "midi": 45,
                    "time": 37.333351999999984,
                    "velocity": 0.44881889763779526,
                    "duration": 0.6666669999999968
                },
                {
                    "name": "C#2",
                    "midi": 37,
                    "time": 38.00001899999998,
                    "velocity": 0.33858267716535434,
                    "duration": 0.6666669999999968
                },
                {
                    "name": "E2",
                    "midi": 40,
                    "time": 38.00001899999998,
                    "velocity": 0.33858267716535434,
                    "duration": 0.6666669999999968
                },
                {
                    "name": "C#3",
                    "midi": 49,
                    "time": 38.00001899999998,
                    "velocity": 0.4015748031496063,
                    "duration": 0.6666669999999968
                },
                {
                    "name": "E1",
                    "midi": 28,
                    "time": 38.66668599999998,
                    "velocity": 0.3858267716535433,
                    "duration": 0.6666669999999968
                },
                {
                    "name": "G#1",
                    "midi": 32,
                    "time": 38.66668599999998,
                    "velocity": 0.3858267716535433,
                    "duration": 0.6666669999999968
                },
                {
                    "name": "E2",
                    "midi": 40,
                    "time": 38.66668599999998,
                    "velocity": 0.4566929133858268,
                    "duration": 0.6666669999999968
                },
                {
                    "name": "G#1",
                    "midi": 32,
                    "time": 39.333352999999974,
                    "velocity": 0.3464566929133858,
                    "duration": 0.6666669999999968
                },
                {
                    "name": "B1",
                    "midi": 35,
                    "time": 39.333352999999974,
                    "velocity": 0.3464566929133858,
                    "duration": 0.6666669999999968
                },
                {
                    "name": "G#2",
                    "midi": 44,
                    "time": 39.333352999999974,
                    "velocity": 0.4094488188976378,
                    "duration": 0.6666669999999968
                },
                {
                    "name": "F#1",
                    "midi": 30,
                    "time": 40.00001999999997,
                    "velocity": 0.3779527559055118,
                    "duration": 0.6666669999999968
                },
                {
                    "name": "A1",
                    "midi": 33,
                    "time": 40.00001999999997,
                    "velocity": 0.3779527559055118,
                    "duration": 0.6666669999999968
                },
                {
                    "name": "F#2",
                    "midi": 42,
                    "time": 40.00001999999997,
                    "velocity": 0.44881889763779526,
                    "duration": 0.6666669999999968
                },
                {
                    "name": "A1",
                    "midi": 33,
                    "time": 40.66668699999997,
                    "velocity": 0.3464566929133858,
                    "duration": 0.6666669999999968
                },
                {
                    "name": "D2",
                    "midi": 38,
                    "time": 40.66668699999997,
                    "velocity": 0.3464566929133858,
                    "duration": 0.6666669999999968
                },
                {
                    "name": "A2",
                    "midi": 45,
                    "time": 40.66668699999997,
                    "velocity": 0.4094488188976378,
                    "duration": 0.6666669999999968
                },
                {
                    "name": "F#1",
                    "midi": 30,
                    "time": 41.333353999999964,
                    "velocity": 0.3858267716535433,
                    "duration": 0.6666669999999968
                },
                {
                    "name": "D2",
                    "midi": 38,
                    "time": 41.333353999999964,
                    "velocity": 0.3858267716535433,
                    "duration": 0.6666669999999968
                },
                {
                    "name": "F#2",
                    "midi": 42,
                    "time": 41.333353999999964,
                    "velocity": 0.4566929133858268,
                    "duration": 0.6666669999999968
                },
                {
                    "name": "A1",
                    "midi": 33,
                    "time": 42.00002099999996,
                    "velocity": 0.3543307086614173,
                    "duration": 0.6666669999999968
                },
                {
                    "name": "D2",
                    "midi": 38,
                    "time": 42.00002099999996,
                    "velocity": 0.3543307086614173,
                    "duration": 0.6666669999999968
                },
                {
                    "name": "A2",
                    "midi": 45,
                    "time": 42.00002099999996,
                    "velocity": 0.41732283464566927,
                    "duration": 0.6666669999999968
                },
                {
                    "name": "F#1",
                    "midi": 30,
                    "time": 42.66668799999996,
                    "velocity": 0.3937007874015748,
                    "duration": 0.6666669999999968
                },
                {
                    "name": "D2",
                    "midi": 38,
                    "time": 42.66668799999996,
                    "velocity": 0.3937007874015748,
                    "duration": 0.6666669999999968
                },
                {
                    "name": "F#2",
                    "midi": 42,
                    "time": 42.66668799999996,
                    "velocity": 0.4645669291338583,
                    "duration": 0.6666669999999968
                },
                {
                    "name": "A1",
                    "midi": 33,
                    "time": 43.333354999999955,
                    "velocity": 0.33070866141732286,
                    "duration": 0.6666669999999968
                },
                {
                    "name": "D2",
                    "midi": 38,
                    "time": 43.333354999999955,
                    "velocity": 0.33070866141732286,
                    "duration": 0.6666669999999968
                },
                {
                    "name": "A2",
                    "midi": 45,
                    "time": 43.333354999999955,
                    "velocity": 0.3937007874015748,
                    "duration": 0.6666669999999968
                },
                {
                    "name": "G#1",
                    "midi": 32,
                    "time": 44.00002199999995,
                    "velocity": 0.3937007874015748,
                    "duration": 0.6666669999999968
                },
                {
                    "name": "D#2",
                    "midi": 39,
                    "time": 44.00002199999995,
                    "velocity": 0.3937007874015748,
                    "duration": 0.6666669999999968
                },
                {
                    "name": "G#2",
                    "midi": 44,
                    "time": 44.00002199999995,
                    "velocity": 0.4645669291338583,
                    "duration": 0.6666669999999968
                },
                {
                    "name": "C2",
                    "midi": 36,
                    "time": 44.66668899999995,
                    "velocity": 0.3464566929133858,
                    "duration": 0.6666669999999968
                },
                {
                    "name": "D#2",
                    "midi": 39,
                    "time": 44.66668899999995,
                    "velocity": 0.3464566929133858,
                    "duration": 0.6666669999999968
                },
                {
                    "name": "C3",
                    "midi": 48,
                    "time": 44.66668899999995,
                    "velocity": 0.4094488188976378,
                    "duration": 0.6666669999999968
                },
                {
                    "name": "C#2",
                    "midi": 37,
                    "time": 45.333355999999945,
                    "velocity": 0.3858267716535433,
                    "duration": 0.6666669999999968
                },
                {
                    "name": "A1",
                    "midi": 33,
                    "time": 45.333355999999945,
                    "velocity": 0.3858267716535433,
                    "duration": 0.6666669999999968
                },
                {
                    "name": "A2",
                    "midi": 45,
                    "time": 45.333355999999945,
                    "velocity": 0.4566929133858268,
                    "duration": 0.6666669999999968
                },
                {
                    "name": "C#2",
                    "midi": 37,
                    "time": 46.00002299999994,
                    "velocity": 0.33858267716535434,
                    "duration": 0.6666669999999968
                },
                {
                    "name": "E2",
                    "midi": 40,
                    "time": 46.00002299999994,
                    "velocity": 0.33858267716535434,
                    "duration": 0.6666669999999968
                },
                {
                    "name": "C#3",
                    "midi": 49,
                    "time": 46.00002299999994,
                    "velocity": 0.4015748031496063,
                    "duration": 0.6666669999999968
                },
                {
                    "name": "E1",
                    "midi": 28,
                    "time": 46.66668999999994,
                    "velocity": 0.36220472440944884,
                    "duration": 0.6666669999999968
                },
                {
                    "name": "G#1",
                    "midi": 32,
                    "time": 46.66668999999994,
                    "velocity": 0.36220472440944884,
                    "duration": 0.6666669999999968
                },
                {
                    "name": "E2",
                    "midi": 40,
                    "time": 46.66668999999994,
                    "velocity": 0.4330708661417323,
                    "duration": 0.6666669999999968
                },
                {
                    "name": "G#1",
                    "midi": 32,
                    "time": 47.333356999999936,
                    "velocity": 0.33070866141732286,
                    "duration": 0.6666669999999968
                },
                {
                    "name": "B1",
                    "midi": 35,
                    "time": 47.333356999999936,
                    "velocity": 0.33070866141732286,
                    "duration": 0.6666669999999968
                },
                {
                    "name": "G#2",
                    "midi": 44,
                    "time": 47.333356999999936,
                    "velocity": 0.3937007874015748,
                    "duration": 0.6666669999999968
                },
                {
                    "name": "F#2",
                    "midi": 42,
                    "time": 48.00002399999993,
                    "velocity": 0.3543307086614173,
                    "duration": 0.6666669999999968
                },
                {
                    "name": "B1",
                    "midi": 35,
                    "time": 48.00002399999993,
                    "velocity": 0.3543307086614173,
                    "duration": 0.6666669999999968
                },
                {
                    "name": "B2",
                    "midi": 47,
                    "time": 48.00002399999993,
                    "velocity": 0.4251968503937008,
                    "duration": 0.6666669999999968
                },
                {
                    "name": "D#2",
                    "midi": 39,
                    "time": 48.66669099999993,
                    "velocity": 0.25196850393700787,
                    "duration": 0.6666669999999968
                },
                {
                    "name": "F#2",
                    "midi": 42,
                    "time": 48.66669099999993,
                    "velocity": 0.25196850393700787,
                    "duration": 0.6666669999999968
                },
                {
                    "name": "D#3",
                    "midi": 51,
                    "time": 48.66669099999993,
                    "velocity": 0.2992125984251969,
                    "duration": 0.6666669999999968
                },
                {
                    "name": "G1",
                    "midi": 31,
                    "time": 49.333357999999926,
                    "velocity": 0.3543307086614173,
                    "duration": 0.6666669999999968
                },
                {
                    "name": "D#2",
                    "midi": 39,
                    "time": 49.333357999999926,
                    "velocity": 0.3543307086614173,
                    "duration": 0.6666669999999968
                },
                {
                    "name": "G2",
                    "midi": 43,
                    "time": 49.333357999999926,
                    "velocity": 0.4251968503937008,
                    "duration": 0.6666669999999968
                },
                {
                    "name": "A#1",
                    "midi": 34,
                    "time": 50.00002499999992,
                    "velocity": 0.2755905511811024,
                    "duration": 0.6666669999999968
                },
                {
                    "name": "D#2",
                    "midi": 39,
                    "time": 50.00002499999992,
                    "velocity": 0.2755905511811024,
                    "duration": 0.6666669999999968
                },
                {
                    "name": "A#2",
                    "midi": 46,
                    "time": 50.00002499999992,
                    "velocity": 0.33070866141732286,
                    "duration": 0.6666669999999968
                },
                {
                    "name": "G#1",
                    "midi": 32,
                    "time": 50.66669199999992,
                    "velocity": 0.30708661417322836,
                    "duration": 0.6666669999999968
                },
                {
                    "name": "D#2",
                    "midi": 39,
                    "time": 50.66669199999992,
                    "velocity": 0.30708661417322836,
                    "duration": 0.6666669999999968
                },
                {
                    "name": "G#2",
                    "midi": 44,
                    "time": 50.66669199999992,
                    "velocity": 0.36220472440944884,
                    "duration": 0.6666669999999968
                },
                {
                    "name": "B1",
                    "midi": 35,
                    "time": 51.333358999999916,
                    "velocity": 0.23622047244094488,
                    "duration": 0.6666669999999968
                },
                {
                    "name": "D#2",
                    "midi": 39,
                    "time": 51.333358999999916,
                    "velocity": 0.23622047244094488,
                    "duration": 0.6666669999999968
                },
                {
                    "name": "B2",
                    "midi": 47,
                    "time": 51.333358999999916,
                    "velocity": 0.28346456692913385,
                    "duration": 0.6666669999999968
                },
                {
                    "name": "G#1",
                    "midi": 32,
                    "time": 52.00002599999991,
                    "velocity": 0.29133858267716534,
                    "duration": 0.6666669999999968
                },
                {
                    "name": "D#2",
                    "midi": 39,
                    "time": 52.00002599999991,
                    "velocity": 0.29133858267716534,
                    "duration": 0.6666669999999968
                },
                {
                    "name": "G#2",
                    "midi": 44,
                    "time": 52.00002599999991,
                    "velocity": 0.3464566929133858,
                    "duration": 0.6666669999999968
                },
                {
                    "name": "B1",
                    "midi": 35,
                    "time": 52.66669299999991,
                    "velocity": 0.2440944881889764,
                    "duration": 0.6666669999999968
                },
                {
                    "name": "D#2",
                    "midi": 39,
                    "time": 52.66669299999991,
                    "velocity": 0.2440944881889764,
                    "duration": 0.6666669999999968
                },
                {
                    "name": "B2",
                    "midi": 47,
                    "time": 52.66669299999991,
                    "velocity": 0.29133858267716534,
                    "duration": 0.6666669999999968
                },
                {
                    "name": "A1",
                    "midi": 33,
                    "time": 53.33335999999991,
                    "velocity": 0.3464566929133858,
                    "duration": 1.3333339999999936
                },
                {
                    "name": "C#2",
                    "midi": 37,
                    "time": 53.33335999999991,
                    "velocity": 0.3464566929133858,
                    "duration": 0.6666669999999968
                },
                {
                    "name": "A2",
                    "midi": 45,
                    "time": 53.33335999999991,
                    "velocity": 0.4094488188976378,
                    "duration": 0.6666669999999968
                },
                {
                    "name": "C#2",
                    "midi": 37,
                    "time": 54.0000269999999,
                    "velocity": 0.3228346456692913,
                    "duration": 0.6666669999999968
                },
                {
                    "name": "A2",
                    "midi": 45,
                    "time": 54.0000269999999,
                    "velocity": 0.3858267716535433,
                    "duration": 0.6666669999999968
                },
                {
                    "name": "B1",
                    "midi": 35,
                    "time": 54.6666939999999,
                    "velocity": 0.3464566929133858,
                    "duration": 1.3333339999999936
                },
                {
                    "name": "D#2",
                    "midi": 39,
                    "time": 54.6666939999999,
                    "velocity": 0.3464566929133858,
                    "duration": 0.6666669999999968
                },
                {
                    "name": "B2",
                    "midi": 47,
                    "time": 54.6666939999999,
                    "velocity": 0.4094488188976378,
                    "duration": 0.6666669999999968
                },
                {
                    "name": "D#2",
                    "midi": 39,
                    "time": 55.3333609999999,
                    "velocity": 0.3779527559055118,
                    "duration": 0.6666669999999968
                },
                {
                    "name": "B2",
                    "midi": 47,
                    "time": 55.3333609999999,
                    "velocity": 0.3779527559055118,
                    "duration": 0.6666669999999968
                },
                {
                    "name": "C#2",
                    "midi": 37,
                    "time": 56.000027999999894,
                    "velocity": 0.3464566929133858,
                    "duration": 1.3333339999999936
                },
                {
                    "name": "E2",
                    "midi": 40,
                    "time": 56.000027999999894,
                    "velocity": 0.3464566929133858,
                    "duration": 0.6666669999999968
                },
                {
                    "name": "C#3",
                    "midi": 49,
                    "time": 56.000027999999894,
                    "velocity": 0.4094488188976378,
                    "duration": 0.6666669999999968
                },
                {
                    "name": "E2",
                    "midi": 40,
                    "time": 56.66669499999989,
                    "velocity": 0.33070866141732286,
                    "duration": 0.6666669999999968
                },
                {
                    "name": "C#3",
                    "midi": 49,
                    "time": 56.66669499999989,
                    "velocity": 0.3937007874015748,
                    "duration": 0.6666669999999968
                },
                {
                    "name": "D2",
                    "midi": 38,
                    "time": 57.33336199999989,
                    "velocity": 0.3543307086614173,
                    "duration": 1.3333339999999936
                },
                {
                    "name": "F#2",
                    "midi": 42,
                    "time": 57.33336199999989,
                    "velocity": 0.3543307086614173,
                    "duration": 0.6666669999999968
                },
                {
                    "name": "D3",
                    "midi": 50,
                    "time": 57.33336199999989,
                    "velocity": 0.41732283464566927,
                    "duration": 0.6666669999999968
                },
                {
                    "name": "F#2",
                    "midi": 42,
                    "time": 58.000028999999884,
                    "velocity": 0.33070866141732286,
                    "duration": 0.6666669999999968
                },
                {
                    "name": "D3",
                    "midi": 50,
                    "time": 58.000028999999884,
                    "velocity": 0.3937007874015748,
                    "duration": 0.6666669999999968
                },
                {
                    "name": "A1",
                    "midi": 33,
                    "time": 58.66669599999988,
                    "velocity": 0.3543307086614173,
                    "duration": 1.3333339999999936
                },
                {
                    "name": "C#2",
                    "midi": 37,
                    "time": 58.66669599999988,
                    "velocity": 0.3543307086614173,
                    "duration": 0.6666669999999968
                },
                {
                    "name": "A2",
                    "midi": 45,
                    "time": 58.66669599999988,
                    "velocity": 0.41732283464566927,
                    "duration": 0.6666669999999968
                },
                {
                    "name": "C#2",
                    "midi": 37,
                    "time": 59.33336299999988,
                    "velocity": 0.30708661417322836,
                    "duration": 0.6666669999999968
                },
                {
                    "name": "A2",
                    "midi": 45,
                    "time": 59.33336299999988,
                    "velocity": 0.3700787401574803,
                    "duration": 0.6666669999999968
                },
                {
                    "name": "B1",
                    "midi": 35,
                    "time": 60.000029999999875,
                    "velocity": 0.3464566929133858,
                    "duration": 1.3333339999999936
                },
                {
                    "name": "D#2",
                    "midi": 39,
                    "time": 60.000029999999875,
                    "velocity": 0.3464566929133858,
                    "duration": 0.6666669999999968
                },
                {
                    "name": "B2",
                    "midi": 47,
                    "time": 60.000029999999875,
                    "velocity": 0.4094488188976378,
                    "duration": 0.6666669999999968
                },
                {
                    "name": "D#2",
                    "midi": 39,
                    "time": 60.66669699999987,
                    "velocity": 0.2992125984251969,
                    "duration": 0.6666669999999968
                },
                {
                    "name": "B2",
                    "midi": 47,
                    "time": 60.66669699999987,
                    "velocity": 0.3543307086614173,
                    "duration": 0.6666669999999968
                },
                {
                    "name": "C#2",
                    "midi": 37,
                    "time": 61.33336399999987,
                    "velocity": 0.3464566929133858,
                    "duration": 1.3333339999999936
                },
                {
                    "name": "E2",
                    "midi": 40,
                    "time": 61.33336399999987,
                    "velocity": 0.3464566929133858,
                    "duration": 0.6666669999999968
                },
                {
                    "name": "C#3",
                    "midi": 49,
                    "time": 61.33336399999987,
                    "velocity": 0.4094488188976378,
                    "duration": 0.6666669999999968
                },
                {
                    "name": "E2",
                    "midi": 40,
                    "time": 62.000030999999865,
                    "velocity": 0.33070866141732286,
                    "duration": 0.6666669999999968
                },
                {
                    "name": "C#3",
                    "midi": 49,
                    "time": 62.000030999999865,
                    "velocity": 0.3937007874015748,
                    "duration": 0.6666669999999968
                },
                {
                    "name": "D2",
                    "midi": 38,
                    "time": 62.66669799999986,
                    "velocity": 0.3464566929133858,
                    "duration": 1.3333340000000007
                },
                {
                    "name": "F#2",
                    "midi": 42,
                    "time": 62.66669799999986,
                    "velocity": 0.3464566929133858,
                    "duration": 0.6666669999999968
                },
                {
                    "name": "D3",
                    "midi": 50,
                    "time": 62.66669799999986,
                    "velocity": 0.4094488188976378,
                    "duration": 0.6666669999999968
                },
                {
                    "name": "F#2",
                    "midi": 42,
                    "time": 63.33336499999986,
                    "velocity": 0.31496062992125984,
                    "duration": 0.6666670000000039
                },
                {
                    "name": "D3",
                    "midi": 50,
                    "time": 63.33336499999986,
                    "velocity": 0.3779527559055118,
                    "duration": 0.6666670000000039
                },
                {
                    "name": "A1",
                    "midi": 33,
                    "time": 64.00003199999986,
                    "velocity": 0.3700787401574803,
                    "duration": 1.3333340000000078
                },
                {
                    "name": "C#2",
                    "midi": 37,
                    "time": 64.00003199999986,
                    "velocity": 0.3700787401574803,
                    "duration": 0.6666670000000039
                },
                {
                    "name": "A2",
                    "midi": 45,
                    "time": 64.00003199999986,
                    "velocity": 0.4409448818897638,
                    "duration": 0.6666670000000039
                },
                {
                    "name": "C#2",
                    "midi": 37,
                    "time": 64.66669899999987,
                    "velocity": 0.33070866141732286,
                    "duration": 0.6666670000000039
                },
                {
                    "name": "A2",
                    "midi": 45,
                    "time": 64.66669899999987,
                    "velocity": 0.3937007874015748,
                    "duration": 0.6666670000000039
                },
                {
                    "name": "B1",
                    "midi": 35,
                    "time": 65.33336599999987,
                    "velocity": 0.3700787401574803,
                    "duration": 1.3333340000000078
                },
                {
                    "name": "D#2",
                    "midi": 39,
                    "time": 65.33336599999987,
                    "velocity": 0.3700787401574803,
                    "duration": 0.6666670000000039
                },
                {
                    "name": "B2",
                    "midi": 47,
                    "time": 65.33336599999987,
                    "velocity": 0.4409448818897638,
                    "duration": 0.6666670000000039
                },
                {
                    "name": "D#2",
                    "midi": 39,
                    "time": 66.00003299999987,
                    "velocity": 0.3228346456692913,
                    "duration": 0.6666670000000039
                },
                {
                    "name": "B2",
                    "midi": 47,
                    "time": 66.00003299999987,
                    "velocity": 0.3858267716535433,
                    "duration": 0.6666670000000039
                },
                {
                    "name": "C#2",
                    "midi": 37,
                    "time": 66.66669999999988,
                    "velocity": 0.3700787401574803,
                    "duration": 1.3333340000000078
                },
                {
                    "name": "E2",
                    "midi": 40,
                    "time": 66.66669999999988,
                    "velocity": 0.3700787401574803,
                    "duration": 0.6666670000000039
                },
                {
                    "name": "C#3",
                    "midi": 49,
                    "time": 66.66669999999988,
                    "velocity": 0.4409448818897638,
                    "duration": 0.6666670000000039
                },
                {
                    "name": "E2",
                    "midi": 40,
                    "time": 67.33336699999988,
                    "velocity": 0.33858267716535434,
                    "duration": 0.6666670000000039
                },
                {
                    "name": "C#3",
                    "midi": 49,
                    "time": 67.33336699999988,
                    "velocity": 0.4015748031496063,
                    "duration": 0.6666670000000039
                },
                {
                    "name": "D2",
                    "midi": 38,
                    "time": 68.00003399999989,
                    "velocity": 0.36220472440944884,
                    "duration": 1.3333340000000078
                },
                {
                    "name": "F#2",
                    "midi": 42,
                    "time": 68.00003399999989,
                    "velocity": 0.36220472440944884,
                    "duration": 0.6666670000000039
                },
                {
                    "name": "D3",
                    "midi": 50,
                    "time": 68.00003399999989,
                    "velocity": 0.4330708661417323,
                    "duration": 0.6666670000000039
                },
                {
                    "name": "F#2",
                    "midi": 42,
                    "time": 68.66670099999989,
                    "velocity": 0.33070866141732286,
                    "duration": 0.6666670000000039
                },
                {
                    "name": "D3",
                    "midi": 50,
                    "time": 68.66670099999989,
                    "velocity": 0.3937007874015748,
                    "duration": 0.6666670000000039
                },
                {
                    "name": "A1",
                    "midi": 33,
                    "time": 69.3333679999999,
                    "velocity": 0.3779527559055118,
                    "duration": 1.3333340000000078
                },
                {
                    "name": "C#2",
                    "midi": 37,
                    "time": 69.3333679999999,
                    "velocity": 0.3779527559055118,
                    "duration": 0.6666670000000039
                },
                {
                    "name": "A2",
                    "midi": 45,
                    "time": 69.3333679999999,
                    "velocity": 0.44881889763779526,
                    "duration": 0.6666670000000039
                },
                {
                    "name": "C#2",
                    "midi": 37,
                    "time": 70.0000349999999,
                    "velocity": 0.33070866141732286,
                    "duration": 0.6666670000000039
                },
                {
                    "name": "A2",
                    "midi": 45,
                    "time": 70.0000349999999,
                    "velocity": 0.3937007874015748,
                    "duration": 0.6666670000000039
                },
                {
                    "name": "D2",
                    "midi": 38,
                    "time": 70.6667019999999,
                    "velocity": 0.3700787401574803,
                    "duration": 1.3333340000000078
                },
                {
                    "name": "F#2",
                    "midi": 42,
                    "time": 70.6667019999999,
                    "velocity": 0.3700787401574803,
                    "duration": 0.6666670000000039
                },
                {
                    "name": "D3",
                    "midi": 50,
                    "time": 70.6667019999999,
                    "velocity": 0.4409448818897638,
                    "duration": 0.6666670000000039
                },
                {
                    "name": "F#2",
                    "midi": 42,
                    "time": 71.3333689999999,
                    "velocity": 0.3543307086614173,
                    "duration": 0.6666670000000039
                },
                {
                    "name": "D3",
                    "midi": 50,
                    "time": 71.3333689999999,
                    "velocity": 0.41732283464566927,
                    "duration": 0.6666670000000039
                },
                {
                    "name": "C#2",
                    "midi": 37,
                    "time": 72.00003599999991,
                    "velocity": 0.3779527559055118,
                    "duration": 0.6666670000000039
                },
                {
                    "name": "A2",
                    "midi": 45,
                    "time": 72.00003599999991,
                    "velocity": 0.44881889763779526,
                    "duration": 0.6666670000000039
                },
                {
                    "name": "A1",
                    "midi": 33,
                    "time": 72.00003599999991,
                    "velocity": 0.3779527559055118,
                    "duration": 1.3333340000000078
                },
                {
                    "name": "C#2",
                    "midi": 37,
                    "time": 72.66670299999991,
                    "velocity": 0.3464566929133858,
                    "duration": 0.6666670000000039
                },
                {
                    "name": "A2",
                    "midi": 45,
                    "time": 72.66670299999991,
                    "velocity": 0.4094488188976378,
                    "duration": 0.6666670000000039
                },
                {
                    "name": "B1",
                    "midi": 35,
                    "time": 73.33336999999992,
                    "velocity": 0.3779527559055118,
                    "duration": 1.3333340000000078
                },
                {
                    "name": "D2",
                    "midi": 38,
                    "time": 73.33336999999992,
                    "velocity": 0.3779527559055118,
                    "duration": 0.6666670000000039
                },
                {
                    "name": "B2",
                    "midi": 47,
                    "time": 73.33336999999992,
                    "velocity": 0.44881889763779526,
                    "duration": 0.6666670000000039
                },
                {
                    "name": "D2",
                    "midi": 38,
                    "time": 74.00003699999992,
                    "velocity": 0.3464566929133858,
                    "duration": 0.6666670000000039
                },
                {
                    "name": "B2",
                    "midi": 47,
                    "time": 74.00003699999992,
                    "velocity": 0.4094488188976378,
                    "duration": 0.6666670000000039
                },
                {
                    "name": "C#2",
                    "midi": 37,
                    "time": 74.66670399999992,
                    "velocity": 0.3858267716535433,
                    "duration": 0.6666670000000039
                },
                {
                    "name": "A1",
                    "midi": 33,
                    "time": 74.66670399999992,
                    "velocity": 0.3858267716535433,
                    "duration": 1.3333340000000078
                },
                {
                    "name": "A2",
                    "midi": 45,
                    "time": 74.66670399999992,
                    "velocity": 0.4566929133858268,
                    "duration": 0.6666670000000039
                },
                {
                    "name": "C#2",
                    "midi": 37,
                    "time": 75.33337099999993,
                    "velocity": 0.3543307086614173,
                    "duration": 0.6666670000000039
                },
                {
                    "name": "A2",
                    "midi": 45,
                    "time": 75.33337099999993,
                    "velocity": 0.41732283464566927,
                    "duration": 0.6666670000000039
                },
                {
                    "name": "D2",
                    "midi": 38,
                    "time": 76.00003799999993,
                    "velocity": 0.3937007874015748,
                    "duration": 1.3333340000000078
                },
                {
                    "name": "F#2",
                    "midi": 42,
                    "time": 76.00003799999993,
                    "velocity": 0.3937007874015748,
                    "duration": 0.6666670000000039
                },
                {
                    "name": "D3",
                    "midi": 50,
                    "time": 76.00003799999993,
                    "velocity": 0.4645669291338583,
                    "duration": 0.6666670000000039
                },
                {
                    "name": "F#2",
                    "midi": 42,
                    "time": 76.66670499999994,
                    "velocity": 0.36220472440944884,
                    "duration": 0.6666670000000039
                },
                {
                    "name": "D3",
                    "midi": 50,
                    "time": 76.66670499999994,
                    "velocity": 0.4330708661417323,
                    "duration": 0.6666670000000039
                },
                {
                    "name": "C#3",
                    "midi": 49,
                    "time": 77.33337199999994,
                    "velocity": 0.4645669291338583,
                    "duration": 0.6666670000000039
                },
                {
                    "name": "F#2",
                    "midi": 42,
                    "time": 77.33337199999994,
                    "velocity": 0.3937007874015748,
                    "duration": 0.6666670000000039
                },
                {
                    "name": "C#2",
                    "midi": 37,
                    "time": 77.33337199999994,
                    "velocity": 0.3937007874015748,
                    "duration": 1.3333340000000078
                },
                {
                    "name": "F#2",
                    "midi": 42,
                    "time": 78.00003899999994,
                    "velocity": 0.36220472440944884,
                    "duration": 0.6666670000000039
                },
                {
                    "name": "C#3",
                    "midi": 49,
                    "time": 78.00003899999994,
                    "velocity": 0.4330708661417323,
                    "duration": 0.6666670000000039
                },
                {
                    "name": "G#2",
                    "midi": 44,
                    "time": 78.66670599999995,
                    "velocity": 0.4094488188976378,
                    "duration": 0.6666670000000039
                },
                {
                    "name": "C3",
                    "midi": 48,
                    "time": 78.66670599999995,
                    "velocity": 0.4881889763779528,
                    "duration": 0.6666670000000039
                },
                {
                    "name": "C2",
                    "midi": 36,
                    "time": 78.66670599999995,
                    "velocity": 0.4094488188976378,
                    "duration": 1.3333340000000078
                },
                {
                    "name": "G#2",
                    "midi": 44,
                    "time": 79.33337299999995,
                    "velocity": 0.3700787401574803,
                    "duration": 0.6666670000000039
                },
                {
                    "name": "C3",
                    "midi": 48,
                    "time": 79.33337299999995,
                    "velocity": 0.4409448818897638,
                    "duration": 0.6666670000000039
                },
                {
                    "name": "C#3",
                    "midi": 49,
                    "time": 80.00003999999996,
                    "velocity": 0.41732283464566927,
                    "duration": 0.6666670000000039
                },
                {
                    "name": "G#2",
                    "midi": 44,
                    "time": 80.00003999999996,
                    "velocity": 0.3543307086614173,
                    "duration": 0.6666670000000039
                },
                {
                    "name": "C#2",
                    "midi": 37,
                    "time": 80.00003999999996,
                    "velocity": 0.3543307086614173,
                    "duration": 1.3333340000000078
                },
                {
                    "name": "G#2",
                    "midi": 44,
                    "time": 80.66670699999996,
                    "velocity": 0.31496062992125984,
                    "duration": 0.6666670000000039
                },
                {
                    "name": "C#3",
                    "midi": 49,
                    "time": 80.66670699999996,
                    "velocity": 0.3779527559055118,
                    "duration": 0.6666670000000039
                },
                {
                    "name": "F#2",
                    "midi": 42,
                    "time": 81.33337399999996,
                    "velocity": 0.3464566929133858,
                    "duration": 0.6666670000000039
                },
                {
                    "name": "D3",
                    "midi": 50,
                    "time": 81.33337399999996,
                    "velocity": 0.4094488188976378,
                    "duration": 0.6666670000000039
                },
                {
                    "name": "D2",
                    "midi": 38,
                    "time": 81.33337399999996,
                    "velocity": 0.3464566929133858,
                    "duration": 1.3333340000000078
                },
                {
                    "name": "F#2",
                    "midi": 42,
                    "time": 82.00004099999997,
                    "velocity": 0.2992125984251969,
                    "duration": 0.6666670000000039
                },
                {
                    "name": "D3",
                    "midi": 50,
                    "time": 82.00004099999997,
                    "velocity": 0.3543307086614173,
                    "duration": 0.6666670000000039
                },
                {
                    "name": "G#2",
                    "midi": 44,
                    "time": 82.66670799999997,
                    "velocity": 0.29133858267716534,
                    "duration": 0.6666670000000039
                },
                {
                    "name": "D#3",
                    "midi": 51,
                    "time": 82.66670799999997,
                    "velocity": 0.3543307086614173,
                    "duration": 0.6666670000000039
                },
                {
                    "name": "D#2",
                    "midi": 39,
                    "time": 82.66670799999997,
                    "velocity": 0.29133858267716534,
                    "duration": 1.3333340000000078
                },
                {
                    "name": "G#2",
                    "midi": 44,
                    "time": 83.33337499999998,
                    "velocity": 0.2677165354330709,
                    "duration": 0.6666670000000039
                },
                {
                    "name": "D#3",
                    "midi": 51,
                    "time": 83.33337499999998,
                    "velocity": 0.3228346456692913,
                    "duration": 0.6666670000000039
                },
                {
                    "name": "C#3",
                    "midi": 49,
                    "time": 84.00004199999998,
                    "velocity": 0.2755905511811024,
                    "duration": 0.6666670000000039
                },
                {
                    "name": "E3",
                    "midi": 52,
                    "time": 84.00004199999998,
                    "velocity": 0.3228346456692913,
                    "duration": 0.6666670000000039
                },
                {
                    "name": "E2",
                    "midi": 40,
                    "time": 84.00004199999998,
                    "velocity": 0.2755905511811024,
                    "duration": 1.3333340000000078
                },
                {
                    "name": "C#3",
                    "midi": 49,
                    "time": 84.66670899999998,
                    "velocity": 0.2440944881889764,
                    "duration": 0.6666670000000039
                },
                {
                    "name": "E3",
                    "midi": 52,
                    "time": 84.66670899999998,
                    "velocity": 0.29133858267716534,
                    "duration": 0.6666670000000039
                },
                {
                    "name": "C#3",
                    "midi": 49,
                    "time": 85.33337599999999,
                    "velocity": 0.2125984251968504,
                    "duration": 0.6666670000000039
                },
                {
                    "name": "F#3",
                    "midi": 54,
                    "time": 85.33337599999999,
                    "velocity": 0.25196850393700787,
                    "duration": 0.6666670000000039
                },
                {
                    "name": "F#2",
                    "midi": 42,
                    "time": 85.33337599999999,
                    "velocity": 0.2125984251968504,
                    "duration": 1.3333340000000078
                },
                {
                    "name": "C#3",
                    "midi": 49,
                    "time": 86.00004299999999,
                    "velocity": 0.15748031496062992,
                    "duration": 0.6666670000000039
                },
                {
                    "name": "F#3",
                    "midi": 54,
                    "time": 86.00004299999999,
                    "velocity": 0.1889763779527559,
                    "duration": 0.6666670000000039
                },
                {
                    "name": "C#3",
                    "midi": 49,
                    "time": 86.66671,
                    "velocity": 0.18110236220472442,
                    "duration": 0.6666670000000039
                },
                {
                    "name": "G#3",
                    "midi": 56,
                    "time": 86.66671,
                    "velocity": 0.2125984251968504,
                    "duration": 0.6666670000000039
                },
                {
                    "name": "G#2",
                    "midi": 44,
                    "time": 86.66671,
                    "velocity": 0.18110236220472442,
                    "duration": 1.3333340000000078
                },
                {
                    "name": "C#3",
                    "midi": 49,
                    "time": 87.333377,
                    "velocity": 0.14960629921259844,
                    "duration": 0.6666670000000039
                },
                {
                    "name": "G#3",
                    "midi": 56,
                    "time": 87.333377,
                    "velocity": 0.1732283464566929,
                    "duration": 0.6666670000000039
                },
                {
                    "name": "C#3",
                    "midi": 49,
                    "time": 88.000044,
                    "velocity": 0.2204724409448819,
                    "duration": 0.6666670000000039
                },
                {
                    "name": "A3",
                    "midi": 57,
                    "time": 88.000044,
                    "velocity": 0.2677165354330709,
                    "duration": 0.6666670000000039
                },
                {
                    "name": "A2",
                    "midi": 45,
                    "time": 88.000044,
                    "velocity": 0.2204724409448819,
                    "duration": 1.3333340000000078
                },
                {
                    "name": "C#3",
                    "midi": 49,
                    "time": 88.666711,
                    "velocity": 0.2204724409448819,
                    "duration": 0.6666670000000039
                },
                {
                    "name": "A3",
                    "midi": 57,
                    "time": 88.666711,
                    "velocity": 0.2677165354330709,
                    "duration": 0.6666670000000039
                },
                {
                    "name": "D#3",
                    "midi": 51,
                    "time": 89.33337800000001,
                    "velocity": 0.2204724409448819,
                    "duration": 0.6666670000000039
                },
                {
                    "name": "F#3",
                    "midi": 54,
                    "time": 89.33337800000001,
                    "velocity": 0.25984251968503935,
                    "duration": 0.6666670000000039
                },
                {
                    "name": "F#2",
                    "midi": 42,
                    "time": 89.33337800000001,
                    "velocity": 0.2204724409448819,
                    "duration": 1.3333340000000078
                },
                {
                    "name": "D#3",
                    "midi": 51,
                    "time": 90.00004500000001,
                    "velocity": 0.28346456692913385,
                    "duration": 0.6666670000000039
                },
                {
                    "name": "F#3",
                    "midi": 54,
                    "time": 90.00004500000001,
                    "velocity": 0.33858267716535434,
                    "duration": 0.6666670000000039
                },
                {
                    "name": "G3",
                    "midi": 55,
                    "time": 90.66671200000002,
                    "velocity": 0.5275590551181102,
                    "duration": 0.6666670000000039
                },
                {
                    "name": "D#3",
                    "midi": 51,
                    "time": 90.66671200000002,
                    "velocity": 0.4409448818897638,
                    "duration": 0.6666670000000039
                },
                {
                    "name": "G2",
                    "midi": 43,
                    "time": 90.66671200000002,
                    "velocity": 0.4409448818897638,
                    "duration": 1.3333340000000078
                },
                {
                    "name": "D#3",
                    "midi": 51,
                    "time": 91.33337900000002,
                    "velocity": 0.3937007874015748,
                    "duration": 0.6666670000000039
                },
                {
                    "name": "G3",
                    "midi": 55,
                    "time": 91.33337900000002,
                    "velocity": 0.4645669291338583,
                    "duration": 0.6666670000000039
                },
                {
                    "name": "A#2",
                    "midi": 46,
                    "time": 92.00004600000003,
                    "velocity": 0.4409448818897638,
                    "duration": 0.6666670000000039
                },
                {
                    "name": "D#3",
                    "midi": 51,
                    "time": 92.00004600000003,
                    "velocity": 0.5275590551181102,
                    "duration": 0.6666670000000039
                },
                {
                    "name": "D#2",
                    "midi": 39,
                    "time": 92.00004600000003,
                    "velocity": 0.4409448818897638,
                    "duration": 1.3333340000000078
                },
                {
                    "name": "A#2",
                    "midi": 46,
                    "time": 92.66671300000003,
                    "velocity": 0.4015748031496063,
                    "duration": 0.6666670000000039
                },
                {
                    "name": "D#3",
                    "midi": 51,
                    "time": 92.66671300000003,
                    "velocity": 0.47244094488188976,
                    "duration": 0.6666670000000039
                },
                {
                    "name": "D#3",
                    "midi": 51,
                    "time": 93.33338000000003,
                    "velocity": 0.5118110236220472,
                    "duration": 0.6666670000000039
                },
                {
                    "name": "G#3",
                    "midi": 56,
                    "time": 93.33338000000003,
                    "velocity": 0.6062992125984252,
                    "duration": 0.6666670000000039
                },
                {
                    "name": "G#2",
                    "midi": 44,
                    "time": 93.33338000000003,
                    "velocity": 0.5118110236220472,
                    "duration": 1.3333340000000078
                },
                {
                    "name": "D#3",
                    "midi": 51,
                    "time": 94.00004700000004,
                    "velocity": 0.47244094488188976,
                    "duration": 0.6666670000000039
                },
                {
                    "name": "G#3",
                    "midi": 56,
                    "time": 94.00004700000004,
                    "velocity": 0.5590551181102362,
                    "duration": 0.6666670000000039
                },
                {
                    "name": "B2",
                    "midi": 47,
                    "time": 94.66671400000004,
                    "velocity": 0.6062992125984252,
                    "duration": 0.6666670000000039
                },
                {
                    "name": "D#2",
                    "midi": 39,
                    "time": 94.66671400000004,
                    "velocity": 0.5118110236220472,
                    "duration": 0.6666670000000039
                },
                {
                    "name": "B1",
                    "midi": 35,
                    "time": 94.66671400000004,
                    "velocity": 0.5118110236220472,
                    "duration": 1.3333340000000078
                },
                {
                    "name": "D#2",
                    "midi": 39,
                    "time": 95.33338100000005,
                    "velocity": 0.4881889763779528,
                    "duration": 0.6666670000000039
                },
                {
                    "name": "B2",
                    "midi": 47,
                    "time": 95.33338100000005,
                    "velocity": 0.5748031496062992,
                    "duration": 0.6666670000000039
                },
                {
                    "name": "C#3",
                    "midi": 49,
                    "time": 96.00004800000005,
                    "velocity": 0.6062992125984252,
                    "duration": 0.6666670000000039
                },
                {
                    "name": "G#2",
                    "midi": 44,
                    "time": 96.00004800000005,
                    "velocity": 0.5118110236220472,
                    "duration": 0.6666670000000039
                },
                {
                    "name": "C#2",
                    "midi": 37,
                    "time": 96.00004800000005,
                    "velocity": 0.5118110236220472,
                    "duration": 1.3333340000000078
                },
                {
                    "name": "G#2",
                    "midi": 44,
                    "time": 96.66671500000005,
                    "velocity": 0.4409448818897638,
                    "duration": 0.6666670000000039
                },
                {
                    "name": "C#3",
                    "midi": 49,
                    "time": 96.66671500000005,
                    "velocity": 0.5275590551181102,
                    "duration": 0.6666670000000039
                },
                {
                    "name": "D#3",
                    "midi": 51,
                    "time": 97.33338200000006,
                    "velocity": 0.5826771653543307,
                    "duration": 0.6666670000000039
                },
                {
                    "name": "G2",
                    "midi": 43,
                    "time": 97.33338200000006,
                    "velocity": 0.4881889763779528,
                    "duration": 0.6666670000000039
                },
                {
                    "name": "D#2",
                    "midi": 39,
                    "time": 97.33338200000006,
                    "velocity": 0.4881889763779528,
                    "duration": 1.3333340000000078
                },
                {
                    "name": "G2",
                    "midi": 43,
                    "time": 98.00004900000006,
                    "velocity": 0.44881889763779526,
                    "duration": 0.6666670000000039
                },
                {
                    "name": "D#3",
                    "midi": 51,
                    "time": 98.00004900000006,
                    "velocity": 0.5354330708661418,
                    "duration": 0.6666670000000039
                },
                {
                    "name": "G#1",
                    "midi": 32,
                    "time": 98.66671600000006,
                    "velocity": 0.44881889763779526,
                    "duration": 0.6666670000000039
                },
                {
                    "name": "D#2",
                    "midi": 39,
                    "time": 98.66671600000006,
                    "velocity": 0.5039370078740157,
                    "duration": 0.6666670000000039
                },
                {
                    "name": "G#2",
                    "midi": 44,
                    "time": 98.66671600000006,
                    "velocity": 0.5984251968503937,
                    "duration": 0.6666670000000039
                },
                {
                    "name": "B1",
                    "midi": 35,
                    "time": 99.33338300000007,
                    "velocity": 0.4094488188976378,
                    "duration": 0.6666670000000039
                },
                {
                    "name": "D#2",
                    "midi": 39,
                    "time": 99.33338300000007,
                    "velocity": 0.4566929133858268,
                    "duration": 0.6666670000000039
                },
                {
                    "name": "B2",
                    "midi": 47,
                    "time": 99.33338300000007,
                    "velocity": 0.5433070866141733,
                    "duration": 0.6666670000000039
                },
                {
                    "name": "G#1",
                    "midi": 32,
                    "time": 100.00005000000007,
                    "velocity": 0.44881889763779526,
                    "duration": 0.6666670000000039
                },
                {
                    "name": "D#2",
                    "midi": 39,
                    "time": 100.00005000000007,
                    "velocity": 0.5039370078740157,
                    "duration": 0.6666670000000039
                },
                {
                    "name": "G#2",
                    "midi": 44,
                    "time": 100.00005000000007,
                    "velocity": 0.5984251968503937,
                    "duration": 0.6666670000000039
                },
                {
                    "name": "B1",
                    "midi": 35,
                    "time": 100.66671700000008,
                    "velocity": 0.3700787401574803,
                    "duration": 0.6666670000000039
                },
                {
                    "name": "D#2",
                    "midi": 39,
                    "time": 100.66671700000008,
                    "velocity": 0.41732283464566927,
                    "duration": 0.6666670000000039
                },
                {
                    "name": "B2",
                    "midi": 47,
                    "time": 100.66671700000008,
                    "velocity": 0.49606299212598426,
                    "duration": 0.6666670000000039
                },
                {
                    "name": "G#1",
                    "midi": 32,
                    "time": 101.33338400000008,
                    "velocity": 0.4566929133858268,
                    "duration": 0.6666670000000039
                },
                {
                    "name": "D#2",
                    "midi": 39,
                    "time": 101.33338400000008,
                    "velocity": 0.5118110236220472,
                    "duration": 0.6666670000000039
                },
                {
                    "name": "G#2",
                    "midi": 44,
                    "time": 101.33338400000008,
                    "velocity": 0.6062992125984252,
                    "duration": 0.6666670000000039
                },
                {
                    "name": "B1",
                    "midi": 35,
                    "time": 102.00005100000008,
                    "velocity": 0.41732283464566927,
                    "duration": 0.6666670000000039
                },
                {
                    "name": "D#2",
                    "midi": 39,
                    "time": 102.00005100000008,
                    "velocity": 0.4645669291338583,
                    "duration": 0.6666670000000039
                },
                {
                    "name": "B2",
                    "midi": 47,
                    "time": 102.00005100000008,
                    "velocity": 0.5511811023622047,
                    "duration": 0.6666670000000039
                },
                {
                    "name": "G#1",
                    "midi": 32,
                    "time": 102.66671800000009,
                    "velocity": 0.4566929133858268,
                    "duration": 0.6666670000000039
                },
                {
                    "name": "D#2",
                    "midi": 39,
                    "time": 102.66671800000009,
                    "velocity": 0.5118110236220472,
                    "duration": 0.6666670000000039
                },
                {
                    "name": "G#2",
                    "midi": 44,
                    "time": 102.66671800000009,
                    "velocity": 0.6062992125984252,
                    "duration": 0.6666670000000039
                },
                {
                    "name": "B1",
                    "midi": 35,
                    "time": 103.33338500000009,
                    "velocity": 0.4094488188976378,
                    "duration": 0.6666670000000039
                },
                {
                    "name": "D#2",
                    "midi": 39,
                    "time": 103.33338500000009,
                    "velocity": 0.4566929133858268,
                    "duration": 0.6666670000000039
                },
                {
                    "name": "B2",
                    "midi": 47,
                    "time": 103.33338500000009,
                    "velocity": 0.5433070866141733,
                    "duration": 0.6666670000000039
                },
                {
                    "name": "G#1",
                    "midi": 32,
                    "time": 104.0000520000001,
                    "velocity": 0.4409448818897638,
                    "duration": 0.6666670000000039
                },
                {
                    "name": "D#2",
                    "midi": 39,
                    "time": 104.0000520000001,
                    "velocity": 0.4881889763779528,
                    "duration": 0.6666670000000039
                },
                {
                    "name": "G#2",
                    "midi": 44,
                    "time": 104.0000520000001,
                    "velocity": 0.5826771653543307,
                    "duration": 0.6666670000000039
                },
                {
                    "name": "B1",
                    "midi": 35,
                    "time": 104.6667190000001,
                    "velocity": 0.4015748031496063,
                    "duration": 0.6666670000000039
                },
                {
                    "name": "D#2",
                    "midi": 39,
                    "time": 104.6667190000001,
                    "velocity": 0.44881889763779526,
                    "duration": 0.6666670000000039
                },
                {
                    "name": "B2",
                    "midi": 47,
                    "time": 104.6667190000001,
                    "velocity": 0.5354330708661418,
                    "duration": 0.6666670000000039
                },
                {
                    "name": "G#1",
                    "midi": 32,
                    "time": 105.3333860000001,
                    "velocity": 0.4566929133858268,
                    "duration": 0.6666670000000039
                },
                {
                    "name": "D#2",
                    "midi": 39,
                    "time": 105.3333860000001,
                    "velocity": 0.5118110236220472,
                    "duration": 0.6666670000000039
                },
                {
                    "name": "G#2",
                    "midi": 44,
                    "time": 105.3333860000001,
                    "velocity": 0.6062992125984252,
                    "duration": 0.6666670000000039
                },
                {
                    "name": "B1",
                    "midi": 35,
                    "time": 106.00005300000011,
                    "velocity": 0.4015748031496063,
                    "duration": 0.6666670000000039
                },
                {
                    "name": "D#2",
                    "midi": 39,
                    "time": 106.00005300000011,
                    "velocity": 0.44881889763779526,
                    "duration": 0.6666670000000039
                },
                {
                    "name": "B2",
                    "midi": 47,
                    "time": 106.00005300000011,
                    "velocity": 0.5354330708661418,
                    "duration": 0.6666670000000039
                },
                {
                    "name": "G#1",
                    "midi": 32,
                    "time": 106.66672000000011,
                    "velocity": 0.47244094488188976,
                    "duration": 0.6666670000000039
                },
                {
                    "name": "D#2",
                    "midi": 39,
                    "time": 106.66672000000011,
                    "velocity": 0.5275590551181102,
                    "duration": 0.6666670000000039
                },
                {
                    "name": "G#2",
                    "midi": 44,
                    "time": 106.66672000000011,
                    "velocity": 0.6220472440944882,
                    "duration": 0.6666670000000039
                },
                {
                    "name": "B1",
                    "midi": 35,
                    "time": 107.33338700000012,
                    "velocity": 0.4094488188976378,
                    "duration": 0.6666670000000039
                },
                {
                    "name": "D#2",
                    "midi": 39,
                    "time": 107.33338700000012,
                    "velocity": 0.4566929133858268,
                    "duration": 0.6666670000000039
                },
                {
                    "name": "B2",
                    "midi": 47,
                    "time": 107.33338700000012,
                    "velocity": 0.5433070866141733,
                    "duration": 0.6666670000000039
                },
                {
                    "name": "G#1",
                    "midi": 32,
                    "time": 108.00005400000012,
                    "velocity": 0.4409448818897638,
                    "duration": 0.6666670000000039
                },
                {
                    "name": "D#2",
                    "midi": 39,
                    "time": 108.00005400000012,
                    "velocity": 0.4881889763779528,
                    "duration": 0.6666670000000039
                },
                {
                    "name": "G#2",
                    "midi": 44,
                    "time": 108.00005400000012,
                    "velocity": 0.5826771653543307,
                    "duration": 0.6666670000000039
                },
                {
                    "name": "B1",
                    "midi": 35,
                    "time": 108.66672100000012,
                    "velocity": 0.41732283464566927,
                    "duration": 0.6666670000000039
                },
                {
                    "name": "D#2",
                    "midi": 39,
                    "time": 108.66672100000012,
                    "velocity": 0.4645669291338583,
                    "duration": 0.6666670000000039
                },
                {
                    "name": "B2",
                    "midi": 47,
                    "time": 108.66672100000012,
                    "velocity": 0.5511811023622047,
                    "duration": 0.6666670000000039
                },
                {
                    "name": "C#2",
                    "midi": 37,
                    "time": 109.33338800000013,
                    "velocity": 0.5433070866141733,
                    "duration": 0.6666670000000039
                },
                {
                    "name": "A1",
                    "midi": 33,
                    "time": 109.33338800000013,
                    "velocity": 0.4881889763779528,
                    "duration": 0.6666670000000039
                },
                {
                    "name": "A2",
                    "midi": 45,
                    "time": 109.33338800000013,
                    "velocity": 0.6456692913385826,
                    "duration": 0.6666670000000039
                },
                {
                    "name": "C#2",
                    "midi": 37,
                    "time": 110.00005500000013,
                    "velocity": 0.3779527559055118,
                    "duration": 0.6666670000000039
                },
                {
                    "name": "E2",
                    "midi": 40,
                    "time": 110.00005500000013,
                    "velocity": 0.4251968503937008,
                    "duration": 0.6666670000000039
                },
                {
                    "name": "C#3",
                    "midi": 49,
                    "time": 110.00005500000013,
                    "velocity": 0.5039370078740157,
                    "duration": 0.6666670000000039
                },
                {
                    "name": "E3",
                    "midi": 52,
                    "time": 110.66672200000014,
                    "velocity": 0.5511811023622047,
                    "duration": 0.6666670000000039
                },
                {
                    "name": "G#2",
                    "midi": 44,
                    "time": 110.66672200000014,
                    "velocity": 0.4645669291338583,
                    "duration": 0.6666670000000039
                },
                {
                    "name": "E2",
                    "midi": 40,
                    "time": 110.66672200000014,
                    "velocity": 0.4645669291338583,
                    "duration": 0.6666670000000039
                },
                {
                    "name": "G#3",
                    "midi": 56,
                    "time": 111.33338900000014,
                    "velocity": 0.5196850393700787,
                    "duration": 0.6666670000000039
                },
                {
                    "name": "B2",
                    "midi": 47,
                    "time": 111.33338900000014,
                    "velocity": 0.4409448818897638,
                    "duration": 0.6666670000000039
                },
                {
                    "name": "G#2",
                    "midi": 44,
                    "time": 111.33338900000014,
                    "velocity": 0.3937007874015748,
                    "duration": 0.6666670000000039
                },
                {
                    "name": "C#2",
                    "midi": 37,
                    "time": 112.00005600000014,
                    "velocity": 0.5433070866141733,
                    "duration": 0.6666670000000039
                },
                {
                    "name": "A1",
                    "midi": 33,
                    "time": 112.00005600000014,
                    "velocity": 0.4881889763779528,
                    "duration": 0.6666670000000039
                },
                {
                    "name": "A2",
                    "midi": 45,
                    "time": 112.00005600000014,
                    "velocity": 0.6456692913385826,
                    "duration": 0.6666670000000039
                },
                {
                    "name": "C#2",
                    "midi": 37,
                    "time": 112.66672300000015,
                    "velocity": 0.4015748031496063,
                    "duration": 0.6666670000000039
                },
                {
                    "name": "E2",
                    "midi": 40,
                    "time": 112.66672300000015,
                    "velocity": 0.4409448818897638,
                    "duration": 0.6666670000000039
                },
                {
                    "name": "C#3",
                    "midi": 49,
                    "time": 112.66672300000015,
                    "velocity": 0.5275590551181102,
                    "duration": 0.6666670000000039
                },
                {
                    "name": "E3",
                    "midi": 52,
                    "time": 113.33339000000015,
                    "velocity": 0.5905511811023622,
                    "duration": 0.6666670000000039
                },
                {
                    "name": "G#2",
                    "midi": 44,
                    "time": 113.33339000000015,
                    "velocity": 0.49606299212598426,
                    "duration": 0.6666670000000039
                },
                {
                    "name": "E2",
                    "midi": 40,
                    "time": 113.33339000000015,
                    "velocity": 0.4409448818897638,
                    "duration": 0.6666670000000039
                },
                {
                    "name": "G#3",
                    "midi": 56,
                    "time": 114.00005700000015,
                    "velocity": 0.5118110236220472,
                    "duration": 0.6666670000000039
                },
                {
                    "name": "B2",
                    "midi": 47,
                    "time": 114.00005700000015,
                    "velocity": 0.4330708661417323,
                    "duration": 0.6666670000000039
                },
                {
                    "name": "G#2",
                    "midi": 44,
                    "time": 114.00005700000015,
                    "velocity": 0.3858267716535433,
                    "duration": 0.6666670000000039
                },
                {
                    "name": "A#1",
                    "midi": 34,
                    "time": 114.66672400000016,
                    "velocity": 0.5433070866141733,
                    "duration": 0.6666670000000039
                },
                {
                    "name": "G1",
                    "midi": 31,
                    "time": 114.66672400000016,
                    "velocity": 0.4881889763779528,
                    "duration": 0.6666670000000039
                },
                {
                    "name": "G2",
                    "midi": 43,
                    "time": 114.66672400000016,
                    "velocity": 0.6456692913385826,
                    "duration": 0.6666670000000039
                },
                {
                    "name": "A#1",
                    "midi": 34,
                    "time": 115.33339100000016,
                    "velocity": 0.3700787401574803,
                    "duration": 0.6666670000000039
                },
                {
                    "name": "D#2",
                    "midi": 39,
                    "time": 115.33339100000016,
                    "velocity": 0.41732283464566927,
                    "duration": 0.6666670000000039
                },
                {
                    "name": "A#2",
                    "midi": 46,
                    "time": 115.33339100000016,
                    "velocity": 0.49606299212598426,
                    "duration": 0.6666670000000039
                },
                {
                    "name": "G1",
                    "midi": 31,
                    "time": 116.00005800000017,
                    "velocity": 0.4094488188976378,
                    "duration": 0.6666670000000039
                },
                {
                    "name": "A#1",
                    "midi": 34,
                    "time": 116.00005800000017,
                    "velocity": 0.4566929133858268,
                    "duration": 0.6666670000000039
                },
                {
                    "name": "G2",
                    "midi": 43,
                    "time": 116.00005800000017,
                    "velocity": 0.5433070866141733,
                    "duration": 0.6666670000000039
                },
                {
                    "name": "A#1",
                    "midi": 34,
                    "time": 116.66672500000017,
                    "velocity": 0.31496062992125984,
                    "duration": 0.6666670000000039
                },
                {
                    "name": "D#2",
                    "midi": 39,
                    "time": 116.66672500000017,
                    "velocity": 0.3543307086614173,
                    "duration": 0.6666670000000039
                },
                {
                    "name": "A#2",
                    "midi": 46,
                    "time": 116.66672500000017,
                    "velocity": 0.4251968503937008,
                    "duration": 0.6666670000000039
                },
                {
                    "name": "G#1",
                    "midi": 32,
                    "time": 117.33339200000017,
                    "velocity": 0.4566929133858268,
                    "duration": 0.6666670000000039
                },
                {
                    "name": "D#2",
                    "midi": 39,
                    "time": 117.33339200000017,
                    "velocity": 0.5118110236220472,
                    "duration": 0.6666670000000039
                },
                {
                    "name": "G#2",
                    "midi": 44,
                    "time": 117.33339200000017,
                    "velocity": 0.6062992125984252,
                    "duration": 0.6666670000000039
                },
                {
                    "name": "B1",
                    "midi": 35,
                    "time": 118.00005900000018,
                    "velocity": 0.3700787401574803,
                    "duration": 0.6666670000000039
                },
                {
                    "name": "D#2",
                    "midi": 39,
                    "time": 118.00005900000018,
                    "velocity": 0.41732283464566927,
                    "duration": 0.6666670000000039
                },
                {
                    "name": "B2",
                    "midi": 47,
                    "time": 118.00005900000018,
                    "velocity": 0.49606299212598426,
                    "duration": 0.6666670000000039
                },
                {
                    "name": "D#1",
                    "midi": 27,
                    "time": 118.66672600000018,
                    "velocity": 0.3858267716535433,
                    "duration": 0.6666670000000039
                },
                {
                    "name": "A#1",
                    "midi": 34,
                    "time": 118.66672600000018,
                    "velocity": 0.4330708661417323,
                    "duration": 0.6666670000000039
                },
                {
                    "name": "D#2",
                    "midi": 39,
                    "time": 118.66672600000018,
                    "velocity": 0.5118110236220472,
                    "duration": 0.6666670000000039
                },
                {
                    "name": "G1",
                    "midi": 31,
                    "time": 119.33339300000019,
                    "velocity": 0.30708661417322836,
                    "duration": 0.6666670000000039
                },
                {
                    "name": "D#2",
                    "midi": 39,
                    "time": 119.33339300000019,
                    "velocity": 0.3543307086614173,
                    "duration": 0.6666670000000039
                },
                {
                    "name": "G2",
                    "midi": 43,
                    "time": 119.33339300000019,
                    "velocity": 0.41732283464566927,
                    "duration": 0.6666670000000039
                },
                {
                    "name": "G#1",
                    "midi": 32,
                    "time": 120.00006000000019,
                    "velocity": 0.41732283464566927,
                    "duration": 0.6666670000000039
                },
                {
                    "name": "B1",
                    "midi": 35,
                    "time": 120.00006000000019,
                    "velocity": 0.47244094488188976,
                    "duration": 0.6666670000000039
                },
                {
                    "name": "G#2",
                    "midi": 44,
                    "time": 120.00006000000019,
                    "velocity": 0.5590551181102362,
                    "duration": 0.6666670000000039
                },
                {
                    "name": "B1",
                    "midi": 35,
                    "time": 120.6667270000002,
                    "velocity": 0.31496062992125984,
                    "duration": 0.6666670000000039
                },
                {
                    "name": "D#2",
                    "midi": 39,
                    "time": 120.6667270000002,
                    "velocity": 0.3543307086614173,
                    "duration": 0.6666670000000039
                },
                {
                    "name": "B2",
                    "midi": 47,
                    "time": 120.6667270000002,
                    "velocity": 0.4251968503937008,
                    "duration": 0.6666670000000039
                },
                {
                    "name": "A1",
                    "midi": 33,
                    "time": 121.3333940000002,
                    "velocity": 0.3464566929133858,
                    "duration": 0.6666670000000039
                },
                {
                    "name": "C#2",
                    "midi": 37,
                    "time": 121.3333940000002,
                    "velocity": 0.3858267716535433,
                    "duration": 0.6666670000000039
                },
                {
                    "name": "A2",
                    "midi": 45,
                    "time": 121.3333940000002,
                    "velocity": 0.4566929133858268,
                    "duration": 0.6666670000000039
                },
                {
                    "name": "C#2",
                    "midi": 37,
                    "time": 122.0000610000002,
                    "velocity": 0.2992125984251969,
                    "duration": 0.6666670000000039
                },
                {
                    "name": "E2",
                    "midi": 40,
                    "time": 122.0000610000002,
                    "velocity": 0.33070866141732286,
                    "duration": 0.6666670000000039
                },
                {
                    "name": "C#3",
                    "midi": 49,
                    "time": 122.0000610000002,
                    "velocity": 0.3937007874015748,
                    "duration": 0.6666670000000039
                },
                {
                    "name": "G#1",
                    "midi": 32,
                    "time": 122.6667280000002,
                    "velocity": 0.31496062992125984,
                    "duration": 0.6666670000000039
                },
                {
                    "name": "D#2",
                    "midi": 39,
                    "time": 122.6667280000002,
                    "velocity": 0.3543307086614173,
                    "duration": 0.6666670000000039
                },
                {
                    "name": "G#2",
                    "midi": 44,
                    "time": 122.6667280000002,
                    "velocity": 0.4251968503937008,
                    "duration": 0.6666670000000039
                },
                {
                    "name": "B1",
                    "midi": 35,
                    "time": 123.33339500000021,
                    "velocity": 0.2204724409448819,
                    "duration": 0.6666670000000039
                },
                {
                    "name": "D#2",
                    "midi": 39,
                    "time": 123.33339500000021,
                    "velocity": 0.2440944881889764,
                    "duration": 0.6666670000000039
                },
                {
                    "name": "B2",
                    "midi": 47,
                    "time": 123.33339500000021,
                    "velocity": 0.29133858267716534,
                    "duration": 0.6666670000000039
                },
                {
                    "name": "G#1",
                    "midi": 32,
                    "time": 124.00006200000021,
                    "velocity": 0.1968503937007874,
                    "duration": 0.6666670000000039
                },
                {
                    "name": "D#2",
                    "midi": 39,
                    "time": 124.00006200000021,
                    "velocity": 0.2204724409448819,
                    "duration": 0.6666670000000039
                },
                {
                    "name": "G#2",
                    "midi": 44,
                    "time": 124.00006200000021,
                    "velocity": 0.2677165354330709,
                    "duration": 0.6666670000000039
                },
                {
                    "name": "B1",
                    "midi": 35,
                    "time": 124.66672900000022,
                    "velocity": 0.18110236220472442,
                    "duration": 0.6666670000000039
                },
                {
                    "name": "D#2",
                    "midi": 39,
                    "time": 124.66672900000022,
                    "velocity": 0.2125984251968504,
                    "duration": 0.6666670000000039
                },
                {
                    "name": "B2",
                    "midi": 47,
                    "time": 124.66672900000022,
                    "velocity": 0.25196850393700787,
                    "duration": 0.6666670000000039
                },
                {
                    "name": "G#1",
                    "midi": 32,
                    "time": 125.33339600000022,
                    "velocity": 0.1968503937007874,
                    "duration": 0.6666670000000039
                },
                {
                    "name": "D#2",
                    "midi": 39,
                    "time": 125.33339600000022,
                    "velocity": 0.2204724409448819,
                    "duration": 0.6666670000000039
                },
                {
                    "name": "G#2",
                    "midi": 44,
                    "time": 125.33339600000022,
                    "velocity": 0.2677165354330709,
                    "duration": 0.6666670000000039
                },
                {
                    "name": "B1",
                    "midi": 35,
                    "time": 126.00006300000022,
                    "velocity": 0.18110236220472442,
                    "duration": 0.6666670000000039
                },
                {
                    "name": "D#2",
                    "midi": 39,
                    "time": 126.00006300000022,
                    "velocity": 0.2125984251968504,
                    "duration": 0.6666670000000039
                },
                {
                    "name": "B2",
                    "midi": 47,
                    "time": 126.00006300000022,
                    "velocity": 0.25196850393700787,
                    "duration": 0.6666670000000039
                },
                {
                    "name": "G#1",
                    "midi": 32,
                    "time": 126.66673000000023,
                    "velocity": 0.1968503937007874,
                    "duration": 0.6666670000000039
                },
                {
                    "name": "D#2",
                    "midi": 39,
                    "time": 126.66673000000023,
                    "velocity": 0.2204724409448819,
                    "duration": 0.6666670000000039
                },
                {
                    "name": "G#2",
                    "midi": 44,
                    "time": 126.66673000000023,
                    "velocity": 0.2677165354330709,
                    "duration": 0.6666670000000039
                },
                {
                    "name": "B1",
                    "midi": 35,
                    "time": 127.33339700000023,
                    "velocity": 0.18110236220472442,
                    "duration": 0.6666670000000039
                },
                {
                    "name": "D#2",
                    "midi": 39,
                    "time": 127.33339700000023,
                    "velocity": 0.2125984251968504,
                    "duration": 0.6666670000000039
                },
                {
                    "name": "B2",
                    "midi": 47,
                    "time": 127.33339700000023,
                    "velocity": 0.25196850393700787,
                    "duration": 0.6666670000000039
                },
                {
                    "name": "G#1",
                    "midi": 32,
                    "time": 128.00006400000024,
                    "velocity": 0.1968503937007874,
                    "duration": 0.6666669999999897
                },
                {
                    "name": "D#2",
                    "midi": 39,
                    "time": 128.00006400000024,
                    "velocity": 0.2204724409448819,
                    "duration": 0.6666669999999897
                },
                {
                    "name": "G#2",
                    "midi": 44,
                    "time": 128.00006400000024,
                    "velocity": 0.2677165354330709,
                    "duration": 0.6666669999999897
                },
                {
                    "name": "B1",
                    "midi": 35,
                    "time": 128.66673100000023,
                    "velocity": 0.1732283464566929,
                    "duration": 0.6666669999999897
                },
                {
                    "name": "D#2",
                    "midi": 39,
                    "time": 128.66673100000023,
                    "velocity": 0.1889763779527559,
                    "duration": 0.6666669999999897
                },
                {
                    "name": "B2",
                    "midi": 47,
                    "time": 128.66673100000023,
                    "velocity": 0.2283464566929134,
                    "duration": 0.6666669999999897
                },
                {
                    "name": "G#1",
                    "midi": 32,
                    "time": 129.33339800000022,
                    "velocity": 0.2047244094488189,
                    "duration": 0.6666669999999897
                },
                {
                    "name": "D#2",
                    "midi": 39,
                    "time": 129.33339800000022,
                    "velocity": 0.2283464566929134,
                    "duration": 0.6666669999999897
                },
                {
                    "name": "G#2",
                    "midi": 44,
                    "time": 129.33339800000022,
                    "velocity": 0.2755905511811024,
                    "duration": 0.6666669999999897
                },
                {
                    "name": "B1",
                    "midi": 35,
                    "time": 130.0000650000002,
                    "velocity": 0.18110236220472442,
                    "duration": 0.6666669999999897
                },
                {
                    "name": "D#2",
                    "midi": 39,
                    "time": 130.0000650000002,
                    "velocity": 0.2047244094488189,
                    "duration": 0.6666669999999897
                },
                {
                    "name": "B2",
                    "midi": 47,
                    "time": 130.0000650000002,
                    "velocity": 0.2440944881889764,
                    "duration": 0.6666669999999897
                },
                {
                    "name": "G#1",
                    "midi": 32,
                    "time": 130.6667320000002,
                    "velocity": 0.2125984251968504,
                    "duration": 0.6666669999999897
                },
                {
                    "name": "D#2",
                    "midi": 39,
                    "time": 130.6667320000002,
                    "velocity": 0.23622047244094488,
                    "duration": 0.6666669999999897
                },
                {
                    "name": "G#2",
                    "midi": 44,
                    "time": 130.6667320000002,
                    "velocity": 0.28346456692913385,
                    "duration": 0.6666669999999897
                },
                {
                    "name": "B1",
                    "midi": 35,
                    "time": 131.33339900000018,
                    "velocity": 0.18110236220472442,
                    "duration": 0.6666669999999897
                },
                {
                    "name": "D#2",
                    "midi": 39,
                    "time": 131.33339900000018,
                    "velocity": 0.2125984251968504,
                    "duration": 0.6666669999999897
                },
                {
                    "name": "B2",
                    "midi": 47,
                    "time": 131.33339900000018,
                    "velocity": 0.25196850393700787,
                    "duration": 0.6666669999999897
                },
                {
                    "name": "G#1",
                    "midi": 32,
                    "time": 132.00006600000017,
                    "velocity": 0.18110236220472442,
                    "duration": 0.6666669999999897
                },
                {
                    "name": "D#2",
                    "midi": 39,
                    "time": 132.00006600000017,
                    "velocity": 0.2125984251968504,
                    "duration": 0.6666669999999897
                },
                {
                    "name": "G#2",
                    "midi": 44,
                    "time": 132.00006600000017,
                    "velocity": 0.25196850393700787,
                    "duration": 0.6666669999999897
                },
                {
                    "name": "B1",
                    "midi": 35,
                    "time": 132.66673300000016,
                    "velocity": 0.1732283464566929,
                    "duration": 0.6666669999999897
                },
                {
                    "name": "D#2",
                    "midi": 39,
                    "time": 132.66673300000016,
                    "velocity": 0.1889763779527559,
                    "duration": 0.6666669999999897
                },
                {
                    "name": "B2",
                    "midi": 47,
                    "time": 132.66673300000016,
                    "velocity": 0.2283464566929134,
                    "duration": 0.6666669999999897
                },
                {
                    "name": "C#2",
                    "midi": 37,
                    "time": 133.33340000000015,
                    "velocity": 0.28346456692913385,
                    "duration": 0.6666669999999897
                },
                {
                    "name": "A1",
                    "midi": 33,
                    "time": 133.33340000000015,
                    "velocity": 0.25196850393700787,
                    "duration": 0.6666669999999897
                },
                {
                    "name": "A2",
                    "midi": 45,
                    "time": 133.33340000000015,
                    "velocity": 0.33858267716535434,
                    "duration": 0.6666669999999897
                },
                {
                    "name": "C#2",
                    "midi": 37,
                    "time": 134.00006700000014,
                    "velocity": 0.2283464566929134,
                    "duration": 0.6666669999999897
                },
                {
                    "name": "E2",
                    "midi": 40,
                    "time": 134.00006700000014,
                    "velocity": 0.25984251968503935,
                    "duration": 0.6666669999999897
                },
                {
                    "name": "C#3",
                    "midi": 49,
                    "time": 134.00006700000014,
                    "velocity": 0.30708661417322836,
                    "duration": 0.6666669999999897
                },
                {
                    "name": "E1",
                    "midi": 28,
                    "time": 134.66673400000013,
                    "velocity": 0.25196850393700787,
                    "duration": 0.6666669999999897
                },
                {
                    "name": "G#1",
                    "midi": 32,
                    "time": 134.66673400000013,
                    "velocity": 0.28346456692913385,
                    "duration": 0.6666669999999897
                },
                {
                    "name": "E2",
                    "midi": 40,
                    "time": 134.66673400000013,
                    "velocity": 0.33858267716535434,
                    "duration": 0.6666669999999897
                },
                {
                    "name": "G#1",
                    "midi": 32,
                    "time": 135.33340100000012,
                    "velocity": 0.2283464566929134,
                    "duration": 0.6666669999999897
                },
                {
                    "name": "B1",
                    "midi": 35,
                    "time": 135.33340100000012,
                    "velocity": 0.25984251968503935,
                    "duration": 0.6666669999999897
                },
                {
                    "name": "G#2",
                    "midi": 44,
                    "time": 135.33340100000012,
                    "velocity": 0.30708661417322836,
                    "duration": 0.6666669999999897
                },
                {
                    "name": "C#2",
                    "midi": 37,
                    "time": 136.0000680000001,
                    "velocity": 0.2992125984251969,
                    "duration": 0.6666669999999897
                },
                {
                    "name": "A1",
                    "midi": 33,
                    "time": 136.0000680000001,
                    "velocity": 0.2677165354330709,
                    "duration": 0.6666669999999897
                },
                {
                    "name": "A2",
                    "midi": 45,
                    "time": 136.0000680000001,
                    "velocity": 0.3543307086614173,
                    "duration": 0.6666669999999897
                },
                {
                    "name": "C#2",
                    "midi": 37,
                    "time": 136.6667350000001,
                    "velocity": 0.2204724409448819,
                    "duration": 0.6666669999999897
                },
                {
                    "name": "E2",
                    "midi": 40,
                    "time": 136.6667350000001,
                    "velocity": 0.25984251968503935,
                    "duration": 0.6666669999999897
                },
                {
                    "name": "C#3",
                    "midi": 49,
                    "time": 136.6667350000001,
                    "velocity": 0.30708661417322836,
                    "duration": 0.6666669999999897
                },
                {
                    "name": "E1",
                    "midi": 28,
                    "time": 137.3334020000001,
                    "velocity": 0.2677165354330709,
                    "duration": 0.6666669999999897
                },
                {
                    "name": "G#1",
                    "midi": 32,
                    "time": 137.3334020000001,
                    "velocity": 0.30708661417322836,
                    "duration": 0.6666669999999897
                },
                {
                    "name": "E2",
                    "midi": 40,
                    "time": 137.3334020000001,
                    "velocity": 0.36220472440944884,
                    "duration": 0.6666669999999897
                },
                {
                    "name": "G#1",
                    "midi": 32,
                    "time": 138.00006900000008,
                    "velocity": 0.23622047244094488,
                    "duration": 0.6666669999999897
                },
                {
                    "name": "B1",
                    "midi": 35,
                    "time": 138.00006900000008,
                    "velocity": 0.2677165354330709,
                    "duration": 0.6666669999999897
                },
                {
                    "name": "G#2",
                    "midi": 44,
                    "time": 138.00006900000008,
                    "velocity": 0.31496062992125984,
                    "duration": 0.6666669999999897
                },
                {
                    "name": "C#2",
                    "midi": 37,
                    "time": 138.66673600000007,
                    "velocity": 0.30708661417322836,
                    "duration": 0.6666669999999897
                },
                {
                    "name": "A1",
                    "midi": 33,
                    "time": 138.66673600000007,
                    "velocity": 0.2677165354330709,
                    "duration": 0.6666669999999897
                },
                {
                    "name": "A2",
                    "midi": 45,
                    "time": 138.66673600000007,
                    "velocity": 0.36220472440944884,
                    "duration": 0.6666669999999897
                },
                {
                    "name": "C#2",
                    "midi": 37,
                    "time": 139.33340300000006,
                    "velocity": 0.1889763779527559,
                    "duration": 0.6666669999999897
                },
                {
                    "name": "E2",
                    "midi": 40,
                    "time": 139.33340300000006,
                    "velocity": 0.2204724409448819,
                    "duration": 0.6666669999999897
                },
                {
                    "name": "C#3",
                    "midi": 49,
                    "time": 139.33340300000006,
                    "velocity": 0.25984251968503935,
                    "duration": 0.6666669999999897
                },
                {
                    "name": "E1",
                    "midi": 28,
                    "time": 140.00007000000005,
                    "velocity": 0.2677165354330709,
                    "duration": 0.6666669999999897
                },
                {
                    "name": "G#1",
                    "midi": 32,
                    "time": 140.00007000000005,
                    "velocity": 0.30708661417322836,
                    "duration": 0.6666669999999897
                },
                {
                    "name": "E2",
                    "midi": 40,
                    "time": 140.00007000000005,
                    "velocity": 0.36220472440944884,
                    "duration": 0.6666669999999897
                },
                {
                    "name": "G#1",
                    "midi": 32,
                    "time": 140.66673700000004,
                    "velocity": 0.1889763779527559,
                    "duration": 0.6666669999999897
                },
                {
                    "name": "B1",
                    "midi": 35,
                    "time": 140.66673700000004,
                    "velocity": 0.2204724409448819,
                    "duration": 0.6666669999999897
                },
                {
                    "name": "G#2",
                    "midi": 44,
                    "time": 140.66673700000004,
                    "velocity": 0.25984251968503935,
                    "duration": 0.6666669999999897
                },
                {
                    "name": "F#2",
                    "midi": 42,
                    "time": 141.33340400000003,
                    "velocity": 0.2992125984251969,
                    "duration": 0.6666669999999897
                },
                {
                    "name": "B1",
                    "midi": 35,
                    "time": 141.33340400000003,
                    "velocity": 0.2677165354330709,
                    "duration": 0.6666669999999897
                },
                {
                    "name": "B2",
                    "midi": 47,
                    "time": 141.33340400000003,
                    "velocity": 0.3543307086614173,
                    "duration": 0.6666669999999897
                },
                {
                    "name": "D#2",
                    "midi": 39,
                    "time": 142.00007100000002,
                    "velocity": 0.18110236220472442,
                    "duration": 0.6666669999999897
                },
                {
                    "name": "F#2",
                    "midi": 42,
                    "time": 142.00007100000002,
                    "velocity": 0.2125984251968504,
                    "duration": 0.6666669999999897
                },
                {
                    "name": "D#3",
                    "midi": 51,
                    "time": 142.00007100000002,
                    "velocity": 0.25196850393700787,
                    "duration": 0.6666669999999897
                },
                {
                    "name": "D#2",
                    "midi": 39,
                    "time": 142.666738,
                    "velocity": 0.29133858267716534,
                    "duration": 1.3333339999999794
                },
                {
                    "name": "G2",
                    "midi": 43,
                    "time": 142.666738,
                    "velocity": 0.29133858267716534,
                    "duration": 0.6666669999999897
                },
                {
                    "name": "D#3",
                    "midi": 51,
                    "time": 142.666738,
                    "velocity": 0.3464566929133858,
                    "duration": 0.6666669999999897
                },
                {
                    "name": "G2",
                    "midi": 43,
                    "time": 143.333405,
                    "velocity": 0.2283464566929134,
                    "duration": 0.6666669999999897
                },
                {
                    "name": "D#3",
                    "midi": 51,
                    "time": 143.333405,
                    "velocity": 0.2755905511811024,
                    "duration": 0.6666669999999897
                },
                {
                    "name": "G#1",
                    "midi": 32,
                    "time": 144.000072,
                    "velocity": 0.2204724409448819,
                    "duration": 1.3333339999999794
                },
                {
                    "name": "D#2",
                    "midi": 39,
                    "time": 144.000072,
                    "velocity": 0.25984251968503935,
                    "duration": 0.6666669999999897
                },
                {
                    "name": "G#2",
                    "midi": 44,
                    "time": 144.000072,
                    "velocity": 0.30708661417322836,
                    "duration": 0.6666669999999897
                },
                {
                    "name": "D#2",
                    "midi": 39,
                    "time": 144.66673899999998,
                    "velocity": 0.18110236220472442,
                    "duration": 0.6666669999999897
                },
                {
                    "name": "G#2",
                    "midi": 44,
                    "time": 144.66673899999998,
                    "velocity": 0.2204724409448819,
                    "duration": 0.6666669999999897
                },
                {
                    "name": "A1",
                    "midi": 33,
                    "time": 145.33340599999997,
                    "velocity": 0.1732283464566929,
                    "duration": 1.3333339999999794
                },
                {
                    "name": "C#2",
                    "midi": 37,
                    "time": 145.33340599999997,
                    "velocity": 0.1968503937007874,
                    "duration": 0.6666669999999897
                },
                {
                    "name": "A2",
                    "midi": 45,
                    "time": 145.33340599999997,
                    "velocity": 0.23622047244094488,
                    "duration": 0.6666669999999897
                },
                {
                    "name": "C#2",
                    "midi": 37,
                    "time": 146.00007299999996,
                    "velocity": 0.18110236220472442,
                    "duration": 0.6666669999999897
                },
                {
                    "name": "A2",
                    "midi": 45,
                    "time": 146.00007299999996,
                    "velocity": 0.2204724409448819,
                    "duration": 0.6666669999999897
                },
                {
                    "name": "D3",
                    "midi": 50,
                    "time": 146.66673999999995,
                    "velocity": 0.23622047244094488,
                    "duration": 0.6666669999999897
                },
                {
                    "name": "F#2",
                    "midi": 42,
                    "time": 146.66673999999995,
                    "velocity": 0.1968503937007874,
                    "duration": 0.6666669999999897
                },
                {
                    "name": "D2",
                    "midi": 38,
                    "time": 146.66673999999995,
                    "velocity": 0.1732283464566929,
                    "duration": 1.3333339999999794
                },
                {
                    "name": "D3",
                    "midi": 50,
                    "time": 147.33340699999994,
                    "velocity": 0.2204724409448819,
                    "duration": 0.6666669999999897
                },
                {
                    "name": "F#2",
                    "midi": 42,
                    "time": 147.33340699999994,
                    "velocity": 0.18110236220472442,
                    "duration": 0.6666669999999897
                },
                {
                    "name": "C#3",
                    "midi": 49,
                    "time": 148.00007399999993,
                    "velocity": 0.23622047244094488,
                    "duration": 0.6666669999999897
                },
                {
                    "name": "E2",
                    "midi": 40,
                    "time": 148.00007399999993,
                    "velocity": 0.1968503937007874,
                    "duration": 0.6666669999999897
                },
                {
                    "name": "C#2",
                    "midi": 37,
                    "time": 148.00007399999993,
                    "velocity": 0.1732283464566929,
                    "duration": 1.3333339999999794
                },
                {
                    "name": "E2",
                    "midi": 40,
                    "time": 148.66674099999992,
                    "velocity": 0.18110236220472442,
                    "duration": 0.6666669999999897
                },
                {
                    "name": "C#3",
                    "midi": 49,
                    "time": 148.66674099999992,
                    "velocity": 0.2204724409448819,
                    "duration": 0.6666669999999897
                },
                {
                    "name": "G#1",
                    "midi": 32,
                    "time": 149.3334079999999,
                    "velocity": 0.1732283464566929,
                    "duration": 0.6666669999999897
                },
                {
                    "name": "D#2",
                    "midi": 39,
                    "time": 149.3334079999999,
                    "velocity": 0.1968503937007874,
                    "duration": 0.6666669999999897
                },
                {
                    "name": "G#2",
                    "midi": 44,
                    "time": 149.3334079999999,
                    "velocity": 0.23622047244094488,
                    "duration": 0.6666669999999897
                },
                {
                    "name": "B1",
                    "midi": 35,
                    "time": 150.0000749999999,
                    "velocity": 0.14173228346456693,
                    "duration": 0.6666669999999897
                },
                {
                    "name": "D#2",
                    "midi": 39,
                    "time": 150.0000749999999,
                    "velocity": 0.1732283464566929,
                    "duration": 0.6666669999999897
                },
                {
                    "name": "B2",
                    "midi": 47,
                    "time": 150.0000749999999,
                    "velocity": 0.2047244094488189,
                    "duration": 0.6666669999999897
                },
                {
                    "name": "G#1",
                    "midi": 32,
                    "time": 150.66674199999989,
                    "velocity": 0.1732283464566929,
                    "duration": 0.6666669999999897
                },
                {
                    "name": "D#2",
                    "midi": 39,
                    "time": 150.66674199999989,
                    "velocity": 0.1889763779527559,
                    "duration": 0.6666669999999897
                },
                {
                    "name": "G#2",
                    "midi": 44,
                    "time": 150.66674199999989,
                    "velocity": 0.2283464566929134,
                    "duration": 0.6666669999999897
                },
                {
                    "name": "B1",
                    "midi": 35,
                    "time": 151.33340899999988,
                    "velocity": 0.14960629921259844,
                    "duration": 0.6666669999999897
                },
                {
                    "name": "D#2",
                    "midi": 39,
                    "time": 151.33340899999988,
                    "velocity": 0.1732283464566929,
                    "duration": 0.6666669999999897
                },
                {
                    "name": "B2",
                    "midi": 47,
                    "time": 151.33340899999988,
                    "velocity": 0.2125984251968504,
                    "duration": 0.6666669999999897
                },
                {
                    "name": "G#1",
                    "midi": 32,
                    "time": 152.00007599999986,
                    "velocity": 0.1732283464566929,
                    "duration": 0.6666669999999897
                },
                {
                    "name": "D#2",
                    "midi": 39,
                    "time": 152.00007599999986,
                    "velocity": 0.1968503937007874,
                    "duration": 0.6666669999999897
                },
                {
                    "name": "G#2",
                    "midi": 44,
                    "time": 152.00007599999986,
                    "velocity": 0.23622047244094488,
                    "duration": 0.6666669999999897
                },
                {
                    "name": "B1",
                    "midi": 35,
                    "time": 152.66674299999985,
                    "velocity": 0.15748031496062992,
                    "duration": 0.6666669999999897
                },
                {
                    "name": "D#2",
                    "midi": 39,
                    "time": 152.66674299999985,
                    "velocity": 0.18110236220472442,
                    "duration": 0.6666669999999897
                },
                {
                    "name": "B2",
                    "midi": 47,
                    "time": 152.66674299999985,
                    "velocity": 0.2204724409448819,
                    "duration": 0.6666669999999897
                },
                {
                    "name": "G#1",
                    "midi": 32,
                    "time": 153.33340999999984,
                    "velocity": 0.1732283464566929,
                    "duration": 0.6666669999999897
                },
                {
                    "name": "D#2",
                    "midi": 39,
                    "time": 153.33340999999984,
                    "velocity": 0.1889763779527559,
                    "duration": 0.6666669999999897
                },
                {
                    "name": "G#2",
                    "midi": 44,
                    "time": 153.33340999999984,
                    "velocity": 0.2283464566929134,
                    "duration": 0.6666669999999897
                },
                {
                    "name": "B1",
                    "midi": 35,
                    "time": 154.00007699999983,
                    "velocity": 0.14960629921259844,
                    "duration": 0.6666669999999897
                },
                {
                    "name": "D#2",
                    "midi": 39,
                    "time": 154.00007699999983,
                    "velocity": 0.1732283464566929,
                    "duration": 0.6666669999999897
                },
                {
                    "name": "B2",
                    "midi": 47,
                    "time": 154.00007699999983,
                    "velocity": 0.2125984251968504,
                    "duration": 0.6666669999999897
                },
                {
                    "name": "D#2",
                    "midi": 39,
                    "time": 154.66674399999982,
                    "velocity": 0.18110236220472442,
                    "duration": 0.6666669999999897
                },
                {
                    "name": "G#2",
                    "midi": 44,
                    "time": 154.66674399999982,
                    "velocity": 0.2204724409448819,
                    "duration": 0.6666669999999897
                },
                {
                    "name": "G#1",
                    "midi": 32,
                    "time": 154.66674399999982,
                    "velocity": 0.16535433070866143,
                    "duration": 1.3333339999999794
                },
                {
                    "name": "D#2",
                    "midi": 39,
                    "time": 155.3334109999998,
                    "velocity": 0.16535433070866143,
                    "duration": 0.6666669999999897
                },
                {
                    "name": "G#2",
                    "midi": 44,
                    "time": 155.3334109999998,
                    "velocity": 0.1968503937007874,
                    "duration": 0.6666669999999897
                },
                {
                    "name": "A1",
                    "midi": 33,
                    "time": 156.0000779999998,
                    "velocity": 0.16535433070866143,
                    "duration": 1.3333339999999794
                },
                {
                    "name": "C#2",
                    "midi": 37,
                    "time": 156.0000779999998,
                    "velocity": 0.18110236220472442,
                    "duration": 0.6666669999999897
                },
                {
                    "name": "A2",
                    "midi": 45,
                    "time": 156.0000779999998,
                    "velocity": 0.2204724409448819,
                    "duration": 0.6666669999999897
                },
                {
                    "name": "C#2",
                    "midi": 37,
                    "time": 156.6667449999998,
                    "velocity": 0.16535433070866143,
                    "duration": 0.6666669999999897
                },
                {
                    "name": "A2",
                    "midi": 45,
                    "time": 156.6667449999998,
                    "velocity": 0.1968503937007874,
                    "duration": 0.6666669999999897
                },
                {
                    "name": "E2",
                    "midi": 40,
                    "time": 157.33341199999978,
                    "velocity": 0.2204724409448819,
                    "duration": 0.6666669999999897
                },
                {
                    "name": "G#1",
                    "midi": 32,
                    "time": 157.33341199999978,
                    "velocity": 0.18110236220472442,
                    "duration": 0.6666669999999897
                },
                {
                    "name": "E1",
                    "midi": 28,
                    "time": 157.33341199999978,
                    "velocity": 0.16535433070866143,
                    "duration": 1.3333339999999794
                },
                {
                    "name": "E2",
                    "midi": 40,
                    "time": 158.00007899999977,
                    "velocity": 0.1968503937007874,
                    "duration": 0.6666669999999897
                },
                {
                    "name": "G#1",
                    "midi": 32,
                    "time": 158.00007899999977,
                    "velocity": 0.16535433070866143,
                    "duration": 0.6666669999999897
                },
                {
                    "name": "F#2",
                    "midi": 42,
                    "time": 158.66674599999976,
                    "velocity": 0.2204724409448819,
                    "duration": 0.6666669999999897
                },
                {
                    "name": "A1",
                    "midi": 33,
                    "time": 158.66674599999976,
                    "velocity": 0.18110236220472442,
                    "duration": 0.6666669999999897
                },
                {
                    "name": "F#1",
                    "midi": 30,
                    "time": 158.66674599999976,
                    "velocity": 0.16535433070866143,
                    "duration": 1.3333339999999794
                },
                {
                    "name": "F#2",
                    "midi": 42,
                    "time": 159.33341299999975,
                    "velocity": 0.18110236220472442,
                    "duration": 0.6666669999999897
                },
                {
                    "name": "A1",
                    "midi": 33,
                    "time": 159.33341299999975,
                    "velocity": 0.14960629921259844,
                    "duration": 0.6666669999999897
                },
                {
                    "name": "G#1",
                    "midi": 32,
                    "time": 160.00007999999974,
                    "velocity": 0.14173228346456693,
                    "duration": 0.6666669999999897
                },
                {
                    "name": "D#2",
                    "midi": 39,
                    "time": 160.00007999999974,
                    "velocity": 0.16535433070866143,
                    "duration": 0.6666669999999897
                },
                {
                    "name": "G#2",
                    "midi": 44,
                    "time": 160.00007999999974,
                    "velocity": 0.1968503937007874,
                    "duration": 0.6666669999999897
                },
                {
                    "name": "B1",
                    "midi": 35,
                    "time": 160.66674699999973,
                    "velocity": 0.09448818897637795,
                    "duration": 0.6666669999999897
                },
                {
                    "name": "D#2",
                    "midi": 39,
                    "time": 160.66674699999973,
                    "velocity": 0.11023622047244094,
                    "duration": 0.6666669999999897
                },
                {
                    "name": "B2",
                    "midi": 47,
                    "time": 160.66674699999973,
                    "velocity": 0.13385826771653545,
                    "duration": 0.6666669999999897
                },
                {
                    "name": "G#1",
                    "midi": 32,
                    "time": 161.33341399999972,
                    "velocity": 0.14173228346456693,
                    "duration": 0.6666669999999897
                },
                {
                    "name": "D#2",
                    "midi": 39,
                    "time": 161.33341399999972,
                    "velocity": 0.15748031496062992,
                    "duration": 0.6666669999999897
                },
                {
                    "name": "G#2",
                    "midi": 44,
                    "time": 161.33341399999972,
                    "velocity": 0.1889763779527559,
                    "duration": 0.6666669999999897
                },
                {
                    "name": "B1",
                    "midi": 35,
                    "time": 162.0000809999997,
                    "velocity": 0.11023622047244094,
                    "duration": 0.6666669999999897
                },
                {
                    "name": "D#2",
                    "midi": 39,
                    "time": 162.0000809999997,
                    "velocity": 0.12598425196850394,
                    "duration": 0.6666669999999897
                },
                {
                    "name": "B2",
                    "midi": 47,
                    "time": 162.0000809999997,
                    "velocity": 0.14960629921259844,
                    "duration": 0.6666669999999897
                },
                {
                    "name": "B1",
                    "midi": 35,
                    "time": 162.6667479999997,
                    "velocity": 0.1732283464566929,
                    "duration": 0.6666669999999897
                },
                {
                    "name": "G#1",
                    "midi": 32,
                    "time": 162.6667479999997,
                    "velocity": 0.14173228346456693,
                    "duration": 0.6666669999999897
                },
                {
                    "name": "D#2",
                    "midi": 39,
                    "time": 163.3334149999997,
                    "velocity": 0.13385826771653545,
                    "duration": 0.6666669999999897
                },
                {
                    "name": "B1",
                    "midi": 35,
                    "time": 163.3334149999997,
                    "velocity": 0.11023622047244094,
                    "duration": 0.6666669999999897
                },
                {
                    "name": "B1",
                    "midi": 35,
                    "time": 164.00008199999968,
                    "velocity": 0.18110236220472442,
                    "duration": 0.6666669999999897
                },
                {
                    "name": "G#1",
                    "midi": 32,
                    "time": 164.00008199999968,
                    "velocity": 0.14960629921259844,
                    "duration": 0.6666669999999897
                },
                {
                    "name": "D#2",
                    "midi": 39,
                    "time": 164.66674899999967,
                    "velocity": 0.13385826771653545,
                    "duration": 0.6666669999999897
                },
                {
                    "name": "B1",
                    "midi": 35,
                    "time": 164.66674899999967,
                    "velocity": 0.11023622047244094,
                    "duration": 0.6666669999999897
                },
                {
                    "name": "G#1",
                    "midi": 32,
                    "time": 165.33341599999966,
                    "velocity": 0.1889763779527559,
                    "duration": 1.3333340000000078
                },
                {
                    "name": "B1",
                    "midi": 35,
                    "time": 166.66674999999967,
                    "velocity": 0.14960629921259844,
                    "duration": 1.3333340000000078
                },
                {
                    "name": "G#1",
                    "midi": 32,
                    "time": 168.00008399999967,
                    "velocity": 0.16535433070866143,
                    "duration": 1.3333340000000078
                },
                {
                    "name": "B1",
                    "midi": 35,
                    "time": 169.33341799999968,
                    "velocity": 0.13385826771653545,
                    "duration": 1.3333340000000078
                }
            ],
            "controlChanges": {
                "7": [
                    {
                        "number": 7,
                        "time": 0,
                        "value": 0.7874015748031497
                    }
                ],
                "10": [
                    {
                        "number": 10,
                        "time": 0,
                        "value": 0.5039370078740157
                    }
                ],
                "91": [
                    {
                        "number": 91,
                        "time": 0,
                        "value": 1
                    }
                ]
            },
            "id": 2,
            "name": "Piano left",
            "instrumentNumber": 0,
            "instrument": "acoustic grand piano",
            "instrumentFamily": "piano",
            "channelNumber": 0,
            "isPercussion": false
        },
        {
            "startTime": 0,
            "duration": 0,
            "length": 0,
            "notes": [],
            "controlChanges": {
                "64": [
                    {
                        "number": 64,
                        "time": 0.03750001875,
                        "value": 1
                    },
                    {
                        "number": 64,
                        "time": 1.3402784479166667,
                        "value": 0
                    },
                    {
                        "number": 64,
                        "time": 1.70416751875,
                        "value": 1
                    },
                    {
                        "number": 64,
                        "time": 2.669445779166667,
                        "value": 0
                    },
                    {
                        "number": 64,
                        "time": 2.86250143125,
                        "value": 1
                    },
                    {
                        "number": 64,
                        "time": 3.350001675,
                        "value": 0
                    },
                    {
                        "number": 64,
                        "time": 3.5888906833333336,
                        "value": 1
                    },
                    {
                        "number": 64,
                        "time": 4.016668675,
                        "value": 0
                    },
                    {
                        "number": 64,
                        "time": 4.2750021375,
                        "value": 1
                    },
                    {
                        "number": 64,
                        "time": 4.686113454166666,
                        "value": 0
                    },
                    {
                        "number": 64,
                        "time": 4.922224683333332,
                        "value": 1
                    },
                    {
                        "number": 64,
                        "time": 5.337502668749999,
                        "value": 0
                    },
                    {
                        "number": 64,
                        "time": 5.629169481249999,
                        "value": 1
                    },
                    {
                        "number": 64,
                        "time": 6.013891895833332,
                        "value": 0
                    },
                    {
                        "number": 64,
                        "time": 6.333336499999999,
                        "value": 1
                    },
                    {
                        "number": 64,
                        "time": 6.684725564583332,
                        "value": 0
                    },
                    {
                        "number": 64,
                        "time": 7.000003499999999,
                        "value": 1
                    },
                    {
                        "number": 64,
                        "time": 7.3444481166666655,
                        "value": 0
                    },
                    {
                        "number": 64,
                        "time": 7.5930593520833325,
                        "value": 1
                    },
                    {
                        "number": 64,
                        "time": 8.00417066875,
                        "value": 0
                    },
                    {
                        "number": 64,
                        "time": 8.333337499999999,
                        "value": 1
                    },
                    {
                        "number": 64,
                        "time": 9.351393564583333,
                        "value": 0
                    },
                    {
                        "number": 64,
                        "time": 9.555560333333332,
                        "value": 1
                    },
                    {
                        "number": 64,
                        "time": 10.856949872916665,
                        "value": 1
                    },
                    {
                        "number": 64,
                        "time": 12.006950447916665,
                        "value": 0
                    },
                    {
                        "number": 64,
                        "time": 12.318061714583331,
                        "value": 1
                    },
                    {
                        "number": 64,
                        "time": 13.340284447916664,
                        "value": 0
                    },
                    {
                        "number": 64,
                        "time": 13.65139571458333,
                        "value": 1
                    },
                    {
                        "number": 64,
                        "time": 14.687507343749997,
                        "value": 0
                    },
                    {
                        "number": 64,
                        "time": 14.952785254166663,
                        "value": 1
                    },
                    {
                        "number": 64,
                        "time": 16.000007999999998,
                        "value": 0
                    },
                    {
                        "number": 64,
                        "time": 16.31806371458333,
                        "value": 1
                    },
                    {
                        "number": 64,
                        "time": 17.354175343749997,
                        "value": 0
                    },
                    {
                        "number": 64,
                        "time": 17.745842206249996,
                        "value": 1
                    },
                    {
                        "number": 64,
                        "time": 18.670842668749998,
                        "value": 0
                    },
                    {
                        "number": 64,
                        "time": 18.984731714583333,
                        "value": 1
                    },
                    {
                        "number": 64,
                        "time": 20.01806556458333,
                        "value": 0
                    },
                    {
                        "number": 64,
                        "time": 20.350010174999998,
                        "value": 1
                    },
                    {
                        "number": 64,
                        "time": 21.351399564583332,
                        "value": 0
                    },
                    {
                        "number": 64,
                        "time": 21.74584420625,
                        "value": 1
                    },
                    {
                        "number": 64,
                        "time": 22.684733564583333,
                        "value": 0
                    },
                    {
                        "number": 64,
                        "time": 22.98473371458333,
                        "value": 1
                    },
                    {
                        "number": 64,
                        "time": 23.3416783375,
                        "value": 0
                    },
                    {
                        "number": 64,
                        "time": 23.619456254166668,
                        "value": 1
                    },
                    {
                        "number": 64,
                        "time": 24.016678675,
                        "value": 0
                    },
                    {
                        "number": 64,
                        "time": 24.48195668541667,
                        "value": 1
                    },
                    {
                        "number": 64,
                        "time": 25.347234895833335,
                        "value": 0
                    },
                    {
                        "number": 64,
                        "time": 25.815290685416667,
                        "value": 1
                    },
                    {
                        "number": 64,
                        "time": 27.350013675,
                        "value": 0
                    },
                    {
                        "number": 64,
                        "time": 27.627791591666668,
                        "value": 1
                    },
                    {
                        "number": 64,
                        "time": 28.019458454166667,
                        "value": 0
                    },
                    {
                        "number": 64,
                        "time": 28.255569683333334,
                        "value": 1
                    },
                    {
                        "number": 64,
                        "time": 28.683347675,
                        "value": 0
                    },
                    {
                        "number": 64,
                        "time": 28.883347775,
                        "value": 1
                    },
                    {
                        "number": 64,
                        "time": 29.340292447916667,
                        "value": 0
                    },
                    {
                        "number": 64,
                        "time": 29.62918148125,
                        "value": 1
                    },
                    {
                        "number": 64,
                        "time": 30.013903895833334,
                        "value": 0
                    },
                    {
                        "number": 64,
                        "time": 30.3333485,
                        "value": 1
                    },
                    {
                        "number": 64,
                        "time": 30.684737564583333,
                        "value": 0
                    },
                    {
                        "number": 64,
                        "time": 31.0000155,
                        "value": 1
                    },
                    {
                        "number": 64,
                        "time": 31.351404564583333,
                        "value": 0
                    },
                    {
                        "number": 64,
                        "time": 31.70418251875,
                        "value": 1
                    },
                    {
                        "number": 64,
                        "time": 32.00557155833333,
                        "value": 0
                    },
                    {
                        "number": 64,
                        "time": 32.3333495,
                        "value": 1
                    },
                    {
                        "number": 64,
                        "time": 33.34307222708333,
                        "value": 0
                    },
                    {
                        "number": 64,
                        "time": 33.55557233333333,
                        "value": 1
                    },
                    {
                        "number": 64,
                        "time": 34.683350675,
                        "value": 0
                    },
                    {
                        "number": 64,
                        "time": 35.07918420625,
                        "value": 1
                    },
                    {
                        "number": 64,
                        "time": 36.011129116666666,
                        "value": 0
                    },
                    {
                        "number": 64,
                        "time": 36.318073714583335,
                        "value": 1
                    },
                    {
                        "number": 64,
                        "time": 37.333352000000005,
                        "value": 0
                    },
                    {
                        "number": 64,
                        "time": 37.651407714583335,
                        "value": 1
                    },
                    {
                        "number": 64,
                        "time": 38.68057489583334,
                        "value": 0
                    },
                    {
                        "number": 64,
                        "time": 38.95279725416667,
                        "value": 1
                    },
                    {
                        "number": 64,
                        "time": 39.35418634375,
                        "value": 0
                    },
                    {
                        "number": 64,
                        "time": 39.683353175,
                        "value": 1
                    },
                    {
                        "number": 64,
                        "time": 40.00418666875,
                        "value": 0
                    },
                    {
                        "number": 64,
                        "time": 40.25418679375,
                        "value": 1
                    },
                    {
                        "number": 64,
                        "time": 44.018077564583336,
                        "value": 0
                    },
                    {
                        "number": 64,
                        "time": 44.28613325416667,
                        "value": 1
                    },
                    {
                        "number": 64,
                        "time": 45.34168933750001,
                        "value": 0
                    },
                    {
                        "number": 64,
                        "time": 45.715300635416675,
                        "value": 1
                    },
                    {
                        "number": 64,
                        "time": 46.673634447916676,
                        "value": 0
                    },
                    {
                        "number": 64,
                        "time": 46.95280125416667,
                        "value": 1
                    },
                    {
                        "number": 64,
                        "time": 48.01113511666667,
                        "value": 0
                    },
                    {
                        "number": 64,
                        "time": 48.47641312708334,
                        "value": 1
                    },
                    {
                        "number": 64,
                        "time": 49.35141356458334,
                        "value": 0
                    },
                    {
                        "number": 64,
                        "time": 49.65141371458334,
                        "value": 1
                    },
                    {
                        "number": 64,
                        "time": 50.66669200000001,
                        "value": 0
                    },
                    {
                        "number": 64,
                        "time": 51.07502553750001,
                        "value": 1
                    },
                    {
                        "number": 64,
                        "time": 53.33336000000001,
                        "value": 0
                    },
                    {
                        "number": 64,
                        "time": 53.651415714583344,
                        "value": 1
                    },
                    {
                        "number": 64,
                        "time": 54.68336067500001,
                        "value": 0
                    },
                    {
                        "number": 64,
                        "time": 55.04863863541668,
                        "value": 1
                    },
                    {
                        "number": 64,
                        "time": 56.000028000000015,
                        "value": 0
                    },
                    {
                        "number": 64,
                        "time": 56.35002817500001,
                        "value": 1
                    },
                    {
                        "number": 64,
                        "time": 57.345862006250016,
                        "value": 0
                    },
                    {
                        "number": 64,
                        "time": 57.68336217500001,
                        "value": 1
                    },
                    {
                        "number": 64,
                        "time": 58.666696000000016,
                        "value": 0
                    },
                    {
                        "number": 64,
                        "time": 58.984751714583346,
                        "value": 1
                    },
                    {
                        "number": 64,
                        "time": 60.01669667500001,
                        "value": 0
                    },
                    {
                        "number": 64,
                        "time": 60.350030175000015,
                        "value": 1
                    },
                    {
                        "number": 64,
                        "time": 61.33336400000002,
                        "value": 0
                    },
                    {
                        "number": 64,
                        "time": 61.65141971458335,
                        "value": 1
                    },
                    {
                        "number": 64,
                        "time": 62.68058689583335,
                        "value": 0
                    },
                    {
                        "number": 64,
                        "time": 62.95280925416668,
                        "value": 1
                    },
                    {
                        "number": 64,
                        "time": 64.00003200000002,
                        "value": 0
                    },
                    {
                        "number": 64,
                        "time": 64.41253220625002,
                        "value": 1
                    },
                    {
                        "number": 64,
                        "time": 65.35003267500002,
                        "value": 0
                    },
                    {
                        "number": 64,
                        "time": 65.7778106666667,
                        "value": 1
                    },
                    {
                        "number": 64,
                        "time": 66.66670000000003,
                        "value": 0
                    },
                    {
                        "number": 64,
                        "time": 67.1111446666667,
                        "value": 1
                    },
                    {
                        "number": 64,
                        "time": 68.0153117854167,
                        "value": 0
                    },
                    {
                        "number": 64,
                        "time": 68.2861452541667,
                        "value": 1
                    },
                    {
                        "number": 64,
                        "time": 69.33336800000004,
                        "value": 0
                    },
                    {
                        "number": 64,
                        "time": 69.68336817500004,
                        "value": 1
                    },
                    {
                        "number": 64,
                        "time": 70.67781311666671,
                        "value": 0
                    },
                    {
                        "number": 64,
                        "time": 71.07920220625005,
                        "value": 1
                    },
                    {
                        "number": 64,
                        "time": 72.00003600000005,
                        "value": 0
                    },
                    {
                        "number": 64,
                        "time": 72.38198063541672,
                        "value": 1
                    },
                    {
                        "number": 64,
                        "time": 73.3514255645834,
                        "value": 0
                    },
                    {
                        "number": 64,
                        "time": 73.77781466666673,
                        "value": 1
                    },
                    {
                        "number": 64,
                        "time": 74.6764262270834,
                        "value": 0
                    },
                    {
                        "number": 64,
                        "time": 75.04864863541673,
                        "value": 1
                    },
                    {
                        "number": 64,
                        "time": 76.00976022708339,
                        "value": 0
                    },
                    {
                        "number": 64,
                        "time": 76.38198263541672,
                        "value": 1
                    },
                    {
                        "number": 64,
                        "time": 77.33337200000005,
                        "value": 0
                    },
                    {
                        "number": 64,
                        "time": 77.71531663541673,
                        "value": 1
                    },
                    {
                        "number": 64,
                        "time": 78.67642822708339,
                        "value": 0
                    },
                    {
                        "number": 64,
                        "time": 78.98476171458339,
                        "value": 1
                    },
                    {
                        "number": 64,
                        "time": 80.00004000000006,
                        "value": 0
                    },
                    {
                        "number": 64,
                        "time": 80.47642912708339,
                        "value": 1
                    },
                    {
                        "number": 64,
                        "time": 81.3514295645834,
                        "value": 0
                    },
                    {
                        "number": 64,
                        "time": 81.74587420625006,
                        "value": 1
                    },
                    {
                        "number": 64,
                        "time": 82.66670800000007,
                        "value": 0
                    },
                    {
                        "number": 64,
                        "time": 83.14865268541674,
                        "value": 1
                    },
                    {
                        "number": 64,
                        "time": 84.0139308958334,
                        "value": 0
                    },
                    {
                        "number": 64,
                        "time": 84.48198668541673,
                        "value": 1
                    },
                    {
                        "number": 64,
                        "time": 85.33337600000006,
                        "value": 0
                    },
                    {
                        "number": 64,
                        "time": 85.74170953750006,
                        "value": 1
                    },
                    {
                        "number": 64,
                        "time": 86.68476556458339,
                        "value": 0
                    },
                    {
                        "number": 64,
                        "time": 87.11115466666672,
                        "value": 1
                    },
                    {
                        "number": 64,
                        "time": 88.00004400000006,
                        "value": 0
                    },
                    {
                        "number": 64,
                        "time": 88.3139330458334,
                        "value": 1
                    },
                    {
                        "number": 64,
                        "time": 89.35560023333339,
                        "value": 0
                    },
                    {
                        "number": 64,
                        "time": 89.62782259166673,
                        "value": 1
                    },
                    {
                        "number": 64,
                        "time": 90.66671200000006,
                        "value": 0
                    },
                    {
                        "number": 64,
                        "time": 90.8889343333334,
                        "value": 1
                    },
                    {
                        "number": 64,
                        "time": 93.33338000000006,
                        "value": 0
                    },
                    {
                        "number": 64,
                        "time": 93.51949120416673,
                        "value": 1
                    },
                    {
                        "number": 64,
                        "time": 94.67782511666672,
                        "value": 0
                    },
                    {
                        "number": 64,
                        "time": 95.14865868541672,
                        "value": 1
                    },
                    {
                        "number": 64,
                        "time": 96.00004800000005,
                        "value": 0
                    },
                    {
                        "number": 64,
                        "time": 96.15838141250005,
                        "value": 1
                    },
                    {
                        "number": 64,
                        "time": 97.35143756458338,
                        "value": 0
                    },
                    {
                        "number": 64,
                        "time": 97.65143771458338,
                        "value": 1
                    },
                    {
                        "number": 64,
                        "time": 98.66671600000005,
                        "value": 0
                    },
                    {
                        "number": 64,
                        "time": 98.96393837083339,
                        "value": 1
                    },
                    {
                        "number": 64,
                        "time": 100.01255000625005,
                        "value": 0
                    },
                    {
                        "number": 64,
                        "time": 100.44449466666671,
                        "value": 1
                    },
                    {
                        "number": 64,
                        "time": 102.01671767500005,
                        "value": 0
                    },
                    {
                        "number": 64,
                        "time": 102.27505113750006,
                        "value": 1
                    },
                    {
                        "number": 64,
                        "time": 102.68616245416672,
                        "value": 0
                    },
                    {
                        "number": 64,
                        "time": 102.84310697708338,
                        "value": 1
                    },
                    {
                        "number": 64,
                        "time": 103.35005167500005,
                        "value": 0
                    },
                    {
                        "number": 64,
                        "time": 103.60838513750005,
                        "value": 1
                    },
                    {
                        "number": 64,
                        "time": 104.00005200000005,
                        "value": 0
                    },
                    {
                        "number": 64,
                        "time": 104.29588548125005,
                        "value": 1
                    },
                    {
                        "number": 64,
                        "time": 104.68338567500005,
                        "value": 0
                    },
                    {
                        "number": 64,
                        "time": 105.00005250000005,
                        "value": 1
                    },
                    {
                        "number": 64,
                        "time": 105.35144156458338,
                        "value": 0
                    },
                    {
                        "number": 64,
                        "time": 105.66671950000004,
                        "value": 1
                    },
                    {
                        "number": 64,
                        "time": 106.01810856458337,
                        "value": 0
                    },
                    {
                        "number": 64,
                        "time": 106.37088651875004,
                        "value": 1
                    },
                    {
                        "number": 64,
                        "time": 106.66672000000004,
                        "value": 0
                    },
                    {
                        "number": 64,
                        "time": 107.00005350000004,
                        "value": 1
                    },
                    {
                        "number": 64,
                        "time": 108.0111651166667,
                        "value": 0
                    },
                    {
                        "number": 64,
                        "time": 108.33338750000004,
                        "value": 1
                    },
                    {
                        "number": 64,
                        "time": 109.33338800000004,
                        "value": 0
                    },
                    {
                        "number": 64,
                        "time": 109.68338817500005,
                        "value": 1
                    },
                    {
                        "number": 64,
                        "time": 110.68338867500005,
                        "value": 0
                    },
                    {
                        "number": 64,
                        "time": 111.01672217500004,
                        "value": 1
                    },
                    {
                        "number": 64,
                        "time": 112.00005600000004,
                        "value": 0
                    },
                    {
                        "number": 64,
                        "time": 112.47644512708338,
                        "value": 1
                    },
                    {
                        "number": 64,
                        "time": 113.35422334375005,
                        "value": 0
                    },
                    {
                        "number": 64,
                        "time": 113.71533463541671,
                        "value": 1
                    },
                    {
                        "number": 64,
                        "time": 114.66672400000004,
                        "value": 0
                    },
                    {
                        "number": 64,
                        "time": 115.04866863541672,
                        "value": 1
                    },
                    {
                        "number": 64,
                        "time": 116.01672467500005,
                        "value": 0
                    },
                    {
                        "number": 64,
                        "time": 116.41255820625005,
                        "value": 1
                    },
                    {
                        "number": 64,
                        "time": 117.34311422708339,
                        "value": 0
                    },
                    {
                        "number": 64,
                        "time": 117.68339217500005,
                        "value": 1
                    },
                    {
                        "number": 64,
                        "time": 118.68339267500005,
                        "value": 0
                    },
                    {
                        "number": 64,
                        "time": 119.01672617500004,
                        "value": 1
                    },
                    {
                        "number": 64,
                        "time": 120.00006000000005,
                        "value": 0
                    },
                    {
                        "number": 64,
                        "time": 120.28617125416672,
                        "value": 1
                    },
                    {
                        "number": 64,
                        "time": 121.35144956458339,
                        "value": 0
                    },
                    {
                        "number": 64,
                        "time": 121.61950525416673,
                        "value": 1
                    },
                    {
                        "number": 64,
                        "time": 122.0181165645834,
                        "value": 0
                    },
                    {
                        "number": 64,
                        "time": 122.3181167145834,
                        "value": 1
                    },
                    {
                        "number": 64,
                        "time": 122.66672800000006,
                        "value": 0
                    },
                    {
                        "number": 64,
                        "time": 122.96256148125006,
                        "value": 1
                    },
                    {
                        "number": 64,
                        "time": 124.02089534375007,
                        "value": 0
                    },
                    {
                        "number": 64,
                        "time": 124.48200668541674,
                        "value": 1
                    },
                    {
                        "number": 64,
                        "time": 126.01672967500006,
                        "value": 0
                    },
                    {
                        "number": 64,
                        "time": 126.19589643125006,
                        "value": 1
                    },
                    {
                        "number": 64,
                        "time": 126.68617445416673,
                        "value": 0
                    },
                    {
                        "number": 64,
                        "time": 126.94173013750006,
                        "value": 1
                    },
                    {
                        "number": 64,
                        "time": 127.35284145416672,
                        "value": 0
                    },
                    {
                        "number": 64,
                        "time": 127.60839713750005,
                        "value": 1
                    },
                    {
                        "number": 64,
                        "time": 128.00423066875004,
                        "value": 0
                    },
                    {
                        "number": 64,
                        "time": 128.29589748125005,
                        "value": 1
                    },
                    {
                        "number": 64,
                        "time": 128.6806198958334,
                        "value": 0
                    },
                    {
                        "number": 64,
                        "time": 129.00006450000006,
                        "value": 1
                    },
                    {
                        "number": 64,
                        "time": 129.3514535645834,
                        "value": 0
                    },
                    {
                        "number": 64,
                        "time": 129.77784266666674,
                        "value": 1
                    },
                    {
                        "number": 64,
                        "time": 130.01673167500007,
                        "value": 0
                    },
                    {
                        "number": 64,
                        "time": 130.37089851875007,
                        "value": 1
                    },
                    {
                        "number": 64,
                        "time": 130.67089866875006,
                        "value": 0
                    },
                    {
                        "number": 64,
                        "time": 131.00006550000006,
                        "value": 1
                    },
                    {
                        "number": 64,
                        "time": 132.01673267500007,
                        "value": 0
                    },
                    {
                        "number": 64,
                        "time": 132.2222883333334,
                        "value": 1
                    },
                    {
                        "number": 64,
                        "time": 133.33340000000007,
                        "value": 0
                    },
                    {
                        "number": 64,
                        "time": 133.6514557145834,
                        "value": 1
                    },
                    {
                        "number": 64,
                        "time": 134.68756734375006,
                        "value": 0
                    },
                    {
                        "number": 64,
                        "time": 135.01673417500007,
                        "value": 1
                    },
                    {
                        "number": 64,
                        "time": 136.00006800000006,
                        "value": 0
                    },
                    {
                        "number": 64,
                        "time": 136.31812371458338,
                        "value": 1
                    },
                    {
                        "number": 64,
                        "time": 137.35145756458337,
                        "value": 0
                    },
                    {
                        "number": 64,
                        "time": 137.7153466354167,
                        "value": 1
                    },
                    {
                        "number": 64,
                        "time": 138.66673600000001,
                        "value": 0
                    },
                    {
                        "number": 64,
                        "time": 138.88895833333333,
                        "value": 1
                    },
                    {
                        "number": 64,
                        "time": 140.01812556458333,
                        "value": 0
                    },
                    {
                        "number": 64,
                        "time": 140.38201463541665,
                        "value": 1
                    },
                    {
                        "number": 64,
                        "time": 141.33340399999997,
                        "value": 0
                    },
                    {
                        "number": 64,
                        "time": 141.71534863541663,
                        "value": 1
                    },
                    {
                        "number": 64,
                        "time": 142.6847935645833,
                        "value": 0
                    },
                    {
                        "number": 64,
                        "time": 143.07923820624995,
                        "value": 1
                    },
                    {
                        "number": 64,
                        "time": 144.00840533749997,
                        "value": 0
                    },
                    {
                        "number": 64,
                        "time": 144.3181277145833,
                        "value": 1
                    },
                    {
                        "number": 64,
                        "time": 145.3556282333333,
                        "value": 0
                    },
                    {
                        "number": 64,
                        "time": 145.8097951270833,
                        "value": 1
                    },
                    {
                        "number": 64,
                        "time": 146.66673999999998,
                        "value": 0
                    },
                    {
                        "number": 64,
                        "time": 147.04868463541663,
                        "value": 1
                    },
                    {
                        "number": 64,
                        "time": 148.0181295645833,
                        "value": 0
                    },
                    {
                        "number": 64,
                        "time": 148.2222963333333,
                        "value": 1
                    },
                    {
                        "number": 64,
                        "time": 149.3472968958333,
                        "value": 0
                    },
                    {
                        "number": 64,
                        "time": 149.70424151874997,
                        "value": 1
                    },
                    {
                        "number": 64,
                        "time": 152.68618745416663,
                        "value": 0
                    },
                    {
                        "number": 64,
                        "time": 152.96118759166663,
                        "value": 1
                    },
                    {
                        "number": 64,
                        "time": 153.35007667499997,
                        "value": 0
                    },
                    {
                        "number": 64,
                        "time": 153.60841013749996,
                        "value": 1
                    },
                    {
                        "number": 64,
                        "time": 154.01674367499996,
                        "value": 0
                    },
                    {
                        "number": 64,
                        "time": 154.3931327520833,
                        "value": 1
                    },
                    {
                        "number": 64,
                        "time": 154.66674399999997,
                        "value": 0
                    },
                    {
                        "number": 64,
                        "time": 155.01674417499996,
                        "value": 1
                    },
                    {
                        "number": 64,
                        "time": 156.01396689583328,
                        "value": 0
                    },
                    {
                        "number": 64,
                        "time": 156.25424479374993,
                        "value": 1
                    },
                    {
                        "number": 64,
                        "time": 157.34313422708325,
                        "value": 0
                    },
                    {
                        "number": 64,
                        "time": 157.68341217499992,
                        "value": 1
                    },
                    {
                        "number": 64,
                        "time": 158.67646822708326,
                        "value": 0
                    },
                    {
                        "number": 64,
                        "time": 159.0486906354166,
                        "value": 1
                    },
                    {
                        "number": 64,
                        "time": 160.0070244479166,
                        "value": 0
                    },
                    {
                        "number": 64,
                        "time": 160.33341349999992,
                        "value": 1
                    },
                    {
                        "number": 64,
                        "time": 162.66674799999993,
                        "value": 0
                    },
                    {
                        "number": 64,
                        "time": 162.81535918541658,
                        "value": 1
                    },
                    {
                        "number": 64,
                        "time": 165.34174933749992,
                        "value": 0
                    },
                    {
                        "number": 64,
                        "time": 165.77786066666658,
                        "value": 1
                    },
                    {
                        "number": 64,
                        "time": 166.6945277916666,
                        "value": 0
                    },
                    {
                        "number": 64,
                        "time": 167.29730587083324,
                        "value": 1
                    },
                    {
                        "number": 64,
                        "time": 168.02786179166657,
                        "value": 0
                    },
                    {
                        "number": 64,
                        "time": 168.6667509999999,
                        "value": 1
                    },
                    {
                        "number": 64,
                        "time": 169.36119579166655,
                        "value": 0
                    },
                    {
                        "number": 64,
                        "time": 169.9264738520832,
                        "value": 1
                    },
                    {
                        "number": 64,
                        "time": 172.37091951874987,
                        "value": 0
                    }
                ]
            },
            "id": 3,
            "name": "Pedal"
        },
        {
            "startTime": 0,
            "duration": 0,
            "length": 0,
            "notes": [],
            "controlChanges": {},
            "id": 4,
            "name": "Modest Mussorgski: Bilder einer Ausstellung (4)"
        },
        {
            "startTime": 0,
            "duration": 0,
            "length": 0,
            "notes": [],
            "controlChanges": {},
            "id": 5,
            "name": "Copyright  2000 by Bernd Krger"
        },
        {
            "startTime": 0,
            "duration": 0,
            "length": 0,
            "notes": [],
            "controlChanges": {},
            "id": 6,
            "name": "http://www.piano-midi.de"
        },
        {
            "startTime": 0,
            "duration": 0,
            "length": 0,
            "notes": [],
            "controlChanges": {},
            "id": 7,
            "name": "Edition: 2013-11-19"
        },
        {
            "startTime": 0,
            "duration": 0,
            "length": 0,
            "notes": [],
            "controlChanges": {},
            "id": 8,
            "name": "Spur 8"
        }
    ]
}