{
    "header": {
        "PPQ": 480,
        "timeSignature": [
            4,
            4
        ],
        "bpm": 72.99998296667064,
        "name": "1. Im Kloster"
    },
    "startTime": 0,
    "duration": 281.50691499999976,
    "tracks": [
        {
            "startTime": 0,
            "duration": 0,
            "length": 0,
            "notes": [],
            "controlChanges": {},
            "id": 0,
            "name": "1. Im Kloster"
        },
        {
            "startTime": 0.0017123291666666664,
            "duration": 276.57540699999964,
            "length": 312,
            "notes": [
                {
                    "name": "F#5",
                    "midi": 78,
                    "time": 0.0017123291666666664,
                    "velocity": 0.3464566929133858,
                    "duration": 0.41095899999999996
                },
                {
                    "name": "D#6",
                    "midi": 87,
                    "time": 0.0017123291666666664,
                    "velocity": 0.3464566929133858,
                    "duration": 0.41095899999999996
                },
                {
                    "name": "G#6",
                    "midi": 92,
                    "time": 0.0017123291666666664,
                    "velocity": 0.3858267716535433,
                    "duration": 0.41095899999999996
                },
                {
                    "name": "C4",
                    "midi": 60,
                    "time": 0.0017123291666666664,
                    "velocity": 0.4330708661417323,
                    "duration": 0.41095899999999996
                },
                {
                    "name": "C#4",
                    "midi": 61,
                    "time": 3.287672,
                    "velocity": 0.4330708661417323,
                    "duration": 0.4109590000000001
                },
                {
                    "name": "E6",
                    "midi": 88,
                    "time": 3.287672,
                    "velocity": 0.3858267716535433,
                    "duration": 0.4109590000000001
                },
                {
                    "name": "A5",
                    "midi": 81,
                    "time": 3.287672,
                    "velocity": 0.3464566929133858,
                    "duration": 0.4109590000000001
                },
                {
                    "name": "E5",
                    "midi": 76,
                    "time": 3.287672,
                    "velocity": 0.3464566929133858,
                    "duration": 0.4109590000000001
                },
                {
                    "name": "D#4",
                    "midi": 63,
                    "time": 6.575343999999999,
                    "velocity": 0.4330708661417323,
                    "duration": 0.4109590000000001
                },
                {
                    "name": "A4",
                    "midi": 69,
                    "time": 6.575343999999999,
                    "velocity": 0.3464566929133858,
                    "duration": 0.4109590000000001
                },
                {
                    "name": "F#5",
                    "midi": 78,
                    "time": 6.575343999999999,
                    "velocity": 0.3858267716535433,
                    "duration": 0.4109590000000001
                },
                {
                    "name": "B5",
                    "midi": 83,
                    "time": 6.575343999999999,
                    "velocity": 0.3858267716535433,
                    "duration": 0.4109590000000001
                },
                {
                    "name": "G#5",
                    "midi": 80,
                    "time": 9.863015999999998,
                    "velocity": 0.3858267716535433,
                    "duration": 0.4109590000000001
                },
                {
                    "name": "C#5",
                    "midi": 73,
                    "time": 9.863015999999998,
                    "velocity": 0.3464566929133858,
                    "duration": 0.4109590000000001
                },
                {
                    "name": "G#4",
                    "midi": 68,
                    "time": 9.863015999999998,
                    "velocity": 0.3464566929133858,
                    "duration": 0.4109590000000001
                },
                {
                    "name": "E4",
                    "midi": 64,
                    "time": 9.863015999999998,
                    "velocity": 0.4330708661417323,
                    "duration": 0.4109590000000001
                },
                {
                    "name": "G#5",
                    "midi": 80,
                    "time": 13.150687999999999,
                    "velocity": 0.3858267716535433,
                    "duration": 0.4109590000000001
                },
                {
                    "name": "D#5",
                    "midi": 75,
                    "time": 13.150687999999999,
                    "velocity": 0.3464566929133858,
                    "duration": 0.4109590000000001
                },
                {
                    "name": "F#4",
                    "midi": 66,
                    "time": 13.150687999999999,
                    "velocity": 0.3858267716535433,
                    "duration": 0.4109590000000001
                },
                {
                    "name": "E4",
                    "midi": 64,
                    "time": 16.43836,
                    "velocity": 0.3858267716535433,
                    "duration": 0.4109589999999983
                },
                {
                    "name": "A4",
                    "midi": 69,
                    "time": 16.43836,
                    "velocity": 0.3464566929133858,
                    "duration": 0.4109589999999983
                },
                {
                    "name": "E5",
                    "midi": 76,
                    "time": 16.43836,
                    "velocity": 0.3858267716535433,
                    "duration": 0.4109589999999983
                },
                {
                    "name": "A3",
                    "midi": 57,
                    "time": 19.726031999999996,
                    "velocity": 0.3858267716535433,
                    "duration": 0.4109589999999983
                },
                {
                    "name": "F#4",
                    "midi": 66,
                    "time": 19.726031999999996,
                    "velocity": 0.3464566929133858,
                    "duration": 0.4109589999999983
                },
                {
                    "name": "B4",
                    "midi": 71,
                    "time": 19.726031999999996,
                    "velocity": 0.3858267716535433,
                    "duration": 0.4109589999999983
                },
                {
                    "name": "G#3",
                    "midi": 56,
                    "time": 23.013703999999993,
                    "velocity": 0.3858267716535433,
                    "duration": 0.4109589999999983
                },
                {
                    "name": "C#4",
                    "midi": 61,
                    "time": 23.013703999999993,
                    "velocity": 0.3464566929133858,
                    "duration": 0.4109589999999983
                },
                {
                    "name": "G#4",
                    "midi": 68,
                    "time": 23.013703999999993,
                    "velocity": 0.3858267716535433,
                    "duration": 0.4109589999999983
                },
                {
                    "name": "A3",
                    "midi": 57,
                    "time": 26.30137599999999,
                    "velocity": 0.48031496062992124,
                    "duration": 0.4109589999999983
                },
                {
                    "name": "D4",
                    "midi": 62,
                    "time": 26.30137599999999,
                    "velocity": 0.48031496062992124,
                    "duration": 0.4109589999999983
                },
                {
                    "name": "F#4",
                    "midi": 66,
                    "time": 26.30137599999999,
                    "velocity": 0.5433070866141733,
                    "duration": 0.4109589999999983
                },
                {
                    "name": "F#3",
                    "midi": 54,
                    "time": 32.87671999999999,
                    "velocity": 0.3464566929133858,
                    "duration": 0.4109589999999983
                },
                {
                    "name": "A3",
                    "midi": 57,
                    "time": 32.87671999999999,
                    "velocity": 0.3464566929133858,
                    "duration": 0.4109589999999983
                },
                {
                    "name": "D#4",
                    "midi": 63,
                    "time": 32.87671999999999,
                    "velocity": 0.3858267716535433,
                    "duration": 0.4109589999999983
                },
                {
                    "name": "G#3",
                    "midi": 56,
                    "time": 39.45206399999999,
                    "velocity": 0.3464566929133858,
                    "duration": 0.4109589999999983
                },
                {
                    "name": "C#4",
                    "midi": 61,
                    "time": 39.45206399999999,
                    "velocity": 0.3858267716535433,
                    "duration": 0.4109589999999983
                },
                {
                    "name": "F#3",
                    "midi": 54,
                    "time": 42.73973599999999,
                    "velocity": 0.4645669291338583,
                    "duration": 0.4109589999999983
                },
                {
                    "name": "B3",
                    "midi": 59,
                    "time": 42.73973599999999,
                    "velocity": 0.5275590551181102,
                    "duration": 0.4109589999999983
                },
                {
                    "name": "G#3",
                    "midi": 56,
                    "time": 46.027407999999994,
                    "velocity": 0.3464566929133858,
                    "duration": 0.4109589999999983
                },
                {
                    "name": "C#4",
                    "midi": 61,
                    "time": 46.027407999999994,
                    "velocity": 0.3858267716535433,
                    "duration": 0.4109589999999983
                },
                {
                    "name": "F#3",
                    "midi": 54,
                    "time": 49.315079999999995,
                    "velocity": 0.47244094488188976,
                    "duration": 0.4109589999999983
                },
                {
                    "name": "B3",
                    "midi": 59,
                    "time": 49.315079999999995,
                    "velocity": 0.5354330708661418,
                    "duration": 0.4109589999999983
                },
                {
                    "name": "G#3",
                    "midi": 56,
                    "time": 52.602751999999995,
                    "velocity": 0.3464566929133858,
                    "duration": 0.4109589999999983
                },
                {
                    "name": "C#4",
                    "midi": 61,
                    "time": 52.602751999999995,
                    "velocity": 0.3858267716535433,
                    "duration": 0.4109589999999983
                },
                {
                    "name": "G#4",
                    "midi": 68,
                    "time": 61.64384999999999,
                    "velocity": 0.4015748031496063,
                    "duration": 0.8561645833333316
                },
                {
                    "name": "C#5",
                    "midi": 73,
                    "time": 62.46576799999999,
                    "velocity": 0.4330708661417323,
                    "duration": 0.8561645833333387
                },
                {
                    "name": "D#5",
                    "midi": 75,
                    "time": 63.287685999999994,
                    "velocity": 0.41732283464566927,
                    "duration": 0.8561645833333245
                },
                {
                    "name": "E5",
                    "midi": 76,
                    "time": 64.10960399999999,
                    "velocity": 0.4409448818897638,
                    "duration": 0.8219179999999966
                },
                {
                    "name": "D#5",
                    "midi": 75,
                    "time": 64.93152199999999,
                    "velocity": 0.4566929133858268,
                    "duration": 0.44520558333333327
                },
                {
                    "name": "C#5",
                    "midi": 73,
                    "time": 65.34248099999999,
                    "velocity": 0.4094488188976378,
                    "duration": 0.44520558333331905
                },
                {
                    "name": "B4",
                    "midi": 71,
                    "time": 65.75343999999998,
                    "velocity": 0.4409448818897638,
                    "duration": 0.8219179999999966
                },
                {
                    "name": "G#4",
                    "midi": 68,
                    "time": 66.57535799999998,
                    "velocity": 0.3937007874015748,
                    "duration": 0.8561645833333245
                },
                {
                    "name": "A4",
                    "midi": 69,
                    "time": 67.39727599999998,
                    "velocity": 0.3937007874015748,
                    "duration": 0.8561645833333245
                },
                {
                    "name": "B4",
                    "midi": 71,
                    "time": 68.21919399999997,
                    "velocity": 0.3700787401574803,
                    "duration": 0.8561645833333245
                },
                {
                    "name": "C#5",
                    "midi": 73,
                    "time": 69.04111199999997,
                    "velocity": 0.4330708661417323,
                    "duration": 3.2876720000000006
                },
                {
                    "name": "G#5",
                    "midi": 80,
                    "time": 72.32878399999997,
                    "velocity": 0.4330708661417323,
                    "duration": 3.2876720000000006
                },
                {
                    "name": "A4",
                    "midi": 69,
                    "time": 75.61645599999997,
                    "velocity": 0.3464566929133858,
                    "duration": 3.2876719999999864
                },
                {
                    "name": "F#5",
                    "midi": 78,
                    "time": 75.61645599999997,
                    "velocity": 0.4409448818897638,
                    "duration": 0.8561645833333245
                },
                {
                    "name": "G#5",
                    "midi": 80,
                    "time": 76.43837399999997,
                    "velocity": 0.44881889763779526,
                    "duration": 0.8561645833333245
                },
                {
                    "name": "A5",
                    "midi": 81,
                    "time": 77.26029199999996,
                    "velocity": 0.4645669291338583,
                    "duration": 1.6438359999999932
                },
                {
                    "name": "G#5",
                    "midi": 80,
                    "time": 78.90412799999996,
                    "velocity": 0.4409448818897638,
                    "duration": 0.8561645833333245
                },
                {
                    "name": "B4",
                    "midi": 71,
                    "time": 78.90412799999996,
                    "velocity": 0.3464566929133858,
                    "duration": 3.2876719999999864
                },
                {
                    "name": "F#5",
                    "midi": 78,
                    "time": 79.72604599999995,
                    "velocity": 0.3779527559055118,
                    "duration": 0.8561645833333245
                },
                {
                    "name": "E5",
                    "midi": 76,
                    "time": 80.54796399999995,
                    "velocity": 0.4015748031496063,
                    "duration": 0.8219179999999966
                },
                {
                    "name": "G#5",
                    "midi": 80,
                    "time": 81.36988199999995,
                    "velocity": 0.33070866141732286,
                    "duration": 0.8219179999999966
                },
                {
                    "name": "C5",
                    "midi": 72,
                    "time": 82.19179999999994,
                    "velocity": 0.36220472440944884,
                    "duration": 4.109589999999983
                },
                {
                    "name": "F#5",
                    "midi": 78,
                    "time": 82.19179999999994,
                    "velocity": 0.4330708661417323,
                    "duration": 0.8561645833333245
                },
                {
                    "name": "G#5",
                    "midi": 80,
                    "time": 83.01371799999994,
                    "velocity": 0.3700787401574803,
                    "duration": 0.8561645833333245
                },
                {
                    "name": "F#5",
                    "midi": 78,
                    "time": 83.83563599999994,
                    "velocity": 0.3858267716535433,
                    "duration": 0.8561645833333245
                },
                {
                    "name": "E5",
                    "midi": 76,
                    "time": 84.65755399999993,
                    "velocity": 0.3464566929133858,
                    "duration": 0.8561645833333245
                },
                {
                    "name": "D#5",
                    "midi": 75,
                    "time": 85.47947199999993,
                    "velocity": 0.4094488188976378,
                    "duration": 0.8219179999999966
                },
                {
                    "name": "C#5",
                    "midi": 73,
                    "time": 86.30138999999993,
                    "velocity": 0.4094488188976378,
                    "duration": 0.8561645833333245
                },
                {
                    "name": "C5",
                    "midi": 72,
                    "time": 87.12330799999992,
                    "velocity": 0.36220472440944884,
                    "duration": 1.6438359999999932
                },
                {
                    "name": "D#5",
                    "midi": 75,
                    "time": 87.12330799999992,
                    "velocity": 0.4409448818897638,
                    "duration": 0.8561645833333245
                },
                {
                    "name": "E5",
                    "midi": 76,
                    "time": 87.94522599999992,
                    "velocity": 0.3937007874015748,
                    "duration": 0.8219179999999966
                },
                {
                    "name": "C#5",
                    "midi": 73,
                    "time": 88.76714399999992,
                    "velocity": 0.44881889763779526,
                    "duration": 4.109589999999997
                },
                {
                    "name": "C#5",
                    "midi": 73,
                    "time": 92.87673399999991,
                    "velocity": 0.4094488188976378,
                    "duration": 0.8561645833333245
                },
                {
                    "name": "C5",
                    "midi": 72,
                    "time": 93.69865199999991,
                    "velocity": 0.36220472440944884,
                    "duration": 1.6438359999999932
                },
                {
                    "name": "D#5",
                    "midi": 75,
                    "time": 93.69865199999991,
                    "velocity": 0.4409448818897638,
                    "duration": 0.8561645833333245
                },
                {
                    "name": "E5",
                    "midi": 76,
                    "time": 94.5205699999999,
                    "velocity": 0.4015748031496063,
                    "duration": 0.8219179999999966
                },
                {
                    "name": "C#5",
                    "midi": 73,
                    "time": 95.3424879999999,
                    "velocity": 0.4409448818897638,
                    "duration": 4.931507999999994
                },
                {
                    "name": "C5",
                    "midi": 72,
                    "time": 100.2739959999999,
                    "velocity": 0.3858267716535433,
                    "duration": 1.6438359999999932
                },
                {
                    "name": "B4",
                    "midi": 71,
                    "time": 101.91783199999989,
                    "velocity": 0.3937007874015748,
                    "duration": 1.6438359999999932
                },
                {
                    "name": "A4",
                    "midi": 69,
                    "time": 103.56166799999988,
                    "velocity": 0.3700787401574803,
                    "duration": 1.6438359999999932
                },
                {
                    "name": "D#4",
                    "midi": 63,
                    "time": 105.20550399999988,
                    "velocity": 0.31496062992125984,
                    "duration": 3.2876720000000006
                },
                {
                    "name": "G#4",
                    "midi": 68,
                    "time": 105.20550399999988,
                    "velocity": 0.31496062992125984,
                    "duration": 3.2876720000000006
                },
                {
                    "name": "C#3",
                    "midi": 49,
                    "time": 108.49317599999988,
                    "velocity": 0.3858267716535433,
                    "duration": 3.2876720000000006
                },
                {
                    "name": "C#4",
                    "midi": 61,
                    "time": 108.49317599999988,
                    "velocity": 0.44881889763779526,
                    "duration": 3.2876720000000006
                },
                {
                    "name": "G#4",
                    "midi": 68,
                    "time": 111.78084799999988,
                    "velocity": 0.49606299212598426,
                    "duration": 3.2876720000000006
                },
                {
                    "name": "G#3",
                    "midi": 56,
                    "time": 111.78084799999988,
                    "velocity": 0.44881889763779526,
                    "duration": 3.2876720000000006
                },
                {
                    "name": "A3",
                    "midi": 57,
                    "time": 115.06851999999988,
                    "velocity": 0.4566929133858268,
                    "duration": 3.2876720000000006
                },
                {
                    "name": "A4",
                    "midi": 69,
                    "time": 115.06851999999988,
                    "velocity": 0.5196850393700787,
                    "duration": 3.2876720000000006
                },
                {
                    "name": "G#4",
                    "midi": 68,
                    "time": 118.35619199999988,
                    "velocity": 0.4881889763779528,
                    "duration": 3.2876720000000006
                },
                {
                    "name": "E5",
                    "midi": 76,
                    "time": 118.35619199999988,
                    "velocity": 0.5669291338582677,
                    "duration": 3.2876720000000006
                },
                {
                    "name": "E4",
                    "midi": 64,
                    "time": 118.35619199999988,
                    "velocity": 0.4881889763779528,
                    "duration": 3.2876720000000006
                },
                {
                    "name": "C#5",
                    "midi": 73,
                    "time": 121.64386399999988,
                    "velocity": 0.5905511811023622,
                    "duration": 3.2876720000000006
                },
                {
                    "name": "F#4",
                    "midi": 66,
                    "time": 121.64386399999988,
                    "velocity": 0.5196850393700787,
                    "duration": 3.2876720000000006
                },
                {
                    "name": "D#4",
                    "midi": 63,
                    "time": 121.64386399999988,
                    "velocity": 0.5196850393700787,
                    "duration": 3.2876720000000006
                },
                {
                    "name": "D#5",
                    "midi": 75,
                    "time": 121.64386399999988,
                    "velocity": 0.5905511811023622,
                    "duration": 3.2876720000000006
                },
                {
                    "name": "C#5",
                    "midi": 73,
                    "time": 124.93153599999988,
                    "velocity": 0.5433070866141733,
                    "duration": 3.2876719999999864
                },
                {
                    "name": "G#5",
                    "midi": 80,
                    "time": 124.93153599999988,
                    "velocity": 0.6299212598425197,
                    "duration": 3.2876719999999864
                },
                {
                    "name": "G#4",
                    "midi": 68,
                    "time": 124.93153599999988,
                    "velocity": 0.5433070866141733,
                    "duration": 3.2876719999999864
                },
                {
                    "name": "F#5",
                    "midi": 78,
                    "time": 128.21920799999987,
                    "velocity": 0.6377952755905512,
                    "duration": 1.6438359999999932
                },
                {
                    "name": "C#5",
                    "midi": 73,
                    "time": 128.21920799999987,
                    "velocity": 0.5748031496062992,
                    "duration": 1.6438359999999932
                },
                {
                    "name": "A4",
                    "midi": 69,
                    "time": 128.21920799999987,
                    "velocity": 0.5748031496062992,
                    "duration": 1.6438359999999932
                },
                {
                    "name": "A5",
                    "midi": 81,
                    "time": 128.21920799999987,
                    "velocity": 0.6377952755905512,
                    "duration": 1.6438359999999932
                },
                {
                    "name": "C#5",
                    "midi": 73,
                    "time": 129.86304399999986,
                    "velocity": 0.6220472440944882,
                    "duration": 0.8219180000000108
                },
                {
                    "name": "F#5",
                    "midi": 78,
                    "time": 129.86304399999986,
                    "velocity": 0.6220472440944882,
                    "duration": 0.8219180000000108
                },
                {
                    "name": "A5",
                    "midi": 81,
                    "time": 129.86304399999986,
                    "velocity": 0.6929133858267716,
                    "duration": 0.8219180000000108
                },
                {
                    "name": "C#6",
                    "midi": 85,
                    "time": 129.86304399999986,
                    "velocity": 0.6929133858267716,
                    "duration": 0.8219180000000108
                },
                {
                    "name": "D#6",
                    "midi": 87,
                    "time": 130.68496199999987,
                    "velocity": 0.6929133858267716,
                    "duration": 0.8219180000000108
                },
                {
                    "name": "C#6",
                    "midi": 85,
                    "time": 130.68496199999987,
                    "velocity": 0.6929133858267716,
                    "duration": 0.8219180000000108
                },
                {
                    "name": "F#5",
                    "midi": 78,
                    "time": 130.68496199999987,
                    "velocity": 0.6141732283464567,
                    "duration": 0.8219180000000108
                },
                {
                    "name": "D#5",
                    "midi": 75,
                    "time": 130.68496199999987,
                    "velocity": 0.6141732283464567,
                    "duration": 0.8219180000000108
                },
                {
                    "name": "E5",
                    "midi": 76,
                    "time": 131.50687999999988,
                    "velocity": 0.6299212598425197,
                    "duration": 1.6438359999999932
                },
                {
                    "name": "G#5",
                    "midi": 80,
                    "time": 131.50687999999988,
                    "velocity": 0.6299212598425197,
                    "duration": 1.6438359999999932
                },
                {
                    "name": "C#6",
                    "midi": 85,
                    "time": 131.50687999999988,
                    "velocity": 0.7165354330708661,
                    "duration": 1.6438359999999932
                },
                {
                    "name": "E6",
                    "midi": 88,
                    "time": 131.50687999999988,
                    "velocity": 0.7165354330708661,
                    "duration": 1.6438359999999932
                },
                {
                    "name": "G#6",
                    "midi": 92,
                    "time": 133.15071599999987,
                    "velocity": 0.7244094488188977,
                    "duration": 1.6438359999999932
                },
                {
                    "name": "C#6",
                    "midi": 85,
                    "time": 133.15071599999987,
                    "velocity": 0.7244094488188977,
                    "duration": 1.6438359999999932
                },
                {
                    "name": "G#5",
                    "midi": 80,
                    "time": 133.15071599999987,
                    "velocity": 0.6456692913385826,
                    "duration": 1.6438359999999932
                },
                {
                    "name": "A6",
                    "midi": 93,
                    "time": 134.79455199999987,
                    "velocity": 0.7244094488188977,
                    "duration": 0.8219180000000108
                },
                {
                    "name": "E6",
                    "midi": 88,
                    "time": 134.79455199999987,
                    "velocity": 0.6456692913385826,
                    "duration": 0.8219180000000108
                },
                {
                    "name": "A5",
                    "midi": 81,
                    "time": 134.79455199999987,
                    "velocity": 0.6456692913385826,
                    "duration": 0.8219180000000108
                },
                {
                    "name": "E6",
                    "midi": 88,
                    "time": 135.61646999999988,
                    "velocity": 0.5905511811023622,
                    "duration": 0.8219180000000108
                },
                {
                    "name": "G#6",
                    "midi": 92,
                    "time": 135.61646999999988,
                    "velocity": 0.6614173228346457,
                    "duration": 0.8219180000000108
                },
                {
                    "name": "G#5",
                    "midi": 80,
                    "time": 135.61646999999988,
                    "velocity": 0.5905511811023622,
                    "duration": 0.8219180000000108
                },
                {
                    "name": "F#6",
                    "midi": 90,
                    "time": 136.4383879999999,
                    "velocity": 0.6614173228346457,
                    "duration": 0.8219180000000108
                },
                {
                    "name": "E6",
                    "midi": 88,
                    "time": 136.4383879999999,
                    "velocity": 0.5905511811023622,
                    "duration": 0.8219180000000108
                },
                {
                    "name": "F#5",
                    "midi": 78,
                    "time": 136.4383879999999,
                    "velocity": 0.5905511811023622,
                    "duration": 0.8219180000000108
                },
                {
                    "name": "E6",
                    "midi": 88,
                    "time": 137.2603059999999,
                    "velocity": 0.6614173228346457,
                    "duration": 0.4109589999999912
                },
                {
                    "name": "E5",
                    "midi": 76,
                    "time": 137.2603059999999,
                    "velocity": 0.5905511811023622,
                    "duration": 0.4109589999999912
                },
                {
                    "name": "F#6",
                    "midi": 90,
                    "time": 137.6712649999999,
                    "velocity": 0.6614173228346457,
                    "duration": 0.3082192500000076
                },
                {
                    "name": "F#5",
                    "midi": 78,
                    "time": 137.6712649999999,
                    "velocity": 0.5905511811023622,
                    "duration": 0.3082192500000076
                },
                {
                    "name": "G#6",
                    "midi": 92,
                    "time": 138.0822239999999,
                    "velocity": 0.7244094488188977,
                    "duration": 1.6438359999999932
                },
                {
                    "name": "E6",
                    "midi": 88,
                    "time": 138.0822239999999,
                    "velocity": 0.6456692913385826,
                    "duration": 1.6438359999999932
                },
                {
                    "name": "G#5",
                    "midi": 80,
                    "time": 138.0822239999999,
                    "velocity": 0.6456692913385826,
                    "duration": 1.6438359999999932
                },
                {
                    "name": "C#6",
                    "midi": 85,
                    "time": 139.7260599999999,
                    "velocity": 0.7165354330708661,
                    "duration": 1.6438359999999932
                },
                {
                    "name": "G#5",
                    "midi": 80,
                    "time": 139.7260599999999,
                    "velocity": 0.6377952755905512,
                    "duration": 1.6438359999999932
                },
                {
                    "name": "C#5",
                    "midi": 73,
                    "time": 139.7260599999999,
                    "velocity": 0.6377952755905512,
                    "duration": 1.6438359999999932
                },
                {
                    "name": "F#6",
                    "midi": 90,
                    "time": 141.3698959999999,
                    "velocity": 0.7244094488188977,
                    "duration": 0.8219180000000108
                },
                {
                    "name": "C#6",
                    "midi": 85,
                    "time": 141.3698959999999,
                    "velocity": 0.6456692913385826,
                    "duration": 0.8219180000000108
                },
                {
                    "name": "F#5",
                    "midi": 78,
                    "time": 141.3698959999999,
                    "velocity": 0.6456692913385826,
                    "duration": 0.8219180000000108
                },
                {
                    "name": "C#6",
                    "midi": 85,
                    "time": 142.1918139999999,
                    "velocity": 0.6299212598425197,
                    "duration": 0.8219180000000108
                },
                {
                    "name": "E6",
                    "midi": 88,
                    "time": 142.1918139999999,
                    "velocity": 0.7007874015748031,
                    "duration": 0.8219180000000108
                },
                {
                    "name": "E5",
                    "midi": 76,
                    "time": 142.1918139999999,
                    "velocity": 0.6299212598425197,
                    "duration": 0.8219180000000108
                },
                {
                    "name": "D#6",
                    "midi": 87,
                    "time": 143.01373199999992,
                    "velocity": 0.7244094488188977,
                    "duration": 0.8219180000000108
                },
                {
                    "name": "C#6",
                    "midi": 85,
                    "time": 143.01373199999992,
                    "velocity": 0.6456692913385826,
                    "duration": 0.8219180000000108
                },
                {
                    "name": "D#5",
                    "midi": 75,
                    "time": 143.01373199999992,
                    "velocity": 0.6456692913385826,
                    "duration": 0.8219180000000108
                },
                {
                    "name": "E6",
                    "midi": 88,
                    "time": 143.83564999999993,
                    "velocity": 0.6614173228346457,
                    "duration": 0.8219180000000108
                },
                {
                    "name": "C6",
                    "midi": 84,
                    "time": 143.83564999999993,
                    "velocity": 0.5905511811023622,
                    "duration": 0.8219180000000108
                },
                {
                    "name": "E5",
                    "midi": 76,
                    "time": 143.83564999999993,
                    "velocity": 0.5905511811023622,
                    "duration": 0.8219180000000108
                },
                {
                    "name": "C#6",
                    "midi": 85,
                    "time": 144.65756799999994,
                    "velocity": 0.7244094488188977,
                    "duration": 3.2876719999999864
                },
                {
                    "name": "A5",
                    "midi": 81,
                    "time": 144.65756799999994,
                    "velocity": 0.6456692913385826,
                    "duration": 3.2876719999999864
                },
                {
                    "name": "C#5",
                    "midi": 73,
                    "time": 144.65756799999994,
                    "velocity": 0.6456692913385826,
                    "duration": 3.2876719999999864
                },
                {
                    "name": "F5",
                    "midi": 77,
                    "time": 147.94523999999993,
                    "velocity": 0.6062992125984252,
                    "duration": 1.6438360000000216
                },
                {
                    "name": "B5",
                    "midi": 83,
                    "time": 147.94523999999993,
                    "velocity": 0.7401574803149606,
                    "duration": 0.8219180000000108
                },
                {
                    "name": "B4",
                    "midi": 71,
                    "time": 147.94523999999993,
                    "velocity": 0.6929133858267716,
                    "duration": 0.8219180000000108
                },
                {
                    "name": "C#6",
                    "midi": 85,
                    "time": 148.76715799999994,
                    "velocity": 0.7007874015748031,
                    "duration": 0.8219180000000108
                },
                {
                    "name": "C#5",
                    "midi": 73,
                    "time": 148.76715799999994,
                    "velocity": 0.6299212598425197,
                    "duration": 0.8219180000000108
                },
                {
                    "name": "G#5",
                    "midi": 80,
                    "time": 149.58907599999995,
                    "velocity": 0.6062992125984252,
                    "duration": 1.6438360000000216
                },
                {
                    "name": "F5",
                    "midi": 77,
                    "time": 149.58907599999995,
                    "velocity": 0.6062992125984252,
                    "duration": 1.6438360000000216
                },
                {
                    "name": "D6",
                    "midi": 86,
                    "time": 149.58907599999995,
                    "velocity": 0.7559055118110236,
                    "duration": 0.8219180000000108
                },
                {
                    "name": "D5",
                    "midi": 74,
                    "time": 149.58907599999995,
                    "velocity": 0.7086614173228346,
                    "duration": 0.8219180000000108
                },
                {
                    "name": "C#6",
                    "midi": 85,
                    "time": 150.41099399999996,
                    "velocity": 0.7165354330708661,
                    "duration": 0.4109589999999912
                },
                {
                    "name": "C#5",
                    "midi": 73,
                    "time": 150.41099399999996,
                    "velocity": 0.6456692913385826,
                    "duration": 0.4109589999999912
                },
                {
                    "name": "B5",
                    "midi": 83,
                    "time": 150.82195299999995,
                    "velocity": 0.6692913385826772,
                    "duration": 0.3082192500000076
                },
                {
                    "name": "B4",
                    "midi": 71,
                    "time": 150.82195299999995,
                    "velocity": 0.6220472440944882,
                    "duration": 0.3082192500000076
                },
                {
                    "name": "C#5",
                    "midi": 73,
                    "time": 151.23291199999997,
                    "velocity": 0.6062992125984252,
                    "duration": 3.2876720000000432
                },
                {
                    "name": "F#5",
                    "midi": 78,
                    "time": 151.23291199999997,
                    "velocity": 0.6062992125984252,
                    "duration": 1.6438360000000216
                },
                {
                    "name": "A5",
                    "midi": 81,
                    "time": 151.23291199999997,
                    "velocity": 0.7401574803149606,
                    "duration": 0.8219180000000108
                },
                {
                    "name": "A4",
                    "midi": 69,
                    "time": 151.23291199999997,
                    "velocity": 0.6771653543307087,
                    "duration": 0.8219180000000108
                },
                {
                    "name": "F#5",
                    "midi": 78,
                    "time": 152.05482999999998,
                    "velocity": 0.7007874015748031,
                    "duration": 2.4657540000000324
                },
                {
                    "name": "F#4",
                    "midi": 66,
                    "time": 152.05482999999998,
                    "velocity": 0.6377952755905512,
                    "duration": 0.8219180000000108
                },
                {
                    "name": "G#5",
                    "midi": 80,
                    "time": 152.876748,
                    "velocity": 0.6929133858267716,
                    "duration": 0.8219180000000108
                },
                {
                    "name": "G#4",
                    "midi": 68,
                    "time": 152.876748,
                    "velocity": 0.6141732283464567,
                    "duration": 0.8219180000000108
                },
                {
                    "name": "A5",
                    "midi": 81,
                    "time": 153.698666,
                    "velocity": 0.6929133858267716,
                    "duration": 0.7191782499999988
                },
                {
                    "name": "A4",
                    "midi": 69,
                    "time": 153.698666,
                    "velocity": 0.6141732283464567,
                    "duration": 0.7191782499999988
                },
                {
                    "name": "A4",
                    "midi": 69,
                    "time": 154.520584,
                    "velocity": 0.5826771653543307,
                    "duration": 2.4657540000000324
                },
                {
                    "name": "F#5",
                    "midi": 78,
                    "time": 154.520584,
                    "velocity": 0.7165354330708661,
                    "duration": 0.8219180000000108
                },
                {
                    "name": "F#4",
                    "midi": 66,
                    "time": 154.520584,
                    "velocity": 0.6535433070866141,
                    "duration": 0.8219180000000108
                },
                {
                    "name": "D#5",
                    "midi": 75,
                    "time": 154.54455660833335,
                    "velocity": 0.5826771653543307,
                    "duration": 3.2876720000000432
                },
                {
                    "name": "G#5",
                    "midi": 80,
                    "time": 155.34250200000002,
                    "velocity": 0.6929133858267716,
                    "duration": 0.8219180000000108
                },
                {
                    "name": "G#4",
                    "midi": 68,
                    "time": 155.34250200000002,
                    "velocity": 0.6220472440944882,
                    "duration": 0.8219180000000108
                },
                {
                    "name": "A5",
                    "midi": 81,
                    "time": 156.16442000000004,
                    "velocity": 0.7244094488188977,
                    "duration": 0.8219180000000108
                },
                {
                    "name": "A4",
                    "midi": 69,
                    "time": 156.16442000000004,
                    "velocity": 0.6771653543307087,
                    "duration": 1.6438360000000216
                },
                {
                    "name": "G#5",
                    "midi": 80,
                    "time": 156.98633800000005,
                    "velocity": 0.7086614173228346,
                    "duration": 0.4109589999999912
                },
                {
                    "name": "G#4",
                    "midi": 68,
                    "time": 156.98633800000005,
                    "velocity": 0.6377952755905512,
                    "duration": 0.4109589999999912
                },
                {
                    "name": "F#5",
                    "midi": 78,
                    "time": 157.39729700000004,
                    "velocity": 0.7086614173228346,
                    "duration": 0.3082192500000076
                },
                {
                    "name": "F#4",
                    "midi": 66,
                    "time": 157.39729700000004,
                    "velocity": 0.6377952755905512,
                    "duration": 0.3082192500000076
                },
                {
                    "name": "G#4",
                    "midi": 68,
                    "time": 157.80825600000006,
                    "velocity": 0.5669291338582677,
                    "duration": 3.2876720000000432
                },
                {
                    "name": "C#5",
                    "midi": 73,
                    "time": 157.80825600000006,
                    "velocity": 0.5669291338582677,
                    "duration": 1.6438360000000216
                },
                {
                    "name": "E5",
                    "midi": 76,
                    "time": 157.80825600000006,
                    "velocity": 0.6929133858267716,
                    "duration": 0.8219180000000108
                },
                {
                    "name": "E4",
                    "midi": 64,
                    "time": 157.80825600000006,
                    "velocity": 0.6377952755905512,
                    "duration": 0.8219180000000108
                },
                {
                    "name": "C#5",
                    "midi": 73,
                    "time": 158.63017400000007,
                    "velocity": 0.6771653543307087,
                    "duration": 2.4657540000000324
                },
                {
                    "name": "C#4",
                    "midi": 61,
                    "time": 158.63017400000007,
                    "velocity": 0.6220472440944882,
                    "duration": 0.8219180000000108
                },
                {
                    "name": "D#5",
                    "midi": 75,
                    "time": 159.45209200000008,
                    "velocity": 0.6535433070866141,
                    "duration": 0.8219180000000108
                },
                {
                    "name": "D#4",
                    "midi": 63,
                    "time": 159.45209200000008,
                    "velocity": 0.5905511811023622,
                    "duration": 0.8219180000000108
                },
                {
                    "name": "E5",
                    "midi": 76,
                    "time": 160.2740100000001,
                    "velocity": 0.6535433070866141,
                    "duration": 0.7191782499999988
                },
                {
                    "name": "E4",
                    "midi": 64,
                    "time": 160.2740100000001,
                    "velocity": 0.5905511811023622,
                    "duration": 0.7191782499999988
                },
                {
                    "name": "E4",
                    "midi": 64,
                    "time": 161.0959280000001,
                    "velocity": 0.6377952755905512,
                    "duration": 1.6438359999999932
                },
                {
                    "name": "A#4",
                    "midi": 70,
                    "time": 161.0959280000001,
                    "velocity": 0.6377952755905512,
                    "duration": 1.6438359999999932
                },
                {
                    "name": "C#5",
                    "midi": 73,
                    "time": 161.0959280000001,
                    "velocity": 0.7165354330708661,
                    "duration": 1.6438359999999932
                },
                {
                    "name": "E5",
                    "midi": 76,
                    "time": 161.0959280000001,
                    "velocity": 0.7874015748031497,
                    "duration": 1.6438359999999932
                },
                {
                    "name": "D#4",
                    "midi": 63,
                    "time": 162.7397640000001,
                    "velocity": 0.5196850393700787,
                    "duration": 0.8219180000000108
                },
                {
                    "name": "D#5",
                    "midi": 75,
                    "time": 162.7397640000001,
                    "velocity": 0.5196850393700787,
                    "duration": 0.8219180000000108
                },
                {
                    "name": "C#4",
                    "midi": 61,
                    "time": 163.5616820000001,
                    "velocity": 0.4645669291338583,
                    "duration": 0.7191782499999988
                },
                {
                    "name": "C#5",
                    "midi": 73,
                    "time": 163.5616820000001,
                    "velocity": 0.4645669291338583,
                    "duration": 0.7191782499999988
                },
                {
                    "name": "D#4",
                    "midi": 63,
                    "time": 164.38360000000011,
                    "velocity": 0.3858267716535433,
                    "duration": 1.6438359999999932
                },
                {
                    "name": "G#4",
                    "midi": 68,
                    "time": 164.38360000000011,
                    "velocity": 0.4094488188976378,
                    "duration": 1.6438359999999932
                },
                {
                    "name": "C#5",
                    "midi": 73,
                    "time": 164.38360000000011,
                    "velocity": 0.4881889763779528,
                    "duration": 0.8219180000000108
                },
                {
                    "name": "C5",
                    "midi": 72,
                    "time": 165.20551800000013,
                    "velocity": 0.4566929133858268,
                    "duration": 0.4109589999999912
                },
                {
                    "name": "A#4",
                    "midi": 70,
                    "time": 165.61647700000012,
                    "velocity": 0.41732283464566927,
                    "duration": 0.4109589999999912
                },
                {
                    "name": "D#4",
                    "midi": 63,
                    "time": 166.0274360000001,
                    "velocity": 0.3858267716535433,
                    "duration": 1.6438359999999932
                },
                {
                    "name": "G#4",
                    "midi": 68,
                    "time": 166.0274360000001,
                    "velocity": 0.3858267716535433,
                    "duration": 1.6438359999999932
                },
                {
                    "name": "C5",
                    "midi": 72,
                    "time": 166.0274360000001,
                    "velocity": 0.49606299212598426,
                    "duration": 1.232877000000002
                },
                {
                    "name": "C#5",
                    "midi": 73,
                    "time": 167.2603130000001,
                    "velocity": 0.48031496062992124,
                    "duration": 0.4109589999999912
                },
                {
                    "name": "C#4",
                    "midi": 61,
                    "time": 167.6712720000001,
                    "velocity": 0.3464566929133858,
                    "duration": 1.6438359999999932
                },
                {
                    "name": "G#4",
                    "midi": 68,
                    "time": 167.6712720000001,
                    "velocity": 0.3464566929133858,
                    "duration": 1.6438359999999932
                },
                {
                    "name": "C#5",
                    "midi": 73,
                    "time": 167.6712720000001,
                    "velocity": 0.3858267716535433,
                    "duration": 1.6438359999999932
                },
                {
                    "name": "G#4",
                    "midi": 68,
                    "time": 170.1370260000001,
                    "velocity": 0.3464566929133858,
                    "duration": 0.8561645833333387
                },
                {
                    "name": "C#5",
                    "midi": 73,
                    "time": 170.95894400000012,
                    "velocity": 0.3779527559055118,
                    "duration": 0.8561645833333102
                },
                {
                    "name": "D#5",
                    "midi": 75,
                    "time": 171.7808620000001,
                    "velocity": 0.3700787401574803,
                    "duration": 0.8561645833333102
                },
                {
                    "name": "E5",
                    "midi": 76,
                    "time": 172.60278000000008,
                    "velocity": 0.3858267716535433,
                    "duration": 0.8219179999999824
                },
                {
                    "name": "D#5",
                    "midi": 75,
                    "time": 173.42469800000006,
                    "velocity": 0.4015748031496063,
                    "duration": 0.44520558333331905
                },
                {
                    "name": "C#5",
                    "midi": 73,
                    "time": 173.83565700000005,
                    "velocity": 0.36220472440944884,
                    "duration": 0.44520558333331905
                },
                {
                    "name": "B4",
                    "midi": 71,
                    "time": 174.24661600000005,
                    "velocity": 0.3858267716535433,
                    "duration": 0.8219179999999824
                },
                {
                    "name": "G#4",
                    "midi": 68,
                    "time": 175.06853400000003,
                    "velocity": 0.3464566929133858,
                    "duration": 0.8561645833333387
                },
                {
                    "name": "A4",
                    "midi": 69,
                    "time": 175.89045200000004,
                    "velocity": 0.3464566929133858,
                    "duration": 0.8561645833333102
                },
                {
                    "name": "B4",
                    "midi": 71,
                    "time": 176.71237000000002,
                    "velocity": 0.31496062992125984,
                    "duration": 0.8561645833333102
                },
                {
                    "name": "C#5",
                    "midi": 73,
                    "time": 177.534288,
                    "velocity": 0.3779527559055118,
                    "duration": 3.2876719999999864
                },
                {
                    "name": "G#5",
                    "midi": 80,
                    "time": 180.82196,
                    "velocity": 0.3779527559055118,
                    "duration": 3.2876719999999864
                },
                {
                    "name": "A4",
                    "midi": 69,
                    "time": 184.10963199999998,
                    "velocity": 0.2992125984251969,
                    "duration": 3.2876719999999864
                },
                {
                    "name": "F#5",
                    "midi": 78,
                    "time": 184.10963199999998,
                    "velocity": 0.3858267716535433,
                    "duration": 0.8561645833333387
                },
                {
                    "name": "G#5",
                    "midi": 80,
                    "time": 184.93155,
                    "velocity": 0.3937007874015748,
                    "duration": 0.8561645833333102
                },
                {
                    "name": "A5",
                    "midi": 81,
                    "time": 185.75346799999997,
                    "velocity": 0.4015748031496063,
                    "duration": 1.6438359999999932
                },
                {
                    "name": "G#5",
                    "midi": 80,
                    "time": 187.39730399999996,
                    "velocity": 0.3858267716535433,
                    "duration": 0.8561645833333387
                },
                {
                    "name": "B4",
                    "midi": 71,
                    "time": 187.39730399999996,
                    "velocity": 0.2992125984251969,
                    "duration": 3.2876719999999864
                },
                {
                    "name": "F#5",
                    "midi": 78,
                    "time": 188.21922199999997,
                    "velocity": 0.3228346456692913,
                    "duration": 0.8561645833333102
                },
                {
                    "name": "E5",
                    "midi": 76,
                    "time": 189.04113999999996,
                    "velocity": 0.3464566929133858,
                    "duration": 0.8219179999999824
                },
                {
                    "name": "G#5",
                    "midi": 80,
                    "time": 189.86305799999994,
                    "velocity": 0.29133858267716534,
                    "duration": 0.8219180000000108
                },
                {
                    "name": "C5",
                    "midi": 72,
                    "time": 190.68497599999995,
                    "velocity": 0.30708661417322836,
                    "duration": 4.10958999999994
                },
                {
                    "name": "F#5",
                    "midi": 78,
                    "time": 190.68497599999995,
                    "velocity": 0.3779527559055118,
                    "duration": 0.8561645833333387
                },
                {
                    "name": "G#5",
                    "midi": 80,
                    "time": 191.50689399999996,
                    "velocity": 0.31496062992125984,
                    "duration": 0.8561645833333102
                },
                {
                    "name": "F#5",
                    "midi": 78,
                    "time": 192.32881199999994,
                    "velocity": 0.33070866141732286,
                    "duration": 0.8561645833333102
                },
                {
                    "name": "E5",
                    "midi": 76,
                    "time": 193.15072999999992,
                    "velocity": 0.2992125984251969,
                    "duration": 0.8561645833333102
                },
                {
                    "name": "D#5",
                    "midi": 75,
                    "time": 193.9726479999999,
                    "velocity": 0.36220472440944884,
                    "duration": 0.8219179999999824
                },
                {
                    "name": "C#5",
                    "midi": 73,
                    "time": 194.7945659999999,
                    "velocity": 0.36220472440944884,
                    "duration": 0.8561645833333387
                },
                {
                    "name": "C5",
                    "midi": 72,
                    "time": 195.6164839999999,
                    "velocity": 0.30708661417322836,
                    "duration": 1.6438359999999648
                },
                {
                    "name": "D#5",
                    "midi": 75,
                    "time": 195.6164839999999,
                    "velocity": 0.3858267716535433,
                    "duration": 0.8561645833333102
                },
                {
                    "name": "E5",
                    "midi": 76,
                    "time": 196.43840199999988,
                    "velocity": 0.3464566929133858,
                    "duration": 0.8219179999999824
                },
                {
                    "name": "C#5",
                    "midi": 73,
                    "time": 197.26031999999987,
                    "velocity": 0.3937007874015748,
                    "duration": 4.109589999999997
                },
                {
                    "name": "C#5",
                    "midi": 73,
                    "time": 201.36990999999986,
                    "velocity": 0.36220472440944884,
                    "duration": 0.8561645833333387
                },
                {
                    "name": "C5",
                    "midi": 72,
                    "time": 202.19182799999987,
                    "velocity": 0.30708661417322836,
                    "duration": 1.6438359999999648
                },
                {
                    "name": "D#5",
                    "midi": 75,
                    "time": 202.19182799999987,
                    "velocity": 0.3858267716535433,
                    "duration": 0.8561645833333102
                },
                {
                    "name": "E5",
                    "midi": 76,
                    "time": 203.01374599999986,
                    "velocity": 0.3464566929133858,
                    "duration": 0.8219179999999824
                },
                {
                    "name": "C#5",
                    "midi": 73,
                    "time": 203.83566399999984,
                    "velocity": 0.3858267716535433,
                    "duration": 4.931508000000008
                },
                {
                    "name": "C5",
                    "midi": 72,
                    "time": 208.76717199999985,
                    "velocity": 0.33070866141732286,
                    "duration": 1.6438359999999932
                },
                {
                    "name": "B4",
                    "midi": 71,
                    "time": 210.41100799999984,
                    "velocity": 0.3464566929133858,
                    "duration": 1.6438359999999932
                },
                {
                    "name": "A4",
                    "midi": 69,
                    "time": 212.05484399999983,
                    "velocity": 0.31496062992125984,
                    "duration": 1.6438359999999932
                },
                {
                    "name": "C#4",
                    "midi": 61,
                    "time": 213.69867999999983,
                    "velocity": 0.2755905511811024,
                    "duration": 5.753426000000019
                },
                {
                    "name": "D#4",
                    "midi": 63,
                    "time": 213.69867999999983,
                    "velocity": 0.2992125984251969,
                    "duration": 3.287672000000015
                },
                {
                    "name": "G#4",
                    "midi": 68,
                    "time": 213.69867999999983,
                    "velocity": 0.2992125984251969,
                    "duration": 6.57534400000003
                },
                {
                    "name": "C4",
                    "midi": 60,
                    "time": 215.34251599999982,
                    "velocity": 0.2440944881889764,
                    "duration": 0.8219180000000108
                },
                {
                    "name": "A#3",
                    "midi": 58,
                    "time": 216.16443399999983,
                    "velocity": 0.2440944881889764,
                    "duration": 0.8219180000000108
                },
                {
                    "name": "C4",
                    "midi": 60,
                    "time": 216.98635199999984,
                    "velocity": 0.29133858267716534,
                    "duration": 2.465754000000004
                },
                {
                    "name": "C#4",
                    "midi": 61,
                    "time": 219.45210599999984,
                    "velocity": 0.23622047244094488,
                    "duration": 0.8219180000000108
                },
                {
                    "name": "C#4",
                    "midi": 61,
                    "time": 220.27402399999986,
                    "velocity": 0.2677165354330709,
                    "duration": 2.054795000000013
                },
                {
                    "name": "C4",
                    "midi": 60,
                    "time": 223.56169599999987,
                    "velocity": 0.4015748031496063,
                    "duration": 0.4109589999999912
                },
                {
                    "name": "G#6",
                    "midi": 92,
                    "time": 223.56169599999987,
                    "velocity": 0.36220472440944884,
                    "duration": 0.4109589999999912
                },
                {
                    "name": "D#6",
                    "midi": 87,
                    "time": 223.56169599999987,
                    "velocity": 0.3228346456692913,
                    "duration": 0.4109589999999912
                },
                {
                    "name": "F#5",
                    "midi": 78,
                    "time": 223.56169599999987,
                    "velocity": 0.3228346456692913,
                    "duration": 0.4109589999999912
                },
                {
                    "name": "C#4",
                    "midi": 61,
                    "time": 226.84936799999986,
                    "velocity": 0.4015748031496063,
                    "duration": 0.4109589999999912
                },
                {
                    "name": "E6",
                    "midi": 88,
                    "time": 226.84936799999986,
                    "velocity": 0.36220472440944884,
                    "duration": 0.4109589999999912
                },
                {
                    "name": "A5",
                    "midi": 81,
                    "time": 226.84936799999986,
                    "velocity": 0.3228346456692913,
                    "duration": 0.4109589999999912
                },
                {
                    "name": "E5",
                    "midi": 76,
                    "time": 226.84936799999986,
                    "velocity": 0.3228346456692913,
                    "duration": 0.4109589999999912
                },
                {
                    "name": "D#4",
                    "midi": 63,
                    "time": 230.13703999999984,
                    "velocity": 0.4015748031496063,
                    "duration": 0.4109589999999912
                },
                {
                    "name": "A4",
                    "midi": 69,
                    "time": 230.13703999999984,
                    "velocity": 0.3228346456692913,
                    "duration": 0.4109589999999912
                },
                {
                    "name": "F#5",
                    "midi": 78,
                    "time": 230.13703999999984,
                    "velocity": 0.3228346456692913,
                    "duration": 0.4109589999999912
                },
                {
                    "name": "B5",
                    "midi": 83,
                    "time": 230.13703999999984,
                    "velocity": 0.36220472440944884,
                    "duration": 0.4109589999999912
                },
                {
                    "name": "G#5",
                    "midi": 80,
                    "time": 233.42471199999983,
                    "velocity": 0.36220472440944884,
                    "duration": 0.4109589999999912
                },
                {
                    "name": "C#5",
                    "midi": 73,
                    "time": 233.42471199999983,
                    "velocity": 0.3228346456692913,
                    "duration": 0.4109589999999912
                },
                {
                    "name": "G#4",
                    "midi": 68,
                    "time": 233.42471199999983,
                    "velocity": 0.3228346456692913,
                    "duration": 0.4109589999999912
                },
                {
                    "name": "E4",
                    "midi": 64,
                    "time": 233.42471199999983,
                    "velocity": 0.4015748031496063,
                    "duration": 0.4109589999999912
                },
                {
                    "name": "G#5",
                    "midi": 80,
                    "time": 236.71238399999982,
                    "velocity": 0.36220472440944884,
                    "duration": 0.4109589999999912
                },
                {
                    "name": "D#5",
                    "midi": 75,
                    "time": 236.71238399999982,
                    "velocity": 0.3228346456692913,
                    "duration": 0.4109589999999912
                },
                {
                    "name": "F#4",
                    "midi": 66,
                    "time": 236.71238399999982,
                    "velocity": 0.36220472440944884,
                    "duration": 0.4109589999999912
                },
                {
                    "name": "E4",
                    "midi": 64,
                    "time": 240.0000559999998,
                    "velocity": 0.3228346456692913,
                    "duration": 0.4109589999999912
                },
                {
                    "name": "A4",
                    "midi": 69,
                    "time": 240.0000559999998,
                    "velocity": 0.3228346456692913,
                    "duration": 0.4109589999999912
                },
                {
                    "name": "E5",
                    "midi": 76,
                    "time": 240.0000559999998,
                    "velocity": 0.36220472440944884,
                    "duration": 0.4109589999999912
                },
                {
                    "name": "A3",
                    "midi": 57,
                    "time": 243.2877279999998,
                    "velocity": 0.3228346456692913,
                    "duration": 0.4109589999999912
                },
                {
                    "name": "F#4",
                    "midi": 66,
                    "time": 243.2877279999998,
                    "velocity": 0.3228346456692913,
                    "duration": 0.4109589999999912
                },
                {
                    "name": "B4",
                    "midi": 71,
                    "time": 243.2877279999998,
                    "velocity": 0.36220472440944884,
                    "duration": 0.4109589999999912
                },
                {
                    "name": "G#3",
                    "midi": 56,
                    "time": 246.57539999999977,
                    "velocity": 0.3228346456692913,
                    "duration": 0.4109589999999912
                },
                {
                    "name": "C#4",
                    "midi": 61,
                    "time": 246.57539999999977,
                    "velocity": 0.3228346456692913,
                    "duration": 0.4109589999999912
                },
                {
                    "name": "G#4",
                    "midi": 68,
                    "time": 246.57539999999977,
                    "velocity": 0.36220472440944884,
                    "duration": 0.4109589999999912
                },
                {
                    "name": "A3",
                    "midi": 57,
                    "time": 249.86307199999976,
                    "velocity": 0.4566929133858268,
                    "duration": 0.4109589999999912
                },
                {
                    "name": "D4",
                    "midi": 62,
                    "time": 249.86307199999976,
                    "velocity": 0.4566929133858268,
                    "duration": 0.4109589999999912
                },
                {
                    "name": "F#4",
                    "midi": 66,
                    "time": 249.86307199999976,
                    "velocity": 0.5039370078740157,
                    "duration": 0.4109589999999912
                },
                {
                    "name": "F#3",
                    "midi": 54,
                    "time": 256.43841599999973,
                    "velocity": 0.3228346456692913,
                    "duration": 0.4109589999999912
                },
                {
                    "name": "A3",
                    "midi": 57,
                    "time": 256.43841599999973,
                    "velocity": 0.3228346456692913,
                    "duration": 0.4109589999999912
                },
                {
                    "name": "D#4",
                    "midi": 63,
                    "time": 256.43841599999973,
                    "velocity": 0.36220472440944884,
                    "duration": 0.4109589999999912
                },
                {
                    "name": "G#3",
                    "midi": 56,
                    "time": 263.0137599999997,
                    "velocity": 0.3228346456692913,
                    "duration": 0.4109589999999912
                },
                {
                    "name": "C#4",
                    "midi": 61,
                    "time": 263.0137599999997,
                    "velocity": 0.36220472440944884,
                    "duration": 0.4109589999999912
                },
                {
                    "name": "F#3",
                    "midi": 54,
                    "time": 266.3014319999997,
                    "velocity": 0.4409448818897638,
                    "duration": 0.4109589999999912
                },
                {
                    "name": "B3",
                    "midi": 59,
                    "time": 266.3014319999997,
                    "velocity": 0.4881889763779528,
                    "duration": 0.4109589999999912
                },
                {
                    "name": "G#3",
                    "midi": 56,
                    "time": 269.5891039999997,
                    "velocity": 0.3228346456692913,
                    "duration": 0.4109589999999912
                },
                {
                    "name": "C#4",
                    "midi": 61,
                    "time": 269.5891039999997,
                    "velocity": 0.36220472440944884,
                    "duration": 0.4109589999999912
                },
                {
                    "name": "F#3",
                    "midi": 54,
                    "time": 272.87677599999967,
                    "velocity": 0.44881889763779526,
                    "duration": 0.4109589999999912
                },
                {
                    "name": "B3",
                    "midi": 59,
                    "time": 272.87677599999967,
                    "velocity": 0.49606299212598426,
                    "duration": 0.4109589999999912
                },
                {
                    "name": "G#3",
                    "midi": 56,
                    "time": 276.16444799999965,
                    "velocity": 0.3228346456692913,
                    "duration": 0.4109589999999912
                },
                {
                    "name": "C#4",
                    "midi": 61,
                    "time": 276.16444799999965,
                    "velocity": 0.36220472440944884,
                    "duration": 0.4109589999999912
                }
            ],
            "controlChanges": {
                "7": [
                    {
                        "number": 7,
                        "time": 0,
                        "value": 0.7874015748031497
                    }
                ],
                "91": [
                    {
                        "number": 91,
                        "time": 0,
                        "value": 1
                    }
                ]
            },
            "id": 1,
            "name": "Piano right",
            "instrumentNumber": 0,
            "instrument": "acoustic grand piano",
            "instrumentFamily": "piano",
            "channelNumber": 0,
            "isPercussion": false
        },
        {
            "startTime": 1.6438359999999999,
            "duration": 281.50691499999976,
            "length": 343,
            "notes": [
                {
                    "name": "C#1",
                    "midi": 25,
                    "time": 1.6438359999999999,
                    "velocity": 0.2283464566929134,
                    "duration": 0.4109590000000001
                },
                {
                    "name": "C#1",
                    "midi": 25,
                    "time": 4.931507999999999,
                    "velocity": 0.2283464566929134,
                    "duration": 0.4109590000000001
                },
                {
                    "name": "C#1",
                    "midi": 25,
                    "time": 8.219179999999998,
                    "velocity": 0.2283464566929134,
                    "duration": 0.4109590000000001
                },
                {
                    "name": "C#1",
                    "midi": 25,
                    "time": 11.506851999999999,
                    "velocity": 0.2204724409448819,
                    "duration": 0.4109590000000001
                },
                {
                    "name": "C3",
                    "midi": 48,
                    "time": 13.150687999999999,
                    "velocity": 0.4330708661417323,
                    "duration": 0.4109589999999983
                },
                {
                    "name": "C#1",
                    "midi": 25,
                    "time": 14.794523999999997,
                    "velocity": 0.2204724409448819,
                    "duration": 0.4109590000000001
                },
                {
                    "name": "C#3",
                    "midi": 49,
                    "time": 16.438359999999996,
                    "velocity": 0.4330708661417323,
                    "duration": 0.4109589999999983
                },
                {
                    "name": "C#1",
                    "midi": 25,
                    "time": 18.082195999999993,
                    "velocity": 0.2283464566929134,
                    "duration": 0.4109589999999983
                },
                {
                    "name": "D#3",
                    "midi": 51,
                    "time": 19.72603199999999,
                    "velocity": 0.44881889763779526,
                    "duration": 0.41095900000000185
                },
                {
                    "name": "C#1",
                    "midi": 25,
                    "time": 21.36986799999999,
                    "velocity": 0.2204724409448819,
                    "duration": 0.4109589999999983
                },
                {
                    "name": "E3",
                    "midi": 52,
                    "time": 23.01370399999999,
                    "velocity": 0.4409448818897638,
                    "duration": 0.4109589999999983
                },
                {
                    "name": "C#1",
                    "midi": 25,
                    "time": 24.657539999999987,
                    "velocity": 0.2125984251968504,
                    "duration": 0.4109589999999983
                },
                {
                    "name": "F#3",
                    "midi": 54,
                    "time": 26.301375999999987,
                    "velocity": 0.5669291338582677,
                    "duration": 0.41095900000000185
                },
                {
                    "name": "C#1",
                    "midi": 25,
                    "time": 27.945211999999987,
                    "velocity": 0.2440944881889764,
                    "duration": 0.4109589999999983
                },
                {
                    "name": "C#1",
                    "midi": 25,
                    "time": 31.232883999999984,
                    "velocity": 0.23622047244094488,
                    "duration": 0.4109589999999983
                },
                {
                    "name": "C3",
                    "midi": 48,
                    "time": 32.876719999999985,
                    "velocity": 0.4409448818897638,
                    "duration": 0.4109589999999983
                },
                {
                    "name": "C#1",
                    "midi": 25,
                    "time": 34.520555999999985,
                    "velocity": 0.2440944881889764,
                    "duration": 0.4109589999999983
                },
                {
                    "name": "C#1",
                    "midi": 25,
                    "time": 37.808227999999986,
                    "velocity": 0.23622047244094488,
                    "duration": 0.4109589999999983
                },
                {
                    "name": "E3",
                    "midi": 52,
                    "time": 39.45206399999998,
                    "velocity": 0.4409448818897638,
                    "duration": 0.4109590000000054
                },
                {
                    "name": "C#1",
                    "midi": 25,
                    "time": 41.095899999999986,
                    "velocity": 0.2283464566929134,
                    "duration": 0.4109589999999983
                },
                {
                    "name": "D#3",
                    "midi": 51,
                    "time": 42.73973599999998,
                    "velocity": 0.5669291338582677,
                    "duration": 0.4109589999999983
                },
                {
                    "name": "C#1",
                    "midi": 25,
                    "time": 44.38357199999998,
                    "velocity": 0.2204724409448819,
                    "duration": 0.4109589999999983
                },
                {
                    "name": "E3",
                    "midi": 52,
                    "time": 46.02740799999998,
                    "velocity": 0.4094488188976378,
                    "duration": 0.4109589999999983
                },
                {
                    "name": "C#1",
                    "midi": 25,
                    "time": 47.67124399999998,
                    "velocity": 0.2204724409448819,
                    "duration": 0.4109589999999983
                },
                {
                    "name": "D#3",
                    "midi": 51,
                    "time": 49.31507999999997,
                    "velocity": 0.5669291338582677,
                    "duration": 0.4109589999999983
                },
                {
                    "name": "C#1",
                    "midi": 25,
                    "time": 50.958915999999974,
                    "velocity": 0.2283464566929134,
                    "duration": 0.4109589999999983
                },
                {
                    "name": "E3",
                    "midi": 52,
                    "time": 52.602751999999974,
                    "velocity": 0.4409448818897638,
                    "duration": 0.4109589999999983
                },
                {
                    "name": "C#1",
                    "midi": 25,
                    "time": 54.246587999999974,
                    "velocity": 0.2204724409448819,
                    "duration": 0.4109589999999983
                },
                {
                    "name": "C#1",
                    "midi": 25,
                    "time": 57.534259999999975,
                    "velocity": 0.14960629921259844,
                    "duration": 0.4109589999999983
                },
                {
                    "name": "F#4",
                    "midi": 66,
                    "time": 69.04111199999997,
                    "velocity": 0.4015748031496063,
                    "duration": 0.8561645833333245
                },
                {
                    "name": "G#4",
                    "midi": 68,
                    "time": 69.86302999999997,
                    "velocity": 0.3858267716535433,
                    "duration": 0.8561645833333245
                },
                {
                    "name": "A4",
                    "midi": 69,
                    "time": 70.68494799999996,
                    "velocity": 0.4094488188976378,
                    "duration": 0.8561645833333245
                },
                {
                    "name": "G#4",
                    "midi": 68,
                    "time": 71.50686599999996,
                    "velocity": 0.3937007874015748,
                    "duration": 0.44520558333331905
                },
                {
                    "name": "F#4",
                    "midi": 66,
                    "time": 71.91782499999995,
                    "velocity": 0.3937007874015748,
                    "duration": 0.44520558333331905
                },
                {
                    "name": "E4",
                    "midi": 64,
                    "time": 72.32878399999994,
                    "velocity": 0.41732283464566927,
                    "duration": 0.8219179999999966
                },
                {
                    "name": "C#4",
                    "midi": 61,
                    "time": 73.15070199999994,
                    "velocity": 0.3700787401574803,
                    "duration": 0.8561645833333245
                },
                {
                    "name": "D#4",
                    "midi": 63,
                    "time": 73.97261999999994,
                    "velocity": 0.3858267716535433,
                    "duration": 0.8561645833333245
                },
                {
                    "name": "E4",
                    "midi": 64,
                    "time": 74.79453799999993,
                    "velocity": 0.3700787401574803,
                    "duration": 0.8219179999999966
                },
                {
                    "name": "D#4",
                    "midi": 63,
                    "time": 75.61645599999993,
                    "velocity": 0.3937007874015748,
                    "duration": 0.8561645833333245
                },
                {
                    "name": "C#4",
                    "midi": 61,
                    "time": 75.61645599999993,
                    "velocity": 0.2992125984251969,
                    "duration": 2.46575399999999
                },
                {
                    "name": "E4",
                    "midi": 64,
                    "time": 76.43837399999992,
                    "velocity": 0.4015748031496063,
                    "duration": 0.8561645833333245
                },
                {
                    "name": "F#4",
                    "midi": 66,
                    "time": 77.26029199999992,
                    "velocity": 0.4094488188976378,
                    "duration": 1.6438359999999932
                },
                {
                    "name": "C4",
                    "midi": 60,
                    "time": 78.08220999999992,
                    "velocity": 0.28346456692913385,
                    "duration": 0.8219179999999966
                },
                {
                    "name": "B3",
                    "midi": 59,
                    "time": 78.90412799999991,
                    "velocity": 0.2992125984251969,
                    "duration": 3.287671999999972
                },
                {
                    "name": "E4",
                    "midi": 64,
                    "time": 78.90412799999991,
                    "velocity": 0.3937007874015748,
                    "duration": 0.8561645833333245
                },
                {
                    "name": "D#4",
                    "midi": 63,
                    "time": 79.72604599999991,
                    "velocity": 0.3228346456692913,
                    "duration": 0.8561645833333245
                },
                {
                    "name": "C#4",
                    "midi": 61,
                    "time": 80.54796399999991,
                    "velocity": 0.3228346456692913,
                    "duration": 0.8219179999999824
                },
                {
                    "name": "E4",
                    "midi": 64,
                    "time": 81.36988199999989,
                    "velocity": 0.28346456692913385,
                    "duration": 0.8219179999999966
                },
                {
                    "name": "D#4",
                    "midi": 63,
                    "time": 82.19179999999989,
                    "velocity": 0.3937007874015748,
                    "duration": 0.8561645833333387
                },
                {
                    "name": "A3",
                    "midi": 57,
                    "time": 82.19179999999989,
                    "velocity": 0.30708661417322836,
                    "duration": 4.931507999999994
                },
                {
                    "name": "E4",
                    "midi": 64,
                    "time": 83.0137179999999,
                    "velocity": 0.3228346456692913,
                    "duration": 0.8561645833333245
                },
                {
                    "name": "D#4",
                    "midi": 63,
                    "time": 83.8356359999999,
                    "velocity": 0.36220472440944884,
                    "duration": 0.8561645833333245
                },
                {
                    "name": "E4",
                    "midi": 64,
                    "time": 84.65755399999989,
                    "velocity": 0.2992125984251969,
                    "duration": 0.8561645833333245
                },
                {
                    "name": "F#4",
                    "midi": 66,
                    "time": 85.47947199999989,
                    "velocity": 0.33070866141732286,
                    "duration": 3.2876719999999864
                },
                {
                    "name": "G#3",
                    "midi": 56,
                    "time": 87.12330799999988,
                    "velocity": 0.33070866141732286,
                    "duration": 1.6438359999999932
                },
                {
                    "name": "A3",
                    "midi": 57,
                    "time": 88.76714399999987,
                    "velocity": 0.30708661417322836,
                    "duration": 4.93150799999998
                },
                {
                    "name": "E4",
                    "midi": 64,
                    "time": 88.76714399999987,
                    "velocity": 0.3700787401574803,
                    "duration": 0.8219179999999966
                },
                {
                    "name": "D#4",
                    "midi": 63,
                    "time": 89.58906199999987,
                    "velocity": 0.3464566929133858,
                    "duration": 0.8561645833333245
                },
                {
                    "name": "E4",
                    "midi": 64,
                    "time": 90.41097999999987,
                    "velocity": 0.3700787401574803,
                    "duration": 0.8561645833333245
                },
                {
                    "name": "F4",
                    "midi": 65,
                    "time": 91.23289799999986,
                    "velocity": 0.3228346456692913,
                    "duration": 0.8561645833333245
                },
                {
                    "name": "F#4",
                    "midi": 66,
                    "time": 92.05481599999986,
                    "velocity": 0.4094488188976378,
                    "duration": 3.2876720000000006
                },
                {
                    "name": "G#3",
                    "midi": 56,
                    "time": 93.69865199999985,
                    "velocity": 0.3700787401574803,
                    "duration": 1.6438360000000074
                },
                {
                    "name": "E4",
                    "midi": 64,
                    "time": 95.34248799999986,
                    "velocity": 0.3937007874015748,
                    "duration": 0.8219179999999966
                },
                {
                    "name": "A3",
                    "midi": 57,
                    "time": 95.34248799999986,
                    "velocity": 0.2992125984251969,
                    "duration": 7.397261999999969
                },
                {
                    "name": "D#4",
                    "midi": 63,
                    "time": 96.16440599999986,
                    "velocity": 0.36220472440944884,
                    "duration": 0.8561645833333245
                },
                {
                    "name": "E4",
                    "midi": 64,
                    "time": 96.98632399999985,
                    "velocity": 0.3779527559055118,
                    "duration": 0.8561645833333245
                },
                {
                    "name": "F4",
                    "midi": 65,
                    "time": 97.80824199999985,
                    "velocity": 0.3464566929133858,
                    "duration": 0.8561645833333245
                },
                {
                    "name": "F#4",
                    "midi": 66,
                    "time": 98.63015999999985,
                    "velocity": 0.41732283464566927,
                    "duration": 2.46575399999999
                },
                {
                    "name": "E4",
                    "midi": 64,
                    "time": 101.09591399999984,
                    "velocity": 0.29133858267716534,
                    "duration": 0.8219179999999966
                },
                {
                    "name": "D#4",
                    "midi": 63,
                    "time": 101.91783199999983,
                    "velocity": 0.3228346456692913,
                    "duration": 2.46575399999999
                },
                {
                    "name": "G#3",
                    "midi": 56,
                    "time": 102.73974999999983,
                    "velocity": 0.2992125984251969,
                    "duration": 0.8219179999999966
                },
                {
                    "name": "F#3",
                    "midi": 54,
                    "time": 103.56166799999983,
                    "velocity": 0.25984251968503935,
                    "duration": 1.6438359999999932
                },
                {
                    "name": "C#4",
                    "midi": 61,
                    "time": 104.38358599999982,
                    "velocity": 0.23622047244094488,
                    "duration": 0.8219179999999966
                },
                {
                    "name": "G#3",
                    "midi": 56,
                    "time": 105.20550399999982,
                    "velocity": 0.2125984251968504,
                    "duration": 3.2876720000000006
                },
                {
                    "name": "C#4",
                    "midi": 61,
                    "time": 105.20550399999982,
                    "velocity": 0.2755905511811024,
                    "duration": 1.6438360000000074
                },
                {
                    "name": "C4",
                    "midi": 60,
                    "time": 106.84933999999983,
                    "velocity": 0.2125984251968504,
                    "duration": 1.6438359999999932
                },
                {
                    "name": "C#2",
                    "midi": 37,
                    "time": 108.49317599999982,
                    "velocity": 0.3779527559055118,
                    "duration": 0.8219179999999966
                },
                {
                    "name": "C#3",
                    "midi": 49,
                    "time": 108.49317599999982,
                    "velocity": 0.4094488188976378,
                    "duration": 0.8219179999999966
                },
                {
                    "name": "D#2",
                    "midi": 39,
                    "time": 109.31509399999982,
                    "velocity": 0.3464566929133858,
                    "duration": 0.8219179999999966
                },
                {
                    "name": "D#3",
                    "midi": 51,
                    "time": 109.31509399999982,
                    "velocity": 0.3858267716535433,
                    "duration": 0.8219179999999966
                },
                {
                    "name": "E3",
                    "midi": 52,
                    "time": 110.13701199999981,
                    "velocity": 0.4094488188976378,
                    "duration": 0.8219179999999966
                },
                {
                    "name": "E2",
                    "midi": 40,
                    "time": 110.13701199999981,
                    "velocity": 0.3779527559055118,
                    "duration": 0.8219179999999966
                },
                {
                    "name": "D#3",
                    "midi": 51,
                    "time": 110.95892999999981,
                    "velocity": 0.3858267716535433,
                    "duration": 0.4109590000000054
                },
                {
                    "name": "D#2",
                    "midi": 39,
                    "time": 110.95892999999981,
                    "velocity": 0.3464566929133858,
                    "duration": 0.4109590000000054
                },
                {
                    "name": "C#3",
                    "midi": 49,
                    "time": 111.36988899999982,
                    "velocity": 0.3858267716535433,
                    "duration": 0.4109590000000054
                },
                {
                    "name": "C#2",
                    "midi": 37,
                    "time": 111.36988899999982,
                    "velocity": 0.3464566929133858,
                    "duration": 0.4109590000000054
                },
                {
                    "name": "B1",
                    "midi": 35,
                    "time": 111.78084799999982,
                    "velocity": 0.3937007874015748,
                    "duration": 0.8219179999999966
                },
                {
                    "name": "B2",
                    "midi": 47,
                    "time": 111.78084799999982,
                    "velocity": 0.4330708661417323,
                    "duration": 0.8219179999999966
                },
                {
                    "name": "G#1",
                    "midi": 32,
                    "time": 112.60276599999982,
                    "velocity": 0.3543307086614173,
                    "duration": 0.8219179999999966
                },
                {
                    "name": "G#2",
                    "midi": 44,
                    "time": 112.60276599999982,
                    "velocity": 0.3858267716535433,
                    "duration": 0.8219179999999966
                },
                {
                    "name": "A2",
                    "midi": 45,
                    "time": 113.42468399999981,
                    "velocity": 0.3858267716535433,
                    "duration": 0.8219179999999966
                },
                {
                    "name": "A1",
                    "midi": 33,
                    "time": 113.42468399999981,
                    "velocity": 0.33070866141732286,
                    "duration": 0.8219179999999966
                },
                {
                    "name": "B2",
                    "midi": 47,
                    "time": 114.24660199999981,
                    "velocity": 0.33070866141732286,
                    "duration": 0.8219180000000108
                },
                {
                    "name": "B1",
                    "midi": 35,
                    "time": 114.24660199999981,
                    "velocity": 0.30708661417322836,
                    "duration": 0.8219180000000108
                },
                {
                    "name": "C#2",
                    "midi": 37,
                    "time": 115.06851999999982,
                    "velocity": 0.4015748031496063,
                    "duration": 0.8219179999999966
                },
                {
                    "name": "C#3",
                    "midi": 49,
                    "time": 115.06851999999982,
                    "velocity": 0.4409448818897638,
                    "duration": 0.8219179999999966
                },
                {
                    "name": "D#3",
                    "midi": 51,
                    "time": 115.89043799999982,
                    "velocity": 0.41732283464566927,
                    "duration": 0.8219179999999966
                },
                {
                    "name": "D#2",
                    "midi": 39,
                    "time": 115.89043799999982,
                    "velocity": 0.3779527559055118,
                    "duration": 0.8219179999999966
                },
                {
                    "name": "E3",
                    "midi": 52,
                    "time": 116.71235599999982,
                    "velocity": 0.4409448818897638,
                    "duration": 0.8219179999999966
                },
                {
                    "name": "E2",
                    "midi": 40,
                    "time": 116.71235599999982,
                    "velocity": 0.4094488188976378,
                    "duration": 0.8219179999999966
                },
                {
                    "name": "D#3",
                    "midi": 51,
                    "time": 117.53427399999981,
                    "velocity": 0.4409448818897638,
                    "duration": 0.4109590000000054
                },
                {
                    "name": "D#2",
                    "midi": 39,
                    "time": 117.53427399999981,
                    "velocity": 0.4094488188976378,
                    "duration": 0.4109590000000054
                },
                {
                    "name": "C#3",
                    "midi": 49,
                    "time": 117.94523299999982,
                    "velocity": 0.4409448818897638,
                    "duration": 0.4109590000000054
                },
                {
                    "name": "C#2",
                    "midi": 37,
                    "time": 117.94523299999982,
                    "velocity": 0.4094488188976378,
                    "duration": 0.4109590000000054
                },
                {
                    "name": "B1",
                    "midi": 35,
                    "time": 118.35619199999982,
                    "velocity": 0.4409448818897638,
                    "duration": 0.8219179999999966
                },
                {
                    "name": "B2",
                    "midi": 47,
                    "time": 118.35619199999982,
                    "velocity": 0.4645669291338583,
                    "duration": 0.8219179999999966
                },
                {
                    "name": "G#1",
                    "midi": 32,
                    "time": 119.17810999999982,
                    "velocity": 0.4094488188976378,
                    "duration": 0.8219179999999966
                },
                {
                    "name": "G#2",
                    "midi": 44,
                    "time": 119.17810999999982,
                    "velocity": 0.4409448818897638,
                    "duration": 0.8219179999999966
                },
                {
                    "name": "A2",
                    "midi": 45,
                    "time": 120.00002799999982,
                    "velocity": 0.4409448818897638,
                    "duration": 0.8219179999999966
                },
                {
                    "name": "A1",
                    "midi": 33,
                    "time": 120.00002799999982,
                    "velocity": 0.3937007874015748,
                    "duration": 0.8219179999999966
                },
                {
                    "name": "B2",
                    "midi": 47,
                    "time": 120.82194599999981,
                    "velocity": 0.4409448818897638,
                    "duration": 0.6164385000000152
                },
                {
                    "name": "B1",
                    "midi": 35,
                    "time": 120.82194599999981,
                    "velocity": 0.3937007874015748,
                    "duration": 0.6164385000000152
                },
                {
                    "name": "C#2",
                    "midi": 37,
                    "time": 121.43838449999983,
                    "velocity": 0.4330708661417323,
                    "duration": 3.493151499999996
                },
                {
                    "name": "F#2",
                    "midi": 42,
                    "time": 121.54112424999983,
                    "velocity": 0.4881889763779528,
                    "duration": 0.9246577499999944
                },
                {
                    "name": "F#3",
                    "midi": 54,
                    "time": 121.64386399999982,
                    "velocity": 0.5433070866141733,
                    "duration": 0.8219179999999966
                },
                {
                    "name": "G#2",
                    "midi": 44,
                    "time": 122.46578199999982,
                    "velocity": 0.47244094488188976,
                    "duration": 0.8219179999999966
                },
                {
                    "name": "G#3",
                    "midi": 56,
                    "time": 122.46578199999982,
                    "velocity": 0.49606299212598426,
                    "duration": 0.8219179999999966
                },
                {
                    "name": "A2",
                    "midi": 45,
                    "time": 123.28769999999982,
                    "velocity": 0.4881889763779528,
                    "duration": 0.8219179999999966
                },
                {
                    "name": "A3",
                    "midi": 57,
                    "time": 123.28769999999982,
                    "velocity": 0.5511811023622047,
                    "duration": 0.8219179999999966
                },
                {
                    "name": "G#2",
                    "midi": 44,
                    "time": 124.10961799999981,
                    "velocity": 0.4881889763779528,
                    "duration": 0.4109590000000054
                },
                {
                    "name": "G#3",
                    "midi": 56,
                    "time": 124.10961799999981,
                    "velocity": 0.5511811023622047,
                    "duration": 0.4109590000000054
                },
                {
                    "name": "F#2",
                    "midi": 42,
                    "time": 124.52057699999982,
                    "velocity": 0.4881889763779528,
                    "duration": 0.4109590000000054
                },
                {
                    "name": "F#3",
                    "midi": 54,
                    "time": 124.52057699999982,
                    "velocity": 0.5511811023622047,
                    "duration": 0.4109590000000054
                },
                {
                    "name": "E3",
                    "midi": 52,
                    "time": 124.93153599999982,
                    "velocity": 0.5669291338582677,
                    "duration": 0.8219179999999966
                },
                {
                    "name": "E2",
                    "midi": 40,
                    "time": 124.93153599999982,
                    "velocity": 0.5196850393700787,
                    "duration": 0.8219179999999966
                },
                {
                    "name": "C#3",
                    "midi": 49,
                    "time": 125.75345399999982,
                    "velocity": 0.5669291338582677,
                    "duration": 0.8219179999999966
                },
                {
                    "name": "C#2",
                    "midi": 37,
                    "time": 125.75345399999982,
                    "velocity": 0.5196850393700787,
                    "duration": 0.8219179999999966
                },
                {
                    "name": "D#2",
                    "midi": 39,
                    "time": 126.57537199999982,
                    "velocity": 0.4881889763779528,
                    "duration": 0.8219179999999966
                },
                {
                    "name": "D#3",
                    "midi": 51,
                    "time": 126.57537199999982,
                    "velocity": 0.5433070866141733,
                    "duration": 0.8219179999999966
                },
                {
                    "name": "E2",
                    "midi": 40,
                    "time": 127.39728999999981,
                    "velocity": 0.4881889763779528,
                    "duration": 0.616438500000001
                },
                {
                    "name": "E3",
                    "midi": 52,
                    "time": 127.39728999999981,
                    "velocity": 0.5433070866141733,
                    "duration": 0.616438500000001
                },
                {
                    "name": "C#2",
                    "midi": 37,
                    "time": 128.01372849999981,
                    "velocity": 0.4881889763779528,
                    "duration": 3.4931515000000104
                },
                {
                    "name": "F#2",
                    "midi": 42,
                    "time": 128.11646824999983,
                    "velocity": 0.5275590551181102,
                    "duration": 0.9246577499999944
                },
                {
                    "name": "F#3",
                    "midi": 54,
                    "time": 128.21920799999984,
                    "velocity": 0.5748031496062992,
                    "duration": 0.8219179999999824
                },
                {
                    "name": "G#3",
                    "midi": 56,
                    "time": 129.04112599999982,
                    "velocity": 0.5354330708661418,
                    "duration": 0.8219180000000108
                },
                {
                    "name": "G#2",
                    "midi": 44,
                    "time": 129.04112599999982,
                    "velocity": 0.49606299212598426,
                    "duration": 0.8219180000000108
                },
                {
                    "name": "A3",
                    "midi": 57,
                    "time": 129.86304399999983,
                    "velocity": 0.5511811023622047,
                    "duration": 0.8219180000000108
                },
                {
                    "name": "A2",
                    "midi": 45,
                    "time": 129.86304399999983,
                    "velocity": 0.4881889763779528,
                    "duration": 0.8219180000000108
                },
                {
                    "name": "G#3",
                    "midi": 56,
                    "time": 130.68496199999984,
                    "velocity": 0.5826771653543307,
                    "duration": 0.4109589999999912
                },
                {
                    "name": "G#2",
                    "midi": 44,
                    "time": 130.68496199999984,
                    "velocity": 0.5275590551181102,
                    "duration": 0.4109589999999912
                },
                {
                    "name": "F#3",
                    "midi": 54,
                    "time": 131.09592099999983,
                    "velocity": 0.5826771653543307,
                    "duration": 0.4109589999999912
                },
                {
                    "name": "F#2",
                    "midi": 42,
                    "time": 131.09592099999983,
                    "velocity": 0.5275590551181102,
                    "duration": 0.4109589999999912
                },
                {
                    "name": "E2",
                    "midi": 40,
                    "time": 131.50687999999982,
                    "velocity": 0.5511811023622047,
                    "duration": 0.8219180000000108
                },
                {
                    "name": "E3",
                    "midi": 52,
                    "time": 131.50687999999982,
                    "velocity": 0.6062992125984252,
                    "duration": 0.8219180000000108
                },
                {
                    "name": "C#2",
                    "midi": 37,
                    "time": 132.32879799999984,
                    "velocity": 0.5196850393700787,
                    "duration": 0.8219180000000108
                },
                {
                    "name": "C#3",
                    "midi": 49,
                    "time": 132.32879799999984,
                    "velocity": 0.5669291338582677,
                    "duration": 0.8219180000000108
                },
                {
                    "name": "D#3",
                    "midi": 51,
                    "time": 133.15071599999985,
                    "velocity": 0.5748031496062992,
                    "duration": 0.8219180000000108
                },
                {
                    "name": "D#2",
                    "midi": 39,
                    "time": 133.15071599999985,
                    "velocity": 0.5275590551181102,
                    "duration": 0.8219180000000108
                },
                {
                    "name": "E3",
                    "midi": 52,
                    "time": 133.97263399999986,
                    "velocity": 0.5748031496062992,
                    "duration": 0.7191782499999988
                },
                {
                    "name": "E2",
                    "midi": 40,
                    "time": 133.97263399999986,
                    "velocity": 0.5275590551181102,
                    "duration": 0.7191782499999988
                },
                {
                    "name": "C3",
                    "midi": 48,
                    "time": 134.69181224999986,
                    "velocity": 0.5905511811023622,
                    "duration": 3.3904117500000552
                },
                {
                    "name": "C2",
                    "midi": 36,
                    "time": 134.69181224999986,
                    "velocity": 0.5354330708661418,
                    "duration": 3.3904117500000552
                },
                {
                    "name": "F#4",
                    "midi": 66,
                    "time": 134.79455199999987,
                    "velocity": 0.6692913385826772,
                    "duration": 0.8219180000000108
                },
                {
                    "name": "F#3",
                    "midi": 54,
                    "time": 134.79455199999987,
                    "velocity": 0.6141732283464567,
                    "duration": 0.8219180000000108
                },
                {
                    "name": "G#4",
                    "midi": 68,
                    "time": 135.61646999999988,
                    "velocity": 0.6456692913385826,
                    "duration": 0.8219180000000108
                },
                {
                    "name": "G#3",
                    "midi": 56,
                    "time": 135.61646999999988,
                    "velocity": 0.5669291338582677,
                    "duration": 0.8219180000000108
                },
                {
                    "name": "A4",
                    "midi": 69,
                    "time": 136.4383879999999,
                    "velocity": 0.6929133858267716,
                    "duration": 0.8219180000000108
                },
                {
                    "name": "A3",
                    "midi": 57,
                    "time": 136.4383879999999,
                    "velocity": 0.6141732283464567,
                    "duration": 0.8219180000000108
                },
                {
                    "name": "G#4",
                    "midi": 68,
                    "time": 137.2603059999999,
                    "velocity": 0.6929133858267716,
                    "duration": 0.4109589999999912
                },
                {
                    "name": "G#3",
                    "midi": 56,
                    "time": 137.2603059999999,
                    "velocity": 0.6141732283464567,
                    "duration": 0.4109589999999912
                },
                {
                    "name": "F#4",
                    "midi": 66,
                    "time": 137.6712649999999,
                    "velocity": 0.6299212598425197,
                    "duration": 0.3082192500000076
                },
                {
                    "name": "F#3",
                    "midi": 54,
                    "time": 137.6712649999999,
                    "velocity": 0.5590551181102362,
                    "duration": 0.3082192500000076
                },
                {
                    "name": "B1",
                    "midi": 35,
                    "time": 137.9794842499999,
                    "velocity": 0.5511811023622047,
                    "duration": 3.3904117500000837
                },
                {
                    "name": "B2",
                    "midi": 47,
                    "time": 137.9794842499999,
                    "velocity": 0.6141732283464567,
                    "duration": 3.3904117500000837
                },
                {
                    "name": "E4",
                    "midi": 64,
                    "time": 138.0822239999999,
                    "velocity": 0.7086614173228346,
                    "duration": 0.8219180000000108
                },
                {
                    "name": "E3",
                    "midi": 52,
                    "time": 138.0822239999999,
                    "velocity": 0.6299212598425197,
                    "duration": 0.8219180000000108
                },
                {
                    "name": "C#4",
                    "midi": 61,
                    "time": 138.90414199999992,
                    "velocity": 0.6614173228346457,
                    "duration": 0.8219180000000108
                },
                {
                    "name": "C#3",
                    "midi": 49,
                    "time": 138.90414199999992,
                    "velocity": 0.5905511811023622,
                    "duration": 0.8219180000000108
                },
                {
                    "name": "D#4",
                    "midi": 63,
                    "time": 139.72605999999993,
                    "velocity": 0.6456692913385826,
                    "duration": 0.8219180000000108
                },
                {
                    "name": "D#3",
                    "midi": 51,
                    "time": 139.72605999999993,
                    "velocity": 0.5669291338582677,
                    "duration": 0.8219180000000108
                },
                {
                    "name": "E4",
                    "midi": 64,
                    "time": 140.54797799999994,
                    "velocity": 0.6141732283464567,
                    "duration": 0.6164385000000152
                },
                {
                    "name": "E3",
                    "midi": 52,
                    "time": 140.54797799999994,
                    "velocity": 0.5511811023622047,
                    "duration": 0.6164385000000152
                },
                {
                    "name": "A2",
                    "midi": 45,
                    "time": 141.26715624999997,
                    "velocity": 0.6141732283464567,
                    "duration": 0.8219180000000108
                },
                {
                    "name": "A1",
                    "midi": 33,
                    "time": 141.26715624999997,
                    "velocity": 0.5433070866141733,
                    "duration": 0.8219180000000108
                },
                {
                    "name": "F#4",
                    "midi": 66,
                    "time": 141.36989599999998,
                    "velocity": 0.6692913385826772,
                    "duration": 0.8219180000000108
                },
                {
                    "name": "F#3",
                    "midi": 54,
                    "time": 141.36989599999998,
                    "velocity": 0.6141732283464567,
                    "duration": 0.8219180000000108
                },
                {
                    "name": "G#2",
                    "midi": 44,
                    "time": 142.08907424999998,
                    "velocity": 0.5669291338582677,
                    "duration": 0.8219180000000108
                },
                {
                    "name": "G#1",
                    "midi": 32,
                    "time": 142.08907424999998,
                    "velocity": 0.49606299212598426,
                    "duration": 0.8219180000000108
                },
                {
                    "name": "G#3",
                    "midi": 56,
                    "time": 142.191814,
                    "velocity": 0.5669291338582677,
                    "duration": 0.8219180000000108
                },
                {
                    "name": "G#4",
                    "midi": 68,
                    "time": 142.191814,
                    "velocity": 0.6456692913385826,
                    "duration": 0.8219180000000108
                },
                {
                    "name": "F#2",
                    "midi": 42,
                    "time": 142.91099225,
                    "velocity": 0.6141732283464567,
                    "duration": 0.8219180000000108
                },
                {
                    "name": "F#1",
                    "midi": 30,
                    "time": 142.91099225,
                    "velocity": 0.5433070866141733,
                    "duration": 0.8219180000000108
                },
                {
                    "name": "A3",
                    "midi": 57,
                    "time": 143.013732,
                    "velocity": 0.6141732283464567,
                    "duration": 0.8219180000000108
                },
                {
                    "name": "A4",
                    "midi": 69,
                    "time": 143.013732,
                    "velocity": 0.6929133858267716,
                    "duration": 0.8219180000000108
                },
                {
                    "name": "G#1",
                    "midi": 32,
                    "time": 143.73291025,
                    "velocity": 0.5433070866141733,
                    "duration": 0.8219180000000108
                },
                {
                    "name": "G#2",
                    "midi": 44,
                    "time": 143.73291025,
                    "velocity": 0.6141732283464567,
                    "duration": 0.8219180000000108
                },
                {
                    "name": "G#3",
                    "midi": 56,
                    "time": 143.83565000000002,
                    "velocity": 0.5748031496062992,
                    "duration": 0.4109589999999912
                },
                {
                    "name": "G#4",
                    "midi": 68,
                    "time": 143.83565000000002,
                    "velocity": 0.6535433070866141,
                    "duration": 0.4109589999999912
                },
                {
                    "name": "F#3",
                    "midi": 54,
                    "time": 144.246609,
                    "velocity": 0.5748031496062992,
                    "duration": 0.3082192500000076
                },
                {
                    "name": "F#4",
                    "midi": 66,
                    "time": 144.246609,
                    "velocity": 0.6535433070866141,
                    "duration": 0.3082192500000076
                },
                {
                    "name": "A2",
                    "midi": 45,
                    "time": 144.55482825,
                    "velocity": 0.6299212598425197,
                    "duration": 3.2876720000000716
                },
                {
                    "name": "A1",
                    "midi": 33,
                    "time": 144.55482825,
                    "velocity": 0.5590551181102362,
                    "duration": 3.2876720000000716
                },
                {
                    "name": "E3",
                    "midi": 52,
                    "time": 144.65756800000003,
                    "velocity": 0.6299212598425197,
                    "duration": 0.8219180000000108
                },
                {
                    "name": "E4",
                    "midi": 64,
                    "time": 144.65756800000003,
                    "velocity": 0.7086614173228346,
                    "duration": 0.8219180000000108
                },
                {
                    "name": "C#3",
                    "midi": 49,
                    "time": 145.47948600000004,
                    "velocity": 0.5433070866141733,
                    "duration": 0.8219180000000108
                },
                {
                    "name": "C#4",
                    "midi": 61,
                    "time": 145.47948600000004,
                    "velocity": 0.6141732283464567,
                    "duration": 0.8219180000000108
                },
                {
                    "name": "D#3",
                    "midi": 51,
                    "time": 146.30140400000005,
                    "velocity": 0.5275590551181102,
                    "duration": 0.8219180000000108
                },
                {
                    "name": "D#4",
                    "midi": 63,
                    "time": 146.30140400000005,
                    "velocity": 0.5905511811023622,
                    "duration": 0.8219180000000108
                },
                {
                    "name": "E3",
                    "midi": 52,
                    "time": 147.12332200000006,
                    "velocity": 0.5196850393700787,
                    "duration": 0.6164385000000152
                },
                {
                    "name": "E4",
                    "midi": 64,
                    "time": 147.12332200000006,
                    "velocity": 0.5826771653543307,
                    "duration": 0.6164385000000152
                },
                {
                    "name": "G#2",
                    "midi": 44,
                    "time": 147.84250025000009,
                    "velocity": 0.4881889763779528,
                    "duration": 1.6438360000000216
                },
                {
                    "name": "G#1",
                    "midi": 32,
                    "time": 147.84250025000009,
                    "velocity": 0.4881889763779528,
                    "duration": 1.6438360000000216
                },
                {
                    "name": "F4",
                    "midi": 65,
                    "time": 147.9452400000001,
                    "velocity": 0.4881889763779528,
                    "duration": 1.6438360000000216
                },
                {
                    "name": "B3",
                    "midi": 59,
                    "time": 147.9452400000001,
                    "velocity": 0.5590551181102362,
                    "duration": 0.8219180000000108
                },
                {
                    "name": "F3",
                    "midi": 53,
                    "time": 147.9452400000001,
                    "velocity": 0.4881889763779528,
                    "duration": 1.6438360000000216
                },
                {
                    "name": "C#4",
                    "midi": 61,
                    "time": 148.7671580000001,
                    "velocity": 0.5196850393700787,
                    "duration": 0.8219180000000108
                },
                {
                    "name": "C#2",
                    "midi": 37,
                    "time": 149.4863362500001,
                    "velocity": 0.4881889763779528,
                    "duration": 1.6438359999999932
                },
                {
                    "name": "C#1",
                    "midi": 25,
                    "time": 149.4863362500001,
                    "velocity": 0.4881889763779528,
                    "duration": 1.6438359999999932
                },
                {
                    "name": "F3",
                    "midi": 53,
                    "time": 149.58907600000012,
                    "velocity": 0.4881889763779528,
                    "duration": 1.6438359999999932
                },
                {
                    "name": "D4",
                    "midi": 62,
                    "time": 149.58907600000012,
                    "velocity": 0.5590551181102362,
                    "duration": 0.8219180000000108
                },
                {
                    "name": "G#3",
                    "midi": 56,
                    "time": 149.58907600000012,
                    "velocity": 0.4881889763779528,
                    "duration": 1.6438359999999932
                },
                {
                    "name": "C#4",
                    "midi": 61,
                    "time": 150.41099400000013,
                    "velocity": 0.5275590551181102,
                    "duration": 0.4109589999999912
                },
                {
                    "name": "B3",
                    "midi": 59,
                    "time": 150.82195300000012,
                    "velocity": 0.5039370078740157,
                    "duration": 0.3082192499999792
                },
                {
                    "name": "F#1",
                    "midi": 30,
                    "time": 151.1301722500001,
                    "velocity": 0.5039370078740157,
                    "duration": 3.2876720000000432
                },
                {
                    "name": "F#2",
                    "midi": 42,
                    "time": 151.1301722500001,
                    "velocity": 0.5039370078740157,
                    "duration": 3.2876720000000432
                },
                {
                    "name": "C#3",
                    "midi": 49,
                    "time": 151.2329120000001,
                    "velocity": 0.5039370078740157,
                    "duration": 3.2876720000000432
                },
                {
                    "name": "A3",
                    "midi": 57,
                    "time": 151.2329120000001,
                    "velocity": 0.5669291338582677,
                    "duration": 0.8219180000000108
                },
                {
                    "name": "C#4",
                    "midi": 61,
                    "time": 151.2329120000001,
                    "velocity": 0.5039370078740157,
                    "duration": 3.2876720000000432
                },
                {
                    "name": "F#3",
                    "midi": 54,
                    "time": 152.05483000000012,
                    "velocity": 0.5275590551181102,
                    "duration": 0.8219180000000108
                },
                {
                    "name": "G#3",
                    "midi": 56,
                    "time": 152.87674800000013,
                    "velocity": 0.49606299212598426,
                    "duration": 0.8219180000000108
                },
                {
                    "name": "A3",
                    "midi": 57,
                    "time": 153.69866600000015,
                    "velocity": 0.49606299212598426,
                    "duration": 0.7191782499999988
                },
                {
                    "name": "C1",
                    "midi": 24,
                    "time": 154.41784425000014,
                    "velocity": 0.48031496062992124,
                    "duration": 3.2876719999999864
                },
                {
                    "name": "C2",
                    "midi": 36,
                    "time": 154.41784425000014,
                    "velocity": 0.48031496062992124,
                    "duration": 3.2876719999999864
                },
                {
                    "name": "D#3",
                    "midi": 51,
                    "time": 154.52058400000016,
                    "velocity": 0.48031496062992124,
                    "duration": 1.6438360000000216
                },
                {
                    "name": "F#2",
                    "midi": 42,
                    "time": 154.52058400000016,
                    "velocity": 0.48031496062992124,
                    "duration": 0.8219180000000108
                },
                {
                    "name": "F#3",
                    "midi": 54,
                    "time": 154.52058400000016,
                    "velocity": 0.5433070866141733,
                    "duration": 0.8219180000000108
                },
                {
                    "name": "G#2",
                    "midi": 44,
                    "time": 155.34250200000017,
                    "velocity": 0.4409448818897638,
                    "duration": 0.8219180000000108
                },
                {
                    "name": "G#3",
                    "midi": 56,
                    "time": 155.34250200000017,
                    "velocity": 0.5039370078740157,
                    "duration": 0.8219180000000108
                },
                {
                    "name": "A3",
                    "midi": 57,
                    "time": 156.16442000000018,
                    "velocity": 0.5433070866141733,
                    "duration": 0.8219179999999824
                },
                {
                    "name": "A2",
                    "midi": 45,
                    "time": 156.16442000000018,
                    "velocity": 0.48031496062992124,
                    "duration": 0.8219179999999824
                },
                {
                    "name": "G#2",
                    "midi": 44,
                    "time": 156.98633800000016,
                    "velocity": 0.48031496062992124,
                    "duration": 0.4109589999999912
                },
                {
                    "name": "G#3",
                    "midi": 56,
                    "time": 156.98633800000016,
                    "velocity": 0.5433070866141733,
                    "duration": 0.4109589999999912
                },
                {
                    "name": "F#2",
                    "midi": 42,
                    "time": 157.39729700000015,
                    "velocity": 0.48031496062992124,
                    "duration": 0.3082192499999792
                },
                {
                    "name": "F#3",
                    "midi": 54,
                    "time": 157.39729700000015,
                    "velocity": 0.5433070866141733,
                    "duration": 0.3082192499999792
                },
                {
                    "name": "C#2",
                    "midi": 37,
                    "time": 157.70551625000013,
                    "velocity": 0.4566929133858268,
                    "duration": 1.7465757500000336
                },
                {
                    "name": "C#1",
                    "midi": 25,
                    "time": 157.70551625000013,
                    "velocity": 0.4566929133858268,
                    "duration": 3.2876720000000432
                },
                {
                    "name": "G#2",
                    "midi": 44,
                    "time": 157.80825600000014,
                    "velocity": 0.4566929133858268,
                    "duration": 3.2876720000000432
                },
                {
                    "name": "E2",
                    "midi": 40,
                    "time": 157.80825600000014,
                    "velocity": 0.4566929133858268,
                    "duration": 0.8219180000000108
                },
                {
                    "name": "E3",
                    "midi": 52,
                    "time": 157.80825600000014,
                    "velocity": 0.5039370078740157,
                    "duration": 0.8219180000000108
                },
                {
                    "name": "C#2",
                    "midi": 37,
                    "time": 158.63017400000015,
                    "velocity": 0.44881889763779526,
                    "duration": 2.3630142500000204
                },
                {
                    "name": "C#3",
                    "midi": 49,
                    "time": 158.63017400000015,
                    "velocity": 0.5039370078740157,
                    "duration": 0.8219180000000108
                },
                {
                    "name": "D#3",
                    "midi": 51,
                    "time": 159.45209200000016,
                    "velocity": 0.4881889763779528,
                    "duration": 0.8219180000000108
                },
                {
                    "name": "D#2",
                    "midi": 39,
                    "time": 159.45209200000016,
                    "velocity": 0.4094488188976378,
                    "duration": 0.8219180000000108
                },
                {
                    "name": "E3",
                    "midi": 52,
                    "time": 160.27401000000017,
                    "velocity": 0.4881889763779528,
                    "duration": 0.7191782499999988
                },
                {
                    "name": "E2",
                    "midi": 40,
                    "time": 160.27401000000017,
                    "velocity": 0.4094488188976378,
                    "duration": 0.7191782499999988
                },
                {
                    "name": "G1",
                    "midi": 31,
                    "time": 160.99318825000017,
                    "velocity": 0.4645669291338583,
                    "duration": 3.287672000000015
                },
                {
                    "name": "G2",
                    "midi": 43,
                    "time": 160.99318825000017,
                    "velocity": 0.4645669291338583,
                    "duration": 3.287672000000015
                },
                {
                    "name": "C#3",
                    "midi": 49,
                    "time": 161.09592800000019,
                    "velocity": 0.5196850393700787,
                    "duration": 1.6438359999999932
                },
                {
                    "name": "A#3",
                    "midi": 58,
                    "time": 161.09592800000019,
                    "velocity": 0.5826771653543307,
                    "duration": 1.6438359999999932
                },
                {
                    "name": "E3",
                    "midi": 52,
                    "time": 161.09592800000019,
                    "velocity": 0.5196850393700787,
                    "duration": 1.6438359999999932
                },
                {
                    "name": "C#4",
                    "midi": 61,
                    "time": 161.09592800000019,
                    "velocity": 0.5826771653543307,
                    "duration": 1.6438359999999932
                },
                {
                    "name": "D#3",
                    "midi": 51,
                    "time": 162.73976400000018,
                    "velocity": 0.44881889763779526,
                    "duration": 0.8219180000000108
                },
                {
                    "name": "C#3",
                    "midi": 49,
                    "time": 163.5616820000002,
                    "velocity": 0.41732283464566927,
                    "duration": 0.7191782499999988
                },
                {
                    "name": "G#1",
                    "midi": 32,
                    "time": 164.2808602500002,
                    "velocity": 0.3543307086614173,
                    "duration": 1.7465757500000052
                },
                {
                    "name": "G#2",
                    "midi": 44,
                    "time": 164.2808602500002,
                    "velocity": 0.36220472440944884,
                    "duration": 1.7465757500000052
                },
                {
                    "name": "G#3",
                    "midi": 56,
                    "time": 164.3836000000002,
                    "velocity": 0.3858267716535433,
                    "duration": 1.6438359999999932
                },
                {
                    "name": "G#3",
                    "midi": 56,
                    "time": 166.0274360000002,
                    "velocity": 0.3700787401574803,
                    "duration": 0.8219180000000108
                },
                {
                    "name": "G#2",
                    "midi": 44,
                    "time": 166.0274360000002,
                    "velocity": 0.36220472440944884,
                    "duration": 1.6438359999999932
                },
                {
                    "name": "F#3",
                    "midi": 54,
                    "time": 166.8493540000002,
                    "velocity": 0.3228346456692913,
                    "duration": 0.8219179999999824
                },
                {
                    "name": "C#3",
                    "midi": 49,
                    "time": 167.6712720000002,
                    "velocity": 0.30708661417322836,
                    "duration": 1.6438359999999932
                },
                {
                    "name": "E3",
                    "midi": 52,
                    "time": 167.6712720000002,
                    "velocity": 0.30708661417322836,
                    "duration": 1.6438359999999932
                },
                {
                    "name": "C#2",
                    "midi": 37,
                    "time": 169.31510800000018,
                    "velocity": 0.1889763779527559,
                    "duration": 11.50685200000001
                },
                {
                    "name": "C#1",
                    "midi": 25,
                    "time": 169.31510800000018,
                    "velocity": 0.14960629921259844,
                    "duration": 11.50685200000001
                },
                {
                    "name": "F#4",
                    "midi": 66,
                    "time": 177.5342880000002,
                    "velocity": 0.3464566929133858,
                    "duration": 0.8561645833333387
                },
                {
                    "name": "G#4",
                    "midi": 68,
                    "time": 178.3562060000002,
                    "velocity": 0.33070866141732286,
                    "duration": 0.8561645833333102
                },
                {
                    "name": "A4",
                    "midi": 69,
                    "time": 179.1781240000002,
                    "velocity": 0.36220472440944884,
                    "duration": 0.8561645833333102
                },
                {
                    "name": "G#4",
                    "midi": 68,
                    "time": 180.00004200000018,
                    "velocity": 0.3464566929133858,
                    "duration": 0.4452055833333475
                },
                {
                    "name": "F#4",
                    "midi": 66,
                    "time": 180.4110010000002,
                    "velocity": 0.3464566929133858,
                    "duration": 0.44520558333331905
                },
                {
                    "name": "E4",
                    "midi": 64,
                    "time": 180.8219600000002,
                    "velocity": 0.3700787401574803,
                    "duration": 0.8219180000000108
                },
                {
                    "name": "C#4",
                    "midi": 61,
                    "time": 181.6438780000002,
                    "velocity": 0.33070866141732286,
                    "duration": 0.8561645833333387
                },
                {
                    "name": "D#4",
                    "midi": 63,
                    "time": 182.4657960000002,
                    "velocity": 0.33070866141732286,
                    "duration": 0.8561645833333102
                },
                {
                    "name": "E4",
                    "midi": 64,
                    "time": 183.2877140000002,
                    "velocity": 0.31496062992125984,
                    "duration": 0.8219180000000108
                },
                {
                    "name": "C#4",
                    "midi": 61,
                    "time": 184.1096320000002,
                    "velocity": 0.25984251968503935,
                    "duration": 2.4657539999999756
                },
                {
                    "name": "D#4",
                    "midi": 63,
                    "time": 184.1096320000002,
                    "velocity": 0.3464566929133858,
                    "duration": 0.8561645833333387
                },
                {
                    "name": "E4",
                    "midi": 64,
                    "time": 184.93155000000021,
                    "velocity": 0.3464566929133858,
                    "duration": 0.8561645833333102
                },
                {
                    "name": "F#4",
                    "midi": 66,
                    "time": 185.7534680000002,
                    "velocity": 0.3700787401574803,
                    "duration": 1.6438359999999932
                },
                {
                    "name": "C4",
                    "midi": 60,
                    "time": 186.57538600000018,
                    "velocity": 0.2440944881889764,
                    "duration": 0.8219180000000108
                },
                {
                    "name": "E4",
                    "midi": 64,
                    "time": 187.3973040000002,
                    "velocity": 0.3464566929133858,
                    "duration": 0.8561645833333387
                },
                {
                    "name": "B3",
                    "midi": 59,
                    "time": 187.3973040000002,
                    "velocity": 0.25984251968503935,
                    "duration": 3.2876719999999864
                },
                {
                    "name": "D#4",
                    "midi": 63,
                    "time": 188.2192220000002,
                    "velocity": 0.28346456692913385,
                    "duration": 0.8561645833333102
                },
                {
                    "name": "C#4",
                    "midi": 61,
                    "time": 189.04114000000018,
                    "velocity": 0.28346456692913385,
                    "duration": 0.8219179999999824
                },
                {
                    "name": "E4",
                    "midi": 64,
                    "time": 189.86305800000017,
                    "velocity": 0.2440944881889764,
                    "duration": 0.8219180000000108
                },
                {
                    "name": "A3",
                    "midi": 57,
                    "time": 190.68497600000018,
                    "velocity": 0.2677165354330709,
                    "duration": 4.931507999999923
                },
                {
                    "name": "D#4",
                    "midi": 63,
                    "time": 190.68497600000018,
                    "velocity": 0.3464566929133858,
                    "duration": 0.8561645833333102
                },
                {
                    "name": "E4",
                    "midi": 64,
                    "time": 191.50689400000016,
                    "velocity": 0.28346456692913385,
                    "duration": 0.8561645833333102
                },
                {
                    "name": "D#4",
                    "midi": 63,
                    "time": 192.32881200000014,
                    "velocity": 0.30708661417322836,
                    "duration": 0.8561645833333102
                },
                {
                    "name": "E4",
                    "midi": 64,
                    "time": 193.15073000000012,
                    "velocity": 0.25984251968503935,
                    "duration": 0.8561645833333102
                },
                {
                    "name": "F#4",
                    "midi": 66,
                    "time": 193.9726480000001,
                    "velocity": 0.29133858267716534,
                    "duration": 3.2876719999999864
                },
                {
                    "name": "G#3",
                    "midi": 56,
                    "time": 195.6164840000001,
                    "velocity": 0.29133858267716534,
                    "duration": 1.6438359999999932
                },
                {
                    "name": "E4",
                    "midi": 64,
                    "time": 197.2603200000001,
                    "velocity": 0.31496062992125984,
                    "duration": 0.8219180000000108
                },
                {
                    "name": "A3",
                    "midi": 57,
                    "time": 197.2603200000001,
                    "velocity": 0.2677165354330709,
                    "duration": 4.931508000000008
                },
                {
                    "name": "D#4",
                    "midi": 63,
                    "time": 198.0822380000001,
                    "velocity": 0.2992125984251969,
                    "duration": 0.8561645833333387
                },
                {
                    "name": "E4",
                    "midi": 64,
                    "time": 198.9041560000001,
                    "velocity": 0.31496062992125984,
                    "duration": 0.8561645833333102
                },
                {
                    "name": "F4",
                    "midi": 65,
                    "time": 199.7260740000001,
                    "velocity": 0.28346456692913385,
                    "duration": 0.8561645833333387
                },
                {
                    "name": "F#4",
                    "midi": 66,
                    "time": 200.5479920000001,
                    "velocity": 0.36220472440944884,
                    "duration": 3.2876719999999864
                },
                {
                    "name": "G#3",
                    "midi": 56,
                    "time": 202.1918280000001,
                    "velocity": 0.31496062992125984,
                    "duration": 1.6438359999999932
                },
                {
                    "name": "A3",
                    "midi": 57,
                    "time": 203.8356640000001,
                    "velocity": 0.25984251968503935,
                    "duration": 7.397262000000012
                },
                {
                    "name": "E4",
                    "midi": 64,
                    "time": 203.8356640000001,
                    "velocity": 0.3464566929133858,
                    "duration": 0.8219180000000108
                },
                {
                    "name": "D#4",
                    "midi": 63,
                    "time": 204.6575820000001,
                    "velocity": 0.30708661417322836,
                    "duration": 0.8561645833333387
                },
                {
                    "name": "E4",
                    "midi": 64,
                    "time": 205.47950000000012,
                    "velocity": 0.3228346456692913,
                    "duration": 0.8561645833333102
                },
                {
                    "name": "F4",
                    "midi": 65,
                    "time": 206.3014180000001,
                    "velocity": 0.2992125984251969,
                    "duration": 0.8561645833333102
                },
                {
                    "name": "F#4",
                    "midi": 66,
                    "time": 207.12333600000008,
                    "velocity": 0.3700787401574803,
                    "duration": 2.465754000000004
                },
                {
                    "name": "E4",
                    "midi": 64,
                    "time": 209.58909000000008,
                    "velocity": 0.2440944881889764,
                    "duration": 0.8219180000000108
                },
                {
                    "name": "D#4",
                    "midi": 63,
                    "time": 210.4110080000001,
                    "velocity": 0.28346456692913385,
                    "duration": 2.4657540000000324
                },
                {
                    "name": "G#3",
                    "midi": 56,
                    "time": 211.2329260000001,
                    "velocity": 0.25984251968503935,
                    "duration": 0.8219180000000108
                },
                {
                    "name": "F#3",
                    "midi": 54,
                    "time": 212.05484400000012,
                    "velocity": 0.2440944881889764,
                    "duration": 1.6438360000000216
                },
                {
                    "name": "C#4",
                    "midi": 61,
                    "time": 212.87676200000013,
                    "velocity": 0.23622047244094488,
                    "duration": 0.8219180000000108
                },
                {
                    "name": "G#3",
                    "midi": 56,
                    "time": 213.69868000000014,
                    "velocity": 0.2440944881889764,
                    "duration": 3.2876719999999864
                },
                {
                    "name": "G#3",
                    "midi": 56,
                    "time": 216.98635200000012,
                    "velocity": 0.23622047244094488,
                    "duration": 1.6438359999999932
                },
                {
                    "name": "G#2",
                    "midi": 44,
                    "time": 216.98635200000012,
                    "velocity": 0.1889763779527559,
                    "duration": 3.287672000000015
                },
                {
                    "name": "F#3",
                    "midi": 54,
                    "time": 218.63018800000012,
                    "velocity": 0.1968503937007874,
                    "duration": 1.6438360000000216
                },
                {
                    "name": "E3",
                    "midi": 52,
                    "time": 220.27402400000014,
                    "velocity": 0.2283464566929134,
                    "duration": 2.0547949999999844
                },
                {
                    "name": "C#3",
                    "midi": 49,
                    "time": 220.27402400000014,
                    "velocity": 0.2047244094488189,
                    "duration": 2.0547949999999844
                },
                {
                    "name": "C#1",
                    "midi": 25,
                    "time": 221.91786000000013,
                    "velocity": 0.18110236220472442,
                    "duration": 0.4109589999999912
                },
                {
                    "name": "C#1",
                    "midi": 25,
                    "time": 225.20553200000012,
                    "velocity": 0.2125984251968504,
                    "duration": 0.4109589999999912
                },
                {
                    "name": "C#1",
                    "midi": 25,
                    "time": 228.4932040000001,
                    "velocity": 0.2125984251968504,
                    "duration": 0.4109589999999912
                },
                {
                    "name": "C#1",
                    "midi": 25,
                    "time": 231.7808760000001,
                    "velocity": 0.2125984251968504,
                    "duration": 0.4109589999999912
                },
                {
                    "name": "C#1",
                    "midi": 25,
                    "time": 235.0685480000001,
                    "velocity": 0.2047244094488189,
                    "duration": 0.4109589999999912
                },
                {
                    "name": "C3",
                    "midi": 48,
                    "time": 236.7123840000001,
                    "velocity": 0.4015748031496063,
                    "duration": 0.4109589999999912
                },
                {
                    "name": "C#1",
                    "midi": 25,
                    "time": 238.3562200000001,
                    "velocity": 0.2047244094488189,
                    "duration": 0.4109589999999912
                },
                {
                    "name": "C#3",
                    "midi": 49,
                    "time": 240.00005600000006,
                    "velocity": 0.4015748031496063,
                    "duration": 0.4109589999999912
                },
                {
                    "name": "C#1",
                    "midi": 25,
                    "time": 241.64389200000005,
                    "velocity": 0.2125984251968504,
                    "duration": 0.4109589999999912
                },
                {
                    "name": "D#3",
                    "midi": 51,
                    "time": 243.28772800000004,
                    "velocity": 0.41732283464566927,
                    "duration": 0.4109589999999912
                },
                {
                    "name": "C#1",
                    "midi": 25,
                    "time": 244.93156400000004,
                    "velocity": 0.2047244094488189,
                    "duration": 0.4109589999999912
                },
                {
                    "name": "E3",
                    "midi": 52,
                    "time": 246.57540000000003,
                    "velocity": 0.4094488188976378,
                    "duration": 0.4109589999999912
                },
                {
                    "name": "C#1",
                    "midi": 25,
                    "time": 248.21923600000002,
                    "velocity": 0.1968503937007874,
                    "duration": 0.4109589999999912
                },
                {
                    "name": "F#3",
                    "midi": 54,
                    "time": 249.86307200000002,
                    "velocity": 0.5354330708661418,
                    "duration": 0.4109590000000196
                },
                {
                    "name": "C#1",
                    "midi": 25,
                    "time": 251.50690800000004,
                    "velocity": 0.2283464566929134,
                    "duration": 0.4109589999999912
                },
                {
                    "name": "C#1",
                    "midi": 25,
                    "time": 254.79458000000002,
                    "velocity": 0.2204724409448819,
                    "duration": 0.4109589999999912
                },
                {
                    "name": "C3",
                    "midi": 48,
                    "time": 256.438416,
                    "velocity": 0.4094488188976378,
                    "duration": 0.4109589999999912
                },
                {
                    "name": "C#1",
                    "midi": 25,
                    "time": 258.082252,
                    "velocity": 0.2283464566929134,
                    "duration": 0.4109589999999912
                },
                {
                    "name": "C#1",
                    "midi": 25,
                    "time": 261.36992399999997,
                    "velocity": 0.2204724409448819,
                    "duration": 0.4109589999999912
                },
                {
                    "name": "E3",
                    "midi": 52,
                    "time": 263.01376,
                    "velocity": 0.4094488188976378,
                    "duration": 0.4109589999999912
                },
                {
                    "name": "C#1",
                    "midi": 25,
                    "time": 264.65759599999996,
                    "velocity": 0.2125984251968504,
                    "duration": 0.4109589999999912
                },
                {
                    "name": "D#3",
                    "midi": 51,
                    "time": 266.301432,
                    "velocity": 0.5354330708661418,
                    "duration": 0.4109589999999912
                },
                {
                    "name": "C#1",
                    "midi": 25,
                    "time": 267.94526799999994,
                    "velocity": 0.2047244094488189,
                    "duration": 0.4109589999999912
                },
                {
                    "name": "E3",
                    "midi": 52,
                    "time": 269.5891039999999,
                    "velocity": 0.3858267716535433,
                    "duration": 0.4109589999999912
                },
                {
                    "name": "C#1",
                    "midi": 25,
                    "time": 271.23293999999987,
                    "velocity": 0.2047244094488189,
                    "duration": 0.4109589999999912
                },
                {
                    "name": "D#3",
                    "midi": 51,
                    "time": 272.8767759999999,
                    "velocity": 0.5354330708661418,
                    "duration": 0.4109589999999912
                },
                {
                    "name": "C#1",
                    "midi": 25,
                    "time": 274.52061199999986,
                    "velocity": 0.2125984251968504,
                    "duration": 0.4109589999999912
                },
                {
                    "name": "E3",
                    "midi": 52,
                    "time": 276.1644479999998,
                    "velocity": 0.4094488188976378,
                    "duration": 0.4109589999999912
                },
                {
                    "name": "C#1",
                    "midi": 25,
                    "time": 277.8082839999998,
                    "velocity": 0.2047244094488189,
                    "duration": 0.4109589999999912
                },
                {
                    "name": "C#1",
                    "midi": 25,
                    "time": 281.0959559999998,
                    "velocity": 0.14173228346456693,
                    "duration": 0.4109589999999912
                }
            ],
            "controlChanges": {
                "7": [
                    {
                        "number": 7,
                        "time": 0,
                        "value": 0.7874015748031497
                    }
                ],
                "64": [
                    {
                        "number": 64,
                        "time": 0.0017123291666666664,
                        "value": 1
                    },
                    {
                        "number": 64,
                        "time": 2.797945858333333,
                        "value": 0
                    },
                    {
                        "number": 64,
                        "time": 3.6027405666666663,
                        "value": 1
                    },
                    {
                        "number": 64,
                        "time": 6.068494566666666,
                        "value": 0
                    },
                    {
                        "number": 64,
                        "time": 6.744864587499999,
                        "value": 1
                    },
                    {
                        "number": 64,
                        "time": 9.573632370833332,
                        "value": 0
                    },
                    {
                        "number": 64,
                        "time": 10.152399629166664,
                        "value": 1
                    },
                    {
                        "number": 64,
                        "time": 12.618153629166665,
                        "value": 0
                    },
                    {
                        "number": 64,
                        "time": 13.169523620833331,
                        "value": 1
                    },
                    {
                        "number": 64,
                        "time": 15.96918180833333,
                        "value": 0
                    },
                    {
                        "number": 64,
                        "time": 16.679798412499995,
                        "value": 1
                    },
                    {
                        "number": 64,
                        "time": 19.31507299999999,
                        "value": 0
                    },
                    {
                        "number": 64,
                        "time": 19.821922433333324,
                        "value": 1
                    },
                    {
                        "number": 64,
                        "time": 22.698635433333322,
                        "value": 0
                    },
                    {
                        "number": 64,
                        "time": 23.25514241249999,
                        "value": 1
                    },
                    {
                        "number": 64,
                        "time": 26.01199237083332,
                        "value": 0
                    },
                    {
                        "number": 64,
                        "time": 26.380143141666654,
                        "value": 1
                    },
                    {
                        "number": 64,
                        "time": 32.296240412499984,
                        "value": 0
                    },
                    {
                        "number": 64,
                        "time": 32.99487071249998,
                        "value": 1
                    },
                    {
                        "number": 64,
                        "time": 38.96918717499998,
                        "value": 0
                    },
                    {
                        "number": 64,
                        "time": 39.62158458749998,
                        "value": 1
                    },
                    {
                        "number": 64,
                        "time": 42.32877699999998,
                        "value": 0
                    },
                    {
                        "number": 64,
                        "time": 42.86131137083331,
                        "value": 1
                    },
                    {
                        "number": 64,
                        "time": 45.56850378333331,
                        "value": 0
                    },
                    {
                        "number": 64,
                        "time": 46.36644917499998,
                        "value": 1
                    },
                    {
                        "number": 64,
                        "time": 48.832203174999975,
                        "value": 0
                    },
                    {
                        "number": 64,
                        "time": 49.63014856666664,
                        "value": 1
                    },
                    {
                        "number": 64,
                        "time": 51.902409370833304,
                        "value": 0
                    },
                    {
                        "number": 64,
                        "time": 52.626724608333305,
                        "value": 1
                    },
                    {
                        "number": 64,
                        "time": 59.81679477916664,
                        "value": 0
                    },
                    {
                        "number": 64,
                        "time": 75.73460671249993,
                        "value": 1
                    },
                    {
                        "number": 64,
                        "time": 77.69008662083326,
                        "value": 0
                    },
                    {
                        "number": 64,
                        "time": 78.99488144583324,
                        "value": 1
                    },
                    {
                        "number": 64,
                        "time": 81.0051558874999,
                        "value": 0
                    },
                    {
                        "number": 64,
                        "time": 82.60275899999989,
                        "value": 1
                    },
                    {
                        "number": 64,
                        "time": 85.94865019166654,
                        "value": 0
                    },
                    {
                        "number": 64,
                        "time": 87.24145871249988,
                        "value": 1
                    },
                    {
                        "number": 64,
                        "time": 88.33734937916654,
                        "value": 0
                    },
                    {
                        "number": 64,
                        "time": 88.92296595416654,
                        "value": 1
                    },
                    {
                        "number": 64,
                        "time": 91.82022690416653,
                        "value": 0
                    },
                    {
                        "number": 64,
                        "time": 93.8356383333332,
                        "value": 1
                    },
                    {
                        "number": 64,
                        "time": 94.93152899999986,
                        "value": 0
                    },
                    {
                        "number": 64,
                        "time": 95.57707709583319,
                        "value": 1
                    },
                    {
                        "number": 64,
                        "time": 98.27742019166651,
                        "value": 0
                    },
                    {
                        "number": 64,
                        "time": 103.60790088749982,
                        "value": 1
                    },
                    {
                        "number": 64,
                        "time": 104.65755866666649,
                        "value": 0
                    },
                    {
                        "number": 64,
                        "time": 105.66269588749982,
                        "value": 1
                    },
                    {
                        "number": 64,
                        "time": 106.57536733333316,
                        "value": 0
                    },
                    {
                        "number": 64,
                        "time": 108.49317599999982,
                        "value": 1
                    },
                    {
                        "number": 64,
                        "time": 110.20892982499981,
                        "value": 0
                    },
                    {
                        "number": 64,
                        "time": 110.33050519583314,
                        "value": 1
                    },
                    {
                        "number": 64,
                        "time": 111.78084799999982,
                        "value": 0
                    },
                    {
                        "number": 64,
                        "time": 112.92297155416648,
                        "value": 1
                    },
                    {
                        "number": 64,
                        "time": 114.38358833333315,
                        "value": 0
                    },
                    {
                        "number": 64,
                        "time": 115.27399949999982,
                        "value": 1
                    },
                    {
                        "number": 64,
                        "time": 116.78427382499981,
                        "value": 0
                    },
                    {
                        "number": 64,
                        "time": 116.90584919583314,
                        "value": 1
                    },
                    {
                        "number": 64,
                        "time": 118.35619199999982,
                        "value": 0
                    },
                    {
                        "number": 64,
                        "time": 119.49831555416648,
                        "value": 1
                    },
                    {
                        "number": 64,
                        "time": 120.95893233333315,
                        "value": 0
                    },
                    {
                        "number": 64,
                        "time": 121.38358996666649,
                        "value": 1
                    },
                    {
                        "number": 64,
                        "time": 123.35961782499982,
                        "value": 0
                    },
                    {
                        "number": 64,
                        "time": 123.48119319583314,
                        "value": 1
                    },
                    {
                        "number": 64,
                        "time": 124.93153599999982,
                        "value": 0
                    },
                    {
                        "number": 64,
                        "time": 126.07365955416648,
                        "value": 1
                    },
                    {
                        "number": 64,
                        "time": 127.53427633333315,
                        "value": 0
                    },
                    {
                        "number": 64,
                        "time": 128.42468749999983,
                        "value": 1
                    },
                    {
                        "number": 64,
                        "time": 129.93496182499985,
                        "value": 0
                    },
                    {
                        "number": 64,
                        "time": 130.0565371958332,
                        "value": 1
                    },
                    {
                        "number": 64,
                        "time": 131.50687999999982,
                        "value": 0
                    },
                    {
                        "number": 64,
                        "time": 132.6490035541665,
                        "value": 1
                    },
                    {
                        "number": 64,
                        "time": 134.1096203333332,
                        "value": 0
                    },
                    {
                        "number": 64,
                        "time": 134.67297662916653,
                        "value": 1
                    },
                    {
                        "number": 64,
                        "time": 136.5103058249999,
                        "value": 0
                    },
                    {
                        "number": 64,
                        "time": 136.63188119583324,
                        "value": 1
                    },
                    {
                        "number": 64,
                        "time": 137.93153903333322,
                        "value": 0
                    },
                    {
                        "number": 64,
                        "time": 138.0154431624999,
                        "value": 1
                    },
                    {
                        "number": 64,
                        "time": 140.68496433333328,
                        "value": 0
                    },
                    {
                        "number": 64,
                        "time": 141.2551699458333,
                        "value": 1
                    },
                    {
                        "number": 64,
                        "time": 142.0103071083333,
                        "value": 0
                    },
                    {
                        "number": 64,
                        "time": 142.05825232499998,
                        "value": 1
                    },
                    {
                        "number": 64,
                        "time": 142.8442114125,
                        "value": 0
                    },
                    {
                        "number": 64,
                        "time": 142.982910075,
                        "value": 1
                    },
                    {
                        "number": 64,
                        "time": 143.64215680416666,
                        "value": 0
                    },
                    {
                        "number": 64,
                        "time": 143.73291025,
                        "value": 1
                    },
                    {
                        "number": 64,
                        "time": 144.50688303333334,
                        "value": 0
                    },
                    {
                        "number": 64,
                        "time": 144.65756800000003,
                        "value": 1
                    },
                    {
                        "number": 64,
                        "time": 147.2603083333334,
                        "value": 0
                    },
                    {
                        "number": 64,
                        "time": 147.9452400000001,
                        "value": 1
                    },
                    {
                        "number": 64,
                        "time": 149.2500348250001,
                        "value": 0
                    },
                    {
                        "number": 64,
                        "time": 149.56510339166678,
                        "value": 1
                    },
                    {
                        "number": 64,
                        "time": 150.91784343333345,
                        "value": 0
                    },
                    {
                        "number": 64,
                        "time": 151.41613122083345,
                        "value": 1
                    },
                    {
                        "number": 64,
                        "time": 153.88188522083348,
                        "value": 0
                    },
                    {
                        "number": 64,
                        "time": 154.52058400000016,
                        "value": 1
                    },
                    {
                        "number": 64,
                        "time": 155.82537882500017,
                        "value": 0
                    },
                    {
                        "number": 64,
                        "time": 156.2603104333335,
                        "value": 1
                    },
                    {
                        "number": 64,
                        "time": 157.49318743333347,
                        "value": 0
                    },
                    {
                        "number": 64,
                        "time": 158.8133932208335,
                        "value": 1
                    },
                    {
                        "number": 64,
                        "time": 160.4572292208335,
                        "value": 0
                    },
                    {
                        "number": 64,
                        "time": 161.36990066666687,
                        "value": 1
                    },
                    {
                        "number": 64,
                        "time": 162.3288050000002,
                        "value": 0
                    },
                    {
                        "number": 64,
                        "time": 164.6764082875002,
                        "value": 1
                    },
                    {
                        "number": 64,
                        "time": 166.00860037916686,
                        "value": 0
                    },
                    {
                        "number": 64,
                        "time": 166.20380590416687,
                        "value": 1
                    },
                    {
                        "number": 64,
                        "time": 167.3579157625002,
                        "value": 0
                    },
                    {
                        "number": 64,
                        "time": 168.12846388750017,
                        "value": 1
                    },
                    {
                        "number": 64,
                        "time": 173.3527801750002,
                        "value": 0
                    },
                    {
                        "number": 64,
                        "time": 173.4966158250002,
                        "value": 1
                    },
                    {
                        "number": 64,
                        "time": 175.14045182500018,
                        "value": 0
                    },
                    {
                        "number": 64,
                        "time": 175.4794930000002,
                        "value": 1
                    },
                    {
                        "number": 64,
                        "time": 177.5342880000002,
                        "value": 0
                    },
                    {
                        "number": 64,
                        "time": 177.67983597916688,
                        "value": 1
                    },
                    {
                        "number": 64,
                        "time": 180.33908317500018,
                        "value": 0
                    },
                    {
                        "number": 64,
                        "time": 181.46065877916686,
                        "value": 1
                    },
                    {
                        "number": 64,
                        "time": 183.42470033333353,
                        "value": 0
                    },
                    {
                        "number": 64,
                        "time": 184.22778271250021,
                        "value": 1
                    },
                    {
                        "number": 64,
                        "time": 186.18326262083352,
                        "value": 0
                    },
                    {
                        "number": 64,
                        "time": 187.48805744583353,
                        "value": 1
                    },
                    {
                        "number": 64,
                        "time": 189.49833188750017,
                        "value": 0
                    },
                    {
                        "number": 64,
                        "time": 191.09593500000017,
                        "value": 1
                    },
                    {
                        "number": 64,
                        "time": 194.44182619166676,
                        "value": 0
                    },
                    {
                        "number": 64,
                        "time": 195.7346347125001,
                        "value": 1
                    },
                    {
                        "number": 64,
                        "time": 196.83052537916677,
                        "value": 0
                    },
                    {
                        "number": 64,
                        "time": 197.41614195416676,
                        "value": 1
                    },
                    {
                        "number": 64,
                        "time": 200.31340290416676,
                        "value": 0
                    },
                    {
                        "number": 64,
                        "time": 202.32881433333344,
                        "value": 1
                    },
                    {
                        "number": 64,
                        "time": 203.4247050000001,
                        "value": 0
                    },
                    {
                        "number": 64,
                        "time": 204.07025309583344,
                        "value": 1
                    },
                    {
                        "number": 64,
                        "time": 206.77059619166675,
                        "value": 0
                    },
                    {
                        "number": 64,
                        "time": 212.1010768875001,
                        "value": 1
                    },
                    {
                        "number": 64,
                        "time": 213.1507346666668,
                        "value": 0
                    },
                    {
                        "number": 64,
                        "time": 214.15587188750013,
                        "value": 1
                    },
                    {
                        "number": 64,
                        "time": 215.06854333333345,
                        "value": 0
                    },
                    {
                        "number": 64,
                        "time": 217.39731100000012,
                        "value": 1
                    },
                    {
                        "number": 64,
                        "time": 218.63018800000012,
                        "value": 0
                    },
                    {
                        "number": 64,
                        "time": 218.9041606666668,
                        "value": 1
                    },
                    {
                        "number": 64,
                        "time": 219.95381844583346,
                        "value": 0
                    },
                    {
                        "number": 64,
                        "time": 220.61306517500014,
                        "value": 1
                    },
                    {
                        "number": 64,
                        "time": 223.0291616291668,
                        "value": 0
                    },
                    {
                        "number": 64,
                        "time": 223.56169600000013,
                        "value": 1
                    },
                    {
                        "number": 64,
                        "time": 226.35964185833345,
                        "value": 0
                    },
                    {
                        "number": 64,
                        "time": 227.16443656666678,
                        "value": 1
                    },
                    {
                        "number": 64,
                        "time": 229.63019056666676,
                        "value": 0
                    },
                    {
                        "number": 64,
                        "time": 230.3065605875001,
                        "value": 1
                    },
                    {
                        "number": 64,
                        "time": 232.98978039166676,
                        "value": 0
                    },
                    {
                        "number": 64,
                        "time": 233.71409562916676,
                        "value": 1
                    },
                    {
                        "number": 64,
                        "time": 236.17984962916677,
                        "value": 0
                    },
                    {
                        "number": 64,
                        "time": 236.73121962083343,
                        "value": 1
                    },
                    {
                        "number": 64,
                        "time": 239.57026137916674,
                        "value": 0
                    },
                    {
                        "number": 64,
                        "time": 240.24149441250006,
                        "value": 1
                    },
                    {
                        "number": 64,
                        "time": 242.6113579791667,
                        "value": 0
                    },
                    {
                        "number": 64,
                        "time": 243.38361843333337,
                        "value": 1
                    },
                    {
                        "number": 64,
                        "time": 245.94697519583337,
                        "value": 0
                    },
                    {
                        "number": 64,
                        "time": 246.81683841250003,
                        "value": 1
                    },
                    {
                        "number": 64,
                        "time": 249.40416778333335,
                        "value": 0
                    },
                    {
                        "number": 64,
                        "time": 249.9418391416667,
                        "value": 1
                    },
                    {
                        "number": 64,
                        "time": 255.8579364125,
                        "value": 0
                    },
                    {
                        "number": 64,
                        "time": 256.5565667125,
                        "value": 1
                    },
                    {
                        "number": 64,
                        "time": 262.530883175,
                        "value": 0
                    },
                    {
                        "number": 64,
                        "time": 263.1832805875,
                        "value": 1
                    },
                    {
                        "number": 64,
                        "time": 265.72095241249997,
                        "value": 0
                    },
                    {
                        "number": 64,
                        "time": 266.4230073708333,
                        "value": 1
                    },
                    {
                        "number": 64,
                        "time": 269.13019978333324,
                        "value": 0
                    },
                    {
                        "number": 64,
                        "time": 269.9281451749999,
                        "value": 1
                    },
                    {
                        "number": 64,
                        "time": 272.3938991749999,
                        "value": 0
                    },
                    {
                        "number": 64,
                        "time": 273.19184456666653,
                        "value": 1
                    },
                    {
                        "number": 64,
                        "time": 275.8014342166665,
                        "value": 0
                    },
                    {
                        "number": 64,
                        "time": 276.18842060833316,
                        "value": 1
                    },
                    {
                        "number": 64,
                        "time": 282.13533980416645,
                        "value": 0
                    }
                ],
                "91": [
                    {
                        "number": 91,
                        "time": 0,
                        "value": 1
                    },
                    {
                        "number": 91,
                        "time": 0,
                        "value": 1
                    }
                ]
            },
            "id": 2,
            "name": "Piano left",
            "instrumentNumber": 0,
            "instrument": "acoustic grand piano",
            "instrumentFamily": "piano",
            "channelNumber": 0,
            "isPercussion": false
        },
        {
            "startTime": 0,
            "duration": 0,
            "length": 0,
            "notes": [],
            "controlChanges": {},
            "id": 3,
            "name": "Borodin: Petite Suite, Im Kloster"
        },
        {
            "startTime": 0,
            "duration": 0,
            "length": 0,
            "notes": [],
            "controlChanges": {},
            "id": 4,
            "name": "Copyright  2000 by Bernd Krger"
        },
        {
            "startTime": 0,
            "duration": 0,
            "length": 0,
            "notes": [],
            "controlChanges": {},
            "id": 5,
            "name": "email: bernd.krueger@piano-midi.de"
        },
        {
            "startTime": 0,
            "duration": 0,
            "length": 0,
            "notes": [],
            "controlChanges": {},
            "id": 6,
            "name": "http://www.piano-midi.de"
        },
        {
            "startTime": 0,
            "duration": 0,
            "length": 0,
            "notes": [],
            "controlChanges": {},
            "id": 7,
            "name": "Edition: 21.8.00"
        }
    ]
}