{
    "header": {
        "PPQ": 480,
        "timeSignature": [
            3,
            4
        ],
        "bpm": 78.53999387388048,
        "name": "Intermezzo"
    },
    "startTime": 0,
    "duration": 148.9686900000003,
    "tracks": [
        {
            "startTime": 0,
            "duration": 0,
            "length": 0,
            "notes": [],
            "controlChanges": {},
            "id": 0,
            "name": "Intermezzo"
        },
        {
            "startTime": 1.527884,
            "duration": 148.96869000000018,
            "length": 502,
            "notes": [
                {
                    "name": "B4",
                    "midi": 71,
                    "time": 1.527884,
                    "velocity": 0.41732283464566927,
                    "duration": 0.7639419999999999
                },
                {
                    "name": "B3",
                    "midi": 59,
                    "time": 1.527884,
                    "velocity": 0.3464566929133858,
                    "duration": 0.7639419999999999
                },
                {
                    "name": "G#4",
                    "midi": 68,
                    "time": 1.527884,
                    "velocity": 0.3464566929133858,
                    "duration": 0.7639419999999999
                },
                {
                    "name": "C4",
                    "midi": 60,
                    "time": 2.291826,
                    "velocity": 0.3228346456692913,
                    "duration": 0.7639420000000001
                },
                {
                    "name": "G#4",
                    "midi": 68,
                    "time": 2.291826,
                    "velocity": 0.3228346456692913,
                    "duration": 0.7639420000000001
                },
                {
                    "name": "B4",
                    "midi": 71,
                    "time": 2.291826,
                    "velocity": 0.3858267716535433,
                    "duration": 0.7639420000000001
                },
                {
                    "name": "C#4",
                    "midi": 61,
                    "time": 3.055768,
                    "velocity": 0.28346456692913385,
                    "duration": 0.7639420000000001
                },
                {
                    "name": "F#4",
                    "midi": 66,
                    "time": 3.055768,
                    "velocity": 0.28346456692913385,
                    "duration": 0.7639420000000001
                },
                {
                    "name": "A4",
                    "midi": 69,
                    "time": 3.055768,
                    "velocity": 0.3464566929133858,
                    "duration": 0.7639420000000001
                },
                {
                    "name": "F#4",
                    "midi": 66,
                    "time": 3.81971,
                    "velocity": 0.28346456692913385,
                    "duration": 0.7639419999999997
                },
                {
                    "name": "D4",
                    "midi": 62,
                    "time": 3.81971,
                    "velocity": 0.33858267716535434,
                    "duration": 0.3819709999999996
                },
                {
                    "name": "A4",
                    "midi": 69,
                    "time": 3.81971,
                    "velocity": 0.28346456692913385,
                    "duration": 0.7639419999999997
                },
                {
                    "name": "D#4",
                    "midi": 63,
                    "time": 4.201681,
                    "velocity": 0.36220472440944884,
                    "duration": 0.38197100000000006
                },
                {
                    "name": "A4",
                    "midi": 69,
                    "time": 4.583652,
                    "velocity": 0.2283464566929134,
                    "duration": 0.7639420000000001
                },
                {
                    "name": "F#4",
                    "midi": 66,
                    "time": 4.583652,
                    "velocity": 0.3858267716535433,
                    "duration": 0.38197100000000006
                },
                {
                    "name": "E4",
                    "midi": 64,
                    "time": 4.965623,
                    "velocity": 0.28346456692913385,
                    "duration": 0.38197100000000006
                },
                {
                    "name": "G#4",
                    "midi": 68,
                    "time": 5.347594,
                    "velocity": 0.2992125984251969,
                    "duration": 0.7321110833333337
                },
                {
                    "name": "B3",
                    "midi": 59,
                    "time": 5.347594,
                    "velocity": 0.33070866141732286,
                    "duration": 0.38197100000000006
                },
                {
                    "name": "G#3",
                    "midi": 56,
                    "time": 5.729565,
                    "velocity": 0.28346456692913385,
                    "duration": 0.3501400833333337
                },
                {
                    "name": "G#3",
                    "midi": 56,
                    "time": 6.111536,
                    "velocity": 0.30708661417322836,
                    "duration": 0.7639420000000001
                },
                {
                    "name": "E4",
                    "midi": 64,
                    "time": 6.111536,
                    "velocity": 0.30708661417322836,
                    "duration": 0.7639420000000001
                },
                {
                    "name": "G#4",
                    "midi": 68,
                    "time": 6.111536,
                    "velocity": 0.3779527559055118,
                    "duration": 0.7639420000000001
                },
                {
                    "name": "G#4",
                    "midi": 68,
                    "time": 6.875478,
                    "velocity": 0.36220472440944884,
                    "duration": 0.7639420000000001
                },
                {
                    "name": "A3",
                    "midi": 57,
                    "time": 6.875478,
                    "velocity": 0.30708661417322836,
                    "duration": 0.7639420000000001
                },
                {
                    "name": "E4",
                    "midi": 64,
                    "time": 6.875478,
                    "velocity": 0.30708661417322836,
                    "duration": 0.7639420000000001
                },
                {
                    "name": "A#3",
                    "midi": 58,
                    "time": 7.63942,
                    "velocity": 0.30708661417322836,
                    "duration": 0.7639419999999992
                },
                {
                    "name": "E4",
                    "midi": 64,
                    "time": 7.63942,
                    "velocity": 0.30708661417322836,
                    "duration": 0.7639419999999992
                },
                {
                    "name": "F#4",
                    "midi": 66,
                    "time": 7.63942,
                    "velocity": 0.36220472440944884,
                    "duration": 0.7639419999999992
                },
                {
                    "name": "E4",
                    "midi": 64,
                    "time": 8.403362,
                    "velocity": 0.29133858267716534,
                    "duration": 0.7639420000000001
                },
                {
                    "name": "F4",
                    "midi": 65,
                    "time": 8.403362,
                    "velocity": 0.3543307086614173,
                    "duration": 0.38197100000000006
                },
                {
                    "name": "A#3",
                    "midi": 58,
                    "time": 8.403362,
                    "velocity": 0.23622047244094488,
                    "duration": 0.7639420000000001
                },
                {
                    "name": "F#4",
                    "midi": 66,
                    "time": 8.785333,
                    "velocity": 0.3700787401574803,
                    "duration": 0.38197100000000006
                },
                {
                    "name": "A4",
                    "midi": 69,
                    "time": 9.167304,
                    "velocity": 0.3779527559055118,
                    "duration": 0.38197100000000006
                },
                {
                    "name": "D#4",
                    "midi": 63,
                    "time": 9.167304,
                    "velocity": 0.28346456692913385,
                    "duration": 0.7639420000000001
                },
                {
                    "name": "A3",
                    "midi": 57,
                    "time": 9.167304,
                    "velocity": 0.2047244094488189,
                    "duration": 0.7639420000000001
                },
                {
                    "name": "F#4",
                    "midi": 66,
                    "time": 9.549275,
                    "velocity": 0.3464566929133858,
                    "duration": 0.38197100000000006
                },
                {
                    "name": "A3",
                    "midi": 57,
                    "time": 9.931246,
                    "velocity": 0.3543307086614173,
                    "duration": 0.7321110833333329
                },
                {
                    "name": "E4",
                    "midi": 64,
                    "time": 9.931246,
                    "velocity": 0.3543307086614173,
                    "duration": 0.38197100000000006
                },
                {
                    "name": "D#4",
                    "midi": 63,
                    "time": 10.313217,
                    "velocity": 0.2992125984251969,
                    "duration": 0.3501400833333328
                },
                {
                    "name": "C#5",
                    "midi": 73,
                    "time": 10.695188,
                    "velocity": 0.44881889763779526,
                    "duration": 0.7639420000000001
                },
                {
                    "name": "C#4",
                    "midi": 61,
                    "time": 10.695188,
                    "velocity": 0.3779527559055118,
                    "duration": 0.7639420000000001
                },
                {
                    "name": "A4",
                    "midi": 69,
                    "time": 10.695188,
                    "velocity": 0.3779527559055118,
                    "duration": 0.7639420000000001
                },
                {
                    "name": "D4",
                    "midi": 62,
                    "time": 11.45913,
                    "velocity": 0.3779527559055118,
                    "duration": 0.7639420000000001
                },
                {
                    "name": "A4",
                    "midi": 69,
                    "time": 11.45913,
                    "velocity": 0.3779527559055118,
                    "duration": 0.7639420000000001
                },
                {
                    "name": "C#5",
                    "midi": 73,
                    "time": 11.45913,
                    "velocity": 0.44881889763779526,
                    "duration": 0.7639420000000001
                },
                {
                    "name": "A4",
                    "midi": 69,
                    "time": 12.223072,
                    "velocity": 0.3700787401574803,
                    "duration": 0.7639420000000001
                },
                {
                    "name": "D#4",
                    "midi": 63,
                    "time": 12.223072,
                    "velocity": 0.3700787401574803,
                    "duration": 0.7639420000000001
                },
                {
                    "name": "B4",
                    "midi": 71,
                    "time": 12.223072,
                    "velocity": 0.4409448818897638,
                    "duration": 0.7639420000000001
                },
                {
                    "name": "G#4",
                    "midi": 68,
                    "time": 12.987014,
                    "velocity": 0.3464566929133858,
                    "duration": 0.7639420000000001
                },
                {
                    "name": "E4",
                    "midi": 64,
                    "time": 12.987014,
                    "velocity": 0.41732283464566927,
                    "duration": 0.4456328333333328
                },
                {
                    "name": "B4",
                    "midi": 71,
                    "time": 12.987014,
                    "velocity": 0.3464566929133858,
                    "duration": 0.7639420000000001
                },
                {
                    "name": "F4",
                    "midi": 65,
                    "time": 13.368985,
                    "velocity": 0.41732283464566927,
                    "duration": 0.38197100000000006
                },
                {
                    "name": "G#4",
                    "midi": 68,
                    "time": 13.750956,
                    "velocity": 0.4330708661417323,
                    "duration": 0.38197100000000006
                },
                {
                    "name": "B4",
                    "midi": 71,
                    "time": 13.750956,
                    "velocity": 0.3937007874015748,
                    "duration": 0.7639420000000001
                },
                {
                    "name": "F#4",
                    "midi": 66,
                    "time": 14.132927,
                    "velocity": 0.3543307086614173,
                    "duration": 0.38197100000000006
                },
                {
                    "name": "A4",
                    "midi": 69,
                    "time": 14.514898,
                    "velocity": 0.36220472440944884,
                    "duration": 0.7321110833333329
                },
                {
                    "name": "C#4",
                    "midi": 61,
                    "time": 14.514898,
                    "velocity": 0.3858267716535433,
                    "duration": 0.38197100000000006
                },
                {
                    "name": "A3",
                    "midi": 57,
                    "time": 14.896869,
                    "velocity": 0.3464566929133858,
                    "duration": 0.3501400833333328
                },
                {
                    "name": "F#4",
                    "midi": 66,
                    "time": 15.27884,
                    "velocity": 0.3228346456692913,
                    "duration": 0.7639419999999983
                },
                {
                    "name": "C4",
                    "midi": 60,
                    "time": 15.27884,
                    "velocity": 0.3228346456692913,
                    "duration": 0.7639419999999983
                },
                {
                    "name": "A4",
                    "midi": 69,
                    "time": 15.27884,
                    "velocity": 0.3858267716535433,
                    "duration": 0.7639419999999983
                },
                {
                    "name": "F#4",
                    "midi": 66,
                    "time": 16.042782,
                    "velocity": 0.28346456692913385,
                    "duration": 0.7639420000000001
                },
                {
                    "name": "B3",
                    "midi": 59,
                    "time": 16.042782,
                    "velocity": 0.28346456692913385,
                    "duration": 0.7639420000000001
                },
                {
                    "name": "A4",
                    "midi": 69,
                    "time": 16.042782,
                    "velocity": 0.3464566929133858,
                    "duration": 0.7639420000000001
                },
                {
                    "name": "F#4",
                    "midi": 66,
                    "time": 16.806724,
                    "velocity": 0.29133858267716534,
                    "duration": 0.7639420000000001
                },
                {
                    "name": "G#4",
                    "midi": 68,
                    "time": 16.806724,
                    "velocity": 0.36220472440944884,
                    "duration": 0.7639420000000001
                },
                {
                    "name": "C4",
                    "midi": 60,
                    "time": 16.806724,
                    "velocity": 0.29133858267716534,
                    "duration": 0.7639420000000001
                },
                {
                    "name": "C#4",
                    "midi": 61,
                    "time": 17.570666,
                    "velocity": 0.30708661417322836,
                    "duration": 0.7639420000000001
                },
                {
                    "name": "E4",
                    "midi": 64,
                    "time": 17.570666,
                    "velocity": 0.30708661417322836,
                    "duration": 0.7639420000000001
                },
                {
                    "name": "G#4",
                    "midi": 68,
                    "time": 17.570666,
                    "velocity": 0.3700787401574803,
                    "duration": 1.5278840000000002
                },
                {
                    "name": "D#4",
                    "midi": 63,
                    "time": 18.334608,
                    "velocity": 0.28346456692913385,
                    "duration": 0.7639420000000001
                },
                {
                    "name": "G#3",
                    "midi": 56,
                    "time": 18.334608,
                    "velocity": 0.28346456692913385,
                    "duration": 0.7639420000000001
                },
                {
                    "name": "C4",
                    "midi": 60,
                    "time": 18.334608,
                    "velocity": 0.28346456692913385,
                    "duration": 0.7639420000000001
                },
                {
                    "name": "G#3",
                    "midi": 56,
                    "time": 19.09855,
                    "velocity": 0.2677165354330709,
                    "duration": 0.716195625000001
                },
                {
                    "name": "C#4",
                    "midi": 61,
                    "time": 19.09855,
                    "velocity": 0.2677165354330709,
                    "duration": 0.716195625000001
                },
                {
                    "name": "F4",
                    "midi": 65,
                    "time": 19.09855,
                    "velocity": 0.31496062992125984,
                    "duration": 0.716195625000001
                },
                {
                    "name": "G#4",
                    "midi": 68,
                    "time": 19.09855,
                    "velocity": 0.31496062992125984,
                    "duration": 0.716195625000001
                },
                {
                    "name": "G#5",
                    "midi": 80,
                    "time": 19.862492,
                    "velocity": 0.3464566929133858,
                    "duration": 1.5278840000000002
                },
                {
                    "name": "G#4",
                    "midi": 68,
                    "time": 19.862492,
                    "velocity": 0.28346456692913385,
                    "duration": 0.7639420000000001
                },
                {
                    "name": "C#5",
                    "midi": 73,
                    "time": 19.862492,
                    "velocity": 0.28346456692913385,
                    "duration": 0.7639420000000001
                },
                {
                    "name": "C5",
                    "midi": 72,
                    "time": 20.626434,
                    "velocity": 0.30708661417322836,
                    "duration": 0.7639420000000001
                },
                {
                    "name": "G#4",
                    "midi": 68,
                    "time": 20.626434,
                    "velocity": 0.30708661417322836,
                    "duration": 0.7639420000000001
                },
                {
                    "name": "D#5",
                    "midi": 75,
                    "time": 20.626434,
                    "velocity": 0.30708661417322836,
                    "duration": 0.7639420000000001
                },
                {
                    "name": "G#4",
                    "midi": 68,
                    "time": 21.390376,
                    "velocity": 0.29133858267716534,
                    "duration": 0.7639420000000001
                },
                {
                    "name": "C#5",
                    "midi": 73,
                    "time": 21.390376,
                    "velocity": 0.29133858267716534,
                    "duration": 0.7639420000000001
                },
                {
                    "name": "F5",
                    "midi": 77,
                    "time": 21.390376,
                    "velocity": 0.36220472440944884,
                    "duration": 0.7639420000000001
                },
                {
                    "name": "G#5",
                    "midi": 80,
                    "time": 21.390376,
                    "velocity": 0.36220472440944884,
                    "duration": 0.7639420000000001
                },
                {
                    "name": "A#4",
                    "midi": 70,
                    "time": 22.154318,
                    "velocity": 0.30708661417322836,
                    "duration": 0.7639420000000001
                },
                {
                    "name": "F#5",
                    "midi": 78,
                    "time": 22.154318,
                    "velocity": 0.41732283464566927,
                    "duration": 0.4138019166666673
                },
                {
                    "name": "A#5",
                    "midi": 82,
                    "time": 22.154318,
                    "velocity": 0.30708661417322836,
                    "duration": 0.7639420000000001
                },
                {
                    "name": "C#5",
                    "midi": 73,
                    "time": 22.536289,
                    "velocity": 0.3858267716535433,
                    "duration": 0.38197100000000006
                },
                {
                    "name": "G#4",
                    "midi": 68,
                    "time": 22.91826,
                    "velocity": 0.28346456692913385,
                    "duration": 0.7639420000000001
                },
                {
                    "name": "F5",
                    "midi": 77,
                    "time": 22.91826,
                    "velocity": 0.41732283464566927,
                    "duration": 0.4138019166666673
                },
                {
                    "name": "G#5",
                    "midi": 80,
                    "time": 22.91826,
                    "velocity": 0.33070866141732286,
                    "duration": 0.7639420000000001
                },
                {
                    "name": "C#5",
                    "midi": 73,
                    "time": 23.300231,
                    "velocity": 0.3858267716535433,
                    "duration": 0.4138019166666673
                },
                {
                    "name": "C5",
                    "midi": 72,
                    "time": 23.682202,
                    "velocity": 0.4094488188976378,
                    "duration": 0.4138019166666673
                },
                {
                    "name": "G#5",
                    "midi": 80,
                    "time": 23.682202,
                    "velocity": 0.31496062992125984,
                    "duration": 0.7639420000000001
                },
                {
                    "name": "G#4",
                    "midi": 68,
                    "time": 23.682202,
                    "velocity": 0.2677165354330709,
                    "duration": 0.7639420000000001
                },
                {
                    "name": "D#5",
                    "midi": 75,
                    "time": 24.064173,
                    "velocity": 0.3779527559055118,
                    "duration": 0.38197100000000006
                },
                {
                    "name": "G#4",
                    "midi": 68,
                    "time": 24.446144,
                    "velocity": 0.30708661417322836,
                    "duration": 1.5278840000000002
                },
                {
                    "name": "C#5",
                    "midi": 73,
                    "time": 24.446144,
                    "velocity": 0.30708661417322836,
                    "duration": 0.7639420000000001
                },
                {
                    "name": "G#5",
                    "midi": 80,
                    "time": 24.446144,
                    "velocity": 0.3700787401574803,
                    "duration": 0.7639420000000001
                },
                {
                    "name": "G#5",
                    "midi": 80,
                    "time": 25.210086,
                    "velocity": 0.44881889763779526,
                    "duration": 0.7639420000000001
                },
                {
                    "name": "C5",
                    "midi": 72,
                    "time": 25.210086,
                    "velocity": 0.3779527559055118,
                    "duration": 0.7639420000000001
                },
                {
                    "name": "D#5",
                    "midi": 75,
                    "time": 25.210086,
                    "velocity": 0.3779527559055118,
                    "duration": 0.7639420000000001
                },
                {
                    "name": "G#4",
                    "midi": 68,
                    "time": 25.974028,
                    "velocity": 0.3464566929133858,
                    "duration": 0.7639420000000001
                },
                {
                    "name": "B4",
                    "midi": 71,
                    "time": 25.974028,
                    "velocity": 0.3464566929133858,
                    "duration": 0.7639420000000001
                },
                {
                    "name": "F5",
                    "midi": 77,
                    "time": 25.974028,
                    "velocity": 0.3464566929133858,
                    "duration": 0.7639420000000001
                },
                {
                    "name": "G#5",
                    "midi": 80,
                    "time": 25.974028,
                    "velocity": 0.4094488188976378,
                    "duration": 0.7639420000000001
                },
                {
                    "name": "A5",
                    "midi": 81,
                    "time": 26.73797,
                    "velocity": 0.5196850393700787,
                    "duration": 0.4138019166666673
                },
                {
                    "name": "F#5",
                    "midi": 78,
                    "time": 26.73797,
                    "velocity": 0.4330708661417323,
                    "duration": 0.4138019166666673
                },
                {
                    "name": "A4",
                    "midi": 69,
                    "time": 26.73797,
                    "velocity": 0.4330708661417323,
                    "duration": 0.4138019166666673
                },
                {
                    "name": "B4",
                    "midi": 71,
                    "time": 27.119941,
                    "velocity": 0.3937007874015748,
                    "duration": 0.4138019166666673
                },
                {
                    "name": "D#5",
                    "midi": 75,
                    "time": 27.119941,
                    "velocity": 0.3937007874015748,
                    "duration": 0.38197100000000006
                },
                {
                    "name": "B5",
                    "midi": 83,
                    "time": 27.119941,
                    "velocity": 0.47244094488188976,
                    "duration": 0.4138019166666673
                },
                {
                    "name": "E5",
                    "midi": 76,
                    "time": 27.501912,
                    "velocity": 0.4645669291338583,
                    "duration": 0.7639420000000001
                },
                {
                    "name": "C#5",
                    "midi": 73,
                    "time": 27.501912,
                    "velocity": 0.4566929133858268,
                    "duration": 0.4138019166666673
                },
                {
                    "name": "C#6",
                    "midi": 85,
                    "time": 27.501912,
                    "velocity": 0.5433070866141733,
                    "duration": 0.4138019166666673
                },
                {
                    "name": "A5",
                    "midi": 81,
                    "time": 27.883883,
                    "velocity": 0.5196850393700787,
                    "duration": 0.4138019166666673
                },
                {
                    "name": "A4",
                    "midi": 69,
                    "time": 27.883883,
                    "velocity": 0.4409448818897638,
                    "duration": 0.4138019166666673
                },
                {
                    "name": "D5",
                    "midi": 74,
                    "time": 28.265854,
                    "velocity": 0.5354330708661418,
                    "duration": 0.7639420000000001
                },
                {
                    "name": "G#4",
                    "midi": 68,
                    "time": 28.265854,
                    "velocity": 0.49606299212598426,
                    "duration": 0.4138019166666673
                },
                {
                    "name": "G#5",
                    "midi": 80,
                    "time": 28.265854,
                    "velocity": 0.5905511811023622,
                    "duration": 0.4138019166666673
                },
                {
                    "name": "B5",
                    "midi": 83,
                    "time": 28.647825,
                    "velocity": 0.5511811023622047,
                    "duration": 0.38197100000000006
                },
                {
                    "name": "B4",
                    "midi": 71,
                    "time": 28.647825,
                    "velocity": 0.4645669291338583,
                    "duration": 0.38197100000000006
                },
                {
                    "name": "A#5",
                    "midi": 82,
                    "time": 29.029796,
                    "velocity": 0.6220472440944882,
                    "duration": 0.7639420000000001
                },
                {
                    "name": "A#4",
                    "midi": 70,
                    "time": 29.029796,
                    "velocity": 0.5275590551181102,
                    "duration": 0.7639420000000001
                },
                {
                    "name": "G5",
                    "midi": 79,
                    "time": 29.029796,
                    "velocity": 0.5275590551181102,
                    "duration": 0.7639420000000001
                },
                {
                    "name": "C#5",
                    "midi": 73,
                    "time": 29.029796,
                    "velocity": 0.5275590551181102,
                    "duration": 0.7639420000000001
                },
                {
                    "name": "C5",
                    "midi": 72,
                    "time": 29.793738,
                    "velocity": 0.5511811023622047,
                    "duration": 0.7639420000000001
                },
                {
                    "name": "G5",
                    "midi": 79,
                    "time": 29.793738,
                    "velocity": 0.5511811023622047,
                    "duration": 0.7639420000000001
                },
                {
                    "name": "C6",
                    "midi": 84,
                    "time": 29.793738,
                    "velocity": 0.6535433070866141,
                    "duration": 0.7639420000000001
                },
                {
                    "name": "C#5",
                    "midi": 73,
                    "time": 30.55768,
                    "velocity": 0.5354330708661418,
                    "duration": 0.7480265416666683
                },
                {
                    "name": "G5",
                    "midi": 79,
                    "time": 30.55768,
                    "velocity": 0.5354330708661418,
                    "duration": 0.7480265416666683
                },
                {
                    "name": "C#6",
                    "midi": 85,
                    "time": 30.55768,
                    "velocity": 0.6377952755905512,
                    "duration": 0.7480265416666683
                },
                {
                    "name": "G4",
                    "midi": 67,
                    "time": 31.321622,
                    "velocity": 0.2677165354330709,
                    "duration": 0.7639419999999966
                },
                {
                    "name": "E4",
                    "midi": 64,
                    "time": 31.321622,
                    "velocity": 0.2677165354330709,
                    "duration": 0.7639419999999966
                },
                {
                    "name": "A#4",
                    "midi": 70,
                    "time": 31.321622,
                    "velocity": 0.31496062992125984,
                    "duration": 0.7639419999999966
                },
                {
                    "name": "E4",
                    "midi": 64,
                    "time": 32.085564,
                    "velocity": 0.28346456692913385,
                    "duration": 0.7639420000000001
                },
                {
                    "name": "G4",
                    "midi": 67,
                    "time": 32.085564,
                    "velocity": 0.28346456692913385,
                    "duration": 0.7639420000000001
                },
                {
                    "name": "C5",
                    "midi": 72,
                    "time": 32.085564,
                    "velocity": 0.3464566929133858,
                    "duration": 0.7639420000000001
                },
                {
                    "name": "C#5",
                    "midi": 73,
                    "time": 32.849506,
                    "velocity": 0.31496062992125984,
                    "duration": 0.7161956249999974
                },
                {
                    "name": "G4",
                    "midi": 67,
                    "time": 32.849506,
                    "velocity": 0.2677165354330709,
                    "duration": 0.7161956249999974
                },
                {
                    "name": "E4",
                    "midi": 64,
                    "time": 32.849506,
                    "velocity": 0.2677165354330709,
                    "duration": 0.7161956249999974
                },
                {
                    "name": "E4",
                    "midi": 64,
                    "time": 33.613448,
                    "velocity": 0.30708661417322836,
                    "duration": 0.7639420000000001
                },
                {
                    "name": "G#4",
                    "midi": 68,
                    "time": 33.613448,
                    "velocity": 0.3779527559055118,
                    "duration": 0.7639420000000001
                },
                {
                    "name": "G#3",
                    "midi": 56,
                    "time": 33.613448,
                    "velocity": 0.30708661417322836,
                    "duration": 0.7639420000000001
                },
                {
                    "name": "A3",
                    "midi": 57,
                    "time": 34.37739,
                    "velocity": 0.30708661417322836,
                    "duration": 0.7639420000000001
                },
                {
                    "name": "G#4",
                    "midi": 68,
                    "time": 34.37739,
                    "velocity": 0.36220472440944884,
                    "duration": 0.7639420000000001
                },
                {
                    "name": "E4",
                    "midi": 64,
                    "time": 34.37739,
                    "velocity": 0.30708661417322836,
                    "duration": 0.7639420000000001
                },
                {
                    "name": "F#4",
                    "midi": 66,
                    "time": 35.141332,
                    "velocity": 0.36220472440944884,
                    "duration": 0.7639420000000001
                },
                {
                    "name": "A#3",
                    "midi": 58,
                    "time": 35.141332,
                    "velocity": 0.30708661417322836,
                    "duration": 0.7639420000000001
                },
                {
                    "name": "E4",
                    "midi": 64,
                    "time": 35.141332,
                    "velocity": 0.30708661417322836,
                    "duration": 0.7639420000000001
                },
                {
                    "name": "A#3",
                    "midi": 58,
                    "time": 35.905274,
                    "velocity": 0.23622047244094488,
                    "duration": 0.7639420000000001
                },
                {
                    "name": "F4",
                    "midi": 65,
                    "time": 35.905274,
                    "velocity": 0.3543307086614173,
                    "duration": 0.38197100000000006
                },
                {
                    "name": "E4",
                    "midi": 64,
                    "time": 35.905274,
                    "velocity": 0.29133858267716534,
                    "duration": 0.7639420000000001
                },
                {
                    "name": "F#4",
                    "midi": 66,
                    "time": 36.287245,
                    "velocity": 0.3700787401574803,
                    "duration": 0.38197100000000006
                },
                {
                    "name": "A4",
                    "midi": 69,
                    "time": 36.669216,
                    "velocity": 0.3779527559055118,
                    "duration": 0.38197100000000006
                },
                {
                    "name": "D#4",
                    "midi": 63,
                    "time": 36.669216,
                    "velocity": 0.28346456692913385,
                    "duration": 0.7639420000000001
                },
                {
                    "name": "A3",
                    "midi": 57,
                    "time": 36.669216,
                    "velocity": 0.2047244094488189,
                    "duration": 0.7639420000000001
                },
                {
                    "name": "F#4",
                    "midi": 66,
                    "time": 37.051187,
                    "velocity": 0.3464566929133858,
                    "duration": 0.38197100000000006
                },
                {
                    "name": "A3",
                    "midi": 57,
                    "time": 37.433158,
                    "velocity": 0.3543307086614173,
                    "duration": 0.7321110833333364
                },
                {
                    "name": "E4",
                    "midi": 64,
                    "time": 37.433158,
                    "velocity": 0.3543307086614173,
                    "duration": 0.38197100000000006
                },
                {
                    "name": "D#4",
                    "midi": 63,
                    "time": 37.815129,
                    "velocity": 0.2992125984251969,
                    "duration": 0.35014008333333635
                },
                {
                    "name": "C#5",
                    "midi": 73,
                    "time": 38.1971,
                    "velocity": 0.44881889763779526,
                    "duration": 0.7639420000000001
                },
                {
                    "name": "C#4",
                    "midi": 61,
                    "time": 38.1971,
                    "velocity": 0.3779527559055118,
                    "duration": 0.7639420000000001
                },
                {
                    "name": "A4",
                    "midi": 69,
                    "time": 38.1971,
                    "velocity": 0.3779527559055118,
                    "duration": 0.7639420000000001
                },
                {
                    "name": "A4",
                    "midi": 69,
                    "time": 38.961042,
                    "velocity": 0.3779527559055118,
                    "duration": 0.7639420000000001
                },
                {
                    "name": "C#5",
                    "midi": 73,
                    "time": 38.961042,
                    "velocity": 0.44881889763779526,
                    "duration": 0.7639420000000001
                },
                {
                    "name": "D4",
                    "midi": 62,
                    "time": 38.961042,
                    "velocity": 0.3779527559055118,
                    "duration": 0.7639420000000001
                },
                {
                    "name": "B4",
                    "midi": 71,
                    "time": 39.724984,
                    "velocity": 0.4409448818897638,
                    "duration": 0.7639420000000001
                },
                {
                    "name": "A4",
                    "midi": 69,
                    "time": 39.724984,
                    "velocity": 0.3700787401574803,
                    "duration": 0.7639420000000001
                },
                {
                    "name": "D#4",
                    "midi": 63,
                    "time": 39.724984,
                    "velocity": 0.3700787401574803,
                    "duration": 0.7639420000000001
                },
                {
                    "name": "B4",
                    "midi": 71,
                    "time": 40.488926,
                    "velocity": 0.3464566929133858,
                    "duration": 0.7639420000000001
                },
                {
                    "name": "G#4",
                    "midi": 68,
                    "time": 40.488926,
                    "velocity": 0.3464566929133858,
                    "duration": 0.7639420000000001
                },
                {
                    "name": "E4",
                    "midi": 64,
                    "time": 40.488926,
                    "velocity": 0.41732283464566927,
                    "duration": 0.4456328333333346
                },
                {
                    "name": "F4",
                    "midi": 65,
                    "time": 40.870897,
                    "velocity": 0.41732283464566927,
                    "duration": 0.38197100000000006
                },
                {
                    "name": "G#4",
                    "midi": 68,
                    "time": 41.252868,
                    "velocity": 0.4330708661417323,
                    "duration": 0.38197100000000006
                },
                {
                    "name": "B4",
                    "midi": 71,
                    "time": 41.252868,
                    "velocity": 0.3937007874015748,
                    "duration": 0.7639420000000001
                },
                {
                    "name": "F#4",
                    "midi": 66,
                    "time": 41.634839,
                    "velocity": 0.3858267716535433,
                    "duration": 0.38197100000000006
                },
                {
                    "name": "A4",
                    "midi": 69,
                    "time": 42.01681,
                    "velocity": 0.36220472440944884,
                    "duration": 0.7321110833333364
                },
                {
                    "name": "C#4",
                    "midi": 61,
                    "time": 42.01681,
                    "velocity": 0.3858267716535433,
                    "duration": 0.38197100000000006
                },
                {
                    "name": "A3",
                    "midi": 57,
                    "time": 42.398781,
                    "velocity": 0.3464566929133858,
                    "duration": 0.35014008333333635
                },
                {
                    "name": "G#4",
                    "midi": 68,
                    "time": 42.780752,
                    "velocity": 0.4645669291338583,
                    "duration": 0.7321110833333364
                },
                {
                    "name": "D5",
                    "midi": 74,
                    "time": 42.780752,
                    "velocity": 0.5433070866141733,
                    "duration": 0.7321110833333364
                },
                {
                    "name": "D4",
                    "midi": 62,
                    "time": 42.780752,
                    "velocity": 0.4645669291338583,
                    "duration": 0.7321110833333364
                },
                {
                    "name": "D#4",
                    "midi": 63,
                    "time": 43.544694,
                    "velocity": 0.47244094488188976,
                    "duration": 0.7639420000000001
                },
                {
                    "name": "D5",
                    "midi": 74,
                    "time": 43.544694,
                    "velocity": 0.5669291338582677,
                    "duration": 0.7639420000000001
                },
                {
                    "name": "A4",
                    "midi": 69,
                    "time": 43.544694,
                    "velocity": 0.47244094488188976,
                    "duration": 0.7639420000000001
                },
                {
                    "name": "A4",
                    "midi": 69,
                    "time": 44.308636,
                    "velocity": 0.44881889763779526,
                    "duration": 0.7639420000000001
                },
                {
                    "name": "C5",
                    "midi": 72,
                    "time": 44.308636,
                    "velocity": 0.44881889763779526,
                    "duration": 0.7639420000000001
                },
                {
                    "name": "D#4",
                    "midi": 63,
                    "time": 44.308636,
                    "velocity": 0.44881889763779526,
                    "duration": 0.7639420000000001
                },
                {
                    "name": "D#5",
                    "midi": 75,
                    "time": 45.072578,
                    "velocity": 0.6062992125984252,
                    "duration": 0.7639420000000001
                },
                {
                    "name": "C4",
                    "midi": 60,
                    "time": 45.072578,
                    "velocity": 0.5196850393700787,
                    "duration": 0.7639420000000001
                },
                {
                    "name": "A4",
                    "midi": 69,
                    "time": 45.072578,
                    "velocity": 0.5196850393700787,
                    "duration": 0.7639420000000001
                },
                {
                    "name": "D5",
                    "midi": 74,
                    "time": 45.83652,
                    "velocity": 0.5826771653543307,
                    "duration": 0.7639420000000001
                },
                {
                    "name": "D4",
                    "midi": 62,
                    "time": 45.83652,
                    "velocity": 0.4881889763779528,
                    "duration": 0.7639420000000001
                },
                {
                    "name": "A4",
                    "midi": 69,
                    "time": 45.83652,
                    "velocity": 0.4881889763779528,
                    "duration": 0.7639420000000001
                },
                {
                    "name": "C5",
                    "midi": 72,
                    "time": 46.600462,
                    "velocity": 0.5511811023622047,
                    "duration": 0.7639420000000001
                },
                {
                    "name": "A4",
                    "midi": 69,
                    "time": 46.600462,
                    "velocity": 0.4645669291338583,
                    "duration": 0.7639420000000001
                },
                {
                    "name": "D#4",
                    "midi": 63,
                    "time": 46.600462,
                    "velocity": 0.4645669291338583,
                    "duration": 0.7639420000000001
                },
                {
                    "name": "D#3",
                    "midi": 51,
                    "time": 47.364404,
                    "velocity": 0.3937007874015748,
                    "duration": 0.7639420000000001
                },
                {
                    "name": "D#4",
                    "midi": 63,
                    "time": 47.364404,
                    "velocity": 0.48031496062992124,
                    "duration": 0.7639420000000001
                },
                {
                    "name": "A3",
                    "midi": 57,
                    "time": 47.364404,
                    "velocity": 0.3937007874015748,
                    "duration": 1.5278840000000002
                },
                {
                    "name": "D3",
                    "midi": 50,
                    "time": 48.128346,
                    "velocity": 0.3779527559055118,
                    "duration": 0.7639420000000001
                },
                {
                    "name": "D4",
                    "midi": 62,
                    "time": 48.128346,
                    "velocity": 0.44881889763779526,
                    "duration": 0.7639420000000001
                },
                {
                    "name": "A3",
                    "midi": 57,
                    "time": 48.892288,
                    "velocity": 0.3464566929133858,
                    "duration": 0.7639420000000001
                },
                {
                    "name": "D#3",
                    "midi": 51,
                    "time": 48.892288,
                    "velocity": 0.3464566929133858,
                    "duration": 0.7639420000000001
                },
                {
                    "name": "D#4",
                    "midi": 63,
                    "time": 48.892288,
                    "velocity": 0.4094488188976378,
                    "duration": 0.7639420000000001
                },
                {
                    "name": "E3",
                    "midi": 52,
                    "time": 49.65623,
                    "velocity": 0.3464566929133858,
                    "duration": 0.7639420000000001
                },
                {
                    "name": "G3",
                    "midi": 55,
                    "time": 49.65623,
                    "velocity": 0.3464566929133858,
                    "duration": 0.7639420000000001
                },
                {
                    "name": "E4",
                    "midi": 64,
                    "time": 49.65623,
                    "velocity": 0.41732283464566927,
                    "duration": 0.7639420000000001
                },
                {
                    "name": "F#3",
                    "midi": 54,
                    "time": 50.420172,
                    "velocity": 0.3228346456692913,
                    "duration": 0.5729564999999965
                },
                {
                    "name": "D#4",
                    "midi": 63,
                    "time": 50.420172,
                    "velocity": 0.3228346456692913,
                    "duration": 0.5729564999999965
                },
                {
                    "name": "F#4",
                    "midi": 66,
                    "time": 50.420172,
                    "velocity": 0.3858267716535433,
                    "duration": 0.5729564999999965
                },
                {
                    "name": "G#3",
                    "midi": 56,
                    "time": 51.184113999999994,
                    "velocity": 0.29133858267716534,
                    "duration": 2.2918260000000004
                },
                {
                    "name": "B3",
                    "midi": 59,
                    "time": 51.184113999999994,
                    "velocity": 0.29133858267716534,
                    "duration": 2.2918260000000004
                },
                {
                    "name": "G#4",
                    "midi": 68,
                    "time": 51.184113999999994,
                    "velocity": 0.36220472440944884,
                    "duration": 2.2918260000000004
                },
                {
                    "name": "E4",
                    "midi": 64,
                    "time": 51.184113999999994,
                    "velocity": 0.29133858267716534,
                    "duration": 2.2918260000000004
                },
                {
                    "name": "B3",
                    "midi": 59,
                    "time": 53.475939999999994,
                    "velocity": 0.2204724409448819,
                    "duration": 3.0557680000000005
                },
                {
                    "name": "G#4",
                    "midi": 68,
                    "time": 53.475939999999994,
                    "velocity": 0.2755905511811024,
                    "duration": 3.0557680000000005
                },
                {
                    "name": "G#3",
                    "midi": 56,
                    "time": 53.475939999999994,
                    "velocity": 0.2204724409448819,
                    "duration": 3.0557680000000005
                },
                {
                    "name": "D#5",
                    "midi": 75,
                    "time": 56.531707999999995,
                    "velocity": 0.4094488188976378,
                    "duration": 0.763941999999993
                },
                {
                    "name": "B4",
                    "midi": 71,
                    "time": 56.786355333333326,
                    "velocity": 0.33070866141732286,
                    "duration": 0.254647333333331
                },
                {
                    "name": "G#4",
                    "midi": 68,
                    "time": 57.04100266666666,
                    "velocity": 0.3228346456692913,
                    "duration": 0.254647333333331
                },
                {
                    "name": "C#5",
                    "midi": 73,
                    "time": 57.29564999999999,
                    "velocity": 0.3858267716535433,
                    "duration": 0.7639420000000001
                },
                {
                    "name": "B4",
                    "midi": 71,
                    "time": 58.05959199999999,
                    "velocity": 0.4330708661417323,
                    "duration": 0.763941999999993
                },
                {
                    "name": "G#4",
                    "midi": 68,
                    "time": 58.31423933333332,
                    "velocity": 0.36220472440944884,
                    "duration": 0.254647333333331
                },
                {
                    "name": "E4",
                    "midi": 64,
                    "time": 58.56888666666665,
                    "velocity": 0.31496062992125984,
                    "duration": 0.254647333333331
                },
                {
                    "name": "A#4",
                    "midi": 70,
                    "time": 58.82353399999998,
                    "velocity": 0.3858267716535433,
                    "duration": 0.7639420000000001
                },
                {
                    "name": "G#4",
                    "midi": 68,
                    "time": 59.58747599999998,
                    "velocity": 0.4330708661417323,
                    "duration": 0.763941999999993
                },
                {
                    "name": "E4",
                    "midi": 64,
                    "time": 59.84212333333331,
                    "velocity": 0.36220472440944884,
                    "duration": 0.254647333333331
                },
                {
                    "name": "C#4",
                    "midi": 61,
                    "time": 60.09677066666664,
                    "velocity": 0.36220472440944884,
                    "duration": 0.254647333333331
                },
                {
                    "name": "B4",
                    "midi": 71,
                    "time": 60.351417999999974,
                    "velocity": 0.5196850393700787,
                    "duration": 0.35014008333333635
                },
                {
                    "name": "A#4",
                    "midi": 70,
                    "time": 60.733388999999974,
                    "velocity": 0.47244094488188976,
                    "duration": 0.35014008333333635
                },
                {
                    "name": "G#4",
                    "midi": 68,
                    "time": 61.115359999999974,
                    "velocity": 0.44881889763779526,
                    "duration": 0.763941999999993
                },
                {
                    "name": "E4",
                    "midi": 64,
                    "time": 61.370007333333305,
                    "velocity": 0.3700787401574803,
                    "duration": 0.254647333333331
                },
                {
                    "name": "C#4",
                    "midi": 61,
                    "time": 61.624654666666636,
                    "velocity": 0.3858267716535433,
                    "duration": 0.254647333333331
                },
                {
                    "name": "B4",
                    "midi": 71,
                    "time": 61.87930199999997,
                    "velocity": 0.5196850393700787,
                    "duration": 0.35014008333333635
                },
                {
                    "name": "A#4",
                    "midi": 70,
                    "time": 62.26127299999997,
                    "velocity": 0.47244094488188976,
                    "duration": 0.35014008333333635
                },
                {
                    "name": "G#4",
                    "midi": 68,
                    "time": 62.67507491666664,
                    "velocity": 0.44881889763779526,
                    "duration": 0.763941999999993
                },
                {
                    "name": "E4",
                    "midi": 64,
                    "time": 62.92972224999997,
                    "velocity": 0.36220472440944884,
                    "duration": 0.254647333333331
                },
                {
                    "name": "C#4",
                    "midi": 61,
                    "time": 63.1843695833333,
                    "velocity": 0.3937007874015748,
                    "duration": 0.254647333333331
                },
                {
                    "name": "C#5",
                    "midi": 73,
                    "time": 63.40718599999997,
                    "velocity": 0.5354330708661418,
                    "duration": 0.35014008333332924
                },
                {
                    "name": "B4",
                    "midi": 71,
                    "time": 63.78915699999996,
                    "velocity": 0.4566929133858268,
                    "duration": 0.35014008333332924
                },
                {
                    "name": "A#4",
                    "midi": 70,
                    "time": 64.17112799999995,
                    "velocity": 0.4881889763779528,
                    "duration": 0.7639420000000143
                },
                {
                    "name": "G4",
                    "midi": 67,
                    "time": 64.42577533333329,
                    "velocity": 0.4015748031496063,
                    "duration": 0.2546473333333381
                },
                {
                    "name": "D#4",
                    "midi": 63,
                    "time": 64.68042266666663,
                    "velocity": 0.3779527559055118,
                    "duration": 0.2546473333333381
                },
                {
                    "name": "E5",
                    "midi": 76,
                    "time": 64.93506999999997,
                    "velocity": 0.4645669291338583,
                    "duration": 0.7639420000000001
                },
                {
                    "name": "D#5",
                    "midi": 75,
                    "time": 65.69901199999997,
                    "velocity": 0.4409448818897638,
                    "duration": 0.7639420000000143
                },
                {
                    "name": "A#4",
                    "midi": 70,
                    "time": 65.9536593333333,
                    "velocity": 0.30708661417322836,
                    "duration": 0.2546473333333381
                },
                {
                    "name": "G4",
                    "midi": 67,
                    "time": 66.20830666666664,
                    "velocity": 0.3700787401574803,
                    "duration": 0.2546473333333381
                },
                {
                    "name": "C#5",
                    "midi": 73,
                    "time": 66.46295399999998,
                    "velocity": 0.3858267716535433,
                    "duration": 0.7639420000000001
                },
                {
                    "name": "B4",
                    "midi": 71,
                    "time": 67.22689599999998,
                    "velocity": 0.4330708661417323,
                    "duration": 0.7639420000000143
                },
                {
                    "name": "G#4",
                    "midi": 68,
                    "time": 67.48154333333332,
                    "velocity": 0.31496062992125984,
                    "duration": 0.2546473333333381
                },
                {
                    "name": "E4",
                    "midi": 64,
                    "time": 67.73619066666666,
                    "velocity": 0.36220472440944884,
                    "duration": 0.2546473333333381
                },
                {
                    "name": "A#4",
                    "midi": 70,
                    "time": 67.990838,
                    "velocity": 0.3858267716535433,
                    "duration": 0.7639420000000001
                },
                {
                    "name": "G#4",
                    "midi": 68,
                    "time": 68.75478,
                    "velocity": 0.4330708661417323,
                    "duration": 0.7639420000000143
                },
                {
                    "name": "E4",
                    "midi": 64,
                    "time": 69.00942733333333,
                    "velocity": 0.36220472440944884,
                    "duration": 0.2546473333333381
                },
                {
                    "name": "C#4",
                    "midi": 61,
                    "time": 69.26407466666667,
                    "velocity": 0.36220472440944884,
                    "duration": 0.2546473333333381
                },
                {
                    "name": "B4",
                    "midi": 71,
                    "time": 69.51872200000001,
                    "velocity": 0.5196850393700787,
                    "duration": 0.35014008333332924
                },
                {
                    "name": "A#4",
                    "midi": 70,
                    "time": 69.900693,
                    "velocity": 0.47244094488188976,
                    "duration": 0.35014008333332924
                },
                {
                    "name": "E4",
                    "midi": 64,
                    "time": 70.282664,
                    "velocity": 0.5433070866141733,
                    "duration": 0.7639420000000001
                },
                {
                    "name": "C#4",
                    "midi": 61,
                    "time": 70.53731133333334,
                    "velocity": 0.47244094488188976,
                    "duration": 0.2864782500000018
                },
                {
                    "name": "A#3",
                    "midi": 58,
                    "time": 70.79195866666667,
                    "velocity": 0.44881889763779526,
                    "duration": 0.2546473333333239
                },
                {
                    "name": "G#4",
                    "midi": 68,
                    "time": 71.046606,
                    "velocity": 0.5511811023622047,
                    "duration": 0.35014008333332924
                },
                {
                    "name": "F#4",
                    "midi": 66,
                    "time": 71.42857699999999,
                    "velocity": 0.5275590551181102,
                    "duration": 0.35014008333332924
                },
                {
                    "name": "C#4",
                    "midi": 61,
                    "time": 71.81054799999998,
                    "velocity": 0.5748031496062992,
                    "duration": 0.7639420000000143
                },
                {
                    "name": "A#3",
                    "midi": 58,
                    "time": 72.06519533333332,
                    "velocity": 0.5275590551181102,
                    "duration": 0.2546473333333381
                },
                {
                    "name": "F#3",
                    "midi": 54,
                    "time": 72.31984266666666,
                    "velocity": 0.47244094488188976,
                    "duration": 0.2546473333333381
                },
                {
                    "name": "D#4",
                    "midi": 63,
                    "time": 72.57449,
                    "velocity": 0.5433070866141733,
                    "duration": 0.7639420000000001
                },
                {
                    "name": "E4",
                    "midi": 64,
                    "time": 73.338432,
                    "velocity": 0.6062992125984252,
                    "duration": 1.5278840000000145
                },
                {
                    "name": "C#4",
                    "midi": 61,
                    "time": 73.59307933333334,
                    "velocity": 0.5433070866141733,
                    "duration": 0.2546473333333381
                },
                {
                    "name": "A#3",
                    "midi": 58,
                    "time": 73.84772666666667,
                    "velocity": 0.4645669291338583,
                    "duration": 0.2546473333333381
                },
                {
                    "name": "D#4",
                    "midi": 63,
                    "time": 74.86631600000001,
                    "velocity": 0.3937007874015748,
                    "duration": 0.7639420000000143
                },
                {
                    "name": "G4",
                    "midi": 67,
                    "time": 75.12096333333335,
                    "velocity": 0.3228346456692913,
                    "duration": 0.2546473333333381
                },
                {
                    "name": "A#4",
                    "midi": 70,
                    "time": 75.37561066666669,
                    "velocity": 0.36220472440944884,
                    "duration": 0.2546473333333381
                },
                {
                    "name": "C#4",
                    "midi": 61,
                    "time": 75.63025800000003,
                    "velocity": 0.3937007874015748,
                    "duration": 0.7639420000000001
                },
                {
                    "name": "B3",
                    "midi": 59,
                    "time": 76.39420000000003,
                    "velocity": 0.3937007874015748,
                    "duration": 0.7639420000000143
                },
                {
                    "name": "D#4",
                    "midi": 63,
                    "time": 76.64884733333336,
                    "velocity": 0.33070866141732286,
                    "duration": 0.2546473333333381
                },
                {
                    "name": "G#4",
                    "midi": 68,
                    "time": 76.9034946666667,
                    "velocity": 0.36220472440944884,
                    "duration": 0.2546473333333381
                },
                {
                    "name": "A#3",
                    "midi": 58,
                    "time": 77.15814200000004,
                    "velocity": 0.3858267716535433,
                    "duration": 0.7639420000000001
                },
                {
                    "name": "G#3",
                    "midi": 56,
                    "time": 77.92208400000004,
                    "velocity": 0.3937007874015748,
                    "duration": 0.7639420000000001
                },
                {
                    "name": "B3",
                    "midi": 59,
                    "time": 78.17673133333338,
                    "velocity": 0.31496062992125984,
                    "duration": 0.2864782500000018
                },
                {
                    "name": "E4",
                    "midi": 64,
                    "time": 78.43137866666672,
                    "velocity": 0.36220472440944884,
                    "duration": 0.2546473333333239
                },
                {
                    "name": "B3",
                    "midi": 59,
                    "time": 78.68602600000004,
                    "velocity": 0.4645669291338583,
                    "duration": 0.31830916666666553
                },
                {
                    "name": "A#3",
                    "midi": 58,
                    "time": 79.06799700000003,
                    "velocity": 0.4330708661417323,
                    "duration": 0.3342246250000045
                },
                {
                    "name": "G#3",
                    "midi": 56,
                    "time": 79.44996800000004,
                    "velocity": 0.4094488188976378,
                    "duration": 0.7639420000000001
                },
                {
                    "name": "C#4",
                    "midi": 61,
                    "time": 79.70461533333338,
                    "velocity": 0.3228346456692913,
                    "duration": 0.2864782500000018
                },
                {
                    "name": "E4",
                    "midi": 64,
                    "time": 79.95926266666672,
                    "velocity": 0.36220472440944884,
                    "duration": 0.2546473333333239
                },
                {
                    "name": "B3",
                    "midi": 59,
                    "time": 80.21391000000004,
                    "velocity": 0.4566929133858268,
                    "duration": 0.31830916666666553
                },
                {
                    "name": "A#3",
                    "midi": 58,
                    "time": 80.59588100000003,
                    "velocity": 0.4251968503937008,
                    "duration": 0.3342246250000045
                },
                {
                    "name": "G#3",
                    "midi": 56,
                    "time": 80.97785200000004,
                    "velocity": 0.3937007874015748,
                    "duration": 0.7639420000000143
                },
                {
                    "name": "B3",
                    "midi": 59,
                    "time": 81.23249933333338,
                    "velocity": 0.33070866141732286,
                    "duration": 0.2546473333333381
                },
                {
                    "name": "E4",
                    "midi": 64,
                    "time": 81.48714666666672,
                    "velocity": 0.36220472440944884,
                    "duration": 0.2546473333333381
                },
                {
                    "name": "C#4",
                    "midi": 61,
                    "time": 81.74179400000006,
                    "velocity": 0.4409448818897638,
                    "duration": 0.31830916666666553
                },
                {
                    "name": "B3",
                    "midi": 59,
                    "time": 82.12376500000005,
                    "velocity": 0.4015748031496063,
                    "duration": 0.3342246250000045
                },
                {
                    "name": "A#3",
                    "midi": 58,
                    "time": 82.50573600000006,
                    "velocity": 0.3858267716535433,
                    "duration": 0.7639420000000143
                },
                {
                    "name": "D#4",
                    "midi": 63,
                    "time": 82.7603833333334,
                    "velocity": 0.36220472440944884,
                    "duration": 0.2546473333333381
                },
                {
                    "name": "G4",
                    "midi": 67,
                    "time": 83.01503066666673,
                    "velocity": 0.3464566929133858,
                    "duration": 0.2546473333333381
                },
                {
                    "name": "E5",
                    "midi": 76,
                    "time": 83.26967800000007,
                    "velocity": 0.4645669291338583,
                    "duration": 0.7639420000000001
                },
                {
                    "name": "D#5",
                    "midi": 75,
                    "time": 84.03362000000007,
                    "velocity": 0.4330708661417323,
                    "duration": 0.7639420000000143
                },
                {
                    "name": "A#4",
                    "midi": 70,
                    "time": 84.28826733333341,
                    "velocity": 0.31496062992125984,
                    "duration": 0.2546473333333381
                },
                {
                    "name": "G4",
                    "midi": 67,
                    "time": 84.54291466666675,
                    "velocity": 0.30708661417322836,
                    "duration": 0.2546473333333381
                },
                {
                    "name": "C#5",
                    "midi": 73,
                    "time": 84.79756200000008,
                    "velocity": 0.3858267716535433,
                    "duration": 0.7639420000000001
                },
                {
                    "name": "B4",
                    "midi": 71,
                    "time": 85.56150400000008,
                    "velocity": 0.4330708661417323,
                    "duration": 0.7639420000000143
                },
                {
                    "name": "G#4",
                    "midi": 68,
                    "time": 85.81615133333342,
                    "velocity": 0.31496062992125984,
                    "duration": 0.2546473333333381
                },
                {
                    "name": "E4",
                    "midi": 64,
                    "time": 86.07079866666676,
                    "velocity": 0.36220472440944884,
                    "duration": 0.2546473333333381
                },
                {
                    "name": "A#4",
                    "midi": 70,
                    "time": 86.3254460000001,
                    "velocity": 0.3858267716535433,
                    "duration": 0.7639420000000001
                },
                {
                    "name": "G#4",
                    "midi": 68,
                    "time": 87.0893880000001,
                    "velocity": 0.4330708661417323,
                    "duration": 0.7639420000000143
                },
                {
                    "name": "E4",
                    "midi": 64,
                    "time": 87.34403533333344,
                    "velocity": 0.36220472440944884,
                    "duration": 0.2546473333333381
                },
                {
                    "name": "C#4",
                    "midi": 61,
                    "time": 87.59868266666678,
                    "velocity": 0.36220472440944884,
                    "duration": 0.2546473333333381
                },
                {
                    "name": "A#3",
                    "midi": 58,
                    "time": 87.85333000000011,
                    "velocity": 0.5196850393700787,
                    "duration": 0.31830916666666553
                },
                {
                    "name": "B3",
                    "midi": 59,
                    "time": 88.2353010000001,
                    "velocity": 0.4645669291338583,
                    "duration": 0.3342246250000045
                },
                {
                    "name": "C#4",
                    "midi": 61,
                    "time": 88.61727200000011,
                    "velocity": 0.44881889763779526,
                    "duration": 0.7639420000000143
                },
                {
                    "name": "E4",
                    "midi": 64,
                    "time": 88.87191933333345,
                    "velocity": 0.47244094488188976,
                    "duration": 0.2546473333333381
                },
                {
                    "name": "G#4",
                    "midi": 68,
                    "time": 89.12656666666679,
                    "velocity": 0.5039370078740157,
                    "duration": 0.2546473333333381
                },
                {
                    "name": "B4",
                    "midi": 71,
                    "time": 89.38121400000013,
                    "velocity": 0.5354330708661418,
                    "duration": 0.31830916666666553
                },
                {
                    "name": "A#4",
                    "midi": 70,
                    "time": 89.76318500000012,
                    "velocity": 0.5039370078740157,
                    "duration": 0.3342246250000045
                },
                {
                    "name": "G#4",
                    "midi": 68,
                    "time": 90.14515600000013,
                    "velocity": 0.5669291338582677,
                    "duration": 0.7639420000000143
                },
                {
                    "name": "E4",
                    "midi": 64,
                    "time": 90.39980333333347,
                    "velocity": 0.5039370078740157,
                    "duration": 0.2546473333333381
                },
                {
                    "name": "C#4",
                    "midi": 61,
                    "time": 90.6544506666668,
                    "velocity": 0.5354330708661418,
                    "duration": 0.2546473333333381
                },
                {
                    "name": "G#3",
                    "midi": 56,
                    "time": 90.90909800000014,
                    "velocity": 0.6220472440944882,
                    "duration": 0.31830916666666553
                },
                {
                    "name": "A#3",
                    "midi": 58,
                    "time": 91.29106900000014,
                    "velocity": 0.5748031496062992,
                    "duration": 0.3342246250000045
                },
                {
                    "name": "B3",
                    "midi": 59,
                    "time": 91.67304000000014,
                    "velocity": 0.6220472440944882,
                    "duration": 0.7639420000000143
                },
                {
                    "name": "F4",
                    "midi": 65,
                    "time": 91.92768733333348,
                    "velocity": 0.5748031496062992,
                    "duration": 0.2546473333333381
                },
                {
                    "name": "G#4",
                    "midi": 68,
                    "time": 92.18233466666682,
                    "velocity": 0.5905511811023622,
                    "duration": 0.2546473333333381
                },
                {
                    "name": "B4",
                    "midi": 71,
                    "time": 92.43698200000016,
                    "velocity": 0.6692913385826772,
                    "duration": 0.31830916666666553
                },
                {
                    "name": "A#4",
                    "midi": 70,
                    "time": 92.81895300000015,
                    "velocity": 0.6062992125984252,
                    "duration": 0.3342246250000045
                },
                {
                    "name": "G#4",
                    "midi": 68,
                    "time": 93.20092400000016,
                    "velocity": 0.5590551181102362,
                    "duration": 4.583652000000029
                },
                {
                    "name": "F4",
                    "midi": 65,
                    "time": 93.4555713333335,
                    "velocity": 0.4881889763779528,
                    "duration": 0.2546473333333381
                },
                {
                    "name": "B3",
                    "midi": 59,
                    "time": 93.71021866666683,
                    "velocity": 0.4330708661417323,
                    "duration": 0.2546473333333381
                },
                {
                    "name": "D#4",
                    "midi": 63,
                    "time": 94.72880800000017,
                    "velocity": 0.3700787401574803,
                    "duration": 0.2546473333333381
                },
                {
                    "name": "B3",
                    "midi": 59,
                    "time": 94.98345533333351,
                    "velocity": 0.28346456692913385,
                    "duration": 0.2546473333333381
                },
                {
                    "name": "G#3",
                    "midi": 56,
                    "time": 95.23810266666685,
                    "velocity": 0.31496062992125984,
                    "duration": 0.2546473333333381
                },
                {
                    "name": "C#4",
                    "midi": 61,
                    "time": 96.25669200000019,
                    "velocity": 0.31496062992125984,
                    "duration": 0.2546473333333381
                },
                {
                    "name": "A#3",
                    "midi": 58,
                    "time": 96.51133933333352,
                    "velocity": 0.2677165354330709,
                    "duration": 0.2546473333333381
                },
                {
                    "name": "G#3",
                    "midi": 56,
                    "time": 96.76598666666686,
                    "velocity": 0.28346456692913385,
                    "duration": 0.9867584166666603
                },
                {
                    "name": "G#4",
                    "midi": 68,
                    "time": 97.78457600000019,
                    "velocity": 0.28346456692913385,
                    "duration": 0.7639420000000001
                },
                {
                    "name": "B4",
                    "midi": 71,
                    "time": 97.78457600000019,
                    "velocity": 0.3543307086614173,
                    "duration": 0.7639420000000001
                },
                {
                    "name": "B3",
                    "midi": 59,
                    "time": 97.78457600000019,
                    "velocity": 0.28346456692913385,
                    "duration": 0.7639420000000001
                },
                {
                    "name": "B4",
                    "midi": 71,
                    "time": 98.54851800000019,
                    "velocity": 0.36220472440944884,
                    "duration": 0.7639420000000001
                },
                {
                    "name": "C4",
                    "midi": 60,
                    "time": 98.54851800000019,
                    "velocity": 0.2992125984251969,
                    "duration": 0.7639420000000001
                },
                {
                    "name": "G#4",
                    "midi": 68,
                    "time": 98.54851800000019,
                    "velocity": 0.2992125984251969,
                    "duration": 0.7639420000000001
                },
                {
                    "name": "C#4",
                    "midi": 61,
                    "time": 99.31246000000019,
                    "velocity": 0.2677165354330709,
                    "duration": 0.7639420000000001
                },
                {
                    "name": "A4",
                    "midi": 69,
                    "time": 99.31246000000019,
                    "velocity": 0.3228346456692913,
                    "duration": 0.7639420000000001
                },
                {
                    "name": "F#4",
                    "midi": 66,
                    "time": 99.31246000000019,
                    "velocity": 0.2677165354330709,
                    "duration": 0.7639420000000001
                },
                {
                    "name": "A4",
                    "midi": 69,
                    "time": 100.07640200000019,
                    "velocity": 0.2677165354330709,
                    "duration": 0.7639419999999859
                },
                {
                    "name": "D4",
                    "midi": 62,
                    "time": 100.07640200000019,
                    "velocity": 0.31496062992125984,
                    "duration": 0.38197099999999296
                },
                {
                    "name": "F#4",
                    "midi": 66,
                    "time": 100.07640200000019,
                    "velocity": 0.2677165354330709,
                    "duration": 0.7639419999999859
                },
                {
                    "name": "D#4",
                    "midi": 63,
                    "time": 100.45837300000018,
                    "velocity": 0.33858267716535434,
                    "duration": 0.38197099999999296
                },
                {
                    "name": "F#4",
                    "midi": 66,
                    "time": 100.84034400000017,
                    "velocity": 0.36220472440944884,
                    "duration": 0.38197099999999296
                },
                {
                    "name": "A4",
                    "midi": 69,
                    "time": 100.84034400000017,
                    "velocity": 0.2125984251968504,
                    "duration": 0.7639419999999859
                },
                {
                    "name": "E4",
                    "midi": 64,
                    "time": 101.22231500000017,
                    "velocity": 0.2677165354330709,
                    "duration": 0.38197099999999296
                },
                {
                    "name": "G#4",
                    "midi": 68,
                    "time": 101.60428600000016,
                    "velocity": 0.28346456692913385,
                    "duration": 0.7321110833333222
                },
                {
                    "name": "B3",
                    "midi": 59,
                    "time": 101.60428600000016,
                    "velocity": 0.30708661417322836,
                    "duration": 0.38197099999999296
                },
                {
                    "name": "G#3",
                    "midi": 56,
                    "time": 101.98625700000015,
                    "velocity": 0.2677165354330709,
                    "duration": 0.35014008333332924
                },
                {
                    "name": "G#3",
                    "midi": 56,
                    "time": 102.36822800000014,
                    "velocity": 0.29133858267716534,
                    "duration": 0.7639420000000001
                },
                {
                    "name": "E4",
                    "midi": 64,
                    "time": 102.36822800000014,
                    "velocity": 0.29133858267716534,
                    "duration": 0.7639420000000001
                },
                {
                    "name": "G#4",
                    "midi": 68,
                    "time": 102.36822800000014,
                    "velocity": 0.3543307086614173,
                    "duration": 0.7639420000000001
                },
                {
                    "name": "A3",
                    "midi": 57,
                    "time": 103.13217000000014,
                    "velocity": 0.29133858267716534,
                    "duration": 0.7639420000000001
                },
                {
                    "name": "G#4",
                    "midi": 68,
                    "time": 103.13217000000014,
                    "velocity": 0.33858267716535434,
                    "duration": 0.7639420000000001
                },
                {
                    "name": "E4",
                    "midi": 64,
                    "time": 103.13217000000014,
                    "velocity": 0.29133858267716534,
                    "duration": 0.7639420000000001
                },
                {
                    "name": "F#4",
                    "midi": 66,
                    "time": 103.89611200000014,
                    "velocity": 0.33858267716535434,
                    "duration": 0.7639420000000001
                },
                {
                    "name": "E4",
                    "midi": 64,
                    "time": 103.89611200000014,
                    "velocity": 0.29133858267716534,
                    "duration": 0.7639420000000001
                },
                {
                    "name": "A#3",
                    "midi": 58,
                    "time": 103.89611200000014,
                    "velocity": 0.29133858267716534,
                    "duration": 0.7639420000000001
                },
                {
                    "name": "E4",
                    "midi": 64,
                    "time": 104.66005400000014,
                    "velocity": 0.2755905511811024,
                    "duration": 0.7639419999999859
                },
                {
                    "name": "A#3",
                    "midi": 58,
                    "time": 104.66005400000014,
                    "velocity": 0.2204724409448819,
                    "duration": 0.7639419999999859
                },
                {
                    "name": "F4",
                    "midi": 65,
                    "time": 104.66005400000014,
                    "velocity": 0.33070866141732286,
                    "duration": 0.38197099999999296
                },
                {
                    "name": "F#4",
                    "midi": 66,
                    "time": 105.04202500000014,
                    "velocity": 0.3464566929133858,
                    "duration": 0.38197099999999296
                },
                {
                    "name": "A4",
                    "midi": 69,
                    "time": 105.42399600000013,
                    "velocity": 0.3543307086614173,
                    "duration": 0.38197099999999296
                },
                {
                    "name": "A3",
                    "midi": 57,
                    "time": 105.42399600000013,
                    "velocity": 0.1889763779527559,
                    "duration": 0.7639419999999859
                },
                {
                    "name": "D#4",
                    "midi": 63,
                    "time": 105.42399600000013,
                    "velocity": 0.2677165354330709,
                    "duration": 0.7639419999999859
                },
                {
                    "name": "F#4",
                    "midi": 66,
                    "time": 105.80596700000012,
                    "velocity": 0.3228346456692913,
                    "duration": 0.38197099999999296
                },
                {
                    "name": "A3",
                    "midi": 57,
                    "time": 106.18793800000012,
                    "velocity": 0.33070866141732286,
                    "duration": 0.7321110833333222
                },
                {
                    "name": "E4",
                    "midi": 64,
                    "time": 106.18793800000012,
                    "velocity": 0.33070866141732286,
                    "duration": 0.38197099999999296
                },
                {
                    "name": "D#4",
                    "midi": 63,
                    "time": 106.56990900000011,
                    "velocity": 0.28346456692913385,
                    "duration": 0.35014008333332924
                },
                {
                    "name": "A4",
                    "midi": 69,
                    "time": 106.9518800000001,
                    "velocity": 0.3858267716535433,
                    "duration": 0.7639420000000001
                },
                {
                    "name": "C#5",
                    "midi": 73,
                    "time": 106.9518800000001,
                    "velocity": 0.4645669291338583,
                    "duration": 0.7639420000000001
                },
                {
                    "name": "C#4",
                    "midi": 61,
                    "time": 106.9518800000001,
                    "velocity": 0.3858267716535433,
                    "duration": 0.7639420000000001
                },
                {
                    "name": "C#5",
                    "midi": 73,
                    "time": 107.7158220000001,
                    "velocity": 0.4645669291338583,
                    "duration": 0.7639420000000001
                },
                {
                    "name": "D4",
                    "midi": 62,
                    "time": 107.7158220000001,
                    "velocity": 0.3858267716535433,
                    "duration": 0.7639420000000001
                },
                {
                    "name": "A4",
                    "midi": 69,
                    "time": 107.7158220000001,
                    "velocity": 0.3858267716535433,
                    "duration": 0.7639420000000001
                },
                {
                    "name": "B4",
                    "midi": 71,
                    "time": 108.4797640000001,
                    "velocity": 0.4566929133858268,
                    "duration": 0.7639420000000001
                },
                {
                    "name": "D#4",
                    "midi": 63,
                    "time": 108.4797640000001,
                    "velocity": 0.3779527559055118,
                    "duration": 0.7639420000000001
                },
                {
                    "name": "A4",
                    "midi": 69,
                    "time": 108.4797640000001,
                    "velocity": 0.3779527559055118,
                    "duration": 0.7639420000000001
                },
                {
                    "name": "E4",
                    "midi": 64,
                    "time": 109.2437060000001,
                    "velocity": 0.4330708661417323,
                    "duration": 0.4456328333333204
                },
                {
                    "name": "G#4",
                    "midi": 68,
                    "time": 109.2437060000001,
                    "velocity": 0.3543307086614173,
                    "duration": 0.7639419999999859
                },
                {
                    "name": "B4",
                    "midi": 71,
                    "time": 109.2437060000001,
                    "velocity": 0.3543307086614173,
                    "duration": 0.7639419999999859
                },
                {
                    "name": "F4",
                    "midi": 65,
                    "time": 109.6256770000001,
                    "velocity": 0.4330708661417323,
                    "duration": 0.38197099999999296
                },
                {
                    "name": "B4",
                    "midi": 71,
                    "time": 110.00764800000009,
                    "velocity": 0.4015748031496063,
                    "duration": 0.7639419999999859
                },
                {
                    "name": "G#4",
                    "midi": 68,
                    "time": 110.00764800000009,
                    "velocity": 0.44881889763779526,
                    "duration": 0.38197099999999296
                },
                {
                    "name": "F#4",
                    "midi": 66,
                    "time": 110.38961900000008,
                    "velocity": 0.3937007874015748,
                    "duration": 0.38197099999999296
                },
                {
                    "name": "A4",
                    "midi": 69,
                    "time": 110.77159000000007,
                    "velocity": 0.3700787401574803,
                    "duration": 0.7321110833333222
                },
                {
                    "name": "C#4",
                    "midi": 61,
                    "time": 110.77159000000007,
                    "velocity": 0.3937007874015748,
                    "duration": 0.38197099999999296
                },
                {
                    "name": "A3",
                    "midi": 57,
                    "time": 111.15356100000007,
                    "velocity": 0.3543307086614173,
                    "duration": 0.35014008333332924
                },
                {
                    "name": "D4",
                    "midi": 62,
                    "time": 111.53553200000006,
                    "velocity": 0.3937007874015748,
                    "duration": 0.7639420000000001
                },
                {
                    "name": "G#4",
                    "midi": 68,
                    "time": 111.53553200000006,
                    "velocity": 0.3937007874015748,
                    "duration": 0.7639420000000001
                },
                {
                    "name": "D5",
                    "midi": 74,
                    "time": 111.53553200000006,
                    "velocity": 0.47244094488188976,
                    "duration": 0.7639420000000001
                },
                {
                    "name": "D#4",
                    "midi": 63,
                    "time": 112.29947400000006,
                    "velocity": 0.4409448818897638,
                    "duration": 0.7639420000000001
                },
                {
                    "name": "D5",
                    "midi": 74,
                    "time": 112.29947400000006,
                    "velocity": 0.5275590551181102,
                    "duration": 0.7639420000000001
                },
                {
                    "name": "A4",
                    "midi": 69,
                    "time": 112.29947400000006,
                    "velocity": 0.4409448818897638,
                    "duration": 0.7639420000000001
                },
                {
                    "name": "A4",
                    "midi": 69,
                    "time": 113.06341600000006,
                    "velocity": 0.41732283464566927,
                    "duration": 0.7639420000000001
                },
                {
                    "name": "D#4",
                    "midi": 63,
                    "time": 113.06341600000006,
                    "velocity": 0.41732283464566927,
                    "duration": 0.7639420000000001
                },
                {
                    "name": "C5",
                    "midi": 72,
                    "time": 113.06341600000006,
                    "velocity": 0.49606299212598426,
                    "duration": 0.7639420000000001
                },
                {
                    "name": "B4",
                    "midi": 71,
                    "time": 113.82735800000006,
                    "velocity": 0.5354330708661418,
                    "duration": 0.38197099999999296
                },
                {
                    "name": "D4",
                    "midi": 62,
                    "time": 113.82735800000006,
                    "velocity": 0.44881889763779526,
                    "duration": 0.7639419999999859
                },
                {
                    "name": "G#4",
                    "midi": 68,
                    "time": 113.82735800000006,
                    "velocity": 0.44881889763779526,
                    "duration": 0.7639419999999859
                },
                {
                    "name": "C5",
                    "midi": 72,
                    "time": 114.20932900000005,
                    "velocity": 0.44881889763779526,
                    "duration": 0.38197099999999296
                },
                {
                    "name": "A4",
                    "midi": 69,
                    "time": 114.59130000000005,
                    "velocity": 0.5196850393700787,
                    "duration": 0.38197100000000717
                },
                {
                    "name": "D#5",
                    "midi": 75,
                    "time": 114.59289154583338,
                    "velocity": 0.5196850393700787,
                    "duration": 0.38197100000000717
                },
                {
                    "name": "C5",
                    "midi": 72,
                    "time": 114.97167945416672,
                    "velocity": 0.4409448818897638,
                    "duration": 0.38197100000000717
                },
                {
                    "name": "A#4",
                    "midi": 70,
                    "time": 115.35842509166673,
                    "velocity": 0.5511811023622047,
                    "duration": 0.38197100000000717
                },
                {
                    "name": "A4",
                    "midi": 69,
                    "time": 115.7388045458334,
                    "velocity": 0.49606299212598426,
                    "duration": 0.35014008333332924
                },
                {
                    "name": "A4",
                    "midi": 69,
                    "time": 116.11918400000006,
                    "velocity": 0.4881889763779528,
                    "duration": 0.7639420000000001
                },
                {
                    "name": "D#5",
                    "midi": 75,
                    "time": 116.11918400000006,
                    "velocity": 0.5905511811023622,
                    "duration": 0.7639420000000001
                },
                {
                    "name": "C4",
                    "midi": 60,
                    "time": 116.11918400000006,
                    "velocity": 0.4881889763779528,
                    "duration": 0.7639420000000001
                },
                {
                    "name": "D4",
                    "midi": 62,
                    "time": 116.88312600000006,
                    "velocity": 0.5354330708661418,
                    "duration": 0.7639420000000001
                },
                {
                    "name": "D5",
                    "midi": 74,
                    "time": 116.88312600000006,
                    "velocity": 0.6299212598425197,
                    "duration": 0.7639420000000001
                },
                {
                    "name": "A4",
                    "midi": 69,
                    "time": 116.88312600000006,
                    "velocity": 0.5354330708661418,
                    "duration": 0.7639420000000001
                },
                {
                    "name": "C5",
                    "midi": 72,
                    "time": 117.64706800000006,
                    "velocity": 0.5905511811023622,
                    "duration": 0.7639420000000001
                },
                {
                    "name": "A4",
                    "midi": 69,
                    "time": 117.64706800000006,
                    "velocity": 0.4881889763779528,
                    "duration": 0.7639420000000001
                },
                {
                    "name": "D#4",
                    "midi": 63,
                    "time": 117.64706800000006,
                    "velocity": 0.4881889763779528,
                    "duration": 0.7639420000000001
                },
                {
                    "name": "D4",
                    "midi": 62,
                    "time": 118.41101000000006,
                    "velocity": 0.5354330708661418,
                    "duration": 0.7639419999999859
                },
                {
                    "name": "G#4",
                    "midi": 68,
                    "time": 118.41101000000006,
                    "velocity": 0.5354330708661418,
                    "duration": 0.7639419999999859
                },
                {
                    "name": "B4",
                    "midi": 71,
                    "time": 118.41101000000006,
                    "velocity": 0.6377952755905512,
                    "duration": 0.38197099999999296
                },
                {
                    "name": "C5",
                    "midi": 72,
                    "time": 118.79298100000005,
                    "velocity": 0.6141732283464567,
                    "duration": 0.38197099999999296
                },
                {
                    "name": "A4",
                    "midi": 69,
                    "time": 119.17495200000005,
                    "velocity": 0.6456692913385826,
                    "duration": 0.38197099999999296
                },
                {
                    "name": "G5",
                    "midi": 79,
                    "time": 119.17495200000005,
                    "velocity": 0.6456692913385826,
                    "duration": 2.2918259999999577
                },
                {
                    "name": "D#5",
                    "midi": 75,
                    "time": 119.55692300000004,
                    "velocity": 0.5433070866141733,
                    "duration": 0.38197099999999296
                },
                {
                    "name": "D5",
                    "midi": 74,
                    "time": 119.93889400000003,
                    "velocity": 0.5669291338582677,
                    "duration": 0.41380191666665667
                },
                {
                    "name": "C5",
                    "midi": 72,
                    "time": 120.32086500000003,
                    "velocity": 0.5275590551181102,
                    "duration": 0.41380191666665667
                },
                {
                    "name": "B4",
                    "midi": 71,
                    "time": 120.70283600000002,
                    "velocity": 0.5433070866141733,
                    "duration": 0.41380191666665667
                },
                {
                    "name": "C5",
                    "midi": 72,
                    "time": 121.08480700000001,
                    "velocity": 0.4881889763779528,
                    "duration": 0.38197099999999296
                },
                {
                    "name": "F5",
                    "midi": 77,
                    "time": 121.466778,
                    "velocity": 0.5275590551181102,
                    "duration": 0.7639419999999859
                },
                {
                    "name": "D#5",
                    "midi": 75,
                    "time": 121.466778,
                    "velocity": 0.5275590551181102,
                    "duration": 0.38197099999999296
                },
                {
                    "name": "C5",
                    "midi": 72,
                    "time": 121.848749,
                    "velocity": 0.4645669291338583,
                    "duration": 0.41380191666665667
                },
                {
                    "name": "A#4",
                    "midi": 70,
                    "time": 122.23071999999999,
                    "velocity": 0.4881889763779528,
                    "duration": 0.41380191666665667
                },
                {
                    "name": "A4",
                    "midi": 69,
                    "time": 122.61269099999998,
                    "velocity": 0.36220472440944884,
                    "duration": 0.41380191666665667
                },
                {
                    "name": "G4",
                    "midi": 67,
                    "time": 122.99466199999998,
                    "velocity": 0.4330708661417323,
                    "duration": 0.41380191666665667
                },
                {
                    "name": "F4",
                    "midi": 65,
                    "time": 123.37663299999997,
                    "velocity": 0.3700787401574803,
                    "duration": 0.41380191666665667
                },
                {
                    "name": "D#4",
                    "midi": 63,
                    "time": 123.75860399999996,
                    "velocity": 0.36220472440944884,
                    "duration": 0.41380191666665667
                },
                {
                    "name": "C4",
                    "midi": 60,
                    "time": 124.14057499999996,
                    "velocity": 0.28346456692913385,
                    "duration": 0.41380191666665667
                },
                {
                    "name": "A#3",
                    "midi": 58,
                    "time": 124.52254599999995,
                    "velocity": 0.28346456692913385,
                    "duration": 0.7161956249999974
                },
                {
                    "name": "A3",
                    "midi": 57,
                    "time": 125.28648799999995,
                    "velocity": 0.3228346456692913,
                    "duration": 1.5278840000000002
                },
                {
                    "name": "D#4",
                    "midi": 63,
                    "time": 125.28648799999995,
                    "velocity": 0.3858267716535433,
                    "duration": 0.7639420000000001
                },
                {
                    "name": "D4",
                    "midi": 62,
                    "time": 126.05042999999995,
                    "velocity": 0.41732283464566927,
                    "duration": 0.7639420000000001
                },
                {
                    "name": "D#4",
                    "midi": 63,
                    "time": 126.81437199999995,
                    "velocity": 0.4094488188976378,
                    "duration": 0.7639420000000001
                },
                {
                    "name": "A3",
                    "midi": 57,
                    "time": 126.81437199999995,
                    "velocity": 0.3464566929133858,
                    "duration": 0.7639420000000001
                },
                {
                    "name": "E4",
                    "midi": 64,
                    "time": 127.57831399999995,
                    "velocity": 0.41732283464566927,
                    "duration": 0.7639419999999859
                },
                {
                    "name": "G3",
                    "midi": 55,
                    "time": 127.57831399999995,
                    "velocity": 0.3464566929133858,
                    "duration": 0.7639419999999859
                },
                {
                    "name": "F#4",
                    "midi": 66,
                    "time": 128.34225599999994,
                    "velocity": 0.3858267716535433,
                    "duration": 0.7639419999999859
                },
                {
                    "name": "D#4",
                    "midi": 63,
                    "time": 128.34225599999994,
                    "velocity": 0.3228346456692913,
                    "duration": 0.7639419999999859
                },
                {
                    "name": "F#3",
                    "midi": 54,
                    "time": 128.34225599999994,
                    "velocity": 0.3228346456692913,
                    "duration": 0.7639419999999859
                },
                {
                    "name": "E4",
                    "midi": 64,
                    "time": 129.10619799999992,
                    "velocity": 0.29133858267716534,
                    "duration": 1.5278840000000002
                },
                {
                    "name": "G#4",
                    "midi": 68,
                    "time": 129.10619799999992,
                    "velocity": 0.36220472440944884,
                    "duration": 1.5278840000000002
                },
                {
                    "name": "B3",
                    "midi": 59,
                    "time": 129.10619799999992,
                    "velocity": 0.29133858267716534,
                    "duration": 1.5278840000000002
                },
                {
                    "name": "G#3",
                    "midi": 56,
                    "time": 129.10619799999992,
                    "velocity": 0.29133858267716534,
                    "duration": 1.5278840000000002
                },
                {
                    "name": "G#4",
                    "midi": 68,
                    "time": 130.63408199999992,
                    "velocity": 0.2204724409448819,
                    "duration": 1.5278840000000002
                },
                {
                    "name": "B4",
                    "midi": 71,
                    "time": 130.63408199999992,
                    "velocity": 0.2755905511811024,
                    "duration": 1.5278840000000002
                },
                {
                    "name": "B3",
                    "midi": 59,
                    "time": 130.63408199999992,
                    "velocity": 0.2204724409448819,
                    "duration": 1.5278840000000002
                },
                {
                    "name": "E5",
                    "midi": 76,
                    "time": 132.16196599999992,
                    "velocity": 0.4881889763779528,
                    "duration": 0.7639420000000143
                },
                {
                    "name": "A4",
                    "midi": 69,
                    "time": 132.41661333333326,
                    "velocity": 0.31496062992125984,
                    "duration": 0.2546473333333381
                },
                {
                    "name": "E4",
                    "midi": 64,
                    "time": 132.6712606666666,
                    "velocity": 0.31496062992125984,
                    "duration": 0.2546473333333381
                },
                {
                    "name": "D#5",
                    "midi": 75,
                    "time": 132.92590799999994,
                    "velocity": 0.4645669291338583,
                    "duration": 0.7639420000000143
                },
                {
                    "name": "A4",
                    "midi": 69,
                    "time": 133.18055533333327,
                    "velocity": 0.31496062992125984,
                    "duration": 0.2546473333333381
                },
                {
                    "name": "F4",
                    "midi": 65,
                    "time": 133.4352026666666,
                    "velocity": 0.31496062992125984,
                    "duration": 0.2546473333333381
                },
                {
                    "name": "C#5",
                    "midi": 73,
                    "time": 133.68984999999995,
                    "velocity": 0.44881889763779526,
                    "duration": 0.7639420000000143
                },
                {
                    "name": "A4",
                    "midi": 69,
                    "time": 133.9444973333333,
                    "velocity": 0.31496062992125984,
                    "duration": 0.2546473333333381
                },
                {
                    "name": "F#4",
                    "midi": 66,
                    "time": 134.19914466666663,
                    "velocity": 0.31496062992125984,
                    "duration": 0.2546473333333381
                },
                {
                    "name": "B4",
                    "midi": 71,
                    "time": 134.45379199999996,
                    "velocity": 0.4251968503937008,
                    "duration": 0.7639420000000143
                },
                {
                    "name": "G#4",
                    "midi": 68,
                    "time": 134.7084393333333,
                    "velocity": 0.31496062992125984,
                    "duration": 0.2546473333333381
                },
                {
                    "name": "F4",
                    "midi": 65,
                    "time": 134.96308666666664,
                    "velocity": 0.31496062992125984,
                    "duration": 0.2546473333333381
                },
                {
                    "name": "A4",
                    "midi": 69,
                    "time": 135.21773399999998,
                    "velocity": 0.44881889763779526,
                    "duration": 0.7639420000000428
                },
                {
                    "name": "F#4",
                    "midi": 66,
                    "time": 135.21773399999998,
                    "velocity": 0.49606299212598426,
                    "duration": 0.35014008333334345
                },
                {
                    "name": "E4",
                    "midi": 64,
                    "time": 135.599705,
                    "velocity": 0.44881889763779526,
                    "duration": 0.35014008333334345
                },
                {
                    "name": "C#5",
                    "midi": 73,
                    "time": 135.98167600000002,
                    "velocity": 0.5511811023622047,
                    "duration": 0.35014008333334345
                },
                {
                    "name": "D#4",
                    "midi": 63,
                    "time": 135.98167600000002,
                    "velocity": 0.41732283464566927,
                    "duration": 0.7639420000000428
                },
                {
                    "name": "B4",
                    "midi": 71,
                    "time": 136.36364700000004,
                    "velocity": 0.47244094488188976,
                    "duration": 0.35014008333334345
                },
                {
                    "name": "C#4",
                    "midi": 61,
                    "time": 136.74561800000006,
                    "velocity": 0.5354330708661418,
                    "duration": 0.35014008333334345
                },
                {
                    "name": "E4",
                    "midi": 64,
                    "time": 136.74561800000006,
                    "velocity": 0.4881889763779528,
                    "duration": 0.7639420000000428
                },
                {
                    "name": "B3",
                    "midi": 59,
                    "time": 137.12758900000009,
                    "velocity": 0.4881889763779528,
                    "duration": 0.35014008333334345
                },
                {
                    "name": "A3",
                    "midi": 57,
                    "time": 137.5095600000001,
                    "velocity": 0.41732283464566927,
                    "duration": 0.7639420000000428
                },
                {
                    "name": "A4",
                    "midi": 69,
                    "time": 137.5095600000001,
                    "velocity": 0.5354330708661418,
                    "duration": 0.35014008333334345
                },
                {
                    "name": "G#4",
                    "midi": 68,
                    "time": 137.89153100000013,
                    "velocity": 0.4566929133858268,
                    "duration": 0.35014008333334345
                },
                {
                    "name": "C#4",
                    "midi": 61,
                    "time": 138.27350200000015,
                    "velocity": 0.4094488188976378,
                    "duration": 0.7639419999999859
                },
                {
                    "name": "G#4",
                    "midi": 68,
                    "time": 139.03744400000014,
                    "velocity": 0.4881889763779528,
                    "duration": 2.2918259999999577
                },
                {
                    "name": "C#4",
                    "midi": 61,
                    "time": 139.80138600000012,
                    "velocity": 0.4330708661417323,
                    "duration": 0.7639419999999859
                },
                {
                    "name": "B3",
                    "midi": 59,
                    "time": 140.5653280000001,
                    "velocity": 0.36220472440944884,
                    "duration": 3.819709999999958
                },
                {
                    "name": "F#4",
                    "midi": 66,
                    "time": 141.3292700000001,
                    "velocity": 0.44881889763779526,
                    "duration": 3.055767999999972
                },
                {
                    "name": "A3",
                    "midi": 57,
                    "time": 142.09321200000008,
                    "velocity": 0.3228346456692913,
                    "duration": 1.5278840000000002
                },
                {
                    "name": "E4",
                    "midi": 64,
                    "time": 144.38503800000007,
                    "velocity": 0.33070866141732286,
                    "duration": 1.527884000000057
                },
                {
                    "name": "G#4",
                    "midi": 68,
                    "time": 144.76700900000006,
                    "velocity": 0.30708661417322836,
                    "duration": 0.35014008333334345
                },
                {
                    "name": "B4",
                    "midi": 71,
                    "time": 145.14898000000008,
                    "velocity": 0.31496062992125984,
                    "duration": 0.35014008333334345
                },
                {
                    "name": "E5",
                    "midi": 76,
                    "time": 145.5309510000001,
                    "velocity": 0.28346456692913385,
                    "duration": 0.35014008333334345
                },
                {
                    "name": "G#5",
                    "midi": 80,
                    "time": 145.91292200000012,
                    "velocity": 0.29133858267716534,
                    "duration": 0.35014008333334345
                },
                {
                    "name": "B5",
                    "midi": 83,
                    "time": 146.29489300000014,
                    "velocity": 0.28346456692913385,
                    "duration": 0.35014008333334345
                },
                {
                    "name": "B4",
                    "midi": 71,
                    "time": 146.96334225000015,
                    "velocity": 0.2283464566929134,
                    "duration": 2.005347750000027
                },
                {
                    "name": "E5",
                    "midi": 76,
                    "time": 147.05883500000016,
                    "velocity": 0.23622047244094488,
                    "duration": 1.9098550000000216
                },
                {
                    "name": "G#5",
                    "midi": 80,
                    "time": 147.15432775000016,
                    "velocity": 0.25984251968503935,
                    "duration": 1.8143622500000163
                },
                {
                    "name": "B5",
                    "midi": 83,
                    "time": 147.24982050000017,
                    "velocity": 0.28346456692913385,
                    "duration": 1.718869500000011
                },
                {
                    "name": "E6",
                    "midi": 88,
                    "time": 147.34531325000017,
                    "velocity": 0.31496062992125984,
                    "duration": 1.6233767500000056
                }
            ],
            "controlChanges": {
                "7": [
                    {
                        "number": 7,
                        "time": 0,
                        "value": 0.7874015748031497
                    }
                ],
                "10": [
                    {
                        "number": 10,
                        "time": 0,
                        "value": 0.5039370078740157
                    }
                ],
                "64": [
                    {
                        "number": 64,
                        "time": 0,
                        "value": 0
                    }
                ],
                "91": [
                    {
                        "number": 91,
                        "time": 0,
                        "value": 1
                    },
                    {
                        "number": 91,
                        "time": 1.5215178166666667,
                        "value": 1
                    }
                ]
            },
            "id": 1,
            "name": "Piano right",
            "instrumentNumber": 0,
            "instrument": "acoustic grand piano",
            "instrumentFamily": "piano",
            "channelNumber": 0,
            "isPercussion": false
        },
        {
            "startTime": 1.527884,
            "duration": 148.9686900000003,
            "length": 352,
            "notes": [
                {
                    "name": "E1",
                    "midi": 28,
                    "time": 1.527884,
                    "velocity": 0.2440944881889764,
                    "duration": 0.7639419999999999
                },
                {
                    "name": "E2",
                    "midi": 40,
                    "time": 1.527884,
                    "velocity": 0.3464566929133858,
                    "duration": 0.7639419999999999
                },
                {
                    "name": "A1",
                    "midi": 33,
                    "time": 2.291826,
                    "velocity": 0.2204724409448819,
                    "duration": 0.7639419999999997
                },
                {
                    "name": "A2",
                    "midi": 45,
                    "time": 2.291826,
                    "velocity": 0.3228346456692913,
                    "duration": 0.7639419999999997
                },
                {
                    "name": "F#1",
                    "midi": 30,
                    "time": 3.0557679999999996,
                    "velocity": 0.2047244094488189,
                    "duration": 0.7639420000000001
                },
                {
                    "name": "F#2",
                    "midi": 42,
                    "time": 3.0557679999999996,
                    "velocity": 0.36220472440944884,
                    "duration": 0.7639420000000001
                },
                {
                    "name": "B1",
                    "midi": 35,
                    "time": 3.8197099999999997,
                    "velocity": 0.2204724409448819,
                    "duration": 0.7639420000000001
                },
                {
                    "name": "B2",
                    "midi": 47,
                    "time": 3.8197099999999997,
                    "velocity": 0.30708661417322836,
                    "duration": 0.7639420000000001
                },
                {
                    "name": "E1",
                    "midi": 28,
                    "time": 4.583652,
                    "velocity": 0.2047244094488189,
                    "duration": 0.7639419999999992
                },
                {
                    "name": "E2",
                    "midi": 40,
                    "time": 4.583652,
                    "velocity": 0.29133858267716534,
                    "duration": 0.7639419999999992
                },
                {
                    "name": "E2",
                    "midi": 40,
                    "time": 5.347593999999999,
                    "velocity": 0.18110236220472442,
                    "duration": 0.7321110833333337
                },
                {
                    "name": "E3",
                    "midi": 52,
                    "time": 5.347593999999999,
                    "velocity": 0.2677165354330709,
                    "duration": 0.7321110833333337
                },
                {
                    "name": "B1",
                    "midi": 35,
                    "time": 6.111535999999999,
                    "velocity": 0.2125984251968504,
                    "duration": 0.7639420000000001
                },
                {
                    "name": "B2",
                    "midi": 47,
                    "time": 6.111535999999999,
                    "velocity": 0.30708661417322836,
                    "duration": 0.7639420000000001
                },
                {
                    "name": "C2",
                    "midi": 36,
                    "time": 6.875477999999999,
                    "velocity": 0.2125984251968504,
                    "duration": 0.7639420000000001
                },
                {
                    "name": "C3",
                    "midi": 48,
                    "time": 6.875477999999999,
                    "velocity": 0.30708661417322836,
                    "duration": 0.7639420000000001
                },
                {
                    "name": "C#2",
                    "midi": 37,
                    "time": 7.639419999999999,
                    "velocity": 0.2125984251968504,
                    "duration": 0.7639420000000001
                },
                {
                    "name": "C#3",
                    "midi": 49,
                    "time": 7.639419999999999,
                    "velocity": 0.30708661417322836,
                    "duration": 0.7639420000000001
                },
                {
                    "name": "F#1",
                    "midi": 30,
                    "time": 8.403362,
                    "velocity": 0.1968503937007874,
                    "duration": 0.7639420000000001
                },
                {
                    "name": "F#2",
                    "midi": 42,
                    "time": 8.403362,
                    "velocity": 0.28346456692913385,
                    "duration": 0.7639420000000001
                },
                {
                    "name": "B1",
                    "midi": 35,
                    "time": 9.167304,
                    "velocity": 0.2283464566929134,
                    "duration": 0.7639420000000001
                },
                {
                    "name": "F#3",
                    "midi": 54,
                    "time": 9.931246,
                    "velocity": 0.18110236220472442,
                    "duration": 0.7321110833333329
                },
                {
                    "name": "B2",
                    "midi": 47,
                    "time": 9.931246,
                    "velocity": 0.16535433070866143,
                    "duration": 0.7321110833333329
                },
                {
                    "name": "F#1",
                    "midi": 30,
                    "time": 10.695188,
                    "velocity": 0.2677165354330709,
                    "duration": 0.7639420000000001
                },
                {
                    "name": "F#2",
                    "midi": 42,
                    "time": 10.695188,
                    "velocity": 0.3228346456692913,
                    "duration": 0.7639420000000001
                },
                {
                    "name": "B1",
                    "midi": 35,
                    "time": 11.45913,
                    "velocity": 0.2677165354330709,
                    "duration": 0.7639419999999983
                },
                {
                    "name": "B2",
                    "midi": 47,
                    "time": 11.45913,
                    "velocity": 0.31496062992125984,
                    "duration": 0.7639419999999983
                },
                {
                    "name": "G#1",
                    "midi": 32,
                    "time": 12.223071999999998,
                    "velocity": 0.2677165354330709,
                    "duration": 0.7639420000000001
                },
                {
                    "name": "G#2",
                    "midi": 44,
                    "time": 12.223071999999998,
                    "velocity": 0.31496062992125984,
                    "duration": 0.7639420000000001
                },
                {
                    "name": "C#2",
                    "midi": 37,
                    "time": 12.987013999999999,
                    "velocity": 0.2677165354330709,
                    "duration": 0.7639419999999983
                },
                {
                    "name": "C#3",
                    "midi": 49,
                    "time": 12.987013999999999,
                    "velocity": 0.3228346456692913,
                    "duration": 0.7639419999999983
                },
                {
                    "name": "F#1",
                    "midi": 30,
                    "time": 13.750955999999997,
                    "velocity": 0.2283464566929134,
                    "duration": 0.7639420000000001
                },
                {
                    "name": "F#2",
                    "midi": 42,
                    "time": 13.750955999999997,
                    "velocity": 0.2755905511811024,
                    "duration": 0.7639420000000001
                },
                {
                    "name": "F#2",
                    "midi": 42,
                    "time": 14.514897999999997,
                    "velocity": 0.1732283464566929,
                    "duration": 0.7321110833333329
                },
                {
                    "name": "F#3",
                    "midi": 54,
                    "time": 14.514897999999997,
                    "velocity": 0.2283464566929134,
                    "duration": 0.7321110833333329
                },
                {
                    "name": "D2",
                    "midi": 38,
                    "time": 15.278839999999997,
                    "velocity": 0.23622047244094488,
                    "duration": 0.7639419999999983
                },
                {
                    "name": "D3",
                    "midi": 50,
                    "time": 15.278839999999997,
                    "velocity": 0.28346456692913385,
                    "duration": 0.7639419999999983
                },
                {
                    "name": "D#2",
                    "midi": 39,
                    "time": 16.042781999999995,
                    "velocity": 0.23622047244094488,
                    "duration": 0.7639420000000001
                },
                {
                    "name": "D#3",
                    "midi": 51,
                    "time": 16.042781999999995,
                    "velocity": 0.28346456692913385,
                    "duration": 0.7639420000000001
                },
                {
                    "name": "E2",
                    "midi": 40,
                    "time": 16.806723999999996,
                    "velocity": 0.2440944881889764,
                    "duration": 0.7639420000000001
                },
                {
                    "name": "E3",
                    "midi": 52,
                    "time": 16.806723999999996,
                    "velocity": 0.29133858267716534,
                    "duration": 0.7639420000000001
                },
                {
                    "name": "C#2",
                    "midi": 37,
                    "time": 17.570665999999996,
                    "velocity": 0.2677165354330709,
                    "duration": 0.7639420000000001
                },
                {
                    "name": "C#3",
                    "midi": 49,
                    "time": 17.570665999999996,
                    "velocity": 0.3228346456692913,
                    "duration": 0.7639420000000001
                },
                {
                    "name": "G#1",
                    "midi": 32,
                    "time": 18.334607999999996,
                    "velocity": 0.23622047244094488,
                    "duration": 0.7639420000000001
                },
                {
                    "name": "G#2",
                    "midi": 44,
                    "time": 18.334607999999996,
                    "velocity": 0.28346456692913385,
                    "duration": 0.7639420000000001
                },
                {
                    "name": "C#1",
                    "midi": 25,
                    "time": 19.098549999999996,
                    "velocity": 0.23622047244094488,
                    "duration": 0.716195625000001
                },
                {
                    "name": "C#2",
                    "midi": 37,
                    "time": 19.098549999999996,
                    "velocity": 0.28346456692913385,
                    "duration": 0.716195625000001
                },
                {
                    "name": "F4",
                    "midi": 65,
                    "time": 19.862491999999996,
                    "velocity": 0.2677165354330709,
                    "duration": 0.7639420000000001
                },
                {
                    "name": "C#4",
                    "midi": 61,
                    "time": 19.862491999999996,
                    "velocity": 0.2677165354330709,
                    "duration": 0.7639420000000001
                },
                {
                    "name": "G#3",
                    "midi": 56,
                    "time": 20.626433999999996,
                    "velocity": 0.33070866141732286,
                    "duration": 0.7639420000000001
                },
                {
                    "name": "D#4",
                    "midi": 63,
                    "time": 20.626433999999996,
                    "velocity": 0.28346456692913385,
                    "duration": 0.7639420000000001
                },
                {
                    "name": "C#3",
                    "midi": 49,
                    "time": 21.390375999999996,
                    "velocity": 0.2755905511811024,
                    "duration": 0.7639420000000001
                },
                {
                    "name": "C#4",
                    "midi": 61,
                    "time": 21.390375999999996,
                    "velocity": 0.2755905511811024,
                    "duration": 0.7639420000000001
                },
                {
                    "name": "F#2",
                    "midi": 42,
                    "time": 22.154317999999996,
                    "velocity": 0.2992125984251969,
                    "duration": 0.2864782500000018
                },
                {
                    "name": "F#3",
                    "midi": 54,
                    "time": 22.40896533333333,
                    "velocity": 0.2440944881889764,
                    "duration": 0.2864782500000018
                },
                {
                    "name": "A#3",
                    "midi": 58,
                    "time": 22.663612666666666,
                    "velocity": 0.2283464566929134,
                    "duration": 0.25464733333333456
                },
                {
                    "name": "G#2",
                    "midi": 44,
                    "time": 22.91826,
                    "velocity": 0.2992125984251969,
                    "duration": 0.2864782500000018
                },
                {
                    "name": "G#3",
                    "midi": 56,
                    "time": 23.172907333333335,
                    "velocity": 0.25984251968503935,
                    "duration": 0.2864782500000018
                },
                {
                    "name": "F4",
                    "midi": 65,
                    "time": 23.42755466666667,
                    "velocity": 0.23622047244094488,
                    "duration": 0.25464733333333456
                },
                {
                    "name": "G#3",
                    "midi": 56,
                    "time": 23.682202000000004,
                    "velocity": 0.33070866141732286,
                    "duration": 0.28647824999999827
                },
                {
                    "name": "F#4",
                    "midi": 66,
                    "time": 23.682202000000004,
                    "velocity": 0.33070866141732286,
                    "duration": 0.28647824999999827
                },
                {
                    "name": "D#4",
                    "midi": 63,
                    "time": 23.936849333333335,
                    "velocity": 0.25984251968503935,
                    "duration": 0.2864782500000018
                },
                {
                    "name": "G#3",
                    "midi": 56,
                    "time": 24.19149666666667,
                    "velocity": 0.31496062992125984,
                    "duration": 0.25464733333333456
                },
                {
                    "name": "F4",
                    "midi": 65,
                    "time": 24.446144000000004,
                    "velocity": 0.23622047244094488,
                    "duration": 0.7639420000000001
                },
                {
                    "name": "C#4",
                    "midi": 61,
                    "time": 24.446144000000004,
                    "velocity": 0.23622047244094488,
                    "duration": 0.7639420000000001
                },
                {
                    "name": "G#3",
                    "midi": 56,
                    "time": 25.210086000000004,
                    "velocity": 0.36220472440944884,
                    "duration": 0.7639420000000001
                },
                {
                    "name": "D#4",
                    "midi": 63,
                    "time": 25.210086000000004,
                    "velocity": 0.36220472440944884,
                    "duration": 0.7639420000000001
                },
                {
                    "name": "C#3",
                    "midi": 49,
                    "time": 25.974028000000004,
                    "velocity": 0.3228346456692913,
                    "duration": 0.7639420000000001
                },
                {
                    "name": "C#4",
                    "midi": 61,
                    "time": 25.974028000000004,
                    "velocity": 0.3228346456692913,
                    "duration": 0.7639420000000001
                },
                {
                    "name": "F#2",
                    "midi": 42,
                    "time": 26.737970000000004,
                    "velocity": 0.33070866141732286,
                    "duration": 0.2864782500000018
                },
                {
                    "name": "F#3",
                    "midi": 54,
                    "time": 26.99261733333334,
                    "velocity": 0.29133858267716534,
                    "duration": 0.2864782500000018
                },
                {
                    "name": "A3",
                    "midi": 57,
                    "time": 27.247264666666673,
                    "velocity": 0.30708661417322836,
                    "duration": 0.25464733333333456
                },
                {
                    "name": "E2",
                    "midi": 40,
                    "time": 27.501912000000008,
                    "velocity": 0.3700787401574803,
                    "duration": 0.2864782500000018
                },
                {
                    "name": "E3",
                    "midi": 52,
                    "time": 27.756559333333342,
                    "velocity": 0.30708661417322836,
                    "duration": 0.2864782500000018
                },
                {
                    "name": "C#4",
                    "midi": 61,
                    "time": 28.011206666666677,
                    "velocity": 0.30708661417322836,
                    "duration": 0.25464733333333456
                },
                {
                    "name": "E3",
                    "midi": 52,
                    "time": 28.26585400000001,
                    "velocity": 0.3858267716535433,
                    "duration": 0.7639420000000001
                },
                {
                    "name": "B3",
                    "midi": 59,
                    "time": 28.520501333333343,
                    "velocity": 0.33070866141732286,
                    "duration": 0.25464733333333456
                },
                {
                    "name": "D4",
                    "midi": 62,
                    "time": 28.775148666666677,
                    "velocity": 0.33070866141732286,
                    "duration": 0.25464733333333456
                },
                {
                    "name": "E3",
                    "midi": 52,
                    "time": 29.02979600000001,
                    "velocity": 0.4094488188976378,
                    "duration": 0.7639420000000001
                },
                {
                    "name": "G3",
                    "midi": 55,
                    "time": 29.02979600000001,
                    "velocity": 0.4094488188976378,
                    "duration": 0.7639420000000001
                },
                {
                    "name": "C#4",
                    "midi": 61,
                    "time": 29.02979600000001,
                    "velocity": 0.4094488188976378,
                    "duration": 0.7639420000000001
                },
                {
                    "name": "E3",
                    "midi": 52,
                    "time": 29.793738000000012,
                    "velocity": 0.4645669291338583,
                    "duration": 0.7639420000000001
                },
                {
                    "name": "G3",
                    "midi": 55,
                    "time": 29.793738000000012,
                    "velocity": 0.4645669291338583,
                    "duration": 0.7639420000000001
                },
                {
                    "name": "C4",
                    "midi": 60,
                    "time": 29.793738000000012,
                    "velocity": 0.4645669291338583,
                    "duration": 0.7639420000000001
                },
                {
                    "name": "E3",
                    "midi": 52,
                    "time": 30.557680000000012,
                    "velocity": 0.4645669291338583,
                    "duration": 0.7480265416666683
                },
                {
                    "name": "G3",
                    "midi": 55,
                    "time": 30.557680000000012,
                    "velocity": 0.4645669291338583,
                    "duration": 0.7480265416666683
                },
                {
                    "name": "A#3",
                    "midi": 58,
                    "time": 30.557680000000012,
                    "velocity": 0.4645669291338583,
                    "duration": 0.7480265416666683
                },
                {
                    "name": "C#3",
                    "midi": 49,
                    "time": 31.321622000000012,
                    "velocity": 0.2677165354330709,
                    "duration": 0.7639420000000001
                },
                {
                    "name": "E3",
                    "midi": 52,
                    "time": 31.321622000000012,
                    "velocity": 0.2677165354330709,
                    "duration": 0.7639420000000001
                },
                {
                    "name": "G3",
                    "midi": 55,
                    "time": 31.321622000000012,
                    "velocity": 0.2677165354330709,
                    "duration": 0.7639420000000001
                },
                {
                    "name": "C3",
                    "midi": 48,
                    "time": 32.08556400000001,
                    "velocity": 0.29133858267716534,
                    "duration": 0.763941999999993
                },
                {
                    "name": "E3",
                    "midi": 52,
                    "time": 32.08556400000001,
                    "velocity": 0.29133858267716534,
                    "duration": 0.763941999999993
                },
                {
                    "name": "G3",
                    "midi": 55,
                    "time": 32.08556400000001,
                    "velocity": 0.29133858267716534,
                    "duration": 0.763941999999993
                },
                {
                    "name": "A#2",
                    "midi": 46,
                    "time": 32.849506000000005,
                    "velocity": 0.2677165354330709,
                    "duration": 0.7161956249999974
                },
                {
                    "name": "G3",
                    "midi": 55,
                    "time": 32.849506000000005,
                    "velocity": 0.2677165354330709,
                    "duration": 0.7161956249999974
                },
                {
                    "name": "E3",
                    "midi": 52,
                    "time": 32.849506000000005,
                    "velocity": 0.2677165354330709,
                    "duration": 0.7161956249999974
                },
                {
                    "name": "B2",
                    "midi": 47,
                    "time": 33.613448000000005,
                    "velocity": 0.30708661417322836,
                    "duration": 0.7639420000000001
                },
                {
                    "name": "B1",
                    "midi": 35,
                    "time": 33.613448000000005,
                    "velocity": 0.2125984251968504,
                    "duration": 0.7639420000000001
                },
                {
                    "name": "C3",
                    "midi": 48,
                    "time": 34.377390000000005,
                    "velocity": 0.30708661417322836,
                    "duration": 0.7639420000000001
                },
                {
                    "name": "C2",
                    "midi": 36,
                    "time": 34.377390000000005,
                    "velocity": 0.2125984251968504,
                    "duration": 0.7639420000000001
                },
                {
                    "name": "C#2",
                    "midi": 37,
                    "time": 35.141332000000006,
                    "velocity": 0.2125984251968504,
                    "duration": 0.7639420000000001
                },
                {
                    "name": "C#3",
                    "midi": 49,
                    "time": 35.141332000000006,
                    "velocity": 0.30708661417322836,
                    "duration": 0.7639420000000001
                },
                {
                    "name": "F#2",
                    "midi": 42,
                    "time": 35.905274000000006,
                    "velocity": 0.28346456692913385,
                    "duration": 0.7639420000000072
                },
                {
                    "name": "F#1",
                    "midi": 30,
                    "time": 35.905274000000006,
                    "velocity": 0.1968503937007874,
                    "duration": 0.7639420000000072
                },
                {
                    "name": "B1",
                    "midi": 35,
                    "time": 36.66921600000001,
                    "velocity": 0.2283464566929134,
                    "duration": 0.7639420000000001
                },
                {
                    "name": "B2",
                    "midi": 47,
                    "time": 37.43315800000001,
                    "velocity": 0.16535433070866143,
                    "duration": 0.7321110833333364
                },
                {
                    "name": "F#3",
                    "midi": 54,
                    "time": 37.43315800000001,
                    "velocity": 0.18110236220472442,
                    "duration": 0.7321110833333364
                },
                {
                    "name": "F#1",
                    "midi": 30,
                    "time": 38.19710000000001,
                    "velocity": 0.2677165354330709,
                    "duration": 0.7639420000000001
                },
                {
                    "name": "F#2",
                    "midi": 42,
                    "time": 38.19710000000001,
                    "velocity": 0.3228346456692913,
                    "duration": 0.7639420000000001
                },
                {
                    "name": "B1",
                    "midi": 35,
                    "time": 38.96104200000001,
                    "velocity": 0.2677165354330709,
                    "duration": 0.7639420000000072
                },
                {
                    "name": "B2",
                    "midi": 47,
                    "time": 38.96104200000001,
                    "velocity": 0.31496062992125984,
                    "duration": 0.7639420000000072
                },
                {
                    "name": "G#2",
                    "midi": 44,
                    "time": 39.72498400000002,
                    "velocity": 0.31496062992125984,
                    "duration": 0.7639420000000072
                },
                {
                    "name": "G#1",
                    "midi": 32,
                    "time": 39.72498400000002,
                    "velocity": 0.2677165354330709,
                    "duration": 0.7639420000000072
                },
                {
                    "name": "C#2",
                    "midi": 37,
                    "time": 40.48892600000003,
                    "velocity": 0.2677165354330709,
                    "duration": 0.7639420000000001
                },
                {
                    "name": "C#3",
                    "midi": 49,
                    "time": 40.48892600000003,
                    "velocity": 0.3228346456692913,
                    "duration": 0.7639420000000001
                },
                {
                    "name": "F#1",
                    "midi": 30,
                    "time": 41.25286800000003,
                    "velocity": 0.2283464566929134,
                    "duration": 0.7639420000000001
                },
                {
                    "name": "F#2",
                    "midi": 42,
                    "time": 41.25286800000003,
                    "velocity": 0.2755905511811024,
                    "duration": 0.7639420000000001
                },
                {
                    "name": "F#3",
                    "midi": 54,
                    "time": 42.01681000000003,
                    "velocity": 0.2283464566929134,
                    "duration": 0.7321110833333364
                },
                {
                    "name": "F#2",
                    "midi": 42,
                    "time": 42.01681000000003,
                    "velocity": 0.1732283464566929,
                    "duration": 0.7321110833333364
                },
                {
                    "name": "E1",
                    "midi": 28,
                    "time": 42.78075200000003,
                    "velocity": 0.3937007874015748,
                    "duration": 0.7321110833333364
                },
                {
                    "name": "E2",
                    "midi": 40,
                    "time": 42.78075200000003,
                    "velocity": 0.4645669291338583,
                    "duration": 0.7321110833333364
                },
                {
                    "name": "F1",
                    "midi": 29,
                    "time": 43.54469400000003,
                    "velocity": 0.4015748031496063,
                    "duration": 0.763941999999993
                },
                {
                    "name": "F2",
                    "midi": 41,
                    "time": 43.54469400000003,
                    "velocity": 0.47244094488188976,
                    "duration": 0.763941999999993
                },
                {
                    "name": "F3",
                    "midi": 53,
                    "time": 44.30863600000002,
                    "velocity": 0.44881889763779526,
                    "duration": 0.7639420000000001
                },
                {
                    "name": "F2",
                    "midi": 41,
                    "time": 44.30863600000002,
                    "velocity": 0.3779527559055118,
                    "duration": 0.7639420000000001
                },
                {
                    "name": "F#2",
                    "midi": 42,
                    "time": 45.07257800000002,
                    "velocity": 0.48031496062992124,
                    "duration": 0.7639420000000001
                },
                {
                    "name": "F#1",
                    "midi": 30,
                    "time": 45.07257800000002,
                    "velocity": 0.4015748031496063,
                    "duration": 0.7639420000000001
                },
                {
                    "name": "F#2",
                    "midi": 42,
                    "time": 45.83652000000002,
                    "velocity": 0.3937007874015748,
                    "duration": 0.7639420000000001
                },
                {
                    "name": "F#3",
                    "midi": 54,
                    "time": 45.83652000000002,
                    "velocity": 0.4645669291338583,
                    "duration": 0.7639420000000001
                },
                {
                    "name": "F1",
                    "midi": 29,
                    "time": 46.60046200000002,
                    "velocity": 0.36220472440944884,
                    "duration": 0.7639420000000001
                },
                {
                    "name": "F2",
                    "midi": 41,
                    "time": 46.60046200000002,
                    "velocity": 0.4330708661417323,
                    "duration": 0.7639420000000001
                },
                {
                    "name": "F2",
                    "midi": 41,
                    "time": 47.36440400000002,
                    "velocity": 0.30708661417322836,
                    "duration": 0.7639420000000001
                },
                {
                    "name": "C3",
                    "midi": 48,
                    "time": 47.36440400000002,
                    "velocity": 0.3700787401574803,
                    "duration": 1.5278840000000002
                },
                {
                    "name": "F#2",
                    "midi": 42,
                    "time": 48.12834600000002,
                    "velocity": 0.2755905511811024,
                    "duration": 0.7639420000000001
                },
                {
                    "name": "G2",
                    "midi": 43,
                    "time": 48.89228800000002,
                    "velocity": 0.3228346456692913,
                    "duration": 0.7639420000000001
                },
                {
                    "name": "B2",
                    "midi": 47,
                    "time": 48.89228800000002,
                    "velocity": 0.3228346456692913,
                    "duration": 1.5278840000000002
                },
                {
                    "name": "E2",
                    "midi": 40,
                    "time": 49.65623000000002,
                    "velocity": 0.33070866141732286,
                    "duration": 0.7639420000000001
                },
                {
                    "name": "B2",
                    "midi": 47,
                    "time": 50.42017200000002,
                    "velocity": 0.30708661417322836,
                    "duration": 0.5729565000000036
                },
                {
                    "name": "B1",
                    "midi": 35,
                    "time": 50.42017200000002,
                    "velocity": 0.25984251968503935,
                    "duration": 0.5729565000000036
                },
                {
                    "name": "E1",
                    "midi": 28,
                    "time": 50.993128500000026,
                    "velocity": 0.28346456692913385,
                    "duration": 1.7188695000000038
                },
                {
                    "name": "E2",
                    "midi": 40,
                    "time": 51.08862125000003,
                    "velocity": 0.3228346456692913,
                    "duration": 2.3873187499999986
                },
                {
                    "name": "B2",
                    "midi": 47,
                    "time": 51.18411400000003,
                    "velocity": 0.28346456692913385,
                    "duration": 2.2918260000000004
                },
                {
                    "name": "D#3",
                    "midi": 51,
                    "time": 53.47594000000003,
                    "velocity": 0.2047244094488189,
                    "duration": 3.0557680000000005
                },
                {
                    "name": "D#2",
                    "midi": 39,
                    "time": 53.47594000000003,
                    "velocity": 0.2047244094488189,
                    "duration": 3.0557680000000005
                },
                {
                    "name": "B2",
                    "midi": 47,
                    "time": 53.47594000000003,
                    "velocity": 0.2047244094488189,
                    "duration": 3.0557680000000005
                },
                {
                    "name": "D#4",
                    "midi": 63,
                    "time": 57.29565000000003,
                    "velocity": 0.3228346456692913,
                    "duration": 0.254647333333331
                },
                {
                    "name": "B3",
                    "midi": 59,
                    "time": 57.55029733333336,
                    "velocity": 0.2125984251968504,
                    "duration": 0.254647333333331
                },
                {
                    "name": "G#3",
                    "midi": 56,
                    "time": 57.80494466666669,
                    "velocity": 0.25984251968503935,
                    "duration": 0.254647333333331
                },
                {
                    "name": "B3",
                    "midi": 59,
                    "time": 58.82353400000002,
                    "velocity": 0.31496062992125984,
                    "duration": 0.254647333333331
                },
                {
                    "name": "G#3",
                    "midi": 56,
                    "time": 59.078181333333355,
                    "velocity": 0.2204724409448819,
                    "duration": 0.254647333333331
                },
                {
                    "name": "E3",
                    "midi": 52,
                    "time": 59.332828666666686,
                    "velocity": 0.2677165354330709,
                    "duration": 0.254647333333331
                },
                {
                    "name": "G#3",
                    "midi": 56,
                    "time": 60.35141800000002,
                    "velocity": 0.3464566929133858,
                    "duration": 0.2546473333333381
                },
                {
                    "name": "E3",
                    "midi": 52,
                    "time": 60.606065333333355,
                    "velocity": 0.23622047244094488,
                    "duration": 0.254647333333331
                },
                {
                    "name": "C#3",
                    "midi": 49,
                    "time": 60.860712666666686,
                    "velocity": 0.2755905511811024,
                    "duration": 0.254647333333331
                },
                {
                    "name": "G#3",
                    "midi": 56,
                    "time": 61.87930200000002,
                    "velocity": 0.3464566929133858,
                    "duration": 0.254647333333331
                },
                {
                    "name": "E3",
                    "midi": 52,
                    "time": 62.13394933333335,
                    "velocity": 0.25984251968503935,
                    "duration": 0.254647333333331
                },
                {
                    "name": "C#3",
                    "midi": 49,
                    "time": 62.38859666666668,
                    "velocity": 0.2755905511811024,
                    "duration": 0.254647333333331
                },
                {
                    "name": "A#3",
                    "midi": 58,
                    "time": 63.40718600000001,
                    "velocity": 0.3779527559055118,
                    "duration": 0.2546473333333381
                },
                {
                    "name": "G3",
                    "midi": 55,
                    "time": 63.66183333333335,
                    "velocity": 0.31496062992125984,
                    "duration": 0.254647333333331
                },
                {
                    "name": "D#3",
                    "midi": 51,
                    "time": 63.91648066666668,
                    "velocity": 0.28346456692913385,
                    "duration": 0.254647333333331
                },
                {
                    "name": "C#4",
                    "midi": 61,
                    "time": 64.93507000000001,
                    "velocity": 0.31496062992125984,
                    "duration": 0.2546473333333381
                },
                {
                    "name": "A#3",
                    "midi": 58,
                    "time": 65.18971733333335,
                    "velocity": 0.2125984251968504,
                    "duration": 0.2546473333333381
                },
                {
                    "name": "G3",
                    "midi": 55,
                    "time": 65.44436466666669,
                    "velocity": 0.25984251968503935,
                    "duration": 0.2546473333333381
                },
                {
                    "name": "D#3",
                    "midi": 51,
                    "time": 65.69901200000002,
                    "velocity": 0.2992125984251969,
                    "duration": 0.38197099999999296
                },
                {
                    "name": "D#4",
                    "midi": 63,
                    "time": 66.46295400000001,
                    "velocity": 0.3228346456692913,
                    "duration": 0.2546473333333239
                },
                {
                    "name": "B3",
                    "midi": 59,
                    "time": 66.71760133333333,
                    "velocity": 0.2204724409448819,
                    "duration": 0.2546473333333381
                },
                {
                    "name": "G#3",
                    "midi": 56,
                    "time": 66.97224866666667,
                    "velocity": 0.25984251968503935,
                    "duration": 0.2546473333333381
                },
                {
                    "name": "B3",
                    "midi": 59,
                    "time": 67.99083800000002,
                    "velocity": 0.31496062992125984,
                    "duration": 0.2546473333333239
                },
                {
                    "name": "G#3",
                    "midi": 56,
                    "time": 68.24548533333335,
                    "velocity": 0.2283464566929134,
                    "duration": 0.2546473333333381
                },
                {
                    "name": "E3",
                    "midi": 52,
                    "time": 68.50013266666669,
                    "velocity": 0.23622047244094488,
                    "duration": 0.2546473333333381
                },
                {
                    "name": "G#3",
                    "midi": 56,
                    "time": 69.51872200000003,
                    "velocity": 0.3464566929133858,
                    "duration": 0.2546473333333381
                },
                {
                    "name": "E3",
                    "midi": 52,
                    "time": 69.77336933333336,
                    "velocity": 0.25984251968503935,
                    "duration": 0.2546473333333381
                },
                {
                    "name": "C#3",
                    "midi": 49,
                    "time": 70.0280166666667,
                    "velocity": 0.2755905511811024,
                    "duration": 0.2546473333333381
                },
                {
                    "name": "E3",
                    "midi": 52,
                    "time": 71.04660600000004,
                    "velocity": 0.3779527559055118,
                    "duration": 0.2546473333333381
                },
                {
                    "name": "C#3",
                    "midi": 49,
                    "time": 71.30125333333338,
                    "velocity": 0.2677165354330709,
                    "duration": 0.2546473333333381
                },
                {
                    "name": "A#2",
                    "midi": 46,
                    "time": 71.55590066666672,
                    "velocity": 0.31496062992125984,
                    "duration": 0.2546473333333381
                },
                {
                    "name": "C#3",
                    "midi": 49,
                    "time": 72.57449000000005,
                    "velocity": 0.48031496062992124,
                    "duration": 0.2546473333333523
                },
                {
                    "name": "A#2",
                    "midi": 46,
                    "time": 72.8291373333334,
                    "velocity": 0.4645669291338583,
                    "duration": 0.2546473333333381
                },
                {
                    "name": "F#2",
                    "midi": 42,
                    "time": 73.08378466666674,
                    "velocity": 0.4251968503937008,
                    "duration": 0.2546473333333381
                },
                {
                    "name": "C#3",
                    "midi": 49,
                    "time": 74.10237400000008,
                    "velocity": 0.4881889763779528,
                    "duration": 0.2546473333333381
                },
                {
                    "name": "A#2",
                    "midi": 46,
                    "time": 74.35702133333342,
                    "velocity": 0.4409448818897638,
                    "duration": 0.2546473333333381
                },
                {
                    "name": "G2",
                    "midi": 43,
                    "time": 74.61166866666676,
                    "velocity": 0.4015748031496063,
                    "duration": 0.2546473333333381
                },
                {
                    "name": "D#2",
                    "midi": 39,
                    "time": 74.8663160000001,
                    "velocity": 0.3228346456692913,
                    "duration": 0.38197100000000717
                },
                {
                    "name": "G#2",
                    "midi": 44,
                    "time": 75.6302580000001,
                    "velocity": 0.29133858267716534,
                    "duration": 0.2546473333333239
                },
                {
                    "name": "D#3",
                    "midi": 51,
                    "time": 75.88490533333342,
                    "velocity": 0.2283464566929134,
                    "duration": 0.2546473333333381
                },
                {
                    "name": "G#3",
                    "midi": 56,
                    "time": 76.13955266666676,
                    "velocity": 0.2755905511811024,
                    "duration": 0.2546473333333381
                },
                {
                    "name": "E2",
                    "midi": 40,
                    "time": 77.1581420000001,
                    "velocity": 0.3228346456692913,
                    "duration": 0.2546473333333381
                },
                {
                    "name": "B2",
                    "midi": 47,
                    "time": 77.41278933333344,
                    "velocity": 0.28346456692913385,
                    "duration": 0.2546473333333381
                },
                {
                    "name": "E3",
                    "midi": 52,
                    "time": 77.66743666666677,
                    "velocity": 0.30708661417322836,
                    "duration": 0.2546473333333381
                },
                {
                    "name": "C#2",
                    "midi": 37,
                    "time": 78.68602600000011,
                    "velocity": 0.36220472440944884,
                    "duration": 0.2546473333333239
                },
                {
                    "name": "G#2",
                    "midi": 44,
                    "time": 78.94067333333344,
                    "velocity": 0.31496062992125984,
                    "duration": 0.2546473333333381
                },
                {
                    "name": "E3",
                    "midi": 52,
                    "time": 79.19532066666677,
                    "velocity": 0.2677165354330709,
                    "duration": 0.2546473333333381
                },
                {
                    "name": "C#2",
                    "midi": 37,
                    "time": 80.21391000000011,
                    "velocity": 0.36220472440944884,
                    "duration": 0.2546473333333239
                },
                {
                    "name": "G#2",
                    "midi": 44,
                    "time": 80.46855733333344,
                    "velocity": 0.31496062992125984,
                    "duration": 0.2546473333333381
                },
                {
                    "name": "E3",
                    "midi": 52,
                    "time": 80.72320466666677,
                    "velocity": 0.2677165354330709,
                    "duration": 0.2546473333333381
                },
                {
                    "name": "D#2",
                    "midi": 39,
                    "time": 81.74179400000011,
                    "velocity": 0.3464566929133858,
                    "duration": 0.2546473333333381
                },
                {
                    "name": "A#2",
                    "midi": 46,
                    "time": 81.99644133333345,
                    "velocity": 0.31496062992125984,
                    "duration": 0.2546473333333381
                },
                {
                    "name": "G3",
                    "midi": 55,
                    "time": 82.25108866666679,
                    "velocity": 0.2677165354330709,
                    "duration": 0.2546473333333381
                },
                {
                    "name": "C#4",
                    "midi": 61,
                    "time": 83.26967800000013,
                    "velocity": 0.31496062992125984,
                    "duration": 0.2546473333333381
                },
                {
                    "name": "A#3",
                    "midi": 58,
                    "time": 83.52432533333346,
                    "velocity": 0.2204724409448819,
                    "duration": 0.2546473333333381
                },
                {
                    "name": "G3",
                    "midi": 55,
                    "time": 83.7789726666668,
                    "velocity": 0.25984251968503935,
                    "duration": 0.2546473333333381
                },
                {
                    "name": "D#3",
                    "midi": 51,
                    "time": 84.03362000000014,
                    "velocity": 0.25984251968503935,
                    "duration": 0.38197099999999296
                },
                {
                    "name": "D#4",
                    "midi": 63,
                    "time": 84.79756200000013,
                    "velocity": 0.3228346456692913,
                    "duration": 0.2546473333333381
                },
                {
                    "name": "B3",
                    "midi": 59,
                    "time": 85.05220933333347,
                    "velocity": 0.2283464566929134,
                    "duration": 0.2546473333333381
                },
                {
                    "name": "G#3",
                    "midi": 56,
                    "time": 85.3068566666668,
                    "velocity": 0.25984251968503935,
                    "duration": 0.2546473333333381
                },
                {
                    "name": "B3",
                    "midi": 59,
                    "time": 86.32544600000014,
                    "velocity": 0.31496062992125984,
                    "duration": 0.2546473333333381
                },
                {
                    "name": "G#3",
                    "midi": 56,
                    "time": 86.58009333333348,
                    "velocity": 0.2283464566929134,
                    "duration": 0.2546473333333381
                },
                {
                    "name": "E3",
                    "midi": 52,
                    "time": 86.83474066666682,
                    "velocity": 0.2677165354330709,
                    "duration": 0.2546473333333381
                },
                {
                    "name": "C#2",
                    "midi": 37,
                    "time": 87.85333000000016,
                    "velocity": 0.36220472440944884,
                    "duration": 0.2546473333333381
                },
                {
                    "name": "G#2",
                    "midi": 44,
                    "time": 88.1079773333335,
                    "velocity": 0.23622047244094488,
                    "duration": 0.2546473333333381
                },
                {
                    "name": "E3",
                    "midi": 52,
                    "time": 88.36262466666683,
                    "velocity": 0.28346456692913385,
                    "duration": 0.2546473333333381
                },
                {
                    "name": "G#3",
                    "midi": 56,
                    "time": 89.38121400000017,
                    "velocity": 0.4015748031496063,
                    "duration": 0.2546473333333239
                },
                {
                    "name": "E3",
                    "midi": 52,
                    "time": 89.6358613333335,
                    "velocity": 0.33070866141732286,
                    "duration": 0.2546473333333381
                },
                {
                    "name": "C#3",
                    "midi": 49,
                    "time": 89.89050866666683,
                    "velocity": 0.3779527559055118,
                    "duration": 0.2546473333333381
                },
                {
                    "name": "D2",
                    "midi": 38,
                    "time": 90.90909800000017,
                    "velocity": 0.4094488188976378,
                    "duration": 0.2546473333333381
                },
                {
                    "name": "G#2",
                    "midi": 44,
                    "time": 91.16374533333351,
                    "velocity": 0.30708661417322836,
                    "duration": 0.2546473333333381
                },
                {
                    "name": "F3",
                    "midi": 53,
                    "time": 91.41839266666685,
                    "velocity": 0.3543307086614173,
                    "duration": 0.2546473333333381
                },
                {
                    "name": "G#3",
                    "midi": 56,
                    "time": 92.43698200000019,
                    "velocity": 0.5196850393700787,
                    "duration": 0.2546473333333381
                },
                {
                    "name": "F3",
                    "midi": 53,
                    "time": 92.69162933333352,
                    "velocity": 0.3779527559055118,
                    "duration": 0.2546473333333381
                },
                {
                    "name": "D3",
                    "midi": 50,
                    "time": 92.94627666666686,
                    "velocity": 0.4330708661417323,
                    "duration": 0.2546473333333381
                },
                {
                    "name": "D#2",
                    "midi": 39,
                    "time": 93.9648660000002,
                    "velocity": 0.4094488188976378,
                    "duration": 0.2546473333333239
                },
                {
                    "name": "B2",
                    "midi": 47,
                    "time": 94.21951333333352,
                    "velocity": 0.29133858267716534,
                    "duration": 0.2546473333333381
                },
                {
                    "name": "D#3",
                    "midi": 51,
                    "time": 94.47416066666686,
                    "velocity": 0.33070866141732286,
                    "duration": 0.2546473333333381
                },
                {
                    "name": "D#2",
                    "midi": 39,
                    "time": 95.4927500000002,
                    "velocity": 0.31496062992125984,
                    "duration": 0.2546473333333239
                },
                {
                    "name": "C#3",
                    "midi": 49,
                    "time": 95.74739733333352,
                    "velocity": 0.2204724409448819,
                    "duration": 0.2546473333333381
                },
                {
                    "name": "D#3",
                    "midi": 51,
                    "time": 96.00204466666686,
                    "velocity": 0.2677165354330709,
                    "duration": 0.2546473333333381
                },
                {
                    "name": "G#1",
                    "midi": 32,
                    "time": 96.9251412500002,
                    "velocity": 0.2677165354330709,
                    "duration": 0.8276038333333275
                },
                {
                    "name": "G#2",
                    "midi": 44,
                    "time": 97.02063400000019,
                    "velocity": 0.2677165354330709,
                    "duration": 0.7321110833333364
                },
                {
                    "name": "E2",
                    "midi": 40,
                    "time": 97.78457600000019,
                    "velocity": 0.3228346456692913,
                    "duration": 0.7639420000000001
                },
                {
                    "name": "E1",
                    "midi": 28,
                    "time": 97.78457600000019,
                    "velocity": 0.2283464566929134,
                    "duration": 0.7639420000000001
                },
                {
                    "name": "A1",
                    "midi": 33,
                    "time": 98.54851800000019,
                    "velocity": 0.2047244094488189,
                    "duration": 0.7639420000000143
                },
                {
                    "name": "A2",
                    "midi": 45,
                    "time": 98.54851800000019,
                    "velocity": 0.2992125984251969,
                    "duration": 0.7639420000000143
                },
                {
                    "name": "F#1",
                    "midi": 30,
                    "time": 99.3124600000002,
                    "velocity": 0.1889763779527559,
                    "duration": 0.7639420000000001
                },
                {
                    "name": "F#2",
                    "midi": 42,
                    "time": 99.3124600000002,
                    "velocity": 0.33858267716535434,
                    "duration": 0.7639420000000001
                },
                {
                    "name": "B2",
                    "midi": 47,
                    "time": 100.0764020000002,
                    "velocity": 0.29133858267716534,
                    "duration": 0.7639420000000001
                },
                {
                    "name": "B1",
                    "midi": 35,
                    "time": 100.0764020000002,
                    "velocity": 0.2047244094488189,
                    "duration": 0.7639420000000001
                },
                {
                    "name": "E1",
                    "midi": 28,
                    "time": 100.8403440000002,
                    "velocity": 0.1889763779527559,
                    "duration": 0.7639420000000001
                },
                {
                    "name": "E2",
                    "midi": 40,
                    "time": 100.8403440000002,
                    "velocity": 0.2755905511811024,
                    "duration": 0.7639420000000001
                },
                {
                    "name": "E3",
                    "midi": 52,
                    "time": 101.6042860000002,
                    "velocity": 0.25196850393700787,
                    "duration": 0.7321110833333364
                },
                {
                    "name": "E2",
                    "midi": 40,
                    "time": 101.6042860000002,
                    "velocity": 0.16535433070866143,
                    "duration": 0.7321110833333364
                },
                {
                    "name": "B2",
                    "midi": 47,
                    "time": 102.3682280000002,
                    "velocity": 0.29133858267716534,
                    "duration": 0.7639420000000143
                },
                {
                    "name": "B1",
                    "midi": 35,
                    "time": 102.3682280000002,
                    "velocity": 0.1968503937007874,
                    "duration": 0.7639420000000143
                },
                {
                    "name": "C3",
                    "midi": 48,
                    "time": 103.13217000000022,
                    "velocity": 0.29133858267716534,
                    "duration": 0.7639420000000143
                },
                {
                    "name": "C2",
                    "midi": 36,
                    "time": 103.13217000000022,
                    "velocity": 0.1968503937007874,
                    "duration": 0.7639420000000143
                },
                {
                    "name": "C#2",
                    "midi": 37,
                    "time": 103.89611200000023,
                    "velocity": 0.1968503937007874,
                    "duration": 0.7639420000000001
                },
                {
                    "name": "C#3",
                    "midi": 49,
                    "time": 103.89611200000023,
                    "velocity": 0.29133858267716534,
                    "duration": 0.7639420000000001
                },
                {
                    "name": "F#1",
                    "midi": 30,
                    "time": 104.66005400000023,
                    "velocity": 0.18110236220472442,
                    "duration": 0.7639420000000001
                },
                {
                    "name": "F#2",
                    "midi": 42,
                    "time": 104.66005400000023,
                    "velocity": 0.2677165354330709,
                    "duration": 0.7639420000000001
                },
                {
                    "name": "B1",
                    "midi": 35,
                    "time": 105.42399600000023,
                    "velocity": 0.2125984251968504,
                    "duration": 0.7639420000000001
                },
                {
                    "name": "B2",
                    "midi": 47,
                    "time": 106.18793800000023,
                    "velocity": 0.14960629921259844,
                    "duration": 0.7321110833333364
                },
                {
                    "name": "F#3",
                    "midi": 54,
                    "time": 106.18793800000023,
                    "velocity": 0.16535433070866143,
                    "duration": 0.7321110833333364
                },
                {
                    "name": "F#2",
                    "midi": 42,
                    "time": 106.95188000000023,
                    "velocity": 0.3228346456692913,
                    "duration": 0.7639420000000143
                },
                {
                    "name": "F#1",
                    "midi": 30,
                    "time": 106.95188000000023,
                    "velocity": 0.2755905511811024,
                    "duration": 0.7639420000000143
                },
                {
                    "name": "B1",
                    "midi": 35,
                    "time": 107.71582200000024,
                    "velocity": 0.2755905511811024,
                    "duration": 0.7639420000000001
                },
                {
                    "name": "B2",
                    "midi": 47,
                    "time": 107.71582200000024,
                    "velocity": 0.3228346456692913,
                    "duration": 0.7639420000000001
                },
                {
                    "name": "G#1",
                    "midi": 32,
                    "time": 108.47976400000024,
                    "velocity": 0.2755905511811024,
                    "duration": 0.7639420000000001
                },
                {
                    "name": "G#2",
                    "midi": 44,
                    "time": 108.47976400000024,
                    "velocity": 0.3228346456692913,
                    "duration": 0.7639420000000001
                },
                {
                    "name": "C#2",
                    "midi": 37,
                    "time": 109.24370600000024,
                    "velocity": 0.2755905511811024,
                    "duration": 0.7639420000000001
                },
                {
                    "name": "C#3",
                    "midi": 49,
                    "time": 109.24370600000024,
                    "velocity": 0.3228346456692913,
                    "duration": 0.7639420000000001
                },
                {
                    "name": "F#2",
                    "midi": 42,
                    "time": 110.00764800000024,
                    "velocity": 0.28346456692913385,
                    "duration": 0.7639420000000001
                },
                {
                    "name": "F#1",
                    "midi": 30,
                    "time": 110.00764800000024,
                    "velocity": 0.2283464566929134,
                    "duration": 0.7639420000000001
                },
                {
                    "name": "F#2",
                    "midi": 42,
                    "time": 110.77159000000024,
                    "velocity": 0.1732283464566929,
                    "duration": 0.7321110833333222
                },
                {
                    "name": "F#3",
                    "midi": 54,
                    "time": 110.77159000000024,
                    "velocity": 0.2283464566929134,
                    "duration": 0.7321110833333222
                },
                {
                    "name": "E1",
                    "midi": 28,
                    "time": 111.53553200000023,
                    "velocity": 0.4330708661417323,
                    "duration": 0.7639420000000001
                },
                {
                    "name": "E2",
                    "midi": 40,
                    "time": 111.53553200000023,
                    "velocity": 0.4330708661417323,
                    "duration": 0.7639420000000001
                },
                {
                    "name": "F1",
                    "midi": 29,
                    "time": 112.29947400000023,
                    "velocity": 0.4094488188976378,
                    "duration": 0.7639420000000001
                },
                {
                    "name": "F2",
                    "midi": 41,
                    "time": 112.29947400000023,
                    "velocity": 0.4094488188976378,
                    "duration": 0.7639420000000001
                },
                {
                    "name": "F2",
                    "midi": 41,
                    "time": 113.06341600000023,
                    "velocity": 0.41732283464566927,
                    "duration": 0.7639420000000001
                },
                {
                    "name": "F3",
                    "midi": 53,
                    "time": 113.06341600000023,
                    "velocity": 0.41732283464566927,
                    "duration": 0.7639420000000001
                },
                {
                    "name": "F1",
                    "midi": 29,
                    "time": 113.82735800000023,
                    "velocity": 0.4409448818897638,
                    "duration": 0.7639420000000143
                },
                {
                    "name": "F2",
                    "midi": 41,
                    "time": 113.82735800000023,
                    "velocity": 0.3700787401574803,
                    "duration": 0.7639420000000143
                },
                {
                    "name": "F3",
                    "midi": 53,
                    "time": 114.59130000000025,
                    "velocity": 0.4645669291338583,
                    "duration": 1.499236174999993
                },
                {
                    "name": "C4",
                    "midi": 60,
                    "time": 114.59130000000025,
                    "velocity": 0.4645669291338583,
                    "duration": 0.38197099999999296
                },
                {
                    "name": "A3",
                    "midi": 57,
                    "time": 114.97327100000024,
                    "velocity": 0.41732283464566927,
                    "duration": 0.38197099999999296
                },
                {
                    "name": "G3",
                    "midi": 55,
                    "time": 115.36001663750024,
                    "velocity": 0.44881889763779526,
                    "duration": 0.38197100000000717
                },
                {
                    "name": "F3",
                    "midi": 53,
                    "time": 115.74039609166691,
                    "velocity": 0.3858267716535433,
                    "duration": 0.3787879083333223
                },
                {
                    "name": "F2",
                    "midi": 41,
                    "time": 116.11918400000023,
                    "velocity": 0.5039370078740157,
                    "duration": 0.7639420000000001
                },
                {
                    "name": "F1",
                    "midi": 29,
                    "time": 116.11918400000023,
                    "velocity": 0.5039370078740157,
                    "duration": 0.7639420000000001
                },
                {
                    "name": "F#1",
                    "midi": 30,
                    "time": 116.88312600000023,
                    "velocity": 0.5433070866141733,
                    "duration": 0.7639420000000001
                },
                {
                    "name": "F#2",
                    "midi": 42,
                    "time": 116.88312600000023,
                    "velocity": 0.5433070866141733,
                    "duration": 0.7639420000000001
                },
                {
                    "name": "F#2",
                    "midi": 42,
                    "time": 117.64706800000023,
                    "velocity": 0.4566929133858268,
                    "duration": 0.7639420000000001
                },
                {
                    "name": "F#3",
                    "midi": 54,
                    "time": 117.64706800000023,
                    "velocity": 0.5433070866141733,
                    "duration": 0.7639420000000001
                },
                {
                    "name": "F2",
                    "midi": 41,
                    "time": 118.41101000000023,
                    "velocity": 0.5433070866141733,
                    "duration": 0.7639420000000001
                },
                {
                    "name": "F1",
                    "midi": 29,
                    "time": 118.41101000000023,
                    "velocity": 0.5433070866141733,
                    "duration": 0.7639420000000001
                },
                {
                    "name": "D#4",
                    "midi": 63,
                    "time": 119.17495200000023,
                    "velocity": 0.5511811023622047,
                    "duration": 0.38197100000000717
                },
                {
                    "name": "F3",
                    "midi": 53,
                    "time": 119.17495200000023,
                    "velocity": 0.5511811023622047,
                    "duration": 3.055767999999972
                },
                {
                    "name": "C4",
                    "midi": 60,
                    "time": 119.55692300000024,
                    "velocity": 0.4645669291338583,
                    "duration": 0.41380191666665667
                },
                {
                    "name": "A#3",
                    "midi": 58,
                    "time": 119.93889400000023,
                    "velocity": 0.49606299212598426,
                    "duration": 0.41380191666665667
                },
                {
                    "name": "A3",
                    "midi": 57,
                    "time": 120.32086500000023,
                    "velocity": 0.4645669291338583,
                    "duration": 0.41380191666665667
                },
                {
                    "name": "G#3",
                    "midi": 56,
                    "time": 120.70283600000022,
                    "velocity": 0.4330708661417323,
                    "duration": 0.41380191666665667
                },
                {
                    "name": "A3",
                    "midi": 57,
                    "time": 121.08480700000021,
                    "velocity": 0.3858267716535433,
                    "duration": 0.38197099999999296
                },
                {
                    "name": "C4",
                    "midi": 60,
                    "time": 121.4667780000002,
                    "velocity": 0.41732283464566927,
                    "duration": 0.38197100000000717
                },
                {
                    "name": "A3",
                    "midi": 57,
                    "time": 121.84874900000021,
                    "velocity": 0.3700787401574803,
                    "duration": 0.41380191666665667
                },
                {
                    "name": "G3",
                    "midi": 55,
                    "time": 122.2307200000002,
                    "velocity": 0.4094488188976378,
                    "duration": 0.4138019166666709
                },
                {
                    "name": "F3",
                    "midi": 53,
                    "time": 122.61269100000021,
                    "velocity": 0.29133858267716534,
                    "duration": 0.41380191666665667
                },
                {
                    "name": "D#3",
                    "midi": 51,
                    "time": 122.9946620000002,
                    "velocity": 0.3464566929133858,
                    "duration": 0.41380191666665667
                },
                {
                    "name": "D3",
                    "midi": 50,
                    "time": 123.3766330000002,
                    "velocity": 0.29133858267716534,
                    "duration": 0.41380191666665667
                },
                {
                    "name": "C3",
                    "midi": 48,
                    "time": 123.75860400000019,
                    "velocity": 0.28346456692913385,
                    "duration": 0.4138019166666709
                },
                {
                    "name": "A2",
                    "midi": 45,
                    "time": 124.1405750000002,
                    "velocity": 0.23622047244094488,
                    "duration": 0.41380191666665667
                },
                {
                    "name": "G2",
                    "midi": 43,
                    "time": 124.52254600000019,
                    "velocity": 0.23622047244094488,
                    "duration": 0.7161956249999974
                },
                {
                    "name": "C3",
                    "midi": 48,
                    "time": 125.28648800000019,
                    "velocity": 0.3700787401574803,
                    "duration": 1.5278840000000002
                },
                {
                    "name": "F2",
                    "midi": 41,
                    "time": 125.28648800000019,
                    "velocity": 0.30708661417322836,
                    "duration": 0.7639420000000001
                },
                {
                    "name": "F#2",
                    "midi": 42,
                    "time": 126.05043000000019,
                    "velocity": 0.33070866141732286,
                    "duration": 0.7639420000000001
                },
                {
                    "name": "B2",
                    "midi": 47,
                    "time": 126.81437200000019,
                    "velocity": 0.3858267716535433,
                    "duration": 1.5278840000000002
                },
                {
                    "name": "G2",
                    "midi": 43,
                    "time": 126.81437200000019,
                    "velocity": 0.3228346456692913,
                    "duration": 0.7639420000000001
                },
                {
                    "name": "E2",
                    "midi": 40,
                    "time": 127.57831400000019,
                    "velocity": 0.33070866141732286,
                    "duration": 0.7639420000000001
                },
                {
                    "name": "B2",
                    "midi": 47,
                    "time": 128.3422560000002,
                    "velocity": 0.3700787401574803,
                    "duration": 0.7639420000000143
                },
                {
                    "name": "B1",
                    "midi": 35,
                    "time": 128.3422560000002,
                    "velocity": 0.30708661417322836,
                    "duration": 0.7639420000000143
                },
                {
                    "name": "E2",
                    "midi": 40,
                    "time": 129.1061980000002,
                    "velocity": 0.28346456692913385,
                    "duration": 1.5278840000000002
                },
                {
                    "name": "B2",
                    "midi": 47,
                    "time": 129.1061980000002,
                    "velocity": 0.3464566929133858,
                    "duration": 1.5278840000000002
                },
                {
                    "name": "D#3",
                    "midi": 51,
                    "time": 130.6340820000002,
                    "velocity": 0.23622047244094488,
                    "duration": 1.5278840000000002
                },
                {
                    "name": "D#2",
                    "midi": 39,
                    "time": 130.6340820000002,
                    "velocity": 0.2047244094488189,
                    "duration": 1.5278840000000002
                },
                {
                    "name": "C#2",
                    "midi": 37,
                    "time": 132.1619660000002,
                    "velocity": 0.36220472440944884,
                    "duration": 0.2546473333333381
                },
                {
                    "name": "E3",
                    "midi": 52,
                    "time": 132.41661333333354,
                    "velocity": 0.2755905511811024,
                    "duration": 0.2546473333333381
                },
                {
                    "name": "A3",
                    "midi": 57,
                    "time": 132.67126066666688,
                    "velocity": 0.30708661417322836,
                    "duration": 1.018589333333324
                },
                {
                    "name": "C#3",
                    "midi": 49,
                    "time": 132.92590800000022,
                    "velocity": 0.30708661417322836,
                    "duration": 0.7639419999999859
                },
                {
                    "name": "F3",
                    "midi": 53,
                    "time": 132.92590800000022,
                    "velocity": 0.30708661417322836,
                    "duration": 0.7639419999999859
                },
                {
                    "name": "A1",
                    "midi": 33,
                    "time": 133.6898500000002,
                    "velocity": 0.3700787401574803,
                    "duration": 0.2546473333333097
                },
                {
                    "name": "C#3",
                    "midi": 49,
                    "time": 133.94449733333352,
                    "velocity": 0.2755905511811024,
                    "duration": 0.2546473333333381
                },
                {
                    "name": "F#3",
                    "midi": 54,
                    "time": 134.19914466666685,
                    "velocity": 0.31496062992125984,
                    "duration": 0.2546473333333381
                },
                {
                    "name": "D3",
                    "midi": 50,
                    "time": 134.4537920000002,
                    "velocity": 0.36220472440944884,
                    "duration": 0.7639419999999859
                },
                {
                    "name": "A2",
                    "midi": 45,
                    "time": 134.4537920000002,
                    "velocity": 0.30708661417322836,
                    "duration": 0.7639419999999859
                },
                {
                    "name": "B1",
                    "midi": 35,
                    "time": 135.21773400000018,
                    "velocity": 0.3858267716535433,
                    "duration": 0.2546473333333381
                },
                {
                    "name": "D#3",
                    "midi": 51,
                    "time": 135.47238133333352,
                    "velocity": 0.2992125984251969,
                    "duration": 0.2546473333333381
                },
                {
                    "name": "F#3",
                    "midi": 54,
                    "time": 135.72702866666685,
                    "velocity": 0.33070866141732286,
                    "duration": 0.2546473333333381
                },
                {
                    "name": "B2",
                    "midi": 47,
                    "time": 135.9816760000002,
                    "velocity": 0.30708661417322836,
                    "duration": 0.7639420000000143
                },
                {
                    "name": "A3",
                    "midi": 57,
                    "time": 135.9816760000002,
                    "velocity": 0.3779527559055118,
                    "duration": 0.7639420000000143
                },
                {
                    "name": "B1",
                    "midi": 35,
                    "time": 136.7456180000002,
                    "velocity": 0.3937007874015748,
                    "duration": 0.2546473333333381
                },
                {
                    "name": "C#3",
                    "midi": 49,
                    "time": 137.00026533333354,
                    "velocity": 0.31496062992125984,
                    "duration": 0.2546473333333381
                },
                {
                    "name": "E3",
                    "midi": 52,
                    "time": 137.25491266666688,
                    "velocity": 0.33070866141732286,
                    "duration": 0.15915458333333277
                },
                {
                    "name": "B2",
                    "midi": 47,
                    "time": 137.41406725000022,
                    "velocity": 0.3937007874015748,
                    "duration": 0.8594347500000197
                },
                {
                    "name": "C#4",
                    "midi": 61,
                    "time": 137.50956000000022,
                    "velocity": 0.3937007874015748,
                    "duration": 0.7639420000000143
                },
                {
                    "name": "B1",
                    "midi": 35,
                    "time": 138.27350200000024,
                    "velocity": 0.4330708661417323,
                    "duration": 0.2546473333333381
                },
                {
                    "name": "G#3",
                    "midi": 56,
                    "time": 138.27350200000024,
                    "velocity": 0.47244094488188976,
                    "duration": 0.35014008333334345
                },
                {
                    "name": "A2",
                    "midi": 45,
                    "time": 138.52814933333357,
                    "velocity": 0.36220472440944884,
                    "duration": 0.2546473333333381
                },
                {
                    "name": "F#3",
                    "midi": 54,
                    "time": 138.65547300000026,
                    "velocity": 0.3937007874015748,
                    "duration": 0.35014008333331503
                },
                {
                    "name": "C#3",
                    "midi": 49,
                    "time": 138.7827966666669,
                    "velocity": 0.36220472440944884,
                    "duration": 0.2546473333333381
                },
                {
                    "name": "E3",
                    "midi": 52,
                    "time": 139.03744400000025,
                    "velocity": 0.4330708661417323,
                    "duration": 1.5278840000000002
                },
                {
                    "name": "B2",
                    "midi": 47,
                    "time": 139.03744400000025,
                    "velocity": 0.3937007874015748,
                    "duration": 3.0557680000000005
                },
                {
                    "name": "A3",
                    "midi": 57,
                    "time": 139.41941500000024,
                    "velocity": 0.3858267716535433,
                    "duration": 2.657881541666683
                },
                {
                    "name": "D#3",
                    "midi": 51,
                    "time": 140.56532800000025,
                    "velocity": 0.3779527559055118,
                    "duration": 1.5278840000000002
                },
                {
                    "name": "E1",
                    "midi": 28,
                    "time": 142.09321200000025,
                    "velocity": 0.29133858267716534,
                    "duration": 0.35014008333331503
                },
                {
                    "name": "E2",
                    "midi": 40,
                    "time": 142.47518300000024,
                    "velocity": 0.2283464566929134,
                    "duration": 0.35014008333334345
                },
                {
                    "name": "B2",
                    "midi": 47,
                    "time": 142.85715400000026,
                    "velocity": 0.2677165354330709,
                    "duration": 0.35014008333334345
                },
                {
                    "name": "E3",
                    "midi": 52,
                    "time": 143.23912500000029,
                    "velocity": 0.23622047244094488,
                    "duration": 0.35014008333334345
                },
                {
                    "name": "G#3",
                    "midi": 56,
                    "time": 143.6210960000003,
                    "velocity": 0.28346456692913385,
                    "duration": 2.291825999999986
                },
                {
                    "name": "B3",
                    "midi": 59,
                    "time": 144.0030670000003,
                    "velocity": 0.25984251968503935,
                    "duration": 1.9098549999999932
                },
                {
                    "name": "E3",
                    "midi": 52,
                    "time": 144.3850380000003,
                    "velocity": 0.23622047244094488,
                    "duration": 1.5278840000000002
                },
                {
                    "name": "E1",
                    "midi": 28,
                    "time": 145.9129220000003,
                    "velocity": 0.2125984251968504,
                    "duration": 0.7639419999999859
                },
                {
                    "name": "E2",
                    "midi": 40,
                    "time": 146.67686400000028,
                    "velocity": 0.2283464566929134,
                    "duration": 2.2918260000000146
                },
                {
                    "name": "B2",
                    "midi": 47,
                    "time": 146.77235675000028,
                    "velocity": 0.2283464566929134,
                    "duration": 2.1963332500000092
                },
                {
                    "name": "G#3",
                    "midi": 56,
                    "time": 146.8678495000003,
                    "velocity": 0.2283464566929134,
                    "duration": 2.100840500000004
                }
            ],
            "controlChanges": {
                "7": [
                    {
                        "number": 7,
                        "time": 0,
                        "value": 0.7874015748031497
                    }
                ],
                "10": [
                    {
                        "number": 10,
                        "time": 0,
                        "value": 0.5039370078740157
                    }
                ],
                "64": [
                    {
                        "number": 64,
                        "time": 1.527884,
                        "value": 1
                    },
                    {
                        "number": 64,
                        "time": 2.301375275,
                        "value": 0
                    },
                    {
                        "number": 64,
                        "time": 2.5289663291666664,
                        "value": 1
                    },
                    {
                        "number": 64,
                        "time": 3.0732750041666663,
                        "value": 0
                    },
                    {
                        "number": 64,
                        "time": 3.2372042249999997,
                        "value": 1
                    },
                    {
                        "number": 64,
                        "time": 3.8467662791666664,
                        "value": 0
                    },
                    {
                        "number": 64,
                        "time": 4.020244775,
                        "value": 1
                    },
                    {
                        "number": 64,
                        "time": 4.60275055,
                        "value": 0
                    },
                    {
                        "number": 64,
                        "time": 4.763496679166666,
                        "value": 1
                    },
                    {
                        "number": 64,
                        "time": 5.376241824999999,
                        "value": 0
                    },
                    {
                        "number": 64,
                        "time": 5.5958751499999995,
                        "value": 1
                    },
                    {
                        "number": 64,
                        "time": 6.137000733333332,
                        "value": 0
                    },
                    {
                        "number": 64,
                        "time": 6.335943962499999,
                        "value": 1
                    },
                    {
                        "number": 64,
                        "time": 6.885027275,
                        "value": 0
                    },
                    {
                        "number": 64,
                        "time": 7.056914225,
                        "value": 1
                    },
                    {
                        "number": 64,
                        "time": 7.671250916666666,
                        "value": 0
                    },
                    {
                        "number": 64,
                        "time": 7.894067333333332,
                        "value": 1
                    },
                    {
                        "number": 64,
                        "time": 8.428826733333333,
                        "value": 0
                    },
                    {
                        "number": 64,
                        "time": 8.658009333333332,
                        "value": 1
                    },
                    {
                        "number": 64,
                        "time": 9.195951825,
                        "value": 0
                    },
                    {
                        "number": 64,
                        "time": 9.369430320833333,
                        "value": 1
                    },
                    {
                        "number": 64,
                        "time": 9.942386820833333,
                        "value": 0
                    },
                    {
                        "number": 64,
                        "time": 10.133372320833333,
                        "value": 1
                    },
                    {
                        "number": 64,
                        "time": 10.712695004166667,
                        "value": 0
                    },
                    {
                        "number": 64,
                        "time": 10.965750791666666,
                        "value": 1
                    },
                    {
                        "number": 64,
                        "time": 11.481411641666666,
                        "value": 0
                    },
                    {
                        "number": 64,
                        "time": 11.696270329166666,
                        "value": 1
                    },
                    {
                        "number": 64,
                        "time": 12.251719824999999,
                        "value": 0
                    },
                    {
                        "number": 64,
                        "time": 12.387001220833332,
                        "value": 1
                    },
                    {
                        "number": 64,
                        "time": 13.009295641666665,
                        "value": 0
                    },
                    {
                        "number": 64,
                        "time": 13.114337666666664,
                        "value": 1
                    },
                    {
                        "number": 64,
                        "time": 13.765279912499997,
                        "value": 0
                    },
                    {
                        "number": 64,
                        "time": 13.95308232083333,
                        "value": 1
                    },
                    {
                        "number": 64,
                        "time": 14.541954279166664,
                        "value": 0
                    },
                    {
                        "number": 64,
                        "time": 14.71702432083333,
                        "value": 1
                    },
                    {
                        "number": 64,
                        "time": 15.29953009583333,
                        "value": 0
                    },
                    {
                        "number": 64,
                        "time": 15.63852935833333,
                        "value": 1
                    },
                    {
                        "number": 64,
                        "time": 16.042781999999995,
                        "value": 0
                    },
                    {
                        "number": 64,
                        "time": 16.306978608333328,
                        "value": 1
                    },
                    {
                        "number": 64,
                        "time": 16.83218873333333,
                        "value": 0
                    },
                    {
                        "number": 64,
                        "time": 17.175962633333327,
                        "value": 1
                    },
                    {
                        "number": 64,
                        "time": 17.594539187499997,
                        "value": 0
                    },
                    {
                        "number": 64,
                        "time": 17.912848354166663,
                        "value": 1
                    },
                    {
                        "number": 64,
                        "time": 18.34097418333333,
                        "value": 0
                    },
                    {
                        "number": 64,
                        "time": 18.58925533333333,
                        "value": 1
                    },
                    {
                        "number": 64,
                        "time": 19.128789370833328,
                        "value": 0
                    },
                    {
                        "number": 64,
                        "time": 19.46301399583333,
                        "value": 1
                    },
                    {
                        "number": 64,
                        "time": 19.88795673333333,
                        "value": 0
                    },
                    {
                        "number": 64,
                        "time": 20.22695599583333,
                        "value": 1
                    },
                    {
                        "number": 64,
                        "time": 20.63280018333333,
                        "value": 0
                    },
                    {
                        "number": 64,
                        "time": 20.78081394583333,
                        "value": 1
                    },
                    {
                        "number": 64,
                        "time": 21.407883004166663,
                        "value": 0
                    },
                    {
                        "number": 64,
                        "time": 21.608417779166665,
                        "value": 1
                    },
                    {
                        "number": 64,
                        "time": 22.18455737083333,
                        "value": 0
                    },
                    {
                        "number": 64,
                        "time": 22.32779649583333,
                        "value": 1
                    },
                    {
                        "number": 64,
                        "time": 22.9325839125,
                        "value": 0
                    },
                    {
                        "number": 64,
                        "time": 23.055132941666667,
                        "value": 1
                    },
                    {
                        "number": 64,
                        "time": 23.712441370833336,
                        "value": 0
                    },
                    {
                        "number": 64,
                        "time": 23.827032670833336,
                        "value": 1
                    },
                    {
                        "number": 64,
                        "time": 24.476383370833336,
                        "value": 0
                    },
                    {
                        "number": 64,
                        "time": 24.590974670833337,
                        "value": 1
                    },
                    {
                        "number": 64,
                        "time": 25.235550733333337,
                        "value": 0
                    },
                    {
                        "number": 64,
                        "time": 25.412212320833337,
                        "value": 1
                    },
                    {
                        "number": 64,
                        "time": 26.002675825000004,
                        "value": 0
                    },
                    {
                        "number": 64,
                        "time": 26.231858425000006,
                        "value": 1
                    },
                    {
                        "number": 64,
                        "time": 26.761843187500006,
                        "value": 0
                    },
                    {
                        "number": 64,
                        "time": 26.940096320833337,
                        "value": 1
                    },
                    {
                        "number": 64,
                        "time": 27.514644366666676,
                        "value": 0
                    },
                    {
                        "number": 64,
                        "time": 27.637193395833343,
                        "value": 1
                    },
                    {
                        "number": 64,
                        "time": 28.28495255000001,
                        "value": 0
                    },
                    {
                        "number": 64,
                        "time": 28.412276216666676,
                        "value": 1
                    },
                    {
                        "number": 64,
                        "time": 29.060035370833344,
                        "value": 0
                    },
                    {
                        "number": 64,
                        "time": 29.25420396250001,
                        "value": 1
                    },
                    {
                        "number": 64,
                        "time": 29.80647036666668,
                        "value": 0
                    },
                    {
                        "number": 64,
                        "time": 30.03087832916668,
                        "value": 1
                    },
                    {
                        "number": 64,
                        "time": 30.578370095833346,
                        "value": 0
                    },
                    {
                        "number": 64,
                        "time": 30.89986235416668,
                        "value": 1
                    },
                    {
                        "number": 64,
                        "time": 31.34867827916668,
                        "value": 0
                    },
                    {
                        "number": 64,
                        "time": 31.717916912500012,
                        "value": 1
                    },
                    {
                        "number": 64,
                        "time": 32.09988791250001,
                        "value": 0
                    },
                    {
                        "number": 64,
                        "time": 32.42774635416667,
                        "value": 1
                    },
                    {
                        "number": 64,
                        "time": 32.87656227916667,
                        "value": 0
                    },
                    {
                        "number": 64,
                        "time": 33.2458009125,
                        "value": 1
                    },
                    {
                        "number": 64,
                        "time": 33.63891273333334,
                        "value": 0
                    },
                    {
                        "number": 64,
                        "time": 34.08772865833334,
                        "value": 1
                    },
                    {
                        "number": 64,
                        "time": 34.38853082083334,
                        "value": 0
                    },
                    {
                        "number": 64,
                        "time": 34.558826225000004,
                        "value": 1
                    },
                    {
                        "number": 64,
                        "time": 35.17316291666667,
                        "value": 0
                    },
                    {
                        "number": 64,
                        "time": 35.39597933333334,
                        "value": 1
                    },
                    {
                        "number": 64,
                        "time": 35.93073873333334,
                        "value": 0
                    },
                    {
                        "number": 64,
                        "time": 36.159921333333344,
                        "value": 1
                    },
                    {
                        "number": 64,
                        "time": 36.69786382500001,
                        "value": 0
                    },
                    {
                        "number": 64,
                        "time": 36.849060679166676,
                        "value": 1
                    },
                    {
                        "number": 64,
                        "time": 37.46180582500001,
                        "value": 0
                    },
                    {
                        "number": 64,
                        "time": 37.657565962500016,
                        "value": 1
                    },
                    {
                        "number": 64,
                        "time": 38.22574782500001,
                        "value": 0
                    },
                    {
                        "number": 64,
                        "time": 38.64750747083335,
                        "value": 1
                    },
                    {
                        "number": 64,
                        "time": 38.97377436666668,
                        "value": 0
                    },
                    {
                        "number": 64,
                        "time": 39.198182329166684,
                        "value": 1
                    },
                    {
                        "number": 64,
                        "time": 39.755223370833356,
                        "value": 0
                    },
                    {
                        "number": 64,
                        "time": 39.88891322083336,
                        "value": 1
                    },
                    {
                        "number": 64,
                        "time": 40.51757382500003,
                        "value": 0
                    },
                    {
                        "number": 64,
                        "time": 40.68627768333336,
                        "value": 1
                    },
                    {
                        "number": 64,
                        "time": 41.26400882083336,
                        "value": 0
                    },
                    {
                        "number": 64,
                        "time": 41.545712433333364,
                        "value": 1
                    },
                    {
                        "number": 64,
                        "time": 42.04704937083336,
                        "value": 0
                    },
                    {
                        "number": 64,
                        "time": 42.24121796250003,
                        "value": 1
                    },
                    {
                        "number": 64,
                        "time": 42.80462518750003,
                        "value": 0
                    },
                    {
                        "number": 64,
                        "time": 43.118159716666696,
                        "value": 1
                    },
                    {
                        "number": 64,
                        "time": 43.566975641666694,
                        "value": 0
                    },
                    {
                        "number": 64,
                        "time": 43.87255244166669,
                        "value": 1
                    },
                    {
                        "number": 64,
                        "time": 44.33728382500002,
                        "value": 0
                    },
                    {
                        "number": 64,
                        "time": 44.746311104166686,
                        "value": 1
                    },
                    {
                        "number": 64,
                        "time": 45.10281737083336,
                        "value": 0
                    },
                    {
                        "number": 64,
                        "time": 45.47205600416669,
                        "value": 1
                    },
                    {
                        "number": 64,
                        "time": 45.847660820833354,
                        "value": 0
                    },
                    {
                        "number": 64,
                        "time": 46.27419510416669,
                        "value": 1
                    },
                    {
                        "number": 64,
                        "time": 46.63070137083336,
                        "value": 0
                    },
                    {
                        "number": 64,
                        "time": 47.001531550000024,
                        "value": 1
                    },
                    {
                        "number": 64,
                        "time": 47.39464337083336,
                        "value": 0
                    },
                    {
                        "number": 64,
                        "time": 47.765473550000024,
                        "value": 1
                    },
                    {
                        "number": 64,
                        "time": 48.13789527500002,
                        "value": 0
                    },
                    {
                        "number": 64,
                        "time": 48.456204441666685,
                        "value": 1
                    },
                    {
                        "number": 64,
                        "time": 48.92252737083336,
                        "value": 0
                    },
                    {
                        "number": 64,
                        "time": 49.22014644166669,
                        "value": 1
                    },
                    {
                        "number": 64,
                        "time": 49.68487782500002,
                        "value": 0
                    },
                    {
                        "number": 64,
                        "time": 50.09231355833336,
                        "value": 1
                    },
                    {
                        "number": 64,
                        "time": 50.44563673333336,
                        "value": 0
                    },
                    {
                        "number": 64,
                        "time": 50.51566475000003,
                        "value": 1
                    },
                    {
                        "number": 64,
                        "time": 51.001086229166695,
                        "value": 0
                    },
                    {
                        "number": 64,
                        "time": 51.1395507166667,
                        "value": 1
                    },
                    {
                        "number": 64,
                        "time": 53.50777091666669,
                        "value": 0
                    },
                    {
                        "number": 64,
                        "time": 54.49452933333336,
                        "value": 1
                    },
                    {
                        "number": 64,
                        "time": 56.53170800000003,
                        "value": 0
                    },
                    {
                        "number": 64,
                        "time": 56.70041185833336,
                        "value": 1
                    },
                    {
                        "number": 64,
                        "time": 57.30679082083336,
                        "value": 0
                    },
                    {
                        "number": 64,
                        "time": 57.41979057500003,
                        "value": 1
                    },
                    {
                        "number": 64,
                        "time": 58.07232436666669,
                        "value": 0
                    },
                    {
                        "number": 64,
                        "time": 58.17259175416669,
                        "value": 1
                    },
                    {
                        "number": 64,
                        "time": 58.84581564166669,
                        "value": 0
                    },
                    {
                        "number": 64,
                        "time": 59.00337867916669,
                        "value": 1
                    },
                    {
                        "number": 64,
                        "time": 59.597025275000014,
                        "value": 0
                    },
                    {
                        "number": 64,
                        "time": 59.75617985833335,
                        "value": 1
                    },
                    {
                        "number": 64,
                        "time": 60.364150366666685,
                        "value": 0
                    },
                    {
                        "number": 64,
                        "time": 60.50898103750002,
                        "value": 1
                    },
                    {
                        "number": 64,
                        "time": 61.12650082083335,
                        "value": 0
                    },
                    {
                        "number": 64,
                        "time": 61.26178221666668,
                        "value": 1
                    },
                    {
                        "number": 64,
                        "time": 61.89362591250001,
                        "value": 0
                    },
                    {
                        "number": 64,
                        "time": 61.979569387500014,
                        "value": 1
                    },
                    {
                        "number": 64,
                        "time": 62.670300279166675,
                        "value": 0
                    },
                    {
                        "number": 64,
                        "time": 62.74351138750001,
                        "value": 1
                    },
                    {
                        "number": 64,
                        "time": 63.437425370833346,
                        "value": 0
                    },
                    {
                        "number": 64,
                        "time": 63.552016670833346,
                        "value": 1
                    },
                    {
                        "number": 64,
                        "time": 64.18704345833335,
                        "value": 0
                    },
                    {
                        "number": 64,
                        "time": 64.26184611250001,
                        "value": 1
                    },
                    {
                        "number": 64,
                        "time": 64.94939391250001,
                        "value": 0
                    },
                    {
                        "number": 64,
                        "time": 65.05443593750002,
                        "value": 1
                    },
                    {
                        "number": 64,
                        "time": 65.72129364166669,
                        "value": 0
                    },
                    {
                        "number": 64,
                        "time": 65.81837793750002,
                        "value": 1
                    },
                    {
                        "number": 64,
                        "time": 66.47727791250001,
                        "value": 0
                    },
                    {
                        "number": 64,
                        "time": 66.62051703750001,
                        "value": 1
                    },
                    {
                        "number": 64,
                        "time": 67.25395227916668,
                        "value": 0
                    },
                    {
                        "number": 64,
                        "time": 67.44016314166669,
                        "value": 1
                    },
                    {
                        "number": 64,
                        "time": 68.01948582500002,
                        "value": 0
                    },
                    {
                        "number": 64,
                        "time": 68.15954185833336,
                        "value": 1
                    },
                    {
                        "number": 64,
                        "time": 68.76592082083336,
                        "value": 0
                    },
                    {
                        "number": 64,
                        "time": 68.91234303750002,
                        "value": 1
                    },
                    {
                        "number": 64,
                        "time": 69.54259518750003,
                        "value": 0
                    },
                    {
                        "number": 64,
                        "time": 69.64286257500002,
                        "value": 1
                    },
                    {
                        "number": 64,
                        "time": 70.31131182500003,
                        "value": 0
                    },
                    {
                        "number": 64,
                        "time": 70.45136785833337,
                        "value": 1
                    },
                    {
                        "number": 64,
                        "time": 71.05774682083337,
                        "value": 0
                    },
                    {
                        "number": 64,
                        "time": 71.18188739583337,
                        "value": 1
                    },
                    {
                        "number": 64,
                        "time": 71.83282964166672,
                        "value": 0
                    },
                    {
                        "number": 64,
                        "time": 71.97925185833338,
                        "value": 1
                    },
                    {
                        "number": 64,
                        "time": 72.5904054583334,
                        "value": 0
                    },
                    {
                        "number": 64,
                        "time": 72.72091221666673,
                        "value": 1
                    },
                    {
                        "number": 64,
                        "time": 73.35275591250009,
                        "value": 0
                    },
                    {
                        "number": 64,
                        "time": 73.51191049583342,
                        "value": 1
                    },
                    {
                        "number": 64,
                        "time": 74.8806399125001,
                        "value": 0
                    },
                    {
                        "number": 64,
                        "time": 75.0764000500001,
                        "value": 1
                    },
                    {
                        "number": 64,
                        "time": 75.6445819125001,
                        "value": 0
                    },
                    {
                        "number": 64,
                        "time": 75.79896185833343,
                        "value": 1
                    },
                    {
                        "number": 64,
                        "time": 76.42284782500009,
                        "value": 0
                    },
                    {
                        "number": 64,
                        "time": 76.57404467916676,
                        "value": 1
                    },
                    {
                        "number": 64,
                        "time": 77.18519827916677,
                        "value": 0
                    },
                    {
                        "number": 64,
                        "time": 77.38254996250011,
                        "value": 1
                    },
                    {
                        "number": 64,
                        "time": 77.93481636666678,
                        "value": 0
                    },
                    {
                        "number": 64,
                        "time": 78.05099921250012,
                        "value": 1
                    },
                    {
                        "number": 64,
                        "time": 78.7146738250001,
                        "value": 0
                    },
                    {
                        "number": 64,
                        "time": 79.53431992916678,
                        "value": 1
                    },
                    {
                        "number": 64,
                        "time": 80.22027618333344,
                        "value": 0
                    },
                    {
                        "number": 64,
                        "time": 81.05583774583344,
                        "value": 1
                    },
                    {
                        "number": 64,
                        "time": 81.76407564166678,
                        "value": 0
                    },
                    {
                        "number": 64,
                        "time": 82.61555266250012,
                        "value": 1
                    },
                    {
                        "number": 64,
                        "time": 83.28400191250013,
                        "value": 0
                    },
                    {
                        "number": 64,
                        "time": 83.42405794583347,
                        "value": 1
                    },
                    {
                        "number": 64,
                        "time": 84.05271855000014,
                        "value": 0
                    },
                    {
                        "number": 64,
                        "time": 84.23415477500014,
                        "value": 1
                    },
                    {
                        "number": 64,
                        "time": 84.80711127500012,
                        "value": 0
                    },
                    {
                        "number": 64,
                        "time": 84.89942093333346,
                        "value": 1
                    },
                    {
                        "number": 64,
                        "time": 85.58696873333348,
                        "value": 0
                    },
                    {
                        "number": 64,
                        "time": 85.7413486791668,
                        "value": 1
                    },
                    {
                        "number": 64,
                        "time": 86.3429530041668,
                        "value": 0
                    },
                    {
                        "number": 64,
                        "time": 86.46072739583347,
                        "value": 1
                    },
                    {
                        "number": 64,
                        "time": 87.11007809583349,
                        "value": 0
                    },
                    {
                        "number": 64,
                        "time": 87.21352857500015,
                        "value": 1
                    },
                    {
                        "number": 64,
                        "time": 87.8692454583335,
                        "value": 0
                    },
                    {
                        "number": 64,
                        "time": 87.94245656666683,
                        "value": 1
                    },
                    {
                        "number": 64,
                        "time": 88.64114518750017,
                        "value": 0
                    },
                    {
                        "number": 64,
                        "time": 88.75732803333351,
                        "value": 1
                    },
                    {
                        "number": 64,
                        "time": 89.3875801833335,
                        "value": 0
                    },
                    {
                        "number": 64,
                        "time": 89.4544251083335,
                        "value": 1
                    },
                    {
                        "number": 64,
                        "time": 90.17380382500016,
                        "value": 0
                    },
                    {
                        "number": 64,
                        "time": 90.29157821666684,
                        "value": 1
                    },
                    {
                        "number": 64,
                        "time": 90.9297880958335,
                        "value": 0
                    },
                    {
                        "number": 64,
                        "time": 91.04915403333351,
                        "value": 1
                    },
                    {
                        "number": 64,
                        "time": 91.69691318750019,
                        "value": 0
                    },
                    {
                        "number": 64,
                        "time": 91.81946221666685,
                        "value": 1
                    },
                    {
                        "number": 64,
                        "time": 92.45926364166685,
                        "value": 0
                    },
                    {
                        "number": 64,
                        "time": 92.54998175416685,
                        "value": 1
                    },
                    {
                        "number": 64,
                        "time": 93.23116337083353,
                        "value": 0
                    },
                    {
                        "number": 64,
                        "time": 93.3584870375002,
                        "value": 1
                    },
                    {
                        "number": 64,
                        "time": 93.98237300416686,
                        "value": 0
                    },
                    {
                        "number": 64,
                        "time": 94.1892739625002,
                        "value": 1
                    },
                    {
                        "number": 64,
                        "time": 94.75745582500019,
                        "value": 0
                    },
                    {
                        "number": 64,
                        "time": 94.90865267916686,
                        "value": 1
                    },
                    {
                        "number": 64,
                        "time": 95.51503164166687,
                        "value": 0
                    },
                    {
                        "number": 64,
                        "time": 95.70601714166686,
                        "value": 1
                    },
                    {
                        "number": 64,
                        "time": 96.2757905500002,
                        "value": 0
                    },
                    {
                        "number": 64,
                        "time": 96.3235369250002,
                        "value": 1
                    },
                    {
                        "number": 64,
                        "time": 96.95378907500019,
                        "value": 0
                    },
                    {
                        "number": 64,
                        "time": 97.00949317916685,
                        "value": 1
                    },
                    {
                        "number": 64,
                        "time": 97.81322382500018,
                        "value": 0
                    },
                    {
                        "number": 64,
                        "time": 97.94213903750018,
                        "value": 1
                    },
                    {
                        "number": 64,
                        "time": 98.56284191250019,
                        "value": 0
                    },
                    {
                        "number": 64,
                        "time": 98.8397708875002,
                        "value": 1
                    },
                    {
                        "number": 64,
                        "time": 99.32996700416686,
                        "value": 0
                    },
                    {
                        "number": 64,
                        "time": 99.67692399583353,
                        "value": 1
                    },
                    {
                        "number": 64,
                        "time": 100.10345827916687,
                        "value": 0
                    },
                    {
                        "number": 64,
                        "time": 100.33104933333354,
                        "value": 1
                    },
                    {
                        "number": 64,
                        "time": 100.8594425500002,
                        "value": 0
                    },
                    {
                        "number": 64,
                        "time": 101.13318843333353,
                        "value": 1
                    },
                    {
                        "number": 64,
                        "time": 101.6281591875002,
                        "value": 0
                    },
                    {
                        "number": 64,
                        "time": 101.8525671500002,
                        "value": 1
                    },
                    {
                        "number": 64,
                        "time": 102.39528427916687,
                        "value": 0
                    },
                    {
                        "number": 64,
                        "time": 102.68335407500021,
                        "value": 1
                    },
                    {
                        "number": 64,
                        "time": 103.14808545833355,
                        "value": 0
                    },
                    {
                        "number": 64,
                        "time": 103.42342288750022,
                        "value": 1
                    },
                    {
                        "number": 64,
                        "time": 103.9279429166669,
                        "value": 0
                    },
                    {
                        "number": 64,
                        "time": 104.26057599583356,
                        "value": 1
                    },
                    {
                        "number": 64,
                        "time": 104.68551873333357,
                        "value": 0
                    },
                    {
                        "number": 64,
                        "time": 104.91470133333357,
                        "value": 1
                    },
                    {
                        "number": 64,
                        "time": 105.45264382500022,
                        "value": 0
                    },
                    {
                        "number": 64,
                        "time": 105.67227715000023,
                        "value": 1
                    },
                    {
                        "number": 64,
                        "time": 106.20862809583356,
                        "value": 0
                    },
                    {
                        "number": 64,
                        "time": 106.34550103750023,
                        "value": 1
                    },
                    {
                        "number": 64,
                        "time": 106.97734473333357,
                        "value": 0
                    },
                    {
                        "number": 64,
                        "time": 107.26700607500024,
                        "value": 1
                    },
                    {
                        "number": 64,
                        "time": 107.73810364166691,
                        "value": 0
                    },
                    {
                        "number": 64,
                        "time": 107.95296232916691,
                        "value": 1
                    },
                    {
                        "number": 64,
                        "time": 108.51318646250024,
                        "value": 0
                    },
                    {
                        "number": 64,
                        "time": 108.68189032083357,
                        "value": 1
                    },
                    {
                        "number": 64,
                        "time": 109.26757918750025,
                        "value": 0
                    },
                    {
                        "number": 64,
                        "time": 109.37102966666691,
                        "value": 1
                    },
                    {
                        "number": 64,
                        "time": 110.0251550041669,
                        "value": 0
                    },
                    {
                        "number": 64,
                        "time": 110.23205596250024,
                        "value": 1
                    },
                    {
                        "number": 64,
                        "time": 110.80023782500024,
                        "value": 0
                    },
                    {
                        "number": 64,
                        "time": 110.99599796250024,
                        "value": 1
                    },
                    {
                        "number": 64,
                        "time": 111.5578136416669,
                        "value": 0
                    },
                    {
                        "number": 64,
                        "time": 111.82837643333356,
                        "value": 1
                    },
                    {
                        "number": 64,
                        "time": 112.3122063666669,
                        "value": 0
                    },
                    {
                        "number": 64,
                        "time": 112.6273324416669,
                        "value": 1
                    },
                    {
                        "number": 64,
                        "time": 113.0904722791669,
                        "value": 0
                    },
                    {
                        "number": 64,
                        "time": 113.2814577791669,
                        "value": 1
                    },
                    {
                        "number": 64,
                        "time": 113.8544142791669,
                        "value": 0
                    },
                    {
                        "number": 64,
                        "time": 114.06449832916691,
                        "value": 1
                    },
                    {
                        "number": 64,
                        "time": 114.6088070041669,
                        "value": 0
                    },
                    {
                        "number": 64,
                        "time": 114.84594733333357,
                        "value": 1
                    },
                    {
                        "number": 64,
                        "time": 115.3822982791669,
                        "value": 0
                    },
                    {
                        "number": 64,
                        "time": 115.50166421666691,
                        "value": 1
                    },
                    {
                        "number": 64,
                        "time": 116.1414656416669,
                        "value": 0
                    },
                    {
                        "number": 64,
                        "time": 116.30062022500023,
                        "value": 1
                    },
                    {
                        "number": 64,
                        "time": 116.90063300416689,
                        "value": 0
                    },
                    {
                        "number": 64,
                        "time": 117.17437888750023,
                        "value": 1
                    },
                    {
                        "number": 64,
                        "time": 117.6788989166669,
                        "value": 0
                    },
                    {
                        "number": 64,
                        "time": 117.9749264416669,
                        "value": 1
                    },
                    {
                        "number": 64,
                        "time": 118.44124937083356,
                        "value": 0
                    },
                    {
                        "number": 64,
                        "time": 118.7388684416669,
                        "value": 1
                    },
                    {
                        "number": 64,
                        "time": 119.18609282083357,
                        "value": 0
                    },
                    {
                        "number": 64,
                        "time": 119.33888122083357,
                        "value": 1
                    },
                    {
                        "number": 64,
                        "time": 119.96435873333357,
                        "value": 0
                    },
                    {
                        "number": 64,
                        "time": 120.1760343291669,
                        "value": 1
                    },
                    {
                        "number": 64,
                        "time": 120.72830073333355,
                        "value": 0
                    },
                    {
                        "number": 64,
                        "time": 120.95748333333354,
                        "value": 1
                    },
                    {
                        "number": 64,
                        "time": 121.48269345833354,
                        "value": 0
                    },
                    {
                        "number": 64,
                        "time": 121.66731277500021,
                        "value": 1
                    },
                    {
                        "number": 64,
                        "time": 122.24822700416686,
                        "value": 0
                    },
                    {
                        "number": 64,
                        "time": 122.41374777083354,
                        "value": 1
                    },
                    {
                        "number": 64,
                        "time": 123.0185351875002,
                        "value": 0
                    },
                    {
                        "number": 64,
                        "time": 123.24930933333353,
                        "value": 1
                    },
                    {
                        "number": 64,
                        "time": 123.77611100416685,
                        "value": 0
                    },
                    {
                        "number": 64,
                        "time": 123.94163177083352,
                        "value": 1
                    },
                    {
                        "number": 64,
                        "time": 124.54482764166686,
                        "value": 0
                    },
                    {
                        "number": 64,
                        "time": 124.72308077500018,
                        "value": 1
                    },
                    {
                        "number": 64,
                        "time": 125.31195273333353,
                        "value": 0
                    },
                    {
                        "number": 64,
                        "time": 125.5968394375002,
                        "value": 1
                    },
                    {
                        "number": 64,
                        "time": 126.0647539125002,
                        "value": 0
                    },
                    {
                        "number": 64,
                        "time": 126.41489399583352,
                        "value": 1
                    },
                    {
                        "number": 64,
                        "time": 126.84142827916686,
                        "value": 0
                    },
                    {
                        "number": 64,
                        "time": 127.25204710416686,
                        "value": 1
                    },
                    {
                        "number": 64,
                        "time": 127.60855337083352,
                        "value": 0
                    },
                    {
                        "number": 64,
                        "time": 127.97938355000018,
                        "value": 1
                    },
                    {
                        "number": 64,
                        "time": 128.35976300416687,
                        "value": 0
                    },
                    {
                        "number": 64,
                        "time": 128.85155066666687,
                        "value": 1
                    },
                    {
                        "number": 64,
                        "time": 129.1348458250002,
                        "value": 0
                    },
                    {
                        "number": 64,
                        "time": 129.74281633333354,
                        "value": 1
                    },
                    {
                        "number": 64,
                        "time": 130.6484059125002,
                        "value": 0
                    },
                    {
                        "number": 64,
                        "time": 130.82506750000022,
                        "value": 1
                    },
                    {
                        "number": 64,
                        "time": 132.18424764166687,
                        "value": 0
                    },
                    {
                        "number": 64,
                        "time": 132.37523314166688,
                        "value": 1
                    },
                    {
                        "number": 64,
                        "time": 132.93864036666687,
                        "value": 0
                    },
                    {
                        "number": 64,
                        "time": 133.1168935000002,
                        "value": 1
                    },
                    {
                        "number": 64,
                        "time": 133.71690627916686,
                        "value": 0
                    },
                    {
                        "number": 64,
                        "time": 133.89197632083352,
                        "value": 1
                    },
                    {
                        "number": 64,
                        "time": 134.48403137083352,
                        "value": 0
                    },
                    {
                        "number": 64,
                        "time": 134.64477750000017,
                        "value": 1
                    },
                    {
                        "number": 64,
                        "time": 135.2288748208335,
                        "value": 0
                    },
                    {
                        "number": 64,
                        "time": 135.32436757083352,
                        "value": 1
                    },
                    {
                        "number": 64,
                        "time": 135.99918300416687,
                        "value": 0
                    },
                    {
                        "number": 64,
                        "time": 136.09945039166686,
                        "value": 1
                    },
                    {
                        "number": 64,
                        "time": 136.75675882083354,
                        "value": 0
                    },
                    {
                        "number": 64,
                        "time": 136.86339239166688,
                        "value": 1
                    },
                    {
                        "number": 64,
                        "time": 137.52070082083355,
                        "value": 0
                    },
                    {
                        "number": 64,
                        "time": 137.70054550000023,
                        "value": 1
                    },
                    {
                        "number": 64,
                        "time": 138.2910090041669,
                        "value": 0
                    },
                    {
                        "number": 64,
                        "time": 138.4199242166669,
                        "value": 1
                    },
                    {
                        "number": 64,
                        "time": 139.05654255000024,
                        "value": 0
                    },
                    {
                        "number": 64,
                        "time": 139.1838662166669,
                        "value": 1
                    },
                    {
                        "number": 64,
                        "time": 140.5923842791669,
                        "value": 0
                    },
                    {
                        "number": 64,
                        "time": 141.16056614166692,
                        "value": 1
                    },
                    {
                        "number": 64,
                        "time": 142.1011697291669,
                        "value": 0
                    },
                    {
                        "number": 64,
                        "time": 142.38605643333358,
                        "value": 1
                    },
                    {
                        "number": 64,
                        "time": 150.5395457375003,
                        "value": 0
                    }
                ],
                "91": [
                    {
                        "number": 91,
                        "time": 1.5215178166666667,
                        "value": 1
                    }
                ]
            },
            "id": 2,
            "name": "Piano left",
            "instrumentNumber": 0,
            "instrument": "acoustic grand piano",
            "instrumentFamily": "piano",
            "channelNumber": 0,
            "isPercussion": false
        },
        {
            "startTime": 0,
            "duration": 0,
            "length": 0,
            "notes": [],
            "controlChanges": {},
            "id": 3,
            "name": "Fantasie No. 6 in E-Dur Op. 116"
        },
        {
            "startTime": 0,
            "duration": 0,
            "length": 0,
            "notes": [],
            "controlChanges": {},
            "id": 4,
            "name": "Copyright  1999 by Bernd Krger"
        },
        {
            "startTime": 0,
            "duration": 0,
            "length": 0,
            "notes": [],
            "controlChanges": {},
            "id": 5,
            "name": "http://www.piano-midi.de"
        },
        {
            "startTime": 0,
            "duration": 0,
            "length": 0,
            "notes": [],
            "controlChanges": {},
            "id": 6,
            "name": "Edition: 2010-10-31"
        },
        {
            "startTime": 0,
            "duration": 0,
            "length": 0,
            "notes": [],
            "controlChanges": {},
            "id": 7,
            "name": "Spur 7"
        }
    ]
}