{
    "header": {
        "PPQ": 480,
        "timeSignature": [
            3,
            4
        ],
        "bpm": 72.9699752875017,
        "name": "Intermezzo"
    },
    "startTime": 0,
    "duration": 171.85150400000035,
    "tracks": [
        {
            "startTime": 0,
            "duration": 0,
            "length": 0,
            "notes": [],
            "controlChanges": {},
            "id": 0,
            "name": "Intermezzo"
        },
        {
            "startTime": 0,
            "duration": 171.02924799999982,
            "length": 574,
            "notes": [
                {
                    "name": "C5",
                    "midi": 72,
                    "time": 0,
                    "velocity": 0.4409448818897638,
                    "duration": 0.41112800000000005
                },
                {
                    "name": "A4",
                    "midi": 69,
                    "time": 0,
                    "velocity": 0.3937007874015748,
                    "duration": 0.41112800000000005
                },
                {
                    "name": "C5",
                    "midi": 72,
                    "time": 0.41112800000000005,
                    "velocity": 0.47244094488188976,
                    "duration": 0.41112800000000005
                },
                {
                    "name": "A4",
                    "midi": 69,
                    "time": 0.41112800000000005,
                    "velocity": 0.4251968503937008,
                    "duration": 0.41112800000000005
                },
                {
                    "name": "D5",
                    "midi": 74,
                    "time": 0.8222560000000001,
                    "velocity": 0.29133858267716534,
                    "duration": 1.644512
                },
                {
                    "name": "F4",
                    "midi": 65,
                    "time": 0.8222560000000001,
                    "velocity": 0.25984251968503935,
                    "duration": 1.644512
                },
                {
                    "name": "A4",
                    "midi": 69,
                    "time": 0.8222560000000001,
                    "velocity": 0.25984251968503935,
                    "duration": 1.644512
                },
                {
                    "name": "A4",
                    "midi": 69,
                    "time": 2.466768,
                    "velocity": 0.4015748031496063,
                    "duration": 0.41112800000000016
                },
                {
                    "name": "C5",
                    "midi": 72,
                    "time": 2.466768,
                    "velocity": 0.44881889763779526,
                    "duration": 0.41112800000000016
                },
                {
                    "name": "C5",
                    "midi": 72,
                    "time": 2.8778960000000002,
                    "velocity": 0.4645669291338583,
                    "duration": 0.41112800000000016
                },
                {
                    "name": "A4",
                    "midi": 69,
                    "time": 2.8778960000000002,
                    "velocity": 0.41732283464566927,
                    "duration": 0.41112800000000016
                },
                {
                    "name": "D4",
                    "midi": 62,
                    "time": 3.2890240000000004,
                    "velocity": 0.25984251968503935,
                    "duration": 1.6445119999999998
                },
                {
                    "name": "B4",
                    "midi": 71,
                    "time": 3.2890240000000004,
                    "velocity": 0.29133858267716534,
                    "duration": 1.6445119999999998
                },
                {
                    "name": "G#4",
                    "midi": 68,
                    "time": 3.2890240000000004,
                    "velocity": 0.25984251968503935,
                    "duration": 1.6445119999999998
                },
                {
                    "name": "A4",
                    "midi": 69,
                    "time": 4.933536,
                    "velocity": 0.4409448818897638,
                    "duration": 0.4111279999999997
                },
                {
                    "name": "F#4",
                    "midi": 66,
                    "time": 4.933536,
                    "velocity": 0.3937007874015748,
                    "duration": 0.4111279999999997
                },
                {
                    "name": "F#4",
                    "midi": 66,
                    "time": 5.344664,
                    "velocity": 0.3779527559055118,
                    "duration": 0.4111279999999997
                },
                {
                    "name": "A4",
                    "midi": 69,
                    "time": 5.344664,
                    "velocity": 0.4251968503937008,
                    "duration": 0.4111279999999997
                },
                {
                    "name": "C5",
                    "midi": 72,
                    "time": 5.755792,
                    "velocity": 0.4094488188976378,
                    "duration": 0.8222560000000003
                },
                {
                    "name": "C4",
                    "midi": 60,
                    "time": 5.755792,
                    "velocity": 0.3700787401574803,
                    "duration": 0.8222560000000003
                },
                {
                    "name": "F#4",
                    "midi": 66,
                    "time": 6.578048,
                    "velocity": 0.33858267716535434,
                    "duration": 0.8222560000000003
                },
                {
                    "name": "A4",
                    "midi": 69,
                    "time": 6.578048,
                    "velocity": 0.3779527559055118,
                    "duration": 0.8222560000000003
                },
                {
                    "name": "E4",
                    "midi": 64,
                    "time": 7.400304,
                    "velocity": 0.30708661417322836,
                    "duration": 0.8222559999999994
                },
                {
                    "name": "G#4",
                    "midi": 68,
                    "time": 7.400304,
                    "velocity": 0.3543307086614173,
                    "duration": 0.8222559999999994
                },
                {
                    "name": "B3",
                    "midi": 59,
                    "time": 8.22256,
                    "velocity": 0.25984251968503935,
                    "duration": 1.6445120000000006
                },
                {
                    "name": "G#4",
                    "midi": 68,
                    "time": 8.22256,
                    "velocity": 0.25984251968503935,
                    "duration": 1.6445120000000006
                },
                {
                    "name": "B4",
                    "midi": 71,
                    "time": 8.22256,
                    "velocity": 0.29133858267716534,
                    "duration": 1.6445120000000006
                },
                {
                    "name": "C5",
                    "midi": 72,
                    "time": 9.867072,
                    "velocity": 0.4330708661417323,
                    "duration": 0.4111279999999997
                },
                {
                    "name": "A4",
                    "midi": 69,
                    "time": 9.867072,
                    "velocity": 0.3858267716535433,
                    "duration": 0.4111279999999997
                },
                {
                    "name": "A4",
                    "midi": 69,
                    "time": 10.2782,
                    "velocity": 0.4094488188976378,
                    "duration": 0.4111279999999997
                },
                {
                    "name": "C5",
                    "midi": 72,
                    "time": 10.2782,
                    "velocity": 0.4566929133858268,
                    "duration": 0.4111279999999997
                },
                {
                    "name": "E5",
                    "midi": 76,
                    "time": 10.689328,
                    "velocity": 0.41732283464566927,
                    "duration": 1.6445120000000006
                },
                {
                    "name": "E4",
                    "midi": 64,
                    "time": 10.689328,
                    "velocity": 0.3700787401574803,
                    "duration": 1.6445120000000006
                },
                {
                    "name": "C#5",
                    "midi": 73,
                    "time": 10.689328,
                    "velocity": 0.3700787401574803,
                    "duration": 1.6445120000000006
                },
                {
                    "name": "D5",
                    "midi": 74,
                    "time": 12.33384,
                    "velocity": 0.4409448818897638,
                    "duration": 0.4111279999999997
                },
                {
                    "name": "F5",
                    "midi": 77,
                    "time": 12.33384,
                    "velocity": 0.49606299212598426,
                    "duration": 0.4111279999999997
                },
                {
                    "name": "F5",
                    "midi": 77,
                    "time": 12.744968,
                    "velocity": 0.5354330708661418,
                    "duration": 0.4111279999999997
                },
                {
                    "name": "D5",
                    "midi": 74,
                    "time": 12.744968,
                    "velocity": 0.47244094488188976,
                    "duration": 0.4111279999999997
                },
                {
                    "name": "A4",
                    "midi": 69,
                    "time": 13.156096,
                    "velocity": 0.4645669291338583,
                    "duration": 1.6445120000000006
                },
                {
                    "name": "A5",
                    "midi": 81,
                    "time": 13.156096,
                    "velocity": 0.5275590551181102,
                    "duration": 1.6445120000000006
                },
                {
                    "name": "F#5",
                    "midi": 78,
                    "time": 13.156096,
                    "velocity": 0.4645669291338583,
                    "duration": 1.6445120000000006
                },
                {
                    "name": "G4",
                    "midi": 67,
                    "time": 14.800608,
                    "velocity": 0.48031496062992124,
                    "duration": 0.4111279999999997
                },
                {
                    "name": "C5",
                    "midi": 72,
                    "time": 14.800608,
                    "velocity": 0.48031496062992124,
                    "duration": 1.6445119999999989
                },
                {
                    "name": "G5",
                    "midi": 79,
                    "time": 14.800608,
                    "velocity": 0.5433070866141733,
                    "duration": 0.4111279999999997
                },
                {
                    "name": "G4",
                    "midi": 67,
                    "time": 15.211736,
                    "velocity": 0.48031496062992124,
                    "duration": 0.4111279999999997
                },
                {
                    "name": "G5",
                    "midi": 79,
                    "time": 15.211736,
                    "velocity": 0.5433070866141733,
                    "duration": 0.4111279999999997
                },
                {
                    "name": "E5",
                    "midi": 76,
                    "time": 15.622864,
                    "velocity": 0.5433070866141733,
                    "duration": 0.8222559999999994
                },
                {
                    "name": "G#4",
                    "midi": 68,
                    "time": 15.622864,
                    "velocity": 0.48031496062992124,
                    "duration": 0.8222559999999994
                },
                {
                    "name": "C5",
                    "midi": 72,
                    "time": 16.44512,
                    "velocity": 0.4645669291338583,
                    "duration": 0.8222559999999994
                },
                {
                    "name": "A4",
                    "midi": 69,
                    "time": 16.44512,
                    "velocity": 0.41732283464566927,
                    "duration": 0.8222559999999994
                },
                {
                    "name": "B4",
                    "midi": 71,
                    "time": 17.267376,
                    "velocity": 0.4330708661417323,
                    "duration": 0.8222559999999994
                },
                {
                    "name": "G#4",
                    "midi": 68,
                    "time": 17.267376,
                    "velocity": 0.3858267716535433,
                    "duration": 0.8222559999999994
                },
                {
                    "name": "E4",
                    "midi": 64,
                    "time": 17.267376,
                    "velocity": 0.3858267716535433,
                    "duration": 2.4667679999999983
                },
                {
                    "name": "E5",
                    "midi": 76,
                    "time": 17.267376,
                    "velocity": 0.4330708661417323,
                    "duration": 2.4667679999999983
                },
                {
                    "name": "A4",
                    "midi": 69,
                    "time": 18.089631999999998,
                    "velocity": 0.4094488188976378,
                    "duration": 1.6445119999999989
                },
                {
                    "name": "B3",
                    "midi": 59,
                    "time": 19.734143999999997,
                    "velocity": 0.2755905511811024,
                    "duration": 0.8222559999999994
                },
                {
                    "name": "G#3",
                    "midi": 56,
                    "time": 19.734143999999997,
                    "velocity": 0.2755905511811024,
                    "duration": 0.8222559999999994
                },
                {
                    "name": "E4",
                    "midi": 64,
                    "time": 19.734143999999997,
                    "velocity": 0.31496062992125984,
                    "duration": 2.4667679999999983
                },
                {
                    "name": "E3",
                    "midi": 52,
                    "time": 19.734143999999997,
                    "velocity": 0.31496062992125984,
                    "duration": 2.4667679999999983
                },
                {
                    "name": "A3",
                    "midi": 57,
                    "time": 20.556399999999996,
                    "velocity": 0.2677165354330709,
                    "duration": 1.6445119999999989
                },
                {
                    "name": "A4",
                    "midi": 69,
                    "time": 22.200911999999995,
                    "velocity": 0.2992125984251969,
                    "duration": 0.4111280000000015
                },
                {
                    "name": "C5",
                    "midi": 72,
                    "time": 22.200911999999995,
                    "velocity": 0.3464566929133858,
                    "duration": 0.4111280000000015
                },
                {
                    "name": "A4",
                    "midi": 69,
                    "time": 22.612039999999997,
                    "velocity": 0.2992125984251969,
                    "duration": 0.4111280000000015
                },
                {
                    "name": "C5",
                    "midi": 72,
                    "time": 22.612039999999997,
                    "velocity": 0.3464566929133858,
                    "duration": 0.4111280000000015
                },
                {
                    "name": "B4",
                    "midi": 71,
                    "time": 23.023168,
                    "velocity": 0.33070866141732286,
                    "duration": 0.4111280000000015
                },
                {
                    "name": "F4",
                    "midi": 65,
                    "time": 23.023168,
                    "velocity": 0.33070866141732286,
                    "duration": 0.4111280000000015
                },
                {
                    "name": "D5",
                    "midi": 74,
                    "time": 23.023168,
                    "velocity": 0.3700787401574803,
                    "duration": 0.4111280000000015
                },
                {
                    "name": "A4",
                    "midi": 69,
                    "time": 23.434296,
                    "velocity": 0.2992125984251969,
                    "duration": 0.4111280000000015
                },
                {
                    "name": "C5",
                    "midi": 72,
                    "time": 23.434296,
                    "velocity": 0.3464566929133858,
                    "duration": 0.4111280000000015
                },
                {
                    "name": "F4",
                    "midi": 65,
                    "time": 23.845424,
                    "velocity": 0.2992125984251969,
                    "duration": 0.8222559999999994
                },
                {
                    "name": "B4",
                    "midi": 71,
                    "time": 23.845424,
                    "velocity": 0.2992125984251969,
                    "duration": 0.8222559999999994
                },
                {
                    "name": "D5",
                    "midi": 74,
                    "time": 23.845424,
                    "velocity": 0.2992125984251969,
                    "duration": 0.8222559999999994
                },
                {
                    "name": "C5",
                    "midi": 72,
                    "time": 24.66768,
                    "velocity": 0.3700787401574803,
                    "duration": 0.4111280000000015
                },
                {
                    "name": "A4",
                    "midi": 69,
                    "time": 24.66768,
                    "velocity": 0.33070866141732286,
                    "duration": 0.4111280000000015
                },
                {
                    "name": "A4",
                    "midi": 69,
                    "time": 25.078808000000002,
                    "velocity": 0.33070866141732286,
                    "duration": 0.4111280000000015
                },
                {
                    "name": "C5",
                    "midi": 72,
                    "time": 25.078808000000002,
                    "velocity": 0.3700787401574803,
                    "duration": 0.4111280000000015
                },
                {
                    "name": "B4",
                    "midi": 71,
                    "time": 25.489936000000004,
                    "velocity": 0.3464566929133858,
                    "duration": 0.4111280000000015
                },
                {
                    "name": "D4",
                    "midi": 62,
                    "time": 25.489936000000004,
                    "velocity": 0.30708661417322836,
                    "duration": 0.4111280000000015
                },
                {
                    "name": "G#4",
                    "midi": 68,
                    "time": 25.489936000000004,
                    "velocity": 0.30708661417322836,
                    "duration": 0.4111280000000015
                },
                {
                    "name": "F4",
                    "midi": 65,
                    "time": 25.901064000000005,
                    "velocity": 0.2992125984251969,
                    "duration": 0.4111280000000015
                },
                {
                    "name": "A4",
                    "midi": 69,
                    "time": 25.901064000000005,
                    "velocity": 0.2992125984251969,
                    "duration": 0.4111280000000015
                },
                {
                    "name": "G#4",
                    "midi": 68,
                    "time": 26.312192000000007,
                    "velocity": 0.29133858267716534,
                    "duration": 0.8222559999999994
                },
                {
                    "name": "B4",
                    "midi": 71,
                    "time": 26.312192000000007,
                    "velocity": 0.29133858267716534,
                    "duration": 0.8222559999999994
                },
                {
                    "name": "D4",
                    "midi": 62,
                    "time": 26.312192000000007,
                    "velocity": 0.29133858267716534,
                    "duration": 0.8222559999999994
                },
                {
                    "name": "A4",
                    "midi": 69,
                    "time": 27.134448000000006,
                    "velocity": 0.3543307086614173,
                    "duration": 0.4111280000000015
                },
                {
                    "name": "F#4",
                    "midi": 66,
                    "time": 27.134448000000006,
                    "velocity": 0.30708661417322836,
                    "duration": 0.4111280000000015
                },
                {
                    "name": "A4",
                    "midi": 69,
                    "time": 27.545576000000008,
                    "velocity": 0.36220472440944884,
                    "duration": 0.822256000000003
                },
                {
                    "name": "F#4",
                    "midi": 66,
                    "time": 27.545576000000008,
                    "velocity": 0.31496062992125984,
                    "duration": 0.4111280000000015
                },
                {
                    "name": "C4",
                    "midi": 60,
                    "time": 27.95670400000001,
                    "velocity": 0.36220472440944884,
                    "duration": 0.4111280000000015
                },
                {
                    "name": "C5",
                    "midi": 72,
                    "time": 27.95670400000001,
                    "velocity": 0.4015748031496063,
                    "duration": 0.4111280000000015
                },
                {
                    "name": "B4",
                    "midi": 71,
                    "time": 28.36783200000001,
                    "velocity": 0.3779527559055118,
                    "duration": 0.4111280000000015
                },
                {
                    "name": "G#4",
                    "midi": 68,
                    "time": 28.36783200000001,
                    "velocity": 0.33858267716535434,
                    "duration": 0.4111280000000015
                },
                {
                    "name": "C4",
                    "midi": 60,
                    "time": 28.778960000000012,
                    "velocity": 0.33858267716535434,
                    "duration": 0.4111280000000015
                },
                {
                    "name": "C5",
                    "midi": 72,
                    "time": 28.778960000000012,
                    "velocity": 0.3779527559055118,
                    "duration": 0.4111280000000015
                },
                {
                    "name": "A4",
                    "midi": 69,
                    "time": 28.778960000000012,
                    "velocity": 0.33858267716535434,
                    "duration": 0.4111280000000015
                },
                {
                    "name": "A4",
                    "midi": 69,
                    "time": 29.190088000000014,
                    "velocity": 0.36220472440944884,
                    "duration": 0.4111280000000015
                },
                {
                    "name": "F#4",
                    "midi": 66,
                    "time": 29.190088000000014,
                    "velocity": 0.31496062992125984,
                    "duration": 0.4111280000000015
                },
                {
                    "name": "E4",
                    "midi": 64,
                    "time": 29.601216000000015,
                    "velocity": 0.30708661417322836,
                    "duration": 0.8222559999999994
                },
                {
                    "name": "G#4",
                    "midi": 68,
                    "time": 29.601216000000015,
                    "velocity": 0.3543307086614173,
                    "duration": 0.8222559999999994
                },
                {
                    "name": "G#4",
                    "midi": 68,
                    "time": 30.423472000000015,
                    "velocity": 0.2677165354330709,
                    "duration": 1.6445120000000024
                },
                {
                    "name": "B4",
                    "midi": 71,
                    "time": 30.423472000000015,
                    "velocity": 0.2992125984251969,
                    "duration": 1.6445120000000024
                },
                {
                    "name": "B3",
                    "midi": 59,
                    "time": 30.423472000000015,
                    "velocity": 0.2677165354330709,
                    "duration": 1.6445120000000024
                },
                {
                    "name": "C5",
                    "midi": 72,
                    "time": 32.06798400000002,
                    "velocity": 0.4566929133858268,
                    "duration": 0.41112799999999794
                },
                {
                    "name": "A4",
                    "midi": 69,
                    "time": 32.06798400000002,
                    "velocity": 0.4094488188976378,
                    "duration": 0.41112799999999794
                },
                {
                    "name": "C5",
                    "midi": 72,
                    "time": 32.479112000000015,
                    "velocity": 0.4566929133858268,
                    "duration": 0.41112799999999794
                },
                {
                    "name": "A4",
                    "midi": 69,
                    "time": 32.479112000000015,
                    "velocity": 0.4094488188976378,
                    "duration": 0.41112799999999794
                },
                {
                    "name": "E5",
                    "midi": 76,
                    "time": 32.89024000000001,
                    "velocity": 0.4566929133858268,
                    "duration": 0.41112799999999794
                },
                {
                    "name": "C#5",
                    "midi": 73,
                    "time": 32.89024000000001,
                    "velocity": 0.4094488188976378,
                    "duration": 0.41112799999999794
                },
                {
                    "name": "E4",
                    "midi": 64,
                    "time": 32.89024000000001,
                    "velocity": 0.4094488188976378,
                    "duration": 0.41112799999999794
                },
                {
                    "name": "B4",
                    "midi": 71,
                    "time": 33.30136800000001,
                    "velocity": 0.4094488188976378,
                    "duration": 0.41112799999999794
                },
                {
                    "name": "F4",
                    "midi": 65,
                    "time": 33.30136800000001,
                    "velocity": 0.4094488188976378,
                    "duration": 0.41112799999999794
                },
                {
                    "name": "D5",
                    "midi": 74,
                    "time": 33.30136800000001,
                    "velocity": 0.4566929133858268,
                    "duration": 0.41112799999999794
                },
                {
                    "name": "E5",
                    "midi": 76,
                    "time": 33.71249600000001,
                    "velocity": 0.4566929133858268,
                    "duration": 0.8222559999999959
                },
                {
                    "name": "E4",
                    "midi": 64,
                    "time": 33.71249600000001,
                    "velocity": 0.4094488188976378,
                    "duration": 0.41112799999999794
                },
                {
                    "name": "C#5",
                    "midi": 73,
                    "time": 33.71249600000001,
                    "velocity": 0.4566929133858268,
                    "duration": 0.8222559999999959
                },
                {
                    "name": "G5",
                    "midi": 79,
                    "time": 34.12362400000001,
                    "velocity": 0.48031496062992124,
                    "duration": 0.41112799999999794
                },
                {
                    "name": "A4",
                    "midi": 69,
                    "time": 34.12362400000001,
                    "velocity": 0.4330708661417323,
                    "duration": 0.41112799999999794
                },
                {
                    "name": "D5",
                    "midi": 74,
                    "time": 34.534752000000005,
                    "velocity": 0.4094488188976378,
                    "duration": 0.41112799999999794
                },
                {
                    "name": "F5",
                    "midi": 77,
                    "time": 34.534752000000005,
                    "velocity": 0.4566929133858268,
                    "duration": 0.41112799999999794
                },
                {
                    "name": "A4",
                    "midi": 69,
                    "time": 34.534752000000005,
                    "velocity": 0.4094488188976378,
                    "duration": 0.41112799999999794
                },
                {
                    "name": "D5",
                    "midi": 74,
                    "time": 34.94588,
                    "velocity": 0.4094488188976378,
                    "duration": 0.41112799999999794
                },
                {
                    "name": "A4",
                    "midi": 69,
                    "time": 34.94588,
                    "velocity": 0.4094488188976378,
                    "duration": 0.41112799999999794
                },
                {
                    "name": "F5",
                    "midi": 77,
                    "time": 34.94588,
                    "velocity": 0.4566929133858268,
                    "duration": 0.41112799999999794
                },
                {
                    "name": "A5",
                    "midi": 81,
                    "time": 35.357008,
                    "velocity": 0.49606299212598426,
                    "duration": 0.41112799999999794
                },
                {
                    "name": "F#5",
                    "midi": 78,
                    "time": 35.357008,
                    "velocity": 0.4409448818897638,
                    "duration": 0.41112799999999794
                },
                {
                    "name": "C5",
                    "midi": 72,
                    "time": 35.357008,
                    "velocity": 0.4409448818897638,
                    "duration": 0.41112799999999794
                },
                {
                    "name": "F5",
                    "midi": 77,
                    "time": 35.768136,
                    "velocity": 0.47244094488188976,
                    "duration": 0.41112799999999794
                },
                {
                    "name": "G#5",
                    "midi": 80,
                    "time": 35.768136,
                    "velocity": 0.47244094488188976,
                    "duration": 0.41112799999999794
                },
                {
                    "name": "B4",
                    "midi": 71,
                    "time": 35.768136,
                    "velocity": 0.4251968503937008,
                    "duration": 0.41112799999999794
                },
                {
                    "name": "A5",
                    "midi": 81,
                    "time": 36.179263999999996,
                    "velocity": 0.5196850393700787,
                    "duration": 0.8222559999999959
                },
                {
                    "name": "C5",
                    "midi": 72,
                    "time": 36.179263999999996,
                    "velocity": 0.4566929133858268,
                    "duration": 0.41112799999999794
                },
                {
                    "name": "F#5",
                    "midi": 78,
                    "time": 36.179263999999996,
                    "velocity": 0.4566929133858268,
                    "duration": 0.8222559999999959
                },
                {
                    "name": "C6",
                    "midi": 84,
                    "time": 36.590391999999994,
                    "velocity": 0.5275590551181102,
                    "duration": 0.41112799999999794
                },
                {
                    "name": "G5",
                    "midi": 79,
                    "time": 37.00151999999999,
                    "velocity": 0.5354330708661418,
                    "duration": 0.41112799999999794
                },
                {
                    "name": "C5",
                    "midi": 72,
                    "time": 37.00151999999999,
                    "velocity": 0.47244094488188976,
                    "duration": 0.41112799999999794
                },
                {
                    "name": "G4",
                    "midi": 67,
                    "time": 37.00151999999999,
                    "velocity": 0.47244094488188976,
                    "duration": 0.41112799999999794
                },
                {
                    "name": "C5",
                    "midi": 72,
                    "time": 37.41264799999999,
                    "velocity": 0.48031496062992124,
                    "duration": 1.2333839999999938
                },
                {
                    "name": "G4",
                    "midi": 67,
                    "time": 37.41264799999999,
                    "velocity": 0.48031496062992124,
                    "duration": 0.41112799999999794
                },
                {
                    "name": "G5",
                    "midi": 79,
                    "time": 37.41264799999999,
                    "velocity": 0.48031496062992124,
                    "duration": 0.41112799999999794
                },
                {
                    "name": "G#4",
                    "midi": 68,
                    "time": 37.82377599999999,
                    "velocity": 0.47244094488188976,
                    "duration": 0.8222559999999959
                },
                {
                    "name": "F5",
                    "midi": 77,
                    "time": 37.82377599999999,
                    "velocity": 0.5354330708661418,
                    "duration": 0.41112799999999794
                },
                {
                    "name": "E5",
                    "midi": 76,
                    "time": 38.234903999999986,
                    "velocity": 0.5039370078740157,
                    "duration": 0.41112799999999794
                },
                {
                    "name": "D5",
                    "midi": 74,
                    "time": 38.646031999999984,
                    "velocity": 0.49606299212598426,
                    "duration": 0.41112799999999794
                },
                {
                    "name": "A4",
                    "midi": 69,
                    "time": 38.646031999999984,
                    "velocity": 0.4409448818897638,
                    "duration": 0.8222559999999959
                },
                {
                    "name": "C5",
                    "midi": 72,
                    "time": 39.05715999999998,
                    "velocity": 0.44881889763779526,
                    "duration": 0.41112799999999794
                },
                {
                    "name": "B4",
                    "midi": 71,
                    "time": 39.46828799999998,
                    "velocity": 0.4409448818897638,
                    "duration": 0.822256000000003
                },
                {
                    "name": "E4",
                    "midi": 64,
                    "time": 39.46828799999998,
                    "velocity": 0.3937007874015748,
                    "duration": 2.466768000000002
                },
                {
                    "name": "G#4",
                    "midi": 68,
                    "time": 39.46828799999998,
                    "velocity": 0.3937007874015748,
                    "duration": 0.822256000000003
                },
                {
                    "name": "E5",
                    "midi": 76,
                    "time": 39.46828799999998,
                    "velocity": 0.4409448818897638,
                    "duration": 2.466768000000002
                },
                {
                    "name": "A4",
                    "midi": 69,
                    "time": 40.29054399999998,
                    "velocity": 0.4330708661417323,
                    "duration": 1.6445119999999989
                },
                {
                    "name": "B3",
                    "midi": 59,
                    "time": 41.93505599999998,
                    "velocity": 0.31496062992125984,
                    "duration": 0.822256000000003
                },
                {
                    "name": "G#3",
                    "midi": 56,
                    "time": 41.93505599999998,
                    "velocity": 0.28346456692913385,
                    "duration": 0.822256000000003
                },
                {
                    "name": "E4",
                    "midi": 64,
                    "time": 41.93505599999998,
                    "velocity": 0.31496062992125984,
                    "duration": 2.466768000000002
                },
                {
                    "name": "E3",
                    "midi": 52,
                    "time": 41.93505599999998,
                    "velocity": 0.28346456692913385,
                    "duration": 2.466768000000002
                },
                {
                    "name": "A3",
                    "midi": 57,
                    "time": 42.757311999999985,
                    "velocity": 0.31496062992125984,
                    "duration": 1.6445119999999989
                },
                {
                    "name": "E5",
                    "midi": 76,
                    "time": 44.40182399999998,
                    "velocity": 0.3543307086614173,
                    "duration": 0.20556400000000252
                },
                {
                    "name": "E6",
                    "midi": 88,
                    "time": 44.607387999999986,
                    "velocity": 0.3937007874015748,
                    "duration": 0.20556400000000252
                },
                {
                    "name": "D6",
                    "midi": 86,
                    "time": 44.81295199999999,
                    "velocity": 0.4015748031496063,
                    "duration": 0.20556400000000252
                },
                {
                    "name": "D5",
                    "midi": 74,
                    "time": 45.01851599999999,
                    "velocity": 0.3700787401574803,
                    "duration": 0.20556400000000252
                },
                {
                    "name": "F5",
                    "midi": 77,
                    "time": 45.224079999999994,
                    "velocity": 0.3779527559055118,
                    "duration": 0.20556400000000252
                },
                {
                    "name": "F6",
                    "midi": 89,
                    "time": 45.429643999999996,
                    "velocity": 0.3937007874015748,
                    "duration": 0.20556400000000252
                },
                {
                    "name": "E6",
                    "midi": 88,
                    "time": 45.635208,
                    "velocity": 0.4094488188976378,
                    "duration": 0.20556400000000252
                },
                {
                    "name": "E5",
                    "midi": 76,
                    "time": 45.840772,
                    "velocity": 0.3779527559055118,
                    "duration": 0.20556400000000252
                },
                {
                    "name": "D5",
                    "midi": 74,
                    "time": 46.046336000000004,
                    "velocity": 0.3858267716535433,
                    "duration": 0.20556400000000252
                },
                {
                    "name": "D6",
                    "midi": 86,
                    "time": 46.251900000000006,
                    "velocity": 0.4251968503937008,
                    "duration": 0.20556400000000252
                },
                {
                    "name": "C6",
                    "midi": 84,
                    "time": 46.45746400000001,
                    "velocity": 0.4015748031496063,
                    "duration": 0.20556400000000252
                },
                {
                    "name": "C5",
                    "midi": 72,
                    "time": 46.66302800000001,
                    "velocity": 0.4015748031496063,
                    "duration": 0.20556400000000252
                },
                {
                    "name": "B4",
                    "midi": 71,
                    "time": 46.868592000000014,
                    "velocity": 0.4330708661417323,
                    "duration": 0.20556400000000252
                },
                {
                    "name": "B5",
                    "midi": 83,
                    "time": 47.074156000000016,
                    "velocity": 0.4409448818897638,
                    "duration": 0.20556400000000252
                },
                {
                    "name": "D6",
                    "midi": 86,
                    "time": 47.27972000000002,
                    "velocity": 0.4094488188976378,
                    "duration": 0.20556400000000252
                },
                {
                    "name": "D5",
                    "midi": 74,
                    "time": 47.48528400000002,
                    "velocity": 0.4251968503937008,
                    "duration": 0.20556400000000252
                },
                {
                    "name": "C5",
                    "midi": 72,
                    "time": 47.690848000000024,
                    "velocity": 0.4015748031496063,
                    "duration": 0.20556400000000252
                },
                {
                    "name": "C6",
                    "midi": 84,
                    "time": 47.896412000000026,
                    "velocity": 0.4015748031496063,
                    "duration": 0.20556400000000252
                },
                {
                    "name": "B5",
                    "midi": 83,
                    "time": 48.10197600000003,
                    "velocity": 0.4409448818897638,
                    "duration": 0.20556400000000252
                },
                {
                    "name": "D5",
                    "midi": 74,
                    "time": 48.30754000000003,
                    "velocity": 0.3858267716535433,
                    "duration": 0.20556400000000252
                },
                {
                    "name": "A4",
                    "midi": 69,
                    "time": 48.513104000000034,
                    "velocity": 0.4094488188976378,
                    "duration": 0.20556400000000252
                },
                {
                    "name": "A5",
                    "midi": 81,
                    "time": 48.71866800000004,
                    "velocity": 0.3779527559055118,
                    "duration": 1.0278199999999984
                },
                {
                    "name": "A4",
                    "midi": 69,
                    "time": 49.746488000000035,
                    "velocity": 0.3858267716535433,
                    "duration": 1.233384000000001
                },
                {
                    "name": "A5",
                    "midi": 81,
                    "time": 49.95205200000004,
                    "velocity": 0.3464566929133858,
                    "duration": 1.0278199999999984
                },
                {
                    "name": "G4",
                    "midi": 67,
                    "time": 50.979872000000036,
                    "velocity": 0.41732283464566927,
                    "duration": 0.20556400000000252
                },
                {
                    "name": "G5",
                    "midi": 79,
                    "time": 51.18543600000004,
                    "velocity": 0.4015748031496063,
                    "duration": 0.20556400000000252
                },
                {
                    "name": "F#5",
                    "midi": 78,
                    "time": 51.39100000000004,
                    "velocity": 0.4251968503937008,
                    "duration": 0.20556400000000252
                },
                {
                    "name": "F#4",
                    "midi": 66,
                    "time": 51.59656400000004,
                    "velocity": 0.3937007874015748,
                    "duration": 0.20556400000000252
                },
                {
                    "name": "B4",
                    "midi": 71,
                    "time": 51.802128000000046,
                    "velocity": 0.4015748031496063,
                    "duration": 0.20556400000000252
                },
                {
                    "name": "B5",
                    "midi": 83,
                    "time": 52.00769200000005,
                    "velocity": 0.4251968503937008,
                    "duration": 0.20556400000000252
                },
                {
                    "name": "A5",
                    "midi": 81,
                    "time": 52.21325600000005,
                    "velocity": 0.44881889763779526,
                    "duration": 0.20556400000000252
                },
                {
                    "name": "A4",
                    "midi": 69,
                    "time": 52.41882000000005,
                    "velocity": 0.4094488188976378,
                    "duration": 0.20556400000000252
                },
                {
                    "name": "G4",
                    "midi": 67,
                    "time": 52.624384000000056,
                    "velocity": 0.4094488188976378,
                    "duration": 0.20556400000000252
                },
                {
                    "name": "G5",
                    "midi": 79,
                    "time": 52.82994800000006,
                    "velocity": 0.4330708661417323,
                    "duration": 0.20556400000000252
                },
                {
                    "name": "F#5",
                    "midi": 78,
                    "time": 53.03551200000006,
                    "velocity": 0.4645669291338583,
                    "duration": 0.20556400000000252
                },
                {
                    "name": "F#4",
                    "midi": 66,
                    "time": 53.241076000000064,
                    "velocity": 0.41732283464566927,
                    "duration": 0.20556400000000252
                },
                {
                    "name": "A4",
                    "midi": 69,
                    "time": 53.446640000000066,
                    "velocity": 0.4251968503937008,
                    "duration": 0.20556400000000252
                },
                {
                    "name": "A5",
                    "midi": 81,
                    "time": 53.65220400000007,
                    "velocity": 0.4409448818897638,
                    "duration": 0.20556400000000252
                },
                {
                    "name": "C6",
                    "midi": 84,
                    "time": 53.85776800000007,
                    "velocity": 0.4645669291338583,
                    "duration": 0.20556400000000252
                },
                {
                    "name": "C5",
                    "midi": 72,
                    "time": 54.063332000000074,
                    "velocity": 0.4330708661417323,
                    "duration": 0.20556400000000252
                },
                {
                    "name": "B4",
                    "midi": 71,
                    "time": 54.268896000000076,
                    "velocity": 0.4409448818897638,
                    "duration": 0.20556400000000252
                },
                {
                    "name": "B5",
                    "midi": 83,
                    "time": 54.47446000000008,
                    "velocity": 0.47244094488188976,
                    "duration": 0.20556400000000252
                },
                {
                    "name": "D6",
                    "midi": 86,
                    "time": 54.68002400000008,
                    "velocity": 0.48031496062992124,
                    "duration": 0.20556400000000252
                },
                {
                    "name": "D5",
                    "midi": 74,
                    "time": 54.885588000000084,
                    "velocity": 0.4409448818897638,
                    "duration": 0.20556400000000252
                },
                {
                    "name": "F5",
                    "midi": 77,
                    "time": 55.091152000000086,
                    "velocity": 0.44881889763779526,
                    "duration": 0.20556400000000252
                },
                {
                    "name": "F6",
                    "midi": 89,
                    "time": 55.29671600000009,
                    "velocity": 0.5039370078740157,
                    "duration": 0.20556400000000252
                },
                {
                    "name": "E6",
                    "midi": 88,
                    "time": 55.50228000000009,
                    "velocity": 0.5118110236220472,
                    "duration": 0.20556400000000252
                },
                {
                    "name": "E5",
                    "midi": 76,
                    "time": 55.707844000000094,
                    "velocity": 0.4566929133858268,
                    "duration": 0.20556400000000252
                },
                {
                    "name": "D5",
                    "midi": 74,
                    "time": 55.913408000000096,
                    "velocity": 0.4566929133858268,
                    "duration": 0.20556400000000252
                },
                {
                    "name": "D6",
                    "midi": 86,
                    "time": 56.1189720000001,
                    "velocity": 0.48031496062992124,
                    "duration": 0.20556400000000252
                },
                {
                    "name": "F6",
                    "midi": 89,
                    "time": 56.3245360000001,
                    "velocity": 0.5354330708661418,
                    "duration": 0.20556400000000252
                },
                {
                    "name": "F5",
                    "midi": 77,
                    "time": 56.530100000000104,
                    "velocity": 0.47244094488188976,
                    "duration": 0.20556400000000252
                },
                {
                    "name": "E5",
                    "midi": 76,
                    "time": 56.73566400000011,
                    "velocity": 0.47244094488188976,
                    "duration": 0.20556400000000252
                },
                {
                    "name": "E6",
                    "midi": 88,
                    "time": 56.94122800000011,
                    "velocity": 0.5118110236220472,
                    "duration": 0.20556400000000252
                },
                {
                    "name": "D6",
                    "midi": 86,
                    "time": 57.14679200000011,
                    "velocity": 0.5433070866141733,
                    "duration": 0.20556400000000252
                },
                {
                    "name": "D5",
                    "midi": 74,
                    "time": 57.352356000000114,
                    "velocity": 0.48031496062992124,
                    "duration": 0.20556400000000252
                },
                {
                    "name": "F5",
                    "midi": 77,
                    "time": 57.55792000000012,
                    "velocity": 0.49606299212598426,
                    "duration": 0.20556400000000252
                },
                {
                    "name": "F6",
                    "midi": 89,
                    "time": 57.76348400000012,
                    "velocity": 0.5196850393700787,
                    "duration": 0.20556400000000252
                },
                {
                    "name": "E6",
                    "midi": 88,
                    "time": 57.96904800000012,
                    "velocity": 0.5275590551181102,
                    "duration": 0.20556400000000252
                },
                {
                    "name": "E5",
                    "midi": 76,
                    "time": 58.174612000000124,
                    "velocity": 0.4645669291338583,
                    "duration": 0.20556400000000252
                },
                {
                    "name": "D5",
                    "midi": 74,
                    "time": 58.38017600000013,
                    "velocity": 0.4645669291338583,
                    "duration": 0.20556400000000252
                },
                {
                    "name": "D6",
                    "midi": 86,
                    "time": 58.58574000000013,
                    "velocity": 0.47244094488188976,
                    "duration": 0.20556400000000252
                },
                {
                    "name": "C6",
                    "midi": 84,
                    "time": 58.79130400000013,
                    "velocity": 0.4645669291338583,
                    "duration": 0.20556400000000252
                },
                {
                    "name": "C5",
                    "midi": 72,
                    "time": 58.996868000000134,
                    "velocity": 0.4251968503937008,
                    "duration": 0.20556400000000252
                },
                {
                    "name": "B4",
                    "midi": 71,
                    "time": 59.20243200000014,
                    "velocity": 0.4251968503937008,
                    "duration": 0.20556400000000252
                },
                {
                    "name": "B5",
                    "midi": 83,
                    "time": 59.40799600000014,
                    "velocity": 0.4645669291338583,
                    "duration": 0.20556400000000252
                },
                {
                    "name": "D6",
                    "midi": 86,
                    "time": 59.61356000000014,
                    "velocity": 0.47244094488188976,
                    "duration": 0.20556400000000252
                },
                {
                    "name": "D5",
                    "midi": 74,
                    "time": 59.819124000000144,
                    "velocity": 0.4251968503937008,
                    "duration": 0.20556400000000252
                },
                {
                    "name": "C5",
                    "midi": 72,
                    "time": 60.02468800000015,
                    "velocity": 0.3937007874015748,
                    "duration": 0.20556400000000252
                },
                {
                    "name": "C6",
                    "midi": 84,
                    "time": 60.23025200000015,
                    "velocity": 0.4015748031496063,
                    "duration": 0.20556400000000252
                },
                {
                    "name": "B5",
                    "midi": 83,
                    "time": 60.43581600000015,
                    "velocity": 0.4251968503937008,
                    "duration": 0.20556400000000252
                },
                {
                    "name": "D5",
                    "midi": 74,
                    "time": 60.641380000000154,
                    "velocity": 0.36220472440944884,
                    "duration": 0.20556400000000252
                },
                {
                    "name": "A4",
                    "midi": 69,
                    "time": 60.84694400000016,
                    "velocity": 0.3937007874015748,
                    "duration": 0.20556400000000252
                },
                {
                    "name": "A5",
                    "midi": 81,
                    "time": 61.05250800000016,
                    "velocity": 0.36220472440944884,
                    "duration": 1.0278199999999984
                },
                {
                    "name": "A4",
                    "midi": 69,
                    "time": 62.08032800000016,
                    "velocity": 0.3858267716535433,
                    "duration": 1.233384000000001
                },
                {
                    "name": "A5",
                    "midi": 81,
                    "time": 62.28589200000016,
                    "velocity": 0.33070866141732286,
                    "duration": 1.0278199999999984
                },
                {
                    "name": "G4",
                    "midi": 67,
                    "time": 63.31371200000016,
                    "velocity": 0.3858267716535433,
                    "duration": 0.20556400000000252
                },
                {
                    "name": "G5",
                    "midi": 79,
                    "time": 63.51927600000016,
                    "velocity": 0.44881889763779526,
                    "duration": 0.20556400000000252
                },
                {
                    "name": "F#5",
                    "midi": 78,
                    "time": 63.724840000000164,
                    "velocity": 0.44881889763779526,
                    "duration": 0.20556400000000252
                },
                {
                    "name": "F#4",
                    "midi": 66,
                    "time": 63.930404000000166,
                    "velocity": 0.41732283464566927,
                    "duration": 0.20556399999999542
                },
                {
                    "name": "B4",
                    "midi": 71,
                    "time": 64.13596800000016,
                    "velocity": 0.41732283464566927,
                    "duration": 0.20556399999999542
                },
                {
                    "name": "B5",
                    "midi": 83,
                    "time": 64.34153200000016,
                    "velocity": 0.4566929133858268,
                    "duration": 0.20556399999999542
                },
                {
                    "name": "A5",
                    "midi": 81,
                    "time": 64.54709600000015,
                    "velocity": 0.49606299212598426,
                    "duration": 0.20556399999999542
                },
                {
                    "name": "A4",
                    "midi": 69,
                    "time": 64.75266000000015,
                    "velocity": 0.44881889763779526,
                    "duration": 0.20556399999999542
                },
                {
                    "name": "G4",
                    "midi": 67,
                    "time": 64.95822400000014,
                    "velocity": 0.44881889763779526,
                    "duration": 0.20556399999999542
                },
                {
                    "name": "G5",
                    "midi": 79,
                    "time": 65.16378800000014,
                    "velocity": 0.5275590551181102,
                    "duration": 0.20556399999999542
                },
                {
                    "name": "F#5",
                    "midi": 78,
                    "time": 65.36935200000013,
                    "velocity": 0.5275590551181102,
                    "duration": 0.20556399999999542
                },
                {
                    "name": "F#4",
                    "midi": 66,
                    "time": 65.57491600000013,
                    "velocity": 0.4566929133858268,
                    "duration": 0.20556399999999542
                },
                {
                    "name": "A4",
                    "midi": 69,
                    "time": 65.78048000000013,
                    "velocity": 0.4566929133858268,
                    "duration": 0.20556399999999542
                },
                {
                    "name": "A5",
                    "midi": 81,
                    "time": 65.98604400000012,
                    "velocity": 0.5118110236220472,
                    "duration": 0.20556399999999542
                },
                {
                    "name": "C6",
                    "midi": 84,
                    "time": 66.19160800000012,
                    "velocity": 0.5590551181102362,
                    "duration": 0.20556399999999542
                },
                {
                    "name": "C5",
                    "midi": 72,
                    "time": 66.39717200000011,
                    "velocity": 0.5354330708661418,
                    "duration": 0.20556399999999542
                },
                {
                    "name": "B4",
                    "midi": 71,
                    "time": 66.6027360000001,
                    "velocity": 0.5354330708661418,
                    "duration": 0.20556399999999542
                },
                {
                    "name": "B5",
                    "midi": 83,
                    "time": 66.8083000000001,
                    "velocity": 0.5511811023622047,
                    "duration": 0.20556399999999542
                },
                {
                    "name": "D6",
                    "midi": 86,
                    "time": 67.0138640000001,
                    "velocity": 0.5905511811023622,
                    "duration": 0.20556399999999542
                },
                {
                    "name": "D5",
                    "midi": 74,
                    "time": 67.2194280000001,
                    "velocity": 0.5669291338582677,
                    "duration": 0.20556399999999542
                },
                {
                    "name": "F5",
                    "midi": 77,
                    "time": 67.42499200000009,
                    "velocity": 0.5669291338582677,
                    "duration": 0.20556399999999542
                },
                {
                    "name": "F6",
                    "midi": 89,
                    "time": 67.63055600000008,
                    "velocity": 0.5905511811023622,
                    "duration": 0.20556399999999542
                },
                {
                    "name": "E6",
                    "midi": 88,
                    "time": 67.83612000000008,
                    "velocity": 0.6220472440944882,
                    "duration": 0.20556399999999542
                },
                {
                    "name": "E5",
                    "midi": 76,
                    "time": 68.04168400000007,
                    "velocity": 0.5826771653543307,
                    "duration": 0.20556399999999542
                },
                {
                    "name": "G5",
                    "midi": 79,
                    "time": 68.24724800000007,
                    "velocity": 0.5826771653543307,
                    "duration": 0.20556399999999542
                },
                {
                    "name": "G6",
                    "midi": 91,
                    "time": 68.45281200000007,
                    "velocity": 0.5984251968503937,
                    "duration": 0.20556399999999542
                },
                {
                    "name": "F6",
                    "midi": 89,
                    "time": 68.65837600000006,
                    "velocity": 0.6220472440944882,
                    "duration": 0.20556399999999542
                },
                {
                    "name": "F5",
                    "midi": 77,
                    "time": 68.86394000000006,
                    "velocity": 0.5826771653543307,
                    "duration": 0.20556399999999542
                },
                {
                    "name": "E5",
                    "midi": 76,
                    "time": 69.06950400000005,
                    "velocity": 0.5826771653543307,
                    "duration": 0.20556399999999542
                },
                {
                    "name": "E6",
                    "midi": 88,
                    "time": 69.27506800000005,
                    "velocity": 0.5826771653543307,
                    "duration": 0.20556399999999542
                },
                {
                    "name": "G6",
                    "midi": 91,
                    "time": 69.48063200000004,
                    "velocity": 0.6220472440944882,
                    "duration": 0.20556399999999542
                },
                {
                    "name": "G5",
                    "midi": 79,
                    "time": 69.68619600000004,
                    "velocity": 0.5826771653543307,
                    "duration": 0.20556399999999542
                },
                {
                    "name": "F5",
                    "midi": 77,
                    "time": 69.89176000000003,
                    "velocity": 0.5826771653543307,
                    "duration": 0.20556399999999542
                },
                {
                    "name": "F6",
                    "midi": 89,
                    "time": 70.09732400000003,
                    "velocity": 0.5905511811023622,
                    "duration": 0.20556399999999542
                },
                {
                    "name": "E6",
                    "midi": 88,
                    "time": 70.30288800000002,
                    "velocity": 0.6299212598425197,
                    "duration": 0.20556399999999542
                },
                {
                    "name": "E5",
                    "midi": 76,
                    "time": 70.50845200000002,
                    "velocity": 0.5984251968503937,
                    "duration": 0.20556399999999542
                },
                {
                    "name": "A5",
                    "midi": 81,
                    "time": 70.71401600000002,
                    "velocity": 0.5905511811023622,
                    "duration": 0.20556399999999542
                },
                {
                    "name": "A6",
                    "midi": 93,
                    "time": 70.91958000000001,
                    "velocity": 0.5748031496062992,
                    "duration": 0.20556399999999542
                },
                {
                    "name": "F6",
                    "midi": 89,
                    "time": 71.125144,
                    "velocity": 0.6299212598425197,
                    "duration": 0.20556399999999542
                },
                {
                    "name": "F5",
                    "midi": 77,
                    "time": 71.330708,
                    "velocity": 0.5826771653543307,
                    "duration": 0.20556399999999542
                },
                {
                    "name": "G5",
                    "midi": 79,
                    "time": 71.536272,
                    "velocity": 0.5826771653543307,
                    "duration": 0.20556399999999542
                },
                {
                    "name": "G6",
                    "midi": 91,
                    "time": 71.74183599999999,
                    "velocity": 0.5669291338582677,
                    "duration": 0.20556399999999542
                },
                {
                    "name": "E6",
                    "midi": 88,
                    "time": 71.94739999999999,
                    "velocity": 0.6141732283464567,
                    "duration": 0.20556399999999542
                },
                {
                    "name": "E5",
                    "midi": 76,
                    "time": 72.15296399999998,
                    "velocity": 0.5433070866141733,
                    "duration": 0.20556399999999542
                },
                {
                    "name": "F5",
                    "midi": 77,
                    "time": 72.35852799999998,
                    "velocity": 0.5433070866141733,
                    "duration": 0.20556399999999542
                },
                {
                    "name": "F6",
                    "midi": 89,
                    "time": 72.56409199999997,
                    "velocity": 0.5669291338582677,
                    "duration": 0.20556399999999542
                },
                {
                    "name": "D6",
                    "midi": 86,
                    "time": 72.76965599999997,
                    "velocity": 0.5590551181102362,
                    "duration": 0.20556399999999542
                },
                {
                    "name": "D5",
                    "midi": 74,
                    "time": 72.97521999999996,
                    "velocity": 0.5196850393700787,
                    "duration": 0.20556399999999542
                },
                {
                    "name": "E5",
                    "midi": 76,
                    "time": 73.18078399999996,
                    "velocity": 0.5039370078740157,
                    "duration": 0.20556399999999542
                },
                {
                    "name": "E6",
                    "midi": 88,
                    "time": 73.38634799999996,
                    "velocity": 0.47244094488188976,
                    "duration": 0.20556399999999542
                },
                {
                    "name": "C#6",
                    "midi": 85,
                    "time": 73.59191199999995,
                    "velocity": 0.4566929133858268,
                    "duration": 0.20556399999999542
                },
                {
                    "name": "C#5",
                    "midi": 73,
                    "time": 73.79747599999995,
                    "velocity": 0.4409448818897638,
                    "duration": 0.20556399999999542
                },
                {
                    "name": "E5",
                    "midi": 76,
                    "time": 74.00303999999994,
                    "velocity": 0.4330708661417323,
                    "duration": 0.20556399999999542
                },
                {
                    "name": "E6",
                    "midi": 88,
                    "time": 74.20860399999994,
                    "velocity": 0.44881889763779526,
                    "duration": 0.20556399999999542
                },
                {
                    "name": "D6",
                    "midi": 86,
                    "time": 74.41416799999993,
                    "velocity": 0.47244094488188976,
                    "duration": 0.20556399999999542
                },
                {
                    "name": "D5",
                    "midi": 74,
                    "time": 74.61973199999993,
                    "velocity": 0.4094488188976378,
                    "duration": 0.20556399999999542
                },
                {
                    "name": "C5",
                    "midi": 72,
                    "time": 74.82529599999992,
                    "velocity": 0.4015748031496063,
                    "duration": 0.20556399999999542
                },
                {
                    "name": "C6",
                    "midi": 84,
                    "time": 75.03085999999992,
                    "velocity": 0.4409448818897638,
                    "duration": 0.20556399999999542
                },
                {
                    "name": "B5",
                    "midi": 83,
                    "time": 75.23642399999991,
                    "velocity": 0.4330708661417323,
                    "duration": 0.20556399999999542
                },
                {
                    "name": "B4",
                    "midi": 71,
                    "time": 75.44198799999991,
                    "velocity": 0.3779527559055118,
                    "duration": 0.20556399999999542
                },
                {
                    "name": "D5",
                    "midi": 74,
                    "time": 75.6475519999999,
                    "velocity": 0.3858267716535433,
                    "duration": 0.20556399999999542
                },
                {
                    "name": "D6",
                    "midi": 86,
                    "time": 75.8531159999999,
                    "velocity": 0.41732283464566927,
                    "duration": 0.20556399999999542
                },
                {
                    "name": "C6",
                    "midi": 84,
                    "time": 76.0586799999999,
                    "velocity": 0.41732283464566927,
                    "duration": 0.20556399999999542
                },
                {
                    "name": "C5",
                    "midi": 72,
                    "time": 76.26424399999989,
                    "velocity": 0.3779527559055118,
                    "duration": 0.20556399999999542
                },
                {
                    "name": "B4",
                    "midi": 71,
                    "time": 76.46980799999989,
                    "velocity": 0.3779527559055118,
                    "duration": 0.20556399999999542
                },
                {
                    "name": "B5",
                    "midi": 83,
                    "time": 76.67537199999988,
                    "velocity": 0.3779527559055118,
                    "duration": 0.20556399999999542
                },
                {
                    "name": "D6",
                    "midi": 86,
                    "time": 76.88093599999988,
                    "velocity": 0.3779527559055118,
                    "duration": 0.8222559999999959
                },
                {
                    "name": "D5",
                    "midi": 74,
                    "time": 77.08649999999987,
                    "velocity": 0.3779527559055118,
                    "duration": 0.6166920000000005
                },
                {
                    "name": "C5",
                    "midi": 72,
                    "time": 77.70319199999987,
                    "velocity": 0.33070866141732286,
                    "duration": 0.20556399999999542
                },
                {
                    "name": "C6",
                    "midi": 84,
                    "time": 77.90875599999987,
                    "velocity": 0.31496062992125984,
                    "duration": 0.6166920000000005
                },
                {
                    "name": "B5",
                    "midi": 83,
                    "time": 78.52544799999987,
                    "velocity": 0.33858267716535434,
                    "duration": 0.8222559999999959
                },
                {
                    "name": "B4",
                    "midi": 71,
                    "time": 78.73101199999986,
                    "velocity": 0.29133858267716534,
                    "duration": 0.6166920000000005
                },
                {
                    "name": "A4",
                    "midi": 69,
                    "time": 79.34770399999987,
                    "velocity": 0.2992125984251969,
                    "duration": 2.055639999999997
                },
                {
                    "name": "A5",
                    "midi": 81,
                    "time": 79.55326799999986,
                    "velocity": 0.2755905511811024,
                    "duration": 1.8500760000000014
                },
                {
                    "name": "A4",
                    "midi": 69,
                    "time": 81.40334399999986,
                    "velocity": 0.2755905511811024,
                    "duration": 2.466768000000002
                },
                {
                    "name": "A5",
                    "midi": 81,
                    "time": 81.60890799999986,
                    "velocity": 0.25984251968503935,
                    "duration": 2.2612040000000064
                },
                {
                    "name": "A3",
                    "midi": 57,
                    "time": 83.87011199999986,
                    "velocity": 0.4251968503937008,
                    "duration": 2.466768000000002
                },
                {
                    "name": "C#4",
                    "midi": 61,
                    "time": 83.87011199999986,
                    "velocity": 0.4251968503937008,
                    "duration": 0.8222560000000101
                },
                {
                    "name": "A4",
                    "midi": 69,
                    "time": 83.87011199999986,
                    "velocity": 0.47244094488188976,
                    "duration": 0.8222560000000101
                },
                {
                    "name": "D4",
                    "midi": 62,
                    "time": 84.5553253333332,
                    "velocity": 0.29133858267716534,
                    "duration": 1.7815546666666648
                },
                {
                    "name": "G#4",
                    "midi": 68,
                    "time": 84.69236799999987,
                    "velocity": 0.4330708661417323,
                    "duration": 0.20556399999999542
                },
                {
                    "name": "F#4",
                    "midi": 66,
                    "time": 84.89793199999987,
                    "velocity": 0.4094488188976378,
                    "duration": 1.4389479999999963
                },
                {
                    "name": "A3",
                    "midi": 57,
                    "time": 86.33687999999987,
                    "velocity": 0.4094488188976378,
                    "duration": 0.8222560000000101
                },
                {
                    "name": "C#4",
                    "midi": 61,
                    "time": 86.33687999999987,
                    "velocity": 0.4094488188976378,
                    "duration": 0.8222560000000101
                },
                {
                    "name": "A4",
                    "midi": 69,
                    "time": 86.33687999999987,
                    "velocity": 0.4566929133858268,
                    "duration": 0.8222560000000101
                },
                {
                    "name": "B3",
                    "midi": 59,
                    "time": 87.0220933333332,
                    "velocity": 0.23622047244094488,
                    "duration": 1.7815546666666648
                },
                {
                    "name": "E4",
                    "midi": 64,
                    "time": 87.15913599999988,
                    "velocity": 0.41732283464566927,
                    "duration": 0.20556399999999542
                },
                {
                    "name": "D4",
                    "midi": 62,
                    "time": 87.36469999999987,
                    "velocity": 0.3779527559055118,
                    "duration": 1.4389479999999963
                },
                {
                    "name": "A3",
                    "midi": 57,
                    "time": 88.80364799999987,
                    "velocity": 0.3700787401574803,
                    "duration": 2.4667679999999876
                },
                {
                    "name": "F#4",
                    "midi": 66,
                    "time": 88.80364799999987,
                    "velocity": 0.4094488188976378,
                    "duration": 0.8222559999999959
                },
                {
                    "name": "C#4",
                    "midi": 61,
                    "time": 89.62590399999986,
                    "velocity": 0.3937007874015748,
                    "duration": 0.8222559999999959
                },
                {
                    "name": "F#4",
                    "midi": 66,
                    "time": 90.44815999999986,
                    "velocity": 0.3464566929133858,
                    "duration": 0.8222559999999959
                },
                {
                    "name": "G#3",
                    "midi": 56,
                    "time": 91.27041599999986,
                    "velocity": 0.2755905511811024,
                    "duration": 2.466768000000002
                },
                {
                    "name": "E4",
                    "midi": 64,
                    "time": 91.27041599999986,
                    "velocity": 0.30708661417322836,
                    "duration": 0.8222559999999959
                },
                {
                    "name": "B3",
                    "midi": 59,
                    "time": 92.09267199999985,
                    "velocity": 0.2992125984251969,
                    "duration": 1.644512000000006
                },
                {
                    "name": "A4",
                    "midi": 69,
                    "time": 93.73718399999986,
                    "velocity": 0.2755905511811024,
                    "duration": 0.8222559999999959
                },
                {
                    "name": "A5",
                    "midi": 81,
                    "time": 93.73718399999986,
                    "velocity": 0.3779527559055118,
                    "duration": 0.41112800000000504
                },
                {
                    "name": "C#5",
                    "midi": 73,
                    "time": 93.73718399999986,
                    "velocity": 0.2755905511811024,
                    "duration": 0.8222559999999959
                },
                {
                    "name": "A5",
                    "midi": 81,
                    "time": 94.14831199999986,
                    "velocity": 0.3779527559055118,
                    "duration": 0.41112799999999083
                },
                {
                    "name": "G#5",
                    "midi": 80,
                    "time": 94.35387599999986,
                    "velocity": 0.33858267716535434,
                    "duration": 0.20556399999999542
                },
                {
                    "name": "F#5",
                    "midi": 78,
                    "time": 94.55943999999985,
                    "velocity": 0.29133858267716534,
                    "duration": 1.644512000000006
                },
                {
                    "name": "D5",
                    "midi": 74,
                    "time": 94.55943999999985,
                    "velocity": 0.1968503937007874,
                    "duration": 1.644512000000006
                },
                {
                    "name": "A4",
                    "midi": 69,
                    "time": 94.55943999999985,
                    "velocity": 0.1968503937007874,
                    "duration": 1.644512000000006
                },
                {
                    "name": "C#5",
                    "midi": 73,
                    "time": 96.20395199999986,
                    "velocity": 0.25196850393700787,
                    "duration": 0.8222559999999959
                },
                {
                    "name": "A4",
                    "midi": 69,
                    "time": 96.20395199999986,
                    "velocity": 0.25196850393700787,
                    "duration": 0.8222559999999959
                },
                {
                    "name": "A5",
                    "midi": 81,
                    "time": 96.20395199999986,
                    "velocity": 0.3464566929133858,
                    "duration": 0.41112800000000504
                },
                {
                    "name": "A5",
                    "midi": 81,
                    "time": 96.61507999999986,
                    "velocity": 0.3464566929133858,
                    "duration": 0.41112799999999083
                },
                {
                    "name": "E5",
                    "midi": 76,
                    "time": 96.82064399999986,
                    "velocity": 0.31496062992125984,
                    "duration": 0.20556399999999542
                },
                {
                    "name": "B4",
                    "midi": 71,
                    "time": 97.02620799999985,
                    "velocity": 0.1968503937007874,
                    "duration": 1.644512000000006
                },
                {
                    "name": "D5",
                    "midi": 74,
                    "time": 97.02620799999985,
                    "velocity": 0.2755905511811024,
                    "duration": 1.644512000000006
                },
                {
                    "name": "A4",
                    "midi": 69,
                    "time": 98.67071999999986,
                    "velocity": 0.33070866141732286,
                    "duration": 2.466768000000002
                },
                {
                    "name": "F#5",
                    "midi": 78,
                    "time": 98.67071999999986,
                    "velocity": 0.3700787401574803,
                    "duration": 0.41112800000000504
                },
                {
                    "name": "F#5",
                    "midi": 78,
                    "time": 99.08184799999987,
                    "velocity": 0.3700787401574803,
                    "duration": 0.41112800000000504
                },
                {
                    "name": "C#5",
                    "midi": 73,
                    "time": 99.49297599999987,
                    "velocity": 0.30708661417322836,
                    "duration": 0.8222559999999959
                },
                {
                    "name": "F#5",
                    "midi": 78,
                    "time": 100.31523199999987,
                    "velocity": 0.30708661417322836,
                    "duration": 0.8222559999999959
                },
                {
                    "name": "G#4",
                    "midi": 68,
                    "time": 101.13748799999986,
                    "velocity": 0.25984251968503935,
                    "duration": 2.466768000000002
                },
                {
                    "name": "E5",
                    "midi": 76,
                    "time": 101.13748799999986,
                    "velocity": 0.29133858267716534,
                    "duration": 0.8222559999999959
                },
                {
                    "name": "B4",
                    "midi": 71,
                    "time": 101.95974399999986,
                    "velocity": 0.25196850393700787,
                    "duration": 1.644512000000006
                },
                {
                    "name": "A3",
                    "midi": 57,
                    "time": 104.01538399999987,
                    "velocity": 0.36220472440944884,
                    "duration": 2.0556400000000252
                },
                {
                    "name": "F#4",
                    "midi": 66,
                    "time": 104.01538399999987,
                    "velocity": 0.3858267716535433,
                    "duration": 0.41112800000000504
                },
                {
                    "name": "C#4",
                    "midi": 61,
                    "time": 104.42651199999987,
                    "velocity": 0.4645669291338583,
                    "duration": 0.41112800000000504
                },
                {
                    "name": "G#4",
                    "midi": 68,
                    "time": 104.83763999999988,
                    "velocity": 0.4015748031496063,
                    "duration": 0.41112800000000504
                },
                {
                    "name": "C#4",
                    "midi": 61,
                    "time": 105.24876799999988,
                    "velocity": 0.3937007874015748,
                    "duration": 0.41112800000000504
                },
                {
                    "name": "F#4",
                    "midi": 66,
                    "time": 105.65989599999989,
                    "velocity": 0.36220472440944884,
                    "duration": 0.41112800000000504
                },
                {
                    "name": "G#3",
                    "midi": 56,
                    "time": 106.4821519999999,
                    "velocity": 0.41732283464566927,
                    "duration": 0.30834600000000023
                },
                {
                    "name": "E4",
                    "midi": 64,
                    "time": 106.4821519999999,
                    "velocity": 0.5039370078740157,
                    "duration": 0.30834600000000023
                },
                {
                    "name": "G#4",
                    "midi": 68,
                    "time": 107.3044079999999,
                    "velocity": 0.4566929133858268,
                    "duration": 0.30834600000000023
                },
                {
                    "name": "E5",
                    "midi": 76,
                    "time": 107.3044079999999,
                    "velocity": 0.5433070866141733,
                    "duration": 0.30834600000000023
                },
                {
                    "name": "E6",
                    "midi": 88,
                    "time": 108.12666399999989,
                    "velocity": 0.6141732283464567,
                    "duration": 0.41112800000000504
                },
                {
                    "name": "E5",
                    "midi": 76,
                    "time": 108.12666399999989,
                    "velocity": 0.5196850393700787,
                    "duration": 0.41112800000000504
                },
                {
                    "name": "G#5",
                    "midi": 80,
                    "time": 108.12666399999989,
                    "velocity": 0.5196850393700787,
                    "duration": 0.41112800000000504
                },
                {
                    "name": "F5",
                    "midi": 77,
                    "time": 108.5377919999999,
                    "velocity": 0.5354330708661418,
                    "duration": 0.41112800000000504
                },
                {
                    "name": "B5",
                    "midi": 83,
                    "time": 108.5377919999999,
                    "velocity": 0.6299212598425197,
                    "duration": 0.41112800000000504
                },
                {
                    "name": "D6",
                    "midi": 86,
                    "time": 108.9489199999999,
                    "velocity": 0.5748031496062992,
                    "duration": 0.41112800000000504
                },
                {
                    "name": "D5",
                    "midi": 74,
                    "time": 108.9489199999999,
                    "velocity": 0.48031496062992124,
                    "duration": 0.41112800000000504
                },
                {
                    "name": "F5",
                    "midi": 77,
                    "time": 109.3600479999999,
                    "velocity": 0.47244094488188976,
                    "duration": 0.41112800000000504
                },
                {
                    "name": "A5",
                    "midi": 81,
                    "time": 109.3600479999999,
                    "velocity": 0.5669291338582677,
                    "duration": 0.41112800000000504
                },
                {
                    "name": "C6",
                    "midi": 84,
                    "time": 109.77117599999991,
                    "velocity": 0.5511811023622047,
                    "duration": 0.41112800000000504
                },
                {
                    "name": "C5",
                    "midi": 72,
                    "time": 109.77117599999991,
                    "velocity": 0.4566929133858268,
                    "duration": 0.41112800000000504
                },
                {
                    "name": "G5",
                    "midi": 79,
                    "time": 110.18230399999992,
                    "velocity": 0.6062992125984252,
                    "duration": 0.41112800000000504
                },
                {
                    "name": "D5",
                    "midi": 74,
                    "time": 110.18230399999992,
                    "velocity": 0.5118110236220472,
                    "duration": 0.41112800000000504
                },
                {
                    "name": "B5",
                    "midi": 83,
                    "time": 110.59343199999992,
                    "velocity": 0.5118110236220472,
                    "duration": 0.41112800000000504
                },
                {
                    "name": "B4",
                    "midi": 71,
                    "time": 110.59343199999992,
                    "velocity": 0.4251968503937008,
                    "duration": 0.41112800000000504
                },
                {
                    "name": "F5",
                    "midi": 77,
                    "time": 111.00455999999993,
                    "velocity": 0.5984251968503937,
                    "duration": 0.41112800000000504
                },
                {
                    "name": "C5",
                    "midi": 72,
                    "time": 111.00455999999993,
                    "velocity": 0.5118110236220472,
                    "duration": 0.8222560000000101
                },
                {
                    "name": "A5",
                    "midi": 81,
                    "time": 111.41568799999993,
                    "velocity": 0.49606299212598426,
                    "duration": 0.41112800000000504
                },
                {
                    "name": "D5",
                    "midi": 74,
                    "time": 111.82681599999994,
                    "velocity": 0.4645669291338583,
                    "duration": 0.41112800000000504
                },
                {
                    "name": "G5",
                    "midi": 79,
                    "time": 111.82681599999994,
                    "velocity": 0.5275590551181102,
                    "duration": 0.41112800000000504
                },
                {
                    "name": "F5",
                    "midi": 77,
                    "time": 112.23794399999994,
                    "velocity": 0.48031496062992124,
                    "duration": 0.41112800000000504
                },
                {
                    "name": "C5",
                    "midi": 72,
                    "time": 112.23794399999994,
                    "velocity": 0.4251968503937008,
                    "duration": 0.41112800000000504
                },
                {
                    "name": "E5",
                    "midi": 76,
                    "time": 112.64907199999995,
                    "velocity": 0.4645669291338583,
                    "duration": 0.41112800000000504
                },
                {
                    "name": "B4",
                    "midi": 71,
                    "time": 112.64907199999995,
                    "velocity": 0.41732283464566927,
                    "duration": 0.41112800000000504
                },
                {
                    "name": "D#5",
                    "midi": 75,
                    "time": 113.06019999999995,
                    "velocity": 0.4330708661417323,
                    "duration": 0.41112800000000504
                },
                {
                    "name": "A4",
                    "midi": 69,
                    "time": 113.06019999999995,
                    "velocity": 0.3937007874015748,
                    "duration": 0.41112800000000504
                },
                {
                    "name": "G#4",
                    "midi": 68,
                    "time": 113.47132799999996,
                    "velocity": 0.3700787401574803,
                    "duration": 0.41112800000000504
                },
                {
                    "name": "E5",
                    "midi": 76,
                    "time": 113.47132799999996,
                    "velocity": 0.4094488188976378,
                    "duration": 0.41112800000000504
                },
                {
                    "name": "G5",
                    "midi": 79,
                    "time": 113.88245599999996,
                    "velocity": 0.44881889763779526,
                    "duration": 0.41112800000000504
                },
                {
                    "name": "C#5",
                    "midi": 73,
                    "time": 113.88245599999996,
                    "velocity": 0.44881889763779526,
                    "duration": 0.41112800000000504
                },
                {
                    "name": "C5",
                    "midi": 72,
                    "time": 114.29358399999997,
                    "velocity": 0.3937007874015748,
                    "duration": 0.41112800000000504
                },
                {
                    "name": "F#5",
                    "midi": 78,
                    "time": 114.29358399999997,
                    "velocity": 0.4330708661417323,
                    "duration": 0.41112800000000504
                },
                {
                    "name": "B4",
                    "midi": 71,
                    "time": 114.70471199999997,
                    "velocity": 0.3700787401574803,
                    "duration": 0.41112800000000504
                },
                {
                    "name": "F5",
                    "midi": 77,
                    "time": 114.70471199999997,
                    "velocity": 0.4094488188976378,
                    "duration": 0.41112800000000504
                },
                {
                    "name": "A#4",
                    "midi": 70,
                    "time": 115.11583999999998,
                    "velocity": 0.3464566929133858,
                    "duration": 0.41112800000000504
                },
                {
                    "name": "E5",
                    "midi": 76,
                    "time": 115.11583999999998,
                    "velocity": 0.3858267716535433,
                    "duration": 0.41112800000000504
                },
                {
                    "name": "A4",
                    "midi": 69,
                    "time": 115.52696799999998,
                    "velocity": 0.36220472440944884,
                    "duration": 0.41112800000000504
                },
                {
                    "name": "D#5",
                    "midi": 75,
                    "time": 115.52696799999998,
                    "velocity": 0.36220472440944884,
                    "duration": 0.41112800000000504
                },
                {
                    "name": "D5",
                    "midi": 74,
                    "time": 115.93809599999999,
                    "velocity": 0.3464566929133858,
                    "duration": 0.41112800000000504
                },
                {
                    "name": "G#4",
                    "midi": 68,
                    "time": 115.93809599999999,
                    "velocity": 0.2992125984251969,
                    "duration": 0.41112800000000504
                },
                {
                    "name": "C#5",
                    "midi": 73,
                    "time": 116.34922399999999,
                    "velocity": 0.33070866141732286,
                    "duration": 0.41112800000000504
                },
                {
                    "name": "G4",
                    "midi": 67,
                    "time": 116.34922399999999,
                    "velocity": 0.29133858267716534,
                    "duration": 0.41112800000000504
                },
                {
                    "name": "D5",
                    "midi": 74,
                    "time": 116.760352,
                    "velocity": 0.3464566929133858,
                    "duration": 0.41112800000000504
                },
                {
                    "name": "F#4",
                    "midi": 66,
                    "time": 116.760352,
                    "velocity": 0.2992125984251969,
                    "duration": 0.41112800000000504
                },
                {
                    "name": "F4",
                    "midi": 65,
                    "time": 117.17148,
                    "velocity": 0.29133858267716534,
                    "duration": 0.41112800000000504
                },
                {
                    "name": "B4",
                    "midi": 71,
                    "time": 117.17148,
                    "velocity": 0.33070866141732286,
                    "duration": 0.41112800000000504
                },
                {
                    "name": "C5",
                    "midi": 72,
                    "time": 117.58260800000001,
                    "velocity": 0.3464566929133858,
                    "duration": 0.41112800000000504
                },
                {
                    "name": "E4",
                    "midi": 64,
                    "time": 117.58260800000001,
                    "velocity": 0.2992125984251969,
                    "duration": 0.41112800000000504
                },
                {
                    "name": "G4",
                    "midi": 67,
                    "time": 117.99373600000001,
                    "velocity": 0.3464566929133858,
                    "duration": 0.41112800000000504
                },
                {
                    "name": "C#5",
                    "midi": 73,
                    "time": 117.99373600000001,
                    "velocity": 0.3858267716535433,
                    "duration": 0.41112800000000504
                },
                {
                    "name": "F#4",
                    "midi": 66,
                    "time": 118.40486400000002,
                    "velocity": 0.3700787401574803,
                    "duration": 0.41112800000000504
                },
                {
                    "name": "D5",
                    "midi": 74,
                    "time": 118.40486400000002,
                    "velocity": 0.4094488188976378,
                    "duration": 0.41112800000000504
                },
                {
                    "name": "F4",
                    "midi": 65,
                    "time": 118.81599200000002,
                    "velocity": 0.31496062992125984,
                    "duration": 0.41112800000000504
                },
                {
                    "name": "B4",
                    "midi": 71,
                    "time": 118.81599200000002,
                    "velocity": 0.36220472440944884,
                    "duration": 0.41112800000000504
                },
                {
                    "name": "E4",
                    "midi": 64,
                    "time": 119.22712000000003,
                    "velocity": 0.28346456692913385,
                    "duration": 0.41112800000000504
                },
                {
                    "name": "C5",
                    "midi": 72,
                    "time": 119.22712000000003,
                    "velocity": 0.31496062992125984,
                    "duration": 0.41112800000000504
                },
                {
                    "name": "C#5",
                    "midi": 73,
                    "time": 119.63824800000003,
                    "velocity": 0.2677165354330709,
                    "duration": 0.41112800000000504
                },
                {
                    "name": "G4",
                    "midi": 67,
                    "time": 119.63824800000003,
                    "velocity": 0.23622047244094488,
                    "duration": 0.41112800000000504
                },
                {
                    "name": "D5",
                    "midi": 74,
                    "time": 120.04937600000004,
                    "velocity": 0.2677165354330709,
                    "duration": 0.41112800000000504
                },
                {
                    "name": "F#4",
                    "midi": 66,
                    "time": 120.04937600000004,
                    "velocity": 0.23622047244094488,
                    "duration": 0.41112800000000504
                },
                {
                    "name": "B4",
                    "midi": 71,
                    "time": 120.46050400000004,
                    "velocity": 0.2440944881889764,
                    "duration": 0.41112800000000504
                },
                {
                    "name": "F4",
                    "midi": 65,
                    "time": 120.46050400000004,
                    "velocity": 0.2204724409448819,
                    "duration": 0.41112800000000504
                },
                {
                    "name": "C5",
                    "midi": 72,
                    "time": 120.87163200000005,
                    "velocity": 0.3543307086614173,
                    "duration": 0.41112800000000504
                },
                {
                    "name": "E4",
                    "midi": 64,
                    "time": 120.87163200000005,
                    "velocity": 0.30708661417322836,
                    "duration": 0.41112800000000504
                },
                {
                    "name": "A4",
                    "midi": 69,
                    "time": 120.87163200000005,
                    "velocity": 0.3543307086614173,
                    "duration": 0.41112800000000504
                },
                {
                    "name": "C5",
                    "midi": 72,
                    "time": 121.28276000000005,
                    "velocity": 0.3779527559055118,
                    "duration": 0.41112800000000504
                },
                {
                    "name": "A4",
                    "midi": 69,
                    "time": 121.28276000000005,
                    "velocity": 0.33858267716535434,
                    "duration": 0.41112800000000504
                },
                {
                    "name": "D5",
                    "midi": 74,
                    "time": 121.69388800000006,
                    "velocity": 0.25984251968503935,
                    "duration": 1.644512000000006
                },
                {
                    "name": "F4",
                    "midi": 65,
                    "time": 121.69388800000006,
                    "velocity": 0.2283464566929134,
                    "duration": 1.644512000000006
                },
                {
                    "name": "A4",
                    "midi": 69,
                    "time": 121.69388800000006,
                    "velocity": 0.2283464566929134,
                    "duration": 1.644512000000006
                },
                {
                    "name": "C5",
                    "midi": 72,
                    "time": 123.33840000000006,
                    "velocity": 0.36220472440944884,
                    "duration": 0.41112800000000504
                },
                {
                    "name": "A4",
                    "midi": 69,
                    "time": 123.33840000000006,
                    "velocity": 0.31496062992125984,
                    "duration": 0.41112800000000504
                },
                {
                    "name": "C5",
                    "midi": 72,
                    "time": 123.74952800000007,
                    "velocity": 0.3700787401574803,
                    "duration": 0.41112800000000504
                },
                {
                    "name": "A4",
                    "midi": 69,
                    "time": 123.74952800000007,
                    "velocity": 0.33070866141732286,
                    "duration": 0.41112800000000504
                },
                {
                    "name": "G#4",
                    "midi": 68,
                    "time": 124.16065600000007,
                    "velocity": 0.2283464566929134,
                    "duration": 1.644512000000006
                },
                {
                    "name": "D4",
                    "midi": 62,
                    "time": 124.16065600000007,
                    "velocity": 0.25984251968503935,
                    "duration": 1.644512000000006
                },
                {
                    "name": "B4",
                    "midi": 71,
                    "time": 124.16065600000007,
                    "velocity": 0.25984251968503935,
                    "duration": 1.644512000000006
                },
                {
                    "name": "F#4",
                    "midi": 66,
                    "time": 125.80516800000008,
                    "velocity": 0.30708661417322836,
                    "duration": 0.41112800000000504
                },
                {
                    "name": "A4",
                    "midi": 69,
                    "time": 125.80516800000008,
                    "velocity": 0.3543307086614173,
                    "duration": 0.41112800000000504
                },
                {
                    "name": "F#4",
                    "midi": 66,
                    "time": 126.21629600000009,
                    "velocity": 0.29133858267716534,
                    "duration": 0.41112800000000504
                },
                {
                    "name": "A4",
                    "midi": 69,
                    "time": 126.21629600000009,
                    "velocity": 0.33858267716535434,
                    "duration": 0.41112800000000504
                },
                {
                    "name": "C4",
                    "midi": 60,
                    "time": 126.62742400000009,
                    "velocity": 0.29133858267716534,
                    "duration": 0.8222559999999959
                },
                {
                    "name": "C5",
                    "midi": 72,
                    "time": 126.62742400000009,
                    "velocity": 0.33070866141732286,
                    "duration": 0.8222559999999959
                },
                {
                    "name": "A4",
                    "midi": 69,
                    "time": 127.44968000000009,
                    "velocity": 0.29133858267716534,
                    "duration": 0.8222560000000101
                },
                {
                    "name": "F#4",
                    "midi": 66,
                    "time": 127.44968000000009,
                    "velocity": 0.25984251968503935,
                    "duration": 0.8222560000000101
                },
                {
                    "name": "G#4",
                    "midi": 68,
                    "time": 128.2719360000001,
                    "velocity": 0.2755905511811024,
                    "duration": 0.8222560000000101
                },
                {
                    "name": "E4",
                    "midi": 64,
                    "time": 128.2719360000001,
                    "velocity": 0.2440944881889764,
                    "duration": 0.8222560000000101
                },
                {
                    "name": "G#4",
                    "midi": 68,
                    "time": 129.0941920000001,
                    "velocity": 0.2047244094488189,
                    "duration": 1.6445119999999918
                },
                {
                    "name": "B3",
                    "midi": 59,
                    "time": 129.0941920000001,
                    "velocity": 0.2047244094488189,
                    "duration": 1.6445119999999918
                },
                {
                    "name": "B4",
                    "midi": 71,
                    "time": 129.0941920000001,
                    "velocity": 0.2283464566929134,
                    "duration": 1.6445119999999918
                },
                {
                    "name": "A4",
                    "midi": 69,
                    "time": 130.7387040000001,
                    "velocity": 0.3464566929133858,
                    "duration": 0.41112799999999083
                },
                {
                    "name": "C5",
                    "midi": 72,
                    "time": 130.7387040000001,
                    "velocity": 0.3858267716535433,
                    "duration": 0.41112799999999083
                },
                {
                    "name": "C5",
                    "midi": 72,
                    "time": 131.1498320000001,
                    "velocity": 0.4094488188976378,
                    "duration": 0.41112799999999083
                },
                {
                    "name": "A4",
                    "midi": 69,
                    "time": 131.1498320000001,
                    "velocity": 0.3700787401574803,
                    "duration": 0.41112799999999083
                },
                {
                    "name": "C#5",
                    "midi": 73,
                    "time": 131.56096000000008,
                    "velocity": 0.33070866141732286,
                    "duration": 1.6445119999999918
                },
                {
                    "name": "E4",
                    "midi": 64,
                    "time": 131.56096000000008,
                    "velocity": 0.33070866141732286,
                    "duration": 1.6445119999999918
                },
                {
                    "name": "E5",
                    "midi": 76,
                    "time": 131.56096000000008,
                    "velocity": 0.3700787401574803,
                    "duration": 1.6445119999999918
                },
                {
                    "name": "D5",
                    "midi": 74,
                    "time": 133.20547200000007,
                    "velocity": 0.3937007874015748,
                    "duration": 0.41112799999999083
                },
                {
                    "name": "F5",
                    "midi": 77,
                    "time": 133.20547200000007,
                    "velocity": 0.4409448818897638,
                    "duration": 0.41112799999999083
                },
                {
                    "name": "D5",
                    "midi": 74,
                    "time": 133.61660000000006,
                    "velocity": 0.4251968503937008,
                    "duration": 0.41112799999999083
                },
                {
                    "name": "F5",
                    "midi": 77,
                    "time": 133.61660000000006,
                    "velocity": 0.47244094488188976,
                    "duration": 0.41112799999999083
                },
                {
                    "name": "F#5",
                    "midi": 78,
                    "time": 134.02772800000005,
                    "velocity": 0.41732283464566927,
                    "duration": 1.6445119999999918
                },
                {
                    "name": "A4",
                    "midi": 69,
                    "time": 134.02772800000005,
                    "velocity": 0.41732283464566927,
                    "duration": 1.6445119999999918
                },
                {
                    "name": "A5",
                    "midi": 81,
                    "time": 134.02772800000005,
                    "velocity": 0.4645669291338583,
                    "duration": 1.6445119999999918
                },
                {
                    "name": "G5",
                    "midi": 79,
                    "time": 135.67224000000004,
                    "velocity": 0.48031496062992124,
                    "duration": 0.41112799999999083
                },
                {
                    "name": "C5",
                    "midi": 72,
                    "time": 135.67224000000004,
                    "velocity": 0.4330708661417323,
                    "duration": 1.6445119999999918
                },
                {
                    "name": "G4",
                    "midi": 67,
                    "time": 135.67224000000004,
                    "velocity": 0.4330708661417323,
                    "duration": 0.41112799999999083
                },
                {
                    "name": "G4",
                    "midi": 67,
                    "time": 136.08336800000004,
                    "velocity": 0.4330708661417323,
                    "duration": 0.41112799999999083
                },
                {
                    "name": "G5",
                    "midi": 79,
                    "time": 136.08336800000004,
                    "velocity": 0.48031496062992124,
                    "duration": 0.41112799999999083
                },
                {
                    "name": "E5",
                    "midi": 76,
                    "time": 136.49449600000003,
                    "velocity": 0.48031496062992124,
                    "duration": 0.8222560000000101
                },
                {
                    "name": "G#4",
                    "midi": 68,
                    "time": 136.49449600000003,
                    "velocity": 0.4330708661417323,
                    "duration": 0.8222560000000101
                },
                {
                    "name": "A4",
                    "midi": 69,
                    "time": 137.31675200000004,
                    "velocity": 0.3700787401574803,
                    "duration": 0.8222560000000101
                },
                {
                    "name": "C5",
                    "midi": 72,
                    "time": 137.31675200000004,
                    "velocity": 0.41732283464566927,
                    "duration": 0.8222560000000101
                },
                {
                    "name": "E4",
                    "midi": 64,
                    "time": 138.13900800000005,
                    "velocity": 0.3464566929133858,
                    "duration": 2.466768000000002
                },
                {
                    "name": "G#4",
                    "midi": 68,
                    "time": 138.13900800000005,
                    "velocity": 0.3464566929133858,
                    "duration": 0.8222560000000101
                },
                {
                    "name": "B4",
                    "midi": 71,
                    "time": 138.13900800000005,
                    "velocity": 0.3858267716535433,
                    "duration": 0.8222560000000101
                },
                {
                    "name": "E5",
                    "midi": 76,
                    "time": 138.13900800000005,
                    "velocity": 0.3858267716535433,
                    "duration": 2.466768000000002
                },
                {
                    "name": "A4",
                    "midi": 69,
                    "time": 138.96126400000006,
                    "velocity": 0.4094488188976378,
                    "duration": 1.6445119999999918
                },
                {
                    "name": "B3",
                    "midi": 59,
                    "time": 140.60577600000005,
                    "velocity": 0.2755905511811024,
                    "duration": 0.8222560000000101
                },
                {
                    "name": "E3",
                    "midi": 52,
                    "time": 140.60577600000005,
                    "velocity": 0.2440944881889764,
                    "duration": 2.466768000000002
                },
                {
                    "name": "G#3",
                    "midi": 56,
                    "time": 140.60577600000005,
                    "velocity": 0.2440944881889764,
                    "duration": 0.8222560000000101
                },
                {
                    "name": "E4",
                    "midi": 64,
                    "time": 140.60577600000005,
                    "velocity": 0.2755905511811024,
                    "duration": 2.466768000000002
                },
                {
                    "name": "A3",
                    "midi": 57,
                    "time": 141.42803200000006,
                    "velocity": 0.23622047244094488,
                    "duration": 1.6445119999999918
                },
                {
                    "name": "C5",
                    "midi": 72,
                    "time": 143.07254400000005,
                    "velocity": 0.2992125984251969,
                    "duration": 0.41112799999999083
                },
                {
                    "name": "A4",
                    "midi": 69,
                    "time": 143.07254400000005,
                    "velocity": 0.2677165354330709,
                    "duration": 0.41112799999999083
                },
                {
                    "name": "A4",
                    "midi": 69,
                    "time": 143.48367200000004,
                    "velocity": 0.2677165354330709,
                    "duration": 0.41112799999999083
                },
                {
                    "name": "C5",
                    "midi": 72,
                    "time": 143.48367200000004,
                    "velocity": 0.2992125984251969,
                    "duration": 0.41112799999999083
                },
                {
                    "name": "B4",
                    "midi": 71,
                    "time": 143.89480000000003,
                    "velocity": 0.29133858267716534,
                    "duration": 0.41112799999999083
                },
                {
                    "name": "D5",
                    "midi": 74,
                    "time": 143.89480000000003,
                    "velocity": 0.33070866141732286,
                    "duration": 0.41112799999999083
                },
                {
                    "name": "F4",
                    "midi": 65,
                    "time": 143.89480000000003,
                    "velocity": 0.29133858267716534,
                    "duration": 0.41112799999999083
                },
                {
                    "name": "C5",
                    "midi": 72,
                    "time": 144.30592800000002,
                    "velocity": 0.2992125984251969,
                    "duration": 0.41112799999999083
                },
                {
                    "name": "A4",
                    "midi": 69,
                    "time": 144.30592800000002,
                    "velocity": 0.2677165354330709,
                    "duration": 0.41112799999999083
                },
                {
                    "name": "B4",
                    "midi": 71,
                    "time": 144.717056,
                    "velocity": 0.28346456692913385,
                    "duration": 0.8222560000000101
                },
                {
                    "name": "F4",
                    "midi": 65,
                    "time": 144.717056,
                    "velocity": 0.28346456692913385,
                    "duration": 0.8222560000000101
                },
                {
                    "name": "D5",
                    "midi": 74,
                    "time": 144.717056,
                    "velocity": 0.31496062992125984,
                    "duration": 0.8222560000000101
                },
                {
                    "name": "A4",
                    "midi": 69,
                    "time": 145.53931200000002,
                    "velocity": 0.29133858267716534,
                    "duration": 0.41112799999999083
                },
                {
                    "name": "C5",
                    "midi": 72,
                    "time": 145.53931200000002,
                    "velocity": 0.33070866141732286,
                    "duration": 0.41112799999999083
                },
                {
                    "name": "C5",
                    "midi": 72,
                    "time": 145.95044000000001,
                    "velocity": 0.2755905511811024,
                    "duration": 0.41112799999999083
                },
                {
                    "name": "A4",
                    "midi": 69,
                    "time": 145.95044000000001,
                    "velocity": 0.2755905511811024,
                    "duration": 0.41112799999999083
                },
                {
                    "name": "G#4",
                    "midi": 68,
                    "time": 146.361568,
                    "velocity": 0.31496062992125984,
                    "duration": 0.41112799999999083
                },
                {
                    "name": "D4",
                    "midi": 62,
                    "time": 146.361568,
                    "velocity": 0.31496062992125984,
                    "duration": 0.41112799999999083
                },
                {
                    "name": "B4",
                    "midi": 71,
                    "time": 146.361568,
                    "velocity": 0.31496062992125984,
                    "duration": 0.41112799999999083
                },
                {
                    "name": "F4",
                    "midi": 65,
                    "time": 146.772696,
                    "velocity": 0.29133858267716534,
                    "duration": 0.41112799999999083
                },
                {
                    "name": "A4",
                    "midi": 69,
                    "time": 146.772696,
                    "velocity": 0.29133858267716534,
                    "duration": 0.41112799999999083
                },
                {
                    "name": "D4",
                    "midi": 62,
                    "time": 147.183824,
                    "velocity": 0.28346456692913385,
                    "duration": 0.8222560000000101
                },
                {
                    "name": "B4",
                    "midi": 71,
                    "time": 147.183824,
                    "velocity": 0.28346456692913385,
                    "duration": 0.8222560000000101
                },
                {
                    "name": "G#4",
                    "midi": 68,
                    "time": 147.183824,
                    "velocity": 0.28346456692913385,
                    "duration": 0.8222560000000101
                },
                {
                    "name": "F#4",
                    "midi": 66,
                    "time": 148.00608,
                    "velocity": 0.2755905511811024,
                    "duration": 0.41112799999999083
                },
                {
                    "name": "A4",
                    "midi": 69,
                    "time": 148.00608,
                    "velocity": 0.30708661417322836,
                    "duration": 0.41112799999999083
                },
                {
                    "name": "F#4",
                    "midi": 66,
                    "time": 148.417208,
                    "velocity": 0.28346456692913385,
                    "duration": 0.41112799999999083
                },
                {
                    "name": "A4",
                    "midi": 69,
                    "time": 148.417208,
                    "velocity": 0.31496062992125984,
                    "duration": 0.8222559999999817
                },
                {
                    "name": "C4",
                    "midi": 60,
                    "time": 148.82833599999998,
                    "velocity": 0.31496062992125984,
                    "duration": 0.41112799999999083
                },
                {
                    "name": "C5",
                    "midi": 72,
                    "time": 148.82833599999998,
                    "velocity": 0.36220472440944884,
                    "duration": 0.41112799999999083
                },
                {
                    "name": "G#4",
                    "midi": 68,
                    "time": 149.23946399999997,
                    "velocity": 0.29133858267716534,
                    "duration": 0.41112799999999083
                },
                {
                    "name": "B4",
                    "midi": 71,
                    "time": 149.23946399999997,
                    "velocity": 0.33858267716535434,
                    "duration": 0.41112799999999083
                },
                {
                    "name": "A4",
                    "midi": 69,
                    "time": 149.65059199999996,
                    "velocity": 0.29133858267716534,
                    "duration": 0.41112799999999083
                },
                {
                    "name": "C4",
                    "midi": 60,
                    "time": 149.65059199999996,
                    "velocity": 0.29133858267716534,
                    "duration": 0.41112799999999083
                },
                {
                    "name": "C5",
                    "midi": 72,
                    "time": 149.65059199999996,
                    "velocity": 0.33858267716535434,
                    "duration": 0.41112799999999083
                },
                {
                    "name": "F#4",
                    "midi": 66,
                    "time": 150.06171999999995,
                    "velocity": 0.28346456692913385,
                    "duration": 0.41112799999999083
                },
                {
                    "name": "A4",
                    "midi": 69,
                    "time": 150.06171999999995,
                    "velocity": 0.31496062992125984,
                    "duration": 0.41112799999999083
                },
                {
                    "name": "E4",
                    "midi": 64,
                    "time": 150.47284799999994,
                    "velocity": 0.2755905511811024,
                    "duration": 0.8222560000000101
                },
                {
                    "name": "G#4",
                    "midi": 68,
                    "time": 150.47284799999994,
                    "velocity": 0.30708661417322836,
                    "duration": 0.8222560000000101
                },
                {
                    "name": "B3",
                    "midi": 59,
                    "time": 151.29510399999995,
                    "velocity": 0.23622047244094488,
                    "duration": 1.6445119999999918
                },
                {
                    "name": "B4",
                    "midi": 71,
                    "time": 151.29510399999995,
                    "velocity": 0.2677165354330709,
                    "duration": 1.6445119999999918
                },
                {
                    "name": "G#4",
                    "midi": 68,
                    "time": 151.29510399999995,
                    "velocity": 0.23622047244094488,
                    "duration": 1.6445119999999918
                },
                {
                    "name": "A4",
                    "midi": 69,
                    "time": 152.93961599999994,
                    "velocity": 0.31496062992125984,
                    "duration": 0.41112799999999083
                },
                {
                    "name": "C5",
                    "midi": 72,
                    "time": 152.93961599999994,
                    "velocity": 0.36220472440944884,
                    "duration": 0.41112799999999083
                },
                {
                    "name": "A4",
                    "midi": 69,
                    "time": 153.35074399999993,
                    "velocity": 0.31496062992125984,
                    "duration": 0.41112799999999083
                },
                {
                    "name": "C5",
                    "midi": 72,
                    "time": 153.35074399999993,
                    "velocity": 0.36220472440944884,
                    "duration": 0.41112799999999083
                },
                {
                    "name": "G4",
                    "midi": 67,
                    "time": 153.76187199999993,
                    "velocity": 0.3700787401574803,
                    "duration": 0.8222560000000101
                },
                {
                    "name": "C#5",
                    "midi": 73,
                    "time": 153.76187199999993,
                    "velocity": 0.3700787401574803,
                    "duration": 0.8222560000000101
                },
                {
                    "name": "E5",
                    "midi": 76,
                    "time": 153.76187199999993,
                    "velocity": 0.41732283464566927,
                    "duration": 0.8222560000000101
                },
                {
                    "name": "B4",
                    "midi": 71,
                    "time": 154.58412799999994,
                    "velocity": 0.41732283464566927,
                    "duration": 0.8222560000000101
                },
                {
                    "name": "F5",
                    "midi": 77,
                    "time": 154.58412799999994,
                    "velocity": 0.4645669291338583,
                    "duration": 0.8222560000000101
                },
                {
                    "name": "F4",
                    "midi": 65,
                    "time": 154.58412799999994,
                    "velocity": 0.41732283464566927,
                    "duration": 0.8222560000000101
                },
                {
                    "name": "G5",
                    "midi": 79,
                    "time": 155.40638399999995,
                    "velocity": 0.5669291338582677,
                    "duration": 2.466768000000002
                },
                {
                    "name": "C#5",
                    "midi": 73,
                    "time": 155.40638399999995,
                    "velocity": 0.5039370078740157,
                    "duration": 2.466768000000002
                },
                {
                    "name": "F5",
                    "midi": 77,
                    "time": 157.87315199999995,
                    "velocity": 0.4409448818897638,
                    "duration": 0.41112799999999083
                },
                {
                    "name": "D5",
                    "midi": 74,
                    "time": 157.87315199999995,
                    "velocity": 0.3937007874015748,
                    "duration": 0.41112799999999083
                },
                {
                    "name": "D5",
                    "midi": 74,
                    "time": 158.28427999999994,
                    "velocity": 0.4330708661417323,
                    "duration": 0.41112799999999083
                },
                {
                    "name": "F5",
                    "midi": 77,
                    "time": 158.28427999999994,
                    "velocity": 0.48031496062992124,
                    "duration": 0.41112799999999083
                },
                {
                    "name": "F#5",
                    "midi": 78,
                    "time": 158.69540799999993,
                    "velocity": 0.49606299212598426,
                    "duration": 0.41112799999999083
                },
                {
                    "name": "A5",
                    "midi": 81,
                    "time": 158.69540799999993,
                    "velocity": 0.5511811023622047,
                    "duration": 0.41112799999999083
                },
                {
                    "name": "C5",
                    "midi": 72,
                    "time": 158.69540799999993,
                    "velocity": 0.5511811023622047,
                    "duration": 0.41112799999999083
                },
                {
                    "name": "G5",
                    "midi": 79,
                    "time": 159.10653599999992,
                    "velocity": 0.5669291338582677,
                    "duration": 0.41112799999999083
                },
                {
                    "name": "A#4",
                    "midi": 70,
                    "time": 159.10653599999992,
                    "velocity": 0.44881889763779526,
                    "duration": 0.41112799999999083
                },
                {
                    "name": "E5",
                    "midi": 76,
                    "time": 159.5176639999999,
                    "velocity": 0.5118110236220472,
                    "duration": 0.41112799999999083
                },
                {
                    "name": "C#5",
                    "midi": 73,
                    "time": 159.5176639999999,
                    "velocity": 0.5118110236220472,
                    "duration": 0.41112799999999083
                },
                {
                    "name": "A#5",
                    "midi": 82,
                    "time": 159.5176639999999,
                    "velocity": 0.5669291338582677,
                    "duration": 0.41112799999999083
                },
                {
                    "name": "A4",
                    "midi": 69,
                    "time": 159.9287919999999,
                    "velocity": 0.5039370078740157,
                    "duration": 0.41112799999999083
                },
                {
                    "name": "A5",
                    "midi": 81,
                    "time": 159.9287919999999,
                    "velocity": 0.5590551181102362,
                    "duration": 0.41112799999999083
                },
                {
                    "name": "F#5",
                    "midi": 78,
                    "time": 159.9287919999999,
                    "velocity": 0.5039370078740157,
                    "duration": 0.41112799999999083
                },
                {
                    "name": "C5",
                    "midi": 72,
                    "time": 160.3399199999999,
                    "velocity": 0.5748031496062992,
                    "duration": 2.466768000000002
                },
                {
                    "name": "C6",
                    "midi": 84,
                    "time": 160.3399199999999,
                    "velocity": 0.6377952755905512,
                    "duration": 2.466768000000002
                },
                {
                    "name": "F#5",
                    "midi": 78,
                    "time": 160.3399199999999,
                    "velocity": 0.5748031496062992,
                    "duration": 2.466768000000002
                },
                {
                    "name": "C5",
                    "midi": 72,
                    "time": 162.8066879999999,
                    "velocity": 0.4251968503937008,
                    "duration": 1.6445119999999633
                },
                {
                    "name": "G4",
                    "midi": 67,
                    "time": 162.8066879999999,
                    "velocity": 0.4251968503937008,
                    "duration": 0.8222559999999817
                },
                {
                    "name": "G5",
                    "midi": 79,
                    "time": 162.8066879999999,
                    "velocity": 0.47244094488188976,
                    "duration": 0.41112799999999083
                },
                {
                    "name": "G5",
                    "midi": 79,
                    "time": 163.21781599999989,
                    "velocity": 0.47244094488188976,
                    "duration": 0.41112799999999083
                },
                {
                    "name": "F5",
                    "midi": 77,
                    "time": 163.62894399999988,
                    "velocity": 0.4409448818897638,
                    "duration": 0.41112799999999083
                },
                {
                    "name": "G#4",
                    "midi": 68,
                    "time": 163.62894399999988,
                    "velocity": 0.4409448818897638,
                    "duration": 0.8222559999999817
                },
                {
                    "name": "E5",
                    "midi": 76,
                    "time": 164.04007199999987,
                    "velocity": 0.4251968503937008,
                    "duration": 0.41112799999999083
                },
                {
                    "name": "D5",
                    "midi": 74,
                    "time": 164.45119999999986,
                    "velocity": 0.4251968503937008,
                    "duration": 0.41112799999999083
                },
                {
                    "name": "A4",
                    "midi": 69,
                    "time": 164.45119999999986,
                    "velocity": 0.4251968503937008,
                    "duration": 0.8222559999999817
                },
                {
                    "name": "C5",
                    "midi": 72,
                    "time": 164.86232799999985,
                    "velocity": 0.3937007874015748,
                    "duration": 0.41112799999999083
                },
                {
                    "name": "G#4",
                    "midi": 68,
                    "time": 165.27345599999984,
                    "velocity": 0.3543307086614173,
                    "duration": 0.8222560000000101
                },
                {
                    "name": "E5",
                    "midi": 76,
                    "time": 165.27345599999984,
                    "velocity": 0.3937007874015748,
                    "duration": 2.466768000000002
                },
                {
                    "name": "E4",
                    "midi": 64,
                    "time": 165.27345599999984,
                    "velocity": 0.3543307086614173,
                    "duration": 2.466768000000002
                },
                {
                    "name": "B4",
                    "midi": 71,
                    "time": 165.27345599999984,
                    "velocity": 0.3937007874015748,
                    "duration": 0.8222560000000101
                },
                {
                    "name": "A4",
                    "midi": 69,
                    "time": 166.09571199999985,
                    "velocity": 0.3858267716535433,
                    "duration": 1.6445119999999918
                },
                {
                    "name": "G#3",
                    "midi": 56,
                    "time": 167.74022399999984,
                    "velocity": 0.25196850393700787,
                    "duration": 1.6445119999999918
                },
                {
                    "name": "E4",
                    "midi": 64,
                    "time": 167.74022399999984,
                    "velocity": 0.28346456692913385,
                    "duration": 1.6445119999999918
                },
                {
                    "name": "B3",
                    "midi": 59,
                    "time": 167.74022399999984,
                    "velocity": 0.28346456692913385,
                    "duration": 1.6445119999999918
                },
                {
                    "name": "E3",
                    "midi": 52,
                    "time": 167.74022399999984,
                    "velocity": 0.25196850393700787,
                    "duration": 3.2890239999999835
                },
                {
                    "name": "A3",
                    "midi": 57,
                    "time": 169.38473599999983,
                    "velocity": 0.2283464566929134,
                    "duration": 1.6445119999999918
                }
            ],
            "controlChanges": {
                "7": [
                    {
                        "number": 7,
                        "time": 0,
                        "value": 0.7874015748031497
                    }
                ],
                "10": [
                    {
                        "number": 10,
                        "time": 0,
                        "value": 0.5039370078740157
                    }
                ],
                "64": [
                    {
                        "number": 64,
                        "time": 0,
                        "value": 0
                    }
                ],
                "91": [
                    {
                        "number": 91,
                        "time": 0,
                        "value": 1
                    },
                    {
                        "number": 91,
                        "time": 0,
                        "value": 1
                    },
                    {
                        "number": 91,
                        "time": 44.40182399999998,
                        "value": 1
                    },
                    {
                        "number": 91,
                        "time": 83.87011199999986,
                        "value": 1
                    },
                    {
                        "number": 91,
                        "time": 86.33687999999987,
                        "value": 1
                    },
                    {
                        "number": 91,
                        "time": 120.87163200000005,
                        "value": 1
                    }
                ]
            },
            "id": 1,
            "name": "Piano right",
            "instrumentNumber": 0,
            "instrument": "acoustic grand piano",
            "instrumentFamily": "piano",
            "channelNumber": 0,
            "isPercussion": false
        },
        {
            "startTime": 0,
            "duration": 171.85150400000035,
            "length": 449,
            "notes": [
                {
                    "name": "A1",
                    "midi": 33,
                    "time": 0,
                    "velocity": 0.33858267716535434,
                    "duration": 0.2740853333333334
                },
                {
                    "name": "A2",
                    "midi": 45,
                    "time": 0.2740853333333334,
                    "velocity": 0.3543307086614173,
                    "duration": 0.2740853333333334
                },
                {
                    "name": "E3",
                    "midi": 52,
                    "time": 0.5481706666666668,
                    "velocity": 0.3779527559055118,
                    "duration": 0.2740853333333333
                },
                {
                    "name": "A2",
                    "midi": 45,
                    "time": 0.8222560000000001,
                    "velocity": 0.2440944881889764,
                    "duration": 1.644512
                },
                {
                    "name": "D3",
                    "midi": 50,
                    "time": 0.8222560000000001,
                    "velocity": 0.2755905511811024,
                    "duration": 1.644512
                },
                {
                    "name": "A1",
                    "midi": 33,
                    "time": 2.466768,
                    "velocity": 0.31496062992125984,
                    "duration": 0.2740853333333333
                },
                {
                    "name": "A2",
                    "midi": 45,
                    "time": 2.7408533333333334,
                    "velocity": 0.36220472440944884,
                    "duration": 0.2740853333333333
                },
                {
                    "name": "E3",
                    "midi": 52,
                    "time": 3.0149386666666667,
                    "velocity": 0.3858267716535433,
                    "duration": 0.2740853333333333
                },
                {
                    "name": "A2",
                    "midi": 45,
                    "time": 3.289024,
                    "velocity": 0.2283464566929134,
                    "duration": 1.6445120000000002
                },
                {
                    "name": "F3",
                    "midi": 53,
                    "time": 3.289024,
                    "velocity": 0.25984251968503935,
                    "duration": 1.6445120000000002
                },
                {
                    "name": "A1",
                    "midi": 33,
                    "time": 4.933536,
                    "velocity": 0.33070866141732286,
                    "duration": 0.27408533333333374
                },
                {
                    "name": "A2",
                    "midi": 45,
                    "time": 5.207621333333334,
                    "velocity": 0.33070866141732286,
                    "duration": 0.27408533333333374
                },
                {
                    "name": "C3",
                    "midi": 48,
                    "time": 5.481706666666668,
                    "velocity": 0.33070866141732286,
                    "duration": 0.27408533333333374
                },
                {
                    "name": "A2",
                    "midi": 45,
                    "time": 5.755792000000001,
                    "velocity": 0.25196850393700787,
                    "duration": 1.6445120000000006
                },
                {
                    "name": "D#3",
                    "midi": 51,
                    "time": 5.755792000000001,
                    "velocity": 0.28346456692913385,
                    "duration": 1.6445120000000006
                },
                {
                    "name": "E2",
                    "midi": 40,
                    "time": 7.400304000000002,
                    "velocity": 0.25984251968503935,
                    "duration": 0.27408533333333285
                },
                {
                    "name": "B2",
                    "midi": 47,
                    "time": 7.674389333333335,
                    "velocity": 0.23622047244094488,
                    "duration": 0.27408533333333374
                },
                {
                    "name": "E3",
                    "midi": 52,
                    "time": 7.948474666666669,
                    "velocity": 0.2283464566929134,
                    "duration": 1.9185973333333335
                },
                {
                    "name": "E2",
                    "midi": 40,
                    "time": 8.222560000000001,
                    "velocity": 0.2204724409448819,
                    "duration": 1.6445120000000006
                },
                {
                    "name": "A1",
                    "midi": 33,
                    "time": 9.867072000000002,
                    "velocity": 0.33070866141732286,
                    "duration": 0.27408533333333374
                },
                {
                    "name": "A2",
                    "midi": 45,
                    "time": 10.141157333333336,
                    "velocity": 0.36220472440944884,
                    "duration": 0.27408533333333374
                },
                {
                    "name": "E3",
                    "midi": 52,
                    "time": 10.41524266666667,
                    "velocity": 0.3937007874015748,
                    "duration": 0.27408533333333374
                },
                {
                    "name": "A2",
                    "midi": 45,
                    "time": 10.689328000000003,
                    "velocity": 0.31496062992125984,
                    "duration": 1.6445119999999989
                },
                {
                    "name": "A3",
                    "midi": 57,
                    "time": 10.689328000000003,
                    "velocity": 0.36220472440944884,
                    "duration": 1.6445119999999989
                },
                {
                    "name": "D2",
                    "midi": 38,
                    "time": 12.333840000000002,
                    "velocity": 0.3779527559055118,
                    "duration": 0.27408533333333196
                },
                {
                    "name": "D3",
                    "midi": 50,
                    "time": 12.607925333333334,
                    "velocity": 0.4015748031496063,
                    "duration": 0.27408533333333374
                },
                {
                    "name": "A3",
                    "midi": 57,
                    "time": 12.882010666666668,
                    "velocity": 0.4251968503937008,
                    "duration": 0.27408533333333374
                },
                {
                    "name": "D#3",
                    "midi": 51,
                    "time": 13.156096000000002,
                    "velocity": 0.36220472440944884,
                    "duration": 1.6445119999999989
                },
                {
                    "name": "C4",
                    "midi": 60,
                    "time": 13.156096000000002,
                    "velocity": 0.4015748031496063,
                    "duration": 1.6445119999999989
                },
                {
                    "name": "E2",
                    "midi": 40,
                    "time": 14.800608,
                    "velocity": 0.3858267716535433,
                    "duration": 0.27408533333333196
                },
                {
                    "name": "E3",
                    "midi": 52,
                    "time": 15.074693333333332,
                    "velocity": 0.3858267716535433,
                    "duration": 0.27408533333333374
                },
                {
                    "name": "G3",
                    "midi": 55,
                    "time": 15.348778666666666,
                    "velocity": 0.3858267716535433,
                    "duration": 0.27408533333333374
                },
                {
                    "name": "C4",
                    "midi": 60,
                    "time": 15.622864,
                    "velocity": 0.36220472440944884,
                    "duration": 1.2333839999999974
                },
                {
                    "name": "E3",
                    "midi": 52,
                    "time": 15.622864,
                    "velocity": 0.31496062992125984,
                    "duration": 0.8222559999999994
                },
                {
                    "name": "F3",
                    "midi": 53,
                    "time": 16.44512,
                    "velocity": 0.30708661417322836,
                    "duration": 0.8222559999999994
                },
                {
                    "name": "A3",
                    "midi": 57,
                    "time": 16.856247999999997,
                    "velocity": 0.2047244094488189,
                    "duration": 0.4111280000000015
                },
                {
                    "name": "E3",
                    "midi": 52,
                    "time": 17.267376,
                    "velocity": 0.3779527559055118,
                    "duration": 0.4111280000000015
                },
                {
                    "name": "E3",
                    "midi": 52,
                    "time": 17.678504,
                    "velocity": 0.3543307086614173,
                    "duration": 2.055640000000004
                },
                {
                    "name": "C3",
                    "midi": 48,
                    "time": 18.089632,
                    "velocity": 0.31496062992125984,
                    "duration": 0.822256000000003
                },
                {
                    "name": "A2",
                    "midi": 45,
                    "time": 18.911888000000005,
                    "velocity": 0.28346456692913385,
                    "duration": 0.8222559999999994
                },
                {
                    "name": "E2",
                    "midi": 40,
                    "time": 19.734144000000004,
                    "velocity": 0.30708661417322836,
                    "duration": 0.4111280000000015
                },
                {
                    "name": "E2",
                    "midi": 40,
                    "time": 20.145272000000006,
                    "velocity": 0.30708661417322836,
                    "duration": 0.4111280000000015
                },
                {
                    "name": "C2",
                    "midi": 36,
                    "time": 20.556400000000007,
                    "velocity": 0.33070866141732286,
                    "duration": 0.8222559999999994
                },
                {
                    "name": "A1",
                    "midi": 33,
                    "time": 21.378656000000007,
                    "velocity": 0.25196850393700787,
                    "duration": 1.096341333333335
                },
                {
                    "name": "A2",
                    "midi": 45,
                    "time": 22.47499733333334,
                    "velocity": 0.2283464566929134,
                    "duration": 0.27408533333333196
                },
                {
                    "name": "E3",
                    "midi": 52,
                    "time": 22.749082666666673,
                    "velocity": 0.2204724409448819,
                    "duration": 0.27408533333333196
                },
                {
                    "name": "A2",
                    "midi": 45,
                    "time": 23.023168000000005,
                    "velocity": 0.2204724409448819,
                    "duration": 0.2740853333333355
                },
                {
                    "name": "D3",
                    "midi": 50,
                    "time": 23.29725333333334,
                    "velocity": 0.2204724409448819,
                    "duration": 0.27408533333333196
                },
                {
                    "name": "F3",
                    "midi": 53,
                    "time": 23.571338666666673,
                    "velocity": 0.2204724409448819,
                    "duration": 0.27408533333333196
                },
                {
                    "name": "A2",
                    "midi": 45,
                    "time": 23.845424000000005,
                    "velocity": 0.2204724409448819,
                    "duration": 0.8222559999999994
                },
                {
                    "name": "A1",
                    "midi": 33,
                    "time": 24.667680000000004,
                    "velocity": 0.2204724409448819,
                    "duration": 0.27408533333333196
                },
                {
                    "name": "A2",
                    "midi": 45,
                    "time": 24.941765333333336,
                    "velocity": 0.2283464566929134,
                    "duration": 0.27408533333333196
                },
                {
                    "name": "E3",
                    "midi": 52,
                    "time": 25.215850666666668,
                    "velocity": 0.23622047244094488,
                    "duration": 0.27408533333333196
                },
                {
                    "name": "A2",
                    "midi": 45,
                    "time": 25.489936,
                    "velocity": 0.2283464566929134,
                    "duration": 0.27408533333333196
                },
                {
                    "name": "F3",
                    "midi": 53,
                    "time": 25.764021333333332,
                    "velocity": 0.2204724409448819,
                    "duration": 0.27408533333333196
                },
                {
                    "name": "D3",
                    "midi": 50,
                    "time": 26.038106666666664,
                    "velocity": 0.2204724409448819,
                    "duration": 0.27408533333333196
                },
                {
                    "name": "A2",
                    "midi": 45,
                    "time": 26.312191999999996,
                    "velocity": 0.2204724409448819,
                    "duration": 0.8222559999999994
                },
                {
                    "name": "A1",
                    "midi": 33,
                    "time": 27.134447999999995,
                    "velocity": 0.2283464566929134,
                    "duration": 0.27408533333333196
                },
                {
                    "name": "A2",
                    "midi": 45,
                    "time": 27.408533333333327,
                    "velocity": 0.25196850393700787,
                    "duration": 0.27408533333333196
                },
                {
                    "name": "C3",
                    "midi": 48,
                    "time": 27.68261866666666,
                    "velocity": 0.2677165354330709,
                    "duration": 0.27408533333333196
                },
                {
                    "name": "A2",
                    "midi": 45,
                    "time": 27.95670399999999,
                    "velocity": 0.29133858267716534,
                    "duration": 0.27408533333333196
                },
                {
                    "name": "F#3",
                    "midi": 54,
                    "time": 28.230789333333323,
                    "velocity": 0.2755905511811024,
                    "duration": 0.27408533333333196
                },
                {
                    "name": "D#3",
                    "midi": 51,
                    "time": 28.504874666666655,
                    "velocity": 0.2755905511811024,
                    "duration": 0.27408533333333196
                },
                {
                    "name": "A2",
                    "midi": 45,
                    "time": 28.778959999999987,
                    "velocity": 0.25984251968503935,
                    "duration": 0.27408533333333196
                },
                {
                    "name": "F#3",
                    "midi": 54,
                    "time": 29.05304533333332,
                    "velocity": 0.25984251968503935,
                    "duration": 0.27408533333333196
                },
                {
                    "name": "D#3",
                    "midi": 51,
                    "time": 29.32713066666665,
                    "velocity": 0.25984251968503935,
                    "duration": 0.27408533333333196
                },
                {
                    "name": "E2",
                    "midi": 40,
                    "time": 29.601215999999983,
                    "velocity": 0.23622047244094488,
                    "duration": 2.4667679999999983
                },
                {
                    "name": "B2",
                    "midi": 47,
                    "time": 29.87530133333332,
                    "velocity": 0.25196850393700787,
                    "duration": 0.27408533333333196
                },
                {
                    "name": "E3",
                    "midi": 52,
                    "time": 30.14938666666665,
                    "velocity": 0.25196850393700787,
                    "duration": 1.9185973333333308
                },
                {
                    "name": "A1",
                    "midi": 33,
                    "time": 32.06798399999998,
                    "velocity": 0.33858267716535434,
                    "duration": 0.27408533333333196
                },
                {
                    "name": "A2",
                    "midi": 45,
                    "time": 32.34206933333331,
                    "velocity": 0.33858267716535434,
                    "duration": 0.27408533333333196
                },
                {
                    "name": "E3",
                    "midi": 52,
                    "time": 32.616154666666645,
                    "velocity": 0.33858267716535434,
                    "duration": 0.27408533333333196
                },
                {
                    "name": "A2",
                    "midi": 45,
                    "time": 32.89023999999998,
                    "velocity": 0.33858267716535434,
                    "duration": 0.27408533333333196
                },
                {
                    "name": "A3",
                    "midi": 57,
                    "time": 33.16432533333331,
                    "velocity": 0.33858267716535434,
                    "duration": 0.27408533333333196
                },
                {
                    "name": "D3",
                    "midi": 50,
                    "time": 33.43841066666664,
                    "velocity": 0.33858267716535434,
                    "duration": 0.27408533333333196
                },
                {
                    "name": "A2",
                    "midi": 45,
                    "time": 33.71249599999997,
                    "velocity": 0.3543307086614173,
                    "duration": 0.27408533333333196
                },
                {
                    "name": "A3",
                    "midi": 57,
                    "time": 33.986581333333305,
                    "velocity": 0.3543307086614173,
                    "duration": 0.27408533333333196
                },
                {
                    "name": "E3",
                    "midi": 52,
                    "time": 34.26066666666664,
                    "velocity": 0.36220472440944884,
                    "duration": 0.27408533333333196
                },
                {
                    "name": "D2",
                    "midi": 38,
                    "time": 34.53475199999997,
                    "velocity": 0.33070866141732286,
                    "duration": 0.27408533333333907
                },
                {
                    "name": "D3",
                    "midi": 50,
                    "time": 34.80883733333331,
                    "velocity": 0.3464566929133858,
                    "duration": 0.27408533333333196
                },
                {
                    "name": "A3",
                    "midi": 57,
                    "time": 35.08292266666664,
                    "velocity": 0.3464566929133858,
                    "duration": 0.27408533333333196
                },
                {
                    "name": "D#3",
                    "midi": 51,
                    "time": 35.35700799999997,
                    "velocity": 0.3700787401574803,
                    "duration": 0.27408533333333196
                },
                {
                    "name": "C4",
                    "midi": 60,
                    "time": 35.631093333333304,
                    "velocity": 0.36220472440944884,
                    "duration": 0.27408533333333196
                },
                {
                    "name": "A3",
                    "midi": 57,
                    "time": 35.905178666666636,
                    "velocity": 0.36220472440944884,
                    "duration": 0.27408533333333196
                },
                {
                    "name": "D#3",
                    "midi": 51,
                    "time": 36.17926399999997,
                    "velocity": 0.3779527559055118,
                    "duration": 0.27408533333333196
                },
                {
                    "name": "C4",
                    "midi": 60,
                    "time": 36.4533493333333,
                    "velocity": 0.3858267716535433,
                    "duration": 0.27408533333333196
                },
                {
                    "name": "A3",
                    "midi": 57,
                    "time": 36.72743466666663,
                    "velocity": 0.3858267716535433,
                    "duration": 0.27408533333333196
                },
                {
                    "name": "E2",
                    "midi": 40,
                    "time": 37.001519999999964,
                    "velocity": 0.3937007874015748,
                    "duration": 0.27408533333333196
                },
                {
                    "name": "E3",
                    "midi": 52,
                    "time": 37.275605333333296,
                    "velocity": 0.36220472440944884,
                    "duration": 0.27408533333333196
                },
                {
                    "name": "G3",
                    "midi": 55,
                    "time": 37.54969066666663,
                    "velocity": 0.3700787401574803,
                    "duration": 0.27408533333333196
                },
                {
                    "name": "E3",
                    "midi": 52,
                    "time": 37.82377599999996,
                    "velocity": 0.4015748031496063,
                    "duration": 0.8222559999999959
                },
                {
                    "name": "C4",
                    "midi": 60,
                    "time": 38.09786133333329,
                    "velocity": 0.3700787401574803,
                    "duration": 0.5481706666666639
                },
                {
                    "name": "F3",
                    "midi": 53,
                    "time": 38.646031999999956,
                    "velocity": 0.3937007874015748,
                    "duration": 0.8222559999999959
                },
                {
                    "name": "A3",
                    "midi": 57,
                    "time": 38.92011733333329,
                    "velocity": 0.3700787401574803,
                    "duration": 0.5481706666666639
                },
                {
                    "name": "E3",
                    "midi": 52,
                    "time": 39.46828799999995,
                    "velocity": 0.3858267716535433,
                    "duration": 0.41112800000000504
                },
                {
                    "name": "E3",
                    "midi": 52,
                    "time": 39.87941599999996,
                    "velocity": 0.3858267716535433,
                    "duration": 2.0556399999999897
                },
                {
                    "name": "D3",
                    "midi": 50,
                    "time": 40.290543999999954,
                    "velocity": 0.3779527559055118,
                    "duration": 0.41112799999999794
                },
                {
                    "name": "C3",
                    "midi": 48,
                    "time": 40.70167199999995,
                    "velocity": 0.36220472440944884,
                    "duration": 0.4282583333333321
                },
                {
                    "name": "B2",
                    "midi": 47,
                    "time": 41.11279999999995,
                    "velocity": 0.33858267716535434,
                    "duration": 0.4282583333333321
                },
                {
                    "name": "A2",
                    "midi": 45,
                    "time": 41.52392799999995,
                    "velocity": 0.31496062992125984,
                    "duration": 0.41112799999999794
                },
                {
                    "name": "E2",
                    "midi": 40,
                    "time": 42.346183999999944,
                    "velocity": 0.30708661417322836,
                    "duration": 0.41112799999999794
                },
                {
                    "name": "D2",
                    "midi": 38,
                    "time": 42.75731199999994,
                    "velocity": 0.29133858267716534,
                    "duration": 0.4282583333333321
                },
                {
                    "name": "C2",
                    "midi": 36,
                    "time": 43.16843999999994,
                    "velocity": 0.2755905511811024,
                    "duration": 0.4282583333333321
                },
                {
                    "name": "B1",
                    "midi": 35,
                    "time": 43.57956799999994,
                    "velocity": 0.25984251968503935,
                    "duration": 0.4282583333333321
                },
                {
                    "name": "A1",
                    "midi": 33,
                    "time": 43.990695999999936,
                    "velocity": 0.2440944881889764,
                    "duration": 0.41112799999999794
                },
                {
                    "name": "G#4",
                    "midi": 68,
                    "time": 44.401823999999934,
                    "velocity": 0.2755905511811024,
                    "duration": 0.41112799999999794
                },
                {
                    "name": "E4",
                    "midi": 64,
                    "time": 44.401823999999934,
                    "velocity": 0.2283464566929134,
                    "duration": 0.41112799999999794
                },
                {
                    "name": "A4",
                    "midi": 69,
                    "time": 44.81295199999993,
                    "velocity": 0.2204724409448819,
                    "duration": 0.822256000000003
                },
                {
                    "name": "F4",
                    "midi": 65,
                    "time": 44.81295199999993,
                    "velocity": 0.18110236220472442,
                    "duration": 0.41112800000000504
                },
                {
                    "name": "D4",
                    "midi": 62,
                    "time": 45.22407999999994,
                    "velocity": 0.2204724409448819,
                    "duration": 0.41112799999999794
                },
                {
                    "name": "G#4",
                    "midi": 68,
                    "time": 45.635207999999935,
                    "velocity": 0.25984251968503935,
                    "duration": 0.41112800000000504
                },
                {
                    "name": "E4",
                    "midi": 64,
                    "time": 45.635207999999935,
                    "velocity": 0.2204724409448819,
                    "duration": 0.41112800000000504
                },
                {
                    "name": "A4",
                    "midi": 69,
                    "time": 46.04633599999994,
                    "velocity": 0.23622047244094488,
                    "duration": 0.822256000000003
                },
                {
                    "name": "F4",
                    "midi": 65,
                    "time": 46.04633599999994,
                    "velocity": 0.1968503937007874,
                    "duration": 0.41112800000000504
                },
                {
                    "name": "D4",
                    "midi": 62,
                    "time": 46.457463999999945,
                    "velocity": 0.2283464566929134,
                    "duration": 0.41112799999999794
                },
                {
                    "name": "E4",
                    "midi": 64,
                    "time": 46.86859199999994,
                    "velocity": 0.2283464566929134,
                    "duration": 0.41112800000000504
                },
                {
                    "name": "G#4",
                    "midi": 68,
                    "time": 46.86859199999994,
                    "velocity": 0.2755905511811024,
                    "duration": 0.41112800000000504
                },
                {
                    "name": "F4",
                    "midi": 65,
                    "time": 47.27971999999995,
                    "velocity": 0.2204724409448819,
                    "duration": 0.41112800000000504
                },
                {
                    "name": "A4",
                    "midi": 69,
                    "time": 47.27971999999995,
                    "velocity": 0.25984251968503935,
                    "duration": 0.822256000000003
                },
                {
                    "name": "D4",
                    "midi": 62,
                    "time": 47.69084799999995,
                    "velocity": 0.2283464566929134,
                    "duration": 0.41112799999999794
                },
                {
                    "name": "G#4",
                    "midi": 68,
                    "time": 48.10197599999995,
                    "velocity": 0.2755905511811024,
                    "duration": 0.41112799999999794
                },
                {
                    "name": "E4",
                    "midi": 64,
                    "time": 48.10197599999995,
                    "velocity": 0.2283464566929134,
                    "duration": 0.41112799999999794
                },
                {
                    "name": "A4",
                    "midi": 69,
                    "time": 48.51310399999995,
                    "velocity": 0.2125984251968504,
                    "duration": 0.8222559999999959
                },
                {
                    "name": "F4",
                    "midi": 65,
                    "time": 48.51310399999995,
                    "velocity": 0.25196850393700787,
                    "duration": 0.41112799999999794
                },
                {
                    "name": "D4",
                    "midi": 62,
                    "time": 48.92423199999995,
                    "velocity": 0.2283464566929134,
                    "duration": 0.41112799999999794
                },
                {
                    "name": "B3",
                    "midi": 59,
                    "time": 49.335359999999945,
                    "velocity": 0.2283464566929134,
                    "duration": 0.41112799999999794
                },
                {
                    "name": "D#4",
                    "midi": 63,
                    "time": 49.335359999999945,
                    "velocity": 0.2677165354330709,
                    "duration": 0.41112799999999794
                },
                {
                    "name": "C4",
                    "midi": 60,
                    "time": 49.74648799999994,
                    "velocity": 0.1889763779527559,
                    "duration": 0.41112800000000504
                },
                {
                    "name": "E4",
                    "midi": 64,
                    "time": 49.74648799999994,
                    "velocity": 0.2283464566929134,
                    "duration": 0.822256000000003
                },
                {
                    "name": "A3",
                    "midi": 57,
                    "time": 50.15761599999995,
                    "velocity": 0.2047244094488189,
                    "duration": 0.41112799999999794
                },
                {
                    "name": "B3",
                    "midi": 59,
                    "time": 50.568743999999946,
                    "velocity": 0.1889763779527559,
                    "duration": 0.41112800000000504
                },
                {
                    "name": "D#4",
                    "midi": 63,
                    "time": 50.568743999999946,
                    "velocity": 0.2283464566929134,
                    "duration": 0.41112800000000504
                },
                {
                    "name": "E4",
                    "midi": 64,
                    "time": 50.97987199999995,
                    "velocity": 0.2125984251968504,
                    "duration": 0.822256000000003
                },
                {
                    "name": "C4",
                    "midi": 60,
                    "time": 50.97987199999995,
                    "velocity": 0.18110236220472442,
                    "duration": 0.41112799999999794
                },
                {
                    "name": "A3",
                    "midi": 57,
                    "time": 51.39099999999995,
                    "velocity": 0.1968503937007874,
                    "duration": 0.41112800000000504
                },
                {
                    "name": "B3",
                    "midi": 59,
                    "time": 51.80212799999995,
                    "velocity": 0.1968503937007874,
                    "duration": 0.41112799999999794
                },
                {
                    "name": "D#4",
                    "midi": 63,
                    "time": 51.80212799999995,
                    "velocity": 0.23622047244094488,
                    "duration": 0.41112799999999794
                },
                {
                    "name": "E4",
                    "midi": 64,
                    "time": 52.21325599999995,
                    "velocity": 0.2204724409448819,
                    "duration": 0.8222559999999959
                },
                {
                    "name": "C4",
                    "midi": 60,
                    "time": 52.21325599999995,
                    "velocity": 0.18110236220472442,
                    "duration": 0.41112799999999794
                },
                {
                    "name": "A3",
                    "midi": 57,
                    "time": 52.62438399999995,
                    "velocity": 0.2047244094488189,
                    "duration": 0.41112799999999794
                },
                {
                    "name": "B3",
                    "midi": 59,
                    "time": 53.03551199999995,
                    "velocity": 0.2125984251968504,
                    "duration": 0.41112799999999794
                },
                {
                    "name": "D#4",
                    "midi": 63,
                    "time": 53.03551199999995,
                    "velocity": 0.25196850393700787,
                    "duration": 0.41112799999999794
                },
                {
                    "name": "C4",
                    "midi": 60,
                    "time": 53.446639999999945,
                    "velocity": 0.1889763779527559,
                    "duration": 0.41112799999999794
                },
                {
                    "name": "E4",
                    "midi": 64,
                    "time": 53.446639999999945,
                    "velocity": 0.2283464566929134,
                    "duration": 0.41112799999999794
                },
                {
                    "name": "A3",
                    "midi": 57,
                    "time": 53.85776799999994,
                    "velocity": 0.2204724409448819,
                    "duration": 0.41112799999999794
                },
                {
                    "name": "F#4",
                    "midi": 66,
                    "time": 53.85776799999994,
                    "velocity": 0.25984251968503935,
                    "duration": 0.41112799999999794
                },
                {
                    "name": "E4",
                    "midi": 64,
                    "time": 54.26889599999994,
                    "velocity": 0.2283464566929134,
                    "duration": 0.41112800000000504
                },
                {
                    "name": "G#4",
                    "midi": 68,
                    "time": 54.26889599999994,
                    "velocity": 0.2677165354330709,
                    "duration": 0.41112800000000504
                },
                {
                    "name": "A4",
                    "midi": 69,
                    "time": 54.680023999999946,
                    "velocity": 0.23622047244094488,
                    "duration": 0.822256000000003
                },
                {
                    "name": "F4",
                    "midi": 65,
                    "time": 54.680023999999946,
                    "velocity": 0.1968503937007874,
                    "duration": 0.41112800000000504
                },
                {
                    "name": "D4",
                    "midi": 62,
                    "time": 55.09115199999995,
                    "velocity": 0.2283464566929134,
                    "duration": 0.41112799999999794
                },
                {
                    "name": "E4",
                    "midi": 64,
                    "time": 55.50227999999995,
                    "velocity": 0.2283464566929134,
                    "duration": 0.41112799999999794
                },
                {
                    "name": "G#4",
                    "midi": 68,
                    "time": 55.50227999999995,
                    "velocity": 0.2755905511811024,
                    "duration": 0.41112799999999794
                },
                {
                    "name": "A4",
                    "midi": 69,
                    "time": 55.91340799999995,
                    "velocity": 0.25196850393700787,
                    "duration": 0.8222559999999959
                },
                {
                    "name": "F4",
                    "midi": 65,
                    "time": 55.91340799999995,
                    "velocity": 0.2125984251968504,
                    "duration": 0.41112799999999794
                },
                {
                    "name": "D4",
                    "midi": 62,
                    "time": 56.324535999999945,
                    "velocity": 0.2283464566929134,
                    "duration": 0.41112799999999794
                },
                {
                    "name": "E4",
                    "midi": 64,
                    "time": 56.73566399999994,
                    "velocity": 0.23622047244094488,
                    "duration": 0.41112799999999794
                },
                {
                    "name": "G#4",
                    "midi": 68,
                    "time": 56.73566399999994,
                    "velocity": 0.28346456692913385,
                    "duration": 0.41112799999999794
                },
                {
                    "name": "A4",
                    "midi": 69,
                    "time": 57.14679199999994,
                    "velocity": 0.2755905511811024,
                    "duration": 0.8222559999999959
                },
                {
                    "name": "F4",
                    "midi": 65,
                    "time": 57.14679199999994,
                    "velocity": 0.2283464566929134,
                    "duration": 0.41112799999999794
                },
                {
                    "name": "D4",
                    "midi": 62,
                    "time": 57.55791999999994,
                    "velocity": 0.2440944881889764,
                    "duration": 0.41112799999999794
                },
                {
                    "name": "E4",
                    "midi": 64,
                    "time": 57.96904799999994,
                    "velocity": 0.2440944881889764,
                    "duration": 0.41112799999999794
                },
                {
                    "name": "G#4",
                    "midi": 68,
                    "time": 57.96904799999994,
                    "velocity": 0.29133858267716534,
                    "duration": 0.41112799999999794
                },
                {
                    "name": "A4",
                    "midi": 69,
                    "time": 58.380175999999935,
                    "velocity": 0.2755905511811024,
                    "duration": 0.8222559999999959
                },
                {
                    "name": "F4",
                    "midi": 65,
                    "time": 58.380175999999935,
                    "velocity": 0.2283464566929134,
                    "duration": 0.41112799999999794
                },
                {
                    "name": "D4",
                    "midi": 62,
                    "time": 58.79130399999993,
                    "velocity": 0.2283464566929134,
                    "duration": 0.41112799999999794
                },
                {
                    "name": "E4",
                    "midi": 64,
                    "time": 59.20243199999993,
                    "velocity": 0.2283464566929134,
                    "duration": 0.41112799999999794
                },
                {
                    "name": "G#4",
                    "midi": 68,
                    "time": 59.20243199999993,
                    "velocity": 0.2677165354330709,
                    "duration": 0.41112799999999794
                },
                {
                    "name": "A4",
                    "midi": 69,
                    "time": 59.61355999999993,
                    "velocity": 0.2283464566929134,
                    "duration": 0.822256000000003
                },
                {
                    "name": "F4",
                    "midi": 65,
                    "time": 59.61355999999993,
                    "velocity": 0.1889763779527559,
                    "duration": 0.41112800000000504
                },
                {
                    "name": "D4",
                    "midi": 62,
                    "time": 60.024687999999934,
                    "velocity": 0.1968503937007874,
                    "duration": 0.41112799999999794
                },
                {
                    "name": "G#4",
                    "midi": 68,
                    "time": 60.43581599999993,
                    "velocity": 0.2755905511811024,
                    "duration": 0.41112799999999794
                },
                {
                    "name": "E4",
                    "midi": 64,
                    "time": 60.43581599999993,
                    "velocity": 0.2283464566929134,
                    "duration": 0.41112799999999794
                },
                {
                    "name": "A4",
                    "midi": 69,
                    "time": 60.84694399999993,
                    "velocity": 0.25196850393700787,
                    "duration": 0.822256000000003
                },
                {
                    "name": "F4",
                    "midi": 65,
                    "time": 60.84694399999993,
                    "velocity": 0.2125984251968504,
                    "duration": 0.41112800000000504
                },
                {
                    "name": "D4",
                    "midi": 62,
                    "time": 61.258071999999935,
                    "velocity": 0.2283464566929134,
                    "duration": 0.41112799999999794
                },
                {
                    "name": "B3",
                    "midi": 59,
                    "time": 61.66919999999993,
                    "velocity": 0.2283464566929134,
                    "duration": 0.41112799999999794
                },
                {
                    "name": "D#4",
                    "midi": 63,
                    "time": 61.66919999999993,
                    "velocity": 0.2677165354330709,
                    "duration": 0.41112799999999794
                },
                {
                    "name": "C4",
                    "midi": 60,
                    "time": 62.08032799999993,
                    "velocity": 0.1889763779527559,
                    "duration": 0.41112799999999794
                },
                {
                    "name": "E4",
                    "midi": 64,
                    "time": 62.08032799999993,
                    "velocity": 0.2283464566929134,
                    "duration": 0.8222559999999959
                },
                {
                    "name": "A3",
                    "midi": 57,
                    "time": 62.49145599999993,
                    "velocity": 0.2047244094488189,
                    "duration": 0.41112799999999794
                },
                {
                    "name": "B3",
                    "midi": 59,
                    "time": 62.902583999999926,
                    "velocity": 0.1889763779527559,
                    "duration": 0.41112800000000504
                },
                {
                    "name": "D#4",
                    "midi": 63,
                    "time": 62.902583999999926,
                    "velocity": 0.2283464566929134,
                    "duration": 0.41112800000000504
                },
                {
                    "name": "E4",
                    "midi": 64,
                    "time": 63.31371199999993,
                    "velocity": 0.2125984251968504,
                    "duration": 0.822256000000003
                },
                {
                    "name": "C4",
                    "midi": 60,
                    "time": 63.31371199999993,
                    "velocity": 0.18110236220472442,
                    "duration": 0.41112800000000504
                },
                {
                    "name": "A3",
                    "midi": 57,
                    "time": 63.724839999999936,
                    "velocity": 0.2204724409448819,
                    "duration": 0.41112799999999794
                },
                {
                    "name": "B3",
                    "midi": 59,
                    "time": 64.13596799999993,
                    "velocity": 0.2204724409448819,
                    "duration": 0.41112800000000504
                },
                {
                    "name": "D#4",
                    "midi": 63,
                    "time": 64.13596799999993,
                    "velocity": 0.25984251968503935,
                    "duration": 0.41112800000000504
                },
                {
                    "name": "E4",
                    "midi": 64,
                    "time": 64.54709599999994,
                    "velocity": 0.2440944881889764,
                    "duration": 0.8222559999999959
                },
                {
                    "name": "C4",
                    "midi": 60,
                    "time": 64.54709599999994,
                    "velocity": 0.2047244094488189,
                    "duration": 0.41112799999999083
                },
                {
                    "name": "A3",
                    "midi": 57,
                    "time": 64.95822399999993,
                    "velocity": 0.2440944881889764,
                    "duration": 0.41112800000000504
                },
                {
                    "name": "B3",
                    "midi": 59,
                    "time": 65.36935199999994,
                    "velocity": 0.2440944881889764,
                    "duration": 0.41112799999999083
                },
                {
                    "name": "D#4",
                    "midi": 63,
                    "time": 65.36935199999994,
                    "velocity": 0.29133858267716534,
                    "duration": 0.41112799999999083
                },
                {
                    "name": "C4",
                    "midi": 60,
                    "time": 65.78047999999993,
                    "velocity": 0.2204724409448819,
                    "duration": 0.41112800000001926
                },
                {
                    "name": "E4",
                    "midi": 64,
                    "time": 65.78047999999993,
                    "velocity": 0.25984251968503935,
                    "duration": 0.41112800000001926
                },
                {
                    "name": "A3",
                    "midi": 57,
                    "time": 66.19160799999995,
                    "velocity": 0.2677165354330709,
                    "duration": 0.41112800000000504
                },
                {
                    "name": "F#4",
                    "midi": 66,
                    "time": 66.19160799999995,
                    "velocity": 0.31496062992125984,
                    "duration": 0.41112800000000504
                },
                {
                    "name": "E4",
                    "midi": 64,
                    "time": 66.60273599999995,
                    "velocity": 0.2677165354330709,
                    "duration": 0.41112799999999083
                },
                {
                    "name": "G#4",
                    "midi": 68,
                    "time": 66.60273599999995,
                    "velocity": 0.31496062992125984,
                    "duration": 0.41112799999999083
                },
                {
                    "name": "A4",
                    "midi": 69,
                    "time": 67.01386399999994,
                    "velocity": 0.30708661417322836,
                    "duration": 0.41112799999999083
                },
                {
                    "name": "F4",
                    "midi": 65,
                    "time": 67.01386399999994,
                    "velocity": 0.25984251968503935,
                    "duration": 0.41112799999999083
                },
                {
                    "name": "B4",
                    "midi": 71,
                    "time": 67.42499199999993,
                    "velocity": 0.30708661417322836,
                    "duration": 0.41112800000000504
                },
                {
                    "name": "D4",
                    "midi": 62,
                    "time": 67.42499199999993,
                    "velocity": 0.29133858267716534,
                    "duration": 0.41112800000000504
                },
                {
                    "name": "A4",
                    "midi": 69,
                    "time": 67.83611999999994,
                    "velocity": 0.29133858267716534,
                    "duration": 0.41112799999999083
                },
                {
                    "name": "C#5",
                    "midi": 73,
                    "time": 67.83611999999994,
                    "velocity": 0.3543307086614173,
                    "duration": 0.41112799999999083
                },
                {
                    "name": "D5",
                    "midi": 74,
                    "time": 68.24724799999993,
                    "velocity": 0.33858267716535434,
                    "duration": 0.8222560000000101
                },
                {
                    "name": "A#4",
                    "midi": 70,
                    "time": 68.24724799999993,
                    "velocity": 0.2755905511811024,
                    "duration": 0.41112800000000504
                },
                {
                    "name": "G4",
                    "midi": 67,
                    "time": 68.65837599999993,
                    "velocity": 0.31496062992125984,
                    "duration": 0.41112800000000504
                },
                {
                    "name": "A4",
                    "midi": 69,
                    "time": 69.06950399999994,
                    "velocity": 0.31496062992125984,
                    "duration": 0.41112800000000504
                },
                {
                    "name": "C#5",
                    "midi": 73,
                    "time": 69.06950399999994,
                    "velocity": 0.3858267716535433,
                    "duration": 0.41112800000000504
                },
                {
                    "name": "D5",
                    "midi": 74,
                    "time": 69.48063199999994,
                    "velocity": 0.3700787401574803,
                    "duration": 0.8222559999999959
                },
                {
                    "name": "A#4",
                    "midi": 70,
                    "time": 69.48063199999994,
                    "velocity": 0.30708661417322836,
                    "duration": 0.41112799999999083
                },
                {
                    "name": "G4",
                    "midi": 67,
                    "time": 69.89175999999993,
                    "velocity": 0.31496062992125984,
                    "duration": 0.41112800000000504
                },
                {
                    "name": "C#5",
                    "midi": 73,
                    "time": 70.30288799999994,
                    "velocity": 0.3858267716535433,
                    "duration": 0.41112800000000504
                },
                {
                    "name": "A4",
                    "midi": 69,
                    "time": 70.30288799999994,
                    "velocity": 0.31496062992125984,
                    "duration": 0.41112800000000504
                },
                {
                    "name": "D5",
                    "midi": 74,
                    "time": 70.71401599999994,
                    "velocity": 0.3700787401574803,
                    "duration": 1.2333839999999867
                },
                {
                    "name": "F4",
                    "midi": 65,
                    "time": 70.71401599999994,
                    "velocity": 0.30708661417322836,
                    "duration": 0.41112799999999083
                },
                {
                    "name": "A#4",
                    "midi": 70,
                    "time": 71.12514399999993,
                    "velocity": 0.31496062992125984,
                    "duration": 0.41112800000000504
                },
                {
                    "name": "E4",
                    "midi": 64,
                    "time": 71.53627199999994,
                    "velocity": 0.31496062992125984,
                    "duration": 0.41112799999999083
                },
                {
                    "name": "C5",
                    "midi": 72,
                    "time": 71.94739999999993,
                    "velocity": 0.3543307086614173,
                    "duration": 0.8222560000000101
                },
                {
                    "name": "A4",
                    "midi": 69,
                    "time": 71.94739999999993,
                    "velocity": 0.29133858267716534,
                    "duration": 0.41112800000000504
                },
                {
                    "name": "D4",
                    "midi": 62,
                    "time": 72.35852799999994,
                    "velocity": 0.2992125984251969,
                    "duration": 0.41112800000000504
                },
                {
                    "name": "A#4",
                    "midi": 70,
                    "time": 72.76965599999994,
                    "velocity": 0.3543307086614173,
                    "duration": 0.8222560000000101
                },
                {
                    "name": "G4",
                    "midi": 67,
                    "time": 72.76965599999994,
                    "velocity": 0.29133858267716534,
                    "duration": 0.41112800000000504
                },
                {
                    "name": "C#4",
                    "midi": 61,
                    "time": 73.18078399999995,
                    "velocity": 0.2677165354330709,
                    "duration": 0.41112800000000504
                },
                {
                    "name": "A4",
                    "midi": 69,
                    "time": 73.59191199999995,
                    "velocity": 0.3464566929133858,
                    "duration": 1.6445120000000202
                },
                {
                    "name": "F4",
                    "midi": 65,
                    "time": 73.59191199999995,
                    "velocity": 0.28346456692913385,
                    "duration": 0.41112800000000504
                },
                {
                    "name": "B3",
                    "midi": 59,
                    "time": 74.00303999999996,
                    "velocity": 0.28346456692913385,
                    "duration": 0.8222560000000101
                },
                {
                    "name": "D4",
                    "midi": 62,
                    "time": 74.82529599999997,
                    "velocity": 0.2677165354330709,
                    "duration": 0.41112800000000504
                },
                {
                    "name": "G#4",
                    "midi": 68,
                    "time": 75.23642399999997,
                    "velocity": 0.30708661417322836,
                    "duration": 0.41112799999999083
                },
                {
                    "name": "E4",
                    "midi": 64,
                    "time": 75.23642399999997,
                    "velocity": 0.25984251968503935,
                    "duration": 0.41112799999999083
                },
                {
                    "name": "A4",
                    "midi": 69,
                    "time": 75.64755199999996,
                    "velocity": 0.2755905511811024,
                    "duration": 0.8222559999999959
                },
                {
                    "name": "F4",
                    "midi": 65,
                    "time": 75.64755199999996,
                    "velocity": 0.2283464566929134,
                    "duration": 0.41112799999999083
                },
                {
                    "name": "D4",
                    "midi": 62,
                    "time": 76.05867999999995,
                    "velocity": 0.25984251968503935,
                    "duration": 0.41112800000000504
                },
                {
                    "name": "E4",
                    "midi": 64,
                    "time": 76.46980799999996,
                    "velocity": 0.25984251968503935,
                    "duration": 0.41112799999999083
                },
                {
                    "name": "G#4",
                    "midi": 68,
                    "time": 76.46980799999996,
                    "velocity": 0.30708661417322836,
                    "duration": 0.41112799999999083
                },
                {
                    "name": "A4",
                    "midi": 69,
                    "time": 76.88093599999995,
                    "velocity": 0.2440944881889764,
                    "duration": 0.8222560000000101
                },
                {
                    "name": "F4",
                    "midi": 65,
                    "time": 76.88093599999995,
                    "velocity": 0.2047244094488189,
                    "duration": 0.41112800000000504
                },
                {
                    "name": "D4",
                    "midi": 62,
                    "time": 77.29206399999995,
                    "velocity": 0.2283464566929134,
                    "duration": 0.41112800000000504
                },
                {
                    "name": "G#4",
                    "midi": 68,
                    "time": 77.70319199999996,
                    "velocity": 0.2677165354330709,
                    "duration": 0.41112799999999083
                },
                {
                    "name": "E4",
                    "midi": 64,
                    "time": 77.70319199999996,
                    "velocity": 0.2283464566929134,
                    "duration": 0.41112799999999083
                },
                {
                    "name": "A4",
                    "midi": 69,
                    "time": 78.11431999999995,
                    "velocity": 0.2283464566929134,
                    "duration": 0.8222559999999959
                },
                {
                    "name": "F4",
                    "midi": 65,
                    "time": 78.11431999999995,
                    "velocity": 0.1889763779527559,
                    "duration": 0.41112799999999083
                },
                {
                    "name": "D4",
                    "midi": 62,
                    "time": 78.52544799999994,
                    "velocity": 0.2204724409448819,
                    "duration": 0.41112800000000504
                },
                {
                    "name": "E4",
                    "midi": 64,
                    "time": 78.93657599999995,
                    "velocity": 0.2204724409448819,
                    "duration": 0.41112800000000504
                },
                {
                    "name": "G#4",
                    "midi": 68,
                    "time": 78.93657599999995,
                    "velocity": 0.25984251968503935,
                    "duration": 0.41112800000000504
                },
                {
                    "name": "C#4",
                    "midi": 61,
                    "time": 79.34770399999995,
                    "velocity": 0.1889763779527559,
                    "duration": 0.41112799999999083
                },
                {
                    "name": "A4",
                    "midi": 69,
                    "time": 79.34770399999995,
                    "velocity": 0.2283464566929134,
                    "duration": 0.41112799999999083
                },
                {
                    "name": "D4",
                    "midi": 62,
                    "time": 79.75883199999994,
                    "velocity": 0.18110236220472442,
                    "duration": 0.41112800000000504
                },
                {
                    "name": "F4",
                    "midi": 65,
                    "time": 79.75883199999994,
                    "velocity": 0.2125984251968504,
                    "duration": 0.41112800000000504
                },
                {
                    "name": "B3",
                    "midi": 59,
                    "time": 80.16995999999995,
                    "velocity": 0.1732283464566929,
                    "duration": 0.41112799999999083
                },
                {
                    "name": "G4",
                    "midi": 67,
                    "time": 80.16995999999995,
                    "velocity": 0.2047244094488189,
                    "duration": 0.41112799999999083
                },
                {
                    "name": "C#4",
                    "midi": 61,
                    "time": 80.58108799999994,
                    "velocity": 0.1732283464566929,
                    "duration": 0.41112800000000504
                },
                {
                    "name": "E4",
                    "midi": 64,
                    "time": 80.58108799999994,
                    "velocity": 0.2047244094488189,
                    "duration": 0.41112800000000504
                },
                {
                    "name": "A3",
                    "midi": 57,
                    "time": 80.99221599999994,
                    "velocity": 0.16535433070866143,
                    "duration": 0.41112800000000504
                },
                {
                    "name": "F4",
                    "midi": 65,
                    "time": 80.99221599999994,
                    "velocity": 0.1968503937007874,
                    "duration": 0.41112800000000504
                },
                {
                    "name": "B3",
                    "midi": 59,
                    "time": 81.40334399999995,
                    "velocity": 0.16535433070866143,
                    "duration": 0.41112799999999083
                },
                {
                    "name": "D4",
                    "midi": 62,
                    "time": 81.40334399999995,
                    "velocity": 0.1968503937007874,
                    "duration": 0.41112799999999083
                },
                {
                    "name": "G3",
                    "midi": 55,
                    "time": 81.81447199999994,
                    "velocity": 0.14960629921259844,
                    "duration": 0.41112799999999083
                },
                {
                    "name": "E4",
                    "midi": 64,
                    "time": 81.81447199999994,
                    "velocity": 0.1889763779527559,
                    "duration": 0.41112799999999083
                },
                {
                    "name": "A3",
                    "midi": 57,
                    "time": 82.22559999999993,
                    "velocity": 0.14173228346456693,
                    "duration": 0.41112800000000504
                },
                {
                    "name": "C#4",
                    "midi": 61,
                    "time": 82.22559999999993,
                    "velocity": 0.18110236220472442,
                    "duration": 0.41112800000000504
                },
                {
                    "name": "F#3",
                    "midi": 54,
                    "time": 82.63672799999993,
                    "velocity": 0.14173228346456693,
                    "duration": 0.41112799999999083
                },
                {
                    "name": "E4",
                    "midi": 64,
                    "time": 82.63672799999993,
                    "velocity": 0.18110236220472442,
                    "duration": 0.41112799999999083
                },
                {
                    "name": "F3",
                    "midi": 53,
                    "time": 83.04785599999992,
                    "velocity": 0.14173228346456693,
                    "duration": 0.41112800000000504
                },
                {
                    "name": "A3",
                    "midi": 57,
                    "time": 83.04785599999992,
                    "velocity": 0.18110236220472442,
                    "duration": 0.41112800000000504
                },
                {
                    "name": "D3",
                    "midi": 50,
                    "time": 83.45898399999993,
                    "velocity": 0.14173228346456693,
                    "duration": 0.41112800000000504
                },
                {
                    "name": "D4",
                    "midi": 62,
                    "time": 83.45898399999993,
                    "velocity": 0.18110236220472442,
                    "duration": 0.41112800000000504
                },
                {
                    "name": "A1",
                    "midi": 33,
                    "time": 83.87011199999993,
                    "velocity": 0.4015748031496063,
                    "duration": 0.27408533333333196
                },
                {
                    "name": "A2",
                    "midi": 45,
                    "time": 84.14419733333327,
                    "velocity": 0.3779527559055118,
                    "duration": 2.19268266666667
                },
                {
                    "name": "E3",
                    "midi": 52,
                    "time": 84.4182826666666,
                    "velocity": 0.33858267716535434,
                    "duration": 0.27408533333333196
                },
                {
                    "name": "D3",
                    "midi": 50,
                    "time": 84.69236799999993,
                    "velocity": 0.29133858267716534,
                    "duration": 1.644512000000006
                },
                {
                    "name": "A1",
                    "midi": 33,
                    "time": 86.33687999999994,
                    "velocity": 0.3464566929133858,
                    "duration": 0.27408533333333196
                },
                {
                    "name": "A2",
                    "midi": 45,
                    "time": 86.61096533333327,
                    "velocity": 0.33070866141732286,
                    "duration": 2.19268266666667
                },
                {
                    "name": "E3",
                    "midi": 52,
                    "time": 86.8850506666666,
                    "velocity": 0.29133858267716534,
                    "duration": 0.27408533333333196
                },
                {
                    "name": "F#3",
                    "midi": 54,
                    "time": 87.15913599999993,
                    "velocity": 0.25196850393700787,
                    "duration": 1.644512000000006
                },
                {
                    "name": "A1",
                    "midi": 33,
                    "time": 88.80364799999994,
                    "velocity": 0.3700787401574803,
                    "duration": 0.27408533333333196
                },
                {
                    "name": "A2",
                    "midi": 45,
                    "time": 89.07773333333327,
                    "velocity": 0.33070866141732286,
                    "duration": 2.19268266666667
                },
                {
                    "name": "C#3",
                    "midi": 49,
                    "time": 89.3518186666666,
                    "velocity": 0.33070866141732286,
                    "duration": 0.27408533333333196
                },
                {
                    "name": "D#3",
                    "midi": 51,
                    "time": 89.62590399999993,
                    "velocity": 0.33070866141732286,
                    "duration": 1.644512000000006
                },
                {
                    "name": "E2",
                    "midi": 40,
                    "time": 91.27041599999994,
                    "velocity": 0.30708661417322836,
                    "duration": 1.644512000000006
                },
                {
                    "name": "B2",
                    "midi": 47,
                    "time": 91.68154399999995,
                    "velocity": 0.2677165354330709,
                    "duration": 0.41112800000000504
                },
                {
                    "name": "E3",
                    "midi": 52,
                    "time": 92.09267199999995,
                    "velocity": 0.25196850393700787,
                    "duration": 1.6445119999999918
                },
                {
                    "name": "A2",
                    "midi": 45,
                    "time": 93.73718399999994,
                    "velocity": 0.30708661417322836,
                    "duration": 0.27408533333333196
                },
                {
                    "name": "A3",
                    "midi": 57,
                    "time": 94.01126933333327,
                    "velocity": 0.30708661417322836,
                    "duration": 0.27408533333333196
                },
                {
                    "name": "E4",
                    "midi": 64,
                    "time": 94.2853546666666,
                    "velocity": 0.30708661417322836,
                    "duration": 0.27408533333333196
                },
                {
                    "name": "A3",
                    "midi": 57,
                    "time": 94.55943999999994,
                    "velocity": 0.1968503937007874,
                    "duration": 1.644512000000006
                },
                {
                    "name": "D4",
                    "midi": 62,
                    "time": 94.55943999999994,
                    "velocity": 0.2204724409448819,
                    "duration": 1.644512000000006
                },
                {
                    "name": "A2",
                    "midi": 45,
                    "time": 96.20395199999994,
                    "velocity": 0.28346456692913385,
                    "duration": 0.27408533333333196
                },
                {
                    "name": "A3",
                    "midi": 57,
                    "time": 96.47803733333328,
                    "velocity": 0.28346456692913385,
                    "duration": 0.27408533333333196
                },
                {
                    "name": "E4",
                    "midi": 64,
                    "time": 96.75212266666661,
                    "velocity": 0.28346456692913385,
                    "duration": 0.27408533333333196
                },
                {
                    "name": "A3",
                    "midi": 57,
                    "time": 97.02620799999994,
                    "velocity": 0.1889763779527559,
                    "duration": 1.6445119999999918
                },
                {
                    "name": "F#4",
                    "midi": 66,
                    "time": 97.02620799999994,
                    "velocity": 0.2125984251968504,
                    "duration": 1.6445119999999918
                },
                {
                    "name": "A2",
                    "midi": 45,
                    "time": 98.67071999999993,
                    "velocity": 0.33070866141732286,
                    "duration": 0.27408533333333196
                },
                {
                    "name": "A3",
                    "midi": 57,
                    "time": 98.94480533333326,
                    "velocity": 0.33070866141732286,
                    "duration": 0.27408533333333196
                },
                {
                    "name": "C#4",
                    "midi": 61,
                    "time": 99.2188906666666,
                    "velocity": 0.30708661417322836,
                    "duration": 0.27408533333333196
                },
                {
                    "name": "A3",
                    "midi": 57,
                    "time": 99.49297599999993,
                    "velocity": 0.25196850393700787,
                    "duration": 1.644512000000006
                },
                {
                    "name": "D#4",
                    "midi": 63,
                    "time": 99.49297599999993,
                    "velocity": 0.28346456692913385,
                    "duration": 1.644512000000006
                },
                {
                    "name": "E3",
                    "midi": 52,
                    "time": 101.13748799999993,
                    "velocity": 0.2992125984251969,
                    "duration": 2.4667679999999876
                },
                {
                    "name": "B3",
                    "midi": 59,
                    "time": 101.54861599999992,
                    "velocity": 0.23622047244094488,
                    "duration": 0.41112799999999083
                },
                {
                    "name": "E4",
                    "midi": 64,
                    "time": 101.95974399999992,
                    "velocity": 0.25196850393700787,
                    "duration": 1.644512000000006
                },
                {
                    "name": "A1",
                    "midi": 33,
                    "time": 103.60425599999992,
                    "velocity": 0.4251968503937008,
                    "duration": 0.27408533333333196
                },
                {
                    "name": "A2",
                    "midi": 45,
                    "time": 103.87834133333325,
                    "velocity": 0.36220472440944884,
                    "duration": 1.370426666666674
                },
                {
                    "name": "C#3",
                    "midi": 49,
                    "time": 104.15242666666659,
                    "velocity": 0.4015748031496063,
                    "duration": 0.27408533333333196
                },
                {
                    "name": "D#3",
                    "midi": 51,
                    "time": 104.42651199999992,
                    "velocity": 0.4566929133858268,
                    "duration": 1.6445120000000202
                },
                {
                    "name": "A2",
                    "midi": 45,
                    "time": 105.24876799999993,
                    "velocity": 0.36220472440944884,
                    "duration": 0.8222560000000101
                },
                {
                    "name": "E2",
                    "midi": 40,
                    "time": 106.07102399999994,
                    "velocity": 0.3858267716535433,
                    "duration": 0.41112800000000504
                },
                {
                    "name": "B2",
                    "midi": 47,
                    "time": 106.07102399999994,
                    "velocity": 0.4251968503937008,
                    "duration": 0.41112800000000504
                },
                {
                    "name": "E3",
                    "midi": 52,
                    "time": 106.89327999999995,
                    "velocity": 0.4251968503937008,
                    "duration": 0.30834600000000023
                },
                {
                    "name": "B3",
                    "midi": 59,
                    "time": 106.89327999999995,
                    "velocity": 0.48031496062992124,
                    "duration": 0.30834600000000023
                },
                {
                    "name": "E4",
                    "midi": 64,
                    "time": 107.71553599999994,
                    "velocity": 0.4645669291338583,
                    "duration": 0.30834600000000023
                },
                {
                    "name": "B4",
                    "midi": 71,
                    "time": 107.71553599999994,
                    "velocity": 0.5275590551181102,
                    "duration": 0.30834600000000023
                },
                {
                    "name": "E4",
                    "midi": 64,
                    "time": 108.53779199999994,
                    "velocity": 0.5196850393700787,
                    "duration": 2.4667679999999876
                },
                {
                    "name": "D5",
                    "midi": 74,
                    "time": 108.53779199999994,
                    "velocity": 0.5196850393700787,
                    "duration": 0.41112799999999083
                },
                {
                    "name": "B4",
                    "midi": 71,
                    "time": 108.94891999999993,
                    "velocity": 0.44881889763779526,
                    "duration": 0.41112800000000504
                },
                {
                    "name": "C5",
                    "midi": 72,
                    "time": 109.36004799999994,
                    "velocity": 0.48031496062992124,
                    "duration": 0.41112799999999083
                },
                {
                    "name": "A4",
                    "midi": 69,
                    "time": 109.77117599999993,
                    "velocity": 0.44881889763779526,
                    "duration": 0.41112800000000504
                },
                {
                    "name": "B4",
                    "midi": 71,
                    "time": 110.18230399999993,
                    "velocity": 0.48031496062992124,
                    "duration": 0.41112799999999083
                },
                {
                    "name": "G4",
                    "midi": 67,
                    "time": 110.59343199999992,
                    "velocity": 0.4330708661417323,
                    "duration": 0.41112800000000504
                },
                {
                    "name": "E4",
                    "midi": 64,
                    "time": 111.00455999999993,
                    "velocity": 0.2992125984251969,
                    "duration": 2.466768000000002
                },
                {
                    "name": "A4",
                    "midi": 69,
                    "time": 111.00455999999993,
                    "velocity": 0.4566929133858268,
                    "duration": 0.8222559999999959
                },
                {
                    "name": "B4",
                    "midi": 71,
                    "time": 111.82681599999992,
                    "velocity": 0.4409448818897638,
                    "duration": 0.41112800000000504
                },
                {
                    "name": "A4",
                    "midi": 69,
                    "time": 112.23794399999993,
                    "velocity": 0.41732283464566927,
                    "duration": 0.41112799999999083
                },
                {
                    "name": "G4",
                    "midi": 67,
                    "time": 112.64907199999992,
                    "velocity": 0.4094488188976378,
                    "duration": 0.41112800000000504
                },
                {
                    "name": "F4",
                    "midi": 65,
                    "time": 113.06019999999992,
                    "velocity": 0.3700787401574803,
                    "duration": 0.41112800000000504
                },
                {
                    "name": "E4",
                    "midi": 64,
                    "time": 113.47132799999993,
                    "velocity": 0.3464566929133858,
                    "duration": 0.41112800000000504
                },
                {
                    "name": "A3",
                    "midi": 57,
                    "time": 113.88245599999993,
                    "velocity": 0.3779527559055118,
                    "duration": 0.41112800000000504
                },
                {
                    "name": "D3",
                    "midi": 50,
                    "time": 114.29358399999994,
                    "velocity": 0.36220472440944884,
                    "duration": 0.41112799999999083
                },
                {
                    "name": "G2",
                    "midi": 43,
                    "time": 114.70471199999993,
                    "velocity": 0.2992125984251969,
                    "duration": 0.41112799999999083
                },
                {
                    "name": "C2",
                    "midi": 36,
                    "time": 115.11583999999992,
                    "velocity": 0.29133858267716534,
                    "duration": 0.41112799999999083
                },
                {
                    "name": "F2",
                    "midi": 41,
                    "time": 115.52696799999991,
                    "velocity": 0.2677165354330709,
                    "duration": 0.41112800000000504
                },
                {
                    "name": "E2",
                    "midi": 40,
                    "time": 115.93809599999992,
                    "velocity": 0.25196850393700787,
                    "duration": 0.41112800000000504
                },
                {
                    "name": "A2",
                    "midi": 45,
                    "time": 116.34922399999992,
                    "velocity": 0.25196850393700787,
                    "duration": 0.41112800000000504
                },
                {
                    "name": "D2",
                    "midi": 38,
                    "time": 116.76035199999993,
                    "velocity": 0.25196850393700787,
                    "duration": 0.41112799999999083
                },
                {
                    "name": "G1",
                    "midi": 31,
                    "time": 117.17147999999992,
                    "velocity": 0.25196850393700787,
                    "duration": 0.41112799999999083
                },
                {
                    "name": "C2",
                    "midi": 36,
                    "time": 117.58260799999991,
                    "velocity": 0.25196850393700787,
                    "duration": 0.41112799999999083
                },
                {
                    "name": "A2",
                    "midi": 45,
                    "time": 117.9937359999999,
                    "velocity": 0.25196850393700787,
                    "duration": 0.41112799999999083
                },
                {
                    "name": "D2",
                    "midi": 38,
                    "time": 118.40486399999989,
                    "velocity": 0.2755905511811024,
                    "duration": 0.41112800000000504
                },
                {
                    "name": "G1",
                    "midi": 31,
                    "time": 118.8159919999999,
                    "velocity": 0.2755905511811024,
                    "duration": 0.41112800000000504
                },
                {
                    "name": "C2",
                    "midi": 36,
                    "time": 119.2271199999999,
                    "velocity": 0.2440944881889764,
                    "duration": 0.41112799999999083
                },
                {
                    "name": "A2",
                    "midi": 45,
                    "time": 119.63824799999989,
                    "velocity": 0.2440944881889764,
                    "duration": 0.41112800000000504
                },
                {
                    "name": "D2",
                    "midi": 38,
                    "time": 120.0493759999999,
                    "velocity": 0.2204724409448819,
                    "duration": 0.41112800000000504
                },
                {
                    "name": "D1",
                    "midi": 26,
                    "time": 120.4605039999999,
                    "velocity": 0.2204724409448819,
                    "duration": 0.41112799999999083
                },
                {
                    "name": "A1",
                    "midi": 33,
                    "time": 120.87163199999989,
                    "velocity": 0.29133858267716534,
                    "duration": 0.27408533333333196
                },
                {
                    "name": "A2",
                    "midi": 45,
                    "time": 121.14571733333322,
                    "velocity": 0.2755905511811024,
                    "duration": 0.27408533333333196
                },
                {
                    "name": "E3",
                    "midi": 52,
                    "time": 121.41980266666656,
                    "velocity": 0.29133858267716534,
                    "duration": 0.27408533333333196
                },
                {
                    "name": "A2",
                    "midi": 45,
                    "time": 121.69388799999989,
                    "velocity": 0.2204724409448819,
                    "duration": 1.6445119999999918
                },
                {
                    "name": "D3",
                    "midi": 50,
                    "time": 121.69388799999989,
                    "velocity": 0.2440944881889764,
                    "duration": 1.6445119999999918
                },
                {
                    "name": "A1",
                    "midi": 33,
                    "time": 123.33839999999988,
                    "velocity": 0.25196850393700787,
                    "duration": 0.27408533333334617
                },
                {
                    "name": "A2",
                    "midi": 45,
                    "time": 123.61248533333323,
                    "velocity": 0.28346456692913385,
                    "duration": 0.27408533333333196
                },
                {
                    "name": "E3",
                    "midi": 52,
                    "time": 123.88657066666656,
                    "velocity": 0.2992125984251969,
                    "duration": 0.27408533333333196
                },
                {
                    "name": "A2",
                    "midi": 45,
                    "time": 124.16065599999989,
                    "velocity": 0.2047244094488189,
                    "duration": 1.644512000000006
                },
                {
                    "name": "F3",
                    "midi": 53,
                    "time": 124.16065599999989,
                    "velocity": 0.2283464566929134,
                    "duration": 1.644512000000006
                },
                {
                    "name": "A1",
                    "midi": 33,
                    "time": 125.8051679999999,
                    "velocity": 0.25984251968503935,
                    "duration": 0.27408533333334617
                },
                {
                    "name": "A2",
                    "midi": 45,
                    "time": 126.07925333333324,
                    "velocity": 0.25984251968503935,
                    "duration": 0.27408533333333196
                },
                {
                    "name": "C3",
                    "midi": 48,
                    "time": 126.35333866666657,
                    "velocity": 0.25984251968503935,
                    "duration": 0.27408533333333196
                },
                {
                    "name": "A2",
                    "midi": 45,
                    "time": 126.6274239999999,
                    "velocity": 0.1968503937007874,
                    "duration": 1.6445120000000202
                },
                {
                    "name": "D#3",
                    "midi": 51,
                    "time": 126.6274239999999,
                    "velocity": 0.2204724409448819,
                    "duration": 1.6445120000000202
                },
                {
                    "name": "E2",
                    "midi": 40,
                    "time": 128.27193599999993,
                    "velocity": 0.2047244094488189,
                    "duration": 2.4667680000000303
                },
                {
                    "name": "B2",
                    "midi": 47,
                    "time": 128.54602133333327,
                    "velocity": 0.2125984251968504,
                    "duration": 0.27408533333334617
                },
                {
                    "name": "E3",
                    "midi": 52,
                    "time": 128.82010666666662,
                    "velocity": 0.2125984251968504,
                    "duration": 1.918597333333338
                },
                {
                    "name": "A1",
                    "midi": 33,
                    "time": 130.73870399999996,
                    "velocity": 0.29133858267716534,
                    "duration": 0.27408533333334617
                },
                {
                    "name": "A2",
                    "midi": 45,
                    "time": 131.0127893333333,
                    "velocity": 0.31496062992125984,
                    "duration": 0.27408533333334617
                },
                {
                    "name": "E3",
                    "midi": 52,
                    "time": 131.28687466666665,
                    "velocity": 0.3543307086614173,
                    "duration": 0.27408533333334617
                },
                {
                    "name": "A2",
                    "midi": 45,
                    "time": 131.56096,
                    "velocity": 0.28346456692913385,
                    "duration": 1.6445119999999918
                },
                {
                    "name": "A3",
                    "midi": 57,
                    "time": 131.56096,
                    "velocity": 0.31496062992125984,
                    "duration": 1.6445119999999918
                },
                {
                    "name": "D2",
                    "midi": 38,
                    "time": 133.205472,
                    "velocity": 0.33858267716535434,
                    "duration": 0.27408533333334617
                },
                {
                    "name": "D3",
                    "midi": 50,
                    "time": 133.47955733333333,
                    "velocity": 0.36220472440944884,
                    "duration": 0.27408533333334617
                },
                {
                    "name": "A3",
                    "midi": 57,
                    "time": 133.75364266666668,
                    "velocity": 0.3779527559055118,
                    "duration": 0.27408533333334617
                },
                {
                    "name": "D#3",
                    "midi": 51,
                    "time": 134.02772800000002,
                    "velocity": 0.31496062992125984,
                    "duration": 1.6445119999999918
                },
                {
                    "name": "C4",
                    "midi": 60,
                    "time": 134.02772800000002,
                    "velocity": 0.36220472440944884,
                    "duration": 1.6445119999999918
                },
                {
                    "name": "E2",
                    "midi": 40,
                    "time": 135.67224000000002,
                    "velocity": 0.3464566929133858,
                    "duration": 0.27408533333331775
                },
                {
                    "name": "E3",
                    "midi": 52,
                    "time": 135.94632533333333,
                    "velocity": 0.3464566929133858,
                    "duration": 0.27408533333334617
                },
                {
                    "name": "G3",
                    "midi": 55,
                    "time": 136.22041066666668,
                    "velocity": 0.3464566929133858,
                    "duration": 0.27408533333334617
                },
                {
                    "name": "C4",
                    "midi": 60,
                    "time": 136.49449600000003,
                    "velocity": 0.31496062992125984,
                    "duration": 1.233384000000001
                },
                {
                    "name": "E3",
                    "midi": 52,
                    "time": 136.49449600000003,
                    "velocity": 0.28346456692913385,
                    "duration": 0.8222560000000101
                },
                {
                    "name": "F3",
                    "midi": 53,
                    "time": 137.31675200000004,
                    "velocity": 0.29133858267716534,
                    "duration": 0.8222559999999817
                },
                {
                    "name": "A3",
                    "midi": 57,
                    "time": 137.72788000000003,
                    "velocity": 0.25196850393700787,
                    "duration": 0.41112799999999083
                },
                {
                    "name": "E3",
                    "midi": 52,
                    "time": 138.13900800000002,
                    "velocity": 0.3700787401574803,
                    "duration": 0.41112800000001926
                },
                {
                    "name": "E3",
                    "midi": 52,
                    "time": 138.55013600000004,
                    "velocity": 0.36220472440944884,
                    "duration": 2.0556399999999826
                },
                {
                    "name": "C3",
                    "midi": 48,
                    "time": 138.96126400000003,
                    "velocity": 0.3464566929133858,
                    "duration": 0.8222559999999817
                },
                {
                    "name": "A2",
                    "midi": 45,
                    "time": 139.78352,
                    "velocity": 0.36220472440944884,
                    "duration": 0.8222560000000101
                },
                {
                    "name": "E2",
                    "midi": 40,
                    "time": 141.01690400000004,
                    "velocity": 0.2755905511811024,
                    "duration": 0.41112799999999083
                },
                {
                    "name": "C2",
                    "midi": 36,
                    "time": 141.42803200000003,
                    "velocity": 0.29133858267716534,
                    "duration": 0.8222559999999817
                },
                {
                    "name": "A1",
                    "midi": 33,
                    "time": 142.250288,
                    "velocity": 0.2204724409448819,
                    "duration": 1.0963413333333278
                },
                {
                    "name": "A2",
                    "midi": 45,
                    "time": 143.34662933333334,
                    "velocity": 0.2047244094488189,
                    "duration": 0.27408533333334617
                },
                {
                    "name": "E3",
                    "midi": 52,
                    "time": 143.6207146666667,
                    "velocity": 0.1968503937007874,
                    "duration": 0.27408533333334617
                },
                {
                    "name": "A2",
                    "midi": 45,
                    "time": 143.89480000000003,
                    "velocity": 0.1968503937007874,
                    "duration": 0.27408533333334617
                },
                {
                    "name": "D3",
                    "midi": 50,
                    "time": 144.16888533333338,
                    "velocity": 0.1968503937007874,
                    "duration": 0.27408533333334617
                },
                {
                    "name": "F3",
                    "midi": 53,
                    "time": 144.44297066666672,
                    "velocity": 0.1968503937007874,
                    "duration": 0.27408533333334617
                },
                {
                    "name": "A2",
                    "midi": 45,
                    "time": 144.71705600000007,
                    "velocity": 0.1968503937007874,
                    "duration": 0.8222560000000101
                },
                {
                    "name": "A1",
                    "midi": 33,
                    "time": 145.53931200000008,
                    "velocity": 0.1968503937007874,
                    "duration": 0.27408533333334617
                },
                {
                    "name": "A2",
                    "midi": 45,
                    "time": 145.81339733333343,
                    "velocity": 0.2047244094488189,
                    "duration": 0.27408533333334617
                },
                {
                    "name": "E3",
                    "midi": 52,
                    "time": 146.08748266666677,
                    "velocity": 0.2125984251968504,
                    "duration": 0.27408533333334617
                },
                {
                    "name": "A2",
                    "midi": 45,
                    "time": 146.36156800000012,
                    "velocity": 0.2204724409448819,
                    "duration": 0.27408533333334617
                },
                {
                    "name": "F3",
                    "midi": 53,
                    "time": 146.63565333333347,
                    "velocity": 0.2125984251968504,
                    "duration": 0.27408533333334617
                },
                {
                    "name": "D3",
                    "midi": 50,
                    "time": 146.9097386666668,
                    "velocity": 0.2125984251968504,
                    "duration": 0.27408533333334617
                },
                {
                    "name": "A2",
                    "midi": 45,
                    "time": 147.18382400000016,
                    "velocity": 0.2125984251968504,
                    "duration": 0.8222560000000101
                },
                {
                    "name": "A1",
                    "midi": 33,
                    "time": 148.00608000000017,
                    "velocity": 0.2047244094488189,
                    "duration": 0.27408533333334617
                },
                {
                    "name": "A2",
                    "midi": 45,
                    "time": 148.2801653333335,
                    "velocity": 0.2204724409448819,
                    "duration": 0.27408533333334617
                },
                {
                    "name": "C3",
                    "midi": 48,
                    "time": 148.55425066666686,
                    "velocity": 0.23622047244094488,
                    "duration": 0.27408533333334617
                },
                {
                    "name": "A2",
                    "midi": 45,
                    "time": 148.8283360000002,
                    "velocity": 0.25984251968503935,
                    "duration": 0.27408533333331775
                },
                {
                    "name": "F#3",
                    "midi": 54,
                    "time": 149.10242133333352,
                    "velocity": 0.2440944881889764,
                    "duration": 0.27408533333334617
                },
                {
                    "name": "D#3",
                    "midi": 51,
                    "time": 149.37650666666687,
                    "velocity": 0.2440944881889764,
                    "duration": 0.27408533333334617
                },
                {
                    "name": "A2",
                    "midi": 45,
                    "time": 149.65059200000022,
                    "velocity": 0.2283464566929134,
                    "duration": 0.27408533333331775
                },
                {
                    "name": "F#3",
                    "midi": 54,
                    "time": 149.92467733333353,
                    "velocity": 0.2283464566929134,
                    "duration": 0.27408533333334617
                },
                {
                    "name": "D#3",
                    "midi": 51,
                    "time": 150.19876266666688,
                    "velocity": 0.2283464566929134,
                    "duration": 0.27408533333334617
                },
                {
                    "name": "E2",
                    "midi": 40,
                    "time": 150.47284800000023,
                    "velocity": 0.2125984251968504,
                    "duration": 2.4667680000000303
                },
                {
                    "name": "B2",
                    "midi": 47,
                    "time": 150.74693333333357,
                    "velocity": 0.2204724409448819,
                    "duration": 0.27408533333334617
                },
                {
                    "name": "E3",
                    "midi": 52,
                    "time": 151.02101866666692,
                    "velocity": 0.2204724409448819,
                    "duration": 1.918597333333338
                },
                {
                    "name": "A1",
                    "midi": 33,
                    "time": 152.93961600000026,
                    "velocity": 0.2755905511811024,
                    "duration": 0.27408533333334617
                },
                {
                    "name": "A2",
                    "midi": 45,
                    "time": 153.2137013333336,
                    "velocity": 0.29133858267716534,
                    "duration": 0.27408533333334617
                },
                {
                    "name": "E3",
                    "midi": 52,
                    "time": 153.48778666666695,
                    "velocity": 0.30708661417322836,
                    "duration": 0.27408533333334617
                },
                {
                    "name": "A2",
                    "midi": 45,
                    "time": 153.7618720000003,
                    "velocity": 0.33070866141732286,
                    "duration": 0.27408533333331775
                },
                {
                    "name": "A3",
                    "midi": 57,
                    "time": 154.0359573333336,
                    "velocity": 0.3464566929133858,
                    "duration": 0.27408533333334617
                },
                {
                    "name": "D3",
                    "midi": 50,
                    "time": 154.31004266666696,
                    "velocity": 0.3700787401574803,
                    "duration": 0.27408533333334617
                },
                {
                    "name": "D4",
                    "midi": 62,
                    "time": 154.5841280000003,
                    "velocity": 0.36220472440944884,
                    "duration": 0.27408533333331775
                },
                {
                    "name": "A3",
                    "midi": 57,
                    "time": 154.85821333333362,
                    "velocity": 0.3779527559055118,
                    "duration": 3.014938666666694
                },
                {
                    "name": "A4",
                    "midi": 69,
                    "time": 155.13229866666697,
                    "velocity": 0.3937007874015748,
                    "duration": 2.740853333333348
                },
                {
                    "name": "E4",
                    "midi": 64,
                    "time": 155.40638400000032,
                    "velocity": 0.41732283464566927,
                    "duration": 2.466768000000002
                },
                {
                    "name": "D2",
                    "midi": 38,
                    "time": 157.87315200000032,
                    "velocity": 0.33070866141732286,
                    "duration": 0.27408533333331775
                },
                {
                    "name": "D3",
                    "midi": 50,
                    "time": 158.14723733333363,
                    "velocity": 0.3543307086614173,
                    "duration": 0.27408533333334617
                },
                {
                    "name": "A3",
                    "midi": 57,
                    "time": 158.42132266666698,
                    "velocity": 0.3858267716535433,
                    "duration": 0.27408533333334617
                },
                {
                    "name": "D3",
                    "midi": 50,
                    "time": 158.69540800000033,
                    "velocity": 0.4094488188976378,
                    "duration": 0.27408533333334617
                },
                {
                    "name": "D4",
                    "midi": 62,
                    "time": 158.96949333333367,
                    "velocity": 0.4330708661417323,
                    "duration": 0.27408533333334617
                },
                {
                    "name": "G3",
                    "midi": 55,
                    "time": 159.24357866666702,
                    "velocity": 0.4251968503937008,
                    "duration": 0.27408533333334617
                },
                {
                    "name": "G4",
                    "midi": 67,
                    "time": 159.51766400000037,
                    "velocity": 0.4566929133858268,
                    "duration": 0.27408533333331775
                },
                {
                    "name": "D4",
                    "midi": 62,
                    "time": 159.79174933333368,
                    "velocity": 0.4566929133858268,
                    "duration": 1.370426666666674
                },
                {
                    "name": "D5",
                    "midi": 74,
                    "time": 160.06583466666703,
                    "velocity": 0.49606299212598426,
                    "duration": 0.27408533333334617
                },
                {
                    "name": "A4",
                    "midi": 69,
                    "time": 160.33992000000038,
                    "velocity": 0.5196850393700787,
                    "duration": 2.4667679999999734
                },
                {
                    "name": "D#4",
                    "midi": 63,
                    "time": 161.16217600000036,
                    "velocity": 0.47244094488188976,
                    "duration": 1.6445119999999918
                },
                {
                    "name": "E2",
                    "midi": 40,
                    "time": 162.80668800000035,
                    "velocity": 0.3543307086614173,
                    "duration": 0.27408533333334617
                },
                {
                    "name": "E3",
                    "midi": 52,
                    "time": 163.0807733333337,
                    "velocity": 0.3543307086614173,
                    "duration": 0.27408533333334617
                },
                {
                    "name": "G3",
                    "midi": 55,
                    "time": 163.35485866666704,
                    "velocity": 0.33070866141732286,
                    "duration": 0.27408533333334617
                },
                {
                    "name": "E3",
                    "midi": 52,
                    "time": 163.6289440000004,
                    "velocity": 0.31496062992125984,
                    "duration": 0.8222559999999817
                },
                {
                    "name": "C4",
                    "midi": 60,
                    "time": 163.9030293333337,
                    "velocity": 0.29133858267716534,
                    "duration": 0.5481706666666639
                },
                {
                    "name": "F3",
                    "midi": 53,
                    "time": 164.45120000000037,
                    "velocity": 0.29133858267716534,
                    "duration": 0.8222559999999817
                },
                {
                    "name": "A3",
                    "midi": 57,
                    "time": 164.7252853333337,
                    "velocity": 0.29133858267716534,
                    "duration": 0.5481706666666639
                },
                {
                    "name": "E3",
                    "midi": 52,
                    "time": 165.27345600000035,
                    "velocity": 0.29133858267716534,
                    "duration": 0.41112799999999083
                },
                {
                    "name": "E3",
                    "midi": 52,
                    "time": 165.68458400000034,
                    "velocity": 0.2677165354330709,
                    "duration": 2.055640000000068
                },
                {
                    "name": "D3",
                    "midi": 50,
                    "time": 166.09571200000033,
                    "velocity": 0.29133858267716534,
                    "duration": 0.4282583333333605
                },
                {
                    "name": "C3",
                    "midi": 48,
                    "time": 166.50684000000035,
                    "velocity": 0.2755905511811024,
                    "duration": 0.4282583333333605
                },
                {
                    "name": "B2",
                    "midi": 47,
                    "time": 166.91796800000037,
                    "velocity": 0.2992125984251969,
                    "duration": 0.4282583333333605
                },
                {
                    "name": "A2",
                    "midi": 45,
                    "time": 167.3290960000004,
                    "velocity": 0.2677165354330709,
                    "duration": 0.41112800000001926
                },
                {
                    "name": "E2",
                    "midi": 40,
                    "time": 168.1513520000004,
                    "velocity": 0.2440944881889764,
                    "duration": 0.41112799999999083
                },
                {
                    "name": "D2",
                    "midi": 38,
                    "time": 168.5624800000004,
                    "velocity": 0.2283464566929134,
                    "duration": 0.8222559999999817
                },
                {
                    "name": "C2",
                    "midi": 36,
                    "time": 169.38473600000037,
                    "velocity": 0.2125984251968504,
                    "duration": 0.8222559999999817
                },
                {
                    "name": "B1",
                    "midi": 35,
                    "time": 170.20699200000035,
                    "velocity": 0.1968503937007874,
                    "duration": 0.8222560000000101
                },
                {
                    "name": "A1",
                    "midi": 33,
                    "time": 171.02924800000036,
                    "velocity": 0.2047244094488189,
                    "duration": 0.8222559999999817
                }
            ],
            "controlChanges": {
                "7": [
                    {
                        "number": 7,
                        "time": 0,
                        "value": 0.7874015748031497
                    }
                ],
                "10": [
                    {
                        "number": 10,
                        "time": 0,
                        "value": 0.5039370078740157
                    }
                ],
                "64": [
                    {
                        "number": 64,
                        "time": 0.09592986666666668,
                        "value": 1
                    },
                    {
                        "number": 64,
                        "time": 0.8548036333333334,
                        "value": 0
                    },
                    {
                        "number": 64,
                        "time": 1.0278200000000002,
                        "value": 1
                    },
                    {
                        "number": 64,
                        "time": 2.466768,
                        "value": 0
                    },
                    {
                        "number": 64,
                        "time": 2.6243670666666667,
                        "value": 1
                    },
                    {
                        "number": 64,
                        "time": 3.3198586,
                        "value": 0
                    },
                    {
                        "number": 64,
                        "time": 3.7720994,
                        "value": 1
                    },
                    {
                        "number": 64,
                        "time": 4.933536,
                        "value": 0
                    },
                    {
                        "number": 64,
                        "time": 5.043170133333334,
                        "value": 1
                    },
                    {
                        "number": 64,
                        "time": 5.786626600000002,
                        "value": 0
                    },
                    {
                        "number": 64,
                        "time": 6.178911233333335,
                        "value": 1
                    },
                    {
                        "number": 64,
                        "time": 7.424286466666668,
                        "value": 0
                    },
                    {
                        "number": 64,
                        "time": 7.605868000000002,
                        "value": 1
                    },
                    {
                        "number": 64,
                        "time": 9.867072000000002,
                        "value": 0
                    },
                    {
                        "number": 64,
                        "time": 10.072636000000003,
                        "value": 1
                    },
                    {
                        "number": 64,
                        "time": 10.71331046666667,
                        "value": 0
                    },
                    {
                        "number": 64,
                        "time": 10.99082186666667,
                        "value": 1
                    },
                    {
                        "number": 64,
                        "time": 12.333840000000002,
                        "value": 0
                    },
                    {
                        "number": 64,
                        "time": 12.515421533333335,
                        "value": 1
                    },
                    {
                        "number": 64,
                        "time": 13.169800266666668,
                        "value": 0
                    },
                    {
                        "number": 64,
                        "time": 13.349668766666667,
                        "value": 1
                    },
                    {
                        "number": 64,
                        "time": 14.804034066666667,
                        "value": 0
                    },
                    {
                        "number": 64,
                        "time": 15.006172,
                        "value": 1
                    },
                    {
                        "number": 64,
                        "time": 15.646846466666666,
                        "value": 0
                    },
                    {
                        "number": 64,
                        "time": 15.7667588,
                        "value": 1
                    },
                    {
                        "number": 64,
                        "time": 16.469102466666666,
                        "value": 0
                    },
                    {
                        "number": 64,
                        "time": 16.66267523333333,
                        "value": 1
                    },
                    {
                        "number": 64,
                        "time": 17.267376,
                        "value": 0
                    },
                    {
                        "number": 64,
                        "time": 17.41298383333333,
                        "value": 1
                    },
                    {
                        "number": 64,
                        "time": 18.110188400000002,
                        "value": 0
                    },
                    {
                        "number": 64,
                        "time": 18.500760000000003,
                        "value": 1
                    },
                    {
                        "number": 64,
                        "time": 19.739283100000005,
                        "value": 0
                    },
                    {
                        "number": 64,
                        "time": 19.95169923333334,
                        "value": 1
                    },
                    {
                        "number": 64,
                        "time": 20.556400000000007,
                        "value": 0
                    },
                    {
                        "number": 64,
                        "time": 20.796224666666674,
                        "value": 1
                    },
                    {
                        "number": 64,
                        "time": 22.206051100000007,
                        "value": 0
                    },
                    {
                        "number": 64,
                        "time": 22.430458466666675,
                        "value": 1
                    },
                    {
                        "number": 64,
                        "time": 23.052289566666673,
                        "value": 0
                    },
                    {
                        "number": 64,
                        "time": 23.24072323333334,
                        "value": 1
                    },
                    {
                        "number": 64,
                        "time": 23.876258600000003,
                        "value": 0
                    },
                    {
                        "number": 64,
                        "time": 24.015014300000004,
                        "value": 1
                    },
                    {
                        "number": 64,
                        "time": 24.667680000000004,
                        "value": 0
                    },
                    {
                        "number": 64,
                        "time": 24.86125276666667,
                        "value": 1
                    },
                    {
                        "number": 64,
                        "time": 25.5259097,
                        "value": 0
                    },
                    {
                        "number": 64,
                        "time": 25.683508766666666,
                        "value": 1
                    },
                    {
                        "number": 64,
                        "time": 26.33103536666666,
                        "value": 0
                    },
                    {
                        "number": 64,
                        "time": 26.45779983333333,
                        "value": 1
                    },
                    {
                        "number": 64,
                        "time": 27.134447999999995,
                        "value": 0
                    },
                    {
                        "number": 64,
                        "time": 27.32116863333333,
                        "value": 1
                    },
                    {
                        "number": 64,
                        "time": 27.975547366666657,
                        "value": 0
                    },
                    {
                        "number": 64,
                        "time": 28.07490329999999,
                        "value": 1
                    },
                    {
                        "number": 64,
                        "time": 28.80636853333332,
                        "value": 0
                    },
                    {
                        "number": 64,
                        "time": 28.922854799999985,
                        "value": 1
                    },
                    {
                        "number": 64,
                        "time": 29.606355099999984,
                        "value": 0
                    },
                    {
                        "number": 64,
                        "time": 29.793075733333318,
                        "value": 1
                    },
                    {
                        "number": 64,
                        "time": 32.07141006666665,
                        "value": 0
                    },
                    {
                        "number": 64,
                        "time": 32.32151293333332,
                        "value": 1
                    },
                    {
                        "number": 64,
                        "time": 32.90394426666664,
                        "value": 0
                    },
                    {
                        "number": 64,
                        "time": 33.03584783333331,
                        "value": 1
                    },
                    {
                        "number": 64,
                        "time": 33.73647846666664,
                        "value": 0
                    },
                    {
                        "number": 64,
                        "time": 33.8581038333333,
                        "value": 1
                    },
                    {
                        "number": 64,
                        "time": 34.55016929999997,
                        "value": 0
                    },
                    {
                        "number": 64,
                        "time": 34.69063803333331,
                        "value": 1
                    },
                    {
                        "number": 64,
                        "time": 35.38784259999997,
                        "value": 0
                    },
                    {
                        "number": 64,
                        "time": 35.483772466666636,
                        "value": 1
                    },
                    {
                        "number": 64,
                        "time": 36.208385566666635,
                        "value": 0
                    },
                    {
                        "number": 64,
                        "time": 36.30602846666663,
                        "value": 1
                    },
                    {
                        "number": 64,
                        "time": 37.03235459999996,
                        "value": 0
                    },
                    {
                        "number": 64,
                        "time": 37.12314536666663,
                        "value": 1
                    },
                    {
                        "number": 64,
                        "time": 37.847758466666626,
                        "value": 0
                    },
                    {
                        "number": 64,
                        "time": 37.92655799999996,
                        "value": 1
                    },
                    {
                        "number": 64,
                        "time": 38.65973626666662,
                        "value": 0
                    },
                    {
                        "number": 64,
                        "time": 38.77279646666662,
                        "value": 1
                    },
                    {
                        "number": 64,
                        "time": 39.46828799999995,
                        "value": 0
                    },
                    {
                        "number": 64,
                        "time": 39.66186076666662,
                        "value": 1
                    },
                    {
                        "number": 64,
                        "time": 40.30253523333329,
                        "value": 0
                    },
                    {
                        "number": 64,
                        "time": 42.03269889999994,
                        "value": 1
                    },
                    {
                        "number": 64,
                        "time": 42.78814659999994,
                        "value": 0
                    },
                    {
                        "number": 64,
                        "time": 44.4258064666666,
                        "value": 1
                    },
                    {
                        "number": 64,
                        "time": 44.830082333333266,
                        "value": 0
                    },
                    {
                        "number": 64,
                        "time": 44.9705510666666,
                        "value": 1
                    },
                    {
                        "number": 64,
                        "time": 45.635207999999935,
                        "value": 0
                    },
                    {
                        "number": 64,
                        "time": 45.78081583333327,
                        "value": 1
                    },
                    {
                        "number": 64,
                        "time": 46.06175329999994,
                        "value": 0
                    },
                    {
                        "number": 64,
                        "time": 46.21592629999994,
                        "value": 1
                    },
                    {
                        "number": 64,
                        "time": 46.87201806666661,
                        "value": 0
                    },
                    {
                        "number": 64,
                        "time": 47.002208599999946,
                        "value": 1
                    },
                    {
                        "number": 64,
                        "time": 47.29513729999995,
                        "value": 0
                    },
                    {
                        "number": 64,
                        "time": 47.425327833333284,
                        "value": 1
                    },
                    {
                        "number": 64,
                        "time": 48.10197599999995,
                        "value": 0
                    },
                    {
                        "number": 64,
                        "time": 48.18591463333328,
                        "value": 1
                    },
                    {
                        "number": 64,
                        "time": 48.537086466666615,
                        "value": 0
                    },
                    {
                        "number": 64,
                        "time": 48.646720599999945,
                        "value": 1
                    },
                    {
                        "number": 64,
                        "time": 49.34392516666661,
                        "value": 0
                    },
                    {
                        "number": 64,
                        "time": 49.49295906666661,
                        "value": 1
                    },
                    {
                        "number": 64,
                        "time": 49.758479233333276,
                        "value": 0
                    },
                    {
                        "number": 64,
                        "time": 49.94006076666661,
                        "value": 1
                    },
                    {
                        "number": 64,
                        "time": 50.572170066666615,
                        "value": 0
                    },
                    {
                        "number": 64,
                        "time": 50.70578666666662,
                        "value": 1
                    },
                    {
                        "number": 64,
                        "time": 51.00899356666662,
                        "value": 0
                    },
                    {
                        "number": 64,
                        "time": 51.11691466666662,
                        "value": 1
                    },
                    {
                        "number": 64,
                        "time": 51.40813033333328,
                        "value": 0
                    },
                    {
                        "number": 64,
                        "time": 51.48864289999995,
                        "value": 1
                    },
                    {
                        "number": 64,
                        "time": 51.82097136666662,
                        "value": 0
                    },
                    {
                        "number": 64,
                        "time": 51.93574459999995,
                        "value": 1
                    },
                    {
                        "number": 64,
                        "time": 52.23209936666662,
                        "value": 0
                    },
                    {
                        "number": 64,
                        "time": 52.39483753333328,
                        "value": 1
                    },
                    {
                        "number": 64,
                        "time": 53.04921626666661,
                        "value": 0
                    },
                    {
                        "number": 64,
                        "time": 53.143433099999946,
                        "value": 1
                    },
                    {
                        "number": 64,
                        "time": 53.46377033333328,
                        "value": 0
                    },
                    {
                        "number": 64,
                        "time": 53.59396086666661,
                        "value": 1
                    },
                    {
                        "number": 64,
                        "time": 54.284313299999944,
                        "value": 0
                    },
                    {
                        "number": 64,
                        "time": 54.402512599999945,
                        "value": 1
                    },
                    {
                        "number": 64,
                        "time": 54.69715433333328,
                        "value": 0
                    },
                    {
                        "number": 64,
                        "time": 54.81364059999995,
                        "value": 1
                    },
                    {
                        "number": 64,
                        "time": 55.50741909999995,
                        "value": 0
                    },
                    {
                        "number": 64,
                        "time": 55.598209866666615,
                        "value": 1
                    },
                    {
                        "number": 64,
                        "time": 55.93225136666661,
                        "value": 0
                    },
                    {
                        "number": 64,
                        "time": 56.07100706666661,
                        "value": 1
                    },
                    {
                        "number": 64,
                        "time": 56.740803099999944,
                        "value": 0
                    },
                    {
                        "number": 64,
                        "time": 56.83159386666661,
                        "value": 1
                    },
                    {
                        "number": 64,
                        "time": 57.17248749999994,
                        "value": 0
                    },
                    {
                        "number": 64,
                        "time": 57.352355999999936,
                        "value": 1
                    },
                    {
                        "number": 64,
                        "time": 57.9776131666666,
                        "value": 0
                    },
                    {
                        "number": 64,
                        "time": 58.10266459999993,
                        "value": 1
                    },
                    {
                        "number": 64,
                        "time": 58.40587149999993,
                        "value": 0
                    },
                    {
                        "number": 64,
                        "time": 58.5377750666666,
                        "value": 1
                    },
                    {
                        "number": 64,
                        "time": 59.20757109999993,
                        "value": 0
                    },
                    {
                        "number": 64,
                        "time": 59.28637063333326,
                        "value": 1
                    },
                    {
                        "number": 64,
                        "time": 59.637542466666595,
                        "value": 0
                    },
                    {
                        "number": 64,
                        "time": 59.759167833333265,
                        "value": 1
                    },
                    {
                        "number": 64,
                        "time": 60.444381166666595,
                        "value": 0
                    },
                    {
                        "number": 64,
                        "time": 60.54545013333326,
                        "value": 1
                    },
                    {
                        "number": 64,
                        "time": 60.86236129999993,
                        "value": 0
                    },
                    {
                        "number": 64,
                        "time": 60.9685693666666,
                        "value": 1
                    },
                    {
                        "number": 64,
                        "time": 61.676052133333265,
                        "value": 0
                    },
                    {
                        "number": 64,
                        "time": 61.81480783333326,
                        "value": 1
                    },
                    {
                        "number": 64,
                        "time": 62.10602349999993,
                        "value": 0
                    },
                    {
                        "number": 64,
                        "time": 62.249918299999926,
                        "value": 1
                    },
                    {
                        "number": 64,
                        "time": 62.90772309999993,
                        "value": 0
                    },
                    {
                        "number": 64,
                        "time": 62.98994869999993,
                        "value": 1
                    },
                    {
                        "number": 64,
                        "time": 63.330842333333266,
                        "value": 0
                    },
                    {
                        "number": 64,
                        "time": 63.442189499999934,
                        "value": 1
                    },
                    {
                        "number": 64,
                        "time": 63.753961566666604,
                        "value": 0
                    },
                    {
                        "number": 64,
                        "time": 63.81220469999994,
                        "value": 1
                    },
                    {
                        "number": 64,
                        "time": 64.14282013333327,
                        "value": 0
                    },
                    {
                        "number": 64,
                        "time": 64.24560213333328,
                        "value": 1
                    },
                    {
                        "number": 64,
                        "time": 64.56251329999994,
                        "value": 0
                    },
                    {
                        "number": 64,
                        "time": 64.69270383333327,
                        "value": 1
                    },
                    {
                        "number": 64,
                        "time": 65.37449109999993,
                        "value": 0
                    },
                    {
                        "number": 64,
                        "time": 65.44815153333326,
                        "value": 1
                    },
                    {
                        "number": 64,
                        "time": 65.7993233666666,
                        "value": 0
                    },
                    {
                        "number": 64,
                        "time": 65.88840109999994,
                        "value": 1
                    },
                    {
                        "number": 64,
                        "time": 66.61986633333328,
                        "value": 0
                    },
                    {
                        "number": 64,
                        "time": 66.72436136666661,
                        "value": 1
                    },
                    {
                        "number": 64,
                        "time": 67.0429855666666,
                        "value": 0
                    },
                    {
                        "number": 64,
                        "time": 67.1354893666666,
                        "value": 1
                    },
                    {
                        "number": 64,
                        "time": 67.85325033333326,
                        "value": 0
                    },
                    {
                        "number": 64,
                        "time": 67.9577453666666,
                        "value": 1
                    },
                    {
                        "number": 64,
                        "time": 68.26780439999993,
                        "value": 0
                    },
                    {
                        "number": 64,
                        "time": 68.4048470666666,
                        "value": 1
                    },
                    {
                        "number": 64,
                        "time": 69.08834736666661,
                        "value": 0
                    },
                    {
                        "number": 64,
                        "time": 69.17913813333328,
                        "value": 1
                    },
                    {
                        "number": 64,
                        "time": 69.49262323333328,
                        "value": 0
                    },
                    {
                        "number": 64,
                        "time": 69.61424859999994,
                        "value": 1
                    },
                    {
                        "number": 64,
                        "time": 70.30802709999993,
                        "value": 0
                    },
                    {
                        "number": 64,
                        "time": 70.37483539999994,
                        "value": 1
                    },
                    {
                        "number": 64,
                        "time": 70.73114633333327,
                        "value": 0
                    },
                    {
                        "number": 64,
                        "time": 70.84763259999994,
                        "value": 1
                    },
                    {
                        "number": 64,
                        "time": 71.55168929999994,
                        "value": 0
                    },
                    {
                        "number": 64,
                        "time": 71.68187983333327,
                        "value": 1
                    },
                    {
                        "number": 64,
                        "time": 71.97823459999994,
                        "value": 0
                    },
                    {
                        "number": 64,
                        "time": 72.10499906666661,
                        "value": 1
                    },
                    {
                        "number": 64,
                        "time": 72.77993419999994,
                        "value": 0
                    },
                    {
                        "number": 64,
                        "time": 72.85873373333328,
                        "value": 1
                    },
                    {
                        "number": 64,
                        "time": 73.19791433333327,
                        "value": 0
                    },
                    {
                        "number": 64,
                        "time": 73.29898329999995,
                        "value": 1
                    },
                    {
                        "number": 64,
                        "time": 74.01160516666663,
                        "value": 0
                    },
                    {
                        "number": 64,
                        "time": 74.12466536666663,
                        "value": 1
                    },
                    {
                        "number": 64,
                        "time": 74.44500259999997,
                        "value": 0
                    },
                    {
                        "number": 64,
                        "time": 74.57176706666664,
                        "value": 1
                    },
                    {
                        "number": 64,
                        "time": 75.24156309999996,
                        "value": 0
                    },
                    {
                        "number": 64,
                        "time": 75.37004059999997,
                        "value": 1
                    },
                    {
                        "number": 64,
                        "time": 75.67153446666663,
                        "value": 0
                    },
                    {
                        "number": 64,
                        "time": 75.82913353333329,
                        "value": 1
                    },
                    {
                        "number": 64,
                        "time": 76.48179923333329,
                        "value": 0
                    },
                    {
                        "number": 64,
                        "time": 76.60342459999995,
                        "value": 1
                    },
                    {
                        "number": 64,
                        "time": 76.89977936666662,
                        "value": 0
                    },
                    {
                        "number": 64,
                        "time": 77.02654383333329,
                        "value": 1
                    },
                    {
                        "number": 64,
                        "time": 77.71518323333329,
                        "value": 0
                    },
                    {
                        "number": 64,
                        "time": 77.86079106666662,
                        "value": 1
                    },
                    {
                        "number": 64,
                        "time": 78.14344156666661,
                        "value": 0
                    },
                    {
                        "number": 64,
                        "time": 78.31988399999994,
                        "value": 1
                    },
                    {
                        "number": 64,
                        "time": 78.93657599999995,
                        "value": 0
                    },
                    {
                        "number": 64,
                        "time": 79.02051463333328,
                        "value": 1
                    },
                    {
                        "number": 64,
                        "time": 79.37339949999995,
                        "value": 0
                    },
                    {
                        "number": 64,
                        "time": 79.51729429999995,
                        "value": 1
                    },
                    {
                        "number": 64,
                        "time": 80.18537729999994,
                        "value": 0
                    },
                    {
                        "number": 64,
                        "time": 80.32755906666661,
                        "value": 1
                    },
                    {
                        "number": 64,
                        "time": 80.60164439999994,
                        "value": 0
                    },
                    {
                        "number": 64,
                        "time": 80.77808683333328,
                        "value": 1
                    },
                    {
                        "number": 64,
                        "time": 81.41876129999994,
                        "value": 0
                    },
                    {
                        "number": 64,
                        "time": 81.54895183333328,
                        "value": 1
                    },
                    {
                        "number": 64,
                        "time": 81.8384544666666,
                        "value": 0
                    },
                    {
                        "number": 64,
                        "time": 81.99605353333327,
                        "value": 1
                    },
                    {
                        "number": 64,
                        "time": 82.65214529999993,
                        "value": 0
                    },
                    {
                        "number": 64,
                        "time": 82.77377066666659,
                        "value": 1
                    },
                    {
                        "number": 64,
                        "time": 83.05128206666659,
                        "value": 0
                    },
                    {
                        "number": 64,
                        "time": 83.22429843333326,
                        "value": 1
                    },
                    {
                        "number": 64,
                        "time": 83.87011199999993,
                        "value": 0
                    },
                    {
                        "number": 64,
                        "time": 83.94891153333327,
                        "value": 1
                    },
                    {
                        "number": 64,
                        "time": 84.70264619999993,
                        "value": 0
                    },
                    {
                        "number": 64,
                        "time": 84.9887227666666,
                        "value": 1
                    },
                    {
                        "number": 64,
                        "time": 86.33687999999994,
                        "value": 0
                    },
                    {
                        "number": 64,
                        "time": 86.47049659999993,
                        "value": 1
                    },
                    {
                        "number": 64,
                        "time": 87.18997059999994,
                        "value": 0
                    },
                    {
                        "number": 64,
                        "time": 87.51030783333327,
                        "value": 1
                    },
                    {
                        "number": 64,
                        "time": 88.80364799999994,
                        "value": 0
                    },
                    {
                        "number": 64,
                        "time": 88.91328213333327,
                        "value": 1
                    },
                    {
                        "number": 64,
                        "time": 89.63275613333327,
                        "value": 0
                    },
                    {
                        "number": 64,
                        "time": 91.3663458666666,
                        "value": 1
                    },
                    {
                        "number": 64,
                        "time": 93.7406100666666,
                        "value": 0
                    },
                    {
                        "number": 64,
                        "time": 93.8845048666666,
                        "value": 1
                    },
                    {
                        "number": 64,
                        "time": 94.5834224666666,
                        "value": 0
                    },
                    {
                        "number": 64,
                        "time": 94.86264689999994,
                        "value": 1
                    },
                    {
                        "number": 64,
                        "time": 96.2073780666666,
                        "value": 0
                    },
                    {
                        "number": 64,
                        "time": 96.32557736666661,
                        "value": 1
                    },
                    {
                        "number": 64,
                        "time": 97.0553295666666,
                        "value": 0
                    },
                    {
                        "number": 64,
                        "time": 97.2557544666666,
                        "value": 1
                    },
                    {
                        "number": 64,
                        "time": 98.6844242666666,
                        "value": 0
                    },
                    {
                        "number": 64,
                        "time": 98.81804086666659,
                        "value": 1
                    },
                    {
                        "number": 64,
                        "time": 99.5272366666666,
                        "value": 0
                    },
                    {
                        "number": 64,
                        "time": 99.68997483333327,
                        "value": 1
                    },
                    {
                        "number": 64,
                        "time": 101.1666095666666,
                        "value": 0
                    },
                    {
                        "number": 64,
                        "time": 101.62227643333325,
                        "value": 1
                    },
                    {
                        "number": 64,
                        "time": 103.60425599999992,
                        "value": 0
                    },
                    {
                        "number": 64,
                        "time": 103.73787259999992,
                        "value": 1
                    },
                    {
                        "number": 64,
                        "time": 104.45734659999992,
                        "value": 0
                    },
                    {
                        "number": 64,
                        "time": 104.57725893333325,
                        "value": 1
                    },
                    {
                        "number": 64,
                        "time": 105.28131563333326,
                        "value": 0
                    },
                    {
                        "number": 64,
                        "time": 105.3755324666666,
                        "value": 1
                    },
                    {
                        "number": 64,
                        "time": 106.07958916666661,
                        "value": 0
                    },
                    {
                        "number": 64,
                        "time": 106.24061429999995,
                        "value": 1
                    },
                    {
                        "number": 64,
                        "time": 108.53779199999994,
                        "value": 0
                    },
                    {
                        "number": 64,
                        "time": 108.68339983333327,
                        "value": 1
                    },
                    {
                        "number": 64,
                        "time": 109.3840304666666,
                        "value": 0
                    },
                    {
                        "number": 64,
                        "time": 109.57760323333326,
                        "value": 1
                    },
                    {
                        "number": 64,
                        "time": 110.19429523333326,
                        "value": 0
                    },
                    {
                        "number": 64,
                        "time": 110.42384169999993,
                        "value": 1
                    },
                    {
                        "number": 64,
                        "time": 111.00455999999993,
                        "value": 0
                    },
                    {
                        "number": 64,
                        "time": 111.22040219999992,
                        "value": 1
                    },
                    {
                        "number": 64,
                        "time": 111.8456593666666,
                        "value": 0
                    },
                    {
                        "number": 64,
                        "time": 112.04265819999993,
                        "value": 1
                    },
                    {
                        "number": 64,
                        "time": 112.23794399999993,
                        "value": 0
                    },
                    {
                        "number": 64,
                        "time": 112.45378619999993,
                        "value": 1
                    },
                    {
                        "number": 64,
                        "time": 112.65592413333326,
                        "value": 0
                    },
                    {
                        "number": 64,
                        "time": 112.84607083333326,
                        "value": 1
                    },
                    {
                        "number": 64,
                        "time": 113.07390426666659,
                        "value": 0
                    },
                    {
                        "number": 64,
                        "time": 113.2948855666666,
                        "value": 1
                    },
                    {
                        "number": 64,
                        "time": 113.47132799999993,
                        "value": 0
                    },
                    {
                        "number": 64,
                        "time": 113.64777043333326,
                        "value": 1
                    },
                    {
                        "number": 64,
                        "time": 113.92014273333326,
                        "value": 0
                    },
                    {
                        "number": 64,
                        "time": 114.05889843333327,
                        "value": 1
                    },
                    {
                        "number": 64,
                        "time": 114.29872309999993,
                        "value": 0
                    },
                    {
                        "number": 64,
                        "time": 114.49058283333326,
                        "value": 1
                    },
                    {
                        "number": 64,
                        "time": 114.71499019999993,
                        "value": 0
                    },
                    {
                        "number": 64,
                        "time": 114.92055419999993,
                        "value": 1
                    },
                    {
                        "number": 64,
                        "time": 115.13297033333325,
                        "value": 0
                    },
                    {
                        "number": 64,
                        "time": 115.33168219999992,
                        "value": 1
                    },
                    {
                        "number": 64,
                        "time": 115.54581136666658,
                        "value": 0
                    },
                    {
                        "number": 64,
                        "time": 115.72396683333325,
                        "value": 1
                    },
                    {
                        "number": 64,
                        "time": 115.93809599999992,
                        "value": 0
                    },
                    {
                        "number": 64,
                        "time": 116.09398203333325,
                        "value": 1
                    },
                    {
                        "number": 64,
                        "time": 116.3680673666666,
                        "value": 0
                    },
                    {
                        "number": 64,
                        "time": 116.58390956666659,
                        "value": 1
                    },
                    {
                        "number": 64,
                        "time": 116.78776053333326,
                        "value": 0
                    },
                    {
                        "number": 64,
                        "time": 116.97619419999992,
                        "value": 1
                    },
                    {
                        "number": 64,
                        "time": 117.18861033333324,
                        "value": 0
                    },
                    {
                        "number": 64,
                        "time": 117.34792243333324,
                        "value": 1
                    },
                    {
                        "number": 64,
                        "time": 117.59117316666658,
                        "value": 0
                    },
                    {
                        "number": 64,
                        "time": 117.7984501999999,
                        "value": 1
                    },
                    {
                        "number": 64,
                        "time": 118.0194314999999,
                        "value": 0
                    },
                    {
                        "number": 64,
                        "time": 118.2095781999999,
                        "value": 1
                    },
                    {
                        "number": 64,
                        "time": 118.41342916666656,
                        "value": 0
                    },
                    {
                        "number": 64,
                        "time": 118.63954956666656,
                        "value": 1
                    },
                    {
                        "number": 64,
                        "time": 118.8468265999999,
                        "value": 0
                    },
                    {
                        "number": 64,
                        "time": 119.05067756666656,
                        "value": 1
                    },
                    {
                        "number": 64,
                        "time": 119.26651976666656,
                        "value": 0
                    },
                    {
                        "number": 64,
                        "time": 119.42411883333322,
                        "value": 1
                    },
                    {
                        "number": 64,
                        "time": 119.65023923333322,
                        "value": 0
                    },
                    {
                        "number": 64,
                        "time": 119.81469043333323,
                        "value": 1
                    },
                    {
                        "number": 64,
                        "time": 120.0802105999999,
                        "value": 0
                    },
                    {
                        "number": 64,
                        "time": 120.24637483333323,
                        "value": 1
                    },
                    {
                        "number": 64,
                        "time": 120.48277343333324,
                        "value": 0
                    },
                    {
                        "number": 64,
                        "time": 120.6763461999999,
                        "value": 1
                    },
                    {
                        "number": 64,
                        "time": 120.87163199999989,
                        "value": 0
                    },
                    {
                        "number": 64,
                        "time": 121.06520476666655,
                        "value": 1
                    },
                    {
                        "number": 64,
                        "time": 121.74185293333322,
                        "value": 0
                    },
                    {
                        "number": 64,
                        "time": 121.94741693333322,
                        "value": 1
                    },
                    {
                        "number": 64,
                        "time": 123.34696516666655,
                        "value": 0
                    },
                    {
                        "number": 64,
                        "time": 123.53197276666656,
                        "value": 1
                    },
                    {
                        "number": 64,
                        "time": 124.1914905999999,
                        "value": 0
                    },
                    {
                        "number": 64,
                        "time": 124.47585413333323,
                        "value": 1
                    },
                    {
                        "number": 64,
                        "time": 125.81373316666657,
                        "value": 0
                    },
                    {
                        "number": 64,
                        "time": 125.99874076666657,
                        "value": 1
                    },
                    {
                        "number": 64,
                        "time": 126.65997163333324,
                        "value": 0
                    },
                    {
                        "number": 64,
                        "time": 126.85697046666658,
                        "value": 1
                    },
                    {
                        "number": 64,
                        "time": 128.28735329999992,
                        "value": 0
                    },
                    {
                        "number": 64,
                        "time": 128.51347369999993,
                        "value": 1
                    },
                    {
                        "number": 64,
                        "time": 130.73870399999996,
                        "value": 0
                    },
                    {
                        "number": 64,
                        "time": 130.94426799999997,
                        "value": 1
                    },
                    {
                        "number": 64,
                        "time": 131.58494246666666,
                        "value": 0
                    },
                    {
                        "number": 64,
                        "time": 131.87615813333332,
                        "value": 1
                    },
                    {
                        "number": 64,
                        "time": 133.22260233333333,
                        "value": 0
                    },
                    {
                        "number": 64,
                        "time": 133.42302723333333,
                        "value": 1
                    },
                    {
                        "number": 64,
                        "time": 134.04657136666668,
                        "value": 0
                    },
                    {
                        "number": 64,
                        "time": 134.24528323333334,
                        "value": 1
                    },
                    {
                        "number": 64,
                        "time": 135.69450943333334,
                        "value": 0
                    },
                    {
                        "number": 64,
                        "time": 135.88979523333333,
                        "value": 1
                    },
                    {
                        "number": 64,
                        "time": 136.51505240000003,
                        "value": 0
                    },
                    {
                        "number": 64,
                        "time": 136.74802493333337,
                        "value": 1
                    },
                    {
                        "number": 64,
                        "time": 138.14243406666668,
                        "value": 0
                    },
                    {
                        "number": 64,
                        "time": 138.35656323333336,
                        "value": 1
                    },
                    {
                        "number": 64,
                        "time": 138.99381163333337,
                        "value": 0
                    },
                    {
                        "number": 64,
                        "time": 139.37239200000002,
                        "value": 1
                    },
                    {
                        "number": 64,
                        "time": 140.61776723333335,
                        "value": 0
                    },
                    {
                        "number": 64,
                        "time": 140.7993487666667,
                        "value": 1
                    },
                    {
                        "number": 64,
                        "time": 141.4365971666667,
                        "value": 0
                    },
                    {
                        "number": 64,
                        "time": 141.74323013333336,
                        "value": 1
                    },
                    {
                        "number": 64,
                        "time": 143.08967433333333,
                        "value": 0
                    },
                    {
                        "number": 64,
                        "time": 143.3140817,
                        "value": 1
                    },
                    {
                        "number": 64,
                        "time": 143.92220853333336,
                        "value": 0
                    },
                    {
                        "number": 64,
                        "time": 144.10036400000004,
                        "value": 1
                    },
                    {
                        "number": 64,
                        "time": 144.73247330000007,
                        "value": 0
                    },
                    {
                        "number": 64,
                        "time": 144.94660246666675,
                        "value": 1
                    },
                    {
                        "number": 64,
                        "time": 145.55301626666676,
                        "value": 0
                    },
                    {
                        "number": 64,
                        "time": 145.75686723333342,
                        "value": 1
                    },
                    {
                        "number": 64,
                        "time": 146.38555046666679,
                        "value": 0
                    },
                    {
                        "number": 64,
                        "time": 146.53115830000013,
                        "value": 1
                    },
                    {
                        "number": 64,
                        "time": 147.2009543333335,
                        "value": 0
                    },
                    {
                        "number": 64,
                        "time": 147.3294318333335,
                        "value": 1
                    },
                    {
                        "number": 64,
                        "time": 148.00608000000017,
                        "value": 0
                    },
                    {
                        "number": 64,
                        "time": 148.21164400000018,
                        "value": 1
                    },
                    {
                        "number": 64,
                        "time": 148.85745756666688,
                        "value": 0
                    },
                    {
                        "number": 64,
                        "time": 148.97565686666687,
                        "value": 1
                    },
                    {
                        "number": 64,
                        "time": 149.66943536666687,
                        "value": 0
                    },
                    {
                        "number": 64,
                        "time": 149.7687913000002,
                        "value": 1
                    },
                    {
                        "number": 64,
                        "time": 150.4814131666669,
                        "value": 0
                    },
                    {
                        "number": 64,
                        "time": 150.67841200000024,
                        "value": 1
                    },
                    {
                        "number": 64,
                        "time": 152.96359846666692,
                        "value": 0
                    },
                    {
                        "number": 64,
                        "time": 153.09721506666693,
                        "value": 1
                    },
                    {
                        "number": 64,
                        "time": 153.76872413333362,
                        "value": 0
                    },
                    {
                        "number": 64,
                        "time": 153.84067153333362,
                        "value": 1
                    },
                    {
                        "number": 64,
                        "time": 154.5995453000003,
                        "value": 0
                    },
                    {
                        "number": 64,
                        "time": 154.71089246666696,
                        "value": 1
                    },
                    {
                        "number": 64,
                        "time": 155.41323613333364,
                        "value": 0
                    },
                    {
                        "number": 64,
                        "time": 156.04534543333364,
                        "value": 1
                    },
                    {
                        "number": 64,
                        "time": 157.89199536666698,
                        "value": 0
                    },
                    {
                        "number": 64,
                        "time": 158.0119077000003,
                        "value": 1
                    },
                    {
                        "number": 64,
                        "time": 158.72795563333366,
                        "value": 0
                    },
                    {
                        "number": 64,
                        "time": 158.80504213333367,
                        "value": 1
                    },
                    {
                        "number": 64,
                        "time": 159.55363770000037,
                        "value": 0
                    },
                    {
                        "number": 64,
                        "time": 159.6684109333337,
                        "value": 1
                    },
                    {
                        "number": 64,
                        "time": 160.34334606666704,
                        "value": 0
                    },
                    {
                        "number": 64,
                        "time": 160.75104800000037,
                        "value": 1
                    },
                    {
                        "number": 64,
                        "time": 161.1895845333337,
                        "value": 0
                    },
                    {
                        "number": 64,
                        "time": 161.98443200000034,
                        "value": 1
                    },
                    {
                        "number": 64,
                        "time": 162.80668800000035,
                        "value": 0
                    },
                    {
                        "number": 64,
                        "time": 162.9163221333337,
                        "value": 1
                    },
                    {
                        "number": 64,
                        "time": 163.65977860000038,
                        "value": 0
                    },
                    {
                        "number": 64,
                        "time": 163.73172600000038,
                        "value": 1
                    },
                    {
                        "number": 64,
                        "time": 164.48203460000036,
                        "value": 0
                    },
                    {
                        "number": 64,
                        "time": 164.55398200000036,
                        "value": 1
                    },
                    {
                        "number": 64,
                        "time": 165.28030813333368,
                        "value": 0
                    },
                    {
                        "number": 64,
                        "time": 165.58865413333368,
                        "value": 1
                    },
                    {
                        "number": 64,
                        "time": 166.124833566667,
                        "value": 0
                    },
                    {
                        "number": 64,
                        "time": 167.7402240000004,
                        "value": 1
                    },
                    {
                        "number": 64,
                        "time": 168.59502763333373,
                        "value": 0
                    },
                    {
                        "number": 64,
                        "time": 168.90166060000038,
                        "value": 1
                    },
                    {
                        "number": 64,
                        "time": 169.41557060000036,
                        "value": 0
                    },
                    {
                        "number": 64,
                        "time": 169.81984646666703,
                        "value": 1
                    },
                    {
                        "number": 64,
                        "time": 170.21213110000036,
                        "value": 0
                    },
                    {
                        "number": 64,
                        "time": 170.5735811333337,
                        "value": 1
                    },
                    {
                        "number": 64,
                        "time": 171.06008260000036,
                        "value": 0
                    },
                    {
                        "number": 64,
                        "time": 171.48662790000034,
                        "value": 1
                    },
                    {
                        "number": 64,
                        "time": 172.67376000000036,
                        "value": 0
                    }
                ],
                "91": [
                    {
                        "number": 91,
                        "time": 0,
                        "value": 1
                    },
                    {
                        "number": 91,
                        "time": 44.401823999999934,
                        "value": 1
                    },
                    {
                        "number": 91,
                        "time": 83.87011199999993,
                        "value": 1
                    },
                    {
                        "number": 91,
                        "time": 86.33687999999994,
                        "value": 1
                    },
                    {
                        "number": 91,
                        "time": 120.87163199999989,
                        "value": 1
                    }
                ]
            },
            "id": 2,
            "name": "Piano left",
            "instrumentNumber": 0,
            "instrument": "acoustic grand piano",
            "instrumentFamily": "piano",
            "channelNumber": 0,
            "isPercussion": false
        },
        {
            "startTime": 0,
            "duration": 0,
            "length": 0,
            "notes": [],
            "controlChanges": {},
            "id": 3,
            "name": "Fantasie No. 2 in a-moll, Op. 116"
        },
        {
            "startTime": 0,
            "duration": 0,
            "length": 0,
            "notes": [],
            "controlChanges": {},
            "id": 4,
            "name": "Copyright  1997 by Bernd Krger"
        },
        {
            "startTime": 0,
            "duration": 0,
            "length": 0,
            "notes": [],
            "controlChanges": {},
            "id": 5,
            "name": "http://www.piano-midi.de"
        },
        {
            "startTime": 0,
            "duration": 0,
            "length": 0,
            "notes": [],
            "controlChanges": {},
            "id": 6,
            "name": "Edition: 2010-10-28"
        },
        {
            "startTime": 0,
            "duration": 0,
            "length": 0,
            "notes": [],
            "controlChanges": {},
            "id": 7,
            "name": "Spur 7"
        }
    ]
}