{
    "header": {
        "PPQ": 480,
        "timeSignature": [
            3,
            8
        ],
        "bpm": 36.92000972226923,
        "name": "Brahms: Intermezzo Opus 117 Nr. 2"
    },
    "startTime": 0,
    "duration": 209.64241500000003,
    "tracks": [
        {
            "startTime": 0,
            "duration": 0,
            "length": 0,
            "notes": [],
            "controlChanges": {},
            "id": 0,
            "name": "Brahms: Intermezzo Opus 117 Nr. 2"
        },
        {
            "startTime": 1.421993125,
            "duration": 209.642415,
            "length": 708,
            "notes": [
                {
                    "name": "C#5",
                    "midi": 73,
                    "time": 1.421993125,
                    "velocity": 0.2992125984251969,
                    "duration": 0.20314187500000003
                },
                {
                    "name": "C5",
                    "midi": 72,
                    "time": 1.625135,
                    "velocity": 0.33070866141732286,
                    "duration": 0.20314187500000003
                },
                {
                    "name": "F#4",
                    "midi": 66,
                    "time": 1.828276875,
                    "velocity": 0.2125984251968504,
                    "duration": 0.2031418749999998
                },
                {
                    "name": "C4",
                    "midi": 60,
                    "time": 2.03141875,
                    "velocity": 0.2047244094488189,
                    "duration": 0.20314187500000003
                },
                {
                    "name": "C5",
                    "midi": 72,
                    "time": 2.234560625,
                    "velocity": 0.2677165354330709,
                    "duration": 0.20314187500000003
                },
                {
                    "name": "A#4",
                    "midi": 70,
                    "time": 2.4377025,
                    "velocity": 0.3228346456692913,
                    "duration": 0.8125675000000001
                },
                {
                    "name": "F4",
                    "midi": 65,
                    "time": 2.640844375,
                    "velocity": 0.2125984251968504,
                    "duration": 0.20314187500000003
                },
                {
                    "name": "A#3",
                    "midi": 58,
                    "time": 2.84398625,
                    "velocity": 0.2125984251968504,
                    "duration": 0.20314187500000003
                },
                {
                    "name": "A#4",
                    "midi": 70,
                    "time": 3.859695625,
                    "velocity": 0.2992125984251969,
                    "duration": 0.27085583333333263
                },
                {
                    "name": "C5",
                    "midi": 72,
                    "time": 4.0628375,
                    "velocity": 0.33070866141732286,
                    "duration": 0.20314187500000003
                },
                {
                    "name": "F#4",
                    "midi": 66,
                    "time": 4.265979375,
                    "velocity": 0.2125984251968504,
                    "duration": 0.20314187500000003
                },
                {
                    "name": "C4",
                    "midi": 60,
                    "time": 4.46912125,
                    "velocity": 0.2047244094488189,
                    "duration": 0.20314187500000003
                },
                {
                    "name": "C5",
                    "midi": 72,
                    "time": 4.672263125,
                    "velocity": 0.33858267716535434,
                    "duration": 0.20314187500000003
                },
                {
                    "name": "F5",
                    "midi": 77,
                    "time": 4.875405,
                    "velocity": 0.3700787401574803,
                    "duration": 0.8125675000000001
                },
                {
                    "name": "A#4",
                    "midi": 70,
                    "time": 5.078546875,
                    "velocity": 0.2125984251968504,
                    "duration": 0.20314187500000003
                },
                {
                    "name": "F4",
                    "midi": 65,
                    "time": 5.28168875,
                    "velocity": 0.2125984251968504,
                    "duration": 0.20314187500000003
                },
                {
                    "name": "F5",
                    "midi": 77,
                    "time": 6.297398125,
                    "velocity": 0.33858267716535434,
                    "duration": 0.20314187500000003
                },
                {
                    "name": "G#5",
                    "midi": 80,
                    "time": 6.50054,
                    "velocity": 0.4409448818897638,
                    "duration": 0.20314187500000003
                },
                {
                    "name": "C#5",
                    "midi": 73,
                    "time": 6.703681875,
                    "velocity": 0.2125984251968504,
                    "duration": 0.20314187500000003
                },
                {
                    "name": "G#4",
                    "midi": 68,
                    "time": 6.90682375,
                    "velocity": 0.2677165354330709,
                    "duration": 0.20314187500000003
                },
                {
                    "name": "G#5",
                    "midi": 80,
                    "time": 7.109965625,
                    "velocity": 0.30708661417322836,
                    "duration": 0.20314187500000003
                },
                {
                    "name": "F#5",
                    "midi": 78,
                    "time": 7.3131075,
                    "velocity": 0.3858267716535433,
                    "duration": 0.20314187500000003
                },
                {
                    "name": "C#5",
                    "midi": 73,
                    "time": 7.516249375,
                    "velocity": 0.2125984251968504,
                    "duration": 0.20314187500000003
                },
                {
                    "name": "F#4",
                    "midi": 66,
                    "time": 7.71939125,
                    "velocity": 0.2125984251968504,
                    "duration": 0.20314187500000003
                },
                {
                    "name": "C#5",
                    "midi": 73,
                    "time": 8.735100625,
                    "velocity": 0.2992125984251969,
                    "duration": 0.27085583333333396
                },
                {
                    "name": "F#5",
                    "midi": 78,
                    "time": 8.9382425,
                    "velocity": 0.33070866141732286,
                    "duration": 0.20314187500000003
                },
                {
                    "name": "C5",
                    "midi": 72,
                    "time": 9.141384375,
                    "velocity": 0.2125984251968504,
                    "duration": 0.20314187500000003
                },
                {
                    "name": "F#4",
                    "midi": 66,
                    "time": 9.34452625,
                    "velocity": 0.2047244094488189,
                    "duration": 0.20314187500000003
                },
                {
                    "name": "F#5",
                    "midi": 78,
                    "time": 9.547668125,
                    "velocity": 0.2677165354330709,
                    "duration": 0.20314187500000003
                },
                {
                    "name": "F5",
                    "midi": 77,
                    "time": 9.75081,
                    "velocity": 0.3228346456692913,
                    "duration": 0.20314187500000003
                },
                {
                    "name": "C5",
                    "midi": 72,
                    "time": 9.953951875,
                    "velocity": 0.2125984251968504,
                    "duration": 0.20314187500000003
                },
                {
                    "name": "F4",
                    "midi": 65,
                    "time": 10.15709375,
                    "velocity": 0.1968503937007874,
                    "duration": 0.20314187500000003
                },
                {
                    "name": "C5",
                    "midi": 72,
                    "time": 11.172803125,
                    "velocity": 0.2677165354330709,
                    "duration": 0.20314187500000003
                },
                {
                    "name": "F5",
                    "midi": 77,
                    "time": 11.375945,
                    "velocity": 0.3228346456692913,
                    "duration": 0.20314187500000003
                },
                {
                    "name": "A#4",
                    "midi": 70,
                    "time": 11.579086875,
                    "velocity": 0.2125984251968504,
                    "duration": 0.20314187500000003
                },
                {
                    "name": "F4",
                    "midi": 65,
                    "time": 11.78222875,
                    "velocity": 0.2125984251968504,
                    "duration": 0.20314187500000003
                },
                {
                    "name": "F5",
                    "midi": 77,
                    "time": 11.985370625,
                    "velocity": 0.2677165354330709,
                    "duration": 0.20314187500000003
                },
                {
                    "name": "D#5",
                    "midi": 75,
                    "time": 12.1885125,
                    "velocity": 0.3228346456692913,
                    "duration": 0.20314187500000003
                },
                {
                    "name": "A#4",
                    "midi": 70,
                    "time": 12.391654375,
                    "velocity": 0.2125984251968504,
                    "duration": 0.20314187500000003
                },
                {
                    "name": "D#4",
                    "midi": 63,
                    "time": 12.59479625,
                    "velocity": 0.2125984251968504,
                    "duration": 0.20314187500000003
                },
                {
                    "name": "C#5",
                    "midi": 73,
                    "time": 12.797938125,
                    "velocity": 0.2677165354330709,
                    "duration": 0.20314187500000003
                },
                {
                    "name": "C5",
                    "midi": 72,
                    "time": 13.00108,
                    "velocity": 0.3228346456692913,
                    "duration": 0.20314187500000003
                },
                {
                    "name": "F#4",
                    "midi": 66,
                    "time": 13.204221875,
                    "velocity": 0.2125984251968504,
                    "duration": 0.20314187500000003
                },
                {
                    "name": "C4",
                    "midi": 60,
                    "time": 13.40736375,
                    "velocity": 0.2125984251968504,
                    "duration": 0.20314187500000003
                },
                {
                    "name": "F5",
                    "midi": 77,
                    "time": 14.423073125,
                    "velocity": 0.2992125984251969,
                    "duration": 0.27085583333333396
                },
                {
                    "name": "D#5",
                    "midi": 75,
                    "time": 14.626215,
                    "velocity": 0.33070866141732286,
                    "duration": 0.20314187500000003
                },
                {
                    "name": "A4",
                    "midi": 69,
                    "time": 14.829356875,
                    "velocity": 0.2125984251968504,
                    "duration": 0.20314187500000003
                },
                {
                    "name": "D#4",
                    "midi": 63,
                    "time": 15.03249875,
                    "velocity": 0.2047244094488189,
                    "duration": 0.20314187500000003
                },
                {
                    "name": "C#5",
                    "midi": 73,
                    "time": 15.235640625,
                    "velocity": 0.2677165354330709,
                    "duration": 0.20314187500000003
                },
                {
                    "name": "C5",
                    "midi": 72,
                    "time": 15.4387825,
                    "velocity": 0.3228346456692913,
                    "duration": 0.20314187500000003
                },
                {
                    "name": "A4",
                    "midi": 69,
                    "time": 15.641924375,
                    "velocity": 0.2125984251968504,
                    "duration": 0.20314187500000003
                },
                {
                    "name": "D#4",
                    "midi": 63,
                    "time": 15.84506625,
                    "velocity": 0.2125984251968504,
                    "duration": 0.20314187499999825
                },
                {
                    "name": "F#5",
                    "midi": 78,
                    "time": 16.860775625,
                    "velocity": 0.2992125984251969,
                    "duration": 0.2708558333333322
                },
                {
                    "name": "F5",
                    "midi": 77,
                    "time": 17.0639175,
                    "velocity": 0.33070866141732286,
                    "duration": 0.8125675000000001
                },
                {
                    "name": "C5",
                    "midi": 72,
                    "time": 17.267059375,
                    "velocity": 0.2125984251968504,
                    "duration": 0.20314187500000003
                },
                {
                    "name": "A4",
                    "midi": 69,
                    "time": 17.47020125,
                    "velocity": 0.2047244094488189,
                    "duration": 0.20314187500000003
                },
                {
                    "name": "F4",
                    "midi": 65,
                    "time": 17.673343125,
                    "velocity": 0.1889763779527559,
                    "duration": 0.20314187500000003
                },
                {
                    "name": "E5",
                    "midi": 76,
                    "time": 17.876485,
                    "velocity": 0.33070866141732286,
                    "duration": 0.8125675000000001
                },
                {
                    "name": "C5",
                    "midi": 72,
                    "time": 18.079626875,
                    "velocity": 0.2125984251968504,
                    "duration": 0.20314187500000003
                },
                {
                    "name": "A4",
                    "midi": 69,
                    "time": 18.28276875,
                    "velocity": 0.2047244094488189,
                    "duration": 0.20314187500000003
                },
                {
                    "name": "F4",
                    "midi": 65,
                    "time": 18.485910625,
                    "velocity": 0.1889763779527559,
                    "duration": 0.20314187500000003
                },
                {
                    "name": "D#5",
                    "midi": 75,
                    "time": 18.6890525,
                    "velocity": 0.33070866141732286,
                    "duration": 0.8125675000000001
                },
                {
                    "name": "C5",
                    "midi": 72,
                    "time": 18.892194375,
                    "velocity": 0.2125984251968504,
                    "duration": 0.20314187500000003
                },
                {
                    "name": "A4",
                    "midi": 69,
                    "time": 19.09533625,
                    "velocity": 0.2047244094488189,
                    "duration": 0.20314187500000003
                },
                {
                    "name": "F4",
                    "midi": 65,
                    "time": 19.298478125,
                    "velocity": 0.1889763779527559,
                    "duration": 0.20314187500000003
                },
                {
                    "name": "C#5",
                    "midi": 73,
                    "time": 19.50162,
                    "velocity": 0.3228346456692913,
                    "duration": 3.7919816666666684
                },
                {
                    "name": "A4",
                    "midi": 69,
                    "time": 19.704761875,
                    "velocity": 0.25984251968503935,
                    "duration": 3.5888397916666683
                },
                {
                    "name": "F#4",
                    "midi": 66,
                    "time": 19.90790375,
                    "velocity": 0.2204724409448819,
                    "duration": 3.3856979166666683
                },
                {
                    "name": "C#4",
                    "midi": 61,
                    "time": 20.111045625,
                    "velocity": 0.1732283464566929,
                    "duration": 0.20314187500000003
                },
                {
                    "name": "C#5",
                    "midi": 73,
                    "time": 23.361315625,
                    "velocity": 0.2992125984251969,
                    "duration": 0.2708558333333322
                },
                {
                    "name": "C5",
                    "midi": 72,
                    "time": 23.5644575,
                    "velocity": 0.33070866141732286,
                    "duration": 0.20314187500000003
                },
                {
                    "name": "F#4",
                    "midi": 66,
                    "time": 23.767599375,
                    "velocity": 0.2125984251968504,
                    "duration": 0.20314187500000003
                },
                {
                    "name": "C4",
                    "midi": 60,
                    "time": 23.97074125,
                    "velocity": 0.2047244094488189,
                    "duration": 0.20314187500000003
                },
                {
                    "name": "C5",
                    "midi": 72,
                    "time": 24.173883125,
                    "velocity": 0.2677165354330709,
                    "duration": 0.20314187500000003
                },
                {
                    "name": "A#4",
                    "midi": 70,
                    "time": 24.377025,
                    "velocity": 0.3228346456692913,
                    "duration": 0.8125675000000001
                },
                {
                    "name": "F4",
                    "midi": 65,
                    "time": 24.580166875,
                    "velocity": 0.2125984251968504,
                    "duration": 0.20314187500000003
                },
                {
                    "name": "A#3",
                    "midi": 58,
                    "time": 24.78330875,
                    "velocity": 0.2125984251968504,
                    "duration": 0.20314187500000003
                },
                {
                    "name": "A#4",
                    "midi": 70,
                    "time": 25.799018125,
                    "velocity": 0.2992125984251969,
                    "duration": 0.23699885416666788
                },
                {
                    "name": "C5",
                    "midi": 72,
                    "time": 26.00216,
                    "velocity": 0.33070866141732286,
                    "duration": 0.20314187500000003
                },
                {
                    "name": "F#4",
                    "midi": 66,
                    "time": 26.205301875,
                    "velocity": 0.2125984251968504,
                    "duration": 0.20314187500000003
                },
                {
                    "name": "C4",
                    "midi": 60,
                    "time": 26.40844375,
                    "velocity": 0.2047244094488189,
                    "duration": 0.20314187500000003
                },
                {
                    "name": "C5",
                    "midi": 72,
                    "time": 26.611585625,
                    "velocity": 0.2677165354330709,
                    "duration": 0.20314187500000003
                },
                {
                    "name": "F5",
                    "midi": 77,
                    "time": 26.8147275,
                    "velocity": 0.36220472440944884,
                    "duration": 0.8125675000000001
                },
                {
                    "name": "C5",
                    "midi": 72,
                    "time": 27.017869375,
                    "velocity": 0.2125984251968504,
                    "duration": 0.6094256250000001
                },
                {
                    "name": "F4",
                    "midi": 65,
                    "time": 27.22101125,
                    "velocity": 0.2125984251968504,
                    "duration": 0.20314187500000003
                },
                {
                    "name": "F5",
                    "midi": 77,
                    "time": 28.236720625,
                    "velocity": 0.36220472440944884,
                    "duration": 0.23699885416666788
                },
                {
                    "name": "A#5",
                    "midi": 82,
                    "time": 28.4398625,
                    "velocity": 0.4251968503937008,
                    "duration": 0.20314187500000003
                },
                {
                    "name": "E5",
                    "midi": 76,
                    "time": 28.643004375,
                    "velocity": 0.25984251968503935,
                    "duration": 0.20314187500000003
                },
                {
                    "name": "A#4",
                    "midi": 70,
                    "time": 28.84614625,
                    "velocity": 0.3228346456692913,
                    "duration": 0.20314187500000003
                },
                {
                    "name": "A#5",
                    "midi": 82,
                    "time": 29.049288125,
                    "velocity": 0.3858267716535433,
                    "duration": 0.20314187500000003
                },
                {
                    "name": "A5",
                    "midi": 81,
                    "time": 29.25243,
                    "velocity": 0.47244094488188976,
                    "duration": 0.20314187500000003
                },
                {
                    "name": "D#5",
                    "midi": 75,
                    "time": 29.455571875,
                    "velocity": 0.25196850393700787,
                    "duration": 0.20314187500000003
                },
                {
                    "name": "A4",
                    "midi": 69,
                    "time": 29.65871375,
                    "velocity": 0.25196850393700787,
                    "duration": 0.20314187500000003
                },
                {
                    "name": "F5",
                    "midi": 77,
                    "time": 30.674423125,
                    "velocity": 0.3543307086614173,
                    "duration": 0.20314187500000003
                },
                {
                    "name": "G#5",
                    "midi": 80,
                    "time": 30.877565,
                    "velocity": 0.4094488188976378,
                    "duration": 0.20314187500000003
                },
                {
                    "name": "D5",
                    "midi": 74,
                    "time": 31.080706875,
                    "velocity": 0.25984251968503935,
                    "duration": 0.20314187500000003
                },
                {
                    "name": "G#4",
                    "midi": 68,
                    "time": 31.28384875,
                    "velocity": 0.25196850393700787,
                    "duration": 0.20314187500000003
                },
                {
                    "name": "G#5",
                    "midi": 80,
                    "time": 31.486990625,
                    "velocity": 0.33858267716535434,
                    "duration": 0.20314187500000003
                },
                {
                    "name": "G5",
                    "midi": 79,
                    "time": 31.6901325,
                    "velocity": 0.4015748031496063,
                    "duration": 0.20314187500000003
                },
                {
                    "name": "C#5",
                    "midi": 73,
                    "time": 31.893274375,
                    "velocity": 0.25196850393700787,
                    "duration": 0.20314187499999647
                },
                {
                    "name": "G4",
                    "midi": 67,
                    "time": 32.09641625,
                    "velocity": 0.25196850393700787,
                    "duration": 0.20314187500000003
                },
                {
                    "name": "D#5",
                    "midi": 75,
                    "time": 33.112125625,
                    "velocity": 0.3228346456692913,
                    "duration": 0.20314187500000003
                },
                {
                    "name": "F#5",
                    "midi": 78,
                    "time": 33.3152675,
                    "velocity": 0.3858267716535433,
                    "duration": 0.20314187500000003
                },
                {
                    "name": "C5",
                    "midi": 72,
                    "time": 33.518409375,
                    "velocity": 0.25196850393700787,
                    "duration": 0.20314187500000003
                },
                {
                    "name": "F#4",
                    "midi": 66,
                    "time": 33.72155125,
                    "velocity": 0.25196850393700787,
                    "duration": 0.20314187500000003
                },
                {
                    "name": "F#5",
                    "midi": 78,
                    "time": 33.924693125,
                    "velocity": 0.3228346456692913,
                    "duration": 0.20314187500000003
                },
                {
                    "name": "F5",
                    "midi": 77,
                    "time": 34.127835,
                    "velocity": 0.3858267716535433,
                    "duration": 0.20314187500000003
                },
                {
                    "name": "B4",
                    "midi": 71,
                    "time": 34.330976875,
                    "velocity": 0.25196850393700787,
                    "duration": 0.20314187500000003
                },
                {
                    "name": "F4",
                    "midi": 65,
                    "time": 34.53411875,
                    "velocity": 0.25196850393700787,
                    "duration": 0.20314187500000003
                },
                {
                    "name": "D#5",
                    "midi": 75,
                    "time": 34.737260625,
                    "velocity": 0.3228346456692913,
                    "duration": 0.20314187500000003
                },
                {
                    "name": "C#5",
                    "midi": 73,
                    "time": 34.9404025,
                    "velocity": 0.3858267716535433,
                    "duration": 0.20314187500000003
                },
                {
                    "name": "B4",
                    "midi": 71,
                    "time": 35.143544375,
                    "velocity": 0.25196850393700787,
                    "duration": 0.20314187500000003
                },
                {
                    "name": "F4",
                    "midi": 65,
                    "time": 35.34668625,
                    "velocity": 0.25196850393700787,
                    "duration": 0.20314187500000003
                },
                {
                    "name": "E5",
                    "midi": 76,
                    "time": 36.362395625,
                    "velocity": 0.3543307086614173,
                    "duration": 0.23699885416666433
                },
                {
                    "name": "F5",
                    "midi": 77,
                    "time": 36.5655375,
                    "velocity": 0.3937007874015748,
                    "duration": 0.20314187500000003
                },
                {
                    "name": "G#4",
                    "midi": 68,
                    "time": 36.768679375,
                    "velocity": 0.25196850393700787,
                    "duration": 0.20314187500000003
                },
                {
                    "name": "F4",
                    "midi": 65,
                    "time": 36.97182125,
                    "velocity": 0.2440944881889764,
                    "duration": 0.20314187500000003
                },
                {
                    "name": "C#5",
                    "midi": 73,
                    "time": 37.174963125,
                    "velocity": 0.3228346456692913,
                    "duration": 0.20314187500000003
                },
                {
                    "name": "C5",
                    "midi": 72,
                    "time": 37.378105,
                    "velocity": 0.3858267716535433,
                    "duration": 0.20314187500000003
                },
                {
                    "name": "G#4",
                    "midi": 68,
                    "time": 37.581246875,
                    "velocity": 0.25196850393700787,
                    "duration": 0.20314187500000003
                },
                {
                    "name": "F4",
                    "midi": 65,
                    "time": 37.78438875,
                    "velocity": 0.25196850393700787,
                    "duration": 0.20314187500000003
                },
                {
                    "name": "C5",
                    "midi": 72,
                    "time": 38.800098125,
                    "velocity": 0.3543307086614173,
                    "duration": 0.20314187500000003
                },
                {
                    "name": "C#5",
                    "midi": 73,
                    "time": 39.00324,
                    "velocity": 0.3937007874015748,
                    "duration": 0.8125675000000001
                },
                {
                    "name": "G4",
                    "midi": 67,
                    "time": 39.206381875,
                    "velocity": 0.25196850393700787,
                    "duration": 0.20314187500000003
                },
                {
                    "name": "E4",
                    "midi": 64,
                    "time": 39.40952375,
                    "velocity": 0.2440944881889764,
                    "duration": 0.20314187500000003
                },
                {
                    "name": "C4",
                    "midi": 60,
                    "time": 39.612665625,
                    "velocity": 0.2283464566929134,
                    "duration": 0.20314187500000003
                },
                {
                    "name": "A#4",
                    "midi": 70,
                    "time": 39.8158075,
                    "velocity": 0.3937007874015748,
                    "duration": 0.8125675000000001
                },
                {
                    "name": "G4",
                    "midi": 67,
                    "time": 40.018949375,
                    "velocity": 0.25196850393700787,
                    "duration": 0.20314187500000003
                },
                {
                    "name": "C#4",
                    "midi": 61,
                    "time": 40.22209125,
                    "velocity": 0.2440944881889764,
                    "duration": 0.20314187500000003
                },
                {
                    "name": "C4",
                    "midi": 60,
                    "time": 40.425233125,
                    "velocity": 0.2283464566929134,
                    "duration": 0.20314187500000003
                },
                {
                    "name": "G4",
                    "midi": 67,
                    "time": 40.628375,
                    "velocity": 0.3937007874015748,
                    "duration": 0.8125675000000001
                },
                {
                    "name": "E4",
                    "midi": 64,
                    "time": 40.831516875,
                    "velocity": 0.25196850393700787,
                    "duration": 0.20314187500000003
                },
                {
                    "name": "A#3",
                    "midi": 58,
                    "time": 41.03465875,
                    "velocity": 0.2440944881889764,
                    "duration": 0.20314187500000003
                },
                {
                    "name": "C4",
                    "midi": 60,
                    "time": 41.237800625,
                    "velocity": 0.2283464566929134,
                    "duration": 0.20314187500000003
                },
                {
                    "name": "A#4",
                    "midi": 70,
                    "time": 41.4409425,
                    "velocity": 0.3858267716535433,
                    "duration": 2.4377025000000003
                },
                {
                    "name": "F4",
                    "midi": 65,
                    "time": 41.644084375,
                    "velocity": 0.30708661417322836,
                    "duration": 0.20314187500000003
                },
                {
                    "name": "C4",
                    "midi": 60,
                    "time": 41.84722625,
                    "velocity": 0.2677165354330709,
                    "duration": 0.20314187500000003
                },
                {
                    "name": "F3",
                    "midi": 53,
                    "time": 42.050368125,
                    "velocity": 0.2125984251968504,
                    "duration": 0.20314187500000003
                },
                {
                    "name": "G#4",
                    "midi": 68,
                    "time": 42.65979375,
                    "velocity": 0.4015748031496063,
                    "duration": 0.20314187500000003
                },
                {
                    "name": "G#5",
                    "midi": 80,
                    "time": 42.862935625,
                    "velocity": 0.4251968503937008,
                    "duration": 0.20314187500000003
                },
                {
                    "name": "F#5",
                    "midi": 78,
                    "time": 43.0660775,
                    "velocity": 0.4566929133858268,
                    "duration": 0.20314187500000003
                },
                {
                    "name": "C5",
                    "midi": 72,
                    "time": 43.269219375,
                    "velocity": 0.25196850393700787,
                    "duration": 0.20314187500000003
                },
                {
                    "name": "F#4",
                    "midi": 66,
                    "time": 43.47236125,
                    "velocity": 0.30708661417322836,
                    "duration": 0.20314187500000003
                },
                {
                    "name": "F#5",
                    "midi": 78,
                    "time": 43.675503125,
                    "velocity": 0.3858267716535433,
                    "duration": 0.20314187500000003
                },
                {
                    "name": "F5",
                    "midi": 77,
                    "time": 43.878645,
                    "velocity": 0.3858267716535433,
                    "duration": 0.20314187500000003
                },
                {
                    "name": "B4",
                    "midi": 71,
                    "time": 44.081786875,
                    "velocity": 0.25196850393700787,
                    "duration": 0.20314187500000003
                },
                {
                    "name": "F4",
                    "midi": 65,
                    "time": 44.28492875,
                    "velocity": 0.25196850393700787,
                    "duration": 0.20314187500000003
                },
                {
                    "name": "D#5",
                    "midi": 75,
                    "time": 44.488070625,
                    "velocity": 0.3228346456692913,
                    "duration": 0.20314187500000003
                },
                {
                    "name": "C#5",
                    "midi": 73,
                    "time": 44.6912125,
                    "velocity": 0.3858267716535433,
                    "duration": 0.20314187500000003
                },
                {
                    "name": "B4",
                    "midi": 71,
                    "time": 44.894354375,
                    "velocity": 0.25196850393700787,
                    "duration": 0.20314187500000003
                },
                {
                    "name": "F4",
                    "midi": 65,
                    "time": 45.09749625,
                    "velocity": 0.25196850393700787,
                    "duration": 0.20314187500000003
                },
                {
                    "name": "D5",
                    "midi": 74,
                    "time": 46.113205625,
                    "velocity": 0.3543307086614173,
                    "duration": 0.23699885416666433
                },
                {
                    "name": "C#5",
                    "midi": 73,
                    "time": 46.3163475,
                    "velocity": 0.3937007874015748,
                    "duration": 0.20314187500000003
                },
                {
                    "name": "G#4",
                    "midi": 68,
                    "time": 46.519489375,
                    "velocity": 0.2440944881889764,
                    "duration": 0.20314187500000003
                },
                {
                    "name": "F4",
                    "midi": 65,
                    "time": 46.72263125,
                    "velocity": 0.23622047244094488,
                    "duration": 0.20314187500000003
                },
                {
                    "name": "C5",
                    "midi": 72,
                    "time": 46.925773125,
                    "velocity": 0.30708661417322836,
                    "duration": 0.20314187500000003
                },
                {
                    "name": "B4",
                    "midi": 71,
                    "time": 47.128915,
                    "velocity": 0.3700787401574803,
                    "duration": 0.20314187500000003
                },
                {
                    "name": "G#4",
                    "midi": 68,
                    "time": 47.332056875,
                    "velocity": 0.2440944881889764,
                    "duration": 0.20314187500000003
                },
                {
                    "name": "D4",
                    "midi": 62,
                    "time": 47.53519875,
                    "velocity": 0.23622047244094488,
                    "duration": 0.20314187500000003
                },
                {
                    "name": "C#5",
                    "midi": 73,
                    "time": 48.550908125,
                    "velocity": 0.3228346456692913,
                    "duration": 0.20314187500000003
                },
                {
                    "name": "B4",
                    "midi": 71,
                    "time": 48.75405,
                    "velocity": 0.36220472440944884,
                    "duration": 0.8125675000000001
                },
                {
                    "name": "G#4",
                    "midi": 68,
                    "time": 48.957191875,
                    "velocity": 0.2283464566929134,
                    "duration": 0.20314187500000003
                },
                {
                    "name": "D4",
                    "midi": 62,
                    "time": 49.16033375,
                    "velocity": 0.2204724409448819,
                    "duration": 0.20314187500000003
                },
                {
                    "name": "A4",
                    "midi": 69,
                    "time": 49.5666175,
                    "velocity": 0.3543307086614173,
                    "duration": 0.8125675000000001
                },
                {
                    "name": "F#4",
                    "midi": 66,
                    "time": 49.769759375,
                    "velocity": 0.2204724409448819,
                    "duration": 0.20314187500000003
                },
                {
                    "name": "C#4",
                    "midi": 61,
                    "time": 49.97290125,
                    "velocity": 0.2125984251968504,
                    "duration": 0.20314187500000003
                },
                {
                    "name": "G#4",
                    "midi": 68,
                    "time": 50.379185,
                    "velocity": 0.3464566929133858,
                    "duration": 0.8125675000000001
                },
                {
                    "name": "F4",
                    "midi": 65,
                    "time": 50.582326875,
                    "velocity": 0.2125984251968504,
                    "duration": 0.20314187500000003
                },
                {
                    "name": "B3",
                    "midi": 59,
                    "time": 50.78546875,
                    "velocity": 0.2047244094488189,
                    "duration": 0.20314187500000003
                },
                {
                    "name": "F#4",
                    "midi": 66,
                    "time": 51.1917525,
                    "velocity": 0.3228346456692913,
                    "duration": 3.6565537500000005
                },
                {
                    "name": "D4",
                    "midi": 62,
                    "time": 51.394894375,
                    "velocity": 0.25984251968503935,
                    "duration": 1.4219931250000002
                },
                {
                    "name": "A3",
                    "midi": 57,
                    "time": 51.59803625,
                    "velocity": 0.2204724409448819,
                    "duration": 3.2502700000000004
                },
                {
                    "name": "C#4",
                    "midi": 61,
                    "time": 52.8168875,
                    "velocity": 0.2204724409448819,
                    "duration": 2.0314187500000003
                },
                {
                    "name": "G#3",
                    "midi": 56,
                    "time": 54.84830625,
                    "velocity": 0.2283464566929134,
                    "duration": 0.40628375000000005
                },
                {
                    "name": "C4",
                    "midi": 60,
                    "time": 54.84830625,
                    "velocity": 0.2283464566929134,
                    "duration": 0.8125675000000001
                },
                {
                    "name": "F4",
                    "midi": 65,
                    "time": 54.84830625,
                    "velocity": 0.29133858267716534,
                    "duration": 0.40628375000000005
                },
                {
                    "name": "F#3",
                    "midi": 54,
                    "time": 55.25459,
                    "velocity": 0.2125984251968504,
                    "duration": 0.40628375000000005
                },
                {
                    "name": "D#4",
                    "midi": 63,
                    "time": 55.25459,
                    "velocity": 0.2677165354330709,
                    "duration": 0.40628375000000005
                },
                {
                    "name": "F#3",
                    "midi": 54,
                    "time": 55.66087375,
                    "velocity": 0.2283464566929134,
                    "duration": 0.40628375000000005
                },
                {
                    "name": "C4",
                    "midi": 60,
                    "time": 55.66087375,
                    "velocity": 0.2283464566929134,
                    "duration": 0.40628375000000005
                },
                {
                    "name": "D#4",
                    "midi": 63,
                    "time": 55.66087375,
                    "velocity": 0.29133858267716534,
                    "duration": 0.40628375000000005
                },
                {
                    "name": "F3",
                    "midi": 53,
                    "time": 56.0671575,
                    "velocity": 0.2047244094488189,
                    "duration": 1.2188512500000002
                },
                {
                    "name": "C#4",
                    "midi": 61,
                    "time": 56.0671575,
                    "velocity": 0.29133858267716534,
                    "duration": 1.2188512500000002
                },
                {
                    "name": "C#5",
                    "midi": 73,
                    "time": 57.28600875,
                    "velocity": 0.31496062992125984,
                    "duration": 0.40628375000000005
                },
                {
                    "name": "F4",
                    "midi": 65,
                    "time": 57.28600875,
                    "velocity": 0.2677165354330709,
                    "duration": 0.40628375000000005
                },
                {
                    "name": "F#4",
                    "midi": 66,
                    "time": 57.6922925,
                    "velocity": 0.23622047244094488,
                    "duration": 0.40628375000000005
                },
                {
                    "name": "C5",
                    "midi": 72,
                    "time": 57.6922925,
                    "velocity": 0.23622047244094488,
                    "duration": 0.40628375000000005
                },
                {
                    "name": "D#5",
                    "midi": 75,
                    "time": 57.6922925,
                    "velocity": 0.29133858267716534,
                    "duration": 0.40628375000000005
                },
                {
                    "name": "D#5",
                    "midi": 75,
                    "time": 58.09857625,
                    "velocity": 0.30708661417322836,
                    "duration": 0.20314187500000003
                },
                {
                    "name": "C5",
                    "midi": 72,
                    "time": 58.09857625,
                    "velocity": 0.2677165354330709,
                    "duration": 0.20314187500000003
                },
                {
                    "name": "F#4",
                    "midi": 66,
                    "time": 58.09857625,
                    "velocity": 0.2677165354330709,
                    "duration": 0.20314187500000003
                },
                {
                    "name": "F4",
                    "midi": 65,
                    "time": 58.301718125,
                    "velocity": 0.2283464566929134,
                    "duration": 1.4219931250000002
                },
                {
                    "name": "F5",
                    "midi": 77,
                    "time": 58.4032890625,
                    "velocity": 0.23622047244094488,
                    "duration": 1.3204221875000002
                },
                {
                    "name": "G#5",
                    "midi": 80,
                    "time": 58.50486,
                    "velocity": 0.33070866141732286,
                    "duration": 1.2188512500000002
                },
                {
                    "name": "F5",
                    "midi": 77,
                    "time": 59.72371125,
                    "velocity": 0.31496062992125984,
                    "duration": 0.20314187500000003
                },
                {
                    "name": "C#5",
                    "midi": 73,
                    "time": 59.72371125,
                    "velocity": 0.2677165354330709,
                    "duration": 0.20314187500000003
                },
                {
                    "name": "F#4",
                    "midi": 66,
                    "time": 59.926853125,
                    "velocity": 0.25984251968503935,
                    "duration": 0.6094256250000001
                },
                {
                    "name": "F#5",
                    "midi": 78,
                    "time": 60.0284240625,
                    "velocity": 0.2677165354330709,
                    "duration": 0.6094256250000001
                },
                {
                    "name": "A#5",
                    "midi": 82,
                    "time": 60.129995,
                    "velocity": 0.33070866141732286,
                    "duration": 0.40628375000000005
                },
                {
                    "name": "C5",
                    "midi": 72,
                    "time": 60.53627875,
                    "velocity": 0.2755905511811024,
                    "duration": 0.20314187500000003
                },
                {
                    "name": "D#5",
                    "midi": 75,
                    "time": 60.53627875,
                    "velocity": 0.33070866141732286,
                    "duration": 0.20314187500000003
                },
                {
                    "name": "F4",
                    "midi": 65,
                    "time": 60.739420625,
                    "velocity": 0.2283464566929134,
                    "duration": 1.2188512500000002
                },
                {
                    "name": "F5",
                    "midi": 77,
                    "time": 60.8409915625,
                    "velocity": 0.23622047244094488,
                    "duration": 1.1172803125000002
                },
                {
                    "name": "G#5",
                    "midi": 80,
                    "time": 60.9425625,
                    "velocity": 0.33070866141732286,
                    "duration": 1.0157093750000001
                },
                {
                    "name": "C#4",
                    "midi": 61,
                    "time": 61.958271875,
                    "velocity": 0.2125984251968504,
                    "duration": 0.40628375000000005
                },
                {
                    "name": "C#5",
                    "midi": 73,
                    "time": 62.0598428125,
                    "velocity": 0.2047244094488189,
                    "duration": 0.5078546875000001
                },
                {
                    "name": "F5",
                    "midi": 77,
                    "time": 62.16141375,
                    "velocity": 0.30708661417322836,
                    "duration": 0.40628375000000005
                },
                {
                    "name": "C5",
                    "midi": 72,
                    "time": 62.5676975,
                    "velocity": 0.2755905511811024,
                    "duration": 0.20314187500000003
                },
                {
                    "name": "G#4",
                    "midi": 68,
                    "time": 62.5676975,
                    "velocity": 0.2283464566929134,
                    "duration": 0.20314187500000003
                },
                {
                    "name": "A#3",
                    "midi": 58,
                    "time": 62.770839375,
                    "velocity": 0.2047244094488189,
                    "duration": 0.6094256250000001
                },
                {
                    "name": "A#4",
                    "midi": 70,
                    "time": 62.8724103125,
                    "velocity": 0.2677165354330709,
                    "duration": 0.5078546875000001
                },
                {
                    "name": "C#5",
                    "midi": 73,
                    "time": 62.97398125,
                    "velocity": 0.33070866141732286,
                    "duration": 0.40628375000000005
                },
                {
                    "name": "F4",
                    "midi": 65,
                    "time": 63.380265,
                    "velocity": 0.2283464566929134,
                    "duration": 1.218851249999993
                },
                {
                    "name": "G#4",
                    "midi": 68,
                    "time": 63.380265,
                    "velocity": 0.2283464566929134,
                    "duration": 1.218851249999993
                },
                {
                    "name": "F#4",
                    "midi": 66,
                    "time": 64.59911625,
                    "velocity": 0.23622047244094488,
                    "duration": 0.40628375000000005
                },
                {
                    "name": "D#4",
                    "midi": 63,
                    "time": 64.59911625,
                    "velocity": 0.23622047244094488,
                    "duration": 0.40628375000000005
                },
                {
                    "name": "F#4",
                    "midi": 66,
                    "time": 65.0054,
                    "velocity": 0.2440944881889764,
                    "duration": 0.8125675000000001
                },
                {
                    "name": "D#4",
                    "midi": 63,
                    "time": 65.0054,
                    "velocity": 0.2440944881889764,
                    "duration": 0.8125675000000001
                },
                {
                    "name": "A#3",
                    "midi": 58,
                    "time": 65.41168375,
                    "velocity": 0.23622047244094488,
                    "duration": 0.40628375000000005
                },
                {
                    "name": "F4",
                    "midi": 65,
                    "time": 65.8179675,
                    "velocity": 0.33070866141732286,
                    "duration": 0.8125675000000001
                },
                {
                    "name": "G#4",
                    "midi": 68,
                    "time": 65.8179675,
                    "velocity": 0.33070866141732286,
                    "duration": 0.8125675000000001
                },
                {
                    "name": "B3",
                    "midi": 59,
                    "time": 65.8179675,
                    "velocity": 0.31496062992125984,
                    "duration": 0.4469121249999972
                },
                {
                    "name": "A#3",
                    "midi": 58,
                    "time": 66.22425125,
                    "velocity": 0.2440944881889764,
                    "duration": 0.4469121249999972
                },
                {
                    "name": "D#4",
                    "midi": 63,
                    "time": 66.630535,
                    "velocity": 0.30708661417322836,
                    "duration": 0.8125675000000001
                },
                {
                    "name": "F#4",
                    "midi": 66,
                    "time": 66.630535,
                    "velocity": 0.30708661417322836,
                    "duration": 0.8125675000000001
                },
                {
                    "name": "A3",
                    "midi": 57,
                    "time": 66.630535,
                    "velocity": 0.2677165354330709,
                    "duration": 0.4469121249999972
                },
                {
                    "name": "A#3",
                    "midi": 58,
                    "time": 67.03681875,
                    "velocity": 0.2440944881889764,
                    "duration": 0.4469121249999972
                },
                {
                    "name": "B3",
                    "midi": 59,
                    "time": 67.4431025,
                    "velocity": 0.29133858267716534,
                    "duration": 0.4469121249999972
                },
                {
                    "name": "F#4",
                    "midi": 66,
                    "time": 67.4431025,
                    "velocity": 0.30708661417322836,
                    "duration": 0.8125675000000001
                },
                {
                    "name": "D#4",
                    "midi": 63,
                    "time": 67.4431025,
                    "velocity": 0.30708661417322836,
                    "duration": 0.8125675000000001
                },
                {
                    "name": "C4",
                    "midi": 60,
                    "time": 67.84938625,
                    "velocity": 0.2440944881889764,
                    "duration": 0.40628375000000005
                },
                {
                    "name": "D#4",
                    "midi": 63,
                    "time": 68.25567,
                    "velocity": 0.29133858267716534,
                    "duration": 0.4469121249999972
                },
                {
                    "name": "F#4",
                    "midi": 66,
                    "time": 68.25567,
                    "velocity": 0.33070866141732286,
                    "duration": 0.8125675000000001
                },
                {
                    "name": "G#3",
                    "midi": 56,
                    "time": 68.25567,
                    "velocity": 0.33070866141732286,
                    "duration": 0.8125675000000001
                },
                {
                    "name": "C#4",
                    "midi": 61,
                    "time": 68.66195375,
                    "velocity": 0.25196850393700787,
                    "duration": 0.4469121249999972
                },
                {
                    "name": "F4",
                    "midi": 65,
                    "time": 69.0682375,
                    "velocity": 0.31496062992125984,
                    "duration": 0.8125675000000001
                },
                {
                    "name": "G#3",
                    "midi": 56,
                    "time": 69.0682375,
                    "velocity": 0.31496062992125984,
                    "duration": 0.8125675000000001
                },
                {
                    "name": "C4",
                    "midi": 60,
                    "time": 69.0682375,
                    "velocity": 0.30708661417322836,
                    "duration": 0.4469121249999972
                },
                {
                    "name": "C#4",
                    "midi": 61,
                    "time": 69.47452125,
                    "velocity": 0.2677165354330709,
                    "duration": 0.4469121249999972
                },
                {
                    "name": "F4",
                    "midi": 65,
                    "time": 69.880805,
                    "velocity": 0.3464566929133858,
                    "duration": 0.8125675000000001
                },
                {
                    "name": "F3",
                    "midi": 53,
                    "time": 69.880805,
                    "velocity": 0.3464566929133858,
                    "duration": 0.8125675000000001
                },
                {
                    "name": "C4",
                    "midi": 60,
                    "time": 69.880805,
                    "velocity": 0.36220472440944884,
                    "duration": 0.4469121249999972
                },
                {
                    "name": "A#3",
                    "midi": 58,
                    "time": 70.28708875,
                    "velocity": 0.2992125984251969,
                    "duration": 0.40628375000000005
                },
                {
                    "name": "A3",
                    "midi": 57,
                    "time": 70.6933725,
                    "velocity": 0.4015748031496063,
                    "duration": 0.4469121249999972
                },
                {
                    "name": "F4",
                    "midi": 65,
                    "time": 70.6933725,
                    "velocity": 0.4409448818897638,
                    "duration": 0.8125675000000001
                },
                {
                    "name": "F3",
                    "midi": 53,
                    "time": 70.6933725,
                    "velocity": 0.4409448818897638,
                    "duration": 0.8125675000000001
                },
                {
                    "name": "A#3",
                    "midi": 58,
                    "time": 71.09965625,
                    "velocity": 0.30708661417322836,
                    "duration": 0.4469121249999972
                },
                {
                    "name": "C#4",
                    "midi": 61,
                    "time": 71.50594,
                    "velocity": 0.33858267716535434,
                    "duration": 0.4469121249999972
                },
                {
                    "name": "D#3",
                    "midi": 51,
                    "time": 71.50594,
                    "velocity": 0.3543307086614173,
                    "duration": 0.8125675000000001
                },
                {
                    "name": "D#4",
                    "midi": 63,
                    "time": 71.50594,
                    "velocity": 0.3543307086614173,
                    "duration": 0.8125675000000001
                },
                {
                    "name": "C4",
                    "midi": 60,
                    "time": 71.91222375,
                    "velocity": 0.25984251968503935,
                    "duration": 0.4469121249999972
                },
                {
                    "name": "E4",
                    "midi": 64,
                    "time": 72.3185075,
                    "velocity": 0.2992125984251969,
                    "duration": 0.8125675000000001
                },
                {
                    "name": "E3",
                    "midi": 52,
                    "time": 72.3185075,
                    "velocity": 0.2992125984251969,
                    "duration": 0.8125675000000001
                },
                {
                    "name": "A#3",
                    "midi": 58,
                    "time": 72.3185075,
                    "velocity": 0.30708661417322836,
                    "duration": 0.4469121249999972
                },
                {
                    "name": "C4",
                    "midi": 60,
                    "time": 72.72479125,
                    "velocity": 0.2204724409448819,
                    "duration": 0.40628375000000005
                },
                {
                    "name": "F4",
                    "midi": 65,
                    "time": 73.131075,
                    "velocity": 0.25984251968503935,
                    "duration": 1.2188512500000002
                },
                {
                    "name": "F3",
                    "midi": 53,
                    "time": 73.131075,
                    "velocity": 0.25984251968503935,
                    "duration": 1.2188512500000002
                },
                {
                    "name": "A#3",
                    "midi": 58,
                    "time": 73.131075,
                    "velocity": 0.1889763779527559,
                    "duration": 0.8125675000000001
                },
                {
                    "name": "A3",
                    "midi": 57,
                    "time": 73.9436425,
                    "velocity": 0.16535433070866143,
                    "duration": 0.40628375000000005
                },
                {
                    "name": "G#3",
                    "midi": 56,
                    "time": 74.34992625,
                    "velocity": 0.2283464566929134,
                    "duration": 0.40628375000000005
                },
                {
                    "name": "C4",
                    "midi": 60,
                    "time": 74.34992625,
                    "velocity": 0.2283464566929134,
                    "duration": 0.8125675000000001
                },
                {
                    "name": "F4",
                    "midi": 65,
                    "time": 74.34992625,
                    "velocity": 0.29133858267716534,
                    "duration": 0.40628375000000005
                },
                {
                    "name": "F#3",
                    "midi": 54,
                    "time": 74.75621,
                    "velocity": 0.2125984251968504,
                    "duration": 0.40628375000000005
                },
                {
                    "name": "D#4",
                    "midi": 63,
                    "time": 74.75621,
                    "velocity": 0.2677165354330709,
                    "duration": 0.40628375000000005
                },
                {
                    "name": "F#3",
                    "midi": 54,
                    "time": 75.16249375,
                    "velocity": 0.2283464566929134,
                    "duration": 0.40628375000000005
                },
                {
                    "name": "C4",
                    "midi": 60,
                    "time": 75.16249375,
                    "velocity": 0.2283464566929134,
                    "duration": 0.40628375000000005
                },
                {
                    "name": "D#4",
                    "midi": 63,
                    "time": 75.16249375,
                    "velocity": 0.29133858267716534,
                    "duration": 0.40628375000000005
                },
                {
                    "name": "F3",
                    "midi": 53,
                    "time": 75.5687775,
                    "velocity": 0.2047244094488189,
                    "duration": 1.2188512500000002
                },
                {
                    "name": "C#4",
                    "midi": 61,
                    "time": 75.5687775,
                    "velocity": 0.29133858267716534,
                    "duration": 1.2188512500000002
                },
                {
                    "name": "C#5",
                    "midi": 73,
                    "time": 76.78762875,
                    "velocity": 0.2992125984251969,
                    "duration": 0.40628375000000005
                },
                {
                    "name": "F4",
                    "midi": 65,
                    "time": 76.78762875,
                    "velocity": 0.25196850393700787,
                    "duration": 0.40628375000000005
                },
                {
                    "name": "F#4",
                    "midi": 66,
                    "time": 77.1939125,
                    "velocity": 0.2204724409448819,
                    "duration": 0.40628375000000005
                },
                {
                    "name": "C5",
                    "midi": 72,
                    "time": 77.1939125,
                    "velocity": 0.2204724409448819,
                    "duration": 0.40628375000000005
                },
                {
                    "name": "D#5",
                    "midi": 75,
                    "time": 77.1939125,
                    "velocity": 0.2755905511811024,
                    "duration": 0.40628375000000005
                },
                {
                    "name": "D#5",
                    "midi": 75,
                    "time": 77.60019625,
                    "velocity": 0.29133858267716534,
                    "duration": 0.20314187500000003
                },
                {
                    "name": "C5",
                    "midi": 72,
                    "time": 77.60019625,
                    "velocity": 0.25196850393700787,
                    "duration": 0.20314187500000003
                },
                {
                    "name": "F#4",
                    "midi": 66,
                    "time": 77.60019625,
                    "velocity": 0.25196850393700787,
                    "duration": 0.20314187500000003
                },
                {
                    "name": "F4",
                    "midi": 65,
                    "time": 77.803338125,
                    "velocity": 0.2125984251968504,
                    "duration": 1.4219931250000002
                },
                {
                    "name": "F5",
                    "midi": 77,
                    "time": 77.9049090625,
                    "velocity": 0.2204724409448819,
                    "duration": 1.3204221875000002
                },
                {
                    "name": "G#5",
                    "midi": 80,
                    "time": 78.00648,
                    "velocity": 0.30708661417322836,
                    "duration": 1.2188512500000002
                },
                {
                    "name": "F5",
                    "midi": 77,
                    "time": 79.22533125,
                    "velocity": 0.31496062992125984,
                    "duration": 0.20314187500000003
                },
                {
                    "name": "C#5",
                    "midi": 73,
                    "time": 79.22533125,
                    "velocity": 0.2677165354330709,
                    "duration": 0.20314187500000003
                },
                {
                    "name": "F#4",
                    "midi": 66,
                    "time": 79.428473125,
                    "velocity": 0.29133858267716534,
                    "duration": 0.6094256250000001
                },
                {
                    "name": "F#5",
                    "midi": 78,
                    "time": 79.5300440625,
                    "velocity": 0.3228346456692913,
                    "duration": 0.6094256250000001
                },
                {
                    "name": "A#5",
                    "midi": 82,
                    "time": 79.631615,
                    "velocity": 0.36220472440944884,
                    "duration": 0.40628375000000005
                },
                {
                    "name": "B4",
                    "midi": 71,
                    "time": 80.03789875,
                    "velocity": 0.2755905511811024,
                    "duration": 0.20314187500000003
                },
                {
                    "name": "D#5",
                    "midi": 75,
                    "time": 80.03789875,
                    "velocity": 0.33070866141732286,
                    "duration": 0.20314187500000003
                },
                {
                    "name": "F4",
                    "midi": 65,
                    "time": 80.241040625,
                    "velocity": 0.2283464566929134,
                    "duration": 1.2188512500000002
                },
                {
                    "name": "F5",
                    "midi": 77,
                    "time": 80.3426115625,
                    "velocity": 0.23622047244094488,
                    "duration": 1.1172803125000002
                },
                {
                    "name": "G#5",
                    "midi": 80,
                    "time": 80.4441825,
                    "velocity": 0.33070866141732286,
                    "duration": 1.0157093750000001
                },
                {
                    "name": "C#4",
                    "midi": 61,
                    "time": 81.459891875,
                    "velocity": 0.23622047244094488,
                    "duration": 0.40628375000000005
                },
                {
                    "name": "C#5",
                    "midi": 73,
                    "time": 81.5614628125,
                    "velocity": 0.25984251968503935,
                    "duration": 0.5078546875000001
                },
                {
                    "name": "F5",
                    "midi": 77,
                    "time": 81.66303375,
                    "velocity": 0.30708661417322836,
                    "duration": 0.40628375000000005
                },
                {
                    "name": "B4",
                    "midi": 71,
                    "time": 82.0693175,
                    "velocity": 0.2755905511811024,
                    "duration": 0.20314187500000003
                },
                {
                    "name": "G#4",
                    "midi": 68,
                    "time": 82.0693175,
                    "velocity": 0.2283464566929134,
                    "duration": 0.20314187500000003
                },
                {
                    "name": "A#3",
                    "midi": 58,
                    "time": 82.272459375,
                    "velocity": 0.14960629921259844,
                    "duration": 0.6094256250000001
                },
                {
                    "name": "A#4",
                    "midi": 70,
                    "time": 82.3740303125,
                    "velocity": 0.23622047244094488,
                    "duration": 0.5078546875000001
                },
                {
                    "name": "C#5",
                    "midi": 73,
                    "time": 82.47560125,
                    "velocity": 0.2992125984251969,
                    "duration": 0.40628375000000005
                },
                {
                    "name": "F4",
                    "midi": 65,
                    "time": 82.881885,
                    "velocity": 0.2440944881889764,
                    "duration": 1.2188512500000002
                },
                {
                    "name": "A4",
                    "midi": 69,
                    "time": 82.881885,
                    "velocity": 0.31496062992125984,
                    "duration": 1.2188512500000002
                },
                {
                    "name": "A#4",
                    "midi": 70,
                    "time": 84.10073625,
                    "velocity": 0.29133858267716534,
                    "duration": 0.40628375000000005
                },
                {
                    "name": "F#4",
                    "midi": 66,
                    "time": 84.10073625,
                    "velocity": 0.29133858267716534,
                    "duration": 0.40628375000000005
                },
                {
                    "name": "A#4",
                    "midi": 70,
                    "time": 84.50702,
                    "velocity": 0.29133858267716534,
                    "duration": 0.8125675000000001
                },
                {
                    "name": "F#4",
                    "midi": 66,
                    "time": 84.50702,
                    "velocity": 0.29133858267716534,
                    "duration": 0.8125675000000001
                },
                {
                    "name": "C#4",
                    "midi": 61,
                    "time": 84.91330375,
                    "velocity": 0.2283464566929134,
                    "duration": 0.40628375000000005
                },
                {
                    "name": "F#4",
                    "midi": 66,
                    "time": 85.3195875,
                    "velocity": 0.31496062992125984,
                    "duration": 0.8125675000000001
                },
                {
                    "name": "A4",
                    "midi": 69,
                    "time": 85.3195875,
                    "velocity": 0.31496062992125984,
                    "duration": 0.8125675000000001
                },
                {
                    "name": "D4",
                    "midi": 62,
                    "time": 85.3195875,
                    "velocity": 0.30708661417322836,
                    "duration": 0.4469121249999972
                },
                {
                    "name": "C#4",
                    "midi": 61,
                    "time": 85.72587125,
                    "velocity": 0.2283464566929134,
                    "duration": 0.4469121249999972
                },
                {
                    "name": "F#4",
                    "midi": 66,
                    "time": 86.132155,
                    "velocity": 0.29133858267716534,
                    "duration": 0.8125675000000001
                },
                {
                    "name": "A#4",
                    "midi": 70,
                    "time": 86.132155,
                    "velocity": 0.29133858267716534,
                    "duration": 0.8125675000000001
                },
                {
                    "name": "C4",
                    "midi": 60,
                    "time": 86.132155,
                    "velocity": 0.25984251968503935,
                    "duration": 0.4469121249999972
                },
                {
                    "name": "C#4",
                    "midi": 61,
                    "time": 86.53843875,
                    "velocity": 0.2283464566929134,
                    "duration": 0.4469121249999972
                },
                {
                    "name": "D4",
                    "midi": 62,
                    "time": 86.9447225,
                    "velocity": 0.28346456692913385,
                    "duration": 0.4469121249999972
                },
                {
                    "name": "A#4",
                    "midi": 70,
                    "time": 86.9447225,
                    "velocity": 0.2992125984251969,
                    "duration": 0.8125675000000001
                },
                {
                    "name": "F#4",
                    "midi": 66,
                    "time": 86.9447225,
                    "velocity": 0.2992125984251969,
                    "duration": 0.8125675000000001
                },
                {
                    "name": "C#4",
                    "midi": 61,
                    "time": 87.35100625,
                    "velocity": 0.23622047244094488,
                    "duration": 0.40628375000000005
                },
                {
                    "name": "D#4",
                    "midi": 63,
                    "time": 87.75729,
                    "velocity": 0.29133858267716534,
                    "duration": 0.4469121249999972
                },
                {
                    "name": "B4",
                    "midi": 71,
                    "time": 87.75729,
                    "velocity": 0.3779527559055118,
                    "duration": 0.8125675000000001
                },
                {
                    "name": "G#4",
                    "midi": 68,
                    "time": 87.75729,
                    "velocity": 0.3464566929133858,
                    "duration": 0.8125675000000001
                },
                {
                    "name": "C#4",
                    "midi": 61,
                    "time": 88.16357375,
                    "velocity": 0.25984251968503935,
                    "duration": 0.4469121249999972
                },
                {
                    "name": "A#4",
                    "midi": 70,
                    "time": 88.5698575,
                    "velocity": 0.33070866141732286,
                    "duration": 0.8125675000000001
                },
                {
                    "name": "F#4",
                    "midi": 66,
                    "time": 88.5698575,
                    "velocity": 0.33070866141732286,
                    "duration": 0.8125675000000001
                },
                {
                    "name": "C4",
                    "midi": 60,
                    "time": 88.5698575,
                    "velocity": 0.31496062992125984,
                    "duration": 0.4469121249999972
                },
                {
                    "name": "C#4",
                    "midi": 61,
                    "time": 88.97614125,
                    "velocity": 0.28346456692913385,
                    "duration": 0.4469121249999972
                },
                {
                    "name": "G4",
                    "midi": 67,
                    "time": 89.382425,
                    "velocity": 0.3700787401574803,
                    "duration": 0.8125675000000001
                },
                {
                    "name": "G3",
                    "midi": 55,
                    "time": 89.382425,
                    "velocity": 0.3700787401574803,
                    "duration": 0.8125675000000001
                },
                {
                    "name": "D#4",
                    "midi": 63,
                    "time": 89.382425,
                    "velocity": 0.3858267716535433,
                    "duration": 0.4469121249999972
                },
                {
                    "name": "C#4",
                    "midi": 61,
                    "time": 89.78870875,
                    "velocity": 0.31496062992125984,
                    "duration": 0.40628375000000005
                },
                {
                    "name": "F4",
                    "midi": 65,
                    "time": 90.1949925,
                    "velocity": 0.4409448818897638,
                    "duration": 0.40628375000000005
                },
                {
                    "name": "G#4",
                    "midi": 68,
                    "time": 90.1949925,
                    "velocity": 0.4881889763779528,
                    "duration": 0.8125675000000001
                },
                {
                    "name": "G#3",
                    "midi": 56,
                    "time": 90.1949925,
                    "velocity": 0.4881889763779528,
                    "duration": 0.8125675000000001
                },
                {
                    "name": "C#4",
                    "midi": 61,
                    "time": 90.60127625,
                    "velocity": 0.3228346456692913,
                    "duration": 0.4469121249999972
                },
                {
                    "name": "C4",
                    "midi": 60,
                    "time": 91.00756,
                    "velocity": 0.3543307086614173,
                    "duration": 0.40628375000000005
                },
                {
                    "name": "F#3",
                    "midi": 54,
                    "time": 91.00756,
                    "velocity": 0.3700787401574803,
                    "duration": 1.6251350000000002
                },
                {
                    "name": "F#4",
                    "midi": 66,
                    "time": 91.00756,
                    "velocity": 0.3700787401574803,
                    "duration": 1.6251350000000002
                },
                {
                    "name": "A#3",
                    "midi": 58,
                    "time": 91.41384375,
                    "velocity": 0.2677165354330709,
                    "duration": 0.4469121249999972
                },
                {
                    "name": "G#3",
                    "midi": 56,
                    "time": 91.8201275,
                    "velocity": 0.2992125984251969,
                    "duration": 0.4469121249999972
                },
                {
                    "name": "C4",
                    "midi": 60,
                    "time": 92.22641125,
                    "velocity": 0.23622047244094488,
                    "duration": 0.40628375000000005
                },
                {
                    "name": "F4",
                    "midi": 65,
                    "time": 92.632695,
                    "velocity": 0.25196850393700787,
                    "duration": 1.4219931250000002
                },
                {
                    "name": "F3",
                    "midi": 53,
                    "time": 92.632695,
                    "velocity": 0.25196850393700787,
                    "duration": 1.4219931250000002
                },
                {
                    "name": "D#4",
                    "midi": 63,
                    "time": 92.632695,
                    "velocity": 0.18110236220472442,
                    "duration": 0.8125675000000001
                },
                {
                    "name": "C#4",
                    "midi": 61,
                    "time": 93.4452625,
                    "velocity": 0.15748031496062992,
                    "duration": 0.40628375000000005
                },
                {
                    "name": "C#5",
                    "midi": 73,
                    "time": 94.054688125,
                    "velocity": 0.1968503937007874,
                    "duration": 0.20314187500000003
                },
                {
                    "name": "C#4",
                    "midi": 61,
                    "time": 94.054688125,
                    "velocity": 0.16535433070866143,
                    "duration": 0.20314187500000003
                },
                {
                    "name": "C5",
                    "midi": 72,
                    "time": 94.25783,
                    "velocity": 0.2283464566929134,
                    "duration": 0.20314187500000003
                },
                {
                    "name": "C4",
                    "midi": 60,
                    "time": 94.25783,
                    "velocity": 0.1889763779527559,
                    "duration": 0.20314187500000003
                },
                {
                    "name": "C5",
                    "midi": 72,
                    "time": 94.867255625,
                    "velocity": 0.2204724409448819,
                    "duration": 0.20314187500000003
                },
                {
                    "name": "C4",
                    "midi": 60,
                    "time": 94.867255625,
                    "velocity": 0.18110236220472442,
                    "duration": 0.20314187500000003
                },
                {
                    "name": "A#3",
                    "midi": 58,
                    "time": 95.0703975,
                    "velocity": 0.09448818897637795,
                    "duration": 0.8125675000000001
                },
                {
                    "name": "A#4",
                    "midi": 70,
                    "time": 95.0703975,
                    "velocity": 0.11811023622047244,
                    "duration": 0.8125675000000001
                },
                {
                    "name": "F4",
                    "midi": 65,
                    "time": 95.882965,
                    "velocity": 0.2440944881889764,
                    "duration": 0.8125675000000001
                },
                {
                    "name": "F5",
                    "midi": 77,
                    "time": 97.304958125,
                    "velocity": 0.2125984251968504,
                    "duration": 0.23699885416667144
                },
                {
                    "name": "E5",
                    "midi": 76,
                    "time": 97.5081,
                    "velocity": 0.2677165354330709,
                    "duration": 0.20314187500000003
                },
                {
                    "name": "C#5",
                    "midi": 73,
                    "time": 97.711241875,
                    "velocity": 0.2204724409448819,
                    "duration": 0.20314187500000003
                },
                {
                    "name": "E4",
                    "midi": 64,
                    "time": 97.91438375,
                    "velocity": 0.2283464566929134,
                    "duration": 0.20314187500000003
                },
                {
                    "name": "E5",
                    "midi": 76,
                    "time": 98.117525625,
                    "velocity": 0.1889763779527559,
                    "duration": 0.23699885416667144
                },
                {
                    "name": "D#5",
                    "midi": 75,
                    "time": 98.3206675,
                    "velocity": 0.2440944881889764,
                    "duration": 0.20314187500000003
                },
                {
                    "name": "C#5",
                    "midi": 73,
                    "time": 98.523809375,
                    "velocity": 0.1968503937007874,
                    "duration": 0.20314187500000003
                },
                {
                    "name": "D#4",
                    "midi": 63,
                    "time": 98.72695125,
                    "velocity": 0.1968503937007874,
                    "duration": 0.20314187500000003
                },
                {
                    "name": "G#5",
                    "midi": 80,
                    "time": 99.742660625,
                    "velocity": 0.2125984251968504,
                    "duration": 0.23699885416667144
                },
                {
                    "name": "F#5",
                    "midi": 78,
                    "time": 99.9458025,
                    "velocity": 0.2677165354330709,
                    "duration": 0.20314187500000003
                },
                {
                    "name": "D#5",
                    "midi": 75,
                    "time": 100.148944375,
                    "velocity": 0.2204724409448819,
                    "duration": 0.20314187500000003
                },
                {
                    "name": "F#4",
                    "midi": 66,
                    "time": 100.35208625,
                    "velocity": 0.2283464566929134,
                    "duration": 0.20314187500000003
                },
                {
                    "name": "F#5",
                    "midi": 78,
                    "time": 100.555228125,
                    "velocity": 0.1889763779527559,
                    "duration": 0.23699885416667144
                },
                {
                    "name": "F5",
                    "midi": 77,
                    "time": 100.75837,
                    "velocity": 0.2440944881889764,
                    "duration": 0.20314187500000003
                },
                {
                    "name": "D#5",
                    "midi": 75,
                    "time": 100.961511875,
                    "velocity": 0.1968503937007874,
                    "duration": 0.20314187500000003
                },
                {
                    "name": "F4",
                    "midi": 65,
                    "time": 101.16465375,
                    "velocity": 0.1968503937007874,
                    "duration": 0.20314187500000003
                },
                {
                    "name": "A#5",
                    "midi": 82,
                    "time": 102.180363125,
                    "velocity": 0.2125984251968504,
                    "duration": 0.23699885416667144
                },
                {
                    "name": "G#5",
                    "midi": 80,
                    "time": 102.383505,
                    "velocity": 0.2677165354330709,
                    "duration": 0.20314187500000003
                },
                {
                    "name": "F5",
                    "midi": 77,
                    "time": 102.586646875,
                    "velocity": 0.2204724409448819,
                    "duration": 0.20314187500000003
                },
                {
                    "name": "G#4",
                    "midi": 68,
                    "time": 102.78978875,
                    "velocity": 0.23622047244094488,
                    "duration": 0.20314187500000003
                },
                {
                    "name": "A#5",
                    "midi": 82,
                    "time": 103.399214375,
                    "velocity": 0.29133858267716534,
                    "duration": 0.23699885416667144
                },
                {
                    "name": "G#5",
                    "midi": 80,
                    "time": 103.60235625,
                    "velocity": 0.3543307086614173,
                    "duration": 0.20314187500000003
                },
                {
                    "name": "F5",
                    "midi": 77,
                    "time": 103.805498125,
                    "velocity": 0.3228346456692913,
                    "duration": 0.20314187500000003
                },
                {
                    "name": "G#4",
                    "midi": 68,
                    "time": 104.00864,
                    "velocity": 0.4015748031496063,
                    "duration": 0.20314187500000003
                },
                {
                    "name": "A#5",
                    "midi": 82,
                    "time": 104.618065625,
                    "velocity": 0.3858267716535433,
                    "duration": 0.22345606250000571
                },
                {
                    "name": "G#5",
                    "midi": 80,
                    "time": 104.8212075,
                    "velocity": 0.33858267716535434,
                    "duration": 0.20314187500000003
                },
                {
                    "name": "F5",
                    "midi": 77,
                    "time": 105.024349375,
                    "velocity": 0.25196850393700787,
                    "duration": 0.20314187500000003
                },
                {
                    "name": "B4",
                    "midi": 71,
                    "time": 105.22749125,
                    "velocity": 0.2204724409448819,
                    "duration": 0.22345606250000571
                },
                {
                    "name": "A#4",
                    "midi": 70,
                    "time": 105.430633125,
                    "velocity": 0.2440944881889764,
                    "duration": 0.22345606250000571
                },
                {
                    "name": "G#4",
                    "midi": 68,
                    "time": 105.633775,
                    "velocity": 0.28346456692913385,
                    "duration": 0.20314187500000003
                },
                {
                    "name": "F4",
                    "midi": 65,
                    "time": 105.836916875,
                    "velocity": 0.2283464566929134,
                    "duration": 0.20314187500000003
                },
                {
                    "name": "B3",
                    "midi": 59,
                    "time": 106.04005875,
                    "velocity": 0.2125984251968504,
                    "duration": 0.22345606250000571
                },
                {
                    "name": "C4",
                    "midi": 60,
                    "time": 108.680903125,
                    "velocity": 0.25196850393700787,
                    "duration": 0.22345606250000571
                },
                {
                    "name": "C#4",
                    "midi": 61,
                    "time": 108.884045,
                    "velocity": 0.28346456692913385,
                    "duration": 0.20314187500000003
                },
                {
                    "name": "G#4",
                    "midi": 68,
                    "time": 109.087186875,
                    "velocity": 0.25196850393700787,
                    "duration": 0.20314187500000003
                },
                {
                    "name": "B4",
                    "midi": 71,
                    "time": 109.29032875,
                    "velocity": 0.2047244094488189,
                    "duration": 0.20314187500000003
                },
                {
                    "name": "G#5",
                    "midi": 80,
                    "time": 109.493470625,
                    "velocity": 0.2677165354330709,
                    "duration": 0.22345606250000571
                },
                {
                    "name": "G5",
                    "midi": 79,
                    "time": 109.6966125,
                    "velocity": 0.2677165354330709,
                    "duration": 0.20314187500000003
                },
                {
                    "name": "E5",
                    "midi": 76,
                    "time": 109.899754375,
                    "velocity": 0.23622047244094488,
                    "duration": 0.20314187500000003
                },
                {
                    "name": "A#4",
                    "midi": 70,
                    "time": 110.10289625,
                    "velocity": 0.2125984251968504,
                    "duration": 0.22345606250000571
                },
                {
                    "name": "G#4",
                    "midi": 68,
                    "time": 110.306038125,
                    "velocity": 0.2204724409448819,
                    "duration": 0.22345606250000571
                },
                {
                    "name": "G4",
                    "midi": 67,
                    "time": 110.50918,
                    "velocity": 0.25984251968503935,
                    "duration": 0.20314187500000003
                },
                {
                    "name": "E4",
                    "midi": 64,
                    "time": 110.712321875,
                    "velocity": 0.2125984251968504,
                    "duration": 0.20314187500000003
                },
                {
                    "name": "A#3",
                    "midi": 58,
                    "time": 110.91546375,
                    "velocity": 0.1889763779527559,
                    "duration": 0.22345606250000571
                },
                {
                    "name": "B3",
                    "midi": 59,
                    "time": 113.556308125,
                    "velocity": 0.1968503937007874,
                    "duration": 0.22345606250000571
                },
                {
                    "name": "C4",
                    "midi": 60,
                    "time": 113.75945,
                    "velocity": 0.2204724409448819,
                    "duration": 0.20314187500000003
                },
                {
                    "name": "G4",
                    "midi": 67,
                    "time": 113.962591875,
                    "velocity": 0.1889763779527559,
                    "duration": 0.20314187500000003
                },
                {
                    "name": "E5",
                    "midi": 76,
                    "time": 114.16573375,
                    "velocity": 0.2125984251968504,
                    "duration": 0.8125675000000001
                },
                {
                    "name": "G5",
                    "midi": 79,
                    "time": 114.16573375,
                    "velocity": 0.2125984251968504,
                    "duration": 0.8125675000000001
                },
                {
                    "name": "A#5",
                    "midi": 82,
                    "time": 114.16573375,
                    "velocity": 0.2125984251968504,
                    "duration": 0.8125675000000001
                },
                {
                    "name": "C#6",
                    "midi": 85,
                    "time": 114.16573375,
                    "velocity": 0.2677165354330709,
                    "duration": 0.40628375000000005
                },
                {
                    "name": "A#4",
                    "midi": 70,
                    "time": 114.16573375,
                    "velocity": 0.15748031496062992,
                    "duration": 0.20314187500000003
                },
                {
                    "name": "C6",
                    "midi": 84,
                    "time": 114.5720175,
                    "velocity": 0.25984251968503935,
                    "duration": 0.40628375000000005
                },
                {
                    "name": "G4",
                    "midi": 67,
                    "time": 114.97830125,
                    "velocity": 0.15748031496062992,
                    "duration": 0.8125675000000001
                },
                {
                    "name": "E4",
                    "midi": 64,
                    "time": 114.97830125,
                    "velocity": 0.15748031496062992,
                    "duration": 0.8125675000000001
                },
                {
                    "name": "B3",
                    "midi": 59,
                    "time": 114.97830125,
                    "velocity": 0.2047244094488189,
                    "duration": 0.40628375000000005
                },
                {
                    "name": "C4",
                    "midi": 60,
                    "time": 115.384585,
                    "velocity": 0.1889763779527559,
                    "duration": 0.40628375000000005
                },
                {
                    "name": "D#4",
                    "midi": 63,
                    "time": 115.79086875,
                    "velocity": 0.1732283464566929,
                    "duration": 0.8125675000000001
                },
                {
                    "name": "F#4",
                    "midi": 66,
                    "time": 115.79086875,
                    "velocity": 0.1732283464566929,
                    "duration": 0.8125675000000001
                },
                {
                    "name": "A#4",
                    "midi": 70,
                    "time": 115.79086875,
                    "velocity": 0.1732283464566929,
                    "duration": 0.8125675000000001
                },
                {
                    "name": "C#5",
                    "midi": 73,
                    "time": 115.79086875,
                    "velocity": 0.2204724409448819,
                    "duration": 0.40628375000000005
                },
                {
                    "name": "C5",
                    "midi": 72,
                    "time": 116.1971525,
                    "velocity": 0.2125984251968504,
                    "duration": 0.40628375000000005
                },
                {
                    "name": "D#3",
                    "midi": 51,
                    "time": 117.41600375,
                    "velocity": 0.13385826771653545,
                    "duration": 2.0314187500000003
                },
                {
                    "name": "F3",
                    "midi": 53,
                    "time": 117.41600375,
                    "velocity": 0.13385826771653545,
                    "duration": 2.0314187500000003
                },
                {
                    "name": "A3",
                    "midi": 57,
                    "time": 117.41600375,
                    "velocity": 0.13385826771653545,
                    "duration": 2.0314187500000003
                },
                {
                    "name": "C#4",
                    "midi": 61,
                    "time": 117.41600375,
                    "velocity": 0.1732283464566929,
                    "duration": 0.40628375000000005
                },
                {
                    "name": "C4",
                    "midi": 60,
                    "time": 117.8222875,
                    "velocity": 0.16535433070866143,
                    "duration": 1.6251350000000002
                },
                {
                    "name": "C#6",
                    "midi": 85,
                    "time": 119.85370625,
                    "velocity": 0.1968503937007874,
                    "duration": 0.20314187500000003
                },
                {
                    "name": "D#5",
                    "midi": 75,
                    "time": 120.056848125,
                    "velocity": 0.14960629921259844,
                    "duration": 0.20314187500000003
                },
                {
                    "name": "C6",
                    "midi": 84,
                    "time": 120.25999,
                    "velocity": 0.1968503937007874,
                    "duration": 0.20314187500000003
                },
                {
                    "name": "F#5",
                    "midi": 78,
                    "time": 120.463131875,
                    "velocity": 0.14960629921259844,
                    "duration": 0.20314187500000003
                },
                {
                    "name": "A#5",
                    "midi": 82,
                    "time": 120.66627375,
                    "velocity": 0.1968503937007874,
                    "duration": 0.20314187500000003
                },
                {
                    "name": "C5",
                    "midi": 72,
                    "time": 120.869415625,
                    "velocity": 0.14960629921259844,
                    "duration": 0.20314187500000003
                },
                {
                    "name": "A5",
                    "midi": 81,
                    "time": 121.0725575,
                    "velocity": 0.1968503937007874,
                    "duration": 0.20314187500000003
                },
                {
                    "name": "D#5",
                    "midi": 75,
                    "time": 121.275699375,
                    "velocity": 0.14960629921259844,
                    "duration": 0.20314187500000003
                },
                {
                    "name": "G#5",
                    "midi": 80,
                    "time": 121.47884125,
                    "velocity": 0.1889763779527559,
                    "duration": 0.20314187500000003
                },
                {
                    "name": "A4",
                    "midi": 69,
                    "time": 121.681983125,
                    "velocity": 0.14960629921259844,
                    "duration": 0.20314187500000003
                },
                {
                    "name": "F#5",
                    "midi": 78,
                    "time": 121.885125,
                    "velocity": 0.1968503937007874,
                    "duration": 0.20314187500000003
                },
                {
                    "name": "C5",
                    "midi": 72,
                    "time": 122.088266875,
                    "velocity": 0.14960629921259844,
                    "duration": 0.20314187500000003
                },
                {
                    "name": "F5",
                    "midi": 77,
                    "time": 122.29140875,
                    "velocity": 0.1968503937007874,
                    "duration": 0.20314187500000003
                },
                {
                    "name": "F#4",
                    "midi": 66,
                    "time": 122.494550625,
                    "velocity": 0.14960629921259844,
                    "duration": 0.20314187500000003
                },
                {
                    "name": "D#5",
                    "midi": 75,
                    "time": 122.6976925,
                    "velocity": 0.1968503937007874,
                    "duration": 0.20314187500000003
                },
                {
                    "name": "A4",
                    "midi": 69,
                    "time": 122.900834375,
                    "velocity": 0.14960629921259844,
                    "duration": 0.20314187500000003
                },
                {
                    "name": "C#5",
                    "midi": 73,
                    "time": 123.91654375,
                    "velocity": 0.1889763779527559,
                    "duration": 0.20314187500000003
                },
                {
                    "name": "D#4",
                    "midi": 63,
                    "time": 124.119685625,
                    "velocity": 0.14960629921259844,
                    "duration": 0.20314187500000003
                },
                {
                    "name": "C5",
                    "midi": 72,
                    "time": 124.3228275,
                    "velocity": 0.1968503937007874,
                    "duration": 0.20314187500000003
                },
                {
                    "name": "F#4",
                    "midi": 66,
                    "time": 124.525969375,
                    "velocity": 0.14960629921259844,
                    "duration": 0.20314187500000003
                },
                {
                    "name": "C#5",
                    "midi": 73,
                    "time": 125.54167875,
                    "velocity": 0.1732283464566929,
                    "duration": 0.20314187500000003
                },
                {
                    "name": "F4",
                    "midi": 65,
                    "time": 125.744820625,
                    "velocity": 0.14960629921259844,
                    "duration": 0.20314187500000003
                },
                {
                    "name": "B4",
                    "midi": 71,
                    "time": 125.9479625,
                    "velocity": 0.1968503937007874,
                    "duration": 0.20314187500000003
                },
                {
                    "name": "G#4",
                    "midi": 68,
                    "time": 126.151104375,
                    "velocity": 0.14960629921259844,
                    "duration": 0.20314187500000003
                },
                {
                    "name": "B3",
                    "midi": 59,
                    "time": 126.35424625,
                    "velocity": 0.1968503937007874,
                    "duration": 0.20314187500000003
                },
                {
                    "name": "B4",
                    "midi": 71,
                    "time": 126.557388125,
                    "velocity": 0.2677165354330709,
                    "duration": 0.20314187500000003
                },
                {
                    "name": "A#4",
                    "midi": 70,
                    "time": 126.76053,
                    "velocity": 0.3228346456692913,
                    "duration": 0.40628375000000005
                },
                {
                    "name": "G#4",
                    "midi": 68,
                    "time": 126.963671875,
                    "velocity": 0.2125984251968504,
                    "duration": 0.20314187500000003
                },
                {
                    "name": "A#3",
                    "midi": 58,
                    "time": 127.16681375,
                    "velocity": 0.2125984251968504,
                    "duration": 0.20314187500000003
                },
                {
                    "name": "A#4",
                    "midi": 70,
                    "time": 128.182523125,
                    "velocity": 0.2992125984251969,
                    "duration": 0.23699885416667144
                },
                {
                    "name": "B4",
                    "midi": 71,
                    "time": 128.385665,
                    "velocity": 0.33070866141732286,
                    "duration": 0.20314187500000003
                },
                {
                    "name": "G#4",
                    "midi": 68,
                    "time": 128.588806875,
                    "velocity": 0.2125984251968504,
                    "duration": 0.20314187500000003
                },
                {
                    "name": "B3",
                    "midi": 59,
                    "time": 128.79194875,
                    "velocity": 0.2047244094488189,
                    "duration": 0.20314187500000003
                },
                {
                    "name": "B4",
                    "midi": 71,
                    "time": 128.995090625,
                    "velocity": 0.2677165354330709,
                    "duration": 0.20314187500000003
                },
                {
                    "name": "F5",
                    "midi": 77,
                    "time": 129.1982325,
                    "velocity": 0.3228346456692913,
                    "duration": 0.20314187500000003
                },
                {
                    "name": "G#4",
                    "midi": 68,
                    "time": 129.401374375,
                    "velocity": 0.2125984251968504,
                    "duration": 0.20314187500000003
                },
                {
                    "name": "F4",
                    "midi": 65,
                    "time": 129.60451625,
                    "velocity": 0.2125984251968504,
                    "duration": 0.20314187500000003
                },
                {
                    "name": "F5",
                    "midi": 77,
                    "time": 130.620225625,
                    "velocity": 0.33858267716535434,
                    "duration": 0.23699885416667144
                },
                {
                    "name": "G#5",
                    "midi": 80,
                    "time": 130.8233675,
                    "velocity": 0.41732283464566927,
                    "duration": 0.20314187500000003
                },
                {
                    "name": "D5",
                    "midi": 74,
                    "time": 131.026509375,
                    "velocity": 0.25196850393700787,
                    "duration": 0.20314187500000003
                },
                {
                    "name": "G#4",
                    "midi": 68,
                    "time": 131.22965125,
                    "velocity": 0.33070866141732286,
                    "duration": 0.20314187500000003
                },
                {
                    "name": "G#5",
                    "midi": 80,
                    "time": 131.432793125,
                    "velocity": 0.3700787401574803,
                    "duration": 0.20314187500000003
                },
                {
                    "name": "F#5",
                    "midi": 78,
                    "time": 131.635935,
                    "velocity": 0.4566929133858268,
                    "duration": 0.20314187500000003
                },
                {
                    "name": "D#5",
                    "midi": 75,
                    "time": 131.839076875,
                    "velocity": 0.25196850393700787,
                    "duration": 0.20314187500000003
                },
                {
                    "name": "F#4",
                    "midi": 66,
                    "time": 132.04221875,
                    "velocity": 0.25196850393700787,
                    "duration": 0.20314187500000003
                },
                {
                    "name": "C#5",
                    "midi": 73,
                    "time": 133.057928125,
                    "velocity": 0.3543307086614173,
                    "duration": 0.23699885416667144
                },
                {
                    "name": "F#5",
                    "midi": 78,
                    "time": 133.26107,
                    "velocity": 0.3937007874015748,
                    "duration": 0.20314187500000003
                },
                {
                    "name": "C5",
                    "midi": 72,
                    "time": 133.464211875,
                    "velocity": 0.25196850393700787,
                    "duration": 0.20314187500000003
                },
                {
                    "name": "F#4",
                    "midi": 66,
                    "time": 133.66735375,
                    "velocity": 0.2440944881889764,
                    "duration": 0.20314187500000003
                },
                {
                    "name": "F#5",
                    "midi": 78,
                    "time": 133.870495625,
                    "velocity": 0.3228346456692913,
                    "duration": 0.20314187500000003
                },
                {
                    "name": "F5",
                    "midi": 77,
                    "time": 134.0736375,
                    "velocity": 0.3858267716535433,
                    "duration": 0.20314187500000003
                },
                {
                    "name": "C5",
                    "midi": 72,
                    "time": 134.276779375,
                    "velocity": 0.25196850393700787,
                    "duration": 0.20314187500000003
                },
                {
                    "name": "F4",
                    "midi": 65,
                    "time": 134.47992125,
                    "velocity": 0.25196850393700787,
                    "duration": 0.20314187500000003
                },
                {
                    "name": "C5",
                    "midi": 72,
                    "time": 135.495630625,
                    "velocity": 0.3228346456692913,
                    "duration": 0.20314187500000003
                },
                {
                    "name": "F5",
                    "midi": 77,
                    "time": 135.6987725,
                    "velocity": 0.3858267716535433,
                    "duration": 0.20314187500000003
                },
                {
                    "name": "A#4",
                    "midi": 70,
                    "time": 135.901914375,
                    "velocity": 0.25196850393700787,
                    "duration": 0.20314187500000003
                },
                {
                    "name": "F4",
                    "midi": 65,
                    "time": 136.10505625,
                    "velocity": 0.25196850393700787,
                    "duration": 0.20314187500000003
                },
                {
                    "name": "F5",
                    "midi": 77,
                    "time": 136.308198125,
                    "velocity": 0.3228346456692913,
                    "duration": 0.20314187500000003
                },
                {
                    "name": "D#5",
                    "midi": 75,
                    "time": 136.51134,
                    "velocity": 0.3858267716535433,
                    "duration": 0.20314187500000003
                },
                {
                    "name": "A#4",
                    "midi": 70,
                    "time": 136.714481875,
                    "velocity": 0.25196850393700787,
                    "duration": 0.20314187500000003
                },
                {
                    "name": "D#4",
                    "midi": 63,
                    "time": 136.91762375,
                    "velocity": 0.25196850393700787,
                    "duration": 0.20314187500000003
                },
                {
                    "name": "C#5",
                    "midi": 73,
                    "time": 137.120765625,
                    "velocity": 0.3228346456692913,
                    "duration": 0.20314187500000003
                },
                {
                    "name": "C5",
                    "midi": 72,
                    "time": 137.3239075,
                    "velocity": 0.3858267716535433,
                    "duration": 0.20314187500000003
                },
                {
                    "name": "F#4",
                    "midi": 66,
                    "time": 137.527049375,
                    "velocity": 0.25196850393700787,
                    "duration": 0.20314187500000003
                },
                {
                    "name": "C4",
                    "midi": 60,
                    "time": 137.73019125,
                    "velocity": 0.25196850393700787,
                    "duration": 0.20314187500000003
                },
                {
                    "name": "F5",
                    "midi": 77,
                    "time": 138.745900625,
                    "velocity": 0.3543307086614173,
                    "duration": 0.23699885416667144
                },
                {
                    "name": "D#5",
                    "midi": 75,
                    "time": 138.9490425,
                    "velocity": 0.3937007874015748,
                    "duration": 0.20314187500000003
                },
                {
                    "name": "A4",
                    "midi": 69,
                    "time": 139.152184375,
                    "velocity": 0.25196850393700787,
                    "duration": 0.20314187500000003
                },
                {
                    "name": "D#4",
                    "midi": 63,
                    "time": 139.35532625,
                    "velocity": 0.2440944881889764,
                    "duration": 0.20314187500000003
                },
                {
                    "name": "C#5",
                    "midi": 73,
                    "time": 139.558468125,
                    "velocity": 0.3228346456692913,
                    "duration": 0.20314187500000003
                },
                {
                    "name": "C5",
                    "midi": 72,
                    "time": 139.76161,
                    "velocity": 0.3858267716535433,
                    "duration": 0.20314187500000003
                },
                {
                    "name": "A4",
                    "midi": 69,
                    "time": 139.964751875,
                    "velocity": 0.25196850393700787,
                    "duration": 0.20314187500000003
                },
                {
                    "name": "D#4",
                    "midi": 63,
                    "time": 140.16789375,
                    "velocity": 0.25196850393700787,
                    "duration": 0.20314187500000003
                },
                {
                    "name": "F#5",
                    "midi": 78,
                    "time": 141.183603125,
                    "velocity": 0.3543307086614173,
                    "duration": 0.20314187500000003
                },
                {
                    "name": "F5",
                    "midi": 77,
                    "time": 141.386745,
                    "velocity": 0.3937007874015748,
                    "duration": 0.8125675000000001
                },
                {
                    "name": "C5",
                    "midi": 72,
                    "time": 141.589886875,
                    "velocity": 0.2440944881889764,
                    "duration": 0.20314187500000003
                },
                {
                    "name": "A4",
                    "midi": 69,
                    "time": 141.79302875,
                    "velocity": 0.23622047244094488,
                    "duration": 0.20314187500000003
                },
                {
                    "name": "F4",
                    "midi": 65,
                    "time": 141.996170625,
                    "velocity": 0.2204724409448819,
                    "duration": 0.20314187500000003
                },
                {
                    "name": "E5",
                    "midi": 76,
                    "time": 142.1993125,
                    "velocity": 0.3700787401574803,
                    "duration": 0.8125675000000001
                },
                {
                    "name": "C5",
                    "midi": 72,
                    "time": 142.402454375,
                    "velocity": 0.23622047244094488,
                    "duration": 0.20314187500000003
                },
                {
                    "name": "A4",
                    "midi": 69,
                    "time": 142.60559625,
                    "velocity": 0.2204724409448819,
                    "duration": 0.20314187500000003
                },
                {
                    "name": "F4",
                    "midi": 65,
                    "time": 142.808738125,
                    "velocity": 0.2047244094488189,
                    "duration": 0.20314187500000003
                },
                {
                    "name": "D#5",
                    "midi": 75,
                    "time": 143.01188,
                    "velocity": 0.3543307086614173,
                    "duration": 0.8125675000000001
                },
                {
                    "name": "C5",
                    "midi": 72,
                    "time": 143.215021875,
                    "velocity": 0.2204724409448819,
                    "duration": 0.20314187500000003
                },
                {
                    "name": "A4",
                    "midi": 69,
                    "time": 143.41816375,
                    "velocity": 0.2125984251968504,
                    "duration": 0.20314187500000003
                },
                {
                    "name": "F4",
                    "midi": 65,
                    "time": 143.621305625,
                    "velocity": 0.1968503937007874,
                    "duration": 0.20314187500000003
                },
                {
                    "name": "C#5",
                    "midi": 73,
                    "time": 143.8244475,
                    "velocity": 0.3228346456692913,
                    "duration": 3.2502700000000004
                },
                {
                    "name": "A4",
                    "midi": 69,
                    "time": 144.027589375,
                    "velocity": 0.25984251968503935,
                    "duration": 3.0471281250000004
                },
                {
                    "name": "F#4",
                    "midi": 66,
                    "time": 144.23073125,
                    "velocity": 0.2204724409448819,
                    "duration": 2.8439862500000004
                },
                {
                    "name": "C#4",
                    "midi": 61,
                    "time": 144.433873125,
                    "velocity": 0.1732283464566929,
                    "duration": 0.20314187500000003
                },
                {
                    "name": "C#6",
                    "midi": 85,
                    "time": 146.465291875,
                    "velocity": 0.25196850393700787,
                    "duration": 0.20314187500000003
                },
                {
                    "name": "B5",
                    "midi": 83,
                    "time": 146.66843375,
                    "velocity": 0.2283464566929134,
                    "duration": 0.20314187500000003
                },
                {
                    "name": "A5",
                    "midi": 81,
                    "time": 146.871575625,
                    "velocity": 0.2204724409448819,
                    "duration": 0.20314187500000003
                },
                {
                    "name": "G#5",
                    "midi": 80,
                    "time": 147.0747175,
                    "velocity": 0.2440944881889764,
                    "duration": 0.20314187500000003
                },
                {
                    "name": "F#5",
                    "midi": 78,
                    "time": 147.277859375,
                    "velocity": 0.2204724409448819,
                    "duration": 0.20314187500000003
                },
                {
                    "name": "D#5",
                    "midi": 75,
                    "time": 147.48100125,
                    "velocity": 0.2204724409448819,
                    "duration": 0.20314187500000003
                },
                {
                    "name": "C#5",
                    "midi": 73,
                    "time": 147.684143125,
                    "velocity": 0.2204724409448819,
                    "duration": 0.20314187500000003
                },
                {
                    "name": "C5",
                    "midi": 72,
                    "time": 147.887285,
                    "velocity": 0.2755905511811024,
                    "duration": 0.20314187500000003
                },
                {
                    "name": "F#4",
                    "midi": 66,
                    "time": 148.090426875,
                    "velocity": 0.2125984251968504,
                    "duration": 0.20314187500000003
                },
                {
                    "name": "C4",
                    "midi": 60,
                    "time": 148.29356875,
                    "velocity": 0.2047244094488189,
                    "duration": 0.20314187500000003
                },
                {
                    "name": "C5",
                    "midi": 72,
                    "time": 148.496710625,
                    "velocity": 0.2677165354330709,
                    "duration": 0.20314187500000003
                },
                {
                    "name": "A#4",
                    "midi": 70,
                    "time": 148.6998525,
                    "velocity": 0.3228346456692913,
                    "duration": 0.8125675000000001
                },
                {
                    "name": "F4",
                    "midi": 65,
                    "time": 148.902994375,
                    "velocity": 0.2125984251968504,
                    "duration": 0.20314187500000003
                },
                {
                    "name": "A#3",
                    "midi": 58,
                    "time": 149.10613625,
                    "velocity": 0.2125984251968504,
                    "duration": 0.20314187500000003
                },
                {
                    "name": "A#4",
                    "midi": 70,
                    "time": 150.121845625,
                    "velocity": 0.31496062992125984,
                    "duration": 0.20314187500000003
                },
                {
                    "name": "C#5",
                    "midi": 73,
                    "time": 150.3249875,
                    "velocity": 0.3700787401574803,
                    "duration": 0.20314187500000003
                },
                {
                    "name": "F#4",
                    "midi": 66,
                    "time": 150.528129375,
                    "velocity": 0.25196850393700787,
                    "duration": 0.20314187500000003
                },
                {
                    "name": "A#3",
                    "midi": 58,
                    "time": 150.73127125,
                    "velocity": 0.2440944881889764,
                    "duration": 0.20314187500000003
                },
                {
                    "name": "C#5",
                    "midi": 73,
                    "time": 150.934413125,
                    "velocity": 0.3543307086614173,
                    "duration": 0.20314187500000003
                },
                {
                    "name": "F#5",
                    "midi": 78,
                    "time": 151.137555,
                    "velocity": 0.4566929133858268,
                    "duration": 0.20314187500000003
                },
                {
                    "name": "B4",
                    "midi": 71,
                    "time": 151.340696875,
                    "velocity": 0.25196850393700787,
                    "duration": 0.20314187500000003
                },
                {
                    "name": "F#4",
                    "midi": 66,
                    "time": 151.54383875,
                    "velocity": 0.25196850393700787,
                    "duration": 0.20314187500000003
                },
                {
                    "name": "D#5",
                    "midi": 75,
                    "time": 152.559548125,
                    "velocity": 0.3700787401574803,
                    "duration": 0.20314187500000003
                },
                {
                    "name": "C#5",
                    "midi": 73,
                    "time": 152.76269,
                    "velocity": 0.4409448818897638,
                    "duration": 0.20314187500000003
                },
                {
                    "name": "G4",
                    "midi": 67,
                    "time": 152.965831875,
                    "velocity": 0.25984251968503935,
                    "duration": 0.20314187500000003
                },
                {
                    "name": "A#3",
                    "midi": 58,
                    "time": 153.16897375,
                    "velocity": 0.33858267716535434,
                    "duration": 0.20314187500000003
                },
                {
                    "name": "A#4",
                    "midi": 70,
                    "time": 153.372115625,
                    "velocity": 0.3858267716535433,
                    "duration": 0.20314187500000003
                },
                {
                    "name": "B4",
                    "midi": 71,
                    "time": 153.5752575,
                    "velocity": 0.47244094488188976,
                    "duration": 0.20314187500000003
                },
                {
                    "name": "F#4",
                    "midi": 66,
                    "time": 153.778399375,
                    "velocity": 0.25196850393700787,
                    "duration": 0.20314187500000003
                },
                {
                    "name": "B3",
                    "midi": 59,
                    "time": 153.98154125,
                    "velocity": 0.25196850393700787,
                    "duration": 0.20314187500000003
                },
                {
                    "name": "B4",
                    "midi": 71,
                    "time": 154.997250625,
                    "velocity": 0.4015748031496063,
                    "duration": 0.20314187500000003
                },
                {
                    "name": "C5",
                    "midi": 72,
                    "time": 155.2003925,
                    "velocity": 0.3700787401574803,
                    "duration": 0.20314187500000003
                },
                {
                    "name": "D#5",
                    "midi": 75,
                    "time": 155.2003925,
                    "velocity": 0.44881889763779526,
                    "duration": 0.20314187500000003
                },
                {
                    "name": "G#4",
                    "midi": 68,
                    "time": 155.403534375,
                    "velocity": 0.28346456692913385,
                    "duration": 0.20314187500000003
                },
                {
                    "name": "C4",
                    "midi": 60,
                    "time": 155.60667625,
                    "velocity": 0.28346456692913385,
                    "duration": 0.20314187500000003
                },
                {
                    "name": "D#5",
                    "midi": 75,
                    "time": 155.809818125,
                    "velocity": 0.3937007874015748,
                    "duration": 0.20314187500000003
                },
                {
                    "name": "G#5",
                    "midi": 80,
                    "time": 156.01296,
                    "velocity": 0.4881889763779528,
                    "duration": 0.20314187500000003
                },
                {
                    "name": "C#5",
                    "midi": 73,
                    "time": 156.216101875,
                    "velocity": 0.2755905511811024,
                    "duration": 0.20314187500000003
                },
                {
                    "name": "G#4",
                    "midi": 68,
                    "time": 156.41924375,
                    "velocity": 0.2755905511811024,
                    "duration": 0.20314187500000003
                },
                {
                    "name": "C#5",
                    "midi": 73,
                    "time": 157.434953125,
                    "velocity": 0.3858267716535433,
                    "duration": 0.20314187500000003
                },
                {
                    "name": "G#5",
                    "midi": 80,
                    "time": 157.638095,
                    "velocity": 0.4566929133858268,
                    "duration": 0.20314187500000003
                },
                {
                    "name": "C#5",
                    "midi": 73,
                    "time": 157.841236875,
                    "velocity": 0.2992125984251969,
                    "duration": 0.20314187500000003
                },
                {
                    "name": "G#4",
                    "midi": 68,
                    "time": 158.04437875,
                    "velocity": 0.30708661417322836,
                    "duration": 0.20314187500000003
                },
                {
                    "name": "G#5",
                    "midi": 80,
                    "time": 158.247520625,
                    "velocity": 0.4015748031496063,
                    "duration": 0.20314187500000003
                },
                {
                    "name": "C#6",
                    "midi": 85,
                    "time": 158.4506625,
                    "velocity": 0.5511811023622047,
                    "duration": 0.20314187500000003
                },
                {
                    "name": "G5",
                    "midi": 79,
                    "time": 158.653804375,
                    "velocity": 0.2992125984251969,
                    "duration": 0.20314187500000003
                },
                {
                    "name": "C#5",
                    "midi": 73,
                    "time": 158.85694625,
                    "velocity": 0.2992125984251969,
                    "duration": 0.20314187500000003
                },
                {
                    "name": "C#5",
                    "midi": 73,
                    "time": 159.872655625,
                    "velocity": 0.41732283464566927,
                    "duration": 0.20314187500000003
                },
                {
                    "name": "F#5",
                    "midi": 78,
                    "time": 160.0757975,
                    "velocity": 0.48031496062992124,
                    "duration": 0.20314187500000003
                },
                {
                    "name": "C5",
                    "midi": 72,
                    "time": 160.278939375,
                    "velocity": 0.33070866141732286,
                    "duration": 0.20314187500000003
                },
                {
                    "name": "F#4",
                    "midi": 66,
                    "time": 160.48208125,
                    "velocity": 0.33070866141732286,
                    "duration": 0.20314187500000003
                },
                {
                    "name": "F#5",
                    "midi": 78,
                    "time": 160.685223125,
                    "velocity": 0.4409448818897638,
                    "duration": 0.20314187500000003
                },
                {
                    "name": "B5",
                    "midi": 83,
                    "time": 160.888365,
                    "velocity": 0.5196850393700787,
                    "duration": 0.20314187500000003
                },
                {
                    "name": "F5",
                    "midi": 77,
                    "time": 161.091506875,
                    "velocity": 0.3228346456692913,
                    "duration": 0.20314187500000003
                },
                {
                    "name": "B4",
                    "midi": 71,
                    "time": 161.29464875,
                    "velocity": 0.3228346456692913,
                    "duration": 0.20314187500000003
                },
                {
                    "name": "B4",
                    "midi": 71,
                    "time": 162.310358125,
                    "velocity": 0.41732283464566927,
                    "duration": 0.20314187500000003
                },
                {
                    "name": "E5",
                    "midi": 76,
                    "time": 162.5135,
                    "velocity": 0.5196850393700787,
                    "duration": 0.20314187500000003
                },
                {
                    "name": "A#4",
                    "midi": 70,
                    "time": 162.716641875,
                    "velocity": 0.3464566929133858,
                    "duration": 0.20314187500000003
                },
                {
                    "name": "E4",
                    "midi": 64,
                    "time": 162.91978375,
                    "velocity": 0.3543307086614173,
                    "duration": 0.20314187500000003
                },
                {
                    "name": "E5",
                    "midi": 76,
                    "time": 163.122925625,
                    "velocity": 0.3858267716535433,
                    "duration": 0.20314187500000003
                },
                {
                    "name": "A5",
                    "midi": 81,
                    "time": 163.3260675,
                    "velocity": 0.5433070866141733,
                    "duration": 0.8125675000000001
                },
                {
                    "name": "D#5",
                    "midi": 75,
                    "time": 163.529209375,
                    "velocity": 0.3700787401574803,
                    "duration": 0.20314187500000003
                },
                {
                    "name": "A4",
                    "midi": 69,
                    "time": 163.73235125,
                    "velocity": 0.36220472440944884,
                    "duration": 0.20314187500000003
                },
                {
                    "name": "F#5",
                    "midi": 78,
                    "time": 164.138635,
                    "velocity": 0.5433070866141733,
                    "duration": 0.8125675000000001
                },
                {
                    "name": "D#5",
                    "midi": 75,
                    "time": 164.341776875,
                    "velocity": 0.3700787401574803,
                    "duration": 0.20314187500000003
                },
                {
                    "name": "A4",
                    "midi": 69,
                    "time": 164.54491875,
                    "velocity": 0.36220472440944884,
                    "duration": 0.20314187500000003
                },
                {
                    "name": "D#5",
                    "midi": 75,
                    "time": 164.9512025,
                    "velocity": 0.5433070866141733,
                    "duration": 0.8125675000000001
                },
                {
                    "name": "A4",
                    "midi": 69,
                    "time": 165.154344375,
                    "velocity": 0.3700787401574803,
                    "duration": 0.20314187500000003
                },
                {
                    "name": "F#4",
                    "midi": 66,
                    "time": 165.35748625,
                    "velocity": 0.36220472440944884,
                    "duration": 0.20314187500000003
                },
                {
                    "name": "A4",
                    "midi": 69,
                    "time": 165.76377,
                    "velocity": 0.5433070866141733,
                    "duration": 0.8125675000000001
                },
                {
                    "name": "D#4",
                    "midi": 63,
                    "time": 165.966911875,
                    "velocity": 0.33858267716535434,
                    "duration": 0.20314187500000003
                },
                {
                    "name": "A3",
                    "midi": 57,
                    "time": 166.17005375,
                    "velocity": 0.33070866141732286,
                    "duration": 0.20314187500000003
                },
                {
                    "name": "G#4",
                    "midi": 68,
                    "time": 166.5763375,
                    "velocity": 0.5196850393700787,
                    "duration": 0.8125675000000001
                },
                {
                    "name": "D#4",
                    "midi": 63,
                    "time": 166.779479375,
                    "velocity": 0.33858267716535434,
                    "duration": 0.20314187500000003
                },
                {
                    "name": "A3",
                    "midi": 57,
                    "time": 166.98262125,
                    "velocity": 0.33070866141732286,
                    "duration": 0.20314187500000003
                },
                {
                    "name": "F#4",
                    "midi": 66,
                    "time": 167.388905,
                    "velocity": 0.5196850393700787,
                    "duration": 0.8125674999999717
                },
                {
                    "name": "D#4",
                    "midi": 63,
                    "time": 167.592046875,
                    "velocity": 0.33858267716535434,
                    "duration": 0.20314187500000003
                },
                {
                    "name": "A3",
                    "midi": 57,
                    "time": 167.79518875,
                    "velocity": 0.33070866141732286,
                    "duration": 0.20314187500000003
                },
                {
                    "name": "A3",
                    "midi": 57,
                    "time": 168.09990156249998,
                    "velocity": 0.28346456692913385,
                    "duration": 0.1015709374999858
                },
                {
                    "name": "D#4",
                    "midi": 63,
                    "time": 168.09990156249998,
                    "velocity": 0.28346456692913385,
                    "duration": 0.1015709374999858
                },
                {
                    "name": "F4",
                    "midi": 65,
                    "time": 168.09990156249998,
                    "velocity": 0.33070866141732286,
                    "duration": 0.1015709374999858
                },
                {
                    "name": "D#6",
                    "midi": 87,
                    "time": 168.20147249999997,
                    "velocity": 0.5984251968503937,
                    "duration": 0.8125675000000001
                },
                {
                    "name": "A5",
                    "midi": 81,
                    "time": 168.40461437499997,
                    "velocity": 0.3700787401574803,
                    "duration": 0.20314187500000003
                },
                {
                    "name": "D#5",
                    "midi": 75,
                    "time": 168.60775624999997,
                    "velocity": 0.36220472440944884,
                    "duration": 0.20314187500000003
                },
                {
                    "name": "A5",
                    "midi": 81,
                    "time": 169.01403999999997,
                    "velocity": 0.5433070866141733,
                    "duration": 0.8125675000000001
                },
                {
                    "name": "D#5",
                    "midi": 75,
                    "time": 169.21718187499997,
                    "velocity": 0.3700787401574803,
                    "duration": 0.20314187500000003
                },
                {
                    "name": "A4",
                    "midi": 69,
                    "time": 169.42032374999997,
                    "velocity": 0.36220472440944884,
                    "duration": 0.20314187500000003
                },
                {
                    "name": "D#5",
                    "midi": 75,
                    "time": 169.82660749999997,
                    "velocity": 0.5511811023622047,
                    "duration": 0.8125675000000001
                },
                {
                    "name": "A4",
                    "midi": 69,
                    "time": 170.02974937499997,
                    "velocity": 0.3700787401574803,
                    "duration": 0.20314187500000003
                },
                {
                    "name": "D#4",
                    "midi": 63,
                    "time": 170.23289124999997,
                    "velocity": 0.36220472440944884,
                    "duration": 0.20314187500000003
                },
                {
                    "name": "A4",
                    "midi": 69,
                    "time": 170.63917499999997,
                    "velocity": 0.5118110236220472,
                    "duration": 0.8125675000000001
                },
                {
                    "name": "D#4",
                    "midi": 63,
                    "time": 170.84231687499997,
                    "velocity": 0.31496062992125984,
                    "duration": 0.20314187500000003
                },
                {
                    "name": "A3",
                    "midi": 57,
                    "time": 171.04545874999997,
                    "velocity": 0.30708661417322836,
                    "duration": 0.20314187500000003
                },
                {
                    "name": "G#4",
                    "midi": 68,
                    "time": 171.45174249999997,
                    "velocity": 0.49606299212598426,
                    "duration": 0.8125675000000001
                },
                {
                    "name": "D#4",
                    "midi": 63,
                    "time": 171.65488437499997,
                    "velocity": 0.30708661417322836,
                    "duration": 0.20314187500000003
                },
                {
                    "name": "A3",
                    "midi": 57,
                    "time": 171.85802624999997,
                    "velocity": 0.29133858267716534,
                    "duration": 0.20314187500000003
                },
                {
                    "name": "F#4",
                    "midi": 66,
                    "time": 172.26430999999997,
                    "velocity": 0.48031496062992124,
                    "duration": 0.8125675000000001
                },
                {
                    "name": "D#4",
                    "midi": 63,
                    "time": 172.46745187499997,
                    "velocity": 0.29133858267716534,
                    "duration": 0.20314187500000003
                },
                {
                    "name": "A3",
                    "midi": 57,
                    "time": 172.67059374999997,
                    "velocity": 0.28346456692913385,
                    "duration": 0.20314187500000003
                },
                {
                    "name": "F4",
                    "midi": 65,
                    "time": 173.07687749999997,
                    "velocity": 0.4566929133858268,
                    "duration": 0.8125675000000001
                },
                {
                    "name": "C4",
                    "midi": 60,
                    "time": 173.28001937499997,
                    "velocity": 0.2755905511811024,
                    "duration": 0.20314187500000003
                },
                {
                    "name": "A3",
                    "midi": 57,
                    "time": 173.48316124999997,
                    "velocity": 0.25984251968503935,
                    "duration": 0.20314187500000003
                },
                {
                    "name": "E4",
                    "midi": 64,
                    "time": 173.88944499999997,
                    "velocity": 0.4094488188976378,
                    "duration": 0.8125675000000001
                },
                {
                    "name": "C4",
                    "midi": 60,
                    "time": 174.09258687499997,
                    "velocity": 0.2440944881889764,
                    "duration": 0.20314187500000003
                },
                {
                    "name": "A3",
                    "midi": 57,
                    "time": 174.29572874999997,
                    "velocity": 0.2283464566929134,
                    "duration": 0.20314187500000003
                },
                {
                    "name": "D#4",
                    "midi": 63,
                    "time": 174.70201249999997,
                    "velocity": 0.36220472440944884,
                    "duration": 2.0314187500000287
                },
                {
                    "name": "C4",
                    "midi": 60,
                    "time": 174.9728683333333,
                    "velocity": 0.2204724409448819,
                    "duration": 1.7605629166666859
                },
                {
                    "name": "A3",
                    "midi": 57,
                    "time": 175.24372416666665,
                    "velocity": 0.2047244094488189,
                    "duration": 1.489707083333343
                },
                {
                    "name": "F3",
                    "midi": 53,
                    "time": 176.73343125,
                    "velocity": 0.2283464566929134,
                    "duration": 0.8125675000000001
                },
                {
                    "name": "A3",
                    "midi": 57,
                    "time": 176.73343125,
                    "velocity": 0.2283464566929134,
                    "duration": 0.8125675000000001
                },
                {
                    "name": "D4",
                    "midi": 62,
                    "time": 176.73343125,
                    "velocity": 0.29133858267716534,
                    "duration": 0.40628375000000005
                },
                {
                    "name": "C4",
                    "midi": 60,
                    "time": 177.139715,
                    "velocity": 0.2677165354330709,
                    "duration": 0.40628375000000005
                },
                {
                    "name": "F3",
                    "midi": 53,
                    "time": 177.54599875,
                    "velocity": 0.2283464566929134,
                    "duration": 1.6251350000000002
                },
                {
                    "name": "A3",
                    "midi": 57,
                    "time": 177.54599875,
                    "velocity": 0.2283464566929134,
                    "duration": 0.40628375000000005
                },
                {
                    "name": "C4",
                    "midi": 60,
                    "time": 177.54599875,
                    "velocity": 0.29133858267716534,
                    "duration": 0.40628375000000005
                },
                {
                    "name": "A#3",
                    "midi": 58,
                    "time": 177.9522825,
                    "velocity": 0.29133858267716534,
                    "duration": 1.2188512500000002
                },
                {
                    "name": "E5",
                    "midi": 76,
                    "time": 179.17113375,
                    "velocity": 0.30708661417322836,
                    "duration": 0.40628375000000005
                },
                {
                    "name": "F5",
                    "midi": 77,
                    "time": 179.5774175,
                    "velocity": 0.2677165354330709,
                    "duration": 0.40628375000000005
                },
                {
                    "name": "D5",
                    "midi": 74,
                    "time": 179.98370125,
                    "velocity": 0.2992125984251969,
                    "duration": 0.40628375000000005
                },
                {
                    "name": "A#4",
                    "midi": 70,
                    "time": 180.389985,
                    "velocity": 0.2440944881889764,
                    "duration": 0.40628375000000005
                },
                {
                    "name": "F4",
                    "midi": 65,
                    "time": 180.79626875,
                    "velocity": 0.25196850393700787,
                    "duration": 0.40628375000000005
                },
                {
                    "name": "D4",
                    "midi": 62,
                    "time": 181.2025525,
                    "velocity": 0.1968503937007874,
                    "duration": 0.40628375000000005
                },
                {
                    "name": "G#3",
                    "midi": 56,
                    "time": 181.60883625,
                    "velocity": 0.2283464566929134,
                    "duration": 0.40628375000000005
                },
                {
                    "name": "C#4",
                    "midi": 61,
                    "time": 181.60883625,
                    "velocity": 0.2283464566929134,
                    "duration": 0.40628375000000005
                },
                {
                    "name": "F4",
                    "midi": 65,
                    "time": 181.60883625,
                    "velocity": 0.29133858267716534,
                    "duration": 0.40628375000000005
                },
                {
                    "name": "A3",
                    "midi": 57,
                    "time": 182.01512,
                    "velocity": 0.2283464566929134,
                    "duration": 0.40628375000000005
                },
                {
                    "name": "C4",
                    "midi": 60,
                    "time": 182.01512,
                    "velocity": 0.2283464566929134,
                    "duration": 0.40628375000000005
                },
                {
                    "name": "D#4",
                    "midi": 63,
                    "time": 182.01512,
                    "velocity": 0.2677165354330709,
                    "duration": 0.40628375000000005
                },
                {
                    "name": "A3",
                    "midi": 57,
                    "time": 182.42140375,
                    "velocity": 0.2283464566929134,
                    "duration": 0.40628375000000005
                },
                {
                    "name": "C4",
                    "midi": 60,
                    "time": 182.42140375,
                    "velocity": 0.2283464566929134,
                    "duration": 0.40628375000000005
                },
                {
                    "name": "D#4",
                    "midi": 63,
                    "time": 182.42140375,
                    "velocity": 0.29133858267716534,
                    "duration": 0.40628375000000005
                },
                {
                    "name": "G#3",
                    "midi": 56,
                    "time": 182.8276875,
                    "velocity": 0.2283464566929134,
                    "duration": 1.2188512500000002
                },
                {
                    "name": "C#4",
                    "midi": 61,
                    "time": 182.8276875,
                    "velocity": 0.29133858267716534,
                    "duration": 1.2188512500000002
                },
                {
                    "name": "G5",
                    "midi": 79,
                    "time": 184.04653875,
                    "velocity": 0.30708661417322836,
                    "duration": 0.40628375000000005
                },
                {
                    "name": "G#5",
                    "midi": 80,
                    "time": 184.4528225,
                    "velocity": 0.2677165354330709,
                    "duration": 0.40628375000000005
                },
                {
                    "name": "F5",
                    "midi": 77,
                    "time": 184.85910625,
                    "velocity": 0.2992125984251969,
                    "duration": 0.40628375000000005
                },
                {
                    "name": "C#5",
                    "midi": 73,
                    "time": 185.26539,
                    "velocity": 0.2440944881889764,
                    "duration": 0.40628375000000005
                },
                {
                    "name": "G#4",
                    "midi": 68,
                    "time": 185.67167375,
                    "velocity": 0.25196850393700787,
                    "duration": 0.40628375000000005
                },
                {
                    "name": "F4",
                    "midi": 65,
                    "time": 186.0779575,
                    "velocity": 0.1968503937007874,
                    "duration": 0.40628375000000005
                },
                {
                    "name": "C#5",
                    "midi": 73,
                    "time": 186.48424125,
                    "velocity": 0.5354330708661418,
                    "duration": 0.40628375000000005
                },
                {
                    "name": "C4",
                    "midi": 60,
                    "time": 186.890525,
                    "velocity": 0.33858267716535434,
                    "duration": 0.8125675000000001
                },
                {
                    "name": "F#4",
                    "midi": 66,
                    "time": 186.890525,
                    "velocity": 0.33858267716535434,
                    "duration": 0.8125675000000001
                },
                {
                    "name": "C5",
                    "midi": 72,
                    "time": 186.890525,
                    "velocity": 0.3858267716535433,
                    "duration": 0.40628375000000005
                },
                {
                    "name": "C5",
                    "midi": 72,
                    "time": 187.29680875,
                    "velocity": 0.49606299212598426,
                    "duration": 0.40628375000000005
                },
                {
                    "name": "A#3",
                    "midi": 58,
                    "time": 187.7030925,
                    "velocity": 0.33858267716535434,
                    "duration": 1.6251350000000002
                },
                {
                    "name": "F4",
                    "midi": 65,
                    "time": 187.7030925,
                    "velocity": 0.33858267716535434,
                    "duration": 1.6251350000000002
                },
                {
                    "name": "A#4",
                    "midi": 70,
                    "time": 187.7030925,
                    "velocity": 0.5511811023622047,
                    "duration": 1.2188512500000002
                },
                {
                    "name": "A#4",
                    "midi": 70,
                    "time": 188.92194375,
                    "velocity": 0.5354330708661418,
                    "duration": 0.40628375000000005
                },
                {
                    "name": "B3",
                    "midi": 59,
                    "time": 189.3282275,
                    "velocity": 0.33858267716535434,
                    "duration": 0.8125675000000001
                },
                {
                    "name": "F4",
                    "midi": 65,
                    "time": 189.3282275,
                    "velocity": 0.33858267716535434,
                    "duration": 0.8125675000000001
                },
                {
                    "name": "B4",
                    "midi": 71,
                    "time": 189.3282275,
                    "velocity": 0.3858267716535433,
                    "duration": 0.40628375000000005
                },
                {
                    "name": "B4",
                    "midi": 71,
                    "time": 189.73451125,
                    "velocity": 0.5118110236220472,
                    "duration": 0.40628375000000005
                },
                {
                    "name": "C4",
                    "midi": 60,
                    "time": 190.140795,
                    "velocity": 0.33858267716535434,
                    "duration": 1.6251350000000002
                },
                {
                    "name": "E4",
                    "midi": 64,
                    "time": 190.140795,
                    "velocity": 0.33858267716535434,
                    "duration": 1.6251350000000002
                },
                {
                    "name": "C5",
                    "midi": 72,
                    "time": 190.140795,
                    "velocity": 0.5511811023622047,
                    "duration": 1.2188512500000002
                },
                {
                    "name": "C5",
                    "midi": 72,
                    "time": 191.35964625,
                    "velocity": 0.4881889763779528,
                    "duration": 0.40628375000000005
                },
                {
                    "name": "A#3",
                    "midi": 58,
                    "time": 191.76593,
                    "velocity": 0.31496062992125984,
                    "duration": 0.8125675000000001
                },
                {
                    "name": "E4",
                    "midi": 64,
                    "time": 191.76593,
                    "velocity": 0.31496062992125984,
                    "duration": 0.8125675000000001
                },
                {
                    "name": "A#4",
                    "midi": 70,
                    "time": 191.76593,
                    "velocity": 0.36220472440944884,
                    "duration": 0.40628375000000005
                },
                {
                    "name": "A#4",
                    "midi": 70,
                    "time": 192.17221375,
                    "velocity": 0.47244094488188976,
                    "duration": 0.40628375000000005
                },
                {
                    "name": "G#3",
                    "midi": 56,
                    "time": 192.5784975,
                    "velocity": 0.30708661417322836,
                    "duration": 1.6251350000000002
                },
                {
                    "name": "F4",
                    "midi": 65,
                    "time": 192.5784975,
                    "velocity": 0.30708661417322836,
                    "duration": 1.6251350000000002
                },
                {
                    "name": "G#4",
                    "midi": 68,
                    "time": 192.5784975,
                    "velocity": 0.5039370078740157,
                    "duration": 1.2188512500000002
                },
                {
                    "name": "G#4",
                    "midi": 68,
                    "time": 193.79734875,
                    "velocity": 0.47244094488188976,
                    "duration": 0.40628375000000005
                },
                {
                    "name": "A3",
                    "midi": 57,
                    "time": 194.2036325,
                    "velocity": 0.29133858267716534,
                    "duration": 0.8125675000000001
                },
                {
                    "name": "D#4",
                    "midi": 63,
                    "time": 194.2036325,
                    "velocity": 0.29133858267716534,
                    "duration": 0.8125675000000001
                },
                {
                    "name": "A4",
                    "midi": 69,
                    "time": 194.2036325,
                    "velocity": 0.33858267716535434,
                    "duration": 0.40628375000000005
                },
                {
                    "name": "A4",
                    "midi": 69,
                    "time": 194.60991625,
                    "velocity": 0.4015748031496063,
                    "duration": 0.40628375000000005
                },
                {
                    "name": "A#3",
                    "midi": 58,
                    "time": 195.0162,
                    "velocity": 0.28346456692913385,
                    "duration": 1.6251350000000002
                },
                {
                    "name": "D4",
                    "midi": 62,
                    "time": 195.0162,
                    "velocity": 0.28346456692913385,
                    "duration": 1.6251350000000002
                },
                {
                    "name": "A#4",
                    "midi": 70,
                    "time": 195.0162,
                    "velocity": 0.4645669291338583,
                    "duration": 1.2188512500000002
                },
                {
                    "name": "A#3",
                    "midi": 58,
                    "time": 196.23505125,
                    "velocity": 0.4094488188976378,
                    "duration": 1.2188512500000002
                },
                {
                    "name": "C#4",
                    "midi": 61,
                    "time": 196.641335,
                    "velocity": 0.2992125984251969,
                    "duration": 0.40628375000000005
                },
                {
                    "name": "C#4",
                    "midi": 61,
                    "time": 197.04761875,
                    "velocity": 0.3937007874015748,
                    "duration": 0.40628375000000005
                },
                {
                    "name": "C4",
                    "midi": 60,
                    "time": 197.4539025,
                    "velocity": 0.3464566929133858,
                    "duration": 1.2188512500000002
                },
                {
                    "name": "F3",
                    "midi": 53,
                    "time": 197.4539025,
                    "velocity": 0.25196850393700787,
                    "duration": 1.6251350000000002
                },
                {
                    "name": "A#3",
                    "midi": 58,
                    "time": 197.4539025,
                    "velocity": 0.25196850393700787,
                    "duration": 2.4377025000000003
                },
                {
                    "name": "F4",
                    "midi": 65,
                    "time": 197.4539025,
                    "velocity": 0.4094488188976378,
                    "duration": 1.2188512500000002
                },
                {
                    "name": "F3",
                    "midi": 53,
                    "time": 198.67275375,
                    "velocity": 0.30708661417322836,
                    "duration": 0.40628375000000005
                },
                {
                    "name": "C4",
                    "midi": 60,
                    "time": 199.0790375,
                    "velocity": 0.25196850393700787,
                    "duration": 0.40628375000000005
                },
                {
                    "name": "C4",
                    "midi": 60,
                    "time": 199.48532125,
                    "velocity": 0.25984251968503935,
                    "duration": 0.40628375000000005
                },
                {
                    "name": "D#4",
                    "midi": 63,
                    "time": 199.891605,
                    "velocity": 0.2125984251968504,
                    "duration": 0.8125675000000001
                },
                {
                    "name": "A3",
                    "midi": 57,
                    "time": 199.891605,
                    "velocity": 0.1732283464566929,
                    "duration": 0.8125675000000001
                },
                {
                    "name": "F#3",
                    "midi": 54,
                    "time": 199.891605,
                    "velocity": 0.1732283464566929,
                    "duration": 0.8125675000000001
                },
                {
                    "name": "C#4",
                    "midi": 61,
                    "time": 200.7041725,
                    "velocity": 0.1889763779527559,
                    "duration": 0.8125675000000001
                },
                {
                    "name": "A3",
                    "midi": 57,
                    "time": 200.7041725,
                    "velocity": 0.15748031496062992,
                    "duration": 0.8125675000000001
                },
                {
                    "name": "F3",
                    "midi": 53,
                    "time": 200.7041725,
                    "velocity": 0.15748031496062992,
                    "duration": 0.8125675000000001
                },
                {
                    "name": "C4",
                    "midi": 60,
                    "time": 201.51674,
                    "velocity": 0.1732283464566929,
                    "duration": 2.4377025000000003
                },
                {
                    "name": "A3",
                    "midi": 57,
                    "time": 201.51674,
                    "velocity": 0.14173228346456693,
                    "duration": 2.4377025000000003
                },
                {
                    "name": "D#3",
                    "midi": 51,
                    "time": 201.51674,
                    "velocity": 0.14173228346456693,
                    "duration": 2.4377025000000003
                },
                {
                    "name": "A#3",
                    "midi": 58,
                    "time": 203.9544425,
                    "velocity": 0.1732283464566929,
                    "duration": 0.7956390104166644
                },
                {
                    "name": "C#4",
                    "midi": 61,
                    "time": 205.17329375,
                    "velocity": 0.1968503937007874,
                    "duration": 0.40628375000000005
                },
                {
                    "name": "F4",
                    "midi": 65,
                    "time": 205.5795775,
                    "velocity": 0.15748031496062992,
                    "duration": 0.40628375000000005
                },
                {
                    "name": "A#4",
                    "midi": 70,
                    "time": 205.98586125,
                    "velocity": 0.15748031496062992,
                    "duration": 0.40628375000000005
                },
                {
                    "name": "C#5",
                    "midi": 73,
                    "time": 206.392145,
                    "velocity": 0.15748031496062992,
                    "duration": 0.40628375000000005
                },
                {
                    "name": "F6",
                    "midi": 89,
                    "time": 206.79842875,
                    "velocity": 0.15748031496062992,
                    "duration": 0.40628375000000005
                },
                {
                    "name": "F5",
                    "midi": 77,
                    "time": 206.79842875,
                    "velocity": 0.13385826771653545,
                    "duration": 0.40628375000000005
                },
                {
                    "name": "A#5",
                    "midi": 82,
                    "time": 207.2047125,
                    "velocity": 0.14173228346456693,
                    "duration": 2.4377025000000003
                },
                {
                    "name": "A#6",
                    "midi": 94,
                    "time": 207.2047125,
                    "velocity": 0.1732283464566929,
                    "duration": 2.4377025000000003
                }
            ],
            "controlChanges": {},
            "id": 1,
            "name": "Piano right",
            "instrumentNumber": 0,
            "instrument": "acoustic grand piano",
            "instrumentFamily": "piano",
            "channelNumber": 0,
            "isPercussion": false
        },
        {
            "startTime": 1.625135,
            "duration": 209.64241500000003,
            "length": 486,
            "notes": [
                {
                    "name": "D#2",
                    "midi": 39,
                    "time": 1.625135,
                    "velocity": 0.1968503937007874,
                    "duration": 0.20314187500000003
                },
                {
                    "name": "C#2",
                    "midi": 37,
                    "time": 2.4377025,
                    "velocity": 0.2283464566929134,
                    "duration": 0.40628375000000005
                },
                {
                    "name": "E3",
                    "midi": 52,
                    "time": 3.047128125,
                    "velocity": 0.2204724409448819,
                    "duration": 0.23699885416666655
                },
                {
                    "name": "F3",
                    "midi": 53,
                    "time": 3.25027,
                    "velocity": 0.2440944881889764,
                    "duration": 0.20314187500000003
                },
                {
                    "name": "A#3",
                    "midi": 58,
                    "time": 3.453411875,
                    "velocity": 0.15748031496062992,
                    "duration": 0.20314187500000003
                },
                {
                    "name": "F4",
                    "midi": 65,
                    "time": 3.65655375,
                    "velocity": 0.14960629921259844,
                    "duration": 0.20314187500000003
                },
                {
                    "name": "D#2",
                    "midi": 39,
                    "time": 4.0628375,
                    "velocity": 0.1968503937007874,
                    "duration": 0.20314187500000003
                },
                {
                    "name": "C#2",
                    "midi": 37,
                    "time": 4.875405,
                    "velocity": 0.2283464566929134,
                    "duration": 0.40628375000000005
                },
                {
                    "name": "A3",
                    "midi": 57,
                    "time": 5.484830625,
                    "velocity": 0.2204724409448819,
                    "duration": 0.236998854166667
                },
                {
                    "name": "A#3",
                    "midi": 58,
                    "time": 5.6879725,
                    "velocity": 0.2440944881889764,
                    "duration": 0.20314187500000003
                },
                {
                    "name": "F4",
                    "midi": 65,
                    "time": 5.891114375,
                    "velocity": 0.15748031496062992,
                    "duration": 0.20314187500000003
                },
                {
                    "name": "A#4",
                    "midi": 70,
                    "time": 6.09425625,
                    "velocity": 0.14960629921259844,
                    "duration": 0.20314187500000003
                },
                {
                    "name": "A#1",
                    "midi": 34,
                    "time": 6.50054,
                    "velocity": 0.1968503937007874,
                    "duration": 0.40628375000000005
                },
                {
                    "name": "D#2",
                    "midi": 39,
                    "time": 7.3131075,
                    "velocity": 0.2283464566929134,
                    "duration": 0.40628375000000005
                },
                {
                    "name": "A3",
                    "midi": 57,
                    "time": 7.922533125,
                    "velocity": 0.2047244094488189,
                    "duration": 0.23699885416666522
                },
                {
                    "name": "A#3",
                    "midi": 58,
                    "time": 8.125675,
                    "velocity": 0.2440944881889764,
                    "duration": 0.20314187500000003
                },
                {
                    "name": "C#4",
                    "midi": 61,
                    "time": 8.328816875,
                    "velocity": 0.15748031496062992,
                    "duration": 0.20314187500000003
                },
                {
                    "name": "A#4",
                    "midi": 70,
                    "time": 8.53195875,
                    "velocity": 0.14960629921259844,
                    "duration": 0.20314187500000003
                },
                {
                    "name": "G#1",
                    "midi": 32,
                    "time": 8.9382425,
                    "velocity": 0.1968503937007874,
                    "duration": 0.40628375000000005
                },
                {
                    "name": "C#2",
                    "midi": 37,
                    "time": 9.75081,
                    "velocity": 0.2283464566929134,
                    "duration": 0.40628375000000005
                },
                {
                    "name": "G3",
                    "midi": 55,
                    "time": 10.360235625,
                    "velocity": 0.1732283464566929,
                    "duration": 0.2369988541666661
                },
                {
                    "name": "G#3",
                    "midi": 56,
                    "time": 10.5633775,
                    "velocity": 0.2125984251968504,
                    "duration": 0.20314187500000003
                },
                {
                    "name": "C4",
                    "midi": 60,
                    "time": 10.766519375,
                    "velocity": 0.14173228346456693,
                    "duration": 0.20314187500000003
                },
                {
                    "name": "G#4",
                    "midi": 68,
                    "time": 10.96966125,
                    "velocity": 0.13385826771653545,
                    "duration": 0.20314187500000003
                },
                {
                    "name": "F#1",
                    "midi": 30,
                    "time": 11.375945,
                    "velocity": 0.2283464566929134,
                    "duration": 0.40628375000000005
                },
                {
                    "name": "C2",
                    "midi": 36,
                    "time": 12.1885125,
                    "velocity": 0.2283464566929134,
                    "duration": 0.40628375000000005
                },
                {
                    "name": "D#2",
                    "midi": 39,
                    "time": 13.00108,
                    "velocity": 0.2283464566929134,
                    "duration": 0.40628375000000005
                },
                {
                    "name": "F3",
                    "midi": 53,
                    "time": 13.610505625,
                    "velocity": 0.2047244094488189,
                    "duration": 0.2369988541666661
                },
                {
                    "name": "F#3",
                    "midi": 54,
                    "time": 13.8136475,
                    "velocity": 0.2440944881889764,
                    "duration": 0.20314187500000003
                },
                {
                    "name": "A#3",
                    "midi": 58,
                    "time": 14.016789375,
                    "velocity": 0.15748031496062992,
                    "duration": 0.20314187500000003
                },
                {
                    "name": "F#4",
                    "midi": 66,
                    "time": 14.21993125,
                    "velocity": 0.14960629921259844,
                    "duration": 0.20314187500000003
                },
                {
                    "name": "F1",
                    "midi": 29,
                    "time": 14.626215,
                    "velocity": 0.1968503937007874,
                    "duration": 0.40628375000000005
                },
                {
                    "name": "F2",
                    "midi": 41,
                    "time": 15.4387825,
                    "velocity": 0.2283464566929134,
                    "duration": 0.40628375000000005
                },
                {
                    "name": "E3",
                    "midi": 52,
                    "time": 16.048208125,
                    "velocity": 0.2204724409448819,
                    "duration": 0.23699885416666788
                },
                {
                    "name": "F3",
                    "midi": 53,
                    "time": 16.25135,
                    "velocity": 0.2440944881889764,
                    "duration": 0.20314187500000003
                },
                {
                    "name": "A3",
                    "midi": 57,
                    "time": 16.454491875,
                    "velocity": 0.15748031496062992,
                    "duration": 0.20314187500000003
                },
                {
                    "name": "F4",
                    "midi": 65,
                    "time": 16.65763375,
                    "velocity": 0.14960629921259844,
                    "duration": 0.20314187500000003
                },
                {
                    "name": "A3",
                    "midi": 57,
                    "time": 20.3141875,
                    "velocity": 0.1889763779527559,
                    "duration": 0.20314187500000003
                },
                {
                    "name": "F#3",
                    "midi": 54,
                    "time": 20.517329375,
                    "velocity": 0.1889763779527559,
                    "duration": 0.20314187500000003
                },
                {
                    "name": "C#3",
                    "midi": 49,
                    "time": 20.72047125,
                    "velocity": 0.1889763779527559,
                    "duration": 0.20314187500000003
                },
                {
                    "name": "A2",
                    "midi": 45,
                    "time": 20.923613125,
                    "velocity": 0.1732283464566929,
                    "duration": 0.20314187500000003
                },
                {
                    "name": "F#2",
                    "midi": 42,
                    "time": 21.126755,
                    "velocity": 0.1732283464566929,
                    "duration": 0.20314187500000003
                },
                {
                    "name": "C#2",
                    "midi": 37,
                    "time": 21.329896875,
                    "velocity": 0.1732283464566929,
                    "duration": 0.20314187500000003
                },
                {
                    "name": "A1",
                    "midi": 33,
                    "time": 21.53303875,
                    "velocity": 0.1732283464566929,
                    "duration": 0.20314187500000003
                },
                {
                    "name": "F#1",
                    "midi": 30,
                    "time": 21.736180625,
                    "velocity": 0.1732283464566929,
                    "duration": 0.20314187500000003
                },
                {
                    "name": "D#1",
                    "midi": 27,
                    "time": 21.9393225,
                    "velocity": 0.1732283464566929,
                    "duration": 0.20314187500000003
                },
                {
                    "name": "D#2",
                    "midi": 39,
                    "time": 22.142464375,
                    "velocity": 0.16535433070866143,
                    "duration": 0.20314187500000003
                },
                {
                    "name": "F#2",
                    "midi": 42,
                    "time": 22.34560625,
                    "velocity": 0.1732283464566929,
                    "duration": 0.20314187500000003
                },
                {
                    "name": "A2",
                    "midi": 45,
                    "time": 22.548748125,
                    "velocity": 0.18110236220472442,
                    "duration": 0.20314187500000003
                },
                {
                    "name": "D#3",
                    "midi": 51,
                    "time": 22.75189,
                    "velocity": 0.1889763779527559,
                    "duration": 0.20314187500000003
                },
                {
                    "name": "F#3",
                    "midi": 54,
                    "time": 22.955031875,
                    "velocity": 0.2047244094488189,
                    "duration": 0.20314187500000003
                },
                {
                    "name": "A3",
                    "midi": 57,
                    "time": 23.15817375,
                    "velocity": 0.2125984251968504,
                    "duration": 0.20314187500000003
                },
                {
                    "name": "D#2",
                    "midi": 39,
                    "time": 23.5644575,
                    "velocity": 0.1968503937007874,
                    "duration": 0.40628375000000005
                },
                {
                    "name": "C#2",
                    "midi": 37,
                    "time": 24.377025,
                    "velocity": 0.2283464566929134,
                    "duration": 0.40628375000000005
                },
                {
                    "name": "E3",
                    "midi": 52,
                    "time": 24.986450625,
                    "velocity": 0.2204724409448819,
                    "duration": 0.23699885416666788
                },
                {
                    "name": "F3",
                    "midi": 53,
                    "time": 25.1895925,
                    "velocity": 0.2440944881889764,
                    "duration": 0.20314187500000003
                },
                {
                    "name": "A#3",
                    "midi": 58,
                    "time": 25.392734375,
                    "velocity": 0.15748031496062992,
                    "duration": 0.20314187500000003
                },
                {
                    "name": "F4",
                    "midi": 65,
                    "time": 25.59587625,
                    "velocity": 0.14960629921259844,
                    "duration": 0.20314187500000003
                },
                {
                    "name": "D#2",
                    "midi": 39,
                    "time": 26.00216,
                    "velocity": 0.1968503937007874,
                    "duration": 0.40628375000000005
                },
                {
                    "name": "C#2",
                    "midi": 37,
                    "time": 26.8147275,
                    "velocity": 0.2283464566929134,
                    "duration": 0.40628375000000005
                },
                {
                    "name": "A3",
                    "midi": 57,
                    "time": 27.424153125,
                    "velocity": 0.2204724409448819,
                    "duration": 0.23699885416666788
                },
                {
                    "name": "A#3",
                    "midi": 58,
                    "time": 27.627295,
                    "velocity": 0.2440944881889764,
                    "duration": 0.20314187500000003
                },
                {
                    "name": "F4",
                    "midi": 65,
                    "time": 27.830436875,
                    "velocity": 0.15748031496062992,
                    "duration": 0.20314187500000003
                },
                {
                    "name": "A#4",
                    "midi": 70,
                    "time": 28.03357875,
                    "velocity": 0.14960629921259844,
                    "duration": 0.20314187500000003
                },
                {
                    "name": "C2",
                    "midi": 36,
                    "time": 28.4398625,
                    "velocity": 0.23622047244094488,
                    "duration": 0.40628375000000005
                },
                {
                    "name": "F2",
                    "midi": 41,
                    "time": 29.25243,
                    "velocity": 0.2755905511811024,
                    "duration": 0.40628375000000005
                },
                {
                    "name": "B3",
                    "midi": 59,
                    "time": 29.861855625,
                    "velocity": 0.2992125984251969,
                    "duration": 0.23699885416666788
                },
                {
                    "name": "C4",
                    "midi": 60,
                    "time": 30.0649975,
                    "velocity": 0.33070866141732286,
                    "duration": 0.20314187500000003
                },
                {
                    "name": "D#4",
                    "midi": 63,
                    "time": 30.268139375,
                    "velocity": 0.2992125984251969,
                    "duration": 0.20314187500000003
                },
                {
                    "name": "C5",
                    "midi": 72,
                    "time": 30.47128125,
                    "velocity": 0.18110236220472442,
                    "duration": 0.20314187500000003
                },
                {
                    "name": "A#1",
                    "midi": 34,
                    "time": 30.877565,
                    "velocity": 0.23622047244094488,
                    "duration": 0.40628375000000005
                },
                {
                    "name": "D#2",
                    "midi": 39,
                    "time": 31.6901325,
                    "velocity": 0.2755905511811024,
                    "duration": 0.4062837499999965
                },
                {
                    "name": "A3",
                    "midi": 57,
                    "time": 32.299558125,
                    "velocity": 0.2440944881889764,
                    "duration": 0.23699885416666433
                },
                {
                    "name": "A#3",
                    "midi": 58,
                    "time": 32.5027,
                    "velocity": 0.29133858267716534,
                    "duration": 0.20314187500000003
                },
                {
                    "name": "C#4",
                    "midi": 61,
                    "time": 32.705841875,
                    "velocity": 0.16535433070866143,
                    "duration": 0.20314187500000003
                },
                {
                    "name": "A#4",
                    "midi": 70,
                    "time": 32.90898375,
                    "velocity": 0.15748031496062992,
                    "duration": 0.20314187500000003
                },
                {
                    "name": "G#1",
                    "midi": 32,
                    "time": 33.3152675,
                    "velocity": 0.2755905511811024,
                    "duration": 0.40628375000000005
                },
                {
                    "name": "C#2",
                    "midi": 37,
                    "time": 34.127835,
                    "velocity": 0.2755905511811024,
                    "duration": 0.40628375000000005
                },
                {
                    "name": "C#3",
                    "midi": 49,
                    "time": 34.9404025,
                    "velocity": 0.2755905511811024,
                    "duration": 0.40628375000000005
                },
                {
                    "name": "G3",
                    "midi": 55,
                    "time": 35.549828125,
                    "velocity": 0.25984251968503935,
                    "duration": 0.23699885416666433
                },
                {
                    "name": "G#3",
                    "midi": 56,
                    "time": 35.75297,
                    "velocity": 0.29133858267716534,
                    "duration": 0.20314187500000003
                },
                {
                    "name": "B3",
                    "midi": 59,
                    "time": 35.956111875,
                    "velocity": 0.1889763779527559,
                    "duration": 0.20314187500000003
                },
                {
                    "name": "G#4",
                    "midi": 68,
                    "time": 36.15925375,
                    "velocity": 0.18110236220472442,
                    "duration": 0.20314187500000003
                },
                {
                    "name": "C2",
                    "midi": 36,
                    "time": 36.5655375,
                    "velocity": 0.23622047244094488,
                    "duration": 0.40628375000000005
                },
                {
                    "name": "C3",
                    "midi": 48,
                    "time": 37.378105,
                    "velocity": 0.2755905511811024,
                    "duration": 0.40628375000000005
                },
                {
                    "name": "E3",
                    "midi": 52,
                    "time": 37.987530625,
                    "velocity": 0.25984251968503935,
                    "duration": 0.23699885416666433
                },
                {
                    "name": "F3",
                    "midi": 53,
                    "time": 38.1906725,
                    "velocity": 0.29133858267716534,
                    "duration": 0.20314187500000003
                },
                {
                    "name": "G#3",
                    "midi": 56,
                    "time": 38.393814375,
                    "velocity": 0.1889763779527559,
                    "duration": 0.20314187500000003
                },
                {
                    "name": "F4",
                    "midi": 65,
                    "time": 38.59695625,
                    "velocity": 0.18110236220472442,
                    "duration": 0.20314187500000003
                },
                {
                    "name": "C3",
                    "midi": 48,
                    "time": 42.25351,
                    "velocity": 0.25196850393700787,
                    "duration": 0.20314187500000003
                },
                {
                    "name": "G#2",
                    "midi": 44,
                    "time": 42.456651875,
                    "velocity": 0.25984251968503935,
                    "duration": 0.20314187500000003
                },
                {
                    "name": "F2",
                    "midi": 41,
                    "time": 42.65979375,
                    "velocity": 0.33070866141732286,
                    "duration": 0.20314187500000003
                },
                {
                    "name": "C2",
                    "midi": 36,
                    "time": 42.862935625,
                    "velocity": 0.3543307086614173,
                    "duration": 0.20314187500000003
                },
                {
                    "name": "G#1",
                    "midi": 32,
                    "time": 43.0660775,
                    "velocity": 0.4330708661417323,
                    "duration": 0.20314187500000003
                },
                {
                    "name": "G#2",
                    "midi": 44,
                    "time": 43.269219375,
                    "velocity": 0.2677165354330709,
                    "duration": 0.20314187500000003
                },
                {
                    "name": "C#2",
                    "midi": 37,
                    "time": 43.878645,
                    "velocity": 0.2755905511811024,
                    "duration": 0.40628375000000005
                },
                {
                    "name": "C#3",
                    "midi": 49,
                    "time": 44.6912125,
                    "velocity": 0.2755905511811024,
                    "duration": 0.40628375000000005
                },
                {
                    "name": "G3",
                    "midi": 55,
                    "time": 45.300638125,
                    "velocity": 0.2204724409448819,
                    "duration": 0.23699885416666433
                },
                {
                    "name": "G#3",
                    "midi": 56,
                    "time": 45.50378,
                    "velocity": 0.29133858267716534,
                    "duration": 0.20314187500000003
                },
                {
                    "name": "B3",
                    "midi": 59,
                    "time": 45.706921875,
                    "velocity": 0.1889763779527559,
                    "duration": 0.20314187500000003
                },
                {
                    "name": "G#4",
                    "midi": 68,
                    "time": 45.91006375,
                    "velocity": 0.18110236220472442,
                    "duration": 0.20314187500000003
                },
                {
                    "name": "C#2",
                    "midi": 37,
                    "time": 46.3163475,
                    "velocity": 0.23622047244094488,
                    "duration": 0.40628375000000005
                },
                {
                    "name": "C#3",
                    "midi": 49,
                    "time": 47.128915,
                    "velocity": 0.25984251968503935,
                    "duration": 0.40628375000000005
                },
                {
                    "name": "E3",
                    "midi": 52,
                    "time": 47.738340625,
                    "velocity": 0.2440944881889764,
                    "duration": 0.23699885416666433
                },
                {
                    "name": "F3",
                    "midi": 53,
                    "time": 47.9414825,
                    "velocity": 0.2755905511811024,
                    "duration": 0.20314187500000003
                },
                {
                    "name": "G#3",
                    "midi": 56,
                    "time": 48.144624375,
                    "velocity": 0.1732283464566929,
                    "duration": 0.20314187500000003
                },
                {
                    "name": "F4",
                    "midi": 65,
                    "time": 48.34776625,
                    "velocity": 0.16535433070866143,
                    "duration": 0.20314187500000003
                },
                {
                    "name": "F#1",
                    "midi": 30,
                    "time": 49.363475625,
                    "velocity": 0.2047244094488189,
                    "duration": 0.20314187500000003
                },
                {
                    "name": "F#1",
                    "midi": 30,
                    "time": 50.176043125,
                    "velocity": 0.1968503937007874,
                    "duration": 0.20314187500000003
                },
                {
                    "name": "F#1",
                    "midi": 30,
                    "time": 50.988610625,
                    "velocity": 0.1889763779527559,
                    "duration": 0.20314187500000003
                },
                {
                    "name": "F#3",
                    "midi": 54,
                    "time": 51.801178125,
                    "velocity": 0.1732283464566929,
                    "duration": 0.20314187500000003
                },
                {
                    "name": "D3",
                    "midi": 50,
                    "time": 52.00432,
                    "velocity": 0.1732283464566929,
                    "duration": 0.20314187500000003
                },
                {
                    "name": "A2",
                    "midi": 45,
                    "time": 52.207461875,
                    "velocity": 0.1732283464566929,
                    "duration": 0.20314187500000003
                },
                {
                    "name": "F#2",
                    "midi": 42,
                    "time": 52.41060375,
                    "velocity": 0.1732283464566929,
                    "duration": 0.20314187500000003
                },
                {
                    "name": "D2",
                    "midi": 38,
                    "time": 52.613745625,
                    "velocity": 0.14960629921259844,
                    "duration": 0.20314187500000003
                },
                {
                    "name": "A1",
                    "midi": 33,
                    "time": 52.8168875,
                    "velocity": 0.14173228346456693,
                    "duration": 0.20314187500000003
                },
                {
                    "name": "F#1",
                    "midi": 30,
                    "time": 53.020029375,
                    "velocity": 0.14173228346456693,
                    "duration": 0.20314187500000003
                },
                {
                    "name": "A1",
                    "midi": 33,
                    "time": 53.22317125,
                    "velocity": 0.13385826771653545,
                    "duration": 0.20314187500000003
                },
                {
                    "name": "D2",
                    "midi": 38,
                    "time": 53.426313125,
                    "velocity": 0.13385826771653545,
                    "duration": 0.20314187500000003
                },
                {
                    "name": "F#2",
                    "midi": 42,
                    "time": 53.629455,
                    "velocity": 0.12598425196850394,
                    "duration": 0.27085583333333574
                },
                {
                    "name": "A2",
                    "midi": 45,
                    "time": 53.900310833333336,
                    "velocity": 0.11811023622047244,
                    "duration": 0.27085583333333574
                },
                {
                    "name": "D3",
                    "midi": 50,
                    "time": 54.17116666666667,
                    "velocity": 0.10236220472440945,
                    "duration": 0.27085583333333574
                },
                {
                    "name": "F#3",
                    "midi": 54,
                    "time": 54.44202250000001,
                    "velocity": 0.11811023622047244,
                    "duration": 0.40628375000000005
                },
                {
                    "name": "G#1",
                    "midi": 32,
                    "time": 54.84830625000001,
                    "velocity": 0.15748031496062992,
                    "duration": 0.8125675000000001
                },
                {
                    "name": "C#2",
                    "midi": 37,
                    "time": 55.66087375000001,
                    "velocity": 0.13385826771653545,
                    "duration": 1.0157093750000001
                },
                {
                    "name": "G2",
                    "midi": 43,
                    "time": 56.47344125000001,
                    "velocity": 0.1732283464566929,
                    "duration": 0.40628375000000005
                },
                {
                    "name": "G#2",
                    "midi": 44,
                    "time": 56.87972500000001,
                    "velocity": 0.16535433070866143,
                    "duration": 1.2188512500000002
                },
                {
                    "name": "G#3",
                    "midi": 56,
                    "time": 57.28600875000001,
                    "velocity": 0.1732283464566929,
                    "duration": 1.6251350000000002
                },
                {
                    "name": "C#3",
                    "midi": 49,
                    "time": 58.09857625000001,
                    "velocity": 0.1968503937007874,
                    "duration": 2.0314187500000003
                },
                {
                    "name": "C4",
                    "midi": 60,
                    "time": 58.91114375000001,
                    "velocity": 0.1732283464566929,
                    "duration": 0.40628375000000005
                },
                {
                    "name": "C#4",
                    "midi": 61,
                    "time": 59.31742750000001,
                    "velocity": 0.2047244094488189,
                    "duration": 1.6251350000000002
                },
                {
                    "name": "C#3",
                    "midi": 49,
                    "time": 60.12999500000001,
                    "velocity": 0.1732283464566929,
                    "duration": 2.4377025000000003
                },
                {
                    "name": "G#3",
                    "midi": 56,
                    "time": 60.12999500000001,
                    "velocity": 0.1732283464566929,
                    "duration": 1.2188512500000002
                },
                {
                    "name": "G3",
                    "midi": 55,
                    "time": 61.34884625000001,
                    "velocity": 0.1732283464566929,
                    "duration": 0.40628375000000005
                },
                {
                    "name": "G#3",
                    "midi": 56,
                    "time": 61.75513000000001,
                    "velocity": 0.2047244094488189,
                    "duration": 1.6251350000000002
                },
                {
                    "name": "A#2",
                    "midi": 46,
                    "time": 62.56769750000001,
                    "velocity": 0.14960629921259844,
                    "duration": 0.8125675000000001
                },
                {
                    "name": "F3",
                    "midi": 53,
                    "time": 62.56769750000001,
                    "velocity": 0.14960629921259844,
                    "duration": 0.8125675000000001
                },
                {
                    "name": "D#2",
                    "midi": 39,
                    "time": 63.38026500000001,
                    "velocity": 0.2047244094488189,
                    "duration": 0.40628375000000005
                },
                {
                    "name": "A#2",
                    "midi": 46,
                    "time": 63.78654875000001,
                    "velocity": 0.1732283464566929,
                    "duration": 0.40628375000000005
                },
                {
                    "name": "D#3",
                    "midi": 51,
                    "time": 64.19283250000001,
                    "velocity": 0.18110236220472442,
                    "duration": 0.40628375000000005
                },
                {
                    "name": "A#3",
                    "midi": 58,
                    "time": 64.59911625000001,
                    "velocity": 0.1889763779527559,
                    "duration": 0.40628375000000005
                },
                {
                    "name": "A#2",
                    "midi": 46,
                    "time": 65.41168375000001,
                    "velocity": 0.23622047244094488,
                    "duration": 0.40628375000000005
                },
                {
                    "name": "D2",
                    "midi": 38,
                    "time": 65.81796750000001,
                    "velocity": 0.23622047244094488,
                    "duration": 0.8125675000000001
                },
                {
                    "name": "B2",
                    "midi": 47,
                    "time": 65.81796750000001,
                    "velocity": 0.25984251968503935,
                    "duration": 0.4469121249999972
                },
                {
                    "name": "A#2",
                    "midi": 46,
                    "time": 66.22425125000001,
                    "velocity": 0.2047244094488189,
                    "duration": 0.4469121249999972
                },
                {
                    "name": "A2",
                    "midi": 45,
                    "time": 66.63053500000001,
                    "velocity": 0.2204724409448819,
                    "duration": 0.4469121249999972
                },
                {
                    "name": "D#2",
                    "midi": 39,
                    "time": 66.63053500000001,
                    "velocity": 0.2204724409448819,
                    "duration": 0.8125675000000001
                },
                {
                    "name": "A#2",
                    "midi": 46,
                    "time": 67.03681875000001,
                    "velocity": 0.2047244094488189,
                    "duration": 0.4469121249999972
                },
                {
                    "name": "B2",
                    "midi": 47,
                    "time": 67.44310250000001,
                    "velocity": 0.2440944881889764,
                    "duration": 0.4469121249999972
                },
                {
                    "name": "D#2",
                    "midi": 39,
                    "time": 67.44310250000001,
                    "velocity": 0.2204724409448819,
                    "duration": 0.8125675000000001
                },
                {
                    "name": "C3",
                    "midi": 48,
                    "time": 67.84938625000001,
                    "velocity": 0.2047244094488189,
                    "duration": 0.40628375000000005
                },
                {
                    "name": "D#3",
                    "midi": 51,
                    "time": 68.25567000000001,
                    "velocity": 0.2440944881889764,
                    "duration": 0.4469121249999972
                },
                {
                    "name": "F2",
                    "midi": 41,
                    "time": 68.25567000000001,
                    "velocity": 0.23622047244094488,
                    "duration": 0.8125675000000001
                },
                {
                    "name": "C#3",
                    "midi": 49,
                    "time": 68.66195375000001,
                    "velocity": 0.2125984251968504,
                    "duration": 0.4469121249999972
                },
                {
                    "name": "F2",
                    "midi": 41,
                    "time": 69.06823750000001,
                    "velocity": 0.2440944881889764,
                    "duration": 0.8125675000000001
                },
                {
                    "name": "C3",
                    "midi": 48,
                    "time": 69.06823750000001,
                    "velocity": 0.25196850393700787,
                    "duration": 0.4469121249999972
                },
                {
                    "name": "C#3",
                    "midi": 49,
                    "time": 69.47452125000001,
                    "velocity": 0.23622047244094488,
                    "duration": 0.4469121249999972
                },
                {
                    "name": "C#2",
                    "midi": 37,
                    "time": 69.88080500000001,
                    "velocity": 0.25984251968503935,
                    "duration": 0.8125675000000001
                },
                {
                    "name": "C3",
                    "midi": 48,
                    "time": 69.88080500000001,
                    "velocity": 0.30708661417322836,
                    "duration": 0.4469121249999972
                },
                {
                    "name": "A#2",
                    "midi": 46,
                    "time": 70.28708875000001,
                    "velocity": 0.25196850393700787,
                    "duration": 0.40628375000000005
                },
                {
                    "name": "A2",
                    "midi": 45,
                    "time": 70.69337250000001,
                    "velocity": 0.33858267716535434,
                    "duration": 0.4469121249999972
                },
                {
                    "name": "F#2",
                    "midi": 42,
                    "time": 70.69337250000001,
                    "velocity": 0.30708661417322836,
                    "duration": 0.8125675000000001
                },
                {
                    "name": "A#2",
                    "midi": 46,
                    "time": 71.09965625000001,
                    "velocity": 0.25196850393700787,
                    "duration": 0.4469121249999972
                },
                {
                    "name": "C#3",
                    "midi": 49,
                    "time": 71.50594000000001,
                    "velocity": 0.28346456692913385,
                    "duration": 0.4469121249999972
                },
                {
                    "name": "F#2",
                    "midi": 42,
                    "time": 71.50594000000001,
                    "velocity": 0.2677165354330709,
                    "duration": 0.8125675000000001
                },
                {
                    "name": "C3",
                    "midi": 48,
                    "time": 71.91222375000001,
                    "velocity": 0.2204724409448819,
                    "duration": 0.4469121249999972
                },
                {
                    "name": "A#2",
                    "midi": 46,
                    "time": 72.31850750000001,
                    "velocity": 0.25984251968503935,
                    "duration": 0.4469121249999972
                },
                {
                    "name": "F#2",
                    "midi": 42,
                    "time": 72.31850750000001,
                    "velocity": 0.23622047244094488,
                    "duration": 0.8125675000000001
                },
                {
                    "name": "C3",
                    "midi": 48,
                    "time": 72.72479125000001,
                    "velocity": 0.1889763779527559,
                    "duration": 1.6251350000000002
                },
                {
                    "name": "F2",
                    "midi": 41,
                    "time": 73.13107500000001,
                    "velocity": 0.1889763779527559,
                    "duration": 1.2188512500000002
                },
                {
                    "name": "G#1",
                    "midi": 32,
                    "time": 74.34992625000001,
                    "velocity": 0.15748031496062992,
                    "duration": 0.8125675000000001
                },
                {
                    "name": "C#2",
                    "midi": 37,
                    "time": 75.16249375000001,
                    "velocity": 0.13385826771653545,
                    "duration": 0.6094256250000001
                },
                {
                    "name": "G2",
                    "midi": 43,
                    "time": 75.97506125000001,
                    "velocity": 0.1732283464566929,
                    "duration": 0.40628375000000005
                },
                {
                    "name": "G#2",
                    "midi": 44,
                    "time": 76.38134500000001,
                    "velocity": 0.16535433070866143,
                    "duration": 1.2188512500000002
                },
                {
                    "name": "G#3",
                    "midi": 56,
                    "time": 76.78762875000001,
                    "velocity": 0.15748031496062992,
                    "duration": 5.281688750000001
                },
                {
                    "name": "C#3",
                    "midi": 49,
                    "time": 77.60019625000001,
                    "velocity": 0.18110236220472442,
                    "duration": 2.0314187500000003
                },
                {
                    "name": "A#3",
                    "midi": 58,
                    "time": 78.41276375000001,
                    "velocity": 0.1732283464566929,
                    "duration": 0.40628375000000005
                },
                {
                    "name": "B3",
                    "midi": 59,
                    "time": 78.81904750000001,
                    "velocity": 0.2047244094488189,
                    "duration": 2.0314187500000003
                },
                {
                    "name": "C#3",
                    "midi": 49,
                    "time": 79.63161500000001,
                    "velocity": 0.2755905511811024,
                    "duration": 2.4377025000000003
                },
                {
                    "name": "A#3",
                    "midi": 58,
                    "time": 80.85046625000001,
                    "velocity": 0.1732283464566929,
                    "duration": 0.40628375000000005
                },
                {
                    "name": "B3",
                    "midi": 59,
                    "time": 81.25675000000001,
                    "velocity": 0.2047244094488189,
                    "duration": 1.6251350000000002
                },
                {
                    "name": "C#3",
                    "midi": 49,
                    "time": 82.06931750000001,
                    "velocity": 0.14960629921259844,
                    "duration": 0.8125675000000001
                },
                {
                    "name": "F3",
                    "midi": 53,
                    "time": 82.06931750000001,
                    "velocity": 0.14960629921259844,
                    "duration": 0.8125675000000001
                },
                {
                    "name": "F#2",
                    "midi": 42,
                    "time": 82.88188500000001,
                    "velocity": 0.2755905511811024,
                    "duration": 0.40628375000000005
                },
                {
                    "name": "C#3",
                    "midi": 49,
                    "time": 83.28816875000001,
                    "velocity": 0.2283464566929134,
                    "duration": 0.40628375000000005
                },
                {
                    "name": "F#3",
                    "midi": 54,
                    "time": 83.69445250000001,
                    "velocity": 0.2283464566929134,
                    "duration": 0.40628375000000005
                },
                {
                    "name": "C#4",
                    "midi": 61,
                    "time": 84.10073625000001,
                    "velocity": 0.2283464566929134,
                    "duration": 0.40628375000000005
                },
                {
                    "name": "C#3",
                    "midi": 49,
                    "time": 84.91330375000001,
                    "velocity": 0.2283464566929134,
                    "duration": 0.40628375000000005
                },
                {
                    "name": "F#2",
                    "midi": 42,
                    "time": 85.31958750000001,
                    "velocity": 0.2204724409448819,
                    "duration": 0.8125675000000001
                },
                {
                    "name": "D3",
                    "midi": 50,
                    "time": 85.31958750000001,
                    "velocity": 0.25196850393700787,
                    "duration": 0.4469121249999972
                },
                {
                    "name": "C#3",
                    "midi": 49,
                    "time": 85.72587125000001,
                    "velocity": 0.1968503937007874,
                    "duration": 0.4469121249999972
                },
                {
                    "name": "C3",
                    "midi": 48,
                    "time": 86.13215500000001,
                    "velocity": 0.2125984251968504,
                    "duration": 0.4469121249999972
                },
                {
                    "name": "F#2",
                    "midi": 42,
                    "time": 86.13215500000001,
                    "velocity": 0.2125984251968504,
                    "duration": 0.8125675000000001
                },
                {
                    "name": "C#3",
                    "midi": 49,
                    "time": 86.53843875000001,
                    "velocity": 0.1968503937007874,
                    "duration": 0.4469121249999972
                },
                {
                    "name": "D3",
                    "midi": 50,
                    "time": 86.94472250000001,
                    "velocity": 0.23622047244094488,
                    "duration": 0.4469121249999972
                },
                {
                    "name": "F#2",
                    "midi": 42,
                    "time": 86.94472250000001,
                    "velocity": 0.2204724409448819,
                    "duration": 0.8125675000000001
                },
                {
                    "name": "C#3",
                    "midi": 49,
                    "time": 87.35100625000001,
                    "velocity": 0.2047244094488189,
                    "duration": 0.40628375000000005
                },
                {
                    "name": "D#3",
                    "midi": 51,
                    "time": 87.75729000000001,
                    "velocity": 0.2440944881889764,
                    "duration": 0.4469121249999972
                },
                {
                    "name": "F2",
                    "midi": 41,
                    "time": 87.75729000000001,
                    "velocity": 0.2283464566929134,
                    "duration": 0.8125675000000001
                },
                {
                    "name": "C#3",
                    "midi": 49,
                    "time": 88.16357375000001,
                    "velocity": 0.2204724409448819,
                    "duration": 0.4469121249999972
                },
                {
                    "name": "F#2",
                    "midi": 42,
                    "time": 88.56985750000001,
                    "velocity": 0.2440944881889764,
                    "duration": 0.8125675000000001
                },
                {
                    "name": "C3",
                    "midi": 48,
                    "time": 88.56985750000001,
                    "velocity": 0.2677165354330709,
                    "duration": 0.4469121249999972
                },
                {
                    "name": "C#3",
                    "midi": 49,
                    "time": 88.97614125000001,
                    "velocity": 0.2440944881889764,
                    "duration": 0.4469121249999972
                },
                {
                    "name": "A#2",
                    "midi": 46,
                    "time": 89.38242500000001,
                    "velocity": 0.2755905511811024,
                    "duration": 0.8125675000000001
                },
                {
                    "name": "D#3",
                    "midi": 51,
                    "time": 89.38242500000001,
                    "velocity": 0.3228346456692913,
                    "duration": 0.40628375000000005
                },
                {
                    "name": "C#3",
                    "midi": 49,
                    "time": 89.78870875000001,
                    "velocity": 0.2755905511811024,
                    "duration": 0.8125675000000001
                },
                {
                    "name": "G#2",
                    "midi": 44,
                    "time": 90.19499250000001,
                    "velocity": 0.33070866141732286,
                    "duration": 0.8125675000000001
                },
                {
                    "name": "F3",
                    "midi": 53,
                    "time": 90.60127625000001,
                    "velocity": 0.2755905511811024,
                    "duration": 0.4469121249999972
                },
                {
                    "name": "D#3",
                    "midi": 51,
                    "time": 91.00756000000001,
                    "velocity": 0.29133858267716534,
                    "duration": 0.4469121249999972
                },
                {
                    "name": "G#2",
                    "midi": 44,
                    "time": 91.00756000000001,
                    "velocity": 0.28346456692913385,
                    "duration": 1.2188512500000002
                },
                {
                    "name": "C#3",
                    "midi": 49,
                    "time": 91.41384375000001,
                    "velocity": 0.2283464566929134,
                    "duration": 0.4469121249999972
                },
                {
                    "name": "C3",
                    "midi": 48,
                    "time": 91.82012750000001,
                    "velocity": 0.25984251968503935,
                    "duration": 0.40628375000000005
                },
                {
                    "name": "G#2",
                    "midi": 44,
                    "time": 92.22641125000001,
                    "velocity": 0.2047244094488189,
                    "duration": 1.8282768750000002
                },
                {
                    "name": "C#2",
                    "midi": 37,
                    "time": 92.63269500000001,
                    "velocity": 0.18110236220472442,
                    "duration": 1.4219931250000002
                },
                {
                    "name": "C#3",
                    "midi": 49,
                    "time": 94.05468812500001,
                    "velocity": 0.11811023622047244,
                    "duration": 0.20314187500000003
                },
                {
                    "name": "C3",
                    "midi": 48,
                    "time": 94.25783000000001,
                    "velocity": 0.1889763779527559,
                    "duration": 0.20314187500000003
                },
                {
                    "name": "C3",
                    "midi": 48,
                    "time": 94.86725562500001,
                    "velocity": 0.11811023622047244,
                    "duration": 0.20314187500000003
                },
                {
                    "name": "A#2",
                    "midi": 46,
                    "time": 95.07039750000001,
                    "velocity": 0.1732283464566929,
                    "duration": 0.6094256250000001
                },
                {
                    "name": "E2",
                    "midi": 40,
                    "time": 95.67982312500001,
                    "velocity": 0.16535433070866143,
                    "duration": 0.20314187500000003
                },
                {
                    "name": "F2",
                    "midi": 41,
                    "time": 95.88296500000001,
                    "velocity": 0.2047244094488189,
                    "duration": 0.20314187500000003
                },
                {
                    "name": "A2",
                    "midi": 45,
                    "time": 96.08610687500001,
                    "velocity": 0.16535433070866143,
                    "duration": 0.20314187500000003
                },
                {
                    "name": "F3",
                    "midi": 53,
                    "time": 96.28924875000001,
                    "velocity": 0.1968503937007874,
                    "duration": 0.20314187500000003
                },
                {
                    "name": "F2",
                    "midi": 41,
                    "time": 96.49239062500001,
                    "velocity": 0.16535433070866143,
                    "duration": 0.20314187500000003
                },
                {
                    "name": "F#2",
                    "midi": 42,
                    "time": 96.69553250000001,
                    "velocity": 0.2204724409448819,
                    "duration": 0.20314187500000003
                },
                {
                    "name": "A#2",
                    "midi": 46,
                    "time": 96.89867437500001,
                    "velocity": 0.16535433070866143,
                    "duration": 0.20314187500000003
                },
                {
                    "name": "F#3",
                    "midi": 54,
                    "time": 97.10181625000001,
                    "velocity": 0.16535433070866143,
                    "duration": 0.20314187500000003
                },
                {
                    "name": "F#3",
                    "midi": 54,
                    "time": 98.11752562500001,
                    "velocity": 0.16535433070866143,
                    "duration": 0.23699885416667144
                },
                {
                    "name": "G3",
                    "midi": 55,
                    "time": 98.32066750000001,
                    "velocity": 0.2047244094488189,
                    "duration": 0.20314187500000003
                },
                {
                    "name": "A#3",
                    "midi": 58,
                    "time": 98.52380937500001,
                    "velocity": 0.16535433070866143,
                    "duration": 0.20314187500000003
                },
                {
                    "name": "G4",
                    "midi": 67,
                    "time": 98.72695125000001,
                    "velocity": 0.1968503937007874,
                    "duration": 0.20314187500000003
                },
                {
                    "name": "G3",
                    "midi": 55,
                    "time": 98.93009312500001,
                    "velocity": 0.16535433070866143,
                    "duration": 0.23699885416667144
                },
                {
                    "name": "G#3",
                    "midi": 56,
                    "time": 99.13323500000001,
                    "velocity": 0.2204724409448819,
                    "duration": 0.20314187500000003
                },
                {
                    "name": "C4",
                    "midi": 60,
                    "time": 99.33637687500001,
                    "velocity": 0.16535433070866143,
                    "duration": 0.20314187500000003
                },
                {
                    "name": "G#4",
                    "midi": 68,
                    "time": 99.53951875000001,
                    "velocity": 0.16535433070866143,
                    "duration": 0.20314187500000003
                },
                {
                    "name": "G#2",
                    "midi": 44,
                    "time": 100.55522812500001,
                    "velocity": 0.16535433070866143,
                    "duration": 0.23699885416667144
                },
                {
                    "name": "A2",
                    "midi": 45,
                    "time": 100.75837000000001,
                    "velocity": 0.2047244094488189,
                    "duration": 0.20314187500000003
                },
                {
                    "name": "C3",
                    "midi": 48,
                    "time": 100.96151187500001,
                    "velocity": 0.16535433070866143,
                    "duration": 0.20314187500000003
                },
                {
                    "name": "A3",
                    "midi": 57,
                    "time": 101.16465375000001,
                    "velocity": 0.1968503937007874,
                    "duration": 0.20314187500000003
                },
                {
                    "name": "A2",
                    "midi": 45,
                    "time": 101.36779562500001,
                    "velocity": 0.16535433070866143,
                    "duration": 0.23699885416667144
                },
                {
                    "name": "A#2",
                    "midi": 46,
                    "time": 101.57093750000001,
                    "velocity": 0.2204724409448819,
                    "duration": 0.20314187500000003
                },
                {
                    "name": "D3",
                    "midi": 50,
                    "time": 101.77407937500001,
                    "velocity": 0.16535433070866143,
                    "duration": 0.20314187500000003
                },
                {
                    "name": "A#3",
                    "midi": 58,
                    "time": 101.97722125000001,
                    "velocity": 0.16535433070866143,
                    "duration": 0.20314187500000003
                },
                {
                    "name": "A#3",
                    "midi": 58,
                    "time": 102.58664687500001,
                    "velocity": 0.16535433070866143,
                    "duration": 0.20314187500000003
                },
                {
                    "name": "B3",
                    "midi": 59,
                    "time": 102.78978875000001,
                    "velocity": 0.2204724409448819,
                    "duration": 0.20314187500000003
                },
                {
                    "name": "D4",
                    "midi": 62,
                    "time": 102.99293062500001,
                    "velocity": 0.18110236220472442,
                    "duration": 0.20314187500000003
                },
                {
                    "name": "B4",
                    "midi": 71,
                    "time": 103.19607250000001,
                    "velocity": 0.2755905511811024,
                    "duration": 0.20314187500000003
                },
                {
                    "name": "B3",
                    "midi": 59,
                    "time": 103.39921437500001,
                    "velocity": 0.2283464566929134,
                    "duration": 0.23699885416667144
                },
                {
                    "name": "C4",
                    "midi": 60,
                    "time": 103.60235625000001,
                    "velocity": 0.2992125984251969,
                    "duration": 0.20314187500000003
                },
                {
                    "name": "F4",
                    "midi": 65,
                    "time": 103.80549812500001,
                    "velocity": 0.2047244094488189,
                    "duration": 0.20314187500000003
                },
                {
                    "name": "C5",
                    "midi": 72,
                    "time": 104.00864000000001,
                    "velocity": 0.2992125984251969,
                    "duration": 0.20314187500000003
                },
                {
                    "name": "C4",
                    "midi": 60,
                    "time": 104.21178187500001,
                    "velocity": 0.2440944881889764,
                    "duration": 0.22345606250000571
                },
                {
                    "name": "C#4",
                    "midi": 61,
                    "time": 104.41492375000001,
                    "velocity": 0.3228346456692913,
                    "duration": 0.22345606250000571
                },
                {
                    "name": "F4",
                    "midi": 65,
                    "time": 104.61806562500001,
                    "velocity": 0.23622047244094488,
                    "duration": 0.22345606250000571
                },
                {
                    "name": "C#5",
                    "midi": 73,
                    "time": 104.82120750000001,
                    "velocity": 0.2283464566929134,
                    "duration": 0.20314187500000003
                },
                {
                    "name": "A#3",
                    "midi": 58,
                    "time": 106.24320062500001,
                    "velocity": 0.2283464566929134,
                    "duration": 0.22345606250000571
                },
                {
                    "name": "G#3",
                    "midi": 56,
                    "time": 106.44634250000001,
                    "velocity": 0.2440944881889764,
                    "duration": 0.22345606250000571
                },
                {
                    "name": "F3",
                    "midi": 53,
                    "time": 106.64948437500001,
                    "velocity": 0.2204724409448819,
                    "duration": 0.20314187500000003
                },
                {
                    "name": "B2",
                    "midi": 47,
                    "time": 106.85262625000001,
                    "velocity": 0.2283464566929134,
                    "duration": 0.20314187500000003
                },
                {
                    "name": "C2",
                    "midi": 36,
                    "time": 107.05576812500001,
                    "velocity": 0.2125984251968504,
                    "duration": 0.22345606250000571
                },
                {
                    "name": "C#2",
                    "midi": 37,
                    "time": 107.25891000000001,
                    "velocity": 0.2677165354330709,
                    "duration": 0.20314187500000003
                },
                {
                    "name": "G#2",
                    "midi": 44,
                    "time": 107.46205187500001,
                    "velocity": 0.23622047244094488,
                    "duration": 0.20314187500000003
                },
                {
                    "name": "B2",
                    "midi": 47,
                    "time": 107.66519375000001,
                    "velocity": 0.23622047244094488,
                    "duration": 0.22345606250000571
                },
                {
                    "name": "C3",
                    "midi": 48,
                    "time": 107.86833562500001,
                    "velocity": 0.28346456692913385,
                    "duration": 0.22345606250000571
                },
                {
                    "name": "C#3",
                    "midi": 49,
                    "time": 108.07147750000001,
                    "velocity": 0.2283464566929134,
                    "duration": 0.20314187500000003
                },
                {
                    "name": "G#3",
                    "midi": 56,
                    "time": 108.27461937500001,
                    "velocity": 0.2047244094488189,
                    "duration": 0.20314187500000003
                },
                {
                    "name": "B3",
                    "midi": 59,
                    "time": 108.47776125000001,
                    "velocity": 0.23622047244094488,
                    "duration": 0.22345606250000571
                },
                {
                    "name": "G#3",
                    "midi": 56,
                    "time": 111.11860562500001,
                    "velocity": 0.2047244094488189,
                    "duration": 0.22345606250000571
                },
                {
                    "name": "G3",
                    "midi": 55,
                    "time": 111.32174750000001,
                    "velocity": 0.2125984251968504,
                    "duration": 0.20314187500000003
                },
                {
                    "name": "E3",
                    "midi": 52,
                    "time": 111.52488937500001,
                    "velocity": 0.1889763779527559,
                    "duration": 0.20314187500000003
                },
                {
                    "name": "A#2",
                    "midi": 46,
                    "time": 111.72803125000002,
                    "velocity": 0.1968503937007874,
                    "duration": 0.20314187500000003
                },
                {
                    "name": "B1",
                    "midi": 35,
                    "time": 111.93117312500002,
                    "velocity": 0.1732283464566929,
                    "duration": 0.22345606250000571
                },
                {
                    "name": "C2",
                    "midi": 36,
                    "time": 112.13431500000002,
                    "velocity": 0.2204724409448819,
                    "duration": 0.20314187500000003
                },
                {
                    "name": "G2",
                    "midi": 43,
                    "time": 112.33745687500002,
                    "velocity": 0.1968503937007874,
                    "duration": 0.20314187500000003
                },
                {
                    "name": "A#2",
                    "midi": 46,
                    "time": 112.54059875000002,
                    "velocity": 0.1968503937007874,
                    "duration": 0.22345606250000571
                },
                {
                    "name": "B2",
                    "midi": 47,
                    "time": 112.74374062500002,
                    "velocity": 0.2283464566929134,
                    "duration": 0.22345606250000571
                },
                {
                    "name": "C3",
                    "midi": 48,
                    "time": 112.94688250000002,
                    "velocity": 0.18110236220472442,
                    "duration": 0.20314187500000003
                },
                {
                    "name": "G3",
                    "midi": 55,
                    "time": 113.15002437500002,
                    "velocity": 0.16535433070866143,
                    "duration": 0.20314187500000003
                },
                {
                    "name": "A#3",
                    "midi": 58,
                    "time": 113.35316625000002,
                    "velocity": 0.18110236220472442,
                    "duration": 0.22345606250000571
                },
                {
                    "name": "F#3",
                    "midi": 54,
                    "time": 116.60343625000002,
                    "velocity": 0.12598425196850394,
                    "duration": 0.8125675000000001
                },
                {
                    "name": "D#3",
                    "midi": 51,
                    "time": 116.60343625000002,
                    "velocity": 0.12598425196850394,
                    "duration": 0.8125675000000001
                },
                {
                    "name": "B2",
                    "midi": 47,
                    "time": 116.60343625000002,
                    "velocity": 0.15748031496062992,
                    "duration": 0.40628375000000005
                },
                {
                    "name": "C3",
                    "midi": 48,
                    "time": 117.00972000000002,
                    "velocity": 0.14173228346456693,
                    "duration": 0.40628375000000005
                },
                {
                    "name": "E1",
                    "midi": 28,
                    "time": 118.22857125000002,
                    "velocity": 0.1732283464566929,
                    "duration": 0.40628375000000005
                },
                {
                    "name": "F1",
                    "midi": 29,
                    "time": 118.63485500000002,
                    "velocity": 0.1732283464566929,
                    "duration": 0.6094256250000001
                },
                {
                    "name": "F2",
                    "midi": 41,
                    "time": 119.24428062500002,
                    "velocity": 0.14960629921259844,
                    "duration": 0.20314187500000003
                },
                {
                    "name": "A2",
                    "midi": 45,
                    "time": 119.44742250000002,
                    "velocity": 0.1732283464566929,
                    "duration": 0.20314187500000003
                },
                {
                    "name": "C3",
                    "midi": 48,
                    "time": 119.65056437500002,
                    "velocity": 0.1732283464566929,
                    "duration": 0.20314187500000003
                },
                {
                    "name": "D#3",
                    "midi": 51,
                    "time": 119.85370625000002,
                    "velocity": 0.14960629921259844,
                    "duration": 0.20314187500000003
                },
                {
                    "name": "F#3",
                    "midi": 54,
                    "time": 120.05684812500002,
                    "velocity": 0.14960629921259844,
                    "duration": 0.20314187500000003
                },
                {
                    "name": "A3",
                    "midi": 57,
                    "time": 120.25999000000002,
                    "velocity": 0.14960629921259844,
                    "duration": 0.20314187500000003
                },
                {
                    "name": "C4",
                    "midi": 60,
                    "time": 120.46313187500002,
                    "velocity": 0.1732283464566929,
                    "duration": 0.20314187500000003
                },
                {
                    "name": "F#4",
                    "midi": 66,
                    "time": 120.66627375000002,
                    "velocity": 0.14960629921259844,
                    "duration": 0.20314187500000003
                },
                {
                    "name": "D#4",
                    "midi": 63,
                    "time": 120.86941562500002,
                    "velocity": 0.14960629921259844,
                    "duration": 0.20314187500000003
                },
                {
                    "name": "F#3",
                    "midi": 54,
                    "time": 121.07255750000002,
                    "velocity": 0.1732283464566929,
                    "duration": 0.20314187500000003
                },
                {
                    "name": "A3",
                    "midi": 57,
                    "time": 121.27569937500002,
                    "velocity": 0.14960629921259844,
                    "duration": 0.20314187500000003
                },
                {
                    "name": "D#4",
                    "midi": 63,
                    "time": 121.47884125000002,
                    "velocity": 0.14960629921259844,
                    "duration": 0.20314187500000003
                },
                {
                    "name": "C4",
                    "midi": 60,
                    "time": 121.68198312500002,
                    "velocity": 0.14960629921259844,
                    "duration": 0.20314187500000003
                },
                {
                    "name": "D#3",
                    "midi": 51,
                    "time": 121.88512500000002,
                    "velocity": 0.1732283464566929,
                    "duration": 0.20314187500000003
                },
                {
                    "name": "F#3",
                    "midi": 54,
                    "time": 122.08826687500002,
                    "velocity": 0.16535433070866143,
                    "duration": 0.20314187500000003
                },
                {
                    "name": "C4",
                    "midi": 60,
                    "time": 122.29140875000002,
                    "velocity": 0.16535433070866143,
                    "duration": 0.20314187500000003
                },
                {
                    "name": "A3",
                    "midi": 57,
                    "time": 122.49455062500002,
                    "velocity": 0.16535433070866143,
                    "duration": 0.20314187500000003
                },
                {
                    "name": "C3",
                    "midi": 48,
                    "time": 122.69769250000002,
                    "velocity": 0.1889763779527559,
                    "duration": 0.20314187500000003
                },
                {
                    "name": "D#3",
                    "midi": 51,
                    "time": 122.90083437500002,
                    "velocity": 0.14960629921259844,
                    "duration": 0.20314187500000003
                },
                {
                    "name": "A3",
                    "midi": 57,
                    "time": 123.10397625000002,
                    "velocity": 0.14960629921259844,
                    "duration": 0.20314187500000003
                },
                {
                    "name": "F#3",
                    "midi": 54,
                    "time": 123.30711812500002,
                    "velocity": 0.14960629921259844,
                    "duration": 0.20314187500000003
                },
                {
                    "name": "D#3",
                    "midi": 51,
                    "time": 123.51026000000002,
                    "velocity": 0.1889763779527559,
                    "duration": 0.20314187500000003
                },
                {
                    "name": "C3",
                    "midi": 48,
                    "time": 123.71340187500002,
                    "velocity": 0.14960629921259844,
                    "duration": 0.20314187500000003
                },
                {
                    "name": "A2",
                    "midi": 45,
                    "time": 123.91654375000002,
                    "velocity": 0.14960629921259844,
                    "duration": 0.20314187500000003
                },
                {
                    "name": "F#2",
                    "midi": 42,
                    "time": 124.11968562500002,
                    "velocity": 0.14960629921259844,
                    "duration": 0.20314187500000003
                },
                {
                    "name": "D#2",
                    "midi": 39,
                    "time": 124.32282750000002,
                    "velocity": 0.1732283464566929,
                    "duration": 0.20314187500000003
                },
                {
                    "name": "A2",
                    "midi": 45,
                    "time": 124.52596937500002,
                    "velocity": 0.15748031496062992,
                    "duration": 0.20314187500000003
                },
                {
                    "name": "F#3",
                    "midi": 54,
                    "time": 124.72911125000002,
                    "velocity": 0.15748031496062992,
                    "duration": 0.20314187500000003
                },
                {
                    "name": "D#2",
                    "midi": 39,
                    "time": 125.54167875000002,
                    "velocity": 0.1732283464566929,
                    "duration": 0.20314187500000003
                },
                {
                    "name": "G#2",
                    "midi": 44,
                    "time": 125.74482062500002,
                    "velocity": 0.16535433070866143,
                    "duration": 0.20314187500000003
                },
                {
                    "name": "F3",
                    "midi": 53,
                    "time": 125.94796250000002,
                    "velocity": 0.16535433070866143,
                    "duration": 0.40628375000000005
                },
                {
                    "name": "D2",
                    "midi": 38,
                    "time": 126.76053000000002,
                    "velocity": 0.2283464566929134,
                    "duration": 0.40628375000000005
                },
                {
                    "name": "E3",
                    "midi": 52,
                    "time": 127.36995562500002,
                    "velocity": 0.2047244094488189,
                    "duration": 0.23699885416667144
                },
                {
                    "name": "F3",
                    "midi": 53,
                    "time": 127.57309750000002,
                    "velocity": 0.2440944881889764,
                    "duration": 0.20314187500000003
                },
                {
                    "name": "G#3",
                    "midi": 56,
                    "time": 127.77623937500002,
                    "velocity": 0.15748031496062992,
                    "duration": 0.20314187500000003
                },
                {
                    "name": "F4",
                    "midi": 65,
                    "time": 127.97938125000002,
                    "velocity": 0.14960629921259844,
                    "duration": 0.20314187500000003
                },
                {
                    "name": "D#2",
                    "midi": 39,
                    "time": 128.38566500000002,
                    "velocity": 0.1968503937007874,
                    "duration": 0.40628375000000005
                },
                {
                    "name": "D2",
                    "midi": 38,
                    "time": 129.19823250000002,
                    "velocity": 0.2283464566929134,
                    "duration": 0.40628375000000005
                },
                {
                    "name": "A3",
                    "midi": 57,
                    "time": 129.80765812500002,
                    "velocity": 0.2204724409448819,
                    "duration": 0.23699885416667144
                },
                {
                    "name": "A#3",
                    "midi": 58,
                    "time": 130.01080000000002,
                    "velocity": 0.25196850393700787,
                    "duration": 0.20314187500000003
                },
                {
                    "name": "F4",
                    "midi": 65,
                    "time": 130.21394187500002,
                    "velocity": 0.15748031496062992,
                    "duration": 0.20314187500000003
                },
                {
                    "name": "A#4",
                    "midi": 70,
                    "time": 130.41708375000002,
                    "velocity": 0.14960629921259844,
                    "duration": 0.20314187500000003
                },
                {
                    "name": "A#1",
                    "midi": 34,
                    "time": 130.82336750000002,
                    "velocity": 0.23622047244094488,
                    "duration": 0.40628375000000005
                },
                {
                    "name": "D#2",
                    "midi": 39,
                    "time": 131.63593500000002,
                    "velocity": 0.2755905511811024,
                    "duration": 0.40628375000000005
                },
                {
                    "name": "A3",
                    "midi": 57,
                    "time": 132.24536062500002,
                    "velocity": 0.25984251968503935,
                    "duration": 0.23699885416667144
                },
                {
                    "name": "A#3",
                    "midi": 58,
                    "time": 132.44850250000002,
                    "velocity": 0.29133858267716534,
                    "duration": 0.20314187500000003
                },
                {
                    "name": "C#4",
                    "midi": 61,
                    "time": 132.65164437500002,
                    "velocity": 0.1889763779527559,
                    "duration": 0.20314187500000003
                },
                {
                    "name": "A#4",
                    "midi": 70,
                    "time": 132.85478625000002,
                    "velocity": 0.18110236220472442,
                    "duration": 0.20314187500000003
                },
                {
                    "name": "G#1",
                    "midi": 32,
                    "time": 133.26107000000002,
                    "velocity": 0.23622047244094488,
                    "duration": 0.40628375000000005
                },
                {
                    "name": "C#2",
                    "midi": 37,
                    "time": 134.07363750000002,
                    "velocity": 0.2755905511811024,
                    "duration": 0.40628375000000005
                },
                {
                    "name": "G3",
                    "midi": 55,
                    "time": 134.68306312500002,
                    "velocity": 0.2047244094488189,
                    "duration": 0.23699885416667144
                },
                {
                    "name": "G#3",
                    "midi": 56,
                    "time": 134.88620500000002,
                    "velocity": 0.2283464566929134,
                    "duration": 0.20314187500000003
                },
                {
                    "name": "C4",
                    "midi": 60,
                    "time": 135.08934687500002,
                    "velocity": 0.14173228346456693,
                    "duration": 0.20314187500000003
                },
                {
                    "name": "G#4",
                    "midi": 68,
                    "time": 135.29248875000002,
                    "velocity": 0.14173228346456693,
                    "duration": 0.20314187500000003
                },
                {
                    "name": "F#1",
                    "midi": 30,
                    "time": 135.69877250000002,
                    "velocity": 0.2755905511811024,
                    "duration": 0.40628375000000005
                },
                {
                    "name": "C2",
                    "midi": 36,
                    "time": 136.51134000000002,
                    "velocity": 0.2755905511811024,
                    "duration": 0.40628375000000005
                },
                {
                    "name": "D#2",
                    "midi": 39,
                    "time": 137.32390750000002,
                    "velocity": 0.2755905511811024,
                    "duration": 0.40628375000000005
                },
                {
                    "name": "F3",
                    "midi": 53,
                    "time": 137.93333312500002,
                    "velocity": 0.25984251968503935,
                    "duration": 0.23699885416667144
                },
                {
                    "name": "F#3",
                    "midi": 54,
                    "time": 138.13647500000002,
                    "velocity": 0.29133858267716534,
                    "duration": 0.20314187500000003
                },
                {
                    "name": "A#3",
                    "midi": 58,
                    "time": 138.33961687500002,
                    "velocity": 0.1889763779527559,
                    "duration": 0.20314187500000003
                },
                {
                    "name": "F#4",
                    "midi": 66,
                    "time": 138.54275875000002,
                    "velocity": 0.18110236220472442,
                    "duration": 0.20314187500000003
                },
                {
                    "name": "F1",
                    "midi": 29,
                    "time": 138.94904250000002,
                    "velocity": 0.23622047244094488,
                    "duration": 0.40628375000000005
                },
                {
                    "name": "F2",
                    "midi": 41,
                    "time": 139.76161000000002,
                    "velocity": 0.2755905511811024,
                    "duration": 0.20314187500000003
                },
                {
                    "name": "E3",
                    "midi": 52,
                    "time": 140.37103562500002,
                    "velocity": 0.25984251968503935,
                    "duration": 0.23699885416667144
                },
                {
                    "name": "F3",
                    "midi": 53,
                    "time": 140.57417750000002,
                    "velocity": 0.29133858267716534,
                    "duration": 0.20314187500000003
                },
                {
                    "name": "A3",
                    "midi": 57,
                    "time": 140.77731937500002,
                    "velocity": 0.1889763779527559,
                    "duration": 0.20314187500000003
                },
                {
                    "name": "F4",
                    "midi": 65,
                    "time": 140.98046125000002,
                    "velocity": 0.18110236220472442,
                    "duration": 0.20314187500000003
                },
                {
                    "name": "A3",
                    "midi": 57,
                    "time": 144.63701500000002,
                    "velocity": 0.1889763779527559,
                    "duration": 0.20314187500000003
                },
                {
                    "name": "F#3",
                    "midi": 54,
                    "time": 144.84015687500002,
                    "velocity": 0.1889763779527559,
                    "duration": 0.20314187500000003
                },
                {
                    "name": "C#3",
                    "midi": 49,
                    "time": 145.04329875000002,
                    "velocity": 0.1889763779527559,
                    "duration": 0.20314187500000003
                },
                {
                    "name": "A2",
                    "midi": 45,
                    "time": 145.24644062500002,
                    "velocity": 0.1732283464566929,
                    "duration": 0.20314187500000003
                },
                {
                    "name": "F#2",
                    "midi": 42,
                    "time": 145.44958250000002,
                    "velocity": 0.1732283464566929,
                    "duration": 0.20314187500000003
                },
                {
                    "name": "C#2",
                    "midi": 37,
                    "time": 145.65272437500002,
                    "velocity": 0.1732283464566929,
                    "duration": 0.20314187500000003
                },
                {
                    "name": "A1",
                    "midi": 33,
                    "time": 145.85586625000002,
                    "velocity": 0.1732283464566929,
                    "duration": 0.20314187500000003
                },
                {
                    "name": "F#1",
                    "midi": 30,
                    "time": 146.05900812500002,
                    "velocity": 0.1732283464566929,
                    "duration": 0.20314187500000003
                },
                {
                    "name": "D#1",
                    "midi": 27,
                    "time": 146.26215000000002,
                    "velocity": 0.1732283464566929,
                    "duration": 0.40628375000000005
                },
                {
                    "name": "D#2",
                    "midi": 39,
                    "time": 146.66843375000002,
                    "velocity": 0.16535433070866143,
                    "duration": 0.20314187500000003
                },
                {
                    "name": "F#2",
                    "midi": 42,
                    "time": 146.87157562500002,
                    "velocity": 0.1732283464566929,
                    "duration": 0.20314187500000003
                },
                {
                    "name": "A2",
                    "midi": 45,
                    "time": 147.07471750000002,
                    "velocity": 0.18110236220472442,
                    "duration": 0.20314187500000003
                },
                {
                    "name": "D#3",
                    "midi": 51,
                    "time": 147.27785937500002,
                    "velocity": 0.1889763779527559,
                    "duration": 0.20314187500000003
                },
                {
                    "name": "F#3",
                    "midi": 54,
                    "time": 147.48100125000002,
                    "velocity": 0.2047244094488189,
                    "duration": 0.20314187500000003
                },
                {
                    "name": "A3",
                    "midi": 57,
                    "time": 147.68414312500002,
                    "velocity": 0.2125984251968504,
                    "duration": 0.20314187500000003
                },
                {
                    "name": "D#2",
                    "midi": 39,
                    "time": 147.88728500000002,
                    "velocity": 0.1968503937007874,
                    "duration": 0.40628375000000005
                },
                {
                    "name": "C#2",
                    "midi": 37,
                    "time": 148.69985250000002,
                    "velocity": 0.2283464566929134,
                    "duration": 0.40628375000000005
                },
                {
                    "name": "E3",
                    "midi": 52,
                    "time": 149.30927812500002,
                    "velocity": 0.2204724409448819,
                    "duration": 0.23699885416667144
                },
                {
                    "name": "F3",
                    "midi": 53,
                    "time": 149.51242000000002,
                    "velocity": 0.2440944881889764,
                    "duration": 0.20314187500000003
                },
                {
                    "name": "A#3",
                    "midi": 58,
                    "time": 149.71556187500002,
                    "velocity": 0.15748031496062992,
                    "duration": 0.20314187500000003
                },
                {
                    "name": "F4",
                    "midi": 65,
                    "time": 149.91870375000002,
                    "velocity": 0.14960629921259844,
                    "duration": 0.20314187500000003
                },
                {
                    "name": "E2",
                    "midi": 40,
                    "time": 150.32498750000002,
                    "velocity": 0.23622047244094488,
                    "duration": 0.40628375000000005
                },
                {
                    "name": "D#2",
                    "midi": 39,
                    "time": 151.13755500000002,
                    "velocity": 0.2755905511811024,
                    "duration": 0.40628375000000005
                },
                {
                    "name": "F3",
                    "midi": 53,
                    "time": 151.74698062500002,
                    "velocity": 0.25984251968503935,
                    "duration": 0.23699885416667144
                },
                {
                    "name": "F#3",
                    "midi": 54,
                    "time": 151.95012250000002,
                    "velocity": 0.29133858267716534,
                    "duration": 0.20314187500000003
                },
                {
                    "name": "B3",
                    "midi": 59,
                    "time": 152.15326437500002,
                    "velocity": 0.1889763779527559,
                    "duration": 0.20314187500000003
                },
                {
                    "name": "F#4",
                    "midi": 66,
                    "time": 152.35640625000002,
                    "velocity": 0.18110236220472442,
                    "duration": 0.20314187500000003
                },
                {
                    "name": "E2",
                    "midi": 40,
                    "time": 152.76269000000002,
                    "velocity": 0.23622047244094488,
                    "duration": 0.40628375000000005
                },
                {
                    "name": "D#2",
                    "midi": 39,
                    "time": 153.57525750000002,
                    "velocity": 0.2755905511811024,
                    "duration": 0.40628375000000005
                },
                {
                    "name": "F3",
                    "midi": 53,
                    "time": 154.18468312500002,
                    "velocity": 0.25984251968503935,
                    "duration": 0.23699885416667144
                },
                {
                    "name": "F#3",
                    "midi": 54,
                    "time": 154.38782500000002,
                    "velocity": 0.29133858267716534,
                    "duration": 0.20314187500000003
                },
                {
                    "name": "B3",
                    "midi": 59,
                    "time": 154.59096687500002,
                    "velocity": 0.1889763779527559,
                    "duration": 0.20314187500000003
                },
                {
                    "name": "F#4",
                    "midi": 66,
                    "time": 154.79410875000002,
                    "velocity": 0.18110236220472442,
                    "duration": 0.20314187500000003
                },
                {
                    "name": "F#2",
                    "midi": 42,
                    "time": 155.20039250000002,
                    "velocity": 0.25984251968503935,
                    "duration": 0.40628375000000005
                },
                {
                    "name": "F2",
                    "midi": 41,
                    "time": 156.01296000000002,
                    "velocity": 0.33070866141732286,
                    "duration": 0.40628375000000005
                },
                {
                    "name": "G3",
                    "midi": 55,
                    "time": 156.62238562500002,
                    "velocity": 0.2992125984251969,
                    "duration": 0.23699885416667144
                },
                {
                    "name": "G#3",
                    "midi": 56,
                    "time": 156.82552750000002,
                    "velocity": 0.3779527559055118,
                    "duration": 0.20314187500000003
                },
                {
                    "name": "C#4",
                    "midi": 61,
                    "time": 157.02866937500002,
                    "velocity": 0.2047244094488189,
                    "duration": 0.20314187500000003
                },
                {
                    "name": "G#4",
                    "midi": 68,
                    "time": 157.23181125000002,
                    "velocity": 0.1968503937007874,
                    "duration": 0.20314187500000003
                },
                {
                    "name": "E2",
                    "midi": 40,
                    "time": 157.63809500000002,
                    "velocity": 0.3228346456692913,
                    "duration": 0.40628375000000005
                },
                {
                    "name": "D#2",
                    "midi": 39,
                    "time": 158.45066250000002,
                    "velocity": 0.3543307086614173,
                    "duration": 0.40628375000000005
                },
                {
                    "name": "A3",
                    "midi": 57,
                    "time": 159.06008812500002,
                    "velocity": 0.2992125984251969,
                    "duration": 0.23699885416667144
                },
                {
                    "name": "A#3",
                    "midi": 58,
                    "time": 159.26323000000002,
                    "velocity": 0.3543307086614173,
                    "duration": 0.20314187500000003
                },
                {
                    "name": "C#4",
                    "midi": 61,
                    "time": 159.46637187500002,
                    "velocity": 0.2204724409448819,
                    "duration": 0.20314187500000003
                },
                {
                    "name": "A#4",
                    "midi": 70,
                    "time": 159.66951375000002,
                    "velocity": 0.2125984251968504,
                    "duration": 0.20314187500000003
                },
                {
                    "name": "D2",
                    "midi": 38,
                    "time": 160.07579750000002,
                    "velocity": 0.3543307086614173,
                    "duration": 0.40628375000000005
                },
                {
                    "name": "C#2",
                    "midi": 37,
                    "time": 160.88836500000002,
                    "velocity": 0.3779527559055118,
                    "duration": 0.40628375000000005
                },
                {
                    "name": "G3",
                    "midi": 55,
                    "time": 161.49779062500002,
                    "velocity": 0.33070866141732286,
                    "duration": 0.23699885416667144
                },
                {
                    "name": "G#3",
                    "midi": 56,
                    "time": 161.70093250000002,
                    "velocity": 0.3779527559055118,
                    "duration": 0.20314187500000003
                },
                {
                    "name": "B3",
                    "midi": 59,
                    "time": 161.90407437500002,
                    "velocity": 0.23622047244094488,
                    "duration": 0.20314187500000003
                },
                {
                    "name": "G#4",
                    "midi": 68,
                    "time": 162.10721625000002,
                    "velocity": 0.2283464566929134,
                    "duration": 0.20314187500000003
                },
                {
                    "name": "C2",
                    "midi": 36,
                    "time": 162.51350000000002,
                    "velocity": 0.3700787401574803,
                    "duration": 0.40628375000000005
                },
                {
                    "name": "B1",
                    "midi": 35,
                    "time": 163.32606750000002,
                    "velocity": 0.4015748031496063,
                    "duration": 0.40628375000000005
                },
                {
                    "name": "B3",
                    "midi": 59,
                    "time": 163.93549312500002,
                    "velocity": 0.33070866141732286,
                    "duration": 0.20314187500000003
                },
                {
                    "name": "B2",
                    "midi": 47,
                    "time": 164.74806062500002,
                    "velocity": 0.33070866141732286,
                    "duration": 0.20314187500000003
                },
                {
                    "name": "B1",
                    "midi": 35,
                    "time": 165.56062812500002,
                    "velocity": 0.33070866141732286,
                    "duration": 0.20314187500000003
                },
                {
                    "name": "B2",
                    "midi": 47,
                    "time": 166.37319562500002,
                    "velocity": 0.30708661417322836,
                    "duration": 0.20314187500000003
                },
                {
                    "name": "B1",
                    "midi": 35,
                    "time": 167.18576312500002,
                    "velocity": 0.30708661417322836,
                    "duration": 0.20314187500000003
                },
                {
                    "name": "B2",
                    "midi": 47,
                    "time": 167.99833062500002,
                    "velocity": 0.30708661417322836,
                    "duration": 0.20314187500000003
                },
                {
                    "name": "C2",
                    "midi": 36,
                    "time": 168.20147250000002,
                    "velocity": 0.33070866141732286,
                    "duration": 0.40628375000000005
                },
                {
                    "name": "F2",
                    "midi": 41,
                    "time": 168.20147250000002,
                    "velocity": 0.33070866141732286,
                    "duration": 0.40628375000000005
                },
                {
                    "name": "C3",
                    "midi": 48,
                    "time": 168.20147250000002,
                    "velocity": 0.4015748031496063,
                    "duration": 0.40628375000000005
                },
                {
                    "name": "F4",
                    "midi": 65,
                    "time": 168.81089812500002,
                    "velocity": 0.33070866141732286,
                    "duration": 0.20314187500000003
                },
                {
                    "name": "C4",
                    "midi": 60,
                    "time": 168.81089812500002,
                    "velocity": 0.28346456692913385,
                    "duration": 0.20314187500000003
                },
                {
                    "name": "C4",
                    "midi": 60,
                    "time": 169.62346562500002,
                    "velocity": 0.33070866141732286,
                    "duration": 0.20314187500000003
                },
                {
                    "name": "F3",
                    "midi": 53,
                    "time": 169.62346562500002,
                    "velocity": 0.28346456692913385,
                    "duration": 0.20314187500000003
                },
                {
                    "name": "C3",
                    "midi": 48,
                    "time": 170.43603312500002,
                    "velocity": 0.28346456692913385,
                    "duration": 0.20314187500000003
                },
                {
                    "name": "F3",
                    "midi": 53,
                    "time": 170.43603312500002,
                    "velocity": 0.33070866141732286,
                    "duration": 0.20314187500000003
                },
                {
                    "name": "F2",
                    "midi": 41,
                    "time": 171.24860062500002,
                    "velocity": 0.23622047244094488,
                    "duration": 0.20314187500000003
                },
                {
                    "name": "C3",
                    "midi": 48,
                    "time": 171.24860062500002,
                    "velocity": 0.28346456692913385,
                    "duration": 0.20314187500000003
                },
                {
                    "name": "F1",
                    "midi": 29,
                    "time": 172.06116812500002,
                    "velocity": 0.2755905511811024,
                    "duration": 0.20314187500000003
                },
                {
                    "name": "F2",
                    "midi": 41,
                    "time": 172.87373562500002,
                    "velocity": 0.2204724409448819,
                    "duration": 0.20314187500000003
                },
                {
                    "name": "C3",
                    "midi": 48,
                    "time": 172.87373562500002,
                    "velocity": 0.25984251968503935,
                    "duration": 0.20314187500000003
                },
                {
                    "name": "F1",
                    "midi": 29,
                    "time": 173.68630312500002,
                    "velocity": 0.23622047244094488,
                    "duration": 0.20314187500000003
                },
                {
                    "name": "F2",
                    "midi": 41,
                    "time": 174.49887062500002,
                    "velocity": 0.18110236220472442,
                    "duration": 0.20314187500000003
                },
                {
                    "name": "C3",
                    "midi": 48,
                    "time": 174.49887062500002,
                    "velocity": 0.2125984251968504,
                    "duration": 0.20314187500000003
                },
                {
                    "name": "F1",
                    "midi": 29,
                    "time": 175.51458000000002,
                    "velocity": 0.1968503937007874,
                    "duration": 1.2188512500000002
                },
                {
                    "name": "F2",
                    "midi": 41,
                    "time": 176.73343125000002,
                    "velocity": 0.1889763779527559,
                    "duration": 0.8125675000000001
                },
                {
                    "name": "D#3",
                    "midi": 51,
                    "time": 177.13971500000002,
                    "velocity": 0.15748031496062992,
                    "duration": 0.40628375000000005
                },
                {
                    "name": "D#3",
                    "midi": 51,
                    "time": 177.54599875000002,
                    "velocity": 0.15748031496062992,
                    "duration": 0.40628375000000005
                },
                {
                    "name": "F2",
                    "midi": 41,
                    "time": 177.54599875000002,
                    "velocity": 0.13385826771653545,
                    "duration": 0.8125675000000001
                },
                {
                    "name": "D3",
                    "midi": 50,
                    "time": 177.95228250000002,
                    "velocity": 0.1732283464566929,
                    "duration": 3.6565537500000005
                },
                {
                    "name": "E2",
                    "midi": 40,
                    "time": 178.35856625000002,
                    "velocity": 0.1732283464566929,
                    "duration": 0.40628375000000005
                },
                {
                    "name": "F2",
                    "midi": 41,
                    "time": 178.76485000000002,
                    "velocity": 0.16535433070866143,
                    "duration": 2.8439862500000004
                },
                {
                    "name": "F2",
                    "midi": 41,
                    "time": 181.60883625000002,
                    "velocity": 0.1889763779527559,
                    "duration": 0.8125675000000001
                },
                {
                    "name": "F#3",
                    "midi": 54,
                    "time": 182.01512000000002,
                    "velocity": 0.15748031496062992,
                    "duration": 0.40628375000000005
                },
                {
                    "name": "F#3",
                    "midi": 54,
                    "time": 182.42140375000002,
                    "velocity": 0.15748031496062992,
                    "duration": 0.40628375000000005
                },
                {
                    "name": "F2",
                    "midi": 41,
                    "time": 182.42140375000002,
                    "velocity": 0.13385826771653545,
                    "duration": 0.8125675000000001
                },
                {
                    "name": "F3",
                    "midi": 53,
                    "time": 182.82768750000002,
                    "velocity": 0.1732283464566929,
                    "duration": 3.6565537500000005
                },
                {
                    "name": "E2",
                    "midi": 40,
                    "time": 183.23397125000002,
                    "velocity": 0.1732283464566929,
                    "duration": 0.40628375000000005
                },
                {
                    "name": "F2",
                    "midi": 41,
                    "time": 183.64025500000002,
                    "velocity": 0.16535433070866143,
                    "duration": 2.8439862500000004
                },
                {
                    "name": "F2",
                    "midi": 41,
                    "time": 186.48424125000003,
                    "velocity": 0.28346456692913385,
                    "duration": 0.8125675000000001
                },
                {
                    "name": "D#3",
                    "midi": 51,
                    "time": 186.89052500000003,
                    "velocity": 0.1968503937007874,
                    "duration": 0.8125675000000001
                },
                {
                    "name": "A3",
                    "midi": 57,
                    "time": 186.89052500000003,
                    "velocity": 0.23622047244094488,
                    "duration": 0.8125675000000001
                },
                {
                    "name": "F2",
                    "midi": 41,
                    "time": 187.29680875000003,
                    "velocity": 0.2047244094488189,
                    "duration": 0.8125675000000001
                },
                {
                    "name": "D3",
                    "midi": 50,
                    "time": 187.70309250000003,
                    "velocity": 0.1968503937007874,
                    "duration": 1.6251350000000002
                },
                {
                    "name": "F3",
                    "midi": 53,
                    "time": 187.70309250000003,
                    "velocity": 0.25196850393700787,
                    "duration": 1.6251350000000002
                },
                {
                    "name": "E2",
                    "midi": 40,
                    "time": 188.10937625000003,
                    "velocity": 0.4566929133858268,
                    "duration": 0.40628375000000005
                },
                {
                    "name": "F2",
                    "midi": 41,
                    "time": 188.51566000000003,
                    "velocity": 0.4015748031496063,
                    "duration": 2.0314187500000003
                },
                {
                    "name": "C#3",
                    "midi": 49,
                    "time": 189.32822750000003,
                    "velocity": 0.1968503937007874,
                    "duration": 0.8125675000000001
                },
                {
                    "name": "F3",
                    "midi": 53,
                    "time": 189.32822750000003,
                    "velocity": 0.23622047244094488,
                    "duration": 0.8125675000000001
                },
                {
                    "name": "C3",
                    "midi": 48,
                    "time": 190.14079500000003,
                    "velocity": 0.1968503937007874,
                    "duration": 1.6251350000000002
                },
                {
                    "name": "G3",
                    "midi": 55,
                    "time": 190.14079500000003,
                    "velocity": 0.25196850393700787,
                    "duration": 1.6251350000000002
                },
                {
                    "name": "E2",
                    "midi": 40,
                    "time": 190.54707875000003,
                    "velocity": 0.4409448818897638,
                    "duration": 0.40628375000000005
                },
                {
                    "name": "F2",
                    "midi": 41,
                    "time": 190.95336250000003,
                    "velocity": 0.3858267716535433,
                    "duration": 2.0314187500000003
                },
                {
                    "name": "C3",
                    "midi": 48,
                    "time": 191.76593000000003,
                    "velocity": 0.18110236220472442,
                    "duration": 0.8125675000000001
                },
                {
                    "name": "G3",
                    "midi": 55,
                    "time": 191.76593000000003,
                    "velocity": 0.2204724409448819,
                    "duration": 0.8125675000000001
                },
                {
                    "name": "C#3",
                    "midi": 49,
                    "time": 192.57849750000003,
                    "velocity": 0.18110236220472442,
                    "duration": 1.6251350000000002
                },
                {
                    "name": "F3",
                    "midi": 53,
                    "time": 192.57849750000003,
                    "velocity": 0.2283464566929134,
                    "duration": 1.6251350000000002
                },
                {
                    "name": "E2",
                    "midi": 40,
                    "time": 192.98478125000003,
                    "velocity": 0.3937007874015748,
                    "duration": 0.40628375000000005
                },
                {
                    "name": "F2",
                    "midi": 41,
                    "time": 193.39106500000003,
                    "velocity": 0.3464566929133858,
                    "duration": 2.0314187500000003
                },
                {
                    "name": "B2",
                    "midi": 47,
                    "time": 194.20363250000003,
                    "velocity": 0.1732283464566929,
                    "duration": 0.8125675000000001
                },
                {
                    "name": "F3",
                    "midi": 53,
                    "time": 194.20363250000003,
                    "velocity": 0.2047244094488189,
                    "duration": 0.8125675000000001
                },
                {
                    "name": "A#2",
                    "midi": 46,
                    "time": 195.01620000000003,
                    "velocity": 0.16535433070866143,
                    "duration": 1.6251350000000002
                },
                {
                    "name": "F3",
                    "midi": 53,
                    "time": 195.01620000000003,
                    "velocity": 0.2125984251968504,
                    "duration": 1.6251350000000002
                },
                {
                    "name": "E2",
                    "midi": 40,
                    "time": 195.42248375000003,
                    "velocity": 0.36220472440944884,
                    "duration": 0.40628375000000005
                },
                {
                    "name": "F2",
                    "midi": 41,
                    "time": 195.82876750000003,
                    "velocity": 0.31496062992125984,
                    "duration": 2.0314187500000003
                },
                {
                    "name": "A#2",
                    "midi": 46,
                    "time": 196.64133500000003,
                    "velocity": 0.14960629921259844,
                    "duration": 0.8125675000000001
                },
                {
                    "name": "F3",
                    "midi": 53,
                    "time": 196.64133500000003,
                    "velocity": 0.18110236220472442,
                    "duration": 0.8125675000000001
                },
                {
                    "name": "C3",
                    "midi": 48,
                    "time": 197.45390250000003,
                    "velocity": 0.1889763779527559,
                    "duration": 2.4377025000000003
                },
                {
                    "name": "E2",
                    "midi": 40,
                    "time": 197.86018625000003,
                    "velocity": 0.31496062992125984,
                    "duration": 0.40628375000000005
                },
                {
                    "name": "F2",
                    "midi": 41,
                    "time": 198.26647000000003,
                    "velocity": 0.2677165354330709,
                    "duration": 1.6251350000000002
                },
                {
                    "name": "F1",
                    "midi": 29,
                    "time": 199.89160500000003,
                    "velocity": 0.1968503937007874,
                    "duration": 2.0314187500000003
                },
                {
                    "name": "A#0",
                    "midi": 22,
                    "time": 202.32930750000003,
                    "velocity": 0.1968503937007874,
                    "duration": 0.40628375000000005
                },
                {
                    "name": "A#1",
                    "midi": 34,
                    "time": 202.73559125000003,
                    "velocity": 0.16535433070866143,
                    "duration": 0.40628375000000005
                },
                {
                    "name": "F2",
                    "midi": 41,
                    "time": 203.14187500000003,
                    "velocity": 0.16535433070866143,
                    "duration": 0.40628375000000005
                },
                {
                    "name": "A#2",
                    "midi": 46,
                    "time": 203.54815875000003,
                    "velocity": 0.16535433070866143,
                    "duration": 0.40628375000000005
                },
                {
                    "name": "C#3",
                    "midi": 49,
                    "time": 203.95444250000003,
                    "velocity": 0.16535433070866143,
                    "duration": 0.40628375000000005
                },
                {
                    "name": "F3",
                    "midi": 53,
                    "time": 204.36072625000003,
                    "velocity": 0.16535433070866143,
                    "duration": 0.40628375000000005
                },
                {
                    "name": "A#2",
                    "midi": 46,
                    "time": 204.76701000000003,
                    "velocity": 0.1732283464566929,
                    "duration": 1.6251350000000002
                },
                {
                    "name": "A#3",
                    "midi": 58,
                    "time": 204.76701000000003,
                    "velocity": 0.2047244094488189,
                    "duration": 0.40628375000000005
                },
                {
                    "name": "A#1",
                    "midi": 34,
                    "time": 206.39214500000003,
                    "velocity": 0.14960629921259844,
                    "duration": 0.8125675000000001
                },
                {
                    "name": "C#3",
                    "midi": 49,
                    "time": 207.20471250000003,
                    "velocity": 0.14960629921259844,
                    "duration": 2.4377025000000003
                },
                {
                    "name": "F2",
                    "midi": 41,
                    "time": 207.20471250000003,
                    "velocity": 0.12598425196850394,
                    "duration": 2.4377025000000003
                },
                {
                    "name": "A#1",
                    "midi": 34,
                    "time": 207.20471250000003,
                    "velocity": 0.12598425196850394,
                    "duration": 2.4377025000000003
                }
            ],
            "controlChanges": {},
            "id": 2,
            "name": "Piano left",
            "instrumentNumber": 0,
            "instrument": "acoustic grand piano",
            "instrumentFamily": "piano",
            "channelNumber": 0,
            "isPercussion": false
        },
        {
            "startTime": 0,
            "duration": 0,
            "length": 0,
            "notes": [],
            "controlChanges": {
                "64": [
                    {
                        "number": 64,
                        "time": 1.75717721875,
                        "value": 1
                    },
                    {
                        "number": 64,
                        "time": 2.44785959375,
                        "value": 0
                    },
                    {
                        "number": 64,
                        "time": 2.5562019270833334,
                        "value": 1
                    },
                    {
                        "number": 64,
                        "time": 3.0877565000000002,
                        "value": 0
                    },
                    {
                        "number": 64,
                        "time": 3.3484552395833336,
                        "value": 1
                    },
                    {
                        "number": 64,
                        "time": 3.9274095833333336,
                        "value": 0
                    },
                    {
                        "number": 64,
                        "time": 4.19487971875,
                        "value": 1
                    },
                    {
                        "number": 64,
                        "time": 4.88556209375,
                        "value": 0
                    },
                    {
                        "number": 64,
                        "time": 4.993904427083334,
                        "value": 1
                    },
                    {
                        "number": 64,
                        "time": 5.525459000000001,
                        "value": 0
                    },
                    {
                        "number": 64,
                        "time": 5.833557510416667,
                        "value": 1
                    },
                    {
                        "number": 64,
                        "time": 6.365112083333334,
                        "value": 0
                    },
                    {
                        "number": 64,
                        "time": 6.490382906250001,
                        "value": 1
                    },
                    {
                        "number": 64,
                        "time": 7.32326459375,
                        "value": 0
                    },
                    {
                        "number": 64,
                        "time": 7.431606927083334,
                        "value": 1
                    },
                    {
                        "number": 64,
                        "time": 7.963161500000001,
                        "value": 0
                    },
                    {
                        "number": 64,
                        "time": 8.271260010416668,
                        "value": 1
                    },
                    {
                        "number": 64,
                        "time": 8.802814583333335,
                        "value": 0
                    },
                    {
                        "number": 64,
                        "time": 9.070284718750003,
                        "value": 1
                    },
                    {
                        "number": 64,
                        "time": 9.760967093750002,
                        "value": 0
                    },
                    {
                        "number": 64,
                        "time": 9.869309427083335,
                        "value": 1
                    },
                    {
                        "number": 64,
                        "time": 10.400864000000002,
                        "value": 0
                    },
                    {
                        "number": 64,
                        "time": 10.708962510416669,
                        "value": 1
                    },
                    {
                        "number": 64,
                        "time": 11.240517083333335,
                        "value": 0
                    },
                    {
                        "number": 64,
                        "time": 11.375945000000002,
                        "value": 1
                    },
                    {
                        "number": 64,
                        "time": 12.198669593750001,
                        "value": 0
                    },
                    {
                        "number": 64,
                        "time": 12.307011927083334,
                        "value": 1
                    },
                    {
                        "number": 64,
                        "time": 13.011237093750001,
                        "value": 0
                    },
                    {
                        "number": 64,
                        "time": 13.119579427083334,
                        "value": 1
                    },
                    {
                        "number": 64,
                        "time": 13.651134,
                        "value": 0
                    },
                    {
                        "number": 64,
                        "time": 13.959232510416667,
                        "value": 1
                    },
                    {
                        "number": 64,
                        "time": 14.490787083333334,
                        "value": 0
                    },
                    {
                        "number": 64,
                        "time": 14.75825721875,
                        "value": 1
                    },
                    {
                        "number": 64,
                        "time": 15.44893959375,
                        "value": 0
                    },
                    {
                        "number": 64,
                        "time": 15.557281927083332,
                        "value": 1
                    },
                    {
                        "number": 64,
                        "time": 16.0888365,
                        "value": 0
                    },
                    {
                        "number": 64,
                        "time": 16.396935010416666,
                        "value": 1
                    },
                    {
                        "number": 64,
                        "time": 16.92848958333333,
                        "value": 0
                    },
                    {
                        "number": 64,
                        "time": 17.162102739583332,
                        "value": 1
                    },
                    {
                        "number": 64,
                        "time": 17.940813260416665,
                        "value": 0
                    },
                    {
                        "number": 64,
                        "time": 18.062698385416663,
                        "value": 1
                    },
                    {
                        "number": 64,
                        "time": 18.74660936458333,
                        "value": 0
                    },
                    {
                        "number": 64,
                        "time": 18.892194374999995,
                        "value": 1
                    },
                    {
                        "number": 64,
                        "time": 19.501619999999996,
                        "value": 0
                    },
                    {
                        "number": 64,
                        "time": 19.620119427083328,
                        "value": 1
                    },
                    {
                        "number": 64,
                        "time": 21.939322499999996,
                        "value": 0
                    },
                    {
                        "number": 64,
                        "time": 22.057821927083328,
                        "value": 1
                    },
                    {
                        "number": 64,
                        "time": 23.415486791666662,
                        "value": 0
                    },
                    {
                        "number": 64,
                        "time": 23.696499718749997,
                        "value": 1
                    },
                    {
                        "number": 64,
                        "time": 24.38718209375,
                        "value": 0
                    },
                    {
                        "number": 64,
                        "time": 24.495524427083332,
                        "value": 1
                    },
                    {
                        "number": 64,
                        "time": 25.027078999999997,
                        "value": 0
                    },
                    {
                        "number": 64,
                        "time": 25.335177510416663,
                        "value": 1
                    },
                    {
                        "number": 64,
                        "time": 25.86673208333333,
                        "value": 0
                    },
                    {
                        "number": 64,
                        "time": 26.134202218749994,
                        "value": 1
                    },
                    {
                        "number": 64,
                        "time": 26.824884593749996,
                        "value": 0
                    },
                    {
                        "number": 64,
                        "time": 26.93322692708333,
                        "value": 1
                    },
                    {
                        "number": 64,
                        "time": 27.464781499999994,
                        "value": 0
                    },
                    {
                        "number": 64,
                        "time": 27.77288001041666,
                        "value": 1
                    },
                    {
                        "number": 64,
                        "time": 28.304434583333325,
                        "value": 0
                    },
                    {
                        "number": 64,
                        "time": 28.57190471874999,
                        "value": 1
                    },
                    {
                        "number": 64,
                        "time": 29.262587093749993,
                        "value": 0
                    },
                    {
                        "number": 64,
                        "time": 29.370929427083325,
                        "value": 1
                    },
                    {
                        "number": 64,
                        "time": 29.90248399999999,
                        "value": 0
                    },
                    {
                        "number": 64,
                        "time": 30.210582510416657,
                        "value": 1
                    },
                    {
                        "number": 64,
                        "time": 30.742137083333322,
                        "value": 0
                    },
                    {
                        "number": 64,
                        "time": 31.009607218749988,
                        "value": 1
                    },
                    {
                        "number": 64,
                        "time": 31.70028959374999,
                        "value": 0
                    },
                    {
                        "number": 64,
                        "time": 31.808631927083322,
                        "value": 1
                    },
                    {
                        "number": 64,
                        "time": 32.34018649999999,
                        "value": 0
                    },
                    {
                        "number": 64,
                        "time": 32.64828501041666,
                        "value": 1
                    },
                    {
                        "number": 64,
                        "time": 33.179839583333326,
                        "value": 0
                    },
                    {
                        "number": 64,
                        "time": 33.31526749999999,
                        "value": 1
                    },
                    {
                        "number": 64,
                        "time": 34.13799209374999,
                        "value": 0
                    },
                    {
                        "number": 64,
                        "time": 34.246334427083326,
                        "value": 1
                    },
                    {
                        "number": 64,
                        "time": 34.95055959374999,
                        "value": 0
                    },
                    {
                        "number": 64,
                        "time": 35.058901927083326,
                        "value": 1
                    },
                    {
                        "number": 64,
                        "time": 35.590456499999995,
                        "value": 0
                    },
                    {
                        "number": 64,
                        "time": 35.898555010416665,
                        "value": 1
                    },
                    {
                        "number": 64,
                        "time": 36.43010958333333,
                        "value": 0
                    },
                    {
                        "number": 64,
                        "time": 36.69757971875,
                        "value": 1
                    },
                    {
                        "number": 64,
                        "time": 37.38826209375,
                        "value": 0
                    },
                    {
                        "number": 64,
                        "time": 37.496604427083334,
                        "value": 1
                    },
                    {
                        "number": 64,
                        "time": 38.028159,
                        "value": 0
                    },
                    {
                        "number": 64,
                        "time": 38.33625751041667,
                        "value": 1
                    },
                    {
                        "number": 64,
                        "time": 38.86781208333334,
                        "value": 0
                    },
                    {
                        "number": 64,
                        "time": 39.10142523958334,
                        "value": 1
                    },
                    {
                        "number": 64,
                        "time": 39.88013576041668,
                        "value": 0
                    },
                    {
                        "number": 64,
                        "time": 40.00202088541668,
                        "value": 1
                    },
                    {
                        "number": 64,
                        "time": 40.685931864583345,
                        "value": 0
                    },
                    {
                        "number": 64,
                        "time": 40.83151687500001,
                        "value": 1
                    },
                    {
                        "number": 64,
                        "time": 41.44094250000001,
                        "value": 0
                    },
                    {
                        "number": 64,
                        "time": 41.55944192708335,
                        "value": 1
                    },
                    {
                        "number": 64,
                        "time": 43.123634364583346,
                        "value": 0
                    },
                    {
                        "number": 64,
                        "time": 43.25906228125001,
                        "value": 1
                    },
                    {
                        "number": 64,
                        "time": 43.88880209375001,
                        "value": 0
                    },
                    {
                        "number": 64,
                        "time": 43.99714442708334,
                        "value": 1
                    },
                    {
                        "number": 64,
                        "time": 44.70136959375001,
                        "value": 0
                    },
                    {
                        "number": 64,
                        "time": 44.80971192708334,
                        "value": 1
                    },
                    {
                        "number": 64,
                        "time": 45.34126650000001,
                        "value": 0
                    },
                    {
                        "number": 64,
                        "time": 45.64936501041668,
                        "value": 1
                    },
                    {
                        "number": 64,
                        "time": 46.18091958333335,
                        "value": 0
                    },
                    {
                        "number": 64,
                        "time": 46.448389718750015,
                        "value": 1
                    },
                    {
                        "number": 64,
                        "time": 47.139072093750016,
                        "value": 0
                    },
                    {
                        "number": 64,
                        "time": 47.24741442708335,
                        "value": 1
                    },
                    {
                        "number": 64,
                        "time": 47.77896900000002,
                        "value": 0
                    },
                    {
                        "number": 64,
                        "time": 48.08706751041669,
                        "value": 1
                    },
                    {
                        "number": 64,
                        "time": 48.618622083333356,
                        "value": 0
                    },
                    {
                        "number": 64,
                        "time": 48.85223523958336,
                        "value": 1
                    },
                    {
                        "number": 64,
                        "time": 49.630945760416694,
                        "value": 0
                    },
                    {
                        "number": 64,
                        "time": 49.75283088541669,
                        "value": 1
                    },
                    {
                        "number": 64,
                        "time": 50.43674186458336,
                        "value": 0
                    },
                    {
                        "number": 64,
                        "time": 50.58232687500003,
                        "value": 1
                    },
                    {
                        "number": 64,
                        "time": 51.19175250000003,
                        "value": 0
                    },
                    {
                        "number": 64,
                        "time": 51.310251927083364,
                        "value": 1
                    },
                    {
                        "number": 64,
                        "time": 54.84830625000003,
                        "value": 0
                    },
                    {
                        "number": 64,
                        "time": 54.98034846875003,
                        "value": 1
                    },
                    {
                        "number": 64,
                        "time": 55.2884469791667,
                        "value": 0
                    },
                    {
                        "number": 64,
                        "time": 55.41710350000003,
                        "value": 1
                    },
                    {
                        "number": 64,
                        "time": 55.69134503125003,
                        "value": 0
                    },
                    {
                        "number": 64,
                        "time": 55.8166158541667,
                        "value": 1
                    },
                    {
                        "number": 64,
                        "time": 56.138257156250035,
                        "value": 0
                    },
                    {
                        "number": 64,
                        "time": 57.4417508541667,
                        "value": 1
                    },
                    {
                        "number": 64,
                        "time": 57.763392156250035,
                        "value": 0
                    },
                    {
                        "number": 64,
                        "time": 58.2441612604167,
                        "value": 1
                    },
                    {
                        "number": 64,
                        "time": 58.5184027916667,
                        "value": 0
                    },
                    {
                        "number": 64,
                        "time": 60.16723767708337,
                        "value": 1
                    },
                    {
                        "number": 64,
                        "time": 60.54643584375004,
                        "value": 0
                    },
                    {
                        "number": 64,
                        "time": 60.70556364583337,
                        "value": 1
                    },
                    {
                        "number": 64,
                        "time": 60.94256250000004,
                        "value": 0
                    },
                    {
                        "number": 64,
                        "time": 61.93457198958337,
                        "value": 1
                    },
                    {
                        "number": 64,
                        "time": 62.638797156250035,
                        "value": 0
                    },
                    {
                        "number": 64,
                        "time": 62.77083937500004,
                        "value": 1
                    },
                    {
                        "number": 64,
                        "time": 63.03492381250004,
                        "value": 0
                    },
                    {
                        "number": 64,
                        "time": 63.19066591666671,
                        "value": 1
                    },
                    {
                        "number": 64,
                        "time": 63.380265000000044,
                        "value": 0
                    },
                    {
                        "number": 64,
                        "time": 63.62064955208338,
                        "value": 1
                    },
                    {
                        "number": 64,
                        "time": 65.81796750000005,
                        "value": 0
                    },
                    {
                        "number": 64,
                        "time": 73.40193083333338,
                        "value": 1
                    },
                    {
                        "number": 64,
                        "time": 74.00797076041671,
                        "value": 0
                    },
                    {
                        "number": 64,
                        "time": 74.48535416666671,
                        "value": 1
                    },
                    {
                        "number": 64,
                        "time": 74.82392395833338,
                        "value": 0
                    },
                    {
                        "number": 64,
                        "time": 74.89163791666671,
                        "value": 1
                    },
                    {
                        "number": 64,
                        "time": 75.24036480208338,
                        "value": 0
                    },
                    {
                        "number": 64,
                        "time": 75.39610690625004,
                        "value": 1
                    },
                    {
                        "number": 64,
                        "time": 75.5823202916667,
                        "value": 0
                    },
                    {
                        "number": 64,
                        "time": 76.89597108333336,
                        "value": 1
                    },
                    {
                        "number": 64,
                        "time": 77.2480836666667,
                        "value": 0
                    },
                    {
                        "number": 64,
                        "time": 77.4105971666667,
                        "value": 1
                    },
                    {
                        "number": 64,
                        "time": 77.6137390416667,
                        "value": 0
                    },
                    {
                        "number": 64,
                        "time": 77.73223846875004,
                        "value": 1
                    },
                    {
                        "number": 64,
                        "time": 78.00648000000004,
                        "value": 0
                    },
                    {
                        "number": 64,
                        "time": 79.26595962500004,
                        "value": 1
                    },
                    {
                        "number": 64,
                        "time": 79.66885767708337,
                        "value": 0
                    },
                    {
                        "number": 64,
                        "time": 79.7772000104167,
                        "value": 1
                    },
                    {
                        "number": 64,
                        "time": 80.10222701041671,
                        "value": 0
                    },
                    {
                        "number": 64,
                        "time": 80.19364085416672,
                        "value": 1
                    },
                    {
                        "number": 64,
                        "time": 80.44418250000005,
                        "value": 0
                    },
                    {
                        "number": 64,
                        "time": 81.85601853125006,
                        "value": 1
                    },
                    {
                        "number": 64,
                        "time": 82.1370314583334,
                        "value": 0
                    },
                    {
                        "number": 64,
                        "time": 82.25553088541673,
                        "value": 1
                    },
                    {
                        "number": 64,
                        "time": 82.5331581145834,
                        "value": 0
                    },
                    {
                        "number": 64,
                        "time": 82.71937150000007,
                        "value": 1
                    },
                    {
                        "number": 64,
                        "time": 82.88188500000007,
                        "value": 0
                    },
                    {
                        "number": 64,
                        "time": 83.19336920833341,
                        "value": 1
                    },
                    {
                        "number": 64,
                        "time": 84.52733418750007,
                        "value": 0
                    },
                    {
                        "number": 64,
                        "time": 84.76094734375008,
                        "value": 1
                    },
                    {
                        "number": 64,
                        "time": 85.31958750000007,
                        "value": 0
                    },
                    {
                        "number": 64,
                        "time": 92.83583687500007,
                        "value": 1
                    },
                    {
                        "number": 64,
                        "time": 93.48927657291674,
                        "value": 0
                    },
                    {
                        "number": 64,
                        "time": 96.00823582291673,
                        "value": 1
                    },
                    {
                        "number": 64,
                        "time": 96.72600378125007,
                        "value": 0
                    },
                    {
                        "number": 64,
                        "time": 96.80387483333341,
                        "value": 1
                    },
                    {
                        "number": 64,
                        "time": 97.2203156770834,
                        "value": 0
                    },
                    {
                        "number": 64,
                        "time": 97.50810000000007,
                        "value": 1
                    },
                    {
                        "number": 64,
                        "time": 98.16153969791674,
                        "value": 0
                    },
                    {
                        "number": 64,
                        "time": 98.46625251041674,
                        "value": 1
                    },
                    {
                        "number": 64,
                        "time": 98.95379301041673,
                        "value": 0
                    },
                    {
                        "number": 64,
                        "time": 99.26866291666673,
                        "value": 1
                    },
                    {
                        "number": 64,
                        "time": 99.53951875000006,
                        "value": 0
                    },
                    {
                        "number": 64,
                        "time": 99.94580250000006,
                        "value": 1
                    },
                    {
                        "number": 64,
                        "time": 100.59924219791672,
                        "value": 0
                    },
                    {
                        "number": 64,
                        "time": 100.90395501041672,
                        "value": 1
                    },
                    {
                        "number": 64,
                        "time": 101.39149551041672,
                        "value": 0
                    },
                    {
                        "number": 64,
                        "time": 101.70636541666671,
                        "value": 1
                    },
                    {
                        "number": 64,
                        "time": 101.97722125000004,
                        "value": 0
                    },
                    {
                        "number": 64,
                        "time": 102.38350500000004,
                        "value": 1
                    },
                    {
                        "number": 64,
                        "time": 102.8134886354167,
                        "value": 0
                    },
                    {
                        "number": 64,
                        "time": 103.72085567708336,
                        "value": 1
                    },
                    {
                        "number": 64,
                        "time": 104.04926837500003,
                        "value": 0
                    },
                    {
                        "number": 64,
                        "time": 104.85167878125003,
                        "value": 1
                    },
                    {
                        "number": 64,
                        "time": 105.2410340416667,
                        "value": 0
                    },
                    {
                        "number": 64,
                        "time": 105.72180314583336,
                        "value": 1
                    },
                    {
                        "number": 64,
                        "time": 106.05021584375002,
                        "value": 0
                    },
                    {
                        "number": 64,
                        "time": 106.51405645833336,
                        "value": 1
                    },
                    {
                        "number": 64,
                        "time": 106.86955473958335,
                        "value": 0
                    },
                    {
                        "number": 64,
                        "time": 107.30969546875002,
                        "value": 1
                    },
                    {
                        "number": 64,
                        "time": 107.68212223958335,
                        "value": 0
                    },
                    {
                        "number": 64,
                        "time": 108.20690541666669,
                        "value": 1
                    },
                    {
                        "number": 64,
                        "time": 108.51838962500003,
                        "value": 0
                    },
                    {
                        "number": 64,
                        "time": 108.99238733333335,
                        "value": 1
                    },
                    {
                        "number": 64,
                        "time": 109.34111421875002,
                        "value": 0
                    },
                    {
                        "number": 64,
                        "time": 109.72708378125002,
                        "value": 1
                    },
                    {
                        "number": 64,
                        "time": 110.11643904166668,
                        "value": 0
                    },
                    {
                        "number": 64,
                        "time": 110.59720814583335,
                        "value": 1
                    },
                    {
                        "number": 64,
                        "time": 110.92562084375001,
                        "value": 0
                    },
                    {
                        "number": 64,
                        "time": 111.38946145833334,
                        "value": 1
                    },
                    {
                        "number": 64,
                        "time": 111.74495973958334,
                        "value": 0
                    },
                    {
                        "number": 64,
                        "time": 112.18510046875001,
                        "value": 1
                    },
                    {
                        "number": 64,
                        "time": 112.55752723958334,
                        "value": 0
                    },
                    {
                        "number": 64,
                        "time": 113.08231041666667,
                        "value": 1
                    },
                    {
                        "number": 64,
                        "time": 113.39379462500001,
                        "value": 0
                    },
                    {
                        "number": 64,
                        "time": 113.86779233333334,
                        "value": 1
                    },
                    {
                        "number": 64,
                        "time": 114.21651921875001,
                        "value": 0
                    },
                    {
                        "number": 64,
                        "time": 114.31131876041667,
                        "value": 1
                    },
                    {
                        "number": 64,
                        "time": 114.60248878125,
                        "value": 0
                    },
                    {
                        "number": 64,
                        "time": 115.13404335416666,
                        "value": 1
                    },
                    {
                        "number": 64,
                        "time": 115.43875616666666,
                        "value": 0
                    },
                    {
                        "number": 64,
                        "time": 116.03125330208333,
                        "value": 1
                    },
                    {
                        "number": 64,
                        "time": 116.24455227083332,
                        "value": 0
                    },
                    {
                        "number": 64,
                        "time": 116.75917835416666,
                        "value": 1
                    },
                    {
                        "number": 64,
                        "time": 117.04357697916666,
                        "value": 0
                    },
                    {
                        "number": 64,
                        "time": 117.58528864583333,
                        "value": 1
                    },
                    {
                        "number": 64,
                        "time": 117.87984436458333,
                        "value": 0
                    },
                    {
                        "number": 64,
                        "time": 118.76689721875,
                        "value": 1
                    },
                    {
                        "number": 64,
                        "time": 119.4474225,
                        "value": 0
                    },
                    {
                        "number": 64,
                        "time": 119.55576483333334,
                        "value": 1
                    },
                    {
                        "number": 64,
                        "time": 120.28707558333335,
                        "value": 0
                    },
                    {
                        "number": 64,
                        "time": 120.40557501041668,
                        "value": 1
                    },
                    {
                        "number": 64,
                        "time": 121.11657157291668,
                        "value": 0
                    },
                    {
                        "number": 64,
                        "time": 121.21814251041668,
                        "value": 1
                    },
                    {
                        "number": 64,
                        "time": 121.88512500000002,
                        "value": 0
                    },
                    {
                        "number": 64,
                        "time": 122.01039582291668,
                        "value": 1
                    },
                    {
                        "number": 64,
                        "time": 122.74847796875001,
                        "value": 0
                    },
                    {
                        "number": 64,
                        "time": 122.84327751041667,
                        "value": 1
                    },
                    {
                        "number": 64,
                        "time": 123.12767613541666,
                        "value": 0
                    },
                    {
                        "number": 64,
                        "time": 123.24956126041667,
                        "value": 1
                    },
                    {
                        "number": 64,
                        "time": 123.54750267708333,
                        "value": 0
                    },
                    {
                        "number": 64,
                        "time": 123.68631629166666,
                        "value": 1
                    },
                    {
                        "number": 64,
                        "time": 123.94362933333332,
                        "value": 0
                    },
                    {
                        "number": 64,
                        "time": 124.03504317708332,
                        "value": 1
                    },
                    {
                        "number": 64,
                        "time": 124.32282749999999,
                        "value": 0
                    },
                    {
                        "number": 64,
                        "time": 124.46841251041666,
                        "value": 1
                    },
                    {
                        "number": 64,
                        "time": 124.93225312499999,
                        "value": 0
                    },
                    {
                        "number": 64,
                        "time": 125.67710666666666,
                        "value": 1
                    },
                    {
                        "number": 64,
                        "time": 126.77068709375,
                        "value": 0
                    },
                    {
                        "number": 64,
                        "time": 126.87902942708334,
                        "value": 1
                    },
                    {
                        "number": 64,
                        "time": 127.410584,
                        "value": 0
                    },
                    {
                        "number": 64,
                        "time": 127.71868251041667,
                        "value": 1
                    },
                    {
                        "number": 64,
                        "time": 128.25023708333333,
                        "value": 0
                    },
                    {
                        "number": 64,
                        "time": 128.51770721875,
                        "value": 1
                    },
                    {
                        "number": 64,
                        "time": 129.20838959374998,
                        "value": 0
                    },
                    {
                        "number": 64,
                        "time": 129.3167319270833,
                        "value": 1
                    },
                    {
                        "number": 64,
                        "time": 129.84828649999997,
                        "value": 0
                    },
                    {
                        "number": 64,
                        "time": 130.15638501041664,
                        "value": 1
                    },
                    {
                        "number": 64,
                        "time": 130.6879395833333,
                        "value": 0
                    },
                    {
                        "number": 64,
                        "time": 130.95540971874996,
                        "value": 1
                    },
                    {
                        "number": 64,
                        "time": 131.64609209374996,
                        "value": 0
                    },
                    {
                        "number": 64,
                        "time": 131.75443442708328,
                        "value": 1
                    },
                    {
                        "number": 64,
                        "time": 132.28598899999994,
                        "value": 0
                    },
                    {
                        "number": 64,
                        "time": 132.5940875104166,
                        "value": 1
                    },
                    {
                        "number": 64,
                        "time": 133.12564208333328,
                        "value": 0
                    },
                    {
                        "number": 64,
                        "time": 133.39311221874993,
                        "value": 1
                    },
                    {
                        "number": 64,
                        "time": 134.08379459374993,
                        "value": 0
                    },
                    {
                        "number": 64,
                        "time": 134.19213692708325,
                        "value": 1
                    },
                    {
                        "number": 64,
                        "time": 134.72369149999992,
                        "value": 0
                    },
                    {
                        "number": 64,
                        "time": 135.0317900104166,
                        "value": 1
                    },
                    {
                        "number": 64,
                        "time": 135.56334458333325,
                        "value": 0
                    },
                    {
                        "number": 64,
                        "time": 135.6987724999999,
                        "value": 1
                    },
                    {
                        "number": 64,
                        "time": 136.5214970937499,
                        "value": 0
                    },
                    {
                        "number": 64,
                        "time": 136.62983942708323,
                        "value": 1
                    },
                    {
                        "number": 64,
                        "time": 137.3340645937499,
                        "value": 0
                    },
                    {
                        "number": 64,
                        "time": 137.44240692708323,
                        "value": 1
                    },
                    {
                        "number": 64,
                        "time": 137.9739614999999,
                        "value": 0
                    },
                    {
                        "number": 64,
                        "time": 138.28206001041656,
                        "value": 1
                    },
                    {
                        "number": 64,
                        "time": 138.81361458333322,
                        "value": 0
                    },
                    {
                        "number": 64,
                        "time": 139.08108471874988,
                        "value": 1
                    },
                    {
                        "number": 64,
                        "time": 139.77176709374987,
                        "value": 0
                    },
                    {
                        "number": 64,
                        "time": 139.8801094270832,
                        "value": 1
                    },
                    {
                        "number": 64,
                        "time": 140.41166399999986,
                        "value": 0
                    },
                    {
                        "number": 64,
                        "time": 140.71976251041653,
                        "value": 1
                    },
                    {
                        "number": 64,
                        "time": 141.2513170833332,
                        "value": 0
                    },
                    {
                        "number": 64,
                        "time": 141.48493023958318,
                        "value": 1
                    },
                    {
                        "number": 64,
                        "time": 142.2636407604165,
                        "value": 0
                    },
                    {
                        "number": 64,
                        "time": 142.3855258854165,
                        "value": 1
                    },
                    {
                        "number": 64,
                        "time": 143.06943686458317,
                        "value": 0
                    },
                    {
                        "number": 64,
                        "time": 143.21502187499982,
                        "value": 1
                    },
                    {
                        "number": 64,
                        "time": 143.82444749999982,
                        "value": 0
                    },
                    {
                        "number": 64,
                        "time": 143.94294692708314,
                        "value": 1
                    },
                    {
                        "number": 64,
                        "time": 146.26214999999982,
                        "value": 0
                    },
                    {
                        "number": 64,
                        "time": 146.38064942708314,
                        "value": 1
                    },
                    {
                        "number": 64,
                        "time": 147.91437058333315,
                        "value": 0
                    },
                    {
                        "number": 64,
                        "time": 148.01932721874982,
                        "value": 1
                    },
                    {
                        "number": 64,
                        "time": 148.71000959374982,
                        "value": 0
                    },
                    {
                        "number": 64,
                        "time": 148.81835192708314,
                        "value": 1
                    },
                    {
                        "number": 64,
                        "time": 149.3499064999998,
                        "value": 0
                    },
                    {
                        "number": 64,
                        "time": 149.65800501041647,
                        "value": 1
                    },
                    {
                        "number": 64,
                        "time": 150.18955958333314,
                        "value": 0
                    },
                    {
                        "number": 64,
                        "time": 150.4570297187498,
                        "value": 1
                    },
                    {
                        "number": 64,
                        "time": 151.1477120937498,
                        "value": 0
                    },
                    {
                        "number": 64,
                        "time": 151.25605442708311,
                        "value": 1
                    },
                    {
                        "number": 64,
                        "time": 151.78760899999978,
                        "value": 0
                    },
                    {
                        "number": 64,
                        "time": 152.09570751041645,
                        "value": 1
                    },
                    {
                        "number": 64,
                        "time": 152.6272620833331,
                        "value": 0
                    },
                    {
                        "number": 64,
                        "time": 152.89473221874977,
                        "value": 1
                    },
                    {
                        "number": 64,
                        "time": 153.58541459374976,
                        "value": 0
                    },
                    {
                        "number": 64,
                        "time": 153.6937569270831,
                        "value": 1
                    },
                    {
                        "number": 64,
                        "time": 154.22531149999975,
                        "value": 0
                    },
                    {
                        "number": 64,
                        "time": 154.53341001041642,
                        "value": 1
                    },
                    {
                        "number": 64,
                        "time": 155.06496458333308,
                        "value": 0
                    },
                    {
                        "number": 64,
                        "time": 155.33243471874974,
                        "value": 1
                    },
                    {
                        "number": 64,
                        "time": 156.02311709374973,
                        "value": 0
                    },
                    {
                        "number": 64,
                        "time": 156.13145942708306,
                        "value": 1
                    },
                    {
                        "number": 64,
                        "time": 156.66301399999972,
                        "value": 0
                    },
                    {
                        "number": 64,
                        "time": 156.9711125104164,
                        "value": 1
                    },
                    {
                        "number": 64,
                        "time": 157.50266708333305,
                        "value": 0
                    },
                    {
                        "number": 64,
                        "time": 157.6380949999997,
                        "value": 1
                    },
                    {
                        "number": 64,
                        "time": 158.4608195937497,
                        "value": 0
                    },
                    {
                        "number": 64,
                        "time": 158.56916192708303,
                        "value": 1
                    },
                    {
                        "number": 64,
                        "time": 159.1007164999997,
                        "value": 0
                    },
                    {
                        "number": 64,
                        "time": 159.40881501041636,
                        "value": 1
                    },
                    {
                        "number": 64,
                        "time": 159.94036958333302,
                        "value": 0
                    },
                    {
                        "number": 64,
                        "time": 160.07579749999968,
                        "value": 1
                    },
                    {
                        "number": 64,
                        "time": 160.89852209374968,
                        "value": 0
                    },
                    {
                        "number": 64,
                        "time": 161.006864427083,
                        "value": 1
                    },
                    {
                        "number": 64,
                        "time": 161.53841899999966,
                        "value": 0
                    },
                    {
                        "number": 64,
                        "time": 161.84651751041633,
                        "value": 1
                    },
                    {
                        "number": 64,
                        "time": 162.378072083333,
                        "value": 0
                    },
                    {
                        "number": 64,
                        "time": 162.51349999999965,
                        "value": 1
                    },
                    {
                        "number": 64,
                        "time": 163.35653878124964,
                        "value": 0
                    },
                    {
                        "number": 64,
                        "time": 163.4919666979163,
                        "value": 1
                    },
                    {
                        "number": 64,
                        "time": 165.79424128124964,
                        "value": 0
                    },
                    {
                        "number": 64,
                        "time": 165.9296691979163,
                        "value": 1
                    },
                    {
                        "number": 64,
                        "time": 168.23194378124964,
                        "value": 0
                    },
                    {
                        "number": 64,
                        "time": 168.3673716979163,
                        "value": 1
                    },
                    {
                        "number": 64,
                        "time": 170.66964628124964,
                        "value": 0
                    },
                    {
                        "number": 64,
                        "time": 170.8050741979163,
                        "value": 1
                    },
                    {
                        "number": 64,
                        "time": 173.10734878124964,
                        "value": 0
                    },
                    {
                        "number": 64,
                        "time": 173.2427766979163,
                        "value": 1
                    },
                    {
                        "number": 64,
                        "time": 175.51457999999963,
                        "value": 0
                    },
                    {
                        "number": 64,
                        "time": 175.92086374999963,
                        "value": 1
                    },
                    {
                        "number": 64,
                        "time": 176.73343124999963,
                        "value": 0
                    },
                    {
                        "number": 64,
                        "time": 176.9094875416663,
                        "value": 1
                    },
                    {
                        "number": 64,
                        "time": 177.19727186458297,
                        "value": 0
                    },
                    {
                        "number": 64,
                        "time": 177.39364234374963,
                        "value": 1
                    },
                    {
                        "number": 64,
                        "time": 177.59678421874963,
                        "value": 0
                    },
                    {
                        "number": 64,
                        "time": 177.7220550416663,
                        "value": 1
                    },
                    {
                        "number": 64,
                        "time": 177.97936808333296,
                        "value": 0
                    },
                    {
                        "number": 64,
                        "time": 179.21176212499964,
                        "value": 1
                    },
                    {
                        "number": 64,
                        "time": 181.60883624999963,
                        "value": 0
                    },
                    {
                        "number": 64,
                        "time": 181.8458351041663,
                        "value": 1
                    },
                    {
                        "number": 64,
                        "time": 182.0692911666663,
                        "value": 0
                    },
                    {
                        "number": 64,
                        "time": 182.2521188541663,
                        "value": 1
                    },
                    {
                        "number": 64,
                        "time": 182.4654178229163,
                        "value": 0
                    },
                    {
                        "number": 64,
                        "time": 182.61100283333295,
                        "value": 1
                    },
                    {
                        "number": 64,
                        "time": 182.82768749999963,
                        "value": 0
                    },
                    {
                        "number": 64,
                        "time": 184.08716712499964,
                        "value": 1
                    },
                    {
                        "number": 64,
                        "time": 186.48424124999963,
                        "value": 0
                    },
                    {
                        "number": 64,
                        "time": 186.7009259166663,
                        "value": 1
                    },
                    {
                        "number": 64,
                        "time": 186.9243819791663,
                        "value": 0
                    },
                    {
                        "number": 64,
                        "time": 187.22570909374963,
                        "value": 1
                    },
                    {
                        "number": 64,
                        "time": 187.71324959374962,
                        "value": 0
                    },
                    {
                        "number": 64,
                        "time": 189.13524271874962,
                        "value": 1
                    },
                    {
                        "number": 64,
                        "time": 189.37901296874963,
                        "value": 0
                    },
                    {
                        "number": 64,
                        "time": 189.61939752083296,
                        "value": 1
                    },
                    {
                        "number": 64,
                        "time": 190.19835186458297,
                        "value": 0
                    },
                    {
                        "number": 64,
                        "time": 191.68805894791632,
                        "value": 1
                    },
                    {
                        "number": 64,
                        "time": 192.57849749999966,
                        "value": 0
                    },
                    {
                        "number": 64,
                        "time": 194.05127609374966,
                        "value": 1
                    },
                    {
                        "number": 64,
                        "time": 194.24426087499967,
                        "value": 0
                    },
                    {
                        "number": 64,
                        "time": 194.474488333333,
                        "value": 1
                    },
                    {
                        "number": 64,
                        "time": 195.03651418749968,
                        "value": 0
                    },
                    {
                        "number": 64,
                        "time": 196.44835021874968,
                        "value": 1
                    },
                    {
                        "number": 64,
                        "time": 197.45390249999969,
                        "value": 0
                    },
                    {
                        "number": 64,
                        "time": 198.61519688541634,
                        "value": 1
                    },
                    {
                        "number": 64,
                        "time": 199.89160499999969,
                        "value": 0
                    },
                    {
                        "number": 64,
                        "time": 200.274188864583,
                        "value": 1
                    },
                    {
                        "number": 64,
                        "time": 200.761729364583,
                        "value": 0
                    },
                    {
                        "number": 64,
                        "time": 201.015656708333,
                        "value": 1
                    },
                    {
                        "number": 64,
                        "time": 201.564139770833,
                        "value": 0
                    },
                    {
                        "number": 64,
                        "time": 201.7808244374997,
                        "value": 1
                    },
                    {
                        "number": 64,
                        "time": 202.3293074999997,
                        "value": 0
                    },
                    {
                        "number": 64,
                        "time": 202.5222922812497,
                        "value": 1
                    },
                    {
                        "number": 64,
                        "time": 211.40297791666634,
                        "value": 0
                    }
                ]
            },
            "id": 3,
            "name": "Pedale",
            "instrumentNumber": 0,
            "instrument": "acoustic grand piano",
            "instrumentFamily": "piano",
            "channelNumber": 0,
            "isPercussion": false
        },
        {
            "startTime": 0,
            "duration": 0,
            "length": 0,
            "notes": [],
            "controlChanges": {},
            "id": 4,
            "name": "Brahms: Intermezzo  Opus 117 No. 2"
        },
        {
            "startTime": 0,
            "duration": 0,
            "length": 0,
            "notes": [],
            "controlChanges": {},
            "id": 5,
            "name": "Copyright  2010 by Bernd Krueger"
        },
        {
            "startTime": 0,
            "duration": 0,
            "length": 0,
            "notes": [],
            "controlChanges": {},
            "id": 6,
            "name": "http://www.piano-midi.de/"
        },
        {
            "startTime": 0,
            "duration": 0,
            "length": 0,
            "notes": [],
            "controlChanges": {},
            "id": 7,
            "name": "Edition: 2010-10-26"
        },
        {
            "startTime": 0,
            "duration": 0,
            "length": 0,
            "notes": [],
            "controlChanges": {},
            "id": 8,
            "name": "Spur 8"
        },
        {
            "startTime": 0,
            "duration": 0,
            "length": 0,
            "notes": [],
            "controlChanges": {},
            "id": 9,
            "name": "Spur 9"
        },
        {
            "startTime": 0,
            "duration": 0,
            "length": 0,
            "notes": [],
            "controlChanges": {},
            "id": 10,
            "name": "Spur 10"
        },
        {
            "startTime": 0,
            "duration": 0,
            "length": 0,
            "notes": [],
            "controlChanges": {},
            "id": 11,
            "name": "Spur 11"
        },
        {
            "startTime": 0,
            "duration": 0,
            "length": 0,
            "notes": [],
            "controlChanges": {},
            "id": 12,
            "name": "Spur 12"
        },
        {
            "startTime": 0,
            "duration": 0,
            "length": 0,
            "notes": [],
            "controlChanges": {},
            "id": 13,
            "name": "Spur 13"
        },
        {
            "startTime": 0,
            "duration": 0,
            "length": 0,
            "notes": [],
            "controlChanges": {},
            "id": 14,
            "name": "Spur 14"
        },
        {
            "startTime": 0,
            "duration": 0,
            "length": 0,
            "notes": [],
            "controlChanges": {},
            "id": 15,
            "name": "Spur 15"
        },
        {
            "startTime": 0,
            "duration": 0,
            "length": 0,
            "notes": [],
            "controlChanges": {},
            "id": 16,
            "name": "Spur 16"
        }
    ]
}