{
    "header": {
        "PPQ": 480,
        "timeSignature": [
            6,
            8
        ],
        "bpm": 200.4999131167043,
        "name": "Finale - Allegro con fuoco"
    },
    "startTime": 0,
    "duration": 356.40913200001165,
    "tracks": [
        {
            "startTime": 0,
            "duration": 0,
            "length": 0,
            "notes": [],
            "controlChanges": {},
            "id": 0,
            "name": "Finale - Allegro con fuoco"
        },
        {
            "startTime": 1.3092275,
            "duration": 356.40913200000466,
            "length": 3130,
            "notes": [
                {
                    "name": "C5",
                    "midi": 72,
                    "time": 1.3092275,
                    "velocity": 0.5275590551181102,
                    "duration": 0.14962599999999981
                },
                {
                    "name": "E5",
                    "midi": 76,
                    "time": 1.32793075,
                    "velocity": 0.5275590551181102,
                    "duration": 0.13092274999999987
                },
                {
                    "name": "C6",
                    "midi": 84,
                    "time": 1.3466339999999999,
                    "velocity": 0.6299212598425197,
                    "duration": 0.11221949999999992
                },
                {
                    "name": "C4",
                    "midi": 60,
                    "time": 1.6458859999999997,
                    "velocity": 0.3543307086614173,
                    "duration": 0.07481300000000002
                },
                {
                    "name": "E4",
                    "midi": 64,
                    "time": 1.6458859999999997,
                    "velocity": 0.4251968503937008,
                    "duration": 0.07481300000000002
                },
                {
                    "name": "E4",
                    "midi": 64,
                    "time": 1.7955119999999998,
                    "velocity": 0.4645669291338583,
                    "duration": 0.07481300000000002
                },
                {
                    "name": "C4",
                    "midi": 60,
                    "time": 1.7955119999999998,
                    "velocity": 0.3937007874015748,
                    "duration": 0.07481300000000002
                },
                {
                    "name": "D4",
                    "midi": 62,
                    "time": 1.9451379999999998,
                    "velocity": 0.3543307086614173,
                    "duration": 0.07481300000000002
                },
                {
                    "name": "F4",
                    "midi": 65,
                    "time": 1.9451379999999998,
                    "velocity": 0.41732283464566927,
                    "duration": 0.07481300000000002
                },
                {
                    "name": "G4",
                    "midi": 67,
                    "time": 2.0947639999999996,
                    "velocity": 0.41732283464566927,
                    "duration": 0.0748129999999998
                },
                {
                    "name": "E4",
                    "midi": 64,
                    "time": 2.0947639999999996,
                    "velocity": 0.3543307086614173,
                    "duration": 0.0748129999999998
                },
                {
                    "name": "F4",
                    "midi": 65,
                    "time": 2.244389999999999,
                    "velocity": 0.3937007874015748,
                    "duration": 0.0748129999999998
                },
                {
                    "name": "A4",
                    "midi": 69,
                    "time": 2.244389999999999,
                    "velocity": 0.4645669291338583,
                    "duration": 0.0748129999999998
                },
                {
                    "name": "G4",
                    "midi": 67,
                    "time": 2.394015999999999,
                    "velocity": 0.4251968503937008,
                    "duration": 0.0748129999999998
                },
                {
                    "name": "E4",
                    "midi": 64,
                    "time": 2.394015999999999,
                    "velocity": 0.3543307086614173,
                    "duration": 0.0748129999999998
                },
                {
                    "name": "C5",
                    "midi": 72,
                    "time": 2.5062354999999985,
                    "velocity": 0.5275590551181102,
                    "duration": 0.14962600000000048
                },
                {
                    "name": "E5",
                    "midi": 76,
                    "time": 2.5249387499999987,
                    "velocity": 0.5275590551181102,
                    "duration": 0.1309227500000003
                },
                {
                    "name": "C6",
                    "midi": 84,
                    "time": 2.543641999999999,
                    "velocity": 0.6299212598425197,
                    "duration": 0.11221950000000014
                },
                {
                    "name": "E4",
                    "midi": 64,
                    "time": 2.693267999999999,
                    "velocity": 0.4645669291338583,
                    "duration": 0.0748129999999998
                },
                {
                    "name": "C4",
                    "midi": 60,
                    "time": 2.693267999999999,
                    "velocity": 0.3937007874015748,
                    "duration": 0.0748129999999998
                },
                {
                    "name": "D4",
                    "midi": 62,
                    "time": 2.8428939999999985,
                    "velocity": 0.3543307086614173,
                    "duration": 0.0748129999999998
                },
                {
                    "name": "F4",
                    "midi": 65,
                    "time": 2.8428939999999985,
                    "velocity": 0.41732283464566927,
                    "duration": 0.0748129999999998
                },
                {
                    "name": "G4",
                    "midi": 67,
                    "time": 2.992519999999998,
                    "velocity": 0.41732283464566927,
                    "duration": 0.0748129999999998
                },
                {
                    "name": "E4",
                    "midi": 64,
                    "time": 2.992519999999998,
                    "velocity": 0.3543307086614173,
                    "duration": 0.0748129999999998
                },
                {
                    "name": "F4",
                    "midi": 65,
                    "time": 3.1421459999999977,
                    "velocity": 0.3937007874015748,
                    "duration": 0.0748129999999998
                },
                {
                    "name": "A4",
                    "midi": 69,
                    "time": 3.1421459999999977,
                    "velocity": 0.4645669291338583,
                    "duration": 0.0748129999999998
                },
                {
                    "name": "E4",
                    "midi": 64,
                    "time": 3.2917719999999973,
                    "velocity": 0.3543307086614173,
                    "duration": 0.0748129999999998
                },
                {
                    "name": "G4",
                    "midi": 67,
                    "time": 3.2917719999999973,
                    "velocity": 0.4251968503937008,
                    "duration": 0.0748129999999998
                },
                {
                    "name": "A4",
                    "midi": 69,
                    "time": 3.441397999999997,
                    "velocity": 0.41732283464566927,
                    "duration": 0.0748129999999998
                },
                {
                    "name": "F4",
                    "midi": 65,
                    "time": 3.441397999999997,
                    "velocity": 0.3543307086614173,
                    "duration": 0.0748129999999998
                },
                {
                    "name": "B4",
                    "midi": 71,
                    "time": 3.5910239999999964,
                    "velocity": 0.4645669291338583,
                    "duration": 0.0748129999999998
                },
                {
                    "name": "G4",
                    "midi": 67,
                    "time": 3.5910239999999964,
                    "velocity": 0.3937007874015748,
                    "duration": 0.0748129999999998
                },
                {
                    "name": "C5",
                    "midi": 72,
                    "time": 3.740649999999996,
                    "velocity": 0.4251968503937008,
                    "duration": 0.0748129999999998
                },
                {
                    "name": "A4",
                    "midi": 69,
                    "time": 3.740649999999996,
                    "velocity": 0.3543307086614173,
                    "duration": 0.0748129999999998
                },
                {
                    "name": "D5",
                    "midi": 74,
                    "time": 3.8902759999999956,
                    "velocity": 0.41732283464566927,
                    "duration": 0.0748129999999998
                },
                {
                    "name": "B4",
                    "midi": 71,
                    "time": 3.8902759999999956,
                    "velocity": 0.3543307086614173,
                    "duration": 0.0748129999999998
                },
                {
                    "name": "E5",
                    "midi": 76,
                    "time": 4.002495499999996,
                    "velocity": 0.5275590551181102,
                    "duration": 0.1496259999999996
                },
                {
                    "name": "G5",
                    "midi": 79,
                    "time": 4.014964333333329,
                    "velocity": 0.5275590551181102,
                    "duration": 0.13715716666666644
                },
                {
                    "name": "C6",
                    "midi": 84,
                    "time": 4.027433166666662,
                    "velocity": 0.5275590551181102,
                    "duration": 0.12468833333333329
                },
                {
                    "name": "E6",
                    "midi": 88,
                    "time": 4.039901999999995,
                    "velocity": 0.6299212598425197,
                    "duration": 0.11221950000000014
                },
                {
                    "name": "E4",
                    "midi": 64,
                    "time": 4.339153999999995,
                    "velocity": 0.3543307086614173,
                    "duration": 0.0748129999999998
                },
                {
                    "name": "G4",
                    "midi": 67,
                    "time": 4.339153999999995,
                    "velocity": 0.4251968503937008,
                    "duration": 0.0748129999999998
                },
                {
                    "name": "G4",
                    "midi": 67,
                    "time": 4.488779999999995,
                    "velocity": 0.47244094488188976,
                    "duration": 0.0748129999999998
                },
                {
                    "name": "E4",
                    "midi": 64,
                    "time": 4.488779999999995,
                    "velocity": 0.4015748031496063,
                    "duration": 0.0748129999999998
                },
                {
                    "name": "F4",
                    "midi": 65,
                    "time": 4.6384059999999945,
                    "velocity": 0.36220472440944884,
                    "duration": 0.0748129999999998
                },
                {
                    "name": "A4",
                    "midi": 69,
                    "time": 4.6384059999999945,
                    "velocity": 0.4409448818897638,
                    "duration": 0.0748129999999998
                },
                {
                    "name": "B4",
                    "midi": 71,
                    "time": 4.788031999999994,
                    "velocity": 0.44881889763779526,
                    "duration": 0.0748129999999998
                },
                {
                    "name": "G4",
                    "midi": 67,
                    "time": 4.788031999999994,
                    "velocity": 0.3779527559055118,
                    "duration": 0.0748129999999998
                },
                {
                    "name": "C5",
                    "midi": 72,
                    "time": 4.937657999999994,
                    "velocity": 0.5118110236220472,
                    "duration": 0.0748129999999998
                },
                {
                    "name": "A4",
                    "midi": 69,
                    "time": 4.937657999999994,
                    "velocity": 0.4330708661417323,
                    "duration": 0.0748129999999998
                },
                {
                    "name": "B4",
                    "midi": 71,
                    "time": 5.087283999999993,
                    "velocity": 0.48031496062992124,
                    "duration": 0.0748129999999998
                },
                {
                    "name": "G4",
                    "midi": 67,
                    "time": 5.087283999999993,
                    "velocity": 0.4015748031496063,
                    "duration": 0.0748129999999998
                },
                {
                    "name": "E5",
                    "midi": 76,
                    "time": 5.199503499999993,
                    "velocity": 0.6141732283464567,
                    "duration": 0.1496259999999996
                },
                {
                    "name": "G5",
                    "midi": 79,
                    "time": 5.2119723333333265,
                    "velocity": 0.6141732283464567,
                    "duration": 0.13715716666666644
                },
                {
                    "name": "C6",
                    "midi": 84,
                    "time": 5.22444116666666,
                    "velocity": 0.6141732283464567,
                    "duration": 0.12468833333333329
                },
                {
                    "name": "E6",
                    "midi": 88,
                    "time": 5.236909999999993,
                    "velocity": 0.7322834645669292,
                    "duration": 0.11221950000000014
                },
                {
                    "name": "G4",
                    "midi": 67,
                    "time": 5.386535999999993,
                    "velocity": 0.4251968503937008,
                    "duration": 0.0748129999999998
                },
                {
                    "name": "B4",
                    "midi": 71,
                    "time": 5.386535999999993,
                    "velocity": 0.5118110236220472,
                    "duration": 0.0748129999999998
                },
                {
                    "name": "C5",
                    "midi": 72,
                    "time": 5.536161999999993,
                    "velocity": 0.47244094488188976,
                    "duration": 0.0748129999999998
                },
                {
                    "name": "A4",
                    "midi": 69,
                    "time": 5.536161999999993,
                    "velocity": 0.3937007874015748,
                    "duration": 0.0748129999999998
                },
                {
                    "name": "B4",
                    "midi": 71,
                    "time": 5.6857879999999925,
                    "velocity": 0.4015748031496063,
                    "duration": 0.0748129999999998
                },
                {
                    "name": "D5",
                    "midi": 74,
                    "time": 5.6857879999999925,
                    "velocity": 0.4881889763779528,
                    "duration": 0.0748129999999998
                },
                {
                    "name": "E5",
                    "midi": 76,
                    "time": 5.835413999999992,
                    "velocity": 0.5590551181102362,
                    "duration": 0.0748129999999998
                },
                {
                    "name": "C5",
                    "midi": 72,
                    "time": 5.835413999999992,
                    "velocity": 0.4645669291338583,
                    "duration": 0.0748129999999998
                },
                {
                    "name": "B4",
                    "midi": 71,
                    "time": 5.985039999999992,
                    "velocity": 0.4409448818897638,
                    "duration": 0.0748129999999998
                },
                {
                    "name": "D5",
                    "midi": 74,
                    "time": 5.985039999999992,
                    "velocity": 0.5196850393700787,
                    "duration": 0.0748129999999998
                },
                {
                    "name": "C5",
                    "midi": 72,
                    "time": 6.134665999999991,
                    "velocity": 0.4409448818897638,
                    "duration": 0.0748129999999998
                },
                {
                    "name": "E5",
                    "midi": 76,
                    "time": 6.134665999999991,
                    "velocity": 0.5275590551181102,
                    "duration": 0.0748129999999998
                },
                {
                    "name": "F#5",
                    "midi": 78,
                    "time": 6.284291999999991,
                    "velocity": 0.6062992125984252,
                    "duration": 0.0748129999999998
                },
                {
                    "name": "D5",
                    "midi": 74,
                    "time": 6.284291999999991,
                    "velocity": 0.5039370078740157,
                    "duration": 0.0748129999999998
                },
                {
                    "name": "G5",
                    "midi": 79,
                    "time": 6.4339179999999905,
                    "velocity": 0.5669291338582677,
                    "duration": 0.0748129999999998
                },
                {
                    "name": "E5",
                    "midi": 76,
                    "time": 6.4339179999999905,
                    "velocity": 0.47244094488188976,
                    "duration": 0.0748129999999998
                },
                {
                    "name": "F#5",
                    "midi": 78,
                    "time": 6.58354399999999,
                    "velocity": 0.48031496062992124,
                    "duration": 0.0748129999999998
                },
                {
                    "name": "A5",
                    "midi": 81,
                    "time": 6.58354399999999,
                    "velocity": 0.5669291338582677,
                    "duration": 0.0748129999999998
                },
                {
                    "name": "G6",
                    "midi": 91,
                    "time": 6.73316999999999,
                    "velocity": 0.5984251968503937,
                    "duration": 0.5985040000000001
                },
                {
                    "name": "B5",
                    "midi": 83,
                    "time": 6.73316999999999,
                    "velocity": 0.5984251968503937,
                    "duration": 0.5985040000000001
                },
                {
                    "name": "B6",
                    "midi": 95,
                    "time": 6.73316999999999,
                    "velocity": 0.7086614173228346,
                    "duration": 0.5985040000000001
                },
                {
                    "name": "A6",
                    "midi": 93,
                    "time": 7.33167399999999,
                    "velocity": 0.6377952755905512,
                    "duration": 0.0748129999999998
                },
                {
                    "name": "A5",
                    "midi": 81,
                    "time": 7.33167399999999,
                    "velocity": 0.5354330708661418,
                    "duration": 0.0748129999999998
                },
                {
                    "name": "F#6",
                    "midi": 90,
                    "time": 7.33167399999999,
                    "velocity": 0.5354330708661418,
                    "duration": 0.0748129999999998
                },
                {
                    "name": "G5",
                    "midi": 79,
                    "time": 7.481299999999989,
                    "velocity": 0.5354330708661418,
                    "duration": 0.0748129999999998
                },
                {
                    "name": "G6",
                    "midi": 91,
                    "time": 7.481299999999989,
                    "velocity": 0.6377952755905512,
                    "duration": 0.0748129999999998
                },
                {
                    "name": "E6",
                    "midi": 88,
                    "time": 7.481299999999989,
                    "velocity": 0.5354330708661418,
                    "duration": 0.0748129999999998
                },
                {
                    "name": "F#6",
                    "midi": 90,
                    "time": 7.630925999999989,
                    "velocity": 0.5984251968503937,
                    "duration": 0.5985039999999993
                },
                {
                    "name": "A5",
                    "midi": 81,
                    "time": 7.630925999999989,
                    "velocity": 0.5984251968503937,
                    "duration": 0.5985039999999993
                },
                {
                    "name": "A6",
                    "midi": 93,
                    "time": 7.630925999999989,
                    "velocity": 0.7086614173228346,
                    "duration": 0.5985039999999993
                },
                {
                    "name": "E6",
                    "midi": 88,
                    "time": 8.229429999999988,
                    "velocity": 0.5354330708661418,
                    "duration": 0.07481300000000068
                },
                {
                    "name": "G6",
                    "midi": 91,
                    "time": 8.229429999999988,
                    "velocity": 0.6377952755905512,
                    "duration": 0.07481300000000068
                },
                {
                    "name": "G5",
                    "midi": 79,
                    "time": 8.229429999999988,
                    "velocity": 0.5354330708661418,
                    "duration": 0.07481300000000068
                },
                {
                    "name": "F#6",
                    "midi": 90,
                    "time": 8.37905599999999,
                    "velocity": 0.6377952755905512,
                    "duration": 0.07481300000000068
                },
                {
                    "name": "D#6",
                    "midi": 87,
                    "time": 8.37905599999999,
                    "velocity": 0.5354330708661418,
                    "duration": 0.07481300000000068
                },
                {
                    "name": "F#5",
                    "midi": 78,
                    "time": 8.37905599999999,
                    "velocity": 0.5354330708661418,
                    "duration": 0.07481300000000068
                },
                {
                    "name": "E6",
                    "midi": 88,
                    "time": 8.528681999999991,
                    "velocity": 0.5984251968503937,
                    "duration": 0.07481300000000068
                },
                {
                    "name": "G5",
                    "midi": 79,
                    "time": 8.528681999999991,
                    "velocity": 0.5984251968503937,
                    "duration": 0.07481300000000068
                },
                {
                    "name": "G6",
                    "midi": 91,
                    "time": 8.528681999999991,
                    "velocity": 0.7086614173228346,
                    "duration": 0.07481300000000068
                },
                {
                    "name": "F#6",
                    "midi": 90,
                    "time": 8.678307999999992,
                    "velocity": 0.6377952755905512,
                    "duration": 0.07481300000000068
                },
                {
                    "name": "D#6",
                    "midi": 87,
                    "time": 8.678307999999992,
                    "velocity": 0.5354330708661418,
                    "duration": 0.07481300000000068
                },
                {
                    "name": "F#5",
                    "midi": 78,
                    "time": 8.678307999999992,
                    "velocity": 0.5354330708661418,
                    "duration": 0.07481300000000068
                },
                {
                    "name": "C#6",
                    "midi": 85,
                    "time": 8.827933999999994,
                    "velocity": 0.5354330708661418,
                    "duration": 0.07481300000000068
                },
                {
                    "name": "E6",
                    "midi": 88,
                    "time": 8.827933999999994,
                    "velocity": 0.6377952755905512,
                    "duration": 0.07481300000000068
                },
                {
                    "name": "E5",
                    "midi": 76,
                    "time": 8.827933999999994,
                    "velocity": 0.5354330708661418,
                    "duration": 0.07481300000000068
                },
                {
                    "name": "F#5",
                    "midi": 78,
                    "time": 8.977559999999995,
                    "velocity": 0.5984251968503937,
                    "duration": 0.07481300000000068
                },
                {
                    "name": "D#6",
                    "midi": 87,
                    "time": 8.977559999999995,
                    "velocity": 0.5984251968503937,
                    "duration": 0.07481300000000068
                },
                {
                    "name": "F#6",
                    "midi": 90,
                    "time": 8.977559999999995,
                    "velocity": 0.7086614173228346,
                    "duration": 0.07481300000000068
                },
                {
                    "name": "B4",
                    "midi": 71,
                    "time": 9.276811999999996,
                    "velocity": 0.5354330708661418,
                    "duration": 0.07481300000000068
                },
                {
                    "name": "B5",
                    "midi": 83,
                    "time": 9.276811999999996,
                    "velocity": 0.6377952755905512,
                    "duration": 0.07481300000000068
                },
                {
                    "name": "B5",
                    "midi": 83,
                    "time": 9.426437999999997,
                    "velocity": 0.5984251968503937,
                    "duration": 0.5985040000000001
                },
                {
                    "name": "B6",
                    "midi": 95,
                    "time": 9.426437999999997,
                    "velocity": 0.7086614173228346,
                    "duration": 0.5985040000000001
                },
                {
                    "name": "G#6",
                    "midi": 92,
                    "time": 9.426437999999997,
                    "velocity": 0.5984251968503937,
                    "duration": 0.5985040000000001
                },
                {
                    "name": "A5",
                    "midi": 81,
                    "time": 10.024941999999998,
                    "velocity": 0.5354330708661418,
                    "duration": 0.07481300000000068
                },
                {
                    "name": "A6",
                    "midi": 93,
                    "time": 10.024941999999998,
                    "velocity": 0.6377952755905512,
                    "duration": 0.07481300000000068
                },
                {
                    "name": "F#6",
                    "midi": 90,
                    "time": 10.024941999999998,
                    "velocity": 0.5354330708661418,
                    "duration": 0.07481300000000068
                },
                {
                    "name": "G#5",
                    "midi": 80,
                    "time": 10.174567999999999,
                    "velocity": 0.5354330708661418,
                    "duration": 0.07481300000000068
                },
                {
                    "name": "G#6",
                    "midi": 92,
                    "time": 10.174567999999999,
                    "velocity": 0.6377952755905512,
                    "duration": 0.07481300000000068
                },
                {
                    "name": "E6",
                    "midi": 88,
                    "time": 10.174567999999999,
                    "velocity": 0.5354330708661418,
                    "duration": 0.07481300000000068
                },
                {
                    "name": "A5",
                    "midi": 81,
                    "time": 10.324194,
                    "velocity": 0.5984251968503937,
                    "duration": 0.5985040000000001
                },
                {
                    "name": "A6",
                    "midi": 93,
                    "time": 10.324194,
                    "velocity": 0.7086614173228346,
                    "duration": 0.5985040000000001
                },
                {
                    "name": "F#6",
                    "midi": 90,
                    "time": 10.324194,
                    "velocity": 0.5984251968503937,
                    "duration": 0.5985040000000001
                },
                {
                    "name": "E6",
                    "midi": 88,
                    "time": 10.922698,
                    "velocity": 0.5354330708661418,
                    "duration": 0.07481300000000068
                },
                {
                    "name": "G#6",
                    "midi": 92,
                    "time": 10.922698,
                    "velocity": 0.6377952755905512,
                    "duration": 0.07481300000000068
                },
                {
                    "name": "G#5",
                    "midi": 80,
                    "time": 10.922698,
                    "velocity": 0.5354330708661418,
                    "duration": 0.07481300000000068
                },
                {
                    "name": "F#6",
                    "midi": 90,
                    "time": 11.072324000000002,
                    "velocity": 0.6377952755905512,
                    "duration": 0.07481300000000068
                },
                {
                    "name": "F#5",
                    "midi": 78,
                    "time": 11.072324000000002,
                    "velocity": 0.5354330708661418,
                    "duration": 0.07481300000000068
                },
                {
                    "name": "D#6",
                    "midi": 87,
                    "time": 11.072324000000002,
                    "velocity": 0.5354330708661418,
                    "duration": 0.07481300000000068
                },
                {
                    "name": "E6",
                    "midi": 88,
                    "time": 11.221950000000003,
                    "velocity": 0.5984251968503937,
                    "duration": 0.07481300000000068
                },
                {
                    "name": "G#5",
                    "midi": 80,
                    "time": 11.221950000000003,
                    "velocity": 0.5984251968503937,
                    "duration": 0.07481300000000068
                },
                {
                    "name": "G#6",
                    "midi": 92,
                    "time": 11.221950000000003,
                    "velocity": 0.7086614173228346,
                    "duration": 0.07481300000000068
                },
                {
                    "name": "D#6",
                    "midi": 87,
                    "time": 11.371576000000005,
                    "velocity": 0.5354330708661418,
                    "duration": 0.07481300000000068
                },
                {
                    "name": "F#5",
                    "midi": 78,
                    "time": 11.371576000000005,
                    "velocity": 0.5354330708661418,
                    "duration": 0.07481300000000068
                },
                {
                    "name": "F#6",
                    "midi": 90,
                    "time": 11.371576000000005,
                    "velocity": 0.6377952755905512,
                    "duration": 0.07481300000000068
                },
                {
                    "name": "E5",
                    "midi": 76,
                    "time": 11.521202000000006,
                    "velocity": 0.5354330708661418,
                    "duration": 0.07481300000000068
                },
                {
                    "name": "E6",
                    "midi": 88,
                    "time": 11.521202000000006,
                    "velocity": 0.6377952755905512,
                    "duration": 0.07481300000000068
                },
                {
                    "name": "C#6",
                    "midi": 85,
                    "time": 11.521202000000006,
                    "velocity": 0.5354330708661418,
                    "duration": 0.07481300000000068
                },
                {
                    "name": "F#5",
                    "midi": 78,
                    "time": 11.670828000000007,
                    "velocity": 0.5984251968503937,
                    "duration": 0.07481300000000068
                },
                {
                    "name": "F#6",
                    "midi": 90,
                    "time": 11.670828000000007,
                    "velocity": 0.7086614173228346,
                    "duration": 0.07481300000000068
                },
                {
                    "name": "D#6",
                    "midi": 87,
                    "time": 11.670828000000007,
                    "velocity": 0.5984251968503937,
                    "duration": 0.07481300000000068
                },
                {
                    "name": "B4",
                    "midi": 71,
                    "time": 11.970080000000008,
                    "velocity": 0.5354330708661418,
                    "duration": 0.07481300000000068
                },
                {
                    "name": "B5",
                    "midi": 83,
                    "time": 11.970080000000008,
                    "velocity": 0.6377952755905512,
                    "duration": 0.07481300000000068
                },
                {
                    "name": "B5",
                    "midi": 83,
                    "time": 12.11970600000001,
                    "velocity": 0.6456692913385826,
                    "duration": 0.07481300000000068
                },
                {
                    "name": "G#6",
                    "midi": 92,
                    "time": 12.11970600000001,
                    "velocity": 0.7637795275590551,
                    "duration": 0.07481300000000068
                },
                {
                    "name": "B6",
                    "midi": 95,
                    "time": 12.11970600000001,
                    "velocity": 0.7637795275590551,
                    "duration": 0.07481300000000068
                },
                {
                    "name": "E6",
                    "midi": 88,
                    "time": 12.41895800000001,
                    "velocity": 0.6062992125984252,
                    "duration": 0.2992519999999992
                },
                {
                    "name": "G#6",
                    "midi": 92,
                    "time": 12.41895800000001,
                    "velocity": 0.7165354330708661,
                    "duration": 0.2992519999999992
                },
                {
                    "name": "G#5",
                    "midi": 80,
                    "time": 12.41895800000001,
                    "velocity": 0.6062992125984252,
                    "duration": 0.2992519999999992
                },
                {
                    "name": "E6",
                    "midi": 88,
                    "time": 12.71821000000001,
                    "velocity": 0.6062992125984252,
                    "duration": 0.44887800000000055
                },
                {
                    "name": "A6",
                    "midi": 93,
                    "time": 12.71821000000001,
                    "velocity": 0.7165354330708661,
                    "duration": 0.44887800000000055
                },
                {
                    "name": "A5",
                    "midi": 81,
                    "time": 12.71821000000001,
                    "velocity": 0.6062992125984252,
                    "duration": 0.44887800000000055
                },
                {
                    "name": "E6",
                    "midi": 88,
                    "time": 13.16708800000001,
                    "velocity": 0.5905511811023622,
                    "duration": 0.22443900000000028
                },
                {
                    "name": "F#6",
                    "midi": 90,
                    "time": 13.16708800000001,
                    "velocity": 0.7007874015748031,
                    "duration": 0.22443900000000028
                },
                {
                    "name": "F#5",
                    "midi": 78,
                    "time": 13.16708800000001,
                    "velocity": 0.5905511811023622,
                    "duration": 0.22443900000000028
                },
                {
                    "name": "E6",
                    "midi": 88,
                    "time": 13.39152700000001,
                    "velocity": 0.5275590551181102,
                    "duration": 0.06857858333333411
                },
                {
                    "name": "G#5",
                    "midi": 80,
                    "time": 13.39152700000001,
                    "velocity": 0.5275590551181102,
                    "duration": 0.06857858333333411
                },
                {
                    "name": "G#6",
                    "midi": 92,
                    "time": 13.39152700000001,
                    "velocity": 0.6220472440944882,
                    "duration": 0.06857858333333411
                },
                {
                    "name": "G#6",
                    "midi": 92,
                    "time": 13.466340000000011,
                    "velocity": 0.6929133858267716,
                    "duration": 0.07481300000000068
                },
                {
                    "name": "E6",
                    "midi": 88,
                    "time": 13.466340000000011,
                    "velocity": 0.5826771653543307,
                    "duration": 0.07481300000000068
                },
                {
                    "name": "G#5",
                    "midi": 80,
                    "time": 13.466340000000011,
                    "velocity": 0.5826771653543307,
                    "duration": 0.07481300000000068
                },
                {
                    "name": "E5",
                    "midi": 76,
                    "time": 13.765592000000012,
                    "velocity": 0.5433070866141733,
                    "duration": 0.2992519999999992
                },
                {
                    "name": "G#4",
                    "midi": 68,
                    "time": 13.765592000000012,
                    "velocity": 0.5433070866141733,
                    "duration": 0.2992519999999992
                },
                {
                    "name": "G#5",
                    "midi": 80,
                    "time": 13.765592000000012,
                    "velocity": 0.6377952755905512,
                    "duration": 0.2992519999999992
                },
                {
                    "name": "A5",
                    "midi": 81,
                    "time": 14.064844000000011,
                    "velocity": 0.6377952755905512,
                    "duration": 0.44887800000000055
                },
                {
                    "name": "E5",
                    "midi": 76,
                    "time": 14.064844000000011,
                    "velocity": 0.5433070866141733,
                    "duration": 0.44887800000000055
                },
                {
                    "name": "A4",
                    "midi": 69,
                    "time": 14.064844000000011,
                    "velocity": 0.5433070866141733,
                    "duration": 0.44887800000000055
                },
                {
                    "name": "F#4",
                    "midi": 66,
                    "time": 14.513722000000012,
                    "velocity": 0.5275590551181102,
                    "duration": 0.2182045833333337
                },
                {
                    "name": "E5",
                    "midi": 76,
                    "time": 14.513722000000012,
                    "velocity": 0.5275590551181102,
                    "duration": 0.2182045833333337
                },
                {
                    "name": "F#5",
                    "midi": 78,
                    "time": 14.513722000000012,
                    "velocity": 0.6299212598425197,
                    "duration": 0.2182045833333337
                },
                {
                    "name": "E5",
                    "midi": 76,
                    "time": 14.738161000000012,
                    "velocity": 0.47244094488188976,
                    "duration": 0.06857858333333411
                },
                {
                    "name": "G#5",
                    "midi": 80,
                    "time": 14.738161000000012,
                    "velocity": 0.5590551181102362,
                    "duration": 0.06857858333333411
                },
                {
                    "name": "G#4",
                    "midi": 68,
                    "time": 14.738161000000012,
                    "velocity": 0.47244094488188976,
                    "duration": 0.06857858333333411
                },
                {
                    "name": "E5",
                    "midi": 76,
                    "time": 14.812974000000013,
                    "velocity": 0.5196850393700787,
                    "duration": 0.07481300000000068
                },
                {
                    "name": "G#4",
                    "midi": 68,
                    "time": 14.812974000000013,
                    "velocity": 0.5196850393700787,
                    "duration": 0.07481300000000068
                },
                {
                    "name": "G#5",
                    "midi": 80,
                    "time": 14.812974000000013,
                    "velocity": 0.6220472440944882,
                    "duration": 0.07481300000000068
                },
                {
                    "name": "E5",
                    "midi": 76,
                    "time": 15.074819500000014,
                    "velocity": 0.5275590551181102,
                    "duration": 0.1496259999999996
                },
                {
                    "name": "G#5",
                    "midi": 80,
                    "time": 15.093522750000014,
                    "velocity": 0.5275590551181102,
                    "duration": 0.13092274999999987
                },
                {
                    "name": "E6",
                    "midi": 88,
                    "time": 15.112226000000014,
                    "velocity": 0.6299212598425197,
                    "duration": 0.11221950000000014
                },
                {
                    "name": "E3",
                    "midi": 52,
                    "time": 15.261852000000014,
                    "velocity": 0.5196850393700787,
                    "duration": 0.07481300000000068
                },
                {
                    "name": "E4",
                    "midi": 64,
                    "time": 15.261852000000014,
                    "velocity": 0.6220472440944882,
                    "duration": 0.07481300000000068
                },
                {
                    "name": "E5",
                    "midi": 76,
                    "time": 15.972575500000014,
                    "velocity": 0.5275590551181102,
                    "duration": 0.1496259999999996
                },
                {
                    "name": "G#5",
                    "midi": 80,
                    "time": 15.991278750000014,
                    "velocity": 0.5275590551181102,
                    "duration": 0.13092274999999987
                },
                {
                    "name": "E6",
                    "midi": 88,
                    "time": 16.009982000000015,
                    "velocity": 0.6299212598425197,
                    "duration": 0.11221949999999836
                },
                {
                    "name": "E4",
                    "midi": 64,
                    "time": 16.159608000000013,
                    "velocity": 0.6220472440944882,
                    "duration": 0.07481299999999891
                },
                {
                    "name": "E3",
                    "midi": 52,
                    "time": 16.159608000000013,
                    "velocity": 0.5196850393700787,
                    "duration": 0.07481299999999891
                },
                {
                    "name": "E4",
                    "midi": 64,
                    "time": 17.76808750000001,
                    "velocity": 0.4094488188976378,
                    "duration": 0.14962600000000137
                },
                {
                    "name": "G#4",
                    "midi": 68,
                    "time": 17.786790750000012,
                    "velocity": 0.4015748031496063,
                    "duration": 0.13092274999999987
                },
                {
                    "name": "E5",
                    "midi": 76,
                    "time": 17.805494000000014,
                    "velocity": 0.48031496062992124,
                    "duration": 0.11221949999999836
                },
                {
                    "name": "E3",
                    "midi": 52,
                    "time": 17.95512000000001,
                    "velocity": 0.4330708661417323,
                    "duration": 0.07481299999999891
                },
                {
                    "name": "G#4",
                    "midi": 68,
                    "time": 18.70325000000001,
                    "velocity": 0.31496062992125984,
                    "duration": 0.07481299999999891
                },
                {
                    "name": "E4",
                    "midi": 64,
                    "time": 18.70325000000001,
                    "velocity": 0.31496062992125984,
                    "duration": 0.07481299999999891
                },
                {
                    "name": "E5",
                    "midi": 76,
                    "time": 18.70325000000001,
                    "velocity": 0.3779527559055118,
                    "duration": 0.07481299999999891
                },
                {
                    "name": "E3",
                    "midi": 52,
                    "time": 18.85287600000001,
                    "velocity": 0.36220472440944884,
                    "duration": 0.07481299999999891
                },
                {
                    "name": "C5",
                    "midi": 72,
                    "time": 20.162103500000008,
                    "velocity": 0.5275590551181102,
                    "duration": 0.14962600000000137
                },
                {
                    "name": "E5",
                    "midi": 76,
                    "time": 20.18080675000001,
                    "velocity": 0.5275590551181102,
                    "duration": 0.13092274999999987
                },
                {
                    "name": "C6",
                    "midi": 84,
                    "time": 20.19951000000001,
                    "velocity": 0.6299212598425197,
                    "duration": 0.11221949999999836
                },
                {
                    "name": "C4",
                    "midi": 60,
                    "time": 20.49876200000001,
                    "velocity": 0.3543307086614173,
                    "duration": 0.07481299999999891
                },
                {
                    "name": "E4",
                    "midi": 64,
                    "time": 20.49876200000001,
                    "velocity": 0.4251968503937008,
                    "duration": 0.07481299999999891
                },
                {
                    "name": "C4",
                    "midi": 60,
                    "time": 20.648388000000008,
                    "velocity": 0.3937007874015748,
                    "duration": 0.07481299999999891
                },
                {
                    "name": "E4",
                    "midi": 64,
                    "time": 20.648388000000008,
                    "velocity": 0.4645669291338583,
                    "duration": 0.07481299999999891
                },
                {
                    "name": "D4",
                    "midi": 62,
                    "time": 20.798014000000006,
                    "velocity": 0.3543307086614173,
                    "duration": 0.07481299999999891
                },
                {
                    "name": "F4",
                    "midi": 65,
                    "time": 20.798014000000006,
                    "velocity": 0.41732283464566927,
                    "duration": 0.07481299999999891
                },
                {
                    "name": "G4",
                    "midi": 67,
                    "time": 20.947640000000003,
                    "velocity": 0.41732283464566927,
                    "duration": 0.07481299999999891
                },
                {
                    "name": "E4",
                    "midi": 64,
                    "time": 20.947640000000003,
                    "velocity": 0.3543307086614173,
                    "duration": 0.07481299999999891
                },
                {
                    "name": "A4",
                    "midi": 69,
                    "time": 21.097266,
                    "velocity": 0.4645669291338583,
                    "duration": 0.07481299999999891
                },
                {
                    "name": "F4",
                    "midi": 65,
                    "time": 21.097266,
                    "velocity": 0.3937007874015748,
                    "duration": 0.07481299999999891
                },
                {
                    "name": "E4",
                    "midi": 64,
                    "time": 21.246892,
                    "velocity": 0.3543307086614173,
                    "duration": 0.07481299999999891
                },
                {
                    "name": "G4",
                    "midi": 67,
                    "time": 21.246892,
                    "velocity": 0.4251968503937008,
                    "duration": 0.07481299999999891
                },
                {
                    "name": "C5",
                    "midi": 72,
                    "time": 21.359111499999997,
                    "velocity": 0.5275590551181102,
                    "duration": 0.14962600000000137
                },
                {
                    "name": "E5",
                    "midi": 76,
                    "time": 21.37781475,
                    "velocity": 0.5275590551181102,
                    "duration": 0.13092274999999987
                },
                {
                    "name": "C6",
                    "midi": 84,
                    "time": 21.396518,
                    "velocity": 0.6299212598425197,
                    "duration": 0.11221949999999836
                },
                {
                    "name": "E4",
                    "midi": 64,
                    "time": 21.546143999999998,
                    "velocity": 0.4645669291338583,
                    "duration": 0.07481299999999891
                },
                {
                    "name": "C4",
                    "midi": 60,
                    "time": 21.546143999999998,
                    "velocity": 0.3937007874015748,
                    "duration": 0.07481299999999891
                },
                {
                    "name": "F4",
                    "midi": 65,
                    "time": 21.695769999999996,
                    "velocity": 0.41732283464566927,
                    "duration": 0.07481299999999891
                },
                {
                    "name": "D4",
                    "midi": 62,
                    "time": 21.695769999999996,
                    "velocity": 0.3543307086614173,
                    "duration": 0.07481299999999891
                },
                {
                    "name": "G4",
                    "midi": 67,
                    "time": 21.845395999999994,
                    "velocity": 0.41732283464566927,
                    "duration": 0.07481299999999891
                },
                {
                    "name": "E4",
                    "midi": 64,
                    "time": 21.845395999999994,
                    "velocity": 0.3543307086614173,
                    "duration": 0.07481299999999891
                },
                {
                    "name": "F4",
                    "midi": 65,
                    "time": 21.99502199999999,
                    "velocity": 0.3937007874015748,
                    "duration": 0.07481299999999891
                },
                {
                    "name": "A4",
                    "midi": 69,
                    "time": 21.99502199999999,
                    "velocity": 0.4645669291338583,
                    "duration": 0.07481299999999891
                },
                {
                    "name": "G4",
                    "midi": 67,
                    "time": 22.14464799999999,
                    "velocity": 0.4251968503937008,
                    "duration": 0.07481299999999891
                },
                {
                    "name": "E4",
                    "midi": 64,
                    "time": 22.14464799999999,
                    "velocity": 0.3543307086614173,
                    "duration": 0.07481299999999891
                },
                {
                    "name": "F4",
                    "midi": 65,
                    "time": 22.294273999999987,
                    "velocity": 0.3543307086614173,
                    "duration": 0.07481299999999891
                },
                {
                    "name": "A4",
                    "midi": 69,
                    "time": 22.294273999999987,
                    "velocity": 0.41732283464566927,
                    "duration": 0.07481299999999891
                },
                {
                    "name": "G4",
                    "midi": 67,
                    "time": 22.443899999999985,
                    "velocity": 0.3937007874015748,
                    "duration": 0.07481299999999891
                },
                {
                    "name": "B4",
                    "midi": 71,
                    "time": 22.443899999999985,
                    "velocity": 0.4645669291338583,
                    "duration": 0.07481299999999891
                },
                {
                    "name": "A4",
                    "midi": 69,
                    "time": 22.593525999999983,
                    "velocity": 0.3543307086614173,
                    "duration": 0.07481299999999891
                },
                {
                    "name": "C5",
                    "midi": 72,
                    "time": 22.593525999999983,
                    "velocity": 0.4251968503937008,
                    "duration": 0.07481299999999891
                },
                {
                    "name": "B4",
                    "midi": 71,
                    "time": 22.74315199999998,
                    "velocity": 0.3543307086614173,
                    "duration": 0.07481299999999891
                },
                {
                    "name": "D5",
                    "midi": 74,
                    "time": 22.74315199999998,
                    "velocity": 0.41732283464566927,
                    "duration": 0.07481299999999891
                },
                {
                    "name": "E5",
                    "midi": 76,
                    "time": 22.85537149999998,
                    "velocity": 0.5275590551181102,
                    "duration": 0.14962599999999782
                },
                {
                    "name": "G5",
                    "midi": 79,
                    "time": 22.867840333333312,
                    "velocity": 0.5275590551181102,
                    "duration": 0.13715716666666466
                },
                {
                    "name": "C6",
                    "midi": 84,
                    "time": 22.880309166666645,
                    "velocity": 0.5275590551181102,
                    "duration": 0.12468833333333151
                },
                {
                    "name": "E6",
                    "midi": 88,
                    "time": 22.89277799999998,
                    "velocity": 0.6299212598425197,
                    "duration": 0.11221949999999836
                },
                {
                    "name": "E4",
                    "midi": 64,
                    "time": 23.192029999999978,
                    "velocity": 0.3543307086614173,
                    "duration": 0.07481299999999891
                },
                {
                    "name": "G4",
                    "midi": 67,
                    "time": 23.192029999999978,
                    "velocity": 0.4251968503937008,
                    "duration": 0.07481299999999891
                },
                {
                    "name": "E4",
                    "midi": 64,
                    "time": 23.341655999999976,
                    "velocity": 0.4015748031496063,
                    "duration": 0.07481299999999891
                },
                {
                    "name": "G4",
                    "midi": 67,
                    "time": 23.341655999999976,
                    "velocity": 0.47244094488188976,
                    "duration": 0.07481299999999891
                },
                {
                    "name": "A4",
                    "midi": 69,
                    "time": 23.491281999999973,
                    "velocity": 0.4409448818897638,
                    "duration": 0.07481299999999891
                },
                {
                    "name": "F4",
                    "midi": 65,
                    "time": 23.491281999999973,
                    "velocity": 0.36220472440944884,
                    "duration": 0.07481299999999891
                },
                {
                    "name": "G4",
                    "midi": 67,
                    "time": 23.64090799999997,
                    "velocity": 0.3779527559055118,
                    "duration": 0.07481299999999891
                },
                {
                    "name": "B4",
                    "midi": 71,
                    "time": 23.64090799999997,
                    "velocity": 0.44881889763779526,
                    "duration": 0.07481299999999891
                },
                {
                    "name": "C5",
                    "midi": 72,
                    "time": 23.79053399999997,
                    "velocity": 0.5118110236220472,
                    "duration": 0.07481299999999891
                },
                {
                    "name": "A4",
                    "midi": 69,
                    "time": 23.79053399999997,
                    "velocity": 0.4330708661417323,
                    "duration": 0.07481299999999891
                },
                {
                    "name": "G4",
                    "midi": 67,
                    "time": 23.940159999999967,
                    "velocity": 0.4015748031496063,
                    "duration": 0.07481299999999891
                },
                {
                    "name": "B4",
                    "midi": 71,
                    "time": 23.940159999999967,
                    "velocity": 0.48031496062992124,
                    "duration": 0.07481299999999891
                },
                {
                    "name": "E5",
                    "midi": 76,
                    "time": 24.052379499999965,
                    "velocity": 0.6141732283464567,
                    "duration": 0.14962599999999782
                },
                {
                    "name": "G5",
                    "midi": 79,
                    "time": 24.0648483333333,
                    "velocity": 0.6141732283464567,
                    "duration": 0.13715716666666466
                },
                {
                    "name": "C6",
                    "midi": 84,
                    "time": 24.07731716666663,
                    "velocity": 0.6141732283464567,
                    "duration": 0.12468833333333151
                },
                {
                    "name": "E6",
                    "midi": 88,
                    "time": 24.089785999999965,
                    "velocity": 0.7322834645669292,
                    "duration": 0.11221949999999836
                },
                {
                    "name": "B4",
                    "midi": 71,
                    "time": 24.239411999999962,
                    "velocity": 0.5118110236220472,
                    "duration": 0.07481299999999891
                },
                {
                    "name": "G4",
                    "midi": 67,
                    "time": 24.239411999999962,
                    "velocity": 0.4251968503937008,
                    "duration": 0.07481299999999891
                },
                {
                    "name": "A4",
                    "midi": 69,
                    "time": 24.38903799999996,
                    "velocity": 0.3937007874015748,
                    "duration": 0.07481299999999891
                },
                {
                    "name": "C5",
                    "midi": 72,
                    "time": 24.38903799999996,
                    "velocity": 0.47244094488188976,
                    "duration": 0.07481299999999891
                },
                {
                    "name": "D5",
                    "midi": 74,
                    "time": 24.538663999999958,
                    "velocity": 0.4881889763779528,
                    "duration": 0.07481299999999891
                },
                {
                    "name": "B4",
                    "midi": 71,
                    "time": 24.538663999999958,
                    "velocity": 0.4015748031496063,
                    "duration": 0.07481299999999891
                },
                {
                    "name": "C5",
                    "midi": 72,
                    "time": 24.688289999999956,
                    "velocity": 0.4645669291338583,
                    "duration": 0.07481299999999891
                },
                {
                    "name": "E5",
                    "midi": 76,
                    "time": 24.688289999999956,
                    "velocity": 0.5590551181102362,
                    "duration": 0.07481299999999891
                },
                {
                    "name": "D5",
                    "midi": 74,
                    "time": 24.837915999999954,
                    "velocity": 0.5196850393700787,
                    "duration": 0.07481299999999891
                },
                {
                    "name": "B4",
                    "midi": 71,
                    "time": 24.837915999999954,
                    "velocity": 0.4409448818897638,
                    "duration": 0.07481299999999891
                },
                {
                    "name": "E5",
                    "midi": 76,
                    "time": 24.98754199999995,
                    "velocity": 0.5275590551181102,
                    "duration": 0.07481299999999891
                },
                {
                    "name": "C5",
                    "midi": 72,
                    "time": 24.98754199999995,
                    "velocity": 0.4409448818897638,
                    "duration": 0.07481299999999891
                },
                {
                    "name": "D5",
                    "midi": 74,
                    "time": 25.13716799999995,
                    "velocity": 0.5039370078740157,
                    "duration": 0.07481299999999891
                },
                {
                    "name": "F#5",
                    "midi": 78,
                    "time": 25.13716799999995,
                    "velocity": 0.6062992125984252,
                    "duration": 0.07481299999999891
                },
                {
                    "name": "G5",
                    "midi": 79,
                    "time": 25.286793999999947,
                    "velocity": 0.5669291338582677,
                    "duration": 0.07481299999999891
                },
                {
                    "name": "E5",
                    "midi": 76,
                    "time": 25.286793999999947,
                    "velocity": 0.47244094488188976,
                    "duration": 0.07481299999999891
                },
                {
                    "name": "F#5",
                    "midi": 78,
                    "time": 25.436419999999945,
                    "velocity": 0.48031496062992124,
                    "duration": 0.07481299999999891
                },
                {
                    "name": "A5",
                    "midi": 81,
                    "time": 25.436419999999945,
                    "velocity": 0.5669291338582677,
                    "duration": 0.07481299999999891
                },
                {
                    "name": "B5",
                    "midi": 83,
                    "time": 25.586045999999943,
                    "velocity": 0.5984251968503937,
                    "duration": 0.5985039999999984
                },
                {
                    "name": "B6",
                    "midi": 95,
                    "time": 25.586045999999943,
                    "velocity": 0.7086614173228346,
                    "duration": 0.5985039999999984
                },
                {
                    "name": "G6",
                    "midi": 91,
                    "time": 25.586045999999943,
                    "velocity": 0.5984251968503937,
                    "duration": 0.5985039999999984
                },
                {
                    "name": "F#6",
                    "midi": 90,
                    "time": 26.18454999999994,
                    "velocity": 0.5354330708661418,
                    "duration": 0.07481299999999891
                },
                {
                    "name": "A5",
                    "midi": 81,
                    "time": 26.18454999999994,
                    "velocity": 0.5354330708661418,
                    "duration": 0.07481299999999891
                },
                {
                    "name": "A6",
                    "midi": 93,
                    "time": 26.18454999999994,
                    "velocity": 0.6377952755905512,
                    "duration": 0.07481299999999891
                },
                {
                    "name": "G5",
                    "midi": 79,
                    "time": 26.33417599999994,
                    "velocity": 0.5354330708661418,
                    "duration": 0.07481299999999891
                },
                {
                    "name": "G6",
                    "midi": 91,
                    "time": 26.33417599999994,
                    "velocity": 0.6377952755905512,
                    "duration": 0.07481299999999891
                },
                {
                    "name": "E6",
                    "midi": 88,
                    "time": 26.33417599999994,
                    "velocity": 0.5354330708661418,
                    "duration": 0.07481299999999891
                },
                {
                    "name": "A5",
                    "midi": 81,
                    "time": 26.483801999999937,
                    "velocity": 0.5984251968503937,
                    "duration": 0.5985039999999984
                },
                {
                    "name": "F#6",
                    "midi": 90,
                    "time": 26.483801999999937,
                    "velocity": 0.5984251968503937,
                    "duration": 0.5985039999999984
                },
                {
                    "name": "A6",
                    "midi": 93,
                    "time": 26.483801999999937,
                    "velocity": 0.7086614173228346,
                    "duration": 0.5985039999999984
                },
                {
                    "name": "G6",
                    "midi": 91,
                    "time": 27.082305999999935,
                    "velocity": 0.6377952755905512,
                    "duration": 0.07481299999999891
                },
                {
                    "name": "E6",
                    "midi": 88,
                    "time": 27.082305999999935,
                    "velocity": 0.5354330708661418,
                    "duration": 0.07481299999999891
                },
                {
                    "name": "G5",
                    "midi": 79,
                    "time": 27.082305999999935,
                    "velocity": 0.5354330708661418,
                    "duration": 0.07481299999999891
                },
                {
                    "name": "F#5",
                    "midi": 78,
                    "time": 27.231931999999933,
                    "velocity": 0.5354330708661418,
                    "duration": 0.07481299999999891
                },
                {
                    "name": "D#6",
                    "midi": 87,
                    "time": 27.231931999999933,
                    "velocity": 0.5354330708661418,
                    "duration": 0.07481299999999891
                },
                {
                    "name": "F#6",
                    "midi": 90,
                    "time": 27.231931999999933,
                    "velocity": 0.6377952755905512,
                    "duration": 0.07481299999999891
                },
                {
                    "name": "G6",
                    "midi": 91,
                    "time": 27.38155799999993,
                    "velocity": 0.7086614173228346,
                    "duration": 0.07481299999999891
                },
                {
                    "name": "G5",
                    "midi": 79,
                    "time": 27.38155799999993,
                    "velocity": 0.5984251968503937,
                    "duration": 0.07481299999999891
                },
                {
                    "name": "E6",
                    "midi": 88,
                    "time": 27.38155799999993,
                    "velocity": 0.5984251968503937,
                    "duration": 0.07481299999999891
                },
                {
                    "name": "F#5",
                    "midi": 78,
                    "time": 27.53118399999993,
                    "velocity": 0.5354330708661418,
                    "duration": 0.07481299999999891
                },
                {
                    "name": "D#6",
                    "midi": 87,
                    "time": 27.53118399999993,
                    "velocity": 0.5354330708661418,
                    "duration": 0.07481299999999891
                },
                {
                    "name": "F#6",
                    "midi": 90,
                    "time": 27.53118399999993,
                    "velocity": 0.6377952755905512,
                    "duration": 0.07481299999999891
                },
                {
                    "name": "E6",
                    "midi": 88,
                    "time": 27.680809999999926,
                    "velocity": 0.6377952755905512,
                    "duration": 0.07481299999999891
                },
                {
                    "name": "C#6",
                    "midi": 85,
                    "time": 27.680809999999926,
                    "velocity": 0.5354330708661418,
                    "duration": 0.07481299999999891
                },
                {
                    "name": "E5",
                    "midi": 76,
                    "time": 27.680809999999926,
                    "velocity": 0.5354330708661418,
                    "duration": 0.07481299999999891
                },
                {
                    "name": "F#5",
                    "midi": 78,
                    "time": 27.830435999999924,
                    "velocity": 0.5984251968503937,
                    "duration": 0.07481299999999891
                },
                {
                    "name": "D#6",
                    "midi": 87,
                    "time": 27.830435999999924,
                    "velocity": 0.5984251968503937,
                    "duration": 0.07481299999999891
                },
                {
                    "name": "F#6",
                    "midi": 90,
                    "time": 27.830435999999924,
                    "velocity": 0.7086614173228346,
                    "duration": 0.07481299999999891
                },
                {
                    "name": "B5",
                    "midi": 83,
                    "time": 28.129687999999923,
                    "velocity": 0.6377952755905512,
                    "duration": 0.07481299999999891
                },
                {
                    "name": "B4",
                    "midi": 71,
                    "time": 28.129687999999923,
                    "velocity": 0.5354330708661418,
                    "duration": 0.07481299999999891
                },
                {
                    "name": "B5",
                    "midi": 83,
                    "time": 28.27931399999992,
                    "velocity": 0.5984251968503937,
                    "duration": 0.5985039999999984
                },
                {
                    "name": "G#6",
                    "midi": 92,
                    "time": 28.27931399999992,
                    "velocity": 0.5984251968503937,
                    "duration": 0.5985039999999984
                },
                {
                    "name": "B6",
                    "midi": 95,
                    "time": 28.27931399999992,
                    "velocity": 0.7086614173228346,
                    "duration": 0.5985039999999984
                },
                {
                    "name": "A6",
                    "midi": 93,
                    "time": 28.87781799999992,
                    "velocity": 0.6377952755905512,
                    "duration": 0.07481299999999891
                },
                {
                    "name": "F#6",
                    "midi": 90,
                    "time": 28.87781799999992,
                    "velocity": 0.5354330708661418,
                    "duration": 0.07481299999999891
                },
                {
                    "name": "A5",
                    "midi": 81,
                    "time": 28.87781799999992,
                    "velocity": 0.5354330708661418,
                    "duration": 0.07481299999999891
                },
                {
                    "name": "G#5",
                    "midi": 80,
                    "time": 29.027443999999917,
                    "velocity": 0.5354330708661418,
                    "duration": 0.07481299999999891
                },
                {
                    "name": "E6",
                    "midi": 88,
                    "time": 29.027443999999917,
                    "velocity": 0.5354330708661418,
                    "duration": 0.07481299999999891
                },
                {
                    "name": "G#6",
                    "midi": 92,
                    "time": 29.027443999999917,
                    "velocity": 0.6377952755905512,
                    "duration": 0.07481299999999891
                },
                {
                    "name": "F#6",
                    "midi": 90,
                    "time": 29.177069999999915,
                    "velocity": 0.5984251968503937,
                    "duration": 0.5985039999999984
                },
                {
                    "name": "A5",
                    "midi": 81,
                    "time": 29.177069999999915,
                    "velocity": 0.5984251968503937,
                    "duration": 0.5985039999999984
                },
                {
                    "name": "A6",
                    "midi": 93,
                    "time": 29.177069999999915,
                    "velocity": 0.7086614173228346,
                    "duration": 0.5985039999999984
                },
                {
                    "name": "G#5",
                    "midi": 80,
                    "time": 29.775573999999914,
                    "velocity": 0.5354330708661418,
                    "duration": 0.07481299999999891
                },
                {
                    "name": "G#6",
                    "midi": 92,
                    "time": 29.775573999999914,
                    "velocity": 0.6377952755905512,
                    "duration": 0.07481299999999891
                },
                {
                    "name": "E6",
                    "midi": 88,
                    "time": 29.775573999999914,
                    "velocity": 0.5354330708661418,
                    "duration": 0.07481299999999891
                },
                {
                    "name": "D#6",
                    "midi": 87,
                    "time": 29.92519999999991,
                    "velocity": 0.5354330708661418,
                    "duration": 0.07481299999999891
                },
                {
                    "name": "F#5",
                    "midi": 78,
                    "time": 29.92519999999991,
                    "velocity": 0.5354330708661418,
                    "duration": 0.07481299999999891
                },
                {
                    "name": "F#6",
                    "midi": 90,
                    "time": 29.92519999999991,
                    "velocity": 0.6377952755905512,
                    "duration": 0.07481299999999891
                },
                {
                    "name": "G#5",
                    "midi": 80,
                    "time": 30.07482599999991,
                    "velocity": 0.5984251968503937,
                    "duration": 0.07481299999999891
                },
                {
                    "name": "G#6",
                    "midi": 92,
                    "time": 30.07482599999991,
                    "velocity": 0.7086614173228346,
                    "duration": 0.07481299999999891
                },
                {
                    "name": "E6",
                    "midi": 88,
                    "time": 30.07482599999991,
                    "velocity": 0.5984251968503937,
                    "duration": 0.07481299999999891
                },
                {
                    "name": "F#5",
                    "midi": 78,
                    "time": 30.224451999999907,
                    "velocity": 0.5354330708661418,
                    "duration": 0.07481299999999891
                },
                {
                    "name": "D#6",
                    "midi": 87,
                    "time": 30.224451999999907,
                    "velocity": 0.5354330708661418,
                    "duration": 0.07481299999999891
                },
                {
                    "name": "F#6",
                    "midi": 90,
                    "time": 30.224451999999907,
                    "velocity": 0.6377952755905512,
                    "duration": 0.07481299999999891
                },
                {
                    "name": "E6",
                    "midi": 88,
                    "time": 30.374077999999905,
                    "velocity": 0.6377952755905512,
                    "duration": 0.07481299999999891
                },
                {
                    "name": "C#6",
                    "midi": 85,
                    "time": 30.374077999999905,
                    "velocity": 0.5354330708661418,
                    "duration": 0.07481299999999891
                },
                {
                    "name": "E5",
                    "midi": 76,
                    "time": 30.374077999999905,
                    "velocity": 0.5354330708661418,
                    "duration": 0.07481299999999891
                },
                {
                    "name": "F#5",
                    "midi": 78,
                    "time": 30.523703999999903,
                    "velocity": 0.5984251968503937,
                    "duration": 0.07481299999999891
                },
                {
                    "name": "D#6",
                    "midi": 87,
                    "time": 30.523703999999903,
                    "velocity": 0.5984251968503937,
                    "duration": 0.07481299999999891
                },
                {
                    "name": "F#6",
                    "midi": 90,
                    "time": 30.523703999999903,
                    "velocity": 0.7086614173228346,
                    "duration": 0.07481299999999891
                },
                {
                    "name": "B5",
                    "midi": 83,
                    "time": 30.822955999999902,
                    "velocity": 0.6377952755905512,
                    "duration": 0.07481299999999891
                },
                {
                    "name": "B4",
                    "midi": 71,
                    "time": 30.822955999999902,
                    "velocity": 0.5354330708661418,
                    "duration": 0.07481299999999891
                },
                {
                    "name": "B5",
                    "midi": 83,
                    "time": 30.9725819999999,
                    "velocity": 0.6456692913385826,
                    "duration": 0.07481299999999891
                },
                {
                    "name": "G#6",
                    "midi": 92,
                    "time": 30.9725819999999,
                    "velocity": 0.7637795275590551,
                    "duration": 0.07481299999999891
                },
                {
                    "name": "B6",
                    "midi": 95,
                    "time": 30.9725819999999,
                    "velocity": 0.7637795275590551,
                    "duration": 0.07481299999999891
                },
                {
                    "name": "G#6",
                    "midi": 92,
                    "time": 31.2718339999999,
                    "velocity": 0.7165354330708661,
                    "duration": 0.2992519999999992
                },
                {
                    "name": "E6",
                    "midi": 88,
                    "time": 31.2718339999999,
                    "velocity": 0.6062992125984252,
                    "duration": 0.2992519999999992
                },
                {
                    "name": "G#5",
                    "midi": 80,
                    "time": 31.2718339999999,
                    "velocity": 0.6062992125984252,
                    "duration": 0.2992519999999992
                },
                {
                    "name": "A5",
                    "midi": 81,
                    "time": 31.571085999999898,
                    "velocity": 0.6062992125984252,
                    "duration": 0.448877999999997
                },
                {
                    "name": "E6",
                    "midi": 88,
                    "time": 31.571085999999898,
                    "velocity": 0.6062992125984252,
                    "duration": 0.448877999999997
                },
                {
                    "name": "A6",
                    "midi": 93,
                    "time": 31.571085999999898,
                    "velocity": 0.7165354330708661,
                    "duration": 0.448877999999997
                },
                {
                    "name": "F#6",
                    "midi": 90,
                    "time": 32.019963999999895,
                    "velocity": 0.7007874015748031,
                    "duration": 0.22443899999999672
                },
                {
                    "name": "F#5",
                    "midi": 78,
                    "time": 32.019963999999895,
                    "velocity": 0.5905511811023622,
                    "duration": 0.22443899999999672
                },
                {
                    "name": "E6",
                    "midi": 88,
                    "time": 32.019963999999895,
                    "velocity": 0.5905511811023622,
                    "duration": 0.22443899999999672
                },
                {
                    "name": "E6",
                    "midi": 88,
                    "time": 32.24440299999989,
                    "velocity": 0.5275590551181102,
                    "duration": 0.06857858333333411
                },
                {
                    "name": "G#5",
                    "midi": 80,
                    "time": 32.24440299999989,
                    "velocity": 0.5275590551181102,
                    "duration": 0.06857858333333411
                },
                {
                    "name": "G#6",
                    "midi": 92,
                    "time": 32.24440299999989,
                    "velocity": 0.6220472440944882,
                    "duration": 0.06857858333333411
                },
                {
                    "name": "G#6",
                    "midi": 92,
                    "time": 32.31921599999989,
                    "velocity": 0.6929133858267716,
                    "duration": 0.07481299999999891
                },
                {
                    "name": "E6",
                    "midi": 88,
                    "time": 32.31921599999989,
                    "velocity": 0.5826771653543307,
                    "duration": 0.07481299999999891
                },
                {
                    "name": "G#5",
                    "midi": 80,
                    "time": 32.31921599999989,
                    "velocity": 0.5826771653543307,
                    "duration": 0.07481299999999891
                },
                {
                    "name": "G#4",
                    "midi": 68,
                    "time": 32.618467999999886,
                    "velocity": 0.5433070866141733,
                    "duration": 0.29925200000000274
                },
                {
                    "name": "E5",
                    "midi": 76,
                    "time": 32.618467999999886,
                    "velocity": 0.5433070866141733,
                    "duration": 0.29925200000000274
                },
                {
                    "name": "G#5",
                    "midi": 80,
                    "time": 32.618467999999886,
                    "velocity": 0.6377952755905512,
                    "duration": 0.29925200000000274
                },
                {
                    "name": "E5",
                    "midi": 76,
                    "time": 32.91771999999989,
                    "velocity": 0.5433070866141733,
                    "duration": 0.44887800000000055
                },
                {
                    "name": "A4",
                    "midi": 69,
                    "time": 32.91771999999989,
                    "velocity": 0.5433070866141733,
                    "duration": 0.44887800000000055
                },
                {
                    "name": "A5",
                    "midi": 81,
                    "time": 32.91771999999989,
                    "velocity": 0.6377952755905512,
                    "duration": 0.44887800000000055
                },
                {
                    "name": "F#4",
                    "midi": 66,
                    "time": 33.36659799999989,
                    "velocity": 0.5275590551181102,
                    "duration": 0.21820458333333193
                },
                {
                    "name": "F#5",
                    "midi": 78,
                    "time": 33.36659799999989,
                    "velocity": 0.6299212598425197,
                    "duration": 0.21820458333333193
                },
                {
                    "name": "E5",
                    "midi": 76,
                    "time": 33.36659799999989,
                    "velocity": 0.5275590551181102,
                    "duration": 0.21820458333333193
                },
                {
                    "name": "G#4",
                    "midi": 68,
                    "time": 33.591036999999886,
                    "velocity": 0.47244094488188976,
                    "duration": 0.06857858333333411
                },
                {
                    "name": "E5",
                    "midi": 76,
                    "time": 33.591036999999886,
                    "velocity": 0.47244094488188976,
                    "duration": 0.06857858333333411
                },
                {
                    "name": "G#5",
                    "midi": 80,
                    "time": 33.591036999999886,
                    "velocity": 0.5590551181102362,
                    "duration": 0.06857858333333411
                },
                {
                    "name": "G#4",
                    "midi": 68,
                    "time": 33.665849999999885,
                    "velocity": 0.5196850393700787,
                    "duration": 0.07481299999999891
                },
                {
                    "name": "G#5",
                    "midi": 80,
                    "time": 33.665849999999885,
                    "velocity": 0.6220472440944882,
                    "duration": 0.07481299999999891
                },
                {
                    "name": "E5",
                    "midi": 76,
                    "time": 33.665849999999885,
                    "velocity": 0.5196850393700787,
                    "duration": 0.07481299999999891
                },
                {
                    "name": "E5",
                    "midi": 76,
                    "time": 33.927695499999885,
                    "velocity": 0.5275590551181102,
                    "duration": 0.14962600000000492
                },
                {
                    "name": "G#5",
                    "midi": 80,
                    "time": 33.94639874999989,
                    "velocity": 0.5275590551181102,
                    "duration": 0.13092275000000342
                },
                {
                    "name": "E6",
                    "midi": 88,
                    "time": 33.96510199999989,
                    "velocity": 0.6299212598425197,
                    "duration": 0.11221950000000191
                },
                {
                    "name": "E4",
                    "midi": 64,
                    "time": 34.11472799999989,
                    "velocity": 0.6220472440944882,
                    "duration": 0.07481299999999891
                },
                {
                    "name": "E3",
                    "midi": 52,
                    "time": 34.11472799999989,
                    "velocity": 0.5196850393700787,
                    "duration": 0.07481299999999891
                },
                {
                    "name": "E5",
                    "midi": 76,
                    "time": 34.82545149999989,
                    "velocity": 0.5275590551181102,
                    "duration": 0.14962600000000492
                },
                {
                    "name": "G#5",
                    "midi": 80,
                    "time": 34.844154749999895,
                    "velocity": 0.5275590551181102,
                    "duration": 0.13092275000000342
                },
                {
                    "name": "E6",
                    "midi": 88,
                    "time": 34.862857999999896,
                    "velocity": 0.6299212598425197,
                    "duration": 0.11221950000000191
                },
                {
                    "name": "E3",
                    "midi": 52,
                    "time": 35.0124839999999,
                    "velocity": 0.5196850393700787,
                    "duration": 0.07481299999999891
                },
                {
                    "name": "E4",
                    "midi": 64,
                    "time": 35.0124839999999,
                    "velocity": 0.6220472440944882,
                    "duration": 0.07481299999999891
                },
                {
                    "name": "E5",
                    "midi": 76,
                    "time": 36.2094919999999,
                    "velocity": 0.5826771653543307,
                    "duration": 0.07481299999999891
                },
                {
                    "name": "A4",
                    "midi": 69,
                    "time": 36.359117999999896,
                    "velocity": 0.5748031496062992,
                    "duration": 0.07481299999999891
                },
                {
                    "name": "C#5",
                    "midi": 73,
                    "time": 36.359117999999896,
                    "velocity": 0.6850393700787402,
                    "duration": 0.07481299999999891
                },
                {
                    "name": "A5",
                    "midi": 81,
                    "time": 36.359117999999896,
                    "velocity": 0.6850393700787402,
                    "duration": 0.07481299999999891
                },
                {
                    "name": "E4",
                    "midi": 64,
                    "time": 36.50874399999989,
                    "velocity": 0.4330708661417323,
                    "duration": 0.07481299999999891
                },
                {
                    "name": "C#4",
                    "midi": 61,
                    "time": 36.50874399999989,
                    "velocity": 0.36220472440944884,
                    "duration": 0.07481299999999891
                },
                {
                    "name": "D4",
                    "midi": 62,
                    "time": 36.65836999999989,
                    "velocity": 0.4330708661417323,
                    "duration": 0.07481299999999891
                },
                {
                    "name": "B3",
                    "midi": 59,
                    "time": 36.65836999999989,
                    "velocity": 0.36220472440944884,
                    "duration": 0.07481299999999891
                },
                {
                    "name": "A3",
                    "midi": 57,
                    "time": 36.80799599999989,
                    "velocity": 0.4015748031496063,
                    "duration": 0.14339158333333302
                },
                {
                    "name": "C#4",
                    "midi": 61,
                    "time": 36.80799599999989,
                    "velocity": 0.47244094488188976,
                    "duration": 0.14339158333333302
                },
                {
                    "name": "C#4",
                    "midi": 61,
                    "time": 37.85537799999989,
                    "velocity": 0.36220472440944884,
                    "duration": 0.07481299999999891
                },
                {
                    "name": "E4",
                    "midi": 64,
                    "time": 37.85537799999989,
                    "velocity": 0.4330708661417323,
                    "duration": 0.07481299999999891
                },
                {
                    "name": "B3",
                    "midi": 59,
                    "time": 38.005003999999886,
                    "velocity": 0.36220472440944884,
                    "duration": 0.07481299999999891
                },
                {
                    "name": "D4",
                    "midi": 62,
                    "time": 38.005003999999886,
                    "velocity": 0.4330708661417323,
                    "duration": 0.07481299999999891
                },
                {
                    "name": "A3",
                    "midi": 57,
                    "time": 38.154629999999884,
                    "velocity": 0.4015748031496063,
                    "duration": 0.07481299999999891
                },
                {
                    "name": "C#4",
                    "midi": 61,
                    "time": 38.154629999999884,
                    "velocity": 0.47244094488188976,
                    "duration": 0.07481299999999891
                },
                {
                    "name": "A4",
                    "midi": 69,
                    "time": 38.90275999999988,
                    "velocity": 0.5826771653543307,
                    "duration": 0.07481299999999891
                },
                {
                    "name": "F4",
                    "midi": 65,
                    "time": 39.05238599999988,
                    "velocity": 0.5748031496062992,
                    "duration": 0.07481299999999891
                },
                {
                    "name": "F5",
                    "midi": 77,
                    "time": 39.05238599999988,
                    "velocity": 0.6850393700787402,
                    "duration": 0.07481299999999891
                },
                {
                    "name": "F4",
                    "midi": 65,
                    "time": 39.202011999999876,
                    "velocity": 0.36220472440944884,
                    "duration": 0.07481299999999891
                },
                {
                    "name": "A4",
                    "midi": 69,
                    "time": 39.202011999999876,
                    "velocity": 0.4330708661417323,
                    "duration": 0.07481299999999891
                },
                {
                    "name": "E4",
                    "midi": 64,
                    "time": 39.35163799999987,
                    "velocity": 0.36220472440944884,
                    "duration": 0.07481299999999891
                },
                {
                    "name": "G4",
                    "midi": 67,
                    "time": 39.35163799999987,
                    "velocity": 0.4330708661417323,
                    "duration": 0.07481299999999891
                },
                {
                    "name": "D4",
                    "midi": 62,
                    "time": 39.50126399999987,
                    "velocity": 0.4015748031496063,
                    "duration": 0.07481299999999891
                },
                {
                    "name": "F4",
                    "midi": 65,
                    "time": 39.50126399999987,
                    "velocity": 0.47244094488188976,
                    "duration": 0.07481299999999891
                },
                {
                    "name": "D4",
                    "midi": 62,
                    "time": 39.65088999999987,
                    "velocity": 0.3228346456692913,
                    "duration": 0.07481299999999891
                },
                {
                    "name": "F4",
                    "midi": 65,
                    "time": 39.65088999999987,
                    "velocity": 0.3858267716535433,
                    "duration": 0.07481299999999891
                },
                {
                    "name": "A3",
                    "midi": 57,
                    "time": 39.80051599999987,
                    "velocity": 0.3228346456692913,
                    "duration": 0.07481299999999891
                },
                {
                    "name": "E4",
                    "midi": 64,
                    "time": 39.80051599999987,
                    "velocity": 0.3858267716535433,
                    "duration": 0.07481299999999891
                },
                {
                    "name": "D4",
                    "midi": 62,
                    "time": 39.950141999999865,
                    "velocity": 0.4566929133858268,
                    "duration": 0.07481299999999891
                },
                {
                    "name": "F3",
                    "midi": 53,
                    "time": 39.950141999999865,
                    "velocity": 0.3858267716535433,
                    "duration": 0.07481299999999891
                },
                {
                    "name": "F4",
                    "midi": 65,
                    "time": 40.54864599999986,
                    "velocity": 0.36220472440944884,
                    "duration": 0.07481299999999891
                },
                {
                    "name": "A4",
                    "midi": 69,
                    "time": 40.54864599999986,
                    "velocity": 0.4330708661417323,
                    "duration": 0.07481299999999891
                },
                {
                    "name": "E4",
                    "midi": 64,
                    "time": 40.69827199999986,
                    "velocity": 0.36220472440944884,
                    "duration": 0.07481299999999891
                },
                {
                    "name": "G4",
                    "midi": 67,
                    "time": 40.69827199999986,
                    "velocity": 0.4330708661417323,
                    "duration": 0.07481299999999891
                },
                {
                    "name": "D4",
                    "midi": 62,
                    "time": 40.84789799999986,
                    "velocity": 0.4015748031496063,
                    "duration": 0.07481299999999891
                },
                {
                    "name": "F4",
                    "midi": 65,
                    "time": 40.84789799999986,
                    "velocity": 0.47244094488188976,
                    "duration": 0.07481299999999891
                },
                {
                    "name": "F4",
                    "midi": 65,
                    "time": 40.997523999999856,
                    "velocity": 0.3858267716535433,
                    "duration": 0.07481299999999891
                },
                {
                    "name": "D4",
                    "midi": 62,
                    "time": 40.997523999999856,
                    "velocity": 0.3228346456692913,
                    "duration": 0.07481299999999891
                },
                {
                    "name": "E4",
                    "midi": 64,
                    "time": 41.147149999999854,
                    "velocity": 0.3858267716535433,
                    "duration": 0.07481299999999891
                },
                {
                    "name": "A3",
                    "midi": 57,
                    "time": 41.147149999999854,
                    "velocity": 0.3228346456692913,
                    "duration": 0.07481299999999891
                },
                {
                    "name": "F3",
                    "midi": 53,
                    "time": 41.29677599999985,
                    "velocity": 0.3858267716535433,
                    "duration": 0.07481299999999891
                },
                {
                    "name": "D4",
                    "midi": 62,
                    "time": 41.29677599999985,
                    "velocity": 0.4566929133858268,
                    "duration": 0.07481299999999891
                },
                {
                    "name": "C5",
                    "midi": 72,
                    "time": 41.59602799999985,
                    "velocity": 0.5826771653543307,
                    "duration": 0.07481299999999891
                },
                {
                    "name": "A4",
                    "midi": 69,
                    "time": 41.745653999999845,
                    "velocity": 0.5748031496062992,
                    "duration": 0.07481299999999891
                },
                {
                    "name": "A5",
                    "midi": 81,
                    "time": 41.745653999999845,
                    "velocity": 0.6850393700787402,
                    "duration": 0.07481299999999891
                },
                {
                    "name": "A4",
                    "midi": 69,
                    "time": 41.89527999999984,
                    "velocity": 0.36220472440944884,
                    "duration": 0.07481299999999891
                },
                {
                    "name": "C5",
                    "midi": 72,
                    "time": 41.89527999999984,
                    "velocity": 0.4330708661417323,
                    "duration": 0.07481299999999891
                },
                {
                    "name": "A#4",
                    "midi": 70,
                    "time": 42.04490599999984,
                    "velocity": 0.4330708661417323,
                    "duration": 0.07481299999999891
                },
                {
                    "name": "G4",
                    "midi": 67,
                    "time": 42.04490599999984,
                    "velocity": 0.36220472440944884,
                    "duration": 0.07481299999999891
                },
                {
                    "name": "A4",
                    "midi": 69,
                    "time": 42.19453199999984,
                    "velocity": 0.47244094488188976,
                    "duration": 0.07481299999999891
                },
                {
                    "name": "F4",
                    "midi": 65,
                    "time": 42.19453199999984,
                    "velocity": 0.4015748031496063,
                    "duration": 0.07481299999999891
                },
                {
                    "name": "A4",
                    "midi": 69,
                    "time": 42.34415799999984,
                    "velocity": 0.3858267716535433,
                    "duration": 0.07481299999999891
                },
                {
                    "name": "F4",
                    "midi": 65,
                    "time": 42.34415799999984,
                    "velocity": 0.3228346456692913,
                    "duration": 0.07481299999999891
                },
                {
                    "name": "C4",
                    "midi": 60,
                    "time": 42.493783999999835,
                    "velocity": 0.3228346456692913,
                    "duration": 0.07481299999999891
                },
                {
                    "name": "G4",
                    "midi": 67,
                    "time": 42.493783999999835,
                    "velocity": 0.3858267716535433,
                    "duration": 0.07481299999999891
                },
                {
                    "name": "F4",
                    "midi": 65,
                    "time": 42.64340999999983,
                    "velocity": 0.4566929133858268,
                    "duration": 0.07481299999999891
                },
                {
                    "name": "A3",
                    "midi": 57,
                    "time": 42.64340999999983,
                    "velocity": 0.3858267716535433,
                    "duration": 0.07481299999999891
                },
                {
                    "name": "C5",
                    "midi": 72,
                    "time": 43.24191399999983,
                    "velocity": 0.4330708661417323,
                    "duration": 0.07481299999999891
                },
                {
                    "name": "A4",
                    "midi": 69,
                    "time": 43.24191399999983,
                    "velocity": 0.36220472440944884,
                    "duration": 0.07481299999999891
                },
                {
                    "name": "G4",
                    "midi": 67,
                    "time": 43.39153999999983,
                    "velocity": 0.36220472440944884,
                    "duration": 0.07481299999999891
                },
                {
                    "name": "A#4",
                    "midi": 70,
                    "time": 43.39153999999983,
                    "velocity": 0.4330708661417323,
                    "duration": 0.07481299999999891
                },
                {
                    "name": "F4",
                    "midi": 65,
                    "time": 43.541165999999826,
                    "velocity": 0.4015748031496063,
                    "duration": 0.07481299999999891
                },
                {
                    "name": "A4",
                    "midi": 69,
                    "time": 43.541165999999826,
                    "velocity": 0.47244094488188976,
                    "duration": 0.07481299999999891
                },
                {
                    "name": "F4",
                    "midi": 65,
                    "time": 43.690791999999824,
                    "velocity": 0.3228346456692913,
                    "duration": 0.07481299999999891
                },
                {
                    "name": "A4",
                    "midi": 69,
                    "time": 43.690791999999824,
                    "velocity": 0.3858267716535433,
                    "duration": 0.07481299999999891
                },
                {
                    "name": "G4",
                    "midi": 67,
                    "time": 43.84041799999982,
                    "velocity": 0.3858267716535433,
                    "duration": 0.07481299999999891
                },
                {
                    "name": "C4",
                    "midi": 60,
                    "time": 43.84041799999982,
                    "velocity": 0.3228346456692913,
                    "duration": 0.07481299999999891
                },
                {
                    "name": "F4",
                    "midi": 65,
                    "time": 43.99004399999982,
                    "velocity": 0.4566929133858268,
                    "duration": 0.07481299999999891
                },
                {
                    "name": "A3",
                    "midi": 57,
                    "time": 43.99004399999982,
                    "velocity": 0.3858267716535433,
                    "duration": 0.07481299999999891
                },
                {
                    "name": "F5",
                    "midi": 77,
                    "time": 44.289295999999815,
                    "velocity": 0.5826771653543307,
                    "duration": 0.07481299999999891
                },
                {
                    "name": "D5",
                    "midi": 74,
                    "time": 44.43892199999981,
                    "velocity": 0.5748031496062992,
                    "duration": 0.07481299999999891
                },
                {
                    "name": "D6",
                    "midi": 86,
                    "time": 44.43892199999981,
                    "velocity": 0.6850393700787402,
                    "duration": 0.07481299999999891
                },
                {
                    "name": "A#4",
                    "midi": 70,
                    "time": 44.58854799999981,
                    "velocity": 0.36220472440944884,
                    "duration": 0.07481299999999891
                },
                {
                    "name": "D5",
                    "midi": 74,
                    "time": 44.58854799999981,
                    "velocity": 0.4330708661417323,
                    "duration": 0.07481299999999891
                },
                {
                    "name": "C5",
                    "midi": 72,
                    "time": 44.73817399999981,
                    "velocity": 0.4330708661417323,
                    "duration": 0.07481299999999891
                },
                {
                    "name": "F4",
                    "midi": 65,
                    "time": 44.73817399999981,
                    "velocity": 0.36220472440944884,
                    "duration": 0.07481299999999891
                },
                {
                    "name": "D4",
                    "midi": 62,
                    "time": 44.88779999999981,
                    "velocity": 0.4015748031496063,
                    "duration": 0.07481299999999891
                },
                {
                    "name": "A#4",
                    "midi": 70,
                    "time": 44.88779999999981,
                    "velocity": 0.47244094488188976,
                    "duration": 0.07481299999999891
                },
                {
                    "name": "D5",
                    "midi": 74,
                    "time": 45.6359299999998,
                    "velocity": 0.5039370078740157,
                    "duration": 0.07481299999999891
                },
                {
                    "name": "B5",
                    "midi": 83,
                    "time": 45.7855559999998,
                    "velocity": 0.5748031496062992,
                    "duration": 0.07481299999999891
                },
                {
                    "name": "B4",
                    "midi": 71,
                    "time": 45.7855559999998,
                    "velocity": 0.4881889763779528,
                    "duration": 0.07481299999999891
                },
                {
                    "name": "B4",
                    "midi": 71,
                    "time": 45.9351819999998,
                    "velocity": 0.4330708661417323,
                    "duration": 0.07481299999999891
                },
                {
                    "name": "G#4",
                    "midi": 68,
                    "time": 45.9351819999998,
                    "velocity": 0.36220472440944884,
                    "duration": 0.07481299999999891
                },
                {
                    "name": "A4",
                    "midi": 69,
                    "time": 46.084807999999796,
                    "velocity": 0.4330708661417323,
                    "duration": 0.07481299999999891
                },
                {
                    "name": "F#4",
                    "midi": 66,
                    "time": 46.084807999999796,
                    "velocity": 0.36220472440944884,
                    "duration": 0.07481299999999891
                },
                {
                    "name": "G#4",
                    "midi": 68,
                    "time": 46.234433999999794,
                    "velocity": 0.47244094488188976,
                    "duration": 0.07481299999999891
                },
                {
                    "name": "F4",
                    "midi": 65,
                    "time": 46.234433999999794,
                    "velocity": 0.4015748031496063,
                    "duration": 0.07481299999999891
                },
                {
                    "name": "B4",
                    "midi": 71,
                    "time": 46.98256399999979,
                    "velocity": 0.3779527559055118,
                    "duration": 0.07481299999999891
                },
                {
                    "name": "G#4",
                    "midi": 68,
                    "time": 47.13218999999979,
                    "velocity": 0.3858267716535433,
                    "duration": 0.07481299999999891
                },
                {
                    "name": "G#5",
                    "midi": 80,
                    "time": 47.13218999999979,
                    "velocity": 0.4566929133858268,
                    "duration": 0.07481299999999891
                },
                {
                    "name": "G#4",
                    "midi": 68,
                    "time": 47.281815999999786,
                    "velocity": 0.4015748031496063,
                    "duration": 0.07481299999999891
                },
                {
                    "name": "F4",
                    "midi": 65,
                    "time": 47.281815999999786,
                    "velocity": 0.33858267716535434,
                    "duration": 0.07481299999999891
                },
                {
                    "name": "G4",
                    "midi": 67,
                    "time": 47.431441999999784,
                    "velocity": 0.3779527559055118,
                    "duration": 0.07481299999999891
                },
                {
                    "name": "E4",
                    "midi": 64,
                    "time": 47.431441999999784,
                    "velocity": 0.31496062992125984,
                    "duration": 0.07481299999999891
                },
                {
                    "name": "F4",
                    "midi": 65,
                    "time": 47.58106799999978,
                    "velocity": 0.3543307086614173,
                    "duration": 0.07481299999999891
                },
                {
                    "name": "D4",
                    "midi": 62,
                    "time": 47.58106799999978,
                    "velocity": 0.2992125984251969,
                    "duration": 0.07481299999999891
                },
                {
                    "name": "B4",
                    "midi": 71,
                    "time": 48.32919799999978,
                    "velocity": 0.5826771653543307,
                    "duration": 0.14962599999999782
                },
                {
                    "name": "F5",
                    "midi": 77,
                    "time": 48.478823999999776,
                    "velocity": 0.6535433070866141,
                    "duration": 0.07481299999999891
                },
                {
                    "name": "F4",
                    "midi": 65,
                    "time": 48.478823999999776,
                    "velocity": 0.5590551181102362,
                    "duration": 0.07481299999999891
                },
                {
                    "name": "F4",
                    "midi": 65,
                    "time": 48.77807599999977,
                    "velocity": 0.3858267716535433,
                    "duration": 0.43640916666666385
                },
                {
                    "name": "F4",
                    "midi": 65,
                    "time": 49.22695399999977,
                    "velocity": 0.3858267716535433,
                    "duration": 0.44887800000000055
                },
                {
                    "name": "B4",
                    "midi": 71,
                    "time": 49.67583199999977,
                    "velocity": 0.5826771653543307,
                    "duration": 0.14962599999999782
                },
                {
                    "name": "F#4",
                    "midi": 66,
                    "time": 49.82545799999977,
                    "velocity": 0.5590551181102362,
                    "duration": 0.07481299999999891
                },
                {
                    "name": "F#5",
                    "midi": 78,
                    "time": 49.82545799999977,
                    "velocity": 0.6535433070866141,
                    "duration": 0.07481299999999891
                },
                {
                    "name": "F#4",
                    "midi": 66,
                    "time": 50.124709999999766,
                    "velocity": 0.3858267716535433,
                    "duration": 0.43640916666666385
                },
                {
                    "name": "F#4",
                    "midi": 66,
                    "time": 50.573587999999766,
                    "velocity": 0.3858267716535433,
                    "duration": 0.44887800000000055
                },
                {
                    "name": "B4",
                    "midi": 71,
                    "time": 51.02246599999977,
                    "velocity": 0.5826771653543307,
                    "duration": 0.14962599999999782
                },
                {
                    "name": "G4",
                    "midi": 67,
                    "time": 51.172091999999765,
                    "velocity": 0.5590551181102362,
                    "duration": 0.07481299999999891
                },
                {
                    "name": "D5",
                    "midi": 74,
                    "time": 51.172091999999765,
                    "velocity": 0.5590551181102362,
                    "duration": 0.07481299999999891
                },
                {
                    "name": "G5",
                    "midi": 79,
                    "time": 51.172091999999765,
                    "velocity": 0.6535433070866141,
                    "duration": 0.07481299999999891
                },
                {
                    "name": "F5",
                    "midi": 77,
                    "time": 51.172091999999765,
                    "velocity": 0.5590551181102362,
                    "duration": 0.07481299999999891
                },
                {
                    "name": "G4",
                    "midi": 67,
                    "time": 51.47134399999976,
                    "velocity": 0.47244094488188976,
                    "duration": 0.43640916666666385
                },
                {
                    "name": "B4",
                    "midi": 71,
                    "time": 51.47134399999976,
                    "velocity": 0.47244094488188976,
                    "duration": 0.43640916666666385
                },
                {
                    "name": "D5",
                    "midi": 74,
                    "time": 51.47134399999976,
                    "velocity": 0.47244094488188976,
                    "duration": 0.43640916666666385
                },
                {
                    "name": "G5",
                    "midi": 79,
                    "time": 51.47134399999976,
                    "velocity": 0.5590551181102362,
                    "duration": 0.43640916666666385
                },
                {
                    "name": "F5",
                    "midi": 77,
                    "time": 51.47134399999976,
                    "velocity": 0.47244094488188976,
                    "duration": 0.43640916666666385
                },
                {
                    "name": "B4",
                    "midi": 71,
                    "time": 51.92022199999976,
                    "velocity": 0.4881889763779528,
                    "duration": 0.43640916666666385
                },
                {
                    "name": "G4",
                    "midi": 67,
                    "time": 51.92022199999976,
                    "velocity": 0.4881889763779528,
                    "duration": 0.43640916666666385
                },
                {
                    "name": "G5",
                    "midi": 79,
                    "time": 51.92022199999976,
                    "velocity": 0.5826771653543307,
                    "duration": 0.44887800000000055
                },
                {
                    "name": "D5",
                    "midi": 74,
                    "time": 51.92022199999976,
                    "velocity": 0.4881889763779528,
                    "duration": 0.43640916666666385
                },
                {
                    "name": "F5",
                    "midi": 77,
                    "time": 51.92022199999976,
                    "velocity": 0.4881889763779528,
                    "duration": 0.43640916666666385
                },
                {
                    "name": "B4",
                    "midi": 71,
                    "time": 52.36909999999976,
                    "velocity": 0.5196850393700787,
                    "duration": 0.09351625000000041
                },
                {
                    "name": "D5",
                    "midi": 74,
                    "time": 52.36909999999976,
                    "velocity": 0.5196850393700787,
                    "duration": 0.09351625000000041
                },
                {
                    "name": "F5",
                    "midi": 77,
                    "time": 52.36909999999976,
                    "velocity": 0.6141732283464567,
                    "duration": 0.09351625000000041
                },
                {
                    "name": "G5",
                    "midi": 79,
                    "time": 52.36909999999976,
                    "velocity": 0.6141732283464567,
                    "duration": 0.09351625000000041
                },
                {
                    "name": "G4",
                    "midi": 67,
                    "time": 52.36909999999976,
                    "velocity": 0.5196850393700787,
                    "duration": 0.09351625000000041
                },
                {
                    "name": "G5",
                    "midi": 79,
                    "time": 52.46261624999976,
                    "velocity": 0.5984251968503937,
                    "duration": 0.13092275000000342
                },
                {
                    "name": "B5",
                    "midi": 83,
                    "time": 52.48131949999976,
                    "velocity": 0.6220472440944882,
                    "duration": 0.11221950000000191
                },
                {
                    "name": "F6",
                    "midi": 89,
                    "time": 52.500022749999765,
                    "velocity": 0.6535433070866141,
                    "duration": 0.09351625000000041
                },
                {
                    "name": "G6",
                    "midi": 91,
                    "time": 52.518725999999766,
                    "velocity": 0.6850393700787402,
                    "duration": 0.07481299999999891
                },
                {
                    "name": "G4",
                    "midi": 67,
                    "time": 52.81797799999976,
                    "velocity": 0.47244094488188976,
                    "duration": 0.44887800000000055
                },
                {
                    "name": "G5",
                    "midi": 79,
                    "time": 52.81797799999976,
                    "velocity": 0.5590551181102362,
                    "duration": 0.44887800000000055
                },
                {
                    "name": "F5",
                    "midi": 77,
                    "time": 52.81797799999976,
                    "velocity": 0.47244094488188976,
                    "duration": 0.44887800000000055
                },
                {
                    "name": "G4",
                    "midi": 67,
                    "time": 53.26685599999976,
                    "velocity": 0.47244094488188976,
                    "duration": 0.07481299999999891
                },
                {
                    "name": "F5",
                    "midi": 77,
                    "time": 53.26685599999976,
                    "velocity": 0.47244094488188976,
                    "duration": 0.07481299999999891
                },
                {
                    "name": "G5",
                    "midi": 79,
                    "time": 53.26685599999976,
                    "velocity": 0.5590551181102362,
                    "duration": 0.07481299999999891
                },
                {
                    "name": "G4",
                    "midi": 67,
                    "time": 53.41648199999976,
                    "velocity": 0.4566929133858268,
                    "duration": 0.07481299999999891
                },
                {
                    "name": "G5",
                    "midi": 79,
                    "time": 53.41648199999976,
                    "velocity": 0.5433070866141733,
                    "duration": 0.07481299999999891
                },
                {
                    "name": "F5",
                    "midi": 77,
                    "time": 53.41648199999976,
                    "velocity": 0.4566929133858268,
                    "duration": 0.07481299999999891
                },
                {
                    "name": "F5",
                    "midi": 77,
                    "time": 53.56610799999976,
                    "velocity": 0.4881889763779528,
                    "duration": 0.07481299999999891
                },
                {
                    "name": "A4",
                    "midi": 69,
                    "time": 53.56610799999976,
                    "velocity": 0.4881889763779528,
                    "duration": 0.07481299999999891
                },
                {
                    "name": "A5",
                    "midi": 81,
                    "time": 53.56610799999976,
                    "velocity": 0.5748031496062992,
                    "duration": 0.07481299999999891
                },
                {
                    "name": "B5",
                    "midi": 83,
                    "time": 53.715733999999756,
                    "velocity": 0.6062992125984252,
                    "duration": 0.07481299999999891
                },
                {
                    "name": "F5",
                    "midi": 77,
                    "time": 53.715733999999756,
                    "velocity": 0.5118110236220472,
                    "duration": 0.07481299999999891
                },
                {
                    "name": "B4",
                    "midi": 71,
                    "time": 53.715733999999756,
                    "velocity": 0.5118110236220472,
                    "duration": 0.07481299999999891
                },
                {
                    "name": "E5",
                    "midi": 76,
                    "time": 53.865359999999754,
                    "velocity": 0.5433070866141733,
                    "duration": 0.07481299999999891
                },
                {
                    "name": "C5",
                    "midi": 72,
                    "time": 53.865359999999754,
                    "velocity": 0.5433070866141733,
                    "duration": 0.07481299999999891
                },
                {
                    "name": "C6",
                    "midi": 84,
                    "time": 53.865359999999754,
                    "velocity": 0.6456692913385826,
                    "duration": 0.07481299999999891
                },
                {
                    "name": "C4",
                    "midi": 60,
                    "time": 54.16461199999975,
                    "velocity": 0.3543307086614173,
                    "duration": 0.07481299999999891
                },
                {
                    "name": "E4",
                    "midi": 64,
                    "time": 54.16461199999975,
                    "velocity": 0.4251968503937008,
                    "duration": 0.07481299999999891
                },
                {
                    "name": "E4",
                    "midi": 64,
                    "time": 54.31423799999975,
                    "velocity": 0.4645669291338583,
                    "duration": 0.07481299999999891
                },
                {
                    "name": "C4",
                    "midi": 60,
                    "time": 54.31423799999975,
                    "velocity": 0.3937007874015748,
                    "duration": 0.07481299999999891
                },
                {
                    "name": "F4",
                    "midi": 65,
                    "time": 54.463863999999745,
                    "velocity": 0.41732283464566927,
                    "duration": 0.07481299999999891
                },
                {
                    "name": "D4",
                    "midi": 62,
                    "time": 54.463863999999745,
                    "velocity": 0.3543307086614173,
                    "duration": 0.07481299999999891
                },
                {
                    "name": "E4",
                    "midi": 64,
                    "time": 54.61348999999974,
                    "velocity": 0.3543307086614173,
                    "duration": 0.07481299999999891
                },
                {
                    "name": "G4",
                    "midi": 67,
                    "time": 54.61348999999974,
                    "velocity": 0.41732283464566927,
                    "duration": 0.07481299999999891
                },
                {
                    "name": "F4",
                    "midi": 65,
                    "time": 54.76311599999974,
                    "velocity": 0.3937007874015748,
                    "duration": 0.07481299999999891
                },
                {
                    "name": "A4",
                    "midi": 69,
                    "time": 54.76311599999974,
                    "velocity": 0.4645669291338583,
                    "duration": 0.07481299999999891
                },
                {
                    "name": "E4",
                    "midi": 64,
                    "time": 54.91274199999974,
                    "velocity": 0.3543307086614173,
                    "duration": 0.07481299999999891
                },
                {
                    "name": "G4",
                    "midi": 67,
                    "time": 54.91274199999974,
                    "velocity": 0.4251968503937008,
                    "duration": 0.07481299999999891
                },
                {
                    "name": "C5",
                    "midi": 72,
                    "time": 55.02496149999974,
                    "velocity": 0.5275590551181102,
                    "duration": 0.14962600000000492
                },
                {
                    "name": "E5",
                    "midi": 76,
                    "time": 55.04366474999974,
                    "velocity": 0.5275590551181102,
                    "duration": 0.13092275000000342
                },
                {
                    "name": "C6",
                    "midi": 84,
                    "time": 55.06236799999974,
                    "velocity": 0.6299212598425197,
                    "duration": 0.11221950000000191
                },
                {
                    "name": "C4",
                    "midi": 60,
                    "time": 55.21199399999975,
                    "velocity": 0.3937007874015748,
                    "duration": 0.07481299999999891
                },
                {
                    "name": "E4",
                    "midi": 64,
                    "time": 55.21199399999975,
                    "velocity": 0.4645669291338583,
                    "duration": 0.07481299999999891
                },
                {
                    "name": "D4",
                    "midi": 62,
                    "time": 55.361619999999746,
                    "velocity": 0.3543307086614173,
                    "duration": 0.07481299999999891
                },
                {
                    "name": "F4",
                    "midi": 65,
                    "time": 55.361619999999746,
                    "velocity": 0.41732283464566927,
                    "duration": 0.07481299999999891
                },
                {
                    "name": "G4",
                    "midi": 67,
                    "time": 55.511245999999744,
                    "velocity": 0.41732283464566927,
                    "duration": 0.07481299999999891
                },
                {
                    "name": "E4",
                    "midi": 64,
                    "time": 55.511245999999744,
                    "velocity": 0.3543307086614173,
                    "duration": 0.07481299999999891
                },
                {
                    "name": "A4",
                    "midi": 69,
                    "time": 55.66087199999974,
                    "velocity": 0.4645669291338583,
                    "duration": 0.07481299999999891
                },
                {
                    "name": "F4",
                    "midi": 65,
                    "time": 55.66087199999974,
                    "velocity": 0.3937007874015748,
                    "duration": 0.07481299999999891
                },
                {
                    "name": "G4",
                    "midi": 67,
                    "time": 55.81049799999974,
                    "velocity": 0.4251968503937008,
                    "duration": 0.07481299999999891
                },
                {
                    "name": "E4",
                    "midi": 64,
                    "time": 55.81049799999974,
                    "velocity": 0.3543307086614173,
                    "duration": 0.07481299999999891
                },
                {
                    "name": "F4",
                    "midi": 65,
                    "time": 55.96012399999974,
                    "velocity": 0.3543307086614173,
                    "duration": 0.07481299999999891
                },
                {
                    "name": "A4",
                    "midi": 69,
                    "time": 55.96012399999974,
                    "velocity": 0.41732283464566927,
                    "duration": 0.07481299999999891
                },
                {
                    "name": "B4",
                    "midi": 71,
                    "time": 56.109749999999735,
                    "velocity": 0.4645669291338583,
                    "duration": 0.07481299999999891
                },
                {
                    "name": "G4",
                    "midi": 67,
                    "time": 56.109749999999735,
                    "velocity": 0.3937007874015748,
                    "duration": 0.07481299999999891
                },
                {
                    "name": "A4",
                    "midi": 69,
                    "time": 56.25937599999973,
                    "velocity": 0.3543307086614173,
                    "duration": 0.07481299999999891
                },
                {
                    "name": "C5",
                    "midi": 72,
                    "time": 56.25937599999973,
                    "velocity": 0.4251968503937008,
                    "duration": 0.07481299999999891
                },
                {
                    "name": "D5",
                    "midi": 74,
                    "time": 56.40900199999973,
                    "velocity": 0.41732283464566927,
                    "duration": 0.07481299999999891
                },
                {
                    "name": "B4",
                    "midi": 71,
                    "time": 56.40900199999973,
                    "velocity": 0.3543307086614173,
                    "duration": 0.07481299999999891
                },
                {
                    "name": "E5",
                    "midi": 76,
                    "time": 56.52122149999973,
                    "velocity": 0.5275590551181102,
                    "duration": 0.14962600000001203
                },
                {
                    "name": "G5",
                    "midi": 79,
                    "time": 56.53369033333307,
                    "velocity": 0.5275590551181102,
                    "duration": 0.13715716666667532
                },
                {
                    "name": "C#6",
                    "midi": 85,
                    "time": 56.546159166666406,
                    "velocity": 0.5275590551181102,
                    "duration": 0.12468833333333862
                },
                {
                    "name": "E6",
                    "midi": 88,
                    "time": 56.55862799999974,
                    "velocity": 0.6299212598425197,
                    "duration": 0.11221950000000191
                },
                {
                    "name": "C#4",
                    "midi": 61,
                    "time": 56.857879999999746,
                    "velocity": 0.3543307086614173,
                    "duration": 0.07481299999999891
                },
                {
                    "name": "E4",
                    "midi": 64,
                    "time": 56.857879999999746,
                    "velocity": 0.4251968503937008,
                    "duration": 0.07481299999999891
                },
                {
                    "name": "C#4",
                    "midi": 61,
                    "time": 57.00750599999974,
                    "velocity": 0.4015748031496063,
                    "duration": 0.07481299999999891
                },
                {
                    "name": "E4",
                    "midi": 64,
                    "time": 57.00750599999974,
                    "velocity": 0.47244094488188976,
                    "duration": 0.07481299999999891
                },
                {
                    "name": "D4",
                    "midi": 62,
                    "time": 57.15713199999974,
                    "velocity": 0.36220472440944884,
                    "duration": 0.07481299999999891
                },
                {
                    "name": "F4",
                    "midi": 65,
                    "time": 57.15713199999974,
                    "velocity": 0.4409448818897638,
                    "duration": 0.07481299999999891
                },
                {
                    "name": "E4",
                    "midi": 64,
                    "time": 57.30675799999974,
                    "velocity": 0.3779527559055118,
                    "duration": 0.07481299999999891
                },
                {
                    "name": "G4",
                    "midi": 67,
                    "time": 57.30675799999974,
                    "velocity": 0.44881889763779526,
                    "duration": 0.07481299999999891
                },
                {
                    "name": "A4",
                    "midi": 69,
                    "time": 57.45638399999974,
                    "velocity": 0.5118110236220472,
                    "duration": 0.07481299999999891
                },
                {
                    "name": "F4",
                    "midi": 65,
                    "time": 57.45638399999974,
                    "velocity": 0.4330708661417323,
                    "duration": 0.07481299999999891
                },
                {
                    "name": "G4",
                    "midi": 67,
                    "time": 57.606009999999735,
                    "velocity": 0.48031496062992124,
                    "duration": 0.07481299999999891
                },
                {
                    "name": "E4",
                    "midi": 64,
                    "time": 57.606009999999735,
                    "velocity": 0.4015748031496063,
                    "duration": 0.07481299999999891
                },
                {
                    "name": "E5",
                    "midi": 76,
                    "time": 57.71822949999974,
                    "velocity": 0.6141732283464567,
                    "duration": 0.14962600000001203
                },
                {
                    "name": "G5",
                    "midi": 79,
                    "time": 57.73069833333307,
                    "velocity": 0.6141732283464567,
                    "duration": 0.13715716666667532
                },
                {
                    "name": "C#6",
                    "midi": 85,
                    "time": 57.74316716666641,
                    "velocity": 0.6141732283464567,
                    "duration": 0.12468833333333862
                },
                {
                    "name": "E6",
                    "midi": 88,
                    "time": 57.75563599999975,
                    "velocity": 0.7322834645669292,
                    "duration": 0.11221950000000191
                },
                {
                    "name": "E4",
                    "midi": 64,
                    "time": 57.90526199999975,
                    "velocity": 0.3937007874015748,
                    "duration": 0.07481299999999891
                },
                {
                    "name": "G4",
                    "midi": 67,
                    "time": 57.90526199999975,
                    "velocity": 0.4645669291338583,
                    "duration": 0.07481299999999891
                },
                {
                    "name": "A4",
                    "midi": 69,
                    "time": 58.05488799999975,
                    "velocity": 0.41732283464566927,
                    "duration": 0.07481299999999891
                },
                {
                    "name": "F4",
                    "midi": 65,
                    "time": 58.05488799999975,
                    "velocity": 0.3543307086614173,
                    "duration": 0.07481299999999891
                },
                {
                    "name": "G4",
                    "midi": 67,
                    "time": 58.20451399999975,
                    "velocity": 0.3543307086614173,
                    "duration": 0.07481299999999891
                },
                {
                    "name": "B4",
                    "midi": 71,
                    "time": 58.20451399999975,
                    "velocity": 0.41732283464566927,
                    "duration": 0.07481299999999891
                },
                {
                    "name": "A4",
                    "midi": 69,
                    "time": 58.354139999999745,
                    "velocity": 0.3937007874015748,
                    "duration": 0.07481299999999891
                },
                {
                    "name": "C#5",
                    "midi": 73,
                    "time": 58.354139999999745,
                    "velocity": 0.4645669291338583,
                    "duration": 0.07481299999999891
                },
                {
                    "name": "B4",
                    "midi": 71,
                    "time": 58.50376599999974,
                    "velocity": 0.4251968503937008,
                    "duration": 0.07481299999999891
                },
                {
                    "name": "G4",
                    "midi": 67,
                    "time": 58.50376599999974,
                    "velocity": 0.3543307086614173,
                    "duration": 0.07481299999999891
                },
                {
                    "name": "C#5",
                    "midi": 73,
                    "time": 58.65339199999974,
                    "velocity": 0.41732283464566927,
                    "duration": 0.07481299999999891
                },
                {
                    "name": "A4",
                    "midi": 69,
                    "time": 58.65339199999974,
                    "velocity": 0.3543307086614173,
                    "duration": 0.07481299999999891
                },
                {
                    "name": "B4",
                    "midi": 71,
                    "time": 58.80301799999974,
                    "velocity": 0.3937007874015748,
                    "duration": 0.07481299999999891
                },
                {
                    "name": "D5",
                    "midi": 74,
                    "time": 58.80301799999974,
                    "velocity": 0.4645669291338583,
                    "duration": 0.07481299999999891
                },
                {
                    "name": "E5",
                    "midi": 76,
                    "time": 58.95264399999974,
                    "velocity": 0.4251968503937008,
                    "duration": 0.07481299999999891
                },
                {
                    "name": "C#5",
                    "midi": 73,
                    "time": 58.95264399999974,
                    "velocity": 0.3543307086614173,
                    "duration": 0.07481299999999891
                },
                {
                    "name": "E5",
                    "midi": 76,
                    "time": 59.102269999999734,
                    "velocity": 0.3543307086614173,
                    "duration": 0.07481299999999891
                },
                {
                    "name": "G5",
                    "midi": 79,
                    "time": 59.102269999999734,
                    "velocity": 0.41732283464566927,
                    "duration": 0.07481299999999891
                },
                {
                    "name": "A5",
                    "midi": 81,
                    "time": 59.214489499999736,
                    "velocity": 0.5275590551181102,
                    "duration": 0.14962600000001203
                },
                {
                    "name": "C6",
                    "midi": 84,
                    "time": 59.22695833333307,
                    "velocity": 0.5275590551181102,
                    "duration": 0.13715716666667532
                },
                {
                    "name": "F6",
                    "midi": 89,
                    "time": 59.23942716666641,
                    "velocity": 0.5275590551181102,
                    "duration": 0.12468833333333862
                },
                {
                    "name": "A6",
                    "midi": 93,
                    "time": 59.251895999999746,
                    "velocity": 0.6299212598425197,
                    "duration": 0.11221950000000191
                },
                {
                    "name": "F4",
                    "midi": 65,
                    "time": 59.55114799999975,
                    "velocity": 0.3543307086614173,
                    "duration": 0.07481299999999891
                },
                {
                    "name": "A4",
                    "midi": 69,
                    "time": 59.55114799999975,
                    "velocity": 0.4251968503937008,
                    "duration": 0.07481299999999891
                },
                {
                    "name": "A4",
                    "midi": 69,
                    "time": 59.70077399999975,
                    "velocity": 0.47244094488188976,
                    "duration": 0.07481299999999891
                },
                {
                    "name": "F4",
                    "midi": 65,
                    "time": 59.70077399999975,
                    "velocity": 0.4015748031496063,
                    "duration": 0.07481299999999891
                },
                {
                    "name": "G4",
                    "midi": 67,
                    "time": 59.850399999999745,
                    "velocity": 0.36220472440944884,
                    "duration": 0.07481299999999891
                },
                {
                    "name": "A#4",
                    "midi": 70,
                    "time": 59.850399999999745,
                    "velocity": 0.4409448818897638,
                    "duration": 0.07481299999999891
                },
                {
                    "name": "A4",
                    "midi": 69,
                    "time": 60.00002599999974,
                    "velocity": 0.3779527559055118,
                    "duration": 0.07481299999999891
                },
                {
                    "name": "C5",
                    "midi": 72,
                    "time": 60.00002599999974,
                    "velocity": 0.44881889763779526,
                    "duration": 0.07481299999999891
                },
                {
                    "name": "A#4",
                    "midi": 70,
                    "time": 60.14965199999974,
                    "velocity": 0.4330708661417323,
                    "duration": 0.07481299999999891
                },
                {
                    "name": "D5",
                    "midi": 74,
                    "time": 60.14965199999974,
                    "velocity": 0.5118110236220472,
                    "duration": 0.07481299999999891
                },
                {
                    "name": "A4",
                    "midi": 69,
                    "time": 60.29927799999974,
                    "velocity": 0.4015748031496063,
                    "duration": 0.07481299999999891
                },
                {
                    "name": "C5",
                    "midi": 72,
                    "time": 60.29927799999974,
                    "velocity": 0.48031496062992124,
                    "duration": 0.07481299999999891
                },
                {
                    "name": "A5",
                    "midi": 81,
                    "time": 60.41149749999974,
                    "velocity": 0.6141732283464567,
                    "duration": 0.14962600000001203
                },
                {
                    "name": "C6",
                    "midi": 84,
                    "time": 60.42396633333308,
                    "velocity": 0.6141732283464567,
                    "duration": 0.13715716666667532
                },
                {
                    "name": "F6",
                    "midi": 89,
                    "time": 60.43643516666641,
                    "velocity": 0.6141732283464567,
                    "duration": 0.12468833333333862
                },
                {
                    "name": "A6",
                    "midi": 93,
                    "time": 60.44890399999975,
                    "velocity": 0.7322834645669292,
                    "duration": 0.11221950000000191
                },
                {
                    "name": "B5",
                    "midi": 83,
                    "time": 60.598529999999755,
                    "velocity": 0.5118110236220472,
                    "duration": 0.07481299999999891
                },
                {
                    "name": "G5",
                    "midi": 79,
                    "time": 60.598529999999755,
                    "velocity": 0.4251968503937008,
                    "duration": 0.07481299999999891
                },
                {
                    "name": "B4",
                    "midi": 71,
                    "time": 60.598529999999755,
                    "velocity": 0.4251968503937008,
                    "duration": 0.07481299999999891
                },
                {
                    "name": "A5",
                    "midi": 81,
                    "time": 60.74815599999975,
                    "velocity": 0.3937007874015748,
                    "duration": 0.07481299999999891
                },
                {
                    "name": "C5",
                    "midi": 72,
                    "time": 60.74815599999975,
                    "velocity": 0.3937007874015748,
                    "duration": 0.07481299999999891
                },
                {
                    "name": "C6",
                    "midi": 84,
                    "time": 60.74815599999975,
                    "velocity": 0.47244094488188976,
                    "duration": 0.07481299999999891
                },
                {
                    "name": "B5",
                    "midi": 83,
                    "time": 60.89778199999975,
                    "velocity": 0.4015748031496063,
                    "duration": 0.07481299999999891
                },
                {
                    "name": "D6",
                    "midi": 86,
                    "time": 60.89778199999975,
                    "velocity": 0.4881889763779528,
                    "duration": 0.07481299999999891
                },
                {
                    "name": "D5",
                    "midi": 74,
                    "time": 60.89778199999975,
                    "velocity": 0.4015748031496063,
                    "duration": 0.07481299999999891
                },
                {
                    "name": "C6",
                    "midi": 84,
                    "time": 61.04740799999975,
                    "velocity": 0.4645669291338583,
                    "duration": 0.07481299999999891
                },
                {
                    "name": "E5",
                    "midi": 76,
                    "time": 61.04740799999975,
                    "velocity": 0.4645669291338583,
                    "duration": 0.07481299999999891
                },
                {
                    "name": "E6",
                    "midi": 88,
                    "time": 61.04740799999975,
                    "velocity": 0.5590551181102362,
                    "duration": 0.07481299999999891
                },
                {
                    "name": "D6",
                    "midi": 86,
                    "time": 61.197033999999746,
                    "velocity": 0.4409448818897638,
                    "duration": 0.07481299999999891
                },
                {
                    "name": "F5",
                    "midi": 77,
                    "time": 61.197033999999746,
                    "velocity": 0.4409448818897638,
                    "duration": 0.07481299999999891
                },
                {
                    "name": "F6",
                    "midi": 89,
                    "time": 61.197033999999746,
                    "velocity": 0.5196850393700787,
                    "duration": 0.07481299999999891
                },
                {
                    "name": "G5",
                    "midi": 79,
                    "time": 61.346659999999744,
                    "velocity": 0.4409448818897638,
                    "duration": 0.07481299999999891
                },
                {
                    "name": "G6",
                    "midi": 91,
                    "time": 61.346659999999744,
                    "velocity": 0.5275590551181102,
                    "duration": 0.07481299999999891
                },
                {
                    "name": "B5",
                    "midi": 83,
                    "time": 61.346659999999744,
                    "velocity": 0.4409448818897638,
                    "duration": 0.07481299999999891
                },
                {
                    "name": "G5",
                    "midi": 79,
                    "time": 61.49628599999974,
                    "velocity": 0.5039370078740157,
                    "duration": 0.07481299999999891
                },
                {
                    "name": "B5",
                    "midi": 83,
                    "time": 61.49628599999974,
                    "velocity": 0.5039370078740157,
                    "duration": 0.07481299999999891
                },
                {
                    "name": "G6",
                    "midi": 91,
                    "time": 61.49628599999974,
                    "velocity": 0.6062992125984252,
                    "duration": 0.07481299999999891
                },
                {
                    "name": "B5",
                    "midi": 83,
                    "time": 61.64591199999974,
                    "velocity": 0.47244094488188976,
                    "duration": 0.07481299999999891
                },
                {
                    "name": "G6",
                    "midi": 91,
                    "time": 61.64591199999974,
                    "velocity": 0.5669291338582677,
                    "duration": 0.07481299999999891
                },
                {
                    "name": "G5",
                    "midi": 79,
                    "time": 61.64591199999974,
                    "velocity": 0.47244094488188976,
                    "duration": 0.07481299999999891
                },
                {
                    "name": "G6",
                    "midi": 91,
                    "time": 61.79553799999974,
                    "velocity": 0.5669291338582677,
                    "duration": 0.07481299999999891
                },
                {
                    "name": "G5",
                    "midi": 79,
                    "time": 61.79553799999974,
                    "velocity": 0.48031496062992124,
                    "duration": 0.07481299999999891
                },
                {
                    "name": "B5",
                    "midi": 83,
                    "time": 61.79553799999974,
                    "velocity": 0.48031496062992124,
                    "duration": 0.07481299999999891
                },
                {
                    "name": "G5",
                    "midi": 79,
                    "time": 61.945163999999735,
                    "velocity": 0.5984251968503937,
                    "duration": 0.5985039999999984
                },
                {
                    "name": "C6",
                    "midi": 84,
                    "time": 61.945163999999735,
                    "velocity": 0.5984251968503937,
                    "duration": 0.5985039999999984
                },
                {
                    "name": "G6",
                    "midi": 91,
                    "time": 61.945163999999735,
                    "velocity": 0.7086614173228346,
                    "duration": 0.5985039999999984
                },
                {
                    "name": "C6",
                    "midi": 84,
                    "time": 62.543667999999734,
                    "velocity": 0.5354330708661418,
                    "duration": 0.07481299999999891
                },
                {
                    "name": "F6",
                    "midi": 89,
                    "time": 62.543667999999734,
                    "velocity": 0.6377952755905512,
                    "duration": 0.07481299999999891
                },
                {
                    "name": "F5",
                    "midi": 77,
                    "time": 62.543667999999734,
                    "velocity": 0.5354330708661418,
                    "duration": 0.07481299999999891
                },
                {
                    "name": "E5",
                    "midi": 76,
                    "time": 62.69329399999973,
                    "velocity": 0.5354330708661418,
                    "duration": 0.07481299999999891
                },
                {
                    "name": "E6",
                    "midi": 88,
                    "time": 62.69329399999973,
                    "velocity": 0.6377952755905512,
                    "duration": 0.07481299999999891
                },
                {
                    "name": "C6",
                    "midi": 84,
                    "time": 62.69329399999973,
                    "velocity": 0.5354330708661418,
                    "duration": 0.07481299999999891
                },
                {
                    "name": "C6",
                    "midi": 84,
                    "time": 62.84291999999973,
                    "velocity": 0.5984251968503937,
                    "duration": 0.5985039999999984
                },
                {
                    "name": "F6",
                    "midi": 89,
                    "time": 62.84291999999973,
                    "velocity": 0.7086614173228346,
                    "duration": 0.5985039999999984
                },
                {
                    "name": "F5",
                    "midi": 77,
                    "time": 62.84291999999973,
                    "velocity": 0.5984251968503937,
                    "duration": 0.5985039999999984
                },
                {
                    "name": "E6",
                    "midi": 88,
                    "time": 63.44142399999973,
                    "velocity": 0.6377952755905512,
                    "duration": 0.07481299999999891
                },
                {
                    "name": "E5",
                    "midi": 76,
                    "time": 63.44142399999973,
                    "velocity": 0.5354330708661418,
                    "duration": 0.07481299999999891
                },
                {
                    "name": "C6",
                    "midi": 84,
                    "time": 63.44142399999973,
                    "velocity": 0.5354330708661418,
                    "duration": 0.07481299999999891
                },
                {
                    "name": "C6",
                    "midi": 84,
                    "time": 63.591049999999726,
                    "velocity": 0.5354330708661418,
                    "duration": 0.07481299999999891
                },
                {
                    "name": "D6",
                    "midi": 86,
                    "time": 63.591049999999726,
                    "velocity": 0.6377952755905512,
                    "duration": 0.07481299999999891
                },
                {
                    "name": "D5",
                    "midi": 74,
                    "time": 63.591049999999726,
                    "velocity": 0.5354330708661418,
                    "duration": 0.07481299999999891
                },
                {
                    "name": "C6",
                    "midi": 84,
                    "time": 63.74067599999972,
                    "velocity": 0.5984251968503937,
                    "duration": 0.07481299999999891
                },
                {
                    "name": "E6",
                    "midi": 88,
                    "time": 63.74067599999972,
                    "velocity": 0.7086614173228346,
                    "duration": 0.07481299999999891
                },
                {
                    "name": "E5",
                    "midi": 76,
                    "time": 63.74067599999972,
                    "velocity": 0.5984251968503937,
                    "duration": 0.07481299999999891
                },
                {
                    "name": "D5",
                    "midi": 74,
                    "time": 63.89030199999972,
                    "velocity": 0.5354330708661418,
                    "duration": 0.07481299999999891
                },
                {
                    "name": "D6",
                    "midi": 86,
                    "time": 63.89030199999972,
                    "velocity": 0.6377952755905512,
                    "duration": 0.07481299999999891
                },
                {
                    "name": "C5",
                    "midi": 72,
                    "time": 64.03992799999972,
                    "velocity": 0.5354330708661418,
                    "duration": 0.07481300000000601
                },
                {
                    "name": "C6",
                    "midi": 84,
                    "time": 64.03992799999972,
                    "velocity": 0.6377952755905512,
                    "duration": 0.07481300000000601
                },
                {
                    "name": "D5",
                    "midi": 74,
                    "time": 64.18955399999973,
                    "velocity": 0.5984251968503937,
                    "duration": 0.07481300000000601
                },
                {
                    "name": "D6",
                    "midi": 86,
                    "time": 64.18955399999973,
                    "velocity": 0.7086614173228346,
                    "duration": 0.07481300000000601
                },
                {
                    "name": "G5",
                    "midi": 79,
                    "time": 64.48880599999974,
                    "velocity": 0.6377952755905512,
                    "duration": 0.07481300000000601
                },
                {
                    "name": "G4",
                    "midi": 67,
                    "time": 64.48880599999974,
                    "velocity": 0.5354330708661418,
                    "duration": 0.07481300000000601
                },
                {
                    "name": "G6",
                    "midi": 91,
                    "time": 64.63843199999975,
                    "velocity": 0.7086614173228346,
                    "duration": 0.5985040000000055
                },
                {
                    "name": "C6",
                    "midi": 84,
                    "time": 64.63843199999975,
                    "velocity": 0.5984251968503937,
                    "duration": 0.5985040000000055
                },
                {
                    "name": "G5",
                    "midi": 79,
                    "time": 64.63843199999975,
                    "velocity": 0.5984251968503937,
                    "duration": 0.5985040000000055
                },
                {
                    "name": "F5",
                    "midi": 77,
                    "time": 65.23693599999976,
                    "velocity": 0.5354330708661418,
                    "duration": 0.07481300000000601
                },
                {
                    "name": "F6",
                    "midi": 89,
                    "time": 65.23693599999976,
                    "velocity": 0.6377952755905512,
                    "duration": 0.07481300000000601
                },
                {
                    "name": "C6",
                    "midi": 84,
                    "time": 65.23693599999976,
                    "velocity": 0.5354330708661418,
                    "duration": 0.07481300000000601
                },
                {
                    "name": "C6",
                    "midi": 84,
                    "time": 65.38656199999977,
                    "velocity": 0.5354330708661418,
                    "duration": 0.07481300000000601
                },
                {
                    "name": "D#6",
                    "midi": 87,
                    "time": 65.38656199999977,
                    "velocity": 0.6377952755905512,
                    "duration": 0.07481300000000601
                },
                {
                    "name": "D#5",
                    "midi": 75,
                    "time": 65.38656199999977,
                    "velocity": 0.5354330708661418,
                    "duration": 0.07481300000000601
                },
                {
                    "name": "F6",
                    "midi": 89,
                    "time": 65.53618799999978,
                    "velocity": 0.7086614173228346,
                    "duration": 0.5985040000000055
                },
                {
                    "name": "C6",
                    "midi": 84,
                    "time": 65.53618799999978,
                    "velocity": 0.5984251968503937,
                    "duration": 0.5985040000000055
                },
                {
                    "name": "F5",
                    "midi": 77,
                    "time": 65.53618799999978,
                    "velocity": 0.5984251968503937,
                    "duration": 0.5985040000000055
                },
                {
                    "name": "D#6",
                    "midi": 87,
                    "time": 66.13469199999979,
                    "velocity": 0.6377952755905512,
                    "duration": 0.07481300000000601
                },
                {
                    "name": "C6",
                    "midi": 84,
                    "time": 66.13469199999979,
                    "velocity": 0.5354330708661418,
                    "duration": 0.07481300000000601
                },
                {
                    "name": "D#5",
                    "midi": 75,
                    "time": 66.13469199999979,
                    "velocity": 0.5354330708661418,
                    "duration": 0.07481300000000601
                },
                {
                    "name": "D5",
                    "midi": 74,
                    "time": 66.2843179999998,
                    "velocity": 0.5354330708661418,
                    "duration": 0.07481300000000601
                },
                {
                    "name": "C6",
                    "midi": 84,
                    "time": 66.2843179999998,
                    "velocity": 0.5354330708661418,
                    "duration": 0.07481300000000601
                },
                {
                    "name": "D6",
                    "midi": 86,
                    "time": 66.2843179999998,
                    "velocity": 0.6377952755905512,
                    "duration": 0.07481300000000601
                },
                {
                    "name": "D#6",
                    "midi": 87,
                    "time": 66.43394399999981,
                    "velocity": 0.7086614173228346,
                    "duration": 0.07481300000000601
                },
                {
                    "name": "D#5",
                    "midi": 75,
                    "time": 66.43394399999981,
                    "velocity": 0.5984251968503937,
                    "duration": 0.07481300000000601
                },
                {
                    "name": "C6",
                    "midi": 84,
                    "time": 66.43394399999981,
                    "velocity": 0.5984251968503937,
                    "duration": 0.07481300000000601
                },
                {
                    "name": "D6",
                    "midi": 86,
                    "time": 66.58356999999982,
                    "velocity": 0.6377952755905512,
                    "duration": 0.07481300000000601
                },
                {
                    "name": "D5",
                    "midi": 74,
                    "time": 66.58356999999982,
                    "velocity": 0.5354330708661418,
                    "duration": 0.07481300000000601
                },
                {
                    "name": "C5",
                    "midi": 72,
                    "time": 66.73319599999984,
                    "velocity": 0.5354330708661418,
                    "duration": 0.07481300000000601
                },
                {
                    "name": "C6",
                    "midi": 84,
                    "time": 66.73319599999984,
                    "velocity": 0.6377952755905512,
                    "duration": 0.07481300000000601
                },
                {
                    "name": "D5",
                    "midi": 74,
                    "time": 66.88282199999985,
                    "velocity": 0.5984251968503937,
                    "duration": 0.07481300000000601
                },
                {
                    "name": "D6",
                    "midi": 86,
                    "time": 66.88282199999985,
                    "velocity": 0.7086614173228346,
                    "duration": 0.07481300000000601
                },
                {
                    "name": "G4",
                    "midi": 67,
                    "time": 67.18207399999986,
                    "velocity": 0.5354330708661418,
                    "duration": 0.07481300000000601
                },
                {
                    "name": "G5",
                    "midi": 79,
                    "time": 67.18207399999986,
                    "velocity": 0.6377952755905512,
                    "duration": 0.07481300000000601
                },
                {
                    "name": "G6",
                    "midi": 91,
                    "time": 67.33169999999987,
                    "velocity": 0.7637795275590551,
                    "duration": 0.07481300000000601
                },
                {
                    "name": "G5",
                    "midi": 79,
                    "time": 67.33169999999987,
                    "velocity": 0.6456692913385826,
                    "duration": 0.07481300000000601
                },
                {
                    "name": "C6",
                    "midi": 84,
                    "time": 67.33169999999987,
                    "velocity": 0.7637795275590551,
                    "duration": 0.07481300000000601
                },
                {
                    "name": "E6",
                    "midi": 88,
                    "time": 67.63095199999988,
                    "velocity": 0.7165354330708661,
                    "duration": 0.29925199999999563
                },
                {
                    "name": "E5",
                    "midi": 76,
                    "time": 67.63095199999988,
                    "velocity": 0.6062992125984252,
                    "duration": 0.29925199999999563
                },
                {
                    "name": "C6",
                    "midi": 84,
                    "time": 67.63095199999988,
                    "velocity": 0.6062992125984252,
                    "duration": 0.29925199999999563
                },
                {
                    "name": "C6",
                    "midi": 84,
                    "time": 67.93020399999988,
                    "velocity": 0.6062992125984252,
                    "duration": 0.44887799999999345
                },
                {
                    "name": "F6",
                    "midi": 89,
                    "time": 67.93020399999988,
                    "velocity": 0.7165354330708661,
                    "duration": 0.44887799999999345
                },
                {
                    "name": "F5",
                    "midi": 77,
                    "time": 67.93020399999988,
                    "velocity": 0.6062992125984252,
                    "duration": 0.44887799999999345
                },
                {
                    "name": "C6",
                    "midi": 84,
                    "time": 68.37908199999987,
                    "velocity": 0.5905511811023622,
                    "duration": 0.22443900000000383
                },
                {
                    "name": "D6",
                    "midi": 86,
                    "time": 68.37908199999987,
                    "velocity": 0.7007874015748031,
                    "duration": 0.22443900000000383
                },
                {
                    "name": "D5",
                    "midi": 74,
                    "time": 68.37908199999987,
                    "velocity": 0.5905511811023622,
                    "duration": 0.22443900000000383
                },
                {
                    "name": "C6",
                    "midi": 84,
                    "time": 68.60352099999987,
                    "velocity": 0.5275590551181102,
                    "duration": 0.06857858333333411
                },
                {
                    "name": "E6",
                    "midi": 88,
                    "time": 68.60352099999987,
                    "velocity": 0.6220472440944882,
                    "duration": 0.06857858333333411
                },
                {
                    "name": "E5",
                    "midi": 76,
                    "time": 68.60352099999987,
                    "velocity": 0.5275590551181102,
                    "duration": 0.06857858333333411
                },
                {
                    "name": "E5",
                    "midi": 76,
                    "time": 68.67833399999988,
                    "velocity": 0.5826771653543307,
                    "duration": 0.07481300000000601
                },
                {
                    "name": "E6",
                    "midi": 88,
                    "time": 68.67833399999988,
                    "velocity": 0.6929133858267716,
                    "duration": 0.07481300000000601
                },
                {
                    "name": "C6",
                    "midi": 84,
                    "time": 68.67833399999988,
                    "velocity": 0.5826771653543307,
                    "duration": 0.07481300000000601
                },
                {
                    "name": "E4",
                    "midi": 64,
                    "time": 68.97758599999989,
                    "velocity": 0.5433070866141733,
                    "duration": 0.29925199999999563
                },
                {
                    "name": "C5",
                    "midi": 72,
                    "time": 68.97758599999989,
                    "velocity": 0.5433070866141733,
                    "duration": 0.29925199999999563
                },
                {
                    "name": "E5",
                    "midi": 76,
                    "time": 68.97758599999989,
                    "velocity": 0.6377952755905512,
                    "duration": 0.29925199999999563
                },
                {
                    "name": "F4",
                    "midi": 65,
                    "time": 69.27683799999988,
                    "velocity": 0.5433070866141733,
                    "duration": 0.44887799999999345
                },
                {
                    "name": "F5",
                    "midi": 77,
                    "time": 69.27683799999988,
                    "velocity": 0.6377952755905512,
                    "duration": 0.44887799999999345
                },
                {
                    "name": "C5",
                    "midi": 72,
                    "time": 69.27683799999988,
                    "velocity": 0.5433070866141733,
                    "duration": 0.44887799999999345
                },
                {
                    "name": "C5",
                    "midi": 72,
                    "time": 69.72571599999988,
                    "velocity": 0.5275590551181102,
                    "duration": 0.21820458333333193
                },
                {
                    "name": "D4",
                    "midi": 62,
                    "time": 69.72571599999988,
                    "velocity": 0.5275590551181102,
                    "duration": 0.21820458333333193
                },
                {
                    "name": "D5",
                    "midi": 74,
                    "time": 69.72571599999988,
                    "velocity": 0.6299212598425197,
                    "duration": 0.21820458333333193
                },
                {
                    "name": "E5",
                    "midi": 76,
                    "time": 69.95015499999988,
                    "velocity": 0.5590551181102362,
                    "duration": 0.06857858333333411
                },
                {
                    "name": "E4",
                    "midi": 64,
                    "time": 69.95015499999988,
                    "velocity": 0.47244094488188976,
                    "duration": 0.06857858333333411
                },
                {
                    "name": "C5",
                    "midi": 72,
                    "time": 69.95015499999988,
                    "velocity": 0.47244094488188976,
                    "duration": 0.06857858333333411
                },
                {
                    "name": "C5",
                    "midi": 72,
                    "time": 70.02496799999989,
                    "velocity": 0.5196850393700787,
                    "duration": 0.07481300000000601
                },
                {
                    "name": "E4",
                    "midi": 64,
                    "time": 70.02496799999989,
                    "velocity": 0.5196850393700787,
                    "duration": 0.07481300000000601
                },
                {
                    "name": "E5",
                    "midi": 76,
                    "time": 70.02496799999989,
                    "velocity": 0.6220472440944882,
                    "duration": 0.07481300000000601
                },
                {
                    "name": "C5",
                    "midi": 72,
                    "time": 70.2868134999999,
                    "velocity": 0.5275590551181102,
                    "duration": 0.14962599999999782
                },
                {
                    "name": "E5",
                    "midi": 76,
                    "time": 70.3055167499999,
                    "velocity": 0.5275590551181102,
                    "duration": 0.1309227499999963
                },
                {
                    "name": "C6",
                    "midi": 84,
                    "time": 70.3242199999999,
                    "velocity": 0.6299212598425197,
                    "duration": 0.11221949999999481
                },
                {
                    "name": "C4",
                    "midi": 60,
                    "time": 70.4738459999999,
                    "velocity": 0.6220472440944882,
                    "duration": 0.07481300000000601
                },
                {
                    "name": "C5",
                    "midi": 72,
                    "time": 71.1845694999999,
                    "velocity": 0.5275590551181102,
                    "duration": 0.14962599999999782
                },
                {
                    "name": "E5",
                    "midi": 76,
                    "time": 71.2032727499999,
                    "velocity": 0.5275590551181102,
                    "duration": 0.1309227499999963
                },
                {
                    "name": "C6",
                    "midi": 84,
                    "time": 71.2219759999999,
                    "velocity": 0.6299212598425197,
                    "duration": 0.11221949999999481
                },
                {
                    "name": "C4",
                    "midi": 60,
                    "time": 71.3716019999999,
                    "velocity": 0.6220472440944882,
                    "duration": 0.07481300000000601
                },
                {
                    "name": "C5",
                    "midi": 72,
                    "time": 72.9613782499999,
                    "velocity": 0.33070866141732286,
                    "duration": 0.16832924999999932
                },
                {
                    "name": "D5",
                    "midi": 74,
                    "time": 72.9800814999999,
                    "velocity": 0.33070866141732286,
                    "duration": 0.14962599999999782
                },
                {
                    "name": "F#5",
                    "midi": 78,
                    "time": 72.9987847499999,
                    "velocity": 0.3228346456692913,
                    "duration": 0.1309227499999963
                },
                {
                    "name": "C6",
                    "midi": 84,
                    "time": 73.0174879999999,
                    "velocity": 0.3858267716535433,
                    "duration": 0.11221949999999481
                },
                {
                    "name": "C4",
                    "midi": 60,
                    "time": 73.1671139999999,
                    "velocity": 0.3464566929133858,
                    "duration": 0.07481300000000601
                },
                {
                    "name": "C5",
                    "midi": 72,
                    "time": 73.85913424999991,
                    "velocity": 0.30708661417322836,
                    "duration": 0.16832924999999932
                },
                {
                    "name": "D5",
                    "midi": 74,
                    "time": 73.87783749999991,
                    "velocity": 0.30708661417322836,
                    "duration": 0.14962599999999782
                },
                {
                    "name": "F#5",
                    "midi": 78,
                    "time": 73.89654074999991,
                    "velocity": 0.2992125984251969,
                    "duration": 0.1309227499999963
                },
                {
                    "name": "C6",
                    "midi": 84,
                    "time": 73.91524399999992,
                    "velocity": 0.36220472440944884,
                    "duration": 0.11221949999999481
                },
                {
                    "name": "C4",
                    "midi": 60,
                    "time": 74.06486999999991,
                    "velocity": 0.29133858267716534,
                    "duration": 0.07481300000000601
                },
                {
                    "name": "D4",
                    "midi": 62,
                    "time": 75.71075599999992,
                    "velocity": 0.2677165354330709,
                    "duration": 0.13715716666666822
                },
                {
                    "name": "G4",
                    "midi": 67,
                    "time": 75.71075599999992,
                    "velocity": 0.2677165354330709,
                    "duration": 0.13715716666666822
                },
                {
                    "name": "B4",
                    "midi": 71,
                    "time": 75.71075599999992,
                    "velocity": 0.31496062992125984,
                    "duration": 0.13715716666666822
                },
                {
                    "name": "B4",
                    "midi": 71,
                    "time": 75.86038199999992,
                    "velocity": 0.3779527559055118,
                    "duration": 0.7418955833333314
                },
                {
                    "name": "G4",
                    "midi": 67,
                    "time": 75.86038199999992,
                    "velocity": 0.31496062992125984,
                    "duration": 0.7418955833333314
                },
                {
                    "name": "D4",
                    "midi": 62,
                    "time": 75.86038199999992,
                    "velocity": 0.31496062992125984,
                    "duration": 0.7418955833333314
                },
                {
                    "name": "E4",
                    "midi": 64,
                    "time": 76.60851199999992,
                    "velocity": 0.25984251968503935,
                    "duration": 0.14962599999999782
                },
                {
                    "name": "G4",
                    "midi": 67,
                    "time": 76.60851199999992,
                    "velocity": 0.25984251968503935,
                    "duration": 0.14962599999999782
                },
                {
                    "name": "D5",
                    "midi": 74,
                    "time": 76.60851199999992,
                    "velocity": 0.30708661417322836,
                    "duration": 0.14962599999999782
                },
                {
                    "name": "B4",
                    "midi": 71,
                    "time": 76.60851199999992,
                    "velocity": 0.25984251968503935,
                    "duration": 0.14962599999999782
                },
                {
                    "name": "E4",
                    "midi": 64,
                    "time": 76.75813799999992,
                    "velocity": 0.31496062992125984,
                    "duration": 0.5985040000000055
                },
                {
                    "name": "G4",
                    "midi": 67,
                    "time": 76.75813799999992,
                    "velocity": 0.31496062992125984,
                    "duration": 0.5985040000000055
                },
                {
                    "name": "B4",
                    "midi": 71,
                    "time": 76.75813799999992,
                    "velocity": 0.31496062992125984,
                    "duration": 0.5985040000000055
                },
                {
                    "name": "D5",
                    "midi": 74,
                    "time": 76.75813799999992,
                    "velocity": 0.3779527559055118,
                    "duration": 0.5985040000000055
                },
                {
                    "name": "E5",
                    "midi": 76,
                    "time": 77.50626799999992,
                    "velocity": 0.3543307086614173,
                    "duration": 0.13715716666666822
                },
                {
                    "name": "C5",
                    "midi": 72,
                    "time": 77.50626799999992,
                    "velocity": 0.3543307086614173,
                    "duration": 0.13715716666666822
                },
                {
                    "name": "A4",
                    "midi": 69,
                    "time": 77.50626799999992,
                    "velocity": 0.3543307086614173,
                    "duration": 0.13715716666666822
                },
                {
                    "name": "G5",
                    "midi": 79,
                    "time": 77.50626799999992,
                    "velocity": 0.4251968503937008,
                    "duration": 0.13715716666666822
                },
                {
                    "name": "A4",
                    "midi": 69,
                    "time": 77.65589399999992,
                    "velocity": 0.3858267716535433,
                    "duration": 1.1970079999999967
                },
                {
                    "name": "G5",
                    "midi": 79,
                    "time": 77.65589399999992,
                    "velocity": 0.4566929133858268,
                    "duration": 1.1970079999999967
                },
                {
                    "name": "C5",
                    "midi": 72,
                    "time": 77.65589399999992,
                    "velocity": 0.3858267716535433,
                    "duration": 1.1970079999999967
                },
                {
                    "name": "E5",
                    "midi": 76,
                    "time": 77.65589399999992,
                    "velocity": 0.3858267716535433,
                    "duration": 1.1970079999999967
                },
                {
                    "name": "G4",
                    "midi": 67,
                    "time": 78.85290199999992,
                    "velocity": 0.33070866141732286,
                    "duration": 0.14962599999999782
                },
                {
                    "name": "A4",
                    "midi": 69,
                    "time": 78.85290199999992,
                    "velocity": 0.33070866141732286,
                    "duration": 0.14962599999999782
                },
                {
                    "name": "E5",
                    "midi": 76,
                    "time": 78.85290199999992,
                    "velocity": 0.3937007874015748,
                    "duration": 0.14962599999999782
                },
                {
                    "name": "C5",
                    "midi": 72,
                    "time": 79.00252799999991,
                    "velocity": 0.4251968503937008,
                    "duration": 0.29925199999999563
                },
                {
                    "name": "G4",
                    "midi": 67,
                    "time": 79.00252799999991,
                    "velocity": 0.3543307086614173,
                    "duration": 0.29925199999999563
                },
                {
                    "name": "E4",
                    "midi": 64,
                    "time": 79.00252799999991,
                    "velocity": 0.3543307086614173,
                    "duration": 0.29925199999999563
                },
                {
                    "name": "D4",
                    "midi": 62,
                    "time": 79.30177999999991,
                    "velocity": 0.30708661417322836,
                    "duration": 0.14962599999999782
                },
                {
                    "name": "G4",
                    "midi": 67,
                    "time": 79.30177999999991,
                    "velocity": 0.30708661417322836,
                    "duration": 0.14962599999999782
                },
                {
                    "name": "B4",
                    "midi": 71,
                    "time": 79.30177999999991,
                    "velocity": 0.36220472440944884,
                    "duration": 0.14962599999999782
                },
                {
                    "name": "F#4",
                    "midi": 66,
                    "time": 79.4514059999999,
                    "velocity": 0.33070866141732286,
                    "duration": 0.29925199999999563
                },
                {
                    "name": "B3",
                    "midi": 59,
                    "time": 79.4514059999999,
                    "velocity": 0.33070866141732286,
                    "duration": 0.29925199999999563
                },
                {
                    "name": "G#4",
                    "midi": 68,
                    "time": 79.4514059999999,
                    "velocity": 0.3937007874015748,
                    "duration": 0.29925199999999563
                },
                {
                    "name": "C4",
                    "midi": 60,
                    "time": 79.7506579999999,
                    "velocity": 0.30708661417322836,
                    "duration": 0.14962599999999782
                },
                {
                    "name": "A4",
                    "midi": 69,
                    "time": 79.7506579999999,
                    "velocity": 0.3700787401574803,
                    "duration": 0.14962599999999782
                },
                {
                    "name": "F#4",
                    "midi": 66,
                    "time": 79.7506579999999,
                    "velocity": 0.30708661417322836,
                    "duration": 0.14962599999999782
                },
                {
                    "name": "C5",
                    "midi": 72,
                    "time": 79.9002839999999,
                    "velocity": 0.41732283464566927,
                    "duration": 0.44887799999999345
                },
                {
                    "name": "E4",
                    "midi": 64,
                    "time": 79.9002839999999,
                    "velocity": 0.3543307086614173,
                    "duration": 0.44887799999999345
                },
                {
                    "name": "D4",
                    "midi": 62,
                    "time": 80.3491619999999,
                    "velocity": 0.33070866141732286,
                    "duration": 0.29925199999999563
                },
                {
                    "name": "F#4",
                    "midi": 66,
                    "time": 80.3491619999999,
                    "velocity": 0.3937007874015748,
                    "duration": 0.29925199999999563
                },
                {
                    "name": "B4",
                    "midi": 71,
                    "time": 81.09729199999988,
                    "velocity": 0.31496062992125984,
                    "duration": 0.13715716666666822
                },
                {
                    "name": "D4",
                    "midi": 62,
                    "time": 81.09729199999988,
                    "velocity": 0.2677165354330709,
                    "duration": 0.13715716666666822
                },
                {
                    "name": "G4",
                    "midi": 67,
                    "time": 81.09729199999988,
                    "velocity": 0.2677165354330709,
                    "duration": 0.13715716666666822
                },
                {
                    "name": "D4",
                    "midi": 62,
                    "time": 81.24691799999988,
                    "velocity": 0.31496062992125984,
                    "duration": 0.7418955833333314
                },
                {
                    "name": "G4",
                    "midi": 67,
                    "time": 81.24691799999988,
                    "velocity": 0.31496062992125984,
                    "duration": 0.7418955833333314
                },
                {
                    "name": "B4",
                    "midi": 71,
                    "time": 81.24691799999988,
                    "velocity": 0.3779527559055118,
                    "duration": 0.7418955833333314
                },
                {
                    "name": "B4",
                    "midi": 71,
                    "time": 81.99504799999988,
                    "velocity": 0.25984251968503935,
                    "duration": 0.14962599999999782
                },
                {
                    "name": "G4",
                    "midi": 67,
                    "time": 81.99504799999988,
                    "velocity": 0.25984251968503935,
                    "duration": 0.14962599999999782
                },
                {
                    "name": "E4",
                    "midi": 64,
                    "time": 81.99504799999988,
                    "velocity": 0.25984251968503935,
                    "duration": 0.14962599999999782
                },
                {
                    "name": "D5",
                    "midi": 74,
                    "time": 81.99504799999988,
                    "velocity": 0.30708661417322836,
                    "duration": 0.14962599999999782
                },
                {
                    "name": "E4",
                    "midi": 64,
                    "time": 82.14467399999988,
                    "velocity": 0.31496062992125984,
                    "duration": 0.5985040000000055
                },
                {
                    "name": "D5",
                    "midi": 74,
                    "time": 82.14467399999988,
                    "velocity": 0.3779527559055118,
                    "duration": 0.5985040000000055
                },
                {
                    "name": "G4",
                    "midi": 67,
                    "time": 82.14467399999988,
                    "velocity": 0.31496062992125984,
                    "duration": 0.5985040000000055
                },
                {
                    "name": "B4",
                    "midi": 71,
                    "time": 82.14467399999988,
                    "velocity": 0.31496062992125984,
                    "duration": 0.5985040000000055
                },
                {
                    "name": "C#5",
                    "midi": 73,
                    "time": 82.89280399999988,
                    "velocity": 0.3858267716535433,
                    "duration": 0.13715716666666822
                },
                {
                    "name": "E5",
                    "midi": 76,
                    "time": 82.89280399999988,
                    "velocity": 0.3858267716535433,
                    "duration": 0.13715716666666822
                },
                {
                    "name": "B5",
                    "midi": 83,
                    "time": 82.89280399999988,
                    "velocity": 0.4645669291338583,
                    "duration": 0.13715716666666822
                },
                {
                    "name": "G5",
                    "midi": 79,
                    "time": 82.89280399999988,
                    "velocity": 0.3858267716535433,
                    "duration": 0.13715716666666822
                },
                {
                    "name": "E5",
                    "midi": 76,
                    "time": 83.04242999999988,
                    "velocity": 0.41732283464566927,
                    "duration": 1.1970079999999967
                },
                {
                    "name": "B5",
                    "midi": 83,
                    "time": 83.04242999999988,
                    "velocity": 0.49606299212598426,
                    "duration": 1.1970079999999967
                },
                {
                    "name": "G5",
                    "midi": 79,
                    "time": 83.04242999999988,
                    "velocity": 0.41732283464566927,
                    "duration": 1.1970079999999967
                },
                {
                    "name": "C#5",
                    "midi": 73,
                    "time": 83.04242999999988,
                    "velocity": 0.41732283464566927,
                    "duration": 1.1970079999999967
                },
                {
                    "name": "A5",
                    "midi": 81,
                    "time": 84.23943799999988,
                    "velocity": 0.3937007874015748,
                    "duration": 0.14962599999999782
                },
                {
                    "name": "C#5",
                    "midi": 73,
                    "time": 84.23943799999988,
                    "velocity": 0.33070866141732286,
                    "duration": 0.14962599999999782
                },
                {
                    "name": "E5",
                    "midi": 76,
                    "time": 84.23943799999988,
                    "velocity": 0.33070866141732286,
                    "duration": 0.14962599999999782
                },
                {
                    "name": "B4",
                    "midi": 71,
                    "time": 84.38906399999988,
                    "velocity": 0.3543307086614173,
                    "duration": 0.29925199999999563
                },
                {
                    "name": "C#5",
                    "midi": 73,
                    "time": 84.38906399999988,
                    "velocity": 0.3543307086614173,
                    "duration": 0.29925199999999563
                },
                {
                    "name": "G5",
                    "midi": 79,
                    "time": 84.38906399999988,
                    "velocity": 0.4251968503937008,
                    "duration": 0.29925199999999563
                },
                {
                    "name": "F#5",
                    "midi": 78,
                    "time": 84.68831599999987,
                    "velocity": 0.36220472440944884,
                    "duration": 0.14962599999999782
                },
                {
                    "name": "C#5",
                    "midi": 73,
                    "time": 84.68831599999987,
                    "velocity": 0.30708661417322836,
                    "duration": 0.14962599999999782
                },
                {
                    "name": "A4",
                    "midi": 69,
                    "time": 84.68831599999987,
                    "velocity": 0.30708661417322836,
                    "duration": 0.14962599999999782
                },
                {
                    "name": "F#4",
                    "midi": 66,
                    "time": 84.83794199999987,
                    "velocity": 0.3228346456692913,
                    "duration": 0.14962599999999782
                },
                {
                    "name": "C#5",
                    "midi": 73,
                    "time": 84.83794199999987,
                    "velocity": 0.3228346456692913,
                    "duration": 0.14962599999999782
                },
                {
                    "name": "D#5",
                    "midi": 75,
                    "time": 84.83794199999987,
                    "velocity": 0.3858267716535433,
                    "duration": 0.14962599999999782
                },
                {
                    "name": "C#5",
                    "midi": 73,
                    "time": 84.98756799999987,
                    "velocity": 0.29133858267716534,
                    "duration": 0.14962599999999782
                },
                {
                    "name": "G4",
                    "midi": 67,
                    "time": 84.98756799999987,
                    "velocity": 0.29133858267716534,
                    "duration": 0.14962599999999782
                },
                {
                    "name": "E5",
                    "midi": 76,
                    "time": 84.98756799999987,
                    "velocity": 0.3464566929133858,
                    "duration": 0.14962599999999782
                },
                {
                    "name": "B4",
                    "midi": 71,
                    "time": 85.13719399999987,
                    "velocity": 0.29133858267716534,
                    "duration": 0.14962599999999782
                },
                {
                    "name": "G5",
                    "midi": 79,
                    "time": 85.13719399999987,
                    "velocity": 0.3464566929133858,
                    "duration": 0.14962599999999782
                },
                {
                    "name": "C#5",
                    "midi": 73,
                    "time": 85.13719399999987,
                    "velocity": 0.3464566929133858,
                    "duration": 0.14962599999999782
                },
                {
                    "name": "C#5",
                    "midi": 73,
                    "time": 85.28681999999986,
                    "velocity": 0.33858267716535434,
                    "duration": 0.7481300000000033
                },
                {
                    "name": "A4",
                    "midi": 69,
                    "time": 85.28681999999986,
                    "velocity": 0.33858267716535434,
                    "duration": 0.7481300000000033
                },
                {
                    "name": "F#5",
                    "midi": 78,
                    "time": 85.28681999999986,
                    "velocity": 0.4015748031496063,
                    "duration": 0.7481300000000033
                },
                {
                    "name": "G4",
                    "midi": 67,
                    "time": 86.03494999999987,
                    "velocity": 0.25984251968503935,
                    "duration": 0.14962599999999782
                },
                {
                    "name": "E5",
                    "midi": 76,
                    "time": 86.03494999999987,
                    "velocity": 0.30708661417322836,
                    "duration": 0.14962599999999782
                },
                {
                    "name": "C#5",
                    "midi": 73,
                    "time": 86.03494999999987,
                    "velocity": 0.30708661417322836,
                    "duration": 0.14962599999999782
                },
                {
                    "name": "F#4",
                    "midi": 66,
                    "time": 86.18457599999986,
                    "velocity": 0.2992125984251969,
                    "duration": 0.44887799999999345
                },
                {
                    "name": "A4",
                    "midi": 69,
                    "time": 86.18457599999986,
                    "velocity": 0.2992125984251969,
                    "duration": 0.7481299999999891
                },
                {
                    "name": "D5",
                    "midi": 74,
                    "time": 86.18457599999986,
                    "velocity": 0.3543307086614173,
                    "duration": 0.7481299999999891
                },
                {
                    "name": "E5",
                    "midi": 76,
                    "time": 86.93270599999985,
                    "velocity": 0.28346456692913385,
                    "duration": 0.14962599999999782
                },
                {
                    "name": "C5",
                    "midi": 72,
                    "time": 87.08233199999985,
                    "velocity": 0.33070866141732286,
                    "duration": 0.29925199999999563
                },
                {
                    "name": "B4",
                    "midi": 71,
                    "time": 87.38158399999985,
                    "velocity": 0.25196850393700787,
                    "duration": 0.14962599999999782
                },
                {
                    "name": "G#4",
                    "midi": 68,
                    "time": 87.53120999999985,
                    "velocity": 0.3228346456692913,
                    "duration": 0.29925199999999563
                },
                {
                    "name": "A4",
                    "midi": 69,
                    "time": 87.83046199999984,
                    "velocity": 0.2755905511811024,
                    "duration": 0.14962599999999782
                },
                {
                    "name": "C5",
                    "midi": 72,
                    "time": 87.98008799999984,
                    "velocity": 0.31496062992125984,
                    "duration": 0.7481300000000033
                },
                {
                    "name": "G4",
                    "midi": 67,
                    "time": 88.72821799999984,
                    "velocity": 0.2677165354330709,
                    "duration": 0.14962599999999782
                },
                {
                    "name": "F4",
                    "midi": 65,
                    "time": 88.87784399999984,
                    "velocity": 0.3228346456692913,
                    "duration": 0.29925199999999563
                },
                {
                    "name": "D4",
                    "midi": 62,
                    "time": 88.87784399999984,
                    "velocity": 0.2677165354330709,
                    "duration": 0.44887799999999345
                },
                {
                    "name": "F#4",
                    "midi": 66,
                    "time": 89.17709599999984,
                    "velocity": 0.2755905511811024,
                    "duration": 0.14962599999999782
                },
                {
                    "name": "A4",
                    "midi": 69,
                    "time": 89.62597399999983,
                    "velocity": 0.30708661417322836,
                    "duration": 0.5985039999999913
                },
                {
                    "name": "G5",
                    "midi": 79,
                    "time": 89.62597399999983,
                    "velocity": 0.28346456692913385,
                    "duration": 0.14962599999999782
                },
                {
                    "name": "E5",
                    "midi": 76,
                    "time": 89.77559999999983,
                    "velocity": 0.33070866141732286,
                    "duration": 0.29925199999999563
                },
                {
                    "name": "C5",
                    "midi": 72,
                    "time": 90.07485199999982,
                    "velocity": 0.25196850393700787,
                    "duration": 0.14962599999999782
                },
                {
                    "name": "D4",
                    "midi": 62,
                    "time": 90.22447799999982,
                    "velocity": 0.2677165354330709,
                    "duration": 0.29925199999999563
                },
                {
                    "name": "G#4",
                    "midi": 68,
                    "time": 90.22447799999982,
                    "velocity": 0.2677165354330709,
                    "duration": 0.29925199999999563
                },
                {
                    "name": "B4",
                    "midi": 71,
                    "time": 90.22447799999982,
                    "velocity": 0.3228346456692913,
                    "duration": 0.29925199999999563
                },
                {
                    "name": "C5",
                    "midi": 72,
                    "time": 90.52372999999982,
                    "velocity": 0.2755905511811024,
                    "duration": 0.14962599999999782
                },
                {
                    "name": "A4",
                    "midi": 69,
                    "time": 90.52372999999982,
                    "velocity": 0.2283464566929134,
                    "duration": 0.14962599999999782
                },
                {
                    "name": "D4",
                    "midi": 62,
                    "time": 90.67335599999981,
                    "velocity": 0.2677165354330709,
                    "duration": 0.44887799999999345
                },
                {
                    "name": "C5",
                    "midi": 72,
                    "time": 90.67335599999981,
                    "velocity": 0.31496062992125984,
                    "duration": 0.7481299999999891
                },
                {
                    "name": "E5",
                    "midi": 76,
                    "time": 90.67335599999981,
                    "velocity": 0.31496062992125984,
                    "duration": 0.7481299999999891
                },
                {
                    "name": "B4",
                    "midi": 71,
                    "time": 91.4214859999998,
                    "velocity": 0.2677165354330709,
                    "duration": 0.14962599999999782
                },
                {
                    "name": "G4",
                    "midi": 67,
                    "time": 91.4214859999998,
                    "velocity": 0.2204724409448819,
                    "duration": 0.14962599999999782
                },
                {
                    "name": "G#4",
                    "midi": 68,
                    "time": 91.5711119999998,
                    "velocity": 0.3228346456692913,
                    "duration": 0.29925199999999563
                },
                {
                    "name": "F4",
                    "midi": 65,
                    "time": 91.5711119999998,
                    "velocity": 0.2204724409448819,
                    "duration": 0.29925199999999563
                },
                {
                    "name": "F#4",
                    "midi": 66,
                    "time": 91.8703639999998,
                    "velocity": 0.2283464566929134,
                    "duration": 0.14962599999999782
                },
                {
                    "name": "A4",
                    "midi": 69,
                    "time": 91.8703639999998,
                    "velocity": 0.2755905511811024,
                    "duration": 0.14962599999999782
                },
                {
                    "name": "B5",
                    "midi": 83,
                    "time": 92.31924199999979,
                    "velocity": 0.3228346456692913,
                    "duration": 0.14962599999999782
                },
                {
                    "name": "C5",
                    "midi": 72,
                    "time": 92.31924199999979,
                    "velocity": 0.30708661417322836,
                    "duration": 0.5985039999999913
                },
                {
                    "name": "G5",
                    "midi": 79,
                    "time": 92.46886799999979,
                    "velocity": 0.3700787401574803,
                    "duration": 0.29925199999999563
                },
                {
                    "name": "E5",
                    "midi": 76,
                    "time": 92.76811999999978,
                    "velocity": 0.2677165354330709,
                    "duration": 0.14962599999999782
                },
                {
                    "name": "C5",
                    "midi": 72,
                    "time": 93.21699799999978,
                    "velocity": 0.30708661417322836,
                    "duration": 0.5985039999999913
                },
                {
                    "name": "B5",
                    "midi": 83,
                    "time": 93.21699799999978,
                    "velocity": 0.3228346456692913,
                    "duration": 0.14962599999999782
                },
                {
                    "name": "G5",
                    "midi": 79,
                    "time": 93.36662399999977,
                    "velocity": 0.3700787401574803,
                    "duration": 0.29925199999999563
                },
                {
                    "name": "E5",
                    "midi": 76,
                    "time": 93.66587599999977,
                    "velocity": 0.2677165354330709,
                    "duration": 0.14962599999999782
                },
                {
                    "name": "C5",
                    "midi": 72,
                    "time": 94.11475399999976,
                    "velocity": 0.30708661417322836,
                    "duration": 0.5985039999999913
                },
                {
                    "name": "A5",
                    "midi": 81,
                    "time": 94.11475399999976,
                    "velocity": 0.3228346456692913,
                    "duration": 0.14962599999999782
                },
                {
                    "name": "G5",
                    "midi": 79,
                    "time": 94.26437999999976,
                    "velocity": 0.3700787401574803,
                    "duration": 0.29925199999999563
                },
                {
                    "name": "E5",
                    "midi": 76,
                    "time": 94.56363199999976,
                    "velocity": 0.2677165354330709,
                    "duration": 0.14962599999999782
                },
                {
                    "name": "G5",
                    "midi": 79,
                    "time": 95.01250999999975,
                    "velocity": 0.3228346456692913,
                    "duration": 0.14962599999999782
                },
                {
                    "name": "A4",
                    "midi": 69,
                    "time": 95.01250999999975,
                    "velocity": 0.30708661417322836,
                    "duration": 0.5985039999999913
                },
                {
                    "name": "E5",
                    "midi": 76,
                    "time": 95.16213599999975,
                    "velocity": 0.3700787401574803,
                    "duration": 0.29925199999999563
                },
                {
                    "name": "C5",
                    "midi": 72,
                    "time": 95.46138799999974,
                    "velocity": 0.2677165354330709,
                    "duration": 0.14962599999999782
                },
                {
                    "name": "F#5",
                    "midi": 78,
                    "time": 95.91026599999974,
                    "velocity": 0.3700787401574803,
                    "duration": 0.14962599999999782
                },
                {
                    "name": "C5",
                    "midi": 72,
                    "time": 95.91026599999974,
                    "velocity": 0.3700787401574803,
                    "duration": 0.14962599999999782
                },
                {
                    "name": "A4",
                    "midi": 69,
                    "time": 95.91026599999974,
                    "velocity": 0.30708661417322836,
                    "duration": 0.14962599999999782
                },
                {
                    "name": "A4",
                    "midi": 69,
                    "time": 96.05989199999973,
                    "velocity": 0.3543307086614173,
                    "duration": 0.29925199999999563
                },
                {
                    "name": "C5",
                    "midi": 72,
                    "time": 96.05989199999973,
                    "velocity": 0.41732283464566927,
                    "duration": 0.29925199999999563
                },
                {
                    "name": "E5",
                    "midi": 76,
                    "time": 96.05989199999973,
                    "velocity": 0.41732283464566927,
                    "duration": 0.29925199999999563
                },
                {
                    "name": "D5",
                    "midi": 74,
                    "time": 96.35914399999973,
                    "velocity": 0.36220472440944884,
                    "duration": 0.14962599999999782
                },
                {
                    "name": "A4",
                    "midi": 69,
                    "time": 96.35914399999973,
                    "velocity": 0.30708661417322836,
                    "duration": 0.14962599999999782
                },
                {
                    "name": "A4",
                    "midi": 69,
                    "time": 96.50876999999973,
                    "velocity": 0.3543307086614173,
                    "duration": 0.29925199999999563
                },
                {
                    "name": "C5",
                    "midi": 72,
                    "time": 96.50876999999973,
                    "velocity": 0.4251968503937008,
                    "duration": 0.29925199999999563
                },
                {
                    "name": "G4",
                    "midi": 67,
                    "time": 96.80802199999972,
                    "velocity": 0.2992125984251969,
                    "duration": 0.14962599999999782
                },
                {
                    "name": "B4",
                    "midi": 71,
                    "time": 96.80802199999972,
                    "velocity": 0.3543307086614173,
                    "duration": 0.14962599999999782
                },
                {
                    "name": "G4",
                    "midi": 67,
                    "time": 96.95764799999972,
                    "velocity": 0.2677165354330709,
                    "duration": 1.3466339999999946
                },
                {
                    "name": "A#4",
                    "midi": 70,
                    "time": 96.95764799999972,
                    "velocity": 0.3228346456692913,
                    "duration": 1.3466339999999946
                },
                {
                    "name": "C#5",
                    "midi": 73,
                    "time": 97.55615199999973,
                    "velocity": 0.2992125984251969,
                    "duration": 0.44887799999999345
                },
                {
                    "name": "E5",
                    "midi": 76,
                    "time": 98.00502999999972,
                    "velocity": 0.29133858267716534,
                    "duration": 0.29925199999999563
                },
                {
                    "name": "D4",
                    "midi": 62,
                    "time": 98.30428199999972,
                    "velocity": 0.2440944881889764,
                    "duration": 1.1970079999999967
                },
                {
                    "name": "A4",
                    "midi": 69,
                    "time": 98.30428199999972,
                    "velocity": 0.29133858267716534,
                    "duration": 1.1970079999999967
                },
                {
                    "name": "G4",
                    "midi": 67,
                    "time": 99.9501679999997,
                    "velocity": 0.2677165354330709,
                    "duration": 0.13715716666666822
                },
                {
                    "name": "D4",
                    "midi": 62,
                    "time": 99.9501679999997,
                    "velocity": 0.2677165354330709,
                    "duration": 0.13715716666666822
                },
                {
                    "name": "B4",
                    "midi": 71,
                    "time": 99.9501679999997,
                    "velocity": 0.31496062992125984,
                    "duration": 0.13715716666666822
                },
                {
                    "name": "D4",
                    "midi": 62,
                    "time": 100.0997939999997,
                    "velocity": 0.31496062992125984,
                    "duration": 0.7418955833333314
                },
                {
                    "name": "B4",
                    "midi": 71,
                    "time": 100.0997939999997,
                    "velocity": 0.3779527559055118,
                    "duration": 0.7418955833333314
                },
                {
                    "name": "G4",
                    "midi": 67,
                    "time": 100.0997939999997,
                    "velocity": 0.31496062992125984,
                    "duration": 0.7418955833333314
                },
                {
                    "name": "G4",
                    "midi": 67,
                    "time": 100.84792399999971,
                    "velocity": 0.25984251968503935,
                    "duration": 0.14962599999999782
                },
                {
                    "name": "D5",
                    "midi": 74,
                    "time": 100.84792399999971,
                    "velocity": 0.30708661417322836,
                    "duration": 0.14962599999999782
                },
                {
                    "name": "B4",
                    "midi": 71,
                    "time": 100.84792399999971,
                    "velocity": 0.25984251968503935,
                    "duration": 0.14962599999999782
                },
                {
                    "name": "E4",
                    "midi": 64,
                    "time": 100.84792399999971,
                    "velocity": 0.25984251968503935,
                    "duration": 0.14962599999999782
                },
                {
                    "name": "B4",
                    "midi": 71,
                    "time": 100.9975499999997,
                    "velocity": 0.31496062992125984,
                    "duration": 0.5985040000000055
                },
                {
                    "name": "D5",
                    "midi": 74,
                    "time": 100.9975499999997,
                    "velocity": 0.3779527559055118,
                    "duration": 0.5985040000000055
                },
                {
                    "name": "G4",
                    "midi": 67,
                    "time": 100.9975499999997,
                    "velocity": 0.31496062992125984,
                    "duration": 0.5985040000000055
                },
                {
                    "name": "E4",
                    "midi": 64,
                    "time": 100.9975499999997,
                    "velocity": 0.31496062992125984,
                    "duration": 0.5985040000000055
                },
                {
                    "name": "A4",
                    "midi": 69,
                    "time": 101.74567999999971,
                    "velocity": 0.3543307086614173,
                    "duration": 0.13715716666666822
                },
                {
                    "name": "G5",
                    "midi": 79,
                    "time": 101.74567999999971,
                    "velocity": 0.4251968503937008,
                    "duration": 0.13715716666666822
                },
                {
                    "name": "E5",
                    "midi": 76,
                    "time": 101.74567999999971,
                    "velocity": 0.3543307086614173,
                    "duration": 0.13715716666666822
                },
                {
                    "name": "C5",
                    "midi": 72,
                    "time": 101.74567999999971,
                    "velocity": 0.3543307086614173,
                    "duration": 0.13715716666666822
                },
                {
                    "name": "A4",
                    "midi": 69,
                    "time": 101.8953059999997,
                    "velocity": 0.3858267716535433,
                    "duration": 1.1970079999999967
                },
                {
                    "name": "C5",
                    "midi": 72,
                    "time": 101.8953059999997,
                    "velocity": 0.3858267716535433,
                    "duration": 1.1970079999999967
                },
                {
                    "name": "E5",
                    "midi": 76,
                    "time": 101.8953059999997,
                    "velocity": 0.3858267716535433,
                    "duration": 1.1970079999999967
                },
                {
                    "name": "G5",
                    "midi": 79,
                    "time": 101.8953059999997,
                    "velocity": 0.4566929133858268,
                    "duration": 1.1970079999999967
                },
                {
                    "name": "A4",
                    "midi": 69,
                    "time": 103.0923139999997,
                    "velocity": 0.33070866141732286,
                    "duration": 0.14962599999999782
                },
                {
                    "name": "G4",
                    "midi": 67,
                    "time": 103.0923139999997,
                    "velocity": 0.33070866141732286,
                    "duration": 0.14962599999999782
                },
                {
                    "name": "E5",
                    "midi": 76,
                    "time": 103.0923139999997,
                    "velocity": 0.3937007874015748,
                    "duration": 0.14962599999999782
                },
                {
                    "name": "E4",
                    "midi": 64,
                    "time": 103.2419399999997,
                    "velocity": 0.3543307086614173,
                    "duration": 0.29925199999999563
                },
                {
                    "name": "C5",
                    "midi": 72,
                    "time": 103.2419399999997,
                    "velocity": 0.4251968503937008,
                    "duration": 0.29925199999999563
                },
                {
                    "name": "G4",
                    "midi": 67,
                    "time": 103.2419399999997,
                    "velocity": 0.3543307086614173,
                    "duration": 0.29925199999999563
                },
                {
                    "name": "G4",
                    "midi": 67,
                    "time": 103.5411919999997,
                    "velocity": 0.30708661417322836,
                    "duration": 0.14962599999999782
                },
                {
                    "name": "D4",
                    "midi": 62,
                    "time": 103.5411919999997,
                    "velocity": 0.30708661417322836,
                    "duration": 0.14962599999999782
                },
                {
                    "name": "B4",
                    "midi": 71,
                    "time": 103.5411919999997,
                    "velocity": 0.36220472440944884,
                    "duration": 0.14962599999999782
                },
                {
                    "name": "B3",
                    "midi": 59,
                    "time": 103.6908179999997,
                    "velocity": 0.33070866141732286,
                    "duration": 0.29925199999999563
                },
                {
                    "name": "G#4",
                    "midi": 68,
                    "time": 103.6908179999997,
                    "velocity": 0.3937007874015748,
                    "duration": 0.29925199999999563
                },
                {
                    "name": "F#4",
                    "midi": 66,
                    "time": 103.6908179999997,
                    "velocity": 0.33070866141732286,
                    "duration": 0.29925199999999563
                },
                {
                    "name": "C4",
                    "midi": 60,
                    "time": 103.99006999999969,
                    "velocity": 0.30708661417322836,
                    "duration": 0.14962599999999782
                },
                {
                    "name": "F#4",
                    "midi": 66,
                    "time": 103.99006999999969,
                    "velocity": 0.30708661417322836,
                    "duration": 0.14962599999999782
                },
                {
                    "name": "A4",
                    "midi": 69,
                    "time": 103.99006999999969,
                    "velocity": 0.3700787401574803,
                    "duration": 0.14962599999999782
                },
                {
                    "name": "C5",
                    "midi": 72,
                    "time": 104.13969599999969,
                    "velocity": 0.41732283464566927,
                    "duration": 0.44887799999999345
                },
                {
                    "name": "E4",
                    "midi": 64,
                    "time": 104.13969599999969,
                    "velocity": 0.3543307086614173,
                    "duration": 0.44887799999999345
                },
                {
                    "name": "F#4",
                    "midi": 66,
                    "time": 104.58857399999968,
                    "velocity": 0.3937007874015748,
                    "duration": 0.29925199999999563
                },
                {
                    "name": "D4",
                    "midi": 62,
                    "time": 104.58857399999968,
                    "velocity": 0.33070866141732286,
                    "duration": 0.29925199999999563
                },
                {
                    "name": "D4",
                    "midi": 62,
                    "time": 105.33670399999967,
                    "velocity": 0.2677165354330709,
                    "duration": 0.13715716666666822
                },
                {
                    "name": "G4",
                    "midi": 67,
                    "time": 105.33670399999967,
                    "velocity": 0.2677165354330709,
                    "duration": 0.13715716666666822
                },
                {
                    "name": "B4",
                    "midi": 71,
                    "time": 105.33670399999967,
                    "velocity": 0.31496062992125984,
                    "duration": 0.13715716666666822
                },
                {
                    "name": "G4",
                    "midi": 67,
                    "time": 105.48632999999967,
                    "velocity": 0.31496062992125984,
                    "duration": 0.7418955833333314
                },
                {
                    "name": "D4",
                    "midi": 62,
                    "time": 105.48632999999967,
                    "velocity": 0.31496062992125984,
                    "duration": 0.7418955833333314
                },
                {
                    "name": "B4",
                    "midi": 71,
                    "time": 105.48632999999967,
                    "velocity": 0.3779527559055118,
                    "duration": 0.7418955833333314
                },
                {
                    "name": "E4",
                    "midi": 64,
                    "time": 106.23445999999967,
                    "velocity": 0.25984251968503935,
                    "duration": 0.14962599999999782
                },
                {
                    "name": "D5",
                    "midi": 74,
                    "time": 106.23445999999967,
                    "velocity": 0.30708661417322836,
                    "duration": 0.14962599999999782
                },
                {
                    "name": "B4",
                    "midi": 71,
                    "time": 106.23445999999967,
                    "velocity": 0.25984251968503935,
                    "duration": 0.14962599999999782
                },
                {
                    "name": "G4",
                    "midi": 67,
                    "time": 106.23445999999967,
                    "velocity": 0.25984251968503935,
                    "duration": 0.14962599999999782
                },
                {
                    "name": "E4",
                    "midi": 64,
                    "time": 106.38408599999967,
                    "velocity": 0.31496062992125984,
                    "duration": 0.7418955833333314
                },
                {
                    "name": "G4",
                    "midi": 67,
                    "time": 106.38408599999967,
                    "velocity": 0.31496062992125984,
                    "duration": 0.7418955833333314
                },
                {
                    "name": "B4",
                    "midi": 71,
                    "time": 106.38408599999967,
                    "velocity": 0.31496062992125984,
                    "duration": 0.7418955833333314
                },
                {
                    "name": "D5",
                    "midi": 74,
                    "time": 106.38408599999967,
                    "velocity": 0.3779527559055118,
                    "duration": 0.7418955833333314
                },
                {
                    "name": "B4",
                    "midi": 71,
                    "time": 107.13221599999967,
                    "velocity": 0.30708661417322836,
                    "duration": 0.13715716666666822
                },
                {
                    "name": "F#4",
                    "midi": 66,
                    "time": 107.13221599999967,
                    "velocity": 0.30708661417322836,
                    "duration": 0.13715716666666822
                },
                {
                    "name": "D5",
                    "midi": 74,
                    "time": 107.13221599999967,
                    "velocity": 0.36220472440944884,
                    "duration": 0.13715716666666822
                },
                {
                    "name": "F#4",
                    "midi": 66,
                    "time": 107.28184199999967,
                    "velocity": 0.36220472440944884,
                    "duration": 0.7418955833333314
                },
                {
                    "name": "D5",
                    "midi": 74,
                    "time": 107.28184199999967,
                    "velocity": 0.4330708661417323,
                    "duration": 0.7418955833333314
                },
                {
                    "name": "B4",
                    "midi": 71,
                    "time": 107.28184199999967,
                    "velocity": 0.36220472440944884,
                    "duration": 0.7418955833333314
                },
                {
                    "name": "B4",
                    "midi": 71,
                    "time": 108.02997199999967,
                    "velocity": 0.33070866141732286,
                    "duration": 0.14962599999999782
                },
                {
                    "name": "F#5",
                    "midi": 78,
                    "time": 108.02997199999967,
                    "velocity": 0.3937007874015748,
                    "duration": 0.14962599999999782
                },
                {
                    "name": "D5",
                    "midi": 74,
                    "time": 108.02997199999967,
                    "velocity": 0.33070866141732286,
                    "duration": 0.14962599999999782
                },
                {
                    "name": "G4",
                    "midi": 67,
                    "time": 108.02997199999967,
                    "velocity": 0.33070866141732286,
                    "duration": 0.14962599999999782
                },
                {
                    "name": "D5",
                    "midi": 74,
                    "time": 108.17959799999967,
                    "velocity": 0.4094488188976378,
                    "duration": 0.7418955833333314
                },
                {
                    "name": "F#5",
                    "midi": 78,
                    "time": 108.17959799999967,
                    "velocity": 0.49606299212598426,
                    "duration": 0.7418955833333314
                },
                {
                    "name": "B4",
                    "midi": 71,
                    "time": 108.17959799999967,
                    "velocity": 0.4094488188976378,
                    "duration": 0.7418955833333314
                },
                {
                    "name": "G4",
                    "midi": 67,
                    "time": 108.17959799999967,
                    "velocity": 0.4094488188976378,
                    "duration": 0.7418955833333314
                },
                {
                    "name": "A4",
                    "midi": 69,
                    "time": 108.92772799999968,
                    "velocity": 0.3464566929133858,
                    "duration": 0.14962599999999782
                },
                {
                    "name": "F#5",
                    "midi": 78,
                    "time": 108.92772799999968,
                    "velocity": 0.4094488188976378,
                    "duration": 0.14962599999999782
                },
                {
                    "name": "D5",
                    "midi": 74,
                    "time": 108.92772799999968,
                    "velocity": 0.3464566929133858,
                    "duration": 0.14962599999999782
                },
                {
                    "name": "D5",
                    "midi": 74,
                    "time": 109.07735399999967,
                    "velocity": 0.4330708661417323,
                    "duration": 0.7418955833333314
                },
                {
                    "name": "A4",
                    "midi": 69,
                    "time": 109.07735399999967,
                    "velocity": 0.4330708661417323,
                    "duration": 0.7418955833333314
                },
                {
                    "name": "F#5",
                    "midi": 78,
                    "time": 109.07735399999967,
                    "velocity": 0.5196850393700787,
                    "duration": 0.7418955833333314
                },
                {
                    "name": "B4",
                    "midi": 71,
                    "time": 109.82548399999968,
                    "velocity": 0.3700787401574803,
                    "duration": 0.14962599999999782
                },
                {
                    "name": "A5",
                    "midi": 81,
                    "time": 109.82548399999968,
                    "velocity": 0.44881889763779526,
                    "duration": 0.14962599999999782
                },
                {
                    "name": "D5",
                    "midi": 74,
                    "time": 109.82548399999968,
                    "velocity": 0.3700787401574803,
                    "duration": 0.14962599999999782
                },
                {
                    "name": "F#5",
                    "midi": 78,
                    "time": 109.82548399999968,
                    "velocity": 0.3700787401574803,
                    "duration": 0.14962599999999782
                },
                {
                    "name": "B4",
                    "midi": 71,
                    "time": 109.97510999999967,
                    "velocity": 0.47244094488188976,
                    "duration": 2.094763999999998
                },
                {
                    "name": "D5",
                    "midi": 74,
                    "time": 109.97510999999967,
                    "velocity": 0.47244094488188976,
                    "duration": 2.094763999999998
                },
                {
                    "name": "A5",
                    "midi": 81,
                    "time": 109.97510999999967,
                    "velocity": 0.5748031496062992,
                    "duration": 2.094763999999998
                },
                {
                    "name": "F#5",
                    "midi": 78,
                    "time": 109.97510999999967,
                    "velocity": 0.47244094488188976,
                    "duration": 0.8977560000000011
                },
                {
                    "name": "F5",
                    "midi": 77,
                    "time": 110.87286599999968,
                    "velocity": 0.5118110236220472,
                    "duration": 1.1970079999999967
                },
                {
                    "name": "B4",
                    "midi": 71,
                    "time": 112.06987399999967,
                    "velocity": 0.36220472440944884,
                    "duration": 0.14962599999999782
                },
                {
                    "name": "D5",
                    "midi": 74,
                    "time": 112.06987399999967,
                    "velocity": 0.36220472440944884,
                    "duration": 0.14962599999999782
                },
                {
                    "name": "G#5",
                    "midi": 80,
                    "time": 112.06987399999967,
                    "velocity": 0.4330708661417323,
                    "duration": 0.14962599999999782
                },
                {
                    "name": "B5",
                    "midi": 83,
                    "time": 112.21949999999967,
                    "velocity": 0.5433070866141733,
                    "duration": 0.44887799999999345
                },
                {
                    "name": "D5",
                    "midi": 74,
                    "time": 112.66837799999966,
                    "velocity": 0.4330708661417323,
                    "duration": 0.29925199999999563
                },
                {
                    "name": "G#4",
                    "midi": 68,
                    "time": 112.66837799999966,
                    "velocity": 0.36220472440944884,
                    "duration": 0.29925199999999563
                },
                {
                    "name": "A4",
                    "midi": 69,
                    "time": 113.41650799999965,
                    "velocity": 0.36220472440944884,
                    "duration": 0.5985039999999913
                },
                {
                    "name": "C#5",
                    "midi": 73,
                    "time": 113.41650799999965,
                    "velocity": 0.4330708661417323,
                    "duration": 0.5985039999999913
                },
                {
                    "name": "E5",
                    "midi": 76,
                    "time": 113.56613399999965,
                    "velocity": 0.5433070866141733,
                    "duration": 0.44887799999999345
                },
                {
                    "name": "G4",
                    "midi": 67,
                    "time": 114.01501199999964,
                    "velocity": 0.4330708661417323,
                    "duration": 0.29925199999999563
                },
                {
                    "name": "F#5",
                    "midi": 78,
                    "time": 114.76314199999963,
                    "velocity": 0.36220472440944884,
                    "duration": 0.14962599999999782
                },
                {
                    "name": "E5",
                    "midi": 76,
                    "time": 114.76314199999963,
                    "velocity": 0.36220472440944884,
                    "duration": 0.14962599999999782
                },
                {
                    "name": "C6",
                    "midi": 84,
                    "time": 114.76314199999963,
                    "velocity": 0.4330708661417323,
                    "duration": 0.14962599999999782
                },
                {
                    "name": "E6",
                    "midi": 88,
                    "time": 114.91276799999963,
                    "velocity": 0.5826771653543307,
                    "duration": 0.44887799999999345
                },
                {
                    "name": "F#5",
                    "midi": 78,
                    "time": 115.36164599999962,
                    "velocity": 0.4330708661417323,
                    "duration": 0.29925199999999563
                },
                {
                    "name": "C5",
                    "midi": 72,
                    "time": 115.36164599999962,
                    "velocity": 0.36220472440944884,
                    "duration": 0.29925199999999563
                },
                {
                    "name": "C5",
                    "midi": 72,
                    "time": 116.10977599999961,
                    "velocity": 0.30708661417322836,
                    "duration": 0.5985039999999913
                },
                {
                    "name": "D5",
                    "midi": 74,
                    "time": 116.10977599999961,
                    "velocity": 0.30708661417322836,
                    "duration": 0.5985039999999913
                },
                {
                    "name": "F5",
                    "midi": 77,
                    "time": 116.10977599999961,
                    "velocity": 0.36220472440944884,
                    "duration": 0.5985039999999913
                },
                {
                    "name": "A5",
                    "midi": 81,
                    "time": 116.25940199999961,
                    "velocity": 0.4566929133858268,
                    "duration": 0.44887799999999345
                },
                {
                    "name": "B4",
                    "midi": 71,
                    "time": 116.7082799999996,
                    "velocity": 0.33858267716535434,
                    "duration": 0.29925199999999563
                },
                {
                    "name": "D5",
                    "midi": 74,
                    "time": 116.7082799999996,
                    "velocity": 0.36220472440944884,
                    "duration": 0.29925199999999563
                },
                {
                    "name": "G4",
                    "midi": 67,
                    "time": 117.4564099999996,
                    "velocity": 0.2677165354330709,
                    "duration": 0.13715716666666822
                },
                {
                    "name": "C5",
                    "midi": 72,
                    "time": 117.4564099999996,
                    "velocity": 0.2677165354330709,
                    "duration": 0.13715716666666822
                },
                {
                    "name": "E5",
                    "midi": 76,
                    "time": 117.4564099999996,
                    "velocity": 0.31496062992125984,
                    "duration": 0.13715716666666822
                },
                {
                    "name": "E5",
                    "midi": 76,
                    "time": 117.60603599999959,
                    "velocity": 0.3779527559055118,
                    "duration": 0.7418955833333314
                },
                {
                    "name": "G4",
                    "midi": 67,
                    "time": 117.60603599999959,
                    "velocity": 0.31496062992125984,
                    "duration": 0.7418955833333314
                },
                {
                    "name": "C5",
                    "midi": 72,
                    "time": 117.60603599999959,
                    "velocity": 0.31496062992125984,
                    "duration": 0.7418955833333314
                },
                {
                    "name": "A4",
                    "midi": 69,
                    "time": 118.3541659999996,
                    "velocity": 0.25984251968503935,
                    "duration": 0.14962599999999782
                },
                {
                    "name": "C5",
                    "midi": 72,
                    "time": 118.3541659999996,
                    "velocity": 0.25984251968503935,
                    "duration": 0.14962599999999782
                },
                {
                    "name": "G5",
                    "midi": 79,
                    "time": 118.3541659999996,
                    "velocity": 0.30708661417322836,
                    "duration": 0.14962599999999782
                },
                {
                    "name": "E5",
                    "midi": 76,
                    "time": 118.3541659999996,
                    "velocity": 0.25984251968503935,
                    "duration": 0.14962599999999782
                },
                {
                    "name": "C5",
                    "midi": 72,
                    "time": 118.50379199999959,
                    "velocity": 0.31496062992125984,
                    "duration": 0.7418955833333314
                },
                {
                    "name": "G5",
                    "midi": 79,
                    "time": 118.50379199999959,
                    "velocity": 0.3779527559055118,
                    "duration": 0.7418955833333314
                },
                {
                    "name": "E5",
                    "midi": 76,
                    "time": 118.50379199999959,
                    "velocity": 0.31496062992125984,
                    "duration": 0.7418955833333314
                },
                {
                    "name": "A4",
                    "midi": 69,
                    "time": 118.50379199999959,
                    "velocity": 0.31496062992125984,
                    "duration": 0.7418955833333314
                },
                {
                    "name": "A5",
                    "midi": 81,
                    "time": 119.2519219999996,
                    "velocity": 0.3543307086614173,
                    "duration": 0.13715716666666822
                },
                {
                    "name": "C6",
                    "midi": 84,
                    "time": 119.2519219999996,
                    "velocity": 0.4251968503937008,
                    "duration": 0.13715716666666822
                },
                {
                    "name": "F5",
                    "midi": 77,
                    "time": 119.2519219999996,
                    "velocity": 0.3543307086614173,
                    "duration": 0.13715716666666822
                },
                {
                    "name": "D5",
                    "midi": 74,
                    "time": 119.2519219999996,
                    "velocity": 0.3543307086614173,
                    "duration": 0.13715716666666822
                },
                {
                    "name": "D5",
                    "midi": 74,
                    "time": 119.4015479999996,
                    "velocity": 0.3858267716535433,
                    "duration": 1.1970079999999967
                },
                {
                    "name": "C6",
                    "midi": 84,
                    "time": 119.4015479999996,
                    "velocity": 0.4566929133858268,
                    "duration": 1.1970079999999967
                },
                {
                    "name": "A5",
                    "midi": 81,
                    "time": 119.4015479999996,
                    "velocity": 0.3858267716535433,
                    "duration": 1.1970079999999967
                },
                {
                    "name": "F5",
                    "midi": 77,
                    "time": 119.4015479999996,
                    "velocity": 0.3858267716535433,
                    "duration": 1.1970079999999967
                },
                {
                    "name": "C5",
                    "midi": 72,
                    "time": 120.59855599999959,
                    "velocity": 0.33070866141732286,
                    "duration": 0.14962599999999782
                },
                {
                    "name": "D5",
                    "midi": 74,
                    "time": 120.59855599999959,
                    "velocity": 0.33070866141732286,
                    "duration": 0.14962599999999782
                },
                {
                    "name": "A5",
                    "midi": 81,
                    "time": 120.59855599999959,
                    "velocity": 0.3937007874015748,
                    "duration": 0.14962599999999782
                },
                {
                    "name": "F5",
                    "midi": 77,
                    "time": 120.74818199999959,
                    "velocity": 0.4251968503937008,
                    "duration": 0.29925199999999563
                },
                {
                    "name": "A4",
                    "midi": 69,
                    "time": 120.74818199999959,
                    "velocity": 0.3543307086614173,
                    "duration": 0.29925199999999563
                },
                {
                    "name": "C5",
                    "midi": 72,
                    "time": 120.74818199999959,
                    "velocity": 0.3543307086614173,
                    "duration": 0.29925199999999563
                },
                {
                    "name": "G4",
                    "midi": 67,
                    "time": 121.04743399999958,
                    "velocity": 0.30708661417322836,
                    "duration": 0.14962599999999782
                },
                {
                    "name": "C5",
                    "midi": 72,
                    "time": 121.04743399999958,
                    "velocity": 0.30708661417322836,
                    "duration": 0.14962599999999782
                },
                {
                    "name": "E5",
                    "midi": 76,
                    "time": 121.04743399999958,
                    "velocity": 0.36220472440944884,
                    "duration": 0.14962599999999782
                },
                {
                    "name": "C#5",
                    "midi": 73,
                    "time": 121.19705999999958,
                    "velocity": 0.3937007874015748,
                    "duration": 0.29925199999999563
                },
                {
                    "name": "B4",
                    "midi": 71,
                    "time": 121.19705999999958,
                    "velocity": 0.33070866141732286,
                    "duration": 0.29925199999999563
                },
                {
                    "name": "E4",
                    "midi": 64,
                    "time": 121.19705999999958,
                    "velocity": 0.33070866141732286,
                    "duration": 0.29925199999999563
                },
                {
                    "name": "F4",
                    "midi": 65,
                    "time": 121.49631199999958,
                    "velocity": 0.30708661417322836,
                    "duration": 0.14962599999999782
                },
                {
                    "name": "B4",
                    "midi": 71,
                    "time": 121.49631199999958,
                    "velocity": 0.30708661417322836,
                    "duration": 0.14962599999999782
                },
                {
                    "name": "D5",
                    "midi": 74,
                    "time": 121.49631199999958,
                    "velocity": 0.3700787401574803,
                    "duration": 0.14962599999999782
                },
                {
                    "name": "F5",
                    "midi": 77,
                    "time": 121.64593799999957,
                    "velocity": 0.41732283464566927,
                    "duration": 0.44887799999999345
                },
                {
                    "name": "A4",
                    "midi": 69,
                    "time": 121.64593799999957,
                    "velocity": 0.3543307086614173,
                    "duration": 0.44887799999999345
                },
                {
                    "name": "G4",
                    "midi": 67,
                    "time": 122.09481599999957,
                    "velocity": 0.33070866141732286,
                    "duration": 0.29925199999999563
                },
                {
                    "name": "B4",
                    "midi": 71,
                    "time": 122.09481599999957,
                    "velocity": 0.3937007874015748,
                    "duration": 0.29925199999999563
                },
                {
                    "name": "E5",
                    "midi": 76,
                    "time": 122.84294599999956,
                    "velocity": 0.31496062992125984,
                    "duration": 0.13715716666666822
                },
                {
                    "name": "C5",
                    "midi": 72,
                    "time": 122.84294599999956,
                    "velocity": 0.2677165354330709,
                    "duration": 0.13715716666666822
                },
                {
                    "name": "G4",
                    "midi": 67,
                    "time": 122.84294599999956,
                    "velocity": 0.2677165354330709,
                    "duration": 0.13715716666666822
                },
                {
                    "name": "G4",
                    "midi": 67,
                    "time": 122.99257199999956,
                    "velocity": 0.31496062992125984,
                    "duration": 0.7418955833333314
                },
                {
                    "name": "C5",
                    "midi": 72,
                    "time": 122.99257199999956,
                    "velocity": 0.31496062992125984,
                    "duration": 0.7418955833333314
                },
                {
                    "name": "E5",
                    "midi": 76,
                    "time": 122.99257199999956,
                    "velocity": 0.3779527559055118,
                    "duration": 0.7418955833333314
                },
                {
                    "name": "E5",
                    "midi": 76,
                    "time": 123.74070199999956,
                    "velocity": 0.25984251968503935,
                    "duration": 0.14962599999999782
                },
                {
                    "name": "G5",
                    "midi": 79,
                    "time": 123.74070199999956,
                    "velocity": 0.30708661417322836,
                    "duration": 0.14962599999999782
                },
                {
                    "name": "C5",
                    "midi": 72,
                    "time": 123.74070199999956,
                    "velocity": 0.25984251968503935,
                    "duration": 0.14962599999999782
                },
                {
                    "name": "A4",
                    "midi": 69,
                    "time": 123.74070199999956,
                    "velocity": 0.25984251968503935,
                    "duration": 0.14962599999999782
                },
                {
                    "name": "A4",
                    "midi": 69,
                    "time": 123.89032799999956,
                    "velocity": 0.31496062992125984,
                    "duration": 0.5985040000000055
                },
                {
                    "name": "G5",
                    "midi": 79,
                    "time": 123.89032799999956,
                    "velocity": 0.3779527559055118,
                    "duration": 0.5985040000000055
                },
                {
                    "name": "E5",
                    "midi": 76,
                    "time": 123.89032799999956,
                    "velocity": 0.31496062992125984,
                    "duration": 0.5985040000000055
                },
                {
                    "name": "C5",
                    "midi": 72,
                    "time": 123.89032799999956,
                    "velocity": 0.31496062992125984,
                    "duration": 0.5985040000000055
                },
                {
                    "name": "F#5",
                    "midi": 78,
                    "time": 124.63845799999956,
                    "velocity": 0.3858267716535433,
                    "duration": 0.13715716666666822
                },
                {
                    "name": "A5",
                    "midi": 81,
                    "time": 124.63845799999956,
                    "velocity": 0.3858267716535433,
                    "duration": 0.13715716666666822
                },
                {
                    "name": "C6",
                    "midi": 84,
                    "time": 124.63845799999956,
                    "velocity": 0.3858267716535433,
                    "duration": 0.13715716666666822
                },
                {
                    "name": "E6",
                    "midi": 88,
                    "time": 124.63845799999956,
                    "velocity": 0.4645669291338583,
                    "duration": 0.13715716666666822
                },
                {
                    "name": "A5",
                    "midi": 81,
                    "time": 124.78808399999956,
                    "velocity": 0.41732283464566927,
                    "duration": 1.1970079999999967
                },
                {
                    "name": "E6",
                    "midi": 88,
                    "time": 124.78808399999956,
                    "velocity": 0.49606299212598426,
                    "duration": 1.1970079999999967
                },
                {
                    "name": "C6",
                    "midi": 84,
                    "time": 124.78808399999956,
                    "velocity": 0.41732283464566927,
                    "duration": 1.1970079999999967
                },
                {
                    "name": "F#5",
                    "midi": 78,
                    "time": 124.78808399999956,
                    "velocity": 0.41732283464566927,
                    "duration": 1.1970079999999967
                },
                {
                    "name": "D6",
                    "midi": 86,
                    "time": 125.98509199999955,
                    "velocity": 0.3937007874015748,
                    "duration": 0.14962599999999782
                },
                {
                    "name": "A5",
                    "midi": 81,
                    "time": 125.98509199999955,
                    "velocity": 0.33070866141732286,
                    "duration": 0.14962599999999782
                },
                {
                    "name": "F#5",
                    "midi": 78,
                    "time": 125.98509199999955,
                    "velocity": 0.33070866141732286,
                    "duration": 0.14962599999999782
                },
                {
                    "name": "E5",
                    "midi": 76,
                    "time": 126.13471799999955,
                    "velocity": 0.3543307086614173,
                    "duration": 0.29925199999999563
                },
                {
                    "name": "F#5",
                    "midi": 78,
                    "time": 126.13471799999955,
                    "velocity": 0.3543307086614173,
                    "duration": 0.29925199999999563
                },
                {
                    "name": "C6",
                    "midi": 84,
                    "time": 126.13471799999955,
                    "velocity": 0.4251968503937008,
                    "duration": 0.29925199999999563
                },
                {
                    "name": "B5",
                    "midi": 83,
                    "time": 126.43396999999955,
                    "velocity": 0.36220472440944884,
                    "duration": 0.14962599999999782
                },
                {
                    "name": "D5",
                    "midi": 74,
                    "time": 126.43396999999955,
                    "velocity": 0.30708661417322836,
                    "duration": 0.14962599999999782
                },
                {
                    "name": "F#5",
                    "midi": 78,
                    "time": 126.43396999999955,
                    "velocity": 0.30708661417322836,
                    "duration": 0.14962599999999782
                },
                {
                    "name": "B4",
                    "midi": 71,
                    "time": 126.58359599999955,
                    "velocity": 0.3228346456692913,
                    "duration": 0.14962599999999782
                },
                {
                    "name": "F#5",
                    "midi": 78,
                    "time": 126.58359599999955,
                    "velocity": 0.3228346456692913,
                    "duration": 0.14962599999999782
                },
                {
                    "name": "G#5",
                    "midi": 80,
                    "time": 126.58359599999955,
                    "velocity": 0.3858267716535433,
                    "duration": 0.14962599999999782
                },
                {
                    "name": "A5",
                    "midi": 81,
                    "time": 126.73322199999954,
                    "velocity": 0.3464566929133858,
                    "duration": 0.14962599999999782
                },
                {
                    "name": "F#5",
                    "midi": 78,
                    "time": 126.73322199999954,
                    "velocity": 0.29133858267716534,
                    "duration": 0.14962599999999782
                },
                {
                    "name": "C5",
                    "midi": 72,
                    "time": 126.73322199999954,
                    "velocity": 0.29133858267716534,
                    "duration": 0.14962599999999782
                },
                {
                    "name": "E5",
                    "midi": 76,
                    "time": 126.88284799999954,
                    "velocity": 0.29133858267716534,
                    "duration": 0.14962599999999782
                },
                {
                    "name": "F#5",
                    "midi": 78,
                    "time": 126.88284799999954,
                    "velocity": 0.3464566929133858,
                    "duration": 0.14962599999999782
                },
                {
                    "name": "C6",
                    "midi": 84,
                    "time": 126.88284799999954,
                    "velocity": 0.3464566929133858,
                    "duration": 0.14962599999999782
                },
                {
                    "name": "F#5",
                    "midi": 78,
                    "time": 127.03247399999954,
                    "velocity": 0.33858267716535434,
                    "duration": 0.7481300000000033
                },
                {
                    "name": "D5",
                    "midi": 74,
                    "time": 127.03247399999954,
                    "velocity": 0.33858267716535434,
                    "duration": 0.7481300000000033
                },
                {
                    "name": "B5",
                    "midi": 83,
                    "time": 127.03247399999954,
                    "velocity": 0.4015748031496063,
                    "duration": 0.7481300000000033
                },
                {
                    "name": "C5",
                    "midi": 72,
                    "time": 127.78060399999954,
                    "velocity": 0.25984251968503935,
                    "duration": 0.14962599999999782
                },
                {
                    "name": "A5",
                    "midi": 81,
                    "time": 127.78060399999954,
                    "velocity": 0.30708661417322836,
                    "duration": 0.14962599999999782
                },
                {
                    "name": "F#5",
                    "midi": 78,
                    "time": 127.78060399999954,
                    "velocity": 0.30708661417322836,
                    "duration": 0.14962599999999782
                },
                {
                    "name": "F#4",
                    "midi": 66,
                    "time": 127.93022999999954,
                    "velocity": 0.3228346456692913,
                    "duration": 0.14962600000001203
                },
                {
                    "name": "B3",
                    "midi": 59,
                    "time": 127.93022999999954,
                    "velocity": 0.3228346456692913,
                    "duration": 0.14962600000001203
                },
                {
                    "name": "G#4",
                    "midi": 68,
                    "time": 127.93022999999954,
                    "velocity": 0.3858267716535433,
                    "duration": 0.14962600000001203
                },
                {
                    "name": "C4",
                    "midi": 60,
                    "time": 128.07985599999955,
                    "velocity": 0.29133858267716534,
                    "duration": 0.14962600000001203
                },
                {
                    "name": "A4",
                    "midi": 69,
                    "time": 128.07985599999955,
                    "velocity": 0.3464566929133858,
                    "duration": 0.14962600000001203
                },
                {
                    "name": "F#4",
                    "midi": 66,
                    "time": 128.07985599999955,
                    "velocity": 0.29133858267716534,
                    "duration": 0.14962600000001203
                },
                {
                    "name": "E4",
                    "midi": 64,
                    "time": 128.22948199999956,
                    "velocity": 0.29133858267716534,
                    "duration": 0.14962600000001203
                },
                {
                    "name": "F#4",
                    "midi": 66,
                    "time": 128.22948199999956,
                    "velocity": 0.3464566929133858,
                    "duration": 0.14962600000001203
                },
                {
                    "name": "C5",
                    "midi": 72,
                    "time": 128.22948199999956,
                    "velocity": 0.3464566929133858,
                    "duration": 0.14962600000001203
                },
                {
                    "name": "B4",
                    "midi": 71,
                    "time": 128.37910799999958,
                    "velocity": 0.4015748031496063,
                    "duration": 0.7481300000000033
                },
                {
                    "name": "F#4",
                    "midi": 66,
                    "time": 128.37910799999958,
                    "velocity": 0.33858267716535434,
                    "duration": 0.7481300000000033
                },
                {
                    "name": "D4",
                    "midi": 62,
                    "time": 128.37910799999958,
                    "velocity": 0.33858267716535434,
                    "duration": 0.7481300000000033
                },
                {
                    "name": "C4",
                    "midi": 60,
                    "time": 129.12723799999958,
                    "velocity": 0.25984251968503935,
                    "duration": 0.14962600000001203
                },
                {
                    "name": "F#4",
                    "midi": 66,
                    "time": 129.12723799999958,
                    "velocity": 0.30708661417322836,
                    "duration": 0.14962600000001203
                },
                {
                    "name": "A4",
                    "midi": 69,
                    "time": 129.12723799999958,
                    "velocity": 0.30708661417322836,
                    "duration": 0.14962600000001203
                },
                {
                    "name": "A#5",
                    "midi": 82,
                    "time": 129.2768639999996,
                    "velocity": 0.5275590551181102,
                    "duration": 0.14962600000001203
                },
                {
                    "name": "C#5",
                    "midi": 73,
                    "time": 129.2768639999996,
                    "velocity": 0.4409448818897638,
                    "duration": 0.14962600000001203
                },
                {
                    "name": "G#5",
                    "midi": 80,
                    "time": 129.2768639999996,
                    "velocity": 0.4409448818897638,
                    "duration": 0.14962600000001203
                },
                {
                    "name": "D5",
                    "midi": 74,
                    "time": 129.4264899999996,
                    "velocity": 0.3937007874015748,
                    "duration": 0.14962600000001203
                },
                {
                    "name": "G#5",
                    "midi": 80,
                    "time": 129.4264899999996,
                    "velocity": 0.3937007874015748,
                    "duration": 0.14962600000001203
                },
                {
                    "name": "B5",
                    "midi": 83,
                    "time": 129.4264899999996,
                    "velocity": 0.47244094488188976,
                    "duration": 0.14962600000001203
                },
                {
                    "name": "D6",
                    "midi": 86,
                    "time": 129.57611599999962,
                    "velocity": 0.47244094488188976,
                    "duration": 0.14962600000001203
                },
                {
                    "name": "G#5",
                    "midi": 80,
                    "time": 129.57611599999962,
                    "velocity": 0.47244094488188976,
                    "duration": 0.14962600000001203
                },
                {
                    "name": "F5",
                    "midi": 77,
                    "time": 129.57611599999962,
                    "velocity": 0.3937007874015748,
                    "duration": 0.14962600000001203
                },
                {
                    "name": "E5",
                    "midi": 76,
                    "time": 129.72574199999963,
                    "velocity": 0.4566929133858268,
                    "duration": 0.7481300000000033
                },
                {
                    "name": "G#5",
                    "midi": 80,
                    "time": 129.72574199999963,
                    "velocity": 0.4566929133858268,
                    "duration": 0.7481300000000033
                },
                {
                    "name": "C6",
                    "midi": 84,
                    "time": 129.72574199999963,
                    "velocity": 0.5433070866141733,
                    "duration": 0.7481300000000033
                },
                {
                    "name": "G#5",
                    "midi": 80,
                    "time": 130.47387199999963,
                    "velocity": 0.4094488188976378,
                    "duration": 0.14962600000001203
                },
                {
                    "name": "D5",
                    "midi": 74,
                    "time": 130.47387199999963,
                    "velocity": 0.3464566929133858,
                    "duration": 0.14962600000001203
                },
                {
                    "name": "B5",
                    "midi": 83,
                    "time": 130.47387199999963,
                    "velocity": 0.4094488188976378,
                    "duration": 0.14962600000001203
                },
                {
                    "name": "C#4",
                    "midi": 61,
                    "time": 130.62349799999964,
                    "velocity": 0.4409448818897638,
                    "duration": 0.14962600000001203
                },
                {
                    "name": "A#4",
                    "midi": 70,
                    "time": 130.62349799999964,
                    "velocity": 0.5275590551181102,
                    "duration": 0.14962600000001203
                },
                {
                    "name": "G#4",
                    "midi": 68,
                    "time": 130.62349799999964,
                    "velocity": 0.4409448818897638,
                    "duration": 0.14962600000001203
                },
                {
                    "name": "G#4",
                    "midi": 68,
                    "time": 130.77312399999965,
                    "velocity": 0.3937007874015748,
                    "duration": 0.14962600000001203
                },
                {
                    "name": "D4",
                    "midi": 62,
                    "time": 130.77312399999965,
                    "velocity": 0.3937007874015748,
                    "duration": 0.14962600000001203
                },
                {
                    "name": "B4",
                    "midi": 71,
                    "time": 130.77312399999965,
                    "velocity": 0.47244094488188976,
                    "duration": 0.14962600000001203
                },
                {
                    "name": "F4",
                    "midi": 65,
                    "time": 130.92274999999967,
                    "velocity": 0.3937007874015748,
                    "duration": 0.14962600000001203
                },
                {
                    "name": "D5",
                    "midi": 74,
                    "time": 130.92274999999967,
                    "velocity": 0.47244094488188976,
                    "duration": 0.14962600000001203
                },
                {
                    "name": "G#4",
                    "midi": 68,
                    "time": 130.92274999999967,
                    "velocity": 0.47244094488188976,
                    "duration": 0.14962600000001203
                },
                {
                    "name": "E4",
                    "midi": 64,
                    "time": 131.07237599999968,
                    "velocity": 0.4566929133858268,
                    "duration": 0.7481300000000033
                },
                {
                    "name": "G#4",
                    "midi": 68,
                    "time": 131.07237599999968,
                    "velocity": 0.4566929133858268,
                    "duration": 0.7481300000000033
                },
                {
                    "name": "C5",
                    "midi": 72,
                    "time": 131.07237599999968,
                    "velocity": 0.5433070866141733,
                    "duration": 0.7481300000000033
                },
                {
                    "name": "B4",
                    "midi": 71,
                    "time": 131.82050599999968,
                    "velocity": 0.4094488188976378,
                    "duration": 0.14962600000001203
                },
                {
                    "name": "G#4",
                    "midi": 68,
                    "time": 131.82050599999968,
                    "velocity": 0.4094488188976378,
                    "duration": 0.14962600000001203
                },
                {
                    "name": "D4",
                    "midi": 62,
                    "time": 131.82050599999968,
                    "velocity": 0.3464566929133858,
                    "duration": 0.14962600000001203
                },
                {
                    "name": "D5",
                    "midi": 74,
                    "time": 131.9701319999997,
                    "velocity": 0.4566929133858268,
                    "duration": 0.14962600000001203
                },
                {
                    "name": "G#5",
                    "midi": 80,
                    "time": 131.9701319999997,
                    "velocity": 0.4566929133858268,
                    "duration": 0.14962600000001203
                },
                {
                    "name": "B5",
                    "midi": 83,
                    "time": 131.9701319999997,
                    "velocity": 0.5511811023622047,
                    "duration": 0.14962600000001203
                },
                {
                    "name": "C6",
                    "midi": 84,
                    "time": 132.1197579999997,
                    "velocity": 0.4881889763779528,
                    "duration": 0.14962600000001203
                },
                {
                    "name": "E5",
                    "midi": 76,
                    "time": 132.1197579999997,
                    "velocity": 0.4094488188976378,
                    "duration": 0.14962600000001203
                },
                {
                    "name": "A5",
                    "midi": 81,
                    "time": 132.1197579999997,
                    "velocity": 0.4094488188976378,
                    "duration": 0.14962600000001203
                },
                {
                    "name": "A5",
                    "midi": 81,
                    "time": 132.26938399999972,
                    "velocity": 0.4094488188976378,
                    "duration": 0.14339158333334012
                },
                {
                    "name": "C6",
                    "midi": 84,
                    "time": 132.26938399999972,
                    "velocity": 0.4881889763779528,
                    "duration": 0.14339158333334012
                },
                {
                    "name": "F#6",
                    "midi": 90,
                    "time": 132.26938399999972,
                    "velocity": 0.4881889763779528,
                    "duration": 0.14339158333334012
                },
                {
                    "name": "F#6",
                    "midi": 90,
                    "time": 132.41900999999973,
                    "velocity": 0.5669291338582677,
                    "duration": 0.7481300000000033
                },
                {
                    "name": "C6",
                    "midi": 84,
                    "time": 132.41900999999973,
                    "velocity": 0.48031496062992124,
                    "duration": 0.7481300000000033
                },
                {
                    "name": "A5",
                    "midi": 81,
                    "time": 132.41900999999973,
                    "velocity": 0.48031496062992124,
                    "duration": 0.7481300000000033
                },
                {
                    "name": "C6",
                    "midi": 84,
                    "time": 133.16713999999973,
                    "velocity": 0.4881889763779528,
                    "duration": 0.14339158333334012
                },
                {
                    "name": "E6",
                    "midi": 88,
                    "time": 133.16713999999973,
                    "velocity": 0.4881889763779528,
                    "duration": 0.14339158333334012
                },
                {
                    "name": "A6",
                    "midi": 93,
                    "time": 133.16713999999973,
                    "velocity": 0.5748031496062992,
                    "duration": 0.14339158333334012
                },
                {
                    "name": "E6",
                    "midi": 88,
                    "time": 133.31676599999975,
                    "velocity": 0.5196850393700787,
                    "duration": 0.7481300000000033
                },
                {
                    "name": "C6",
                    "midi": 84,
                    "time": 133.31676599999975,
                    "velocity": 0.5196850393700787,
                    "duration": 0.7481300000000033
                },
                {
                    "name": "A6",
                    "midi": 93,
                    "time": 133.31676599999975,
                    "velocity": 0.6141732283464567,
                    "duration": 0.7481300000000033
                },
                {
                    "name": "A5",
                    "midi": 81,
                    "time": 134.06489599999975,
                    "velocity": 0.4330708661417323,
                    "duration": 0.14962600000001203
                },
                {
                    "name": "F#6",
                    "midi": 90,
                    "time": 134.06489599999975,
                    "velocity": 0.5118110236220472,
                    "duration": 0.14962600000001203
                },
                {
                    "name": "C6",
                    "midi": 84,
                    "time": 134.06489599999975,
                    "velocity": 0.4330708661417323,
                    "duration": 0.14962600000001203
                },
                {
                    "name": "A5",
                    "midi": 81,
                    "time": 134.21452199999976,
                    "velocity": 0.48031496062992124,
                    "duration": 0.29925199999999563
                },
                {
                    "name": "F#5",
                    "midi": 78,
                    "time": 134.21452199999976,
                    "velocity": 0.48031496062992124,
                    "duration": 0.29925199999999563
                },
                {
                    "name": "D6",
                    "midi": 86,
                    "time": 134.21452199999976,
                    "velocity": 0.5669291338582677,
                    "duration": 0.29925199999999563
                },
                {
                    "name": "E5",
                    "midi": 76,
                    "time": 134.51377399999976,
                    "velocity": 0.4251968503937008,
                    "duration": 0.14962600000001203
                },
                {
                    "name": "C6",
                    "midi": 84,
                    "time": 134.51377399999976,
                    "velocity": 0.5039370078740157,
                    "duration": 0.14962600000001203
                },
                {
                    "name": "A5",
                    "midi": 81,
                    "time": 134.51377399999976,
                    "velocity": 0.4251968503937008,
                    "duration": 0.14962600000001203
                },
                {
                    "name": "B4",
                    "midi": 71,
                    "time": 134.66339999999977,
                    "velocity": 0.41732283464566927,
                    "duration": 0.14962600000001203
                },
                {
                    "name": "F#5",
                    "midi": 78,
                    "time": 134.66339999999977,
                    "velocity": 0.41732283464566927,
                    "duration": 0.14962600000001203
                },
                {
                    "name": "G#5",
                    "midi": 80,
                    "time": 134.66339999999977,
                    "velocity": 0.49606299212598426,
                    "duration": 0.14962600000001203
                },
                {
                    "name": "A5",
                    "midi": 81,
                    "time": 134.81302599999978,
                    "velocity": 0.4330708661417323,
                    "duration": 0.14962600000001203
                },
                {
                    "name": "F#5",
                    "midi": 78,
                    "time": 134.81302599999978,
                    "velocity": 0.36220472440944884,
                    "duration": 0.14962600000001203
                },
                {
                    "name": "C5",
                    "midi": 72,
                    "time": 134.81302599999978,
                    "velocity": 0.36220472440944884,
                    "duration": 0.14962600000001203
                },
                {
                    "name": "E5",
                    "midi": 76,
                    "time": 134.9626519999998,
                    "velocity": 0.3543307086614173,
                    "duration": 0.14962600000001203
                },
                {
                    "name": "F#5",
                    "midi": 78,
                    "time": 134.9626519999998,
                    "velocity": 0.4251968503937008,
                    "duration": 0.14962600000001203
                },
                {
                    "name": "C6",
                    "midi": 84,
                    "time": 134.9626519999998,
                    "velocity": 0.4251968503937008,
                    "duration": 0.14962600000001203
                },
                {
                    "name": "B5",
                    "midi": 83,
                    "time": 135.1122779999998,
                    "velocity": 0.48031496062992124,
                    "duration": 0.7481300000000033
                },
                {
                    "name": "D5",
                    "midi": 74,
                    "time": 135.1122779999998,
                    "velocity": 0.4015748031496063,
                    "duration": 0.7481300000000033
                },
                {
                    "name": "F#5",
                    "midi": 78,
                    "time": 135.1122779999998,
                    "velocity": 0.4015748031496063,
                    "duration": 0.7481300000000033
                },
                {
                    "name": "C5",
                    "midi": 72,
                    "time": 135.8604079999998,
                    "velocity": 0.2677165354330709,
                    "duration": 0.10598508333333712
                },
                {
                    "name": "F#5",
                    "midi": 78,
                    "time": 135.8604079999998,
                    "velocity": 0.31496062992125984,
                    "duration": 0.10598508333333712
                },
                {
                    "name": "A5",
                    "midi": 81,
                    "time": 135.8604079999998,
                    "velocity": 0.31496062992125984,
                    "duration": 0.10598508333333712
                },
                {
                    "name": "G4",
                    "midi": 67,
                    "time": 135.97262749999982,
                    "velocity": 0.4330708661417323,
                    "duration": 0.1496259999999836
                },
                {
                    "name": "B4",
                    "midi": 71,
                    "time": 135.9913307499998,
                    "velocity": 0.4251968503937008,
                    "duration": 0.1309227499999963
                },
                {
                    "name": "G5",
                    "midi": 79,
                    "time": 136.0100339999998,
                    "velocity": 0.5275590551181102,
                    "duration": 0.11221950000000902
                },
                {
                    "name": "B3",
                    "midi": 59,
                    "time": 136.3092859999998,
                    "velocity": 0.29133858267716534,
                    "duration": 0.07481300000000601
                },
                {
                    "name": "B3",
                    "midi": 59,
                    "time": 136.4589119999998,
                    "velocity": 0.3228346456692913,
                    "duration": 0.07481300000000601
                },
                {
                    "name": "G3",
                    "midi": 55,
                    "time": 136.4589119999998,
                    "velocity": 0.2755905511811024,
                    "duration": 0.07481300000000601
                },
                {
                    "name": "A3",
                    "midi": 57,
                    "time": 136.6085379999998,
                    "velocity": 0.2440944881889764,
                    "duration": 0.07481300000000601
                },
                {
                    "name": "C4",
                    "midi": 60,
                    "time": 136.6085379999998,
                    "velocity": 0.29133858267716534,
                    "duration": 0.07481300000000601
                },
                {
                    "name": "D4",
                    "midi": 62,
                    "time": 136.75816399999982,
                    "velocity": 0.29133858267716534,
                    "duration": 0.07481300000000601
                },
                {
                    "name": "B3",
                    "midi": 59,
                    "time": 136.75816399999982,
                    "velocity": 0.2440944881889764,
                    "duration": 0.07481300000000601
                },
                {
                    "name": "C4",
                    "midi": 60,
                    "time": 136.90778999999984,
                    "velocity": 0.2755905511811024,
                    "duration": 0.07481300000000601
                },
                {
                    "name": "E4",
                    "midi": 64,
                    "time": 136.90778999999984,
                    "velocity": 0.3228346456692913,
                    "duration": 0.07481300000000601
                },
                {
                    "name": "D4",
                    "midi": 62,
                    "time": 137.05741599999985,
                    "velocity": 0.29133858267716534,
                    "duration": 0.07481300000000601
                },
                {
                    "name": "B3",
                    "midi": 59,
                    "time": 137.05741599999985,
                    "velocity": 0.2440944881889764,
                    "duration": 0.07481300000000601
                },
                {
                    "name": "G4",
                    "midi": 67,
                    "time": 137.16963549999986,
                    "velocity": 0.4015748031496063,
                    "duration": 0.1496259999999836
                },
                {
                    "name": "B4",
                    "midi": 71,
                    "time": 137.18833874999984,
                    "velocity": 0.4330708661417323,
                    "duration": 0.1309227499999963
                },
                {
                    "name": "G5",
                    "midi": 79,
                    "time": 137.20704199999983,
                    "velocity": 0.5039370078740157,
                    "duration": 0.11221950000000902
                },
                {
                    "name": "B3",
                    "midi": 59,
                    "time": 137.35666799999984,
                    "velocity": 0.3228346456692913,
                    "duration": 0.07481300000000601
                },
                {
                    "name": "G3",
                    "midi": 55,
                    "time": 137.35666799999984,
                    "velocity": 0.2755905511811024,
                    "duration": 0.07481300000000601
                },
                {
                    "name": "A3",
                    "midi": 57,
                    "time": 137.50629399999985,
                    "velocity": 0.2440944881889764,
                    "duration": 0.07481300000000601
                },
                {
                    "name": "C4",
                    "midi": 60,
                    "time": 137.50629399999985,
                    "velocity": 0.29133858267716534,
                    "duration": 0.07481300000000601
                },
                {
                    "name": "D4",
                    "midi": 62,
                    "time": 137.65591999999987,
                    "velocity": 0.29133858267716534,
                    "duration": 0.07481300000000601
                },
                {
                    "name": "B3",
                    "midi": 59,
                    "time": 137.65591999999987,
                    "velocity": 0.2440944881889764,
                    "duration": 0.07481300000000601
                },
                {
                    "name": "C4",
                    "midi": 60,
                    "time": 137.80554599999988,
                    "velocity": 0.2755905511811024,
                    "duration": 0.07481300000000601
                },
                {
                    "name": "E4",
                    "midi": 64,
                    "time": 137.80554599999988,
                    "velocity": 0.3228346456692913,
                    "duration": 0.07481300000000601
                },
                {
                    "name": "B3",
                    "midi": 59,
                    "time": 137.9551719999999,
                    "velocity": 0.2440944881889764,
                    "duration": 0.07481300000000601
                },
                {
                    "name": "D4",
                    "midi": 62,
                    "time": 137.9551719999999,
                    "velocity": 0.29133858267716534,
                    "duration": 0.07481300000000601
                },
                {
                    "name": "G4",
                    "midi": 67,
                    "time": 138.0673914999999,
                    "velocity": 0.3858267716535433,
                    "duration": 0.1496259999999836
                },
                {
                    "name": "B4",
                    "midi": 71,
                    "time": 138.0860947499999,
                    "velocity": 0.3858267716535433,
                    "duration": 0.1309227499999963
                },
                {
                    "name": "G5",
                    "midi": 79,
                    "time": 138.10479799999987,
                    "velocity": 0.5039370078740157,
                    "duration": 0.11221950000000902
                },
                {
                    "name": "G4",
                    "midi": 67,
                    "time": 138.51626949999988,
                    "velocity": 0.3858267716535433,
                    "duration": 0.1496259999999836
                },
                {
                    "name": "B4",
                    "midi": 71,
                    "time": 138.53497274999987,
                    "velocity": 0.3858267716535433,
                    "duration": 0.1309227499999963
                },
                {
                    "name": "G5",
                    "midi": 79,
                    "time": 138.55367599999985,
                    "velocity": 0.5118110236220472,
                    "duration": 0.11221950000000902
                },
                {
                    "name": "A5",
                    "midi": 81,
                    "time": 138.70330199999987,
                    "velocity": 0.5039370078740157,
                    "duration": 0.11221950000000902
                },
                {
                    "name": "C5",
                    "midi": 72,
                    "time": 138.70330199999987,
                    "velocity": 0.4094488188976378,
                    "duration": 0.11221950000000902
                },
                {
                    "name": "A4",
                    "midi": 69,
                    "time": 138.70330199999987,
                    "velocity": 0.4094488188976378,
                    "duration": 0.11221950000000902
                },
                {
                    "name": "F3",
                    "midi": 53,
                    "time": 139.00255399999986,
                    "velocity": 0.2204724409448819,
                    "duration": 0.07481300000000601
                },
                {
                    "name": "A3",
                    "midi": 57,
                    "time": 139.00255399999986,
                    "velocity": 0.2992125984251969,
                    "duration": 0.07481300000000601
                },
                {
                    "name": "A3",
                    "midi": 57,
                    "time": 139.15217999999987,
                    "velocity": 0.33070866141732286,
                    "duration": 0.07481300000000601
                },
                {
                    "name": "F3",
                    "midi": 53,
                    "time": 139.15217999999987,
                    "velocity": 0.28346456692913385,
                    "duration": 0.07481300000000601
                },
                {
                    "name": "G3",
                    "midi": 55,
                    "time": 139.30180599999989,
                    "velocity": 0.25984251968503935,
                    "duration": 0.07481300000000601
                },
                {
                    "name": "A#3",
                    "midi": 58,
                    "time": 139.30180599999989,
                    "velocity": 0.31496062992125984,
                    "duration": 0.07481300000000601
                },
                {
                    "name": "A3",
                    "midi": 57,
                    "time": 139.4514319999999,
                    "velocity": 0.2677165354330709,
                    "duration": 0.07481300000000601
                },
                {
                    "name": "C4",
                    "midi": 60,
                    "time": 139.4514319999999,
                    "velocity": 0.3228346456692913,
                    "duration": 0.07481300000000601
                },
                {
                    "name": "A#3",
                    "midi": 58,
                    "time": 139.6010579999999,
                    "velocity": 0.31496062992125984,
                    "duration": 0.07481300000000601
                },
                {
                    "name": "D4",
                    "midi": 62,
                    "time": 139.6010579999999,
                    "velocity": 0.3700787401574803,
                    "duration": 0.07481300000000601
                },
                {
                    "name": "A3",
                    "midi": 57,
                    "time": 139.75068399999992,
                    "velocity": 0.29133858267716534,
                    "duration": 0.07481300000000601
                },
                {
                    "name": "C4",
                    "midi": 60,
                    "time": 139.75068399999992,
                    "velocity": 0.3464566929133858,
                    "duration": 0.07481300000000601
                },
                {
                    "name": "A4",
                    "midi": 69,
                    "time": 139.90030999999993,
                    "velocity": 0.44881889763779526,
                    "duration": 0.11221950000000902
                },
                {
                    "name": "C5",
                    "midi": 72,
                    "time": 139.90030999999993,
                    "velocity": 0.44881889763779526,
                    "duration": 0.11221950000000902
                },
                {
                    "name": "A5",
                    "midi": 81,
                    "time": 139.90030999999993,
                    "velocity": 0.5354330708661418,
                    "duration": 0.11221950000000902
                },
                {
                    "name": "F3",
                    "midi": 53,
                    "time": 140.04993599999995,
                    "velocity": 0.2992125984251969,
                    "duration": 0.07481300000000601
                },
                {
                    "name": "A3",
                    "midi": 57,
                    "time": 140.04993599999995,
                    "velocity": 0.3543307086614173,
                    "duration": 0.07481300000000601
                },
                {
                    "name": "A#3",
                    "midi": 58,
                    "time": 140.19956199999996,
                    "velocity": 0.33070866141732286,
                    "duration": 0.07481300000000601
                },
                {
                    "name": "G3",
                    "midi": 55,
                    "time": 140.19956199999996,
                    "velocity": 0.2677165354330709,
                    "duration": 0.07481300000000601
                },
                {
                    "name": "C4",
                    "midi": 60,
                    "time": 140.34918799999997,
                    "velocity": 0.33858267716535434,
                    "duration": 0.07481300000000601
                },
                {
                    "name": "A3",
                    "midi": 57,
                    "time": 140.34918799999997,
                    "velocity": 0.28346456692913385,
                    "duration": 0.07481300000000601
                },
                {
                    "name": "C5",
                    "midi": 72,
                    "time": 140.79806599999998,
                    "velocity": 0.47244094488188976,
                    "duration": 0.11221950000000902
                },
                {
                    "name": "A4",
                    "midi": 69,
                    "time": 140.79806599999998,
                    "velocity": 0.47244094488188976,
                    "duration": 0.11221950000000902
                },
                {
                    "name": "A5",
                    "midi": 81,
                    "time": 140.79806599999998,
                    "velocity": 0.5590551181102362,
                    "duration": 0.11221950000000902
                },
                {
                    "name": "A4",
                    "midi": 69,
                    "time": 141.24694399999998,
                    "velocity": 0.48031496062992124,
                    "duration": 0.11221950000000902
                },
                {
                    "name": "A5",
                    "midi": 81,
                    "time": 141.24694399999998,
                    "velocity": 0.5748031496062992,
                    "duration": 0.11221950000000902
                },
                {
                    "name": "C5",
                    "midi": 72,
                    "time": 141.24694399999998,
                    "velocity": 0.48031496062992124,
                    "duration": 0.11221950000000902
                },
                {
                    "name": "B4",
                    "midi": 71,
                    "time": 141.39657,
                    "velocity": 0.47244094488188976,
                    "duration": 0.11221950000000902
                },
                {
                    "name": "G#5",
                    "midi": 80,
                    "time": 141.39657,
                    "velocity": 0.47244094488188976,
                    "duration": 0.11221950000000902
                },
                {
                    "name": "B5",
                    "midi": 83,
                    "time": 141.39657,
                    "velocity": 0.5748031496062992,
                    "duration": 0.11221950000000902
                },
                {
                    "name": "E3",
                    "midi": 52,
                    "time": 141.695822,
                    "velocity": 0.2755905511811024,
                    "duration": 0.07481300000000601
                },
                {
                    "name": "G#3",
                    "midi": 56,
                    "time": 141.695822,
                    "velocity": 0.33858267716535434,
                    "duration": 0.07481300000000601
                },
                {
                    "name": "G#3",
                    "midi": 56,
                    "time": 141.845448,
                    "velocity": 0.3779527559055118,
                    "duration": 0.07481300000000601
                },
                {
                    "name": "E3",
                    "midi": 52,
                    "time": 141.845448,
                    "velocity": 0.3228346456692913,
                    "duration": 0.07481300000000601
                },
                {
                    "name": "A3",
                    "midi": 57,
                    "time": 141.99507400000002,
                    "velocity": 0.3543307086614173,
                    "duration": 0.07481300000000601
                },
                {
                    "name": "F#3",
                    "midi": 54,
                    "time": 141.99507400000002,
                    "velocity": 0.29133858267716534,
                    "duration": 0.07481300000000601
                },
                {
                    "name": "G#3",
                    "midi": 56,
                    "time": 142.14470000000003,
                    "velocity": 0.30708661417322836,
                    "duration": 0.07481300000000601
                },
                {
                    "name": "B3",
                    "midi": 59,
                    "time": 142.14470000000003,
                    "velocity": 0.36220472440944884,
                    "duration": 0.07481300000000601
                },
                {
                    "name": "A3",
                    "midi": 57,
                    "time": 142.29432600000004,
                    "velocity": 0.3543307086614173,
                    "duration": 0.07481300000000601
                },
                {
                    "name": "C4",
                    "midi": 60,
                    "time": 142.29432600000004,
                    "velocity": 0.41732283464566927,
                    "duration": 0.07481300000000601
                },
                {
                    "name": "B3",
                    "midi": 59,
                    "time": 142.44395200000005,
                    "velocity": 0.3937007874015748,
                    "duration": 0.07481300000000601
                },
                {
                    "name": "G#3",
                    "midi": 56,
                    "time": 142.44395200000005,
                    "velocity": 0.33070866141732286,
                    "duration": 0.07481300000000601
                },
                {
                    "name": "B4",
                    "midi": 71,
                    "time": 142.55617150000006,
                    "velocity": 0.5118110236220472,
                    "duration": 0.1496259999999836
                },
                {
                    "name": "G#5",
                    "midi": 80,
                    "time": 142.57487475000005,
                    "velocity": 0.5118110236220472,
                    "duration": 0.1309227499999963
                },
                {
                    "name": "B5",
                    "midi": 83,
                    "time": 142.59357800000004,
                    "velocity": 0.6141732283464567,
                    "duration": 0.11221950000000902
                },
                {
                    "name": "G#3",
                    "midi": 56,
                    "time": 142.74320400000005,
                    "velocity": 0.4015748031496063,
                    "duration": 0.07481300000000601
                },
                {
                    "name": "E3",
                    "midi": 52,
                    "time": 142.74320400000005,
                    "velocity": 0.33858267716535434,
                    "duration": 0.07481300000000601
                },
                {
                    "name": "A3",
                    "midi": 57,
                    "time": 142.89283000000006,
                    "velocity": 0.3700787401574803,
                    "duration": 0.07481300000000601
                },
                {
                    "name": "F#3",
                    "midi": 54,
                    "time": 142.89283000000006,
                    "velocity": 0.30708661417322836,
                    "duration": 0.07481300000000601
                },
                {
                    "name": "B3",
                    "midi": 59,
                    "time": 143.04245600000007,
                    "velocity": 0.3858267716535433,
                    "duration": 0.07481300000000601
                },
                {
                    "name": "G#3",
                    "midi": 56,
                    "time": 143.04245600000007,
                    "velocity": 0.3228346456692913,
                    "duration": 0.07481300000000601
                },
                {
                    "name": "B4",
                    "midi": 71,
                    "time": 143.49133400000008,
                    "velocity": 0.5275590551181102,
                    "duration": 0.11221950000000902
                },
                {
                    "name": "G#5",
                    "midi": 80,
                    "time": 143.49133400000008,
                    "velocity": 0.5275590551181102,
                    "duration": 0.11221950000000902
                },
                {
                    "name": "B5",
                    "midi": 83,
                    "time": 143.49133400000008,
                    "velocity": 0.6299212598425197,
                    "duration": 0.11221950000000902
                },
                {
                    "name": "G#5",
                    "midi": 80,
                    "time": 143.9402120000001,
                    "velocity": 0.5433070866141733,
                    "duration": 0.11221950000000902
                },
                {
                    "name": "B5",
                    "midi": 83,
                    "time": 143.9402120000001,
                    "velocity": 0.6456692913385826,
                    "duration": 0.11221950000000902
                },
                {
                    "name": "B4",
                    "midi": 71,
                    "time": 143.9402120000001,
                    "velocity": 0.5433070866141733,
                    "duration": 0.11221950000000902
                },
                {
                    "name": "D5",
                    "midi": 74,
                    "time": 144.0524315000001,
                    "velocity": 0.49606299212598426,
                    "duration": 0.14962600000004045
                },
                {
                    "name": "F5",
                    "midi": 77,
                    "time": 144.06490033333344,
                    "velocity": 0.5196850393700787,
                    "duration": 0.13715716666669664
                },
                {
                    "name": "A5",
                    "midi": 81,
                    "time": 144.07736916666678,
                    "velocity": 0.5354330708661418,
                    "duration": 0.12468833333335283
                },
                {
                    "name": "D6",
                    "midi": 86,
                    "time": 144.08983800000013,
                    "velocity": 0.6456692913385826,
                    "duration": 0.11221950000000902
                },
                {
                    "name": "D4",
                    "midi": 62,
                    "time": 144.38909000000012,
                    "velocity": 0.36220472440944884,
                    "duration": 0.07481300000000601
                },
                {
                    "name": "F4",
                    "midi": 65,
                    "time": 144.38909000000012,
                    "velocity": 0.3858267716535433,
                    "duration": 0.07481300000000601
                },
                {
                    "name": "D4",
                    "midi": 62,
                    "time": 144.53871600000014,
                    "velocity": 0.36220472440944884,
                    "duration": 0.07481300000000601
                },
                {
                    "name": "F4",
                    "midi": 65,
                    "time": 144.53871600000014,
                    "velocity": 0.4251968503937008,
                    "duration": 0.07481300000000601
                },
                {
                    "name": "E4",
                    "midi": 64,
                    "time": 144.68834200000015,
                    "velocity": 0.33070866141732286,
                    "duration": 0.07481300000000601
                },
                {
                    "name": "G4",
                    "midi": 67,
                    "time": 144.68834200000015,
                    "velocity": 0.4015748031496063,
                    "duration": 0.07481300000000601
                },
                {
                    "name": "A4",
                    "midi": 69,
                    "time": 144.83796800000016,
                    "velocity": 0.4094488188976378,
                    "duration": 0.07481300000000601
                },
                {
                    "name": "F4",
                    "midi": 65,
                    "time": 144.83796800000016,
                    "velocity": 0.3464566929133858,
                    "duration": 0.07481300000000601
                },
                {
                    "name": "G4",
                    "midi": 67,
                    "time": 144.98759400000017,
                    "velocity": 0.4015748031496063,
                    "duration": 0.07481300000000601
                },
                {
                    "name": "A#4",
                    "midi": 70,
                    "time": 144.98759400000017,
                    "velocity": 0.47244094488188976,
                    "duration": 0.07481300000000601
                },
                {
                    "name": "A4",
                    "midi": 69,
                    "time": 145.13722000000018,
                    "velocity": 0.4409448818897638,
                    "duration": 0.07481300000000601
                },
                {
                    "name": "F4",
                    "midi": 65,
                    "time": 145.13722000000018,
                    "velocity": 0.3700787401574803,
                    "duration": 0.07481300000000601
                },
                {
                    "name": "D5",
                    "midi": 74,
                    "time": 145.2494395000002,
                    "velocity": 0.5748031496062992,
                    "duration": 0.14962600000004045
                },
                {
                    "name": "F5",
                    "midi": 77,
                    "time": 145.26190833333354,
                    "velocity": 0.5748031496062992,
                    "duration": 0.13715716666669664
                },
                {
                    "name": "A5",
                    "midi": 81,
                    "time": 145.27437716666688,
                    "velocity": 0.5748031496062992,
                    "duration": 0.12468833333335283
                },
                {
                    "name": "D6",
                    "midi": 86,
                    "time": 145.28684600000022,
                    "velocity": 0.6850393700787402,
                    "duration": 0.11221950000000902
                },
                {
                    "name": "D4",
                    "midi": 62,
                    "time": 145.43647200000024,
                    "velocity": 0.3779527559055118,
                    "duration": 0.07481300000000601
                },
                {
                    "name": "F4",
                    "midi": 65,
                    "time": 145.43647200000024,
                    "velocity": 0.44881889763779526,
                    "duration": 0.07481300000000601
                },
                {
                    "name": "E4",
                    "midi": 64,
                    "time": 145.58609800000025,
                    "velocity": 0.33858267716535434,
                    "duration": 0.07481300000000601
                },
                {
                    "name": "G4",
                    "midi": 67,
                    "time": 145.58609800000025,
                    "velocity": 0.41732283464566927,
                    "duration": 0.07481300000000601
                },
                {
                    "name": "F4",
                    "midi": 65,
                    "time": 145.73572400000026,
                    "velocity": 0.36220472440944884,
                    "duration": 0.07481300000000601
                },
                {
                    "name": "A4",
                    "midi": 69,
                    "time": 145.73572400000026,
                    "velocity": 0.4251968503937008,
                    "duration": 0.07481300000000601
                },
                {
                    "name": "D5",
                    "midi": 74,
                    "time": 146.14719550000027,
                    "velocity": 0.5905511811023622,
                    "duration": 0.14962600000004045
                },
                {
                    "name": "F5",
                    "midi": 77,
                    "time": 146.1596643333336,
                    "velocity": 0.5905511811023622,
                    "duration": 0.13715716666669664
                },
                {
                    "name": "A5",
                    "midi": 81,
                    "time": 146.17213316666695,
                    "velocity": 0.5905511811023622,
                    "duration": 0.12468833333335283
                },
                {
                    "name": "D6",
                    "midi": 86,
                    "time": 146.1846020000003,
                    "velocity": 0.7086614173228346,
                    "duration": 0.11221950000000902
                },
                {
                    "name": "D5",
                    "midi": 74,
                    "time": 146.5960735000003,
                    "velocity": 0.6062992125984252,
                    "duration": 0.14962600000004045
                },
                {
                    "name": "F5",
                    "midi": 77,
                    "time": 146.60854233333365,
                    "velocity": 0.6062992125984252,
                    "duration": 0.13715716666669664
                },
                {
                    "name": "A5",
                    "midi": 81,
                    "time": 146.621011166667,
                    "velocity": 0.6062992125984252,
                    "duration": 0.12468833333335283
                },
                {
                    "name": "D6",
                    "midi": 86,
                    "time": 146.63348000000033,
                    "velocity": 0.7244094488188977,
                    "duration": 0.11221950000000902
                },
                {
                    "name": "F5",
                    "midi": 77,
                    "time": 146.74569950000034,
                    "velocity": 0.5275590551181102,
                    "duration": 0.1496259999999836
                },
                {
                    "name": "B5",
                    "midi": 83,
                    "time": 146.76440275000033,
                    "velocity": 0.5275590551181102,
                    "duration": 0.1309227499999963
                },
                {
                    "name": "G6",
                    "midi": 91,
                    "time": 146.78310600000032,
                    "velocity": 0.6299212598425197,
                    "duration": 0.11221950000000902
                },
                {
                    "name": "B4",
                    "midi": 71,
                    "time": 147.0823580000003,
                    "velocity": 0.4251968503937008,
                    "duration": 0.07481300000000601
                },
                {
                    "name": "G4",
                    "midi": 67,
                    "time": 147.0823580000003,
                    "velocity": 0.3543307086614173,
                    "duration": 0.07481300000000601
                },
                {
                    "name": "B4",
                    "midi": 71,
                    "time": 147.23198400000032,
                    "velocity": 0.47244094488188976,
                    "duration": 0.07481300000000601
                },
                {
                    "name": "G4",
                    "midi": 67,
                    "time": 147.23198400000032,
                    "velocity": 0.4015748031496063,
                    "duration": 0.07481300000000601
                },
                {
                    "name": "C5",
                    "midi": 72,
                    "time": 147.38161000000034,
                    "velocity": 0.4409448818897638,
                    "duration": 0.07481300000000601
                },
                {
                    "name": "A4",
                    "midi": 69,
                    "time": 147.38161000000034,
                    "velocity": 0.36220472440944884,
                    "duration": 0.07481300000000601
                },
                {
                    "name": "D5",
                    "midi": 74,
                    "time": 147.53123600000035,
                    "velocity": 0.44881889763779526,
                    "duration": 0.07481300000000601
                },
                {
                    "name": "B4",
                    "midi": 71,
                    "time": 147.53123600000035,
                    "velocity": 0.3779527559055118,
                    "duration": 0.07481300000000601
                },
                {
                    "name": "C5",
                    "midi": 72,
                    "time": 147.68086200000036,
                    "velocity": 0.4330708661417323,
                    "duration": 0.07481300000000601
                },
                {
                    "name": "E5",
                    "midi": 76,
                    "time": 147.68086200000036,
                    "velocity": 0.5118110236220472,
                    "duration": 0.07481300000000601
                },
                {
                    "name": "D5",
                    "midi": 74,
                    "time": 147.83048800000037,
                    "velocity": 0.48031496062992124,
                    "duration": 0.07481300000000601
                },
                {
                    "name": "B4",
                    "midi": 71,
                    "time": 147.83048800000037,
                    "velocity": 0.4015748031496063,
                    "duration": 0.07481300000000601
                },
                {
                    "name": "F5",
                    "midi": 77,
                    "time": 147.94270750000038,
                    "velocity": 0.6141732283464567,
                    "duration": 0.1496259999999836
                },
                {
                    "name": "B5",
                    "midi": 83,
                    "time": 147.96141075000037,
                    "velocity": 0.6141732283464567,
                    "duration": 0.1309227499999963
                },
                {
                    "name": "G6",
                    "midi": 91,
                    "time": 147.98011400000036,
                    "velocity": 0.7322834645669292,
                    "duration": 0.11221950000000902
                },
                {
                    "name": "G4",
                    "midi": 67,
                    "time": 148.12974000000037,
                    "velocity": 0.3937007874015748,
                    "duration": 0.07481300000000601
                },
                {
                    "name": "B4",
                    "midi": 71,
                    "time": 148.12974000000037,
                    "velocity": 0.4645669291338583,
                    "duration": 0.07481300000000601
                },
                {
                    "name": "C5",
                    "midi": 72,
                    "time": 148.27936600000038,
                    "velocity": 0.41732283464566927,
                    "duration": 0.07481300000000601
                },
                {
                    "name": "A4",
                    "midi": 69,
                    "time": 148.27936600000038,
                    "velocity": 0.3543307086614173,
                    "duration": 0.07481300000000601
                },
                {
                    "name": "D5",
                    "midi": 74,
                    "time": 148.4289920000004,
                    "velocity": 0.41732283464566927,
                    "duration": 0.07481300000000601
                },
                {
                    "name": "B4",
                    "midi": 71,
                    "time": 148.4289920000004,
                    "velocity": 0.3543307086614173,
                    "duration": 0.07481300000000601
                },
                {
                    "name": "E5",
                    "midi": 76,
                    "time": 148.5786180000004,
                    "velocity": 0.4645669291338583,
                    "duration": 0.07481300000000601
                },
                {
                    "name": "C5",
                    "midi": 72,
                    "time": 148.5786180000004,
                    "velocity": 0.3937007874015748,
                    "duration": 0.07481300000000601
                },
                {
                    "name": "B4",
                    "midi": 71,
                    "time": 148.72824400000042,
                    "velocity": 0.3543307086614173,
                    "duration": 0.07481300000000601
                },
                {
                    "name": "D5",
                    "midi": 74,
                    "time": 148.72824400000042,
                    "velocity": 0.4251968503937008,
                    "duration": 0.07481300000000601
                },
                {
                    "name": "E5",
                    "midi": 76,
                    "time": 148.87787000000043,
                    "velocity": 0.41732283464566927,
                    "duration": 0.07481300000000601
                },
                {
                    "name": "C5",
                    "midi": 72,
                    "time": 148.87787000000043,
                    "velocity": 0.3543307086614173,
                    "duration": 0.07481300000000601
                },
                {
                    "name": "F5",
                    "midi": 77,
                    "time": 149.02749600000044,
                    "velocity": 0.4645669291338583,
                    "duration": 0.07481300000000601
                },
                {
                    "name": "D5",
                    "midi": 74,
                    "time": 149.02749600000044,
                    "velocity": 0.3937007874015748,
                    "duration": 0.07481300000000601
                },
                {
                    "name": "E5",
                    "midi": 76,
                    "time": 149.17712200000045,
                    "velocity": 0.3543307086614173,
                    "duration": 0.07481300000000601
                },
                {
                    "name": "G5",
                    "midi": 79,
                    "time": 149.17712200000045,
                    "velocity": 0.4251968503937008,
                    "duration": 0.07481300000000601
                },
                {
                    "name": "F5",
                    "midi": 77,
                    "time": 149.32674800000046,
                    "velocity": 0.3543307086614173,
                    "duration": 0.07481300000000601
                },
                {
                    "name": "A5",
                    "midi": 81,
                    "time": 149.32674800000046,
                    "velocity": 0.41732283464566927,
                    "duration": 0.07481300000000601
                },
                {
                    "name": "G5",
                    "midi": 79,
                    "time": 149.43896750000047,
                    "velocity": 0.6141732283464567,
                    "duration": 0.1496259999999836
                },
                {
                    "name": "B5",
                    "midi": 83,
                    "time": 149.45767075000046,
                    "velocity": 0.6141732283464567,
                    "duration": 0.1309227499999963
                },
                {
                    "name": "G6",
                    "midi": 91,
                    "time": 149.47637400000045,
                    "velocity": 0.7322834645669292,
                    "duration": 0.11221950000000902
                },
                {
                    "name": "D5",
                    "midi": 74,
                    "time": 149.77562600000044,
                    "velocity": 0.4251968503937008,
                    "duration": 0.07481300000000601
                },
                {
                    "name": "B4",
                    "midi": 71,
                    "time": 149.77562600000044,
                    "velocity": 0.3543307086614173,
                    "duration": 0.07481300000000601
                },
                {
                    "name": "D5",
                    "midi": 74,
                    "time": 149.92525200000046,
                    "velocity": 0.47244094488188976,
                    "duration": 0.07481300000000601
                },
                {
                    "name": "B4",
                    "midi": 71,
                    "time": 149.92525200000046,
                    "velocity": 0.4015748031496063,
                    "duration": 0.07481300000000601
                },
                {
                    "name": "E5",
                    "midi": 76,
                    "time": 150.07487800000047,
                    "velocity": 0.4409448818897638,
                    "duration": 0.07481300000000601
                },
                {
                    "name": "C5",
                    "midi": 72,
                    "time": 150.07487800000047,
                    "velocity": 0.36220472440944884,
                    "duration": 0.07481300000000601
                },
                {
                    "name": "F5",
                    "midi": 77,
                    "time": 150.22450400000048,
                    "velocity": 0.44881889763779526,
                    "duration": 0.07481300000000601
                },
                {
                    "name": "D5",
                    "midi": 74,
                    "time": 150.22450400000048,
                    "velocity": 0.3779527559055118,
                    "duration": 0.07481300000000601
                },
                {
                    "name": "E5",
                    "midi": 76,
                    "time": 150.3741300000005,
                    "velocity": 0.4330708661417323,
                    "duration": 0.07481300000000601
                },
                {
                    "name": "G5",
                    "midi": 79,
                    "time": 150.3741300000005,
                    "velocity": 0.5118110236220472,
                    "duration": 0.07481300000000601
                },
                {
                    "name": "F5",
                    "midi": 77,
                    "time": 150.5237560000005,
                    "velocity": 0.48031496062992124,
                    "duration": 0.07481300000000601
                },
                {
                    "name": "D5",
                    "midi": 74,
                    "time": 150.5237560000005,
                    "velocity": 0.4015748031496063,
                    "duration": 0.07481300000000601
                },
                {
                    "name": "G5",
                    "midi": 79,
                    "time": 150.6359755000005,
                    "velocity": 0.6141732283464567,
                    "duration": 0.1496259999999836
                },
                {
                    "name": "B5",
                    "midi": 83,
                    "time": 150.6546787500005,
                    "velocity": 0.6141732283464567,
                    "duration": 0.1309227499999963
                },
                {
                    "name": "G6",
                    "midi": 91,
                    "time": 150.6733820000005,
                    "velocity": 0.7322834645669292,
                    "duration": 0.11221950000000902
                },
                {
                    "name": "D5",
                    "midi": 74,
                    "time": 150.8230080000005,
                    "velocity": 0.4251968503937008,
                    "duration": 0.07481300000000601
                },
                {
                    "name": "B5",
                    "midi": 83,
                    "time": 150.8230080000005,
                    "velocity": 0.4251968503937008,
                    "duration": 0.07481300000000601
                },
                {
                    "name": "D6",
                    "midi": 86,
                    "time": 150.8230080000005,
                    "velocity": 0.5118110236220472,
                    "duration": 0.07481300000000601
                },
                {
                    "name": "C6",
                    "midi": 84,
                    "time": 150.9726340000005,
                    "velocity": 0.3937007874015748,
                    "duration": 0.07481300000000601
                },
                {
                    "name": "E5",
                    "midi": 76,
                    "time": 150.9726340000005,
                    "velocity": 0.3937007874015748,
                    "duration": 0.07481300000000601
                },
                {
                    "name": "E6",
                    "midi": 88,
                    "time": 150.9726340000005,
                    "velocity": 0.47244094488188976,
                    "duration": 0.07481300000000601
                },
                {
                    "name": "F6",
                    "midi": 89,
                    "time": 151.12226000000052,
                    "velocity": 0.4881889763779528,
                    "duration": 0.07481300000000601
                },
                {
                    "name": "F5",
                    "midi": 77,
                    "time": 151.12226000000052,
                    "velocity": 0.4015748031496063,
                    "duration": 0.07481300000000601
                },
                {
                    "name": "D6",
                    "midi": 86,
                    "time": 151.12226000000052,
                    "velocity": 0.4015748031496063,
                    "duration": 0.07481300000000601
                },
                {
                    "name": "G6",
                    "midi": 91,
                    "time": 151.27188600000053,
                    "velocity": 0.5590551181102362,
                    "duration": 0.07481300000000601
                },
                {
                    "name": "E6",
                    "midi": 88,
                    "time": 151.27188600000053,
                    "velocity": 0.4645669291338583,
                    "duration": 0.07481300000000601
                },
                {
                    "name": "G5",
                    "midi": 79,
                    "time": 151.27188600000053,
                    "velocity": 0.4645669291338583,
                    "duration": 0.07481300000000601
                },
                {
                    "name": "A6",
                    "midi": 93,
                    "time": 151.42151200000055,
                    "velocity": 0.5196850393700787,
                    "duration": 0.07481300000000601
                },
                {
                    "name": "A5",
                    "midi": 81,
                    "time": 151.42151200000055,
                    "velocity": 0.4409448818897638,
                    "duration": 0.07481300000000601
                },
                {
                    "name": "F6",
                    "midi": 89,
                    "time": 151.42151200000055,
                    "velocity": 0.4409448818897638,
                    "duration": 0.07481300000000601
                },
                {
                    "name": "A#5",
                    "midi": 82,
                    "time": 151.57113800000056,
                    "velocity": 0.4409448818897638,
                    "duration": 0.07481300000000601
                },
                {
                    "name": "G6",
                    "midi": 91,
                    "time": 151.57113800000056,
                    "velocity": 0.4409448818897638,
                    "duration": 0.07481300000000601
                },
                {
                    "name": "A#6",
                    "midi": 94,
                    "time": 151.57113800000056,
                    "velocity": 0.5275590551181102,
                    "duration": 0.07481300000000601
                },
                {
                    "name": "A#6",
                    "midi": 94,
                    "time": 151.72076400000057,
                    "velocity": 0.6062992125984252,
                    "duration": 0.07481300000000601
                },
                {
                    "name": "A#5",
                    "midi": 82,
                    "time": 151.72076400000057,
                    "velocity": 0.5039370078740157,
                    "duration": 0.07481300000000601
                },
                {
                    "name": "G6",
                    "midi": 91,
                    "time": 151.72076400000057,
                    "velocity": 0.5039370078740157,
                    "duration": 0.07481300000000601
                },
                {
                    "name": "A#6",
                    "midi": 94,
                    "time": 151.87039000000058,
                    "velocity": 0.5669291338582677,
                    "duration": 0.07481300000000601
                },
                {
                    "name": "A#5",
                    "midi": 82,
                    "time": 151.87039000000058,
                    "velocity": 0.47244094488188976,
                    "duration": 0.07481300000000601
                },
                {
                    "name": "G6",
                    "midi": 91,
                    "time": 151.87039000000058,
                    "velocity": 0.47244094488188976,
                    "duration": 0.07481300000000601
                },
                {
                    "name": "A#5",
                    "midi": 82,
                    "time": 152.0200160000006,
                    "velocity": 0.48031496062992124,
                    "duration": 0.07481300000000601
                },
                {
                    "name": "A#6",
                    "midi": 94,
                    "time": 152.0200160000006,
                    "velocity": 0.5669291338582677,
                    "duration": 0.07481300000000601
                },
                {
                    "name": "G6",
                    "midi": 91,
                    "time": 152.0200160000006,
                    "velocity": 0.48031496062992124,
                    "duration": 0.07481300000000601
                },
                {
                    "name": "B6",
                    "midi": 95,
                    "time": 152.1696420000006,
                    "velocity": 0.7086614173228346,
                    "duration": 0.5985039999999913
                },
                {
                    "name": "G6",
                    "midi": 91,
                    "time": 152.1696420000006,
                    "velocity": 0.5984251968503937,
                    "duration": 0.5985039999999913
                },
                {
                    "name": "B5",
                    "midi": 83,
                    "time": 152.1696420000006,
                    "velocity": 0.5984251968503937,
                    "duration": 0.5985039999999913
                },
                {
                    "name": "A5",
                    "midi": 81,
                    "time": 152.7681460000006,
                    "velocity": 0.5354330708661418,
                    "duration": 0.07481300000000601
                },
                {
                    "name": "A6",
                    "midi": 93,
                    "time": 152.7681460000006,
                    "velocity": 0.6377952755905512,
                    "duration": 0.07481300000000601
                },
                {
                    "name": "F#6",
                    "midi": 90,
                    "time": 152.7681460000006,
                    "velocity": 0.5354330708661418,
                    "duration": 0.07481300000000601
                },
                {
                    "name": "E6",
                    "midi": 88,
                    "time": 152.9177720000006,
                    "velocity": 0.5354330708661418,
                    "duration": 0.07481300000000601
                },
                {
                    "name": "G6",
                    "midi": 91,
                    "time": 152.9177720000006,
                    "velocity": 0.6377952755905512,
                    "duration": 0.07481300000000601
                },
                {
                    "name": "G5",
                    "midi": 79,
                    "time": 152.9177720000006,
                    "velocity": 0.5354330708661418,
                    "duration": 0.07481300000000601
                },
                {
                    "name": "F#6",
                    "midi": 90,
                    "time": 153.06739800000062,
                    "velocity": 0.5984251968503937,
                    "duration": 0.5985039999999913
                },
                {
                    "name": "A6",
                    "midi": 93,
                    "time": 153.06739800000062,
                    "velocity": 0.7086614173228346,
                    "duration": 0.5985039999999913
                },
                {
                    "name": "A5",
                    "midi": 81,
                    "time": 153.06739800000062,
                    "velocity": 0.5984251968503937,
                    "duration": 0.5985039999999913
                },
                {
                    "name": "G5",
                    "midi": 79,
                    "time": 153.6659020000006,
                    "velocity": 0.5354330708661418,
                    "duration": 0.07481300000000601
                },
                {
                    "name": "E6",
                    "midi": 88,
                    "time": 153.6659020000006,
                    "velocity": 0.5354330708661418,
                    "duration": 0.07481300000000601
                },
                {
                    "name": "G6",
                    "midi": 91,
                    "time": 153.6659020000006,
                    "velocity": 0.6377952755905512,
                    "duration": 0.07481300000000601
                },
                {
                    "name": "F#5",
                    "midi": 78,
                    "time": 153.81552800000063,
                    "velocity": 0.5354330708661418,
                    "duration": 0.07481300000000601
                },
                {
                    "name": "D#6",
                    "midi": 87,
                    "time": 153.81552800000063,
                    "velocity": 0.5354330708661418,
                    "duration": 0.07481300000000601
                },
                {
                    "name": "F#6",
                    "midi": 90,
                    "time": 153.81552800000063,
                    "velocity": 0.6377952755905512,
                    "duration": 0.07481300000000601
                },
                {
                    "name": "G5",
                    "midi": 79,
                    "time": 153.96515400000064,
                    "velocity": 0.5984251968503937,
                    "duration": 0.07481300000000601
                },
                {
                    "name": "G6",
                    "midi": 91,
                    "time": 153.96515400000064,
                    "velocity": 0.7086614173228346,
                    "duration": 0.07481300000000601
                },
                {
                    "name": "E6",
                    "midi": 88,
                    "time": 153.96515400000064,
                    "velocity": 0.5984251968503937,
                    "duration": 0.07481300000000601
                },
                {
                    "name": "D#6",
                    "midi": 87,
                    "time": 154.11478000000065,
                    "velocity": 0.5354330708661418,
                    "duration": 0.07481300000000601
                },
                {
                    "name": "F#6",
                    "midi": 90,
                    "time": 154.11478000000065,
                    "velocity": 0.6377952755905512,
                    "duration": 0.07481300000000601
                },
                {
                    "name": "F#5",
                    "midi": 78,
                    "time": 154.11478000000065,
                    "velocity": 0.5354330708661418,
                    "duration": 0.07481300000000601
                },
                {
                    "name": "C#6",
                    "midi": 85,
                    "time": 154.26440600000066,
                    "velocity": 0.5354330708661418,
                    "duration": 0.07481300000000601
                },
                {
                    "name": "E5",
                    "midi": 76,
                    "time": 154.26440600000066,
                    "velocity": 0.5354330708661418,
                    "duration": 0.07481300000000601
                },
                {
                    "name": "E6",
                    "midi": 88,
                    "time": 154.26440600000066,
                    "velocity": 0.6377952755905512,
                    "duration": 0.07481300000000601
                },
                {
                    "name": "F#6",
                    "midi": 90,
                    "time": 154.41403200000067,
                    "velocity": 0.7086614173228346,
                    "duration": 0.07481300000000601
                },
                {
                    "name": "D#6",
                    "midi": 87,
                    "time": 154.41403200000067,
                    "velocity": 0.5984251968503937,
                    "duration": 0.07481300000000601
                },
                {
                    "name": "F#5",
                    "midi": 78,
                    "time": 154.41403200000067,
                    "velocity": 0.5984251968503937,
                    "duration": 0.07481300000000601
                },
                {
                    "name": "B5",
                    "midi": 83,
                    "time": 154.71328400000067,
                    "velocity": 0.6377952755905512,
                    "duration": 0.07481300000000601
                },
                {
                    "name": "B4",
                    "midi": 71,
                    "time": 154.71328400000067,
                    "velocity": 0.5354330708661418,
                    "duration": 0.07481300000000601
                },
                {
                    "name": "B6",
                    "midi": 95,
                    "time": 154.86291000000068,
                    "velocity": 0.7086614173228346,
                    "duration": 0.5985039999999913
                },
                {
                    "name": "B5",
                    "midi": 83,
                    "time": 154.86291000000068,
                    "velocity": 0.5984251968503937,
                    "duration": 0.5985039999999913
                },
                {
                    "name": "G#6",
                    "midi": 92,
                    "time": 154.86291000000068,
                    "velocity": 0.5984251968503937,
                    "duration": 0.5985039999999913
                },
                {
                    "name": "F#6",
                    "midi": 90,
                    "time": 155.46141400000067,
                    "velocity": 0.5354330708661418,
                    "duration": 0.07481300000000601
                },
                {
                    "name": "A6",
                    "midi": 93,
                    "time": 155.46141400000067,
                    "velocity": 0.6377952755905512,
                    "duration": 0.07481300000000601
                },
                {
                    "name": "A5",
                    "midi": 81,
                    "time": 155.46141400000067,
                    "velocity": 0.5354330708661418,
                    "duration": 0.07481300000000601
                },
                {
                    "name": "E6",
                    "midi": 88,
                    "time": 155.61104000000068,
                    "velocity": 0.5354330708661418,
                    "duration": 0.07481300000000601
                },
                {
                    "name": "G#5",
                    "midi": 80,
                    "time": 155.61104000000068,
                    "velocity": 0.5354330708661418,
                    "duration": 0.07481300000000601
                },
                {
                    "name": "G#6",
                    "midi": 92,
                    "time": 155.61104000000068,
                    "velocity": 0.6377952755905512,
                    "duration": 0.07481300000000601
                },
                {
                    "name": "F#6",
                    "midi": 90,
                    "time": 155.7606660000007,
                    "velocity": 0.5984251968503937,
                    "duration": 0.5985039999999913
                },
                {
                    "name": "A5",
                    "midi": 81,
                    "time": 155.7606660000007,
                    "velocity": 0.5984251968503937,
                    "duration": 0.5985039999999913
                },
                {
                    "name": "A6",
                    "midi": 93,
                    "time": 155.7606660000007,
                    "velocity": 0.7086614173228346,
                    "duration": 0.5985039999999913
                },
                {
                    "name": "G#5",
                    "midi": 80,
                    "time": 156.3591700000007,
                    "velocity": 0.5354330708661418,
                    "duration": 0.07481300000000601
                },
                {
                    "name": "E6",
                    "midi": 88,
                    "time": 156.3591700000007,
                    "velocity": 0.5354330708661418,
                    "duration": 0.07481300000000601
                },
                {
                    "name": "G#6",
                    "midi": 92,
                    "time": 156.3591700000007,
                    "velocity": 0.6377952755905512,
                    "duration": 0.07481300000000601
                },
                {
                    "name": "F#6",
                    "midi": 90,
                    "time": 156.5087960000007,
                    "velocity": 0.6377952755905512,
                    "duration": 0.07481300000000601
                },
                {
                    "name": "D#6",
                    "midi": 87,
                    "time": 156.5087960000007,
                    "velocity": 0.5354330708661418,
                    "duration": 0.07481300000000601
                },
                {
                    "name": "F#5",
                    "midi": 78,
                    "time": 156.5087960000007,
                    "velocity": 0.5354330708661418,
                    "duration": 0.07481300000000601
                },
                {
                    "name": "G#6",
                    "midi": 92,
                    "time": 156.6584220000007,
                    "velocity": 0.7086614173228346,
                    "duration": 0.07481300000000601
                },
                {
                    "name": "G#5",
                    "midi": 80,
                    "time": 156.6584220000007,
                    "velocity": 0.5984251968503937,
                    "duration": 0.07481300000000601
                },
                {
                    "name": "E6",
                    "midi": 88,
                    "time": 156.6584220000007,
                    "velocity": 0.5984251968503937,
                    "duration": 0.07481300000000601
                },
                {
                    "name": "F#6",
                    "midi": 90,
                    "time": 156.80804800000072,
                    "velocity": 0.6377952755905512,
                    "duration": 0.07481300000000601
                },
                {
                    "name": "D#6",
                    "midi": 87,
                    "time": 156.80804800000072,
                    "velocity": 0.5354330708661418,
                    "duration": 0.07481300000000601
                },
                {
                    "name": "F#5",
                    "midi": 78,
                    "time": 156.80804800000072,
                    "velocity": 0.5354330708661418,
                    "duration": 0.07481300000000601
                },
                {
                    "name": "C#6",
                    "midi": 85,
                    "time": 156.95767400000074,
                    "velocity": 0.5354330708661418,
                    "duration": 0.07481300000000601
                },
                {
                    "name": "E5",
                    "midi": 76,
                    "time": 156.95767400000074,
                    "velocity": 0.5354330708661418,
                    "duration": 0.07481300000000601
                },
                {
                    "name": "E6",
                    "midi": 88,
                    "time": 156.95767400000074,
                    "velocity": 0.6377952755905512,
                    "duration": 0.07481300000000601
                },
                {
                    "name": "D#6",
                    "midi": 87,
                    "time": 157.10730000000075,
                    "velocity": 0.5984251968503937,
                    "duration": 0.07481300000000601
                },
                {
                    "name": "F#6",
                    "midi": 90,
                    "time": 157.10730000000075,
                    "velocity": 0.7086614173228346,
                    "duration": 0.07481300000000601
                },
                {
                    "name": "F#5",
                    "midi": 78,
                    "time": 157.10730000000075,
                    "velocity": 0.5984251968503937,
                    "duration": 0.07481300000000601
                },
                {
                    "name": "B5",
                    "midi": 83,
                    "time": 157.40655200000074,
                    "velocity": 0.6377952755905512,
                    "duration": 0.07481300000000601
                },
                {
                    "name": "B4",
                    "midi": 71,
                    "time": 157.40655200000074,
                    "velocity": 0.5354330708661418,
                    "duration": 0.07481300000000601
                },
                {
                    "name": "B6",
                    "midi": 95,
                    "time": 157.55617800000076,
                    "velocity": 0.7637795275590551,
                    "duration": 0.07481300000000601
                },
                {
                    "name": "G#6",
                    "midi": 92,
                    "time": 157.55617800000076,
                    "velocity": 0.7637795275590551,
                    "duration": 0.07481300000000601
                },
                {
                    "name": "B5",
                    "midi": 83,
                    "time": 157.55617800000076,
                    "velocity": 0.6456692913385826,
                    "duration": 0.07481300000000601
                },
                {
                    "name": "G#5",
                    "midi": 80,
                    "time": 157.85543000000075,
                    "velocity": 0.6062992125984252,
                    "duration": 0.29925199999999563
                },
                {
                    "name": "G#6",
                    "midi": 92,
                    "time": 157.85543000000075,
                    "velocity": 0.7165354330708661,
                    "duration": 0.29925199999999563
                },
                {
                    "name": "E6",
                    "midi": 88,
                    "time": 157.85543000000075,
                    "velocity": 0.6062992125984252,
                    "duration": 0.29925199999999563
                },
                {
                    "name": "A5",
                    "midi": 81,
                    "time": 158.15468200000075,
                    "velocity": 0.6062992125984252,
                    "duration": 0.44887800000000766
                },
                {
                    "name": "A6",
                    "midi": 93,
                    "time": 158.15468200000075,
                    "velocity": 0.7165354330708661,
                    "duration": 0.44887800000000766
                },
                {
                    "name": "E6",
                    "midi": 88,
                    "time": 158.15468200000075,
                    "velocity": 0.6062992125984252,
                    "duration": 0.44887800000000766
                },
                {
                    "name": "F#6",
                    "midi": 90,
                    "time": 158.60356000000075,
                    "velocity": 0.7007874015748031,
                    "duration": 0.22443899999998962
                },
                {
                    "name": "E6",
                    "midi": 88,
                    "time": 158.60356000000075,
                    "velocity": 0.5905511811023622,
                    "duration": 0.22443899999998962
                },
                {
                    "name": "F#5",
                    "midi": 78,
                    "time": 158.60356000000075,
                    "velocity": 0.5905511811023622,
                    "duration": 0.22443899999998962
                },
                {
                    "name": "G#6",
                    "midi": 92,
                    "time": 158.82799900000074,
                    "velocity": 0.6220472440944882,
                    "duration": 0.06857858333333411
                },
                {
                    "name": "E6",
                    "midi": 88,
                    "time": 158.82799900000074,
                    "velocity": 0.5275590551181102,
                    "duration": 0.06857858333333411
                },
                {
                    "name": "G#5",
                    "midi": 80,
                    "time": 158.82799900000074,
                    "velocity": 0.5275590551181102,
                    "duration": 0.06857858333333411
                },
                {
                    "name": "G#5",
                    "midi": 80,
                    "time": 158.90281200000075,
                    "velocity": 0.5826771653543307,
                    "duration": 0.07481300000000601
                },
                {
                    "name": "G#6",
                    "midi": 92,
                    "time": 158.90281200000075,
                    "velocity": 0.6929133858267716,
                    "duration": 0.07481300000000601
                },
                {
                    "name": "E6",
                    "midi": 88,
                    "time": 158.90281200000075,
                    "velocity": 0.5826771653543307,
                    "duration": 0.07481300000000601
                },
                {
                    "name": "G#4",
                    "midi": 68,
                    "time": 159.20206400000075,
                    "velocity": 0.5433070866141733,
                    "duration": 0.29925199999999563
                },
                {
                    "name": "G#5",
                    "midi": 80,
                    "time": 159.20206400000075,
                    "velocity": 0.6377952755905512,
                    "duration": 0.29925199999999563
                },
                {
                    "name": "E5",
                    "midi": 76,
                    "time": 159.20206400000075,
                    "velocity": 0.5433070866141733,
                    "duration": 0.29925199999999563
                },
                {
                    "name": "E5",
                    "midi": 76,
                    "time": 159.50131600000074,
                    "velocity": 0.5433070866141733,
                    "duration": 0.44887800000000766
                },
                {
                    "name": "A4",
                    "midi": 69,
                    "time": 159.50131600000074,
                    "velocity": 0.5433070866141733,
                    "duration": 0.44887800000000766
                },
                {
                    "name": "A5",
                    "midi": 81,
                    "time": 159.50131600000074,
                    "velocity": 0.6377952755905512,
                    "duration": 0.44887800000000766
                },
                {
                    "name": "F#5",
                    "midi": 78,
                    "time": 159.95019400000075,
                    "velocity": 0.6299212598425197,
                    "duration": 0.21820458333334614
                },
                {
                    "name": "E5",
                    "midi": 76,
                    "time": 159.95019400000075,
                    "velocity": 0.5275590551181102,
                    "duration": 0.21820458333334614
                },
                {
                    "name": "F#4",
                    "midi": 66,
                    "time": 159.95019400000075,
                    "velocity": 0.5275590551181102,
                    "duration": 0.21820458333334614
                },
                {
                    "name": "G#4",
                    "midi": 68,
                    "time": 160.17463300000077,
                    "velocity": 0.47244094488188976,
                    "duration": 0.06857858333333411
                },
                {
                    "name": "G#5",
                    "midi": 80,
                    "time": 160.17463300000077,
                    "velocity": 0.5590551181102362,
                    "duration": 0.06857858333333411
                },
                {
                    "name": "E5",
                    "midi": 76,
                    "time": 160.17463300000077,
                    "velocity": 0.47244094488188976,
                    "duration": 0.06857858333333411
                },
                {
                    "name": "E5",
                    "midi": 76,
                    "time": 160.24944600000077,
                    "velocity": 0.5196850393700787,
                    "duration": 0.07481300000000601
                },
                {
                    "name": "G#5",
                    "midi": 80,
                    "time": 160.24944600000077,
                    "velocity": 0.6220472440944882,
                    "duration": 0.07481300000000601
                },
                {
                    "name": "G#4",
                    "midi": 68,
                    "time": 160.24944600000077,
                    "velocity": 0.5196850393700787,
                    "duration": 0.07481300000000601
                },
                {
                    "name": "E5",
                    "midi": 76,
                    "time": 160.51129150000077,
                    "velocity": 0.6062992125984252,
                    "duration": 0.1496259999999836
                },
                {
                    "name": "G#5",
                    "midi": 80,
                    "time": 160.52999475000075,
                    "velocity": 0.6062992125984252,
                    "duration": 0.1309227499999963
                },
                {
                    "name": "E6",
                    "midi": 88,
                    "time": 160.54869800000074,
                    "velocity": 0.7244094488188977,
                    "duration": 0.11221950000000902
                },
                {
                    "name": "E3",
                    "midi": 52,
                    "time": 160.69832400000075,
                    "velocity": 0.6062992125984252,
                    "duration": 0.07481300000000601
                },
                {
                    "name": "E4",
                    "midi": 64,
                    "time": 160.69832400000075,
                    "velocity": 0.7086614173228346,
                    "duration": 0.07481300000000601
                },
                {
                    "name": "E5",
                    "midi": 76,
                    "time": 161.40904750000075,
                    "velocity": 0.6062992125984252,
                    "duration": 0.1496259999999836
                },
                {
                    "name": "G#5",
                    "midi": 80,
                    "time": 161.42775075000074,
                    "velocity": 0.6062992125984252,
                    "duration": 0.1309227499999963
                },
                {
                    "name": "E6",
                    "midi": 88,
                    "time": 161.44645400000073,
                    "velocity": 0.7244094488188977,
                    "duration": 0.11221950000000902
                },
                {
                    "name": "E3",
                    "midi": 52,
                    "time": 161.59608000000074,
                    "velocity": 0.6062992125984252,
                    "duration": 0.07481300000000601
                },
                {
                    "name": "E4",
                    "midi": 64,
                    "time": 161.59608000000074,
                    "velocity": 0.7086614173228346,
                    "duration": 0.07481300000000601
                },
                {
                    "name": "E4",
                    "midi": 64,
                    "time": 162.79308800000075,
                    "velocity": 0.5039370078740157,
                    "duration": 0.14962600000001203
                },
                {
                    "name": "E4",
                    "midi": 64,
                    "time": 162.94271400000076,
                    "velocity": 0.5511811023622047,
                    "duration": 0.44887800000000766
                },
                {
                    "name": "C4",
                    "midi": 60,
                    "time": 162.94271400000076,
                    "velocity": 0.4645669291338583,
                    "duration": 0.44887800000000766
                },
                {
                    "name": "E4",
                    "midi": 64,
                    "time": 163.39159200000077,
                    "velocity": 0.4330708661417323,
                    "duration": 0.29925199999999563
                },
                {
                    "name": "A4",
                    "midi": 69,
                    "time": 163.39159200000077,
                    "velocity": 0.5118110236220472,
                    "duration": 0.29925199999999563
                },
                {
                    "name": "E4",
                    "midi": 64,
                    "time": 163.69084400000077,
                    "velocity": 0.4566929133858268,
                    "duration": 0.14962600000001203
                },
                {
                    "name": "B4",
                    "midi": 71,
                    "time": 163.69084400000077,
                    "velocity": 0.5433070866141733,
                    "duration": 0.14962600000001203
                },
                {
                    "name": "C5",
                    "midi": 72,
                    "time": 163.84047000000078,
                    "velocity": 0.49606299212598426,
                    "duration": 0.44887800000000766
                },
                {
                    "name": "E5",
                    "midi": 76,
                    "time": 163.84047000000078,
                    "velocity": 0.5905511811023622,
                    "duration": 0.44887800000000766
                },
                {
                    "name": "A4",
                    "midi": 69,
                    "time": 164.28934800000079,
                    "velocity": 0.4566929133858268,
                    "duration": 0.29925199999999563
                },
                {
                    "name": "C5",
                    "midi": 72,
                    "time": 164.28934800000079,
                    "velocity": 0.5433070866141733,
                    "duration": 0.29925199999999563
                },
                {
                    "name": "E4",
                    "midi": 64,
                    "time": 164.58860000000078,
                    "velocity": 0.5039370078740157,
                    "duration": 0.14962600000001203
                },
                {
                    "name": "E4",
                    "midi": 64,
                    "time": 164.7382260000008,
                    "velocity": 0.5511811023622047,
                    "duration": 0.44887800000000766
                },
                {
                    "name": "C4",
                    "midi": 60,
                    "time": 164.7382260000008,
                    "velocity": 0.4645669291338583,
                    "duration": 0.44887800000000766
                },
                {
                    "name": "E4",
                    "midi": 64,
                    "time": 165.1871040000008,
                    "velocity": 0.4330708661417323,
                    "duration": 0.29925199999999563
                },
                {
                    "name": "A4",
                    "midi": 69,
                    "time": 165.1871040000008,
                    "velocity": 0.5118110236220472,
                    "duration": 0.29925199999999563
                },
                {
                    "name": "E4",
                    "midi": 64,
                    "time": 165.4863560000008,
                    "velocity": 0.4566929133858268,
                    "duration": 0.14962600000001203
                },
                {
                    "name": "B4",
                    "midi": 71,
                    "time": 165.4863560000008,
                    "velocity": 0.5433070866141733,
                    "duration": 0.14962600000001203
                },
                {
                    "name": "C5",
                    "midi": 72,
                    "time": 165.6359820000008,
                    "velocity": 0.49606299212598426,
                    "duration": 0.7418955833333314
                },
                {
                    "name": "E5",
                    "midi": 76,
                    "time": 165.6359820000008,
                    "velocity": 0.5905511811023622,
                    "duration": 0.7418955833333314
                },
                {
                    "name": "C5",
                    "midi": 72,
                    "time": 166.3841120000008,
                    "velocity": 0.4566929133858268,
                    "duration": 0.14962600000001203
                },
                {
                    "name": "E5",
                    "midi": 76,
                    "time": 166.3841120000008,
                    "velocity": 0.5433070866141733,
                    "duration": 0.14962600000001203
                },
                {
                    "name": "G4",
                    "midi": 67,
                    "time": 166.53373800000082,
                    "velocity": 0.49606299212598426,
                    "duration": 0.5985039999999913
                },
                {
                    "name": "G5",
                    "midi": 79,
                    "time": 166.53373800000082,
                    "velocity": 0.5905511811023622,
                    "duration": 0.5985039999999913
                },
                {
                    "name": "E5",
                    "midi": 76,
                    "time": 166.53373800000082,
                    "velocity": 0.49606299212598426,
                    "duration": 0.5985039999999913
                },
                {
                    "name": "D5",
                    "midi": 74,
                    "time": 167.13224200000082,
                    "velocity": 0.4645669291338583,
                    "duration": 0.11221950000000902
                },
                {
                    "name": "F5",
                    "midi": 77,
                    "time": 167.13224200000082,
                    "velocity": 0.5590551181102362,
                    "duration": 0.11221950000000902
                },
                {
                    "name": "C5",
                    "midi": 72,
                    "time": 167.28186800000083,
                    "velocity": 0.4251968503937008,
                    "duration": 0.11221950000000902
                },
                {
                    "name": "E5",
                    "midi": 76,
                    "time": 167.28186800000083,
                    "velocity": 0.5039370078740157,
                    "duration": 0.11221950000000902
                },
                {
                    "name": "B4",
                    "midi": 71,
                    "time": 167.43149400000084,
                    "velocity": 0.49606299212598426,
                    "duration": 0.44887800000000766
                },
                {
                    "name": "D5",
                    "midi": 74,
                    "time": 167.43149400000084,
                    "velocity": 0.5905511811023622,
                    "duration": 0.44887800000000766
                },
                {
                    "name": "G4",
                    "midi": 67,
                    "time": 167.88037200000085,
                    "velocity": 0.5354330708661418,
                    "duration": 0.29301758333332373
                },
                {
                    "name": "G4",
                    "midi": 67,
                    "time": 168.17962400000084,
                    "velocity": 0.5433070866141733,
                    "duration": 0.14962600000001203
                },
                {
                    "name": "E4",
                    "midi": 64,
                    "time": 168.32925000000085,
                    "velocity": 0.49606299212598426,
                    "duration": 0.5985039999999913
                },
                {
                    "name": "E5",
                    "midi": 76,
                    "time": 168.32925000000085,
                    "velocity": 0.5905511811023622,
                    "duration": 0.5985039999999913
                },
                {
                    "name": "C5",
                    "midi": 72,
                    "time": 168.32925000000085,
                    "velocity": 0.49606299212598426,
                    "duration": 0.5985039999999913
                },
                {
                    "name": "B4",
                    "midi": 71,
                    "time": 168.92775400000085,
                    "velocity": 0.4645669291338583,
                    "duration": 0.11221950000000902
                },
                {
                    "name": "D5",
                    "midi": 74,
                    "time": 168.92775400000085,
                    "velocity": 0.5590551181102362,
                    "duration": 0.11221950000000902
                },
                {
                    "name": "A4",
                    "midi": 69,
                    "time": 169.07738000000086,
                    "velocity": 0.4251968503937008,
                    "duration": 0.11221950000000902
                },
                {
                    "name": "C5",
                    "midi": 72,
                    "time": 169.07738000000086,
                    "velocity": 0.5039370078740157,
                    "duration": 0.11221950000000902
                },
                {
                    "name": "G#4",
                    "midi": 68,
                    "time": 169.22700600000087,
                    "velocity": 0.49606299212598426,
                    "duration": 0.7418955833333314
                },
                {
                    "name": "B4",
                    "midi": 71,
                    "time": 169.22700600000087,
                    "velocity": 0.5905511811023622,
                    "duration": 0.7418955833333314
                },
                {
                    "name": "E4",
                    "midi": 64,
                    "time": 169.97513600000087,
                    "velocity": 0.5039370078740157,
                    "duration": 0.14962600000001203
                },
                {
                    "name": "C#4",
                    "midi": 61,
                    "time": 170.12476200000089,
                    "velocity": 0.4645669291338583,
                    "duration": 0.44887800000000766
                },
                {
                    "name": "E4",
                    "midi": 64,
                    "time": 170.12476200000089,
                    "velocity": 0.5511811023622047,
                    "duration": 0.44887800000000766
                },
                {
                    "name": "A4",
                    "midi": 69,
                    "time": 170.5736400000009,
                    "velocity": 0.5118110236220472,
                    "duration": 0.29925199999999563
                },
                {
                    "name": "E4",
                    "midi": 64,
                    "time": 170.5736400000009,
                    "velocity": 0.4330708661417323,
                    "duration": 0.29925199999999563
                },
                {
                    "name": "E4",
                    "midi": 64,
                    "time": 170.8728920000009,
                    "velocity": 0.4566929133858268,
                    "duration": 0.14962600000001203
                },
                {
                    "name": "B4",
                    "midi": 71,
                    "time": 170.8728920000009,
                    "velocity": 0.5433070866141733,
                    "duration": 0.14962600000001203
                },
                {
                    "name": "C#5",
                    "midi": 73,
                    "time": 171.0225180000009,
                    "velocity": 0.49606299212598426,
                    "duration": 0.44887800000000766
                },
                {
                    "name": "E5",
                    "midi": 76,
                    "time": 171.0225180000009,
                    "velocity": 0.5905511811023622,
                    "duration": 0.44887800000000766
                },
                {
                    "name": "A4",
                    "midi": 69,
                    "time": 171.4713960000009,
                    "velocity": 0.4566929133858268,
                    "duration": 0.29301758333332373
                },
                {
                    "name": "C#5",
                    "midi": 73,
                    "time": 171.4713960000009,
                    "velocity": 0.5433070866141733,
                    "duration": 0.29301758333332373
                },
                {
                    "name": "C#5",
                    "midi": 73,
                    "time": 171.7706480000009,
                    "velocity": 0.4566929133858268,
                    "duration": 0.14962600000001203
                },
                {
                    "name": "E5",
                    "midi": 76,
                    "time": 171.7706480000009,
                    "velocity": 0.5433070866141733,
                    "duration": 0.14962600000001203
                },
                {
                    "name": "G#4",
                    "midi": 68,
                    "time": 171.92027400000092,
                    "velocity": 0.49606299212598426,
                    "duration": 1.340399583333351
                },
                {
                    "name": "G#5",
                    "midi": 80,
                    "time": 171.92027400000092,
                    "velocity": 0.5905511811023622,
                    "duration": 0.5985039999999913
                },
                {
                    "name": "E5",
                    "midi": 76,
                    "time": 171.92027400000092,
                    "velocity": 0.49606299212598426,
                    "duration": 0.5985039999999913
                },
                {
                    "name": "D#5",
                    "midi": 75,
                    "time": 172.5187780000009,
                    "velocity": 0.4645669291338583,
                    "duration": 0.11221950000000902
                },
                {
                    "name": "F#5",
                    "midi": 78,
                    "time": 172.5187780000009,
                    "velocity": 0.5590551181102362,
                    "duration": 0.11221950000000902
                },
                {
                    "name": "C#5",
                    "midi": 73,
                    "time": 172.66840400000092,
                    "velocity": 0.4251968503937008,
                    "duration": 0.11221950000000902
                },
                {
                    "name": "E5",
                    "midi": 76,
                    "time": 172.66840400000092,
                    "velocity": 0.5039370078740157,
                    "duration": 0.11221950000000902
                },
                {
                    "name": "C5",
                    "midi": 72,
                    "time": 172.81803000000093,
                    "velocity": 0.49606299212598426,
                    "duration": 0.7418955833333314
                },
                {
                    "name": "D#5",
                    "midi": 75,
                    "time": 172.81803000000093,
                    "velocity": 0.5905511811023622,
                    "duration": 0.7418955833333314
                },
                {
                    "name": "G#4",
                    "midi": 68,
                    "time": 173.26690800000094,
                    "velocity": 0.5354330708661418,
                    "duration": 0.29301758333332373
                },
                {
                    "name": "D#5",
                    "midi": 75,
                    "time": 173.56616000000093,
                    "velocity": 0.5039370078740157,
                    "duration": 0.14339158333334012
                },
                {
                    "name": "G#4",
                    "midi": 68,
                    "time": 173.71578600000095,
                    "velocity": 0.4645669291338583,
                    "duration": 0.439526375000014
                },
                {
                    "name": "D#5",
                    "midi": 75,
                    "time": 173.71578600000095,
                    "velocity": 0.5511811023622047,
                    "duration": 0.439526375000014
                },
                {
                    "name": "B4",
                    "midi": 71,
                    "time": 173.71578600000095,
                    "velocity": 0.4645669291338583,
                    "duration": 0.439526375000014
                },
                {
                    "name": "G#4",
                    "midi": 68,
                    "time": 174.16466400000095,
                    "velocity": 0.4330708661417323,
                    "duration": 0.44887800000000766
                },
                {
                    "name": "B4",
                    "midi": 71,
                    "time": 174.16466400000095,
                    "velocity": 0.4330708661417323,
                    "duration": 0.44887800000000766
                },
                {
                    "name": "E5",
                    "midi": 76,
                    "time": 174.16466400000095,
                    "velocity": 0.5118110236220472,
                    "duration": 0.29301758333332373
                },
                {
                    "name": "E5",
                    "midi": 76,
                    "time": 174.46391600000095,
                    "velocity": 0.5433070866141733,
                    "duration": 0.14339158333334012
                },
                {
                    "name": "E5",
                    "midi": 76,
                    "time": 174.61354200000096,
                    "velocity": 0.5905511811023622,
                    "duration": 0.44887800000000766
                },
                {
                    "name": "C5",
                    "midi": 72,
                    "time": 174.61354200000096,
                    "velocity": 0.49606299212598426,
                    "duration": 0.44887800000000766
                },
                {
                    "name": "A4",
                    "midi": 69,
                    "time": 174.61354200000096,
                    "velocity": 0.49606299212598426,
                    "duration": 0.44887800000000766
                },
                {
                    "name": "A4",
                    "midi": 69,
                    "time": 175.06242000000097,
                    "velocity": 0.5275590551181102,
                    "duration": 0.44887800000000766
                },
                {
                    "name": "C5",
                    "midi": 72,
                    "time": 175.06242000000097,
                    "velocity": 0.5275590551181102,
                    "duration": 0.44887800000000766
                },
                {
                    "name": "G5",
                    "midi": 79,
                    "time": 175.06242000000097,
                    "velocity": 0.6220472440944882,
                    "duration": 0.29301758333332373
                },
                {
                    "name": "F5",
                    "midi": 77,
                    "time": 175.36167200000096,
                    "velocity": 0.5905511811023622,
                    "duration": 0.14962600000001203
                },
                {
                    "name": "G4",
                    "midi": 67,
                    "time": 175.51129800000098,
                    "velocity": 0.4645669291338583,
                    "duration": 0.44887800000000766
                },
                {
                    "name": "C5",
                    "midi": 72,
                    "time": 175.51129800000098,
                    "velocity": 0.4645669291338583,
                    "duration": 0.44887800000000766
                },
                {
                    "name": "E5",
                    "midi": 76,
                    "time": 175.51129800000098,
                    "velocity": 0.5511811023622047,
                    "duration": 0.44887800000000766
                },
                {
                    "name": "D5",
                    "midi": 74,
                    "time": 175.96017600000098,
                    "velocity": 0.4330708661417323,
                    "duration": 0.29301758333332373
                },
                {
                    "name": "A4",
                    "midi": 69,
                    "time": 175.96017600000098,
                    "velocity": 0.36220472440944884,
                    "duration": 0.44887800000000766
                },
                {
                    "name": "D5",
                    "midi": 74,
                    "time": 176.25942800000098,
                    "velocity": 0.4330708661417323,
                    "duration": 0.14962600000001203
                },
                {
                    "name": "G#4",
                    "midi": 68,
                    "time": 176.409054000001,
                    "velocity": 0.3858267716535433,
                    "duration": 0.7481300000000033
                },
                {
                    "name": "E5",
                    "midi": 76,
                    "time": 176.409054000001,
                    "velocity": 0.4645669291338583,
                    "duration": 0.7481300000000033
                },
                {
                    "name": "E5",
                    "midi": 76,
                    "time": 177.157184000001,
                    "velocity": 0.36220472440944884,
                    "duration": 0.14962600000001203
                },
                {
                    "name": "E5",
                    "midi": 76,
                    "time": 177.306810000001,
                    "velocity": 0.44881889763779526,
                    "duration": 0.44887800000000766
                },
                {
                    "name": "G4",
                    "midi": 67,
                    "time": 177.306810000001,
                    "velocity": 0.3779527559055118,
                    "duration": 0.44887800000000766
                },
                {
                    "name": "C5",
                    "midi": 72,
                    "time": 177.306810000001,
                    "velocity": 0.3779527559055118,
                    "duration": 0.44887800000000766
                },
                {
                    "name": "A4",
                    "midi": 69,
                    "time": 177.75568800000102,
                    "velocity": 0.3937007874015748,
                    "duration": 0.44887800000000766
                },
                {
                    "name": "C5",
                    "midi": 72,
                    "time": 177.75568800000102,
                    "velocity": 0.3937007874015748,
                    "duration": 0.44887800000000766
                },
                {
                    "name": "G5",
                    "midi": 79,
                    "time": 177.75568800000102,
                    "velocity": 0.4645669291338583,
                    "duration": 0.29301758333332373
                },
                {
                    "name": "F5",
                    "midi": 77,
                    "time": 178.054940000001,
                    "velocity": 0.4409448818897638,
                    "duration": 0.14962600000001203
                },
                {
                    "name": "C5",
                    "midi": 72,
                    "time": 178.20456600000102,
                    "velocity": 0.33070866141732286,
                    "duration": 0.44887800000000766
                },
                {
                    "name": "A4",
                    "midi": 69,
                    "time": 178.20456600000102,
                    "velocity": 0.33070866141732286,
                    "duration": 0.44887800000000766
                },
                {
                    "name": "E5",
                    "midi": 76,
                    "time": 178.20456600000102,
                    "velocity": 0.3937007874015748,
                    "duration": 0.44887800000000766
                },
                {
                    "name": "F4",
                    "midi": 65,
                    "time": 178.65344400000103,
                    "velocity": 0.3228346456692913,
                    "duration": 0.44887800000000766
                },
                {
                    "name": "D5",
                    "midi": 74,
                    "time": 178.65344400000103,
                    "velocity": 0.3858267716535433,
                    "duration": 0.29301758333332373
                },
                {
                    "name": "B4",
                    "midi": 71,
                    "time": 178.65344400000103,
                    "velocity": 0.3228346456692913,
                    "duration": 0.44887800000000766
                },
                {
                    "name": "D5",
                    "midi": 74,
                    "time": 178.95269600000103,
                    "velocity": 0.3464566929133858,
                    "duration": 0.14962600000001203
                },
                {
                    "name": "E4",
                    "midi": 64,
                    "time": 179.10232200000104,
                    "velocity": 0.2677165354330709,
                    "duration": 0.29925199999999563
                },
                {
                    "name": "G#4",
                    "midi": 68,
                    "time": 179.10232200000104,
                    "velocity": 0.2677165354330709,
                    "duration": 0.29925199999999563
                },
                {
                    "name": "E5",
                    "midi": 76,
                    "time": 179.10232200000104,
                    "velocity": 0.3228346456692913,
                    "duration": 2.2443900000000383
                },
                {
                    "name": "C4",
                    "midi": 60,
                    "time": 179.85045200000104,
                    "velocity": 0.2992125984251969,
                    "duration": 0.14962600000001203
                },
                {
                    "name": "A4",
                    "midi": 69,
                    "time": 179.85045200000104,
                    "velocity": 0.2992125984251969,
                    "duration": 0.14962600000001203
                },
                {
                    "name": "D4",
                    "midi": 62,
                    "time": 180.00007800000105,
                    "velocity": 0.2755905511811024,
                    "duration": 0.29925199999999563
                },
                {
                    "name": "B4",
                    "midi": 71,
                    "time": 180.00007800000105,
                    "velocity": 0.33070866141732286,
                    "duration": 0.29925199999999563
                },
                {
                    "name": "E4",
                    "midi": 64,
                    "time": 180.29933000000105,
                    "velocity": 0.2440944881889764,
                    "duration": 0.14962600000001203
                },
                {
                    "name": "C5",
                    "midi": 72,
                    "time": 180.29933000000105,
                    "velocity": 0.29133858267716534,
                    "duration": 0.14962600000001203
                },
                {
                    "name": "A4",
                    "midi": 69,
                    "time": 180.44895600000106,
                    "velocity": 0.2992125984251969,
                    "duration": 0.44887800000000766
                },
                {
                    "name": "E4",
                    "midi": 64,
                    "time": 180.44895600000106,
                    "velocity": 0.2992125984251969,
                    "duration": 0.7481300000000033
                },
                {
                    "name": "C5",
                    "midi": 72,
                    "time": 180.44895600000106,
                    "velocity": 0.3937007874015748,
                    "duration": 0.44887800000000766
                },
                {
                    "name": "G#4",
                    "midi": 68,
                    "time": 180.89783400000107,
                    "velocity": 0.25984251968503935,
                    "duration": 0.29925199999999563
                },
                {
                    "name": "B4",
                    "midi": 71,
                    "time": 180.89783400000107,
                    "velocity": 0.30708661417322836,
                    "duration": 0.29925199999999563
                },
                {
                    "name": "C5",
                    "midi": 72,
                    "time": 181.19708600000106,
                    "velocity": 0.29133858267716534,
                    "duration": 0.14962600000001203
                },
                {
                    "name": "A4",
                    "midi": 69,
                    "time": 181.19708600000106,
                    "velocity": 0.2204724409448819,
                    "duration": 0.14339158333334012
                },
                {
                    "name": "E4",
                    "midi": 64,
                    "time": 181.19708600000106,
                    "velocity": 0.2204724409448819,
                    "duration": 0.14962600000001203
                },
                {
                    "name": "F4",
                    "midi": 65,
                    "time": 181.34671200000108,
                    "velocity": 0.2440944881889764,
                    "duration": 0.29925199999999563
                },
                {
                    "name": "A4",
                    "midi": 69,
                    "time": 181.34671200000108,
                    "velocity": 0.2440944881889764,
                    "duration": 0.29925199999999563
                },
                {
                    "name": "D5",
                    "midi": 74,
                    "time": 181.34671200000108,
                    "velocity": 0.31496062992125984,
                    "duration": 0.29925199999999563
                },
                {
                    "name": "A4",
                    "midi": 69,
                    "time": 181.64596400000107,
                    "velocity": 0.29133858267716534,
                    "duration": 0.14339158333334012
                },
                {
                    "name": "G4",
                    "midi": 67,
                    "time": 181.64596400000107,
                    "velocity": 0.29133858267716534,
                    "duration": 0.14339158333334012
                },
                {
                    "name": "E5",
                    "midi": 76,
                    "time": 181.64596400000107,
                    "velocity": 0.3779527559055118,
                    "duration": 0.14339158333334012
                },
                {
                    "name": "A4",
                    "midi": 69,
                    "time": 181.79559000000108,
                    "velocity": 0.33858267716535434,
                    "duration": 0.7418955833333314
                },
                {
                    "name": "G5",
                    "midi": 79,
                    "time": 181.79559000000108,
                    "velocity": 0.4409448818897638,
                    "duration": 0.44887800000000766
                },
                {
                    "name": "B4",
                    "midi": 71,
                    "time": 181.79559000000108,
                    "velocity": 0.33858267716535434,
                    "duration": 0.7418955833333314
                },
                {
                    "name": "F5",
                    "midi": 77,
                    "time": 182.2444680000011,
                    "velocity": 0.3858267716535433,
                    "duration": 0.29925199999999563
                },
                {
                    "name": "B4",
                    "midi": 71,
                    "time": 182.5437200000011,
                    "velocity": 0.33070866141732286,
                    "duration": 0.5922695833333478
                },
                {
                    "name": "A4",
                    "midi": 69,
                    "time": 182.5455903250011,
                    "velocity": 0.25984251968503935,
                    "duration": 0.5922695833333478
                },
                {
                    "name": "D5",
                    "midi": 74,
                    "time": 182.6933460000011,
                    "velocity": 0.3543307086614173,
                    "duration": 0.29925199999999563
                },
                {
                    "name": "F5",
                    "midi": 77,
                    "time": 182.9925980000011,
                    "velocity": 0.3700787401574803,
                    "duration": 0.14962600000001203
                },
                {
                    "name": "B4",
                    "midi": 71,
                    "time": 183.1422240000011,
                    "velocity": 0.33070866141732286,
                    "duration": 0.44887800000000766
                },
                {
                    "name": "A4",
                    "midi": 69,
                    "time": 183.1422240000011,
                    "velocity": 0.33070866141732286,
                    "duration": 0.44887800000000766
                },
                {
                    "name": "F5",
                    "midi": 77,
                    "time": 183.1422240000011,
                    "velocity": 0.4330708661417323,
                    "duration": 0.44887800000000766
                },
                {
                    "name": "G#4",
                    "midi": 68,
                    "time": 183.59110200000111,
                    "velocity": 0.3858267716535433,
                    "duration": 0.44264358333333576
                },
                {
                    "name": "B4",
                    "midi": 71,
                    "time": 183.8903540000011,
                    "velocity": 0.2992125984251969,
                    "duration": 0.14962600000001203
                },
                {
                    "name": "G#4",
                    "midi": 68,
                    "time": 184.03998000000112,
                    "velocity": 0.2992125984251969,
                    "duration": 0.44887800000000766
                },
                {
                    "name": "E5",
                    "midi": 76,
                    "time": 184.03998000000112,
                    "velocity": 0.4015748031496063,
                    "duration": 0.29925199999999563
                },
                {
                    "name": "E4",
                    "midi": 64,
                    "time": 184.03998000000112,
                    "velocity": 0.2992125984251969,
                    "duration": 0.44887800000000766
                },
                {
                    "name": "B4",
                    "midi": 71,
                    "time": 184.33923200000112,
                    "velocity": 0.3228346456692913,
                    "duration": 0.14962600000001203
                },
                {
                    "name": "E4",
                    "midi": 64,
                    "time": 184.48885800000113,
                    "velocity": 0.2677165354330709,
                    "duration": 0.44887800000000766
                },
                {
                    "name": "C#5",
                    "midi": 73,
                    "time": 184.48885800000113,
                    "velocity": 0.3228346456692913,
                    "duration": 0.44887800000000766
                },
                {
                    "name": "A4",
                    "midi": 69,
                    "time": 184.48885800000113,
                    "velocity": 0.2677165354330709,
                    "duration": 0.44887800000000766
                },
                {
                    "name": "C#4",
                    "midi": 61,
                    "time": 185.23698800000113,
                    "velocity": 0.2992125984251969,
                    "duration": 0.14962600000001203
                },
                {
                    "name": "A4",
                    "midi": 69,
                    "time": 185.23698800000113,
                    "velocity": 0.2992125984251969,
                    "duration": 0.14962600000001203
                },
                {
                    "name": "D4",
                    "midi": 62,
                    "time": 185.38661400000115,
                    "velocity": 0.2755905511811024,
                    "duration": 0.29925199999999563
                },
                {
                    "name": "B4",
                    "midi": 71,
                    "time": 185.38661400000115,
                    "velocity": 0.33070866141732286,
                    "duration": 0.29925199999999563
                },
                {
                    "name": "A4",
                    "midi": 69,
                    "time": 185.68586600000114,
                    "velocity": 0.2440944881889764,
                    "duration": 0.14962600000001203
                },
                {
                    "name": "E4",
                    "midi": 64,
                    "time": 185.68586600000114,
                    "velocity": 0.2440944881889764,
                    "duration": 0.14962600000001203
                },
                {
                    "name": "C#5",
                    "midi": 73,
                    "time": 185.68586600000114,
                    "velocity": 0.29133858267716534,
                    "duration": 0.14962600000001203
                },
                {
                    "name": "F4",
                    "midi": 65,
                    "time": 185.83549200000115,
                    "velocity": 0.33858267716535434,
                    "duration": 0.8977560000000153
                },
                {
                    "name": "A4",
                    "midi": 69,
                    "time": 185.83549200000115,
                    "velocity": 0.33858267716535434,
                    "duration": 0.8977560000000153
                },
                {
                    "name": "E5",
                    "midi": 76,
                    "time": 185.83549200000115,
                    "velocity": 0.4015748031496063,
                    "duration": 0.44887800000000766
                },
                {
                    "name": "D5",
                    "midi": 74,
                    "time": 186.28437000000116,
                    "velocity": 0.3700787401574803,
                    "duration": 0.29925199999999563
                },
                {
                    "name": "F5",
                    "midi": 77,
                    "time": 186.58362200000116,
                    "velocity": 0.36220472440944884,
                    "duration": 0.14962600000001203
                },
                {
                    "name": "E5",
                    "midi": 76,
                    "time": 186.73324800000117,
                    "velocity": 0.4094488188976378,
                    "duration": 0.29925199999999563
                },
                {
                    "name": "F4",
                    "midi": 65,
                    "time": 186.73324800000117,
                    "velocity": 0.3464566929133858,
                    "duration": 0.44887799999997924
                },
                {
                    "name": "A#4",
                    "midi": 70,
                    "time": 186.73324800000117,
                    "velocity": 0.3464566929133858,
                    "duration": 0.44887799999997924
                },
                {
                    "name": "D5",
                    "midi": 74,
                    "time": 187.03250000000116,
                    "velocity": 0.3700787401574803,
                    "duration": 0.11221950000000902
                },
                {
                    "name": "G4",
                    "midi": 67,
                    "time": 187.14471950000117,
                    "velocity": 0.33858267716535434,
                    "duration": 0.1870324999999866
                },
                {
                    "name": "A#4",
                    "midi": 70,
                    "time": 187.16342275000116,
                    "velocity": 0.33858267716535434,
                    "duration": 0.16832924999999932
                },
                {
                    "name": "C5",
                    "midi": 72,
                    "time": 187.18212600000115,
                    "velocity": 0.4015748031496063,
                    "duration": 1.7955120000000306
                },
                {
                    "name": "G5",
                    "midi": 79,
                    "time": 187.93025600000115,
                    "velocity": 0.31496062992125984,
                    "duration": 0.14962600000001203
                },
                {
                    "name": "F5",
                    "midi": 77,
                    "time": 188.07988200000116,
                    "velocity": 0.3858267716535433,
                    "duration": 0.29925199999999563
                },
                {
                    "name": "A#4",
                    "midi": 70,
                    "time": 188.07988200000116,
                    "velocity": 0.3858267716535433,
                    "duration": 0.44887800000000766
                },
                {
                    "name": "G4",
                    "midi": 67,
                    "time": 188.07988200000116,
                    "velocity": 0.3858267716535433,
                    "duration": 0.44887800000000766
                },
                {
                    "name": "E5",
                    "midi": 76,
                    "time": 188.37913400000116,
                    "velocity": 0.33070866141732286,
                    "duration": 0.14339158333334012
                },
                {
                    "name": "G4",
                    "midi": 67,
                    "time": 188.52876000000117,
                    "velocity": 0.36220472440944884,
                    "duration": 0.44887800000000766
                },
                {
                    "name": "A#4",
                    "midi": 70,
                    "time": 188.52876000000117,
                    "velocity": 0.36220472440944884,
                    "duration": 0.44887800000000766
                },
                {
                    "name": "E5",
                    "midi": 76,
                    "time": 188.52876000000117,
                    "velocity": 0.36220472440944884,
                    "duration": 0.44887800000000766
                },
                {
                    "name": "E4",
                    "midi": 64,
                    "time": 189.20207700000117,
                    "velocity": 0.2283464566929134,
                    "duration": 0.22443899999998962
                },
                {
                    "name": "G4",
                    "midi": 67,
                    "time": 189.20207700000117,
                    "velocity": 0.2992125984251969,
                    "duration": 0.22443899999998962
                },
                {
                    "name": "E4",
                    "midi": 64,
                    "time": 189.42651600000116,
                    "velocity": 0.25984251968503935,
                    "duration": 0.22443899999998962
                },
                {
                    "name": "G4",
                    "midi": 67,
                    "time": 189.42651600000116,
                    "velocity": 0.25984251968503935,
                    "duration": 0.22443899999998962
                },
                {
                    "name": "A4",
                    "midi": 69,
                    "time": 189.42651600000116,
                    "velocity": 0.3464566929133858,
                    "duration": 0.22443899999998962
                },
                {
                    "name": "A#4",
                    "midi": 70,
                    "time": 189.65095500000115,
                    "velocity": 0.3543307086614173,
                    "duration": 0.22443899999998962
                },
                {
                    "name": "E4",
                    "midi": 64,
                    "time": 189.65095500000115,
                    "velocity": 0.2755905511811024,
                    "duration": 0.22443899999998962
                },
                {
                    "name": "G4",
                    "midi": 67,
                    "time": 189.65095500000115,
                    "velocity": 0.2755905511811024,
                    "duration": 0.22443899999998962
                },
                {
                    "name": "E4",
                    "midi": 64,
                    "time": 189.87539400000114,
                    "velocity": 0.30708661417322836,
                    "duration": 0.8977559999999869
                },
                {
                    "name": "G4",
                    "midi": 67,
                    "time": 189.87539400000114,
                    "velocity": 0.30708661417322836,
                    "duration": 0.8977559999999869
                },
                {
                    "name": "B4",
                    "midi": 71,
                    "time": 189.87539400000114,
                    "velocity": 0.36220472440944884,
                    "duration": 0.8977559999999869
                },
                {
                    "name": "B4",
                    "midi": 71,
                    "time": 190.77315000000112,
                    "velocity": 0.3543307086614173,
                    "duration": 0.44887800000000766
                },
                {
                    "name": "G4",
                    "midi": 67,
                    "time": 190.77315000000112,
                    "velocity": 0.2992125984251969,
                    "duration": 0.44887800000000766
                },
                {
                    "name": "E4",
                    "midi": 64,
                    "time": 190.77315000000112,
                    "velocity": 0.2992125984251969,
                    "duration": 0.44887800000000766
                },
                {
                    "name": "D#4",
                    "midi": 63,
                    "time": 191.22202800000113,
                    "velocity": 0.3779527559055118,
                    "duration": 1.346634000000023
                },
                {
                    "name": "A4",
                    "midi": 69,
                    "time": 191.22202800000113,
                    "velocity": 0.3779527559055118,
                    "duration": 0.44887800000000766
                },
                {
                    "name": "C5",
                    "midi": 72,
                    "time": 191.22202800000113,
                    "velocity": 0.44881889763779526,
                    "duration": 0.44887800000000766
                },
                {
                    "name": "B4",
                    "midi": 71,
                    "time": 191.67090600000114,
                    "velocity": 0.4015748031496063,
                    "duration": 0.44887800000000766
                },
                {
                    "name": "G4",
                    "midi": 67,
                    "time": 191.67090600000114,
                    "velocity": 0.33858267716535434,
                    "duration": 0.44887800000000766
                },
                {
                    "name": "F#4",
                    "midi": 66,
                    "time": 192.11978400000115,
                    "velocity": 0.2992125984251969,
                    "duration": 0.44887800000000766
                },
                {
                    "name": "A4",
                    "midi": 69,
                    "time": 192.11978400000115,
                    "velocity": 0.3543307086614173,
                    "duration": 0.44887800000000766
                },
                {
                    "name": "G4",
                    "midi": 67,
                    "time": 192.56866200000115,
                    "velocity": 0.41732283464566927,
                    "duration": 0.44887800000000766
                },
                {
                    "name": "E4",
                    "midi": 64,
                    "time": 192.56866200000115,
                    "velocity": 0.3543307086614173,
                    "duration": 0.44887800000000766
                },
                {
                    "name": "E5",
                    "midi": 76,
                    "time": 193.24197900000115,
                    "velocity": 0.33070866141732286,
                    "duration": 0.22443899999998962
                },
                {
                    "name": "G4",
                    "midi": 67,
                    "time": 193.24197900000115,
                    "velocity": 0.33070866141732286,
                    "duration": 0.22443899999998962
                },
                {
                    "name": "G5",
                    "midi": 79,
                    "time": 193.24197900000115,
                    "velocity": 0.3937007874015748,
                    "duration": 0.22443899999998962
                },
                {
                    "name": "A4",
                    "midi": 69,
                    "time": 193.46641800000114,
                    "velocity": 0.3543307086614173,
                    "duration": 0.22443899999998962
                },
                {
                    "name": "A5",
                    "midi": 81,
                    "time": 193.46641800000114,
                    "velocity": 0.4251968503937008,
                    "duration": 0.22443899999998962
                },
                {
                    "name": "E5",
                    "midi": 76,
                    "time": 193.46641800000114,
                    "velocity": 0.3543307086614173,
                    "duration": 0.22443899999998962
                },
                {
                    "name": "A#4",
                    "midi": 70,
                    "time": 193.69085700000113,
                    "velocity": 0.3779527559055118,
                    "duration": 0.22443899999998962
                },
                {
                    "name": "G5",
                    "midi": 79,
                    "time": 193.69085700000113,
                    "velocity": 0.3779527559055118,
                    "duration": 0.22443899999998962
                },
                {
                    "name": "E5",
                    "midi": 76,
                    "time": 193.69085700000113,
                    "velocity": 0.3779527559055118,
                    "duration": 0.22443899999998962
                },
                {
                    "name": "A#5",
                    "midi": 82,
                    "time": 193.69085700000113,
                    "velocity": 0.44881889763779526,
                    "duration": 0.22443899999998962
                },
                {
                    "name": "G5",
                    "midi": 79,
                    "time": 193.91529600000112,
                    "velocity": 0.4015748031496063,
                    "duration": 0.6733169999999973
                },
                {
                    "name": "E5",
                    "midi": 76,
                    "time": 193.91529600000112,
                    "velocity": 0.4015748031496063,
                    "duration": 0.6733169999999973
                },
                {
                    "name": "B4",
                    "midi": 71,
                    "time": 193.91529600000112,
                    "velocity": 0.4015748031496063,
                    "duration": 0.6733169999999973
                },
                {
                    "name": "B5",
                    "midi": 83,
                    "time": 193.91529600000112,
                    "velocity": 0.48031496062992124,
                    "duration": 0.6733169999999973
                },
                {
                    "name": "E5",
                    "midi": 76,
                    "time": 194.58861300000112,
                    "velocity": 0.4094488188976378,
                    "duration": 0.22443899999998962
                },
                {
                    "name": "G5",
                    "midi": 79,
                    "time": 194.58861300000112,
                    "velocity": 0.4881889763779528,
                    "duration": 0.22443899999998962
                },
                {
                    "name": "G5",
                    "midi": 79,
                    "time": 194.8130520000011,
                    "velocity": 0.4330708661417323,
                    "duration": 0.22443899999998962
                },
                {
                    "name": "B5",
                    "midi": 83,
                    "time": 194.8130520000011,
                    "velocity": 0.5118110236220472,
                    "duration": 0.22443899999998962
                },
                {
                    "name": "E6",
                    "midi": 88,
                    "time": 195.0374910000011,
                    "velocity": 0.5433070866141733,
                    "duration": 0.22443899999998962
                },
                {
                    "name": "G5",
                    "midi": 79,
                    "time": 195.0374910000011,
                    "velocity": 0.4566929133858268,
                    "duration": 0.22443899999998962
                },
                {
                    "name": "A6",
                    "midi": 93,
                    "time": 195.2619300000011,
                    "velocity": 0.5669291338582677,
                    "duration": 0.44887800000000766
                },
                {
                    "name": "A5",
                    "midi": 81,
                    "time": 195.2619300000011,
                    "velocity": 0.48031496062992124,
                    "duration": 0.44887800000000766
                },
                {
                    "name": "C6",
                    "midi": 84,
                    "time": 195.2619300000011,
                    "velocity": 0.48031496062992124,
                    "duration": 0.44887800000000766
                },
                {
                    "name": "G6",
                    "midi": 91,
                    "time": 195.7108080000011,
                    "velocity": 0.5275590551181102,
                    "duration": 0.44887800000000766
                },
                {
                    "name": "B5",
                    "midi": 83,
                    "time": 195.7108080000011,
                    "velocity": 0.4409448818897638,
                    "duration": 0.44887800000000766
                },
                {
                    "name": "G5",
                    "midi": 79,
                    "time": 195.7108080000011,
                    "velocity": 0.4409448818897638,
                    "duration": 0.44887800000000766
                },
                {
                    "name": "F#5",
                    "midi": 78,
                    "time": 196.1596860000011,
                    "velocity": 0.4409448818897638,
                    "duration": 0.44887800000000766
                },
                {
                    "name": "F#6",
                    "midi": 90,
                    "time": 196.1596860000011,
                    "velocity": 0.5196850393700787,
                    "duration": 0.44887800000000766
                },
                {
                    "name": "A5",
                    "midi": 81,
                    "time": 196.1596860000011,
                    "velocity": 0.4409448818897638,
                    "duration": 0.44887800000000766
                },
                {
                    "name": "E6",
                    "midi": 88,
                    "time": 196.6085640000011,
                    "velocity": 0.5826771653543307,
                    "duration": 0.44887800000000766
                },
                {
                    "name": "G#5",
                    "midi": 80,
                    "time": 196.6085640000011,
                    "velocity": 0.4881889763779528,
                    "duration": 0.44887800000000766
                },
                {
                    "name": "E5",
                    "midi": 76,
                    "time": 196.6085640000011,
                    "velocity": 0.4881889763779528,
                    "duration": 0.44887800000000766
                },
                {
                    "name": "E6",
                    "midi": 88,
                    "time": 197.80557200000112,
                    "velocity": 0.5039370078740157,
                    "duration": 0.14962600000001203
                },
                {
                    "name": "E5",
                    "midi": 76,
                    "time": 197.80557200000112,
                    "velocity": 0.5039370078740157,
                    "duration": 0.14962600000001203
                },
                {
                    "name": "E5",
                    "midi": 76,
                    "time": 197.95519800000113,
                    "velocity": 0.4645669291338583,
                    "duration": 0.44887800000000766
                },
                {
                    "name": "C6",
                    "midi": 84,
                    "time": 197.95519800000113,
                    "velocity": 0.4645669291338583,
                    "duration": 0.44887800000000766
                },
                {
                    "name": "E6",
                    "midi": 88,
                    "time": 197.95519800000113,
                    "velocity": 0.5511811023622047,
                    "duration": 0.44887800000000766
                },
                {
                    "name": "C6",
                    "midi": 84,
                    "time": 198.40407600000114,
                    "velocity": 0.5118110236220472,
                    "duration": 0.29925199999999563
                },
                {
                    "name": "C5",
                    "midi": 72,
                    "time": 198.40407600000114,
                    "velocity": 0.4330708661417323,
                    "duration": 0.29925199999999563
                },
                {
                    "name": "A5",
                    "midi": 81,
                    "time": 198.40407600000114,
                    "velocity": 0.4330708661417323,
                    "duration": 0.29925199999999563
                },
                {
                    "name": "B4",
                    "midi": 71,
                    "time": 198.70332800000114,
                    "velocity": 0.4566929133858268,
                    "duration": 0.14962600000001203
                },
                {
                    "name": "G#5",
                    "midi": 80,
                    "time": 198.70332800000114,
                    "velocity": 0.4566929133858268,
                    "duration": 0.14962600000001203
                },
                {
                    "name": "B5",
                    "midi": 83,
                    "time": 198.70332800000114,
                    "velocity": 0.5433070866141733,
                    "duration": 0.14962600000001203
                },
                {
                    "name": "E5",
                    "midi": 76,
                    "time": 198.85295400000115,
                    "velocity": 0.5905511811023622,
                    "duration": 0.44887800000000766
                },
                {
                    "name": "C5",
                    "midi": 72,
                    "time": 198.85295400000115,
                    "velocity": 0.49606299212598426,
                    "duration": 0.7481300000000033
                },
                {
                    "name": "E4",
                    "midi": 64,
                    "time": 198.85295400000115,
                    "velocity": 0.49606299212598426,
                    "duration": 0.44887800000000766
                },
                {
                    "name": "A4",
                    "midi": 69,
                    "time": 199.30183200000116,
                    "velocity": 0.4566929133858268,
                    "duration": 0.29925199999999563
                },
                {
                    "name": "A5",
                    "midi": 81,
                    "time": 199.30183200000116,
                    "velocity": 0.5433070866141733,
                    "duration": 0.29925199999999563
                },
                {
                    "name": "E6",
                    "midi": 88,
                    "time": 199.60108400000115,
                    "velocity": 0.5039370078740157,
                    "duration": 0.14962600000001203
                },
                {
                    "name": "E5",
                    "midi": 76,
                    "time": 199.60108400000115,
                    "velocity": 0.4330708661417323,
                    "duration": 0.14962600000001203
                },
                {
                    "name": "C6",
                    "midi": 84,
                    "time": 199.60108400000115,
                    "velocity": 0.4330708661417323,
                    "duration": 0.14962600000001203
                },
                {
                    "name": "E5",
                    "midi": 76,
                    "time": 199.75071000000116,
                    "velocity": 0.4645669291338583,
                    "duration": 0.44887800000000766
                },
                {
                    "name": "C6",
                    "midi": 84,
                    "time": 199.75071000000116,
                    "velocity": 0.4645669291338583,
                    "duration": 0.44887800000000766
                },
                {
                    "name": "E6",
                    "midi": 88,
                    "time": 199.75071000000116,
                    "velocity": 0.5511811023622047,
                    "duration": 0.44887800000000766
                },
                {
                    "name": "C6",
                    "midi": 84,
                    "time": 200.19958800000117,
                    "velocity": 0.5118110236220472,
                    "duration": 0.29925199999999563
                },
                {
                    "name": "A5",
                    "midi": 81,
                    "time": 200.19958800000117,
                    "velocity": 0.4330708661417323,
                    "duration": 0.29925199999999563
                },
                {
                    "name": "C5",
                    "midi": 72,
                    "time": 200.19958800000117,
                    "velocity": 0.4330708661417323,
                    "duration": 0.29925199999999563
                },
                {
                    "name": "B4",
                    "midi": 71,
                    "time": 200.49884000000117,
                    "velocity": 0.4566929133858268,
                    "duration": 0.14962600000001203
                },
                {
                    "name": "G#5",
                    "midi": 80,
                    "time": 200.49884000000117,
                    "velocity": 0.4566929133858268,
                    "duration": 0.14962600000001203
                },
                {
                    "name": "B5",
                    "midi": 83,
                    "time": 200.49884000000117,
                    "velocity": 0.5433070866141733,
                    "duration": 0.14962600000001203
                },
                {
                    "name": "C5",
                    "midi": 72,
                    "time": 200.64846600000118,
                    "velocity": 0.49606299212598426,
                    "duration": 0.7418955833333314
                },
                {
                    "name": "E4",
                    "midi": 64,
                    "time": 200.64846600000118,
                    "velocity": 0.49606299212598426,
                    "duration": 0.7418955833333314
                },
                {
                    "name": "E5",
                    "midi": 76,
                    "time": 200.64846600000118,
                    "velocity": 0.5905511811023622,
                    "duration": 0.7418955833333314
                },
                {
                    "name": "E4",
                    "midi": 64,
                    "time": 201.39659600000118,
                    "velocity": 0.4566929133858268,
                    "duration": 0.14962600000001203
                },
                {
                    "name": "E5",
                    "midi": 76,
                    "time": 201.39659600000118,
                    "velocity": 0.5433070866141733,
                    "duration": 0.14962600000001203
                },
                {
                    "name": "C5",
                    "midi": 72,
                    "time": 201.39659600000118,
                    "velocity": 0.4566929133858268,
                    "duration": 0.14962600000001203
                },
                {
                    "name": "C5",
                    "midi": 72,
                    "time": 201.5462220000012,
                    "velocity": 0.4645669291338583,
                    "duration": 0.44887800000000766
                },
                {
                    "name": "E4",
                    "midi": 64,
                    "time": 201.5462220000012,
                    "velocity": 0.4645669291338583,
                    "duration": 0.44887800000000766
                },
                {
                    "name": "E5",
                    "midi": 76,
                    "time": 201.5462220000012,
                    "velocity": 0.5511811023622047,
                    "duration": 0.44887800000000766
                },
                {
                    "name": "F4",
                    "midi": 65,
                    "time": 201.9951000000012,
                    "velocity": 0.4330708661417323,
                    "duration": 0.29925199999999563
                },
                {
                    "name": "F5",
                    "midi": 77,
                    "time": 201.9951000000012,
                    "velocity": 0.5118110236220472,
                    "duration": 0.29925199999999563
                },
                {
                    "name": "D5",
                    "midi": 74,
                    "time": 201.9951000000012,
                    "velocity": 0.4330708661417323,
                    "duration": 0.29925199999999563
                },
                {
                    "name": "G4",
                    "midi": 67,
                    "time": 202.2943520000012,
                    "velocity": 0.4566929133858268,
                    "duration": 0.14962600000001203
                },
                {
                    "name": "E5",
                    "midi": 76,
                    "time": 202.2943520000012,
                    "velocity": 0.4566929133858268,
                    "duration": 0.14962600000001203
                },
                {
                    "name": "G5",
                    "midi": 79,
                    "time": 202.2943520000012,
                    "velocity": 0.5433070866141733,
                    "duration": 0.14962600000001203
                },
                {
                    "name": "G5",
                    "midi": 79,
                    "time": 202.4439780000012,
                    "velocity": 0.5905511811023622,
                    "duration": 0.44887800000000766
                },
                {
                    "name": "B4",
                    "midi": 71,
                    "time": 202.4439780000012,
                    "velocity": 0.49606299212598426,
                    "duration": 0.7481300000000033
                },
                {
                    "name": "G4",
                    "midi": 67,
                    "time": 202.4439780000012,
                    "velocity": 0.49606299212598426,
                    "duration": 0.44887800000000766
                },
                {
                    "name": "F4",
                    "midi": 65,
                    "time": 202.89285600000122,
                    "velocity": 0.4566929133858268,
                    "duration": 0.29925199999999563
                },
                {
                    "name": "F5",
                    "midi": 77,
                    "time": 202.89285600000122,
                    "velocity": 0.5433070866141733,
                    "duration": 0.29925199999999563
                },
                {
                    "name": "D4",
                    "midi": 62,
                    "time": 203.1921080000012,
                    "velocity": 0.4330708661417323,
                    "duration": 0.14962600000001203
                },
                {
                    "name": "D5",
                    "midi": 74,
                    "time": 203.1921080000012,
                    "velocity": 0.5039370078740157,
                    "duration": 0.14962600000001203
                },
                {
                    "name": "B4",
                    "midi": 71,
                    "time": 203.1921080000012,
                    "velocity": 0.4330708661417323,
                    "duration": 0.14962600000001203
                },
                {
                    "name": "C4",
                    "midi": 60,
                    "time": 203.34173400000122,
                    "velocity": 0.4645669291338583,
                    "duration": 0.5985040000000481
                },
                {
                    "name": "A4",
                    "midi": 69,
                    "time": 203.34173400000122,
                    "velocity": 0.4645669291338583,
                    "duration": 0.5985040000000481
                },
                {
                    "name": "C5",
                    "midi": 72,
                    "time": 203.34173400000122,
                    "velocity": 0.5511811023622047,
                    "duration": 0.29925199999999563
                },
                {
                    "name": "D5",
                    "midi": 74,
                    "time": 203.64098600000122,
                    "velocity": 0.5196850393700787,
                    "duration": 0.049875333333346816
                },
                {
                    "name": "C5",
                    "midi": 72,
                    "time": 203.69086133333457,
                    "velocity": 0.4330708661417323,
                    "duration": 0.049875333333346816
                },
                {
                    "name": "B4",
                    "midi": 71,
                    "time": 203.7407366666679,
                    "velocity": 0.4330708661417323,
                    "duration": 0.049875333333346816
                },
                {
                    "name": "C5",
                    "midi": 72,
                    "time": 203.79061200000126,
                    "velocity": 0.5511811023622047,
                    "duration": 0.14962600000001203
                },
                {
                    "name": "D4",
                    "midi": 62,
                    "time": 203.94023800000127,
                    "velocity": 0.4566929133858268,
                    "duration": 0.11221950000000902
                },
                {
                    "name": "B4",
                    "midi": 71,
                    "time": 203.94023800000127,
                    "velocity": 0.4566929133858268,
                    "duration": 0.11221950000000902
                },
                {
                    "name": "D5",
                    "midi": 74,
                    "time": 203.94023800000127,
                    "velocity": 0.5433070866141733,
                    "duration": 0.11221950000000902
                },
                {
                    "name": "C5",
                    "midi": 72,
                    "time": 204.08986400000128,
                    "velocity": 0.4566929133858268,
                    "duration": 0.11221950000000902
                },
                {
                    "name": "E4",
                    "midi": 64,
                    "time": 204.08986400000128,
                    "velocity": 0.4566929133858268,
                    "duration": 0.11221950000000902
                },
                {
                    "name": "E5",
                    "midi": 76,
                    "time": 204.08986400000128,
                    "velocity": 0.5433070866141733,
                    "duration": 0.11221950000000902
                },
                {
                    "name": "E4",
                    "midi": 64,
                    "time": 204.2394900000013,
                    "velocity": 0.49606299212598426,
                    "duration": 0.44887800000000766
                },
                {
                    "name": "E5",
                    "midi": 76,
                    "time": 204.2394900000013,
                    "velocity": 0.5905511811023622,
                    "duration": 0.44887800000000766
                },
                {
                    "name": "G#4",
                    "midi": 68,
                    "time": 204.2394900000013,
                    "velocity": 0.49606299212598426,
                    "duration": 0.44887800000000766
                },
                {
                    "name": "E5",
                    "midi": 76,
                    "time": 204.9876200000013,
                    "velocity": 0.5039370078740157,
                    "duration": 0.14962600000001203
                },
                {
                    "name": "E6",
                    "midi": 88,
                    "time": 204.9876200000013,
                    "velocity": 0.5039370078740157,
                    "duration": 0.14962600000001203
                },
                {
                    "name": "E5",
                    "midi": 76,
                    "time": 205.1372460000013,
                    "velocity": 0.4645669291338583,
                    "duration": 0.44887800000000766
                },
                {
                    "name": "C#6",
                    "midi": 85,
                    "time": 205.1372460000013,
                    "velocity": 0.4645669291338583,
                    "duration": 0.44887800000000766
                },
                {
                    "name": "E6",
                    "midi": 88,
                    "time": 205.1372460000013,
                    "velocity": 0.5511811023622047,
                    "duration": 0.44887800000000766
                },
                {
                    "name": "A5",
                    "midi": 81,
                    "time": 205.58612400000132,
                    "velocity": 0.4330708661417323,
                    "duration": 0.29925199999999563
                },
                {
                    "name": "C#5",
                    "midi": 73,
                    "time": 205.58612400000132,
                    "velocity": 0.4330708661417323,
                    "duration": 0.29925199999999563
                },
                {
                    "name": "C#6",
                    "midi": 85,
                    "time": 205.58612400000132,
                    "velocity": 0.5118110236220472,
                    "duration": 0.29925199999999563
                },
                {
                    "name": "B4",
                    "midi": 71,
                    "time": 205.88537600000132,
                    "velocity": 0.4566929133858268,
                    "duration": 0.14962600000001203
                },
                {
                    "name": "B5",
                    "midi": 83,
                    "time": 205.88537600000132,
                    "velocity": 0.5433070866141733,
                    "duration": 0.14962600000001203
                },
                {
                    "name": "G#5",
                    "midi": 80,
                    "time": 205.88537600000132,
                    "velocity": 0.4566929133858268,
                    "duration": 0.14962600000001203
                },
                {
                    "name": "C#5",
                    "midi": 73,
                    "time": 206.03500200000133,
                    "velocity": 0.49606299212598426,
                    "duration": 0.7481300000000033
                },
                {
                    "name": "E4",
                    "midi": 64,
                    "time": 206.03500200000133,
                    "velocity": 0.49606299212598426,
                    "duration": 0.44887800000000766
                },
                {
                    "name": "E5",
                    "midi": 76,
                    "time": 206.03500200000133,
                    "velocity": 0.5905511811023622,
                    "duration": 0.44887800000000766
                },
                {
                    "name": "A4",
                    "midi": 69,
                    "time": 206.48388000000134,
                    "velocity": 0.4566929133858268,
                    "duration": 0.29925199999999563
                },
                {
                    "name": "A5",
                    "midi": 81,
                    "time": 206.48388000000134,
                    "velocity": 0.5433070866141733,
                    "duration": 0.29925199999999563
                },
                {
                    "name": "C#6",
                    "midi": 85,
                    "time": 206.78313200000133,
                    "velocity": 0.4330708661417323,
                    "duration": 0.14962600000001203
                },
                {
                    "name": "E5",
                    "midi": 76,
                    "time": 206.78313200000133,
                    "velocity": 0.4330708661417323,
                    "duration": 0.14962600000001203
                },
                {
                    "name": "E6",
                    "midi": 88,
                    "time": 206.78313200000133,
                    "velocity": 0.5039370078740157,
                    "duration": 0.14962600000001203
                },
                {
                    "name": "G#5",
                    "midi": 80,
                    "time": 206.93275800000134,
                    "velocity": 0.4645669291338583,
                    "duration": 0.5985039999999913
                },
                {
                    "name": "G#6",
                    "midi": 92,
                    "time": 206.93275800000134,
                    "velocity": 0.6299212598425197,
                    "duration": 0.5985039999999913
                },
                {
                    "name": "E6",
                    "midi": 88,
                    "time": 206.93275800000134,
                    "velocity": 0.5354330708661418,
                    "duration": 0.5985039999999913
                },
                {
                    "name": "D#6",
                    "midi": 87,
                    "time": 207.53126200000133,
                    "velocity": 0.4330708661417323,
                    "duration": 0.11221950000000902
                },
                {
                    "name": "F#5",
                    "midi": 78,
                    "time": 207.53126200000133,
                    "velocity": 0.4330708661417323,
                    "duration": 0.11221950000000902
                },
                {
                    "name": "F#6",
                    "midi": 90,
                    "time": 207.53126200000133,
                    "velocity": 0.5118110236220472,
                    "duration": 0.11221950000000902
                },
                {
                    "name": "E5",
                    "midi": 76,
                    "time": 207.68088800000135,
                    "velocity": 0.4566929133858268,
                    "duration": 0.11221950000000902
                },
                {
                    "name": "E6",
                    "midi": 88,
                    "time": 207.68088800000135,
                    "velocity": 0.5433070866141733,
                    "duration": 0.11221950000000902
                },
                {
                    "name": "C#6",
                    "midi": 85,
                    "time": 207.68088800000135,
                    "velocity": 0.4566929133858268,
                    "duration": 0.11221950000000902
                },
                {
                    "name": "D#5",
                    "midi": 75,
                    "time": 207.83051400000136,
                    "velocity": 0.49606299212598426,
                    "duration": 0.7418955833333314
                },
                {
                    "name": "C6",
                    "midi": 84,
                    "time": 207.83051400000136,
                    "velocity": 0.49606299212598426,
                    "duration": 0.7418955833333314
                },
                {
                    "name": "D#6",
                    "midi": 87,
                    "time": 207.83051400000136,
                    "velocity": 0.5905511811023622,
                    "duration": 0.7418955833333314
                },
                {
                    "name": "D#6",
                    "midi": 87,
                    "time": 208.57864400000136,
                    "velocity": 0.4881889763779528,
                    "duration": 0.14962600000001203
                },
                {
                    "name": "D#5",
                    "midi": 75,
                    "time": 208.57864400000136,
                    "velocity": 0.4094488188976378,
                    "duration": 0.14962600000001203
                },
                {
                    "name": "D#5",
                    "midi": 75,
                    "time": 208.72827000000137,
                    "velocity": 0.4330708661417323,
                    "duration": 0.44887800000000766
                },
                {
                    "name": "B5",
                    "midi": 83,
                    "time": 208.72827000000137,
                    "velocity": 0.4251968503937008,
                    "duration": 0.8977560000000153
                },
                {
                    "name": "D#6",
                    "midi": 87,
                    "time": 208.72827000000137,
                    "velocity": 0.5118110236220472,
                    "duration": 0.44887800000000766
                },
                {
                    "name": "E6",
                    "midi": 88,
                    "time": 209.17714800000138,
                    "velocity": 0.5354330708661418,
                    "duration": 0.29301758333332373
                },
                {
                    "name": "E5",
                    "midi": 76,
                    "time": 209.17714800000138,
                    "velocity": 0.44881889763779526,
                    "duration": 0.29301758333332373
                },
                {
                    "name": "E5",
                    "midi": 76,
                    "time": 209.47640000000138,
                    "velocity": 0.4330708661417323,
                    "duration": 0.14339158333334012
                },
                {
                    "name": "E6",
                    "midi": 88,
                    "time": 209.47640000000138,
                    "velocity": 0.5118110236220472,
                    "duration": 0.14339158333334012
                },
                {
                    "name": "C6",
                    "midi": 84,
                    "time": 209.6260260000014,
                    "velocity": 0.44881889763779526,
                    "duration": 0.8977560000000153
                },
                {
                    "name": "E5",
                    "midi": 76,
                    "time": 209.6260260000014,
                    "velocity": 0.4566929133858268,
                    "duration": 0.44887800000000766
                },
                {
                    "name": "E6",
                    "midi": 88,
                    "time": 209.6260260000014,
                    "velocity": 0.5433070866141733,
                    "duration": 0.44887800000000766
                },
                {
                    "name": "F6",
                    "midi": 89,
                    "time": 210.0749040000014,
                    "velocity": 0.5590551181102362,
                    "duration": 0.29301758333332373
                },
                {
                    "name": "F5",
                    "midi": 77,
                    "time": 210.0749040000014,
                    "velocity": 0.47244094488188976,
                    "duration": 0.29301758333332373
                },
                {
                    "name": "F6",
                    "midi": 89,
                    "time": 210.3741560000014,
                    "velocity": 0.5354330708661418,
                    "duration": 0.14339158333334012
                },
                {
                    "name": "F5",
                    "midi": 77,
                    "time": 210.3741560000014,
                    "velocity": 0.44881889763779526,
                    "duration": 0.14339158333334012
                },
                {
                    "name": "F5",
                    "midi": 77,
                    "time": 210.5237820000014,
                    "velocity": 0.48031496062992124,
                    "duration": 0.44887800000000766
                },
                {
                    "name": "F6",
                    "midi": 89,
                    "time": 210.5237820000014,
                    "velocity": 0.5748031496062992,
                    "duration": 0.44887800000000766
                },
                {
                    "name": "D6",
                    "midi": 86,
                    "time": 210.5237820000014,
                    "velocity": 0.48031496062992124,
                    "duration": 0.44887800000000766
                },
                {
                    "name": "A6",
                    "midi": 93,
                    "time": 210.9726600000014,
                    "velocity": 0.6141732283464567,
                    "duration": 0.29925199999999563
                },
                {
                    "name": "F6",
                    "midi": 89,
                    "time": 210.9726600000014,
                    "velocity": 0.5196850393700787,
                    "duration": 0.29925199999999563
                },
                {
                    "name": "D6",
                    "midi": 86,
                    "time": 210.9726600000014,
                    "velocity": 0.5196850393700787,
                    "duration": 0.29925199999999563
                },
                {
                    "name": "A5",
                    "midi": 81,
                    "time": 210.9726600000014,
                    "velocity": 0.5196850393700787,
                    "duration": 0.29925199999999563
                },
                {
                    "name": "G6",
                    "midi": 91,
                    "time": 211.2719120000014,
                    "velocity": 0.5748031496062992,
                    "duration": 0.14962600000001203
                },
                {
                    "name": "G5",
                    "midi": 79,
                    "time": 211.2719120000014,
                    "velocity": 0.4881889763779528,
                    "duration": 0.14962600000001203
                },
                {
                    "name": "A5",
                    "midi": 81,
                    "time": 211.42153800000142,
                    "velocity": 0.4881889763779528,
                    "duration": 0.44887800000000766
                },
                {
                    "name": "F5",
                    "midi": 77,
                    "time": 211.42153800000142,
                    "velocity": 0.4881889763779528,
                    "duration": 0.44887800000000766
                },
                {
                    "name": "C6",
                    "midi": 84,
                    "time": 211.42153800000142,
                    "velocity": 0.4881889763779528,
                    "duration": 0.44887800000000766
                },
                {
                    "name": "F6",
                    "midi": 89,
                    "time": 211.42153800000142,
                    "velocity": 0.5826771653543307,
                    "duration": 0.44887800000000766
                },
                {
                    "name": "C6",
                    "midi": 84,
                    "time": 211.87041600000143,
                    "velocity": 0.5196850393700787,
                    "duration": 0.29925199999999563
                },
                {
                    "name": "E5",
                    "midi": 76,
                    "time": 211.87041600000143,
                    "velocity": 0.5196850393700787,
                    "duration": 0.29925199999999563
                },
                {
                    "name": "A#5",
                    "midi": 82,
                    "time": 211.87041600000143,
                    "velocity": 0.5196850393700787,
                    "duration": 0.29925199999999563
                },
                {
                    "name": "E6",
                    "midi": 88,
                    "time": 211.87041600000143,
                    "velocity": 0.6141732283464567,
                    "duration": 0.29925199999999563
                },
                {
                    "name": "F5",
                    "midi": 77,
                    "time": 212.16966800000142,
                    "velocity": 0.4881889763779528,
                    "duration": 0.14339158333334012
                },
                {
                    "name": "F6",
                    "midi": 89,
                    "time": 212.16966800000142,
                    "velocity": 0.5748031496062992,
                    "duration": 0.14339158333334012
                },
                {
                    "name": "F5",
                    "midi": 77,
                    "time": 212.31929400000143,
                    "velocity": 0.4881889763779528,
                    "duration": 0.44887800000000766
                },
                {
                    "name": "F6",
                    "midi": 89,
                    "time": 212.31929400000143,
                    "velocity": 0.5826771653543307,
                    "duration": 0.44887800000000766
                },
                {
                    "name": "C6",
                    "midi": 84,
                    "time": 212.31929400000143,
                    "velocity": 0.4881889763779528,
                    "duration": 0.44887800000000766
                },
                {
                    "name": "A5",
                    "midi": 81,
                    "time": 212.31929400000143,
                    "velocity": 0.4881889763779528,
                    "duration": 0.44887800000000766
                },
                {
                    "name": "C5",
                    "midi": 72,
                    "time": 213.06742400000144,
                    "velocity": 0.5826771653543307,
                    "duration": 0.07481300000000601
                },
                {
                    "name": "C4",
                    "midi": 60,
                    "time": 213.06742400000144,
                    "velocity": 0.4881889763779528,
                    "duration": 0.07481300000000601
                },
                {
                    "name": "C#4",
                    "midi": 61,
                    "time": 213.21705000000145,
                    "velocity": 0.5433070866141733,
                    "duration": 0.44887800000000766
                },
                {
                    "name": "A4",
                    "midi": 69,
                    "time": 213.21705000000145,
                    "velocity": 0.5433070866141733,
                    "duration": 0.44887800000000766
                },
                {
                    "name": "C#5",
                    "midi": 73,
                    "time": 213.21705000000145,
                    "velocity": 0.6456692913385826,
                    "duration": 0.44887800000000766
                },
                {
                    "name": "F5",
                    "midi": 77,
                    "time": 213.66592800000146,
                    "velocity": 0.44881889763779526,
                    "duration": 0.07481300000000601
                },
                {
                    "name": "F4",
                    "midi": 65,
                    "time": 213.66592800000146,
                    "velocity": 0.3779527559055118,
                    "duration": 0.07481300000000601
                },
                {
                    "name": "A5",
                    "midi": 81,
                    "time": 213.81555400000147,
                    "velocity": 0.47244094488188976,
                    "duration": 0.07481300000000601
                },
                {
                    "name": "A4",
                    "midi": 69,
                    "time": 213.81555400000147,
                    "velocity": 0.4015748031496063,
                    "duration": 0.07481300000000601
                },
                {
                    "name": "C#5",
                    "midi": 73,
                    "time": 213.96518000000148,
                    "velocity": 0.4251968503937008,
                    "duration": 0.07481300000000601
                },
                {
                    "name": "C#6",
                    "midi": 85,
                    "time": 213.96518000000148,
                    "velocity": 0.5039370078740157,
                    "duration": 0.07481300000000601
                },
                {
                    "name": "F6",
                    "midi": 89,
                    "time": 214.1148060000015,
                    "velocity": 0.5590551181102362,
                    "duration": 0.44887800000000766
                },
                {
                    "name": "C#6",
                    "midi": 85,
                    "time": 214.1148060000015,
                    "velocity": 0.47244094488188976,
                    "duration": 0.44887800000000766
                },
                {
                    "name": "F5",
                    "midi": 77,
                    "time": 214.1148060000015,
                    "velocity": 0.47244094488188976,
                    "duration": 0.44887800000000766
                },
                {
                    "name": "C#6",
                    "midi": 85,
                    "time": 214.5636840000015,
                    "velocity": 0.44881889763779526,
                    "duration": 0.29301758333332373
                },
                {
                    "name": "F#6",
                    "midi": 90,
                    "time": 214.5636840000015,
                    "velocity": 0.5354330708661418,
                    "duration": 0.29301758333332373
                },
                {
                    "name": "F#5",
                    "midi": 78,
                    "time": 214.5636840000015,
                    "velocity": 0.44881889763779526,
                    "duration": 0.29301758333332373
                },
                {
                    "name": "F#6",
                    "midi": 90,
                    "time": 214.8629360000015,
                    "velocity": 0.5118110236220472,
                    "duration": 0.14962600000001203
                },
                {
                    "name": "F#5",
                    "midi": 78,
                    "time": 214.8629360000015,
                    "velocity": 0.4330708661417323,
                    "duration": 0.14962600000001203
                },
                {
                    "name": "F#5",
                    "midi": 78,
                    "time": 215.0125620000015,
                    "velocity": 0.5196850393700787,
                    "duration": 0.44887800000000766
                },
                {
                    "name": "F#6",
                    "midi": 90,
                    "time": 215.0125620000015,
                    "velocity": 0.6141732283464567,
                    "duration": 0.44887800000000766
                },
                {
                    "name": "D6",
                    "midi": 86,
                    "time": 215.0125620000015,
                    "velocity": 0.5196850393700787,
                    "duration": 0.44887800000000766
                },
                {
                    "name": "G6",
                    "midi": 91,
                    "time": 215.46144000000152,
                    "velocity": 0.5590551181102362,
                    "duration": 0.29301758333332373
                },
                {
                    "name": "G5",
                    "midi": 79,
                    "time": 215.46144000000152,
                    "velocity": 0.4645669291338583,
                    "duration": 0.29301758333332373
                },
                {
                    "name": "D6",
                    "midi": 86,
                    "time": 215.46144000000152,
                    "velocity": 0.4645669291338583,
                    "duration": 0.29301758333332373
                },
                {
                    "name": "G5",
                    "midi": 79,
                    "time": 215.7606920000015,
                    "velocity": 0.4409448818897638,
                    "duration": 0.14339158333334012
                },
                {
                    "name": "G6",
                    "midi": 91,
                    "time": 215.7606920000015,
                    "velocity": 0.5196850393700787,
                    "duration": 0.14339158333334012
                },
                {
                    "name": "E6",
                    "midi": 88,
                    "time": 215.91031800000152,
                    "velocity": 0.48031496062992124,
                    "duration": 0.44887800000000766
                },
                {
                    "name": "G6",
                    "midi": 91,
                    "time": 215.91031800000152,
                    "velocity": 0.5748031496062992,
                    "duration": 0.44887800000000766
                },
                {
                    "name": "G5",
                    "midi": 79,
                    "time": 215.91031800000152,
                    "velocity": 0.48031496062992124,
                    "duration": 0.44887800000000766
                },
                {
                    "name": "G6",
                    "midi": 91,
                    "time": 216.35919600000153,
                    "velocity": 0.5196850393700787,
                    "duration": 0.29925199999999563
                },
                {
                    "name": "E6",
                    "midi": 88,
                    "time": 216.35919600000153,
                    "velocity": 0.5196850393700787,
                    "duration": 0.29925199999999563
                },
                {
                    "name": "B6",
                    "midi": 95,
                    "time": 216.35919600000153,
                    "velocity": 0.6141732283464567,
                    "duration": 0.29925199999999563
                },
                {
                    "name": "B5",
                    "midi": 83,
                    "time": 216.35919600000153,
                    "velocity": 0.5196850393700787,
                    "duration": 0.29925199999999563
                },
                {
                    "name": "A5",
                    "midi": 81,
                    "time": 216.65844800000153,
                    "velocity": 0.4881889763779528,
                    "duration": 0.14962600000001203
                },
                {
                    "name": "A6",
                    "midi": 93,
                    "time": 216.65844800000153,
                    "velocity": 0.5748031496062992,
                    "duration": 0.14962600000001203
                },
                {
                    "name": "G5",
                    "midi": 79,
                    "time": 216.80807400000154,
                    "velocity": 0.4881889763779528,
                    "duration": 0.44887800000000766
                },
                {
                    "name": "D6",
                    "midi": 86,
                    "time": 216.80807400000154,
                    "velocity": 0.4881889763779528,
                    "duration": 0.44887800000000766
                },
                {
                    "name": "B5",
                    "midi": 83,
                    "time": 216.80807400000154,
                    "velocity": 0.4881889763779528,
                    "duration": 0.44887800000000766
                },
                {
                    "name": "G6",
                    "midi": 91,
                    "time": 216.80807400000154,
                    "velocity": 0.5826771653543307,
                    "duration": 0.44887800000000766
                },
                {
                    "name": "D6",
                    "midi": 86,
                    "time": 217.25695200000155,
                    "velocity": 0.5196850393700787,
                    "duration": 0.29925199999999563
                },
                {
                    "name": "F#6",
                    "midi": 90,
                    "time": 217.25695200000155,
                    "velocity": 0.6141732283464567,
                    "duration": 0.29925199999999563
                },
                {
                    "name": "C6",
                    "midi": 84,
                    "time": 217.25695200000155,
                    "velocity": 0.5196850393700787,
                    "duration": 0.29925199999999563
                },
                {
                    "name": "A5",
                    "midi": 81,
                    "time": 217.25695200000155,
                    "velocity": 0.5196850393700787,
                    "duration": 0.29925199999999563
                },
                {
                    "name": "F#5",
                    "midi": 78,
                    "time": 217.25695200000155,
                    "velocity": 0.5196850393700787,
                    "duration": 0.29925199999999563
                },
                {
                    "name": "G6",
                    "midi": 91,
                    "time": 217.55620400000154,
                    "velocity": 0.5748031496062992,
                    "duration": 0.14339158333334012
                },
                {
                    "name": "G5",
                    "midi": 79,
                    "time": 217.55620400000154,
                    "velocity": 0.4881889763779528,
                    "duration": 0.14339158333334012
                },
                {
                    "name": "B5",
                    "midi": 83,
                    "time": 217.70583000000155,
                    "velocity": 0.4881889763779528,
                    "duration": 0.44887800000000766
                },
                {
                    "name": "D6",
                    "midi": 86,
                    "time": 217.70583000000155,
                    "velocity": 0.4881889763779528,
                    "duration": 0.44887800000000766
                },
                {
                    "name": "G5",
                    "midi": 79,
                    "time": 217.70583000000155,
                    "velocity": 0.4881889763779528,
                    "duration": 0.44887800000000766
                },
                {
                    "name": "G6",
                    "midi": 91,
                    "time": 217.70583000000155,
                    "velocity": 0.5826771653543307,
                    "duration": 0.44887800000000766
                },
                {
                    "name": "D5",
                    "midi": 74,
                    "time": 218.45396000000156,
                    "velocity": 0.5826771653543307,
                    "duration": 0.14962600000001203
                },
                {
                    "name": "D4",
                    "midi": 62,
                    "time": 218.45396000000156,
                    "velocity": 0.4881889763779528,
                    "duration": 0.14962600000001203
                },
                {
                    "name": "D#4",
                    "midi": 63,
                    "time": 218.60358600000157,
                    "velocity": 0.5433070866141733,
                    "duration": 0.5985039999999913
                },
                {
                    "name": "B4",
                    "midi": 71,
                    "time": 218.60358600000157,
                    "velocity": 0.5433070866141733,
                    "duration": 0.5985039999999913
                },
                {
                    "name": "D#5",
                    "midi": 75,
                    "time": 218.60358600000157,
                    "velocity": 0.6456692913385826,
                    "duration": 0.5985039999999913
                },
                {
                    "name": "G5",
                    "midi": 79,
                    "time": 219.20209000000156,
                    "velocity": 0.5433070866141733,
                    "duration": 0.07481300000000601
                },
                {
                    "name": "G4",
                    "midi": 67,
                    "time": 219.20209000000156,
                    "velocity": 0.4566929133858268,
                    "duration": 0.07481300000000601
                },
                {
                    "name": "A4",
                    "midi": 69,
                    "time": 219.35171600000157,
                    "velocity": 0.4881889763779528,
                    "duration": 0.07481300000000601
                },
                {
                    "name": "A5",
                    "midi": 81,
                    "time": 219.35171600000157,
                    "velocity": 0.5748031496062992,
                    "duration": 0.07481300000000601
                },
                {
                    "name": "D5",
                    "midi": 74,
                    "time": 219.50134200000159,
                    "velocity": 0.5118110236220472,
                    "duration": 0.7418955833333314
                },
                {
                    "name": "B5",
                    "midi": 83,
                    "time": 219.50134200000159,
                    "velocity": 0.6062992125984252,
                    "duration": 0.7418955833333314
                },
                {
                    "name": "B4",
                    "midi": 71,
                    "time": 219.50134200000159,
                    "velocity": 0.5118110236220472,
                    "duration": 0.7418955833333314
                },
                {
                    "name": "G5",
                    "midi": 79,
                    "time": 219.50134200000159,
                    "velocity": 0.5118110236220472,
                    "duration": 0.7418955833333314
                },
                {
                    "name": "D4",
                    "midi": 62,
                    "time": 220.2494720000016,
                    "velocity": 0.4881889763779528,
                    "duration": 0.14962600000001203
                },
                {
                    "name": "D5",
                    "midi": 74,
                    "time": 220.2494720000016,
                    "velocity": 0.5826771653543307,
                    "duration": 0.14962600000001203
                },
                {
                    "name": "D#5",
                    "midi": 75,
                    "time": 220.3990980000016,
                    "velocity": 0.6456692913385826,
                    "duration": 0.5985039999999913
                },
                {
                    "name": "D#4",
                    "midi": 63,
                    "time": 220.3990980000016,
                    "velocity": 0.5433070866141733,
                    "duration": 0.5985039999999913
                },
                {
                    "name": "B4",
                    "midi": 71,
                    "time": 220.3990980000016,
                    "velocity": 0.5433070866141733,
                    "duration": 0.5985039999999913
                },
                {
                    "name": "G4",
                    "midi": 67,
                    "time": 220.9976020000016,
                    "velocity": 0.4566929133858268,
                    "duration": 0.07481300000000601
                },
                {
                    "name": "G5",
                    "midi": 79,
                    "time": 220.9976020000016,
                    "velocity": 0.5433070866141733,
                    "duration": 0.07481300000000601
                },
                {
                    "name": "A5",
                    "midi": 81,
                    "time": 221.1472280000016,
                    "velocity": 0.5748031496062992,
                    "duration": 0.07481300000000601
                },
                {
                    "name": "A4",
                    "midi": 69,
                    "time": 221.1472280000016,
                    "velocity": 0.4881889763779528,
                    "duration": 0.07481300000000601
                },
                {
                    "name": "G#5",
                    "midi": 80,
                    "time": 221.29685400000162,
                    "velocity": 0.5118110236220472,
                    "duration": 0.7418955833333314
                },
                {
                    "name": "B5",
                    "midi": 83,
                    "time": 221.29685400000162,
                    "velocity": 0.6062992125984252,
                    "duration": 0.7418955833333314
                },
                {
                    "name": "D5",
                    "midi": 74,
                    "time": 221.29685400000162,
                    "velocity": 0.5118110236220472,
                    "duration": 0.7418955833333314
                },
                {
                    "name": "B4",
                    "midi": 71,
                    "time": 221.29685400000162,
                    "velocity": 0.5118110236220472,
                    "duration": 0.7418955833333314
                },
                {
                    "name": "D5",
                    "midi": 74,
                    "time": 222.04498400000162,
                    "velocity": 0.5196850393700787,
                    "duration": 0.14962600000001203
                },
                {
                    "name": "D4",
                    "midi": 62,
                    "time": 222.04498400000162,
                    "velocity": 0.5196850393700787,
                    "duration": 0.14962600000001203
                },
                {
                    "name": "D#4",
                    "midi": 63,
                    "time": 222.19461000000163,
                    "velocity": 0.41732283464566927,
                    "duration": 0.22443899999998962
                },
                {
                    "name": "B4",
                    "midi": 71,
                    "time": 222.19461000000163,
                    "velocity": 0.41732283464566927,
                    "duration": 0.22443899999998962
                },
                {
                    "name": "D#5",
                    "midi": 75,
                    "time": 222.19461000000163,
                    "velocity": 0.49606299212598426,
                    "duration": 0.22443899999998962
                },
                {
                    "name": "E5",
                    "midi": 76,
                    "time": 222.41904900000162,
                    "velocity": 0.4409448818897638,
                    "duration": 0.22443899999998962
                },
                {
                    "name": "B4",
                    "midi": 71,
                    "time": 222.41904900000162,
                    "velocity": 0.3700787401574803,
                    "duration": 0.22443899999998962
                },
                {
                    "name": "E4",
                    "midi": 64,
                    "time": 222.41904900000162,
                    "velocity": 0.3700787401574803,
                    "duration": 0.22443899999998962
                },
                {
                    "name": "F4",
                    "midi": 65,
                    "time": 222.6434880000016,
                    "velocity": 0.4015748031496063,
                    "duration": 0.8884043749999933
                },
                {
                    "name": "G#4",
                    "midi": 68,
                    "time": 222.6434880000016,
                    "velocity": 0.4015748031496063,
                    "duration": 0.8884043749999933
                },
                {
                    "name": "B4",
                    "midi": 71,
                    "time": 222.6434880000016,
                    "velocity": 0.4015748031496063,
                    "duration": 0.8884043749999933
                },
                {
                    "name": "F5",
                    "midi": 77,
                    "time": 222.6434880000016,
                    "velocity": 0.48031496062992124,
                    "duration": 0.8884043749999933
                },
                {
                    "name": "D5",
                    "midi": 74,
                    "time": 222.6434880000016,
                    "velocity": 0.4015748031496063,
                    "duration": 0.8884043749999933
                },
                {
                    "name": "G#4",
                    "midi": 68,
                    "time": 223.5412440000016,
                    "velocity": 0.3543307086614173,
                    "duration": 0.8884043749999933
                },
                {
                    "name": "F4",
                    "midi": 65,
                    "time": 223.5412440000016,
                    "velocity": 0.3543307086614173,
                    "duration": 0.8884043749999933
                },
                {
                    "name": "B4",
                    "midi": 71,
                    "time": 223.5412440000016,
                    "velocity": 0.3543307086614173,
                    "duration": 0.8884043749999933
                },
                {
                    "name": "D5",
                    "midi": 74,
                    "time": 223.5412440000016,
                    "velocity": 0.4251968503937008,
                    "duration": 0.8884043749999933
                },
                {
                    "name": "G#4",
                    "midi": 68,
                    "time": 224.43900000000158,
                    "velocity": 0.33858267716535434,
                    "duration": 0.8884043749999933
                },
                {
                    "name": "F4",
                    "midi": 65,
                    "time": 224.43900000000158,
                    "velocity": 0.33858267716535434,
                    "duration": 0.8884043749999933
                },
                {
                    "name": "D4",
                    "midi": 62,
                    "time": 224.43900000000158,
                    "velocity": 0.33858267716535434,
                    "duration": 0.8884043749999933
                },
                {
                    "name": "B4",
                    "midi": 71,
                    "time": 224.43900000000158,
                    "velocity": 0.4015748031496063,
                    "duration": 0.8884043749999933
                },
                {
                    "name": "B3",
                    "midi": 59,
                    "time": 225.33675600000157,
                    "velocity": 0.31496062992125984,
                    "duration": 0.8884043749999933
                },
                {
                    "name": "G#4",
                    "midi": 68,
                    "time": 225.33675600000157,
                    "velocity": 0.3779527559055118,
                    "duration": 0.8884043749999933
                },
                {
                    "name": "D4",
                    "midi": 62,
                    "time": 225.33675600000157,
                    "velocity": 0.31496062992125984,
                    "duration": 0.8884043749999933
                },
                {
                    "name": "F4",
                    "midi": 65,
                    "time": 225.33675600000157,
                    "velocity": 0.31496062992125984,
                    "duration": 0.8884043749999933
                },
                {
                    "name": "B3",
                    "midi": 59,
                    "time": 226.23451200000156,
                    "velocity": 0.29133858267716534,
                    "duration": 0.4445139083333345
                },
                {
                    "name": "D4",
                    "midi": 62,
                    "time": 226.23451200000156,
                    "velocity": 0.3543307086614173,
                    "duration": 0.4445139083333345
                },
                {
                    "name": "B3",
                    "midi": 59,
                    "time": 226.68339000000157,
                    "velocity": 0.28346456692913385,
                    "duration": 1.6458859999999902
                },
                {
                    "name": "G#3",
                    "midi": 56,
                    "time": 226.68339000000157,
                    "velocity": 0.2283464566929134,
                    "duration": 1.6458859999999902
                },
                {
                    "name": "F4",
                    "midi": 65,
                    "time": 228.44149550000157,
                    "velocity": 0.31496062992125984,
                    "duration": 0.1496259999999836
                },
                {
                    "name": "A4",
                    "midi": 69,
                    "time": 228.46019875000155,
                    "velocity": 0.31496062992125984,
                    "duration": 0.1309227499999963
                },
                {
                    "name": "F5",
                    "midi": 77,
                    "time": 228.47890200000154,
                    "velocity": 0.4251968503937008,
                    "duration": 0.11221950000000902
                },
                {
                    "name": "F3",
                    "midi": 53,
                    "time": 228.77815400000154,
                    "velocity": 0.2125984251968504,
                    "duration": 0.07481300000000601
                },
                {
                    "name": "A3",
                    "midi": 57,
                    "time": 228.77815400000154,
                    "velocity": 0.25196850393700787,
                    "duration": 0.07481300000000601
                },
                {
                    "name": "F3",
                    "midi": 53,
                    "time": 228.92778000000155,
                    "velocity": 0.23622047244094488,
                    "duration": 0.07481300000000601
                },
                {
                    "name": "A3",
                    "midi": 57,
                    "time": 228.92778000000155,
                    "velocity": 0.2755905511811024,
                    "duration": 0.07481300000000601
                },
                {
                    "name": "A#3",
                    "midi": 58,
                    "time": 229.07740600000156,
                    "velocity": 0.2440944881889764,
                    "duration": 0.07481300000000601
                },
                {
                    "name": "G3",
                    "midi": 55,
                    "time": 229.07740600000156,
                    "velocity": 0.2125984251968504,
                    "duration": 0.07481300000000601
                },
                {
                    "name": "A3",
                    "midi": 57,
                    "time": 229.22703200000157,
                    "velocity": 0.2125984251968504,
                    "duration": 0.07481300000000601
                },
                {
                    "name": "C4",
                    "midi": 60,
                    "time": 229.22703200000157,
                    "velocity": 0.2440944881889764,
                    "duration": 0.07481300000000601
                },
                {
                    "name": "A#3",
                    "midi": 58,
                    "time": 229.37665800000158,
                    "velocity": 0.23622047244094488,
                    "duration": 0.07481300000000601
                },
                {
                    "name": "D4",
                    "midi": 62,
                    "time": 229.37665800000158,
                    "velocity": 0.2755905511811024,
                    "duration": 0.07481300000000601
                },
                {
                    "name": "A3",
                    "midi": 57,
                    "time": 229.5262840000016,
                    "velocity": 0.2125984251968504,
                    "duration": 0.07481300000000601
                },
                {
                    "name": "C4",
                    "midi": 60,
                    "time": 229.5262840000016,
                    "velocity": 0.25196850393700787,
                    "duration": 0.07481300000000601
                },
                {
                    "name": "F4",
                    "midi": 65,
                    "time": 229.6385035000016,
                    "velocity": 0.31496062992125984,
                    "duration": 0.1496259999999836
                },
                {
                    "name": "A4",
                    "midi": 69,
                    "time": 229.6572067500016,
                    "velocity": 0.31496062992125984,
                    "duration": 0.1309227499999963
                },
                {
                    "name": "F5",
                    "midi": 77,
                    "time": 229.67591000000158,
                    "velocity": 0.4094488188976378,
                    "duration": 0.11221950000000902
                },
                {
                    "name": "F3",
                    "midi": 53,
                    "time": 229.8255360000016,
                    "velocity": 0.23622047244094488,
                    "duration": 0.07481300000000601
                },
                {
                    "name": "A3",
                    "midi": 57,
                    "time": 229.8255360000016,
                    "velocity": 0.2755905511811024,
                    "duration": 0.07481300000000601
                },
                {
                    "name": "A#3",
                    "midi": 58,
                    "time": 229.9751620000016,
                    "velocity": 0.2440944881889764,
                    "duration": 0.07481300000000601
                },
                {
                    "name": "G3",
                    "midi": 55,
                    "time": 229.9751620000016,
                    "velocity": 0.2125984251968504,
                    "duration": 0.07481300000000601
                },
                {
                    "name": "C4",
                    "midi": 60,
                    "time": 230.12478800000162,
                    "velocity": 0.2440944881889764,
                    "duration": 0.07481300000000601
                },
                {
                    "name": "A3",
                    "midi": 57,
                    "time": 230.12478800000162,
                    "velocity": 0.2125984251968504,
                    "duration": 0.07481300000000601
                },
                {
                    "name": "D4",
                    "midi": 62,
                    "time": 230.27441400000163,
                    "velocity": 0.2755905511811024,
                    "duration": 0.07481300000000601
                },
                {
                    "name": "A#3",
                    "midi": 58,
                    "time": 230.27441400000163,
                    "velocity": 0.23622047244094488,
                    "duration": 0.07481300000000601
                },
                {
                    "name": "C4",
                    "midi": 60,
                    "time": 230.42404000000164,
                    "velocity": 0.25196850393700787,
                    "duration": 0.07481300000000601
                },
                {
                    "name": "A3",
                    "midi": 57,
                    "time": 230.42404000000164,
                    "velocity": 0.2125984251968504,
                    "duration": 0.07481300000000601
                },
                {
                    "name": "A#3",
                    "midi": 58,
                    "time": 230.57366600000165,
                    "velocity": 0.2125984251968504,
                    "duration": 0.07481300000000601
                },
                {
                    "name": "D4",
                    "midi": 62,
                    "time": 230.57366600000165,
                    "velocity": 0.2440944881889764,
                    "duration": 0.07481300000000601
                },
                {
                    "name": "E4",
                    "midi": 64,
                    "time": 230.72329200000166,
                    "velocity": 0.2755905511811024,
                    "duration": 0.07481300000000601
                },
                {
                    "name": "C4",
                    "midi": 60,
                    "time": 230.72329200000166,
                    "velocity": 0.23622047244094488,
                    "duration": 0.07481300000000601
                },
                {
                    "name": "F4",
                    "midi": 65,
                    "time": 230.87291800000168,
                    "velocity": 0.25196850393700787,
                    "duration": 0.07481300000000601
                },
                {
                    "name": "D4",
                    "midi": 62,
                    "time": 230.87291800000168,
                    "velocity": 0.2125984251968504,
                    "duration": 0.07481300000000601
                },
                {
                    "name": "G4",
                    "midi": 67,
                    "time": 231.0225440000017,
                    "velocity": 0.2440944881889764,
                    "duration": 0.07481300000000601
                },
                {
                    "name": "E4",
                    "midi": 64,
                    "time": 231.0225440000017,
                    "velocity": 0.2125984251968504,
                    "duration": 0.07481300000000601
                },
                {
                    "name": "F4",
                    "midi": 65,
                    "time": 231.1721700000017,
                    "velocity": 0.28346456692913385,
                    "duration": 0.44264358333333576
                },
                {
                    "name": "A4",
                    "midi": 69,
                    "time": 231.1721700000017,
                    "velocity": 0.33858267716535434,
                    "duration": 0.44264358333333576
                },
                {
                    "name": "C5",
                    "midi": 72,
                    "time": 231.6210480000017,
                    "velocity": 0.29133858267716534,
                    "duration": 0.29301758333332373
                },
                {
                    "name": "A4",
                    "midi": 69,
                    "time": 231.6210480000017,
                    "velocity": 0.2440944881889764,
                    "duration": 0.29925199999999563
                },
                {
                    "name": "C5",
                    "midi": 72,
                    "time": 231.9203000000017,
                    "velocity": 0.2992125984251969,
                    "duration": 0.14962600000001203
                },
                {
                    "name": "F5",
                    "midi": 77,
                    "time": 231.9203000000017,
                    "velocity": 0.3543307086614173,
                    "duration": 0.14962600000001203
                },
                {
                    "name": "A5",
                    "midi": 81,
                    "time": 232.06992600000171,
                    "velocity": 0.4094488188976378,
                    "duration": 0.44887800000000766
                },
                {
                    "name": "F5",
                    "midi": 77,
                    "time": 232.06992600000171,
                    "velocity": 0.3464566929133858,
                    "duration": 0.44887800000000766
                },
                {
                    "name": "A4",
                    "midi": 69,
                    "time": 232.51880400000172,
                    "velocity": 0.2992125984251969,
                    "duration": 0.44887800000000766
                },
                {
                    "name": "F4",
                    "midi": 65,
                    "time": 232.51880400000172,
                    "velocity": 0.25196850393700787,
                    "duration": 0.44887800000000766
                },
                {
                    "name": "F5",
                    "midi": 77,
                    "time": 233.41656000000174,
                    "velocity": 0.3779527559055118,
                    "duration": 0.44887799999997924
                },
                {
                    "name": "A5",
                    "midi": 81,
                    "time": 233.41656000000174,
                    "velocity": 0.44881889763779526,
                    "duration": 0.44887799999997924
                },
                {
                    "name": "C#5",
                    "midi": 73,
                    "time": 233.82803150000174,
                    "velocity": 0.41732283464566927,
                    "duration": 0.1496259999999836
                },
                {
                    "name": "A5",
                    "midi": 81,
                    "time": 233.84673475000173,
                    "velocity": 0.44881889763779526,
                    "duration": 0.1309227499999963
                },
                {
                    "name": "C#6",
                    "midi": 85,
                    "time": 233.86543800000172,
                    "velocity": 0.48031496062992124,
                    "duration": 0.11221950000000902
                },
                {
                    "name": "A3",
                    "midi": 57,
                    "time": 234.1646900000017,
                    "velocity": 0.2125984251968504,
                    "duration": 0.07481300000000601
                },
                {
                    "name": "C#4",
                    "midi": 61,
                    "time": 234.1646900000017,
                    "velocity": 0.25196850393700787,
                    "duration": 0.07481300000000601
                },
                {
                    "name": "A3",
                    "midi": 57,
                    "time": 234.31431600000172,
                    "velocity": 0.23622047244094488,
                    "duration": 0.07481300000000601
                },
                {
                    "name": "C#4",
                    "midi": 61,
                    "time": 234.31431600000172,
                    "velocity": 0.2755905511811024,
                    "duration": 0.07481300000000601
                },
                {
                    "name": "B3",
                    "midi": 59,
                    "time": 234.46394200000174,
                    "velocity": 0.2125984251968504,
                    "duration": 0.07481300000000601
                },
                {
                    "name": "D4",
                    "midi": 62,
                    "time": 234.46394200000174,
                    "velocity": 0.2440944881889764,
                    "duration": 0.07481300000000601
                },
                {
                    "name": "E4",
                    "midi": 64,
                    "time": 234.61356800000175,
                    "velocity": 0.2440944881889764,
                    "duration": 0.07481300000000601
                },
                {
                    "name": "C#4",
                    "midi": 61,
                    "time": 234.61356800000175,
                    "velocity": 0.2125984251968504,
                    "duration": 0.07481300000000601
                },
                {
                    "name": "D4",
                    "midi": 62,
                    "time": 234.76319400000176,
                    "velocity": 0.23622047244094488,
                    "duration": 0.07481300000000601
                },
                {
                    "name": "F#4",
                    "midi": 66,
                    "time": 234.76319400000176,
                    "velocity": 0.2755905511811024,
                    "duration": 0.07481300000000601
                },
                {
                    "name": "C#4",
                    "midi": 61,
                    "time": 234.91282000000177,
                    "velocity": 0.2125984251968504,
                    "duration": 0.07481300000000601
                },
                {
                    "name": "E4",
                    "midi": 64,
                    "time": 234.91282000000177,
                    "velocity": 0.25196850393700787,
                    "duration": 0.07481300000000601
                },
                {
                    "name": "A4",
                    "midi": 69,
                    "time": 235.06244600000178,
                    "velocity": 0.31496062992125984,
                    "duration": 0.11221950000000902
                },
                {
                    "name": "C#5",
                    "midi": 73,
                    "time": 235.06244600000178,
                    "velocity": 0.4094488188976378,
                    "duration": 0.11221950000000902
                },
                {
                    "name": "A3",
                    "midi": 57,
                    "time": 235.2120720000018,
                    "velocity": 0.23622047244094488,
                    "duration": 0.07481300000000601
                },
                {
                    "name": "C#4",
                    "midi": 61,
                    "time": 235.2120720000018,
                    "velocity": 0.2755905511811024,
                    "duration": 0.07481300000000601
                },
                {
                    "name": "B3",
                    "midi": 59,
                    "time": 235.3616980000018,
                    "velocity": 0.2125984251968504,
                    "duration": 0.07481300000000601
                },
                {
                    "name": "D4",
                    "midi": 62,
                    "time": 235.3616980000018,
                    "velocity": 0.2440944881889764,
                    "duration": 0.07481300000000601
                },
                {
                    "name": "C#4",
                    "midi": 61,
                    "time": 235.51132400000182,
                    "velocity": 0.2125984251968504,
                    "duration": 0.07481300000000601
                },
                {
                    "name": "E4",
                    "midi": 64,
                    "time": 235.51132400000182,
                    "velocity": 0.2440944881889764,
                    "duration": 0.07481300000000601
                },
                {
                    "name": "D4",
                    "midi": 62,
                    "time": 235.66095000000183,
                    "velocity": 0.23622047244094488,
                    "duration": 0.07481300000000601
                },
                {
                    "name": "F#4",
                    "midi": 66,
                    "time": 235.66095000000183,
                    "velocity": 0.2755905511811024,
                    "duration": 0.07481300000000601
                },
                {
                    "name": "C#4",
                    "midi": 61,
                    "time": 235.81057600000184,
                    "velocity": 0.2125984251968504,
                    "duration": 0.07481300000000601
                },
                {
                    "name": "E4",
                    "midi": 64,
                    "time": 235.81057600000184,
                    "velocity": 0.25196850393700787,
                    "duration": 0.07481300000000601
                },
                {
                    "name": "F#4",
                    "midi": 66,
                    "time": 235.96020200000186,
                    "velocity": 0.2440944881889764,
                    "duration": 0.07481300000000601
                },
                {
                    "name": "D4",
                    "midi": 62,
                    "time": 235.96020200000186,
                    "velocity": 0.2125984251968504,
                    "duration": 0.07481300000000601
                },
                {
                    "name": "E4",
                    "midi": 64,
                    "time": 236.10982800000187,
                    "velocity": 0.23622047244094488,
                    "duration": 0.07481300000000601
                },
                {
                    "name": "G#4",
                    "midi": 68,
                    "time": 236.10982800000187,
                    "velocity": 0.2755905511811024,
                    "duration": 0.07481300000000601
                },
                {
                    "name": "A4",
                    "midi": 69,
                    "time": 236.25945400000188,
                    "velocity": 0.25196850393700787,
                    "duration": 0.07481300000000601
                },
                {
                    "name": "F#4",
                    "midi": 66,
                    "time": 236.25945400000188,
                    "velocity": 0.2125984251968504,
                    "duration": 0.07481300000000601
                },
                {
                    "name": "G#4",
                    "midi": 68,
                    "time": 236.4090800000019,
                    "velocity": 0.2125984251968504,
                    "duration": 0.07481300000000601
                },
                {
                    "name": "B4",
                    "midi": 71,
                    "time": 236.4090800000019,
                    "velocity": 0.2440944881889764,
                    "duration": 0.07481300000000601
                },
                {
                    "name": "C#4",
                    "midi": 61,
                    "time": 236.5212995000019,
                    "velocity": 0.28346456692913385,
                    "duration": 0.4862845000000391
                },
                {
                    "name": "G4",
                    "midi": 67,
                    "time": 236.53376833333525,
                    "velocity": 0.28346456692913385,
                    "duration": 0.4738156666666953
                },
                {
                    "name": "A4",
                    "midi": 69,
                    "time": 236.5462371666686,
                    "velocity": 0.28346456692913385,
                    "duration": 0.46134683333335147
                },
                {
                    "name": "C#5",
                    "midi": 73,
                    "time": 236.55870600000193,
                    "velocity": 0.33858267716535434,
                    "duration": 0.44887800000000766
                },
                {
                    "name": "F#5",
                    "midi": 78,
                    "time": 237.00758400000194,
                    "velocity": 0.3543307086614173,
                    "duration": 0.29925199999999563
                },
                {
                    "name": "C#5",
                    "midi": 73,
                    "time": 237.00758400000194,
                    "velocity": 0.2440944881889764,
                    "duration": 0.29925199999999563
                },
                {
                    "name": "F#4",
                    "midi": 66,
                    "time": 237.00758400000194,
                    "velocity": 0.2440944881889764,
                    "duration": 0.29925199999999563
                },
                {
                    "name": "G4",
                    "midi": 67,
                    "time": 237.30683600000194,
                    "velocity": 0.2992125984251969,
                    "duration": 0.10598508333333712
                },
                {
                    "name": "C#5",
                    "midi": 73,
                    "time": 237.30683600000194,
                    "velocity": 0.2992125984251969,
                    "duration": 0.10598508333333712
                },
                {
                    "name": "G5",
                    "midi": 79,
                    "time": 237.30683600000194,
                    "velocity": 0.4015748031496063,
                    "duration": 0.10598508333333712
                },
                {
                    "name": "C#5",
                    "midi": 73,
                    "time": 237.41905550000195,
                    "velocity": 0.3464566929133858,
                    "duration": 0.4800500833333672
                },
                {
                    "name": "G5",
                    "midi": 79,
                    "time": 237.4315243333353,
                    "velocity": 0.3464566929133858,
                    "duration": 0.4738156666666953
                },
                {
                    "name": "A5",
                    "midi": 81,
                    "time": 237.44399316666863,
                    "velocity": 0.3464566929133858,
                    "duration": 0.45511241666667956
                },
                {
                    "name": "C#6",
                    "midi": 85,
                    "time": 237.45646200000198,
                    "velocity": 0.4094488188976378,
                    "duration": 0.44264358333333576
                },
                {
                    "name": "G5",
                    "midi": 79,
                    "time": 237.90534000000198,
                    "velocity": 0.25196850393700787,
                    "duration": 0.44887800000000766
                },
                {
                    "name": "A5",
                    "midi": 81,
                    "time": 237.90534000000198,
                    "velocity": 0.2992125984251969,
                    "duration": 0.44887800000000766
                },
                {
                    "name": "A4",
                    "midi": 69,
                    "time": 237.90534000000198,
                    "velocity": 0.25196850393700787,
                    "duration": 0.44887800000000766
                },
                {
                    "name": "C#5",
                    "midi": 73,
                    "time": 237.90534000000198,
                    "velocity": 0.25196850393700787,
                    "duration": 0.44887800000000766
                },
                {
                    "name": "A4",
                    "midi": 69,
                    "time": 238.803096000002,
                    "velocity": 0.3779527559055118,
                    "duration": 0.4488780000000361
                },
                {
                    "name": "C#5",
                    "midi": 73,
                    "time": 238.803096000002,
                    "velocity": 0.3779527559055118,
                    "duration": 0.4488780000000361
                },
                {
                    "name": "A5",
                    "midi": 81,
                    "time": 238.803096000002,
                    "velocity": 0.44881889763779526,
                    "duration": 0.4488780000000361
                },
                {
                    "name": "G5",
                    "midi": 79,
                    "time": 238.803096000002,
                    "velocity": 0.3779527559055118,
                    "duration": 0.4488780000000361
                },
                {
                    "name": "D5",
                    "midi": 74,
                    "time": 239.214567500002,
                    "velocity": 0.36220472440944884,
                    "duration": 0.14962600000004045
                },
                {
                    "name": "F#5",
                    "midi": 78,
                    "time": 239.22703633333535,
                    "velocity": 0.36220472440944884,
                    "duration": 0.13715716666669664
                },
                {
                    "name": "A5",
                    "midi": 81,
                    "time": 239.2395051666687,
                    "velocity": 0.36220472440944884,
                    "duration": 0.12468833333335283
                },
                {
                    "name": "D6",
                    "midi": 86,
                    "time": 239.25197400000204,
                    "velocity": 0.5039370078740157,
                    "duration": 0.11221950000000902
                },
                {
                    "name": "D4",
                    "midi": 62,
                    "time": 239.55122600000203,
                    "velocity": 0.2125984251968504,
                    "duration": 0.07481300000000601
                },
                {
                    "name": "F#4",
                    "midi": 66,
                    "time": 239.55122600000203,
                    "velocity": 0.25196850393700787,
                    "duration": 0.07481300000000601
                },
                {
                    "name": "F#4",
                    "midi": 66,
                    "time": 239.70085200000204,
                    "velocity": 0.2755905511811024,
                    "duration": 0.07481300000000601
                },
                {
                    "name": "D4",
                    "midi": 62,
                    "time": 239.70085200000204,
                    "velocity": 0.23622047244094488,
                    "duration": 0.07481300000000601
                },
                {
                    "name": "G4",
                    "midi": 67,
                    "time": 239.85047800000206,
                    "velocity": 0.2440944881889764,
                    "duration": 0.07481300000000601
                },
                {
                    "name": "E4",
                    "midi": 64,
                    "time": 239.85047800000206,
                    "velocity": 0.2125984251968504,
                    "duration": 0.07481300000000601
                },
                {
                    "name": "F#4",
                    "midi": 66,
                    "time": 240.00010400000207,
                    "velocity": 0.2125984251968504,
                    "duration": 0.07481300000000601
                },
                {
                    "name": "A4",
                    "midi": 69,
                    "time": 240.00010400000207,
                    "velocity": 0.2440944881889764,
                    "duration": 0.07481300000000601
                },
                {
                    "name": "B4",
                    "midi": 71,
                    "time": 240.14973000000208,
                    "velocity": 0.2755905511811024,
                    "duration": 0.07481300000000601
                },
                {
                    "name": "G4",
                    "midi": 67,
                    "time": 240.14973000000208,
                    "velocity": 0.23622047244094488,
                    "duration": 0.07481300000000601
                },
                {
                    "name": "A4",
                    "midi": 69,
                    "time": 240.2993560000021,
                    "velocity": 0.25196850393700787,
                    "duration": 0.07481300000000601
                },
                {
                    "name": "F#4",
                    "midi": 66,
                    "time": 240.2993560000021,
                    "velocity": 0.2125984251968504,
                    "duration": 0.07481300000000601
                },
                {
                    "name": "D5",
                    "midi": 74,
                    "time": 240.4115755000021,
                    "velocity": 0.3937007874015748,
                    "duration": 0.1496259999999836
                },
                {
                    "name": "F#5",
                    "midi": 78,
                    "time": 240.4302787500021,
                    "velocity": 0.3937007874015748,
                    "duration": 0.1309227499999963
                },
                {
                    "name": "D6",
                    "midi": 86,
                    "time": 240.44898200000208,
                    "velocity": 0.5039370078740157,
                    "duration": 0.11221950000000902
                },
                {
                    "name": "D4",
                    "midi": 62,
                    "time": 240.5986080000021,
                    "velocity": 0.23622047244094488,
                    "duration": 0.07481300000000601
                },
                {
                    "name": "F#4",
                    "midi": 66,
                    "time": 240.5986080000021,
                    "velocity": 0.2755905511811024,
                    "duration": 0.07481300000000601
                },
                {
                    "name": "G4",
                    "midi": 67,
                    "time": 240.7482340000021,
                    "velocity": 0.2440944881889764,
                    "duration": 0.07481300000000601
                },
                {
                    "name": "E4",
                    "midi": 64,
                    "time": 240.7482340000021,
                    "velocity": 0.2125984251968504,
                    "duration": 0.07481300000000601
                },
                {
                    "name": "F#4",
                    "midi": 66,
                    "time": 240.8978600000021,
                    "velocity": 0.2204724409448819,
                    "duration": 0.07481300000000601
                },
                {
                    "name": "A4",
                    "midi": 69,
                    "time": 240.8978600000021,
                    "velocity": 0.25196850393700787,
                    "duration": 0.07481300000000601
                },
                {
                    "name": "G4",
                    "midi": 67,
                    "time": 241.04748600000212,
                    "velocity": 0.25196850393700787,
                    "duration": 0.07481300000000601
                },
                {
                    "name": "B4",
                    "midi": 71,
                    "time": 241.04748600000212,
                    "velocity": 0.29133858267716534,
                    "duration": 0.07481300000000601
                },
                {
                    "name": "A4",
                    "midi": 69,
                    "time": 241.19711200000214,
                    "velocity": 0.2755905511811024,
                    "duration": 0.07481300000000601
                },
                {
                    "name": "F#4",
                    "midi": 66,
                    "time": 241.19711200000214,
                    "velocity": 0.2283464566929134,
                    "duration": 0.07481300000000601
                },
                {
                    "name": "G4",
                    "midi": 67,
                    "time": 241.34673800000215,
                    "velocity": 0.23622047244094488,
                    "duration": 0.07481300000000601
                },
                {
                    "name": "B4",
                    "midi": 71,
                    "time": 241.34673800000215,
                    "velocity": 0.2755905511811024,
                    "duration": 0.07481300000000601
                },
                {
                    "name": "A4",
                    "midi": 69,
                    "time": 241.49636400000216,
                    "velocity": 0.2677165354330709,
                    "duration": 0.07481300000000601
                },
                {
                    "name": "C#5",
                    "midi": 73,
                    "time": 241.49636400000216,
                    "velocity": 0.31496062992125984,
                    "duration": 0.07481300000000601
                },
                {
                    "name": "D5",
                    "midi": 74,
                    "time": 241.64599000000217,
                    "velocity": 0.2992125984251969,
                    "duration": 0.07481300000000601
                },
                {
                    "name": "B4",
                    "midi": 71,
                    "time": 241.64599000000217,
                    "velocity": 0.25196850393700787,
                    "duration": 0.07481300000000601
                },
                {
                    "name": "E5",
                    "midi": 76,
                    "time": 241.79561600000218,
                    "velocity": 0.29133858267716534,
                    "duration": 0.07481300000000601
                },
                {
                    "name": "C#5",
                    "midi": 73,
                    "time": 241.79561600000218,
                    "velocity": 0.25196850393700787,
                    "duration": 0.07481300000000601
                },
                {
                    "name": "A5",
                    "midi": 81,
                    "time": 241.9452420000022,
                    "velocity": 0.41732283464566927,
                    "duration": 0.44887800000000766
                },
                {
                    "name": "F5",
                    "midi": 77,
                    "time": 241.9452420000022,
                    "velocity": 0.2992125984251969,
                    "duration": 0.44264358333333576
                },
                {
                    "name": "A4",
                    "midi": 69,
                    "time": 241.9452420000022,
                    "velocity": 0.2992125984251969,
                    "duration": 0.44887800000000766
                },
                {
                    "name": "D5",
                    "midi": 74,
                    "time": 242.3941200000022,
                    "velocity": 0.3464566929133858,
                    "duration": 0.29925199999999563
                },
                {
                    "name": "F5",
                    "midi": 77,
                    "time": 242.3941200000022,
                    "velocity": 0.3464566929133858,
                    "duration": 0.29925199999999563
                },
                {
                    "name": "D6",
                    "midi": 86,
                    "time": 242.3941200000022,
                    "velocity": 0.4094488188976378,
                    "duration": 0.29925199999999563
                },
                {
                    "name": "A5",
                    "midi": 81,
                    "time": 242.6933720000022,
                    "velocity": 0.41732283464566927,
                    "duration": 0.14339158333334012
                },
                {
                    "name": "E5",
                    "midi": 76,
                    "time": 242.6933720000022,
                    "velocity": 0.41732283464566927,
                    "duration": 0.14962600000001203
                },
                {
                    "name": "E6",
                    "midi": 88,
                    "time": 242.6933720000022,
                    "velocity": 0.49606299212598426,
                    "duration": 0.14962600000001203
                },
                {
                    "name": "A5",
                    "midi": 81,
                    "time": 242.8429980000022,
                    "velocity": 0.4566929133858268,
                    "duration": 0.44887800000000766
                },
                {
                    "name": "A6",
                    "midi": 93,
                    "time": 242.8429980000022,
                    "velocity": 0.5433070866141733,
                    "duration": 0.44887800000000766
                },
                {
                    "name": "F6",
                    "midi": 89,
                    "time": 242.8429980000022,
                    "velocity": 0.4566929133858268,
                    "duration": 0.44887800000000766
                },
                {
                    "name": "D6",
                    "midi": 86,
                    "time": 243.29187600000222,
                    "velocity": 0.4015748031496063,
                    "duration": 0.29925199999999563
                },
                {
                    "name": "F5",
                    "midi": 77,
                    "time": 243.29187600000222,
                    "velocity": 0.4015748031496063,
                    "duration": 0.29925199999999563
                },
                {
                    "name": "F6",
                    "midi": 89,
                    "time": 243.29187600000222,
                    "velocity": 0.47244094488188976,
                    "duration": 0.29925199999999563
                },
                {
                    "name": "A5",
                    "midi": 81,
                    "time": 243.59112800000221,
                    "velocity": 0.3779527559055118,
                    "duration": 0.11221950000000902
                },
                {
                    "name": "A6",
                    "midi": 93,
                    "time": 243.59112800000221,
                    "velocity": 0.44881889763779526,
                    "duration": 0.11221950000000902
                },
                {
                    "name": "F6",
                    "midi": 89,
                    "time": 243.59112800000221,
                    "velocity": 0.3779527559055118,
                    "duration": 0.11221950000000902
                },
                {
                    "name": "A#5",
                    "midi": 82,
                    "time": 243.70334750000222,
                    "velocity": 0.4330708661417323,
                    "duration": 0.14962600000004045
                },
                {
                    "name": "E6",
                    "midi": 88,
                    "time": 243.71581633333557,
                    "velocity": 0.4330708661417323,
                    "duration": 0.13715716666669664
                },
                {
                    "name": "G6",
                    "midi": 91,
                    "time": 243.7282851666689,
                    "velocity": 0.4330708661417323,
                    "duration": 0.12468833333335283
                },
                {
                    "name": "C7",
                    "midi": 96,
                    "time": 243.74075400000225,
                    "velocity": 0.6062992125984252,
                    "duration": 0.11221950000000902
                },
                {
                    "name": "C4",
                    "midi": 60,
                    "time": 244.04000600000225,
                    "velocity": 0.2283464566929134,
                    "duration": 0.07481300000000601
                },
                {
                    "name": "E4",
                    "midi": 64,
                    "time": 244.04000600000225,
                    "velocity": 0.2755905511811024,
                    "duration": 0.07481300000000601
                },
                {
                    "name": "E4",
                    "midi": 64,
                    "time": 244.18963200000226,
                    "velocity": 0.2992125984251969,
                    "duration": 0.07481300000000601
                },
                {
                    "name": "C4",
                    "midi": 60,
                    "time": 244.18963200000226,
                    "velocity": 0.25984251968503935,
                    "duration": 0.07481300000000601
                },
                {
                    "name": "F4",
                    "midi": 65,
                    "time": 244.33925800000227,
                    "velocity": 0.2677165354330709,
                    "duration": 0.07481300000000601
                },
                {
                    "name": "D4",
                    "midi": 62,
                    "time": 244.33925800000227,
                    "velocity": 0.2283464566929134,
                    "duration": 0.07481300000000601
                },
                {
                    "name": "E4",
                    "midi": 64,
                    "time": 244.4888840000023,
                    "velocity": 0.2283464566929134,
                    "duration": 0.07481300000000601
                },
                {
                    "name": "G4",
                    "midi": 67,
                    "time": 244.4888840000023,
                    "velocity": 0.2677165354330709,
                    "duration": 0.07481300000000601
                },
                {
                    "name": "A4",
                    "midi": 69,
                    "time": 244.6385100000023,
                    "velocity": 0.2992125984251969,
                    "duration": 0.07481300000000601
                },
                {
                    "name": "F4",
                    "midi": 65,
                    "time": 244.6385100000023,
                    "velocity": 0.25984251968503935,
                    "duration": 0.07481300000000601
                },
                {
                    "name": "G4",
                    "midi": 67,
                    "time": 244.7881360000023,
                    "velocity": 0.2755905511811024,
                    "duration": 0.07481300000000601
                },
                {
                    "name": "E4",
                    "midi": 64,
                    "time": 244.7881360000023,
                    "velocity": 0.2283464566929134,
                    "duration": 0.07481300000000601
                },
                {
                    "name": "C5",
                    "midi": 72,
                    "time": 244.90035550000232,
                    "velocity": 0.3937007874015748,
                    "duration": 0.14962600000004045
                },
                {
                    "name": "E5",
                    "midi": 76,
                    "time": 244.91282433333566,
                    "velocity": 0.3937007874015748,
                    "duration": 0.13715716666669664
                },
                {
                    "name": "A#5",
                    "midi": 82,
                    "time": 244.925293166669,
                    "velocity": 0.3937007874015748,
                    "duration": 0.12468833333335283
                },
                {
                    "name": "C6",
                    "midi": 84,
                    "time": 244.93776200000235,
                    "velocity": 0.5118110236220472,
                    "duration": 0.11221950000000902
                },
                {
                    "name": "E4",
                    "midi": 64,
                    "time": 245.08738800000236,
                    "velocity": 0.2992125984251969,
                    "duration": 0.07481300000000601
                },
                {
                    "name": "C4",
                    "midi": 60,
                    "time": 245.08738800000236,
                    "velocity": 0.25984251968503935,
                    "duration": 0.07481300000000601
                },
                {
                    "name": "D4",
                    "midi": 62,
                    "time": 245.23701400000238,
                    "velocity": 0.2283464566929134,
                    "duration": 0.07481300000000601
                },
                {
                    "name": "F4",
                    "midi": 65,
                    "time": 245.23701400000238,
                    "velocity": 0.2677165354330709,
                    "duration": 0.07481300000000601
                },
                {
                    "name": "E4",
                    "midi": 64,
                    "time": 245.3866400000024,
                    "velocity": 0.23622047244094488,
                    "duration": 0.07481300000000601
                },
                {
                    "name": "G4",
                    "midi": 67,
                    "time": 245.3866400000024,
                    "velocity": 0.2755905511811024,
                    "duration": 0.07481300000000601
                },
                {
                    "name": "A4",
                    "midi": 69,
                    "time": 245.5362660000024,
                    "velocity": 0.31496062992125984,
                    "duration": 0.07481300000000601
                },
                {
                    "name": "F4",
                    "midi": 65,
                    "time": 245.5362660000024,
                    "velocity": 0.2755905511811024,
                    "duration": 0.07481300000000601
                },
                {
                    "name": "E4",
                    "midi": 64,
                    "time": 245.6858920000024,
                    "velocity": 0.2440944881889764,
                    "duration": 0.07481300000000601
                },
                {
                    "name": "G4",
                    "midi": 67,
                    "time": 245.6858920000024,
                    "velocity": 0.2992125984251969,
                    "duration": 0.07481300000000601
                },
                {
                    "name": "F4",
                    "midi": 65,
                    "time": 245.83551800000242,
                    "velocity": 0.25984251968503935,
                    "duration": 0.07481300000000601
                },
                {
                    "name": "A4",
                    "midi": 69,
                    "time": 245.83551800000242,
                    "velocity": 0.2992125984251969,
                    "duration": 0.07481300000000601
                },
                {
                    "name": "G4",
                    "midi": 67,
                    "time": 245.98514400000244,
                    "velocity": 0.29133858267716534,
                    "duration": 0.07481300000000601
                },
                {
                    "name": "A#4",
                    "midi": 70,
                    "time": 245.98514400000244,
                    "velocity": 0.3464566929133858,
                    "duration": 0.07481300000000601
                },
                {
                    "name": "C5",
                    "midi": 72,
                    "time": 246.13477000000245,
                    "velocity": 0.3228346456692913,
                    "duration": 0.07481300000000601
                },
                {
                    "name": "A4",
                    "midi": 69,
                    "time": 246.13477000000245,
                    "velocity": 0.2755905511811024,
                    "duration": 0.07481300000000601
                },
                {
                    "name": "A#4",
                    "midi": 70,
                    "time": 246.28439600000246,
                    "velocity": 0.2755905511811024,
                    "duration": 0.07481300000000601
                },
                {
                    "name": "D5",
                    "midi": 74,
                    "time": 246.28439600000246,
                    "velocity": 0.31496062992125984,
                    "duration": 0.07481300000000601
                },
                {
                    "name": "E5",
                    "midi": 76,
                    "time": 246.39661550000247,
                    "velocity": 0.3228346456692913,
                    "duration": 0.4862844999999538
                },
                {
                    "name": "A#5",
                    "midi": 82,
                    "time": 246.41531875000246,
                    "velocity": 0.3228346456692913,
                    "duration": 0.44887799999997924
                },
                {
                    "name": "E6",
                    "midi": 88,
                    "time": 246.43402200000244,
                    "velocity": 0.4566929133858268,
                    "duration": 0.44887799999997924
                },
                {
                    "name": "F#5",
                    "midi": 78,
                    "time": 246.88290000000242,
                    "velocity": 0.3779527559055118,
                    "duration": 0.29925199999999563
                },
                {
                    "name": "F#6",
                    "midi": 90,
                    "time": 246.88290000000242,
                    "velocity": 0.44881889763779526,
                    "duration": 0.29925199999999563
                },
                {
                    "name": "A#5",
                    "midi": 82,
                    "time": 246.88290000000242,
                    "velocity": 0.3779527559055118,
                    "duration": 0.29925199999999563
                },
                {
                    "name": "G5",
                    "midi": 79,
                    "time": 247.18215200000242,
                    "velocity": 0.4566929133858268,
                    "duration": 0.11221950000000902
                },
                {
                    "name": "A#5",
                    "midi": 82,
                    "time": 247.18215200000242,
                    "velocity": 0.4566929133858268,
                    "duration": 0.11221950000000902
                },
                {
                    "name": "G6",
                    "midi": 91,
                    "time": 247.18215200000242,
                    "velocity": 0.5433070866141733,
                    "duration": 0.11221950000000902
                },
                {
                    "name": "E6",
                    "midi": 88,
                    "time": 247.29437150000243,
                    "velocity": 0.49606299212598426,
                    "duration": 0.46758124999996653
                },
                {
                    "name": "A#6",
                    "midi": 94,
                    "time": 247.31307475000241,
                    "velocity": 0.49606299212598426,
                    "duration": 0.44887799999997924
                },
                {
                    "name": "E7",
                    "midi": 100,
                    "time": 247.3317780000024,
                    "velocity": 0.5905511811023622,
                    "duration": 0.44887799999997924
                },
                {
                    "name": "A#5",
                    "midi": 82,
                    "time": 247.78065600000238,
                    "velocity": 0.4409448818897638,
                    "duration": 0.29925199999999563
                },
                {
                    "name": "E6",
                    "midi": 88,
                    "time": 247.78065600000238,
                    "velocity": 0.4409448818897638,
                    "duration": 0.29925199999999563
                },
                {
                    "name": "A#6",
                    "midi": 94,
                    "time": 247.78065600000238,
                    "velocity": 0.5196850393700787,
                    "duration": 0.29925199999999563
                },
                {
                    "name": "E7",
                    "midi": 100,
                    "time": 248.07990800000238,
                    "velocity": 0.4881889763779528,
                    "duration": 0.11221950000000902
                },
                {
                    "name": "E6",
                    "midi": 88,
                    "time": 248.07990800000238,
                    "velocity": 0.4094488188976378,
                    "duration": 0.11221950000000902
                },
                {
                    "name": "A#6",
                    "midi": 94,
                    "time": 248.07990800000238,
                    "velocity": 0.4094488188976378,
                    "duration": 0.11221950000000902
                },
                {
                    "name": "G6",
                    "midi": 91,
                    "time": 248.19212750000239,
                    "velocity": 0.6141732283464567,
                    "duration": 0.1496259999999836
                },
                {
                    "name": "A#6",
                    "midi": 94,
                    "time": 248.21083075000237,
                    "velocity": 0.6141732283464567,
                    "duration": 0.1309227499999963
                },
                {
                    "name": "G7",
                    "midi": 103,
                    "time": 248.22953400000236,
                    "velocity": 0.7322834645669292,
                    "duration": 0.11221950000000902
                },
                {
                    "name": "A#4",
                    "midi": 70,
                    "time": 248.52878600000236,
                    "velocity": 0.4251968503937008,
                    "duration": 0.07481300000000601
                },
                {
                    "name": "G4",
                    "midi": 67,
                    "time": 248.52878600000236,
                    "velocity": 0.3543307086614173,
                    "duration": 0.07481300000000601
                },
                {
                    "name": "G4",
                    "midi": 67,
                    "time": 248.67841200000237,
                    "velocity": 0.4015748031496063,
                    "duration": 0.07481300000000601
                },
                {
                    "name": "A#4",
                    "midi": 70,
                    "time": 248.67841200000237,
                    "velocity": 0.47244094488188976,
                    "duration": 0.07481300000000601
                },
                {
                    "name": "A4",
                    "midi": 69,
                    "time": 248.82803800000238,
                    "velocity": 0.36220472440944884,
                    "duration": 0.07481300000000601
                },
                {
                    "name": "C5",
                    "midi": 72,
                    "time": 248.82803800000238,
                    "velocity": 0.4409448818897638,
                    "duration": 0.07481300000000601
                },
                {
                    "name": "A#4",
                    "midi": 70,
                    "time": 248.9776640000024,
                    "velocity": 0.3779527559055118,
                    "duration": 0.07481300000000601
                },
                {
                    "name": "D5",
                    "midi": 74,
                    "time": 248.9776640000024,
                    "velocity": 0.44881889763779526,
                    "duration": 0.07481300000000601
                },
                {
                    "name": "C5",
                    "midi": 72,
                    "time": 249.1272900000024,
                    "velocity": 0.4330708661417323,
                    "duration": 0.07481300000000601
                },
                {
                    "name": "E5",
                    "midi": 76,
                    "time": 249.1272900000024,
                    "velocity": 0.5118110236220472,
                    "duration": 0.07481300000000601
                },
                {
                    "name": "D5",
                    "midi": 74,
                    "time": 249.27691600000242,
                    "velocity": 0.48031496062992124,
                    "duration": 0.07481300000000601
                },
                {
                    "name": "A#4",
                    "midi": 70,
                    "time": 249.27691600000242,
                    "velocity": 0.4015748031496063,
                    "duration": 0.07481300000000601
                },
                {
                    "name": "G5",
                    "midi": 79,
                    "time": 249.38913550000242,
                    "velocity": 0.6141732283464567,
                    "duration": 0.1496259999999836
                },
                {
                    "name": "A#5",
                    "midi": 82,
                    "time": 249.4078387500024,
                    "velocity": 0.6141732283464567,
                    "duration": 0.1309227499999963
                },
                {
                    "name": "G6",
                    "midi": 91,
                    "time": 249.4265420000024,
                    "velocity": 0.7322834645669292,
                    "duration": 0.11221950000000902
                },
                {
                    "name": "D6",
                    "midi": 86,
                    "time": 249.5761680000024,
                    "velocity": 0.5118110236220472,
                    "duration": 0.07481300000000601
                },
                {
                    "name": "A#5",
                    "midi": 82,
                    "time": 249.5761680000024,
                    "velocity": 0.4251968503937008,
                    "duration": 0.07481300000000601
                },
                {
                    "name": "D5",
                    "midi": 74,
                    "time": 249.5761680000024,
                    "velocity": 0.4251968503937008,
                    "duration": 0.07481300000000601
                },
                {
                    "name": "C6",
                    "midi": 84,
                    "time": 249.72579400000242,
                    "velocity": 0.3937007874015748,
                    "duration": 0.07481300000000601
                },
                {
                    "name": "E5",
                    "midi": 76,
                    "time": 249.72579400000242,
                    "velocity": 0.3937007874015748,
                    "duration": 0.07481300000000601
                },
                {
                    "name": "E6",
                    "midi": 88,
                    "time": 249.72579400000242,
                    "velocity": 0.47244094488188976,
                    "duration": 0.07481300000000601
                },
                {
                    "name": "D6",
                    "midi": 86,
                    "time": 249.87542000000244,
                    "velocity": 0.4015748031496063,
                    "duration": 0.07481300000000601
                },
                {
                    "name": "F6",
                    "midi": 89,
                    "time": 249.87542000000244,
                    "velocity": 0.4881889763779528,
                    "duration": 0.07481300000000601
                },
                {
                    "name": "F5",
                    "midi": 77,
                    "time": 249.87542000000244,
                    "velocity": 0.4015748031496063,
                    "duration": 0.07481300000000601
                },
                {
                    "name": "E6",
                    "midi": 88,
                    "time": 250.02504600000245,
                    "velocity": 0.4645669291338583,
                    "duration": 0.07481300000000601
                },
                {
                    "name": "G5",
                    "midi": 79,
                    "time": 250.02504600000245,
                    "velocity": 0.4645669291338583,
                    "duration": 0.07481300000000601
                },
                {
                    "name": "G6",
                    "midi": 91,
                    "time": 250.02504600000245,
                    "velocity": 0.5590551181102362,
                    "duration": 0.07481300000000601
                },
                {
                    "name": "F6",
                    "midi": 89,
                    "time": 250.17467200000246,
                    "velocity": 0.4409448818897638,
                    "duration": 0.07481300000000601
                },
                {
                    "name": "A5",
                    "midi": 81,
                    "time": 250.17467200000246,
                    "velocity": 0.4409448818897638,
                    "duration": 0.07481300000000601
                },
                {
                    "name": "A6",
                    "midi": 93,
                    "time": 250.17467200000246,
                    "velocity": 0.5196850393700787,
                    "duration": 0.07481300000000601
                },
                {
                    "name": "A#5",
                    "midi": 82,
                    "time": 250.32429800000247,
                    "velocity": 0.4409448818897638,
                    "duration": 0.07481300000000601
                },
                {
                    "name": "A#6",
                    "midi": 94,
                    "time": 250.32429800000247,
                    "velocity": 0.5275590551181102,
                    "duration": 0.07481300000000601
                },
                {
                    "name": "G6",
                    "midi": 91,
                    "time": 250.32429800000247,
                    "velocity": 0.4409448818897638,
                    "duration": 0.07481300000000601
                },
                {
                    "name": "A#5",
                    "midi": 82,
                    "time": 250.47392400000248,
                    "velocity": 0.5039370078740157,
                    "duration": 0.07481300000000601
                },
                {
                    "name": "G6",
                    "midi": 91,
                    "time": 250.47392400000248,
                    "velocity": 0.5039370078740157,
                    "duration": 0.07481300000000601
                },
                {
                    "name": "A#6",
                    "midi": 94,
                    "time": 250.47392400000248,
                    "velocity": 0.6062992125984252,
                    "duration": 0.07481300000000601
                },
                {
                    "name": "G6",
                    "midi": 91,
                    "time": 250.6235500000025,
                    "velocity": 0.47244094488188976,
                    "duration": 0.07481300000000601
                },
                {
                    "name": "A#6",
                    "midi": 94,
                    "time": 250.6235500000025,
                    "velocity": 0.5669291338582677,
                    "duration": 0.07481300000000601
                },
                {
                    "name": "A#5",
                    "midi": 82,
                    "time": 250.6235500000025,
                    "velocity": 0.47244094488188976,
                    "duration": 0.07481300000000601
                },
                {
                    "name": "A#6",
                    "midi": 94,
                    "time": 250.7731760000025,
                    "velocity": 0.5669291338582677,
                    "duration": 0.07481300000000601
                },
                {
                    "name": "A#5",
                    "midi": 82,
                    "time": 250.7731760000025,
                    "velocity": 0.48031496062992124,
                    "duration": 0.07481300000000601
                },
                {
                    "name": "G6",
                    "midi": 91,
                    "time": 250.7731760000025,
                    "velocity": 0.48031496062992124,
                    "duration": 0.07481300000000601
                },
                {
                    "name": "B5",
                    "midi": 83,
                    "time": 250.92280200000252,
                    "velocity": 0.5984251968503937,
                    "duration": 0.5985039999999913
                },
                {
                    "name": "G6",
                    "midi": 91,
                    "time": 250.92280200000252,
                    "velocity": 0.5984251968503937,
                    "duration": 0.5985039999999913
                },
                {
                    "name": "B6",
                    "midi": 95,
                    "time": 250.92280200000252,
                    "velocity": 0.7086614173228346,
                    "duration": 0.5985039999999913
                },
                {
                    "name": "F#6",
                    "midi": 90,
                    "time": 251.5213060000025,
                    "velocity": 0.5354330708661418,
                    "duration": 0.07481300000000601
                },
                {
                    "name": "A6",
                    "midi": 93,
                    "time": 251.5213060000025,
                    "velocity": 0.6377952755905512,
                    "duration": 0.07481300000000601
                },
                {
                    "name": "A5",
                    "midi": 81,
                    "time": 251.5213060000025,
                    "velocity": 0.5354330708661418,
                    "duration": 0.07481300000000601
                },
                {
                    "name": "G5",
                    "midi": 79,
                    "time": 251.67093200000252,
                    "velocity": 0.5354330708661418,
                    "duration": 0.07481300000000601
                },
                {
                    "name": "G6",
                    "midi": 91,
                    "time": 251.67093200000252,
                    "velocity": 0.6377952755905512,
                    "duration": 0.07481300000000601
                },
                {
                    "name": "E6",
                    "midi": 88,
                    "time": 251.67093200000252,
                    "velocity": 0.5354330708661418,
                    "duration": 0.07481300000000601
                },
                {
                    "name": "F#6",
                    "midi": 90,
                    "time": 251.82055800000253,
                    "velocity": 0.5984251968503937,
                    "duration": 0.5985039999999913
                },
                {
                    "name": "A6",
                    "midi": 93,
                    "time": 251.82055800000253,
                    "velocity": 0.7086614173228346,
                    "duration": 0.5985039999999913
                },
                {
                    "name": "A5",
                    "midi": 81,
                    "time": 251.82055800000253,
                    "velocity": 0.5984251968503937,
                    "duration": 0.5985039999999913
                },
                {
                    "name": "G6",
                    "midi": 91,
                    "time": 252.41906200000253,
                    "velocity": 0.6377952755905512,
                    "duration": 0.07481300000000601
                },
                {
                    "name": "G5",
                    "midi": 79,
                    "time": 252.41906200000253,
                    "velocity": 0.5354330708661418,
                    "duration": 0.07481300000000601
                },
                {
                    "name": "E6",
                    "midi": 88,
                    "time": 252.41906200000253,
                    "velocity": 0.5354330708661418,
                    "duration": 0.07481300000000601
                },
                {
                    "name": "D#6",
                    "midi": 87,
                    "time": 252.56868800000254,
                    "velocity": 0.5354330708661418,
                    "duration": 0.07481300000000601
                },
                {
                    "name": "F#6",
                    "midi": 90,
                    "time": 252.56868800000254,
                    "velocity": 0.6377952755905512,
                    "duration": 0.07481300000000601
                },
                {
                    "name": "F#5",
                    "midi": 78,
                    "time": 252.56868800000254,
                    "velocity": 0.5354330708661418,
                    "duration": 0.07481300000000601
                },
                {
                    "name": "E6",
                    "midi": 88,
                    "time": 252.71831400000255,
                    "velocity": 0.5984251968503937,
                    "duration": 0.07481300000000601
                },
                {
                    "name": "G6",
                    "midi": 91,
                    "time": 252.71831400000255,
                    "velocity": 0.7086614173228346,
                    "duration": 0.07481300000000601
                },
                {
                    "name": "G5",
                    "midi": 79,
                    "time": 252.71831400000255,
                    "velocity": 0.5984251968503937,
                    "duration": 0.07481300000000601
                },
                {
                    "name": "D#6",
                    "midi": 87,
                    "time": 252.86794000000256,
                    "velocity": 0.5354330708661418,
                    "duration": 0.07481300000000601
                },
                {
                    "name": "F#5",
                    "midi": 78,
                    "time": 252.86794000000256,
                    "velocity": 0.5354330708661418,
                    "duration": 0.07481300000000601
                },
                {
                    "name": "F#6",
                    "midi": 90,
                    "time": 252.86794000000256,
                    "velocity": 0.6377952755905512,
                    "duration": 0.07481300000000601
                },
                {
                    "name": "E5",
                    "midi": 76,
                    "time": 253.01756600000257,
                    "velocity": 0.5354330708661418,
                    "duration": 0.07481300000000601
                },
                {
                    "name": "E6",
                    "midi": 88,
                    "time": 253.01756600000257,
                    "velocity": 0.6377952755905512,
                    "duration": 0.07481300000000601
                },
                {
                    "name": "C#6",
                    "midi": 85,
                    "time": 253.01756600000257,
                    "velocity": 0.5354330708661418,
                    "duration": 0.07481300000000601
                },
                {
                    "name": "D#6",
                    "midi": 87,
                    "time": 253.1671920000026,
                    "velocity": 0.5984251968503937,
                    "duration": 0.07481300000000601
                },
                {
                    "name": "F#6",
                    "midi": 90,
                    "time": 253.1671920000026,
                    "velocity": 0.7086614173228346,
                    "duration": 0.07481300000000601
                },
                {
                    "name": "F#5",
                    "midi": 78,
                    "time": 253.1671920000026,
                    "velocity": 0.5984251968503937,
                    "duration": 0.07481300000000601
                },
                {
                    "name": "B4",
                    "midi": 71,
                    "time": 253.46644400000258,
                    "velocity": 0.5354330708661418,
                    "duration": 0.07481300000000601
                },
                {
                    "name": "B5",
                    "midi": 83,
                    "time": 253.46644400000258,
                    "velocity": 0.6377952755905512,
                    "duration": 0.07481300000000601
                },
                {
                    "name": "C#6",
                    "midi": 85,
                    "time": 253.6160700000026,
                    "velocity": 0.5984251968503937,
                    "duration": 0.5985039999999913
                },
                {
                    "name": "C#7",
                    "midi": 97,
                    "time": 253.6160700000026,
                    "velocity": 0.7086614173228346,
                    "duration": 0.5985039999999913
                },
                {
                    "name": "A6",
                    "midi": 93,
                    "time": 253.6160700000026,
                    "velocity": 0.5984251968503937,
                    "duration": 0.5985039999999913
                },
                {
                    "name": "B6",
                    "midi": 95,
                    "time": 254.21457400000259,
                    "velocity": 0.6377952755905512,
                    "duration": 0.07481300000000601
                },
                {
                    "name": "B5",
                    "midi": 83,
                    "time": 254.21457400000259,
                    "velocity": 0.5354330708661418,
                    "duration": 0.07481300000000601
                },
                {
                    "name": "G#6",
                    "midi": 92,
                    "time": 254.21457400000259,
                    "velocity": 0.5354330708661418,
                    "duration": 0.07481300000000601
                },
                {
                    "name": "A5",
                    "midi": 81,
                    "time": 254.3642000000026,
                    "velocity": 0.5354330708661418,
                    "duration": 0.07481300000000601
                },
                {
                    "name": "F#6",
                    "midi": 90,
                    "time": 254.3642000000026,
                    "velocity": 0.5354330708661418,
                    "duration": 0.07481300000000601
                },
                {
                    "name": "A6",
                    "midi": 93,
                    "time": 254.3642000000026,
                    "velocity": 0.6377952755905512,
                    "duration": 0.07481300000000601
                },
                {
                    "name": "B6",
                    "midi": 95,
                    "time": 254.5138260000026,
                    "velocity": 0.7086614173228346,
                    "duration": 0.5985039999999913
                },
                {
                    "name": "G#6",
                    "midi": 92,
                    "time": 254.5138260000026,
                    "velocity": 0.5984251968503937,
                    "duration": 0.5985039999999913
                },
                {
                    "name": "B5",
                    "midi": 83,
                    "time": 254.5138260000026,
                    "velocity": 0.5984251968503937,
                    "duration": 0.5985039999999913
                },
                {
                    "name": "A5",
                    "midi": 81,
                    "time": 255.1123300000026,
                    "velocity": 0.5354330708661418,
                    "duration": 0.07481300000000601
                },
                {
                    "name": "A6",
                    "midi": 93,
                    "time": 255.1123300000026,
                    "velocity": 0.6377952755905512,
                    "duration": 0.07481300000000601
                },
                {
                    "name": "F#6",
                    "midi": 90,
                    "time": 255.1123300000026,
                    "velocity": 0.5354330708661418,
                    "duration": 0.07481300000000601
                },
                {
                    "name": "E6",
                    "midi": 88,
                    "time": 255.2619560000026,
                    "velocity": 0.5354330708661418,
                    "duration": 0.07481300000000601
                },
                {
                    "name": "G#5",
                    "midi": 80,
                    "time": 255.2619560000026,
                    "velocity": 0.5354330708661418,
                    "duration": 0.07481300000000601
                },
                {
                    "name": "G#6",
                    "midi": 92,
                    "time": 255.2619560000026,
                    "velocity": 0.6377952755905512,
                    "duration": 0.07481300000000601
                },
                {
                    "name": "A6",
                    "midi": 93,
                    "time": 255.41158200000262,
                    "velocity": 0.7086614173228346,
                    "duration": 0.07481300000000601
                },
                {
                    "name": "F#6",
                    "midi": 90,
                    "time": 255.41158200000262,
                    "velocity": 0.5984251968503937,
                    "duration": 0.07481300000000601
                },
                {
                    "name": "A5",
                    "midi": 81,
                    "time": 255.41158200000262,
                    "velocity": 0.5984251968503937,
                    "duration": 0.07481300000000601
                },
                {
                    "name": "E6",
                    "midi": 88,
                    "time": 255.56120800000264,
                    "velocity": 0.5354330708661418,
                    "duration": 0.07481300000000601
                },
                {
                    "name": "G#5",
                    "midi": 80,
                    "time": 255.56120800000264,
                    "velocity": 0.5354330708661418,
                    "duration": 0.07481300000000601
                },
                {
                    "name": "G#6",
                    "midi": 92,
                    "time": 255.56120800000264,
                    "velocity": 0.6377952755905512,
                    "duration": 0.07481300000000601
                },
                {
                    "name": "F#6",
                    "midi": 90,
                    "time": 255.71083400000265,
                    "velocity": 0.6377952755905512,
                    "duration": 0.07481300000000601
                },
                {
                    "name": "F#5",
                    "midi": 78,
                    "time": 255.71083400000265,
                    "velocity": 0.5354330708661418,
                    "duration": 0.07481300000000601
                },
                {
                    "name": "D#6",
                    "midi": 87,
                    "time": 255.71083400000265,
                    "velocity": 0.5354330708661418,
                    "duration": 0.07481300000000601
                },
                {
                    "name": "G#5",
                    "midi": 80,
                    "time": 255.86046000000266,
                    "velocity": 0.5984251968503937,
                    "duration": 0.07481300000000601
                },
                {
                    "name": "G#6",
                    "midi": 92,
                    "time": 255.86046000000266,
                    "velocity": 0.7086614173228346,
                    "duration": 0.07481300000000601
                },
                {
                    "name": "E6",
                    "midi": 88,
                    "time": 255.86046000000266,
                    "velocity": 0.5984251968503937,
                    "duration": 0.07481300000000601
                },
                {
                    "name": "E5",
                    "midi": 76,
                    "time": 256.1597120000027,
                    "velocity": 0.5354330708661418,
                    "duration": 0.07481300000000601
                },
                {
                    "name": "E6",
                    "midi": 88,
                    "time": 256.1597120000027,
                    "velocity": 0.6377952755905512,
                    "duration": 0.07481300000000601
                },
                {
                    "name": "B6",
                    "midi": 95,
                    "time": 256.3093380000027,
                    "velocity": 0.7637795275590551,
                    "duration": 0.07481300000000601
                },
                {
                    "name": "G#6",
                    "midi": 92,
                    "time": 256.3093380000027,
                    "velocity": 0.7637795275590551,
                    "duration": 0.07481300000000601
                },
                {
                    "name": "E6",
                    "midi": 88,
                    "time": 256.3093380000027,
                    "velocity": 0.6456692913385826,
                    "duration": 0.07481300000000601
                },
                {
                    "name": "E7",
                    "midi": 100,
                    "time": 256.3093380000027,
                    "velocity": 0.7637795275590551,
                    "duration": 0.07481300000000601
                },
                {
                    "name": "E6",
                    "midi": 88,
                    "time": 256.6085900000027,
                    "velocity": 0.6062992125984252,
                    "duration": 0.29925200000002405
                },
                {
                    "name": "B6",
                    "midi": 95,
                    "time": 256.6085900000027,
                    "velocity": 0.7165354330708661,
                    "duration": 0.29925200000002405
                },
                {
                    "name": "B5",
                    "midi": 83,
                    "time": 256.6085900000027,
                    "velocity": 0.6062992125984252,
                    "duration": 0.29925200000002405
                },
                {
                    "name": "E6",
                    "midi": 88,
                    "time": 256.90784200000274,
                    "velocity": 0.6062992125984252,
                    "duration": 0.44887799999997924
                },
                {
                    "name": "C#7",
                    "midi": 97,
                    "time": 256.90784200000274,
                    "velocity": 0.7165354330708661,
                    "duration": 0.44887799999997924
                },
                {
                    "name": "C#6",
                    "midi": 85,
                    "time": 256.90784200000274,
                    "velocity": 0.6062992125984252,
                    "duration": 0.44887799999997924
                },
                {
                    "name": "E6",
                    "midi": 88,
                    "time": 257.3567200000027,
                    "velocity": 0.5905511811023622,
                    "duration": 0.22443900000001804
                },
                {
                    "name": "A6",
                    "midi": 93,
                    "time": 257.3567200000027,
                    "velocity": 0.7007874015748031,
                    "duration": 0.22443900000001804
                },
                {
                    "name": "A5",
                    "midi": 81,
                    "time": 257.3567200000027,
                    "velocity": 0.5905511811023622,
                    "duration": 0.22443900000001804
                },
                {
                    "name": "E6",
                    "midi": 88,
                    "time": 257.58115900000274,
                    "velocity": 0.5275590551181102,
                    "duration": 0.06857858333330569
                },
                {
                    "name": "B5",
                    "midi": 83,
                    "time": 257.58115900000274,
                    "velocity": 0.5275590551181102,
                    "duration": 0.06857858333330569
                },
                {
                    "name": "B6",
                    "midi": 95,
                    "time": 257.58115900000274,
                    "velocity": 0.6220472440944882,
                    "duration": 0.06857858333330569
                },
                {
                    "name": "E6",
                    "midi": 88,
                    "time": 257.6559720000027,
                    "velocity": 0.5826771653543307,
                    "duration": 0.07481300000000601
                },
                {
                    "name": "B5",
                    "midi": 83,
                    "time": 257.6559720000027,
                    "velocity": 0.5826771653543307,
                    "duration": 0.07481300000000601
                },
                {
                    "name": "B6",
                    "midi": 95,
                    "time": 257.6559720000027,
                    "velocity": 0.6929133858267716,
                    "duration": 0.07481300000000601
                },
                {
                    "name": "B5",
                    "midi": 83,
                    "time": 257.9552240000027,
                    "velocity": 0.6377952755905512,
                    "duration": 0.29925200000002405
                },
                {
                    "name": "E5",
                    "midi": 76,
                    "time": 257.9552240000027,
                    "velocity": 0.5433070866141733,
                    "duration": 0.29925200000002405
                },
                {
                    "name": "B4",
                    "midi": 71,
                    "time": 257.9552240000027,
                    "velocity": 0.5433070866141733,
                    "duration": 0.29925200000002405
                },
                {
                    "name": "E5",
                    "midi": 76,
                    "time": 258.25447600000274,
                    "velocity": 0.5433070866141733,
                    "duration": 0.44887799999997924
                },
                {
                    "name": "C#6",
                    "midi": 85,
                    "time": 258.25447600000274,
                    "velocity": 0.6377952755905512,
                    "duration": 0.44887799999997924
                },
                {
                    "name": "C#5",
                    "midi": 73,
                    "time": 258.25447600000274,
                    "velocity": 0.5433070866141733,
                    "duration": 0.44887799999997924
                },
                {
                    "name": "A4",
                    "midi": 69,
                    "time": 258.7033540000027,
                    "velocity": 0.5275590551181102,
                    "duration": 0.21820458333331771
                },
                {
                    "name": "E5",
                    "midi": 76,
                    "time": 258.7033540000027,
                    "velocity": 0.5275590551181102,
                    "duration": 0.21820458333331771
                },
                {
                    "name": "A5",
                    "midi": 81,
                    "time": 258.7033540000027,
                    "velocity": 0.6299212598425197,
                    "duration": 0.21820458333331771
                },
                {
                    "name": "E5",
                    "midi": 76,
                    "time": 258.9277930000027,
                    "velocity": 0.47244094488188976,
                    "duration": 0.06857858333330569
                },
                {
                    "name": "B5",
                    "midi": 83,
                    "time": 258.9277930000027,
                    "velocity": 0.5590551181102362,
                    "duration": 0.06857858333330569
                },
                {
                    "name": "B4",
                    "midi": 71,
                    "time": 258.9277930000027,
                    "velocity": 0.47244094488188976,
                    "duration": 0.06857858333330569
                },
                {
                    "name": "B4",
                    "midi": 71,
                    "time": 259.00260600000263,
                    "velocity": 0.5196850393700787,
                    "duration": 0.07481300000000601
                },
                {
                    "name": "E5",
                    "midi": 76,
                    "time": 259.00260600000263,
                    "velocity": 0.5196850393700787,
                    "duration": 0.07481300000000601
                },
                {
                    "name": "B5",
                    "midi": 83,
                    "time": 259.00260600000263,
                    "velocity": 0.6220472440944882,
                    "duration": 0.07481300000000601
                },
                {
                    "name": "E5",
                    "midi": 76,
                    "time": 259.2644515000026,
                    "velocity": 0.5275590551181102,
                    "duration": 0.14962599999995518
                },
                {
                    "name": "G#5",
                    "midi": 80,
                    "time": 259.2831547500026,
                    "velocity": 0.5275590551181102,
                    "duration": 0.1309227499999679
                },
                {
                    "name": "E6",
                    "midi": 88,
                    "time": 259.3018580000026,
                    "velocity": 0.6299212598425197,
                    "duration": 0.1122194999999806
                },
                {
                    "name": "E3",
                    "midi": 52,
                    "time": 259.45148400000255,
                    "velocity": 0.5275590551181102,
                    "duration": 0.07481300000000601
                },
                {
                    "name": "E4",
                    "midi": 64,
                    "time": 259.45148400000255,
                    "velocity": 0.6220472440944882,
                    "duration": 0.07481300000000601
                },
                {
                    "name": "E5",
                    "midi": 76,
                    "time": 260.1622075000026,
                    "velocity": 0.5275590551181102,
                    "duration": 0.14962599999995518
                },
                {
                    "name": "G#5",
                    "midi": 80,
                    "time": 260.18091075000257,
                    "velocity": 0.5275590551181102,
                    "duration": 0.1309227499999679
                },
                {
                    "name": "E6",
                    "midi": 88,
                    "time": 260.19961400000255,
                    "velocity": 0.6299212598425197,
                    "duration": 0.1122194999999806
                },
                {
                    "name": "E4",
                    "midi": 64,
                    "time": 260.3492400000025,
                    "velocity": 0.6220472440944882,
                    "duration": 0.07481300000000601
                },
                {
                    "name": "E3",
                    "midi": 52,
                    "time": 260.3492400000025,
                    "velocity": 0.5275590551181102,
                    "duration": 0.07481300000000601
                },
                {
                    "name": "E5",
                    "midi": 76,
                    "time": 261.5462480000025,
                    "velocity": 0.5826771653543307,
                    "duration": 0.07481300000000601
                },
                {
                    "name": "A4",
                    "midi": 69,
                    "time": 261.6958740000025,
                    "velocity": 0.5748031496062992,
                    "duration": 0.07481300000000601
                },
                {
                    "name": "C#5",
                    "midi": 73,
                    "time": 261.6958740000025,
                    "velocity": 0.6850393700787402,
                    "duration": 0.07481300000000601
                },
                {
                    "name": "A5",
                    "midi": 81,
                    "time": 261.6958740000025,
                    "velocity": 0.6850393700787402,
                    "duration": 0.07481300000000601
                },
                {
                    "name": "C#4",
                    "midi": 61,
                    "time": 261.8455000000025,
                    "velocity": 0.36220472440944884,
                    "duration": 0.07481300000000601
                },
                {
                    "name": "E4",
                    "midi": 64,
                    "time": 261.8455000000025,
                    "velocity": 0.4330708661417323,
                    "duration": 0.07481300000000601
                },
                {
                    "name": "B3",
                    "midi": 59,
                    "time": 261.99512600000253,
                    "velocity": 0.36220472440944884,
                    "duration": 0.07481300000000601
                },
                {
                    "name": "D4",
                    "midi": 62,
                    "time": 261.99512600000253,
                    "velocity": 0.4330708661417323,
                    "duration": 0.07481300000000601
                },
                {
                    "name": "A3",
                    "midi": 57,
                    "time": 262.14475200000254,
                    "velocity": 0.4015748031496063,
                    "duration": 0.1433915833333117
                },
                {
                    "name": "C#4",
                    "midi": 61,
                    "time": 262.14475200000254,
                    "velocity": 0.47244094488188976,
                    "duration": 0.1433915833333117
                },
                {
                    "name": "C#4",
                    "midi": 61,
                    "time": 263.1921340000025,
                    "velocity": 0.36220472440944884,
                    "duration": 0.07481300000000601
                },
                {
                    "name": "E4",
                    "midi": 64,
                    "time": 263.1921340000025,
                    "velocity": 0.4330708661417323,
                    "duration": 0.07481300000000601
                },
                {
                    "name": "B3",
                    "midi": 59,
                    "time": 263.3417600000025,
                    "velocity": 0.36220472440944884,
                    "duration": 0.07481300000000601
                },
                {
                    "name": "D4",
                    "midi": 62,
                    "time": 263.3417600000025,
                    "velocity": 0.4330708661417323,
                    "duration": 0.07481300000000601
                },
                {
                    "name": "C#4",
                    "midi": 61,
                    "time": 263.49138600000254,
                    "velocity": 0.47244094488188976,
                    "duration": 0.07481300000000601
                },
                {
                    "name": "A3",
                    "midi": 57,
                    "time": 263.49138600000254,
                    "velocity": 0.4015748031496063,
                    "duration": 0.07481300000000601
                },
                {
                    "name": "A4",
                    "midi": 69,
                    "time": 264.23951600000254,
                    "velocity": 0.5826771653543307,
                    "duration": 0.07481300000000601
                },
                {
                    "name": "F5",
                    "midi": 77,
                    "time": 264.38914200000255,
                    "velocity": 0.6850393700787402,
                    "duration": 0.07481300000000601
                },
                {
                    "name": "F4",
                    "midi": 65,
                    "time": 264.38914200000255,
                    "velocity": 0.5748031496062992,
                    "duration": 0.07481300000000601
                },
                {
                    "name": "F4",
                    "midi": 65,
                    "time": 264.53876800000256,
                    "velocity": 0.36220472440944884,
                    "duration": 0.07481300000000601
                },
                {
                    "name": "A4",
                    "midi": 69,
                    "time": 264.53876800000256,
                    "velocity": 0.4330708661417323,
                    "duration": 0.07481300000000601
                },
                {
                    "name": "E4",
                    "midi": 64,
                    "time": 264.6883940000026,
                    "velocity": 0.36220472440944884,
                    "duration": 0.07481300000000601
                },
                {
                    "name": "G4",
                    "midi": 67,
                    "time": 264.6883940000026,
                    "velocity": 0.4330708661417323,
                    "duration": 0.07481300000000601
                },
                {
                    "name": "D4",
                    "midi": 62,
                    "time": 264.8380200000026,
                    "velocity": 0.4015748031496063,
                    "duration": 0.07481300000000601
                },
                {
                    "name": "F4",
                    "midi": 65,
                    "time": 264.8380200000026,
                    "velocity": 0.47244094488188976,
                    "duration": 0.07481300000000601
                },
                {
                    "name": "F4",
                    "midi": 65,
                    "time": 264.9876460000026,
                    "velocity": 0.3858267716535433,
                    "duration": 0.07481300000000601
                },
                {
                    "name": "D4",
                    "midi": 62,
                    "time": 264.9876460000026,
                    "velocity": 0.3228346456692913,
                    "duration": 0.07481300000000601
                },
                {
                    "name": "E4",
                    "midi": 64,
                    "time": 265.1372720000026,
                    "velocity": 0.3858267716535433,
                    "duration": 0.07481300000000601
                },
                {
                    "name": "A3",
                    "midi": 57,
                    "time": 265.1372720000026,
                    "velocity": 0.3228346456692913,
                    "duration": 0.07481300000000601
                },
                {
                    "name": "D4",
                    "midi": 62,
                    "time": 265.2868980000026,
                    "velocity": 0.4566929133858268,
                    "duration": 0.07481300000000601
                },
                {
                    "name": "F3",
                    "midi": 53,
                    "time": 265.2868980000026,
                    "velocity": 0.3858267716535433,
                    "duration": 0.07481300000000601
                },
                {
                    "name": "A4",
                    "midi": 69,
                    "time": 265.8854020000026,
                    "velocity": 0.4330708661417323,
                    "duration": 0.07481300000000601
                },
                {
                    "name": "F4",
                    "midi": 65,
                    "time": 265.8854020000026,
                    "velocity": 0.36220472440944884,
                    "duration": 0.07481300000000601
                },
                {
                    "name": "G4",
                    "midi": 67,
                    "time": 266.0350280000026,
                    "velocity": 0.4330708661417323,
                    "duration": 0.07481300000000601
                },
                {
                    "name": "E4",
                    "midi": 64,
                    "time": 266.0350280000026,
                    "velocity": 0.36220472440944884,
                    "duration": 0.07481300000000601
                },
                {
                    "name": "D4",
                    "midi": 62,
                    "time": 266.18465400000264,
                    "velocity": 0.4015748031496063,
                    "duration": 0.07481300000000601
                },
                {
                    "name": "F4",
                    "midi": 65,
                    "time": 266.18465400000264,
                    "velocity": 0.47244094488188976,
                    "duration": 0.07481300000000601
                },
                {
                    "name": "D4",
                    "midi": 62,
                    "time": 266.33428000000265,
                    "velocity": 0.3228346456692913,
                    "duration": 0.07481300000000601
                },
                {
                    "name": "F4",
                    "midi": 65,
                    "time": 266.33428000000265,
                    "velocity": 0.3858267716535433,
                    "duration": 0.07481300000000601
                },
                {
                    "name": "A3",
                    "midi": 57,
                    "time": 266.48390600000266,
                    "velocity": 0.3228346456692913,
                    "duration": 0.07481300000000601
                },
                {
                    "name": "E4",
                    "midi": 64,
                    "time": 266.48390600000266,
                    "velocity": 0.3858267716535433,
                    "duration": 0.07481300000000601
                },
                {
                    "name": "F3",
                    "midi": 53,
                    "time": 266.6335320000027,
                    "velocity": 0.3858267716535433,
                    "duration": 0.07481300000000601
                },
                {
                    "name": "D4",
                    "midi": 62,
                    "time": 266.6335320000027,
                    "velocity": 0.4566929133858268,
                    "duration": 0.07481300000000601
                },
                {
                    "name": "C5",
                    "midi": 72,
                    "time": 266.9327840000027,
                    "velocity": 0.5826771653543307,
                    "duration": 0.07481300000000601
                },
                {
                    "name": "A5",
                    "midi": 81,
                    "time": 267.0824100000027,
                    "velocity": 0.6850393700787402,
                    "duration": 0.07481300000000601
                },
                {
                    "name": "A4",
                    "midi": 69,
                    "time": 267.0824100000027,
                    "velocity": 0.5748031496062992,
                    "duration": 0.07481300000000601
                },
                {
                    "name": "A4",
                    "midi": 69,
                    "time": 267.2320360000027,
                    "velocity": 0.36220472440944884,
                    "duration": 0.07481300000000601
                },
                {
                    "name": "C5",
                    "midi": 72,
                    "time": 267.2320360000027,
                    "velocity": 0.4330708661417323,
                    "duration": 0.07481300000000601
                },
                {
                    "name": "G4",
                    "midi": 67,
                    "time": 267.38166200000273,
                    "velocity": 0.36220472440944884,
                    "duration": 0.07481300000000601
                },
                {
                    "name": "A#4",
                    "midi": 70,
                    "time": 267.38166200000273,
                    "velocity": 0.4330708661417323,
                    "duration": 0.07481300000000601
                },
                {
                    "name": "F4",
                    "midi": 65,
                    "time": 267.53128800000275,
                    "velocity": 0.4015748031496063,
                    "duration": 0.07481300000000601
                },
                {
                    "name": "A4",
                    "midi": 69,
                    "time": 267.53128800000275,
                    "velocity": 0.47244094488188976,
                    "duration": 0.07481300000000601
                },
                {
                    "name": "A4",
                    "midi": 69,
                    "time": 267.68091400000276,
                    "velocity": 0.3858267716535433,
                    "duration": 0.07481300000000601
                },
                {
                    "name": "F4",
                    "midi": 65,
                    "time": 267.68091400000276,
                    "velocity": 0.3228346456692913,
                    "duration": 0.07481300000000601
                },
                {
                    "name": "C4",
                    "midi": 60,
                    "time": 267.83054000000277,
                    "velocity": 0.3228346456692913,
                    "duration": 0.07481300000000601
                },
                {
                    "name": "G4",
                    "midi": 67,
                    "time": 267.83054000000277,
                    "velocity": 0.3858267716535433,
                    "duration": 0.07481300000000601
                },
                {
                    "name": "F4",
                    "midi": 65,
                    "time": 267.9801660000028,
                    "velocity": 0.4566929133858268,
                    "duration": 0.07481300000000601
                },
                {
                    "name": "A3",
                    "midi": 57,
                    "time": 267.9801660000028,
                    "velocity": 0.3858267716535433,
                    "duration": 0.07481300000000601
                },
                {
                    "name": "A4",
                    "midi": 69,
                    "time": 268.5786700000028,
                    "velocity": 0.36220472440944884,
                    "duration": 0.07481300000000601
                },
                {
                    "name": "C5",
                    "midi": 72,
                    "time": 268.5786700000028,
                    "velocity": 0.4330708661417323,
                    "duration": 0.07481300000000601
                },
                {
                    "name": "A#4",
                    "midi": 70,
                    "time": 268.7282960000028,
                    "velocity": 0.4330708661417323,
                    "duration": 0.07481300000000601
                },
                {
                    "name": "G4",
                    "midi": 67,
                    "time": 268.7282960000028,
                    "velocity": 0.36220472440944884,
                    "duration": 0.07481300000000601
                },
                {
                    "name": "F4",
                    "midi": 65,
                    "time": 268.8779220000028,
                    "velocity": 0.4015748031496063,
                    "duration": 0.07481300000000601
                },
                {
                    "name": "A4",
                    "midi": 69,
                    "time": 268.8779220000028,
                    "velocity": 0.47244094488188976,
                    "duration": 0.07481300000000601
                },
                {
                    "name": "A4",
                    "midi": 69,
                    "time": 269.0275480000028,
                    "velocity": 0.3858267716535433,
                    "duration": 0.07481300000000601
                },
                {
                    "name": "F4",
                    "midi": 65,
                    "time": 269.0275480000028,
                    "velocity": 0.3228346456692913,
                    "duration": 0.07481300000000601
                },
                {
                    "name": "C4",
                    "midi": 60,
                    "time": 269.1771740000028,
                    "velocity": 0.3228346456692913,
                    "duration": 0.07481300000000601
                },
                {
                    "name": "G4",
                    "midi": 67,
                    "time": 269.1771740000028,
                    "velocity": 0.3858267716535433,
                    "duration": 0.07481300000000601
                },
                {
                    "name": "F4",
                    "midi": 65,
                    "time": 269.32680000000283,
                    "velocity": 0.4566929133858268,
                    "duration": 0.07481300000000601
                },
                {
                    "name": "A3",
                    "midi": 57,
                    "time": 269.32680000000283,
                    "velocity": 0.3858267716535433,
                    "duration": 0.07481300000000601
                },
                {
                    "name": "F5",
                    "midi": 77,
                    "time": 269.62605200000286,
                    "velocity": 0.5826771653543307,
                    "duration": 0.07481300000000601
                },
                {
                    "name": "D6",
                    "midi": 86,
                    "time": 269.77567800000287,
                    "velocity": 0.6850393700787402,
                    "duration": 0.07481300000000601
                },
                {
                    "name": "D5",
                    "midi": 74,
                    "time": 269.77567800000287,
                    "velocity": 0.5748031496062992,
                    "duration": 0.07481300000000601
                },
                {
                    "name": "A#4",
                    "midi": 70,
                    "time": 269.9253040000029,
                    "velocity": 0.36220472440944884,
                    "duration": 0.07481300000000601
                },
                {
                    "name": "D5",
                    "midi": 74,
                    "time": 269.9253040000029,
                    "velocity": 0.4330708661417323,
                    "duration": 0.07481300000000601
                },
                {
                    "name": "F4",
                    "midi": 65,
                    "time": 270.0749300000029,
                    "velocity": 0.36220472440944884,
                    "duration": 0.07481300000000601
                },
                {
                    "name": "C5",
                    "midi": 72,
                    "time": 270.0749300000029,
                    "velocity": 0.4330708661417323,
                    "duration": 0.07481300000000601
                },
                {
                    "name": "A#4",
                    "midi": 70,
                    "time": 270.2245560000029,
                    "velocity": 0.47244094488188976,
                    "duration": 0.07481300000000601
                },
                {
                    "name": "D4",
                    "midi": 62,
                    "time": 270.2245560000029,
                    "velocity": 0.4015748031496063,
                    "duration": 0.07481300000000601
                },
                {
                    "name": "D5",
                    "midi": 74,
                    "time": 270.9726860000029,
                    "velocity": 0.5039370078740157,
                    "duration": 0.07481300000000601
                },
                {
                    "name": "B4",
                    "midi": 71,
                    "time": 271.1223120000029,
                    "velocity": 0.4881889763779528,
                    "duration": 0.07481300000000601
                },
                {
                    "name": "B5",
                    "midi": 83,
                    "time": 271.1223120000029,
                    "velocity": 0.5748031496062992,
                    "duration": 0.07481300000000601
                },
                {
                    "name": "G#4",
                    "midi": 68,
                    "time": 271.27193800000293,
                    "velocity": 0.36220472440944884,
                    "duration": 0.07481300000000601
                },
                {
                    "name": "B4",
                    "midi": 71,
                    "time": 271.27193800000293,
                    "velocity": 0.4330708661417323,
                    "duration": 0.07481300000000601
                },
                {
                    "name": "A4",
                    "midi": 69,
                    "time": 271.42156400000295,
                    "velocity": 0.4330708661417323,
                    "duration": 0.07481300000000601
                },
                {
                    "name": "F#4",
                    "midi": 66,
                    "time": 271.42156400000295,
                    "velocity": 0.36220472440944884,
                    "duration": 0.07481300000000601
                },
                {
                    "name": "F4",
                    "midi": 65,
                    "time": 271.57119000000296,
                    "velocity": 0.4015748031496063,
                    "duration": 0.07481300000000601
                },
                {
                    "name": "G#4",
                    "midi": 68,
                    "time": 271.57119000000296,
                    "velocity": 0.47244094488188976,
                    "duration": 0.07481300000000601
                },
                {
                    "name": "B4",
                    "midi": 71,
                    "time": 272.31932000000296,
                    "velocity": 0.3779527559055118,
                    "duration": 0.07481300000000601
                },
                {
                    "name": "G#4",
                    "midi": 68,
                    "time": 272.468946000003,
                    "velocity": 0.3858267716535433,
                    "duration": 0.07481300000000601
                },
                {
                    "name": "G#5",
                    "midi": 80,
                    "time": 272.468946000003,
                    "velocity": 0.4566929133858268,
                    "duration": 0.07481300000000601
                },
                {
                    "name": "F4",
                    "midi": 65,
                    "time": 272.618572000003,
                    "velocity": 0.33858267716535434,
                    "duration": 0.07481300000000601
                },
                {
                    "name": "G#4",
                    "midi": 68,
                    "time": 272.618572000003,
                    "velocity": 0.4015748031496063,
                    "duration": 0.07481300000000601
                },
                {
                    "name": "E4",
                    "midi": 64,
                    "time": 272.768198000003,
                    "velocity": 0.31496062992125984,
                    "duration": 0.07481300000000601
                },
                {
                    "name": "G4",
                    "midi": 67,
                    "time": 272.768198000003,
                    "velocity": 0.3779527559055118,
                    "duration": 0.07481300000000601
                },
                {
                    "name": "F4",
                    "midi": 65,
                    "time": 272.917824000003,
                    "velocity": 0.3543307086614173,
                    "duration": 0.07481300000000601
                },
                {
                    "name": "D4",
                    "midi": 62,
                    "time": 272.917824000003,
                    "velocity": 0.2992125984251969,
                    "duration": 0.07481300000000601
                },
                {
                    "name": "B4",
                    "midi": 71,
                    "time": 273.665954000003,
                    "velocity": 0.5826771653543307,
                    "duration": 0.14962600000001203
                },
                {
                    "name": "F5",
                    "midi": 77,
                    "time": 273.815580000003,
                    "velocity": 0.6535433070866141,
                    "duration": 0.07481300000000601
                },
                {
                    "name": "F4",
                    "midi": 65,
                    "time": 273.815580000003,
                    "velocity": 0.5590551181102362,
                    "duration": 0.07481300000000601
                },
                {
                    "name": "F4",
                    "midi": 65,
                    "time": 274.11483200000305,
                    "velocity": 0.3858267716535433,
                    "duration": 0.43640916666669227
                },
                {
                    "name": "F4",
                    "midi": 65,
                    "time": 274.5637100000031,
                    "velocity": 0.3858267716535433,
                    "duration": 0.44887799999997924
                },
                {
                    "name": "B4",
                    "midi": 71,
                    "time": 275.01258800000306,
                    "velocity": 0.5826771653543307,
                    "duration": 0.14962600000001203
                },
                {
                    "name": "F#5",
                    "midi": 78,
                    "time": 275.1622140000031,
                    "velocity": 0.6535433070866141,
                    "duration": 0.07481300000000601
                },
                {
                    "name": "F#4",
                    "midi": 66,
                    "time": 275.1622140000031,
                    "velocity": 0.5590551181102362,
                    "duration": 0.07481300000000601
                },
                {
                    "name": "F#4",
                    "midi": 66,
                    "time": 275.4614660000031,
                    "velocity": 0.3858267716535433,
                    "duration": 0.43640916666669227
                },
                {
                    "name": "F#4",
                    "midi": 66,
                    "time": 275.91034400000314,
                    "velocity": 0.3858267716535433,
                    "duration": 0.44887799999997924
                },
                {
                    "name": "B4",
                    "midi": 71,
                    "time": 276.3592220000031,
                    "velocity": 0.5826771653543307,
                    "duration": 0.14962600000001203
                },
                {
                    "name": "F5",
                    "midi": 77,
                    "time": 276.5088480000031,
                    "velocity": 0.5590551181102362,
                    "duration": 0.07481300000000601
                },
                {
                    "name": "D5",
                    "midi": 74,
                    "time": 276.5088480000031,
                    "velocity": 0.5590551181102362,
                    "duration": 0.07481300000000601
                },
                {
                    "name": "G5",
                    "midi": 79,
                    "time": 276.5088480000031,
                    "velocity": 0.6535433070866141,
                    "duration": 0.07481300000000601
                },
                {
                    "name": "G4",
                    "midi": 67,
                    "time": 276.5088480000031,
                    "velocity": 0.5590551181102362,
                    "duration": 0.07481300000000601
                },
                {
                    "name": "G4",
                    "midi": 67,
                    "time": 276.80810000000315,
                    "velocity": 0.47244094488188976,
                    "duration": 0.43640916666669227
                },
                {
                    "name": "G5",
                    "midi": 79,
                    "time": 276.80810000000315,
                    "velocity": 0.5590551181102362,
                    "duration": 0.43640916666669227
                },
                {
                    "name": "D5",
                    "midi": 74,
                    "time": 276.80810000000315,
                    "velocity": 0.47244094488188976,
                    "duration": 0.43640916666669227
                },
                {
                    "name": "B4",
                    "midi": 71,
                    "time": 276.80810000000315,
                    "velocity": 0.47244094488188976,
                    "duration": 0.43640916666669227
                },
                {
                    "name": "F5",
                    "midi": 77,
                    "time": 276.80810000000315,
                    "velocity": 0.47244094488188976,
                    "duration": 0.43640916666669227
                },
                {
                    "name": "B4",
                    "midi": 71,
                    "time": 277.2569780000032,
                    "velocity": 0.4881889763779528,
                    "duration": 0.43640916666669227
                },
                {
                    "name": "G4",
                    "midi": 67,
                    "time": 277.2569780000032,
                    "velocity": 0.4881889763779528,
                    "duration": 0.43640916666669227
                },
                {
                    "name": "D5",
                    "midi": 74,
                    "time": 277.2569780000032,
                    "velocity": 0.4881889763779528,
                    "duration": 0.43640916666669227
                },
                {
                    "name": "G5",
                    "midi": 79,
                    "time": 277.2569780000032,
                    "velocity": 0.5826771653543307,
                    "duration": 0.4488780000000361
                },
                {
                    "name": "F5",
                    "midi": 77,
                    "time": 277.2569780000032,
                    "velocity": 0.4881889763779528,
                    "duration": 0.43640916666669227
                },
                {
                    "name": "B4",
                    "midi": 71,
                    "time": 277.7058560000032,
                    "velocity": 0.5196850393700787,
                    "duration": 0.13715716666666822
                },
                {
                    "name": "D5",
                    "midi": 74,
                    "time": 277.7058560000032,
                    "velocity": 0.5196850393700787,
                    "duration": 0.13715716666666822
                },
                {
                    "name": "G5",
                    "midi": 79,
                    "time": 277.7058560000032,
                    "velocity": 0.6141732283464567,
                    "duration": 0.13715716666666822
                },
                {
                    "name": "G4",
                    "midi": 67,
                    "time": 277.7058560000032,
                    "velocity": 0.5196850393700787,
                    "duration": 0.13715716666666822
                },
                {
                    "name": "F5",
                    "midi": 77,
                    "time": 277.7058560000032,
                    "velocity": 0.6141732283464567,
                    "duration": 0.13715716666666822
                },
                {
                    "name": "G5",
                    "midi": 79,
                    "time": 277.85548200000324,
                    "velocity": 0.5984251968503937,
                    "duration": 0.07481300000000601
                },
                {
                    "name": "B5",
                    "midi": 83,
                    "time": 277.85548200000324,
                    "velocity": 0.6220472440944882,
                    "duration": 0.07481300000000601
                },
                {
                    "name": "F6",
                    "midi": 89,
                    "time": 277.85548200000324,
                    "velocity": 0.6535433070866141,
                    "duration": 0.07481300000000601
                },
                {
                    "name": "G6",
                    "midi": 91,
                    "time": 277.85548200000324,
                    "velocity": 0.6850393700787402,
                    "duration": 0.07481300000000601
                },
                {
                    "name": "F5",
                    "midi": 77,
                    "time": 278.15473400000326,
                    "velocity": 0.47244094488188976,
                    "duration": 0.44887799999997924
                },
                {
                    "name": "G5",
                    "midi": 79,
                    "time": 278.15473400000326,
                    "velocity": 0.5590551181102362,
                    "duration": 0.44887799999997924
                },
                {
                    "name": "G4",
                    "midi": 67,
                    "time": 278.15473400000326,
                    "velocity": 0.47244094488188976,
                    "duration": 0.44887799999997924
                },
                {
                    "name": "G4",
                    "midi": 67,
                    "time": 278.60361200000324,
                    "velocity": 0.47244094488188976,
                    "duration": 0.07481300000000601
                },
                {
                    "name": "G5",
                    "midi": 79,
                    "time": 278.60361200000324,
                    "velocity": 0.5590551181102362,
                    "duration": 0.07481300000000601
                },
                {
                    "name": "F5",
                    "midi": 77,
                    "time": 278.60361200000324,
                    "velocity": 0.47244094488188976,
                    "duration": 0.07481300000000601
                },
                {
                    "name": "G5",
                    "midi": 79,
                    "time": 278.75323800000325,
                    "velocity": 0.5433070866141733,
                    "duration": 0.07481300000000601
                },
                {
                    "name": "F5",
                    "midi": 77,
                    "time": 278.75323800000325,
                    "velocity": 0.4566929133858268,
                    "duration": 0.07481300000000601
                },
                {
                    "name": "G4",
                    "midi": 67,
                    "time": 278.75323800000325,
                    "velocity": 0.4566929133858268,
                    "duration": 0.07481300000000601
                },
                {
                    "name": "F5",
                    "midi": 77,
                    "time": 278.90286400000326,
                    "velocity": 0.4881889763779528,
                    "duration": 0.07481300000000601
                },
                {
                    "name": "A5",
                    "midi": 81,
                    "time": 278.90286400000326,
                    "velocity": 0.5748031496062992,
                    "duration": 0.07481300000000601
                },
                {
                    "name": "A4",
                    "midi": 69,
                    "time": 278.90286400000326,
                    "velocity": 0.4881889763779528,
                    "duration": 0.07481300000000601
                },
                {
                    "name": "F5",
                    "midi": 77,
                    "time": 279.0524900000033,
                    "velocity": 0.5118110236220472,
                    "duration": 0.07481300000000601
                },
                {
                    "name": "B5",
                    "midi": 83,
                    "time": 279.0524900000033,
                    "velocity": 0.6062992125984252,
                    "duration": 0.07481300000000601
                },
                {
                    "name": "B4",
                    "midi": 71,
                    "time": 279.0524900000033,
                    "velocity": 0.5118110236220472,
                    "duration": 0.07481300000000601
                },
                {
                    "name": "C5",
                    "midi": 72,
                    "time": 279.2021160000033,
                    "velocity": 0.5433070866141733,
                    "duration": 0.07481300000000601
                },
                {
                    "name": "C6",
                    "midi": 84,
                    "time": 279.2021160000033,
                    "velocity": 0.6456692913385826,
                    "duration": 0.07481300000000601
                },
                {
                    "name": "E5",
                    "midi": 76,
                    "time": 279.2021160000033,
                    "velocity": 0.5433070866141733,
                    "duration": 0.07481300000000601
                },
                {
                    "name": "E4",
                    "midi": 64,
                    "time": 279.5013680000033,
                    "velocity": 0.4251968503937008,
                    "duration": 0.07481300000000601
                },
                {
                    "name": "C4",
                    "midi": 60,
                    "time": 279.5013680000033,
                    "velocity": 0.3543307086614173,
                    "duration": 0.07481300000000601
                },
                {
                    "name": "E4",
                    "midi": 64,
                    "time": 279.6509940000033,
                    "velocity": 0.4645669291338583,
                    "duration": 0.07481300000000601
                },
                {
                    "name": "C4",
                    "midi": 60,
                    "time": 279.6509940000033,
                    "velocity": 0.3937007874015748,
                    "duration": 0.07481300000000601
                },
                {
                    "name": "F4",
                    "midi": 65,
                    "time": 279.80062000000333,
                    "velocity": 0.41732283464566927,
                    "duration": 0.07481300000000601
                },
                {
                    "name": "D4",
                    "midi": 62,
                    "time": 279.80062000000333,
                    "velocity": 0.3543307086614173,
                    "duration": 0.07481300000000601
                },
                {
                    "name": "E4",
                    "midi": 64,
                    "time": 279.95024600000335,
                    "velocity": 0.3543307086614173,
                    "duration": 0.07481300000000601
                },
                {
                    "name": "G4",
                    "midi": 67,
                    "time": 279.95024600000335,
                    "velocity": 0.41732283464566927,
                    "duration": 0.07481300000000601
                },
                {
                    "name": "A4",
                    "midi": 69,
                    "time": 280.09987200000336,
                    "velocity": 0.4645669291338583,
                    "duration": 0.07481300000000601
                },
                {
                    "name": "F4",
                    "midi": 65,
                    "time": 280.09987200000336,
                    "velocity": 0.3937007874015748,
                    "duration": 0.07481300000000601
                },
                {
                    "name": "G4",
                    "midi": 67,
                    "time": 280.24949800000337,
                    "velocity": 0.4251968503937008,
                    "duration": 0.07481300000000601
                },
                {
                    "name": "E4",
                    "midi": 64,
                    "time": 280.24949800000337,
                    "velocity": 0.3543307086614173,
                    "duration": 0.07481300000000601
                },
                {
                    "name": "C5",
                    "midi": 72,
                    "time": 280.36171750000335,
                    "velocity": 0.5275590551181102,
                    "duration": 0.14962599999995518
                },
                {
                    "name": "E5",
                    "midi": 76,
                    "time": 280.38042075000334,
                    "velocity": 0.5275590551181102,
                    "duration": 0.1309227499999679
                },
                {
                    "name": "C6",
                    "midi": 84,
                    "time": 280.3991240000033,
                    "velocity": 0.6299212598425197,
                    "duration": 0.1122194999999806
                },
                {
                    "name": "C4",
                    "midi": 60,
                    "time": 280.5487500000033,
                    "velocity": 0.3937007874015748,
                    "duration": 0.07481300000000601
                },
                {
                    "name": "E4",
                    "midi": 64,
                    "time": 280.5487500000033,
                    "velocity": 0.4645669291338583,
                    "duration": 0.07481300000000601
                },
                {
                    "name": "D4",
                    "midi": 62,
                    "time": 280.6983760000033,
                    "velocity": 0.3543307086614173,
                    "duration": 0.07481300000000601
                },
                {
                    "name": "F4",
                    "midi": 65,
                    "time": 280.6983760000033,
                    "velocity": 0.41732283464566927,
                    "duration": 0.07481300000000601
                },
                {
                    "name": "E4",
                    "midi": 64,
                    "time": 280.8480020000033,
                    "velocity": 0.3543307086614173,
                    "duration": 0.07481300000000601
                },
                {
                    "name": "G4",
                    "midi": 67,
                    "time": 280.8480020000033,
                    "velocity": 0.41732283464566927,
                    "duration": 0.07481300000000601
                },
                {
                    "name": "F4",
                    "midi": 65,
                    "time": 280.9976280000033,
                    "velocity": 0.3937007874015748,
                    "duration": 0.07481300000000601
                },
                {
                    "name": "A4",
                    "midi": 69,
                    "time": 280.9976280000033,
                    "velocity": 0.4645669291338583,
                    "duration": 0.07481300000000601
                },
                {
                    "name": "G4",
                    "midi": 67,
                    "time": 281.14725400000333,
                    "velocity": 0.4251968503937008,
                    "duration": 0.07481300000000601
                },
                {
                    "name": "E4",
                    "midi": 64,
                    "time": 281.14725400000333,
                    "velocity": 0.3543307086614173,
                    "duration": 0.07481300000000601
                },
                {
                    "name": "A4",
                    "midi": 69,
                    "time": 281.29688000000334,
                    "velocity": 0.41732283464566927,
                    "duration": 0.07481300000000601
                },
                {
                    "name": "F4",
                    "midi": 65,
                    "time": 281.29688000000334,
                    "velocity": 0.3543307086614173,
                    "duration": 0.07481300000000601
                },
                {
                    "name": "G4",
                    "midi": 67,
                    "time": 281.44650600000335,
                    "velocity": 0.3937007874015748,
                    "duration": 0.07481300000000601
                },
                {
                    "name": "B4",
                    "midi": 71,
                    "time": 281.44650600000335,
                    "velocity": 0.4645669291338583,
                    "duration": 0.07481300000000601
                },
                {
                    "name": "A4",
                    "midi": 69,
                    "time": 281.59613200000337,
                    "velocity": 0.3543307086614173,
                    "duration": 0.07481300000000601
                },
                {
                    "name": "C5",
                    "midi": 72,
                    "time": 281.59613200000337,
                    "velocity": 0.4251968503937008,
                    "duration": 0.07481300000000601
                },
                {
                    "name": "B4",
                    "midi": 71,
                    "time": 281.7457580000034,
                    "velocity": 0.3543307086614173,
                    "duration": 0.07481300000000601
                },
                {
                    "name": "D5",
                    "midi": 74,
                    "time": 281.7457580000034,
                    "velocity": 0.41732283464566927,
                    "duration": 0.07481300000000601
                },
                {
                    "name": "E5",
                    "midi": 76,
                    "time": 281.85797750000336,
                    "velocity": 0.5748031496062992,
                    "duration": 0.14962600000001203
                },
                {
                    "name": "G5",
                    "midi": 79,
                    "time": 281.8704463333367,
                    "velocity": 0.5748031496062992,
                    "duration": 0.13715716666666822
                },
                {
                    "name": "C#6",
                    "midi": 85,
                    "time": 281.88291516667005,
                    "velocity": 0.5748031496062992,
                    "duration": 0.12468833333332441
                },
                {
                    "name": "E6",
                    "midi": 88,
                    "time": 281.8953840000034,
                    "velocity": 0.6929133858267716,
                    "duration": 0.1122194999999806
                },
                {
                    "name": "C#4",
                    "midi": 61,
                    "time": 282.19463600000336,
                    "velocity": 0.3543307086614173,
                    "duration": 0.07481300000000601
                },
                {
                    "name": "E4",
                    "midi": 64,
                    "time": 282.19463600000336,
                    "velocity": 0.4251968503937008,
                    "duration": 0.07481300000000601
                },
                {
                    "name": "C#4",
                    "midi": 61,
                    "time": 282.34426200000337,
                    "velocity": 0.4015748031496063,
                    "duration": 0.07481300000000601
                },
                {
                    "name": "E4",
                    "midi": 64,
                    "time": 282.34426200000337,
                    "velocity": 0.47244094488188976,
                    "duration": 0.07481300000000601
                },
                {
                    "name": "F4",
                    "midi": 65,
                    "time": 282.4938880000034,
                    "velocity": 0.4409448818897638,
                    "duration": 0.07481300000000601
                },
                {
                    "name": "D4",
                    "midi": 62,
                    "time": 282.4938880000034,
                    "velocity": 0.36220472440944884,
                    "duration": 0.07481300000000601
                },
                {
                    "name": "G4",
                    "midi": 67,
                    "time": 282.6435140000034,
                    "velocity": 0.44881889763779526,
                    "duration": 0.07481300000000601
                },
                {
                    "name": "E4",
                    "midi": 64,
                    "time": 282.6435140000034,
                    "velocity": 0.3779527559055118,
                    "duration": 0.07481300000000601
                },
                {
                    "name": "A4",
                    "midi": 69,
                    "time": 282.7931400000034,
                    "velocity": 0.5118110236220472,
                    "duration": 0.07481300000000601
                },
                {
                    "name": "F4",
                    "midi": 65,
                    "time": 282.7931400000034,
                    "velocity": 0.4330708661417323,
                    "duration": 0.07481300000000601
                },
                {
                    "name": "E4",
                    "midi": 64,
                    "time": 282.9427660000034,
                    "velocity": 0.4015748031496063,
                    "duration": 0.07481300000000601
                },
                {
                    "name": "G4",
                    "midi": 67,
                    "time": 282.9427660000034,
                    "velocity": 0.48031496062992124,
                    "duration": 0.07481300000000601
                },
                {
                    "name": "E5",
                    "midi": 76,
                    "time": 283.0549855000034,
                    "velocity": 0.6141732283464567,
                    "duration": 0.14962600000001203
                },
                {
                    "name": "G5",
                    "midi": 79,
                    "time": 283.06745433333674,
                    "velocity": 0.6141732283464567,
                    "duration": 0.13715716666666822
                },
                {
                    "name": "C#6",
                    "midi": 85,
                    "time": 283.0799231666701,
                    "velocity": 0.6141732283464567,
                    "duration": 0.12468833333332441
                },
                {
                    "name": "E6",
                    "midi": 88,
                    "time": 283.09239200000343,
                    "velocity": 0.7322834645669292,
                    "duration": 0.1122194999999806
                },
                {
                    "name": "G4",
                    "midi": 67,
                    "time": 283.2420180000034,
                    "velocity": 0.4645669291338583,
                    "duration": 0.07481300000000601
                },
                {
                    "name": "E4",
                    "midi": 64,
                    "time": 283.2420180000034,
                    "velocity": 0.3937007874015748,
                    "duration": 0.07481300000000601
                },
                {
                    "name": "F4",
                    "midi": 65,
                    "time": 283.3916440000034,
                    "velocity": 0.3543307086614173,
                    "duration": 0.07481300000000601
                },
                {
                    "name": "A4",
                    "midi": 69,
                    "time": 283.3916440000034,
                    "velocity": 0.41732283464566927,
                    "duration": 0.07481300000000601
                },
                {
                    "name": "G4",
                    "midi": 67,
                    "time": 283.5412700000034,
                    "velocity": 0.3543307086614173,
                    "duration": 0.07481300000000601
                },
                {
                    "name": "B4",
                    "midi": 71,
                    "time": 283.5412700000034,
                    "velocity": 0.41732283464566927,
                    "duration": 0.07481300000000601
                },
                {
                    "name": "A4",
                    "midi": 69,
                    "time": 283.6908960000034,
                    "velocity": 0.3937007874015748,
                    "duration": 0.07481300000000601
                },
                {
                    "name": "C#5",
                    "midi": 73,
                    "time": 283.6908960000034,
                    "velocity": 0.4645669291338583,
                    "duration": 0.07481300000000601
                },
                {
                    "name": "B4",
                    "midi": 71,
                    "time": 283.84052200000343,
                    "velocity": 0.4251968503937008,
                    "duration": 0.07481300000000601
                },
                {
                    "name": "G4",
                    "midi": 67,
                    "time": 283.84052200000343,
                    "velocity": 0.3543307086614173,
                    "duration": 0.07481300000000601
                },
                {
                    "name": "A4",
                    "midi": 69,
                    "time": 283.99014800000344,
                    "velocity": 0.3543307086614173,
                    "duration": 0.07481300000000601
                },
                {
                    "name": "C#5",
                    "midi": 73,
                    "time": 283.99014800000344,
                    "velocity": 0.41732283464566927,
                    "duration": 0.07481300000000601
                },
                {
                    "name": "D5",
                    "midi": 74,
                    "time": 284.13977400000346,
                    "velocity": 0.4645669291338583,
                    "duration": 0.07481300000000601
                },
                {
                    "name": "B4",
                    "midi": 71,
                    "time": 284.13977400000346,
                    "velocity": 0.3937007874015748,
                    "duration": 0.07481300000000601
                },
                {
                    "name": "E5",
                    "midi": 76,
                    "time": 284.28940000000347,
                    "velocity": 0.4251968503937008,
                    "duration": 0.07481300000000601
                },
                {
                    "name": "C#5",
                    "midi": 73,
                    "time": 284.28940000000347,
                    "velocity": 0.3543307086614173,
                    "duration": 0.07481300000000601
                },
                {
                    "name": "G5",
                    "midi": 79,
                    "time": 284.4390260000035,
                    "velocity": 0.41732283464566927,
                    "duration": 0.07481300000000601
                },
                {
                    "name": "E5",
                    "midi": 76,
                    "time": 284.4390260000035,
                    "velocity": 0.3543307086614173,
                    "duration": 0.07481300000000601
                },
                {
                    "name": "A5",
                    "midi": 81,
                    "time": 284.55124550000346,
                    "velocity": 0.5748031496062992,
                    "duration": 0.14962600000001203
                },
                {
                    "name": "C6",
                    "midi": 84,
                    "time": 284.5637143333368,
                    "velocity": 0.5748031496062992,
                    "duration": 0.13715716666666822
                },
                {
                    "name": "F6",
                    "midi": 89,
                    "time": 284.57618316667015,
                    "velocity": 0.5748031496062992,
                    "duration": 0.12468833333332441
                },
                {
                    "name": "A6",
                    "midi": 93,
                    "time": 284.5886520000035,
                    "velocity": 0.6929133858267716,
                    "duration": 0.1122194999999806
                },
                {
                    "name": "A4",
                    "midi": 69,
                    "time": 284.88790400000346,
                    "velocity": 0.4251968503937008,
                    "duration": 0.07481300000000601
                },
                {
                    "name": "F4",
                    "midi": 65,
                    "time": 284.88790400000346,
                    "velocity": 0.3543307086614173,
                    "duration": 0.07481300000000601
                },
                {
                    "name": "F4",
                    "midi": 65,
                    "time": 285.03753000000347,
                    "velocity": 0.4015748031496063,
                    "duration": 0.07481300000000601
                },
                {
                    "name": "A4",
                    "midi": 69,
                    "time": 285.03753000000347,
                    "velocity": 0.47244094488188976,
                    "duration": 0.07481300000000601
                },
                {
                    "name": "G4",
                    "midi": 67,
                    "time": 285.1871560000035,
                    "velocity": 0.36220472440944884,
                    "duration": 0.07481300000000601
                },
                {
                    "name": "A#4",
                    "midi": 70,
                    "time": 285.1871560000035,
                    "velocity": 0.4409448818897638,
                    "duration": 0.07481300000000601
                },
                {
                    "name": "A4",
                    "midi": 69,
                    "time": 285.3367820000035,
                    "velocity": 0.3779527559055118,
                    "duration": 0.07481300000000601
                },
                {
                    "name": "C5",
                    "midi": 72,
                    "time": 285.3367820000035,
                    "velocity": 0.44881889763779526,
                    "duration": 0.07481300000000601
                },
                {
                    "name": "A#4",
                    "midi": 70,
                    "time": 285.4864080000035,
                    "velocity": 0.4330708661417323,
                    "duration": 0.07481300000000601
                },
                {
                    "name": "D5",
                    "midi": 74,
                    "time": 285.4864080000035,
                    "velocity": 0.5118110236220472,
                    "duration": 0.07481300000000601
                },
                {
                    "name": "C5",
                    "midi": 72,
                    "time": 285.6360340000035,
                    "velocity": 0.48031496062992124,
                    "duration": 0.07481300000000601
                },
                {
                    "name": "A4",
                    "midi": 69,
                    "time": 285.6360340000035,
                    "velocity": 0.4015748031496063,
                    "duration": 0.07481300000000601
                },
                {
                    "name": "A5",
                    "midi": 81,
                    "time": 285.7482535000035,
                    "velocity": 0.6141732283464567,
                    "duration": 0.14962600000001203
                },
                {
                    "name": "C6",
                    "midi": 84,
                    "time": 285.76072233333684,
                    "velocity": 0.6141732283464567,
                    "duration": 0.13715716666666822
                },
                {
                    "name": "F6",
                    "midi": 89,
                    "time": 285.7731911666702,
                    "velocity": 0.6141732283464567,
                    "duration": 0.12468833333332441
                },
                {
                    "name": "A6",
                    "midi": 93,
                    "time": 285.78566000000353,
                    "velocity": 0.7322834645669292,
                    "duration": 0.1122194999999806
                },
                {
                    "name": "A4",
                    "midi": 69,
                    "time": 285.9352860000035,
                    "velocity": 0.4251968503937008,
                    "duration": 0.07481300000000601
                },
                {
                    "name": "A5",
                    "midi": 81,
                    "time": 285.9352860000035,
                    "velocity": 0.5118110236220472,
                    "duration": 0.07481300000000601
                },
                {
                    "name": "A#4",
                    "midi": 70,
                    "time": 286.0849120000035,
                    "velocity": 0.4015748031496063,
                    "duration": 0.07481300000000601
                },
                {
                    "name": "A#5",
                    "midi": 82,
                    "time": 286.0849120000035,
                    "velocity": 0.48031496062992124,
                    "duration": 0.07481300000000601
                },
                {
                    "name": "B4",
                    "midi": 71,
                    "time": 286.2345380000035,
                    "velocity": 0.41732283464566927,
                    "duration": 0.07481300000000601
                },
                {
                    "name": "B5",
                    "midi": 83,
                    "time": 286.2345380000035,
                    "velocity": 0.5118110236220472,
                    "duration": 0.07481300000000601
                },
                {
                    "name": "C5",
                    "midi": 72,
                    "time": 286.3841640000035,
                    "velocity": 0.49606299212598426,
                    "duration": 0.07481300000000601
                },
                {
                    "name": "C6",
                    "midi": 84,
                    "time": 286.3841640000035,
                    "velocity": 0.5984251968503937,
                    "duration": 0.07481300000000601
                },
                {
                    "name": "D5",
                    "midi": 74,
                    "time": 286.53379000000353,
                    "velocity": 0.4881889763779528,
                    "duration": 0.07481300000000601
                },
                {
                    "name": "D6",
                    "midi": 86,
                    "time": 286.53379000000353,
                    "velocity": 0.5748031496062992,
                    "duration": 0.07481300000000601
                },
                {
                    "name": "E5",
                    "midi": 76,
                    "time": 286.68341600000355,
                    "velocity": 0.49606299212598426,
                    "duration": 0.07481300000000601
                },
                {
                    "name": "E6",
                    "midi": 88,
                    "time": 286.68341600000355,
                    "velocity": 0.5905511811023622,
                    "duration": 0.07481300000000601
                },
                {
                    "name": "F5",
                    "midi": 77,
                    "time": 286.83304200000356,
                    "velocity": 0.5826771653543307,
                    "duration": 0.07481300000000601
                },
                {
                    "name": "F6",
                    "midi": 89,
                    "time": 286.83304200000356,
                    "velocity": 0.7007874015748031,
                    "duration": 0.07481300000000601
                },
                {
                    "name": "G6",
                    "midi": 91,
                    "time": 286.98266800000357,
                    "velocity": 0.6692913385826772,
                    "duration": 0.07481300000000601
                },
                {
                    "name": "G5",
                    "midi": 79,
                    "time": 286.98266800000357,
                    "velocity": 0.5590551181102362,
                    "duration": 0.07481300000000601
                },
                {
                    "name": "G#6",
                    "midi": 92,
                    "time": 287.1322940000036,
                    "velocity": 0.6850393700787402,
                    "duration": 0.07481300000000601
                },
                {
                    "name": "G#5",
                    "midi": 80,
                    "time": 287.1322940000036,
                    "velocity": 0.5826771653543307,
                    "duration": 0.07481300000000601
                },
                {
                    "name": "C6",
                    "midi": 84,
                    "time": 287.2819200000036,
                    "velocity": 0.6299212598425197,
                    "duration": 0.07481300000000601
                },
                {
                    "name": "A6",
                    "midi": 93,
                    "time": 287.2819200000036,
                    "velocity": 0.7480314960629921,
                    "duration": 0.07481300000000601
                },
                {
                    "name": "A5",
                    "midi": 81,
                    "time": 287.2819200000036,
                    "velocity": 0.6299212598425197,
                    "duration": 0.07481300000000601
                },
                {
                    "name": "D#6",
                    "midi": 87,
                    "time": 287.2819200000036,
                    "velocity": 0.6299212598425197,
                    "duration": 0.07481300000000601
                },
                {
                    "name": "C5",
                    "midi": 72,
                    "time": 288.0300500000036,
                    "velocity": 0.47244094488188976,
                    "duration": 0.14962600000001203
                },
                {
                    "name": "A4",
                    "midi": 69,
                    "time": 288.0300500000036,
                    "velocity": 0.4015748031496063,
                    "duration": 0.14962600000001203
                },
                {
                    "name": "B4",
                    "midi": 71,
                    "time": 288.1796760000036,
                    "velocity": 0.44881889763779526,
                    "duration": 0.29925200000002405
                },
                {
                    "name": "D5",
                    "midi": 74,
                    "time": 288.1796760000036,
                    "velocity": 0.5354330708661418,
                    "duration": 0.29925200000002405
                },
                {
                    "name": "C5",
                    "midi": 72,
                    "time": 288.47892800000363,
                    "velocity": 0.4015748031496063,
                    "duration": 0.14962600000001203
                },
                {
                    "name": "D#5",
                    "midi": 75,
                    "time": 288.47892800000363,
                    "velocity": 0.47244094488188976,
                    "duration": 0.14962600000001203
                },
                {
                    "name": "A4",
                    "midi": 69,
                    "time": 289.37668400000365,
                    "velocity": 0.4015748031496063,
                    "duration": 0.14962600000001203
                },
                {
                    "name": "C5",
                    "midi": 72,
                    "time": 289.37668400000365,
                    "velocity": 0.47244094488188976,
                    "duration": 0.14962600000001203
                },
                {
                    "name": "B4",
                    "midi": 71,
                    "time": 289.52631000000366,
                    "velocity": 0.44881889763779526,
                    "duration": 0.29925200000002405
                },
                {
                    "name": "D5",
                    "midi": 74,
                    "time": 289.52631000000366,
                    "velocity": 0.5354330708661418,
                    "duration": 0.29925200000002405
                },
                {
                    "name": "C5",
                    "midi": 72,
                    "time": 289.8255620000037,
                    "velocity": 0.4015748031496063,
                    "duration": 0.14962600000001203
                },
                {
                    "name": "D#5",
                    "midi": 75,
                    "time": 289.8255620000037,
                    "velocity": 0.47244094488188976,
                    "duration": 0.14962600000001203
                },
                {
                    "name": "C5",
                    "midi": 72,
                    "time": 290.2744400000037,
                    "velocity": 0.4015748031496063,
                    "duration": 0.14962600000001203
                },
                {
                    "name": "A4",
                    "midi": 69,
                    "time": 290.2744400000037,
                    "velocity": 0.4015748031496063,
                    "duration": 0.14962600000001203
                },
                {
                    "name": "D#5",
                    "midi": 75,
                    "time": 290.2744400000037,
                    "velocity": 0.47244094488188976,
                    "duration": 0.14962600000001203
                },
                {
                    "name": "A#4",
                    "midi": 70,
                    "time": 290.64850500000375,
                    "velocity": 0.4251968503937008,
                    "duration": 0.21321705000002567
                },
                {
                    "name": "E5",
                    "midi": 76,
                    "time": 290.64850500000375,
                    "velocity": 0.5039370078740157,
                    "duration": 0.21321705000002567
                },
                {
                    "name": "C#5",
                    "midi": 73,
                    "time": 290.64850500000375,
                    "velocity": 0.4251968503937008,
                    "duration": 0.21321705000002567
                },
                {
                    "name": "A#5",
                    "midi": 82,
                    "time": 290.87294400000377,
                    "velocity": 0.5748031496062992,
                    "duration": 0.21321705000002567
                },
                {
                    "name": "C#5",
                    "midi": 73,
                    "time": 290.87294400000377,
                    "velocity": 0.4881889763779528,
                    "duration": 0.21321705000002567
                },
                {
                    "name": "E5",
                    "midi": 76,
                    "time": 290.87294400000377,
                    "velocity": 0.4881889763779528,
                    "duration": 0.21321705000002567
                },
                {
                    "name": "A#5",
                    "midi": 82,
                    "time": 291.0973830000038,
                    "velocity": 0.5433070866141733,
                    "duration": 0.21321705000002567
                },
                {
                    "name": "C#6",
                    "midi": 85,
                    "time": 291.0973830000038,
                    "velocity": 0.6456692913385826,
                    "duration": 0.21321705000002567
                },
                {
                    "name": "A#5",
                    "midi": 82,
                    "time": 291.3218220000038,
                    "velocity": 0.6062992125984252,
                    "duration": 0.21321705000002567
                },
                {
                    "name": "E6",
                    "midi": 88,
                    "time": 291.3218220000038,
                    "velocity": 0.7165354330708661,
                    "duration": 0.21321705000002567
                },
                {
                    "name": "E5",
                    "midi": 76,
                    "time": 291.3218220000038,
                    "velocity": 0.6062992125984252,
                    "duration": 0.21321705000002567
                },
                {
                    "name": "C#6",
                    "midi": 85,
                    "time": 291.5462610000038,
                    "velocity": 0.6771653543307087,
                    "duration": 0.21321705000002567
                },
                {
                    "name": "E5",
                    "midi": 76,
                    "time": 291.5462610000038,
                    "velocity": 0.5748031496062992,
                    "duration": 0.21321705000002567
                },
                {
                    "name": "A#5",
                    "midi": 82,
                    "time": 291.5462610000038,
                    "velocity": 0.5748031496062992,
                    "duration": 0.21321705000002567
                },
                {
                    "name": "E5",
                    "midi": 76,
                    "time": 291.77070000000384,
                    "velocity": 0.5511811023622047,
                    "duration": 0.44264358333333576
                },
                {
                    "name": "C#5",
                    "midi": 73,
                    "time": 291.77070000000384,
                    "velocity": 0.5511811023622047,
                    "duration": 0.44264358333333576
                },
                {
                    "name": "A#5",
                    "midi": 82,
                    "time": 291.77070000000384,
                    "velocity": 0.6535433070866141,
                    "duration": 0.44264358333333576
                },
                {
                    "name": "A#4",
                    "midi": 70,
                    "time": 292.2195780000038,
                    "velocity": 0.4881889763779528,
                    "duration": 0.44887799999997924
                },
                {
                    "name": "E5",
                    "midi": 76,
                    "time": 292.2195780000038,
                    "velocity": 0.5748031496062992,
                    "duration": 0.44887799999997924
                },
                {
                    "name": "C#5",
                    "midi": 73,
                    "time": 292.2195780000038,
                    "velocity": 0.4881889763779528,
                    "duration": 0.44887799999997924
                },
                {
                    "name": "B4",
                    "midi": 71,
                    "time": 292.6684560000038,
                    "velocity": 0.44881889763779526,
                    "duration": 0.44887799999997924
                },
                {
                    "name": "D#5",
                    "midi": 75,
                    "time": 292.6684560000038,
                    "velocity": 0.5196850393700787,
                    "duration": 0.44887799999997924
                },
                {
                    "name": "A#4",
                    "midi": 70,
                    "time": 293.4165860000038,
                    "velocity": 0.4015748031496063,
                    "duration": 0.14962600000001203
                },
                {
                    "name": "C#5",
                    "midi": 73,
                    "time": 293.4165860000038,
                    "velocity": 0.47244094488188976,
                    "duration": 0.14962600000001203
                },
                {
                    "name": "B4",
                    "midi": 71,
                    "time": 293.5662120000038,
                    "velocity": 0.44881889763779526,
                    "duration": 0.29925200000002405
                },
                {
                    "name": "D#5",
                    "midi": 75,
                    "time": 293.5662120000038,
                    "velocity": 0.5354330708661418,
                    "duration": 0.29925200000002405
                },
                {
                    "name": "C#5",
                    "midi": 73,
                    "time": 293.86546400000384,
                    "velocity": 0.4015748031496063,
                    "duration": 0.14962600000001203
                },
                {
                    "name": "E5",
                    "midi": 76,
                    "time": 293.86546400000384,
                    "velocity": 0.47244094488188976,
                    "duration": 0.14962600000001203
                },
                {
                    "name": "A#4",
                    "midi": 70,
                    "time": 294.76322000000386,
                    "velocity": 0.4015748031496063,
                    "duration": 0.14962600000001203
                },
                {
                    "name": "C#5",
                    "midi": 73,
                    "time": 294.76322000000386,
                    "velocity": 0.47244094488188976,
                    "duration": 0.14962600000001203
                },
                {
                    "name": "D#5",
                    "midi": 75,
                    "time": 294.91284600000387,
                    "velocity": 0.5354330708661418,
                    "duration": 0.29925200000002405
                },
                {
                    "name": "B4",
                    "midi": 71,
                    "time": 294.91284600000387,
                    "velocity": 0.44881889763779526,
                    "duration": 0.29925200000002405
                },
                {
                    "name": "C#5",
                    "midi": 73,
                    "time": 295.2120980000039,
                    "velocity": 0.4015748031496063,
                    "duration": 0.14962600000001203
                },
                {
                    "name": "E5",
                    "midi": 76,
                    "time": 295.2120980000039,
                    "velocity": 0.47244094488188976,
                    "duration": 0.14962600000001203
                },
                {
                    "name": "E5",
                    "midi": 76,
                    "time": 295.6609760000039,
                    "velocity": 0.47244094488188976,
                    "duration": 0.14962600000001203
                },
                {
                    "name": "C#5",
                    "midi": 73,
                    "time": 295.6609760000039,
                    "velocity": 0.4015748031496063,
                    "duration": 0.14962600000001203
                },
                {
                    "name": "A#4",
                    "midi": 70,
                    "time": 295.6609760000039,
                    "velocity": 0.4015748031496063,
                    "duration": 0.14962600000001203
                },
                {
                    "name": "B4",
                    "midi": 71,
                    "time": 296.03504100000396,
                    "velocity": 0.4251968503937008,
                    "duration": 0.21321705000002567
                },
                {
                    "name": "D5",
                    "midi": 74,
                    "time": 296.03504100000396,
                    "velocity": 0.4251968503937008,
                    "duration": 0.21321705000002567
                },
                {
                    "name": "F5",
                    "midi": 77,
                    "time": 296.03504100000396,
                    "velocity": 0.5039370078740157,
                    "duration": 0.21321705000002567
                },
                {
                    "name": "F5",
                    "midi": 77,
                    "time": 296.259480000004,
                    "velocity": 0.4881889763779528,
                    "duration": 0.21321705000002567
                },
                {
                    "name": "D5",
                    "midi": 74,
                    "time": 296.259480000004,
                    "velocity": 0.4881889763779528,
                    "duration": 0.21321705000002567
                },
                {
                    "name": "B5",
                    "midi": 83,
                    "time": 296.259480000004,
                    "velocity": 0.5748031496062992,
                    "duration": 0.21321705000002567
                },
                {
                    "name": "F5",
                    "midi": 77,
                    "time": 296.483919000004,
                    "velocity": 0.5433070866141733,
                    "duration": 0.21321705000002567
                },
                {
                    "name": "B5",
                    "midi": 83,
                    "time": 296.483919000004,
                    "velocity": 0.5433070866141733,
                    "duration": 0.21321705000002567
                },
                {
                    "name": "D6",
                    "midi": 86,
                    "time": 296.483919000004,
                    "velocity": 0.6456692913385826,
                    "duration": 0.21321705000002567
                },
                {
                    "name": "F5",
                    "midi": 77,
                    "time": 296.708358000004,
                    "velocity": 0.6062992125984252,
                    "duration": 0.21321705000002567
                },
                {
                    "name": "B5",
                    "midi": 83,
                    "time": 296.708358000004,
                    "velocity": 0.6062992125984252,
                    "duration": 0.21321705000002567
                },
                {
                    "name": "F6",
                    "midi": 89,
                    "time": 296.708358000004,
                    "velocity": 0.7165354330708661,
                    "duration": 0.21321705000002567
                },
                {
                    "name": "D6",
                    "midi": 86,
                    "time": 296.93279700000403,
                    "velocity": 0.6771653543307087,
                    "duration": 0.21321705000002567
                },
                {
                    "name": "B5",
                    "midi": 83,
                    "time": 296.93279700000403,
                    "velocity": 0.5748031496062992,
                    "duration": 0.21321705000002567
                },
                {
                    "name": "F5",
                    "midi": 77,
                    "time": 296.93279700000403,
                    "velocity": 0.5748031496062992,
                    "duration": 0.21321705000002567
                },
                {
                    "name": "F5",
                    "midi": 77,
                    "time": 297.15723600000405,
                    "velocity": 0.5511811023622047,
                    "duration": 0.44264358333333576
                },
                {
                    "name": "D5",
                    "midi": 74,
                    "time": 297.15723600000405,
                    "velocity": 0.5511811023622047,
                    "duration": 0.44264358333333576
                },
                {
                    "name": "B5",
                    "midi": 83,
                    "time": 297.15723600000405,
                    "velocity": 0.6535433070866141,
                    "duration": 0.44264358333333576
                },
                {
                    "name": "B4",
                    "midi": 71,
                    "time": 297.606114000004,
                    "velocity": 0.4881889763779528,
                    "duration": 0.44887799999997924
                },
                {
                    "name": "F5",
                    "midi": 77,
                    "time": 297.606114000004,
                    "velocity": 0.5748031496062992,
                    "duration": 0.44887799999997924
                },
                {
                    "name": "D5",
                    "midi": 74,
                    "time": 297.606114000004,
                    "velocity": 0.4881889763779528,
                    "duration": 0.44887799999997924
                },
                {
                    "name": "E5",
                    "midi": 76,
                    "time": 298.054992000004,
                    "velocity": 0.5196850393700787,
                    "duration": 0.14962600000001203
                },
                {
                    "name": "C5",
                    "midi": 72,
                    "time": 298.054992000004,
                    "velocity": 0.44881889763779526,
                    "duration": 0.14962600000001203
                },
                {
                    "name": "G#4",
                    "midi": 68,
                    "time": 298.50387000000404,
                    "velocity": 0.5511811023622047,
                    "duration": 0.44887799999997924
                },
                {
                    "name": "E4",
                    "midi": 64,
                    "time": 298.50387000000404,
                    "velocity": 0.4645669291338583,
                    "duration": 0.5985039999999913
                },
                {
                    "name": "E5",
                    "midi": 76,
                    "time": 298.50387000000404,
                    "velocity": 0.5511811023622047,
                    "duration": 0.5985039999999913
                },
                {
                    "name": "C5",
                    "midi": 72,
                    "time": 298.50387000000404,
                    "velocity": 0.4645669291338583,
                    "duration": 0.5985039999999913
                },
                {
                    "name": "A4",
                    "midi": 69,
                    "time": 298.952748000004,
                    "velocity": 0.5196850393700787,
                    "duration": 0.14962600000001203
                },
                {
                    "name": "G#4",
                    "midi": 68,
                    "time": 299.40162600000406,
                    "velocity": 0.5511811023622047,
                    "duration": 0.44887799999997924
                },
                {
                    "name": "E4",
                    "midi": 64,
                    "time": 299.40162600000406,
                    "velocity": 0.4645669291338583,
                    "duration": 0.5985039999999913
                },
                {
                    "name": "E5",
                    "midi": 76,
                    "time": 299.40162600000406,
                    "velocity": 0.5511811023622047,
                    "duration": 0.5985039999999913
                },
                {
                    "name": "C5",
                    "midi": 72,
                    "time": 299.40162600000406,
                    "velocity": 0.4645669291338583,
                    "duration": 0.5985039999999913
                },
                {
                    "name": "A4",
                    "midi": 69,
                    "time": 299.85050400000404,
                    "velocity": 0.5196850393700787,
                    "duration": 0.14962600000001203
                },
                {
                    "name": "E4",
                    "midi": 64,
                    "time": 300.2993820000041,
                    "velocity": 0.4645669291338583,
                    "duration": 0.5985039999999913
                },
                {
                    "name": "G#4",
                    "midi": 68,
                    "time": 300.2993820000041,
                    "velocity": 0.5511811023622047,
                    "duration": 0.44887799999997924
                },
                {
                    "name": "C5",
                    "midi": 72,
                    "time": 300.2993820000041,
                    "velocity": 0.4645669291338583,
                    "duration": 0.5985039999999913
                },
                {
                    "name": "E5",
                    "midi": 76,
                    "time": 300.2993820000041,
                    "velocity": 0.5511811023622047,
                    "duration": 0.5985039999999913
                },
                {
                    "name": "A4",
                    "midi": 69,
                    "time": 300.74826000000405,
                    "velocity": 0.5196850393700787,
                    "duration": 0.14962600000001203
                },
                {
                    "name": "C5",
                    "midi": 72,
                    "time": 301.1971380000041,
                    "velocity": 0.4645669291338583,
                    "duration": 0.40523708333336117
                },
                {
                    "name": "E4",
                    "midi": 64,
                    "time": 301.1971380000041,
                    "velocity": 0.4645669291338583,
                    "duration": 0.40523708333336117
                },
                {
                    "name": "E5",
                    "midi": 76,
                    "time": 301.1971380000041,
                    "velocity": 0.5511811023622047,
                    "duration": 0.40523708333336117
                },
                {
                    "name": "G#4",
                    "midi": 68,
                    "time": 301.1971380000041,
                    "velocity": 0.5511811023622047,
                    "duration": 0.40523708333336117
                },
                {
                    "name": "F4",
                    "midi": 65,
                    "time": 301.6086095000041,
                    "velocity": 0.3858267716535433,
                    "duration": 0.48628450000001067
                },
                {
                    "name": "C5",
                    "midi": 72,
                    "time": 301.6273127500041,
                    "velocity": 0.3858267716535433,
                    "duration": 0.44264358333333576
                },
                {
                    "name": "F5",
                    "midi": 77,
                    "time": 301.64601600000407,
                    "velocity": 0.4645669291338583,
                    "duration": 0.4445139083333629
                },
                {
                    "name": "E5",
                    "midi": 76,
                    "time": 302.0948940000041,
                    "velocity": 0.41732283464566927,
                    "duration": 0.44451390833330606
                },
                {
                    "name": "C5",
                    "midi": 72,
                    "time": 302.0948940000041,
                    "velocity": 0.3543307086614173,
                    "duration": 0.44451390833330606
                },
                {
                    "name": "E4",
                    "midi": 64,
                    "time": 302.0948940000041,
                    "velocity": 0.3543307086614173,
                    "duration": 0.44451390833330606
                },
                {
                    "name": "A4",
                    "midi": 69,
                    "time": 302.5437720000041,
                    "velocity": 0.3858267716535433,
                    "duration": 0.44451390833330606
                },
                {
                    "name": "D5",
                    "midi": 74,
                    "time": 302.5437720000041,
                    "velocity": 0.4645669291338583,
                    "duration": 0.44451390833330606
                },
                {
                    "name": "D4",
                    "midi": 62,
                    "time": 302.5437720000041,
                    "velocity": 0.3858267716535433,
                    "duration": 0.44451390833330606
                },
                {
                    "name": "A4",
                    "midi": 69,
                    "time": 302.99265000000406,
                    "velocity": 0.30708661417322836,
                    "duration": 0.44451390833330606
                },
                {
                    "name": "C5",
                    "midi": 72,
                    "time": 302.99265000000406,
                    "velocity": 0.3700787401574803,
                    "duration": 0.44451390833330606
                },
                {
                    "name": "D4",
                    "midi": 62,
                    "time": 302.99265000000406,
                    "velocity": 0.30708661417322836,
                    "duration": 0.44451390833330606
                },
                {
                    "name": "C4",
                    "midi": 60,
                    "time": 302.99265000000406,
                    "velocity": 0.30708661417322836,
                    "duration": 0.44451390833330606
                },
                {
                    "name": "D4",
                    "midi": 62,
                    "time": 303.44152800000404,
                    "velocity": 0.3543307086614173,
                    "duration": 0.44451390833330606
                },
                {
                    "name": "B3",
                    "midi": 59,
                    "time": 303.44152800000404,
                    "velocity": 0.3543307086614173,
                    "duration": 0.44451390833330606
                },
                {
                    "name": "B4",
                    "midi": 71,
                    "time": 303.44152800000404,
                    "velocity": 0.41732283464566927,
                    "duration": 0.44451390833330606
                },
                {
                    "name": "G4",
                    "midi": 67,
                    "time": 303.44152800000404,
                    "velocity": 0.3543307086614173,
                    "duration": 0.44451390833330606
                },
                {
                    "name": "D4",
                    "midi": 62,
                    "time": 303.890406000004,
                    "velocity": 0.2992125984251969,
                    "duration": 0.44451390833330606
                },
                {
                    "name": "A4",
                    "midi": 69,
                    "time": 303.890406000004,
                    "velocity": 0.3543307086614173,
                    "duration": 0.44451390833330606
                },
                {
                    "name": "B3",
                    "midi": 59,
                    "time": 303.890406000004,
                    "velocity": 0.2992125984251969,
                    "duration": 0.44451390833330606
                },
                {
                    "name": "G4",
                    "midi": 67,
                    "time": 304.339284000004,
                    "velocity": 0.41732283464566927,
                    "duration": 0.44451390833330606
                },
                {
                    "name": "C4",
                    "midi": 60,
                    "time": 304.339284000004,
                    "velocity": 0.3543307086614173,
                    "duration": 0.44451390833330606
                },
                {
                    "name": "E4",
                    "midi": 64,
                    "time": 304.339284000004,
                    "velocity": 0.3543307086614173,
                    "duration": 0.44451390833330606
                },
                {
                    "name": "G3",
                    "midi": 55,
                    "time": 304.788162000004,
                    "velocity": 0.29133858267716534,
                    "duration": 0.44451390833330606
                },
                {
                    "name": "B3",
                    "midi": 59,
                    "time": 304.788162000004,
                    "velocity": 0.29133858267716534,
                    "duration": 0.44451390833330606
                },
                {
                    "name": "F4",
                    "midi": 65,
                    "time": 304.788162000004,
                    "velocity": 0.3543307086614173,
                    "duration": 0.44451390833330606
                },
                {
                    "name": "E4",
                    "midi": 64,
                    "time": 305.23704000000396,
                    "velocity": 0.33858267716535434,
                    "duration": 0.14962600000001203
                },
                {
                    "name": "C4",
                    "midi": 60,
                    "time": 305.23704000000396,
                    "velocity": 0.29133858267716534,
                    "duration": 0.14962600000001203
                },
                {
                    "name": "C5",
                    "midi": 72,
                    "time": 305.685918000004,
                    "velocity": 0.4645669291338583,
                    "duration": 0.5985039999999913
                },
                {
                    "name": "E4",
                    "midi": 64,
                    "time": 305.685918000004,
                    "velocity": 0.4645669291338583,
                    "duration": 0.5985039999999913
                },
                {
                    "name": "G#4",
                    "midi": 68,
                    "time": 305.685918000004,
                    "velocity": 0.5511811023622047,
                    "duration": 0.44887799999997924
                },
                {
                    "name": "E5",
                    "midi": 76,
                    "time": 305.685918000004,
                    "velocity": 0.5511811023622047,
                    "duration": 0.5985039999999913
                },
                {
                    "name": "A4",
                    "midi": 69,
                    "time": 306.134796000004,
                    "velocity": 0.5196850393700787,
                    "duration": 0.14962600000001203
                },
                {
                    "name": "G#4",
                    "midi": 68,
                    "time": 306.583674000004,
                    "velocity": 0.5511811023622047,
                    "duration": 0.44887799999997924
                },
                {
                    "name": "E5",
                    "midi": 76,
                    "time": 306.583674000004,
                    "velocity": 0.5511811023622047,
                    "duration": 0.5985039999999913
                },
                {
                    "name": "C5",
                    "midi": 72,
                    "time": 306.583674000004,
                    "velocity": 0.4645669291338583,
                    "duration": 0.5985039999999913
                },
                {
                    "name": "E4",
                    "midi": 64,
                    "time": 306.583674000004,
                    "velocity": 0.4645669291338583,
                    "duration": 0.5985039999999913
                },
                {
                    "name": "A4",
                    "midi": 69,
                    "time": 307.032552000004,
                    "velocity": 0.5196850393700787,
                    "duration": 0.14962600000001203
                },
                {
                    "name": "E5",
                    "midi": 76,
                    "time": 307.481430000004,
                    "velocity": 0.5511811023622047,
                    "duration": 0.5985039999999913
                },
                {
                    "name": "G#4",
                    "midi": 68,
                    "time": 307.481430000004,
                    "velocity": 0.5511811023622047,
                    "duration": 0.44887799999997924
                },
                {
                    "name": "C5",
                    "midi": 72,
                    "time": 307.481430000004,
                    "velocity": 0.4645669291338583,
                    "duration": 0.5985039999999913
                },
                {
                    "name": "E4",
                    "midi": 64,
                    "time": 307.481430000004,
                    "velocity": 0.4645669291338583,
                    "duration": 0.5985039999999913
                },
                {
                    "name": "A4",
                    "midi": 69,
                    "time": 307.930308000004,
                    "velocity": 0.5196850393700787,
                    "duration": 0.14962600000001203
                },
                {
                    "name": "G#4",
                    "midi": 68,
                    "time": 308.37918600000404,
                    "velocity": 0.5511811023622047,
                    "duration": 0.40523708333336117
                },
                {
                    "name": "E4",
                    "midi": 64,
                    "time": 308.37918600000404,
                    "velocity": 0.4645669291338583,
                    "duration": 0.40523708333336117
                },
                {
                    "name": "C5",
                    "midi": 72,
                    "time": 308.37918600000404,
                    "velocity": 0.4645669291338583,
                    "duration": 0.40523708333336117
                },
                {
                    "name": "E5",
                    "midi": 76,
                    "time": 308.37918600000404,
                    "velocity": 0.5511811023622047,
                    "duration": 0.40523708333336117
                },
                {
                    "name": "F4",
                    "midi": 65,
                    "time": 308.79065750000404,
                    "velocity": 0.3858267716535433,
                    "duration": 0.4862844999999538
                },
                {
                    "name": "C5",
                    "midi": 72,
                    "time": 308.80936075000403,
                    "velocity": 0.3858267716535433,
                    "duration": 0.44451390833330606
                },
                {
                    "name": "F5",
                    "midi": 77,
                    "time": 308.828064000004,
                    "velocity": 0.4645669291338583,
                    "duration": 0.44451390833330606
                },
                {
                    "name": "E4",
                    "midi": 64,
                    "time": 309.276942000004,
                    "velocity": 0.3543307086614173,
                    "duration": 0.44451390833330606
                },
                {
                    "name": "C5",
                    "midi": 72,
                    "time": 309.276942000004,
                    "velocity": 0.3543307086614173,
                    "duration": 0.44451390833330606
                },
                {
                    "name": "E5",
                    "midi": 76,
                    "time": 309.276942000004,
                    "velocity": 0.41732283464566927,
                    "duration": 0.44451390833330606
                },
                {
                    "name": "A4",
                    "midi": 69,
                    "time": 309.725820000004,
                    "velocity": 0.3858267716535433,
                    "duration": 0.44451390833330606
                },
                {
                    "name": "D5",
                    "midi": 74,
                    "time": 309.725820000004,
                    "velocity": 0.4645669291338583,
                    "duration": 0.44451390833330606
                },
                {
                    "name": "D4",
                    "midi": 62,
                    "time": 309.725820000004,
                    "velocity": 0.3858267716535433,
                    "duration": 0.44451390833330606
                },
                {
                    "name": "D4",
                    "midi": 62,
                    "time": 310.17469800000396,
                    "velocity": 0.30708661417322836,
                    "duration": 0.44451390833330606
                },
                {
                    "name": "C5",
                    "midi": 72,
                    "time": 310.17469800000396,
                    "velocity": 0.3700787401574803,
                    "duration": 0.44451390833330606
                },
                {
                    "name": "A4",
                    "midi": 69,
                    "time": 310.17469800000396,
                    "velocity": 0.30708661417322836,
                    "duration": 0.44451390833330606
                },
                {
                    "name": "D4",
                    "midi": 62,
                    "time": 310.62357600000394,
                    "velocity": 0.3543307086614173,
                    "duration": 0.44451390833330606
                },
                {
                    "name": "G4",
                    "midi": 67,
                    "time": 310.62357600000394,
                    "velocity": 0.3543307086614173,
                    "duration": 0.44451390833330606
                },
                {
                    "name": "B4",
                    "midi": 71,
                    "time": 310.62357600000394,
                    "velocity": 0.41732283464566927,
                    "duration": 0.44451390833330606
                },
                {
                    "name": "A5",
                    "midi": 81,
                    "time": 311.0724540000039,
                    "velocity": 0.4881889763779528,
                    "duration": 0.44451390833330606
                },
                {
                    "name": "B4",
                    "midi": 71,
                    "time": 311.0724540000039,
                    "velocity": 0.4094488188976378,
                    "duration": 0.44451390833330606
                },
                {
                    "name": "A4",
                    "midi": 69,
                    "time": 311.0724540000039,
                    "velocity": 0.4094488188976378,
                    "duration": 0.44451390833330606
                },
                {
                    "name": "G5",
                    "midi": 79,
                    "time": 311.5213320000039,
                    "velocity": 0.5039370078740157,
                    "duration": 0.44451390833330606
                },
                {
                    "name": "C5",
                    "midi": 72,
                    "time": 311.5213320000039,
                    "velocity": 0.4251968503937008,
                    "duration": 0.44451390833330606
                },
                {
                    "name": "G4",
                    "midi": 67,
                    "time": 311.5213320000039,
                    "velocity": 0.4251968503937008,
                    "duration": 0.44451390833330606
                },
                {
                    "name": "F4",
                    "midi": 65,
                    "time": 311.9702100000039,
                    "velocity": 0.36220472440944884,
                    "duration": 0.44451390833330606
                },
                {
                    "name": "F5",
                    "midi": 77,
                    "time": 311.9702100000039,
                    "velocity": 0.4330708661417323,
                    "duration": 0.44451390833330606
                },
                {
                    "name": "B4",
                    "midi": 71,
                    "time": 311.9702100000039,
                    "velocity": 0.36220472440944884,
                    "duration": 0.44451390833330606
                },
                {
                    "name": "E4",
                    "midi": 64,
                    "time": 312.41908800000385,
                    "velocity": 0.4251968503937008,
                    "duration": 0.44887799999997924
                },
                {
                    "name": "C5",
                    "midi": 72,
                    "time": 312.41908800000385,
                    "velocity": 0.4251968503937008,
                    "duration": 0.44887799999997924
                },
                {
                    "name": "E5",
                    "midi": 76,
                    "time": 312.41908800000385,
                    "velocity": 0.5039370078740157,
                    "duration": 0.44887799999997924
                },
                {
                    "name": "A#4",
                    "midi": 70,
                    "time": 312.86796600000383,
                    "velocity": 0.36220472440944884,
                    "duration": 0.40523708333336117
                },
                {
                    "name": "G5",
                    "midi": 79,
                    "time": 312.86796600000383,
                    "velocity": 0.4330708661417323,
                    "duration": 0.40523708333336117
                },
                {
                    "name": "G4",
                    "midi": 67,
                    "time": 312.86796600000383,
                    "velocity": 0.36220472440944884,
                    "duration": 0.40523708333336117
                },
                {
                    "name": "A#4",
                    "midi": 70,
                    "time": 313.27943750000384,
                    "velocity": 0.30708661417322836,
                    "duration": 0.037406499999974585
                },
                {
                    "name": "G5",
                    "midi": 79,
                    "time": 313.27943750000384,
                    "velocity": 0.3700787401574803,
                    "duration": 0.037406499999974585
                },
                {
                    "name": "A4",
                    "midi": 69,
                    "time": 313.3168440000038,
                    "velocity": 0.4094488188976378,
                    "duration": 0.1795511999999917
                },
                {
                    "name": "F5",
                    "midi": 77,
                    "time": 313.3168440000038,
                    "velocity": 0.4881889763779528,
                    "duration": 0.1795511999999917
                },
                {
                    "name": "E5",
                    "midi": 76,
                    "time": 313.54128300000383,
                    "velocity": 0.4330708661417323,
                    "duration": 0.1795511999999917
                },
                {
                    "name": "G4",
                    "midi": 67,
                    "time": 313.54128300000383,
                    "velocity": 0.36220472440944884,
                    "duration": 0.1795511999999917
                },
                {
                    "name": "A4",
                    "midi": 69,
                    "time": 313.76572200000385,
                    "velocity": 0.4251968503937008,
                    "duration": 0.1795511999999917
                },
                {
                    "name": "F5",
                    "midi": 77,
                    "time": 313.76572200000385,
                    "velocity": 0.5039370078740157,
                    "duration": 0.1795511999999917
                },
                {
                    "name": "D5",
                    "midi": 74,
                    "time": 313.99016100000387,
                    "velocity": 0.4330708661417323,
                    "duration": 0.1795511999999917
                },
                {
                    "name": "F4",
                    "midi": 65,
                    "time": 313.99016100000387,
                    "velocity": 0.36220472440944884,
                    "duration": 0.1795511999999917
                },
                {
                    "name": "A4",
                    "midi": 69,
                    "time": 314.2146000000039,
                    "velocity": 0.3937007874015748,
                    "duration": 0.1795511999999917
                },
                {
                    "name": "E4",
                    "midi": 64,
                    "time": 314.2146000000039,
                    "velocity": 0.3937007874015748,
                    "duration": 0.1795511999999917
                },
                {
                    "name": "D5",
                    "midi": 74,
                    "time": 314.2146000000039,
                    "velocity": 0.4645669291338583,
                    "duration": 0.1795511999999917
                },
                {
                    "name": "C5",
                    "midi": 72,
                    "time": 314.4390390000039,
                    "velocity": 0.4015748031496063,
                    "duration": 0.1795511999999917
                },
                {
                    "name": "E4",
                    "midi": 64,
                    "time": 314.4390390000039,
                    "velocity": 0.33858267716535434,
                    "duration": 0.1795511999999917
                },
                {
                    "name": "A4",
                    "midi": 69,
                    "time": 314.4390390000039,
                    "velocity": 0.33858267716535434,
                    "duration": 0.1795511999999917
                },
                {
                    "name": "A4",
                    "midi": 69,
                    "time": 314.6634780000039,
                    "velocity": 0.3937007874015748,
                    "duration": 0.1795511999999917
                },
                {
                    "name": "E4",
                    "midi": 64,
                    "time": 314.6634780000039,
                    "velocity": 0.3937007874015748,
                    "duration": 0.1795511999999917
                },
                {
                    "name": "B4",
                    "midi": 71,
                    "time": 314.6634780000039,
                    "velocity": 0.4645669291338583,
                    "duration": 0.1795511999999917
                },
                {
                    "name": "A4",
                    "midi": 69,
                    "time": 314.88791700000394,
                    "velocity": 0.4251968503937008,
                    "duration": 0.1795511999999917
                },
                {
                    "name": "C5",
                    "midi": 72,
                    "time": 314.88791700000394,
                    "velocity": 0.5039370078740157,
                    "duration": 0.1795511999999917
                },
                {
                    "name": "E4",
                    "midi": 64,
                    "time": 314.88791700000394,
                    "velocity": 0.4251968503937008,
                    "duration": 0.1795511999999917
                },
                {
                    "name": "F4",
                    "midi": 65,
                    "time": 315.11235600000396,
                    "velocity": 0.47244094488188976,
                    "duration": 0.8977560000000153
                },
                {
                    "name": "B4",
                    "midi": 71,
                    "time": 315.11235600000396,
                    "velocity": 0.47244094488188976,
                    "duration": 0.8977560000000153
                },
                {
                    "name": "E5",
                    "midi": 76,
                    "time": 315.11235600000396,
                    "velocity": 0.5590551181102362,
                    "duration": 0.7481300000000033
                },
                {
                    "name": "D5",
                    "midi": 74,
                    "time": 315.86048600000396,
                    "velocity": 0.4881889763779528,
                    "duration": 0.14962600000001203
                },
                {
                    "name": "E4",
                    "midi": 64,
                    "time": 316.01011200000397,
                    "velocity": 0.3858267716535433,
                    "duration": 0.14962600000001203
                },
                {
                    "name": "C5",
                    "midi": 72,
                    "time": 316.01011200000397,
                    "velocity": 0.4566929133858268,
                    "duration": 0.14962600000001203
                },
                {
                    "name": "A5",
                    "midi": 81,
                    "time": 316.458990000004,
                    "velocity": 0.5511811023622047,
                    "duration": 0.5985039999999913
                },
                {
                    "name": "A4",
                    "midi": 69,
                    "time": 316.458990000004,
                    "velocity": 0.4645669291338583,
                    "duration": 0.5985039999999913
                },
                {
                    "name": "C#5",
                    "midi": 73,
                    "time": 316.458990000004,
                    "velocity": 0.5511811023622047,
                    "duration": 0.44887799999997924
                },
                {
                    "name": "F5",
                    "midi": 77,
                    "time": 316.458990000004,
                    "velocity": 0.4645669291338583,
                    "duration": 0.5985039999999913
                },
                {
                    "name": "D5",
                    "midi": 74,
                    "time": 316.907868000004,
                    "velocity": 0.5196850393700787,
                    "duration": 0.14962600000001203
                },
                {
                    "name": "A4",
                    "midi": 69,
                    "time": 317.356746000004,
                    "velocity": 0.4645669291338583,
                    "duration": 0.5985039999999913
                },
                {
                    "name": "C#5",
                    "midi": 73,
                    "time": 317.356746000004,
                    "velocity": 0.5511811023622047,
                    "duration": 0.44887799999997924
                },
                {
                    "name": "A5",
                    "midi": 81,
                    "time": 317.356746000004,
                    "velocity": 0.5511811023622047,
                    "duration": 0.5985039999999913
                },
                {
                    "name": "F5",
                    "midi": 77,
                    "time": 317.356746000004,
                    "velocity": 0.4645669291338583,
                    "duration": 0.5985039999999913
                },
                {
                    "name": "D5",
                    "midi": 74,
                    "time": 317.805624000004,
                    "velocity": 0.5196850393700787,
                    "duration": 0.14962600000001203
                },
                {
                    "name": "A4",
                    "midi": 69,
                    "time": 318.25450200000404,
                    "velocity": 0.4645669291338583,
                    "duration": 0.5985039999999913
                },
                {
                    "name": "F5",
                    "midi": 77,
                    "time": 318.25450200000404,
                    "velocity": 0.4645669291338583,
                    "duration": 0.5985039999999913
                },
                {
                    "name": "C#5",
                    "midi": 73,
                    "time": 318.25450200000404,
                    "velocity": 0.5511811023622047,
                    "duration": 0.44887799999997924
                },
                {
                    "name": "A5",
                    "midi": 81,
                    "time": 318.25450200000404,
                    "velocity": 0.5511811023622047,
                    "duration": 0.5985039999999913
                },
                {
                    "name": "D5",
                    "midi": 74,
                    "time": 318.703380000004,
                    "velocity": 0.5196850393700787,
                    "duration": 0.14962600000001203
                },
                {
                    "name": "A4",
                    "midi": 69,
                    "time": 319.15225800000405,
                    "velocity": 0.4645669291338583,
                    "duration": 0.40523708333336117
                },
                {
                    "name": "C#5",
                    "midi": 73,
                    "time": 319.15225800000405,
                    "velocity": 0.5511811023622047,
                    "duration": 0.40523708333336117
                },
                {
                    "name": "A5",
                    "midi": 81,
                    "time": 319.15225800000405,
                    "velocity": 0.5511811023622047,
                    "duration": 0.40523708333336117
                },
                {
                    "name": "F5",
                    "midi": 77,
                    "time": 319.15225800000405,
                    "velocity": 0.4645669291338583,
                    "duration": 0.40523708333336117
                },
                {
                    "name": "A#4",
                    "midi": 70,
                    "time": 319.56372950000406,
                    "velocity": 0.3858267716535433,
                    "duration": 0.4862845000000675
                },
                {
                    "name": "F5",
                    "midi": 77,
                    "time": 319.5761983333374,
                    "velocity": 0.4015748031496063,
                    "duration": 0.4488780000000361
                },
                {
                    "name": "C6",
                    "midi": 84,
                    "time": 319.58866716667075,
                    "velocity": 0.4015748031496063,
                    "duration": 0.01246883333334381
                },
                {
                    "name": "A#5",
                    "midi": 82,
                    "time": 319.6011360000041,
                    "velocity": 0.4881889763779528,
                    "duration": 0.4488780000000361
                },
                {
                    "name": "F5",
                    "midi": 77,
                    "time": 320.0500140000041,
                    "velocity": 0.3543307086614173,
                    "duration": 0.44887799999997924
                },
                {
                    "name": "A5",
                    "midi": 81,
                    "time": 320.0500140000041,
                    "velocity": 0.41732283464566927,
                    "duration": 0.44887799999997924
                },
                {
                    "name": "A4",
                    "midi": 69,
                    "time": 320.0500140000041,
                    "velocity": 0.3543307086614173,
                    "duration": 0.44887799999997924
                },
                {
                    "name": "G5",
                    "midi": 79,
                    "time": 320.4988920000041,
                    "velocity": 0.4645669291338583,
                    "duration": 0.44451390833330606
                },
                {
                    "name": "G4",
                    "midi": 67,
                    "time": 320.4988920000041,
                    "velocity": 0.3858267716535433,
                    "duration": 0.44451390833330606
                },
                {
                    "name": "D5",
                    "midi": 74,
                    "time": 320.4988920000041,
                    "velocity": 0.3858267716535433,
                    "duration": 0.44451390833330606
                },
                {
                    "name": "F5",
                    "midi": 77,
                    "time": 320.9477700000041,
                    "velocity": 0.3700787401574803,
                    "duration": 0.44451390833330606
                },
                {
                    "name": "D5",
                    "midi": 74,
                    "time": 320.9477700000041,
                    "velocity": 0.30708661417322836,
                    "duration": 0.44451390833330606
                },
                {
                    "name": "G4",
                    "midi": 67,
                    "time": 320.9477700000041,
                    "velocity": 0.30708661417322836,
                    "duration": 0.44451390833330606
                },
                {
                    "name": "E5",
                    "midi": 76,
                    "time": 321.39664800000406,
                    "velocity": 0.41732283464566927,
                    "duration": 0.44451390833330606
                },
                {
                    "name": "G4",
                    "midi": 67,
                    "time": 321.39664800000406,
                    "velocity": 0.3543307086614173,
                    "duration": 0.44451390833330606
                },
                {
                    "name": "C5",
                    "midi": 72,
                    "time": 321.39664800000406,
                    "velocity": 0.3543307086614173,
                    "duration": 0.44451390833330606
                },
                {
                    "name": "D5",
                    "midi": 74,
                    "time": 321.84552600000404,
                    "velocity": 0.3543307086614173,
                    "duration": 0.44451390833330606
                },
                {
                    "name": "G4",
                    "midi": 67,
                    "time": 321.84552600000404,
                    "velocity": 0.2992125984251969,
                    "duration": 0.44451390833330606
                },
                {
                    "name": "F4",
                    "midi": 65,
                    "time": 321.84552600000404,
                    "velocity": 0.2992125984251969,
                    "duration": 0.44451390833330606
                },
                {
                    "name": "C5",
                    "midi": 72,
                    "time": 322.294404000004,
                    "velocity": 0.41732283464566927,
                    "duration": 0.44451390833330606
                },
                {
                    "name": "G4",
                    "midi": 67,
                    "time": 322.294404000004,
                    "velocity": 0.3543307086614173,
                    "duration": 0.44451390833330606
                },
                {
                    "name": "E4",
                    "midi": 64,
                    "time": 322.294404000004,
                    "velocity": 0.3543307086614173,
                    "duration": 0.44451390833330606
                },
                {
                    "name": "G4",
                    "midi": 67,
                    "time": 322.743282000004,
                    "velocity": 0.29133858267716534,
                    "duration": 0.44451390833330606
                },
                {
                    "name": "E4",
                    "midi": 64,
                    "time": 322.743282000004,
                    "velocity": 0.29133858267716534,
                    "duration": 0.44451390833330606
                },
                {
                    "name": "A#4",
                    "midi": 70,
                    "time": 322.743282000004,
                    "velocity": 0.3543307086614173,
                    "duration": 0.44451390833330606
                },
                {
                    "name": "F4",
                    "midi": 65,
                    "time": 323.192160000004,
                    "velocity": 0.29133858267716534,
                    "duration": 0.14962600000001203
                },
                {
                    "name": "A4",
                    "midi": 69,
                    "time": 323.192160000004,
                    "velocity": 0.33858267716535434,
                    "duration": 0.14962600000001203
                },
                {
                    "name": "A5",
                    "midi": 81,
                    "time": 323.641038000004,
                    "velocity": 0.5511811023622047,
                    "duration": 0.5985039999999913
                },
                {
                    "name": "A4",
                    "midi": 69,
                    "time": 323.641038000004,
                    "velocity": 0.4645669291338583,
                    "duration": 0.5985039999999913
                },
                {
                    "name": "C#5",
                    "midi": 73,
                    "time": 323.641038000004,
                    "velocity": 0.5511811023622047,
                    "duration": 0.44887799999997924
                },
                {
                    "name": "F5",
                    "midi": 77,
                    "time": 323.641038000004,
                    "velocity": 0.4645669291338583,
                    "duration": 0.5985039999999913
                },
                {
                    "name": "D5",
                    "midi": 74,
                    "time": 324.089916000004,
                    "velocity": 0.5196850393700787,
                    "duration": 0.14962600000001203
                },
                {
                    "name": "A5",
                    "midi": 81,
                    "time": 324.53879400000403,
                    "velocity": 0.5511811023622047,
                    "duration": 0.5985039999999913
                },
                {
                    "name": "E5",
                    "midi": 76,
                    "time": 324.53879400000403,
                    "velocity": 0.4645669291338583,
                    "duration": 0.44887799999997924
                },
                {
                    "name": "A4",
                    "midi": 69,
                    "time": 324.53879400000403,
                    "velocity": 0.4645669291338583,
                    "duration": 0.5985039999999913
                },
                {
                    "name": "F5",
                    "midi": 77,
                    "time": 324.987672000004,
                    "velocity": 0.5196850393700787,
                    "duration": 0.14962600000001203
                },
                {
                    "name": "C5",
                    "midi": 72,
                    "time": 325.43655000000405,
                    "velocity": 0.4645669291338583,
                    "duration": 0.5985039999999913
                },
                {
                    "name": "A5",
                    "midi": 81,
                    "time": 325.43655000000405,
                    "velocity": 0.4645669291338583,
                    "duration": 0.5985039999999913
                },
                {
                    "name": "E5",
                    "midi": 76,
                    "time": 325.43655000000405,
                    "velocity": 0.5511811023622047,
                    "duration": 0.44887799999997924
                },
                {
                    "name": "C6",
                    "midi": 84,
                    "time": 325.43655000000405,
                    "velocity": 0.5511811023622047,
                    "duration": 0.5985039999999913
                },
                {
                    "name": "F5",
                    "midi": 77,
                    "time": 325.885428000004,
                    "velocity": 0.5196850393700787,
                    "duration": 0.14962600000001203
                },
                {
                    "name": "G#5",
                    "midi": 80,
                    "time": 326.33430600000406,
                    "velocity": 0.4645669291338583,
                    "duration": 0.44887799999997924
                },
                {
                    "name": "C6",
                    "midi": 84,
                    "time": 326.33430600000406,
                    "velocity": 0.5984251968503937,
                    "duration": 0.5985039999999913
                },
                {
                    "name": "C5",
                    "midi": 72,
                    "time": 326.33430600000406,
                    "velocity": 0.4645669291338583,
                    "duration": 0.5985039999999913
                },
                {
                    "name": "A5",
                    "midi": 81,
                    "time": 326.78318400000404,
                    "velocity": 0.5748031496062992,
                    "duration": 0.14962600000001203
                },
                {
                    "name": "E5",
                    "midi": 76,
                    "time": 327.2320620000041,
                    "velocity": 0.5511811023622047,
                    "duration": 0.40523708333336117
                },
                {
                    "name": "E6",
                    "midi": 88,
                    "time": 327.2320620000041,
                    "velocity": 0.5511811023622047,
                    "duration": 0.40523708333336117
                },
                {
                    "name": "C6",
                    "midi": 84,
                    "time": 327.2320620000041,
                    "velocity": 0.4645669291338583,
                    "duration": 0.40523708333336117
                },
                {
                    "name": "F5",
                    "midi": 77,
                    "time": 327.6435335000041,
                    "velocity": 0.4409448818897638,
                    "duration": 0.4862845000000675
                },
                {
                    "name": "C6",
                    "midi": 84,
                    "time": 327.6560023333374,
                    "velocity": 0.4094488188976378,
                    "duration": 0.4488780000000361
                },
                {
                    "name": "G6",
                    "midi": 91,
                    "time": 327.66847116667077,
                    "velocity": 0.4015748031496063,
                    "duration": 0.01246883333334381
                },
                {
                    "name": "F6",
                    "midi": 89,
                    "time": 327.6809400000041,
                    "velocity": 0.5826771653543307,
                    "duration": 0.4488780000000361
                },
                {
                    "name": "E6",
                    "midi": 88,
                    "time": 328.12981800000415,
                    "velocity": 0.47244094488188976,
                    "duration": 0.44451390833330606
                },
                {
                    "name": "E5",
                    "midi": 76,
                    "time": 328.12981800000415,
                    "velocity": 0.4015748031496063,
                    "duration": 0.44451390833330606
                },
                {
                    "name": "C6",
                    "midi": 84,
                    "time": 328.12981800000415,
                    "velocity": 0.4015748031496063,
                    "duration": 0.44451390833330606
                },
                {
                    "name": "A5",
                    "midi": 81,
                    "time": 328.57869600000413,
                    "velocity": 0.4409448818897638,
                    "duration": 0.44451390833330606
                },
                {
                    "name": "D6",
                    "midi": 86,
                    "time": 328.57869600000413,
                    "velocity": 0.5275590551181102,
                    "duration": 0.44451390833330606
                },
                {
                    "name": "D5",
                    "midi": 74,
                    "time": 328.57869600000413,
                    "velocity": 0.4409448818897638,
                    "duration": 0.44451390833330606
                },
                {
                    "name": "D5",
                    "midi": 74,
                    "time": 329.0275740000041,
                    "velocity": 0.3464566929133858,
                    "duration": 0.44451390833330606
                },
                {
                    "name": "A5",
                    "midi": 81,
                    "time": 329.0275740000041,
                    "velocity": 0.3464566929133858,
                    "duration": 0.44451390833330606
                },
                {
                    "name": "C5",
                    "midi": 72,
                    "time": 329.0275740000041,
                    "velocity": 0.3464566929133858,
                    "duration": 0.44451390833330606
                },
                {
                    "name": "C6",
                    "midi": 84,
                    "time": 329.0275740000041,
                    "velocity": 0.4251968503937008,
                    "duration": 0.44451390833330606
                },
                {
                    "name": "D5",
                    "midi": 74,
                    "time": 329.4764520000041,
                    "velocity": 0.4015748031496063,
                    "duration": 0.4102246166666532
                },
                {
                    "name": "G5",
                    "midi": 79,
                    "time": 329.4764520000041,
                    "velocity": 0.4015748031496063,
                    "duration": 0.4102246166666532
                },
                {
                    "name": "B5",
                    "midi": 83,
                    "time": 329.4764520000041,
                    "velocity": 0.47244094488188976,
                    "duration": 0.4102246166666532
                },
                {
                    "name": "B4",
                    "midi": 71,
                    "time": 329.4764520000041,
                    "velocity": 0.4015748031496063,
                    "duration": 0.4102246166666532
                },
                {
                    "name": "A5",
                    "midi": 81,
                    "time": 329.8879235000041,
                    "velocity": 0.4645669291338583,
                    "duration": 0.4862844999999538
                },
                {
                    "name": "B5",
                    "midi": 83,
                    "time": 329.9066267500041,
                    "velocity": 0.4645669291338583,
                    "duration": 0.46758124999996653
                },
                {
                    "name": "A6",
                    "midi": 93,
                    "time": 329.92533000000407,
                    "velocity": 0.5590551181102362,
                    "duration": 0.44887799999997924
                },
                {
                    "name": "G6",
                    "midi": 91,
                    "time": 330.37420800000405,
                    "velocity": 0.5748031496062992,
                    "duration": 0.44451390833330606
                },
                {
                    "name": "C6",
                    "midi": 84,
                    "time": 330.37420800000405,
                    "velocity": 0.4881889763779528,
                    "duration": 0.44451390833330606
                },
                {
                    "name": "G5",
                    "midi": 79,
                    "time": 330.37420800000405,
                    "velocity": 0.4881889763779528,
                    "duration": 0.44451390833330606
                },
                {
                    "name": "B5",
                    "midi": 83,
                    "time": 330.823086000004,
                    "velocity": 0.4094488188976378,
                    "duration": 0.44451390833330606
                },
                {
                    "name": "F5",
                    "midi": 77,
                    "time": 330.823086000004,
                    "velocity": 0.4094488188976378,
                    "duration": 0.44451390833330606
                },
                {
                    "name": "F6",
                    "midi": 89,
                    "time": 330.823086000004,
                    "velocity": 0.49606299212598426,
                    "duration": 0.44451390833330606
                },
                {
                    "name": "E6",
                    "midi": 88,
                    "time": 331.271964000004,
                    "velocity": 0.5748031496062992,
                    "duration": 0.44451390833330606
                },
                {
                    "name": "C6",
                    "midi": 84,
                    "time": 331.271964000004,
                    "velocity": 0.4881889763779528,
                    "duration": 0.44451390833330606
                },
                {
                    "name": "E5",
                    "midi": 76,
                    "time": 331.271964000004,
                    "velocity": 0.4881889763779528,
                    "duration": 0.44451390833330606
                },
                {
                    "name": "G5",
                    "midi": 79,
                    "time": 331.720842000004,
                    "velocity": 0.4094488188976378,
                    "duration": 0.40523708333336117
                },
                {
                    "name": "A#5",
                    "midi": 82,
                    "time": 331.720842000004,
                    "velocity": 0.4094488188976378,
                    "duration": 0.40523708333336117
                },
                {
                    "name": "G6",
                    "midi": 91,
                    "time": 331.720842000004,
                    "velocity": 0.49606299212598426,
                    "duration": 0.40523708333336117
                },
                {
                    "name": "G5",
                    "midi": 79,
                    "time": 332.132313500004,
                    "velocity": 0.33070866141732286,
                    "duration": 0.037406499999974585
                },
                {
                    "name": "A#5",
                    "midi": 82,
                    "time": 332.132313500004,
                    "velocity": 0.33070866141732286,
                    "duration": 0.037406499999974585
                },
                {
                    "name": "G6",
                    "midi": 91,
                    "time": 332.132313500004,
                    "velocity": 0.4015748031496063,
                    "duration": 0.037406499999974585
                },
                {
                    "name": "F5",
                    "midi": 77,
                    "time": 332.16972000000396,
                    "velocity": 0.44881889763779526,
                    "duration": 0.1795511999999917
                },
                {
                    "name": "F6",
                    "midi": 89,
                    "time": 332.16972000000396,
                    "velocity": 0.5354330708661418,
                    "duration": 0.1795511999999917
                },
                {
                    "name": "A5",
                    "midi": 81,
                    "time": 332.16972000000396,
                    "velocity": 0.44881889763779526,
                    "duration": 0.1795511999999917
                },
                {
                    "name": "E6",
                    "midi": 88,
                    "time": 332.394159000004,
                    "velocity": 0.47244094488188976,
                    "duration": 0.1795511999999917
                },
                {
                    "name": "E5",
                    "midi": 76,
                    "time": 332.394159000004,
                    "velocity": 0.3937007874015748,
                    "duration": 0.1795511999999917
                },
                {
                    "name": "G5",
                    "midi": 79,
                    "time": 332.394159000004,
                    "velocity": 0.3937007874015748,
                    "duration": 0.1795511999999917
                },
                {
                    "name": "F5",
                    "midi": 77,
                    "time": 332.618598000004,
                    "velocity": 0.4645669291338583,
                    "duration": 0.1795511999999917
                },
                {
                    "name": "A5",
                    "midi": 81,
                    "time": 332.618598000004,
                    "velocity": 0.4645669291338583,
                    "duration": 0.1795511999999917
                },
                {
                    "name": "F6",
                    "midi": 89,
                    "time": 332.618598000004,
                    "velocity": 0.5511811023622047,
                    "duration": 0.1795511999999917
                },
                {
                    "name": "D5",
                    "midi": 74,
                    "time": 332.843037000004,
                    "velocity": 0.3937007874015748,
                    "duration": 0.1795511999999917
                },
                {
                    "name": "A5",
                    "midi": 81,
                    "time": 332.843037000004,
                    "velocity": 0.3937007874015748,
                    "duration": 0.1795511999999917
                },
                {
                    "name": "D6",
                    "midi": 86,
                    "time": 332.843037000004,
                    "velocity": 0.47244094488188976,
                    "duration": 0.1795511999999917
                },
                {
                    "name": "E5",
                    "midi": 76,
                    "time": 333.06747600000404,
                    "velocity": 0.4330708661417323,
                    "duration": 0.1795511999999917
                },
                {
                    "name": "D5",
                    "midi": 74,
                    "time": 333.06747600000404,
                    "velocity": 0.4330708661417323,
                    "duration": 0.1795511999999917
                },
                {
                    "name": "D6",
                    "midi": 86,
                    "time": 333.06747600000404,
                    "velocity": 0.5039370078740157,
                    "duration": 0.1795511999999917
                },
                {
                    "name": "A5",
                    "midi": 81,
                    "time": 333.06747600000404,
                    "velocity": 0.4330708661417323,
                    "duration": 0.1795511999999917
                },
                {
                    "name": "C5",
                    "midi": 72,
                    "time": 333.29191500000405,
                    "velocity": 0.3700787401574803,
                    "duration": 0.1795511999999917
                },
                {
                    "name": "C6",
                    "midi": 84,
                    "time": 333.29191500000405,
                    "velocity": 0.4409448818897638,
                    "duration": 0.1795511999999917
                },
                {
                    "name": "E5",
                    "midi": 76,
                    "time": 333.29191500000405,
                    "velocity": 0.3700787401574803,
                    "duration": 0.1795511999999917
                },
                {
                    "name": "A5",
                    "midi": 81,
                    "time": 333.29191500000405,
                    "velocity": 0.3700787401574803,
                    "duration": 0.1795511999999917
                },
                {
                    "name": "B5",
                    "midi": 83,
                    "time": 333.51635400000407,
                    "velocity": 0.5039370078740157,
                    "duration": 0.1795511999999917
                },
                {
                    "name": "E5",
                    "midi": 76,
                    "time": 333.51635400000407,
                    "velocity": 0.4330708661417323,
                    "duration": 0.1795511999999917
                },
                {
                    "name": "B4",
                    "midi": 71,
                    "time": 333.51635400000407,
                    "velocity": 0.4330708661417323,
                    "duration": 0.1795511999999917
                },
                {
                    "name": "A5",
                    "midi": 81,
                    "time": 333.51635400000407,
                    "velocity": 0.4330708661417323,
                    "duration": 0.1795511999999917
                },
                {
                    "name": "C6",
                    "midi": 84,
                    "time": 333.7407930000041,
                    "velocity": 0.5511811023622047,
                    "duration": 0.1795511999999917
                },
                {
                    "name": "E5",
                    "midi": 76,
                    "time": 333.7407930000041,
                    "velocity": 0.4645669291338583,
                    "duration": 0.1795511999999917
                },
                {
                    "name": "C5",
                    "midi": 72,
                    "time": 333.7407930000041,
                    "velocity": 0.4645669291338583,
                    "duration": 0.1795511999999917
                },
                {
                    "name": "A5",
                    "midi": 81,
                    "time": 333.7407930000041,
                    "velocity": 0.4645669291338583,
                    "duration": 0.1795511999999917
                },
                {
                    "name": "E6",
                    "midi": 88,
                    "time": 333.9652320000041,
                    "velocity": 0.5590551181102362,
                    "duration": 0.7481300000000033
                },
                {
                    "name": "B5",
                    "midi": 83,
                    "time": 333.9652320000041,
                    "velocity": 0.47244094488188976,
                    "duration": 0.8977560000000153
                },
                {
                    "name": "E5",
                    "midi": 76,
                    "time": 333.9652320000041,
                    "velocity": 0.47244094488188976,
                    "duration": 0.7481300000000033
                },
                {
                    "name": "F5",
                    "midi": 77,
                    "time": 333.9652320000041,
                    "velocity": 0.47244094488188976,
                    "duration": 0.8977560000000153
                },
                {
                    "name": "D6",
                    "midi": 86,
                    "time": 334.7133620000041,
                    "velocity": 0.4881889763779528,
                    "duration": 0.14962600000001203
                },
                {
                    "name": "D5",
                    "midi": 74,
                    "time": 334.7133620000041,
                    "velocity": 0.4094488188976378,
                    "duration": 0.14962600000001203
                },
                {
                    "name": "C5",
                    "midi": 72,
                    "time": 334.8629880000041,
                    "velocity": 0.3858267716535433,
                    "duration": 0.07481300000000601
                },
                {
                    "name": "G5",
                    "midi": 79,
                    "time": 334.8629880000041,
                    "velocity": 0.3858267716535433,
                    "duration": 0.07481300000000601
                },
                {
                    "name": "C6",
                    "midi": 84,
                    "time": 334.8629880000041,
                    "velocity": 0.4566929133858268,
                    "duration": 0.07481300000000601
                },
                {
                    "name": "E5",
                    "midi": 76,
                    "time": 334.8629880000041,
                    "velocity": 0.3858267716535433,
                    "duration": 0.07481300000000601
                },
                {
                    "name": "C6",
                    "midi": 84,
                    "time": 335.3118660000041,
                    "velocity": 0.5354330708661418,
                    "duration": 0.07481300000000601
                },
                {
                    "name": "E6",
                    "midi": 88,
                    "time": 335.3118660000041,
                    "velocity": 0.6377952755905512,
                    "duration": 0.07481300000000601
                },
                {
                    "name": "E5",
                    "midi": 76,
                    "time": 335.3118660000041,
                    "velocity": 0.5354330708661418,
                    "duration": 0.07481300000000601
                },
                {
                    "name": "D5",
                    "midi": 74,
                    "time": 335.7607440000041,
                    "velocity": 0.5275590551181102,
                    "duration": 0.07481300000000601
                },
                {
                    "name": "B5",
                    "midi": 83,
                    "time": 335.7607440000041,
                    "velocity": 0.5275590551181102,
                    "duration": 0.07481300000000601
                },
                {
                    "name": "D6",
                    "midi": 86,
                    "time": 335.7607440000041,
                    "velocity": 0.6220472440944882,
                    "duration": 0.07481300000000601
                },
                {
                    "name": "C6",
                    "midi": 84,
                    "time": 336.20962200000406,
                    "velocity": 0.5354330708661418,
                    "duration": 0.07481300000000601
                },
                {
                    "name": "E5",
                    "midi": 76,
                    "time": 336.20962200000406,
                    "velocity": 0.5354330708661418,
                    "duration": 0.07481300000000601
                },
                {
                    "name": "E6",
                    "midi": 88,
                    "time": 336.20962200000406,
                    "velocity": 0.6299212598425197,
                    "duration": 0.07481300000000601
                },
                {
                    "name": "D5",
                    "midi": 74,
                    "time": 336.65850000000404,
                    "velocity": 0.49606299212598426,
                    "duration": 0.07481300000000601
                },
                {
                    "name": "D6",
                    "midi": 86,
                    "time": 336.65850000000404,
                    "velocity": 0.5905511811023622,
                    "duration": 0.07481300000000601
                },
                {
                    "name": "B5",
                    "midi": 83,
                    "time": 336.65850000000404,
                    "velocity": 0.49606299212598426,
                    "duration": 0.07481300000000601
                },
                {
                    "name": "B6",
                    "midi": 95,
                    "time": 337.107378000004,
                    "velocity": 0.6141732283464567,
                    "duration": 0.14962600000001203
                },
                {
                    "name": "B5",
                    "midi": 83,
                    "time": 337.107378000004,
                    "velocity": 0.5196850393700787,
                    "duration": 0.14962600000001203
                },
                {
                    "name": "A6",
                    "midi": 93,
                    "time": 337.25700400000403,
                    "velocity": 0.5118110236220472,
                    "duration": 0.14962600000001203
                },
                {
                    "name": "B6",
                    "midi": 95,
                    "time": 337.40663000000404,
                    "velocity": 0.5118110236220472,
                    "duration": 0.14962600000001203
                },
                {
                    "name": "C6",
                    "midi": 84,
                    "time": 337.55625600000405,
                    "velocity": 0.5275590551181102,
                    "duration": 0.14962600000001203
                },
                {
                    "name": "C7",
                    "midi": 96,
                    "time": 337.55625600000405,
                    "velocity": 0.6220472440944882,
                    "duration": 0.14962600000001203
                },
                {
                    "name": "G6",
                    "midi": 91,
                    "time": 337.70588200000407,
                    "velocity": 0.5275590551181102,
                    "duration": 0.14962600000001203
                },
                {
                    "name": "E6",
                    "midi": 88,
                    "time": 337.8555080000041,
                    "velocity": 0.5275590551181102,
                    "duration": 0.14962600000001203
                },
                {
                    "name": "B5",
                    "midi": 83,
                    "time": 338.0051340000041,
                    "velocity": 0.5196850393700787,
                    "duration": 0.14962600000001203
                },
                {
                    "name": "B6",
                    "midi": 95,
                    "time": 338.0051340000041,
                    "velocity": 0.6141732283464567,
                    "duration": 0.14962600000001203
                },
                {
                    "name": "A6",
                    "midi": 93,
                    "time": 338.1547600000041,
                    "velocity": 0.49606299212598426,
                    "duration": 0.14962600000001203
                },
                {
                    "name": "B6",
                    "midi": 95,
                    "time": 338.3043860000041,
                    "velocity": 0.49606299212598426,
                    "duration": 0.14962600000001203
                },
                {
                    "name": "C7",
                    "midi": 96,
                    "time": 338.4540120000041,
                    "velocity": 0.5984251968503937,
                    "duration": 0.14962600000001203
                },
                {
                    "name": "C6",
                    "midi": 84,
                    "time": 338.4540120000041,
                    "velocity": 0.5039370078740157,
                    "duration": 0.14962600000001203
                },
                {
                    "name": "G6",
                    "midi": 91,
                    "time": 338.60363800000414,
                    "velocity": 0.5118110236220472,
                    "duration": 0.14962600000001203
                },
                {
                    "name": "E6",
                    "midi": 88,
                    "time": 338.75326400000415,
                    "velocity": 0.5118110236220472,
                    "duration": 0.14962600000001203
                },
                {
                    "name": "C6",
                    "midi": 84,
                    "time": 338.90289000000416,
                    "velocity": 0.5354330708661418,
                    "duration": 0.07481300000000601
                },
                {
                    "name": "E5",
                    "midi": 76,
                    "time": 338.90289000000416,
                    "velocity": 0.5354330708661418,
                    "duration": 0.07481300000000601
                },
                {
                    "name": "E6",
                    "midi": 88,
                    "time": 338.90289000000416,
                    "velocity": 0.6377952755905512,
                    "duration": 0.07481300000000601
                },
                {
                    "name": "D5",
                    "midi": 74,
                    "time": 339.35176800000414,
                    "velocity": 0.5275590551181102,
                    "duration": 0.07481300000000601
                },
                {
                    "name": "B5",
                    "midi": 83,
                    "time": 339.35176800000414,
                    "velocity": 0.5275590551181102,
                    "duration": 0.07481300000000601
                },
                {
                    "name": "D6",
                    "midi": 86,
                    "time": 339.35176800000414,
                    "velocity": 0.6220472440944882,
                    "duration": 0.07481300000000601
                },
                {
                    "name": "E5",
                    "midi": 76,
                    "time": 339.8006460000041,
                    "velocity": 0.5354330708661418,
                    "duration": 0.07481300000000601
                },
                {
                    "name": "C6",
                    "midi": 84,
                    "time": 339.8006460000041,
                    "velocity": 0.5354330708661418,
                    "duration": 0.07481300000000601
                },
                {
                    "name": "E6",
                    "midi": 88,
                    "time": 339.8006460000041,
                    "velocity": 0.6299212598425197,
                    "duration": 0.07481300000000601
                },
                {
                    "name": "B5",
                    "midi": 83,
                    "time": 340.2495240000041,
                    "velocity": 0.49606299212598426,
                    "duration": 0.07481300000000601
                },
                {
                    "name": "D5",
                    "midi": 74,
                    "time": 340.2495240000041,
                    "velocity": 0.49606299212598426,
                    "duration": 0.07481300000000601
                },
                {
                    "name": "D6",
                    "midi": 86,
                    "time": 340.2495240000041,
                    "velocity": 0.5905511811023622,
                    "duration": 0.07481300000000601
                },
                {
                    "name": "B6",
                    "midi": 95,
                    "time": 340.6984020000041,
                    "velocity": 0.6141732283464567,
                    "duration": 0.14962600000001203
                },
                {
                    "name": "B5",
                    "midi": 83,
                    "time": 340.6984020000041,
                    "velocity": 0.5196850393700787,
                    "duration": 0.14962600000001203
                },
                {
                    "name": "A6",
                    "midi": 93,
                    "time": 340.8480280000041,
                    "velocity": 0.5118110236220472,
                    "duration": 0.14962600000001203
                },
                {
                    "name": "B6",
                    "midi": 95,
                    "time": 340.9976540000041,
                    "velocity": 0.5118110236220472,
                    "duration": 0.14962600000001203
                },
                {
                    "name": "C7",
                    "midi": 96,
                    "time": 341.1472800000041,
                    "velocity": 0.6220472440944882,
                    "duration": 0.14962600000001203
                },
                {
                    "name": "C6",
                    "midi": 84,
                    "time": 341.1472800000041,
                    "velocity": 0.5275590551181102,
                    "duration": 0.14962600000001203
                },
                {
                    "name": "G6",
                    "midi": 91,
                    "time": 341.2969060000041,
                    "velocity": 0.5275590551181102,
                    "duration": 0.14962600000001203
                },
                {
                    "name": "E6",
                    "midi": 88,
                    "time": 341.44653200000414,
                    "velocity": 0.5275590551181102,
                    "duration": 0.14962600000001203
                },
                {
                    "name": "B6",
                    "midi": 95,
                    "time": 341.59615800000415,
                    "velocity": 0.6141732283464567,
                    "duration": 0.14962600000001203
                },
                {
                    "name": "B5",
                    "midi": 83,
                    "time": 341.59615800000415,
                    "velocity": 0.5196850393700787,
                    "duration": 0.14962600000001203
                },
                {
                    "name": "A6",
                    "midi": 93,
                    "time": 341.74578400000416,
                    "velocity": 0.49606299212598426,
                    "duration": 0.14962600000001203
                },
                {
                    "name": "B6",
                    "midi": 95,
                    "time": 341.8954100000042,
                    "velocity": 0.49606299212598426,
                    "duration": 0.14962600000001203
                },
                {
                    "name": "C7",
                    "midi": 96,
                    "time": 342.0450360000042,
                    "velocity": 0.5984251968503937,
                    "duration": 0.14962600000001203
                },
                {
                    "name": "C6",
                    "midi": 84,
                    "time": 342.0450360000042,
                    "velocity": 0.5039370078740157,
                    "duration": 0.14962600000001203
                },
                {
                    "name": "G6",
                    "midi": 91,
                    "time": 342.1946620000042,
                    "velocity": 0.5118110236220472,
                    "duration": 0.14962600000001203
                },
                {
                    "name": "E6",
                    "midi": 88,
                    "time": 342.3442880000042,
                    "velocity": 0.5118110236220472,
                    "duration": 0.1122194999999806
                },
                {
                    "name": "E6",
                    "midi": 88,
                    "time": 342.49391400000417,
                    "velocity": 0.5039370078740157,
                    "duration": 0.14962600000001203
                },
                {
                    "name": "E7",
                    "midi": 100,
                    "time": 342.49391400000417,
                    "velocity": 0.5984251968503937,
                    "duration": 0.14962600000001203
                },
                {
                    "name": "C7",
                    "midi": 96,
                    "time": 342.6435400000042,
                    "velocity": 0.5118110236220472,
                    "duration": 0.14962600000001203
                },
                {
                    "name": "A6",
                    "midi": 93,
                    "time": 342.7931660000042,
                    "velocity": 0.5118110236220472,
                    "duration": 0.14962600000001203
                },
                {
                    "name": "G7",
                    "midi": 103,
                    "time": 342.9427920000042,
                    "velocity": 0.6220472440944882,
                    "duration": 0.14962600000001203
                },
                {
                    "name": "G6",
                    "midi": 91,
                    "time": 342.9427920000042,
                    "velocity": 0.5275590551181102,
                    "duration": 0.14962600000001203
                },
                {
                    "name": "E7",
                    "midi": 100,
                    "time": 343.0924180000042,
                    "velocity": 0.5039370078740157,
                    "duration": 0.14962600000001203
                },
                {
                    "name": "C7",
                    "midi": 96,
                    "time": 343.2420440000042,
                    "velocity": 0.5039370078740157,
                    "duration": 0.14962600000001203
                },
                {
                    "name": "E6",
                    "midi": 88,
                    "time": 343.39167000000424,
                    "velocity": 0.6141732283464567,
                    "duration": 0.14962600000001203
                },
                {
                    "name": "E7",
                    "midi": 100,
                    "time": 343.39167000000424,
                    "velocity": 0.6141732283464567,
                    "duration": 0.14962600000001203
                },
                {
                    "name": "C7",
                    "midi": 96,
                    "time": 343.54129600000425,
                    "velocity": 0.5039370078740157,
                    "duration": 0.14962600000001203
                },
                {
                    "name": "G6",
                    "midi": 91,
                    "time": 343.69092200000426,
                    "velocity": 0.5039370078740157,
                    "duration": 0.14962600000001203
                },
                {
                    "name": "C7",
                    "midi": 96,
                    "time": 343.8405480000043,
                    "velocity": 0.6141732283464567,
                    "duration": 0.14962600000001203
                },
                {
                    "name": "C6",
                    "midi": 84,
                    "time": 343.8405480000043,
                    "velocity": 0.5196850393700787,
                    "duration": 0.14962600000001203
                },
                {
                    "name": "G6",
                    "midi": 91,
                    "time": 343.9901740000043,
                    "velocity": 0.5039370078740157,
                    "duration": 0.14962600000001203
                },
                {
                    "name": "E6",
                    "midi": 88,
                    "time": 344.1398000000043,
                    "velocity": 0.5039370078740157,
                    "duration": 0.14962600000001203
                },
                {
                    "name": "G5",
                    "midi": 79,
                    "time": 344.2894260000043,
                    "velocity": 0.49606299212598426,
                    "duration": 0.14962600000001203
                },
                {
                    "name": "G6",
                    "midi": 91,
                    "time": 344.2894260000043,
                    "velocity": 0.5905511811023622,
                    "duration": 0.14962600000001203
                },
                {
                    "name": "E6",
                    "midi": 88,
                    "time": 344.4390520000043,
                    "velocity": 0.5039370078740157,
                    "duration": 0.14962600000001203
                },
                {
                    "name": "C6",
                    "midi": 84,
                    "time": 344.58867800000434,
                    "velocity": 0.5039370078740157,
                    "duration": 0.14962600000001203
                },
                {
                    "name": "G5",
                    "midi": 79,
                    "time": 344.73830400000435,
                    "velocity": 0.6062992125984252,
                    "duration": 0.07481300000000601
                },
                {
                    "name": "E6",
                    "midi": 88,
                    "time": 345.1871820000043,
                    "velocity": 0.5118110236220472,
                    "duration": 0.07481300000000601
                },
                {
                    "name": "G6",
                    "midi": 91,
                    "time": 345.1871820000043,
                    "velocity": 0.6062992125984252,
                    "duration": 0.07481300000000601
                },
                {
                    "name": "C6",
                    "midi": 84,
                    "time": 345.1871820000043,
                    "velocity": 0.5118110236220472,
                    "duration": 0.07481300000000601
                },
                {
                    "name": "G5",
                    "midi": 79,
                    "time": 345.1871820000043,
                    "velocity": 0.5118110236220472,
                    "duration": 0.07481300000000601
                },
                {
                    "name": "D6",
                    "midi": 86,
                    "time": 346.08493800000434,
                    "velocity": 0.5748031496062992,
                    "duration": 0.07481300000000601
                },
                {
                    "name": "B6",
                    "midi": 95,
                    "time": 346.08493800000434,
                    "velocity": 0.6850393700787402,
                    "duration": 0.07481300000000601
                },
                {
                    "name": "F6",
                    "midi": 89,
                    "time": 346.08493800000434,
                    "velocity": 0.5748031496062992,
                    "duration": 0.07481300000000601
                },
                {
                    "name": "B5",
                    "midi": 83,
                    "time": 346.08493800000434,
                    "velocity": 0.5748031496062992,
                    "duration": 0.07481300000000601
                },
                {
                    "name": "C6",
                    "midi": 84,
                    "time": 346.5338160000043,
                    "velocity": 0.5984251968503937,
                    "duration": 0.07481300000000601
                },
                {
                    "name": "C7",
                    "midi": 96,
                    "time": 346.5338160000043,
                    "velocity": 0.7086614173228346,
                    "duration": 0.07481300000000601
                },
                {
                    "name": "E6",
                    "midi": 88,
                    "time": 346.5338160000043,
                    "velocity": 0.5984251968503937,
                    "duration": 0.07481300000000601
                },
                {
                    "name": "C4",
                    "midi": 60,
                    "time": 346.83306800000435,
                    "velocity": 0.3543307086614173,
                    "duration": 0.07481300000000601
                },
                {
                    "name": "E4",
                    "midi": 64,
                    "time": 346.83306800000435,
                    "velocity": 0.4251968503937008,
                    "duration": 0.07481300000000601
                },
                {
                    "name": "E4",
                    "midi": 64,
                    "time": 346.98269400000436,
                    "velocity": 0.47244094488188976,
                    "duration": 0.14962600000001203
                },
                {
                    "name": "C4",
                    "midi": 60,
                    "time": 346.98269400000436,
                    "velocity": 0.4015748031496063,
                    "duration": 0.14962600000001203
                },
                {
                    "name": "D4",
                    "midi": 62,
                    "time": 347.13232000000437,
                    "velocity": 0.3779527559055118,
                    "duration": 0.14962600000001203
                },
                {
                    "name": "F4",
                    "midi": 65,
                    "time": 347.13232000000437,
                    "velocity": 0.4409448818897638,
                    "duration": 0.14962600000001203
                },
                {
                    "name": "G4",
                    "midi": 67,
                    "time": 347.2819460000044,
                    "velocity": 0.4566929133858268,
                    "duration": 0.14962600000001203
                },
                {
                    "name": "E4",
                    "midi": 64,
                    "time": 347.2819460000044,
                    "velocity": 0.3858267716535433,
                    "duration": 0.14962600000001203
                },
                {
                    "name": "F4",
                    "midi": 65,
                    "time": 347.4315720000044,
                    "velocity": 0.44881889763779526,
                    "duration": 0.14962600000001203
                },
                {
                    "name": "A4",
                    "midi": 69,
                    "time": 347.4315720000044,
                    "velocity": 0.5275590551181102,
                    "duration": 0.14962600000001203
                },
                {
                    "name": "E4",
                    "midi": 64,
                    "time": 347.5811980000044,
                    "velocity": 0.4094488188976378,
                    "duration": 0.14962600000001203
                },
                {
                    "name": "G4",
                    "midi": 67,
                    "time": 347.5811980000044,
                    "velocity": 0.4881889763779528,
                    "duration": 0.14962600000001203
                },
                {
                    "name": "F4",
                    "midi": 65,
                    "time": 347.7308240000044,
                    "velocity": 0.4251968503937008,
                    "duration": 0.14962600000001203
                },
                {
                    "name": "A4",
                    "midi": 69,
                    "time": 347.7308240000044,
                    "velocity": 0.5039370078740157,
                    "duration": 0.14962600000001203
                },
                {
                    "name": "G4",
                    "midi": 67,
                    "time": 347.88045000000443,
                    "velocity": 0.4881889763779528,
                    "duration": 0.14962600000001203
                },
                {
                    "name": "B4",
                    "midi": 71,
                    "time": 347.88045000000443,
                    "velocity": 0.5748031496062992,
                    "duration": 0.14962600000001203
                },
                {
                    "name": "A4",
                    "midi": 69,
                    "time": 348.03007600000444,
                    "velocity": 0.44881889763779526,
                    "duration": 0.14962600000001203
                },
                {
                    "name": "C5",
                    "midi": 72,
                    "time": 348.03007600000444,
                    "velocity": 0.5275590551181102,
                    "duration": 0.14962600000001203
                },
                {
                    "name": "B4",
                    "midi": 71,
                    "time": 348.17970200000445,
                    "velocity": 0.5118110236220472,
                    "duration": 0.14962600000001203
                },
                {
                    "name": "D5",
                    "midi": 74,
                    "time": 348.17970200000445,
                    "velocity": 0.6062992125984252,
                    "duration": 0.14962600000001203
                },
                {
                    "name": "E5",
                    "midi": 76,
                    "time": 348.32932800000447,
                    "velocity": 0.5984251968503937,
                    "duration": 0.07481300000000601
                },
                {
                    "name": "E6",
                    "midi": 88,
                    "time": 348.32932800000447,
                    "velocity": 0.7086614173228346,
                    "duration": 0.07481300000000601
                },
                {
                    "name": "C6",
                    "midi": 84,
                    "time": 348.32932800000447,
                    "velocity": 0.5984251968503937,
                    "duration": 0.07481300000000601
                },
                {
                    "name": "E4",
                    "midi": 64,
                    "time": 348.6285800000045,
                    "velocity": 0.3543307086614173,
                    "duration": 0.07481300000000601
                },
                {
                    "name": "G4",
                    "midi": 67,
                    "time": 348.6285800000045,
                    "velocity": 0.4251968503937008,
                    "duration": 0.07481300000000601
                },
                {
                    "name": "G4",
                    "midi": 67,
                    "time": 348.7782060000045,
                    "velocity": 0.47244094488188976,
                    "duration": 0.14962600000001203
                },
                {
                    "name": "E4",
                    "midi": 64,
                    "time": 348.7782060000045,
                    "velocity": 0.4015748031496063,
                    "duration": 0.14962600000001203
                },
                {
                    "name": "F4",
                    "midi": 65,
                    "time": 348.9278320000045,
                    "velocity": 0.3779527559055118,
                    "duration": 0.14962600000001203
                },
                {
                    "name": "A4",
                    "midi": 69,
                    "time": 348.9278320000045,
                    "velocity": 0.4409448818897638,
                    "duration": 0.14962600000001203
                },
                {
                    "name": "B4",
                    "midi": 71,
                    "time": 349.0774580000045,
                    "velocity": 0.4566929133858268,
                    "duration": 0.14962600000001203
                },
                {
                    "name": "G4",
                    "midi": 67,
                    "time": 349.0774580000045,
                    "velocity": 0.3858267716535433,
                    "duration": 0.14962600000001203
                },
                {
                    "name": "A4",
                    "midi": 69,
                    "time": 349.22708400000454,
                    "velocity": 0.44881889763779526,
                    "duration": 0.14962600000001203
                },
                {
                    "name": "C5",
                    "midi": 72,
                    "time": 349.22708400000454,
                    "velocity": 0.5275590551181102,
                    "duration": 0.14962600000001203
                },
                {
                    "name": "G4",
                    "midi": 67,
                    "time": 349.37671000000455,
                    "velocity": 0.4094488188976378,
                    "duration": 0.14962600000001203
                },
                {
                    "name": "B4",
                    "midi": 71,
                    "time": 349.37671000000455,
                    "velocity": 0.4881889763779528,
                    "duration": 0.14962600000001203
                },
                {
                    "name": "A4",
                    "midi": 69,
                    "time": 349.52633600000456,
                    "velocity": 0.4251968503937008,
                    "duration": 0.14962600000001203
                },
                {
                    "name": "C5",
                    "midi": 72,
                    "time": 349.52633600000456,
                    "velocity": 0.5039370078740157,
                    "duration": 0.14962600000001203
                },
                {
                    "name": "B4",
                    "midi": 71,
                    "time": 349.6759620000046,
                    "velocity": 0.4881889763779528,
                    "duration": 0.14962600000001203
                },
                {
                    "name": "D5",
                    "midi": 74,
                    "time": 349.6759620000046,
                    "velocity": 0.5748031496062992,
                    "duration": 0.14962600000001203
                },
                {
                    "name": "C5",
                    "midi": 72,
                    "time": 349.8255880000046,
                    "velocity": 0.44881889763779526,
                    "duration": 0.14962600000001203
                },
                {
                    "name": "E5",
                    "midi": 76,
                    "time": 349.8255880000046,
                    "velocity": 0.5275590551181102,
                    "duration": 0.14962600000001203
                },
                {
                    "name": "D5",
                    "midi": 74,
                    "time": 349.9752140000046,
                    "velocity": 0.5118110236220472,
                    "duration": 0.14962600000001203
                },
                {
                    "name": "F5",
                    "midi": 77,
                    "time": 349.9752140000046,
                    "velocity": 0.6062992125984252,
                    "duration": 0.14962600000001203
                },
                {
                    "name": "G5",
                    "midi": 79,
                    "time": 350.1248400000046,
                    "velocity": 0.5984251968503937,
                    "duration": 0.07481300000000601
                },
                {
                    "name": "G6",
                    "midi": 91,
                    "time": 350.1248400000046,
                    "velocity": 0.7086614173228346,
                    "duration": 0.07481300000000601
                },
                {
                    "name": "E6",
                    "midi": 88,
                    "time": 350.1248400000046,
                    "velocity": 0.5984251968503937,
                    "duration": 0.07481300000000601
                },
                {
                    "name": "B4",
                    "midi": 71,
                    "time": 350.42409200000463,
                    "velocity": 0.3543307086614173,
                    "duration": 0.07481300000000601
                },
                {
                    "name": "G5",
                    "midi": 79,
                    "time": 350.42409200000463,
                    "velocity": 0.3543307086614173,
                    "duration": 0.07481300000000601
                },
                {
                    "name": "B5",
                    "midi": 83,
                    "time": 350.42409200000463,
                    "velocity": 0.4251968503937008,
                    "duration": 0.07481300000000601
                },
                {
                    "name": "B4",
                    "midi": 71,
                    "time": 350.57371800000465,
                    "velocity": 0.4015748031496063,
                    "duration": 0.07481300000000601
                },
                {
                    "name": "B5",
                    "midi": 83,
                    "time": 350.57371800000465,
                    "velocity": 0.47244094488188976,
                    "duration": 0.07481300000000601
                },
                {
                    "name": "G5",
                    "midi": 79,
                    "time": 350.57371800000465,
                    "velocity": 0.4015748031496063,
                    "duration": 0.07481300000000601
                },
                {
                    "name": "C5",
                    "midi": 72,
                    "time": 350.72334400000466,
                    "velocity": 0.3779527559055118,
                    "duration": 0.07481300000000601
                },
                {
                    "name": "A5",
                    "midi": 81,
                    "time": 350.72334400000466,
                    "velocity": 0.3779527559055118,
                    "duration": 0.07481300000000601
                },
                {
                    "name": "C6",
                    "midi": 84,
                    "time": 350.72334400000466,
                    "velocity": 0.4409448818897638,
                    "duration": 0.07481300000000601
                },
                {
                    "name": "D5",
                    "midi": 74,
                    "time": 350.87297000000467,
                    "velocity": 0.3858267716535433,
                    "duration": 0.07481300000000601
                },
                {
                    "name": "D6",
                    "midi": 86,
                    "time": 350.87297000000467,
                    "velocity": 0.4566929133858268,
                    "duration": 0.07481300000000601
                },
                {
                    "name": "B5",
                    "midi": 83,
                    "time": 350.87297000000467,
                    "velocity": 0.3858267716535433,
                    "duration": 0.07481300000000601
                },
                {
                    "name": "E5",
                    "midi": 76,
                    "time": 351.0225960000047,
                    "velocity": 0.44881889763779526,
                    "duration": 0.07481300000000601
                },
                {
                    "name": "C6",
                    "midi": 84,
                    "time": 351.0225960000047,
                    "velocity": 0.44881889763779526,
                    "duration": 0.07481300000000601
                },
                {
                    "name": "E6",
                    "midi": 88,
                    "time": 351.0225960000047,
                    "velocity": 0.5275590551181102,
                    "duration": 0.07481300000000601
                },
                {
                    "name": "D5",
                    "midi": 74,
                    "time": 351.1722220000047,
                    "velocity": 0.4094488188976378,
                    "duration": 0.07481300000000601
                },
                {
                    "name": "B5",
                    "midi": 83,
                    "time": 351.1722220000047,
                    "velocity": 0.4094488188976378,
                    "duration": 0.07481300000000601
                },
                {
                    "name": "D6",
                    "midi": 86,
                    "time": 351.1722220000047,
                    "velocity": 0.4881889763779528,
                    "duration": 0.07481300000000601
                },
                {
                    "name": "E5",
                    "midi": 76,
                    "time": 351.3218480000047,
                    "velocity": 0.4251968503937008,
                    "duration": 0.07481300000000601
                },
                {
                    "name": "C6",
                    "midi": 84,
                    "time": 351.3218480000047,
                    "velocity": 0.4251968503937008,
                    "duration": 0.07481300000000601
                },
                {
                    "name": "E6",
                    "midi": 88,
                    "time": 351.3218480000047,
                    "velocity": 0.5039370078740157,
                    "duration": 0.07481300000000601
                },
                {
                    "name": "F5",
                    "midi": 77,
                    "time": 351.4714740000047,
                    "velocity": 0.4881889763779528,
                    "duration": 0.07481300000000601
                },
                {
                    "name": "D6",
                    "midi": 86,
                    "time": 351.4714740000047,
                    "velocity": 0.4881889763779528,
                    "duration": 0.07481300000000601
                },
                {
                    "name": "F6",
                    "midi": 89,
                    "time": 351.4714740000047,
                    "velocity": 0.5748031496062992,
                    "duration": 0.07481300000000601
                },
                {
                    "name": "G5",
                    "midi": 79,
                    "time": 351.62110000000473,
                    "velocity": 0.44881889763779526,
                    "duration": 0.07481300000000601
                },
                {
                    "name": "E6",
                    "midi": 88,
                    "time": 351.62110000000473,
                    "velocity": 0.44881889763779526,
                    "duration": 0.07481300000000601
                },
                {
                    "name": "G6",
                    "midi": 91,
                    "time": 351.62110000000473,
                    "velocity": 0.5275590551181102,
                    "duration": 0.07481300000000601
                },
                {
                    "name": "A5",
                    "midi": 81,
                    "time": 351.77072600000474,
                    "velocity": 0.5118110236220472,
                    "duration": 0.07481300000000601
                },
                {
                    "name": "F6",
                    "midi": 89,
                    "time": 351.77072600000474,
                    "velocity": 0.5118110236220472,
                    "duration": 0.07481300000000601
                },
                {
                    "name": "A6",
                    "midi": 93,
                    "time": 351.77072600000474,
                    "velocity": 0.6062992125984252,
                    "duration": 0.07481300000000601
                },
                {
                    "name": "B5",
                    "midi": 83,
                    "time": 351.92035200000475,
                    "velocity": 0.5354330708661418,
                    "duration": 0.07481300000000601
                },
                {
                    "name": "G6",
                    "midi": 91,
                    "time": 351.92035200000475,
                    "velocity": 0.5669291338582677,
                    "duration": 0.07481300000000601
                },
                {
                    "name": "B6",
                    "midi": 95,
                    "time": 351.92035200000475,
                    "velocity": 0.6692913385826772,
                    "duration": 0.07481300000000601
                },
                {
                    "name": "A5",
                    "midi": 81,
                    "time": 352.36923000000473,
                    "velocity": 0.5669291338582677,
                    "duration": 0.07481300000000601
                },
                {
                    "name": "C6",
                    "midi": 84,
                    "time": 352.36923000000473,
                    "velocity": 0.5669291338582677,
                    "duration": 0.07481300000000601
                },
                {
                    "name": "F6",
                    "midi": 89,
                    "time": 352.36923000000473,
                    "velocity": 0.5669291338582677,
                    "duration": 0.07481300000000601
                },
                {
                    "name": "A6",
                    "midi": 93,
                    "time": 352.36923000000473,
                    "velocity": 0.6692913385826772,
                    "duration": 0.07481300000000601
                },
                {
                    "name": "G6",
                    "midi": 91,
                    "time": 352.8181080000047,
                    "velocity": 0.6692913385826772,
                    "duration": 0.07481300000000601
                },
                {
                    "name": "E6",
                    "midi": 88,
                    "time": 352.8181080000047,
                    "velocity": 0.5669291338582677,
                    "duration": 0.07481300000000601
                },
                {
                    "name": "C6",
                    "midi": 84,
                    "time": 352.8181080000047,
                    "velocity": 0.5669291338582677,
                    "duration": 0.07481300000000601
                },
                {
                    "name": "G5",
                    "midi": 79,
                    "time": 352.8181080000047,
                    "velocity": 0.5669291338582677,
                    "duration": 0.07481300000000601
                },
                {
                    "name": "E5",
                    "midi": 76,
                    "time": 353.2669860000047,
                    "velocity": 0.5669291338582677,
                    "duration": 0.07481300000000601
                },
                {
                    "name": "G5",
                    "midi": 79,
                    "time": 353.2669860000047,
                    "velocity": 0.5669291338582677,
                    "duration": 0.07481300000000601
                },
                {
                    "name": "B5",
                    "midi": 83,
                    "time": 353.2669860000047,
                    "velocity": 0.5669291338582677,
                    "duration": 0.07481300000000601
                },
                {
                    "name": "E6",
                    "midi": 88,
                    "time": 353.2669860000047,
                    "velocity": 0.6692913385826772,
                    "duration": 0.07481300000000601
                },
                {
                    "name": "C6",
                    "midi": 84,
                    "time": 353.7158640000047,
                    "velocity": 0.6692913385826772,
                    "duration": 0.07481300000000601
                },
                {
                    "name": "A5",
                    "midi": 81,
                    "time": 353.7158640000047,
                    "velocity": 0.5669291338582677,
                    "duration": 0.07481300000000601
                },
                {
                    "name": "E5",
                    "midi": 76,
                    "time": 353.7158640000047,
                    "velocity": 0.5669291338582677,
                    "duration": 0.07481300000000601
                },
                {
                    "name": "C5",
                    "midi": 72,
                    "time": 353.7158640000047,
                    "velocity": 0.5669291338582677,
                    "duration": 0.07481300000000601
                },
                {
                    "name": "D5",
                    "midi": 74,
                    "time": 354.6136200000047,
                    "velocity": 0.5669291338582677,
                    "duration": 0.07481300000000601
                },
                {
                    "name": "G5",
                    "midi": 79,
                    "time": 354.6136200000047,
                    "velocity": 0.5669291338582677,
                    "duration": 0.07481300000000601
                },
                {
                    "name": "B5",
                    "midi": 83,
                    "time": 354.6136200000047,
                    "velocity": 0.5669291338582677,
                    "duration": 0.07481300000000601
                },
                {
                    "name": "D6",
                    "midi": 86,
                    "time": 354.6136200000047,
                    "velocity": 0.6692913385826772,
                    "duration": 0.07481300000000601
                },
                {
                    "name": "E5",
                    "midi": 76,
                    "time": 355.4365630000047,
                    "velocity": 0.5984251968503937,
                    "duration": 0.037406499999974585
                },
                {
                    "name": "G5",
                    "midi": 79,
                    "time": 355.4365630000047,
                    "velocity": 0.5984251968503937,
                    "duration": 0.037406499999974585
                },
                {
                    "name": "C6",
                    "midi": 84,
                    "time": 355.4365630000047,
                    "velocity": 0.5984251968503937,
                    "duration": 0.037406499999974585
                },
                {
                    "name": "E6",
                    "midi": 88,
                    "time": 355.4365630000047,
                    "velocity": 0.5984251968503937,
                    "duration": 0.037406499999974585
                },
                {
                    "name": "E5",
                    "midi": 76,
                    "time": 355.51137600000465,
                    "velocity": 0.5669291338582677,
                    "duration": 0.8977560000000153
                },
                {
                    "name": "G5",
                    "midi": 79,
                    "time": 355.51137600000465,
                    "velocity": 0.5669291338582677,
                    "duration": 0.8977560000000153
                },
                {
                    "name": "C6",
                    "midi": 84,
                    "time": 355.51137600000465,
                    "velocity": 0.5669291338582677,
                    "duration": 0.8977560000000153
                },
                {
                    "name": "E6",
                    "midi": 88,
                    "time": 355.51137600000465,
                    "velocity": 0.6692913385826772,
                    "duration": 0.8977560000000153
                }
            ],
            "controlChanges": {},
            "id": 1,
            "name": "Piano right",
            "instrumentNumber": 0,
            "instrument": "acoustic grand piano",
            "instrumentFamily": "piano",
            "channelNumber": 0,
            "isPercussion": false
        },
        {
            "startTime": 1.346634,
            "duration": 356.40913200001165,
            "length": 2305,
            "notes": [
                {
                    "name": "C2",
                    "midi": 36,
                    "time": 1.346634,
                    "velocity": 0.47244094488188976,
                    "duration": 0.07481300000000002
                },
                {
                    "name": "G2",
                    "midi": 43,
                    "time": 1.4962600000000001,
                    "velocity": 0.3858267716535433,
                    "duration": 0.07481300000000002
                },
                {
                    "name": "C3",
                    "midi": 48,
                    "time": 1.6458860000000002,
                    "velocity": 0.3858267716535433,
                    "duration": 0.07481300000000002
                },
                {
                    "name": "C2",
                    "midi": 36,
                    "time": 1.7955120000000002,
                    "velocity": 0.4409448818897638,
                    "duration": 0.07481300000000002
                },
                {
                    "name": "G2",
                    "midi": 43,
                    "time": 1.9451380000000003,
                    "velocity": 0.3464566929133858,
                    "duration": 0.07481300000000002
                },
                {
                    "name": "C3",
                    "midi": 48,
                    "time": 2.094764,
                    "velocity": 0.3464566929133858,
                    "duration": 0.0748129999999998
                },
                {
                    "name": "C2",
                    "midi": 36,
                    "time": 2.2443899999999997,
                    "velocity": 0.4409448818897638,
                    "duration": 0.0748129999999998
                },
                {
                    "name": "G2",
                    "midi": 43,
                    "time": 2.3940159999999993,
                    "velocity": 0.36220472440944884,
                    "duration": 0.0748129999999998
                },
                {
                    "name": "C3",
                    "midi": 48,
                    "time": 2.543641999999999,
                    "velocity": 0.36220472440944884,
                    "duration": 0.0748129999999998
                },
                {
                    "name": "C2",
                    "midi": 36,
                    "time": 2.6932679999999984,
                    "velocity": 0.47244094488188976,
                    "duration": 0.0748129999999998
                },
                {
                    "name": "G2",
                    "midi": 43,
                    "time": 2.842893999999998,
                    "velocity": 0.3858267716535433,
                    "duration": 0.0748129999999998
                },
                {
                    "name": "C3",
                    "midi": 48,
                    "time": 2.9925199999999976,
                    "velocity": 0.3858267716535433,
                    "duration": 0.0748129999999998
                },
                {
                    "name": "C2",
                    "midi": 36,
                    "time": 3.142145999999997,
                    "velocity": 0.4409448818897638,
                    "duration": 0.0748129999999998
                },
                {
                    "name": "G2",
                    "midi": 43,
                    "time": 3.291771999999997,
                    "velocity": 0.3464566929133858,
                    "duration": 0.0748129999999998
                },
                {
                    "name": "C3",
                    "midi": 48,
                    "time": 3.4413979999999964,
                    "velocity": 0.3464566929133858,
                    "duration": 0.0748129999999998
                },
                {
                    "name": "C2",
                    "midi": 36,
                    "time": 3.591023999999996,
                    "velocity": 0.4409448818897638,
                    "duration": 0.0748129999999998
                },
                {
                    "name": "G2",
                    "midi": 43,
                    "time": 3.7406499999999956,
                    "velocity": 0.36220472440944884,
                    "duration": 0.0748129999999998
                },
                {
                    "name": "C3",
                    "midi": 48,
                    "time": 3.890275999999995,
                    "velocity": 0.36220472440944884,
                    "duration": 0.0748129999999998
                },
                {
                    "name": "C2",
                    "midi": 36,
                    "time": 4.039901999999995,
                    "velocity": 0.47244094488188976,
                    "duration": 0.0748129999999998
                },
                {
                    "name": "G2",
                    "midi": 43,
                    "time": 4.189527999999995,
                    "velocity": 0.3858267716535433,
                    "duration": 0.0748129999999998
                },
                {
                    "name": "C3",
                    "midi": 48,
                    "time": 4.339153999999994,
                    "velocity": 0.3858267716535433,
                    "duration": 0.0748129999999998
                },
                {
                    "name": "C2",
                    "midi": 36,
                    "time": 4.488779999999994,
                    "velocity": 0.44881889763779526,
                    "duration": 0.0748129999999998
                },
                {
                    "name": "G2",
                    "midi": 43,
                    "time": 4.638405999999994,
                    "velocity": 0.36220472440944884,
                    "duration": 0.0748129999999998
                },
                {
                    "name": "C3",
                    "midi": 48,
                    "time": 4.788031999999993,
                    "velocity": 0.3700787401574803,
                    "duration": 0.0748129999999998
                },
                {
                    "name": "C2",
                    "midi": 36,
                    "time": 4.937657999999993,
                    "velocity": 0.4881889763779528,
                    "duration": 0.0748129999999998
                },
                {
                    "name": "G2",
                    "midi": 43,
                    "time": 5.087283999999992,
                    "velocity": 0.4094488188976378,
                    "duration": 0.0748129999999998
                },
                {
                    "name": "C3",
                    "midi": 48,
                    "time": 5.236909999999992,
                    "velocity": 0.41732283464566927,
                    "duration": 0.0748129999999998
                },
                {
                    "name": "C2",
                    "midi": 36,
                    "time": 5.3865359999999916,
                    "velocity": 0.5196850393700787,
                    "duration": 0.0748129999999998
                },
                {
                    "name": "G2",
                    "midi": 43,
                    "time": 5.536161999999991,
                    "velocity": 0.4330708661417323,
                    "duration": 0.0748129999999998
                },
                {
                    "name": "C3",
                    "midi": 48,
                    "time": 5.685787999999991,
                    "velocity": 0.4409448818897638,
                    "duration": 0.0748129999999998
                },
                {
                    "name": "C2",
                    "midi": 36,
                    "time": 5.83541399999999,
                    "velocity": 0.5275590551181102,
                    "duration": 0.0748129999999998
                },
                {
                    "name": "G2",
                    "midi": 43,
                    "time": 5.98503999999999,
                    "velocity": 0.4251968503937008,
                    "duration": 0.0748129999999998
                },
                {
                    "name": "C3",
                    "midi": 48,
                    "time": 6.1346659999999895,
                    "velocity": 0.4330708661417323,
                    "duration": 0.0748129999999998
                },
                {
                    "name": "C2",
                    "midi": 36,
                    "time": 6.284291999999989,
                    "velocity": 0.5669291338582677,
                    "duration": 0.0748129999999998
                },
                {
                    "name": "G2",
                    "midi": 43,
                    "time": 6.433917999999989,
                    "velocity": 0.48031496062992124,
                    "duration": 0.0748129999999998
                },
                {
                    "name": "C3",
                    "midi": 48,
                    "time": 6.583543999999988,
                    "velocity": 0.4881889763779528,
                    "duration": 0.0748129999999998
                },
                {
                    "name": "B1",
                    "midi": 35,
                    "time": 6.733169999999988,
                    "velocity": 0.5748031496062992,
                    "duration": 0.0748129999999998
                },
                {
                    "name": "G2",
                    "midi": 43,
                    "time": 6.8827959999999875,
                    "velocity": 0.4094488188976378,
                    "duration": 0.0748129999999998
                },
                {
                    "name": "B2",
                    "midi": 47,
                    "time": 7.032421999999987,
                    "velocity": 0.41732283464566927,
                    "duration": 0.0748129999999998
                },
                {
                    "name": "B1",
                    "midi": 35,
                    "time": 7.182047999999987,
                    "velocity": 0.5590551181102362,
                    "duration": 0.0748129999999998
                },
                {
                    "name": "G2",
                    "midi": 43,
                    "time": 7.331673999999986,
                    "velocity": 0.4409448818897638,
                    "duration": 0.0748129999999998
                },
                {
                    "name": "B2",
                    "midi": 47,
                    "time": 7.481299999999986,
                    "velocity": 0.4409448818897638,
                    "duration": 0.0748129999999998
                },
                {
                    "name": "B1",
                    "midi": 35,
                    "time": 7.630925999999985,
                    "velocity": 0.5748031496062992,
                    "duration": 0.0748129999999998
                },
                {
                    "name": "F#2",
                    "midi": 42,
                    "time": 7.780551999999985,
                    "velocity": 0.4094488188976378,
                    "duration": 0.0748129999999998
                },
                {
                    "name": "B2",
                    "midi": 47,
                    "time": 7.930177999999985,
                    "velocity": 0.41732283464566927,
                    "duration": 0.0748129999999998
                },
                {
                    "name": "B1",
                    "midi": 35,
                    "time": 8.079803999999985,
                    "velocity": 0.5590551181102362,
                    "duration": 0.07481300000000068
                },
                {
                    "name": "F#2",
                    "midi": 42,
                    "time": 8.229429999999986,
                    "velocity": 0.4409448818897638,
                    "duration": 0.07481300000000068
                },
                {
                    "name": "B2",
                    "midi": 47,
                    "time": 8.379055999999988,
                    "velocity": 0.4409448818897638,
                    "duration": 0.07481300000000068
                },
                {
                    "name": "B1",
                    "midi": 35,
                    "time": 8.52868199999999,
                    "velocity": 0.5590551181102362,
                    "duration": 0.07481300000000068
                },
                {
                    "name": "E2",
                    "midi": 40,
                    "time": 8.67830799999999,
                    "velocity": 0.4409448818897638,
                    "duration": 0.07481300000000068
                },
                {
                    "name": "B2",
                    "midi": 47,
                    "time": 8.827933999999992,
                    "velocity": 0.4409448818897638,
                    "duration": 0.07481300000000068
                },
                {
                    "name": "B1",
                    "midi": 35,
                    "time": 8.977559999999993,
                    "velocity": 0.5590551181102362,
                    "duration": 0.07481300000000068
                },
                {
                    "name": "D#2",
                    "midi": 39,
                    "time": 9.127185999999995,
                    "velocity": 0.4409448818897638,
                    "duration": 0.07481300000000068
                },
                {
                    "name": "B2",
                    "midi": 47,
                    "time": 9.276811999999996,
                    "velocity": 0.4409448818897638,
                    "duration": 0.07481300000000068
                },
                {
                    "name": "E1",
                    "midi": 28,
                    "time": 9.426437999999997,
                    "velocity": 0.5748031496062992,
                    "duration": 0.07481300000000068
                },
                {
                    "name": "B1",
                    "midi": 35,
                    "time": 9.576063999999999,
                    "velocity": 0.4094488188976378,
                    "duration": 0.07481300000000068
                },
                {
                    "name": "E2",
                    "midi": 40,
                    "time": 9.72569,
                    "velocity": 0.41732283464566927,
                    "duration": 0.07481300000000068
                },
                {
                    "name": "E1",
                    "midi": 28,
                    "time": 9.875316000000002,
                    "velocity": 0.5590551181102362,
                    "duration": 0.07481300000000068
                },
                {
                    "name": "B1",
                    "midi": 35,
                    "time": 10.024942000000003,
                    "velocity": 0.4409448818897638,
                    "duration": 0.07481300000000068
                },
                {
                    "name": "E2",
                    "midi": 40,
                    "time": 10.174568000000004,
                    "velocity": 0.4409448818897638,
                    "duration": 0.07481300000000068
                },
                {
                    "name": "E1",
                    "midi": 28,
                    "time": 10.324194000000006,
                    "velocity": 0.5748031496062992,
                    "duration": 0.07481300000000068
                },
                {
                    "name": "B1",
                    "midi": 35,
                    "time": 10.473820000000007,
                    "velocity": 0.4094488188976378,
                    "duration": 0.07481300000000068
                },
                {
                    "name": "E2",
                    "midi": 40,
                    "time": 10.623446000000008,
                    "velocity": 0.41732283464566927,
                    "duration": 0.07481300000000068
                },
                {
                    "name": "E1",
                    "midi": 28,
                    "time": 10.77307200000001,
                    "velocity": 0.5590551181102362,
                    "duration": 0.07481300000000068
                },
                {
                    "name": "B1",
                    "midi": 35,
                    "time": 10.922698000000011,
                    "velocity": 0.4409448818897638,
                    "duration": 0.07481300000000068
                },
                {
                    "name": "E2",
                    "midi": 40,
                    "time": 11.072324000000012,
                    "velocity": 0.4409448818897638,
                    "duration": 0.07481300000000068
                },
                {
                    "name": "E1",
                    "midi": 28,
                    "time": 11.221950000000014,
                    "velocity": 0.5590551181102362,
                    "duration": 0.07481300000000068
                },
                {
                    "name": "B1",
                    "midi": 35,
                    "time": 11.371576000000015,
                    "velocity": 0.4409448818897638,
                    "duration": 0.07481300000000068
                },
                {
                    "name": "E2",
                    "midi": 40,
                    "time": 11.521202000000017,
                    "velocity": 0.4409448818897638,
                    "duration": 0.07481300000000068
                },
                {
                    "name": "E1",
                    "midi": 28,
                    "time": 11.670828000000018,
                    "velocity": 0.5590551181102362,
                    "duration": 0.07481300000000068
                },
                {
                    "name": "B1",
                    "midi": 35,
                    "time": 11.82045400000002,
                    "velocity": 0.4409448818897638,
                    "duration": 0.07481300000000068
                },
                {
                    "name": "E2",
                    "midi": 40,
                    "time": 11.97008000000002,
                    "velocity": 0.4409448818897638,
                    "duration": 0.07481300000000068
                },
                {
                    "name": "E1",
                    "midi": 28,
                    "time": 12.119706000000022,
                    "velocity": 0.5590551181102362,
                    "duration": 0.07481300000000068
                },
                {
                    "name": "E3",
                    "midi": 52,
                    "time": 12.418958000000023,
                    "velocity": 0.41732283464566927,
                    "duration": 0.2992519999999992
                },
                {
                    "name": "G#3",
                    "midi": 56,
                    "time": 12.418958000000023,
                    "velocity": 0.41732283464566927,
                    "duration": 0.2992519999999992
                },
                {
                    "name": "B3",
                    "midi": 59,
                    "time": 12.418958000000023,
                    "velocity": 0.41732283464566927,
                    "duration": 0.2992519999999992
                },
                {
                    "name": "E4",
                    "midi": 64,
                    "time": 12.418958000000023,
                    "velocity": 0.49606299212598426,
                    "duration": 0.2992519999999992
                },
                {
                    "name": "C#4",
                    "midi": 61,
                    "time": 12.718210000000022,
                    "velocity": 0.41732283464566927,
                    "duration": 0.44887800000000055
                },
                {
                    "name": "E3",
                    "midi": 52,
                    "time": 12.718210000000022,
                    "velocity": 0.41732283464566927,
                    "duration": 0.44887800000000055
                },
                {
                    "name": "A3",
                    "midi": 57,
                    "time": 12.718210000000022,
                    "velocity": 0.41732283464566927,
                    "duration": 0.44887800000000055
                },
                {
                    "name": "E4",
                    "midi": 64,
                    "time": 12.718210000000022,
                    "velocity": 0.49606299212598426,
                    "duration": 0.44887800000000055
                },
                {
                    "name": "A3",
                    "midi": 57,
                    "time": 13.167088000000023,
                    "velocity": 0.4094488188976378,
                    "duration": 0.22443900000000028
                },
                {
                    "name": "E4",
                    "midi": 64,
                    "time": 13.167088000000023,
                    "velocity": 0.4881889763779528,
                    "duration": 0.22443900000000028
                },
                {
                    "name": "E3",
                    "midi": 52,
                    "time": 13.167088000000023,
                    "velocity": 0.4094488188976378,
                    "duration": 0.22443900000000028
                },
                {
                    "name": "F#3",
                    "midi": 54,
                    "time": 13.167088000000023,
                    "velocity": 0.4094488188976378,
                    "duration": 0.22443900000000028
                },
                {
                    "name": "B3",
                    "midi": 59,
                    "time": 13.391527000000023,
                    "velocity": 0.36220472440944884,
                    "duration": 0.06857858333333411
                },
                {
                    "name": "E3",
                    "midi": 52,
                    "time": 13.391527000000023,
                    "velocity": 0.36220472440944884,
                    "duration": 0.06857858333333411
                },
                {
                    "name": "G#3",
                    "midi": 56,
                    "time": 13.391527000000023,
                    "velocity": 0.36220472440944884,
                    "duration": 0.06857858333333411
                },
                {
                    "name": "E4",
                    "midi": 64,
                    "time": 13.391527000000023,
                    "velocity": 0.4330708661417323,
                    "duration": 0.06857858333333411
                },
                {
                    "name": "E4",
                    "midi": 64,
                    "time": 13.466340000000024,
                    "velocity": 0.48031496062992124,
                    "duration": 0.07481300000000068
                },
                {
                    "name": "E3",
                    "midi": 52,
                    "time": 13.466340000000024,
                    "velocity": 0.4015748031496063,
                    "duration": 0.07481300000000068
                },
                {
                    "name": "G#3",
                    "midi": 56,
                    "time": 13.466340000000024,
                    "velocity": 0.4015748031496063,
                    "duration": 0.07481300000000068
                },
                {
                    "name": "B3",
                    "midi": 59,
                    "time": 13.466340000000024,
                    "velocity": 0.4015748031496063,
                    "duration": 0.07481300000000068
                },
                {
                    "name": "E3",
                    "midi": 52,
                    "time": 13.765592000000025,
                    "velocity": 0.4409448818897638,
                    "duration": 0.2992519999999992
                },
                {
                    "name": "E2",
                    "midi": 40,
                    "time": 13.765592000000025,
                    "velocity": 0.3700787401574803,
                    "duration": 0.2992519999999992
                },
                {
                    "name": "B2",
                    "midi": 47,
                    "time": 13.765592000000025,
                    "velocity": 0.3700787401574803,
                    "duration": 0.2992519999999992
                },
                {
                    "name": "E3",
                    "midi": 52,
                    "time": 14.064844000000024,
                    "velocity": 0.4409448818897638,
                    "duration": 0.44887800000000055
                },
                {
                    "name": "E2",
                    "midi": 40,
                    "time": 14.064844000000024,
                    "velocity": 0.3700787401574803,
                    "duration": 0.44887800000000055
                },
                {
                    "name": "C#3",
                    "midi": 49,
                    "time": 14.064844000000024,
                    "velocity": 0.3700787401574803,
                    "duration": 0.44887800000000055
                },
                {
                    "name": "A2",
                    "midi": 45,
                    "time": 14.513722000000024,
                    "velocity": 0.36220472440944884,
                    "duration": 0.2182045833333337
                },
                {
                    "name": "E3",
                    "midi": 52,
                    "time": 14.513722000000024,
                    "velocity": 0.4330708661417323,
                    "duration": 0.2182045833333337
                },
                {
                    "name": "E2",
                    "midi": 40,
                    "time": 14.513722000000024,
                    "velocity": 0.36220472440944884,
                    "duration": 0.2182045833333337
                },
                {
                    "name": "E2",
                    "midi": 40,
                    "time": 14.738161000000025,
                    "velocity": 0.3228346456692913,
                    "duration": 0.07481300000000068
                },
                {
                    "name": "B2",
                    "midi": 47,
                    "time": 14.738161000000025,
                    "velocity": 0.3228346456692913,
                    "duration": 0.07481300000000068
                },
                {
                    "name": "E3",
                    "midi": 52,
                    "time": 14.738161000000025,
                    "velocity": 0.3858267716535433,
                    "duration": 0.07481300000000068
                },
                {
                    "name": "E2",
                    "midi": 40,
                    "time": 14.812974000000025,
                    "velocity": 0.47244094488188976,
                    "duration": 0.07481300000000068
                },
                {
                    "name": "B2",
                    "midi": 47,
                    "time": 14.962600000000027,
                    "velocity": 0.3858267716535433,
                    "duration": 0.07481300000000068
                },
                {
                    "name": "E3",
                    "midi": 52,
                    "time": 15.112226000000028,
                    "velocity": 0.3858267716535433,
                    "duration": 0.07481300000000068
                },
                {
                    "name": "E1",
                    "midi": 28,
                    "time": 15.26185200000003,
                    "velocity": 0.4409448818897638,
                    "duration": 0.07481300000000068
                },
                {
                    "name": "B1",
                    "midi": 35,
                    "time": 15.41147800000003,
                    "velocity": 0.3464566929133858,
                    "duration": 0.07481300000000068
                },
                {
                    "name": "E2",
                    "midi": 40,
                    "time": 15.561104000000032,
                    "velocity": 0.3464566929133858,
                    "duration": 0.07481300000000068
                },
                {
                    "name": "E1",
                    "midi": 28,
                    "time": 15.710730000000034,
                    "velocity": 0.4409448818897638,
                    "duration": 0.07481300000000068
                },
                {
                    "name": "B1",
                    "midi": 35,
                    "time": 15.860356000000035,
                    "velocity": 0.36220472440944884,
                    "duration": 0.07481300000000068
                },
                {
                    "name": "E2",
                    "midi": 40,
                    "time": 16.009982000000036,
                    "velocity": 0.36220472440944884,
                    "duration": 0.07481299999999891
                },
                {
                    "name": "E1",
                    "midi": 28,
                    "time": 16.159608000000034,
                    "velocity": 0.4409448818897638,
                    "duration": 0.07481299999999891
                },
                {
                    "name": "B1",
                    "midi": 35,
                    "time": 16.309234000000032,
                    "velocity": 0.3464566929133858,
                    "duration": 0.07481299999999891
                },
                {
                    "name": "E2",
                    "midi": 40,
                    "time": 16.45886000000003,
                    "velocity": 0.3464566929133858,
                    "duration": 0.07481299999999891
                },
                {
                    "name": "E1",
                    "midi": 28,
                    "time": 16.608486000000028,
                    "velocity": 0.4409448818897638,
                    "duration": 0.07481299999999891
                },
                {
                    "name": "B1",
                    "midi": 35,
                    "time": 16.758112000000025,
                    "velocity": 0.36220472440944884,
                    "duration": 0.07481299999999891
                },
                {
                    "name": "E2",
                    "midi": 40,
                    "time": 16.907738000000023,
                    "velocity": 0.36220472440944884,
                    "duration": 0.07481299999999891
                },
                {
                    "name": "E1",
                    "midi": 28,
                    "time": 17.05736400000002,
                    "velocity": 0.4409448818897638,
                    "duration": 0.07481299999999891
                },
                {
                    "name": "B1",
                    "midi": 35,
                    "time": 17.20699000000002,
                    "velocity": 0.36220472440944884,
                    "duration": 0.07481299999999891
                },
                {
                    "name": "E2",
                    "midi": 40,
                    "time": 17.356616000000017,
                    "velocity": 0.36220472440944884,
                    "duration": 0.07481299999999891
                },
                {
                    "name": "E1",
                    "midi": 28,
                    "time": 17.506242000000015,
                    "velocity": 0.3937007874015748,
                    "duration": 0.07481299999999891
                },
                {
                    "name": "B1",
                    "midi": 35,
                    "time": 17.655868000000012,
                    "velocity": 0.28346456692913385,
                    "duration": 0.07481299999999891
                },
                {
                    "name": "E2",
                    "midi": 40,
                    "time": 17.80549400000001,
                    "velocity": 0.25984251968503935,
                    "duration": 0.07481299999999891
                },
                {
                    "name": "E1",
                    "midi": 28,
                    "time": 17.955120000000008,
                    "velocity": 0.30708661417322836,
                    "duration": 0.07481299999999891
                },
                {
                    "name": "B1",
                    "midi": 35,
                    "time": 18.104746000000006,
                    "velocity": 0.2204724409448819,
                    "duration": 0.07481299999999891
                },
                {
                    "name": "E2",
                    "midi": 40,
                    "time": 18.254372000000004,
                    "velocity": 0.2125984251968504,
                    "duration": 0.07481299999999891
                },
                {
                    "name": "E1",
                    "midi": 28,
                    "time": 18.403998,
                    "velocity": 0.2677165354330709,
                    "duration": 0.07481299999999891
                },
                {
                    "name": "B1",
                    "midi": 35,
                    "time": 18.553624,
                    "velocity": 0.2125984251968504,
                    "duration": 0.07481299999999891
                },
                {
                    "name": "E2",
                    "midi": 40,
                    "time": 18.703249999999997,
                    "velocity": 0.2125984251968504,
                    "duration": 0.07481299999999891
                },
                {
                    "name": "E1",
                    "midi": 28,
                    "time": 18.852875999999995,
                    "velocity": 0.23622047244094488,
                    "duration": 0.07481299999999891
                },
                {
                    "name": "B1",
                    "midi": 35,
                    "time": 19.002501999999993,
                    "velocity": 0.16535433070866143,
                    "duration": 0.07481299999999891
                },
                {
                    "name": "E2",
                    "midi": 40,
                    "time": 19.15212799999999,
                    "velocity": 0.15748031496062992,
                    "duration": 0.07481299999999891
                },
                {
                    "name": "E1",
                    "midi": 28,
                    "time": 19.30175399999999,
                    "velocity": 0.2125984251968504,
                    "duration": 0.07481299999999891
                },
                {
                    "name": "B1",
                    "midi": 35,
                    "time": 19.451379999999986,
                    "velocity": 0.15748031496062992,
                    "duration": 0.07481299999999891
                },
                {
                    "name": "E2",
                    "midi": 40,
                    "time": 19.601005999999984,
                    "velocity": 0.15748031496062992,
                    "duration": 0.07481299999999891
                },
                {
                    "name": "E1",
                    "midi": 28,
                    "time": 19.75063199999998,
                    "velocity": 0.2047244094488189,
                    "duration": 0.07481299999999891
                },
                {
                    "name": "C2",
                    "midi": 36,
                    "time": 20.199509999999982,
                    "velocity": 0.47244094488188976,
                    "duration": 0.07481299999999891
                },
                {
                    "name": "G2",
                    "midi": 43,
                    "time": 20.34913599999998,
                    "velocity": 0.3858267716535433,
                    "duration": 0.07481299999999891
                },
                {
                    "name": "C3",
                    "midi": 48,
                    "time": 20.498761999999978,
                    "velocity": 0.3858267716535433,
                    "duration": 0.07481299999999891
                },
                {
                    "name": "C2",
                    "midi": 36,
                    "time": 20.648387999999976,
                    "velocity": 0.4409448818897638,
                    "duration": 0.07481299999999891
                },
                {
                    "name": "G2",
                    "midi": 43,
                    "time": 20.798013999999974,
                    "velocity": 0.3464566929133858,
                    "duration": 0.07481299999999891
                },
                {
                    "name": "C3",
                    "midi": 48,
                    "time": 20.94763999999997,
                    "velocity": 0.3464566929133858,
                    "duration": 0.07481299999999891
                },
                {
                    "name": "C2",
                    "midi": 36,
                    "time": 21.09726599999997,
                    "velocity": 0.4409448818897638,
                    "duration": 0.07481299999999891
                },
                {
                    "name": "G2",
                    "midi": 43,
                    "time": 21.246891999999967,
                    "velocity": 0.36220472440944884,
                    "duration": 0.07481299999999891
                },
                {
                    "name": "C3",
                    "midi": 48,
                    "time": 21.396517999999965,
                    "velocity": 0.36220472440944884,
                    "duration": 0.07481299999999891
                },
                {
                    "name": "C2",
                    "midi": 36,
                    "time": 21.546143999999963,
                    "velocity": 0.47244094488188976,
                    "duration": 0.07481299999999891
                },
                {
                    "name": "G2",
                    "midi": 43,
                    "time": 21.69576999999996,
                    "velocity": 0.3858267716535433,
                    "duration": 0.07481299999999891
                },
                {
                    "name": "C3",
                    "midi": 48,
                    "time": 21.84539599999996,
                    "velocity": 0.3858267716535433,
                    "duration": 0.07481299999999891
                },
                {
                    "name": "C2",
                    "midi": 36,
                    "time": 21.995021999999956,
                    "velocity": 0.4409448818897638,
                    "duration": 0.07481299999999891
                },
                {
                    "name": "G2",
                    "midi": 43,
                    "time": 22.144647999999954,
                    "velocity": 0.3464566929133858,
                    "duration": 0.07481299999999891
                },
                {
                    "name": "C3",
                    "midi": 48,
                    "time": 22.29427399999995,
                    "velocity": 0.3464566929133858,
                    "duration": 0.07481299999999891
                },
                {
                    "name": "C2",
                    "midi": 36,
                    "time": 22.44389999999995,
                    "velocity": 0.4409448818897638,
                    "duration": 0.07481299999999891
                },
                {
                    "name": "G2",
                    "midi": 43,
                    "time": 22.593525999999947,
                    "velocity": 0.36220472440944884,
                    "duration": 0.07481299999999891
                },
                {
                    "name": "C3",
                    "midi": 48,
                    "time": 22.743151999999945,
                    "velocity": 0.36220472440944884,
                    "duration": 0.07481299999999891
                },
                {
                    "name": "C2",
                    "midi": 36,
                    "time": 22.892777999999943,
                    "velocity": 0.47244094488188976,
                    "duration": 0.07481299999999891
                },
                {
                    "name": "G2",
                    "midi": 43,
                    "time": 23.04240399999994,
                    "velocity": 0.3858267716535433,
                    "duration": 0.07481299999999891
                },
                {
                    "name": "C3",
                    "midi": 48,
                    "time": 23.19202999999994,
                    "velocity": 0.3858267716535433,
                    "duration": 0.07481299999999891
                },
                {
                    "name": "C2",
                    "midi": 36,
                    "time": 23.341655999999936,
                    "velocity": 0.44881889763779526,
                    "duration": 0.07481299999999891
                },
                {
                    "name": "G2",
                    "midi": 43,
                    "time": 23.491281999999934,
                    "velocity": 0.36220472440944884,
                    "duration": 0.07481299999999891
                },
                {
                    "name": "C3",
                    "midi": 48,
                    "time": 23.640907999999932,
                    "velocity": 0.3700787401574803,
                    "duration": 0.07481299999999891
                },
                {
                    "name": "C2",
                    "midi": 36,
                    "time": 23.79053399999993,
                    "velocity": 0.4881889763779528,
                    "duration": 0.07481299999999891
                },
                {
                    "name": "G2",
                    "midi": 43,
                    "time": 23.940159999999928,
                    "velocity": 0.4094488188976378,
                    "duration": 0.07481299999999891
                },
                {
                    "name": "C3",
                    "midi": 48,
                    "time": 24.089785999999926,
                    "velocity": 0.41732283464566927,
                    "duration": 0.07481299999999891
                },
                {
                    "name": "C2",
                    "midi": 36,
                    "time": 24.239411999999923,
                    "velocity": 0.5196850393700787,
                    "duration": 0.07481299999999891
                },
                {
                    "name": "G2",
                    "midi": 43,
                    "time": 24.38903799999992,
                    "velocity": 0.4330708661417323,
                    "duration": 0.07481299999999891
                },
                {
                    "name": "C3",
                    "midi": 48,
                    "time": 24.53866399999992,
                    "velocity": 0.4409448818897638,
                    "duration": 0.07481299999999891
                },
                {
                    "name": "C2",
                    "midi": 36,
                    "time": 24.688289999999917,
                    "velocity": 0.5275590551181102,
                    "duration": 0.07481299999999891
                },
                {
                    "name": "G2",
                    "midi": 43,
                    "time": 24.837915999999915,
                    "velocity": 0.4251968503937008,
                    "duration": 0.07481299999999891
                },
                {
                    "name": "C3",
                    "midi": 48,
                    "time": 24.987541999999912,
                    "velocity": 0.4330708661417323,
                    "duration": 0.07481299999999891
                },
                {
                    "name": "C2",
                    "midi": 36,
                    "time": 25.13716799999991,
                    "velocity": 0.5669291338582677,
                    "duration": 0.07481299999999891
                },
                {
                    "name": "G2",
                    "midi": 43,
                    "time": 25.286793999999908,
                    "velocity": 0.48031496062992124,
                    "duration": 0.07481299999999891
                },
                {
                    "name": "C3",
                    "midi": 48,
                    "time": 25.436419999999906,
                    "velocity": 0.4881889763779528,
                    "duration": 0.07481299999999891
                },
                {
                    "name": "B1",
                    "midi": 35,
                    "time": 25.586045999999904,
                    "velocity": 0.5748031496062992,
                    "duration": 0.07481299999999891
                },
                {
                    "name": "G2",
                    "midi": 43,
                    "time": 25.7356719999999,
                    "velocity": 0.4094488188976378,
                    "duration": 0.07481299999999891
                },
                {
                    "name": "B2",
                    "midi": 47,
                    "time": 25.8852979999999,
                    "velocity": 0.41732283464566927,
                    "duration": 0.07481299999999891
                },
                {
                    "name": "B1",
                    "midi": 35,
                    "time": 26.034923999999897,
                    "velocity": 0.5590551181102362,
                    "duration": 0.07481299999999891
                },
                {
                    "name": "G2",
                    "midi": 43,
                    "time": 26.184549999999895,
                    "velocity": 0.4409448818897638,
                    "duration": 0.07481299999999891
                },
                {
                    "name": "B2",
                    "midi": 47,
                    "time": 26.334175999999893,
                    "velocity": 0.4409448818897638,
                    "duration": 0.07481299999999891
                },
                {
                    "name": "B1",
                    "midi": 35,
                    "time": 26.48380199999989,
                    "velocity": 0.5748031496062992,
                    "duration": 0.07481299999999891
                },
                {
                    "name": "F#2",
                    "midi": 42,
                    "time": 26.63342799999989,
                    "velocity": 0.4094488188976378,
                    "duration": 0.07481299999999891
                },
                {
                    "name": "B2",
                    "midi": 47,
                    "time": 26.783053999999886,
                    "velocity": 0.41732283464566927,
                    "duration": 0.07481299999999891
                },
                {
                    "name": "B1",
                    "midi": 35,
                    "time": 26.932679999999884,
                    "velocity": 0.5590551181102362,
                    "duration": 0.07481299999999891
                },
                {
                    "name": "F#2",
                    "midi": 42,
                    "time": 27.082305999999882,
                    "velocity": 0.4409448818897638,
                    "duration": 0.07481299999999891
                },
                {
                    "name": "B2",
                    "midi": 47,
                    "time": 27.23193199999988,
                    "velocity": 0.4409448818897638,
                    "duration": 0.07481299999999891
                },
                {
                    "name": "B1",
                    "midi": 35,
                    "time": 27.381557999999877,
                    "velocity": 0.5590551181102362,
                    "duration": 0.07481299999999891
                },
                {
                    "name": "E2",
                    "midi": 40,
                    "time": 27.531183999999875,
                    "velocity": 0.4409448818897638,
                    "duration": 0.07481299999999891
                },
                {
                    "name": "B2",
                    "midi": 47,
                    "time": 27.680809999999873,
                    "velocity": 0.4409448818897638,
                    "duration": 0.07481299999999891
                },
                {
                    "name": "B1",
                    "midi": 35,
                    "time": 27.83043599999987,
                    "velocity": 0.5590551181102362,
                    "duration": 0.07481299999999891
                },
                {
                    "name": "D#2",
                    "midi": 39,
                    "time": 27.98006199999987,
                    "velocity": 0.4409448818897638,
                    "duration": 0.07481299999999891
                },
                {
                    "name": "B2",
                    "midi": 47,
                    "time": 28.129687999999867,
                    "velocity": 0.4409448818897638,
                    "duration": 0.07481299999999891
                },
                {
                    "name": "E1",
                    "midi": 28,
                    "time": 28.279313999999864,
                    "velocity": 0.5748031496062992,
                    "duration": 0.07481299999999891
                },
                {
                    "name": "B1",
                    "midi": 35,
                    "time": 28.428939999999862,
                    "velocity": 0.4094488188976378,
                    "duration": 0.07481299999999891
                },
                {
                    "name": "E2",
                    "midi": 40,
                    "time": 28.57856599999986,
                    "velocity": 0.41732283464566927,
                    "duration": 0.07481299999999891
                },
                {
                    "name": "E1",
                    "midi": 28,
                    "time": 28.728191999999858,
                    "velocity": 0.5590551181102362,
                    "duration": 0.07481299999999891
                },
                {
                    "name": "B1",
                    "midi": 35,
                    "time": 28.877817999999856,
                    "velocity": 0.4409448818897638,
                    "duration": 0.07481299999999891
                },
                {
                    "name": "E2",
                    "midi": 40,
                    "time": 29.027443999999853,
                    "velocity": 0.4409448818897638,
                    "duration": 0.07481299999999891
                },
                {
                    "name": "E1",
                    "midi": 28,
                    "time": 29.17706999999985,
                    "velocity": 0.5748031496062992,
                    "duration": 0.07481299999999891
                },
                {
                    "name": "B1",
                    "midi": 35,
                    "time": 29.32669599999985,
                    "velocity": 0.4094488188976378,
                    "duration": 0.07481299999999891
                },
                {
                    "name": "E2",
                    "midi": 40,
                    "time": 29.476321999999847,
                    "velocity": 0.41732283464566927,
                    "duration": 0.07481299999999891
                },
                {
                    "name": "E1",
                    "midi": 28,
                    "time": 29.625947999999845,
                    "velocity": 0.5590551181102362,
                    "duration": 0.07481299999999891
                },
                {
                    "name": "B1",
                    "midi": 35,
                    "time": 29.775573999999843,
                    "velocity": 0.4409448818897638,
                    "duration": 0.07481299999999891
                },
                {
                    "name": "E2",
                    "midi": 40,
                    "time": 29.92519999999984,
                    "velocity": 0.4409448818897638,
                    "duration": 0.07481299999999891
                },
                {
                    "name": "E1",
                    "midi": 28,
                    "time": 30.074825999999838,
                    "velocity": 0.5590551181102362,
                    "duration": 0.07481299999999891
                },
                {
                    "name": "B1",
                    "midi": 35,
                    "time": 30.224451999999836,
                    "velocity": 0.4409448818897638,
                    "duration": 0.07481299999999891
                },
                {
                    "name": "E2",
                    "midi": 40,
                    "time": 30.374077999999834,
                    "velocity": 0.4409448818897638,
                    "duration": 0.07481299999999891
                },
                {
                    "name": "E1",
                    "midi": 28,
                    "time": 30.52370399999983,
                    "velocity": 0.5590551181102362,
                    "duration": 0.07481299999999891
                },
                {
                    "name": "B1",
                    "midi": 35,
                    "time": 30.67332999999983,
                    "velocity": 0.4409448818897638,
                    "duration": 0.07481299999999891
                },
                {
                    "name": "E2",
                    "midi": 40,
                    "time": 30.822955999999827,
                    "velocity": 0.4409448818897638,
                    "duration": 0.07481299999999891
                },
                {
                    "name": "E1",
                    "midi": 28,
                    "time": 30.972581999999825,
                    "velocity": 0.5590551181102362,
                    "duration": 0.07481299999999891
                },
                {
                    "name": "E3",
                    "midi": 52,
                    "time": 31.271833999999824,
                    "velocity": 0.41732283464566927,
                    "duration": 0.2992519999999992
                },
                {
                    "name": "G#3",
                    "midi": 56,
                    "time": 31.271833999999824,
                    "velocity": 0.41732283464566927,
                    "duration": 0.2992519999999992
                },
                {
                    "name": "E4",
                    "midi": 64,
                    "time": 31.271833999999824,
                    "velocity": 0.49606299212598426,
                    "duration": 0.2992519999999992
                },
                {
                    "name": "B3",
                    "midi": 59,
                    "time": 31.271833999999824,
                    "velocity": 0.41732283464566927,
                    "duration": 0.2992519999999992
                },
                {
                    "name": "E4",
                    "midi": 64,
                    "time": 31.571085999999823,
                    "velocity": 0.49606299212598426,
                    "duration": 0.44887800000000055
                },
                {
                    "name": "E3",
                    "midi": 52,
                    "time": 31.571085999999823,
                    "velocity": 0.41732283464566927,
                    "duration": 0.44887800000000055
                },
                {
                    "name": "C#4",
                    "midi": 61,
                    "time": 31.571085999999823,
                    "velocity": 0.41732283464566927,
                    "duration": 0.44887800000000055
                },
                {
                    "name": "A3",
                    "midi": 57,
                    "time": 31.571085999999823,
                    "velocity": 0.41732283464566927,
                    "duration": 0.44887800000000055
                },
                {
                    "name": "E4",
                    "midi": 64,
                    "time": 32.019963999999824,
                    "velocity": 0.4881889763779528,
                    "duration": 0.22443899999999672
                },
                {
                    "name": "E3",
                    "midi": 52,
                    "time": 32.019963999999824,
                    "velocity": 0.4094488188976378,
                    "duration": 0.22443899999999672
                },
                {
                    "name": "A3",
                    "midi": 57,
                    "time": 32.019963999999824,
                    "velocity": 0.4094488188976378,
                    "duration": 0.22443899999999672
                },
                {
                    "name": "F#3",
                    "midi": 54,
                    "time": 32.019963999999824,
                    "velocity": 0.4094488188976378,
                    "duration": 0.22443899999999672
                },
                {
                    "name": "G#3",
                    "midi": 56,
                    "time": 32.24440299999982,
                    "velocity": 0.36220472440944884,
                    "duration": 0.06857858333333411
                },
                {
                    "name": "E3",
                    "midi": 52,
                    "time": 32.24440299999982,
                    "velocity": 0.36220472440944884,
                    "duration": 0.06857858333333411
                },
                {
                    "name": "E4",
                    "midi": 64,
                    "time": 32.24440299999982,
                    "velocity": 0.4330708661417323,
                    "duration": 0.06857858333333411
                },
                {
                    "name": "B3",
                    "midi": 59,
                    "time": 32.24440299999982,
                    "velocity": 0.36220472440944884,
                    "duration": 0.06857858333333411
                },
                {
                    "name": "G#3",
                    "midi": 56,
                    "time": 32.31921599999982,
                    "velocity": 0.4015748031496063,
                    "duration": 0.07481299999999891
                },
                {
                    "name": "E4",
                    "midi": 64,
                    "time": 32.31921599999982,
                    "velocity": 0.48031496062992124,
                    "duration": 0.07481299999999891
                },
                {
                    "name": "B3",
                    "midi": 59,
                    "time": 32.31921599999982,
                    "velocity": 0.4015748031496063,
                    "duration": 0.07481299999999891
                },
                {
                    "name": "E3",
                    "midi": 52,
                    "time": 32.31921599999982,
                    "velocity": 0.4015748031496063,
                    "duration": 0.07481299999999891
                },
                {
                    "name": "E2",
                    "midi": 40,
                    "time": 32.618467999999815,
                    "velocity": 0.3700787401574803,
                    "duration": 0.29925200000000274
                },
                {
                    "name": "E3",
                    "midi": 52,
                    "time": 32.618467999999815,
                    "velocity": 0.4409448818897638,
                    "duration": 0.29925200000000274
                },
                {
                    "name": "B2",
                    "midi": 47,
                    "time": 32.618467999999815,
                    "velocity": 0.3700787401574803,
                    "duration": 0.29925200000000274
                },
                {
                    "name": "E3",
                    "midi": 52,
                    "time": 32.91771999999982,
                    "velocity": 0.4409448818897638,
                    "duration": 0.44887800000000055
                },
                {
                    "name": "E2",
                    "midi": 40,
                    "time": 32.91771999999982,
                    "velocity": 0.3700787401574803,
                    "duration": 0.44887800000000055
                },
                {
                    "name": "C#3",
                    "midi": 49,
                    "time": 32.91771999999982,
                    "velocity": 0.3700787401574803,
                    "duration": 0.44887800000000055
                },
                {
                    "name": "E3",
                    "midi": 52,
                    "time": 33.36659799999982,
                    "velocity": 0.4330708661417323,
                    "duration": 0.21820458333333193
                },
                {
                    "name": "E2",
                    "midi": 40,
                    "time": 33.36659799999982,
                    "velocity": 0.36220472440944884,
                    "duration": 0.21820458333333193
                },
                {
                    "name": "A2",
                    "midi": 45,
                    "time": 33.36659799999982,
                    "velocity": 0.36220472440944884,
                    "duration": 0.21820458333333193
                },
                {
                    "name": "E2",
                    "midi": 40,
                    "time": 33.591036999999815,
                    "velocity": 0.3228346456692913,
                    "duration": 0.07481299999999891
                },
                {
                    "name": "E3",
                    "midi": 52,
                    "time": 33.591036999999815,
                    "velocity": 0.3858267716535433,
                    "duration": 0.07481299999999891
                },
                {
                    "name": "B2",
                    "midi": 47,
                    "time": 33.591036999999815,
                    "velocity": 0.3228346456692913,
                    "duration": 0.07481299999999891
                },
                {
                    "name": "E2",
                    "midi": 40,
                    "time": 33.665849999999814,
                    "velocity": 0.47244094488188976,
                    "duration": 0.07481299999999891
                },
                {
                    "name": "B2",
                    "midi": 47,
                    "time": 33.81547599999981,
                    "velocity": 0.3858267716535433,
                    "duration": 0.07481299999999891
                },
                {
                    "name": "E3",
                    "midi": 52,
                    "time": 33.96510199999981,
                    "velocity": 0.3858267716535433,
                    "duration": 0.07481299999999891
                },
                {
                    "name": "E1",
                    "midi": 28,
                    "time": 34.11472799999981,
                    "velocity": 0.4409448818897638,
                    "duration": 0.07481299999999891
                },
                {
                    "name": "B1",
                    "midi": 35,
                    "time": 34.264353999999805,
                    "velocity": 0.3464566929133858,
                    "duration": 0.07481299999999891
                },
                {
                    "name": "E2",
                    "midi": 40,
                    "time": 34.4139799999998,
                    "velocity": 0.3464566929133858,
                    "duration": 0.07481299999999891
                },
                {
                    "name": "E1",
                    "midi": 28,
                    "time": 34.5636059999998,
                    "velocity": 0.4409448818897638,
                    "duration": 0.07481299999999891
                },
                {
                    "name": "B1",
                    "midi": 35,
                    "time": 34.7132319999998,
                    "velocity": 0.36220472440944884,
                    "duration": 0.07481299999999891
                },
                {
                    "name": "E2",
                    "midi": 40,
                    "time": 34.8628579999998,
                    "velocity": 0.36220472440944884,
                    "duration": 0.07481299999999891
                },
                {
                    "name": "E1",
                    "midi": 28,
                    "time": 35.012483999999795,
                    "velocity": 0.4409448818897638,
                    "duration": 0.07481299999999891
                },
                {
                    "name": "B1",
                    "midi": 35,
                    "time": 35.16210999999979,
                    "velocity": 0.3464566929133858,
                    "duration": 0.07481299999999891
                },
                {
                    "name": "E2",
                    "midi": 40,
                    "time": 35.31173599999979,
                    "velocity": 0.3464566929133858,
                    "duration": 0.07481299999999891
                },
                {
                    "name": "E1",
                    "midi": 28,
                    "time": 35.46136199999979,
                    "velocity": 0.4409448818897638,
                    "duration": 0.07481299999999891
                },
                {
                    "name": "B1",
                    "midi": 35,
                    "time": 35.610987999999786,
                    "velocity": 0.36220472440944884,
                    "duration": 0.07481299999999891
                },
                {
                    "name": "E2",
                    "midi": 40,
                    "time": 35.760613999999784,
                    "velocity": 0.36220472440944884,
                    "duration": 0.07481299999999891
                },
                {
                    "name": "E1",
                    "midi": 28,
                    "time": 35.91023999999978,
                    "velocity": 0.4409448818897638,
                    "duration": 0.07481299999999891
                },
                {
                    "name": "A1",
                    "midi": 33,
                    "time": 36.35911799999978,
                    "velocity": 0.5275590551181102,
                    "duration": 0.07481299999999891
                },
                {
                    "name": "C#4",
                    "midi": 61,
                    "time": 36.95762199999978,
                    "velocity": 0.3858267716535433,
                    "duration": 0.07481299999999891
                },
                {
                    "name": "A3",
                    "midi": 57,
                    "time": 36.95762199999978,
                    "velocity": 0.3228346456692913,
                    "duration": 0.07481299999999891
                },
                {
                    "name": "E3",
                    "midi": 52,
                    "time": 37.10724799999978,
                    "velocity": 0.3228346456692913,
                    "duration": 0.07481299999999891
                },
                {
                    "name": "B3",
                    "midi": 59,
                    "time": 37.10724799999978,
                    "velocity": 0.3858267716535433,
                    "duration": 0.07481299999999891
                },
                {
                    "name": "C#3",
                    "midi": 49,
                    "time": 37.256873999999776,
                    "velocity": 0.3858267716535433,
                    "duration": 0.07481299999999891
                },
                {
                    "name": "A3",
                    "midi": 57,
                    "time": 37.256873999999776,
                    "velocity": 0.4566929133858268,
                    "duration": 0.07481299999999891
                },
                {
                    "name": "E2",
                    "midi": 40,
                    "time": 37.55612599999977,
                    "velocity": 0.5826771653543307,
                    "duration": 0.07481299999999891
                },
                {
                    "name": "A2",
                    "midi": 45,
                    "time": 37.70575199999977,
                    "velocity": 0.6850393700787402,
                    "duration": 0.07481299999999891
                },
                {
                    "name": "A3",
                    "midi": 57,
                    "time": 38.30425599999977,
                    "velocity": 0.3228346456692913,
                    "duration": 0.07481299999999891
                },
                {
                    "name": "C#4",
                    "midi": 61,
                    "time": 38.30425599999977,
                    "velocity": 0.3858267716535433,
                    "duration": 0.07481299999999891
                },
                {
                    "name": "E3",
                    "midi": 52,
                    "time": 38.453881999999766,
                    "velocity": 0.3228346456692913,
                    "duration": 0.07481299999999891
                },
                {
                    "name": "B3",
                    "midi": 59,
                    "time": 38.453881999999766,
                    "velocity": 0.3858267716535433,
                    "duration": 0.07481299999999891
                },
                {
                    "name": "A1",
                    "midi": 33,
                    "time": 38.453881999999766,
                    "velocity": 0.3228346456692913,
                    "duration": 0.07481299999999891
                },
                {
                    "name": "A3",
                    "midi": 57,
                    "time": 38.60350799999976,
                    "velocity": 0.4566929133858268,
                    "duration": 0.07481299999999891
                },
                {
                    "name": "C#3",
                    "midi": 49,
                    "time": 38.60350799999976,
                    "velocity": 0.3858267716535433,
                    "duration": 0.07481299999999891
                },
                {
                    "name": "A1",
                    "midi": 33,
                    "time": 38.60350799999976,
                    "velocity": 0.3228346456692913,
                    "duration": 0.07481299999999891
                },
                {
                    "name": "B1",
                    "midi": 35,
                    "time": 38.75313399999976,
                    "velocity": 0.4566929133858268,
                    "duration": 0.07481299999999891
                },
                {
                    "name": "C#2",
                    "midi": 37,
                    "time": 38.90275999999976,
                    "velocity": 0.5039370078740157,
                    "duration": 0.07481299999999891
                },
                {
                    "name": "D2",
                    "midi": 38,
                    "time": 39.05238599999976,
                    "velocity": 0.5275590551181102,
                    "duration": 0.07481299999999891
                },
                {
                    "name": "A2",
                    "midi": 45,
                    "time": 40.249393999999754,
                    "velocity": 0.5826771653543307,
                    "duration": 0.07481299999999891
                },
                {
                    "name": "D3",
                    "midi": 50,
                    "time": 40.39901999999975,
                    "velocity": 0.6850393700787402,
                    "duration": 0.07481299999999891
                },
                {
                    "name": "D2",
                    "midi": 38,
                    "time": 41.14714999999975,
                    "velocity": 0.3228346456692913,
                    "duration": 0.07481299999999891
                },
                {
                    "name": "D2",
                    "midi": 38,
                    "time": 41.296775999999745,
                    "velocity": 0.3228346456692913,
                    "duration": 0.07481299999999891
                },
                {
                    "name": "D#2",
                    "midi": 39,
                    "time": 41.44640199999974,
                    "velocity": 0.4566929133858268,
                    "duration": 0.07481299999999891
                },
                {
                    "name": "E2",
                    "midi": 40,
                    "time": 41.59602799999974,
                    "velocity": 0.5039370078740157,
                    "duration": 0.07481299999999891
                },
                {
                    "name": "F2",
                    "midi": 41,
                    "time": 41.74565399999974,
                    "velocity": 0.5275590551181102,
                    "duration": 0.07481299999999891
                },
                {
                    "name": "C3",
                    "midi": 48,
                    "time": 42.942661999999736,
                    "velocity": 0.5826771653543307,
                    "duration": 0.07481299999999891
                },
                {
                    "name": "F3",
                    "midi": 53,
                    "time": 43.09228799999973,
                    "velocity": 0.6850393700787402,
                    "duration": 0.07481299999999891
                },
                {
                    "name": "F2",
                    "midi": 41,
                    "time": 43.84041799999973,
                    "velocity": 0.3228346456692913,
                    "duration": 0.07481299999999891
                },
                {
                    "name": "F2",
                    "midi": 41,
                    "time": 43.99004399999973,
                    "velocity": 0.3228346456692913,
                    "duration": 0.07481299999999891
                },
                {
                    "name": "G2",
                    "midi": 43,
                    "time": 44.139669999999725,
                    "velocity": 0.4566929133858268,
                    "duration": 0.07481299999999891
                },
                {
                    "name": "A2",
                    "midi": 45,
                    "time": 44.28929599999972,
                    "velocity": 0.5039370078740157,
                    "duration": 0.07481299999999891
                },
                {
                    "name": "A#2",
                    "midi": 46,
                    "time": 44.43892199999972,
                    "velocity": 0.5275590551181102,
                    "duration": 0.07481299999999891
                },
                {
                    "name": "G#2",
                    "midi": 44,
                    "time": 45.03742599999972,
                    "velocity": 0.3228346456692913,
                    "duration": 0.07481299999999891
                },
                {
                    "name": "A2",
                    "midi": 45,
                    "time": 45.18705199999972,
                    "velocity": 0.3228346456692913,
                    "duration": 0.07481299999999891
                },
                {
                    "name": "B2",
                    "midi": 47,
                    "time": 45.336677999999715,
                    "velocity": 0.3543307086614173,
                    "duration": 0.07481299999999891
                },
                {
                    "name": "B2",
                    "midi": 47,
                    "time": 45.48630399999971,
                    "velocity": 0.33858267716535434,
                    "duration": 0.07481299999999891
                },
                {
                    "name": "C3",
                    "midi": 48,
                    "time": 45.63592999999971,
                    "velocity": 0.3543307086614173,
                    "duration": 0.07481299999999891
                },
                {
                    "name": "D3",
                    "midi": 50,
                    "time": 45.78555599999971,
                    "velocity": 0.4330708661417323,
                    "duration": 0.07481299999999891
                },
                {
                    "name": "B2",
                    "midi": 47,
                    "time": 46.38405999999971,
                    "velocity": 0.3228346456692913,
                    "duration": 0.07481299999999891
                },
                {
                    "name": "C3",
                    "midi": 48,
                    "time": 46.533685999999705,
                    "velocity": 0.3228346456692913,
                    "duration": 0.07481299999999891
                },
                {
                    "name": "D3",
                    "midi": 50,
                    "time": 46.6833119999997,
                    "velocity": 0.3543307086614173,
                    "duration": 0.07481299999999891
                },
                {
                    "name": "D3",
                    "midi": 50,
                    "time": 46.8329379999997,
                    "velocity": 0.33858267716535434,
                    "duration": 0.07481299999999891
                },
                {
                    "name": "E3",
                    "midi": 52,
                    "time": 46.9825639999997,
                    "velocity": 0.3543307086614173,
                    "duration": 0.07481299999999891
                },
                {
                    "name": "F3",
                    "midi": 53,
                    "time": 47.132189999999696,
                    "velocity": 0.4330708661417323,
                    "duration": 0.07481299999999891
                },
                {
                    "name": "F3",
                    "midi": 53,
                    "time": 47.730693999999694,
                    "velocity": 0.28346456692913385,
                    "duration": 0.07481299999999891
                },
                {
                    "name": "G3",
                    "midi": 55,
                    "time": 47.88031999999969,
                    "velocity": 0.28346456692913385,
                    "duration": 0.07481299999999891
                },
                {
                    "name": "G#3",
                    "midi": 56,
                    "time": 48.02994599999969,
                    "velocity": 0.33858267716535434,
                    "duration": 0.07481299999999891
                },
                {
                    "name": "G#3",
                    "midi": 56,
                    "time": 48.17957199999969,
                    "velocity": 0.30708661417322836,
                    "duration": 0.07481299999999891
                },
                {
                    "name": "A3",
                    "midi": 57,
                    "time": 48.329197999999685,
                    "velocity": 0.3858267716535433,
                    "duration": 0.07481299999999891
                },
                {
                    "name": "B3",
                    "midi": 59,
                    "time": 48.47882399999968,
                    "velocity": 0.48031496062992124,
                    "duration": 0.07481299999999891
                },
                {
                    "name": "D4",
                    "midi": 62,
                    "time": 48.77807599999968,
                    "velocity": 0.3228346456692913,
                    "duration": 0.43640916666666385
                },
                {
                    "name": "B3",
                    "midi": 59,
                    "time": 48.77807599999968,
                    "velocity": 0.2677165354330709,
                    "duration": 0.43640916666666385
                },
                {
                    "name": "D4",
                    "midi": 62,
                    "time": 49.22695399999968,
                    "velocity": 0.3228346456692913,
                    "duration": 0.44887800000000055
                },
                {
                    "name": "B3",
                    "midi": 59,
                    "time": 49.22695399999968,
                    "velocity": 0.2677165354330709,
                    "duration": 0.44887800000000055
                },
                {
                    "name": "B3",
                    "midi": 59,
                    "time": 49.82545799999968,
                    "velocity": 0.5118110236220472,
                    "duration": 0.07481299999999891
                },
                {
                    "name": "D#4",
                    "midi": 63,
                    "time": 49.82545799999968,
                    "velocity": 0.5118110236220472,
                    "duration": 0.07481299999999891
                },
                {
                    "name": "D#4",
                    "midi": 63,
                    "time": 50.12470999999967,
                    "velocity": 0.3228346456692913,
                    "duration": 0.43640916666666385
                },
                {
                    "name": "B3",
                    "midi": 59,
                    "time": 50.12470999999967,
                    "velocity": 0.2677165354330709,
                    "duration": 0.43640916666666385
                },
                {
                    "name": "D#4",
                    "midi": 63,
                    "time": 50.573587999999674,
                    "velocity": 0.3228346456692913,
                    "duration": 0.44887800000000055
                },
                {
                    "name": "B3",
                    "midi": 59,
                    "time": 50.573587999999674,
                    "velocity": 0.2677165354330709,
                    "duration": 0.44887800000000055
                },
                {
                    "name": "D4",
                    "midi": 62,
                    "time": 51.17209199999967,
                    "velocity": 0.4330708661417323,
                    "duration": 0.44887800000000055
                },
                {
                    "name": "G3",
                    "midi": 55,
                    "time": 51.17209199999967,
                    "velocity": 0.4330708661417323,
                    "duration": 0.44887800000000055
                },
                {
                    "name": "F4",
                    "midi": 65,
                    "time": 51.17209199999967,
                    "velocity": 0.5118110236220472,
                    "duration": 0.44887800000000055
                },
                {
                    "name": "G1",
                    "midi": 31,
                    "time": 51.920221999999676,
                    "velocity": 0.47244094488188976,
                    "duration": 0.07481299999999891
                },
                {
                    "name": "G2",
                    "midi": 43,
                    "time": 51.920221999999676,
                    "velocity": 0.47244094488188976,
                    "duration": 0.07481299999999891
                },
                {
                    "name": "G2",
                    "midi": 43,
                    "time": 52.06984799999967,
                    "velocity": 0.5039370078740157,
                    "duration": 0.07481299999999891
                },
                {
                    "name": "G1",
                    "midi": 31,
                    "time": 52.06984799999967,
                    "velocity": 0.5039370078740157,
                    "duration": 0.07481299999999891
                },
                {
                    "name": "A2",
                    "midi": 45,
                    "time": 52.21947399999967,
                    "velocity": 0.5275590551181102,
                    "duration": 0.07481299999999891
                },
                {
                    "name": "A1",
                    "midi": 33,
                    "time": 52.21947399999967,
                    "velocity": 0.5275590551181102,
                    "duration": 0.07481299999999891
                },
                {
                    "name": "B2",
                    "midi": 47,
                    "time": 52.36909999999967,
                    "velocity": 0.5511811023622047,
                    "duration": 0.07481299999999891
                },
                {
                    "name": "B1",
                    "midi": 35,
                    "time": 52.36909999999967,
                    "velocity": 0.5511811023622047,
                    "duration": 0.07481299999999891
                },
                {
                    "name": "C2",
                    "midi": 36,
                    "time": 52.51872599999967,
                    "velocity": 0.5748031496062992,
                    "duration": 0.07481299999999891
                },
                {
                    "name": "G2",
                    "midi": 43,
                    "time": 52.668351999999665,
                    "velocity": 0.47244094488188976,
                    "duration": 0.07481299999999891
                },
                {
                    "name": "C3",
                    "midi": 48,
                    "time": 52.81797799999966,
                    "velocity": 0.47244094488188976,
                    "duration": 0.07481299999999891
                },
                {
                    "name": "C2",
                    "midi": 36,
                    "time": 52.96760399999966,
                    "velocity": 0.5511811023622047,
                    "duration": 0.07481299999999891
                },
                {
                    "name": "G2",
                    "midi": 43,
                    "time": 53.11722999999966,
                    "velocity": 0.4645669291338583,
                    "duration": 0.07481299999999891
                },
                {
                    "name": "C3",
                    "midi": 48,
                    "time": 53.266855999999656,
                    "velocity": 0.4645669291338583,
                    "duration": 0.07481299999999891
                },
                {
                    "name": "C2",
                    "midi": 36,
                    "time": 53.416481999999654,
                    "velocity": 0.5196850393700787,
                    "duration": 0.07481299999999891
                },
                {
                    "name": "G2",
                    "midi": 43,
                    "time": 53.56610799999965,
                    "velocity": 0.4645669291338583,
                    "duration": 0.07481299999999891
                },
                {
                    "name": "C3",
                    "midi": 48,
                    "time": 53.71573399999965,
                    "velocity": 0.4645669291338583,
                    "duration": 0.07481299999999891
                },
                {
                    "name": "C2",
                    "midi": 36,
                    "time": 53.86535999999965,
                    "velocity": 0.5196850393700787,
                    "duration": 0.07481299999999891
                },
                {
                    "name": "G2",
                    "midi": 43,
                    "time": 54.014985999999645,
                    "velocity": 0.3858267716535433,
                    "duration": 0.07481299999999891
                },
                {
                    "name": "C3",
                    "midi": 48,
                    "time": 54.16461199999964,
                    "velocity": 0.3858267716535433,
                    "duration": 0.07481299999999891
                },
                {
                    "name": "C2",
                    "midi": 36,
                    "time": 54.31423799999964,
                    "velocity": 0.4409448818897638,
                    "duration": 0.07481299999999891
                },
                {
                    "name": "G2",
                    "midi": 43,
                    "time": 54.46386399999964,
                    "velocity": 0.3464566929133858,
                    "duration": 0.07481299999999891
                },
                {
                    "name": "C3",
                    "midi": 48,
                    "time": 54.613489999999636,
                    "velocity": 0.3464566929133858,
                    "duration": 0.07481299999999891
                },
                {
                    "name": "C2",
                    "midi": 36,
                    "time": 54.763115999999634,
                    "velocity": 0.4409448818897638,
                    "duration": 0.07481299999999891
                },
                {
                    "name": "G2",
                    "midi": 43,
                    "time": 54.91274199999963,
                    "velocity": 0.36220472440944884,
                    "duration": 0.07481299999999891
                },
                {
                    "name": "C3",
                    "midi": 48,
                    "time": 55.06236799999963,
                    "velocity": 0.36220472440944884,
                    "duration": 0.07481299999999891
                },
                {
                    "name": "C2",
                    "midi": 36,
                    "time": 55.21199399999963,
                    "velocity": 0.47244094488188976,
                    "duration": 0.07481299999999891
                },
                {
                    "name": "G2",
                    "midi": 43,
                    "time": 55.361619999999625,
                    "velocity": 0.3858267716535433,
                    "duration": 0.07481299999999891
                },
                {
                    "name": "C3",
                    "midi": 48,
                    "time": 55.51124599999962,
                    "velocity": 0.3858267716535433,
                    "duration": 0.07481299999999891
                },
                {
                    "name": "C2",
                    "midi": 36,
                    "time": 55.66087199999962,
                    "velocity": 0.4409448818897638,
                    "duration": 0.07481299999999891
                },
                {
                    "name": "G2",
                    "midi": 43,
                    "time": 55.81049799999962,
                    "velocity": 0.3464566929133858,
                    "duration": 0.07481299999999891
                },
                {
                    "name": "C3",
                    "midi": 48,
                    "time": 55.96012399999962,
                    "velocity": 0.3464566929133858,
                    "duration": 0.07481299999999891
                },
                {
                    "name": "B1",
                    "midi": 35,
                    "time": 56.109749999999615,
                    "velocity": 0.4409448818897638,
                    "duration": 0.07481299999999891
                },
                {
                    "name": "G2",
                    "midi": 43,
                    "time": 56.25937599999961,
                    "velocity": 0.36220472440944884,
                    "duration": 0.07481299999999891
                },
                {
                    "name": "B2",
                    "midi": 47,
                    "time": 56.40900199999961,
                    "velocity": 0.36220472440944884,
                    "duration": 0.07481299999999891
                },
                {
                    "name": "A1",
                    "midi": 33,
                    "time": 56.55862799999961,
                    "velocity": 0.47244094488188976,
                    "duration": 0.07481299999999891
                },
                {
                    "name": "E2",
                    "midi": 40,
                    "time": 56.708253999999606,
                    "velocity": 0.3858267716535433,
                    "duration": 0.07481299999999891
                },
                {
                    "name": "A2",
                    "midi": 45,
                    "time": 56.857879999999604,
                    "velocity": 0.3858267716535433,
                    "duration": 0.07481299999999891
                },
                {
                    "name": "A1",
                    "midi": 33,
                    "time": 57.0075059999996,
                    "velocity": 0.44881889763779526,
                    "duration": 0.07481299999999891
                },
                {
                    "name": "E2",
                    "midi": 40,
                    "time": 57.1571319999996,
                    "velocity": 0.36220472440944884,
                    "duration": 0.07481299999999891
                },
                {
                    "name": "A2",
                    "midi": 45,
                    "time": 57.3067579999996,
                    "velocity": 0.3700787401574803,
                    "duration": 0.07481299999999891
                },
                {
                    "name": "A1",
                    "midi": 33,
                    "time": 57.456383999999595,
                    "velocity": 0.4881889763779528,
                    "duration": 0.07481299999999891
                },
                {
                    "name": "E2",
                    "midi": 40,
                    "time": 57.60600999999959,
                    "velocity": 0.4094488188976378,
                    "duration": 0.07481299999999891
                },
                {
                    "name": "A2",
                    "midi": 45,
                    "time": 57.75563599999959,
                    "velocity": 0.41732283464566927,
                    "duration": 0.07481299999999891
                },
                {
                    "name": "A1",
                    "midi": 33,
                    "time": 57.90526199999959,
                    "velocity": 0.47244094488188976,
                    "duration": 0.07481299999999891
                },
                {
                    "name": "E2",
                    "midi": 40,
                    "time": 58.054887999999586,
                    "velocity": 0.3858267716535433,
                    "duration": 0.07481299999999891
                },
                {
                    "name": "A2",
                    "midi": 45,
                    "time": 58.204513999999584,
                    "velocity": 0.3858267716535433,
                    "duration": 0.07481299999999891
                },
                {
                    "name": "A1",
                    "midi": 33,
                    "time": 58.35413999999958,
                    "velocity": 0.4409448818897638,
                    "duration": 0.07481299999999891
                },
                {
                    "name": "E2",
                    "midi": 40,
                    "time": 58.50376599999958,
                    "velocity": 0.3464566929133858,
                    "duration": 0.07481299999999891
                },
                {
                    "name": "A2",
                    "midi": 45,
                    "time": 58.65339199999958,
                    "velocity": 0.3464566929133858,
                    "duration": 0.07481299999999891
                },
                {
                    "name": "G1",
                    "midi": 31,
                    "time": 58.803017999999575,
                    "velocity": 0.4409448818897638,
                    "duration": 0.07481299999999891
                },
                {
                    "name": "E2",
                    "midi": 40,
                    "time": 58.95264399999957,
                    "velocity": 0.36220472440944884,
                    "duration": 0.07481299999999891
                },
                {
                    "name": "G2",
                    "midi": 43,
                    "time": 59.10226999999957,
                    "velocity": 0.36220472440944884,
                    "duration": 0.07481299999999891
                },
                {
                    "name": "F1",
                    "midi": 29,
                    "time": 59.25189599999957,
                    "velocity": 0.47244094488188976,
                    "duration": 0.07481299999999891
                },
                {
                    "name": "C2",
                    "midi": 36,
                    "time": 59.40152199999957,
                    "velocity": 0.3858267716535433,
                    "duration": 0.07481299999999891
                },
                {
                    "name": "F2",
                    "midi": 41,
                    "time": 59.551147999999564,
                    "velocity": 0.3858267716535433,
                    "duration": 0.07481299999999891
                },
                {
                    "name": "F1",
                    "midi": 29,
                    "time": 59.70077399999956,
                    "velocity": 0.44881889763779526,
                    "duration": 0.07481299999999891
                },
                {
                    "name": "C2",
                    "midi": 36,
                    "time": 59.85039999999956,
                    "velocity": 0.36220472440944884,
                    "duration": 0.07481299999999891
                },
                {
                    "name": "F2",
                    "midi": 41,
                    "time": 60.00002599999956,
                    "velocity": 0.3700787401574803,
                    "duration": 0.07481299999999891
                },
                {
                    "name": "F1",
                    "midi": 29,
                    "time": 60.149651999999556,
                    "velocity": 0.4881889763779528,
                    "duration": 0.07481299999999891
                },
                {
                    "name": "C2",
                    "midi": 36,
                    "time": 60.29927799999955,
                    "velocity": 0.4094488188976378,
                    "duration": 0.07481299999999891
                },
                {
                    "name": "F2",
                    "midi": 41,
                    "time": 60.44890399999955,
                    "velocity": 0.41732283464566927,
                    "duration": 0.07481299999999891
                },
                {
                    "name": "F1",
                    "midi": 29,
                    "time": 60.59852999999955,
                    "velocity": 0.5196850393700787,
                    "duration": 0.07481299999999891
                },
                {
                    "name": "G1",
                    "midi": 31,
                    "time": 60.74815599999955,
                    "velocity": 0.4330708661417323,
                    "duration": 0.07481299999999891
                },
                {
                    "name": "F2",
                    "midi": 41,
                    "time": 60.897781999999545,
                    "velocity": 0.4409448818897638,
                    "duration": 0.07481299999999891
                },
                {
                    "name": "F1",
                    "midi": 29,
                    "time": 61.04740799999954,
                    "velocity": 0.5275590551181102,
                    "duration": 0.07481299999999891
                },
                {
                    "name": "G1",
                    "midi": 31,
                    "time": 61.19703399999954,
                    "velocity": 0.4251968503937008,
                    "duration": 0.07481299999999891
                },
                {
                    "name": "F2",
                    "midi": 41,
                    "time": 61.34665999999954,
                    "velocity": 0.4330708661417323,
                    "duration": 0.07481299999999891
                },
                {
                    "name": "F1",
                    "midi": 29,
                    "time": 61.496285999999536,
                    "velocity": 0.5669291338582677,
                    "duration": 0.07481299999999891
                },
                {
                    "name": "G1",
                    "midi": 31,
                    "time": 61.645911999999534,
                    "velocity": 0.48031496062992124,
                    "duration": 0.07481299999999891
                },
                {
                    "name": "F2",
                    "midi": 41,
                    "time": 61.79553799999953,
                    "velocity": 0.4881889763779528,
                    "duration": 0.07481299999999891
                },
                {
                    "name": "E1",
                    "midi": 28,
                    "time": 61.94516399999953,
                    "velocity": 0.5354330708661418,
                    "duration": 0.07481299999999891
                },
                {
                    "name": "E2",
                    "midi": 40,
                    "time": 61.94516399999953,
                    "velocity": 0.6299212598425197,
                    "duration": 0.07481299999999891
                },
                {
                    "name": "D1",
                    "midi": 26,
                    "time": 62.09478999999953,
                    "velocity": 0.3779527559055118,
                    "duration": 0.07481299999999891
                },
                {
                    "name": "D2",
                    "midi": 38,
                    "time": 62.09478999999953,
                    "velocity": 0.44881889763779526,
                    "duration": 0.07481299999999891
                },
                {
                    "name": "C1",
                    "midi": 24,
                    "time": 62.244415999999525,
                    "velocity": 0.3858267716535433,
                    "duration": 0.07481299999999891
                },
                {
                    "name": "C2",
                    "midi": 36,
                    "time": 62.244415999999525,
                    "velocity": 0.4566929133858268,
                    "duration": 0.07481299999999891
                },
                {
                    "name": "D2",
                    "midi": 38,
                    "time": 62.39404199999952,
                    "velocity": 0.6141732283464567,
                    "duration": 0.5985039999999984
                },
                {
                    "name": "D1",
                    "midi": 26,
                    "time": 62.39404199999952,
                    "velocity": 0.5196850393700787,
                    "duration": 0.5985039999999984
                },
                {
                    "name": "C2",
                    "midi": 36,
                    "time": 62.99254599999952,
                    "velocity": 0.3779527559055118,
                    "duration": 0.07481299999999891
                },
                {
                    "name": "C3",
                    "midi": 48,
                    "time": 62.99254599999952,
                    "velocity": 0.44881889763779526,
                    "duration": 0.07481299999999891
                },
                {
                    "name": "B1",
                    "midi": 35,
                    "time": 63.14217199999952,
                    "velocity": 0.3858267716535433,
                    "duration": 0.07481299999999891
                },
                {
                    "name": "B2",
                    "midi": 47,
                    "time": 63.14217199999952,
                    "velocity": 0.4566929133858268,
                    "duration": 0.07481299999999891
                },
                {
                    "name": "C2",
                    "midi": 36,
                    "time": 63.29179799999952,
                    "velocity": 0.5196850393700787,
                    "duration": 0.5985039999999984
                },
                {
                    "name": "C3",
                    "midi": 48,
                    "time": 63.29179799999952,
                    "velocity": 0.6141732283464567,
                    "duration": 0.5985039999999984
                },
                {
                    "name": "B2",
                    "midi": 47,
                    "time": 63.890301999999515,
                    "velocity": 0.44881889763779526,
                    "duration": 0.07481299999999891
                },
                {
                    "name": "B1",
                    "midi": 35,
                    "time": 63.890301999999515,
                    "velocity": 0.3779527559055118,
                    "duration": 0.07481299999999891
                },
                {
                    "name": "A1",
                    "midi": 33,
                    "time": 64.03992799999952,
                    "velocity": 0.3858267716535433,
                    "duration": 0.07481300000000601
                },
                {
                    "name": "A2",
                    "midi": 45,
                    "time": 64.03992799999952,
                    "velocity": 0.4566929133858268,
                    "duration": 0.07481300000000601
                },
                {
                    "name": "B1",
                    "midi": 35,
                    "time": 64.18955399999953,
                    "velocity": 0.3779527559055118,
                    "duration": 0.07481300000000601
                },
                {
                    "name": "B2",
                    "midi": 47,
                    "time": 64.18955399999953,
                    "velocity": 0.44881889763779526,
                    "duration": 0.07481300000000601
                },
                {
                    "name": "G2",
                    "midi": 43,
                    "time": 64.48880599999954,
                    "velocity": 0.44881889763779526,
                    "duration": 0.07481300000000601
                },
                {
                    "name": "G1",
                    "midi": 31,
                    "time": 64.48880599999954,
                    "velocity": 0.3779527559055118,
                    "duration": 0.07481300000000601
                },
                {
                    "name": "D#2",
                    "midi": 39,
                    "time": 64.63843199999955,
                    "velocity": 0.5354330708661418,
                    "duration": 0.07481300000000601
                },
                {
                    "name": "D#3",
                    "midi": 51,
                    "time": 64.63843199999955,
                    "velocity": 0.6299212598425197,
                    "duration": 0.07481300000000601
                },
                {
                    "name": "D3",
                    "midi": 50,
                    "time": 64.78805799999957,
                    "velocity": 0.44881889763779526,
                    "duration": 0.07481300000000601
                },
                {
                    "name": "D2",
                    "midi": 38,
                    "time": 64.78805799999957,
                    "velocity": 0.3779527559055118,
                    "duration": 0.07481300000000601
                },
                {
                    "name": "C3",
                    "midi": 48,
                    "time": 64.93768399999958,
                    "velocity": 0.4566929133858268,
                    "duration": 0.07481300000000601
                },
                {
                    "name": "C2",
                    "midi": 36,
                    "time": 64.93768399999958,
                    "velocity": 0.3858267716535433,
                    "duration": 0.07481300000000601
                },
                {
                    "name": "D2",
                    "midi": 38,
                    "time": 65.08730999999959,
                    "velocity": 0.5196850393700787,
                    "duration": 0.5985040000000055
                },
                {
                    "name": "D3",
                    "midi": 50,
                    "time": 65.08730999999959,
                    "velocity": 0.6141732283464567,
                    "duration": 0.5985040000000055
                },
                {
                    "name": "C3",
                    "midi": 48,
                    "time": 65.6858139999996,
                    "velocity": 0.44881889763779526,
                    "duration": 0.07481300000000601
                },
                {
                    "name": "C2",
                    "midi": 36,
                    "time": 65.6858139999996,
                    "velocity": 0.3779527559055118,
                    "duration": 0.07481300000000601
                },
                {
                    "name": "B2",
                    "midi": 47,
                    "time": 65.83543999999961,
                    "velocity": 0.4566929133858268,
                    "duration": 0.07481300000000601
                },
                {
                    "name": "B1",
                    "midi": 35,
                    "time": 65.83543999999961,
                    "velocity": 0.3858267716535433,
                    "duration": 0.07481300000000601
                },
                {
                    "name": "C3",
                    "midi": 48,
                    "time": 65.98506599999962,
                    "velocity": 0.6141732283464567,
                    "duration": 0.5985040000000055
                },
                {
                    "name": "C2",
                    "midi": 36,
                    "time": 65.98506599999962,
                    "velocity": 0.5196850393700787,
                    "duration": 0.5985040000000055
                },
                {
                    "name": "B2",
                    "midi": 47,
                    "time": 66.58356999999963,
                    "velocity": 0.44881889763779526,
                    "duration": 0.07481300000000601
                },
                {
                    "name": "B1",
                    "midi": 35,
                    "time": 66.58356999999963,
                    "velocity": 0.3779527559055118,
                    "duration": 0.07481300000000601
                },
                {
                    "name": "A1",
                    "midi": 33,
                    "time": 66.73319599999964,
                    "velocity": 0.3858267716535433,
                    "duration": 0.07481300000000601
                },
                {
                    "name": "A2",
                    "midi": 45,
                    "time": 66.73319599999964,
                    "velocity": 0.4566929133858268,
                    "duration": 0.07481300000000601
                },
                {
                    "name": "B2",
                    "midi": 47,
                    "time": 66.88282199999965,
                    "velocity": 0.44881889763779526,
                    "duration": 0.07481300000000601
                },
                {
                    "name": "B1",
                    "midi": 35,
                    "time": 66.88282199999965,
                    "velocity": 0.3779527559055118,
                    "duration": 0.07481300000000601
                },
                {
                    "name": "G1",
                    "midi": 31,
                    "time": 67.18207399999966,
                    "velocity": 0.3779527559055118,
                    "duration": 0.07481300000000601
                },
                {
                    "name": "G2",
                    "midi": 43,
                    "time": 67.18207399999966,
                    "velocity": 0.44881889763779526,
                    "duration": 0.07481300000000601
                },
                {
                    "name": "C2",
                    "midi": 36,
                    "time": 67.29429349999967,
                    "velocity": 0.47244094488188976,
                    "duration": 0.11221950000000902
                },
                {
                    "name": "G2",
                    "midi": 43,
                    "time": 67.31299674999967,
                    "velocity": 0.47244094488188976,
                    "duration": 0.09351625000000752
                },
                {
                    "name": "E3",
                    "midi": 52,
                    "time": 67.33169999999967,
                    "velocity": 0.5590551181102362,
                    "duration": 0.07481300000000601
                },
                {
                    "name": "C4",
                    "midi": 60,
                    "time": 67.63095199999968,
                    "velocity": 0.49606299212598426,
                    "duration": 0.29925199999999563
                },
                {
                    "name": "C3",
                    "midi": 48,
                    "time": 67.63095199999968,
                    "velocity": 0.41732283464566927,
                    "duration": 0.29925199999999563
                },
                {
                    "name": "G3",
                    "midi": 55,
                    "time": 67.63095199999968,
                    "velocity": 0.41732283464566927,
                    "duration": 0.29925199999999563
                },
                {
                    "name": "E3",
                    "midi": 52,
                    "time": 67.63095199999968,
                    "velocity": 0.41732283464566927,
                    "duration": 0.29925199999999563
                },
                {
                    "name": "F3",
                    "midi": 53,
                    "time": 67.93020399999968,
                    "velocity": 0.41732283464566927,
                    "duration": 0.44887799999999345
                },
                {
                    "name": "A3",
                    "midi": 57,
                    "time": 67.93020399999968,
                    "velocity": 0.41732283464566927,
                    "duration": 0.44887799999999345
                },
                {
                    "name": "C4",
                    "midi": 60,
                    "time": 67.93020399999968,
                    "velocity": 0.49606299212598426,
                    "duration": 0.44887799999999345
                },
                {
                    "name": "C3",
                    "midi": 48,
                    "time": 67.93020399999968,
                    "velocity": 0.41732283464566927,
                    "duration": 0.44887799999999345
                },
                {
                    "name": "D3",
                    "midi": 50,
                    "time": 68.37908199999967,
                    "velocity": 0.4094488188976378,
                    "duration": 0.22443900000000383
                },
                {
                    "name": "C3",
                    "midi": 48,
                    "time": 68.37908199999967,
                    "velocity": 0.4094488188976378,
                    "duration": 0.22443900000000383
                },
                {
                    "name": "F3",
                    "midi": 53,
                    "time": 68.37908199999967,
                    "velocity": 0.4094488188976378,
                    "duration": 0.22443900000000383
                },
                {
                    "name": "C4",
                    "midi": 60,
                    "time": 68.37908199999967,
                    "velocity": 0.4881889763779528,
                    "duration": 0.22443900000000383
                },
                {
                    "name": "C4",
                    "midi": 60,
                    "time": 68.60352099999967,
                    "velocity": 0.4330708661417323,
                    "duration": 0.06857858333333411
                },
                {
                    "name": "C3",
                    "midi": 48,
                    "time": 68.60352099999967,
                    "velocity": 0.36220472440944884,
                    "duration": 0.06857858333333411
                },
                {
                    "name": "G3",
                    "midi": 55,
                    "time": 68.60352099999967,
                    "velocity": 0.36220472440944884,
                    "duration": 0.06857858333333411
                },
                {
                    "name": "E3",
                    "midi": 52,
                    "time": 68.60352099999967,
                    "velocity": 0.36220472440944884,
                    "duration": 0.06857858333333411
                },
                {
                    "name": "C3",
                    "midi": 48,
                    "time": 68.67833399999968,
                    "velocity": 0.4015748031496063,
                    "duration": 0.07481300000000601
                },
                {
                    "name": "E3",
                    "midi": 52,
                    "time": 68.67833399999968,
                    "velocity": 0.4015748031496063,
                    "duration": 0.07481300000000601
                },
                {
                    "name": "G3",
                    "midi": 55,
                    "time": 68.67833399999968,
                    "velocity": 0.4015748031496063,
                    "duration": 0.07481300000000601
                },
                {
                    "name": "C4",
                    "midi": 60,
                    "time": 68.67833399999968,
                    "velocity": 0.48031496062992124,
                    "duration": 0.07481300000000601
                },
                {
                    "name": "G2",
                    "midi": 43,
                    "time": 68.97758599999969,
                    "velocity": 0.3700787401574803,
                    "duration": 0.29925199999999563
                },
                {
                    "name": "C3",
                    "midi": 48,
                    "time": 68.97758599999969,
                    "velocity": 0.4409448818897638,
                    "duration": 0.29925199999999563
                },
                {
                    "name": "C2",
                    "midi": 36,
                    "time": 68.97758599999969,
                    "velocity": 0.3700787401574803,
                    "duration": 0.29925199999999563
                },
                {
                    "name": "C3",
                    "midi": 48,
                    "time": 69.27683799999969,
                    "velocity": 0.4409448818897638,
                    "duration": 0.44887799999999345
                },
                {
                    "name": "C2",
                    "midi": 36,
                    "time": 69.27683799999969,
                    "velocity": 0.3700787401574803,
                    "duration": 0.44887799999999345
                },
                {
                    "name": "A2",
                    "midi": 45,
                    "time": 69.27683799999969,
                    "velocity": 0.3700787401574803,
                    "duration": 0.44887799999999345
                },
                {
                    "name": "F2",
                    "midi": 41,
                    "time": 69.72571599999968,
                    "velocity": 0.36220472440944884,
                    "duration": 0.21820458333333193
                },
                {
                    "name": "C2",
                    "midi": 36,
                    "time": 69.72571599999968,
                    "velocity": 0.36220472440944884,
                    "duration": 0.21820458333333193
                },
                {
                    "name": "C3",
                    "midi": 48,
                    "time": 69.72571599999968,
                    "velocity": 0.4330708661417323,
                    "duration": 0.21820458333333193
                },
                {
                    "name": "G2",
                    "midi": 43,
                    "time": 69.95015499999968,
                    "velocity": 0.3228346456692913,
                    "duration": 0.07481300000000601
                },
                {
                    "name": "C2",
                    "midi": 36,
                    "time": 69.95015499999968,
                    "velocity": 0.3228346456692913,
                    "duration": 0.07481300000000601
                },
                {
                    "name": "C3",
                    "midi": 48,
                    "time": 69.95015499999968,
                    "velocity": 0.3858267716535433,
                    "duration": 0.07481300000000601
                },
                {
                    "name": "C2",
                    "midi": 36,
                    "time": 70.02496799999969,
                    "velocity": 0.47244094488188976,
                    "duration": 0.07481300000000601
                },
                {
                    "name": "G2",
                    "midi": 43,
                    "time": 70.1745939999997,
                    "velocity": 0.3858267716535433,
                    "duration": 0.07481300000000601
                },
                {
                    "name": "C3",
                    "midi": 48,
                    "time": 70.32421999999971,
                    "velocity": 0.3858267716535433,
                    "duration": 0.07481300000000601
                },
                {
                    "name": "C2",
                    "midi": 36,
                    "time": 70.47384599999972,
                    "velocity": 0.4409448818897638,
                    "duration": 0.07481300000000601
                },
                {
                    "name": "G2",
                    "midi": 43,
                    "time": 70.62347199999974,
                    "velocity": 0.3464566929133858,
                    "duration": 0.07481300000000601
                },
                {
                    "name": "C3",
                    "midi": 48,
                    "time": 70.77309799999975,
                    "velocity": 0.3464566929133858,
                    "duration": 0.07481300000000601
                },
                {
                    "name": "C2",
                    "midi": 36,
                    "time": 70.92272399999976,
                    "velocity": 0.4409448818897638,
                    "duration": 0.07481300000000601
                },
                {
                    "name": "G2",
                    "midi": 43,
                    "time": 71.07234999999977,
                    "velocity": 0.36220472440944884,
                    "duration": 0.07481300000000601
                },
                {
                    "name": "C3",
                    "midi": 48,
                    "time": 71.22197599999978,
                    "velocity": 0.36220472440944884,
                    "duration": 0.07481300000000601
                },
                {
                    "name": "C2",
                    "midi": 36,
                    "time": 71.3716019999998,
                    "velocity": 0.4409448818897638,
                    "duration": 0.07481300000000601
                },
                {
                    "name": "G2",
                    "midi": 43,
                    "time": 71.52122799999981,
                    "velocity": 0.3464566929133858,
                    "duration": 0.07481300000000601
                },
                {
                    "name": "C3",
                    "midi": 48,
                    "time": 71.67085399999982,
                    "velocity": 0.3464566929133858,
                    "duration": 0.07481300000000601
                },
                {
                    "name": "C2",
                    "midi": 36,
                    "time": 71.82047999999983,
                    "velocity": 0.4409448818897638,
                    "duration": 0.07481300000000601
                },
                {
                    "name": "G2",
                    "midi": 43,
                    "time": 71.97010599999984,
                    "velocity": 0.36220472440944884,
                    "duration": 0.07481300000000601
                },
                {
                    "name": "C3",
                    "midi": 48,
                    "time": 72.11973199999986,
                    "velocity": 0.36220472440944884,
                    "duration": 0.07481300000000601
                },
                {
                    "name": "C2",
                    "midi": 36,
                    "time": 72.26935799999987,
                    "velocity": 0.4409448818897638,
                    "duration": 0.07481300000000601
                },
                {
                    "name": "G2",
                    "midi": 43,
                    "time": 72.41898399999988,
                    "velocity": 0.2755905511811024,
                    "duration": 0.07481300000000601
                },
                {
                    "name": "C3",
                    "midi": 48,
                    "time": 72.5686099999999,
                    "velocity": 0.2755905511811024,
                    "duration": 0.07481300000000601
                },
                {
                    "name": "A1",
                    "midi": 33,
                    "time": 72.7182359999999,
                    "velocity": 0.33858267716535434,
                    "duration": 0.07481300000000601
                },
                {
                    "name": "D2",
                    "midi": 38,
                    "time": 72.86786199999992,
                    "velocity": 0.2283464566929134,
                    "duration": 0.07481300000000601
                },
                {
                    "name": "A2",
                    "midi": 45,
                    "time": 73.01748799999993,
                    "velocity": 0.2283464566929134,
                    "duration": 0.07481300000000601
                },
                {
                    "name": "A1",
                    "midi": 33,
                    "time": 73.16711399999994,
                    "velocity": 0.2992125984251969,
                    "duration": 0.07481300000000601
                },
                {
                    "name": "D2",
                    "midi": 38,
                    "time": 73.31673999999995,
                    "velocity": 0.25196850393700787,
                    "duration": 0.07481300000000601
                },
                {
                    "name": "A2",
                    "midi": 45,
                    "time": 73.46636599999997,
                    "velocity": 0.25196850393700787,
                    "duration": 0.07481300000000601
                },
                {
                    "name": "A1",
                    "midi": 33,
                    "time": 73.61599199999998,
                    "velocity": 0.31496062992125984,
                    "duration": 0.07481300000000601
                },
                {
                    "name": "D2",
                    "midi": 38,
                    "time": 73.76561799999999,
                    "velocity": 0.25196850393700787,
                    "duration": 0.07481300000000601
                },
                {
                    "name": "A2",
                    "midi": 45,
                    "time": 73.915244,
                    "velocity": 0.2440944881889764,
                    "duration": 0.07481300000000601
                },
                {
                    "name": "A1",
                    "midi": 33,
                    "time": 74.06487000000001,
                    "velocity": 0.2992125984251969,
                    "duration": 0.07481300000000601
                },
                {
                    "name": "D2",
                    "midi": 38,
                    "time": 74.21449600000003,
                    "velocity": 0.2047244094488189,
                    "duration": 0.07481300000000601
                },
                {
                    "name": "A2",
                    "midi": 45,
                    "time": 74.36412200000004,
                    "velocity": 0.2047244094488189,
                    "duration": 0.07481300000000601
                },
                {
                    "name": "A1",
                    "midi": 33,
                    "time": 74.51374800000005,
                    "velocity": 0.2755905511811024,
                    "duration": 0.07481300000000601
                },
                {
                    "name": "D2",
                    "midi": 38,
                    "time": 74.66337400000006,
                    "velocity": 0.1968503937007874,
                    "duration": 0.07481300000000601
                },
                {
                    "name": "A2",
                    "midi": 45,
                    "time": 74.81300000000007,
                    "velocity": 0.2204724409448819,
                    "duration": 0.07481300000000601
                },
                {
                    "name": "A1",
                    "midi": 33,
                    "time": 74.96262600000009,
                    "velocity": 0.2755905511811024,
                    "duration": 0.07481300000000601
                },
                {
                    "name": "D2",
                    "midi": 38,
                    "time": 75.1122520000001,
                    "velocity": 0.1968503937007874,
                    "duration": 0.07481300000000601
                },
                {
                    "name": "A2",
                    "midi": 45,
                    "time": 75.26187800000011,
                    "velocity": 0.1968503937007874,
                    "duration": 0.07481300000000601
                },
                {
                    "name": "G1",
                    "midi": 31,
                    "time": 75.37409750000012,
                    "velocity": 0.2677165354330709,
                    "duration": 0.18703250000000082
                },
                {
                    "name": "G2",
                    "midi": 43,
                    "time": 75.41150400000012,
                    "velocity": 0.2677165354330709,
                    "duration": 0.14962599999999782
                },
                {
                    "name": "D3",
                    "midi": 50,
                    "time": 75.56113000000012,
                    "velocity": 0.2283464566929134,
                    "duration": 0.14962599999999782
                },
                {
                    "name": "G3",
                    "midi": 55,
                    "time": 75.71075600000012,
                    "velocity": 0.23622047244094488,
                    "duration": 0.14962599999999782
                },
                {
                    "name": "B3",
                    "midi": 59,
                    "time": 75.86038200000011,
                    "velocity": 0.2677165354330709,
                    "duration": 0.14962599999999782
                },
                {
                    "name": "G3",
                    "midi": 55,
                    "time": 76.01000800000011,
                    "velocity": 0.2283464566929134,
                    "duration": 0.14962599999999782
                },
                {
                    "name": "D3",
                    "midi": 50,
                    "time": 76.15963400000011,
                    "velocity": 0.2283464566929134,
                    "duration": 0.14962599999999782
                },
                {
                    "name": "E2",
                    "midi": 40,
                    "time": 76.30926000000011,
                    "velocity": 0.2992125984251969,
                    "duration": 0.14962599999999782
                },
                {
                    "name": "G3",
                    "midi": 55,
                    "time": 76.4588860000001,
                    "velocity": 0.2204724409448819,
                    "duration": 0.14962599999999782
                },
                {
                    "name": "B3",
                    "midi": 59,
                    "time": 76.6085120000001,
                    "velocity": 0.2204724409448819,
                    "duration": 0.14962599999999782
                },
                {
                    "name": "D4",
                    "midi": 62,
                    "time": 76.7581380000001,
                    "velocity": 0.25196850393700787,
                    "duration": 0.14962599999999782
                },
                {
                    "name": "E3",
                    "midi": 52,
                    "time": 76.7581380000001,
                    "velocity": 0.25196850393700787,
                    "duration": 0.44887799999999345
                },
                {
                    "name": "B3",
                    "midi": 59,
                    "time": 76.9077640000001,
                    "velocity": 0.2677165354330709,
                    "duration": 0.14962599999999782
                },
                {
                    "name": "G3",
                    "midi": 55,
                    "time": 77.0573900000001,
                    "velocity": 0.28346456692913385,
                    "duration": 0.14962599999999782
                },
                {
                    "name": "A2",
                    "midi": 45,
                    "time": 77.2070160000001,
                    "velocity": 0.3228346456692913,
                    "duration": 0.14962599999999782
                },
                {
                    "name": "A1",
                    "midi": 33,
                    "time": 77.2070160000001,
                    "velocity": 0.3228346456692913,
                    "duration": 0.14962599999999782
                },
                {
                    "name": "C4",
                    "midi": 60,
                    "time": 77.3566420000001,
                    "velocity": 0.2440944881889764,
                    "duration": 1.4962599999999924
                },
                {
                    "name": "E4",
                    "midi": 64,
                    "time": 77.50626800000009,
                    "velocity": 0.2440944881889764,
                    "duration": 1.3466339999999946
                },
                {
                    "name": "A3",
                    "midi": 57,
                    "time": 77.65589400000009,
                    "velocity": 0.2440944881889764,
                    "duration": 1.1970079999999967
                },
                {
                    "name": "G4",
                    "midi": 67,
                    "time": 77.65589400000009,
                    "velocity": 0.2440944881889764,
                    "duration": 1.1970079999999967
                },
                {
                    "name": "A3",
                    "midi": 57,
                    "time": 78.85290200000009,
                    "velocity": 0.2283464566929134,
                    "duration": 0.14962599999999782
                },
                {
                    "name": "E4",
                    "midi": 64,
                    "time": 78.85290200000009,
                    "velocity": 0.2755905511811024,
                    "duration": 0.14962599999999782
                },
                {
                    "name": "G3",
                    "midi": 55,
                    "time": 78.85290200000009,
                    "velocity": 0.2283464566929134,
                    "duration": 0.14962599999999782
                },
                {
                    "name": "C4",
                    "midi": 60,
                    "time": 79.00252800000008,
                    "velocity": 0.2992125984251969,
                    "duration": 0.29925199999999563
                },
                {
                    "name": "E3",
                    "midi": 52,
                    "time": 79.00252800000008,
                    "velocity": 0.25196850393700787,
                    "duration": 0.29925199999999563
                },
                {
                    "name": "G3",
                    "midi": 55,
                    "time": 79.00252800000008,
                    "velocity": 0.25196850393700787,
                    "duration": 0.29925199999999563
                },
                {
                    "name": "G3",
                    "midi": 55,
                    "time": 79.30178000000008,
                    "velocity": 0.2204724409448819,
                    "duration": 0.14962599999999782
                },
                {
                    "name": "D3",
                    "midi": 50,
                    "time": 79.30178000000008,
                    "velocity": 0.2204724409448819,
                    "duration": 0.14962599999999782
                },
                {
                    "name": "B3",
                    "midi": 59,
                    "time": 79.30178000000008,
                    "velocity": 0.25984251968503935,
                    "duration": 0.14962599999999782
                },
                {
                    "name": "D2",
                    "midi": 38,
                    "time": 79.45140600000008,
                    "velocity": 0.33070866141732286,
                    "duration": 0.14962599999999782
                },
                {
                    "name": "A3",
                    "midi": 57,
                    "time": 79.75065800000007,
                    "velocity": 0.25984251968503935,
                    "duration": 0.14962599999999782
                },
                {
                    "name": "C3",
                    "midi": 48,
                    "time": 79.75065800000007,
                    "velocity": 0.2204724409448819,
                    "duration": 0.14962599999999782
                },
                {
                    "name": "E3",
                    "midi": 52,
                    "time": 79.90028400000007,
                    "velocity": 0.25196850393700787,
                    "duration": 0.44887799999999345
                },
                {
                    "name": "C4",
                    "midi": 60,
                    "time": 79.90028400000007,
                    "velocity": 0.2992125984251969,
                    "duration": 0.44887799999999345
                },
                {
                    "name": "D3",
                    "midi": 50,
                    "time": 80.34916200000006,
                    "velocity": 0.2283464566929134,
                    "duration": 0.29925199999999563
                },
                {
                    "name": "A3",
                    "midi": 57,
                    "time": 80.34916200000006,
                    "velocity": 0.2755905511811024,
                    "duration": 0.29925199999999563
                },
                {
                    "name": "G2",
                    "midi": 43,
                    "time": 80.79804000000006,
                    "velocity": 0.2677165354330709,
                    "duration": 0.14962599999999782
                },
                {
                    "name": "D3",
                    "midi": 50,
                    "time": 80.94766600000005,
                    "velocity": 0.2283464566929134,
                    "duration": 0.14962599999999782
                },
                {
                    "name": "G3",
                    "midi": 55,
                    "time": 81.09729200000005,
                    "velocity": 0.23622047244094488,
                    "duration": 0.14962599999999782
                },
                {
                    "name": "B3",
                    "midi": 59,
                    "time": 81.24691800000005,
                    "velocity": 0.2677165354330709,
                    "duration": 0.14962599999999782
                },
                {
                    "name": "G3",
                    "midi": 55,
                    "time": 81.39654400000005,
                    "velocity": 0.2283464566929134,
                    "duration": 0.14962599999999782
                },
                {
                    "name": "D3",
                    "midi": 50,
                    "time": 81.54617000000005,
                    "velocity": 0.2283464566929134,
                    "duration": 0.14962599999999782
                },
                {
                    "name": "E2",
                    "midi": 40,
                    "time": 81.69579600000004,
                    "velocity": 0.2992125984251969,
                    "duration": 0.14962599999999782
                },
                {
                    "name": "G3",
                    "midi": 55,
                    "time": 81.84542200000004,
                    "velocity": 0.2204724409448819,
                    "duration": 0.14962599999999782
                },
                {
                    "name": "B3",
                    "midi": 59,
                    "time": 81.99504800000004,
                    "velocity": 0.2204724409448819,
                    "duration": 0.14962599999999782
                },
                {
                    "name": "D4",
                    "midi": 62,
                    "time": 82.14467400000004,
                    "velocity": 0.25196850393700787,
                    "duration": 0.14962599999999782
                },
                {
                    "name": "E3",
                    "midi": 52,
                    "time": 82.14467400000004,
                    "velocity": 0.25196850393700787,
                    "duration": 0.44887799999999345
                },
                {
                    "name": "B3",
                    "midi": 59,
                    "time": 82.29430000000004,
                    "velocity": 0.2677165354330709,
                    "duration": 0.14962599999999782
                },
                {
                    "name": "G3",
                    "midi": 55,
                    "time": 82.44392600000003,
                    "velocity": 0.28346456692913385,
                    "duration": 0.14962599999999782
                },
                {
                    "name": "A2",
                    "midi": 45,
                    "time": 82.59355200000003,
                    "velocity": 0.3228346456692913,
                    "duration": 0.14962599999999782
                },
                {
                    "name": "A1",
                    "midi": 33,
                    "time": 82.59355200000003,
                    "velocity": 0.3228346456692913,
                    "duration": 0.14962599999999782
                },
                {
                    "name": "E4",
                    "midi": 64,
                    "time": 82.74317800000003,
                    "velocity": 0.2440944881889764,
                    "duration": 1.4962599999999924
                },
                {
                    "name": "G4",
                    "midi": 67,
                    "time": 82.89280400000003,
                    "velocity": 0.2677165354330709,
                    "duration": 1.3466339999999946
                },
                {
                    "name": "C#4",
                    "midi": 61,
                    "time": 83.04243000000002,
                    "velocity": 0.2677165354330709,
                    "duration": 1.1970079999999967
                },
                {
                    "name": "B4",
                    "midi": 71,
                    "time": 83.04243000000002,
                    "velocity": 0.2677165354330709,
                    "duration": 1.1970079999999967
                },
                {
                    "name": "C#4",
                    "midi": 61,
                    "time": 84.23943800000002,
                    "velocity": 0.2283464566929134,
                    "duration": 0.14962599999999782
                },
                {
                    "name": "E4",
                    "midi": 64,
                    "time": 84.23943800000002,
                    "velocity": 0.2283464566929134,
                    "duration": 0.14962599999999782
                },
                {
                    "name": "A4",
                    "midi": 69,
                    "time": 84.23943800000002,
                    "velocity": 0.2755905511811024,
                    "duration": 0.14962599999999782
                },
                {
                    "name": "B3",
                    "midi": 59,
                    "time": 84.38906400000002,
                    "velocity": 0.25196850393700787,
                    "duration": 0.29925199999999563
                },
                {
                    "name": "G4",
                    "midi": 67,
                    "time": 84.38906400000002,
                    "velocity": 0.2992125984251969,
                    "duration": 0.29925199999999563
                },
                {
                    "name": "C#4",
                    "midi": 61,
                    "time": 84.38906400000002,
                    "velocity": 0.25196850393700787,
                    "duration": 0.29925199999999563
                },
                {
                    "name": "C#4",
                    "midi": 61,
                    "time": 84.68831600000001,
                    "velocity": 0.2204724409448819,
                    "duration": 0.14962599999999782
                },
                {
                    "name": "F#4",
                    "midi": 66,
                    "time": 84.68831600000001,
                    "velocity": 0.25984251968503935,
                    "duration": 0.14962599999999782
                },
                {
                    "name": "A3",
                    "midi": 57,
                    "time": 84.68831600000001,
                    "velocity": 0.2204724409448819,
                    "duration": 0.14962599999999782
                },
                {
                    "name": "A1",
                    "midi": 33,
                    "time": 84.83794200000001,
                    "velocity": 0.2755905511811024,
                    "duration": 0.14962599999999782
                },
                {
                    "name": "A2",
                    "midi": 45,
                    "time": 84.83794200000001,
                    "velocity": 0.33070866141732286,
                    "duration": 0.14962599999999782
                },
                {
                    "name": "C#4",
                    "midi": 61,
                    "time": 85.13719400000001,
                    "velocity": 0.2047244094488189,
                    "duration": 0.14962599999999782
                },
                {
                    "name": "B3",
                    "midi": 59,
                    "time": 85.13719400000001,
                    "velocity": 0.2047244094488189,
                    "duration": 0.14962599999999782
                },
                {
                    "name": "G4",
                    "midi": 67,
                    "time": 85.13719400000001,
                    "velocity": 0.2440944881889764,
                    "duration": 0.14962599999999782
                },
                {
                    "name": "C#4",
                    "midi": 61,
                    "time": 85.28682,
                    "velocity": 0.2440944881889764,
                    "duration": 0.7481300000000033
                },
                {
                    "name": "F#4",
                    "midi": 66,
                    "time": 85.28682,
                    "velocity": 0.29133858267716534,
                    "duration": 0.7481300000000033
                },
                {
                    "name": "A3",
                    "midi": 57,
                    "time": 85.28682,
                    "velocity": 0.2440944881889764,
                    "duration": 0.7481300000000033
                },
                {
                    "name": "E4",
                    "midi": 64,
                    "time": 86.03495000000001,
                    "velocity": 0.23622047244094488,
                    "duration": 0.14962599999999782
                },
                {
                    "name": "G3",
                    "midi": 55,
                    "time": 86.03495000000001,
                    "velocity": 0.1968503937007874,
                    "duration": 0.14962599999999782
                },
                {
                    "name": "C#4",
                    "midi": 61,
                    "time": 86.03495000000001,
                    "velocity": 0.23622047244094488,
                    "duration": 0.14962599999999782
                },
                {
                    "name": "D3",
                    "midi": 50,
                    "time": 86.184576,
                    "velocity": 0.28346456692913385,
                    "duration": 0.14962599999999782
                },
                {
                    "name": "D2",
                    "midi": 38,
                    "time": 86.184576,
                    "velocity": 0.23622047244094488,
                    "duration": 0.14962599999999782
                },
                {
                    "name": "F#3",
                    "midi": 54,
                    "time": 86.334202,
                    "velocity": 0.2283464566929134,
                    "duration": 0.14962599999999782
                },
                {
                    "name": "A3",
                    "midi": 57,
                    "time": 86.483828,
                    "velocity": 0.2283464566929134,
                    "duration": 0.14962599999999782
                },
                {
                    "name": "F#4",
                    "midi": 66,
                    "time": 86.633454,
                    "velocity": 0.2992125984251969,
                    "duration": 0.07481300000000601
                },
                {
                    "name": "D2",
                    "midi": 38,
                    "time": 87.53121,
                    "velocity": 0.2283464566929134,
                    "duration": 0.14962599999999782
                },
                {
                    "name": "E4",
                    "midi": 64,
                    "time": 88.27934,
                    "velocity": 0.2283464566929134,
                    "duration": 0.14962599999999782
                },
                {
                    "name": "C4",
                    "midi": 60,
                    "time": 88.428966,
                    "velocity": 0.2677165354330709,
                    "duration": 0.29925199999999563
                },
                {
                    "name": "B3",
                    "midi": 59,
                    "time": 88.728218,
                    "velocity": 0.2283464566929134,
                    "duration": 0.14962599999999782
                },
                {
                    "name": "G#3",
                    "midi": 56,
                    "time": 88.877844,
                    "velocity": 0.28346456692913385,
                    "duration": 0.29925199999999563
                },
                {
                    "name": "D3",
                    "midi": 50,
                    "time": 88.877844,
                    "velocity": 0.23622047244094488,
                    "duration": 1.3466339999999946
                },
                {
                    "name": "A3",
                    "midi": 57,
                    "time": 89.17896632499999,
                    "velocity": 0.2283464566929134,
                    "duration": 0.14962599999999782
                },
                {
                    "name": "C4",
                    "midi": 60,
                    "time": 89.32672199999999,
                    "velocity": 0.2755905511811024,
                    "duration": 0.7481300000000033
                },
                {
                    "name": "G3",
                    "midi": 55,
                    "time": 90.07485199999999,
                    "velocity": 0.2283464566929134,
                    "duration": 0.14962599999999782
                },
                {
                    "name": "D3",
                    "midi": 50,
                    "time": 90.22447799999999,
                    "velocity": 0.23622047244094488,
                    "duration": 0.44887799999999345
                },
                {
                    "name": "F3",
                    "midi": 53,
                    "time": 90.22447799999999,
                    "velocity": 0.28346456692913385,
                    "duration": 0.29925199999999563
                },
                {
                    "name": "F#3",
                    "midi": 54,
                    "time": 90.52372999999999,
                    "velocity": 0.2283464566929134,
                    "duration": 0.14962599999999782
                },
                {
                    "name": "D2",
                    "midi": 38,
                    "time": 90.67335599999998,
                    "velocity": 0.2283464566929134,
                    "duration": 0.14962599999999782
                },
                {
                    "name": "G4",
                    "midi": 67,
                    "time": 90.97260799999998,
                    "velocity": 0.2283464566929134,
                    "duration": 0.14962599999999782
                },
                {
                    "name": "E4",
                    "midi": 64,
                    "time": 91.12223399999998,
                    "velocity": 0.2677165354330709,
                    "duration": 0.29925199999999563
                },
                {
                    "name": "C4",
                    "midi": 60,
                    "time": 91.42148599999997,
                    "velocity": 0.2283464566929134,
                    "duration": 0.14962599999999782
                },
                {
                    "name": "B3",
                    "midi": 59,
                    "time": 91.57111199999997,
                    "velocity": 0.28346456692913385,
                    "duration": 0.29925199999999563
                },
                {
                    "name": "D3",
                    "midi": 50,
                    "time": 91.57111199999997,
                    "velocity": 0.23622047244094488,
                    "duration": 1.3466339999999946
                },
                {
                    "name": "C4",
                    "midi": 60,
                    "time": 91.87036399999997,
                    "velocity": 0.2283464566929134,
                    "duration": 0.14962599999999782
                },
                {
                    "name": "E4",
                    "midi": 64,
                    "time": 92.01998999999996,
                    "velocity": 0.2755905511811024,
                    "duration": 0.7481300000000033
                },
                {
                    "name": "B3",
                    "midi": 59,
                    "time": 92.76811999999997,
                    "velocity": 0.2283464566929134,
                    "duration": 0.14962599999999782
                },
                {
                    "name": "G#3",
                    "midi": 56,
                    "time": 92.91774599999997,
                    "velocity": 0.28346456692913385,
                    "duration": 0.29925199999999563
                },
                {
                    "name": "D3",
                    "midi": 50,
                    "time": 92.91774599999997,
                    "velocity": 0.23622047244094488,
                    "duration": 0.8977559999999869
                },
                {
                    "name": "A3",
                    "midi": 57,
                    "time": 93.21699799999996,
                    "velocity": 0.2283464566929134,
                    "duration": 0.14962599999999782
                },
                {
                    "name": "B4",
                    "midi": 71,
                    "time": 93.66587599999995,
                    "velocity": 0.28346456692913385,
                    "duration": 0.14962599999999782
                },
                {
                    "name": "G4",
                    "midi": 67,
                    "time": 93.81550199999995,
                    "velocity": 0.33070866141732286,
                    "duration": 0.29925199999999563
                },
                {
                    "name": "E4",
                    "midi": 64,
                    "time": 94.11475399999995,
                    "velocity": 0.23622047244094488,
                    "duration": 0.14962599999999782
                },
                {
                    "name": "D2",
                    "midi": 38,
                    "time": 94.26437999999995,
                    "velocity": 0.2283464566929134,
                    "duration": 0.14962599999999782
                },
                {
                    "name": "A4",
                    "midi": 69,
                    "time": 94.56363199999994,
                    "velocity": 0.28346456692913385,
                    "duration": 0.14962599999999782
                },
                {
                    "name": "G4",
                    "midi": 67,
                    "time": 94.71325799999994,
                    "velocity": 0.33070866141732286,
                    "duration": 0.29925199999999563
                },
                {
                    "name": "E4",
                    "midi": 64,
                    "time": 95.01250999999993,
                    "velocity": 0.23622047244094488,
                    "duration": 0.14962599999999782
                },
                {
                    "name": "D2",
                    "midi": 38,
                    "time": 95.16213599999993,
                    "velocity": 0.2283464566929134,
                    "duration": 0.14962599999999782
                },
                {
                    "name": "G4",
                    "midi": 67,
                    "time": 95.46138799999993,
                    "velocity": 0.28346456692913385,
                    "duration": 0.14962599999999782
                },
                {
                    "name": "E4",
                    "midi": 64,
                    "time": 95.61101399999993,
                    "velocity": 0.33070866141732286,
                    "duration": 0.29925199999999563
                },
                {
                    "name": "C4",
                    "midi": 60,
                    "time": 95.91026599999992,
                    "velocity": 0.23622047244094488,
                    "duration": 0.14962599999999782
                },
                {
                    "name": "D2",
                    "midi": 38,
                    "time": 96.05989199999992,
                    "velocity": 0.2283464566929134,
                    "duration": 0.14962599999999782
                },
                {
                    "name": "F#4",
                    "midi": 66,
                    "time": 96.35914399999992,
                    "velocity": 0.2677165354330709,
                    "duration": 0.14962599999999782
                },
                {
                    "name": "C4",
                    "midi": 60,
                    "time": 96.35914399999992,
                    "velocity": 0.2204724409448819,
                    "duration": 0.14962599999999782
                },
                {
                    "name": "A3",
                    "midi": 57,
                    "time": 96.35914399999992,
                    "velocity": 0.2204724409448819,
                    "duration": 0.14962599999999782
                },
                {
                    "name": "E4",
                    "midi": 64,
                    "time": 96.50876999999991,
                    "velocity": 0.2992125984251969,
                    "duration": 0.29925199999999563
                },
                {
                    "name": "C4",
                    "midi": 60,
                    "time": 96.50876999999991,
                    "velocity": 0.25196850393700787,
                    "duration": 0.29925199999999563
                },
                {
                    "name": "G3",
                    "midi": 55,
                    "time": 96.50876999999991,
                    "velocity": 0.25196850393700787,
                    "duration": 0.29925199999999563
                },
                {
                    "name": "D4",
                    "midi": 62,
                    "time": 96.80802199999991,
                    "velocity": 0.2677165354330709,
                    "duration": 0.14962599999999782
                },
                {
                    "name": "G3",
                    "midi": 55,
                    "time": 96.80802199999991,
                    "velocity": 0.2204724409448819,
                    "duration": 0.14962599999999782
                },
                {
                    "name": "C#4",
                    "midi": 61,
                    "time": 96.9576479999999,
                    "velocity": 0.25196850393700787,
                    "duration": 0.5985040000000055
                },
                {
                    "name": "D3",
                    "midi": 50,
                    "time": 96.9576479999999,
                    "velocity": 0.2125984251968504,
                    "duration": 1.3466339999999946
                },
                {
                    "name": "A#3",
                    "midi": 58,
                    "time": 97.55615199999991,
                    "velocity": 0.2283464566929134,
                    "duration": 0.44887799999999345
                },
                {
                    "name": "G3",
                    "midi": 55,
                    "time": 98.0050299999999,
                    "velocity": 0.23622047244094488,
                    "duration": 0.29925199999999563
                },
                {
                    "name": "D3",
                    "midi": 50,
                    "time": 98.3042819999999,
                    "velocity": 0.1732283464566929,
                    "duration": 1.1970079999999967
                },
                {
                    "name": "C4",
                    "midi": 60,
                    "time": 98.3042819999999,
                    "velocity": 0.2047244094488189,
                    "duration": 1.1970079999999967
                },
                {
                    "name": "F#3",
                    "midi": 54,
                    "time": 98.3042819999999,
                    "velocity": 0.1732283464566929,
                    "duration": 1.1970079999999967
                },
                {
                    "name": "G2",
                    "midi": 43,
                    "time": 99.6509159999999,
                    "velocity": 0.2677165354330709,
                    "duration": 0.14962599999999782
                },
                {
                    "name": "D3",
                    "midi": 50,
                    "time": 99.8005419999999,
                    "velocity": 0.2283464566929134,
                    "duration": 0.14962599999999782
                },
                {
                    "name": "G3",
                    "midi": 55,
                    "time": 99.95016799999989,
                    "velocity": 0.23622047244094488,
                    "duration": 0.14962599999999782
                },
                {
                    "name": "B3",
                    "midi": 59,
                    "time": 100.09979399999989,
                    "velocity": 0.2677165354330709,
                    "duration": 0.14962599999999782
                },
                {
                    "name": "G3",
                    "midi": 55,
                    "time": 100.24941999999989,
                    "velocity": 0.2283464566929134,
                    "duration": 0.14962599999999782
                },
                {
                    "name": "D3",
                    "midi": 50,
                    "time": 100.39904599999988,
                    "velocity": 0.2283464566929134,
                    "duration": 0.14962599999999782
                },
                {
                    "name": "E2",
                    "midi": 40,
                    "time": 100.54867199999988,
                    "velocity": 0.2992125984251969,
                    "duration": 0.14962599999999782
                },
                {
                    "name": "G3",
                    "midi": 55,
                    "time": 100.69829799999988,
                    "velocity": 0.2204724409448819,
                    "duration": 0.14962599999999782
                },
                {
                    "name": "B3",
                    "midi": 59,
                    "time": 100.84792399999988,
                    "velocity": 0.2204724409448819,
                    "duration": 0.14962599999999782
                },
                {
                    "name": "D4",
                    "midi": 62,
                    "time": 100.99754999999988,
                    "velocity": 0.25196850393700787,
                    "duration": 0.14962599999999782
                },
                {
                    "name": "E3",
                    "midi": 52,
                    "time": 100.99754999999988,
                    "velocity": 0.25196850393700787,
                    "duration": 0.44887799999999345
                },
                {
                    "name": "B3",
                    "midi": 59,
                    "time": 101.14717599999987,
                    "velocity": 0.2677165354330709,
                    "duration": 0.14962599999999782
                },
                {
                    "name": "G3",
                    "midi": 55,
                    "time": 101.29680199999987,
                    "velocity": 0.28346456692913385,
                    "duration": 0.14962599999999782
                },
                {
                    "name": "A1",
                    "midi": 33,
                    "time": 101.44642799999987,
                    "velocity": 0.3228346456692913,
                    "duration": 0.14962599999999782
                },
                {
                    "name": "A2",
                    "midi": 45,
                    "time": 101.44642799999987,
                    "velocity": 0.3228346456692913,
                    "duration": 0.14962599999999782
                },
                {
                    "name": "C4",
                    "midi": 60,
                    "time": 101.59605399999987,
                    "velocity": 0.2440944881889764,
                    "duration": 1.4962599999999924
                },
                {
                    "name": "E4",
                    "midi": 64,
                    "time": 101.74567999999987,
                    "velocity": 0.2440944881889764,
                    "duration": 1.3466339999999946
                },
                {
                    "name": "G4",
                    "midi": 67,
                    "time": 101.89530599999986,
                    "velocity": 0.2440944881889764,
                    "duration": 1.1970079999999967
                },
                {
                    "name": "A3",
                    "midi": 57,
                    "time": 101.89530599999986,
                    "velocity": 0.2440944881889764,
                    "duration": 1.1970079999999967
                },
                {
                    "name": "E4",
                    "midi": 64,
                    "time": 103.09231399999986,
                    "velocity": 0.2755905511811024,
                    "duration": 0.14962599999999782
                },
                {
                    "name": "A3",
                    "midi": 57,
                    "time": 103.09231399999986,
                    "velocity": 0.2283464566929134,
                    "duration": 0.14962599999999782
                },
                {
                    "name": "G3",
                    "midi": 55,
                    "time": 103.09231399999986,
                    "velocity": 0.2283464566929134,
                    "duration": 0.14962599999999782
                },
                {
                    "name": "C4",
                    "midi": 60,
                    "time": 103.24193999999986,
                    "velocity": 0.2992125984251969,
                    "duration": 0.29925199999999563
                },
                {
                    "name": "E3",
                    "midi": 52,
                    "time": 103.24193999999986,
                    "velocity": 0.25196850393700787,
                    "duration": 0.29925199999999563
                },
                {
                    "name": "G3",
                    "midi": 55,
                    "time": 103.24193999999986,
                    "velocity": 0.25196850393700787,
                    "duration": 0.29925199999999563
                },
                {
                    "name": "G3",
                    "midi": 55,
                    "time": 103.54119199999985,
                    "velocity": 0.2204724409448819,
                    "duration": 0.14962599999999782
                },
                {
                    "name": "B3",
                    "midi": 59,
                    "time": 103.54119199999985,
                    "velocity": 0.25984251968503935,
                    "duration": 0.14962599999999782
                },
                {
                    "name": "D3",
                    "midi": 50,
                    "time": 103.54119199999985,
                    "velocity": 0.2204724409448819,
                    "duration": 0.14962599999999782
                },
                {
                    "name": "D2",
                    "midi": 38,
                    "time": 103.69081799999985,
                    "velocity": 0.33070866141732286,
                    "duration": 0.14962599999999782
                },
                {
                    "name": "C3",
                    "midi": 48,
                    "time": 103.99006999999985,
                    "velocity": 0.2204724409448819,
                    "duration": 0.14962599999999782
                },
                {
                    "name": "A3",
                    "midi": 57,
                    "time": 103.99006999999985,
                    "velocity": 0.25984251968503935,
                    "duration": 0.14962599999999782
                },
                {
                    "name": "C4",
                    "midi": 60,
                    "time": 104.13969599999984,
                    "velocity": 0.2992125984251969,
                    "duration": 0.44887799999999345
                },
                {
                    "name": "E3",
                    "midi": 52,
                    "time": 104.13969599999984,
                    "velocity": 0.25196850393700787,
                    "duration": 0.44887799999999345
                },
                {
                    "name": "D3",
                    "midi": 50,
                    "time": 104.58857399999984,
                    "velocity": 0.2283464566929134,
                    "duration": 0.29925199999999563
                },
                {
                    "name": "A3",
                    "midi": 57,
                    "time": 104.58857399999984,
                    "velocity": 0.2755905511811024,
                    "duration": 0.29925199999999563
                },
                {
                    "name": "G2",
                    "midi": 43,
                    "time": 105.03745199999983,
                    "velocity": 0.2677165354330709,
                    "duration": 0.14962599999999782
                },
                {
                    "name": "D3",
                    "midi": 50,
                    "time": 105.18707799999983,
                    "velocity": 0.2283464566929134,
                    "duration": 0.14962599999999782
                },
                {
                    "name": "G3",
                    "midi": 55,
                    "time": 105.33670399999983,
                    "velocity": 0.23622047244094488,
                    "duration": 0.14962599999999782
                },
                {
                    "name": "B3",
                    "midi": 59,
                    "time": 105.48632999999982,
                    "velocity": 0.2677165354330709,
                    "duration": 0.14962599999999782
                },
                {
                    "name": "G3",
                    "midi": 55,
                    "time": 105.63595599999982,
                    "velocity": 0.2283464566929134,
                    "duration": 0.14962599999999782
                },
                {
                    "name": "D3",
                    "midi": 50,
                    "time": 105.78558199999982,
                    "velocity": 0.2283464566929134,
                    "duration": 0.14962599999999782
                },
                {
                    "name": "E2",
                    "midi": 40,
                    "time": 105.93520799999982,
                    "velocity": 0.2992125984251969,
                    "duration": 0.14962599999999782
                },
                {
                    "name": "G3",
                    "midi": 55,
                    "time": 106.08483399999982,
                    "velocity": 0.2204724409448819,
                    "duration": 0.14962599999999782
                },
                {
                    "name": "B3",
                    "midi": 59,
                    "time": 106.23445999999981,
                    "velocity": 0.2204724409448819,
                    "duration": 0.14962599999999782
                },
                {
                    "name": "D4",
                    "midi": 62,
                    "time": 106.38408599999981,
                    "velocity": 0.25196850393700787,
                    "duration": 0.14962599999999782
                },
                {
                    "name": "E3",
                    "midi": 52,
                    "time": 106.38408599999981,
                    "velocity": 0.25196850393700787,
                    "duration": 0.44887799999999345
                },
                {
                    "name": "B3",
                    "midi": 59,
                    "time": 106.53371199999981,
                    "velocity": 0.2677165354330709,
                    "duration": 0.14962599999999782
                },
                {
                    "name": "G3",
                    "midi": 55,
                    "time": 106.68333799999981,
                    "velocity": 0.28346456692913385,
                    "duration": 0.14962599999999782
                },
                {
                    "name": "B2",
                    "midi": 47,
                    "time": 106.8329639999998,
                    "velocity": 0.2677165354330709,
                    "duration": 0.14962599999999782
                },
                {
                    "name": "F#3",
                    "midi": 54,
                    "time": 106.9825899999998,
                    "velocity": 0.2283464566929134,
                    "duration": 0.14962599999999782
                },
                {
                    "name": "B3",
                    "midi": 59,
                    "time": 107.13658009166647,
                    "velocity": 0.2677165354330709,
                    "duration": 0.14962600000001203
                },
                {
                    "name": "D4",
                    "midi": 62,
                    "time": 107.28184199999981,
                    "velocity": 0.30708661417322836,
                    "duration": 0.14962600000001203
                },
                {
                    "name": "B3",
                    "midi": 59,
                    "time": 107.43146799999982,
                    "velocity": 0.25984251968503935,
                    "duration": 0.14962599999999782
                },
                {
                    "name": "F#3",
                    "midi": 54,
                    "time": 107.58109399999982,
                    "velocity": 0.25984251968503935,
                    "duration": 0.14962599999999782
                },
                {
                    "name": "G2",
                    "midi": 43,
                    "time": 107.73071999999982,
                    "velocity": 0.33858267716535434,
                    "duration": 0.14962599999999782
                },
                {
                    "name": "B3",
                    "midi": 59,
                    "time": 107.88034599999982,
                    "velocity": 0.25196850393700787,
                    "duration": 0.14962599999999782
                },
                {
                    "name": "D4",
                    "midi": 62,
                    "time": 108.02997199999982,
                    "velocity": 0.28346456692913385,
                    "duration": 0.14962599999999782
                },
                {
                    "name": "F#4",
                    "midi": 66,
                    "time": 108.17959799999981,
                    "velocity": 0.3228346456692913,
                    "duration": 0.14962599999999782
                },
                {
                    "name": "G3",
                    "midi": 55,
                    "time": 108.17959799999981,
                    "velocity": 0.3228346456692913,
                    "duration": 0.44887799999999345
                },
                {
                    "name": "D4",
                    "midi": 62,
                    "time": 108.32922399999981,
                    "velocity": 0.3464566929133858,
                    "duration": 0.14962599999999782
                },
                {
                    "name": "B3",
                    "midi": 59,
                    "time": 108.47884999999981,
                    "velocity": 0.3700787401574803,
                    "duration": 0.14962599999999782
                },
                {
                    "name": "D3",
                    "midi": 50,
                    "time": 108.62847599999981,
                    "velocity": 0.33858267716535434,
                    "duration": 0.14962599999999782
                },
                {
                    "name": "A3",
                    "midi": 57,
                    "time": 108.7781019999998,
                    "velocity": 0.25196850393700787,
                    "duration": 0.14962599999999782
                },
                {
                    "name": "D4",
                    "midi": 62,
                    "time": 108.9277279999998,
                    "velocity": 0.29133858267716534,
                    "duration": 0.14962599999999782
                },
                {
                    "name": "F#4",
                    "midi": 66,
                    "time": 109.0773539999998,
                    "velocity": 0.33858267716535434,
                    "duration": 0.14962599999999782
                },
                {
                    "name": "D4",
                    "midi": 62,
                    "time": 109.2269799999998,
                    "velocity": 0.3700787401574803,
                    "duration": 0.14962599999999782
                },
                {
                    "name": "A3",
                    "midi": 57,
                    "time": 109.3766059999998,
                    "velocity": 0.4015748031496063,
                    "duration": 0.14962599999999782
                },
                {
                    "name": "B2",
                    "midi": 47,
                    "time": 109.5262319999998,
                    "velocity": 0.4330708661417323,
                    "duration": 0.14962599999999782
                },
                {
                    "name": "D4",
                    "midi": 62,
                    "time": 109.67585799999979,
                    "velocity": 0.31496062992125984,
                    "duration": 2.094763999999998
                },
                {
                    "name": "F#4",
                    "midi": 66,
                    "time": 109.82548399999979,
                    "velocity": 0.36220472440944884,
                    "duration": 1.047381999999999
                },
                {
                    "name": "A4",
                    "midi": 69,
                    "time": 109.97510999999979,
                    "velocity": 0.4015748031496063,
                    "duration": 1.7955120000000022
                },
                {
                    "name": "B3",
                    "midi": 59,
                    "time": 109.97510999999979,
                    "velocity": 0.3464566929133858,
                    "duration": 1.7955120000000022
                },
                {
                    "name": "F4",
                    "midi": 65,
                    "time": 110.87286599999979,
                    "velocity": 0.4330708661417323,
                    "duration": 0.8977560000000011
                },
                {
                    "name": "E2",
                    "midi": 40,
                    "time": 111.77062199999979,
                    "velocity": 0.4881889763779528,
                    "duration": 0.14962599999999782
                },
                {
                    "name": "B3",
                    "midi": 59,
                    "time": 112.06987399999979,
                    "velocity": 0.30708661417322836,
                    "duration": 0.14962599999999782
                },
                {
                    "name": "G#4",
                    "midi": 68,
                    "time": 112.06987399999979,
                    "velocity": 0.36220472440944884,
                    "duration": 0.14962599999999782
                },
                {
                    "name": "D4",
                    "midi": 62,
                    "time": 112.06987399999979,
                    "velocity": 0.30708661417322836,
                    "duration": 0.14962599999999782
                },
                {
                    "name": "B4",
                    "midi": 71,
                    "time": 112.21949999999978,
                    "velocity": 0.4330708661417323,
                    "duration": 0.44887799999999345
                },
                {
                    "name": "G#3",
                    "midi": 56,
                    "time": 112.66837799999978,
                    "velocity": 0.33070866141732286,
                    "duration": 0.29925199999999563
                },
                {
                    "name": "D4",
                    "midi": 62,
                    "time": 112.66837799999978,
                    "velocity": 0.3937007874015748,
                    "duration": 0.29925199999999563
                },
                {
                    "name": "A2",
                    "midi": 45,
                    "time": 113.11725599999977,
                    "velocity": 0.4881889763779528,
                    "duration": 0.14962599999999782
                },
                {
                    "name": "C#4",
                    "midi": 61,
                    "time": 113.41650799999977,
                    "velocity": 0.36220472440944884,
                    "duration": 0.5985039999999913
                },
                {
                    "name": "A3",
                    "midi": 57,
                    "time": 113.41650799999977,
                    "velocity": 0.30708661417322836,
                    "duration": 0.5985039999999913
                },
                {
                    "name": "E4",
                    "midi": 64,
                    "time": 113.56613399999976,
                    "velocity": 0.4330708661417323,
                    "duration": 0.44887799999999345
                },
                {
                    "name": "G3",
                    "midi": 55,
                    "time": 114.01501199999976,
                    "velocity": 0.3937007874015748,
                    "duration": 0.29925199999999563
                },
                {
                    "name": "D2",
                    "midi": 38,
                    "time": 114.46388999999975,
                    "velocity": 0.4881889763779528,
                    "duration": 0.14962599999999782
                },
                {
                    "name": "F#4",
                    "midi": 66,
                    "time": 114.76314199999975,
                    "velocity": 0.30708661417322836,
                    "duration": 0.14962599999999782
                },
                {
                    "name": "E4",
                    "midi": 64,
                    "time": 114.76314199999975,
                    "velocity": 0.30708661417322836,
                    "duration": 0.14962599999999782
                },
                {
                    "name": "C5",
                    "midi": 72,
                    "time": 114.76314199999975,
                    "velocity": 0.36220472440944884,
                    "duration": 0.14962599999999782
                },
                {
                    "name": "E5",
                    "midi": 76,
                    "time": 114.91276799999974,
                    "velocity": 0.47244094488188976,
                    "duration": 0.44887799999999345
                },
                {
                    "name": "D4",
                    "midi": 62,
                    "time": 115.36164599999974,
                    "velocity": 0.33070866141732286,
                    "duration": 0.29925199999999563
                },
                {
                    "name": "F#4",
                    "midi": 66,
                    "time": 115.36164599999974,
                    "velocity": 0.3937007874015748,
                    "duration": 0.29925199999999563
                },
                {
                    "name": "G2",
                    "midi": 43,
                    "time": 115.81052399999973,
                    "velocity": 0.4881889763779528,
                    "duration": 0.14962599999999782
                },
                {
                    "name": "F4",
                    "midi": 65,
                    "time": 116.10977599999973,
                    "velocity": 0.30708661417322836,
                    "duration": 0.8977559999999869
                },
                {
                    "name": "D4",
                    "midi": 62,
                    "time": 116.10977599999973,
                    "velocity": 0.25984251968503935,
                    "duration": 0.8977559999999869
                },
                {
                    "name": "C4",
                    "midi": 60,
                    "time": 116.10977599999973,
                    "velocity": 0.25984251968503935,
                    "duration": 0.5985039999999913
                },
                {
                    "name": "A4",
                    "midi": 69,
                    "time": 116.25940199999972,
                    "velocity": 0.36220472440944884,
                    "duration": 0.44887799999999345
                },
                {
                    "name": "B3",
                    "midi": 59,
                    "time": 116.70827999999972,
                    "velocity": 0.2677165354330709,
                    "duration": 0.29925199999999563
                },
                {
                    "name": "G4",
                    "midi": 67,
                    "time": 116.70827999999972,
                    "velocity": 0.33070866141732286,
                    "duration": 0.29925199999999563
                },
                {
                    "name": "C2",
                    "midi": 36,
                    "time": 117.15715799999971,
                    "velocity": 0.2677165354330709,
                    "duration": 0.14962599999999782
                },
                {
                    "name": "C3",
                    "midi": 48,
                    "time": 117.15715799999971,
                    "velocity": 0.2677165354330709,
                    "duration": 0.14962599999999782
                },
                {
                    "name": "G3",
                    "midi": 55,
                    "time": 117.30678399999971,
                    "velocity": 0.2283464566929134,
                    "duration": 0.14962599999999782
                },
                {
                    "name": "C4",
                    "midi": 60,
                    "time": 117.4564099999997,
                    "velocity": 0.23622047244094488,
                    "duration": 0.14962599999999782
                },
                {
                    "name": "E4",
                    "midi": 64,
                    "time": 117.6060359999997,
                    "velocity": 0.2677165354330709,
                    "duration": 0.14962599999999782
                },
                {
                    "name": "C4",
                    "midi": 60,
                    "time": 117.7556619999997,
                    "velocity": 0.2283464566929134,
                    "duration": 0.14962599999999782
                },
                {
                    "name": "G3",
                    "midi": 55,
                    "time": 117.9052879999997,
                    "velocity": 0.2283464566929134,
                    "duration": 0.14962599999999782
                },
                {
                    "name": "A2",
                    "midi": 45,
                    "time": 118.0549139999997,
                    "velocity": 0.2992125984251969,
                    "duration": 0.14962599999999782
                },
                {
                    "name": "C4",
                    "midi": 60,
                    "time": 118.2045399999997,
                    "velocity": 0.2204724409448819,
                    "duration": 0.14962599999999782
                },
                {
                    "name": "E4",
                    "midi": 64,
                    "time": 118.3541659999997,
                    "velocity": 0.2204724409448819,
                    "duration": 0.14962599999999782
                },
                {
                    "name": "A3",
                    "midi": 57,
                    "time": 118.50379199999969,
                    "velocity": 0.25196850393700787,
                    "duration": 0.44887799999999345
                },
                {
                    "name": "G4",
                    "midi": 67,
                    "time": 118.50379199999969,
                    "velocity": 0.25196850393700787,
                    "duration": 0.14962599999999782
                },
                {
                    "name": "E4",
                    "midi": 64,
                    "time": 118.65341799999969,
                    "velocity": 0.2677165354330709,
                    "duration": 0.14962599999999782
                },
                {
                    "name": "C4",
                    "midi": 60,
                    "time": 118.80304399999969,
                    "velocity": 0.28346456692913385,
                    "duration": 0.14962599999999782
                },
                {
                    "name": "D2",
                    "midi": 38,
                    "time": 118.95266999999969,
                    "velocity": 0.3228346456692913,
                    "duration": 0.14962599999999782
                },
                {
                    "name": "D3",
                    "midi": 50,
                    "time": 118.95266999999969,
                    "velocity": 0.3228346456692913,
                    "duration": 0.14962599999999782
                },
                {
                    "name": "F4",
                    "midi": 65,
                    "time": 119.10229599999968,
                    "velocity": 0.2440944881889764,
                    "duration": 1.4962599999999924
                },
                {
                    "name": "A4",
                    "midi": 69,
                    "time": 119.25192199999968,
                    "velocity": 0.2440944881889764,
                    "duration": 1.3466339999999946
                },
                {
                    "name": "D4",
                    "midi": 62,
                    "time": 119.40154799999968,
                    "velocity": 0.2440944881889764,
                    "duration": 1.1970079999999967
                },
                {
                    "name": "C5",
                    "midi": 72,
                    "time": 119.40154799999968,
                    "velocity": 0.2440944881889764,
                    "duration": 1.1970079999999967
                },
                {
                    "name": "D4",
                    "midi": 62,
                    "time": 120.59855599999968,
                    "velocity": 0.2283464566929134,
                    "duration": 0.14962599999999782
                },
                {
                    "name": "C4",
                    "midi": 60,
                    "time": 120.59855599999968,
                    "velocity": 0.2283464566929134,
                    "duration": 0.14962599999999782
                },
                {
                    "name": "A4",
                    "midi": 69,
                    "time": 120.59855599999968,
                    "velocity": 0.2755905511811024,
                    "duration": 0.14962599999999782
                },
                {
                    "name": "C4",
                    "midi": 60,
                    "time": 120.74818199999967,
                    "velocity": 0.25196850393700787,
                    "duration": 0.29925199999999563
                },
                {
                    "name": "F4",
                    "midi": 65,
                    "time": 120.74818199999967,
                    "velocity": 0.2992125984251969,
                    "duration": 0.29925199999999563
                },
                {
                    "name": "A3",
                    "midi": 57,
                    "time": 120.74818199999967,
                    "velocity": 0.25196850393700787,
                    "duration": 0.29925199999999563
                },
                {
                    "name": "E4",
                    "midi": 64,
                    "time": 121.04743399999967,
                    "velocity": 0.25984251968503935,
                    "duration": 0.14962599999999782
                },
                {
                    "name": "C4",
                    "midi": 60,
                    "time": 121.04743399999967,
                    "velocity": 0.2204724409448819,
                    "duration": 0.14962599999999782
                },
                {
                    "name": "G3",
                    "midi": 55,
                    "time": 121.04743399999967,
                    "velocity": 0.2204724409448819,
                    "duration": 0.14962599999999782
                },
                {
                    "name": "G2",
                    "midi": 43,
                    "time": 121.19705999999967,
                    "velocity": 0.33070866141732286,
                    "duration": 0.14962599999999782
                },
                {
                    "name": "F3",
                    "midi": 53,
                    "time": 121.49631199999966,
                    "velocity": 0.2204724409448819,
                    "duration": 0.14962599999999782
                },
                {
                    "name": "D4",
                    "midi": 62,
                    "time": 121.49631199999966,
                    "velocity": 0.25984251968503935,
                    "duration": 0.14962599999999782
                },
                {
                    "name": "F4",
                    "midi": 65,
                    "time": 121.64593799999966,
                    "velocity": 0.2992125984251969,
                    "duration": 0.44887799999999345
                },
                {
                    "name": "A3",
                    "midi": 57,
                    "time": 121.64593799999966,
                    "velocity": 0.25196850393700787,
                    "duration": 0.44887799999999345
                },
                {
                    "name": "G3",
                    "midi": 55,
                    "time": 122.09481599999965,
                    "velocity": 0.2283464566929134,
                    "duration": 0.29925199999999563
                },
                {
                    "name": "D4",
                    "midi": 62,
                    "time": 122.09481599999965,
                    "velocity": 0.2755905511811024,
                    "duration": 0.29925199999999563
                },
                {
                    "name": "C2",
                    "midi": 36,
                    "time": 122.54369399999965,
                    "velocity": 0.2677165354330709,
                    "duration": 0.14962599999999782
                },
                {
                    "name": "C3",
                    "midi": 48,
                    "time": 122.54369399999965,
                    "velocity": 0.2677165354330709,
                    "duration": 0.14962599999999782
                },
                {
                    "name": "G3",
                    "midi": 55,
                    "time": 122.69331999999964,
                    "velocity": 0.2283464566929134,
                    "duration": 0.14962599999999782
                },
                {
                    "name": "C4",
                    "midi": 60,
                    "time": 122.84294599999964,
                    "velocity": 0.23622047244094488,
                    "duration": 0.14962599999999782
                },
                {
                    "name": "E4",
                    "midi": 64,
                    "time": 122.99257199999964,
                    "velocity": 0.2677165354330709,
                    "duration": 0.14962599999999782
                },
                {
                    "name": "C4",
                    "midi": 60,
                    "time": 123.14219799999964,
                    "velocity": 0.2283464566929134,
                    "duration": 0.14962599999999782
                },
                {
                    "name": "G3",
                    "midi": 55,
                    "time": 123.29182399999964,
                    "velocity": 0.2283464566929134,
                    "duration": 0.14962599999999782
                },
                {
                    "name": "A2",
                    "midi": 45,
                    "time": 123.44144999999963,
                    "velocity": 0.2992125984251969,
                    "duration": 0.14962599999999782
                },
                {
                    "name": "C4",
                    "midi": 60,
                    "time": 123.59107599999963,
                    "velocity": 0.2204724409448819,
                    "duration": 0.14962599999999782
                },
                {
                    "name": "E4",
                    "midi": 64,
                    "time": 123.74070199999963,
                    "velocity": 0.2204724409448819,
                    "duration": 0.14962599999999782
                },
                {
                    "name": "G4",
                    "midi": 67,
                    "time": 123.89032799999963,
                    "velocity": 0.25196850393700787,
                    "duration": 0.14962599999999782
                },
                {
                    "name": "A3",
                    "midi": 57,
                    "time": 123.89032799999963,
                    "velocity": 0.25196850393700787,
                    "duration": 0.44887799999999345
                },
                {
                    "name": "E4",
                    "midi": 64,
                    "time": 124.03995399999963,
                    "velocity": 0.2677165354330709,
                    "duration": 0.14962599999999782
                },
                {
                    "name": "C4",
                    "midi": 60,
                    "time": 124.18957999999962,
                    "velocity": 0.28346456692913385,
                    "duration": 0.14962599999999782
                },
                {
                    "name": "D3",
                    "midi": 50,
                    "time": 124.33920599999962,
                    "velocity": 0.3228346456692913,
                    "duration": 0.14962599999999782
                },
                {
                    "name": "D2",
                    "midi": 38,
                    "time": 124.33920599999962,
                    "velocity": 0.3228346456692913,
                    "duration": 0.14962599999999782
                },
                {
                    "name": "A4",
                    "midi": 69,
                    "time": 124.48883199999962,
                    "velocity": 0.2440944881889764,
                    "duration": 1.4962599999999924
                },
                {
                    "name": "C5",
                    "midi": 72,
                    "time": 124.63845799999962,
                    "velocity": 0.2677165354330709,
                    "duration": 1.3466339999999946
                },
                {
                    "name": "F#4",
                    "midi": 66,
                    "time": 124.78808399999961,
                    "velocity": 0.2677165354330709,
                    "duration": 1.1970079999999967
                },
                {
                    "name": "E5",
                    "midi": 76,
                    "time": 124.78808399999961,
                    "velocity": 0.2677165354330709,
                    "duration": 1.1970079999999967
                },
                {
                    "name": "A4",
                    "midi": 69,
                    "time": 125.98509199999961,
                    "velocity": 0.2283464566929134,
                    "duration": 0.14962599999999782
                },
                {
                    "name": "D5",
                    "midi": 74,
                    "time": 125.98509199999961,
                    "velocity": 0.2755905511811024,
                    "duration": 0.14962599999999782
                },
                {
                    "name": "F#4",
                    "midi": 66,
                    "time": 125.98509199999961,
                    "velocity": 0.2283464566929134,
                    "duration": 0.14962599999999782
                },
                {
                    "name": "F#4",
                    "midi": 66,
                    "time": 126.13471799999961,
                    "velocity": 0.25196850393700787,
                    "duration": 0.29925199999999563
                },
                {
                    "name": "E4",
                    "midi": 64,
                    "time": 126.13471799999961,
                    "velocity": 0.25196850393700787,
                    "duration": 0.29925199999999563
                },
                {
                    "name": "C5",
                    "midi": 72,
                    "time": 126.13471799999961,
                    "velocity": 0.2992125984251969,
                    "duration": 0.29925199999999563
                },
                {
                    "name": "D4",
                    "midi": 62,
                    "time": 126.4339699999996,
                    "velocity": 0.2204724409448819,
                    "duration": 0.14962599999999782
                },
                {
                    "name": "B4",
                    "midi": 71,
                    "time": 126.4339699999996,
                    "velocity": 0.25984251968503935,
                    "duration": 0.14962599999999782
                },
                {
                    "name": "F#4",
                    "midi": 66,
                    "time": 126.4339699999996,
                    "velocity": 0.2204724409448819,
                    "duration": 0.14962599999999782
                },
                {
                    "name": "D2",
                    "midi": 38,
                    "time": 126.5835959999996,
                    "velocity": 0.2755905511811024,
                    "duration": 0.14962599999999782
                },
                {
                    "name": "D3",
                    "midi": 50,
                    "time": 126.5835959999996,
                    "velocity": 0.33070866141732286,
                    "duration": 0.14962599999999782
                },
                {
                    "name": "F#4",
                    "midi": 66,
                    "time": 126.8828479999996,
                    "velocity": 0.2047244094488189,
                    "duration": 0.14962599999999782
                },
                {
                    "name": "E4",
                    "midi": 64,
                    "time": 126.8828479999996,
                    "velocity": 0.2047244094488189,
                    "duration": 0.14962599999999782
                },
                {
                    "name": "C5",
                    "midi": 72,
                    "time": 126.8828479999996,
                    "velocity": 0.2440944881889764,
                    "duration": 0.14962599999999782
                },
                {
                    "name": "D4",
                    "midi": 62,
                    "time": 127.0324739999996,
                    "velocity": 0.2440944881889764,
                    "duration": 0.7481300000000033
                },
                {
                    "name": "F#4",
                    "midi": 66,
                    "time": 127.0324739999996,
                    "velocity": 0.2440944881889764,
                    "duration": 0.7481300000000033
                },
                {
                    "name": "B4",
                    "midi": 71,
                    "time": 127.0324739999996,
                    "velocity": 0.29133858267716534,
                    "duration": 0.7481300000000033
                },
                {
                    "name": "C4",
                    "midi": 60,
                    "time": 127.7806039999996,
                    "velocity": 0.1968503937007874,
                    "duration": 0.14962599999999782
                },
                {
                    "name": "A4",
                    "midi": 69,
                    "time": 127.7806039999996,
                    "velocity": 0.23622047244094488,
                    "duration": 0.14962599999999782
                },
                {
                    "name": "F#4",
                    "midi": 66,
                    "time": 127.7806039999996,
                    "velocity": 0.23622047244094488,
                    "duration": 0.14962599999999782
                },
                {
                    "name": "F#3",
                    "midi": 54,
                    "time": 127.9302299999996,
                    "velocity": 0.2125984251968504,
                    "duration": 0.14962600000001203
                },
                {
                    "name": "G#3",
                    "midi": 56,
                    "time": 127.9302299999996,
                    "velocity": 0.25196850393700787,
                    "duration": 0.14962600000001203
                },
                {
                    "name": "B2",
                    "midi": 47,
                    "time": 127.9302299999996,
                    "velocity": 0.2125984251968504,
                    "duration": 0.14962600000001203
                },
                {
                    "name": "C3",
                    "midi": 48,
                    "time": 128.0798559999996,
                    "velocity": 0.2047244094488189,
                    "duration": 0.14962600000001203
                },
                {
                    "name": "A3",
                    "midi": 57,
                    "time": 128.0798559999996,
                    "velocity": 0.2440944881889764,
                    "duration": 0.14962600000001203
                },
                {
                    "name": "F#3",
                    "midi": 54,
                    "time": 128.0798559999996,
                    "velocity": 0.2047244094488189,
                    "duration": 0.14962600000001203
                },
                {
                    "name": "E3",
                    "midi": 52,
                    "time": 128.22948199999962,
                    "velocity": 0.2047244094488189,
                    "duration": 0.14962600000001203
                },
                {
                    "name": "C4",
                    "midi": 60,
                    "time": 128.22948199999962,
                    "velocity": 0.2440944881889764,
                    "duration": 0.14962600000001203
                },
                {
                    "name": "F#3",
                    "midi": 54,
                    "time": 128.22948199999962,
                    "velocity": 0.2047244094488189,
                    "duration": 0.14962600000001203
                },
                {
                    "name": "F#3",
                    "midi": 54,
                    "time": 128.37910799999963,
                    "velocity": 0.2440944881889764,
                    "duration": 0.7481300000000033
                },
                {
                    "name": "B3",
                    "midi": 59,
                    "time": 128.37910799999963,
                    "velocity": 0.29133858267716534,
                    "duration": 0.7481300000000033
                },
                {
                    "name": "D3",
                    "midi": 50,
                    "time": 128.37910799999963,
                    "velocity": 0.2440944881889764,
                    "duration": 0.7481300000000033
                },
                {
                    "name": "F#3",
                    "midi": 54,
                    "time": 129.12723799999964,
                    "velocity": 0.23622047244094488,
                    "duration": 0.14962600000001203
                },
                {
                    "name": "C3",
                    "midi": 48,
                    "time": 129.12723799999964,
                    "velocity": 0.1968503937007874,
                    "duration": 0.14962600000001203
                },
                {
                    "name": "A3",
                    "midi": 57,
                    "time": 129.12723799999964,
                    "velocity": 0.23622047244094488,
                    "duration": 0.14962600000001203
                },
                {
                    "name": "D2",
                    "midi": 38,
                    "time": 129.27686399999965,
                    "velocity": 0.3779527559055118,
                    "duration": 0.14962600000001203
                },
                {
                    "name": "D3",
                    "midi": 50,
                    "time": 129.27686399999965,
                    "velocity": 0.44881889763779526,
                    "duration": 0.14962600000001203
                },
                {
                    "name": "F4",
                    "midi": 65,
                    "time": 129.57611599999967,
                    "velocity": 0.2677165354330709,
                    "duration": 0.14962600000001203
                },
                {
                    "name": "G#4",
                    "midi": 68,
                    "time": 129.57611599999967,
                    "velocity": 0.2677165354330709,
                    "duration": 0.14962600000001203
                },
                {
                    "name": "D5",
                    "midi": 74,
                    "time": 129.57611599999967,
                    "velocity": 0.33070866141732286,
                    "duration": 0.14962600000001203
                },
                {
                    "name": "E4",
                    "midi": 64,
                    "time": 129.72574199999968,
                    "velocity": 0.33070866141732286,
                    "duration": 0.7481300000000033
                },
                {
                    "name": "C5",
                    "midi": 72,
                    "time": 129.72574199999968,
                    "velocity": 0.3937007874015748,
                    "duration": 0.7481300000000033
                },
                {
                    "name": "G#4",
                    "midi": 68,
                    "time": 129.72574199999968,
                    "velocity": 0.33070866141732286,
                    "duration": 0.7481300000000033
                },
                {
                    "name": "D4",
                    "midi": 62,
                    "time": 130.4738719999997,
                    "velocity": 0.25984251968503935,
                    "duration": 0.14962600000001203
                },
                {
                    "name": "B4",
                    "midi": 71,
                    "time": 130.4738719999997,
                    "velocity": 0.31496062992125984,
                    "duration": 0.14962600000001203
                },
                {
                    "name": "G#4",
                    "midi": 68,
                    "time": 130.4738719999997,
                    "velocity": 0.31496062992125984,
                    "duration": 0.14962600000001203
                },
                {
                    "name": "A#3",
                    "midi": 58,
                    "time": 130.6234979999997,
                    "velocity": 0.33858267716535434,
                    "duration": 0.14962600000001203
                },
                {
                    "name": "G#3",
                    "midi": 56,
                    "time": 130.6234979999997,
                    "velocity": 0.29133858267716534,
                    "duration": 0.14962600000001203
                },
                {
                    "name": "C#3",
                    "midi": 49,
                    "time": 130.6234979999997,
                    "velocity": 0.29133858267716534,
                    "duration": 0.14962600000001203
                },
                {
                    "name": "G#3",
                    "midi": 56,
                    "time": 130.7731239999997,
                    "velocity": 0.2677165354330709,
                    "duration": 0.14962600000001203
                },
                {
                    "name": "B3",
                    "midi": 59,
                    "time": 130.7731239999997,
                    "velocity": 0.33070866141732286,
                    "duration": 0.14962600000001203
                },
                {
                    "name": "D3",
                    "midi": 50,
                    "time": 130.7731239999997,
                    "velocity": 0.2677165354330709,
                    "duration": 0.14962600000001203
                },
                {
                    "name": "G#3",
                    "midi": 56,
                    "time": 130.92274999999972,
                    "velocity": 0.2677165354330709,
                    "duration": 0.14962600000001203
                },
                {
                    "name": "F3",
                    "midi": 53,
                    "time": 130.92274999999972,
                    "velocity": 0.2677165354330709,
                    "duration": 0.14962600000001203
                },
                {
                    "name": "D4",
                    "midi": 62,
                    "time": 130.92274999999972,
                    "velocity": 0.33070866141732286,
                    "duration": 0.14962600000001203
                },
                {
                    "name": "G#3",
                    "midi": 56,
                    "time": 131.07237599999974,
                    "velocity": 0.33070866141732286,
                    "duration": 0.7481300000000033
                },
                {
                    "name": "E3",
                    "midi": 52,
                    "time": 131.07237599999974,
                    "velocity": 0.33070866141732286,
                    "duration": 0.7481300000000033
                },
                {
                    "name": "C4",
                    "midi": 60,
                    "time": 131.07237599999974,
                    "velocity": 0.3937007874015748,
                    "duration": 0.7481300000000033
                },
                {
                    "name": "G#3",
                    "midi": 56,
                    "time": 131.82050599999974,
                    "velocity": 0.31496062992125984,
                    "duration": 0.14962600000001203
                },
                {
                    "name": "D3",
                    "midi": 50,
                    "time": 131.82050599999974,
                    "velocity": 0.25984251968503935,
                    "duration": 0.14962600000001203
                },
                {
                    "name": "B3",
                    "midi": 59,
                    "time": 131.82050599999974,
                    "velocity": 0.31496062992125984,
                    "duration": 0.14962600000001203
                },
                {
                    "name": "D3",
                    "midi": 50,
                    "time": 131.97013199999975,
                    "velocity": 0.47244094488188976,
                    "duration": 0.14962600000001203
                },
                {
                    "name": "D2",
                    "midi": 38,
                    "time": 131.97013199999975,
                    "velocity": 0.3937007874015748,
                    "duration": 0.14962600000001203
                },
                {
                    "name": "F#5",
                    "midi": 78,
                    "time": 132.26938399999977,
                    "velocity": 0.33858267716535434,
                    "duration": 0.14339158333334012
                },
                {
                    "name": "A4",
                    "midi": 69,
                    "time": 132.26938399999977,
                    "velocity": 0.28346456692913385,
                    "duration": 0.14339158333334012
                },
                {
                    "name": "C5",
                    "midi": 72,
                    "time": 132.26938399999977,
                    "velocity": 0.28346456692913385,
                    "duration": 0.14339158333334012
                },
                {
                    "name": "C5",
                    "midi": 72,
                    "time": 132.4190099999998,
                    "velocity": 0.33858267716535434,
                    "duration": 0.7481300000000033
                },
                {
                    "name": "F#5",
                    "midi": 78,
                    "time": 132.4190099999998,
                    "velocity": 0.4094488188976378,
                    "duration": 0.7481300000000033
                },
                {
                    "name": "A4",
                    "midi": 69,
                    "time": 132.4190099999998,
                    "velocity": 0.33858267716535434,
                    "duration": 0.7481300000000033
                },
                {
                    "name": "C5",
                    "midi": 72,
                    "time": 133.1671399999998,
                    "velocity": 0.33858267716535434,
                    "duration": 0.14339158333334012
                },
                {
                    "name": "E5",
                    "midi": 76,
                    "time": 133.1671399999998,
                    "velocity": 0.33858267716535434,
                    "duration": 0.14339158333334012
                },
                {
                    "name": "A5",
                    "midi": 81,
                    "time": 133.1671399999998,
                    "velocity": 0.4015748031496063,
                    "duration": 0.14339158333334012
                },
                {
                    "name": "C5",
                    "midi": 72,
                    "time": 133.3167659999998,
                    "velocity": 0.3779527559055118,
                    "duration": 0.7481300000000033
                },
                {
                    "name": "E5",
                    "midi": 76,
                    "time": 133.3167659999998,
                    "velocity": 0.3779527559055118,
                    "duration": 0.7481300000000033
                },
                {
                    "name": "A5",
                    "midi": 81,
                    "time": 133.3167659999998,
                    "velocity": 0.44881889763779526,
                    "duration": 0.7481300000000033
                },
                {
                    "name": "A4",
                    "midi": 69,
                    "time": 134.0648959999998,
                    "velocity": 0.30708661417322836,
                    "duration": 0.14962600000001203
                },
                {
                    "name": "F#5",
                    "midi": 78,
                    "time": 134.0648959999998,
                    "velocity": 0.3700787401574803,
                    "duration": 0.14962600000001203
                },
                {
                    "name": "C5",
                    "midi": 72,
                    "time": 134.0648959999998,
                    "velocity": 0.30708661417322836,
                    "duration": 0.14962600000001203
                },
                {
                    "name": "F#4",
                    "midi": 66,
                    "time": 134.21452199999982,
                    "velocity": 0.3543307086614173,
                    "duration": 0.29925199999999563
                },
                {
                    "name": "D5",
                    "midi": 74,
                    "time": 134.21452199999982,
                    "velocity": 0.41732283464566927,
                    "duration": 0.29925199999999563
                },
                {
                    "name": "A4",
                    "midi": 69,
                    "time": 134.21452199999982,
                    "velocity": 0.3543307086614173,
                    "duration": 0.29925199999999563
                },
                {
                    "name": "C5",
                    "midi": 72,
                    "time": 134.5137739999998,
                    "velocity": 0.3858267716535433,
                    "duration": 0.14962600000001203
                },
                {
                    "name": "A4",
                    "midi": 69,
                    "time": 134.5137739999998,
                    "velocity": 0.3228346456692913,
                    "duration": 0.14962600000001203
                },
                {
                    "name": "E4",
                    "midi": 64,
                    "time": 134.5137739999998,
                    "velocity": 0.3228346456692913,
                    "duration": 0.14962600000001203
                },
                {
                    "name": "F#4",
                    "midi": 66,
                    "time": 134.66339999999983,
                    "velocity": 0.2755905511811024,
                    "duration": 0.14962600000001203
                },
                {
                    "name": "G#4",
                    "midi": 68,
                    "time": 134.66339999999983,
                    "velocity": 0.3228346456692913,
                    "duration": 0.14962600000001203
                },
                {
                    "name": "B3",
                    "midi": 59,
                    "time": 134.66339999999983,
                    "velocity": 0.2755905511811024,
                    "duration": 0.14962600000001203
                },
                {
                    "name": "F#4",
                    "midi": 66,
                    "time": 134.81302599999984,
                    "velocity": 0.25984251968503935,
                    "duration": 0.14962600000001203
                },
                {
                    "name": "C4",
                    "midi": 60,
                    "time": 134.81302599999984,
                    "velocity": 0.25984251968503935,
                    "duration": 0.14962600000001203
                },
                {
                    "name": "A4",
                    "midi": 69,
                    "time": 134.81302599999984,
                    "velocity": 0.30708661417322836,
                    "duration": 0.14962600000001203
                },
                {
                    "name": "F#4",
                    "midi": 66,
                    "time": 134.96265199999985,
                    "velocity": 0.25196850393700787,
                    "duration": 0.14962600000001203
                },
                {
                    "name": "E4",
                    "midi": 64,
                    "time": 134.96265199999985,
                    "velocity": 0.25196850393700787,
                    "duration": 0.14962600000001203
                },
                {
                    "name": "C5",
                    "midi": 72,
                    "time": 134.96265199999985,
                    "velocity": 0.2992125984251969,
                    "duration": 0.14962600000001203
                },
                {
                    "name": "F#4",
                    "midi": 66,
                    "time": 135.11227799999986,
                    "velocity": 0.29133858267716534,
                    "duration": 0.7481300000000033
                },
                {
                    "name": "D4",
                    "midi": 62,
                    "time": 135.11227799999986,
                    "velocity": 0.29133858267716534,
                    "duration": 0.7481300000000033
                },
                {
                    "name": "B4",
                    "midi": 71,
                    "time": 135.11227799999986,
                    "velocity": 0.3464566929133858,
                    "duration": 0.7481300000000033
                },
                {
                    "name": "C4",
                    "midi": 60,
                    "time": 135.86040799999986,
                    "velocity": 0.2047244094488189,
                    "duration": 0.10598508333333712
                },
                {
                    "name": "A4",
                    "midi": 69,
                    "time": 135.86040799999986,
                    "velocity": 0.2440944881889764,
                    "duration": 0.10598508333333712
                },
                {
                    "name": "F#4",
                    "midi": 66,
                    "time": 135.86040799999986,
                    "velocity": 0.2440944881889764,
                    "duration": 0.10598508333333712
                },
                {
                    "name": "G2",
                    "midi": 43,
                    "time": 136.01003399999988,
                    "velocity": 0.33070866141732286,
                    "duration": 0.07481300000000601
                },
                {
                    "name": "D3",
                    "midi": 50,
                    "time": 136.1596599999999,
                    "velocity": 0.2677165354330709,
                    "duration": 0.07481300000000601
                },
                {
                    "name": "G3",
                    "midi": 55,
                    "time": 136.3092859999999,
                    "velocity": 0.2677165354330709,
                    "duration": 0.07481300000000601
                },
                {
                    "name": "G2",
                    "midi": 43,
                    "time": 136.4589119999999,
                    "velocity": 0.30708661417322836,
                    "duration": 0.07481300000000601
                },
                {
                    "name": "D3",
                    "midi": 50,
                    "time": 136.60853799999992,
                    "velocity": 0.23622047244094488,
                    "duration": 0.07481300000000601
                },
                {
                    "name": "G3",
                    "midi": 55,
                    "time": 136.75816399999994,
                    "velocity": 0.23622047244094488,
                    "duration": 0.07481300000000601
                },
                {
                    "name": "G2",
                    "midi": 43,
                    "time": 136.90778999999995,
                    "velocity": 0.30708661417322836,
                    "duration": 0.07481300000000601
                },
                {
                    "name": "D3",
                    "midi": 50,
                    "time": 137.05741599999996,
                    "velocity": 0.25196850393700787,
                    "duration": 0.07481300000000601
                },
                {
                    "name": "G3",
                    "midi": 55,
                    "time": 137.20704199999997,
                    "velocity": 0.25196850393700787,
                    "duration": 0.07481300000000601
                },
                {
                    "name": "G2",
                    "midi": 43,
                    "time": 137.35666799999998,
                    "velocity": 0.33070866141732286,
                    "duration": 0.07481300000000601
                },
                {
                    "name": "D3",
                    "midi": 50,
                    "time": 137.506294,
                    "velocity": 0.2677165354330709,
                    "duration": 0.07481300000000601
                },
                {
                    "name": "G3",
                    "midi": 55,
                    "time": 137.65592,
                    "velocity": 0.2677165354330709,
                    "duration": 0.07481300000000601
                },
                {
                    "name": "G2",
                    "midi": 43,
                    "time": 137.80554600000002,
                    "velocity": 0.30708661417322836,
                    "duration": 0.07481300000000601
                },
                {
                    "name": "D3",
                    "midi": 50,
                    "time": 137.95517200000003,
                    "velocity": 0.23622047244094488,
                    "duration": 0.07481300000000601
                },
                {
                    "name": "G3",
                    "midi": 55,
                    "time": 138.10479800000005,
                    "velocity": 0.23622047244094488,
                    "duration": 0.07481300000000601
                },
                {
                    "name": "G2",
                    "midi": 43,
                    "time": 138.25442400000006,
                    "velocity": 0.30708661417322836,
                    "duration": 0.07481300000000601
                },
                {
                    "name": "D3",
                    "midi": 50,
                    "time": 138.40405000000007,
                    "velocity": 0.25196850393700787,
                    "duration": 0.07481300000000601
                },
                {
                    "name": "G3",
                    "midi": 55,
                    "time": 138.55367600000008,
                    "velocity": 0.25196850393700787,
                    "duration": 0.07481300000000601
                },
                {
                    "name": "F2",
                    "midi": 41,
                    "time": 138.7033020000001,
                    "velocity": 0.33070866141732286,
                    "duration": 0.07481300000000601
                },
                {
                    "name": "A2",
                    "midi": 45,
                    "time": 138.8529280000001,
                    "velocity": 0.2677165354330709,
                    "duration": 0.07481300000000601
                },
                {
                    "name": "F3",
                    "midi": 53,
                    "time": 139.00255400000012,
                    "velocity": 0.2677165354330709,
                    "duration": 0.07481300000000601
                },
                {
                    "name": "F2",
                    "midi": 41,
                    "time": 139.15218000000013,
                    "velocity": 0.31496062992125984,
                    "duration": 0.07481300000000601
                },
                {
                    "name": "A2",
                    "midi": 45,
                    "time": 139.30180600000014,
                    "velocity": 0.25984251968503935,
                    "duration": 0.07481300000000601
                },
                {
                    "name": "F3",
                    "midi": 53,
                    "time": 139.45143200000015,
                    "velocity": 0.25984251968503935,
                    "duration": 0.07481300000000601
                },
                {
                    "name": "F2",
                    "midi": 41,
                    "time": 139.60105800000017,
                    "velocity": 0.3543307086614173,
                    "duration": 0.07481300000000601
                },
                {
                    "name": "A2",
                    "midi": 45,
                    "time": 139.75068400000018,
                    "velocity": 0.29133858267716534,
                    "duration": 0.07481300000000601
                },
                {
                    "name": "F3",
                    "midi": 53,
                    "time": 139.9003100000002,
                    "velocity": 0.30708661417322836,
                    "duration": 0.07481300000000601
                },
                {
                    "name": "F2",
                    "midi": 41,
                    "time": 140.0499360000002,
                    "velocity": 0.33070866141732286,
                    "duration": 0.07481300000000601
                },
                {
                    "name": "A2",
                    "midi": 45,
                    "time": 140.1995620000002,
                    "velocity": 0.2677165354330709,
                    "duration": 0.07481300000000601
                },
                {
                    "name": "F3",
                    "midi": 53,
                    "time": 140.34918800000023,
                    "velocity": 0.2755905511811024,
                    "duration": 0.07481300000000601
                },
                {
                    "name": "F2",
                    "midi": 41,
                    "time": 140.49881400000024,
                    "velocity": 0.3700787401574803,
                    "duration": 0.07481300000000601
                },
                {
                    "name": "A2",
                    "midi": 45,
                    "time": 140.64844000000025,
                    "velocity": 0.31496062992125984,
                    "duration": 0.07481300000000601
                },
                {
                    "name": "F3",
                    "midi": 53,
                    "time": 140.79806600000026,
                    "velocity": 0.31496062992125984,
                    "duration": 0.07481300000000601
                },
                {
                    "name": "F2",
                    "midi": 41,
                    "time": 140.94769200000027,
                    "velocity": 0.3779527559055118,
                    "duration": 0.07481300000000601
                },
                {
                    "name": "A2",
                    "midi": 45,
                    "time": 141.09731800000029,
                    "velocity": 0.31496062992125984,
                    "duration": 0.07481300000000601
                },
                {
                    "name": "F3",
                    "midi": 53,
                    "time": 141.2469440000003,
                    "velocity": 0.3228346456692913,
                    "duration": 0.07481300000000601
                },
                {
                    "name": "E2",
                    "midi": 40,
                    "time": 141.3965700000003,
                    "velocity": 0.3779527559055118,
                    "duration": 0.07481300000000601
                },
                {
                    "name": "B2",
                    "midi": 47,
                    "time": 141.54619600000032,
                    "velocity": 0.30708661417322836,
                    "duration": 0.07481300000000601
                },
                {
                    "name": "E3",
                    "midi": 52,
                    "time": 141.69582200000033,
                    "velocity": 0.30708661417322836,
                    "duration": 0.07481300000000601
                },
                {
                    "name": "E2",
                    "midi": 40,
                    "time": 141.84544800000035,
                    "velocity": 0.36220472440944884,
                    "duration": 0.07481300000000601
                },
                {
                    "name": "B2",
                    "midi": 47,
                    "time": 141.99507400000036,
                    "velocity": 0.29133858267716534,
                    "duration": 0.07481300000000601
                },
                {
                    "name": "E3",
                    "midi": 52,
                    "time": 142.14470000000037,
                    "velocity": 0.2992125984251969,
                    "duration": 0.07481300000000601
                },
                {
                    "name": "E2",
                    "midi": 40,
                    "time": 142.29432600000038,
                    "velocity": 0.4015748031496063,
                    "duration": 0.07481300000000601
                },
                {
                    "name": "B2",
                    "midi": 47,
                    "time": 142.4439520000004,
                    "velocity": 0.33858267716535434,
                    "duration": 0.07481300000000601
                },
                {
                    "name": "E3",
                    "midi": 52,
                    "time": 142.5935780000004,
                    "velocity": 0.3464566929133858,
                    "duration": 0.07481300000000601
                },
                {
                    "name": "E2",
                    "midi": 40,
                    "time": 142.74320400000042,
                    "velocity": 0.3779527559055118,
                    "duration": 0.07481300000000601
                },
                {
                    "name": "B2",
                    "midi": 47,
                    "time": 142.89283000000043,
                    "velocity": 0.30708661417322836,
                    "duration": 0.07481300000000601
                },
                {
                    "name": "E3",
                    "midi": 52,
                    "time": 143.04245600000044,
                    "velocity": 0.31496062992125984,
                    "duration": 0.07481300000000601
                },
                {
                    "name": "E2",
                    "midi": 40,
                    "time": 143.19208200000045,
                    "velocity": 0.41732283464566927,
                    "duration": 0.07481300000000601
                },
                {
                    "name": "B2",
                    "midi": 47,
                    "time": 143.34170800000047,
                    "velocity": 0.3543307086614173,
                    "duration": 0.07481300000000601
                },
                {
                    "name": "E3",
                    "midi": 52,
                    "time": 143.49133400000048,
                    "velocity": 0.36220472440944884,
                    "duration": 0.07481300000000601
                },
                {
                    "name": "E2",
                    "midi": 40,
                    "time": 143.6409600000005,
                    "velocity": 0.4251968503937008,
                    "duration": 0.07481300000000601
                },
                {
                    "name": "B2",
                    "midi": 47,
                    "time": 143.7905860000005,
                    "velocity": 0.3543307086614173,
                    "duration": 0.07481300000000601
                },
                {
                    "name": "E3",
                    "midi": 52,
                    "time": 143.9402120000005,
                    "velocity": 0.3700787401574803,
                    "duration": 0.07481300000000601
                },
                {
                    "name": "D2",
                    "midi": 38,
                    "time": 144.08983800000053,
                    "velocity": 0.4251968503937008,
                    "duration": 0.07481300000000601
                },
                {
                    "name": "F2",
                    "midi": 41,
                    "time": 144.23946400000054,
                    "velocity": 0.3464566929133858,
                    "duration": 0.07481300000000601
                },
                {
                    "name": "D3",
                    "midi": 50,
                    "time": 144.38909000000055,
                    "velocity": 0.3464566929133858,
                    "duration": 0.07481300000000601
                },
                {
                    "name": "D2",
                    "midi": 38,
                    "time": 144.53871600000056,
                    "velocity": 0.4015748031496063,
                    "duration": 0.07481300000000601
                },
                {
                    "name": "F2",
                    "midi": 41,
                    "time": 144.68834200000057,
                    "velocity": 0.33070866141732286,
                    "duration": 0.07481300000000601
                },
                {
                    "name": "D3",
                    "midi": 50,
                    "time": 144.8379680000006,
                    "velocity": 0.33858267716535434,
                    "duration": 0.07481300000000601
                },
                {
                    "name": "D2",
                    "midi": 38,
                    "time": 144.9875940000006,
                    "velocity": 0.44881889763779526,
                    "duration": 0.07481300000000601
                },
                {
                    "name": "F2",
                    "midi": 41,
                    "time": 145.1372200000006,
                    "velocity": 0.3779527559055118,
                    "duration": 0.07481300000000601
                },
                {
                    "name": "D3",
                    "midi": 50,
                    "time": 145.28684600000062,
                    "velocity": 0.3858267716535433,
                    "duration": 0.07481300000000601
                },
                {
                    "name": "D2",
                    "midi": 38,
                    "time": 145.43647200000063,
                    "velocity": 0.4251968503937008,
                    "duration": 0.07481300000000601
                },
                {
                    "name": "F2",
                    "midi": 41,
                    "time": 145.58609800000065,
                    "velocity": 0.33858267716535434,
                    "duration": 0.07481300000000601
                },
                {
                    "name": "D3",
                    "midi": 50,
                    "time": 145.73572400000066,
                    "velocity": 0.3543307086614173,
                    "duration": 0.07481300000000601
                },
                {
                    "name": "D2",
                    "midi": 38,
                    "time": 145.88535000000067,
                    "velocity": 0.4645669291338583,
                    "duration": 0.07481300000000601
                },
                {
                    "name": "F2",
                    "midi": 41,
                    "time": 146.03497600000068,
                    "velocity": 0.3937007874015748,
                    "duration": 0.07481300000000601
                },
                {
                    "name": "D3",
                    "midi": 50,
                    "time": 146.1846020000007,
                    "velocity": 0.4015748031496063,
                    "duration": 0.07481300000000601
                },
                {
                    "name": "D2",
                    "midi": 38,
                    "time": 146.3342280000007,
                    "velocity": 0.47244094488188976,
                    "duration": 0.07481300000000601
                },
                {
                    "name": "F2",
                    "midi": 41,
                    "time": 146.48385400000072,
                    "velocity": 0.3937007874015748,
                    "duration": 0.07481300000000601
                },
                {
                    "name": "D3",
                    "midi": 50,
                    "time": 146.63348000000073,
                    "velocity": 0.4094488188976378,
                    "duration": 0.07481300000000601
                },
                {
                    "name": "C2",
                    "midi": 36,
                    "time": 146.78310600000074,
                    "velocity": 0.47244094488188976,
                    "duration": 0.07481300000000601
                },
                {
                    "name": "G2",
                    "midi": 43,
                    "time": 146.93273200000075,
                    "velocity": 0.3858267716535433,
                    "duration": 0.07481300000000601
                },
                {
                    "name": "C3",
                    "midi": 48,
                    "time": 147.08235800000077,
                    "velocity": 0.3858267716535433,
                    "duration": 0.07481300000000601
                },
                {
                    "name": "C2",
                    "midi": 36,
                    "time": 147.23198400000078,
                    "velocity": 0.44881889763779526,
                    "duration": 0.07481300000000601
                },
                {
                    "name": "G2",
                    "midi": 43,
                    "time": 147.3816100000008,
                    "velocity": 0.36220472440944884,
                    "duration": 0.07481300000000601
                },
                {
                    "name": "C3",
                    "midi": 48,
                    "time": 147.5312360000008,
                    "velocity": 0.3700787401574803,
                    "duration": 0.07481300000000601
                },
                {
                    "name": "C2",
                    "midi": 36,
                    "time": 147.68086200000081,
                    "velocity": 0.4881889763779528,
                    "duration": 0.07481300000000601
                },
                {
                    "name": "G2",
                    "midi": 43,
                    "time": 147.83048800000083,
                    "velocity": 0.4094488188976378,
                    "duration": 0.07481300000000601
                },
                {
                    "name": "C3",
                    "midi": 48,
                    "time": 147.98011400000084,
                    "velocity": 0.41732283464566927,
                    "duration": 0.07481300000000601
                },
                {
                    "name": "C2",
                    "midi": 36,
                    "time": 148.12974000000085,
                    "velocity": 0.47244094488188976,
                    "duration": 0.07481300000000601
                },
                {
                    "name": "G2",
                    "midi": 43,
                    "time": 148.27936600000086,
                    "velocity": 0.3858267716535433,
                    "duration": 0.07481300000000601
                },
                {
                    "name": "C3",
                    "midi": 48,
                    "time": 148.42899200000087,
                    "velocity": 0.3858267716535433,
                    "duration": 0.07481300000000601
                },
                {
                    "name": "C2",
                    "midi": 36,
                    "time": 148.5786180000009,
                    "velocity": 0.4409448818897638,
                    "duration": 0.07481300000000601
                },
                {
                    "name": "G2",
                    "midi": 43,
                    "time": 148.7282440000009,
                    "velocity": 0.3464566929133858,
                    "duration": 0.07481300000000601
                },
                {
                    "name": "C3",
                    "midi": 48,
                    "time": 148.8778700000009,
                    "velocity": 0.3464566929133858,
                    "duration": 0.07481300000000601
                },
                {
                    "name": "C2",
                    "midi": 36,
                    "time": 149.02749600000092,
                    "velocity": 0.4409448818897638,
                    "duration": 0.07481300000000601
                },
                {
                    "name": "G2",
                    "midi": 43,
                    "time": 149.17712200000094,
                    "velocity": 0.36220472440944884,
                    "duration": 0.07481300000000601
                },
                {
                    "name": "C3",
                    "midi": 48,
                    "time": 149.32674800000095,
                    "velocity": 0.36220472440944884,
                    "duration": 0.07481300000000601
                },
                {
                    "name": "C2",
                    "midi": 36,
                    "time": 149.47824432500096,
                    "velocity": 0.47244094488188976,
                    "duration": 0.07481300000000601
                },
                {
                    "name": "G2",
                    "midi": 43,
                    "time": 149.62600000000097,
                    "velocity": 0.3858267716535433,
                    "duration": 0.07481300000000601
                },
                {
                    "name": "C3",
                    "midi": 48,
                    "time": 149.77562600000098,
                    "velocity": 0.3858267716535433,
                    "duration": 0.07481300000000601
                },
                {
                    "name": "C2",
                    "midi": 36,
                    "time": 149.925252000001,
                    "velocity": 0.44881889763779526,
                    "duration": 0.07481300000000601
                },
                {
                    "name": "G2",
                    "midi": 43,
                    "time": 150.074878000001,
                    "velocity": 0.36220472440944884,
                    "duration": 0.07481300000000601
                },
                {
                    "name": "C3",
                    "midi": 48,
                    "time": 150.22450400000102,
                    "velocity": 0.3700787401574803,
                    "duration": 0.07481300000000601
                },
                {
                    "name": "C2",
                    "midi": 36,
                    "time": 150.37413000000103,
                    "velocity": 0.4881889763779528,
                    "duration": 0.07481300000000601
                },
                {
                    "name": "G2",
                    "midi": 43,
                    "time": 150.52375600000104,
                    "velocity": 0.4094488188976378,
                    "duration": 0.07481300000000601
                },
                {
                    "name": "C3",
                    "midi": 48,
                    "time": 150.67338200000106,
                    "velocity": 0.41732283464566927,
                    "duration": 0.07481300000000601
                },
                {
                    "name": "C2",
                    "midi": 36,
                    "time": 150.82300800000107,
                    "velocity": 0.5196850393700787,
                    "duration": 0.07481300000000601
                },
                {
                    "name": "G2",
                    "midi": 43,
                    "time": 150.97263400000108,
                    "velocity": 0.4330708661417323,
                    "duration": 0.07481300000000601
                },
                {
                    "name": "C3",
                    "midi": 48,
                    "time": 151.1222600000011,
                    "velocity": 0.4409448818897638,
                    "duration": 0.07481300000000601
                },
                {
                    "name": "C2",
                    "midi": 36,
                    "time": 151.2718860000011,
                    "velocity": 0.5275590551181102,
                    "duration": 0.07481300000000601
                },
                {
                    "name": "G2",
                    "midi": 43,
                    "time": 151.42151200000112,
                    "velocity": 0.4251968503937008,
                    "duration": 0.07481300000000601
                },
                {
                    "name": "C3",
                    "midi": 48,
                    "time": 151.57113800000113,
                    "velocity": 0.4330708661417323,
                    "duration": 0.07481300000000601
                },
                {
                    "name": "C2",
                    "midi": 36,
                    "time": 151.72076400000114,
                    "velocity": 0.5669291338582677,
                    "duration": 0.07481300000000601
                },
                {
                    "name": "G2",
                    "midi": 43,
                    "time": 151.87039000000115,
                    "velocity": 0.48031496062992124,
                    "duration": 0.07481300000000601
                },
                {
                    "name": "C3",
                    "midi": 48,
                    "time": 152.02001600000116,
                    "velocity": 0.4881889763779528,
                    "duration": 0.07481300000000601
                },
                {
                    "name": "B1",
                    "midi": 35,
                    "time": 152.16964200000118,
                    "velocity": 0.6299212598425197,
                    "duration": 0.07481300000000601
                },
                {
                    "name": "G2",
                    "midi": 43,
                    "time": 152.3192680000012,
                    "velocity": 0.44881889763779526,
                    "duration": 0.07481300000000601
                },
                {
                    "name": "B2",
                    "midi": 47,
                    "time": 152.4688940000012,
                    "velocity": 0.4566929133858268,
                    "duration": 0.07481300000000601
                },
                {
                    "name": "B1",
                    "midi": 35,
                    "time": 152.6185200000012,
                    "velocity": 0.5905511811023622,
                    "duration": 0.07481300000000601
                },
                {
                    "name": "G2",
                    "midi": 43,
                    "time": 152.76814600000122,
                    "velocity": 0.44881889763779526,
                    "duration": 0.07481300000000601
                },
                {
                    "name": "B2",
                    "midi": 47,
                    "time": 152.91777200000124,
                    "velocity": 0.4566929133858268,
                    "duration": 0.07481300000000601
                },
                {
                    "name": "B1",
                    "midi": 35,
                    "time": 153.06739800000125,
                    "velocity": 0.5984251968503937,
                    "duration": 0.07481300000000601
                },
                {
                    "name": "F#2",
                    "midi": 42,
                    "time": 153.21702400000126,
                    "velocity": 0.48031496062992124,
                    "duration": 0.07481300000000601
                },
                {
                    "name": "B2",
                    "midi": 47,
                    "time": 153.36665000000127,
                    "velocity": 0.48031496062992124,
                    "duration": 0.07481300000000601
                },
                {
                    "name": "B1",
                    "midi": 35,
                    "time": 153.51627600000128,
                    "velocity": 0.6299212598425197,
                    "duration": 0.07481300000000601
                },
                {
                    "name": "F#2",
                    "midi": 42,
                    "time": 153.6659020000013,
                    "velocity": 0.44881889763779526,
                    "duration": 0.07481300000000601
                },
                {
                    "name": "B2",
                    "midi": 47,
                    "time": 153.8155280000013,
                    "velocity": 0.4566929133858268,
                    "duration": 0.07481300000000601
                },
                {
                    "name": "B1",
                    "midi": 35,
                    "time": 153.96515400000132,
                    "velocity": 0.5905511811023622,
                    "duration": 0.07481300000000601
                },
                {
                    "name": "E2",
                    "midi": 40,
                    "time": 154.11478000000133,
                    "velocity": 0.44881889763779526,
                    "duration": 0.07481300000000601
                },
                {
                    "name": "B2",
                    "midi": 47,
                    "time": 154.26440600000134,
                    "velocity": 0.4566929133858268,
                    "duration": 0.07481300000000601
                },
                {
                    "name": "B1",
                    "midi": 35,
                    "time": 154.41403200000136,
                    "velocity": 0.5984251968503937,
                    "duration": 0.07481300000000601
                },
                {
                    "name": "D#2",
                    "midi": 39,
                    "time": 154.56365800000137,
                    "velocity": 0.48031496062992124,
                    "duration": 0.07481300000000601
                },
                {
                    "name": "B2",
                    "midi": 47,
                    "time": 154.71328400000138,
                    "velocity": 0.48031496062992124,
                    "duration": 0.07481300000000601
                },
                {
                    "name": "E1",
                    "midi": 28,
                    "time": 154.8629100000014,
                    "velocity": 0.6299212598425197,
                    "duration": 0.07481300000000601
                },
                {
                    "name": "B1",
                    "midi": 35,
                    "time": 155.0125360000014,
                    "velocity": 0.44881889763779526,
                    "duration": 0.07481300000000601
                },
                {
                    "name": "E2",
                    "midi": 40,
                    "time": 155.16216200000142,
                    "velocity": 0.4566929133858268,
                    "duration": 0.07481300000000601
                },
                {
                    "name": "E1",
                    "midi": 28,
                    "time": 155.31178800000143,
                    "velocity": 0.5905511811023622,
                    "duration": 0.07481300000000601
                },
                {
                    "name": "B1",
                    "midi": 35,
                    "time": 155.46141400000144,
                    "velocity": 0.44881889763779526,
                    "duration": 0.07481300000000601
                },
                {
                    "name": "E2",
                    "midi": 40,
                    "time": 155.61104000000145,
                    "velocity": 0.4566929133858268,
                    "duration": 0.07481300000000601
                },
                {
                    "name": "E1",
                    "midi": 28,
                    "time": 155.76066600000146,
                    "velocity": 0.5984251968503937,
                    "duration": 0.07481300000000601
                },
                {
                    "name": "B1",
                    "midi": 35,
                    "time": 155.91029200000148,
                    "velocity": 0.48031496062992124,
                    "duration": 0.07481300000000601
                },
                {
                    "name": "E2",
                    "midi": 40,
                    "time": 156.0599180000015,
                    "velocity": 0.48031496062992124,
                    "duration": 0.07481300000000601
                },
                {
                    "name": "E1",
                    "midi": 28,
                    "time": 156.2095440000015,
                    "velocity": 0.6299212598425197,
                    "duration": 0.07481300000000601
                },
                {
                    "name": "B1",
                    "midi": 35,
                    "time": 156.3591700000015,
                    "velocity": 0.44881889763779526,
                    "duration": 0.07481300000000601
                },
                {
                    "name": "E2",
                    "midi": 40,
                    "time": 156.50879600000152,
                    "velocity": 0.4566929133858268,
                    "duration": 0.07481300000000601
                },
                {
                    "name": "E1",
                    "midi": 28,
                    "time": 156.65842200000154,
                    "velocity": 0.5905511811023622,
                    "duration": 0.07481300000000601
                },
                {
                    "name": "B1",
                    "midi": 35,
                    "time": 156.80804800000155,
                    "velocity": 0.44881889763779526,
                    "duration": 0.07481300000000601
                },
                {
                    "name": "E2",
                    "midi": 40,
                    "time": 156.95767400000156,
                    "velocity": 0.4566929133858268,
                    "duration": 0.07481300000000601
                },
                {
                    "name": "E1",
                    "midi": 28,
                    "time": 157.10730000000157,
                    "velocity": 0.5984251968503937,
                    "duration": 0.07481300000000601
                },
                {
                    "name": "B1",
                    "midi": 35,
                    "time": 157.25692600000158,
                    "velocity": 0.48031496062992124,
                    "duration": 0.07481300000000601
                },
                {
                    "name": "E2",
                    "midi": 40,
                    "time": 157.4065520000016,
                    "velocity": 0.48031496062992124,
                    "duration": 0.07481300000000601
                },
                {
                    "name": "E1",
                    "midi": 28,
                    "time": 157.5561780000016,
                    "velocity": 0.5590551181102362,
                    "duration": 0.07481300000000601
                },
                {
                    "name": "G#3",
                    "midi": 56,
                    "time": 157.8554300000016,
                    "velocity": 0.41732283464566927,
                    "duration": 0.29925199999999563
                },
                {
                    "name": "B3",
                    "midi": 59,
                    "time": 157.8554300000016,
                    "velocity": 0.41732283464566927,
                    "duration": 0.29925199999999563
                },
                {
                    "name": "E3",
                    "midi": 52,
                    "time": 157.8554300000016,
                    "velocity": 0.41732283464566927,
                    "duration": 0.29925199999999563
                },
                {
                    "name": "E4",
                    "midi": 64,
                    "time": 157.8554300000016,
                    "velocity": 0.49606299212598426,
                    "duration": 0.29925199999999563
                },
                {
                    "name": "E3",
                    "midi": 52,
                    "time": 158.1546820000016,
                    "velocity": 0.41732283464566927,
                    "duration": 0.44887800000000766
                },
                {
                    "name": "E4",
                    "midi": 64,
                    "time": 158.1546820000016,
                    "velocity": 0.49606299212598426,
                    "duration": 0.44887800000000766
                },
                {
                    "name": "C#4",
                    "midi": 61,
                    "time": 158.1546820000016,
                    "velocity": 0.41732283464566927,
                    "duration": 0.44887800000000766
                },
                {
                    "name": "A3",
                    "midi": 57,
                    "time": 158.1546820000016,
                    "velocity": 0.41732283464566927,
                    "duration": 0.44887800000000766
                },
                {
                    "name": "E3",
                    "midi": 52,
                    "time": 158.6035600000016,
                    "velocity": 0.4094488188976378,
                    "duration": 0.22443899999998962
                },
                {
                    "name": "E4",
                    "midi": 64,
                    "time": 158.6035600000016,
                    "velocity": 0.4881889763779528,
                    "duration": 0.22443899999998962
                },
                {
                    "name": "F#3",
                    "midi": 54,
                    "time": 158.6035600000016,
                    "velocity": 0.4094488188976378,
                    "duration": 0.22443899999998962
                },
                {
                    "name": "A3",
                    "midi": 57,
                    "time": 158.6035600000016,
                    "velocity": 0.4094488188976378,
                    "duration": 0.22443899999998962
                },
                {
                    "name": "E4",
                    "midi": 64,
                    "time": 158.8279990000016,
                    "velocity": 0.4330708661417323,
                    "duration": 0.06857858333333411
                },
                {
                    "name": "E3",
                    "midi": 52,
                    "time": 158.8279990000016,
                    "velocity": 0.36220472440944884,
                    "duration": 0.06857858333333411
                },
                {
                    "name": "B3",
                    "midi": 59,
                    "time": 158.8279990000016,
                    "velocity": 0.36220472440944884,
                    "duration": 0.06857858333333411
                },
                {
                    "name": "G#3",
                    "midi": 56,
                    "time": 158.8279990000016,
                    "velocity": 0.36220472440944884,
                    "duration": 0.06857858333333411
                },
                {
                    "name": "G#3",
                    "midi": 56,
                    "time": 158.9028120000016,
                    "velocity": 0.4015748031496063,
                    "duration": 0.07481300000000601
                },
                {
                    "name": "B3",
                    "midi": 59,
                    "time": 158.9028120000016,
                    "velocity": 0.4015748031496063,
                    "duration": 0.07481300000000601
                },
                {
                    "name": "E4",
                    "midi": 64,
                    "time": 158.9028120000016,
                    "velocity": 0.48031496062992124,
                    "duration": 0.07481300000000601
                },
                {
                    "name": "E3",
                    "midi": 52,
                    "time": 158.9028120000016,
                    "velocity": 0.4015748031496063,
                    "duration": 0.07481300000000601
                },
                {
                    "name": "E3",
                    "midi": 52,
                    "time": 159.2020640000016,
                    "velocity": 0.4409448818897638,
                    "duration": 0.29925199999999563
                },
                {
                    "name": "E2",
                    "midi": 40,
                    "time": 159.2020640000016,
                    "velocity": 0.3700787401574803,
                    "duration": 0.29925199999999563
                },
                {
                    "name": "B2",
                    "midi": 47,
                    "time": 159.2020640000016,
                    "velocity": 0.3700787401574803,
                    "duration": 0.29925199999999563
                },
                {
                    "name": "E2",
                    "midi": 40,
                    "time": 159.5013160000016,
                    "velocity": 0.3700787401574803,
                    "duration": 0.44887800000000766
                },
                {
                    "name": "E3",
                    "midi": 52,
                    "time": 159.5013160000016,
                    "velocity": 0.4409448818897638,
                    "duration": 0.44887800000000766
                },
                {
                    "name": "C#3",
                    "midi": 49,
                    "time": 159.5013160000016,
                    "velocity": 0.3700787401574803,
                    "duration": 0.44887800000000766
                },
                {
                    "name": "E2",
                    "midi": 40,
                    "time": 159.9501940000016,
                    "velocity": 0.36220472440944884,
                    "duration": 0.21820458333334614
                },
                {
                    "name": "E3",
                    "midi": 52,
                    "time": 159.9501940000016,
                    "velocity": 0.4330708661417323,
                    "duration": 0.21820458333334614
                },
                {
                    "name": "A2",
                    "midi": 45,
                    "time": 159.9501940000016,
                    "velocity": 0.36220472440944884,
                    "duration": 0.21820458333334614
                },
                {
                    "name": "E2",
                    "midi": 40,
                    "time": 160.17463300000162,
                    "velocity": 0.3228346456692913,
                    "duration": 0.07481300000000601
                },
                {
                    "name": "E3",
                    "midi": 52,
                    "time": 160.17463300000162,
                    "velocity": 0.3858267716535433,
                    "duration": 0.07481300000000601
                },
                {
                    "name": "B2",
                    "midi": 47,
                    "time": 160.17463300000162,
                    "velocity": 0.3228346456692913,
                    "duration": 0.07481300000000601
                },
                {
                    "name": "E2",
                    "midi": 40,
                    "time": 160.24944600000163,
                    "velocity": 0.47244094488188976,
                    "duration": 0.07481300000000601
                },
                {
                    "name": "B2",
                    "midi": 47,
                    "time": 160.39907200000164,
                    "velocity": 0.3858267716535433,
                    "duration": 0.07481300000000601
                },
                {
                    "name": "E3",
                    "midi": 52,
                    "time": 160.54869800000165,
                    "velocity": 0.3858267716535433,
                    "duration": 0.07481300000000601
                },
                {
                    "name": "E1",
                    "midi": 28,
                    "time": 160.69832400000166,
                    "velocity": 0.4409448818897638,
                    "duration": 0.07481300000000601
                },
                {
                    "name": "B1",
                    "midi": 35,
                    "time": 160.84795000000167,
                    "velocity": 0.3464566929133858,
                    "duration": 0.07481300000000601
                },
                {
                    "name": "E2",
                    "midi": 40,
                    "time": 160.9975760000017,
                    "velocity": 0.3464566929133858,
                    "duration": 0.07481300000000601
                },
                {
                    "name": "E1",
                    "midi": 28,
                    "time": 161.1472020000017,
                    "velocity": 0.4409448818897638,
                    "duration": 0.07481300000000601
                },
                {
                    "name": "B1",
                    "midi": 35,
                    "time": 161.2968280000017,
                    "velocity": 0.36220472440944884,
                    "duration": 0.07481300000000601
                },
                {
                    "name": "E2",
                    "midi": 40,
                    "time": 161.44645400000172,
                    "velocity": 0.36220472440944884,
                    "duration": 0.07481300000000601
                },
                {
                    "name": "E1",
                    "midi": 28,
                    "time": 161.59608000000173,
                    "velocity": 0.4409448818897638,
                    "duration": 0.07481300000000601
                },
                {
                    "name": "B1",
                    "midi": 35,
                    "time": 161.74570600000175,
                    "velocity": 0.3464566929133858,
                    "duration": 0.07481300000000601
                },
                {
                    "name": "E2",
                    "midi": 40,
                    "time": 161.89533200000176,
                    "velocity": 0.3464566929133858,
                    "duration": 0.07481300000000601
                },
                {
                    "name": "E1",
                    "midi": 28,
                    "time": 162.04495800000177,
                    "velocity": 0.4409448818897638,
                    "duration": 0.07481300000000601
                },
                {
                    "name": "B1",
                    "midi": 35,
                    "time": 162.19458400000178,
                    "velocity": 0.36220472440944884,
                    "duration": 0.07481300000000601
                },
                {
                    "name": "E2",
                    "midi": 40,
                    "time": 162.3442100000018,
                    "velocity": 0.36220472440944884,
                    "duration": 0.07481300000000601
                },
                {
                    "name": "E1",
                    "midi": 28,
                    "time": 162.4938360000018,
                    "velocity": 0.4409448818897638,
                    "duration": 0.07481300000000601
                },
                {
                    "name": "A2",
                    "midi": 45,
                    "time": 162.9427140000018,
                    "velocity": 0.33070866141732286,
                    "duration": 0.44887800000000766
                },
                {
                    "name": "E3",
                    "midi": 52,
                    "time": 162.9427140000018,
                    "velocity": 0.3937007874015748,
                    "duration": 0.44887800000000766
                },
                {
                    "name": "C3",
                    "midi": 48,
                    "time": 163.39159200000182,
                    "velocity": 0.30708661417322836,
                    "duration": 0.29925199999999563
                },
                {
                    "name": "A3",
                    "midi": 57,
                    "time": 163.39159200000182,
                    "velocity": 0.36220472440944884,
                    "duration": 0.29925199999999563
                },
                {
                    "name": "E3",
                    "midi": 52,
                    "time": 163.69084400000182,
                    "velocity": 0.3228346456692913,
                    "duration": 0.14962600000001203
                },
                {
                    "name": "B3",
                    "midi": 59,
                    "time": 163.69084400000182,
                    "velocity": 0.3858267716535433,
                    "duration": 0.14962600000001203
                },
                {
                    "name": "C4",
                    "midi": 60,
                    "time": 163.84047000000183,
                    "velocity": 0.3543307086614173,
                    "duration": 0.44887800000000766
                },
                {
                    "name": "E4",
                    "midi": 64,
                    "time": 163.84047000000183,
                    "velocity": 0.41732283464566927,
                    "duration": 0.44887800000000766
                },
                {
                    "name": "A3",
                    "midi": 57,
                    "time": 164.28934800000184,
                    "velocity": 0.3228346456692913,
                    "duration": 0.29925199999999563
                },
                {
                    "name": "C4",
                    "midi": 60,
                    "time": 164.28934800000184,
                    "velocity": 0.3858267716535433,
                    "duration": 0.29925199999999563
                },
                {
                    "name": "E3",
                    "midi": 52,
                    "time": 164.58860000000183,
                    "velocity": 0.3858267716535433,
                    "duration": 0.14339158333334012
                },
                {
                    "name": "A2",
                    "midi": 45,
                    "time": 164.73822600000184,
                    "velocity": 0.33070866141732286,
                    "duration": 0.44887800000000766
                },
                {
                    "name": "E3",
                    "midi": 52,
                    "time": 164.73822600000184,
                    "velocity": 0.3937007874015748,
                    "duration": 0.44887800000000766
                },
                {
                    "name": "C3",
                    "midi": 48,
                    "time": 165.18710400000185,
                    "velocity": 0.30708661417322836,
                    "duration": 0.29925199999999563
                },
                {
                    "name": "A3",
                    "midi": 57,
                    "time": 165.18710400000185,
                    "velocity": 0.36220472440944884,
                    "duration": 0.29925199999999563
                },
                {
                    "name": "E3",
                    "midi": 52,
                    "time": 165.48635600000185,
                    "velocity": 0.3228346456692913,
                    "duration": 0.14962600000001203
                },
                {
                    "name": "B3",
                    "midi": 59,
                    "time": 165.48635600000185,
                    "velocity": 0.3858267716535433,
                    "duration": 0.14962600000001203
                },
                {
                    "name": "C4",
                    "midi": 60,
                    "time": 165.63598200000186,
                    "velocity": 0.3543307086614173,
                    "duration": 0.7418955833333314
                },
                {
                    "name": "E4",
                    "midi": 64,
                    "time": 165.63598200000186,
                    "velocity": 0.41732283464566927,
                    "duration": 0.7418955833333314
                },
                {
                    "name": "A3",
                    "midi": 57,
                    "time": 166.38411200000186,
                    "velocity": 0.3228346456692913,
                    "duration": 0.14962600000001203
                },
                {
                    "name": "C4",
                    "midi": 60,
                    "time": 166.38411200000186,
                    "velocity": 0.3858267716535433,
                    "duration": 0.14962600000001203
                },
                {
                    "name": "G2",
                    "midi": 43,
                    "time": 166.53373800000188,
                    "velocity": 0.3543307086614173,
                    "duration": 0.44887800000000766
                },
                {
                    "name": "G3",
                    "midi": 55,
                    "time": 166.53373800000188,
                    "velocity": 0.41732283464566927,
                    "duration": 0.44887800000000766
                },
                {
                    "name": "G3",
                    "midi": 55,
                    "time": 166.98261600000188,
                    "velocity": 0.41732283464566927,
                    "duration": 0.8915215833333718
                },
                {
                    "name": "F4",
                    "midi": 65,
                    "time": 167.1322420000019,
                    "velocity": 0.3937007874015748,
                    "duration": 0.11221950000000902
                },
                {
                    "name": "D4",
                    "midi": 62,
                    "time": 167.1322420000019,
                    "velocity": 0.33070866141732286,
                    "duration": 0.11221950000000902
                },
                {
                    "name": "E4",
                    "midi": 64,
                    "time": 167.2818680000019,
                    "velocity": 0.3543307086614173,
                    "duration": 0.11221950000000902
                },
                {
                    "name": "C4",
                    "midi": 60,
                    "time": 167.2818680000019,
                    "velocity": 0.2992125984251969,
                    "duration": 0.11221950000000902
                },
                {
                    "name": "D4",
                    "midi": 62,
                    "time": 167.43149400000192,
                    "velocity": 0.41732283464566927,
                    "duration": 0.44887800000000766
                },
                {
                    "name": "B3",
                    "midi": 59,
                    "time": 167.43149400000192,
                    "velocity": 0.3543307086614173,
                    "duration": 0.44887800000000766
                },
                {
                    "name": "G3",
                    "midi": 55,
                    "time": 167.88037200000193,
                    "velocity": 0.44881889763779526,
                    "duration": 0.29301758333332373
                },
                {
                    "name": "G3",
                    "midi": 55,
                    "time": 168.17962400000192,
                    "velocity": 0.3858267716535433,
                    "duration": 0.14962600000001203
                },
                {
                    "name": "C3",
                    "midi": 48,
                    "time": 168.32925000000193,
                    "velocity": 0.3543307086614173,
                    "duration": 0.44887800000000766
                },
                {
                    "name": "C4",
                    "midi": 60,
                    "time": 168.32925000000193,
                    "velocity": 0.41732283464566927,
                    "duration": 0.44887800000000766
                },
                {
                    "name": "D3",
                    "midi": 50,
                    "time": 168.77812800000194,
                    "velocity": 0.3543307086614173,
                    "duration": 0.44887800000000766
                },
                {
                    "name": "D4",
                    "midi": 62,
                    "time": 168.77812800000194,
                    "velocity": 0.41732283464566927,
                    "duration": 0.44887800000000766
                },
                {
                    "name": "E3",
                    "midi": 52,
                    "time": 169.22700600000195,
                    "velocity": 0.3543307086614173,
                    "duration": 0.7418955833333314
                },
                {
                    "name": "E4",
                    "midi": 64,
                    "time": 169.22700600000195,
                    "velocity": 0.41732283464566927,
                    "duration": 0.7418955833333314
                },
                {
                    "name": "E3",
                    "midi": 52,
                    "time": 169.97513600000195,
                    "velocity": 0.4251968503937008,
                    "duration": 0.14962600000001203
                },
                {
                    "name": "A2",
                    "midi": 45,
                    "time": 170.12476200000197,
                    "velocity": 0.33070866141732286,
                    "duration": 0.44887800000000766
                },
                {
                    "name": "E3",
                    "midi": 52,
                    "time": 170.12476200000197,
                    "velocity": 0.3937007874015748,
                    "duration": 0.44887800000000766
                },
                {
                    "name": "C3",
                    "midi": 48,
                    "time": 170.57364000000197,
                    "velocity": 0.30708661417322836,
                    "duration": 0.29925199999999563
                },
                {
                    "name": "A3",
                    "midi": 57,
                    "time": 170.57364000000197,
                    "velocity": 0.36220472440944884,
                    "duration": 0.29925199999999563
                },
                {
                    "name": "E3",
                    "midi": 52,
                    "time": 170.87289200000197,
                    "velocity": 0.3228346456692913,
                    "duration": 0.14962600000001203
                },
                {
                    "name": "B3",
                    "midi": 59,
                    "time": 170.87289200000197,
                    "velocity": 0.3858267716535433,
                    "duration": 0.14962600000001203
                },
                {
                    "name": "C#4",
                    "midi": 61,
                    "time": 171.02251800000198,
                    "velocity": 0.3543307086614173,
                    "duration": 0.44887800000000766
                },
                {
                    "name": "E4",
                    "midi": 64,
                    "time": 171.02251800000198,
                    "velocity": 0.41732283464566927,
                    "duration": 0.44887800000000766
                },
                {
                    "name": "C#4",
                    "midi": 61,
                    "time": 171.471396000002,
                    "velocity": 0.3858267716535433,
                    "duration": 0.29301758333332373
                },
                {
                    "name": "A3",
                    "midi": 57,
                    "time": 171.471396000002,
                    "velocity": 0.3228346456692913,
                    "duration": 0.29301758333332373
                },
                {
                    "name": "A3",
                    "midi": 57,
                    "time": 171.77064800000198,
                    "velocity": 0.3858267716535433,
                    "duration": 0.14962600000001203
                },
                {
                    "name": "A2",
                    "midi": 45,
                    "time": 171.77064800000198,
                    "velocity": 0.3228346456692913,
                    "duration": 0.14962600000001203
                },
                {
                    "name": "G#2",
                    "midi": 44,
                    "time": 171.920274000002,
                    "velocity": 0.3543307086614173,
                    "duration": 0.44887800000000766
                },
                {
                    "name": "G#3",
                    "midi": 56,
                    "time": 171.920274000002,
                    "velocity": 0.41732283464566927,
                    "duration": 0.44264358333333576
                },
                {
                    "name": "G#3",
                    "midi": 56,
                    "time": 172.369152000002,
                    "velocity": 0.41732283464566927,
                    "duration": 0.8915215833333718
                },
                {
                    "name": "D#4",
                    "midi": 63,
                    "time": 172.51877800000202,
                    "velocity": 0.33070866141732286,
                    "duration": 0.11221950000000902
                },
                {
                    "name": "F#4",
                    "midi": 66,
                    "time": 172.51877800000202,
                    "velocity": 0.3937007874015748,
                    "duration": 0.11221950000000902
                },
                {
                    "name": "C#4",
                    "midi": 61,
                    "time": 172.66840400000203,
                    "velocity": 0.2992125984251969,
                    "duration": 0.11221950000000902
                },
                {
                    "name": "E4",
                    "midi": 64,
                    "time": 172.66840400000203,
                    "velocity": 0.3543307086614173,
                    "duration": 0.11221950000000902
                },
                {
                    "name": "C4",
                    "midi": 60,
                    "time": 172.81803000000204,
                    "velocity": 0.3543307086614173,
                    "duration": 0.44887800000000766
                },
                {
                    "name": "D#4",
                    "midi": 63,
                    "time": 172.81803000000204,
                    "velocity": 0.41732283464566927,
                    "duration": 0.44887800000000766
                },
                {
                    "name": "G#3",
                    "midi": 56,
                    "time": 173.26690800000205,
                    "velocity": 0.44881889763779526,
                    "duration": 0.29301758333332373
                },
                {
                    "name": "D#4",
                    "midi": 63,
                    "time": 173.56616000000204,
                    "velocity": 0.4409448818897638,
                    "duration": 0.14339158333334012
                },
                {
                    "name": "G#3",
                    "midi": 56,
                    "time": 173.71578600000205,
                    "velocity": 0.33070866141732286,
                    "duration": 0.439526375000014
                },
                {
                    "name": "B3",
                    "midi": 59,
                    "time": 173.71578600000205,
                    "velocity": 0.33070866141732286,
                    "duration": 0.439526375000014
                },
                {
                    "name": "D#4",
                    "midi": 63,
                    "time": 173.71578600000205,
                    "velocity": 0.3937007874015748,
                    "duration": 0.439526375000014
                },
                {
                    "name": "G#3",
                    "midi": 56,
                    "time": 174.16466400000206,
                    "velocity": 0.30708661417322836,
                    "duration": 0.44887800000000766
                },
                {
                    "name": "E4",
                    "midi": 64,
                    "time": 174.16466400000206,
                    "velocity": 0.36220472440944884,
                    "duration": 0.29301758333332373
                },
                {
                    "name": "B3",
                    "midi": 59,
                    "time": 174.16466400000206,
                    "velocity": 0.30708661417322836,
                    "duration": 0.44887800000000766
                },
                {
                    "name": "E4",
                    "midi": 64,
                    "time": 174.46391600000206,
                    "velocity": 0.3858267716535433,
                    "duration": 0.14339158333334012
                },
                {
                    "name": "C4",
                    "midi": 60,
                    "time": 174.61354200000207,
                    "velocity": 0.3543307086614173,
                    "duration": 0.40523708333333275
                },
                {
                    "name": "E4",
                    "midi": 64,
                    "time": 174.61354200000207,
                    "velocity": 0.41732283464566927,
                    "duration": 0.40523708333333275
                },
                {
                    "name": "A3",
                    "midi": 57,
                    "time": 174.61354200000207,
                    "velocity": 0.3543307086614173,
                    "duration": 0.40523708333333275
                },
                {
                    "name": "D3",
                    "midi": 50,
                    "time": 175.02501350000207,
                    "velocity": 0.36220472440944884,
                    "duration": 0.4862845000000391
                },
                {
                    "name": "A3",
                    "midi": 57,
                    "time": 175.03748233333542,
                    "velocity": 0.3700787401574803,
                    "duration": 0.4738156666666953
                },
                {
                    "name": "C4",
                    "midi": 60,
                    "time": 175.04995116666876,
                    "velocity": 0.3858267716535433,
                    "duration": 0.46134683333335147
                },
                {
                    "name": "G4",
                    "midi": 67,
                    "time": 175.0624200000021,
                    "velocity": 0.3937007874015748,
                    "duration": 0.29301758333332373
                },
                {
                    "name": "F4",
                    "midi": 65,
                    "time": 175.3616720000021,
                    "velocity": 0.3858267716535433,
                    "duration": 0.14962600000001203
                },
                {
                    "name": "C4",
                    "midi": 60,
                    "time": 175.5112980000021,
                    "velocity": 0.33070866141732286,
                    "duration": 0.44887800000000766
                },
                {
                    "name": "E4",
                    "midi": 64,
                    "time": 175.5112980000021,
                    "velocity": 0.3937007874015748,
                    "duration": 0.44887800000000766
                },
                {
                    "name": "G3",
                    "midi": 55,
                    "time": 175.5112980000021,
                    "velocity": 0.33070866141732286,
                    "duration": 0.44887800000000766
                },
                {
                    "name": "F3",
                    "midi": 53,
                    "time": 175.96017600000212,
                    "velocity": 0.25984251968503935,
                    "duration": 0.44887800000000766
                },
                {
                    "name": "D4",
                    "midi": 62,
                    "time": 175.96017600000212,
                    "velocity": 0.30708661417322836,
                    "duration": 0.29301758333332373
                },
                {
                    "name": "A3",
                    "midi": 57,
                    "time": 175.96017600000212,
                    "velocity": 0.25984251968503935,
                    "duration": 0.44887800000000766
                },
                {
                    "name": "D4",
                    "midi": 62,
                    "time": 176.25942800000212,
                    "velocity": 0.30708661417322836,
                    "duration": 0.14962600000001203
                },
                {
                    "name": "B3",
                    "midi": 59,
                    "time": 176.40905400000213,
                    "velocity": 0.2755905511811024,
                    "duration": 0.7481300000000033
                },
                {
                    "name": "E4",
                    "midi": 64,
                    "time": 176.40905400000213,
                    "velocity": 0.3228346456692913,
                    "duration": 0.7481300000000033
                },
                {
                    "name": "E3",
                    "midi": 52,
                    "time": 176.40905400000213,
                    "velocity": 0.2755905511811024,
                    "duration": 0.7481300000000033
                },
                {
                    "name": "C2",
                    "midi": 36,
                    "time": 177.30681000000214,
                    "velocity": 0.2755905511811024,
                    "duration": 0.44887800000000766
                },
                {
                    "name": "F2",
                    "midi": 41,
                    "time": 177.75568800000215,
                    "velocity": 0.2204724409448819,
                    "duration": 0.44887800000000766
                },
                {
                    "name": "A2",
                    "midi": 45,
                    "time": 178.20456600000216,
                    "velocity": 0.28346456692913385,
                    "duration": 0.44887800000000766
                },
                {
                    "name": "B2",
                    "midi": 47,
                    "time": 178.65344400000217,
                    "velocity": 0.23622047244094488,
                    "duration": 0.44887800000000766
                },
                {
                    "name": "E2",
                    "midi": 40,
                    "time": 179.10232200000218,
                    "velocity": 0.28346456692913385,
                    "duration": 0.14962600000001203
                },
                {
                    "name": "F3",
                    "midi": 53,
                    "time": 179.2519480000022,
                    "velocity": 0.2125984251968504,
                    "duration": 0.14962600000001203
                },
                {
                    "name": "E3",
                    "midi": 52,
                    "time": 179.4015740000022,
                    "velocity": 0.2125984251968504,
                    "duration": 0.14339158333334012
                },
                {
                    "name": "E3",
                    "midi": 52,
                    "time": 179.5512000000022,
                    "velocity": 0.29133858267716534,
                    "duration": 0.11221950000000902
                },
                {
                    "name": "E3",
                    "midi": 52,
                    "time": 179.70082600000222,
                    "velocity": 0.2125984251968504,
                    "duration": 0.11221950000000902
                },
                {
                    "name": "E3",
                    "midi": 52,
                    "time": 179.85045200000224,
                    "velocity": 0.2125984251968504,
                    "duration": 0.11221950000000902
                },
                {
                    "name": "E3",
                    "midi": 52,
                    "time": 180.00007800000225,
                    "velocity": 0.29133858267716534,
                    "duration": 0.11221950000000902
                },
                {
                    "name": "E3",
                    "midi": 52,
                    "time": 180.14970400000226,
                    "velocity": 0.2204724409448819,
                    "duration": 0.11221950000000902
                },
                {
                    "name": "E3",
                    "midi": 52,
                    "time": 180.29933000000227,
                    "velocity": 0.2204724409448819,
                    "duration": 0.11221950000000902
                },
                {
                    "name": "E2",
                    "midi": 40,
                    "time": 180.44895600000228,
                    "velocity": 0.28346456692913385,
                    "duration": 0.14962600000001203
                },
                {
                    "name": "F3",
                    "midi": 53,
                    "time": 180.5985820000023,
                    "velocity": 0.2125984251968504,
                    "duration": 0.14962600000001203
                },
                {
                    "name": "E3",
                    "midi": 52,
                    "time": 180.7482080000023,
                    "velocity": 0.2125984251968504,
                    "duration": 0.14339158333334012
                },
                {
                    "name": "E3",
                    "midi": 52,
                    "time": 180.89783400000232,
                    "velocity": 0.29133858267716534,
                    "duration": 0.11221950000000902
                },
                {
                    "name": "E3",
                    "midi": 52,
                    "time": 181.04746000000233,
                    "velocity": 0.2125984251968504,
                    "duration": 0.11221950000000902
                },
                {
                    "name": "E3",
                    "midi": 52,
                    "time": 181.19708600000234,
                    "velocity": 0.2125984251968504,
                    "duration": 0.11221950000000902
                },
                {
                    "name": "E3",
                    "midi": 52,
                    "time": 181.34671200000236,
                    "velocity": 0.29133858267716534,
                    "duration": 0.11221950000000902
                },
                {
                    "name": "E3",
                    "midi": 52,
                    "time": 181.49633800000237,
                    "velocity": 0.2204724409448819,
                    "duration": 0.11221950000000902
                },
                {
                    "name": "E3",
                    "midi": 52,
                    "time": 181.64596400000238,
                    "velocity": 0.2204724409448819,
                    "duration": 0.11221950000000902
                },
                {
                    "name": "D2",
                    "midi": 38,
                    "time": 181.7955900000024,
                    "velocity": 0.28346456692913385,
                    "duration": 0.14962600000001203
                },
                {
                    "name": "E3",
                    "midi": 52,
                    "time": 181.9452160000024,
                    "velocity": 0.2125984251968504,
                    "duration": 0.14962600000001203
                },
                {
                    "name": "D3",
                    "midi": 50,
                    "time": 182.09484200000242,
                    "velocity": 0.2125984251968504,
                    "duration": 0.14339158333334012
                },
                {
                    "name": "D3",
                    "midi": 50,
                    "time": 182.24446800000243,
                    "velocity": 0.29133858267716534,
                    "duration": 0.11221950000000902
                },
                {
                    "name": "D3",
                    "midi": 50,
                    "time": 182.39409400000244,
                    "velocity": 0.2125984251968504,
                    "duration": 0.11221950000000902
                },
                {
                    "name": "D3",
                    "midi": 50,
                    "time": 182.54372000000245,
                    "velocity": 0.2125984251968504,
                    "duration": 0.11221950000000902
                },
                {
                    "name": "D3",
                    "midi": 50,
                    "time": 182.69334600000246,
                    "velocity": 0.29133858267716534,
                    "duration": 0.11221950000000902
                },
                {
                    "name": "D3",
                    "midi": 50,
                    "time": 182.84297200000248,
                    "velocity": 0.2204724409448819,
                    "duration": 0.11221950000000902
                },
                {
                    "name": "D3",
                    "midi": 50,
                    "time": 182.9925980000025,
                    "velocity": 0.2204724409448819,
                    "duration": 0.11221950000000902
                },
                {
                    "name": "E2",
                    "midi": 40,
                    "time": 183.1422240000025,
                    "velocity": 0.28346456692913385,
                    "duration": 0.14962600000001203
                },
                {
                    "name": "F3",
                    "midi": 53,
                    "time": 183.2918500000025,
                    "velocity": 0.2125984251968504,
                    "duration": 0.14962600000001203
                },
                {
                    "name": "E3",
                    "midi": 52,
                    "time": 183.44147600000252,
                    "velocity": 0.2125984251968504,
                    "duration": 0.14339158333334012
                },
                {
                    "name": "E3",
                    "midi": 52,
                    "time": 183.59110200000254,
                    "velocity": 0.29133858267716534,
                    "duration": 0.11221950000000902
                },
                {
                    "name": "E3",
                    "midi": 52,
                    "time": 183.74072800000255,
                    "velocity": 0.2125984251968504,
                    "duration": 0.11221950000000902
                },
                {
                    "name": "E3",
                    "midi": 52,
                    "time": 183.89035400000256,
                    "velocity": 0.2125984251968504,
                    "duration": 0.11221950000000902
                },
                {
                    "name": "E3",
                    "midi": 52,
                    "time": 184.03998000000257,
                    "velocity": 0.29133858267716534,
                    "duration": 0.11221950000000902
                },
                {
                    "name": "E3",
                    "midi": 52,
                    "time": 184.18960600000258,
                    "velocity": 0.2204724409448819,
                    "duration": 0.11221950000000902
                },
                {
                    "name": "E3",
                    "midi": 52,
                    "time": 184.3392320000026,
                    "velocity": 0.2204724409448819,
                    "duration": 0.11221950000000902
                },
                {
                    "name": "A2",
                    "midi": 45,
                    "time": 184.4888580000026,
                    "velocity": 0.28346456692913385,
                    "duration": 0.14962600000001203
                },
                {
                    "name": "F3",
                    "midi": 53,
                    "time": 184.63848400000262,
                    "velocity": 0.2125984251968504,
                    "duration": 0.14962600000001203
                },
                {
                    "name": "E3",
                    "midi": 52,
                    "time": 184.78811000000263,
                    "velocity": 0.2125984251968504,
                    "duration": 0.14339158333334012
                },
                {
                    "name": "E3",
                    "midi": 52,
                    "time": 184.93773600000264,
                    "velocity": 0.29133858267716534,
                    "duration": 0.11221950000000902
                },
                {
                    "name": "E3",
                    "midi": 52,
                    "time": 185.08736200000266,
                    "velocity": 0.2125984251968504,
                    "duration": 0.11221950000000902
                },
                {
                    "name": "E3",
                    "midi": 52,
                    "time": 185.23698800000267,
                    "velocity": 0.2125984251968504,
                    "duration": 0.11221950000000902
                },
                {
                    "name": "E3",
                    "midi": 52,
                    "time": 185.38661400000268,
                    "velocity": 0.29133858267716534,
                    "duration": 0.11221950000000902
                },
                {
                    "name": "E3",
                    "midi": 52,
                    "time": 185.5362400000027,
                    "velocity": 0.2204724409448819,
                    "duration": 0.11221950000000902
                },
                {
                    "name": "E3",
                    "midi": 52,
                    "time": 185.6858660000027,
                    "velocity": 0.2204724409448819,
                    "duration": 0.11221950000000902
                },
                {
                    "name": "D2",
                    "midi": 38,
                    "time": 185.8167887500027,
                    "velocity": 0.28346456692913385,
                    "duration": 0.16832924999999932
                },
                {
                    "name": "D3",
                    "midi": 50,
                    "time": 185.8354920000027,
                    "velocity": 0.33858267716535434,
                    "duration": 0.14962600000001203
                },
                {
                    "name": "F3",
                    "midi": 53,
                    "time": 185.9851180000027,
                    "velocity": 0.2125984251968504,
                    "duration": 0.14962600000001203
                },
                {
                    "name": "A3",
                    "midi": 57,
                    "time": 186.1347440000027,
                    "velocity": 0.2125984251968504,
                    "duration": 0.14339158333334012
                },
                {
                    "name": "D4",
                    "midi": 62,
                    "time": 186.28437000000272,
                    "velocity": 0.29133858267716534,
                    "duration": 0.14962600000001203
                },
                {
                    "name": "A3",
                    "midi": 57,
                    "time": 186.43399600000274,
                    "velocity": 0.2125984251968504,
                    "duration": 0.14962600000001203
                },
                {
                    "name": "F3",
                    "midi": 53,
                    "time": 186.58362200000275,
                    "velocity": 0.2125984251968504,
                    "duration": 0.14962600000001203
                },
                {
                    "name": "D4",
                    "midi": 62,
                    "time": 186.73324800000276,
                    "velocity": 0.29133858267716534,
                    "duration": 0.14962600000001203
                },
                {
                    "name": "A#3",
                    "midi": 58,
                    "time": 186.88287400000277,
                    "velocity": 0.2204724409448819,
                    "duration": 0.14962600000001203
                },
                {
                    "name": "F3",
                    "midi": 53,
                    "time": 187.03250000000278,
                    "velocity": 0.2204724409448819,
                    "duration": 0.11221950000000902
                },
                {
                    "name": "E3",
                    "midi": 52,
                    "time": 187.1821260000028,
                    "velocity": 0.33858267716535434,
                    "duration": 0.14962600000001203
                },
                {
                    "name": "G3",
                    "midi": 55,
                    "time": 187.3317520000028,
                    "velocity": 0.2125984251968504,
                    "duration": 0.14962600000001203
                },
                {
                    "name": "A#3",
                    "midi": 58,
                    "time": 187.48137800000282,
                    "velocity": 0.2125984251968504,
                    "duration": 0.14339158333334012
                },
                {
                    "name": "C4",
                    "midi": 60,
                    "time": 187.63100400000283,
                    "velocity": 0.29133858267716534,
                    "duration": 0.14962600000001203
                },
                {
                    "name": "A#3",
                    "midi": 58,
                    "time": 187.78063000000284,
                    "velocity": 0.2125984251968504,
                    "duration": 0.14962600000001203
                },
                {
                    "name": "G3",
                    "midi": 55,
                    "time": 187.93025600000286,
                    "velocity": 0.2125984251968504,
                    "duration": 0.14962600000001203
                },
                {
                    "name": "D3",
                    "midi": 50,
                    "time": 188.07988200000287,
                    "velocity": 0.29133858267716534,
                    "duration": 0.14962600000001203
                },
                {
                    "name": "G3",
                    "midi": 55,
                    "time": 188.22950800000288,
                    "velocity": 0.2204724409448819,
                    "duration": 0.14962600000001203
                },
                {
                    "name": "A#3",
                    "midi": 58,
                    "time": 188.3791340000029,
                    "velocity": 0.2204724409448819,
                    "duration": 0.14962600000001203
                },
                {
                    "name": "C3",
                    "midi": 48,
                    "time": 188.5287600000029,
                    "velocity": 0.2677165354330709,
                    "duration": 0.8977560000000722
                },
                {
                    "name": "G3",
                    "midi": 55,
                    "time": 188.67838600000292,
                    "velocity": 0.1889763779527559,
                    "duration": 0.14962600000001203
                },
                {
                    "name": "A#3",
                    "midi": 58,
                    "time": 188.82801200000293,
                    "velocity": 0.1889763779527559,
                    "duration": 0.14339158333334012
                },
                {
                    "name": "C4",
                    "midi": 60,
                    "time": 188.97763800000294,
                    "velocity": 0.25196850393700787,
                    "duration": 0.14962600000001203
                },
                {
                    "name": "A#3",
                    "midi": 58,
                    "time": 189.12726400000295,
                    "velocity": 0.2047244094488189,
                    "duration": 0.14962600000001203
                },
                {
                    "name": "G3",
                    "midi": 55,
                    "time": 189.27689000000296,
                    "velocity": 0.2047244094488189,
                    "duration": 0.14962600000001203
                },
                {
                    "name": "C4",
                    "midi": 60,
                    "time": 189.42651600000298,
                    "velocity": 0.2755905511811024,
                    "duration": 0.14962600000001203
                },
                {
                    "name": "G3",
                    "midi": 55,
                    "time": 189.576142000003,
                    "velocity": 0.1968503937007874,
                    "duration": 0.14962600000001203
                },
                {
                    "name": "E3",
                    "midi": 52,
                    "time": 189.725768000003,
                    "velocity": 0.1968503937007874,
                    "duration": 0.14962600000001203
                },
                {
                    "name": "B2",
                    "midi": 47,
                    "time": 189.875394000003,
                    "velocity": 0.2677165354330709,
                    "duration": 0.8977560000000722
                },
                {
                    "name": "E3",
                    "midi": 52,
                    "time": 190.02502000000302,
                    "velocity": 0.1889763779527559,
                    "duration": 0.14962600000001203
                },
                {
                    "name": "G3",
                    "midi": 55,
                    "time": 190.17464600000304,
                    "velocity": 0.1889763779527559,
                    "duration": 0.14339158333334012
                },
                {
                    "name": "B3",
                    "midi": 59,
                    "time": 190.32427200000305,
                    "velocity": 0.25196850393700787,
                    "duration": 0.14962600000001203
                },
                {
                    "name": "G3",
                    "midi": 55,
                    "time": 190.47389800000306,
                    "velocity": 0.2047244094488189,
                    "duration": 0.14962600000001203
                },
                {
                    "name": "E3",
                    "midi": 52,
                    "time": 190.62352400000307,
                    "velocity": 0.2047244094488189,
                    "duration": 0.14962600000001203
                },
                {
                    "name": "B3",
                    "midi": 59,
                    "time": 190.77315000000308,
                    "velocity": 0.2755905511811024,
                    "duration": 0.14962600000001203
                },
                {
                    "name": "G3",
                    "midi": 55,
                    "time": 190.9227760000031,
                    "velocity": 0.2440944881889764,
                    "duration": 0.14962600000001203
                },
                {
                    "name": "E3",
                    "midi": 52,
                    "time": 191.0724020000031,
                    "velocity": 0.25984251968503935,
                    "duration": 0.14962600000001203
                },
                {
                    "name": "B2",
                    "midi": 47,
                    "time": 191.22202800000312,
                    "velocity": 0.3228346456692913,
                    "duration": 0.8977560000000722
                },
                {
                    "name": "F#3",
                    "midi": 54,
                    "time": 191.37165400000313,
                    "velocity": 0.2440944881889764,
                    "duration": 0.14962600000001203
                },
                {
                    "name": "A3",
                    "midi": 57,
                    "time": 191.52128000000315,
                    "velocity": 0.2440944881889764,
                    "duration": 0.14339158333334012
                },
                {
                    "name": "B3",
                    "midi": 59,
                    "time": 191.67090600000316,
                    "velocity": 0.2992125984251969,
                    "duration": 0.14962600000001203
                },
                {
                    "name": "A3",
                    "midi": 57,
                    "time": 191.82053200000317,
                    "velocity": 0.2047244094488189,
                    "duration": 0.14962600000001203
                },
                {
                    "name": "F#3",
                    "midi": 54,
                    "time": 191.97015800000318,
                    "velocity": 0.2047244094488189,
                    "duration": 0.14962600000001203
                },
                {
                    "name": "B3",
                    "midi": 59,
                    "time": 192.1197840000032,
                    "velocity": 0.33070866141732286,
                    "duration": 0.14962600000001203
                },
                {
                    "name": "F#3",
                    "midi": 54,
                    "time": 192.2694100000032,
                    "velocity": 0.2677165354330709,
                    "duration": 0.14962600000001203
                },
                {
                    "name": "D#3",
                    "midi": 51,
                    "time": 192.41903600000322,
                    "velocity": 0.2677165354330709,
                    "duration": 0.14962600000001203
                },
                {
                    "name": "C3",
                    "midi": 48,
                    "time": 192.56866200000323,
                    "velocity": 0.3700787401574803,
                    "duration": 0.8977560000000722
                },
                {
                    "name": "G3",
                    "midi": 55,
                    "time": 192.71828800000324,
                    "velocity": 0.23622047244094488,
                    "duration": 0.14962600000001203
                },
                {
                    "name": "A#3",
                    "midi": 58,
                    "time": 192.86791400000325,
                    "velocity": 0.23622047244094488,
                    "duration": 0.14339158333334012
                },
                {
                    "name": "C4",
                    "midi": 60,
                    "time": 193.01754000000327,
                    "velocity": 0.3543307086614173,
                    "duration": 0.14962600000001203
                },
                {
                    "name": "A#3",
                    "midi": 58,
                    "time": 193.16716600000328,
                    "velocity": 0.2755905511811024,
                    "duration": 0.14962600000001203
                },
                {
                    "name": "G3",
                    "midi": 55,
                    "time": 193.3167920000033,
                    "velocity": 0.33858267716535434,
                    "duration": 0.14962600000001203
                },
                {
                    "name": "C4",
                    "midi": 60,
                    "time": 193.4664180000033,
                    "velocity": 0.4251968503937008,
                    "duration": 0.14962600000001203
                },
                {
                    "name": "G3",
                    "midi": 55,
                    "time": 193.6160440000033,
                    "velocity": 0.33858267716535434,
                    "duration": 0.14962600000001203
                },
                {
                    "name": "E3",
                    "midi": 52,
                    "time": 193.76567000000333,
                    "velocity": 0.33858267716535434,
                    "duration": 0.14962600000001203
                },
                {
                    "name": "B2",
                    "midi": 47,
                    "time": 193.91529600000334,
                    "velocity": 0.41732283464566927,
                    "duration": 0.4488780000000361
                },
                {
                    "name": "E3",
                    "midi": 52,
                    "time": 194.06492200000335,
                    "velocity": 0.33858267716535434,
                    "duration": 0.14962600000001203
                },
                {
                    "name": "G3",
                    "midi": 55,
                    "time": 194.21454800000336,
                    "velocity": 0.33858267716535434,
                    "duration": 0.14962600000001203
                },
                {
                    "name": "B3",
                    "midi": 59,
                    "time": 194.36417400000337,
                    "velocity": 0.4330708661417323,
                    "duration": 0.14962600000001203
                },
                {
                    "name": "B3",
                    "midi": 59,
                    "time": 194.77564550000338,
                    "velocity": 0.3779527559055118,
                    "duration": 0.48628449999998224
                },
                {
                    "name": "G4",
                    "midi": 67,
                    "time": 194.79434875000337,
                    "velocity": 0.3779527559055118,
                    "duration": 0.46758124999999495
                },
                {
                    "name": "E5",
                    "midi": 76,
                    "time": 194.81305200000335,
                    "velocity": 0.3779527559055118,
                    "duration": 0.44887800000000766
                },
                {
                    "name": "D#5",
                    "midi": 75,
                    "time": 195.26193000000336,
                    "velocity": 0.3779527559055118,
                    "duration": 0.37406500000000165
                },
                {
                    "name": "B3",
                    "midi": 59,
                    "time": 195.26193000000336,
                    "velocity": 0.3779527559055118,
                    "duration": 1.346634000000023
                },
                {
                    "name": "F#4",
                    "midi": 66,
                    "time": 195.26193000000336,
                    "velocity": 0.3779527559055118,
                    "duration": 1.346634000000023
                },
                {
                    "name": "A4",
                    "midi": 69,
                    "time": 195.26193000000336,
                    "velocity": 0.3779527559055118,
                    "duration": 1.346634000000023
                },
                {
                    "name": "E5",
                    "midi": 76,
                    "time": 195.63599500000336,
                    "velocity": 0.3779527559055118,
                    "duration": 0.03740650000000301
                },
                {
                    "name": "D#5",
                    "midi": 75,
                    "time": 195.67340150000337,
                    "velocity": 0.3779527559055118,
                    "duration": 0.03740650000000301
                },
                {
                    "name": "C#5",
                    "midi": 73,
                    "time": 195.71080800000337,
                    "velocity": 0.3779527559055118,
                    "duration": 0.44887800000000766
                },
                {
                    "name": "D#5",
                    "midi": 75,
                    "time": 196.15968600000338,
                    "velocity": 0.3779527559055118,
                    "duration": 0.44887800000000766
                },
                {
                    "name": "E3",
                    "midi": 52,
                    "time": 196.60856400000338,
                    "velocity": 0.3779527559055118,
                    "duration": 0.14962600000001203
                },
                {
                    "name": "F4",
                    "midi": 65,
                    "time": 196.7581900000034,
                    "velocity": 0.4330708661417323,
                    "duration": 0.14962600000001203
                },
                {
                    "name": "E4",
                    "midi": 64,
                    "time": 196.9078160000034,
                    "velocity": 0.3779527559055118,
                    "duration": 0.14962600000001203
                },
                {
                    "name": "F3",
                    "midi": 53,
                    "time": 197.05744200000342,
                    "velocity": 0.4251968503937008,
                    "duration": 0.14962600000001203
                },
                {
                    "name": "E3",
                    "midi": 52,
                    "time": 197.20706800000343,
                    "velocity": 0.3779527559055118,
                    "duration": 0.14962600000001203
                },
                {
                    "name": "F2",
                    "midi": 41,
                    "time": 197.35669400000344,
                    "velocity": 0.48031496062992124,
                    "duration": 0.14962600000001203
                },
                {
                    "name": "E2",
                    "midi": 40,
                    "time": 197.50632000000346,
                    "velocity": 0.4330708661417323,
                    "duration": 0.14339158333334012
                },
                {
                    "name": "E2",
                    "midi": 40,
                    "time": 197.65594600000347,
                    "velocity": 0.3779527559055118,
                    "duration": 0.07481300000000601
                },
                {
                    "name": "E2",
                    "midi": 40,
                    "time": 197.80557200000348,
                    "velocity": 0.3700787401574803,
                    "duration": 0.07481300000000601
                },
                {
                    "name": "E2",
                    "midi": 40,
                    "time": 197.9551980000035,
                    "velocity": 0.3937007874015748,
                    "duration": 0.44887800000000766
                },
                {
                    "name": "A1",
                    "midi": 33,
                    "time": 197.9551980000035,
                    "velocity": 0.33070866141732286,
                    "duration": 0.44887800000000766
                },
                {
                    "name": "A2",
                    "midi": 45,
                    "time": 198.4040760000035,
                    "velocity": 0.36220472440944884,
                    "duration": 0.29925199999999563
                },
                {
                    "name": "C2",
                    "midi": 36,
                    "time": 198.4040760000035,
                    "velocity": 0.30708661417322836,
                    "duration": 0.29925199999999563
                },
                {
                    "name": "B2",
                    "midi": 47,
                    "time": 198.7033280000035,
                    "velocity": 0.3858267716535433,
                    "duration": 0.14962600000001203
                },
                {
                    "name": "E2",
                    "midi": 40,
                    "time": 198.7033280000035,
                    "velocity": 0.3228346456692913,
                    "duration": 0.14962600000001203
                },
                {
                    "name": "E3",
                    "midi": 52,
                    "time": 198.8529540000035,
                    "velocity": 0.41732283464566927,
                    "duration": 0.44887800000000766
                },
                {
                    "name": "C3",
                    "midi": 48,
                    "time": 198.8529540000035,
                    "velocity": 0.3543307086614173,
                    "duration": 0.44264358333333576
                },
                {
                    "name": "C3",
                    "midi": 48,
                    "time": 199.30183200000351,
                    "velocity": 0.3858267716535433,
                    "duration": 0.29925199999999563
                },
                {
                    "name": "A2",
                    "midi": 45,
                    "time": 199.30183200000351,
                    "velocity": 0.3228346456692913,
                    "duration": 0.29925199999999563
                },
                {
                    "name": "E2",
                    "midi": 40,
                    "time": 199.6010840000035,
                    "velocity": 0.3858267716535433,
                    "duration": 0.14339158333334012
                },
                {
                    "name": "A1",
                    "midi": 33,
                    "time": 199.6010840000035,
                    "velocity": 0.33070866141732286,
                    "duration": 0.14339158333334012
                },
                {
                    "name": "A1",
                    "midi": 33,
                    "time": 199.75071000000352,
                    "velocity": 0.33070866141732286,
                    "duration": 0.44887800000000766
                },
                {
                    "name": "E2",
                    "midi": 40,
                    "time": 199.75071000000352,
                    "velocity": 0.3937007874015748,
                    "duration": 0.44887800000000766
                },
                {
                    "name": "C2",
                    "midi": 36,
                    "time": 200.19958800000353,
                    "velocity": 0.30708661417322836,
                    "duration": 0.29925199999999563
                },
                {
                    "name": "A2",
                    "midi": 45,
                    "time": 200.19958800000353,
                    "velocity": 0.36220472440944884,
                    "duration": 0.29925199999999563
                },
                {
                    "name": "E2",
                    "midi": 40,
                    "time": 200.49884000000353,
                    "velocity": 0.3228346456692913,
                    "duration": 0.14962600000001203
                },
                {
                    "name": "B2",
                    "midi": 47,
                    "time": 200.49884000000353,
                    "velocity": 0.3858267716535433,
                    "duration": 0.14962600000001203
                },
                {
                    "name": "C3",
                    "midi": 48,
                    "time": 200.64846600000354,
                    "velocity": 0.3543307086614173,
                    "duration": 0.44264358333333576
                },
                {
                    "name": "E3",
                    "midi": 52,
                    "time": 200.64846600000354,
                    "velocity": 0.41732283464566927,
                    "duration": 0.44887800000000766
                },
                {
                    "name": "A2",
                    "midi": 45,
                    "time": 201.09734400000355,
                    "velocity": 0.41732283464566927,
                    "duration": 0.29301758333332373
                },
                {
                    "name": "C3",
                    "midi": 48,
                    "time": 201.09734400000355,
                    "velocity": 0.41732283464566927,
                    "duration": 0.29301758333332373
                },
                {
                    "name": "C3",
                    "midi": 48,
                    "time": 201.39659600000354,
                    "velocity": 0.3228346456692913,
                    "duration": 0.14962600000001203
                },
                {
                    "name": "E3",
                    "midi": 52,
                    "time": 201.39659600000354,
                    "velocity": 0.3858267716535433,
                    "duration": 0.14962600000001203
                },
                {
                    "name": "G3",
                    "midi": 55,
                    "time": 201.54622200000355,
                    "velocity": 0.3937007874015748,
                    "duration": 0.5985039999999913
                },
                {
                    "name": "E3",
                    "midi": 52,
                    "time": 201.54622200000355,
                    "velocity": 0.33070866141732286,
                    "duration": 0.5985039999999913
                },
                {
                    "name": "G2",
                    "midi": 43,
                    "time": 201.54622200000355,
                    "velocity": 0.3858267716535433,
                    "duration": 0.8977560000000153
                },
                {
                    "name": "F3",
                    "midi": 53,
                    "time": 202.14472600000354,
                    "velocity": 0.3858267716535433,
                    "duration": 0.11221950000000902
                },
                {
                    "name": "D3",
                    "midi": 50,
                    "time": 202.14472600000354,
                    "velocity": 0.3858267716535433,
                    "duration": 0.11221950000000902
                },
                {
                    "name": "E3",
                    "midi": 52,
                    "time": 202.29435200000356,
                    "velocity": 0.3858267716535433,
                    "duration": 0.11221950000000902
                },
                {
                    "name": "C3",
                    "midi": 48,
                    "time": 202.29435200000356,
                    "velocity": 0.3228346456692913,
                    "duration": 0.11221950000000902
                },
                {
                    "name": "D3",
                    "midi": 50,
                    "time": 202.44397800000357,
                    "velocity": 0.41732283464566927,
                    "duration": 0.7418955833333314
                },
                {
                    "name": "G2",
                    "midi": 43,
                    "time": 202.44397800000357,
                    "velocity": 0.3543307086614173,
                    "duration": 0.7418955833333314
                },
                {
                    "name": "D3",
                    "midi": 50,
                    "time": 203.19210800000357,
                    "velocity": 0.3858267716535433,
                    "duration": 0.14339158333334012
                },
                {
                    "name": "G2",
                    "midi": 43,
                    "time": 203.19210800000357,
                    "velocity": 0.33070866141732286,
                    "duration": 0.14339158333334012
                },
                {
                    "name": "C3",
                    "midi": 48,
                    "time": 203.34173400000358,
                    "velocity": 0.33070866141732286,
                    "duration": 0.5985039999999913
                },
                {
                    "name": "E2",
                    "midi": 40,
                    "time": 203.34173400000358,
                    "velocity": 0.3858267716535433,
                    "duration": 0.8977560000000153
                },
                {
                    "name": "E3",
                    "midi": 52,
                    "time": 203.34173400000358,
                    "velocity": 0.3937007874015748,
                    "duration": 0.5985039999999913
                },
                {
                    "name": "B2",
                    "midi": 47,
                    "time": 203.94023800000357,
                    "velocity": 0.3858267716535433,
                    "duration": 0.11221950000000902
                },
                {
                    "name": "D3",
                    "midi": 50,
                    "time": 203.94023800000357,
                    "velocity": 0.3858267716535433,
                    "duration": 0.11221950000000902
                },
                {
                    "name": "A2",
                    "midi": 45,
                    "time": 204.0898640000036,
                    "velocity": 0.3228346456692913,
                    "duration": 0.11221950000000902
                },
                {
                    "name": "C3",
                    "midi": 48,
                    "time": 204.0898640000036,
                    "velocity": 0.3858267716535433,
                    "duration": 0.11221950000000902
                },
                {
                    "name": "B2",
                    "midi": 47,
                    "time": 204.2394900000036,
                    "velocity": 0.41732283464566927,
                    "duration": 0.7418955833333314
                },
                {
                    "name": "E2",
                    "midi": 40,
                    "time": 204.2394900000036,
                    "velocity": 0.3543307086614173,
                    "duration": 0.7418955833333314
                },
                {
                    "name": "E2",
                    "midi": 40,
                    "time": 204.9876200000036,
                    "velocity": 0.3700787401574803,
                    "duration": 0.14962600000001203
                },
                {
                    "name": "E2",
                    "midi": 40,
                    "time": 205.1372460000036,
                    "velocity": 0.3937007874015748,
                    "duration": 0.44887800000000766
                },
                {
                    "name": "A1",
                    "midi": 33,
                    "time": 205.1372460000036,
                    "velocity": 0.33070866141732286,
                    "duration": 0.44887800000000766
                },
                {
                    "name": "C#2",
                    "midi": 37,
                    "time": 205.58612400000362,
                    "velocity": 0.30708661417322836,
                    "duration": 0.29925199999999563
                },
                {
                    "name": "A2",
                    "midi": 45,
                    "time": 205.58612400000362,
                    "velocity": 0.36220472440944884,
                    "duration": 0.29925199999999563
                },
                {
                    "name": "E2",
                    "midi": 40,
                    "time": 205.88537600000362,
                    "velocity": 0.3228346456692913,
                    "duration": 0.14962600000001203
                },
                {
                    "name": "B2",
                    "midi": 47,
                    "time": 205.88537600000362,
                    "velocity": 0.3858267716535433,
                    "duration": 0.14962600000001203
                },
                {
                    "name": "C#3",
                    "midi": 49,
                    "time": 206.03500200000363,
                    "velocity": 0.3543307086614173,
                    "duration": 0.44264358333333576
                },
                {
                    "name": "E3",
                    "midi": 52,
                    "time": 206.03500200000363,
                    "velocity": 0.41732283464566927,
                    "duration": 0.44887800000000766
                },
                {
                    "name": "A2",
                    "midi": 45,
                    "time": 206.48388000000364,
                    "velocity": 0.3228346456692913,
                    "duration": 0.29301758333332373
                },
                {
                    "name": "C#3",
                    "midi": 49,
                    "time": 206.48388000000364,
                    "velocity": 0.3858267716535433,
                    "duration": 0.29925199999999563
                },
                {
                    "name": "A1",
                    "midi": 33,
                    "time": 206.78313200000363,
                    "velocity": 0.33070866141732286,
                    "duration": 0.14339158333334012
                },
                {
                    "name": "A2",
                    "midi": 45,
                    "time": 206.78313200000363,
                    "velocity": 0.3858267716535433,
                    "duration": 0.14339158333334012
                },
                {
                    "name": "G#1",
                    "midi": 32,
                    "time": 206.93275800000364,
                    "velocity": 0.33070866141732286,
                    "duration": 0.44887800000000766
                },
                {
                    "name": "G#2",
                    "midi": 44,
                    "time": 206.93275800000364,
                    "velocity": 0.3937007874015748,
                    "duration": 0.44887800000000766
                },
                {
                    "name": "G#3",
                    "midi": 56,
                    "time": 207.38163600000365,
                    "velocity": 0.36220472440944884,
                    "duration": 0.8977560000000437
                },
                {
                    "name": "D#4",
                    "midi": 63,
                    "time": 207.53126200000366,
                    "velocity": 0.3228346456692913,
                    "duration": 0.11221950000000902
                },
                {
                    "name": "F#4",
                    "midi": 66,
                    "time": 207.53126200000366,
                    "velocity": 0.3858267716535433,
                    "duration": 0.11221950000000902
                },
                {
                    "name": "E4",
                    "midi": 64,
                    "time": 207.68088800000368,
                    "velocity": 0.3858267716535433,
                    "duration": 0.11221950000000902
                },
                {
                    "name": "C#4",
                    "midi": 61,
                    "time": 207.68088800000368,
                    "velocity": 0.3228346456692913,
                    "duration": 0.11221950000000902
                },
                {
                    "name": "D#4",
                    "midi": 63,
                    "time": 207.8305140000037,
                    "velocity": 0.41732283464566927,
                    "duration": 0.7418955833333314
                },
                {
                    "name": "C4",
                    "midi": 60,
                    "time": 207.8305140000037,
                    "velocity": 0.3543307086614173,
                    "duration": 0.7418955833333314
                },
                {
                    "name": "G#3",
                    "midi": 56,
                    "time": 208.2793920000037,
                    "velocity": 0.41732283464566927,
                    "duration": 0.29301758333332373
                },
                {
                    "name": "D#4",
                    "midi": 63,
                    "time": 208.5786440000037,
                    "velocity": 0.3464566929133858,
                    "duration": 0.14962600000001203
                },
                {
                    "name": "B3",
                    "midi": 59,
                    "time": 208.7282700000037,
                    "velocity": 0.3858267716535433,
                    "duration": 0.8977560000000153
                },
                {
                    "name": "D#4",
                    "midi": 63,
                    "time": 208.7282700000037,
                    "velocity": 0.3858267716535433,
                    "duration": 0.44887800000000766
                },
                {
                    "name": "G#3",
                    "midi": 56,
                    "time": 208.7282700000037,
                    "velocity": 0.33858267716535434,
                    "duration": 0.8977560000000153
                },
                {
                    "name": "E4",
                    "midi": 64,
                    "time": 209.1771480000037,
                    "velocity": 0.3779527559055118,
                    "duration": 0.29301758333332373
                },
                {
                    "name": "E4",
                    "midi": 64,
                    "time": 209.4764000000037,
                    "velocity": 0.36220472440944884,
                    "duration": 0.14339158333334012
                },
                {
                    "name": "A3",
                    "midi": 57,
                    "time": 209.62602600000372,
                    "velocity": 0.3543307086614173,
                    "duration": 0.8977560000000153
                },
                {
                    "name": "E4",
                    "midi": 64,
                    "time": 209.62602600000372,
                    "velocity": 0.4094488188976378,
                    "duration": 0.44887800000000766
                },
                {
                    "name": "C4",
                    "midi": 60,
                    "time": 209.62602600000372,
                    "velocity": 0.4094488188976378,
                    "duration": 0.8977560000000153
                },
                {
                    "name": "F4",
                    "midi": 65,
                    "time": 210.07490400000373,
                    "velocity": 0.4015748031496063,
                    "duration": 0.29301758333332373
                },
                {
                    "name": "F4",
                    "midi": 65,
                    "time": 210.37415600000372,
                    "velocity": 0.3779527559055118,
                    "duration": 0.14339158333334012
                },
                {
                    "name": "F4",
                    "midi": 65,
                    "time": 210.52378200000373,
                    "velocity": 0.4094488188976378,
                    "duration": 0.38653383333334546
                },
                {
                    "name": "D4",
                    "midi": 62,
                    "time": 210.52378200000373,
                    "velocity": 0.3464566929133858,
                    "duration": 0.38653383333334546
                },
                {
                    "name": "B3",
                    "midi": 59,
                    "time": 210.52378200000373,
                    "velocity": 0.3464566929133858,
                    "duration": 0.38653383333334546
                },
                {
                    "name": "B2",
                    "midi": 47,
                    "time": 210.91655025000375,
                    "velocity": 0.33070866141732286,
                    "duration": 0.5049877499999695
                },
                {
                    "name": "F3",
                    "midi": 53,
                    "time": 210.93525350000374,
                    "velocity": 0.33070866141732286,
                    "duration": 0.48628449999998224
                },
                {
                    "name": "G3",
                    "midi": 55,
                    "time": 210.95395675000373,
                    "velocity": 0.33070866141732286,
                    "duration": 0.46758124999999495
                },
                {
                    "name": "D4",
                    "midi": 62,
                    "time": 210.9726600000037,
                    "velocity": 0.3937007874015748,
                    "duration": 0.44887800000000766
                },
                {
                    "name": "C3",
                    "midi": 48,
                    "time": 211.42153800000372,
                    "velocity": 0.3543307086614173,
                    "duration": 0.44887800000000766
                },
                {
                    "name": "A3",
                    "midi": 57,
                    "time": 211.42153800000372,
                    "velocity": 0.3543307086614173,
                    "duration": 0.44887800000000766
                },
                {
                    "name": "C4",
                    "midi": 60,
                    "time": 211.42153800000372,
                    "velocity": 0.41732283464566927,
                    "duration": 0.44887800000000766
                },
                {
                    "name": "F3",
                    "midi": 53,
                    "time": 211.42153800000372,
                    "velocity": 0.3543307086614173,
                    "duration": 0.44887800000000766
                },
                {
                    "name": "G3",
                    "midi": 55,
                    "time": 211.87041600000373,
                    "velocity": 0.33070866141732286,
                    "duration": 0.29925199999999563
                },
                {
                    "name": "C3",
                    "midi": 48,
                    "time": 211.87041600000373,
                    "velocity": 0.33070866141732286,
                    "duration": 0.29301758333332373
                },
                {
                    "name": "C4",
                    "midi": 60,
                    "time": 211.87041600000373,
                    "velocity": 0.3937007874015748,
                    "duration": 0.29925199999999563
                },
                {
                    "name": "C3",
                    "midi": 48,
                    "time": 212.16966800000372,
                    "velocity": 0.3937007874015748,
                    "duration": 0.14339158333334012
                },
                {
                    "name": "C3",
                    "midi": 48,
                    "time": 212.31929400000374,
                    "velocity": 0.41732283464566927,
                    "duration": 0.44887800000000766
                },
                {
                    "name": "F2",
                    "midi": 41,
                    "time": 212.31929400000374,
                    "velocity": 0.3543307086614173,
                    "duration": 0.44887800000000766
                },
                {
                    "name": "F3",
                    "midi": 53,
                    "time": 212.76817200000374,
                    "velocity": 0.4330708661417323,
                    "duration": 0.29925199999999563
                },
                {
                    "name": "A2",
                    "midi": 45,
                    "time": 212.76817200000374,
                    "velocity": 0.36220472440944884,
                    "duration": 0.29925199999999563
                },
                {
                    "name": "G3",
                    "midi": 55,
                    "time": 213.06742400000374,
                    "velocity": 0.4409448818897638,
                    "duration": 0.14962600000001203
                },
                {
                    "name": "C3",
                    "midi": 48,
                    "time": 213.06742400000374,
                    "velocity": 0.3700787401574803,
                    "duration": 0.14962600000001203
                },
                {
                    "name": "F3",
                    "midi": 53,
                    "time": 213.21705000000375,
                    "velocity": 0.4094488188976378,
                    "duration": 0.44887800000000766
                },
                {
                    "name": "A3",
                    "midi": 57,
                    "time": 213.21705000000375,
                    "velocity": 0.4881889763779528,
                    "duration": 0.44887800000000766
                },
                {
                    "name": "F3",
                    "midi": 53,
                    "time": 213.66592800000376,
                    "velocity": 0.41732283464566927,
                    "duration": 0.29925199999999563
                },
                {
                    "name": "C#3",
                    "midi": 49,
                    "time": 213.66592800000376,
                    "velocity": 0.3543307086614173,
                    "duration": 0.29925199999999563
                },
                {
                    "name": "A2",
                    "midi": 45,
                    "time": 213.66592800000376,
                    "velocity": 0.3543307086614173,
                    "duration": 0.29925199999999563
                },
                {
                    "name": "A#2",
                    "midi": 46,
                    "time": 214.11480600000377,
                    "velocity": 0.3779527559055118,
                    "duration": 0.44887800000000766
                },
                {
                    "name": "C#3",
                    "midi": 49,
                    "time": 214.11480600000377,
                    "velocity": 0.44881889763779526,
                    "duration": 0.44887800000000766
                },
                {
                    "name": "A#2",
                    "midi": 46,
                    "time": 214.56368400000378,
                    "velocity": 0.3543307086614173,
                    "duration": 0.14962600000001203
                },
                {
                    "name": "F#3",
                    "midi": 54,
                    "time": 214.56368400000378,
                    "velocity": 0.41732283464566927,
                    "duration": 0.14962600000001203
                },
                {
                    "name": "C#3",
                    "midi": 49,
                    "time": 214.7133100000038,
                    "velocity": 0.31496062992125984,
                    "duration": 0.14962600000001203
                },
                {
                    "name": "A#3",
                    "midi": 58,
                    "time": 214.7133100000038,
                    "velocity": 0.3779527559055118,
                    "duration": 0.14962600000001203
                },
                {
                    "name": "F#3",
                    "midi": 54,
                    "time": 214.8629360000038,
                    "velocity": 0.33070866141732286,
                    "duration": 0.14962600000001203
                },
                {
                    "name": "C#4",
                    "midi": 61,
                    "time": 214.8629360000038,
                    "velocity": 0.3937007874015748,
                    "duration": 0.14962600000001203
                },
                {
                    "name": "D4",
                    "midi": 62,
                    "time": 215.0125620000038,
                    "velocity": 0.4881889763779528,
                    "duration": 0.44887800000000766
                },
                {
                    "name": "B3",
                    "midi": 59,
                    "time": 215.0125620000038,
                    "velocity": 0.4094488188976378,
                    "duration": 0.44887800000000766
                },
                {
                    "name": "B2",
                    "midi": 47,
                    "time": 215.46144000000382,
                    "velocity": 0.3700787401574803,
                    "duration": 0.14962600000001203
                },
                {
                    "name": "G3",
                    "midi": 55,
                    "time": 215.46144000000382,
                    "velocity": 0.4330708661417323,
                    "duration": 0.14962600000001203
                },
                {
                    "name": "D3",
                    "midi": 50,
                    "time": 215.61106600000383,
                    "velocity": 0.3228346456692913,
                    "duration": 0.14962600000001203
                },
                {
                    "name": "B3",
                    "midi": 59,
                    "time": 215.61106600000383,
                    "velocity": 0.3858267716535433,
                    "duration": 0.14962600000001203
                },
                {
                    "name": "D4",
                    "midi": 62,
                    "time": 215.76069200000384,
                    "velocity": 0.4015748031496063,
                    "duration": 0.14962600000001203
                },
                {
                    "name": "G3",
                    "midi": 55,
                    "time": 215.76069200000384,
                    "velocity": 0.33070866141732286,
                    "duration": 0.14962600000001203
                },
                {
                    "name": "C4",
                    "midi": 60,
                    "time": 215.91031800000385,
                    "velocity": 0.3464566929133858,
                    "duration": 0.38653383333334546
                },
                {
                    "name": "E4",
                    "midi": 64,
                    "time": 215.91031800000385,
                    "velocity": 0.4094488188976378,
                    "duration": 0.38653383333334546
                },
                {
                    "name": "C3",
                    "midi": 48,
                    "time": 216.30308625000387,
                    "velocity": 0.33070866141732286,
                    "duration": 0.5049877499999695
                },
                {
                    "name": "G3",
                    "midi": 55,
                    "time": 216.32178950000386,
                    "velocity": 0.33070866141732286,
                    "duration": 0.48628449999998224
                },
                {
                    "name": "A3",
                    "midi": 57,
                    "time": 216.34049275000385,
                    "velocity": 0.33070866141732286,
                    "duration": 0.46758124999999495
                },
                {
                    "name": "E4",
                    "midi": 64,
                    "time": 216.35919600000383,
                    "velocity": 0.3937007874015748,
                    "duration": 0.44887800000000766
                },
                {
                    "name": "B3",
                    "midi": 59,
                    "time": 216.80807400000384,
                    "velocity": 0.3543307086614173,
                    "duration": 0.44887800000000766
                },
                {
                    "name": "D3",
                    "midi": 50,
                    "time": 216.80807400000384,
                    "velocity": 0.3543307086614173,
                    "duration": 0.44887800000000766
                },
                {
                    "name": "D4",
                    "midi": 62,
                    "time": 216.80807400000384,
                    "velocity": 0.41732283464566927,
                    "duration": 0.44887800000000766
                },
                {
                    "name": "G3",
                    "midi": 55,
                    "time": 216.80807400000384,
                    "velocity": 0.3543307086614173,
                    "duration": 0.44887800000000766
                },
                {
                    "name": "D3",
                    "midi": 50,
                    "time": 217.25695200000385,
                    "velocity": 0.33070866141732286,
                    "duration": 0.29301758333332373
                },
                {
                    "name": "D4",
                    "midi": 62,
                    "time": 217.25695200000385,
                    "velocity": 0.3937007874015748,
                    "duration": 0.29925199999999563
                },
                {
                    "name": "A3",
                    "midi": 57,
                    "time": 217.25695200000385,
                    "velocity": 0.33070866141732286,
                    "duration": 0.29925199999999563
                },
                {
                    "name": "D3",
                    "midi": 50,
                    "time": 217.55620400000385,
                    "velocity": 0.3937007874015748,
                    "duration": 0.14339158333334012
                },
                {
                    "name": "D3",
                    "midi": 50,
                    "time": 217.70583000000386,
                    "velocity": 0.41732283464566927,
                    "duration": 0.44887800000000766
                },
                {
                    "name": "G2",
                    "midi": 43,
                    "time": 217.70583000000386,
                    "velocity": 0.3543307086614173,
                    "duration": 0.44887800000000766
                },
                {
                    "name": "B2",
                    "midi": 47,
                    "time": 218.15470800000386,
                    "velocity": 0.36220472440944884,
                    "duration": 0.29925199999999563
                },
                {
                    "name": "G3",
                    "midi": 55,
                    "time": 218.15470800000386,
                    "velocity": 0.4330708661417323,
                    "duration": 0.29925199999999563
                },
                {
                    "name": "D3",
                    "midi": 50,
                    "time": 218.45396000000386,
                    "velocity": 0.3700787401574803,
                    "duration": 0.14962600000001203
                },
                {
                    "name": "A3",
                    "midi": 57,
                    "time": 218.45396000000386,
                    "velocity": 0.4409448818897638,
                    "duration": 0.14962600000001203
                },
                {
                    "name": "G3",
                    "midi": 55,
                    "time": 218.60358600000387,
                    "velocity": 0.4094488188976378,
                    "duration": 0.44887800000000766
                },
                {
                    "name": "B3",
                    "midi": 59,
                    "time": 218.60358600000387,
                    "velocity": 0.4881889763779528,
                    "duration": 0.44887800000000766
                },
                {
                    "name": "B2",
                    "midi": 47,
                    "time": 219.05246400000388,
                    "velocity": 0.3543307086614173,
                    "duration": 0.14962600000001203
                },
                {
                    "name": "D#3",
                    "midi": 51,
                    "time": 219.05246400000388,
                    "velocity": 0.3543307086614173,
                    "duration": 0.14962600000001203
                },
                {
                    "name": "G3",
                    "midi": 55,
                    "time": 219.05246400000388,
                    "velocity": 0.41732283464566927,
                    "duration": 0.14962600000001203
                },
                {
                    "name": "G2",
                    "midi": 43,
                    "time": 219.3517160000039,
                    "velocity": 0.3779527559055118,
                    "duration": 0.14962600000001203
                },
                {
                    "name": "D#3",
                    "midi": 51,
                    "time": 219.3517160000039,
                    "velocity": 0.44881889763779526,
                    "duration": 0.14339158333334012
                },
                {
                    "name": "F2",
                    "midi": 41,
                    "time": 219.50134200000392,
                    "velocity": 0.3779527559055118,
                    "duration": 0.44887800000000766
                },
                {
                    "name": "D3",
                    "midi": 50,
                    "time": 219.50134200000392,
                    "velocity": 0.44881889763779526,
                    "duration": 0.44887800000000766
                },
                {
                    "name": "G3",
                    "midi": 55,
                    "time": 219.95022000000392,
                    "velocity": 0.4330708661417323,
                    "duration": 0.29925199999999563
                },
                {
                    "name": "B2",
                    "midi": 47,
                    "time": 219.95022000000392,
                    "velocity": 0.36220472440944884,
                    "duration": 0.29925199999999563
                },
                {
                    "name": "A3",
                    "midi": 57,
                    "time": 220.24947200000392,
                    "velocity": 0.4409448818897638,
                    "duration": 0.14962600000001203
                },
                {
                    "name": "D3",
                    "midi": 50,
                    "time": 220.24947200000392,
                    "velocity": 0.3700787401574803,
                    "duration": 0.14962600000001203
                },
                {
                    "name": "B3",
                    "midi": 59,
                    "time": 220.39909800000393,
                    "velocity": 0.4881889763779528,
                    "duration": 0.44887800000000766
                },
                {
                    "name": "G3",
                    "midi": 55,
                    "time": 220.39909800000393,
                    "velocity": 0.4094488188976378,
                    "duration": 0.44887800000000766
                },
                {
                    "name": "D#3",
                    "midi": 51,
                    "time": 220.84797600000394,
                    "velocity": 0.3543307086614173,
                    "duration": 0.14962600000001203
                },
                {
                    "name": "B2",
                    "midi": 47,
                    "time": 220.84797600000394,
                    "velocity": 0.3543307086614173,
                    "duration": 0.14962600000001203
                },
                {
                    "name": "G3",
                    "midi": 55,
                    "time": 220.84797600000394,
                    "velocity": 0.41732283464566927,
                    "duration": 0.14962600000001203
                },
                {
                    "name": "F2",
                    "midi": 41,
                    "time": 221.14722800000396,
                    "velocity": 0.3779527559055118,
                    "duration": 0.14962600000001203
                },
                {
                    "name": "D#3",
                    "midi": 51,
                    "time": 221.14722800000396,
                    "velocity": 0.44881889763779526,
                    "duration": 0.14962600000001203
                },
                {
                    "name": "E2",
                    "midi": 40,
                    "time": 221.29685400000398,
                    "velocity": 0.3779527559055118,
                    "duration": 0.44887800000000766
                },
                {
                    "name": "D3",
                    "midi": 50,
                    "time": 221.29685400000398,
                    "velocity": 0.44881889763779526,
                    "duration": 0.44887800000000766
                },
                {
                    "name": "B2",
                    "midi": 47,
                    "time": 221.74573200000398,
                    "velocity": 0.36220472440944884,
                    "duration": 0.29925199999999563
                },
                {
                    "name": "G#3",
                    "midi": 56,
                    "time": 221.74573200000398,
                    "velocity": 0.4330708661417323,
                    "duration": 0.29925199999999563
                },
                {
                    "name": "D3",
                    "midi": 50,
                    "time": 222.04498400000398,
                    "velocity": 0.3700787401574803,
                    "duration": 0.14962600000001203
                },
                {
                    "name": "A3",
                    "midi": 57,
                    "time": 222.04498400000398,
                    "velocity": 0.4409448818897638,
                    "duration": 0.14962600000001203
                },
                {
                    "name": "G#3",
                    "midi": 56,
                    "time": 222.194610000004,
                    "velocity": 0.4094488188976378,
                    "duration": 0.8977559999999869
                },
                {
                    "name": "B3",
                    "midi": 59,
                    "time": 222.194610000004,
                    "velocity": 0.4881889763779528,
                    "duration": 0.8977559999999869
                },
                {
                    "name": "D3",
                    "midi": 50,
                    "time": 223.09236600000398,
                    "velocity": 0.44881889763779526,
                    "duration": 0.44887800000000766
                },
                {
                    "name": "E2",
                    "midi": 40,
                    "time": 223.09236600000398,
                    "velocity": 0.3779527559055118,
                    "duration": 0.44887800000000766
                },
                {
                    "name": "B2",
                    "midi": 47,
                    "time": 223.54124400000399,
                    "velocity": 0.36220472440944884,
                    "duration": 0.29925199999999563
                },
                {
                    "name": "G#3",
                    "midi": 56,
                    "time": 223.54124400000399,
                    "velocity": 0.4330708661417323,
                    "duration": 0.29925199999999563
                },
                {
                    "name": "D3",
                    "midi": 50,
                    "time": 223.84049600000398,
                    "velocity": 0.3700787401574803,
                    "duration": 0.14962600000001203
                },
                {
                    "name": "A3",
                    "midi": 57,
                    "time": 223.84049600000398,
                    "velocity": 0.4409448818897638,
                    "duration": 0.14962600000001203
                },
                {
                    "name": "G#3",
                    "midi": 56,
                    "time": 223.990122000004,
                    "velocity": 0.3464566929133858,
                    "duration": 0.8977559999999869
                },
                {
                    "name": "B3",
                    "midi": 59,
                    "time": 223.990122000004,
                    "velocity": 0.4881889763779528,
                    "duration": 0.8977559999999869
                },
                {
                    "name": "E2",
                    "midi": 40,
                    "time": 224.88787800000398,
                    "velocity": 0.29133858267716534,
                    "duration": 0.8977559999999869
                },
                {
                    "name": "D3",
                    "midi": 50,
                    "time": 224.88787800000398,
                    "velocity": 0.3464566929133858,
                    "duration": 0.8977559999999869
                },
                {
                    "name": "B2",
                    "midi": 47,
                    "time": 225.78563400000397,
                    "velocity": 0.25196850393700787,
                    "duration": 0.8977559999999869
                },
                {
                    "name": "G#3",
                    "midi": 56,
                    "time": 225.78563400000397,
                    "velocity": 0.2992125984251969,
                    "duration": 0.8977559999999869
                },
                {
                    "name": "E2",
                    "midi": 40,
                    "time": 226.68339000000395,
                    "velocity": 0.2204724409448819,
                    "duration": 1.6458859999999902
                },
                {
                    "name": "D3",
                    "midi": 50,
                    "time": 226.68339000000395,
                    "velocity": 0.25984251968503935,
                    "duration": 1.6458859999999902
                },
                {
                    "name": "F2",
                    "midi": 41,
                    "time": 228.47890200000396,
                    "velocity": 0.25196850393700787,
                    "duration": 0.07481300000000601
                },
                {
                    "name": "C3",
                    "midi": 48,
                    "time": 228.62852800000397,
                    "velocity": 0.2283464566929134,
                    "duration": 0.07481300000000601
                },
                {
                    "name": "C3",
                    "midi": 48,
                    "time": 228.77815400000398,
                    "velocity": 0.2283464566929134,
                    "duration": 0.07481300000000601
                },
                {
                    "name": "F2",
                    "midi": 41,
                    "time": 228.927780000004,
                    "velocity": 0.25984251968503935,
                    "duration": 0.07481300000000601
                },
                {
                    "name": "C3",
                    "midi": 48,
                    "time": 229.077406000004,
                    "velocity": 0.2047244094488189,
                    "duration": 0.07481300000000601
                },
                {
                    "name": "C3",
                    "midi": 48,
                    "time": 229.22703200000402,
                    "velocity": 0.2047244094488189,
                    "duration": 0.07481300000000601
                },
                {
                    "name": "F2",
                    "midi": 41,
                    "time": 229.37665800000403,
                    "velocity": 0.25984251968503935,
                    "duration": 0.07481300000000601
                },
                {
                    "name": "C3",
                    "midi": 48,
                    "time": 229.52628400000404,
                    "velocity": 0.2125984251968504,
                    "duration": 0.07481300000000601
                },
                {
                    "name": "C3",
                    "midi": 48,
                    "time": 229.67591000000405,
                    "velocity": 0.2125984251968504,
                    "duration": 0.07481300000000601
                },
                {
                    "name": "F2",
                    "midi": 41,
                    "time": 229.82553600000406,
                    "velocity": 0.28346456692913385,
                    "duration": 0.07481300000000601
                },
                {
                    "name": "C3",
                    "midi": 48,
                    "time": 229.97516200000408,
                    "velocity": 0.2283464566929134,
                    "duration": 0.07481300000000601
                },
                {
                    "name": "C3",
                    "midi": 48,
                    "time": 230.1247880000041,
                    "velocity": 0.2283464566929134,
                    "duration": 0.07481300000000601
                },
                {
                    "name": "F2",
                    "midi": 41,
                    "time": 230.2744140000041,
                    "velocity": 0.25984251968503935,
                    "duration": 0.07481300000000601
                },
                {
                    "name": "C3",
                    "midi": 48,
                    "time": 230.4240400000041,
                    "velocity": 0.2047244094488189,
                    "duration": 0.07481300000000601
                },
                {
                    "name": "C3",
                    "midi": 48,
                    "time": 230.57366600000412,
                    "velocity": 0.2047244094488189,
                    "duration": 0.07481300000000601
                },
                {
                    "name": "F2",
                    "midi": 41,
                    "time": 230.72329200000414,
                    "velocity": 0.25984251968503935,
                    "duration": 0.07481300000000601
                },
                {
                    "name": "C3",
                    "midi": 48,
                    "time": 230.87291800000415,
                    "velocity": 0.2125984251968504,
                    "duration": 0.07481300000000601
                },
                {
                    "name": "C3",
                    "midi": 48,
                    "time": 231.02254400000416,
                    "velocity": 0.2125984251968504,
                    "duration": 0.07481300000000601
                },
                {
                    "name": "F2",
                    "midi": 41,
                    "time": 231.17217000000417,
                    "velocity": 0.28346456692913385,
                    "duration": 0.07481300000000601
                },
                {
                    "name": "C3",
                    "midi": 48,
                    "time": 231.32179600000418,
                    "velocity": 0.2283464566929134,
                    "duration": 0.07481300000000601
                },
                {
                    "name": "C3",
                    "midi": 48,
                    "time": 231.4714220000042,
                    "velocity": 0.2283464566929134,
                    "duration": 0.07481300000000601
                },
                {
                    "name": "F2",
                    "midi": 41,
                    "time": 231.6210480000042,
                    "velocity": 0.25984251968503935,
                    "duration": 0.07481300000000601
                },
                {
                    "name": "C3",
                    "midi": 48,
                    "time": 231.77067400000422,
                    "velocity": 0.2047244094488189,
                    "duration": 0.07481300000000601
                },
                {
                    "name": "C3",
                    "midi": 48,
                    "time": 231.92030000000423,
                    "velocity": 0.2047244094488189,
                    "duration": 0.07481300000000601
                },
                {
                    "name": "F2",
                    "midi": 41,
                    "time": 232.06992600000424,
                    "velocity": 0.25984251968503935,
                    "duration": 0.07481300000000601
                },
                {
                    "name": "C3",
                    "midi": 48,
                    "time": 232.21955200000426,
                    "velocity": 0.2125984251968504,
                    "duration": 0.07481300000000601
                },
                {
                    "name": "C3",
                    "midi": 48,
                    "time": 232.36917800000427,
                    "velocity": 0.2125984251968504,
                    "duration": 0.07481300000000601
                },
                {
                    "name": "F2",
                    "midi": 41,
                    "time": 232.51880400000428,
                    "velocity": 0.25984251968503935,
                    "duration": 0.07481300000000601
                },
                {
                    "name": "C3",
                    "midi": 48,
                    "time": 232.6684300000043,
                    "velocity": 0.2125984251968504,
                    "duration": 0.07481300000000601
                },
                {
                    "name": "C3",
                    "midi": 48,
                    "time": 232.8180560000043,
                    "velocity": 0.2125984251968504,
                    "duration": 0.07481300000000601
                },
                {
                    "name": "F2",
                    "midi": 41,
                    "time": 232.96768200000432,
                    "velocity": 0.25984251968503935,
                    "duration": 0.07481300000000601
                },
                {
                    "name": "C3",
                    "midi": 48,
                    "time": 233.11730800000433,
                    "velocity": 0.2125984251968504,
                    "duration": 0.07481300000000601
                },
                {
                    "name": "C3",
                    "midi": 48,
                    "time": 233.26693400000434,
                    "velocity": 0.2125984251968504,
                    "duration": 0.07481300000000601
                },
                {
                    "name": "F2",
                    "midi": 41,
                    "time": 233.41656000000435,
                    "velocity": 0.28346456692913385,
                    "duration": 0.07481300000000601
                },
                {
                    "name": "C3",
                    "midi": 48,
                    "time": 233.56618600000436,
                    "velocity": 0.2440944881889764,
                    "duration": 0.07481300000000601
                },
                {
                    "name": "C3",
                    "midi": 48,
                    "time": 233.71581200000438,
                    "velocity": 0.25196850393700787,
                    "duration": 0.07481300000000601
                },
                {
                    "name": "E2",
                    "midi": 40,
                    "time": 233.8654380000044,
                    "velocity": 0.25196850393700787,
                    "duration": 0.07481300000000601
                },
                {
                    "name": "C#3",
                    "midi": 49,
                    "time": 234.0150640000044,
                    "velocity": 0.2283464566929134,
                    "duration": 0.07481300000000601
                },
                {
                    "name": "C#3",
                    "midi": 49,
                    "time": 234.1646900000044,
                    "velocity": 0.2283464566929134,
                    "duration": 0.07481300000000601
                },
                {
                    "name": "E2",
                    "midi": 40,
                    "time": 234.31431600000442,
                    "velocity": 0.25984251968503935,
                    "duration": 0.07481300000000601
                },
                {
                    "name": "C#3",
                    "midi": 49,
                    "time": 234.46394200000444,
                    "velocity": 0.2047244094488189,
                    "duration": 0.07481300000000601
                },
                {
                    "name": "C#3",
                    "midi": 49,
                    "time": 234.61356800000445,
                    "velocity": 0.2047244094488189,
                    "duration": 0.07481300000000601
                },
                {
                    "name": "E2",
                    "midi": 40,
                    "time": 234.76319400000446,
                    "velocity": 0.25984251968503935,
                    "duration": 0.07481300000000601
                },
                {
                    "name": "C#3",
                    "midi": 49,
                    "time": 234.91282000000447,
                    "velocity": 0.2125984251968504,
                    "duration": 0.07481300000000601
                },
                {
                    "name": "C#3",
                    "midi": 49,
                    "time": 235.06244600000448,
                    "velocity": 0.2125984251968504,
                    "duration": 0.07481300000000601
                },
                {
                    "name": "E2",
                    "midi": 40,
                    "time": 235.2120720000045,
                    "velocity": 0.28346456692913385,
                    "duration": 0.07481300000000601
                },
                {
                    "name": "C#3",
                    "midi": 49,
                    "time": 235.3616980000045,
                    "velocity": 0.2283464566929134,
                    "duration": 0.07481300000000601
                },
                {
                    "name": "C#3",
                    "midi": 49,
                    "time": 235.51132400000452,
                    "velocity": 0.2283464566929134,
                    "duration": 0.07481300000000601
                },
                {
                    "name": "E2",
                    "midi": 40,
                    "time": 235.66095000000453,
                    "velocity": 0.25984251968503935,
                    "duration": 0.07481300000000601
                },
                {
                    "name": "C#3",
                    "midi": 49,
                    "time": 235.81057600000454,
                    "velocity": 0.2047244094488189,
                    "duration": 0.07481300000000601
                },
                {
                    "name": "C#3",
                    "midi": 49,
                    "time": 235.96020200000456,
                    "velocity": 0.2047244094488189,
                    "duration": 0.07481300000000601
                },
                {
                    "name": "E2",
                    "midi": 40,
                    "time": 236.10982800000457,
                    "velocity": 0.25984251968503935,
                    "duration": 0.07481300000000601
                },
                {
                    "name": "C#3",
                    "midi": 49,
                    "time": 236.25945400000458,
                    "velocity": 0.2125984251968504,
                    "duration": 0.07481300000000601
                },
                {
                    "name": "C#3",
                    "midi": 49,
                    "time": 236.4090800000046,
                    "velocity": 0.2125984251968504,
                    "duration": 0.07481300000000601
                },
                {
                    "name": "D#2",
                    "midi": 39,
                    "time": 236.5587060000046,
                    "velocity": 0.28346456692913385,
                    "duration": 0.07481300000000601
                },
                {
                    "name": "C#3",
                    "midi": 49,
                    "time": 236.70833200000462,
                    "velocity": 0.2283464566929134,
                    "duration": 0.07481300000000601
                },
                {
                    "name": "C#3",
                    "midi": 49,
                    "time": 236.85795800000463,
                    "velocity": 0.2283464566929134,
                    "duration": 0.07481300000000601
                },
                {
                    "name": "D#2",
                    "midi": 39,
                    "time": 237.00758400000464,
                    "velocity": 0.25984251968503935,
                    "duration": 0.07481300000000601
                },
                {
                    "name": "C#3",
                    "midi": 49,
                    "time": 237.15721000000465,
                    "velocity": 0.2047244094488189,
                    "duration": 0.07481300000000601
                },
                {
                    "name": "C#3",
                    "midi": 49,
                    "time": 237.30683600000467,
                    "velocity": 0.2047244094488189,
                    "duration": 0.07481300000000601
                },
                {
                    "name": "D#2",
                    "midi": 39,
                    "time": 237.45646200000468,
                    "velocity": 0.25984251968503935,
                    "duration": 0.07481300000000601
                },
                {
                    "name": "C#3",
                    "midi": 49,
                    "time": 237.6060880000047,
                    "velocity": 0.2125984251968504,
                    "duration": 0.07481300000000601
                },
                {
                    "name": "C#3",
                    "midi": 49,
                    "time": 237.7557140000047,
                    "velocity": 0.2125984251968504,
                    "duration": 0.07481300000000601
                },
                {
                    "name": "D#2",
                    "midi": 39,
                    "time": 237.9053400000047,
                    "velocity": 0.25984251968503935,
                    "duration": 0.07481300000000601
                },
                {
                    "name": "C#3",
                    "midi": 49,
                    "time": 238.05496600000473,
                    "velocity": 0.2125984251968504,
                    "duration": 0.07481300000000601
                },
                {
                    "name": "C#3",
                    "midi": 49,
                    "time": 238.20459200000474,
                    "velocity": 0.2125984251968504,
                    "duration": 0.07481300000000601
                },
                {
                    "name": "D#2",
                    "midi": 39,
                    "time": 238.35421800000475,
                    "velocity": 0.25984251968503935,
                    "duration": 0.07481300000000601
                },
                {
                    "name": "C#3",
                    "midi": 49,
                    "time": 238.50384400000476,
                    "velocity": 0.2125984251968504,
                    "duration": 0.07481300000000601
                },
                {
                    "name": "C#3",
                    "midi": 49,
                    "time": 238.65347000000477,
                    "velocity": 0.2125984251968504,
                    "duration": 0.07481300000000601
                },
                {
                    "name": "D#2",
                    "midi": 39,
                    "time": 238.80309600000479,
                    "velocity": 0.28346456692913385,
                    "duration": 0.07481300000000601
                },
                {
                    "name": "C#3",
                    "midi": 49,
                    "time": 238.9527220000048,
                    "velocity": 0.2440944881889764,
                    "duration": 0.07481300000000601
                },
                {
                    "name": "C#3",
                    "midi": 49,
                    "time": 239.1023480000048,
                    "velocity": 0.25196850393700787,
                    "duration": 0.07481300000000601
                },
                {
                    "name": "D2",
                    "midi": 38,
                    "time": 239.25197400000482,
                    "velocity": 0.25196850393700787,
                    "duration": 0.07481300000000601
                },
                {
                    "name": "D3",
                    "midi": 50,
                    "time": 239.40160000000483,
                    "velocity": 0.2283464566929134,
                    "duration": 0.07481300000000601
                },
                {
                    "name": "D3",
                    "midi": 50,
                    "time": 239.55122600000485,
                    "velocity": 0.2283464566929134,
                    "duration": 0.07481300000000601
                },
                {
                    "name": "D2",
                    "midi": 38,
                    "time": 239.70085200000486,
                    "velocity": 0.25984251968503935,
                    "duration": 0.07481300000000601
                },
                {
                    "name": "D3",
                    "midi": 50,
                    "time": 239.85047800000487,
                    "velocity": 0.2047244094488189,
                    "duration": 0.07481300000000601
                },
                {
                    "name": "D3",
                    "midi": 50,
                    "time": 240.00010400000488,
                    "velocity": 0.2047244094488189,
                    "duration": 0.07481300000000601
                },
                {
                    "name": "D2",
                    "midi": 38,
                    "time": 240.1497300000049,
                    "velocity": 0.25984251968503935,
                    "duration": 0.07481300000000601
                },
                {
                    "name": "D3",
                    "midi": 50,
                    "time": 240.2993560000049,
                    "velocity": 0.2125984251968504,
                    "duration": 0.07481300000000601
                },
                {
                    "name": "D3",
                    "midi": 50,
                    "time": 240.44898200000492,
                    "velocity": 0.2283464566929134,
                    "duration": 0.07481300000000601
                },
                {
                    "name": "D2",
                    "midi": 38,
                    "time": 240.59860800000493,
                    "velocity": 0.28346456692913385,
                    "duration": 0.07481300000000601
                },
                {
                    "name": "D3",
                    "midi": 50,
                    "time": 240.74823400000494,
                    "velocity": 0.2283464566929134,
                    "duration": 0.07481300000000601
                },
                {
                    "name": "D3",
                    "midi": 50,
                    "time": 240.89786000000495,
                    "velocity": 0.23622047244094488,
                    "duration": 0.07481300000000601
                },
                {
                    "name": "D2",
                    "midi": 38,
                    "time": 241.04748600000497,
                    "velocity": 0.2755905511811024,
                    "duration": 0.07481300000000601
                },
                {
                    "name": "D3",
                    "midi": 50,
                    "time": 241.19711200000498,
                    "velocity": 0.2204724409448819,
                    "duration": 0.07481300000000601
                },
                {
                    "name": "D3",
                    "midi": 50,
                    "time": 241.346738000005,
                    "velocity": 0.2283464566929134,
                    "duration": 0.07481300000000601
                },
                {
                    "name": "D2",
                    "midi": 38,
                    "time": 241.496364000005,
                    "velocity": 0.2992125984251969,
                    "duration": 0.07481300000000601
                },
                {
                    "name": "D3",
                    "midi": 50,
                    "time": 241.645990000005,
                    "velocity": 0.25196850393700787,
                    "duration": 0.07481300000000601
                },
                {
                    "name": "D3",
                    "midi": 50,
                    "time": 241.79561600000503,
                    "velocity": 0.25196850393700787,
                    "duration": 0.07481300000000601
                },
                {
                    "name": "D2",
                    "midi": 38,
                    "time": 241.94524200000504,
                    "velocity": 0.3543307086614173,
                    "duration": 0.07481300000000601
                },
                {
                    "name": "D3",
                    "midi": 50,
                    "time": 242.09486800000505,
                    "velocity": 0.28346456692913385,
                    "duration": 0.07481300000000601
                },
                {
                    "name": "D3",
                    "midi": 50,
                    "time": 242.24449400000506,
                    "velocity": 0.28346456692913385,
                    "duration": 0.07481300000000601
                },
                {
                    "name": "D2",
                    "midi": 38,
                    "time": 242.39412000000507,
                    "velocity": 0.3228346456692913,
                    "duration": 0.07481300000000601
                },
                {
                    "name": "D3",
                    "midi": 50,
                    "time": 242.5437460000051,
                    "velocity": 0.25196850393700787,
                    "duration": 0.07481300000000601
                },
                {
                    "name": "D3",
                    "midi": 50,
                    "time": 242.6933720000051,
                    "velocity": 0.31496062992125984,
                    "duration": 0.07481300000000601
                },
                {
                    "name": "D2",
                    "midi": 38,
                    "time": 242.8429980000051,
                    "velocity": 0.3779527559055118,
                    "duration": 0.07481300000000601
                },
                {
                    "name": "D3",
                    "midi": 50,
                    "time": 242.99262400000512,
                    "velocity": 0.25984251968503935,
                    "duration": 0.07481300000000601
                },
                {
                    "name": "D3",
                    "midi": 50,
                    "time": 243.14225000000513,
                    "velocity": 0.25984251968503935,
                    "duration": 0.07481300000000601
                },
                {
                    "name": "D2",
                    "midi": 38,
                    "time": 243.29187600000515,
                    "velocity": 0.3228346456692913,
                    "duration": 0.07481300000000601
                },
                {
                    "name": "D3",
                    "midi": 50,
                    "time": 243.44150200000516,
                    "velocity": 0.25984251968503935,
                    "duration": 0.07481300000000601
                },
                {
                    "name": "D3",
                    "midi": 50,
                    "time": 243.59112800000517,
                    "velocity": 0.25984251968503935,
                    "duration": 0.07481300000000601
                },
                {
                    "name": "C2",
                    "midi": 36,
                    "time": 243.74075400000518,
                    "velocity": 0.2755905511811024,
                    "duration": 0.07481300000000601
                },
                {
                    "name": "G2",
                    "midi": 43,
                    "time": 243.8903800000052,
                    "velocity": 0.2440944881889764,
                    "duration": 0.07481300000000601
                },
                {
                    "name": "C3",
                    "midi": 48,
                    "time": 244.0400060000052,
                    "velocity": 0.2440944881889764,
                    "duration": 0.07481300000000601
                },
                {
                    "name": "C2",
                    "midi": 36,
                    "time": 244.18963200000522,
                    "velocity": 0.28346456692913385,
                    "duration": 0.07481300000000601
                },
                {
                    "name": "G2",
                    "midi": 43,
                    "time": 244.33925800000523,
                    "velocity": 0.2204724409448819,
                    "duration": 0.07481300000000601
                },
                {
                    "name": "C3",
                    "midi": 48,
                    "time": 244.48888400000524,
                    "velocity": 0.2204724409448819,
                    "duration": 0.07481300000000601
                },
                {
                    "name": "C2",
                    "midi": 36,
                    "time": 244.63851000000525,
                    "velocity": 0.28346456692913385,
                    "duration": 0.07481300000000601
                },
                {
                    "name": "G2",
                    "midi": 43,
                    "time": 244.78813600000527,
                    "velocity": 0.2283464566929134,
                    "duration": 0.07481300000000601
                },
                {
                    "name": "C3",
                    "midi": 48,
                    "time": 244.93776200000528,
                    "velocity": 0.2283464566929134,
                    "duration": 0.07481300000000601
                },
                {
                    "name": "C2",
                    "midi": 36,
                    "time": 245.0873880000053,
                    "velocity": 0.30708661417322836,
                    "duration": 0.07481300000000601
                },
                {
                    "name": "G2",
                    "midi": 43,
                    "time": 245.2370140000053,
                    "velocity": 0.2440944881889764,
                    "duration": 0.07481300000000601
                },
                {
                    "name": "C3",
                    "midi": 48,
                    "time": 245.38664000000531,
                    "velocity": 0.25984251968503935,
                    "duration": 0.07481300000000601
                },
                {
                    "name": "C2",
                    "midi": 36,
                    "time": 245.53626600000533,
                    "velocity": 0.2992125984251969,
                    "duration": 0.07481300000000601
                },
                {
                    "name": "G2",
                    "midi": 43,
                    "time": 245.68589200000534,
                    "velocity": 0.23622047244094488,
                    "duration": 0.07481300000000601
                },
                {
                    "name": "C3",
                    "midi": 48,
                    "time": 245.83551800000535,
                    "velocity": 0.2440944881889764,
                    "duration": 0.07481300000000601
                },
                {
                    "name": "C2",
                    "midi": 36,
                    "time": 245.98514400000536,
                    "velocity": 0.3228346456692913,
                    "duration": 0.07481300000000601
                },
                {
                    "name": "G2",
                    "midi": 43,
                    "time": 246.13477000000537,
                    "velocity": 0.2755905511811024,
                    "duration": 0.07481300000000601
                },
                {
                    "name": "C3",
                    "midi": 48,
                    "time": 246.2843960000054,
                    "velocity": 0.2755905511811024,
                    "duration": 0.07481300000000601
                },
                {
                    "name": "C2",
                    "midi": 36,
                    "time": 246.4340220000054,
                    "velocity": 0.3858267716535433,
                    "duration": 0.07481300000000601
                },
                {
                    "name": "G2",
                    "midi": 43,
                    "time": 246.5836480000054,
                    "velocity": 0.30708661417322836,
                    "duration": 0.07481300000000601
                },
                {
                    "name": "C3",
                    "midi": 48,
                    "time": 246.73327400000542,
                    "velocity": 0.30708661417322836,
                    "duration": 0.07481300000000601
                },
                {
                    "name": "C2",
                    "midi": 36,
                    "time": 246.88290000000544,
                    "velocity": 0.3543307086614173,
                    "duration": 0.07481300000000601
                },
                {
                    "name": "G2",
                    "midi": 43,
                    "time": 247.03252600000545,
                    "velocity": 0.2755905511811024,
                    "duration": 0.07481300000000601
                },
                {
                    "name": "C3",
                    "midi": 48,
                    "time": 247.18215200000546,
                    "velocity": 0.3464566929133858,
                    "duration": 0.07481300000000601
                },
                {
                    "name": "C2",
                    "midi": 36,
                    "time": 247.33177800000547,
                    "velocity": 0.4094488188976378,
                    "duration": 0.07481300000000601
                },
                {
                    "name": "G2",
                    "midi": 43,
                    "time": 247.48140400000548,
                    "velocity": 0.28346456692913385,
                    "duration": 0.07481300000000601
                },
                {
                    "name": "C3",
                    "midi": 48,
                    "time": 247.6310300000055,
                    "velocity": 0.28346456692913385,
                    "duration": 0.07481300000000601
                },
                {
                    "name": "C2",
                    "midi": 36,
                    "time": 247.7806560000055,
                    "velocity": 0.3543307086614173,
                    "duration": 0.07481300000000601
                },
                {
                    "name": "G2",
                    "midi": 43,
                    "time": 247.93028200000552,
                    "velocity": 0.28346456692913385,
                    "duration": 0.07481300000000601
                },
                {
                    "name": "C3",
                    "midi": 48,
                    "time": 248.07990800000553,
                    "velocity": 0.28346456692913385,
                    "duration": 0.07481300000000601
                },
                {
                    "name": "C2",
                    "midi": 36,
                    "time": 248.23140432500554,
                    "velocity": 0.47244094488188976,
                    "duration": 0.07481300000000601
                },
                {
                    "name": "G2",
                    "midi": 43,
                    "time": 248.37916000000556,
                    "velocity": 0.3858267716535433,
                    "duration": 0.07481300000000601
                },
                {
                    "name": "C3",
                    "midi": 48,
                    "time": 248.52878600000557,
                    "velocity": 0.3858267716535433,
                    "duration": 0.07481300000000601
                },
                {
                    "name": "C2",
                    "midi": 36,
                    "time": 248.67841200000558,
                    "velocity": 0.44881889763779526,
                    "duration": 0.07481300000000601
                },
                {
                    "name": "G2",
                    "midi": 43,
                    "time": 248.8280380000056,
                    "velocity": 0.36220472440944884,
                    "duration": 0.07481300000000601
                },
                {
                    "name": "C3",
                    "midi": 48,
                    "time": 248.9776640000056,
                    "velocity": 0.3700787401574803,
                    "duration": 0.07481300000000601
                },
                {
                    "name": "C2",
                    "midi": 36,
                    "time": 249.12729000000562,
                    "velocity": 0.4881889763779528,
                    "duration": 0.07481300000000601
                },
                {
                    "name": "G2",
                    "midi": 43,
                    "time": 249.27691600000563,
                    "velocity": 0.4094488188976378,
                    "duration": 0.07481300000000601
                },
                {
                    "name": "C3",
                    "midi": 48,
                    "time": 249.42654200000564,
                    "velocity": 0.41732283464566927,
                    "duration": 0.07481300000000601
                },
                {
                    "name": "C2",
                    "midi": 36,
                    "time": 249.57616800000565,
                    "velocity": 0.5196850393700787,
                    "duration": 0.07481300000000601
                },
                {
                    "name": "G2",
                    "midi": 43,
                    "time": 249.72579400000566,
                    "velocity": 0.4330708661417323,
                    "duration": 0.07481300000000601
                },
                {
                    "name": "C3",
                    "midi": 48,
                    "time": 249.87542000000568,
                    "velocity": 0.4409448818897638,
                    "duration": 0.07481300000000601
                },
                {
                    "name": "C2",
                    "midi": 36,
                    "time": 250.0250460000057,
                    "velocity": 0.5275590551181102,
                    "duration": 0.07481300000000601
                },
                {
                    "name": "G2",
                    "midi": 43,
                    "time": 250.1746720000057,
                    "velocity": 0.4251968503937008,
                    "duration": 0.07481300000000601
                },
                {
                    "name": "C3",
                    "midi": 48,
                    "time": 250.3242980000057,
                    "velocity": 0.4330708661417323,
                    "duration": 0.07481300000000601
                },
                {
                    "name": "C2",
                    "midi": 36,
                    "time": 250.47392400000572,
                    "velocity": 0.5669291338582677,
                    "duration": 0.07481300000000601
                },
                {
                    "name": "G2",
                    "midi": 43,
                    "time": 250.62355000000574,
                    "velocity": 0.48031496062992124,
                    "duration": 0.07481300000000601
                },
                {
                    "name": "C3",
                    "midi": 48,
                    "time": 250.77317600000575,
                    "velocity": 0.4881889763779528,
                    "duration": 0.07481300000000601
                },
                {
                    "name": "B1",
                    "midi": 35,
                    "time": 250.92280200000576,
                    "velocity": 0.6299212598425197,
                    "duration": 0.07481300000000601
                },
                {
                    "name": "G2",
                    "midi": 43,
                    "time": 251.07242800000577,
                    "velocity": 0.44881889763779526,
                    "duration": 0.07481300000000601
                },
                {
                    "name": "B2",
                    "midi": 47,
                    "time": 251.22205400000578,
                    "velocity": 0.4566929133858268,
                    "duration": 0.07481300000000601
                },
                {
                    "name": "B1",
                    "midi": 35,
                    "time": 251.3716800000058,
                    "velocity": 0.5905511811023622,
                    "duration": 0.07481300000000601
                },
                {
                    "name": "G2",
                    "midi": 43,
                    "time": 251.5213060000058,
                    "velocity": 0.44881889763779526,
                    "duration": 0.07481300000000601
                },
                {
                    "name": "B2",
                    "midi": 47,
                    "time": 251.67093200000582,
                    "velocity": 0.4566929133858268,
                    "duration": 0.07481300000000601
                },
                {
                    "name": "B1",
                    "midi": 35,
                    "time": 251.82055800000583,
                    "velocity": 0.5984251968503937,
                    "duration": 0.07481300000000601
                },
                {
                    "name": "F#2",
                    "midi": 42,
                    "time": 251.97018400000584,
                    "velocity": 0.48031496062992124,
                    "duration": 0.07481300000000601
                },
                {
                    "name": "B2",
                    "midi": 47,
                    "time": 252.11981000000586,
                    "velocity": 0.48031496062992124,
                    "duration": 0.07481300000000601
                },
                {
                    "name": "B1",
                    "midi": 35,
                    "time": 252.26943600000587,
                    "velocity": 0.6299212598425197,
                    "duration": 0.07481300000000601
                },
                {
                    "name": "F#2",
                    "midi": 42,
                    "time": 252.41906200000588,
                    "velocity": 0.44881889763779526,
                    "duration": 0.07481300000000601
                },
                {
                    "name": "B2",
                    "midi": 47,
                    "time": 252.5686880000059,
                    "velocity": 0.4566929133858268,
                    "duration": 0.07481300000000601
                },
                {
                    "name": "B1",
                    "midi": 35,
                    "time": 252.7183140000059,
                    "velocity": 0.5905511811023622,
                    "duration": 0.07481300000000601
                },
                {
                    "name": "E2",
                    "midi": 40,
                    "time": 252.86794000000592,
                    "velocity": 0.44881889763779526,
                    "duration": 0.07481300000000601
                },
                {
                    "name": "B2",
                    "midi": 47,
                    "time": 253.01756600000593,
                    "velocity": 0.4566929133858268,
                    "duration": 0.07481300000000601
                },
                {
                    "name": "B1",
                    "midi": 35,
                    "time": 253.16719200000594,
                    "velocity": 0.5984251968503937,
                    "duration": 0.07481300000000601
                },
                {
                    "name": "D#2",
                    "midi": 39,
                    "time": 253.31681800000595,
                    "velocity": 0.48031496062992124,
                    "duration": 0.07481300000000601
                },
                {
                    "name": "B2",
                    "midi": 47,
                    "time": 253.46644400000596,
                    "velocity": 0.48031496062992124,
                    "duration": 0.07481300000000601
                },
                {
                    "name": "E1",
                    "midi": 28,
                    "time": 253.61607000000598,
                    "velocity": 0.6299212598425197,
                    "duration": 0.07481300000000601
                },
                {
                    "name": "B1",
                    "midi": 35,
                    "time": 253.765696000006,
                    "velocity": 0.44881889763779526,
                    "duration": 0.07481300000000601
                },
                {
                    "name": "E2",
                    "midi": 40,
                    "time": 253.915322000006,
                    "velocity": 0.4566929133858268,
                    "duration": 0.07481300000000601
                },
                {
                    "name": "E1",
                    "midi": 28,
                    "time": 254.064948000006,
                    "velocity": 0.5905511811023622,
                    "duration": 0.07481300000000601
                },
                {
                    "name": "B1",
                    "midi": 35,
                    "time": 254.21457400000602,
                    "velocity": 0.44881889763779526,
                    "duration": 0.07481300000000601
                },
                {
                    "name": "E2",
                    "midi": 40,
                    "time": 254.36420000000604,
                    "velocity": 0.4566929133858268,
                    "duration": 0.07481300000000601
                },
                {
                    "name": "E1",
                    "midi": 28,
                    "time": 254.51382600000605,
                    "velocity": 0.5984251968503937,
                    "duration": 0.07481300000000601
                },
                {
                    "name": "B1",
                    "midi": 35,
                    "time": 254.66345200000606,
                    "velocity": 0.48031496062992124,
                    "duration": 0.07481300000000601
                },
                {
                    "name": "E2",
                    "midi": 40,
                    "time": 254.81307800000607,
                    "velocity": 0.48031496062992124,
                    "duration": 0.07481300000000601
                },
                {
                    "name": "E1",
                    "midi": 28,
                    "time": 254.96270400000608,
                    "velocity": 0.6299212598425197,
                    "duration": 0.07481300000000601
                },
                {
                    "name": "B1",
                    "midi": 35,
                    "time": 255.1123300000061,
                    "velocity": 0.44881889763779526,
                    "duration": 0.07481300000000601
                },
                {
                    "name": "E2",
                    "midi": 40,
                    "time": 255.2619560000061,
                    "velocity": 0.4566929133858268,
                    "duration": 0.07481300000000601
                },
                {
                    "name": "E1",
                    "midi": 28,
                    "time": 255.41158200000612,
                    "velocity": 0.5905511811023622,
                    "duration": 0.07481300000000601
                },
                {
                    "name": "B1",
                    "midi": 35,
                    "time": 255.56120800000613,
                    "velocity": 0.44881889763779526,
                    "duration": 0.07481300000000601
                },
                {
                    "name": "E2",
                    "midi": 40,
                    "time": 255.71083400000614,
                    "velocity": 0.4566929133858268,
                    "duration": 0.07481300000000601
                },
                {
                    "name": "E1",
                    "midi": 28,
                    "time": 255.86046000000616,
                    "velocity": 0.5984251968503937,
                    "duration": 0.07481300000000601
                },
                {
                    "name": "B1",
                    "midi": 35,
                    "time": 256.01008600000614,
                    "velocity": 0.48031496062992124,
                    "duration": 0.07481300000000601
                },
                {
                    "name": "E2",
                    "midi": 40,
                    "time": 256.15971200000615,
                    "velocity": 0.48031496062992124,
                    "duration": 0.07481300000000601
                },
                {
                    "name": "E1",
                    "midi": 28,
                    "time": 256.30933800000616,
                    "velocity": 0.5590551181102362,
                    "duration": 0.07481300000000601
                },
                {
                    "name": "E3",
                    "midi": 52,
                    "time": 256.57118350000616,
                    "velocity": 0.41732283464566927,
                    "duration": 0.2992519999999672
                },
                {
                    "name": "B3",
                    "midi": 59,
                    "time": 256.58988675000614,
                    "velocity": 0.41732283464566927,
                    "duration": 0.2805487499999799
                },
                {
                    "name": "G#4",
                    "midi": 68,
                    "time": 256.60859000000613,
                    "velocity": 0.49606299212598426,
                    "duration": 0.2618454999999926
                },
                {
                    "name": "E3",
                    "midi": 52,
                    "time": 256.8704355000061,
                    "velocity": 0.41732283464566927,
                    "duration": 0.44887799999997924
                },
                {
                    "name": "C#4",
                    "midi": 61,
                    "time": 256.8891387500061,
                    "velocity": 0.41732283464566927,
                    "duration": 0.43017474999999195
                },
                {
                    "name": "A4",
                    "midi": 69,
                    "time": 256.9078420000061,
                    "velocity": 0.49606299212598426,
                    "duration": 0.41147150000000465
                },
                {
                    "name": "E3",
                    "midi": 52,
                    "time": 257.3193135000061,
                    "velocity": 0.4094488188976378,
                    "duration": 0.26184550000004947
                },
                {
                    "name": "A3",
                    "midi": 57,
                    "time": 257.33178233333945,
                    "velocity": 0.4094488188976378,
                    "duration": 0.24937666666670566
                },
                {
                    "name": "C#4",
                    "midi": 61,
                    "time": 257.3442511666728,
                    "velocity": 0.4094488188976378,
                    "duration": 0.23690783333336185
                },
                {
                    "name": "F#4",
                    "midi": 66,
                    "time": 257.35672000000613,
                    "velocity": 0.4881889763779528,
                    "duration": 0.22443900000001804
                },
                {
                    "name": "B3",
                    "midi": 59,
                    "time": 257.58115900000615,
                    "velocity": 0.36220472440944884,
                    "duration": 0.031172083333331102
                },
                {
                    "name": "G#4",
                    "midi": 68,
                    "time": 257.58115900000615,
                    "velocity": 0.4330708661417323,
                    "duration": 0.031172083333331102
                },
                {
                    "name": "E3",
                    "midi": 52,
                    "time": 257.6185655000061,
                    "velocity": 0.4015748031496063,
                    "duration": 0.1122194999999806
                },
                {
                    "name": "B3",
                    "midi": 59,
                    "time": 257.6372687500061,
                    "velocity": 0.4015748031496063,
                    "duration": 0.0935162499999933
                },
                {
                    "name": "G#4",
                    "midi": 68,
                    "time": 257.6559720000061,
                    "velocity": 0.48031496062992124,
                    "duration": 0.07481300000000601
                },
                {
                    "name": "E2",
                    "midi": 40,
                    "time": 257.9178175000061,
                    "velocity": 0.41732283464566927,
                    "duration": 0.2992519999999672
                },
                {
                    "name": "B2",
                    "midi": 47,
                    "time": 257.9365207500061,
                    "velocity": 0.41732283464566927,
                    "duration": 0.2805487499999799
                },
                {
                    "name": "G#3",
                    "midi": 56,
                    "time": 257.95522400000607,
                    "velocity": 0.49606299212598426,
                    "duration": 0.2618454999999926
                },
                {
                    "name": "E2",
                    "midi": 40,
                    "time": 258.21706950000606,
                    "velocity": 0.41732283464566927,
                    "duration": 0.44887799999997924
                },
                {
                    "name": "C#3",
                    "midi": 49,
                    "time": 258.23577275000605,
                    "velocity": 0.41732283464566927,
                    "duration": 0.43017474999999195
                },
                {
                    "name": "A3",
                    "midi": 57,
                    "time": 258.25447600000604,
                    "velocity": 0.49606299212598426,
                    "duration": 0.41147150000000465
                },
                {
                    "name": "E2",
                    "midi": 40,
                    "time": 258.66594750000604,
                    "velocity": 0.4094488188976378,
                    "duration": 0.26184550000004947
                },
                {
                    "name": "A2",
                    "midi": 45,
                    "time": 258.6784163333394,
                    "velocity": 0.4094488188976378,
                    "duration": 0.24937666666670566
                },
                {
                    "name": "C#3",
                    "midi": 49,
                    "time": 258.69088516667273,
                    "velocity": 0.4094488188976378,
                    "duration": 0.23690783333336185
                },
                {
                    "name": "F#3",
                    "midi": 54,
                    "time": 258.7033540000061,
                    "velocity": 0.4881889763779528,
                    "duration": 0.22443900000001804
                },
                {
                    "name": "B2",
                    "midi": 47,
                    "time": 258.9277930000061,
                    "velocity": 0.36220472440944884,
                    "duration": 0.06857858333330569
                },
                {
                    "name": "G#3",
                    "midi": 56,
                    "time": 258.9277930000061,
                    "velocity": 0.4330708661417323,
                    "duration": 0.06857858333330569
                },
                {
                    "name": "E1",
                    "midi": 28,
                    "time": 259.00260600000604,
                    "velocity": 0.47244094488188976,
                    "duration": 0.07481300000000601
                },
                {
                    "name": "B1",
                    "midi": 35,
                    "time": 259.15223200000605,
                    "velocity": 0.3858267716535433,
                    "duration": 0.07481300000000601
                },
                {
                    "name": "E2",
                    "midi": 40,
                    "time": 259.30185800000606,
                    "velocity": 0.3858267716535433,
                    "duration": 0.07481300000000601
                },
                {
                    "name": "E1",
                    "midi": 28,
                    "time": 259.4514840000061,
                    "velocity": 0.4409448818897638,
                    "duration": 0.07481300000000601
                },
                {
                    "name": "B1",
                    "midi": 35,
                    "time": 259.6011100000061,
                    "velocity": 0.3464566929133858,
                    "duration": 0.07481300000000601
                },
                {
                    "name": "E2",
                    "midi": 40,
                    "time": 259.7507360000061,
                    "velocity": 0.3464566929133858,
                    "duration": 0.07481300000000601
                },
                {
                    "name": "E1",
                    "midi": 28,
                    "time": 259.9003620000061,
                    "velocity": 0.4409448818897638,
                    "duration": 0.07481300000000601
                },
                {
                    "name": "B1",
                    "midi": 35,
                    "time": 260.0499880000061,
                    "velocity": 0.36220472440944884,
                    "duration": 0.07481300000000601
                },
                {
                    "name": "E2",
                    "midi": 40,
                    "time": 260.19961400000614,
                    "velocity": 0.36220472440944884,
                    "duration": 0.07481300000000601
                },
                {
                    "name": "E1",
                    "midi": 28,
                    "time": 260.34924000000615,
                    "velocity": 0.4409448818897638,
                    "duration": 0.07481300000000601
                },
                {
                    "name": "B1",
                    "midi": 35,
                    "time": 260.49886600000616,
                    "velocity": 0.3464566929133858,
                    "duration": 0.07481300000000601
                },
                {
                    "name": "E2",
                    "midi": 40,
                    "time": 260.6484920000062,
                    "velocity": 0.3464566929133858,
                    "duration": 0.07481300000000601
                },
                {
                    "name": "E1",
                    "midi": 28,
                    "time": 260.7981180000062,
                    "velocity": 0.4409448818897638,
                    "duration": 0.07481300000000601
                },
                {
                    "name": "B1",
                    "midi": 35,
                    "time": 260.9477440000062,
                    "velocity": 0.36220472440944884,
                    "duration": 0.07481300000000601
                },
                {
                    "name": "E2",
                    "midi": 40,
                    "time": 261.0973700000062,
                    "velocity": 0.36220472440944884,
                    "duration": 0.07481300000000601
                },
                {
                    "name": "E1",
                    "midi": 28,
                    "time": 261.2469960000062,
                    "velocity": 0.4409448818897638,
                    "duration": 0.07481300000000601
                },
                {
                    "name": "A1",
                    "midi": 33,
                    "time": 261.6958740000062,
                    "velocity": 0.5275590551181102,
                    "duration": 0.07481300000000601
                },
                {
                    "name": "A3",
                    "midi": 57,
                    "time": 262.2943780000062,
                    "velocity": 0.3228346456692913,
                    "duration": 0.07481300000000601
                },
                {
                    "name": "C#4",
                    "midi": 61,
                    "time": 262.2943780000062,
                    "velocity": 0.3858267716535433,
                    "duration": 0.07481300000000601
                },
                {
                    "name": "B3",
                    "midi": 59,
                    "time": 262.4440040000062,
                    "velocity": 0.3858267716535433,
                    "duration": 0.07481300000000601
                },
                {
                    "name": "E3",
                    "midi": 52,
                    "time": 262.4440040000062,
                    "velocity": 0.3228346456692913,
                    "duration": 0.07481300000000601
                },
                {
                    "name": "A3",
                    "midi": 57,
                    "time": 262.5936300000062,
                    "velocity": 0.4566929133858268,
                    "duration": 0.07481300000000601
                },
                {
                    "name": "C#3",
                    "midi": 49,
                    "time": 262.5936300000062,
                    "velocity": 0.3858267716535433,
                    "duration": 0.07481300000000601
                },
                {
                    "name": "E2",
                    "midi": 40,
                    "time": 262.89288200000624,
                    "velocity": 0.5826771653543307,
                    "duration": 0.07481300000000601
                },
                {
                    "name": "A2",
                    "midi": 45,
                    "time": 263.04250800000625,
                    "velocity": 0.6850393700787402,
                    "duration": 0.07481300000000601
                },
                {
                    "name": "C#4",
                    "midi": 61,
                    "time": 263.64101200000624,
                    "velocity": 0.3858267716535433,
                    "duration": 0.07481300000000601
                },
                {
                    "name": "A3",
                    "midi": 57,
                    "time": 263.64101200000624,
                    "velocity": 0.3228346456692913,
                    "duration": 0.07481300000000601
                },
                {
                    "name": "A1",
                    "midi": 33,
                    "time": 263.79063800000625,
                    "velocity": 0.3228346456692913,
                    "duration": 0.07481300000000601
                },
                {
                    "name": "B3",
                    "midi": 59,
                    "time": 263.79063800000625,
                    "velocity": 0.3858267716535433,
                    "duration": 0.07481300000000601
                },
                {
                    "name": "E3",
                    "midi": 52,
                    "time": 263.79063800000625,
                    "velocity": 0.3228346456692913,
                    "duration": 0.07481300000000601
                },
                {
                    "name": "C#3",
                    "midi": 49,
                    "time": 263.94026400000627,
                    "velocity": 0.3858267716535433,
                    "duration": 0.07481300000000601
                },
                {
                    "name": "A1",
                    "midi": 33,
                    "time": 263.94026400000627,
                    "velocity": 0.3228346456692913,
                    "duration": 0.07481300000000601
                },
                {
                    "name": "A3",
                    "midi": 57,
                    "time": 263.94026400000627,
                    "velocity": 0.4566929133858268,
                    "duration": 0.07481300000000601
                },
                {
                    "name": "B1",
                    "midi": 35,
                    "time": 264.0898900000063,
                    "velocity": 0.4566929133858268,
                    "duration": 0.07481300000000601
                },
                {
                    "name": "C#2",
                    "midi": 37,
                    "time": 264.2395160000063,
                    "velocity": 0.5039370078740157,
                    "duration": 0.07481300000000601
                },
                {
                    "name": "D2",
                    "midi": 38,
                    "time": 264.3891420000063,
                    "velocity": 0.5275590551181102,
                    "duration": 0.07481300000000601
                },
                {
                    "name": "A2",
                    "midi": 45,
                    "time": 265.5861500000063,
                    "velocity": 0.5826771653543307,
                    "duration": 0.07481300000000601
                },
                {
                    "name": "D3",
                    "midi": 50,
                    "time": 265.7357760000063,
                    "velocity": 0.6850393700787402,
                    "duration": 0.07481300000000601
                },
                {
                    "name": "D2",
                    "midi": 38,
                    "time": 266.4839060000063,
                    "velocity": 0.3228346456692913,
                    "duration": 0.07481300000000601
                },
                {
                    "name": "D2",
                    "midi": 38,
                    "time": 266.6335320000063,
                    "velocity": 0.3228346456692913,
                    "duration": 0.07481300000000601
                },
                {
                    "name": "D#2",
                    "midi": 39,
                    "time": 266.7831580000063,
                    "velocity": 0.4566929133858268,
                    "duration": 0.07481300000000601
                },
                {
                    "name": "E2",
                    "midi": 40,
                    "time": 266.93278400000634,
                    "velocity": 0.5039370078740157,
                    "duration": 0.07481300000000601
                },
                {
                    "name": "F2",
                    "midi": 41,
                    "time": 267.08241000000635,
                    "velocity": 0.5275590551181102,
                    "duration": 0.07481300000000601
                },
                {
                    "name": "C3",
                    "midi": 48,
                    "time": 268.27941800000633,
                    "velocity": 0.5826771653543307,
                    "duration": 0.07481300000000601
                },
                {
                    "name": "F3",
                    "midi": 53,
                    "time": 268.42904400000634,
                    "velocity": 0.6850393700787402,
                    "duration": 0.07481300000000601
                },
                {
                    "name": "F2",
                    "midi": 41,
                    "time": 269.17717400000635,
                    "velocity": 0.3228346456692913,
                    "duration": 0.07481300000000601
                },
                {
                    "name": "F2",
                    "midi": 41,
                    "time": 269.32680000000636,
                    "velocity": 0.3228346456692913,
                    "duration": 0.07481300000000601
                },
                {
                    "name": "G2",
                    "midi": 43,
                    "time": 269.47642600000637,
                    "velocity": 0.4566929133858268,
                    "duration": 0.07481300000000601
                },
                {
                    "name": "A2",
                    "midi": 45,
                    "time": 269.6260520000064,
                    "velocity": 0.5039370078740157,
                    "duration": 0.07481300000000601
                },
                {
                    "name": "A#2",
                    "midi": 46,
                    "time": 269.7756780000064,
                    "velocity": 0.5275590551181102,
                    "duration": 0.07481300000000601
                },
                {
                    "name": "G#2",
                    "midi": 44,
                    "time": 270.3741820000064,
                    "velocity": 0.3228346456692913,
                    "duration": 0.07481300000000601
                },
                {
                    "name": "A2",
                    "midi": 45,
                    "time": 270.5238080000064,
                    "velocity": 0.3228346456692913,
                    "duration": 0.07481300000000601
                },
                {
                    "name": "B2",
                    "midi": 47,
                    "time": 270.6734340000064,
                    "velocity": 0.3543307086614173,
                    "duration": 0.07481300000000601
                },
                {
                    "name": "B2",
                    "midi": 47,
                    "time": 270.8230600000064,
                    "velocity": 0.33858267716535434,
                    "duration": 0.07481300000000601
                },
                {
                    "name": "C3",
                    "midi": 48,
                    "time": 270.97268600000643,
                    "velocity": 0.3543307086614173,
                    "duration": 0.07481300000000601
                },
                {
                    "name": "D3",
                    "midi": 50,
                    "time": 271.12231200000645,
                    "velocity": 0.4330708661417323,
                    "duration": 0.07481300000000601
                },
                {
                    "name": "B2",
                    "midi": 47,
                    "time": 271.72081600000644,
                    "velocity": 0.3228346456692913,
                    "duration": 0.07481300000000601
                },
                {
                    "name": "C3",
                    "midi": 48,
                    "time": 271.87044200000645,
                    "velocity": 0.3228346456692913,
                    "duration": 0.07481300000000601
                },
                {
                    "name": "D3",
                    "midi": 50,
                    "time": 272.02006800000646,
                    "velocity": 0.3543307086614173,
                    "duration": 0.07481300000000601
                },
                {
                    "name": "D3",
                    "midi": 50,
                    "time": 272.1696940000065,
                    "velocity": 0.33858267716535434,
                    "duration": 0.07481300000000601
                },
                {
                    "name": "E3",
                    "midi": 52,
                    "time": 272.3193200000065,
                    "velocity": 0.3543307086614173,
                    "duration": 0.07481300000000601
                },
                {
                    "name": "F3",
                    "midi": 53,
                    "time": 272.4689460000065,
                    "velocity": 0.4330708661417323,
                    "duration": 0.07481300000000601
                },
                {
                    "name": "F3",
                    "midi": 53,
                    "time": 273.0674500000065,
                    "velocity": 0.28346456692913385,
                    "duration": 0.07481300000000601
                },
                {
                    "name": "G3",
                    "midi": 55,
                    "time": 273.2170760000065,
                    "velocity": 0.28346456692913385,
                    "duration": 0.07481300000000601
                },
                {
                    "name": "G#3",
                    "midi": 56,
                    "time": 273.3667020000065,
                    "velocity": 0.33858267716535434,
                    "duration": 0.07481300000000601
                },
                {
                    "name": "G#3",
                    "midi": 56,
                    "time": 273.5163280000065,
                    "velocity": 0.30708661417322836,
                    "duration": 0.07481300000000601
                },
                {
                    "name": "A3",
                    "midi": 57,
                    "time": 273.66595400000654,
                    "velocity": 0.3858267716535433,
                    "duration": 0.07481300000000601
                },
                {
                    "name": "B3",
                    "midi": 59,
                    "time": 273.81558000000655,
                    "velocity": 0.48031496062992124,
                    "duration": 0.07481300000000601
                },
                {
                    "name": "B3",
                    "midi": 59,
                    "time": 274.1148320000066,
                    "velocity": 0.2677165354330709,
                    "duration": 0.43640916666669227
                },
                {
                    "name": "D4",
                    "midi": 62,
                    "time": 274.1148320000066,
                    "velocity": 0.3228346456692913,
                    "duration": 0.43640916666669227
                },
                {
                    "name": "D4",
                    "midi": 62,
                    "time": 274.5637100000066,
                    "velocity": 0.3228346456692913,
                    "duration": 0.44887799999997924
                },
                {
                    "name": "B3",
                    "midi": 59,
                    "time": 274.5637100000066,
                    "velocity": 0.2677165354330709,
                    "duration": 0.44887799999997924
                },
                {
                    "name": "B3",
                    "midi": 59,
                    "time": 275.1622140000066,
                    "velocity": 0.5118110236220472,
                    "duration": 0.07481300000000601
                },
                {
                    "name": "D#4",
                    "midi": 63,
                    "time": 275.1622140000066,
                    "velocity": 0.5118110236220472,
                    "duration": 0.07481300000000601
                },
                {
                    "name": "D#4",
                    "midi": 63,
                    "time": 275.4614660000066,
                    "velocity": 0.3228346456692913,
                    "duration": 0.43640916666669227
                },
                {
                    "name": "B3",
                    "midi": 59,
                    "time": 275.4614660000066,
                    "velocity": 0.2677165354330709,
                    "duration": 0.43640916666669227
                },
                {
                    "name": "D#4",
                    "midi": 63,
                    "time": 275.91034400000666,
                    "velocity": 0.3228346456692913,
                    "duration": 0.44887799999997924
                },
                {
                    "name": "B3",
                    "midi": 59,
                    "time": 275.91034400000666,
                    "velocity": 0.2677165354330709,
                    "duration": 0.44887799999997924
                },
                {
                    "name": "D4",
                    "midi": 62,
                    "time": 276.50884800000665,
                    "velocity": 0.4330708661417323,
                    "duration": 0.44887799999997924
                },
                {
                    "name": "G3",
                    "midi": 55,
                    "time": 276.50884800000665,
                    "velocity": 0.4330708661417323,
                    "duration": 0.44887799999997924
                },
                {
                    "name": "F4",
                    "midi": 65,
                    "time": 276.50884800000665,
                    "velocity": 0.5118110236220472,
                    "duration": 0.44887799999997924
                },
                {
                    "name": "G1",
                    "midi": 31,
                    "time": 277.25697800000665,
                    "velocity": 0.47244094488188976,
                    "duration": 0.07481300000000601
                },
                {
                    "name": "G2",
                    "midi": 43,
                    "time": 277.25697800000665,
                    "velocity": 0.47244094488188976,
                    "duration": 0.07481300000000601
                },
                {
                    "name": "G2",
                    "midi": 43,
                    "time": 277.40660400000667,
                    "velocity": 0.5039370078740157,
                    "duration": 0.07481300000000601
                },
                {
                    "name": "G1",
                    "midi": 31,
                    "time": 277.40660400000667,
                    "velocity": 0.5039370078740157,
                    "duration": 0.07481300000000601
                },
                {
                    "name": "A2",
                    "midi": 45,
                    "time": 277.5562300000067,
                    "velocity": 0.5275590551181102,
                    "duration": 0.07481300000000601
                },
                {
                    "name": "A1",
                    "midi": 33,
                    "time": 277.5562300000067,
                    "velocity": 0.5275590551181102,
                    "duration": 0.07481300000000601
                },
                {
                    "name": "B1",
                    "midi": 35,
                    "time": 277.7058560000067,
                    "velocity": 0.5511811023622047,
                    "duration": 0.07481300000000601
                },
                {
                    "name": "B2",
                    "midi": 47,
                    "time": 277.7058560000067,
                    "velocity": 0.5511811023622047,
                    "duration": 0.07481300000000601
                },
                {
                    "name": "C2",
                    "midi": 36,
                    "time": 277.8554820000067,
                    "velocity": 0.5748031496062992,
                    "duration": 0.07481300000000601
                },
                {
                    "name": "G2",
                    "midi": 43,
                    "time": 278.0051080000067,
                    "velocity": 0.47244094488188976,
                    "duration": 0.07481300000000601
                },
                {
                    "name": "C3",
                    "midi": 48,
                    "time": 278.1547340000067,
                    "velocity": 0.47244094488188976,
                    "duration": 0.07481300000000601
                },
                {
                    "name": "C2",
                    "midi": 36,
                    "time": 278.30436000000674,
                    "velocity": 0.5511811023622047,
                    "duration": 0.07481300000000601
                },
                {
                    "name": "G2",
                    "midi": 43,
                    "time": 278.45398600000675,
                    "velocity": 0.4645669291338583,
                    "duration": 0.07481300000000601
                },
                {
                    "name": "C3",
                    "midi": 48,
                    "time": 278.60361200000676,
                    "velocity": 0.4645669291338583,
                    "duration": 0.07481300000000601
                },
                {
                    "name": "C2",
                    "midi": 36,
                    "time": 278.7532380000068,
                    "velocity": 0.5196850393700787,
                    "duration": 0.07481300000000601
                },
                {
                    "name": "G2",
                    "midi": 43,
                    "time": 278.9028640000068,
                    "velocity": 0.4645669291338583,
                    "duration": 0.07481300000000601
                },
                {
                    "name": "C3",
                    "midi": 48,
                    "time": 279.0524900000068,
                    "velocity": 0.4645669291338583,
                    "duration": 0.07481300000000601
                },
                {
                    "name": "C2",
                    "midi": 36,
                    "time": 279.2021160000068,
                    "velocity": 0.5196850393700787,
                    "duration": 0.07481300000000601
                },
                {
                    "name": "G2",
                    "midi": 43,
                    "time": 279.3517420000068,
                    "velocity": 0.3858267716535433,
                    "duration": 0.07481300000000601
                },
                {
                    "name": "C3",
                    "midi": 48,
                    "time": 279.50136800000683,
                    "velocity": 0.3858267716535433,
                    "duration": 0.07481300000000601
                },
                {
                    "name": "C2",
                    "midi": 36,
                    "time": 279.65099400000685,
                    "velocity": 0.4409448818897638,
                    "duration": 0.07481300000000601
                },
                {
                    "name": "G2",
                    "midi": 43,
                    "time": 279.80062000000686,
                    "velocity": 0.3464566929133858,
                    "duration": 0.07481300000000601
                },
                {
                    "name": "C3",
                    "midi": 48,
                    "time": 279.95024600000687,
                    "velocity": 0.3464566929133858,
                    "duration": 0.07481300000000601
                },
                {
                    "name": "C2",
                    "midi": 36,
                    "time": 280.0998720000069,
                    "velocity": 0.4409448818897638,
                    "duration": 0.07481300000000601
                },
                {
                    "name": "G2",
                    "midi": 43,
                    "time": 280.2494980000069,
                    "velocity": 0.36220472440944884,
                    "duration": 0.07481300000000601
                },
                {
                    "name": "C3",
                    "midi": 48,
                    "time": 280.3991240000069,
                    "velocity": 0.36220472440944884,
                    "duration": 0.07481300000000601
                },
                {
                    "name": "C2",
                    "midi": 36,
                    "time": 280.5487500000069,
                    "velocity": 0.47244094488188976,
                    "duration": 0.07481300000000601
                },
                {
                    "name": "G2",
                    "midi": 43,
                    "time": 280.69837600000693,
                    "velocity": 0.3858267716535433,
                    "duration": 0.07481300000000601
                },
                {
                    "name": "C3",
                    "midi": 48,
                    "time": 280.84800200000694,
                    "velocity": 0.3858267716535433,
                    "duration": 0.07481300000000601
                },
                {
                    "name": "C2",
                    "midi": 36,
                    "time": 280.99762800000696,
                    "velocity": 0.4409448818897638,
                    "duration": 0.07481300000000601
                },
                {
                    "name": "G2",
                    "midi": 43,
                    "time": 281.14725400000697,
                    "velocity": 0.3464566929133858,
                    "duration": 0.07481300000000601
                },
                {
                    "name": "C3",
                    "midi": 48,
                    "time": 281.296880000007,
                    "velocity": 0.3464566929133858,
                    "duration": 0.07481300000000601
                },
                {
                    "name": "B1",
                    "midi": 35,
                    "time": 281.446506000007,
                    "velocity": 0.4409448818897638,
                    "duration": 0.07481300000000601
                },
                {
                    "name": "G2",
                    "midi": 43,
                    "time": 281.596132000007,
                    "velocity": 0.36220472440944884,
                    "duration": 0.07481300000000601
                },
                {
                    "name": "B2",
                    "midi": 47,
                    "time": 281.745758000007,
                    "velocity": 0.36220472440944884,
                    "duration": 0.07481300000000601
                },
                {
                    "name": "A1",
                    "midi": 33,
                    "time": 281.895384000007,
                    "velocity": 0.5196850393700787,
                    "duration": 0.07481300000000601
                },
                {
                    "name": "E2",
                    "midi": 40,
                    "time": 282.04501000000704,
                    "velocity": 0.3858267716535433,
                    "duration": 0.07481300000000601
                },
                {
                    "name": "A2",
                    "midi": 45,
                    "time": 282.19463600000705,
                    "velocity": 0.3858267716535433,
                    "duration": 0.07481300000000601
                },
                {
                    "name": "A1",
                    "midi": 33,
                    "time": 282.34426200000706,
                    "velocity": 0.44881889763779526,
                    "duration": 0.07481300000000601
                },
                {
                    "name": "E2",
                    "midi": 40,
                    "time": 282.4938880000071,
                    "velocity": 0.36220472440944884,
                    "duration": 0.07481300000000601
                },
                {
                    "name": "A2",
                    "midi": 45,
                    "time": 282.6435140000071,
                    "velocity": 0.3700787401574803,
                    "duration": 0.07481300000000601
                },
                {
                    "name": "A1",
                    "midi": 33,
                    "time": 282.7931400000071,
                    "velocity": 0.4881889763779528,
                    "duration": 0.07481300000000601
                },
                {
                    "name": "E2",
                    "midi": 40,
                    "time": 282.9427660000071,
                    "velocity": 0.4094488188976378,
                    "duration": 0.07481300000000601
                },
                {
                    "name": "A2",
                    "midi": 45,
                    "time": 283.0923920000071,
                    "velocity": 0.41732283464566927,
                    "duration": 0.07481300000000601
                },
                {
                    "name": "A1",
                    "midi": 33,
                    "time": 283.24201800000714,
                    "velocity": 0.47244094488188976,
                    "duration": 0.07481300000000601
                },
                {
                    "name": "E2",
                    "midi": 40,
                    "time": 283.39164400000715,
                    "velocity": 0.3858267716535433,
                    "duration": 0.07481300000000601
                },
                {
                    "name": "A2",
                    "midi": 45,
                    "time": 283.54127000000716,
                    "velocity": 0.3858267716535433,
                    "duration": 0.07481300000000601
                },
                {
                    "name": "A1",
                    "midi": 33,
                    "time": 283.69089600000717,
                    "velocity": 0.4409448818897638,
                    "duration": 0.07481300000000601
                },
                {
                    "name": "E2",
                    "midi": 40,
                    "time": 283.8405220000072,
                    "velocity": 0.3464566929133858,
                    "duration": 0.07481300000000601
                },
                {
                    "name": "A2",
                    "midi": 45,
                    "time": 283.9901480000072,
                    "velocity": 0.3464566929133858,
                    "duration": 0.07481300000000601
                },
                {
                    "name": "G1",
                    "midi": 31,
                    "time": 284.1397740000072,
                    "velocity": 0.4409448818897638,
                    "duration": 0.07481300000000601
                },
                {
                    "name": "E2",
                    "midi": 40,
                    "time": 284.2894000000072,
                    "velocity": 0.36220472440944884,
                    "duration": 0.07481300000000601
                },
                {
                    "name": "G2",
                    "midi": 43,
                    "time": 284.43902600000723,
                    "velocity": 0.36220472440944884,
                    "duration": 0.07481300000000601
                },
                {
                    "name": "F1",
                    "midi": 29,
                    "time": 284.58865200000724,
                    "velocity": 0.5196850393700787,
                    "duration": 0.07481300000000601
                },
                {
                    "name": "C2",
                    "midi": 36,
                    "time": 284.73827800000726,
                    "velocity": 0.3858267716535433,
                    "duration": 0.07481300000000601
                },
                {
                    "name": "F2",
                    "midi": 41,
                    "time": 284.88790400000727,
                    "velocity": 0.3858267716535433,
                    "duration": 0.07481300000000601
                },
                {
                    "name": "F1",
                    "midi": 29,
                    "time": 285.0375300000073,
                    "velocity": 0.44881889763779526,
                    "duration": 0.07481300000000601
                },
                {
                    "name": "C2",
                    "midi": 36,
                    "time": 285.1871560000073,
                    "velocity": 0.36220472440944884,
                    "duration": 0.07481300000000601
                },
                {
                    "name": "F2",
                    "midi": 41,
                    "time": 285.3367820000073,
                    "velocity": 0.3700787401574803,
                    "duration": 0.07481300000000601
                },
                {
                    "name": "F1",
                    "midi": 29,
                    "time": 285.4864080000073,
                    "velocity": 0.4881889763779528,
                    "duration": 0.07481300000000601
                },
                {
                    "name": "C2",
                    "midi": 36,
                    "time": 285.6360340000073,
                    "velocity": 0.4094488188976378,
                    "duration": 0.07481300000000601
                },
                {
                    "name": "F2",
                    "midi": 41,
                    "time": 285.78566000000734,
                    "velocity": 0.41732283464566927,
                    "duration": 0.07481300000000601
                },
                {
                    "name": "F1",
                    "midi": 29,
                    "time": 285.93528600000735,
                    "velocity": 0.5196850393700787,
                    "duration": 0.07481300000000601
                },
                {
                    "name": "C2",
                    "midi": 36,
                    "time": 286.08491200000736,
                    "velocity": 0.4409448818897638,
                    "duration": 0.07481300000000601
                },
                {
                    "name": "F2",
                    "midi": 41,
                    "time": 286.2345380000074,
                    "velocity": 0.4566929133858268,
                    "duration": 0.07481300000000601
                },
                {
                    "name": "F1",
                    "midi": 29,
                    "time": 286.3841640000074,
                    "velocity": 0.5669291338582677,
                    "duration": 0.07481300000000601
                },
                {
                    "name": "C2",
                    "midi": 36,
                    "time": 286.5337900000074,
                    "velocity": 0.4645669291338583,
                    "duration": 0.07481300000000601
                },
                {
                    "name": "F2",
                    "midi": 41,
                    "time": 286.6834160000074,
                    "velocity": 0.4881889763779528,
                    "duration": 0.07481300000000601
                },
                {
                    "name": "F1",
                    "midi": 29,
                    "time": 286.8330420000074,
                    "velocity": 0.6535433070866141,
                    "duration": 0.07481300000000601
                },
                {
                    "name": "C2",
                    "midi": 36,
                    "time": 286.98266800000744,
                    "velocity": 0.5669291338582677,
                    "duration": 0.07481300000000601
                },
                {
                    "name": "F2",
                    "midi": 41,
                    "time": 287.13229400000745,
                    "velocity": 0.5905511811023622,
                    "duration": 0.07481300000000601
                },
                {
                    "name": "F#1",
                    "midi": 30,
                    "time": 287.28192000000746,
                    "velocity": 0.6062992125984252,
                    "duration": 0.07481300000000601
                },
                {
                    "name": "F#2",
                    "midi": 42,
                    "time": 287.28192000000746,
                    "velocity": 0.7165354330708661,
                    "duration": 0.07481300000000601
                },
                {
                    "name": "F#3",
                    "midi": 54,
                    "time": 287.4315460000075,
                    "velocity": 0.3779527559055118,
                    "duration": 0.07481300000000601
                },
                {
                    "name": "F#3",
                    "midi": 54,
                    "time": 287.5811720000075,
                    "velocity": 0.3779527559055118,
                    "duration": 0.07481300000000601
                },
                {
                    "name": "F#3",
                    "midi": 54,
                    "time": 287.7307980000075,
                    "velocity": 0.3779527559055118,
                    "duration": 0.07481300000000601
                },
                {
                    "name": "F#3",
                    "midi": 54,
                    "time": 287.8804240000075,
                    "velocity": 0.3543307086614173,
                    "duration": 0.07481300000000601
                },
                {
                    "name": "F#3",
                    "midi": 54,
                    "time": 288.0300500000075,
                    "velocity": 0.3543307086614173,
                    "duration": 0.07481300000000601
                },
                {
                    "name": "F#3",
                    "midi": 54,
                    "time": 288.17967600000753,
                    "velocity": 0.3543307086614173,
                    "duration": 0.07481300000000601
                },
                {
                    "name": "F#3",
                    "midi": 54,
                    "time": 288.32930200000754,
                    "velocity": 0.3543307086614173,
                    "duration": 0.07481300000000601
                },
                {
                    "name": "F#3",
                    "midi": 54,
                    "time": 288.47892800000756,
                    "velocity": 0.3543307086614173,
                    "duration": 0.07481300000000601
                },
                {
                    "name": "F#2",
                    "midi": 42,
                    "time": 288.62855400000757,
                    "velocity": 0.3779527559055118,
                    "duration": 0.07481300000000601
                },
                {
                    "name": "F#3",
                    "midi": 54,
                    "time": 288.62855400000757,
                    "velocity": 0.49606299212598426,
                    "duration": 0.07481300000000601
                },
                {
                    "name": "F#3",
                    "midi": 54,
                    "time": 288.7781800000076,
                    "velocity": 0.3779527559055118,
                    "duration": 0.07481300000000601
                },
                {
                    "name": "F#3",
                    "midi": 54,
                    "time": 288.9278060000076,
                    "velocity": 0.3779527559055118,
                    "duration": 0.07481300000000601
                },
                {
                    "name": "F#3",
                    "midi": 54,
                    "time": 289.0774320000076,
                    "velocity": 0.3779527559055118,
                    "duration": 0.07481300000000601
                },
                {
                    "name": "F#3",
                    "midi": 54,
                    "time": 289.2270580000076,
                    "velocity": 0.3543307086614173,
                    "duration": 0.07481300000000601
                },
                {
                    "name": "F#3",
                    "midi": 54,
                    "time": 289.37668400000763,
                    "velocity": 0.3543307086614173,
                    "duration": 0.07481300000000601
                },
                {
                    "name": "F#3",
                    "midi": 54,
                    "time": 289.52631000000764,
                    "velocity": 0.3543307086614173,
                    "duration": 0.07481300000000601
                },
                {
                    "name": "F#3",
                    "midi": 54,
                    "time": 289.67593600000765,
                    "velocity": 0.3543307086614173,
                    "duration": 0.07481300000000601
                },
                {
                    "name": "F#3",
                    "midi": 54,
                    "time": 289.82556200000766,
                    "velocity": 0.3543307086614173,
                    "duration": 0.07481300000000601
                },
                {
                    "name": "F#3",
                    "midi": 54,
                    "time": 289.9751880000077,
                    "velocity": 0.49606299212598426,
                    "duration": 0.07481300000000601
                },
                {
                    "name": "F#2",
                    "midi": 42,
                    "time": 289.9751880000077,
                    "velocity": 0.3779527559055118,
                    "duration": 0.07481300000000601
                },
                {
                    "name": "F#3",
                    "midi": 54,
                    "time": 290.1248140000077,
                    "velocity": 0.3779527559055118,
                    "duration": 0.07481300000000601
                },
                {
                    "name": "F#3",
                    "midi": 54,
                    "time": 290.2744400000077,
                    "velocity": 0.3779527559055118,
                    "duration": 0.07481300000000601
                },
                {
                    "name": "F#3",
                    "midi": 54,
                    "time": 290.4240660000077,
                    "velocity": 0.3779527559055118,
                    "duration": 0.07481300000000601
                },
                {
                    "name": "F#3",
                    "midi": 54,
                    "time": 290.5736920000077,
                    "velocity": 0.3543307086614173,
                    "duration": 0.07481300000000601
                },
                {
                    "name": "F#3",
                    "midi": 54,
                    "time": 290.72331800000774,
                    "velocity": 0.3858267716535433,
                    "duration": 0.07481300000000601
                },
                {
                    "name": "F#3",
                    "midi": 54,
                    "time": 290.87294400000775,
                    "velocity": 0.4251968503937008,
                    "duration": 0.07481300000000601
                },
                {
                    "name": "F#3",
                    "midi": 54,
                    "time": 291.02257000000776,
                    "velocity": 0.4645669291338583,
                    "duration": 0.07481300000000601
                },
                {
                    "name": "F#3",
                    "midi": 54,
                    "time": 291.1721960000078,
                    "velocity": 0.5039370078740157,
                    "duration": 0.07481300000000601
                },
                {
                    "name": "F#1",
                    "midi": 30,
                    "time": 291.3218220000078,
                    "velocity": 0.5433070866141733,
                    "duration": 0.07481300000000601
                },
                {
                    "name": "F#2",
                    "midi": 42,
                    "time": 291.3218220000078,
                    "velocity": 0.7165354330708661,
                    "duration": 0.07481300000000601
                },
                {
                    "name": "F#3",
                    "midi": 54,
                    "time": 291.4714480000078,
                    "velocity": 0.5275590551181102,
                    "duration": 0.07481300000000601
                },
                {
                    "name": "F#3",
                    "midi": 54,
                    "time": 291.6210740000078,
                    "velocity": 0.49606299212598426,
                    "duration": 0.07481300000000601
                },
                {
                    "name": "F#3",
                    "midi": 54,
                    "time": 291.7707000000078,
                    "velocity": 0.4566929133858268,
                    "duration": 0.07481300000000601
                },
                {
                    "name": "F#3",
                    "midi": 54,
                    "time": 291.92032600000783,
                    "velocity": 0.4251968503937008,
                    "duration": 0.07481300000000601
                },
                {
                    "name": "F#3",
                    "midi": 54,
                    "time": 292.06995200000785,
                    "velocity": 0.3937007874015748,
                    "duration": 0.07481300000000601
                },
                {
                    "name": "F#3",
                    "midi": 54,
                    "time": 292.21957800000786,
                    "velocity": 0.3543307086614173,
                    "duration": 0.07481300000000601
                },
                {
                    "name": "F#3",
                    "midi": 54,
                    "time": 292.36920400000787,
                    "velocity": 0.3543307086614173,
                    "duration": 0.07481300000000601
                },
                {
                    "name": "F#3",
                    "midi": 54,
                    "time": 292.5188300000079,
                    "velocity": 0.3543307086614173,
                    "duration": 0.07481300000000601
                },
                {
                    "name": "F#3",
                    "midi": 54,
                    "time": 292.6684560000079,
                    "velocity": 0.31496062992125984,
                    "duration": 0.07481300000000601
                },
                {
                    "name": "F#2",
                    "midi": 42,
                    "time": 292.6684560000079,
                    "velocity": 0.31496062992125984,
                    "duration": 0.07481300000000601
                },
                {
                    "name": "F#3",
                    "midi": 54,
                    "time": 292.8180820000079,
                    "velocity": 0.3779527559055118,
                    "duration": 0.07481300000000601
                },
                {
                    "name": "F#3",
                    "midi": 54,
                    "time": 292.9677080000079,
                    "velocity": 0.3779527559055118,
                    "duration": 0.07481300000000601
                },
                {
                    "name": "F#3",
                    "midi": 54,
                    "time": 293.11733400000793,
                    "velocity": 0.3779527559055118,
                    "duration": 0.07481300000000601
                },
                {
                    "name": "F#3",
                    "midi": 54,
                    "time": 293.26696000000794,
                    "velocity": 0.3543307086614173,
                    "duration": 0.07481300000000601
                },
                {
                    "name": "F#3",
                    "midi": 54,
                    "time": 293.41658600000795,
                    "velocity": 0.3543307086614173,
                    "duration": 0.07481300000000601
                },
                {
                    "name": "F#3",
                    "midi": 54,
                    "time": 293.56621200000797,
                    "velocity": 0.3543307086614173,
                    "duration": 0.07481300000000601
                },
                {
                    "name": "F#3",
                    "midi": 54,
                    "time": 293.715838000008,
                    "velocity": 0.3543307086614173,
                    "duration": 0.07481300000000601
                },
                {
                    "name": "F#3",
                    "midi": 54,
                    "time": 293.865464000008,
                    "velocity": 0.3543307086614173,
                    "duration": 0.07481300000000601
                },
                {
                    "name": "F#3",
                    "midi": 54,
                    "time": 294.015090000008,
                    "velocity": 0.49606299212598426,
                    "duration": 0.07481300000000601
                },
                {
                    "name": "F#2",
                    "midi": 42,
                    "time": 294.015090000008,
                    "velocity": 0.3779527559055118,
                    "duration": 0.07481300000000601
                },
                {
                    "name": "F#3",
                    "midi": 54,
                    "time": 294.164716000008,
                    "velocity": 0.3779527559055118,
                    "duration": 0.07481300000000601
                },
                {
                    "name": "F#3",
                    "midi": 54,
                    "time": 294.314342000008,
                    "velocity": 0.3779527559055118,
                    "duration": 0.07481300000000601
                },
                {
                    "name": "F#3",
                    "midi": 54,
                    "time": 294.46396800000804,
                    "velocity": 0.3779527559055118,
                    "duration": 0.07481300000000601
                },
                {
                    "name": "F#3",
                    "midi": 54,
                    "time": 294.61359400000805,
                    "velocity": 0.3543307086614173,
                    "duration": 0.07481300000000601
                },
                {
                    "name": "F#3",
                    "midi": 54,
                    "time": 294.76322000000806,
                    "velocity": 0.3543307086614173,
                    "duration": 0.07481300000000601
                },
                {
                    "name": "F#3",
                    "midi": 54,
                    "time": 294.9128460000081,
                    "velocity": 0.3543307086614173,
                    "duration": 0.07481300000000601
                },
                {
                    "name": "F#3",
                    "midi": 54,
                    "time": 295.0624720000081,
                    "velocity": 0.3543307086614173,
                    "duration": 0.07481300000000601
                },
                {
                    "name": "F#3",
                    "midi": 54,
                    "time": 295.2120980000081,
                    "velocity": 0.3543307086614173,
                    "duration": 0.07481300000000601
                },
                {
                    "name": "G2",
                    "midi": 43,
                    "time": 295.3617240000081,
                    "velocity": 0.3779527559055118,
                    "duration": 0.07481300000000601
                },
                {
                    "name": "G3",
                    "midi": 55,
                    "time": 295.3617240000081,
                    "velocity": 0.49606299212598426,
                    "duration": 0.07481300000000601
                },
                {
                    "name": "G3",
                    "midi": 55,
                    "time": 295.5113500000081,
                    "velocity": 0.3779527559055118,
                    "duration": 0.07481300000000601
                },
                {
                    "name": "G3",
                    "midi": 55,
                    "time": 295.66097600000813,
                    "velocity": 0.3779527559055118,
                    "duration": 0.07481300000000601
                },
                {
                    "name": "G3",
                    "midi": 55,
                    "time": 295.81060200000815,
                    "velocity": 0.3779527559055118,
                    "duration": 0.07481300000000601
                },
                {
                    "name": "G3",
                    "midi": 55,
                    "time": 295.96022800000816,
                    "velocity": 0.3543307086614173,
                    "duration": 0.07481300000000601
                },
                {
                    "name": "G3",
                    "midi": 55,
                    "time": 296.10985400000817,
                    "velocity": 0.3858267716535433,
                    "duration": 0.07481300000000601
                },
                {
                    "name": "G3",
                    "midi": 55,
                    "time": 296.2594800000082,
                    "velocity": 0.4251968503937008,
                    "duration": 0.07481300000000601
                },
                {
                    "name": "G3",
                    "midi": 55,
                    "time": 296.4091060000082,
                    "velocity": 0.4645669291338583,
                    "duration": 0.07481300000000601
                },
                {
                    "name": "G3",
                    "midi": 55,
                    "time": 296.5587320000082,
                    "velocity": 0.5039370078740157,
                    "duration": 0.07481300000000601
                },
                {
                    "name": "G1",
                    "midi": 31,
                    "time": 296.7083580000082,
                    "velocity": 0.5433070866141733,
                    "duration": 0.07481300000000601
                },
                {
                    "name": "G2",
                    "midi": 43,
                    "time": 296.7083580000082,
                    "velocity": 0.7165354330708661,
                    "duration": 0.07481300000000601
                },
                {
                    "name": "G3",
                    "midi": 55,
                    "time": 296.85798400000823,
                    "velocity": 0.5275590551181102,
                    "duration": 0.07481300000000601
                },
                {
                    "name": "G3",
                    "midi": 55,
                    "time": 297.00761000000824,
                    "velocity": 0.49606299212598426,
                    "duration": 0.07481300000000601
                },
                {
                    "name": "G3",
                    "midi": 55,
                    "time": 297.15723600000825,
                    "velocity": 0.4566929133858268,
                    "duration": 0.07481300000000601
                },
                {
                    "name": "G3",
                    "midi": 55,
                    "time": 297.30686200000827,
                    "velocity": 0.4251968503937008,
                    "duration": 0.07481300000000601
                },
                {
                    "name": "G3",
                    "midi": 55,
                    "time": 297.4564880000083,
                    "velocity": 0.3937007874015748,
                    "duration": 0.07481300000000601
                },
                {
                    "name": "G3",
                    "midi": 55,
                    "time": 297.6061140000083,
                    "velocity": 0.3543307086614173,
                    "duration": 0.07481300000000601
                },
                {
                    "name": "G3",
                    "midi": 55,
                    "time": 297.7557400000083,
                    "velocity": 0.3543307086614173,
                    "duration": 0.07481300000000601
                },
                {
                    "name": "G3",
                    "midi": 55,
                    "time": 297.9053660000083,
                    "velocity": 0.3543307086614173,
                    "duration": 0.07481300000000601
                },
                {
                    "name": "C3",
                    "midi": 48,
                    "time": 298.0549920000083,
                    "velocity": 0.4645669291338583,
                    "duration": 0.14962600000001203
                },
                {
                    "name": "C2",
                    "midi": 36,
                    "time": 298.50387000000836,
                    "velocity": 0.5196850393700787,
                    "duration": 0.14962600000001203
                },
                {
                    "name": "E2",
                    "midi": 40,
                    "time": 298.6534960000084,
                    "velocity": 0.3464566929133858,
                    "duration": 0.14962600000001203
                },
                {
                    "name": "G#2",
                    "midi": 44,
                    "time": 298.8031220000084,
                    "velocity": 0.3464566929133858,
                    "duration": 0.14962600000001203
                },
                {
                    "name": "A2",
                    "midi": 45,
                    "time": 298.9527480000084,
                    "velocity": 0.5196850393700787,
                    "duration": 0.14962600000001203
                },
                {
                    "name": "B2",
                    "midi": 47,
                    "time": 299.1023740000084,
                    "velocity": 0.3228346456692913,
                    "duration": 0.14962600000001203
                },
                {
                    "name": "A2",
                    "midi": 45,
                    "time": 299.2520000000084,
                    "velocity": 0.3228346456692913,
                    "duration": 0.14962600000001203
                },
                {
                    "name": "C2",
                    "midi": 36,
                    "time": 299.40162600000843,
                    "velocity": 0.5196850393700787,
                    "duration": 0.14962600000001203
                },
                {
                    "name": "E2",
                    "midi": 40,
                    "time": 299.55125200000845,
                    "velocity": 0.36220472440944884,
                    "duration": 0.14962600000001203
                },
                {
                    "name": "G#2",
                    "midi": 44,
                    "time": 299.70087800000846,
                    "velocity": 0.36220472440944884,
                    "duration": 0.14962600000001203
                },
                {
                    "name": "A2",
                    "midi": 45,
                    "time": 299.85050400000847,
                    "velocity": 0.5196850393700787,
                    "duration": 0.14962600000001203
                },
                {
                    "name": "B2",
                    "midi": 47,
                    "time": 300.0001300000085,
                    "velocity": 0.33858267716535434,
                    "duration": 0.14962600000001203
                },
                {
                    "name": "A2",
                    "midi": 45,
                    "time": 300.1497560000085,
                    "velocity": 0.33858267716535434,
                    "duration": 0.14962600000001203
                },
                {
                    "name": "C2",
                    "midi": 36,
                    "time": 300.2993820000085,
                    "velocity": 0.5196850393700787,
                    "duration": 0.14962600000001203
                },
                {
                    "name": "E2",
                    "midi": 40,
                    "time": 300.4490080000085,
                    "velocity": 0.36220472440944884,
                    "duration": 0.14962600000001203
                },
                {
                    "name": "G#2",
                    "midi": 44,
                    "time": 300.59863400000853,
                    "velocity": 0.36220472440944884,
                    "duration": 0.14962600000001203
                },
                {
                    "name": "A2",
                    "midi": 45,
                    "time": 300.74826000000854,
                    "velocity": 0.5196850393700787,
                    "duration": 0.14962600000001203
                },
                {
                    "name": "B2",
                    "midi": 47,
                    "time": 300.89788600000855,
                    "velocity": 0.33858267716535434,
                    "duration": 0.14962600000001203
                },
                {
                    "name": "A2",
                    "midi": 45,
                    "time": 301.04751200000857,
                    "velocity": 0.33858267716535434,
                    "duration": 0.14962600000001203
                },
                {
                    "name": "C2",
                    "midi": 36,
                    "time": 301.1971380000086,
                    "velocity": 0.5196850393700787,
                    "duration": 0.14962600000001203
                },
                {
                    "name": "E2",
                    "midi": 40,
                    "time": 301.3467640000086,
                    "velocity": 0.3464566929133858,
                    "duration": 0.14962600000001203
                },
                {
                    "name": "G#2",
                    "midi": 44,
                    "time": 301.4963900000086,
                    "velocity": 0.3464566929133858,
                    "duration": 0.14962600000001203
                },
                {
                    "name": "A2",
                    "midi": 45,
                    "time": 301.6460160000086,
                    "velocity": 0.3937007874015748,
                    "duration": 0.14962600000001203
                },
                {
                    "name": "C3",
                    "midi": 48,
                    "time": 301.7956420000086,
                    "velocity": 0.3228346456692913,
                    "duration": 0.14962600000001203
                },
                {
                    "name": "A3",
                    "midi": 57,
                    "time": 301.94526800000864,
                    "velocity": 0.3228346456692913,
                    "duration": 0.14962600000001203
                },
                {
                    "name": "G2",
                    "midi": 43,
                    "time": 302.09489400000865,
                    "velocity": 0.3937007874015748,
                    "duration": 0.14962600000001203
                },
                {
                    "name": "C3",
                    "midi": 48,
                    "time": 302.24452000000866,
                    "velocity": 0.3464566929133858,
                    "duration": 0.14962600000001203
                },
                {
                    "name": "G3",
                    "midi": 55,
                    "time": 302.3941460000087,
                    "velocity": 0.3464566929133858,
                    "duration": 0.14962600000001203
                },
                {
                    "name": "F2",
                    "midi": 41,
                    "time": 302.5437720000087,
                    "velocity": 0.3937007874015748,
                    "duration": 0.14962600000001203
                },
                {
                    "name": "C3",
                    "midi": 48,
                    "time": 302.6933980000087,
                    "velocity": 0.31496062992125984,
                    "duration": 0.14962600000001203
                },
                {
                    "name": "F3",
                    "midi": 53,
                    "time": 302.8430240000087,
                    "velocity": 0.31496062992125984,
                    "duration": 0.14962600000001203
                },
                {
                    "name": "F#2",
                    "midi": 42,
                    "time": 302.9926500000087,
                    "velocity": 0.3937007874015748,
                    "duration": 0.14962600000001203
                },
                {
                    "name": "D3",
                    "midi": 50,
                    "time": 303.14227600000874,
                    "velocity": 0.3228346456692913,
                    "duration": 0.14962600000001203
                },
                {
                    "name": "F#3",
                    "midi": 54,
                    "time": 303.29190200000875,
                    "velocity": 0.3228346456692913,
                    "duration": 0.14962600000001203
                },
                {
                    "name": "G2",
                    "midi": 43,
                    "time": 303.44152800000876,
                    "velocity": 0.3937007874015748,
                    "duration": 0.14962600000001203
                },
                {
                    "name": "D3",
                    "midi": 50,
                    "time": 303.59115400000877,
                    "velocity": 0.33070866141732286,
                    "duration": 0.14962600000001203
                },
                {
                    "name": "G3",
                    "midi": 55,
                    "time": 303.7407800000088,
                    "velocity": 0.33070866141732286,
                    "duration": 0.14962600000001203
                },
                {
                    "name": "F2",
                    "midi": 41,
                    "time": 303.8904060000088,
                    "velocity": 0.3937007874015748,
                    "duration": 0.14962600000001203
                },
                {
                    "name": "G2",
                    "midi": 43,
                    "time": 304.0400320000088,
                    "velocity": 0.33070866141732286,
                    "duration": 0.14962600000001203
                },
                {
                    "name": "F3",
                    "midi": 53,
                    "time": 304.1896580000088,
                    "velocity": 0.33070866141732286,
                    "duration": 0.14962600000001203
                },
                {
                    "name": "E2",
                    "midi": 40,
                    "time": 304.33928400000883,
                    "velocity": 0.3700787401574803,
                    "duration": 0.14962600000001203
                },
                {
                    "name": "G2",
                    "midi": 43,
                    "time": 304.48891000000884,
                    "velocity": 0.28346456692913385,
                    "duration": 0.14962600000001203
                },
                {
                    "name": "E3",
                    "midi": 52,
                    "time": 304.63853600000886,
                    "velocity": 0.2677165354330709,
                    "duration": 0.14962600000001203
                },
                {
                    "name": "D2",
                    "midi": 38,
                    "time": 304.78816200000887,
                    "velocity": 0.3228346456692913,
                    "duration": 0.14962600000001203
                },
                {
                    "name": "G2",
                    "midi": 43,
                    "time": 304.9377880000089,
                    "velocity": 0.23622047244094488,
                    "duration": 0.14962600000001203
                },
                {
                    "name": "D3",
                    "midi": 50,
                    "time": 305.0874140000089,
                    "velocity": 0.2283464566929134,
                    "duration": 0.14962600000001203
                },
                {
                    "name": "C3",
                    "midi": 48,
                    "time": 305.2370400000089,
                    "velocity": 0.29133858267716534,
                    "duration": 0.14962600000001203
                },
                {
                    "name": "C2",
                    "midi": 36,
                    "time": 305.68591800000894,
                    "velocity": 0.5196850393700787,
                    "duration": 0.14962600000001203
                },
                {
                    "name": "E2",
                    "midi": 40,
                    "time": 305.83554400000895,
                    "velocity": 0.3464566929133858,
                    "duration": 0.14962600000001203
                },
                {
                    "name": "G#2",
                    "midi": 44,
                    "time": 305.98517000000896,
                    "velocity": 0.3464566929133858,
                    "duration": 0.14962600000001203
                },
                {
                    "name": "A2",
                    "midi": 45,
                    "time": 306.134796000009,
                    "velocity": 0.5196850393700787,
                    "duration": 0.14962600000001203
                },
                {
                    "name": "B2",
                    "midi": 47,
                    "time": 306.284422000009,
                    "velocity": 0.3228346456692913,
                    "duration": 0.14962600000001203
                },
                {
                    "name": "A2",
                    "midi": 45,
                    "time": 306.434048000009,
                    "velocity": 0.3228346456692913,
                    "duration": 0.14962600000001203
                },
                {
                    "name": "C2",
                    "midi": 36,
                    "time": 306.583674000009,
                    "velocity": 0.5196850393700787,
                    "duration": 0.14962600000001203
                },
                {
                    "name": "E2",
                    "midi": 40,
                    "time": 306.733300000009,
                    "velocity": 0.36220472440944884,
                    "duration": 0.14962600000001203
                },
                {
                    "name": "G#2",
                    "midi": 44,
                    "time": 306.88292600000904,
                    "velocity": 0.36220472440944884,
                    "duration": 0.14962600000001203
                },
                {
                    "name": "A2",
                    "midi": 45,
                    "time": 307.03255200000905,
                    "velocity": 0.5196850393700787,
                    "duration": 0.14962600000001203
                },
                {
                    "name": "B2",
                    "midi": 47,
                    "time": 307.18217800000906,
                    "velocity": 0.33858267716535434,
                    "duration": 0.14962600000001203
                },
                {
                    "name": "A2",
                    "midi": 45,
                    "time": 307.3318040000091,
                    "velocity": 0.33858267716535434,
                    "duration": 0.14962600000001203
                },
                {
                    "name": "C2",
                    "midi": 36,
                    "time": 307.4814300000091,
                    "velocity": 0.5196850393700787,
                    "duration": 0.14962600000001203
                },
                {
                    "name": "E2",
                    "midi": 40,
                    "time": 307.6310560000091,
                    "velocity": 0.36220472440944884,
                    "duration": 0.14962600000001203
                },
                {
                    "name": "G#2",
                    "midi": 44,
                    "time": 307.7806820000091,
                    "velocity": 0.36220472440944884,
                    "duration": 0.14962600000001203
                },
                {
                    "name": "A2",
                    "midi": 45,
                    "time": 307.9303080000091,
                    "velocity": 0.5196850393700787,
                    "duration": 0.14962600000001203
                },
                {
                    "name": "B2",
                    "midi": 47,
                    "time": 308.07993400000913,
                    "velocity": 0.33858267716535434,
                    "duration": 0.14962600000001203
                },
                {
                    "name": "A2",
                    "midi": 45,
                    "time": 308.22956000000914,
                    "velocity": 0.33858267716535434,
                    "duration": 0.14962600000001203
                },
                {
                    "name": "C2",
                    "midi": 36,
                    "time": 308.37918600000916,
                    "velocity": 0.5196850393700787,
                    "duration": 0.14962600000001203
                },
                {
                    "name": "E2",
                    "midi": 40,
                    "time": 308.52881200000917,
                    "velocity": 0.3464566929133858,
                    "duration": 0.14962600000001203
                },
                {
                    "name": "G#2",
                    "midi": 44,
                    "time": 308.6784380000092,
                    "velocity": 0.3464566929133858,
                    "duration": 0.14962600000001203
                },
                {
                    "name": "A2",
                    "midi": 45,
                    "time": 308.8280640000092,
                    "velocity": 0.3937007874015748,
                    "duration": 0.14962600000001203
                },
                {
                    "name": "C3",
                    "midi": 48,
                    "time": 308.9776900000092,
                    "velocity": 0.3228346456692913,
                    "duration": 0.14962600000001203
                },
                {
                    "name": "A3",
                    "midi": 57,
                    "time": 309.1273160000092,
                    "velocity": 0.3228346456692913,
                    "duration": 0.14962600000001203
                },
                {
                    "name": "G2",
                    "midi": 43,
                    "time": 309.2769420000092,
                    "velocity": 0.3937007874015748,
                    "duration": 0.14962600000001203
                },
                {
                    "name": "C3",
                    "midi": 48,
                    "time": 309.42656800000924,
                    "velocity": 0.3464566929133858,
                    "duration": 0.14962600000001203
                },
                {
                    "name": "G3",
                    "midi": 55,
                    "time": 309.57619400000925,
                    "velocity": 0.3464566929133858,
                    "duration": 0.14962600000001203
                },
                {
                    "name": "F2",
                    "midi": 41,
                    "time": 309.72582000000926,
                    "velocity": 0.3937007874015748,
                    "duration": 0.14962600000001203
                },
                {
                    "name": "C3",
                    "midi": 48,
                    "time": 309.8754460000093,
                    "velocity": 0.31496062992125984,
                    "duration": 0.14962600000001203
                },
                {
                    "name": "F3",
                    "midi": 53,
                    "time": 310.0250720000093,
                    "velocity": 0.31496062992125984,
                    "duration": 0.14962600000001203
                },
                {
                    "name": "F#2",
                    "midi": 42,
                    "time": 310.1746980000093,
                    "velocity": 0.3937007874015748,
                    "duration": 0.14962600000001203
                },
                {
                    "name": "D3",
                    "midi": 50,
                    "time": 310.3243240000093,
                    "velocity": 0.3228346456692913,
                    "duration": 0.14962600000001203
                },
                {
                    "name": "F#3",
                    "midi": 54,
                    "time": 310.4739500000093,
                    "velocity": 0.3228346456692913,
                    "duration": 0.14962600000001203
                },
                {
                    "name": "G2",
                    "midi": 43,
                    "time": 310.62357600000934,
                    "velocity": 0.3937007874015748,
                    "duration": 0.14962600000001203
                },
                {
                    "name": "D3",
                    "midi": 50,
                    "time": 310.77320200000935,
                    "velocity": 0.3464566929133858,
                    "duration": 0.14962600000001203
                },
                {
                    "name": "G3",
                    "midi": 55,
                    "time": 310.92282800000936,
                    "velocity": 0.3858267716535433,
                    "duration": 0.14962600000001203
                },
                {
                    "name": "F2",
                    "midi": 41,
                    "time": 311.0724540000094,
                    "velocity": 0.4251968503937008,
                    "duration": 0.14962600000001203
                },
                {
                    "name": "G2",
                    "midi": 43,
                    "time": 311.2220800000094,
                    "velocity": 0.3464566929133858,
                    "duration": 0.14962600000001203
                },
                {
                    "name": "F3",
                    "midi": 53,
                    "time": 311.3717060000094,
                    "velocity": 0.3464566929133858,
                    "duration": 0.14962600000001203
                },
                {
                    "name": "E2",
                    "midi": 40,
                    "time": 311.5213320000094,
                    "velocity": 0.3858267716535433,
                    "duration": 0.14962600000001203
                },
                {
                    "name": "G2",
                    "midi": 43,
                    "time": 311.6709580000094,
                    "velocity": 0.2992125984251969,
                    "duration": 0.14962600000001203
                },
                {
                    "name": "E3",
                    "midi": 52,
                    "time": 311.82058400000943,
                    "velocity": 0.2992125984251969,
                    "duration": 0.14962600000001203
                },
                {
                    "name": "D2",
                    "midi": 38,
                    "time": 311.97021000000944,
                    "velocity": 0.3464566929133858,
                    "duration": 0.14962600000001203
                },
                {
                    "name": "G2",
                    "midi": 43,
                    "time": 312.11983600000946,
                    "velocity": 0.23622047244094488,
                    "duration": 0.14962600000001203
                },
                {
                    "name": "D3",
                    "midi": 50,
                    "time": 312.26946200000947,
                    "velocity": 0.2283464566929134,
                    "duration": 0.14962600000001203
                },
                {
                    "name": "C2",
                    "midi": 36,
                    "time": 312.4190880000095,
                    "velocity": 0.3858267716535433,
                    "duration": 0.14962600000001203
                },
                {
                    "name": "G2",
                    "midi": 43,
                    "time": 312.5687140000095,
                    "velocity": 0.2992125984251969,
                    "duration": 0.14962600000001203
                },
                {
                    "name": "C3",
                    "midi": 48,
                    "time": 312.7183400000095,
                    "velocity": 0.2992125984251969,
                    "duration": 0.14962600000001203
                },
                {
                    "name": "E2",
                    "midi": 40,
                    "time": 312.8679660000095,
                    "velocity": 0.3464566929133858,
                    "duration": 0.14962600000001203
                },
                {
                    "name": "C3",
                    "midi": 48,
                    "time": 313.01759200000953,
                    "velocity": 0.23622047244094488,
                    "duration": 0.14962600000001203
                },
                {
                    "name": "E3",
                    "midi": 52,
                    "time": 313.16721800000954,
                    "velocity": 0.23622047244094488,
                    "duration": 0.14962600000001203
                },
                {
                    "name": "F2",
                    "midi": 41,
                    "time": 313.31684400000955,
                    "velocity": 0.33070866141732286,
                    "duration": 0.14962600000001203
                },
                {
                    "name": "C3",
                    "midi": 48,
                    "time": 313.46647000000956,
                    "velocity": 0.23622047244094488,
                    "duration": 0.14962600000001203
                },
                {
                    "name": "F3",
                    "midi": 53,
                    "time": 313.6160960000096,
                    "velocity": 0.23622047244094488,
                    "duration": 0.14962600000001203
                },
                {
                    "name": "F2",
                    "midi": 41,
                    "time": 313.7657220000096,
                    "velocity": 0.33070866141732286,
                    "duration": 0.14962600000001203
                },
                {
                    "name": "C3",
                    "midi": 48,
                    "time": 313.9153480000096,
                    "velocity": 0.2283464566929134,
                    "duration": 0.14962600000001203
                },
                {
                    "name": "F3",
                    "midi": 53,
                    "time": 314.0649740000096,
                    "velocity": 0.2283464566929134,
                    "duration": 0.14962600000001203
                },
                {
                    "name": "F#3",
                    "midi": 54,
                    "time": 314.2146000000096,
                    "velocity": 0.3858267716535433,
                    "duration": 0.14962600000001203
                },
                {
                    "name": "G2",
                    "midi": 43,
                    "time": 314.36422600000964,
                    "velocity": 0.2283464566929134,
                    "duration": 0.14962600000001203
                },
                {
                    "name": "F#3",
                    "midi": 54,
                    "time": 314.51385200000965,
                    "velocity": 0.36220472440944884,
                    "duration": 0.14962600000001203
                },
                {
                    "name": "G2",
                    "midi": 43,
                    "time": 314.66347800000966,
                    "velocity": 0.2677165354330709,
                    "duration": 0.14962600000001203
                },
                {
                    "name": "F#3",
                    "midi": 54,
                    "time": 314.8131040000097,
                    "velocity": 0.3700787401574803,
                    "duration": 0.14962600000001203
                },
                {
                    "name": "G2",
                    "midi": 43,
                    "time": 314.9627300000097,
                    "velocity": 0.2992125984251969,
                    "duration": 0.14962600000001203
                },
                {
                    "name": "G3",
                    "midi": 55,
                    "time": 315.1123560000097,
                    "velocity": 0.44881889763779526,
                    "duration": 1.0473820000000273
                },
                {
                    "name": "G2",
                    "midi": 43,
                    "time": 315.1123560000097,
                    "velocity": 0.3779527559055118,
                    "duration": 0.8977560000000153
                },
                {
                    "name": "C3",
                    "midi": 48,
                    "time": 316.0101120000097,
                    "velocity": 0.3464566929133858,
                    "duration": 0.14962600000001203
                },
                {
                    "name": "F2",
                    "midi": 41,
                    "time": 316.45899000000975,
                    "velocity": 0.5196850393700787,
                    "duration": 0.14962600000001203
                },
                {
                    "name": "A2",
                    "midi": 45,
                    "time": 316.60861600000976,
                    "velocity": 0.3464566929133858,
                    "duration": 0.14962600000001203
                },
                {
                    "name": "C#3",
                    "midi": 49,
                    "time": 316.7582420000098,
                    "velocity": 0.3464566929133858,
                    "duration": 0.14962600000001203
                },
                {
                    "name": "D3",
                    "midi": 50,
                    "time": 316.9078680000098,
                    "velocity": 0.5196850393700787,
                    "duration": 0.14962600000001203
                },
                {
                    "name": "E3",
                    "midi": 52,
                    "time": 317.0574940000098,
                    "velocity": 0.3228346456692913,
                    "duration": 0.14962600000001203
                },
                {
                    "name": "D3",
                    "midi": 50,
                    "time": 317.2071200000098,
                    "velocity": 0.3228346456692913,
                    "duration": 0.14962600000001203
                },
                {
                    "name": "F2",
                    "midi": 41,
                    "time": 317.3567460000098,
                    "velocity": 0.5196850393700787,
                    "duration": 0.14962600000001203
                },
                {
                    "name": "A2",
                    "midi": 45,
                    "time": 317.50637200000983,
                    "velocity": 0.36220472440944884,
                    "duration": 0.14962600000001203
                },
                {
                    "name": "C#3",
                    "midi": 49,
                    "time": 317.65599800000984,
                    "velocity": 0.36220472440944884,
                    "duration": 0.14962600000001203
                },
                {
                    "name": "D3",
                    "midi": 50,
                    "time": 317.80562400000986,
                    "velocity": 0.5196850393700787,
                    "duration": 0.14962600000001203
                },
                {
                    "name": "E3",
                    "midi": 52,
                    "time": 317.95525000000987,
                    "velocity": 0.33858267716535434,
                    "duration": 0.14962600000001203
                },
                {
                    "name": "D3",
                    "midi": 50,
                    "time": 318.1048760000099,
                    "velocity": 0.33858267716535434,
                    "duration": 0.14962600000001203
                },
                {
                    "name": "F2",
                    "midi": 41,
                    "time": 318.2545020000099,
                    "velocity": 0.5196850393700787,
                    "duration": 0.14962600000001203
                },
                {
                    "name": "A2",
                    "midi": 45,
                    "time": 318.4041280000099,
                    "velocity": 0.36220472440944884,
                    "duration": 0.14962600000001203
                },
                {
                    "name": "C#3",
                    "midi": 49,
                    "time": 318.5537540000099,
                    "velocity": 0.36220472440944884,
                    "duration": 0.14962600000001203
                },
                {
                    "name": "D3",
                    "midi": 50,
                    "time": 318.70338000000993,
                    "velocity": 0.5196850393700787,
                    "duration": 0.14962600000001203
                },
                {
                    "name": "E3",
                    "midi": 52,
                    "time": 318.85300600000994,
                    "velocity": 0.33858267716535434,
                    "duration": 0.14962600000001203
                },
                {
                    "name": "D3",
                    "midi": 50,
                    "time": 319.00263200000995,
                    "velocity": 0.33858267716535434,
                    "duration": 0.14962600000001203
                },
                {
                    "name": "F2",
                    "midi": 41,
                    "time": 319.15225800000997,
                    "velocity": 0.5196850393700787,
                    "duration": 0.14962600000001203
                },
                {
                    "name": "A2",
                    "midi": 45,
                    "time": 319.30188400001,
                    "velocity": 0.3464566929133858,
                    "duration": 0.14962600000001203
                },
                {
                    "name": "C#3",
                    "midi": 49,
                    "time": 319.45151000001,
                    "velocity": 0.3464566929133858,
                    "duration": 0.14962600000001203
                },
                {
                    "name": "D3",
                    "midi": 50,
                    "time": 319.60113600001,
                    "velocity": 0.3937007874015748,
                    "duration": 0.14962600000001203
                },
                {
                    "name": "F3",
                    "midi": 53,
                    "time": 319.75076200001,
                    "velocity": 0.3228346456692913,
                    "duration": 0.14962600000001203
                },
                {
                    "name": "D4",
                    "midi": 62,
                    "time": 319.90038800001,
                    "velocity": 0.2992125984251969,
                    "duration": 0.14962600000001203
                },
                {
                    "name": "C3",
                    "midi": 48,
                    "time": 320.05001400001004,
                    "velocity": 0.3937007874015748,
                    "duration": 0.14962600000001203
                },
                {
                    "name": "F3",
                    "midi": 53,
                    "time": 320.19964000001005,
                    "velocity": 0.3464566929133858,
                    "duration": 0.14962600000001203
                },
                {
                    "name": "C4",
                    "midi": 60,
                    "time": 320.34926600001006,
                    "velocity": 0.28346456692913385,
                    "duration": 0.14962600000001203
                },
                {
                    "name": "A#2",
                    "midi": 46,
                    "time": 320.4988920000101,
                    "velocity": 0.3937007874015748,
                    "duration": 0.14962600000001203
                },
                {
                    "name": "D3",
                    "midi": 50,
                    "time": 320.6485180000101,
                    "velocity": 0.31496062992125984,
                    "duration": 0.14962600000001203
                },
                {
                    "name": "A#3",
                    "midi": 58,
                    "time": 320.7981440000101,
                    "velocity": 0.28346456692913385,
                    "duration": 0.14962600000001203
                },
                {
                    "name": "B2",
                    "midi": 47,
                    "time": 320.9477700000101,
                    "velocity": 0.3937007874015748,
                    "duration": 0.14962600000001203
                },
                {
                    "name": "D3",
                    "midi": 50,
                    "time": 321.0973960000101,
                    "velocity": 0.3228346456692913,
                    "duration": 0.14962600000001203
                },
                {
                    "name": "B3",
                    "midi": 59,
                    "time": 321.24702200001013,
                    "velocity": 0.25196850393700787,
                    "duration": 0.14962600000001203
                },
                {
                    "name": "C3",
                    "midi": 48,
                    "time": 321.39664800001015,
                    "velocity": 0.3937007874015748,
                    "duration": 0.14962600000001203
                },
                {
                    "name": "G3",
                    "midi": 55,
                    "time": 321.54627400001016,
                    "velocity": 0.31496062992125984,
                    "duration": 0.14962600000001203
                },
                {
                    "name": "C4",
                    "midi": 60,
                    "time": 321.69590000001017,
                    "velocity": 0.2992125984251969,
                    "duration": 0.14962600000001203
                },
                {
                    "name": "C3",
                    "midi": 48,
                    "time": 321.8455260000102,
                    "velocity": 0.36220472440944884,
                    "duration": 0.14962600000001203
                },
                {
                    "name": "F3",
                    "midi": 53,
                    "time": 321.9951520000102,
                    "velocity": 0.25196850393700787,
                    "duration": 0.14962600000001203
                },
                {
                    "name": "B3",
                    "midi": 59,
                    "time": 322.1447780000102,
                    "velocity": 0.23622047244094488,
                    "duration": 0.14962600000001203
                },
                {
                    "name": "C3",
                    "midi": 48,
                    "time": 322.2944040000102,
                    "velocity": 0.3700787401574803,
                    "duration": 0.14962600000001203
                },
                {
                    "name": "E3",
                    "midi": 52,
                    "time": 322.44403000001023,
                    "velocity": 0.28346456692913385,
                    "duration": 0.14962600000001203
                },
                {
                    "name": "C4",
                    "midi": 60,
                    "time": 322.59365600001024,
                    "velocity": 0.23622047244094488,
                    "duration": 0.14962600000001203
                },
                {
                    "name": "C3",
                    "midi": 48,
                    "time": 322.74328200001025,
                    "velocity": 0.3228346456692913,
                    "duration": 0.14962600000001203
                },
                {
                    "name": "G3",
                    "midi": 55,
                    "time": 322.89290800001027,
                    "velocity": 0.23622047244094488,
                    "duration": 0.14962600000001203
                },
                {
                    "name": "C4",
                    "midi": 60,
                    "time": 323.0425340000103,
                    "velocity": 0.2283464566929134,
                    "duration": 0.14962600000001203
                },
                {
                    "name": "F3",
                    "midi": 53,
                    "time": 323.1921600000103,
                    "velocity": 0.29133858267716534,
                    "duration": 0.14962600000001203
                },
                {
                    "name": "F2",
                    "midi": 41,
                    "time": 323.6410380000103,
                    "velocity": 0.5196850393700787,
                    "duration": 0.14962600000001203
                },
                {
                    "name": "A2",
                    "midi": 45,
                    "time": 323.79066400001034,
                    "velocity": 0.3464566929133858,
                    "duration": 0.14962600000001203
                },
                {
                    "name": "C#3",
                    "midi": 49,
                    "time": 323.94029000001035,
                    "velocity": 0.3464566929133858,
                    "duration": 0.14962600000001203
                },
                {
                    "name": "D3",
                    "midi": 50,
                    "time": 324.08991600001036,
                    "velocity": 0.5196850393700787,
                    "duration": 0.14962600000001203
                },
                {
                    "name": "E3",
                    "midi": 52,
                    "time": 324.2395420000104,
                    "velocity": 0.3228346456692913,
                    "duration": 0.14962600000001203
                },
                {
                    "name": "D3",
                    "midi": 50,
                    "time": 324.3891680000104,
                    "velocity": 0.3228346456692913,
                    "duration": 0.14962600000001203
                },
                {
                    "name": "C#2",
                    "midi": 37,
                    "time": 324.5387940000104,
                    "velocity": 0.5196850393700787,
                    "duration": 0.14962600000001203
                },
                {
                    "name": "E2",
                    "midi": 40,
                    "time": 324.6884200000104,
                    "velocity": 0.36220472440944884,
                    "duration": 0.14962600000001203
                },
                {
                    "name": "A2",
                    "midi": 45,
                    "time": 324.8380460000104,
                    "velocity": 0.36220472440944884,
                    "duration": 0.14962600000001203
                },
                {
                    "name": "D2",
                    "midi": 38,
                    "time": 324.98767200001043,
                    "velocity": 0.5196850393700787,
                    "duration": 0.14962600000001203
                },
                {
                    "name": "F2",
                    "midi": 41,
                    "time": 325.13729800001045,
                    "velocity": 0.33858267716535434,
                    "duration": 0.14962600000001203
                },
                {
                    "name": "A2",
                    "midi": 45,
                    "time": 325.28692400001046,
                    "velocity": 0.33858267716535434,
                    "duration": 0.14962600000001203
                },
                {
                    "name": "A2",
                    "midi": 45,
                    "time": 325.43655000001047,
                    "velocity": 0.5196850393700787,
                    "duration": 0.14962600000001203
                },
                {
                    "name": "C3",
                    "midi": 48,
                    "time": 325.5861760000105,
                    "velocity": 0.36220472440944884,
                    "duration": 0.14962600000001203
                },
                {
                    "name": "E3",
                    "midi": 52,
                    "time": 325.7358020000105,
                    "velocity": 0.36220472440944884,
                    "duration": 0.14962600000001203
                },
                {
                    "name": "F3",
                    "midi": 53,
                    "time": 325.8854280000105,
                    "velocity": 0.5196850393700787,
                    "duration": 0.14962600000001203
                },
                {
                    "name": "G3",
                    "midi": 55,
                    "time": 326.0350540000105,
                    "velocity": 0.33858267716535434,
                    "duration": 0.14962600000001203
                },
                {
                    "name": "F3",
                    "midi": 53,
                    "time": 326.18468000001053,
                    "velocity": 0.33858267716535434,
                    "duration": 0.14962600000001203
                },
                {
                    "name": "E2",
                    "midi": 40,
                    "time": 326.33430600001054,
                    "velocity": 0.5196850393700787,
                    "duration": 0.14962600000001203
                },
                {
                    "name": "G#2",
                    "midi": 44,
                    "time": 326.48393200001055,
                    "velocity": 0.36220472440944884,
                    "duration": 0.14962600000001203
                },
                {
                    "name": "C3",
                    "midi": 48,
                    "time": 326.63355800001057,
                    "velocity": 0.36220472440944884,
                    "duration": 0.14962600000001203
                },
                {
                    "name": "F2",
                    "midi": 41,
                    "time": 326.7831840000106,
                    "velocity": 0.5196850393700787,
                    "duration": 0.14962600000001203
                },
                {
                    "name": "A2",
                    "midi": 45,
                    "time": 326.9328100000106,
                    "velocity": 0.33858267716535434,
                    "duration": 0.14962600000001203
                },
                {
                    "name": "C3",
                    "midi": 48,
                    "time": 327.0824360000106,
                    "velocity": 0.33858267716535434,
                    "duration": 0.14962600000001203
                },
                {
                    "name": "G#2",
                    "midi": 44,
                    "time": 327.2320620000106,
                    "velocity": 0.5196850393700787,
                    "duration": 0.14962600000001203
                },
                {
                    "name": "C3",
                    "midi": 48,
                    "time": 327.3816880000106,
                    "velocity": 0.3464566929133858,
                    "duration": 0.14962600000001203
                },
                {
                    "name": "E3",
                    "midi": 52,
                    "time": 327.53131400001064,
                    "velocity": 0.3464566929133858,
                    "duration": 0.14962600000001203
                },
                {
                    "name": "A2",
                    "midi": 45,
                    "time": 327.68094000001065,
                    "velocity": 0.3937007874015748,
                    "duration": 0.14962600000001203
                },
                {
                    "name": "C3",
                    "midi": 48,
                    "time": 327.83056600001066,
                    "velocity": 0.3228346456692913,
                    "duration": 0.14962600000001203
                },
                {
                    "name": "A3",
                    "midi": 57,
                    "time": 327.9801920000107,
                    "velocity": 0.3228346456692913,
                    "duration": 0.14962600000001203
                },
                {
                    "name": "G2",
                    "midi": 43,
                    "time": 328.1298180000107,
                    "velocity": 0.3937007874015748,
                    "duration": 0.14962600000001203
                },
                {
                    "name": "C3",
                    "midi": 48,
                    "time": 328.2794440000107,
                    "velocity": 0.3464566929133858,
                    "duration": 0.14962600000001203
                },
                {
                    "name": "G3",
                    "midi": 55,
                    "time": 328.4290700000107,
                    "velocity": 0.3464566929133858,
                    "duration": 0.14962600000001203
                },
                {
                    "name": "F2",
                    "midi": 41,
                    "time": 328.5786960000107,
                    "velocity": 0.3937007874015748,
                    "duration": 0.14962600000001203
                },
                {
                    "name": "C3",
                    "midi": 48,
                    "time": 328.72832200001073,
                    "velocity": 0.31496062992125984,
                    "duration": 0.14962600000001203
                },
                {
                    "name": "F3",
                    "midi": 53,
                    "time": 328.87794800001075,
                    "velocity": 0.31496062992125984,
                    "duration": 0.14962600000001203
                },
                {
                    "name": "F#2",
                    "midi": 42,
                    "time": 329.02757400001076,
                    "velocity": 0.3937007874015748,
                    "duration": 0.14962600000001203
                },
                {
                    "name": "D3",
                    "midi": 50,
                    "time": 329.17720000001077,
                    "velocity": 0.3228346456692913,
                    "duration": 0.14962600000001203
                },
                {
                    "name": "F#3",
                    "midi": 54,
                    "time": 329.3268260000108,
                    "velocity": 0.3228346456692913,
                    "duration": 0.14962600000001203
                },
                {
                    "name": "G2",
                    "midi": 43,
                    "time": 329.4764520000108,
                    "velocity": 0.3937007874015748,
                    "duration": 0.14962600000001203
                },
                {
                    "name": "D3",
                    "midi": 50,
                    "time": 329.6260780000108,
                    "velocity": 0.3464566929133858,
                    "duration": 0.14962600000001203
                },
                {
                    "name": "G3",
                    "midi": 55,
                    "time": 329.7757040000108,
                    "velocity": 0.3858267716535433,
                    "duration": 0.14962600000001203
                },
                {
                    "name": "F2",
                    "midi": 41,
                    "time": 329.92533000001083,
                    "velocity": 0.4251968503937008,
                    "duration": 0.14962600000001203
                },
                {
                    "name": "G2",
                    "midi": 43,
                    "time": 330.07495600001084,
                    "velocity": 0.3464566929133858,
                    "duration": 0.14962600000001203
                },
                {
                    "name": "F3",
                    "midi": 53,
                    "time": 330.22458200001086,
                    "velocity": 0.3464566929133858,
                    "duration": 0.14962600000001203
                },
                {
                    "name": "E2",
                    "midi": 40,
                    "time": 330.37420800001087,
                    "velocity": 0.3858267716535433,
                    "duration": 0.14962600000001203
                },
                {
                    "name": "G2",
                    "midi": 43,
                    "time": 330.5238340000109,
                    "velocity": 0.2992125984251969,
                    "duration": 0.14962600000001203
                },
                {
                    "name": "E3",
                    "midi": 52,
                    "time": 330.6734600000109,
                    "velocity": 0.2992125984251969,
                    "duration": 0.14962600000001203
                },
                {
                    "name": "D2",
                    "midi": 38,
                    "time": 330.8230860000109,
                    "velocity": 0.3464566929133858,
                    "duration": 0.14962600000001203
                },
                {
                    "name": "G2",
                    "midi": 43,
                    "time": 330.9727120000109,
                    "velocity": 0.23622047244094488,
                    "duration": 0.14962600000001203
                },
                {
                    "name": "D3",
                    "midi": 50,
                    "time": 331.1223380000109,
                    "velocity": 0.2283464566929134,
                    "duration": 0.14962600000001203
                },
                {
                    "name": "C2",
                    "midi": 36,
                    "time": 331.27196400001094,
                    "velocity": 0.3858267716535433,
                    "duration": 0.14962600000001203
                },
                {
                    "name": "G2",
                    "midi": 43,
                    "time": 331.42159000001095,
                    "velocity": 0.2992125984251969,
                    "duration": 0.14962600000001203
                },
                {
                    "name": "C3",
                    "midi": 48,
                    "time": 331.57121600001096,
                    "velocity": 0.2992125984251969,
                    "duration": 0.14962600000001203
                },
                {
                    "name": "E2",
                    "midi": 40,
                    "time": 331.720842000011,
                    "velocity": 0.3464566929133858,
                    "duration": 0.14962600000001203
                },
                {
                    "name": "C3",
                    "midi": 48,
                    "time": 331.870468000011,
                    "velocity": 0.23622047244094488,
                    "duration": 0.14962600000001203
                },
                {
                    "name": "E3",
                    "midi": 52,
                    "time": 332.020094000011,
                    "velocity": 0.23622047244094488,
                    "duration": 0.14962600000001203
                },
                {
                    "name": "F2",
                    "midi": 41,
                    "time": 332.169720000011,
                    "velocity": 0.33070866141732286,
                    "duration": 0.14962600000001203
                },
                {
                    "name": "C3",
                    "midi": 48,
                    "time": 332.319346000011,
                    "velocity": 0.23622047244094488,
                    "duration": 0.14962600000001203
                },
                {
                    "name": "F3",
                    "midi": 53,
                    "time": 332.46897200001104,
                    "velocity": 0.23622047244094488,
                    "duration": 0.14962600000001203
                },
                {
                    "name": "F2",
                    "midi": 41,
                    "time": 332.61859800001105,
                    "velocity": 0.33070866141732286,
                    "duration": 0.14962600000001203
                },
                {
                    "name": "C3",
                    "midi": 48,
                    "time": 332.76822400001106,
                    "velocity": 0.2283464566929134,
                    "duration": 0.14962600000001203
                },
                {
                    "name": "F3",
                    "midi": 53,
                    "time": 332.9178500000111,
                    "velocity": 0.2283464566929134,
                    "duration": 0.14962600000001203
                },
                {
                    "name": "F#3",
                    "midi": 54,
                    "time": 333.0674760000111,
                    "velocity": 0.3858267716535433,
                    "duration": 0.14962600000001203
                },
                {
                    "name": "G2",
                    "midi": 43,
                    "time": 333.2171020000111,
                    "velocity": 0.2283464566929134,
                    "duration": 0.14962600000001203
                },
                {
                    "name": "F#3",
                    "midi": 54,
                    "time": 333.3667280000111,
                    "velocity": 0.36220472440944884,
                    "duration": 0.14962600000001203
                },
                {
                    "name": "G2",
                    "midi": 43,
                    "time": 333.5163540000111,
                    "velocity": 0.2677165354330709,
                    "duration": 0.14962600000001203
                },
                {
                    "name": "F#3",
                    "midi": 54,
                    "time": 333.66598000001113,
                    "velocity": 0.3700787401574803,
                    "duration": 0.14962600000001203
                },
                {
                    "name": "G2",
                    "midi": 43,
                    "time": 333.81560600001114,
                    "velocity": 0.2992125984251969,
                    "duration": 0.14962599999995518
                },
                {
                    "name": "G3",
                    "midi": 55,
                    "time": 333.9278255000111,
                    "velocity": 0.33070866141732286,
                    "duration": 0.037406499999974585
                },
                {
                    "name": "F4",
                    "midi": 65,
                    "time": 333.9652320000111,
                    "velocity": 0.3779527559055118,
                    "duration": 0.8603494999999839
                },
                {
                    "name": "B4",
                    "midi": 71,
                    "time": 333.9652320000111,
                    "velocity": 0.44881889763779526,
                    "duration": 0.8603494999999839
                },
                {
                    "name": "C3",
                    "midi": 48,
                    "time": 334.8255815000111,
                    "velocity": 0.29133858267716534,
                    "duration": 0.09351625000005015
                },
                {
                    "name": "G3",
                    "midi": 55,
                    "time": 334.8380503333444,
                    "velocity": 0.29133858267716534,
                    "duration": 0.08728183333334982
                },
                {
                    "name": "C4",
                    "midi": 60,
                    "time": 334.85051916667777,
                    "velocity": 0.29133858267716534,
                    "duration": 0.0810474166666495
                },
                {
                    "name": "E4",
                    "midi": 64,
                    "time": 334.8629880000111,
                    "velocity": 0.3464566929133858,
                    "duration": 0.07481299999994917
                },
                {
                    "name": "F#3",
                    "midi": 54,
                    "time": 335.31186600001104,
                    "velocity": 0.4566929133858268,
                    "duration": 0.14962600000001203
                },
                {
                    "name": "E3",
                    "midi": 52,
                    "time": 335.46149200001105,
                    "velocity": 0.3858267716535433,
                    "duration": 0.14962600000001203
                },
                {
                    "name": "F#3",
                    "midi": 54,
                    "time": 335.61111800001106,
                    "velocity": 0.3858267716535433,
                    "duration": 0.14962600000001203
                },
                {
                    "name": "G3",
                    "midi": 55,
                    "time": 335.7607440000111,
                    "velocity": 0.4566929133858268,
                    "duration": 0.14962600000001203
                },
                {
                    "name": "D3",
                    "midi": 50,
                    "time": 335.9103700000111,
                    "velocity": 0.4094488188976378,
                    "duration": 0.14962600000001203
                },
                {
                    "name": "G2",
                    "midi": 43,
                    "time": 336.0599960000111,
                    "velocity": 0.4094488188976378,
                    "duration": 0.14962600000001203
                },
                {
                    "name": "F#3",
                    "midi": 54,
                    "time": 336.2096220000111,
                    "velocity": 0.4566929133858268,
                    "duration": 0.14962600000001203
                },
                {
                    "name": "E3",
                    "midi": 52,
                    "time": 336.3592480000111,
                    "velocity": 0.4094488188976378,
                    "duration": 0.14962600000001203
                },
                {
                    "name": "F#3",
                    "midi": 54,
                    "time": 336.50887400001113,
                    "velocity": 0.4094488188976378,
                    "duration": 0.14962600000001203
                },
                {
                    "name": "G3",
                    "midi": 55,
                    "time": 336.65850000001114,
                    "velocity": 0.4566929133858268,
                    "duration": 0.14962600000001203
                },
                {
                    "name": "D3",
                    "midi": 50,
                    "time": 336.80812600001116,
                    "velocity": 0.4094488188976378,
                    "duration": 0.14962600000001203
                },
                {
                    "name": "G2",
                    "midi": 43,
                    "time": 336.95775200001117,
                    "velocity": 0.4094488188976378,
                    "duration": 0.14962600000001203
                },
                {
                    "name": "G3",
                    "midi": 55,
                    "time": 337.1073780000112,
                    "velocity": 0.44881889763779526,
                    "duration": 0.07481300000000601
                },
                {
                    "name": "D4",
                    "midi": 62,
                    "time": 337.1073780000112,
                    "velocity": 0.44881889763779526,
                    "duration": 0.07481300000000601
                },
                {
                    "name": "G4",
                    "midi": 67,
                    "time": 337.1073780000112,
                    "velocity": 0.5354330708661418,
                    "duration": 0.07481300000000601
                },
                {
                    "name": "F4",
                    "midi": 65,
                    "time": 337.1073780000112,
                    "velocity": 0.44881889763779526,
                    "duration": 0.07481300000000601
                },
                {
                    "name": "C3",
                    "midi": 48,
                    "time": 337.5188495000112,
                    "velocity": 0.4094488188976378,
                    "duration": 0.1122194999999806
                },
                {
                    "name": "G3",
                    "midi": 55,
                    "time": 337.5375527500112,
                    "velocity": 0.4094488188976378,
                    "duration": 0.0935162499999933
                },
                {
                    "name": "E4",
                    "midi": 64,
                    "time": 337.55625600001116,
                    "velocity": 0.4881889763779528,
                    "duration": 0.07481300000000601
                },
                {
                    "name": "D4",
                    "midi": 62,
                    "time": 338.00513400001114,
                    "velocity": 0.4566929133858268,
                    "duration": 0.07481300000000601
                },
                {
                    "name": "F4",
                    "midi": 65,
                    "time": 338.00513400001114,
                    "velocity": 0.4566929133858268,
                    "duration": 0.07481300000000601
                },
                {
                    "name": "G4",
                    "midi": 67,
                    "time": 338.00513400001114,
                    "velocity": 0.5433070866141733,
                    "duration": 0.07481300000000601
                },
                {
                    "name": "G3",
                    "midi": 55,
                    "time": 338.00513400001114,
                    "velocity": 0.4566929133858268,
                    "duration": 0.07481300000000601
                },
                {
                    "name": "C3",
                    "midi": 48,
                    "time": 338.41660550001114,
                    "velocity": 0.41732283464566927,
                    "duration": 0.1122194999999806
                },
                {
                    "name": "G3",
                    "midi": 55,
                    "time": 338.43530875001113,
                    "velocity": 0.41732283464566927,
                    "duration": 0.0935162499999933
                },
                {
                    "name": "E4",
                    "midi": 64,
                    "time": 338.4540120000111,
                    "velocity": 0.49606299212598426,
                    "duration": 0.07481300000000601
                },
                {
                    "name": "F#3",
                    "midi": 54,
                    "time": 338.9028900000111,
                    "velocity": 0.4566929133858268,
                    "duration": 0.14962600000001203
                },
                {
                    "name": "E3",
                    "midi": 52,
                    "time": 339.0525160000111,
                    "velocity": 0.3858267716535433,
                    "duration": 0.14962600000001203
                },
                {
                    "name": "F#3",
                    "midi": 54,
                    "time": 339.2021420000111,
                    "velocity": 0.3858267716535433,
                    "duration": 0.14962600000001203
                },
                {
                    "name": "G3",
                    "midi": 55,
                    "time": 339.35176800001113,
                    "velocity": 0.4566929133858268,
                    "duration": 0.14962600000001203
                },
                {
                    "name": "D3",
                    "midi": 50,
                    "time": 339.50139400001115,
                    "velocity": 0.4094488188976378,
                    "duration": 0.14962600000001203
                },
                {
                    "name": "G2",
                    "midi": 43,
                    "time": 339.65102000001116,
                    "velocity": 0.4094488188976378,
                    "duration": 0.14962600000001203
                },
                {
                    "name": "F#3",
                    "midi": 54,
                    "time": 339.80064600001117,
                    "velocity": 0.4566929133858268,
                    "duration": 0.14962600000001203
                },
                {
                    "name": "E3",
                    "midi": 52,
                    "time": 339.9502720000112,
                    "velocity": 0.4094488188976378,
                    "duration": 0.14962600000001203
                },
                {
                    "name": "F#3",
                    "midi": 54,
                    "time": 340.0998980000112,
                    "velocity": 0.4094488188976378,
                    "duration": 0.14962600000001203
                },
                {
                    "name": "G3",
                    "midi": 55,
                    "time": 340.2495240000112,
                    "velocity": 0.4566929133858268,
                    "duration": 0.14962600000001203
                },
                {
                    "name": "D3",
                    "midi": 50,
                    "time": 340.3991500000112,
                    "velocity": 0.4094488188976378,
                    "duration": 0.14962600000001203
                },
                {
                    "name": "G2",
                    "midi": 43,
                    "time": 340.54877600001123,
                    "velocity": 0.4094488188976378,
                    "duration": 0.14962600000001203
                },
                {
                    "name": "F4",
                    "midi": 65,
                    "time": 340.69840200001124,
                    "velocity": 0.44881889763779526,
                    "duration": 0.07481300000000601
                },
                {
                    "name": "G4",
                    "midi": 67,
                    "time": 340.69840200001124,
                    "velocity": 0.5354330708661418,
                    "duration": 0.07481300000000601
                },
                {
                    "name": "D4",
                    "midi": 62,
                    "time": 340.69840200001124,
                    "velocity": 0.44881889763779526,
                    "duration": 0.07481300000000601
                },
                {
                    "name": "G3",
                    "midi": 55,
                    "time": 340.69840200001124,
                    "velocity": 0.44881889763779526,
                    "duration": 0.07481300000000601
                },
                {
                    "name": "C3",
                    "midi": 48,
                    "time": 341.10987350001125,
                    "velocity": 0.4094488188976378,
                    "duration": 0.1122194999999806
                },
                {
                    "name": "G3",
                    "midi": 55,
                    "time": 341.12857675001123,
                    "velocity": 0.4094488188976378,
                    "duration": 0.0935162499999933
                },
                {
                    "name": "E4",
                    "midi": 64,
                    "time": 341.1472800000112,
                    "velocity": 0.4881889763779528,
                    "duration": 0.07481300000000601
                },
                {
                    "name": "D4",
                    "midi": 62,
                    "time": 341.5961580000112,
                    "velocity": 0.4566929133858268,
                    "duration": 0.07481300000000601
                },
                {
                    "name": "G4",
                    "midi": 67,
                    "time": 341.5961580000112,
                    "velocity": 0.5433070866141733,
                    "duration": 0.07481300000000601
                },
                {
                    "name": "F4",
                    "midi": 65,
                    "time": 341.5961580000112,
                    "velocity": 0.4566929133858268,
                    "duration": 0.07481300000000601
                },
                {
                    "name": "G3",
                    "midi": 55,
                    "time": 341.5961580000112,
                    "velocity": 0.4566929133858268,
                    "duration": 0.07481300000000601
                },
                {
                    "name": "C3",
                    "midi": 48,
                    "time": 342.0076295000112,
                    "velocity": 0.41732283464566927,
                    "duration": 0.1122194999999806
                },
                {
                    "name": "G3",
                    "midi": 55,
                    "time": 342.0263327500112,
                    "velocity": 0.41732283464566927,
                    "duration": 0.0935162499999933
                },
                {
                    "name": "E4",
                    "midi": 64,
                    "time": 342.0450360000112,
                    "velocity": 0.49606299212598426,
                    "duration": 0.07481300000000601
                },
                {
                    "name": "A2",
                    "midi": 45,
                    "time": 342.4191010000112,
                    "velocity": 0.41732283464566927,
                    "duration": 0.14962599999995518
                },
                {
                    "name": "C3",
                    "midi": 48,
                    "time": 342.4565075000112,
                    "velocity": 0.41732283464566927,
                    "duration": 0.1122194999999806
                },
                {
                    "name": "E3",
                    "midi": 52,
                    "time": 342.4752107500112,
                    "velocity": 0.41732283464566927,
                    "duration": 0.0935162499999933
                },
                {
                    "name": "E4",
                    "midi": 64,
                    "time": 342.49391400001116,
                    "velocity": 0.49606299212598426,
                    "duration": 0.07481300000000601
                },
                {
                    "name": "G3",
                    "midi": 55,
                    "time": 342.94279200001114,
                    "velocity": 0.5039370078740157,
                    "duration": 0.14962600000001203
                },
                {
                    "name": "G2",
                    "midi": 43,
                    "time": 342.94279200001114,
                    "velocity": 0.4251968503937008,
                    "duration": 0.14962600000001203
                },
                {
                    "name": "C3",
                    "midi": 48,
                    "time": 343.09241800001115,
                    "velocity": 0.4251968503937008,
                    "duration": 0.14962600000001203
                },
                {
                    "name": "E3",
                    "midi": 52,
                    "time": 343.24204400001116,
                    "velocity": 0.4251968503937008,
                    "duration": 0.14962600000001203
                },
                {
                    "name": "C4",
                    "midi": 60,
                    "time": 343.3916700000112,
                    "velocity": 0.5039370078740157,
                    "duration": 0.14962600000001203
                },
                {
                    "name": "C3",
                    "midi": 48,
                    "time": 343.3916700000112,
                    "velocity": 0.4251968503937008,
                    "duration": 0.14962600000001203
                },
                {
                    "name": "E3",
                    "midi": 52,
                    "time": 343.5412960000112,
                    "velocity": 0.4409448818897638,
                    "duration": 0.14962600000001203
                },
                {
                    "name": "G3",
                    "midi": 55,
                    "time": 343.6909220000112,
                    "velocity": 0.4409448818897638,
                    "duration": 0.14962600000001203
                },
                {
                    "name": "E4",
                    "midi": 64,
                    "time": 343.8405480000112,
                    "velocity": 0.5039370078740157,
                    "duration": 0.14962600000001203
                },
                {
                    "name": "E3",
                    "midi": 52,
                    "time": 343.8405480000112,
                    "velocity": 0.4251968503937008,
                    "duration": 0.14962600000001203
                },
                {
                    "name": "G3",
                    "midi": 55,
                    "time": 343.9901740000112,
                    "velocity": 0.4645669291338583,
                    "duration": 0.14962600000001203
                },
                {
                    "name": "C4",
                    "midi": 60,
                    "time": 344.13980000001123,
                    "velocity": 0.4645669291338583,
                    "duration": 0.14962600000001203
                },
                {
                    "name": "G4",
                    "midi": 67,
                    "time": 344.28942600001125,
                    "velocity": 0.5039370078740157,
                    "duration": 0.14962600000001203
                },
                {
                    "name": "G3",
                    "midi": 55,
                    "time": 344.28942600001125,
                    "velocity": 0.4251968503937008,
                    "duration": 0.14962600000001203
                },
                {
                    "name": "C4",
                    "midi": 60,
                    "time": 344.43905200001126,
                    "velocity": 0.4409448818897638,
                    "duration": 0.14962600000001203
                },
                {
                    "name": "E4",
                    "midi": 64,
                    "time": 344.58867800001127,
                    "velocity": 0.4409448818897638,
                    "duration": 0.14962600000001203
                },
                {
                    "name": "G4",
                    "midi": 67,
                    "time": 344.7383040000113,
                    "velocity": 0.5669291338582677,
                    "duration": 0.07481300000000601
                },
                {
                    "name": "G2",
                    "midi": 43,
                    "time": 345.586184666678,
                    "velocity": 0.5039370078740157,
                    "duration": 0.12468833333338125
                },
                {
                    "name": "B2",
                    "midi": 47,
                    "time": 345.5986535000113,
                    "velocity": 0.5039370078740157,
                    "duration": 0.11221950000003744
                },
                {
                    "name": "D3",
                    "midi": 50,
                    "time": 345.61112233334467,
                    "velocity": 0.5039370078740157,
                    "duration": 0.09975066666669363
                },
                {
                    "name": "F3",
                    "midi": 53,
                    "time": 345.623591166678,
                    "velocity": 0.5039370078740157,
                    "duration": 0.08728183333334982
                },
                {
                    "name": "G3",
                    "midi": 55,
                    "time": 345.63606000001135,
                    "velocity": 0.5984251968503937,
                    "duration": 0.07481300000000601
                },
                {
                    "name": "C2",
                    "midi": 36,
                    "time": 346.53381600001137,
                    "velocity": 0.4409448818897638,
                    "duration": 0.14962600000001203
                },
                {
                    "name": "G2",
                    "midi": 43,
                    "time": 346.6834420000114,
                    "velocity": 0.3464566929133858,
                    "duration": 0.14962600000001203
                },
                {
                    "name": "C3",
                    "midi": 48,
                    "time": 346.8330680000114,
                    "velocity": 0.3858267716535433,
                    "duration": 0.14962600000001203
                },
                {
                    "name": "C2",
                    "midi": 36,
                    "time": 346.9826940000114,
                    "velocity": 0.44881889763779526,
                    "duration": 0.14962600000001203
                },
                {
                    "name": "G2",
                    "midi": 43,
                    "time": 347.1323200000114,
                    "velocity": 0.3700787401574803,
                    "duration": 0.14962600000001203
                },
                {
                    "name": "C3",
                    "midi": 48,
                    "time": 347.28194600001143,
                    "velocity": 0.3779527559055118,
                    "duration": 0.14962600000001203
                },
                {
                    "name": "C2",
                    "midi": 36,
                    "time": 347.43157200001144,
                    "velocity": 0.49606299212598426,
                    "duration": 0.14962600000001203
                },
                {
                    "name": "G2",
                    "midi": 43,
                    "time": 347.58119800001145,
                    "velocity": 0.4015748031496063,
                    "duration": 0.14962600000001203
                },
                {
                    "name": "C3",
                    "midi": 48,
                    "time": 347.73082400001147,
                    "velocity": 0.41732283464566927,
                    "duration": 0.14962600000001203
                },
                {
                    "name": "C2",
                    "midi": 36,
                    "time": 347.8804500000115,
                    "velocity": 0.5433070866141733,
                    "duration": 0.14962600000001203
                },
                {
                    "name": "G2",
                    "midi": 43,
                    "time": 348.0300760000115,
                    "velocity": 0.4409448818897638,
                    "duration": 0.14962600000001203
                },
                {
                    "name": "C3",
                    "midi": 48,
                    "time": 348.1797020000115,
                    "velocity": 0.44881889763779526,
                    "duration": 0.14962600000001203
                },
                {
                    "name": "C2",
                    "midi": 36,
                    "time": 348.3293280000115,
                    "velocity": 0.4409448818897638,
                    "duration": 0.14962600000001203
                },
                {
                    "name": "G2",
                    "midi": 43,
                    "time": 348.4789540000115,
                    "velocity": 0.3464566929133858,
                    "duration": 0.14962600000001203
                },
                {
                    "name": "C3",
                    "midi": 48,
                    "time": 348.62858000001154,
                    "velocity": 0.3858267716535433,
                    "duration": 0.14962600000001203
                },
                {
                    "name": "C2",
                    "midi": 36,
                    "time": 348.77820600001155,
                    "velocity": 0.44881889763779526,
                    "duration": 0.14962600000001203
                },
                {
                    "name": "G2",
                    "midi": 43,
                    "time": 348.92783200001156,
                    "velocity": 0.3700787401574803,
                    "duration": 0.14962600000001203
                },
                {
                    "name": "C3",
                    "midi": 48,
                    "time": 349.0774580000116,
                    "velocity": 0.3779527559055118,
                    "duration": 0.14962600000001203
                },
                {
                    "name": "C2",
                    "midi": 36,
                    "time": 349.2270840000116,
                    "velocity": 0.49606299212598426,
                    "duration": 0.14962600000001203
                },
                {
                    "name": "G2",
                    "midi": 43,
                    "time": 349.3767100000116,
                    "velocity": 0.4015748031496063,
                    "duration": 0.14962600000001203
                },
                {
                    "name": "C3",
                    "midi": 48,
                    "time": 349.5263360000116,
                    "velocity": 0.41732283464566927,
                    "duration": 0.14962600000001203
                },
                {
                    "name": "C2",
                    "midi": 36,
                    "time": 349.6759620000116,
                    "velocity": 0.5433070866141733,
                    "duration": 0.14962600000001203
                },
                {
                    "name": "G2",
                    "midi": 43,
                    "time": 349.82558800001163,
                    "velocity": 0.4409448818897638,
                    "duration": 0.14962600000001203
                },
                {
                    "name": "C3",
                    "midi": 48,
                    "time": 349.97521400001165,
                    "velocity": 0.44881889763779526,
                    "duration": 0.14962600000001203
                },
                {
                    "name": "C2",
                    "midi": 36,
                    "time": 350.12484000001166,
                    "velocity": 0.4409448818897638,
                    "duration": 0.14962600000001203
                },
                {
                    "name": "G2",
                    "midi": 43,
                    "time": 350.27446600001167,
                    "velocity": 0.3464566929133858,
                    "duration": 0.14962600000001203
                },
                {
                    "name": "C3",
                    "midi": 48,
                    "time": 350.4240920000117,
                    "velocity": 0.3858267716535433,
                    "duration": 0.14962600000001203
                },
                {
                    "name": "C2",
                    "midi": 36,
                    "time": 350.5737180000117,
                    "velocity": 0.44881889763779526,
                    "duration": 0.14962600000001203
                },
                {
                    "name": "G2",
                    "midi": 43,
                    "time": 350.7233440000117,
                    "velocity": 0.3700787401574803,
                    "duration": 0.14962600000001203
                },
                {
                    "name": "C3",
                    "midi": 48,
                    "time": 350.8729700000117,
                    "velocity": 0.3779527559055118,
                    "duration": 0.14962600000001203
                },
                {
                    "name": "C2",
                    "midi": 36,
                    "time": 351.02259600001173,
                    "velocity": 0.49606299212598426,
                    "duration": 0.14962600000001203
                },
                {
                    "name": "G2",
                    "midi": 43,
                    "time": 351.17222200001174,
                    "velocity": 0.4015748031496063,
                    "duration": 0.14962600000001203
                },
                {
                    "name": "C3",
                    "midi": 48,
                    "time": 351.32184800001176,
                    "velocity": 0.41732283464566927,
                    "duration": 0.14962600000001203
                },
                {
                    "name": "C2",
                    "midi": 36,
                    "time": 351.47147400001177,
                    "velocity": 0.5433070866141733,
                    "duration": 0.14962600000001203
                },
                {
                    "name": "G2",
                    "midi": 43,
                    "time": 351.6211000000118,
                    "velocity": 0.4409448818897638,
                    "duration": 0.14962600000001203
                },
                {
                    "name": "C3",
                    "midi": 48,
                    "time": 351.7707260000118,
                    "velocity": 0.44881889763779526,
                    "duration": 0.14962600000001203
                },
                {
                    "name": "E1",
                    "midi": 28,
                    "time": 351.9203520000118,
                    "velocity": 0.49606299212598426,
                    "duration": 0.07481300000000601
                },
                {
                    "name": "E2",
                    "midi": 40,
                    "time": 351.9203520000118,
                    "velocity": 0.5433070866141733,
                    "duration": 0.07481300000000601
                },
                {
                    "name": "F1",
                    "midi": 29,
                    "time": 352.3692300000118,
                    "velocity": 0.4881889763779528,
                    "duration": 0.07481300000000601
                },
                {
                    "name": "F2",
                    "midi": 41,
                    "time": 352.3692300000118,
                    "velocity": 0.5433070866141733,
                    "duration": 0.07481300000000601
                },
                {
                    "name": "C2",
                    "midi": 36,
                    "time": 352.81810800001176,
                    "velocity": 0.4881889763779528,
                    "duration": 0.07481300000000601
                },
                {
                    "name": "C3",
                    "midi": 48,
                    "time": 352.81810800001176,
                    "velocity": 0.5433070866141733,
                    "duration": 0.07481300000000601
                },
                {
                    "name": "E2",
                    "midi": 40,
                    "time": 353.26698600001174,
                    "velocity": 0.4881889763779528,
                    "duration": 0.07481300000000601
                },
                {
                    "name": "E3",
                    "midi": 52,
                    "time": 353.26698600001174,
                    "velocity": 0.5433070866141733,
                    "duration": 0.07481300000000601
                },
                {
                    "name": "A2",
                    "midi": 45,
                    "time": 353.65975425001176,
                    "velocity": 0.4881889763779528,
                    "duration": 0.1309227499999679
                },
                {
                    "name": "E3",
                    "midi": 52,
                    "time": 353.67845750001175,
                    "velocity": 0.4881889763779528,
                    "duration": 0.1122194999999806
                },
                {
                    "name": "A3",
                    "midi": 57,
                    "time": 353.69716075001173,
                    "velocity": 0.4881889763779528,
                    "duration": 0.0935162499999933
                },
                {
                    "name": "C4",
                    "midi": 60,
                    "time": 353.7158640000117,
                    "velocity": 0.5433070866141733,
                    "duration": 0.07481300000000601
                },
                {
                    "name": "G2",
                    "midi": 43,
                    "time": 354.53880700001173,
                    "velocity": 0.4881889763779528,
                    "duration": 0.14962599999995518
                },
                {
                    "name": "D3",
                    "midi": 50,
                    "time": 354.5575102500117,
                    "velocity": 0.4881889763779528,
                    "duration": 0.1309227499999679
                },
                {
                    "name": "G3",
                    "midi": 55,
                    "time": 354.5762135000117,
                    "velocity": 0.4881889763779528,
                    "duration": 0.1122194999999806
                },
                {
                    "name": "B3",
                    "midi": 59,
                    "time": 354.5949167500117,
                    "velocity": 0.4881889763779528,
                    "duration": 0.0935162499999933
                },
                {
                    "name": "D4",
                    "midi": 62,
                    "time": 354.6136200000117,
                    "velocity": 0.5433070866141733,
                    "duration": 0.07481300000000601
                },
                {
                    "name": "C2",
                    "midi": 36,
                    "time": 355.3243435000117,
                    "velocity": 0.47244094488188976,
                    "duration": 0.037406499999974585
                },
                {
                    "name": "G2",
                    "midi": 43,
                    "time": 355.3617500000117,
                    "velocity": 0.49606299212598426,
                    "duration": 0.037406499999974585
                },
                {
                    "name": "C3",
                    "midi": 48,
                    "time": 355.39915650001166,
                    "velocity": 0.49606299212598426,
                    "duration": 0.037406499999974585
                },
                {
                    "name": "G3",
                    "midi": 55,
                    "time": 355.51137600001164,
                    "velocity": 0.4881889763779528,
                    "duration": 0.8977560000000153
                },
                {
                    "name": "C4",
                    "midi": 60,
                    "time": 355.51137600001164,
                    "velocity": 0.4881889763779528,
                    "duration": 0.8977560000000153
                },
                {
                    "name": "E4",
                    "midi": 64,
                    "time": 355.51137600001164,
                    "velocity": 0.4881889763779528,
                    "duration": 0.8977560000000153
                },
                {
                    "name": "G4",
                    "midi": 67,
                    "time": 355.51137600001164,
                    "velocity": 0.5433070866141733,
                    "duration": 0.8977560000000153
                }
            ],
            "controlChanges": {},
            "id": 2,
            "name": "Piano left",
            "instrumentNumber": 0,
            "instrument": "acoustic grand piano",
            "instrumentFamily": "piano",
            "channelNumber": 0,
            "isPercussion": false
        },
        {
            "startTime": 0,
            "duration": 0,
            "length": 0,
            "notes": [],
            "controlChanges": {
                "64": [
                    {
                        "number": 64,
                        "time": 1.3067337333333333,
                        "value": 1
                    },
                    {
                        "number": 64,
                        "time": 1.421447,
                        "value": 0
                    },
                    {
                        "number": 64,
                        "time": 2.510599591666667,
                        "value": 1
                    },
                    {
                        "number": 64,
                        "time": 2.6009986333333335,
                        "value": 0
                    },
                    {
                        "number": 64,
                        "time": 3.99127355,
                        "value": 1
                    },
                    {
                        "number": 64,
                        "time": 4.119079091666666,
                        "value": 0
                    },
                    {
                        "number": 64,
                        "time": 5.23691,
                        "value": 1
                    },
                    {
                        "number": 64,
                        "time": 5.304865141666666,
                        "value": 0
                    },
                    {
                        "number": 64,
                        "time": 6.736287208333334,
                        "value": 1
                    },
                    {
                        "number": 64,
                        "time": 6.836037875000001,
                        "value": 0
                    },
                    {
                        "number": 64,
                        "time": 7.658980875000001,
                        "value": 1
                    },
                    {
                        "number": 64,
                        "time": 7.737534525000001,
                        "value": 0
                    },
                    {
                        "number": 64,
                        "time": 9.312348175,
                        "value": 1
                    },
                    {
                        "number": 64,
                        "time": 9.536787175,
                        "value": 0
                    },
                    {
                        "number": 64,
                        "time": 10.341650366666666,
                        "value": 1
                    },
                    {
                        "number": 64,
                        "time": 10.423944666666666,
                        "value": 0
                    },
                    {
                        "number": 64,
                        "time": 12.019955333333332,
                        "value": 1
                    },
                    {
                        "number": 64,
                        "time": 12.169581333333332,
                        "value": 0
                    },
                    {
                        "number": 64,
                        "time": 12.450753524999998,
                        "value": 1
                    },
                    {
                        "number": 64,
                        "time": 12.726314741666664,
                        "value": 0
                    },
                    {
                        "number": 64,
                        "time": 12.846015541666665,
                        "value": 1
                    },
                    {
                        "number": 64,
                        "time": 13.173945858333331,
                        "value": 0
                    },
                    {
                        "number": 64,
                        "time": 13.223821191666664,
                        "value": 1
                    },
                    {
                        "number": 64,
                        "time": 13.397761416666665,
                        "value": 0
                    },
                    {
                        "number": 64,
                        "time": 13.786789016666665,
                        "value": 1
                    },
                    {
                        "number": 64,
                        "time": 14.071701858333332,
                        "value": 0
                    },
                    {
                        "number": 64,
                        "time": 14.164594666666666,
                        "value": 1
                    },
                    {
                        "number": 64,
                        "time": 14.521826741666667,
                        "value": 0
                    },
                    {
                        "number": 64,
                        "time": 14.552998825,
                        "value": 1
                    },
                    {
                        "number": 64,
                        "time": 14.745018858333333,
                        "value": 0
                    },
                    {
                        "number": 64,
                        "time": 15.087911775,
                        "value": 1
                    },
                    {
                        "number": 64,
                        "time": 15.354121366666668,
                        "value": 0
                    },
                    {
                        "number": 64,
                        "time": 16.009982,
                        "value": 1
                    },
                    {
                        "number": 64,
                        "time": 16.2718275,
                        "value": 0
                    },
                    {
                        "number": 64,
                        "time": 17.818586275,
                        "value": 1
                    },
                    {
                        "number": 64,
                        "time": 18.016840725,
                        "value": 0
                    },
                    {
                        "number": 64,
                        "time": 18.7406565,
                        "value": 1
                    },
                    {
                        "number": 64,
                        "time": 18.903374775,
                        "value": 0
                    },
                    {
                        "number": 64,
                        "time": 20.129061091666667,
                        "value": 1
                    },
                    {
                        "number": 64,
                        "time": 20.274323,
                        "value": 0
                    },
                    {
                        "number": 64,
                        "time": 21.363475591666667,
                        "value": 1
                    },
                    {
                        "number": 64,
                        "time": 21.453874633333335,
                        "value": 0
                    },
                    {
                        "number": 64,
                        "time": 22.84414955,
                        "value": 1
                    },
                    {
                        "number": 64,
                        "time": 22.97195509166667,
                        "value": 0
                    },
                    {
                        "number": 64,
                        "time": 24.089786,
                        "value": 1
                    },
                    {
                        "number": 64,
                        "time": 24.157741141666666,
                        "value": 0
                    },
                    {
                        "number": 64,
                        "time": 25.589163208333332,
                        "value": 1
                    },
                    {
                        "number": 64,
                        "time": 25.688913874999997,
                        "value": 0
                    },
                    {
                        "number": 64,
                        "time": 26.511856874999996,
                        "value": 1
                    },
                    {
                        "number": 64,
                        "time": 26.590410524999996,
                        "value": 0
                    },
                    {
                        "number": 64,
                        "time": 28.165224174999995,
                        "value": 1
                    },
                    {
                        "number": 64,
                        "time": 28.389663174999995,
                        "value": 0
                    },
                    {
                        "number": 64,
                        "time": 29.19452636666666,
                        "value": 1
                    },
                    {
                        "number": 64,
                        "time": 29.276820666666662,
                        "value": 0
                    },
                    {
                        "number": 64,
                        "time": 30.87283133333333,
                        "value": 1
                    },
                    {
                        "number": 64,
                        "time": 31.02245733333333,
                        "value": 0
                    },
                    {
                        "number": 64,
                        "time": 31.303629524999998,
                        "value": 1
                    },
                    {
                        "number": 64,
                        "time": 31.579190741666665,
                        "value": 0
                    },
                    {
                        "number": 64,
                        "time": 31.685175824999998,
                        "value": 1
                    },
                    {
                        "number": 64,
                        "time": 32.026821858333335,
                        "value": 0
                    },
                    {
                        "number": 64,
                        "time": 32.07669719166667,
                        "value": 1
                    },
                    {
                        "number": 64,
                        "time": 32.25063741666667,
                        "value": 0
                    },
                    {
                        "number": 64,
                        "time": 32.63966501666667,
                        "value": 1
                    },
                    {
                        "number": 64,
                        "time": 32.924577858333336,
                        "value": 0
                    },
                    {
                        "number": 64,
                        "time": 33.028069175000006,
                        "value": 1
                    },
                    {
                        "number": 64,
                        "time": 33.374702741666674,
                        "value": 0
                    },
                    {
                        "number": 64,
                        "time": 33.405874825000005,
                        "value": 1
                    },
                    {
                        "number": 64,
                        "time": 33.59789485833334,
                        "value": 0
                    },
                    {
                        "number": 64,
                        "time": 33.940787775000004,
                        "value": 1
                    },
                    {
                        "number": 64,
                        "time": 34.20699736666667,
                        "value": 0
                    },
                    {
                        "number": 64,
                        "time": 34.862858,
                        "value": 1
                    },
                    {
                        "number": 64,
                        "time": 35.1247035,
                        "value": 0
                    },
                    {
                        "number": 64,
                        "time": 36.22694836666667,
                        "value": 1
                    },
                    {
                        "number": 64,
                        "time": 36.451387366666665,
                        "value": 0
                    },
                    {
                        "number": 64,
                        "time": 37.57358236666666,
                        "value": 1
                    },
                    {
                        "number": 64,
                        "time": 37.79802136666666,
                        "value": 0
                    },
                    {
                        "number": 64,
                        "time": 38.92021636666666,
                        "value": 1
                    },
                    {
                        "number": 64,
                        "time": 39.144655366666655,
                        "value": 0
                    },
                    {
                        "number": 64,
                        "time": 40.26685036666665,
                        "value": 1
                    },
                    {
                        "number": 64,
                        "time": 40.49128936666665,
                        "value": 0
                    },
                    {
                        "number": 64,
                        "time": 41.61348436666665,
                        "value": 1
                    },
                    {
                        "number": 64,
                        "time": 41.837923366666644,
                        "value": 0
                    },
                    {
                        "number": 64,
                        "time": 42.96011836666664,
                        "value": 1
                    },
                    {
                        "number": 64,
                        "time": 43.18455736666664,
                        "value": 0
                    },
                    {
                        "number": 64,
                        "time": 48.83044509999997,
                        "value": 1
                    },
                    {
                        "number": 64,
                        "time": 49.569846916666634,
                        "value": 0
                    },
                    {
                        "number": 64,
                        "time": 49.75064499999997,
                        "value": 1
                    },
                    {
                        "number": 64,
                        "time": 49.90027099999997,
                        "value": 0
                    },
                    {
                        "number": 64,
                        "time": 50.1671040333333,
                        "value": 1
                    },
                    {
                        "number": 64,
                        "time": 50.90837617499997,
                        "value": 0
                    },
                    {
                        "number": 64,
                        "time": 51.09727899999997,
                        "value": 1
                    },
                    {
                        "number": 64,
                        "time": 51.24690499999997,
                        "value": 0
                    },
                    {
                        "number": 64,
                        "time": 51.513738033333304,
                        "value": 1
                    },
                    {
                        "number": 64,
                        "time": 51.92458609166664,
                        "value": 0
                    },
                    {
                        "number": 64,
                        "time": 55.02932559166664,
                        "value": 1
                    },
                    {
                        "number": 64,
                        "time": 55.119724633333306,
                        "value": 0
                    },
                    {
                        "number": 64,
                        "time": 56.509999549999975,
                        "value": 1
                    },
                    {
                        "number": 64,
                        "time": 56.63780509166664,
                        "value": 0
                    },
                    {
                        "number": 64,
                        "time": 57.755635999999974,
                        "value": 1
                    },
                    {
                        "number": 64,
                        "time": 57.82359114166664,
                        "value": 0
                    },
                    {
                        "number": 64,
                        "time": 59.20326754999997,
                        "value": 1
                    },
                    {
                        "number": 64,
                        "time": 59.33107309166664,
                        "value": 0
                    },
                    {
                        "number": 64,
                        "time": 60.44890399999997,
                        "value": 1
                    },
                    {
                        "number": 64,
                        "time": 60.516859141666636,
                        "value": 0
                    },
                    {
                        "number": 64,
                        "time": 61.948281208333306,
                        "value": 1
                    },
                    {
                        "number": 64,
                        "time": 62.04803187499997,
                        "value": 0
                    },
                    {
                        "number": 64,
                        "time": 62.87097487499997,
                        "value": 1
                    },
                    {
                        "number": 64,
                        "time": 62.94952852499998,
                        "value": 0
                    },
                    {
                        "number": 64,
                        "time": 64.52434217499997,
                        "value": 1
                    },
                    {
                        "number": 64,
                        "time": 64.66336966666664,
                        "value": 0
                    },
                    {
                        "number": 64,
                        "time": 65.55364436666665,
                        "value": 1
                    },
                    {
                        "number": 64,
                        "time": 65.63593866666665,
                        "value": 0
                    },
                    {
                        "number": 64,
                        "time": 67.23194933333332,
                        "value": 1
                    },
                    {
                        "number": 64,
                        "time": 67.38157533333332,
                        "value": 0
                    },
                    {
                        "number": 64,
                        "time": 67.66274752499999,
                        "value": 1
                    },
                    {
                        "number": 64,
                        "time": 67.93830874166666,
                        "value": 0
                    },
                    {
                        "number": 64,
                        "time": 67.99753569999999,
                        "value": 1
                    },
                    {
                        "number": 64,
                        "time": 68.38593985833332,
                        "value": 0
                    },
                    {
                        "number": 64,
                        "time": 68.43581519166665,
                        "value": 1
                    },
                    {
                        "number": 64,
                        "time": 68.60975541666664,
                        "value": 0
                    },
                    {
                        "number": 64,
                        "time": 68.99878301666665,
                        "value": 1
                    },
                    {
                        "number": 64,
                        "time": 69.28369585833332,
                        "value": 0
                    },
                    {
                        "number": 64,
                        "time": 69.33357119166665,
                        "value": 1
                    },
                    {
                        "number": 64,
                        "time": 69.73382074166665,
                        "value": 0
                    },
                    {
                        "number": 64,
                        "time": 69.76499282499998,
                        "value": 1
                    },
                    {
                        "number": 64,
                        "time": 69.95701285833331,
                        "value": 0
                    },
                    {
                        "number": 64,
                        "time": 70.29990577499998,
                        "value": 1
                    },
                    {
                        "number": 64,
                        "time": 70.56611536666665,
                        "value": 0
                    },
                    {
                        "number": 64,
                        "time": 71.22197599999998,
                        "value": 1
                    },
                    {
                        "number": 64,
                        "time": 71.48382149999999,
                        "value": 0
                    },
                    {
                        "number": 64,
                        "time": 73.03058027499999,
                        "value": 1
                    },
                    {
                        "number": 64,
                        "time": 73.22883472499998,
                        "value": 0
                    },
                    {
                        "number": 64,
                        "time": 73.95265049999999,
                        "value": 1
                    },
                    {
                        "number": 64,
                        "time": 74.115368775,
                        "value": 0
                    },
                    {
                        "number": 64,
                        "time": 75.37409749999999,
                        "value": 1
                    },
                    {
                        "number": 64,
                        "time": 76.31674129999999,
                        "value": 0
                    },
                    {
                        "number": 64,
                        "time": 76.40589345833332,
                        "value": 1
                    },
                    {
                        "number": 64,
                        "time": 77.21262697499999,
                        "value": 0
                    },
                    {
                        "number": 64,
                        "time": 77.34791381666666,
                        "value": 1
                    },
                    {
                        "number": 64,
                        "time": 78.85975985833333,
                        "value": 0
                    },
                    {
                        "number": 64,
                        "time": 78.93956039166666,
                        "value": 1
                    },
                    {
                        "number": 64,
                        "time": 79.01250306666665,
                        "value": 0
                    },
                    {
                        "number": 64,
                        "time": 79.08108164999999,
                        "value": 1
                    },
                    {
                        "number": 64,
                        "time": 79.31113162499999,
                        "value": 0
                    },
                    {
                        "number": 64,
                        "time": 79.36474760833332,
                        "value": 1
                    },
                    {
                        "number": 64,
                        "time": 79.45140599999998,
                        "value": 0
                    },
                    {
                        "number": 64,
                        "time": 79.53931127499997,
                        "value": 1
                    },
                    {
                        "number": 64,
                        "time": 79.7593861833333,
                        "value": 0
                    },
                    {
                        "number": 64,
                        "time": 79.8472914583333,
                        "value": 1
                    },
                    {
                        "number": 64,
                        "time": 79.9090121833333,
                        "value": 0
                    },
                    {
                        "number": 64,
                        "time": 79.98818927499997,
                        "value": 1
                    },
                    {
                        "number": 64,
                        "time": 80.35913706666663,
                        "value": 0
                    },
                    {
                        "number": 64,
                        "time": 80.85976072499997,
                        "value": 1
                    },
                    {
                        "number": 64,
                        "time": 81.70327729999997,
                        "value": 0
                    },
                    {
                        "number": 64,
                        "time": 81.7924294583333,
                        "value": 1
                    },
                    {
                        "number": 64,
                        "time": 82.59916297499997,
                        "value": 0
                    },
                    {
                        "number": 64,
                        "time": 82.73444981666664,
                        "value": 1
                    },
                    {
                        "number": 64,
                        "time": 84.24629585833331,
                        "value": 0
                    },
                    {
                        "number": 64,
                        "time": 84.32609639166664,
                        "value": 1
                    },
                    {
                        "number": 64,
                        "time": 84.39903906666663,
                        "value": 0
                    },
                    {
                        "number": 64,
                        "time": 84.46761764999997,
                        "value": 1
                    },
                    {
                        "number": 64,
                        "time": 84.69766762499997,
                        "value": 0
                    },
                    {
                        "number": 64,
                        "time": 84.7512836083333,
                        "value": 1
                    },
                    {
                        "number": 64,
                        "time": 84.83794199999996,
                        "value": 0
                    },
                    {
                        "number": 64,
                        "time": 84.92584727499995,
                        "value": 1
                    },
                    {
                        "number": 64,
                        "time": 85.14592218333328,
                        "value": 0
                    },
                    {
                        "number": 64,
                        "time": 85.23382745833328,
                        "value": 1
                    },
                    {
                        "number": 64,
                        "time": 85.29554818333328,
                        "value": 0
                    },
                    {
                        "number": 64,
                        "time": 85.37472527499995,
                        "value": 1
                    },
                    {
                        "number": 64,
                        "time": 86.03993753333327,
                        "value": 0
                    },
                    {
                        "number": 64,
                        "time": 86.0673689666666,
                        "value": 1
                    },
                    {
                        "number": 64,
                        "time": 86.18457599999994,
                        "value": 0
                    },
                    {
                        "number": 64,
                        "time": 86.25502490833327,
                        "value": 1
                    },
                    {
                        "number": 64,
                        "time": 86.85352890833327,
                        "value": 0
                    },
                    {
                        "number": 64,
                        "time": 86.91026209999994,
                        "value": 1
                    },
                    {
                        "number": 64,
                        "time": 87.38906529999994,
                        "value": 0
                    },
                    {
                        "number": 64,
                        "time": 87.42958900833328,
                        "value": 1
                    },
                    {
                        "number": 64,
                        "time": 87.53120999999994,
                        "value": 0
                    },
                    {
                        "number": 64,
                        "time": 87.63781852499994,
                        "value": 1
                    },
                    {
                        "number": 64,
                        "time": 87.83981362499995,
                        "value": 0
                    },
                    {
                        "number": 64,
                        "time": 87.93021266666662,
                        "value": 1
                    },
                    {
                        "number": 64,
                        "time": 88.73320553333329,
                        "value": 0
                    },
                    {
                        "number": 64,
                        "time": 88.79929034999995,
                        "value": 1
                    },
                    {
                        "number": 64,
                        "time": 88.87784399999995,
                        "value": 0
                    },
                    {
                        "number": 64,
                        "time": 88.96325550833329,
                        "value": 1
                    },
                    {
                        "number": 64,
                        "time": 89.18956483333329,
                        "value": 0
                    },
                    {
                        "number": 64,
                        "time": 89.28370452499996,
                        "value": 1
                    },
                    {
                        "number": 64,
                        "time": 90.07485199999996,
                        "value": 0
                    },
                    {
                        "number": 64,
                        "time": 90.13906649166663,
                        "value": 1
                    },
                    {
                        "number": 64,
                        "time": 90.22634832499996,
                        "value": 0
                    },
                    {
                        "number": 64,
                        "time": 90.3098895083333,
                        "value": 1
                    },
                    {
                        "number": 64,
                        "time": 90.53495194999996,
                        "value": 0
                    },
                    {
                        "number": 64,
                        "time": 90.63781982499997,
                        "value": 1
                    },
                    {
                        "number": 64,
                        "time": 91.42522664999997,
                        "value": 0
                    },
                    {
                        "number": 64,
                        "time": 91.49255834999997,
                        "value": 1
                    },
                    {
                        "number": 64,
                        "time": 91.57111199999997,
                        "value": 0
                    },
                    {
                        "number": 64,
                        "time": 91.6415609083333,
                        "value": 1
                    },
                    {
                        "number": 64,
                        "time": 91.87784529999998,
                        "value": 0
                    },
                    {
                        "number": 64,
                        "time": 91.98445382499997,
                        "value": 1
                    },
                    {
                        "number": 64,
                        "time": 92.76999032499998,
                        "value": 0
                    },
                    {
                        "number": 64,
                        "time": 92.82984072499998,
                        "value": 1
                    },
                    {
                        "number": 64,
                        "time": 92.91774599999998,
                        "value": 0
                    },
                    {
                        "number": 64,
                        "time": 93.02310764166664,
                        "value": 1
                    },
                    {
                        "number": 64,
                        "time": 93.22572618333331,
                        "value": 0
                    },
                    {
                        "number": 64,
                        "time": 93.29617509166664,
                        "value": 1
                    },
                    {
                        "number": 64,
                        "time": 94.11849464999997,
                        "value": 0
                    },
                    {
                        "number": 64,
                        "time": 94.16712309999997,
                        "value": 1
                    },
                    {
                        "number": 64,
                        "time": 95.02248506666663,
                        "value": 0
                    },
                    {
                        "number": 64,
                        "time": 95.1353280083333,
                        "value": 1
                    },
                    {
                        "number": 64,
                        "time": 95.91275976666664,
                        "value": 0
                    },
                    {
                        "number": 64,
                        "time": 95.99817127499998,
                        "value": 1
                    },
                    {
                        "number": 64,
                        "time": 96.06924362499997,
                        "value": 0
                    },
                    {
                        "number": 64,
                        "time": 96.17398182499997,
                        "value": 1
                    },
                    {
                        "number": 64,
                        "time": 96.36350809166663,
                        "value": 0
                    },
                    {
                        "number": 64,
                        "time": 96.43832109166664,
                        "value": 1
                    },
                    {
                        "number": 64,
                        "time": 96.5174981833333,
                        "value": 0
                    },
                    {
                        "number": 64,
                        "time": 96.5792189083333,
                        "value": 1
                    },
                    {
                        "number": 64,
                        "time": 96.81550329999997,
                        "value": 0
                    },
                    {
                        "number": 64,
                        "time": 96.86974272499998,
                        "value": 1
                    },
                    {
                        "number": 64,
                        "time": 96.95764799999998,
                        "value": 0
                    },
                    {
                        "number": 64,
                        "time": 97.04555327499997,
                        "value": 1
                    },
                    {
                        "number": 64,
                        "time": 98.30428199999997,
                        "value": 0
                    },
                    {
                        "number": 64,
                        "time": 98.42710000833331,
                        "value": 1
                    },
                    {
                        "number": 64,
                        "time": 99.51874636666665,
                        "value": 0
                    },
                    {
                        "number": 64,
                        "time": 99.77373400833332,
                        "value": 1
                    },
                    {
                        "number": 64,
                        "time": 100.55615329999999,
                        "value": 0
                    },
                    {
                        "number": 64,
                        "time": 100.64530545833333,
                        "value": 1
                    },
                    {
                        "number": 64,
                        "time": 101.452038975,
                        "value": 0
                    },
                    {
                        "number": 64,
                        "time": 101.58732581666666,
                        "value": 1
                    },
                    {
                        "number": 64,
                        "time": 103.09917185833334,
                        "value": 0
                    },
                    {
                        "number": 64,
                        "time": 103.17897239166666,
                        "value": 1
                    },
                    {
                        "number": 64,
                        "time": 103.25191506666665,
                        "value": 0
                    },
                    {
                        "number": 64,
                        "time": 103.32049364999999,
                        "value": 1
                    },
                    {
                        "number": 64,
                        "time": 103.55054362499999,
                        "value": 0
                    },
                    {
                        "number": 64,
                        "time": 103.60415960833332,
                        "value": 1
                    },
                    {
                        "number": 64,
                        "time": 103.69081799999998,
                        "value": 0
                    },
                    {
                        "number": 64,
                        "time": 103.77872327499998,
                        "value": 1
                    },
                    {
                        "number": 64,
                        "time": 103.9987981833333,
                        "value": 0
                    },
                    {
                        "number": 64,
                        "time": 104.0867034583333,
                        "value": 1
                    },
                    {
                        "number": 64,
                        "time": 104.1484241833333,
                        "value": 0
                    },
                    {
                        "number": 64,
                        "time": 104.22760127499997,
                        "value": 1
                    },
                    {
                        "number": 64,
                        "time": 104.59854906666664,
                        "value": 0
                    },
                    {
                        "number": 64,
                        "time": 105.09917272499997,
                        "value": 1
                    },
                    {
                        "number": 64,
                        "time": 106.23695376666664,
                        "value": 0
                    },
                    {
                        "number": 64,
                        "time": 106.30927299999998,
                        "value": 1
                    },
                    {
                        "number": 64,
                        "time": 107.13845041666664,
                        "value": 0
                    },
                    {
                        "number": 64,
                        "time": 107.20702899999998,
                        "value": 1
                    },
                    {
                        "number": 64,
                        "time": 108.03433609166665,
                        "value": 0
                    },
                    {
                        "number": 64,
                        "time": 108.14219149999998,
                        "value": 1
                    },
                    {
                        "number": 64,
                        "time": 108.93209209166665,
                        "value": 0
                    },
                    {
                        "number": 64,
                        "time": 109.03994749999998,
                        "value": 1
                    },
                    {
                        "number": 64,
                        "time": 109.83795283333332,
                        "value": 0
                    },
                    {
                        "number": 64,
                        "time": 109.97510999999999,
                        "value": 1
                    },
                    {
                        "number": 64,
                        "time": 110.88221762499998,
                        "value": 0
                    },
                    {
                        "number": 64,
                        "time": 111.05740473333331,
                        "value": 1
                    },
                    {
                        "number": 64,
                        "time": 111.77062199999997,
                        "value": 0
                    },
                    {
                        "number": 64,
                        "time": 111.85603350833331,
                        "value": 1
                    },
                    {
                        "number": 64,
                        "time": 113.11725599999998,
                        "value": 0
                    },
                    {
                        "number": 64,
                        "time": 113.20266750833332,
                        "value": 1
                    },
                    {
                        "number": 64,
                        "time": 114.46388999999999,
                        "value": 0
                    },
                    {
                        "number": 64,
                        "time": 114.54930150833333,
                        "value": 1
                    },
                    {
                        "number": 64,
                        "time": 115.810524,
                        "value": 0
                    },
                    {
                        "number": 64,
                        "time": 115.89593550833334,
                        "value": 1
                    },
                    {
                        "number": 64,
                        "time": 117.04369161666668,
                        "value": 0
                    },
                    {
                        "number": 64,
                        "time": 117.20952710000002,
                        "value": 1
                    },
                    {
                        "number": 64,
                        "time": 118.06239530000002,
                        "value": 0
                    },
                    {
                        "number": 64,
                        "time": 118.15154745833335,
                        "value": 1
                    },
                    {
                        "number": 64,
                        "time": 118.95828097500002,
                        "value": 0
                    },
                    {
                        "number": 64,
                        "time": 119.09356781666669,
                        "value": 1
                    },
                    {
                        "number": 64,
                        "time": 120.60541385833336,
                        "value": 0
                    },
                    {
                        "number": 64,
                        "time": 120.68521439166669,
                        "value": 1
                    },
                    {
                        "number": 64,
                        "time": 120.75815706666668,
                        "value": 0
                    },
                    {
                        "number": 64,
                        "time": 120.82673565000002,
                        "value": 1
                    },
                    {
                        "number": 64,
                        "time": 121.05678562500002,
                        "value": 0
                    },
                    {
                        "number": 64,
                        "time": 121.11040160833335,
                        "value": 1
                    },
                    {
                        "number": 64,
                        "time": 121.19706000000001,
                        "value": 0
                    },
                    {
                        "number": 64,
                        "time": 121.284965275,
                        "value": 1
                    },
                    {
                        "number": 64,
                        "time": 121.50504018333334,
                        "value": 0
                    },
                    {
                        "number": 64,
                        "time": 121.59294545833333,
                        "value": 1
                    },
                    {
                        "number": 64,
                        "time": 121.65466618333333,
                        "value": 0
                    },
                    {
                        "number": 64,
                        "time": 121.733843275,
                        "value": 1
                    },
                    {
                        "number": 64,
                        "time": 122.10479106666666,
                        "value": 0
                    },
                    {
                        "number": 64,
                        "time": 122.605414725,
                        "value": 1
                    },
                    {
                        "number": 64,
                        "time": 123.4489313,
                        "value": 0
                    },
                    {
                        "number": 64,
                        "time": 123.53808345833333,
                        "value": 1
                    },
                    {
                        "number": 64,
                        "time": 124.344816975,
                        "value": 0
                    },
                    {
                        "number": 64,
                        "time": 124.48010381666667,
                        "value": 1
                    },
                    {
                        "number": 64,
                        "time": 125.99194985833334,
                        "value": 0
                    },
                    {
                        "number": 64,
                        "time": 126.07175039166667,
                        "value": 1
                    },
                    {
                        "number": 64,
                        "time": 126.14469306666666,
                        "value": 0
                    },
                    {
                        "number": 64,
                        "time": 126.21327165,
                        "value": 1
                    },
                    {
                        "number": 64,
                        "time": 126.443321625,
                        "value": 0
                    },
                    {
                        "number": 64,
                        "time": 126.49693760833333,
                        "value": 1
                    },
                    {
                        "number": 64,
                        "time": 126.58359599999999,
                        "value": 0
                    },
                    {
                        "number": 64,
                        "time": 126.67150127499998,
                        "value": 1
                    },
                    {
                        "number": 64,
                        "time": 126.89157618333331,
                        "value": 0
                    },
                    {
                        "number": 64,
                        "time": 126.94955625833332,
                        "value": 1
                    },
                    {
                        "number": 64,
                        "time": 127.04120218333331,
                        "value": 0
                    },
                    {
                        "number": 64,
                        "time": 127.12037927499998,
                        "value": 1
                    },
                    {
                        "number": 64,
                        "time": 127.7855915333333,
                        "value": 0
                    },
                    {
                        "number": 64,
                        "time": 127.81302296666664,
                        "value": 1
                    },
                    {
                        "number": 64,
                        "time": 127.93022999999997,
                        "value": 0
                    },
                    {
                        "number": 64,
                        "time": 127.98696319166663,
                        "value": 1
                    },
                    {
                        "number": 64,
                        "time": 128.08796074166662,
                        "value": 0
                    },
                    {
                        "number": 64,
                        "time": 128.13658919166662,
                        "value": 1
                    },
                    {
                        "number": 64,
                        "time": 128.23821018333328,
                        "value": 0
                    },
                    {
                        "number": 64,
                        "time": 128.32611545833328,
                        "value": 1
                    },
                    {
                        "number": 64,
                        "time": 128.38783618333326,
                        "value": 0
                    },
                    {
                        "number": 64,
                        "time": 128.46701327499994,
                        "value": 1
                    },
                    {
                        "number": 64,
                        "time": 129.13222553333327,
                        "value": 0
                    },
                    {
                        "number": 64,
                        "time": 129.1596569666666,
                        "value": 1
                    },
                    {
                        "number": 64,
                        "time": 129.27686399999993,
                        "value": 0
                    },
                    {
                        "number": 64,
                        "time": 129.36476927499993,
                        "value": 1
                    },
                    {
                        "number": 64,
                        "time": 129.58484418333327,
                        "value": 0
                    },
                    {
                        "number": 64,
                        "time": 129.67274945833327,
                        "value": 1
                    },
                    {
                        "number": 64,
                        "time": 129.73447018333326,
                        "value": 0
                    },
                    {
                        "number": 64,
                        "time": 129.81364727499994,
                        "value": 1
                    },
                    {
                        "number": 64,
                        "time": 130.47885953333326,
                        "value": 0
                    },
                    {
                        "number": 64,
                        "time": 130.5062909666666,
                        "value": 1
                    },
                    {
                        "number": 64,
                        "time": 130.62349799999993,
                        "value": 0
                    },
                    {
                        "number": 64,
                        "time": 130.6802311916666,
                        "value": 1
                    },
                    {
                        "number": 64,
                        "time": 130.78122874166658,
                        "value": 0
                    },
                    {
                        "number": 64,
                        "time": 130.82985719166658,
                        "value": 1
                    },
                    {
                        "number": 64,
                        "time": 130.93147818333324,
                        "value": 0
                    },
                    {
                        "number": 64,
                        "time": 131.01938345833324,
                        "value": 1
                    },
                    {
                        "number": 64,
                        "time": 131.08110418333322,
                        "value": 0
                    },
                    {
                        "number": 64,
                        "time": 131.1602812749999,
                        "value": 1
                    },
                    {
                        "number": 64,
                        "time": 131.82549353333323,
                        "value": 0
                    },
                    {
                        "number": 64,
                        "time": 131.85292496666656,
                        "value": 1
                    },
                    {
                        "number": 64,
                        "time": 131.9701319999999,
                        "value": 0
                    },
                    {
                        "number": 64,
                        "time": 132.0580372749999,
                        "value": 1
                    },
                    {
                        "number": 64,
                        "time": 132.27811218333323,
                        "value": 0
                    },
                    {
                        "number": 64,
                        "time": 132.36601745833323,
                        "value": 1
                    },
                    {
                        "number": 64,
                        "time": 132.42773818333322,
                        "value": 0
                    },
                    {
                        "number": 64,
                        "time": 132.5069152749999,
                        "value": 1
                    },
                    {
                        "number": 64,
                        "time": 133.17212753333322,
                        "value": 0
                    },
                    {
                        "number": 64,
                        "time": 133.20641682499988,
                        "value": 1
                    },
                    {
                        "number": 64,
                        "time": 134.66339999999988,
                        "value": 0
                    },
                    {
                        "number": 64,
                        "time": 134.72013319166655,
                        "value": 1
                    },
                    {
                        "number": 64,
                        "time": 134.82113074166654,
                        "value": 0
                    },
                    {
                        "number": 64,
                        "time": 134.86975919166653,
                        "value": 1
                    },
                    {
                        "number": 64,
                        "time": 134.9713801833332,
                        "value": 0
                    },
                    {
                        "number": 64,
                        "time": 135.0592854583332,
                        "value": 1
                    },
                    {
                        "number": 64,
                        "time": 135.12100618333318,
                        "value": 0
                    },
                    {
                        "number": 64,
                        "time": 135.20018327499986,
                        "value": 1
                    },
                    {
                        "number": 64,
                        "time": 135.86539553333319,
                        "value": 0
                    },
                    {
                        "number": 64,
                        "time": 135.89282696666652,
                        "value": 1
                    },
                    {
                        "number": 64,
                        "time": 136.08484699999985,
                        "value": 0
                    },
                    {
                        "number": 64,
                        "time": 137.17399959166653,
                        "value": 1
                    },
                    {
                        "number": 64,
                        "time": 137.2643986333332,
                        "value": 0
                    },
                    {
                        "number": 64,
                        "time": 138.07362591666654,
                        "value": 1
                    },
                    {
                        "number": 64,
                        "time": 138.13098254999989,
                        "value": 0
                    },
                    {
                        "number": 64,
                        "time": 138.55367599999988,
                        "value": 1
                    },
                    {
                        "number": 64,
                        "time": 138.6372171833332,
                        "value": 0
                    },
                    {
                        "number": 64,
                        "time": 138.70330199999987,
                        "value": 1
                    },
                    {
                        "number": 64,
                        "time": 138.78247909166654,
                        "value": 0
                    },
                    {
                        "number": 64,
                        "time": 139.90030999999988,
                        "value": 1
                    },
                    {
                        "number": 64,
                        "time": 139.96826514166654,
                        "value": 0
                    },
                    {
                        "number": 64,
                        "time": 140.79806599999986,
                        "value": 1
                    },
                    {
                        "number": 64,
                        "time": 140.86602114166652,
                        "value": 0
                    },
                    {
                        "number": 64,
                        "time": 141.24694399999984,
                        "value": 1
                    },
                    {
                        "number": 64,
                        "time": 141.3148991416665,
                        "value": 0
                    },
                    {
                        "number": 64,
                        "time": 141.39656999999983,
                        "value": 1
                    },
                    {
                        "number": 64,
                        "time": 141.4757470916665,
                        "value": 0
                    },
                    {
                        "number": 64,
                        "time": 142.59357799999984,
                        "value": 1
                    },
                    {
                        "number": 64,
                        "time": 142.6615331416665,
                        "value": 0
                    },
                    {
                        "number": 64,
                        "time": 143.49133399999982,
                        "value": 1
                    },
                    {
                        "number": 64,
                        "time": 143.55928914166648,
                        "value": 0
                    },
                    {
                        "number": 64,
                        "time": 143.9402119999998,
                        "value": 1
                    },
                    {
                        "number": 64,
                        "time": 144.00816714166646,
                        "value": 0
                    },
                    {
                        "number": 64,
                        "time": 144.0898379999998,
                        "value": 1
                    },
                    {
                        "number": 64,
                        "time": 144.16901509166647,
                        "value": 0
                    },
                    {
                        "number": 64,
                        "time": 145.2868459999998,
                        "value": 1
                    },
                    {
                        "number": 64,
                        "time": 145.35480114166646,
                        "value": 0
                    },
                    {
                        "number": 64,
                        "time": 146.18460199999978,
                        "value": 1
                    },
                    {
                        "number": 64,
                        "time": 146.25255714166644,
                        "value": 0
                    },
                    {
                        "number": 64,
                        "time": 146.63347999999976,
                        "value": 1
                    },
                    {
                        "number": 64,
                        "time": 146.70143514166642,
                        "value": 0
                    },
                    {
                        "number": 64,
                        "time": 146.73884164166643,
                        "value": 1
                    },
                    {
                        "number": 64,
                        "time": 146.86228309166643,
                        "value": 0
                    },
                    {
                        "number": 64,
                        "time": 147.98011399999976,
                        "value": 1
                    },
                    {
                        "number": 64,
                        "time": 148.04806914166642,
                        "value": 0
                    },
                    {
                        "number": 64,
                        "time": 149.42774554999974,
                        "value": 1
                    },
                    {
                        "number": 64,
                        "time": 149.55555109166642,
                        "value": 0
                    },
                    {
                        "number": 64,
                        "time": 150.67338199999975,
                        "value": 1
                    },
                    {
                        "number": 64,
                        "time": 150.7413371416664,
                        "value": 0
                    },
                    {
                        "number": 64,
                        "time": 152.16964199999973,
                        "value": 1
                    },
                    {
                        "number": 64,
                        "time": 152.32300864999974,
                        "value": 0
                    },
                    {
                        "number": 64,
                        "time": 153.1278718416664,
                        "value": 1
                    },
                    {
                        "number": 64,
                        "time": 153.22637562499975,
                        "value": 0
                    },
                    {
                        "number": 64,
                        "time": 153.51627599999975,
                        "value": 1
                    },
                    {
                        "number": 64,
                        "time": 153.66964264999976,
                        "value": 0
                    },
                    {
                        "number": 64,
                        "time": 154.47450584166643,
                        "value": 1
                    },
                    {
                        "number": 64,
                        "time": 154.57300962499977,
                        "value": 0
                    },
                    {
                        "number": 64,
                        "time": 154.74882017499976,
                        "value": 1
                    },
                    {
                        "number": 64,
                        "time": 155.01627664999975,
                        "value": 0
                    },
                    {
                        "number": 64,
                        "time": 155.77812236666642,
                        "value": 1
                    },
                    {
                        "number": 64,
                        "time": 155.91964362499976,
                        "value": 0
                    },
                    {
                        "number": 64,
                        "time": 156.20954399999977,
                        "value": 1
                    },
                    {
                        "number": 64,
                        "time": 156.36291064999978,
                        "value": 0
                    },
                    {
                        "number": 64,
                        "time": 157.16777384166645,
                        "value": 1
                    },
                    {
                        "number": 64,
                        "time": 157.2662776249998,
                        "value": 0
                    },
                    {
                        "number": 64,
                        "time": 157.44208817499978,
                        "value": 1
                    },
                    {
                        "number": 64,
                        "time": 157.6060533333331,
                        "value": 0
                    },
                    {
                        "number": 64,
                        "time": 157.88722552499976,
                        "value": 1
                    },
                    {
                        "number": 64,
                        "time": 158.16278674166642,
                        "value": 0
                    },
                    {
                        "number": 64,
                        "time": 158.28996884166642,
                        "value": 1
                    },
                    {
                        "number": 64,
                        "time": 158.61041785833308,
                        "value": 0
                    },
                    {
                        "number": 64,
                        "time": 158.66029319166643,
                        "value": 1
                    },
                    {
                        "number": 64,
                        "time": 158.83423341666642,
                        "value": 0
                    },
                    {
                        "number": 64,
                        "time": 159.2232610166664,
                        "value": 1
                    },
                    {
                        "number": 64,
                        "time": 159.50817385833307,
                        "value": 0
                    },
                    {
                        "number": 64,
                        "time": 159.65779985833308,
                        "value": 1
                    },
                    {
                        "number": 64,
                        "time": 159.95829874166643,
                        "value": 0
                    },
                    {
                        "number": 64,
                        "time": 159.98947082499976,
                        "value": 1
                    },
                    {
                        "number": 64,
                        "time": 160.1814908583331,
                        "value": 0
                    },
                    {
                        "number": 64,
                        "time": 160.52438377499976,
                        "value": 1
                    },
                    {
                        "number": 64,
                        "time": 160.79059336666643,
                        "value": 0
                    },
                    {
                        "number": 64,
                        "time": 161.44645399999976,
                        "value": 1
                    },
                    {
                        "number": 64,
                        "time": 161.70829949999975,
                        "value": 0
                    },
                    {
                        "number": 64,
                        "time": 162.82800073333308,
                        "value": 1
                    },
                    {
                        "number": 64,
                        "time": 163.69707841666641,
                        "value": 0
                    },
                    {
                        "number": 64,
                        "time": 163.76565699999975,
                        "value": 1
                    },
                    {
                        "number": 64,
                        "time": 163.84795129999975,
                        "value": 0
                    },
                    {
                        "number": 64,
                        "time": 163.93149248333307,
                        "value": 1
                    },
                    {
                        "number": 64,
                        "time": 164.58859999999973,
                        "value": 0
                    },
                    {
                        "number": 64,
                        "time": 164.62351273333306,
                        "value": 1
                    },
                    {
                        "number": 64,
                        "time": 165.4925904166664,
                        "value": 0
                    },
                    {
                        "number": 64,
                        "time": 165.56116899999972,
                        "value": 1
                    },
                    {
                        "number": 64,
                        "time": 165.64346329999972,
                        "value": 0
                    },
                    {
                        "number": 64,
                        "time": 165.72700448333305,
                        "value": 1
                    },
                    {
                        "number": 64,
                        "time": 166.5917180749997,
                        "value": 0
                    },
                    {
                        "number": 64,
                        "time": 166.69146874166637,
                        "value": 1
                    },
                    {
                        "number": 64,
                        "time": 167.1341123249997,
                        "value": 0
                    },
                    {
                        "number": 64,
                        "time": 167.19832681666637,
                        "value": 1
                    },
                    {
                        "number": 64,
                        "time": 167.28997274166636,
                        "value": 0
                    },
                    {
                        "number": 64,
                        "time": 167.34795281666635,
                        "value": 1
                    },
                    {
                        "number": 64,
                        "time": 167.43959874166634,
                        "value": 0
                    },
                    {
                        "number": 64,
                        "time": 167.53124466666634,
                        "value": 1
                    },
                    {
                        "number": 64,
                        "time": 168.33486097499969,
                        "value": 0
                    },
                    {
                        "number": 64,
                        "time": 168.48698074166634,
                        "value": 1
                    },
                    {
                        "number": 64,
                        "time": 168.77563423333302,
                        "value": 0
                    },
                    {
                        "number": 64,
                        "time": 168.80244222499968,
                        "value": 1
                    },
                    {
                        "number": 64,
                        "time": 168.93523529999968,
                        "value": 0
                    },
                    {
                        "number": 64,
                        "time": 168.99383881666634,
                        "value": 1
                    },
                    {
                        "number": 64,
                        "time": 169.08548474166633,
                        "value": 0
                    },
                    {
                        "number": 64,
                        "time": 169.14346481666632,
                        "value": 1
                    },
                    {
                        "number": 64,
                        "time": 169.23511074166632,
                        "value": 0
                    },
                    {
                        "number": 64,
                        "time": 169.3267566666663,
                        "value": 1
                    },
                    {
                        "number": 64,
                        "time": 169.9252606666663,
                        "value": 0
                    },
                    {
                        "number": 64,
                        "time": 170.01004873333298,
                        "value": 1
                    },
                    {
                        "number": 64,
                        "time": 170.8791264166663,
                        "value": 0
                    },
                    {
                        "number": 64,
                        "time": 170.94770499999964,
                        "value": 1
                    },
                    {
                        "number": 64,
                        "time": 171.02999929999964,
                        "value": 0
                    },
                    {
                        "number": 64,
                        "time": 171.11354048333297,
                        "value": 1
                    },
                    {
                        "number": 64,
                        "time": 171.92900218333295,
                        "value": 0
                    },
                    {
                        "number": 64,
                        "time": 172.03249349999962,
                        "value": 1
                    },
                    {
                        "number": 64,
                        "time": 172.52064832499963,
                        "value": 0
                    },
                    {
                        "number": 64,
                        "time": 172.5848628166663,
                        "value": 1
                    },
                    {
                        "number": 64,
                        "time": 172.67650874166628,
                        "value": 0
                    },
                    {
                        "number": 64,
                        "time": 172.73448881666627,
                        "value": 1
                    },
                    {
                        "number": 64,
                        "time": 172.82613474166627,
                        "value": 0
                    },
                    {
                        "number": 64,
                        "time": 172.91778066666626,
                        "value": 1
                    },
                    {
                        "number": 64,
                        "time": 173.5680303249996,
                        "value": 0
                    },
                    {
                        "number": 64,
                        "time": 173.6372323499996,
                        "value": 1
                    },
                    {
                        "number": 64,
                        "time": 174.16902809166626,
                        "value": 0
                    },
                    {
                        "number": 64,
                        "time": 174.27251940833293,
                        "value": 1
                    },
                    {
                        "number": 64,
                        "time": 174.6210232999996,
                        "value": 0
                    },
                    {
                        "number": 64,
                        "time": 174.70456448333292,
                        "value": 1
                    },
                    {
                        "number": 64,
                        "time": 175.05369181666626,
                        "value": 0
                    },
                    {
                        "number": 64,
                        "time": 175.10419059166625,
                        "value": 1
                    },
                    {
                        "number": 64,
                        "time": 175.51129799999958,
                        "value": 0
                    },
                    {
                        "number": 64,
                        "time": 175.6359863333329,
                        "value": 1
                    },
                    {
                        "number": 64,
                        "time": 175.96454009166624,
                        "value": 0
                    },
                    {
                        "number": 64,
                        "time": 176.0680314083329,
                        "value": 1
                    },
                    {
                        "number": 64,
                        "time": 176.41653529999957,
                        "value": 0
                    },
                    {
                        "number": 64,
                        "time": 176.5917224083329,
                        "value": 1
                    },
                    {
                        "number": 64,
                        "time": 177.31429129999958,
                        "value": 0
                    },
                    {
                        "number": 64,
                        "time": 177.3978324833329,
                        "value": 1
                    },
                    {
                        "number": 64,
                        "time": 177.74695981666625,
                        "value": 0
                    },
                    {
                        "number": 64,
                        "time": 177.79745859166624,
                        "value": 1
                    },
                    {
                        "number": 64,
                        "time": 178.20456599999957,
                        "value": 0
                    },
                    {
                        "number": 64,
                        "time": 178.3292543333329,
                        "value": 1
                    },
                    {
                        "number": 64,
                        "time": 178.65780809166623,
                        "value": 0
                    },
                    {
                        "number": 64,
                        "time": 178.7612994083329,
                        "value": 1
                    },
                    {
                        "number": 64,
                        "time": 179.10980329999956,
                        "value": 0
                    },
                    {
                        "number": 64,
                        "time": 179.13972849999956,
                        "value": 1
                    },
                    {
                        "number": 64,
                        "time": 179.85606297499956,
                        "value": 0
                    },
                    {
                        "number": 64,
                        "time": 179.8834944083329,
                        "value": 1
                    },
                    {
                        "number": 64,
                        "time": 180.01129994999957,
                        "value": 0
                    },
                    {
                        "number": 64,
                        "time": 180.03935482499958,
                        "value": 1
                    },
                    {
                        "number": 64,
                        "time": 180.44895599999958,
                        "value": 0
                    },
                    {
                        "number": 64,
                        "time": 180.4863624999996,
                        "value": 1
                    },
                    {
                        "number": 64,
                        "time": 180.9034449749996,
                        "value": 0
                    },
                    {
                        "number": 64,
                        "time": 180.9352404999996,
                        "value": 1
                    },
                    {
                        "number": 64,
                        "time": 181.20145009166626,
                        "value": 0
                    },
                    {
                        "number": 64,
                        "time": 181.23199873333292,
                        "value": 1
                    },
                    {
                        "number": 64,
                        "time": 181.35294641666624,
                        "value": 0
                    },
                    {
                        "number": 64,
                        "time": 181.39284668333292,
                        "value": 1
                    },
                    {
                        "number": 64,
                        "time": 181.80618850833292,
                        "value": 0
                    },
                    {
                        "number": 64,
                        "time": 181.85481695833292,
                        "value": 1
                    },
                    {
                        "number": 64,
                        "time": 182.55120129999958,
                        "value": 0
                    },
                    {
                        "number": 64,
                        "time": 182.5767624083329,
                        "value": 1
                    },
                    {
                        "number": 64,
                        "time": 183.14845841666624,
                        "value": 0
                    },
                    {
                        "number": 64,
                        "time": 183.1771367333329,
                        "value": 1
                    },
                    {
                        "number": 64,
                        "time": 183.59733641666622,
                        "value": 0
                    },
                    {
                        "number": 64,
                        "time": 183.63037882499955,
                        "value": 1
                    },
                    {
                        "number": 64,
                        "time": 184.04621441666623,
                        "value": 0
                    },
                    {
                        "number": 64,
                        "time": 184.0748927333329,
                        "value": 1
                    },
                    {
                        "number": 64,
                        "time": 184.49633929999956,
                        "value": 0
                    },
                    {
                        "number": 64,
                        "time": 184.56990541666622,
                        "value": 1
                    },
                    {
                        "number": 64,
                        "time": 185.24259897499954,
                        "value": 0
                    },
                    {
                        "number": 64,
                        "time": 185.27003040833287,
                        "value": 1
                    },
                    {
                        "number": 64,
                        "time": 185.39783594999955,
                        "value": 0
                    },
                    {
                        "number": 64,
                        "time": 185.42589082499956,
                        "value": 1
                    },
                    {
                        "number": 64,
                        "time": 185.84609050833288,
                        "value": 0
                    },
                    {
                        "number": 64,
                        "time": 185.89471895833287,
                        "value": 1
                    },
                    {
                        "number": 64,
                        "time": 186.7376120916662,
                        "value": 0
                    },
                    {
                        "number": 64,
                        "time": 186.81865950833287,
                        "value": 1
                    },
                    {
                        "number": 64,
                        "time": 187.18025567499953,
                        "value": 0
                    },
                    {
                        "number": 64,
                        "time": 187.2238965916662,
                        "value": 1
                    },
                    {
                        "number": 64,
                        "time": 188.08424609166622,
                        "value": 0
                    },
                    {
                        "number": 64,
                        "time": 188.1652935083329,
                        "value": 1
                    },
                    {
                        "number": 64,
                        "time": 188.52875999999955,
                        "value": 0
                    },
                    {
                        "number": 64,
                        "time": 188.57738844999955,
                        "value": 1
                    },
                    {
                        "number": 64,
                        "time": 189.43898483333288,
                        "value": 0
                    },
                    {
                        "number": 64,
                        "time": 189.49073049166623,
                        "value": 1
                    },
                    {
                        "number": 64,
                        "time": 189.65469564999955,
                        "value": 0
                    },
                    {
                        "number": 64,
                        "time": 189.68462084999956,
                        "value": 1
                    },
                    {
                        "number": 64,
                        "time": 189.87539399999957,
                        "value": 0
                    },
                    {
                        "number": 64,
                        "time": 189.98948382499958,
                        "value": 1
                    },
                    {
                        "number": 64,
                        "time": 191.22202799999957,
                        "value": 0
                    },
                    {
                        "number": 64,
                        "time": 191.32863652499958,
                        "value": 1
                    },
                    {
                        "number": 64,
                        "time": 191.67963418333292,
                        "value": 0
                    },
                    {
                        "number": 64,
                        "time": 191.77065666666627,
                        "value": 1
                    },
                    {
                        "number": 64,
                        "time": 192.12477153333293,
                        "value": 0
                    },
                    {
                        "number": 64,
                        "time": 192.1908563499996,
                        "value": 1
                    },
                    {
                        "number": 64,
                        "time": 192.6041981749996,
                        "value": 0
                    },
                    {
                        "number": 64,
                        "time": 192.70394884166626,
                        "value": 1
                    },
                    {
                        "number": 64,
                        "time": 193.2394852333329,
                        "value": 0
                    },
                    {
                        "number": 64,
                        "time": 193.27003387499957,
                        "value": 1
                    },
                    {
                        "number": 64,
                        "time": 193.4714055333329,
                        "value": 0
                    },
                    {
                        "number": 64,
                        "time": 193.50756514999958,
                        "value": 1
                    },
                    {
                        "number": 64,
                        "time": 193.69522109166624,
                        "value": 0
                    },
                    {
                        "number": 64,
                        "time": 193.73449791666624,
                        "value": 1
                    },
                    {
                        "number": 64,
                        "time": 193.91529599999959,
                        "value": 0
                    },
                    {
                        "number": 64,
                        "time": 193.97701672499957,
                        "value": 1
                    },
                    {
                        "number": 64,
                        "time": 195.28624422499956,
                        "value": 0
                    },
                    {
                        "number": 64,
                        "time": 195.35170559999958,
                        "value": 1
                    },
                    {
                        "number": 64,
                        "time": 195.7214065083329,
                        "value": 0
                    },
                    {
                        "number": 64,
                        "time": 195.77439904999957,
                        "value": 1
                    },
                    {
                        "number": 64,
                        "time": 196.16716729999956,
                        "value": 0
                    },
                    {
                        "number": 64,
                        "time": 196.19023464166622,
                        "value": 1
                    },
                    {
                        "number": 64,
                        "time": 196.65532212499954,
                        "value": 0
                    },
                    {
                        "number": 64,
                        "time": 197.8404847333329,
                        "value": 1
                    },
                    {
                        "number": 64,
                        "time": 198.70956241666622,
                        "value": 0
                    },
                    {
                        "number": 64,
                        "time": 198.77814099999955,
                        "value": 1
                    },
                    {
                        "number": 64,
                        "time": 198.86043529999955,
                        "value": 0
                    },
                    {
                        "number": 64,
                        "time": 198.94397648333288,
                        "value": 1
                    },
                    {
                        "number": 64,
                        "time": 199.60108399999953,
                        "value": 0
                    },
                    {
                        "number": 64,
                        "time": 199.6522062166662,
                        "value": 1
                    },
                    {
                        "number": 64,
                        "time": 200.5050744166662,
                        "value": 0
                    },
                    {
                        "number": 64,
                        "time": 200.57365299999952,
                        "value": 1
                    },
                    {
                        "number": 64,
                        "time": 200.65594729999953,
                        "value": 0
                    },
                    {
                        "number": 64,
                        "time": 200.73948848333285,
                        "value": 1
                    },
                    {
                        "number": 64,
                        "time": 202.3005864166662,
                        "value": 0
                    },
                    {
                        "number": 64,
                        "time": 202.36916499999953,
                        "value": 1
                    },
                    {
                        "number": 64,
                        "time": 202.45145929999953,
                        "value": 0
                    },
                    {
                        "number": 64,
                        "time": 202.53500048333285,
                        "value": 1
                    },
                    {
                        "number": 64,
                        "time": 203.1921079999995,
                        "value": 0
                    },
                    {
                        "number": 64,
                        "time": 203.24323021666618,
                        "value": 1
                    },
                    {
                        "number": 64,
                        "time": 203.34173399999952,
                        "value": 0
                    },
                    {
                        "number": 64,
                        "time": 203.46642233333284,
                        "value": 1
                    },
                    {
                        "number": 64,
                        "time": 203.9495896249995,
                        "value": 0
                    },
                    {
                        "number": 64,
                        "time": 204.01505099999952,
                        "value": 1
                    },
                    {
                        "number": 64,
                        "time": 204.24697129999953,
                        "value": 0
                    },
                    {
                        "number": 64,
                        "time": 204.38911599999952,
                        "value": 1
                    },
                    {
                        "number": 64,
                        "time": 204.99946539166618,
                        "value": 0
                    },
                    {
                        "number": 64,
                        "time": 205.0755252749995,
                        "value": 1
                    },
                    {
                        "number": 64,
                        "time": 205.89161041666617,
                        "value": 0
                    },
                    {
                        "number": 64,
                        "time": 205.9601889999995,
                        "value": 1
                    },
                    {
                        "number": 64,
                        "time": 206.0424832999995,
                        "value": 0
                    },
                    {
                        "number": 64,
                        "time": 206.12602448333283,
                        "value": 1
                    },
                    {
                        "number": 64,
                        "time": 206.78313199999948,
                        "value": 0
                    },
                    {
                        "number": 64,
                        "time": 206.83425421666615,
                        "value": 1
                    },
                    {
                        "number": 64,
                        "time": 206.9327579999995,
                        "value": 0
                    },
                    {
                        "number": 64,
                        "time": 207.0393665249995,
                        "value": 1
                    },
                    {
                        "number": 64,
                        "time": 207.5406136249995,
                        "value": 0
                    },
                    {
                        "number": 64,
                        "time": 207.64535182499952,
                        "value": 1
                    },
                    {
                        "number": 64,
                        "time": 207.83799529999953,
                        "value": 0
                    },
                    {
                        "number": 64,
                        "time": 207.92153648333286,
                        "value": 1
                    },
                    {
                        "number": 64,
                        "time": 208.58612529999954,
                        "value": 0
                    },
                    {
                        "number": 64,
                        "time": 208.65345699999955,
                        "value": 1
                    },
                    {
                        "number": 64,
                        "time": 209.18275897499956,
                        "value": 0
                    },
                    {
                        "number": 64,
                        "time": 209.26006574166624,
                        "value": 1
                    },
                    {
                        "number": 64,
                        "time": 209.63911827499956,
                        "value": 0
                    },
                    {
                        "number": 64,
                        "time": 209.7170484833329,
                        "value": 1
                    },
                    {
                        "number": 64,
                        "time": 210.08300874166622,
                        "value": 0
                    },
                    {
                        "number": 64,
                        "time": 210.21580181666621,
                        "value": 1
                    },
                    {
                        "number": 64,
                        "time": 210.52378199999956,
                        "value": 0
                    },
                    {
                        "number": 64,
                        "time": 210.6148044833329,
                        "value": 1
                    },
                    {
                        "number": 64,
                        "time": 211.42153799999957,
                        "value": 0
                    },
                    {
                        "number": 64,
                        "time": 211.51817145833292,
                        "value": 1
                    },
                    {
                        "number": 64,
                        "time": 211.87852074166625,
                        "value": 0
                    },
                    {
                        "number": 64,
                        "time": 211.95520406666625,
                        "value": 1
                    },
                    {
                        "number": 64,
                        "time": 212.32303464999958,
                        "value": 0
                    },
                    {
                        "number": 64,
                        "time": 212.38537881666625,
                        "value": 1
                    },
                    {
                        "number": 64,
                        "time": 213.09797264166625,
                        "value": 0
                    },
                    {
                        "number": 64,
                        "time": 213.14660109166624,
                        "value": 1
                    },
                    {
                        "number": 64,
                        "time": 213.22079064999957,
                        "value": 0
                    },
                    {
                        "number": 64,
                        "time": 213.2949802083329,
                        "value": 1
                    },
                    {
                        "number": 64,
                        "time": 214.11480599999956,
                        "value": 0
                    },
                    {
                        "number": 64,
                        "time": 214.25570381666623,
                        "value": 1
                    },
                    {
                        "number": 64,
                        "time": 214.56929497499956,
                        "value": 0
                    },
                    {
                        "number": 64,
                        "time": 214.64660174166625,
                        "value": 1
                    },
                    {
                        "number": 64,
                        "time": 215.02565427499957,
                        "value": 0
                    },
                    {
                        "number": 64,
                        "time": 215.1035844833329,
                        "value": 1
                    },
                    {
                        "number": 64,
                        "time": 215.46954474166623,
                        "value": 0
                    },
                    {
                        "number": 64,
                        "time": 215.60233781666622,
                        "value": 1
                    },
                    {
                        "number": 64,
                        "time": 215.91031799999956,
                        "value": 0
                    },
                    {
                        "number": 64,
                        "time": 216.0013404833329,
                        "value": 1
                    },
                    {
                        "number": 64,
                        "time": 216.80807399999958,
                        "value": 0
                    },
                    {
                        "number": 64,
                        "time": 216.90470745833292,
                        "value": 1
                    },
                    {
                        "number": 64,
                        "time": 217.26505674166626,
                        "value": 0
                    },
                    {
                        "number": 64,
                        "time": 217.34174006666626,
                        "value": 1
                    },
                    {
                        "number": 64,
                        "time": 217.7095706499996,
                        "value": 0
                    },
                    {
                        "number": 64,
                        "time": 217.77191481666625,
                        "value": 1
                    },
                    {
                        "number": 64,
                        "time": 218.48450864166625,
                        "value": 0
                    },
                    {
                        "number": 64,
                        "time": 218.53313709166625,
                        "value": 1
                    },
                    {
                        "number": 64,
                        "time": 218.60732664999958,
                        "value": 0
                    },
                    {
                        "number": 64,
                        "time": 218.6815162083329,
                        "value": 1
                    },
                    {
                        "number": 64,
                        "time": 219.50134199999957,
                        "value": 0
                    },
                    {
                        "number": 64,
                        "time": 219.64223981666623,
                        "value": 1
                    },
                    {
                        "number": 64,
                        "time": 219.95832474166625,
                        "value": 0
                    },
                    {
                        "number": 64,
                        "time": 220.04997066666624,
                        "value": 1
                    },
                    {
                        "number": 64,
                        "time": 220.28002064166623,
                        "value": 0
                    },
                    {
                        "number": 64,
                        "time": 220.32864909166622,
                        "value": 1
                    },
                    {
                        "number": 64,
                        "time": 220.40283864999955,
                        "value": 0
                    },
                    {
                        "number": 64,
                        "time": 220.47702820833288,
                        "value": 1
                    },
                    {
                        "number": 64,
                        "time": 221.29685399999954,
                        "value": 0
                    },
                    {
                        "number": 64,
                        "time": 221.4377518166662,
                        "value": 1
                    },
                    {
                        "number": 64,
                        "time": 222.04685432499954,
                        "value": 0
                    },
                    {
                        "number": 64,
                        "time": 222.1110688166662,
                        "value": 1
                    },
                    {
                        "number": 64,
                        "time": 222.19585688333288,
                        "value": 0
                    },
                    {
                        "number": 64,
                        "time": 222.26069481666622,
                        "value": 1
                    },
                    {
                        "number": 64,
                        "time": 222.42341309166622,
                        "value": 0
                    },
                    {
                        "number": 64,
                        "time": 222.45832582499955,
                        "value": 1
                    },
                    {
                        "number": 64,
                        "time": 222.65470994999956,
                        "value": 0
                    },
                    {
                        "number": 64,
                        "time": 222.72266509166622,
                        "value": 1
                    },
                    {
                        "number": 64,
                        "time": 223.09236599999954,
                        "value": 0
                    },
                    {
                        "number": 64,
                        "time": 223.1921166666662,
                        "value": 1
                    },
                    {
                        "number": 64,
                        "time": 223.5437377666662,
                        "value": 0
                    },
                    {
                        "number": 64,
                        "time": 223.6241617416662,
                        "value": 1
                    },
                    {
                        "number": 64,
                        "time": 223.99012199999953,
                        "value": 0
                    },
                    {
                        "number": 64,
                        "time": 224.11481033333285,
                        "value": 1
                    },
                    {
                        "number": 64,
                        "time": 224.44835162499953,
                        "value": 0
                    },
                    {
                        "number": 64,
                        "time": 224.5387506666662,
                        "value": 1
                    },
                    {
                        "number": 64,
                        "time": 228.32927599999954,
                        "value": 0
                    },
                    {
                        "number": 64,
                        "time": 228.40159523333287,
                        "value": 1
                    },
                    {
                        "number": 64,
                        "time": 228.55371499999953,
                        "value": 0
                    },
                    {
                        "number": 64,
                        "time": 229.6428675916662,
                        "value": 1
                    },
                    {
                        "number": 64,
                        "time": 229.73326663333287,
                        "value": 0
                    },
                    {
                        "number": 64,
                        "time": 231.21144682499954,
                        "value": 1
                    },
                    {
                        "number": 64,
                        "time": 233.78501402499955,
                        "value": 0
                    },
                    {
                        "number": 64,
                        "time": 233.82803149999955,
                        "value": 1
                    },
                    {
                        "number": 64,
                        "time": 233.90035073333289,
                        "value": 0
                    },
                    {
                        "number": 64,
                        "time": 235.0294035916662,
                        "value": 1
                    },
                    {
                        "number": 64,
                        "time": 235.11980263333288,
                        "value": 0
                    },
                    {
                        "number": 64,
                        "time": 236.6191798416662,
                        "value": 1
                    },
                    {
                        "number": 64,
                        "time": 237.4608260916662,
                        "value": 0
                    },
                    {
                        "number": 64,
                        "time": 237.5131951916662,
                        "value": 1
                    },
                    {
                        "number": 64,
                        "time": 239.17155002499953,
                        "value": 0
                    },
                    {
                        "number": 64,
                        "time": 239.2208019166662,
                        "value": 1
                    },
                    {
                        "number": 64,
                        "time": 239.32678699999954,
                        "value": 0
                    },
                    {
                        "number": 64,
                        "time": 240.41593959166622,
                        "value": 1
                    },
                    {
                        "number": 64,
                        "time": 240.5063386333329,
                        "value": 0
                    },
                    {
                        "number": 64,
                        "time": 242.02005499999956,
                        "value": 1
                    },
                    {
                        "number": 64,
                        "time": 243.74885874166623,
                        "value": 0
                    },
                    {
                        "number": 64,
                        "time": 243.81556699999956,
                        "value": 0
                    },
                    {
                        "number": 64,
                        "time": 244.90471959166624,
                        "value": 1
                    },
                    {
                        "number": 64,
                        "time": 244.9951186333329,
                        "value": 0
                    },
                    {
                        "number": 64,
                        "time": 246.50883499999958,
                        "value": 1
                    },
                    {
                        "number": 64,
                        "time": 248.30871109166625,
                        "value": 0
                    },
                    {
                        "number": 64,
                        "time": 249.42654199999959,
                        "value": 1
                    },
                    {
                        "number": 64,
                        "time": 249.49449714166624,
                        "value": 0
                    },
                    {
                        "number": 64,
                        "time": 250.92280199999956,
                        "value": 1
                    },
                    {
                        "number": 64,
                        "time": 251.07616864999957,
                        "value": 0
                    },
                    {
                        "number": 64,
                        "time": 251.88103184166624,
                        "value": 1
                    },
                    {
                        "number": 64,
                        "time": 251.97953562499958,
                        "value": 0
                    },
                    {
                        "number": 64,
                        "time": 252.2694359999996,
                        "value": 1
                    },
                    {
                        "number": 64,
                        "time": 252.4228026499996,
                        "value": 0
                    },
                    {
                        "number": 64,
                        "time": 253.22766584166627,
                        "value": 1
                    },
                    {
                        "number": 64,
                        "time": 253.3261696249996,
                        "value": 0
                    },
                    {
                        "number": 64,
                        "time": 253.5019801749996,
                        "value": 1
                    },
                    {
                        "number": 64,
                        "time": 253.7694366499996,
                        "value": 0
                    },
                    {
                        "number": 64,
                        "time": 254.53128236666626,
                        "value": 1
                    },
                    {
                        "number": 64,
                        "time": 254.6728036249996,
                        "value": 0
                    },
                    {
                        "number": 64,
                        "time": 254.9627039999996,
                        "value": 1
                    },
                    {
                        "number": 64,
                        "time": 255.1160706499996,
                        "value": 0
                    },
                    {
                        "number": 64,
                        "time": 255.92093384166628,
                        "value": 1
                    },
                    {
                        "number": 64,
                        "time": 256.0194376249996,
                        "value": 0
                    },
                    {
                        "number": 64,
                        "time": 256.1952481749996,
                        "value": 1
                    },
                    {
                        "number": 64,
                        "time": 256.35921333333295,
                        "value": 0
                    },
                    {
                        "number": 64,
                        "time": 256.6403855249996,
                        "value": 1
                    },
                    {
                        "number": 64,
                        "time": 256.9159467416663,
                        "value": 0
                    },
                    {
                        "number": 64,
                        "time": 256.97517369999963,
                        "value": 1
                    },
                    {
                        "number": 64,
                        "time": 257.363577858333,
                        "value": 0
                    },
                    {
                        "number": 64,
                        "time": 257.4134531916663,
                        "value": 1
                    },
                    {
                        "number": 64,
                        "time": 257.5873934166663,
                        "value": 0
                    },
                    {
                        "number": 64,
                        "time": 257.97642101666634,
                        "value": 1
                    },
                    {
                        "number": 64,
                        "time": 258.261333858333,
                        "value": 0
                    },
                    {
                        "number": 64,
                        "time": 258.3648251749997,
                        "value": 1
                    },
                    {
                        "number": 64,
                        "time": 258.7114587416663,
                        "value": 0
                    },
                    {
                        "number": 64,
                        "time": 258.74263082499965,
                        "value": 1
                    },
                    {
                        "number": 64,
                        "time": 258.934650858333,
                        "value": 0
                    },
                    {
                        "number": 64,
                        "time": 259.27754377499963,
                        "value": 1
                    },
                    {
                        "number": 64,
                        "time": 259.5437533666663,
                        "value": 0
                    },
                    {
                        "number": 64,
                        "time": 260.19961399999966,
                        "value": 1
                    },
                    {
                        "number": 64,
                        "time": 260.46145949999965,
                        "value": 0
                    },
                    {
                        "number": 64,
                        "time": 261.56370436666634,
                        "value": 1
                    },
                    {
                        "number": 64,
                        "time": 261.78814336666636,
                        "value": 0
                    },
                    {
                        "number": 64,
                        "time": 262.91033836666634,
                        "value": 1
                    },
                    {
                        "number": 64,
                        "time": 263.13477736666636,
                        "value": 0
                    },
                    {
                        "number": 64,
                        "time": 264.25697236666633,
                        "value": 1
                    },
                    {
                        "number": 64,
                        "time": 264.48141136666635,
                        "value": 0
                    },
                    {
                        "number": 64,
                        "time": 265.6036063666663,
                        "value": 1
                    },
                    {
                        "number": 64,
                        "time": 265.82804536666634,
                        "value": 0
                    },
                    {
                        "number": 64,
                        "time": 266.9502403666663,
                        "value": 1
                    },
                    {
                        "number": 64,
                        "time": 267.17467936666634,
                        "value": 0
                    },
                    {
                        "number": 64,
                        "time": 268.2968743666663,
                        "value": 1
                    },
                    {
                        "number": 64,
                        "time": 268.52131336666633,
                        "value": 0
                    },
                    {
                        "number": 64,
                        "time": 274.16720109999966,
                        "value": 1
                    },
                    {
                        "number": 64,
                        "time": 274.9066029166663,
                        "value": 0
                    },
                    {
                        "number": 64,
                        "time": 275.08740099999966,
                        "value": 1
                    },
                    {
                        "number": 64,
                        "time": 275.23702699999967,
                        "value": 0
                    },
                    {
                        "number": 64,
                        "time": 275.503860033333,
                        "value": 1
                    },
                    {
                        "number": 64,
                        "time": 276.2451321749997,
                        "value": 0
                    },
                    {
                        "number": 64,
                        "time": 276.4340349999997,
                        "value": 1
                    },
                    {
                        "number": 64,
                        "time": 276.5836609999997,
                        "value": 0
                    },
                    {
                        "number": 64,
                        "time": 276.85049403333306,
                        "value": 1
                    },
                    {
                        "number": 64,
                        "time": 277.2613420916664,
                        "value": 0
                    },
                    {
                        "number": 64,
                        "time": 280.3660815916664,
                        "value": 1
                    },
                    {
                        "number": 64,
                        "time": 280.45648063333306,
                        "value": 0
                    },
                    {
                        "number": 64,
                        "time": 281.8467555499997,
                        "value": 1
                    },
                    {
                        "number": 64,
                        "time": 281.9745610916664,
                        "value": 0
                    },
                    {
                        "number": 64,
                        "time": 283.09239199999973,
                        "value": 1
                    },
                    {
                        "number": 64,
                        "time": 283.1603471416664,
                        "value": 0
                    },
                    {
                        "number": 64,
                        "time": 284.5400235499998,
                        "value": 1
                    },
                    {
                        "number": 64,
                        "time": 284.6678290916664,
                        "value": 0
                    },
                    {
                        "number": 64,
                        "time": 285.7856599999998,
                        "value": 1
                    },
                    {
                        "number": 64,
                        "time": 285.85361514166647,
                        "value": 0
                    },
                    {
                        "number": 64,
                        "time": 287.3137155249998,
                        "value": 1
                    },
                    {
                        "number": 64,
                        "time": 288.04251883333313,
                        "value": 0
                    },
                    {
                        "number": 64,
                        "time": 288.0830425416665,
                        "value": 1
                    },
                    {
                        "number": 64,
                        "time": 288.1690774916665,
                        "value": 0
                    },
                    {
                        "number": 64,
                        "time": 288.2046136666665,
                        "value": 1
                    },
                    {
                        "number": 64,
                        "time": 288.48578585833314,
                        "value": 0
                    },
                    {
                        "number": 64,
                        "time": 288.52506268333315,
                        "value": 1
                    },
                    {
                        "number": 64,
                        "time": 288.62855399999984,
                        "value": 0
                    },
                    {
                        "number": 64,
                        "time": 288.67842933333316,
                        "value": 1
                    },
                    {
                        "number": 64,
                        "time": 289.3810480916665,
                        "value": 0
                    },
                    {
                        "number": 64,
                        "time": 289.44401569999985,
                        "value": 1
                    },
                    {
                        "number": 64,
                        "time": 289.53379129999985,
                        "value": 0
                    },
                    {
                        "number": 64,
                        "time": 289.56558682499985,
                        "value": 1
                    },
                    {
                        "number": 64,
                        "time": 289.8299260916665,
                        "value": 0
                    },
                    {
                        "number": 64,
                        "time": 289.8610981749998,
                        "value": 1
                    },
                    {
                        "number": 64,
                        "time": 289.97518799999983,
                        "value": 0
                    },
                    {
                        "number": 64,
                        "time": 290.0356618416665,
                        "value": 1
                    },
                    {
                        "number": 64,
                        "time": 290.67157234166655,
                        "value": 0
                    },
                    {
                        "number": 64,
                        "time": 290.7158366999999,
                        "value": 1
                    },
                    {
                        "number": 64,
                        "time": 291.3143406999999,
                        "value": 0
                    },
                    {
                        "number": 64,
                        "time": 291.3860364916666,
                        "value": 1
                    },
                    {
                        "number": 64,
                        "time": 292.6684559999999,
                        "value": 0
                    },
                    {
                        "number": 64,
                        "time": 292.7214485416665,
                        "value": 1
                    },
                    {
                        "number": 64,
                        "time": 293.42905483333317,
                        "value": 0
                    },
                    {
                        "number": 64,
                        "time": 293.4695785416665,
                        "value": 1
                    },
                    {
                        "number": 64,
                        "time": 293.5556134916665,
                        "value": 0
                    },
                    {
                        "number": 64,
                        "time": 293.5911496666665,
                        "value": 1
                    },
                    {
                        "number": 64,
                        "time": 293.8723218583332,
                        "value": 0
                    },
                    {
                        "number": 64,
                        "time": 293.9115986833332,
                        "value": 1
                    },
                    {
                        "number": 64,
                        "time": 294.0150899999999,
                        "value": 0
                    },
                    {
                        "number": 64,
                        "time": 294.0649653333332,
                        "value": 1
                    },
                    {
                        "number": 64,
                        "time": 294.76758409166655,
                        "value": 0
                    },
                    {
                        "number": 64,
                        "time": 294.8305516999999,
                        "value": 1
                    },
                    {
                        "number": 64,
                        "time": 294.9203272999999,
                        "value": 0
                    },
                    {
                        "number": 64,
                        "time": 294.9521228249999,
                        "value": 1
                    },
                    {
                        "number": 64,
                        "time": 295.21646209166653,
                        "value": 0
                    },
                    {
                        "number": 64,
                        "time": 295.24763417499986,
                        "value": 1
                    },
                    {
                        "number": 64,
                        "time": 295.36172399999987,
                        "value": 0
                    },
                    {
                        "number": 64,
                        "time": 295.42219784166656,
                        "value": 1
                    },
                    {
                        "number": 64,
                        "time": 296.0581083416666,
                        "value": 0
                    },
                    {
                        "number": 64,
                        "time": 296.10237269999993,
                        "value": 1
                    },
                    {
                        "number": 64,
                        "time": 296.7008766999999,
                        "value": 0
                    },
                    {
                        "number": 64,
                        "time": 296.7725724916666,
                        "value": 1
                    },
                    {
                        "number": 64,
                        "time": 298.0549919999999,
                        "value": 0
                    },
                    {
                        "number": 64,
                        "time": 298.5394061749999,
                        "value": 1
                    },
                    {
                        "number": 64,
                        "time": 298.9583589749999,
                        "value": 0
                    },
                    {
                        "number": 64,
                        "time": 299.0437704833332,
                        "value": 1
                    },
                    {
                        "number": 64,
                        "time": 299.4084838583332,
                        "value": 0
                    },
                    {
                        "number": 64,
                        "time": 299.48703750833323,
                        "value": 1
                    },
                    {
                        "number": 64,
                        "time": 299.8561149749999,
                        "value": 0
                    },
                    {
                        "number": 64,
                        "time": 299.94152648333323,
                        "value": 1
                    },
                    {
                        "number": 64,
                        "time": 300.30623985833324,
                        "value": 0
                    },
                    {
                        "number": 64,
                        "time": 300.38479350833325,
                        "value": 1
                    },
                    {
                        "number": 64,
                        "time": 300.7538709749999,
                        "value": 0
                    },
                    {
                        "number": 64,
                        "time": 300.83928248333325,
                        "value": 1
                    },
                    {
                        "number": 64,
                        "time": 301.20399585833326,
                        "value": 0
                    },
                    {
                        "number": 64,
                        "time": 301.28254950833326,
                        "value": 1
                    },
                    {
                        "number": 64,
                        "time": 301.6460159999999,
                        "value": 0
                    },
                    {
                        "number": 64,
                        "time": 301.7619761499999,
                        "value": 1
                    },
                    {
                        "number": 64,
                        "time": 302.10736283333324,
                        "value": 0
                    },
                    {
                        "number": 64,
                        "time": 302.21085414999993,
                        "value": 1
                    },
                    {
                        "number": 64,
                        "time": 302.5500064166666,
                        "value": 0
                    },
                    {
                        "number": 64,
                        "time": 302.62918350833326,
                        "value": 1
                    },
                    {
                        "number": 64,
                        "time": 302.9988844166666,
                        "value": 0
                    },
                    {
                        "number": 64,
                        "time": 303.0637223499999,
                        "value": 1
                    },
                    {
                        "number": 64,
                        "time": 303.44152799999995,
                        "value": 0
                    },
                    {
                        "number": 64,
                        "time": 303.5574881499999,
                        "value": 1
                    },
                    {
                        "number": 64,
                        "time": 303.8947700916666,
                        "value": 0
                    },
                    {
                        "number": 64,
                        "time": 303.9564908166666,
                        "value": 1
                    },
                    {
                        "number": 64,
                        "time": 304.34240120833323,
                        "value": 0
                    },
                    {
                        "number": 64,
                        "time": 304.4222017416666,
                        "value": 1
                    },
                    {
                        "number": 64,
                        "time": 304.79626674166656,
                        "value": 0
                    },
                    {
                        "number": 64,
                        "time": 304.87107974166656,
                        "value": 1
                    },
                    {
                        "number": 64,
                        "time": 305.2370399999999,
                        "value": 0
                    },
                    {
                        "number": 64,
                        "time": 305.7214541749999,
                        "value": 1
                    },
                    {
                        "number": 64,
                        "time": 306.1404069749999,
                        "value": 0
                    },
                    {
                        "number": 64,
                        "time": 306.2258184833332,
                        "value": 1
                    },
                    {
                        "number": 64,
                        "time": 306.59053185833324,
                        "value": 0
                    },
                    {
                        "number": 64,
                        "time": 306.66908550833324,
                        "value": 1
                    },
                    {
                        "number": 64,
                        "time": 307.0381629749999,
                        "value": 0
                    },
                    {
                        "number": 64,
                        "time": 307.12357448333324,
                        "value": 1
                    },
                    {
                        "number": 64,
                        "time": 307.48828785833325,
                        "value": 0
                    },
                    {
                        "number": 64,
                        "time": 307.56684150833325,
                        "value": 1
                    },
                    {
                        "number": 64,
                        "time": 307.93591897499994,
                        "value": 0
                    },
                    {
                        "number": 64,
                        "time": 308.02133048333326,
                        "value": 1
                    },
                    {
                        "number": 64,
                        "time": 308.38604385833327,
                        "value": 0
                    },
                    {
                        "number": 64,
                        "time": 308.46459750833327,
                        "value": 1
                    },
                    {
                        "number": 64,
                        "time": 308.8280639999999,
                        "value": 0
                    },
                    {
                        "number": 64,
                        "time": 308.9440241499999,
                        "value": 1
                    },
                    {
                        "number": 64,
                        "time": 309.28941083333325,
                        "value": 0
                    },
                    {
                        "number": 64,
                        "time": 309.39290214999994,
                        "value": 1
                    },
                    {
                        "number": 64,
                        "time": 309.7320544166666,
                        "value": 0
                    },
                    {
                        "number": 64,
                        "time": 309.81123150833326,
                        "value": 1
                    },
                    {
                        "number": 64,
                        "time": 310.1809324166666,
                        "value": 0
                    },
                    {
                        "number": 64,
                        "time": 310.24577034999993,
                        "value": 1
                    },
                    {
                        "number": 64,
                        "time": 310.62357599999996,
                        "value": 0
                    },
                    {
                        "number": 64,
                        "time": 310.73953614999994,
                        "value": 1
                    },
                    {
                        "number": 64,
                        "time": 311.0768180916666,
                        "value": 0
                    },
                    {
                        "number": 64,
                        "time": 311.1385388166666,
                        "value": 1
                    },
                    {
                        "number": 64,
                        "time": 311.52444920833324,
                        "value": 0
                    },
                    {
                        "number": 64,
                        "time": 311.6042497416666,
                        "value": 1
                    },
                    {
                        "number": 64,
                        "time": 311.97831474166657,
                        "value": 0
                    },
                    {
                        "number": 64,
                        "time": 312.0531277416666,
                        "value": 1
                    },
                    {
                        "number": 64,
                        "time": 312.42220520833325,
                        "value": 0
                    },
                    {
                        "number": 64,
                        "time": 312.5020057416666,
                        "value": 1
                    },
                    {
                        "number": 64,
                        "time": 312.8760707416666,
                        "value": 0
                    },
                    {
                        "number": 64,
                        "time": 312.9508837416666,
                        "value": 1
                    },
                    {
                        "number": 64,
                        "time": 313.31996120833327,
                        "value": 0
                    },
                    {
                        "number": 64,
                        "time": 313.3997617416666,
                        "value": 1
                    },
                    {
                        "number": 64,
                        "time": 313.7738267416666,
                        "value": 0
                    },
                    {
                        "number": 64,
                        "time": 313.8486397416666,
                        "value": 1
                    },
                    {
                        "number": 64,
                        "time": 314.2177172083333,
                        "value": 0
                    },
                    {
                        "number": 64,
                        "time": 314.29751774166664,
                        "value": 1
                    },
                    {
                        "number": 64,
                        "time": 314.6715827416666,
                        "value": 0
                    },
                    {
                        "number": 64,
                        "time": 314.7463957416666,
                        "value": 1
                    },
                    {
                        "number": 64,
                        "time": 315.1204607416666,
                        "value": 0
                    },
                    {
                        "number": 64,
                        "time": 315.26198199999993,
                        "value": 1
                    },
                    {
                        "number": 64,
                        "time": 316.01011199999994,
                        "value": 0
                    },
                    {
                        "number": 64,
                        "time": 316.4945261749999,
                        "value": 1
                    },
                    {
                        "number": 64,
                        "time": 316.9134789749999,
                        "value": 0
                    },
                    {
                        "number": 64,
                        "time": 316.99889048333324,
                        "value": 1
                    },
                    {
                        "number": 64,
                        "time": 317.36360385833325,
                        "value": 0
                    },
                    {
                        "number": 64,
                        "time": 317.44215750833325,
                        "value": 1
                    },
                    {
                        "number": 64,
                        "time": 317.81123497499993,
                        "value": 0
                    },
                    {
                        "number": 64,
                        "time": 317.89664648333326,
                        "value": 1
                    },
                    {
                        "number": 64,
                        "time": 318.26135985833326,
                        "value": 0
                    },
                    {
                        "number": 64,
                        "time": 318.33991350833327,
                        "value": 1
                    },
                    {
                        "number": 64,
                        "time": 318.70899097499995,
                        "value": 0
                    },
                    {
                        "number": 64,
                        "time": 318.7944024833333,
                        "value": 1
                    },
                    {
                        "number": 64,
                        "time": 319.1591158583333,
                        "value": 0
                    },
                    {
                        "number": 64,
                        "time": 319.2376695083333,
                        "value": 1
                    },
                    {
                        "number": 64,
                        "time": 319.60113599999994,
                        "value": 0
                    },
                    {
                        "number": 64,
                        "time": 319.7170961499999,
                        "value": 1
                    },
                    {
                        "number": 64,
                        "time": 320.06248283333326,
                        "value": 0
                    },
                    {
                        "number": 64,
                        "time": 320.16597414999995,
                        "value": 1
                    },
                    {
                        "number": 64,
                        "time": 320.5051264166666,
                        "value": 0
                    },
                    {
                        "number": 64,
                        "time": 320.5843035083333,
                        "value": 1
                    },
                    {
                        "number": 64,
                        "time": 320.95400441666663,
                        "value": 0
                    },
                    {
                        "number": 64,
                        "time": 321.01884234999994,
                        "value": 1
                    },
                    {
                        "number": 64,
                        "time": 321.39664799999997,
                        "value": 0
                    },
                    {
                        "number": 64,
                        "time": 321.51260814999995,
                        "value": 1
                    },
                    {
                        "number": 64,
                        "time": 321.8498900916666,
                        "value": 0
                    },
                    {
                        "number": 64,
                        "time": 321.9116108166666,
                        "value": 1
                    },
                    {
                        "number": 64,
                        "time": 322.29752120833325,
                        "value": 0
                    },
                    {
                        "number": 64,
                        "time": 322.3773217416666,
                        "value": 1
                    },
                    {
                        "number": 64,
                        "time": 322.7513867416666,
                        "value": 0
                    },
                    {
                        "number": 64,
                        "time": 322.8261997416666,
                        "value": 1
                    },
                    {
                        "number": 64,
                        "time": 323.19215999999994,
                        "value": 0
                    },
                    {
                        "number": 64,
                        "time": 323.6765741749999,
                        "value": 1
                    },
                    {
                        "number": 64,
                        "time": 324.0955269749999,
                        "value": 0
                    },
                    {
                        "number": 64,
                        "time": 324.18093848333325,
                        "value": 1
                    },
                    {
                        "number": 64,
                        "time": 324.54565185833326,
                        "value": 0
                    },
                    {
                        "number": 64,
                        "time": 324.62420550833326,
                        "value": 1
                    },
                    {
                        "number": 64,
                        "time": 324.99328297499994,
                        "value": 0
                    },
                    {
                        "number": 64,
                        "time": 325.07869448333327,
                        "value": 1
                    },
                    {
                        "number": 64,
                        "time": 325.4434078583333,
                        "value": 0
                    },
                    {
                        "number": 64,
                        "time": 325.5219615083333,
                        "value": 1
                    },
                    {
                        "number": 64,
                        "time": 325.89103897499996,
                        "value": 0
                    },
                    {
                        "number": 64,
                        "time": 325.9764504833333,
                        "value": 1
                    },
                    {
                        "number": 64,
                        "time": 326.3199668416666,
                        "value": 0
                    },
                    {
                        "number": 64,
                        "time": 326.4695928416666,
                        "value": 1
                    },
                    {
                        "number": 64,
                        "time": 326.79004185833327,
                        "value": 0
                    },
                    {
                        "number": 64,
                        "time": 326.8417875166666,
                        "value": 1
                    },
                    {
                        "number": 64,
                        "time": 327.2389198583333,
                        "value": 0
                    },
                    {
                        "number": 64,
                        "time": 327.3174735083333,
                        "value": 1
                    },
                    {
                        "number": 64,
                        "time": 327.68093999999996,
                        "value": 0
                    },
                    {
                        "number": 64,
                        "time": 327.79690014999994,
                        "value": 1
                    },
                    {
                        "number": 64,
                        "time": 328.1422868333333,
                        "value": 0
                    },
                    {
                        "number": 64,
                        "time": 328.24577815,
                        "value": 1
                    },
                    {
                        "number": 64,
                        "time": 328.5849304166666,
                        "value": 0
                    },
                    {
                        "number": 64,
                        "time": 328.6641075083333,
                        "value": 1
                    },
                    {
                        "number": 64,
                        "time": 329.03380841666666,
                        "value": 0
                    },
                    {
                        "number": 64,
                        "time": 329.09864634999997,
                        "value": 1
                    },
                    {
                        "number": 64,
                        "time": 329.476452,
                        "value": 0
                    },
                    {
                        "number": 64,
                        "time": 329.59241215,
                        "value": 1
                    },
                    {
                        "number": 64,
                        "time": 329.92969409166665,
                        "value": 0
                    },
                    {
                        "number": 64,
                        "time": 329.99141481666663,
                        "value": 1
                    },
                    {
                        "number": 64,
                        "time": 330.3773252083333,
                        "value": 0
                    },
                    {
                        "number": 64,
                        "time": 330.45712574166663,
                        "value": 1
                    },
                    {
                        "number": 64,
                        "time": 330.8311907416666,
                        "value": 0
                    },
                    {
                        "number": 64,
                        "time": 330.9060037416666,
                        "value": 1
                    },
                    {
                        "number": 64,
                        "time": 331.2750812083333,
                        "value": 0
                    },
                    {
                        "number": 64,
                        "time": 331.35488174166665,
                        "value": 1
                    },
                    {
                        "number": 64,
                        "time": 331.7289467416666,
                        "value": 0
                    },
                    {
                        "number": 64,
                        "time": 331.8037597416666,
                        "value": 1
                    },
                    {
                        "number": 64,
                        "time": 332.1728372083333,
                        "value": 0
                    },
                    {
                        "number": 64,
                        "time": 332.25263774166666,
                        "value": 1
                    },
                    {
                        "number": 64,
                        "time": 332.62670274166663,
                        "value": 0
                    },
                    {
                        "number": 64,
                        "time": 332.70151574166664,
                        "value": 1
                    },
                    {
                        "number": 64,
                        "time": 333.0705932083333,
                        "value": 0
                    },
                    {
                        "number": 64,
                        "time": 333.1503937416667,
                        "value": 1
                    },
                    {
                        "number": 64,
                        "time": 333.52445874166665,
                        "value": 0
                    },
                    {
                        "number": 64,
                        "time": 333.59927174166666,
                        "value": 1
                    },
                    {
                        "number": 64,
                        "time": 333.9733367416666,
                        "value": 0
                    },
                    {
                        "number": 64,
                        "time": 334.0375512333333,
                        "value": 1
                    },
                    {
                        "number": 64,
                        "time": 334.862988,
                        "value": 0
                    },
                    {
                        "number": 64,
                        "time": 335.33805055,
                        "value": 1
                    },
                    {
                        "number": 64,
                        "time": 335.4702201833333,
                        "value": 0
                    },
                    {
                        "number": 64,
                        "time": 335.76510809166666,
                        "value": 1
                    },
                    {
                        "number": 64,
                        "time": 335.9147340916667,
                        "value": 0
                    },
                    {
                        "number": 64,
                        "time": 336.24453473333335,
                        "value": 1
                    },
                    {
                        "number": 64,
                        "time": 336.3767043666667,
                        "value": 0
                    },
                    {
                        "number": 64,
                        "time": 336.697776825,
                        "value": 1
                    },
                    {
                        "number": 64,
                        "time": 336.8237120416667,
                        "value": 0
                    },
                    {
                        "number": 64,
                        "time": 337.14665482500004,
                        "value": 1
                    },
                    {
                        "number": 64,
                        "time": 337.29628082500005,
                        "value": 0
                    },
                    {
                        "number": 64,
                        "time": 337.5917921750001,
                        "value": 1
                    },
                    {
                        "number": 64,
                        "time": 337.76074486666676,
                        "value": 0
                    },
                    {
                        "number": 64,
                        "time": 338.02882478333345,
                        "value": 1
                    },
                    {
                        "number": 64,
                        "time": 338.1740866916668,
                        "value": 0
                    },
                    {
                        "number": 64,
                        "time": 338.4671042750001,
                        "value": 1
                    },
                    {
                        "number": 64,
                        "time": 338.63855073333343,
                        "value": 0
                    },
                    {
                        "number": 64,
                        "time": 338.9290745500001,
                        "value": 1
                    },
                    {
                        "number": 64,
                        "time": 339.06124418333343,
                        "value": 0
                    },
                    {
                        "number": 64,
                        "time": 339.3561320916668,
                        "value": 1
                    },
                    {
                        "number": 64,
                        "time": 339.5057580916668,
                        "value": 0
                    },
                    {
                        "number": 64,
                        "time": 339.83555873333347,
                        "value": 1
                    },
                    {
                        "number": 64,
                        "time": 339.9677283666668,
                        "value": 0
                    },
                    {
                        "number": 64,
                        "time": 340.2888008250001,
                        "value": 1
                    },
                    {
                        "number": 64,
                        "time": 340.4147360416668,
                        "value": 0
                    },
                    {
                        "number": 64,
                        "time": 340.73767882500016,
                        "value": 1
                    },
                    {
                        "number": 64,
                        "time": 340.8873048250002,
                        "value": 0
                    },
                    {
                        "number": 64,
                        "time": 341.1828161750002,
                        "value": 1
                    },
                    {
                        "number": 64,
                        "time": 341.3517688666669,
                        "value": 0
                    },
                    {
                        "number": 64,
                        "time": 341.61984878333357,
                        "value": 1
                    },
                    {
                        "number": 64,
                        "time": 341.7651106916669,
                        "value": 0
                    },
                    {
                        "number": 64,
                        "time": 342.05812827500023,
                        "value": 1
                    },
                    {
                        "number": 64,
                        "time": 342.22957473333355,
                        "value": 0
                    },
                    {
                        "number": 64,
                        "time": 342.5070062750002,
                        "value": 1
                    },
                    {
                        "number": 64,
                        "time": 342.67845273333353,
                        "value": 0
                    },
                    {
                        "number": 64,
                        "time": 342.99266733333354,
                        "value": 1
                    },
                    {
                        "number": 64,
                        "time": 344.8629923333335,
                        "value": 0
                    },
                    {
                        "number": 64,
                        "time": 345.2264588250002,
                        "value": 1
                    },
                    {
                        "number": 64,
                        "time": 345.3717207333335,
                        "value": 0
                    },
                    {
                        "number": 64,
                        "time": 345.6840650083335,
                        "value": 1
                    },
                    {
                        "number": 64,
                        "time": 345.8336910083335,
                        "value": 0
                    },
                    {
                        "number": 64,
                        "time": 346.11548664166685,
                        "value": 1
                    },
                    {
                        "number": 64,
                        "time": 346.26947673333353,
                        "value": 0
                    },
                    {
                        "number": 64,
                        "time": 346.5730928250002,
                        "value": 1
                    },
                    {
                        "number": 64,
                        "time": 346.70962655000017,
                        "value": 0
                    },
                    {
                        "number": 64,
                        "time": 347.0132426416668,
                        "value": 1
                    },
                    {
                        "number": 64,
                        "time": 347.13980130000016,
                        "value": 0
                    },
                    {
                        "number": 64,
                        "time": 347.19404072500015,
                        "value": 1
                    },
                    {
                        "number": 64,
                        "time": 347.29129762500014,
                        "value": 0
                    },
                    {
                        "number": 64,
                        "time": 347.3255869166668,
                        "value": 1
                    },
                    {
                        "number": 64,
                        "time": 347.4396767416668,
                        "value": 0
                    },
                    {
                        "number": 64,
                        "time": 347.4976568166668,
                        "value": 1
                    },
                    {
                        "number": 64,
                        "time": 347.5911730666668,
                        "value": 0
                    },
                    {
                        "number": 64,
                        "time": 347.6560110000001,
                        "value": 1
                    },
                    {
                        "number": 64,
                        "time": 347.7401756250001,
                        "value": 0
                    },
                    {
                        "number": 64,
                        "time": 347.8056370000001,
                        "value": 1
                    },
                    {
                        "number": 64,
                        "time": 347.89042506666675,
                        "value": 0
                    },
                    {
                        "number": 64,
                        "time": 347.94653481666677,
                        "value": 1
                    },
                    {
                        "number": 64,
                        "time": 348.04005106666676,
                        "value": 0
                    },
                    {
                        "number": 64,
                        "time": 348.11299374166674,
                        "value": 1
                    },
                    {
                        "number": 64,
                        "time": 348.3293280000001,
                        "value": 0
                    },
                    {
                        "number": 64,
                        "time": 348.40850509166677,
                        "value": 1
                    },
                    {
                        "number": 64,
                        "time": 348.51386673333343,
                        "value": 0
                    },
                    {
                        "number": 64,
                        "time": 348.8087546416668,
                        "value": 1
                    },
                    {
                        "number": 64,
                        "time": 348.93531330000013,
                        "value": 0
                    },
                    {
                        "number": 64,
                        "time": 348.9895527250001,
                        "value": 1
                    },
                    {
                        "number": 64,
                        "time": 349.0868096250001,
                        "value": 0
                    },
                    {
                        "number": 64,
                        "time": 349.12109891666677,
                        "value": 1
                    },
                    {
                        "number": 64,
                        "time": 349.2351887416668,
                        "value": 0
                    },
                    {
                        "number": 64,
                        "time": 349.29316881666676,
                        "value": 1
                    },
                    {
                        "number": 64,
                        "time": 349.38668506666676,
                        "value": 0
                    },
                    {
                        "number": 64,
                        "time": 349.45152300000007,
                        "value": 1
                    },
                    {
                        "number": 64,
                        "time": 349.5356876250001,
                        "value": 0
                    },
                    {
                        "number": 64,
                        "time": 349.6011490000001,
                        "value": 1
                    },
                    {
                        "number": 64,
                        "time": 349.6859370666667,
                        "value": 0
                    },
                    {
                        "number": 64,
                        "time": 349.74204681666674,
                        "value": 1
                    },
                    {
                        "number": 64,
                        "time": 349.83556306666674,
                        "value": 0
                    },
                    {
                        "number": 64,
                        "time": 349.9085057416667,
                        "value": 1
                    },
                    {
                        "number": 64,
                        "time": 350.12484000000006,
                        "value": 0
                    },
                    {
                        "number": 64,
                        "time": 350.20401709166674,
                        "value": 1
                    },
                    {
                        "number": 64,
                        "time": 350.3093787333334,
                        "value": 0
                    },
                    {
                        "number": 64,
                        "time": 350.60426664166675,
                        "value": 1
                    },
                    {
                        "number": 64,
                        "time": 350.7308253000001,
                        "value": 0
                    },
                    {
                        "number": 64,
                        "time": 350.7850647250001,
                        "value": 1
                    },
                    {
                        "number": 64,
                        "time": 350.8823216250001,
                        "value": 0
                    },
                    {
                        "number": 64,
                        "time": 350.91661091666674,
                        "value": 1
                    },
                    {
                        "number": 64,
                        "time": 351.03070074166675,
                        "value": 0
                    },
                    {
                        "number": 64,
                        "time": 351.08868081666674,
                        "value": 1
                    },
                    {
                        "number": 64,
                        "time": 351.18219706666673,
                        "value": 0
                    },
                    {
                        "number": 64,
                        "time": 351.24703500000004,
                        "value": 1
                    },
                    {
                        "number": 64,
                        "time": 351.33119962500007,
                        "value": 0
                    },
                    {
                        "number": 64,
                        "time": 351.39666100000005,
                        "value": 1
                    },
                    {
                        "number": 64,
                        "time": 351.4814490666667,
                        "value": 0
                    },
                    {
                        "number": 64,
                        "time": 351.5375588166667,
                        "value": 1
                    },
                    {
                        "number": 64,
                        "time": 351.6310750666667,
                        "value": 0
                    },
                    {
                        "number": 64,
                        "time": 351.7040177416667,
                        "value": 1
                    },
                    {
                        "number": 64,
                        "time": 351.92035200000004,
                        "value": 0
                    },
                    {
                        "number": 64,
                        "time": 351.9639929166667,
                        "value": 1
                    },
                    {
                        "number": 64,
                        "time": 352.06997800000005,
                        "value": 0
                    },
                    {
                        "number": 64,
                        "time": 352.4128709166667,
                        "value": 1
                    },
                    {
                        "number": 64,
                        "time": 352.51449190833335,
                        "value": 0
                    },
                    {
                        "number": 64,
                        "time": 352.8355643666667,
                        "value": 1
                    },
                    {
                        "number": 64,
                        "time": 352.8841928166667,
                        "value": 0
                    },
                    {
                        "number": 64,
                        "time": 353.28693613333337,
                        "value": 1
                    },
                    {
                        "number": 64,
                        "time": 353.3330708166667,
                        "value": 0
                    },
                    {
                        "number": 64,
                        "time": 353.6846919166667,
                        "value": 1
                    },
                    {
                        "number": 64,
                        "time": 353.7445423166667,
                        "value": 0
                    },
                    {
                        "number": 64,
                        "time": 354.54067732500005,
                        "value": 1
                    },
                    {
                        "number": 64,
                        "time": 354.69466741666673,
                        "value": 0
                    },
                    {
                        "number": 64,
                        "time": 355.36362032500006,
                        "value": 1
                    },
                    {
                        "number": 64,
                        "time": 356.6666134083334,
                        "value": 0
                    }
                ]
            },
            "id": 3,
            "name": "Pedale",
            "instrumentNumber": 0,
            "instrument": "acoustic grand piano",
            "instrumentFamily": "piano",
            "channelNumber": 0,
            "isPercussion": false
        },
        {
            "startTime": 0,
            "duration": 0,
            "length": 0,
            "notes": [],
            "controlChanges": {},
            "id": 4,
            "name": "Brahms: Sonata in C 4. movement"
        },
        {
            "startTime": 0,
            "duration": 0,
            "length": 0,
            "notes": [],
            "controlChanges": {},
            "id": 5,
            "name": "Copyright  2009 by Bernd Krueger"
        },
        {
            "startTime": 0,
            "duration": 0,
            "length": 0,
            "notes": [],
            "controlChanges": {},
            "id": 6,
            "name": "http://www.piano-midi.de/"
        },
        {
            "startTime": 0,
            "duration": 0,
            "length": 0,
            "notes": [],
            "controlChanges": {},
            "id": 7,
            "name": "Edition: 2009-07-10"
        },
        {
            "startTime": 0,
            "duration": 0,
            "length": 0,
            "notes": [],
            "controlChanges": {},
            "id": 8
        },
        {
            "startTime": 0,
            "duration": 0,
            "length": 0,
            "notes": [],
            "controlChanges": {},
            "id": 9
        },
        {
            "startTime": 0,
            "duration": 0,
            "length": 0,
            "notes": [],
            "controlChanges": {},
            "id": 10
        },
        {
            "startTime": 0,
            "duration": 0,
            "length": 0,
            "notes": [],
            "controlChanges": {},
            "id": 11
        },
        {
            "startTime": 0,
            "duration": 0,
            "length": 0,
            "notes": [],
            "controlChanges": {},
            "id": 12
        },
        {
            "startTime": 0,
            "duration": 0,
            "length": 0,
            "notes": [],
            "controlChanges": {},
            "id": 13
        },
        {
            "startTime": 0,
            "duration": 0,
            "length": 0,
            "notes": [],
            "controlChanges": {},
            "id": 14
        },
        {
            "startTime": 0,
            "duration": 0,
            "length": 0,
            "notes": [],
            "controlChanges": {},
            "id": 15
        },
        {
            "startTime": 0,
            "duration": 0,
            "length": 0,
            "notes": [],
            "controlChanges": {},
            "id": 16
        }
    ]
}