{
    "header": {
        "PPQ": 480,
        "timeSignature": [
            2,
            4
        ],
        "bpm": 80.9099674337381,
        "name": "Sonate in C 2. Satz"
    },
    "startTime": 0,
    "duration": 120.13352999999988,
    "tracks": [
        {
            "startTime": 0,
            "duration": 0,
            "length": 0,
            "notes": [],
            "controlChanges": {},
            "id": 0,
            "name": "Sonate in C 2. Satz"
        },
        {
            "startTime": 4.44939,
            "duration": 120.13352999999935,
            "length": 824,
            "notes": [
                {
                    "name": "G3",
                    "midi": 55,
                    "time": 4.44939,
                    "velocity": 0.2677165354330709,
                    "duration": 0.70448675
                },
                {
                    "name": "C4",
                    "midi": 60,
                    "time": 4.44939,
                    "velocity": 0.31496062992125984,
                    "duration": 0.70448675
                },
                {
                    "name": "C4",
                    "midi": 60,
                    "time": 5.190955000000001,
                    "velocity": 0.2440944881889764,
                    "duration": 0.70448675
                },
                {
                    "name": "G4",
                    "midi": 67,
                    "time": 5.190955000000001,
                    "velocity": 0.29133858267716534,
                    "duration": 0.70448675
                },
                {
                    "name": "C4",
                    "midi": 60,
                    "time": 5.932520000000001,
                    "velocity": 0.2677165354330709,
                    "duration": 0.3707824999999998
                },
                {
                    "name": "D#4",
                    "midi": 63,
                    "time": 5.932520000000001,
                    "velocity": 0.31496062992125984,
                    "duration": 0.3707824999999998
                },
                {
                    "name": "B3",
                    "midi": 59,
                    "time": 6.303302500000001,
                    "velocity": 0.2440944881889764,
                    "duration": 0.2780868749999996
                },
                {
                    "name": "D4",
                    "midi": 62,
                    "time": 6.303302500000001,
                    "velocity": 0.29133858267716534,
                    "duration": 0.2780868749999996
                },
                {
                    "name": "D#4",
                    "midi": 63,
                    "time": 6.5813893750000005,
                    "velocity": 0.2677165354330709,
                    "duration": 0.09269562500000017
                },
                {
                    "name": "G3",
                    "midi": 55,
                    "time": 6.674085000000001,
                    "velocity": 0.2677165354330709,
                    "duration": 0.33988395833333307
                },
                {
                    "name": "C4",
                    "midi": 60,
                    "time": 6.674085000000001,
                    "velocity": 0.31496062992125984,
                    "duration": 0.33988395833333307
                },
                {
                    "name": "G3",
                    "midi": 55,
                    "time": 10.381910000000001,
                    "velocity": 0.2677165354330709,
                    "duration": 0.7044867500000009
                },
                {
                    "name": "C4",
                    "midi": 60,
                    "time": 10.381910000000001,
                    "velocity": 0.31496062992125984,
                    "duration": 0.7044867500000009
                },
                {
                    "name": "C4",
                    "midi": 60,
                    "time": 11.123475000000003,
                    "velocity": 0.2440944881889764,
                    "duration": 0.7044867500000009
                },
                {
                    "name": "G4",
                    "midi": 67,
                    "time": 11.123475000000003,
                    "velocity": 0.29133858267716534,
                    "duration": 0.7044867500000009
                },
                {
                    "name": "C4",
                    "midi": 60,
                    "time": 11.865040000000004,
                    "velocity": 0.2677165354330709,
                    "duration": 0.3707825000000007
                },
                {
                    "name": "D#4",
                    "midi": 63,
                    "time": 11.865040000000004,
                    "velocity": 0.31496062992125984,
                    "duration": 0.3707825000000007
                },
                {
                    "name": "B3",
                    "midi": 59,
                    "time": 12.235822500000005,
                    "velocity": 0.2440944881889764,
                    "duration": 0.2780868749999996
                },
                {
                    "name": "D4",
                    "midi": 62,
                    "time": 12.235822500000005,
                    "velocity": 0.29133858267716534,
                    "duration": 0.2780868749999996
                },
                {
                    "name": "D#4",
                    "midi": 63,
                    "time": 12.513909375000004,
                    "velocity": 0.2677165354330709,
                    "duration": 0.09269562499999928
                },
                {
                    "name": "G3",
                    "midi": 55,
                    "time": 12.606605000000004,
                    "velocity": 0.2677165354330709,
                    "duration": 0.7261157291666667
                },
                {
                    "name": "C4",
                    "midi": 60,
                    "time": 12.606605000000004,
                    "velocity": 0.31496062992125984,
                    "duration": 0.7261157291666667
                },
                {
                    "name": "G3",
                    "midi": 55,
                    "time": 13.348170000000003,
                    "velocity": 0.2677165354330709,
                    "duration": 0.33988395833333307
                },
                {
                    "name": "C4",
                    "midi": 60,
                    "time": 13.348170000000003,
                    "velocity": 0.31496062992125984,
                    "duration": 0.33988395833333307
                },
                {
                    "name": "G3",
                    "midi": 55,
                    "time": 13.718952500000002,
                    "velocity": 0.2440944881889764,
                    "duration": 0.16994197916666742
                },
                {
                    "name": "B3",
                    "midi": 59,
                    "time": 13.718952500000002,
                    "velocity": 0.29133858267716534,
                    "duration": 0.16994197916666742
                },
                {
                    "name": "G3",
                    "midi": 55,
                    "time": 13.904343750000002,
                    "velocity": 0.2677165354330709,
                    "duration": 0.16994197916666742
                },
                {
                    "name": "C4",
                    "midi": 60,
                    "time": 13.904343750000002,
                    "velocity": 0.2677165354330709,
                    "duration": 0.16994197916666742
                },
                {
                    "name": "G3",
                    "midi": 55,
                    "time": 14.089735000000003,
                    "velocity": 0.2677165354330709,
                    "duration": 0.7261157291666667
                },
                {
                    "name": "D4",
                    "midi": 62,
                    "time": 14.089735000000003,
                    "velocity": 0.31496062992125984,
                    "duration": 0.7261157291666667
                },
                {
                    "name": "G3",
                    "midi": 55,
                    "time": 14.831300000000002,
                    "velocity": 0.2677165354330709,
                    "duration": 0.33988395833333307
                },
                {
                    "name": "C4",
                    "midi": 60,
                    "time": 14.831300000000002,
                    "velocity": 0.31496062992125984,
                    "duration": 0.33988395833333307
                },
                {
                    "name": "G3",
                    "midi": 55,
                    "time": 15.202082500000001,
                    "velocity": 0.2440944881889764,
                    "duration": 0.16994197916666742
                },
                {
                    "name": "B3",
                    "midi": 59,
                    "time": 15.202082500000001,
                    "velocity": 0.29133858267716534,
                    "duration": 0.16994197916666742
                },
                {
                    "name": "G3",
                    "midi": 55,
                    "time": 15.387473750000002,
                    "velocity": 0.2677165354330709,
                    "duration": 0.16994197916666742
                },
                {
                    "name": "C4",
                    "midi": 60,
                    "time": 15.387473750000002,
                    "velocity": 0.2677165354330709,
                    "duration": 0.16994197916666742
                },
                {
                    "name": "B3",
                    "midi": 59,
                    "time": 15.572865000000002,
                    "velocity": 0.2677165354330709,
                    "duration": 0.7261157291666667
                },
                {
                    "name": "D4",
                    "midi": 62,
                    "time": 15.572865000000002,
                    "velocity": 0.31496062992125984,
                    "duration": 0.7261157291666667
                },
                {
                    "name": "G3",
                    "midi": 55,
                    "time": 16.31443,
                    "velocity": 0.2677165354330709,
                    "duration": 0.7183910937500002
                },
                {
                    "name": "C4",
                    "midi": 60,
                    "time": 16.31443,
                    "velocity": 0.31496062992125984,
                    "duration": 0.7183910937500002
                },
                {
                    "name": "A#3",
                    "midi": 58,
                    "time": 17.055995000000003,
                    "velocity": 0.2755905511811024,
                    "duration": 0.35224337500000047
                },
                {
                    "name": "G4",
                    "midi": 67,
                    "time": 17.055995000000003,
                    "velocity": 0.33070866141732286,
                    "duration": 0.35224337500000047
                },
                {
                    "name": "A#3",
                    "midi": 58,
                    "time": 17.426777500000004,
                    "velocity": 0.29133858267716534,
                    "duration": 0.35224337500000047
                },
                {
                    "name": "G4",
                    "midi": 67,
                    "time": 17.426777500000004,
                    "velocity": 0.3464566929133858,
                    "duration": 0.35224337500000047
                },
                {
                    "name": "C4",
                    "midi": 60,
                    "time": 17.797560000000004,
                    "velocity": 0.29133858267716534,
                    "duration": 0.3707825000000007
                },
                {
                    "name": "D#4",
                    "midi": 63,
                    "time": 17.797560000000004,
                    "velocity": 0.3464566929133858,
                    "duration": 0.3707825000000007
                },
                {
                    "name": "B3",
                    "midi": 59,
                    "time": 18.168342500000005,
                    "velocity": 0.2440944881889764,
                    "duration": 0.2780868749999996
                },
                {
                    "name": "D4",
                    "midi": 62,
                    "time": 18.168342500000005,
                    "velocity": 0.29133858267716534,
                    "duration": 0.2780868749999996
                },
                {
                    "name": "D#4",
                    "midi": 63,
                    "time": 18.446429375000005,
                    "velocity": 0.2677165354330709,
                    "duration": 0.09269562500000106
                },
                {
                    "name": "G3",
                    "midi": 55,
                    "time": 18.539125000000006,
                    "velocity": 0.2677165354330709,
                    "duration": 0.4696578333333328
                },
                {
                    "name": "C4",
                    "midi": 60,
                    "time": 18.539125000000006,
                    "velocity": 0.31496062992125984,
                    "duration": 0.7261157291666649
                },
                {
                    "name": "G3",
                    "midi": 55,
                    "time": 18.909907500000006,
                    "velocity": 0.2440944881889764,
                    "duration": 0.222469499999999
                },
                {
                    "name": "G3",
                    "midi": 55,
                    "time": 19.033501666666673,
                    "velocity": 0.2440944881889764,
                    "duration": 0.222469499999999
                },
                {
                    "name": "G3",
                    "midi": 55,
                    "time": 19.15709583333334,
                    "velocity": 0.2047244094488189,
                    "duration": 0.10814489583333042
                },
                {
                    "name": "G3",
                    "midi": 55,
                    "time": 19.280690000000003,
                    "velocity": 0.29133858267716534,
                    "duration": 2.9662599999999806
                },
                {
                    "name": "C4",
                    "midi": 60,
                    "time": 19.466081250000002,
                    "velocity": 0.29133858267716534,
                    "duration": 0.18539124999999856
                },
                {
                    "name": "D4",
                    "midi": 62,
                    "time": 19.83686375,
                    "velocity": 0.29133858267716534,
                    "duration": 0.18539124999999856
                },
                {
                    "name": "D#4",
                    "midi": 63,
                    "time": 20.207646249999996,
                    "velocity": 0.29133858267716534,
                    "duration": 0.18539124999999856
                },
                {
                    "name": "C4",
                    "midi": 60,
                    "time": 20.578428749999993,
                    "velocity": 0.30708661417322836,
                    "duration": 0.18539124999999856
                },
                {
                    "name": "B3",
                    "midi": 59,
                    "time": 20.94921124999999,
                    "velocity": 0.25984251968503935,
                    "duration": 0.18539124999999856
                },
                {
                    "name": "C4",
                    "midi": 60,
                    "time": 21.319993749999988,
                    "velocity": 0.25196850393700787,
                    "duration": 0.18539124999999856
                },
                {
                    "name": "D4",
                    "midi": 62,
                    "time": 21.690776249999985,
                    "velocity": 0.2204724409448819,
                    "duration": 0.5561737499999992
                },
                {
                    "name": "G3",
                    "midi": 55,
                    "time": 22.246949999999984,
                    "velocity": 0.2677165354330709,
                    "duration": 0.7044867500000009
                },
                {
                    "name": "C4",
                    "midi": 60,
                    "time": 22.246949999999984,
                    "velocity": 0.31496062992125984,
                    "duration": 0.7044867500000009
                },
                {
                    "name": "C4",
                    "midi": 60,
                    "time": 22.988514999999985,
                    "velocity": 0.2440944881889764,
                    "duration": 0.7044867500000009
                },
                {
                    "name": "G4",
                    "midi": 67,
                    "time": 22.988514999999985,
                    "velocity": 0.29133858267716534,
                    "duration": 0.7044867500000009
                },
                {
                    "name": "C4",
                    "midi": 60,
                    "time": 23.730079999999987,
                    "velocity": 0.2677165354330709,
                    "duration": 0.3707825000000007
                },
                {
                    "name": "D#4",
                    "midi": 63,
                    "time": 23.730079999999987,
                    "velocity": 0.31496062992125984,
                    "duration": 0.3707825000000007
                },
                {
                    "name": "B3",
                    "midi": 59,
                    "time": 24.100862499999987,
                    "velocity": 0.2440944881889764,
                    "duration": 0.2780868749999996
                },
                {
                    "name": "D4",
                    "midi": 62,
                    "time": 24.100862499999987,
                    "velocity": 0.29133858267716534,
                    "duration": 0.2780868749999996
                },
                {
                    "name": "D#4",
                    "midi": 63,
                    "time": 24.378949374999987,
                    "velocity": 0.2677165354330709,
                    "duration": 0.09269562500000106
                },
                {
                    "name": "C4",
                    "midi": 60,
                    "time": 24.471644999999988,
                    "velocity": 0.31496062992125984,
                    "duration": 1.8539124999999999
                },
                {
                    "name": "G4",
                    "midi": 67,
                    "time": 26.325557499999988,
                    "velocity": 0.2440944881889764,
                    "duration": 0.0988753333333321
                },
                {
                    "name": "G4",
                    "midi": 67,
                    "time": 26.449151666666655,
                    "velocity": 0.2440944881889764,
                    "duration": 0.0988753333333321
                },
                {
                    "name": "G4",
                    "midi": 67,
                    "time": 26.57274583333332,
                    "velocity": 0.2047244094488189,
                    "duration": 0.0988753333333321
                },
                {
                    "name": "G4",
                    "midi": 67,
                    "time": 26.69633999999999,
                    "velocity": 0.29133858267716534,
                    "duration": 2.224695000000004
                },
                {
                    "name": "C4",
                    "midi": 60,
                    "time": 26.819934166666656,
                    "velocity": 0.2204724409448819,
                    "duration": 0.0988753333333321
                },
                {
                    "name": "C5",
                    "midi": 72,
                    "time": 26.819934166666656,
                    "velocity": 0.25984251968503935,
                    "duration": 0.0988753333333321
                },
                {
                    "name": "C4",
                    "midi": 60,
                    "time": 26.943528333333322,
                    "velocity": 0.2204724409448819,
                    "duration": 0.0988753333333321
                },
                {
                    "name": "C5",
                    "midi": 72,
                    "time": 26.943528333333322,
                    "velocity": 0.25984251968503935,
                    "duration": 0.0988753333333321
                },
                {
                    "name": "D4",
                    "midi": 62,
                    "time": 27.190716666666656,
                    "velocity": 0.2125984251968504,
                    "duration": 0.0988753333333321
                },
                {
                    "name": "D5",
                    "midi": 74,
                    "time": 27.190716666666656,
                    "velocity": 0.25196850393700787,
                    "duration": 0.0988753333333321
                },
                {
                    "name": "D4",
                    "midi": 62,
                    "time": 27.314310833333323,
                    "velocity": 0.2125984251968504,
                    "duration": 0.0988753333333321
                },
                {
                    "name": "D5",
                    "midi": 74,
                    "time": 27.314310833333323,
                    "velocity": 0.25196850393700787,
                    "duration": 0.0988753333333321
                },
                {
                    "name": "D#4",
                    "midi": 63,
                    "time": 27.561499166666657,
                    "velocity": 0.2204724409448819,
                    "duration": 0.0988753333333321
                },
                {
                    "name": "D#5",
                    "midi": 75,
                    "time": 27.561499166666657,
                    "velocity": 0.2677165354330709,
                    "duration": 0.0988753333333321
                },
                {
                    "name": "D#4",
                    "midi": 63,
                    "time": 27.685093333333324,
                    "velocity": 0.2204724409448819,
                    "duration": 0.0988753333333321
                },
                {
                    "name": "D#5",
                    "midi": 75,
                    "time": 27.685093333333324,
                    "velocity": 0.2677165354330709,
                    "duration": 0.0988753333333321
                },
                {
                    "name": "C4",
                    "midi": 60,
                    "time": 27.932281666666658,
                    "velocity": 0.2204724409448819,
                    "duration": 0.0988753333333321
                },
                {
                    "name": "C5",
                    "midi": 72,
                    "time": 27.932281666666658,
                    "velocity": 0.25984251968503935,
                    "duration": 0.0988753333333321
                },
                {
                    "name": "C4",
                    "midi": 60,
                    "time": 28.055875833333324,
                    "velocity": 0.2204724409448819,
                    "duration": 0.0988753333333321
                },
                {
                    "name": "C5",
                    "midi": 72,
                    "time": 28.055875833333324,
                    "velocity": 0.25984251968503935,
                    "duration": 0.0988753333333321
                },
                {
                    "name": "B3",
                    "midi": 59,
                    "time": 28.30306416666666,
                    "velocity": 0.2440944881889764,
                    "duration": 0.0988753333333321
                },
                {
                    "name": "B4",
                    "midi": 71,
                    "time": 28.30306416666666,
                    "velocity": 0.29133858267716534,
                    "duration": 0.0988753333333321
                },
                {
                    "name": "B3",
                    "midi": 59,
                    "time": 28.426658333333325,
                    "velocity": 0.25196850393700787,
                    "duration": 0.0988753333333321
                },
                {
                    "name": "B4",
                    "midi": 71,
                    "time": 28.426658333333325,
                    "velocity": 0.2992125984251969,
                    "duration": 0.0988753333333321
                },
                {
                    "name": "D4",
                    "midi": 62,
                    "time": 28.67384666666666,
                    "velocity": 0.33070866141732286,
                    "duration": 0.0988753333333321
                },
                {
                    "name": "D5",
                    "midi": 74,
                    "time": 28.67384666666666,
                    "velocity": 0.3858267716535433,
                    "duration": 0.0988753333333321
                },
                {
                    "name": "D4",
                    "midi": 62,
                    "time": 28.797440833333326,
                    "velocity": 0.33070866141732286,
                    "duration": 0.0988753333333321
                },
                {
                    "name": "D5",
                    "midi": 74,
                    "time": 28.797440833333326,
                    "velocity": 0.3937007874015748,
                    "duration": 0.0988753333333321
                },
                {
                    "name": "G#4",
                    "midi": 68,
                    "time": 29.10642624999999,
                    "velocity": 0.4409448818897638,
                    "duration": 0.5561737499999992
                },
                {
                    "name": "G#5",
                    "midi": 80,
                    "time": 29.10642624999999,
                    "velocity": 0.5118110236220472,
                    "duration": 0.5561737499999992
                },
                {
                    "name": "G#4",
                    "midi": 68,
                    "time": 29.66259999999999,
                    "velocity": 0.2992125984251969,
                    "duration": 0.6967621145833327
                },
                {
                    "name": "C#5",
                    "midi": 73,
                    "time": 29.66259999999999,
                    "velocity": 0.3543307086614173,
                    "duration": 0.6967621145833327
                },
                {
                    "name": "G#4",
                    "midi": 68,
                    "time": 30.40416499999999,
                    "velocity": 0.30708661417322836,
                    "duration": 0.7338403645833331
                },
                {
                    "name": "C5",
                    "midi": 72,
                    "time": 30.40416499999999,
                    "velocity": 0.30708661417322836,
                    "duration": 0.7338403645833331
                },
                {
                    "name": "D#5",
                    "midi": 75,
                    "time": 30.40416499999999,
                    "velocity": 0.30708661417322836,
                    "duration": 0.6967621145833327
                },
                {
                    "name": "G#5",
                    "midi": 80,
                    "time": 30.40416499999999,
                    "velocity": 0.3700787401574803,
                    "duration": 0.6967621145833327
                },
                {
                    "name": "G#4",
                    "midi": 68,
                    "time": 31.14572999999999,
                    "velocity": 0.2204724409448819,
                    "duration": 0.3707825000000007
                },
                {
                    "name": "C#5",
                    "midi": 73,
                    "time": 31.14572999999999,
                    "velocity": 0.2204724409448819,
                    "duration": 0.3707825000000007
                },
                {
                    "name": "G#5",
                    "midi": 80,
                    "time": 31.14572999999999,
                    "velocity": 0.31496062992125984,
                    "duration": 0.3707825000000007
                },
                {
                    "name": "F4",
                    "midi": 65,
                    "time": 31.51651249999999,
                    "velocity": 0.2047244094488189,
                    "duration": 0.2780868749999996
                },
                {
                    "name": "B4",
                    "midi": 71,
                    "time": 31.51651249999999,
                    "velocity": 0.2047244094488189,
                    "duration": 0.2780868749999996
                },
                {
                    "name": "D5",
                    "midi": 74,
                    "time": 31.51651249999999,
                    "velocity": 0.29133858267716534,
                    "duration": 0.2780868749999996
                },
                {
                    "name": "D#5",
                    "midi": 75,
                    "time": 31.783784885416658,
                    "velocity": 0.2677165354330709,
                    "duration": 0.0926956249999975
                },
                {
                    "name": "D#4",
                    "midi": 63,
                    "time": 31.887294999999988,
                    "velocity": 0.2677165354330709,
                    "duration": 0.7415650000000014
                },
                {
                    "name": "C5",
                    "midi": 72,
                    "time": 31.887294999999988,
                    "velocity": 0.31496062992125984,
                    "duration": 0.7415650000000014
                },
                {
                    "name": "G3",
                    "midi": 55,
                    "time": 32.81425124999999,
                    "velocity": 0.23622047244094488,
                    "duration": 0.0926956249999975
                },
                {
                    "name": "C4",
                    "midi": 60,
                    "time": 32.81425124999999,
                    "velocity": 0.23622047244094488,
                    "duration": 0.0926956249999975
                },
                {
                    "name": "G3",
                    "midi": 55,
                    "time": 32.999642499999986,
                    "velocity": 0.2677165354330709,
                    "duration": 0.0926956249999975
                },
                {
                    "name": "B3",
                    "midi": 59,
                    "time": 32.999642499999986,
                    "velocity": 0.2677165354330709,
                    "duration": 0.0926956249999975
                },
                {
                    "name": "G3",
                    "midi": 55,
                    "time": 33.18503374999998,
                    "velocity": 0.23622047244094488,
                    "duration": 0.0926956249999975
                },
                {
                    "name": "C4",
                    "midi": 60,
                    "time": 33.18503374999998,
                    "velocity": 0.23622047244094488,
                    "duration": 0.0926956249999975
                },
                {
                    "name": "G3",
                    "midi": 55,
                    "time": 33.55581624999998,
                    "velocity": 0.25984251968503935,
                    "duration": 0.0926956249999975
                },
                {
                    "name": "B3",
                    "midi": 59,
                    "time": 33.55581624999998,
                    "velocity": 0.25984251968503935,
                    "duration": 0.0926956249999975
                },
                {
                    "name": "D4",
                    "midi": 62,
                    "time": 33.55581624999998,
                    "velocity": 0.25984251968503935,
                    "duration": 0.0926956249999975
                },
                {
                    "name": "G4",
                    "midi": 67,
                    "time": 33.74120749999997,
                    "velocity": 0.47244094488188976,
                    "duration": 1.4831299999999885
                },
                {
                    "name": "C4",
                    "midi": 60,
                    "time": 34.23558416666664,
                    "velocity": 0.2440944881889764,
                    "duration": 0.0988753333333321
                },
                {
                    "name": "C5",
                    "midi": 72,
                    "time": 34.23558416666664,
                    "velocity": 0.29133858267716534,
                    "duration": 0.0988753333333321
                },
                {
                    "name": "C4",
                    "midi": 60,
                    "time": 34.359178333333304,
                    "velocity": 0.25196850393700787,
                    "duration": 0.0988753333333321
                },
                {
                    "name": "C5",
                    "midi": 72,
                    "time": 34.359178333333304,
                    "velocity": 0.2992125984251969,
                    "duration": 0.0988753333333321
                },
                {
                    "name": "B3",
                    "midi": 59,
                    "time": 34.60636666666664,
                    "velocity": 0.3543307086614173,
                    "duration": 0.0988753333333321
                },
                {
                    "name": "B4",
                    "midi": 71,
                    "time": 34.60636666666664,
                    "velocity": 0.41732283464566927,
                    "duration": 0.0988753333333321
                },
                {
                    "name": "C4",
                    "midi": 60,
                    "time": 34.7299608333333,
                    "velocity": 0.3700787401574803,
                    "duration": 0.0988753333333321
                },
                {
                    "name": "C5",
                    "midi": 72,
                    "time": 34.7299608333333,
                    "velocity": 0.4409448818897638,
                    "duration": 0.0988753333333321
                },
                {
                    "name": "D4",
                    "midi": 62,
                    "time": 35.03894624999997,
                    "velocity": 0.44881889763779526,
                    "duration": 0.0926956249999975
                },
                {
                    "name": "D5",
                    "midi": 74,
                    "time": 35.03894624999997,
                    "velocity": 0.5118110236220472,
                    "duration": 0.0926956249999975
                },
                {
                    "name": "G#4",
                    "midi": 68,
                    "time": 35.22433749999996,
                    "velocity": 0.4409448818897638,
                    "duration": 1.1123474999999985
                },
                {
                    "name": "G#5",
                    "midi": 80,
                    "time": 35.22433749999996,
                    "velocity": 0.5118110236220472,
                    "duration": 1.1123474999999985
                },
                {
                    "name": "C#5",
                    "midi": 73,
                    "time": 35.59511999999996,
                    "velocity": 0.3779527559055118,
                    "duration": 0.7106664583333355
                },
                {
                    "name": "A4",
                    "midi": 69,
                    "time": 36.33668499999996,
                    "velocity": 0.4015748031496063,
                    "duration": 0.5252752083333334
                },
                {
                    "name": "C5",
                    "midi": 72,
                    "time": 36.33668499999996,
                    "velocity": 0.4015748031496063,
                    "duration": 0.5252752083333334
                },
                {
                    "name": "D#5",
                    "midi": 75,
                    "time": 36.33668499999996,
                    "velocity": 0.4015748031496063,
                    "duration": 0.5252752083333334
                },
                {
                    "name": "A5",
                    "midi": 81,
                    "time": 36.33668499999996,
                    "velocity": 0.48031496062992124,
                    "duration": 0.5252752083333334
                },
                {
                    "name": "A4",
                    "midi": 69,
                    "time": 36.89285874999996,
                    "velocity": 0.2755905511811024,
                    "duration": 0.15449270833333628
                },
                {
                    "name": "C5",
                    "midi": 72,
                    "time": 36.89285874999996,
                    "velocity": 0.2755905511811024,
                    "duration": 0.15449270833333628
                },
                {
                    "name": "D#5",
                    "midi": 75,
                    "time": 36.89285874999996,
                    "velocity": 0.2755905511811024,
                    "duration": 0.15449270833333628
                },
                {
                    "name": "A5",
                    "midi": 81,
                    "time": 36.89285874999996,
                    "velocity": 0.33070866141732286,
                    "duration": 0.15449270833333628
                },
                {
                    "name": "C5",
                    "midi": 72,
                    "time": 37.07824999999996,
                    "velocity": 0.23622047244094488,
                    "duration": 0.18539125000000212
                },
                {
                    "name": "D#5",
                    "midi": 75,
                    "time": 37.07824999999996,
                    "velocity": 0.23622047244094488,
                    "duration": 0.18539125000000212
                },
                {
                    "name": "G5",
                    "midi": 79,
                    "time": 37.07824999999996,
                    "velocity": 0.28346456692913385,
                    "duration": 0.18539125000000212
                },
                {
                    "name": "B3",
                    "midi": 59,
                    "time": 37.449032499999966,
                    "velocity": 0.2440944881889764,
                    "duration": 0.2780868749999996
                },
                {
                    "name": "D4",
                    "midi": 62,
                    "time": 37.449032499999966,
                    "velocity": 0.29133858267716534,
                    "duration": 0.2780868749999996
                },
                {
                    "name": "D#4",
                    "midi": 63,
                    "time": 37.727119374999965,
                    "velocity": 0.2677165354330709,
                    "duration": 0.0926956249999975
                },
                {
                    "name": "C4",
                    "midi": 60,
                    "time": 37.81981499999996,
                    "velocity": 0.31496062992125984,
                    "duration": 1.8539124999999999
                },
                {
                    "name": "G5",
                    "midi": 79,
                    "time": 39.67372749999996,
                    "velocity": 0.31496062992125984,
                    "duration": 0.12359416666666334
                },
                {
                    "name": "G6",
                    "midi": 91,
                    "time": 39.797321666666626,
                    "velocity": 0.3858267716535433,
                    "duration": 0.12359416666666334
                },
                {
                    "name": "F6",
                    "midi": 89,
                    "time": 39.92091583333329,
                    "velocity": 0.33858267716535434,
                    "duration": 0.07724635416666814
                },
                {
                    "name": "D#6",
                    "midi": 87,
                    "time": 40.04450999999996,
                    "velocity": 0.4015748031496063,
                    "duration": 0.12359416666666334
                },
                {
                    "name": "D6",
                    "midi": 86,
                    "time": 40.16810416666662,
                    "velocity": 0.33858267716535434,
                    "duration": 0.12359416666666334
                },
                {
                    "name": "C6",
                    "midi": 84,
                    "time": 40.29169833333329,
                    "velocity": 0.33858267716535434,
                    "duration": 0.12359416666666334
                },
                {
                    "name": "B5",
                    "midi": 83,
                    "time": 40.41529249999995,
                    "velocity": 0.3937007874015748,
                    "duration": 0.12359416666666334
                },
                {
                    "name": "C6",
                    "midi": 84,
                    "time": 40.53888666666661,
                    "velocity": 0.31496062992125984,
                    "duration": 0.12359416666666334
                },
                {
                    "name": "D6",
                    "midi": 86,
                    "time": 40.66248083333328,
                    "velocity": 0.31496062992125984,
                    "duration": 0.12359416666666334
                },
                {
                    "name": "C6",
                    "midi": 84,
                    "time": 40.78607499999994,
                    "velocity": 0.3858267716535433,
                    "duration": 0.030898541666665835
                },
                {
                    "name": "D6",
                    "midi": 86,
                    "time": 40.816973541666606,
                    "velocity": 0.3543307086614173,
                    "duration": 0.030898541666665835
                },
                {
                    "name": "C6",
                    "midi": 84,
                    "time": 40.84787208333327,
                    "velocity": 0.4015748031496063,
                    "duration": 0.06179708333333167
                },
                {
                    "name": "G5",
                    "midi": 79,
                    "time": 40.9096691666666,
                    "velocity": 0.33070866141732286,
                    "duration": 0.12359416666666334
                },
                {
                    "name": "F5",
                    "midi": 77,
                    "time": 41.03326333333327,
                    "velocity": 0.33070866141732286,
                    "duration": 0.12359416666666334
                },
                {
                    "name": "D#5",
                    "midi": 75,
                    "time": 41.15685749999993,
                    "velocity": 0.3700787401574803,
                    "duration": 0.12359416666666334
                },
                {
                    "name": "D5",
                    "midi": 74,
                    "time": 41.28045166666659,
                    "velocity": 0.31496062992125984,
                    "duration": 0.12359416666666334
                },
                {
                    "name": "C5",
                    "midi": 72,
                    "time": 41.40404583333326,
                    "velocity": 0.31496062992125984,
                    "duration": 0.12359416666666334
                },
                {
                    "name": "D5",
                    "midi": 74,
                    "time": 41.52763999999992,
                    "velocity": 0.36220472440944884,
                    "duration": 0.12359416666666334
                },
                {
                    "name": "G5",
                    "midi": 79,
                    "time": 41.65123416666658,
                    "velocity": 0.2992125984251969,
                    "duration": 0.12359416666666334
                },
                {
                    "name": "G4",
                    "midi": 67,
                    "time": 41.77482833333325,
                    "velocity": 0.2992125984251969,
                    "duration": 0.12359416666666334
                },
                {
                    "name": "F#4",
                    "midi": 66,
                    "time": 41.89842249999991,
                    "velocity": 0.33070866141732286,
                    "duration": 0.12359416666666334
                },
                {
                    "name": "A4",
                    "midi": 69,
                    "time": 42.02201666666657,
                    "velocity": 0.29133858267716534,
                    "duration": 0.12359416666666334
                },
                {
                    "name": "C5",
                    "midi": 72,
                    "time": 42.14561083333324,
                    "velocity": 0.29133858267716534,
                    "duration": 0.12359416666666334
                },
                {
                    "name": "A#4",
                    "midi": 70,
                    "time": 42.2692049999999,
                    "velocity": 0.3858267716535433,
                    "duration": 0.030898541666665835
                },
                {
                    "name": "C5",
                    "midi": 72,
                    "time": 42.300103541666566,
                    "velocity": 0.3543307086614173,
                    "duration": 0.030898541666665835
                },
                {
                    "name": "A#4",
                    "midi": 70,
                    "time": 42.33100208333323,
                    "velocity": 0.4015748031496063,
                    "duration": 0.06179708333333167
                },
                {
                    "name": "A4",
                    "midi": 69,
                    "time": 42.39279916666656,
                    "velocity": 0.28346456692913385,
                    "duration": 0.12359416666666334
                },
                {
                    "name": "G4",
                    "midi": 67,
                    "time": 42.51639333333323,
                    "velocity": 0.2992125984251969,
                    "duration": 0.4943766666666676
                },
                {
                    "name": "A4",
                    "midi": 69,
                    "time": 43.010769999999894,
                    "velocity": 0.36220472440944884,
                    "duration": 0.12359416666666334
                },
                {
                    "name": "D4",
                    "midi": 62,
                    "time": 43.13436416666656,
                    "velocity": 0.2992125984251969,
                    "duration": 0.12359416666666334
                },
                {
                    "name": "D5",
                    "midi": 74,
                    "time": 43.25795833333322,
                    "velocity": 0.2992125984251969,
                    "duration": 0.12359416666666334
                },
                {
                    "name": "C#5",
                    "midi": 73,
                    "time": 43.381552499999884,
                    "velocity": 0.36220472440944884,
                    "duration": 0.12359416666666334
                },
                {
                    "name": "E5",
                    "midi": 76,
                    "time": 43.50514666666655,
                    "velocity": 0.29133858267716534,
                    "duration": 0.12359416666666334
                },
                {
                    "name": "G5",
                    "midi": 79,
                    "time": 43.62874083333321,
                    "velocity": 0.30708661417322836,
                    "duration": 0.12359416666666334
                },
                {
                    "name": "F5",
                    "midi": 77,
                    "time": 43.752334999999874,
                    "velocity": 0.3858267716535433,
                    "duration": 0.030898541666665835
                },
                {
                    "name": "G5",
                    "midi": 79,
                    "time": 43.78323354166654,
                    "velocity": 0.3543307086614173,
                    "duration": 0.030898541666665835
                },
                {
                    "name": "F5",
                    "midi": 77,
                    "time": 43.814132083333206,
                    "velocity": 0.4015748031496063,
                    "duration": 0.06179708333333167
                },
                {
                    "name": "E5",
                    "midi": 76,
                    "time": 43.87592916666654,
                    "velocity": 0.28346456692913385,
                    "duration": 0.12359416666666334
                },
                {
                    "name": "D5",
                    "midi": 74,
                    "time": 43.9995233333332,
                    "velocity": 0.2992125984251969,
                    "duration": 0.44802885416666527
                },
                {
                    "name": "D5",
                    "midi": 74,
                    "time": 44.49389999999987,
                    "velocity": 0.3464566929133858,
                    "duration": 0.74156499999998
                },
                {
                    "name": "A#4",
                    "midi": 70,
                    "time": 44.49389999999987,
                    "velocity": 0.4015748031496063,
                    "duration": 0.12359416666666334
                },
                {
                    "name": "A4",
                    "midi": 69,
                    "time": 44.61749416666653,
                    "velocity": 0.33858267716535434,
                    "duration": 0.12359416666666334
                },
                {
                    "name": "G4",
                    "midi": 67,
                    "time": 44.741088333333195,
                    "velocity": 0.33858267716535434,
                    "duration": 0.12359416666666334
                },
                {
                    "name": "F#4",
                    "midi": 66,
                    "time": 44.86468249999986,
                    "velocity": 0.3937007874015748,
                    "duration": 0.12359416666666334
                },
                {
                    "name": "G4",
                    "midi": 67,
                    "time": 44.98827666666652,
                    "velocity": 0.31496062992125984,
                    "duration": 0.12359416666666334
                },
                {
                    "name": "A4",
                    "midi": 69,
                    "time": 45.111870833333185,
                    "velocity": 0.31496062992125984,
                    "duration": 0.12359416666666334
                },
                {
                    "name": "G5",
                    "midi": 79,
                    "time": 45.23546499999985,
                    "velocity": 0.33070866141732286,
                    "duration": 0.7415649999999872
                },
                {
                    "name": "A#4",
                    "midi": 70,
                    "time": 45.23546499999985,
                    "velocity": 0.4015748031496063,
                    "duration": 0.12359416666666334
                },
                {
                    "name": "A4",
                    "midi": 69,
                    "time": 45.35905916666651,
                    "velocity": 0.33070866141732286,
                    "duration": 0.12359416666666334
                },
                {
                    "name": "A#4",
                    "midi": 70,
                    "time": 45.482653333333175,
                    "velocity": 0.33070866141732286,
                    "duration": 0.12359416666666334
                },
                {
                    "name": "D#5",
                    "midi": 75,
                    "time": 45.60624749999984,
                    "velocity": 0.3700787401574803,
                    "duration": 0.12359416666666334
                },
                {
                    "name": "A#4",
                    "midi": 70,
                    "time": 45.7298416666665,
                    "velocity": 0.31496062992125984,
                    "duration": 0.12359416666666334
                },
                {
                    "name": "G4",
                    "midi": 67,
                    "time": 45.853435833333165,
                    "velocity": 0.31496062992125984,
                    "duration": 0.07724635416666814
                },
                {
                    "name": "F5",
                    "midi": 77,
                    "time": 45.977029999999836,
                    "velocity": 0.3464566929133858,
                    "duration": 0.37078249999999
                },
                {
                    "name": "D5",
                    "midi": 74,
                    "time": 45.977029999999836,
                    "velocity": 0.4015748031496063,
                    "duration": 0.12359416666666334
                },
                {
                    "name": "C5",
                    "midi": 72,
                    "time": 46.1006241666665,
                    "velocity": 0.33858267716535434,
                    "duration": 0.12359416666666334
                },
                {
                    "name": "A#4",
                    "midi": 70,
                    "time": 46.22421833333316,
                    "velocity": 0.33858267716535434,
                    "duration": 0.12359416666666334
                },
                {
                    "name": "D#5",
                    "midi": 75,
                    "time": 46.347812499999826,
                    "velocity": 0.33070866141732286,
                    "duration": 0.37078249999999
                },
                {
                    "name": "A4",
                    "midi": 69,
                    "time": 46.347812499999826,
                    "velocity": 0.3937007874015748,
                    "duration": 0.12359416666666334
                },
                {
                    "name": "A#4",
                    "midi": 70,
                    "time": 46.47140666666649,
                    "velocity": 0.31496062992125984,
                    "duration": 0.12359416666666334
                },
                {
                    "name": "A4",
                    "midi": 69,
                    "time": 46.59500083333315,
                    "velocity": 0.31496062992125984,
                    "duration": 0.12359416666666334
                },
                {
                    "name": "D5",
                    "midi": 74,
                    "time": 46.718594999999816,
                    "velocity": 0.3700787401574803,
                    "duration": 0.7415649999999943
                },
                {
                    "name": "A#4",
                    "midi": 70,
                    "time": 46.718594999999816,
                    "velocity": 0.3858267716535433,
                    "duration": 0.030898541666665835
                },
                {
                    "name": "C5",
                    "midi": 72,
                    "time": 46.74949354166648,
                    "velocity": 0.3543307086614173,
                    "duration": 0.030898541666665835
                },
                {
                    "name": "A#4",
                    "midi": 70,
                    "time": 46.78039208333315,
                    "velocity": 0.4015748031496063,
                    "duration": 0.06179708333333167
                },
                {
                    "name": "A4",
                    "midi": 69,
                    "time": 46.84218916666648,
                    "velocity": 0.33070866141732286,
                    "duration": 0.12359416666666334
                },
                {
                    "name": "G4",
                    "midi": 67,
                    "time": 46.96578333333314,
                    "velocity": 0.33070866141732286,
                    "duration": 0.4943766666666676
                },
                {
                    "name": "D5",
                    "midi": 74,
                    "time": 47.46015999999981,
                    "velocity": 0.3700787401574803,
                    "duration": 0.74156499999998
                },
                {
                    "name": "A#4",
                    "midi": 70,
                    "time": 47.46015999999981,
                    "velocity": 0.3858267716535433,
                    "duration": 0.030898541666665835
                },
                {
                    "name": "C5",
                    "midi": 72,
                    "time": 47.491058541666476,
                    "velocity": 0.3543307086614173,
                    "duration": 0.030898541666665835
                },
                {
                    "name": "A#4",
                    "midi": 70,
                    "time": 47.52195708333314,
                    "velocity": 0.4015748031496063,
                    "duration": 0.06179708333333167
                },
                {
                    "name": "A4",
                    "midi": 69,
                    "time": 47.58375416666647,
                    "velocity": 0.33070866141732286,
                    "duration": 0.12359416666666334
                },
                {
                    "name": "G4",
                    "midi": 67,
                    "time": 47.70734833333314,
                    "velocity": 0.33070866141732286,
                    "duration": 0.12359416666666334
                },
                {
                    "name": "F#4",
                    "midi": 66,
                    "time": 47.8309424999998,
                    "velocity": 0.3700787401574803,
                    "duration": 0.12359416666666334
                },
                {
                    "name": "G4",
                    "midi": 67,
                    "time": 47.95453666666646,
                    "velocity": 0.33070866141732286,
                    "duration": 0.12359416666666334
                },
                {
                    "name": "A4",
                    "midi": 69,
                    "time": 48.07813083333313,
                    "velocity": 0.3543307086614173,
                    "duration": 0.12359416666666334
                },
                {
                    "name": "G5",
                    "midi": 79,
                    "time": 48.20172499999979,
                    "velocity": 0.4015748031496063,
                    "duration": 0.37078249999999
                },
                {
                    "name": "A#4",
                    "midi": 70,
                    "time": 48.20172499999979,
                    "velocity": 0.3858267716535433,
                    "duration": 0.12359416666666334
                },
                {
                    "name": "A4",
                    "midi": 69,
                    "time": 48.32531916666645,
                    "velocity": 0.33858267716535434,
                    "duration": 0.12359416666666334
                },
                {
                    "name": "A#4",
                    "midi": 70,
                    "time": 48.44891333333312,
                    "velocity": 0.33858267716535434,
                    "duration": 0.12359416666666334
                },
                {
                    "name": "F5",
                    "midi": 77,
                    "time": 48.57250749999978,
                    "velocity": 0.3937007874015748,
                    "duration": 0.37078249999999
                },
                {
                    "name": "D5",
                    "midi": 74,
                    "time": 48.57250749999978,
                    "velocity": 0.3700787401574803,
                    "duration": 0.12359416666666334
                },
                {
                    "name": "D#5",
                    "midi": 75,
                    "time": 48.69610166666644,
                    "velocity": 0.3228346456692913,
                    "duration": 0.12359416666666334
                },
                {
                    "name": "D5",
                    "midi": 74,
                    "time": 48.81969583333311,
                    "velocity": 0.30708661417322836,
                    "duration": 0.12359416666666334
                },
                {
                    "name": "D#5",
                    "midi": 75,
                    "time": 48.94328999999977,
                    "velocity": 0.4015748031496063,
                    "duration": 0.37078249999999
                },
                {
                    "name": "C5",
                    "midi": 72,
                    "time": 48.94328999999977,
                    "velocity": 0.3858267716535433,
                    "duration": 0.030898541666665835
                },
                {
                    "name": "D5",
                    "midi": 74,
                    "time": 48.974188541666436,
                    "velocity": 0.3543307086614173,
                    "duration": 0.030898541666665835
                },
                {
                    "name": "C5",
                    "midi": 72,
                    "time": 49.0050870833331,
                    "velocity": 0.4015748031496063,
                    "duration": 0.06179708333333167
                },
                {
                    "name": "B4",
                    "midi": 71,
                    "time": 49.06688416666643,
                    "velocity": 0.33070866141732286,
                    "duration": 0.12359416666666334
                },
                {
                    "name": "A#4",
                    "midi": 70,
                    "time": 49.1904783333331,
                    "velocity": 0.33070866141732286,
                    "duration": 0.12359416666666334
                },
                {
                    "name": "G#4",
                    "midi": 68,
                    "time": 49.31407249999976,
                    "velocity": 0.3700787401574803,
                    "duration": 0.12359416666666334
                },
                {
                    "name": "D5",
                    "midi": 74,
                    "time": 49.31407249999976,
                    "velocity": 0.3937007874015748,
                    "duration": 0.37078249999999
                },
                {
                    "name": "G4",
                    "midi": 67,
                    "time": 49.43766666666642,
                    "velocity": 0.33070866141732286,
                    "duration": 0.12359416666666334
                },
                {
                    "name": "F4",
                    "midi": 65,
                    "time": 49.56126083333309,
                    "velocity": 0.3543307086614173,
                    "duration": 0.12359416666666334
                },
                {
                    "name": "C5",
                    "midi": 72,
                    "time": 49.68485499999975,
                    "velocity": 0.3700787401574803,
                    "duration": 0.7415649999999943
                },
                {
                    "name": "D#4",
                    "midi": 63,
                    "time": 49.68485499999975,
                    "velocity": 0.3858267716535433,
                    "duration": 0.030898541666665835
                },
                {
                    "name": "F4",
                    "midi": 65,
                    "time": 49.715753541666416,
                    "velocity": 0.3543307086614173,
                    "duration": 0.030898541666665835
                },
                {
                    "name": "D#4",
                    "midi": 63,
                    "time": 49.74665208333308,
                    "velocity": 0.4015748031496063,
                    "duration": 0.06179708333333167
                },
                {
                    "name": "D4",
                    "midi": 62,
                    "time": 49.80844916666641,
                    "velocity": 0.33070866141732286,
                    "duration": 0.12359416666666334
                },
                {
                    "name": "C4",
                    "midi": 60,
                    "time": 49.93204333333308,
                    "velocity": 0.33070866141732286,
                    "duration": 1.606724166666666
                },
                {
                    "name": "B4",
                    "midi": 71,
                    "time": 51.53876749999974,
                    "velocity": 0.30708661417322836,
                    "duration": 0.37078249999999713
                },
                {
                    "name": "D5",
                    "midi": 74,
                    "time": 51.53876749999974,
                    "velocity": 0.30708661417322836,
                    "duration": 0.37078249999999713
                },
                {
                    "name": "G5",
                    "midi": 79,
                    "time": 51.53876749999974,
                    "velocity": 0.3700787401574803,
                    "duration": 0.37078249999999713
                },
                {
                    "name": "F5",
                    "midi": 77,
                    "time": 51.53876749999974,
                    "velocity": 0.30708661417322836,
                    "duration": 0.37078249999999713
                },
                {
                    "name": "C6",
                    "midi": 84,
                    "time": 51.90954999999974,
                    "velocity": 0.3779527559055118,
                    "duration": 0.35224337500000047
                },
                {
                    "name": "G5",
                    "midi": 79,
                    "time": 51.90954999999974,
                    "velocity": 0.31496062992125984,
                    "duration": 0.35224337500000047
                },
                {
                    "name": "D#5",
                    "midi": 75,
                    "time": 51.90954999999974,
                    "velocity": 0.31496062992125984,
                    "duration": 0.35224337500000047
                },
                {
                    "name": "C5",
                    "midi": 72,
                    "time": 51.90954999999974,
                    "velocity": 0.31496062992125984,
                    "duration": 0.35224337500000047
                },
                {
                    "name": "D6",
                    "midi": 86,
                    "time": 52.28033249999974,
                    "velocity": 0.4094488188976378,
                    "duration": 0.35224337500000047
                },
                {
                    "name": "G5",
                    "midi": 79,
                    "time": 52.28033249999974,
                    "velocity": 0.3464566929133858,
                    "duration": 0.35224337500000047
                },
                {
                    "name": "F5",
                    "midi": 77,
                    "time": 52.28033249999974,
                    "velocity": 0.3464566929133858,
                    "duration": 0.35224337500000047
                },
                {
                    "name": "D5",
                    "midi": 74,
                    "time": 52.28033249999974,
                    "velocity": 0.3464566929133858,
                    "duration": 0.35224337500000047
                },
                {
                    "name": "D#6",
                    "midi": 87,
                    "time": 52.651114999999734,
                    "velocity": 0.41732283464566927,
                    "duration": 0.35224337500000047
                },
                {
                    "name": "G5",
                    "midi": 79,
                    "time": 52.651114999999734,
                    "velocity": 0.3543307086614173,
                    "duration": 0.35224337500000047
                },
                {
                    "name": "D#5",
                    "midi": 75,
                    "time": 52.651114999999734,
                    "velocity": 0.3543307086614173,
                    "duration": 0.35224337500000047
                },
                {
                    "name": "C6",
                    "midi": 84,
                    "time": 53.02189749999973,
                    "velocity": 0.4094488188976378,
                    "duration": 0.35224337500000047
                },
                {
                    "name": "G5",
                    "midi": 79,
                    "time": 53.02189749999973,
                    "velocity": 0.3464566929133858,
                    "duration": 0.35224337500000047
                },
                {
                    "name": "C5",
                    "midi": 72,
                    "time": 53.02189749999973,
                    "velocity": 0.3464566929133858,
                    "duration": 0.35224337500000047
                },
                {
                    "name": "B5",
                    "midi": 83,
                    "time": 53.39267999999973,
                    "velocity": 0.4330708661417323,
                    "duration": 0.35224337500000047
                },
                {
                    "name": "G5",
                    "midi": 79,
                    "time": 53.39267999999973,
                    "velocity": 0.36220472440944884,
                    "duration": 0.35224337500000047
                },
                {
                    "name": "D5",
                    "midi": 74,
                    "time": 53.39267999999973,
                    "velocity": 0.36220472440944884,
                    "duration": 0.35224337500000047
                },
                {
                    "name": "B4",
                    "midi": 71,
                    "time": 53.39267999999973,
                    "velocity": 0.36220472440944884,
                    "duration": 0.35224337500000047
                },
                {
                    "name": "D6",
                    "midi": 86,
                    "time": 53.763462499999726,
                    "velocity": 0.3937007874015748,
                    "duration": 0.35224337500000047
                },
                {
                    "name": "C6",
                    "midi": 84,
                    "time": 53.763462499999726,
                    "velocity": 0.33070866141732286,
                    "duration": 0.35224337500000047
                },
                {
                    "name": "A5",
                    "midi": 81,
                    "time": 53.763462499999726,
                    "velocity": 0.33070866141732286,
                    "duration": 0.35224337500000047
                },
                {
                    "name": "D5",
                    "midi": 74,
                    "time": 53.763462499999726,
                    "velocity": 0.33070866141732286,
                    "duration": 0.35224337500000047
                },
                {
                    "name": "G6",
                    "midi": 91,
                    "time": 54.13424499999972,
                    "velocity": 0.4330708661417323,
                    "duration": 0.7415650000000014
                },
                {
                    "name": "D6",
                    "midi": 86,
                    "time": 54.13424499999972,
                    "velocity": 0.36220472440944884,
                    "duration": 0.7415650000000014
                },
                {
                    "name": "A#5",
                    "midi": 82,
                    "time": 54.13424499999972,
                    "velocity": 0.36220472440944884,
                    "duration": 0.7415650000000014
                },
                {
                    "name": "G5",
                    "midi": 79,
                    "time": 54.13424499999972,
                    "velocity": 0.36220472440944884,
                    "duration": 0.7415650000000014
                },
                {
                    "name": "F#6",
                    "midi": 90,
                    "time": 54.875809999999724,
                    "velocity": 0.48031496062992124,
                    "duration": 0.35224337500000047
                },
                {
                    "name": "D6",
                    "midi": 86,
                    "time": 54.875809999999724,
                    "velocity": 0.4015748031496063,
                    "duration": 0.35224337500000047
                },
                {
                    "name": "A5",
                    "midi": 81,
                    "time": 54.875809999999724,
                    "velocity": 0.4015748031496063,
                    "duration": 0.35224337500000047
                },
                {
                    "name": "F#5",
                    "midi": 78,
                    "time": 54.875809999999724,
                    "velocity": 0.4015748031496063,
                    "duration": 0.35224337500000047
                },
                {
                    "name": "A6",
                    "midi": 93,
                    "time": 55.24659249999972,
                    "velocity": 0.4251968503937008,
                    "duration": 0.35224337500000047
                },
                {
                    "name": "G6",
                    "midi": 91,
                    "time": 55.24659249999972,
                    "velocity": 0.3543307086614173,
                    "duration": 0.35224337500000047
                },
                {
                    "name": "E6",
                    "midi": 88,
                    "time": 55.24659249999972,
                    "velocity": 0.3543307086614173,
                    "duration": 0.35224337500000047
                },
                {
                    "name": "A5",
                    "midi": 81,
                    "time": 55.24659249999972,
                    "velocity": 0.3543307086614173,
                    "duration": 0.35224337500000047
                },
                {
                    "name": "D7",
                    "midi": 98,
                    "time": 55.61737499999972,
                    "velocity": 0.49606299212598426,
                    "duration": 0.7415650000000014
                },
                {
                    "name": "A6",
                    "midi": 93,
                    "time": 55.61737499999972,
                    "velocity": 0.41732283464566927,
                    "duration": 0.7415650000000014
                },
                {
                    "name": "F6",
                    "midi": 89,
                    "time": 55.61737499999972,
                    "velocity": 0.41732283464566927,
                    "duration": 0.7415650000000014
                },
                {
                    "name": "D6",
                    "midi": 86,
                    "time": 55.61737499999972,
                    "velocity": 0.41732283464566927,
                    "duration": 0.7415650000000014
                },
                {
                    "name": "F4",
                    "midi": 65,
                    "time": 56.35893999999972,
                    "velocity": 0.3779527559055118,
                    "duration": 0.7415650000000014
                },
                {
                    "name": "D5",
                    "midi": 74,
                    "time": 56.35893999999972,
                    "velocity": 0.44881889763779526,
                    "duration": 0.7415650000000014
                },
                {
                    "name": "G4",
                    "midi": 67,
                    "time": 57.10050499999972,
                    "velocity": 0.3937007874015748,
                    "duration": 0.7415650000000014
                },
                {
                    "name": "A#4",
                    "midi": 70,
                    "time": 57.10050499999972,
                    "velocity": 0.3937007874015748,
                    "duration": 0.7415650000000014
                },
                {
                    "name": "G5",
                    "midi": 79,
                    "time": 57.10050499999972,
                    "velocity": 0.4645669291338583,
                    "duration": 0.7415650000000014
                },
                {
                    "name": "F5",
                    "midi": 77,
                    "time": 57.84206999999972,
                    "velocity": 0.3464566929133858,
                    "duration": 0.37078249999999
                },
                {
                    "name": "D5",
                    "midi": 74,
                    "time": 57.84206999999972,
                    "velocity": 0.3858267716535433,
                    "duration": 0.030898541666665835
                },
                {
                    "name": "D#5",
                    "midi": 75,
                    "time": 57.87296854166639,
                    "velocity": 0.3543307086614173,
                    "duration": 0.030898541666665835
                },
                {
                    "name": "D5",
                    "midi": 74,
                    "time": 57.903867083333054,
                    "velocity": 0.4015748031496063,
                    "duration": 0.06179708333333167
                },
                {
                    "name": "C5",
                    "midi": 72,
                    "time": 57.965664166666386,
                    "velocity": 0.33858267716535434,
                    "duration": 0.12359416666666334
                },
                {
                    "name": "A#4",
                    "midi": 70,
                    "time": 58.08925833333305,
                    "velocity": 0.33858267716535434,
                    "duration": 0.12359416666666334
                },
                {
                    "name": "D#5",
                    "midi": 75,
                    "time": 58.21285249999971,
                    "velocity": 0.33070866141732286,
                    "duration": 0.37078249999999
                },
                {
                    "name": "A4",
                    "midi": 69,
                    "time": 58.21285249999971,
                    "velocity": 0.3937007874015748,
                    "duration": 0.12359416666666334
                },
                {
                    "name": "A#4",
                    "midi": 70,
                    "time": 58.336446666666376,
                    "velocity": 0.31496062992125984,
                    "duration": 0.12359416666666334
                },
                {
                    "name": "C5",
                    "midi": 72,
                    "time": 58.46004083333304,
                    "velocity": 0.31496062992125984,
                    "duration": 0.12359416666666334
                },
                {
                    "name": "D5",
                    "midi": 74,
                    "time": 58.5836349999997,
                    "velocity": 0.3700787401574803,
                    "duration": 0.7415649999999943
                },
                {
                    "name": "A#4",
                    "midi": 70,
                    "time": 58.5836349999997,
                    "velocity": 0.3858267716535433,
                    "duration": 0.030898541666665835
                },
                {
                    "name": "C5",
                    "midi": 72,
                    "time": 58.61453354166637,
                    "velocity": 0.3543307086614173,
                    "duration": 0.030898541666665835
                },
                {
                    "name": "A#4",
                    "midi": 70,
                    "time": 58.645432083333034,
                    "velocity": 0.4015748031496063,
                    "duration": 0.06179708333333167
                },
                {
                    "name": "A4",
                    "midi": 69,
                    "time": 58.707229166666366,
                    "velocity": 0.33070866141732286,
                    "duration": 0.12359416666666334
                },
                {
                    "name": "G4",
                    "midi": 67,
                    "time": 58.83082333333303,
                    "velocity": 0.33070866141732286,
                    "duration": 0.4943766666666676
                },
                {
                    "name": "F4",
                    "midi": 65,
                    "time": 59.3251999999997,
                    "velocity": 0.30708661417322836,
                    "duration": 0.7415650000000014
                },
                {
                    "name": "D5",
                    "midi": 74,
                    "time": 59.3251999999997,
                    "velocity": 0.3700787401574803,
                    "duration": 0.7415650000000014
                },
                {
                    "name": "G5",
                    "midi": 79,
                    "time": 60.0667649999997,
                    "velocity": 0.4015748031496063,
                    "duration": 0.37078249999999713
                },
                {
                    "name": "G4",
                    "midi": 67,
                    "time": 60.0667649999997,
                    "velocity": 0.3228346456692913,
                    "duration": 0.37078249999999713
                },
                {
                    "name": "F5",
                    "midi": 77,
                    "time": 60.437547499999695,
                    "velocity": 0.3937007874015748,
                    "duration": 0.37078249999999
                },
                {
                    "name": "A#4",
                    "midi": 70,
                    "time": 60.437547499999695,
                    "velocity": 0.3858267716535433,
                    "duration": 0.030898541666665835
                },
                {
                    "name": "C5",
                    "midi": 72,
                    "time": 60.46844604166636,
                    "velocity": 0.3543307086614173,
                    "duration": 0.030898541666665835
                },
                {
                    "name": "A#4",
                    "midi": 70,
                    "time": 60.49934458333303,
                    "velocity": 0.4015748031496063,
                    "duration": 0.06179708333333167
                },
                {
                    "name": "A4",
                    "midi": 69,
                    "time": 60.56114166666636,
                    "velocity": 0.3228346456692913,
                    "duration": 0.12359416666666334
                },
                {
                    "name": "A#4",
                    "midi": 70,
                    "time": 60.68473583333302,
                    "velocity": 0.30708661417322836,
                    "duration": 0.12359416666666334
                },
                {
                    "name": "C5",
                    "midi": 72,
                    "time": 60.808329999999685,
                    "velocity": 0.3858267716535433,
                    "duration": 0.030898541666665835
                },
                {
                    "name": "D#5",
                    "midi": 75,
                    "time": 60.808329999999685,
                    "velocity": 0.4015748031496063,
                    "duration": 0.37078249999999
                },
                {
                    "name": "D5",
                    "midi": 74,
                    "time": 60.83922854166635,
                    "velocity": 0.3543307086614173,
                    "duration": 0.030898541666665835
                },
                {
                    "name": "C5",
                    "midi": 72,
                    "time": 60.87012708333302,
                    "velocity": 0.4015748031496063,
                    "duration": 0.06179708333333167
                },
                {
                    "name": "B4",
                    "midi": 71,
                    "time": 60.93192416666635,
                    "velocity": 0.33070866141732286,
                    "duration": 0.12359416666666334
                },
                {
                    "name": "A#4",
                    "midi": 70,
                    "time": 61.05551833333301,
                    "velocity": 0.33070866141732286,
                    "duration": 0.12359416666666334
                },
                {
                    "name": "D5",
                    "midi": 74,
                    "time": 61.179112499999675,
                    "velocity": 0.3937007874015748,
                    "duration": 0.37078249999999
                },
                {
                    "name": "G#4",
                    "midi": 68,
                    "time": 61.179112499999675,
                    "velocity": 0.3858267716535433,
                    "duration": 0.030898541666665835
                },
                {
                    "name": "A#4",
                    "midi": 70,
                    "time": 61.21001104166634,
                    "velocity": 0.3543307086614173,
                    "duration": 0.030898541666665835
                },
                {
                    "name": "G#4",
                    "midi": 68,
                    "time": 61.24090958333301,
                    "velocity": 0.4015748031496063,
                    "duration": 0.06179708333333167
                },
                {
                    "name": "G4",
                    "midi": 67,
                    "time": 61.30270666666634,
                    "velocity": 0.33070866141732286,
                    "duration": 0.12359416666666334
                },
                {
                    "name": "F4",
                    "midi": 65,
                    "time": 61.426300833333,
                    "velocity": 0.3543307086614173,
                    "duration": 0.12359416666666334
                },
                {
                    "name": "D#4",
                    "midi": 63,
                    "time": 61.549894999999665,
                    "velocity": 0.3858267716535433,
                    "duration": 0.030898541666665835
                },
                {
                    "name": "C5",
                    "midi": 72,
                    "time": 61.549894999999665,
                    "velocity": 0.3700787401574803,
                    "duration": 0.7415649999999943
                },
                {
                    "name": "F4",
                    "midi": 65,
                    "time": 61.58079354166633,
                    "velocity": 0.3543307086614173,
                    "duration": 0.030898541666665835
                },
                {
                    "name": "D#4",
                    "midi": 63,
                    "time": 61.611692083333,
                    "velocity": 0.4015748031496063,
                    "duration": 0.06179708333333167
                },
                {
                    "name": "D4",
                    "midi": 62,
                    "time": 61.67348916666633,
                    "velocity": 0.33070866141732286,
                    "duration": 0.12359416666666334
                },
                {
                    "name": "C4",
                    "midi": 60,
                    "time": 61.79708333333299,
                    "velocity": 0.33070866141732286,
                    "duration": 0.4943766666666676
                },
                {
                    "name": "G#3",
                    "midi": 56,
                    "time": 62.29145999999966,
                    "velocity": 0.2677165354330709,
                    "duration": 0.3398839583333313
                },
                {
                    "name": "C4",
                    "midi": 60,
                    "time": 62.29145999999966,
                    "velocity": 0.31496062992125984,
                    "duration": 0.3398839583333313
                },
                {
                    "name": "G3",
                    "midi": 55,
                    "time": 62.66224249999966,
                    "velocity": 0.2440944881889764,
                    "duration": 0.16994197916666565
                },
                {
                    "name": "A#3",
                    "midi": 58,
                    "time": 62.66224249999966,
                    "velocity": 0.29133858267716534,
                    "duration": 0.16994197916666565
                },
                {
                    "name": "G#3",
                    "midi": 56,
                    "time": 62.84763374999966,
                    "velocity": 0.2677165354330709,
                    "duration": 0.16994197916666565
                },
                {
                    "name": "C4",
                    "midi": 60,
                    "time": 62.84763374999966,
                    "velocity": 0.2677165354330709,
                    "duration": 0.16994197916666565
                },
                {
                    "name": "G#3",
                    "midi": 56,
                    "time": 63.03302499999966,
                    "velocity": 0.2677165354330709,
                    "duration": 0.7261157291666649
                },
                {
                    "name": "C#4",
                    "midi": 61,
                    "time": 63.03302499999966,
                    "velocity": 0.31496062992125984,
                    "duration": 0.7261157291666649
                },
                {
                    "name": "G#3",
                    "midi": 56,
                    "time": 63.77458999999966,
                    "velocity": 0.2204724409448819,
                    "duration": 0.3398839583333313
                },
                {
                    "name": "C4",
                    "midi": 60,
                    "time": 63.77458999999966,
                    "velocity": 0.31496062992125984,
                    "duration": 0.3398839583333313
                },
                {
                    "name": "G3",
                    "midi": 55,
                    "time": 64.14537249999967,
                    "velocity": 0.30708661417322836,
                    "duration": 0.16994197916666565
                },
                {
                    "name": "A#3",
                    "midi": 58,
                    "time": 64.14537249999967,
                    "velocity": 0.3700787401574803,
                    "duration": 0.16994197916666565
                },
                {
                    "name": "G#3",
                    "midi": 56,
                    "time": 64.33076374999966,
                    "velocity": 0.28346456692913385,
                    "duration": 0.16994197916666565
                },
                {
                    "name": "C4",
                    "midi": 60,
                    "time": 64.33076374999966,
                    "velocity": 0.33858267716535434,
                    "duration": 0.16994197916666565
                },
                {
                    "name": "A#3",
                    "midi": 58,
                    "time": 64.51615499999966,
                    "velocity": 0.3858267716535433,
                    "duration": 0.7261157291666649
                },
                {
                    "name": "D#4",
                    "midi": 63,
                    "time": 64.51615499999966,
                    "velocity": 0.4566929133858268,
                    "duration": 0.7261157291666649
                },
                {
                    "name": "G#3",
                    "midi": 56,
                    "time": 65.25771999999965,
                    "velocity": 0.2992125984251969,
                    "duration": 0.7183910937500002
                },
                {
                    "name": "C4",
                    "midi": 60,
                    "time": 65.25771999999965,
                    "velocity": 0.3543307086614173,
                    "duration": 0.7183910937500002
                },
                {
                    "name": "C#4",
                    "midi": 61,
                    "time": 65.99928499999965,
                    "velocity": 0.33070866141732286,
                    "duration": 0.35224337500000047
                },
                {
                    "name": "G#4",
                    "midi": 68,
                    "time": 65.99928499999965,
                    "velocity": 0.3937007874015748,
                    "duration": 0.35224337500000047
                },
                {
                    "name": "D4",
                    "midi": 62,
                    "time": 66.37006749999965,
                    "velocity": 0.3700787401574803,
                    "duration": 0.35224337500000047
                },
                {
                    "name": "G#4",
                    "midi": 68,
                    "time": 66.37006749999965,
                    "velocity": 0.4409448818897638,
                    "duration": 0.35224337500000047
                },
                {
                    "name": "D#4",
                    "midi": 63,
                    "time": 66.74084999999965,
                    "velocity": 0.36220472440944884,
                    "duration": 0.37078250000000423
                },
                {
                    "name": "G4",
                    "midi": 67,
                    "time": 66.74084999999965,
                    "velocity": 0.4330708661417323,
                    "duration": 0.37078250000000423
                },
                {
                    "name": "B3",
                    "midi": 59,
                    "time": 67.11163249999966,
                    "velocity": 0.2440944881889764,
                    "duration": 0.2780868749999996
                },
                {
                    "name": "D4",
                    "midi": 62,
                    "time": 67.11163249999966,
                    "velocity": 0.29133858267716534,
                    "duration": 0.2780868749999996
                },
                {
                    "name": "D#4",
                    "midi": 63,
                    "time": 67.38971937499966,
                    "velocity": 0.2677165354330709,
                    "duration": 0.09269562500000461
                },
                {
                    "name": "G3",
                    "midi": 55,
                    "time": 67.48241499999966,
                    "velocity": 0.2677165354330709,
                    "duration": 0.7261157291666649
                },
                {
                    "name": "C4",
                    "midi": 60,
                    "time": 67.48241499999966,
                    "velocity": 0.31496062992125984,
                    "duration": 0.7261157291666649
                },
                {
                    "name": "G#3",
                    "midi": 56,
                    "time": 68.22397999999966,
                    "velocity": 0.2677165354330709,
                    "duration": 0.3398839583333313
                },
                {
                    "name": "C4",
                    "midi": 60,
                    "time": 68.22397999999966,
                    "velocity": 0.31496062992125984,
                    "duration": 0.3398839583333313
                },
                {
                    "name": "G3",
                    "midi": 55,
                    "time": 68.59476249999966,
                    "velocity": 0.2440944881889764,
                    "duration": 0.16994197916666565
                },
                {
                    "name": "A#3",
                    "midi": 58,
                    "time": 68.59476249999966,
                    "velocity": 0.29133858267716534,
                    "duration": 0.16994197916666565
                },
                {
                    "name": "G#3",
                    "midi": 56,
                    "time": 68.78015374999966,
                    "velocity": 0.2677165354330709,
                    "duration": 0.16994197916666565
                },
                {
                    "name": "C4",
                    "midi": 60,
                    "time": 68.78015374999966,
                    "velocity": 0.2677165354330709,
                    "duration": 0.16994197916666565
                },
                {
                    "name": "G#3",
                    "midi": 56,
                    "time": 68.97635948958299,
                    "velocity": 0.2677165354330709,
                    "duration": 0.5561737499999708
                },
                {
                    "name": "C#4",
                    "midi": 61,
                    "time": 68.97635948958299,
                    "velocity": 0.31496062992125984,
                    "duration": 0.5561737499999708
                },
                {
                    "name": "G#5",
                    "midi": 80,
                    "time": 69.24363187499965,
                    "velocity": 0.2204724409448819,
                    "duration": 0.06952171874999635
                },
                {
                    "name": "C#6",
                    "midi": 85,
                    "time": 69.24363187499965,
                    "velocity": 0.2204724409448819,
                    "duration": 0.06952171874999635
                },
                {
                    "name": "G#6",
                    "midi": 92,
                    "time": 69.24363187499965,
                    "velocity": 0.2677165354330709,
                    "duration": 0.06952171874999635
                },
                {
                    "name": "A#5",
                    "midi": 82,
                    "time": 69.33632749999964,
                    "velocity": 0.1889763779527559,
                    "duration": 0.06952171874999635
                },
                {
                    "name": "C#6",
                    "midi": 85,
                    "time": 69.33632749999964,
                    "velocity": 0.1889763779527559,
                    "duration": 0.06952171874999635
                },
                {
                    "name": "G6",
                    "midi": 91,
                    "time": 69.33632749999964,
                    "velocity": 0.2283464566929134,
                    "duration": 0.06952171874999635
                },
                {
                    "name": "G#5",
                    "midi": 80,
                    "time": 69.42902312499963,
                    "velocity": 0.18110236220472442,
                    "duration": 0.06952171874999635
                },
                {
                    "name": "C#6",
                    "midi": 85,
                    "time": 69.42902312499963,
                    "velocity": 0.18110236220472442,
                    "duration": 0.06952171874999635
                },
                {
                    "name": "F6",
                    "midi": 89,
                    "time": 69.42902312499963,
                    "velocity": 0.2204724409448819,
                    "duration": 0.06952171874999635
                },
                {
                    "name": "G#5",
                    "midi": 80,
                    "time": 69.52171874999962,
                    "velocity": 0.2204724409448819,
                    "duration": 0.06952171875001056
                },
                {
                    "name": "C#6",
                    "midi": 85,
                    "time": 69.52171874999962,
                    "velocity": 0.2204724409448819,
                    "duration": 0.06952171875001056
                },
                {
                    "name": "F6",
                    "midi": 89,
                    "time": 69.52171874999962,
                    "velocity": 0.2677165354330709,
                    "duration": 0.06952171875001056
                },
                {
                    "name": "G5",
                    "midi": 79,
                    "time": 69.61441437499963,
                    "velocity": 0.2204724409448819,
                    "duration": 0.06952171874999635
                },
                {
                    "name": "D#6",
                    "midi": 87,
                    "time": 69.61441437499963,
                    "velocity": 0.23622047244094488,
                    "duration": 0.06952171874999635
                },
                {
                    "name": "G5",
                    "midi": 79,
                    "time": 69.70710999999962,
                    "velocity": 0.1968503937007874,
                    "duration": 0.06952171874999635
                },
                {
                    "name": "C#6",
                    "midi": 85,
                    "time": 69.70710999999962,
                    "velocity": 0.1968503937007874,
                    "duration": 0.06952171874999635
                },
                {
                    "name": "D#6",
                    "midi": 87,
                    "time": 69.70710999999962,
                    "velocity": 0.23622047244094488,
                    "duration": 0.06952171874999635
                },
                {
                    "name": "G#5",
                    "midi": 80,
                    "time": 69.7998056249996,
                    "velocity": 0.2204724409448819,
                    "duration": 0.06952171874999635
                },
                {
                    "name": "C#6",
                    "midi": 85,
                    "time": 69.7998056249996,
                    "velocity": 0.2204724409448819,
                    "duration": 0.06952171874999635
                },
                {
                    "name": "G#6",
                    "midi": 92,
                    "time": 69.7998056249996,
                    "velocity": 0.2677165354330709,
                    "duration": 0.06952171874999635
                },
                {
                    "name": "A#5",
                    "midi": 82,
                    "time": 69.8925012499996,
                    "velocity": 0.1732283464566929,
                    "duration": 0.06952171874999635
                },
                {
                    "name": "C#6",
                    "midi": 85,
                    "time": 69.8925012499996,
                    "velocity": 0.1732283464566929,
                    "duration": 0.06952171874999635
                },
                {
                    "name": "G6",
                    "midi": 91,
                    "time": 69.8925012499996,
                    "velocity": 0.2125984251968504,
                    "duration": 0.06952171874999635
                },
                {
                    "name": "G#5",
                    "midi": 80,
                    "time": 69.98519687499959,
                    "velocity": 0.1732283464566929,
                    "duration": 0.06952171874999635
                },
                {
                    "name": "C#6",
                    "midi": 85,
                    "time": 69.98519687499959,
                    "velocity": 0.1732283464566929,
                    "duration": 0.06952171874999635
                },
                {
                    "name": "F6",
                    "midi": 89,
                    "time": 69.98519687499959,
                    "velocity": 0.2125984251968504,
                    "duration": 0.06952171874999635
                },
                {
                    "name": "G#5",
                    "midi": 80,
                    "time": 70.07789249999958,
                    "velocity": 0.2204724409448819,
                    "duration": 0.06952171874999635
                },
                {
                    "name": "C#6",
                    "midi": 85,
                    "time": 70.07789249999958,
                    "velocity": 0.2204724409448819,
                    "duration": 0.06952171874999635
                },
                {
                    "name": "F6",
                    "midi": 89,
                    "time": 70.07789249999958,
                    "velocity": 0.2677165354330709,
                    "duration": 0.06952171874999635
                },
                {
                    "name": "G5",
                    "midi": 79,
                    "time": 70.17058812499957,
                    "velocity": 0.23622047244094488,
                    "duration": 0.06952171874999635
                },
                {
                    "name": "D#6",
                    "midi": 87,
                    "time": 70.17058812499957,
                    "velocity": 0.2677165354330709,
                    "duration": 0.06952171874999635
                },
                {
                    "name": "G5",
                    "midi": 79,
                    "time": 70.26328374999956,
                    "velocity": 0.1968503937007874,
                    "duration": 0.06952171874999635
                },
                {
                    "name": "C#6",
                    "midi": 85,
                    "time": 70.26328374999956,
                    "velocity": 0.1968503937007874,
                    "duration": 0.06952171874999635
                },
                {
                    "name": "D#6",
                    "midi": 87,
                    "time": 70.26328374999956,
                    "velocity": 0.23622047244094488,
                    "duration": 0.06952171874999635
                },
                {
                    "name": "G#3",
                    "midi": 56,
                    "time": 70.63406624999955,
                    "velocity": 0.2677165354330709,
                    "duration": 0.3398839583333313
                },
                {
                    "name": "C4",
                    "midi": 60,
                    "time": 70.63406624999955,
                    "velocity": 0.31496062992125984,
                    "duration": 0.3398839583333313
                },
                {
                    "name": "G3",
                    "midi": 55,
                    "time": 71.00484874999955,
                    "velocity": 0.2440944881889764,
                    "duration": 0.16994197916666565
                },
                {
                    "name": "A#3",
                    "midi": 58,
                    "time": 71.00484874999955,
                    "velocity": 0.29133858267716534,
                    "duration": 0.16994197916666565
                },
                {
                    "name": "G#3",
                    "midi": 56,
                    "time": 71.19023999999955,
                    "velocity": 0.2677165354330709,
                    "duration": 0.16994197916666565
                },
                {
                    "name": "C4",
                    "midi": 60,
                    "time": 71.19023999999955,
                    "velocity": 0.2677165354330709,
                    "duration": 0.16994197916666565
                },
                {
                    "name": "A#3",
                    "midi": 58,
                    "time": 71.37563124999954,
                    "velocity": 0.2677165354330709,
                    "duration": 0.5561737499999708
                },
                {
                    "name": "D#4",
                    "midi": 63,
                    "time": 71.37563124999954,
                    "velocity": 0.31496062992125984,
                    "duration": 0.5561737499999708
                },
                {
                    "name": "A#5",
                    "midi": 82,
                    "time": 71.65371812499954,
                    "velocity": 0.2204724409448819,
                    "duration": 0.06952171874999635
                },
                {
                    "name": "D#6",
                    "midi": 87,
                    "time": 71.65371812499954,
                    "velocity": 0.2204724409448819,
                    "duration": 0.06952171874999635
                },
                {
                    "name": "A#6",
                    "midi": 94,
                    "time": 71.65371812499954,
                    "velocity": 0.2677165354330709,
                    "duration": 0.06952171874999635
                },
                {
                    "name": "C6",
                    "midi": 84,
                    "time": 71.74641374999953,
                    "velocity": 0.1889763779527559,
                    "duration": 0.06952171874999635
                },
                {
                    "name": "D#6",
                    "midi": 87,
                    "time": 71.74641374999953,
                    "velocity": 0.1889763779527559,
                    "duration": 0.06952171874999635
                },
                {
                    "name": "A6",
                    "midi": 93,
                    "time": 71.74641374999953,
                    "velocity": 0.2283464566929134,
                    "duration": 0.06952171874999635
                },
                {
                    "name": "A#5",
                    "midi": 82,
                    "time": 71.83910937499952,
                    "velocity": 0.18110236220472442,
                    "duration": 0.06952171874999635
                },
                {
                    "name": "D#6",
                    "midi": 87,
                    "time": 71.83910937499952,
                    "velocity": 0.18110236220472442,
                    "duration": 0.06952171874999635
                },
                {
                    "name": "G6",
                    "midi": 91,
                    "time": 71.83910937499952,
                    "velocity": 0.2204724409448819,
                    "duration": 0.06952171874999635
                },
                {
                    "name": "A#5",
                    "midi": 82,
                    "time": 71.93180499999951,
                    "velocity": 0.2204724409448819,
                    "duration": 0.06952171874999635
                },
                {
                    "name": "D#6",
                    "midi": 87,
                    "time": 71.93180499999951,
                    "velocity": 0.2204724409448819,
                    "duration": 0.06952171874999635
                },
                {
                    "name": "G6",
                    "midi": 91,
                    "time": 71.93180499999951,
                    "velocity": 0.2677165354330709,
                    "duration": 0.06952171874999635
                },
                {
                    "name": "A5",
                    "midi": 81,
                    "time": 72.0245006249995,
                    "velocity": 0.2204724409448819,
                    "duration": 0.06952171874999635
                },
                {
                    "name": "F6",
                    "midi": 89,
                    "time": 72.0245006249995,
                    "velocity": 0.23622047244094488,
                    "duration": 0.06952171874999635
                },
                {
                    "name": "A5",
                    "midi": 81,
                    "time": 72.1171962499995,
                    "velocity": 0.1968503937007874,
                    "duration": 0.06952171874999635
                },
                {
                    "name": "D#6",
                    "midi": 87,
                    "time": 72.1171962499995,
                    "velocity": 0.1968503937007874,
                    "duration": 0.06952171874999635
                },
                {
                    "name": "F6",
                    "midi": 89,
                    "time": 72.1171962499995,
                    "velocity": 0.23622047244094488,
                    "duration": 0.06952171874999635
                },
                {
                    "name": "A#5",
                    "midi": 82,
                    "time": 72.20989187499949,
                    "velocity": 0.2204724409448819,
                    "duration": 0.06952171874999635
                },
                {
                    "name": "D#6",
                    "midi": 87,
                    "time": 72.20989187499949,
                    "velocity": 0.2204724409448819,
                    "duration": 0.06952171874999635
                },
                {
                    "name": "A#6",
                    "midi": 94,
                    "time": 72.20989187499949,
                    "velocity": 0.2677165354330709,
                    "duration": 0.06952171874999635
                },
                {
                    "name": "C6",
                    "midi": 84,
                    "time": 72.30258749999948,
                    "velocity": 0.1732283464566929,
                    "duration": 0.06952171874999635
                },
                {
                    "name": "D#6",
                    "midi": 87,
                    "time": 72.30258749999948,
                    "velocity": 0.1732283464566929,
                    "duration": 0.06952171874999635
                },
                {
                    "name": "A6",
                    "midi": 93,
                    "time": 72.30258749999948,
                    "velocity": 0.2125984251968504,
                    "duration": 0.06952171874999635
                },
                {
                    "name": "A#5",
                    "midi": 82,
                    "time": 72.39528312499947,
                    "velocity": 0.1732283464566929,
                    "duration": 0.06952171874999635
                },
                {
                    "name": "D#6",
                    "midi": 87,
                    "time": 72.39528312499947,
                    "velocity": 0.1732283464566929,
                    "duration": 0.06952171874999635
                },
                {
                    "name": "G6",
                    "midi": 91,
                    "time": 72.39528312499947,
                    "velocity": 0.2125984251968504,
                    "duration": 0.06952171874999635
                },
                {
                    "name": "A#5",
                    "midi": 82,
                    "time": 72.48797874999946,
                    "velocity": 0.2204724409448819,
                    "duration": 0.06952171874999635
                },
                {
                    "name": "D#6",
                    "midi": 87,
                    "time": 72.48797874999946,
                    "velocity": 0.2204724409448819,
                    "duration": 0.06952171874999635
                },
                {
                    "name": "G6",
                    "midi": 91,
                    "time": 72.48797874999946,
                    "velocity": 0.2677165354330709,
                    "duration": 0.06952171874999635
                },
                {
                    "name": "A5",
                    "midi": 81,
                    "time": 72.58067437499945,
                    "velocity": 0.23622047244094488,
                    "duration": 0.06952171874999635
                },
                {
                    "name": "F6",
                    "midi": 89,
                    "time": 72.58067437499945,
                    "velocity": 0.2677165354330709,
                    "duration": 0.06952171874999635
                },
                {
                    "name": "A5",
                    "midi": 81,
                    "time": 72.67336999999944,
                    "velocity": 0.1968503937007874,
                    "duration": 0.06952171874999635
                },
                {
                    "name": "D#6",
                    "midi": 87,
                    "time": 72.67336999999944,
                    "velocity": 0.1968503937007874,
                    "duration": 0.06952171874999635
                },
                {
                    "name": "F6",
                    "midi": 89,
                    "time": 72.67336999999944,
                    "velocity": 0.23622047244094488,
                    "duration": 0.06952171874999635
                },
                {
                    "name": "F4",
                    "midi": 65,
                    "time": 73.04415249999943,
                    "velocity": 0.30708661417322836,
                    "duration": 0.7415649999999943
                },
                {
                    "name": "D5",
                    "midi": 74,
                    "time": 73.04415249999943,
                    "velocity": 0.3700787401574803,
                    "duration": 0.7415649999999943
                },
                {
                    "name": "G5",
                    "midi": 79,
                    "time": 73.78571749999942,
                    "velocity": 0.4015748031496063,
                    "duration": 0.37078250000000423
                },
                {
                    "name": "G4",
                    "midi": 67,
                    "time": 73.78571749999942,
                    "velocity": 0.3228346456692913,
                    "duration": 0.37078250000000423
                },
                {
                    "name": "F5",
                    "midi": 77,
                    "time": 74.15649999999943,
                    "velocity": 0.3937007874015748,
                    "duration": 0.37078250000000423
                },
                {
                    "name": "A#4",
                    "midi": 70,
                    "time": 74.15649999999943,
                    "velocity": 0.3858267716535433,
                    "duration": 0.03089854166667294
                },
                {
                    "name": "C5",
                    "midi": 72,
                    "time": 74.1873985416661,
                    "velocity": 0.3543307086614173,
                    "duration": 0.03089854166667294
                },
                {
                    "name": "A#4",
                    "midi": 70,
                    "time": 74.21829708333277,
                    "velocity": 0.4015748031496063,
                    "duration": 0.06179708333333167
                },
                {
                    "name": "A4",
                    "midi": 69,
                    "time": 74.2800941666661,
                    "velocity": 0.3228346456692913,
                    "duration": 0.12359416666666334
                },
                {
                    "name": "A#4",
                    "midi": 70,
                    "time": 74.40368833333277,
                    "velocity": 0.30708661417322836,
                    "duration": 0.12359416666666334
                },
                {
                    "name": "C5",
                    "midi": 72,
                    "time": 74.52728249999943,
                    "velocity": 0.3858267716535433,
                    "duration": 0.03089854166667294
                },
                {
                    "name": "D#5",
                    "midi": 75,
                    "time": 74.52728249999943,
                    "velocity": 0.4015748031496063,
                    "duration": 0.37078250000000423
                },
                {
                    "name": "D5",
                    "midi": 74,
                    "time": 74.5581810416661,
                    "velocity": 0.3543307086614173,
                    "duration": 0.03089854166667294
                },
                {
                    "name": "C5",
                    "midi": 72,
                    "time": 74.58907958333278,
                    "velocity": 0.4015748031496063,
                    "duration": 0.06179708333333167
                },
                {
                    "name": "B4",
                    "midi": 71,
                    "time": 74.65087666666611,
                    "velocity": 0.33070866141732286,
                    "duration": 0.12359416666666334
                },
                {
                    "name": "A#4",
                    "midi": 70,
                    "time": 74.77447083333277,
                    "velocity": 0.33070866141732286,
                    "duration": 0.12359416666666334
                },
                {
                    "name": "D5",
                    "midi": 74,
                    "time": 74.89806499999943,
                    "velocity": 0.3937007874015748,
                    "duration": 0.37078250000000423
                },
                {
                    "name": "G#4",
                    "midi": 68,
                    "time": 74.89806499999943,
                    "velocity": 0.3858267716535433,
                    "duration": 0.03089854166667294
                },
                {
                    "name": "A#4",
                    "midi": 70,
                    "time": 74.9289635416661,
                    "velocity": 0.3543307086614173,
                    "duration": 0.03089854166667294
                },
                {
                    "name": "G#4",
                    "midi": 68,
                    "time": 74.95986208333278,
                    "velocity": 0.4015748031496063,
                    "duration": 0.06179708333333167
                },
                {
                    "name": "G4",
                    "midi": 67,
                    "time": 75.02165916666611,
                    "velocity": 0.33070866141732286,
                    "duration": 0.12359416666666334
                },
                {
                    "name": "F4",
                    "midi": 65,
                    "time": 75.14525333333278,
                    "velocity": 0.3543307086614173,
                    "duration": 0.12359416666666334
                },
                {
                    "name": "D#4",
                    "midi": 63,
                    "time": 75.26884749999944,
                    "velocity": 0.3858267716535433,
                    "duration": 0.03089854166667294
                },
                {
                    "name": "C5",
                    "midi": 72,
                    "time": 75.26884749999944,
                    "velocity": 0.3700787401574803,
                    "duration": 1.853912500000007
                },
                {
                    "name": "F4",
                    "midi": 65,
                    "time": 75.29974604166611,
                    "velocity": 0.3543307086614173,
                    "duration": 0.03089854166667294
                },
                {
                    "name": "D#4",
                    "midi": 63,
                    "time": 75.33064458333278,
                    "velocity": 0.4015748031496063,
                    "duration": 0.06179708333333167
                },
                {
                    "name": "D4",
                    "midi": 62,
                    "time": 75.39244166666612,
                    "velocity": 0.33070866141732286,
                    "duration": 0.12359416666666334
                },
                {
                    "name": "C4",
                    "midi": 60,
                    "time": 75.51603583333278,
                    "velocity": 0.33070866141732286,
                    "duration": 1.606724166666666
                },
                {
                    "name": "G5",
                    "midi": 79,
                    "time": 77.12275999999945,
                    "velocity": 0.6377952755905512,
                    "duration": 0.24718833333332668
                },
                {
                    "name": "F4",
                    "midi": 65,
                    "time": 77.24635416666611,
                    "velocity": 0.47244094488188976,
                    "duration": 0.12359416666666334
                },
                {
                    "name": "B4",
                    "midi": 71,
                    "time": 77.24635416666611,
                    "velocity": 0.47244094488188976,
                    "duration": 0.12359416666666334
                },
                {
                    "name": "F5",
                    "midi": 77,
                    "time": 77.36994833333277,
                    "velocity": 0.49606299212598426,
                    "duration": 0.12359416666666334
                },
                {
                    "name": "E5",
                    "midi": 76,
                    "time": 77.49354249999944,
                    "velocity": 0.5905511811023622,
                    "duration": 0.37078249999999
                },
                {
                    "name": "G4",
                    "midi": 67,
                    "time": 77.6171366666661,
                    "velocity": 0.3937007874015748,
                    "duration": 0.12359416666666334
                },
                {
                    "name": "C5",
                    "midi": 72,
                    "time": 77.6171366666661,
                    "velocity": 0.3937007874015748,
                    "duration": 0.12359416666666334
                },
                {
                    "name": "E4",
                    "midi": 64,
                    "time": 77.74073083333276,
                    "velocity": 0.3937007874015748,
                    "duration": 0.12359416666666334
                },
                {
                    "name": "D5",
                    "midi": 74,
                    "time": 77.86432499999943,
                    "velocity": 0.5590551181102362,
                    "duration": 0.37078249999999
                },
                {
                    "name": "G4",
                    "midi": 67,
                    "time": 77.98791916666609,
                    "velocity": 0.3937007874015748,
                    "duration": 0.12359416666666334
                },
                {
                    "name": "B4",
                    "midi": 71,
                    "time": 77.98791916666609,
                    "velocity": 0.3937007874015748,
                    "duration": 0.12359416666666334
                },
                {
                    "name": "F4",
                    "midi": 65,
                    "time": 78.11151333333275,
                    "velocity": 0.3937007874015748,
                    "duration": 0.12359416666666334
                },
                {
                    "name": "C5",
                    "midi": 72,
                    "time": 78.23510749999942,
                    "velocity": 0.6062992125984252,
                    "duration": 0.37078249999999
                },
                {
                    "name": "G4",
                    "midi": 67,
                    "time": 78.35870166666608,
                    "velocity": 0.3937007874015748,
                    "duration": 0.12359416666666334
                },
                {
                    "name": "C4",
                    "midi": 60,
                    "time": 78.48229583333274,
                    "velocity": 0.3937007874015748,
                    "duration": 0.12359416666666334
                },
                {
                    "name": "A4",
                    "midi": 69,
                    "time": 78.6058899999994,
                    "velocity": 0.5669291338582677,
                    "duration": 0.37078249999999
                },
                {
                    "name": "E4",
                    "midi": 64,
                    "time": 78.72948416666607,
                    "velocity": 0.3937007874015748,
                    "duration": 0.12359416666666334
                },
                {
                    "name": "C4",
                    "midi": 60,
                    "time": 78.85307833333273,
                    "velocity": 0.3937007874015748,
                    "duration": 0.12359416666666334
                },
                {
                    "name": "G4",
                    "midi": 67,
                    "time": 78.9766724999994,
                    "velocity": 0.5984251968503937,
                    "duration": 0.24718833333332668
                },
                {
                    "name": "G3",
                    "midi": 55,
                    "time": 79.10026666666606,
                    "velocity": 0.3937007874015748,
                    "duration": 0.12359416666666334
                },
                {
                    "name": "D4",
                    "midi": 62,
                    "time": 79.10026666666606,
                    "velocity": 0.3937007874015748,
                    "duration": 0.12359416666666334
                },
                {
                    "name": "F4",
                    "midi": 65,
                    "time": 79.22386083333272,
                    "velocity": 0.5039370078740157,
                    "duration": 0.12359416666666334
                },
                {
                    "name": "E4",
                    "midi": 64,
                    "time": 79.34745499999939,
                    "velocity": 0.5354330708661418,
                    "duration": 0.37078249999999
                },
                {
                    "name": "C4",
                    "midi": 60,
                    "time": 79.47104916666605,
                    "velocity": 0.3937007874015748,
                    "duration": 0.12359416666666334
                },
                {
                    "name": "G3",
                    "midi": 55,
                    "time": 79.59464333333271,
                    "velocity": 0.3937007874015748,
                    "duration": 0.12359416666666334
                },
                {
                    "name": "D4",
                    "midi": 62,
                    "time": 79.71823749999938,
                    "velocity": 0.4645669291338583,
                    "duration": 0.6025215624999873
                },
                {
                    "name": "B3",
                    "midi": 59,
                    "time": 79.84183166666604,
                    "velocity": 0.3937007874015748,
                    "duration": 0.12359416666666334
                },
                {
                    "name": "G3",
                    "midi": 55,
                    "time": 79.9654258333327,
                    "velocity": 0.3937007874015748,
                    "duration": 0.12359416666666334
                },
                {
                    "name": "B3",
                    "midi": 59,
                    "time": 80.08901999999937,
                    "velocity": 0.3937007874015748,
                    "duration": 0.12359416666666334
                },
                {
                    "name": "G3",
                    "midi": 55,
                    "time": 80.21261416666603,
                    "velocity": 0.3937007874015748,
                    "duration": 0.12359416666666334
                },
                {
                    "name": "D4",
                    "midi": 62,
                    "time": 80.33620833333269,
                    "velocity": 0.4251968503937008,
                    "duration": 0.12359416666666334
                },
                {
                    "name": "E4",
                    "midi": 64,
                    "time": 80.45980249999936,
                    "velocity": 0.5118110236220472,
                    "duration": 0.37078249999999
                },
                {
                    "name": "C4",
                    "midi": 60,
                    "time": 80.58339666666602,
                    "velocity": 0.3937007874015748,
                    "duration": 0.12359416666666334
                },
                {
                    "name": "G3",
                    "midi": 55,
                    "time": 80.70699083333268,
                    "velocity": 0.3937007874015748,
                    "duration": 0.12359416666666334
                },
                {
                    "name": "G4",
                    "midi": 67,
                    "time": 80.83058499999935,
                    "velocity": 0.5511811023622047,
                    "duration": 0.37078249999999
                },
                {
                    "name": "E4",
                    "midi": 64,
                    "time": 80.95417916666601,
                    "velocity": 0.3937007874015748,
                    "duration": 0.12359416666666334
                },
                {
                    "name": "C4",
                    "midi": 60,
                    "time": 81.07777333333267,
                    "velocity": 0.3937007874015748,
                    "duration": 0.12359416666666334
                },
                {
                    "name": "F4",
                    "midi": 65,
                    "time": 81.20136749999934,
                    "velocity": 0.5905511811023622,
                    "duration": 0.24718833333332668
                },
                {
                    "name": "B3",
                    "midi": 59,
                    "time": 81.324961666666,
                    "velocity": 0.3937007874015748,
                    "duration": 0.12359416666666334
                },
                {
                    "name": "C4",
                    "midi": 60,
                    "time": 81.44855583333266,
                    "velocity": 0.3937007874015748,
                    "duration": 0.12359416666666334
                },
                {
                    "name": "E4",
                    "midi": 64,
                    "time": 81.44855583333266,
                    "velocity": 0.5118110236220472,
                    "duration": 0.12359416666666334
                },
                {
                    "name": "D4",
                    "midi": 62,
                    "time": 81.57214999999933,
                    "velocity": 0.5590551181102362,
                    "duration": 0.37078249999999
                },
                {
                    "name": "B3",
                    "midi": 59,
                    "time": 81.69574416666599,
                    "velocity": 0.3937007874015748,
                    "duration": 0.12359416666666334
                },
                {
                    "name": "G3",
                    "midi": 55,
                    "time": 81.81933833333265,
                    "velocity": 0.3937007874015748,
                    "duration": 0.12359416666666334
                },
                {
                    "name": "C4",
                    "midi": 60,
                    "time": 81.94293249999932,
                    "velocity": 0.5433070866141733,
                    "duration": 0.37078249999999
                },
                {
                    "name": "G3",
                    "midi": 55,
                    "time": 82.06652666666598,
                    "velocity": 0.3937007874015748,
                    "duration": 0.12359416666666334
                },
                {
                    "name": "E3",
                    "midi": 52,
                    "time": 82.19012083333264,
                    "velocity": 0.3937007874015748,
                    "duration": 0.12359416666666334
                },
                {
                    "name": "D4",
                    "midi": 62,
                    "time": 82.3137149999993,
                    "velocity": 0.5826771653543307,
                    "duration": 0.37078249999999
                },
                {
                    "name": "G3",
                    "midi": 55,
                    "time": 82.43730916666597,
                    "velocity": 0.3937007874015748,
                    "duration": 0.12359416666666334
                },
                {
                    "name": "B3",
                    "midi": 59,
                    "time": 82.43730916666597,
                    "velocity": 0.3937007874015748,
                    "duration": 0.12359416666666334
                },
                {
                    "name": "F3",
                    "midi": 53,
                    "time": 82.56090333333263,
                    "velocity": 0.3937007874015748,
                    "duration": 0.12359416666666334
                },
                {
                    "name": "E4",
                    "midi": 64,
                    "time": 82.6844974999993,
                    "velocity": 0.5984251968503937,
                    "duration": 0.37078249999999
                },
                {
                    "name": "G3",
                    "midi": 55,
                    "time": 82.80809166666596,
                    "velocity": 0.3937007874015748,
                    "duration": 0.12359416666666334
                },
                {
                    "name": "C4",
                    "midi": 60,
                    "time": 82.80809166666596,
                    "velocity": 0.3937007874015748,
                    "duration": 0.12359416666666334
                },
                {
                    "name": "E3",
                    "midi": 52,
                    "time": 82.93168583333262,
                    "velocity": 0.3937007874015748,
                    "duration": 0.12359416666666334
                },
                {
                    "name": "G5",
                    "midi": 79,
                    "time": 83.05527999999929,
                    "velocity": 0.6377952755905512,
                    "duration": 0.24718833333332668
                },
                {
                    "name": "F4",
                    "midi": 65,
                    "time": 83.17887416666595,
                    "velocity": 0.3937007874015748,
                    "duration": 0.12359416666666334
                },
                {
                    "name": "B4",
                    "midi": 71,
                    "time": 83.17887416666595,
                    "velocity": 0.47244094488188976,
                    "duration": 0.12359416666666334
                },
                {
                    "name": "F5",
                    "midi": 77,
                    "time": 83.30246833333261,
                    "velocity": 0.49606299212598426,
                    "duration": 0.12359416666666334
                },
                {
                    "name": "E5",
                    "midi": 76,
                    "time": 83.42606249999928,
                    "velocity": 0.5905511811023622,
                    "duration": 0.37078249999999
                },
                {
                    "name": "G4",
                    "midi": 67,
                    "time": 83.54965666666594,
                    "velocity": 0.3937007874015748,
                    "duration": 0.12359416666666334
                },
                {
                    "name": "C5",
                    "midi": 72,
                    "time": 83.54965666666594,
                    "velocity": 0.3937007874015748,
                    "duration": 0.12359416666666334
                },
                {
                    "name": "E4",
                    "midi": 64,
                    "time": 83.6732508333326,
                    "velocity": 0.3937007874015748,
                    "duration": 0.12359416666666334
                },
                {
                    "name": "D5",
                    "midi": 74,
                    "time": 83.79684499999927,
                    "velocity": 0.5590551181102362,
                    "duration": 0.37078249999999
                },
                {
                    "name": "G4",
                    "midi": 67,
                    "time": 83.92043916666593,
                    "velocity": 0.3937007874015748,
                    "duration": 0.12359416666666334
                },
                {
                    "name": "B4",
                    "midi": 71,
                    "time": 83.92043916666593,
                    "velocity": 0.3937007874015748,
                    "duration": 0.12359416666666334
                },
                {
                    "name": "F4",
                    "midi": 65,
                    "time": 84.04403333333259,
                    "velocity": 0.3937007874015748,
                    "duration": 0.12359416666666334
                },
                {
                    "name": "C5",
                    "midi": 72,
                    "time": 84.16762749999926,
                    "velocity": 0.6062992125984252,
                    "duration": 0.37078249999999
                },
                {
                    "name": "G4",
                    "midi": 67,
                    "time": 84.29122166666592,
                    "velocity": 0.3937007874015748,
                    "duration": 0.12359416666666334
                },
                {
                    "name": "C4",
                    "midi": 60,
                    "time": 84.41481583333258,
                    "velocity": 0.3937007874015748,
                    "duration": 0.12359416666666334
                },
                {
                    "name": "A4",
                    "midi": 69,
                    "time": 84.53840999999925,
                    "velocity": 0.5669291338582677,
                    "duration": 0.37078249999999
                },
                {
                    "name": "E4",
                    "midi": 64,
                    "time": 84.66200416666591,
                    "velocity": 0.3937007874015748,
                    "duration": 0.12359416666666334
                },
                {
                    "name": "C4",
                    "midi": 60,
                    "time": 84.78559833333257,
                    "velocity": 0.3937007874015748,
                    "duration": 0.12359416666666334
                },
                {
                    "name": "G4",
                    "midi": 67,
                    "time": 84.90919249999924,
                    "velocity": 0.5984251968503937,
                    "duration": 0.24718833333332668
                },
                {
                    "name": "G3",
                    "midi": 55,
                    "time": 85.0327866666659,
                    "velocity": 0.3937007874015748,
                    "duration": 0.12359416666666334
                },
                {
                    "name": "D4",
                    "midi": 62,
                    "time": 85.0327866666659,
                    "velocity": 0.3937007874015748,
                    "duration": 0.12359416666666334
                },
                {
                    "name": "F4",
                    "midi": 65,
                    "time": 85.15638083333256,
                    "velocity": 0.5039370078740157,
                    "duration": 0.12359416666666334
                },
                {
                    "name": "E4",
                    "midi": 64,
                    "time": 85.27997499999923,
                    "velocity": 0.5354330708661418,
                    "duration": 0.37078249999999
                },
                {
                    "name": "C4",
                    "midi": 60,
                    "time": 85.40356916666589,
                    "velocity": 0.3937007874015748,
                    "duration": 0.12359416666666334
                },
                {
                    "name": "G3",
                    "midi": 55,
                    "time": 85.52716333333255,
                    "velocity": 0.3937007874015748,
                    "duration": 0.12359416666666334
                },
                {
                    "name": "D4",
                    "midi": 62,
                    "time": 85.65075749999922,
                    "velocity": 0.4645669291338583,
                    "duration": 0.74156499999998
                },
                {
                    "name": "B3",
                    "midi": 59,
                    "time": 85.77435166666588,
                    "velocity": 0.33070866141732286,
                    "duration": 0.12359416666666334
                },
                {
                    "name": "G3",
                    "midi": 55,
                    "time": 85.89794583333254,
                    "velocity": 0.33858267716535434,
                    "duration": 0.12359416666666334
                },
                {
                    "name": "B3",
                    "midi": 59,
                    "time": 86.0215399999992,
                    "velocity": 0.3937007874015748,
                    "duration": 0.12359416666666334
                },
                {
                    "name": "G3",
                    "midi": 55,
                    "time": 86.14513416666587,
                    "velocity": 0.3937007874015748,
                    "duration": 0.12359416666666334
                },
                {
                    "name": "B3",
                    "midi": 59,
                    "time": 86.26872833333253,
                    "velocity": 0.30708661417322836,
                    "duration": 0.12359416666666334
                },
                {
                    "name": "C4",
                    "midi": 60,
                    "time": 86.3923224999992,
                    "velocity": 0.4330708661417323,
                    "duration": 0.74156499999998
                },
                {
                    "name": "G#3",
                    "midi": 56,
                    "time": 86.51591666666586,
                    "velocity": 0.2677165354330709,
                    "duration": 0.12359416666666334
                },
                {
                    "name": "D#3",
                    "midi": 51,
                    "time": 86.63951083333252,
                    "velocity": 0.2677165354330709,
                    "duration": 0.12359416666666334
                },
                {
                    "name": "G#3",
                    "midi": 56,
                    "time": 86.76310499999919,
                    "velocity": 0.30708661417322836,
                    "duration": 0.12359416666666334
                },
                {
                    "name": "D#3",
                    "midi": 51,
                    "time": 86.88669916666585,
                    "velocity": 0.25984251968503935,
                    "duration": 0.12359416666666334
                },
                {
                    "name": "G#3",
                    "midi": 56,
                    "time": 87.01029333333251,
                    "velocity": 0.25984251968503935,
                    "duration": 0.12359416666666334
                },
                {
                    "name": "F4",
                    "midi": 65,
                    "time": 87.13388749999918,
                    "velocity": 0.4330708661417323,
                    "duration": 0.74156499999998
                },
                {
                    "name": "A#3",
                    "midi": 58,
                    "time": 87.25748166666584,
                    "velocity": 0.2677165354330709,
                    "duration": 0.12359416666666334
                },
                {
                    "name": "G#3",
                    "midi": 56,
                    "time": 87.3810758333325,
                    "velocity": 0.2677165354330709,
                    "duration": 0.12359416666666334
                },
                {
                    "name": "A#3",
                    "midi": 58,
                    "time": 87.50466999999917,
                    "velocity": 0.30708661417322836,
                    "duration": 0.12359416666666334
                },
                {
                    "name": "G#3",
                    "midi": 56,
                    "time": 87.62826416666583,
                    "velocity": 0.25984251968503935,
                    "duration": 0.12359416666666334
                },
                {
                    "name": "A#3",
                    "midi": 58,
                    "time": 87.75185833333249,
                    "velocity": 0.25984251968503935,
                    "duration": 0.12359416666666334
                },
                {
                    "name": "D#4",
                    "midi": 63,
                    "time": 87.87545249999916,
                    "velocity": 0.4094488188976378,
                    "duration": 0.37078249999999
                },
                {
                    "name": "G#3",
                    "midi": 56,
                    "time": 87.99904666666582,
                    "velocity": 0.33070866141732286,
                    "duration": 0.12359416666666334
                },
                {
                    "name": "D#3",
                    "midi": 51,
                    "time": 88.12264083333248,
                    "velocity": 0.30708661417322836,
                    "duration": 0.12359416666666334
                },
                {
                    "name": "C#4",
                    "midi": 61,
                    "time": 88.24623499999915,
                    "velocity": 0.3858267716535433,
                    "duration": 0.37078249999999
                },
                {
                    "name": "G3",
                    "midi": 55,
                    "time": 88.36982916666581,
                    "velocity": 0.2992125984251969,
                    "duration": 0.12359416666666334
                },
                {
                    "name": "D#3",
                    "midi": 51,
                    "time": 88.49342333333247,
                    "velocity": 0.2992125984251969,
                    "duration": 0.12359416666666334
                },
                {
                    "name": "C4",
                    "midi": 60,
                    "time": 88.61701749999914,
                    "velocity": 0.36220472440944884,
                    "duration": 0.74156499999998
                },
                {
                    "name": "G3",
                    "midi": 55,
                    "time": 88.7406116666658,
                    "velocity": 0.2992125984251969,
                    "duration": 0.24718833333332668
                },
                {
                    "name": "D#3",
                    "midi": 51,
                    "time": 88.86420583333246,
                    "velocity": 0.2283464566929134,
                    "duration": 0.12359416666666334
                },
                {
                    "name": "F#3",
                    "midi": 54,
                    "time": 88.98779999999913,
                    "velocity": 0.31496062992125984,
                    "duration": 0.24718833333332668
                },
                {
                    "name": "D#3",
                    "midi": 51,
                    "time": 89.11139416666579,
                    "velocity": 0.2283464566929134,
                    "duration": 0.12359416666666334
                },
                {
                    "name": "F#3",
                    "midi": 54,
                    "time": 89.23498833333245,
                    "velocity": 0.3543307086614173,
                    "duration": 0.12359416666666334
                },
                {
                    "name": "C4",
                    "midi": 60,
                    "time": 89.35858249999912,
                    "velocity": 0.36220472440944884,
                    "duration": 0.37078249999999
                },
                {
                    "name": "G3",
                    "midi": 55,
                    "time": 89.48217666666578,
                    "velocity": 0.2992125984251969,
                    "duration": 0.12359416666666334
                },
                {
                    "name": "E3",
                    "midi": 52,
                    "time": 89.60577083333244,
                    "velocity": 0.2992125984251969,
                    "duration": 0.12359416666666334
                },
                {
                    "name": "B3",
                    "midi": 59,
                    "time": 89.7293649999991,
                    "velocity": 0.36220472440944884,
                    "duration": 0.24718833333332668
                },
                {
                    "name": "F3",
                    "midi": 53,
                    "time": 89.85295916666577,
                    "velocity": 0.31496062992125984,
                    "duration": 0.12359416666666334
                },
                {
                    "name": "C4",
                    "midi": 60,
                    "time": 89.97655333333243,
                    "velocity": 0.36220472440944884,
                    "duration": 0.12359416666666334
                },
                {
                    "name": "E3",
                    "midi": 52,
                    "time": 89.97655333333243,
                    "velocity": 0.36220472440944884,
                    "duration": 0.12359416666666334
                },
                {
                    "name": "D4",
                    "midi": 62,
                    "time": 90.1001474999991,
                    "velocity": 0.4015748031496063,
                    "duration": 0.7415649999999943
                },
                {
                    "name": "B3",
                    "midi": 59,
                    "time": 90.22374166666576,
                    "velocity": 0.31496062992125984,
                    "duration": 0.12359416666666334
                },
                {
                    "name": "A3",
                    "midi": 57,
                    "time": 90.34733583333242,
                    "velocity": 0.31496062992125984,
                    "duration": 0.12359416666666334
                },
                {
                    "name": "B3",
                    "midi": 59,
                    "time": 90.47092999999909,
                    "velocity": 0.31496062992125984,
                    "duration": 0.37078250000000423
                },
                {
                    "name": "C5",
                    "midi": 72,
                    "time": 90.84171249999909,
                    "velocity": 0.4409448818897638,
                    "duration": 0.37078249999999
                },
                {
                    "name": "G4",
                    "midi": 67,
                    "time": 90.96530666666575,
                    "velocity": 0.33858267716535434,
                    "duration": 0.12359416666666334
                },
                {
                    "name": "C4",
                    "midi": 60,
                    "time": 91.08890083333242,
                    "velocity": 0.3464566929133858,
                    "duration": 0.12359416666666334
                },
                {
                    "name": "B4",
                    "midi": 71,
                    "time": 91.21249499999908,
                    "velocity": 0.4251968503937008,
                    "duration": 0.24718833333332668
                },
                {
                    "name": "D4",
                    "midi": 62,
                    "time": 91.33608916666574,
                    "velocity": 0.23622047244094488,
                    "duration": 0.12359416666666334
                },
                {
                    "name": "G4",
                    "midi": 67,
                    "time": 91.33608916666574,
                    "velocity": 0.3228346456692913,
                    "duration": 0.12359416666666334
                },
                {
                    "name": "C5",
                    "midi": 72,
                    "time": 91.4596833333324,
                    "velocity": 0.3937007874015748,
                    "duration": 0.12359416666666334
                },
                {
                    "name": "C4",
                    "midi": 60,
                    "time": 91.4596833333324,
                    "velocity": 0.3937007874015748,
                    "duration": 0.12359416666666334
                },
                {
                    "name": "D5",
                    "midi": 74,
                    "time": 91.58327749999907,
                    "velocity": 0.4566929133858268,
                    "duration": 0.74156499999998
                },
                {
                    "name": "B4",
                    "midi": 71,
                    "time": 91.70687166666573,
                    "velocity": 0.3464566929133858,
                    "duration": 0.12359416666666334
                },
                {
                    "name": "G4",
                    "midi": 67,
                    "time": 91.8304658333324,
                    "velocity": 0.3464566929133858,
                    "duration": 0.12359416666666334
                },
                {
                    "name": "B4",
                    "midi": 71,
                    "time": 91.95405999999906,
                    "velocity": 0.4409448818897638,
                    "duration": 0.12359416666666334
                },
                {
                    "name": "G4",
                    "midi": 67,
                    "time": 92.07765416666572,
                    "velocity": 0.3858267716535433,
                    "duration": 0.12359416666666334
                },
                {
                    "name": "B4",
                    "midi": 71,
                    "time": 92.20124833333239,
                    "velocity": 0.4251968503937008,
                    "duration": 0.12359416666666334
                },
                {
                    "name": "E5",
                    "midi": 76,
                    "time": 92.32484249999905,
                    "velocity": 0.5196850393700787,
                    "duration": 0.74156499999998
                },
                {
                    "name": "C5",
                    "midi": 72,
                    "time": 92.44843666666571,
                    "velocity": 0.4251968503937008,
                    "duration": 0.12359416666666334
                },
                {
                    "name": "G4",
                    "midi": 67,
                    "time": 92.57203083333238,
                    "velocity": 0.3937007874015748,
                    "duration": 0.12359416666666334
                },
                {
                    "name": "C5",
                    "midi": 72,
                    "time": 92.69562499999904,
                    "velocity": 0.4409448818897638,
                    "duration": 0.12359416666666334
                },
                {
                    "name": "G4",
                    "midi": 67,
                    "time": 92.8192191666657,
                    "velocity": 0.4566929133858268,
                    "duration": 0.12359416666666334
                },
                {
                    "name": "C5",
                    "midi": 72,
                    "time": 92.94281333333237,
                    "velocity": 0.4881889763779528,
                    "duration": 0.12359416666666334
                },
                {
                    "name": "A5",
                    "midi": 81,
                    "time": 93.06640749999903,
                    "velocity": 0.5748031496062992,
                    "duration": 0.37078249999999
                },
                {
                    "name": "E5",
                    "midi": 76,
                    "time": 93.1900016666657,
                    "velocity": 0.4094488188976378,
                    "duration": 0.12359416666666334
                },
                {
                    "name": "C5",
                    "midi": 72,
                    "time": 93.31359583333236,
                    "velocity": 0.4094488188976378,
                    "duration": 0.12359416666666334
                },
                {
                    "name": "A5",
                    "midi": 81,
                    "time": 93.43718999999902,
                    "velocity": 0.5669291338582677,
                    "duration": 0.37078249999999
                },
                {
                    "name": "D5",
                    "midi": 74,
                    "time": 93.56078416666568,
                    "velocity": 0.41732283464566927,
                    "duration": 0.12359416666666334
                },
                {
                    "name": "A4",
                    "midi": 69,
                    "time": 93.68437833333235,
                    "velocity": 0.4251968503937008,
                    "duration": 0.12359416666666334
                },
                {
                    "name": "G5",
                    "midi": 79,
                    "time": 93.80797249999901,
                    "velocity": 0.5669291338582677,
                    "duration": 0.37078249999999
                },
                {
                    "name": "E5",
                    "midi": 76,
                    "time": 93.93156666666567,
                    "velocity": 0.4094488188976378,
                    "duration": 0.12359416666666334
                },
                {
                    "name": "C5",
                    "midi": 72,
                    "time": 93.93156666666567,
                    "velocity": 0.4094488188976378,
                    "duration": 0.12359416666666334
                },
                {
                    "name": "G4",
                    "midi": 67,
                    "time": 94.05516083333234,
                    "velocity": 0.4094488188976378,
                    "duration": 0.12359416666666334
                },
                {
                    "name": "F5",
                    "midi": 77,
                    "time": 94.178754999999,
                    "velocity": 0.5511811023622047,
                    "duration": 0.37078249999999
                },
                {
                    "name": "B4",
                    "midi": 71,
                    "time": 94.30234916666566,
                    "velocity": 0.4094488188976378,
                    "duration": 0.12359416666666334
                },
                {
                    "name": "G4",
                    "midi": 67,
                    "time": 94.42594333333233,
                    "velocity": 0.4094488188976378,
                    "duration": 0.12359416666666334
                },
                {
                    "name": "E5",
                    "midi": 76,
                    "time": 94.54953749999899,
                    "velocity": 0.5275590551181102,
                    "duration": 0.74156499999998
                },
                {
                    "name": "C5",
                    "midi": 72,
                    "time": 94.67313166666565,
                    "velocity": 0.4251968503937008,
                    "duration": 0.12359416666666334
                },
                {
                    "name": "F#4",
                    "midi": 66,
                    "time": 94.79672583333232,
                    "velocity": 0.4094488188976378,
                    "duration": 0.12359416666666334
                },
                {
                    "name": "G4",
                    "midi": 67,
                    "time": 94.92031999999898,
                    "velocity": 0.3858267716535433,
                    "duration": 0.12359416666666334
                },
                {
                    "name": "E4",
                    "midi": 64,
                    "time": 95.04391416666564,
                    "velocity": 0.36220472440944884,
                    "duration": 0.12359416666666334
                },
                {
                    "name": "C4",
                    "midi": 60,
                    "time": 95.16750833333231,
                    "velocity": 0.3464566929133858,
                    "duration": 0.12359416666666334
                },
                {
                    "name": "A3",
                    "midi": 57,
                    "time": 95.41469666666563,
                    "velocity": 0.29133858267716534,
                    "duration": 0.09269562500000461
                },
                {
                    "name": "C4",
                    "midi": 60,
                    "time": 95.41469666666563,
                    "velocity": 0.29133858267716534,
                    "duration": 0.09269562500000461
                },
                {
                    "name": "D4",
                    "midi": 62,
                    "time": 95.41469666666563,
                    "velocity": 0.3464566929133858,
                    "duration": 0.09269562500000461
                },
                {
                    "name": "A3",
                    "midi": 57,
                    "time": 95.53829083333231,
                    "velocity": 0.28346456692913385,
                    "duration": 0.09269562500000461
                },
                {
                    "name": "C4",
                    "midi": 60,
                    "time": 95.53829083333231,
                    "velocity": 0.28346456692913385,
                    "duration": 0.09269562500000461
                },
                {
                    "name": "D4",
                    "midi": 62,
                    "time": 95.53829083333231,
                    "velocity": 0.33858267716535434,
                    "duration": 0.09269562500000461
                },
                {
                    "name": "A3",
                    "midi": 57,
                    "time": 95.66188499999899,
                    "velocity": 0.33858267716535434,
                    "duration": 0.09269562500000461
                },
                {
                    "name": "C4",
                    "midi": 60,
                    "time": 95.66188499999899,
                    "velocity": 0.33858267716535434,
                    "duration": 0.09269562500000461
                },
                {
                    "name": "F4",
                    "midi": 65,
                    "time": 95.66188499999899,
                    "velocity": 0.4015748031496063,
                    "duration": 0.09269562500000461
                },
                {
                    "name": "A3",
                    "midi": 57,
                    "time": 95.78547916666567,
                    "velocity": 0.29133858267716534,
                    "duration": 0.09269562500000461
                },
                {
                    "name": "C4",
                    "midi": 60,
                    "time": 95.78547916666567,
                    "velocity": 0.3464566929133858,
                    "duration": 0.09269562500000461
                },
                {
                    "name": "C#4",
                    "midi": 61,
                    "time": 95.78547916666567,
                    "velocity": 0.29133858267716534,
                    "duration": 0.09269562500000461
                },
                {
                    "name": "A3",
                    "midi": 57,
                    "time": 95.90907333333234,
                    "velocity": 0.28346456692913385,
                    "duration": 0.09269562500000461
                },
                {
                    "name": "C4",
                    "midi": 60,
                    "time": 95.90907333333234,
                    "velocity": 0.28346456692913385,
                    "duration": 0.09269562500000461
                },
                {
                    "name": "D4",
                    "midi": 62,
                    "time": 95.90907333333234,
                    "velocity": 0.3464566929133858,
                    "duration": 0.09269562500000461
                },
                {
                    "name": "C4",
                    "midi": 60,
                    "time": 96.15626166666569,
                    "velocity": 0.33858267716535434,
                    "duration": 0.09269562500000461
                },
                {
                    "name": "D4",
                    "midi": 62,
                    "time": 96.15626166666569,
                    "velocity": 0.33858267716535434,
                    "duration": 0.09269562500000461
                },
                {
                    "name": "A4",
                    "midi": 69,
                    "time": 96.15626166666569,
                    "velocity": 0.4094488188976378,
                    "duration": 0.09269562500000461
                },
                {
                    "name": "C4",
                    "midi": 60,
                    "time": 96.27985583333236,
                    "velocity": 0.3464566929133858,
                    "duration": 0.09269562500000461
                },
                {
                    "name": "D4",
                    "midi": 62,
                    "time": 96.27985583333236,
                    "velocity": 0.3464566929133858,
                    "duration": 0.09269562500000461
                },
                {
                    "name": "A4",
                    "midi": 69,
                    "time": 96.27985583333236,
                    "velocity": 0.4094488188976378,
                    "duration": 0.09269562500000461
                },
                {
                    "name": "C4",
                    "midi": 60,
                    "time": 96.40344999999904,
                    "velocity": 0.4015748031496063,
                    "duration": 0.09269562500000461
                },
                {
                    "name": "D4",
                    "midi": 62,
                    "time": 96.40344999999904,
                    "velocity": 0.4015748031496063,
                    "duration": 0.09269562500000461
                },
                {
                    "name": "A4",
                    "midi": 69,
                    "time": 96.40344999999904,
                    "velocity": 0.48031496062992124,
                    "duration": 0.09269562500000461
                },
                {
                    "name": "C4",
                    "midi": 60,
                    "time": 96.52704416666572,
                    "velocity": 0.36220472440944884,
                    "duration": 0.09269562500000461
                },
                {
                    "name": "D4",
                    "midi": 62,
                    "time": 96.52704416666572,
                    "velocity": 0.36220472440944884,
                    "duration": 0.09269562500000461
                },
                {
                    "name": "G#4",
                    "midi": 68,
                    "time": 96.52704416666572,
                    "velocity": 0.4330708661417323,
                    "duration": 0.09269562500000461
                },
                {
                    "name": "C4",
                    "midi": 60,
                    "time": 96.6506383333324,
                    "velocity": 0.3700787401574803,
                    "duration": 0.09269562500000461
                },
                {
                    "name": "D4",
                    "midi": 62,
                    "time": 96.6506383333324,
                    "velocity": 0.3700787401574803,
                    "duration": 0.09269562500000461
                },
                {
                    "name": "A4",
                    "midi": 69,
                    "time": 96.6506383333324,
                    "velocity": 0.4409448818897638,
                    "duration": 0.09269562500000461
                },
                {
                    "name": "D4",
                    "midi": 62,
                    "time": 96.89782666666574,
                    "velocity": 0.4015748031496063,
                    "duration": 0.09269562500000461
                },
                {
                    "name": "F#4",
                    "midi": 66,
                    "time": 96.89782666666574,
                    "velocity": 0.4015748031496063,
                    "duration": 0.09269562500000461
                },
                {
                    "name": "C5",
                    "midi": 72,
                    "time": 96.89782666666574,
                    "velocity": 0.47244094488188976,
                    "duration": 0.09269562500000461
                },
                {
                    "name": "D4",
                    "midi": 62,
                    "time": 97.02142083333241,
                    "velocity": 0.4015748031496063,
                    "duration": 0.09269562500000461
                },
                {
                    "name": "F#4",
                    "midi": 66,
                    "time": 97.02142083333241,
                    "velocity": 0.4015748031496063,
                    "duration": 0.09269562500000461
                },
                {
                    "name": "C5",
                    "midi": 72,
                    "time": 97.02142083333241,
                    "velocity": 0.47244094488188976,
                    "duration": 0.09269562500000461
                },
                {
                    "name": "D4",
                    "midi": 62,
                    "time": 97.14501499999909,
                    "velocity": 0.4645669291338583,
                    "duration": 0.09269562500000461
                },
                {
                    "name": "F#4",
                    "midi": 66,
                    "time": 97.14501499999909,
                    "velocity": 0.4645669291338583,
                    "duration": 0.09269562500000461
                },
                {
                    "name": "C5",
                    "midi": 72,
                    "time": 97.14501499999909,
                    "velocity": 0.5511811023622047,
                    "duration": 0.09269562500000461
                },
                {
                    "name": "D4",
                    "midi": 62,
                    "time": 97.26860916666577,
                    "velocity": 0.4094488188976378,
                    "duration": 0.09269562500000461
                },
                {
                    "name": "F#4",
                    "midi": 66,
                    "time": 97.26860916666577,
                    "velocity": 0.4094488188976378,
                    "duration": 0.09269562500000461
                },
                {
                    "name": "B4",
                    "midi": 71,
                    "time": 97.26860916666577,
                    "velocity": 0.4881889763779528,
                    "duration": 0.09269562500000461
                },
                {
                    "name": "D4",
                    "midi": 62,
                    "time": 97.39220333333245,
                    "velocity": 0.41732283464566927,
                    "duration": 0.09269562500000461
                },
                {
                    "name": "F#4",
                    "midi": 66,
                    "time": 97.39220333333245,
                    "velocity": 0.41732283464566927,
                    "duration": 0.09269562500000461
                },
                {
                    "name": "C5",
                    "midi": 72,
                    "time": 97.39220333333245,
                    "velocity": 0.4881889763779528,
                    "duration": 0.09269562500000461
                },
                {
                    "name": "C5",
                    "midi": 72,
                    "time": 97.63939166666579,
                    "velocity": 0.4881889763779528,
                    "duration": 0.09269562500000461
                },
                {
                    "name": "D#5",
                    "midi": 75,
                    "time": 97.63939166666579,
                    "velocity": 0.4881889763779528,
                    "duration": 0.09269562500000461
                },
                {
                    "name": "F#5",
                    "midi": 78,
                    "time": 97.63939166666579,
                    "velocity": 0.5826771653543307,
                    "duration": 0.09269562500000461
                },
                {
                    "name": "C5",
                    "midi": 72,
                    "time": 97.76298583333246,
                    "velocity": 0.49606299212598426,
                    "duration": 0.09269562500000461
                },
                {
                    "name": "D#5",
                    "midi": 75,
                    "time": 97.76298583333246,
                    "velocity": 0.49606299212598426,
                    "duration": 0.09269562500000461
                },
                {
                    "name": "F#5",
                    "midi": 78,
                    "time": 97.76298583333246,
                    "velocity": 0.5905511811023622,
                    "duration": 0.09269562500000461
                },
                {
                    "name": "C5",
                    "midi": 72,
                    "time": 97.88657999999914,
                    "velocity": 0.5590551181102362,
                    "duration": 0.09269562500000461
                },
                {
                    "name": "D#5",
                    "midi": 75,
                    "time": 97.88657999999914,
                    "velocity": 0.5590551181102362,
                    "duration": 0.09269562500000461
                },
                {
                    "name": "F#5",
                    "midi": 78,
                    "time": 97.88657999999914,
                    "velocity": 0.6692913385826772,
                    "duration": 0.09269562500000461
                },
                {
                    "name": "C5",
                    "midi": 72,
                    "time": 98.01017416666582,
                    "velocity": 0.5118110236220472,
                    "duration": 0.09269562500000461
                },
                {
                    "name": "D#5",
                    "midi": 75,
                    "time": 98.01017416666582,
                    "velocity": 0.5118110236220472,
                    "duration": 0.09269562500000461
                },
                {
                    "name": "F5",
                    "midi": 77,
                    "time": 98.01017416666582,
                    "velocity": 0.6141732283464567,
                    "duration": 0.09269562500000461
                },
                {
                    "name": "C5",
                    "midi": 72,
                    "time": 98.1337683333325,
                    "velocity": 0.5196850393700787,
                    "duration": 0.07724635416666104
                },
                {
                    "name": "D#5",
                    "midi": 75,
                    "time": 98.1337683333325,
                    "velocity": 0.5196850393700787,
                    "duration": 0.07724635416666104
                },
                {
                    "name": "F#5",
                    "midi": 78,
                    "time": 98.1337683333325,
                    "velocity": 0.6220472440944882,
                    "duration": 0.07724635416666104
                },
                {
                    "name": "C5",
                    "midi": 72,
                    "time": 98.25736249999916,
                    "velocity": 0.6062992125984252,
                    "duration": 0.09269562500000461
                },
                {
                    "name": "E5",
                    "midi": 76,
                    "time": 98.25736249999916,
                    "velocity": 0.6062992125984252,
                    "duration": 0.09269562500000461
                },
                {
                    "name": "G5",
                    "midi": 79,
                    "time": 98.25736249999916,
                    "velocity": 0.7165354330708661,
                    "duration": 0.09269562500000461
                },
                {
                    "name": "C5",
                    "midi": 72,
                    "time": 98.38095666666584,
                    "velocity": 0.5354330708661418,
                    "duration": 0.09269562500000461
                },
                {
                    "name": "E5",
                    "midi": 76,
                    "time": 98.38095666666584,
                    "velocity": 0.6299212598425197,
                    "duration": 0.09269562500000461
                },
                {
                    "name": "G4",
                    "midi": 67,
                    "time": 98.50455083333252,
                    "velocity": 0.5354330708661418,
                    "duration": 0.09269562500000461
                },
                {
                    "name": "C5",
                    "midi": 72,
                    "time": 98.50455083333252,
                    "velocity": 0.6299212598425197,
                    "duration": 0.09269562500000461
                },
                {
                    "name": "E4",
                    "midi": 64,
                    "time": 98.6281449999992,
                    "velocity": 0.5984251968503937,
                    "duration": 0.09269562500000461
                },
                {
                    "name": "G4",
                    "midi": 67,
                    "time": 98.6281449999992,
                    "velocity": 0.7086614173228346,
                    "duration": 0.09269562500000461
                },
                {
                    "name": "C4",
                    "midi": 60,
                    "time": 98.75173916666587,
                    "velocity": 0.49606299212598426,
                    "duration": 0.09269562500000461
                },
                {
                    "name": "E4",
                    "midi": 64,
                    "time": 98.75173916666587,
                    "velocity": 0.5905511811023622,
                    "duration": 0.09269562500000461
                },
                {
                    "name": "A3",
                    "midi": 57,
                    "time": 98.87533333333255,
                    "velocity": 0.49606299212598426,
                    "duration": 0.09269562500000461
                },
                {
                    "name": "C4",
                    "midi": 60,
                    "time": 98.87533333333255,
                    "velocity": 0.5905511811023622,
                    "duration": 0.09269562500000461
                },
                {
                    "name": "G3",
                    "midi": 55,
                    "time": 98.99892749999923,
                    "velocity": 0.7007874015748031,
                    "duration": 0.7415649999999943
                },
                {
                    "name": "G4",
                    "midi": 67,
                    "time": 102.33596999999922,
                    "velocity": 0.2440944881889764,
                    "duration": 0.35224337500000047
                },
                {
                    "name": "C5",
                    "midi": 72,
                    "time": 102.33596999999922,
                    "velocity": 0.2440944881889764,
                    "duration": 0.35224337500000047
                },
                {
                    "name": "E5",
                    "midi": 76,
                    "time": 102.33596999999922,
                    "velocity": 0.29133858267716534,
                    "duration": 0.35224337500000047
                },
                {
                    "name": "F4",
                    "midi": 65,
                    "time": 102.70675249999923,
                    "velocity": 0.29133858267716534,
                    "duration": 0.35224337500000047
                },
                {
                    "name": "C5",
                    "midi": 72,
                    "time": 102.70675249999923,
                    "velocity": 0.29133858267716534,
                    "duration": 0.35224337500000047
                },
                {
                    "name": "E5",
                    "midi": 76,
                    "time": 102.70675249999923,
                    "velocity": 0.3464566929133858,
                    "duration": 0.35224337500000047
                },
                {
                    "name": "C5",
                    "midi": 72,
                    "time": 103.07753499999923,
                    "velocity": 0.29133858267716534,
                    "duration": 0.35224337500000047
                },
                {
                    "name": "E5",
                    "midi": 76,
                    "time": 103.07753499999923,
                    "velocity": 0.29133858267716534,
                    "duration": 0.35224337500000047
                },
                {
                    "name": "F5",
                    "midi": 77,
                    "time": 103.07753499999923,
                    "velocity": 0.3464566929133858,
                    "duration": 0.35224337500000047
                },
                {
                    "name": "A5",
                    "midi": 81,
                    "time": 103.44831749999923,
                    "velocity": 0.3464566929133858,
                    "duration": 0.35224337500000047
                },
                {
                    "name": "C5",
                    "midi": 72,
                    "time": 103.44831749999923,
                    "velocity": 0.29133858267716534,
                    "duration": 0.35224337500000047
                },
                {
                    "name": "E5",
                    "midi": 76,
                    "time": 103.44831749999923,
                    "velocity": 0.29133858267716534,
                    "duration": 0.35224337500000047
                },
                {
                    "name": "F4",
                    "midi": 65,
                    "time": 103.81909999999924,
                    "velocity": 0.2677165354330709,
                    "duration": 0.35224337500000047
                },
                {
                    "name": "C5",
                    "midi": 72,
                    "time": 103.81909999999924,
                    "velocity": 0.2677165354330709,
                    "duration": 0.35224337500000047
                },
                {
                    "name": "E5",
                    "midi": 76,
                    "time": 103.81909999999924,
                    "velocity": 0.3228346456692913,
                    "duration": 0.35224337500000047
                },
                {
                    "name": "F4",
                    "midi": 65,
                    "time": 104.18988249999924,
                    "velocity": 0.29133858267716534,
                    "duration": 0.37078250000000423
                },
                {
                    "name": "B4",
                    "midi": 71,
                    "time": 104.18988249999924,
                    "velocity": 0.29133858267716534,
                    "duration": 0.37078250000000423
                },
                {
                    "name": "D5",
                    "midi": 74,
                    "time": 104.18988249999924,
                    "velocity": 0.3464566929133858,
                    "duration": 0.37078250000000423
                },
                {
                    "name": "F4",
                    "midi": 65,
                    "time": 104.56066499999925,
                    "velocity": 0.2755905511811024,
                    "duration": 0.37078250000000423
                },
                {
                    "name": "B4",
                    "midi": 71,
                    "time": 104.56066499999925,
                    "velocity": 0.2755905511811024,
                    "duration": 0.37078250000000423
                },
                {
                    "name": "D5",
                    "midi": 74,
                    "time": 104.56066499999925,
                    "velocity": 0.33070866141732286,
                    "duration": 0.37078250000000423
                },
                {
                    "name": "F4",
                    "midi": 65,
                    "time": 105.30222999999926,
                    "velocity": 0.2440944881889764,
                    "duration": 0.35224337500000047
                },
                {
                    "name": "B4",
                    "midi": 71,
                    "time": 105.30222999999926,
                    "velocity": 0.2440944881889764,
                    "duration": 0.35224337500000047
                },
                {
                    "name": "D5",
                    "midi": 74,
                    "time": 105.30222999999926,
                    "velocity": 0.29133858267716534,
                    "duration": 0.35224337500000047
                },
                {
                    "name": "E4",
                    "midi": 64,
                    "time": 105.67301249999926,
                    "velocity": 0.29133858267716534,
                    "duration": 0.35224337500000047
                },
                {
                    "name": "B4",
                    "midi": 71,
                    "time": 105.67301249999926,
                    "velocity": 0.29133858267716534,
                    "duration": 0.35224337500000047
                },
                {
                    "name": "D5",
                    "midi": 74,
                    "time": 105.67301249999926,
                    "velocity": 0.3464566929133858,
                    "duration": 0.35224337500000047
                },
                {
                    "name": "B4",
                    "midi": 71,
                    "time": 106.04379499999926,
                    "velocity": 0.29133858267716534,
                    "duration": 0.35224337500000047
                },
                {
                    "name": "D5",
                    "midi": 74,
                    "time": 106.04379499999926,
                    "velocity": 0.29133858267716534,
                    "duration": 0.35224337500000047
                },
                {
                    "name": "E5",
                    "midi": 76,
                    "time": 106.04379499999926,
                    "velocity": 0.3464566929133858,
                    "duration": 0.35224337500000047
                },
                {
                    "name": "G5",
                    "midi": 79,
                    "time": 106.41457749999927,
                    "velocity": 0.3464566929133858,
                    "duration": 0.35224337500000047
                },
                {
                    "name": "B4",
                    "midi": 71,
                    "time": 106.41457749999927,
                    "velocity": 0.29133858267716534,
                    "duration": 0.35224337500000047
                },
                {
                    "name": "D5",
                    "midi": 74,
                    "time": 106.41457749999927,
                    "velocity": 0.29133858267716534,
                    "duration": 0.35224337500000047
                },
                {
                    "name": "E4",
                    "midi": 64,
                    "time": 106.78535999999927,
                    "velocity": 0.2677165354330709,
                    "duration": 0.35224337500000047
                },
                {
                    "name": "B4",
                    "midi": 71,
                    "time": 106.78535999999927,
                    "velocity": 0.2677165354330709,
                    "duration": 0.35224337500000047
                },
                {
                    "name": "D5",
                    "midi": 74,
                    "time": 106.78535999999927,
                    "velocity": 0.3228346456692913,
                    "duration": 0.35224337500000047
                },
                {
                    "name": "E4",
                    "midi": 64,
                    "time": 107.15614249999928,
                    "velocity": 0.29133858267716534,
                    "duration": 0.37078250000000423
                },
                {
                    "name": "A4",
                    "midi": 69,
                    "time": 107.15614249999928,
                    "velocity": 0.29133858267716534,
                    "duration": 0.37078250000000423
                },
                {
                    "name": "C5",
                    "midi": 72,
                    "time": 107.15614249999928,
                    "velocity": 0.3464566929133858,
                    "duration": 0.37078250000000423
                },
                {
                    "name": "E4",
                    "midi": 64,
                    "time": 107.52692499999928,
                    "velocity": 0.2755905511811024,
                    "duration": 0.37078250000000423
                },
                {
                    "name": "A4",
                    "midi": 69,
                    "time": 107.52692499999928,
                    "velocity": 0.2755905511811024,
                    "duration": 0.37078250000000423
                },
                {
                    "name": "C5",
                    "midi": 72,
                    "time": 107.52692499999928,
                    "velocity": 0.33070866141732286,
                    "duration": 0.37078250000000423
                },
                {
                    "name": "E4",
                    "midi": 64,
                    "time": 108.26848999999929,
                    "velocity": 0.2440944881889764,
                    "duration": 0.35224337500000047
                },
                {
                    "name": "A4",
                    "midi": 69,
                    "time": 108.26848999999929,
                    "velocity": 0.2440944881889764,
                    "duration": 0.35224337500000047
                },
                {
                    "name": "C5",
                    "midi": 72,
                    "time": 108.26848999999929,
                    "velocity": 0.29133858267716534,
                    "duration": 0.35224337500000047
                },
                {
                    "name": "D4",
                    "midi": 62,
                    "time": 108.6392724999993,
                    "velocity": 0.2440944881889764,
                    "duration": 0.35224337500000047
                },
                {
                    "name": "A4",
                    "midi": 69,
                    "time": 108.6392724999993,
                    "velocity": 0.29133858267716534,
                    "duration": 0.35224337500000047
                },
                {
                    "name": "C5",
                    "midi": 72,
                    "time": 108.6392724999993,
                    "velocity": 0.3464566929133858,
                    "duration": 0.35224337500000047
                },
                {
                    "name": "A4",
                    "midi": 69,
                    "time": 109.0100549999993,
                    "velocity": 0.29133858267716534,
                    "duration": 0.35224337500000047
                },
                {
                    "name": "C5",
                    "midi": 72,
                    "time": 109.0100549999993,
                    "velocity": 0.29133858267716534,
                    "duration": 0.35224337500000047
                },
                {
                    "name": "D5",
                    "midi": 74,
                    "time": 109.0100549999993,
                    "velocity": 0.3464566929133858,
                    "duration": 0.35224337500000047
                },
                {
                    "name": "F5",
                    "midi": 77,
                    "time": 109.3808374999993,
                    "velocity": 0.3464566929133858,
                    "duration": 0.35224337500000047
                },
                {
                    "name": "A4",
                    "midi": 69,
                    "time": 109.3808374999993,
                    "velocity": 0.29133858267716534,
                    "duration": 0.35224337500000047
                },
                {
                    "name": "C5",
                    "midi": 72,
                    "time": 109.3808374999993,
                    "velocity": 0.29133858267716534,
                    "duration": 0.35224337500000047
                },
                {
                    "name": "D4",
                    "midi": 62,
                    "time": 109.7516199999993,
                    "velocity": 0.2677165354330709,
                    "duration": 0.35224337500000047
                },
                {
                    "name": "A4",
                    "midi": 69,
                    "time": 109.7516199999993,
                    "velocity": 0.2677165354330709,
                    "duration": 0.35224337500000047
                },
                {
                    "name": "C5",
                    "midi": 72,
                    "time": 109.7516199999993,
                    "velocity": 0.3228346456692913,
                    "duration": 0.35224337500000047
                },
                {
                    "name": "D4",
                    "midi": 62,
                    "time": 110.12240249999931,
                    "velocity": 0.29133858267716534,
                    "duration": 0.37078250000000423
                },
                {
                    "name": "G4",
                    "midi": 67,
                    "time": 110.12240249999931,
                    "velocity": 0.29133858267716534,
                    "duration": 0.37078250000000423
                },
                {
                    "name": "B4",
                    "midi": 71,
                    "time": 110.12240249999931,
                    "velocity": 0.3464566929133858,
                    "duration": 0.37078250000000423
                },
                {
                    "name": "D4",
                    "midi": 62,
                    "time": 110.49318499999931,
                    "velocity": 0.2755905511811024,
                    "duration": 0.37078250000000423
                },
                {
                    "name": "G4",
                    "midi": 67,
                    "time": 110.49318499999931,
                    "velocity": 0.2755905511811024,
                    "duration": 0.37078250000000423
                },
                {
                    "name": "B4",
                    "midi": 71,
                    "time": 110.49318499999931,
                    "velocity": 0.33070866141732286,
                    "duration": 0.37078250000000423
                },
                {
                    "name": "G3",
                    "midi": 55,
                    "time": 111.23474999999932,
                    "velocity": 0.29133858267716534,
                    "duration": 0.35224337500000047
                },
                {
                    "name": "A#3",
                    "midi": 58,
                    "time": 111.60553249999933,
                    "velocity": 0.33858267716535434,
                    "duration": 1.483130000000017
                },
                {
                    "name": "E3",
                    "midi": 52,
                    "time": 111.60553249999933,
                    "velocity": 0.2440944881889764,
                    "duration": 0.35224337500000047
                },
                {
                    "name": "C4",
                    "midi": 60,
                    "time": 111.60553249999933,
                    "velocity": 0.3464566929133858,
                    "duration": 0.35224337500000047
                },
                {
                    "name": "F3",
                    "midi": 53,
                    "time": 111.97631499999933,
                    "velocity": 0.29133858267716534,
                    "duration": 0.35224337500000047
                },
                {
                    "name": "D4",
                    "midi": 62,
                    "time": 111.97631499999933,
                    "velocity": 0.3464566929133858,
                    "duration": 0.35224337500000047
                },
                {
                    "name": "E4",
                    "midi": 64,
                    "time": 112.34709749999934,
                    "velocity": 0.3464566929133858,
                    "duration": 0.35224337500000047
                },
                {
                    "name": "G3",
                    "midi": 55,
                    "time": 112.34709749999934,
                    "velocity": 0.29133858267716534,
                    "duration": 0.35224337500000047
                },
                {
                    "name": "E3",
                    "midi": 52,
                    "time": 112.71787999999934,
                    "velocity": 0.2677165354330709,
                    "duration": 0.35224337500000047
                },
                {
                    "name": "C4",
                    "midi": 60,
                    "time": 112.71787999999934,
                    "velocity": 0.3228346456692913,
                    "duration": 0.35224337500000047
                },
                {
                    "name": "A3",
                    "midi": 57,
                    "time": 113.08866249999934,
                    "velocity": 0.4015748031496063,
                    "duration": 0.35224337500000047
                },
                {
                    "name": "F4",
                    "midi": 65,
                    "time": 113.08866249999934,
                    "velocity": 0.3464566929133858,
                    "duration": 0.35224337500000047
                },
                {
                    "name": "A3",
                    "midi": 57,
                    "time": 113.45944499999935,
                    "velocity": 0.29133858267716534,
                    "duration": 1.1123475000000127
                },
                {
                    "name": "C4",
                    "midi": 60,
                    "time": 113.45944499999935,
                    "velocity": 0.29133858267716534,
                    "duration": 0.35224337500000047
                },
                {
                    "name": "G4",
                    "midi": 67,
                    "time": 113.45944499999935,
                    "velocity": 0.3464566929133858,
                    "duration": 0.35224337500000047
                },
                {
                    "name": "A4",
                    "midi": 69,
                    "time": 113.83022749999935,
                    "velocity": 0.3464566929133858,
                    "duration": 0.35224337500000047
                },
                {
                    "name": "F4",
                    "midi": 65,
                    "time": 113.83022749999935,
                    "velocity": 0.29133858267716534,
                    "duration": 0.35224337500000047
                },
                {
                    "name": "F3",
                    "midi": 53,
                    "time": 114.20100999999936,
                    "velocity": 0.3228346456692913,
                    "duration": 0.35224337500000047
                },
                {
                    "name": "G#3",
                    "midi": 56,
                    "time": 114.57179249999936,
                    "velocity": 0.33858267716535434,
                    "duration": 1.483130000000017
                },
                {
                    "name": "D3",
                    "midi": 50,
                    "time": 114.57179249999936,
                    "velocity": 0.2440944881889764,
                    "duration": 0.35224337500000047
                },
                {
                    "name": "B3",
                    "midi": 59,
                    "time": 114.57179249999936,
                    "velocity": 0.3464566929133858,
                    "duration": 0.35224337500000047
                },
                {
                    "name": "E3",
                    "midi": 52,
                    "time": 114.94257499999937,
                    "velocity": 0.29133858267716534,
                    "duration": 0.35224337500000047
                },
                {
                    "name": "C4",
                    "midi": 60,
                    "time": 114.94257499999937,
                    "velocity": 0.3464566929133858,
                    "duration": 0.35224337500000047
                },
                {
                    "name": "D4",
                    "midi": 62,
                    "time": 115.31335749999937,
                    "velocity": 0.3464566929133858,
                    "duration": 0.35224337500000047
                },
                {
                    "name": "F3",
                    "midi": 53,
                    "time": 115.31335749999937,
                    "velocity": 0.29133858267716534,
                    "duration": 0.35224337500000047
                },
                {
                    "name": "D3",
                    "midi": 50,
                    "time": 115.68413999999937,
                    "velocity": 0.2677165354330709,
                    "duration": 0.35224337500000047
                },
                {
                    "name": "B3",
                    "midi": 59,
                    "time": 115.68413999999937,
                    "velocity": 0.3228346456692913,
                    "duration": 0.35224337500000047
                },
                {
                    "name": "G3",
                    "midi": 55,
                    "time": 116.05492249999938,
                    "velocity": 0.2992125984251969,
                    "duration": 0.7261157291666649
                },
                {
                    "name": "E3",
                    "midi": 52,
                    "time": 116.05492249999938,
                    "velocity": 0.2992125984251969,
                    "duration": 0.7261157291666649
                },
                {
                    "name": "C4",
                    "midi": 60,
                    "time": 116.05492249999938,
                    "velocity": 0.3543307086614173,
                    "duration": 0.7261157291666649
                },
                {
                    "name": "C4",
                    "midi": 60,
                    "time": 116.79648749999937,
                    "velocity": 0.30708661417322836,
                    "duration": 2.2246949999999828
                },
                {
                    "name": "A#3",
                    "midi": 58,
                    "time": 116.79648749999937,
                    "velocity": 0.25984251968503935,
                    "duration": 0.7415649999999943
                },
                {
                    "name": "G3",
                    "midi": 55,
                    "time": 116.79648749999937,
                    "velocity": 0.25984251968503935,
                    "duration": 0.7415649999999943
                },
                {
                    "name": "F3",
                    "midi": 53,
                    "time": 117.53805249999937,
                    "velocity": 0.25196850393700787,
                    "duration": 0.7415649999999943
                },
                {
                    "name": "A3",
                    "midi": 57,
                    "time": 117.53805249999937,
                    "velocity": 0.2992125984251969,
                    "duration": 0.7415649999999943
                },
                {
                    "name": "F3",
                    "midi": 53,
                    "time": 118.27961749999936,
                    "velocity": 0.23622047244094488,
                    "duration": 0.7415649999999943
                },
                {
                    "name": "D3",
                    "midi": 50,
                    "time": 118.27961749999936,
                    "velocity": 0.1968503937007874,
                    "duration": 0.7415649999999943
                },
                {
                    "name": "E3",
                    "midi": 52,
                    "time": 119.02118249999936,
                    "velocity": 0.16535433070866143,
                    "duration": 1.1123474999999985
                },
                {
                    "name": "G3",
                    "midi": 55,
                    "time": 119.02118249999936,
                    "velocity": 0.16535433070866143,
                    "duration": 1.1123474999999985
                },
                {
                    "name": "C4",
                    "midi": 60,
                    "time": 119.02118249999936,
                    "velocity": 0.1968503937007874,
                    "duration": 1.1123474999999985
                }
            ],
            "controlChanges": {},
            "id": 1,
            "name": "Piano right",
            "instrumentNumber": 0,
            "instrument": "acoustic grand piano",
            "instrumentFamily": "piano",
            "channelNumber": 0,
            "isPercussion": false
        },
        {
            "startTime": 1.1123475,
            "duration": 120.13352999999988,
            "length": 660,
            "notes": [
                {
                    "name": "G3",
                    "midi": 55,
                    "time": 1.1123475,
                    "velocity": 0.3464566929133858,
                    "duration": 0.3707825
                },
                {
                    "name": "C4",
                    "midi": 60,
                    "time": 1.48313,
                    "velocity": 0.3937007874015748,
                    "duration": 0.3707825
                },
                {
                    "name": "D4",
                    "midi": 62,
                    "time": 1.8539125,
                    "velocity": 0.33858267716535434,
                    "duration": 0.3707825
                },
                {
                    "name": "D#4",
                    "midi": 63,
                    "time": 2.224695,
                    "velocity": 0.33858267716535434,
                    "duration": 0.37078250000000024
                },
                {
                    "name": "C4",
                    "midi": 60,
                    "time": 2.5954775000000003,
                    "velocity": 0.28346456692913385,
                    "duration": 0.3707824999999998
                },
                {
                    "name": "B3",
                    "midi": 59,
                    "time": 2.96626,
                    "velocity": 0.2992125984251969,
                    "duration": 0.38623177083333315
                },
                {
                    "name": "C4",
                    "midi": 60,
                    "time": 3.3370425,
                    "velocity": 0.2755905511811024,
                    "duration": 0.3862317708333336
                },
                {
                    "name": "D4",
                    "midi": 62,
                    "time": 3.707825,
                    "velocity": 0.2755905511811024,
                    "duration": 0.7261157291666671
                },
                {
                    "name": "C3",
                    "midi": 48,
                    "time": 4.44939,
                    "velocity": 0.2125984251968504,
                    "duration": 0.70448675
                },
                {
                    "name": "D#3",
                    "midi": 51,
                    "time": 4.44939,
                    "velocity": 0.25196850393700787,
                    "duration": 0.70448675
                },
                {
                    "name": "D#3",
                    "midi": 51,
                    "time": 5.190955000000001,
                    "velocity": 0.2125984251968504,
                    "duration": 0.70448675
                },
                {
                    "name": "G3",
                    "midi": 55,
                    "time": 5.190955000000001,
                    "velocity": 0.25196850393700787,
                    "duration": 0.70448675
                },
                {
                    "name": "G3",
                    "midi": 55,
                    "time": 5.932520000000001,
                    "velocity": 0.23622047244094488,
                    "duration": 0.3707824999999998
                },
                {
                    "name": "G2",
                    "midi": 43,
                    "time": 6.303302500000001,
                    "velocity": 0.16535433070866143,
                    "duration": 0.3707824999999998
                },
                {
                    "name": "F3",
                    "midi": 53,
                    "time": 6.303302500000001,
                    "velocity": 0.1968503937007874,
                    "duration": 0.3707824999999998
                },
                {
                    "name": "C3",
                    "midi": 48,
                    "time": 6.674085000000001,
                    "velocity": 0.1968503937007874,
                    "duration": 0.33988395833333307
                },
                {
                    "name": "D#3",
                    "midi": 51,
                    "time": 6.674085000000001,
                    "velocity": 0.23622047244094488,
                    "duration": 0.33988395833333307
                },
                {
                    "name": "G3",
                    "midi": 55,
                    "time": 7.0448675000000005,
                    "velocity": 0.3464566929133858,
                    "duration": 0.3707824999999998
                },
                {
                    "name": "C4",
                    "midi": 60,
                    "time": 7.41565,
                    "velocity": 0.3937007874015748,
                    "duration": 0.3707824999999998
                },
                {
                    "name": "D4",
                    "midi": 62,
                    "time": 7.7864325,
                    "velocity": 0.33858267716535434,
                    "duration": 0.3707825000000007
                },
                {
                    "name": "D#4",
                    "midi": 63,
                    "time": 8.157215,
                    "velocity": 0.33858267716535434,
                    "duration": 0.3707825000000007
                },
                {
                    "name": "C4",
                    "midi": 60,
                    "time": 8.527997500000001,
                    "velocity": 0.28346456692913385,
                    "duration": 0.3707825000000007
                },
                {
                    "name": "B3",
                    "midi": 59,
                    "time": 8.898780000000002,
                    "velocity": 0.2992125984251969,
                    "duration": 0.3862317708333336
                },
                {
                    "name": "C4",
                    "midi": 60,
                    "time": 9.269562500000003,
                    "velocity": 0.2755905511811024,
                    "duration": 0.3862317708333318
                },
                {
                    "name": "D4",
                    "midi": 62,
                    "time": 9.640345000000002,
                    "velocity": 0.2755905511811024,
                    "duration": 0.7261157291666667
                },
                {
                    "name": "C3",
                    "midi": 48,
                    "time": 10.381910000000001,
                    "velocity": 0.2125984251968504,
                    "duration": 0.7044867500000009
                },
                {
                    "name": "D#3",
                    "midi": 51,
                    "time": 10.381910000000001,
                    "velocity": 0.25196850393700787,
                    "duration": 0.7044867500000009
                },
                {
                    "name": "D#2",
                    "midi": 39,
                    "time": 11.123475000000003,
                    "velocity": 0.2125984251968504,
                    "duration": 0.7044867500000009
                },
                {
                    "name": "C3",
                    "midi": 48,
                    "time": 11.123475000000003,
                    "velocity": 0.25196850393700787,
                    "duration": 0.7044867500000009
                },
                {
                    "name": "G2",
                    "midi": 43,
                    "time": 11.865040000000004,
                    "velocity": 0.16535433070866143,
                    "duration": 0.35224337500000047
                },
                {
                    "name": "G3",
                    "midi": 55,
                    "time": 11.865040000000004,
                    "velocity": 0.23622047244094488,
                    "duration": 0.35996801041666693
                },
                {
                    "name": "G2",
                    "midi": 43,
                    "time": 12.235822500000005,
                    "velocity": 0.16535433070866143,
                    "duration": 0.3707825000000007
                },
                {
                    "name": "F3",
                    "midi": 53,
                    "time": 12.235822500000005,
                    "velocity": 0.1968503937007874,
                    "duration": 0.3707825000000007
                },
                {
                    "name": "C2",
                    "midi": 36,
                    "time": 12.606605000000005,
                    "velocity": 0.1968503937007874,
                    "duration": 0.7261157291666667
                },
                {
                    "name": "D#3",
                    "midi": 51,
                    "time": 12.606605000000005,
                    "velocity": 0.23622047244094488,
                    "duration": 0.7261157291666667
                },
                {
                    "name": "C3",
                    "midi": 48,
                    "time": 13.348170000000005,
                    "velocity": 0.2204724409448819,
                    "duration": 0.33988395833333307
                },
                {
                    "name": "D#3",
                    "midi": 51,
                    "time": 13.348170000000005,
                    "velocity": 0.2677165354330709,
                    "duration": 0.33988395833333307
                },
                {
                    "name": "D3",
                    "midi": 50,
                    "time": 13.718952500000004,
                    "velocity": 0.2047244094488189,
                    "duration": 0.16994197916666742
                },
                {
                    "name": "F3",
                    "midi": 53,
                    "time": 13.718952500000004,
                    "velocity": 0.2440944881889764,
                    "duration": 0.16994197916666742
                },
                {
                    "name": "C3",
                    "midi": 48,
                    "time": 13.904343750000004,
                    "velocity": 0.1889763779527559,
                    "duration": 0.16994197916666742
                },
                {
                    "name": "D#3",
                    "midi": 51,
                    "time": 13.904343750000004,
                    "velocity": 0.2283464566929134,
                    "duration": 0.16994197916666742
                },
                {
                    "name": "B2",
                    "midi": 47,
                    "time": 14.089735000000005,
                    "velocity": 0.2204724409448819,
                    "duration": 0.7415649999999996
                },
                {
                    "name": "D3",
                    "midi": 50,
                    "time": 14.089735000000005,
                    "velocity": 0.2677165354330709,
                    "duration": 0.7261157291666667
                },
                {
                    "name": "C3",
                    "midi": 48,
                    "time": 14.831300000000004,
                    "velocity": 0.2204724409448819,
                    "duration": 0.33988395833333307
                },
                {
                    "name": "D#3",
                    "midi": 51,
                    "time": 14.831300000000004,
                    "velocity": 0.2677165354330709,
                    "duration": 0.33988395833333307
                },
                {
                    "name": "D3",
                    "midi": 50,
                    "time": 15.202082500000003,
                    "velocity": 0.2047244094488189,
                    "duration": 0.16994197916666742
                },
                {
                    "name": "F3",
                    "midi": 53,
                    "time": 15.202082500000003,
                    "velocity": 0.2440944881889764,
                    "duration": 0.16994197916666742
                },
                {
                    "name": "C3",
                    "midi": 48,
                    "time": 15.387473750000003,
                    "velocity": 0.1889763779527559,
                    "duration": 0.16994197916666742
                },
                {
                    "name": "D#3",
                    "midi": 51,
                    "time": 15.387473750000003,
                    "velocity": 0.2283464566929134,
                    "duration": 0.16994197916666742
                },
                {
                    "name": "G2",
                    "midi": 43,
                    "time": 15.572865000000004,
                    "velocity": 0.2204724409448819,
                    "duration": 0.7415650000000014
                },
                {
                    "name": "D3",
                    "midi": 50,
                    "time": 15.572865000000004,
                    "velocity": 0.2677165354330709,
                    "duration": 0.7261157291666684
                },
                {
                    "name": "C3",
                    "midi": 48,
                    "time": 16.314430000000005,
                    "velocity": 0.2204724409448819,
                    "duration": 0.7183910937500002
                },
                {
                    "name": "D#3",
                    "midi": 51,
                    "time": 16.314430000000005,
                    "velocity": 0.2677165354330709,
                    "duration": 0.7183910937500002
                },
                {
                    "name": "D#2",
                    "midi": 39,
                    "time": 17.055995000000006,
                    "velocity": 0.23622047244094488,
                    "duration": 0.35224337500000047
                },
                {
                    "name": "A#2",
                    "midi": 46,
                    "time": 17.055995000000006,
                    "velocity": 0.23622047244094488,
                    "duration": 0.35224337500000047
                },
                {
                    "name": "D#3",
                    "midi": 51,
                    "time": 17.055995000000006,
                    "velocity": 0.28346456692913385,
                    "duration": 0.35224337500000047
                },
                {
                    "name": "D#2",
                    "midi": 39,
                    "time": 17.426777500000007,
                    "velocity": 0.23622047244094488,
                    "duration": 0.35224337500000047
                },
                {
                    "name": "A#2",
                    "midi": 46,
                    "time": 17.426777500000007,
                    "velocity": 0.23622047244094488,
                    "duration": 0.35224337500000047
                },
                {
                    "name": "D#3",
                    "midi": 51,
                    "time": 17.426777500000007,
                    "velocity": 0.28346456692913385,
                    "duration": 0.35224337500000047
                },
                {
                    "name": "G2",
                    "midi": 43,
                    "time": 17.797560000000008,
                    "velocity": 0.18110236220472442,
                    "duration": 0.35224337500000047
                },
                {
                    "name": "G3",
                    "midi": 55,
                    "time": 17.797560000000008,
                    "velocity": 0.25984251968503935,
                    "duration": 0.3599680104166687
                },
                {
                    "name": "G2",
                    "midi": 43,
                    "time": 18.16834250000001,
                    "velocity": 0.16535433070866143,
                    "duration": 0.3707825000000007
                },
                {
                    "name": "F3",
                    "midi": 53,
                    "time": 18.16834250000001,
                    "velocity": 0.1968503937007874,
                    "duration": 0.3707825000000007
                },
                {
                    "name": "C2",
                    "midi": 36,
                    "time": 18.53912500000001,
                    "velocity": 0.1968503937007874,
                    "duration": 0.7261157291666684
                },
                {
                    "name": "D#3",
                    "midi": 51,
                    "time": 18.53912500000001,
                    "velocity": 0.23622047244094488,
                    "duration": 0.7261157291666684
                },
                {
                    "name": "G2",
                    "midi": 43,
                    "time": 18.90990750000001,
                    "velocity": 0.2755905511811024,
                    "duration": 0.3707825000000007
                },
                {
                    "name": "C3",
                    "midi": 48,
                    "time": 19.28069000000001,
                    "velocity": 0.31496062992125984,
                    "duration": 0.3707825000000007
                },
                {
                    "name": "D3",
                    "midi": 50,
                    "time": 19.65147250000001,
                    "velocity": 0.2677165354330709,
                    "duration": 0.3707825000000007
                },
                {
                    "name": "D#3",
                    "midi": 51,
                    "time": 20.022255000000012,
                    "velocity": 0.2677165354330709,
                    "duration": 0.3707825000000007
                },
                {
                    "name": "C3",
                    "midi": 48,
                    "time": 20.393037500000013,
                    "velocity": 0.2204724409448819,
                    "duration": 0.3707825000000007
                },
                {
                    "name": "B2",
                    "midi": 47,
                    "time": 20.763820000000013,
                    "velocity": 0.23622047244094488,
                    "duration": 0.3862317708333336
                },
                {
                    "name": "C3",
                    "midi": 48,
                    "time": 21.134602500000014,
                    "velocity": 0.2204724409448819,
                    "duration": 0.3862317708333336
                },
                {
                    "name": "D3",
                    "midi": 50,
                    "time": 21.505385000000015,
                    "velocity": 0.2204724409448819,
                    "duration": 0.7261157291666649
                },
                {
                    "name": "C3",
                    "midi": 48,
                    "time": 22.246950000000012,
                    "velocity": 0.2125984251968504,
                    "duration": 0.7044867500000009
                },
                {
                    "name": "D#3",
                    "midi": 51,
                    "time": 22.246950000000012,
                    "velocity": 0.25196850393700787,
                    "duration": 0.7044867500000009
                },
                {
                    "name": "D#3",
                    "midi": 51,
                    "time": 22.988515000000014,
                    "velocity": 0.2125984251968504,
                    "duration": 0.7044867500000009
                },
                {
                    "name": "G3",
                    "midi": 55,
                    "time": 22.988515000000014,
                    "velocity": 0.25196850393700787,
                    "duration": 0.7044867500000009
                },
                {
                    "name": "G3",
                    "midi": 55,
                    "time": 23.730080000000015,
                    "velocity": 0.23622047244094488,
                    "duration": 0.35533322916666776
                },
                {
                    "name": "G2",
                    "midi": 43,
                    "time": 23.730080000000015,
                    "velocity": 0.1968503937007874,
                    "duration": 0.35533322916666776
                },
                {
                    "name": "G3",
                    "midi": 55,
                    "time": 24.100862500000016,
                    "velocity": 0.2125984251968504,
                    "duration": 0.0988753333333321
                },
                {
                    "name": "G2",
                    "midi": 43,
                    "time": 24.100862500000016,
                    "velocity": 0.2125984251968504,
                    "duration": 0.3707825000000007
                },
                {
                    "name": "F3",
                    "midi": 53,
                    "time": 24.100862500000016,
                    "velocity": 0.2125984251968504,
                    "duration": 0.3707825000000007
                },
                {
                    "name": "G3",
                    "midi": 55,
                    "time": 24.224456666666683,
                    "velocity": 0.2125984251968504,
                    "duration": 0.0988753333333321
                },
                {
                    "name": "G3",
                    "midi": 55,
                    "time": 24.34805083333335,
                    "velocity": 0.18110236220472442,
                    "duration": 0.0988753333333321
                },
                {
                    "name": "G#2",
                    "midi": 44,
                    "time": 24.471645000000017,
                    "velocity": 0.23622047244094488,
                    "duration": 0.5561737499999992
                },
                {
                    "name": "F#3",
                    "midi": 54,
                    "time": 24.471645000000017,
                    "velocity": 0.23622047244094488,
                    "duration": 0.5561737499999992
                },
                {
                    "name": "C2",
                    "midi": 36,
                    "time": 24.471645000000017,
                    "velocity": 0.1968503937007874,
                    "duration": 1.8539124999999999
                },
                {
                    "name": "D#3",
                    "midi": 51,
                    "time": 24.471645000000017,
                    "velocity": 0.23622047244094488,
                    "duration": 1.8539124999999999
                },
                {
                    "name": "G2",
                    "midi": 43,
                    "time": 25.027818750000016,
                    "velocity": 0.1732283464566929,
                    "duration": 1.2977387500000006
                },
                {
                    "name": "G3",
                    "midi": 55,
                    "time": 25.027818750000016,
                    "velocity": 0.2204724409448819,
                    "duration": 1.2977387500000006
                },
                {
                    "name": "G2",
                    "midi": 43,
                    "time": 26.325557500000016,
                    "velocity": 0.2755905511811024,
                    "duration": 0.3707825000000007
                },
                {
                    "name": "G3",
                    "midi": 55,
                    "time": 26.325557500000016,
                    "velocity": 0.2440944881889764,
                    "duration": 0.0988753333333321
                },
                {
                    "name": "G3",
                    "midi": 55,
                    "time": 26.449151666666683,
                    "velocity": 0.2440944881889764,
                    "duration": 0.0988753333333321
                },
                {
                    "name": "G3",
                    "midi": 55,
                    "time": 26.57274583333335,
                    "velocity": 0.2047244094488189,
                    "duration": 0.0988753333333321
                },
                {
                    "name": "G3",
                    "midi": 55,
                    "time": 26.696340000000017,
                    "velocity": 0.2283464566929134,
                    "duration": 2.224695000000004
                },
                {
                    "name": "C3",
                    "midi": 48,
                    "time": 26.696340000000017,
                    "velocity": 0.31496062992125984,
                    "duration": 0.3707825000000007
                },
                {
                    "name": "D3",
                    "midi": 50,
                    "time": 27.067122500000018,
                    "velocity": 0.2677165354330709,
                    "duration": 0.3707825000000007
                },
                {
                    "name": "D#3",
                    "midi": 51,
                    "time": 27.43790500000002,
                    "velocity": 0.2677165354330709,
                    "duration": 0.3707825000000007
                },
                {
                    "name": "C3",
                    "midi": 48,
                    "time": 27.80868750000002,
                    "velocity": 0.2204724409448819,
                    "duration": 0.3707825000000007
                },
                {
                    "name": "B2",
                    "midi": 47,
                    "time": 28.17947000000002,
                    "velocity": 0.23622047244094488,
                    "duration": 0.3862317708333336
                },
                {
                    "name": "D3",
                    "midi": 50,
                    "time": 28.55025250000002,
                    "velocity": 0.3543307086614173,
                    "duration": 0.3862317708333336
                },
                {
                    "name": "G#3",
                    "midi": 56,
                    "time": 28.92103500000002,
                    "velocity": 0.5039370078740157,
                    "duration": 0.7261157291666649
                },
                {
                    "name": "F3",
                    "midi": 53,
                    "time": 29.66260000000002,
                    "velocity": 0.2440944881889764,
                    "duration": 0.7338403645833331
                },
                {
                    "name": "G#3",
                    "midi": 56,
                    "time": 29.66260000000002,
                    "velocity": 0.2440944881889764,
                    "duration": 0.7338403645833331
                },
                {
                    "name": "C#4",
                    "midi": 61,
                    "time": 29.66260000000002,
                    "velocity": 0.2440944881889764,
                    "duration": 0.6967621145833327
                },
                {
                    "name": "F4",
                    "midi": 65,
                    "time": 29.66260000000002,
                    "velocity": 0.29133858267716534,
                    "duration": 0.6967621145833327
                },
                {
                    "name": "F#3",
                    "midi": 54,
                    "time": 30.40416500000002,
                    "velocity": 0.25196850393700787,
                    "duration": 0.7338403645833331
                },
                {
                    "name": "G#3",
                    "midi": 56,
                    "time": 30.40416500000002,
                    "velocity": 0.25196850393700787,
                    "duration": 0.7338403645833331
                },
                {
                    "name": "C4",
                    "midi": 60,
                    "time": 30.40416500000002,
                    "velocity": 0.25196850393700787,
                    "duration": 0.7338403645833331
                },
                {
                    "name": "D#4",
                    "midi": 63,
                    "time": 30.40416500000002,
                    "velocity": 0.25196850393700787,
                    "duration": 0.6967621145833327
                },
                {
                    "name": "F#4",
                    "midi": 66,
                    "time": 30.40416500000002,
                    "velocity": 0.2992125984251969,
                    "duration": 0.6967621145833327
                },
                {
                    "name": "F3",
                    "midi": 53,
                    "time": 31.14573000000002,
                    "velocity": 0.2125984251968504,
                    "duration": 0.3707825000000007
                },
                {
                    "name": "G#3",
                    "midi": 56,
                    "time": 31.14573000000002,
                    "velocity": 0.2125984251968504,
                    "duration": 0.3707825000000007
                },
                {
                    "name": "C#4",
                    "midi": 61,
                    "time": 31.14573000000002,
                    "velocity": 0.2125984251968504,
                    "duration": 0.3707825000000007
                },
                {
                    "name": "F4",
                    "midi": 65,
                    "time": 31.14573000000002,
                    "velocity": 0.25196850393700787,
                    "duration": 0.3707825000000007
                },
                {
                    "name": "G4",
                    "midi": 67,
                    "time": 31.516512500000022,
                    "velocity": 0.2125984251968504,
                    "duration": 0.0988753333333321
                },
                {
                    "name": "G3",
                    "midi": 55,
                    "time": 31.516512500000022,
                    "velocity": 0.1732283464566929,
                    "duration": 0.3707825000000007
                },
                {
                    "name": "G4",
                    "midi": 67,
                    "time": 31.64010666666669,
                    "velocity": 0.2125984251968504,
                    "duration": 0.0988753333333321
                },
                {
                    "name": "G4",
                    "midi": 67,
                    "time": 31.763700833333356,
                    "velocity": 0.18110236220472442,
                    "duration": 0.0988753333333321
                },
                {
                    "name": "C4",
                    "midi": 60,
                    "time": 31.887295000000023,
                    "velocity": 0.16535433070866143,
                    "duration": 0.7415650000000014
                },
                {
                    "name": "G4",
                    "midi": 67,
                    "time": 31.887295000000023,
                    "velocity": 0.23622047244094488,
                    "duration": 0.7415650000000014
                },
                {
                    "name": "C3",
                    "midi": 48,
                    "time": 32.628860000000024,
                    "velocity": 0.25196850393700787,
                    "duration": 0.18539125000000212
                },
                {
                    "name": "D#3",
                    "midi": 51,
                    "time": 32.628860000000024,
                    "velocity": 0.25196850393700787,
                    "duration": 0.18539125000000212
                },
                {
                    "name": "D3",
                    "midi": 50,
                    "time": 32.99964250000003,
                    "velocity": 0.2440944881889764,
                    "duration": 0.0926956249999975
                },
                {
                    "name": "F3",
                    "midi": 53,
                    "time": 32.99964250000003,
                    "velocity": 0.2440944881889764,
                    "duration": 0.0926956249999975
                },
                {
                    "name": "C3",
                    "midi": 48,
                    "time": 33.185033750000024,
                    "velocity": 0.2047244094488189,
                    "duration": 0.0926956249999975
                },
                {
                    "name": "D#3",
                    "midi": 51,
                    "time": 33.185033750000024,
                    "velocity": 0.2047244094488189,
                    "duration": 0.0926956249999975
                },
                {
                    "name": "G2",
                    "midi": 43,
                    "time": 33.37042500000002,
                    "velocity": 0.25984251968503935,
                    "duration": 0.18539125000000212
                },
                {
                    "name": "D3",
                    "midi": 50,
                    "time": 33.37042500000002,
                    "velocity": 0.25984251968503935,
                    "duration": 0.18539125000000212
                },
                {
                    "name": "D#3",
                    "midi": 51,
                    "time": 34.11199000000002,
                    "velocity": 0.2755905511811024,
                    "duration": 0.18539125000000212
                },
                {
                    "name": "C3",
                    "midi": 48,
                    "time": 34.11199000000002,
                    "velocity": 0.2755905511811024,
                    "duration": 0.18539125000000212
                },
                {
                    "name": "G3",
                    "midi": 55,
                    "time": 34.11199000000002,
                    "velocity": 0.2755905511811024,
                    "duration": 0.18539125000000212
                },
                {
                    "name": "F3",
                    "midi": 53,
                    "time": 34.482772500000024,
                    "velocity": 0.29133858267716534,
                    "duration": 0.0926956249999975
                },
                {
                    "name": "D3",
                    "midi": 50,
                    "time": 34.482772500000024,
                    "velocity": 0.29133858267716534,
                    "duration": 0.0926956249999975
                },
                {
                    "name": "G3",
                    "midi": 55,
                    "time": 34.482772500000024,
                    "velocity": 0.29133858267716534,
                    "duration": 0.0926956249999975
                },
                {
                    "name": "D3",
                    "midi": 50,
                    "time": 34.66816375000002,
                    "velocity": 0.2677165354330709,
                    "duration": 0.0926956249999975
                },
                {
                    "name": "C3",
                    "midi": 48,
                    "time": 34.66816375000002,
                    "velocity": 0.2677165354330709,
                    "duration": 0.0926956249999975
                },
                {
                    "name": "G3",
                    "midi": 55,
                    "time": 34.66816375000002,
                    "velocity": 0.2677165354330709,
                    "duration": 0.0926956249999975
                },
                {
                    "name": "B2",
                    "midi": 47,
                    "time": 34.853555000000014,
                    "velocity": 0.3464566929133858,
                    "duration": 0.18539125000000212
                },
                {
                    "name": "D3",
                    "midi": 50,
                    "time": 34.853555000000014,
                    "velocity": 0.3464566929133858,
                    "duration": 0.18539125000000212
                },
                {
                    "name": "G3",
                    "midi": 55,
                    "time": 34.853555000000014,
                    "velocity": 0.3464566929133858,
                    "duration": 0.18539125000000212
                },
                {
                    "name": "F3",
                    "midi": 53,
                    "time": 35.595120000000016,
                    "velocity": 0.2440944881889764,
                    "duration": 0.7106664583333355
                },
                {
                    "name": "G#3",
                    "midi": 56,
                    "time": 35.595120000000016,
                    "velocity": 0.2440944881889764,
                    "duration": 0.7106664583333355
                },
                {
                    "name": "C#4",
                    "midi": 61,
                    "time": 35.595120000000016,
                    "velocity": 0.2440944881889764,
                    "duration": 0.7106664583333355
                },
                {
                    "name": "F4",
                    "midi": 65,
                    "time": 35.595120000000016,
                    "velocity": 0.29133858267716534,
                    "duration": 0.7106664583333355
                },
                {
                    "name": "F#4",
                    "midi": 66,
                    "time": 36.33668500000002,
                    "velocity": 0.33858267716535434,
                    "duration": 0.5252752083333334
                },
                {
                    "name": "D#4",
                    "midi": 63,
                    "time": 36.33668500000002,
                    "velocity": 0.28346456692913385,
                    "duration": 0.5252752083333334
                },
                {
                    "name": "C4",
                    "midi": 60,
                    "time": 36.33668500000002,
                    "velocity": 0.28346456692913385,
                    "duration": 0.5252752083333334
                },
                {
                    "name": "F#3",
                    "midi": 54,
                    "time": 36.33668500000002,
                    "velocity": 0.28346456692913385,
                    "duration": 0.5252752083333334
                },
                {
                    "name": "F#3",
                    "midi": 54,
                    "time": 36.892858750000016,
                    "velocity": 0.2440944881889764,
                    "duration": 0.15449270833333628
                },
                {
                    "name": "C4",
                    "midi": 60,
                    "time": 36.892858750000016,
                    "velocity": 0.2440944881889764,
                    "duration": 0.15449270833333628
                },
                {
                    "name": "D#4",
                    "midi": 63,
                    "time": 36.892858750000016,
                    "velocity": 0.2440944881889764,
                    "duration": 0.15449270833333628
                },
                {
                    "name": "F#4",
                    "midi": 66,
                    "time": 36.892858750000016,
                    "velocity": 0.29133858267716534,
                    "duration": 0.15449270833333628
                },
                {
                    "name": "G4",
                    "midi": 67,
                    "time": 37.07825000000002,
                    "velocity": 0.25196850393700787,
                    "duration": 0.18539125000000212
                },
                {
                    "name": "D#4",
                    "midi": 63,
                    "time": 37.07825000000002,
                    "velocity": 0.2125984251968504,
                    "duration": 0.18539125000000212
                },
                {
                    "name": "C4",
                    "midi": 60,
                    "time": 37.07825000000002,
                    "velocity": 0.2125984251968504,
                    "duration": 0.18539125000000212
                },
                {
                    "name": "G3",
                    "midi": 55,
                    "time": 37.07825000000002,
                    "velocity": 0.2125984251968504,
                    "duration": 0.18539125000000212
                },
                {
                    "name": "G3",
                    "midi": 55,
                    "time": 37.44903250000002,
                    "velocity": 0.2125984251968504,
                    "duration": 0.0988753333333321
                },
                {
                    "name": "G2",
                    "midi": 43,
                    "time": 37.44903250000002,
                    "velocity": 0.2125984251968504,
                    "duration": 0.37078249999999
                },
                {
                    "name": "F3",
                    "midi": 53,
                    "time": 37.44903250000002,
                    "velocity": 0.2125984251968504,
                    "duration": 0.37078249999999
                },
                {
                    "name": "G3",
                    "midi": 55,
                    "time": 37.572626666666686,
                    "velocity": 0.2125984251968504,
                    "duration": 0.0988753333333321
                },
                {
                    "name": "G3",
                    "midi": 55,
                    "time": 37.69622083333335,
                    "velocity": 0.18110236220472442,
                    "duration": 0.0988753333333321
                },
                {
                    "name": "G#2",
                    "midi": 44,
                    "time": 37.81981500000001,
                    "velocity": 0.23622047244094488,
                    "duration": 0.5561737499999992
                },
                {
                    "name": "F#3",
                    "midi": 54,
                    "time": 37.81981500000001,
                    "velocity": 0.23622047244094488,
                    "duration": 0.5561737499999992
                },
                {
                    "name": "C2",
                    "midi": 36,
                    "time": 37.81981500000001,
                    "velocity": 0.1968503937007874,
                    "duration": 1.8539124999999999
                },
                {
                    "name": "D#3",
                    "midi": 51,
                    "time": 37.81981500000001,
                    "velocity": 0.23622047244094488,
                    "duration": 1.8539124999999999
                },
                {
                    "name": "G2",
                    "midi": 43,
                    "time": 38.37598875000001,
                    "velocity": 0.1889763779527559,
                    "duration": 1.2977387500000006
                },
                {
                    "name": "G3",
                    "midi": 55,
                    "time": 38.37598875000001,
                    "velocity": 0.2204724409448819,
                    "duration": 1.2977387500000006
                },
                {
                    "name": "G1",
                    "midi": 31,
                    "time": 39.67372750000001,
                    "velocity": 0.2283464566929134,
                    "duration": 0.37078249999999713
                },
                {
                    "name": "G2",
                    "midi": 43,
                    "time": 39.67372750000001,
                    "velocity": 0.2755905511811024,
                    "duration": 0.37078249999999713
                },
                {
                    "name": "C2",
                    "midi": 36,
                    "time": 40.04451000000001,
                    "velocity": 0.2677165354330709,
                    "duration": 0.37078249999999713
                },
                {
                    "name": "C3",
                    "midi": 48,
                    "time": 40.04451000000001,
                    "velocity": 0.31496062992125984,
                    "duration": 0.37078249999999713
                },
                {
                    "name": "D2",
                    "midi": 38,
                    "time": 40.41529250000001,
                    "velocity": 0.2204724409448819,
                    "duration": 0.37078249999999713
                },
                {
                    "name": "D3",
                    "midi": 50,
                    "time": 40.41529250000001,
                    "velocity": 0.2677165354330709,
                    "duration": 0.37078249999999713
                },
                {
                    "name": "D#2",
                    "midi": 39,
                    "time": 40.786075000000004,
                    "velocity": 0.2204724409448819,
                    "duration": 0.37078249999999713
                },
                {
                    "name": "D#3",
                    "midi": 51,
                    "time": 40.786075000000004,
                    "velocity": 0.2677165354330709,
                    "duration": 0.37078249999999713
                },
                {
                    "name": "C2",
                    "midi": 36,
                    "time": 41.1568575,
                    "velocity": 0.18110236220472442,
                    "duration": 0.37078249999999713
                },
                {
                    "name": "C3",
                    "midi": 48,
                    "time": 41.1568575,
                    "velocity": 0.2204724409448819,
                    "duration": 0.37078249999999713
                },
                {
                    "name": "B1",
                    "midi": 35,
                    "time": 41.52764,
                    "velocity": 0.1968503937007874,
                    "duration": 0.37078249999999713
                },
                {
                    "name": "B2",
                    "midi": 47,
                    "time": 41.52764,
                    "velocity": 0.23622047244094488,
                    "duration": 0.3862317708333336
                },
                {
                    "name": "D2",
                    "midi": 38,
                    "time": 41.898422499999995,
                    "velocity": 0.25196850393700787,
                    "duration": 0.37078250000000423
                },
                {
                    "name": "D3",
                    "midi": 50,
                    "time": 41.898422499999995,
                    "velocity": 0.2992125984251969,
                    "duration": 0.3862317708333407
                },
                {
                    "name": "G2",
                    "midi": 43,
                    "time": 42.269205,
                    "velocity": 0.28346456692913385,
                    "duration": 0.7415650000000085
                },
                {
                    "name": "G3",
                    "midi": 55,
                    "time": 42.269205,
                    "velocity": 0.33858267716535434,
                    "duration": 0.726115729166672
                },
                {
                    "name": "F#2",
                    "midi": 42,
                    "time": 43.01077000000001,
                    "velocity": 0.1968503937007874,
                    "duration": 0.37078249999999713
                },
                {
                    "name": "F#3",
                    "midi": 54,
                    "time": 43.01077000000001,
                    "velocity": 0.23622047244094488,
                    "duration": 0.3862317708333336
                },
                {
                    "name": "A2",
                    "midi": 45,
                    "time": 43.381552500000005,
                    "velocity": 0.25196850393700787,
                    "duration": 0.37078250000000423
                },
                {
                    "name": "A3",
                    "midi": 57,
                    "time": 43.381552500000005,
                    "velocity": 0.2992125984251969,
                    "duration": 0.3862317708333407
                },
                {
                    "name": "D3",
                    "midi": 50,
                    "time": 43.75233500000001,
                    "velocity": 0.28346456692913385,
                    "duration": 0.6952171875000062
                },
                {
                    "name": "D4",
                    "midi": 62,
                    "time": 43.75233500000001,
                    "velocity": 0.33858267716535434,
                    "duration": 0.6952171875000062
                },
                {
                    "name": "D4",
                    "midi": 62,
                    "time": 44.49390000000002,
                    "velocity": 0.3543307086614173,
                    "duration": 0.7106664583333355
                },
                {
                    "name": "A#3",
                    "midi": 58,
                    "time": 44.49390000000002,
                    "velocity": 0.2992125984251969,
                    "duration": 0.7106664583333355
                },
                {
                    "name": "D#3",
                    "midi": 51,
                    "time": 45.23546500000002,
                    "velocity": 0.2677165354330709,
                    "duration": 0.7106664583333355
                },
                {
                    "name": "D#4",
                    "midi": 63,
                    "time": 45.23546500000002,
                    "velocity": 0.31496062992125984,
                    "duration": 0.7106664583333355
                },
                {
                    "name": "A#3",
                    "midi": 58,
                    "time": 45.23546500000002,
                    "velocity": 0.2677165354330709,
                    "duration": 0.7106664583333355
                },
                {
                    "name": "F3",
                    "midi": 53,
                    "time": 45.97703000000002,
                    "velocity": 0.3228346456692913,
                    "duration": 0.37078249999999713
                },
                {
                    "name": "D4",
                    "midi": 62,
                    "time": 45.97703000000002,
                    "velocity": 0.3858267716535433,
                    "duration": 0.37078249999999713
                },
                {
                    "name": "A#3",
                    "midi": 58,
                    "time": 45.97703000000002,
                    "velocity": 0.3228346456692913,
                    "duration": 0.37078249999999713
                },
                {
                    "name": "F#3",
                    "midi": 54,
                    "time": 46.34781250000002,
                    "velocity": 0.28346456692913385,
                    "duration": 0.37078249999999713
                },
                {
                    "name": "C4",
                    "midi": 60,
                    "time": 46.34781250000002,
                    "velocity": 0.33858267716535434,
                    "duration": 0.37078249999999713
                },
                {
                    "name": "A#3",
                    "midi": 58,
                    "time": 46.718595000000015,
                    "velocity": 0.3858267716535433,
                    "duration": 0.7415650000000014
                },
                {
                    "name": "G3",
                    "midi": 55,
                    "time": 46.718595000000015,
                    "velocity": 0.3228346456692913,
                    "duration": 0.7415650000000014
                },
                {
                    "name": "D4",
                    "midi": 62,
                    "time": 47.460160000000016,
                    "velocity": 0.36220472440944884,
                    "duration": 0.7106664583333355
                },
                {
                    "name": "A#3",
                    "midi": 58,
                    "time": 47.460160000000016,
                    "velocity": 0.30708661417322836,
                    "duration": 0.7106664583333355
                },
                {
                    "name": "D#3",
                    "midi": 51,
                    "time": 48.20172500000002,
                    "velocity": 0.28346456692913385,
                    "duration": 0.3398839583333313
                },
                {
                    "name": "D#4",
                    "midi": 63,
                    "time": 48.20172500000002,
                    "velocity": 0.33858267716535434,
                    "duration": 0.3398839583333313
                },
                {
                    "name": "A#3",
                    "midi": 58,
                    "time": 48.20172500000002,
                    "velocity": 0.28346456692913385,
                    "duration": 0.3398839583333313
                },
                {
                    "name": "D4",
                    "midi": 62,
                    "time": 48.572507500000015,
                    "velocity": 0.31496062992125984,
                    "duration": 0.37078249999999713
                },
                {
                    "name": "A#3",
                    "midi": 58,
                    "time": 48.572507500000015,
                    "velocity": 0.2677165354330709,
                    "duration": 0.37078249999999713
                },
                {
                    "name": "F3",
                    "midi": 53,
                    "time": 48.572507500000015,
                    "velocity": 0.2677165354330709,
                    "duration": 0.37078249999999713
                },
                {
                    "name": "G3",
                    "midi": 55,
                    "time": 48.94329000000001,
                    "velocity": 0.30708661417322836,
                    "duration": 0.3398839583333313
                },
                {
                    "name": "C4",
                    "midi": 60,
                    "time": 48.94329000000001,
                    "velocity": 0.30708661417322836,
                    "duration": 0.3398839583333313
                },
                {
                    "name": "D#4",
                    "midi": 63,
                    "time": 48.94329000000001,
                    "velocity": 0.3700787401574803,
                    "duration": 0.3398839583333313
                },
                {
                    "name": "F4",
                    "midi": 65,
                    "time": 49.31407250000001,
                    "velocity": 0.31496062992125984,
                    "duration": 0.3398839583333313
                },
                {
                    "name": "B3",
                    "midi": 59,
                    "time": 49.31407250000001,
                    "velocity": 0.2677165354330709,
                    "duration": 0.3398839583333313
                },
                {
                    "name": "G3",
                    "midi": 55,
                    "time": 49.31407250000001,
                    "velocity": 0.2677165354330709,
                    "duration": 0.3398839583333313
                },
                {
                    "name": "C3",
                    "midi": 48,
                    "time": 49.684855000000006,
                    "velocity": 0.2992125984251969,
                    "duration": 1.8539124999999999
                },
                {
                    "name": "G3",
                    "midi": 55,
                    "time": 49.684855000000006,
                    "velocity": 0.3543307086614173,
                    "duration": 1.8539124999999999
                },
                {
                    "name": "G3",
                    "midi": 55,
                    "time": 51.538767500000006,
                    "velocity": 0.28346456692913385,
                    "duration": 0.12359416666666334
                },
                {
                    "name": "G4",
                    "midi": 67,
                    "time": 51.66236166666667,
                    "velocity": 0.3464566929133858,
                    "duration": 0.12359416666666334
                },
                {
                    "name": "F4",
                    "midi": 65,
                    "time": 51.78595583333333,
                    "velocity": 0.2992125984251969,
                    "duration": 0.12359416666666334
                },
                {
                    "name": "D#4",
                    "midi": 63,
                    "time": 51.909549999999996,
                    "velocity": 0.3464566929133858,
                    "duration": 0.030898541666665835
                },
                {
                    "name": "F4",
                    "midi": 65,
                    "time": 51.94044854166666,
                    "velocity": 0.31496062992125984,
                    "duration": 0.030898541666665835
                },
                {
                    "name": "D#4",
                    "midi": 63,
                    "time": 51.97134708333333,
                    "velocity": 0.3543307086614173,
                    "duration": 0.06179708333333167
                },
                {
                    "name": "D4",
                    "midi": 62,
                    "time": 52.03314416666666,
                    "velocity": 0.2992125984251969,
                    "duration": 0.12359416666666334
                },
                {
                    "name": "C4",
                    "midi": 60,
                    "time": 52.15673833333332,
                    "velocity": 0.2992125984251969,
                    "duration": 0.12359416666666334
                },
                {
                    "name": "B3",
                    "midi": 59,
                    "time": 52.280332499999986,
                    "velocity": 0.3543307086614173,
                    "duration": 0.12359416666666334
                },
                {
                    "name": "C4",
                    "midi": 60,
                    "time": 52.40392666666665,
                    "velocity": 0.28346456692913385,
                    "duration": 0.12359416666666334
                },
                {
                    "name": "D4",
                    "midi": 62,
                    "time": 52.52752083333331,
                    "velocity": 0.28346456692913385,
                    "duration": 0.12359416666666334
                },
                {
                    "name": "C4",
                    "midi": 60,
                    "time": 52.651114999999976,
                    "velocity": 0.3464566929133858,
                    "duration": 0.030898541666665835
                },
                {
                    "name": "D4",
                    "midi": 62,
                    "time": 52.68201354166664,
                    "velocity": 0.31496062992125984,
                    "duration": 0.030898541666665835
                },
                {
                    "name": "C4",
                    "midi": 60,
                    "time": 52.71291208333331,
                    "velocity": 0.3543307086614173,
                    "duration": 0.06179708333333167
                },
                {
                    "name": "G3",
                    "midi": 55,
                    "time": 52.77470916666664,
                    "velocity": 0.29133858267716534,
                    "duration": 0.12359416666666334
                },
                {
                    "name": "F3",
                    "midi": 53,
                    "time": 52.8983033333333,
                    "velocity": 0.29133858267716534,
                    "duration": 0.12359416666666334
                },
                {
                    "name": "D#3",
                    "midi": 51,
                    "time": 53.021897499999966,
                    "velocity": 0.33070866141732286,
                    "duration": 0.12359416666666334
                },
                {
                    "name": "D3",
                    "midi": 50,
                    "time": 53.14549166666663,
                    "velocity": 0.28346456692913385,
                    "duration": 0.12359416666666334
                },
                {
                    "name": "C3",
                    "midi": 48,
                    "time": 53.26908583333329,
                    "velocity": 0.28346456692913385,
                    "duration": 0.12359416666666334
                },
                {
                    "name": "D3",
                    "midi": 50,
                    "time": 53.392679999999956,
                    "velocity": 0.3228346456692913,
                    "duration": 0.12359416666666334
                },
                {
                    "name": "G2",
                    "midi": 43,
                    "time": 53.51627416666662,
                    "velocity": 0.2677165354330709,
                    "duration": 0.12359416666666334
                },
                {
                    "name": "G3",
                    "midi": 55,
                    "time": 53.63986833333328,
                    "velocity": 0.2677165354330709,
                    "duration": 0.12359416666666334
                },
                {
                    "name": "F#3",
                    "midi": 54,
                    "time": 53.763462499999946,
                    "velocity": 0.29133858267716534,
                    "duration": 0.12359416666666334
                },
                {
                    "name": "A3",
                    "midi": 57,
                    "time": 53.88705666666661,
                    "velocity": 0.25984251968503935,
                    "duration": 0.12359416666666334
                },
                {
                    "name": "C4",
                    "midi": 60,
                    "time": 54.01065083333327,
                    "velocity": 0.25984251968503935,
                    "duration": 0.12359416666666334
                },
                {
                    "name": "A#3",
                    "midi": 58,
                    "time": 54.134244999999936,
                    "velocity": 0.3464566929133858,
                    "duration": 0.030898541666665835
                },
                {
                    "name": "C4",
                    "midi": 60,
                    "time": 54.1651435416666,
                    "velocity": 0.31496062992125984,
                    "duration": 0.030898541666665835
                },
                {
                    "name": "A#3",
                    "midi": 58,
                    "time": 54.19604208333327,
                    "velocity": 0.3543307086614173,
                    "duration": 0.06179708333333167
                },
                {
                    "name": "A3",
                    "midi": 57,
                    "time": 54.2578391666666,
                    "velocity": 0.25196850393700787,
                    "duration": 0.12359416666666334
                },
                {
                    "name": "G3",
                    "midi": 55,
                    "time": 54.38143333333326,
                    "velocity": 0.2677165354330709,
                    "duration": 0.4943766666666676
                },
                {
                    "name": "A3",
                    "midi": 57,
                    "time": 54.87580999999993,
                    "velocity": 0.3228346456692913,
                    "duration": 0.12359416666666334
                },
                {
                    "name": "D3",
                    "midi": 50,
                    "time": 54.999404166666594,
                    "velocity": 0.2677165354330709,
                    "duration": 0.12359416666666334
                },
                {
                    "name": "D4",
                    "midi": 62,
                    "time": 55.12299833333326,
                    "velocity": 0.2677165354330709,
                    "duration": 0.12359416666666334
                },
                {
                    "name": "C#4",
                    "midi": 61,
                    "time": 55.24659249999992,
                    "velocity": 0.3228346456692913,
                    "duration": 0.12359416666666334
                },
                {
                    "name": "E4",
                    "midi": 64,
                    "time": 55.370186666666584,
                    "velocity": 0.25984251968503935,
                    "duration": 0.12359416666666334
                },
                {
                    "name": "G4",
                    "midi": 67,
                    "time": 55.49378083333325,
                    "velocity": 0.2755905511811024,
                    "duration": 0.12359416666666334
                },
                {
                    "name": "F4",
                    "midi": 65,
                    "time": 55.61737499999991,
                    "velocity": 0.3464566929133858,
                    "duration": 0.030898541666665835
                },
                {
                    "name": "G4",
                    "midi": 67,
                    "time": 55.648273541666576,
                    "velocity": 0.31496062992125984,
                    "duration": 0.030898541666665835
                },
                {
                    "name": "F4",
                    "midi": 65,
                    "time": 55.67917208333324,
                    "velocity": 0.3543307086614173,
                    "duration": 0.06179708333333167
                },
                {
                    "name": "E4",
                    "midi": 64,
                    "time": 55.740969166666574,
                    "velocity": 0.25196850393700787,
                    "duration": 0.12359416666666334
                },
                {
                    "name": "D4",
                    "midi": 62,
                    "time": 55.86456333333324,
                    "velocity": 0.2677165354330709,
                    "duration": 0.44802885416666527
                },
                {
                    "name": "A#3",
                    "midi": 58,
                    "time": 56.358939999999905,
                    "velocity": 0.3464566929133858,
                    "duration": 0.030898541666665835
                },
                {
                    "name": "C4",
                    "midi": 60,
                    "time": 56.38983854166657,
                    "velocity": 0.31496062992125984,
                    "duration": 0.030898541666665835
                },
                {
                    "name": "A#3",
                    "midi": 58,
                    "time": 56.420737083333236,
                    "velocity": 0.3543307086614173,
                    "duration": 0.06179708333333167
                },
                {
                    "name": "A3",
                    "midi": 57,
                    "time": 56.48253416666657,
                    "velocity": 0.2992125984251969,
                    "duration": 0.12359416666666334
                },
                {
                    "name": "G3",
                    "midi": 55,
                    "time": 56.60612833333323,
                    "velocity": 0.2992125984251969,
                    "duration": 0.12359416666666334
                },
                {
                    "name": "F3",
                    "midi": 53,
                    "time": 56.729722499999895,
                    "velocity": 0.3543307086614173,
                    "duration": 0.12359416666666334
                },
                {
                    "name": "G3",
                    "midi": 55,
                    "time": 56.85331666666656,
                    "velocity": 0.28346456692913385,
                    "duration": 0.12359416666666334
                },
                {
                    "name": "A3",
                    "midi": 57,
                    "time": 56.97691083333322,
                    "velocity": 0.28346456692913385,
                    "duration": 0.12359416666666334
                },
                {
                    "name": "D#3",
                    "midi": 51,
                    "time": 57.100504999999885,
                    "velocity": 0.29133858267716534,
                    "duration": 0.7415649999999872
                },
                {
                    "name": "A#3",
                    "midi": 58,
                    "time": 57.100504999999885,
                    "velocity": 0.3543307086614173,
                    "duration": 0.12359416666666334
                },
                {
                    "name": "A3",
                    "midi": 57,
                    "time": 57.22409916666655,
                    "velocity": 0.29133858267716534,
                    "duration": 0.12359416666666334
                },
                {
                    "name": "A#3",
                    "midi": 58,
                    "time": 57.34769333333321,
                    "velocity": 0.29133858267716534,
                    "duration": 0.12359416666666334
                },
                {
                    "name": "D#4",
                    "midi": 63,
                    "time": 57.471287499999875,
                    "velocity": 0.33070866141732286,
                    "duration": 0.12359416666666334
                },
                {
                    "name": "A#3",
                    "midi": 58,
                    "time": 57.59488166666654,
                    "velocity": 0.28346456692913385,
                    "duration": 0.12359416666666334
                },
                {
                    "name": "G3",
                    "midi": 55,
                    "time": 57.7184758333332,
                    "velocity": 0.28346456692913385,
                    "duration": 0.07724635416666814
                },
                {
                    "name": "D3",
                    "midi": 50,
                    "time": 57.84206999999987,
                    "velocity": 0.30708661417322836,
                    "duration": 0.37078249999999
                },
                {
                    "name": "A#3",
                    "midi": 58,
                    "time": 57.84206999999987,
                    "velocity": 0.3543307086614173,
                    "duration": 0.12359416666666334
                },
                {
                    "name": "A3",
                    "midi": 57,
                    "time": 57.965664166666535,
                    "velocity": 0.2992125984251969,
                    "duration": 0.12359416666666334
                },
                {
                    "name": "G3",
                    "midi": 55,
                    "time": 58.0892583333332,
                    "velocity": 0.2992125984251969,
                    "duration": 0.12359416666666334
                },
                {
                    "name": "F#3",
                    "midi": 54,
                    "time": 58.21285249999986,
                    "velocity": 0.3543307086614173,
                    "duration": 0.37078249999999
                },
                {
                    "name": "G3",
                    "midi": 55,
                    "time": 58.336446666666525,
                    "velocity": 0.28346456692913385,
                    "duration": 0.12359416666666334
                },
                {
                    "name": "A3",
                    "midi": 57,
                    "time": 58.46004083333319,
                    "velocity": 0.28346456692913385,
                    "duration": 0.12359416666666334
                },
                {
                    "name": "G3",
                    "midi": 55,
                    "time": 58.58363499999985,
                    "velocity": 0.31496062992125984,
                    "duration": 0.7415649999999943
                },
                {
                    "name": "A3",
                    "midi": 57,
                    "time": 58.707229166666515,
                    "velocity": 0.29133858267716534,
                    "duration": 0.12359416666666334
                },
                {
                    "name": "A#3",
                    "midi": 58,
                    "time": 58.83082333333318,
                    "velocity": 0.29133858267716534,
                    "duration": 0.4943766666666676
                },
                {
                    "name": "A#3",
                    "midi": 58,
                    "time": 59.325199999999846,
                    "velocity": 0.3464566929133858,
                    "duration": 0.030898541666665835
                },
                {
                    "name": "C4",
                    "midi": 60,
                    "time": 59.35609854166651,
                    "velocity": 0.31496062992125984,
                    "duration": 0.030898541666665835
                },
                {
                    "name": "A#3",
                    "midi": 58,
                    "time": 59.38699708333318,
                    "velocity": 0.3543307086614173,
                    "duration": 0.06179708333333167
                },
                {
                    "name": "A3",
                    "midi": 57,
                    "time": 59.44879416666651,
                    "velocity": 0.29133858267716534,
                    "duration": 0.12359416666666334
                },
                {
                    "name": "G3",
                    "midi": 55,
                    "time": 59.57238833333317,
                    "velocity": 0.29133858267716534,
                    "duration": 0.12359416666666334
                },
                {
                    "name": "F3",
                    "midi": 53,
                    "time": 59.695982499999836,
                    "velocity": 0.33070866141732286,
                    "duration": 0.12359416666666334
                },
                {
                    "name": "G3",
                    "midi": 55,
                    "time": 59.8195766666665,
                    "velocity": 0.29133858267716534,
                    "duration": 0.12359416666666334
                },
                {
                    "name": "A3",
                    "midi": 57,
                    "time": 59.94317083333316,
                    "velocity": 0.31496062992125984,
                    "duration": 0.12359416666666334
                },
                {
                    "name": "D#3",
                    "midi": 51,
                    "time": 60.066764999999826,
                    "velocity": 0.3543307086614173,
                    "duration": 0.37078249999999
                },
                {
                    "name": "A#3",
                    "midi": 58,
                    "time": 60.066764999999826,
                    "velocity": 0.3464566929133858,
                    "duration": 0.12359416666666334
                },
                {
                    "name": "A3",
                    "midi": 57,
                    "time": 60.19035916666649,
                    "velocity": 0.2992125984251969,
                    "duration": 0.12359416666666334
                },
                {
                    "name": "A#3",
                    "midi": 58,
                    "time": 60.31395333333315,
                    "velocity": 0.2992125984251969,
                    "duration": 0.12359416666666334
                },
                {
                    "name": "F3",
                    "midi": 53,
                    "time": 60.437547499999816,
                    "velocity": 0.3543307086614173,
                    "duration": 0.37078249999999
                },
                {
                    "name": "D4",
                    "midi": 62,
                    "time": 60.437547499999816,
                    "velocity": 0.33070866141732286,
                    "duration": 0.12359416666666334
                },
                {
                    "name": "C4",
                    "midi": 60,
                    "time": 60.56114166666648,
                    "velocity": 0.28346456692913385,
                    "duration": 0.12359416666666334
                },
                {
                    "name": "D4",
                    "midi": 62,
                    "time": 60.68473583333314,
                    "velocity": 0.2755905511811024,
                    "duration": 0.12359416666666334
                },
                {
                    "name": "D#4",
                    "midi": 63,
                    "time": 60.808329999999806,
                    "velocity": 0.31496062992125984,
                    "duration": 0.12359416666666334
                },
                {
                    "name": "G3",
                    "midi": 55,
                    "time": 60.808329999999806,
                    "velocity": 0.3543307086614173,
                    "duration": 0.37078249999999
                },
                {
                    "name": "D4",
                    "midi": 62,
                    "time": 60.93192416666647,
                    "velocity": 0.29133858267716534,
                    "duration": 0.12359416666666334
                },
                {
                    "name": "D#4",
                    "midi": 63,
                    "time": 61.05551833333313,
                    "velocity": 0.29133858267716534,
                    "duration": 0.12359416666666334
                },
                {
                    "name": "G3",
                    "midi": 55,
                    "time": 61.179112499999796,
                    "velocity": 0.3543307086614173,
                    "duration": 0.37078249999999
                },
                {
                    "name": "F4",
                    "midi": 65,
                    "time": 61.179112499999796,
                    "velocity": 0.33070866141732286,
                    "duration": 0.12359416666666334
                },
                {
                    "name": "D4",
                    "midi": 62,
                    "time": 61.30270666666646,
                    "velocity": 0.29133858267716534,
                    "duration": 0.12359416666666334
                },
                {
                    "name": "B3",
                    "midi": 59,
                    "time": 61.42630083333312,
                    "velocity": 0.31496062992125984,
                    "duration": 0.12359416666666334
                },
                {
                    "name": "C4",
                    "midi": 60,
                    "time": 61.549894999999786,
                    "velocity": 0.3543307086614173,
                    "duration": 0.12359416666666334
                },
                {
                    "name": "C3",
                    "midi": 48,
                    "time": 61.549894999999786,
                    "velocity": 0.33070866141732286,
                    "duration": 0.7415649999999943
                },
                {
                    "name": "G3",
                    "midi": 55,
                    "time": 61.67348916666645,
                    "velocity": 0.29133858267716534,
                    "duration": 0.12359416666666334
                },
                {
                    "name": "D#3",
                    "midi": 51,
                    "time": 61.79708333333311,
                    "velocity": 0.29133858267716534,
                    "duration": 0.4943766666666676
                },
                {
                    "name": "G#2",
                    "midi": 44,
                    "time": 62.29145999999978,
                    "velocity": 0.2204724409448819,
                    "duration": 0.3398839583333313
                },
                {
                    "name": "D#3",
                    "midi": 51,
                    "time": 62.29145999999978,
                    "velocity": 0.2677165354330709,
                    "duration": 0.3398839583333313
                },
                {
                    "name": "A#2",
                    "midi": 46,
                    "time": 62.66224249999978,
                    "velocity": 0.2047244094488189,
                    "duration": 0.16994197916666565
                },
                {
                    "name": "D#3",
                    "midi": 51,
                    "time": 62.66224249999978,
                    "velocity": 0.2440944881889764,
                    "duration": 0.16994197916666565
                },
                {
                    "name": "G#2",
                    "midi": 44,
                    "time": 62.84763374999978,
                    "velocity": 0.1889763779527559,
                    "duration": 0.16994197916666565
                },
                {
                    "name": "D#3",
                    "midi": 51,
                    "time": 62.84763374999978,
                    "velocity": 0.2283464566929134,
                    "duration": 0.16994197916666565
                },
                {
                    "name": "F2",
                    "midi": 41,
                    "time": 63.03302499999978,
                    "velocity": 0.2204724409448819,
                    "duration": 0.7415650000000014
                },
                {
                    "name": "F3",
                    "midi": 53,
                    "time": 63.03302499999978,
                    "velocity": 0.2677165354330709,
                    "duration": 0.7261157291666649
                },
                {
                    "name": "G#2",
                    "midi": 44,
                    "time": 63.77458999999978,
                    "velocity": 0.25984251968503935,
                    "duration": 0.3398839583333384
                },
                {
                    "name": "D#3",
                    "midi": 51,
                    "time": 63.77458999999978,
                    "velocity": 0.30708661417322836,
                    "duration": 0.3398839583333384
                },
                {
                    "name": "A#2",
                    "midi": 46,
                    "time": 64.1453724999998,
                    "velocity": 0.2677165354330709,
                    "duration": 0.16994197916666565
                },
                {
                    "name": "D#3",
                    "midi": 51,
                    "time": 64.1453724999998,
                    "velocity": 0.3228346456692913,
                    "duration": 0.16994197916666565
                },
                {
                    "name": "G#2",
                    "midi": 44,
                    "time": 64.33076374999979,
                    "velocity": 0.25984251968503935,
                    "duration": 0.16994197916666565
                },
                {
                    "name": "D#3",
                    "midi": 51,
                    "time": 64.33076374999979,
                    "velocity": 0.30708661417322836,
                    "duration": 0.16994197916666565
                },
                {
                    "name": "G2",
                    "midi": 43,
                    "time": 64.51615499999978,
                    "velocity": 0.3464566929133858,
                    "duration": 0.7415649999999943
                },
                {
                    "name": "G3",
                    "midi": 55,
                    "time": 64.51615499999978,
                    "velocity": 0.4094488188976378,
                    "duration": 0.7261157291666649
                },
                {
                    "name": "G#2",
                    "midi": 44,
                    "time": 65.25771999999978,
                    "velocity": 0.25196850393700787,
                    "duration": 0.7183910937500002
                },
                {
                    "name": "D#3",
                    "midi": 51,
                    "time": 65.25771999999978,
                    "velocity": 0.2992125984251969,
                    "duration": 0.7183910937500002
                },
                {
                    "name": "F2",
                    "midi": 41,
                    "time": 65.99928499999977,
                    "velocity": 0.2677165354330709,
                    "duration": 0.35224337500000047
                },
                {
                    "name": "F3",
                    "midi": 53,
                    "time": 65.99928499999977,
                    "velocity": 0.31496062992125984,
                    "duration": 0.35224337500000047
                },
                {
                    "name": "F2",
                    "midi": 41,
                    "time": 66.37006749999978,
                    "velocity": 0.2992125984251969,
                    "duration": 0.35224337500000047
                },
                {
                    "name": "F3",
                    "midi": 53,
                    "time": 66.37006749999978,
                    "velocity": 0.3543307086614173,
                    "duration": 0.35224337500000047
                },
                {
                    "name": "C3",
                    "midi": 48,
                    "time": 66.74084999999978,
                    "velocity": 0.31496062992125984,
                    "duration": 0.37078250000000423
                },
                {
                    "name": "G2",
                    "midi": 43,
                    "time": 66.74084999999978,
                    "velocity": 0.31496062992125984,
                    "duration": 0.35224337500000047
                },
                {
                    "name": "G3",
                    "midi": 55,
                    "time": 66.74084999999978,
                    "velocity": 0.3779527559055118,
                    "duration": 0.35996801041666515
                },
                {
                    "name": "G2",
                    "midi": 43,
                    "time": 67.11163249999979,
                    "velocity": 0.16535433070866143,
                    "duration": 0.37078250000000423
                },
                {
                    "name": "F3",
                    "midi": 53,
                    "time": 67.11163249999979,
                    "velocity": 0.1968503937007874,
                    "duration": 0.37078250000000423
                },
                {
                    "name": "C3",
                    "midi": 48,
                    "time": 67.48241499999979,
                    "velocity": 0.1968503937007874,
                    "duration": 0.7261157291666649
                },
                {
                    "name": "D#3",
                    "midi": 51,
                    "time": 67.48241499999979,
                    "velocity": 0.23622047244094488,
                    "duration": 0.7261157291666649
                },
                {
                    "name": "G#2",
                    "midi": 44,
                    "time": 68.22397999999978,
                    "velocity": 0.2204724409448819,
                    "duration": 0.3398839583333313
                },
                {
                    "name": "D#3",
                    "midi": 51,
                    "time": 68.22397999999978,
                    "velocity": 0.2677165354330709,
                    "duration": 0.3398839583333313
                },
                {
                    "name": "A#2",
                    "midi": 46,
                    "time": 68.59476249999979,
                    "velocity": 0.2047244094488189,
                    "duration": 0.16994197916666565
                },
                {
                    "name": "D#3",
                    "midi": 51,
                    "time": 68.59476249999979,
                    "velocity": 0.2440944881889764,
                    "duration": 0.16994197916666565
                },
                {
                    "name": "G#2",
                    "midi": 44,
                    "time": 68.78015374999978,
                    "velocity": 0.1889763779527559,
                    "duration": 0.16994197916666565
                },
                {
                    "name": "D#3",
                    "midi": 51,
                    "time": 68.78015374999978,
                    "velocity": 0.2283464566929134,
                    "duration": 0.16994197916666565
                },
                {
                    "name": "F2",
                    "midi": 41,
                    "time": 68.97635948958312,
                    "velocity": 0.2204724409448819,
                    "duration": 0.5561737499999708
                },
                {
                    "name": "F3",
                    "midi": 53,
                    "time": 68.97635948958312,
                    "velocity": 0.2677165354330709,
                    "duration": 0.5561737499999708
                },
                {
                    "name": "F4",
                    "midi": 65,
                    "time": 69.24363187499978,
                    "velocity": 0.23622047244094488,
                    "duration": 0.06952171874999635
                },
                {
                    "name": "C#5",
                    "midi": 73,
                    "time": 69.24363187499978,
                    "velocity": 0.23622047244094488,
                    "duration": 0.06952171874999635
                },
                {
                    "name": "F5",
                    "midi": 77,
                    "time": 69.24363187499978,
                    "velocity": 0.28346456692913385,
                    "duration": 0.06952171874999635
                },
                {
                    "name": "G4",
                    "midi": 67,
                    "time": 69.33632749999977,
                    "velocity": 0.1968503937007874,
                    "duration": 0.06952171874999635
                },
                {
                    "name": "C#5",
                    "midi": 73,
                    "time": 69.33632749999977,
                    "velocity": 0.1968503937007874,
                    "duration": 0.06952171874999635
                },
                {
                    "name": "D#5",
                    "midi": 75,
                    "time": 69.33632749999977,
                    "velocity": 0.23622047244094488,
                    "duration": 0.06952171874999635
                },
                {
                    "name": "G#4",
                    "midi": 68,
                    "time": 69.42902312499976,
                    "velocity": 0.18110236220472442,
                    "duration": 0.06952171874999635
                },
                {
                    "name": "C#5",
                    "midi": 73,
                    "time": 69.42902312499976,
                    "velocity": 0.2204724409448819,
                    "duration": 0.06952171874999635
                },
                {
                    "name": "G#4",
                    "midi": 68,
                    "time": 69.52171874999975,
                    "velocity": 0.2204724409448819,
                    "duration": 0.06952171875001056
                },
                {
                    "name": "C#5",
                    "midi": 73,
                    "time": 69.52171874999975,
                    "velocity": 0.2677165354330709,
                    "duration": 0.13286372916667233
                },
                {
                    "name": "A#4",
                    "midi": 70,
                    "time": 69.61441437499975,
                    "velocity": 0.2204724409448819,
                    "duration": 0.06952171874999635
                },
                {
                    "name": "A#4",
                    "midi": 70,
                    "time": 69.70710999999974,
                    "velocity": 0.18110236220472442,
                    "duration": 0.06952171874999635
                },
                {
                    "name": "C#5",
                    "midi": 73,
                    "time": 69.70710999999974,
                    "velocity": 0.2204724409448819,
                    "duration": 0.06952171874999635
                },
                {
                    "name": "F4",
                    "midi": 65,
                    "time": 69.79980562499973,
                    "velocity": 0.2204724409448819,
                    "duration": 0.06952171874999635
                },
                {
                    "name": "C#5",
                    "midi": 73,
                    "time": 69.79980562499973,
                    "velocity": 0.2204724409448819,
                    "duration": 0.06952171874999635
                },
                {
                    "name": "F5",
                    "midi": 77,
                    "time": 69.79980562499973,
                    "velocity": 0.2677165354330709,
                    "duration": 0.06952171874999635
                },
                {
                    "name": "G4",
                    "midi": 67,
                    "time": 69.89250124999973,
                    "velocity": 0.1889763779527559,
                    "duration": 0.06952171874999635
                },
                {
                    "name": "C#5",
                    "midi": 73,
                    "time": 69.89250124999973,
                    "velocity": 0.1889763779527559,
                    "duration": 0.06952171874999635
                },
                {
                    "name": "D#5",
                    "midi": 75,
                    "time": 69.89250124999973,
                    "velocity": 0.2283464566929134,
                    "duration": 0.06952171874999635
                },
                {
                    "name": "G#4",
                    "midi": 68,
                    "time": 69.98519687499972,
                    "velocity": 0.2204724409448819,
                    "duration": 0.06952171874999635
                },
                {
                    "name": "C#5",
                    "midi": 73,
                    "time": 69.98519687499972,
                    "velocity": 0.2677165354330709,
                    "duration": 0.06952171874999635
                },
                {
                    "name": "G#4",
                    "midi": 68,
                    "time": 70.0778924999997,
                    "velocity": 0.1968503937007874,
                    "duration": 0.06952171874999635
                },
                {
                    "name": "C#5",
                    "midi": 73,
                    "time": 70.0778924999997,
                    "velocity": 0.23622047244094488,
                    "duration": 0.13286372916665812
                },
                {
                    "name": "A#4",
                    "midi": 70,
                    "time": 70.1705881249997,
                    "velocity": 0.23622047244094488,
                    "duration": 0.06952171874999635
                },
                {
                    "name": "A#4",
                    "midi": 70,
                    "time": 70.26328374999969,
                    "velocity": 0.1968503937007874,
                    "duration": 0.06952171874999635
                },
                {
                    "name": "C#5",
                    "midi": 73,
                    "time": 70.26328374999969,
                    "velocity": 0.23622047244094488,
                    "duration": 0.06952171874999635
                },
                {
                    "name": "G#2",
                    "midi": 44,
                    "time": 70.63406624999968,
                    "velocity": 0.2204724409448819,
                    "duration": 0.3398839583333313
                },
                {
                    "name": "D#3",
                    "midi": 51,
                    "time": 70.63406624999968,
                    "velocity": 0.2677165354330709,
                    "duration": 0.3398839583333313
                },
                {
                    "name": "A#2",
                    "midi": 46,
                    "time": 71.00484874999968,
                    "velocity": 0.2047244094488189,
                    "duration": 0.16994197916666565
                },
                {
                    "name": "D#3",
                    "midi": 51,
                    "time": 71.00484874999968,
                    "velocity": 0.2440944881889764,
                    "duration": 0.16994197916666565
                },
                {
                    "name": "G#2",
                    "midi": 44,
                    "time": 71.19023999999968,
                    "velocity": 0.1889763779527559,
                    "duration": 0.16994197916666565
                },
                {
                    "name": "D#3",
                    "midi": 51,
                    "time": 71.19023999999968,
                    "velocity": 0.2283464566929134,
                    "duration": 0.16994197916666565
                },
                {
                    "name": "G2",
                    "midi": 43,
                    "time": 71.37563124999967,
                    "velocity": 0.2204724409448819,
                    "duration": 0.5561737499999708
                },
                {
                    "name": "G3",
                    "midi": 55,
                    "time": 71.37563124999967,
                    "velocity": 0.2677165354330709,
                    "duration": 0.5561737499999708
                },
                {
                    "name": "G4",
                    "midi": 67,
                    "time": 71.65371812499967,
                    "velocity": 0.23622047244094488,
                    "duration": 0.06952171874999635
                },
                {
                    "name": "D#5",
                    "midi": 75,
                    "time": 71.65371812499967,
                    "velocity": 0.23622047244094488,
                    "duration": 0.06952171874999635
                },
                {
                    "name": "G5",
                    "midi": 79,
                    "time": 71.65371812499967,
                    "velocity": 0.28346456692913385,
                    "duration": 0.06952171874999635
                },
                {
                    "name": "A4",
                    "midi": 69,
                    "time": 71.74641374999966,
                    "velocity": 0.1968503937007874,
                    "duration": 0.06952171874999635
                },
                {
                    "name": "D#5",
                    "midi": 75,
                    "time": 71.74641374999966,
                    "velocity": 0.1968503937007874,
                    "duration": 0.06952171874999635
                },
                {
                    "name": "F5",
                    "midi": 77,
                    "time": 71.74641374999966,
                    "velocity": 0.23622047244094488,
                    "duration": 0.06952171874999635
                },
                {
                    "name": "A#4",
                    "midi": 70,
                    "time": 71.83910937499965,
                    "velocity": 0.18110236220472442,
                    "duration": 0.06952171874999635
                },
                {
                    "name": "D#5",
                    "midi": 75,
                    "time": 71.83910937499965,
                    "velocity": 0.2204724409448819,
                    "duration": 0.06952171874999635
                },
                {
                    "name": "A#4",
                    "midi": 70,
                    "time": 71.93180499999964,
                    "velocity": 0.2204724409448819,
                    "duration": 0.06952171874999635
                },
                {
                    "name": "D#5",
                    "midi": 75,
                    "time": 71.93180499999964,
                    "velocity": 0.2677165354330709,
                    "duration": 0.13286372916665812
                },
                {
                    "name": "C5",
                    "midi": 72,
                    "time": 72.02450062499963,
                    "velocity": 0.2204724409448819,
                    "duration": 0.06952171874999635
                },
                {
                    "name": "C5",
                    "midi": 72,
                    "time": 72.11719624999962,
                    "velocity": 0.18110236220472442,
                    "duration": 0.06952171874999635
                },
                {
                    "name": "D#5",
                    "midi": 75,
                    "time": 72.11719624999962,
                    "velocity": 0.2204724409448819,
                    "duration": 0.06952171874999635
                },
                {
                    "name": "G4",
                    "midi": 67,
                    "time": 72.20989187499961,
                    "velocity": 0.2204724409448819,
                    "duration": 0.06952171874999635
                },
                {
                    "name": "D#5",
                    "midi": 75,
                    "time": 72.20989187499961,
                    "velocity": 0.2204724409448819,
                    "duration": 0.06952171874999635
                },
                {
                    "name": "G5",
                    "midi": 79,
                    "time": 72.20989187499961,
                    "velocity": 0.2677165354330709,
                    "duration": 0.06952171874999635
                },
                {
                    "name": "A4",
                    "midi": 69,
                    "time": 72.3025874999996,
                    "velocity": 0.1889763779527559,
                    "duration": 0.06952171874999635
                },
                {
                    "name": "D#5",
                    "midi": 75,
                    "time": 72.3025874999996,
                    "velocity": 0.1889763779527559,
                    "duration": 0.06952171874999635
                },
                {
                    "name": "F5",
                    "midi": 77,
                    "time": 72.3025874999996,
                    "velocity": 0.2283464566929134,
                    "duration": 0.06952171874999635
                },
                {
                    "name": "A#4",
                    "midi": 70,
                    "time": 72.3952831249996,
                    "velocity": 0.2204724409448819,
                    "duration": 0.06952171874999635
                },
                {
                    "name": "D#5",
                    "midi": 75,
                    "time": 72.3952831249996,
                    "velocity": 0.2677165354330709,
                    "duration": 0.06952171874999635
                },
                {
                    "name": "A#4",
                    "midi": 70,
                    "time": 72.48797874999958,
                    "velocity": 0.1968503937007874,
                    "duration": 0.06952171874999635
                },
                {
                    "name": "D#5",
                    "midi": 75,
                    "time": 72.48797874999958,
                    "velocity": 0.23622047244094488,
                    "duration": 0.13286372916665812
                },
                {
                    "name": "C5",
                    "midi": 72,
                    "time": 72.58067437499957,
                    "velocity": 0.23622047244094488,
                    "duration": 0.06952171874999635
                },
                {
                    "name": "C5",
                    "midi": 72,
                    "time": 72.67336999999957,
                    "velocity": 0.1968503937007874,
                    "duration": 0.06952171874999635
                },
                {
                    "name": "D#5",
                    "midi": 75,
                    "time": 72.67336999999957,
                    "velocity": 0.23622047244094488,
                    "duration": 0.06952171874999635
                },
                {
                    "name": "A#3",
                    "midi": 58,
                    "time": 73.04415249999956,
                    "velocity": 0.3464566929133858,
                    "duration": 0.03089854166667294
                },
                {
                    "name": "C4",
                    "midi": 60,
                    "time": 73.07505104166623,
                    "velocity": 0.31496062992125984,
                    "duration": 0.03089854166667294
                },
                {
                    "name": "A#3",
                    "midi": 58,
                    "time": 73.1059495833329,
                    "velocity": 0.3543307086614173,
                    "duration": 0.06179708333333167
                },
                {
                    "name": "A3",
                    "midi": 57,
                    "time": 73.16774666666623,
                    "velocity": 0.29133858267716534,
                    "duration": 0.12359416666666334
                },
                {
                    "name": "G3",
                    "midi": 55,
                    "time": 73.2913408333329,
                    "velocity": 0.29133858267716534,
                    "duration": 0.12359416666666334
                },
                {
                    "name": "F3",
                    "midi": 53,
                    "time": 73.41493499999956,
                    "velocity": 0.33070866141732286,
                    "duration": 0.12359416666666334
                },
                {
                    "name": "G3",
                    "midi": 55,
                    "time": 73.53852916666622,
                    "velocity": 0.29133858267716534,
                    "duration": 0.12359416666666334
                },
                {
                    "name": "A3",
                    "midi": 57,
                    "time": 73.66212333333289,
                    "velocity": 0.31496062992125984,
                    "duration": 0.12359416666666334
                },
                {
                    "name": "D#3",
                    "midi": 51,
                    "time": 73.78571749999955,
                    "velocity": 0.3543307086614173,
                    "duration": 0.37078249999999
                },
                {
                    "name": "A#3",
                    "midi": 58,
                    "time": 73.78571749999955,
                    "velocity": 0.3464566929133858,
                    "duration": 0.12359416666666334
                },
                {
                    "name": "A3",
                    "midi": 57,
                    "time": 73.90931166666621,
                    "velocity": 0.2992125984251969,
                    "duration": 0.12359416666666334
                },
                {
                    "name": "A#3",
                    "midi": 58,
                    "time": 74.03290583333288,
                    "velocity": 0.2992125984251969,
                    "duration": 0.12359416666666334
                },
                {
                    "name": "F3",
                    "midi": 53,
                    "time": 74.15649999999954,
                    "velocity": 0.3543307086614173,
                    "duration": 0.37078249999999
                },
                {
                    "name": "D4",
                    "midi": 62,
                    "time": 74.15649999999954,
                    "velocity": 0.33070866141732286,
                    "duration": 0.12359416666666334
                },
                {
                    "name": "C4",
                    "midi": 60,
                    "time": 74.2800941666662,
                    "velocity": 0.28346456692913385,
                    "duration": 0.12359416666666334
                },
                {
                    "name": "D4",
                    "midi": 62,
                    "time": 74.40368833333287,
                    "velocity": 0.2755905511811024,
                    "duration": 0.12359416666666334
                },
                {
                    "name": "D#4",
                    "midi": 63,
                    "time": 74.52728249999953,
                    "velocity": 0.31496062992125984,
                    "duration": 0.12359416666666334
                },
                {
                    "name": "G3",
                    "midi": 55,
                    "time": 74.52728249999953,
                    "velocity": 0.3543307086614173,
                    "duration": 0.37078249999999
                },
                {
                    "name": "D4",
                    "midi": 62,
                    "time": 74.65087666666619,
                    "velocity": 0.29133858267716534,
                    "duration": 0.12359416666666334
                },
                {
                    "name": "D#4",
                    "midi": 63,
                    "time": 74.77447083333286,
                    "velocity": 0.29133858267716534,
                    "duration": 0.12359416666666334
                },
                {
                    "name": "G3",
                    "midi": 55,
                    "time": 74.89806499999952,
                    "velocity": 0.3543307086614173,
                    "duration": 0.37078249999999
                },
                {
                    "name": "F4",
                    "midi": 65,
                    "time": 74.89806499999952,
                    "velocity": 0.33070866141732286,
                    "duration": 0.12359416666666334
                },
                {
                    "name": "D4",
                    "midi": 62,
                    "time": 75.02165916666618,
                    "velocity": 0.29133858267716534,
                    "duration": 0.12359416666666334
                },
                {
                    "name": "B3",
                    "midi": 59,
                    "time": 75.14525333333285,
                    "velocity": 0.31496062992125984,
                    "duration": 0.12359416666666334
                },
                {
                    "name": "C4",
                    "midi": 60,
                    "time": 75.26884749999951,
                    "velocity": 0.3543307086614173,
                    "duration": 0.12359416666666334
                },
                {
                    "name": "C3",
                    "midi": 48,
                    "time": 75.26884749999951,
                    "velocity": 0.33070866141732286,
                    "duration": 1.8539124999999927
                },
                {
                    "name": "G3",
                    "midi": 55,
                    "time": 75.39244166666617,
                    "velocity": 0.29133858267716534,
                    "duration": 0.12359416666666334
                },
                {
                    "name": "D#3",
                    "midi": 51,
                    "time": 75.51603583333284,
                    "velocity": 0.29133858267716534,
                    "duration": 1.606724166666666
                },
                {
                    "name": "G1",
                    "midi": 31,
                    "time": 77.1227599999995,
                    "velocity": 0.4409448818897638,
                    "duration": 0.37078250000000423
                },
                {
                    "name": "G2",
                    "midi": 43,
                    "time": 77.1227599999995,
                    "velocity": 0.4409448818897638,
                    "duration": 0.37078250000000423
                },
                {
                    "name": "C2",
                    "midi": 36,
                    "time": 77.4935424999995,
                    "velocity": 0.4881889763779528,
                    "duration": 0.37078250000000423
                },
                {
                    "name": "C3",
                    "midi": 48,
                    "time": 77.4935424999995,
                    "velocity": 0.4881889763779528,
                    "duration": 0.37078250000000423
                },
                {
                    "name": "D2",
                    "midi": 38,
                    "time": 77.86432499999951,
                    "velocity": 0.41732283464566927,
                    "duration": 0.37078250000000423
                },
                {
                    "name": "D3",
                    "midi": 50,
                    "time": 77.86432499999951,
                    "velocity": 0.41732283464566927,
                    "duration": 0.37078250000000423
                },
                {
                    "name": "E2",
                    "midi": 40,
                    "time": 78.23510749999951,
                    "velocity": 0.47244094488188976,
                    "duration": 0.37078250000000423
                },
                {
                    "name": "E3",
                    "midi": 52,
                    "time": 78.23510749999951,
                    "velocity": 0.47244094488188976,
                    "duration": 0.37078250000000423
                },
                {
                    "name": "C2",
                    "midi": 36,
                    "time": 78.60588999999952,
                    "velocity": 0.4094488188976378,
                    "duration": 0.37078250000000423
                },
                {
                    "name": "C3",
                    "midi": 48,
                    "time": 78.60588999999952,
                    "velocity": 0.4094488188976378,
                    "duration": 0.37078250000000423
                },
                {
                    "name": "B1",
                    "midi": 35,
                    "time": 78.97667249999952,
                    "velocity": 0.4881889763779528,
                    "duration": 0.37078250000000423
                },
                {
                    "name": "B2",
                    "midi": 47,
                    "time": 78.97667249999952,
                    "velocity": 0.4881889763779528,
                    "duration": 0.3862317708333336
                },
                {
                    "name": "C2",
                    "midi": 36,
                    "time": 79.34745499999953,
                    "velocity": 0.33858267716535434,
                    "duration": 0.37078249999999
                },
                {
                    "name": "C3",
                    "midi": 48,
                    "time": 79.34745499999953,
                    "velocity": 0.33858267716535434,
                    "duration": 0.3862317708333194
                },
                {
                    "name": "G1",
                    "midi": 31,
                    "time": 79.71823749999952,
                    "velocity": 0.41732283464566927,
                    "duration": 0.7415649999999943
                },
                {
                    "name": "G2",
                    "midi": 43,
                    "time": 79.71823749999952,
                    "velocity": 0.41732283464566927,
                    "duration": 0.7261157291666649
                },
                {
                    "name": "C2",
                    "midi": 36,
                    "time": 80.45980249999951,
                    "velocity": 0.3543307086614173,
                    "duration": 0.7415649999999943
                },
                {
                    "name": "C3",
                    "midi": 48,
                    "time": 80.45980249999951,
                    "velocity": 0.41732283464566927,
                    "duration": 0.7415649999999943
                },
                {
                    "name": "G2",
                    "midi": 43,
                    "time": 81.2013674999995,
                    "velocity": 0.3858267716535433,
                    "duration": 0.7415649999999943
                },
                {
                    "name": "G3",
                    "midi": 55,
                    "time": 81.2013674999995,
                    "velocity": 0.4566929133858268,
                    "duration": 0.7415649999999943
                },
                {
                    "name": "E2",
                    "midi": 40,
                    "time": 81.9429324999995,
                    "velocity": 0.3543307086614173,
                    "duration": 0.37078250000000423
                },
                {
                    "name": "E3",
                    "midi": 52,
                    "time": 81.9429324999995,
                    "velocity": 0.41732283464566927,
                    "duration": 0.37078250000000423
                },
                {
                    "name": "D2",
                    "midi": 38,
                    "time": 82.3137149999995,
                    "velocity": 0.3700787401574803,
                    "duration": 0.37078250000000423
                },
                {
                    "name": "D3",
                    "midi": 50,
                    "time": 82.3137149999995,
                    "velocity": 0.4409448818897638,
                    "duration": 0.37078250000000423
                },
                {
                    "name": "C3",
                    "midi": 48,
                    "time": 82.68449749999951,
                    "velocity": 0.47244094488188976,
                    "duration": 0.37078250000000423
                },
                {
                    "name": "C2",
                    "midi": 36,
                    "time": 82.68449749999951,
                    "velocity": 0.4015748031496063,
                    "duration": 0.37078250000000423
                },
                {
                    "name": "G1",
                    "midi": 31,
                    "time": 83.05527999999951,
                    "velocity": 0.4409448818897638,
                    "duration": 0.37078250000000423
                },
                {
                    "name": "G2",
                    "midi": 43,
                    "time": 83.05527999999951,
                    "velocity": 0.4409448818897638,
                    "duration": 0.37078250000000423
                },
                {
                    "name": "C2",
                    "midi": 36,
                    "time": 83.42606249999952,
                    "velocity": 0.4881889763779528,
                    "duration": 0.37078250000000423
                },
                {
                    "name": "C3",
                    "midi": 48,
                    "time": 83.42606249999952,
                    "velocity": 0.4881889763779528,
                    "duration": 0.37078250000000423
                },
                {
                    "name": "D2",
                    "midi": 38,
                    "time": 83.79684499999952,
                    "velocity": 0.41732283464566927,
                    "duration": 0.37078250000000423
                },
                {
                    "name": "D3",
                    "midi": 50,
                    "time": 83.79684499999952,
                    "velocity": 0.41732283464566927,
                    "duration": 0.37078250000000423
                },
                {
                    "name": "E2",
                    "midi": 40,
                    "time": 84.16762749999953,
                    "velocity": 0.47244094488188976,
                    "duration": 0.37078250000000423
                },
                {
                    "name": "E3",
                    "midi": 52,
                    "time": 84.16762749999953,
                    "velocity": 0.47244094488188976,
                    "duration": 0.37078250000000423
                },
                {
                    "name": "C2",
                    "midi": 36,
                    "time": 84.53840999999953,
                    "velocity": 0.4094488188976378,
                    "duration": 0.37078250000000423
                },
                {
                    "name": "C3",
                    "midi": 48,
                    "time": 84.53840999999953,
                    "velocity": 0.4094488188976378,
                    "duration": 0.37078250000000423
                },
                {
                    "name": "B1",
                    "midi": 35,
                    "time": 84.90919249999953,
                    "velocity": 0.4881889763779528,
                    "duration": 0.37078250000000423
                },
                {
                    "name": "B2",
                    "midi": 47,
                    "time": 84.90919249999953,
                    "velocity": 0.4881889763779528,
                    "duration": 0.3862317708333336
                },
                {
                    "name": "C2",
                    "midi": 36,
                    "time": 85.27997499999954,
                    "velocity": 0.33858267716535434,
                    "duration": 0.37078249999999
                },
                {
                    "name": "C3",
                    "midi": 48,
                    "time": 85.27997499999954,
                    "velocity": 0.33858267716535434,
                    "duration": 0.3862317708333194
                },
                {
                    "name": "G1",
                    "midi": 31,
                    "time": 85.65075749999953,
                    "velocity": 0.41732283464566927,
                    "duration": 0.7415649999999943
                },
                {
                    "name": "G2",
                    "midi": 43,
                    "time": 85.65075749999953,
                    "velocity": 0.41732283464566927,
                    "duration": 0.7261157291666649
                },
                {
                    "name": "G#1",
                    "midi": 32,
                    "time": 86.39232249999952,
                    "velocity": 0.2755905511811024,
                    "duration": 0.7415649999999943
                },
                {
                    "name": "G#2",
                    "midi": 44,
                    "time": 86.39232249999952,
                    "velocity": 0.33070866141732286,
                    "duration": 0.7415649999999943
                },
                {
                    "name": "C#2",
                    "midi": 37,
                    "time": 87.13388749999952,
                    "velocity": 0.2755905511811024,
                    "duration": 0.7415649999999943
                },
                {
                    "name": "C#3",
                    "midi": 49,
                    "time": 87.13388749999952,
                    "velocity": 0.33070866141732286,
                    "duration": 0.7415649999999943
                },
                {
                    "name": "C2",
                    "midi": 36,
                    "time": 87.87545249999951,
                    "velocity": 0.3464566929133858,
                    "duration": 0.37078250000000423
                },
                {
                    "name": "C3",
                    "midi": 48,
                    "time": 87.87545249999951,
                    "velocity": 0.3464566929133858,
                    "duration": 0.3862317708333336
                },
                {
                    "name": "A#1",
                    "midi": 34,
                    "time": 88.24623499999952,
                    "velocity": 0.2283464566929134,
                    "duration": 0.37078249999999
                },
                {
                    "name": "A#2",
                    "midi": 46,
                    "time": 88.24623499999952,
                    "velocity": 0.2283464566929134,
                    "duration": 0.3862317708333194
                },
                {
                    "name": "G#1",
                    "midi": 32,
                    "time": 88.6170174999995,
                    "velocity": 0.33070866141732286,
                    "duration": 0.7415649999999943
                },
                {
                    "name": "G#2",
                    "midi": 44,
                    "time": 88.6170174999995,
                    "velocity": 0.33070866141732286,
                    "duration": 0.7261157291666649
                },
                {
                    "name": "G1",
                    "midi": 31,
                    "time": 89.3585824999995,
                    "velocity": 0.33070866141732286,
                    "duration": 0.7415649999999943
                },
                {
                    "name": "G2",
                    "midi": 43,
                    "time": 89.3585824999995,
                    "velocity": 0.33070866141732286,
                    "duration": 0.7415649999999943
                },
                {
                    "name": "G2",
                    "midi": 43,
                    "time": 90.1001474999995,
                    "velocity": 0.33070866141732286,
                    "duration": 0.74156499999998
                },
                {
                    "name": "D3",
                    "midi": 50,
                    "time": 90.28553874999949,
                    "velocity": 0.33070866141732286,
                    "duration": 0.185391249999995
                },
                {
                    "name": "G3",
                    "midi": 55,
                    "time": 90.47092999999948,
                    "velocity": 0.4015748031496063,
                    "duration": 0.185391249999995
                },
                {
                    "name": "F3",
                    "midi": 53,
                    "time": 90.65632124999948,
                    "velocity": 0.3779527559055118,
                    "duration": 0.185391249999995
                },
                {
                    "name": "E3",
                    "midi": 52,
                    "time": 90.84171249999947,
                    "velocity": 0.4330708661417323,
                    "duration": 0.37078250000000423
                },
                {
                    "name": "G2",
                    "midi": 43,
                    "time": 90.84171249999947,
                    "velocity": 0.4330708661417323,
                    "duration": 1.4831300000000027
                },
                {
                    "name": "F3",
                    "midi": 53,
                    "time": 91.21249499999948,
                    "velocity": 0.4330708661417323,
                    "duration": 0.185391249999995
                },
                {
                    "name": "E3",
                    "midi": 52,
                    "time": 91.39788624999947,
                    "velocity": 0.3858267716535433,
                    "duration": 0.185391249999995
                },
                {
                    "name": "D3",
                    "midi": 50,
                    "time": 91.58327749999947,
                    "velocity": 0.4251968503937008,
                    "duration": 0.37078250000000423
                },
                {
                    "name": "G3",
                    "midi": 55,
                    "time": 91.95405999999947,
                    "velocity": 0.3937007874015748,
                    "duration": 0.37078250000000423
                },
                {
                    "name": "C3",
                    "midi": 48,
                    "time": 92.32484249999948,
                    "velocity": 0.3543307086614173,
                    "duration": 0.7415650000000085
                },
                {
                    "name": "C4",
                    "midi": 60,
                    "time": 92.32484249999948,
                    "velocity": 0.4251968503937008,
                    "duration": 0.37078250000000423
                },
                {
                    "name": "A#3",
                    "midi": 58,
                    "time": 92.69562499999948,
                    "velocity": 0.44881889763779526,
                    "duration": 0.37078250000000423
                },
                {
                    "name": "F3",
                    "midi": 53,
                    "time": 93.06640749999949,
                    "velocity": 0.4094488188976378,
                    "duration": 0.7415650000000085
                },
                {
                    "name": "A3",
                    "midi": 57,
                    "time": 93.06640749999949,
                    "velocity": 0.4881889763779528,
                    "duration": 0.37078250000000423
                },
                {
                    "name": "B3",
                    "midi": 59,
                    "time": 93.43718999999949,
                    "velocity": 0.4330708661417323,
                    "duration": 0.37078250000000423
                },
                {
                    "name": "E3",
                    "midi": 52,
                    "time": 93.8079724999995,
                    "velocity": 0.3543307086614173,
                    "duration": 0.37078250000000423
                },
                {
                    "name": "C4",
                    "midi": 60,
                    "time": 93.8079724999995,
                    "velocity": 0.4251968503937008,
                    "duration": 0.37078250000000423
                },
                {
                    "name": "D3",
                    "midi": 50,
                    "time": 94.1787549999995,
                    "velocity": 0.2992125984251969,
                    "duration": 0.37078250000000423
                },
                {
                    "name": "B3",
                    "midi": 59,
                    "time": 94.1787549999995,
                    "velocity": 0.3543307086614173,
                    "duration": 0.37078250000000423
                },
                {
                    "name": "C3",
                    "midi": 48,
                    "time": 94.5495374999995,
                    "velocity": 0.28346456692913385,
                    "duration": 0.7415649999999943
                },
                {
                    "name": "C4",
                    "midi": 60,
                    "time": 94.5495374999995,
                    "velocity": 0.3464566929133858,
                    "duration": 0.7415649999999943
                },
                {
                    "name": "F2",
                    "midi": 41,
                    "time": 95.2911024999995,
                    "velocity": 0.28346456692913385,
                    "duration": 0.7415649999999943
                },
                {
                    "name": "C3",
                    "midi": 48,
                    "time": 95.2911024999995,
                    "velocity": 0.28346456692913385,
                    "duration": 0.7415649999999943
                },
                {
                    "name": "F3",
                    "midi": 53,
                    "time": 95.2911024999995,
                    "velocity": 0.33858267716535434,
                    "duration": 0.7415649999999943
                },
                {
                    "name": "F#2",
                    "midi": 42,
                    "time": 96.03266749999949,
                    "velocity": 0.33858267716535434,
                    "duration": 0.7415649999999943
                },
                {
                    "name": "D3",
                    "midi": 50,
                    "time": 96.03266749999949,
                    "velocity": 0.33858267716535434,
                    "duration": 0.7415649999999943
                },
                {
                    "name": "F#3",
                    "midi": 54,
                    "time": 96.03266749999949,
                    "velocity": 0.4015748031496063,
                    "duration": 0.7415649999999943
                },
                {
                    "name": "A2",
                    "midi": 45,
                    "time": 96.77423249999948,
                    "velocity": 0.3937007874015748,
                    "duration": 0.7415649999999943
                },
                {
                    "name": "D3",
                    "midi": 50,
                    "time": 96.77423249999948,
                    "velocity": 0.3937007874015748,
                    "duration": 0.7415649999999943
                },
                {
                    "name": "A3",
                    "midi": 57,
                    "time": 96.77423249999948,
                    "velocity": 0.4645669291338583,
                    "duration": 0.7415649999999943
                },
                {
                    "name": "G#2",
                    "midi": 44,
                    "time": 97.51579749999948,
                    "velocity": 0.5196850393700787,
                    "duration": 0.09269562500000461
                },
                {
                    "name": "D#3",
                    "midi": 51,
                    "time": 97.51579749999948,
                    "velocity": 0.5196850393700787,
                    "duration": 0.09269562500000461
                },
                {
                    "name": "G#3",
                    "midi": 56,
                    "time": 97.51579749999948,
                    "velocity": 0.6141732283464567,
                    "duration": 0.09269562500000461
                },
                {
                    "name": "C4",
                    "midi": 60,
                    "time": 97.63939166666616,
                    "velocity": 0.4094488188976378,
                    "duration": 0.09269562500000461
                },
                {
                    "name": "D#4",
                    "midi": 63,
                    "time": 97.63939166666616,
                    "velocity": 0.4094488188976378,
                    "duration": 0.09269562500000461
                },
                {
                    "name": "F#4",
                    "midi": 66,
                    "time": 97.63939166666616,
                    "velocity": 0.4881889763779528,
                    "duration": 0.09269562500000461
                },
                {
                    "name": "C4",
                    "midi": 60,
                    "time": 97.76298583333283,
                    "velocity": 0.41732283464566927,
                    "duration": 0.09269562500000461
                },
                {
                    "name": "D#4",
                    "midi": 63,
                    "time": 97.76298583333283,
                    "velocity": 0.41732283464566927,
                    "duration": 0.09269562500000461
                },
                {
                    "name": "F#4",
                    "midi": 66,
                    "time": 97.76298583333283,
                    "velocity": 0.49606299212598426,
                    "duration": 0.09269562500000461
                },
                {
                    "name": "C4",
                    "midi": 60,
                    "time": 97.88657999999951,
                    "velocity": 0.5039370078740157,
                    "duration": 0.09269562500000461
                },
                {
                    "name": "D#4",
                    "midi": 63,
                    "time": 97.88657999999951,
                    "velocity": 0.5039370078740157,
                    "duration": 0.09269562500000461
                },
                {
                    "name": "F#4",
                    "midi": 66,
                    "time": 97.88657999999951,
                    "velocity": 0.5984251968503937,
                    "duration": 0.09269562500000461
                },
                {
                    "name": "C4",
                    "midi": 60,
                    "time": 98.01017416666619,
                    "velocity": 0.4409448818897638,
                    "duration": 0.09269562500000461
                },
                {
                    "name": "D#4",
                    "midi": 63,
                    "time": 98.01017416666619,
                    "velocity": 0.4409448818897638,
                    "duration": 0.09269562500000461
                },
                {
                    "name": "F4",
                    "midi": 65,
                    "time": 98.01017416666619,
                    "velocity": 0.5196850393700787,
                    "duration": 0.09269562500000461
                },
                {
                    "name": "C4",
                    "midi": 60,
                    "time": 98.13376833333287,
                    "velocity": 0.44881889763779526,
                    "duration": 0.07724635416666104
                },
                {
                    "name": "D#4",
                    "midi": 63,
                    "time": 98.13376833333287,
                    "velocity": 0.44881889763779526,
                    "duration": 0.07724635416666104
                },
                {
                    "name": "F#4",
                    "midi": 66,
                    "time": 98.13376833333287,
                    "velocity": 0.5275590551181102,
                    "duration": 0.07724635416666104
                },
                {
                    "name": "G2",
                    "midi": 43,
                    "time": 98.21101468749953,
                    "velocity": 0.48031496062992124,
                    "duration": 0.046347812500002306
                },
                {
                    "name": "E3",
                    "midi": 52,
                    "time": 98.21101468749953,
                    "velocity": 0.48031496062992124,
                    "duration": 0.046347812500002306
                },
                {
                    "name": "G3",
                    "midi": 55,
                    "time": 98.21101468749953,
                    "velocity": 0.5354330708661418,
                    "duration": 0.046347812500002306
                },
                {
                    "name": "E4",
                    "midi": 64,
                    "time": 98.25736249999953,
                    "velocity": 0.4881889763779528,
                    "duration": 0.09269562500000461
                },
                {
                    "name": "G4",
                    "midi": 67,
                    "time": 98.25736249999953,
                    "velocity": 0.5748031496062992,
                    "duration": 0.09269562500000461
                },
                {
                    "name": "C4",
                    "midi": 60,
                    "time": 98.38095666666621,
                    "velocity": 0.4330708661417323,
                    "duration": 0.09269562500000461
                },
                {
                    "name": "G4",
                    "midi": 67,
                    "time": 98.38095666666621,
                    "velocity": 0.5118110236220472,
                    "duration": 0.09269562500000461
                },
                {
                    "name": "G3",
                    "midi": 55,
                    "time": 98.50455083333289,
                    "velocity": 0.4409448818897638,
                    "duration": 0.09269562500000461
                },
                {
                    "name": "E4",
                    "midi": 64,
                    "time": 98.50455083333289,
                    "velocity": 0.5196850393700787,
                    "duration": 0.09269562500000461
                },
                {
                    "name": "E3",
                    "midi": 52,
                    "time": 98.62814499999956,
                    "velocity": 0.49606299212598426,
                    "duration": 0.09269562500000461
                },
                {
                    "name": "C4",
                    "midi": 60,
                    "time": 98.62814499999956,
                    "velocity": 0.5905511811023622,
                    "duration": 0.09269562500000461
                },
                {
                    "name": "C3",
                    "midi": 48,
                    "time": 98.75173916666624,
                    "velocity": 0.41732283464566927,
                    "duration": 0.09269562500000461
                },
                {
                    "name": "G3",
                    "midi": 55,
                    "time": 98.75173916666624,
                    "velocity": 0.4881889763779528,
                    "duration": 0.09269562500000461
                },
                {
                    "name": "A2",
                    "midi": 45,
                    "time": 98.87533333333292,
                    "velocity": 0.41732283464566927,
                    "duration": 0.09269562500000461
                },
                {
                    "name": "E3",
                    "midi": 52,
                    "time": 98.87533333333292,
                    "velocity": 0.4881889763779528,
                    "duration": 0.09269562500000461
                },
                {
                    "name": "G2",
                    "midi": 43,
                    "time": 98.9989274999996,
                    "velocity": 0.49606299212598426,
                    "duration": 0.46347812500003727
                },
                {
                    "name": "F3",
                    "midi": 53,
                    "time": 98.9989274999996,
                    "velocity": 0.5905511811023622,
                    "duration": 0.09269562500000461
                },
                {
                    "name": "D3",
                    "midi": 50,
                    "time": 99.12252166666627,
                    "velocity": 0.5196850393700787,
                    "duration": 0.09269562500000461
                },
                {
                    "name": "B2",
                    "midi": 47,
                    "time": 99.24611583333295,
                    "velocity": 0.5196850393700787,
                    "duration": 0.09269562500000461
                },
                {
                    "name": "G2",
                    "midi": 43,
                    "time": 99.36970999999963,
                    "velocity": 0.5433070866141733,
                    "duration": 0.37078250000003266
                },
                {
                    "name": "F2",
                    "midi": 41,
                    "time": 99.4933041666663,
                    "velocity": 0.4645669291338583,
                    "duration": 0.09269562500000461
                },
                {
                    "name": "D2",
                    "midi": 38,
                    "time": 99.61689833333298,
                    "velocity": 0.4645669291338583,
                    "duration": 0.09269562500000461
                },
                {
                    "name": "C2",
                    "midi": 36,
                    "time": 99.74049249999966,
                    "velocity": 0.31496062992125984,
                    "duration": 0.35224337500000047
                },
                {
                    "name": "C2",
                    "midi": 36,
                    "time": 100.11127499999967,
                    "velocity": 0.28346456692913385,
                    "duration": 0.35224337500000047
                },
                {
                    "name": "C2",
                    "midi": 36,
                    "time": 100.48205749999967,
                    "velocity": 0.25196850393700787,
                    "duration": 0.35224337500000047
                },
                {
                    "name": "C3",
                    "midi": 48,
                    "time": 100.85283999999967,
                    "velocity": 0.29133858267716534,
                    "duration": 0.35224337500000047
                },
                {
                    "name": "G3",
                    "midi": 55,
                    "time": 100.85283999999967,
                    "velocity": 0.29133858267716534,
                    "duration": 0.35224337500000047
                },
                {
                    "name": "C3",
                    "midi": 48,
                    "time": 101.22362249999968,
                    "velocity": 0.33070866141732286,
                    "duration": 0.35224337500000047
                },
                {
                    "name": "B3",
                    "midi": 59,
                    "time": 101.22362249999968,
                    "velocity": 0.33070866141732286,
                    "duration": 0.35224337500000047
                },
                {
                    "name": "C3",
                    "midi": 48,
                    "time": 101.59440499999968,
                    "velocity": 0.28346456692913385,
                    "duration": 0.35224337500000047
                },
                {
                    "name": "C4",
                    "midi": 60,
                    "time": 101.59440499999968,
                    "velocity": 0.28346456692913385,
                    "duration": 0.35224337500000047
                },
                {
                    "name": "C3",
                    "midi": 48,
                    "time": 101.96518749999969,
                    "velocity": 0.28346456692913385,
                    "duration": 0.35224337500000047
                },
                {
                    "name": "E4",
                    "midi": 64,
                    "time": 101.96518749999969,
                    "velocity": 0.28346456692913385,
                    "duration": 0.35224337500000047
                },
                {
                    "name": "C3",
                    "midi": 48,
                    "time": 102.33596999999969,
                    "velocity": 0.23622047244094488,
                    "duration": 0.35224337500000047
                },
                {
                    "name": "B3",
                    "midi": 59,
                    "time": 102.33596999999969,
                    "velocity": 0.23622047244094488,
                    "duration": 0.35224337500000047
                },
                {
                    "name": "C3",
                    "midi": 48,
                    "time": 102.7067524999997,
                    "velocity": 0.33070866141732286,
                    "duration": 0.35224337500000047
                },
                {
                    "name": "A3",
                    "midi": 57,
                    "time": 102.7067524999997,
                    "velocity": 0.33070866141732286,
                    "duration": 0.7415650000000085
                },
                {
                    "name": "C3",
                    "midi": 48,
                    "time": 103.0775349999997,
                    "velocity": 0.28346456692913385,
                    "duration": 0.35224337500000047
                },
                {
                    "name": "C3",
                    "midi": 48,
                    "time": 103.4483174999997,
                    "velocity": 0.28346456692913385,
                    "duration": 0.35224337500000047
                },
                {
                    "name": "C3",
                    "midi": 48,
                    "time": 103.81909999999971,
                    "velocity": 0.29133858267716534,
                    "duration": 0.35224337500000047
                },
                {
                    "name": "A3",
                    "midi": 57,
                    "time": 103.81909999999971,
                    "velocity": 0.29133858267716534,
                    "duration": 0.35224337500000047
                },
                {
                    "name": "C3",
                    "midi": 48,
                    "time": 104.18988249999971,
                    "velocity": 0.33070866141732286,
                    "duration": 0.35224337500000047
                },
                {
                    "name": "A3",
                    "midi": 57,
                    "time": 104.18988249999971,
                    "velocity": 0.33070866141732286,
                    "duration": 0.35224337500000047
                },
                {
                    "name": "C3",
                    "midi": 48,
                    "time": 104.56066499999972,
                    "velocity": 0.28346456692913385,
                    "duration": 0.35224337500000047
                },
                {
                    "name": "B3",
                    "midi": 59,
                    "time": 104.56066499999972,
                    "velocity": 0.28346456692913385,
                    "duration": 0.35224337500000047
                },
                {
                    "name": "C3",
                    "midi": 48,
                    "time": 104.93144749999972,
                    "velocity": 0.28346456692913385,
                    "duration": 0.35224337500000047
                },
                {
                    "name": "D4",
                    "midi": 62,
                    "time": 104.93144749999972,
                    "velocity": 0.28346456692913385,
                    "duration": 0.35224337500000047
                },
                {
                    "name": "C3",
                    "midi": 48,
                    "time": 105.30222999999972,
                    "velocity": 0.23622047244094488,
                    "duration": 0.35224337500000047
                },
                {
                    "name": "A3",
                    "midi": 57,
                    "time": 105.30222999999972,
                    "velocity": 0.23622047244094488,
                    "duration": 0.35224337500000047
                },
                {
                    "name": "C3",
                    "midi": 48,
                    "time": 105.67301249999973,
                    "velocity": 0.33070866141732286,
                    "duration": 0.35224337500000047
                },
                {
                    "name": "G3",
                    "midi": 55,
                    "time": 105.67301249999973,
                    "velocity": 0.33070866141732286,
                    "duration": 0.7415650000000085
                },
                {
                    "name": "C3",
                    "midi": 48,
                    "time": 106.04379499999973,
                    "velocity": 0.28346456692913385,
                    "duration": 0.35224337500000047
                },
                {
                    "name": "C3",
                    "midi": 48,
                    "time": 106.41457749999974,
                    "velocity": 0.28346456692913385,
                    "duration": 0.35224337500000047
                },
                {
                    "name": "C3",
                    "midi": 48,
                    "time": 106.78535999999974,
                    "velocity": 0.29133858267716534,
                    "duration": 0.35224337500000047
                },
                {
                    "name": "G3",
                    "midi": 55,
                    "time": 106.78535999999974,
                    "velocity": 0.29133858267716534,
                    "duration": 0.35224337500000047
                },
                {
                    "name": "C3",
                    "midi": 48,
                    "time": 107.15614249999975,
                    "velocity": 0.33070866141732286,
                    "duration": 0.35224337500000047
                },
                {
                    "name": "G3",
                    "midi": 55,
                    "time": 107.15614249999975,
                    "velocity": 0.33070866141732286,
                    "duration": 0.35224337500000047
                },
                {
                    "name": "C3",
                    "midi": 48,
                    "time": 107.52692499999975,
                    "velocity": 0.28346456692913385,
                    "duration": 0.35224337500000047
                },
                {
                    "name": "A3",
                    "midi": 57,
                    "time": 107.52692499999975,
                    "velocity": 0.28346456692913385,
                    "duration": 0.35224337500000047
                },
                {
                    "name": "C3",
                    "midi": 48,
                    "time": 107.89770749999975,
                    "velocity": 0.28346456692913385,
                    "duration": 0.35224337500000047
                },
                {
                    "name": "C4",
                    "midi": 60,
                    "time": 107.89770749999975,
                    "velocity": 0.28346456692913385,
                    "duration": 0.35224337500000047
                },
                {
                    "name": "C3",
                    "midi": 48,
                    "time": 108.26848999999976,
                    "velocity": 0.23622047244094488,
                    "duration": 0.35224337500000047
                },
                {
                    "name": "G3",
                    "midi": 55,
                    "time": 108.26848999999976,
                    "velocity": 0.23622047244094488,
                    "duration": 0.35224337500000047
                },
                {
                    "name": "C3",
                    "midi": 48,
                    "time": 108.63927249999976,
                    "velocity": 0.33070866141732286,
                    "duration": 0.35224337500000047
                },
                {
                    "name": "F3",
                    "midi": 53,
                    "time": 108.63927249999976,
                    "velocity": 0.33070866141732286,
                    "duration": 0.7415650000000085
                },
                {
                    "name": "C3",
                    "midi": 48,
                    "time": 109.01005499999977,
                    "velocity": 0.28346456692913385,
                    "duration": 0.35224337500000047
                },
                {
                    "name": "C3",
                    "midi": 48,
                    "time": 109.38083749999977,
                    "velocity": 0.28346456692913385,
                    "duration": 0.35224337500000047
                },
                {
                    "name": "C3",
                    "midi": 48,
                    "time": 109.75161999999978,
                    "velocity": 0.29133858267716534,
                    "duration": 0.35224337500000047
                },
                {
                    "name": "F3",
                    "midi": 53,
                    "time": 109.75161999999978,
                    "velocity": 0.29133858267716534,
                    "duration": 0.35224337500000047
                },
                {
                    "name": "C3",
                    "midi": 48,
                    "time": 110.12240249999978,
                    "velocity": 0.33070866141732286,
                    "duration": 0.35224337500000047
                },
                {
                    "name": "F3",
                    "midi": 53,
                    "time": 110.12240249999978,
                    "velocity": 0.33070866141732286,
                    "duration": 0.35224337500000047
                },
                {
                    "name": "C3",
                    "midi": 48,
                    "time": 110.49318499999978,
                    "velocity": 0.28346456692913385,
                    "duration": 0.35224337500000047
                },
                {
                    "name": "A3",
                    "midi": 57,
                    "time": 110.49318499999978,
                    "velocity": 0.28346456692913385,
                    "duration": 0.35224337500000047
                },
                {
                    "name": "C3",
                    "midi": 48,
                    "time": 110.86396749999979,
                    "velocity": 0.28346456692913385,
                    "duration": 0.35224337500000047
                },
                {
                    "name": "G3",
                    "midi": 55,
                    "time": 110.86396749999979,
                    "velocity": 0.28346456692913385,
                    "duration": 0.35224337500000047
                },
                {
                    "name": "C3",
                    "midi": 48,
                    "time": 111.23474999999979,
                    "velocity": 0.23622047244094488,
                    "duration": 0.35224337500000047
                },
                {
                    "name": "F3",
                    "midi": 53,
                    "time": 111.23474999999979,
                    "velocity": 0.23622047244094488,
                    "duration": 0.35224337500000047
                },
                {
                    "name": "C2",
                    "midi": 36,
                    "time": 111.6055324999998,
                    "velocity": 0.33070866141732286,
                    "duration": 0.35224337500000047
                },
                {
                    "name": "C3",
                    "midi": 48,
                    "time": 111.6055324999998,
                    "velocity": 0.33070866141732286,
                    "duration": 0.35224337500000047
                },
                {
                    "name": "G2",
                    "midi": 43,
                    "time": 111.9763149999998,
                    "velocity": 0.28346456692913385,
                    "duration": 0.35224337500000047
                },
                {
                    "name": "C2",
                    "midi": 36,
                    "time": 111.9763149999998,
                    "velocity": 0.28346456692913385,
                    "duration": 0.35224337500000047
                },
                {
                    "name": "C3",
                    "midi": 48,
                    "time": 112.3470974999998,
                    "velocity": 0.33070866141732286,
                    "duration": 0.35224337500000047
                },
                {
                    "name": "C2",
                    "midi": 36,
                    "time": 112.3470974999998,
                    "velocity": 0.28346456692913385,
                    "duration": 0.35224337500000047
                },
                {
                    "name": "C2",
                    "midi": 36,
                    "time": 112.71787999999981,
                    "velocity": 0.29133858267716534,
                    "duration": 0.35224337500000047
                },
                {
                    "name": "G2",
                    "midi": 43,
                    "time": 112.71787999999981,
                    "velocity": 0.29133858267716534,
                    "duration": 0.35224337500000047
                },
                {
                    "name": "C2",
                    "midi": 36,
                    "time": 113.08866249999981,
                    "velocity": 0.33070866141732286,
                    "duration": 0.35224337500000047
                },
                {
                    "name": "C3",
                    "midi": 48,
                    "time": 113.08866249999981,
                    "velocity": 0.33070866141732286,
                    "duration": 0.35224337500000047
                },
                {
                    "name": "G2",
                    "midi": 43,
                    "time": 113.45944499999982,
                    "velocity": 0.28346456692913385,
                    "duration": 0.35224337500000047
                },
                {
                    "name": "C2",
                    "midi": 36,
                    "time": 113.45944499999982,
                    "velocity": 0.28346456692913385,
                    "duration": 0.35224337500000047
                },
                {
                    "name": "C3",
                    "midi": 48,
                    "time": 113.83022749999982,
                    "velocity": 0.33070866141732286,
                    "duration": 0.35224337500000047
                },
                {
                    "name": "C2",
                    "midi": 36,
                    "time": 113.83022749999982,
                    "velocity": 0.28346456692913385,
                    "duration": 0.35224337500000047
                },
                {
                    "name": "C2",
                    "midi": 36,
                    "time": 114.20100999999983,
                    "velocity": 0.29133858267716534,
                    "duration": 0.35224337500000047
                },
                {
                    "name": "G2",
                    "midi": 43,
                    "time": 114.20100999999983,
                    "velocity": 0.29133858267716534,
                    "duration": 0.35224337500000047
                },
                {
                    "name": "C2",
                    "midi": 36,
                    "time": 114.57179249999983,
                    "velocity": 0.33070866141732286,
                    "duration": 0.35224337500000047
                },
                {
                    "name": "C3",
                    "midi": 48,
                    "time": 114.57179249999983,
                    "velocity": 0.33070866141732286,
                    "duration": 0.35224337500000047
                },
                {
                    "name": "G2",
                    "midi": 43,
                    "time": 114.94257499999983,
                    "velocity": 0.28346456692913385,
                    "duration": 0.35224337500000047
                },
                {
                    "name": "C2",
                    "midi": 36,
                    "time": 114.94257499999983,
                    "velocity": 0.28346456692913385,
                    "duration": 0.35224337500000047
                },
                {
                    "name": "C3",
                    "midi": 48,
                    "time": 115.31335749999984,
                    "velocity": 0.33070866141732286,
                    "duration": 0.35224337500000047
                },
                {
                    "name": "C2",
                    "midi": 36,
                    "time": 115.31335749999984,
                    "velocity": 0.28346456692913385,
                    "duration": 0.35224337500000047
                },
                {
                    "name": "C2",
                    "midi": 36,
                    "time": 115.68413999999984,
                    "velocity": 0.29133858267716534,
                    "duration": 0.35224337500000047
                },
                {
                    "name": "G2",
                    "midi": 43,
                    "time": 115.68413999999984,
                    "velocity": 0.29133858267716534,
                    "duration": 0.35224337500000047
                },
                {
                    "name": "C2",
                    "midi": 36,
                    "time": 116.05492249999985,
                    "velocity": 0.30708661417322836,
                    "duration": 0.35224337500000047
                },
                {
                    "name": "C3",
                    "midi": 48,
                    "time": 116.05492249999985,
                    "velocity": 0.30708661417322836,
                    "duration": 0.35224337500000047
                },
                {
                    "name": "G2",
                    "midi": 43,
                    "time": 116.42570499999985,
                    "velocity": 0.25984251968503935,
                    "duration": 0.35224337500000047
                },
                {
                    "name": "C2",
                    "midi": 36,
                    "time": 116.42570499999985,
                    "velocity": 0.25984251968503935,
                    "duration": 0.35224337500000047
                },
                {
                    "name": "C3",
                    "midi": 48,
                    "time": 116.79648749999986,
                    "velocity": 0.2992125984251969,
                    "duration": 0.35224337500000047
                },
                {
                    "name": "C2",
                    "midi": 36,
                    "time": 116.79648749999986,
                    "velocity": 0.25196850393700787,
                    "duration": 0.35224337500000047
                },
                {
                    "name": "C2",
                    "midi": 36,
                    "time": 117.16726999999986,
                    "velocity": 0.25196850393700787,
                    "duration": 0.35224337500000047
                },
                {
                    "name": "G2",
                    "midi": 43,
                    "time": 117.16726999999986,
                    "velocity": 0.25196850393700787,
                    "duration": 0.35224337500000047
                },
                {
                    "name": "C2",
                    "midi": 36,
                    "time": 117.53805249999986,
                    "velocity": 0.2755905511811024,
                    "duration": 0.35224337500000047
                },
                {
                    "name": "C3",
                    "midi": 48,
                    "time": 117.53805249999986,
                    "velocity": 0.2755905511811024,
                    "duration": 0.35224337500000047
                },
                {
                    "name": "G2",
                    "midi": 43,
                    "time": 117.90883499999987,
                    "velocity": 0.2204724409448819,
                    "duration": 0.35224337500000047
                },
                {
                    "name": "C2",
                    "midi": 36,
                    "time": 117.90883499999987,
                    "velocity": 0.2204724409448819,
                    "duration": 0.35224337500000047
                },
                {
                    "name": "C3",
                    "midi": 48,
                    "time": 118.27961749999987,
                    "velocity": 0.25984251968503935,
                    "duration": 0.35224337500000047
                },
                {
                    "name": "C2",
                    "midi": 36,
                    "time": 118.27961749999987,
                    "velocity": 0.2204724409448819,
                    "duration": 0.35224337500000047
                },
                {
                    "name": "C2",
                    "midi": 36,
                    "time": 118.65039999999988,
                    "velocity": 0.2204724409448819,
                    "duration": 0.35224337500000047
                },
                {
                    "name": "G2",
                    "midi": 43,
                    "time": 118.65039999999988,
                    "velocity": 0.2204724409448819,
                    "duration": 0.35224337500000047
                },
                {
                    "name": "C2",
                    "midi": 36,
                    "time": 119.02118249999988,
                    "velocity": 0.1968503937007874,
                    "duration": 1.1123474999999985
                },
                {
                    "name": "G2",
                    "midi": 43,
                    "time": 119.02118249999988,
                    "velocity": 0.1968503937007874,
                    "duration": 1.1123474999999985
                },
                {
                    "name": "C3",
                    "midi": 48,
                    "time": 119.02118249999988,
                    "velocity": 0.23622047244094488,
                    "duration": 1.1123474999999985
                }
            ],
            "controlChanges": {},
            "id": 2,
            "name": "Piano left",
            "instrumentNumber": 0,
            "instrument": "acoustic grand piano",
            "instrumentFamily": "piano",
            "channelNumber": 0,
            "isPercussion": false
        },
        {
            "startTime": 39.99816218749999,
            "duration": 45.97702999999999,
            "length": 6,
            "notes": [
                {
                    "name": "D#6",
                    "midi": 87,
                    "time": 39.99816218749999,
                    "velocity": 0.4015748031496063,
                    "duration": 0.023173906250001153
                },
                {
                    "name": "F6",
                    "midi": 89,
                    "time": 40.021336093749994,
                    "velocity": 0.4015748031496063,
                    "duration": 0.023173906250001153
                },
                {
                    "name": "A#4",
                    "midi": 70,
                    "time": 44.44755218749999,
                    "velocity": 0.4015748031496063,
                    "duration": 0.023173906250001153
                },
                {
                    "name": "C5",
                    "midi": 72,
                    "time": 44.47072609374999,
                    "velocity": 0.4015748031496063,
                    "duration": 0.023173906250001153
                },
                {
                    "name": "D5",
                    "midi": 74,
                    "time": 45.93068218749999,
                    "velocity": 0.4015748031496063,
                    "duration": 0.023173906250001153
                },
                {
                    "name": "D#5",
                    "midi": 75,
                    "time": 45.95385609374999,
                    "velocity": 0.4015748031496063,
                    "duration": 0.023173906250001153
                }
            ],
            "controlChanges": {
                "64": [
                    {
                        "number": 64,
                        "time": 4.44939,
                        "value": 1
                    },
                    {
                        "number": 64,
                        "time": 5.93252,
                        "value": 0
                    },
                    {
                        "number": 64,
                        "time": 6.008221427083334,
                        "value": 1
                    },
                    {
                        "number": 64,
                        "time": 6.315661916666667,
                        "value": 0
                    },
                    {
                        "number": 64,
                        "time": 6.368189437500001,
                        "value": 1
                    },
                    {
                        "number": 64,
                        "time": 6.6895342708333345,
                        "value": 0
                    },
                    {
                        "number": 64,
                        "time": 6.745151645833334,
                        "value": 1
                    },
                    {
                        "number": 64,
                        "time": 7.017058812500001,
                        "value": 0
                    },
                    {
                        "number": 64,
                        "time": 10.381910000000001,
                        "value": 1
                    },
                    {
                        "number": 64,
                        "time": 11.86504,
                        "value": 0
                    },
                    {
                        "number": 64,
                        "time": 11.940741427083333,
                        "value": 1
                    },
                    {
                        "number": 64,
                        "time": 12.248181916666667,
                        "value": 0
                    },
                    {
                        "number": 64,
                        "time": 12.3007094375,
                        "value": 1
                    },
                    {
                        "number": 64,
                        "time": 12.622054270833333,
                        "value": 0
                    },
                    {
                        "number": 64,
                        "time": 12.677671645833334,
                        "value": 1
                    },
                    {
                        "number": 64,
                        "time": 12.9495788125,
                        "value": 0
                    },
                    {
                        "number": 64,
                        "time": 13.41769171875,
                        "value": 1
                    },
                    {
                        "number": 64,
                        "time": 13.729766989583332,
                        "value": 0
                    },
                    {
                        "number": 64,
                        "time": 13.807013343749999,
                        "value": 1
                    },
                    {
                        "number": 64,
                        "time": 13.912068385416665,
                        "value": 0
                    },
                    {
                        "number": 64,
                        "time": 13.992404593749999,
                        "value": 1
                    },
                    {
                        "number": 64,
                        "time": 14.106729197916666,
                        "value": 0
                    },
                    {
                        "number": 64,
                        "time": 14.204059604166666,
                        "value": 1
                    },
                    {
                        "number": 64,
                        "time": 14.831299999999999,
                        "value": 0
                    },
                    {
                        "number": 64,
                        "time": 14.900821718749999,
                        "value": 1
                    },
                    {
                        "number": 64,
                        "time": 15.212896989583331,
                        "value": 0
                    },
                    {
                        "number": 64,
                        "time": 15.290143343749998,
                        "value": 1
                    },
                    {
                        "number": 64,
                        "time": 15.395198385416665,
                        "value": 0
                    },
                    {
                        "number": 64,
                        "time": 15.475534593749998,
                        "value": 1
                    },
                    {
                        "number": 64,
                        "time": 15.589859197916665,
                        "value": 0
                    },
                    {
                        "number": 64,
                        "time": 15.687189604166665,
                        "value": 1
                    },
                    {
                        "number": 64,
                        "time": 16.314429999999998,
                        "value": 0
                    },
                    {
                        "number": 64,
                        "time": 16.59715165625,
                        "value": 1
                    },
                    {
                        "number": 64,
                        "time": 17.076079052083333,
                        "value": 0
                    },
                    {
                        "number": 64,
                        "time": 17.295458697916665,
                        "value": 1
                    },
                    {
                        "number": 64,
                        "time": 17.797559999999997,
                        "value": 0
                    },
                    {
                        "number": 64,
                        "time": 17.87326142708333,
                        "value": 1
                    },
                    {
                        "number": 64,
                        "time": 18.180701916666663,
                        "value": 0
                    },
                    {
                        "number": 64,
                        "time": 18.233229437499997,
                        "value": 1
                    },
                    {
                        "number": 64,
                        "time": 18.55457427083333,
                        "value": 0
                    },
                    {
                        "number": 64,
                        "time": 18.610191645833332,
                        "value": 1
                    },
                    {
                        "number": 64,
                        "time": 18.882098812499997,
                        "value": 0
                    },
                    {
                        "number": 64,
                        "time": 18.931536479166663,
                        "value": 1
                    },
                    {
                        "number": 64,
                        "time": 19.280689999999996,
                        "value": 0
                    },
                    {
                        "number": 64,
                        "time": 19.410463874999998,
                        "value": 1
                    },
                    {
                        "number": 64,
                        "time": 19.656107281249998,
                        "value": 0
                    },
                    {
                        "number": 64,
                        "time": 19.770431885416663,
                        "value": 1
                    },
                    {
                        "number": 64,
                        "time": 20.03306948958333,
                        "value": 0
                    },
                    {
                        "number": 64,
                        "time": 20.141214385416664,
                        "value": 1
                    },
                    {
                        "number": 64,
                        "time": 20.402307062499997,
                        "value": 0
                    },
                    {
                        "number": 64,
                        "time": 20.511996885416664,
                        "value": 1
                    },
                    {
                        "number": 64,
                        "time": 20.76382,
                        "value": 0
                    },
                    {
                        "number": 64,
                        "time": 20.861150406249998,
                        "value": 1
                    },
                    {
                        "number": 64,
                        "time": 21.15468655208333,
                        "value": 0
                    },
                    {
                        "number": 64,
                        "time": 21.29372998958333,
                        "value": 1
                    },
                    {
                        "number": 64,
                        "time": 21.523924124999997,
                        "value": 0
                    },
                    {
                        "number": 64,
                        "time": 21.64597336458333,
                        "value": 1
                    },
                    {
                        "number": 64,
                        "time": 22.24695,
                        "value": 0
                    },
                    {
                        "number": 64,
                        "time": 22.6177325,
                        "value": 1
                    },
                    {
                        "number": 64,
                        "time": 23.730079999999997,
                        "value": 0
                    },
                    {
                        "number": 64,
                        "time": 23.805781427083332,
                        "value": 1
                    },
                    {
                        "number": 64,
                        "time": 24.113221916666664,
                        "value": 0
                    },
                    {
                        "number": 64,
                        "time": 24.165749437499997,
                        "value": 1
                    },
                    {
                        "number": 64,
                        "time": 24.48709427083333,
                        "value": 0
                    },
                    {
                        "number": 64,
                        "time": 24.542711645833332,
                        "value": 1
                    },
                    {
                        "number": 64,
                        "time": 25.044812947916665,
                        "value": 0
                    },
                    {
                        "number": 64,
                        "time": 26.385809656249997,
                        "value": 1
                    },
                    {
                        "number": 64,
                        "time": 26.705609562499998,
                        "value": 0
                    },
                    {
                        "number": 64,
                        "time": 26.756592156249997,
                        "value": 1
                    },
                    {
                        "number": 64,
                        "time": 27.079481916666666,
                        "value": 0
                    },
                    {
                        "number": 64,
                        "time": 27.159818124999997,
                        "value": 1
                    },
                    {
                        "number": 64,
                        "time": 27.456444124999997,
                        "value": 0
                    },
                    {
                        "number": 64,
                        "time": 27.524420916666664,
                        "value": 1
                    },
                    {
                        "number": 64,
                        "time": 27.822591843749997,
                        "value": 0
                    },
                    {
                        "number": 64,
                        "time": 27.895203416666664,
                        "value": 1
                    },
                    {
                        "number": 64,
                        "time": 28.17947,
                        "value": 0
                    },
                    {
                        "number": 64,
                        "time": 28.261351135416664,
                        "value": 1
                    },
                    {
                        "number": 64,
                        "time": 28.559522062499997,
                        "value": 0
                    },
                    {
                        "number": 64,
                        "time": 28.62131914583333,
                        "value": 1
                    },
                    {
                        "number": 64,
                        "time": 28.93184948958333,
                        "value": 0
                    },
                    {
                        "number": 64,
                        "time": 29.018365406249995,
                        "value": 1
                    },
                    {
                        "number": 64,
                        "time": 29.670324635416662,
                        "value": 0
                    },
                    {
                        "number": 64,
                        "time": 29.991669468749997,
                        "value": 1
                    },
                    {
                        "number": 64,
                        "time": 30.413434562499997,
                        "value": 0
                    },
                    {
                        "number": 64,
                        "time": 30.703880854166663,
                        "value": 1
                    },
                    {
                        "number": 64,
                        "time": 31.145729999999997,
                        "value": 0
                    },
                    {
                        "number": 64,
                        "time": 31.22143142708333,
                        "value": 1
                    },
                    {
                        "number": 64,
                        "time": 31.528871916666663,
                        "value": 0
                    },
                    {
                        "number": 64,
                        "time": 31.581399437499996,
                        "value": 1
                    },
                    {
                        "number": 64,
                        "time": 31.90274427083333,
                        "value": 0
                    },
                    {
                        "number": 64,
                        "time": 31.95836164583333,
                        "value": 1
                    },
                    {
                        "number": 64,
                        "time": 32.46046294791667,
                        "value": 0
                    },
                    {
                        "number": 64,
                        "time": 33.45230613541667,
                        "value": 1
                    },
                    {
                        "number": 64,
                        "time": 34.11507985416667,
                        "value": 0
                    },
                    {
                        "number": 64,
                        "time": 34.19387113541667,
                        "value": 1
                    },
                    {
                        "number": 64,
                        "time": 34.493586989583335,
                        "value": 0
                    },
                    {
                        "number": 64,
                        "time": 35.375740354166666,
                        "value": 1
                    },
                    {
                        "number": 64,
                        "time": 36.34286470833333,
                        "value": 0
                    },
                    {
                        "number": 64,
                        "time": 36.46336902083333,
                        "value": 1
                    },
                    {
                        "number": 64,
                        "time": 37.08597463541667,
                        "value": 0
                    },
                    {
                        "number": 64,
                        "time": 37.46139191666667,
                        "value": 0
                    },
                    {
                        "number": 64,
                        "time": 37.5139194375,
                        "value": 1
                    },
                    {
                        "number": 64,
                        "time": 37.835264270833335,
                        "value": 0
                    },
                    {
                        "number": 64,
                        "time": 37.89088164583333,
                        "value": 1
                    },
                    {
                        "number": 64,
                        "time": 38.392982947916664,
                        "value": 0
                    },
                    {
                        "number": 64,
                        "time": 39.72316516666666,
                        "value": 1
                    },
                    {
                        "number": 64,
                        "time": 40.044509999999995,
                        "value": 0
                    },
                    {
                        "number": 64,
                        "time": 40.10167230208333,
                        "value": 1
                    },
                    {
                        "number": 64,
                        "time": 40.436921479166664,
                        "value": 0
                    },
                    {
                        "number": 64,
                        "time": 40.48944899999999,
                        "value": 1
                    },
                    {
                        "number": 64,
                        "time": 40.79688948958333,
                        "value": 0
                    },
                    {
                        "number": 64,
                        "time": 40.85559671874999,
                        "value": 1
                    },
                    {
                        "number": 64,
                        "time": 41.180031406249995,
                        "value": 0
                    },
                    {
                        "number": 64,
                        "time": 41.218654583333326,
                        "value": 1
                    },
                    {
                        "number": 64,
                        "time": 41.52763999999999,
                        "value": 0
                    },
                    {
                        "number": 64,
                        "time": 41.58943708333332,
                        "value": 1
                    },
                    {
                        "number": 64,
                        "time": 41.90614713541665,
                        "value": 0
                    },
                    {
                        "number": 64,
                        "time": 41.95558480208332,
                        "value": 1
                    },
                    {
                        "number": 64,
                        "time": 42.290833979166656,
                        "value": 0
                    },
                    {
                        "number": 64,
                        "time": 42.317097739583325,
                        "value": 1
                    },
                    {
                        "number": 64,
                        "time": 42.41133829166666,
                        "value": 0
                    },
                    {
                        "number": 64,
                        "time": 42.45923103124999,
                        "value": 1
                    },
                    {
                        "number": 64,
                        "time": 42.531842604166656,
                        "value": 0
                    },
                    {
                        "number": 64,
                        "time": 43.01076999999999,
                        "value": 0
                    },
                    {
                        "number": 64,
                        "time": 43.07256708333332,
                        "value": 1
                    },
                    {
                        "number": 64,
                        "time": 43.38927713541665,
                        "value": 0
                    },
                    {
                        "number": 64,
                        "time": 43.43871480208332,
                        "value": 1
                    },
                    {
                        "number": 64,
                        "time": 43.77396397916665,
                        "value": 0
                    },
                    {
                        "number": 64,
                        "time": 43.80022773958332,
                        "value": 1
                    },
                    {
                        "number": 64,
                        "time": 43.894468291666655,
                        "value": 0
                    },
                    {
                        "number": 64,
                        "time": 43.94236103124999,
                        "value": 1
                    },
                    {
                        "number": 64,
                        "time": 44.01497260416665,
                        "value": 0
                    },
                    {
                        "number": 64,
                        "time": 45.644870677083325,
                        "value": 1
                    },
                    {
                        "number": 64,
                        "time": 45.97702999999999,
                        "value": 0
                    },
                    {
                        "number": 64,
                        "time": 46.08208504166666,
                        "value": 1
                    },
                    {
                        "number": 64,
                        "time": 46.35862698958333,
                        "value": 0
                    },
                    {
                        "number": 64,
                        "time": 46.414244364583325,
                        "value": 1
                    },
                    {
                        "number": 64,
                        "time": 46.730954416666656,
                        "value": 0
                    },
                    {
                        "number": 64,
                        "time": 46.77575730208332,
                        "value": 1
                    },
                    {
                        "number": 64,
                        "time": 46.85918336458332,
                        "value": 0
                    },
                    {
                        "number": 64,
                        "time": 47.46015999999999,
                        "value": 1
                    },
                    {
                        "number": 64,
                        "time": 47.59611358333332,
                        "value": 0
                    },
                    {
                        "number": 64,
                        "time": 48.28051628124999,
                        "value": 1
                    },
                    {
                        "number": 64,
                        "time": 48.58795677083332,
                        "value": 0
                    },
                    {
                        "number": 64,
                        "time": 48.672927760416655,
                        "value": 1
                    },
                    {
                        "number": 64,
                        "time": 48.95564941666665,
                        "value": 0
                    },
                    {
                        "number": 64,
                        "time": 49.00045230208332,
                        "value": 1
                    },
                    {
                        "number": 64,
                        "time": 49.08387836458332,
                        "value": 0
                    },
                    {
                        "number": 64,
                        "time": 49.720388322916655,
                        "value": 1
                    },
                    {
                        "number": 64,
                        "time": 49.81926365624999,
                        "value": 0
                    },
                    {
                        "number": 64,
                        "time": 50.010834614583324,
                        "value": 1
                    },
                    {
                        "number": 64,
                        "time": 51.12472704166666,
                        "value": 0
                    },
                    {
                        "number": 64,
                        "time": 51.609834145833325,
                        "value": 1
                    },
                    {
                        "number": 64,
                        "time": 51.90954999999999,
                        "value": 0
                    },
                    {
                        "number": 64,
                        "time": 51.95744273958332,
                        "value": 1
                    },
                    {
                        "number": 64,
                        "time": 52.040868802083324,
                        "value": 0
                    },
                    {
                        "number": 64,
                        "time": 52.66810919791666,
                        "value": 1
                    },
                    {
                        "number": 64,
                        "time": 52.78706858333332,
                        "value": 0
                    },
                    {
                        "number": 64,
                        "time": 53.42357854166666,
                        "value": 1
                    },
                    {
                        "number": 64,
                        "time": 53.780456697916655,
                        "value": 0
                    },
                    {
                        "number": 64,
                        "time": 53.86079290624999,
                        "value": 1
                    },
                    {
                        "number": 64,
                        "time": 54.14814934374999,
                        "value": 0
                    },
                    {
                        "number": 64,
                        "time": 54.196042083333325,
                        "value": 1
                    },
                    {
                        "number": 64,
                        "time": 54.27328843749999,
                        "value": 0
                    },
                    {
                        "number": 64,
                        "time": 54.88044478124999,
                        "value": 1
                    },
                    {
                        "number": 64,
                        "time": 55.25895191666666,
                        "value": 0
                    },
                    {
                        "number": 64,
                        "time": 55.303754802083326,
                        "value": 1
                    },
                    {
                        "number": 64,
                        "time": 55.632824270833325,
                        "value": 0
                    },
                    {
                        "number": 64,
                        "time": 55.669902520833325,
                        "value": 1
                    },
                    {
                        "number": 64,
                        "time": 55.75332858333333,
                        "value": 0
                    },
                    {
                        "number": 64,
                        "time": 55.81049088541666,
                        "value": 1
                    },
                    {
                        "number": 64,
                        "time": 55.88773723958333,
                        "value": 0
                    },
                    {
                        "number": 64,
                        "time": 55.957258958333334,
                        "value": 1
                    },
                    {
                        "number": 64,
                        "time": 56.358940000000004,
                        "value": 0
                    },
                    {
                        "number": 64,
                        "time": 56.406832739583336,
                        "value": 1
                    },
                    {
                        "number": 64,
                        "time": 56.49180372916667,
                        "value": 0
                    },
                    {
                        "number": 64,
                        "time": 57.49291647916667,
                        "value": 1
                    },
                    {
                        "number": 64,
                        "time": 57.84207,
                        "value": 0
                    },
                    {
                        "number": 64,
                        "time": 57.899232302083334,
                        "value": 1
                    },
                    {
                        "number": 64,
                        "time": 57.98265836458334,
                        "value": 0
                    },
                    {
                        "number": 64,
                        "time": 58.640797302083335,
                        "value": 1
                    },
                    {
                        "number": 64,
                        "time": 58.714953802083336,
                        "value": 0
                    },
                    {
                        "number": 64,
                        "time": 59.35146376041667,
                        "value": 1
                    },
                    {
                        "number": 64,
                        "time": 59.461153583333335,
                        "value": 0
                    },
                    {
                        "number": 64,
                        "time": 60.480805458333336,
                        "value": 1
                    },
                    {
                        "number": 64,
                        "time": 60.582770645833335,
                        "value": 0
                    },
                    {
                        "number": 64,
                        "time": 60.808330000000005,
                        "value": 1
                    },
                    {
                        "number": 64,
                        "time": 60.93964880208334,
                        "value": 0
                    },
                    {
                        "number": 64,
                        "time": 61.248634218750006,
                        "value": 1
                    },
                    {
                        "number": 64,
                        "time": 61.31815593750001,
                        "value": 0
                    },
                    {
                        "number": 64,
                        "time": 61.61632686458334,
                        "value": 1
                    },
                    {
                        "number": 64,
                        "time": 61.685848583333346,
                        "value": 0
                    },
                    {
                        "number": 64,
                        "time": 62.36098171875001,
                        "value": 1
                    },
                    {
                        "number": 64,
                        "time": 62.673056989583344,
                        "value": 0
                    },
                    {
                        "number": 64,
                        "time": 62.75030334375001,
                        "value": 1
                    },
                    {
                        "number": 64,
                        "time": 62.85535838541668,
                        "value": 0
                    },
                    {
                        "number": 64,
                        "time": 62.935694593750014,
                        "value": 1
                    },
                    {
                        "number": 64,
                        "time": 63.05001919791668,
                        "value": 0
                    },
                    {
                        "number": 64,
                        "time": 63.147349604166685,
                        "value": 1
                    },
                    {
                        "number": 64,
                        "time": 63.77459000000002,
                        "value": 0
                    },
                    {
                        "number": 64,
                        "time": 63.84411171875002,
                        "value": 1
                    },
                    {
                        "number": 64,
                        "time": 64.15618698958336,
                        "value": 0
                    },
                    {
                        "number": 64,
                        "time": 64.23343334375002,
                        "value": 1
                    },
                    {
                        "number": 64,
                        "time": 64.33848838541668,
                        "value": 0
                    },
                    {
                        "number": 64,
                        "time": 64.41882459375002,
                        "value": 1
                    },
                    {
                        "number": 64,
                        "time": 64.53314919791669,
                        "value": 0
                    },
                    {
                        "number": 64,
                        "time": 64.63047960416668,
                        "value": 1
                    },
                    {
                        "number": 64,
                        "time": 65.25772000000002,
                        "value": 0
                    },
                    {
                        "number": 64,
                        "time": 65.54044165625002,
                        "value": 1
                    },
                    {
                        "number": 64,
                        "time": 66.01936905208336,
                        "value": 0
                    },
                    {
                        "number": 64,
                        "time": 66.23874869791669,
                        "value": 1
                    },
                    {
                        "number": 64,
                        "time": 66.74085000000002,
                        "value": 0
                    },
                    {
                        "number": 64,
                        "time": 66.81655142708335,
                        "value": 1
                    },
                    {
                        "number": 64,
                        "time": 67.12399191666668,
                        "value": 0
                    },
                    {
                        "number": 64,
                        "time": 67.17651943750002,
                        "value": 1
                    },
                    {
                        "number": 64,
                        "time": 67.49786427083335,
                        "value": 0
                    },
                    {
                        "number": 64,
                        "time": 67.55348164583334,
                        "value": 1
                    },
                    {
                        "number": 64,
                        "time": 68.22398000000001,
                        "value": 0
                    },
                    {
                        "number": 64,
                        "time": 68.29350171875001,
                        "value": 1
                    },
                    {
                        "number": 64,
                        "time": 68.60557698958334,
                        "value": 0
                    },
                    {
                        "number": 64,
                        "time": 68.68282334375,
                        "value": 1
                    },
                    {
                        "number": 64,
                        "time": 68.78787838541666,
                        "value": 0
                    },
                    {
                        "number": 64,
                        "time": 68.86821459375,
                        "value": 1
                    },
                    {
                        "number": 64,
                        "time": 68.99335368749999,
                        "value": 0
                    },
                    {
                        "number": 64,
                        "time": 69.09068409374999,
                        "value": 1
                    },
                    {
                        "number": 64,
                        "time": 69.52171874999999,
                        "value": 0
                    },
                    {
                        "number": 64,
                        "time": 69.56961148958332,
                        "value": 1
                    },
                    {
                        "number": 64,
                        "time": 69.78590128124999,
                        "value": 0
                    },
                    {
                        "number": 64,
                        "time": 69.84769836458332,
                        "value": 1
                    },
                    {
                        "number": 64,
                        "time": 70.07789249999999,
                        "value": 0
                    },
                    {
                        "number": 64,
                        "time": 70.13042002083333,
                        "value": 1
                    },
                    {
                        "number": 64,
                        "time": 70.30654170833333,
                        "value": 0
                    },
                    {
                        "number": 64,
                        "time": 70.63406624999999,
                        "value": 0
                    },
                    {
                        "number": 64,
                        "time": 70.70358796874999,
                        "value": 1
                    },
                    {
                        "number": 64,
                        "time": 71.01566323958332,
                        "value": 0
                    },
                    {
                        "number": 64,
                        "time": 71.09290959374998,
                        "value": 1
                    },
                    {
                        "number": 64,
                        "time": 71.19796463541664,
                        "value": 0
                    },
                    {
                        "number": 64,
                        "time": 71.27830084374997,
                        "value": 1
                    },
                    {
                        "number": 64,
                        "time": 71.40343993749997,
                        "value": 0
                    },
                    {
                        "number": 64,
                        "time": 71.50077034374996,
                        "value": 1
                    },
                    {
                        "number": 64,
                        "time": 71.93180499999997,
                        "value": 0
                    },
                    {
                        "number": 64,
                        "time": 71.9796977395833,
                        "value": 1
                    },
                    {
                        "number": 64,
                        "time": 72.19598753124997,
                        "value": 0
                    },
                    {
                        "number": 64,
                        "time": 72.2577846145833,
                        "value": 1
                    },
                    {
                        "number": 64,
                        "time": 72.48797874999997,
                        "value": 0
                    },
                    {
                        "number": 64,
                        "time": 72.5405062708333,
                        "value": 1
                    },
                    {
                        "number": 64,
                        "time": 72.7166279583333,
                        "value": 0
                    },
                    {
                        "number": 64,
                        "time": 73.07041626041664,
                        "value": 1
                    },
                    {
                        "number": 64,
                        "time": 73.1801060833333,
                        "value": 0
                    },
                    {
                        "number": 64,
                        "time": 74.1997579583333,
                        "value": 1
                    },
                    {
                        "number": 64,
                        "time": 74.3017231458333,
                        "value": 0
                    },
                    {
                        "number": 64,
                        "time": 74.52728249999996,
                        "value": 1
                    },
                    {
                        "number": 64,
                        "time": 74.65860130208328,
                        "value": 0
                    },
                    {
                        "number": 64,
                        "time": 74.96758671874996,
                        "value": 1
                    },
                    {
                        "number": 64,
                        "time": 75.03710843749995,
                        "value": 0
                    },
                    {
                        "number": 64,
                        "time": 75.33527936458329,
                        "value": 1
                    },
                    {
                        "number": 64,
                        "time": 75.40480108333328,
                        "value": 0
                    },
                    {
                        "number": 64,
                        "time": 77.17219766666662,
                        "value": 1
                    },
                    {
                        "number": 64,
                        "time": 77.49354249999995,
                        "value": 0
                    },
                    {
                        "number": 64,
                        "time": 77.55070480208327,
                        "value": 1
                    },
                    {
                        "number": 64,
                        "time": 77.8859539791666,
                        "value": 0
                    },
                    {
                        "number": 64,
                        "time": 77.93848149999994,
                        "value": 1
                    },
                    {
                        "number": 64,
                        "time": 78.24592198958327,
                        "value": 0
                    },
                    {
                        "number": 64,
                        "time": 78.30462921874994,
                        "value": 1
                    },
                    {
                        "number": 64,
                        "time": 78.62906390624994,
                        "value": 0
                    },
                    {
                        "number": 64,
                        "time": 78.66768708333328,
                        "value": 1
                    },
                    {
                        "number": 64,
                        "time": 78.97667249999995,
                        "value": 0
                    },
                    {
                        "number": 64,
                        "time": 79.03846958333328,
                        "value": 1
                    },
                    {
                        "number": 64,
                        "time": 79.35517963541662,
                        "value": 0
                    },
                    {
                        "number": 64,
                        "time": 79.40461730208328,
                        "value": 1
                    },
                    {
                        "number": 64,
                        "time": 79.73986647916661,
                        "value": 0
                    },
                    {
                        "number": 64,
                        "time": 79.76613023958328,
                        "value": 1
                    },
                    {
                        "number": 64,
                        "time": 79.86037079166661,
                        "value": 0
                    },
                    {
                        "number": 64,
                        "time": 79.90826353124994,
                        "value": 1
                    },
                    {
                        "number": 64,
                        "time": 80.45980249999994,
                        "value": 0
                    },
                    {
                        "number": 64,
                        "time": 80.52468943749994,
                        "value": 1
                    },
                    {
                        "number": 64,
                        "time": 81.21990662499995,
                        "value": 0
                    },
                    {
                        "number": 64,
                        "time": 81.27706892708328,
                        "value": 1
                    },
                    {
                        "number": 64,
                        "time": 81.59995868749995,
                        "value": 0
                    },
                    {
                        "number": 64,
                        "time": 81.64321664583328,
                        "value": 1
                    },
                    {
                        "number": 64,
                        "time": 81.94293249999994,
                        "value": 0
                    },
                    {
                        "number": 64,
                        "time": 82.01399914583327,
                        "value": 1
                    },
                    {
                        "number": 64,
                        "time": 82.32298456249994,
                        "value": 0
                    },
                    {
                        "number": 64,
                        "time": 82.37396715624995,
                        "value": 1
                    },
                    {
                        "number": 64,
                        "time": 82.69376706249994,
                        "value": 0
                    },
                    {
                        "number": 64,
                        "time": 82.73393516666661,
                        "value": 1
                    },
                    {
                        "number": 64,
                        "time": 83.05836985416661,
                        "value": 0
                    },
                    {
                        "number": 64,
                        "time": 83.17887416666662,
                        "value": 1
                    },
                    {
                        "number": 64,
                        "time": 83.42606249999994,
                        "value": 0
                    },
                    {
                        "number": 64,
                        "time": 83.48322480208327,
                        "value": 1
                    },
                    {
                        "number": 64,
                        "time": 83.8184739791666,
                        "value": 0
                    },
                    {
                        "number": 64,
                        "time": 83.87100149999993,
                        "value": 1
                    },
                    {
                        "number": 64,
                        "time": 84.17844198958326,
                        "value": 0
                    },
                    {
                        "number": 64,
                        "time": 84.23714921874993,
                        "value": 1
                    },
                    {
                        "number": 64,
                        "time": 84.56158390624994,
                        "value": 0
                    },
                    {
                        "number": 64,
                        "time": 84.60020708333327,
                        "value": 1
                    },
                    {
                        "number": 64,
                        "time": 84.90919249999995,
                        "value": 0
                    },
                    {
                        "number": 64,
                        "time": 84.97098958333328,
                        "value": 1
                    },
                    {
                        "number": 64,
                        "time": 85.28769963541662,
                        "value": 0
                    },
                    {
                        "number": 64,
                        "time": 85.33713730208328,
                        "value": 1
                    },
                    {
                        "number": 64,
                        "time": 85.6723864791666,
                        "value": 0
                    },
                    {
                        "number": 64,
                        "time": 85.69865023958327,
                        "value": 1
                    },
                    {
                        "number": 64,
                        "time": 85.79289079166661,
                        "value": 0
                    },
                    {
                        "number": 64,
                        "time": 85.84078353124994,
                        "value": 1
                    },
                    {
                        "number": 64,
                        "time": 86.39232249999993,
                        "value": 0
                    },
                    {
                        "number": 64,
                        "time": 86.45720943749994,
                        "value": 1
                    },
                    {
                        "number": 64,
                        "time": 87.13388749999994,
                        "value": 0
                    },
                    {
                        "number": 64,
                        "time": 87.19877443749995,
                        "value": 1
                    },
                    {
                        "number": 64,
                        "time": 87.87545249999995,
                        "value": 0
                    },
                    {
                        "number": 64,
                        "time": 87.93724958333328,
                        "value": 1
                    },
                    {
                        "number": 64,
                        "time": 88.25395963541662,
                        "value": 0
                    },
                    {
                        "number": 64,
                        "time": 88.30339730208328,
                        "value": 1
                    },
                    {
                        "number": 64,
                        "time": 88.63864647916661,
                        "value": 0
                    },
                    {
                        "number": 64,
                        "time": 88.66491023958328,
                        "value": 1
                    },
                    {
                        "number": 64,
                        "time": 88.75915079166661,
                        "value": 0
                    },
                    {
                        "number": 64,
                        "time": 88.80704353124995,
                        "value": 1
                    },
                    {
                        "number": 64,
                        "time": 89.01560868749995,
                        "value": 0
                    },
                    {
                        "number": 64,
                        "time": 89.07122606249995,
                        "value": 1
                    },
                    {
                        "number": 64,
                        "time": 89.35858249999994,
                        "value": 0
                    },
                    {
                        "number": 64,
                        "time": 89.42346943749995,
                        "value": 1
                    },
                    {
                        "number": 64,
                        "time": 89.74635919791662,
                        "value": 0
                    },
                    {
                        "number": 64,
                        "time": 89.81588091666661,
                        "value": 1
                    },
                    {
                        "number": 64,
                        "time": 90.11405184374995,
                        "value": 0
                    },
                    {
                        "number": 64,
                        "time": 90.18666341666662,
                        "value": 1
                    },
                    {
                        "number": 64,
                        "time": 90.47556478124996,
                        "value": 0
                    },
                    {
                        "number": 64,
                        "time": 90.52500244791662,
                        "value": 1
                    },
                    {
                        "number": 64,
                        "time": 90.86797626041663,
                        "value": 0
                    },
                    {
                        "number": 64,
                        "time": 90.92822841666663,
                        "value": 1
                    },
                    {
                        "number": 64,
                        "time": 91.2233094895833,
                        "value": 0
                    },
                    {
                        "number": 64,
                        "time": 91.26656744791663,
                        "value": 1
                    },
                    {
                        "number": 64,
                        "time": 91.59718184374996,
                        "value": 0
                    },
                    {
                        "number": 64,
                        "time": 91.6914223958333,
                        "value": 1
                    },
                    {
                        "number": 64,
                        "time": 92.32484249999996,
                        "value": 0
                    },
                    {
                        "number": 64,
                        "time": 92.39590914583329,
                        "value": 1
                    },
                    {
                        "number": 64,
                        "time": 93.08649155208329,
                        "value": 0
                    },
                    {
                        "number": 64,
                        "time": 93.15292341666662,
                        "value": 1
                    },
                    {
                        "number": 64,
                        "time": 93.44954941666663,
                        "value": 0
                    },
                    {
                        "number": 64,
                        "time": 93.5082566458333,
                        "value": 1
                    },
                    {
                        "number": 64,
                        "time": 93.80797249999996,
                        "value": 0
                    },
                    {
                        "number": 64,
                        "time": 93.8697695833333,
                        "value": 1
                    },
                    {
                        "number": 64,
                        "time": 94.19111441666662,
                        "value": 0
                    },
                    {
                        "number": 64,
                        "time": 94.25754628124996,
                        "value": 1
                    },
                    {
                        "number": 64,
                        "time": 94.56498677083329,
                        "value": 0
                    },
                    {
                        "number": 64,
                        "time": 94.63296356249995,
                        "value": 1
                    },
                    {
                        "number": 64,
                        "time": 94.93731419791662,
                        "value": 0
                    },
                    {
                        "number": 64,
                        "time": 94.98211708333329,
                        "value": 1
                    },
                    {
                        "number": 64,
                        "time": 95.29110249999997,
                        "value": 0
                    },
                    {
                        "number": 64,
                        "time": 95.3714387083333,
                        "value": 1
                    },
                    {
                        "number": 64,
                        "time": 96.0434819895833,
                        "value": 0
                    },
                    {
                        "number": 64,
                        "time": 96.0898298020833,
                        "value": 1
                    },
                    {
                        "number": 64,
                        "time": 96.78350206249996,
                        "value": 0
                    },
                    {
                        "number": 64,
                        "time": 96.83448465624997,
                        "value": 1
                    },
                    {
                        "number": 64,
                        "time": 97.52970184374998,
                        "value": 0
                    },
                    {
                        "number": 64,
                        "time": 97.55751053124997,
                        "value": 1
                    },
                    {
                        "number": 64,
                        "time": 98.22646395833331,
                        "value": 0
                    },
                    {
                        "number": 64,
                        "time": 98.25736249999999,
                        "value": 1
                    },
                    {
                        "number": 64,
                        "time": 99.01283184374998,
                        "value": 0
                    },
                    {
                        "number": 64,
                        "time": 99.08080863541664,
                        "value": 1
                    },
                    {
                        "number": 64,
                        "time": 99.74049249999997,
                        "value": 0
                    },
                    {
                        "number": 64,
                        "time": 116.05492249999998,
                        "value": 1
                    },
                    {
                        "number": 64,
                        "time": 116.80730198958331,
                        "value": 0
                    },
                    {
                        "number": 64,
                        "time": 117.01586714583331,
                        "value": 1
                    },
                    {
                        "number": 64,
                        "time": 117.54732206249997,
                        "value": 0
                    },
                    {
                        "number": 64,
                        "time": 117.73425823958331,
                        "value": 1
                    },
                    {
                        "number": 64,
                        "time": 118.29815662499998,
                        "value": 0
                    },
                    {
                        "number": 64,
                        "time": 118.49745221874997,
                        "value": 1
                    },
                    {
                        "number": 64,
                        "time": 119.02118249999997,
                        "value": 0
                    },
                    {
                        "number": 64,
                        "time": 119.2173882395833,
                        "value": 1
                    },
                    {
                        "number": 64,
                        "time": 121.36947166666664,
                        "value": 0
                    }
                ]
            },
            "id": 3,
            "name": "Pedale",
            "instrumentNumber": 0,
            "instrument": "acoustic grand piano",
            "instrumentFamily": "piano",
            "channelNumber": 0,
            "isPercussion": false
        },
        {
            "startTime": 0,
            "duration": 0,
            "length": 0,
            "notes": [],
            "controlChanges": {},
            "id": 4,
            "name": "Brahms: Sonata in C 2. movement"
        },
        {
            "startTime": 0,
            "duration": 0,
            "length": 0,
            "notes": [],
            "controlChanges": {},
            "id": 5,
            "name": "Copyright  2009 by Bernd Krueger"
        },
        {
            "startTime": 0,
            "duration": 0,
            "length": 0,
            "notes": [],
            "controlChanges": {},
            "id": 6,
            "name": "http://www.piano-midi.de/"
        },
        {
            "startTime": 0,
            "duration": 0,
            "length": 0,
            "notes": [],
            "controlChanges": {},
            "id": 7,
            "name": "Edition: 2009-04-25"
        },
        {
            "startTime": 0,
            "duration": 0,
            "length": 0,
            "notes": [],
            "controlChanges": {},
            "id": 8
        },
        {
            "startTime": 0,
            "duration": 0,
            "length": 0,
            "notes": [],
            "controlChanges": {},
            "id": 9
        },
        {
            "startTime": 0,
            "duration": 0,
            "length": 0,
            "notes": [],
            "controlChanges": {},
            "id": 10
        },
        {
            "startTime": 0,
            "duration": 0,
            "length": 0,
            "notes": [],
            "controlChanges": {},
            "id": 11
        },
        {
            "startTime": 0,
            "duration": 0,
            "length": 0,
            "notes": [],
            "controlChanges": {},
            "id": 12
        },
        {
            "startTime": 0,
            "duration": 0,
            "length": 0,
            "notes": [],
            "controlChanges": {},
            "id": 13
        },
        {
            "startTime": 0,
            "duration": 0,
            "length": 0,
            "notes": [],
            "controlChanges": {},
            "id": 14
        },
        {
            "startTime": 0,
            "duration": 0,
            "length": 0,
            "notes": [],
            "controlChanges": {},
            "id": 15
        },
        {
            "startTime": 0,
            "duration": 0,
            "length": 0,
            "notes": [],
            "controlChanges": {},
            "id": 16
        }
    ]
}