{
    "header": {
        "PPQ": 480,
        "timeSignature": [
            4,
            4
        ],
        "bpm": 119.56001912960306,
        "name": "Sonate in C Opus 1"
    },
    "startTime": 0,
    "duration": 716.6275199999914,
    "tracks": [
        {
            "startTime": 0,
            "duration": 0,
            "length": 0,
            "notes": [],
            "controlChanges": {},
            "id": 0,
            "name": "Sonate in C Opus 1"
        },
        {
            "startTime": 0.09409499999999998,
            "duration": 716.6275199999914,
            "length": 3163,
            "notes": [
                {
                    "name": "E5",
                    "midi": 76,
                    "time": 0.09409499999999998,
                    "velocity": 0.5275590551181102,
                    "duration": 0.6586649999999998
                },
                {
                    "name": "G5",
                    "midi": 79,
                    "time": 0.09409499999999998,
                    "velocity": 0.5275590551181102,
                    "duration": 0.6586649999999998
                },
                {
                    "name": "C5",
                    "midi": 72,
                    "time": 0.09409499999999998,
                    "velocity": 0.5275590551181102,
                    "duration": 0.6586649999999998
                },
                {
                    "name": "C6",
                    "midi": 84,
                    "time": 0.09409499999999998,
                    "velocity": 0.6299212598425197,
                    "duration": 0.6586649999999998
                },
                {
                    "name": "E4",
                    "midi": 64,
                    "time": 0.7527599999999999,
                    "velocity": 0.5511811023622047,
                    "duration": 0.23000999999999994
                },
                {
                    "name": "C4",
                    "midi": 60,
                    "time": 0.7527599999999999,
                    "velocity": 0.4645669291338583,
                    "duration": 0.23000999999999994
                },
                {
                    "name": "E3",
                    "midi": 52,
                    "time": 0.7527599999999999,
                    "velocity": 0.4645669291338583,
                    "duration": 0.23000999999999994
                },
                {
                    "name": "E4",
                    "midi": 64,
                    "time": 1.00368,
                    "velocity": 0.5826771653543307,
                    "duration": 0.5018399999999998
                },
                {
                    "name": "E3",
                    "midi": 52,
                    "time": 1.00368,
                    "velocity": 0.4881889763779528,
                    "duration": 0.5018399999999998
                },
                {
                    "name": "C4",
                    "midi": 60,
                    "time": 1.00368,
                    "velocity": 0.4881889763779528,
                    "duration": 0.5018399999999998
                },
                {
                    "name": "C4",
                    "midi": 60,
                    "time": 1.5055199999999997,
                    "velocity": 0.47244094488188976,
                    "duration": 0.1254599999999999
                },
                {
                    "name": "F3",
                    "midi": 53,
                    "time": 1.5055199999999997,
                    "velocity": 0.47244094488188976,
                    "duration": 0.1254599999999999
                },
                {
                    "name": "F4",
                    "midi": 65,
                    "time": 1.5055199999999997,
                    "velocity": 0.5590551181102362,
                    "duration": 0.1254599999999999
                },
                {
                    "name": "G3",
                    "midi": 55,
                    "time": 1.7564399999999996,
                    "velocity": 0.49606299212598426,
                    "duration": 0.1254599999999999
                },
                {
                    "name": "C4",
                    "midi": 60,
                    "time": 1.7564399999999996,
                    "velocity": 0.49606299212598426,
                    "duration": 0.1254599999999999
                },
                {
                    "name": "G4",
                    "midi": 67,
                    "time": 1.7564399999999996,
                    "velocity": 0.5905511811023622,
                    "duration": 0.1254599999999999
                },
                {
                    "name": "A3",
                    "midi": 57,
                    "time": 2.0073599999999994,
                    "velocity": 0.5196850393700787,
                    "duration": 0.1254599999999999
                },
                {
                    "name": "C4",
                    "midi": 60,
                    "time": 2.0073599999999994,
                    "velocity": 0.5196850393700787,
                    "duration": 0.1254599999999999
                },
                {
                    "name": "A4",
                    "midi": 69,
                    "time": 2.0073599999999994,
                    "velocity": 0.6141732283464567,
                    "duration": 0.1254599999999999
                },
                {
                    "name": "G3",
                    "midi": 55,
                    "time": 2.509199999999999,
                    "velocity": 0.4881889763779528,
                    "duration": 0.1254599999999999
                },
                {
                    "name": "G4",
                    "midi": 67,
                    "time": 2.509199999999999,
                    "velocity": 0.5826771653543307,
                    "duration": 0.1254599999999999
                },
                {
                    "name": "C4",
                    "midi": 60,
                    "time": 2.509199999999999,
                    "velocity": 0.4881889763779528,
                    "duration": 0.1254599999999999
                },
                {
                    "name": "E3",
                    "midi": 52,
                    "time": 3.763799999999999,
                    "velocity": 0.4645669291338583,
                    "duration": 0.22582799999999992
                },
                {
                    "name": "C4",
                    "midi": 60,
                    "time": 3.763799999999999,
                    "velocity": 0.4645669291338583,
                    "duration": 0.22582799999999992
                },
                {
                    "name": "E4",
                    "midi": 64,
                    "time": 3.763799999999999,
                    "velocity": 0.5511811023622047,
                    "duration": 0.22582799999999992
                },
                {
                    "name": "E4",
                    "midi": 64,
                    "time": 4.014719999999999,
                    "velocity": 0.6062992125984252,
                    "duration": 0.5018399999999996
                },
                {
                    "name": "C4",
                    "midi": 60,
                    "time": 4.014719999999999,
                    "velocity": 0.5118110236220472,
                    "duration": 0.5018399999999996
                },
                {
                    "name": "E3",
                    "midi": 52,
                    "time": 4.014719999999999,
                    "velocity": 0.5118110236220472,
                    "duration": 0.5018399999999996
                },
                {
                    "name": "F3",
                    "midi": 53,
                    "time": 4.516559999999998,
                    "velocity": 0.5118110236220472,
                    "duration": 0.12546000000000035
                },
                {
                    "name": "C4",
                    "midi": 60,
                    "time": 4.516559999999998,
                    "velocity": 0.5118110236220472,
                    "duration": 0.12546000000000035
                },
                {
                    "name": "F4",
                    "midi": 65,
                    "time": 4.516559999999998,
                    "velocity": 0.6062992125984252,
                    "duration": 0.12546000000000035
                },
                {
                    "name": "G3",
                    "midi": 55,
                    "time": 4.767479999999999,
                    "velocity": 0.5354330708661418,
                    "duration": 0.12546000000000035
                },
                {
                    "name": "G4",
                    "midi": 67,
                    "time": 4.767479999999999,
                    "velocity": 0.6299212598425197,
                    "duration": 0.12546000000000035
                },
                {
                    "name": "C4",
                    "midi": 60,
                    "time": 4.767479999999999,
                    "velocity": 0.5354330708661418,
                    "duration": 0.12546000000000035
                },
                {
                    "name": "C4",
                    "midi": 60,
                    "time": 5.0184,
                    "velocity": 0.5511811023622047,
                    "duration": 0.5018399999999996
                },
                {
                    "name": "A4",
                    "midi": 69,
                    "time": 5.0184,
                    "velocity": 0.6535433070866141,
                    "duration": 0.5018399999999996
                },
                {
                    "name": "A3",
                    "midi": 57,
                    "time": 5.0184,
                    "velocity": 0.5511811023622047,
                    "duration": 0.5018399999999996
                },
                {
                    "name": "G4",
                    "midi": 67,
                    "time": 5.520239999999999,
                    "velocity": 0.6377952755905512,
                    "duration": 0.12546000000000035
                },
                {
                    "name": "G3",
                    "midi": 55,
                    "time": 5.520239999999999,
                    "velocity": 0.5354330708661418,
                    "duration": 0.12546000000000035
                },
                {
                    "name": "C4",
                    "midi": 60,
                    "time": 5.520239999999999,
                    "velocity": 0.5354330708661418,
                    "duration": 0.12546000000000035
                },
                {
                    "name": "A3",
                    "midi": 57,
                    "time": 5.77116,
                    "velocity": 0.5511811023622047,
                    "duration": 0.12546000000000035
                },
                {
                    "name": "A4",
                    "midi": 69,
                    "time": 5.77116,
                    "velocity": 0.6535433070866141,
                    "duration": 0.12546000000000035
                },
                {
                    "name": "C4",
                    "midi": 60,
                    "time": 5.77116,
                    "velocity": 0.5511811023622047,
                    "duration": 0.12546000000000035
                },
                {
                    "name": "A#3",
                    "midi": 58,
                    "time": 6.022080000000001,
                    "velocity": 0.5669291338582677,
                    "duration": 0.12546000000000035
                },
                {
                    "name": "C4",
                    "midi": 60,
                    "time": 6.022080000000001,
                    "velocity": 0.5669291338582677,
                    "duration": 0.12546000000000035
                },
                {
                    "name": "A#4",
                    "midi": 70,
                    "time": 6.022080000000001,
                    "velocity": 0.6692913385826772,
                    "duration": 0.12546000000000035
                },
                {
                    "name": "A4",
                    "midi": 69,
                    "time": 6.523920000000001,
                    "velocity": 0.6377952755905512,
                    "duration": 0.12546000000000035
                },
                {
                    "name": "A3",
                    "midi": 57,
                    "time": 6.523920000000001,
                    "velocity": 0.5354330708661418,
                    "duration": 0.12546000000000035
                },
                {
                    "name": "C4",
                    "midi": 60,
                    "time": 6.523920000000001,
                    "velocity": 0.5354330708661418,
                    "duration": 0.12546000000000035
                },
                {
                    "name": "G3",
                    "midi": 55,
                    "time": 7.527600000000001,
                    "velocity": 0.47244094488188976,
                    "duration": 0.12546000000000035
                },
                {
                    "name": "C4",
                    "midi": 60,
                    "time": 7.527600000000001,
                    "velocity": 0.47244094488188976,
                    "duration": 0.12546000000000035
                },
                {
                    "name": "G4",
                    "midi": 67,
                    "time": 7.527600000000001,
                    "velocity": 0.5590551181102362,
                    "duration": 0.12546000000000035
                },
                {
                    "name": "C4",
                    "midi": 60,
                    "time": 7.778520000000002,
                    "velocity": 0.49606299212598426,
                    "duration": 0.12546000000000035
                },
                {
                    "name": "A3",
                    "midi": 57,
                    "time": 7.778520000000002,
                    "velocity": 0.49606299212598426,
                    "duration": 0.12546000000000035
                },
                {
                    "name": "A4",
                    "midi": 69,
                    "time": 7.778520000000002,
                    "velocity": 0.5905511811023622,
                    "duration": 0.12546000000000035
                },
                {
                    "name": "F4",
                    "midi": 65,
                    "time": 8.029440000000003,
                    "velocity": 0.5196850393700787,
                    "duration": 0.12546000000000035
                },
                {
                    "name": "B4",
                    "midi": 71,
                    "time": 8.029440000000003,
                    "velocity": 0.6141732283464567,
                    "duration": 0.12546000000000035
                },
                {
                    "name": "B3",
                    "midi": 59,
                    "time": 8.029440000000003,
                    "velocity": 0.5196850393700787,
                    "duration": 0.12546000000000035
                },
                {
                    "name": "E4",
                    "midi": 64,
                    "time": 8.531280000000002,
                    "velocity": 0.5354330708661418,
                    "duration": 0.12546000000000035
                },
                {
                    "name": "C5",
                    "midi": 72,
                    "time": 8.531280000000002,
                    "velocity": 0.6299212598425197,
                    "duration": 0.12546000000000035
                },
                {
                    "name": "C4",
                    "midi": 60,
                    "time": 8.531280000000002,
                    "velocity": 0.5354330708661418,
                    "duration": 0.12546000000000035
                },
                {
                    "name": "G4",
                    "midi": 67,
                    "time": 9.033120000000002,
                    "velocity": 0.5433070866141733,
                    "duration": 0.12546000000000035
                },
                {
                    "name": "D5",
                    "midi": 74,
                    "time": 9.033120000000002,
                    "velocity": 0.6456692913385826,
                    "duration": 0.12546000000000035
                },
                {
                    "name": "D4",
                    "midi": 62,
                    "time": 9.033120000000002,
                    "velocity": 0.5433070866141733,
                    "duration": 0.12546000000000035
                },
                {
                    "name": "E4",
                    "midi": 64,
                    "time": 9.534960000000002,
                    "velocity": 0.5590551181102362,
                    "duration": 0.12546000000000035
                },
                {
                    "name": "G4",
                    "midi": 67,
                    "time": 9.534960000000002,
                    "velocity": 0.5590551181102362,
                    "duration": 0.12546000000000035
                },
                {
                    "name": "E5",
                    "midi": 76,
                    "time": 9.534960000000002,
                    "velocity": 0.6614173228346457,
                    "duration": 0.12546000000000035
                },
                {
                    "name": "C5",
                    "midi": 72,
                    "time": 10.036800000000001,
                    "velocity": 0.5669291338582677,
                    "duration": 1.0036800000000081
                },
                {
                    "name": "D5",
                    "midi": 74,
                    "time": 10.036800000000001,
                    "velocity": 0.5669291338582677,
                    "duration": 1.0036800000000081
                },
                {
                    "name": "F#5",
                    "midi": 78,
                    "time": 10.036800000000001,
                    "velocity": 0.6141732283464567,
                    "duration": 0.08364000000000082
                },
                {
                    "name": "G5",
                    "midi": 79,
                    "time": 10.120440000000002,
                    "velocity": 0.5748031496062992,
                    "duration": 0.08364000000000082
                },
                {
                    "name": "F#5",
                    "midi": 78,
                    "time": 10.204080000000003,
                    "velocity": 0.6299212598425197,
                    "duration": 0.08364000000000082
                },
                {
                    "name": "G5",
                    "midi": 79,
                    "time": 10.287720000000004,
                    "velocity": 0.5905511811023622,
                    "duration": 0.08364000000000082
                },
                {
                    "name": "F#5",
                    "midi": 78,
                    "time": 10.371360000000005,
                    "velocity": 0.6456692913385826,
                    "duration": 0.08364000000000082
                },
                {
                    "name": "G5",
                    "midi": 79,
                    "time": 10.455000000000005,
                    "velocity": 0.6141732283464567,
                    "duration": 0.08364000000000082
                },
                {
                    "name": "F#5",
                    "midi": 78,
                    "time": 10.538640000000006,
                    "velocity": 0.6614173228346457,
                    "duration": 0.08364000000000082
                },
                {
                    "name": "G5",
                    "midi": 79,
                    "time": 10.622280000000007,
                    "velocity": 0.6377952755905512,
                    "duration": 0.08364000000000082
                },
                {
                    "name": "F#5",
                    "midi": 78,
                    "time": 10.705920000000008,
                    "velocity": 0.6771653543307087,
                    "duration": 0.08364000000000082
                },
                {
                    "name": "G5",
                    "midi": 79,
                    "time": 10.789560000000009,
                    "velocity": 0.6614173228346457,
                    "duration": 0.06273000000000017
                },
                {
                    "name": "F#5",
                    "midi": 78,
                    "time": 10.852290000000009,
                    "velocity": 0.7007874015748031,
                    "duration": 0.06273000000000017
                },
                {
                    "name": "E5",
                    "midi": 76,
                    "time": 10.915020000000009,
                    "velocity": 0.6614173228346457,
                    "duration": 0.06273000000000017
                },
                {
                    "name": "F#5",
                    "midi": 78,
                    "time": 10.97775000000001,
                    "velocity": 0.6692913385826772,
                    "duration": 0.06273000000000017
                },
                {
                    "name": "B4",
                    "midi": 71,
                    "time": 11.04048000000001,
                    "velocity": 0.6220472440944882,
                    "duration": 0.5018399999999996
                },
                {
                    "name": "G5",
                    "midi": 79,
                    "time": 11.04048000000001,
                    "velocity": 0.7322834645669292,
                    "duration": 0.5018399999999996
                },
                {
                    "name": "D5",
                    "midi": 74,
                    "time": 11.542320000000009,
                    "velocity": 0.6535433070866141,
                    "duration": 0.12546000000000035
                },
                {
                    "name": "F#5",
                    "midi": 78,
                    "time": 11.79324000000001,
                    "velocity": 0.5905511811023622,
                    "duration": 0.12546000000000035
                },
                {
                    "name": "G5",
                    "midi": 79,
                    "time": 12.04416000000001,
                    "velocity": 0.6535433070866141,
                    "duration": 0.12546000000000035
                },
                {
                    "name": "D4",
                    "midi": 62,
                    "time": 12.54600000000001,
                    "velocity": 0.5196850393700787,
                    "duration": 0.12546000000000035
                },
                {
                    "name": "F#4",
                    "midi": 66,
                    "time": 12.79692000000001,
                    "velocity": 0.47244094488188976,
                    "duration": 0.12546000000000035
                },
                {
                    "name": "G4",
                    "midi": 67,
                    "time": 13.047840000000011,
                    "velocity": 0.5196850393700787,
                    "duration": 0.12546000000000035
                },
                {
                    "name": "D3",
                    "midi": 50,
                    "time": 13.549680000000011,
                    "velocity": 0.5433070866141733,
                    "duration": 0.12546000000000035
                },
                {
                    "name": "F#3",
                    "midi": 54,
                    "time": 13.800600000000012,
                    "velocity": 0.48031496062992124,
                    "duration": 0.12546000000000035
                },
                {
                    "name": "G3",
                    "midi": 55,
                    "time": 14.051520000000012,
                    "velocity": 0.5039370078740157,
                    "duration": 0.16727999999999987
                },
                {
                    "name": "B3",
                    "midi": 59,
                    "time": 14.218800000000012,
                    "velocity": 0.44881889763779526,
                    "duration": 0.16727999999999987
                },
                {
                    "name": "C4",
                    "midi": 60,
                    "time": 14.386080000000012,
                    "velocity": 0.44881889763779526,
                    "duration": 0.16727999999999987
                },
                {
                    "name": "D4",
                    "midi": 62,
                    "time": 14.553360000000012,
                    "velocity": 0.5196850393700787,
                    "duration": 0.16727999999999987
                },
                {
                    "name": "E4",
                    "midi": 64,
                    "time": 14.720640000000012,
                    "velocity": 0.4645669291338583,
                    "duration": 0.16727999999999987
                },
                {
                    "name": "F#4",
                    "midi": 66,
                    "time": 14.887920000000012,
                    "velocity": 0.4645669291338583,
                    "duration": 0.16727999999999987
                },
                {
                    "name": "G4",
                    "midi": 67,
                    "time": 15.055200000000012,
                    "velocity": 0.5275590551181102,
                    "duration": 0.12546000000000035
                },
                {
                    "name": "A#4",
                    "midi": 70,
                    "time": 15.180660000000012,
                    "velocity": 0.5433070866141733,
                    "duration": 0.12546000000000035
                },
                {
                    "name": "C5",
                    "midi": 72,
                    "time": 15.306120000000012,
                    "velocity": 0.5590551181102362,
                    "duration": 0.12546000000000035
                },
                {
                    "name": "D5",
                    "midi": 74,
                    "time": 15.431580000000013,
                    "velocity": 0.5748031496062992,
                    "duration": 0.12546000000000035
                },
                {
                    "name": "E5",
                    "midi": 76,
                    "time": 15.557040000000013,
                    "velocity": 0.5905511811023622,
                    "duration": 0.12546000000000035
                },
                {
                    "name": "F#5",
                    "midi": 78,
                    "time": 15.682500000000013,
                    "velocity": 0.6062992125984252,
                    "duration": 0.12546000000000035
                },
                {
                    "name": "G5",
                    "midi": 79,
                    "time": 15.807960000000014,
                    "velocity": 0.6220472440944882,
                    "duration": 0.12546000000000035
                },
                {
                    "name": "A5",
                    "midi": 81,
                    "time": 15.933420000000014,
                    "velocity": 0.6614173228346457,
                    "duration": 0.12545999999999857
                },
                {
                    "name": "A#5",
                    "midi": 82,
                    "time": 16.152975000000012,
                    "velocity": 0.6299212598425197,
                    "duration": 0.6586649999999992
                },
                {
                    "name": "A#4",
                    "midi": 70,
                    "time": 16.152975000000012,
                    "velocity": 0.5275590551181102,
                    "duration": 0.6586649999999992
                },
                {
                    "name": "F5",
                    "midi": 77,
                    "time": 16.152975000000012,
                    "velocity": 0.5275590551181102,
                    "duration": 0.6586649999999992
                },
                {
                    "name": "D5",
                    "midi": 74,
                    "time": 16.152975000000012,
                    "velocity": 0.5275590551181102,
                    "duration": 0.6586649999999992
                },
                {
                    "name": "A#4",
                    "midi": 70,
                    "time": 16.81164000000001,
                    "velocity": 0.5275590551181102,
                    "duration": 0.22582799999999992
                },
                {
                    "name": "D4",
                    "midi": 62,
                    "time": 16.81164000000001,
                    "velocity": 0.5275590551181102,
                    "duration": 0.22582799999999992
                },
                {
                    "name": "D5",
                    "midi": 74,
                    "time": 16.81164000000001,
                    "velocity": 0.6299212598425197,
                    "duration": 0.22582799999999992
                },
                {
                    "name": "A#4",
                    "midi": 70,
                    "time": 17.062560000000012,
                    "velocity": 0.5590551181102362,
                    "duration": 0.5018400000000014
                },
                {
                    "name": "D4",
                    "midi": 62,
                    "time": 17.062560000000012,
                    "velocity": 0.5590551181102362,
                    "duration": 0.5018400000000014
                },
                {
                    "name": "D5",
                    "midi": 74,
                    "time": 17.062560000000012,
                    "velocity": 0.6692913385826772,
                    "duration": 0.5018400000000014
                },
                {
                    "name": "D#4",
                    "midi": 63,
                    "time": 17.564400000000013,
                    "velocity": 0.5433070866141733,
                    "duration": 0.12546000000000035
                },
                {
                    "name": "D#5",
                    "midi": 75,
                    "time": 17.564400000000013,
                    "velocity": 0.6377952755905512,
                    "duration": 0.12546000000000035
                },
                {
                    "name": "A#4",
                    "midi": 70,
                    "time": 17.564400000000013,
                    "velocity": 0.5433070866141733,
                    "duration": 0.12546000000000035
                },
                {
                    "name": "F4",
                    "midi": 65,
                    "time": 17.815320000000014,
                    "velocity": 0.5669291338582677,
                    "duration": 0.12546000000000035
                },
                {
                    "name": "A#4",
                    "midi": 70,
                    "time": 17.815320000000014,
                    "velocity": 0.5669291338582677,
                    "duration": 0.12546000000000035
                },
                {
                    "name": "F5",
                    "midi": 77,
                    "time": 17.815320000000014,
                    "velocity": 0.6771653543307087,
                    "duration": 0.12546000000000035
                },
                {
                    "name": "A#4",
                    "midi": 70,
                    "time": 18.066240000000015,
                    "velocity": 0.5905511811023622,
                    "duration": 0.12546000000000035
                },
                {
                    "name": "G4",
                    "midi": 67,
                    "time": 18.066240000000015,
                    "velocity": 0.5905511811023622,
                    "duration": 0.12546000000000035
                },
                {
                    "name": "G5",
                    "midi": 79,
                    "time": 18.066240000000015,
                    "velocity": 0.7007874015748031,
                    "duration": 0.12546000000000035
                },
                {
                    "name": "F4",
                    "midi": 65,
                    "time": 18.568080000000016,
                    "velocity": 0.5590551181102362,
                    "duration": 0.12546000000000035
                },
                {
                    "name": "F5",
                    "midi": 77,
                    "time": 18.568080000000016,
                    "velocity": 0.6692913385826772,
                    "duration": 0.12546000000000035
                },
                {
                    "name": "A#4",
                    "midi": 70,
                    "time": 18.568080000000016,
                    "velocity": 0.5590551181102362,
                    "duration": 0.12546000000000035
                },
                {
                    "name": "A#4",
                    "midi": 70,
                    "time": 19.822680000000016,
                    "velocity": 0.5275590551181102,
                    "duration": 0.22582799999999992
                },
                {
                    "name": "D4",
                    "midi": 62,
                    "time": 19.822680000000016,
                    "velocity": 0.5275590551181102,
                    "duration": 0.22582799999999992
                },
                {
                    "name": "D5",
                    "midi": 74,
                    "time": 19.822680000000016,
                    "velocity": 0.6299212598425197,
                    "duration": 0.22582799999999992
                },
                {
                    "name": "D4",
                    "midi": 62,
                    "time": 20.073600000000017,
                    "velocity": 0.5826771653543307,
                    "duration": 0.5018400000000014
                },
                {
                    "name": "D5",
                    "midi": 74,
                    "time": 20.073600000000017,
                    "velocity": 0.6929133858267716,
                    "duration": 0.5018400000000014
                },
                {
                    "name": "A#4",
                    "midi": 70,
                    "time": 20.073600000000017,
                    "velocity": 0.5826771653543307,
                    "duration": 0.5018400000000014
                },
                {
                    "name": "A#4",
                    "midi": 70,
                    "time": 20.575440000000018,
                    "velocity": 0.5826771653543307,
                    "duration": 0.12546000000000035
                },
                {
                    "name": "D#4",
                    "midi": 63,
                    "time": 20.575440000000018,
                    "velocity": 0.5826771653543307,
                    "duration": 0.12546000000000035
                },
                {
                    "name": "D#5",
                    "midi": 75,
                    "time": 20.575440000000018,
                    "velocity": 0.6929133858267716,
                    "duration": 0.12546000000000035
                },
                {
                    "name": "A#4",
                    "midi": 70,
                    "time": 20.82636000000002,
                    "velocity": 0.6141732283464567,
                    "duration": 0.12546000000000035
                },
                {
                    "name": "F5",
                    "midi": 77,
                    "time": 20.82636000000002,
                    "velocity": 0.7244094488188977,
                    "duration": 0.12546000000000035
                },
                {
                    "name": "F4",
                    "midi": 65,
                    "time": 20.82636000000002,
                    "velocity": 0.6141732283464567,
                    "duration": 0.12546000000000035
                },
                {
                    "name": "G4",
                    "midi": 67,
                    "time": 21.07728000000002,
                    "velocity": 0.6299212598425197,
                    "duration": 0.5018400000000014
                },
                {
                    "name": "G5",
                    "midi": 79,
                    "time": 21.07728000000002,
                    "velocity": 0.7480314960629921,
                    "duration": 0.5018400000000014
                },
                {
                    "name": "A#4",
                    "midi": 70,
                    "time": 21.07728000000002,
                    "velocity": 0.6299212598425197,
                    "duration": 0.5018400000000014
                },
                {
                    "name": "A#4",
                    "midi": 70,
                    "time": 21.57912000000002,
                    "velocity": 0.6141732283464567,
                    "duration": 0.12546000000000035
                },
                {
                    "name": "F5",
                    "midi": 77,
                    "time": 21.57912000000002,
                    "velocity": 0.7322834645669292,
                    "duration": 0.12546000000000035
                },
                {
                    "name": "F4",
                    "midi": 65,
                    "time": 21.57912000000002,
                    "velocity": 0.6141732283464567,
                    "duration": 0.12546000000000035
                },
                {
                    "name": "G4",
                    "midi": 67,
                    "time": 21.83004000000002,
                    "velocity": 0.6299212598425197,
                    "duration": 0.12546000000000035
                },
                {
                    "name": "G5",
                    "midi": 79,
                    "time": 21.83004000000002,
                    "velocity": 0.7480314960629921,
                    "duration": 0.12546000000000035
                },
                {
                    "name": "A#4",
                    "midi": 70,
                    "time": 21.83004000000002,
                    "velocity": 0.6299212598425197,
                    "duration": 0.12546000000000035
                },
                {
                    "name": "A#4",
                    "midi": 70,
                    "time": 22.080960000000022,
                    "velocity": 0.6456692913385826,
                    "duration": 0.12546000000000035
                },
                {
                    "name": "G#5",
                    "midi": 80,
                    "time": 22.080960000000022,
                    "velocity": 0.7637795275590551,
                    "duration": 0.12546000000000035
                },
                {
                    "name": "G#4",
                    "midi": 68,
                    "time": 22.080960000000022,
                    "velocity": 0.6456692913385826,
                    "duration": 0.12546000000000035
                },
                {
                    "name": "G5",
                    "midi": 79,
                    "time": 22.582800000000024,
                    "velocity": 0.7322834645669292,
                    "duration": 0.12546000000000035
                },
                {
                    "name": "G4",
                    "midi": 67,
                    "time": 22.582800000000024,
                    "velocity": 0.6141732283464567,
                    "duration": 0.12546000000000035
                },
                {
                    "name": "A#4",
                    "midi": 70,
                    "time": 22.582800000000024,
                    "velocity": 0.6141732283464567,
                    "duration": 0.12546000000000035
                },
                {
                    "name": "F5",
                    "midi": 77,
                    "time": 23.586480000000023,
                    "velocity": 0.6377952755905512,
                    "duration": 0.12546000000000035
                },
                {
                    "name": "A#4",
                    "midi": 70,
                    "time": 23.586480000000023,
                    "velocity": 0.5433070866141733,
                    "duration": 0.12546000000000035
                },
                {
                    "name": "F4",
                    "midi": 65,
                    "time": 23.586480000000023,
                    "velocity": 0.5433070866141733,
                    "duration": 0.12546000000000035
                },
                {
                    "name": "G4",
                    "midi": 67,
                    "time": 23.837400000000024,
                    "velocity": 0.5669291338582677,
                    "duration": 0.12546000000000035
                },
                {
                    "name": "G5",
                    "midi": 79,
                    "time": 23.837400000000024,
                    "velocity": 0.6771653543307087,
                    "duration": 0.12546000000000035
                },
                {
                    "name": "A#4",
                    "midi": 70,
                    "time": 23.837400000000024,
                    "velocity": 0.5669291338582677,
                    "duration": 0.12546000000000035
                },
                {
                    "name": "G5",
                    "midi": 79,
                    "time": 24.088320000000024,
                    "velocity": 0.5905511811023622,
                    "duration": 0.12546000000000035
                },
                {
                    "name": "B5",
                    "midi": 83,
                    "time": 24.088320000000024,
                    "velocity": 0.7007874015748031,
                    "duration": 0.12546000000000035
                },
                {
                    "name": "B4",
                    "midi": 71,
                    "time": 24.088320000000024,
                    "velocity": 0.5905511811023622,
                    "duration": 0.12546000000000035
                },
                {
                    "name": "C5",
                    "midi": 72,
                    "time": 24.590160000000026,
                    "velocity": 0.6141732283464567,
                    "duration": 0.12546000000000035
                },
                {
                    "name": "C6",
                    "midi": 84,
                    "time": 24.590160000000026,
                    "velocity": 0.7244094488188977,
                    "duration": 0.12546000000000035
                },
                {
                    "name": "G5",
                    "midi": 79,
                    "time": 24.590160000000026,
                    "velocity": 0.6141732283464567,
                    "duration": 0.12546000000000035
                },
                {
                    "name": "D6",
                    "midi": 86,
                    "time": 25.092000000000027,
                    "velocity": 0.7401574803149606,
                    "duration": 0.12546000000000035
                },
                {
                    "name": "G5",
                    "midi": 79,
                    "time": 25.092000000000027,
                    "velocity": 0.6220472440944882,
                    "duration": 0.12546000000000035
                },
                {
                    "name": "D5",
                    "midi": 74,
                    "time": 25.092000000000027,
                    "velocity": 0.6220472440944882,
                    "duration": 0.12546000000000035
                },
                {
                    "name": "D#5",
                    "midi": 75,
                    "time": 25.59384000000003,
                    "velocity": 0.6377952755905512,
                    "duration": 0.12546000000000035
                },
                {
                    "name": "G5",
                    "midi": 79,
                    "time": 25.59384000000003,
                    "velocity": 0.6377952755905512,
                    "duration": 0.12546000000000035
                },
                {
                    "name": "D#6",
                    "midi": 87,
                    "time": 25.59384000000003,
                    "velocity": 0.7559055118110236,
                    "duration": 0.12546000000000035
                },
                {
                    "name": "F5",
                    "midi": 77,
                    "time": 26.09568000000003,
                    "velocity": 0.6377952755905512,
                    "duration": 0.12546000000000035
                },
                {
                    "name": "C6",
                    "midi": 84,
                    "time": 26.09568000000003,
                    "velocity": 0.6377952755905512,
                    "duration": 0.12546000000000035
                },
                {
                    "name": "F6",
                    "midi": 89,
                    "time": 26.09568000000003,
                    "velocity": 0.7559055118110236,
                    "duration": 0.12546000000000035
                },
                {
                    "name": "F#5",
                    "midi": 78,
                    "time": 26.59752000000003,
                    "velocity": 0.7007874015748031,
                    "duration": 1.0036799999999992
                },
                {
                    "name": "F#6",
                    "midi": 90,
                    "time": 26.59752000000003,
                    "velocity": 0.8267716535433071,
                    "duration": 1.0036799999999992
                },
                {
                    "name": "D6",
                    "midi": 86,
                    "time": 26.59752000000003,
                    "velocity": 0.7007874015748031,
                    "duration": 1.0036799999999992
                },
                {
                    "name": "C6",
                    "midi": 84,
                    "time": 26.59752000000003,
                    "velocity": 0.7007874015748031,
                    "duration": 1.0036799999999992
                },
                {
                    "name": "C6",
                    "midi": 84,
                    "time": 27.60120000000003,
                    "velocity": 0.7007874015748031,
                    "duration": 1.0036799999999992
                },
                {
                    "name": "G5",
                    "midi": 79,
                    "time": 27.60120000000003,
                    "velocity": 0.7007874015748031,
                    "duration": 1.0036799999999992
                },
                {
                    "name": "G6",
                    "midi": 91,
                    "time": 27.60120000000003,
                    "velocity": 0.8267716535433071,
                    "duration": 1.0036799999999992
                },
                {
                    "name": "D6",
                    "midi": 86,
                    "time": 27.60120000000003,
                    "velocity": 0.7007874015748031,
                    "duration": 1.0036799999999992
                },
                {
                    "name": "A5",
                    "midi": 81,
                    "time": 28.60488000000003,
                    "velocity": 0.7007874015748031,
                    "duration": 0.9827699999999986
                },
                {
                    "name": "D6",
                    "midi": 86,
                    "time": 28.60488000000003,
                    "velocity": 0.7007874015748031,
                    "duration": 0.9827699999999986
                },
                {
                    "name": "A6",
                    "midi": 93,
                    "time": 28.60488000000003,
                    "velocity": 0.8267716535433071,
                    "duration": 0.9827699999999986
                },
                {
                    "name": "C6",
                    "midi": 84,
                    "time": 28.60488000000003,
                    "velocity": 0.7007874015748031,
                    "duration": 0.9827699999999986
                },
                {
                    "name": "A5",
                    "midi": 81,
                    "time": 29.60856000000003,
                    "velocity": 0.7007874015748031,
                    "duration": 0.7527599999999985
                },
                {
                    "name": "A6",
                    "midi": 93,
                    "time": 29.60856000000003,
                    "velocity": 0.8267716535433071,
                    "duration": 0.7527599999999985
                },
                {
                    "name": "C6",
                    "midi": 84,
                    "time": 29.60856000000003,
                    "velocity": 0.7007874015748031,
                    "duration": 0.7527599999999985
                },
                {
                    "name": "D6",
                    "midi": 86,
                    "time": 29.60856000000003,
                    "velocity": 0.7007874015748031,
                    "duration": 0.7527599999999985
                },
                {
                    "name": "G6",
                    "midi": 91,
                    "time": 30.361320000000028,
                    "velocity": 0.6535433070866141,
                    "duration": 0.12546000000000035
                },
                {
                    "name": "G5",
                    "midi": 79,
                    "time": 30.361320000000028,
                    "velocity": 0.5511811023622047,
                    "duration": 0.12546000000000035
                },
                {
                    "name": "B5",
                    "midi": 83,
                    "time": 30.361320000000028,
                    "velocity": 0.5511811023622047,
                    "duration": 0.12546000000000035
                },
                {
                    "name": "F5",
                    "midi": 77,
                    "time": 30.61224000000003,
                    "velocity": 0.5826771653543307,
                    "duration": 0.12546000000000035
                },
                {
                    "name": "F6",
                    "midi": 89,
                    "time": 30.61224000000003,
                    "velocity": 0.6929133858267716,
                    "duration": 0.12546000000000035
                },
                {
                    "name": "D5",
                    "midi": 74,
                    "time": 30.86316000000003,
                    "velocity": 0.49606299212598426,
                    "duration": 0.12546000000000035
                },
                {
                    "name": "D6",
                    "midi": 86,
                    "time": 30.86316000000003,
                    "velocity": 0.5905511811023622,
                    "duration": 0.12546000000000035
                },
                {
                    "name": "B5",
                    "midi": 83,
                    "time": 31.11408000000003,
                    "velocity": 0.6850393700787402,
                    "duration": 0.12546000000000035
                },
                {
                    "name": "B4",
                    "midi": 71,
                    "time": 31.11408000000003,
                    "velocity": 0.5748031496062992,
                    "duration": 0.12546000000000035
                },
                {
                    "name": "G5",
                    "midi": 79,
                    "time": 31.36500000000003,
                    "velocity": 0.5511811023622047,
                    "duration": 0.12546000000000035
                },
                {
                    "name": "G4",
                    "midi": 67,
                    "time": 31.36500000000003,
                    "velocity": 0.4645669291338583,
                    "duration": 0.12546000000000035
                },
                {
                    "name": "F5",
                    "midi": 77,
                    "time": 31.61592000000003,
                    "velocity": 0.6535433070866141,
                    "duration": 0.12546000000000035
                },
                {
                    "name": "F4",
                    "midi": 65,
                    "time": 31.61592000000003,
                    "velocity": 0.5511811023622047,
                    "duration": 0.12546000000000035
                },
                {
                    "name": "D5",
                    "midi": 74,
                    "time": 31.866840000000032,
                    "velocity": 0.5354330708661418,
                    "duration": 0.12546000000000035
                },
                {
                    "name": "D4",
                    "midi": 62,
                    "time": 31.866840000000032,
                    "velocity": 0.44881889763779526,
                    "duration": 0.12546000000000035
                },
                {
                    "name": "C4",
                    "midi": 60,
                    "time": 32.11776000000003,
                    "velocity": 0.5354330708661418,
                    "duration": 0.7527600000000021
                },
                {
                    "name": "C5",
                    "midi": 72,
                    "time": 32.11776000000003,
                    "velocity": 0.6299212598425197,
                    "duration": 0.7527600000000021
                },
                {
                    "name": "E4",
                    "midi": 64,
                    "time": 32.11776000000003,
                    "velocity": 0.5354330708661418,
                    "duration": 0.7527600000000021
                },
                {
                    "name": "C4",
                    "midi": 60,
                    "time": 33.87420000000004,
                    "velocity": 0.31496062992125984,
                    "duration": 0.22582799999999992
                },
                {
                    "name": "C4",
                    "midi": 60,
                    "time": 34.12512000000004,
                    "velocity": 0.3779527559055118,
                    "duration": 0.5018400000000014
                },
                {
                    "name": "D4",
                    "midi": 62,
                    "time": 34.62696000000004,
                    "velocity": 0.3228346456692913,
                    "duration": 0.1254599999999968
                },
                {
                    "name": "E4",
                    "midi": 64,
                    "time": 34.87788000000003,
                    "velocity": 0.36220472440944884,
                    "duration": 0.1254599999999968
                },
                {
                    "name": "F4",
                    "midi": 65,
                    "time": 35.12880000000003,
                    "velocity": 0.4015748031496063,
                    "duration": 0.48093000000000075
                },
                {
                    "name": "F4",
                    "midi": 65,
                    "time": 35.63064000000003,
                    "velocity": 0.3543307086614173,
                    "duration": 0.22582799999999992
                },
                {
                    "name": "F4",
                    "midi": 65,
                    "time": 35.88156000000003,
                    "velocity": 0.29133858267716534,
                    "duration": 0.22582799999999992
                },
                {
                    "name": "G4",
                    "midi": 67,
                    "time": 35.88156000000003,
                    "velocity": 0.36220472440944884,
                    "duration": 0.22582799999999992
                },
                {
                    "name": "G4",
                    "midi": 67,
                    "time": 36.13248000000003,
                    "velocity": 0.3858267716535433,
                    "duration": 0.5018400000000014
                },
                {
                    "name": "A4",
                    "midi": 69,
                    "time": 36.63432000000003,
                    "velocity": 0.3543307086614173,
                    "duration": 0.1254599999999968
                },
                {
                    "name": "B4",
                    "midi": 71,
                    "time": 36.885240000000024,
                    "velocity": 0.3543307086614173,
                    "duration": 0.1254599999999968
                },
                {
                    "name": "G5",
                    "midi": 79,
                    "time": 36.885240000000024,
                    "velocity": 0.4015748031496063,
                    "duration": 0.22582799999999992
                },
                {
                    "name": "G5",
                    "midi": 79,
                    "time": 37.136160000000025,
                    "velocity": 0.4330708661417323,
                    "duration": 0.752759999999995
                },
                {
                    "name": "C5",
                    "midi": 72,
                    "time": 37.136160000000025,
                    "velocity": 0.3858267716535433,
                    "duration": 0.5018400000000014
                },
                {
                    "name": "D5",
                    "midi": 74,
                    "time": 37.63800000000003,
                    "velocity": 0.3700787401574803,
                    "duration": 0.1254599999999968
                },
                {
                    "name": "E5",
                    "midi": 76,
                    "time": 37.88892000000002,
                    "velocity": 0.4330708661417323,
                    "duration": 0.1254599999999968
                },
                {
                    "name": "G5",
                    "midi": 79,
                    "time": 37.88892000000002,
                    "velocity": 0.4330708661417323,
                    "duration": 0.22582799999999992
                },
                {
                    "name": "G5",
                    "midi": 79,
                    "time": 38.13984000000002,
                    "velocity": 0.4881889763779528,
                    "duration": 0.2509200000000007
                },
                {
                    "name": "F5",
                    "midi": 77,
                    "time": 38.13984000000002,
                    "velocity": 0.41732283464566927,
                    "duration": 0.752759999999995
                },
                {
                    "name": "F#5",
                    "midi": 78,
                    "time": 38.39076000000002,
                    "velocity": 0.41732283464566927,
                    "duration": 0.2509200000000007
                },
                {
                    "name": "A5",
                    "midi": 81,
                    "time": 38.64168000000002,
                    "velocity": 0.49606299212598426,
                    "duration": 0.1254599999999968
                },
                {
                    "name": "E5",
                    "midi": 76,
                    "time": 38.892600000000016,
                    "velocity": 0.3543307086614173,
                    "duration": 0.2509199999999936
                },
                {
                    "name": "G5",
                    "midi": 79,
                    "time": 38.892600000000016,
                    "velocity": 0.4251968503937008,
                    "duration": 0.1254599999999968
                },
                {
                    "name": "G5",
                    "midi": 79,
                    "time": 39.14352000000001,
                    "velocity": 0.4645669291338583,
                    "duration": 0.2509200000000007
                },
                {
                    "name": "E5",
                    "midi": 76,
                    "time": 39.14352000000001,
                    "velocity": 0.3937007874015748,
                    "duration": 0.752759999999995
                },
                {
                    "name": "F#5",
                    "midi": 78,
                    "time": 39.39444000000001,
                    "velocity": 0.3937007874015748,
                    "duration": 0.2509200000000007
                },
                {
                    "name": "A5",
                    "midi": 81,
                    "time": 39.64536000000001,
                    "velocity": 0.4645669291338583,
                    "duration": 0.1254599999999968
                },
                {
                    "name": "C5",
                    "midi": 72,
                    "time": 39.896280000000004,
                    "velocity": 0.33070866141732286,
                    "duration": 0.2509199999999936
                },
                {
                    "name": "G5",
                    "midi": 79,
                    "time": 39.896280000000004,
                    "velocity": 0.3937007874015748,
                    "duration": 0.1254599999999968
                },
                {
                    "name": "C#5",
                    "midi": 73,
                    "time": 40.1472,
                    "velocity": 0.4330708661417323,
                    "duration": 0.5018400000000014
                },
                {
                    "name": "A#5",
                    "midi": 82,
                    "time": 40.1472,
                    "velocity": 0.5118110236220472,
                    "duration": 0.5018400000000014
                },
                {
                    "name": "A5",
                    "midi": 81,
                    "time": 40.64904,
                    "velocity": 0.4645669291338583,
                    "duration": 0.1254599999999968
                },
                {
                    "name": "D5",
                    "midi": 74,
                    "time": 40.64904,
                    "velocity": 0.3937007874015748,
                    "duration": 0.1254599999999968
                },
                {
                    "name": "D4",
                    "midi": 62,
                    "time": 41.903639999999996,
                    "velocity": 0.31496062992125984,
                    "duration": 0.22582799999999992
                },
                {
                    "name": "D4",
                    "midi": 62,
                    "time": 42.15456,
                    "velocity": 0.3779527559055118,
                    "duration": 0.5018400000000014
                },
                {
                    "name": "E4",
                    "midi": 64,
                    "time": 42.6564,
                    "velocity": 0.3228346456692913,
                    "duration": 0.1254599999999968
                },
                {
                    "name": "F4",
                    "midi": 65,
                    "time": 42.90731999999999,
                    "velocity": 0.36220472440944884,
                    "duration": 0.1254599999999968
                },
                {
                    "name": "G4",
                    "midi": 67,
                    "time": 43.158239999999985,
                    "velocity": 0.4015748031496063,
                    "duration": 0.5018400000000014
                },
                {
                    "name": "G4",
                    "midi": 67,
                    "time": 43.66007999999999,
                    "velocity": 0.3543307086614173,
                    "duration": 0.2509200000000007
                },
                {
                    "name": "A4",
                    "midi": 69,
                    "time": 43.91099999999999,
                    "velocity": 0.36220472440944884,
                    "duration": 0.22582799999999992
                },
                {
                    "name": "G4",
                    "midi": 67,
                    "time": 43.91099999999999,
                    "velocity": 0.29133858267716534,
                    "duration": 0.22582799999999992
                },
                {
                    "name": "A4",
                    "midi": 69,
                    "time": 44.16191999999999,
                    "velocity": 0.3858267716535433,
                    "duration": 0.5018400000000014
                },
                {
                    "name": "B4",
                    "midi": 71,
                    "time": 44.66375999999999,
                    "velocity": 0.3543307086614173,
                    "duration": 0.1254599999999968
                },
                {
                    "name": "C#5",
                    "midi": 73,
                    "time": 44.91467999999998,
                    "velocity": 0.3543307086614173,
                    "duration": 0.1254599999999968
                },
                {
                    "name": "A5",
                    "midi": 81,
                    "time": 44.91467999999998,
                    "velocity": 0.4015748031496063,
                    "duration": 0.22582799999999992
                },
                {
                    "name": "D5",
                    "midi": 74,
                    "time": 45.16559999999998,
                    "velocity": 0.3858267716535433,
                    "duration": 0.5018400000000014
                },
                {
                    "name": "A5",
                    "midi": 81,
                    "time": 45.16559999999998,
                    "velocity": 0.4330708661417323,
                    "duration": 0.752759999999995
                },
                {
                    "name": "E5",
                    "midi": 76,
                    "time": 45.667439999999985,
                    "velocity": 0.3700787401574803,
                    "duration": 0.1254599999999968
                },
                {
                    "name": "A5",
                    "midi": 81,
                    "time": 45.91835999999998,
                    "velocity": 0.4330708661417323,
                    "duration": 0.22582799999999992
                },
                {
                    "name": "F5",
                    "midi": 77,
                    "time": 45.91835999999998,
                    "velocity": 0.4330708661417323,
                    "duration": 0.1254599999999968
                },
                {
                    "name": "G5",
                    "midi": 79,
                    "time": 46.16927999999998,
                    "velocity": 0.41732283464566927,
                    "duration": 0.752759999999995
                },
                {
                    "name": "A5",
                    "midi": 81,
                    "time": 46.16927999999998,
                    "velocity": 0.4881889763779528,
                    "duration": 0.2509200000000007
                },
                {
                    "name": "G#5",
                    "midi": 80,
                    "time": 46.42019999999998,
                    "velocity": 0.41732283464566927,
                    "duration": 0.2509200000000007
                },
                {
                    "name": "A#5",
                    "midi": 82,
                    "time": 46.67111999999998,
                    "velocity": 0.49606299212598426,
                    "duration": 0.1254599999999968
                },
                {
                    "name": "F5",
                    "midi": 77,
                    "time": 46.922039999999974,
                    "velocity": 0.3543307086614173,
                    "duration": 0.2509199999999936
                },
                {
                    "name": "A5",
                    "midi": 81,
                    "time": 46.922039999999974,
                    "velocity": 0.4251968503937008,
                    "duration": 0.1254599999999968
                },
                {
                    "name": "A5",
                    "midi": 81,
                    "time": 47.17295999999997,
                    "velocity": 0.4645669291338583,
                    "duration": 0.2509200000000007
                },
                {
                    "name": "F5",
                    "midi": 77,
                    "time": 47.17295999999997,
                    "velocity": 0.3937007874015748,
                    "duration": 0.752759999999995
                },
                {
                    "name": "G#5",
                    "midi": 80,
                    "time": 47.42387999999997,
                    "velocity": 0.3937007874015748,
                    "duration": 0.2509200000000007
                },
                {
                    "name": "A#5",
                    "midi": 82,
                    "time": 47.67479999999997,
                    "velocity": 0.4645669291338583,
                    "duration": 0.1254599999999968
                },
                {
                    "name": "A5",
                    "midi": 81,
                    "time": 47.92571999999996,
                    "velocity": 0.3937007874015748,
                    "duration": 0.1254599999999968
                },
                {
                    "name": "D5",
                    "midi": 74,
                    "time": 47.92571999999996,
                    "velocity": 0.33070866141732286,
                    "duration": 0.2509199999999936
                },
                {
                    "name": "D#5",
                    "midi": 75,
                    "time": 48.176639999999956,
                    "velocity": 0.4330708661417323,
                    "duration": 0.5018400000000014
                },
                {
                    "name": "C6",
                    "midi": 84,
                    "time": 48.176639999999956,
                    "velocity": 0.5433070866141733,
                    "duration": 0.5018400000000014
                },
                {
                    "name": "E5",
                    "midi": 76,
                    "time": 48.67847999999996,
                    "velocity": 0.3937007874015748,
                    "duration": 0.1254599999999968
                },
                {
                    "name": "B5",
                    "midi": 83,
                    "time": 48.67847999999996,
                    "velocity": 0.4645669291338583,
                    "duration": 0.1254599999999968
                },
                {
                    "name": "E6",
                    "midi": 88,
                    "time": 50.183999999999955,
                    "velocity": 0.6141732283464567,
                    "duration": 0.5018400000000014
                },
                {
                    "name": "F#5",
                    "midi": 78,
                    "time": 50.183999999999955,
                    "velocity": 0.5196850393700787,
                    "duration": 0.752759999999995
                },
                {
                    "name": "D#6",
                    "midi": 87,
                    "time": 50.685839999999956,
                    "velocity": 0.5433070866141733,
                    "duration": 0.1254599999999968
                },
                {
                    "name": "A5",
                    "midi": 81,
                    "time": 52.191359999999946,
                    "velocity": 0.5354330708661418,
                    "duration": 0.752759999999995
                },
                {
                    "name": "G6",
                    "midi": 91,
                    "time": 52.191359999999946,
                    "velocity": 0.6377952755905512,
                    "duration": 0.5018400000000014
                },
                {
                    "name": "F#6",
                    "midi": 90,
                    "time": 52.69319999999995,
                    "velocity": 0.5669291338582677,
                    "duration": 0.1254599999999968
                },
                {
                    "name": "A6",
                    "midi": 93,
                    "time": 53.19503999999994,
                    "velocity": 0.6299212598425197,
                    "duration": 0.5018400000000014
                },
                {
                    "name": "A#5",
                    "midi": 82,
                    "time": 53.19503999999994,
                    "velocity": 0.5354330708661418,
                    "duration": 0.5018400000000014
                },
                {
                    "name": "G6",
                    "midi": 91,
                    "time": 53.69687999999994,
                    "velocity": 0.5826771653543307,
                    "duration": 0.1254599999999968
                },
                {
                    "name": "E5",
                    "midi": 76,
                    "time": 56.20607999999994,
                    "velocity": 0.49606299212598426,
                    "duration": 0.5018400000000014
                },
                {
                    "name": "E4",
                    "midi": 64,
                    "time": 56.20607999999994,
                    "velocity": 0.41732283464566927,
                    "duration": 0.5018400000000014
                },
                {
                    "name": "D#5",
                    "midi": 75,
                    "time": 56.707919999999945,
                    "velocity": 0.48031496062992124,
                    "duration": 0.1254599999999968
                },
                {
                    "name": "C#5",
                    "midi": 73,
                    "time": 56.95883999999994,
                    "velocity": 0.48031496062992124,
                    "duration": 0.1254599999999968
                },
                {
                    "name": "B4",
                    "midi": 71,
                    "time": 57.20975999999993,
                    "velocity": 0.4566929133858268,
                    "duration": 0.5018400000000014
                },
                {
                    "name": "A5",
                    "midi": 81,
                    "time": 57.20975999999993,
                    "velocity": 0.5433070866141733,
                    "duration": 0.5018400000000014
                },
                {
                    "name": "G#5",
                    "midi": 80,
                    "time": 57.71159999999993,
                    "velocity": 0.48031496062992124,
                    "duration": 0.1254599999999968
                },
                {
                    "name": "F#5",
                    "midi": 78,
                    "time": 57.96251999999993,
                    "velocity": 0.48031496062992124,
                    "duration": 0.1254599999999968
                },
                {
                    "name": "E5",
                    "midi": 76,
                    "time": 58.21343999999992,
                    "velocity": 0.48031496062992124,
                    "duration": 1.0036799999999886
                },
                {
                    "name": "B5",
                    "midi": 83,
                    "time": 58.21343999999992,
                    "velocity": 0.5669291338582677,
                    "duration": 0.5018400000000014
                },
                {
                    "name": "A5",
                    "midi": 81,
                    "time": 58.71527999999992,
                    "velocity": 0.5118110236220472,
                    "duration": 0.1254599999999968
                },
                {
                    "name": "G#5",
                    "midi": 80,
                    "time": 58.966199999999915,
                    "velocity": 0.48031496062992124,
                    "duration": 0.1254599999999968
                },
                {
                    "name": "E5",
                    "midi": 76,
                    "time": 59.21711999999991,
                    "velocity": 0.4645669291338583,
                    "duration": 0.5018400000000014
                },
                {
                    "name": "F#5",
                    "midi": 78,
                    "time": 59.21711999999991,
                    "velocity": 0.5511811023622047,
                    "duration": 0.2509200000000007
                },
                {
                    "name": "G5",
                    "midi": 79,
                    "time": 59.46803999999991,
                    "velocity": 0.48031496062992124,
                    "duration": 0.22582799999999992
                },
                {
                    "name": "G5",
                    "midi": 79,
                    "time": 59.71895999999991,
                    "velocity": 0.49606299212598426,
                    "duration": 0.7527600000000021
                },
                {
                    "name": "E5",
                    "midi": 76,
                    "time": 59.71895999999991,
                    "velocity": 0.41732283464566927,
                    "duration": 1.0036800000000028
                },
                {
                    "name": "F#5",
                    "midi": 78,
                    "time": 60.47171999999991,
                    "velocity": 0.5275590551181102,
                    "duration": 0.2509200000000007
                },
                {
                    "name": "E5",
                    "midi": 76,
                    "time": 60.72263999999991,
                    "velocity": 0.4645669291338583,
                    "duration": 0.5018400000000014
                },
                {
                    "name": "F#5",
                    "midi": 78,
                    "time": 60.72263999999991,
                    "velocity": 0.5511811023622047,
                    "duration": 0.2509200000000007
                },
                {
                    "name": "G5",
                    "midi": 79,
                    "time": 60.973559999999914,
                    "velocity": 0.5039370078740157,
                    "duration": 0.22582799999999992
                },
                {
                    "name": "G5",
                    "midi": 79,
                    "time": 61.224479999999915,
                    "velocity": 0.5039370078740157,
                    "duration": 0.2509200000000007
                },
                {
                    "name": "E5",
                    "midi": 76,
                    "time": 61.224479999999915,
                    "velocity": 0.4251968503937008,
                    "duration": 0.5018400000000014
                },
                {
                    "name": "G#5",
                    "midi": 80,
                    "time": 61.475399999999915,
                    "velocity": 0.48031496062992124,
                    "duration": 0.22582799999999992
                },
                {
                    "name": "E5",
                    "midi": 76,
                    "time": 61.726319999999916,
                    "velocity": 0.4645669291338583,
                    "duration": 1.0036800000000028
                },
                {
                    "name": "G#5",
                    "midi": 80,
                    "time": 61.726319999999916,
                    "velocity": 0.5511811023622047,
                    "duration": 0.7527600000000021
                },
                {
                    "name": "G5",
                    "midi": 79,
                    "time": 62.47907999999992,
                    "velocity": 0.47244094488188976,
                    "duration": 0.2509200000000007
                },
                {
                    "name": "G5",
                    "midi": 79,
                    "time": 62.72999999999992,
                    "velocity": 0.4881889763779528,
                    "duration": 0.2509200000000007
                },
                {
                    "name": "E5",
                    "midi": 76,
                    "time": 62.72999999999992,
                    "velocity": 0.4094488188976378,
                    "duration": 0.5018400000000014
                },
                {
                    "name": "G#5",
                    "midi": 80,
                    "time": 62.98091999999992,
                    "velocity": 0.5039370078740157,
                    "duration": 0.22582799999999992
                },
                {
                    "name": "G#5",
                    "midi": 80,
                    "time": 63.23183999999992,
                    "velocity": 0.5196850393700787,
                    "duration": 0.2509200000000007
                },
                {
                    "name": "E5",
                    "midi": 76,
                    "time": 63.23183999999992,
                    "velocity": 0.4409448818897638,
                    "duration": 0.5018400000000014
                },
                {
                    "name": "A5",
                    "midi": 81,
                    "time": 63.48275999999992,
                    "velocity": 0.5354330708661418,
                    "duration": 0.22582799999999992
                },
                {
                    "name": "E5",
                    "midi": 76,
                    "time": 63.73367999999992,
                    "velocity": 0.4881889763779528,
                    "duration": 0.7318499999999943
                },
                {
                    "name": "A5",
                    "midi": 81,
                    "time": 63.73367999999992,
                    "velocity": 0.5826771653543307,
                    "duration": 0.7318499999999943
                },
                {
                    "name": "A#5",
                    "midi": 82,
                    "time": 64.48643999999992,
                    "velocity": 0.5433070866141733,
                    "duration": 0.22582800000000702
                },
                {
                    "name": "E5",
                    "midi": 76,
                    "time": 64.48643999999992,
                    "velocity": 0.4566929133858268,
                    "duration": 0.22582800000000702
                },
                {
                    "name": "E5",
                    "midi": 76,
                    "time": 64.73735999999992,
                    "velocity": 0.5118110236220472,
                    "duration": 0.2509199999999936
                },
                {
                    "name": "A#5",
                    "midi": 82,
                    "time": 64.73735999999992,
                    "velocity": 0.6062992125984252,
                    "duration": 0.2509199999999936
                },
                {
                    "name": "G5",
                    "midi": 79,
                    "time": 64.98827999999992,
                    "velocity": 0.44881889763779526,
                    "duration": 0.22582800000000702
                },
                {
                    "name": "C#6",
                    "midi": 85,
                    "time": 64.98827999999992,
                    "velocity": 0.5354330708661418,
                    "duration": 0.22582800000000702
                },
                {
                    "name": "G5",
                    "midi": 79,
                    "time": 65.23919999999993,
                    "velocity": 0.4645669291338583,
                    "duration": 0.2509199999999936
                },
                {
                    "name": "C#6",
                    "midi": 85,
                    "time": 65.23919999999993,
                    "velocity": 0.5511811023622047,
                    "duration": 0.2509199999999936
                },
                {
                    "name": "A#5",
                    "midi": 82,
                    "time": 65.49011999999992,
                    "velocity": 0.5511811023622047,
                    "duration": 0.22582800000000702
                },
                {
                    "name": "E6",
                    "midi": 88,
                    "time": 65.49011999999992,
                    "velocity": 0.5511811023622047,
                    "duration": 0.22582800000000702
                },
                {
                    "name": "E6",
                    "midi": 88,
                    "time": 65.74103999999993,
                    "velocity": 0.5905511811023622,
                    "duration": 0.2509199999999936
                },
                {
                    "name": "A#5",
                    "midi": 82,
                    "time": 65.74103999999993,
                    "velocity": 0.5905511811023622,
                    "duration": 0.2509199999999936
                },
                {
                    "name": "G6",
                    "midi": 91,
                    "time": 65.99195999999992,
                    "velocity": 0.5748031496062992,
                    "duration": 0.2509199999999936
                },
                {
                    "name": "C#6",
                    "midi": 85,
                    "time": 65.99195999999992,
                    "velocity": 0.4881889763779528,
                    "duration": 0.2509199999999936
                },
                {
                    "name": "F#6",
                    "midi": 90,
                    "time": 66.24287999999991,
                    "velocity": 0.6299212598425197,
                    "duration": 0.1254600000000039
                },
                {
                    "name": "D#6",
                    "midi": 87,
                    "time": 66.24287999999991,
                    "velocity": 0.5354330708661418,
                    "duration": 0.1254600000000039
                },
                {
                    "name": "F#4",
                    "midi": 66,
                    "time": 66.99563999999992,
                    "velocity": 0.6299212598425197,
                    "duration": 1.5055199999999758
                },
                {
                    "name": "F#5",
                    "midi": 78,
                    "time": 67.24655999999992,
                    "velocity": 0.6692913385826772,
                    "duration": 0.752759999999995
                },
                {
                    "name": "A4",
                    "midi": 69,
                    "time": 67.24655999999992,
                    "velocity": 0.5669291338582677,
                    "duration": 1.2545999999999822
                },
                {
                    "name": "E5",
                    "midi": 76,
                    "time": 67.99931999999991,
                    "velocity": 0.6299212598425197,
                    "duration": 0.2509199999999936
                },
                {
                    "name": "D#5",
                    "midi": 75,
                    "time": 68.2502399999999,
                    "velocity": 0.6614173228346457,
                    "duration": 0.2509199999999936
                },
                {
                    "name": "F#5",
                    "midi": 78,
                    "time": 69.0029999999999,
                    "velocity": 0.6535433070866141,
                    "duration": 1.5055199999999758
                },
                {
                    "name": "A5",
                    "midi": 81,
                    "time": 69.2539199999999,
                    "velocity": 0.5984251968503937,
                    "duration": 1.2545999999999822
                },
                {
                    "name": "F#6",
                    "midi": 90,
                    "time": 69.2539199999999,
                    "velocity": 0.7086614173228346,
                    "duration": 0.752759999999995
                },
                {
                    "name": "E6",
                    "midi": 88,
                    "time": 70.00667999999989,
                    "velocity": 0.6692913385826772,
                    "duration": 0.2509199999999936
                },
                {
                    "name": "D#6",
                    "midi": 87,
                    "time": 70.25759999999988,
                    "velocity": 0.7480314960629921,
                    "duration": 0.2509199999999936
                },
                {
                    "name": "A6",
                    "midi": 93,
                    "time": 70.75943999999987,
                    "velocity": 0.7795275590551181,
                    "duration": 0.1254600000000039
                },
                {
                    "name": "D#6",
                    "midi": 87,
                    "time": 70.75943999999987,
                    "velocity": 0.6614173228346457,
                    "duration": 0.1254600000000039
                },
                {
                    "name": "F#6",
                    "midi": 90,
                    "time": 70.75943999999987,
                    "velocity": 0.6614173228346457,
                    "duration": 0.1254600000000039
                },
                {
                    "name": "A5",
                    "midi": 81,
                    "time": 70.75943999999987,
                    "velocity": 0.6614173228346457,
                    "duration": 0.1254600000000039
                },
                {
                    "name": "F#4",
                    "midi": 66,
                    "time": 71.76311999999987,
                    "velocity": 0.6062992125984252,
                    "duration": 0.5018400000000014
                },
                {
                    "name": "A4",
                    "midi": 69,
                    "time": 72.26495999999987,
                    "velocity": 0.6535433070866141,
                    "duration": 1.2545999999999964
                },
                {
                    "name": "F#4",
                    "midi": 66,
                    "time": 73.77047999999986,
                    "velocity": 0.36220472440944884,
                    "duration": 0.5018400000000014
                },
                {
                    "name": "A4",
                    "midi": 69,
                    "time": 74.27231999999987,
                    "velocity": 0.3858267716535433,
                    "duration": 1.2545999999999964
                },
                {
                    "name": "F#4",
                    "midi": 66,
                    "time": 75.77783999999986,
                    "velocity": 0.36220472440944884,
                    "duration": 0.5018400000000014
                },
                {
                    "name": "A4",
                    "midi": 69,
                    "time": 76.27967999999986,
                    "velocity": 0.3858267716535433,
                    "duration": 1.0036800000000028
                },
                {
                    "name": "B4",
                    "midi": 71,
                    "time": 77.28335999999986,
                    "velocity": 0.3779527559055118,
                    "duration": 0.752759999999995
                },
                {
                    "name": "C5",
                    "midi": 72,
                    "time": 78.03611999999985,
                    "velocity": 0.36220472440944884,
                    "duration": 0.22582800000000702
                },
                {
                    "name": "C5",
                    "midi": 72,
                    "time": 78.28703999999986,
                    "velocity": 0.41732283464566927,
                    "duration": 1.0036800000000028
                },
                {
                    "name": "B4",
                    "midi": 71,
                    "time": 79.29071999999987,
                    "velocity": 0.36220472440944884,
                    "duration": 0.5018400000000014
                },
                {
                    "name": "D5",
                    "midi": 74,
                    "time": 80.04347999999986,
                    "velocity": 0.3858267716535433,
                    "duration": 0.2509199999999936
                },
                {
                    "name": "F5",
                    "midi": 77,
                    "time": 80.29439999999985,
                    "velocity": 0.4251968503937008,
                    "duration": 1.0036800000000028
                },
                {
                    "name": "E5",
                    "midi": 76,
                    "time": 81.29807999999986,
                    "velocity": 0.3937007874015748,
                    "duration": 0.752759999999995
                },
                {
                    "name": "B4",
                    "midi": 71,
                    "time": 82.05083999999985,
                    "velocity": 0.3937007874015748,
                    "duration": 0.2509199999999936
                },
                {
                    "name": "D5",
                    "midi": 74,
                    "time": 82.30175999999985,
                    "velocity": 0.44881889763779526,
                    "duration": 1.0036800000000028
                },
                {
                    "name": "C5",
                    "midi": 72,
                    "time": 83.30543999999985,
                    "velocity": 0.4094488188976378,
                    "duration": 0.5018400000000014
                },
                {
                    "name": "C5",
                    "midi": 72,
                    "time": 84.30911999999985,
                    "velocity": 0.3858267716535433,
                    "duration": 0.9827700000000021
                },
                {
                    "name": "C5",
                    "midi": 72,
                    "time": 85.31279999999985,
                    "velocity": 0.3937007874015748,
                    "duration": 1.50551999999999
                },
                {
                    "name": "D5",
                    "midi": 74,
                    "time": 86.06555999999985,
                    "velocity": 0.4409448818897638,
                    "duration": 0.2509199999999936
                },
                {
                    "name": "E5",
                    "midi": 76,
                    "time": 86.31647999999984,
                    "velocity": 0.5118110236220472,
                    "duration": 0.5018400000000014
                },
                {
                    "name": "E5",
                    "midi": 76,
                    "time": 87.32015999999985,
                    "velocity": 0.49606299212598426,
                    "duration": 1.5055200000000042
                },
                {
                    "name": "G5",
                    "midi": 79,
                    "time": 87.32015999999985,
                    "velocity": 0.5905511811023622,
                    "duration": 1.5055200000000042
                },
                {
                    "name": "G5",
                    "midi": 79,
                    "time": 89.32751999999985,
                    "velocity": 0.4881889763779528,
                    "duration": 1.5055200000000042
                },
                {
                    "name": "B5",
                    "midi": 83,
                    "time": 89.32751999999985,
                    "velocity": 0.5748031496062992,
                    "duration": 1.5055200000000042
                },
                {
                    "name": "D5",
                    "midi": 74,
                    "time": 91.27214999999985,
                    "velocity": 0.5433070866141733,
                    "duration": 1.8191699999999855
                },
                {
                    "name": "G5",
                    "midi": 79,
                    "time": 91.30351499999985,
                    "velocity": 0.5748031496062992,
                    "duration": 1.7878049999999917
                },
                {
                    "name": "D6",
                    "midi": 86,
                    "time": 91.33487999999984,
                    "velocity": 0.5984251968503937,
                    "duration": 1.7564399999999978
                },
                {
                    "name": "B5",
                    "midi": 83,
                    "time": 93.09131999999984,
                    "velocity": 0.5196850393700787,
                    "duration": 0.2509199999999936
                },
                {
                    "name": "F#5",
                    "midi": 78,
                    "time": 93.34223999999983,
                    "velocity": 0.4881889763779528,
                    "duration": 1.0036799999999886
                },
                {
                    "name": "C6",
                    "midi": 84,
                    "time": 93.34223999999983,
                    "velocity": 0.5748031496062992,
                    "duration": 0.752759999999995
                },
                {
                    "name": "A5",
                    "midi": 81,
                    "time": 94.09499999999983,
                    "velocity": 0.48031496062992124,
                    "duration": 0.2509199999999936
                },
                {
                    "name": "G5",
                    "midi": 79,
                    "time": 94.34591999999982,
                    "velocity": 0.5433070866141733,
                    "duration": 1.0036800000000028
                },
                {
                    "name": "A5",
                    "midi": 81,
                    "time": 95.34959999999982,
                    "velocity": 0.49606299212598426,
                    "duration": 0.752759999999995
                },
                {
                    "name": "C5",
                    "midi": 72,
                    "time": 95.34959999999982,
                    "velocity": 0.41732283464566927,
                    "duration": 2.0073599999999914
                },
                {
                    "name": "F5",
                    "midi": 77,
                    "time": 96.10235999999982,
                    "velocity": 0.4094488188976378,
                    "duration": 0.2509199999999936
                },
                {
                    "name": "E5",
                    "midi": 76,
                    "time": 96.35327999999981,
                    "velocity": 0.49606299212598426,
                    "duration": 1.0036800000000028
                },
                {
                    "name": "B4",
                    "midi": 71,
                    "time": 97.35695999999982,
                    "velocity": 0.4251968503937008,
                    "duration": 1.0036800000000028
                },
                {
                    "name": "F5",
                    "midi": 77,
                    "time": 97.35695999999982,
                    "velocity": 0.5039370078740157,
                    "duration": 1.7564399999999978
                },
                {
                    "name": "C5",
                    "midi": 72,
                    "time": 98.36063999999982,
                    "velocity": 0.5039370078740157,
                    "duration": 1.0036799999999886
                },
                {
                    "name": "E5",
                    "midi": 76,
                    "time": 99.11339999999981,
                    "velocity": 0.4094488188976378,
                    "duration": 0.2509199999999936
                },
                {
                    "name": "F#5",
                    "midi": 78,
                    "time": 99.36431999999981,
                    "velocity": 0.3937007874015748,
                    "duration": 0.752759999999995
                },
                {
                    "name": "A4",
                    "midi": 69,
                    "time": 99.36431999999981,
                    "velocity": 0.33070866141732286,
                    "duration": 1.0036799999999886
                },
                {
                    "name": "D#5",
                    "midi": 75,
                    "time": 100.1170799999998,
                    "velocity": 0.29133858267716534,
                    "duration": 0.2509199999999936
                },
                {
                    "name": "C6",
                    "midi": 84,
                    "time": 100.3679999999998,
                    "velocity": 0.31496062992125984,
                    "duration": 1.0036800000000028
                },
                {
                    "name": "E6",
                    "midi": 88,
                    "time": 100.3679999999998,
                    "velocity": 0.31496062992125984,
                    "duration": 1.0036800000000028
                },
                {
                    "name": "E5",
                    "midi": 76,
                    "time": 100.3679999999998,
                    "velocity": 0.2677165354330709,
                    "duration": 1.986450000000005
                },
                {
                    "name": "D6",
                    "midi": 86,
                    "time": 101.3716799999998,
                    "velocity": 0.2755905511811024,
                    "duration": 0.5018400000000014
                },
                {
                    "name": "B5",
                    "midi": 83,
                    "time": 101.3716799999998,
                    "velocity": 0.2755905511811024,
                    "duration": 0.5018400000000014
                },
                {
                    "name": "C6",
                    "midi": 84,
                    "time": 101.8735199999998,
                    "velocity": 0.3228346456692913,
                    "duration": 0.5018400000000014
                },
                {
                    "name": "E6",
                    "midi": 88,
                    "time": 101.8735199999998,
                    "velocity": 0.3228346456692913,
                    "duration": 0.5018400000000014
                },
                {
                    "name": "F6",
                    "midi": 89,
                    "time": 102.3753599999998,
                    "velocity": 0.36220472440944884,
                    "duration": 0.752759999999995
                },
                {
                    "name": "D6",
                    "midi": 86,
                    "time": 102.3753599999998,
                    "velocity": 0.36220472440944884,
                    "duration": 0.752759999999995
                },
                {
                    "name": "E5",
                    "midi": 76,
                    "time": 102.3753599999998,
                    "velocity": 0.1968503937007874,
                    "duration": 1.9864499999999907
                },
                {
                    "name": "D6",
                    "midi": 86,
                    "time": 103.1281199999998,
                    "velocity": 0.30708661417322836,
                    "duration": 0.2509199999999936
                },
                {
                    "name": "B5",
                    "midi": 83,
                    "time": 103.1281199999998,
                    "velocity": 0.30708661417322836,
                    "duration": 0.2509199999999936
                },
                {
                    "name": "B5",
                    "midi": 83,
                    "time": 103.37903999999979,
                    "velocity": 0.36220472440944884,
                    "duration": 0.5018400000000014
                },
                {
                    "name": "G#5",
                    "midi": 80,
                    "time": 103.37903999999979,
                    "velocity": 0.36220472440944884,
                    "duration": 0.5018400000000014
                },
                {
                    "name": "A5",
                    "midi": 81,
                    "time": 103.88087999999979,
                    "velocity": 0.31496062992125984,
                    "duration": 0.5018400000000014
                },
                {
                    "name": "C6",
                    "midi": 84,
                    "time": 103.88087999999979,
                    "velocity": 0.31496062992125984,
                    "duration": 0.5018400000000014
                },
                {
                    "name": "B5",
                    "midi": 83,
                    "time": 104.3827199999998,
                    "velocity": 0.31496062992125984,
                    "duration": 0.5018400000000014
                },
                {
                    "name": "E5",
                    "midi": 76,
                    "time": 104.3827199999998,
                    "velocity": 0.2677165354330709,
                    "duration": 1.986450000000005
                },
                {
                    "name": "D6",
                    "midi": 86,
                    "time": 104.3827199999998,
                    "velocity": 0.31496062992125984,
                    "duration": 0.5018400000000014
                },
                {
                    "name": "C6",
                    "midi": 84,
                    "time": 104.8845599999998,
                    "velocity": 0.2755905511811024,
                    "duration": 0.5018400000000014
                },
                {
                    "name": "A5",
                    "midi": 81,
                    "time": 104.8845599999998,
                    "velocity": 0.2755905511811024,
                    "duration": 0.5018400000000014
                },
                {
                    "name": "G5",
                    "midi": 79,
                    "time": 105.3863999999998,
                    "velocity": 0.2755905511811024,
                    "duration": 0.5018400000000014
                },
                {
                    "name": "B5",
                    "midi": 83,
                    "time": 105.3863999999998,
                    "velocity": 0.2755905511811024,
                    "duration": 0.5018400000000014
                },
                {
                    "name": "A5",
                    "midi": 81,
                    "time": 105.8882399999998,
                    "velocity": 0.3228346456692913,
                    "duration": 0.5018400000000014
                },
                {
                    "name": "F5",
                    "midi": 77,
                    "time": 105.8882399999998,
                    "velocity": 0.3228346456692913,
                    "duration": 0.5018400000000014
                },
                {
                    "name": "G#5",
                    "midi": 80,
                    "time": 106.3900799999998,
                    "velocity": 0.36220472440944884,
                    "duration": 0.752759999999995
                },
                {
                    "name": "E5",
                    "midi": 76,
                    "time": 106.3900799999998,
                    "velocity": 0.1968503937007874,
                    "duration": 1.4846099999999893
                },
                {
                    "name": "A5",
                    "midi": 81,
                    "time": 107.1428399999998,
                    "velocity": 0.30708661417322836,
                    "duration": 0.2509199999999936
                },
                {
                    "name": "F#5",
                    "midi": 78,
                    "time": 107.1428399999998,
                    "velocity": 0.30708661417322836,
                    "duration": 0.2509199999999936
                },
                {
                    "name": "G#5",
                    "midi": 80,
                    "time": 107.39375999999979,
                    "velocity": 0.36220472440944884,
                    "duration": 0.5018400000000014
                },
                {
                    "name": "B5",
                    "midi": 83,
                    "time": 107.39375999999979,
                    "velocity": 0.36220472440944884,
                    "duration": 0.5018400000000014
                },
                {
                    "name": "E5",
                    "midi": 76,
                    "time": 107.89559999999979,
                    "velocity": 0.31496062992125984,
                    "duration": 2.4882900000000063
                },
                {
                    "name": "C6",
                    "midi": 84,
                    "time": 108.39743999999979,
                    "velocity": 0.31496062992125984,
                    "duration": 1.0036800000000028
                },
                {
                    "name": "E6",
                    "midi": 88,
                    "time": 108.39743999999979,
                    "velocity": 0.31496062992125984,
                    "duration": 1.0036800000000028
                },
                {
                    "name": "B5",
                    "midi": 83,
                    "time": 109.40111999999979,
                    "velocity": 0.2755905511811024,
                    "duration": 0.5018400000000014
                },
                {
                    "name": "D6",
                    "midi": 86,
                    "time": 109.40111999999979,
                    "velocity": 0.2755905511811024,
                    "duration": 0.5018400000000014
                },
                {
                    "name": "E6",
                    "midi": 88,
                    "time": 109.9029599999998,
                    "velocity": 0.33858267716535434,
                    "duration": 0.5018400000000014
                },
                {
                    "name": "C6",
                    "midi": 84,
                    "time": 109.9029599999998,
                    "velocity": 0.33858267716535434,
                    "duration": 0.5018400000000014
                },
                {
                    "name": "E5",
                    "midi": 76,
                    "time": 110.4047999999998,
                    "velocity": 0.1968503937007874,
                    "duration": 1.9864499999999907
                },
                {
                    "name": "G6",
                    "midi": 91,
                    "time": 110.4047999999998,
                    "velocity": 0.4330708661417323,
                    "duration": 0.752759999999995
                },
                {
                    "name": "E6",
                    "midi": 88,
                    "time": 110.4047999999998,
                    "velocity": 0.4330708661417323,
                    "duration": 0.752759999999995
                },
                {
                    "name": "D6",
                    "midi": 86,
                    "time": 111.15755999999979,
                    "velocity": 0.33070866141732286,
                    "duration": 0.2509199999999936
                },
                {
                    "name": "F6",
                    "midi": 89,
                    "time": 111.15755999999979,
                    "velocity": 0.33070866141732286,
                    "duration": 0.2509199999999936
                },
                {
                    "name": "B5",
                    "midi": 83,
                    "time": 111.40847999999978,
                    "velocity": 0.3937007874015748,
                    "duration": 0.5018400000000014
                },
                {
                    "name": "D6",
                    "midi": 86,
                    "time": 111.40847999999978,
                    "velocity": 0.3937007874015748,
                    "duration": 0.5018400000000014
                },
                {
                    "name": "F6",
                    "midi": 89,
                    "time": 111.91031999999979,
                    "velocity": 0.3464566929133858,
                    "duration": 0.5018400000000014
                },
                {
                    "name": "D6",
                    "midi": 86,
                    "time": 111.91031999999979,
                    "velocity": 0.3464566929133858,
                    "duration": 0.5018400000000014
                },
                {
                    "name": "C6",
                    "midi": 84,
                    "time": 112.41215999999979,
                    "velocity": 0.3464566929133858,
                    "duration": 0.5018400000000014
                },
                {
                    "name": "E6",
                    "midi": 88,
                    "time": 112.41215999999979,
                    "velocity": 0.3464566929133858,
                    "duration": 0.5018400000000014
                },
                {
                    "name": "E5",
                    "midi": 76,
                    "time": 112.41215999999979,
                    "velocity": 0.29133858267716534,
                    "duration": 1.986450000000005
                },
                {
                    "name": "A5",
                    "midi": 81,
                    "time": 112.91399999999979,
                    "velocity": 0.29133858267716534,
                    "duration": 0.5018400000000014
                },
                {
                    "name": "C6",
                    "midi": 84,
                    "time": 112.91399999999979,
                    "velocity": 0.29133858267716534,
                    "duration": 0.5018400000000014
                },
                {
                    "name": "D6",
                    "midi": 86,
                    "time": 113.41583999999979,
                    "velocity": 0.28346456692913385,
                    "duration": 0.5018400000000014
                },
                {
                    "name": "B5",
                    "midi": 83,
                    "time": 113.41583999999979,
                    "velocity": 0.28346456692913385,
                    "duration": 0.5018400000000014
                },
                {
                    "name": "G#5",
                    "midi": 80,
                    "time": 113.91767999999979,
                    "velocity": 0.33070866141732286,
                    "duration": 0.5018400000000014
                },
                {
                    "name": "B5",
                    "midi": 83,
                    "time": 113.91767999999979,
                    "velocity": 0.33070866141732286,
                    "duration": 0.5018400000000014
                },
                {
                    "name": "E5",
                    "midi": 76,
                    "time": 114.41951999999979,
                    "velocity": 0.1968503937007874,
                    "duration": 2.0073600000000056
                },
                {
                    "name": "C6",
                    "midi": 84,
                    "time": 114.41951999999979,
                    "velocity": 0.36220472440944884,
                    "duration": 0.5018400000000014
                },
                {
                    "name": "A5",
                    "midi": 81,
                    "time": 114.41951999999979,
                    "velocity": 0.31496062992125984,
                    "duration": 0.5018400000000014
                },
                {
                    "name": "A5",
                    "midi": 81,
                    "time": 114.9213599999998,
                    "velocity": 0.30708661417322836,
                    "duration": 0.5018400000000014
                },
                {
                    "name": "F#5",
                    "midi": 78,
                    "time": 114.9213599999998,
                    "velocity": 0.30708661417322836,
                    "duration": 0.5018400000000014
                },
                {
                    "name": "B5",
                    "midi": 83,
                    "time": 115.4231999999998,
                    "velocity": 0.36220472440944884,
                    "duration": 0.5018400000000014
                },
                {
                    "name": "G#5",
                    "midi": 80,
                    "time": 115.4231999999998,
                    "velocity": 0.36220472440944884,
                    "duration": 0.5018400000000014
                },
                {
                    "name": "E5",
                    "midi": 76,
                    "time": 115.9250399999998,
                    "velocity": 0.31496062992125984,
                    "duration": 0.5018400000000014
                },
                {
                    "name": "E4",
                    "midi": 64,
                    "time": 116.67779999999979,
                    "velocity": 0.1889763779527559,
                    "duration": 0.2509199999999936
                },
                {
                    "name": "A4",
                    "midi": 69,
                    "time": 116.92871999999979,
                    "velocity": 0.2677165354330709,
                    "duration": 0.2509199999999936
                },
                {
                    "name": "E5",
                    "midi": 76,
                    "time": 117.17963999999978,
                    "velocity": 0.1889763779527559,
                    "duration": 0.2509199999999936
                },
                {
                    "name": "E4",
                    "midi": 64,
                    "time": 117.68147999999977,
                    "velocity": 0.2125984251968504,
                    "duration": 0.2509199999999936
                },
                {
                    "name": "B4",
                    "midi": 71,
                    "time": 117.93239999999976,
                    "velocity": 0.25984251968503935,
                    "duration": 0.2509199999999936
                },
                {
                    "name": "E5",
                    "midi": 76,
                    "time": 118.18331999999975,
                    "velocity": 0.1889763779527559,
                    "duration": 0.2509199999999936
                },
                {
                    "name": "A4",
                    "midi": 69,
                    "time": 118.68515999999974,
                    "velocity": 0.2125984251968504,
                    "duration": 0.2509199999999936
                },
                {
                    "name": "C5",
                    "midi": 72,
                    "time": 118.93607999999973,
                    "velocity": 0.2677165354330709,
                    "duration": 0.2509199999999936
                },
                {
                    "name": "F5",
                    "midi": 77,
                    "time": 119.18699999999973,
                    "velocity": 0.1889763779527559,
                    "duration": 0.2509199999999936
                },
                {
                    "name": "F4",
                    "midi": 65,
                    "time": 119.68883999999971,
                    "velocity": 0.2283464566929134,
                    "duration": 0.2509199999999936
                },
                {
                    "name": "B4",
                    "midi": 71,
                    "time": 119.93975999999971,
                    "velocity": 0.25984251968503935,
                    "duration": 0.2509199999999936
                },
                {
                    "name": "F5",
                    "midi": 77,
                    "time": 120.17604299999971,
                    "velocity": 0.1889763779527559,
                    "duration": 0.2509199999999936
                },
                {
                    "name": "A4",
                    "midi": 69,
                    "time": 120.6925199999997,
                    "velocity": 0.25196850393700787,
                    "duration": 0.2509199999999936
                },
                {
                    "name": "F5",
                    "midi": 77,
                    "time": 120.9434399999997,
                    "velocity": 0.2992125984251969,
                    "duration": 0.2509199999999936
                },
                {
                    "name": "B5",
                    "midi": 83,
                    "time": 121.19435999999969,
                    "velocity": 0.25196850393700787,
                    "duration": 0.2509199999999936
                },
                {
                    "name": "G#4",
                    "midi": 68,
                    "time": 121.69619999999968,
                    "velocity": 0.25196850393700787,
                    "duration": 0.2509199999999936
                },
                {
                    "name": "E5",
                    "midi": 76,
                    "time": 121.94711999999967,
                    "velocity": 0.3228346456692913,
                    "duration": 0.2509199999999936
                },
                {
                    "name": "B5",
                    "midi": 83,
                    "time": 122.19803999999966,
                    "velocity": 0.2677165354330709,
                    "duration": 0.2509199999999936
                },
                {
                    "name": "D5",
                    "midi": 74,
                    "time": 122.69987999999965,
                    "velocity": 0.2755905511811024,
                    "duration": 0.2509199999999936
                },
                {
                    "name": "B5",
                    "midi": 83,
                    "time": 122.95079999999965,
                    "velocity": 0.3464566929133858,
                    "duration": 0.2509199999999936
                },
                {
                    "name": "E6",
                    "midi": 88,
                    "time": 123.20171999999964,
                    "velocity": 0.2992125984251969,
                    "duration": 0.2509199999999936
                },
                {
                    "name": "C5",
                    "midi": 72,
                    "time": 123.70355999999963,
                    "velocity": 0.2992125984251969,
                    "duration": 0.2509199999999936
                },
                {
                    "name": "A5",
                    "midi": 81,
                    "time": 123.95447999999962,
                    "velocity": 0.3779527559055118,
                    "duration": 0.2509199999999936
                },
                {
                    "name": "E6",
                    "midi": 88,
                    "time": 124.20539999999961,
                    "velocity": 0.28346456692913385,
                    "duration": 0.2509199999999936
                },
                {
                    "name": "A4",
                    "midi": 69,
                    "time": 124.95815999999961,
                    "velocity": 0.30708661417322836,
                    "duration": 0.6273000000000053
                },
                {
                    "name": "B4",
                    "midi": 71,
                    "time": 124.95815999999961,
                    "velocity": 0.3700787401574803,
                    "duration": 0.6273000000000053
                },
                {
                    "name": "F4",
                    "midi": 65,
                    "time": 124.95815999999961,
                    "velocity": 0.30708661417322836,
                    "duration": 0.6273000000000053
                },
                {
                    "name": "C5",
                    "midi": 72,
                    "time": 125.58545999999961,
                    "velocity": 0.3543307086614173,
                    "duration": 0.1254600000000039
                },
                {
                    "name": "B4",
                    "midi": 71,
                    "time": 125.71091999999962,
                    "velocity": 0.3543307086614173,
                    "duration": 0.1254600000000039
                },
                {
                    "name": "A4",
                    "midi": 69,
                    "time": 125.83637999999962,
                    "velocity": 0.3543307086614173,
                    "duration": 0.1254600000000039
                },
                {
                    "name": "B4",
                    "midi": 71,
                    "time": 125.96183999999963,
                    "velocity": 0.36220472440944884,
                    "duration": 0.1254600000000039
                },
                {
                    "name": "C5",
                    "midi": 72,
                    "time": 126.08729999999963,
                    "velocity": 0.3858267716535433,
                    "duration": 0.1254600000000039
                },
                {
                    "name": "D5",
                    "midi": 74,
                    "time": 126.21275999999963,
                    "velocity": 0.4094488188976378,
                    "duration": 0.1254600000000039
                },
                {
                    "name": "E5",
                    "midi": 76,
                    "time": 126.33821999999964,
                    "velocity": 0.4330708661417323,
                    "duration": 0.1254600000000039
                },
                {
                    "name": "G5",
                    "midi": 79,
                    "time": 126.46367999999964,
                    "velocity": 0.5354330708661418,
                    "duration": 0.5018400000000014
                },
                {
                    "name": "F5",
                    "midi": 77,
                    "time": 126.96551999999964,
                    "velocity": 0.5039370078740157,
                    "duration": 0.2509199999999936
                },
                {
                    "name": "G#4",
                    "midi": 68,
                    "time": 128.97287999999963,
                    "velocity": 0.30708661417322836,
                    "duration": 0.6272999999999911
                },
                {
                    "name": "F4",
                    "midi": 65,
                    "time": 128.97287999999963,
                    "velocity": 0.30708661417322836,
                    "duration": 0.6272999999999911
                },
                {
                    "name": "B4",
                    "midi": 71,
                    "time": 128.97287999999963,
                    "velocity": 0.3700787401574803,
                    "duration": 0.6272999999999911
                },
                {
                    "name": "C5",
                    "midi": 72,
                    "time": 129.60017999999963,
                    "velocity": 0.3543307086614173,
                    "duration": 0.1254600000000039
                },
                {
                    "name": "B4",
                    "midi": 71,
                    "time": 129.72563999999963,
                    "velocity": 0.3543307086614173,
                    "duration": 0.1254600000000039
                },
                {
                    "name": "A#4",
                    "midi": 70,
                    "time": 129.85109999999963,
                    "velocity": 0.3543307086614173,
                    "duration": 0.1254600000000039
                },
                {
                    "name": "B4",
                    "midi": 71,
                    "time": 129.97655999999964,
                    "velocity": 0.36220472440944884,
                    "duration": 0.1254600000000039
                },
                {
                    "name": "C5",
                    "midi": 72,
                    "time": 130.10201999999964,
                    "velocity": 0.3858267716535433,
                    "duration": 0.1254600000000039
                },
                {
                    "name": "D5",
                    "midi": 74,
                    "time": 130.22747999999964,
                    "velocity": 0.4094488188976378,
                    "duration": 0.1254600000000039
                },
                {
                    "name": "E5",
                    "midi": 76,
                    "time": 130.35293999999965,
                    "velocity": 0.4330708661417323,
                    "duration": 0.1254600000000039
                },
                {
                    "name": "G5",
                    "midi": 79,
                    "time": 130.47839999999965,
                    "velocity": 0.5354330708661418,
                    "duration": 0.5018399999999872
                },
                {
                    "name": "F5",
                    "midi": 77,
                    "time": 130.98023999999964,
                    "velocity": 0.5039370078740157,
                    "duration": 0.2509200000000078
                },
                {
                    "name": "C6",
                    "midi": 84,
                    "time": 131.48207999999966,
                    "velocity": 0.5826771653543307,
                    "duration": 0.5018399999999872
                },
                {
                    "name": "D5",
                    "midi": 74,
                    "time": 131.48207999999966,
                    "velocity": 0.4881889763779528,
                    "duration": 0.752759999999995
                },
                {
                    "name": "A#5",
                    "midi": 82,
                    "time": 131.98391999999964,
                    "velocity": 0.5433070866141733,
                    "duration": 0.2509200000000078
                },
                {
                    "name": "D4",
                    "midi": 62,
                    "time": 134.49311999999966,
                    "velocity": 0.3228346456692913,
                    "duration": 0.13800599999999008
                },
                {
                    "name": "C5",
                    "midi": 72,
                    "time": 134.49311999999966,
                    "velocity": 0.3228346456692913,
                    "duration": 0.5018399999999303
                },
                {
                    "name": "D#4",
                    "midi": 63,
                    "time": 134.61857999999967,
                    "velocity": 0.3228346456692913,
                    "duration": 0.13800599999996166
                },
                {
                    "name": "D4",
                    "midi": 62,
                    "time": 134.74403999999964,
                    "velocity": 0.3228346456692913,
                    "duration": 0.13800599999996166
                },
                {
                    "name": "C#4",
                    "midi": 61,
                    "time": 134.86949999999962,
                    "velocity": 0.3228346456692913,
                    "duration": 0.13800599999996166
                },
                {
                    "name": "A#4",
                    "midi": 70,
                    "time": 134.9949599999996,
                    "velocity": 0.48031496062992124,
                    "duration": 0.25091999999995096
                },
                {
                    "name": "D4",
                    "midi": 62,
                    "time": 134.9949599999996,
                    "velocity": 0.3543307086614173,
                    "duration": 0.13800599999996166
                },
                {
                    "name": "F4",
                    "midi": 65,
                    "time": 135.12041999999957,
                    "velocity": 0.3700787401574803,
                    "duration": 0.13800599999996166
                },
                {
                    "name": "G#4",
                    "midi": 68,
                    "time": 135.24587999999954,
                    "velocity": 0.3858267716535433,
                    "duration": 0.13800599999996166
                },
                {
                    "name": "A#4",
                    "midi": 70,
                    "time": 135.37133999999952,
                    "velocity": 0.4094488188976378,
                    "duration": 0.13800599999996166
                },
                {
                    "name": "D#5",
                    "midi": 75,
                    "time": 135.4967999999995,
                    "velocity": 0.5275590551181102,
                    "duration": 0.752759999999995
                },
                {
                    "name": "C6",
                    "midi": 84,
                    "time": 135.4967999999995,
                    "velocity": 0.5275590551181102,
                    "duration": 0.5018399999999872
                },
                {
                    "name": "A#5",
                    "midi": 82,
                    "time": 135.99863999999948,
                    "velocity": 0.48031496062992124,
                    "duration": 0.2509200000000078
                },
                {
                    "name": "D5",
                    "midi": 74,
                    "time": 136.5004799999995,
                    "velocity": 0.4015748031496063,
                    "duration": 0.13800599999999008
                },
                {
                    "name": "C6",
                    "midi": 84,
                    "time": 136.5004799999995,
                    "velocity": 0.5905511811023622,
                    "duration": 0.5018399999999303
                },
                {
                    "name": "D#5",
                    "midi": 75,
                    "time": 136.6259399999995,
                    "velocity": 0.3700787401574803,
                    "duration": 0.13800599999996166
                },
                {
                    "name": "D5",
                    "midi": 74,
                    "time": 136.75139999999948,
                    "velocity": 0.3700787401574803,
                    "duration": 0.13800599999996166
                },
                {
                    "name": "C#5",
                    "midi": 73,
                    "time": 136.87685999999945,
                    "velocity": 0.3700787401574803,
                    "duration": 0.13800599999996166
                },
                {
                    "name": "D5",
                    "midi": 74,
                    "time": 137.00231999999943,
                    "velocity": 0.4015748031496063,
                    "duration": 0.13800599999996166
                },
                {
                    "name": "A#5",
                    "midi": 82,
                    "time": 137.00231999999943,
                    "velocity": 0.5511811023622047,
                    "duration": 0.25091999999995096
                },
                {
                    "name": "F5",
                    "midi": 77,
                    "time": 137.1277799999994,
                    "velocity": 0.41732283464566927,
                    "duration": 0.13800599999996166
                },
                {
                    "name": "G#5",
                    "midi": 80,
                    "time": 137.25323999999938,
                    "velocity": 0.4409448818897638,
                    "duration": 0.13800599999996166
                },
                {
                    "name": "A#5",
                    "midi": 82,
                    "time": 137.37869999999936,
                    "velocity": 0.47244094488188976,
                    "duration": 0.13800599999996166
                },
                {
                    "name": "C7",
                    "midi": 96,
                    "time": 137.50415999999933,
                    "velocity": 0.6062992125984252,
                    "duration": 0.5018399999999872
                },
                {
                    "name": "D6",
                    "midi": 86,
                    "time": 137.50415999999933,
                    "velocity": 0.6062992125984252,
                    "duration": 0.752759999999995
                },
                {
                    "name": "A#6",
                    "midi": 94,
                    "time": 138.00599999999932,
                    "velocity": 0.6771653543307087,
                    "duration": 0.752759999999995
                },
                {
                    "name": "A6",
                    "midi": 93,
                    "time": 138.7587599999993,
                    "velocity": 0.5905511811023622,
                    "duration": 0.2509200000000078
                },
                {
                    "name": "G#6",
                    "midi": 92,
                    "time": 139.00967999999932,
                    "velocity": 0.6062992125984252,
                    "duration": 0.2509200000000078
                },
                {
                    "name": "G6",
                    "midi": 91,
                    "time": 139.26059999999933,
                    "velocity": 0.5748031496062992,
                    "duration": 0.2509200000000078
                },
                {
                    "name": "F#6",
                    "midi": 90,
                    "time": 139.51151999999934,
                    "velocity": 0.5433070866141733,
                    "duration": 0.2509200000000078
                },
                {
                    "name": "F6",
                    "midi": 89,
                    "time": 139.76243999999934,
                    "velocity": 0.49606299212598426,
                    "duration": 0.2509200000000078
                },
                {
                    "name": "E6",
                    "midi": 88,
                    "time": 140.01335999999935,
                    "velocity": 0.5511811023622047,
                    "duration": 0.2509200000000078
                },
                {
                    "name": "D#6",
                    "midi": 87,
                    "time": 140.26427999999936,
                    "velocity": 0.5433070866141733,
                    "duration": 0.2509200000000078
                },
                {
                    "name": "D6",
                    "midi": 86,
                    "time": 140.51519999999937,
                    "velocity": 0.5511811023622047,
                    "duration": 0.2509200000000078
                },
                {
                    "name": "C#6",
                    "midi": 85,
                    "time": 140.76611999999938,
                    "velocity": 0.47244094488188976,
                    "duration": 0.2509200000000078
                },
                {
                    "name": "C6",
                    "midi": 84,
                    "time": 141.01703999999938,
                    "velocity": 0.5039370078740157,
                    "duration": 0.2509200000000078
                },
                {
                    "name": "B5",
                    "midi": 83,
                    "time": 141.2679599999994,
                    "velocity": 0.5275590551181102,
                    "duration": 0.2509200000000078
                },
                {
                    "name": "A#5",
                    "midi": 82,
                    "time": 141.5188799999994,
                    "velocity": 0.5590551181102362,
                    "duration": 0.2509200000000078
                },
                {
                    "name": "A5",
                    "midi": 81,
                    "time": 141.7697999999994,
                    "velocity": 0.47244094488188976,
                    "duration": 0.2509200000000078
                },
                {
                    "name": "G#5",
                    "midi": 80,
                    "time": 142.02071999999941,
                    "velocity": 0.5275590551181102,
                    "duration": 0.2509200000000078
                },
                {
                    "name": "G5",
                    "midi": 79,
                    "time": 142.27163999999942,
                    "velocity": 0.4251968503937008,
                    "duration": 0.2509200000000078
                },
                {
                    "name": "F#5",
                    "midi": 78,
                    "time": 142.52255999999943,
                    "velocity": 0.47244094488188976,
                    "duration": 0.2509200000000078
                },
                {
                    "name": "F5",
                    "midi": 77,
                    "time": 142.77347999999944,
                    "velocity": 0.4251968503937008,
                    "duration": 0.2509200000000078
                },
                {
                    "name": "E5",
                    "midi": 76,
                    "time": 143.02439999999945,
                    "velocity": 0.4645669291338583,
                    "duration": 0.2509200000000078
                },
                {
                    "name": "D#5",
                    "midi": 75,
                    "time": 143.27531999999945,
                    "velocity": 0.3937007874015748,
                    "duration": 0.2509200000000078
                },
                {
                    "name": "D5",
                    "midi": 74,
                    "time": 143.52623999999946,
                    "velocity": 0.4645669291338583,
                    "duration": 0.2509200000000078
                },
                {
                    "name": "C#5",
                    "midi": 73,
                    "time": 143.77715999999947,
                    "velocity": 0.36220472440944884,
                    "duration": 0.2509200000000078
                },
                {
                    "name": "C5",
                    "midi": 72,
                    "time": 144.02807999999948,
                    "velocity": 0.41732283464566927,
                    "duration": 0.2509200000000078
                },
                {
                    "name": "B4",
                    "midi": 71,
                    "time": 144.27899999999948,
                    "velocity": 0.36220472440944884,
                    "duration": 0.2509200000000078
                },
                {
                    "name": "C5",
                    "midi": 72,
                    "time": 145.03175999999948,
                    "velocity": 0.4251968503937008,
                    "duration": 0.5018399999999872
                },
                {
                    "name": "D#5",
                    "midi": 75,
                    "time": 145.53359999999947,
                    "velocity": 0.4566929133858268,
                    "duration": 0.5018399999999872
                },
                {
                    "name": "A5",
                    "midi": 81,
                    "time": 146.03543999999945,
                    "velocity": 0.4251968503937008,
                    "duration": 0.5018399999999872
                },
                {
                    "name": "F5",
                    "midi": 77,
                    "time": 147.03911999999943,
                    "velocity": 0.4251968503937008,
                    "duration": 0.5018399999999872
                },
                {
                    "name": "E5",
                    "midi": 76,
                    "time": 147.54095999999942,
                    "velocity": 0.33858267716535434,
                    "duration": 0.5018399999999872
                },
                {
                    "name": "G#4",
                    "midi": 68,
                    "time": 148.0427999999994,
                    "velocity": 0.2677165354330709,
                    "duration": 0.5018399999999872
                },
                {
                    "name": "F5",
                    "midi": 77,
                    "time": 148.5446399999994,
                    "velocity": 0.25196850393700787,
                    "duration": 0.2509200000000078
                },
                {
                    "name": "A5",
                    "midi": 81,
                    "time": 148.5446399999994,
                    "velocity": 0.31496062992125984,
                    "duration": 1.0036800000000312
                },
                {
                    "name": "A4",
                    "midi": 69,
                    "time": 148.7955599999994,
                    "velocity": 0.18110236220472442,
                    "duration": 0.2509200000000078
                },
                {
                    "name": "F5",
                    "midi": 77,
                    "time": 149.0464799999994,
                    "velocity": 0.18110236220472442,
                    "duration": 0.2509200000000078
                },
                {
                    "name": "A4",
                    "midi": 69,
                    "time": 149.2973999999994,
                    "velocity": 0.18110236220472442,
                    "duration": 0.2509200000000078
                },
                {
                    "name": "E5",
                    "midi": 76,
                    "time": 149.54831999999942,
                    "velocity": 0.2755905511811024,
                    "duration": 0.5018399999999872
                },
                {
                    "name": "G5",
                    "midi": 79,
                    "time": 149.54831999999942,
                    "velocity": 0.2755905511811024,
                    "duration": 0.5018399999999872
                },
                {
                    "name": "A5",
                    "midi": 81,
                    "time": 150.0501599999994,
                    "velocity": 0.3228346456692913,
                    "duration": 0.5018399999999872
                },
                {
                    "name": "F5",
                    "midi": 77,
                    "time": 150.0501599999994,
                    "velocity": 0.3228346456692913,
                    "duration": 0.5018399999999872
                },
                {
                    "name": "A#5",
                    "midi": 82,
                    "time": 150.5519999999994,
                    "velocity": 0.36220472440944884,
                    "duration": 0.752759999999995
                },
                {
                    "name": "G5",
                    "midi": 79,
                    "time": 150.5519999999994,
                    "velocity": 0.36220472440944884,
                    "duration": 0.7318500000000085
                },
                {
                    "name": "E5",
                    "midi": 76,
                    "time": 151.3047599999994,
                    "velocity": 0.30708661417322836,
                    "duration": 0.23000999999999294
                },
                {
                    "name": "G5",
                    "midi": 79,
                    "time": 151.3047599999994,
                    "velocity": 0.30708661417322836,
                    "duration": 0.2509199999999794
                },
                {
                    "name": "C#5",
                    "midi": 73,
                    "time": 151.55567999999937,
                    "velocity": 0.36220472440944884,
                    "duration": 0.5018399999999872
                },
                {
                    "name": "E5",
                    "midi": 76,
                    "time": 151.55567999999937,
                    "velocity": 0.36220472440944884,
                    "duration": 0.5018399999999872
                },
                {
                    "name": "D5",
                    "midi": 74,
                    "time": 152.05751999999936,
                    "velocity": 0.31496062992125984,
                    "duration": 0.5018399999999872
                },
                {
                    "name": "F5",
                    "midi": 77,
                    "time": 152.05751999999936,
                    "velocity": 0.31496062992125984,
                    "duration": 0.5018399999999872
                },
                {
                    "name": "E5",
                    "midi": 76,
                    "time": 152.55935999999934,
                    "velocity": 0.31496062992125984,
                    "duration": 0.5018399999999872
                },
                {
                    "name": "G5",
                    "midi": 79,
                    "time": 152.55935999999934,
                    "velocity": 0.31496062992125984,
                    "duration": 0.5018399999999872
                },
                {
                    "name": "F5",
                    "midi": 77,
                    "time": 153.06119999999933,
                    "velocity": 0.2755905511811024,
                    "duration": 0.5018399999999872
                },
                {
                    "name": "D5",
                    "midi": 74,
                    "time": 153.06119999999933,
                    "velocity": 0.2755905511811024,
                    "duration": 0.5018399999999872
                },
                {
                    "name": "E5",
                    "midi": 76,
                    "time": 153.56303999999932,
                    "velocity": 0.2755905511811024,
                    "duration": 0.5018399999999872
                },
                {
                    "name": "C5",
                    "midi": 72,
                    "time": 153.56303999999932,
                    "velocity": 0.2755905511811024,
                    "duration": 0.5018399999999872
                },
                {
                    "name": "D5",
                    "midi": 74,
                    "time": 154.0648799999993,
                    "velocity": 0.3228346456692913,
                    "duration": 0.5018399999999872
                },
                {
                    "name": "A#4",
                    "midi": 70,
                    "time": 154.0648799999993,
                    "velocity": 0.3228346456692913,
                    "duration": 0.5018399999999872
                },
                {
                    "name": "C#5",
                    "midi": 73,
                    "time": 154.5667199999993,
                    "velocity": 0.36220472440944884,
                    "duration": 0.752759999999995
                },
                {
                    "name": "A4",
                    "midi": 69,
                    "time": 154.5667199999993,
                    "velocity": 0.1968503937007874,
                    "duration": 0.752759999999995
                },
                {
                    "name": "B4",
                    "midi": 71,
                    "time": 155.3194799999993,
                    "velocity": 0.30708661417322836,
                    "duration": 0.2509200000000078
                },
                {
                    "name": "D5",
                    "midi": 74,
                    "time": 155.3194799999993,
                    "velocity": 0.30708661417322836,
                    "duration": 0.2509200000000078
                },
                {
                    "name": "C#5",
                    "midi": 73,
                    "time": 155.5703999999993,
                    "velocity": 0.36220472440944884,
                    "duration": 0.5018399999999872
                },
                {
                    "name": "E5",
                    "midi": 76,
                    "time": 155.5703999999993,
                    "velocity": 0.36220472440944884,
                    "duration": 0.5018399999999872
                },
                {
                    "name": "C#6",
                    "midi": 85,
                    "time": 156.57407999999927,
                    "velocity": 0.36220472440944884,
                    "duration": 0.752759999999995
                },
                {
                    "name": "A5",
                    "midi": 81,
                    "time": 156.57407999999927,
                    "velocity": 0.1968503937007874,
                    "duration": 0.752759999999995
                },
                {
                    "name": "B5",
                    "midi": 83,
                    "time": 157.32683999999927,
                    "velocity": 0.30708661417322836,
                    "duration": 0.2509200000000078
                },
                {
                    "name": "D6",
                    "midi": 86,
                    "time": 157.32683999999927,
                    "velocity": 0.30708661417322836,
                    "duration": 0.2509200000000078
                },
                {
                    "name": "C#6",
                    "midi": 85,
                    "time": 157.57775999999927,
                    "velocity": 0.36220472440944884,
                    "duration": 0.5018399999999872
                },
                {
                    "name": "E6",
                    "midi": 88,
                    "time": 157.57775999999927,
                    "velocity": 0.36220472440944884,
                    "duration": 0.5018399999999872
                },
                {
                    "name": "A4",
                    "midi": 69,
                    "time": 158.58143999999925,
                    "velocity": 0.18110236220472442,
                    "duration": 0.752759999999995
                },
                {
                    "name": "C5",
                    "midi": 72,
                    "time": 158.58143999999925,
                    "velocity": 0.3937007874015748,
                    "duration": 0.752759999999995
                },
                {
                    "name": "D5",
                    "midi": 74,
                    "time": 159.33419999999924,
                    "velocity": 0.33070866141732286,
                    "duration": 0.2509200000000078
                },
                {
                    "name": "B4",
                    "midi": 71,
                    "time": 159.33419999999924,
                    "velocity": 0.28346456692913385,
                    "duration": 0.2509200000000078
                },
                {
                    "name": "E5",
                    "midi": 76,
                    "time": 159.58511999999925,
                    "velocity": 0.3937007874015748,
                    "duration": 1.7564399999999978
                },
                {
                    "name": "C5",
                    "midi": 72,
                    "time": 159.58511999999925,
                    "velocity": 0.33070866141732286,
                    "duration": 1.7564399999999978
                },
                {
                    "name": "D5",
                    "midi": 74,
                    "time": 161.34155999999925,
                    "velocity": 0.31496062992125984,
                    "duration": 0.2509200000000078
                },
                {
                    "name": "F5",
                    "midi": 77,
                    "time": 161.34155999999925,
                    "velocity": 0.3779527559055118,
                    "duration": 0.2509200000000078
                },
                {
                    "name": "G5",
                    "midi": 79,
                    "time": 161.59247999999926,
                    "velocity": 0.44881889763779526,
                    "duration": 1.7564399999999978
                },
                {
                    "name": "E5",
                    "midi": 76,
                    "time": 161.59247999999926,
                    "velocity": 0.36220472440944884,
                    "duration": 1.0036800000000028
                },
                {
                    "name": "D#5",
                    "midi": 75,
                    "time": 162.59615999999926,
                    "velocity": 0.4015748031496063,
                    "duration": 1.0036800000000028
                },
                {
                    "name": "C5",
                    "midi": 72,
                    "time": 162.59615999999926,
                    "velocity": 0.2125984251968504,
                    "duration": 1.0036800000000028
                },
                {
                    "name": "A5",
                    "midi": 81,
                    "time": 163.34891999999925,
                    "velocity": 0.4881889763779528,
                    "duration": 0.2509200000000078
                },
                {
                    "name": "G5",
                    "midi": 79,
                    "time": 163.59983999999926,
                    "velocity": 0.3937007874015748,
                    "duration": 0.9827699999999879
                },
                {
                    "name": "D5",
                    "midi": 74,
                    "time": 163.59983999999926,
                    "velocity": 0.3937007874015748,
                    "duration": 1.0036799999999744
                },
                {
                    "name": "B5",
                    "midi": 83,
                    "time": 163.59983999999926,
                    "velocity": 0.47244094488188976,
                    "duration": 1.7564399999999694
                },
                {
                    "name": "C5",
                    "midi": 72,
                    "time": 164.60351999999924,
                    "velocity": 0.2047244094488189,
                    "duration": 1.0036800000000028
                },
                {
                    "name": "G5",
                    "midi": 79,
                    "time": 164.60351999999924,
                    "velocity": 0.4566929133858268,
                    "duration": 1.0036800000000028
                },
                {
                    "name": "C6",
                    "midi": 84,
                    "time": 165.35627999999923,
                    "velocity": 0.4881889763779528,
                    "duration": 0.2509200000000078
                },
                {
                    "name": "D5",
                    "midi": 74,
                    "time": 165.60719999999924,
                    "velocity": 0.4409448818897638,
                    "duration": 1.0036800000000028
                },
                {
                    "name": "B5",
                    "midi": 83,
                    "time": 165.60719999999924,
                    "velocity": 0.4409448818897638,
                    "duration": 1.0036800000000028
                },
                {
                    "name": "D6",
                    "midi": 86,
                    "time": 165.60719999999924,
                    "velocity": 0.5275590551181102,
                    "duration": 1.7564399999999978
                },
                {
                    "name": "F5",
                    "midi": 77,
                    "time": 165.60719999999924,
                    "velocity": 0.4409448818897638,
                    "duration": 1.0036800000000028
                },
                {
                    "name": "G5",
                    "midi": 79,
                    "time": 166.61087999999924,
                    "velocity": 0.5511811023622047,
                    "duration": 1.0036800000000028
                },
                {
                    "name": "E5",
                    "midi": 76,
                    "time": 166.61087999999924,
                    "velocity": 0.2440944881889764,
                    "duration": 1.0036800000000028
                },
                {
                    "name": "E6",
                    "midi": 88,
                    "time": 167.36363999999924,
                    "velocity": 0.5826771653543307,
                    "duration": 0.2509200000000078
                },
                {
                    "name": "F6",
                    "midi": 89,
                    "time": 167.61455999999924,
                    "velocity": 0.5748031496062992,
                    "duration": 1.2546000000000106
                },
                {
                    "name": "D6",
                    "midi": 86,
                    "time": 167.61455999999924,
                    "velocity": 0.5748031496062992,
                    "duration": 1.2546000000000106
                },
                {
                    "name": "F5",
                    "midi": 77,
                    "time": 167.61455999999924,
                    "velocity": 0.48031496062992124,
                    "duration": 1.2546000000000106
                },
                {
                    "name": "C#6",
                    "midi": 85,
                    "time": 168.86915999999925,
                    "velocity": 0.5275590551181102,
                    "duration": 0.2509200000000078
                },
                {
                    "name": "E6",
                    "midi": 88,
                    "time": 168.86915999999925,
                    "velocity": 0.5275590551181102,
                    "duration": 0.2509200000000078
                },
                {
                    "name": "E5",
                    "midi": 76,
                    "time": 168.86915999999925,
                    "velocity": 0.4409448818897638,
                    "duration": 0.2509200000000078
                },
                {
                    "name": "F5",
                    "midi": 77,
                    "time": 169.12007999999926,
                    "velocity": 0.48031496062992124,
                    "duration": 0.2509200000000078
                },
                {
                    "name": "F6",
                    "midi": 89,
                    "time": 169.12007999999926,
                    "velocity": 0.5669291338582677,
                    "duration": 0.2509200000000078
                },
                {
                    "name": "D6",
                    "midi": 86,
                    "time": 169.12007999999926,
                    "velocity": 0.5669291338582677,
                    "duration": 0.2509200000000078
                },
                {
                    "name": "C#6",
                    "midi": 85,
                    "time": 169.37099999999927,
                    "velocity": 0.5275590551181102,
                    "duration": 0.2509200000000078
                },
                {
                    "name": "E5",
                    "midi": 76,
                    "time": 169.37099999999927,
                    "velocity": 0.4409448818897638,
                    "duration": 0.2509200000000078
                },
                {
                    "name": "E6",
                    "midi": 88,
                    "time": 169.37099999999927,
                    "velocity": 0.5275590551181102,
                    "duration": 0.2509200000000078
                },
                {
                    "name": "D6",
                    "midi": 86,
                    "time": 169.62191999999928,
                    "velocity": 0.5984251968503937,
                    "duration": 0.2509200000000078
                },
                {
                    "name": "F5",
                    "midi": 77,
                    "time": 169.62191999999928,
                    "velocity": 0.5039370078740157,
                    "duration": 0.2509200000000078
                },
                {
                    "name": "F6",
                    "midi": 89,
                    "time": 169.62191999999928,
                    "velocity": 0.5984251968503937,
                    "duration": 0.2509200000000078
                },
                {
                    "name": "C#6",
                    "midi": 85,
                    "time": 169.8728399999993,
                    "velocity": 0.5748031496062992,
                    "duration": 0.2509200000000078
                },
                {
                    "name": "E6",
                    "midi": 88,
                    "time": 169.8728399999993,
                    "velocity": 0.5748031496062992,
                    "duration": 0.2509200000000078
                },
                {
                    "name": "E5",
                    "midi": 76,
                    "time": 169.8728399999993,
                    "velocity": 0.4881889763779528,
                    "duration": 0.2509200000000078
                },
                {
                    "name": "D6",
                    "midi": 86,
                    "time": 170.1237599999993,
                    "velocity": 0.5984251968503937,
                    "duration": 0.2509200000000078
                },
                {
                    "name": "F6",
                    "midi": 89,
                    "time": 170.1237599999993,
                    "velocity": 0.5984251968503937,
                    "duration": 0.2509200000000078
                },
                {
                    "name": "F5",
                    "midi": 77,
                    "time": 170.1237599999993,
                    "velocity": 0.5039370078740157,
                    "duration": 0.2509200000000078
                },
                {
                    "name": "C#6",
                    "midi": 85,
                    "time": 170.3746799999993,
                    "velocity": 0.6377952755905512,
                    "duration": 0.1254600000000039
                },
                {
                    "name": "E6",
                    "midi": 88,
                    "time": 170.3746799999993,
                    "velocity": 0.6377952755905512,
                    "duration": 0.1254600000000039
                },
                {
                    "name": "E5",
                    "midi": 76,
                    "time": 170.3746799999993,
                    "velocity": 0.5354330708661418,
                    "duration": 0.1254600000000039
                },
                {
                    "name": "F6",
                    "midi": 89,
                    "time": 170.6255999999993,
                    "velocity": 0.5748031496062992,
                    "duration": 0.1254600000000039
                },
                {
                    "name": "F7",
                    "midi": 101,
                    "time": 170.6255999999993,
                    "velocity": 0.6771653543307087,
                    "duration": 0.1254600000000039
                },
                {
                    "name": "G6",
                    "midi": 91,
                    "time": 170.6255999999993,
                    "velocity": 0.5748031496062992,
                    "duration": 0.1254600000000039
                },
                {
                    "name": "D7",
                    "midi": 98,
                    "time": 170.7510599999993,
                    "velocity": 0.5905511811023622,
                    "duration": 0.1254600000000039
                },
                {
                    "name": "B6",
                    "midi": 95,
                    "time": 170.87651999999932,
                    "velocity": 0.5984251968503937,
                    "duration": 0.1254600000000039
                },
                {
                    "name": "G6",
                    "midi": 91,
                    "time": 171.00197999999932,
                    "velocity": 0.5748031496062992,
                    "duration": 0.1254600000000039
                },
                {
                    "name": "F6",
                    "midi": 89,
                    "time": 171.12743999999932,
                    "velocity": 0.6771653543307087,
                    "duration": 0.1254600000000039
                },
                {
                    "name": "D6",
                    "midi": 86,
                    "time": 171.25289999999933,
                    "velocity": 0.5669291338582677,
                    "duration": 0.1254600000000039
                },
                {
                    "name": "B5",
                    "midi": 83,
                    "time": 171.37835999999933,
                    "velocity": 0.5984251968503937,
                    "duration": 0.1254600000000039
                },
                {
                    "name": "G5",
                    "midi": 79,
                    "time": 171.50381999999934,
                    "velocity": 0.5433070866141733,
                    "duration": 0.1254600000000039
                },
                {
                    "name": "F6",
                    "midi": 89,
                    "time": 171.62927999999934,
                    "velocity": 0.6771653543307087,
                    "duration": 0.1254600000000039
                },
                {
                    "name": "D6",
                    "midi": 86,
                    "time": 171.75473999999934,
                    "velocity": 0.5905511811023622,
                    "duration": 0.1254600000000039
                },
                {
                    "name": "B5",
                    "midi": 83,
                    "time": 171.88019999999935,
                    "velocity": 0.5984251968503937,
                    "duration": 0.1254600000000039
                },
                {
                    "name": "G5",
                    "midi": 79,
                    "time": 172.00565999999935,
                    "velocity": 0.5748031496062992,
                    "duration": 0.1254600000000039
                },
                {
                    "name": "F5",
                    "midi": 77,
                    "time": 172.13111999999936,
                    "velocity": 0.6771653543307087,
                    "duration": 0.1254600000000039
                },
                {
                    "name": "D5",
                    "midi": 74,
                    "time": 172.25657999999936,
                    "velocity": 0.5669291338582677,
                    "duration": 0.1254600000000039
                },
                {
                    "name": "B4",
                    "midi": 71,
                    "time": 172.38203999999936,
                    "velocity": 0.5984251968503937,
                    "duration": 0.1254600000000039
                },
                {
                    "name": "G4",
                    "midi": 67,
                    "time": 172.50749999999937,
                    "velocity": 0.5433070866141733,
                    "duration": 0.1254600000000039
                },
                {
                    "name": "F6",
                    "midi": 89,
                    "time": 172.63295999999937,
                    "velocity": 0.6771653543307087,
                    "duration": 0.1254600000000039
                },
                {
                    "name": "D6",
                    "midi": 86,
                    "time": 172.75841999999938,
                    "velocity": 0.5905511811023622,
                    "duration": 0.1254600000000039
                },
                {
                    "name": "B5",
                    "midi": 83,
                    "time": 172.88387999999938,
                    "velocity": 0.5984251968503937,
                    "duration": 0.1254600000000039
                },
                {
                    "name": "G5",
                    "midi": 79,
                    "time": 173.00933999999938,
                    "velocity": 0.5748031496062992,
                    "duration": 0.1254600000000039
                },
                {
                    "name": "F5",
                    "midi": 77,
                    "time": 173.1347999999994,
                    "velocity": 0.6771653543307087,
                    "duration": 0.1254600000000039
                },
                {
                    "name": "D5",
                    "midi": 74,
                    "time": 173.2602599999994,
                    "velocity": 0.5669291338582677,
                    "duration": 0.1254600000000039
                },
                {
                    "name": "B4",
                    "midi": 71,
                    "time": 173.3857199999994,
                    "velocity": 0.5984251968503937,
                    "duration": 0.1254600000000039
                },
                {
                    "name": "G4",
                    "midi": 67,
                    "time": 173.5111799999994,
                    "velocity": 0.5433070866141733,
                    "duration": 0.1254600000000039
                },
                {
                    "name": "F4",
                    "midi": 65,
                    "time": 173.6366399999994,
                    "velocity": 0.6377952755905512,
                    "duration": 0.0836400000000026
                },
                {
                    "name": "D4",
                    "midi": 62,
                    "time": 173.7202799999994,
                    "velocity": 0.5511811023622047,
                    "duration": 0.0836400000000026
                },
                {
                    "name": "B3",
                    "midi": 59,
                    "time": 173.8039199999994,
                    "velocity": 0.5511811023622047,
                    "duration": 0.0836400000000026
                },
                {
                    "name": "G3",
                    "midi": 55,
                    "time": 173.8875599999994,
                    "velocity": 0.5905511811023622,
                    "duration": 0.0836400000000026
                },
                {
                    "name": "B3",
                    "midi": 59,
                    "time": 173.9711999999994,
                    "velocity": 0.5511811023622047,
                    "duration": 0.0836400000000026
                },
                {
                    "name": "D4",
                    "midi": 62,
                    "time": 174.05483999999942,
                    "velocity": 0.5511811023622047,
                    "duration": 0.0836400000000026
                },
                {
                    "name": "F4",
                    "midi": 65,
                    "time": 174.13847999999942,
                    "velocity": 0.6220472440944882,
                    "duration": 0.0836400000000026
                },
                {
                    "name": "G4",
                    "midi": 67,
                    "time": 174.22211999999942,
                    "velocity": 0.5511811023622047,
                    "duration": 0.0836400000000026
                },
                {
                    "name": "D5",
                    "midi": 74,
                    "time": 174.30575999999942,
                    "velocity": 0.5511811023622047,
                    "duration": 0.0836400000000026
                },
                {
                    "name": "F5",
                    "midi": 77,
                    "time": 174.38939999999943,
                    "velocity": 0.5511811023622047,
                    "duration": 0.0836400000000026
                },
                {
                    "name": "G5",
                    "midi": 79,
                    "time": 174.47303999999943,
                    "velocity": 0.5511811023622047,
                    "duration": 0.0836400000000026
                },
                {
                    "name": "B5",
                    "midi": 83,
                    "time": 174.55667999999943,
                    "velocity": 0.5511811023622047,
                    "duration": 0.0836400000000026
                },
                {
                    "name": "C6",
                    "midi": 84,
                    "time": 174.73441499999944,
                    "velocity": 0.6929133858267716,
                    "duration": 0.6586650000000134
                },
                {
                    "name": "C5",
                    "midi": 72,
                    "time": 174.73441499999944,
                    "velocity": 0.5748031496062992,
                    "duration": 0.6586650000000134
                },
                {
                    "name": "G5",
                    "midi": 79,
                    "time": 174.73441499999944,
                    "velocity": 0.5748031496062992,
                    "duration": 0.6586650000000134
                },
                {
                    "name": "E5",
                    "midi": 76,
                    "time": 174.73441499999944,
                    "velocity": 0.5748031496062992,
                    "duration": 0.6586650000000134
                },
                {
                    "name": "E4",
                    "midi": 64,
                    "time": 175.39307999999946,
                    "velocity": 0.5511811023622047,
                    "duration": 0.22582800000000702
                },
                {
                    "name": "C4",
                    "midi": 60,
                    "time": 175.39307999999946,
                    "velocity": 0.4645669291338583,
                    "duration": 0.22582800000000702
                },
                {
                    "name": "E3",
                    "midi": 52,
                    "time": 175.39307999999946,
                    "velocity": 0.4645669291338583,
                    "duration": 0.22582800000000702
                },
                {
                    "name": "E3",
                    "midi": 52,
                    "time": 175.64399999999947,
                    "velocity": 0.4881889763779528,
                    "duration": 0.5018399999999872
                },
                {
                    "name": "C4",
                    "midi": 60,
                    "time": 175.64399999999947,
                    "velocity": 0.4881889763779528,
                    "duration": 0.5018399999999872
                },
                {
                    "name": "E4",
                    "midi": 64,
                    "time": 175.64399999999947,
                    "velocity": 0.5826771653543307,
                    "duration": 0.5018399999999872
                },
                {
                    "name": "C4",
                    "midi": 60,
                    "time": 176.14583999999945,
                    "velocity": 0.47244094488188976,
                    "duration": 0.1254600000000039
                },
                {
                    "name": "F4",
                    "midi": 65,
                    "time": 176.14583999999945,
                    "velocity": 0.5590551181102362,
                    "duration": 0.1254600000000039
                },
                {
                    "name": "F3",
                    "midi": 53,
                    "time": 176.14583999999945,
                    "velocity": 0.47244094488188976,
                    "duration": 0.1254600000000039
                },
                {
                    "name": "G4",
                    "midi": 67,
                    "time": 176.39675999999946,
                    "velocity": 0.5905511811023622,
                    "duration": 0.1254600000000039
                },
                {
                    "name": "G3",
                    "midi": 55,
                    "time": 176.39675999999946,
                    "velocity": 0.49606299212598426,
                    "duration": 0.1254600000000039
                },
                {
                    "name": "C4",
                    "midi": 60,
                    "time": 176.39675999999946,
                    "velocity": 0.49606299212598426,
                    "duration": 0.1254600000000039
                },
                {
                    "name": "C4",
                    "midi": 60,
                    "time": 176.64767999999947,
                    "velocity": 0.5196850393700787,
                    "duration": 0.1254600000000039
                },
                {
                    "name": "A3",
                    "midi": 57,
                    "time": 176.64767999999947,
                    "velocity": 0.5196850393700787,
                    "duration": 0.1254600000000039
                },
                {
                    "name": "A4",
                    "midi": 69,
                    "time": 176.64767999999947,
                    "velocity": 0.6141732283464567,
                    "duration": 0.1254600000000039
                },
                {
                    "name": "G4",
                    "midi": 67,
                    "time": 177.14951999999948,
                    "velocity": 0.5826771653543307,
                    "duration": 0.1254600000000039
                },
                {
                    "name": "G3",
                    "midi": 55,
                    "time": 177.14951999999948,
                    "velocity": 0.4881889763779528,
                    "duration": 0.1254600000000039
                },
                {
                    "name": "C4",
                    "midi": 60,
                    "time": 177.14951999999948,
                    "velocity": 0.4881889763779528,
                    "duration": 0.1254600000000039
                },
                {
                    "name": "C4",
                    "midi": 60,
                    "time": 178.4041199999995,
                    "velocity": 0.4645669291338583,
                    "duration": 0.22582800000000702
                },
                {
                    "name": "E3",
                    "midi": 52,
                    "time": 178.4041199999995,
                    "velocity": 0.4645669291338583,
                    "duration": 0.22582800000000702
                },
                {
                    "name": "E4",
                    "midi": 64,
                    "time": 178.4041199999995,
                    "velocity": 0.5511811023622047,
                    "duration": 0.22582800000000702
                },
                {
                    "name": "E4",
                    "midi": 64,
                    "time": 178.6550399999995,
                    "velocity": 0.6062992125984252,
                    "duration": 0.5018399999999872
                },
                {
                    "name": "C4",
                    "midi": 60,
                    "time": 178.6550399999995,
                    "velocity": 0.5118110236220472,
                    "duration": 0.5018399999999872
                },
                {
                    "name": "E3",
                    "midi": 52,
                    "time": 178.6550399999995,
                    "velocity": 0.5118110236220472,
                    "duration": 0.5018399999999872
                },
                {
                    "name": "F4",
                    "midi": 65,
                    "time": 179.1568799999995,
                    "velocity": 0.6062992125984252,
                    "duration": 0.1254600000000039
                },
                {
                    "name": "C4",
                    "midi": 60,
                    "time": 179.1568799999995,
                    "velocity": 0.5118110236220472,
                    "duration": 0.1254600000000039
                },
                {
                    "name": "F3",
                    "midi": 53,
                    "time": 179.1568799999995,
                    "velocity": 0.5118110236220472,
                    "duration": 0.1254600000000039
                },
                {
                    "name": "G3",
                    "midi": 55,
                    "time": 179.4077999999995,
                    "velocity": 0.5354330708661418,
                    "duration": 0.1254600000000039
                },
                {
                    "name": "C4",
                    "midi": 60,
                    "time": 179.4077999999995,
                    "velocity": 0.5354330708661418,
                    "duration": 0.1254600000000039
                },
                {
                    "name": "G4",
                    "midi": 67,
                    "time": 179.4077999999995,
                    "velocity": 0.6299212598425197,
                    "duration": 0.1254600000000039
                },
                {
                    "name": "A4",
                    "midi": 69,
                    "time": 179.6587199999995,
                    "velocity": 0.6535433070866141,
                    "duration": 0.5018399999999872
                },
                {
                    "name": "A3",
                    "midi": 57,
                    "time": 179.6587199999995,
                    "velocity": 0.5511811023622047,
                    "duration": 0.5018399999999872
                },
                {
                    "name": "C4",
                    "midi": 60,
                    "time": 179.6587199999995,
                    "velocity": 0.5511811023622047,
                    "duration": 0.5018399999999872
                },
                {
                    "name": "G4",
                    "midi": 67,
                    "time": 180.1605599999995,
                    "velocity": 0.6377952755905512,
                    "duration": 0.1254600000000039
                },
                {
                    "name": "C4",
                    "midi": 60,
                    "time": 180.1605599999995,
                    "velocity": 0.5354330708661418,
                    "duration": 0.1254600000000039
                },
                {
                    "name": "G3",
                    "midi": 55,
                    "time": 180.1605599999995,
                    "velocity": 0.5354330708661418,
                    "duration": 0.1254600000000039
                },
                {
                    "name": "A4",
                    "midi": 69,
                    "time": 180.4114799999995,
                    "velocity": 0.6535433070866141,
                    "duration": 0.1254600000000039
                },
                {
                    "name": "C4",
                    "midi": 60,
                    "time": 180.4114799999995,
                    "velocity": 0.5511811023622047,
                    "duration": 0.1254600000000039
                },
                {
                    "name": "A3",
                    "midi": 57,
                    "time": 180.4114799999995,
                    "velocity": 0.5511811023622047,
                    "duration": 0.1254600000000039
                },
                {
                    "name": "C4",
                    "midi": 60,
                    "time": 180.6623999999995,
                    "velocity": 0.5669291338582677,
                    "duration": 0.1254600000000039
                },
                {
                    "name": "A#4",
                    "midi": 70,
                    "time": 180.6623999999995,
                    "velocity": 0.6692913385826772,
                    "duration": 0.1254600000000039
                },
                {
                    "name": "A#3",
                    "midi": 58,
                    "time": 180.6623999999995,
                    "velocity": 0.5669291338582677,
                    "duration": 0.1254600000000039
                },
                {
                    "name": "A3",
                    "midi": 57,
                    "time": 181.16423999999952,
                    "velocity": 0.5354330708661418,
                    "duration": 0.1254600000000039
                },
                {
                    "name": "A4",
                    "midi": 69,
                    "time": 181.16423999999952,
                    "velocity": 0.6377952755905512,
                    "duration": 0.1254600000000039
                },
                {
                    "name": "C4",
                    "midi": 60,
                    "time": 181.16423999999952,
                    "velocity": 0.5354330708661418,
                    "duration": 0.1254600000000039
                },
                {
                    "name": "G4",
                    "midi": 67,
                    "time": 182.16791999999953,
                    "velocity": 0.5590551181102362,
                    "duration": 0.1254600000000039
                },
                {
                    "name": "G3",
                    "midi": 55,
                    "time": 182.16791999999953,
                    "velocity": 0.47244094488188976,
                    "duration": 0.1254600000000039
                },
                {
                    "name": "C4",
                    "midi": 60,
                    "time": 182.16791999999953,
                    "velocity": 0.47244094488188976,
                    "duration": 0.1254600000000039
                },
                {
                    "name": "C4",
                    "midi": 60,
                    "time": 182.41883999999953,
                    "velocity": 0.49606299212598426,
                    "duration": 0.1254600000000039
                },
                {
                    "name": "A4",
                    "midi": 69,
                    "time": 182.41883999999953,
                    "velocity": 0.5905511811023622,
                    "duration": 0.1254600000000039
                },
                {
                    "name": "A3",
                    "midi": 57,
                    "time": 182.41883999999953,
                    "velocity": 0.49606299212598426,
                    "duration": 0.1254600000000039
                },
                {
                    "name": "F4",
                    "midi": 65,
                    "time": 182.66975999999954,
                    "velocity": 0.5196850393700787,
                    "duration": 0.1254600000000039
                },
                {
                    "name": "B4",
                    "midi": 71,
                    "time": 182.66975999999954,
                    "velocity": 0.6141732283464567,
                    "duration": 0.1254600000000039
                },
                {
                    "name": "B3",
                    "midi": 59,
                    "time": 182.66975999999954,
                    "velocity": 0.5196850393700787,
                    "duration": 0.1254600000000039
                },
                {
                    "name": "E4",
                    "midi": 64,
                    "time": 183.17159999999956,
                    "velocity": 0.5354330708661418,
                    "duration": 0.1254600000000039
                },
                {
                    "name": "C5",
                    "midi": 72,
                    "time": 183.17159999999956,
                    "velocity": 0.6299212598425197,
                    "duration": 0.1254600000000039
                },
                {
                    "name": "C4",
                    "midi": 60,
                    "time": 183.17159999999956,
                    "velocity": 0.5354330708661418,
                    "duration": 0.1254600000000039
                },
                {
                    "name": "G4",
                    "midi": 67,
                    "time": 183.67343999999957,
                    "velocity": 0.5433070866141733,
                    "duration": 0.1254600000000039
                },
                {
                    "name": "D5",
                    "midi": 74,
                    "time": 183.67343999999957,
                    "velocity": 0.6456692913385826,
                    "duration": 0.1254600000000039
                },
                {
                    "name": "D4",
                    "midi": 62,
                    "time": 183.67343999999957,
                    "velocity": 0.5433070866141733,
                    "duration": 0.1254600000000039
                },
                {
                    "name": "E4",
                    "midi": 64,
                    "time": 184.1752799999996,
                    "velocity": 0.5590551181102362,
                    "duration": 0.1254600000000039
                },
                {
                    "name": "E5",
                    "midi": 76,
                    "time": 184.1752799999996,
                    "velocity": 0.6614173228346457,
                    "duration": 0.1254600000000039
                },
                {
                    "name": "G4",
                    "midi": 67,
                    "time": 184.1752799999996,
                    "velocity": 0.5590551181102362,
                    "duration": 0.1254600000000039
                },
                {
                    "name": "F#5",
                    "midi": 78,
                    "time": 184.6771199999996,
                    "velocity": 0.6141732283464567,
                    "duration": 0.0836400000000026
                },
                {
                    "name": "C5",
                    "midi": 72,
                    "time": 184.6771199999996,
                    "velocity": 0.5669291338582677,
                    "duration": 1.0036799999999744
                },
                {
                    "name": "D5",
                    "midi": 74,
                    "time": 184.6771199999996,
                    "velocity": 0.5669291338582677,
                    "duration": 1.0036799999999744
                },
                {
                    "name": "G5",
                    "midi": 79,
                    "time": 184.7607599999996,
                    "velocity": 0.5748031496062992,
                    "duration": 0.0836400000000026
                },
                {
                    "name": "F#5",
                    "midi": 78,
                    "time": 184.8443999999996,
                    "velocity": 0.6299212598425197,
                    "duration": 0.0836400000000026
                },
                {
                    "name": "G5",
                    "midi": 79,
                    "time": 184.9280399999996,
                    "velocity": 0.5905511811023622,
                    "duration": 0.0836400000000026
                },
                {
                    "name": "F#5",
                    "midi": 78,
                    "time": 185.01167999999961,
                    "velocity": 0.6456692913385826,
                    "duration": 0.0836400000000026
                },
                {
                    "name": "G5",
                    "midi": 79,
                    "time": 185.09531999999962,
                    "velocity": 0.6141732283464567,
                    "duration": 0.0836400000000026
                },
                {
                    "name": "F#5",
                    "midi": 78,
                    "time": 185.17895999999962,
                    "velocity": 0.6614173228346457,
                    "duration": 0.0836400000000026
                },
                {
                    "name": "G5",
                    "midi": 79,
                    "time": 185.26259999999962,
                    "velocity": 0.6377952755905512,
                    "duration": 0.0836400000000026
                },
                {
                    "name": "F#5",
                    "midi": 78,
                    "time": 185.34623999999963,
                    "velocity": 0.6771653543307087,
                    "duration": 0.0836400000000026
                },
                {
                    "name": "G5",
                    "midi": 79,
                    "time": 185.42987999999963,
                    "velocity": 0.6614173228346457,
                    "duration": 0.06272999999998774
                },
                {
                    "name": "F#5",
                    "midi": 78,
                    "time": 185.49260999999962,
                    "velocity": 0.7007874015748031,
                    "duration": 0.06272999999998774
                },
                {
                    "name": "E5",
                    "midi": 76,
                    "time": 185.5553399999996,
                    "velocity": 0.6614173228346457,
                    "duration": 0.06272999999998774
                },
                {
                    "name": "F#5",
                    "midi": 78,
                    "time": 185.6180699999996,
                    "velocity": 0.6692913385826772,
                    "duration": 0.06272999999998774
                },
                {
                    "name": "B4",
                    "midi": 71,
                    "time": 185.68079999999958,
                    "velocity": 0.6220472440944882,
                    "duration": 0.5018399999999872
                },
                {
                    "name": "G5",
                    "midi": 79,
                    "time": 185.68079999999958,
                    "velocity": 0.7322834645669292,
                    "duration": 0.5018399999999872
                },
                {
                    "name": "D5",
                    "midi": 74,
                    "time": 186.18263999999957,
                    "velocity": 0.6535433070866141,
                    "duration": 0.1254600000000039
                },
                {
                    "name": "F#5",
                    "midi": 78,
                    "time": 186.43355999999957,
                    "velocity": 0.5905511811023622,
                    "duration": 0.1254600000000039
                },
                {
                    "name": "G5",
                    "midi": 79,
                    "time": 186.68447999999958,
                    "velocity": 0.6535433070866141,
                    "duration": 0.1254600000000039
                },
                {
                    "name": "D4",
                    "midi": 62,
                    "time": 187.1863199999996,
                    "velocity": 0.5196850393700787,
                    "duration": 0.1254600000000039
                },
                {
                    "name": "F#4",
                    "midi": 66,
                    "time": 187.4372399999996,
                    "velocity": 0.47244094488188976,
                    "duration": 0.1254600000000039
                },
                {
                    "name": "G4",
                    "midi": 67,
                    "time": 187.6881599999996,
                    "velocity": 0.5196850393700787,
                    "duration": 0.1254600000000039
                },
                {
                    "name": "D3",
                    "midi": 50,
                    "time": 188.18999999999963,
                    "velocity": 0.5433070866141733,
                    "duration": 0.1254600000000039
                },
                {
                    "name": "F#3",
                    "midi": 54,
                    "time": 188.44091999999964,
                    "velocity": 0.48031496062992124,
                    "duration": 0.1254600000000039
                },
                {
                    "name": "G3",
                    "midi": 55,
                    "time": 188.69183999999964,
                    "velocity": 0.5039370078740157,
                    "duration": 0.1672800000000052
                },
                {
                    "name": "B3",
                    "midi": 59,
                    "time": 188.85911999999965,
                    "velocity": 0.44881889763779526,
                    "duration": 0.1672800000000052
                },
                {
                    "name": "C4",
                    "midi": 60,
                    "time": 189.02639999999965,
                    "velocity": 0.44881889763779526,
                    "duration": 0.1672800000000052
                },
                {
                    "name": "D4",
                    "midi": 62,
                    "time": 189.19367999999966,
                    "velocity": 0.5196850393700787,
                    "duration": 0.1672800000000052
                },
                {
                    "name": "E4",
                    "midi": 64,
                    "time": 189.36095999999966,
                    "velocity": 0.4645669291338583,
                    "duration": 0.1672800000000052
                },
                {
                    "name": "F#4",
                    "midi": 66,
                    "time": 189.52823999999967,
                    "velocity": 0.4645669291338583,
                    "duration": 0.1672800000000052
                },
                {
                    "name": "G4",
                    "midi": 67,
                    "time": 189.69551999999968,
                    "velocity": 0.5275590551181102,
                    "duration": 0.1254600000000039
                },
                {
                    "name": "A#4",
                    "midi": 70,
                    "time": 189.82097999999968,
                    "velocity": 0.5433070866141733,
                    "duration": 0.1254600000000039
                },
                {
                    "name": "C5",
                    "midi": 72,
                    "time": 189.94643999999968,
                    "velocity": 0.5590551181102362,
                    "duration": 0.1254600000000039
                },
                {
                    "name": "D5",
                    "midi": 74,
                    "time": 190.0718999999997,
                    "velocity": 0.5748031496062992,
                    "duration": 0.1254600000000039
                },
                {
                    "name": "E5",
                    "midi": 76,
                    "time": 190.1973599999997,
                    "velocity": 0.5905511811023622,
                    "duration": 0.1254600000000039
                },
                {
                    "name": "F#5",
                    "midi": 78,
                    "time": 190.3228199999997,
                    "velocity": 0.6062992125984252,
                    "duration": 0.1254600000000039
                },
                {
                    "name": "G5",
                    "midi": 79,
                    "time": 190.4482799999997,
                    "velocity": 0.6220472440944882,
                    "duration": 0.1254600000000039
                },
                {
                    "name": "A5",
                    "midi": 81,
                    "time": 190.5737399999997,
                    "velocity": 0.6614173228346457,
                    "duration": 0.1254600000000039
                },
                {
                    "name": "D5",
                    "midi": 74,
                    "time": 190.79329499999972,
                    "velocity": 0.5275590551181102,
                    "duration": 0.6586650000000134
                },
                {
                    "name": "F5",
                    "midi": 77,
                    "time": 190.79329499999972,
                    "velocity": 0.5275590551181102,
                    "duration": 0.6586650000000134
                },
                {
                    "name": "A#5",
                    "midi": 82,
                    "time": 190.79329499999972,
                    "velocity": 0.6299212598425197,
                    "duration": 0.6586650000000134
                },
                {
                    "name": "A#4",
                    "midi": 70,
                    "time": 190.79329499999972,
                    "velocity": 0.5275590551181102,
                    "duration": 0.6586650000000134
                },
                {
                    "name": "D5",
                    "midi": 74,
                    "time": 191.45195999999973,
                    "velocity": 0.6299212598425197,
                    "duration": 0.22582800000000702
                },
                {
                    "name": "A#4",
                    "midi": 70,
                    "time": 191.45195999999973,
                    "velocity": 0.5275590551181102,
                    "duration": 0.22582800000000702
                },
                {
                    "name": "D4",
                    "midi": 62,
                    "time": 191.45195999999973,
                    "velocity": 0.5275590551181102,
                    "duration": 0.22582800000000702
                },
                {
                    "name": "D4",
                    "midi": 62,
                    "time": 191.70287999999974,
                    "velocity": 0.5590551181102362,
                    "duration": 0.5018399999999872
                },
                {
                    "name": "A#4",
                    "midi": 70,
                    "time": 191.70287999999974,
                    "velocity": 0.5590551181102362,
                    "duration": 0.5018399999999872
                },
                {
                    "name": "D5",
                    "midi": 74,
                    "time": 191.70287999999974,
                    "velocity": 0.6692913385826772,
                    "duration": 0.5018399999999872
                },
                {
                    "name": "A#4",
                    "midi": 70,
                    "time": 192.20471999999972,
                    "velocity": 0.5433070866141733,
                    "duration": 0.1254600000000039
                },
                {
                    "name": "D#5",
                    "midi": 75,
                    "time": 192.20471999999972,
                    "velocity": 0.6377952755905512,
                    "duration": 0.1254600000000039
                },
                {
                    "name": "D#4",
                    "midi": 63,
                    "time": 192.20471999999972,
                    "velocity": 0.5433070866141733,
                    "duration": 0.1254600000000039
                },
                {
                    "name": "F4",
                    "midi": 65,
                    "time": 192.45563999999973,
                    "velocity": 0.5669291338582677,
                    "duration": 0.1254600000000039
                },
                {
                    "name": "A#4",
                    "midi": 70,
                    "time": 192.45563999999973,
                    "velocity": 0.5669291338582677,
                    "duration": 0.1254600000000039
                },
                {
                    "name": "F5",
                    "midi": 77,
                    "time": 192.45563999999973,
                    "velocity": 0.6771653543307087,
                    "duration": 0.1254600000000039
                },
                {
                    "name": "G4",
                    "midi": 67,
                    "time": 192.70655999999974,
                    "velocity": 0.5905511811023622,
                    "duration": 0.1254600000000039
                },
                {
                    "name": "A#4",
                    "midi": 70,
                    "time": 192.70655999999974,
                    "velocity": 0.5905511811023622,
                    "duration": 0.1254600000000039
                },
                {
                    "name": "G5",
                    "midi": 79,
                    "time": 192.70655999999974,
                    "velocity": 0.7007874015748031,
                    "duration": 0.1254600000000039
                },
                {
                    "name": "F5",
                    "midi": 77,
                    "time": 193.20839999999976,
                    "velocity": 0.6692913385826772,
                    "duration": 0.1254600000000039
                },
                {
                    "name": "F4",
                    "midi": 65,
                    "time": 193.20839999999976,
                    "velocity": 0.5590551181102362,
                    "duration": 0.1254600000000039
                },
                {
                    "name": "A#4",
                    "midi": 70,
                    "time": 193.20839999999976,
                    "velocity": 0.5590551181102362,
                    "duration": 0.1254600000000039
                },
                {
                    "name": "D5",
                    "midi": 74,
                    "time": 194.46299999999977,
                    "velocity": 0.6299212598425197,
                    "duration": 0.22582800000000702
                },
                {
                    "name": "A#4",
                    "midi": 70,
                    "time": 194.46299999999977,
                    "velocity": 0.5275590551181102,
                    "duration": 0.22582800000000702
                },
                {
                    "name": "D4",
                    "midi": 62,
                    "time": 194.46299999999977,
                    "velocity": 0.5275590551181102,
                    "duration": 0.22582800000000702
                },
                {
                    "name": "A#4",
                    "midi": 70,
                    "time": 194.71391999999977,
                    "velocity": 0.5826771653543307,
                    "duration": 0.5018399999999872
                },
                {
                    "name": "D5",
                    "midi": 74,
                    "time": 194.71391999999977,
                    "velocity": 0.6929133858267716,
                    "duration": 0.5018399999999872
                },
                {
                    "name": "D4",
                    "midi": 62,
                    "time": 194.71391999999977,
                    "velocity": 0.5826771653543307,
                    "duration": 0.5018399999999872
                },
                {
                    "name": "D#5",
                    "midi": 75,
                    "time": 195.21575999999976,
                    "velocity": 0.6929133858267716,
                    "duration": 0.1254600000000039
                },
                {
                    "name": "A#4",
                    "midi": 70,
                    "time": 195.21575999999976,
                    "velocity": 0.5826771653543307,
                    "duration": 0.1254600000000039
                },
                {
                    "name": "D#4",
                    "midi": 63,
                    "time": 195.21575999999976,
                    "velocity": 0.5826771653543307,
                    "duration": 0.1254600000000039
                },
                {
                    "name": "A#4",
                    "midi": 70,
                    "time": 195.46667999999977,
                    "velocity": 0.6141732283464567,
                    "duration": 0.1254600000000039
                },
                {
                    "name": "F5",
                    "midi": 77,
                    "time": 195.46667999999977,
                    "velocity": 0.7244094488188977,
                    "duration": 0.1254600000000039
                },
                {
                    "name": "F4",
                    "midi": 65,
                    "time": 195.46667999999977,
                    "velocity": 0.6141732283464567,
                    "duration": 0.1254600000000039
                },
                {
                    "name": "G5",
                    "midi": 79,
                    "time": 195.71759999999978,
                    "velocity": 0.7480314960629921,
                    "duration": 0.5018399999999872
                },
                {
                    "name": "G4",
                    "midi": 67,
                    "time": 195.71759999999978,
                    "velocity": 0.6299212598425197,
                    "duration": 0.5018399999999872
                },
                {
                    "name": "A#4",
                    "midi": 70,
                    "time": 195.71759999999978,
                    "velocity": 0.6299212598425197,
                    "duration": 0.5018399999999872
                },
                {
                    "name": "A#4",
                    "midi": 70,
                    "time": 196.21943999999976,
                    "velocity": 0.6141732283464567,
                    "duration": 0.1254600000000039
                },
                {
                    "name": "F4",
                    "midi": 65,
                    "time": 196.21943999999976,
                    "velocity": 0.6141732283464567,
                    "duration": 0.1254600000000039
                },
                {
                    "name": "F5",
                    "midi": 77,
                    "time": 196.21943999999976,
                    "velocity": 0.7322834645669292,
                    "duration": 0.1254600000000039
                },
                {
                    "name": "G4",
                    "midi": 67,
                    "time": 196.47035999999977,
                    "velocity": 0.6299212598425197,
                    "duration": 0.1254600000000039
                },
                {
                    "name": "A#4",
                    "midi": 70,
                    "time": 196.47035999999977,
                    "velocity": 0.6299212598425197,
                    "duration": 0.1254600000000039
                },
                {
                    "name": "G5",
                    "midi": 79,
                    "time": 196.47035999999977,
                    "velocity": 0.7480314960629921,
                    "duration": 0.1254600000000039
                },
                {
                    "name": "A#4",
                    "midi": 70,
                    "time": 196.72127999999978,
                    "velocity": 0.6456692913385826,
                    "duration": 0.1254600000000039
                },
                {
                    "name": "G#4",
                    "midi": 68,
                    "time": 196.72127999999978,
                    "velocity": 0.6456692913385826,
                    "duration": 0.1254600000000039
                },
                {
                    "name": "G#5",
                    "midi": 80,
                    "time": 196.72127999999978,
                    "velocity": 0.7637795275590551,
                    "duration": 0.1254600000000039
                },
                {
                    "name": "G5",
                    "midi": 79,
                    "time": 197.2231199999998,
                    "velocity": 0.7322834645669292,
                    "duration": 0.1254600000000039
                },
                {
                    "name": "A#4",
                    "midi": 70,
                    "time": 197.2231199999998,
                    "velocity": 0.6141732283464567,
                    "duration": 0.1254600000000039
                },
                {
                    "name": "G4",
                    "midi": 67,
                    "time": 197.2231199999998,
                    "velocity": 0.6141732283464567,
                    "duration": 0.1254600000000039
                },
                {
                    "name": "F5",
                    "midi": 77,
                    "time": 198.2267999999998,
                    "velocity": 0.6377952755905512,
                    "duration": 0.1254600000000039
                },
                {
                    "name": "A#4",
                    "midi": 70,
                    "time": 198.2267999999998,
                    "velocity": 0.5433070866141733,
                    "duration": 0.1254600000000039
                },
                {
                    "name": "F4",
                    "midi": 65,
                    "time": 198.2267999999998,
                    "velocity": 0.5433070866141733,
                    "duration": 0.1254600000000039
                },
                {
                    "name": "G4",
                    "midi": 67,
                    "time": 198.4777199999998,
                    "velocity": 0.5669291338582677,
                    "duration": 0.1254600000000039
                },
                {
                    "name": "G5",
                    "midi": 79,
                    "time": 198.4777199999998,
                    "velocity": 0.6771653543307087,
                    "duration": 0.1254600000000039
                },
                {
                    "name": "A#4",
                    "midi": 70,
                    "time": 198.4777199999998,
                    "velocity": 0.5669291338582677,
                    "duration": 0.1254600000000039
                },
                {
                    "name": "B5",
                    "midi": 83,
                    "time": 198.7286399999998,
                    "velocity": 0.7007874015748031,
                    "duration": 0.1254600000000039
                },
                {
                    "name": "G5",
                    "midi": 79,
                    "time": 198.7286399999998,
                    "velocity": 0.5905511811023622,
                    "duration": 0.1254600000000039
                },
                {
                    "name": "B4",
                    "midi": 71,
                    "time": 198.7286399999998,
                    "velocity": 0.5905511811023622,
                    "duration": 0.1254600000000039
                },
                {
                    "name": "G5",
                    "midi": 79,
                    "time": 199.23047999999983,
                    "velocity": 0.6141732283464567,
                    "duration": 0.1254600000000039
                },
                {
                    "name": "C5",
                    "midi": 72,
                    "time": 199.23047999999983,
                    "velocity": 0.6141732283464567,
                    "duration": 0.1254600000000039
                },
                {
                    "name": "C6",
                    "midi": 84,
                    "time": 199.23047999999983,
                    "velocity": 0.7244094488188977,
                    "duration": 0.1254600000000039
                },
                {
                    "name": "D5",
                    "midi": 74,
                    "time": 199.73231999999985,
                    "velocity": 0.6220472440944882,
                    "duration": 0.1254600000000039
                },
                {
                    "name": "G5",
                    "midi": 79,
                    "time": 199.73231999999985,
                    "velocity": 0.6220472440944882,
                    "duration": 0.1254600000000039
                },
                {
                    "name": "D6",
                    "midi": 86,
                    "time": 199.73231999999985,
                    "velocity": 0.7401574803149606,
                    "duration": 0.1254600000000039
                },
                {
                    "name": "D#6",
                    "midi": 87,
                    "time": 200.23415999999986,
                    "velocity": 0.7559055118110236,
                    "duration": 0.1254600000000039
                },
                {
                    "name": "D#5",
                    "midi": 75,
                    "time": 200.23415999999986,
                    "velocity": 0.6377952755905512,
                    "duration": 0.1254600000000039
                },
                {
                    "name": "G5",
                    "midi": 79,
                    "time": 200.23415999999986,
                    "velocity": 0.6377952755905512,
                    "duration": 0.1254600000000039
                },
                {
                    "name": "F5",
                    "midi": 77,
                    "time": 200.73599999999988,
                    "velocity": 0.6377952755905512,
                    "duration": 0.1254600000000039
                },
                {
                    "name": "C6",
                    "midi": 84,
                    "time": 200.73599999999988,
                    "velocity": 0.6377952755905512,
                    "duration": 0.1254600000000039
                },
                {
                    "name": "F6",
                    "midi": 89,
                    "time": 200.73599999999988,
                    "velocity": 0.7559055118110236,
                    "duration": 0.1254600000000039
                },
                {
                    "name": "F#5",
                    "midi": 78,
                    "time": 201.2378399999999,
                    "velocity": 0.7007874015748031,
                    "duration": 1.0036800000000028
                },
                {
                    "name": "D6",
                    "midi": 86,
                    "time": 201.2378399999999,
                    "velocity": 0.7007874015748031,
                    "duration": 0.9827699999999879
                },
                {
                    "name": "C6",
                    "midi": 84,
                    "time": 201.2378399999999,
                    "velocity": 0.7007874015748031,
                    "duration": 0.9921794999999918
                },
                {
                    "name": "F#6",
                    "midi": 90,
                    "time": 201.2378399999999,
                    "velocity": 0.8267716535433071,
                    "duration": 1.0036800000000028
                },
                {
                    "name": "D6",
                    "midi": 86,
                    "time": 202.2415199999999,
                    "velocity": 0.7007874015748031,
                    "duration": 0.9827699999999879
                },
                {
                    "name": "G5",
                    "midi": 79,
                    "time": 202.2415199999999,
                    "velocity": 0.7007874015748031,
                    "duration": 1.0036799999999744
                },
                {
                    "name": "G6",
                    "midi": 91,
                    "time": 202.2415199999999,
                    "velocity": 0.8267716535433071,
                    "duration": 1.0036799999999744
                },
                {
                    "name": "C6",
                    "midi": 84,
                    "time": 202.2415199999999,
                    "velocity": 0.7007874015748031,
                    "duration": 0.9827699999999879
                },
                {
                    "name": "A6",
                    "midi": 93,
                    "time": 203.24519999999987,
                    "velocity": 0.8267716535433071,
                    "duration": 0.9827699999999879
                },
                {
                    "name": "A5",
                    "midi": 81,
                    "time": 203.24519999999987,
                    "velocity": 0.7007874015748031,
                    "duration": 0.9827699999999879
                },
                {
                    "name": "D6",
                    "midi": 86,
                    "time": 203.24519999999987,
                    "velocity": 0.7007874015748031,
                    "duration": 0.9827699999999879
                },
                {
                    "name": "C6",
                    "midi": 84,
                    "time": 203.24519999999987,
                    "velocity": 0.7007874015748031,
                    "duration": 0.9827699999999879
                },
                {
                    "name": "D6",
                    "midi": 86,
                    "time": 204.24887999999984,
                    "velocity": 0.7007874015748031,
                    "duration": 0.752759999999995
                },
                {
                    "name": "C6",
                    "midi": 84,
                    "time": 204.24887999999984,
                    "velocity": 0.7007874015748031,
                    "duration": 0.752759999999995
                },
                {
                    "name": "A5",
                    "midi": 81,
                    "time": 204.24887999999984,
                    "velocity": 0.7007874015748031,
                    "duration": 0.752759999999995
                },
                {
                    "name": "A6",
                    "midi": 93,
                    "time": 204.24887999999984,
                    "velocity": 0.8267716535433071,
                    "duration": 0.752759999999995
                },
                {
                    "name": "B5",
                    "midi": 83,
                    "time": 205.00163999999984,
                    "velocity": 0.5511811023622047,
                    "duration": 0.1254600000000039
                },
                {
                    "name": "G5",
                    "midi": 79,
                    "time": 205.00163999999984,
                    "velocity": 0.5511811023622047,
                    "duration": 0.1254600000000039
                },
                {
                    "name": "G6",
                    "midi": 91,
                    "time": 205.00163999999984,
                    "velocity": 0.6535433070866141,
                    "duration": 0.1254600000000039
                },
                {
                    "name": "F6",
                    "midi": 89,
                    "time": 205.25255999999985,
                    "velocity": 0.6929133858267716,
                    "duration": 0.1254600000000039
                },
                {
                    "name": "F5",
                    "midi": 77,
                    "time": 205.25255999999985,
                    "velocity": 0.5826771653543307,
                    "duration": 0.1254600000000039
                },
                {
                    "name": "D5",
                    "midi": 74,
                    "time": 205.50347999999985,
                    "velocity": 0.49606299212598426,
                    "duration": 0.1254600000000039
                },
                {
                    "name": "D6",
                    "midi": 86,
                    "time": 205.50347999999985,
                    "velocity": 0.5905511811023622,
                    "duration": 0.1254600000000039
                },
                {
                    "name": "B5",
                    "midi": 83,
                    "time": 205.75439999999986,
                    "velocity": 0.6850393700787402,
                    "duration": 0.1254600000000039
                },
                {
                    "name": "B4",
                    "midi": 71,
                    "time": 205.75439999999986,
                    "velocity": 0.5748031496062992,
                    "duration": 0.1254600000000039
                },
                {
                    "name": "G4",
                    "midi": 67,
                    "time": 206.00531999999987,
                    "velocity": 0.4645669291338583,
                    "duration": 0.1254600000000039
                },
                {
                    "name": "G5",
                    "midi": 79,
                    "time": 206.00531999999987,
                    "velocity": 0.5511811023622047,
                    "duration": 0.1254600000000039
                },
                {
                    "name": "F4",
                    "midi": 65,
                    "time": 206.25623999999988,
                    "velocity": 0.5511811023622047,
                    "duration": 0.1254600000000039
                },
                {
                    "name": "F5",
                    "midi": 77,
                    "time": 206.25623999999988,
                    "velocity": 0.6535433070866141,
                    "duration": 0.1254600000000039
                },
                {
                    "name": "D5",
                    "midi": 74,
                    "time": 206.50715999999989,
                    "velocity": 0.5354330708661418,
                    "duration": 0.1254600000000039
                },
                {
                    "name": "D4",
                    "midi": 62,
                    "time": 206.50715999999989,
                    "velocity": 0.44881889763779526,
                    "duration": 0.1254600000000039
                },
                {
                    "name": "E4",
                    "midi": 64,
                    "time": 206.7580799999999,
                    "velocity": 0.5354330708661418,
                    "duration": 0.752759999999995
                },
                {
                    "name": "C5",
                    "midi": 72,
                    "time": 206.7580799999999,
                    "velocity": 0.6299212598425197,
                    "duration": 0.752759999999995
                },
                {
                    "name": "C4",
                    "midi": 60,
                    "time": 206.7580799999999,
                    "velocity": 0.5354330708661418,
                    "duration": 0.752759999999995
                },
                {
                    "name": "C4",
                    "midi": 60,
                    "time": 208.5145199999999,
                    "velocity": 0.31496062992125984,
                    "duration": 0.22582800000000702
                },
                {
                    "name": "C4",
                    "midi": 60,
                    "time": 208.7654399999999,
                    "velocity": 0.3779527559055118,
                    "duration": 0.5018399999999872
                },
                {
                    "name": "D4",
                    "midi": 62,
                    "time": 209.2672799999999,
                    "velocity": 0.3228346456692913,
                    "duration": 0.1254600000000039
                },
                {
                    "name": "E4",
                    "midi": 64,
                    "time": 209.5181999999999,
                    "velocity": 0.36220472440944884,
                    "duration": 0.1254600000000039
                },
                {
                    "name": "F4",
                    "midi": 65,
                    "time": 209.7691199999999,
                    "velocity": 0.4015748031496063,
                    "duration": 0.48093000000000075
                },
                {
                    "name": "F4",
                    "midi": 65,
                    "time": 210.2709599999999,
                    "velocity": 0.3543307086614173,
                    "duration": 0.22582800000000702
                },
                {
                    "name": "G4",
                    "midi": 67,
                    "time": 210.5218799999999,
                    "velocity": 0.36220472440944884,
                    "duration": 0.22582800000000702
                },
                {
                    "name": "F4",
                    "midi": 65,
                    "time": 210.5218799999999,
                    "velocity": 0.29133858267716534,
                    "duration": 0.2509200000000078
                },
                {
                    "name": "G4",
                    "midi": 67,
                    "time": 210.7727999999999,
                    "velocity": 0.3858267716535433,
                    "duration": 0.5018399999999872
                },
                {
                    "name": "A4",
                    "midi": 69,
                    "time": 211.2746399999999,
                    "velocity": 0.3543307086614173,
                    "duration": 0.1254600000000039
                },
                {
                    "name": "G5",
                    "midi": 79,
                    "time": 211.5255599999999,
                    "velocity": 0.4015748031496063,
                    "duration": 0.2509200000000078
                },
                {
                    "name": "B4",
                    "midi": 71,
                    "time": 211.5255599999999,
                    "velocity": 0.3543307086614173,
                    "duration": 0.1254600000000039
                },
                {
                    "name": "G5",
                    "midi": 79,
                    "time": 211.7764799999999,
                    "velocity": 0.4330708661417323,
                    "duration": 0.7318499999999801
                },
                {
                    "name": "C5",
                    "midi": 72,
                    "time": 211.7764799999999,
                    "velocity": 0.3858267716535433,
                    "duration": 0.5018399999999872
                },
                {
                    "name": "D5",
                    "midi": 74,
                    "time": 212.2783199999999,
                    "velocity": 0.3700787401574803,
                    "duration": 0.1254600000000039
                },
                {
                    "name": "G5",
                    "midi": 79,
                    "time": 212.52923999999987,
                    "velocity": 0.4330708661417323,
                    "duration": 0.23000999999999294
                },
                {
                    "name": "E5",
                    "midi": 76,
                    "time": 212.52923999999987,
                    "velocity": 0.4330708661417323,
                    "duration": 0.1254600000000039
                },
                {
                    "name": "F5",
                    "midi": 77,
                    "time": 212.78015999999985,
                    "velocity": 0.41732283464566927,
                    "duration": 0.7527600000000234
                },
                {
                    "name": "G5",
                    "midi": 79,
                    "time": 212.78015999999985,
                    "velocity": 0.4881889763779528,
                    "duration": 0.2509200000000078
                },
                {
                    "name": "F#5",
                    "midi": 78,
                    "time": 213.03107999999986,
                    "velocity": 0.41732283464566927,
                    "duration": 0.2509200000000078
                },
                {
                    "name": "A5",
                    "midi": 81,
                    "time": 213.28199999999987,
                    "velocity": 0.49606299212598426,
                    "duration": 0.1254600000000039
                },
                {
                    "name": "G5",
                    "midi": 79,
                    "time": 213.53291999999988,
                    "velocity": 0.4251968503937008,
                    "duration": 0.1254600000000039
                },
                {
                    "name": "E5",
                    "midi": 76,
                    "time": 213.53291999999988,
                    "velocity": 0.3543307086614173,
                    "duration": 0.2509200000000078
                },
                {
                    "name": "E5",
                    "midi": 76,
                    "time": 213.78383999999988,
                    "velocity": 0.3937007874015748,
                    "duration": 0.7527600000000234
                },
                {
                    "name": "G5",
                    "midi": 79,
                    "time": 213.78383999999988,
                    "velocity": 0.4645669291338583,
                    "duration": 0.2509200000000078
                },
                {
                    "name": "F#5",
                    "midi": 78,
                    "time": 214.0347599999999,
                    "velocity": 0.3937007874015748,
                    "duration": 0.2509200000000078
                },
                {
                    "name": "A5",
                    "midi": 81,
                    "time": 214.2856799999999,
                    "velocity": 0.4645669291338583,
                    "duration": 0.1254600000000039
                },
                {
                    "name": "G5",
                    "midi": 79,
                    "time": 214.5365999999999,
                    "velocity": 0.3937007874015748,
                    "duration": 0.1254600000000039
                },
                {
                    "name": "C5",
                    "midi": 72,
                    "time": 214.5365999999999,
                    "velocity": 0.33070866141732286,
                    "duration": 0.2509200000000078
                },
                {
                    "name": "C#5",
                    "midi": 73,
                    "time": 214.78751999999992,
                    "velocity": 0.4330708661417323,
                    "duration": 0.5018399999999872
                },
                {
                    "name": "A#5",
                    "midi": 82,
                    "time": 214.78751999999992,
                    "velocity": 0.5118110236220472,
                    "duration": 0.5018399999999872
                },
                {
                    "name": "D5",
                    "midi": 74,
                    "time": 215.2893599999999,
                    "velocity": 0.3937007874015748,
                    "duration": 0.1254600000000039
                },
                {
                    "name": "A5",
                    "midi": 81,
                    "time": 215.2893599999999,
                    "velocity": 0.4645669291338583,
                    "duration": 0.1254600000000039
                },
                {
                    "name": "D4",
                    "midi": 62,
                    "time": 216.5439599999999,
                    "velocity": 0.31496062992125984,
                    "duration": 0.22582800000000702
                },
                {
                    "name": "D4",
                    "midi": 62,
                    "time": 216.79487999999992,
                    "velocity": 0.3779527559055118,
                    "duration": 0.5018399999999872
                },
                {
                    "name": "E4",
                    "midi": 64,
                    "time": 217.2967199999999,
                    "velocity": 0.3228346456692913,
                    "duration": 0.1254600000000039
                },
                {
                    "name": "F4",
                    "midi": 65,
                    "time": 217.54763999999992,
                    "velocity": 0.36220472440944884,
                    "duration": 0.1254600000000039
                },
                {
                    "name": "G4",
                    "midi": 67,
                    "time": 217.79855999999992,
                    "velocity": 0.4015748031496063,
                    "duration": 0.5018399999999872
                },
                {
                    "name": "G4",
                    "midi": 67,
                    "time": 218.3003999999999,
                    "velocity": 0.3543307086614173,
                    "duration": 0.23000999999999294
                },
                {
                    "name": "G4",
                    "midi": 67,
                    "time": 218.5513199999999,
                    "velocity": 0.29133858267716534,
                    "duration": 0.23000999999999294
                },
                {
                    "name": "A4",
                    "midi": 69,
                    "time": 218.5513199999999,
                    "velocity": 0.36220472440944884,
                    "duration": 0.23000999999999294
                },
                {
                    "name": "A4",
                    "midi": 69,
                    "time": 218.80223999999987,
                    "velocity": 0.3858267716535433,
                    "duration": 0.5018399999999872
                },
                {
                    "name": "B4",
                    "midi": 71,
                    "time": 219.30407999999986,
                    "velocity": 0.3543307086614173,
                    "duration": 0.1254600000000039
                },
                {
                    "name": "C#5",
                    "midi": 73,
                    "time": 219.55499999999986,
                    "velocity": 0.3543307086614173,
                    "duration": 0.1254600000000039
                },
                {
                    "name": "A5",
                    "midi": 81,
                    "time": 219.55499999999986,
                    "velocity": 0.4015748031496063,
                    "duration": 0.2509200000000078
                },
                {
                    "name": "A5",
                    "midi": 81,
                    "time": 219.80591999999987,
                    "velocity": 0.4330708661417323,
                    "duration": 0.752759999999995
                },
                {
                    "name": "D5",
                    "midi": 74,
                    "time": 219.80591999999987,
                    "velocity": 0.3858267716535433,
                    "duration": 0.5018399999999872
                },
                {
                    "name": "E5",
                    "midi": 76,
                    "time": 220.30775999999986,
                    "velocity": 0.3700787401574803,
                    "duration": 0.1254600000000039
                },
                {
                    "name": "A5",
                    "midi": 81,
                    "time": 220.55867999999987,
                    "velocity": 0.4330708661417323,
                    "duration": 0.22582800000000702
                },
                {
                    "name": "F5",
                    "midi": 77,
                    "time": 220.55867999999987,
                    "velocity": 0.4330708661417323,
                    "duration": 0.1254600000000039
                },
                {
                    "name": "G5",
                    "midi": 79,
                    "time": 220.80959999999988,
                    "velocity": 0.41732283464566927,
                    "duration": 0.7527600000000234
                },
                {
                    "name": "A5",
                    "midi": 81,
                    "time": 220.80959999999988,
                    "velocity": 0.4881889763779528,
                    "duration": 0.2509200000000078
                },
                {
                    "name": "G#5",
                    "midi": 80,
                    "time": 221.06051999999988,
                    "velocity": 0.41732283464566927,
                    "duration": 0.2509200000000078
                },
                {
                    "name": "A#5",
                    "midi": 82,
                    "time": 221.3114399999999,
                    "velocity": 0.49606299212598426,
                    "duration": 0.1254600000000039
                },
                {
                    "name": "F5",
                    "midi": 77,
                    "time": 221.5623599999999,
                    "velocity": 0.3543307086614173,
                    "duration": 0.23000999999999294
                },
                {
                    "name": "A5",
                    "midi": 81,
                    "time": 221.5623599999999,
                    "velocity": 0.4251968503937008,
                    "duration": 0.1254600000000039
                },
                {
                    "name": "F5",
                    "midi": 77,
                    "time": 221.81327999999988,
                    "velocity": 0.3937007874015748,
                    "duration": 0.7527600000000234
                },
                {
                    "name": "A5",
                    "midi": 81,
                    "time": 221.81327999999988,
                    "velocity": 0.4645669291338583,
                    "duration": 0.2509200000000078
                },
                {
                    "name": "G#5",
                    "midi": 80,
                    "time": 222.0641999999999,
                    "velocity": 0.3937007874015748,
                    "duration": 0.2509200000000078
                },
                {
                    "name": "A#5",
                    "midi": 82,
                    "time": 222.3151199999999,
                    "velocity": 0.4645669291338583,
                    "duration": 0.1254600000000039
                },
                {
                    "name": "A5",
                    "midi": 81,
                    "time": 222.5660399999999,
                    "velocity": 0.3937007874015748,
                    "duration": 0.1254600000000039
                },
                {
                    "name": "D5",
                    "midi": 74,
                    "time": 222.5660399999999,
                    "velocity": 0.33070866141732286,
                    "duration": 0.2509200000000078
                },
                {
                    "name": "D#5",
                    "midi": 75,
                    "time": 222.8169599999999,
                    "velocity": 0.4330708661417323,
                    "duration": 0.5018399999999872
                },
                {
                    "name": "C6",
                    "midi": 84,
                    "time": 222.8169599999999,
                    "velocity": 0.5354330708661418,
                    "duration": 0.5018399999999872
                },
                {
                    "name": "B5",
                    "midi": 83,
                    "time": 223.3187999999999,
                    "velocity": 0.4645669291338583,
                    "duration": 0.1254600000000039
                },
                {
                    "name": "E5",
                    "midi": 76,
                    "time": 223.3187999999999,
                    "velocity": 0.3937007874015748,
                    "duration": 0.1254600000000039
                },
                {
                    "name": "F#5",
                    "midi": 78,
                    "time": 224.8243199999999,
                    "velocity": 0.5196850393700787,
                    "duration": 0.752759999999995
                },
                {
                    "name": "E6",
                    "midi": 88,
                    "time": 224.8243199999999,
                    "velocity": 0.6141732283464567,
                    "duration": 0.5018399999999872
                },
                {
                    "name": "D#6",
                    "midi": 87,
                    "time": 225.32615999999987,
                    "velocity": 0.5433070866141733,
                    "duration": 0.1254600000000039
                },
                {
                    "name": "A5",
                    "midi": 81,
                    "time": 226.8316799999999,
                    "velocity": 0.5354330708661418,
                    "duration": 0.752759999999995
                },
                {
                    "name": "G6",
                    "midi": 91,
                    "time": 226.8316799999999,
                    "velocity": 0.6377952755905512,
                    "duration": 0.5018399999999872
                },
                {
                    "name": "F#6",
                    "midi": 90,
                    "time": 227.33351999999988,
                    "velocity": 0.5669291338582677,
                    "duration": 0.1254600000000039
                },
                {
                    "name": "A6",
                    "midi": 93,
                    "time": 227.8353599999999,
                    "velocity": 0.6299212598425197,
                    "duration": 0.5018399999999872
                },
                {
                    "name": "A#5",
                    "midi": 82,
                    "time": 227.8353599999999,
                    "velocity": 0.5354330708661418,
                    "duration": 0.5018399999999872
                },
                {
                    "name": "G6",
                    "midi": 91,
                    "time": 228.33719999999988,
                    "velocity": 0.5826771653543307,
                    "duration": 0.1254600000000039
                },
                {
                    "name": "E5",
                    "midi": 76,
                    "time": 230.84639999999987,
                    "velocity": 0.49606299212598426,
                    "duration": 0.5018399999999872
                },
                {
                    "name": "E4",
                    "midi": 64,
                    "time": 230.84639999999987,
                    "velocity": 0.41732283464566927,
                    "duration": 0.5018399999999872
                },
                {
                    "name": "D#5",
                    "midi": 75,
                    "time": 231.34823999999986,
                    "velocity": 0.48031496062992124,
                    "duration": 0.1254600000000039
                },
                {
                    "name": "C#5",
                    "midi": 73,
                    "time": 231.59915999999987,
                    "velocity": 0.48031496062992124,
                    "duration": 0.1254600000000039
                },
                {
                    "name": "B4",
                    "midi": 71,
                    "time": 231.85007999999988,
                    "velocity": 0.4566929133858268,
                    "duration": 0.5018399999999872
                },
                {
                    "name": "A5",
                    "midi": 81,
                    "time": 231.85007999999988,
                    "velocity": 0.5433070866141733,
                    "duration": 0.5018399999999872
                },
                {
                    "name": "G#5",
                    "midi": 80,
                    "time": 232.35191999999986,
                    "velocity": 0.48031496062992124,
                    "duration": 0.1254600000000039
                },
                {
                    "name": "F#5",
                    "midi": 78,
                    "time": 232.60283999999987,
                    "velocity": 0.48031496062992124,
                    "duration": 0.1254600000000039
                },
                {
                    "name": "B5",
                    "midi": 83,
                    "time": 232.85375999999988,
                    "velocity": 0.5669291338582677,
                    "duration": 0.5018399999999872
                },
                {
                    "name": "E5",
                    "midi": 76,
                    "time": 232.85375999999988,
                    "velocity": 0.48031496062992124,
                    "duration": 1.0036800000000028
                },
                {
                    "name": "A5",
                    "midi": 81,
                    "time": 233.35559999999987,
                    "velocity": 0.5118110236220472,
                    "duration": 0.1254600000000039
                },
                {
                    "name": "G#5",
                    "midi": 80,
                    "time": 233.60651999999988,
                    "velocity": 0.48031496062992124,
                    "duration": 0.1254600000000039
                },
                {
                    "name": "F#5",
                    "midi": 78,
                    "time": 233.85743999999988,
                    "velocity": 0.5511811023622047,
                    "duration": 0.2509200000000078
                },
                {
                    "name": "E5",
                    "midi": 76,
                    "time": 233.85743999999988,
                    "velocity": 0.4645669291338583,
                    "duration": 0.5018400000000156
                },
                {
                    "name": "G5",
                    "midi": 79,
                    "time": 234.1083599999999,
                    "velocity": 0.48031496062992124,
                    "duration": 0.22582800000000702
                },
                {
                    "name": "E5",
                    "midi": 76,
                    "time": 234.3592799999999,
                    "velocity": 0.41732283464566927,
                    "duration": 0.9827699999999879
                },
                {
                    "name": "G5",
                    "midi": 79,
                    "time": 234.3592799999999,
                    "velocity": 0.49606299212598426,
                    "duration": 0.7318500000000085
                },
                {
                    "name": "F#5",
                    "midi": 78,
                    "time": 235.1120399999999,
                    "velocity": 0.5275590551181102,
                    "duration": 0.2509199999999794
                },
                {
                    "name": "F#5",
                    "midi": 78,
                    "time": 235.36295999999987,
                    "velocity": 0.5511811023622047,
                    "duration": 0.2509200000000078
                },
                {
                    "name": "E5",
                    "midi": 76,
                    "time": 235.36295999999987,
                    "velocity": 0.4645669291338583,
                    "duration": 0.48093000000000075
                },
                {
                    "name": "G5",
                    "midi": 79,
                    "time": 235.61387999999988,
                    "velocity": 0.5039370078740157,
                    "duration": 0.22582800000000702
                },
                {
                    "name": "E5",
                    "midi": 76,
                    "time": 235.86479999999986,
                    "velocity": 0.4251968503937008,
                    "duration": 0.48093000000000075
                },
                {
                    "name": "G5",
                    "midi": 79,
                    "time": 235.86479999999986,
                    "velocity": 0.5039370078740157,
                    "duration": 0.2509200000000078
                },
                {
                    "name": "G#5",
                    "midi": 80,
                    "time": 236.11571999999987,
                    "velocity": 0.48031496062992124,
                    "duration": 0.22582800000000702
                },
                {
                    "name": "G#5",
                    "midi": 80,
                    "time": 236.36663999999985,
                    "velocity": 0.5511811023622047,
                    "duration": 0.752759999999995
                },
                {
                    "name": "E5",
                    "midi": 76,
                    "time": 236.36663999999985,
                    "velocity": 0.4645669291338583,
                    "duration": 0.9827699999999879
                },
                {
                    "name": "G5",
                    "midi": 79,
                    "time": 237.11939999999984,
                    "velocity": 0.47244094488188976,
                    "duration": 0.2509199999999794
                },
                {
                    "name": "G5",
                    "midi": 79,
                    "time": 237.37031999999982,
                    "velocity": 0.4881889763779528,
                    "duration": 0.2509200000000078
                },
                {
                    "name": "E5",
                    "midi": 76,
                    "time": 237.37031999999982,
                    "velocity": 0.4094488188976378,
                    "duration": 0.48093000000000075
                },
                {
                    "name": "G#5",
                    "midi": 80,
                    "time": 237.62123999999983,
                    "velocity": 0.5039370078740157,
                    "duration": 0.22582800000000702
                },
                {
                    "name": "E5",
                    "midi": 76,
                    "time": 237.8721599999998,
                    "velocity": 0.4409448818897638,
                    "duration": 0.48093000000000075
                },
                {
                    "name": "G#5",
                    "midi": 80,
                    "time": 237.8721599999998,
                    "velocity": 0.5196850393700787,
                    "duration": 0.2509200000000078
                },
                {
                    "name": "A5",
                    "midi": 81,
                    "time": 238.12307999999982,
                    "velocity": 0.5354330708661418,
                    "duration": 0.2509199999999794
                },
                {
                    "name": "E5",
                    "midi": 76,
                    "time": 238.3739999999998,
                    "velocity": 0.4881889763779528,
                    "duration": 0.752759999999995
                },
                {
                    "name": "A5",
                    "midi": 81,
                    "time": 238.3739999999998,
                    "velocity": 0.5826771653543307,
                    "duration": 0.752759999999995
                },
                {
                    "name": "A#5",
                    "midi": 82,
                    "time": 239.1267599999998,
                    "velocity": 0.5433070866141733,
                    "duration": 0.22582800000000702
                },
                {
                    "name": "E5",
                    "midi": 76,
                    "time": 239.1267599999998,
                    "velocity": 0.4566929133858268,
                    "duration": 0.22582800000000702
                },
                {
                    "name": "E5",
                    "midi": 76,
                    "time": 239.3776799999998,
                    "velocity": 0.5118110236220472,
                    "duration": 0.2509200000000078
                },
                {
                    "name": "A#5",
                    "midi": 82,
                    "time": 239.3776799999998,
                    "velocity": 0.6062992125984252,
                    "duration": 0.2509200000000078
                },
                {
                    "name": "C#6",
                    "midi": 85,
                    "time": 239.6285999999998,
                    "velocity": 0.5354330708661418,
                    "duration": 0.22582800000000702
                },
                {
                    "name": "G5",
                    "midi": 79,
                    "time": 239.6285999999998,
                    "velocity": 0.44881889763779526,
                    "duration": 0.22582800000000702
                },
                {
                    "name": "C#6",
                    "midi": 85,
                    "time": 239.87951999999981,
                    "velocity": 0.5511811023622047,
                    "duration": 0.2509200000000078
                },
                {
                    "name": "G5",
                    "midi": 79,
                    "time": 239.87951999999981,
                    "velocity": 0.4645669291338583,
                    "duration": 0.2509200000000078
                },
                {
                    "name": "E6",
                    "midi": 88,
                    "time": 240.13043999999982,
                    "velocity": 0.5511811023622047,
                    "duration": 0.22582800000000702
                },
                {
                    "name": "A#5",
                    "midi": 82,
                    "time": 240.13043999999982,
                    "velocity": 0.5511811023622047,
                    "duration": 0.22582800000000702
                },
                {
                    "name": "A#5",
                    "midi": 82,
                    "time": 240.38135999999983,
                    "velocity": 0.5905511811023622,
                    "duration": 0.2509200000000078
                },
                {
                    "name": "E6",
                    "midi": 88,
                    "time": 240.38135999999983,
                    "velocity": 0.5905511811023622,
                    "duration": 0.2509200000000078
                },
                {
                    "name": "C#6",
                    "midi": 85,
                    "time": 240.63227999999984,
                    "velocity": 0.4881889763779528,
                    "duration": 0.2509200000000078
                },
                {
                    "name": "G6",
                    "midi": 91,
                    "time": 240.63227999999984,
                    "velocity": 0.5748031496062992,
                    "duration": 0.2509200000000078
                },
                {
                    "name": "D#6",
                    "midi": 87,
                    "time": 240.88319999999985,
                    "velocity": 0.5354330708661418,
                    "duration": 0.1254600000000039
                },
                {
                    "name": "F#6",
                    "midi": 90,
                    "time": 240.88319999999985,
                    "velocity": 0.6299212598425197,
                    "duration": 0.1254600000000039
                },
                {
                    "name": "F#4",
                    "midi": 66,
                    "time": 241.63595999999984,
                    "velocity": 0.6299212598425197,
                    "duration": 1.5055200000000184
                },
                {
                    "name": "A4",
                    "midi": 69,
                    "time": 241.88687999999985,
                    "velocity": 0.5669291338582677,
                    "duration": 1.2546000000000106
                },
                {
                    "name": "F#5",
                    "midi": 78,
                    "time": 241.88687999999985,
                    "velocity": 0.6692913385826772,
                    "duration": 0.752759999999995
                },
                {
                    "name": "E5",
                    "midi": 76,
                    "time": 242.63963999999984,
                    "velocity": 0.6299212598425197,
                    "duration": 0.2509200000000078
                },
                {
                    "name": "D#5",
                    "midi": 75,
                    "time": 242.89055999999985,
                    "velocity": 0.6614173228346457,
                    "duration": 0.2509200000000078
                },
                {
                    "name": "F#5",
                    "midi": 78,
                    "time": 243.64331999999985,
                    "velocity": 0.6535433070866141,
                    "duration": 1.5055200000000184
                },
                {
                    "name": "F#6",
                    "midi": 90,
                    "time": 243.89423999999985,
                    "velocity": 0.7086614173228346,
                    "duration": 0.752759999999995
                },
                {
                    "name": "A5",
                    "midi": 81,
                    "time": 243.89423999999985,
                    "velocity": 0.5984251968503937,
                    "duration": 1.2546000000000106
                },
                {
                    "name": "E6",
                    "midi": 88,
                    "time": 244.64699999999985,
                    "velocity": 0.6692913385826772,
                    "duration": 0.2509200000000078
                },
                {
                    "name": "D#6",
                    "midi": 87,
                    "time": 244.89791999999986,
                    "velocity": 0.7480314960629921,
                    "duration": 0.2509200000000078
                },
                {
                    "name": "A6",
                    "midi": 93,
                    "time": 245.39975999999987,
                    "velocity": 0.7795275590551181,
                    "duration": 0.1254600000000039
                },
                {
                    "name": "A5",
                    "midi": 81,
                    "time": 245.39975999999987,
                    "velocity": 0.6614173228346457,
                    "duration": 0.1254600000000039
                },
                {
                    "name": "D#6",
                    "midi": 87,
                    "time": 245.39975999999987,
                    "velocity": 0.6614173228346457,
                    "duration": 0.1254600000000039
                },
                {
                    "name": "F#6",
                    "midi": 90,
                    "time": 245.39975999999987,
                    "velocity": 0.6614173228346457,
                    "duration": 0.1254600000000039
                },
                {
                    "name": "F#4",
                    "midi": 66,
                    "time": 246.40343999999988,
                    "velocity": 0.6062992125984252,
                    "duration": 0.5018399999999872
                },
                {
                    "name": "A4",
                    "midi": 69,
                    "time": 246.90527999999986,
                    "velocity": 0.6535433070866141,
                    "duration": 1.2546000000000106
                },
                {
                    "name": "F#4",
                    "midi": 66,
                    "time": 248.41079999999988,
                    "velocity": 0.36220472440944884,
                    "duration": 0.5018399999999872
                },
                {
                    "name": "A4",
                    "midi": 69,
                    "time": 248.91263999999987,
                    "velocity": 0.3858267716535433,
                    "duration": 1.2546000000000106
                },
                {
                    "name": "F#4",
                    "midi": 66,
                    "time": 250.4181599999999,
                    "velocity": 0.36220472440944884,
                    "duration": 0.5018399999999872
                },
                {
                    "name": "A4",
                    "midi": 69,
                    "time": 250.91999999999987,
                    "velocity": 0.3858267716535433,
                    "duration": 1.0036800000000028
                },
                {
                    "name": "B4",
                    "midi": 71,
                    "time": 251.92367999999988,
                    "velocity": 0.3779527559055118,
                    "duration": 0.752759999999995
                },
                {
                    "name": "C5",
                    "midi": 72,
                    "time": 252.67643999999987,
                    "velocity": 0.36220472440944884,
                    "duration": 0.22582800000000702
                },
                {
                    "name": "C5",
                    "midi": 72,
                    "time": 252.92735999999988,
                    "velocity": 0.41732283464566927,
                    "duration": 1.0036800000000028
                },
                {
                    "name": "B4",
                    "midi": 71,
                    "time": 253.93103999999988,
                    "velocity": 0.36220472440944884,
                    "duration": 0.5018399999999872
                },
                {
                    "name": "D5",
                    "midi": 74,
                    "time": 254.68379999999988,
                    "velocity": 0.3858267716535433,
                    "duration": 0.2509200000000078
                },
                {
                    "name": "F5",
                    "midi": 77,
                    "time": 254.93471999999988,
                    "velocity": 0.4251968503937008,
                    "duration": 1.0036800000000028
                },
                {
                    "name": "E5",
                    "midi": 76,
                    "time": 255.9383999999999,
                    "velocity": 0.3937007874015748,
                    "duration": 0.7527600000000234
                },
                {
                    "name": "B4",
                    "midi": 71,
                    "time": 256.6911599999999,
                    "velocity": 0.3937007874015748,
                    "duration": 0.2509200000000078
                },
                {
                    "name": "D5",
                    "midi": 74,
                    "time": 256.9420799999999,
                    "velocity": 0.44881889763779526,
                    "duration": 1.0036799999999744
                },
                {
                    "name": "C5",
                    "midi": 72,
                    "time": 257.9457599999999,
                    "velocity": 0.4094488188976378,
                    "duration": 0.5018400000000156
                },
                {
                    "name": "C5",
                    "midi": 72,
                    "time": 258.9494399999999,
                    "velocity": 0.3858267716535433,
                    "duration": 0.9827700000000164
                },
                {
                    "name": "C5",
                    "midi": 72,
                    "time": 259.95311999999996,
                    "velocity": 0.3937007874015748,
                    "duration": 1.5055200000000468
                },
                {
                    "name": "D5",
                    "midi": 74,
                    "time": 260.70588,
                    "velocity": 0.4409448818897638,
                    "duration": 0.2509200000000078
                },
                {
                    "name": "E5",
                    "midi": 76,
                    "time": 260.9568,
                    "velocity": 0.5118110236220472,
                    "duration": 0.5018400000000156
                },
                {
                    "name": "E5",
                    "midi": 76,
                    "time": 261.96048,
                    "velocity": 0.49606299212598426,
                    "duration": 1.50551999999999
                },
                {
                    "name": "G5",
                    "midi": 79,
                    "time": 261.96048,
                    "velocity": 0.5905511811023622,
                    "duration": 1.50551999999999
                },
                {
                    "name": "B5",
                    "midi": 83,
                    "time": 263.96784,
                    "velocity": 0.5748031496062992,
                    "duration": 1.50551999999999
                },
                {
                    "name": "G5",
                    "midi": 79,
                    "time": 263.96784,
                    "velocity": 0.4881889763779528,
                    "duration": 1.50551999999999
                },
                {
                    "name": "D5",
                    "midi": 74,
                    "time": 265.91247000000004,
                    "velocity": 0.5433070866141733,
                    "duration": 1.8191699999999855
                },
                {
                    "name": "G5",
                    "midi": 79,
                    "time": 265.94383500000004,
                    "velocity": 0.5748031496062992,
                    "duration": 1.7878049999999917
                },
                {
                    "name": "D6",
                    "midi": 86,
                    "time": 265.97520000000003,
                    "velocity": 0.5984251968503937,
                    "duration": 1.7564399999999978
                },
                {
                    "name": "B5",
                    "midi": 83,
                    "time": 267.73164,
                    "velocity": 0.5196850393700787,
                    "duration": 0.2509200000000078
                },
                {
                    "name": "C6",
                    "midi": 84,
                    "time": 267.98256000000003,
                    "velocity": 0.5748031496062992,
                    "duration": 0.7527600000000234
                },
                {
                    "name": "F#5",
                    "midi": 78,
                    "time": 267.98256000000003,
                    "velocity": 0.4881889763779528,
                    "duration": 1.0036800000000312
                },
                {
                    "name": "A5",
                    "midi": 81,
                    "time": 268.73532000000006,
                    "velocity": 0.48031496062992124,
                    "duration": 0.2509200000000078
                },
                {
                    "name": "G5",
                    "midi": 79,
                    "time": 268.98624000000007,
                    "velocity": 0.5433070866141733,
                    "duration": 1.0036799999999744
                },
                {
                    "name": "A5",
                    "midi": 81,
                    "time": 269.98992000000004,
                    "velocity": 0.49606299212598426,
                    "duration": 0.7527600000000234
                },
                {
                    "name": "C5",
                    "midi": 72,
                    "time": 269.98992000000004,
                    "velocity": 0.41732283464566927,
                    "duration": 2.0073600000000056
                },
                {
                    "name": "F5",
                    "midi": 77,
                    "time": 270.74268000000006,
                    "velocity": 0.4094488188976378,
                    "duration": 0.2509200000000078
                },
                {
                    "name": "E5",
                    "midi": 76,
                    "time": 270.9936000000001,
                    "velocity": 0.49606299212598426,
                    "duration": 1.0036799999999744
                },
                {
                    "name": "F5",
                    "midi": 77,
                    "time": 271.99728000000005,
                    "velocity": 0.5039370078740157,
                    "duration": 1.7564399999999978
                },
                {
                    "name": "B4",
                    "midi": 71,
                    "time": 271.99728000000005,
                    "velocity": 0.4251968503937008,
                    "duration": 1.0036799999999744
                },
                {
                    "name": "C5",
                    "midi": 72,
                    "time": 273.00096,
                    "velocity": 0.5039370078740157,
                    "duration": 1.0036800000000312
                },
                {
                    "name": "E5",
                    "midi": 76,
                    "time": 273.75372000000004,
                    "velocity": 0.4094488188976378,
                    "duration": 0.2509200000000078
                },
                {
                    "name": "A4",
                    "midi": 69,
                    "time": 274.00464000000005,
                    "velocity": 0.33070866141732286,
                    "duration": 1.0036800000000312
                },
                {
                    "name": "F#5",
                    "midi": 78,
                    "time": 274.00464000000005,
                    "velocity": 0.3937007874015748,
                    "duration": 0.7527600000000234
                },
                {
                    "name": "D#5",
                    "midi": 75,
                    "time": 274.7574000000001,
                    "velocity": 0.29133858267716534,
                    "duration": 0.2509200000000078
                },
                {
                    "name": "E5",
                    "midi": 76,
                    "time": 275.0083200000001,
                    "velocity": 0.2677165354330709,
                    "duration": 1.9864499999999907
                },
                {
                    "name": "C6",
                    "midi": 84,
                    "time": 275.0083200000001,
                    "velocity": 0.31496062992125984,
                    "duration": 1.0036799999999744
                },
                {
                    "name": "E6",
                    "midi": 88,
                    "time": 275.0083200000001,
                    "velocity": 0.31496062992125984,
                    "duration": 1.0036799999999744
                },
                {
                    "name": "B5",
                    "midi": 83,
                    "time": 276.01200000000006,
                    "velocity": 0.2755905511811024,
                    "duration": 0.5018400000000156
                },
                {
                    "name": "D6",
                    "midi": 86,
                    "time": 276.01200000000006,
                    "velocity": 0.2755905511811024,
                    "duration": 0.5018400000000156
                },
                {
                    "name": "C6",
                    "midi": 84,
                    "time": 276.5138400000001,
                    "velocity": 0.3228346456692913,
                    "duration": 0.5018400000000156
                },
                {
                    "name": "E6",
                    "midi": 88,
                    "time": 276.5138400000001,
                    "velocity": 0.3228346456692913,
                    "duration": 0.5018400000000156
                },
                {
                    "name": "D6",
                    "midi": 86,
                    "time": 277.0156800000001,
                    "velocity": 0.36220472440944884,
                    "duration": 0.7527600000000234
                },
                {
                    "name": "E5",
                    "midi": 76,
                    "time": 277.0156800000001,
                    "velocity": 0.1968503937007874,
                    "duration": 1.9864500000000476
                },
                {
                    "name": "F6",
                    "midi": 89,
                    "time": 277.0156800000001,
                    "velocity": 0.36220472440944884,
                    "duration": 0.7527600000000234
                },
                {
                    "name": "B5",
                    "midi": 83,
                    "time": 277.7684400000001,
                    "velocity": 0.30708661417322836,
                    "duration": 0.23000999999999294
                },
                {
                    "name": "D6",
                    "midi": 86,
                    "time": 277.7684400000001,
                    "velocity": 0.30708661417322836,
                    "duration": 0.2509200000000078
                },
                {
                    "name": "G#5",
                    "midi": 80,
                    "time": 278.0193600000001,
                    "velocity": 0.36220472440944884,
                    "duration": 0.5018400000000156
                },
                {
                    "name": "B5",
                    "midi": 83,
                    "time": 278.0193600000001,
                    "velocity": 0.36220472440944884,
                    "duration": 0.5018400000000156
                },
                {
                    "name": "A5",
                    "midi": 81,
                    "time": 278.52120000000014,
                    "velocity": 0.31496062992125984,
                    "duration": 0.5018400000000156
                },
                {
                    "name": "C6",
                    "midi": 84,
                    "time": 278.52120000000014,
                    "velocity": 0.31496062992125984,
                    "duration": 0.5018400000000156
                },
                {
                    "name": "E5",
                    "midi": 76,
                    "time": 279.02304000000015,
                    "velocity": 0.2677165354330709,
                    "duration": 1.9864500000000476
                },
                {
                    "name": "D6",
                    "midi": 86,
                    "time": 279.02304000000015,
                    "velocity": 0.31496062992125984,
                    "duration": 0.5018400000000156
                },
                {
                    "name": "B5",
                    "midi": 83,
                    "time": 279.02304000000015,
                    "velocity": 0.31496062992125984,
                    "duration": 0.5018400000000156
                },
                {
                    "name": "C6",
                    "midi": 84,
                    "time": 279.52488000000017,
                    "velocity": 0.2755905511811024,
                    "duration": 0.5018400000000156
                },
                {
                    "name": "A5",
                    "midi": 81,
                    "time": 279.52488000000017,
                    "velocity": 0.2755905511811024,
                    "duration": 0.5018400000000156
                },
                {
                    "name": "G5",
                    "midi": 79,
                    "time": 280.0267200000002,
                    "velocity": 0.2755905511811024,
                    "duration": 0.5018400000000156
                },
                {
                    "name": "B5",
                    "midi": 83,
                    "time": 280.0267200000002,
                    "velocity": 0.2755905511811024,
                    "duration": 0.5018400000000156
                },
                {
                    "name": "F5",
                    "midi": 77,
                    "time": 280.5285600000002,
                    "velocity": 0.3228346456692913,
                    "duration": 0.5018400000000156
                },
                {
                    "name": "A5",
                    "midi": 81,
                    "time": 280.5285600000002,
                    "velocity": 0.3228346456692913,
                    "duration": 0.5018400000000156
                },
                {
                    "name": "E5",
                    "midi": 76,
                    "time": 281.0304000000002,
                    "velocity": 0.1968503937007874,
                    "duration": 1.484610000000032
                },
                {
                    "name": "G#5",
                    "midi": 80,
                    "time": 281.0304000000002,
                    "velocity": 0.36220472440944884,
                    "duration": 0.7527600000000234
                },
                {
                    "name": "A5",
                    "midi": 81,
                    "time": 281.78316000000024,
                    "velocity": 0.30708661417322836,
                    "duration": 0.2509200000000078
                },
                {
                    "name": "F#5",
                    "midi": 78,
                    "time": 281.78316000000024,
                    "velocity": 0.30708661417322836,
                    "duration": 0.2509200000000078
                },
                {
                    "name": "B5",
                    "midi": 83,
                    "time": 282.03408000000024,
                    "velocity": 0.36220472440944884,
                    "duration": 0.5018400000000156
                },
                {
                    "name": "G#5",
                    "midi": 80,
                    "time": 282.03408000000024,
                    "velocity": 0.36220472440944884,
                    "duration": 0.5018400000000156
                },
                {
                    "name": "E5",
                    "midi": 76,
                    "time": 282.53592000000026,
                    "velocity": 0.31496062992125984,
                    "duration": 2.4882900000000063
                },
                {
                    "name": "E6",
                    "midi": 88,
                    "time": 283.0377600000003,
                    "velocity": 0.31496062992125984,
                    "duration": 1.0036799999999744
                },
                {
                    "name": "C6",
                    "midi": 84,
                    "time": 283.0377600000003,
                    "velocity": 0.31496062992125984,
                    "duration": 1.0036799999999744
                },
                {
                    "name": "D6",
                    "midi": 86,
                    "time": 284.04144000000025,
                    "velocity": 0.2755905511811024,
                    "duration": 0.5018400000000156
                },
                {
                    "name": "B5",
                    "midi": 83,
                    "time": 284.04144000000025,
                    "velocity": 0.2755905511811024,
                    "duration": 0.5018400000000156
                },
                {
                    "name": "E6",
                    "midi": 88,
                    "time": 284.54328000000027,
                    "velocity": 0.33858267716535434,
                    "duration": 0.5018400000000156
                },
                {
                    "name": "C6",
                    "midi": 84,
                    "time": 284.54328000000027,
                    "velocity": 0.33858267716535434,
                    "duration": 0.5018400000000156
                },
                {
                    "name": "E6",
                    "midi": 88,
                    "time": 285.0451200000003,
                    "velocity": 0.4330708661417323,
                    "duration": 0.7527600000000234
                },
                {
                    "name": "G6",
                    "midi": 91,
                    "time": 285.0451200000003,
                    "velocity": 0.4330708661417323,
                    "duration": 0.7527600000000234
                },
                {
                    "name": "E5",
                    "midi": 76,
                    "time": 285.0451200000003,
                    "velocity": 0.1968503937007874,
                    "duration": 1.9864500000000476
                },
                {
                    "name": "F6",
                    "midi": 89,
                    "time": 285.7978800000003,
                    "velocity": 0.33070866141732286,
                    "duration": 0.2509200000000078
                },
                {
                    "name": "D6",
                    "midi": 86,
                    "time": 285.7978800000003,
                    "velocity": 0.33070866141732286,
                    "duration": 0.23000999999999294
                },
                {
                    "name": "D6",
                    "midi": 86,
                    "time": 286.0488000000003,
                    "velocity": 0.3937007874015748,
                    "duration": 0.5018400000000156
                },
                {
                    "name": "B5",
                    "midi": 83,
                    "time": 286.0488000000003,
                    "velocity": 0.3937007874015748,
                    "duration": 0.5018400000000156
                },
                {
                    "name": "F6",
                    "midi": 89,
                    "time": 286.5506400000003,
                    "velocity": 0.3464566929133858,
                    "duration": 0.5018400000000156
                },
                {
                    "name": "D6",
                    "midi": 86,
                    "time": 286.5506400000003,
                    "velocity": 0.3464566929133858,
                    "duration": 0.5018400000000156
                },
                {
                    "name": "E5",
                    "midi": 76,
                    "time": 287.05248000000034,
                    "velocity": 0.29133858267716534,
                    "duration": 1.9864500000000476
                },
                {
                    "name": "C6",
                    "midi": 84,
                    "time": 287.05248000000034,
                    "velocity": 0.3464566929133858,
                    "duration": 0.48093000000000075
                },
                {
                    "name": "E6",
                    "midi": 88,
                    "time": 287.05248000000034,
                    "velocity": 0.3464566929133858,
                    "duration": 0.5018400000000156
                },
                {
                    "name": "A5",
                    "midi": 81,
                    "time": 287.55432000000036,
                    "velocity": 0.29133858267716534,
                    "duration": 0.5018400000000156
                },
                {
                    "name": "C6",
                    "midi": 84,
                    "time": 287.55432000000036,
                    "velocity": 0.29133858267716534,
                    "duration": 0.5018400000000156
                },
                {
                    "name": "B5",
                    "midi": 83,
                    "time": 288.0561600000004,
                    "velocity": 0.28346456692913385,
                    "duration": 0.48093000000000075
                },
                {
                    "name": "D6",
                    "midi": 86,
                    "time": 288.0561600000004,
                    "velocity": 0.28346456692913385,
                    "duration": 0.5018400000000156
                },
                {
                    "name": "B5",
                    "midi": 83,
                    "time": 288.5580000000004,
                    "velocity": 0.33070866141732286,
                    "duration": 0.5018400000000156
                },
                {
                    "name": "G#5",
                    "midi": 80,
                    "time": 288.5580000000004,
                    "velocity": 0.33070866141732286,
                    "duration": 0.5018400000000156
                },
                {
                    "name": "C6",
                    "midi": 84,
                    "time": 289.0598400000004,
                    "velocity": 0.36220472440944884,
                    "duration": 0.5018400000000156
                },
                {
                    "name": "E5",
                    "midi": 76,
                    "time": 289.0598400000004,
                    "velocity": 0.1968503937007874,
                    "duration": 2.0073600000000624
                },
                {
                    "name": "A5",
                    "midi": 81,
                    "time": 289.0598400000004,
                    "velocity": 0.31496062992125984,
                    "duration": 0.48093000000000075
                },
                {
                    "name": "A5",
                    "midi": 81,
                    "time": 289.5616800000004,
                    "velocity": 0.30708661417322836,
                    "duration": 0.5018400000000156
                },
                {
                    "name": "F#5",
                    "midi": 78,
                    "time": 289.5616800000004,
                    "velocity": 0.30708661417322836,
                    "duration": 0.5018400000000156
                },
                {
                    "name": "G#5",
                    "midi": 80,
                    "time": 290.06352000000044,
                    "velocity": 0.36220472440944884,
                    "duration": 0.5018400000000156
                },
                {
                    "name": "B5",
                    "midi": 83,
                    "time": 290.06352000000044,
                    "velocity": 0.36220472440944884,
                    "duration": 0.5018400000000156
                },
                {
                    "name": "E5",
                    "midi": 76,
                    "time": 290.56536000000045,
                    "velocity": 0.31496062992125984,
                    "duration": 0.5018400000000156
                },
                {
                    "name": "E4",
                    "midi": 64,
                    "time": 291.3181200000005,
                    "velocity": 0.1889763779527559,
                    "duration": 0.2509200000000078
                },
                {
                    "name": "A4",
                    "midi": 69,
                    "time": 291.5690400000005,
                    "velocity": 0.2677165354330709,
                    "duration": 0.2509200000000078
                },
                {
                    "name": "E5",
                    "midi": 76,
                    "time": 291.8199600000005,
                    "velocity": 0.1889763779527559,
                    "duration": 0.2509200000000078
                },
                {
                    "name": "E4",
                    "midi": 64,
                    "time": 292.3218000000005,
                    "velocity": 0.1889763779527559,
                    "duration": 0.2509200000000078
                },
                {
                    "name": "B4",
                    "midi": 71,
                    "time": 292.5727200000005,
                    "velocity": 0.25984251968503935,
                    "duration": 0.2509200000000078
                },
                {
                    "name": "E5",
                    "midi": 76,
                    "time": 292.8236400000005,
                    "velocity": 0.1889763779527559,
                    "duration": 0.2509200000000078
                },
                {
                    "name": "A4",
                    "midi": 69,
                    "time": 293.32548000000054,
                    "velocity": 0.1889763779527559,
                    "duration": 0.2509200000000078
                },
                {
                    "name": "C5",
                    "midi": 72,
                    "time": 293.57640000000055,
                    "velocity": 0.2677165354330709,
                    "duration": 0.2509200000000078
                },
                {
                    "name": "F5",
                    "midi": 77,
                    "time": 293.82732000000055,
                    "velocity": 0.1889763779527559,
                    "duration": 0.2509200000000078
                },
                {
                    "name": "F4",
                    "midi": 65,
                    "time": 294.32916000000057,
                    "velocity": 0.1889763779527559,
                    "duration": 0.2509200000000078
                },
                {
                    "name": "B4",
                    "midi": 71,
                    "time": 294.5800800000006,
                    "velocity": 0.25984251968503935,
                    "duration": 0.2509200000000078
                },
                {
                    "name": "F5",
                    "midi": 77,
                    "time": 294.8163630000006,
                    "velocity": 0.1889763779527559,
                    "duration": 0.2509200000000078
                },
                {
                    "name": "A4",
                    "midi": 69,
                    "time": 295.3328400000006,
                    "velocity": 0.25196850393700787,
                    "duration": 0.2509200000000078
                },
                {
                    "name": "F5",
                    "midi": 77,
                    "time": 295.5837600000006,
                    "velocity": 0.2992125984251969,
                    "duration": 0.2509200000000078
                },
                {
                    "name": "B5",
                    "midi": 83,
                    "time": 295.8346800000006,
                    "velocity": 0.25196850393700787,
                    "duration": 0.2509200000000078
                },
                {
                    "name": "G#4",
                    "midi": 68,
                    "time": 296.33652000000063,
                    "velocity": 0.25196850393700787,
                    "duration": 0.2509200000000078
                },
                {
                    "name": "E5",
                    "midi": 76,
                    "time": 296.58744000000064,
                    "velocity": 0.3228346456692913,
                    "duration": 0.2509200000000078
                },
                {
                    "name": "B5",
                    "midi": 83,
                    "time": 296.83836000000065,
                    "velocity": 0.2677165354330709,
                    "duration": 0.2509200000000078
                },
                {
                    "name": "D5",
                    "midi": 74,
                    "time": 297.34020000000066,
                    "velocity": 0.2755905511811024,
                    "duration": 0.2509200000000078
                },
                {
                    "name": "B5",
                    "midi": 83,
                    "time": 297.59112000000067,
                    "velocity": 0.3464566929133858,
                    "duration": 0.2509200000000078
                },
                {
                    "name": "E6",
                    "midi": 88,
                    "time": 297.8420400000007,
                    "velocity": 0.2992125984251969,
                    "duration": 0.2509200000000078
                },
                {
                    "name": "C5",
                    "midi": 72,
                    "time": 298.3438800000007,
                    "velocity": 0.2992125984251969,
                    "duration": 0.2509200000000078
                },
                {
                    "name": "A5",
                    "midi": 81,
                    "time": 298.5948000000007,
                    "velocity": 0.3779527559055118,
                    "duration": 0.2509200000000078
                },
                {
                    "name": "E6",
                    "midi": 88,
                    "time": 298.8457200000007,
                    "velocity": 0.28346456692913385,
                    "duration": 0.2509200000000078
                },
                {
                    "name": "B4",
                    "midi": 71,
                    "time": 299.59848000000073,
                    "velocity": 0.3700787401574803,
                    "duration": 0.6272999999999911
                },
                {
                    "name": "F4",
                    "midi": 65,
                    "time": 299.59848000000073,
                    "velocity": 0.30708661417322836,
                    "duration": 0.6272999999999911
                },
                {
                    "name": "A4",
                    "midi": 69,
                    "time": 299.59848000000073,
                    "velocity": 0.30708661417322836,
                    "duration": 0.6272999999999911
                },
                {
                    "name": "C5",
                    "midi": 72,
                    "time": 300.2257800000007,
                    "velocity": 0.3543307086614173,
                    "duration": 0.12545999999997548
                },
                {
                    "name": "B4",
                    "midi": 71,
                    "time": 300.3512400000007,
                    "velocity": 0.3543307086614173,
                    "duration": 0.12545999999997548
                },
                {
                    "name": "A4",
                    "midi": 69,
                    "time": 300.4767000000007,
                    "velocity": 0.3543307086614173,
                    "duration": 0.12545999999997548
                },
                {
                    "name": "B4",
                    "midi": 71,
                    "time": 300.60216000000065,
                    "velocity": 0.36220472440944884,
                    "duration": 0.12545999999997548
                },
                {
                    "name": "C5",
                    "midi": 72,
                    "time": 300.7276200000006,
                    "velocity": 0.3858267716535433,
                    "duration": 0.12545999999997548
                },
                {
                    "name": "D5",
                    "midi": 74,
                    "time": 300.8530800000006,
                    "velocity": 0.4094488188976378,
                    "duration": 0.12545999999997548
                },
                {
                    "name": "E5",
                    "midi": 76,
                    "time": 300.9785400000006,
                    "velocity": 0.4330708661417323,
                    "duration": 0.12545999999997548
                },
                {
                    "name": "G5",
                    "midi": 79,
                    "time": 301.10400000000055,
                    "velocity": 0.5354330708661418,
                    "duration": 0.5018400000000156
                },
                {
                    "name": "F5",
                    "midi": 77,
                    "time": 301.60584000000057,
                    "velocity": 0.5039370078740157,
                    "duration": 0.2509200000000078
                },
                {
                    "name": "F4",
                    "midi": 65,
                    "time": 303.6132000000006,
                    "velocity": 0.30708661417322836,
                    "duration": 0.6272999999999911
                },
                {
                    "name": "B4",
                    "midi": 71,
                    "time": 303.6132000000006,
                    "velocity": 0.3700787401574803,
                    "duration": 0.6272999999999911
                },
                {
                    "name": "G#4",
                    "midi": 68,
                    "time": 303.6132000000006,
                    "velocity": 0.30708661417322836,
                    "duration": 0.6272999999999911
                },
                {
                    "name": "C5",
                    "midi": 72,
                    "time": 304.24050000000057,
                    "velocity": 0.3543307086614173,
                    "duration": 0.12545999999997548
                },
                {
                    "name": "B4",
                    "midi": 71,
                    "time": 304.36596000000054,
                    "velocity": 0.3543307086614173,
                    "duration": 0.12545999999997548
                },
                {
                    "name": "A#4",
                    "midi": 70,
                    "time": 304.4914200000005,
                    "velocity": 0.3543307086614173,
                    "duration": 0.12545999999997548
                },
                {
                    "name": "B4",
                    "midi": 71,
                    "time": 304.6168800000005,
                    "velocity": 0.36220472440944884,
                    "duration": 0.12545999999997548
                },
                {
                    "name": "C5",
                    "midi": 72,
                    "time": 304.74234000000047,
                    "velocity": 0.3858267716535433,
                    "duration": 0.12545999999997548
                },
                {
                    "name": "D5",
                    "midi": 74,
                    "time": 304.86780000000044,
                    "velocity": 0.4094488188976378,
                    "duration": 0.12545999999997548
                },
                {
                    "name": "E5",
                    "midi": 76,
                    "time": 304.9932600000004,
                    "velocity": 0.4330708661417323,
                    "duration": 0.12545999999997548
                },
                {
                    "name": "G5",
                    "midi": 79,
                    "time": 305.1187200000004,
                    "velocity": 0.5354330708661418,
                    "duration": 0.5018400000000156
                },
                {
                    "name": "F5",
                    "midi": 77,
                    "time": 305.6205600000004,
                    "velocity": 0.5039370078740157,
                    "duration": 0.2509200000000078
                },
                {
                    "name": "D5",
                    "midi": 74,
                    "time": 306.1224000000004,
                    "velocity": 0.4881889763779528,
                    "duration": 0.7527600000000234
                },
                {
                    "name": "C6",
                    "midi": 84,
                    "time": 306.1224000000004,
                    "velocity": 0.5826771653543307,
                    "duration": 0.5018400000000156
                },
                {
                    "name": "A#5",
                    "midi": 82,
                    "time": 306.62424000000044,
                    "velocity": 0.5433070866141733,
                    "duration": 0.2509200000000078
                },
                {
                    "name": "D4",
                    "midi": 62,
                    "time": 309.13344000000046,
                    "velocity": 0.3228346456692913,
                    "duration": 0.13800599999996166
                },
                {
                    "name": "C5",
                    "midi": 72,
                    "time": 309.13344000000046,
                    "velocity": 0.3228346456692913,
                    "duration": 0.5018399999999019
                },
                {
                    "name": "D#4",
                    "midi": 63,
                    "time": 309.25890000000044,
                    "velocity": 0.3228346456692913,
                    "duration": 0.13800599999996166
                },
                {
                    "name": "D4",
                    "midi": 62,
                    "time": 309.3843600000004,
                    "velocity": 0.3228346456692913,
                    "duration": 0.13800599999996166
                },
                {
                    "name": "C#4",
                    "midi": 61,
                    "time": 309.5098200000004,
                    "velocity": 0.3228346456692913,
                    "duration": 0.13800599999996166
                },
                {
                    "name": "D4",
                    "midi": 62,
                    "time": 309.63528000000036,
                    "velocity": 0.3543307086614173,
                    "duration": 0.13800599999996166
                },
                {
                    "name": "A#4",
                    "midi": 70,
                    "time": 309.63528000000036,
                    "velocity": 0.48031496062992124,
                    "duration": 0.25091999999995096
                },
                {
                    "name": "F4",
                    "midi": 65,
                    "time": 309.76074000000034,
                    "velocity": 0.3700787401574803,
                    "duration": 0.13800599999996166
                },
                {
                    "name": "G#4",
                    "midi": 68,
                    "time": 309.8862000000003,
                    "velocity": 0.3858267716535433,
                    "duration": 0.13800599999996166
                },
                {
                    "name": "A#4",
                    "midi": 70,
                    "time": 310.0116600000003,
                    "velocity": 0.4094488188976378,
                    "duration": 0.13800599999996166
                },
                {
                    "name": "C6",
                    "midi": 84,
                    "time": 310.13712000000027,
                    "velocity": 0.5275590551181102,
                    "duration": 0.5018399999999588
                },
                {
                    "name": "D#5",
                    "midi": 75,
                    "time": 310.13712000000027,
                    "velocity": 0.5275590551181102,
                    "duration": 0.7527599999999666
                },
                {
                    "name": "A#5",
                    "midi": 82,
                    "time": 310.6389600000002,
                    "velocity": 0.48031496062992124,
                    "duration": 0.2509200000000078
                },
                {
                    "name": "D5",
                    "midi": 74,
                    "time": 311.14080000000024,
                    "velocity": 0.4015748031496063,
                    "duration": 0.13800599999996166
                },
                {
                    "name": "C6",
                    "midi": 84,
                    "time": 311.14080000000024,
                    "velocity": 0.5905511811023622,
                    "duration": 0.5018399999999019
                },
                {
                    "name": "D#5",
                    "midi": 75,
                    "time": 311.2662600000002,
                    "velocity": 0.3700787401574803,
                    "duration": 0.13800599999996166
                },
                {
                    "name": "D5",
                    "midi": 74,
                    "time": 311.3917200000002,
                    "velocity": 0.3700787401574803,
                    "duration": 0.13800599999996166
                },
                {
                    "name": "C#5",
                    "midi": 73,
                    "time": 311.51718000000017,
                    "velocity": 0.3700787401574803,
                    "duration": 0.13800599999996166
                },
                {
                    "name": "A#5",
                    "midi": 82,
                    "time": 311.64264000000014,
                    "velocity": 0.5511811023622047,
                    "duration": 0.25091999999995096
                },
                {
                    "name": "D5",
                    "midi": 74,
                    "time": 311.64264000000014,
                    "velocity": 0.4015748031496063,
                    "duration": 0.13800599999996166
                },
                {
                    "name": "F5",
                    "midi": 77,
                    "time": 311.7681000000001,
                    "velocity": 0.41732283464566927,
                    "duration": 0.13800599999996166
                },
                {
                    "name": "G#5",
                    "midi": 80,
                    "time": 311.8935600000001,
                    "velocity": 0.4409448818897638,
                    "duration": 0.13800599999996166
                },
                {
                    "name": "A#5",
                    "midi": 82,
                    "time": 312.01902000000007,
                    "velocity": 0.47244094488188976,
                    "duration": 0.13800599999996166
                },
                {
                    "name": "C7",
                    "midi": 96,
                    "time": 312.14448000000004,
                    "velocity": 0.6062992125984252,
                    "duration": 0.5018399999999588
                },
                {
                    "name": "D6",
                    "midi": 86,
                    "time": 312.14448000000004,
                    "velocity": 0.6062992125984252,
                    "duration": 0.7527599999999666
                },
                {
                    "name": "A#6",
                    "midi": 94,
                    "time": 312.64632,
                    "velocity": 0.6771653543307087,
                    "duration": 0.7527600000000234
                },
                {
                    "name": "A6",
                    "midi": 93,
                    "time": 313.39908,
                    "velocity": 0.5905511811023622,
                    "duration": 0.2509200000000078
                },
                {
                    "name": "G#6",
                    "midi": 92,
                    "time": 313.65000000000003,
                    "velocity": 0.6062992125984252,
                    "duration": 0.2509200000000078
                },
                {
                    "name": "G6",
                    "midi": 91,
                    "time": 313.90092000000004,
                    "velocity": 0.5748031496062992,
                    "duration": 0.2509200000000078
                },
                {
                    "name": "F#6",
                    "midi": 90,
                    "time": 314.15184000000005,
                    "velocity": 0.5433070866141733,
                    "duration": 0.2509200000000078
                },
                {
                    "name": "F6",
                    "midi": 89,
                    "time": 314.40276000000006,
                    "velocity": 0.49606299212598426,
                    "duration": 0.2509200000000078
                },
                {
                    "name": "E6",
                    "midi": 88,
                    "time": 314.65368000000007,
                    "velocity": 0.5511811023622047,
                    "duration": 0.2509200000000078
                },
                {
                    "name": "D#6",
                    "midi": 87,
                    "time": 314.9046000000001,
                    "velocity": 0.5433070866141733,
                    "duration": 0.2509200000000078
                },
                {
                    "name": "D6",
                    "midi": 86,
                    "time": 315.1555200000001,
                    "velocity": 0.5511811023622047,
                    "duration": 0.2509200000000078
                },
                {
                    "name": "C#6",
                    "midi": 85,
                    "time": 315.4064400000001,
                    "velocity": 0.47244094488188976,
                    "duration": 0.2509200000000078
                },
                {
                    "name": "C6",
                    "midi": 84,
                    "time": 315.6573600000001,
                    "velocity": 0.5039370078740157,
                    "duration": 0.2509200000000078
                },
                {
                    "name": "B5",
                    "midi": 83,
                    "time": 315.9082800000001,
                    "velocity": 0.5275590551181102,
                    "duration": 0.2509200000000078
                },
                {
                    "name": "A#5",
                    "midi": 82,
                    "time": 316.1592000000001,
                    "velocity": 0.5590551181102362,
                    "duration": 0.2509200000000078
                },
                {
                    "name": "A5",
                    "midi": 81,
                    "time": 316.4101200000001,
                    "velocity": 0.47244094488188976,
                    "duration": 0.2509200000000078
                },
                {
                    "name": "G#5",
                    "midi": 80,
                    "time": 316.6610400000001,
                    "velocity": 0.5275590551181102,
                    "duration": 0.2509200000000078
                },
                {
                    "name": "G5",
                    "midi": 79,
                    "time": 316.91196000000014,
                    "velocity": 0.4251968503937008,
                    "duration": 0.2509200000000078
                },
                {
                    "name": "F#5",
                    "midi": 78,
                    "time": 317.16288000000014,
                    "velocity": 0.47244094488188976,
                    "duration": 0.2509200000000078
                },
                {
                    "name": "F5",
                    "midi": 77,
                    "time": 317.41380000000015,
                    "velocity": 0.4251968503937008,
                    "duration": 0.2509200000000078
                },
                {
                    "name": "E5",
                    "midi": 76,
                    "time": 317.66472000000016,
                    "velocity": 0.4645669291338583,
                    "duration": 0.2509200000000078
                },
                {
                    "name": "D#5",
                    "midi": 75,
                    "time": 317.91564000000017,
                    "velocity": 0.3937007874015748,
                    "duration": 0.2509200000000078
                },
                {
                    "name": "D5",
                    "midi": 74,
                    "time": 318.1665600000002,
                    "velocity": 0.4645669291338583,
                    "duration": 0.2509200000000078
                },
                {
                    "name": "C#5",
                    "midi": 73,
                    "time": 318.4174800000002,
                    "velocity": 0.36220472440944884,
                    "duration": 0.2509200000000078
                },
                {
                    "name": "C5",
                    "midi": 72,
                    "time": 318.6684000000002,
                    "velocity": 0.41732283464566927,
                    "duration": 0.2509200000000078
                },
                {
                    "name": "B4",
                    "midi": 71,
                    "time": 318.9193200000002,
                    "velocity": 0.36220472440944884,
                    "duration": 0.2509200000000078
                },
                {
                    "name": "C5",
                    "midi": 72,
                    "time": 319.6720800000002,
                    "velocity": 0.4251968503937008,
                    "duration": 0.5018400000000156
                },
                {
                    "name": "D#5",
                    "midi": 75,
                    "time": 320.17392000000024,
                    "velocity": 0.4566929133858268,
                    "duration": 0.5018400000000156
                },
                {
                    "name": "A5",
                    "midi": 81,
                    "time": 320.67576000000025,
                    "velocity": 0.4251968503937008,
                    "duration": 0.5018400000000156
                },
                {
                    "name": "F5",
                    "midi": 77,
                    "time": 321.6794400000003,
                    "velocity": 0.4251968503937008,
                    "duration": 0.5018400000000156
                },
                {
                    "name": "E5",
                    "midi": 76,
                    "time": 322.1812800000003,
                    "velocity": 0.33858267716535434,
                    "duration": 0.5018400000000156
                },
                {
                    "name": "G#4",
                    "midi": 68,
                    "time": 322.6831200000003,
                    "velocity": 0.2677165354330709,
                    "duration": 0.5018400000000156
                },
                {
                    "name": "A5",
                    "midi": 81,
                    "time": 323.18496000000033,
                    "velocity": 0.31496062992125984,
                    "duration": 1.0036800000000312
                },
                {
                    "name": "F5",
                    "midi": 77,
                    "time": 323.18496000000033,
                    "velocity": 0.25196850393700787,
                    "duration": 0.2509200000000078
                },
                {
                    "name": "A4",
                    "midi": 69,
                    "time": 323.43588000000034,
                    "velocity": 0.18110236220472442,
                    "duration": 0.2509200000000078
                },
                {
                    "name": "F5",
                    "midi": 77,
                    "time": 323.68680000000035,
                    "velocity": 0.18110236220472442,
                    "duration": 0.2509200000000078
                },
                {
                    "name": "A4",
                    "midi": 69,
                    "time": 323.93772000000035,
                    "velocity": 0.18110236220472442,
                    "duration": 0.2509200000000078
                },
                {
                    "name": "G5",
                    "midi": 79,
                    "time": 324.18864000000036,
                    "velocity": 0.2755905511811024,
                    "duration": 0.5018400000000156
                },
                {
                    "name": "E5",
                    "midi": 76,
                    "time": 324.18864000000036,
                    "velocity": 0.2755905511811024,
                    "duration": 0.5018400000000156
                },
                {
                    "name": "A5",
                    "midi": 81,
                    "time": 324.6904800000004,
                    "velocity": 0.3228346456692913,
                    "duration": 0.5018400000000156
                },
                {
                    "name": "F5",
                    "midi": 77,
                    "time": 324.6904800000004,
                    "velocity": 0.3228346456692913,
                    "duration": 0.5018400000000156
                },
                {
                    "name": "G5",
                    "midi": 79,
                    "time": 325.1923200000004,
                    "velocity": 0.36220472440944884,
                    "duration": 0.7318500000000085
                },
                {
                    "name": "A#5",
                    "midi": 82,
                    "time": 325.1923200000004,
                    "velocity": 0.36220472440944884,
                    "duration": 0.7527600000000234
                },
                {
                    "name": "E5",
                    "midi": 76,
                    "time": 325.9450800000004,
                    "velocity": 0.30708661417322836,
                    "duration": 0.2509200000000078
                },
                {
                    "name": "G5",
                    "midi": 79,
                    "time": 325.9450800000004,
                    "velocity": 0.30708661417322836,
                    "duration": 0.2509200000000078
                },
                {
                    "name": "C#5",
                    "midi": 73,
                    "time": 326.1960000000004,
                    "velocity": 0.36220472440944884,
                    "duration": 0.5018400000000156
                },
                {
                    "name": "E5",
                    "midi": 76,
                    "time": 326.1960000000004,
                    "velocity": 0.36220472440944884,
                    "duration": 0.5018400000000156
                },
                {
                    "name": "F5",
                    "midi": 77,
                    "time": 326.69784000000044,
                    "velocity": 0.31496062992125984,
                    "duration": 0.5018400000000156
                },
                {
                    "name": "D5",
                    "midi": 74,
                    "time": 326.69784000000044,
                    "velocity": 0.31496062992125984,
                    "duration": 0.5018400000000156
                },
                {
                    "name": "G5",
                    "midi": 79,
                    "time": 327.19968000000046,
                    "velocity": 0.31496062992125984,
                    "duration": 0.5018400000000156
                },
                {
                    "name": "E5",
                    "midi": 76,
                    "time": 327.19968000000046,
                    "velocity": 0.31496062992125984,
                    "duration": 0.5018400000000156
                },
                {
                    "name": "D5",
                    "midi": 74,
                    "time": 327.70152000000047,
                    "velocity": 0.2755905511811024,
                    "duration": 0.5018400000000156
                },
                {
                    "name": "F5",
                    "midi": 77,
                    "time": 327.70152000000047,
                    "velocity": 0.2755905511811024,
                    "duration": 0.5018400000000156
                },
                {
                    "name": "E5",
                    "midi": 76,
                    "time": 328.2033600000005,
                    "velocity": 0.2755905511811024,
                    "duration": 0.5018400000000156
                },
                {
                    "name": "C5",
                    "midi": 72,
                    "time": 328.2033600000005,
                    "velocity": 0.2755905511811024,
                    "duration": 0.5018400000000156
                },
                {
                    "name": "D5",
                    "midi": 74,
                    "time": 328.7052000000005,
                    "velocity": 0.3228346456692913,
                    "duration": 0.5018400000000156
                },
                {
                    "name": "A#4",
                    "midi": 70,
                    "time": 328.7052000000005,
                    "velocity": 0.3228346456692913,
                    "duration": 0.5018400000000156
                },
                {
                    "name": "C#5",
                    "midi": 73,
                    "time": 329.2070400000005,
                    "velocity": 0.36220472440944884,
                    "duration": 0.7527600000000234
                },
                {
                    "name": "A4",
                    "midi": 69,
                    "time": 329.2070400000005,
                    "velocity": 0.1968503937007874,
                    "duration": 0.7527600000000234
                },
                {
                    "name": "B4",
                    "midi": 71,
                    "time": 329.95980000000054,
                    "velocity": 0.30708661417322836,
                    "duration": 0.2509200000000078
                },
                {
                    "name": "D5",
                    "midi": 74,
                    "time": 329.95980000000054,
                    "velocity": 0.30708661417322836,
                    "duration": 0.2509200000000078
                },
                {
                    "name": "C#5",
                    "midi": 73,
                    "time": 330.21072000000055,
                    "velocity": 0.36220472440944884,
                    "duration": 0.5018400000000156
                },
                {
                    "name": "E5",
                    "midi": 76,
                    "time": 330.21072000000055,
                    "velocity": 0.36220472440944884,
                    "duration": 0.5018400000000156
                },
                {
                    "name": "C#6",
                    "midi": 85,
                    "time": 331.2144000000006,
                    "velocity": 0.36220472440944884,
                    "duration": 0.7527600000000234
                },
                {
                    "name": "A5",
                    "midi": 81,
                    "time": 331.2144000000006,
                    "velocity": 0.1968503937007874,
                    "duration": 0.7527600000000234
                },
                {
                    "name": "D6",
                    "midi": 86,
                    "time": 331.9671600000006,
                    "velocity": 0.30708661417322836,
                    "duration": 0.2509200000000078
                },
                {
                    "name": "B5",
                    "midi": 83,
                    "time": 331.9671600000006,
                    "velocity": 0.30708661417322836,
                    "duration": 0.2509200000000078
                },
                {
                    "name": "C#6",
                    "midi": 85,
                    "time": 332.2180800000006,
                    "velocity": 0.36220472440944884,
                    "duration": 0.5018400000000156
                },
                {
                    "name": "E6",
                    "midi": 88,
                    "time": 332.2180800000006,
                    "velocity": 0.36220472440944884,
                    "duration": 0.5018400000000156
                },
                {
                    "name": "C5",
                    "midi": 72,
                    "time": 333.22176000000064,
                    "velocity": 0.3937007874015748,
                    "duration": 0.7527600000000234
                },
                {
                    "name": "A4",
                    "midi": 69,
                    "time": 333.22176000000064,
                    "velocity": 0.18110236220472442,
                    "duration": 0.7527600000000234
                },
                {
                    "name": "D5",
                    "midi": 74,
                    "time": 333.97452000000067,
                    "velocity": 0.33070866141732286,
                    "duration": 0.2509200000000078
                },
                {
                    "name": "B4",
                    "midi": 71,
                    "time": 333.97452000000067,
                    "velocity": 0.28346456692913385,
                    "duration": 0.2509200000000078
                },
                {
                    "name": "C5",
                    "midi": 72,
                    "time": 334.2254400000007,
                    "velocity": 0.33070866141732286,
                    "duration": 1.7564399999999978
                },
                {
                    "name": "E5",
                    "midi": 76,
                    "time": 334.2254400000007,
                    "velocity": 0.3937007874015748,
                    "duration": 1.7564399999999978
                },
                {
                    "name": "D5",
                    "midi": 74,
                    "time": 335.9818800000007,
                    "velocity": 0.31496062992125984,
                    "duration": 0.2509200000000078
                },
                {
                    "name": "F5",
                    "midi": 77,
                    "time": 335.9818800000007,
                    "velocity": 0.3779527559055118,
                    "duration": 0.2509200000000078
                },
                {
                    "name": "E5",
                    "midi": 76,
                    "time": 336.2328000000007,
                    "velocity": 0.36220472440944884,
                    "duration": 1.0036799999999744
                },
                {
                    "name": "G5",
                    "midi": 79,
                    "time": 336.2328000000007,
                    "velocity": 0.44881889763779526,
                    "duration": 1.7564399999999978
                },
                {
                    "name": "D#5",
                    "midi": 75,
                    "time": 337.23648000000065,
                    "velocity": 0.4015748031496063,
                    "duration": 1.0036800000000312
                },
                {
                    "name": "C5",
                    "midi": 72,
                    "time": 337.23648000000065,
                    "velocity": 0.2125984251968504,
                    "duration": 1.0036800000000312
                },
                {
                    "name": "A5",
                    "midi": 81,
                    "time": 337.9892400000007,
                    "velocity": 0.4881889763779528,
                    "duration": 0.2509200000000078
                },
                {
                    "name": "B5",
                    "midi": 83,
                    "time": 338.2401600000007,
                    "velocity": 0.47244094488188976,
                    "duration": 1.7564400000000546
                },
                {
                    "name": "D5",
                    "midi": 74,
                    "time": 338.2401600000007,
                    "velocity": 0.3937007874015748,
                    "duration": 1.0036800000000312
                },
                {
                    "name": "G5",
                    "midi": 79,
                    "time": 338.2401600000007,
                    "velocity": 0.3937007874015748,
                    "duration": 0.9827700000000164
                },
                {
                    "name": "C5",
                    "midi": 72,
                    "time": 339.2438400000007,
                    "velocity": 0.2047244094488189,
                    "duration": 1.0036800000000312
                },
                {
                    "name": "G5",
                    "midi": 79,
                    "time": 339.2438400000007,
                    "velocity": 0.4566929133858268,
                    "duration": 1.0036800000000312
                },
                {
                    "name": "C6",
                    "midi": 84,
                    "time": 339.99660000000074,
                    "velocity": 0.4881889763779528,
                    "duration": 0.2509200000000078
                },
                {
                    "name": "D5",
                    "midi": 74,
                    "time": 340.24752000000075,
                    "velocity": 0.4409448818897638,
                    "duration": 1.0036799999999744
                },
                {
                    "name": "D6",
                    "midi": 86,
                    "time": 340.24752000000075,
                    "velocity": 0.5275590551181102,
                    "duration": 1.7564399999999978
                },
                {
                    "name": "F5",
                    "midi": 77,
                    "time": 340.24752000000075,
                    "velocity": 0.4409448818897638,
                    "duration": 1.0036799999999744
                },
                {
                    "name": "B5",
                    "midi": 83,
                    "time": 340.24752000000075,
                    "velocity": 0.4409448818897638,
                    "duration": 1.0036799999999744
                },
                {
                    "name": "E5",
                    "midi": 76,
                    "time": 341.2512000000007,
                    "velocity": 0.2440944881889764,
                    "duration": 1.0036800000000312
                },
                {
                    "name": "G5",
                    "midi": 79,
                    "time": 341.2512000000007,
                    "velocity": 0.5511811023622047,
                    "duration": 1.0036800000000312
                },
                {
                    "name": "E6",
                    "midi": 88,
                    "time": 342.00396000000075,
                    "velocity": 0.5826771653543307,
                    "duration": 0.2509200000000078
                },
                {
                    "name": "F6",
                    "midi": 89,
                    "time": 342.25488000000075,
                    "velocity": 0.5748031496062992,
                    "duration": 1.2545999999999822
                },
                {
                    "name": "D6",
                    "midi": 86,
                    "time": 342.25488000000075,
                    "velocity": 0.5748031496062992,
                    "duration": 1.2545999999999822
                },
                {
                    "name": "F5",
                    "midi": 77,
                    "time": 342.25488000000075,
                    "velocity": 0.48031496062992124,
                    "duration": 1.2545999999999822
                },
                {
                    "name": "E6",
                    "midi": 88,
                    "time": 343.50948000000074,
                    "velocity": 0.5275590551181102,
                    "duration": 0.2509200000000078
                },
                {
                    "name": "E5",
                    "midi": 76,
                    "time": 343.50948000000074,
                    "velocity": 0.4409448818897638,
                    "duration": 0.2509200000000078
                },
                {
                    "name": "C#6",
                    "midi": 85,
                    "time": 343.50948000000074,
                    "velocity": 0.5275590551181102,
                    "duration": 0.2509200000000078
                },
                {
                    "name": "F6",
                    "midi": 89,
                    "time": 343.76040000000074,
                    "velocity": 0.5669291338582677,
                    "duration": 0.2509200000000078
                },
                {
                    "name": "F5",
                    "midi": 77,
                    "time": 343.76040000000074,
                    "velocity": 0.48031496062992124,
                    "duration": 0.2509200000000078
                },
                {
                    "name": "D6",
                    "midi": 86,
                    "time": 343.76040000000074,
                    "velocity": 0.5669291338582677,
                    "duration": 0.2509200000000078
                },
                {
                    "name": "E6",
                    "midi": 88,
                    "time": 344.01132000000075,
                    "velocity": 0.5275590551181102,
                    "duration": 0.2509200000000078
                },
                {
                    "name": "C#6",
                    "midi": 85,
                    "time": 344.01132000000075,
                    "velocity": 0.5275590551181102,
                    "duration": 0.2509200000000078
                },
                {
                    "name": "E5",
                    "midi": 76,
                    "time": 344.01132000000075,
                    "velocity": 0.4409448818897638,
                    "duration": 0.2509200000000078
                },
                {
                    "name": "F6",
                    "midi": 89,
                    "time": 344.26224000000076,
                    "velocity": 0.5984251968503937,
                    "duration": 0.2509200000000078
                },
                {
                    "name": "F5",
                    "midi": 77,
                    "time": 344.26224000000076,
                    "velocity": 0.5039370078740157,
                    "duration": 0.2509200000000078
                },
                {
                    "name": "D6",
                    "midi": 86,
                    "time": 344.26224000000076,
                    "velocity": 0.5984251968503937,
                    "duration": 0.2509200000000078
                },
                {
                    "name": "C#6",
                    "midi": 85,
                    "time": 344.51316000000077,
                    "velocity": 0.5748031496062992,
                    "duration": 0.2509200000000078
                },
                {
                    "name": "E5",
                    "midi": 76,
                    "time": 344.51316000000077,
                    "velocity": 0.4881889763779528,
                    "duration": 0.2509200000000078
                },
                {
                    "name": "E6",
                    "midi": 88,
                    "time": 344.51316000000077,
                    "velocity": 0.5748031496062992,
                    "duration": 0.2509200000000078
                },
                {
                    "name": "F5",
                    "midi": 77,
                    "time": 344.7640800000008,
                    "velocity": 0.5039370078740157,
                    "duration": 0.2509200000000078
                },
                {
                    "name": "F6",
                    "midi": 89,
                    "time": 344.7640800000008,
                    "velocity": 0.5984251968503937,
                    "duration": 0.2509200000000078
                },
                {
                    "name": "D6",
                    "midi": 86,
                    "time": 344.7640800000008,
                    "velocity": 0.5984251968503937,
                    "duration": 0.2509200000000078
                },
                {
                    "name": "C#6",
                    "midi": 85,
                    "time": 345.0150000000008,
                    "velocity": 0.6377952755905512,
                    "duration": 0.12545999999997548
                },
                {
                    "name": "E6",
                    "midi": 88,
                    "time": 345.0150000000008,
                    "velocity": 0.6377952755905512,
                    "duration": 0.12545999999997548
                },
                {
                    "name": "E5",
                    "midi": 76,
                    "time": 345.0150000000008,
                    "velocity": 0.5354330708661418,
                    "duration": 0.12545999999997548
                },
                {
                    "name": "G6",
                    "midi": 91,
                    "time": 345.26592000000073,
                    "velocity": 0.5748031496062992,
                    "duration": 0.12545999999997548
                },
                {
                    "name": "F6",
                    "midi": 89,
                    "time": 345.26592000000073,
                    "velocity": 0.5748031496062992,
                    "duration": 0.12545999999997548
                },
                {
                    "name": "F7",
                    "midi": 101,
                    "time": 345.26592000000073,
                    "velocity": 0.6771653543307087,
                    "duration": 0.12545999999997548
                },
                {
                    "name": "D7",
                    "midi": 98,
                    "time": 345.3913800000007,
                    "velocity": 0.5905511811023622,
                    "duration": 0.12545999999997548
                },
                {
                    "name": "B6",
                    "midi": 95,
                    "time": 345.5168400000007,
                    "velocity": 0.5984251968503937,
                    "duration": 0.12545999999997548
                },
                {
                    "name": "G6",
                    "midi": 91,
                    "time": 345.64230000000066,
                    "velocity": 0.5748031496062992,
                    "duration": 0.12545999999997548
                },
                {
                    "name": "F6",
                    "midi": 89,
                    "time": 345.76776000000064,
                    "velocity": 0.6771653543307087,
                    "duration": 0.12545999999997548
                },
                {
                    "name": "D6",
                    "midi": 86,
                    "time": 345.8932200000006,
                    "velocity": 0.5669291338582677,
                    "duration": 0.12545999999997548
                },
                {
                    "name": "B5",
                    "midi": 83,
                    "time": 346.0186800000006,
                    "velocity": 0.5984251968503937,
                    "duration": 0.12545999999997548
                },
                {
                    "name": "G5",
                    "midi": 79,
                    "time": 346.14414000000056,
                    "velocity": 0.5433070866141733,
                    "duration": 0.12545999999997548
                },
                {
                    "name": "F6",
                    "midi": 89,
                    "time": 346.26960000000054,
                    "velocity": 0.6771653543307087,
                    "duration": 0.12545999999997548
                },
                {
                    "name": "D6",
                    "midi": 86,
                    "time": 346.3950600000005,
                    "velocity": 0.5905511811023622,
                    "duration": 0.12545999999997548
                },
                {
                    "name": "B5",
                    "midi": 83,
                    "time": 346.5205200000005,
                    "velocity": 0.5984251968503937,
                    "duration": 0.12545999999997548
                },
                {
                    "name": "G5",
                    "midi": 79,
                    "time": 346.64598000000046,
                    "velocity": 0.5748031496062992,
                    "duration": 0.12545999999997548
                },
                {
                    "name": "F5",
                    "midi": 77,
                    "time": 346.77144000000044,
                    "velocity": 0.6771653543307087,
                    "duration": 0.12545999999997548
                },
                {
                    "name": "D5",
                    "midi": 74,
                    "time": 346.8969000000004,
                    "velocity": 0.5669291338582677,
                    "duration": 0.12545999999997548
                },
                {
                    "name": "B4",
                    "midi": 71,
                    "time": 347.0223600000004,
                    "velocity": 0.5984251968503937,
                    "duration": 0.12545999999997548
                },
                {
                    "name": "G4",
                    "midi": 67,
                    "time": 347.14782000000037,
                    "velocity": 0.49606299212598426,
                    "duration": 0.12545999999997548
                },
                {
                    "name": "F5",
                    "midi": 77,
                    "time": 347.27328000000034,
                    "velocity": 0.6220472440944882,
                    "duration": 0.12545999999997548
                },
                {
                    "name": "D5",
                    "midi": 74,
                    "time": 347.3987400000003,
                    "velocity": 0.5039370078740157,
                    "duration": 0.12545999999997548
                },
                {
                    "name": "B4",
                    "midi": 71,
                    "time": 347.5242000000003,
                    "velocity": 0.5748031496062992,
                    "duration": 0.12545999999997548
                },
                {
                    "name": "G4",
                    "midi": 67,
                    "time": 347.64966000000027,
                    "velocity": 0.4645669291338583,
                    "duration": 0.12545999999997548
                },
                {
                    "name": "F4",
                    "midi": 65,
                    "time": 347.77512000000024,
                    "velocity": 0.5275590551181102,
                    "duration": 0.12545999999997548
                },
                {
                    "name": "D4",
                    "midi": 62,
                    "time": 347.9005800000002,
                    "velocity": 0.4566929133858268,
                    "duration": 0.12545999999997548
                },
                {
                    "name": "B3",
                    "midi": 59,
                    "time": 348.0260400000002,
                    "velocity": 0.5275590551181102,
                    "duration": 0.12545999999997548
                },
                {
                    "name": "G3",
                    "midi": 55,
                    "time": 348.15150000000017,
                    "velocity": 0.4409448818897638,
                    "duration": 0.12545999999997548
                },
                {
                    "name": "F4",
                    "midi": 65,
                    "time": 348.27696000000014,
                    "velocity": 0.5118110236220472,
                    "duration": 0.12545999999997548
                },
                {
                    "name": "D4",
                    "midi": 62,
                    "time": 348.4024200000001,
                    "velocity": 0.4094488188976378,
                    "duration": 0.12545999999997548
                },
                {
                    "name": "B3",
                    "midi": 59,
                    "time": 348.5278800000001,
                    "velocity": 0.49606299212598426,
                    "duration": 0.12545999999997548
                },
                {
                    "name": "G3",
                    "midi": 55,
                    "time": 348.65334000000007,
                    "velocity": 0.36220472440944884,
                    "duration": 0.12545999999997548
                },
                {
                    "name": "F3",
                    "midi": 53,
                    "time": 348.77880000000005,
                    "velocity": 0.4566929133858268,
                    "duration": 0.12545999999997548
                },
                {
                    "name": "D3",
                    "midi": 50,
                    "time": 348.90426,
                    "velocity": 0.3700787401574803,
                    "duration": 0.12545999999997548
                },
                {
                    "name": "B2",
                    "midi": 47,
                    "time": 349.02972,
                    "velocity": 0.44881889763779526,
                    "duration": 0.12545999999997548
                },
                {
                    "name": "G2",
                    "midi": 43,
                    "time": 349.15518,
                    "velocity": 0.36220472440944884,
                    "duration": 0.12545999999997548
                },
                {
                    "name": "G5",
                    "midi": 79,
                    "time": 351.28799999999995,
                    "velocity": 0.4094488188976378,
                    "duration": 1.0036799999999744
                },
                {
                    "name": "F5",
                    "midi": 77,
                    "time": 352.29167999999993,
                    "velocity": 0.4094488188976378,
                    "duration": 0.5018400000000156
                },
                {
                    "name": "G5",
                    "midi": 79,
                    "time": 352.79351999999994,
                    "velocity": 0.4330708661417323,
                    "duration": 0.5018400000000156
                },
                {
                    "name": "G#5",
                    "midi": 80,
                    "time": 353.29535999999996,
                    "velocity": 0.4566929133858268,
                    "duration": 0.7527600000000234
                },
                {
                    "name": "F5",
                    "midi": 77,
                    "time": 354.04812,
                    "velocity": 0.3937007874015748,
                    "duration": 0.2509200000000078
                },
                {
                    "name": "D5",
                    "midi": 74,
                    "time": 354.29904,
                    "velocity": 0.44881889763779526,
                    "duration": 0.5018400000000156
                },
                {
                    "name": "D#5",
                    "midi": 75,
                    "time": 354.80088,
                    "velocity": 0.3700787401574803,
                    "duration": 0.5018400000000156
                },
                {
                    "name": "D5",
                    "midi": 74,
                    "time": 355.30272,
                    "velocity": 0.36220472440944884,
                    "duration": 0.5018400000000156
                },
                {
                    "name": "F5",
                    "midi": 77,
                    "time": 355.30272,
                    "velocity": 0.4330708661417323,
                    "duration": 0.5018400000000156
                },
                {
                    "name": "C5",
                    "midi": 72,
                    "time": 355.80456000000004,
                    "velocity": 0.31496062992125984,
                    "duration": 0.5018400000000156
                },
                {
                    "name": "D#5",
                    "midi": 75,
                    "time": 355.80456000000004,
                    "velocity": 0.3779527559055118,
                    "duration": 0.5018400000000156
                },
                {
                    "name": "A#4",
                    "midi": 70,
                    "time": 356.30640000000005,
                    "velocity": 0.31496062992125984,
                    "duration": 0.5018400000000156
                },
                {
                    "name": "D5",
                    "midi": 74,
                    "time": 356.30640000000005,
                    "velocity": 0.3779527559055118,
                    "duration": 0.5018400000000156
                },
                {
                    "name": "C5",
                    "midi": 72,
                    "time": 356.80824000000007,
                    "velocity": 0.33858267716535434,
                    "duration": 0.5018400000000156
                },
                {
                    "name": "G#4",
                    "midi": 68,
                    "time": 356.80824000000007,
                    "velocity": 0.28346456692913385,
                    "duration": 0.5018400000000156
                },
                {
                    "name": "B4",
                    "midi": 71,
                    "time": 357.3100800000001,
                    "velocity": 0.3858267716535433,
                    "duration": 0.7527600000000234
                },
                {
                    "name": "A4",
                    "midi": 69,
                    "time": 358.0628400000001,
                    "velocity": 0.30708661417322836,
                    "duration": 0.2509200000000078
                },
                {
                    "name": "C5",
                    "midi": 72,
                    "time": 358.0628400000001,
                    "velocity": 0.3700787401574803,
                    "duration": 0.2509200000000078
                },
                {
                    "name": "D5",
                    "midi": 74,
                    "time": 358.3137600000001,
                    "velocity": 0.4251968503937008,
                    "duration": 0.5018400000000156
                },
                {
                    "name": "B4",
                    "midi": 71,
                    "time": 358.3137600000001,
                    "velocity": 0.3543307086614173,
                    "duration": 0.5018400000000156
                },
                {
                    "name": "D#5",
                    "midi": 75,
                    "time": 359.31744000000015,
                    "velocity": 0.36220472440944884,
                    "duration": 0.7527600000000234
                },
                {
                    "name": "G5",
                    "midi": 79,
                    "time": 359.31744000000015,
                    "velocity": 0.4330708661417323,
                    "duration": 0.7527600000000234
                },
                {
                    "name": "D5",
                    "midi": 74,
                    "time": 360.07020000000017,
                    "velocity": 0.3464566929133858,
                    "duration": 0.7527600000000234
                },
                {
                    "name": "F5",
                    "midi": 77,
                    "time": 360.07020000000017,
                    "velocity": 0.4094488188976378,
                    "duration": 0.7527600000000234
                },
                {
                    "name": "D#5",
                    "midi": 75,
                    "time": 360.8229600000002,
                    "velocity": 0.36220472440944884,
                    "duration": 0.5018400000000156
                },
                {
                    "name": "G5",
                    "midi": 79,
                    "time": 360.8229600000002,
                    "velocity": 0.4330708661417323,
                    "duration": 0.5018400000000156
                },
                {
                    "name": "A#5",
                    "midi": 82,
                    "time": 361.3248000000002,
                    "velocity": 0.5039370078740157,
                    "duration": 0.7527600000000234
                },
                {
                    "name": "D#5",
                    "midi": 75,
                    "time": 361.3248000000002,
                    "velocity": 0.4251968503937008,
                    "duration": 1.0036800000000312
                },
                {
                    "name": "G#5",
                    "midi": 80,
                    "time": 362.07756000000023,
                    "velocity": 0.4409448818897638,
                    "duration": 0.2509200000000078
                },
                {
                    "name": "D5",
                    "midi": 74,
                    "time": 362.32848000000024,
                    "velocity": 0.4094488188976378,
                    "duration": 0.4767479999999864
                },
                {
                    "name": "F5",
                    "midi": 77,
                    "time": 362.32848000000024,
                    "velocity": 0.4881889763779528,
                    "duration": 0.4767479999999864
                },
                {
                    "name": "F5",
                    "midi": 77,
                    "time": 362.8303200000002,
                    "velocity": 0.36220472440944884,
                    "duration": 0.5018400000000156
                },
                {
                    "name": "G#5",
                    "midi": 80,
                    "time": 362.8303200000002,
                    "velocity": 0.4330708661417323,
                    "duration": 0.5018400000000156
                },
                {
                    "name": "G5",
                    "midi": 79,
                    "time": 363.3321600000002,
                    "velocity": 0.4881889763779528,
                    "duration": 0.4767479999999864
                },
                {
                    "name": "D#5",
                    "midi": 75,
                    "time": 363.3321600000002,
                    "velocity": 0.4094488188976378,
                    "duration": 0.4767479999999864
                },
                {
                    "name": "D#5",
                    "midi": 75,
                    "time": 363.8340000000002,
                    "velocity": 0.3779527559055118,
                    "duration": 0.4767479999999864
                },
                {
                    "name": "C5",
                    "midi": 72,
                    "time": 363.8340000000002,
                    "velocity": 0.31496062992125984,
                    "duration": 0.4767479999999864
                },
                {
                    "name": "F5",
                    "midi": 77,
                    "time": 364.33584000000013,
                    "velocity": 0.44881889763779526,
                    "duration": 0.4767479999999864
                },
                {
                    "name": "D5",
                    "midi": 74,
                    "time": 364.33584000000013,
                    "velocity": 0.3779527559055118,
                    "duration": 0.4767479999999864
                },
                {
                    "name": "D5",
                    "midi": 74,
                    "time": 364.8376800000001,
                    "velocity": 0.3858267716535433,
                    "duration": 0.5018400000000156
                },
                {
                    "name": "B4",
                    "midi": 71,
                    "time": 364.8376800000001,
                    "velocity": 0.3228346456692913,
                    "duration": 0.5018400000000156
                },
                {
                    "name": "D#5",
                    "midi": 75,
                    "time": 365.3395200000001,
                    "velocity": 0.3858267716535433,
                    "duration": 1.0036800000000312
                },
                {
                    "name": "C5",
                    "midi": 72,
                    "time": 365.3395200000001,
                    "velocity": 0.31496062992125984,
                    "duration": 0.2509200000000078
                },
                {
                    "name": "G4",
                    "midi": 67,
                    "time": 365.5904400000001,
                    "velocity": 0.2755905511811024,
                    "duration": 0.2509200000000078
                },
                {
                    "name": "C5",
                    "midi": 72,
                    "time": 365.8413600000001,
                    "velocity": 0.31496062992125984,
                    "duration": 0.2509200000000078
                },
                {
                    "name": "G4",
                    "midi": 67,
                    "time": 366.09228000000013,
                    "velocity": 0.28346456692913385,
                    "duration": 0.2509200000000078
                },
                {
                    "name": "G#4",
                    "midi": 68,
                    "time": 366.34320000000014,
                    "velocity": 0.31496062992125984,
                    "duration": 0.2509200000000078
                },
                {
                    "name": "C#5",
                    "midi": 73,
                    "time": 366.34320000000014,
                    "velocity": 0.3858267716535433,
                    "duration": 1.0036800000000312
                },
                {
                    "name": "F4",
                    "midi": 65,
                    "time": 366.59412000000015,
                    "velocity": 0.2677165354330709,
                    "duration": 0.2509200000000078
                },
                {
                    "name": "G#4",
                    "midi": 68,
                    "time": 366.84504000000015,
                    "velocity": 0.31496062992125984,
                    "duration": 0.2509200000000078
                },
                {
                    "name": "F4",
                    "midi": 65,
                    "time": 367.09596000000016,
                    "velocity": 0.25984251968503935,
                    "duration": 0.2509200000000078
                },
                {
                    "name": "B4",
                    "midi": 71,
                    "time": 367.34688000000017,
                    "velocity": 0.3858267716535433,
                    "duration": 1.0036800000000312
                },
                {
                    "name": "G4",
                    "midi": 67,
                    "time": 367.34688000000017,
                    "velocity": 0.31496062992125984,
                    "duration": 0.2509200000000078
                },
                {
                    "name": "B3",
                    "midi": 59,
                    "time": 367.5978000000002,
                    "velocity": 0.25196850393700787,
                    "duration": 0.2509200000000078
                },
                {
                    "name": "G4",
                    "midi": 67,
                    "time": 367.8487200000002,
                    "velocity": 0.31496062992125984,
                    "duration": 0.2509200000000078
                },
                {
                    "name": "B3",
                    "midi": 59,
                    "time": 368.0996400000002,
                    "velocity": 0.2755905511811024,
                    "duration": 0.2509200000000078
                },
                {
                    "name": "G4",
                    "midi": 67,
                    "time": 368.3505600000002,
                    "velocity": 0.31496062992125984,
                    "duration": 0.2509200000000078
                },
                {
                    "name": "B3",
                    "midi": 59,
                    "time": 368.6014800000002,
                    "velocity": 0.28346456692913385,
                    "duration": 0.2509200000000078
                },
                {
                    "name": "G3",
                    "midi": 55,
                    "time": 368.8524000000002,
                    "velocity": 0.31496062992125984,
                    "duration": 0.5018400000000156
                },
                {
                    "name": "C5",
                    "midi": 72,
                    "time": 369.35424000000023,
                    "velocity": 0.31496062992125984,
                    "duration": 0.3335144999999784
                },
                {
                    "name": "D#5",
                    "midi": 75,
                    "time": 369.35424000000023,
                    "velocity": 0.3858267716535433,
                    "duration": 1.0036799999999744
                },
                {
                    "name": "G4",
                    "midi": 67,
                    "time": 369.6888000000002,
                    "velocity": 0.2755905511811024,
                    "duration": 0.3345600000000104
                },
                {
                    "name": "C5",
                    "midi": 72,
                    "time": 370.0233600000002,
                    "velocity": 0.31496062992125984,
                    "duration": 0.3345600000000104
                },
                {
                    "name": "C#5",
                    "midi": 73,
                    "time": 370.3579200000002,
                    "velocity": 0.3858267716535433,
                    "duration": 1.0036799999999744
                },
                {
                    "name": "G#4",
                    "midi": 68,
                    "time": 370.3579200000002,
                    "velocity": 0.31496062992125984,
                    "duration": 0.3335144999999784
                },
                {
                    "name": "F4",
                    "midi": 65,
                    "time": 370.69248000000016,
                    "velocity": 0.2677165354330709,
                    "duration": 0.3345600000000104
                },
                {
                    "name": "G#4",
                    "midi": 68,
                    "time": 371.02704000000017,
                    "velocity": 0.31496062992125984,
                    "duration": 0.3345600000000104
                },
                {
                    "name": "B4",
                    "midi": 71,
                    "time": 371.3616000000002,
                    "velocity": 0.3858267716535433,
                    "duration": 1.0036799999999744
                },
                {
                    "name": "G4",
                    "midi": 67,
                    "time": 371.3616000000002,
                    "velocity": 0.31496062992125984,
                    "duration": 0.3335144999999784
                },
                {
                    "name": "B3",
                    "midi": 59,
                    "time": 371.69616000000013,
                    "velocity": 0.25196850393700787,
                    "duration": 0.3345600000000104
                },
                {
                    "name": "G4",
                    "midi": 67,
                    "time": 372.03072000000014,
                    "velocity": 0.31496062992125984,
                    "duration": 0.3345600000000104
                },
                {
                    "name": "G3",
                    "midi": 55,
                    "time": 372.36528000000015,
                    "velocity": 0.31496062992125984,
                    "duration": 0.2509200000000078
                },
                {
                    "name": "D#5",
                    "midi": 75,
                    "time": 373.3689600000002,
                    "velocity": 0.4881889763779528,
                    "duration": 0.2258279999999786
                },
                {
                    "name": "A#5",
                    "midi": 82,
                    "time": 373.3689600000002,
                    "velocity": 0.5748031496062992,
                    "duration": 0.2258279999999786
                },
                {
                    "name": "A#4",
                    "midi": 70,
                    "time": 373.3689600000002,
                    "velocity": 0.4881889763779528,
                    "duration": 0.2258279999999786
                },
                {
                    "name": "A#4",
                    "midi": 70,
                    "time": 373.61988000000014,
                    "velocity": 0.4645669291338583,
                    "duration": 0.4767479999999864
                },
                {
                    "name": "A#5",
                    "midi": 82,
                    "time": 373.61988000000014,
                    "velocity": 0.5511811023622047,
                    "duration": 0.4767479999999864
                },
                {
                    "name": "D#5",
                    "midi": 75,
                    "time": 373.61988000000014,
                    "velocity": 0.4645669291338583,
                    "duration": 0.4767479999999864
                },
                {
                    "name": "D#5",
                    "midi": 75,
                    "time": 374.1217200000001,
                    "velocity": 0.4566929133858268,
                    "duration": 0.4767479999999864
                },
                {
                    "name": "A#4",
                    "midi": 70,
                    "time": 374.1217200000001,
                    "velocity": 0.4566929133858268,
                    "duration": 0.4767479999999864
                },
                {
                    "name": "A#5",
                    "midi": 82,
                    "time": 374.1217200000001,
                    "velocity": 0.5354330708661418,
                    "duration": 0.4767479999999864
                },
                {
                    "name": "G#5",
                    "midi": 80,
                    "time": 374.62356000000005,
                    "velocity": 0.5748031496062992,
                    "duration": 0.4767479999999864
                },
                {
                    "name": "A#5",
                    "midi": 82,
                    "time": 374.62356000000005,
                    "velocity": 0.5748031496062992,
                    "duration": 0.4767479999999864
                },
                {
                    "name": "A#4",
                    "midi": 70,
                    "time": 374.62356000000005,
                    "velocity": 0.4881889763779528,
                    "duration": 0.4767479999999864
                },
                {
                    "name": "D5",
                    "midi": 74,
                    "time": 374.62356000000005,
                    "velocity": 0.4881889763779528,
                    "duration": 0.4767479999999864
                },
                {
                    "name": "A#4",
                    "midi": 70,
                    "time": 375.1254,
                    "velocity": 0.4566929133858268,
                    "duration": 0.4767479999999864
                },
                {
                    "name": "A#5",
                    "midi": 82,
                    "time": 375.1254,
                    "velocity": 0.5433070866141733,
                    "duration": 0.4767479999999864
                },
                {
                    "name": "G5",
                    "midi": 79,
                    "time": 375.1254,
                    "velocity": 0.5433070866141733,
                    "duration": 0.4767479999999864
                },
                {
                    "name": "D#5",
                    "midi": 75,
                    "time": 375.1254,
                    "velocity": 0.4566929133858268,
                    "duration": 0.4767479999999864
                },
                {
                    "name": "A#4",
                    "midi": 70,
                    "time": 375.62724,
                    "velocity": 0.4566929133858268,
                    "duration": 0.4767479999999864
                },
                {
                    "name": "F5",
                    "midi": 77,
                    "time": 375.62724,
                    "velocity": 0.4566929133858268,
                    "duration": 0.4767479999999864
                },
                {
                    "name": "A#5",
                    "midi": 82,
                    "time": 375.62724,
                    "velocity": 0.5433070866141733,
                    "duration": 0.4767479999999864
                },
                {
                    "name": "D5",
                    "midi": 74,
                    "time": 375.62724,
                    "velocity": 0.4566929133858268,
                    "duration": 0.4767479999999864
                },
                {
                    "name": "D5",
                    "midi": 74,
                    "time": 376.12907999999993,
                    "velocity": 0.4409448818897638,
                    "duration": 0.4767479999999864
                },
                {
                    "name": "A#4",
                    "midi": 70,
                    "time": 376.12907999999993,
                    "velocity": 0.4409448818897638,
                    "duration": 0.4767479999999864
                },
                {
                    "name": "G#5",
                    "midi": 80,
                    "time": 376.12907999999993,
                    "velocity": 0.5275590551181102,
                    "duration": 0.4767479999999864
                },
                {
                    "name": "A#5",
                    "midi": 82,
                    "time": 376.12907999999993,
                    "velocity": 0.5275590551181102,
                    "duration": 0.4767479999999864
                },
                {
                    "name": "F5",
                    "midi": 77,
                    "time": 376.6309199999999,
                    "velocity": 0.49606299212598426,
                    "duration": 0.4767479999999864
                },
                {
                    "name": "A#4",
                    "midi": 70,
                    "time": 376.6309199999999,
                    "velocity": 0.49606299212598426,
                    "duration": 0.4767479999999864
                },
                {
                    "name": "A#5",
                    "midi": 82,
                    "time": 376.6309199999999,
                    "velocity": 0.5905511811023622,
                    "duration": 0.4767479999999864
                },
                {
                    "name": "G#5",
                    "midi": 80,
                    "time": 376.6309199999999,
                    "velocity": 0.5905511811023622,
                    "duration": 0.4767479999999864
                },
                {
                    "name": "G5",
                    "midi": 79,
                    "time": 377.13275999999985,
                    "velocity": 0.5196850393700787,
                    "duration": 0.4767479999999864
                },
                {
                    "name": "D#5",
                    "midi": 75,
                    "time": 377.13275999999985,
                    "velocity": 0.4409448818897638,
                    "duration": 0.4767479999999864
                },
                {
                    "name": "A#5",
                    "midi": 82,
                    "time": 377.13275999999985,
                    "velocity": 0.5196850393700787,
                    "duration": 0.4767479999999864
                },
                {
                    "name": "A#4",
                    "midi": 70,
                    "time": 377.13275999999985,
                    "velocity": 0.4409448818897638,
                    "duration": 0.4767479999999864
                },
                {
                    "name": "G#5",
                    "midi": 80,
                    "time": 377.6345999999998,
                    "velocity": 0.6771653543307087,
                    "duration": 0.4767479999999864
                },
                {
                    "name": "D5",
                    "midi": 74,
                    "time": 377.6345999999998,
                    "velocity": 0.5748031496062992,
                    "duration": 0.4767479999999864
                },
                {
                    "name": "A#5",
                    "midi": 82,
                    "time": 377.6345999999998,
                    "velocity": 0.6771653543307087,
                    "duration": 0.4767479999999864
                },
                {
                    "name": "D6",
                    "midi": 86,
                    "time": 377.6345999999998,
                    "velocity": 0.6771653543307087,
                    "duration": 0.4767479999999864
                },
                {
                    "name": "D#5",
                    "midi": 75,
                    "time": 378.13643999999977,
                    "velocity": 0.5669291338582677,
                    "duration": 0.4767479999999864
                },
                {
                    "name": "A#5",
                    "midi": 82,
                    "time": 378.13643999999977,
                    "velocity": 0.5669291338582677,
                    "duration": 0.4767479999999864
                },
                {
                    "name": "D#6",
                    "midi": 87,
                    "time": 378.13643999999977,
                    "velocity": 0.6771653543307087,
                    "duration": 0.4767479999999864
                },
                {
                    "name": "G5",
                    "midi": 79,
                    "time": 378.13643999999977,
                    "velocity": 0.5669291338582677,
                    "duration": 0.4767479999999864
                },
                {
                    "name": "G#5",
                    "midi": 80,
                    "time": 378.6382799999997,
                    "velocity": 0.6062992125984252,
                    "duration": 0.4767479999999864
                },
                {
                    "name": "F5",
                    "midi": 77,
                    "time": 378.6382799999997,
                    "velocity": 0.6062992125984252,
                    "duration": 0.4767479999999864
                },
                {
                    "name": "F6",
                    "midi": 89,
                    "time": 378.6382799999997,
                    "velocity": 0.7165354330708661,
                    "duration": 0.4767479999999864
                },
                {
                    "name": "A#5",
                    "midi": 82,
                    "time": 378.6382799999997,
                    "velocity": 0.6062992125984252,
                    "duration": 0.4767479999999864
                },
                {
                    "name": "D#6",
                    "midi": 87,
                    "time": 379.1401199999997,
                    "velocity": 0.7480314960629921,
                    "duration": 0.2509200000000078
                },
                {
                    "name": "G5",
                    "midi": 79,
                    "time": 379.1401199999997,
                    "velocity": 0.6299212598425197,
                    "duration": 0.2509200000000078
                },
                {
                    "name": "G6",
                    "midi": 91,
                    "time": 379.1401199999997,
                    "velocity": 0.7480314960629921,
                    "duration": 0.2509200000000078
                },
                {
                    "name": "F6",
                    "midi": 89,
                    "time": 379.3910399999997,
                    "velocity": 0.7874015748031497,
                    "duration": 0.2258279999999786
                },
                {
                    "name": "G#6",
                    "midi": 92,
                    "time": 379.3910399999997,
                    "velocity": 0.7874015748031497,
                    "duration": 0.2258279999999786
                },
                {
                    "name": "G#5",
                    "midi": 80,
                    "time": 379.3910399999997,
                    "velocity": 0.6692913385826772,
                    "duration": 0.2258279999999786
                },
                {
                    "name": "D6",
                    "midi": 86,
                    "time": 379.3910399999997,
                    "velocity": 0.6692913385826772,
                    "duration": 0.2258279999999786
                },
                {
                    "name": "G#5",
                    "midi": 80,
                    "time": 379.64195999999964,
                    "velocity": 0.6377952755905512,
                    "duration": 0.4767479999999864
                },
                {
                    "name": "G#6",
                    "midi": 92,
                    "time": 379.64195999999964,
                    "velocity": 0.7480314960629921,
                    "duration": 0.4767479999999864
                },
                {
                    "name": "F6",
                    "midi": 89,
                    "time": 379.64195999999964,
                    "velocity": 0.7480314960629921,
                    "duration": 0.4767479999999864
                },
                {
                    "name": "D6",
                    "midi": 86,
                    "time": 379.64195999999964,
                    "velocity": 0.6377952755905512,
                    "duration": 0.4767479999999864
                },
                {
                    "name": "G#5",
                    "midi": 80,
                    "time": 380.1437999999996,
                    "velocity": 0.6299212598425197,
                    "duration": 0.4767479999999864
                },
                {
                    "name": "F6",
                    "midi": 89,
                    "time": 380.1437999999996,
                    "velocity": 0.7480314960629921,
                    "duration": 0.4767479999999864
                },
                {
                    "name": "G#6",
                    "midi": 92,
                    "time": 380.1437999999996,
                    "velocity": 0.7480314960629921,
                    "duration": 0.4767479999999864
                },
                {
                    "name": "D6",
                    "midi": 86,
                    "time": 380.1437999999996,
                    "velocity": 0.6299212598425197,
                    "duration": 0.4767479999999864
                },
                {
                    "name": "D6",
                    "midi": 86,
                    "time": 380.64563999999956,
                    "velocity": 0.6535433070866141,
                    "duration": 0.4767479999999864
                },
                {
                    "name": "G#5",
                    "midi": 80,
                    "time": 380.64563999999956,
                    "velocity": 0.6535433070866141,
                    "duration": 0.4767479999999864
                },
                {
                    "name": "G#6",
                    "midi": 92,
                    "time": 380.64563999999956,
                    "velocity": 0.7716535433070866,
                    "duration": 0.4767479999999864
                },
                {
                    "name": "F6",
                    "midi": 89,
                    "time": 380.64563999999956,
                    "velocity": 0.7716535433070866,
                    "duration": 0.4767479999999864
                },
                {
                    "name": "D6",
                    "midi": 86,
                    "time": 381.1474799999995,
                    "velocity": 0.6692913385826772,
                    "duration": 0.18819000000002006
                },
                {
                    "name": "A5",
                    "midi": 81,
                    "time": 381.1474799999995,
                    "velocity": 0.6692913385826772,
                    "duration": 0.18819000000002006
                },
                {
                    "name": "A6",
                    "midi": 93,
                    "time": 381.1474799999995,
                    "velocity": 0.7874015748031497,
                    "duration": 0.18819000000002006
                },
                {
                    "name": "F6",
                    "midi": 89,
                    "time": 381.1474799999995,
                    "velocity": 0.7874015748031497,
                    "duration": 0.18819000000002006
                },
                {
                    "name": "A#6",
                    "midi": 94,
                    "time": 381.3983999999995,
                    "velocity": 0.8818897637795275,
                    "duration": 0.9827700000000164
                },
                {
                    "name": "D6",
                    "midi": 86,
                    "time": 381.3983999999995,
                    "velocity": 0.7244094488188977,
                    "duration": 0.9827700000000164
                },
                {
                    "name": "A#5",
                    "midi": 82,
                    "time": 381.3983999999995,
                    "velocity": 0.7244094488188977,
                    "duration": 0.9827700000000164
                },
                {
                    "name": "F6",
                    "midi": 89,
                    "time": 381.3983999999995,
                    "velocity": 0.7244094488188977,
                    "duration": 0.9827700000000164
                },
                {
                    "name": "F6",
                    "midi": 89,
                    "time": 382.40207999999956,
                    "velocity": 0.6299212598425197,
                    "duration": 0.5018400000000156
                },
                {
                    "name": "G#6",
                    "midi": 92,
                    "time": 382.40207999999956,
                    "velocity": 0.7480314960629921,
                    "duration": 0.5018400000000156
                },
                {
                    "name": "D6",
                    "midi": 86,
                    "time": 382.40207999999956,
                    "velocity": 0.6299212598425197,
                    "duration": 0.5018400000000156
                },
                {
                    "name": "G#5",
                    "midi": 80,
                    "time": 382.40207999999956,
                    "velocity": 0.6299212598425197,
                    "duration": 0.5018400000000156
                },
                {
                    "name": "F6",
                    "midi": 89,
                    "time": 382.9039199999996,
                    "velocity": 0.6692913385826772,
                    "duration": 0.5018400000000156
                },
                {
                    "name": "A#6",
                    "midi": 94,
                    "time": 382.9039199999996,
                    "velocity": 0.7952755905511811,
                    "duration": 0.5018400000000156
                },
                {
                    "name": "A#5",
                    "midi": 82,
                    "time": 382.9039199999996,
                    "velocity": 0.6692913385826772,
                    "duration": 0.5018400000000156
                },
                {
                    "name": "D6",
                    "midi": 86,
                    "time": 382.9039199999996,
                    "velocity": 0.6692913385826772,
                    "duration": 0.5018400000000156
                },
                {
                    "name": "D#6",
                    "midi": 87,
                    "time": 383.4057599999996,
                    "velocity": 0.7086614173228346,
                    "duration": 0.7527600000000234
                },
                {
                    "name": "G#6",
                    "midi": 92,
                    "time": 383.4057599999996,
                    "velocity": 0.7086614173228346,
                    "duration": 0.7318500000000085
                },
                {
                    "name": "B5",
                    "midi": 83,
                    "time": 383.4057599999996,
                    "velocity": 0.7086614173228346,
                    "duration": 0.7527600000000234
                },
                {
                    "name": "B6",
                    "midi": 95,
                    "time": 383.4057599999996,
                    "velocity": 0.8503937007874016,
                    "duration": 0.7527600000000234
                },
                {
                    "name": "G#5",
                    "midi": 80,
                    "time": 384.1585199999996,
                    "velocity": 0.6377952755905512,
                    "duration": 0.2509200000000078
                },
                {
                    "name": "G#6",
                    "midi": 92,
                    "time": 384.1585199999996,
                    "velocity": 0.7559055118110236,
                    "duration": 0.2509200000000078
                },
                {
                    "name": "D#5",
                    "midi": 75,
                    "time": 384.4094399999996,
                    "velocity": 0.6929133858267716,
                    "duration": 0.5018400000000156
                },
                {
                    "name": "D#6",
                    "midi": 87,
                    "time": 384.4094399999996,
                    "velocity": 0.8188976377952756,
                    "duration": 0.5018400000000156
                },
                {
                    "name": "D#6",
                    "midi": 87,
                    "time": 384.91127999999964,
                    "velocity": 0.6535433070866141,
                    "duration": 0.4767479999999864
                },
                {
                    "name": "B5",
                    "midi": 83,
                    "time": 384.91127999999964,
                    "velocity": 0.6535433070866141,
                    "duration": 0.4767479999999864
                },
                {
                    "name": "B6",
                    "midi": 95,
                    "time": 384.91127999999964,
                    "velocity": 0.7716535433070866,
                    "duration": 0.4767479999999864
                },
                {
                    "name": "G#6",
                    "midi": 92,
                    "time": 384.91127999999964,
                    "velocity": 0.6535433070866141,
                    "duration": 0.4767479999999864
                },
                {
                    "name": "C6",
                    "midi": 84,
                    "time": 385.4131199999996,
                    "velocity": 0.7244094488188977,
                    "duration": 1.0036799999999744
                },
                {
                    "name": "C7",
                    "midi": 96,
                    "time": 385.4131199999996,
                    "velocity": 0.8818897637795275,
                    "duration": 1.0036799999999744
                },
                {
                    "name": "G#6",
                    "midi": 92,
                    "time": 385.4131199999996,
                    "velocity": 0.7244094488188977,
                    "duration": 1.0036799999999744
                },
                {
                    "name": "D#6",
                    "midi": 87,
                    "time": 385.4204384999996,
                    "velocity": 0.7244094488188977,
                    "duration": 1.0036799999999744
                },
                {
                    "name": "A#6",
                    "midi": 94,
                    "time": 386.41679999999957,
                    "velocity": 0.7480314960629921,
                    "duration": 0.4767479999999864
                },
                {
                    "name": "A#5",
                    "midi": 82,
                    "time": 386.41679999999957,
                    "velocity": 0.6299212598425197,
                    "duration": 0.4767479999999864
                },
                {
                    "name": "D#6",
                    "midi": 87,
                    "time": 386.41679999999957,
                    "velocity": 0.6299212598425197,
                    "duration": 0.4767479999999864
                },
                {
                    "name": "D#6",
                    "midi": 87,
                    "time": 386.9186399999995,
                    "velocity": 0.6692913385826772,
                    "duration": 0.4767479999999864
                },
                {
                    "name": "G#6",
                    "midi": 92,
                    "time": 386.9186399999995,
                    "velocity": 0.6692913385826772,
                    "duration": 0.4767479999999864
                },
                {
                    "name": "C6",
                    "midi": 84,
                    "time": 386.9186399999995,
                    "velocity": 0.6692913385826772,
                    "duration": 0.4767479999999864
                },
                {
                    "name": "C7",
                    "midi": 96,
                    "time": 386.9186399999995,
                    "velocity": 0.7952755905511811,
                    "duration": 0.4767479999999864
                },
                {
                    "name": "C#6",
                    "midi": 85,
                    "time": 387.4204799999995,
                    "velocity": 0.7086614173228346,
                    "duration": 0.7527600000000234
                },
                {
                    "name": "G#6",
                    "midi": 92,
                    "time": 387.4204799999995,
                    "velocity": 0.7086614173228346,
                    "duration": 0.7318500000000085
                },
                {
                    "name": "C#7",
                    "midi": 97,
                    "time": 387.4204799999995,
                    "velocity": 0.8503937007874016,
                    "duration": 0.7527600000000234
                },
                {
                    "name": "G#6",
                    "midi": 92,
                    "time": 388.1732399999995,
                    "velocity": 0.7559055118110236,
                    "duration": 0.2509200000000078
                },
                {
                    "name": "G#5",
                    "midi": 80,
                    "time": 388.1732399999995,
                    "velocity": 0.6377952755905512,
                    "duration": 0.2509200000000078
                },
                {
                    "name": "F5",
                    "midi": 77,
                    "time": 388.4241599999995,
                    "velocity": 0.6929133858267716,
                    "duration": 0.5018400000000156
                },
                {
                    "name": "F6",
                    "midi": 89,
                    "time": 388.4241599999995,
                    "velocity": 0.8188976377952756,
                    "duration": 0.5018400000000156
                },
                {
                    "name": "C#7",
                    "midi": 97,
                    "time": 388.92599999999953,
                    "velocity": 0.7716535433070866,
                    "duration": 0.4767479999999864
                },
                {
                    "name": "G#6",
                    "midi": 92,
                    "time": 388.92599999999953,
                    "velocity": 0.6535433070866141,
                    "duration": 0.4767479999999864
                },
                {
                    "name": "C#6",
                    "midi": 85,
                    "time": 388.92599999999953,
                    "velocity": 0.6535433070866141,
                    "duration": 0.4767479999999864
                },
                {
                    "name": "B6",
                    "midi": 95,
                    "time": 389.4278399999995,
                    "velocity": 0.6929133858267716,
                    "duration": 1.0036799999999744
                },
                {
                    "name": "D6",
                    "midi": 86,
                    "time": 389.4278399999995,
                    "velocity": 0.6929133858267716,
                    "duration": 1.0036799999999744
                },
                {
                    "name": "G#6",
                    "midi": 92,
                    "time": 389.4278399999995,
                    "velocity": 0.6929133858267716,
                    "duration": 1.0036799999999744
                },
                {
                    "name": "D7",
                    "midi": 98,
                    "time": 389.4278399999995,
                    "velocity": 0.8188976377952756,
                    "duration": 1.0036799999999744
                },
                {
                    "name": "G#6",
                    "midi": 92,
                    "time": 390.43151999999947,
                    "velocity": 0.7007874015748031,
                    "duration": 0.4767479999999864
                },
                {
                    "name": "B6",
                    "midi": 95,
                    "time": 390.43151999999947,
                    "velocity": 0.7007874015748031,
                    "duration": 0.4767479999999864
                },
                {
                    "name": "C7",
                    "midi": 96,
                    "time": 390.43151999999947,
                    "velocity": 0.8267716535433071,
                    "duration": 0.4767479999999864
                },
                {
                    "name": "C6",
                    "midi": 84,
                    "time": 390.43151999999947,
                    "velocity": 0.7007874015748031,
                    "duration": 0.4767479999999864
                },
                {
                    "name": "B6",
                    "midi": 95,
                    "time": 390.9333599999994,
                    "velocity": 0.7244094488188977,
                    "duration": 0.4767479999999864
                },
                {
                    "name": "G#6",
                    "midi": 92,
                    "time": 390.9333599999994,
                    "velocity": 0.7244094488188977,
                    "duration": 0.4767479999999864
                },
                {
                    "name": "D6",
                    "midi": 86,
                    "time": 390.9333599999994,
                    "velocity": 0.7244094488188977,
                    "duration": 0.4767479999999864
                },
                {
                    "name": "D7",
                    "midi": 98,
                    "time": 390.9333599999994,
                    "velocity": 0.8582677165354331,
                    "duration": 0.4767479999999864
                },
                {
                    "name": "A6",
                    "midi": 93,
                    "time": 391.4351999999994,
                    "velocity": 0.7637795275590551,
                    "duration": 0.12545999999997548
                },
                {
                    "name": "F6",
                    "midi": 89,
                    "time": 391.4351999999994,
                    "velocity": 0.7637795275590551,
                    "duration": 0.12545999999997548
                },
                {
                    "name": "F7",
                    "midi": 101,
                    "time": 391.4351999999994,
                    "velocity": 0.905511811023622,
                    "duration": 0.12545999999997548
                },
                {
                    "name": "C7",
                    "midi": 96,
                    "time": 391.4351999999994,
                    "velocity": 0.7637795275590551,
                    "duration": 0.12545999999997548
                },
                {
                    "name": "D#7",
                    "midi": 99,
                    "time": 391.68611999999933,
                    "velocity": 0.7637795275590551,
                    "duration": 0.12545999999997548
                },
                {
                    "name": "D#6",
                    "midi": 87,
                    "time": 391.68611999999933,
                    "velocity": 0.6456692913385826,
                    "duration": 0.12545999999997548
                },
                {
                    "name": "C7",
                    "midi": 96,
                    "time": 391.9370399999993,
                    "velocity": 0.7637795275590551,
                    "duration": 0.12545999999997548
                },
                {
                    "name": "C6",
                    "midi": 84,
                    "time": 391.9370399999993,
                    "velocity": 0.6456692913385826,
                    "duration": 0.12545999999997548
                },
                {
                    "name": "A6",
                    "midi": 93,
                    "time": 392.18795999999924,
                    "velocity": 0.7716535433070866,
                    "duration": 0.12545999999997548
                },
                {
                    "name": "A5",
                    "midi": 81,
                    "time": 392.18795999999924,
                    "velocity": 0.6535433070866141,
                    "duration": 0.12545999999997548
                },
                {
                    "name": "F#6",
                    "midi": 90,
                    "time": 392.4388799999992,
                    "velocity": 0.8346456692913385,
                    "duration": 0.12545999999997548
                },
                {
                    "name": "F#5",
                    "midi": 78,
                    "time": 392.4388799999992,
                    "velocity": 0.8346456692913385,
                    "duration": 0.12545999999997548
                },
                {
                    "name": "D#5",
                    "midi": 75,
                    "time": 392.68979999999914,
                    "velocity": 0.6141732283464567,
                    "duration": 0.12545999999997548
                },
                {
                    "name": "D#6",
                    "midi": 87,
                    "time": 392.68979999999914,
                    "velocity": 0.7244094488188977,
                    "duration": 0.12545999999997548
                },
                {
                    "name": "C6",
                    "midi": 84,
                    "time": 392.9407199999991,
                    "velocity": 0.7322834645669292,
                    "duration": 0.12545999999997548
                },
                {
                    "name": "C5",
                    "midi": 72,
                    "time": 392.9407199999991,
                    "velocity": 0.6220472440944882,
                    "duration": 0.12545999999997548
                },
                {
                    "name": "A5",
                    "midi": 81,
                    "time": 393.19163999999904,
                    "velocity": 0.7322834645669292,
                    "duration": 0.12545999999997548
                },
                {
                    "name": "A4",
                    "midi": 69,
                    "time": 393.19163999999904,
                    "velocity": 0.6220472440944882,
                    "duration": 0.12545999999997548
                },
                {
                    "name": "F#4",
                    "midi": 66,
                    "time": 393.442559999999,
                    "velocity": 0.6062992125984252,
                    "duration": 0.12545999999997548
                },
                {
                    "name": "F#5",
                    "midi": 78,
                    "time": 393.442559999999,
                    "velocity": 0.7165354330708661,
                    "duration": 0.12545999999997548
                },
                {
                    "name": "D#4",
                    "midi": 63,
                    "time": 393.69347999999894,
                    "velocity": 0.5511811023622047,
                    "duration": 0.12545999999997548
                },
                {
                    "name": "D#5",
                    "midi": 75,
                    "time": 393.69347999999894,
                    "velocity": 0.6535433070866141,
                    "duration": 0.12545999999997548
                },
                {
                    "name": "C5",
                    "midi": 72,
                    "time": 393.9443999999989,
                    "velocity": 0.6535433070866141,
                    "duration": 0.12545999999997548
                },
                {
                    "name": "C4",
                    "midi": 60,
                    "time": 393.9443999999989,
                    "velocity": 0.5511811023622047,
                    "duration": 0.12545999999997548
                },
                {
                    "name": "A4",
                    "midi": 69,
                    "time": 394.19531999999884,
                    "velocity": 0.5669291338582677,
                    "duration": 0.12545999999997548
                },
                {
                    "name": "A3",
                    "midi": 57,
                    "time": 394.19531999999884,
                    "velocity": 0.48031496062992124,
                    "duration": 0.12545999999997548
                },
                {
                    "name": "F#3",
                    "midi": 54,
                    "time": 394.4462399999988,
                    "velocity": 0.5354330708661418,
                    "duration": 0.12545999999997548
                },
                {
                    "name": "F#4",
                    "midi": 66,
                    "time": 394.4462399999988,
                    "velocity": 0.6299212598425197,
                    "duration": 0.12545999999997548
                },
                {
                    "name": "D#4",
                    "midi": 63,
                    "time": 394.69715999999875,
                    "velocity": 0.6220472440944882,
                    "duration": 0.12545999999997548
                },
                {
                    "name": "D#3",
                    "midi": 51,
                    "time": 394.69715999999875,
                    "velocity": 0.5275590551181102,
                    "duration": 0.12545999999997548
                },
                {
                    "name": "C4",
                    "midi": 60,
                    "time": 394.9480799999987,
                    "velocity": 0.6062992125984252,
                    "duration": 0.12545999999997548
                },
                {
                    "name": "C3",
                    "midi": 48,
                    "time": 394.9480799999987,
                    "velocity": 0.5118110236220472,
                    "duration": 0.12545999999997548
                },
                {
                    "name": "F#2",
                    "midi": 42,
                    "time": 395.19899999999865,
                    "velocity": 0.49606299212598426,
                    "duration": 0.12545999999997548
                },
                {
                    "name": "F#3",
                    "midi": 54,
                    "time": 395.19899999999865,
                    "velocity": 0.5905511811023622,
                    "duration": 0.12545999999997548
                },
                {
                    "name": "C3",
                    "midi": 48,
                    "time": 395.4499199999986,
                    "velocity": 0.5354330708661418,
                    "duration": 1.0036800000000312
                },
                {
                    "name": "C4",
                    "midi": 60,
                    "time": 395.4499199999986,
                    "velocity": 0.6377952755905512,
                    "duration": 0.49974900000000844
                },
                {
                    "name": "G3",
                    "midi": 55,
                    "time": 395.4499199999986,
                    "velocity": 0.5354330708661418,
                    "duration": 0.2216460000000211
                },
                {
                    "name": "G3",
                    "midi": 55,
                    "time": 395.7008399999986,
                    "velocity": 0.47244094488188976,
                    "duration": 0.7527600000000234
                },
                {
                    "name": "C4",
                    "midi": 60,
                    "time": 395.9517599999986,
                    "velocity": 0.5118110236220472,
                    "duration": 0.5018400000000156
                },
                {
                    "name": "D#4",
                    "midi": 63,
                    "time": 396.2026799999986,
                    "velocity": 0.4566929133858268,
                    "duration": 0.2509200000000078
                },
                {
                    "name": "F#4",
                    "midi": 66,
                    "time": 396.45359999999863,
                    "velocity": 0.4881889763779528,
                    "duration": 0.2509200000000078
                },
                {
                    "name": "G4",
                    "midi": 67,
                    "time": 396.70451999999864,
                    "velocity": 0.5039370078740157,
                    "duration": 0.2509200000000078
                },
                {
                    "name": "C5",
                    "midi": 72,
                    "time": 396.95543999999865,
                    "velocity": 0.5275590551181102,
                    "duration": 0.2509200000000078
                },
                {
                    "name": "D#5",
                    "midi": 75,
                    "time": 397.20635999999865,
                    "velocity": 0.5433070866141733,
                    "duration": 0.2509200000000078
                },
                {
                    "name": "F#5",
                    "midi": 78,
                    "time": 397.45727999999866,
                    "velocity": 0.5669291338582677,
                    "duration": 0.2509200000000078
                },
                {
                    "name": "G5",
                    "midi": 79,
                    "time": 397.70819999999867,
                    "velocity": 0.5118110236220472,
                    "duration": 0.2509200000000078
                },
                {
                    "name": "D#5",
                    "midi": 75,
                    "time": 398.2100399999987,
                    "velocity": 0.6377952755905512,
                    "duration": 0.2258279999999786
                },
                {
                    "name": "G5",
                    "midi": 79,
                    "time": 398.2100399999987,
                    "velocity": 0.6377952755905512,
                    "duration": 0.2258279999999786
                },
                {
                    "name": "D#6",
                    "midi": 87,
                    "time": 398.2100399999987,
                    "velocity": 0.7559055118110236,
                    "duration": 0.2258279999999786
                },
                {
                    "name": "G5",
                    "midi": 79,
                    "time": 398.46095999999864,
                    "velocity": 0.6692913385826772,
                    "duration": 0.5018400000000156
                },
                {
                    "name": "D#6",
                    "midi": 87,
                    "time": 398.46095999999864,
                    "velocity": 0.7952755905511811,
                    "duration": 0.5018400000000156
                },
                {
                    "name": "D#5",
                    "midi": 75,
                    "time": 398.46095999999864,
                    "velocity": 0.6692913385826772,
                    "duration": 0.5018400000000156
                },
                {
                    "name": "F5",
                    "midi": 77,
                    "time": 398.96279999999865,
                    "velocity": 0.6299212598425197,
                    "duration": 0.12545999999997548
                },
                {
                    "name": "D5",
                    "midi": 74,
                    "time": 398.96279999999865,
                    "velocity": 0.6299212598425197,
                    "duration": 0.12545999999997548
                },
                {
                    "name": "D6",
                    "midi": 86,
                    "time": 398.96279999999865,
                    "velocity": 0.7480314960629921,
                    "duration": 0.12545999999997548
                },
                {
                    "name": "C6",
                    "midi": 84,
                    "time": 399.2137199999986,
                    "velocity": 0.7480314960629921,
                    "duration": 0.12545999999997548
                },
                {
                    "name": "C5",
                    "midi": 72,
                    "time": 399.2137199999986,
                    "velocity": 0.6299212598425197,
                    "duration": 0.12545999999997548
                },
                {
                    "name": "D#5",
                    "midi": 75,
                    "time": 399.2137199999986,
                    "velocity": 0.6299212598425197,
                    "duration": 0.12545999999997548
                },
                {
                    "name": "G4",
                    "midi": 67,
                    "time": 399.71555999999856,
                    "velocity": 0.5433070866141733,
                    "duration": 0.2509200000000078
                },
                {
                    "name": "C#5",
                    "midi": 73,
                    "time": 399.96647999999857,
                    "velocity": 0.5826771653543307,
                    "duration": 0.2509200000000078
                },
                {
                    "name": "E5",
                    "midi": 76,
                    "time": 400.2173999999986,
                    "velocity": 0.5196850393700787,
                    "duration": 0.2509200000000078
                },
                {
                    "name": "F#5",
                    "midi": 78,
                    "time": 400.4683199999986,
                    "velocity": 0.5590551181102362,
                    "duration": 0.2509200000000078
                },
                {
                    "name": "G5",
                    "midi": 79,
                    "time": 400.7192399999986,
                    "velocity": 0.5748031496062992,
                    "duration": 0.2509200000000078
                },
                {
                    "name": "C6",
                    "midi": 84,
                    "time": 400.9701599999986,
                    "velocity": 0.6062992125984252,
                    "duration": 0.2509200000000078
                },
                {
                    "name": "E6",
                    "midi": 88,
                    "time": 401.2210799999986,
                    "velocity": 0.6220472440944882,
                    "duration": 0.2509200000000078
                },
                {
                    "name": "F#6",
                    "midi": 90,
                    "time": 401.4719999999986,
                    "velocity": 0.6456692913385826,
                    "duration": 0.2509200000000078
                },
                {
                    "name": "G6",
                    "midi": 91,
                    "time": 401.7229199999986,
                    "velocity": 0.5826771653543307,
                    "duration": 0.2509200000000078
                },
                {
                    "name": "G5",
                    "midi": 79,
                    "time": 402.22475999999864,
                    "velocity": 0.6377952755905512,
                    "duration": 0.2258279999999786
                },
                {
                    "name": "E6",
                    "midi": 88,
                    "time": 402.22475999999864,
                    "velocity": 0.7559055118110236,
                    "duration": 0.2258279999999786
                },
                {
                    "name": "E5",
                    "midi": 76,
                    "time": 402.22475999999864,
                    "velocity": 0.6377952755905512,
                    "duration": 0.2258279999999786
                },
                {
                    "name": "G5",
                    "midi": 79,
                    "time": 402.4756799999986,
                    "velocity": 0.6692913385826772,
                    "duration": 0.5018400000000156
                },
                {
                    "name": "E6",
                    "midi": 88,
                    "time": 402.4756799999986,
                    "velocity": 0.7952755905511811,
                    "duration": 0.5018400000000156
                },
                {
                    "name": "E5",
                    "midi": 76,
                    "time": 402.4756799999986,
                    "velocity": 0.6692913385826772,
                    "duration": 0.5018400000000156
                },
                {
                    "name": "D5",
                    "midi": 74,
                    "time": 402.9775199999986,
                    "velocity": 0.6299212598425197,
                    "duration": 0.12545999999997548
                },
                {
                    "name": "D6",
                    "midi": 86,
                    "time": 402.9775199999986,
                    "velocity": 0.7480314960629921,
                    "duration": 0.12545999999997548
                },
                {
                    "name": "F5",
                    "midi": 77,
                    "time": 402.9775199999986,
                    "velocity": 0.6299212598425197,
                    "duration": 0.12545999999997548
                },
                {
                    "name": "E5",
                    "midi": 76,
                    "time": 403.22843999999856,
                    "velocity": 0.6299212598425197,
                    "duration": 0.12545999999997548
                },
                {
                    "name": "C#6",
                    "midi": 85,
                    "time": 403.22843999999856,
                    "velocity": 0.7480314960629921,
                    "duration": 0.12545999999997548
                },
                {
                    "name": "C#5",
                    "midi": 73,
                    "time": 403.22843999999856,
                    "velocity": 0.6299212598425197,
                    "duration": 0.12545999999997548
                },
                {
                    "name": "F4",
                    "midi": 65,
                    "time": 403.7302799999985,
                    "velocity": 0.4881889763779528,
                    "duration": 0.2509200000000078
                },
                {
                    "name": "G#4",
                    "midi": 68,
                    "time": 403.9811999999985,
                    "velocity": 0.4881889763779528,
                    "duration": 0.2509200000000078
                },
                {
                    "name": "F5",
                    "midi": 77,
                    "time": 404.23211999999853,
                    "velocity": 0.6377952755905512,
                    "duration": 0.2258279999999786
                },
                {
                    "name": "G#5",
                    "midi": 80,
                    "time": 404.23211999999853,
                    "velocity": 0.6377952755905512,
                    "duration": 0.2258279999999786
                },
                {
                    "name": "F6",
                    "midi": 89,
                    "time": 404.23211999999853,
                    "velocity": 0.7559055118110236,
                    "duration": 0.2258279999999786
                },
                {
                    "name": "F6",
                    "midi": 89,
                    "time": 404.4830399999985,
                    "velocity": 0.7952755905511811,
                    "duration": 0.5018400000000156
                },
                {
                    "name": "G#5",
                    "midi": 80,
                    "time": 404.4830399999985,
                    "velocity": 0.6692913385826772,
                    "duration": 0.5018400000000156
                },
                {
                    "name": "F5",
                    "midi": 77,
                    "time": 404.4830399999985,
                    "velocity": 0.6692913385826772,
                    "duration": 0.5018400000000156
                },
                {
                    "name": "E5",
                    "midi": 76,
                    "time": 404.9848799999985,
                    "velocity": 0.6299212598425197,
                    "duration": 0.12545999999997548
                },
                {
                    "name": "E6",
                    "midi": 88,
                    "time": 404.9848799999985,
                    "velocity": 0.7480314960629921,
                    "duration": 0.12545999999997548
                },
                {
                    "name": "G5",
                    "midi": 79,
                    "time": 404.9848799999985,
                    "velocity": 0.6299212598425197,
                    "duration": 0.12545999999997548
                },
                {
                    "name": "D6",
                    "midi": 86,
                    "time": 405.23579999999845,
                    "velocity": 0.7480314960629921,
                    "duration": 0.12545999999997548
                },
                {
                    "name": "D5",
                    "midi": 74,
                    "time": 405.23579999999845,
                    "velocity": 0.6299212598425197,
                    "duration": 0.12545999999997548
                },
                {
                    "name": "F5",
                    "midi": 77,
                    "time": 405.23579999999845,
                    "velocity": 0.6299212598425197,
                    "duration": 0.12545999999997548
                },
                {
                    "name": "C6",
                    "midi": 84,
                    "time": 405.4867199999984,
                    "velocity": 0.6377952755905512,
                    "duration": 0.5018400000000156
                },
                {
                    "name": "F6",
                    "midi": 89,
                    "time": 405.4867199999984,
                    "velocity": 0.6377952755905512,
                    "duration": 0.5018400000000156
                },
                {
                    "name": "C7",
                    "midi": 96,
                    "time": 405.4867199999984,
                    "velocity": 0.7559055118110236,
                    "duration": 0.5018400000000156
                },
                {
                    "name": "G#6",
                    "midi": 92,
                    "time": 405.4867199999984,
                    "velocity": 0.7559055118110236,
                    "duration": 0.5018400000000156
                },
                {
                    "name": "G6",
                    "midi": 91,
                    "time": 405.9885599999984,
                    "velocity": 0.7165354330708661,
                    "duration": 0.12545999999997548
                },
                {
                    "name": "D#6",
                    "midi": 87,
                    "time": 405.9885599999984,
                    "velocity": 0.6062992125984252,
                    "duration": 0.12545999999997548
                },
                {
                    "name": "G5",
                    "midi": 79,
                    "time": 405.9885599999984,
                    "velocity": 0.6062992125984252,
                    "duration": 0.12545999999997548
                },
                {
                    "name": "D6",
                    "midi": 86,
                    "time": 406.23947999999837,
                    "velocity": 0.6062992125984252,
                    "duration": 0.12545999999997548
                },
                {
                    "name": "F5",
                    "midi": 77,
                    "time": 406.23947999999837,
                    "velocity": 0.6062992125984252,
                    "duration": 0.12545999999997548
                },
                {
                    "name": "F6",
                    "midi": 89,
                    "time": 406.23947999999837,
                    "velocity": 0.7165354330708661,
                    "duration": 0.12545999999997548
                },
                {
                    "name": "C7",
                    "midi": 96,
                    "time": 406.4903999999983,
                    "velocity": 0.6377952755905512,
                    "duration": 0.4767479999999864
                },
                {
                    "name": "G#6",
                    "midi": 92,
                    "time": 406.4903999999983,
                    "velocity": 0.6377952755905512,
                    "duration": 0.4767479999999864
                },
                {
                    "name": "F6",
                    "midi": 89,
                    "time": 406.4903999999983,
                    "velocity": 0.6377952755905512,
                    "duration": 0.4767479999999864
                },
                {
                    "name": "F7",
                    "midi": 101,
                    "time": 406.4903999999983,
                    "velocity": 0.7559055118110236,
                    "duration": 0.4767479999999864
                },
                {
                    "name": "F6",
                    "midi": 89,
                    "time": 406.9922399999983,
                    "velocity": 0.6062992125984252,
                    "duration": 0.12545999999997548
                },
                {
                    "name": "G#6",
                    "midi": 92,
                    "time": 406.9922399999983,
                    "velocity": 0.6062992125984252,
                    "duration": 0.12545999999997548
                },
                {
                    "name": "C7",
                    "midi": 96,
                    "time": 406.9922399999983,
                    "velocity": 0.7165354330708661,
                    "duration": 0.12545999999997548
                },
                {
                    "name": "C6",
                    "midi": 84,
                    "time": 406.9922399999983,
                    "velocity": 0.6062992125984252,
                    "duration": 0.12545999999997548
                },
                {
                    "name": "B6",
                    "midi": 95,
                    "time": 407.2431599999982,
                    "velocity": 0.7165354330708661,
                    "duration": 0.12545999999997548
                },
                {
                    "name": "F6",
                    "midi": 89,
                    "time": 407.2431599999982,
                    "velocity": 0.6062992125984252,
                    "duration": 0.12545999999997548
                },
                {
                    "name": "B5",
                    "midi": 83,
                    "time": 407.2431599999982,
                    "velocity": 0.6062992125984252,
                    "duration": 0.12545999999997548
                },
                {
                    "name": "G#6",
                    "midi": 92,
                    "time": 407.2431599999982,
                    "velocity": 0.6062992125984252,
                    "duration": 0.12545999999997548
                },
                {
                    "name": "F6",
                    "midi": 89,
                    "time": 407.4940799999982,
                    "velocity": 0.5826771653543307,
                    "duration": 0.4767479999999864
                },
                {
                    "name": "C7",
                    "midi": 96,
                    "time": 407.4940799999982,
                    "velocity": 0.5826771653543307,
                    "duration": 0.4767479999999864
                },
                {
                    "name": "F7",
                    "midi": 101,
                    "time": 407.4940799999982,
                    "velocity": 0.6929133858267716,
                    "duration": 0.4767479999999864
                },
                {
                    "name": "G#6",
                    "midi": 92,
                    "time": 407.4940799999982,
                    "velocity": 0.5826771653543307,
                    "duration": 0.4767479999999864
                },
                {
                    "name": "C7",
                    "midi": 96,
                    "time": 407.99591999999814,
                    "velocity": 0.6535433070866141,
                    "duration": 0.2509200000000078
                },
                {
                    "name": "D#6",
                    "midi": 87,
                    "time": 407.99591999999814,
                    "velocity": 0.6535433070866141,
                    "duration": 0.2509200000000078
                },
                {
                    "name": "D#7",
                    "midi": 99,
                    "time": 407.99591999999814,
                    "velocity": 0.6535433070866141,
                    "duration": 0.2509200000000078
                },
                {
                    "name": "D7",
                    "midi": 98,
                    "time": 408.24683999999814,
                    "velocity": 0.6535433070866141,
                    "duration": 0.2509200000000078
                },
                {
                    "name": "B6",
                    "midi": 95,
                    "time": 408.24683999999814,
                    "velocity": 0.6535433070866141,
                    "duration": 0.2509200000000078
                },
                {
                    "name": "D6",
                    "midi": 86,
                    "time": 408.24683999999814,
                    "velocity": 0.5511811023622047,
                    "duration": 0.2509200000000078
                },
                {
                    "name": "C6",
                    "midi": 84,
                    "time": 408.49775999999815,
                    "velocity": 0.5511811023622047,
                    "duration": 0.2509200000000078
                },
                {
                    "name": "A6",
                    "midi": 93,
                    "time": 408.49775999999815,
                    "velocity": 0.6535433070866141,
                    "duration": 0.2509200000000078
                },
                {
                    "name": "C7",
                    "midi": 96,
                    "time": 408.49775999999815,
                    "velocity": 0.6535433070866141,
                    "duration": 0.2509200000000078
                },
                {
                    "name": "G6",
                    "midi": 91,
                    "time": 408.74867999999816,
                    "velocity": 0.6535433070866141,
                    "duration": 0.2509200000000078
                },
                {
                    "name": "B6",
                    "midi": 95,
                    "time": 408.74867999999816,
                    "velocity": 0.6535433070866141,
                    "duration": 0.2509200000000078
                },
                {
                    "name": "B5",
                    "midi": 83,
                    "time": 408.74867999999816,
                    "velocity": 0.5511811023622047,
                    "duration": 0.2509200000000078
                },
                {
                    "name": "A5",
                    "midi": 81,
                    "time": 408.99959999999817,
                    "velocity": 0.5511811023622047,
                    "duration": 0.2509200000000078
                },
                {
                    "name": "A6",
                    "midi": 93,
                    "time": 408.99959999999817,
                    "velocity": 0.6535433070866141,
                    "duration": 0.2509200000000078
                },
                {
                    "name": "F6",
                    "midi": 89,
                    "time": 408.99959999999817,
                    "velocity": 0.6535433070866141,
                    "duration": 0.2509200000000078
                },
                {
                    "name": "F6",
                    "midi": 89,
                    "time": 409.2505199999982,
                    "velocity": 0.6535433070866141,
                    "duration": 0.2509200000000078
                },
                {
                    "name": "G#5",
                    "midi": 80,
                    "time": 409.2505199999982,
                    "velocity": 0.5511811023622047,
                    "duration": 0.2509200000000078
                },
                {
                    "name": "G#6",
                    "midi": 92,
                    "time": 409.2505199999982,
                    "velocity": 0.6535433070866141,
                    "duration": 0.2509200000000078
                },
                {
                    "name": "F#5",
                    "midi": 78,
                    "time": 409.5014399999982,
                    "velocity": 0.6062992125984252,
                    "duration": 0.2509200000000078
                },
                {
                    "name": "F#6",
                    "midi": 90,
                    "time": 409.5014399999982,
                    "velocity": 0.7165354330708661,
                    "duration": 0.2509200000000078
                },
                {
                    "name": "G6",
                    "midi": 91,
                    "time": 409.7523599999982,
                    "velocity": 0.6771653543307087,
                    "duration": 0.2509200000000078
                },
                {
                    "name": "G5",
                    "midi": 79,
                    "time": 409.7523599999982,
                    "velocity": 0.5748031496062992,
                    "duration": 0.2509200000000078
                },
                {
                    "name": "B5",
                    "midi": 83,
                    "time": 410.2541999999982,
                    "velocity": 0.6299212598425197,
                    "duration": 0.23837400000002162
                },
                {
                    "name": "G#5",
                    "midi": 80,
                    "time": 410.2541999999982,
                    "velocity": 0.6299212598425197,
                    "duration": 0.23837400000002162
                },
                {
                    "name": "G#6",
                    "midi": 92,
                    "time": 410.2541999999982,
                    "velocity": 0.7480314960629921,
                    "duration": 0.23837400000002162
                },
                {
                    "name": "D6",
                    "midi": 86,
                    "time": 410.2541999999982,
                    "velocity": 0.6299212598425197,
                    "duration": 0.23837400000002162
                },
                {
                    "name": "B5",
                    "midi": 83,
                    "time": 410.5051199999982,
                    "velocity": 0.7086614173228346,
                    "duration": 0.5018400000000156
                },
                {
                    "name": "G#5",
                    "midi": 80,
                    "time": 410.5051199999982,
                    "velocity": 0.7086614173228346,
                    "duration": 0.5018400000000156
                },
                {
                    "name": "G#6",
                    "midi": 92,
                    "time": 410.5051199999982,
                    "velocity": 0.8346456692913385,
                    "duration": 0.5018400000000156
                },
                {
                    "name": "D6",
                    "midi": 86,
                    "time": 410.5051199999982,
                    "velocity": 0.7086614173228346,
                    "duration": 0.5018400000000156
                },
                {
                    "name": "G5",
                    "midi": 79,
                    "time": 411.00695999999823,
                    "velocity": 0.5748031496062992,
                    "duration": 0.12545999999997548
                },
                {
                    "name": "G6",
                    "midi": 91,
                    "time": 411.00695999999823,
                    "velocity": 0.6850393700787402,
                    "duration": 0.12545999999997548
                },
                {
                    "name": "F5",
                    "midi": 77,
                    "time": 411.2578799999982,
                    "velocity": 0.5511811023622047,
                    "duration": 0.12545999999997548
                },
                {
                    "name": "F6",
                    "midi": 89,
                    "time": 411.2578799999982,
                    "velocity": 0.6535433070866141,
                    "duration": 0.12545999999997548
                },
                {
                    "name": "F#4",
                    "midi": 66,
                    "time": 411.50879999999813,
                    "velocity": 0.6062992125984252,
                    "duration": 0.2509200000000078
                },
                {
                    "name": "F#5",
                    "midi": 78,
                    "time": 411.50879999999813,
                    "velocity": 0.7165354330708661,
                    "duration": 0.2509200000000078
                },
                {
                    "name": "G4",
                    "midi": 67,
                    "time": 411.75971999999814,
                    "velocity": 0.5748031496062992,
                    "duration": 0.2509200000000078
                },
                {
                    "name": "G5",
                    "midi": 79,
                    "time": 411.75971999999814,
                    "velocity": 0.6771653543307087,
                    "duration": 0.2509200000000078
                },
                {
                    "name": "D6",
                    "midi": 86,
                    "time": 412.26155999999816,
                    "velocity": 0.6299212598425197,
                    "duration": 0.23837400000002162
                },
                {
                    "name": "G#6",
                    "midi": 92,
                    "time": 412.26155999999816,
                    "velocity": 0.7480314960629921,
                    "duration": 0.23837400000002162
                },
                {
                    "name": "G#5",
                    "midi": 80,
                    "time": 412.26155999999816,
                    "velocity": 0.6299212598425197,
                    "duration": 0.23837400000002162
                },
                {
                    "name": "B5",
                    "midi": 83,
                    "time": 412.26155999999816,
                    "velocity": 0.6299212598425197,
                    "duration": 0.23837400000002162
                },
                {
                    "name": "G#5",
                    "midi": 80,
                    "time": 412.51247999999816,
                    "velocity": 0.7086614173228346,
                    "duration": 0.5018400000000156
                },
                {
                    "name": "G#6",
                    "midi": 92,
                    "time": 412.51247999999816,
                    "velocity": 0.8346456692913385,
                    "duration": 0.5018400000000156
                },
                {
                    "name": "D6",
                    "midi": 86,
                    "time": 412.51247999999816,
                    "velocity": 0.7086614173228346,
                    "duration": 0.5018400000000156
                },
                {
                    "name": "B5",
                    "midi": 83,
                    "time": 412.51247999999816,
                    "velocity": 0.7086614173228346,
                    "duration": 0.5018400000000156
                },
                {
                    "name": "G5",
                    "midi": 79,
                    "time": 413.0143199999982,
                    "velocity": 0.5748031496062992,
                    "duration": 0.12545999999997548
                },
                {
                    "name": "G6",
                    "midi": 91,
                    "time": 413.0143199999982,
                    "velocity": 0.6850393700787402,
                    "duration": 0.12545999999997548
                },
                {
                    "name": "F6",
                    "midi": 89,
                    "time": 413.26523999999813,
                    "velocity": 0.6535433070866141,
                    "duration": 0.12545999999997548
                },
                {
                    "name": "F5",
                    "midi": 77,
                    "time": 413.26523999999813,
                    "velocity": 0.5511811023622047,
                    "duration": 0.12545999999997548
                },
                {
                    "name": "G#5",
                    "midi": 80,
                    "time": 413.5161599999981,
                    "velocity": 0.7165354330708661,
                    "duration": 0.2509200000000078
                },
                {
                    "name": "G#4",
                    "midi": 68,
                    "time": 413.5161599999981,
                    "velocity": 0.6062992125984252,
                    "duration": 0.2509200000000078
                },
                {
                    "name": "A#5",
                    "midi": 82,
                    "time": 413.7670799999981,
                    "velocity": 0.6771653543307087,
                    "duration": 0.2509200000000078
                },
                {
                    "name": "A#4",
                    "midi": 70,
                    "time": 413.7670799999981,
                    "velocity": 0.5748031496062992,
                    "duration": 0.2509200000000078
                },
                {
                    "name": "F#6",
                    "midi": 90,
                    "time": 414.2689199999981,
                    "velocity": 0.6299212598425197,
                    "duration": 0.23837400000002162
                },
                {
                    "name": "B5",
                    "midi": 83,
                    "time": 414.2689199999981,
                    "velocity": 0.6299212598425197,
                    "duration": 0.23837400000002162
                },
                {
                    "name": "B6",
                    "midi": 95,
                    "time": 414.2689199999981,
                    "velocity": 0.7480314960629921,
                    "duration": 0.23837400000002162
                },
                {
                    "name": "F#6",
                    "midi": 90,
                    "time": 414.5198399999981,
                    "velocity": 0.7086614173228346,
                    "duration": 0.5018400000000156
                },
                {
                    "name": "B6",
                    "midi": 95,
                    "time": 414.5198399999981,
                    "velocity": 0.8346456692913385,
                    "duration": 0.5018400000000156
                },
                {
                    "name": "B5",
                    "midi": 83,
                    "time": 414.5198399999981,
                    "velocity": 0.7086614173228346,
                    "duration": 0.5018400000000156
                },
                {
                    "name": "F#6",
                    "midi": 90,
                    "time": 415.0216799999981,
                    "velocity": 0.6850393700787402,
                    "duration": 0.12545999999997548
                },
                {
                    "name": "F#5",
                    "midi": 78,
                    "time": 415.0216799999981,
                    "velocity": 0.5748031496062992,
                    "duration": 0.12545999999997548
                },
                {
                    "name": "D5",
                    "midi": 74,
                    "time": 415.2725999999981,
                    "velocity": 0.5511811023622047,
                    "duration": 0.12545999999997548
                },
                {
                    "name": "D6",
                    "midi": 86,
                    "time": 415.2725999999981,
                    "velocity": 0.6535433070866141,
                    "duration": 0.12545999999997548
                },
                {
                    "name": "B4",
                    "midi": 71,
                    "time": 415.52351999999803,
                    "velocity": 0.6062992125984252,
                    "duration": 0.2509200000000078
                },
                {
                    "name": "B5",
                    "midi": 83,
                    "time": 415.52351999999803,
                    "velocity": 0.7165354330708661,
                    "duration": 0.2509200000000078
                },
                {
                    "name": "C#5",
                    "midi": 73,
                    "time": 415.77443999999804,
                    "velocity": 0.5748031496062992,
                    "duration": 0.2509200000000078
                },
                {
                    "name": "C#6",
                    "midi": 85,
                    "time": 415.77443999999804,
                    "velocity": 0.6771653543307087,
                    "duration": 0.2509200000000078
                },
                {
                    "name": "F#6",
                    "midi": 90,
                    "time": 416.27627999999805,
                    "velocity": 0.7244094488188977,
                    "duration": 0.23837400000002162
                },
                {
                    "name": "D7",
                    "midi": 98,
                    "time": 416.27627999999805,
                    "velocity": 0.8582677165354331,
                    "duration": 0.23837400000002162
                },
                {
                    "name": "D6",
                    "midi": 86,
                    "time": 416.27627999999805,
                    "velocity": 0.7244094488188977,
                    "duration": 0.23837400000002162
                },
                {
                    "name": "D6",
                    "midi": 86,
                    "time": 416.52719999999806,
                    "velocity": 0.8110236220472441,
                    "duration": 0.5018400000000156
                },
                {
                    "name": "D7",
                    "midi": 98,
                    "time": 416.52719999999806,
                    "velocity": 0.952755905511811,
                    "duration": 0.5018400000000156
                },
                {
                    "name": "F#6",
                    "midi": 90,
                    "time": 416.52719999999806,
                    "velocity": 0.8110236220472441,
                    "duration": 0.5018400000000156
                },
                {
                    "name": "B6",
                    "midi": 95,
                    "time": 417.0290399999981,
                    "velocity": 0.7874015748031497,
                    "duration": 0.12545999999997548
                },
                {
                    "name": "B5",
                    "midi": 83,
                    "time": 417.0290399999981,
                    "velocity": 0.6535433070866141,
                    "duration": 0.12545999999997548
                },
                {
                    "name": "F#6",
                    "midi": 90,
                    "time": 417.279959999998,
                    "velocity": 0.7480314960629921,
                    "duration": 0.12545999999997548
                },
                {
                    "name": "F#5",
                    "midi": 78,
                    "time": 417.279959999998,
                    "velocity": 0.6299212598425197,
                    "duration": 0.12545999999997548
                },
                {
                    "name": "B6",
                    "midi": 95,
                    "time": 417.530879999998,
                    "velocity": 0.8582677165354331,
                    "duration": 0.5018400000000156
                },
                {
                    "name": "E6",
                    "midi": 88,
                    "time": 417.530879999998,
                    "velocity": 0.7244094488188977,
                    "duration": 0.5018400000000156
                },
                {
                    "name": "G6",
                    "midi": 91,
                    "time": 417.530879999998,
                    "velocity": 0.7244094488188977,
                    "duration": 0.5018400000000156
                },
                {
                    "name": "E7",
                    "midi": 100,
                    "time": 417.530879999998,
                    "velocity": 0.8582677165354331,
                    "duration": 0.5018400000000156
                },
                {
                    "name": "G6",
                    "midi": 91,
                    "time": 418.534559999998,
                    "velocity": 0.7244094488188977,
                    "duration": 0.5018400000000156
                },
                {
                    "name": "D6",
                    "midi": 86,
                    "time": 418.534559999998,
                    "velocity": 0.7244094488188977,
                    "duration": 0.5018400000000156
                },
                {
                    "name": "D7",
                    "midi": 98,
                    "time": 418.534559999998,
                    "velocity": 0.8582677165354331,
                    "duration": 0.5018400000000156
                },
                {
                    "name": "B6",
                    "midi": 95,
                    "time": 418.534559999998,
                    "velocity": 0.8582677165354331,
                    "duration": 0.5018400000000156
                },
                {
                    "name": "B6",
                    "midi": 95,
                    "time": 419.53823999999804,
                    "velocity": 0.8582677165354331,
                    "duration": 0.5018400000000156
                },
                {
                    "name": "G6",
                    "midi": 91,
                    "time": 419.53823999999804,
                    "velocity": 0.7244094488188977,
                    "duration": 0.5018400000000156
                },
                {
                    "name": "C#6",
                    "midi": 85,
                    "time": 419.53823999999804,
                    "velocity": 0.7244094488188977,
                    "duration": 0.5018400000000156
                },
                {
                    "name": "C#7",
                    "midi": 97,
                    "time": 419.53823999999804,
                    "velocity": 0.8582677165354331,
                    "duration": 0.5018400000000156
                },
                {
                    "name": "A#6",
                    "midi": 94,
                    "time": 420.5419199999981,
                    "velocity": 0.8582677165354331,
                    "duration": 0.5018400000000156
                },
                {
                    "name": "C#6",
                    "midi": 85,
                    "time": 420.5419199999981,
                    "velocity": 0.7244094488188977,
                    "duration": 0.5018400000000156
                },
                {
                    "name": "A#5",
                    "midi": 82,
                    "time": 420.5419199999981,
                    "velocity": 0.7244094488188977,
                    "duration": 0.5018400000000156
                },
                {
                    "name": "F#6",
                    "midi": 90,
                    "time": 420.5419199999981,
                    "velocity": 0.8582677165354331,
                    "duration": 0.5018400000000156
                },
                {
                    "name": "D3",
                    "midi": 50,
                    "time": 422.04743999999806,
                    "velocity": 0.6299212598425197,
                    "duration": 0.1672800000000052
                },
                {
                    "name": "B3",
                    "midi": 59,
                    "time": 422.21471999999807,
                    "velocity": 0.5590551181102362,
                    "duration": 0.1672800000000052
                },
                {
                    "name": "F#4",
                    "midi": 66,
                    "time": 422.3819999999981,
                    "velocity": 0.5590551181102362,
                    "duration": 0.1672800000000052
                },
                {
                    "name": "F#4",
                    "midi": 66,
                    "time": 422.5492799999981,
                    "velocity": 0.6377952755905512,
                    "duration": 0.2509200000000078
                },
                {
                    "name": "F#5",
                    "midi": 78,
                    "time": 422.8001999999981,
                    "velocity": 0.5748031496062992,
                    "duration": 0.2509200000000078
                },
                {
                    "name": "A#4",
                    "midi": 70,
                    "time": 423.0511199999981,
                    "velocity": 0.6220472440944882,
                    "duration": 0.2509200000000078
                },
                {
                    "name": "B4",
                    "midi": 71,
                    "time": 423.3020399999981,
                    "velocity": 0.5826771653543307,
                    "duration": 0.2509200000000078
                },
                {
                    "name": "F#3",
                    "midi": 54,
                    "time": 424.0547999999981,
                    "velocity": 0.6299212598425197,
                    "duration": 0.1672800000000052
                },
                {
                    "name": "B3",
                    "midi": 59,
                    "time": 424.22207999999813,
                    "velocity": 0.5590551181102362,
                    "duration": 0.1672800000000052
                },
                {
                    "name": "F#4",
                    "midi": 66,
                    "time": 424.38935999999813,
                    "velocity": 0.5590551181102362,
                    "duration": 0.1672800000000052
                },
                {
                    "name": "F#4",
                    "midi": 66,
                    "time": 424.55663999999814,
                    "velocity": 0.6377952755905512,
                    "duration": 0.2509200000000078
                },
                {
                    "name": "F#5",
                    "midi": 78,
                    "time": 424.80755999999815,
                    "velocity": 0.5748031496062992,
                    "duration": 0.2509200000000078
                },
                {
                    "name": "C#5",
                    "midi": 73,
                    "time": 425.05847999999816,
                    "velocity": 0.6220472440944882,
                    "duration": 0.2509200000000078
                },
                {
                    "name": "D5",
                    "midi": 74,
                    "time": 425.30939999999816,
                    "velocity": 0.5826771653543307,
                    "duration": 0.2509200000000078
                },
                {
                    "name": "B4",
                    "midi": 71,
                    "time": 426.0621599999982,
                    "velocity": 0.6299212598425197,
                    "duration": 0.1672800000000052
                },
                {
                    "name": "B5",
                    "midi": 83,
                    "time": 426.2294399999982,
                    "velocity": 0.5905511811023622,
                    "duration": 0.14636999999999034
                },
                {
                    "name": "B5",
                    "midi": 83,
                    "time": 426.3967199999982,
                    "velocity": 0.5905511811023622,
                    "duration": 0.1672800000000052
                },
                {
                    "name": "B6",
                    "midi": 95,
                    "time": 426.5639999999982,
                    "velocity": 0.6299212598425197,
                    "duration": 0.1672800000000052
                },
                {
                    "name": "A#6",
                    "midi": 94,
                    "time": 426.7312799999982,
                    "velocity": 0.5984251968503937,
                    "duration": 0.1672800000000052
                },
                {
                    "name": "C#7",
                    "midi": 97,
                    "time": 426.8985599999982,
                    "velocity": 0.5984251968503937,
                    "duration": 0.1672800000000052
                },
                {
                    "name": "B6",
                    "midi": 95,
                    "time": 427.0658399999982,
                    "velocity": 0.6299212598425197,
                    "duration": 0.1672800000000052
                },
                {
                    "name": "G6",
                    "midi": 91,
                    "time": 427.2331199999982,
                    "velocity": 0.5905511811023622,
                    "duration": 0.1672800000000052
                },
                {
                    "name": "E6",
                    "midi": 88,
                    "time": 427.4003999999982,
                    "velocity": 0.5826771653543307,
                    "duration": 0.1672800000000052
                },
                {
                    "name": "A#5",
                    "midi": 82,
                    "time": 427.56767999999823,
                    "velocity": 0.6299212598425197,
                    "duration": 0.1672800000000052
                },
                {
                    "name": "C#6",
                    "midi": 85,
                    "time": 427.73495999999824,
                    "velocity": 0.5905511811023622,
                    "duration": 0.1672800000000052
                },
                {
                    "name": "A#5",
                    "midi": 82,
                    "time": 427.90223999999824,
                    "velocity": 0.5984251968503937,
                    "duration": 0.1672800000000052
                },
                {
                    "name": "A4",
                    "midi": 69,
                    "time": 428.06951999999825,
                    "velocity": 0.6299212598425197,
                    "duration": 0.12545999999997548
                },
                {
                    "name": "G5",
                    "midi": 79,
                    "time": 428.06951999999825,
                    "velocity": 0.6299212598425197,
                    "duration": 0.16727999999994836
                },
                {
                    "name": "A#5",
                    "midi": 82,
                    "time": 428.2367999999982,
                    "velocity": 0.5984251968503937,
                    "duration": 0.1672800000000052
                },
                {
                    "name": "A#4",
                    "midi": 70,
                    "time": 428.3204399999982,
                    "velocity": 0.5905511811023622,
                    "duration": 0.12545999999997548
                },
                {
                    "name": "G5",
                    "midi": 79,
                    "time": 428.4040799999982,
                    "velocity": 0.6299212598425197,
                    "duration": 0.14636999999999034
                },
                {
                    "name": "G5",
                    "midi": 79,
                    "time": 428.5713599999982,
                    "velocity": 0.6771653543307087,
                    "duration": 0.1672800000000052
                },
                {
                    "name": "A#4",
                    "midi": 70,
                    "time": 428.5713599999982,
                    "velocity": 0.6771653543307087,
                    "duration": 0.5018400000000156
                },
                {
                    "name": "A#5",
                    "midi": 82,
                    "time": 428.7386399999982,
                    "velocity": 0.6062992125984252,
                    "duration": 0.1672800000000052
                },
                {
                    "name": "G5",
                    "midi": 79,
                    "time": 428.9059199999982,
                    "velocity": 0.6062992125984252,
                    "duration": 0.1672800000000052
                },
                {
                    "name": "B4",
                    "midi": 71,
                    "time": 429.0731999999982,
                    "velocity": 0.6299212598425197,
                    "duration": 0.12545999999997548
                },
                {
                    "name": "E5",
                    "midi": 76,
                    "time": 429.0731999999982,
                    "velocity": 0.6299212598425197,
                    "duration": 0.16727999999994836
                },
                {
                    "name": "G5",
                    "midi": 79,
                    "time": 429.2404799999982,
                    "velocity": 0.5984251968503937,
                    "duration": 0.1672800000000052
                },
                {
                    "name": "C#5",
                    "midi": 73,
                    "time": 429.3241199999982,
                    "velocity": 0.5984251968503937,
                    "duration": 0.12545999999997548
                },
                {
                    "name": "E5",
                    "midi": 76,
                    "time": 429.4077599999982,
                    "velocity": 0.6299212598425197,
                    "duration": 0.16727999999994836
                },
                {
                    "name": "D5",
                    "midi": 74,
                    "time": 429.5750399999981,
                    "velocity": 0.7322834645669292,
                    "duration": 1.0036799999999744
                },
                {
                    "name": "D4",
                    "midi": 62,
                    "time": 429.5750399999981,
                    "velocity": 0.6220472440944882,
                    "duration": 1.0036799999999744
                },
                {
                    "name": "F#4",
                    "midi": 66,
                    "time": 429.5750399999981,
                    "velocity": 0.6220472440944882,
                    "duration": 1.0036799999999744
                },
                {
                    "name": "E4",
                    "midi": 64,
                    "time": 430.5787199999981,
                    "velocity": 0.5905511811023622,
                    "duration": 0.7527600000000234
                },
                {
                    "name": "E5",
                    "midi": 76,
                    "time": 430.5787199999981,
                    "velocity": 0.7086614173228346,
                    "duration": 0.7527600000000234
                },
                {
                    "name": "A4",
                    "midi": 69,
                    "time": 430.5787199999981,
                    "velocity": 0.5905511811023622,
                    "duration": 0.7527600000000234
                },
                {
                    "name": "A4",
                    "midi": 69,
                    "time": 431.3314799999981,
                    "velocity": 0.4645669291338583,
                    "duration": 0.2258279999999786
                },
                {
                    "name": "F#4",
                    "midi": 66,
                    "time": 431.3314799999981,
                    "velocity": 0.4645669291338583,
                    "duration": 0.2258279999999786
                },
                {
                    "name": "F#5",
                    "midi": 78,
                    "time": 431.3314799999981,
                    "velocity": 0.5669291338582677,
                    "duration": 0.2258279999999786
                },
                {
                    "name": "F#4",
                    "midi": 66,
                    "time": 431.5823999999981,
                    "velocity": 0.6220472440944882,
                    "duration": 1.0036799999999744
                },
                {
                    "name": "A4",
                    "midi": 69,
                    "time": 431.5823999999981,
                    "velocity": 0.6220472440944882,
                    "duration": 1.0036799999999744
                },
                {
                    "name": "F#5",
                    "midi": 78,
                    "time": 431.5823999999981,
                    "velocity": 0.7322834645669292,
                    "duration": 1.0036799999999744
                },
                {
                    "name": "G4",
                    "midi": 67,
                    "time": 432.58607999999805,
                    "velocity": 0.5905511811023622,
                    "duration": 0.7527600000000234
                },
                {
                    "name": "G5",
                    "midi": 79,
                    "time": 432.58607999999805,
                    "velocity": 0.7086614173228346,
                    "duration": 0.7527600000000234
                },
                {
                    "name": "D5",
                    "midi": 74,
                    "time": 432.58607999999805,
                    "velocity": 0.5905511811023622,
                    "duration": 0.7318500000000085
                },
                {
                    "name": "D5",
                    "midi": 74,
                    "time": 433.3388399999981,
                    "velocity": 0.4645669291338583,
                    "duration": 0.2509200000000078
                },
                {
                    "name": "A4",
                    "midi": 69,
                    "time": 433.3388399999981,
                    "velocity": 0.4645669291338583,
                    "duration": 0.2509200000000078
                },
                {
                    "name": "A5",
                    "midi": 81,
                    "time": 433.3388399999981,
                    "velocity": 0.5669291338582677,
                    "duration": 0.2509200000000078
                },
                {
                    "name": "C#6",
                    "midi": 85,
                    "time": 433.5897599999981,
                    "velocity": 0.7322834645669292,
                    "duration": 0.5018400000000156
                },
                {
                    "name": "C#5",
                    "midi": 73,
                    "time": 433.5897599999981,
                    "velocity": 0.6220472440944882,
                    "duration": 0.5018400000000156
                },
                {
                    "name": "D5",
                    "midi": 74,
                    "time": 434.3425199999981,
                    "velocity": 0.5748031496062992,
                    "duration": 0.2258279999999786
                },
                {
                    "name": "D6",
                    "midi": 86,
                    "time": 434.3425199999981,
                    "velocity": 0.6771653543307087,
                    "duration": 0.2258279999999786
                },
                {
                    "name": "D6",
                    "midi": 86,
                    "time": 434.59343999999805,
                    "velocity": 0.7322834645669292,
                    "duration": 0.5018400000000156
                },
                {
                    "name": "B5",
                    "midi": 83,
                    "time": 434.59343999999805,
                    "velocity": 0.6220472440944882,
                    "duration": 1.0036799999999175
                },
                {
                    "name": "D5",
                    "midi": 74,
                    "time": 434.59343999999805,
                    "velocity": 0.6220472440944882,
                    "duration": 0.5018400000000156
                },
                {
                    "name": "E5",
                    "midi": 76,
                    "time": 435.09527999999807,
                    "velocity": 0.5905511811023622,
                    "duration": 0.12545999999997548
                },
                {
                    "name": "E6",
                    "midi": 88,
                    "time": 435.09527999999807,
                    "velocity": 0.7007874015748031,
                    "duration": 0.12545999999997548
                },
                {
                    "name": "F6",
                    "midi": 89,
                    "time": 435.346199999998,
                    "velocity": 0.6692913385826772,
                    "duration": 0.12545999999997548
                },
                {
                    "name": "F5",
                    "midi": 77,
                    "time": 435.346199999998,
                    "velocity": 0.5669291338582677,
                    "duration": 0.12545999999997548
                },
                {
                    "name": "D6",
                    "midi": 86,
                    "time": 435.597119999998,
                    "velocity": 0.6220472440944882,
                    "duration": 0.5018400000000156
                },
                {
                    "name": "F5",
                    "midi": 77,
                    "time": 435.597119999998,
                    "velocity": 0.6220472440944882,
                    "duration": 0.5018400000000156
                },
                {
                    "name": "F6",
                    "midi": 89,
                    "time": 435.597119999998,
                    "velocity": 0.7322834645669292,
                    "duration": 0.5018400000000156
                },
                {
                    "name": "D#6",
                    "midi": 87,
                    "time": 436.098959999998,
                    "velocity": 0.5905511811023622,
                    "duration": 0.12545999999997548
                },
                {
                    "name": "G6",
                    "midi": 91,
                    "time": 436.098959999998,
                    "velocity": 0.7007874015748031,
                    "duration": 0.12545999999997548
                },
                {
                    "name": "G5",
                    "midi": 79,
                    "time": 436.098959999998,
                    "velocity": 0.5905511811023622,
                    "duration": 0.12545999999997548
                },
                {
                    "name": "G#6",
                    "midi": 92,
                    "time": 436.34987999999794,
                    "velocity": 0.6692913385826772,
                    "duration": 0.12545999999997548
                },
                {
                    "name": "G#5",
                    "midi": 80,
                    "time": 436.34987999999794,
                    "velocity": 0.5669291338582677,
                    "duration": 0.12545999999997548
                },
                {
                    "name": "F6",
                    "midi": 89,
                    "time": 436.34987999999794,
                    "velocity": 0.5669291338582677,
                    "duration": 0.12545999999997548
                },
                {
                    "name": "F6",
                    "midi": 89,
                    "time": 436.6007999999979,
                    "velocity": 0.6220472440944882,
                    "duration": 0.43911000000002787
                },
                {
                    "name": "G#5",
                    "midi": 80,
                    "time": 436.6007999999979,
                    "velocity": 0.6220472440944882,
                    "duration": 0.43911000000002787
                },
                {
                    "name": "G#6",
                    "midi": 92,
                    "time": 436.6007999999979,
                    "velocity": 0.7322834645669292,
                    "duration": 0.43911000000002787
                },
                {
                    "name": "C#6",
                    "midi": 85,
                    "time": 437.05559249999794,
                    "velocity": 0.6377952755905512,
                    "duration": 0.5488875000000917
                },
                {
                    "name": "F6",
                    "midi": 89,
                    "time": 437.07127499999797,
                    "velocity": 0.6692913385826772,
                    "duration": 0.5332050000000663
                },
                {
                    "name": "G#6",
                    "midi": 92,
                    "time": 437.086957499998,
                    "velocity": 0.6929133858267716,
                    "duration": 0.517522500000041
                },
                {
                    "name": "C#7",
                    "midi": 97,
                    "time": 437.102639999998,
                    "velocity": 0.7244094488188977,
                    "duration": 0.5018400000000156
                },
                {
                    "name": "A3",
                    "midi": 57,
                    "time": 438.10631999999805,
                    "velocity": 0.6299212598425197,
                    "duration": 0.1672800000000052
                },
                {
                    "name": "F#4",
                    "midi": 66,
                    "time": 438.27359999999805,
                    "velocity": 0.5590551181102362,
                    "duration": 0.1672800000000052
                },
                {
                    "name": "C#5",
                    "midi": 73,
                    "time": 438.44087999999806,
                    "velocity": 0.5590551181102362,
                    "duration": 0.14636999999999034
                },
                {
                    "name": "C#5",
                    "midi": 73,
                    "time": 438.60815999999807,
                    "velocity": 0.6377952755905512,
                    "duration": 0.2509200000000078
                },
                {
                    "name": "C#6",
                    "midi": 85,
                    "time": 438.8590799999981,
                    "velocity": 0.5748031496062992,
                    "duration": 0.2509200000000078
                },
                {
                    "name": "F5",
                    "midi": 77,
                    "time": 439.1099999999981,
                    "velocity": 0.6220472440944882,
                    "duration": 0.2509200000000078
                },
                {
                    "name": "F#5",
                    "midi": 78,
                    "time": 439.3609199999981,
                    "velocity": 0.5826771653543307,
                    "duration": 0.2509200000000078
                },
                {
                    "name": "C#4",
                    "midi": 61,
                    "time": 440.1136799999981,
                    "velocity": 0.6299212598425197,
                    "duration": 0.1672800000000052
                },
                {
                    "name": "F#4",
                    "midi": 66,
                    "time": 440.2809599999981,
                    "velocity": 0.5590551181102362,
                    "duration": 0.1672800000000052
                },
                {
                    "name": "C#5",
                    "midi": 73,
                    "time": 440.4482399999981,
                    "velocity": 0.5590551181102362,
                    "duration": 0.14636999999999034
                },
                {
                    "name": "C#5",
                    "midi": 73,
                    "time": 440.6155199999981,
                    "velocity": 0.6377952755905512,
                    "duration": 0.2509200000000078
                },
                {
                    "name": "C#6",
                    "midi": 85,
                    "time": 440.86643999999814,
                    "velocity": 0.5748031496062992,
                    "duration": 0.2509200000000078
                },
                {
                    "name": "G#5",
                    "midi": 80,
                    "time": 441.11735999999814,
                    "velocity": 0.6220472440944882,
                    "duration": 0.2509200000000078
                },
                {
                    "name": "A5",
                    "midi": 81,
                    "time": 441.36827999999815,
                    "velocity": 0.5826771653543307,
                    "duration": 0.2509200000000078
                },
                {
                    "name": "F#4",
                    "midi": 66,
                    "time": 442.1210399999982,
                    "velocity": 0.6299212598425197,
                    "duration": 0.1672800000000052
                },
                {
                    "name": "F#5",
                    "midi": 78,
                    "time": 442.2883199999982,
                    "velocity": 0.5905511811023622,
                    "duration": 0.14636999999999034
                },
                {
                    "name": "F#5",
                    "midi": 78,
                    "time": 442.4555999999982,
                    "velocity": 0.5905511811023622,
                    "duration": 0.1672800000000052
                },
                {
                    "name": "F#6",
                    "midi": 90,
                    "time": 442.6228799999982,
                    "velocity": 0.6299212598425197,
                    "duration": 0.1672800000000052
                },
                {
                    "name": "F6",
                    "midi": 89,
                    "time": 442.7901599999982,
                    "velocity": 0.5984251968503937,
                    "duration": 0.1672800000000052
                },
                {
                    "name": "G6",
                    "midi": 91,
                    "time": 442.9574399999982,
                    "velocity": 0.5984251968503937,
                    "duration": 0.1672800000000052
                },
                {
                    "name": "F#6",
                    "midi": 90,
                    "time": 443.1247199999982,
                    "velocity": 0.6299212598425197,
                    "duration": 0.1672800000000052
                },
                {
                    "name": "C6",
                    "midi": 84,
                    "time": 443.2919999999982,
                    "velocity": 0.5905511811023622,
                    "duration": 0.1672800000000052
                },
                {
                    "name": "A5",
                    "midi": 81,
                    "time": 443.4592799999982,
                    "velocity": 0.5826771653543307,
                    "duration": 0.1672800000000052
                },
                {
                    "name": "F#5",
                    "midi": 78,
                    "time": 443.6265599999982,
                    "velocity": 0.6299212598425197,
                    "duration": 0.1672800000000052
                },
                {
                    "name": "A5",
                    "midi": 81,
                    "time": 443.7938399999982,
                    "velocity": 0.5905511811023622,
                    "duration": 0.1672800000000052
                },
                {
                    "name": "F#5",
                    "midi": 78,
                    "time": 443.96111999999823,
                    "velocity": 0.5984251968503937,
                    "duration": 0.1672800000000052
                },
                {
                    "name": "B4",
                    "midi": 71,
                    "time": 444.12839999999824,
                    "velocity": 0.5354330708661418,
                    "duration": 0.1672800000000052
                },
                {
                    "name": "G5",
                    "midi": 79,
                    "time": 444.12839999999824,
                    "velocity": 0.6299212598425197,
                    "duration": 0.1672800000000052
                },
                {
                    "name": "B5",
                    "midi": 83,
                    "time": 444.29567999999824,
                    "velocity": 0.5984251968503937,
                    "duration": 0.1672800000000052
                },
                {
                    "name": "C5",
                    "midi": 72,
                    "time": 444.46295999999825,
                    "velocity": 0.5354330708661418,
                    "duration": 0.14636999999999034
                },
                {
                    "name": "C6",
                    "midi": 84,
                    "time": 444.46295999999825,
                    "velocity": 0.6299212598425197,
                    "duration": 0.1672800000000052
                },
                {
                    "name": "A5",
                    "midi": 81,
                    "time": 444.46295999999825,
                    "velocity": 0.5354330708661418,
                    "duration": 0.14636999999999034
                },
                {
                    "name": "C5",
                    "midi": 72,
                    "time": 444.63023999999825,
                    "velocity": 0.5748031496062992,
                    "duration": 0.1672800000000052
                },
                {
                    "name": "A5",
                    "midi": 81,
                    "time": 444.63023999999825,
                    "velocity": 0.6771653543307087,
                    "duration": 0.1672800000000052
                },
                {
                    "name": "C6",
                    "midi": 84,
                    "time": 444.79751999999826,
                    "velocity": 0.6299212598425197,
                    "duration": 0.1672800000000052
                },
                {
                    "name": "C5",
                    "midi": 72,
                    "time": 444.96479999999826,
                    "velocity": 0.5511811023622047,
                    "duration": 0.1672800000000052
                },
                {
                    "name": "A5",
                    "midi": 81,
                    "time": 444.96479999999826,
                    "velocity": 0.6535433070866141,
                    "duration": 0.1672800000000052
                },
                {
                    "name": "B5",
                    "midi": 83,
                    "time": 445.13207999999827,
                    "velocity": 0.7007874015748031,
                    "duration": 0.1672800000000052
                },
                {
                    "name": "D5",
                    "midi": 74,
                    "time": 445.13207999999827,
                    "velocity": 0.5984251968503937,
                    "duration": 0.1672800000000052
                },
                {
                    "name": "D6",
                    "midi": 86,
                    "time": 445.2993599999983,
                    "velocity": 0.6929133858267716,
                    "duration": 0.1672800000000052
                },
                {
                    "name": "D#5",
                    "midi": 75,
                    "time": 445.4666399999983,
                    "velocity": 0.6377952755905512,
                    "duration": 0.1672800000000052
                },
                {
                    "name": "C6",
                    "midi": 84,
                    "time": 445.4666399999983,
                    "velocity": 0.6377952755905512,
                    "duration": 0.1672800000000052
                },
                {
                    "name": "D#6",
                    "midi": 87,
                    "time": 445.4666399999983,
                    "velocity": 0.7559055118110236,
                    "duration": 0.1672800000000052
                },
                {
                    "name": "C6",
                    "midi": 84,
                    "time": 446.63759999999826,
                    "velocity": 0.7086614173228346,
                    "duration": 0.5018400000000156
                },
                {
                    "name": "C5",
                    "midi": 72,
                    "time": 446.63759999999826,
                    "velocity": 0.5984251968503937,
                    "duration": 0.5018400000000156
                },
                {
                    "name": "A5",
                    "midi": 81,
                    "time": 446.63759999999826,
                    "velocity": 0.5984251968503937,
                    "duration": 0.5018400000000156
                },
                {
                    "name": "D6",
                    "midi": 86,
                    "time": 447.1394399999983,
                    "velocity": 0.6850393700787402,
                    "duration": 0.12545999999997548
                },
                {
                    "name": "D5",
                    "midi": 74,
                    "time": 447.1394399999983,
                    "velocity": 0.5748031496062992,
                    "duration": 0.12545999999997548
                },
                {
                    "name": "B5",
                    "midi": 83,
                    "time": 447.1394399999983,
                    "velocity": 0.5748031496062992,
                    "duration": 0.12545999999997548
                },
                {
                    "name": "D#6",
                    "midi": 87,
                    "time": 447.3903599999982,
                    "velocity": 0.6220472440944882,
                    "duration": 0.12545999999997548
                },
                {
                    "name": "D#5",
                    "midi": 75,
                    "time": 447.3903599999982,
                    "velocity": 0.5275590551181102,
                    "duration": 0.12545999999997548
                },
                {
                    "name": "C6",
                    "midi": 84,
                    "time": 447.3903599999982,
                    "velocity": 0.5275590551181102,
                    "duration": 0.12545999999997548
                },
                {
                    "name": "C6",
                    "midi": 84,
                    "time": 448.6449599999982,
                    "velocity": 0.7086614173228346,
                    "duration": 0.5018400000000156
                },
                {
                    "name": "C5",
                    "midi": 72,
                    "time": 448.6449599999982,
                    "velocity": 0.5984251968503937,
                    "duration": 0.5018400000000156
                },
                {
                    "name": "A5",
                    "midi": 81,
                    "time": 448.6449599999982,
                    "velocity": 0.5984251968503937,
                    "duration": 0.5018400000000156
                },
                {
                    "name": "B5",
                    "midi": 83,
                    "time": 449.1467999999982,
                    "velocity": 0.5748031496062992,
                    "duration": 0.12545999999997548
                },
                {
                    "name": "D6",
                    "midi": 86,
                    "time": 449.1467999999982,
                    "velocity": 0.6850393700787402,
                    "duration": 0.12545999999997548
                },
                {
                    "name": "D5",
                    "midi": 74,
                    "time": 449.1467999999982,
                    "velocity": 0.5748031496062992,
                    "duration": 0.12545999999997548
                },
                {
                    "name": "C6",
                    "midi": 84,
                    "time": 449.3977199999982,
                    "velocity": 0.5275590551181102,
                    "duration": 0.12545999999997548
                },
                {
                    "name": "D#6",
                    "midi": 87,
                    "time": 449.3977199999982,
                    "velocity": 0.6220472440944882,
                    "duration": 0.12545999999997548
                },
                {
                    "name": "D#5",
                    "midi": 75,
                    "time": 449.3977199999982,
                    "velocity": 0.5275590551181102,
                    "duration": 0.12545999999997548
                },
                {
                    "name": "E6",
                    "midi": 88,
                    "time": 451.65599999999813,
                    "velocity": 0.3937007874015748,
                    "duration": 0.5018400000000156
                },
                {
                    "name": "C6",
                    "midi": 84,
                    "time": 451.65599999999813,
                    "velocity": 0.33070866141732286,
                    "duration": 0.5018400000000156
                },
                {
                    "name": "E5",
                    "midi": 76,
                    "time": 451.65599999999813,
                    "velocity": 0.33070866141732286,
                    "duration": 0.5018400000000156
                },
                {
                    "name": "D6",
                    "midi": 86,
                    "time": 452.15783999999815,
                    "velocity": 0.3543307086614173,
                    "duration": 0.18819000000002006
                },
                {
                    "name": "D5",
                    "midi": 74,
                    "time": 452.15783999999815,
                    "velocity": 0.2992125984251969,
                    "duration": 0.18819000000002006
                },
                {
                    "name": "B5",
                    "midi": 83,
                    "time": 452.15783999999815,
                    "velocity": 0.2992125984251969,
                    "duration": 0.18819000000002006
                },
                {
                    "name": "A5",
                    "midi": 81,
                    "time": 452.40875999999815,
                    "velocity": 0.2992125984251969,
                    "duration": 0.18819000000002006
                },
                {
                    "name": "C6",
                    "midi": 84,
                    "time": 452.40875999999815,
                    "velocity": 0.3543307086614173,
                    "duration": 0.18819000000002006
                },
                {
                    "name": "C5",
                    "midi": 72,
                    "time": 452.40875999999815,
                    "velocity": 0.2992125984251969,
                    "duration": 0.18819000000002006
                },
                {
                    "name": "C6",
                    "midi": 84,
                    "time": 452.65967999999816,
                    "velocity": 0.3937007874015748,
                    "duration": 0.5018400000000156
                },
                {
                    "name": "C5",
                    "midi": 72,
                    "time": 452.65967999999816,
                    "velocity": 0.33070866141732286,
                    "duration": 0.5018400000000156
                },
                {
                    "name": "A5",
                    "midi": 81,
                    "time": 452.65967999999816,
                    "velocity": 0.33070866141732286,
                    "duration": 0.5018400000000156
                },
                {
                    "name": "B4",
                    "midi": 71,
                    "time": 453.1615199999982,
                    "velocity": 0.2992125984251969,
                    "duration": 0.18819000000002006
                },
                {
                    "name": "B5",
                    "midi": 83,
                    "time": 453.1615199999982,
                    "velocity": 0.3543307086614173,
                    "duration": 0.18819000000002006
                },
                {
                    "name": "G5",
                    "midi": 79,
                    "time": 453.1615199999982,
                    "velocity": 0.2992125984251969,
                    "duration": 0.18819000000002006
                },
                {
                    "name": "A5",
                    "midi": 81,
                    "time": 453.4124399999982,
                    "velocity": 0.3543307086614173,
                    "duration": 0.18819000000002006
                },
                {
                    "name": "F#5",
                    "midi": 78,
                    "time": 453.4124399999982,
                    "velocity": 0.2992125984251969,
                    "duration": 0.18819000000002006
                },
                {
                    "name": "A4",
                    "midi": 69,
                    "time": 453.4124399999982,
                    "velocity": 0.2992125984251969,
                    "duration": 0.18819000000002006
                },
                {
                    "name": "F#5",
                    "midi": 78,
                    "time": 453.6633599999982,
                    "velocity": 0.33070866141732286,
                    "duration": 0.5018400000000156
                },
                {
                    "name": "A4",
                    "midi": 69,
                    "time": 453.6633599999982,
                    "velocity": 0.33070866141732286,
                    "duration": 0.5018400000000156
                },
                {
                    "name": "A5",
                    "midi": 81,
                    "time": 453.6633599999982,
                    "velocity": 0.3937007874015748,
                    "duration": 0.5018400000000156
                },
                {
                    "name": "G5",
                    "midi": 79,
                    "time": 454.1651999999982,
                    "velocity": 0.2992125984251969,
                    "duration": 0.18819000000002006
                },
                {
                    "name": "B5",
                    "midi": 83,
                    "time": 454.1651999999982,
                    "velocity": 0.3543307086614173,
                    "duration": 0.18819000000002006
                },
                {
                    "name": "A5",
                    "midi": 81,
                    "time": 454.4161199999982,
                    "velocity": 0.2992125984251969,
                    "duration": 0.18819000000002006
                },
                {
                    "name": "C6",
                    "midi": 84,
                    "time": 454.4161199999982,
                    "velocity": 0.3543307086614173,
                    "duration": 0.18819000000002006
                },
                {
                    "name": "C6",
                    "midi": 84,
                    "time": 454.6670399999982,
                    "velocity": 0.3937007874015748,
                    "duration": 0.5018400000000156
                },
                {
                    "name": "A5",
                    "midi": 81,
                    "time": 454.6670399999982,
                    "velocity": 0.33070866141732286,
                    "duration": 0.5018400000000156
                },
                {
                    "name": "D6",
                    "midi": 86,
                    "time": 455.16887999999824,
                    "velocity": 0.3543307086614173,
                    "duration": 0.18819000000002006
                },
                {
                    "name": "B5",
                    "midi": 83,
                    "time": 455.16887999999824,
                    "velocity": 0.2992125984251969,
                    "duration": 0.18819000000002006
                },
                {
                    "name": "E6",
                    "midi": 88,
                    "time": 455.41979999999825,
                    "velocity": 0.3543307086614173,
                    "duration": 0.18819000000002006
                },
                {
                    "name": "C6",
                    "midi": 84,
                    "time": 455.41979999999825,
                    "velocity": 0.2992125984251969,
                    "duration": 0.18819000000002006
                },
                {
                    "name": "E6",
                    "midi": 88,
                    "time": 455.67071999999825,
                    "velocity": 0.3858267716535433,
                    "duration": 0.5018400000000156
                },
                {
                    "name": "G6",
                    "midi": 91,
                    "time": 455.67071999999825,
                    "velocity": 0.4881889763779528,
                    "duration": 0.5018400000000156
                },
                {
                    "name": "F#6",
                    "midi": 90,
                    "time": 456.17255999999827,
                    "velocity": 0.3858267716535433,
                    "duration": 0.18819000000002006
                },
                {
                    "name": "D6",
                    "midi": 86,
                    "time": 456.17255999999827,
                    "velocity": 0.3228346456692913,
                    "duration": 0.18819000000002006
                },
                {
                    "name": "C6",
                    "midi": 84,
                    "time": 456.4234799999983,
                    "velocity": 0.3228346456692913,
                    "duration": 0.18819000000002006
                },
                {
                    "name": "E6",
                    "midi": 88,
                    "time": 456.4234799999983,
                    "velocity": 0.3858267716535433,
                    "duration": 0.18819000000002006
                },
                {
                    "name": "E6",
                    "midi": 88,
                    "time": 456.6743999999983,
                    "velocity": 0.4330708661417323,
                    "duration": 0.5018400000000156
                },
                {
                    "name": "C6",
                    "midi": 84,
                    "time": 456.6743999999983,
                    "velocity": 0.36220472440944884,
                    "duration": 0.5018400000000156
                },
                {
                    "name": "D6",
                    "midi": 86,
                    "time": 457.1762399999983,
                    "velocity": 0.3858267716535433,
                    "duration": 0.18819000000002006
                },
                {
                    "name": "B5",
                    "midi": 83,
                    "time": 457.1762399999983,
                    "velocity": 0.3228346456692913,
                    "duration": 0.18819000000002006
                },
                {
                    "name": "C6",
                    "midi": 84,
                    "time": 457.4271599999983,
                    "velocity": 0.3858267716535433,
                    "duration": 0.18819000000002006
                },
                {
                    "name": "A5",
                    "midi": 81,
                    "time": 457.4271599999983,
                    "velocity": 0.3228346456692913,
                    "duration": 0.18819000000002006
                },
                {
                    "name": "C6",
                    "midi": 84,
                    "time": 457.6780799999983,
                    "velocity": 0.3937007874015748,
                    "duration": 0.5018400000000156
                },
                {
                    "name": "A5",
                    "midi": 81,
                    "time": 457.6780799999983,
                    "velocity": 0.33070866141732286,
                    "duration": 0.5018400000000156
                },
                {
                    "name": "B5",
                    "midi": 83,
                    "time": 458.17991999999833,
                    "velocity": 0.2992125984251969,
                    "duration": 0.18819000000002006
                },
                {
                    "name": "D6",
                    "midi": 86,
                    "time": 458.17991999999833,
                    "velocity": 0.3543307086614173,
                    "duration": 0.18819000000002006
                },
                {
                    "name": "C6",
                    "midi": 84,
                    "time": 458.43083999999834,
                    "velocity": 0.2992125984251969,
                    "duration": 0.18819000000002006
                },
                {
                    "name": "E6",
                    "midi": 88,
                    "time": 458.43083999999834,
                    "velocity": 0.3543307086614173,
                    "duration": 0.18819000000002006
                },
                {
                    "name": "C6",
                    "midi": 84,
                    "time": 458.68175999999835,
                    "velocity": 0.33070866141732286,
                    "duration": 0.5018400000000156
                },
                {
                    "name": "E6",
                    "midi": 88,
                    "time": 458.68175999999835,
                    "velocity": 0.3937007874015748,
                    "duration": 0.5018400000000156
                },
                {
                    "name": "D6",
                    "midi": 86,
                    "time": 459.18359999999836,
                    "velocity": 0.3228346456692913,
                    "duration": 0.18819000000002006
                },
                {
                    "name": "F#6",
                    "midi": 90,
                    "time": 459.18359999999836,
                    "velocity": 0.3858267716535433,
                    "duration": 0.18819000000002006
                },
                {
                    "name": "G6",
                    "midi": 91,
                    "time": 459.4345199999984,
                    "velocity": 0.3858267716535433,
                    "duration": 0.18819000000002006
                },
                {
                    "name": "E6",
                    "midi": 88,
                    "time": 459.4345199999984,
                    "velocity": 0.3228346456692913,
                    "duration": 0.18819000000002006
                },
                {
                    "name": "G6",
                    "midi": 91,
                    "time": 459.6854399999984,
                    "velocity": 0.41732283464566927,
                    "duration": 0.5018400000000156
                },
                {
                    "name": "B6",
                    "midi": 95,
                    "time": 459.6854399999984,
                    "velocity": 0.5354330708661418,
                    "duration": 0.5018400000000156
                },
                {
                    "name": "A6",
                    "midi": 93,
                    "time": 460.1872799999984,
                    "velocity": 0.41732283464566927,
                    "duration": 0.18819000000002006
                },
                {
                    "name": "F#6",
                    "midi": 90,
                    "time": 460.1872799999984,
                    "velocity": 0.3543307086614173,
                    "duration": 0.18819000000002006
                },
                {
                    "name": "G6",
                    "midi": 91,
                    "time": 460.4381999999984,
                    "velocity": 0.41732283464566927,
                    "duration": 0.18819000000002006
                },
                {
                    "name": "E6",
                    "midi": 88,
                    "time": 460.4381999999984,
                    "velocity": 0.3543307086614173,
                    "duration": 0.18819000000002006
                },
                {
                    "name": "E6",
                    "midi": 88,
                    "time": 460.6891199999984,
                    "velocity": 0.3937007874015748,
                    "duration": 0.5018400000000156
                },
                {
                    "name": "G6",
                    "midi": 91,
                    "time": 460.6891199999984,
                    "velocity": 0.47244094488188976,
                    "duration": 0.5018400000000156
                },
                {
                    "name": "F#6",
                    "midi": 90,
                    "time": 461.1909599999984,
                    "velocity": 0.41732283464566927,
                    "duration": 0.18819000000002006
                },
                {
                    "name": "D6",
                    "midi": 86,
                    "time": 461.1909599999984,
                    "velocity": 0.3543307086614173,
                    "duration": 0.18819000000002006
                },
                {
                    "name": "C6",
                    "midi": 84,
                    "time": 461.44187999999843,
                    "velocity": 0.3543307086614173,
                    "duration": 0.18819000000002006
                },
                {
                    "name": "E6",
                    "midi": 88,
                    "time": 461.44187999999843,
                    "velocity": 0.41732283464566927,
                    "duration": 0.18819000000002006
                },
                {
                    "name": "C6",
                    "midi": 84,
                    "time": 461.69279999999844,
                    "velocity": 0.33070866141732286,
                    "duration": 0.5018400000000156
                },
                {
                    "name": "E6",
                    "midi": 88,
                    "time": 461.69279999999844,
                    "velocity": 0.3937007874015748,
                    "duration": 0.5018400000000156
                },
                {
                    "name": "F#6",
                    "midi": 90,
                    "time": 462.19463999999846,
                    "velocity": 0.3543307086614173,
                    "duration": 0.18819000000002006
                },
                {
                    "name": "D6",
                    "midi": 86,
                    "time": 462.19463999999846,
                    "velocity": 0.2992125984251969,
                    "duration": 0.18819000000002006
                },
                {
                    "name": "G6",
                    "midi": 91,
                    "time": 462.44555999999847,
                    "velocity": 0.3543307086614173,
                    "duration": 0.18819000000002006
                },
                {
                    "name": "E6",
                    "midi": 88,
                    "time": 462.44555999999847,
                    "velocity": 0.2992125984251969,
                    "duration": 0.18819000000002006
                },
                {
                    "name": "E6",
                    "midi": 88,
                    "time": 462.6964799999985,
                    "velocity": 0.33070866141732286,
                    "duration": 0.5018400000000156
                },
                {
                    "name": "G6",
                    "midi": 91,
                    "time": 462.6964799999985,
                    "velocity": 0.3937007874015748,
                    "duration": 0.5018400000000156
                },
                {
                    "name": "A6",
                    "midi": 93,
                    "time": 463.1983199999985,
                    "velocity": 0.3858267716535433,
                    "duration": 0.18819000000002006
                },
                {
                    "name": "F#6",
                    "midi": 90,
                    "time": 463.1983199999985,
                    "velocity": 0.3228346456692913,
                    "duration": 0.18819000000002006
                },
                {
                    "name": "B6",
                    "midi": 95,
                    "time": 463.4492399999985,
                    "velocity": 0.3858267716535433,
                    "duration": 0.18819000000002006
                },
                {
                    "name": "G6",
                    "midi": 91,
                    "time": 463.4492399999985,
                    "velocity": 0.3228346456692913,
                    "duration": 0.18819000000002006
                },
                {
                    "name": "B5",
                    "midi": 83,
                    "time": 463.7001599999985,
                    "velocity": 0.41732283464566927,
                    "duration": 0.4767479999999864
                },
                {
                    "name": "B6",
                    "midi": 95,
                    "time": 463.7001599999985,
                    "velocity": 0.5354330708661418,
                    "duration": 0.4767479999999864
                },
                {
                    "name": "G6",
                    "midi": 91,
                    "time": 463.7001599999985,
                    "velocity": 0.41732283464566927,
                    "duration": 0.4767479999999864
                },
                {
                    "name": "C6",
                    "midi": 84,
                    "time": 463.7001599999985,
                    "velocity": 0.41732283464566927,
                    "duration": 0.4767479999999864
                },
                {
                    "name": "C6",
                    "midi": 84,
                    "time": 464.20199999999846,
                    "velocity": 0.3543307086614173,
                    "duration": 0.18819000000002006
                },
                {
                    "name": "A6",
                    "midi": 93,
                    "time": 464.20199999999846,
                    "velocity": 0.41732283464566927,
                    "duration": 0.18819000000002006
                },
                {
                    "name": "A5",
                    "midi": 81,
                    "time": 464.20199999999846,
                    "velocity": 0.3543307086614173,
                    "duration": 0.18819000000002006
                },
                {
                    "name": "G6",
                    "midi": 91,
                    "time": 464.45291999999847,
                    "velocity": 0.41732283464566927,
                    "duration": 0.18819000000002006
                },
                {
                    "name": "C6",
                    "midi": 84,
                    "time": 464.45291999999847,
                    "velocity": 0.3543307086614173,
                    "duration": 0.18819000000002006
                },
                {
                    "name": "G5",
                    "midi": 79,
                    "time": 464.45291999999847,
                    "velocity": 0.3543307086614173,
                    "duration": 0.18819000000002006
                },
                {
                    "name": "B4",
                    "midi": 71,
                    "time": 465.7075199999985,
                    "velocity": 0.41732283464566927,
                    "duration": 0.4767479999999864
                },
                {
                    "name": "G5",
                    "midi": 79,
                    "time": 465.7075199999985,
                    "velocity": 0.5354330708661418,
                    "duration": 0.4767479999999864
                },
                {
                    "name": "C5",
                    "midi": 72,
                    "time": 465.7075199999985,
                    "velocity": 0.41732283464566927,
                    "duration": 0.4767479999999864
                },
                {
                    "name": "E5",
                    "midi": 76,
                    "time": 465.7075199999985,
                    "velocity": 0.41732283464566927,
                    "duration": 0.4767479999999864
                },
                {
                    "name": "A4",
                    "midi": 69,
                    "time": 466.20935999999847,
                    "velocity": 0.31496062992125984,
                    "duration": 0.18819000000002006
                },
                {
                    "name": "F#5",
                    "midi": 78,
                    "time": 466.20935999999847,
                    "velocity": 0.3700787401574803,
                    "duration": 0.18819000000002006
                },
                {
                    "name": "C5",
                    "midi": 72,
                    "time": 466.20935999999847,
                    "velocity": 0.31496062992125984,
                    "duration": 0.18819000000002006
                },
                {
                    "name": "A4",
                    "midi": 69,
                    "time": 466.4602799999985,
                    "velocity": 0.31496062992125984,
                    "duration": 0.18819000000002006
                },
                {
                    "name": "E5",
                    "midi": 76,
                    "time": 466.4602799999985,
                    "velocity": 0.3700787401574803,
                    "duration": 0.18819000000002006
                },
                {
                    "name": "G4",
                    "midi": 67,
                    "time": 466.4602799999985,
                    "velocity": 0.31496062992125984,
                    "duration": 0.18819000000002006
                },
                {
                    "name": "C5",
                    "midi": 72,
                    "time": 466.4602799999985,
                    "velocity": 0.31496062992125984,
                    "duration": 0.18819000000002006
                },
                {
                    "name": "B6",
                    "midi": 95,
                    "time": 467.7148799999985,
                    "velocity": 0.5354330708661418,
                    "duration": 0.4767479999999864
                },
                {
                    "name": "B5",
                    "midi": 83,
                    "time": 467.7148799999985,
                    "velocity": 0.41732283464566927,
                    "duration": 0.4767479999999864
                },
                {
                    "name": "G6",
                    "midi": 91,
                    "time": 467.7148799999985,
                    "velocity": 0.41732283464566927,
                    "duration": 0.4767479999999864
                },
                {
                    "name": "C6",
                    "midi": 84,
                    "time": 467.7148799999985,
                    "velocity": 0.41732283464566927,
                    "duration": 0.4767479999999864
                },
                {
                    "name": "A6",
                    "midi": 93,
                    "time": 468.2167199999985,
                    "velocity": 0.41732283464566927,
                    "duration": 0.18819000000002006
                },
                {
                    "name": "A5",
                    "midi": 81,
                    "time": 468.2167199999985,
                    "velocity": 0.3543307086614173,
                    "duration": 0.18819000000002006
                },
                {
                    "name": "C6",
                    "midi": 84,
                    "time": 468.2167199999985,
                    "velocity": 0.3543307086614173,
                    "duration": 0.18819000000002006
                },
                {
                    "name": "C6",
                    "midi": 84,
                    "time": 468.4676399999985,
                    "velocity": 0.3543307086614173,
                    "duration": 0.18819000000002006
                },
                {
                    "name": "G6",
                    "midi": 91,
                    "time": 468.4676399999985,
                    "velocity": 0.41732283464566927,
                    "duration": 0.18819000000002006
                },
                {
                    "name": "G5",
                    "midi": 79,
                    "time": 468.4676399999985,
                    "velocity": 0.3543307086614173,
                    "duration": 0.18819000000002006
                },
                {
                    "name": "G5",
                    "midi": 79,
                    "time": 469.7222399999985,
                    "velocity": 0.5354330708661418,
                    "duration": 0.4767479999999864
                },
                {
                    "name": "C5",
                    "midi": 72,
                    "time": 469.7222399999985,
                    "velocity": 0.41732283464566927,
                    "duration": 0.4767479999999864
                },
                {
                    "name": "B4",
                    "midi": 71,
                    "time": 469.7222399999985,
                    "velocity": 0.41732283464566927,
                    "duration": 0.4767479999999864
                },
                {
                    "name": "E5",
                    "midi": 76,
                    "time": 469.7222399999985,
                    "velocity": 0.41732283464566927,
                    "duration": 0.4767479999999864
                },
                {
                    "name": "A4",
                    "midi": 69,
                    "time": 470.2240799999985,
                    "velocity": 0.31496062992125984,
                    "duration": 0.18819000000002006
                },
                {
                    "name": "F#5",
                    "midi": 78,
                    "time": 470.2240799999985,
                    "velocity": 0.3700787401574803,
                    "duration": 0.18819000000002006
                },
                {
                    "name": "C5",
                    "midi": 72,
                    "time": 470.2240799999985,
                    "velocity": 0.31496062992125984,
                    "duration": 0.18819000000002006
                },
                {
                    "name": "A4",
                    "midi": 69,
                    "time": 470.4749999999985,
                    "velocity": 0.31496062992125984,
                    "duration": 0.18819000000002006
                },
                {
                    "name": "G4",
                    "midi": 67,
                    "time": 470.4749999999985,
                    "velocity": 0.31496062992125984,
                    "duration": 0.18819000000002006
                },
                {
                    "name": "E5",
                    "midi": 76,
                    "time": 470.4749999999985,
                    "velocity": 0.3700787401574803,
                    "duration": 0.18819000000002006
                },
                {
                    "name": "C5",
                    "midi": 72,
                    "time": 470.4749999999985,
                    "velocity": 0.31496062992125984,
                    "duration": 0.18819000000002006
                },
                {
                    "name": "C7",
                    "midi": 96,
                    "time": 471.7295999999985,
                    "velocity": 0.41732283464566927,
                    "duration": 0.4767479999999864
                },
                {
                    "name": "E7",
                    "midi": 100,
                    "time": 471.7295999999985,
                    "velocity": 0.5354330708661418,
                    "duration": 0.4767479999999864
                },
                {
                    "name": "G6",
                    "midi": 91,
                    "time": 471.7295999999985,
                    "velocity": 0.41732283464566927,
                    "duration": 0.4767479999999864
                },
                {
                    "name": "A6",
                    "midi": 93,
                    "time": 471.7295999999985,
                    "velocity": 0.41732283464566927,
                    "duration": 0.4767479999999864
                },
                {
                    "name": "C7",
                    "midi": 96,
                    "time": 472.2314399999985,
                    "velocity": 0.41732283464566927,
                    "duration": 0.18819000000002006
                },
                {
                    "name": "A6",
                    "midi": 93,
                    "time": 472.2314399999985,
                    "velocity": 0.3543307086614173,
                    "duration": 0.18819000000002006
                },
                {
                    "name": "G6",
                    "midi": 91,
                    "time": 472.2314399999985,
                    "velocity": 0.3543307086614173,
                    "duration": 0.18819000000002006
                },
                {
                    "name": "E6",
                    "midi": 88,
                    "time": 472.4823599999985,
                    "velocity": 0.3543307086614173,
                    "duration": 0.18819000000002006
                },
                {
                    "name": "G6",
                    "midi": 91,
                    "time": 472.4823599999985,
                    "velocity": 0.3543307086614173,
                    "duration": 0.18819000000002006
                },
                {
                    "name": "A6",
                    "midi": 93,
                    "time": 472.4823599999985,
                    "velocity": 0.41732283464566927,
                    "duration": 0.18819000000002006
                },
                {
                    "name": "G6",
                    "midi": 91,
                    "time": 472.7332799999985,
                    "velocity": 0.5354330708661418,
                    "duration": 0.4767479999999864
                },
                {
                    "name": "E6",
                    "midi": 88,
                    "time": 472.7332799999985,
                    "velocity": 0.41732283464566927,
                    "duration": 0.4767479999999864
                },
                {
                    "name": "C6",
                    "midi": 84,
                    "time": 472.7332799999985,
                    "velocity": 0.41732283464566927,
                    "duration": 0.4767479999999864
                },
                {
                    "name": "E6",
                    "midi": 88,
                    "time": 473.23511999999846,
                    "velocity": 0.41732283464566927,
                    "duration": 0.18819000000002006
                },
                {
                    "name": "C6",
                    "midi": 84,
                    "time": 473.23511999999846,
                    "velocity": 0.3543307086614173,
                    "duration": 0.18819000000002006
                },
                {
                    "name": "A5",
                    "midi": 81,
                    "time": 473.23511999999846,
                    "velocity": 0.3543307086614173,
                    "duration": 0.18819000000002006
                },
                {
                    "name": "G5",
                    "midi": 79,
                    "time": 473.48603999999847,
                    "velocity": 0.3543307086614173,
                    "duration": 0.18819000000002006
                },
                {
                    "name": "A5",
                    "midi": 81,
                    "time": 473.48603999999847,
                    "velocity": 0.3543307086614173,
                    "duration": 0.18819000000002006
                },
                {
                    "name": "C6",
                    "midi": 84,
                    "time": 473.48603999999847,
                    "velocity": 0.41732283464566927,
                    "duration": 0.18819000000002006
                },
                {
                    "name": "A5",
                    "midi": 81,
                    "time": 473.7369599999985,
                    "velocity": 0.5354330708661418,
                    "duration": 0.4767479999999864
                },
                {
                    "name": "G5",
                    "midi": 79,
                    "time": 473.7369599999985,
                    "velocity": 0.41732283464566927,
                    "duration": 0.4767479999999864
                },
                {
                    "name": "E5",
                    "midi": 76,
                    "time": 473.7369599999985,
                    "velocity": 0.41732283464566927,
                    "duration": 0.4767479999999864
                },
                {
                    "name": "G5",
                    "midi": 79,
                    "time": 474.23879999999843,
                    "velocity": 0.41732283464566927,
                    "duration": 0.18819000000002006
                },
                {
                    "name": "C5",
                    "midi": 72,
                    "time": 474.23879999999843,
                    "velocity": 0.3543307086614173,
                    "duration": 0.18819000000002006
                },
                {
                    "name": "E5",
                    "midi": 76,
                    "time": 474.23879999999843,
                    "velocity": 0.3543307086614173,
                    "duration": 0.18819000000002006
                },
                {
                    "name": "C5",
                    "midi": 72,
                    "time": 474.48971999999844,
                    "velocity": 0.3543307086614173,
                    "duration": 0.18819000000002006
                },
                {
                    "name": "E5",
                    "midi": 76,
                    "time": 474.48971999999844,
                    "velocity": 0.41732283464566927,
                    "duration": 0.18819000000002006
                },
                {
                    "name": "A4",
                    "midi": 69,
                    "time": 474.48971999999844,
                    "velocity": 0.3543307086614173,
                    "duration": 0.18819000000002006
                },
                {
                    "name": "C5",
                    "midi": 72,
                    "time": 474.74063999999845,
                    "velocity": 0.5354330708661418,
                    "duration": 0.4767479999999864
                },
                {
                    "name": "A4",
                    "midi": 69,
                    "time": 474.74063999999845,
                    "velocity": 0.41732283464566927,
                    "duration": 0.4767479999999864
                },
                {
                    "name": "G4",
                    "midi": 67,
                    "time": 474.74063999999845,
                    "velocity": 0.41732283464566927,
                    "duration": 0.4767479999999864
                },
                {
                    "name": "A4",
                    "midi": 69,
                    "time": 475.2424799999984,
                    "velocity": 0.41732283464566927,
                    "duration": 0.18819000000002006
                },
                {
                    "name": "E4",
                    "midi": 64,
                    "time": 475.2424799999984,
                    "velocity": 0.3543307086614173,
                    "duration": 0.18819000000002006
                },
                {
                    "name": "G4",
                    "midi": 67,
                    "time": 475.2424799999984,
                    "velocity": 0.3543307086614173,
                    "duration": 0.18819000000002006
                },
                {
                    "name": "E4",
                    "midi": 64,
                    "time": 475.4933999999984,
                    "velocity": 0.3543307086614173,
                    "duration": 0.18819000000002006
                },
                {
                    "name": "G4",
                    "midi": 67,
                    "time": 475.4933999999984,
                    "velocity": 0.41732283464566927,
                    "duration": 0.18819000000002006
                },
                {
                    "name": "C4",
                    "midi": 60,
                    "time": 475.4933999999984,
                    "velocity": 0.3543307086614173,
                    "duration": 0.18819000000002006
                },
                {
                    "name": "E4",
                    "midi": 64,
                    "time": 475.7443199999984,
                    "velocity": 0.41732283464566927,
                    "duration": 3.01103999999998
                },
                {
                    "name": "A3",
                    "midi": 57,
                    "time": 475.7443199999984,
                    "velocity": 0.41732283464566927,
                    "duration": 4.014719999999954
                },
                {
                    "name": "G3",
                    "midi": 55,
                    "time": 475.7443199999984,
                    "velocity": 0.41732283464566927,
                    "duration": 2.0073600000000056
                },
                {
                    "name": "C4",
                    "midi": 60,
                    "time": 475.7443199999984,
                    "velocity": 0.41732283464566927,
                    "duration": 4.014719999999954
                },
                {
                    "name": "F#3",
                    "midi": 54,
                    "time": 477.75167999999843,
                    "velocity": 0.41732283464566927,
                    "duration": 2.0073599999999487
                },
                {
                    "name": "D4",
                    "midi": 62,
                    "time": 478.7553599999984,
                    "velocity": 0.3858267716535433,
                    "duration": 1.0036799999999744
                },
                {
                    "name": "B4",
                    "midi": 71,
                    "time": 479.7590399999984,
                    "velocity": 0.4330708661417323,
                    "duration": 1.0036799999999744
                },
                {
                    "name": "C5",
                    "midi": 72,
                    "time": 480.76271999999835,
                    "velocity": 0.4251968503937008,
                    "duration": 0.7527600000000234
                },
                {
                    "name": "D5",
                    "midi": 74,
                    "time": 481.5154799999984,
                    "velocity": 0.33858267716535434,
                    "duration": 0.2258279999999786
                },
                {
                    "name": "D5",
                    "midi": 74,
                    "time": 481.7663999999983,
                    "velocity": 0.3700787401574803,
                    "duration": 1.0036799999999744
                },
                {
                    "name": "G5",
                    "midi": 79,
                    "time": 481.7663999999983,
                    "velocity": 0.4645669291338583,
                    "duration": 1.0036799999999744
                },
                {
                    "name": "C#5",
                    "midi": 73,
                    "time": 482.7700799999983,
                    "velocity": 0.3543307086614173,
                    "duration": 0.5018400000000156
                },
                {
                    "name": "A5",
                    "midi": 81,
                    "time": 482.7700799999983,
                    "velocity": 0.4566929133858268,
                    "duration": 0.7527600000000234
                },
                {
                    "name": "E5",
                    "midi": 76,
                    "time": 483.5228399999983,
                    "velocity": 0.2755905511811024,
                    "duration": 0.2258279999999786
                },
                {
                    "name": "B5",
                    "midi": 83,
                    "time": 483.5228399999983,
                    "velocity": 0.33858267716535434,
                    "duration": 0.2258279999999786
                },
                {
                    "name": "G5",
                    "midi": 79,
                    "time": 483.7737599999983,
                    "velocity": 0.3700787401574803,
                    "duration": 1.0036799999999744
                },
                {
                    "name": "B5",
                    "midi": 83,
                    "time": 483.7737599999983,
                    "velocity": 0.4881889763779528,
                    "duration": 1.0036799999999744
                },
                {
                    "name": "A5",
                    "midi": 81,
                    "time": 484.77743999999825,
                    "velocity": 0.4015748031496063,
                    "duration": 0.5018400000000156
                },
                {
                    "name": "F#5",
                    "midi": 78,
                    "time": 484.77743999999825,
                    "velocity": 0.33858267716535434,
                    "duration": 0.5018400000000156
                },
                {
                    "name": "C5",
                    "midi": 72,
                    "time": 485.5301999999983,
                    "velocity": 0.2755905511811024,
                    "duration": 0.2509200000000078
                },
                {
                    "name": "C6",
                    "midi": 84,
                    "time": 485.5301999999983,
                    "velocity": 0.4015748031496063,
                    "duration": 0.2509200000000078
                },
                {
                    "name": "A#4",
                    "midi": 70,
                    "time": 485.7811199999983,
                    "velocity": 0.3700787401574803,
                    "duration": 1.0036799999999744
                },
                {
                    "name": "E6",
                    "midi": 88,
                    "time": 485.7811199999983,
                    "velocity": 0.5039370078740157,
                    "duration": 1.0036799999999744
                },
                {
                    "name": "D6",
                    "midi": 86,
                    "time": 486.78479999999826,
                    "velocity": 0.4015748031496063,
                    "duration": 0.5018400000000156
                },
                {
                    "name": "B4",
                    "midi": 71,
                    "time": 486.78479999999826,
                    "velocity": 0.33858267716535434,
                    "duration": 0.5018400000000156
                },
                {
                    "name": "G4",
                    "midi": 67,
                    "time": 487.7884799999983,
                    "velocity": 0.47244094488188976,
                    "duration": 1.0036799999999744
                },
                {
                    "name": "A4",
                    "midi": 69,
                    "time": 488.79215999999826,
                    "velocity": 0.4645669291338583,
                    "duration": 0.7527600000000234
                },
                {
                    "name": "B4",
                    "midi": 71,
                    "time": 489.5449199999983,
                    "velocity": 0.3700787401574803,
                    "duration": 0.2258279999999786
                },
                {
                    "name": "B4",
                    "midi": 71,
                    "time": 489.79583999999824,
                    "velocity": 0.4015748031496063,
                    "duration": 1.0036799999999744
                },
                {
                    "name": "E5",
                    "midi": 76,
                    "time": 489.79583999999824,
                    "velocity": 0.5039370078740157,
                    "duration": 1.0036799999999744
                },
                {
                    "name": "A#4",
                    "midi": 70,
                    "time": 490.7995199999982,
                    "velocity": 0.3858267716535433,
                    "duration": 0.5018400000000156
                },
                {
                    "name": "F#5",
                    "midi": 78,
                    "time": 490.7995199999982,
                    "velocity": 0.49606299212598426,
                    "duration": 0.7527600000000234
                },
                {
                    "name": "E5",
                    "midi": 76,
                    "time": 491.55227999999823,
                    "velocity": 0.2992125984251969,
                    "duration": 0.2258279999999786
                },
                {
                    "name": "G5",
                    "midi": 79,
                    "time": 491.55227999999823,
                    "velocity": 0.3700787401574803,
                    "duration": 0.2258279999999786
                },
                {
                    "name": "G5",
                    "midi": 79,
                    "time": 491.8031999999982,
                    "velocity": 0.4015748031496063,
                    "duration": 1.0036799999999744
                },
                {
                    "name": "B5",
                    "midi": 83,
                    "time": 491.8031999999982,
                    "velocity": 0.5354330708661418,
                    "duration": 1.0036799999999744
                },
                {
                    "name": "A#5",
                    "midi": 82,
                    "time": 492.80687999999816,
                    "velocity": 0.4409448818897638,
                    "duration": 0.5018400000000156
                },
                {
                    "name": "F#5",
                    "midi": 78,
                    "time": 492.80687999999816,
                    "velocity": 0.3700787401574803,
                    "duration": 0.5018400000000156
                },
                {
                    "name": "C#5",
                    "midi": 73,
                    "time": 493.5596399999982,
                    "velocity": 0.2992125984251969,
                    "duration": 0.2509200000000078
                },
                {
                    "name": "E6",
                    "midi": 88,
                    "time": 493.5596399999982,
                    "velocity": 0.4330708661417323,
                    "duration": 0.2509200000000078
                },
                {
                    "name": "E5",
                    "midi": 76,
                    "time": 493.8105599999982,
                    "velocity": 0.3937007874015748,
                    "duration": 1.0036799999999744
                },
                {
                    "name": "C#6",
                    "midi": 85,
                    "time": 493.8105599999982,
                    "velocity": 0.5433070866141733,
                    "duration": 1.0036799999999744
                },
                {
                    "name": "D6",
                    "midi": 86,
                    "time": 494.81423999999816,
                    "velocity": 0.41732283464566927,
                    "duration": 0.5018400000000156
                },
                {
                    "name": "D5",
                    "midi": 74,
                    "time": 494.81423999999816,
                    "velocity": 0.3464566929133858,
                    "duration": 0.5018400000000156
                },
                {
                    "name": "A4",
                    "midi": 69,
                    "time": 496.31975999999815,
                    "velocity": 0.2755905511811024,
                    "duration": 0.1672800000000052
                },
                {
                    "name": "A5",
                    "midi": 81,
                    "time": 496.48703999999816,
                    "velocity": 0.23622047244094488,
                    "duration": 0.14636999999999034
                },
                {
                    "name": "A5",
                    "midi": 81,
                    "time": 496.65431999999817,
                    "velocity": 0.23622047244094488,
                    "duration": 0.1672800000000052
                },
                {
                    "name": "A6",
                    "midi": 93,
                    "time": 496.82159999999817,
                    "velocity": 0.30708661417322836,
                    "duration": 0.1672800000000052
                },
                {
                    "name": "G#6",
                    "midi": 92,
                    "time": 496.9888799999982,
                    "velocity": 0.2755905511811024,
                    "duration": 0.1672800000000052
                },
                {
                    "name": "B6",
                    "midi": 95,
                    "time": 497.1561599999982,
                    "velocity": 0.2755905511811024,
                    "duration": 0.1672800000000052
                },
                {
                    "name": "A6",
                    "midi": 93,
                    "time": 497.3234399999982,
                    "velocity": 0.30708661417322836,
                    "duration": 0.1672800000000052
                },
                {
                    "name": "F#6",
                    "midi": 90,
                    "time": 497.4907199999982,
                    "velocity": 0.2440944881889764,
                    "duration": 0.1672800000000052
                },
                {
                    "name": "A5",
                    "midi": 81,
                    "time": 497.6579999999982,
                    "velocity": 0.2440944881889764,
                    "duration": 0.1672800000000052
                },
                {
                    "name": "A4",
                    "midi": 69,
                    "time": 498.3271199999982,
                    "velocity": 0.2755905511811024,
                    "duration": 0.1672800000000052
                },
                {
                    "name": "A5",
                    "midi": 81,
                    "time": 498.4943999999982,
                    "velocity": 0.23622047244094488,
                    "duration": 0.14636999999999034
                },
                {
                    "name": "A5",
                    "midi": 81,
                    "time": 498.6616799999982,
                    "velocity": 0.23622047244094488,
                    "duration": 0.1672800000000052
                },
                {
                    "name": "A6",
                    "midi": 93,
                    "time": 498.82895999999823,
                    "velocity": 0.30708661417322836,
                    "duration": 0.1672800000000052
                },
                {
                    "name": "G#6",
                    "midi": 92,
                    "time": 498.99623999999824,
                    "velocity": 0.2755905511811024,
                    "duration": 0.1672800000000052
                },
                {
                    "name": "B6",
                    "midi": 95,
                    "time": 499.16351999999824,
                    "velocity": 0.2755905511811024,
                    "duration": 0.1672800000000052
                },
                {
                    "name": "A6",
                    "midi": 93,
                    "time": 499.33079999999825,
                    "velocity": 0.30708661417322836,
                    "duration": 0.1672800000000052
                },
                {
                    "name": "F#6",
                    "midi": 90,
                    "time": 499.49807999999825,
                    "velocity": 0.2440944881889764,
                    "duration": 0.1672800000000052
                },
                {
                    "name": "A5",
                    "midi": 81,
                    "time": 499.66535999999826,
                    "velocity": 0.2440944881889764,
                    "duration": 0.1672800000000052
                },
                {
                    "name": "A4",
                    "midi": 69,
                    "time": 499.83263999999826,
                    "velocity": 0.23622047244094488,
                    "duration": 1.0036800000000312
                },
                {
                    "name": "F#4",
                    "midi": 66,
                    "time": 499.83263999999826,
                    "velocity": 0.23622047244094488,
                    "duration": 0.9879975000000059
                },
                {
                    "name": "D4",
                    "midi": 62,
                    "time": 500.8363199999983,
                    "velocity": 0.1889763779527559,
                    "duration": 0.7527600000000234
                },
                {
                    "name": "F#4",
                    "midi": 66,
                    "time": 500.8363199999983,
                    "velocity": 0.2283464566929134,
                    "duration": 0.7527600000000234
                },
                {
                    "name": "A3",
                    "midi": 57,
                    "time": 501.5890799999983,
                    "velocity": 0.14960629921259844,
                    "duration": 0.2509200000000078
                },
                {
                    "name": "E4",
                    "midi": 64,
                    "time": 501.5890799999983,
                    "velocity": 0.18110236220472442,
                    "duration": 0.2509200000000078
                },
                {
                    "name": "F#4",
                    "midi": 66,
                    "time": 501.8399999999983,
                    "velocity": 0.23622047244094488,
                    "duration": 0.9827700000000164
                },
                {
                    "name": "A4",
                    "midi": 69,
                    "time": 501.8399999999983,
                    "velocity": 0.23622047244094488,
                    "duration": 1.0036800000000312
                },
                {
                    "name": "D4",
                    "midi": 62,
                    "time": 502.84367999999836,
                    "velocity": 0.1889763779527559,
                    "duration": 0.7527600000000234
                },
                {
                    "name": "F#4",
                    "midi": 66,
                    "time": 502.84367999999836,
                    "velocity": 0.2283464566929134,
                    "duration": 0.7527600000000234
                },
                {
                    "name": "A3",
                    "midi": 57,
                    "time": 503.5964399999984,
                    "velocity": 0.14960629921259844,
                    "duration": 0.2509200000000078
                },
                {
                    "name": "E4",
                    "midi": 64,
                    "time": 503.5964399999984,
                    "velocity": 0.18110236220472442,
                    "duration": 0.2509200000000078
                },
                {
                    "name": "A4",
                    "midi": 69,
                    "time": 504.3491999999984,
                    "velocity": 0.2755905511811024,
                    "duration": 0.1672800000000052
                },
                {
                    "name": "A5",
                    "midi": 81,
                    "time": 504.5164799999984,
                    "velocity": 0.23622047244094488,
                    "duration": 0.14636999999999034
                },
                {
                    "name": "A5",
                    "midi": 81,
                    "time": 504.6837599999984,
                    "velocity": 0.23622047244094488,
                    "duration": 0.1672800000000052
                },
                {
                    "name": "A6",
                    "midi": 93,
                    "time": 504.8510399999984,
                    "velocity": 0.30708661417322836,
                    "duration": 0.1672800000000052
                },
                {
                    "name": "G#6",
                    "midi": 92,
                    "time": 505.0183199999984,
                    "velocity": 0.2755905511811024,
                    "duration": 0.1672800000000052
                },
                {
                    "name": "B6",
                    "midi": 95,
                    "time": 505.18559999999843,
                    "velocity": 0.2755905511811024,
                    "duration": 0.1672800000000052
                },
                {
                    "name": "A6",
                    "midi": 93,
                    "time": 505.35287999999844,
                    "velocity": 0.30708661417322836,
                    "duration": 0.1672800000000052
                },
                {
                    "name": "F#6",
                    "midi": 90,
                    "time": 505.52015999999844,
                    "velocity": 0.2440944881889764,
                    "duration": 0.1672800000000052
                },
                {
                    "name": "A5",
                    "midi": 81,
                    "time": 505.68743999999845,
                    "velocity": 0.2440944881889764,
                    "duration": 0.1672800000000052
                },
                {
                    "name": "A4",
                    "midi": 69,
                    "time": 506.35655999999847,
                    "velocity": 0.2755905511811024,
                    "duration": 0.1672800000000052
                },
                {
                    "name": "A5",
                    "midi": 81,
                    "time": 506.5238399999985,
                    "velocity": 0.23622047244094488,
                    "duration": 0.14636999999999034
                },
                {
                    "name": "A5",
                    "midi": 81,
                    "time": 506.6911199999985,
                    "velocity": 0.23622047244094488,
                    "duration": 0.1672800000000052
                },
                {
                    "name": "A6",
                    "midi": 93,
                    "time": 506.8583999999985,
                    "velocity": 0.30708661417322836,
                    "duration": 0.1672800000000052
                },
                {
                    "name": "G#6",
                    "midi": 92,
                    "time": 507.0256799999985,
                    "velocity": 0.2755905511811024,
                    "duration": 0.1672800000000052
                },
                {
                    "name": "B6",
                    "midi": 95,
                    "time": 507.1929599999985,
                    "velocity": 0.2755905511811024,
                    "duration": 0.1672800000000052
                },
                {
                    "name": "A6",
                    "midi": 93,
                    "time": 507.3602399999985,
                    "velocity": 0.30708661417322836,
                    "duration": 0.1672800000000052
                },
                {
                    "name": "E6",
                    "midi": 88,
                    "time": 507.5275199999985,
                    "velocity": 0.2440944881889764,
                    "duration": 0.1672800000000052
                },
                {
                    "name": "A5",
                    "midi": 81,
                    "time": 507.6947999999985,
                    "velocity": 0.2440944881889764,
                    "duration": 0.1672800000000052
                },
                {
                    "name": "C#5",
                    "midi": 73,
                    "time": 508.36391999999853,
                    "velocity": 0.2992125984251969,
                    "duration": 0.1672800000000052
                },
                {
                    "name": "C#6",
                    "midi": 85,
                    "time": 508.53119999999853,
                    "velocity": 0.25984251968503935,
                    "duration": 0.14636999999999034
                },
                {
                    "name": "C#6",
                    "midi": 85,
                    "time": 508.69847999999854,
                    "velocity": 0.25984251968503935,
                    "duration": 0.1672800000000052
                },
                {
                    "name": "B6",
                    "midi": 95,
                    "time": 508.86575999999855,
                    "velocity": 0.33070866141732286,
                    "duration": 0.1672800000000052
                },
                {
                    "name": "A#6",
                    "midi": 94,
                    "time": 509.03303999999855,
                    "velocity": 0.2992125984251969,
                    "duration": 0.1672800000000052
                },
                {
                    "name": "C#7",
                    "midi": 97,
                    "time": 509.20031999999856,
                    "velocity": 0.2992125984251969,
                    "duration": 0.1672800000000052
                },
                {
                    "name": "B6",
                    "midi": 95,
                    "time": 509.36759999999856,
                    "velocity": 0.33070866141732286,
                    "duration": 0.1672800000000052
                },
                {
                    "name": "G6",
                    "midi": 91,
                    "time": 509.53487999999857,
                    "velocity": 0.2677165354330709,
                    "duration": 0.1672800000000052
                },
                {
                    "name": "E6",
                    "midi": 88,
                    "time": 509.70215999999857,
                    "velocity": 0.2677165354330709,
                    "duration": 0.1672800000000052
                },
                {
                    "name": "C#5",
                    "midi": 73,
                    "time": 510.3712799999986,
                    "velocity": 0.2992125984251969,
                    "duration": 0.1672800000000052
                },
                {
                    "name": "C#6",
                    "midi": 85,
                    "time": 510.5385599999986,
                    "velocity": 0.25984251968503935,
                    "duration": 0.14636999999999034
                },
                {
                    "name": "C#6",
                    "midi": 85,
                    "time": 510.7058399999986,
                    "velocity": 0.25984251968503935,
                    "duration": 0.1672800000000052
                },
                {
                    "name": "B6",
                    "midi": 95,
                    "time": 510.8731199999986,
                    "velocity": 0.33070866141732286,
                    "duration": 0.1672800000000052
                },
                {
                    "name": "A#6",
                    "midi": 94,
                    "time": 511.0403999999986,
                    "velocity": 0.2992125984251969,
                    "duration": 0.1672800000000052
                },
                {
                    "name": "C#7",
                    "midi": 97,
                    "time": 511.2076799999986,
                    "velocity": 0.2992125984251969,
                    "duration": 0.1672800000000052
                },
                {
                    "name": "B6",
                    "midi": 95,
                    "time": 511.3749599999986,
                    "velocity": 0.33070866141732286,
                    "duration": 0.1672800000000052
                },
                {
                    "name": "G6",
                    "midi": 91,
                    "time": 511.5422399999986,
                    "velocity": 0.2677165354330709,
                    "duration": 0.1672800000000052
                },
                {
                    "name": "E6",
                    "midi": 88,
                    "time": 511.70951999999863,
                    "velocity": 0.2677165354330709,
                    "duration": 0.1672800000000052
                },
                {
                    "name": "C#5",
                    "midi": 73,
                    "time": 512.3786399999987,
                    "velocity": 0.2992125984251969,
                    "duration": 0.1672800000000052
                },
                {
                    "name": "C#6",
                    "midi": 85,
                    "time": 512.5459199999987,
                    "velocity": 0.25984251968503935,
                    "duration": 0.14637000000004718
                },
                {
                    "name": "C#6",
                    "midi": 85,
                    "time": 512.7131999999987,
                    "velocity": 0.25984251968503935,
                    "duration": 0.1672800000000052
                },
                {
                    "name": "A#6",
                    "midi": 94,
                    "time": 512.8804799999987,
                    "velocity": 0.33070866141732286,
                    "duration": 0.1672800000000052
                },
                {
                    "name": "A6",
                    "midi": 93,
                    "time": 513.0477599999987,
                    "velocity": 0.2992125984251969,
                    "duration": 0.1672800000000052
                },
                {
                    "name": "C7",
                    "midi": 96,
                    "time": 513.2150399999987,
                    "velocity": 0.2992125984251969,
                    "duration": 0.1672800000000052
                },
                {
                    "name": "A#6",
                    "midi": 94,
                    "time": 513.3823199999987,
                    "velocity": 0.33070866141732286,
                    "duration": 0.1672800000000052
                },
                {
                    "name": "G6",
                    "midi": 91,
                    "time": 513.5495999999987,
                    "velocity": 0.2677165354330709,
                    "duration": 0.1672800000000052
                },
                {
                    "name": "E6",
                    "midi": 88,
                    "time": 513.7168799999987,
                    "velocity": 0.2677165354330709,
                    "duration": 0.1672800000000052
                },
                {
                    "name": "C#6",
                    "midi": 85,
                    "time": 514.0514399999987,
                    "velocity": 0.3543307086614173,
                    "duration": 0.1672800000000052
                },
                {
                    "name": "C7",
                    "midi": 96,
                    "time": 514.2187199999987,
                    "velocity": 0.3543307086614173,
                    "duration": 0.1672800000000052
                },
                {
                    "name": "A#6",
                    "midi": 94,
                    "time": 514.3859999999987,
                    "velocity": 0.4015748031496063,
                    "duration": 0.1672800000000052
                },
                {
                    "name": "G6",
                    "midi": 91,
                    "time": 514.5532799999987,
                    "velocity": 0.33070866141732286,
                    "duration": 0.1672800000000052
                },
                {
                    "name": "E6",
                    "midi": 88,
                    "time": 514.7205599999987,
                    "velocity": 0.33070866141732286,
                    "duration": 0.1672800000000052
                },
                {
                    "name": "C#6",
                    "midi": 85,
                    "time": 515.0551199999987,
                    "velocity": 0.3779527559055118,
                    "duration": 0.1672800000000052
                },
                {
                    "name": "C7",
                    "midi": 96,
                    "time": 515.2223999999987,
                    "velocity": 0.3858267716535433,
                    "duration": 0.1672800000000052
                },
                {
                    "name": "A#6",
                    "midi": 94,
                    "time": 515.3896799999987,
                    "velocity": 0.4330708661417323,
                    "duration": 0.1672800000000052
                },
                {
                    "name": "G6",
                    "midi": 91,
                    "time": 515.5569599999988,
                    "velocity": 0.3858267716535433,
                    "duration": 0.1672800000000052
                },
                {
                    "name": "E6",
                    "midi": 88,
                    "time": 515.7242399999988,
                    "velocity": 0.3858267716535433,
                    "duration": 0.1672800000000052
                },
                {
                    "name": "A#6",
                    "midi": 94,
                    "time": 515.8915199999988,
                    "velocity": 0.5118110236220472,
                    "duration": 0.1672800000000052
                },
                {
                    "name": "G6",
                    "midi": 91,
                    "time": 516.0587999999988,
                    "velocity": 0.41732283464566927,
                    "duration": 0.1672800000000052
                },
                {
                    "name": "E6",
                    "midi": 88,
                    "time": 516.2260799999988,
                    "velocity": 0.4409448818897638,
                    "duration": 0.1672800000000052
                },
                {
                    "name": "A#6",
                    "midi": 94,
                    "time": 516.3933599999988,
                    "velocity": 0.5511811023622047,
                    "duration": 0.1672800000000052
                },
                {
                    "name": "G6",
                    "midi": 91,
                    "time": 516.5606399999988,
                    "velocity": 0.47244094488188976,
                    "duration": 0.1672800000000052
                },
                {
                    "name": "E6",
                    "midi": 88,
                    "time": 516.7279199999988,
                    "velocity": 0.48031496062992124,
                    "duration": 0.1672800000000052
                },
                {
                    "name": "A#6",
                    "midi": 94,
                    "time": 516.8951999999988,
                    "velocity": 0.6220472440944882,
                    "duration": 0.1672800000000052
                },
                {
                    "name": "G6",
                    "midi": 91,
                    "time": 517.0624799999988,
                    "velocity": 0.5118110236220472,
                    "duration": 0.1672800000000052
                },
                {
                    "name": "E6",
                    "midi": 88,
                    "time": 517.2297599999988,
                    "velocity": 0.5354330708661418,
                    "duration": 0.1672800000000052
                },
                {
                    "name": "A#6",
                    "midi": 94,
                    "time": 517.3970399999988,
                    "velocity": 0.6771653543307087,
                    "duration": 0.1672800000000052
                },
                {
                    "name": "G6",
                    "midi": 91,
                    "time": 517.5643199999988,
                    "velocity": 0.5669291338582677,
                    "duration": 0.1672800000000052
                },
                {
                    "name": "E6",
                    "midi": 88,
                    "time": 517.7315999999988,
                    "velocity": 0.5826771653543307,
                    "duration": 0.1672800000000052
                },
                {
                    "name": "A#5",
                    "midi": 82,
                    "time": 517.8988799999988,
                    "velocity": 0.6062992125984252,
                    "duration": 0.1672800000000052
                },
                {
                    "name": "A#6",
                    "midi": 94,
                    "time": 517.8988799999988,
                    "velocity": 0.7165354330708661,
                    "duration": 0.1672800000000052
                },
                {
                    "name": "G6",
                    "midi": 91,
                    "time": 518.0661599999988,
                    "velocity": 0.6220472440944882,
                    "duration": 0.1672800000000052
                },
                {
                    "name": "E6",
                    "midi": 88,
                    "time": 518.2334399999988,
                    "velocity": 0.6299212598425197,
                    "duration": 0.1672800000000052
                },
                {
                    "name": "A#5",
                    "midi": 82,
                    "time": 518.4007199999988,
                    "velocity": 0.6299212598425197,
                    "duration": 0.1672800000000052
                },
                {
                    "name": "A#6",
                    "midi": 94,
                    "time": 518.4007199999988,
                    "velocity": 0.7401574803149606,
                    "duration": 0.1672800000000052
                },
                {
                    "name": "G6",
                    "midi": 91,
                    "time": 518.5679999999988,
                    "velocity": 0.6456692913385826,
                    "duration": 0.1672800000000052
                },
                {
                    "name": "E6",
                    "midi": 88,
                    "time": 518.7352799999989,
                    "velocity": 0.6535433070866141,
                    "duration": 0.1672800000000052
                },
                {
                    "name": "A#5",
                    "midi": 82,
                    "time": 518.9025599999989,
                    "velocity": 0.6456692913385826,
                    "duration": 0.1672800000000052
                },
                {
                    "name": "A#6",
                    "midi": 94,
                    "time": 518.9025599999989,
                    "velocity": 0.7637795275590551,
                    "duration": 0.1672800000000052
                },
                {
                    "name": "G6",
                    "midi": 91,
                    "time": 519.0698399999989,
                    "velocity": 0.6771653543307087,
                    "duration": 0.1672800000000052
                },
                {
                    "name": "E6",
                    "midi": 88,
                    "time": 519.2371199999989,
                    "velocity": 0.6771653543307087,
                    "duration": 0.1672800000000052
                },
                {
                    "name": "A#5",
                    "midi": 82,
                    "time": 519.4043999999989,
                    "velocity": 0.6692913385826772,
                    "duration": 0.1672800000000052
                },
                {
                    "name": "A#6",
                    "midi": 94,
                    "time": 519.4043999999989,
                    "velocity": 0.7952755905511811,
                    "duration": 0.1672800000000052
                },
                {
                    "name": "G6",
                    "midi": 91,
                    "time": 519.5716799999989,
                    "velocity": 0.6929133858267716,
                    "duration": 0.1672800000000052
                },
                {
                    "name": "E6",
                    "midi": 88,
                    "time": 519.7389599999989,
                    "velocity": 0.7007874015748031,
                    "duration": 0.1672800000000052
                },
                {
                    "name": "A#5",
                    "midi": 82,
                    "time": 519.9062399999989,
                    "velocity": 0.7165354330708661,
                    "duration": 0.7527599999999666
                },
                {
                    "name": "E6",
                    "midi": 88,
                    "time": 519.9062399999989,
                    "velocity": 0.7165354330708661,
                    "duration": 0.7527599999999666
                },
                {
                    "name": "G6",
                    "midi": 91,
                    "time": 519.9062399999989,
                    "velocity": 0.7165354330708661,
                    "duration": 0.7527599999999666
                },
                {
                    "name": "A#6",
                    "midi": 94,
                    "time": 519.9062399999989,
                    "velocity": 0.8661417322834646,
                    "duration": 0.7527599999999666
                },
                {
                    "name": "A#3",
                    "midi": 58,
                    "time": 520.6589999999989,
                    "velocity": 0.5511811023622047,
                    "duration": 0.2258279999999786
                },
                {
                    "name": "E4",
                    "midi": 64,
                    "time": 520.6589999999989,
                    "velocity": 0.6614173228346457,
                    "duration": 0.2258279999999786
                },
                {
                    "name": "E3",
                    "midi": 52,
                    "time": 520.6589999999989,
                    "velocity": 0.5511811023622047,
                    "duration": 0.2258279999999786
                },
                {
                    "name": "C4",
                    "midi": 60,
                    "time": 520.6589999999989,
                    "velocity": 0.5511811023622047,
                    "duration": 0.2258279999999786
                },
                {
                    "name": "A#3",
                    "midi": 58,
                    "time": 520.9099199999988,
                    "velocity": 0.5826771653543307,
                    "duration": 0.5018400000000156
                },
                {
                    "name": "E3",
                    "midi": 52,
                    "time": 520.9099199999988,
                    "velocity": 0.5826771653543307,
                    "duration": 0.5018400000000156
                },
                {
                    "name": "E4",
                    "midi": 64,
                    "time": 520.9099199999988,
                    "velocity": 0.7007874015748031,
                    "duration": 0.5018400000000156
                },
                {
                    "name": "C4",
                    "midi": 60,
                    "time": 520.9099199999988,
                    "velocity": 0.5826771653543307,
                    "duration": 0.5018400000000156
                },
                {
                    "name": "F4",
                    "midi": 65,
                    "time": 521.4117599999988,
                    "velocity": 0.6692913385826772,
                    "duration": 0.12545999999997548
                },
                {
                    "name": "F3",
                    "midi": 53,
                    "time": 521.4117599999988,
                    "velocity": 0.5669291338582677,
                    "duration": 0.12545999999997548
                },
                {
                    "name": "C4",
                    "midi": 60,
                    "time": 521.4117599999988,
                    "velocity": 0.5669291338582677,
                    "duration": 0.12545999999997548
                },
                {
                    "name": "G3",
                    "midi": 55,
                    "time": 521.6626799999988,
                    "velocity": 0.5905511811023622,
                    "duration": 0.12545999999997548
                },
                {
                    "name": "C4",
                    "midi": 60,
                    "time": 521.6626799999988,
                    "velocity": 0.5905511811023622,
                    "duration": 0.12545999999997548
                },
                {
                    "name": "G4",
                    "midi": 67,
                    "time": 521.6626799999988,
                    "velocity": 0.7086614173228346,
                    "duration": 0.12545999999997548
                },
                {
                    "name": "A4",
                    "midi": 69,
                    "time": 521.9135999999987,
                    "velocity": 0.7322834645669292,
                    "duration": 0.12545999999997548
                },
                {
                    "name": "C4",
                    "midi": 60,
                    "time": 521.9135999999987,
                    "velocity": 0.6220472440944882,
                    "duration": 0.12545999999997548
                },
                {
                    "name": "A3",
                    "midi": 57,
                    "time": 521.9135999999987,
                    "velocity": 0.5748031496062992,
                    "duration": 0.12545999999997548
                },
                {
                    "name": "C4",
                    "midi": 60,
                    "time": 522.4154399999987,
                    "velocity": 0.5826771653543307,
                    "duration": 0.12545999999997548
                },
                {
                    "name": "G3",
                    "midi": 55,
                    "time": 522.4154399999987,
                    "velocity": 0.5433070866141733,
                    "duration": 0.12545999999997548
                },
                {
                    "name": "G4",
                    "midi": 67,
                    "time": 522.4154399999987,
                    "velocity": 0.7007874015748031,
                    "duration": 0.12545999999997548
                },
                {
                    "name": "A#3",
                    "midi": 58,
                    "time": 523.6700399999987,
                    "velocity": 0.5511811023622047,
                    "duration": 0.2258279999999786
                },
                {
                    "name": "C4",
                    "midi": 60,
                    "time": 523.6700399999987,
                    "velocity": 0.5511811023622047,
                    "duration": 0.2258279999999786
                },
                {
                    "name": "E3",
                    "midi": 52,
                    "time": 523.6700399999987,
                    "velocity": 0.5511811023622047,
                    "duration": 0.2258279999999786
                },
                {
                    "name": "E4",
                    "midi": 64,
                    "time": 523.6700399999987,
                    "velocity": 0.6614173228346457,
                    "duration": 0.2258279999999786
                },
                {
                    "name": "A#3",
                    "midi": 58,
                    "time": 523.9209599999987,
                    "velocity": 0.6141732283464567,
                    "duration": 0.5018400000000156
                },
                {
                    "name": "E4",
                    "midi": 64,
                    "time": 523.9209599999987,
                    "velocity": 0.7244094488188977,
                    "duration": 0.5018400000000156
                },
                {
                    "name": "E3",
                    "midi": 52,
                    "time": 523.9209599999987,
                    "velocity": 0.6141732283464567,
                    "duration": 0.5018400000000156
                },
                {
                    "name": "C4",
                    "midi": 60,
                    "time": 523.9209599999987,
                    "velocity": 0.6141732283464567,
                    "duration": 0.5018400000000156
                },
                {
                    "name": "F4",
                    "midi": 65,
                    "time": 524.4227999999987,
                    "velocity": 0.7244094488188977,
                    "duration": 0.12545999999997548
                },
                {
                    "name": "C4",
                    "midi": 60,
                    "time": 524.4227999999987,
                    "velocity": 0.6141732283464567,
                    "duration": 0.12545999999997548
                },
                {
                    "name": "F3",
                    "midi": 53,
                    "time": 524.4227999999987,
                    "velocity": 0.6141732283464567,
                    "duration": 0.12545999999997548
                },
                {
                    "name": "C4",
                    "midi": 60,
                    "time": 524.6737199999986,
                    "velocity": 0.6377952755905512,
                    "duration": 0.12545999999997548
                },
                {
                    "name": "G3",
                    "midi": 55,
                    "time": 524.6737199999986,
                    "velocity": 0.6377952755905512,
                    "duration": 0.12545999999997548
                },
                {
                    "name": "G4",
                    "midi": 67,
                    "time": 524.6737199999986,
                    "velocity": 0.7559055118110236,
                    "duration": 0.12545999999997548
                },
                {
                    "name": "C4",
                    "midi": 60,
                    "time": 524.9246399999986,
                    "velocity": 0.6614173228346457,
                    "duration": 0.5018400000000156
                },
                {
                    "name": "A3",
                    "midi": 57,
                    "time": 524.9246399999986,
                    "velocity": 0.6614173228346457,
                    "duration": 0.5018400000000156
                },
                {
                    "name": "A4",
                    "midi": 69,
                    "time": 524.9246399999986,
                    "velocity": 0.7874015748031497,
                    "duration": 0.5018400000000156
                },
                {
                    "name": "G3",
                    "midi": 55,
                    "time": 525.4264799999986,
                    "velocity": 0.6377952755905512,
                    "duration": 0.12545999999997548
                },
                {
                    "name": "G4",
                    "midi": 67,
                    "time": 525.4264799999986,
                    "velocity": 0.7637795275590551,
                    "duration": 0.12545999999997548
                },
                {
                    "name": "C4",
                    "midi": 60,
                    "time": 525.4264799999986,
                    "velocity": 0.6377952755905512,
                    "duration": 0.12545999999997548
                },
                {
                    "name": "C4",
                    "midi": 60,
                    "time": 525.6773999999986,
                    "velocity": 0.6614173228346457,
                    "duration": 0.12545999999997548
                },
                {
                    "name": "A3",
                    "midi": 57,
                    "time": 525.6773999999986,
                    "velocity": 0.6614173228346457,
                    "duration": 0.12545999999997548
                },
                {
                    "name": "A4",
                    "midi": 69,
                    "time": 525.6773999999986,
                    "velocity": 0.7874015748031497,
                    "duration": 0.12545999999997548
                },
                {
                    "name": "A#3",
                    "midi": 58,
                    "time": 525.9283199999985,
                    "velocity": 0.6771653543307087,
                    "duration": 0.12545999999997548
                },
                {
                    "name": "A#4",
                    "midi": 70,
                    "time": 525.9283199999985,
                    "velocity": 0.8031496062992126,
                    "duration": 0.12545999999997548
                },
                {
                    "name": "C4",
                    "midi": 60,
                    "time": 525.9283199999985,
                    "velocity": 0.6771653543307087,
                    "duration": 0.12545999999997548
                },
                {
                    "name": "A3",
                    "midi": 57,
                    "time": 526.4301599999985,
                    "velocity": 0.6377952755905512,
                    "duration": 0.12545999999997548
                },
                {
                    "name": "A4",
                    "midi": 69,
                    "time": 526.4301599999985,
                    "velocity": 0.7637795275590551,
                    "duration": 0.12545999999997548
                },
                {
                    "name": "C4",
                    "midi": 60,
                    "time": 526.4301599999985,
                    "velocity": 0.6377952755905512,
                    "duration": 0.12545999999997548
                },
                {
                    "name": "G4",
                    "midi": 67,
                    "time": 527.4338399999986,
                    "velocity": 0.5590551181102362,
                    "duration": 0.12545999999997548
                },
                {
                    "name": "C4",
                    "midi": 60,
                    "time": 527.4338399999986,
                    "velocity": 0.47244094488188976,
                    "duration": 0.12545999999997548
                },
                {
                    "name": "G3",
                    "midi": 55,
                    "time": 527.4338399999986,
                    "velocity": 0.47244094488188976,
                    "duration": 0.12545999999997548
                },
                {
                    "name": "C4",
                    "midi": 60,
                    "time": 527.6847599999985,
                    "velocity": 0.49606299212598426,
                    "duration": 0.12545999999997548
                },
                {
                    "name": "A3",
                    "midi": 57,
                    "time": 527.6847599999985,
                    "velocity": 0.49606299212598426,
                    "duration": 0.12545999999997548
                },
                {
                    "name": "A4",
                    "midi": 69,
                    "time": 527.6847599999985,
                    "velocity": 0.5905511811023622,
                    "duration": 0.12545999999997548
                },
                {
                    "name": "G4",
                    "midi": 67,
                    "time": 527.9356799999985,
                    "velocity": 0.5196850393700787,
                    "duration": 0.12545999999997548
                },
                {
                    "name": "B3",
                    "midi": 59,
                    "time": 527.9356799999985,
                    "velocity": 0.5196850393700787,
                    "duration": 0.12545999999997548
                },
                {
                    "name": "B4",
                    "midi": 71,
                    "time": 527.9356799999985,
                    "velocity": 0.6141732283464567,
                    "duration": 0.12545999999997548
                },
                {
                    "name": "F4",
                    "midi": 65,
                    "time": 527.9356799999985,
                    "velocity": 0.5196850393700787,
                    "duration": 0.12545999999997548
                },
                {
                    "name": "G4",
                    "midi": 67,
                    "time": 528.4375199999985,
                    "velocity": 0.5354330708661418,
                    "duration": 0.12545999999997548
                },
                {
                    "name": "C4",
                    "midi": 60,
                    "time": 528.4375199999985,
                    "velocity": 0.5354330708661418,
                    "duration": 0.12545999999997548
                },
                {
                    "name": "E4",
                    "midi": 64,
                    "time": 528.4375199999985,
                    "velocity": 0.5354330708661418,
                    "duration": 0.12545999999997548
                },
                {
                    "name": "C5",
                    "midi": 72,
                    "time": 528.4375199999985,
                    "velocity": 0.6299212598425197,
                    "duration": 0.12545999999997548
                },
                {
                    "name": "D5",
                    "midi": 74,
                    "time": 528.9393599999985,
                    "velocity": 0.6456692913385826,
                    "duration": 0.12545999999997548
                },
                {
                    "name": "G4",
                    "midi": 67,
                    "time": 528.9393599999985,
                    "velocity": 0.5433070866141733,
                    "duration": 0.12545999999997548
                },
                {
                    "name": "D4",
                    "midi": 62,
                    "time": 528.9393599999985,
                    "velocity": 0.5433070866141733,
                    "duration": 0.12545999999997548
                },
                {
                    "name": "E4",
                    "midi": 64,
                    "time": 529.4411999999985,
                    "velocity": 0.5590551181102362,
                    "duration": 0.12545999999997548
                },
                {
                    "name": "E5",
                    "midi": 76,
                    "time": 529.4411999999985,
                    "velocity": 0.6614173228346457,
                    "duration": 0.12545999999997548
                },
                {
                    "name": "G4",
                    "midi": 67,
                    "time": 529.4411999999985,
                    "velocity": 0.5590551181102362,
                    "duration": 0.12545999999997548
                },
                {
                    "name": "F#5",
                    "midi": 78,
                    "time": 529.9430399999985,
                    "velocity": 0.6141732283464567,
                    "duration": 0.08363999999994576
                },
                {
                    "name": "D5",
                    "midi": 74,
                    "time": 529.9430399999985,
                    "velocity": 0.5669291338582677,
                    "duration": 1.0036799999994628
                },
                {
                    "name": "C5",
                    "midi": 72,
                    "time": 529.9430399999985,
                    "velocity": 0.5669291338582677,
                    "duration": 1.0036799999994628
                },
                {
                    "name": "G5",
                    "midi": 79,
                    "time": 530.0266799999985,
                    "velocity": 0.5748031496062992,
                    "duration": 0.08363999999994576
                },
                {
                    "name": "F#5",
                    "midi": 78,
                    "time": 530.1103199999984,
                    "velocity": 0.6299212598425197,
                    "duration": 0.08363999999994576
                },
                {
                    "name": "G5",
                    "midi": 79,
                    "time": 530.1939599999984,
                    "velocity": 0.5905511811023622,
                    "duration": 0.08363999999994576
                },
                {
                    "name": "F#5",
                    "midi": 78,
                    "time": 530.2775999999983,
                    "velocity": 0.6456692913385826,
                    "duration": 0.08363999999994576
                },
                {
                    "name": "G5",
                    "midi": 79,
                    "time": 530.3612399999982,
                    "velocity": 0.6141732283464567,
                    "duration": 0.08363999999994576
                },
                {
                    "name": "F#5",
                    "midi": 78,
                    "time": 530.4448799999982,
                    "velocity": 0.6614173228346457,
                    "duration": 0.08363999999994576
                },
                {
                    "name": "G5",
                    "midi": 79,
                    "time": 530.5285199999981,
                    "velocity": 0.6377952755905512,
                    "duration": 0.08363999999994576
                },
                {
                    "name": "F#5",
                    "midi": 78,
                    "time": 530.6121599999981,
                    "velocity": 0.6771653543307087,
                    "duration": 0.08363999999994576
                },
                {
                    "name": "G5",
                    "midi": 79,
                    "time": 530.695799999998,
                    "velocity": 0.6614173228346457,
                    "duration": 0.06272999999998774
                },
                {
                    "name": "F#5",
                    "midi": 78,
                    "time": 530.758529999998,
                    "velocity": 0.7007874015748031,
                    "duration": 0.06272999999998774
                },
                {
                    "name": "E5",
                    "midi": 76,
                    "time": 530.821259999998,
                    "velocity": 0.6614173228346457,
                    "duration": 0.06272999999998774
                },
                {
                    "name": "F#5",
                    "midi": 78,
                    "time": 530.883989999998,
                    "velocity": 0.6692913385826772,
                    "duration": 0.06272999999998774
                },
                {
                    "name": "B4",
                    "midi": 71,
                    "time": 530.946719999998,
                    "velocity": 0.6220472440944882,
                    "duration": 0.5018400000000156
                },
                {
                    "name": "G5",
                    "midi": 79,
                    "time": 530.946719999998,
                    "velocity": 0.7322834645669292,
                    "duration": 0.5018400000000156
                },
                {
                    "name": "D5",
                    "midi": 74,
                    "time": 531.448559999998,
                    "velocity": 0.6535433070866141,
                    "duration": 0.12545999999997548
                },
                {
                    "name": "F#5",
                    "midi": 78,
                    "time": 531.699479999998,
                    "velocity": 0.5905511811023622,
                    "duration": 0.12545999999997548
                },
                {
                    "name": "G5",
                    "midi": 79,
                    "time": 531.9503999999979,
                    "velocity": 0.6535433070866141,
                    "duration": 0.12545999999997548
                },
                {
                    "name": "D4",
                    "midi": 62,
                    "time": 532.4522399999979,
                    "velocity": 0.5196850393700787,
                    "duration": 0.12545999999997548
                },
                {
                    "name": "F#4",
                    "midi": 66,
                    "time": 532.7031599999979,
                    "velocity": 0.47244094488188976,
                    "duration": 0.12545999999997548
                },
                {
                    "name": "G4",
                    "midi": 67,
                    "time": 532.9540799999978,
                    "velocity": 0.5196850393700787,
                    "duration": 0.12545999999997548
                },
                {
                    "name": "D3",
                    "midi": 50,
                    "time": 533.4559199999978,
                    "velocity": 0.5433070866141733,
                    "duration": 0.12545999999997548
                },
                {
                    "name": "F#3",
                    "midi": 54,
                    "time": 533.7068399999978,
                    "velocity": 0.48031496062992124,
                    "duration": 0.12545999999997548
                },
                {
                    "name": "G3",
                    "midi": 55,
                    "time": 533.9577599999977,
                    "velocity": 0.5118110236220472,
                    "duration": 0.12545999999997548
                },
                {
                    "name": "B3",
                    "midi": 59,
                    "time": 534.0832199999977,
                    "velocity": 0.5118110236220472,
                    "duration": 0.12545999999997548
                },
                {
                    "name": "C4",
                    "midi": 60,
                    "time": 534.2086799999977,
                    "velocity": 0.5196850393700787,
                    "duration": 0.12545999999997548
                },
                {
                    "name": "D4",
                    "midi": 62,
                    "time": 534.3341399999977,
                    "velocity": 0.5275590551181102,
                    "duration": 0.12545999999997548
                },
                {
                    "name": "E4",
                    "midi": 64,
                    "time": 534.4595999999976,
                    "velocity": 0.5354330708661418,
                    "duration": 0.12545999999997548
                },
                {
                    "name": "F#4",
                    "midi": 66,
                    "time": 534.5850599999976,
                    "velocity": 0.5433070866141733,
                    "duration": 0.12545999999997548
                },
                {
                    "name": "G4",
                    "midi": 67,
                    "time": 534.7105199999976,
                    "velocity": 0.5511811023622047,
                    "duration": 0.12545999999997548
                },
                {
                    "name": "A4",
                    "midi": 69,
                    "time": 534.8359799999976,
                    "velocity": 0.5590551181102362,
                    "duration": 0.12545999999997548
                },
                {
                    "name": "B4",
                    "midi": 71,
                    "time": 534.9614399999975,
                    "velocity": 0.5590551181102362,
                    "duration": 0.12545999999997548
                },
                {
                    "name": "D5",
                    "midi": 74,
                    "time": 535.0868999999975,
                    "velocity": 0.5669291338582677,
                    "duration": 0.12545999999997548
                },
                {
                    "name": "E5",
                    "midi": 76,
                    "time": 535.2123599999975,
                    "velocity": 0.5905511811023622,
                    "duration": 0.12545999999997548
                },
                {
                    "name": "F#5",
                    "midi": 78,
                    "time": 535.3378199999975,
                    "velocity": 0.6141732283464567,
                    "duration": 0.12545999999997548
                },
                {
                    "name": "G5",
                    "midi": 79,
                    "time": 535.4632799999974,
                    "velocity": 0.6377952755905512,
                    "duration": 0.12545999999997548
                },
                {
                    "name": "B5",
                    "midi": 83,
                    "time": 535.5887399999974,
                    "velocity": 0.6535433070866141,
                    "duration": 0.12545999999997548
                },
                {
                    "name": "C6",
                    "midi": 84,
                    "time": 535.7141999999974,
                    "velocity": 0.6771653543307087,
                    "duration": 0.12545999999997548
                },
                {
                    "name": "D6",
                    "midi": 86,
                    "time": 535.8396599999974,
                    "velocity": 0.7007874015748031,
                    "duration": 0.12545999999997548
                },
                {
                    "name": "C6",
                    "midi": 84,
                    "time": 536.0592149999974,
                    "velocity": 0.6614173228346457,
                    "duration": 0.6586650000000418
                },
                {
                    "name": "G5",
                    "midi": 79,
                    "time": 536.0592149999974,
                    "velocity": 0.6614173228346457,
                    "duration": 0.6586650000000418
                },
                {
                    "name": "D#5",
                    "midi": 75,
                    "time": 536.0592149999974,
                    "velocity": 0.6614173228346457,
                    "duration": 0.6586650000000418
                },
                {
                    "name": "D#6",
                    "midi": 87,
                    "time": 536.0592149999974,
                    "velocity": 0.7952755905511811,
                    "duration": 0.6586650000000418
                },
                {
                    "name": "D#4",
                    "midi": 63,
                    "time": 536.7178799999974,
                    "velocity": 0.6929133858267716,
                    "duration": 0.2258279999999786
                },
                {
                    "name": "C4",
                    "midi": 60,
                    "time": 536.7178799999974,
                    "velocity": 0.5748031496062992,
                    "duration": 0.2258279999999786
                },
                {
                    "name": "D#3",
                    "midi": 51,
                    "time": 536.7178799999974,
                    "velocity": 0.5748031496062992,
                    "duration": 0.2258279999999786
                },
                {
                    "name": "D#3",
                    "midi": 51,
                    "time": 536.9687999999974,
                    "velocity": 0.6141732283464567,
                    "duration": 0.5018400000000156
                },
                {
                    "name": "C4",
                    "midi": 60,
                    "time": 536.9687999999974,
                    "velocity": 0.6141732283464567,
                    "duration": 0.5018400000000156
                },
                {
                    "name": "D#4",
                    "midi": 63,
                    "time": 536.9687999999974,
                    "velocity": 0.7322834645669292,
                    "duration": 0.5018400000000156
                },
                {
                    "name": "F3",
                    "midi": 53,
                    "time": 537.4706399999974,
                    "velocity": 0.5905511811023622,
                    "duration": 0.12545999999997548
                },
                {
                    "name": "C4",
                    "midi": 60,
                    "time": 537.4706399999974,
                    "velocity": 0.5905511811023622,
                    "duration": 0.12545999999997548
                },
                {
                    "name": "F4",
                    "midi": 65,
                    "time": 537.4706399999974,
                    "velocity": 0.7007874015748031,
                    "duration": 0.12545999999997548
                },
                {
                    "name": "G3",
                    "midi": 55,
                    "time": 537.7215599999973,
                    "velocity": 0.6220472440944882,
                    "duration": 0.12545999999997548
                },
                {
                    "name": "G4",
                    "midi": 67,
                    "time": 537.7215599999973,
                    "velocity": 0.7401574803149606,
                    "duration": 0.12545999999997548
                },
                {
                    "name": "C4",
                    "midi": 60,
                    "time": 537.7215599999973,
                    "velocity": 0.6220472440944882,
                    "duration": 0.12545999999997548
                },
                {
                    "name": "G#4",
                    "midi": 68,
                    "time": 537.9724799999973,
                    "velocity": 0.7637795275590551,
                    "duration": 0.12545999999997548
                },
                {
                    "name": "C4",
                    "midi": 60,
                    "time": 537.9724799999973,
                    "velocity": 0.6456692913385826,
                    "duration": 0.12545999999997548
                },
                {
                    "name": "G#3",
                    "midi": 56,
                    "time": 537.9724799999973,
                    "velocity": 0.6456692913385826,
                    "duration": 0.12545999999997548
                },
                {
                    "name": "G#3",
                    "midi": 56,
                    "time": 538.4743199999973,
                    "velocity": 0.6141732283464567,
                    "duration": 0.12545999999997548
                },
                {
                    "name": "C4",
                    "midi": 60,
                    "time": 538.4743199999973,
                    "velocity": 0.6141732283464567,
                    "duration": 0.12545999999997548
                },
                {
                    "name": "G#4",
                    "midi": 68,
                    "time": 538.4743199999973,
                    "velocity": 0.7322834645669292,
                    "duration": 0.12545999999997548
                },
                {
                    "name": "G#4",
                    "midi": 68,
                    "time": 539.4779999999973,
                    "velocity": 0.6456692913385826,
                    "duration": 0.12545999999997548
                },
                {
                    "name": "G#5",
                    "midi": 80,
                    "time": 539.4779999999973,
                    "velocity": 0.7637795275590551,
                    "duration": 0.12545999999997548
                },
                {
                    "name": "F5",
                    "midi": 77,
                    "time": 540.1052999999973,
                    "velocity": 0.6614173228346457,
                    "duration": 0.6586650000000418
                },
                {
                    "name": "G#5",
                    "midi": 80,
                    "time": 540.1052999999973,
                    "velocity": 0.6614173228346457,
                    "duration": 0.6586650000000418
                },
                {
                    "name": "F6",
                    "midi": 89,
                    "time": 540.1052999999973,
                    "velocity": 0.7952755905511811,
                    "duration": 0.6586650000000418
                },
                {
                    "name": "F4",
                    "midi": 65,
                    "time": 540.7325999999973,
                    "velocity": 0.6929133858267716,
                    "duration": 0.2258280000000923
                },
                {
                    "name": "C#4",
                    "midi": 61,
                    "time": 540.7325999999973,
                    "velocity": 0.5748031496062992,
                    "duration": 0.2258280000000923
                },
                {
                    "name": "F3",
                    "midi": 53,
                    "time": 540.7325999999973,
                    "velocity": 0.5748031496062992,
                    "duration": 0.2258280000000923
                },
                {
                    "name": "F3",
                    "midi": 53,
                    "time": 540.9835199999974,
                    "velocity": 0.6141732283464567,
                    "duration": 0.5018400000000156
                },
                {
                    "name": "C#4",
                    "midi": 61,
                    "time": 540.9835199999974,
                    "velocity": 0.6141732283464567,
                    "duration": 0.5018400000000156
                },
                {
                    "name": "F4",
                    "midi": 65,
                    "time": 540.9835199999974,
                    "velocity": 0.7322834645669292,
                    "duration": 0.5018400000000156
                },
                {
                    "name": "F#3",
                    "midi": 54,
                    "time": 541.4853599999974,
                    "velocity": 0.5905511811023622,
                    "duration": 0.12545999999997548
                },
                {
                    "name": "C#4",
                    "midi": 61,
                    "time": 541.4853599999974,
                    "velocity": 0.5905511811023622,
                    "duration": 0.12545999999997548
                },
                {
                    "name": "F#4",
                    "midi": 66,
                    "time": 541.4853599999974,
                    "velocity": 0.7007874015748031,
                    "duration": 0.12545999999997548
                },
                {
                    "name": "G#3",
                    "midi": 56,
                    "time": 541.7362799999974,
                    "velocity": 0.6220472440944882,
                    "duration": 0.12545999999997548
                },
                {
                    "name": "G#4",
                    "midi": 68,
                    "time": 541.7362799999974,
                    "velocity": 0.7401574803149606,
                    "duration": 0.12545999999997548
                },
                {
                    "name": "C#4",
                    "midi": 61,
                    "time": 541.7362799999974,
                    "velocity": 0.6220472440944882,
                    "duration": 0.12545999999997548
                },
                {
                    "name": "A4",
                    "midi": 69,
                    "time": 541.9871999999973,
                    "velocity": 0.7637795275590551,
                    "duration": 0.12545999999997548
                },
                {
                    "name": "F#4",
                    "midi": 66,
                    "time": 541.9871999999973,
                    "velocity": 0.6456692913385826,
                    "duration": 0.12545999999997548
                },
                {
                    "name": "A3",
                    "midi": 57,
                    "time": 541.9871999999973,
                    "velocity": 0.5748031496062992,
                    "duration": 0.12545999999997548
                },
                {
                    "name": "A3",
                    "midi": 57,
                    "time": 542.4890399999973,
                    "velocity": 0.5511811023622047,
                    "duration": 0.12545999999997548
                },
                {
                    "name": "F#4",
                    "midi": 66,
                    "time": 542.4890399999973,
                    "velocity": 0.6141732283464567,
                    "duration": 0.12545999999997548
                },
                {
                    "name": "A4",
                    "midi": 69,
                    "time": 542.4890399999973,
                    "velocity": 0.7322834645669292,
                    "duration": 0.12545999999997548
                },
                {
                    "name": "A4",
                    "midi": 69,
                    "time": 543.4927199999973,
                    "velocity": 0.6456692913385826,
                    "duration": 0.12545999999997548
                },
                {
                    "name": "A5",
                    "midi": 81,
                    "time": 543.4927199999973,
                    "velocity": 0.7637795275590551,
                    "duration": 0.12545999999997548
                },
                {
                    "name": "F#5",
                    "midi": 78,
                    "time": 544.1200199999973,
                    "velocity": 0.6614173228346457,
                    "duration": 0.6586650000000418
                },
                {
                    "name": "A5",
                    "midi": 81,
                    "time": 544.1200199999973,
                    "velocity": 0.6614173228346457,
                    "duration": 0.6586650000000418
                },
                {
                    "name": "F#6",
                    "midi": 90,
                    "time": 544.1200199999973,
                    "velocity": 0.7952755905511811,
                    "duration": 0.6586650000000418
                },
                {
                    "name": "F#4",
                    "midi": 66,
                    "time": 544.7473199999973,
                    "velocity": 0.6929133858267716,
                    "duration": 0.2258280000000923
                },
                {
                    "name": "D4",
                    "midi": 62,
                    "time": 544.7473199999973,
                    "velocity": 0.5748031496062992,
                    "duration": 0.2258280000000923
                },
                {
                    "name": "F#3",
                    "midi": 54,
                    "time": 544.7473199999973,
                    "velocity": 0.5748031496062992,
                    "duration": 0.2258280000000923
                },
                {
                    "name": "F#3",
                    "midi": 54,
                    "time": 544.9982399999974,
                    "velocity": 0.6141732283464567,
                    "duration": 0.5018400000000156
                },
                {
                    "name": "D4",
                    "midi": 62,
                    "time": 544.9982399999974,
                    "velocity": 0.6141732283464567,
                    "duration": 0.5018400000000156
                },
                {
                    "name": "F#4",
                    "midi": 66,
                    "time": 544.9982399999974,
                    "velocity": 0.7322834645669292,
                    "duration": 0.5018400000000156
                },
                {
                    "name": "G3",
                    "midi": 55,
                    "time": 545.5000799999974,
                    "velocity": 0.5905511811023622,
                    "duration": 0.12545999999997548
                },
                {
                    "name": "D4",
                    "midi": 62,
                    "time": 545.5000799999974,
                    "velocity": 0.5905511811023622,
                    "duration": 0.12545999999997548
                },
                {
                    "name": "G4",
                    "midi": 67,
                    "time": 545.5000799999974,
                    "velocity": 0.7007874015748031,
                    "duration": 0.12545999999997548
                },
                {
                    "name": "A3",
                    "midi": 57,
                    "time": 545.7509999999974,
                    "velocity": 0.6220472440944882,
                    "duration": 0.12545999999997548
                },
                {
                    "name": "A4",
                    "midi": 69,
                    "time": 545.7509999999974,
                    "velocity": 0.7401574803149606,
                    "duration": 0.12545999999997548
                },
                {
                    "name": "D4",
                    "midi": 62,
                    "time": 545.7509999999974,
                    "velocity": 0.6220472440944882,
                    "duration": 0.12545999999997548
                },
                {
                    "name": "A#4",
                    "midi": 70,
                    "time": 546.0019199999973,
                    "velocity": 0.7637795275590551,
                    "duration": 0.12545999999997548
                },
                {
                    "name": "D4",
                    "midi": 62,
                    "time": 546.0019199999973,
                    "velocity": 0.6456692913385826,
                    "duration": 0.12545999999997548
                },
                {
                    "name": "A#3",
                    "midi": 58,
                    "time": 546.0019199999973,
                    "velocity": 0.6456692913385826,
                    "duration": 0.12545999999997548
                },
                {
                    "name": "A3",
                    "midi": 57,
                    "time": 546.5037599999973,
                    "velocity": 0.6141732283464567,
                    "duration": 0.12545999999997548
                },
                {
                    "name": "D4",
                    "midi": 62,
                    "time": 546.5037599999973,
                    "velocity": 0.6141732283464567,
                    "duration": 0.12545999999997548
                },
                {
                    "name": "A4",
                    "midi": 69,
                    "time": 546.5037599999973,
                    "velocity": 0.7322834645669292,
                    "duration": 0.12545999999997548
                },
                {
                    "name": "C#5",
                    "midi": 73,
                    "time": 547.5074399999974,
                    "velocity": 0.6850393700787402,
                    "duration": 0.12545999999997548
                },
                {
                    "name": "G4",
                    "midi": 67,
                    "time": 547.5074399999974,
                    "velocity": 0.5748031496062992,
                    "duration": 0.12545999999997548
                },
                {
                    "name": "C#4",
                    "midi": 61,
                    "time": 547.5074399999974,
                    "velocity": 0.5748031496062992,
                    "duration": 0.12545999999997548
                },
                {
                    "name": "D4",
                    "midi": 62,
                    "time": 548.0092799999974,
                    "velocity": 0.6141732283464567,
                    "duration": 0.12545999999997548
                },
                {
                    "name": "F#4",
                    "midi": 66,
                    "time": 548.0092799999974,
                    "velocity": 0.6141732283464567,
                    "duration": 0.12545999999997548
                },
                {
                    "name": "D5",
                    "midi": 74,
                    "time": 548.0092799999974,
                    "velocity": 0.7322834645669292,
                    "duration": 0.12545999999997548
                },
                {
                    "name": "A4",
                    "midi": 69,
                    "time": 548.7620399999973,
                    "velocity": 0.5984251968503937,
                    "duration": 1.0036799999999175
                },
                {
                    "name": "C5",
                    "midi": 72,
                    "time": 549.0129599999973,
                    "velocity": 0.5984251968503937,
                    "duration": 0.7527599999999666
                },
                {
                    "name": "A5",
                    "midi": 81,
                    "time": 549.0129599999973,
                    "velocity": 0.7086614173228346,
                    "duration": 0.7527599999999666
                },
                {
                    "name": "G5",
                    "midi": 79,
                    "time": 549.7657199999973,
                    "velocity": 0.6456692913385826,
                    "duration": 0.25091999999995096
                },
                {
                    "name": "F#5",
                    "midi": 78,
                    "time": 550.0166399999972,
                    "velocity": 0.7086614173228346,
                    "duration": 0.25091999999995096
                },
                {
                    "name": "A5",
                    "midi": 81,
                    "time": 550.7693999999972,
                    "velocity": 0.5984251968503937,
                    "duration": 0.9827699999999595
                },
                {
                    "name": "C6",
                    "midi": 84,
                    "time": 551.0203199999971,
                    "velocity": 0.6456692913385826,
                    "duration": 0.7318500000000085
                },
                {
                    "name": "A6",
                    "midi": 93,
                    "time": 551.0203199999971,
                    "velocity": 0.7637795275590551,
                    "duration": 0.7318500000000085
                },
                {
                    "name": "A5",
                    "midi": 81,
                    "time": 551.7730799999971,
                    "velocity": 0.7007874015748031,
                    "duration": 0.25091999999995096
                },
                {
                    "name": "C6",
                    "midi": 84,
                    "time": 551.7730799999971,
                    "velocity": 0.7007874015748031,
                    "duration": 0.25091999999995096
                },
                {
                    "name": "A6",
                    "midi": 93,
                    "time": 551.7730799999971,
                    "velocity": 0.7007874015748031,
                    "duration": 0.25091999999995096
                },
                {
                    "name": "G#5",
                    "midi": 80,
                    "time": 552.023999999997,
                    "velocity": 0.7637795275590551,
                    "duration": 0.25091999999995096
                },
                {
                    "name": "B5",
                    "midi": 83,
                    "time": 552.023999999997,
                    "velocity": 0.7637795275590551,
                    "duration": 0.25091999999995096
                },
                {
                    "name": "G#6",
                    "midi": 92,
                    "time": 552.023999999997,
                    "velocity": 0.7637795275590551,
                    "duration": 0.25091999999995096
                },
                {
                    "name": "B4",
                    "midi": 71,
                    "time": 552.776759999997,
                    "velocity": 0.5984251968503937,
                    "duration": 1.0036799999999175
                },
                {
                    "name": "D5",
                    "midi": 74,
                    "time": 553.027679999997,
                    "velocity": 0.5984251968503937,
                    "duration": 0.7527599999999666
                },
                {
                    "name": "B5",
                    "midi": 83,
                    "time": 553.027679999997,
                    "velocity": 0.7086614173228346,
                    "duration": 0.7527599999999666
                },
                {
                    "name": "A5",
                    "midi": 81,
                    "time": 553.7804399999969,
                    "velocity": 0.6456692913385826,
                    "duration": 0.25091999999995096
                },
                {
                    "name": "B4",
                    "midi": 71,
                    "time": 554.0313599999969,
                    "velocity": 0.5669291338582677,
                    "duration": 0.25091999999995096
                },
                {
                    "name": "D5",
                    "midi": 74,
                    "time": 554.0313599999969,
                    "velocity": 0.5669291338582677,
                    "duration": 0.25091999999995096
                },
                {
                    "name": "G#5",
                    "midi": 80,
                    "time": 554.0313599999969,
                    "velocity": 0.7086614173228346,
                    "duration": 0.25091999999995096
                },
                {
                    "name": "B5",
                    "midi": 83,
                    "time": 554.7841199999968,
                    "velocity": 0.6771653543307087,
                    "duration": 0.9733604999998988
                },
                {
                    "name": "D6",
                    "midi": 86,
                    "time": 555.0350399999968,
                    "velocity": 0.7480314960629921,
                    "duration": 0.7297589999999445
                },
                {
                    "name": "B6",
                    "midi": 95,
                    "time": 555.0350399999968,
                    "velocity": 0.8267716535433071,
                    "duration": 0.7297589999999445
                },
                {
                    "name": "C6",
                    "midi": 84,
                    "time": 555.7877999999968,
                    "velocity": 0.6771653543307087,
                    "duration": 0.9733604999998988
                },
                {
                    "name": "D#6",
                    "midi": 87,
                    "time": 556.0387199999967,
                    "velocity": 0.7480314960629921,
                    "duration": 0.7297589999999445
                },
                {
                    "name": "C7",
                    "midi": 96,
                    "time": 556.0387199999967,
                    "velocity": 0.8267716535433071,
                    "duration": 0.7297589999999445
                },
                {
                    "name": "C6",
                    "midi": 84,
                    "time": 556.7914799999967,
                    "velocity": 0.6771653543307087,
                    "duration": 0.9733604999998988
                },
                {
                    "name": "D#6",
                    "midi": 87,
                    "time": 557.0423999999966,
                    "velocity": 0.7480314960629921,
                    "duration": 0.7297589999999445
                },
                {
                    "name": "C7",
                    "midi": 96,
                    "time": 557.0423999999966,
                    "velocity": 0.8267716535433071,
                    "duration": 0.7297589999999445
                },
                {
                    "name": "C6",
                    "midi": 84,
                    "time": 557.7951599999966,
                    "velocity": 0.6771653543307087,
                    "duration": 0.9733604999998988
                },
                {
                    "name": "D#6",
                    "midi": 87,
                    "time": 558.0460799999966,
                    "velocity": 0.7480314960629921,
                    "duration": 0.7297589999999445
                },
                {
                    "name": "C7",
                    "midi": 96,
                    "time": 558.0460799999966,
                    "velocity": 0.8267716535433071,
                    "duration": 0.7297589999999445
                },
                {
                    "name": "A#5",
                    "midi": 82,
                    "time": 558.7988399999965,
                    "velocity": 0.6771653543307087,
                    "duration": 0.9733604999998988
                },
                {
                    "name": "D6",
                    "midi": 86,
                    "time": 559.0497599999965,
                    "velocity": 0.7480314960629921,
                    "duration": 0.7297589999999445
                },
                {
                    "name": "A#6",
                    "midi": 94,
                    "time": 559.0497599999965,
                    "velocity": 0.8267716535433071,
                    "duration": 0.7297589999999445
                },
                {
                    "name": "A5",
                    "midi": 81,
                    "time": 559.8025199999964,
                    "velocity": 0.6771653543307087,
                    "duration": 0.9733604999998988
                },
                {
                    "name": "D#6",
                    "midi": 87,
                    "time": 560.0534399999964,
                    "velocity": 0.7480314960629921,
                    "duration": 0.7297589999999445
                },
                {
                    "name": "A6",
                    "midi": 93,
                    "time": 560.0534399999964,
                    "velocity": 0.8267716535433071,
                    "duration": 0.7297589999999445
                },
                {
                    "name": "G5",
                    "midi": 79,
                    "time": 560.8061999999964,
                    "velocity": 0.6771653543307087,
                    "duration": 0.9733604999998988
                },
                {
                    "name": "E6",
                    "midi": 88,
                    "time": 561.0571199999963,
                    "velocity": 0.7480314960629921,
                    "duration": 0.7297589999999445
                },
                {
                    "name": "A#5",
                    "midi": 82,
                    "time": 561.0571199999963,
                    "velocity": 0.7480314960629921,
                    "duration": 0.7297589999999445
                },
                {
                    "name": "G6",
                    "midi": 91,
                    "time": 561.0571199999963,
                    "velocity": 0.8267716535433071,
                    "duration": 0.7297589999999445
                },
                {
                    "name": "F#5",
                    "midi": 78,
                    "time": 561.8098799999963,
                    "velocity": 0.6771653543307087,
                    "duration": 0.25091999999995096
                },
                {
                    "name": "A5",
                    "midi": 81,
                    "time": 562.0607999999962,
                    "velocity": 0.6535433070866141,
                    "duration": 0.25091999999995096
                },
                {
                    "name": "F#6",
                    "midi": 90,
                    "time": 562.0607999999962,
                    "velocity": 0.8267716535433071,
                    "duration": 0.25091999999995096
                },
                {
                    "name": "D6",
                    "midi": 86,
                    "time": 562.0607999999962,
                    "velocity": 0.7480314960629921,
                    "duration": 0.25091999999995096
                },
                {
                    "name": "D5",
                    "midi": 74,
                    "time": 562.3117199999962,
                    "velocity": 0.5905511811023622,
                    "duration": 0.25091999999995096
                },
                {
                    "name": "D6",
                    "midi": 86,
                    "time": 562.5626399999961,
                    "velocity": 0.6377952755905512,
                    "duration": 0.12545999999997548
                },
                {
                    "name": "A5",
                    "midi": 81,
                    "time": 562.5626399999961,
                    "velocity": 0.5354330708661418,
                    "duration": 0.12545999999997548
                },
                {
                    "name": "F#5",
                    "midi": 78,
                    "time": 562.5626399999961,
                    "velocity": 0.5354330708661418,
                    "duration": 0.12545999999997548
                },
                {
                    "name": "A4",
                    "midi": 69,
                    "time": 562.8135599999961,
                    "velocity": 0.5905511811023622,
                    "duration": 0.25091999999995096
                },
                {
                    "name": "A5",
                    "midi": 81,
                    "time": 563.064479999996,
                    "velocity": 0.6377952755905512,
                    "duration": 0.12545999999997548
                },
                {
                    "name": "F#5",
                    "midi": 78,
                    "time": 563.064479999996,
                    "velocity": 0.5354330708661418,
                    "duration": 0.12545999999997548
                },
                {
                    "name": "D5",
                    "midi": 74,
                    "time": 563.064479999996,
                    "velocity": 0.5354330708661418,
                    "duration": 0.12545999999997548
                },
                {
                    "name": "F#4",
                    "midi": 66,
                    "time": 563.315399999996,
                    "velocity": 0.5905511811023622,
                    "duration": 0.25091999999995096
                },
                {
                    "name": "F#5",
                    "midi": 78,
                    "time": 563.5663199999959,
                    "velocity": 0.6377952755905512,
                    "duration": 0.12545999999997548
                },
                {
                    "name": "D5",
                    "midi": 74,
                    "time": 563.5663199999959,
                    "velocity": 0.5354330708661418,
                    "duration": 0.12545999999997548
                },
                {
                    "name": "A4",
                    "midi": 69,
                    "time": 563.5663199999959,
                    "velocity": 0.5354330708661418,
                    "duration": 0.12545999999997548
                },
                {
                    "name": "D4",
                    "midi": 62,
                    "time": 563.8172399999959,
                    "velocity": 0.5669291338582677,
                    "duration": 0.25091999999995096
                },
                {
                    "name": "D5",
                    "midi": 74,
                    "time": 564.0681599999958,
                    "velocity": 0.6377952755905512,
                    "duration": 0.12545999999997548
                },
                {
                    "name": "A4",
                    "midi": 69,
                    "time": 564.0681599999958,
                    "velocity": 0.5354330708661418,
                    "duration": 0.12545999999997548
                },
                {
                    "name": "F#4",
                    "midi": 66,
                    "time": 564.0681599999958,
                    "velocity": 0.5354330708661418,
                    "duration": 0.12545999999997548
                },
                {
                    "name": "F#4",
                    "midi": 66,
                    "time": 565.5736799999958,
                    "velocity": 0.6062992125984252,
                    "duration": 0.5018400000000156
                },
                {
                    "name": "A4",
                    "midi": 69,
                    "time": 566.0755199999958,
                    "velocity": 0.6535433070866141,
                    "duration": 1.2545999999999822
                },
                {
                    "name": "F#4",
                    "midi": 66,
                    "time": 567.5810399999957,
                    "velocity": 0.36220472440944884,
                    "duration": 0.5018400000000156
                },
                {
                    "name": "A4",
                    "midi": 69,
                    "time": 568.0828799999957,
                    "velocity": 0.3858267716535433,
                    "duration": 1.2545999999999822
                },
                {
                    "name": "A4",
                    "midi": 69,
                    "time": 569.5883999999957,
                    "velocity": 0.36220472440944884,
                    "duration": 0.5018400000000156
                },
                {
                    "name": "C5",
                    "midi": 72,
                    "time": 570.0902399999957,
                    "velocity": 0.3858267716535433,
                    "duration": 1.0036800000000312
                },
                {
                    "name": "D5",
                    "midi": 74,
                    "time": 571.0939199999957,
                    "velocity": 0.3779527559055118,
                    "duration": 0.7527599999999666
                },
                {
                    "name": "D#5",
                    "midi": 75,
                    "time": 571.8466799999957,
                    "velocity": 0.36220472440944884,
                    "duration": 0.2258279999999786
                },
                {
                    "name": "D#5",
                    "midi": 75,
                    "time": 572.0975999999956,
                    "velocity": 0.41732283464566927,
                    "duration": 1.0036800000000312
                },
                {
                    "name": "D5",
                    "midi": 74,
                    "time": 573.1012799999957,
                    "velocity": 0.36220472440944884,
                    "duration": 0.5018400000000156
                },
                {
                    "name": "F5",
                    "midi": 77,
                    "time": 573.8540399999956,
                    "velocity": 0.3858267716535433,
                    "duration": 0.25091999999995096
                },
                {
                    "name": "G#5",
                    "midi": 80,
                    "time": 574.1049599999956,
                    "velocity": 0.4251968503937008,
                    "duration": 1.0036800000000312
                },
                {
                    "name": "G5",
                    "midi": 79,
                    "time": 575.1086399999956,
                    "velocity": 0.3937007874015748,
                    "duration": 0.7527599999999666
                },
                {
                    "name": "D5",
                    "midi": 74,
                    "time": 575.8613999999956,
                    "velocity": 0.3937007874015748,
                    "duration": 0.25091999999995096
                },
                {
                    "name": "F5",
                    "midi": 77,
                    "time": 576.1123199999955,
                    "velocity": 0.44881889763779526,
                    "duration": 1.0036800000000312
                },
                {
                    "name": "D#5",
                    "midi": 75,
                    "time": 577.1159999999956,
                    "velocity": 0.4094488188976378,
                    "duration": 0.5018400000000156
                },
                {
                    "name": "D#5",
                    "midi": 75,
                    "time": 578.1196799999956,
                    "velocity": 0.3858267716535433,
                    "duration": 0.9827699999999595
                },
                {
                    "name": "D#5",
                    "midi": 75,
                    "time": 579.1233599999955,
                    "velocity": 0.3937007874015748,
                    "duration": 1.5055199999999331
                },
                {
                    "name": "F5",
                    "midi": 77,
                    "time": 579.8761199999955,
                    "velocity": 0.4409448818897638,
                    "duration": 0.25091999999995096
                },
                {
                    "name": "G5",
                    "midi": 79,
                    "time": 580.1270399999954,
                    "velocity": 0.5118110236220472,
                    "duration": 0.5018400000000156
                },
                {
                    "name": "A#5",
                    "midi": 82,
                    "time": 581.1307199999954,
                    "velocity": 0.5905511811023622,
                    "duration": 1.5055200000000468
                },
                {
                    "name": "G5",
                    "midi": 79,
                    "time": 581.1307199999954,
                    "velocity": 0.49606299212598426,
                    "duration": 1.5055200000000468
                },
                {
                    "name": "A#5",
                    "midi": 82,
                    "time": 583.1380799999955,
                    "velocity": 0.4881889763779528,
                    "duration": 1.5055200000000468
                },
                {
                    "name": "D6",
                    "midi": 86,
                    "time": 583.1380799999955,
                    "velocity": 0.5748031496062992,
                    "duration": 1.5055200000000468
                },
                {
                    "name": "F5",
                    "midi": 77,
                    "time": 585.0827099999956,
                    "velocity": 0.5275590551181102,
                    "duration": 1.8191700000000992
                },
                {
                    "name": "A#5",
                    "midi": 82,
                    "time": 585.1140749999956,
                    "velocity": 0.5433070866141733,
                    "duration": 1.7878050000000485
                },
                {
                    "name": "F6",
                    "midi": 89,
                    "time": 585.1454399999957,
                    "velocity": 0.5669291338582677,
                    "duration": 1.7564399999999978
                },
                {
                    "name": "D6",
                    "midi": 86,
                    "time": 586.9018799999957,
                    "velocity": 0.5196850393700787,
                    "duration": 0.25091999999995096
                },
                {
                    "name": "A5",
                    "midi": 81,
                    "time": 587.1527999999956,
                    "velocity": 0.4881889763779528,
                    "duration": 1.0036799999999175
                },
                {
                    "name": "D#6",
                    "midi": 87,
                    "time": 587.1527999999956,
                    "velocity": 0.5748031496062992,
                    "duration": 0.7527599999999666
                },
                {
                    "name": "C6",
                    "midi": 84,
                    "time": 587.9055599999956,
                    "velocity": 0.48031496062992124,
                    "duration": 0.25091999999995096
                },
                {
                    "name": "A#5",
                    "midi": 82,
                    "time": 588.1564799999956,
                    "velocity": 0.5433070866141733,
                    "duration": 1.0036800000000312
                },
                {
                    "name": "D#5",
                    "midi": 75,
                    "time": 589.1601599999956,
                    "velocity": 0.41732283464566927,
                    "duration": 2.0073599999999487
                },
                {
                    "name": "C6",
                    "midi": 84,
                    "time": 589.1601599999956,
                    "velocity": 0.49606299212598426,
                    "duration": 0.7527599999999666
                },
                {
                    "name": "G#5",
                    "midi": 80,
                    "time": 589.9129199999956,
                    "velocity": 0.4094488188976378,
                    "duration": 0.25091999999995096
                },
                {
                    "name": "G5",
                    "midi": 79,
                    "time": 590.1638399999955,
                    "velocity": 0.49606299212598426,
                    "duration": 1.0036800000000312
                },
                {
                    "name": "G#5",
                    "midi": 80,
                    "time": 591.1675199999955,
                    "velocity": 0.5039370078740157,
                    "duration": 1.7564399999999978
                },
                {
                    "name": "D5",
                    "midi": 74,
                    "time": 591.1675199999955,
                    "velocity": 0.4251968503937008,
                    "duration": 1.0036800000000312
                },
                {
                    "name": "D#5",
                    "midi": 75,
                    "time": 592.1711999999956,
                    "velocity": 0.5039370078740157,
                    "duration": 1.0036799999999175
                },
                {
                    "name": "G5",
                    "midi": 79,
                    "time": 592.9239599999955,
                    "velocity": 0.4094488188976378,
                    "duration": 0.25091999999995096
                },
                {
                    "name": "C5",
                    "midi": 72,
                    "time": 593.1748799999955,
                    "velocity": 0.33070866141732286,
                    "duration": 1.0036799999999175
                },
                {
                    "name": "A5",
                    "midi": 81,
                    "time": 593.1748799999955,
                    "velocity": 0.3937007874015748,
                    "duration": 0.7527599999999666
                },
                {
                    "name": "F#5",
                    "midi": 78,
                    "time": 593.9276399999954,
                    "velocity": 0.29133858267716534,
                    "duration": 0.25091999999995096
                },
                {
                    "name": "G6",
                    "midi": 91,
                    "time": 594.1785599999954,
                    "velocity": 0.31496062992125984,
                    "duration": 1.0036800000000312
                },
                {
                    "name": "D#6",
                    "midi": 87,
                    "time": 594.1785599999954,
                    "velocity": 0.31496062992125984,
                    "duration": 1.0036800000000312
                },
                {
                    "name": "G5",
                    "midi": 79,
                    "time": 594.1785599999954,
                    "velocity": 0.2677165354330709,
                    "duration": 2.0073600000000624
                },
                {
                    "name": "F6",
                    "midi": 89,
                    "time": 595.1822399999954,
                    "velocity": 0.2755905511811024,
                    "duration": 0.5018400000000156
                },
                {
                    "name": "D6",
                    "midi": 86,
                    "time": 595.1822399999954,
                    "velocity": 0.2755905511811024,
                    "duration": 0.5018400000000156
                },
                {
                    "name": "D#6",
                    "midi": 87,
                    "time": 595.6840799999954,
                    "velocity": 0.3228346456692913,
                    "duration": 0.5018400000000156
                },
                {
                    "name": "G6",
                    "midi": 91,
                    "time": 595.6840799999954,
                    "velocity": 0.3228346456692913,
                    "duration": 0.5018400000000156
                },
                {
                    "name": "G5",
                    "midi": 79,
                    "time": 596.1859199999955,
                    "velocity": 0.2440944881889764,
                    "duration": 2.0073599999999487
                },
                {
                    "name": "F6",
                    "midi": 89,
                    "time": 596.1859199999955,
                    "velocity": 0.36220472440944884,
                    "duration": 0.7318500000000085
                },
                {
                    "name": "G#6",
                    "midi": 92,
                    "time": 596.1859199999955,
                    "velocity": 0.36220472440944884,
                    "duration": 0.7527599999999666
                },
                {
                    "name": "F6",
                    "midi": 89,
                    "time": 596.9386799999954,
                    "velocity": 0.30708661417322836,
                    "duration": 0.25091999999995096
                },
                {
                    "name": "D6",
                    "midi": 86,
                    "time": 596.9386799999954,
                    "velocity": 0.30708661417322836,
                    "duration": 0.25091999999995096
                },
                {
                    "name": "D6",
                    "midi": 86,
                    "time": 597.1895999999954,
                    "velocity": 0.36220472440944884,
                    "duration": 0.5018400000000156
                },
                {
                    "name": "B5",
                    "midi": 83,
                    "time": 597.1895999999954,
                    "velocity": 0.36220472440944884,
                    "duration": 0.5018400000000156
                },
                {
                    "name": "C6",
                    "midi": 84,
                    "time": 597.6914399999954,
                    "velocity": 0.31496062992125984,
                    "duration": 0.5018400000000156
                },
                {
                    "name": "D#6",
                    "midi": 87,
                    "time": 597.6914399999954,
                    "velocity": 0.31496062992125984,
                    "duration": 0.5018400000000156
                },
                {
                    "name": "F6",
                    "midi": 89,
                    "time": 598.1932799999954,
                    "velocity": 0.31496062992125984,
                    "duration": 0.5018400000000156
                },
                {
                    "name": "D6",
                    "midi": 86,
                    "time": 598.1932799999954,
                    "velocity": 0.31496062992125984,
                    "duration": 0.5018400000000156
                },
                {
                    "name": "G5",
                    "midi": 79,
                    "time": 598.1932799999954,
                    "velocity": 0.2677165354330709,
                    "duration": 2.0073600000000624
                },
                {
                    "name": "C6",
                    "midi": 84,
                    "time": 598.6951199999954,
                    "velocity": 0.2755905511811024,
                    "duration": 0.5018400000000156
                },
                {
                    "name": "D#6",
                    "midi": 87,
                    "time": 598.6951199999954,
                    "velocity": 0.2755905511811024,
                    "duration": 0.5018400000000156
                },
                {
                    "name": "D6",
                    "midi": 86,
                    "time": 599.1969599999954,
                    "velocity": 0.2755905511811024,
                    "duration": 0.5018400000000156
                },
                {
                    "name": "A#5",
                    "midi": 82,
                    "time": 599.1969599999954,
                    "velocity": 0.2755905511811024,
                    "duration": 0.5018400000000156
                },
                {
                    "name": "G#5",
                    "midi": 80,
                    "time": 599.6987999999955,
                    "velocity": 0.3228346456692913,
                    "duration": 0.5018400000000156
                },
                {
                    "name": "C6",
                    "midi": 84,
                    "time": 599.6987999999955,
                    "velocity": 0.3228346456692913,
                    "duration": 0.5018400000000156
                },
                {
                    "name": "G5",
                    "midi": 79,
                    "time": 600.2006399999955,
                    "velocity": 0.2992125984251969,
                    "duration": 1.4846099999998614
                },
                {
                    "name": "B5",
                    "midi": 83,
                    "time": 600.2006399999955,
                    "velocity": 0.36220472440944884,
                    "duration": 0.7527599999999666
                },
                {
                    "name": "C6",
                    "midi": 84,
                    "time": 600.9533999999954,
                    "velocity": 0.30708661417322836,
                    "duration": 0.25091999999995096
                },
                {
                    "name": "A5",
                    "midi": 81,
                    "time": 600.9533999999954,
                    "velocity": 0.30708661417322836,
                    "duration": 0.25091999999995096
                },
                {
                    "name": "D6",
                    "midi": 86,
                    "time": 601.2043199999954,
                    "velocity": 0.36220472440944884,
                    "duration": 0.5018399999999019
                },
                {
                    "name": "B5",
                    "midi": 83,
                    "time": 601.2043199999954,
                    "velocity": 0.36220472440944884,
                    "duration": 0.5018399999999019
                },
                {
                    "name": "G5",
                    "midi": 79,
                    "time": 601.7061599999953,
                    "velocity": 0.31496062992125984,
                    "duration": 2.509200000000078
                },
                {
                    "name": "G6",
                    "midi": 91,
                    "time": 602.2079999999953,
                    "velocity": 0.31496062992125984,
                    "duration": 1.0036800000000312
                },
                {
                    "name": "D#6",
                    "midi": 87,
                    "time": 602.2079999999953,
                    "velocity": 0.31496062992125984,
                    "duration": 1.0036800000000312
                },
                {
                    "name": "F6",
                    "midi": 89,
                    "time": 603.2116799999953,
                    "velocity": 0.2755905511811024,
                    "duration": 0.5018400000000156
                },
                {
                    "name": "D6",
                    "midi": 86,
                    "time": 603.2116799999953,
                    "velocity": 0.2755905511811024,
                    "duration": 0.5018400000000156
                },
                {
                    "name": "D#6",
                    "midi": 87,
                    "time": 603.7135199999954,
                    "velocity": 0.33858267716535434,
                    "duration": 0.5018400000000156
                },
                {
                    "name": "G6",
                    "midi": 91,
                    "time": 603.7135199999954,
                    "velocity": 0.33858267716535434,
                    "duration": 0.5018400000000156
                },
                {
                    "name": "G5",
                    "midi": 79,
                    "time": 604.2153599999954,
                    "velocity": 0.2677165354330709,
                    "duration": 1.986449999999877
                },
                {
                    "name": "G6",
                    "midi": 91,
                    "time": 604.2153599999954,
                    "velocity": 0.4330708661417323,
                    "duration": 0.7527599999999666
                },
                {
                    "name": "A#6",
                    "midi": 94,
                    "time": 604.2153599999954,
                    "velocity": 0.4330708661417323,
                    "duration": 0.7527599999999666
                },
                {
                    "name": "G#6",
                    "midi": 92,
                    "time": 604.9681199999953,
                    "velocity": 0.33070866141732286,
                    "duration": 0.25091999999995096
                },
                {
                    "name": "F6",
                    "midi": 89,
                    "time": 604.9681199999953,
                    "velocity": 0.33070866141732286,
                    "duration": 0.23000999999999294
                },
                {
                    "name": "F6",
                    "midi": 89,
                    "time": 605.2190399999953,
                    "velocity": 0.3937007874015748,
                    "duration": 0.5018400000000156
                },
                {
                    "name": "D6",
                    "midi": 86,
                    "time": 605.2190399999953,
                    "velocity": 0.3937007874015748,
                    "duration": 0.5018400000000156
                },
                {
                    "name": "F6",
                    "midi": 89,
                    "time": 605.7208799999953,
                    "velocity": 0.3464566929133858,
                    "duration": 0.5018399999999019
                },
                {
                    "name": "G#6",
                    "midi": 92,
                    "time": 605.7208799999953,
                    "velocity": 0.3464566929133858,
                    "duration": 0.5018399999999019
                },
                {
                    "name": "G6",
                    "midi": 91,
                    "time": 606.2227199999952,
                    "velocity": 0.3464566929133858,
                    "duration": 0.47674800000004325
                },
                {
                    "name": "D#6",
                    "midi": 87,
                    "time": 606.2227199999952,
                    "velocity": 0.3464566929133858,
                    "duration": 0.47674800000004325
                },
                {
                    "name": "G5",
                    "midi": 79,
                    "time": 606.2227199999952,
                    "velocity": 0.29133858267716534,
                    "duration": 1.9864499999999907
                },
                {
                    "name": "C6",
                    "midi": 84,
                    "time": 606.7245599999952,
                    "velocity": 0.29133858267716534,
                    "duration": 0.5018400000000156
                },
                {
                    "name": "D#6",
                    "midi": 87,
                    "time": 606.7245599999952,
                    "velocity": 0.29133858267716534,
                    "duration": 0.5018400000000156
                },
                {
                    "name": "F6",
                    "midi": 89,
                    "time": 607.2263999999952,
                    "velocity": 0.28346456692913385,
                    "duration": 0.47674800000004325
                },
                {
                    "name": "D6",
                    "midi": 86,
                    "time": 607.2263999999952,
                    "velocity": 0.28346456692913385,
                    "duration": 0.47674800000004325
                },
                {
                    "name": "B5",
                    "midi": 83,
                    "time": 607.7282399999953,
                    "velocity": 0.33070866141732286,
                    "duration": 0.5018399999999019
                },
                {
                    "name": "D6",
                    "midi": 86,
                    "time": 607.7282399999953,
                    "velocity": 0.33070866141732286,
                    "duration": 0.5018399999999019
                },
                {
                    "name": "C6",
                    "midi": 84,
                    "time": 608.2300799999952,
                    "velocity": 0.31496062992125984,
                    "duration": 0.47674800000004325
                },
                {
                    "name": "G5",
                    "midi": 79,
                    "time": 608.2300799999952,
                    "velocity": 0.1968503937007874,
                    "duration": 1.9864499999999907
                },
                {
                    "name": "D#6",
                    "midi": 87,
                    "time": 608.2300799999952,
                    "velocity": 0.36220472440944884,
                    "duration": 0.47674800000004325
                },
                {
                    "name": "C6",
                    "midi": 84,
                    "time": 608.7319199999952,
                    "velocity": 0.30708661417322836,
                    "duration": 0.5018400000000156
                },
                {
                    "name": "A5",
                    "midi": 81,
                    "time": 608.7319199999952,
                    "velocity": 0.30708661417322836,
                    "duration": 0.5018400000000156
                },
                {
                    "name": "D6",
                    "midi": 86,
                    "time": 609.2337599999952,
                    "velocity": 0.36220472440944884,
                    "duration": 0.47674800000004325
                },
                {
                    "name": "B5",
                    "midi": 83,
                    "time": 609.2337599999952,
                    "velocity": 0.36220472440944884,
                    "duration": 0.47674800000004325
                },
                {
                    "name": "G5",
                    "midi": 79,
                    "time": 609.7355999999952,
                    "velocity": 0.31496062992125984,
                    "duration": 0.5018399999999019
                },
                {
                    "name": "G4",
                    "midi": 67,
                    "time": 610.488359999995,
                    "velocity": 0.1889763779527559,
                    "duration": 0.25091999999995096
                },
                {
                    "name": "C5",
                    "midi": 72,
                    "time": 610.739279999995,
                    "velocity": 0.30708661417322836,
                    "duration": 0.25091999999995096
                },
                {
                    "name": "G5",
                    "midi": 79,
                    "time": 610.990199999995,
                    "velocity": 0.1889763779527559,
                    "duration": 0.25091999999995096
                },
                {
                    "name": "G4",
                    "midi": 67,
                    "time": 611.4920399999949,
                    "velocity": 0.1889763779527559,
                    "duration": 0.25091999999995096
                },
                {
                    "name": "D5",
                    "midi": 74,
                    "time": 611.7429599999948,
                    "velocity": 0.2992125984251969,
                    "duration": 0.25091999999995096
                },
                {
                    "name": "G5",
                    "midi": 79,
                    "time": 611.9938799999948,
                    "velocity": 0.1889763779527559,
                    "duration": 0.25091999999995096
                },
                {
                    "name": "C5",
                    "midi": 72,
                    "time": 612.4957199999947,
                    "velocity": 0.1889763779527559,
                    "duration": 0.25091999999995096
                },
                {
                    "name": "D#5",
                    "midi": 75,
                    "time": 612.7466399999946,
                    "velocity": 0.3228346456692913,
                    "duration": 0.25091999999995096
                },
                {
                    "name": "G#5",
                    "midi": 80,
                    "time": 612.9975599999946,
                    "velocity": 0.1889763779527559,
                    "duration": 0.25091999999995096
                },
                {
                    "name": "G#4",
                    "midi": 68,
                    "time": 613.4993999999945,
                    "velocity": 0.1889763779527559,
                    "duration": 0.25091999999995096
                },
                {
                    "name": "D5",
                    "midi": 74,
                    "time": 613.7503199999944,
                    "velocity": 0.2992125984251969,
                    "duration": 0.25091999999995096
                },
                {
                    "name": "G#5",
                    "midi": 80,
                    "time": 613.9866029999944,
                    "velocity": 0.1889763779527559,
                    "duration": 0.25091999999995096
                },
                {
                    "name": "C5",
                    "midi": 72,
                    "time": 614.5030799999943,
                    "velocity": 0.25196850393700787,
                    "duration": 0.25091999999995096
                },
                {
                    "name": "G#5",
                    "midi": 80,
                    "time": 614.7539999999942,
                    "velocity": 0.31496062992125984,
                    "duration": 0.25091999999995096
                },
                {
                    "name": "D6",
                    "midi": 86,
                    "time": 615.0049199999942,
                    "velocity": 0.25196850393700787,
                    "duration": 0.25091999999995096
                },
                {
                    "name": "B4",
                    "midi": 71,
                    "time": 615.5067599999941,
                    "velocity": 0.25196850393700787,
                    "duration": 0.25091999999995096
                },
                {
                    "name": "G5",
                    "midi": 79,
                    "time": 615.757679999994,
                    "velocity": 0.3228346456692913,
                    "duration": 0.25091999999995096
                },
                {
                    "name": "D6",
                    "midi": 86,
                    "time": 616.008599999994,
                    "velocity": 0.2677165354330709,
                    "duration": 0.25091999999995096
                },
                {
                    "name": "F5",
                    "midi": 77,
                    "time": 616.5104399999939,
                    "velocity": 0.2755905511811024,
                    "duration": 0.25091999999995096
                },
                {
                    "name": "D6",
                    "midi": 86,
                    "time": 616.7613599999938,
                    "velocity": 0.3700787401574803,
                    "duration": 0.25091999999995096
                },
                {
                    "name": "G6",
                    "midi": 91,
                    "time": 617.0122799999938,
                    "velocity": 0.2992125984251969,
                    "duration": 0.25091999999995096
                },
                {
                    "name": "D#5",
                    "midi": 75,
                    "time": 617.5141199999937,
                    "velocity": 0.2992125984251969,
                    "duration": 0.25091999999995096
                },
                {
                    "name": "C6",
                    "midi": 84,
                    "time": 617.7650399999936,
                    "velocity": 0.4094488188976378,
                    "duration": 0.25091999999995096
                },
                {
                    "name": "G6",
                    "midi": 91,
                    "time": 618.0159599999936,
                    "velocity": 0.28346456692913385,
                    "duration": 0.25091999999995096
                },
                {
                    "name": "C5",
                    "midi": 72,
                    "time": 618.7687199999936,
                    "velocity": 0.30708661417322836,
                    "duration": 0.6272999999999911
                },
                {
                    "name": "D5",
                    "midi": 74,
                    "time": 618.7687199999936,
                    "velocity": 0.3700787401574803,
                    "duration": 0.6272999999999911
                },
                {
                    "name": "G#4",
                    "midi": 68,
                    "time": 618.7687199999936,
                    "velocity": 0.30708661417322836,
                    "duration": 0.6272999999999911
                },
                {
                    "name": "D#5",
                    "midi": 75,
                    "time": 619.3960199999935,
                    "velocity": 0.3543307086614173,
                    "duration": 0.12545999999997548
                },
                {
                    "name": "D5",
                    "midi": 74,
                    "time": 619.5214799999935,
                    "velocity": 0.3543307086614173,
                    "duration": 0.12545999999997548
                },
                {
                    "name": "C5",
                    "midi": 72,
                    "time": 619.6469399999935,
                    "velocity": 0.3543307086614173,
                    "duration": 0.12545999999997548
                },
                {
                    "name": "D5",
                    "midi": 74,
                    "time": 619.7723999999935,
                    "velocity": 0.36220472440944884,
                    "duration": 0.12545999999997548
                },
                {
                    "name": "D#5",
                    "midi": 75,
                    "time": 619.8978599999934,
                    "velocity": 0.3858267716535433,
                    "duration": 0.12545999999997548
                },
                {
                    "name": "F5",
                    "midi": 77,
                    "time": 620.0233199999934,
                    "velocity": 0.4094488188976378,
                    "duration": 0.12545999999997548
                },
                {
                    "name": "G5",
                    "midi": 79,
                    "time": 620.1487799999934,
                    "velocity": 0.4330708661417323,
                    "duration": 0.12545999999997548
                },
                {
                    "name": "A#5",
                    "midi": 82,
                    "time": 620.2742399999934,
                    "velocity": 0.5354330708661418,
                    "duration": 0.5018400000000156
                },
                {
                    "name": "G#5",
                    "midi": 80,
                    "time": 620.7760799999934,
                    "velocity": 0.5039370078740157,
                    "duration": 0.25091999999995096
                },
                {
                    "name": "B4",
                    "midi": 71,
                    "time": 622.7834399999933,
                    "velocity": 0.30708661417322836,
                    "duration": 0.6272999999999911
                },
                {
                    "name": "D5",
                    "midi": 74,
                    "time": 622.7834399999933,
                    "velocity": 0.3700787401574803,
                    "duration": 0.6272999999999911
                },
                {
                    "name": "G#4",
                    "midi": 68,
                    "time": 622.7834399999933,
                    "velocity": 0.30708661417322836,
                    "duration": 0.6272999999999911
                },
                {
                    "name": "D#5",
                    "midi": 75,
                    "time": 623.4107399999933,
                    "velocity": 0.3543307086614173,
                    "duration": 0.12545999999997548
                },
                {
                    "name": "D5",
                    "midi": 74,
                    "time": 623.5361999999933,
                    "velocity": 0.3543307086614173,
                    "duration": 0.12545999999997548
                },
                {
                    "name": "C#5",
                    "midi": 73,
                    "time": 623.6616599999933,
                    "velocity": 0.3543307086614173,
                    "duration": 0.12545999999997548
                },
                {
                    "name": "D5",
                    "midi": 74,
                    "time": 623.7871199999933,
                    "velocity": 0.36220472440944884,
                    "duration": 0.12545999999997548
                },
                {
                    "name": "D#5",
                    "midi": 75,
                    "time": 623.9125799999932,
                    "velocity": 0.3858267716535433,
                    "duration": 0.12545999999997548
                },
                {
                    "name": "F5",
                    "midi": 77,
                    "time": 624.0380399999932,
                    "velocity": 0.4094488188976378,
                    "duration": 0.12545999999997548
                },
                {
                    "name": "G5",
                    "midi": 79,
                    "time": 624.1634999999932,
                    "velocity": 0.4330708661417323,
                    "duration": 0.12545999999997548
                },
                {
                    "name": "A#5",
                    "midi": 82,
                    "time": 624.2889599999932,
                    "velocity": 0.5354330708661418,
                    "duration": 0.5018400000000156
                },
                {
                    "name": "G#5",
                    "midi": 80,
                    "time": 624.7907999999932,
                    "velocity": 0.5039370078740157,
                    "duration": 0.25091999999995096
                },
                {
                    "name": "F5",
                    "midi": 77,
                    "time": 625.2926399999931,
                    "velocity": 0.4881889763779528,
                    "duration": 0.7527599999999666
                },
                {
                    "name": "D#6",
                    "midi": 87,
                    "time": 625.2926399999931,
                    "velocity": 0.5826771653543307,
                    "duration": 0.5018400000000156
                },
                {
                    "name": "C#6",
                    "midi": 85,
                    "time": 625.7944799999931,
                    "velocity": 0.5433070866141733,
                    "duration": 0.25091999999995096
                },
                {
                    "name": "D#5",
                    "midi": 75,
                    "time": 628.303679999993,
                    "velocity": 0.3228346456692913,
                    "duration": 0.501840000000243
                },
                {
                    "name": "F4",
                    "midi": 65,
                    "time": 628.303679999993,
                    "velocity": 0.3228346456692913,
                    "duration": 0.1380060000000185
                },
                {
                    "name": "F#4",
                    "midi": 66,
                    "time": 628.429139999993,
                    "velocity": 0.3228346456692913,
                    "duration": 0.1380060000001322
                },
                {
                    "name": "F4",
                    "midi": 65,
                    "time": 628.5545999999931,
                    "velocity": 0.3228346456692913,
                    "duration": 0.1380060000001322
                },
                {
                    "name": "E4",
                    "midi": 64,
                    "time": 628.6800599999932,
                    "velocity": 0.3228346456692913,
                    "duration": 0.1380060000001322
                },
                {
                    "name": "C#5",
                    "midi": 73,
                    "time": 628.8055199999933,
                    "velocity": 0.48031496062992124,
                    "duration": 0.25092000000017833
                },
                {
                    "name": "F4",
                    "midi": 65,
                    "time": 628.8055199999933,
                    "velocity": 0.3543307086614173,
                    "duration": 0.1380060000001322
                },
                {
                    "name": "G#4",
                    "midi": 68,
                    "time": 628.9309799999934,
                    "velocity": 0.3700787401574803,
                    "duration": 0.1380060000001322
                },
                {
                    "name": "B4",
                    "midi": 71,
                    "time": 629.0564399999935,
                    "velocity": 0.3858267716535433,
                    "duration": 0.1380060000001322
                },
                {
                    "name": "C#5",
                    "midi": 73,
                    "time": 629.1818999999936,
                    "velocity": 0.4094488188976378,
                    "duration": 0.1380060000001322
                },
                {
                    "name": "D#6",
                    "midi": 87,
                    "time": 629.3073599999937,
                    "velocity": 0.5275590551181102,
                    "duration": 0.5018400000000156
                },
                {
                    "name": "F#5",
                    "midi": 78,
                    "time": 629.3073599999937,
                    "velocity": 0.5275590551181102,
                    "duration": 0.7527599999999666
                },
                {
                    "name": "C#6",
                    "midi": 85,
                    "time": 629.8091999999937,
                    "velocity": 0.48031496062992124,
                    "duration": 0.25091999999995096
                },
                {
                    "name": "F5",
                    "midi": 77,
                    "time": 630.3110399999936,
                    "velocity": 0.4015748031496063,
                    "duration": 0.1380060000000185
                },
                {
                    "name": "D#6",
                    "midi": 87,
                    "time": 630.3110399999936,
                    "velocity": 0.5905511811023622,
                    "duration": 0.501840000000243
                },
                {
                    "name": "F#5",
                    "midi": 78,
                    "time": 630.4364999999935,
                    "velocity": 0.3700787401574803,
                    "duration": 0.1380060000001322
                },
                {
                    "name": "F5",
                    "midi": 77,
                    "time": 630.5619599999936,
                    "velocity": 0.3700787401574803,
                    "duration": 0.1380060000001322
                },
                {
                    "name": "E5",
                    "midi": 76,
                    "time": 630.6874199999937,
                    "velocity": 0.3700787401574803,
                    "duration": 0.1380060000001322
                },
                {
                    "name": "C#6",
                    "midi": 85,
                    "time": 630.8128799999938,
                    "velocity": 0.5511811023622047,
                    "duration": 0.25092000000017833
                },
                {
                    "name": "F5",
                    "midi": 77,
                    "time": 630.8128799999938,
                    "velocity": 0.4015748031496063,
                    "duration": 0.1380060000001322
                },
                {
                    "name": "G#5",
                    "midi": 80,
                    "time": 630.9383399999939,
                    "velocity": 0.41732283464566927,
                    "duration": 0.1380060000001322
                },
                {
                    "name": "B5",
                    "midi": 83,
                    "time": 631.063799999994,
                    "velocity": 0.4409448818897638,
                    "duration": 0.1380060000001322
                },
                {
                    "name": "C#6",
                    "midi": 85,
                    "time": 631.1892599999941,
                    "velocity": 0.47244094488188976,
                    "duration": 0.1380060000001322
                },
                {
                    "name": "F6",
                    "midi": 89,
                    "time": 631.3147199999942,
                    "velocity": 0.6062992125984252,
                    "duration": 0.7527599999999666
                },
                {
                    "name": "D#7",
                    "midi": 99,
                    "time": 631.3147199999942,
                    "velocity": 0.6062992125984252,
                    "duration": 0.5018400000000156
                },
                {
                    "name": "C#7",
                    "midi": 97,
                    "time": 631.8165599999942,
                    "velocity": 0.6771653543307087,
                    "duration": 0.7527599999999666
                },
                {
                    "name": "C7",
                    "midi": 96,
                    "time": 632.5693199999941,
                    "velocity": 0.5905511811023622,
                    "duration": 0.25091999999995096
                },
                {
                    "name": "B6",
                    "midi": 95,
                    "time": 632.8202399999941,
                    "velocity": 0.6062992125984252,
                    "duration": 0.25091999999995096
                },
                {
                    "name": "A#6",
                    "midi": 94,
                    "time": 633.071159999994,
                    "velocity": 0.5748031496062992,
                    "duration": 0.25091999999995096
                },
                {
                    "name": "A6",
                    "midi": 93,
                    "time": 633.322079999994,
                    "velocity": 0.5433070866141733,
                    "duration": 0.25091999999995096
                },
                {
                    "name": "G#6",
                    "midi": 92,
                    "time": 633.572999999994,
                    "velocity": 0.49606299212598426,
                    "duration": 0.25091999999995096
                },
                {
                    "name": "G6",
                    "midi": 91,
                    "time": 633.8239199999939,
                    "velocity": 0.5511811023622047,
                    "duration": 0.25091999999995096
                },
                {
                    "name": "F#6",
                    "midi": 90,
                    "time": 634.0748399999939,
                    "velocity": 0.5433070866141733,
                    "duration": 0.25091999999995096
                },
                {
                    "name": "F6",
                    "midi": 89,
                    "time": 634.3257599999938,
                    "velocity": 0.5511811023622047,
                    "duration": 0.25091999999995096
                },
                {
                    "name": "E6",
                    "midi": 88,
                    "time": 634.5766799999938,
                    "velocity": 0.47244094488188976,
                    "duration": 0.25091999999995096
                },
                {
                    "name": "D#6",
                    "midi": 87,
                    "time": 634.8275999999937,
                    "velocity": 0.5039370078740157,
                    "duration": 0.25091999999995096
                },
                {
                    "name": "D6",
                    "midi": 86,
                    "time": 635.0785199999937,
                    "velocity": 0.5275590551181102,
                    "duration": 0.25091999999995096
                },
                {
                    "name": "C#6",
                    "midi": 85,
                    "time": 635.3294399999936,
                    "velocity": 0.5590551181102362,
                    "duration": 0.25091999999995096
                },
                {
                    "name": "C6",
                    "midi": 84,
                    "time": 635.5803599999936,
                    "velocity": 0.47244094488188976,
                    "duration": 0.25091999999995096
                },
                {
                    "name": "B5",
                    "midi": 83,
                    "time": 635.8312799999935,
                    "velocity": 0.5275590551181102,
                    "duration": 0.25091999999995096
                },
                {
                    "name": "A#5",
                    "midi": 82,
                    "time": 636.0821999999935,
                    "velocity": 0.4251968503937008,
                    "duration": 0.25091999999995096
                },
                {
                    "name": "A5",
                    "midi": 81,
                    "time": 636.3331199999934,
                    "velocity": 0.47244094488188976,
                    "duration": 0.25091999999995096
                },
                {
                    "name": "G#5",
                    "midi": 80,
                    "time": 636.5840399999934,
                    "velocity": 0.4251968503937008,
                    "duration": 0.25091999999995096
                },
                {
                    "name": "G5",
                    "midi": 79,
                    "time": 636.8349599999933,
                    "velocity": 0.4645669291338583,
                    "duration": 0.25091999999995096
                },
                {
                    "name": "F#5",
                    "midi": 78,
                    "time": 637.0858799999933,
                    "velocity": 0.3937007874015748,
                    "duration": 0.25091999999995096
                },
                {
                    "name": "F5",
                    "midi": 77,
                    "time": 637.3367999999932,
                    "velocity": 0.3464566929133858,
                    "duration": 0.25091999999995096
                },
                {
                    "name": "E5",
                    "midi": 76,
                    "time": 637.5877199999932,
                    "velocity": 0.36220472440944884,
                    "duration": 0.25091999999995096
                },
                {
                    "name": "D#5",
                    "midi": 75,
                    "time": 637.8386399999931,
                    "velocity": 0.41732283464566927,
                    "duration": 0.25091999999995096
                },
                {
                    "name": "D5",
                    "midi": 74,
                    "time": 638.0895599999931,
                    "velocity": 0.36220472440944884,
                    "duration": 0.25091999999995096
                },
                {
                    "name": "D#5",
                    "midi": 75,
                    "time": 638.842319999993,
                    "velocity": 0.4251968503937008,
                    "duration": 0.5018400000000156
                },
                {
                    "name": "F#5",
                    "midi": 78,
                    "time": 639.344159999993,
                    "velocity": 0.4566929133858268,
                    "duration": 0.5018400000000156
                },
                {
                    "name": "C6",
                    "midi": 84,
                    "time": 639.8459999999931,
                    "velocity": 0.4251968503937008,
                    "duration": 0.5018400000000156
                },
                {
                    "name": "G#5",
                    "midi": 80,
                    "time": 640.8496799999931,
                    "velocity": 0.4251968503937008,
                    "duration": 0.5018400000000156
                },
                {
                    "name": "G5",
                    "midi": 79,
                    "time": 641.3515199999931,
                    "velocity": 0.33858267716535434,
                    "duration": 0.5018400000000156
                },
                {
                    "name": "B4",
                    "midi": 71,
                    "time": 641.8533599999931,
                    "velocity": 0.2677165354330709,
                    "duration": 0.5018400000000156
                },
                {
                    "name": "G#5",
                    "midi": 80,
                    "time": 642.3551999999931,
                    "velocity": 0.25196850393700787,
                    "duration": 0.25091999999995096
                },
                {
                    "name": "C6",
                    "midi": 84,
                    "time": 642.3551999999931,
                    "velocity": 0.31496062992125984,
                    "duration": 1.0036799999998038
                },
                {
                    "name": "C5",
                    "midi": 72,
                    "time": 642.6061199999931,
                    "velocity": 0.18110236220472442,
                    "duration": 0.25091999999995096
                },
                {
                    "name": "G#5",
                    "midi": 80,
                    "time": 642.857039999993,
                    "velocity": 0.18110236220472442,
                    "duration": 0.25091999999995096
                },
                {
                    "name": "C5",
                    "midi": 72,
                    "time": 643.107959999993,
                    "velocity": 0.18110236220472442,
                    "duration": 0.25091999999995096
                },
                {
                    "name": "A#5",
                    "midi": 82,
                    "time": 643.358879999993,
                    "velocity": 0.2755905511811024,
                    "duration": 0.5018400000000156
                },
                {
                    "name": "G5",
                    "midi": 79,
                    "time": 643.358879999993,
                    "velocity": 0.2755905511811024,
                    "duration": 0.5018400000000156
                },
                {
                    "name": "G#5",
                    "midi": 80,
                    "time": 643.860719999993,
                    "velocity": 0.3228346456692913,
                    "duration": 0.5018400000000156
                },
                {
                    "name": "C6",
                    "midi": 84,
                    "time": 643.860719999993,
                    "velocity": 0.3228346456692913,
                    "duration": 0.5018400000000156
                },
                {
                    "name": "A#5",
                    "midi": 82,
                    "time": 644.362559999993,
                    "velocity": 0.36220472440944884,
                    "duration": 0.7297589999999445
                },
                {
                    "name": "C#6",
                    "midi": 85,
                    "time": 644.362559999993,
                    "velocity": 0.36220472440944884,
                    "duration": 0.7297589999999445
                },
                {
                    "name": "A#5",
                    "midi": 82,
                    "time": 645.115319999993,
                    "velocity": 0.30708661417322836,
                    "duration": 0.25091999999995096
                },
                {
                    "name": "G5",
                    "midi": 79,
                    "time": 645.115319999993,
                    "velocity": 0.30708661417322836,
                    "duration": 0.25091999999995096
                },
                {
                    "name": "E5",
                    "midi": 76,
                    "time": 645.3662399999929,
                    "velocity": 0.36220472440944884,
                    "duration": 0.5018400000000156
                },
                {
                    "name": "G5",
                    "midi": 79,
                    "time": 645.3662399999929,
                    "velocity": 0.36220472440944884,
                    "duration": 0.5018400000000156
                },
                {
                    "name": "G#5",
                    "midi": 80,
                    "time": 645.8680799999929,
                    "velocity": 0.31496062992125984,
                    "duration": 0.5018400000000156
                },
                {
                    "name": "F5",
                    "midi": 77,
                    "time": 645.8680799999929,
                    "velocity": 0.31496062992125984,
                    "duration": 0.5018400000000156
                },
                {
                    "name": "G5",
                    "midi": 79,
                    "time": 646.3699199999929,
                    "velocity": 0.31496062992125984,
                    "duration": 0.5018400000000156
                },
                {
                    "name": "A#5",
                    "midi": 82,
                    "time": 646.3699199999929,
                    "velocity": 0.31496062992125984,
                    "duration": 0.5018400000000156
                },
                {
                    "name": "G#5",
                    "midi": 80,
                    "time": 646.871759999993,
                    "velocity": 0.2755905511811024,
                    "duration": 0.5018400000000156
                },
                {
                    "name": "F5",
                    "midi": 77,
                    "time": 646.871759999993,
                    "velocity": 0.2755905511811024,
                    "duration": 0.5018400000000156
                },
                {
                    "name": "G5",
                    "midi": 79,
                    "time": 647.373599999993,
                    "velocity": 0.2755905511811024,
                    "duration": 0.5018400000000156
                },
                {
                    "name": "D#5",
                    "midi": 75,
                    "time": 647.373599999993,
                    "velocity": 0.2755905511811024,
                    "duration": 0.5018400000000156
                },
                {
                    "name": "C#5",
                    "midi": 73,
                    "time": 647.875439999993,
                    "velocity": 0.3228346456692913,
                    "duration": 0.5018400000000156
                },
                {
                    "name": "F5",
                    "midi": 77,
                    "time": 647.875439999993,
                    "velocity": 0.3228346456692913,
                    "duration": 0.5018400000000156
                },
                {
                    "name": "C5",
                    "midi": 72,
                    "time": 648.377279999993,
                    "velocity": 0.1968503937007874,
                    "duration": 0.7527599999999666
                },
                {
                    "name": "E5",
                    "midi": 76,
                    "time": 648.377279999993,
                    "velocity": 0.36220472440944884,
                    "duration": 0.7527599999999666
                },
                {
                    "name": "F5",
                    "midi": 77,
                    "time": 649.130039999993,
                    "velocity": 0.30708661417322836,
                    "duration": 0.25091999999995096
                },
                {
                    "name": "D5",
                    "midi": 74,
                    "time": 649.130039999993,
                    "velocity": 0.30708661417322836,
                    "duration": 0.25091999999995096
                },
                {
                    "name": "G5",
                    "midi": 79,
                    "time": 649.3809599999929,
                    "velocity": 0.36220472440944884,
                    "duration": 0.5018400000000156
                },
                {
                    "name": "E5",
                    "midi": 76,
                    "time": 649.3809599999929,
                    "velocity": 0.36220472440944884,
                    "duration": 0.5018400000000156
                },
                {
                    "name": "C5",
                    "midi": 72,
                    "time": 649.8827999999929,
                    "velocity": 0.4015748031496063,
                    "duration": 0.3763800000000401
                },
                {
                    "name": "C6",
                    "midi": 84,
                    "time": 649.8827999999929,
                    "velocity": 0.41732283464566927,
                    "duration": 0.3763800000000401
                },
                {
                    "name": "C#5",
                    "midi": 73,
                    "time": 650.3846399999929,
                    "velocity": 0.3858267716535433,
                    "duration": 2.0073600000000624
                },
                {
                    "name": "C#6",
                    "midi": 85,
                    "time": 650.3846399999929,
                    "velocity": 0.4566929133858268,
                    "duration": 1.0036800000000312
                },
                {
                    "name": "B5",
                    "midi": 83,
                    "time": 651.388319999993,
                    "velocity": 0.33070866141732286,
                    "duration": 0.5018400000000156
                },
                {
                    "name": "G#5",
                    "midi": 80,
                    "time": 651.388319999993,
                    "velocity": 0.2755905511811024,
                    "duration": 0.5018400000000156
                },
                {
                    "name": "A5",
                    "midi": 81,
                    "time": 651.890159999993,
                    "velocity": 0.3228346456692913,
                    "duration": 0.5018400000000156
                },
                {
                    "name": "C#6",
                    "midi": 85,
                    "time": 651.890159999993,
                    "velocity": 0.3858267716535433,
                    "duration": 0.5018400000000156
                },
                {
                    "name": "C#5",
                    "midi": 73,
                    "time": 652.391999999993,
                    "velocity": 0.3464566929133858,
                    "duration": 1.4846099999998614
                },
                {
                    "name": "B5",
                    "midi": 83,
                    "time": 652.391999999993,
                    "velocity": 0.4409448818897638,
                    "duration": 0.7297589999999445
                },
                {
                    "name": "D6",
                    "midi": 86,
                    "time": 652.391999999993,
                    "velocity": 0.4409448818897638,
                    "duration": 0.7297589999999445
                },
                {
                    "name": "B5",
                    "midi": 83,
                    "time": 653.144759999993,
                    "velocity": 0.3464566929133858,
                    "duration": 0.2258279999999786
                },
                {
                    "name": "G#5",
                    "midi": 80,
                    "time": 653.144759999993,
                    "velocity": 0.29133858267716534,
                    "duration": 0.2258279999999786
                },
                {
                    "name": "F5",
                    "midi": 77,
                    "time": 653.3956799999929,
                    "velocity": 0.3464566929133858,
                    "duration": 0.5018399999999019
                },
                {
                    "name": "G#5",
                    "midi": 80,
                    "time": 653.3956799999929,
                    "velocity": 0.4094488188976378,
                    "duration": 0.5018399999999019
                },
                {
                    "name": "C#5",
                    "midi": 73,
                    "time": 653.8975199999928,
                    "velocity": 0.30708661417322836,
                    "duration": 0.5018400000000156
                },
                {
                    "name": "C#6",
                    "midi": 85,
                    "time": 653.8975199999928,
                    "velocity": 0.3700787401574803,
                    "duration": 0.5018400000000156
                },
                {
                    "name": "B5",
                    "midi": 83,
                    "time": 653.8975199999928,
                    "velocity": 0.30708661417322836,
                    "duration": 0.5018400000000156
                },
                {
                    "name": "F#5",
                    "midi": 78,
                    "time": 654.3993599999928,
                    "velocity": 0.5669291338582677,
                    "duration": 2.0073600000000624
                },
                {
                    "name": "A#5",
                    "midi": 82,
                    "time": 654.3993599999928,
                    "velocity": 0.5669291338582677,
                    "duration": 1.0036800000000312
                },
                {
                    "name": "F#6",
                    "midi": 90,
                    "time": 654.3993599999928,
                    "velocity": 0.5669291338582677,
                    "duration": 1.0036800000000312
                },
                {
                    "name": "E6",
                    "midi": 88,
                    "time": 655.4030399999929,
                    "velocity": 0.4881889763779528,
                    "duration": 0.5018400000000156
                },
                {
                    "name": "C#6",
                    "midi": 85,
                    "time": 655.4030399999929,
                    "velocity": 0.4015748031496063,
                    "duration": 0.5018400000000156
                },
                {
                    "name": "D6",
                    "midi": 86,
                    "time": 655.9048799999929,
                    "velocity": 0.44881889763779526,
                    "duration": 0.5018400000000156
                },
                {
                    "name": "F#6",
                    "midi": 90,
                    "time": 655.9048799999929,
                    "velocity": 0.5354330708661418,
                    "duration": 0.5018400000000156
                },
                {
                    "name": "C#5",
                    "midi": 73,
                    "time": 656.4067199999929,
                    "velocity": 0.4094488188976378,
                    "duration": 1.5055199999999331
                },
                {
                    "name": "E6",
                    "midi": 88,
                    "time": 656.4067199999929,
                    "velocity": 0.6062992125984252,
                    "duration": 0.7297589999999445
                },
                {
                    "name": "G6",
                    "midi": 91,
                    "time": 656.4067199999929,
                    "velocity": 0.6692913385826772,
                    "duration": 0.7297589999999445
                },
                {
                    "name": "E6",
                    "midi": 88,
                    "time": 657.1594799999929,
                    "velocity": 0.5354330708661418,
                    "duration": 0.25091999999995096
                },
                {
                    "name": "C#6",
                    "midi": 85,
                    "time": 657.1594799999929,
                    "velocity": 0.44881889763779526,
                    "duration": 0.25091999999995096
                },
                {
                    "name": "A#5",
                    "midi": 82,
                    "time": 657.4103999999928,
                    "velocity": 0.5354330708661418,
                    "duration": 0.5018400000000156
                },
                {
                    "name": "C#6",
                    "midi": 85,
                    "time": 657.4103999999928,
                    "velocity": 0.6377952755905512,
                    "duration": 0.5018400000000156
                },
                {
                    "name": "F#5",
                    "midi": 78,
                    "time": 657.9122399999928,
                    "velocity": 0.5511811023622047,
                    "duration": 0.5018400000000156
                },
                {
                    "name": "F#6",
                    "midi": 90,
                    "time": 657.9122399999928,
                    "velocity": 0.6850393700787402,
                    "duration": 0.5018400000000156
                },
                {
                    "name": "E6",
                    "midi": 88,
                    "time": 657.9122399999928,
                    "velocity": 0.5511811023622047,
                    "duration": 0.5018400000000156
                },
                {
                    "name": "B5",
                    "midi": 83,
                    "time": 658.4140799999929,
                    "velocity": 0.44881889763779526,
                    "duration": 0.25091999999995096
                },
                {
                    "name": "D#6",
                    "midi": 87,
                    "time": 658.4140799999929,
                    "velocity": 0.44881889763779526,
                    "duration": 0.25091999999995096
                },
                {
                    "name": "A6",
                    "midi": 93,
                    "time": 658.4140799999929,
                    "velocity": 0.5354330708661418,
                    "duration": 0.25091999999995096
                },
                {
                    "name": "B6",
                    "midi": 95,
                    "time": 658.4140799999929,
                    "velocity": 0.5354330708661418,
                    "duration": 0.25091999999995096
                },
                {
                    "name": "A5",
                    "midi": 81,
                    "time": 658.9159199999928,
                    "velocity": 0.4409448818897638,
                    "duration": 0.12545999999997548
                },
                {
                    "name": "A6",
                    "midi": 93,
                    "time": 658.9159199999928,
                    "velocity": 0.5196850393700787,
                    "duration": 0.12545999999997548
                },
                {
                    "name": "B5",
                    "midi": 83,
                    "time": 659.1668399999927,
                    "velocity": 0.4566929133858268,
                    "duration": 0.12545999999997548
                },
                {
                    "name": "B6",
                    "midi": 95,
                    "time": 659.1668399999927,
                    "velocity": 0.5354330708661418,
                    "duration": 0.12545999999997548
                },
                {
                    "name": "C6",
                    "midi": 84,
                    "time": 659.4177599999927,
                    "velocity": 0.47244094488188976,
                    "duration": 0.25091999999995096
                },
                {
                    "name": "C7",
                    "midi": 96,
                    "time": 659.4177599999927,
                    "velocity": 0.5590551181102362,
                    "duration": 0.25091999999995096
                },
                {
                    "name": "A5",
                    "midi": 81,
                    "time": 659.6686799999926,
                    "velocity": 0.4330708661417323,
                    "duration": 0.25091999999995096
                },
                {
                    "name": "A6",
                    "midi": 93,
                    "time": 659.6686799999926,
                    "velocity": 0.5196850393700787,
                    "duration": 0.25091999999995096
                },
                {
                    "name": "F#5",
                    "midi": 78,
                    "time": 659.9195999999926,
                    "velocity": 0.4566929133858268,
                    "duration": 0.12545999999997548
                },
                {
                    "name": "F#6",
                    "midi": 90,
                    "time": 659.9195999999926,
                    "velocity": 0.5354330708661418,
                    "duration": 0.12545999999997548
                },
                {
                    "name": "G5",
                    "midi": 79,
                    "time": 660.1705199999925,
                    "velocity": 0.41732283464566927,
                    "duration": 0.12545999999997548
                },
                {
                    "name": "G6",
                    "midi": 91,
                    "time": 660.1705199999925,
                    "velocity": 0.49606299212598426,
                    "duration": 0.12545999999997548
                },
                {
                    "name": "A5",
                    "midi": 81,
                    "time": 660.4214399999925,
                    "velocity": 0.48031496062992124,
                    "duration": 0.25091999999995096
                },
                {
                    "name": "A6",
                    "midi": 93,
                    "time": 660.4214399999925,
                    "velocity": 0.5748031496062992,
                    "duration": 0.25091999999995096
                },
                {
                    "name": "F#5",
                    "midi": 78,
                    "time": 660.6723599999924,
                    "velocity": 0.4409448818897638,
                    "duration": 0.25091999999995096
                },
                {
                    "name": "F#6",
                    "midi": 90,
                    "time": 660.6723599999924,
                    "velocity": 0.5354330708661418,
                    "duration": 0.25091999999995096
                },
                {
                    "name": "C5",
                    "midi": 72,
                    "time": 660.9232799999924,
                    "velocity": 0.4645669291338583,
                    "duration": 0.12545999999997548
                },
                {
                    "name": "C6",
                    "midi": 84,
                    "time": 660.9232799999924,
                    "velocity": 0.5511811023622047,
                    "duration": 0.12545999999997548
                },
                {
                    "name": "D5",
                    "midi": 74,
                    "time": 661.1741999999923,
                    "velocity": 0.4251968503937008,
                    "duration": 0.12545999999997548
                },
                {
                    "name": "D6",
                    "midi": 86,
                    "time": 661.1741999999923,
                    "velocity": 0.5039370078740157,
                    "duration": 0.12545999999997548
                },
                {
                    "name": "D#5",
                    "midi": 75,
                    "time": 661.4251199999923,
                    "velocity": 0.49606299212598426,
                    "duration": 0.25091999999995096
                },
                {
                    "name": "D#6",
                    "midi": 87,
                    "time": 661.4251199999923,
                    "velocity": 0.5826771653543307,
                    "duration": 0.25091999999995096
                },
                {
                    "name": "C5",
                    "midi": 72,
                    "time": 661.6760399999922,
                    "velocity": 0.4566929133858268,
                    "duration": 0.25091999999995096
                },
                {
                    "name": "C6",
                    "midi": 84,
                    "time": 661.6760399999922,
                    "velocity": 0.5511811023622047,
                    "duration": 0.25091999999995096
                },
                {
                    "name": "A4",
                    "midi": 69,
                    "time": 661.9269599999922,
                    "velocity": 0.47244094488188976,
                    "duration": 0.12545999999997548
                },
                {
                    "name": "A5",
                    "midi": 81,
                    "time": 661.9269599999922,
                    "velocity": 0.5590551181102362,
                    "duration": 0.12545999999997548
                },
                {
                    "name": "B4",
                    "midi": 71,
                    "time": 662.1778799999921,
                    "velocity": 0.4409448818897638,
                    "duration": 0.12545999999997548
                },
                {
                    "name": "B5",
                    "midi": 83,
                    "time": 662.1778799999921,
                    "velocity": 0.5196850393700787,
                    "duration": 0.12545999999997548
                },
                {
                    "name": "C5",
                    "midi": 72,
                    "time": 662.4287999999921,
                    "velocity": 0.5039370078740157,
                    "duration": 0.25091999999995096
                },
                {
                    "name": "C6",
                    "midi": 84,
                    "time": 662.4287999999921,
                    "velocity": 0.5984251968503937,
                    "duration": 0.25091999999995096
                },
                {
                    "name": "A4",
                    "midi": 69,
                    "time": 662.679719999992,
                    "velocity": 0.4566929133858268,
                    "duration": 0.25091999999995096
                },
                {
                    "name": "A5",
                    "midi": 81,
                    "time": 662.679719999992,
                    "velocity": 0.5511811023622047,
                    "duration": 0.25091999999995096
                },
                {
                    "name": "F#4",
                    "midi": 66,
                    "time": 662.930639999992,
                    "velocity": 0.4881889763779528,
                    "duration": 0.12545999999997548
                },
                {
                    "name": "F#5",
                    "midi": 78,
                    "time": 662.930639999992,
                    "velocity": 0.5748031496062992,
                    "duration": 0.12545999999997548
                },
                {
                    "name": "G4",
                    "midi": 67,
                    "time": 663.1815599999919,
                    "velocity": 0.4409448818897638,
                    "duration": 0.12545999999997548
                },
                {
                    "name": "G5",
                    "midi": 79,
                    "time": 663.1815599999919,
                    "velocity": 0.5196850393700787,
                    "duration": 0.12545999999997548
                },
                {
                    "name": "A4",
                    "midi": 69,
                    "time": 663.4324799999919,
                    "velocity": 0.5118110236220472,
                    "duration": 0.25091999999995096
                },
                {
                    "name": "A5",
                    "midi": 81,
                    "time": 663.4324799999919,
                    "velocity": 0.6141732283464567,
                    "duration": 0.25091999999995096
                },
                {
                    "name": "F#4",
                    "midi": 66,
                    "time": 663.6833999999918,
                    "velocity": 0.47244094488188976,
                    "duration": 0.25091999999995096
                },
                {
                    "name": "F#5",
                    "midi": 78,
                    "time": 663.6833999999918,
                    "velocity": 0.5669291338582677,
                    "duration": 0.25091999999995096
                },
                {
                    "name": "C#5",
                    "midi": 73,
                    "time": 664.1852399999917,
                    "velocity": 0.49606299212598426,
                    "duration": 0.12545999999997548
                },
                {
                    "name": "A4",
                    "midi": 69,
                    "time": 664.1852399999917,
                    "velocity": 0.49606299212598426,
                    "duration": 0.12545999999997548
                },
                {
                    "name": "G4",
                    "midi": 67,
                    "time": 664.1852399999917,
                    "velocity": 0.49606299212598426,
                    "duration": 0.12545999999997548
                },
                {
                    "name": "G5",
                    "midi": 79,
                    "time": 664.1852399999917,
                    "velocity": 0.5905511811023622,
                    "duration": 0.12545999999997548
                },
                {
                    "name": "F#5",
                    "midi": 78,
                    "time": 664.6870799999917,
                    "velocity": 0.5039370078740157,
                    "duration": 0.12545999999997548
                },
                {
                    "name": "D#5",
                    "midi": 75,
                    "time": 664.6870799999917,
                    "velocity": 0.5039370078740157,
                    "duration": 0.12545999999997548
                },
                {
                    "name": "A4",
                    "midi": 69,
                    "time": 664.6870799999917,
                    "velocity": 0.5039370078740157,
                    "duration": 0.12545999999997548
                },
                {
                    "name": "A5",
                    "midi": 81,
                    "time": 664.6870799999917,
                    "velocity": 0.5905511811023622,
                    "duration": 0.12545999999997548
                },
                {
                    "name": "G5",
                    "midi": 79,
                    "time": 665.1889199999918,
                    "velocity": 0.5433070866141733,
                    "duration": 0.12545999999997548
                },
                {
                    "name": "E5",
                    "midi": 76,
                    "time": 665.1889199999918,
                    "velocity": 0.5433070866141733,
                    "duration": 0.12545999999997548
                },
                {
                    "name": "A4",
                    "midi": 69,
                    "time": 665.1889199999918,
                    "velocity": 0.5433070866141733,
                    "duration": 0.12545999999997548
                },
                {
                    "name": "A5",
                    "midi": 81,
                    "time": 665.1889199999918,
                    "velocity": 0.6456692913385826,
                    "duration": 0.12545999999997548
                },
                {
                    "name": "F#5",
                    "midi": 78,
                    "time": 665.6907599999918,
                    "velocity": 0.5905511811023622,
                    "duration": 0.12545999999997548
                },
                {
                    "name": "D#5",
                    "midi": 75,
                    "time": 665.6907599999918,
                    "velocity": 0.5905511811023622,
                    "duration": 0.12545999999997548
                },
                {
                    "name": "C5",
                    "midi": 72,
                    "time": 665.6907599999918,
                    "velocity": 0.5905511811023622,
                    "duration": 0.12545999999997548
                },
                {
                    "name": "C6",
                    "midi": 84,
                    "time": 665.6907599999918,
                    "velocity": 0.7007874015748031,
                    "duration": 0.12545999999997548
                },
                {
                    "name": "A5",
                    "midi": 81,
                    "time": 666.1925999999918,
                    "velocity": 0.6377952755905512,
                    "duration": 0.12545999999997548
                },
                {
                    "name": "E5",
                    "midi": 76,
                    "time": 666.1925999999918,
                    "velocity": 0.6377952755905512,
                    "duration": 0.12545999999997548
                },
                {
                    "name": "C#5",
                    "midi": 73,
                    "time": 666.1925999999918,
                    "velocity": 0.6377952755905512,
                    "duration": 0.12545999999997548
                },
                {
                    "name": "C#6",
                    "midi": 85,
                    "time": 666.1925999999918,
                    "velocity": 0.7480314960629921,
                    "duration": 0.12545999999997548
                },
                {
                    "name": "A#5",
                    "midi": 82,
                    "time": 666.4435199999917,
                    "velocity": 0.7007874015748031,
                    "duration": 1.0036800000000312
                },
                {
                    "name": "C#6",
                    "midi": 85,
                    "time": 666.4435199999917,
                    "velocity": 0.7007874015748031,
                    "duration": 1.0036800000000312
                },
                {
                    "name": "G6",
                    "midi": 91,
                    "time": 666.4435199999917,
                    "velocity": 0.7007874015748031,
                    "duration": 1.0036800000000312
                },
                {
                    "name": "A#6",
                    "midi": 94,
                    "time": 666.4435199999917,
                    "velocity": 0.8267716535433071,
                    "duration": 1.0036800000000312
                },
                {
                    "name": "A5",
                    "midi": 81,
                    "time": 667.4471999999918,
                    "velocity": 0.6220472440944882,
                    "duration": 0.5018400000000156
                },
                {
                    "name": "D6",
                    "midi": 86,
                    "time": 667.4471999999918,
                    "velocity": 0.6220472440944882,
                    "duration": 0.5018400000000156
                },
                {
                    "name": "F6",
                    "midi": 89,
                    "time": 667.4471999999918,
                    "velocity": 0.6220472440944882,
                    "duration": 0.5018400000000156
                },
                {
                    "name": "A6",
                    "midi": 93,
                    "time": 667.4471999999918,
                    "velocity": 0.7322834645669292,
                    "duration": 0.5018400000000156
                },
                {
                    "name": "C#5",
                    "midi": 73,
                    "time": 668.1999599999917,
                    "velocity": 0.6299212598425197,
                    "duration": 0.25091999999995096
                },
                {
                    "name": "C#6",
                    "midi": 85,
                    "time": 668.1999599999917,
                    "velocity": 0.7086614173228346,
                    "duration": 0.25091999999995096
                },
                {
                    "name": "A#5",
                    "midi": 82,
                    "time": 668.4508799999917,
                    "velocity": 0.7007874015748031,
                    "duration": 1.0036800000000312
                },
                {
                    "name": "C#6",
                    "midi": 85,
                    "time": 668.4508799999917,
                    "velocity": 0.7007874015748031,
                    "duration": 1.0036800000000312
                },
                {
                    "name": "G6",
                    "midi": 91,
                    "time": 668.4508799999917,
                    "velocity": 0.7007874015748031,
                    "duration": 1.0036800000000312
                },
                {
                    "name": "A#6",
                    "midi": 94,
                    "time": 668.4508799999917,
                    "velocity": 0.8267716535433071,
                    "duration": 1.0036800000000312
                },
                {
                    "name": "A5",
                    "midi": 81,
                    "time": 669.4545599999917,
                    "velocity": 0.6220472440944882,
                    "duration": 0.5018400000000156
                },
                {
                    "name": "D6",
                    "midi": 86,
                    "time": 669.4545599999917,
                    "velocity": 0.6220472440944882,
                    "duration": 0.5018400000000156
                },
                {
                    "name": "F6",
                    "midi": 89,
                    "time": 669.4545599999917,
                    "velocity": 0.6220472440944882,
                    "duration": 0.5018400000000156
                },
                {
                    "name": "A6",
                    "midi": 93,
                    "time": 669.4545599999917,
                    "velocity": 0.7322834645669292,
                    "duration": 0.5018400000000156
                },
                {
                    "name": "D5",
                    "midi": 74,
                    "time": 670.2073199999917,
                    "velocity": 0.6299212598425197,
                    "duration": 0.25091999999995096
                },
                {
                    "name": "D6",
                    "midi": 86,
                    "time": 670.2073199999917,
                    "velocity": 0.7086614173228346,
                    "duration": 0.25091999999995096
                },
                {
                    "name": "B5",
                    "midi": 83,
                    "time": 670.4582399999916,
                    "velocity": 0.7007874015748031,
                    "duration": 1.0036800000000312
                },
                {
                    "name": "D6",
                    "midi": 86,
                    "time": 670.4582399999916,
                    "velocity": 0.7007874015748031,
                    "duration": 1.0036800000000312
                },
                {
                    "name": "G#6",
                    "midi": 92,
                    "time": 670.4582399999916,
                    "velocity": 0.7007874015748031,
                    "duration": 1.0036800000000312
                },
                {
                    "name": "B6",
                    "midi": 95,
                    "time": 670.4582399999916,
                    "velocity": 0.8267716535433071,
                    "duration": 1.0036800000000312
                },
                {
                    "name": "C#6",
                    "midi": 85,
                    "time": 671.4619199999917,
                    "velocity": 0.7007874015748031,
                    "duration": 1.0036800000000312
                },
                {
                    "name": "E6",
                    "midi": 88,
                    "time": 671.4619199999917,
                    "velocity": 0.7007874015748031,
                    "duration": 1.0036800000000312
                },
                {
                    "name": "A6",
                    "midi": 93,
                    "time": 671.4619199999917,
                    "velocity": 0.7007874015748031,
                    "duration": 1.0036800000000312
                },
                {
                    "name": "C#7",
                    "midi": 97,
                    "time": 671.4619199999917,
                    "velocity": 0.8267716535433071,
                    "duration": 1.0036800000000312
                },
                {
                    "name": "D6",
                    "midi": 86,
                    "time": 672.4655999999917,
                    "velocity": 0.7007874015748031,
                    "duration": 1.0036800000000312
                },
                {
                    "name": "A6",
                    "midi": 93,
                    "time": 672.4655999999917,
                    "velocity": 0.7007874015748031,
                    "duration": 1.0036800000000312
                },
                {
                    "name": "D7",
                    "midi": 98,
                    "time": 672.4655999999917,
                    "velocity": 0.8267716535433071,
                    "duration": 1.0036800000000312
                },
                {
                    "name": "F6",
                    "midi": 89,
                    "time": 673.4692799999917,
                    "velocity": 0.7007874015748031,
                    "duration": 1.0036800000000312
                },
                {
                    "name": "A6",
                    "midi": 93,
                    "time": 673.4692799999917,
                    "velocity": 0.7007874015748031,
                    "duration": 1.0036800000000312
                },
                {
                    "name": "F7",
                    "midi": 101,
                    "time": 673.4692799999917,
                    "velocity": 0.8267716535433071,
                    "duration": 1.0036800000000312
                },
                {
                    "name": "C6",
                    "midi": 84,
                    "time": 674.4729599999918,
                    "velocity": 0.6535433070866141,
                    "duration": 0.7527599999999666
                },
                {
                    "name": "E6",
                    "midi": 88,
                    "time": 674.4729599999918,
                    "velocity": 0.6535433070866141,
                    "duration": 0.7527599999999666
                },
                {
                    "name": "G6",
                    "midi": 91,
                    "time": 674.4729599999918,
                    "velocity": 0.6535433070866141,
                    "duration": 0.7527599999999666
                },
                {
                    "name": "C7",
                    "midi": 96,
                    "time": 674.4729599999918,
                    "velocity": 0.7874015748031497,
                    "duration": 0.7527599999999666
                },
                {
                    "name": "E6",
                    "midi": 88,
                    "time": 675.2257199999917,
                    "velocity": 0.6850393700787402,
                    "duration": 0.2258279999999786
                },
                {
                    "name": "C6",
                    "midi": 84,
                    "time": 675.2257199999917,
                    "velocity": 0.5748031496062992,
                    "duration": 0.2258279999999786
                },
                {
                    "name": "E5",
                    "midi": 76,
                    "time": 675.2257199999917,
                    "velocity": 0.5748031496062992,
                    "duration": 0.2258279999999786
                },
                {
                    "name": "E6",
                    "midi": 88,
                    "time": 675.4766399999917,
                    "velocity": 0.7244094488188977,
                    "duration": 0.5018400000000156
                },
                {
                    "name": "E5",
                    "midi": 76,
                    "time": 675.4766399999917,
                    "velocity": 0.6062992125984252,
                    "duration": 0.5018400000000156
                },
                {
                    "name": "C6",
                    "midi": 84,
                    "time": 675.4766399999917,
                    "velocity": 0.6062992125984252,
                    "duration": 0.5018400000000156
                },
                {
                    "name": "D6",
                    "midi": 86,
                    "time": 675.9784799999917,
                    "velocity": 0.5905511811023622,
                    "duration": 0.12545999999997548
                },
                {
                    "name": "F5",
                    "midi": 77,
                    "time": 675.9784799999917,
                    "velocity": 0.5905511811023622,
                    "duration": 0.12545999999997548
                },
                {
                    "name": "F6",
                    "midi": 89,
                    "time": 675.9784799999917,
                    "velocity": 0.6929133858267716,
                    "duration": 0.12545999999997548
                },
                {
                    "name": "G5",
                    "midi": 79,
                    "time": 676.2293999999916,
                    "velocity": 0.6141732283464567,
                    "duration": 0.12545999999997548
                },
                {
                    "name": "E6",
                    "midi": 88,
                    "time": 676.2293999999916,
                    "velocity": 0.6141732283464567,
                    "duration": 0.12545999999997548
                },
                {
                    "name": "G6",
                    "midi": 91,
                    "time": 676.2293999999916,
                    "velocity": 0.7322834645669292,
                    "duration": 0.12545999999997548
                },
                {
                    "name": "A5",
                    "midi": 81,
                    "time": 676.4803199999916,
                    "velocity": 0.6456692913385826,
                    "duration": 0.47674800000004325
                },
                {
                    "name": "F6",
                    "midi": 89,
                    "time": 676.4803199999916,
                    "velocity": 0.6456692913385826,
                    "duration": 0.47674800000004325
                },
                {
                    "name": "A6",
                    "midi": 93,
                    "time": 676.4803199999916,
                    "velocity": 0.7637795275590551,
                    "duration": 0.47674800000004325
                },
                {
                    "name": "A5",
                    "midi": 81,
                    "time": 676.9821599999916,
                    "velocity": 0.6062992125984252,
                    "duration": 0.5018400000000156
                },
                {
                    "name": "A6",
                    "midi": 93,
                    "time": 676.9821599999916,
                    "velocity": 0.7244094488188977,
                    "duration": 0.5018400000000156
                },
                {
                    "name": "F6",
                    "midi": 89,
                    "time": 676.9821599999916,
                    "velocity": 0.6062992125984252,
                    "duration": 0.5018400000000156
                },
                {
                    "name": "G6",
                    "midi": 91,
                    "time": 677.4839999999916,
                    "velocity": 0.7244094488188977,
                    "duration": 0.5018400000000156
                },
                {
                    "name": "G5",
                    "midi": 79,
                    "time": 677.4839999999916,
                    "velocity": 0.6062992125984252,
                    "duration": 0.5018400000000156
                },
                {
                    "name": "E6",
                    "midi": 88,
                    "time": 677.4839999999916,
                    "velocity": 0.6062992125984252,
                    "duration": 0.5018400000000156
                },
                {
                    "name": "E6",
                    "midi": 88,
                    "time": 677.9858399999916,
                    "velocity": 0.5905511811023622,
                    "duration": 0.12545999999997548
                },
                {
                    "name": "C6",
                    "midi": 84,
                    "time": 677.9858399999916,
                    "velocity": 0.5905511811023622,
                    "duration": 0.12545999999997548
                },
                {
                    "name": "C7",
                    "midi": 96,
                    "time": 677.9858399999916,
                    "velocity": 0.6929133858267716,
                    "duration": 0.12545999999997548
                },
                {
                    "name": "D6",
                    "midi": 86,
                    "time": 678.2367599999916,
                    "velocity": 0.6141732283464567,
                    "duration": 0.12545999999997548
                },
                {
                    "name": "G6",
                    "midi": 91,
                    "time": 678.2367599999916,
                    "velocity": 0.6141732283464567,
                    "duration": 0.12545999999997548
                },
                {
                    "name": "D7",
                    "midi": 98,
                    "time": 678.2367599999916,
                    "velocity": 0.7322834645669292,
                    "duration": 0.12545999999997548
                },
                {
                    "name": "E6",
                    "midi": 88,
                    "time": 678.4876799999915,
                    "velocity": 0.6456692913385826,
                    "duration": 0.48615749999999025
                },
                {
                    "name": "C#7",
                    "midi": 97,
                    "time": 678.4876799999915,
                    "velocity": 0.6456692913385826,
                    "duration": 0.48615749999999025
                },
                {
                    "name": "E7",
                    "midi": 100,
                    "time": 678.4876799999915,
                    "velocity": 0.7637795275590551,
                    "duration": 0.48615749999999025
                },
                {
                    "name": "E6",
                    "midi": 88,
                    "time": 678.9895199999916,
                    "velocity": 0.6062992125984252,
                    "duration": 0.5018400000000156
                },
                {
                    "name": "E7",
                    "midi": 100,
                    "time": 678.9895199999916,
                    "velocity": 0.7244094488188977,
                    "duration": 0.5018400000000156
                },
                {
                    "name": "C#7",
                    "midi": 97,
                    "time": 678.9895199999916,
                    "velocity": 0.6062992125984252,
                    "duration": 0.5018400000000156
                },
                {
                    "name": "A6",
                    "midi": 93,
                    "time": 679.4913599999916,
                    "velocity": 0.7244094488188977,
                    "duration": 0.5018400000000156
                },
                {
                    "name": "A5",
                    "midi": 81,
                    "time": 679.4913599999916,
                    "velocity": 0.6062992125984252,
                    "duration": 0.5018400000000156
                },
                {
                    "name": "F6",
                    "midi": 89,
                    "time": 679.4913599999916,
                    "velocity": 0.6062992125984252,
                    "duration": 0.5018400000000156
                },
                {
                    "name": "B6",
                    "midi": 95,
                    "time": 679.9931999999916,
                    "velocity": 0.5905511811023622,
                    "duration": 0.12545999999997548
                },
                {
                    "name": "D6",
                    "midi": 86,
                    "time": 679.9931999999916,
                    "velocity": 0.5905511811023622,
                    "duration": 0.12545999999997548
                },
                {
                    "name": "D7",
                    "midi": 98,
                    "time": 679.9931999999916,
                    "velocity": 0.6929133858267716,
                    "duration": 0.12545999999997548
                },
                {
                    "name": "E6",
                    "midi": 88,
                    "time": 680.2441199999915,
                    "velocity": 0.6141732283464567,
                    "duration": 0.12545999999997548
                },
                {
                    "name": "C7",
                    "midi": 96,
                    "time": 680.2441199999915,
                    "velocity": 0.6141732283464567,
                    "duration": 0.12545999999997548
                },
                {
                    "name": "E7",
                    "midi": 100,
                    "time": 680.2441199999915,
                    "velocity": 0.7322834645669292,
                    "duration": 0.12545999999997548
                },
                {
                    "name": "F6",
                    "midi": 89,
                    "time": 680.4950399999915,
                    "velocity": 0.6456692913385826,
                    "duration": 0.5018400000000156
                },
                {
                    "name": "D7",
                    "midi": 98,
                    "time": 680.4950399999915,
                    "velocity": 0.6456692913385826,
                    "duration": 0.5018400000000156
                },
                {
                    "name": "F7",
                    "midi": 101,
                    "time": 680.4950399999915,
                    "velocity": 0.7637795275590551,
                    "duration": 0.5018400000000156
                },
                {
                    "name": "D6",
                    "midi": 86,
                    "time": 680.9968799999915,
                    "velocity": 0.5905511811023622,
                    "duration": 0.12545999999997548
                },
                {
                    "name": "B6",
                    "midi": 95,
                    "time": 680.9968799999915,
                    "velocity": 0.5905511811023622,
                    "duration": 0.12545999999997548
                },
                {
                    "name": "D7",
                    "midi": 98,
                    "time": 680.9968799999915,
                    "velocity": 0.6929133858267716,
                    "duration": 0.12545999999997548
                },
                {
                    "name": "C6",
                    "midi": 84,
                    "time": 681.2477999999915,
                    "velocity": 0.6141732283464567,
                    "duration": 0.12545999999997548
                },
                {
                    "name": "A6",
                    "midi": 93,
                    "time": 681.2477999999915,
                    "velocity": 0.6141732283464567,
                    "duration": 0.12545999999997548
                },
                {
                    "name": "C7",
                    "midi": 96,
                    "time": 681.2477999999915,
                    "velocity": 0.7322834645669292,
                    "duration": 0.12545999999997548
                },
                {
                    "name": "B6",
                    "midi": 95,
                    "time": 681.4987199999914,
                    "velocity": 0.7244094488188977,
                    "duration": 0.5018400000000156
                },
                {
                    "name": "B5",
                    "midi": 83,
                    "time": 681.4987199999914,
                    "velocity": 0.6062992125984252,
                    "duration": 0.5018400000000156
                },
                {
                    "name": "G6",
                    "midi": 91,
                    "time": 681.4987199999914,
                    "velocity": 0.6062992125984252,
                    "duration": 0.5018400000000156
                },
                {
                    "name": "A6",
                    "midi": 93,
                    "time": 682.0005599999914,
                    "velocity": 0.5905511811023622,
                    "duration": 0.12545999999997548
                },
                {
                    "name": "C6",
                    "midi": 84,
                    "time": 682.0005599999914,
                    "velocity": 0.5905511811023622,
                    "duration": 0.12545999999997548
                },
                {
                    "name": "C7",
                    "midi": 96,
                    "time": 682.0005599999914,
                    "velocity": 0.6929133858267716,
                    "duration": 0.12545999999997548
                },
                {
                    "name": "D6",
                    "midi": 86,
                    "time": 682.2514799999914,
                    "velocity": 0.6141732283464567,
                    "duration": 0.12545999999997548
                },
                {
                    "name": "B6",
                    "midi": 95,
                    "time": 682.2514799999914,
                    "velocity": 0.6141732283464567,
                    "duration": 0.12545999999997548
                },
                {
                    "name": "D7",
                    "midi": 98,
                    "time": 682.2514799999914,
                    "velocity": 0.7322834645669292,
                    "duration": 0.12545999999997548
                },
                {
                    "name": "E6",
                    "midi": 88,
                    "time": 682.5023999999913,
                    "velocity": 0.6456692913385826,
                    "duration": 0.5018400000000156
                },
                {
                    "name": "C7",
                    "midi": 96,
                    "time": 682.5023999999913,
                    "velocity": 0.6456692913385826,
                    "duration": 0.5018400000000156
                },
                {
                    "name": "E7",
                    "midi": 100,
                    "time": 682.5023999999913,
                    "velocity": 0.7637795275590551,
                    "duration": 0.5018400000000156
                },
                {
                    "name": "C6",
                    "midi": 84,
                    "time": 683.0042399999913,
                    "velocity": 0.5905511811023622,
                    "duration": 0.12545999999997548
                },
                {
                    "name": "A6",
                    "midi": 93,
                    "time": 683.0042399999913,
                    "velocity": 0.5905511811023622,
                    "duration": 0.12545999999997548
                },
                {
                    "name": "C7",
                    "midi": 96,
                    "time": 683.0042399999913,
                    "velocity": 0.6929133858267716,
                    "duration": 0.12545999999997548
                },
                {
                    "name": "B5",
                    "midi": 83,
                    "time": 683.2551599999913,
                    "velocity": 0.6141732283464567,
                    "duration": 0.12545999999997548
                },
                {
                    "name": "G6",
                    "midi": 91,
                    "time": 683.2551599999913,
                    "velocity": 0.6141732283464567,
                    "duration": 0.12545999999997548
                },
                {
                    "name": "B6",
                    "midi": 95,
                    "time": 683.2551599999913,
                    "velocity": 0.7322834645669292,
                    "duration": 0.12545999999997548
                },
                {
                    "name": "A6",
                    "midi": 93,
                    "time": 683.5060799999912,
                    "velocity": 0.7244094488188977,
                    "duration": 0.5018400000000156
                },
                {
                    "name": "A5",
                    "midi": 81,
                    "time": 683.5060799999912,
                    "velocity": 0.6062992125984252,
                    "duration": 0.5018400000000156
                },
                {
                    "name": "F6",
                    "midi": 89,
                    "time": 683.5060799999912,
                    "velocity": 0.6062992125984252,
                    "duration": 0.5018400000000156
                },
                {
                    "name": "G6",
                    "midi": 91,
                    "time": 684.0079199999913,
                    "velocity": 0.5905511811023622,
                    "duration": 0.12545999999997548
                },
                {
                    "name": "B5",
                    "midi": 83,
                    "time": 684.0079199999913,
                    "velocity": 0.5905511811023622,
                    "duration": 0.12545999999997548
                },
                {
                    "name": "B6",
                    "midi": 95,
                    "time": 684.0079199999913,
                    "velocity": 0.6929133858267716,
                    "duration": 0.12545999999997548
                },
                {
                    "name": "C6",
                    "midi": 84,
                    "time": 684.2588399999912,
                    "velocity": 0.6141732283464567,
                    "duration": 0.12545999999997548
                },
                {
                    "name": "A6",
                    "midi": 93,
                    "time": 684.2588399999912,
                    "velocity": 0.6141732283464567,
                    "duration": 0.12545999999997548
                },
                {
                    "name": "C7",
                    "midi": 96,
                    "time": 684.2588399999912,
                    "velocity": 0.7322834645669292,
                    "duration": 0.12545999999997548
                },
                {
                    "name": "D6",
                    "midi": 86,
                    "time": 684.5097599999912,
                    "velocity": 0.6456692913385826,
                    "duration": 0.5018400000000156
                },
                {
                    "name": "B6",
                    "midi": 95,
                    "time": 684.5097599999912,
                    "velocity": 0.6456692913385826,
                    "duration": 0.5018400000000156
                },
                {
                    "name": "D7",
                    "midi": 98,
                    "time": 684.5097599999912,
                    "velocity": 0.7637795275590551,
                    "duration": 0.5018400000000156
                },
                {
                    "name": "B5",
                    "midi": 83,
                    "time": 685.0115999999912,
                    "velocity": 0.5905511811023622,
                    "duration": 0.12545999999997548
                },
                {
                    "name": "G6",
                    "midi": 91,
                    "time": 685.0115999999912,
                    "velocity": 0.5905511811023622,
                    "duration": 0.12545999999997548
                },
                {
                    "name": "B6",
                    "midi": 95,
                    "time": 685.0115999999912,
                    "velocity": 0.6929133858267716,
                    "duration": 0.12545999999997548
                },
                {
                    "name": "A5",
                    "midi": 81,
                    "time": 685.2625199999911,
                    "velocity": 0.6141732283464567,
                    "duration": 0.12545999999997548
                },
                {
                    "name": "F6",
                    "midi": 89,
                    "time": 685.2625199999911,
                    "velocity": 0.6141732283464567,
                    "duration": 0.12545999999997548
                },
                {
                    "name": "A6",
                    "midi": 93,
                    "time": 685.2625199999911,
                    "velocity": 0.7322834645669292,
                    "duration": 0.12545999999997548
                },
                {
                    "name": "G5",
                    "midi": 79,
                    "time": 685.5134399999911,
                    "velocity": 0.6456692913385826,
                    "duration": 0.5018400000000156
                },
                {
                    "name": "E6",
                    "midi": 88,
                    "time": 685.5134399999911,
                    "velocity": 0.6456692913385826,
                    "duration": 0.5018400000000156
                },
                {
                    "name": "G6",
                    "midi": 91,
                    "time": 685.5134399999911,
                    "velocity": 0.7637795275590551,
                    "duration": 0.5018400000000156
                },
                {
                    "name": "F5",
                    "midi": 77,
                    "time": 686.0152799999911,
                    "velocity": 0.5905511811023622,
                    "duration": 0.12545999999997548
                },
                {
                    "name": "D6",
                    "midi": 86,
                    "time": 686.0152799999911,
                    "velocity": 0.5905511811023622,
                    "duration": 0.12545999999997548
                },
                {
                    "name": "F6",
                    "midi": 89,
                    "time": 686.0152799999911,
                    "velocity": 0.6929133858267716,
                    "duration": 0.12545999999997548
                },
                {
                    "name": "E5",
                    "midi": 76,
                    "time": 686.266199999991,
                    "velocity": 0.6141732283464567,
                    "duration": 0.12545999999997548
                },
                {
                    "name": "C6",
                    "midi": 84,
                    "time": 686.266199999991,
                    "velocity": 0.6141732283464567,
                    "duration": 0.12545999999997548
                },
                {
                    "name": "E6",
                    "midi": 88,
                    "time": 686.266199999991,
                    "velocity": 0.7322834645669292,
                    "duration": 0.12545999999997548
                },
                {
                    "name": "D#5",
                    "midi": 75,
                    "time": 686.517119999991,
                    "velocity": 0.5748031496062992,
                    "duration": 0.40774499999997715
                },
                {
                    "name": "F#5",
                    "midi": 78,
                    "time": 686.517119999991,
                    "velocity": 0.5748031496062992,
                    "duration": 0.40774499999997715
                },
                {
                    "name": "A5",
                    "midi": 81,
                    "time": 686.517119999991,
                    "velocity": 0.5748031496062992,
                    "duration": 0.40774499999997715
                },
                {
                    "name": "C6",
                    "midi": 84,
                    "time": 686.517119999991,
                    "velocity": 0.5748031496062992,
                    "duration": 0.40774499999997715
                },
                {
                    "name": "D#6",
                    "midi": 87,
                    "time": 686.517119999991,
                    "velocity": 0.6850393700787402,
                    "duration": 0.40774499999997715
                },
                {
                    "name": "C5",
                    "midi": 72,
                    "time": 687.018959999991,
                    "velocity": 0.5590551181102362,
                    "duration": 0.9095849999999928
                },
                {
                    "name": "D#5",
                    "midi": 75,
                    "time": 687.018959999991,
                    "velocity": 0.5590551181102362,
                    "duration": 0.9095849999999928
                },
                {
                    "name": "F#5",
                    "midi": 78,
                    "time": 687.018959999991,
                    "velocity": 0.5590551181102362,
                    "duration": 0.9095849999999928
                },
                {
                    "name": "A5",
                    "midi": 81,
                    "time": 687.018959999991,
                    "velocity": 0.5590551181102362,
                    "duration": 0.9095849999999928
                },
                {
                    "name": "C6",
                    "midi": 84,
                    "time": 687.018959999991,
                    "velocity": 0.6614173228346457,
                    "duration": 0.9095849999999928
                },
                {
                    "name": "A4",
                    "midi": 69,
                    "time": 688.022639999991,
                    "velocity": 0.5196850393700787,
                    "duration": 0.40774499999997715
                },
                {
                    "name": "C5",
                    "midi": 72,
                    "time": 688.022639999991,
                    "velocity": 0.5196850393700787,
                    "duration": 0.40774499999997715
                },
                {
                    "name": "D#5",
                    "midi": 75,
                    "time": 688.022639999991,
                    "velocity": 0.5196850393700787,
                    "duration": 0.40774499999997715
                },
                {
                    "name": "F#5",
                    "midi": 78,
                    "time": 688.022639999991,
                    "velocity": 0.5196850393700787,
                    "duration": 0.40774499999997715
                },
                {
                    "name": "A5",
                    "midi": 81,
                    "time": 688.022639999991,
                    "velocity": 0.6141732283464567,
                    "duration": 0.40774499999997715
                },
                {
                    "name": "G4",
                    "midi": 67,
                    "time": 688.5244799999911,
                    "velocity": 0.49606299212598426,
                    "duration": 0.5018400000000156
                },
                {
                    "name": "B4",
                    "midi": 71,
                    "time": 688.5244799999911,
                    "velocity": 0.49606299212598426,
                    "duration": 0.5018400000000156
                },
                {
                    "name": "D5",
                    "midi": 74,
                    "time": 688.5244799999911,
                    "velocity": 0.49606299212598426,
                    "duration": 0.5018400000000156
                },
                {
                    "name": "F5",
                    "midi": 77,
                    "time": 688.5244799999911,
                    "velocity": 0.49606299212598426,
                    "duration": 0.5018400000000156
                },
                {
                    "name": "G5",
                    "midi": 79,
                    "time": 688.5244799999911,
                    "velocity": 0.5905511811023622,
                    "duration": 0.5018400000000156
                },
                {
                    "name": "G4",
                    "midi": 67,
                    "time": 689.0263199999911,
                    "velocity": 0.49606299212598426,
                    "duration": 0.1672800000000052
                },
                {
                    "name": "G5",
                    "midi": 79,
                    "time": 689.1935999999911,
                    "velocity": 0.4330708661417323,
                    "duration": 0.1672800000000052
                },
                {
                    "name": "F5",
                    "midi": 77,
                    "time": 689.3608799999911,
                    "velocity": 0.4330708661417323,
                    "duration": 0.1672800000000052
                },
                {
                    "name": "G5",
                    "midi": 79,
                    "time": 689.5281599999911,
                    "velocity": 0.49606299212598426,
                    "duration": 0.1672800000000052
                },
                {
                    "name": "A#5",
                    "midi": 82,
                    "time": 689.5281599999911,
                    "velocity": 0.49606299212598426,
                    "duration": 0.1672800000000052
                },
                {
                    "name": "F6",
                    "midi": 89,
                    "time": 689.6954399999911,
                    "velocity": 0.44881889763779526,
                    "duration": 0.1672800000000052
                },
                {
                    "name": "E6",
                    "midi": 88,
                    "time": 689.8627199999911,
                    "velocity": 0.44881889763779526,
                    "duration": 0.1672800000000052
                },
                {
                    "name": "G4",
                    "midi": 67,
                    "time": 690.0299999999911,
                    "velocity": 0.49606299212598426,
                    "duration": 0.1672800000000052
                },
                {
                    "name": "A#4",
                    "midi": 70,
                    "time": 690.0299999999911,
                    "velocity": 0.49606299212598426,
                    "duration": 0.1672800000000052
                },
                {
                    "name": "F5",
                    "midi": 77,
                    "time": 690.1972799999911,
                    "velocity": 0.4409448818897638,
                    "duration": 0.1672800000000052
                },
                {
                    "name": "E5",
                    "midi": 76,
                    "time": 690.3645599999911,
                    "velocity": 0.4409448818897638,
                    "duration": 0.1672800000000052
                },
                {
                    "name": "F4",
                    "midi": 65,
                    "time": 690.5318399999911,
                    "velocity": 0.49606299212598426,
                    "duration": 0.1672800000000052
                },
                {
                    "name": "A4",
                    "midi": 69,
                    "time": 690.5318399999911,
                    "velocity": 0.49606299212598426,
                    "duration": 0.1672800000000052
                },
                {
                    "name": "E5",
                    "midi": 76,
                    "time": 690.6991199999911,
                    "velocity": 0.44881889763779526,
                    "duration": 0.1672800000000052
                },
                {
                    "name": "D5",
                    "midi": 74,
                    "time": 690.8663999999911,
                    "velocity": 0.44881889763779526,
                    "duration": 0.1672800000000052
                },
                {
                    "name": "F5",
                    "midi": 77,
                    "time": 691.0336799999911,
                    "velocity": 0.49606299212598426,
                    "duration": 0.1672800000000052
                },
                {
                    "name": "A5",
                    "midi": 81,
                    "time": 691.0336799999911,
                    "velocity": 0.49606299212598426,
                    "duration": 0.1672800000000052
                },
                {
                    "name": "E6",
                    "midi": 88,
                    "time": 691.2009599999911,
                    "velocity": 0.4330708661417323,
                    "duration": 0.1672800000000052
                },
                {
                    "name": "D6",
                    "midi": 86,
                    "time": 691.3682399999911,
                    "velocity": 0.4409448818897638,
                    "duration": 0.1672800000000052
                },
                {
                    "name": "A5",
                    "midi": 81,
                    "time": 691.5355199999912,
                    "velocity": 0.5039370078740157,
                    "duration": 0.1672800000000052
                },
                {
                    "name": "C6",
                    "midi": 84,
                    "time": 691.5355199999912,
                    "velocity": 0.5039370078740157,
                    "duration": 0.1672800000000052
                },
                {
                    "name": "G6",
                    "midi": 91,
                    "time": 691.7027999999912,
                    "velocity": 0.4566929133858268,
                    "duration": 0.1672800000000052
                },
                {
                    "name": "F#6",
                    "midi": 90,
                    "time": 691.8700799999912,
                    "velocity": 0.4566929133858268,
                    "duration": 0.1672800000000052
                },
                {
                    "name": "A4",
                    "midi": 69,
                    "time": 692.0373599999912,
                    "velocity": 0.5039370078740157,
                    "duration": 0.1672800000000052
                },
                {
                    "name": "C5",
                    "midi": 72,
                    "time": 692.0373599999912,
                    "velocity": 0.5039370078740157,
                    "duration": 0.1672800000000052
                },
                {
                    "name": "G5",
                    "midi": 79,
                    "time": 692.2046399999912,
                    "velocity": 0.4566929133858268,
                    "duration": 0.1672800000000052
                },
                {
                    "name": "F#5",
                    "midi": 78,
                    "time": 692.3719199999912,
                    "velocity": 0.4566929133858268,
                    "duration": 0.1672800000000052
                },
                {
                    "name": "G4",
                    "midi": 67,
                    "time": 692.5391999999912,
                    "velocity": 0.5196850393700787,
                    "duration": 0.1672800000000052
                },
                {
                    "name": "C5",
                    "midi": 72,
                    "time": 692.5391999999912,
                    "velocity": 0.5196850393700787,
                    "duration": 0.1672800000000052
                },
                {
                    "name": "A5",
                    "midi": 81,
                    "time": 692.7064799999912,
                    "velocity": 0.4645669291338583,
                    "duration": 0.1672800000000052
                },
                {
                    "name": "G5",
                    "midi": 79,
                    "time": 692.8737599999912,
                    "velocity": 0.4645669291338583,
                    "duration": 0.1672800000000052
                },
                {
                    "name": "G5",
                    "midi": 79,
                    "time": 693.0410399999912,
                    "velocity": 0.5196850393700787,
                    "duration": 0.1672800000000052
                },
                {
                    "name": "C6",
                    "midi": 84,
                    "time": 693.0410399999912,
                    "velocity": 0.5196850393700787,
                    "duration": 0.1672800000000052
                },
                {
                    "name": "A6",
                    "midi": 93,
                    "time": 693.2083199999912,
                    "velocity": 0.4566929133858268,
                    "duration": 0.1672800000000052
                },
                {
                    "name": "G6",
                    "midi": 91,
                    "time": 693.3755999999912,
                    "velocity": 0.4566929133858268,
                    "duration": 0.1672800000000052
                },
                {
                    "name": "C6",
                    "midi": 84,
                    "time": 693.5428799999912,
                    "velocity": 0.5275590551181102,
                    "duration": 0.1672800000000052
                },
                {
                    "name": "D6",
                    "midi": 86,
                    "time": 693.5428799999912,
                    "velocity": 0.5275590551181102,
                    "duration": 0.1672800000000052
                },
                {
                    "name": "B6",
                    "midi": 95,
                    "time": 693.7101599999912,
                    "velocity": 0.47244094488188976,
                    "duration": 0.1672800000000052
                },
                {
                    "name": "A6",
                    "midi": 93,
                    "time": 693.8774399999912,
                    "velocity": 0.48031496062992124,
                    "duration": 0.1672800000000052
                },
                {
                    "name": "C5",
                    "midi": 72,
                    "time": 694.0447199999912,
                    "velocity": 0.5354330708661418,
                    "duration": 0.1672800000000052
                },
                {
                    "name": "D5",
                    "midi": 74,
                    "time": 694.0447199999912,
                    "velocity": 0.5354330708661418,
                    "duration": 0.1672800000000052
                },
                {
                    "name": "B5",
                    "midi": 83,
                    "time": 694.2119999999912,
                    "velocity": 0.48031496062992124,
                    "duration": 0.1672800000000052
                },
                {
                    "name": "A5",
                    "midi": 81,
                    "time": 694.3792799999912,
                    "velocity": 0.48031496062992124,
                    "duration": 0.1672800000000052
                },
                {
                    "name": "C5",
                    "midi": 72,
                    "time": 694.5465599999912,
                    "velocity": 0.5433070866141733,
                    "duration": 0.1672800000000052
                },
                {
                    "name": "D5",
                    "midi": 74,
                    "time": 694.5465599999912,
                    "velocity": 0.5433070866141733,
                    "duration": 0.1672800000000052
                },
                {
                    "name": "B5",
                    "midi": 83,
                    "time": 694.7138399999913,
                    "velocity": 0.4881889763779528,
                    "duration": 0.1672800000000052
                },
                {
                    "name": "A5",
                    "midi": 81,
                    "time": 694.8811199999913,
                    "velocity": 0.4881889763779528,
                    "duration": 0.1672800000000052
                },
                {
                    "name": "C6",
                    "midi": 84,
                    "time": 695.0483999999913,
                    "velocity": 0.5433070866141733,
                    "duration": 0.1672800000000052
                },
                {
                    "name": "D6",
                    "midi": 86,
                    "time": 695.0483999999913,
                    "velocity": 0.5433070866141733,
                    "duration": 0.1672800000000052
                },
                {
                    "name": "B6",
                    "midi": 95,
                    "time": 695.2156799999913,
                    "velocity": 0.4881889763779528,
                    "duration": 0.1672800000000052
                },
                {
                    "name": "A6",
                    "midi": 93,
                    "time": 695.3829599999913,
                    "velocity": 0.4881889763779528,
                    "duration": 0.1672800000000052
                },
                {
                    "name": "F6",
                    "midi": 89,
                    "time": 695.5502399999913,
                    "velocity": 0.5511811023622047,
                    "duration": 0.1672800000000052
                },
                {
                    "name": "B6",
                    "midi": 95,
                    "time": 695.5502399999913,
                    "velocity": 0.5511811023622047,
                    "duration": 0.1672800000000052
                },
                {
                    "name": "E7",
                    "midi": 100,
                    "time": 695.7175199999913,
                    "velocity": 0.4881889763779528,
                    "duration": 0.1672800000000052
                },
                {
                    "name": "D7",
                    "midi": 98,
                    "time": 695.8847999999913,
                    "velocity": 0.49606299212598426,
                    "duration": 0.1672800000000052
                },
                {
                    "name": "F5",
                    "midi": 77,
                    "time": 696.0520799999913,
                    "velocity": 0.5590551181102362,
                    "duration": 0.1672800000000052
                },
                {
                    "name": "B5",
                    "midi": 83,
                    "time": 696.0520799999913,
                    "velocity": 0.5590551181102362,
                    "duration": 0.1672800000000052
                },
                {
                    "name": "E6",
                    "midi": 88,
                    "time": 696.2193599999913,
                    "velocity": 0.49606299212598426,
                    "duration": 0.1672800000000052
                },
                {
                    "name": "D6",
                    "midi": 86,
                    "time": 696.3866399999913,
                    "velocity": 0.49606299212598426,
                    "duration": 0.1672800000000052
                },
                {
                    "name": "C5",
                    "midi": 72,
                    "time": 696.5539199999913,
                    "velocity": 0.5433070866141733,
                    "duration": 0.47674800000004325
                },
                {
                    "name": "E5",
                    "midi": 76,
                    "time": 696.5539199999913,
                    "velocity": 0.5433070866141733,
                    "duration": 0.47674800000004325
                },
                {
                    "name": "C6",
                    "midi": 84,
                    "time": 696.5539199999913,
                    "velocity": 0.6535433070866141,
                    "duration": 0.47674800000004325
                },
                {
                    "name": "C4",
                    "midi": 60,
                    "time": 697.0557599999913,
                    "velocity": 0.49606299212598426,
                    "duration": 0.25091999999995096
                },
                {
                    "name": "C5",
                    "midi": 72,
                    "time": 697.0557599999913,
                    "velocity": 0.5826771653543307,
                    "duration": 0.25091999999995096
                },
                {
                    "name": "E4",
                    "midi": 64,
                    "time": 697.0557599999913,
                    "velocity": 0.49606299212598426,
                    "duration": 0.25091999999995096
                },
                {
                    "name": "C4",
                    "midi": 60,
                    "time": 697.4321399999913,
                    "velocity": 0.4409448818897638,
                    "duration": 0.11291400000004614
                },
                {
                    "name": "E4",
                    "midi": 64,
                    "time": 697.4321399999913,
                    "velocity": 0.4409448818897638,
                    "duration": 0.11291400000004614
                },
                {
                    "name": "C5",
                    "midi": 72,
                    "time": 697.4321399999913,
                    "velocity": 0.5196850393700787,
                    "duration": 0.11291400000004614
                },
                {
                    "name": "C#4",
                    "midi": 61,
                    "time": 697.5575999999913,
                    "velocity": 0.49606299212598426,
                    "duration": 0.47674800000004325
                },
                {
                    "name": "E4",
                    "midi": 64,
                    "time": 697.5575999999913,
                    "velocity": 0.49606299212598426,
                    "duration": 0.47674800000004325
                },
                {
                    "name": "A#4",
                    "midi": 70,
                    "time": 697.5575999999913,
                    "velocity": 0.49606299212598426,
                    "duration": 0.47674800000004325
                },
                {
                    "name": "C#5",
                    "midi": 73,
                    "time": 697.5575999999913,
                    "velocity": 0.5826771653543307,
                    "duration": 0.47674800000004325
                },
                {
                    "name": "C#5",
                    "midi": 73,
                    "time": 698.0594399999914,
                    "velocity": 0.5118110236220472,
                    "duration": 0.5018400000000156
                },
                {
                    "name": "E5",
                    "midi": 76,
                    "time": 698.0594399999914,
                    "velocity": 0.5118110236220472,
                    "duration": 0.5018400000000156
                },
                {
                    "name": "A#5",
                    "midi": 82,
                    "time": 698.0594399999914,
                    "velocity": 0.5118110236220472,
                    "duration": 0.5018400000000156
                },
                {
                    "name": "C#6",
                    "midi": 85,
                    "time": 698.0594399999914,
                    "velocity": 0.6141732283464567,
                    "duration": 0.5018400000000156
                },
                {
                    "name": "A#5",
                    "midi": 82,
                    "time": 698.5612799999914,
                    "velocity": 0.5433070866141733,
                    "duration": 0.5018400000000156
                },
                {
                    "name": "D5",
                    "midi": 74,
                    "time": 698.5612799999914,
                    "velocity": 0.5433070866141733,
                    "duration": 0.5018400000000156
                },
                {
                    "name": "F5",
                    "midi": 77,
                    "time": 698.5612799999914,
                    "velocity": 0.5433070866141733,
                    "duration": 0.5018400000000156
                },
                {
                    "name": "D6",
                    "midi": 86,
                    "time": 698.5612799999914,
                    "velocity": 0.6535433070866141,
                    "duration": 0.5018400000000156
                },
                {
                    "name": "D4",
                    "midi": 62,
                    "time": 699.0631199999914,
                    "velocity": 0.49606299212598426,
                    "duration": 0.25091999999995096
                },
                {
                    "name": "D5",
                    "midi": 74,
                    "time": 699.0631199999914,
                    "velocity": 0.5826771653543307,
                    "duration": 0.25091999999995096
                },
                {
                    "name": "A#4",
                    "midi": 70,
                    "time": 699.0631199999914,
                    "velocity": 0.49606299212598426,
                    "duration": 0.25091999999995096
                },
                {
                    "name": "D4",
                    "midi": 62,
                    "time": 699.4394999999913,
                    "velocity": 0.4409448818897638,
                    "duration": 0.11291400000004614
                },
                {
                    "name": "A#4",
                    "midi": 70,
                    "time": 699.4394999999913,
                    "velocity": 0.4409448818897638,
                    "duration": 0.11291400000004614
                },
                {
                    "name": "D5",
                    "midi": 74,
                    "time": 699.4394999999913,
                    "velocity": 0.5196850393700787,
                    "duration": 0.11291400000004614
                },
                {
                    "name": "E4",
                    "midi": 64,
                    "time": 699.5649599999914,
                    "velocity": 0.49606299212598426,
                    "duration": 0.47674800000004325
                },
                {
                    "name": "A#4",
                    "midi": 70,
                    "time": 699.5649599999914,
                    "velocity": 0.49606299212598426,
                    "duration": 0.47674800000004325
                },
                {
                    "name": "C#5",
                    "midi": 73,
                    "time": 699.5649599999914,
                    "velocity": 0.49606299212598426,
                    "duration": 0.47674800000004325
                },
                {
                    "name": "E5",
                    "midi": 76,
                    "time": 699.5649599999914,
                    "velocity": 0.5826771653543307,
                    "duration": 0.47674800000004325
                },
                {
                    "name": "E5",
                    "midi": 76,
                    "time": 700.0667999999914,
                    "velocity": 0.5196850393700787,
                    "duration": 0.5018400000000156
                },
                {
                    "name": "A#5",
                    "midi": 82,
                    "time": 700.0667999999914,
                    "velocity": 0.5196850393700787,
                    "duration": 0.5018400000000156
                },
                {
                    "name": "C#6",
                    "midi": 85,
                    "time": 700.0667999999914,
                    "velocity": 0.5196850393700787,
                    "duration": 0.5018400000000156
                },
                {
                    "name": "E6",
                    "midi": 88,
                    "time": 700.0667999999914,
                    "velocity": 0.6299212598425197,
                    "duration": 0.5018400000000156
                },
                {
                    "name": "D6",
                    "midi": 86,
                    "time": 700.5686399999914,
                    "velocity": 0.5590551181102362,
                    "duration": 0.5018400000000156
                },
                {
                    "name": "F5",
                    "midi": 77,
                    "time": 700.5686399999914,
                    "velocity": 0.5590551181102362,
                    "duration": 0.5018400000000156
                },
                {
                    "name": "A5",
                    "midi": 81,
                    "time": 700.5686399999914,
                    "velocity": 0.5590551181102362,
                    "duration": 0.5018400000000156
                },
                {
                    "name": "F6",
                    "midi": 89,
                    "time": 700.5686399999914,
                    "velocity": 0.6771653543307087,
                    "duration": 0.5018400000000156
                },
                {
                    "name": "A4",
                    "midi": 69,
                    "time": 701.0704799999914,
                    "velocity": 0.5196850393700787,
                    "duration": 0.25091999999995096
                },
                {
                    "name": "F4",
                    "midi": 65,
                    "time": 701.0704799999914,
                    "velocity": 0.5196850393700787,
                    "duration": 0.25091999999995096
                },
                {
                    "name": "F5",
                    "midi": 77,
                    "time": 701.0704799999914,
                    "velocity": 0.6141732283464567,
                    "duration": 0.25091999999995096
                },
                {
                    "name": "D5",
                    "midi": 74,
                    "time": 701.0704799999914,
                    "velocity": 0.5196850393700787,
                    "duration": 0.25091999999995096
                },
                {
                    "name": "A4",
                    "midi": 69,
                    "time": 701.4468599999914,
                    "velocity": 0.4645669291338583,
                    "duration": 0.12545999999997548
                },
                {
                    "name": "F4",
                    "midi": 65,
                    "time": 701.4468599999914,
                    "velocity": 0.4645669291338583,
                    "duration": 0.12545999999997548
                },
                {
                    "name": "D5",
                    "midi": 74,
                    "time": 701.4468599999914,
                    "velocity": 0.4645669291338583,
                    "duration": 0.12545999999997548
                },
                {
                    "name": "F5",
                    "midi": 77,
                    "time": 701.4468599999914,
                    "velocity": 0.5511811023622047,
                    "duration": 0.12545999999997548
                },
                {
                    "name": "A4",
                    "midi": 69,
                    "time": 701.5723199999914,
                    "velocity": 0.5275590551181102,
                    "duration": 0.5018400000000156
                },
                {
                    "name": "C5",
                    "midi": 72,
                    "time": 701.5723199999914,
                    "velocity": 0.5275590551181102,
                    "duration": 0.5018400000000156
                },
                {
                    "name": "F5",
                    "midi": 77,
                    "time": 701.5723199999914,
                    "velocity": 0.5275590551181102,
                    "duration": 0.5018400000000156
                },
                {
                    "name": "A5",
                    "midi": 81,
                    "time": 701.5723199999914,
                    "velocity": 0.6220472440944882,
                    "duration": 0.5018400000000156
                },
                {
                    "name": "A5",
                    "midi": 81,
                    "time": 702.0741599999914,
                    "velocity": 0.6062992125984252,
                    "duration": 0.9733605000000125
                },
                {
                    "name": "C6",
                    "midi": 84,
                    "time": 702.0741599999914,
                    "velocity": 0.6062992125984252,
                    "duration": 0.9733605000000125
                },
                {
                    "name": "F6",
                    "midi": 89,
                    "time": 702.0741599999914,
                    "velocity": 0.6062992125984252,
                    "duration": 0.9733605000000125
                },
                {
                    "name": "A6",
                    "midi": 93,
                    "time": 702.0741599999914,
                    "velocity": 0.7322834645669292,
                    "duration": 0.9733605000000125
                },
                {
                    "name": "A5",
                    "midi": 81,
                    "time": 703.0778399999914,
                    "velocity": 0.6220472440944882,
                    "duration": 1.0036800000000312
                },
                {
                    "name": "C6",
                    "midi": 84,
                    "time": 703.0778399999914,
                    "velocity": 0.6220472440944882,
                    "duration": 1.0036800000000312
                },
                {
                    "name": "F6",
                    "midi": 89,
                    "time": 703.0778399999914,
                    "velocity": 0.6220472440944882,
                    "duration": 1.0036800000000312
                },
                {
                    "name": "A6",
                    "midi": 93,
                    "time": 703.0778399999914,
                    "velocity": 0.7480314960629921,
                    "duration": 1.0036800000000312
                },
                {
                    "name": "G5",
                    "midi": 79,
                    "time": 704.0815199999914,
                    "velocity": 0.6377952755905512,
                    "duration": 1.0036800000000312
                },
                {
                    "name": "B5",
                    "midi": 83,
                    "time": 704.0815199999914,
                    "velocity": 0.6377952755905512,
                    "duration": 1.0036800000000312
                },
                {
                    "name": "E6",
                    "midi": 88,
                    "time": 704.0815199999914,
                    "velocity": 0.6377952755905512,
                    "duration": 1.0036800000000312
                },
                {
                    "name": "G6",
                    "midi": 91,
                    "time": 704.0815199999914,
                    "velocity": 0.7637795275590551,
                    "duration": 1.0036800000000312
                },
                {
                    "name": "F6",
                    "midi": 89,
                    "time": 705.0851999999915,
                    "velocity": 0.7952755905511811,
                    "duration": 1.0036800000000312
                },
                {
                    "name": "F5",
                    "midi": 77,
                    "time": 705.0851999999915,
                    "velocity": 0.6535433070866141,
                    "duration": 1.0036800000000312
                },
                {
                    "name": "B5",
                    "midi": 83,
                    "time": 705.0851999999915,
                    "velocity": 0.6535433070866141,
                    "duration": 1.0036800000000312
                },
                {
                    "name": "D6",
                    "midi": 86,
                    "time": 705.0851999999915,
                    "velocity": 0.6535433070866141,
                    "duration": 1.0036800000000312
                },
                {
                    "name": "B4",
                    "midi": 71,
                    "time": 706.0888799999915,
                    "velocity": 0.6141732283464567,
                    "duration": 0.47674800000004325
                },
                {
                    "name": "F5",
                    "midi": 77,
                    "time": 706.0888799999915,
                    "velocity": 0.6141732283464567,
                    "duration": 0.47674800000004325
                },
                {
                    "name": "G5",
                    "midi": 79,
                    "time": 706.0888799999915,
                    "velocity": 0.6141732283464567,
                    "duration": 0.47674800000004325
                },
                {
                    "name": "B5",
                    "midi": 83,
                    "time": 706.0888799999915,
                    "velocity": 0.7401574803149606,
                    "duration": 0.47674800000004325
                },
                {
                    "name": "C5",
                    "midi": 72,
                    "time": 706.5907199999915,
                    "velocity": 0.6220472440944882,
                    "duration": 0.5018400000000156
                },
                {
                    "name": "E5",
                    "midi": 76,
                    "time": 706.5907199999915,
                    "velocity": 0.6220472440944882,
                    "duration": 0.5018400000000156
                },
                {
                    "name": "G5",
                    "midi": 79,
                    "time": 706.5907199999915,
                    "velocity": 0.6220472440944882,
                    "duration": 0.5018400000000156
                },
                {
                    "name": "C6",
                    "midi": 84,
                    "time": 706.5907199999915,
                    "velocity": 0.7480314960629921,
                    "duration": 0.5018400000000156
                },
                {
                    "name": "E5",
                    "midi": 76,
                    "time": 707.3434799999915,
                    "velocity": 0.6299212598425197,
                    "duration": 0.2258279999999786
                },
                {
                    "name": "C5",
                    "midi": 72,
                    "time": 707.3434799999915,
                    "velocity": 0.5275590551181102,
                    "duration": 0.2258279999999786
                },
                {
                    "name": "E4",
                    "midi": 64,
                    "time": 707.3434799999915,
                    "velocity": 0.5275590551181102,
                    "duration": 0.2258279999999786
                },
                {
                    "name": "E5",
                    "midi": 76,
                    "time": 707.5943999999914,
                    "velocity": 0.6692913385826772,
                    "duration": 0.5018400000000156
                },
                {
                    "name": "E4",
                    "midi": 64,
                    "time": 707.5943999999914,
                    "velocity": 0.5590551181102362,
                    "duration": 0.5018400000000156
                },
                {
                    "name": "C5",
                    "midi": 72,
                    "time": 707.5943999999914,
                    "velocity": 0.5590551181102362,
                    "duration": 0.5018400000000156
                },
                {
                    "name": "C5",
                    "midi": 72,
                    "time": 708.0962399999914,
                    "velocity": 0.5433070866141733,
                    "duration": 0.12545999999997548
                },
                {
                    "name": "F4",
                    "midi": 65,
                    "time": 708.0962399999914,
                    "velocity": 0.5433070866141733,
                    "duration": 0.12545999999997548
                },
                {
                    "name": "F5",
                    "midi": 77,
                    "time": 708.0962399999914,
                    "velocity": 0.6377952755905512,
                    "duration": 0.12545999999997548
                },
                {
                    "name": "G4",
                    "midi": 67,
                    "time": 708.3471599999914,
                    "velocity": 0.5669291338582677,
                    "duration": 0.12545999999997548
                },
                {
                    "name": "C5",
                    "midi": 72,
                    "time": 708.3471599999914,
                    "velocity": 0.5669291338582677,
                    "duration": 0.12545999999997548
                },
                {
                    "name": "G5",
                    "midi": 79,
                    "time": 708.3471599999914,
                    "velocity": 0.6771653543307087,
                    "duration": 0.12545999999997548
                },
                {
                    "name": "A4",
                    "midi": 69,
                    "time": 708.5980799999913,
                    "velocity": 0.5905511811023622,
                    "duration": 0.12545999999997548
                },
                {
                    "name": "C5",
                    "midi": 72,
                    "time": 708.5980799999913,
                    "velocity": 0.5905511811023622,
                    "duration": 0.12545999999997548
                },
                {
                    "name": "A5",
                    "midi": 81,
                    "time": 708.5980799999913,
                    "velocity": 0.7007874015748031,
                    "duration": 0.12545999999997548
                },
                {
                    "name": "G4",
                    "midi": 67,
                    "time": 709.0999199999914,
                    "velocity": 0.5590551181102362,
                    "duration": 0.12545999999997548
                },
                {
                    "name": "G5",
                    "midi": 79,
                    "time": 709.0999199999914,
                    "velocity": 0.6692913385826772,
                    "duration": 0.12545999999997548
                },
                {
                    "name": "C5",
                    "midi": 72,
                    "time": 709.0999199999914,
                    "velocity": 0.5590551181102362,
                    "duration": 0.12545999999997548
                },
                {
                    "name": "C4",
                    "midi": 60,
                    "time": 710.3545199999913,
                    "velocity": 0.6456692913385826,
                    "duration": 0.2258279999999786
                },
                {
                    "name": "A3",
                    "midi": 57,
                    "time": 710.3545199999913,
                    "velocity": 0.5433070866141733,
                    "duration": 0.2258279999999786
                },
                {
                    "name": "E3",
                    "midi": 52,
                    "time": 710.3545199999913,
                    "velocity": 0.5433070866141733,
                    "duration": 0.2258279999999786
                },
                {
                    "name": "C4",
                    "midi": 60,
                    "time": 710.6054399999913,
                    "velocity": 0.6929133858267716,
                    "duration": 0.9733605000000125
                },
                {
                    "name": "E3",
                    "midi": 52,
                    "time": 710.6054399999913,
                    "velocity": 0.5826771653543307,
                    "duration": 0.9733605000000125
                },
                {
                    "name": "A3",
                    "midi": 57,
                    "time": 710.6054399999913,
                    "velocity": 0.5826771653543307,
                    "duration": 0.9733605000000125
                },
                {
                    "name": "A3",
                    "midi": 57,
                    "time": 711.6091199999913,
                    "velocity": 0.5669291338582677,
                    "duration": 0.47674800000004325
                },
                {
                    "name": "C4",
                    "midi": 60,
                    "time": 711.6091199999913,
                    "velocity": 0.5669291338582677,
                    "duration": 0.47674800000004325
                },
                {
                    "name": "D4",
                    "midi": 62,
                    "time": 711.6091199999913,
                    "velocity": 0.6692913385826772,
                    "duration": 0.47674800000004325
                },
                {
                    "name": "A3",
                    "midi": 57,
                    "time": 712.1109599999913,
                    "velocity": 0.5748031496062992,
                    "duration": 0.47674800000004325
                },
                {
                    "name": "C4",
                    "midi": 60,
                    "time": 712.1109599999913,
                    "velocity": 0.5748031496062992,
                    "duration": 0.47674800000004325
                },
                {
                    "name": "E4",
                    "midi": 64,
                    "time": 712.1109599999913,
                    "velocity": 0.6771653543307087,
                    "duration": 0.47674800000004325
                },
                {
                    "name": "A3",
                    "midi": 57,
                    "time": 712.6127999999914,
                    "velocity": 0.5905511811023622,
                    "duration": 1.0036800000000312
                },
                {
                    "name": "C4",
                    "midi": 60,
                    "time": 712.6127999999914,
                    "velocity": 0.5905511811023622,
                    "duration": 1.0036800000000312
                },
                {
                    "name": "F4",
                    "midi": 65,
                    "time": 712.6127999999914,
                    "velocity": 0.7007874015748031,
                    "duration": 2.0073600000000624
                },
                {
                    "name": "G3",
                    "midi": 55,
                    "time": 713.6164799999914,
                    "velocity": 0.5984251968503937,
                    "duration": 0.9733605000000125
                },
                {
                    "name": "B3",
                    "midi": 59,
                    "time": 713.6164799999914,
                    "velocity": 0.7086614173228346,
                    "duration": 0.9733605000000125
                },
                {
                    "name": "G3",
                    "midi": 55,
                    "time": 714.6201599999914,
                    "velocity": 0.5748031496062992,
                    "duration": 2.0073599999999487
                },
                {
                    "name": "C4",
                    "midi": 60,
                    "time": 714.6201599999914,
                    "velocity": 0.5748031496062992,
                    "duration": 2.0073599999999487
                },
                {
                    "name": "E4",
                    "midi": 64,
                    "time": 714.6201599999914,
                    "velocity": 0.6850393700787402,
                    "duration": 2.0073599999999487
                }
            ],
            "controlChanges": {},
            "id": 1,
            "name": "Piano right",
            "instrumentNumber": 0,
            "instrument": "acoustic grand piano",
            "instrumentFamily": "piano",
            "channelNumber": 0,
            "isPercussion": false
        },
        {
            "startTime": 0,
            "duration": 716.6275199999895,
            "length": 3076,
            "notes": [
                {
                    "name": "C3",
                    "midi": 48,
                    "time": 0,
                    "velocity": 0.47244094488188976,
                    "duration": 0.7527599999999999
                },
                {
                    "name": "G3",
                    "midi": 55,
                    "time": 0.031365,
                    "velocity": 0.49606299212598426,
                    "duration": 0.7213949999999999
                },
                {
                    "name": "C4",
                    "midi": 60,
                    "time": 0.06273,
                    "velocity": 0.5275590551181102,
                    "duration": 0.6900299999999999
                },
                {
                    "name": "E4",
                    "midi": 64,
                    "time": 0.09409499999999998,
                    "velocity": 0.5511811023622047,
                    "duration": 0.6586649999999998
                },
                {
                    "name": "C2",
                    "midi": 36,
                    "time": 0.7527599999999999,
                    "velocity": 0.4330708661417323,
                    "duration": 0.23000999999999994
                },
                {
                    "name": "G2",
                    "midi": 43,
                    "time": 0.7527599999999999,
                    "velocity": 0.4330708661417323,
                    "duration": 0.23000999999999994
                },
                {
                    "name": "C3",
                    "midi": 48,
                    "time": 0.7527599999999999,
                    "velocity": 0.5118110236220472,
                    "duration": 0.23000999999999994
                },
                {
                    "name": "C2",
                    "midi": 36,
                    "time": 1.00368,
                    "velocity": 0.4330708661417323,
                    "duration": 0.5018399999999998
                },
                {
                    "name": "G2",
                    "midi": 43,
                    "time": 1.00368,
                    "velocity": 0.4330708661417323,
                    "duration": 0.5018399999999998
                },
                {
                    "name": "C3",
                    "midi": 48,
                    "time": 1.00368,
                    "velocity": 0.5118110236220472,
                    "duration": 0.5018399999999998
                },
                {
                    "name": "D2",
                    "midi": 38,
                    "time": 1.5055199999999997,
                    "velocity": 0.3937007874015748,
                    "duration": 0.1254599999999999
                },
                {
                    "name": "D3",
                    "midi": 50,
                    "time": 1.5055199999999997,
                    "velocity": 0.4645669291338583,
                    "duration": 0.1254599999999999
                },
                {
                    "name": "E2",
                    "midi": 40,
                    "time": 1.7564399999999996,
                    "velocity": 0.4330708661417323,
                    "duration": 0.1254599999999999
                },
                {
                    "name": "C3",
                    "midi": 48,
                    "time": 1.7564399999999996,
                    "velocity": 0.4330708661417323,
                    "duration": 0.1254599999999999
                },
                {
                    "name": "E3",
                    "midi": 52,
                    "time": 1.7564399999999996,
                    "velocity": 0.5118110236220472,
                    "duration": 0.1254599999999999
                },
                {
                    "name": "F2",
                    "midi": 41,
                    "time": 2.0073599999999994,
                    "velocity": 0.4409448818897638,
                    "duration": 0.1254599999999999
                },
                {
                    "name": "C3",
                    "midi": 48,
                    "time": 2.0073599999999994,
                    "velocity": 0.4409448818897638,
                    "duration": 0.1254599999999999
                },
                {
                    "name": "F3",
                    "midi": 53,
                    "time": 2.0073599999999994,
                    "velocity": 0.5275590551181102,
                    "duration": 0.1254599999999999
                },
                {
                    "name": "E2",
                    "midi": 40,
                    "time": 2.509199999999999,
                    "velocity": 0.4094488188976378,
                    "duration": 0.1254599999999999
                },
                {
                    "name": "C3",
                    "midi": 48,
                    "time": 2.509199999999999,
                    "velocity": 0.4094488188976378,
                    "duration": 0.1254599999999999
                },
                {
                    "name": "E3",
                    "midi": 52,
                    "time": 2.509199999999999,
                    "velocity": 0.4881889763779528,
                    "duration": 0.1254599999999999
                },
                {
                    "name": "C2",
                    "midi": 36,
                    "time": 3.763799999999999,
                    "velocity": 0.4330708661417323,
                    "duration": 0.22582799999999992
                },
                {
                    "name": "G2",
                    "midi": 43,
                    "time": 3.763799999999999,
                    "velocity": 0.4330708661417323,
                    "duration": 0.22582799999999992
                },
                {
                    "name": "C3",
                    "midi": 48,
                    "time": 3.763799999999999,
                    "velocity": 0.5118110236220472,
                    "duration": 0.22582799999999992
                },
                {
                    "name": "C2",
                    "midi": 36,
                    "time": 4.014719999999999,
                    "velocity": 0.4330708661417323,
                    "duration": 0.5018399999999996
                },
                {
                    "name": "G2",
                    "midi": 43,
                    "time": 4.014719999999999,
                    "velocity": 0.4330708661417323,
                    "duration": 0.5018399999999996
                },
                {
                    "name": "C3",
                    "midi": 48,
                    "time": 4.014719999999999,
                    "velocity": 0.5118110236220472,
                    "duration": 0.5018399999999996
                },
                {
                    "name": "D2",
                    "midi": 38,
                    "time": 4.516559999999998,
                    "velocity": 0.3937007874015748,
                    "duration": 0.12546000000000035
                },
                {
                    "name": "D3",
                    "midi": 50,
                    "time": 4.516559999999998,
                    "velocity": 0.4645669291338583,
                    "duration": 0.12546000000000035
                },
                {
                    "name": "E2",
                    "midi": 40,
                    "time": 4.767479999999999,
                    "velocity": 0.4330708661417323,
                    "duration": 0.12546000000000035
                },
                {
                    "name": "C3",
                    "midi": 48,
                    "time": 4.767479999999999,
                    "velocity": 0.4330708661417323,
                    "duration": 0.12546000000000035
                },
                {
                    "name": "E3",
                    "midi": 52,
                    "time": 4.767479999999999,
                    "velocity": 0.5118110236220472,
                    "duration": 0.12546000000000035
                },
                {
                    "name": "F2",
                    "midi": 41,
                    "time": 5.0184,
                    "velocity": 0.4409448818897638,
                    "duration": 0.2509199999999998
                },
                {
                    "name": "C3",
                    "midi": 48,
                    "time": 5.0184,
                    "velocity": 0.4409448818897638,
                    "duration": 0.2509199999999998
                },
                {
                    "name": "F3",
                    "midi": 53,
                    "time": 5.0184,
                    "velocity": 0.5275590551181102,
                    "duration": 0.2509199999999998
                },
                {
                    "name": "C3",
                    "midi": 48,
                    "time": 5.520239999999999,
                    "velocity": 0.3937007874015748,
                    "duration": 0.12546000000000035
                },
                {
                    "name": "E2",
                    "midi": 40,
                    "time": 5.520239999999999,
                    "velocity": 0.3937007874015748,
                    "duration": 0.12546000000000035
                },
                {
                    "name": "E3",
                    "midi": 52,
                    "time": 5.520239999999999,
                    "velocity": 0.4645669291338583,
                    "duration": 0.12546000000000035
                },
                {
                    "name": "F2",
                    "midi": 41,
                    "time": 5.77116,
                    "velocity": 0.4330708661417323,
                    "duration": 0.12546000000000035
                },
                {
                    "name": "C3",
                    "midi": 48,
                    "time": 5.77116,
                    "velocity": 0.4330708661417323,
                    "duration": 0.12546000000000035
                },
                {
                    "name": "F3",
                    "midi": 53,
                    "time": 5.77116,
                    "velocity": 0.5118110236220472,
                    "duration": 0.12546000000000035
                },
                {
                    "name": "G2",
                    "midi": 43,
                    "time": 6.022080000000001,
                    "velocity": 0.4409448818897638,
                    "duration": 0.12546000000000035
                },
                {
                    "name": "C3",
                    "midi": 48,
                    "time": 6.022080000000001,
                    "velocity": 0.4409448818897638,
                    "duration": 0.12546000000000035
                },
                {
                    "name": "G3",
                    "midi": 55,
                    "time": 6.022080000000001,
                    "velocity": 0.5275590551181102,
                    "duration": 0.12546000000000035
                },
                {
                    "name": "F2",
                    "midi": 41,
                    "time": 6.523920000000001,
                    "velocity": 0.4094488188976378,
                    "duration": 0.12546000000000035
                },
                {
                    "name": "C3",
                    "midi": 48,
                    "time": 6.523920000000001,
                    "velocity": 0.4094488188976378,
                    "duration": 0.12546000000000035
                },
                {
                    "name": "F3",
                    "midi": 53,
                    "time": 6.523920000000001,
                    "velocity": 0.4881889763779528,
                    "duration": 0.12546000000000035
                },
                {
                    "name": "C3",
                    "midi": 48,
                    "time": 7.527600000000001,
                    "velocity": 0.3937007874015748,
                    "duration": 0.12546000000000035
                },
                {
                    "name": "E2",
                    "midi": 40,
                    "time": 7.527600000000001,
                    "velocity": 0.3937007874015748,
                    "duration": 0.12546000000000035
                },
                {
                    "name": "E3",
                    "midi": 52,
                    "time": 7.527600000000001,
                    "velocity": 0.4645669291338583,
                    "duration": 0.12546000000000035
                },
                {
                    "name": "F2",
                    "midi": 41,
                    "time": 7.778520000000002,
                    "velocity": 0.4330708661417323,
                    "duration": 0.12546000000000035
                },
                {
                    "name": "C3",
                    "midi": 48,
                    "time": 7.778520000000002,
                    "velocity": 0.4330708661417323,
                    "duration": 0.12546000000000035
                },
                {
                    "name": "F3",
                    "midi": 53,
                    "time": 7.778520000000002,
                    "velocity": 0.5118110236220472,
                    "duration": 0.12546000000000035
                },
                {
                    "name": "D2",
                    "midi": 38,
                    "time": 8.029440000000003,
                    "velocity": 0.4409448818897638,
                    "duration": 0.12546000000000035
                },
                {
                    "name": "D3",
                    "midi": 50,
                    "time": 8.029440000000003,
                    "velocity": 0.5275590551181102,
                    "duration": 0.12546000000000035
                },
                {
                    "name": "E2",
                    "midi": 40,
                    "time": 8.531280000000002,
                    "velocity": 0.44881889763779526,
                    "duration": 0.12546000000000035
                },
                {
                    "name": "E3",
                    "midi": 52,
                    "time": 8.531280000000002,
                    "velocity": 0.5354330708661418,
                    "duration": 0.12546000000000035
                },
                {
                    "name": "B1",
                    "midi": 35,
                    "time": 9.033120000000002,
                    "velocity": 0.4645669291338583,
                    "duration": 0.12546000000000035
                },
                {
                    "name": "B2",
                    "midi": 47,
                    "time": 9.033120000000002,
                    "velocity": 0.5511811023622047,
                    "duration": 0.12546000000000035
                },
                {
                    "name": "C2",
                    "midi": 36,
                    "time": 9.534960000000002,
                    "velocity": 0.4881889763779528,
                    "duration": 0.12546000000000035
                },
                {
                    "name": "C3",
                    "midi": 48,
                    "time": 9.534960000000002,
                    "velocity": 0.5748031496062992,
                    "duration": 0.12546000000000035
                },
                {
                    "name": "A1",
                    "midi": 33,
                    "time": 10.036800000000001,
                    "velocity": 0.5275590551181102,
                    "duration": 1.0036799999999992
                },
                {
                    "name": "D2",
                    "midi": 38,
                    "time": 10.036800000000001,
                    "velocity": 0.5275590551181102,
                    "duration": 1.0036799999999992
                },
                {
                    "name": "A2",
                    "midi": 45,
                    "time": 10.036800000000001,
                    "velocity": 0.6220472440944882,
                    "duration": 1.0036799999999992
                },
                {
                    "name": "G1",
                    "midi": 31,
                    "time": 11.04048,
                    "velocity": 0.49606299212598426,
                    "duration": 0.5018399999999996
                },
                {
                    "name": "D2",
                    "midi": 38,
                    "time": 11.04048,
                    "velocity": 0.49606299212598426,
                    "duration": 0.5018399999999996
                },
                {
                    "name": "G2",
                    "midi": 43,
                    "time": 11.04048,
                    "velocity": 0.5905511811023622,
                    "duration": 0.5018399999999996
                },
                {
                    "name": "D4",
                    "midi": 62,
                    "time": 11.54232,
                    "velocity": 0.5511811023622047,
                    "duration": 0.12546000000000035
                },
                {
                    "name": "F#4",
                    "midi": 66,
                    "time": 11.79324,
                    "velocity": 0.49606299212598426,
                    "duration": 0.12546000000000035
                },
                {
                    "name": "G4",
                    "midi": 67,
                    "time": 12.044160000000002,
                    "velocity": 0.5433070866141733,
                    "duration": 0.12546000000000035
                },
                {
                    "name": "D3",
                    "midi": 50,
                    "time": 12.546000000000001,
                    "velocity": 0.4409448818897638,
                    "duration": 0.12546000000000035
                },
                {
                    "name": "F#3",
                    "midi": 54,
                    "time": 12.796920000000002,
                    "velocity": 0.3937007874015748,
                    "duration": 0.12546000000000035
                },
                {
                    "name": "G3",
                    "midi": 55,
                    "time": 13.047840000000003,
                    "velocity": 0.4330708661417323,
                    "duration": 0.12546000000000035
                },
                {
                    "name": "D2",
                    "midi": 38,
                    "time": 13.549680000000002,
                    "velocity": 0.4409448818897638,
                    "duration": 0.12546000000000035
                },
                {
                    "name": "F#2",
                    "midi": 42,
                    "time": 13.800600000000003,
                    "velocity": 0.3937007874015748,
                    "duration": 0.12546000000000035
                },
                {
                    "name": "G2",
                    "midi": 43,
                    "time": 14.051520000000004,
                    "velocity": 0.4330708661417323,
                    "duration": 0.5018399999999996
                },
                {
                    "name": "G3",
                    "midi": 55,
                    "time": 15.055200000000003,
                    "velocity": 0.4330708661417323,
                    "duration": 1.0036799999999992
                },
                {
                    "name": "A#3",
                    "midi": 58,
                    "time": 15.055200000000003,
                    "velocity": 0.4330708661417323,
                    "duration": 1.0036799999999992
                },
                {
                    "name": "A#2",
                    "midi": 46,
                    "time": 16.058880000000002,
                    "velocity": 0.47244094488188976,
                    "duration": 0.7527600000000021
                },
                {
                    "name": "F3",
                    "midi": 53,
                    "time": 16.090245000000003,
                    "velocity": 0.49606299212598426,
                    "duration": 0.7213950000000011
                },
                {
                    "name": "A#3",
                    "midi": 58,
                    "time": 16.121610000000004,
                    "velocity": 0.5275590551181102,
                    "duration": 0.6900300000000001
                },
                {
                    "name": "D4",
                    "midi": 62,
                    "time": 16.152975000000005,
                    "velocity": 0.5511811023622047,
                    "duration": 0.6586649999999992
                },
                {
                    "name": "A#1",
                    "midi": 34,
                    "time": 16.811640000000004,
                    "velocity": 0.4330708661417323,
                    "duration": 0.22582799999999992
                },
                {
                    "name": "A#2",
                    "midi": 46,
                    "time": 16.811640000000004,
                    "velocity": 0.5118110236220472,
                    "duration": 0.22582799999999992
                },
                {
                    "name": "A#1",
                    "midi": 34,
                    "time": 17.062560000000005,
                    "velocity": 0.4330708661417323,
                    "duration": 0.5018400000000014
                },
                {
                    "name": "A#2",
                    "midi": 46,
                    "time": 17.062560000000005,
                    "velocity": 0.5118110236220472,
                    "duration": 0.5018400000000014
                },
                {
                    "name": "C2",
                    "midi": 36,
                    "time": 17.564400000000006,
                    "velocity": 0.3937007874015748,
                    "duration": 0.12546000000000035
                },
                {
                    "name": "C3",
                    "midi": 48,
                    "time": 17.564400000000006,
                    "velocity": 0.4645669291338583,
                    "duration": 0.12546000000000035
                },
                {
                    "name": "D2",
                    "midi": 38,
                    "time": 17.815320000000007,
                    "velocity": 0.4330708661417323,
                    "duration": 0.12546000000000035
                },
                {
                    "name": "D3",
                    "midi": 50,
                    "time": 17.815320000000007,
                    "velocity": 0.5118110236220472,
                    "duration": 0.12546000000000035
                },
                {
                    "name": "D#2",
                    "midi": 39,
                    "time": 18.066240000000008,
                    "velocity": 0.4409448818897638,
                    "duration": 0.12546000000000035
                },
                {
                    "name": "A#2",
                    "midi": 46,
                    "time": 18.066240000000008,
                    "velocity": 0.4409448818897638,
                    "duration": 0.12546000000000035
                },
                {
                    "name": "D#3",
                    "midi": 51,
                    "time": 18.066240000000008,
                    "velocity": 0.5275590551181102,
                    "duration": 0.12546000000000035
                },
                {
                    "name": "D2",
                    "midi": 38,
                    "time": 18.56808000000001,
                    "velocity": 0.4094488188976378,
                    "duration": 0.12546000000000035
                },
                {
                    "name": "A#2",
                    "midi": 46,
                    "time": 18.56808000000001,
                    "velocity": 0.4094488188976378,
                    "duration": 0.12546000000000035
                },
                {
                    "name": "D3",
                    "midi": 50,
                    "time": 18.56808000000001,
                    "velocity": 0.4881889763779528,
                    "duration": 0.12546000000000035
                },
                {
                    "name": "A#1",
                    "midi": 34,
                    "time": 19.82268000000001,
                    "velocity": 0.4330708661417323,
                    "duration": 0.22582799999999992
                },
                {
                    "name": "A#2",
                    "midi": 46,
                    "time": 19.82268000000001,
                    "velocity": 0.5118110236220472,
                    "duration": 0.22582799999999992
                },
                {
                    "name": "A#1",
                    "midi": 34,
                    "time": 20.07360000000001,
                    "velocity": 0.4330708661417323,
                    "duration": 0.5018400000000014
                },
                {
                    "name": "A#2",
                    "midi": 46,
                    "time": 20.07360000000001,
                    "velocity": 0.5118110236220472,
                    "duration": 0.5018400000000014
                },
                {
                    "name": "C2",
                    "midi": 36,
                    "time": 20.57544000000001,
                    "velocity": 0.3937007874015748,
                    "duration": 0.12546000000000035
                },
                {
                    "name": "C3",
                    "midi": 48,
                    "time": 20.57544000000001,
                    "velocity": 0.4645669291338583,
                    "duration": 0.12546000000000035
                },
                {
                    "name": "D2",
                    "midi": 38,
                    "time": 20.82636000000001,
                    "velocity": 0.4330708661417323,
                    "duration": 0.12546000000000035
                },
                {
                    "name": "D3",
                    "midi": 50,
                    "time": 20.82636000000001,
                    "velocity": 0.5118110236220472,
                    "duration": 0.12546000000000035
                },
                {
                    "name": "D#2",
                    "midi": 39,
                    "time": 21.077280000000012,
                    "velocity": 0.4409448818897638,
                    "duration": 0.2509200000000007
                },
                {
                    "name": "A#2",
                    "midi": 46,
                    "time": 21.077280000000012,
                    "velocity": 0.4409448818897638,
                    "duration": 0.2509200000000007
                },
                {
                    "name": "D#3",
                    "midi": 51,
                    "time": 21.077280000000012,
                    "velocity": 0.5275590551181102,
                    "duration": 0.2509200000000007
                },
                {
                    "name": "A#2",
                    "midi": 46,
                    "time": 21.579120000000014,
                    "velocity": 0.3937007874015748,
                    "duration": 0.12546000000000035
                },
                {
                    "name": "D2",
                    "midi": 38,
                    "time": 21.579120000000014,
                    "velocity": 0.3937007874015748,
                    "duration": 0.12546000000000035
                },
                {
                    "name": "D3",
                    "midi": 50,
                    "time": 21.579120000000014,
                    "velocity": 0.4645669291338583,
                    "duration": 0.12546000000000035
                },
                {
                    "name": "D#2",
                    "midi": 39,
                    "time": 21.830040000000015,
                    "velocity": 0.4330708661417323,
                    "duration": 0.12546000000000035
                },
                {
                    "name": "A#2",
                    "midi": 46,
                    "time": 21.830040000000015,
                    "velocity": 0.4330708661417323,
                    "duration": 0.12546000000000035
                },
                {
                    "name": "D#3",
                    "midi": 51,
                    "time": 21.830040000000015,
                    "velocity": 0.5118110236220472,
                    "duration": 0.12546000000000035
                },
                {
                    "name": "F2",
                    "midi": 41,
                    "time": 22.080960000000015,
                    "velocity": 0.4409448818897638,
                    "duration": 0.12546000000000035
                },
                {
                    "name": "A#2",
                    "midi": 46,
                    "time": 22.080960000000015,
                    "velocity": 0.4409448818897638,
                    "duration": 0.12546000000000035
                },
                {
                    "name": "F3",
                    "midi": 53,
                    "time": 22.080960000000015,
                    "velocity": 0.5275590551181102,
                    "duration": 0.12546000000000035
                },
                {
                    "name": "D#2",
                    "midi": 39,
                    "time": 22.582800000000017,
                    "velocity": 0.4094488188976378,
                    "duration": 0.12546000000000035
                },
                {
                    "name": "A#2",
                    "midi": 46,
                    "time": 22.582800000000017,
                    "velocity": 0.4094488188976378,
                    "duration": 0.12546000000000035
                },
                {
                    "name": "D#3",
                    "midi": 51,
                    "time": 22.582800000000017,
                    "velocity": 0.4881889763779528,
                    "duration": 0.12546000000000035
                },
                {
                    "name": "D2",
                    "midi": 38,
                    "time": 23.586480000000016,
                    "velocity": 0.3937007874015748,
                    "duration": 0.12546000000000035
                },
                {
                    "name": "D3",
                    "midi": 50,
                    "time": 23.586480000000016,
                    "velocity": 0.4645669291338583,
                    "duration": 0.12546000000000035
                },
                {
                    "name": "D#2",
                    "midi": 39,
                    "time": 23.837400000000017,
                    "velocity": 0.4330708661417323,
                    "duration": 0.12546000000000035
                },
                {
                    "name": "D#3",
                    "midi": 51,
                    "time": 23.837400000000017,
                    "velocity": 0.5118110236220472,
                    "duration": 0.12546000000000035
                },
                {
                    "name": "F2",
                    "midi": 41,
                    "time": 24.088320000000017,
                    "velocity": 0.4409448818897638,
                    "duration": 0.12546000000000035
                },
                {
                    "name": "F3",
                    "midi": 53,
                    "time": 24.088320000000017,
                    "velocity": 0.5275590551181102,
                    "duration": 0.12546000000000035
                },
                {
                    "name": "D#2",
                    "midi": 39,
                    "time": 24.59016000000002,
                    "velocity": 0.44881889763779526,
                    "duration": 0.12546000000000035
                },
                {
                    "name": "D#3",
                    "midi": 51,
                    "time": 24.59016000000002,
                    "velocity": 0.5354330708661418,
                    "duration": 0.12546000000000035
                },
                {
                    "name": "B1",
                    "midi": 35,
                    "time": 25.09200000000002,
                    "velocity": 0.4645669291338583,
                    "duration": 0.12546000000000035
                },
                {
                    "name": "B2",
                    "midi": 47,
                    "time": 25.09200000000002,
                    "velocity": 0.5511811023622047,
                    "duration": 0.12546000000000035
                },
                {
                    "name": "C2",
                    "midi": 36,
                    "time": 25.59384000000002,
                    "velocity": 0.4881889763779528,
                    "duration": 0.12546000000000035
                },
                {
                    "name": "C3",
                    "midi": 48,
                    "time": 25.59384000000002,
                    "velocity": 0.5748031496062992,
                    "duration": 0.12546000000000035
                },
                {
                    "name": "A1",
                    "midi": 33,
                    "time": 26.095680000000023,
                    "velocity": 0.4881889763779528,
                    "duration": 0.12546000000000035
                },
                {
                    "name": "A2",
                    "midi": 45,
                    "time": 26.095680000000023,
                    "velocity": 0.5748031496062992,
                    "duration": 0.12546000000000035
                },
                {
                    "name": "G#1",
                    "midi": 32,
                    "time": 26.597520000000024,
                    "velocity": 0.4881889763779528,
                    "duration": 1.0036799999999992
                },
                {
                    "name": "D2",
                    "midi": 38,
                    "time": 26.597520000000024,
                    "velocity": 0.4881889763779528,
                    "duration": 1.0036799999999992
                },
                {
                    "name": "G#2",
                    "midi": 44,
                    "time": 26.597520000000024,
                    "velocity": 0.5748031496062992,
                    "duration": 1.0036799999999992
                },
                {
                    "name": "G1",
                    "midi": 31,
                    "time": 27.601200000000023,
                    "velocity": 0.4881889763779528,
                    "duration": 1.0036799999999992
                },
                {
                    "name": "D2",
                    "midi": 38,
                    "time": 27.601200000000023,
                    "velocity": 0.4881889763779528,
                    "duration": 1.0036799999999992
                },
                {
                    "name": "G2",
                    "midi": 43,
                    "time": 27.601200000000023,
                    "velocity": 0.5748031496062992,
                    "duration": 1.0036799999999992
                },
                {
                    "name": "F#1",
                    "midi": 30,
                    "time": 28.604880000000023,
                    "velocity": 0.4881889763779528,
                    "duration": 0.9827699999999986
                },
                {
                    "name": "D2",
                    "midi": 38,
                    "time": 28.604880000000023,
                    "velocity": 0.4881889763779528,
                    "duration": 0.9827699999999986
                },
                {
                    "name": "F#2",
                    "midi": 42,
                    "time": 28.604880000000023,
                    "velocity": 0.5748031496062992,
                    "duration": 0.9827699999999986
                },
                {
                    "name": "F#1",
                    "midi": 30,
                    "time": 29.608560000000022,
                    "velocity": 0.4881889763779528,
                    "duration": 0.5018400000000014
                },
                {
                    "name": "D2",
                    "midi": 38,
                    "time": 29.608560000000022,
                    "velocity": 0.4881889763779528,
                    "duration": 0.5018400000000014
                },
                {
                    "name": "F#2",
                    "midi": 42,
                    "time": 29.608560000000022,
                    "velocity": 0.5748031496062992,
                    "duration": 0.5018400000000014
                },
                {
                    "name": "G1",
                    "midi": 31,
                    "time": 30.110400000000023,
                    "velocity": 0.4015748031496063,
                    "duration": 0.12546000000000035
                },
                {
                    "name": "D2",
                    "midi": 38,
                    "time": 30.110400000000023,
                    "velocity": 0.4015748031496063,
                    "duration": 0.12546000000000035
                },
                {
                    "name": "G2",
                    "midi": 43,
                    "time": 30.110400000000023,
                    "velocity": 0.48031496062992124,
                    "duration": 0.12546000000000035
                },
                {
                    "name": "D3",
                    "midi": 50,
                    "time": 30.612240000000025,
                    "velocity": 0.4566929133858268,
                    "duration": 1.0036799999999992
                },
                {
                    "name": "F3",
                    "midi": 53,
                    "time": 30.612240000000025,
                    "velocity": 0.4566929133858268,
                    "duration": 1.0036799999999992
                },
                {
                    "name": "B3",
                    "midi": 59,
                    "time": 30.612240000000025,
                    "velocity": 0.5433070866141733,
                    "duration": 1.0036799999999992
                },
                {
                    "name": "G3",
                    "midi": 55,
                    "time": 30.612240000000025,
                    "velocity": 0.4566929133858268,
                    "duration": 1.0036799999999992
                },
                {
                    "name": "G1",
                    "midi": 31,
                    "time": 31.615920000000024,
                    "velocity": 0.3779527559055118,
                    "duration": 0.12546000000000035
                },
                {
                    "name": "G2",
                    "midi": 43,
                    "time": 31.615920000000024,
                    "velocity": 0.44881889763779526,
                    "duration": 0.12546000000000035
                },
                {
                    "name": "C2",
                    "midi": 36,
                    "time": 32.117760000000025,
                    "velocity": 0.4251968503937008,
                    "duration": 0.1254599999999968
                },
                {
                    "name": "G2",
                    "midi": 43,
                    "time": 32.117760000000025,
                    "velocity": 0.4251968503937008,
                    "duration": 0.1254599999999968
                },
                {
                    "name": "C3",
                    "midi": 48,
                    "time": 32.117760000000025,
                    "velocity": 0.5039370078740157,
                    "duration": 0.1254599999999968
                },
                {
                    "name": "C3",
                    "midi": 48,
                    "time": 32.87052000000002,
                    "velocity": 0.2677165354330709,
                    "duration": 0.22582799999999992
                },
                {
                    "name": "E3",
                    "midi": 52,
                    "time": 32.87052000000002,
                    "velocity": 0.31496062992125984,
                    "duration": 0.22582799999999992
                },
                {
                    "name": "C3",
                    "midi": 48,
                    "time": 33.12144000000002,
                    "velocity": 0.30708661417322836,
                    "duration": 0.5018400000000014
                },
                {
                    "name": "E3",
                    "midi": 52,
                    "time": 33.12144000000002,
                    "velocity": 0.36220472440944884,
                    "duration": 0.5018400000000014
                },
                {
                    "name": "D3",
                    "midi": 50,
                    "time": 33.62328000000002,
                    "velocity": 0.2677165354330709,
                    "duration": 0.1254599999999968
                },
                {
                    "name": "F3",
                    "midi": 53,
                    "time": 33.62328000000002,
                    "velocity": 0.3228346456692913,
                    "duration": 0.1254599999999968
                },
                {
                    "name": "E3",
                    "midi": 52,
                    "time": 33.874200000000016,
                    "velocity": 0.28346456692913385,
                    "duration": 0.1254599999999968
                },
                {
                    "name": "G3",
                    "midi": 55,
                    "time": 33.874200000000016,
                    "velocity": 0.33858267716535434,
                    "duration": 0.1254599999999968
                },
                {
                    "name": "F3",
                    "midi": 53,
                    "time": 34.12512000000001,
                    "velocity": 0.30708661417322836,
                    "duration": 0.1254599999999968
                },
                {
                    "name": "A3",
                    "midi": 57,
                    "time": 34.12512000000001,
                    "velocity": 0.36220472440944884,
                    "duration": 0.1254599999999968
                },
                {
                    "name": "E3",
                    "midi": 52,
                    "time": 34.626960000000004,
                    "velocity": 0.2677165354330709,
                    "duration": 0.1254599999999968
                },
                {
                    "name": "G3",
                    "midi": 55,
                    "time": 34.626960000000004,
                    "velocity": 0.31496062992125984,
                    "duration": 0.1254599999999968
                },
                {
                    "name": "G3",
                    "midi": 55,
                    "time": 35.1288,
                    "velocity": 0.29133858267716534,
                    "duration": 0.5018400000000014
                },
                {
                    "name": "B3",
                    "midi": 59,
                    "time": 35.1288,
                    "velocity": 0.3464566929133858,
                    "duration": 0.5018400000000014
                },
                {
                    "name": "C4",
                    "midi": 60,
                    "time": 35.63064,
                    "velocity": 0.3228346456692913,
                    "duration": 0.1254599999999968
                },
                {
                    "name": "A3",
                    "midi": 57,
                    "time": 35.63064,
                    "velocity": 0.2677165354330709,
                    "duration": 0.1254599999999968
                },
                {
                    "name": "B3",
                    "midi": 59,
                    "time": 35.88155999999999,
                    "velocity": 0.29133858267716534,
                    "duration": 0.1254599999999968
                },
                {
                    "name": "D4",
                    "midi": 62,
                    "time": 35.88155999999999,
                    "velocity": 0.3464566929133858,
                    "duration": 0.1254599999999968
                },
                {
                    "name": "F4",
                    "midi": 65,
                    "time": 36.13247999999999,
                    "velocity": 0.3700787401574803,
                    "duration": 0.5018400000000014
                },
                {
                    "name": "C4",
                    "midi": 60,
                    "time": 36.13247999999999,
                    "velocity": 0.30708661417322836,
                    "duration": 0.5018400000000014
                },
                {
                    "name": "E4",
                    "midi": 64,
                    "time": 36.63431999999999,
                    "velocity": 0.3464566929133858,
                    "duration": 0.1254599999999968
                },
                {
                    "name": "C4",
                    "midi": 60,
                    "time": 36.63431999999999,
                    "velocity": 0.29133858267716534,
                    "duration": 0.1254599999999968
                },
                {
                    "name": "D4",
                    "midi": 62,
                    "time": 36.88523999999998,
                    "velocity": 0.31496062992125984,
                    "duration": 0.1254599999999968
                },
                {
                    "name": "G3",
                    "midi": 55,
                    "time": 36.88523999999998,
                    "velocity": 0.2677165354330709,
                    "duration": 0.1254599999999968
                },
                {
                    "name": "E4",
                    "midi": 64,
                    "time": 37.136159999999975,
                    "velocity": 0.3858267716535433,
                    "duration": 0.5018400000000014
                },
                {
                    "name": "C4",
                    "midi": 60,
                    "time": 37.136159999999975,
                    "velocity": 0.3228346456692913,
                    "duration": 0.5018400000000014
                },
                {
                    "name": "D4",
                    "midi": 62,
                    "time": 37.63799999999998,
                    "velocity": 0.33070866141732286,
                    "duration": 0.1254599999999968
                },
                {
                    "name": "G3",
                    "midi": 55,
                    "time": 37.63799999999998,
                    "velocity": 0.2755905511811024,
                    "duration": 0.1254599999999968
                },
                {
                    "name": "E3",
                    "midi": 52,
                    "time": 37.88891999999997,
                    "velocity": 0.2755905511811024,
                    "duration": 0.1254599999999968
                },
                {
                    "name": "C4",
                    "midi": 60,
                    "time": 37.88891999999997,
                    "velocity": 0.33070866141732286,
                    "duration": 0.1254599999999968
                },
                {
                    "name": "B3",
                    "midi": 59,
                    "time": 38.139839999999964,
                    "velocity": 0.3858267716535433,
                    "duration": 0.7527600000000021
                },
                {
                    "name": "G3",
                    "midi": 55,
                    "time": 38.139839999999964,
                    "velocity": 0.3228346456692913,
                    "duration": 0.7527600000000021
                },
                {
                    "name": "E4",
                    "midi": 64,
                    "time": 38.892599999999966,
                    "velocity": 0.3464566929133858,
                    "duration": 0.22582799999999992
                },
                {
                    "name": "C4",
                    "midi": 60,
                    "time": 38.892599999999966,
                    "velocity": 0.29133858267716534,
                    "duration": 0.22582799999999992
                },
                {
                    "name": "E4",
                    "midi": 64,
                    "time": 39.14351999999997,
                    "velocity": 0.41732283464566927,
                    "duration": 0.7527600000000021
                },
                {
                    "name": "C4",
                    "midi": 60,
                    "time": 39.14351999999997,
                    "velocity": 0.3543307086614173,
                    "duration": 0.7527600000000021
                },
                {
                    "name": "G4",
                    "midi": 67,
                    "time": 39.89627999999997,
                    "velocity": 0.3700787401574803,
                    "duration": 0.22582799999999992
                },
                {
                    "name": "E4",
                    "midi": 64,
                    "time": 39.89627999999997,
                    "velocity": 0.30708661417322836,
                    "duration": 0.22582799999999992
                },
                {
                    "name": "G4",
                    "midi": 67,
                    "time": 40.14719999999997,
                    "velocity": 0.4251968503937008,
                    "duration": 0.5018400000000014
                },
                {
                    "name": "E4",
                    "midi": 64,
                    "time": 40.14719999999997,
                    "velocity": 0.3543307086614173,
                    "duration": 0.5018400000000014
                },
                {
                    "name": "F4",
                    "midi": 65,
                    "time": 40.64903999999997,
                    "velocity": 0.3937007874015748,
                    "duration": 0.1254599999999968
                },
                {
                    "name": "D3",
                    "midi": 50,
                    "time": 41.150879999999965,
                    "velocity": 0.30708661417322836,
                    "duration": 0.5018400000000014
                },
                {
                    "name": "F3",
                    "midi": 53,
                    "time": 41.150879999999965,
                    "velocity": 0.36220472440944884,
                    "duration": 0.5018400000000014
                },
                {
                    "name": "E3",
                    "midi": 52,
                    "time": 41.65271999999997,
                    "velocity": 0.2677165354330709,
                    "duration": 0.1254599999999968
                },
                {
                    "name": "G3",
                    "midi": 55,
                    "time": 41.65271999999997,
                    "velocity": 0.3228346456692913,
                    "duration": 0.1254599999999968
                },
                {
                    "name": "F3",
                    "midi": 53,
                    "time": 41.90363999999996,
                    "velocity": 0.28346456692913385,
                    "duration": 0.1254599999999968
                },
                {
                    "name": "A3",
                    "midi": 57,
                    "time": 41.90363999999996,
                    "velocity": 0.33858267716535434,
                    "duration": 0.1254599999999968
                },
                {
                    "name": "G3",
                    "midi": 55,
                    "time": 42.154559999999954,
                    "velocity": 0.30708661417322836,
                    "duration": 0.1254599999999968
                },
                {
                    "name": "A#3",
                    "midi": 58,
                    "time": 42.154559999999954,
                    "velocity": 0.36220472440944884,
                    "duration": 0.1254599999999968
                },
                {
                    "name": "F3",
                    "midi": 53,
                    "time": 42.65639999999995,
                    "velocity": 0.2677165354330709,
                    "duration": 0.1254599999999968
                },
                {
                    "name": "A3",
                    "midi": 57,
                    "time": 42.65639999999995,
                    "velocity": 0.31496062992125984,
                    "duration": 0.1254599999999968
                },
                {
                    "name": "A3",
                    "midi": 57,
                    "time": 43.15823999999994,
                    "velocity": 0.29133858267716534,
                    "duration": 0.5018400000000014
                },
                {
                    "name": "C#4",
                    "midi": 61,
                    "time": 43.15823999999994,
                    "velocity": 0.3464566929133858,
                    "duration": 0.5018400000000014
                },
                {
                    "name": "D4",
                    "midi": 62,
                    "time": 43.660079999999944,
                    "velocity": 0.3228346456692913,
                    "duration": 0.1254599999999968
                },
                {
                    "name": "B3",
                    "midi": 59,
                    "time": 43.660079999999944,
                    "velocity": 0.2677165354330709,
                    "duration": 0.1254599999999968
                },
                {
                    "name": "C#4",
                    "midi": 61,
                    "time": 43.91099999999994,
                    "velocity": 0.29133858267716534,
                    "duration": 0.1254599999999968
                },
                {
                    "name": "E4",
                    "midi": 64,
                    "time": 43.91099999999994,
                    "velocity": 0.3464566929133858,
                    "duration": 0.1254599999999968
                },
                {
                    "name": "G4",
                    "midi": 67,
                    "time": 44.16191999999993,
                    "velocity": 0.3700787401574803,
                    "duration": 0.5018400000000014
                },
                {
                    "name": "D4",
                    "midi": 62,
                    "time": 44.16191999999993,
                    "velocity": 0.30708661417322836,
                    "duration": 0.5018400000000014
                },
                {
                    "name": "F4",
                    "midi": 65,
                    "time": 44.66375999999993,
                    "velocity": 0.3464566929133858,
                    "duration": 0.1254599999999968
                },
                {
                    "name": "D4",
                    "midi": 62,
                    "time": 44.66375999999993,
                    "velocity": 0.29133858267716534,
                    "duration": 0.1254599999999968
                },
                {
                    "name": "E4",
                    "midi": 64,
                    "time": 44.914679999999926,
                    "velocity": 0.31496062992125984,
                    "duration": 0.1254599999999968
                },
                {
                    "name": "A3",
                    "midi": 57,
                    "time": 44.914679999999926,
                    "velocity": 0.2677165354330709,
                    "duration": 0.1254599999999968
                },
                {
                    "name": "F4",
                    "midi": 65,
                    "time": 45.16559999999992,
                    "velocity": 0.3858267716535433,
                    "duration": 0.5018400000000014
                },
                {
                    "name": "D4",
                    "midi": 62,
                    "time": 45.16559999999992,
                    "velocity": 0.3228346456692913,
                    "duration": 0.5018400000000014
                },
                {
                    "name": "E4",
                    "midi": 64,
                    "time": 45.66743999999992,
                    "velocity": 0.33070866141732286,
                    "duration": 0.1254599999999968
                },
                {
                    "name": "A3",
                    "midi": 57,
                    "time": 45.66743999999992,
                    "velocity": 0.2755905511811024,
                    "duration": 0.1254599999999968
                },
                {
                    "name": "F3",
                    "midi": 53,
                    "time": 45.918359999999915,
                    "velocity": 0.2755905511811024,
                    "duration": 0.1254599999999968
                },
                {
                    "name": "D4",
                    "midi": 62,
                    "time": 45.918359999999915,
                    "velocity": 0.33070866141732286,
                    "duration": 0.1254599999999968
                },
                {
                    "name": "C#4",
                    "midi": 61,
                    "time": 46.16927999999991,
                    "velocity": 0.3858267716535433,
                    "duration": 0.7527600000000021
                },
                {
                    "name": "A3",
                    "midi": 57,
                    "time": 46.16927999999991,
                    "velocity": 0.3228346456692913,
                    "duration": 0.7527600000000021
                },
                {
                    "name": "F4",
                    "midi": 65,
                    "time": 46.92203999999991,
                    "velocity": 0.3464566929133858,
                    "duration": 0.22582799999999992
                },
                {
                    "name": "D4",
                    "midi": 62,
                    "time": 46.92203999999991,
                    "velocity": 0.29133858267716534,
                    "duration": 0.22582799999999992
                },
                {
                    "name": "F4",
                    "midi": 65,
                    "time": 47.17295999999991,
                    "velocity": 0.41732283464566927,
                    "duration": 0.7527600000000021
                },
                {
                    "name": "D4",
                    "midi": 62,
                    "time": 47.17295999999991,
                    "velocity": 0.3543307086614173,
                    "duration": 0.7527600000000021
                },
                {
                    "name": "A4",
                    "midi": 69,
                    "time": 47.92571999999991,
                    "velocity": 0.3700787401574803,
                    "duration": 0.22582799999999992
                },
                {
                    "name": "F4",
                    "midi": 65,
                    "time": 47.92571999999991,
                    "velocity": 0.30708661417322836,
                    "duration": 0.22582799999999992
                },
                {
                    "name": "A4",
                    "midi": 69,
                    "time": 48.176639999999914,
                    "velocity": 0.4251968503937008,
                    "duration": 0.5018400000000014
                },
                {
                    "name": "F#4",
                    "midi": 66,
                    "time": 48.176639999999914,
                    "velocity": 0.3543307086614173,
                    "duration": 0.5018400000000014
                },
                {
                    "name": "G4",
                    "midi": 67,
                    "time": 48.678479999999915,
                    "velocity": 0.3937007874015748,
                    "duration": 0.1254599999999968
                },
                {
                    "name": "E3",
                    "midi": 52,
                    "time": 49.18031999999991,
                    "velocity": 0.29133858267716534,
                    "duration": 0.5018400000000014
                },
                {
                    "name": "G3",
                    "midi": 55,
                    "time": 49.18031999999991,
                    "velocity": 0.3464566929133858,
                    "duration": 0.5018400000000014
                },
                {
                    "name": "A3",
                    "midi": 57,
                    "time": 49.68215999999991,
                    "velocity": 0.3228346456692913,
                    "duration": 0.1254599999999968
                },
                {
                    "name": "F#3",
                    "midi": 54,
                    "time": 49.68215999999991,
                    "velocity": 0.2677165354330709,
                    "duration": 0.1254599999999968
                },
                {
                    "name": "G3",
                    "midi": 55,
                    "time": 49.933079999999904,
                    "velocity": 0.29133858267716534,
                    "duration": 0.1254599999999968
                },
                {
                    "name": "B3",
                    "midi": 59,
                    "time": 49.933079999999904,
                    "velocity": 0.3464566929133858,
                    "duration": 0.1254599999999968
                },
                {
                    "name": "C4",
                    "midi": 60,
                    "time": 50.1839999999999,
                    "velocity": 0.4251968503937008,
                    "duration": 0.7527600000000021
                },
                {
                    "name": "A3",
                    "midi": 57,
                    "time": 50.1839999999999,
                    "velocity": 0.3543307086614173,
                    "duration": 0.7527600000000021
                },
                {
                    "name": "G3",
                    "midi": 55,
                    "time": 51.1876799999999,
                    "velocity": 0.3464566929133858,
                    "duration": 0.5018400000000014
                },
                {
                    "name": "E4",
                    "midi": 64,
                    "time": 51.1876799999999,
                    "velocity": 0.4094488188976378,
                    "duration": 0.5018400000000014
                },
                {
                    "name": "F#4",
                    "midi": 66,
                    "time": 51.6895199999999,
                    "velocity": 0.36220472440944884,
                    "duration": 0.1254599999999968
                },
                {
                    "name": "A3",
                    "midi": 57,
                    "time": 51.6895199999999,
                    "velocity": 0.30708661417322836,
                    "duration": 0.1254599999999968
                },
                {
                    "name": "B3",
                    "midi": 59,
                    "time": 51.940439999999896,
                    "velocity": 0.3228346456692913,
                    "duration": 0.1254599999999968
                },
                {
                    "name": "G4",
                    "midi": 67,
                    "time": 51.940439999999896,
                    "velocity": 0.3858267716535433,
                    "duration": 0.1254599999999968
                },
                {
                    "name": "C4",
                    "midi": 60,
                    "time": 52.19135999999989,
                    "velocity": 0.4015748031496063,
                    "duration": 0.5018400000000014
                },
                {
                    "name": "A4",
                    "midi": 69,
                    "time": 52.19135999999989,
                    "velocity": 0.47244094488188976,
                    "duration": 0.5018400000000014
                },
                {
                    "name": "D#4",
                    "midi": 63,
                    "time": 52.19135999999989,
                    "velocity": 0.4015748031496063,
                    "duration": 0.5018400000000014
                },
                {
                    "name": "C4",
                    "midi": 60,
                    "time": 52.94411999999989,
                    "velocity": 0.3700787401574803,
                    "duration": 0.22582799999999992
                },
                {
                    "name": "D#4",
                    "midi": 63,
                    "time": 52.94411999999989,
                    "velocity": 0.3700787401574803,
                    "duration": 0.22582799999999992
                },
                {
                    "name": "A4",
                    "midi": 69,
                    "time": 52.94411999999989,
                    "velocity": 0.4409448818897638,
                    "duration": 0.22582799999999992
                },
                {
                    "name": "C#4",
                    "midi": 61,
                    "time": 53.19503999999989,
                    "velocity": 0.4251968503937008,
                    "duration": 0.5018400000000014
                },
                {
                    "name": "A#4",
                    "midi": 70,
                    "time": 53.19503999999989,
                    "velocity": 0.5039370078740157,
                    "duration": 0.5018400000000014
                },
                {
                    "name": "E4",
                    "midi": 64,
                    "time": 53.19503999999989,
                    "velocity": 0.4251968503937008,
                    "duration": 0.5018400000000014
                },
                {
                    "name": "D#3",
                    "midi": 51,
                    "time": 54.95147999999989,
                    "velocity": 0.3937007874015748,
                    "duration": 0.22582799999999992
                },
                {
                    "name": "B2",
                    "midi": 47,
                    "time": 54.95147999999989,
                    "velocity": 0.3937007874015748,
                    "duration": 0.22582799999999992
                },
                {
                    "name": "D#3",
                    "midi": 51,
                    "time": 55.20239999999989,
                    "velocity": 0.4566929133858268,
                    "duration": 0.5018400000000014
                },
                {
                    "name": "B2",
                    "midi": 47,
                    "time": 55.20239999999989,
                    "velocity": 0.4566929133858268,
                    "duration": 0.5018400000000014
                },
                {
                    "name": "C#3",
                    "midi": 49,
                    "time": 55.70423999999989,
                    "velocity": 0.4015748031496063,
                    "duration": 0.1254599999999968
                },
                {
                    "name": "E3",
                    "midi": 52,
                    "time": 55.70423999999989,
                    "velocity": 0.4015748031496063,
                    "duration": 0.1254599999999968
                },
                {
                    "name": "D#3",
                    "midi": 51,
                    "time": 55.955159999999886,
                    "velocity": 0.41732283464566927,
                    "duration": 0.1254599999999968
                },
                {
                    "name": "F#3",
                    "midi": 54,
                    "time": 55.955159999999886,
                    "velocity": 0.41732283464566927,
                    "duration": 0.1254599999999968
                },
                {
                    "name": "E3",
                    "midi": 52,
                    "time": 56.20607999999988,
                    "velocity": 0.48031496062992124,
                    "duration": 0.5018400000000014
                },
                {
                    "name": "G#3",
                    "midi": 56,
                    "time": 56.20607999999988,
                    "velocity": 0.48031496062992124,
                    "duration": 0.48093000000000075
                },
                {
                    "name": "B3",
                    "midi": 59,
                    "time": 56.70791999999988,
                    "velocity": 0.4251968503937008,
                    "duration": 0.1254599999999968
                },
                {
                    "name": "G#3",
                    "midi": 56,
                    "time": 56.70791999999988,
                    "velocity": 0.4251968503937008,
                    "duration": 0.1254599999999968
                },
                {
                    "name": "C#4",
                    "midi": 61,
                    "time": 56.958839999999874,
                    "velocity": 0.4566929133858268,
                    "duration": 0.1254599999999968
                },
                {
                    "name": "A3",
                    "midi": 57,
                    "time": 56.958839999999874,
                    "velocity": 0.4566929133858268,
                    "duration": 0.1254599999999968
                },
                {
                    "name": "D#4",
                    "midi": 63,
                    "time": 57.20975999999987,
                    "velocity": 0.48031496062992124,
                    "duration": 0.5018400000000014
                },
                {
                    "name": "B3",
                    "midi": 59,
                    "time": 57.20975999999987,
                    "velocity": 0.48031496062992124,
                    "duration": 0.5018400000000014
                },
                {
                    "name": "C#4",
                    "midi": 61,
                    "time": 57.71159999999987,
                    "velocity": 0.4645669291338583,
                    "duration": 0.1254599999999968
                },
                {
                    "name": "E4",
                    "midi": 64,
                    "time": 57.71159999999987,
                    "velocity": 0.4645669291338583,
                    "duration": 0.1254599999999968
                },
                {
                    "name": "D#4",
                    "midi": 63,
                    "time": 57.96251999999986,
                    "velocity": 0.48031496062992124,
                    "duration": 0.1254599999999968
                },
                {
                    "name": "F#4",
                    "midi": 66,
                    "time": 57.96251999999986,
                    "velocity": 0.48031496062992124,
                    "duration": 0.1254599999999968
                },
                {
                    "name": "E4",
                    "midi": 64,
                    "time": 58.213439999999856,
                    "velocity": 0.49606299212598426,
                    "duration": 0.5018400000000014
                },
                {
                    "name": "G#4",
                    "midi": 68,
                    "time": 58.213439999999856,
                    "velocity": 0.49606299212598426,
                    "duration": 0.5018400000000014
                },
                {
                    "name": "F#4",
                    "midi": 66,
                    "time": 58.71527999999986,
                    "velocity": 0.48031496062992124,
                    "duration": 0.1254599999999968
                },
                {
                    "name": "A4",
                    "midi": 69,
                    "time": 58.71527999999986,
                    "velocity": 0.48031496062992124,
                    "duration": 0.1254599999999968
                },
                {
                    "name": "G#4",
                    "midi": 68,
                    "time": 58.96619999999985,
                    "velocity": 0.5039370078740157,
                    "duration": 0.1254599999999968
                },
                {
                    "name": "B4",
                    "midi": 71,
                    "time": 58.96619999999985,
                    "velocity": 0.5039370078740157,
                    "duration": 0.1254599999999968
                },
                {
                    "name": "A4",
                    "midi": 69,
                    "time": 59.217119999999845,
                    "velocity": 0.5433070866141733,
                    "duration": 0.2509200000000007
                },
                {
                    "name": "C5",
                    "midi": 72,
                    "time": 59.217119999999845,
                    "velocity": 0.5433070866141733,
                    "duration": 0.2509200000000007
                },
                {
                    "name": "A#4",
                    "midi": 70,
                    "time": 59.468039999999846,
                    "velocity": 0.49606299212598426,
                    "duration": 0.22582799999999992
                },
                {
                    "name": "C#5",
                    "midi": 73,
                    "time": 59.468039999999846,
                    "velocity": 0.49606299212598426,
                    "duration": 0.22582799999999992
                },
                {
                    "name": "A#4",
                    "midi": 70,
                    "time": 59.718959999999846,
                    "velocity": 0.49606299212598426,
                    "duration": 0.7527600000000021
                },
                {
                    "name": "C#5",
                    "midi": 73,
                    "time": 59.718959999999846,
                    "velocity": 0.49606299212598426,
                    "duration": 0.7527600000000021
                },
                {
                    "name": "A4",
                    "midi": 69,
                    "time": 60.47171999999985,
                    "velocity": 0.47244094488188976,
                    "duration": 0.2509200000000007
                },
                {
                    "name": "C5",
                    "midi": 72,
                    "time": 60.47171999999985,
                    "velocity": 0.47244094488188976,
                    "duration": 0.2509200000000007
                },
                {
                    "name": "A4",
                    "midi": 69,
                    "time": 60.72263999999985,
                    "velocity": 0.49606299212598426,
                    "duration": 0.2509200000000007
                },
                {
                    "name": "C5",
                    "midi": 72,
                    "time": 60.72263999999985,
                    "velocity": 0.49606299212598426,
                    "duration": 0.2509200000000007
                },
                {
                    "name": "A#4",
                    "midi": 70,
                    "time": 60.97355999999985,
                    "velocity": 0.44881889763779526,
                    "duration": 0.22582799999999992
                },
                {
                    "name": "C#5",
                    "midi": 73,
                    "time": 60.97355999999985,
                    "velocity": 0.44881889763779526,
                    "duration": 0.22582799999999992
                },
                {
                    "name": "A#4",
                    "midi": 70,
                    "time": 61.22447999999985,
                    "velocity": 0.44881889763779526,
                    "duration": 0.2509200000000007
                },
                {
                    "name": "C#5",
                    "midi": 73,
                    "time": 61.22447999999985,
                    "velocity": 0.44881889763779526,
                    "duration": 0.2509200000000007
                },
                {
                    "name": "B4",
                    "midi": 71,
                    "time": 61.47539999999985,
                    "velocity": 0.44881889763779526,
                    "duration": 0.22582799999999992
                },
                {
                    "name": "D5",
                    "midi": 74,
                    "time": 61.47539999999985,
                    "velocity": 0.44881889763779526,
                    "duration": 0.22582799999999992
                },
                {
                    "name": "B4",
                    "midi": 71,
                    "time": 61.72631999999985,
                    "velocity": 0.49606299212598426,
                    "duration": 0.7527600000000021
                },
                {
                    "name": "D5",
                    "midi": 74,
                    "time": 61.72631999999985,
                    "velocity": 0.49606299212598426,
                    "duration": 0.7527600000000021
                },
                {
                    "name": "A#4",
                    "midi": 70,
                    "time": 62.479079999999854,
                    "velocity": 0.49606299212598426,
                    "duration": 0.2509200000000007
                },
                {
                    "name": "C#5",
                    "midi": 73,
                    "time": 62.479079999999854,
                    "velocity": 0.49606299212598426,
                    "duration": 0.2509200000000007
                },
                {
                    "name": "A#4",
                    "midi": 70,
                    "time": 62.729999999999855,
                    "velocity": 0.5354330708661418,
                    "duration": 0.2509200000000007
                },
                {
                    "name": "C#5",
                    "midi": 73,
                    "time": 62.729999999999855,
                    "velocity": 0.5354330708661418,
                    "duration": 0.2509200000000007
                },
                {
                    "name": "B4",
                    "midi": 71,
                    "time": 62.980919999999855,
                    "velocity": 0.49606299212598426,
                    "duration": 0.22582799999999992
                },
                {
                    "name": "D5",
                    "midi": 74,
                    "time": 62.980919999999855,
                    "velocity": 0.49606299212598426,
                    "duration": 0.22582799999999992
                },
                {
                    "name": "B4",
                    "midi": 71,
                    "time": 63.231839999999856,
                    "velocity": 0.5118110236220472,
                    "duration": 0.2509200000000007
                },
                {
                    "name": "D5",
                    "midi": 74,
                    "time": 63.231839999999856,
                    "velocity": 0.5118110236220472,
                    "duration": 0.2509200000000007
                },
                {
                    "name": "C5",
                    "midi": 72,
                    "time": 63.48275999999986,
                    "velocity": 0.49606299212598426,
                    "duration": 0.22582799999999992
                },
                {
                    "name": "C5",
                    "midi": 72,
                    "time": 63.73367999999986,
                    "velocity": 0.5590551181102362,
                    "duration": 0.7318500000000014
                },
                {
                    "name": "C#5",
                    "midi": 73,
                    "time": 64.48643999999986,
                    "velocity": 0.49606299212598426,
                    "duration": 0.22582800000000702
                },
                {
                    "name": "C#5",
                    "midi": 73,
                    "time": 64.73735999999987,
                    "velocity": 0.5590551181102362,
                    "duration": 0.2509199999999936
                },
                {
                    "name": "A#4",
                    "midi": 70,
                    "time": 64.98827999999986,
                    "velocity": 0.49606299212598426,
                    "duration": 0.22582800000000702
                },
                {
                    "name": "A#4",
                    "midi": 70,
                    "time": 65.23919999999987,
                    "velocity": 0.5275590551181102,
                    "duration": 0.2509199999999936
                },
                {
                    "name": "G4",
                    "midi": 67,
                    "time": 65.49011999999986,
                    "velocity": 0.49606299212598426,
                    "duration": 0.22582800000000702
                },
                {
                    "name": "G4",
                    "midi": 67,
                    "time": 65.74103999999987,
                    "velocity": 0.5748031496062992,
                    "duration": 0.2509199999999936
                },
                {
                    "name": "A#3",
                    "midi": 58,
                    "time": 65.99195999999986,
                    "velocity": 0.5275590551181102,
                    "duration": 0.2509199999999936
                },
                {
                    "name": "B3",
                    "midi": 59,
                    "time": 66.24287999999986,
                    "velocity": 0.5826771653543307,
                    "duration": 0.1254600000000039
                },
                {
                    "name": "B2",
                    "midi": 47,
                    "time": 66.49379999999987,
                    "velocity": 0.5511811023622047,
                    "duration": 0.2509199999999936
                },
                {
                    "name": "C4",
                    "midi": 60,
                    "time": 66.74471999999986,
                    "velocity": 0.5826771653543307,
                    "duration": 0.752759999999995
                },
                {
                    "name": "C3",
                    "midi": 48,
                    "time": 66.74471999999986,
                    "velocity": 0.4881889763779528,
                    "duration": 0.752759999999995
                },
                {
                    "name": "B1",
                    "midi": 35,
                    "time": 67.49747999999985,
                    "velocity": 0.5433070866141733,
                    "duration": 0.2509199999999936
                },
                {
                    "name": "C2",
                    "midi": 36,
                    "time": 67.74839999999985,
                    "velocity": 0.4881889763779528,
                    "duration": 0.5018400000000014
                },
                {
                    "name": "C3",
                    "midi": 48,
                    "time": 67.74839999999985,
                    "velocity": 0.5826771653543307,
                    "duration": 0.5018400000000014
                },
                {
                    "name": "B2",
                    "midi": 47,
                    "time": 68.50115999999984,
                    "velocity": 0.5433070866141733,
                    "duration": 0.2509199999999936
                },
                {
                    "name": "C3",
                    "midi": 48,
                    "time": 68.75207999999984,
                    "velocity": 0.4566929133858268,
                    "duration": 0.5018400000000014
                },
                {
                    "name": "C4",
                    "midi": 60,
                    "time": 68.75207999999984,
                    "velocity": 0.5433070866141733,
                    "duration": 0.5018400000000014
                },
                {
                    "name": "B1",
                    "midi": 35,
                    "time": 69.50483999999983,
                    "velocity": 0.5354330708661418,
                    "duration": 0.2509199999999936
                },
                {
                    "name": "C2",
                    "midi": 36,
                    "time": 69.75575999999982,
                    "velocity": 0.4881889763779528,
                    "duration": 0.5018400000000014
                },
                {
                    "name": "C3",
                    "midi": 48,
                    "time": 69.75575999999982,
                    "velocity": 0.5826771653543307,
                    "duration": 0.5018400000000014
                },
                {
                    "name": "B1",
                    "midi": 35,
                    "time": 70.25759999999983,
                    "velocity": 0.5039370078740157,
                    "duration": 0.1254600000000039
                },
                {
                    "name": "B2",
                    "midi": 47,
                    "time": 70.25759999999983,
                    "velocity": 0.5984251968503937,
                    "duration": 0.1254600000000039
                },
                {
                    "name": "B2",
                    "midi": 47,
                    "time": 70.75943999999983,
                    "velocity": 0.5118110236220472,
                    "duration": 0.1254600000000039
                },
                {
                    "name": "D#3",
                    "midi": 51,
                    "time": 70.75943999999983,
                    "velocity": 0.5118110236220472,
                    "duration": 0.1254600000000039
                },
                {
                    "name": "F#3",
                    "midi": 54,
                    "time": 70.75943999999983,
                    "velocity": 0.5118110236220472,
                    "duration": 0.1254600000000039
                },
                {
                    "name": "B3",
                    "midi": 59,
                    "time": 70.75943999999983,
                    "velocity": 0.6062992125984252,
                    "duration": 0.1254600000000039
                },
                {
                    "name": "C4",
                    "midi": 60,
                    "time": 72.51587999999983,
                    "velocity": 0.5039370078740157,
                    "duration": 0.2509199999999936
                },
                {
                    "name": "E4",
                    "midi": 64,
                    "time": 72.76679999999982,
                    "velocity": 0.5511811023622047,
                    "duration": 0.2509199999999936
                },
                {
                    "name": "E5",
                    "midi": 76,
                    "time": 73.01771999999981,
                    "velocity": 0.49606299212598426,
                    "duration": 0.2509199999999936
                },
                {
                    "name": "B3",
                    "midi": 59,
                    "time": 74.5232399999998,
                    "velocity": 0.2992125984251969,
                    "duration": 0.2509199999999936
                },
                {
                    "name": "D#4",
                    "midi": 63,
                    "time": 74.7741599999998,
                    "velocity": 0.33070866141732286,
                    "duration": 0.2509199999999936
                },
                {
                    "name": "D#5",
                    "midi": 75,
                    "time": 75.02507999999979,
                    "velocity": 0.29133858267716534,
                    "duration": 0.2509199999999936
                },
                {
                    "name": "C4",
                    "midi": 60,
                    "time": 76.53059999999978,
                    "velocity": 0.2047244094488189,
                    "duration": 0.2509199999999936
                },
                {
                    "name": "E4",
                    "midi": 64,
                    "time": 76.78151999999977,
                    "velocity": 0.2204724409448819,
                    "duration": 0.2509199999999936
                },
                {
                    "name": "C4",
                    "midi": 60,
                    "time": 77.03243999999977,
                    "velocity": 0.1732283464566929,
                    "duration": 0.2509199999999936
                },
                {
                    "name": "E4",
                    "midi": 64,
                    "time": 77.28335999999976,
                    "velocity": 0.2204724409448819,
                    "duration": 0.2509199999999936
                },
                {
                    "name": "C4",
                    "midi": 60,
                    "time": 77.53427999999975,
                    "velocity": 0.1889763779527559,
                    "duration": 0.2509199999999936
                },
                {
                    "name": "E4",
                    "midi": 64,
                    "time": 77.78519999999975,
                    "velocity": 0.1889763779527559,
                    "duration": 0.2509199999999936
                },
                {
                    "name": "A4",
                    "midi": 69,
                    "time": 78.03611999999974,
                    "velocity": 0.15748031496062992,
                    "duration": 0.2509199999999936
                },
                {
                    "name": "D4",
                    "midi": 62,
                    "time": 78.53795999999973,
                    "velocity": 0.18110236220472442,
                    "duration": 0.2509199999999936
                },
                {
                    "name": "F4",
                    "midi": 65,
                    "time": 78.78887999999972,
                    "velocity": 0.2125984251968504,
                    "duration": 0.2509199999999936
                },
                {
                    "name": "D4",
                    "midi": 62,
                    "time": 79.03979999999972,
                    "velocity": 0.1732283464566929,
                    "duration": 0.2509199999999936
                },
                {
                    "name": "F4",
                    "midi": 65,
                    "time": 79.29071999999971,
                    "velocity": 0.2125984251968504,
                    "duration": 0.2509199999999936
                },
                {
                    "name": "D4",
                    "midi": 62,
                    "time": 79.5416399999997,
                    "velocity": 0.1889763779527559,
                    "duration": 0.2509199999999936
                },
                {
                    "name": "F4",
                    "midi": 65,
                    "time": 79.7925599999997,
                    "velocity": 0.1889763779527559,
                    "duration": 0.2509199999999936
                },
                {
                    "name": "A4",
                    "midi": 69,
                    "time": 80.04347999999969,
                    "velocity": 0.15748031496062992,
                    "duration": 0.2509199999999936
                },
                {
                    "name": "E3",
                    "midi": 52,
                    "time": 80.54531999999968,
                    "velocity": 0.1889763779527559,
                    "duration": 0.2509199999999936
                },
                {
                    "name": "G#3",
                    "midi": 56,
                    "time": 80.79623999999967,
                    "velocity": 0.2125984251968504,
                    "duration": 0.2509199999999936
                },
                {
                    "name": "E3",
                    "midi": 52,
                    "time": 81.04715999999966,
                    "velocity": 0.1889763779527559,
                    "duration": 0.2509199999999936
                },
                {
                    "name": "G#3",
                    "midi": 56,
                    "time": 81.29807999999966,
                    "velocity": 0.2125984251968504,
                    "duration": 0.2509199999999936
                },
                {
                    "name": "E3",
                    "midi": 52,
                    "time": 81.54899999999965,
                    "velocity": 0.18110236220472442,
                    "duration": 0.2509199999999936
                },
                {
                    "name": "G#3",
                    "midi": 56,
                    "time": 81.79991999999964,
                    "velocity": 0.18110236220472442,
                    "duration": 0.2509199999999936
                },
                {
                    "name": "D4",
                    "midi": 62,
                    "time": 82.05083999999964,
                    "velocity": 0.14960629921259844,
                    "duration": 0.2509199999999936
                },
                {
                    "name": "A3",
                    "midi": 57,
                    "time": 82.55267999999963,
                    "velocity": 0.18110236220472442,
                    "duration": 0.2509199999999936
                },
                {
                    "name": "E4",
                    "midi": 64,
                    "time": 82.80359999999962,
                    "velocity": 0.2125984251968504,
                    "duration": 0.2509199999999936
                },
                {
                    "name": "A3",
                    "midi": 57,
                    "time": 83.05451999999961,
                    "velocity": 0.1889763779527559,
                    "duration": 0.2509199999999936
                },
                {
                    "name": "E4",
                    "midi": 64,
                    "time": 83.3054399999996,
                    "velocity": 0.2125984251968504,
                    "duration": 0.2509199999999936
                },
                {
                    "name": "A3",
                    "midi": 57,
                    "time": 83.5563599999996,
                    "velocity": 0.1732283464566929,
                    "duration": 0.2509199999999936
                },
                {
                    "name": "E4",
                    "midi": 64,
                    "time": 83.8072799999996,
                    "velocity": 0.1732283464566929,
                    "duration": 0.2509199999999936
                },
                {
                    "name": "A4",
                    "midi": 69,
                    "time": 84.05819999999959,
                    "velocity": 0.15748031496062992,
                    "duration": 0.2509199999999936
                },
                {
                    "name": "A2",
                    "midi": 45,
                    "time": 84.56003999999957,
                    "velocity": 0.2283464566929134,
                    "duration": 0.2509199999999936
                },
                {
                    "name": "E3",
                    "midi": 52,
                    "time": 84.81095999999957,
                    "velocity": 0.25196850393700787,
                    "duration": 0.2509199999999936
                },
                {
                    "name": "A2",
                    "midi": 45,
                    "time": 85.06187999999956,
                    "velocity": 0.2204724409448819,
                    "duration": 0.2509199999999936
                },
                {
                    "name": "E3",
                    "midi": 52,
                    "time": 85.31279999999956,
                    "velocity": 0.25196850393700787,
                    "duration": 0.2509199999999936
                },
                {
                    "name": "A2",
                    "midi": 45,
                    "time": 85.56371999999955,
                    "velocity": 0.2125984251968504,
                    "duration": 0.2509199999999936
                },
                {
                    "name": "E3",
                    "midi": 52,
                    "time": 85.81463999999954,
                    "velocity": 0.2125984251968504,
                    "duration": 0.2509199999999936
                },
                {
                    "name": "F#3",
                    "midi": 54,
                    "time": 86.06555999999954,
                    "velocity": 0.2125984251968504,
                    "duration": 0.2509199999999936
                },
                {
                    "name": "G2",
                    "midi": 43,
                    "time": 86.56739999999952,
                    "velocity": 0.2047244094488189,
                    "duration": 0.2509199999999936
                },
                {
                    "name": "E3",
                    "midi": 52,
                    "time": 86.81831999999952,
                    "velocity": 0.2440944881889764,
                    "duration": 0.2509199999999936
                },
                {
                    "name": "G3",
                    "midi": 55,
                    "time": 87.06923999999951,
                    "velocity": 0.2125984251968504,
                    "duration": 0.2509199999999936
                },
                {
                    "name": "C4",
                    "midi": 60,
                    "time": 87.3201599999995,
                    "velocity": 0.30708661417322836,
                    "duration": 0.2509199999999936
                },
                {
                    "name": "G3",
                    "midi": 55,
                    "time": 87.5710799999995,
                    "velocity": 0.2677165354330709,
                    "duration": 0.2509199999999936
                },
                {
                    "name": "E3",
                    "midi": 52,
                    "time": 87.82199999999949,
                    "velocity": 0.29133858267716534,
                    "duration": 0.2509199999999936
                },
                {
                    "name": "C3",
                    "midi": 48,
                    "time": 88.07291999999948,
                    "velocity": 0.31496062992125984,
                    "duration": 0.2509199999999936
                },
                {
                    "name": "F#2",
                    "midi": 42,
                    "time": 88.32383999999948,
                    "velocity": 0.3464566929133858,
                    "duration": 0.2509199999999936
                },
                {
                    "name": "B2",
                    "midi": 47,
                    "time": 88.57475999999947,
                    "velocity": 0.2992125984251969,
                    "duration": 0.2509199999999936
                },
                {
                    "name": "E3",
                    "midi": 52,
                    "time": 88.82567999999947,
                    "velocity": 0.2992125984251969,
                    "duration": 0.2509199999999936
                },
                {
                    "name": "G3",
                    "midi": 55,
                    "time": 89.07659999999946,
                    "velocity": 0.2992125984251969,
                    "duration": 0.2509199999999936
                },
                {
                    "name": "E2",
                    "midi": 40,
                    "time": 89.32751999999945,
                    "velocity": 0.4015748031496063,
                    "duration": 0.2509199999999936
                },
                {
                    "name": "B2",
                    "midi": 47,
                    "time": 89.57843999999945,
                    "velocity": 0.31496062992125984,
                    "duration": 0.2509199999999936
                },
                {
                    "name": "E3",
                    "midi": 52,
                    "time": 89.82935999999944,
                    "velocity": 0.33070866141732286,
                    "duration": 0.2509199999999936
                },
                {
                    "name": "G3",
                    "midi": 55,
                    "time": 90.08027999999943,
                    "velocity": 0.33070866141732286,
                    "duration": 0.2509199999999936
                },
                {
                    "name": "B1",
                    "midi": 35,
                    "time": 90.33119999999943,
                    "velocity": 0.44881889763779526,
                    "duration": 0.2509199999999936
                },
                {
                    "name": "B2",
                    "midi": 47,
                    "time": 90.58211999999942,
                    "velocity": 0.3464566929133858,
                    "duration": 0.2509199999999936
                },
                {
                    "name": "D3",
                    "midi": 50,
                    "time": 90.83303999999941,
                    "velocity": 0.3464566929133858,
                    "duration": 0.2509199999999936
                },
                {
                    "name": "G3",
                    "midi": 55,
                    "time": 91.08395999999941,
                    "velocity": 0.3464566929133858,
                    "duration": 0.2509199999999936
                },
                {
                    "name": "G4",
                    "midi": 67,
                    "time": 91.3348799999994,
                    "velocity": 0.41732283464566927,
                    "duration": 0.2509199999999936
                },
                {
                    "name": "D4",
                    "midi": 62,
                    "time": 91.5857999999994,
                    "velocity": 0.3464566929133858,
                    "duration": 0.2509199999999936
                },
                {
                    "name": "B3",
                    "midi": 59,
                    "time": 91.83671999999939,
                    "velocity": 0.3464566929133858,
                    "duration": 0.2509199999999936
                },
                {
                    "name": "G3",
                    "midi": 55,
                    "time": 92.08763999999938,
                    "velocity": 0.3464566929133858,
                    "duration": 0.2509199999999936
                },
                {
                    "name": "B2",
                    "midi": 47,
                    "time": 92.33855999999938,
                    "velocity": 0.41732283464566927,
                    "duration": 0.2509199999999936
                },
                {
                    "name": "D3",
                    "midi": 50,
                    "time": 92.58947999999937,
                    "velocity": 0.33070866141732286,
                    "duration": 0.2509199999999936
                },
                {
                    "name": "G3",
                    "midi": 55,
                    "time": 92.84039999999936,
                    "velocity": 0.3464566929133858,
                    "duration": 0.2509199999999936
                },
                {
                    "name": "D4",
                    "midi": 62,
                    "time": 93.09131999999936,
                    "velocity": 0.3228346456692913,
                    "duration": 0.2509199999999936
                },
                {
                    "name": "D#3",
                    "midi": 51,
                    "time": 93.59315999999934,
                    "velocity": 0.30708661417322836,
                    "duration": 0.2509199999999936
                },
                {
                    "name": "A3",
                    "midi": 57,
                    "time": 93.84407999999934,
                    "velocity": 0.33070866141732286,
                    "duration": 0.2509199999999936
                },
                {
                    "name": "C4",
                    "midi": 60,
                    "time": 94.09499999999933,
                    "velocity": 0.30708661417322836,
                    "duration": 0.2509199999999936
                },
                {
                    "name": "E3",
                    "midi": 52,
                    "time": 94.59683999999932,
                    "velocity": 0.30708661417322836,
                    "duration": 0.2509199999999936
                },
                {
                    "name": "G3",
                    "midi": 55,
                    "time": 94.84775999999931,
                    "velocity": 0.33070866141732286,
                    "duration": 0.2509199999999936
                },
                {
                    "name": "C4",
                    "midi": 60,
                    "time": 95.0986799999993,
                    "velocity": 0.30708661417322836,
                    "duration": 0.2509199999999936
                },
                {
                    "name": "F3",
                    "midi": 53,
                    "time": 95.60051999999929,
                    "velocity": 0.25196850393700787,
                    "duration": 0.2509199999999936
                },
                {
                    "name": "A3",
                    "midi": 57,
                    "time": 95.85143999999929,
                    "velocity": 0.29133858267716534,
                    "duration": 0.2509199999999936
                },
                {
                    "name": "C4",
                    "midi": 60,
                    "time": 96.10235999999928,
                    "velocity": 0.25196850393700787,
                    "duration": 0.2509199999999936
                },
                {
                    "name": "G3",
                    "midi": 55,
                    "time": 96.60419999999927,
                    "velocity": 0.25984251968503935,
                    "duration": 0.2509199999999936
                },
                {
                    "name": "C4",
                    "midi": 60,
                    "time": 96.85511999999926,
                    "velocity": 0.29133858267716534,
                    "duration": 0.2509199999999936
                },
                {
                    "name": "E4",
                    "midi": 64,
                    "time": 97.10603999999925,
                    "velocity": 0.2677165354330709,
                    "duration": 0.2509199999999936
                },
                {
                    "name": "G#3",
                    "midi": 56,
                    "time": 97.35695999999925,
                    "velocity": 0.3464566929133858,
                    "duration": 1.0036799999999744
                },
                {
                    "name": "D4",
                    "midi": 62,
                    "time": 97.60787999999924,
                    "velocity": 0.2677165354330709,
                    "duration": 0.2509199999999936
                },
                {
                    "name": "F4",
                    "midi": 65,
                    "time": 97.85879999999923,
                    "velocity": 0.2677165354330709,
                    "duration": 0.2509199999999936
                },
                {
                    "name": "G#4",
                    "midi": 68,
                    "time": 98.10971999999923,
                    "velocity": 0.2677165354330709,
                    "duration": 0.2509199999999936
                },
                {
                    "name": "A3",
                    "midi": 57,
                    "time": 98.36063999999922,
                    "velocity": 0.3464566929133858,
                    "duration": 1.0036799999999744
                },
                {
                    "name": "C4",
                    "midi": 60,
                    "time": 98.61155999999922,
                    "velocity": 0.23622047244094488,
                    "duration": 0.2509199999999936
                },
                {
                    "name": "F4",
                    "midi": 65,
                    "time": 98.86247999999921,
                    "velocity": 0.2677165354330709,
                    "duration": 0.2509199999999936
                },
                {
                    "name": "A4",
                    "midi": 69,
                    "time": 99.1133999999992,
                    "velocity": 0.2283464566929134,
                    "duration": 0.2509199999999936
                },
                {
                    "name": "B3",
                    "midi": 59,
                    "time": 99.3643199999992,
                    "velocity": 0.25196850393700787,
                    "duration": 1.0036799999999744
                },
                {
                    "name": "D#4",
                    "midi": 63,
                    "time": 99.61523999999919,
                    "velocity": 0.2047244094488189,
                    "duration": 0.2509199999999936
                },
                {
                    "name": "F#4",
                    "midi": 66,
                    "time": 99.86615999999918,
                    "velocity": 0.2283464566929134,
                    "duration": 0.2509199999999936
                },
                {
                    "name": "B4",
                    "midi": 71,
                    "time": 100.11707999999918,
                    "velocity": 0.2047244094488189,
                    "duration": 0.2509199999999936
                },
                {
                    "name": "E4",
                    "midi": 64,
                    "time": 100.36799999999917,
                    "velocity": 0.2204724409448819,
                    "duration": 0.2509199999999936
                },
                {
                    "name": "E3",
                    "midi": 52,
                    "time": 100.61891999999916,
                    "velocity": 0.15748031496062992,
                    "duration": 0.2509199999999936
                },
                {
                    "name": "E4",
                    "midi": 64,
                    "time": 100.86983999999916,
                    "velocity": 0.15748031496062992,
                    "duration": 0.2509199999999936
                },
                {
                    "name": "E3",
                    "midi": 52,
                    "time": 101.12075999999915,
                    "velocity": 0.15748031496062992,
                    "duration": 0.2509199999999936
                },
                {
                    "name": "D4",
                    "midi": 62,
                    "time": 101.37167999999915,
                    "velocity": 0.2204724409448819,
                    "duration": 0.2509199999999936
                },
                {
                    "name": "B3",
                    "midi": 59,
                    "time": 101.37167999999915,
                    "velocity": 0.1889763779527559,
                    "duration": 0.2509199999999936
                },
                {
                    "name": "E3",
                    "midi": 52,
                    "time": 101.62259999999914,
                    "velocity": 0.16535433070866143,
                    "duration": 0.2509199999999936
                },
                {
                    "name": "E4",
                    "midi": 64,
                    "time": 101.87351999999913,
                    "velocity": 0.16535433070866143,
                    "duration": 0.2509199999999936
                },
                {
                    "name": "C4",
                    "midi": 60,
                    "time": 101.87351999999913,
                    "velocity": 0.14173228346456693,
                    "duration": 0.2509199999999936
                },
                {
                    "name": "E3",
                    "midi": 52,
                    "time": 102.12443999999913,
                    "velocity": 0.16535433070866143,
                    "duration": 0.2509199999999936
                },
                {
                    "name": "F4",
                    "midi": 65,
                    "time": 102.37535999999912,
                    "velocity": 0.2204724409448819,
                    "duration": 0.2509199999999936
                },
                {
                    "name": "D4",
                    "midi": 62,
                    "time": 102.37535999999912,
                    "velocity": 0.1889763779527559,
                    "duration": 0.2509199999999936
                },
                {
                    "name": "E3",
                    "midi": 52,
                    "time": 102.62627999999911,
                    "velocity": 0.15748031496062992,
                    "duration": 0.2509199999999936
                },
                {
                    "name": "D4",
                    "midi": 62,
                    "time": 102.8771999999991,
                    "velocity": 0.15748031496062992,
                    "duration": 0.2509199999999936
                },
                {
                    "name": "B3",
                    "midi": 59,
                    "time": 102.8771999999991,
                    "velocity": 0.13385826771653545,
                    "duration": 0.2509199999999936
                },
                {
                    "name": "E3",
                    "midi": 52,
                    "time": 103.1281199999991,
                    "velocity": 0.15748031496062992,
                    "duration": 0.2509199999999936
                },
                {
                    "name": "G#3",
                    "midi": 56,
                    "time": 103.3790399999991,
                    "velocity": 0.18110236220472442,
                    "duration": 0.2509199999999936
                },
                {
                    "name": "B3",
                    "midi": 59,
                    "time": 103.3790399999991,
                    "velocity": 0.2125984251968504,
                    "duration": 0.2509199999999936
                },
                {
                    "name": "E3",
                    "midi": 52,
                    "time": 103.62995999999909,
                    "velocity": 0.16535433070866143,
                    "duration": 0.2509199999999936
                },
                {
                    "name": "C4",
                    "midi": 60,
                    "time": 103.88087999999908,
                    "velocity": 0.16535433070866143,
                    "duration": 0.2509199999999936
                },
                {
                    "name": "A3",
                    "midi": 57,
                    "time": 103.88087999999908,
                    "velocity": 0.14173228346456693,
                    "duration": 0.2509199999999936
                },
                {
                    "name": "E3",
                    "midi": 52,
                    "time": 104.13179999999907,
                    "velocity": 0.16535433070866143,
                    "duration": 0.2509199999999936
                },
                {
                    "name": "B3",
                    "midi": 59,
                    "time": 104.38271999999907,
                    "velocity": 0.1889763779527559,
                    "duration": 0.2509199999999936
                },
                {
                    "name": "D4",
                    "midi": 62,
                    "time": 104.38271999999907,
                    "velocity": 0.2204724409448819,
                    "duration": 0.2509199999999936
                },
                {
                    "name": "E3",
                    "midi": 52,
                    "time": 104.63363999999906,
                    "velocity": 0.15748031496062992,
                    "duration": 0.2509199999999936
                },
                {
                    "name": "A3",
                    "midi": 57,
                    "time": 104.88455999999906,
                    "velocity": 0.1889763779527559,
                    "duration": 0.2509199999999936
                },
                {
                    "name": "C4",
                    "midi": 60,
                    "time": 104.88455999999906,
                    "velocity": 0.15748031496062992,
                    "duration": 0.2509199999999936
                },
                {
                    "name": "E3",
                    "midi": 52,
                    "time": 105.13547999999905,
                    "velocity": 0.15748031496062992,
                    "duration": 0.2509199999999936
                },
                {
                    "name": "B3",
                    "midi": 59,
                    "time": 105.38639999999904,
                    "velocity": 0.2204724409448819,
                    "duration": 0.2509199999999936
                },
                {
                    "name": "G3",
                    "midi": 55,
                    "time": 105.38639999999904,
                    "velocity": 0.1889763779527559,
                    "duration": 0.2509199999999936
                },
                {
                    "name": "E3",
                    "midi": 52,
                    "time": 105.63731999999904,
                    "velocity": 0.16535433070866143,
                    "duration": 0.2509199999999936
                },
                {
                    "name": "A3",
                    "midi": 57,
                    "time": 105.88823999999903,
                    "velocity": 0.16535433070866143,
                    "duration": 0.2509199999999936
                },
                {
                    "name": "F3",
                    "midi": 53,
                    "time": 105.88823999999903,
                    "velocity": 0.14173228346456693,
                    "duration": 0.2509199999999936
                },
                {
                    "name": "E3",
                    "midi": 52,
                    "time": 106.13915999999902,
                    "velocity": 0.16535433070866143,
                    "duration": 0.2509199999999936
                },
                {
                    "name": "G#3",
                    "midi": 56,
                    "time": 106.39007999999902,
                    "velocity": 0.2204724409448819,
                    "duration": 0.2509199999999936
                },
                {
                    "name": "E3",
                    "midi": 52,
                    "time": 106.64099999999901,
                    "velocity": 0.15748031496062992,
                    "duration": 0.2509199999999936
                },
                {
                    "name": "A3",
                    "midi": 57,
                    "time": 106.891919999999,
                    "velocity": 0.15748031496062992,
                    "duration": 0.2509199999999936
                },
                {
                    "name": "F#3",
                    "midi": 54,
                    "time": 106.891919999999,
                    "velocity": 0.13385826771653545,
                    "duration": 0.2509199999999936
                },
                {
                    "name": "E3",
                    "midi": 52,
                    "time": 107.142839999999,
                    "velocity": 0.15748031496062992,
                    "duration": 0.2509199999999936
                },
                {
                    "name": "G#3",
                    "midi": 56,
                    "time": 107.39375999999899,
                    "velocity": 0.18110236220472442,
                    "duration": 0.2509199999999936
                },
                {
                    "name": "B3",
                    "midi": 59,
                    "time": 107.39375999999899,
                    "velocity": 0.2125984251968504,
                    "duration": 0.2509199999999936
                },
                {
                    "name": "E3",
                    "midi": 52,
                    "time": 107.64467999999898,
                    "velocity": 0.16535433070866143,
                    "duration": 0.2509199999999936
                },
                {
                    "name": "G#3",
                    "midi": 56,
                    "time": 107.89559999999898,
                    "velocity": 0.16535433070866143,
                    "duration": 0.2509199999999936
                },
                {
                    "name": "E3",
                    "midi": 52,
                    "time": 108.14651999999897,
                    "velocity": 0.16535433070866143,
                    "duration": 0.2509199999999936
                },
                {
                    "name": "C4",
                    "midi": 60,
                    "time": 108.39743999999897,
                    "velocity": 0.1889763779527559,
                    "duration": 0.2509199999999936
                },
                {
                    "name": "E4",
                    "midi": 64,
                    "time": 108.39743999999897,
                    "velocity": 0.2204724409448819,
                    "duration": 0.2509199999999936
                },
                {
                    "name": "E3",
                    "midi": 52,
                    "time": 108.64835999999896,
                    "velocity": 0.15748031496062992,
                    "duration": 0.2509199999999936
                },
                {
                    "name": "C4",
                    "midi": 60,
                    "time": 108.89927999999895,
                    "velocity": 0.1889763779527559,
                    "duration": 0.2509199999999936
                },
                {
                    "name": "E4",
                    "midi": 64,
                    "time": 108.89927999999895,
                    "velocity": 0.15748031496062992,
                    "duration": 0.2509199999999936
                },
                {
                    "name": "E3",
                    "midi": 52,
                    "time": 109.15019999999895,
                    "velocity": 0.15748031496062992,
                    "duration": 0.2509199999999936
                },
                {
                    "name": "D4",
                    "midi": 62,
                    "time": 109.40111999999894,
                    "velocity": 0.2204724409448819,
                    "duration": 0.2509199999999936
                },
                {
                    "name": "B3",
                    "midi": 59,
                    "time": 109.40111999999894,
                    "velocity": 0.1889763779527559,
                    "duration": 0.2509199999999936
                },
                {
                    "name": "E3",
                    "midi": 52,
                    "time": 109.65203999999893,
                    "velocity": 0.16535433070866143,
                    "duration": 0.2509199999999936
                },
                {
                    "name": "E4",
                    "midi": 64,
                    "time": 109.90295999999893,
                    "velocity": 0.1732283464566929,
                    "duration": 0.2509199999999936
                },
                {
                    "name": "C4",
                    "midi": 60,
                    "time": 109.90295999999893,
                    "velocity": 0.14173228346456693,
                    "duration": 0.2509199999999936
                },
                {
                    "name": "E3",
                    "midi": 52,
                    "time": 110.15387999999892,
                    "velocity": 0.1732283464566929,
                    "duration": 0.2509199999999936
                },
                {
                    "name": "G4",
                    "midi": 67,
                    "time": 110.40479999999891,
                    "velocity": 0.2440944881889764,
                    "duration": 0.2509199999999936
                },
                {
                    "name": "E4",
                    "midi": 64,
                    "time": 110.40479999999891,
                    "velocity": 0.2047244094488189,
                    "duration": 0.2509199999999936
                },
                {
                    "name": "E3",
                    "midi": 52,
                    "time": 110.65571999999891,
                    "velocity": 0.1732283464566929,
                    "duration": 0.2509199999999936
                },
                {
                    "name": "F4",
                    "midi": 65,
                    "time": 110.9066399999989,
                    "velocity": 0.1732283464566929,
                    "duration": 0.2509199999999936
                },
                {
                    "name": "D4",
                    "midi": 62,
                    "time": 110.9066399999989,
                    "velocity": 0.14173228346456693,
                    "duration": 0.2509199999999936
                },
                {
                    "name": "E3",
                    "midi": 52,
                    "time": 111.1575599999989,
                    "velocity": 0.1732283464566929,
                    "duration": 0.2509199999999936
                },
                {
                    "name": "B3",
                    "midi": 59,
                    "time": 111.40847999999889,
                    "velocity": 0.1968503937007874,
                    "duration": 0.2509199999999936
                },
                {
                    "name": "D4",
                    "midi": 62,
                    "time": 111.40847999999889,
                    "velocity": 0.23622047244094488,
                    "duration": 0.2509199999999936
                },
                {
                    "name": "E3",
                    "midi": 52,
                    "time": 111.65939999999888,
                    "velocity": 0.18110236220472442,
                    "duration": 0.2509199999999936
                },
                {
                    "name": "F4",
                    "midi": 65,
                    "time": 111.91031999999888,
                    "velocity": 0.18110236220472442,
                    "duration": 0.2509199999999936
                },
                {
                    "name": "D4",
                    "midi": 62,
                    "time": 111.91031999999888,
                    "velocity": 0.14960629921259844,
                    "duration": 0.2509199999999936
                },
                {
                    "name": "E3",
                    "midi": 52,
                    "time": 112.16123999999887,
                    "velocity": 0.18110236220472442,
                    "duration": 0.2509199999999936
                },
                {
                    "name": "C4",
                    "midi": 60,
                    "time": 112.41215999999886,
                    "velocity": 0.2047244094488189,
                    "duration": 0.2509199999999936
                },
                {
                    "name": "E4",
                    "midi": 64,
                    "time": 112.41215999999886,
                    "velocity": 0.2440944881889764,
                    "duration": 0.2509199999999936
                },
                {
                    "name": "E3",
                    "midi": 52,
                    "time": 112.66307999999886,
                    "velocity": 0.1732283464566929,
                    "duration": 0.2509199999999936
                },
                {
                    "name": "A3",
                    "midi": 57,
                    "time": 112.91399999999885,
                    "velocity": 0.2047244094488189,
                    "duration": 0.2509199999999936
                },
                {
                    "name": "C4",
                    "midi": 60,
                    "time": 112.91399999999885,
                    "velocity": 0.16535433070866143,
                    "duration": 0.2509199999999936
                },
                {
                    "name": "E3",
                    "midi": 52,
                    "time": 113.16491999999884,
                    "velocity": 0.16535433070866143,
                    "duration": 0.2509199999999936
                },
                {
                    "name": "D4",
                    "midi": 62,
                    "time": 113.41583999999884,
                    "velocity": 0.2283464566929134,
                    "duration": 0.2509199999999936
                },
                {
                    "name": "B3",
                    "midi": 59,
                    "time": 113.41583999999884,
                    "velocity": 0.1968503937007874,
                    "duration": 0.2509199999999936
                },
                {
                    "name": "E3",
                    "midi": 52,
                    "time": 113.66675999999883,
                    "velocity": 0.16535433070866143,
                    "duration": 0.2509199999999936
                },
                {
                    "name": "B3",
                    "midi": 59,
                    "time": 113.91767999999882,
                    "velocity": 0.16535433070866143,
                    "duration": 0.2509199999999936
                },
                {
                    "name": "G#3",
                    "midi": 56,
                    "time": 113.91767999999882,
                    "velocity": 0.14173228346456693,
                    "duration": 0.2509199999999936
                },
                {
                    "name": "E3",
                    "midi": 52,
                    "time": 114.16859999999882,
                    "velocity": 0.16535433070866143,
                    "duration": 0.2509199999999936
                },
                {
                    "name": "A3",
                    "midi": 57,
                    "time": 114.41951999999881,
                    "velocity": 0.1889763779527559,
                    "duration": 0.2509199999999936
                },
                {
                    "name": "C4",
                    "midi": 60,
                    "time": 114.41951999999881,
                    "velocity": 0.2204724409448819,
                    "duration": 0.2509199999999936
                },
                {
                    "name": "E3",
                    "midi": 52,
                    "time": 114.6704399999988,
                    "velocity": 0.15748031496062992,
                    "duration": 0.2509199999999936
                },
                {
                    "name": "A3",
                    "midi": 57,
                    "time": 114.9213599999988,
                    "velocity": 0.15748031496062992,
                    "duration": 0.2509199999999936
                },
                {
                    "name": "F#3",
                    "midi": 54,
                    "time": 114.9213599999988,
                    "velocity": 0.13385826771653545,
                    "duration": 0.2509199999999936
                },
                {
                    "name": "E3",
                    "midi": 52,
                    "time": 115.17227999999879,
                    "velocity": 0.15748031496062992,
                    "duration": 0.2509199999999936
                },
                {
                    "name": "G#3",
                    "midi": 56,
                    "time": 115.42319999999879,
                    "velocity": 0.18110236220472442,
                    "duration": 0.2509199999999936
                },
                {
                    "name": "B3",
                    "midi": 59,
                    "time": 115.42319999999879,
                    "velocity": 0.2125984251968504,
                    "duration": 0.2509199999999936
                },
                {
                    "name": "E3",
                    "midi": 52,
                    "time": 115.67411999999878,
                    "velocity": 0.16535433070866143,
                    "duration": 0.2509199999999936
                },
                {
                    "name": "G#3",
                    "midi": 56,
                    "time": 115.92503999999877,
                    "velocity": 0.16535433070866143,
                    "duration": 0.2509199999999936
                },
                {
                    "name": "E3",
                    "midi": 52,
                    "time": 116.17595999999877,
                    "velocity": 0.16535433070866143,
                    "duration": 0.2509199999999936
                },
                {
                    "name": "C4",
                    "midi": 60,
                    "time": 116.42687999999876,
                    "velocity": 0.2283464566929134,
                    "duration": 0.2509199999999936
                },
                {
                    "name": "A3",
                    "midi": 57,
                    "time": 116.67779999999875,
                    "velocity": 0.16535433070866143,
                    "duration": 0.2509199999999936
                },
                {
                    "name": "E3",
                    "midi": 52,
                    "time": 116.92871999999875,
                    "velocity": 0.1889763779527559,
                    "duration": 0.2509199999999936
                },
                {
                    "name": "C3",
                    "midi": 48,
                    "time": 117.17963999999874,
                    "velocity": 0.16535433070866143,
                    "duration": 0.2509199999999936
                },
                {
                    "name": "C4",
                    "midi": 60,
                    "time": 117.43055999999874,
                    "velocity": 0.2283464566929134,
                    "duration": 0.2509199999999936
                },
                {
                    "name": "A3",
                    "midi": 57,
                    "time": 117.68147999999873,
                    "velocity": 0.1732283464566929,
                    "duration": 0.2509199999999936
                },
                {
                    "name": "E3",
                    "midi": 52,
                    "time": 117.93239999999872,
                    "velocity": 0.1889763779527559,
                    "duration": 0.2509199999999936
                },
                {
                    "name": "C3",
                    "midi": 48,
                    "time": 118.18331999999872,
                    "velocity": 0.15748031496062992,
                    "duration": 0.2509199999999936
                },
                {
                    "name": "D4",
                    "midi": 62,
                    "time": 118.43423999999871,
                    "velocity": 0.2283464566929134,
                    "duration": 0.2509199999999936
                },
                {
                    "name": "A3",
                    "midi": 57,
                    "time": 118.6851599999987,
                    "velocity": 0.15748031496062992,
                    "duration": 0.2509199999999936
                },
                {
                    "name": "F3",
                    "midi": 53,
                    "time": 118.9360799999987,
                    "velocity": 0.1889763779527559,
                    "duration": 0.2509199999999936
                },
                {
                    "name": "D3",
                    "midi": 50,
                    "time": 119.18699999999869,
                    "velocity": 0.16535433070866143,
                    "duration": 0.2509199999999936
                },
                {
                    "name": "D4",
                    "midi": 62,
                    "time": 119.43791999999868,
                    "velocity": 0.2283464566929134,
                    "duration": 0.2509199999999936
                },
                {
                    "name": "A3",
                    "midi": 57,
                    "time": 119.68883999999868,
                    "velocity": 0.1889763779527559,
                    "duration": 0.2509199999999936
                },
                {
                    "name": "F3",
                    "midi": 53,
                    "time": 119.93975999999867,
                    "velocity": 0.1889763779527559,
                    "duration": 0.2509199999999936
                },
                {
                    "name": "D3",
                    "midi": 50,
                    "time": 120.17604299999867,
                    "velocity": 0.18110236220472442,
                    "duration": 0.2509199999999936
                },
                {
                    "name": "D4",
                    "midi": 62,
                    "time": 120.44159999999866,
                    "velocity": 0.2283464566929134,
                    "duration": 0.2509199999999936
                },
                {
                    "name": "B3",
                    "midi": 59,
                    "time": 120.69251999999865,
                    "velocity": 0.16535433070866143,
                    "duration": 0.2509199999999936
                },
                {
                    "name": "A3",
                    "midi": 57,
                    "time": 120.94343999999865,
                    "velocity": 0.1889763779527559,
                    "duration": 0.2509199999999936
                },
                {
                    "name": "E3",
                    "midi": 52,
                    "time": 121.19435999999864,
                    "velocity": 0.1732283464566929,
                    "duration": 0.2509199999999936
                },
                {
                    "name": "D4",
                    "midi": 62,
                    "time": 121.44527999999863,
                    "velocity": 0.23622047244094488,
                    "duration": 0.2509199999999936
                },
                {
                    "name": "B3",
                    "midi": 59,
                    "time": 121.69619999999863,
                    "velocity": 0.1732283464566929,
                    "duration": 0.2509199999999936
                },
                {
                    "name": "G#3",
                    "midi": 56,
                    "time": 121.94711999999862,
                    "velocity": 0.1968503937007874,
                    "duration": 0.2509199999999936
                },
                {
                    "name": "E3",
                    "midi": 52,
                    "time": 122.19803999999861,
                    "velocity": 0.1968503937007874,
                    "duration": 0.2509199999999936
                },
                {
                    "name": "A4",
                    "midi": 69,
                    "time": 122.4489599999986,
                    "velocity": 0.23622047244094488,
                    "duration": 0.2509199999999936
                },
                {
                    "name": "F4",
                    "midi": 65,
                    "time": 122.6998799999986,
                    "velocity": 0.18110236220472442,
                    "duration": 0.2509199999999936
                },
                {
                    "name": "E4",
                    "midi": 64,
                    "time": 122.9507999999986,
                    "velocity": 0.1968503937007874,
                    "duration": 0.2509199999999936
                },
                {
                    "name": "A3",
                    "midi": 57,
                    "time": 123.20171999999859,
                    "velocity": 0.1732283464566929,
                    "duration": 0.2509199999999936
                },
                {
                    "name": "A4",
                    "midi": 69,
                    "time": 123.45263999999858,
                    "velocity": 0.2440944881889764,
                    "duration": 0.2509199999999936
                },
                {
                    "name": "E4",
                    "midi": 64,
                    "time": 123.70355999999857,
                    "velocity": 0.1968503937007874,
                    "duration": 0.2509199999999936
                },
                {
                    "name": "C4",
                    "midi": 60,
                    "time": 123.95447999999857,
                    "velocity": 0.2283464566929134,
                    "duration": 0.2509199999999936
                },
                {
                    "name": "A3",
                    "midi": 57,
                    "time": 124.20539999999856,
                    "velocity": 0.2047244094488189,
                    "duration": 0.2509199999999936
                },
                {
                    "name": "D2",
                    "midi": 38,
                    "time": 124.45631999999856,
                    "velocity": 0.33858267716535434,
                    "duration": 0.2509199999999936
                },
                {
                    "name": "D3",
                    "midi": 50,
                    "time": 124.70723999999855,
                    "velocity": 0.2992125984251969,
                    "duration": 0.2509199999999936
                },
                {
                    "name": "F3",
                    "midi": 53,
                    "time": 124.95815999999854,
                    "velocity": 0.33070866141732286,
                    "duration": 2.5091999999999928
                },
                {
                    "name": "A3",
                    "midi": 57,
                    "time": 125.20907999999854,
                    "velocity": 0.3700787401574803,
                    "duration": 2.258279999999999
                },
                {
                    "name": "D4",
                    "midi": 62,
                    "time": 125.45999999999853,
                    "velocity": 0.4015748031496063,
                    "duration": 2.0073600000000056
                },
                {
                    "name": "D2",
                    "midi": 38,
                    "time": 128.47103999999854,
                    "velocity": 0.33858267716535434,
                    "duration": 0.2509200000000078
                },
                {
                    "name": "D3",
                    "midi": 50,
                    "time": 128.72195999999855,
                    "velocity": 0.2992125984251969,
                    "duration": 0.2509200000000078
                },
                {
                    "name": "F3",
                    "midi": 53,
                    "time": 128.97287999999855,
                    "velocity": 0.33070866141732286,
                    "duration": 2.0073600000000056
                },
                {
                    "name": "G#3",
                    "midi": 56,
                    "time": 129.22379999999856,
                    "velocity": 0.3700787401574803,
                    "duration": 1.7564399999999978
                },
                {
                    "name": "B3",
                    "midi": 59,
                    "time": 129.47471999999857,
                    "velocity": 0.4015748031496063,
                    "duration": 1.50551999999999
                },
                {
                    "name": "G#3",
                    "midi": 56,
                    "time": 131.48207999999855,
                    "velocity": 0.33858267716535434,
                    "duration": 0.752759999999995
                },
                {
                    "name": "A#3",
                    "midi": 58,
                    "time": 131.48207999999855,
                    "velocity": 0.33858267716535434,
                    "duration": 0.752759999999995
                },
                {
                    "name": "D4",
                    "midi": 62,
                    "time": 131.48207999999855,
                    "velocity": 0.33858267716535434,
                    "duration": 0.752759999999995
                },
                {
                    "name": "F4",
                    "midi": 65,
                    "time": 131.48207999999855,
                    "velocity": 0.4015748031496063,
                    "duration": 0.752759999999995
                },
                {
                    "name": "A#4",
                    "midi": 70,
                    "time": 131.48207999999855,
                    "velocity": 0.47244094488188976,
                    "duration": 0.752759999999995
                },
                {
                    "name": "G2",
                    "midi": 43,
                    "time": 133.48943999999855,
                    "velocity": 0.3543307086614173,
                    "duration": 0.13800599999999008
                },
                {
                    "name": "G#2",
                    "midi": 44,
                    "time": 133.61489999999856,
                    "velocity": 0.29133858267716534,
                    "duration": 0.13800599999996166
                },
                {
                    "name": "G2",
                    "midi": 43,
                    "time": 133.74035999999853,
                    "velocity": 0.29133858267716534,
                    "duration": 0.13800599999996166
                },
                {
                    "name": "F#2",
                    "midi": 42,
                    "time": 133.8658199999985,
                    "velocity": 0.29133858267716534,
                    "duration": 0.13800599999996166
                },
                {
                    "name": "G2",
                    "midi": 43,
                    "time": 133.99127999999848,
                    "velocity": 0.3543307086614173,
                    "duration": 0.13800599999996166
                },
                {
                    "name": "A#2",
                    "midi": 46,
                    "time": 134.11673999999846,
                    "velocity": 0.33070866141732286,
                    "duration": 0.13800599999996166
                },
                {
                    "name": "D#3",
                    "midi": 51,
                    "time": 134.24219999999843,
                    "velocity": 0.3543307086614173,
                    "duration": 0.13800599999996166
                },
                {
                    "name": "G3",
                    "midi": 55,
                    "time": 134.3676599999984,
                    "velocity": 0.3779527559055118,
                    "duration": 0.13800599999996166
                },
                {
                    "name": "G#3",
                    "midi": 56,
                    "time": 134.49311999999838,
                    "velocity": 0.4094488188976378,
                    "duration": 0.752759999999995
                },
                {
                    "name": "A#3",
                    "midi": 58,
                    "time": 134.49311999999838,
                    "velocity": 0.4094488188976378,
                    "duration": 0.752759999999995
                },
                {
                    "name": "G3",
                    "midi": 55,
                    "time": 135.4967999999984,
                    "velocity": 0.3543307086614173,
                    "duration": 0.13800599999999008
                },
                {
                    "name": "G#3",
                    "midi": 56,
                    "time": 135.6222599999984,
                    "velocity": 0.29133858267716534,
                    "duration": 0.13800599999996166
                },
                {
                    "name": "G3",
                    "midi": 55,
                    "time": 135.74771999999837,
                    "velocity": 0.29133858267716534,
                    "duration": 0.13800599999996166
                },
                {
                    "name": "F#3",
                    "midi": 54,
                    "time": 135.87317999999834,
                    "velocity": 0.29133858267716534,
                    "duration": 0.13800599999996166
                },
                {
                    "name": "G3",
                    "midi": 55,
                    "time": 135.99863999999832,
                    "velocity": 0.3543307086614173,
                    "duration": 0.13800599999996166
                },
                {
                    "name": "A#3",
                    "midi": 58,
                    "time": 136.1240999999983,
                    "velocity": 0.33070866141732286,
                    "duration": 0.13800599999996166
                },
                {
                    "name": "D#4",
                    "midi": 63,
                    "time": 136.24955999999827,
                    "velocity": 0.3543307086614173,
                    "duration": 0.13800599999996166
                },
                {
                    "name": "G4",
                    "midi": 67,
                    "time": 136.37501999999824,
                    "velocity": 0.3779527559055118,
                    "duration": 0.13800599999996166
                },
                {
                    "name": "G#4",
                    "midi": 68,
                    "time": 136.50047999999822,
                    "velocity": 0.4645669291338583,
                    "duration": 0.752759999999995
                },
                {
                    "name": "A#4",
                    "midi": 70,
                    "time": 136.50047999999822,
                    "velocity": 0.4645669291338583,
                    "duration": 0.752759999999995
                },
                {
                    "name": "G#5",
                    "midi": 80,
                    "time": 137.50415999999822,
                    "velocity": 0.4015748031496063,
                    "duration": 0.13800599999999008
                },
                {
                    "name": "F5",
                    "midi": 77,
                    "time": 137.62961999999823,
                    "velocity": 0.33070866141732286,
                    "duration": 0.13800599999996166
                },
                {
                    "name": "D5",
                    "midi": 74,
                    "time": 137.7550799999982,
                    "velocity": 0.33070866141732286,
                    "duration": 0.13800599999996166
                },
                {
                    "name": "A#4",
                    "midi": 70,
                    "time": 137.88053999999818,
                    "velocity": 0.33070866141732286,
                    "duration": 0.13800599999996166
                },
                {
                    "name": "G#4",
                    "midi": 68,
                    "time": 138.00599999999815,
                    "velocity": 0.4015748031496063,
                    "duration": 0.13800599999996166
                },
                {
                    "name": "F4",
                    "midi": 65,
                    "time": 138.13145999999813,
                    "velocity": 0.3779527559055118,
                    "duration": 0.13800599999996166
                },
                {
                    "name": "D4",
                    "midi": 62,
                    "time": 138.2569199999981,
                    "velocity": 0.4015748031496063,
                    "duration": 0.13800599999996166
                },
                {
                    "name": "G#3",
                    "midi": 56,
                    "time": 138.38237999999808,
                    "velocity": 0.4330708661417323,
                    "duration": 0.13800599999996166
                },
                {
                    "name": "A3",
                    "midi": 57,
                    "time": 138.50783999999805,
                    "velocity": 0.4330708661417323,
                    "duration": 7.025759999999991
                },
                {
                    "name": "F3",
                    "midi": 53,
                    "time": 139.51151999999803,
                    "velocity": 0.36220472440944884,
                    "duration": 1.0036800000000028
                },
                {
                    "name": "D4",
                    "midi": 62,
                    "time": 139.51151999999803,
                    "velocity": 0.47244094488188976,
                    "duration": 1.0036800000000028
                },
                {
                    "name": "E3",
                    "midi": 52,
                    "time": 140.51519999999803,
                    "velocity": 0.3937007874015748,
                    "duration": 1.0036800000000028
                },
                {
                    "name": "E4",
                    "midi": 64,
                    "time": 140.51519999999803,
                    "velocity": 0.4645669291338583,
                    "duration": 1.0036800000000028
                },
                {
                    "name": "D3",
                    "midi": 50,
                    "time": 141.51887999999803,
                    "velocity": 0.4094488188976378,
                    "duration": 2.0073600000000056
                },
                {
                    "name": "F4",
                    "midi": 65,
                    "time": 141.51887999999803,
                    "velocity": 0.4881889763779528,
                    "duration": 2.0073600000000056
                },
                {
                    "name": "F3",
                    "midi": 53,
                    "time": 143.52623999999804,
                    "velocity": 0.3543307086614173,
                    "duration": 1.0036800000000028
                },
                {
                    "name": "D4",
                    "midi": 62,
                    "time": 143.52623999999804,
                    "velocity": 0.4251968503937008,
                    "duration": 1.0036800000000028
                },
                {
                    "name": "E3",
                    "midi": 52,
                    "time": 144.52991999999804,
                    "velocity": 0.31496062992125984,
                    "duration": 1.0036800000000028
                },
                {
                    "name": "C4",
                    "midi": 60,
                    "time": 144.52991999999804,
                    "velocity": 0.3779527559055118,
                    "duration": 1.0036800000000028
                },
                {
                    "name": "E3",
                    "midi": 52,
                    "time": 146.53727999999805,
                    "velocity": 0.2204724409448819,
                    "duration": 1.0036799999999744
                },
                {
                    "name": "G#3",
                    "midi": 56,
                    "time": 146.53727999999805,
                    "velocity": 0.2204724409448819,
                    "duration": 0.9827699999999879
                },
                {
                    "name": "B3",
                    "midi": 59,
                    "time": 146.53727999999805,
                    "velocity": 0.25984251968503935,
                    "duration": 1.0036799999999744
                },
                {
                    "name": "F4",
                    "midi": 65,
                    "time": 147.03911999999804,
                    "velocity": 0.3464566929133858,
                    "duration": 0.5018399999999872
                },
                {
                    "name": "E4",
                    "midi": 64,
                    "time": 147.54095999999802,
                    "velocity": 0.25984251968503935,
                    "duration": 0.5018399999999872
                },
                {
                    "name": "G#3",
                    "midi": 56,
                    "time": 148.042799999998,
                    "velocity": 0.1889763779527559,
                    "duration": 0.5018399999999872
                },
                {
                    "name": "A2",
                    "midi": 45,
                    "time": 148.544639999998,
                    "velocity": 0.2125984251968504,
                    "duration": 1.0036800000000028
                },
                {
                    "name": "A3",
                    "midi": 57,
                    "time": 148.544639999998,
                    "velocity": 0.25196850393700787,
                    "duration": 1.0036800000000028
                },
                {
                    "name": "G4",
                    "midi": 67,
                    "time": 149.548319999998,
                    "velocity": 0.25196850393700787,
                    "duration": 0.5018400000000156
                },
                {
                    "name": "E4",
                    "midi": 64,
                    "time": 149.548319999998,
                    "velocity": 0.1889763779527559,
                    "duration": 0.2509200000000078
                },
                {
                    "name": "A3",
                    "midi": 57,
                    "time": 149.799239999998,
                    "velocity": 0.16535433070866143,
                    "duration": 0.2509200000000078
                },
                {
                    "name": "A4",
                    "midi": 69,
                    "time": 150.05015999999802,
                    "velocity": 0.1889763779527559,
                    "duration": 0.5018400000000156
                },
                {
                    "name": "F4",
                    "midi": 65,
                    "time": 150.05015999999802,
                    "velocity": 0.14173228346456693,
                    "duration": 0.2509200000000078
                },
                {
                    "name": "A3",
                    "midi": 57,
                    "time": 150.30107999999802,
                    "velocity": 0.16535433070866143,
                    "duration": 0.2509200000000078
                },
                {
                    "name": "A#4",
                    "midi": 70,
                    "time": 150.55199999999803,
                    "velocity": 0.25196850393700787,
                    "duration": 0.2509200000000078
                },
                {
                    "name": "G4",
                    "midi": 67,
                    "time": 150.55199999999803,
                    "velocity": 0.1889763779527559,
                    "duration": 0.2509200000000078
                },
                {
                    "name": "A3",
                    "midi": 57,
                    "time": 150.80291999999804,
                    "velocity": 0.15748031496062992,
                    "duration": 0.2509200000000078
                },
                {
                    "name": "G4",
                    "midi": 67,
                    "time": 151.05383999999805,
                    "velocity": 0.18110236220472442,
                    "duration": 0.2509200000000078
                },
                {
                    "name": "E4",
                    "midi": 64,
                    "time": 151.05383999999805,
                    "velocity": 0.13385826771653545,
                    "duration": 0.2509200000000078
                },
                {
                    "name": "A3",
                    "midi": 57,
                    "time": 151.30475999999805,
                    "velocity": 0.15748031496062992,
                    "duration": 0.2509200000000078
                },
                {
                    "name": "C#4",
                    "midi": 61,
                    "time": 151.55567999999806,
                    "velocity": 0.18110236220472442,
                    "duration": 0.2509200000000078
                },
                {
                    "name": "E4",
                    "midi": 64,
                    "time": 151.55567999999806,
                    "velocity": 0.2440944881889764,
                    "duration": 0.2509200000000078
                },
                {
                    "name": "A3",
                    "midi": 57,
                    "time": 151.80659999999807,
                    "velocity": 0.16535433070866143,
                    "duration": 0.2509200000000078
                },
                {
                    "name": "F4",
                    "midi": 65,
                    "time": 152.05751999999808,
                    "velocity": 0.1889763779527559,
                    "duration": 0.2509200000000078
                },
                {
                    "name": "D4",
                    "midi": 62,
                    "time": 152.05751999999808,
                    "velocity": 0.14173228346456693,
                    "duration": 0.2509200000000078
                },
                {
                    "name": "A3",
                    "midi": 57,
                    "time": 152.3084399999981,
                    "velocity": 0.16535433070866143,
                    "duration": 0.2509200000000078
                },
                {
                    "name": "E4",
                    "midi": 64,
                    "time": 152.5593599999981,
                    "velocity": 0.1889763779527559,
                    "duration": 0.2509200000000078
                },
                {
                    "name": "G4",
                    "midi": 67,
                    "time": 152.5593599999981,
                    "velocity": 0.25196850393700787,
                    "duration": 0.2509200000000078
                },
                {
                    "name": "A3",
                    "midi": 57,
                    "time": 152.8102799999981,
                    "velocity": 0.15748031496062992,
                    "duration": 0.2509200000000078
                },
                {
                    "name": "D4",
                    "midi": 62,
                    "time": 153.0611999999981,
                    "velocity": 0.1889763779527559,
                    "duration": 0.2509200000000078
                },
                {
                    "name": "F4",
                    "midi": 65,
                    "time": 153.0611999999981,
                    "velocity": 0.18110236220472442,
                    "duration": 0.2509200000000078
                },
                {
                    "name": "A3",
                    "midi": 57,
                    "time": 153.31211999999812,
                    "velocity": 0.15748031496062992,
                    "duration": 0.2509200000000078
                },
                {
                    "name": "E4",
                    "midi": 64,
                    "time": 153.56303999999813,
                    "velocity": 0.25196850393700787,
                    "duration": 0.2509200000000078
                },
                {
                    "name": "C4",
                    "midi": 60,
                    "time": 153.56303999999813,
                    "velocity": 0.1889763779527559,
                    "duration": 0.2509200000000078
                },
                {
                    "name": "A3",
                    "midi": 57,
                    "time": 153.81395999999813,
                    "velocity": 0.16535433070866143,
                    "duration": 0.2509200000000078
                },
                {
                    "name": "D4",
                    "midi": 62,
                    "time": 154.06487999999814,
                    "velocity": 0.1889763779527559,
                    "duration": 0.2509200000000078
                },
                {
                    "name": "A#3",
                    "midi": 58,
                    "time": 154.06487999999814,
                    "velocity": 0.14173228346456693,
                    "duration": 0.2509200000000078
                },
                {
                    "name": "A3",
                    "midi": 57,
                    "time": 154.31579999999815,
                    "velocity": 0.16535433070866143,
                    "duration": 0.2509200000000078
                },
                {
                    "name": "C#4",
                    "midi": 61,
                    "time": 154.56671999999816,
                    "velocity": 0.25196850393700787,
                    "duration": 0.2509200000000078
                },
                {
                    "name": "A3",
                    "midi": 57,
                    "time": 154.81763999999816,
                    "velocity": 0.18110236220472442,
                    "duration": 0.2509200000000078
                },
                {
                    "name": "B3",
                    "midi": 59,
                    "time": 155.06855999999817,
                    "velocity": 0.14960629921259844,
                    "duration": 0.2509200000000078
                },
                {
                    "name": "D4",
                    "midi": 62,
                    "time": 155.06855999999817,
                    "velocity": 0.18110236220472442,
                    "duration": 0.2509200000000078
                },
                {
                    "name": "A3",
                    "midi": 57,
                    "time": 155.31947999999818,
                    "velocity": 0.18110236220472442,
                    "duration": 0.2509200000000078
                },
                {
                    "name": "C#4",
                    "midi": 61,
                    "time": 155.5703999999982,
                    "velocity": 0.2047244094488189,
                    "duration": 0.2509200000000078
                },
                {
                    "name": "E4",
                    "midi": 64,
                    "time": 155.5703999999982,
                    "velocity": 0.2440944881889764,
                    "duration": 0.2509200000000078
                },
                {
                    "name": "A3",
                    "midi": 57,
                    "time": 155.8328204999982,
                    "velocity": 0.1889763779527559,
                    "duration": 0.2509200000000078
                },
                {
                    "name": "C#4",
                    "midi": 61,
                    "time": 156.0722399999982,
                    "velocity": 0.1889763779527559,
                    "duration": 0.2509200000000078
                },
                {
                    "name": "E4",
                    "midi": 64,
                    "time": 156.0722399999982,
                    "velocity": 0.1889763779527559,
                    "duration": 0.2509200000000078
                },
                {
                    "name": "A3",
                    "midi": 57,
                    "time": 156.33466049999822,
                    "velocity": 0.15748031496062992,
                    "duration": 0.2509200000000078
                },
                {
                    "name": "A4",
                    "midi": 69,
                    "time": 156.57407999999822,
                    "velocity": 0.25196850393700787,
                    "duration": 0.2509200000000078
                },
                {
                    "name": "A3",
                    "midi": 57,
                    "time": 156.82499999999823,
                    "velocity": 0.18110236220472442,
                    "duration": 0.2509200000000078
                },
                {
                    "name": "A4",
                    "midi": 69,
                    "time": 157.07591999999823,
                    "velocity": 0.18110236220472442,
                    "duration": 0.2509200000000078
                },
                {
                    "name": "A3",
                    "midi": 57,
                    "time": 157.32683999999824,
                    "velocity": 0.18110236220472442,
                    "duration": 0.2509200000000078
                },
                {
                    "name": "A4",
                    "midi": 69,
                    "time": 157.57775999999825,
                    "velocity": 0.2440944881889764,
                    "duration": 0.2509200000000078
                },
                {
                    "name": "A3",
                    "midi": 57,
                    "time": 157.84018049999827,
                    "velocity": 0.2283464566929134,
                    "duration": 0.2509200000000078
                },
                {
                    "name": "A4",
                    "midi": 69,
                    "time": 158.07959999999827,
                    "velocity": 0.2677165354330709,
                    "duration": 0.2509200000000078
                },
                {
                    "name": "A3",
                    "midi": 57,
                    "time": 158.34202049999828,
                    "velocity": 0.30708661417322836,
                    "duration": 0.2509200000000078
                },
                {
                    "name": "E4",
                    "midi": 64,
                    "time": 158.58143999999828,
                    "velocity": 0.3464566929133858,
                    "duration": 0.2509200000000078
                },
                {
                    "name": "A3",
                    "midi": 57,
                    "time": 158.8323599999983,
                    "velocity": 0.1968503937007874,
                    "duration": 0.2509199999999794
                },
                {
                    "name": "E4",
                    "midi": 64,
                    "time": 159.07073399999828,
                    "velocity": 0.1968503937007874,
                    "duration": 0.2509199999999794
                },
                {
                    "name": "A3",
                    "midi": 57,
                    "time": 159.33419999999825,
                    "velocity": 0.1968503937007874,
                    "duration": 0.2509200000000078
                },
                {
                    "name": "E4",
                    "midi": 64,
                    "time": 159.58511999999826,
                    "velocity": 0.2677165354330709,
                    "duration": 0.2509200000000078
                },
                {
                    "name": "A3",
                    "midi": 57,
                    "time": 159.84754049999827,
                    "velocity": 0.2047244094488189,
                    "duration": 0.2509200000000078
                },
                {
                    "name": "E4",
                    "midi": 64,
                    "time": 160.08695999999827,
                    "velocity": 0.2047244094488189,
                    "duration": 0.2509200000000078
                },
                {
                    "name": "A3",
                    "midi": 57,
                    "time": 160.3493804999983,
                    "velocity": 0.1732283464566929,
                    "duration": 0.2509200000000078
                },
                {
                    "name": "G4",
                    "midi": 67,
                    "time": 160.5887999999983,
                    "velocity": 0.36220472440944884,
                    "duration": 0.2509200000000078
                },
                {
                    "name": "G3",
                    "midi": 55,
                    "time": 160.8397199999983,
                    "velocity": 0.23622047244094488,
                    "duration": 0.2509200000000078
                },
                {
                    "name": "G4",
                    "midi": 67,
                    "time": 161.0906399999983,
                    "velocity": 0.25196850393700787,
                    "duration": 0.2509200000000078
                },
                {
                    "name": "G3",
                    "midi": 55,
                    "time": 161.3415599999983,
                    "velocity": 0.2677165354330709,
                    "duration": 0.2509200000000078
                },
                {
                    "name": "G4",
                    "midi": 67,
                    "time": 161.59247999999832,
                    "velocity": 0.33070866141732286,
                    "duration": 0.2509200000000078
                },
                {
                    "name": "G3",
                    "midi": 55,
                    "time": 161.84339999999833,
                    "velocity": 0.2677165354330709,
                    "duration": 0.2509200000000078
                },
                {
                    "name": "G4",
                    "midi": 67,
                    "time": 162.09431999999833,
                    "velocity": 0.2677165354330709,
                    "duration": 0.2509200000000078
                },
                {
                    "name": "G3",
                    "midi": 55,
                    "time": 162.34523999999834,
                    "velocity": 0.2677165354330709,
                    "duration": 0.2509200000000078
                },
                {
                    "name": "F#4",
                    "midi": 66,
                    "time": 162.59615999999835,
                    "velocity": 0.3779527559055118,
                    "duration": 0.2509200000000078
                },
                {
                    "name": "G3",
                    "midi": 55,
                    "time": 162.84707999999836,
                    "velocity": 0.28346456692913385,
                    "duration": 0.2509200000000078
                },
                {
                    "name": "F#4",
                    "midi": 66,
                    "time": 163.09799999999836,
                    "velocity": 0.29133858267716534,
                    "duration": 0.2509200000000078
                },
                {
                    "name": "G3",
                    "midi": 55,
                    "time": 163.34891999999837,
                    "velocity": 0.29133858267716534,
                    "duration": 0.2509200000000078
                },
                {
                    "name": "F4",
                    "midi": 65,
                    "time": 163.59983999999838,
                    "velocity": 0.3700787401574803,
                    "duration": 0.2509200000000078
                },
                {
                    "name": "G3",
                    "midi": 55,
                    "time": 163.8507599999984,
                    "velocity": 0.2677165354330709,
                    "duration": 0.2509200000000078
                },
                {
                    "name": "F4",
                    "midi": 65,
                    "time": 164.1016799999984,
                    "velocity": 0.2677165354330709,
                    "duration": 0.2509200000000078
                },
                {
                    "name": "G3",
                    "midi": 55,
                    "time": 164.3525999999984,
                    "velocity": 0.2125984251968504,
                    "duration": 0.2509200000000078
                },
                {
                    "name": "E4",
                    "midi": 64,
                    "time": 164.6035199999984,
                    "velocity": 0.3937007874015748,
                    "duration": 0.2509200000000078
                },
                {
                    "name": "G3",
                    "midi": 55,
                    "time": 164.85443999999842,
                    "velocity": 0.28346456692913385,
                    "duration": 0.2509200000000078
                },
                {
                    "name": "E4",
                    "midi": 64,
                    "time": 165.10535999999843,
                    "velocity": 0.28346456692913385,
                    "duration": 0.2509200000000078
                },
                {
                    "name": "G3",
                    "midi": 55,
                    "time": 165.35627999999843,
                    "velocity": 0.28346456692913385,
                    "duration": 0.2509200000000078
                },
                {
                    "name": "D4",
                    "midi": 62,
                    "time": 165.60719999999844,
                    "velocity": 0.3937007874015748,
                    "duration": 0.2509200000000078
                },
                {
                    "name": "G3",
                    "midi": 55,
                    "time": 165.85811999999845,
                    "velocity": 0.31496062992125984,
                    "duration": 0.2509200000000078
                },
                {
                    "name": "D4",
                    "midi": 62,
                    "time": 166.10903999999846,
                    "velocity": 0.31496062992125984,
                    "duration": 0.2509200000000078
                },
                {
                    "name": "G3",
                    "midi": 55,
                    "time": 166.35995999999847,
                    "velocity": 0.31496062992125984,
                    "duration": 0.2509200000000078
                },
                {
                    "name": "C4",
                    "midi": 60,
                    "time": 166.61087999999847,
                    "velocity": 0.4094488188976378,
                    "duration": 0.2509200000000078
                },
                {
                    "name": "G3",
                    "midi": 55,
                    "time": 166.86179999999848,
                    "velocity": 0.30708661417322836,
                    "duration": 0.2509200000000078
                },
                {
                    "name": "C4",
                    "midi": 60,
                    "time": 167.1127199999985,
                    "velocity": 0.33070866141732286,
                    "duration": 0.2509200000000078
                },
                {
                    "name": "G3",
                    "midi": 55,
                    "time": 167.3636399999985,
                    "velocity": 0.3779527559055118,
                    "duration": 0.2509200000000078
                },
                {
                    "name": "B3",
                    "midi": 59,
                    "time": 167.6145599999985,
                    "velocity": 0.3543307086614173,
                    "duration": 0.2509200000000078
                },
                {
                    "name": "G3",
                    "midi": 55,
                    "time": 167.8654799999985,
                    "velocity": 0.3543307086614173,
                    "duration": 0.2509200000000078
                },
                {
                    "name": "B3",
                    "midi": 59,
                    "time": 168.11639999999852,
                    "velocity": 0.4094488188976378,
                    "duration": 0.2509200000000078
                },
                {
                    "name": "G3",
                    "midi": 55,
                    "time": 168.36731999999853,
                    "velocity": 0.3543307086614173,
                    "duration": 0.2509200000000078
                },
                {
                    "name": "G4",
                    "midi": 67,
                    "time": 168.61823999999854,
                    "velocity": 0.4330708661417323,
                    "duration": 0.2509200000000078
                },
                {
                    "name": "G3",
                    "midi": 55,
                    "time": 168.86915999999854,
                    "velocity": 0.36220472440944884,
                    "duration": 0.2509200000000078
                },
                {
                    "name": "G4",
                    "midi": 67,
                    "time": 169.12007999999855,
                    "velocity": 0.4330708661417323,
                    "duration": 0.2509200000000078
                },
                {
                    "name": "G3",
                    "midi": 55,
                    "time": 169.37099999999856,
                    "velocity": 0.3700787401574803,
                    "duration": 0.2509200000000078
                },
                {
                    "name": "G4",
                    "midi": 67,
                    "time": 169.62191999999857,
                    "velocity": 0.47244094488188976,
                    "duration": 0.2509200000000078
                },
                {
                    "name": "G3",
                    "midi": 55,
                    "time": 169.87283999999858,
                    "velocity": 0.3858267716535433,
                    "duration": 0.2509200000000078
                },
                {
                    "name": "G4",
                    "midi": 67,
                    "time": 170.12375999999858,
                    "velocity": 0.49606299212598426,
                    "duration": 0.2509200000000078
                },
                {
                    "name": "G3",
                    "midi": 55,
                    "time": 170.3746799999986,
                    "velocity": 0.4015748031496063,
                    "duration": 0.5018399999999872
                },
                {
                    "name": "D4",
                    "midi": 62,
                    "time": 170.56286999999858,
                    "velocity": 0.4566929133858268,
                    "duration": 0.31364999999999554
                },
                {
                    "name": "F4",
                    "midi": 65,
                    "time": 170.59423499999858,
                    "velocity": 0.49606299212598426,
                    "duration": 0.2822850000000017
                },
                {
                    "name": "B4",
                    "midi": 71,
                    "time": 170.62559999999857,
                    "velocity": 0.5354330708661418,
                    "duration": 0.2509200000000078
                },
                {
                    "name": "E4",
                    "midi": 64,
                    "time": 170.87651999999858,
                    "velocity": 0.3937007874015748,
                    "duration": 0.2509200000000078
                },
                {
                    "name": "E5",
                    "midi": 76,
                    "time": 170.87651999999858,
                    "velocity": 0.4645669291338583,
                    "duration": 0.2509200000000078
                },
                {
                    "name": "F4",
                    "midi": 65,
                    "time": 171.1274399999986,
                    "velocity": 0.4409448818897638,
                    "duration": 0.2509200000000078
                },
                {
                    "name": "F5",
                    "midi": 77,
                    "time": 171.1274399999986,
                    "velocity": 0.5196850393700787,
                    "duration": 0.2509200000000078
                },
                {
                    "name": "C#4",
                    "midi": 61,
                    "time": 171.3783599999986,
                    "velocity": 0.3937007874015748,
                    "duration": 0.2509200000000078
                },
                {
                    "name": "C#5",
                    "midi": 73,
                    "time": 171.3783599999986,
                    "velocity": 0.4645669291338583,
                    "duration": 0.2509200000000078
                },
                {
                    "name": "D4",
                    "midi": 62,
                    "time": 171.6292799999986,
                    "velocity": 0.4409448818897638,
                    "duration": 0.2509200000000078
                },
                {
                    "name": "D5",
                    "midi": 74,
                    "time": 171.6292799999986,
                    "velocity": 0.5275590551181102,
                    "duration": 0.2509200000000078
                },
                {
                    "name": "A#3",
                    "midi": 58,
                    "time": 171.8801999999986,
                    "velocity": 0.3937007874015748,
                    "duration": 0.2509200000000078
                },
                {
                    "name": "A#4",
                    "midi": 70,
                    "time": 171.8801999999986,
                    "velocity": 0.4645669291338583,
                    "duration": 0.2509200000000078
                },
                {
                    "name": "B3",
                    "midi": 59,
                    "time": 172.13111999999862,
                    "velocity": 0.4409448818897638,
                    "duration": 0.2509200000000078
                },
                {
                    "name": "B4",
                    "midi": 71,
                    "time": 172.13111999999862,
                    "velocity": 0.5196850393700787,
                    "duration": 0.2509200000000078
                },
                {
                    "name": "G3",
                    "midi": 55,
                    "time": 172.38203999999863,
                    "velocity": 0.3937007874015748,
                    "duration": 0.1254600000000039
                },
                {
                    "name": "G4",
                    "midi": 67,
                    "time": 172.38203999999863,
                    "velocity": 0.4645669291338583,
                    "duration": 0.1254600000000039
                },
                {
                    "name": "E2",
                    "midi": 40,
                    "time": 172.88387999999864,
                    "velocity": 0.3937007874015748,
                    "duration": 0.2509200000000078
                },
                {
                    "name": "E3",
                    "midi": 52,
                    "time": 172.88387999999864,
                    "velocity": 0.4645669291338583,
                    "duration": 0.2509200000000078
                },
                {
                    "name": "F2",
                    "midi": 41,
                    "time": 173.13479999999865,
                    "velocity": 0.4409448818897638,
                    "duration": 0.2509200000000078
                },
                {
                    "name": "F3",
                    "midi": 53,
                    "time": 173.13479999999865,
                    "velocity": 0.5196850393700787,
                    "duration": 0.2509200000000078
                },
                {
                    "name": "C#2",
                    "midi": 37,
                    "time": 173.38571999999866,
                    "velocity": 0.3937007874015748,
                    "duration": 0.2509200000000078
                },
                {
                    "name": "C#3",
                    "midi": 49,
                    "time": 173.38571999999866,
                    "velocity": 0.4645669291338583,
                    "duration": 0.2509200000000078
                },
                {
                    "name": "D2",
                    "midi": 38,
                    "time": 173.63663999999866,
                    "velocity": 0.4409448818897638,
                    "duration": 0.2509200000000078
                },
                {
                    "name": "D3",
                    "midi": 50,
                    "time": 173.63663999999866,
                    "velocity": 0.5275590551181102,
                    "duration": 0.2509200000000078
                },
                {
                    "name": "A#1",
                    "midi": 34,
                    "time": 173.88755999999867,
                    "velocity": 0.3937007874015748,
                    "duration": 0.2509200000000078
                },
                {
                    "name": "A#2",
                    "midi": 46,
                    "time": 173.88755999999867,
                    "velocity": 0.4645669291338583,
                    "duration": 0.2509200000000078
                },
                {
                    "name": "B1",
                    "midi": 35,
                    "time": 174.13847999999868,
                    "velocity": 0.4409448818897638,
                    "duration": 0.2509200000000078
                },
                {
                    "name": "B2",
                    "midi": 47,
                    "time": 174.13847999999868,
                    "velocity": 0.5196850393700787,
                    "duration": 0.2509200000000078
                },
                {
                    "name": "G1",
                    "midi": 31,
                    "time": 174.3893999999987,
                    "velocity": 0.3937007874015748,
                    "duration": 0.1254600000000039
                },
                {
                    "name": "G2",
                    "midi": 43,
                    "time": 174.3893999999987,
                    "velocity": 0.4645669291338583,
                    "duration": 0.1254600000000039
                },
                {
                    "name": "C3",
                    "midi": 48,
                    "time": 174.6403199999987,
                    "velocity": 0.5039370078740157,
                    "duration": 0.752759999999995
                },
                {
                    "name": "G3",
                    "midi": 55,
                    "time": 174.6716849999987,
                    "velocity": 0.5275590551181102,
                    "duration": 0.7213950000000011
                },
                {
                    "name": "C4",
                    "midi": 60,
                    "time": 174.70304999999868,
                    "velocity": 0.5511811023622047,
                    "duration": 0.6900300000000072
                },
                {
                    "name": "E4",
                    "midi": 64,
                    "time": 174.73441499999868,
                    "velocity": 0.5748031496062992,
                    "duration": 0.6586650000000134
                },
                {
                    "name": "C2",
                    "midi": 36,
                    "time": 175.3930799999987,
                    "velocity": 0.4330708661417323,
                    "duration": 0.22582800000000702
                },
                {
                    "name": "G2",
                    "midi": 43,
                    "time": 175.3930799999987,
                    "velocity": 0.4330708661417323,
                    "duration": 0.22582800000000702
                },
                {
                    "name": "C3",
                    "midi": 48,
                    "time": 175.3930799999987,
                    "velocity": 0.5118110236220472,
                    "duration": 0.22582800000000702
                },
                {
                    "name": "C2",
                    "midi": 36,
                    "time": 175.6439999999987,
                    "velocity": 0.4330708661417323,
                    "duration": 0.5018399999999872
                },
                {
                    "name": "G2",
                    "midi": 43,
                    "time": 175.6439999999987,
                    "velocity": 0.4330708661417323,
                    "duration": 0.5018399999999872
                },
                {
                    "name": "C3",
                    "midi": 48,
                    "time": 175.6439999999987,
                    "velocity": 0.5118110236220472,
                    "duration": 0.5018399999999872
                },
                {
                    "name": "D2",
                    "midi": 38,
                    "time": 176.14583999999869,
                    "velocity": 0.3937007874015748,
                    "duration": 0.1254600000000039
                },
                {
                    "name": "D3",
                    "midi": 50,
                    "time": 176.14583999999869,
                    "velocity": 0.4645669291338583,
                    "duration": 0.1254600000000039
                },
                {
                    "name": "E2",
                    "midi": 40,
                    "time": 176.3967599999987,
                    "velocity": 0.4330708661417323,
                    "duration": 0.1254600000000039
                },
                {
                    "name": "C3",
                    "midi": 48,
                    "time": 176.3967599999987,
                    "velocity": 0.4330708661417323,
                    "duration": 0.1254600000000039
                },
                {
                    "name": "E3",
                    "midi": 52,
                    "time": 176.3967599999987,
                    "velocity": 0.5118110236220472,
                    "duration": 0.1254600000000039
                },
                {
                    "name": "F2",
                    "midi": 41,
                    "time": 176.6476799999987,
                    "velocity": 0.4409448818897638,
                    "duration": 0.1254600000000039
                },
                {
                    "name": "C3",
                    "midi": 48,
                    "time": 176.6476799999987,
                    "velocity": 0.4409448818897638,
                    "duration": 0.1254600000000039
                },
                {
                    "name": "F3",
                    "midi": 53,
                    "time": 176.6476799999987,
                    "velocity": 0.5275590551181102,
                    "duration": 0.1254600000000039
                },
                {
                    "name": "E2",
                    "midi": 40,
                    "time": 177.14951999999872,
                    "velocity": 0.4094488188976378,
                    "duration": 0.1254600000000039
                },
                {
                    "name": "C3",
                    "midi": 48,
                    "time": 177.14951999999872,
                    "velocity": 0.4094488188976378,
                    "duration": 0.1254600000000039
                },
                {
                    "name": "E3",
                    "midi": 52,
                    "time": 177.14951999999872,
                    "velocity": 0.4881889763779528,
                    "duration": 0.1254600000000039
                },
                {
                    "name": "C2",
                    "midi": 36,
                    "time": 178.40411999999873,
                    "velocity": 0.4330708661417323,
                    "duration": 0.22582800000000702
                },
                {
                    "name": "G2",
                    "midi": 43,
                    "time": 178.40411999999873,
                    "velocity": 0.4330708661417323,
                    "duration": 0.22582800000000702
                },
                {
                    "name": "C3",
                    "midi": 48,
                    "time": 178.40411999999873,
                    "velocity": 0.5118110236220472,
                    "duration": 0.22582800000000702
                },
                {
                    "name": "C2",
                    "midi": 36,
                    "time": 178.65503999999873,
                    "velocity": 0.4330708661417323,
                    "duration": 0.5018399999999872
                },
                {
                    "name": "G2",
                    "midi": 43,
                    "time": 178.65503999999873,
                    "velocity": 0.4330708661417323,
                    "duration": 0.5018399999999872
                },
                {
                    "name": "C3",
                    "midi": 48,
                    "time": 178.65503999999873,
                    "velocity": 0.5118110236220472,
                    "duration": 0.5018399999999872
                },
                {
                    "name": "D2",
                    "midi": 38,
                    "time": 179.15687999999872,
                    "velocity": 0.3937007874015748,
                    "duration": 0.1254600000000039
                },
                {
                    "name": "D3",
                    "midi": 50,
                    "time": 179.15687999999872,
                    "velocity": 0.4645669291338583,
                    "duration": 0.1254600000000039
                },
                {
                    "name": "E2",
                    "midi": 40,
                    "time": 179.40779999999873,
                    "velocity": 0.4330708661417323,
                    "duration": 0.1254600000000039
                },
                {
                    "name": "C3",
                    "midi": 48,
                    "time": 179.40779999999873,
                    "velocity": 0.4330708661417323,
                    "duration": 0.1254600000000039
                },
                {
                    "name": "E3",
                    "midi": 52,
                    "time": 179.40779999999873,
                    "velocity": 0.5118110236220472,
                    "duration": 0.1254600000000039
                },
                {
                    "name": "F2",
                    "midi": 41,
                    "time": 179.65871999999874,
                    "velocity": 0.4409448818897638,
                    "duration": 0.2509200000000078
                },
                {
                    "name": "C3",
                    "midi": 48,
                    "time": 179.65871999999874,
                    "velocity": 0.4409448818897638,
                    "duration": 0.2509200000000078
                },
                {
                    "name": "F3",
                    "midi": 53,
                    "time": 179.65871999999874,
                    "velocity": 0.5275590551181102,
                    "duration": 0.2509200000000078
                },
                {
                    "name": "C3",
                    "midi": 48,
                    "time": 180.16055999999875,
                    "velocity": 0.3937007874015748,
                    "duration": 0.1254600000000039
                },
                {
                    "name": "E2",
                    "midi": 40,
                    "time": 180.16055999999875,
                    "velocity": 0.3937007874015748,
                    "duration": 0.1254600000000039
                },
                {
                    "name": "E3",
                    "midi": 52,
                    "time": 180.16055999999875,
                    "velocity": 0.4645669291338583,
                    "duration": 0.1254600000000039
                },
                {
                    "name": "F2",
                    "midi": 41,
                    "time": 180.41147999999876,
                    "velocity": 0.4330708661417323,
                    "duration": 0.1254600000000039
                },
                {
                    "name": "C3",
                    "midi": 48,
                    "time": 180.41147999999876,
                    "velocity": 0.4330708661417323,
                    "duration": 0.1254600000000039
                },
                {
                    "name": "F3",
                    "midi": 53,
                    "time": 180.41147999999876,
                    "velocity": 0.5118110236220472,
                    "duration": 0.1254600000000039
                },
                {
                    "name": "G2",
                    "midi": 43,
                    "time": 180.66239999999877,
                    "velocity": 0.4409448818897638,
                    "duration": 0.1254600000000039
                },
                {
                    "name": "C3",
                    "midi": 48,
                    "time": 180.66239999999877,
                    "velocity": 0.4409448818897638,
                    "duration": 0.1254600000000039
                },
                {
                    "name": "G3",
                    "midi": 55,
                    "time": 180.66239999999877,
                    "velocity": 0.5275590551181102,
                    "duration": 0.1254600000000039
                },
                {
                    "name": "F2",
                    "midi": 41,
                    "time": 181.16423999999878,
                    "velocity": 0.4094488188976378,
                    "duration": 0.1254600000000039
                },
                {
                    "name": "C3",
                    "midi": 48,
                    "time": 181.16423999999878,
                    "velocity": 0.4094488188976378,
                    "duration": 0.1254600000000039
                },
                {
                    "name": "F3",
                    "midi": 53,
                    "time": 181.16423999999878,
                    "velocity": 0.4881889763779528,
                    "duration": 0.1254600000000039
                },
                {
                    "name": "C3",
                    "midi": 48,
                    "time": 182.1679199999988,
                    "velocity": 0.3937007874015748,
                    "duration": 0.1254600000000039
                },
                {
                    "name": "E2",
                    "midi": 40,
                    "time": 182.1679199999988,
                    "velocity": 0.3937007874015748,
                    "duration": 0.1254600000000039
                },
                {
                    "name": "E3",
                    "midi": 52,
                    "time": 182.1679199999988,
                    "velocity": 0.4645669291338583,
                    "duration": 0.1254600000000039
                },
                {
                    "name": "F2",
                    "midi": 41,
                    "time": 182.4188399999988,
                    "velocity": 0.4330708661417323,
                    "duration": 0.1254600000000039
                },
                {
                    "name": "C3",
                    "midi": 48,
                    "time": 182.4188399999988,
                    "velocity": 0.4330708661417323,
                    "duration": 0.1254600000000039
                },
                {
                    "name": "F3",
                    "midi": 53,
                    "time": 182.4188399999988,
                    "velocity": 0.5118110236220472,
                    "duration": 0.1254600000000039
                },
                {
                    "name": "D2",
                    "midi": 38,
                    "time": 182.6697599999988,
                    "velocity": 0.4409448818897638,
                    "duration": 0.1254600000000039
                },
                {
                    "name": "D3",
                    "midi": 50,
                    "time": 182.6697599999988,
                    "velocity": 0.5275590551181102,
                    "duration": 0.1254600000000039
                },
                {
                    "name": "E2",
                    "midi": 40,
                    "time": 183.17159999999882,
                    "velocity": 0.44881889763779526,
                    "duration": 0.1254600000000039
                },
                {
                    "name": "E3",
                    "midi": 52,
                    "time": 183.17159999999882,
                    "velocity": 0.5354330708661418,
                    "duration": 0.1254600000000039
                },
                {
                    "name": "B1",
                    "midi": 35,
                    "time": 183.67343999999883,
                    "velocity": 0.4645669291338583,
                    "duration": 0.1254600000000039
                },
                {
                    "name": "B2",
                    "midi": 47,
                    "time": 183.67343999999883,
                    "velocity": 0.5511811023622047,
                    "duration": 0.1254600000000039
                },
                {
                    "name": "C2",
                    "midi": 36,
                    "time": 184.17527999999885,
                    "velocity": 0.4881889763779528,
                    "duration": 0.1254600000000039
                },
                {
                    "name": "C3",
                    "midi": 48,
                    "time": 184.17527999999885,
                    "velocity": 0.5748031496062992,
                    "duration": 0.1254600000000039
                },
                {
                    "name": "A1",
                    "midi": 33,
                    "time": 184.67711999999887,
                    "velocity": 0.5275590551181102,
                    "duration": 1.0036799999999744
                },
                {
                    "name": "D2",
                    "midi": 38,
                    "time": 184.67711999999887,
                    "velocity": 0.5275590551181102,
                    "duration": 0.9827699999999879
                },
                {
                    "name": "A2",
                    "midi": 45,
                    "time": 184.67711999999887,
                    "velocity": 0.6220472440944882,
                    "duration": 1.0036799999999744
                },
                {
                    "name": "G1",
                    "midi": 31,
                    "time": 185.68079999999884,
                    "velocity": 0.49606299212598426,
                    "duration": 0.5018399999999872
                },
                {
                    "name": "D2",
                    "midi": 38,
                    "time": 185.68079999999884,
                    "velocity": 0.49606299212598426,
                    "duration": 0.5018399999999872
                },
                {
                    "name": "G2",
                    "midi": 43,
                    "time": 185.68079999999884,
                    "velocity": 0.5905511811023622,
                    "duration": 0.5018399999999872
                },
                {
                    "name": "D4",
                    "midi": 62,
                    "time": 186.18263999999883,
                    "velocity": 0.5511811023622047,
                    "duration": 0.1254600000000039
                },
                {
                    "name": "F#4",
                    "midi": 66,
                    "time": 186.43355999999883,
                    "velocity": 0.49606299212598426,
                    "duration": 0.1254600000000039
                },
                {
                    "name": "G4",
                    "midi": 67,
                    "time": 186.68447999999884,
                    "velocity": 0.5433070866141733,
                    "duration": 0.1254600000000039
                },
                {
                    "name": "D3",
                    "midi": 50,
                    "time": 187.18631999999886,
                    "velocity": 0.4409448818897638,
                    "duration": 0.1254600000000039
                },
                {
                    "name": "F#3",
                    "midi": 54,
                    "time": 187.43723999999887,
                    "velocity": 0.3937007874015748,
                    "duration": 0.1254600000000039
                },
                {
                    "name": "G3",
                    "midi": 55,
                    "time": 187.68815999999887,
                    "velocity": 0.4330708661417323,
                    "duration": 0.1254600000000039
                },
                {
                    "name": "D2",
                    "midi": 38,
                    "time": 188.1899999999989,
                    "velocity": 0.4409448818897638,
                    "duration": 0.1254600000000039
                },
                {
                    "name": "F#2",
                    "midi": 42,
                    "time": 188.4409199999989,
                    "velocity": 0.3937007874015748,
                    "duration": 0.1254600000000039
                },
                {
                    "name": "G2",
                    "midi": 43,
                    "time": 188.6918399999989,
                    "velocity": 0.4330708661417323,
                    "duration": 0.5018399999999872
                },
                {
                    "name": "G3",
                    "midi": 55,
                    "time": 189.69551999999888,
                    "velocity": 0.4330708661417323,
                    "duration": 1.0036800000000028
                },
                {
                    "name": "A#3",
                    "midi": 58,
                    "time": 189.69551999999888,
                    "velocity": 0.4330708661417323,
                    "duration": 1.0036800000000028
                },
                {
                    "name": "A#2",
                    "midi": 46,
                    "time": 190.69919999999888,
                    "velocity": 0.47244094488188976,
                    "duration": 0.752759999999995
                },
                {
                    "name": "F3",
                    "midi": 53,
                    "time": 190.73056499999888,
                    "velocity": 0.49606299212598426,
                    "duration": 0.7213950000000011
                },
                {
                    "name": "A#3",
                    "midi": 58,
                    "time": 190.76192999999887,
                    "velocity": 0.5275590551181102,
                    "duration": 0.6900300000000072
                },
                {
                    "name": "D4",
                    "midi": 62,
                    "time": 190.79329499999886,
                    "velocity": 0.5511811023622047,
                    "duration": 0.6586650000000134
                },
                {
                    "name": "A#1",
                    "midi": 34,
                    "time": 191.45195999999888,
                    "velocity": 0.4330708661417323,
                    "duration": 0.22582800000000702
                },
                {
                    "name": "A#2",
                    "midi": 46,
                    "time": 191.45195999999888,
                    "velocity": 0.5118110236220472,
                    "duration": 0.22582800000000702
                },
                {
                    "name": "A#1",
                    "midi": 34,
                    "time": 191.70287999999888,
                    "velocity": 0.4330708661417323,
                    "duration": 0.5018399999999872
                },
                {
                    "name": "A#2",
                    "midi": 46,
                    "time": 191.70287999999888,
                    "velocity": 0.5118110236220472,
                    "duration": 0.5018399999999872
                },
                {
                    "name": "C2",
                    "midi": 36,
                    "time": 192.20471999999887,
                    "velocity": 0.3937007874015748,
                    "duration": 0.1254600000000039
                },
                {
                    "name": "C3",
                    "midi": 48,
                    "time": 192.20471999999887,
                    "velocity": 0.4645669291338583,
                    "duration": 0.1254600000000039
                },
                {
                    "name": "D2",
                    "midi": 38,
                    "time": 192.45563999999888,
                    "velocity": 0.4330708661417323,
                    "duration": 0.1254600000000039
                },
                {
                    "name": "D3",
                    "midi": 50,
                    "time": 192.45563999999888,
                    "velocity": 0.5118110236220472,
                    "duration": 0.1254600000000039
                },
                {
                    "name": "D#2",
                    "midi": 39,
                    "time": 192.7065599999989,
                    "velocity": 0.4409448818897638,
                    "duration": 0.1254600000000039
                },
                {
                    "name": "A#2",
                    "midi": 46,
                    "time": 192.7065599999989,
                    "velocity": 0.4409448818897638,
                    "duration": 0.1254600000000039
                },
                {
                    "name": "D#3",
                    "midi": 51,
                    "time": 192.7065599999989,
                    "velocity": 0.5275590551181102,
                    "duration": 0.1254600000000039
                },
                {
                    "name": "D2",
                    "midi": 38,
                    "time": 193.2083999999989,
                    "velocity": 0.4094488188976378,
                    "duration": 0.1254600000000039
                },
                {
                    "name": "A#2",
                    "midi": 46,
                    "time": 193.2083999999989,
                    "velocity": 0.4094488188976378,
                    "duration": 0.1254600000000039
                },
                {
                    "name": "D3",
                    "midi": 50,
                    "time": 193.2083999999989,
                    "velocity": 0.4881889763779528,
                    "duration": 0.1254600000000039
                },
                {
                    "name": "A#1",
                    "midi": 34,
                    "time": 194.4629999999989,
                    "velocity": 0.4330708661417323,
                    "duration": 0.22582800000000702
                },
                {
                    "name": "A#2",
                    "midi": 46,
                    "time": 194.4629999999989,
                    "velocity": 0.5118110236220472,
                    "duration": 0.22582800000000702
                },
                {
                    "name": "A#1",
                    "midi": 34,
                    "time": 194.71391999999892,
                    "velocity": 0.4330708661417323,
                    "duration": 0.5018399999999872
                },
                {
                    "name": "A#2",
                    "midi": 46,
                    "time": 194.71391999999892,
                    "velocity": 0.5118110236220472,
                    "duration": 0.5018399999999872
                },
                {
                    "name": "C2",
                    "midi": 36,
                    "time": 195.2157599999989,
                    "velocity": 0.3937007874015748,
                    "duration": 0.1254600000000039
                },
                {
                    "name": "C3",
                    "midi": 48,
                    "time": 195.2157599999989,
                    "velocity": 0.4645669291338583,
                    "duration": 0.1254600000000039
                },
                {
                    "name": "D2",
                    "midi": 38,
                    "time": 195.46667999999892,
                    "velocity": 0.4330708661417323,
                    "duration": 0.1254600000000039
                },
                {
                    "name": "D3",
                    "midi": 50,
                    "time": 195.46667999999892,
                    "velocity": 0.5118110236220472,
                    "duration": 0.1254600000000039
                },
                {
                    "name": "D#2",
                    "midi": 39,
                    "time": 195.71759999999892,
                    "velocity": 0.4409448818897638,
                    "duration": 0.2509200000000078
                },
                {
                    "name": "A#2",
                    "midi": 46,
                    "time": 195.71759999999892,
                    "velocity": 0.4409448818897638,
                    "duration": 0.2509200000000078
                },
                {
                    "name": "D#3",
                    "midi": 51,
                    "time": 195.71759999999892,
                    "velocity": 0.5275590551181102,
                    "duration": 0.2509200000000078
                },
                {
                    "name": "A#2",
                    "midi": 46,
                    "time": 196.21943999999894,
                    "velocity": 0.3937007874015748,
                    "duration": 0.1254600000000039
                },
                {
                    "name": "D2",
                    "midi": 38,
                    "time": 196.21943999999894,
                    "velocity": 0.3937007874015748,
                    "duration": 0.1254600000000039
                },
                {
                    "name": "D3",
                    "midi": 50,
                    "time": 196.21943999999894,
                    "velocity": 0.4645669291338583,
                    "duration": 0.1254600000000039
                },
                {
                    "name": "D#2",
                    "midi": 39,
                    "time": 196.47035999999895,
                    "velocity": 0.4330708661417323,
                    "duration": 0.1254600000000039
                },
                {
                    "name": "A#2",
                    "midi": 46,
                    "time": 196.47035999999895,
                    "velocity": 0.4330708661417323,
                    "duration": 0.1254600000000039
                },
                {
                    "name": "D#3",
                    "midi": 51,
                    "time": 196.47035999999895,
                    "velocity": 0.5118110236220472,
                    "duration": 0.1254600000000039
                },
                {
                    "name": "F2",
                    "midi": 41,
                    "time": 196.72127999999896,
                    "velocity": 0.4409448818897638,
                    "duration": 0.1254600000000039
                },
                {
                    "name": "A#2",
                    "midi": 46,
                    "time": 196.72127999999896,
                    "velocity": 0.4409448818897638,
                    "duration": 0.1254600000000039
                },
                {
                    "name": "F3",
                    "midi": 53,
                    "time": 196.72127999999896,
                    "velocity": 0.5275590551181102,
                    "duration": 0.1254600000000039
                },
                {
                    "name": "D#2",
                    "midi": 39,
                    "time": 197.22311999999897,
                    "velocity": 0.4094488188976378,
                    "duration": 0.1254600000000039
                },
                {
                    "name": "A#2",
                    "midi": 46,
                    "time": 197.22311999999897,
                    "velocity": 0.4094488188976378,
                    "duration": 0.1254600000000039
                },
                {
                    "name": "D#3",
                    "midi": 51,
                    "time": 197.22311999999897,
                    "velocity": 0.4881889763779528,
                    "duration": 0.1254600000000039
                },
                {
                    "name": "D2",
                    "midi": 38,
                    "time": 198.22679999999897,
                    "velocity": 0.3937007874015748,
                    "duration": 0.1254600000000039
                },
                {
                    "name": "D3",
                    "midi": 50,
                    "time": 198.22679999999897,
                    "velocity": 0.4645669291338583,
                    "duration": 0.1254600000000039
                },
                {
                    "name": "D#2",
                    "midi": 39,
                    "time": 198.47771999999898,
                    "velocity": 0.4330708661417323,
                    "duration": 0.1254600000000039
                },
                {
                    "name": "D#3",
                    "midi": 51,
                    "time": 198.47771999999898,
                    "velocity": 0.5118110236220472,
                    "duration": 0.1254600000000039
                },
                {
                    "name": "F2",
                    "midi": 41,
                    "time": 198.728639999999,
                    "velocity": 0.4409448818897638,
                    "duration": 0.1254600000000039
                },
                {
                    "name": "F3",
                    "midi": 53,
                    "time": 198.728639999999,
                    "velocity": 0.5275590551181102,
                    "duration": 0.1254600000000039
                },
                {
                    "name": "D#2",
                    "midi": 39,
                    "time": 199.230479999999,
                    "velocity": 0.44881889763779526,
                    "duration": 0.1254600000000039
                },
                {
                    "name": "D#3",
                    "midi": 51,
                    "time": 199.230479999999,
                    "velocity": 0.5354330708661418,
                    "duration": 0.1254600000000039
                },
                {
                    "name": "B1",
                    "midi": 35,
                    "time": 199.73231999999902,
                    "velocity": 0.4645669291338583,
                    "duration": 0.1254600000000039
                },
                {
                    "name": "B2",
                    "midi": 47,
                    "time": 199.73231999999902,
                    "velocity": 0.5511811023622047,
                    "duration": 0.1254600000000039
                },
                {
                    "name": "C2",
                    "midi": 36,
                    "time": 200.23415999999904,
                    "velocity": 0.4881889763779528,
                    "duration": 0.1254600000000039
                },
                {
                    "name": "C3",
                    "midi": 48,
                    "time": 200.23415999999904,
                    "velocity": 0.5748031496062992,
                    "duration": 0.1254600000000039
                },
                {
                    "name": "A1",
                    "midi": 33,
                    "time": 200.73599999999905,
                    "velocity": 0.4881889763779528,
                    "duration": 0.1254600000000039
                },
                {
                    "name": "A2",
                    "midi": 45,
                    "time": 200.73599999999905,
                    "velocity": 0.5748031496062992,
                    "duration": 0.1254600000000039
                },
                {
                    "name": "G#1",
                    "midi": 32,
                    "time": 201.23783999999907,
                    "velocity": 0.4881889763779528,
                    "duration": 1.0036799999999744
                },
                {
                    "name": "D2",
                    "midi": 38,
                    "time": 201.23783999999907,
                    "velocity": 0.4881889763779528,
                    "duration": 0.9827699999999879
                },
                {
                    "name": "G#2",
                    "midi": 44,
                    "time": 201.23783999999907,
                    "velocity": 0.5748031496062992,
                    "duration": 1.0036799999999744
                },
                {
                    "name": "G1",
                    "midi": 31,
                    "time": 202.24151999999904,
                    "velocity": 0.4881889763779528,
                    "duration": 1.0036799999999744
                },
                {
                    "name": "D2",
                    "midi": 38,
                    "time": 202.24151999999904,
                    "velocity": 0.4881889763779528,
                    "duration": 0.9827699999999879
                },
                {
                    "name": "G2",
                    "midi": 43,
                    "time": 202.24151999999904,
                    "velocity": 0.5748031496062992,
                    "duration": 1.0036799999999744
                },
                {
                    "name": "F#1",
                    "midi": 30,
                    "time": 203.24519999999902,
                    "velocity": 0.4881889763779528,
                    "duration": 0.9827699999999879
                },
                {
                    "name": "D2",
                    "midi": 38,
                    "time": 203.24519999999902,
                    "velocity": 0.4881889763779528,
                    "duration": 0.9827699999999879
                },
                {
                    "name": "F#2",
                    "midi": 42,
                    "time": 203.24519999999902,
                    "velocity": 0.5748031496062992,
                    "duration": 0.9827699999999879
                },
                {
                    "name": "F#1",
                    "midi": 30,
                    "time": 204.248879999999,
                    "velocity": 0.4881889763779528,
                    "duration": 0.5018399999999872
                },
                {
                    "name": "D2",
                    "midi": 38,
                    "time": 204.248879999999,
                    "velocity": 0.4881889763779528,
                    "duration": 0.5018399999999872
                },
                {
                    "name": "F#2",
                    "midi": 42,
                    "time": 204.248879999999,
                    "velocity": 0.5748031496062992,
                    "duration": 0.5018399999999872
                },
                {
                    "name": "G1",
                    "midi": 31,
                    "time": 204.75071999999898,
                    "velocity": 0.4015748031496063,
                    "duration": 0.1254600000000039
                },
                {
                    "name": "D2",
                    "midi": 38,
                    "time": 204.75071999999898,
                    "velocity": 0.4015748031496063,
                    "duration": 0.1254600000000039
                },
                {
                    "name": "G2",
                    "midi": 43,
                    "time": 204.75071999999898,
                    "velocity": 0.48031496062992124,
                    "duration": 0.1254600000000039
                },
                {
                    "name": "D3",
                    "midi": 50,
                    "time": 205.252559999999,
                    "velocity": 0.4566929133858268,
                    "duration": 1.0036800000000028
                },
                {
                    "name": "F3",
                    "midi": 53,
                    "time": 205.252559999999,
                    "velocity": 0.4566929133858268,
                    "duration": 1.0036800000000028
                },
                {
                    "name": "B3",
                    "midi": 59,
                    "time": 205.252559999999,
                    "velocity": 0.5433070866141733,
                    "duration": 1.0036800000000028
                },
                {
                    "name": "G3",
                    "midi": 55,
                    "time": 205.252559999999,
                    "velocity": 0.4566929133858268,
                    "duration": 1.0036800000000028
                },
                {
                    "name": "G1",
                    "midi": 31,
                    "time": 206.256239999999,
                    "velocity": 0.3779527559055118,
                    "duration": 0.1254600000000039
                },
                {
                    "name": "G2",
                    "midi": 43,
                    "time": 206.256239999999,
                    "velocity": 0.44881889763779526,
                    "duration": 0.1254600000000039
                },
                {
                    "name": "C2",
                    "midi": 36,
                    "time": 206.758079999999,
                    "velocity": 0.4251968503937008,
                    "duration": 0.1254600000000039
                },
                {
                    "name": "G2",
                    "midi": 43,
                    "time": 206.758079999999,
                    "velocity": 0.4251968503937008,
                    "duration": 0.1254600000000039
                },
                {
                    "name": "C3",
                    "midi": 48,
                    "time": 206.758079999999,
                    "velocity": 0.5039370078740157,
                    "duration": 0.1254600000000039
                },
                {
                    "name": "C3",
                    "midi": 48,
                    "time": 207.510839999999,
                    "velocity": 0.2677165354330709,
                    "duration": 0.22582800000000702
                },
                {
                    "name": "E3",
                    "midi": 52,
                    "time": 207.510839999999,
                    "velocity": 0.31496062992125984,
                    "duration": 0.22582800000000702
                },
                {
                    "name": "C3",
                    "midi": 48,
                    "time": 207.76175999999901,
                    "velocity": 0.30708661417322836,
                    "duration": 0.5018399999999872
                },
                {
                    "name": "E3",
                    "midi": 52,
                    "time": 207.76175999999901,
                    "velocity": 0.36220472440944884,
                    "duration": 0.5018399999999872
                },
                {
                    "name": "D3",
                    "midi": 50,
                    "time": 208.263599999999,
                    "velocity": 0.2677165354330709,
                    "duration": 0.1254600000000039
                },
                {
                    "name": "F3",
                    "midi": 53,
                    "time": 208.263599999999,
                    "velocity": 0.3228346456692913,
                    "duration": 0.1254600000000039
                },
                {
                    "name": "E3",
                    "midi": 52,
                    "time": 208.514519999999,
                    "velocity": 0.28346456692913385,
                    "duration": 0.1254600000000039
                },
                {
                    "name": "G3",
                    "midi": 55,
                    "time": 208.514519999999,
                    "velocity": 0.33858267716535434,
                    "duration": 0.1254600000000039
                },
                {
                    "name": "F3",
                    "midi": 53,
                    "time": 208.76543999999902,
                    "velocity": 0.30708661417322836,
                    "duration": 0.1254600000000039
                },
                {
                    "name": "A3",
                    "midi": 57,
                    "time": 208.76543999999902,
                    "velocity": 0.36220472440944884,
                    "duration": 0.1254600000000039
                },
                {
                    "name": "E3",
                    "midi": 52,
                    "time": 209.26727999999903,
                    "velocity": 0.2677165354330709,
                    "duration": 0.1254600000000039
                },
                {
                    "name": "G3",
                    "midi": 55,
                    "time": 209.26727999999903,
                    "velocity": 0.31496062992125984,
                    "duration": 0.1254600000000039
                },
                {
                    "name": "G3",
                    "midi": 55,
                    "time": 209.76911999999905,
                    "velocity": 0.29133858267716534,
                    "duration": 0.5018399999999872
                },
                {
                    "name": "B3",
                    "midi": 59,
                    "time": 209.76911999999905,
                    "velocity": 0.3464566929133858,
                    "duration": 0.5018399999999872
                },
                {
                    "name": "C4",
                    "midi": 60,
                    "time": 210.27095999999904,
                    "velocity": 0.3228346456692913,
                    "duration": 0.1254600000000039
                },
                {
                    "name": "A3",
                    "midi": 57,
                    "time": 210.27095999999904,
                    "velocity": 0.2677165354330709,
                    "duration": 0.1254600000000039
                },
                {
                    "name": "B3",
                    "midi": 59,
                    "time": 210.52187999999904,
                    "velocity": 0.29133858267716534,
                    "duration": 0.1254600000000039
                },
                {
                    "name": "D4",
                    "midi": 62,
                    "time": 210.52187999999904,
                    "velocity": 0.3464566929133858,
                    "duration": 0.1254600000000039
                },
                {
                    "name": "F4",
                    "midi": 65,
                    "time": 210.77279999999905,
                    "velocity": 0.3700787401574803,
                    "duration": 0.5018399999999872
                },
                {
                    "name": "C4",
                    "midi": 60,
                    "time": 210.77279999999905,
                    "velocity": 0.30708661417322836,
                    "duration": 0.5018399999999872
                },
                {
                    "name": "E4",
                    "midi": 64,
                    "time": 211.27463999999904,
                    "velocity": 0.3464566929133858,
                    "duration": 0.1254600000000039
                },
                {
                    "name": "C4",
                    "midi": 60,
                    "time": 211.27463999999904,
                    "velocity": 0.29133858267716534,
                    "duration": 0.1254600000000039
                },
                {
                    "name": "D4",
                    "midi": 62,
                    "time": 211.52555999999905,
                    "velocity": 0.31496062992125984,
                    "duration": 0.1254600000000039
                },
                {
                    "name": "G3",
                    "midi": 55,
                    "time": 211.52555999999905,
                    "velocity": 0.2677165354330709,
                    "duration": 0.1254600000000039
                },
                {
                    "name": "E4",
                    "midi": 64,
                    "time": 211.77647999999905,
                    "velocity": 0.3858267716535433,
                    "duration": 0.5018399999999872
                },
                {
                    "name": "C4",
                    "midi": 60,
                    "time": 211.77647999999905,
                    "velocity": 0.3228346456692913,
                    "duration": 0.5018399999999872
                },
                {
                    "name": "D4",
                    "midi": 62,
                    "time": 212.27831999999904,
                    "velocity": 0.33070866141732286,
                    "duration": 0.1254600000000039
                },
                {
                    "name": "G3",
                    "midi": 55,
                    "time": 212.27831999999904,
                    "velocity": 0.2755905511811024,
                    "duration": 0.1254600000000039
                },
                {
                    "name": "E3",
                    "midi": 52,
                    "time": 212.52923999999905,
                    "velocity": 0.2755905511811024,
                    "duration": 0.1254600000000039
                },
                {
                    "name": "C4",
                    "midi": 60,
                    "time": 212.52923999999905,
                    "velocity": 0.33070866141732286,
                    "duration": 0.1254600000000039
                },
                {
                    "name": "B3",
                    "midi": 59,
                    "time": 212.78015999999906,
                    "velocity": 0.3858267716535433,
                    "duration": 0.752759999999995
                },
                {
                    "name": "G3",
                    "midi": 55,
                    "time": 212.78015999999906,
                    "velocity": 0.3228346456692913,
                    "duration": 0.752759999999995
                },
                {
                    "name": "E4",
                    "midi": 64,
                    "time": 213.53291999999905,
                    "velocity": 0.3464566929133858,
                    "duration": 0.22582800000000702
                },
                {
                    "name": "C4",
                    "midi": 60,
                    "time": 213.53291999999905,
                    "velocity": 0.29133858267716534,
                    "duration": 0.22582800000000702
                },
                {
                    "name": "E4",
                    "midi": 64,
                    "time": 213.78383999999906,
                    "velocity": 0.41732283464566927,
                    "duration": 0.7318500000000085
                },
                {
                    "name": "C4",
                    "midi": 60,
                    "time": 213.78383999999906,
                    "velocity": 0.3543307086614173,
                    "duration": 0.752759999999995
                },
                {
                    "name": "G4",
                    "midi": 67,
                    "time": 214.53659999999905,
                    "velocity": 0.3700787401574803,
                    "duration": 0.22582800000000702
                },
                {
                    "name": "E4",
                    "midi": 64,
                    "time": 214.53659999999905,
                    "velocity": 0.30708661417322836,
                    "duration": 0.22582800000000702
                },
                {
                    "name": "G4",
                    "midi": 67,
                    "time": 214.78751999999906,
                    "velocity": 0.4251968503937008,
                    "duration": 0.5018399999999872
                },
                {
                    "name": "E4",
                    "midi": 64,
                    "time": 214.78751999999906,
                    "velocity": 0.3543307086614173,
                    "duration": 0.5018399999999872
                },
                {
                    "name": "F4",
                    "midi": 65,
                    "time": 215.28935999999905,
                    "velocity": 0.3937007874015748,
                    "duration": 0.1254600000000039
                },
                {
                    "name": "D3",
                    "midi": 50,
                    "time": 215.79119999999907,
                    "velocity": 0.30708661417322836,
                    "duration": 0.5018399999999872
                },
                {
                    "name": "F3",
                    "midi": 53,
                    "time": 215.79119999999907,
                    "velocity": 0.36220472440944884,
                    "duration": 0.5018399999999872
                },
                {
                    "name": "E3",
                    "midi": 52,
                    "time": 216.29303999999905,
                    "velocity": 0.2677165354330709,
                    "duration": 0.1254600000000039
                },
                {
                    "name": "G3",
                    "midi": 55,
                    "time": 216.29303999999905,
                    "velocity": 0.3228346456692913,
                    "duration": 0.1254600000000039
                },
                {
                    "name": "F3",
                    "midi": 53,
                    "time": 216.54395999999906,
                    "velocity": 0.28346456692913385,
                    "duration": 0.1254600000000039
                },
                {
                    "name": "A3",
                    "midi": 57,
                    "time": 216.54395999999906,
                    "velocity": 0.33858267716535434,
                    "duration": 0.1254600000000039
                },
                {
                    "name": "G3",
                    "midi": 55,
                    "time": 216.79487999999907,
                    "velocity": 0.30708661417322836,
                    "duration": 0.1254600000000039
                },
                {
                    "name": "A#3",
                    "midi": 58,
                    "time": 216.79487999999907,
                    "velocity": 0.36220472440944884,
                    "duration": 0.1254600000000039
                },
                {
                    "name": "F3",
                    "midi": 53,
                    "time": 217.29671999999908,
                    "velocity": 0.2677165354330709,
                    "duration": 0.1254600000000039
                },
                {
                    "name": "A3",
                    "midi": 57,
                    "time": 217.29671999999908,
                    "velocity": 0.31496062992125984,
                    "duration": 0.1254600000000039
                },
                {
                    "name": "A3",
                    "midi": 57,
                    "time": 217.7985599999991,
                    "velocity": 0.29133858267716534,
                    "duration": 0.5018399999999872
                },
                {
                    "name": "C#4",
                    "midi": 61,
                    "time": 217.7985599999991,
                    "velocity": 0.3464566929133858,
                    "duration": 0.5018399999999872
                },
                {
                    "name": "D4",
                    "midi": 62,
                    "time": 218.3003999999991,
                    "velocity": 0.3228346456692913,
                    "duration": 0.1254600000000039
                },
                {
                    "name": "B3",
                    "midi": 59,
                    "time": 218.3003999999991,
                    "velocity": 0.2677165354330709,
                    "duration": 0.1254600000000039
                },
                {
                    "name": "C#4",
                    "midi": 61,
                    "time": 218.5513199999991,
                    "velocity": 0.29133858267716534,
                    "duration": 0.1254600000000039
                },
                {
                    "name": "E4",
                    "midi": 64,
                    "time": 218.5513199999991,
                    "velocity": 0.3464566929133858,
                    "duration": 0.1254600000000039
                },
                {
                    "name": "G4",
                    "midi": 67,
                    "time": 218.8022399999991,
                    "velocity": 0.3700787401574803,
                    "duration": 0.5018399999999872
                },
                {
                    "name": "D4",
                    "midi": 62,
                    "time": 218.8022399999991,
                    "velocity": 0.30708661417322836,
                    "duration": 0.5018399999999872
                },
                {
                    "name": "F4",
                    "midi": 65,
                    "time": 219.3040799999991,
                    "velocity": 0.3464566929133858,
                    "duration": 0.1254600000000039
                },
                {
                    "name": "D4",
                    "midi": 62,
                    "time": 219.3040799999991,
                    "velocity": 0.29133858267716534,
                    "duration": 0.1254600000000039
                },
                {
                    "name": "E4",
                    "midi": 64,
                    "time": 219.5549999999991,
                    "velocity": 0.31496062992125984,
                    "duration": 0.1254600000000039
                },
                {
                    "name": "A3",
                    "midi": 57,
                    "time": 219.5549999999991,
                    "velocity": 0.2677165354330709,
                    "duration": 0.1254600000000039
                },
                {
                    "name": "F4",
                    "midi": 65,
                    "time": 219.8059199999991,
                    "velocity": 0.3858267716535433,
                    "duration": 0.5018399999999872
                },
                {
                    "name": "D4",
                    "midi": 62,
                    "time": 219.8059199999991,
                    "velocity": 0.3228346456692913,
                    "duration": 0.5018399999999872
                },
                {
                    "name": "E4",
                    "midi": 64,
                    "time": 220.3077599999991,
                    "velocity": 0.33070866141732286,
                    "duration": 0.1254600000000039
                },
                {
                    "name": "A3",
                    "midi": 57,
                    "time": 220.3077599999991,
                    "velocity": 0.2755905511811024,
                    "duration": 0.1254600000000039
                },
                {
                    "name": "F3",
                    "midi": 53,
                    "time": 220.5586799999991,
                    "velocity": 0.2755905511811024,
                    "duration": 0.1254600000000039
                },
                {
                    "name": "D4",
                    "midi": 62,
                    "time": 220.5586799999991,
                    "velocity": 0.33070866141732286,
                    "duration": 0.1254600000000039
                },
                {
                    "name": "C#4",
                    "midi": 61,
                    "time": 220.8095999999991,
                    "velocity": 0.3858267716535433,
                    "duration": 0.752759999999995
                },
                {
                    "name": "A3",
                    "midi": 57,
                    "time": 220.8095999999991,
                    "velocity": 0.3228346456692913,
                    "duration": 0.752759999999995
                },
                {
                    "name": "F4",
                    "midi": 65,
                    "time": 221.5623599999991,
                    "velocity": 0.3464566929133858,
                    "duration": 0.22582800000000702
                },
                {
                    "name": "D4",
                    "midi": 62,
                    "time": 221.5623599999991,
                    "velocity": 0.29133858267716534,
                    "duration": 0.22582800000000702
                },
                {
                    "name": "F4",
                    "midi": 65,
                    "time": 221.8132799999991,
                    "velocity": 0.41732283464566927,
                    "duration": 0.7318500000000085
                },
                {
                    "name": "D4",
                    "midi": 62,
                    "time": 221.8132799999991,
                    "velocity": 0.3543307086614173,
                    "duration": 0.7318500000000085
                },
                {
                    "name": "A4",
                    "midi": 69,
                    "time": 222.5660399999991,
                    "velocity": 0.3700787401574803,
                    "duration": 0.22582800000000702
                },
                {
                    "name": "F4",
                    "midi": 65,
                    "time": 222.5660399999991,
                    "velocity": 0.30708661417322836,
                    "duration": 0.22582800000000702
                },
                {
                    "name": "A4",
                    "midi": 69,
                    "time": 222.8169599999991,
                    "velocity": 0.4251968503937008,
                    "duration": 0.5018399999999872
                },
                {
                    "name": "F#4",
                    "midi": 66,
                    "time": 222.8169599999991,
                    "velocity": 0.3543307086614173,
                    "duration": 0.5018399999999872
                },
                {
                    "name": "G4",
                    "midi": 67,
                    "time": 223.3187999999991,
                    "velocity": 0.3937007874015748,
                    "duration": 0.1254600000000039
                },
                {
                    "name": "E3",
                    "midi": 52,
                    "time": 223.82063999999912,
                    "velocity": 0.29133858267716534,
                    "duration": 0.5018399999999872
                },
                {
                    "name": "G3",
                    "midi": 55,
                    "time": 223.82063999999912,
                    "velocity": 0.3464566929133858,
                    "duration": 0.5018399999999872
                },
                {
                    "name": "A3",
                    "midi": 57,
                    "time": 224.3224799999991,
                    "velocity": 0.3228346456692913,
                    "duration": 0.1254600000000039
                },
                {
                    "name": "F#3",
                    "midi": 54,
                    "time": 224.3224799999991,
                    "velocity": 0.2677165354330709,
                    "duration": 0.1254600000000039
                },
                {
                    "name": "G3",
                    "midi": 55,
                    "time": 224.5733999999991,
                    "velocity": 0.29133858267716534,
                    "duration": 0.1254600000000039
                },
                {
                    "name": "B3",
                    "midi": 59,
                    "time": 224.5733999999991,
                    "velocity": 0.3464566929133858,
                    "duration": 0.1254600000000039
                },
                {
                    "name": "C4",
                    "midi": 60,
                    "time": 224.82431999999912,
                    "velocity": 0.4251968503937008,
                    "duration": 0.752759999999995
                },
                {
                    "name": "A3",
                    "midi": 57,
                    "time": 224.82431999999912,
                    "velocity": 0.3543307086614173,
                    "duration": 0.752759999999995
                },
                {
                    "name": "G3",
                    "midi": 55,
                    "time": 225.82799999999912,
                    "velocity": 0.3464566929133858,
                    "duration": 0.5018399999999872
                },
                {
                    "name": "E4",
                    "midi": 64,
                    "time": 225.82799999999912,
                    "velocity": 0.4094488188976378,
                    "duration": 0.5018399999999872
                },
                {
                    "name": "F#4",
                    "midi": 66,
                    "time": 226.3298399999991,
                    "velocity": 0.36220472440944884,
                    "duration": 0.1254600000000039
                },
                {
                    "name": "A3",
                    "midi": 57,
                    "time": 226.3298399999991,
                    "velocity": 0.30708661417322836,
                    "duration": 0.1254600000000039
                },
                {
                    "name": "B3",
                    "midi": 59,
                    "time": 226.58075999999912,
                    "velocity": 0.3228346456692913,
                    "duration": 0.1254600000000039
                },
                {
                    "name": "G4",
                    "midi": 67,
                    "time": 226.58075999999912,
                    "velocity": 0.3858267716535433,
                    "duration": 0.1254600000000039
                },
                {
                    "name": "C4",
                    "midi": 60,
                    "time": 226.83167999999912,
                    "velocity": 0.4015748031496063,
                    "duration": 0.5018399999999872
                },
                {
                    "name": "A4",
                    "midi": 69,
                    "time": 226.83167999999912,
                    "velocity": 0.47244094488188976,
                    "duration": 0.5018399999999872
                },
                {
                    "name": "D#4",
                    "midi": 63,
                    "time": 226.83167999999912,
                    "velocity": 0.4015748031496063,
                    "duration": 0.5018399999999872
                },
                {
                    "name": "C4",
                    "midi": 60,
                    "time": 227.58443999999912,
                    "velocity": 0.3700787401574803,
                    "duration": 0.2509200000000078
                },
                {
                    "name": "D#4",
                    "midi": 63,
                    "time": 227.58443999999912,
                    "velocity": 0.3700787401574803,
                    "duration": 0.2509200000000078
                },
                {
                    "name": "A4",
                    "midi": 69,
                    "time": 227.58443999999912,
                    "velocity": 0.4409448818897638,
                    "duration": 0.2509200000000078
                },
                {
                    "name": "C#4",
                    "midi": 61,
                    "time": 227.83535999999913,
                    "velocity": 0.4251968503937008,
                    "duration": 0.5018399999999872
                },
                {
                    "name": "A#4",
                    "midi": 70,
                    "time": 227.83535999999913,
                    "velocity": 0.5039370078740157,
                    "duration": 0.5018399999999872
                },
                {
                    "name": "E4",
                    "midi": 64,
                    "time": 227.83535999999913,
                    "velocity": 0.4251968503937008,
                    "duration": 0.5018399999999872
                },
                {
                    "name": "D#3",
                    "midi": 51,
                    "time": 229.59179999999913,
                    "velocity": 0.3937007874015748,
                    "duration": 0.22582800000000702
                },
                {
                    "name": "B2",
                    "midi": 47,
                    "time": 229.59179999999913,
                    "velocity": 0.3937007874015748,
                    "duration": 0.22582800000000702
                },
                {
                    "name": "D#3",
                    "midi": 51,
                    "time": 229.84271999999913,
                    "velocity": 0.4566929133858268,
                    "duration": 0.5018399999999872
                },
                {
                    "name": "B2",
                    "midi": 47,
                    "time": 229.84271999999913,
                    "velocity": 0.4566929133858268,
                    "duration": 0.5018399999999872
                },
                {
                    "name": "C#3",
                    "midi": 49,
                    "time": 230.34455999999912,
                    "velocity": 0.4015748031496063,
                    "duration": 0.1254600000000039
                },
                {
                    "name": "E3",
                    "midi": 52,
                    "time": 230.34455999999912,
                    "velocity": 0.4015748031496063,
                    "duration": 0.1254600000000039
                },
                {
                    "name": "D#3",
                    "midi": 51,
                    "time": 230.59547999999913,
                    "velocity": 0.41732283464566927,
                    "duration": 0.1254600000000039
                },
                {
                    "name": "F#3",
                    "midi": 54,
                    "time": 230.59547999999913,
                    "velocity": 0.41732283464566927,
                    "duration": 0.1254600000000039
                },
                {
                    "name": "E3",
                    "midi": 52,
                    "time": 230.84639999999914,
                    "velocity": 0.48031496062992124,
                    "duration": 0.5018399999999872
                },
                {
                    "name": "G#3",
                    "midi": 56,
                    "time": 230.84639999999914,
                    "velocity": 0.48031496062992124,
                    "duration": 0.5018399999999872
                },
                {
                    "name": "B3",
                    "midi": 59,
                    "time": 231.34823999999912,
                    "velocity": 0.4251968503937008,
                    "duration": 0.1254600000000039
                },
                {
                    "name": "G#3",
                    "midi": 56,
                    "time": 231.34823999999912,
                    "velocity": 0.4251968503937008,
                    "duration": 0.1254600000000039
                },
                {
                    "name": "C#4",
                    "midi": 61,
                    "time": 231.59915999999913,
                    "velocity": 0.4566929133858268,
                    "duration": 0.1254600000000039
                },
                {
                    "name": "A3",
                    "midi": 57,
                    "time": 231.59915999999913,
                    "velocity": 0.4566929133858268,
                    "duration": 0.1254600000000039
                },
                {
                    "name": "D#4",
                    "midi": 63,
                    "time": 231.85007999999914,
                    "velocity": 0.48031496062992124,
                    "duration": 0.5018399999999872
                },
                {
                    "name": "B3",
                    "midi": 59,
                    "time": 231.85007999999914,
                    "velocity": 0.48031496062992124,
                    "duration": 0.5018399999999872
                },
                {
                    "name": "C#4",
                    "midi": 61,
                    "time": 232.35191999999913,
                    "velocity": 0.4645669291338583,
                    "duration": 0.1254600000000039
                },
                {
                    "name": "E4",
                    "midi": 64,
                    "time": 232.35191999999913,
                    "velocity": 0.4645669291338583,
                    "duration": 0.1254600000000039
                },
                {
                    "name": "D#4",
                    "midi": 63,
                    "time": 232.60283999999913,
                    "velocity": 0.48031496062992124,
                    "duration": 0.1254600000000039
                },
                {
                    "name": "F#4",
                    "midi": 66,
                    "time": 232.60283999999913,
                    "velocity": 0.48031496062992124,
                    "duration": 0.1254600000000039
                },
                {
                    "name": "E4",
                    "midi": 64,
                    "time": 232.85375999999914,
                    "velocity": 0.49606299212598426,
                    "duration": 0.5018399999999872
                },
                {
                    "name": "G#4",
                    "midi": 68,
                    "time": 232.85375999999914,
                    "velocity": 0.49606299212598426,
                    "duration": 0.5018399999999872
                },
                {
                    "name": "F#4",
                    "midi": 66,
                    "time": 233.35559999999913,
                    "velocity": 0.48031496062992124,
                    "duration": 0.1254600000000039
                },
                {
                    "name": "A4",
                    "midi": 69,
                    "time": 233.35559999999913,
                    "velocity": 0.48031496062992124,
                    "duration": 0.1254600000000039
                },
                {
                    "name": "G#4",
                    "midi": 68,
                    "time": 233.60651999999914,
                    "velocity": 0.5039370078740157,
                    "duration": 0.1254600000000039
                },
                {
                    "name": "B4",
                    "midi": 71,
                    "time": 233.60651999999914,
                    "velocity": 0.5039370078740157,
                    "duration": 0.1254600000000039
                },
                {
                    "name": "A4",
                    "midi": 69,
                    "time": 233.85743999999914,
                    "velocity": 0.5433070866141733,
                    "duration": 0.2509200000000078
                },
                {
                    "name": "C5",
                    "midi": 72,
                    "time": 233.85743999999914,
                    "velocity": 0.5433070866141733,
                    "duration": 0.2509200000000078
                },
                {
                    "name": "A#4",
                    "midi": 70,
                    "time": 234.10835999999915,
                    "velocity": 0.49606299212598426,
                    "duration": 0.22582800000000702
                },
                {
                    "name": "C#5",
                    "midi": 73,
                    "time": 234.10835999999915,
                    "velocity": 0.49606299212598426,
                    "duration": 0.22582800000000702
                },
                {
                    "name": "A#4",
                    "midi": 70,
                    "time": 234.35927999999916,
                    "velocity": 0.49606299212598426,
                    "duration": 0.752759999999995
                },
                {
                    "name": "C#5",
                    "midi": 73,
                    "time": 234.35927999999916,
                    "velocity": 0.49606299212598426,
                    "duration": 0.752759999999995
                },
                {
                    "name": "A4",
                    "midi": 69,
                    "time": 235.11203999999915,
                    "velocity": 0.47244094488188976,
                    "duration": 0.22582800000000702
                },
                {
                    "name": "C5",
                    "midi": 72,
                    "time": 235.11203999999915,
                    "velocity": 0.47244094488188976,
                    "duration": 0.22582800000000702
                },
                {
                    "name": "A4",
                    "midi": 69,
                    "time": 235.36295999999916,
                    "velocity": 0.49606299212598426,
                    "duration": 0.2509200000000078
                },
                {
                    "name": "C5",
                    "midi": 72,
                    "time": 235.36295999999916,
                    "velocity": 0.49606299212598426,
                    "duration": 0.2509200000000078
                },
                {
                    "name": "A#4",
                    "midi": 70,
                    "time": 235.61387999999917,
                    "velocity": 0.44881889763779526,
                    "duration": 0.22582800000000702
                },
                {
                    "name": "C#5",
                    "midi": 73,
                    "time": 235.61387999999917,
                    "velocity": 0.44881889763779526,
                    "duration": 0.22582800000000702
                },
                {
                    "name": "A#4",
                    "midi": 70,
                    "time": 235.86479999999918,
                    "velocity": 0.44881889763779526,
                    "duration": 0.2509200000000078
                },
                {
                    "name": "C#5",
                    "midi": 73,
                    "time": 235.86479999999918,
                    "velocity": 0.44881889763779526,
                    "duration": 0.2509200000000078
                },
                {
                    "name": "B4",
                    "midi": 71,
                    "time": 236.1157199999992,
                    "velocity": 0.44881889763779526,
                    "duration": 0.22582800000000702
                },
                {
                    "name": "D5",
                    "midi": 74,
                    "time": 236.1157199999992,
                    "velocity": 0.44881889763779526,
                    "duration": 0.22582800000000702
                },
                {
                    "name": "B4",
                    "midi": 71,
                    "time": 236.3666399999992,
                    "velocity": 0.49606299212598426,
                    "duration": 0.752759999999995
                },
                {
                    "name": "D5",
                    "midi": 74,
                    "time": 236.3666399999992,
                    "velocity": 0.49606299212598426,
                    "duration": 0.752759999999995
                },
                {
                    "name": "A#4",
                    "midi": 70,
                    "time": 237.1193999999992,
                    "velocity": 0.49606299212598426,
                    "duration": 0.2509200000000078
                },
                {
                    "name": "C#5",
                    "midi": 73,
                    "time": 237.1193999999992,
                    "velocity": 0.49606299212598426,
                    "duration": 0.2509200000000078
                },
                {
                    "name": "A#4",
                    "midi": 70,
                    "time": 237.3703199999992,
                    "velocity": 0.5354330708661418,
                    "duration": 0.2509200000000078
                },
                {
                    "name": "C#5",
                    "midi": 73,
                    "time": 237.3703199999992,
                    "velocity": 0.5354330708661418,
                    "duration": 0.2509200000000078
                },
                {
                    "name": "B4",
                    "midi": 71,
                    "time": 237.6212399999992,
                    "velocity": 0.49606299212598426,
                    "duration": 0.22582800000000702
                },
                {
                    "name": "D5",
                    "midi": 74,
                    "time": 237.6212399999992,
                    "velocity": 0.49606299212598426,
                    "duration": 0.22582800000000702
                },
                {
                    "name": "B4",
                    "midi": 71,
                    "time": 237.8721599999992,
                    "velocity": 0.5118110236220472,
                    "duration": 0.2509200000000078
                },
                {
                    "name": "D5",
                    "midi": 74,
                    "time": 237.8721599999992,
                    "velocity": 0.5118110236220472,
                    "duration": 0.2509200000000078
                },
                {
                    "name": "C5",
                    "midi": 72,
                    "time": 238.12307999999922,
                    "velocity": 0.49606299212598426,
                    "duration": 0.2509200000000078
                },
                {
                    "name": "C5",
                    "midi": 72,
                    "time": 238.37399999999923,
                    "velocity": 0.5590551181102362,
                    "duration": 0.752759999999995
                },
                {
                    "name": "C#5",
                    "midi": 73,
                    "time": 239.12675999999922,
                    "velocity": 0.49606299212598426,
                    "duration": 0.22582800000000702
                },
                {
                    "name": "C#5",
                    "midi": 73,
                    "time": 239.37767999999923,
                    "velocity": 0.5590551181102362,
                    "duration": 0.2509200000000078
                },
                {
                    "name": "A#4",
                    "midi": 70,
                    "time": 239.62859999999924,
                    "velocity": 0.49606299212598426,
                    "duration": 0.22582800000000702
                },
                {
                    "name": "A#4",
                    "midi": 70,
                    "time": 239.87951999999925,
                    "velocity": 0.5275590551181102,
                    "duration": 0.2509200000000078
                },
                {
                    "name": "G4",
                    "midi": 67,
                    "time": 240.13043999999925,
                    "velocity": 0.49606299212598426,
                    "duration": 0.22582800000000702
                },
                {
                    "name": "G4",
                    "midi": 67,
                    "time": 240.38135999999926,
                    "velocity": 0.5748031496062992,
                    "duration": 0.2509200000000078
                },
                {
                    "name": "A#3",
                    "midi": 58,
                    "time": 240.63227999999927,
                    "velocity": 0.5275590551181102,
                    "duration": 0.2509200000000078
                },
                {
                    "name": "B3",
                    "midi": 59,
                    "time": 240.88319999999928,
                    "velocity": 0.5826771653543307,
                    "duration": 0.1254600000000039
                },
                {
                    "name": "B2",
                    "midi": 47,
                    "time": 241.13411999999929,
                    "velocity": 0.5511811023622047,
                    "duration": 0.2509200000000078
                },
                {
                    "name": "C4",
                    "midi": 60,
                    "time": 241.3850399999993,
                    "velocity": 0.5826771653543307,
                    "duration": 0.752759999999995
                },
                {
                    "name": "C3",
                    "midi": 48,
                    "time": 241.3850399999993,
                    "velocity": 0.4881889763779528,
                    "duration": 0.752759999999995
                },
                {
                    "name": "B1",
                    "midi": 35,
                    "time": 242.1377999999993,
                    "velocity": 0.5433070866141733,
                    "duration": 0.2509200000000078
                },
                {
                    "name": "C2",
                    "midi": 36,
                    "time": 242.3887199999993,
                    "velocity": 0.4881889763779528,
                    "duration": 0.5018399999999872
                },
                {
                    "name": "C3",
                    "midi": 48,
                    "time": 242.3887199999993,
                    "velocity": 0.5826771653543307,
                    "duration": 0.5018399999999872
                },
                {
                    "name": "B2",
                    "midi": 47,
                    "time": 243.1414799999993,
                    "velocity": 0.5433070866141733,
                    "duration": 0.2509200000000078
                },
                {
                    "name": "C3",
                    "midi": 48,
                    "time": 243.3923999999993,
                    "velocity": 0.4566929133858268,
                    "duration": 0.5018399999999872
                },
                {
                    "name": "C4",
                    "midi": 60,
                    "time": 243.3923999999993,
                    "velocity": 0.5433070866141733,
                    "duration": 0.5018399999999872
                },
                {
                    "name": "B1",
                    "midi": 35,
                    "time": 244.1451599999993,
                    "velocity": 0.5354330708661418,
                    "duration": 0.2509200000000078
                },
                {
                    "name": "C2",
                    "midi": 36,
                    "time": 244.3960799999993,
                    "velocity": 0.4881889763779528,
                    "duration": 0.5018399999999872
                },
                {
                    "name": "C3",
                    "midi": 48,
                    "time": 244.3960799999993,
                    "velocity": 0.5826771653543307,
                    "duration": 0.5018399999999872
                },
                {
                    "name": "B1",
                    "midi": 35,
                    "time": 244.8979199999993,
                    "velocity": 0.5039370078740157,
                    "duration": 0.1254600000000039
                },
                {
                    "name": "B2",
                    "midi": 47,
                    "time": 244.8979199999993,
                    "velocity": 0.5984251968503937,
                    "duration": 0.1254600000000039
                },
                {
                    "name": "B2",
                    "midi": 47,
                    "time": 245.3997599999993,
                    "velocity": 0.5118110236220472,
                    "duration": 0.1254600000000039
                },
                {
                    "name": "D#3",
                    "midi": 51,
                    "time": 245.3997599999993,
                    "velocity": 0.5118110236220472,
                    "duration": 0.1254600000000039
                },
                {
                    "name": "F#3",
                    "midi": 54,
                    "time": 245.3997599999993,
                    "velocity": 0.5118110236220472,
                    "duration": 0.1254600000000039
                },
                {
                    "name": "B3",
                    "midi": 59,
                    "time": 245.3997599999993,
                    "velocity": 0.6062992125984252,
                    "duration": 0.1254600000000039
                },
                {
                    "name": "C4",
                    "midi": 60,
                    "time": 247.1561999999993,
                    "velocity": 0.5039370078740157,
                    "duration": 0.2509200000000078
                },
                {
                    "name": "E4",
                    "midi": 64,
                    "time": 247.4071199999993,
                    "velocity": 0.5511811023622047,
                    "duration": 0.2509200000000078
                },
                {
                    "name": "E5",
                    "midi": 76,
                    "time": 247.65803999999932,
                    "velocity": 0.49606299212598426,
                    "duration": 0.2509200000000078
                },
                {
                    "name": "B3",
                    "midi": 59,
                    "time": 249.16355999999934,
                    "velocity": 0.2992125984251969,
                    "duration": 0.2509200000000078
                },
                {
                    "name": "D#4",
                    "midi": 63,
                    "time": 249.41447999999934,
                    "velocity": 0.33070866141732286,
                    "duration": 0.2509200000000078
                },
                {
                    "name": "D#5",
                    "midi": 75,
                    "time": 249.66539999999935,
                    "velocity": 0.29133858267716534,
                    "duration": 0.2509200000000078
                },
                {
                    "name": "C4",
                    "midi": 60,
                    "time": 251.17091999999937,
                    "velocity": 0.2047244094488189,
                    "duration": 0.2509200000000078
                },
                {
                    "name": "E4",
                    "midi": 64,
                    "time": 251.42183999999938,
                    "velocity": 0.2204724409448819,
                    "duration": 0.2509200000000078
                },
                {
                    "name": "C4",
                    "midi": 60,
                    "time": 251.67275999999939,
                    "velocity": 0.1732283464566929,
                    "duration": 0.2509200000000078
                },
                {
                    "name": "E4",
                    "midi": 64,
                    "time": 251.9236799999994,
                    "velocity": 0.2204724409448819,
                    "duration": 0.2509200000000078
                },
                {
                    "name": "C4",
                    "midi": 60,
                    "time": 252.1745999999994,
                    "velocity": 0.16535433070866143,
                    "duration": 0.2509200000000078
                },
                {
                    "name": "E4",
                    "midi": 64,
                    "time": 252.4255199999994,
                    "velocity": 0.1889763779527559,
                    "duration": 0.2509200000000078
                },
                {
                    "name": "A4",
                    "midi": 69,
                    "time": 252.67643999999942,
                    "velocity": 0.15748031496062992,
                    "duration": 0.2509200000000078
                },
                {
                    "name": "D4",
                    "midi": 62,
                    "time": 253.17827999999943,
                    "velocity": 0.18110236220472442,
                    "duration": 0.2509200000000078
                },
                {
                    "name": "F4",
                    "midi": 65,
                    "time": 253.42919999999944,
                    "velocity": 0.2125984251968504,
                    "duration": 0.2509200000000078
                },
                {
                    "name": "D4",
                    "midi": 62,
                    "time": 253.68011999999945,
                    "velocity": 0.1732283464566929,
                    "duration": 0.2509200000000078
                },
                {
                    "name": "F4",
                    "midi": 65,
                    "time": 253.93103999999946,
                    "velocity": 0.2125984251968504,
                    "duration": 0.2509200000000078
                },
                {
                    "name": "D4",
                    "midi": 62,
                    "time": 254.18195999999946,
                    "velocity": 0.1889763779527559,
                    "duration": 0.2509200000000078
                },
                {
                    "name": "F4",
                    "midi": 65,
                    "time": 254.43287999999947,
                    "velocity": 0.1889763779527559,
                    "duration": 0.2509200000000078
                },
                {
                    "name": "A4",
                    "midi": 69,
                    "time": 254.68379999999948,
                    "velocity": 0.15748031496062992,
                    "duration": 0.2509200000000078
                },
                {
                    "name": "E3",
                    "midi": 52,
                    "time": 255.1856399999995,
                    "velocity": 0.1889763779527559,
                    "duration": 0.2509200000000078
                },
                {
                    "name": "G#3",
                    "midi": 56,
                    "time": 255.4365599999995,
                    "velocity": 0.2125984251968504,
                    "duration": 0.2509200000000078
                },
                {
                    "name": "E3",
                    "midi": 52,
                    "time": 255.6874799999995,
                    "velocity": 0.1889763779527559,
                    "duration": 0.2509200000000078
                },
                {
                    "name": "G#3",
                    "midi": 56,
                    "time": 255.93839999999952,
                    "velocity": 0.2125984251968504,
                    "duration": 0.2509199999999794
                },
                {
                    "name": "E3",
                    "midi": 52,
                    "time": 256.1893199999995,
                    "velocity": 0.18110236220472442,
                    "duration": 0.2509200000000078
                },
                {
                    "name": "G#3",
                    "midi": 56,
                    "time": 256.4402399999995,
                    "velocity": 0.18110236220472442,
                    "duration": 0.2509200000000078
                },
                {
                    "name": "D4",
                    "midi": 62,
                    "time": 256.6911599999995,
                    "velocity": 0.14960629921259844,
                    "duration": 0.2509200000000078
                },
                {
                    "name": "A3",
                    "midi": 57,
                    "time": 257.19299999999953,
                    "velocity": 0.18110236220472442,
                    "duration": 0.2509200000000078
                },
                {
                    "name": "E4",
                    "midi": 64,
                    "time": 257.44391999999954,
                    "velocity": 0.2125984251968504,
                    "duration": 0.2509200000000078
                },
                {
                    "name": "A3",
                    "midi": 57,
                    "time": 257.69483999999954,
                    "velocity": 0.1889763779527559,
                    "duration": 0.2509200000000078
                },
                {
                    "name": "E4",
                    "midi": 64,
                    "time": 257.94575999999955,
                    "velocity": 0.2125984251968504,
                    "duration": 0.2509200000000078
                },
                {
                    "name": "A3",
                    "midi": 57,
                    "time": 258.19667999999956,
                    "velocity": 0.1732283464566929,
                    "duration": 0.2509200000000078
                },
                {
                    "name": "E4",
                    "midi": 64,
                    "time": 258.44759999999957,
                    "velocity": 0.1732283464566929,
                    "duration": 0.2509200000000078
                },
                {
                    "name": "A4",
                    "midi": 69,
                    "time": 258.6985199999996,
                    "velocity": 0.15748031496062992,
                    "duration": 0.2509200000000078
                },
                {
                    "name": "A2",
                    "midi": 45,
                    "time": 259.2003599999996,
                    "velocity": 0.2283464566929134,
                    "duration": 0.2509200000000078
                },
                {
                    "name": "E3",
                    "midi": 52,
                    "time": 259.4512799999996,
                    "velocity": 0.25196850393700787,
                    "duration": 0.2509200000000078
                },
                {
                    "name": "A2",
                    "midi": 45,
                    "time": 259.7021999999996,
                    "velocity": 0.2204724409448819,
                    "duration": 0.2509200000000078
                },
                {
                    "name": "E3",
                    "midi": 52,
                    "time": 259.9531199999996,
                    "velocity": 0.25196850393700787,
                    "duration": 0.2509200000000078
                },
                {
                    "name": "A2",
                    "midi": 45,
                    "time": 260.2040399999996,
                    "velocity": 0.2125984251968504,
                    "duration": 0.2509200000000078
                },
                {
                    "name": "E3",
                    "midi": 52,
                    "time": 260.45495999999963,
                    "velocity": 0.2125984251968504,
                    "duration": 0.2509200000000078
                },
                {
                    "name": "F#3",
                    "midi": 54,
                    "time": 260.70587999999964,
                    "velocity": 0.2125984251968504,
                    "duration": 0.2509200000000078
                },
                {
                    "name": "G2",
                    "midi": 43,
                    "time": 261.20771999999965,
                    "velocity": 0.2047244094488189,
                    "duration": 0.2509200000000078
                },
                {
                    "name": "E3",
                    "midi": 52,
                    "time": 261.45863999999966,
                    "velocity": 0.2440944881889764,
                    "duration": 0.2509200000000078
                },
                {
                    "name": "G3",
                    "midi": 55,
                    "time": 261.70955999999967,
                    "velocity": 0.2125984251968504,
                    "duration": 0.2509200000000078
                },
                {
                    "name": "C4",
                    "midi": 60,
                    "time": 261.9604799999997,
                    "velocity": 0.30708661417322836,
                    "duration": 0.2509200000000078
                },
                {
                    "name": "G3",
                    "midi": 55,
                    "time": 262.2113999999997,
                    "velocity": 0.2677165354330709,
                    "duration": 0.2509200000000078
                },
                {
                    "name": "E3",
                    "midi": 52,
                    "time": 262.4623199999997,
                    "velocity": 0.29133858267716534,
                    "duration": 0.2509200000000078
                },
                {
                    "name": "C3",
                    "midi": 48,
                    "time": 262.7132399999997,
                    "velocity": 0.31496062992125984,
                    "duration": 0.2509200000000078
                },
                {
                    "name": "F#2",
                    "midi": 42,
                    "time": 262.9641599999997,
                    "velocity": 0.3464566929133858,
                    "duration": 0.2509200000000078
                },
                {
                    "name": "B2",
                    "midi": 47,
                    "time": 263.2150799999997,
                    "velocity": 0.2992125984251969,
                    "duration": 0.2509200000000078
                },
                {
                    "name": "E3",
                    "midi": 52,
                    "time": 263.4659999999997,
                    "velocity": 0.2992125984251969,
                    "duration": 0.2509200000000078
                },
                {
                    "name": "G3",
                    "midi": 55,
                    "time": 263.71691999999973,
                    "velocity": 0.2992125984251969,
                    "duration": 0.2509200000000078
                },
                {
                    "name": "E2",
                    "midi": 40,
                    "time": 263.96783999999974,
                    "velocity": 0.4015748031496063,
                    "duration": 0.2509200000000078
                },
                {
                    "name": "B2",
                    "midi": 47,
                    "time": 264.21875999999975,
                    "velocity": 0.31496062992125984,
                    "duration": 0.2509200000000078
                },
                {
                    "name": "E3",
                    "midi": 52,
                    "time": 264.46967999999976,
                    "velocity": 0.33070866141732286,
                    "duration": 0.2509200000000078
                },
                {
                    "name": "G3",
                    "midi": 55,
                    "time": 264.72059999999976,
                    "velocity": 0.33070866141732286,
                    "duration": 0.2509200000000078
                },
                {
                    "name": "B1",
                    "midi": 35,
                    "time": 264.97151999999977,
                    "velocity": 0.44881889763779526,
                    "duration": 0.2509200000000078
                },
                {
                    "name": "B2",
                    "midi": 47,
                    "time": 265.2224399999998,
                    "velocity": 0.3464566929133858,
                    "duration": 0.2509200000000078
                },
                {
                    "name": "D3",
                    "midi": 50,
                    "time": 265.4733599999998,
                    "velocity": 0.3464566929133858,
                    "duration": 0.2509200000000078
                },
                {
                    "name": "G3",
                    "midi": 55,
                    "time": 265.7242799999998,
                    "velocity": 0.3464566929133858,
                    "duration": 0.2509200000000078
                },
                {
                    "name": "G4",
                    "midi": 67,
                    "time": 265.9751999999998,
                    "velocity": 0.41732283464566927,
                    "duration": 0.2509200000000078
                },
                {
                    "name": "D4",
                    "midi": 62,
                    "time": 266.2261199999998,
                    "velocity": 0.3464566929133858,
                    "duration": 0.2509200000000078
                },
                {
                    "name": "B3",
                    "midi": 59,
                    "time": 266.4770399999998,
                    "velocity": 0.3464566929133858,
                    "duration": 0.2509200000000078
                },
                {
                    "name": "G3",
                    "midi": 55,
                    "time": 266.7279599999998,
                    "velocity": 0.3464566929133858,
                    "duration": 0.2509200000000078
                },
                {
                    "name": "B2",
                    "midi": 47,
                    "time": 266.97887999999983,
                    "velocity": 0.41732283464566927,
                    "duration": 0.2509200000000078
                },
                {
                    "name": "D3",
                    "midi": 50,
                    "time": 267.22979999999984,
                    "velocity": 0.33070866141732286,
                    "duration": 0.2509200000000078
                },
                {
                    "name": "G3",
                    "midi": 55,
                    "time": 267.48071999999985,
                    "velocity": 0.3464566929133858,
                    "duration": 0.2509200000000078
                },
                {
                    "name": "D4",
                    "midi": 62,
                    "time": 267.73163999999986,
                    "velocity": 0.3228346456692913,
                    "duration": 0.2509200000000078
                },
                {
                    "name": "D#3",
                    "midi": 51,
                    "time": 268.2334799999999,
                    "velocity": 0.30708661417322836,
                    "duration": 0.2509200000000078
                },
                {
                    "name": "A3",
                    "midi": 57,
                    "time": 268.4843999999999,
                    "velocity": 0.33070866141732286,
                    "duration": 0.2509200000000078
                },
                {
                    "name": "C4",
                    "midi": 60,
                    "time": 268.7353199999999,
                    "velocity": 0.30708661417322836,
                    "duration": 0.2509200000000078
                },
                {
                    "name": "E3",
                    "midi": 52,
                    "time": 269.2371599999999,
                    "velocity": 0.30708661417322836,
                    "duration": 0.2509200000000078
                },
                {
                    "name": "G3",
                    "midi": 55,
                    "time": 269.4880799999999,
                    "velocity": 0.33070866141732286,
                    "duration": 0.2509200000000078
                },
                {
                    "name": "C4",
                    "midi": 60,
                    "time": 269.7389999999999,
                    "velocity": 0.30708661417322836,
                    "duration": 0.2509200000000078
                },
                {
                    "name": "F3",
                    "midi": 53,
                    "time": 270.24083999999993,
                    "velocity": 0.25196850393700787,
                    "duration": 0.2509200000000078
                },
                {
                    "name": "A3",
                    "midi": 57,
                    "time": 270.49175999999994,
                    "velocity": 0.29133858267716534,
                    "duration": 0.2509200000000078
                },
                {
                    "name": "C4",
                    "midi": 60,
                    "time": 270.74267999999995,
                    "velocity": 0.25196850393700787,
                    "duration": 0.2509200000000078
                },
                {
                    "name": "G3",
                    "midi": 55,
                    "time": 271.24451999999997,
                    "velocity": 0.25984251968503935,
                    "duration": 0.2509200000000078
                },
                {
                    "name": "C4",
                    "midi": 60,
                    "time": 271.49544,
                    "velocity": 0.29133858267716534,
                    "duration": 0.2509200000000078
                },
                {
                    "name": "E4",
                    "midi": 64,
                    "time": 271.74636,
                    "velocity": 0.2677165354330709,
                    "duration": 0.2509200000000078
                },
                {
                    "name": "G#3",
                    "midi": 56,
                    "time": 271.99728,
                    "velocity": 0.3464566929133858,
                    "duration": 1.0036800000000312
                },
                {
                    "name": "D4",
                    "midi": 62,
                    "time": 272.2482,
                    "velocity": 0.2677165354330709,
                    "duration": 0.2509200000000078
                },
                {
                    "name": "F4",
                    "midi": 65,
                    "time": 272.49912,
                    "velocity": 0.2677165354330709,
                    "duration": 0.2509200000000078
                },
                {
                    "name": "G#4",
                    "midi": 68,
                    "time": 272.75004,
                    "velocity": 0.2677165354330709,
                    "duration": 0.2509200000000078
                },
                {
                    "name": "A3",
                    "midi": 57,
                    "time": 273.00096,
                    "velocity": 0.3464566929133858,
                    "duration": 1.0036800000000312
                },
                {
                    "name": "C4",
                    "midi": 60,
                    "time": 273.25188,
                    "velocity": 0.23622047244094488,
                    "duration": 0.2509200000000078
                },
                {
                    "name": "F4",
                    "midi": 65,
                    "time": 273.50280000000004,
                    "velocity": 0.2677165354330709,
                    "duration": 0.2509200000000078
                },
                {
                    "name": "A4",
                    "midi": 69,
                    "time": 273.75372000000004,
                    "velocity": 0.2283464566929134,
                    "duration": 0.2509200000000078
                },
                {
                    "name": "B3",
                    "midi": 59,
                    "time": 274.00464000000005,
                    "velocity": 0.25196850393700787,
                    "duration": 1.0036800000000312
                },
                {
                    "name": "D#4",
                    "midi": 63,
                    "time": 274.25556000000006,
                    "velocity": 0.2047244094488189,
                    "duration": 0.2509200000000078
                },
                {
                    "name": "F#4",
                    "midi": 66,
                    "time": 274.50648000000007,
                    "velocity": 0.2283464566929134,
                    "duration": 0.2509200000000078
                },
                {
                    "name": "B4",
                    "midi": 71,
                    "time": 274.7574000000001,
                    "velocity": 0.2047244094488189,
                    "duration": 0.2509200000000078
                },
                {
                    "name": "E4",
                    "midi": 64,
                    "time": 275.0083200000001,
                    "velocity": 0.2204724409448819,
                    "duration": 0.2509200000000078
                },
                {
                    "name": "E3",
                    "midi": 52,
                    "time": 275.2592400000001,
                    "velocity": 0.15748031496062992,
                    "duration": 0.2509200000000078
                },
                {
                    "name": "E4",
                    "midi": 64,
                    "time": 275.5101600000001,
                    "velocity": 0.15748031496062992,
                    "duration": 0.2509200000000078
                },
                {
                    "name": "E3",
                    "midi": 52,
                    "time": 275.7610800000001,
                    "velocity": 0.15748031496062992,
                    "duration": 0.2509200000000078
                },
                {
                    "name": "D4",
                    "midi": 62,
                    "time": 276.0120000000001,
                    "velocity": 0.2204724409448819,
                    "duration": 0.2509200000000078
                },
                {
                    "name": "B3",
                    "midi": 59,
                    "time": 276.0120000000001,
                    "velocity": 0.1889763779527559,
                    "duration": 0.2509200000000078
                },
                {
                    "name": "E3",
                    "midi": 52,
                    "time": 276.2629200000001,
                    "velocity": 0.16535433070866143,
                    "duration": 0.2509200000000078
                },
                {
                    "name": "E4",
                    "midi": 64,
                    "time": 276.51384000000013,
                    "velocity": 0.16535433070866143,
                    "duration": 0.2509200000000078
                },
                {
                    "name": "C4",
                    "midi": 60,
                    "time": 276.51384000000013,
                    "velocity": 0.14173228346456693,
                    "duration": 0.2509200000000078
                },
                {
                    "name": "E3",
                    "midi": 52,
                    "time": 276.76476000000014,
                    "velocity": 0.16535433070866143,
                    "duration": 0.2509200000000078
                },
                {
                    "name": "F4",
                    "midi": 65,
                    "time": 277.01568000000015,
                    "velocity": 0.2204724409448819,
                    "duration": 0.2509200000000078
                },
                {
                    "name": "D4",
                    "midi": 62,
                    "time": 277.01568000000015,
                    "velocity": 0.1889763779527559,
                    "duration": 0.2509200000000078
                },
                {
                    "name": "E3",
                    "midi": 52,
                    "time": 277.26660000000015,
                    "velocity": 0.15748031496062992,
                    "duration": 0.2509200000000078
                },
                {
                    "name": "D4",
                    "midi": 62,
                    "time": 277.51752000000016,
                    "velocity": 0.15748031496062992,
                    "duration": 0.2509200000000078
                },
                {
                    "name": "B3",
                    "midi": 59,
                    "time": 277.51752000000016,
                    "velocity": 0.13385826771653545,
                    "duration": 0.2509200000000078
                },
                {
                    "name": "E3",
                    "midi": 52,
                    "time": 277.76844000000017,
                    "velocity": 0.15748031496062992,
                    "duration": 0.2509200000000078
                },
                {
                    "name": "G#3",
                    "midi": 56,
                    "time": 278.0193600000002,
                    "velocity": 0.18110236220472442,
                    "duration": 0.2509200000000078
                },
                {
                    "name": "B3",
                    "midi": 59,
                    "time": 278.0193600000002,
                    "velocity": 0.2125984251968504,
                    "duration": 0.2509200000000078
                },
                {
                    "name": "E3",
                    "midi": 52,
                    "time": 278.2702800000002,
                    "velocity": 0.16535433070866143,
                    "duration": 0.2509200000000078
                },
                {
                    "name": "C4",
                    "midi": 60,
                    "time": 278.5212000000002,
                    "velocity": 0.16535433070866143,
                    "duration": 0.2509200000000078
                },
                {
                    "name": "A3",
                    "midi": 57,
                    "time": 278.5212000000002,
                    "velocity": 0.14173228346456693,
                    "duration": 0.2509200000000078
                },
                {
                    "name": "E3",
                    "midi": 52,
                    "time": 278.7721200000002,
                    "velocity": 0.16535433070866143,
                    "duration": 0.2509200000000078
                },
                {
                    "name": "B3",
                    "midi": 59,
                    "time": 279.0230400000002,
                    "velocity": 0.1889763779527559,
                    "duration": 0.2509200000000078
                },
                {
                    "name": "D4",
                    "midi": 62,
                    "time": 279.0230400000002,
                    "velocity": 0.2204724409448819,
                    "duration": 0.2509200000000078
                },
                {
                    "name": "E3",
                    "midi": 52,
                    "time": 279.2739600000002,
                    "velocity": 0.15748031496062992,
                    "duration": 0.2509200000000078
                },
                {
                    "name": "A3",
                    "midi": 57,
                    "time": 279.5248800000002,
                    "velocity": 0.1889763779527559,
                    "duration": 0.2509200000000078
                },
                {
                    "name": "C4",
                    "midi": 60,
                    "time": 279.5248800000002,
                    "velocity": 0.15748031496062992,
                    "duration": 0.2509200000000078
                },
                {
                    "name": "E3",
                    "midi": 52,
                    "time": 279.77580000000023,
                    "velocity": 0.15748031496062992,
                    "duration": 0.2509200000000078
                },
                {
                    "name": "B3",
                    "midi": 59,
                    "time": 280.02672000000024,
                    "velocity": 0.2204724409448819,
                    "duration": 0.2509200000000078
                },
                {
                    "name": "G3",
                    "midi": 55,
                    "time": 280.02672000000024,
                    "velocity": 0.1889763779527559,
                    "duration": 0.2509200000000078
                },
                {
                    "name": "E3",
                    "midi": 52,
                    "time": 280.27764000000025,
                    "velocity": 0.16535433070866143,
                    "duration": 0.2509200000000078
                },
                {
                    "name": "A3",
                    "midi": 57,
                    "time": 280.52856000000025,
                    "velocity": 0.16535433070866143,
                    "duration": 0.2509200000000078
                },
                {
                    "name": "F3",
                    "midi": 53,
                    "time": 280.52856000000025,
                    "velocity": 0.14173228346456693,
                    "duration": 0.2509200000000078
                },
                {
                    "name": "E3",
                    "midi": 52,
                    "time": 280.77948000000026,
                    "velocity": 0.16535433070866143,
                    "duration": 0.2509200000000078
                },
                {
                    "name": "G#3",
                    "midi": 56,
                    "time": 281.03040000000027,
                    "velocity": 0.2204724409448819,
                    "duration": 0.2509200000000078
                },
                {
                    "name": "E3",
                    "midi": 52,
                    "time": 281.2813200000003,
                    "velocity": 0.15748031496062992,
                    "duration": 0.2509200000000078
                },
                {
                    "name": "A3",
                    "midi": 57,
                    "time": 281.5322400000003,
                    "velocity": 0.15748031496062992,
                    "duration": 0.2509200000000078
                },
                {
                    "name": "F#3",
                    "midi": 54,
                    "time": 281.5322400000003,
                    "velocity": 0.13385826771653545,
                    "duration": 0.2509200000000078
                },
                {
                    "name": "E3",
                    "midi": 52,
                    "time": 281.7831600000003,
                    "velocity": 0.15748031496062992,
                    "duration": 0.2509200000000078
                },
                {
                    "name": "G#3",
                    "midi": 56,
                    "time": 282.0340800000003,
                    "velocity": 0.18110236220472442,
                    "duration": 0.2509200000000078
                },
                {
                    "name": "B3",
                    "midi": 59,
                    "time": 282.0340800000003,
                    "velocity": 0.2125984251968504,
                    "duration": 0.2509200000000078
                },
                {
                    "name": "E3",
                    "midi": 52,
                    "time": 282.2850000000003,
                    "velocity": 0.16535433070866143,
                    "duration": 0.2509200000000078
                },
                {
                    "name": "G#3",
                    "midi": 56,
                    "time": 282.5359200000003,
                    "velocity": 0.16535433070866143,
                    "duration": 0.2509200000000078
                },
                {
                    "name": "E3",
                    "midi": 52,
                    "time": 282.7868400000003,
                    "velocity": 0.16535433070866143,
                    "duration": 0.2509200000000078
                },
                {
                    "name": "C4",
                    "midi": 60,
                    "time": 283.03776000000033,
                    "velocity": 0.1889763779527559,
                    "duration": 0.2509200000000078
                },
                {
                    "name": "E4",
                    "midi": 64,
                    "time": 283.03776000000033,
                    "velocity": 0.2204724409448819,
                    "duration": 0.2509200000000078
                },
                {
                    "name": "E3",
                    "midi": 52,
                    "time": 283.28868000000034,
                    "velocity": 0.15748031496062992,
                    "duration": 0.2509200000000078
                },
                {
                    "name": "C4",
                    "midi": 60,
                    "time": 283.53960000000035,
                    "velocity": 0.1889763779527559,
                    "duration": 0.2509200000000078
                },
                {
                    "name": "E4",
                    "midi": 64,
                    "time": 283.53960000000035,
                    "velocity": 0.15748031496062992,
                    "duration": 0.2509200000000078
                },
                {
                    "name": "E3",
                    "midi": 52,
                    "time": 283.79052000000036,
                    "velocity": 0.15748031496062992,
                    "duration": 0.2509200000000078
                },
                {
                    "name": "D4",
                    "midi": 62,
                    "time": 284.04144000000036,
                    "velocity": 0.2204724409448819,
                    "duration": 0.2509200000000078
                },
                {
                    "name": "B3",
                    "midi": 59,
                    "time": 284.04144000000036,
                    "velocity": 0.1889763779527559,
                    "duration": 0.2509200000000078
                },
                {
                    "name": "E3",
                    "midi": 52,
                    "time": 284.2923600000004,
                    "velocity": 0.16535433070866143,
                    "duration": 0.2509200000000078
                },
                {
                    "name": "E4",
                    "midi": 64,
                    "time": 284.5432800000004,
                    "velocity": 0.1732283464566929,
                    "duration": 0.2509200000000078
                },
                {
                    "name": "C4",
                    "midi": 60,
                    "time": 284.5432800000004,
                    "velocity": 0.14173228346456693,
                    "duration": 0.2509200000000078
                },
                {
                    "name": "E3",
                    "midi": 52,
                    "time": 284.7942000000004,
                    "velocity": 0.1732283464566929,
                    "duration": 0.2509200000000078
                },
                {
                    "name": "G4",
                    "midi": 67,
                    "time": 285.0451200000004,
                    "velocity": 0.2440944881889764,
                    "duration": 0.2509200000000078
                },
                {
                    "name": "E4",
                    "midi": 64,
                    "time": 285.0451200000004,
                    "velocity": 0.2047244094488189,
                    "duration": 0.2509200000000078
                },
                {
                    "name": "E3",
                    "midi": 52,
                    "time": 285.2960400000004,
                    "velocity": 0.1732283464566929,
                    "duration": 0.2509200000000078
                },
                {
                    "name": "F4",
                    "midi": 65,
                    "time": 285.5469600000004,
                    "velocity": 0.1732283464566929,
                    "duration": 0.2509200000000078
                },
                {
                    "name": "D4",
                    "midi": 62,
                    "time": 285.5469600000004,
                    "velocity": 0.14173228346456693,
                    "duration": 0.2509200000000078
                },
                {
                    "name": "E3",
                    "midi": 52,
                    "time": 285.7978800000004,
                    "velocity": 0.1732283464566929,
                    "duration": 0.2509200000000078
                },
                {
                    "name": "B3",
                    "midi": 59,
                    "time": 286.0488000000004,
                    "velocity": 0.1968503937007874,
                    "duration": 0.2509200000000078
                },
                {
                    "name": "D4",
                    "midi": 62,
                    "time": 286.0488000000004,
                    "velocity": 0.23622047244094488,
                    "duration": 0.2509200000000078
                },
                {
                    "name": "E3",
                    "midi": 52,
                    "time": 286.29972000000043,
                    "velocity": 0.18110236220472442,
                    "duration": 0.2509200000000078
                },
                {
                    "name": "F4",
                    "midi": 65,
                    "time": 286.55064000000044,
                    "velocity": 0.18110236220472442,
                    "duration": 0.2509200000000078
                },
                {
                    "name": "D4",
                    "midi": 62,
                    "time": 286.55064000000044,
                    "velocity": 0.14960629921259844,
                    "duration": 0.2509200000000078
                },
                {
                    "name": "E3",
                    "midi": 52,
                    "time": 286.80156000000045,
                    "velocity": 0.18110236220472442,
                    "duration": 0.2509200000000078
                },
                {
                    "name": "C4",
                    "midi": 60,
                    "time": 287.05248000000046,
                    "velocity": 0.2047244094488189,
                    "duration": 0.2509200000000078
                },
                {
                    "name": "E4",
                    "midi": 64,
                    "time": 287.05248000000046,
                    "velocity": 0.2440944881889764,
                    "duration": 0.2509200000000078
                },
                {
                    "name": "E3",
                    "midi": 52,
                    "time": 287.30340000000047,
                    "velocity": 0.1732283464566929,
                    "duration": 0.2509200000000078
                },
                {
                    "name": "A3",
                    "midi": 57,
                    "time": 287.5543200000005,
                    "velocity": 0.2047244094488189,
                    "duration": 0.2509200000000078
                },
                {
                    "name": "C4",
                    "midi": 60,
                    "time": 287.5543200000005,
                    "velocity": 0.16535433070866143,
                    "duration": 0.2509200000000078
                },
                {
                    "name": "E3",
                    "midi": 52,
                    "time": 287.8052400000005,
                    "velocity": 0.16535433070866143,
                    "duration": 0.2509200000000078
                },
                {
                    "name": "D4",
                    "midi": 62,
                    "time": 288.0561600000005,
                    "velocity": 0.2283464566929134,
                    "duration": 0.2509200000000078
                },
                {
                    "name": "B3",
                    "midi": 59,
                    "time": 288.0561600000005,
                    "velocity": 0.1968503937007874,
                    "duration": 0.2509200000000078
                },
                {
                    "name": "E3",
                    "midi": 52,
                    "time": 288.3070800000005,
                    "velocity": 0.16535433070866143,
                    "duration": 0.2509200000000078
                },
                {
                    "name": "B3",
                    "midi": 59,
                    "time": 288.5580000000005,
                    "velocity": 0.16535433070866143,
                    "duration": 0.2509200000000078
                },
                {
                    "name": "G#3",
                    "midi": 56,
                    "time": 288.5580000000005,
                    "velocity": 0.14173228346456693,
                    "duration": 0.2509200000000078
                },
                {
                    "name": "E3",
                    "midi": 52,
                    "time": 288.8089200000005,
                    "velocity": 0.16535433070866143,
                    "duration": 0.2509200000000078
                },
                {
                    "name": "A3",
                    "midi": 57,
                    "time": 289.0598400000005,
                    "velocity": 0.1889763779527559,
                    "duration": 0.2509200000000078
                },
                {
                    "name": "C4",
                    "midi": 60,
                    "time": 289.0598400000005,
                    "velocity": 0.2204724409448819,
                    "duration": 0.2509200000000078
                },
                {
                    "name": "E3",
                    "midi": 52,
                    "time": 289.3107600000005,
                    "velocity": 0.15748031496062992,
                    "duration": 0.2509200000000078
                },
                {
                    "name": "A3",
                    "midi": 57,
                    "time": 289.56168000000054,
                    "velocity": 0.15748031496062992,
                    "duration": 0.2509200000000078
                },
                {
                    "name": "F#3",
                    "midi": 54,
                    "time": 289.56168000000054,
                    "velocity": 0.13385826771653545,
                    "duration": 0.2509200000000078
                },
                {
                    "name": "E3",
                    "midi": 52,
                    "time": 289.81260000000054,
                    "velocity": 0.15748031496062992,
                    "duration": 0.2509200000000078
                },
                {
                    "name": "G#3",
                    "midi": 56,
                    "time": 290.06352000000055,
                    "velocity": 0.18110236220472442,
                    "duration": 0.2509200000000078
                },
                {
                    "name": "B3",
                    "midi": 59,
                    "time": 290.06352000000055,
                    "velocity": 0.2125984251968504,
                    "duration": 0.2509200000000078
                },
                {
                    "name": "E3",
                    "midi": 52,
                    "time": 290.31444000000056,
                    "velocity": 0.16535433070866143,
                    "duration": 0.2509200000000078
                },
                {
                    "name": "G#3",
                    "midi": 56,
                    "time": 290.56536000000057,
                    "velocity": 0.16535433070866143,
                    "duration": 0.2509200000000078
                },
                {
                    "name": "E3",
                    "midi": 52,
                    "time": 290.8162800000006,
                    "velocity": 0.16535433070866143,
                    "duration": 0.2509200000000078
                },
                {
                    "name": "C4",
                    "midi": 60,
                    "time": 291.0672000000006,
                    "velocity": 0.2283464566929134,
                    "duration": 0.2509200000000078
                },
                {
                    "name": "A3",
                    "midi": 57,
                    "time": 291.3181200000006,
                    "velocity": 0.16535433070866143,
                    "duration": 0.2509200000000078
                },
                {
                    "name": "E3",
                    "midi": 52,
                    "time": 291.5690400000006,
                    "velocity": 0.1889763779527559,
                    "duration": 0.2509200000000078
                },
                {
                    "name": "C3",
                    "midi": 48,
                    "time": 291.8199600000006,
                    "velocity": 0.16535433070866143,
                    "duration": 0.2509200000000078
                },
                {
                    "name": "C4",
                    "midi": 60,
                    "time": 292.0708800000006,
                    "velocity": 0.2283464566929134,
                    "duration": 0.2509200000000078
                },
                {
                    "name": "A3",
                    "midi": 57,
                    "time": 292.3218000000006,
                    "velocity": 0.1732283464566929,
                    "duration": 0.2509200000000078
                },
                {
                    "name": "E3",
                    "midi": 52,
                    "time": 292.57272000000063,
                    "velocity": 0.1889763779527559,
                    "duration": 0.2509200000000078
                },
                {
                    "name": "C3",
                    "midi": 48,
                    "time": 292.82364000000064,
                    "velocity": 0.15748031496062992,
                    "duration": 0.2509200000000078
                },
                {
                    "name": "D4",
                    "midi": 62,
                    "time": 293.07456000000064,
                    "velocity": 0.2283464566929134,
                    "duration": 0.2509200000000078
                },
                {
                    "name": "A3",
                    "midi": 57,
                    "time": 293.32548000000065,
                    "velocity": 0.15748031496062992,
                    "duration": 0.2509200000000078
                },
                {
                    "name": "F3",
                    "midi": 53,
                    "time": 293.57640000000066,
                    "velocity": 0.1889763779527559,
                    "duration": 0.2509200000000078
                },
                {
                    "name": "D3",
                    "midi": 50,
                    "time": 293.82732000000067,
                    "velocity": 0.16535433070866143,
                    "duration": 0.2509200000000078
                },
                {
                    "name": "D4",
                    "midi": 62,
                    "time": 294.0782400000007,
                    "velocity": 0.2283464566929134,
                    "duration": 0.2509200000000078
                },
                {
                    "name": "A3",
                    "midi": 57,
                    "time": 294.3291600000007,
                    "velocity": 0.1889763779527559,
                    "duration": 0.2509200000000078
                },
                {
                    "name": "F3",
                    "midi": 53,
                    "time": 294.5800800000007,
                    "velocity": 0.1889763779527559,
                    "duration": 0.2509200000000078
                },
                {
                    "name": "D3",
                    "midi": 50,
                    "time": 294.8163630000007,
                    "velocity": 0.18110236220472442,
                    "duration": 0.2509200000000078
                },
                {
                    "name": "D4",
                    "midi": 62,
                    "time": 295.0819200000007,
                    "velocity": 0.2283464566929134,
                    "duration": 0.2509200000000078
                },
                {
                    "name": "B3",
                    "midi": 59,
                    "time": 295.3328400000007,
                    "velocity": 0.16535433070866143,
                    "duration": 0.2509200000000078
                },
                {
                    "name": "A3",
                    "midi": 57,
                    "time": 295.5837600000007,
                    "velocity": 0.1889763779527559,
                    "duration": 0.2509200000000078
                },
                {
                    "name": "E3",
                    "midi": 52,
                    "time": 295.83468000000073,
                    "velocity": 0.1732283464566929,
                    "duration": 0.2509200000000078
                },
                {
                    "name": "D4",
                    "midi": 62,
                    "time": 296.08560000000074,
                    "velocity": 0.23622047244094488,
                    "duration": 0.2509200000000078
                },
                {
                    "name": "B3",
                    "midi": 59,
                    "time": 296.33652000000075,
                    "velocity": 0.1732283464566929,
                    "duration": 0.2509200000000078
                },
                {
                    "name": "G#3",
                    "midi": 56,
                    "time": 296.58744000000075,
                    "velocity": 0.1968503937007874,
                    "duration": 0.2509200000000078
                },
                {
                    "name": "E3",
                    "midi": 52,
                    "time": 296.83836000000076,
                    "velocity": 0.1968503937007874,
                    "duration": 0.2509200000000078
                },
                {
                    "name": "A4",
                    "midi": 69,
                    "time": 297.08928000000077,
                    "velocity": 0.23622047244094488,
                    "duration": 0.2509200000000078
                },
                {
                    "name": "F4",
                    "midi": 65,
                    "time": 297.3402000000008,
                    "velocity": 0.18110236220472442,
                    "duration": 0.2509200000000078
                },
                {
                    "name": "E4",
                    "midi": 64,
                    "time": 297.5911200000008,
                    "velocity": 0.1968503937007874,
                    "duration": 0.2509200000000078
                },
                {
                    "name": "A3",
                    "midi": 57,
                    "time": 297.8420400000008,
                    "velocity": 0.1732283464566929,
                    "duration": 0.2509200000000078
                },
                {
                    "name": "A4",
                    "midi": 69,
                    "time": 298.0929600000008,
                    "velocity": 0.2440944881889764,
                    "duration": 0.2509200000000078
                },
                {
                    "name": "E4",
                    "midi": 64,
                    "time": 298.3438800000008,
                    "velocity": 0.1968503937007874,
                    "duration": 0.2509200000000078
                },
                {
                    "name": "C4",
                    "midi": 60,
                    "time": 298.5948000000008,
                    "velocity": 0.2283464566929134,
                    "duration": 0.2509200000000078
                },
                {
                    "name": "A3",
                    "midi": 57,
                    "time": 298.8457200000008,
                    "velocity": 0.2047244094488189,
                    "duration": 0.2509200000000078
                },
                {
                    "name": "D2",
                    "midi": 38,
                    "time": 299.09664000000083,
                    "velocity": 0.33858267716535434,
                    "duration": 0.2509200000000078
                },
                {
                    "name": "D3",
                    "midi": 50,
                    "time": 299.34756000000084,
                    "velocity": 0.2992125984251969,
                    "duration": 0.2509200000000078
                },
                {
                    "name": "F3",
                    "midi": 53,
                    "time": 299.59848000000085,
                    "velocity": 0.33070866141732286,
                    "duration": 2.509200000000021
                },
                {
                    "name": "A3",
                    "midi": 57,
                    "time": 299.84940000000086,
                    "velocity": 0.3700787401574803,
                    "duration": 2.2582800000000134
                },
                {
                    "name": "D4",
                    "midi": 62,
                    "time": 300.10032000000086,
                    "velocity": 0.4015748031496063,
                    "duration": 2.0073600000000056
                },
                {
                    "name": "D2",
                    "midi": 38,
                    "time": 303.11136000000084,
                    "velocity": 0.33858267716535434,
                    "duration": 0.2509200000000078
                },
                {
                    "name": "D3",
                    "midi": 50,
                    "time": 303.36228000000085,
                    "velocity": 0.2992125984251969,
                    "duration": 0.2509200000000078
                },
                {
                    "name": "F3",
                    "midi": 53,
                    "time": 303.61320000000086,
                    "velocity": 0.33070866141732286,
                    "duration": 2.0073600000000056
                },
                {
                    "name": "G#3",
                    "midi": 56,
                    "time": 303.86412000000087,
                    "velocity": 0.3700787401574803,
                    "duration": 1.7564399999999978
                },
                {
                    "name": "B3",
                    "midi": 59,
                    "time": 304.1150400000009,
                    "velocity": 0.4015748031496063,
                    "duration": 1.50551999999999
                },
                {
                    "name": "G#3",
                    "midi": 56,
                    "time": 306.1224000000009,
                    "velocity": 0.33858267716535434,
                    "duration": 0.7527600000000234
                },
                {
                    "name": "A#3",
                    "midi": 58,
                    "time": 306.1224000000009,
                    "velocity": 0.33858267716535434,
                    "duration": 0.7527600000000234
                },
                {
                    "name": "D4",
                    "midi": 62,
                    "time": 306.1224000000009,
                    "velocity": 0.33858267716535434,
                    "duration": 0.7527600000000234
                },
                {
                    "name": "F4",
                    "midi": 65,
                    "time": 306.1224000000009,
                    "velocity": 0.4015748031496063,
                    "duration": 0.7527600000000234
                },
                {
                    "name": "A#4",
                    "midi": 70,
                    "time": 306.1224000000009,
                    "velocity": 0.47244094488188976,
                    "duration": 0.7527600000000234
                },
                {
                    "name": "G2",
                    "midi": 43,
                    "time": 308.1297600000009,
                    "velocity": 0.3543307086614173,
                    "duration": 0.13800599999996166
                },
                {
                    "name": "G#2",
                    "midi": 44,
                    "time": 308.25522000000086,
                    "velocity": 0.29133858267716534,
                    "duration": 0.13800599999996166
                },
                {
                    "name": "G2",
                    "midi": 43,
                    "time": 308.38068000000084,
                    "velocity": 0.29133858267716534,
                    "duration": 0.13800599999996166
                },
                {
                    "name": "F#2",
                    "midi": 42,
                    "time": 308.5061400000008,
                    "velocity": 0.29133858267716534,
                    "duration": 0.13800599999996166
                },
                {
                    "name": "G2",
                    "midi": 43,
                    "time": 308.6316000000008,
                    "velocity": 0.3543307086614173,
                    "duration": 0.13800599999996166
                },
                {
                    "name": "A#2",
                    "midi": 46,
                    "time": 308.75706000000076,
                    "velocity": 0.33070866141732286,
                    "duration": 0.13800599999996166
                },
                {
                    "name": "D#3",
                    "midi": 51,
                    "time": 308.88252000000074,
                    "velocity": 0.3543307086614173,
                    "duration": 0.13800599999996166
                },
                {
                    "name": "G3",
                    "midi": 55,
                    "time": 309.0079800000007,
                    "velocity": 0.3779527559055118,
                    "duration": 0.13800599999996166
                },
                {
                    "name": "G#3",
                    "midi": 56,
                    "time": 309.1334400000007,
                    "velocity": 0.4094488188976378,
                    "duration": 0.7527599999999666
                },
                {
                    "name": "A#3",
                    "midi": 58,
                    "time": 309.1334400000007,
                    "velocity": 0.4094488188976378,
                    "duration": 0.7527599999999666
                },
                {
                    "name": "G3",
                    "midi": 55,
                    "time": 310.13712000000066,
                    "velocity": 0.3543307086614173,
                    "duration": 0.13800599999996166
                },
                {
                    "name": "G#3",
                    "midi": 56,
                    "time": 310.26258000000064,
                    "velocity": 0.29133858267716534,
                    "duration": 0.13800599999996166
                },
                {
                    "name": "G3",
                    "midi": 55,
                    "time": 310.3880400000006,
                    "velocity": 0.29133858267716534,
                    "duration": 0.13800599999996166
                },
                {
                    "name": "F#3",
                    "midi": 54,
                    "time": 310.5135000000006,
                    "velocity": 0.29133858267716534,
                    "duration": 0.13800599999996166
                },
                {
                    "name": "G3",
                    "midi": 55,
                    "time": 310.63896000000057,
                    "velocity": 0.3543307086614173,
                    "duration": 0.13800599999996166
                },
                {
                    "name": "A#3",
                    "midi": 58,
                    "time": 310.76442000000054,
                    "velocity": 0.33070866141732286,
                    "duration": 0.13800599999996166
                },
                {
                    "name": "D#4",
                    "midi": 63,
                    "time": 310.8898800000005,
                    "velocity": 0.3543307086614173,
                    "duration": 0.13800599999996166
                },
                {
                    "name": "G4",
                    "midi": 67,
                    "time": 311.0153400000005,
                    "velocity": 0.3779527559055118,
                    "duration": 0.13800599999996166
                },
                {
                    "name": "G#4",
                    "midi": 68,
                    "time": 311.14080000000047,
                    "velocity": 0.4645669291338583,
                    "duration": 0.7527599999999666
                },
                {
                    "name": "A#4",
                    "midi": 70,
                    "time": 311.14080000000047,
                    "velocity": 0.4645669291338583,
                    "duration": 0.7527599999999666
                },
                {
                    "name": "G#5",
                    "midi": 80,
                    "time": 312.14448000000044,
                    "velocity": 0.4015748031496063,
                    "duration": 0.13800599999996166
                },
                {
                    "name": "F5",
                    "midi": 77,
                    "time": 312.2699400000004,
                    "velocity": 0.33070866141732286,
                    "duration": 0.13800599999996166
                },
                {
                    "name": "D5",
                    "midi": 74,
                    "time": 312.3954000000004,
                    "velocity": 0.33070866141732286,
                    "duration": 0.13800599999996166
                },
                {
                    "name": "A#4",
                    "midi": 70,
                    "time": 312.52086000000037,
                    "velocity": 0.33070866141732286,
                    "duration": 0.13800599999996166
                },
                {
                    "name": "G#4",
                    "midi": 68,
                    "time": 312.64632000000034,
                    "velocity": 0.4015748031496063,
                    "duration": 0.13800599999996166
                },
                {
                    "name": "F4",
                    "midi": 65,
                    "time": 312.7717800000003,
                    "velocity": 0.3779527559055118,
                    "duration": 0.13800599999996166
                },
                {
                    "name": "D4",
                    "midi": 62,
                    "time": 312.8972400000003,
                    "velocity": 0.4015748031496063,
                    "duration": 0.13800599999996166
                },
                {
                    "name": "G#3",
                    "midi": 56,
                    "time": 313.02270000000027,
                    "velocity": 0.4330708661417323,
                    "duration": 0.13800599999996166
                },
                {
                    "name": "A3",
                    "midi": 57,
                    "time": 313.14816000000025,
                    "velocity": 0.4330708661417323,
                    "duration": 7.025759999999877
                },
                {
                    "name": "F3",
                    "midi": 53,
                    "time": 314.1518400000002,
                    "velocity": 0.36220472440944884,
                    "duration": 1.0036799999999744
                },
                {
                    "name": "D4",
                    "midi": 62,
                    "time": 314.1518400000002,
                    "velocity": 0.4645669291338583,
                    "duration": 1.0036799999999744
                },
                {
                    "name": "E3",
                    "midi": 52,
                    "time": 315.1555200000002,
                    "velocity": 0.3937007874015748,
                    "duration": 1.0036799999999744
                },
                {
                    "name": "E4",
                    "midi": 64,
                    "time": 315.1555200000002,
                    "velocity": 0.4645669291338583,
                    "duration": 1.0036799999999744
                },
                {
                    "name": "D3",
                    "midi": 50,
                    "time": 316.15920000000017,
                    "velocity": 0.4094488188976378,
                    "duration": 2.0073600000000056
                },
                {
                    "name": "F4",
                    "midi": 65,
                    "time": 316.15920000000017,
                    "velocity": 0.4881889763779528,
                    "duration": 2.0073600000000056
                },
                {
                    "name": "F3",
                    "midi": 53,
                    "time": 318.1665600000002,
                    "velocity": 0.3543307086614173,
                    "duration": 1.0036799999999744
                },
                {
                    "name": "D4",
                    "midi": 62,
                    "time": 318.1665600000002,
                    "velocity": 0.4251968503937008,
                    "duration": 1.0036799999999744
                },
                {
                    "name": "E3",
                    "midi": 52,
                    "time": 319.17024000000015,
                    "velocity": 0.31496062992125984,
                    "duration": 1.0036799999999744
                },
                {
                    "name": "C4",
                    "midi": 60,
                    "time": 319.17024000000015,
                    "velocity": 0.3779527559055118,
                    "duration": 1.0036799999999744
                },
                {
                    "name": "E3",
                    "midi": 52,
                    "time": 321.1776000000001,
                    "velocity": 0.2204724409448819,
                    "duration": 1.0036800000000312
                },
                {
                    "name": "G#3",
                    "midi": 56,
                    "time": 321.1776000000001,
                    "velocity": 0.2204724409448819,
                    "duration": 0.9827700000000164
                },
                {
                    "name": "B3",
                    "midi": 59,
                    "time": 321.1776000000001,
                    "velocity": 0.25984251968503935,
                    "duration": 1.0036800000000312
                },
                {
                    "name": "F4",
                    "midi": 65,
                    "time": 321.6794400000001,
                    "velocity": 0.3464566929133858,
                    "duration": 0.5018400000000156
                },
                {
                    "name": "E4",
                    "midi": 64,
                    "time": 322.18128000000013,
                    "velocity": 0.25984251968503935,
                    "duration": 0.5018400000000156
                },
                {
                    "name": "G#3",
                    "midi": 56,
                    "time": 322.68312000000014,
                    "velocity": 0.1889763779527559,
                    "duration": 0.5018400000000156
                },
                {
                    "name": "A2",
                    "midi": 45,
                    "time": 323.18496000000016,
                    "velocity": 0.2125984251968504,
                    "duration": 1.0036799999999744
                },
                {
                    "name": "A3",
                    "midi": 57,
                    "time": 323.18496000000016,
                    "velocity": 0.25196850393700787,
                    "duration": 1.0036799999999744
                },
                {
                    "name": "G4",
                    "midi": 67,
                    "time": 324.18864000000013,
                    "velocity": 0.25196850393700787,
                    "duration": 0.5018400000000156
                },
                {
                    "name": "E4",
                    "midi": 64,
                    "time": 324.18864000000013,
                    "velocity": 0.1889763779527559,
                    "duration": 0.2509200000000078
                },
                {
                    "name": "A3",
                    "midi": 57,
                    "time": 324.43956000000014,
                    "velocity": 0.16535433070866143,
                    "duration": 0.2509200000000078
                },
                {
                    "name": "A4",
                    "midi": 69,
                    "time": 324.69048000000015,
                    "velocity": 0.1889763779527559,
                    "duration": 0.5018400000000156
                },
                {
                    "name": "F4",
                    "midi": 65,
                    "time": 324.69048000000015,
                    "velocity": 0.14173228346456693,
                    "duration": 0.2509200000000078
                },
                {
                    "name": "A3",
                    "midi": 57,
                    "time": 324.94140000000016,
                    "velocity": 0.16535433070866143,
                    "duration": 0.2509200000000078
                },
                {
                    "name": "A#4",
                    "midi": 70,
                    "time": 325.19232000000017,
                    "velocity": 0.25196850393700787,
                    "duration": 0.2509200000000078
                },
                {
                    "name": "G4",
                    "midi": 67,
                    "time": 325.19232000000017,
                    "velocity": 0.1889763779527559,
                    "duration": 0.2509200000000078
                },
                {
                    "name": "A3",
                    "midi": 57,
                    "time": 325.4432400000002,
                    "velocity": 0.15748031496062992,
                    "duration": 0.2509200000000078
                },
                {
                    "name": "G4",
                    "midi": 67,
                    "time": 325.6941600000002,
                    "velocity": 0.18110236220472442,
                    "duration": 0.2509200000000078
                },
                {
                    "name": "E4",
                    "midi": 64,
                    "time": 325.6941600000002,
                    "velocity": 0.13385826771653545,
                    "duration": 0.2509200000000078
                },
                {
                    "name": "A3",
                    "midi": 57,
                    "time": 325.9450800000002,
                    "velocity": 0.15748031496062992,
                    "duration": 0.2509200000000078
                },
                {
                    "name": "C#4",
                    "midi": 61,
                    "time": 326.1960000000002,
                    "velocity": 0.18110236220472442,
                    "duration": 0.2509200000000078
                },
                {
                    "name": "E4",
                    "midi": 64,
                    "time": 326.1960000000002,
                    "velocity": 0.2440944881889764,
                    "duration": 0.2509200000000078
                },
                {
                    "name": "A3",
                    "midi": 57,
                    "time": 326.4469200000002,
                    "velocity": 0.16535433070866143,
                    "duration": 0.2509200000000078
                },
                {
                    "name": "F4",
                    "midi": 65,
                    "time": 326.6978400000002,
                    "velocity": 0.1889763779527559,
                    "duration": 0.2509200000000078
                },
                {
                    "name": "D4",
                    "midi": 62,
                    "time": 326.6978400000002,
                    "velocity": 0.14173228346456693,
                    "duration": 0.2509200000000078
                },
                {
                    "name": "A3",
                    "midi": 57,
                    "time": 326.9487600000002,
                    "velocity": 0.16535433070866143,
                    "duration": 0.2509200000000078
                },
                {
                    "name": "E4",
                    "midi": 64,
                    "time": 327.1996800000002,
                    "velocity": 0.1889763779527559,
                    "duration": 0.2509200000000078
                },
                {
                    "name": "G4",
                    "midi": 67,
                    "time": 327.1996800000002,
                    "velocity": 0.25196850393700787,
                    "duration": 0.2509200000000078
                },
                {
                    "name": "A3",
                    "midi": 57,
                    "time": 327.45060000000024,
                    "velocity": 0.15748031496062992,
                    "duration": 0.2509200000000078
                },
                {
                    "name": "D4",
                    "midi": 62,
                    "time": 327.70152000000024,
                    "velocity": 0.1889763779527559,
                    "duration": 0.2509200000000078
                },
                {
                    "name": "F4",
                    "midi": 65,
                    "time": 327.70152000000024,
                    "velocity": 0.18110236220472442,
                    "duration": 0.2509200000000078
                },
                {
                    "name": "A3",
                    "midi": 57,
                    "time": 327.95244000000025,
                    "velocity": 0.15748031496062992,
                    "duration": 0.2509200000000078
                },
                {
                    "name": "E4",
                    "midi": 64,
                    "time": 328.20336000000026,
                    "velocity": 0.25196850393700787,
                    "duration": 0.2509200000000078
                },
                {
                    "name": "C4",
                    "midi": 60,
                    "time": 328.20336000000026,
                    "velocity": 0.1889763779527559,
                    "duration": 0.2509200000000078
                },
                {
                    "name": "A3",
                    "midi": 57,
                    "time": 328.45428000000027,
                    "velocity": 0.16535433070866143,
                    "duration": 0.2509200000000078
                },
                {
                    "name": "D4",
                    "midi": 62,
                    "time": 328.7052000000003,
                    "velocity": 0.1889763779527559,
                    "duration": 0.2509200000000078
                },
                {
                    "name": "A#3",
                    "midi": 58,
                    "time": 328.7052000000003,
                    "velocity": 0.14173228346456693,
                    "duration": 0.2509200000000078
                },
                {
                    "name": "A3",
                    "midi": 57,
                    "time": 328.9561200000003,
                    "velocity": 0.16535433070866143,
                    "duration": 0.2509200000000078
                },
                {
                    "name": "C#4",
                    "midi": 61,
                    "time": 329.2070400000003,
                    "velocity": 0.25196850393700787,
                    "duration": 0.2509200000000078
                },
                {
                    "name": "A3",
                    "midi": 57,
                    "time": 329.4579600000003,
                    "velocity": 0.18110236220472442,
                    "duration": 0.2509200000000078
                },
                {
                    "name": "B3",
                    "midi": 59,
                    "time": 329.7088800000003,
                    "velocity": 0.14960629921259844,
                    "duration": 0.2509200000000078
                },
                {
                    "name": "D4",
                    "midi": 62,
                    "time": 329.7088800000003,
                    "velocity": 0.18110236220472442,
                    "duration": 0.2509200000000078
                },
                {
                    "name": "A3",
                    "midi": 57,
                    "time": 329.9598000000003,
                    "velocity": 0.18110236220472442,
                    "duration": 0.2509200000000078
                },
                {
                    "name": "C#4",
                    "midi": 61,
                    "time": 330.2107200000003,
                    "velocity": 0.2047244094488189,
                    "duration": 0.2509200000000078
                },
                {
                    "name": "E4",
                    "midi": 64,
                    "time": 330.2107200000003,
                    "velocity": 0.2440944881889764,
                    "duration": 0.2509200000000078
                },
                {
                    "name": "A3",
                    "midi": 57,
                    "time": 330.47314050000034,
                    "velocity": 0.1889763779527559,
                    "duration": 0.2509200000000078
                },
                {
                    "name": "C#4",
                    "midi": 61,
                    "time": 330.71256000000034,
                    "velocity": 0.1889763779527559,
                    "duration": 0.2509200000000078
                },
                {
                    "name": "E4",
                    "midi": 64,
                    "time": 330.71256000000034,
                    "velocity": 0.1889763779527559,
                    "duration": 0.2509200000000078
                },
                {
                    "name": "A3",
                    "midi": 57,
                    "time": 330.97498050000036,
                    "velocity": 0.15748031496062992,
                    "duration": 0.2509200000000078
                },
                {
                    "name": "A4",
                    "midi": 69,
                    "time": 331.21440000000035,
                    "velocity": 0.25196850393700787,
                    "duration": 0.2509200000000078
                },
                {
                    "name": "A3",
                    "midi": 57,
                    "time": 331.46532000000036,
                    "velocity": 0.18110236220472442,
                    "duration": 0.2509200000000078
                },
                {
                    "name": "A4",
                    "midi": 69,
                    "time": 331.71624000000037,
                    "velocity": 0.18110236220472442,
                    "duration": 0.2509200000000078
                },
                {
                    "name": "A3",
                    "midi": 57,
                    "time": 331.9671600000004,
                    "velocity": 0.18110236220472442,
                    "duration": 0.2509200000000078
                },
                {
                    "name": "A4",
                    "midi": 69,
                    "time": 332.2180800000004,
                    "velocity": 0.2440944881889764,
                    "duration": 0.2509200000000078
                },
                {
                    "name": "A3",
                    "midi": 57,
                    "time": 332.4805005000004,
                    "velocity": 0.2283464566929134,
                    "duration": 0.2509200000000078
                },
                {
                    "name": "A4",
                    "midi": 69,
                    "time": 332.7199200000004,
                    "velocity": 0.2677165354330709,
                    "duration": 0.2509200000000078
                },
                {
                    "name": "A3",
                    "midi": 57,
                    "time": 332.9823405000004,
                    "velocity": 0.30708661417322836,
                    "duration": 0.2509200000000078
                },
                {
                    "name": "E4",
                    "midi": 64,
                    "time": 333.2217600000004,
                    "velocity": 0.3464566929133858,
                    "duration": 0.2509200000000078
                },
                {
                    "name": "A3",
                    "midi": 57,
                    "time": 333.4726800000004,
                    "velocity": 0.1968503937007874,
                    "duration": 0.2509200000000078
                },
                {
                    "name": "E4",
                    "midi": 64,
                    "time": 333.71105400000044,
                    "velocity": 0.1968503937007874,
                    "duration": 0.2509200000000078
                },
                {
                    "name": "A3",
                    "midi": 57,
                    "time": 333.97452000000044,
                    "velocity": 0.1968503937007874,
                    "duration": 0.2509200000000078
                },
                {
                    "name": "E4",
                    "midi": 64,
                    "time": 334.22544000000045,
                    "velocity": 0.2677165354330709,
                    "duration": 0.2509200000000078
                },
                {
                    "name": "A3",
                    "midi": 57,
                    "time": 334.48786050000047,
                    "velocity": 0.2047244094488189,
                    "duration": 0.2509200000000078
                },
                {
                    "name": "E4",
                    "midi": 64,
                    "time": 334.72728000000046,
                    "velocity": 0.2047244094488189,
                    "duration": 0.2509200000000078
                },
                {
                    "name": "A3",
                    "midi": 57,
                    "time": 334.9897005000005,
                    "velocity": 0.1732283464566929,
                    "duration": 0.2509200000000078
                },
                {
                    "name": "G4",
                    "midi": 67,
                    "time": 335.2291200000005,
                    "velocity": 0.36220472440944884,
                    "duration": 0.2509200000000078
                },
                {
                    "name": "G3",
                    "midi": 55,
                    "time": 335.4800400000005,
                    "velocity": 0.23622047244094488,
                    "duration": 0.2509200000000078
                },
                {
                    "name": "G4",
                    "midi": 67,
                    "time": 335.7309600000005,
                    "velocity": 0.25196850393700787,
                    "duration": 0.2509200000000078
                },
                {
                    "name": "G3",
                    "midi": 55,
                    "time": 335.9818800000005,
                    "velocity": 0.2677165354330709,
                    "duration": 0.2509200000000078
                },
                {
                    "name": "G4",
                    "midi": 67,
                    "time": 336.2328000000005,
                    "velocity": 0.33070866141732286,
                    "duration": 0.2509200000000078
                },
                {
                    "name": "G3",
                    "midi": 55,
                    "time": 336.4837200000005,
                    "velocity": 0.2677165354330709,
                    "duration": 0.2509200000000078
                },
                {
                    "name": "G4",
                    "midi": 67,
                    "time": 336.7346400000005,
                    "velocity": 0.2677165354330709,
                    "duration": 0.2509200000000078
                },
                {
                    "name": "G3",
                    "midi": 55,
                    "time": 336.98556000000053,
                    "velocity": 0.2677165354330709,
                    "duration": 0.2509200000000078
                },
                {
                    "name": "F#4",
                    "midi": 66,
                    "time": 337.23648000000054,
                    "velocity": 0.3779527559055118,
                    "duration": 0.2509200000000078
                },
                {
                    "name": "G3",
                    "midi": 55,
                    "time": 337.48740000000055,
                    "velocity": 0.28346456692913385,
                    "duration": 0.2509200000000078
                },
                {
                    "name": "F#4",
                    "midi": 66,
                    "time": 337.73832000000056,
                    "velocity": 0.29133858267716534,
                    "duration": 0.2509200000000078
                },
                {
                    "name": "G3",
                    "midi": 55,
                    "time": 337.98924000000056,
                    "velocity": 0.29133858267716534,
                    "duration": 0.2509200000000078
                },
                {
                    "name": "F4",
                    "midi": 65,
                    "time": 338.24016000000057,
                    "velocity": 0.3700787401574803,
                    "duration": 0.2509200000000078
                },
                {
                    "name": "G3",
                    "midi": 55,
                    "time": 338.4910800000006,
                    "velocity": 0.2677165354330709,
                    "duration": 0.2509200000000078
                },
                {
                    "name": "F4",
                    "midi": 65,
                    "time": 338.7420000000006,
                    "velocity": 0.2677165354330709,
                    "duration": 0.2509200000000078
                },
                {
                    "name": "G3",
                    "midi": 55,
                    "time": 338.9929200000006,
                    "velocity": 0.2125984251968504,
                    "duration": 0.2509200000000078
                },
                {
                    "name": "E4",
                    "midi": 64,
                    "time": 339.2438400000006,
                    "velocity": 0.3937007874015748,
                    "duration": 0.2509200000000078
                },
                {
                    "name": "G3",
                    "midi": 55,
                    "time": 339.4947600000006,
                    "velocity": 0.28346456692913385,
                    "duration": 0.2509200000000078
                },
                {
                    "name": "E4",
                    "midi": 64,
                    "time": 339.7456800000006,
                    "velocity": 0.28346456692913385,
                    "duration": 0.2509200000000078
                },
                {
                    "name": "G3",
                    "midi": 55,
                    "time": 339.9966000000006,
                    "velocity": 0.28346456692913385,
                    "duration": 0.2509200000000078
                },
                {
                    "name": "D4",
                    "midi": 62,
                    "time": 340.24752000000063,
                    "velocity": 0.3937007874015748,
                    "duration": 0.2509200000000078
                },
                {
                    "name": "G3",
                    "midi": 55,
                    "time": 340.49844000000064,
                    "velocity": 0.31496062992125984,
                    "duration": 0.2509200000000078
                },
                {
                    "name": "D4",
                    "midi": 62,
                    "time": 340.74936000000065,
                    "velocity": 0.31496062992125984,
                    "duration": 0.2509200000000078
                },
                {
                    "name": "G3",
                    "midi": 55,
                    "time": 341.00028000000066,
                    "velocity": 0.31496062992125984,
                    "duration": 0.2509200000000078
                },
                {
                    "name": "C4",
                    "midi": 60,
                    "time": 341.25120000000067,
                    "velocity": 0.4094488188976378,
                    "duration": 0.2509200000000078
                },
                {
                    "name": "G3",
                    "midi": 55,
                    "time": 341.5021200000007,
                    "velocity": 0.30708661417322836,
                    "duration": 0.2509200000000078
                },
                {
                    "name": "C4",
                    "midi": 60,
                    "time": 341.7530400000007,
                    "velocity": 0.33070866141732286,
                    "duration": 0.2509200000000078
                },
                {
                    "name": "G3",
                    "midi": 55,
                    "time": 342.0039600000007,
                    "velocity": 0.3779527559055118,
                    "duration": 0.2509200000000078
                },
                {
                    "name": "B3",
                    "midi": 59,
                    "time": 342.2548800000007,
                    "velocity": 0.3543307086614173,
                    "duration": 0.2509200000000078
                },
                {
                    "name": "G3",
                    "midi": 55,
                    "time": 342.5058000000007,
                    "velocity": 0.3543307086614173,
                    "duration": 0.2509200000000078
                },
                {
                    "name": "B3",
                    "midi": 59,
                    "time": 342.7567200000007,
                    "velocity": 0.4094488188976378,
                    "duration": 0.2509200000000078
                },
                {
                    "name": "G3",
                    "midi": 55,
                    "time": 343.0076400000007,
                    "velocity": 0.3543307086614173,
                    "duration": 0.2509200000000078
                },
                {
                    "name": "G4",
                    "midi": 67,
                    "time": 343.2585600000007,
                    "velocity": 0.4330708661417323,
                    "duration": 0.2509200000000078
                },
                {
                    "name": "G3",
                    "midi": 55,
                    "time": 343.50948000000074,
                    "velocity": 0.36220472440944884,
                    "duration": 0.2509200000000078
                },
                {
                    "name": "G4",
                    "midi": 67,
                    "time": 343.76040000000074,
                    "velocity": 0.4330708661417323,
                    "duration": 0.2509200000000078
                },
                {
                    "name": "G3",
                    "midi": 55,
                    "time": 344.01132000000075,
                    "velocity": 0.3700787401574803,
                    "duration": 0.2509200000000078
                },
                {
                    "name": "G4",
                    "midi": 67,
                    "time": 344.26224000000076,
                    "velocity": 0.47244094488188976,
                    "duration": 0.2509200000000078
                },
                {
                    "name": "G3",
                    "midi": 55,
                    "time": 344.51316000000077,
                    "velocity": 0.3858267716535433,
                    "duration": 0.2509200000000078
                },
                {
                    "name": "G4",
                    "midi": 67,
                    "time": 344.7640800000008,
                    "velocity": 0.49606299212598426,
                    "duration": 0.2509200000000078
                },
                {
                    "name": "G3",
                    "midi": 55,
                    "time": 345.0150000000008,
                    "velocity": 0.4015748031496063,
                    "duration": 0.5018400000000156
                },
                {
                    "name": "D4",
                    "midi": 62,
                    "time": 345.2031900000008,
                    "velocity": 0.4566929133858268,
                    "duration": 0.31364999999999554
                },
                {
                    "name": "F4",
                    "midi": 65,
                    "time": 345.2345550000008,
                    "velocity": 0.49606299212598426,
                    "duration": 0.2822850000000017
                },
                {
                    "name": "B4",
                    "midi": 71,
                    "time": 345.2659200000008,
                    "velocity": 0.5354330708661418,
                    "duration": 0.2509200000000078
                },
                {
                    "name": "E4",
                    "midi": 64,
                    "time": 345.5168400000008,
                    "velocity": 0.3937007874015748,
                    "duration": 0.2509200000000078
                },
                {
                    "name": "E5",
                    "midi": 76,
                    "time": 345.5168400000008,
                    "velocity": 0.4645669291338583,
                    "duration": 0.2509200000000078
                },
                {
                    "name": "F4",
                    "midi": 65,
                    "time": 345.7677600000008,
                    "velocity": 0.4409448818897638,
                    "duration": 0.2509200000000078
                },
                {
                    "name": "F5",
                    "midi": 77,
                    "time": 345.7677600000008,
                    "velocity": 0.5196850393700787,
                    "duration": 0.2509200000000078
                },
                {
                    "name": "C#4",
                    "midi": 61,
                    "time": 346.0186800000008,
                    "velocity": 0.3937007874015748,
                    "duration": 0.12545999999997548
                },
                {
                    "name": "C#5",
                    "midi": 73,
                    "time": 346.0186800000008,
                    "velocity": 0.4645669291338583,
                    "duration": 0.12545999999997548
                },
                {
                    "name": "D4",
                    "midi": 62,
                    "time": 346.26960000000076,
                    "velocity": 0.4409448818897638,
                    "duration": 0.12545999999997548
                },
                {
                    "name": "D5",
                    "midi": 74,
                    "time": 346.26960000000076,
                    "velocity": 0.5275590551181102,
                    "duration": 0.12545999999997548
                },
                {
                    "name": "E3",
                    "midi": 52,
                    "time": 347.52420000000075,
                    "velocity": 0.3858267716535433,
                    "duration": 0.2509200000000078
                },
                {
                    "name": "F3",
                    "midi": 53,
                    "time": 347.77512000000075,
                    "velocity": 0.4566929133858268,
                    "duration": 0.2509200000000078
                },
                {
                    "name": "C#3",
                    "midi": 49,
                    "time": 348.02604000000076,
                    "velocity": 0.3779527559055118,
                    "duration": 0.12545999999997548
                },
                {
                    "name": "D3",
                    "midi": 50,
                    "time": 348.2769600000007,
                    "velocity": 0.44881889763779526,
                    "duration": 0.12545999999997548
                },
                {
                    "name": "G4",
                    "midi": 67,
                    "time": 349.2806400000007,
                    "velocity": 0.36220472440944884,
                    "duration": 1.0036800000000312
                },
                {
                    "name": "D#4",
                    "midi": 63,
                    "time": 349.2806400000007,
                    "velocity": 0.28346456692913385,
                    "duration": 1.0036800000000312
                },
                {
                    "name": "G1",
                    "midi": 31,
                    "time": 349.2806400000007,
                    "velocity": 0.28346456692913385,
                    "duration": 0.2509200000000078
                },
                {
                    "name": "G3",
                    "midi": 55,
                    "time": 349.5315600000007,
                    "velocity": 0.1889763779527559,
                    "duration": 0.2509200000000078
                },
                {
                    "name": "G#3",
                    "midi": 56,
                    "time": 349.7824800000007,
                    "velocity": 0.2440944881889764,
                    "duration": 0.2509200000000078
                },
                {
                    "name": "G3",
                    "midi": 55,
                    "time": 350.0334000000007,
                    "velocity": 0.1889763779527559,
                    "duration": 0.2509200000000078
                },
                {
                    "name": "F4",
                    "midi": 65,
                    "time": 350.2843200000007,
                    "velocity": 0.28346456692913385,
                    "duration": 0.5018400000000156
                },
                {
                    "name": "D4",
                    "midi": 62,
                    "time": 350.2843200000007,
                    "velocity": 0.2125984251968504,
                    "duration": 0.5018400000000156
                },
                {
                    "name": "G3",
                    "midi": 55,
                    "time": 350.5352400000007,
                    "velocity": 0.1889763779527559,
                    "duration": 0.2509200000000078
                },
                {
                    "name": "G4",
                    "midi": 67,
                    "time": 350.78616000000073,
                    "velocity": 0.2992125984251969,
                    "duration": 0.5018400000000156
                },
                {
                    "name": "D#4",
                    "midi": 63,
                    "time": 350.78616000000073,
                    "velocity": 0.2992125984251969,
                    "duration": 0.5018400000000156
                },
                {
                    "name": "G3",
                    "midi": 55,
                    "time": 351.03708000000074,
                    "velocity": 0.1889763779527559,
                    "duration": 0.2509200000000078
                },
                {
                    "name": "G#4",
                    "midi": 68,
                    "time": 351.28800000000075,
                    "velocity": 0.33858267716535434,
                    "duration": 0.7527600000000234
                },
                {
                    "name": "F4",
                    "midi": 65,
                    "time": 351.28800000000075,
                    "velocity": 0.33858267716535434,
                    "duration": 0.7318500000000085
                },
                {
                    "name": "G3",
                    "midi": 55,
                    "time": 351.53892000000076,
                    "velocity": 0.18110236220472442,
                    "duration": 0.2509200000000078
                },
                {
                    "name": "G#3",
                    "midi": 56,
                    "time": 351.78984000000077,
                    "velocity": 0.14960629921259844,
                    "duration": 0.2509200000000078
                },
                {
                    "name": "D4",
                    "midi": 62,
                    "time": 352.0407600000008,
                    "velocity": 0.1968503937007874,
                    "duration": 0.23000999999999294
                },
                {
                    "name": "F4",
                    "midi": 65,
                    "time": 352.0407600000008,
                    "velocity": 0.28346456692913385,
                    "duration": 0.2509200000000078
                },
                {
                    "name": "G3",
                    "midi": 55,
                    "time": 352.0407600000008,
                    "velocity": 0.2047244094488189,
                    "duration": 0.2509200000000078
                },
                {
                    "name": "B3",
                    "midi": 59,
                    "time": 352.2916800000008,
                    "velocity": 0.28346456692913385,
                    "duration": 0.5018400000000156
                },
                {
                    "name": "D4",
                    "midi": 62,
                    "time": 352.2916800000008,
                    "velocity": 0.33858267716535434,
                    "duration": 0.5018400000000156
                },
                {
                    "name": "G3",
                    "midi": 55,
                    "time": 352.5426000000008,
                    "velocity": 0.1889763779527559,
                    "duration": 0.2509200000000078
                },
                {
                    "name": "D#4",
                    "midi": 63,
                    "time": 352.7935200000008,
                    "velocity": 0.28346456692913385,
                    "duration": 0.5018400000000156
                },
                {
                    "name": "C4",
                    "midi": 60,
                    "time": 352.7935200000008,
                    "velocity": 0.23622047244094488,
                    "duration": 0.5018400000000156
                },
                {
                    "name": "G3",
                    "midi": 55,
                    "time": 353.0444400000008,
                    "velocity": 0.1889763779527559,
                    "duration": 0.2509200000000078
                },
                {
                    "name": "D4",
                    "midi": 62,
                    "time": 353.2953600000008,
                    "velocity": 0.2755905511811024,
                    "duration": 0.5018400000000156
                },
                {
                    "name": "F4",
                    "midi": 65,
                    "time": 353.2953600000008,
                    "velocity": 0.33070866141732286,
                    "duration": 0.5018400000000156
                },
                {
                    "name": "G3",
                    "midi": 55,
                    "time": 353.5462800000008,
                    "velocity": 0.23622047244094488,
                    "duration": 0.2509200000000078
                },
                {
                    "name": "C4",
                    "midi": 60,
                    "time": 353.7972000000008,
                    "velocity": 0.25984251968503935,
                    "duration": 0.5018400000000156
                },
                {
                    "name": "D#4",
                    "midi": 63,
                    "time": 353.7972000000008,
                    "velocity": 0.30708661417322836,
                    "duration": 0.5018400000000156
                },
                {
                    "name": "G3",
                    "midi": 55,
                    "time": 354.04812000000084,
                    "velocity": 0.23622047244094488,
                    "duration": 0.2509200000000078
                },
                {
                    "name": "D4",
                    "midi": 62,
                    "time": 354.29904000000084,
                    "velocity": 0.3228346456692913,
                    "duration": 0.5018400000000156
                },
                {
                    "name": "A#3",
                    "midi": 58,
                    "time": 354.29904000000084,
                    "velocity": 0.2677165354330709,
                    "duration": 0.5018400000000156
                },
                {
                    "name": "G3",
                    "midi": 55,
                    "time": 354.54996000000085,
                    "velocity": 0.2204724409448819,
                    "duration": 0.2509200000000078
                },
                {
                    "name": "C4",
                    "midi": 60,
                    "time": 354.80088000000086,
                    "velocity": 0.29133858267716534,
                    "duration": 0.5018400000000156
                },
                {
                    "name": "G#3",
                    "midi": 56,
                    "time": 354.80088000000086,
                    "velocity": 0.2440944881889764,
                    "duration": 0.5018400000000156
                },
                {
                    "name": "G3",
                    "midi": 55,
                    "time": 355.05180000000087,
                    "velocity": 0.2283464566929134,
                    "duration": 0.2509200000000078
                },
                {
                    "name": "B3",
                    "midi": 59,
                    "time": 355.3027200000009,
                    "velocity": 0.33858267716535434,
                    "duration": 0.7527600000000234
                },
                {
                    "name": "G3",
                    "midi": 55,
                    "time": 355.5536400000009,
                    "velocity": 0.23622047244094488,
                    "duration": 0.2509200000000078
                },
                {
                    "name": "G#3",
                    "midi": 56,
                    "time": 355.8045600000009,
                    "velocity": 0.23622047244094488,
                    "duration": 0.2509200000000078
                },
                {
                    "name": "C4",
                    "midi": 60,
                    "time": 356.0554800000009,
                    "velocity": 0.28346456692913385,
                    "duration": 0.2509200000000078
                },
                {
                    "name": "G3",
                    "midi": 55,
                    "time": 356.0554800000009,
                    "velocity": 0.2204724409448819,
                    "duration": 0.2509200000000078
                },
                {
                    "name": "D4",
                    "midi": 62,
                    "time": 356.3064000000009,
                    "velocity": 0.36220472440944884,
                    "duration": 0.5018400000000156
                },
                {
                    "name": "G3",
                    "midi": 55,
                    "time": 356.5573200000009,
                    "velocity": 0.2204724409448819,
                    "duration": 0.2509200000000078
                },
                {
                    "name": "G3",
                    "midi": 55,
                    "time": 357.05916000000093,
                    "velocity": 0.23622047244094488,
                    "duration": 0.2509200000000078
                },
                {
                    "name": "G4",
                    "midi": 67,
                    "time": 357.31008000000094,
                    "velocity": 0.36220472440944884,
                    "duration": 1.0036800000000312
                },
                {
                    "name": "D4",
                    "midi": 62,
                    "time": 357.31008000000094,
                    "velocity": 0.28346456692913385,
                    "duration": 0.9827700000000164
                },
                {
                    "name": "G3",
                    "midi": 55,
                    "time": 357.56100000000094,
                    "velocity": 0.2047244094488189,
                    "duration": 0.2509200000000078
                },
                {
                    "name": "G#3",
                    "midi": 56,
                    "time": 357.81192000000095,
                    "velocity": 0.2440944881889764,
                    "duration": 0.2509200000000078
                },
                {
                    "name": "G3",
                    "midi": 55,
                    "time": 358.06284000000096,
                    "velocity": 0.2047244094488189,
                    "duration": 0.2509200000000078
                },
                {
                    "name": "F4",
                    "midi": 65,
                    "time": 358.31376000000097,
                    "velocity": 0.28346456692913385,
                    "duration": 0.5018400000000156
                },
                {
                    "name": "D4",
                    "midi": 62,
                    "time": 358.31376000000097,
                    "velocity": 0.2125984251968504,
                    "duration": 0.5018400000000156
                },
                {
                    "name": "G3",
                    "midi": 55,
                    "time": 358.564680000001,
                    "velocity": 0.1889763779527559,
                    "duration": 0.2509200000000078
                },
                {
                    "name": "G4",
                    "midi": 67,
                    "time": 358.815600000001,
                    "velocity": 0.2992125984251969,
                    "duration": 0.5018400000000156
                },
                {
                    "name": "D#4",
                    "midi": 63,
                    "time": 358.815600000001,
                    "velocity": 0.25196850393700787,
                    "duration": 0.5018400000000156
                },
                {
                    "name": "G3",
                    "midi": 55,
                    "time": 359.066520000001,
                    "velocity": 0.1889763779527559,
                    "duration": 0.2509200000000078
                },
                {
                    "name": "A#4",
                    "midi": 70,
                    "time": 359.317440000001,
                    "velocity": 0.3464566929133858,
                    "duration": 0.7527600000000234
                },
                {
                    "name": "G4",
                    "midi": 67,
                    "time": 359.317440000001,
                    "velocity": 0.2677165354330709,
                    "duration": 0.2509200000000078
                },
                {
                    "name": "G3",
                    "midi": 55,
                    "time": 359.568360000001,
                    "velocity": 0.18110236220472442,
                    "duration": 0.2509200000000078
                },
                {
                    "name": "G#3",
                    "midi": 56,
                    "time": 359.819280000001,
                    "velocity": 0.14960629921259844,
                    "duration": 0.2509200000000078
                },
                {
                    "name": "G#4",
                    "midi": 68,
                    "time": 360.070200000001,
                    "velocity": 0.2204724409448819,
                    "duration": 0.2509200000000078
                },
                {
                    "name": "G3",
                    "midi": 55,
                    "time": 360.070200000001,
                    "velocity": 0.28346456692913385,
                    "duration": 0.2509200000000078
                },
                {
                    "name": "D4",
                    "midi": 62,
                    "time": 360.32112000000103,
                    "velocity": 0.2204724409448819,
                    "duration": 0.5018400000000156
                },
                {
                    "name": "F4",
                    "midi": 65,
                    "time": 360.32112000000103,
                    "velocity": 0.2677165354330709,
                    "duration": 0.5018400000000156
                },
                {
                    "name": "G3",
                    "midi": 55,
                    "time": 360.57204000000104,
                    "velocity": 0.1889763779527559,
                    "duration": 0.2509200000000078
                },
                {
                    "name": "A#4",
                    "midi": 70,
                    "time": 360.82296000000105,
                    "velocity": 0.28346456692913385,
                    "duration": 0.2509200000000078
                },
                {
                    "name": "G4",
                    "midi": 67,
                    "time": 360.82296000000105,
                    "velocity": 0.23622047244094488,
                    "duration": 0.2509200000000078
                },
                {
                    "name": "F4",
                    "midi": 65,
                    "time": 361.07388000000105,
                    "velocity": 0.23622047244094488,
                    "duration": 0.2509200000000078
                },
                {
                    "name": "G#4",
                    "midi": 68,
                    "time": 361.07388000000105,
                    "velocity": 0.28346456692913385,
                    "duration": 0.2509200000000078
                },
                {
                    "name": "D#4",
                    "midi": 63,
                    "time": 361.32480000000106,
                    "velocity": 0.2755905511811024,
                    "duration": 0.2509200000000078
                },
                {
                    "name": "G4",
                    "midi": 67,
                    "time": 361.32480000000106,
                    "velocity": 0.33070866141732286,
                    "duration": 0.5018400000000156
                },
                {
                    "name": "G3",
                    "midi": 55,
                    "time": 361.57572000000107,
                    "velocity": 0.23622047244094488,
                    "duration": 0.2509200000000078
                },
                {
                    "name": "C4",
                    "midi": 60,
                    "time": 361.8266400000011,
                    "velocity": 0.25984251968503935,
                    "duration": 0.2509200000000078
                },
                {
                    "name": "D#4",
                    "midi": 63,
                    "time": 361.8266400000011,
                    "velocity": 0.30708661417322836,
                    "duration": 0.5018400000000156
                },
                {
                    "name": "G3",
                    "midi": 55,
                    "time": 362.0775600000011,
                    "velocity": 0.23622047244094488,
                    "duration": 0.2509200000000078
                },
                {
                    "name": "F4",
                    "midi": 65,
                    "time": 362.3284800000011,
                    "velocity": 0.3228346456692913,
                    "duration": 0.5018400000000156
                },
                {
                    "name": "D4",
                    "midi": 62,
                    "time": 362.3284800000011,
                    "velocity": 0.2677165354330709,
                    "duration": 0.2509200000000078
                },
                {
                    "name": "G3",
                    "midi": 55,
                    "time": 362.5794000000011,
                    "velocity": 0.2204724409448819,
                    "duration": 0.2509200000000078
                },
                {
                    "name": "D4",
                    "midi": 62,
                    "time": 362.8303200000011,
                    "velocity": 0.29133858267716534,
                    "duration": 0.5018400000000156
                },
                {
                    "name": "B3",
                    "midi": 59,
                    "time": 362.8303200000011,
                    "velocity": 0.2440944881889764,
                    "duration": 0.2509200000000078
                },
                {
                    "name": "G3",
                    "midi": 55,
                    "time": 363.0812400000011,
                    "velocity": 0.2283464566929134,
                    "duration": 0.2509200000000078
                },
                {
                    "name": "C4",
                    "midi": 60,
                    "time": 363.3321600000011,
                    "velocity": 0.23622047244094488,
                    "duration": 0.2509200000000078
                },
                {
                    "name": "D#4",
                    "midi": 63,
                    "time": 363.3321600000011,
                    "velocity": 0.33858267716535434,
                    "duration": 0.5018400000000156
                },
                {
                    "name": "G3",
                    "midi": 55,
                    "time": 363.58308000000113,
                    "velocity": 0.23622047244094488,
                    "duration": 0.2509200000000078
                },
                {
                    "name": "C4",
                    "midi": 60,
                    "time": 363.83400000000114,
                    "velocity": 0.28346456692913385,
                    "duration": 0.5018400000000156
                },
                {
                    "name": "A3",
                    "midi": 57,
                    "time": 363.83400000000114,
                    "velocity": 0.23622047244094488,
                    "duration": 0.2509200000000078
                },
                {
                    "name": "G3",
                    "midi": 55,
                    "time": 364.08492000000115,
                    "velocity": 0.28346456692913385,
                    "duration": 0.2509200000000078
                },
                {
                    "name": "B3",
                    "midi": 59,
                    "time": 364.33584000000116,
                    "velocity": 0.23622047244094488,
                    "duration": 0.2509200000000078
                },
                {
                    "name": "D4",
                    "midi": 62,
                    "time": 364.33584000000116,
                    "velocity": 0.36220472440944884,
                    "duration": 0.5018400000000156
                },
                {
                    "name": "G3",
                    "midi": 55,
                    "time": 364.58676000000116,
                    "velocity": 0.2204724409448819,
                    "duration": 0.2509200000000078
                },
                {
                    "name": "G3",
                    "midi": 55,
                    "time": 365.0886000000012,
                    "velocity": 0.23622047244094488,
                    "duration": 1.2545999999999822
                },
                {
                    "name": "D#3",
                    "midi": 51,
                    "time": 365.3395200000012,
                    "velocity": 0.1968503937007874,
                    "duration": 1.0036799999999744
                },
                {
                    "name": "C4",
                    "midi": 60,
                    "time": 365.3395200000012,
                    "velocity": 0.23622047244094488,
                    "duration": 1.0036799999999744
                },
                {
                    "name": "F3",
                    "midi": 53,
                    "time": 366.34320000000116,
                    "velocity": 0.1732283464566929,
                    "duration": 1.0036799999999744
                },
                {
                    "name": "G#3",
                    "midi": 56,
                    "time": 366.34320000000116,
                    "velocity": 0.1732283464566929,
                    "duration": 1.0036799999999744
                },
                {
                    "name": "C#4",
                    "midi": 61,
                    "time": 366.34320000000116,
                    "velocity": 0.2125984251968504,
                    "duration": 1.0036799999999744
                },
                {
                    "name": "D4",
                    "midi": 62,
                    "time": 367.34688000000114,
                    "velocity": 0.2125984251968504,
                    "duration": 1.0036799999999744
                },
                {
                    "name": "G3",
                    "midi": 55,
                    "time": 367.34688000000114,
                    "velocity": 0.1732283464566929,
                    "duration": 1.0036799999999744
                },
                {
                    "name": "G2",
                    "midi": 43,
                    "time": 369.10332000000113,
                    "velocity": 0.23622047244094488,
                    "duration": 1.2545999999999822
                },
                {
                    "name": "D#2",
                    "midi": 39,
                    "time": 369.35424000000114,
                    "velocity": 0.1968503937007874,
                    "duration": 1.0036799999999744
                },
                {
                    "name": "C3",
                    "midi": 48,
                    "time": 369.35424000000114,
                    "velocity": 0.23622047244094488,
                    "duration": 1.0036799999999744
                },
                {
                    "name": "F2",
                    "midi": 41,
                    "time": 370.3579200000011,
                    "velocity": 0.1732283464566929,
                    "duration": 1.0036799999999744
                },
                {
                    "name": "G#2",
                    "midi": 44,
                    "time": 370.3579200000011,
                    "velocity": 0.1732283464566929,
                    "duration": 1.0036799999999744
                },
                {
                    "name": "C#3",
                    "midi": 49,
                    "time": 370.3579200000011,
                    "velocity": 0.2125984251968504,
                    "duration": 1.0036799999999744
                },
                {
                    "name": "D3",
                    "midi": 50,
                    "time": 371.3616000000011,
                    "velocity": 0.2125984251968504,
                    "duration": 1.0036799999999744
                },
                {
                    "name": "G2",
                    "midi": 43,
                    "time": 371.3616000000011,
                    "velocity": 0.1732283464566929,
                    "duration": 1.0036799999999744
                },
                {
                    "name": "G1",
                    "midi": 31,
                    "time": 372.8671200000011,
                    "velocity": 0.5826771653543307,
                    "duration": 0.2509200000000078
                },
                {
                    "name": "G2",
                    "midi": 43,
                    "time": 372.8671200000011,
                    "velocity": 0.6929133858267716,
                    "duration": 0.2509200000000078
                },
                {
                    "name": "G3",
                    "midi": 55,
                    "time": 373.3689600000011,
                    "velocity": 0.7716535433070866,
                    "duration": 1.0036799999999744
                },
                {
                    "name": "G2",
                    "midi": 43,
                    "time": 373.3689600000011,
                    "velocity": 0.6299212598425197,
                    "duration": 1.0036799999999744
                },
                {
                    "name": "F3",
                    "midi": 53,
                    "time": 374.37264000000107,
                    "velocity": 0.6535433070866141,
                    "duration": 0.5018400000000156
                },
                {
                    "name": "F2",
                    "midi": 41,
                    "time": 374.37264000000107,
                    "velocity": 0.5511811023622047,
                    "duration": 0.5018400000000156
                },
                {
                    "name": "G3",
                    "midi": 55,
                    "time": 374.8744800000011,
                    "velocity": 0.6929133858267716,
                    "duration": 0.5018400000000156
                },
                {
                    "name": "G2",
                    "midi": 43,
                    "time": 374.8744800000011,
                    "velocity": 0.5826771653543307,
                    "duration": 0.5018400000000156
                },
                {
                    "name": "G#3",
                    "midi": 56,
                    "time": 375.3763200000011,
                    "velocity": 0.7401574803149606,
                    "duration": 0.7527600000000234
                },
                {
                    "name": "G#2",
                    "midi": 44,
                    "time": 375.3763200000011,
                    "velocity": 0.6220472440944882,
                    "duration": 0.7527600000000234
                },
                {
                    "name": "F3",
                    "midi": 53,
                    "time": 376.1290800000011,
                    "velocity": 0.6614173228346457,
                    "duration": 0.2509200000000078
                },
                {
                    "name": "F2",
                    "midi": 41,
                    "time": 376.1290800000011,
                    "velocity": 0.5590551181102362,
                    "duration": 0.2509200000000078
                },
                {
                    "name": "D3",
                    "midi": 50,
                    "time": 376.38000000000113,
                    "velocity": 0.7165354330708661,
                    "duration": 0.5018400000000156
                },
                {
                    "name": "D2",
                    "midi": 38,
                    "time": 376.38000000000113,
                    "velocity": 0.6062992125984252,
                    "duration": 0.5018400000000156
                },
                {
                    "name": "D#3",
                    "midi": 51,
                    "time": 376.88184000000115,
                    "velocity": 0.6771653543307087,
                    "duration": 0.5018400000000156
                },
                {
                    "name": "D#2",
                    "midi": 39,
                    "time": 376.88184000000115,
                    "velocity": 0.5748031496062992,
                    "duration": 0.5018400000000156
                },
                {
                    "name": "F2",
                    "midi": 41,
                    "time": 377.38368000000116,
                    "velocity": 0.6062992125984252,
                    "duration": 0.5018400000000156
                },
                {
                    "name": "F3",
                    "midi": 53,
                    "time": 377.38368000000116,
                    "velocity": 0.7165354330708661,
                    "duration": 0.5018400000000156
                },
                {
                    "name": "D#2",
                    "midi": 39,
                    "time": 377.8855200000012,
                    "velocity": 0.5748031496062992,
                    "duration": 0.5018400000000156
                },
                {
                    "name": "D#3",
                    "midi": 51,
                    "time": 377.8855200000012,
                    "velocity": 0.6850393700787402,
                    "duration": 0.5018400000000156
                },
                {
                    "name": "D2",
                    "midi": 38,
                    "time": 378.3873600000012,
                    "velocity": 0.6220472440944882,
                    "duration": 0.5018400000000156
                },
                {
                    "name": "D3",
                    "midi": 50,
                    "time": 378.3873600000012,
                    "velocity": 0.7322834645669292,
                    "duration": 0.5018400000000156
                },
                {
                    "name": "C2",
                    "midi": 36,
                    "time": 378.8892000000012,
                    "velocity": 0.5905511811023622,
                    "duration": 0.5018400000000156
                },
                {
                    "name": "C3",
                    "midi": 48,
                    "time": 378.8892000000012,
                    "velocity": 0.7007874015748031,
                    "duration": 0.5018400000000156
                },
                {
                    "name": "B1",
                    "midi": 35,
                    "time": 379.3910400000012,
                    "velocity": 0.6299212598425197,
                    "duration": 1.0036799999999744
                },
                {
                    "name": "B2",
                    "midi": 47,
                    "time": 379.3910400000012,
                    "velocity": 0.7480314960629921,
                    "duration": 1.0036799999999744
                },
                {
                    "name": "A#1",
                    "midi": 34,
                    "time": 380.3947200000012,
                    "velocity": 0.6299212598425197,
                    "duration": 0.5018400000000156
                },
                {
                    "name": "A#2",
                    "midi": 46,
                    "time": 380.3947200000012,
                    "velocity": 0.7480314960629921,
                    "duration": 0.5018400000000156
                },
                {
                    "name": "A1",
                    "midi": 33,
                    "time": 380.8965600000012,
                    "velocity": 0.6771653543307087,
                    "duration": 0.43911000000002787
                },
                {
                    "name": "A2",
                    "midi": 45,
                    "time": 380.8965600000012,
                    "velocity": 0.8031496062992126,
                    "duration": 0.43911000000002787
                },
                {
                    "name": "G#1",
                    "midi": 32,
                    "time": 381.33567000000124,
                    "velocity": 0.5669291338582677,
                    "duration": 0.06272999999998774
                },
                {
                    "name": "G#2",
                    "midi": 44,
                    "time": 381.36703500000124,
                    "velocity": 0.5669291338582677,
                    "duration": 0.03136499999999387
                },
                {
                    "name": "F4",
                    "midi": 65,
                    "time": 381.39840000000123,
                    "velocity": 0.6614173228346457,
                    "duration": 0.7527600000000234
                },
                {
                    "name": "D4",
                    "midi": 62,
                    "time": 381.39840000000123,
                    "velocity": 0.6299212598425197,
                    "duration": 0.7527600000000234
                },
                {
                    "name": "A#3",
                    "midi": 58,
                    "time": 381.39840000000123,
                    "velocity": 0.5905511811023622,
                    "duration": 0.7527600000000234
                },
                {
                    "name": "G#3",
                    "midi": 56,
                    "time": 381.39840000000123,
                    "velocity": 0.5669291338582677,
                    "duration": 0.7527600000000234
                },
                {
                    "name": "A#2",
                    "midi": 46,
                    "time": 382.15116000000125,
                    "velocity": 0.5196850393700787,
                    "duration": 0.23837400000002162
                },
                {
                    "name": "A#3",
                    "midi": 58,
                    "time": 382.15116000000125,
                    "velocity": 0.6141732283464567,
                    "duration": 0.23837400000002162
                },
                {
                    "name": "A#2",
                    "midi": 46,
                    "time": 382.40208000000126,
                    "velocity": 0.5196850393700787,
                    "duration": 0.5018400000000156
                },
                {
                    "name": "A#3",
                    "midi": 58,
                    "time": 382.40208000000126,
                    "velocity": 0.6141732283464567,
                    "duration": 0.5018400000000156
                },
                {
                    "name": "C3",
                    "midi": 48,
                    "time": 382.9039200000013,
                    "velocity": 0.47244094488188976,
                    "duration": 0.12545999999997548
                },
                {
                    "name": "C4",
                    "midi": 60,
                    "time": 382.9039200000013,
                    "velocity": 0.5511811023622047,
                    "duration": 0.12545999999997548
                },
                {
                    "name": "D3",
                    "midi": 50,
                    "time": 383.15484000000123,
                    "velocity": 0.5196850393700787,
                    "duration": 0.12545999999997548
                },
                {
                    "name": "D4",
                    "midi": 62,
                    "time": 383.15484000000123,
                    "velocity": 0.6141732283464567,
                    "duration": 0.12545999999997548
                },
                {
                    "name": "G#3",
                    "midi": 56,
                    "time": 383.4057600000012,
                    "velocity": 0.5275590551181102,
                    "duration": 0.12545999999997548
                },
                {
                    "name": "D#3",
                    "midi": 51,
                    "time": 383.4057600000012,
                    "velocity": 0.5275590551181102,
                    "duration": 0.12545999999997548
                },
                {
                    "name": "B3",
                    "midi": 59,
                    "time": 383.4057600000012,
                    "velocity": 0.5275590551181102,
                    "duration": 0.12545999999997548
                },
                {
                    "name": "D#4",
                    "midi": 63,
                    "time": 383.4057600000012,
                    "velocity": 0.6299212598425197,
                    "duration": 0.12545999999997548
                },
                {
                    "name": "G#1",
                    "midi": 32,
                    "time": 383.90760000000114,
                    "velocity": 0.6299212598425197,
                    "duration": 0.5018400000000156
                },
                {
                    "name": "G#2",
                    "midi": 44,
                    "time": 383.90760000000114,
                    "velocity": 0.7559055118110236,
                    "duration": 0.5018400000000156
                },
                {
                    "name": "D#3",
                    "midi": 51,
                    "time": 384.91128000000117,
                    "velocity": 0.5275590551181102,
                    "duration": 0.4767479999999864
                },
                {
                    "name": "G#3",
                    "midi": 56,
                    "time": 384.91128000000117,
                    "velocity": 0.5275590551181102,
                    "duration": 0.4767479999999864
                },
                {
                    "name": "B3",
                    "midi": 59,
                    "time": 384.91128000000117,
                    "velocity": 0.5275590551181102,
                    "duration": 0.4767479999999864
                },
                {
                    "name": "D#4",
                    "midi": 63,
                    "time": 384.91128000000117,
                    "velocity": 0.6299212598425197,
                    "duration": 0.4767479999999864
                },
                {
                    "name": "F#3",
                    "midi": 54,
                    "time": 385.41312000000113,
                    "velocity": 0.5669291338582677,
                    "duration": 0.7527600000000234
                },
                {
                    "name": "G#4",
                    "midi": 68,
                    "time": 385.41312000000113,
                    "velocity": 0.6614173228346457,
                    "duration": 0.7527600000000234
                },
                {
                    "name": "D#4",
                    "midi": 63,
                    "time": 385.41312000000113,
                    "velocity": 0.6299212598425197,
                    "duration": 0.7527600000000234
                },
                {
                    "name": "C4",
                    "midi": 60,
                    "time": 385.41312000000113,
                    "velocity": 0.5905511811023622,
                    "duration": 0.7527600000000234
                },
                {
                    "name": "G#3",
                    "midi": 56,
                    "time": 385.41312000000113,
                    "velocity": 0.5669291338582677,
                    "duration": 0.7318500000000085
                },
                {
                    "name": "F#1",
                    "midi": 30,
                    "time": 385.91496000000114,
                    "velocity": 0.7874015748031497,
                    "duration": 0.2509200000000078
                },
                {
                    "name": "F#2",
                    "midi": 42,
                    "time": 385.91496000000114,
                    "velocity": 0.7874015748031497,
                    "duration": 0.2509200000000078
                },
                {
                    "name": "F#2",
                    "midi": 42,
                    "time": 386.16588000000115,
                    "velocity": 0.5905511811023622,
                    "duration": 0.2258279999999786
                },
                {
                    "name": "G#2",
                    "midi": 44,
                    "time": 386.16588000000115,
                    "velocity": 0.5905511811023622,
                    "duration": 0.2258279999999786
                },
                {
                    "name": "G#3",
                    "midi": 56,
                    "time": 386.16588000000115,
                    "velocity": 0.7007874015748031,
                    "duration": 0.2258279999999786
                },
                {
                    "name": "F#2",
                    "midi": 42,
                    "time": 386.4168000000011,
                    "velocity": 0.5905511811023622,
                    "duration": 0.4767479999999864
                },
                {
                    "name": "G#2",
                    "midi": 44,
                    "time": 386.4168000000011,
                    "velocity": 0.5905511811023622,
                    "duration": 0.4767479999999864
                },
                {
                    "name": "G#3",
                    "midi": 56,
                    "time": 386.4168000000011,
                    "velocity": 0.7007874015748031,
                    "duration": 0.4767479999999864
                },
                {
                    "name": "C#3",
                    "midi": 49,
                    "time": 386.91864000000106,
                    "velocity": 0.5196850393700787,
                    "duration": 0.12545999999997548
                },
                {
                    "name": "C#4",
                    "midi": 61,
                    "time": 386.91864000000106,
                    "velocity": 0.6062992125984252,
                    "duration": 0.12545999999997548
                },
                {
                    "name": "D#3",
                    "midi": 51,
                    "time": 387.169560000001,
                    "velocity": 0.5669291338582677,
                    "duration": 0.12545999999997548
                },
                {
                    "name": "D#4",
                    "midi": 63,
                    "time": 387.169560000001,
                    "velocity": 0.6692913385826772,
                    "duration": 0.12545999999997548
                },
                {
                    "name": "G#3",
                    "midi": 56,
                    "time": 387.42048000000096,
                    "velocity": 0.5748031496062992,
                    "duration": 0.12545999999997548
                },
                {
                    "name": "F3",
                    "midi": 53,
                    "time": 387.42048000000096,
                    "velocity": 0.5748031496062992,
                    "duration": 0.12545999999997548
                },
                {
                    "name": "C#4",
                    "midi": 61,
                    "time": 387.42048000000096,
                    "velocity": 0.5748031496062992,
                    "duration": 0.12545999999997548
                },
                {
                    "name": "F4",
                    "midi": 65,
                    "time": 387.42048000000096,
                    "velocity": 0.6929133858267716,
                    "duration": 0.12545999999997548
                },
                {
                    "name": "F1",
                    "midi": 29,
                    "time": 387.9223200000009,
                    "velocity": 0.5826771653543307,
                    "duration": 0.5018400000000156
                },
                {
                    "name": "F2",
                    "midi": 41,
                    "time": 387.9223200000009,
                    "velocity": 0.6929133858267716,
                    "duration": 0.5018400000000156
                },
                {
                    "name": "F3",
                    "midi": 53,
                    "time": 388.92600000000095,
                    "velocity": 0.5275590551181102,
                    "duration": 0.40774499999997715
                },
                {
                    "name": "G#3",
                    "midi": 56,
                    "time": 388.92600000000095,
                    "velocity": 0.5275590551181102,
                    "duration": 0.40774499999997715
                },
                {
                    "name": "C#4",
                    "midi": 61,
                    "time": 388.92600000000095,
                    "velocity": 0.5275590551181102,
                    "duration": 0.40774499999997715
                },
                {
                    "name": "F4",
                    "midi": 65,
                    "time": 388.92600000000095,
                    "velocity": 0.5275590551181102,
                    "duration": 0.40774499999997715
                },
                {
                    "name": "F4",
                    "midi": 65,
                    "time": 389.33374500000093,
                    "velocity": 0.4881889763779528,
                    "duration": 0.3450149999999894
                },
                {
                    "name": "G#4",
                    "midi": 68,
                    "time": 389.3651100000009,
                    "velocity": 0.4881889763779528,
                    "duration": 0.31364999999999554
                },
                {
                    "name": "B4",
                    "midi": 71,
                    "time": 389.3964750000009,
                    "velocity": 0.5748031496062992,
                    "duration": 0.2822850000000017
                },
                {
                    "name": "F5",
                    "midi": 77,
                    "time": 389.4278400000009,
                    "velocity": 0.5748031496062992,
                    "duration": 0.2509200000000078
                },
                {
                    "name": "B3",
                    "midi": 59,
                    "time": 389.6787600000009,
                    "velocity": 0.4409448818897638,
                    "duration": 0.2509200000000078
                },
                {
                    "name": "B4",
                    "midi": 71,
                    "time": 389.6787600000009,
                    "velocity": 0.5275590551181102,
                    "duration": 0.2509200000000078
                },
                {
                    "name": "G#3",
                    "midi": 56,
                    "time": 389.92968000000093,
                    "velocity": 0.4409448818897638,
                    "duration": 0.2509200000000078
                },
                {
                    "name": "G#4",
                    "midi": 68,
                    "time": 389.92968000000093,
                    "velocity": 0.5275590551181102,
                    "duration": 0.2509200000000078
                },
                {
                    "name": "F3",
                    "midi": 53,
                    "time": 390.18060000000094,
                    "velocity": 0.4409448818897638,
                    "duration": 0.2509200000000078
                },
                {
                    "name": "F4",
                    "midi": 65,
                    "time": 390.18060000000094,
                    "velocity": 0.5275590551181102,
                    "duration": 0.2509200000000078
                },
                {
                    "name": "D4",
                    "midi": 62,
                    "time": 390.43152000000094,
                    "velocity": 0.5433070866141733,
                    "duration": 0.2509200000000078
                },
                {
                    "name": "D3",
                    "midi": 50,
                    "time": 390.43152000000094,
                    "velocity": 0.4566929133858268,
                    "duration": 0.2509200000000078
                },
                {
                    "name": "B2",
                    "midi": 47,
                    "time": 390.68244000000095,
                    "velocity": 0.47244094488188976,
                    "duration": 0.2509200000000078
                },
                {
                    "name": "B3",
                    "midi": 59,
                    "time": 390.68244000000095,
                    "velocity": 0.5590551181102362,
                    "duration": 0.2509200000000078
                },
                {
                    "name": "G#2",
                    "midi": 44,
                    "time": 390.93336000000096,
                    "velocity": 0.5669291338582677,
                    "duration": 0.2509200000000078
                },
                {
                    "name": "G#3",
                    "midi": 56,
                    "time": 390.93336000000096,
                    "velocity": 0.5669291338582677,
                    "duration": 0.2509200000000078
                },
                {
                    "name": "F2",
                    "midi": 41,
                    "time": 391.18428000000097,
                    "velocity": 0.4881889763779528,
                    "duration": 0.18819000000002006
                },
                {
                    "name": "F3",
                    "midi": 53,
                    "time": 391.18428000000097,
                    "velocity": 0.5826771653543307,
                    "duration": 0.18819000000002006
                },
                {
                    "name": "F#2",
                    "midi": 42,
                    "time": 391.372470000001,
                    "velocity": 0.6141732283464567,
                    "duration": 0.31365000000010923
                },
                {
                    "name": "A2",
                    "midi": 45,
                    "time": 391.388152500001,
                    "velocity": 0.6377952755905512,
                    "duration": 0.2979675000000839
                },
                {
                    "name": "C3",
                    "midi": 48,
                    "time": 391.40383500000104,
                    "velocity": 0.6614173228346457,
                    "duration": 0.2822850000000585
                },
                {
                    "name": "D#3",
                    "midi": 51,
                    "time": 391.41951750000106,
                    "velocity": 0.6850393700787402,
                    "duration": 0.26660250000003316
                },
                {
                    "name": "A3",
                    "midi": 57,
                    "time": 391.4352000000011,
                    "velocity": 0.7086614173228346,
                    "duration": 0.2509200000000078
                },
                {
                    "name": "D#5",
                    "midi": 75,
                    "time": 391.6861200000011,
                    "velocity": 0.6062992125984252,
                    "duration": 0.12545999999997548
                },
                {
                    "name": "C5",
                    "midi": 72,
                    "time": 391.93704000000105,
                    "velocity": 0.6062992125984252,
                    "duration": 0.12545999999997548
                },
                {
                    "name": "A4",
                    "midi": 69,
                    "time": 392.187960000001,
                    "velocity": 0.6062992125984252,
                    "duration": 0.12545999999997548
                },
                {
                    "name": "F#4",
                    "midi": 66,
                    "time": 392.43888000000095,
                    "velocity": 0.6692913385826772,
                    "duration": 0.12545999999997548
                },
                {
                    "name": "D#4",
                    "midi": 63,
                    "time": 392.6898000000009,
                    "velocity": 0.5275590551181102,
                    "duration": 0.12545999999997548
                },
                {
                    "name": "C4",
                    "midi": 60,
                    "time": 392.94072000000085,
                    "velocity": 0.5275590551181102,
                    "duration": 0.12545999999997548
                },
                {
                    "name": "A3",
                    "midi": 57,
                    "time": 393.1916400000008,
                    "velocity": 0.5275590551181102,
                    "duration": 0.12545999999997548
                },
                {
                    "name": "F#3",
                    "midi": 54,
                    "time": 393.44256000000075,
                    "velocity": 0.5275590551181102,
                    "duration": 0.12545999999997548
                },
                {
                    "name": "D#3",
                    "midi": 51,
                    "time": 393.6934800000007,
                    "velocity": 0.4645669291338583,
                    "duration": 0.12545999999997548
                },
                {
                    "name": "C3",
                    "midi": 48,
                    "time": 393.94440000000066,
                    "velocity": 0.4566929133858268,
                    "duration": 0.12545999999997548
                },
                {
                    "name": "A2",
                    "midi": 45,
                    "time": 394.1953200000006,
                    "velocity": 0.44881889763779526,
                    "duration": 0.12545999999997548
                },
                {
                    "name": "F#2",
                    "midi": 42,
                    "time": 394.44624000000056,
                    "velocity": 0.5039370078740157,
                    "duration": 0.12545999999997548
                },
                {
                    "name": "D#2",
                    "midi": 39,
                    "time": 394.6971600000005,
                    "velocity": 0.4330708661417323,
                    "duration": 0.12545999999997548
                },
                {
                    "name": "C2",
                    "midi": 36,
                    "time": 394.94808000000046,
                    "velocity": 0.4330708661417323,
                    "duration": 0.12545999999997548
                },
                {
                    "name": "F#1",
                    "midi": 30,
                    "time": 395.1990000000004,
                    "velocity": 0.4330708661417323,
                    "duration": 0.12545999999997548
                },
                {
                    "name": "G1",
                    "midi": 31,
                    "time": 395.44992000000036,
                    "velocity": 0.5433070866141733,
                    "duration": 1.0036799999999744
                },
                {
                    "name": "G2",
                    "midi": 43,
                    "time": 395.44992000000036,
                    "velocity": 0.6377952755905512,
                    "duration": 1.0036799999999744
                },
                {
                    "name": "D3",
                    "midi": 50,
                    "time": 396.45360000000034,
                    "velocity": 0.4881889763779528,
                    "duration": 0.7527600000000234
                },
                {
                    "name": "D4",
                    "midi": 62,
                    "time": 396.45360000000034,
                    "velocity": 0.5748031496062992,
                    "duration": 0.7527600000000234
                },
                {
                    "name": "D#4",
                    "midi": 63,
                    "time": 397.20636000000036,
                    "velocity": 0.49606299212598426,
                    "duration": 0.2509200000000078
                },
                {
                    "name": "D#3",
                    "midi": 51,
                    "time": 397.20636000000036,
                    "velocity": 0.4094488188976378,
                    "duration": 0.2509200000000078
                },
                {
                    "name": "G1",
                    "midi": 31,
                    "time": 397.7082000000004,
                    "velocity": 0.4881889763779528,
                    "duration": 0.2509200000000078
                },
                {
                    "name": "C2",
                    "midi": 36,
                    "time": 397.9591200000004,
                    "velocity": 0.4881889763779528,
                    "duration": 0.2509200000000078
                },
                {
                    "name": "D#2",
                    "midi": 39,
                    "time": 398.2100400000004,
                    "velocity": 0.4881889763779528,
                    "duration": 0.2509200000000078
                },
                {
                    "name": "G2",
                    "midi": 43,
                    "time": 398.4609600000004,
                    "velocity": 0.4881889763779528,
                    "duration": 0.2509200000000078
                },
                {
                    "name": "C3",
                    "midi": 48,
                    "time": 398.7118800000004,
                    "velocity": 0.4881889763779528,
                    "duration": 0.2509200000000078
                },
                {
                    "name": "D#3",
                    "midi": 51,
                    "time": 398.9628000000004,
                    "velocity": 0.4881889763779528,
                    "duration": 0.2509200000000078
                },
                {
                    "name": "G3",
                    "midi": 55,
                    "time": 399.2137200000004,
                    "velocity": 0.4881889763779528,
                    "duration": 0.2509200000000078
                },
                {
                    "name": "C#3",
                    "midi": 49,
                    "time": 399.46464000000043,
                    "velocity": 0.5433070866141733,
                    "duration": 1.0036799999999744
                },
                {
                    "name": "C#4",
                    "midi": 61,
                    "time": 399.46464000000043,
                    "velocity": 0.6377952755905512,
                    "duration": 1.0036799999999744
                },
                {
                    "name": "D3",
                    "midi": 50,
                    "time": 400.4683200000004,
                    "velocity": 0.4881889763779528,
                    "duration": 0.7527600000000234
                },
                {
                    "name": "D4",
                    "midi": 62,
                    "time": 400.4683200000004,
                    "velocity": 0.5748031496062992,
                    "duration": 0.7527600000000234
                },
                {
                    "name": "E4",
                    "midi": 64,
                    "time": 401.2210800000004,
                    "velocity": 0.49606299212598426,
                    "duration": 0.2509200000000078
                },
                {
                    "name": "E3",
                    "midi": 52,
                    "time": 401.2210800000004,
                    "velocity": 0.4094488188976378,
                    "duration": 0.2509200000000078
                },
                {
                    "name": "G1",
                    "midi": 31,
                    "time": 401.72292000000044,
                    "velocity": 0.4881889763779528,
                    "duration": 0.2509200000000078
                },
                {
                    "name": "C#2",
                    "midi": 37,
                    "time": 401.97384000000045,
                    "velocity": 0.4881889763779528,
                    "duration": 0.2509200000000078
                },
                {
                    "name": "E2",
                    "midi": 40,
                    "time": 402.22476000000046,
                    "velocity": 0.4881889763779528,
                    "duration": 0.2509200000000078
                },
                {
                    "name": "G2",
                    "midi": 43,
                    "time": 402.47568000000047,
                    "velocity": 0.4881889763779528,
                    "duration": 0.2509200000000078
                },
                {
                    "name": "C#3",
                    "midi": 49,
                    "time": 402.7266000000005,
                    "velocity": 0.4881889763779528,
                    "duration": 0.2509200000000078
                },
                {
                    "name": "E3",
                    "midi": 52,
                    "time": 402.9775200000005,
                    "velocity": 0.4881889763779528,
                    "duration": 0.2509200000000078
                },
                {
                    "name": "G3",
                    "midi": 55,
                    "time": 403.2284400000005,
                    "velocity": 0.4881889763779528,
                    "duration": 0.2509200000000078
                },
                {
                    "name": "D3",
                    "midi": 50,
                    "time": 403.4793600000005,
                    "velocity": 0.5433070866141733,
                    "duration": 1.0036799999999744
                },
                {
                    "name": "D4",
                    "midi": 62,
                    "time": 403.4793600000005,
                    "velocity": 0.6377952755905512,
                    "duration": 1.0036799999999744
                },
                {
                    "name": "E3",
                    "midi": 52,
                    "time": 404.48304000000047,
                    "velocity": 0.4881889763779528,
                    "duration": 0.7527600000000234
                },
                {
                    "name": "E4",
                    "midi": 64,
                    "time": 404.48304000000047,
                    "velocity": 0.5748031496062992,
                    "duration": 0.7527600000000234
                },
                {
                    "name": "F4",
                    "midi": 65,
                    "time": 405.2358000000005,
                    "velocity": 0.49606299212598426,
                    "duration": 0.2509200000000078
                },
                {
                    "name": "F3",
                    "midi": 53,
                    "time": 405.2358000000005,
                    "velocity": 0.4094488188976378,
                    "duration": 0.2509200000000078
                },
                {
                    "name": "B2",
                    "midi": 47,
                    "time": 405.9885600000005,
                    "velocity": 0.5433070866141733,
                    "duration": 0.5018400000000156
                },
                {
                    "name": "B3",
                    "midi": 59,
                    "time": 405.9885600000005,
                    "velocity": 0.6377952755905512,
                    "duration": 0.5018400000000156
                },
                {
                    "name": "C3",
                    "midi": 48,
                    "time": 406.49040000000053,
                    "velocity": 0.4881889763779528,
                    "duration": 0.7527600000000234
                },
                {
                    "name": "C4",
                    "midi": 60,
                    "time": 406.49040000000053,
                    "velocity": 0.5748031496062992,
                    "duration": 0.7527600000000234
                },
                {
                    "name": "D4",
                    "midi": 62,
                    "time": 407.24316000000056,
                    "velocity": 0.49606299212598426,
                    "duration": 0.2509200000000078
                },
                {
                    "name": "D3",
                    "midi": 50,
                    "time": 407.24316000000056,
                    "velocity": 0.4094488188976378,
                    "duration": 0.2509200000000078
                },
                {
                    "name": "G2",
                    "midi": 43,
                    "time": 407.9959200000006,
                    "velocity": 0.5433070866141733,
                    "duration": 0.5018400000000156
                },
                {
                    "name": "G3",
                    "midi": 55,
                    "time": 407.9959200000006,
                    "velocity": 0.6377952755905512,
                    "duration": 0.5018400000000156
                },
                {
                    "name": "A2",
                    "midi": 45,
                    "time": 408.4977600000006,
                    "velocity": 0.4881889763779528,
                    "duration": 0.7527600000000234
                },
                {
                    "name": "A3",
                    "midi": 57,
                    "time": 408.4977600000006,
                    "velocity": 0.5748031496062992,
                    "duration": 0.7527600000000234
                },
                {
                    "name": "B3",
                    "midi": 59,
                    "time": 409.2505200000006,
                    "velocity": 0.49606299212598426,
                    "duration": 0.2509200000000078
                },
                {
                    "name": "B2",
                    "midi": 47,
                    "time": 409.2505200000006,
                    "velocity": 0.4094488188976378,
                    "duration": 0.2509200000000078
                },
                {
                    "name": "F2",
                    "midi": 41,
                    "time": 409.75236000000064,
                    "velocity": 0.5354330708661418,
                    "duration": 0.2509200000000078
                },
                {
                    "name": "F3",
                    "midi": 53,
                    "time": 410.00328000000064,
                    "velocity": 0.5748031496062992,
                    "duration": 0.2509200000000078
                },
                {
                    "name": "B2",
                    "midi": 47,
                    "time": 410.00328000000064,
                    "velocity": 0.4881889763779528,
                    "duration": 0.2509200000000078
                },
                {
                    "name": "F2",
                    "midi": 41,
                    "time": 410.25420000000065,
                    "velocity": 0.5433070866141733,
                    "duration": 0.2509200000000078
                },
                {
                    "name": "B2",
                    "midi": 47,
                    "time": 410.75604000000067,
                    "velocity": 0.5354330708661418,
                    "duration": 0.2509200000000078
                },
                {
                    "name": "B3",
                    "midi": 59,
                    "time": 411.0069600000007,
                    "velocity": 0.5748031496062992,
                    "duration": 0.2509200000000078
                },
                {
                    "name": "F3",
                    "midi": 53,
                    "time": 411.0069600000007,
                    "velocity": 0.4881889763779528,
                    "duration": 0.2509200000000078
                },
                {
                    "name": "B2",
                    "midi": 47,
                    "time": 411.2578800000007,
                    "velocity": 0.5354330708661418,
                    "duration": 0.2509200000000078
                },
                {
                    "name": "F2",
                    "midi": 41,
                    "time": 411.7597200000007,
                    "velocity": 0.5354330708661418,
                    "duration": 0.2509200000000078
                },
                {
                    "name": "F3",
                    "midi": 53,
                    "time": 412.0106400000007,
                    "velocity": 0.5748031496062992,
                    "duration": 0.2509200000000078
                },
                {
                    "name": "B2",
                    "midi": 47,
                    "time": 412.0106400000007,
                    "velocity": 0.4881889763779528,
                    "duration": 0.2509200000000078
                },
                {
                    "name": "F2",
                    "midi": 41,
                    "time": 412.2615600000007,
                    "velocity": 0.5433070866141733,
                    "duration": 0.2509200000000078
                },
                {
                    "name": "B2",
                    "midi": 47,
                    "time": 412.76340000000073,
                    "velocity": 0.5354330708661418,
                    "duration": 0.2509200000000078
                },
                {
                    "name": "B3",
                    "midi": 59,
                    "time": 413.01432000000074,
                    "velocity": 0.5748031496062992,
                    "duration": 0.2509200000000078
                },
                {
                    "name": "F3",
                    "midi": 53,
                    "time": 413.01432000000074,
                    "velocity": 0.4881889763779528,
                    "duration": 0.2509200000000078
                },
                {
                    "name": "B2",
                    "midi": 47,
                    "time": 413.26524000000074,
                    "velocity": 0.5354330708661418,
                    "duration": 0.2509200000000078
                },
                {
                    "name": "E2",
                    "midi": 40,
                    "time": 413.76708000000076,
                    "velocity": 0.5354330708661418,
                    "duration": 0.2509200000000078
                },
                {
                    "name": "E3",
                    "midi": 52,
                    "time": 414.01800000000077,
                    "velocity": 0.5748031496062992,
                    "duration": 0.2509200000000078
                },
                {
                    "name": "F#2",
                    "midi": 42,
                    "time": 414.01800000000077,
                    "velocity": 0.4881889763779528,
                    "duration": 0.2509200000000078
                },
                {
                    "name": "E2",
                    "midi": 40,
                    "time": 414.2689200000008,
                    "velocity": 0.5433070866141733,
                    "duration": 0.2509200000000078
                },
                {
                    "name": "D2",
                    "midi": 38,
                    "time": 414.7707600000008,
                    "velocity": 0.5354330708661418,
                    "duration": 0.2509200000000078
                },
                {
                    "name": "D3",
                    "midi": 50,
                    "time": 415.0216800000008,
                    "velocity": 0.5748031496062992,
                    "duration": 0.2509200000000078
                },
                {
                    "name": "F#2",
                    "midi": 42,
                    "time": 415.0216800000008,
                    "velocity": 0.4881889763779528,
                    "duration": 0.2509200000000078
                },
                {
                    "name": "D2",
                    "midi": 38,
                    "time": 415.2726000000008,
                    "velocity": 0.5354330708661418,
                    "duration": 0.2509200000000078
                },
                {
                    "name": "C#2",
                    "midi": 37,
                    "time": 415.7744400000008,
                    "velocity": 0.5354330708661418,
                    "duration": 0.2509200000000078
                },
                {
                    "name": "C#3",
                    "midi": 49,
                    "time": 416.02536000000083,
                    "velocity": 0.5748031496062992,
                    "duration": 0.2509200000000078
                },
                {
                    "name": "F#2",
                    "midi": 42,
                    "time": 416.02536000000083,
                    "velocity": 0.4881889763779528,
                    "duration": 0.2509200000000078
                },
                {
                    "name": "C#2",
                    "midi": 37,
                    "time": 416.27628000000084,
                    "velocity": 0.5433070866141733,
                    "duration": 0.2509200000000078
                },
                {
                    "name": "B1",
                    "midi": 35,
                    "time": 416.77812000000085,
                    "velocity": 0.5354330708661418,
                    "duration": 0.2509200000000078
                },
                {
                    "name": "D3",
                    "midi": 50,
                    "time": 417.02904000000086,
                    "velocity": 0.5748031496062992,
                    "duration": 0.2509200000000078
                },
                {
                    "name": "F#2",
                    "midi": 42,
                    "time": 417.02904000000086,
                    "velocity": 0.4881889763779528,
                    "duration": 0.2509200000000078
                },
                {
                    "name": "B1",
                    "midi": 35,
                    "time": 417.27996000000087,
                    "velocity": 0.5354330708661418,
                    "duration": 0.18819000000002006
                },
                {
                    "name": "E4",
                    "midi": 64,
                    "time": 417.4838325000009,
                    "velocity": 0.5826771653543307,
                    "duration": 0.5488875000000917
                },
                {
                    "name": "G4",
                    "midi": 67,
                    "time": 417.49951500000094,
                    "velocity": 0.6062992125984252,
                    "duration": 0.5332050000000663
                },
                {
                    "name": "B4",
                    "midi": 71,
                    "time": 417.51519750000097,
                    "velocity": 0.6377952755905512,
                    "duration": 0.517522500000041
                },
                {
                    "name": "E5",
                    "midi": 76,
                    "time": 417.530880000001,
                    "velocity": 0.6614173228346457,
                    "duration": 0.5018400000000156
                },
                {
                    "name": "C#2",
                    "midi": 37,
                    "time": 418.032720000001,
                    "velocity": 0.6141732283464567,
                    "duration": 0.2509200000000078
                },
                {
                    "name": "C#3",
                    "midi": 49,
                    "time": 418.032720000001,
                    "velocity": 0.7244094488188977,
                    "duration": 0.2509200000000078
                },
                {
                    "name": "D4",
                    "midi": 62,
                    "time": 418.487512500001,
                    "velocity": 0.5905511811023622,
                    "duration": 0.5488875000000917
                },
                {
                    "name": "G4",
                    "midi": 67,
                    "time": 418.503195000001,
                    "velocity": 0.6141732283464567,
                    "duration": 0.5332050000000663
                },
                {
                    "name": "B4",
                    "midi": 71,
                    "time": 418.51887750000105,
                    "velocity": 0.6377952755905512,
                    "duration": 0.517522500000041
                },
                {
                    "name": "D5",
                    "midi": 74,
                    "time": 418.5345600000011,
                    "velocity": 0.6614173228346457,
                    "duration": 0.5018400000000156
                },
                {
                    "name": "D2",
                    "midi": 38,
                    "time": 419.0364000000011,
                    "velocity": 0.6141732283464567,
                    "duration": 0.2509200000000078
                },
                {
                    "name": "D3",
                    "midi": 50,
                    "time": 419.0364000000011,
                    "velocity": 0.7244094488188977,
                    "duration": 0.2509200000000078
                },
                {
                    "name": "C#4",
                    "midi": 61,
                    "time": 419.4911925000011,
                    "velocity": 0.5826771653543307,
                    "duration": 0.5488875000000917
                },
                {
                    "name": "G4",
                    "midi": 67,
                    "time": 419.5068750000011,
                    "velocity": 0.6062992125984252,
                    "duration": 0.5332050000000663
                },
                {
                    "name": "B4",
                    "midi": 71,
                    "time": 419.52255750000114,
                    "velocity": 0.6377952755905512,
                    "duration": 0.517522500000041
                },
                {
                    "name": "C#5",
                    "midi": 73,
                    "time": 419.53824000000117,
                    "velocity": 0.6614173228346457,
                    "duration": 0.5018400000000156
                },
                {
                    "name": "E2",
                    "midi": 40,
                    "time": 420.0400800000012,
                    "velocity": 0.6141732283464567,
                    "duration": 0.2509200000000078
                },
                {
                    "name": "E3",
                    "midi": 52,
                    "time": 420.0400800000012,
                    "velocity": 0.7244094488188977,
                    "duration": 0.2509200000000078
                },
                {
                    "name": "A#3",
                    "midi": 58,
                    "time": 420.4948725000012,
                    "velocity": 0.5905511811023622,
                    "duration": 0.5488875000000917
                },
                {
                    "name": "C#4",
                    "midi": 61,
                    "time": 420.5105550000012,
                    "velocity": 0.6141732283464567,
                    "duration": 0.5332050000000663
                },
                {
                    "name": "F#4",
                    "midi": 66,
                    "time": 420.52623750000123,
                    "velocity": 0.6377952755905512,
                    "duration": 0.517522500000041
                },
                {
                    "name": "A#4",
                    "midi": 70,
                    "time": 420.54192000000126,
                    "velocity": 0.6614173228346457,
                    "duration": 0.5018400000000156
                },
                {
                    "name": "F#1",
                    "midi": 30,
                    "time": 421.04376000000127,
                    "velocity": 0.6141732283464567,
                    "duration": 0.2509200000000078
                },
                {
                    "name": "F#2",
                    "midi": 42,
                    "time": 421.04376000000127,
                    "velocity": 0.7244094488188977,
                    "duration": 0.2509200000000078
                },
                {
                    "name": "B1",
                    "midi": 35,
                    "time": 421.5456000000013,
                    "velocity": 0.6220472440944882,
                    "duration": 1.0036799999999744
                },
                {
                    "name": "B2",
                    "midi": 47,
                    "time": 421.5456000000013,
                    "velocity": 0.7322834645669292,
                    "duration": 1.0036799999999744
                },
                {
                    "name": "C#2",
                    "midi": 37,
                    "time": 422.54928000000126,
                    "velocity": 0.5905511811023622,
                    "duration": 0.7527600000000234
                },
                {
                    "name": "C#3",
                    "midi": 49,
                    "time": 422.54928000000126,
                    "velocity": 0.7086614173228346,
                    "duration": 0.7527600000000234
                },
                {
                    "name": "D3",
                    "midi": 50,
                    "time": 423.3020400000013,
                    "velocity": 0.5669291338582677,
                    "duration": 0.2258279999999786
                },
                {
                    "name": "D2",
                    "midi": 38,
                    "time": 423.3020400000013,
                    "velocity": 0.4645669291338583,
                    "duration": 0.2258279999999786
                },
                {
                    "name": "D2",
                    "midi": 38,
                    "time": 423.55296000000124,
                    "velocity": 0.6220472440944882,
                    "duration": 1.0036799999999744
                },
                {
                    "name": "D3",
                    "midi": 50,
                    "time": 423.55296000000124,
                    "velocity": 0.7322834645669292,
                    "duration": 1.0036799999999744
                },
                {
                    "name": "E2",
                    "midi": 40,
                    "time": 424.5566400000012,
                    "velocity": 0.5905511811023622,
                    "duration": 0.7527600000000234
                },
                {
                    "name": "E3",
                    "midi": 52,
                    "time": 424.5566400000012,
                    "velocity": 0.7086614173228346,
                    "duration": 0.7527600000000234
                },
                {
                    "name": "F#3",
                    "midi": 54,
                    "time": 425.30940000000123,
                    "velocity": 0.5669291338582677,
                    "duration": 0.2509200000000078
                },
                {
                    "name": "F#2",
                    "midi": 42,
                    "time": 425.30940000000123,
                    "velocity": 0.4645669291338583,
                    "duration": 0.2509200000000078
                },
                {
                    "name": "A2",
                    "midi": 45,
                    "time": 425.56032000000124,
                    "velocity": 0.6220472440944882,
                    "duration": 0.5018400000000156
                },
                {
                    "name": "A3",
                    "midi": 57,
                    "time": 425.56032000000124,
                    "velocity": 0.7322834645669292,
                    "duration": 0.5018400000000156
                },
                {
                    "name": "E4",
                    "midi": 64,
                    "time": 426.31308000000126,
                    "velocity": 0.6771653543307087,
                    "duration": 0.2258279999999786
                },
                {
                    "name": "B3",
                    "midi": 59,
                    "time": 426.31308000000126,
                    "velocity": 0.5748031496062992,
                    "duration": 0.2258279999999786
                },
                {
                    "name": "G3",
                    "midi": 55,
                    "time": 426.5640000000012,
                    "velocity": 0.6220472440944882,
                    "duration": 1.5055199999999331
                },
                {
                    "name": "E4",
                    "midi": 64,
                    "time": 426.5640000000012,
                    "velocity": 0.7322834645669292,
                    "duration": 0.5018400000000156
                },
                {
                    "name": "B3",
                    "midi": 59,
                    "time": 426.5640000000012,
                    "velocity": 0.6220472440944882,
                    "duration": 0.5018400000000156
                },
                {
                    "name": "D#4",
                    "midi": 63,
                    "time": 427.06584000000123,
                    "velocity": 0.5905511811023622,
                    "duration": 0.12545999999997548
                },
                {
                    "name": "F#4",
                    "midi": 66,
                    "time": 427.06584000000123,
                    "velocity": 0.7007874015748031,
                    "duration": 0.12545999999997548
                },
                {
                    "name": "G4",
                    "midi": 67,
                    "time": 427.3167600000012,
                    "velocity": 0.6692913385826772,
                    "duration": 0.12545999999997548
                },
                {
                    "name": "E4",
                    "midi": 64,
                    "time": 427.3167600000012,
                    "velocity": 0.5669291338582677,
                    "duration": 0.12545999999997548
                },
                {
                    "name": "G4",
                    "midi": 67,
                    "time": 427.56768000000113,
                    "velocity": 0.7322834645669292,
                    "duration": 0.5018400000000156
                },
                {
                    "name": "E4",
                    "midi": 64,
                    "time": 427.56768000000113,
                    "velocity": 0.6220472440944882,
                    "duration": 0.5018400000000156
                },
                {
                    "name": "E2",
                    "midi": 40,
                    "time": 428.06952000000115,
                    "velocity": 0.4881889763779528,
                    "duration": 0.2509200000000078
                },
                {
                    "name": "E3",
                    "midi": 52,
                    "time": 428.06952000000115,
                    "velocity": 0.5826771653543307,
                    "duration": 0.2509200000000078
                },
                {
                    "name": "C#2",
                    "midi": 37,
                    "time": 428.57136000000116,
                    "velocity": 0.5433070866141733,
                    "duration": 0.2509200000000078
                },
                {
                    "name": "C#3",
                    "midi": 49,
                    "time": 428.57136000000116,
                    "velocity": 0.6456692913385826,
                    "duration": 0.2509200000000078
                },
                {
                    "name": "A1",
                    "midi": 33,
                    "time": 429.0732000000012,
                    "velocity": 0.5039370078740157,
                    "duration": 0.2509200000000078
                },
                {
                    "name": "A2",
                    "midi": 45,
                    "time": 429.0732000000012,
                    "velocity": 0.5984251968503937,
                    "duration": 0.2509200000000078
                },
                {
                    "name": "D2",
                    "midi": 38,
                    "time": 430.0768800000012,
                    "velocity": 0.5354330708661418,
                    "duration": 0.1672800000000052
                },
                {
                    "name": "A2",
                    "midi": 45,
                    "time": 430.2441600000012,
                    "velocity": 0.47244094488188976,
                    "duration": 0.1672800000000052
                },
                {
                    "name": "D3",
                    "midi": 50,
                    "time": 430.4114400000012,
                    "velocity": 0.47244094488188976,
                    "duration": 0.14636999999999034
                },
                {
                    "name": "D3",
                    "midi": 50,
                    "time": 430.5787200000012,
                    "velocity": 0.5354330708661418,
                    "duration": 0.2509200000000078
                },
                {
                    "name": "D4",
                    "midi": 62,
                    "time": 430.82964000000123,
                    "velocity": 0.4881889763779528,
                    "duration": 0.2509200000000078
                },
                {
                    "name": "G#3",
                    "midi": 56,
                    "time": 431.08056000000124,
                    "velocity": 0.5275590551181102,
                    "duration": 0.2509200000000078
                },
                {
                    "name": "A3",
                    "midi": 57,
                    "time": 431.33148000000125,
                    "velocity": 0.4881889763779528,
                    "duration": 0.2509200000000078
                },
                {
                    "name": "D2",
                    "midi": 38,
                    "time": 432.0842400000013,
                    "velocity": 0.5354330708661418,
                    "duration": 0.1672800000000052
                },
                {
                    "name": "A2",
                    "midi": 45,
                    "time": 432.2515200000013,
                    "velocity": 0.47244094488188976,
                    "duration": 0.1672800000000052
                },
                {
                    "name": "D3",
                    "midi": 50,
                    "time": 432.4188000000013,
                    "velocity": 0.47244094488188976,
                    "duration": 0.14636999999999034
                },
                {
                    "name": "D3",
                    "midi": 50,
                    "time": 432.5860800000013,
                    "velocity": 0.5354330708661418,
                    "duration": 0.2509200000000078
                },
                {
                    "name": "D4",
                    "midi": 62,
                    "time": 432.8370000000013,
                    "velocity": 0.4881889763779528,
                    "duration": 0.2509200000000078
                },
                {
                    "name": "F3",
                    "midi": 53,
                    "time": 433.0879200000013,
                    "velocity": 0.5275590551181102,
                    "duration": 0.2509200000000078
                },
                {
                    "name": "F#3",
                    "midi": 54,
                    "time": 433.3388400000013,
                    "velocity": 0.4881889763779528,
                    "duration": 0.2509200000000078
                },
                {
                    "name": "G#2",
                    "midi": 44,
                    "time": 434.09160000000134,
                    "velocity": 0.5354330708661418,
                    "duration": 0.1672800000000052
                },
                {
                    "name": "G#3",
                    "midi": 56,
                    "time": 434.25888000000134,
                    "velocity": 0.49606299212598426,
                    "duration": 0.14636999999999034
                },
                {
                    "name": "G#3",
                    "midi": 56,
                    "time": 434.42616000000135,
                    "velocity": 0.49606299212598426,
                    "duration": 0.1672800000000052
                },
                {
                    "name": "G#4",
                    "midi": 68,
                    "time": 434.59344000000135,
                    "velocity": 0.5354330708661418,
                    "duration": 0.1672800000000052
                },
                {
                    "name": "F#4",
                    "midi": 66,
                    "time": 434.76072000000136,
                    "velocity": 0.5039370078740157,
                    "duration": 0.1672800000000052
                },
                {
                    "name": "G#4",
                    "midi": 68,
                    "time": 434.92800000000136,
                    "velocity": 0.5039370078740157,
                    "duration": 0.14636999999999034
                },
                {
                    "name": "G#4",
                    "midi": 68,
                    "time": 435.09528000000137,
                    "velocity": 0.5354330708661418,
                    "duration": 0.1672800000000052
                },
                {
                    "name": "F4",
                    "midi": 65,
                    "time": 435.2625600000014,
                    "velocity": 0.49606299212598426,
                    "duration": 0.1672800000000052
                },
                {
                    "name": "D4",
                    "midi": 62,
                    "time": 435.4298400000014,
                    "velocity": 0.4881889763779528,
                    "duration": 0.1672800000000052
                },
                {
                    "name": "B3",
                    "midi": 59,
                    "time": 435.5971200000014,
                    "velocity": 0.5354330708661418,
                    "duration": 0.1672800000000052
                },
                {
                    "name": "G#3",
                    "midi": 56,
                    "time": 435.7644000000014,
                    "velocity": 0.49606299212598426,
                    "duration": 0.1672800000000052
                },
                {
                    "name": "F3",
                    "midi": 53,
                    "time": 435.9316800000014,
                    "velocity": 0.49606299212598426,
                    "duration": 0.1672800000000052
                },
                {
                    "name": "C#3",
                    "midi": 49,
                    "time": 436.0989600000014,
                    "velocity": 0.5354330708661418,
                    "duration": 0.1672800000000052
                },
                {
                    "name": "F3",
                    "midi": 53,
                    "time": 436.2662400000014,
                    "velocity": 0.49606299212598426,
                    "duration": 0.1672800000000052
                },
                {
                    "name": "C#3",
                    "midi": 49,
                    "time": 436.4335200000014,
                    "velocity": 0.4881889763779528,
                    "duration": 0.1672800000000052
                },
                {
                    "name": "B2",
                    "midi": 47,
                    "time": 436.6008000000014,
                    "velocity": 0.5354330708661418,
                    "duration": 0.1672800000000052
                },
                {
                    "name": "C#3",
                    "midi": 49,
                    "time": 436.7680800000014,
                    "velocity": 0.4881889763779528,
                    "duration": 0.1672800000000052
                },
                {
                    "name": "B2",
                    "midi": 47,
                    "time": 436.9353600000014,
                    "velocity": 0.4881889763779528,
                    "duration": 0.1672800000000052
                },
                {
                    "name": "G#2",
                    "midi": 44,
                    "time": 437.10264000000143,
                    "velocity": 0.5354330708661418,
                    "duration": 0.1672800000000052
                },
                {
                    "name": "B2",
                    "midi": 47,
                    "time": 437.26992000000143,
                    "velocity": 0.48031496062992124,
                    "duration": 0.1672800000000052
                },
                {
                    "name": "G#2",
                    "midi": 44,
                    "time": 437.43720000000144,
                    "velocity": 0.47244094488188976,
                    "duration": 0.1672800000000052
                },
                {
                    "name": "F#2",
                    "midi": 42,
                    "time": 437.60448000000144,
                    "velocity": 0.6220472440944882,
                    "duration": 1.0036799999999744
                },
                {
                    "name": "F#3",
                    "midi": 54,
                    "time": 437.60448000000144,
                    "velocity": 0.7322834645669292,
                    "duration": 1.0036799999999744
                },
                {
                    "name": "G#2",
                    "midi": 44,
                    "time": 438.6081600000014,
                    "velocity": 0.5905511811023622,
                    "duration": 0.7527600000000234
                },
                {
                    "name": "G#3",
                    "midi": 56,
                    "time": 438.6081600000014,
                    "velocity": 0.7086614173228346,
                    "duration": 0.7527600000000234
                },
                {
                    "name": "A3",
                    "midi": 57,
                    "time": 439.36092000000144,
                    "velocity": 0.5669291338582677,
                    "duration": 0.2258279999999786
                },
                {
                    "name": "A2",
                    "midi": 45,
                    "time": 439.36092000000144,
                    "velocity": 0.4645669291338583,
                    "duration": 0.2258279999999786
                },
                {
                    "name": "A2",
                    "midi": 45,
                    "time": 439.6118400000014,
                    "velocity": 0.6220472440944882,
                    "duration": 1.0036799999999744
                },
                {
                    "name": "A3",
                    "midi": 57,
                    "time": 439.6118400000014,
                    "velocity": 0.7322834645669292,
                    "duration": 1.0036799999999744
                },
                {
                    "name": "B2",
                    "midi": 47,
                    "time": 440.61552000000137,
                    "velocity": 0.5905511811023622,
                    "duration": 0.7527600000000234
                },
                {
                    "name": "B3",
                    "midi": 59,
                    "time": 440.61552000000137,
                    "velocity": 0.7086614173228346,
                    "duration": 0.7527600000000234
                },
                {
                    "name": "C#4",
                    "midi": 61,
                    "time": 441.3682800000014,
                    "velocity": 0.5669291338582677,
                    "duration": 0.2509200000000078
                },
                {
                    "name": "C#3",
                    "midi": 49,
                    "time": 441.3682800000014,
                    "velocity": 0.4645669291338583,
                    "duration": 0.2509200000000078
                },
                {
                    "name": "E3",
                    "midi": 52,
                    "time": 441.6192000000014,
                    "velocity": 0.6220472440944882,
                    "duration": 0.5018400000000156
                },
                {
                    "name": "E4",
                    "midi": 64,
                    "time": 441.6192000000014,
                    "velocity": 0.7322834645669292,
                    "duration": 0.5018400000000156
                },
                {
                    "name": "A4",
                    "midi": 69,
                    "time": 442.3719600000014,
                    "velocity": 0.6062992125984252,
                    "duration": 0.2258279999999786
                },
                {
                    "name": "F#4",
                    "midi": 66,
                    "time": 442.3719600000014,
                    "velocity": 0.5118110236220472,
                    "duration": 0.2258279999999786
                },
                {
                    "name": "D4",
                    "midi": 62,
                    "time": 442.6228800000014,
                    "velocity": 0.5590551181102362,
                    "duration": 1.0036799999999175
                },
                {
                    "name": "A4",
                    "midi": 69,
                    "time": 442.6228800000014,
                    "velocity": 0.6535433070866141,
                    "duration": 0.5018400000000156
                },
                {
                    "name": "F#4",
                    "midi": 66,
                    "time": 442.6228800000014,
                    "velocity": 0.5590551181102362,
                    "duration": 0.5018400000000156
                },
                {
                    "name": "G4",
                    "midi": 67,
                    "time": 443.1247200000014,
                    "velocity": 0.5275590551181102,
                    "duration": 0.12545999999997548
                },
                {
                    "name": "B4",
                    "midi": 71,
                    "time": 443.1247200000014,
                    "velocity": 0.6299212598425197,
                    "duration": 0.12545999999997548
                },
                {
                    "name": "C5",
                    "midi": 72,
                    "time": 443.37564000000134,
                    "velocity": 0.5984251968503937,
                    "duration": 0.12545999999997548
                },
                {
                    "name": "A4",
                    "midi": 69,
                    "time": 443.37564000000134,
                    "velocity": 0.5039370078740157,
                    "duration": 0.12545999999997548
                },
                {
                    "name": "C5",
                    "midi": 72,
                    "time": 443.6265600000013,
                    "velocity": 0.6535433070866141,
                    "duration": 0.5018400000000156
                },
                {
                    "name": "A4",
                    "midi": 69,
                    "time": 443.6265600000013,
                    "velocity": 0.5590551181102362,
                    "duration": 0.5018400000000156
                },
                {
                    "name": "A2",
                    "midi": 45,
                    "time": 444.1284000000013,
                    "velocity": 0.4881889763779528,
                    "duration": 0.2509200000000078
                },
                {
                    "name": "A3",
                    "midi": 57,
                    "time": 444.1284000000013,
                    "velocity": 0.5826771653543307,
                    "duration": 0.2509200000000078
                },
                {
                    "name": "F#2",
                    "midi": 42,
                    "time": 444.6302400000013,
                    "velocity": 0.5433070866141733,
                    "duration": 0.2509200000000078
                },
                {
                    "name": "F#3",
                    "midi": 54,
                    "time": 444.6302400000013,
                    "velocity": 0.6456692913385826,
                    "duration": 0.2509200000000078
                },
                {
                    "name": "D2",
                    "midi": 38,
                    "time": 445.13208000000134,
                    "velocity": 0.5511811023622047,
                    "duration": 0.2509200000000078
                },
                {
                    "name": "D3",
                    "midi": 50,
                    "time": 445.13208000000134,
                    "velocity": 0.6535433070866141,
                    "duration": 0.2509200000000078
                },
                {
                    "name": "C2",
                    "midi": 36,
                    "time": 445.63392000000135,
                    "velocity": 0.6535433070866141,
                    "duration": 0.143233500000008
                },
                {
                    "name": "D2",
                    "midi": 38,
                    "time": 445.77715350000136,
                    "velocity": 0.5826771653543307,
                    "duration": 0.14427899999998317
                },
                {
                    "name": "C2",
                    "midi": 36,
                    "time": 445.92143250000134,
                    "velocity": 0.6535433070866141,
                    "duration": 0.143233500000008
                },
                {
                    "name": "D2",
                    "midi": 38,
                    "time": 446.0657115000013,
                    "velocity": 0.5984251968503937,
                    "duration": 0.143233500000008
                },
                {
                    "name": "C2",
                    "midi": 36,
                    "time": 446.20894500000134,
                    "velocity": 0.6535433070866141,
                    "duration": 0.143233500000008
                },
                {
                    "name": "D2",
                    "midi": 38,
                    "time": 446.3532240000013,
                    "velocity": 0.6062992125984252,
                    "duration": 0.143233500000008
                },
                {
                    "name": "C2",
                    "midi": 36,
                    "time": 446.4964575000013,
                    "velocity": 0.6535433070866141,
                    "duration": 0.14114250000000084
                },
                {
                    "name": "C4",
                    "midi": 60,
                    "time": 446.6376000000013,
                    "velocity": 0.5196850393700787,
                    "duration": 0.5018400000000156
                },
                {
                    "name": "A4",
                    "midi": 69,
                    "time": 446.6376000000013,
                    "velocity": 0.6220472440944882,
                    "duration": 0.5018400000000156
                },
                {
                    "name": "D4",
                    "midi": 62,
                    "time": 447.13944000000134,
                    "velocity": 0.5118110236220472,
                    "duration": 0.12545999999997548
                },
                {
                    "name": "B4",
                    "midi": 71,
                    "time": 447.13944000000134,
                    "velocity": 0.6141732283464567,
                    "duration": 0.12545999999997548
                },
                {
                    "name": "D#4",
                    "midi": 63,
                    "time": 447.3903600000013,
                    "velocity": 0.48031496062992124,
                    "duration": 0.12545999999997548
                },
                {
                    "name": "C5",
                    "midi": 72,
                    "time": 447.3903600000013,
                    "velocity": 0.5669291338582677,
                    "duration": 0.12545999999997548
                },
                {
                    "name": "C2",
                    "midi": 36,
                    "time": 447.64128000000125,
                    "velocity": 0.6535433070866141,
                    "duration": 0.143233500000008
                },
                {
                    "name": "D2",
                    "midi": 38,
                    "time": 447.78451350000125,
                    "velocity": 0.5826771653543307,
                    "duration": 0.14427899999998317
                },
                {
                    "name": "C2",
                    "midi": 36,
                    "time": 447.92879250000124,
                    "velocity": 0.6535433070866141,
                    "duration": 0.143233500000008
                },
                {
                    "name": "D2",
                    "midi": 38,
                    "time": 448.0730715000012,
                    "velocity": 0.5984251968503937,
                    "duration": 0.143233500000008
                },
                {
                    "name": "C2",
                    "midi": 36,
                    "time": 448.2163050000012,
                    "velocity": 0.6535433070866141,
                    "duration": 0.143233500000008
                },
                {
                    "name": "D2",
                    "midi": 38,
                    "time": 448.3605840000012,
                    "velocity": 0.6062992125984252,
                    "duration": 0.143233500000008
                },
                {
                    "name": "C2",
                    "midi": 36,
                    "time": 448.5038175000012,
                    "velocity": 0.6535433070866141,
                    "duration": 0.14114250000000084
                },
                {
                    "name": "C4",
                    "midi": 60,
                    "time": 448.6449600000012,
                    "velocity": 0.5196850393700787,
                    "duration": 0.5018400000000156
                },
                {
                    "name": "A4",
                    "midi": 69,
                    "time": 448.6449600000012,
                    "velocity": 0.6220472440944882,
                    "duration": 0.5018400000000156
                },
                {
                    "name": "D4",
                    "midi": 62,
                    "time": 449.14680000000124,
                    "velocity": 0.5118110236220472,
                    "duration": 0.12545999999997548
                },
                {
                    "name": "B4",
                    "midi": 71,
                    "time": 449.14680000000124,
                    "velocity": 0.6141732283464567,
                    "duration": 0.12545999999997548
                },
                {
                    "name": "D#4",
                    "midi": 63,
                    "time": 449.3977200000012,
                    "velocity": 0.48031496062992124,
                    "duration": 0.12545999999997548
                },
                {
                    "name": "C5",
                    "midi": 72,
                    "time": 449.3977200000012,
                    "velocity": 0.5669291338582677,
                    "duration": 0.12545999999997548
                },
                {
                    "name": "C2",
                    "midi": 36,
                    "time": 449.64864000000114,
                    "velocity": 0.5826771653543307,
                    "duration": 0.1672800000000052
                },
                {
                    "name": "D2",
                    "midi": 38,
                    "time": 449.81592000000114,
                    "velocity": 0.49606299212598426,
                    "duration": 0.1672800000000052
                },
                {
                    "name": "C2",
                    "midi": 36,
                    "time": 449.98320000000115,
                    "velocity": 0.5354330708661418,
                    "duration": 0.1672800000000052
                },
                {
                    "name": "D2",
                    "midi": 38,
                    "time": 450.15048000000115,
                    "velocity": 0.44881889763779526,
                    "duration": 0.1672800000000052
                },
                {
                    "name": "C2",
                    "midi": 36,
                    "time": 450.31776000000116,
                    "velocity": 0.48031496062992124,
                    "duration": 0.1672800000000052
                },
                {
                    "name": "D2",
                    "midi": 38,
                    "time": 450.48504000000116,
                    "velocity": 0.4015748031496063,
                    "duration": 0.1672800000000052
                },
                {
                    "name": "C2",
                    "midi": 36,
                    "time": 450.65232000000117,
                    "velocity": 0.4251968503937008,
                    "duration": 0.1672800000000052
                },
                {
                    "name": "D2",
                    "midi": 38,
                    "time": 450.8196000000012,
                    "velocity": 0.36220472440944884,
                    "duration": 0.1672800000000052
                },
                {
                    "name": "C2",
                    "midi": 36,
                    "time": 450.9868800000012,
                    "velocity": 0.3779527559055118,
                    "duration": 0.1672800000000052
                },
                {
                    "name": "D2",
                    "midi": 38,
                    "time": 451.1541600000012,
                    "velocity": 0.30708661417322836,
                    "duration": 0.1672800000000052
                },
                {
                    "name": "C2",
                    "midi": 36,
                    "time": 451.3214400000012,
                    "velocity": 0.3228346456692913,
                    "duration": 0.1672800000000052
                },
                {
                    "name": "D2",
                    "midi": 38,
                    "time": 451.4887200000012,
                    "velocity": 0.2677165354330709,
                    "duration": 0.1672800000000052
                },
                {
                    "name": "C2",
                    "midi": 36,
                    "time": 451.6560000000012,
                    "velocity": 0.1968503937007874,
                    "duration": 0.5018400000000156
                },
                {
                    "name": "E5",
                    "midi": 76,
                    "time": 453.6633600000012,
                    "velocity": 0.29133858267716534,
                    "duration": 0.5018400000000156
                },
                {
                    "name": "C5",
                    "midi": 72,
                    "time": 453.6633600000012,
                    "velocity": 0.2440944881889764,
                    "duration": 0.5018400000000156
                },
                {
                    "name": "E4",
                    "midi": 64,
                    "time": 453.6633600000012,
                    "velocity": 0.2440944881889764,
                    "duration": 0.5018400000000156
                },
                {
                    "name": "D5",
                    "midi": 74,
                    "time": 454.1652000000012,
                    "velocity": 0.25984251968503935,
                    "duration": 0.18819000000002006
                },
                {
                    "name": "B4",
                    "midi": 71,
                    "time": 454.1652000000012,
                    "velocity": 0.2204724409448819,
                    "duration": 0.18819000000002006
                },
                {
                    "name": "D4",
                    "midi": 62,
                    "time": 454.1652000000012,
                    "velocity": 0.2204724409448819,
                    "duration": 0.18819000000002006
                },
                {
                    "name": "C5",
                    "midi": 72,
                    "time": 454.41612000000123,
                    "velocity": 0.25984251968503935,
                    "duration": 0.18819000000002006
                },
                {
                    "name": "A4",
                    "midi": 69,
                    "time": 454.41612000000123,
                    "velocity": 0.2204724409448819,
                    "duration": 0.18819000000002006
                },
                {
                    "name": "C4",
                    "midi": 60,
                    "time": 454.41612000000123,
                    "velocity": 0.2204724409448819,
                    "duration": 0.18819000000002006
                },
                {
                    "name": "C5",
                    "midi": 72,
                    "time": 454.66704000000124,
                    "velocity": 0.29133858267716534,
                    "duration": 0.5018400000000156
                },
                {
                    "name": "E4",
                    "midi": 64,
                    "time": 454.66704000000124,
                    "velocity": 0.2440944881889764,
                    "duration": 0.5018400000000156
                },
                {
                    "name": "C4",
                    "midi": 60,
                    "time": 454.66704000000124,
                    "velocity": 0.2440944881889764,
                    "duration": 0.5018400000000156
                },
                {
                    "name": "B4",
                    "midi": 71,
                    "time": 455.16888000000125,
                    "velocity": 0.25984251968503935,
                    "duration": 0.18819000000002006
                },
                {
                    "name": "D4",
                    "midi": 62,
                    "time": 455.16888000000125,
                    "velocity": 0.2204724409448819,
                    "duration": 0.18819000000002006
                },
                {
                    "name": "B3",
                    "midi": 59,
                    "time": 455.16888000000125,
                    "velocity": 0.2204724409448819,
                    "duration": 0.18819000000002006
                },
                {
                    "name": "A4",
                    "midi": 69,
                    "time": 455.41980000000126,
                    "velocity": 0.25984251968503935,
                    "duration": 0.18819000000002006
                },
                {
                    "name": "C4",
                    "midi": 60,
                    "time": 455.41980000000126,
                    "velocity": 0.2204724409448819,
                    "duration": 0.18819000000002006
                },
                {
                    "name": "A3",
                    "midi": 57,
                    "time": 455.41980000000126,
                    "velocity": 0.2204724409448819,
                    "duration": 0.18819000000002006
                },
                {
                    "name": "A4",
                    "midi": 69,
                    "time": 455.67072000000127,
                    "velocity": 0.29133858267716534,
                    "duration": 0.5018400000000156
                },
                {
                    "name": "C4",
                    "midi": 60,
                    "time": 455.67072000000127,
                    "velocity": 0.2440944881889764,
                    "duration": 0.5018400000000156
                },
                {
                    "name": "A3",
                    "midi": 57,
                    "time": 455.67072000000127,
                    "velocity": 0.2440944881889764,
                    "duration": 0.5018400000000156
                },
                {
                    "name": "B4",
                    "midi": 71,
                    "time": 456.1725600000013,
                    "velocity": 0.25984251968503935,
                    "duration": 0.18819000000002006
                },
                {
                    "name": "D4",
                    "midi": 62,
                    "time": 456.1725600000013,
                    "velocity": 0.2204724409448819,
                    "duration": 0.18819000000002006
                },
                {
                    "name": "B3",
                    "midi": 59,
                    "time": 456.1725600000013,
                    "velocity": 0.2204724409448819,
                    "duration": 0.18819000000002006
                },
                {
                    "name": "C5",
                    "midi": 72,
                    "time": 456.4234800000013,
                    "velocity": 0.25984251968503935,
                    "duration": 0.18819000000002006
                },
                {
                    "name": "E4",
                    "midi": 64,
                    "time": 456.4234800000013,
                    "velocity": 0.2204724409448819,
                    "duration": 0.18819000000002006
                },
                {
                    "name": "C4",
                    "midi": 60,
                    "time": 456.4234800000013,
                    "velocity": 0.2204724409448819,
                    "duration": 0.18819000000002006
                },
                {
                    "name": "C5",
                    "midi": 72,
                    "time": 456.6744000000013,
                    "velocity": 0.29133858267716534,
                    "duration": 0.5018400000000156
                },
                {
                    "name": "E4",
                    "midi": 64,
                    "time": 456.6744000000013,
                    "velocity": 0.2440944881889764,
                    "duration": 0.5018400000000156
                },
                {
                    "name": "C4",
                    "midi": 60,
                    "time": 456.6744000000013,
                    "velocity": 0.2440944881889764,
                    "duration": 0.5018400000000156
                },
                {
                    "name": "D5",
                    "midi": 74,
                    "time": 457.1762400000013,
                    "velocity": 0.25984251968503935,
                    "duration": 0.18819000000002006
                },
                {
                    "name": "F#4",
                    "midi": 66,
                    "time": 457.1762400000013,
                    "velocity": 0.2204724409448819,
                    "duration": 0.18819000000002006
                },
                {
                    "name": "D4",
                    "midi": 62,
                    "time": 457.1762400000013,
                    "velocity": 0.2204724409448819,
                    "duration": 0.18819000000002006
                },
                {
                    "name": "E5",
                    "midi": 76,
                    "time": 457.4271600000013,
                    "velocity": 0.25984251968503935,
                    "duration": 0.18819000000002006
                },
                {
                    "name": "G4",
                    "midi": 67,
                    "time": 457.4271600000013,
                    "velocity": 0.2204724409448819,
                    "duration": 0.18819000000002006
                },
                {
                    "name": "E4",
                    "midi": 64,
                    "time": 457.4271600000013,
                    "velocity": 0.2204724409448819,
                    "duration": 0.18819000000002006
                },
                {
                    "name": "G5",
                    "midi": 79,
                    "time": 457.67808000000133,
                    "velocity": 0.29133858267716534,
                    "duration": 0.5018400000000156
                },
                {
                    "name": "E5",
                    "midi": 76,
                    "time": 457.67808000000133,
                    "velocity": 0.2440944881889764,
                    "duration": 0.5018400000000156
                },
                {
                    "name": "G4",
                    "midi": 67,
                    "time": 457.67808000000133,
                    "velocity": 0.2440944881889764,
                    "duration": 0.5018400000000156
                },
                {
                    "name": "F#5",
                    "midi": 78,
                    "time": 458.17992000000135,
                    "velocity": 0.25984251968503935,
                    "duration": 0.18819000000002006
                },
                {
                    "name": "D5",
                    "midi": 74,
                    "time": 458.17992000000135,
                    "velocity": 0.2204724409448819,
                    "duration": 0.18819000000002006
                },
                {
                    "name": "F#4",
                    "midi": 66,
                    "time": 458.17992000000135,
                    "velocity": 0.2204724409448819,
                    "duration": 0.18819000000002006
                },
                {
                    "name": "E5",
                    "midi": 76,
                    "time": 458.43084000000135,
                    "velocity": 0.25984251968503935,
                    "duration": 0.18819000000002006
                },
                {
                    "name": "C5",
                    "midi": 72,
                    "time": 458.43084000000135,
                    "velocity": 0.2204724409448819,
                    "duration": 0.18819000000002006
                },
                {
                    "name": "E4",
                    "midi": 64,
                    "time": 458.43084000000135,
                    "velocity": 0.2204724409448819,
                    "duration": 0.18819000000002006
                },
                {
                    "name": "E5",
                    "midi": 76,
                    "time": 458.68176000000136,
                    "velocity": 0.29133858267716534,
                    "duration": 0.5018400000000156
                },
                {
                    "name": "C5",
                    "midi": 72,
                    "time": 458.68176000000136,
                    "velocity": 0.2440944881889764,
                    "duration": 0.5018400000000156
                },
                {
                    "name": "E4",
                    "midi": 64,
                    "time": 458.68176000000136,
                    "velocity": 0.2440944881889764,
                    "duration": 0.5018400000000156
                },
                {
                    "name": "D5",
                    "midi": 74,
                    "time": 459.1836000000014,
                    "velocity": 0.25984251968503935,
                    "duration": 0.18819000000002006
                },
                {
                    "name": "F#4",
                    "midi": 66,
                    "time": 459.1836000000014,
                    "velocity": 0.2204724409448819,
                    "duration": 0.18819000000002006
                },
                {
                    "name": "D4",
                    "midi": 62,
                    "time": 459.1836000000014,
                    "velocity": 0.2204724409448819,
                    "duration": 0.18819000000002006
                },
                {
                    "name": "C5",
                    "midi": 72,
                    "time": 459.4345200000014,
                    "velocity": 0.25984251968503935,
                    "duration": 0.18819000000002006
                },
                {
                    "name": "E4",
                    "midi": 64,
                    "time": 459.4345200000014,
                    "velocity": 0.2204724409448819,
                    "duration": 0.18819000000002006
                },
                {
                    "name": "C4",
                    "midi": 60,
                    "time": 459.4345200000014,
                    "velocity": 0.2204724409448819,
                    "duration": 0.18819000000002006
                },
                {
                    "name": "C5",
                    "midi": 72,
                    "time": 459.6854400000014,
                    "velocity": 0.29133858267716534,
                    "duration": 0.5018400000000156
                },
                {
                    "name": "E4",
                    "midi": 64,
                    "time": 459.6854400000014,
                    "velocity": 0.2440944881889764,
                    "duration": 0.5018400000000156
                },
                {
                    "name": "C4",
                    "midi": 60,
                    "time": 459.6854400000014,
                    "velocity": 0.2440944881889764,
                    "duration": 0.5018400000000156
                },
                {
                    "name": "D5",
                    "midi": 74,
                    "time": 460.1872800000014,
                    "velocity": 0.25984251968503935,
                    "duration": 0.18819000000002006
                },
                {
                    "name": "F#4",
                    "midi": 66,
                    "time": 460.1872800000014,
                    "velocity": 0.2204724409448819,
                    "duration": 0.18819000000002006
                },
                {
                    "name": "D4",
                    "midi": 62,
                    "time": 460.1872800000014,
                    "velocity": 0.2204724409448819,
                    "duration": 0.18819000000002006
                },
                {
                    "name": "E5",
                    "midi": 76,
                    "time": 460.4382000000014,
                    "velocity": 0.25984251968503935,
                    "duration": 0.18819000000002006
                },
                {
                    "name": "C5",
                    "midi": 72,
                    "time": 460.4382000000014,
                    "velocity": 0.2204724409448819,
                    "duration": 0.18819000000002006
                },
                {
                    "name": "E4",
                    "midi": 64,
                    "time": 460.4382000000014,
                    "velocity": 0.2204724409448819,
                    "duration": 0.18819000000002006
                },
                {
                    "name": "E5",
                    "midi": 76,
                    "time": 460.6891200000014,
                    "velocity": 0.29133858267716534,
                    "duration": 0.5018400000000156
                },
                {
                    "name": "C5",
                    "midi": 72,
                    "time": 460.6891200000014,
                    "velocity": 0.2440944881889764,
                    "duration": 0.5018400000000156
                },
                {
                    "name": "E4",
                    "midi": 64,
                    "time": 460.6891200000014,
                    "velocity": 0.2440944881889764,
                    "duration": 0.5018400000000156
                },
                {
                    "name": "F#5",
                    "midi": 78,
                    "time": 461.19096000000144,
                    "velocity": 0.25984251968503935,
                    "duration": 0.18819000000002006
                },
                {
                    "name": "A4",
                    "midi": 69,
                    "time": 461.19096000000144,
                    "velocity": 0.2204724409448819,
                    "duration": 0.18819000000002006
                },
                {
                    "name": "F#4",
                    "midi": 66,
                    "time": 461.19096000000144,
                    "velocity": 0.2204724409448819,
                    "duration": 0.18819000000002006
                },
                {
                    "name": "G5",
                    "midi": 79,
                    "time": 461.44188000000145,
                    "velocity": 0.25984251968503935,
                    "duration": 0.18819000000002006
                },
                {
                    "name": "B4",
                    "midi": 71,
                    "time": 461.44188000000145,
                    "velocity": 0.2204724409448819,
                    "duration": 0.18819000000002006
                },
                {
                    "name": "G4",
                    "midi": 67,
                    "time": 461.44188000000145,
                    "velocity": 0.2204724409448819,
                    "duration": 0.18819000000002006
                },
                {
                    "name": "B5",
                    "midi": 83,
                    "time": 461.69280000000145,
                    "velocity": 0.29133858267716534,
                    "duration": 0.5018400000000156
                },
                {
                    "name": "G5",
                    "midi": 79,
                    "time": 461.69280000000145,
                    "velocity": 0.2440944881889764,
                    "duration": 0.5018400000000156
                },
                {
                    "name": "B4",
                    "midi": 71,
                    "time": 461.69280000000145,
                    "velocity": 0.2440944881889764,
                    "duration": 0.5018400000000156
                },
                {
                    "name": "A5",
                    "midi": 81,
                    "time": 462.19464000000147,
                    "velocity": 0.25984251968503935,
                    "duration": 0.18819000000002006
                },
                {
                    "name": "F#5",
                    "midi": 78,
                    "time": 462.19464000000147,
                    "velocity": 0.2204724409448819,
                    "duration": 0.18819000000002006
                },
                {
                    "name": "A4",
                    "midi": 69,
                    "time": 462.19464000000147,
                    "velocity": 0.2204724409448819,
                    "duration": 0.18819000000002006
                },
                {
                    "name": "G5",
                    "midi": 79,
                    "time": 462.4455600000015,
                    "velocity": 0.25984251968503935,
                    "duration": 0.18819000000002006
                },
                {
                    "name": "E5",
                    "midi": 76,
                    "time": 462.4455600000015,
                    "velocity": 0.2204724409448819,
                    "duration": 0.18819000000002006
                },
                {
                    "name": "G4",
                    "midi": 67,
                    "time": 462.4455600000015,
                    "velocity": 0.2204724409448819,
                    "duration": 0.18819000000002006
                },
                {
                    "name": "G5",
                    "midi": 79,
                    "time": 462.6964800000015,
                    "velocity": 0.29133858267716534,
                    "duration": 0.5018400000000156
                },
                {
                    "name": "B4",
                    "midi": 71,
                    "time": 462.6964800000015,
                    "velocity": 0.2440944881889764,
                    "duration": 0.5018400000000156
                },
                {
                    "name": "G4",
                    "midi": 67,
                    "time": 462.6964800000015,
                    "velocity": 0.2440944881889764,
                    "duration": 0.5018400000000156
                },
                {
                    "name": "F#5",
                    "midi": 78,
                    "time": 463.1983200000015,
                    "velocity": 0.25984251968503935,
                    "duration": 0.18819000000002006
                },
                {
                    "name": "A4",
                    "midi": 69,
                    "time": 463.1983200000015,
                    "velocity": 0.2204724409448819,
                    "duration": 0.18819000000002006
                },
                {
                    "name": "F#4",
                    "midi": 66,
                    "time": 463.1983200000015,
                    "velocity": 0.2204724409448819,
                    "duration": 0.18819000000002006
                },
                {
                    "name": "E5",
                    "midi": 76,
                    "time": 463.4492400000015,
                    "velocity": 0.25984251968503935,
                    "duration": 0.18819000000002006
                },
                {
                    "name": "G4",
                    "midi": 67,
                    "time": 463.4492400000015,
                    "velocity": 0.2204724409448819,
                    "duration": 0.18819000000002006
                },
                {
                    "name": "E4",
                    "midi": 64,
                    "time": 463.4492400000015,
                    "velocity": 0.2204724409448819,
                    "duration": 0.18819000000002006
                },
                {
                    "name": "G4",
                    "midi": 67,
                    "time": 463.7001600000015,
                    "velocity": 0.2440944881889764,
                    "duration": 0.4767479999999864
                },
                {
                    "name": "E5",
                    "midi": 76,
                    "time": 463.7001600000015,
                    "velocity": 0.29133858267716534,
                    "duration": 0.4767479999999864
                },
                {
                    "name": "C5",
                    "midi": 72,
                    "time": 463.7001600000015,
                    "velocity": 0.2440944881889764,
                    "duration": 0.4767479999999864
                },
                {
                    "name": "E4",
                    "midi": 64,
                    "time": 463.7001600000015,
                    "velocity": 0.2440944881889764,
                    "duration": 0.4767479999999864
                },
                {
                    "name": "C5",
                    "midi": 72,
                    "time": 464.2020000000015,
                    "velocity": 0.2204724409448819,
                    "duration": 0.18819000000002006
                },
                {
                    "name": "E5",
                    "midi": 76,
                    "time": 464.2020000000015,
                    "velocity": 0.25984251968503935,
                    "duration": 0.18819000000002006
                },
                {
                    "name": "G4",
                    "midi": 67,
                    "time": 464.2020000000015,
                    "velocity": 0.2204724409448819,
                    "duration": 0.18819000000002006
                },
                {
                    "name": "E4",
                    "midi": 64,
                    "time": 464.2020000000015,
                    "velocity": 0.2204724409448819,
                    "duration": 0.18819000000002006
                },
                {
                    "name": "G4",
                    "midi": 67,
                    "time": 464.4529200000015,
                    "velocity": 0.2204724409448819,
                    "duration": 0.18819000000002006
                },
                {
                    "name": "E5",
                    "midi": 76,
                    "time": 464.4529200000015,
                    "velocity": 0.25984251968503935,
                    "duration": 0.18819000000002006
                },
                {
                    "name": "C5",
                    "midi": 72,
                    "time": 464.4529200000015,
                    "velocity": 0.2204724409448819,
                    "duration": 0.18819000000002006
                },
                {
                    "name": "E4",
                    "midi": 64,
                    "time": 464.4529200000015,
                    "velocity": 0.2204724409448819,
                    "duration": 0.18819000000002006
                },
                {
                    "name": "A3",
                    "midi": 57,
                    "time": 464.7038400000015,
                    "velocity": 0.3700787401574803,
                    "duration": 0.143233500000008
                },
                {
                    "name": "B3",
                    "midi": 59,
                    "time": 464.8470735000015,
                    "velocity": 0.29133858267716534,
                    "duration": 0.143233500000008
                },
                {
                    "name": "A3",
                    "midi": 57,
                    "time": 464.9913525000015,
                    "velocity": 0.3228346456692913,
                    "duration": 0.143233500000008
                },
                {
                    "name": "B3",
                    "midi": 59,
                    "time": 465.13563150000147,
                    "velocity": 0.2992125984251969,
                    "duration": 0.143233500000008
                },
                {
                    "name": "A3",
                    "midi": 57,
                    "time": 465.2788650000015,
                    "velocity": 0.3228346456692913,
                    "duration": 0.143233500000008
                },
                {
                    "name": "B3",
                    "midi": 59,
                    "time": 465.42314400000146,
                    "velocity": 0.2992125984251969,
                    "duration": 0.143233500000008
                },
                {
                    "name": "A3",
                    "midi": 57,
                    "time": 465.56637750000147,
                    "velocity": 0.3228346456692913,
                    "duration": 0.14114250000000084
                },
                {
                    "name": "A2",
                    "midi": 45,
                    "time": 466.71120000000144,
                    "velocity": 0.33070866141732286,
                    "duration": 0.143233500000008
                },
                {
                    "name": "B2",
                    "midi": 47,
                    "time": 466.85443350000145,
                    "velocity": 0.25984251968503935,
                    "duration": 0.143233500000008
                },
                {
                    "name": "A2",
                    "midi": 45,
                    "time": 466.99871250000143,
                    "velocity": 0.28346456692913385,
                    "duration": 0.143233500000008
                },
                {
                    "name": "B2",
                    "midi": 47,
                    "time": 467.1429915000014,
                    "velocity": 0.2677165354330709,
                    "duration": 0.143233500000008
                },
                {
                    "name": "A2",
                    "midi": 45,
                    "time": 467.2862250000014,
                    "velocity": 0.28346456692913385,
                    "duration": 0.143233500000008
                },
                {
                    "name": "B2",
                    "midi": 47,
                    "time": 467.4305040000014,
                    "velocity": 0.2677165354330709,
                    "duration": 0.143233500000008
                },
                {
                    "name": "A2",
                    "midi": 45,
                    "time": 467.5737375000014,
                    "velocity": 0.28346456692913385,
                    "duration": 0.14114250000000084
                },
                {
                    "name": "G4",
                    "midi": 67,
                    "time": 467.7148800000014,
                    "velocity": 0.2440944881889764,
                    "duration": 0.4767479999999864
                },
                {
                    "name": "E5",
                    "midi": 76,
                    "time": 467.7148800000014,
                    "velocity": 0.29133858267716534,
                    "duration": 0.4767479999999864
                },
                {
                    "name": "C5",
                    "midi": 72,
                    "time": 467.7148800000014,
                    "velocity": 0.2440944881889764,
                    "duration": 0.4767479999999864
                },
                {
                    "name": "E4",
                    "midi": 64,
                    "time": 467.7148800000014,
                    "velocity": 0.2440944881889764,
                    "duration": 0.4767479999999864
                },
                {
                    "name": "C5",
                    "midi": 72,
                    "time": 468.2167200000014,
                    "velocity": 0.2204724409448819,
                    "duration": 0.18819000000002006
                },
                {
                    "name": "E5",
                    "midi": 76,
                    "time": 468.2167200000014,
                    "velocity": 0.25984251968503935,
                    "duration": 0.18819000000002006
                },
                {
                    "name": "G4",
                    "midi": 67,
                    "time": 468.2167200000014,
                    "velocity": 0.2204724409448819,
                    "duration": 0.18819000000002006
                },
                {
                    "name": "E4",
                    "midi": 64,
                    "time": 468.2167200000014,
                    "velocity": 0.2204724409448819,
                    "duration": 0.18819000000002006
                },
                {
                    "name": "G4",
                    "midi": 67,
                    "time": 468.4676400000014,
                    "velocity": 0.2204724409448819,
                    "duration": 0.18819000000002006
                },
                {
                    "name": "E5",
                    "midi": 76,
                    "time": 468.4676400000014,
                    "velocity": 0.25984251968503935,
                    "duration": 0.18819000000002006
                },
                {
                    "name": "C5",
                    "midi": 72,
                    "time": 468.4676400000014,
                    "velocity": 0.2204724409448819,
                    "duration": 0.18819000000002006
                },
                {
                    "name": "E4",
                    "midi": 64,
                    "time": 468.4676400000014,
                    "velocity": 0.2204724409448819,
                    "duration": 0.18819000000002006
                },
                {
                    "name": "A3",
                    "midi": 57,
                    "time": 468.7185600000014,
                    "velocity": 0.3700787401574803,
                    "duration": 0.143233500000008
                },
                {
                    "name": "B3",
                    "midi": 59,
                    "time": 468.8617935000014,
                    "velocity": 0.29133858267716534,
                    "duration": 0.143233500000008
                },
                {
                    "name": "A3",
                    "midi": 57,
                    "time": 469.0060725000014,
                    "velocity": 0.3228346456692913,
                    "duration": 0.143233500000008
                },
                {
                    "name": "B3",
                    "midi": 59,
                    "time": 469.15035150000136,
                    "velocity": 0.2992125984251969,
                    "duration": 0.143233500000008
                },
                {
                    "name": "A3",
                    "midi": 57,
                    "time": 469.29358500000137,
                    "velocity": 0.3228346456692913,
                    "duration": 0.143233500000008
                },
                {
                    "name": "B3",
                    "midi": 59,
                    "time": 469.43786400000135,
                    "velocity": 0.2992125984251969,
                    "duration": 0.143233500000008
                },
                {
                    "name": "A3",
                    "midi": 57,
                    "time": 469.58109750000136,
                    "velocity": 0.3228346456692913,
                    "duration": 0.14114250000000084
                },
                {
                    "name": "A2",
                    "midi": 45,
                    "time": 470.72592000000134,
                    "velocity": 0.33070866141732286,
                    "duration": 0.143233500000008
                },
                {
                    "name": "B2",
                    "midi": 47,
                    "time": 470.86915350000135,
                    "velocity": 0.25984251968503935,
                    "duration": 0.143233500000008
                },
                {
                    "name": "A2",
                    "midi": 45,
                    "time": 471.01343250000133,
                    "velocity": 0.28346456692913385,
                    "duration": 0.143233500000008
                },
                {
                    "name": "B2",
                    "midi": 47,
                    "time": 471.1577115000013,
                    "velocity": 0.2677165354330709,
                    "duration": 0.143233500000008
                },
                {
                    "name": "A2",
                    "midi": 45,
                    "time": 471.3009450000013,
                    "velocity": 0.28346456692913385,
                    "duration": 0.143233500000008
                },
                {
                    "name": "B2",
                    "midi": 47,
                    "time": 471.4452240000013,
                    "velocity": 0.2677165354330709,
                    "duration": 0.143233500000008
                },
                {
                    "name": "A2",
                    "midi": 45,
                    "time": 471.5884575000013,
                    "velocity": 0.28346456692913385,
                    "duration": 6.163222500000188
                },
                {
                    "name": "D2",
                    "midi": 38,
                    "time": 471.7296000000013,
                    "velocity": 0.30708661417322836,
                    "duration": 0.1672800000000052
                },
                {
                    "name": "E2",
                    "midi": 40,
                    "time": 471.8968800000013,
                    "velocity": 0.25984251968503935,
                    "duration": 0.1672800000000052
                },
                {
                    "name": "D2",
                    "midi": 38,
                    "time": 472.0641600000013,
                    "velocity": 0.30708661417322836,
                    "duration": 0.1672800000000052
                },
                {
                    "name": "E2",
                    "midi": 40,
                    "time": 472.2314400000013,
                    "velocity": 0.25196850393700787,
                    "duration": 0.1672800000000052
                },
                {
                    "name": "D2",
                    "midi": 38,
                    "time": 472.39872000000133,
                    "velocity": 0.30708661417322836,
                    "duration": 0.1672800000000052
                },
                {
                    "name": "E2",
                    "midi": 40,
                    "time": 472.56600000000134,
                    "velocity": 0.25984251968503935,
                    "duration": 0.1672800000000052
                },
                {
                    "name": "D2",
                    "midi": 38,
                    "time": 472.73328000000134,
                    "velocity": 0.30708661417322836,
                    "duration": 0.1672800000000052
                },
                {
                    "name": "E2",
                    "midi": 40,
                    "time": 472.90056000000135,
                    "velocity": 0.25984251968503935,
                    "duration": 0.1672800000000052
                },
                {
                    "name": "D2",
                    "midi": 38,
                    "time": 473.06784000000135,
                    "velocity": 0.30708661417322836,
                    "duration": 0.1672800000000052
                },
                {
                    "name": "E2",
                    "midi": 40,
                    "time": 473.23512000000136,
                    "velocity": 0.25984251968503935,
                    "duration": 0.1672800000000052
                },
                {
                    "name": "D2",
                    "midi": 38,
                    "time": 473.40240000000136,
                    "velocity": 0.30708661417322836,
                    "duration": 0.1672800000000052
                },
                {
                    "name": "E2",
                    "midi": 40,
                    "time": 473.56968000000137,
                    "velocity": 0.2677165354330709,
                    "duration": 0.1672800000000052
                },
                {
                    "name": "D2",
                    "midi": 38,
                    "time": 473.7369600000014,
                    "velocity": 0.30708661417322836,
                    "duration": 0.1672800000000052
                },
                {
                    "name": "E2",
                    "midi": 40,
                    "time": 473.9042400000014,
                    "velocity": 0.25984251968503935,
                    "duration": 0.1672800000000052
                },
                {
                    "name": "D2",
                    "midi": 38,
                    "time": 474.0715200000014,
                    "velocity": 0.30708661417322836,
                    "duration": 0.1672800000000052
                },
                {
                    "name": "E2",
                    "midi": 40,
                    "time": 474.2388000000014,
                    "velocity": 0.25196850393700787,
                    "duration": 0.1672800000000052
                },
                {
                    "name": "D2",
                    "midi": 38,
                    "time": 474.4060800000014,
                    "velocity": 0.30708661417322836,
                    "duration": 0.1672800000000052
                },
                {
                    "name": "E2",
                    "midi": 40,
                    "time": 474.5733600000014,
                    "velocity": 0.25984251968503935,
                    "duration": 0.1672800000000052
                },
                {
                    "name": "D2",
                    "midi": 38,
                    "time": 474.7406400000014,
                    "velocity": 0.30708661417322836,
                    "duration": 0.1672800000000052
                },
                {
                    "name": "E2",
                    "midi": 40,
                    "time": 474.9079200000014,
                    "velocity": 0.25984251968503935,
                    "duration": 0.1672800000000052
                },
                {
                    "name": "D2",
                    "midi": 38,
                    "time": 475.0752000000014,
                    "velocity": 0.30708661417322836,
                    "duration": 0.1672800000000052
                },
                {
                    "name": "E2",
                    "midi": 40,
                    "time": 475.2424800000014,
                    "velocity": 0.25984251968503935,
                    "duration": 0.1672800000000052
                },
                {
                    "name": "D2",
                    "midi": 38,
                    "time": 475.4097600000014,
                    "velocity": 0.30708661417322836,
                    "duration": 0.1672800000000052
                },
                {
                    "name": "E2",
                    "midi": 40,
                    "time": 475.57704000000143,
                    "velocity": 0.2677165354330709,
                    "duration": 0.1672800000000052
                },
                {
                    "name": "D2",
                    "midi": 38,
                    "time": 475.74432000000144,
                    "velocity": 0.30708661417322836,
                    "duration": 0.1672800000000052
                },
                {
                    "name": "E2",
                    "midi": 40,
                    "time": 475.91160000000144,
                    "velocity": 0.25984251968503935,
                    "duration": 0.1672800000000052
                },
                {
                    "name": "D2",
                    "midi": 38,
                    "time": 476.07888000000145,
                    "velocity": 0.30708661417322836,
                    "duration": 0.1672800000000052
                },
                {
                    "name": "E2",
                    "midi": 40,
                    "time": 476.24616000000145,
                    "velocity": 0.25196850393700787,
                    "duration": 0.1672800000000052
                },
                {
                    "name": "D2",
                    "midi": 38,
                    "time": 476.41344000000146,
                    "velocity": 0.30708661417322836,
                    "duration": 0.1672800000000052
                },
                {
                    "name": "E2",
                    "midi": 40,
                    "time": 476.58072000000146,
                    "velocity": 0.25984251968503935,
                    "duration": 0.1672800000000052
                },
                {
                    "name": "C2",
                    "midi": 36,
                    "time": 476.74800000000147,
                    "velocity": 0.30708661417322836,
                    "duration": 0.1672800000000052
                },
                {
                    "name": "D2",
                    "midi": 38,
                    "time": 476.9152800000015,
                    "velocity": 0.25984251968503935,
                    "duration": 0.1672800000000052
                },
                {
                    "name": "C2",
                    "midi": 36,
                    "time": 477.0825600000015,
                    "velocity": 0.30708661417322836,
                    "duration": 0.1672800000000052
                },
                {
                    "name": "D2",
                    "midi": 38,
                    "time": 477.2498400000015,
                    "velocity": 0.25984251968503935,
                    "duration": 0.1672800000000052
                },
                {
                    "name": "C2",
                    "midi": 36,
                    "time": 477.4171200000015,
                    "velocity": 0.30708661417322836,
                    "duration": 0.1672800000000052
                },
                {
                    "name": "D2",
                    "midi": 38,
                    "time": 477.5844000000015,
                    "velocity": 0.2677165354330709,
                    "duration": 0.1672800000000052
                },
                {
                    "name": "C2",
                    "midi": 36,
                    "time": 477.7516800000015,
                    "velocity": 0.30708661417322836,
                    "duration": 0.1672800000000052
                },
                {
                    "name": "D2",
                    "midi": 38,
                    "time": 477.9189600000015,
                    "velocity": 0.25196850393700787,
                    "duration": 0.1672800000000052
                },
                {
                    "name": "C2",
                    "midi": 36,
                    "time": 478.0862400000015,
                    "velocity": 0.2992125984251969,
                    "duration": 0.1672800000000052
                },
                {
                    "name": "D2",
                    "midi": 38,
                    "time": 478.2535200000015,
                    "velocity": 0.25196850393700787,
                    "duration": 0.1672800000000052
                },
                {
                    "name": "C2",
                    "midi": 36,
                    "time": 478.4208000000015,
                    "velocity": 0.29133858267716534,
                    "duration": 0.1672800000000052
                },
                {
                    "name": "D2",
                    "midi": 38,
                    "time": 478.5880800000015,
                    "velocity": 0.2440944881889764,
                    "duration": 0.1672800000000052
                },
                {
                    "name": "A1",
                    "midi": 33,
                    "time": 478.75536000000153,
                    "velocity": 0.28346456692913385,
                    "duration": 0.1672800000000052
                },
                {
                    "name": "D2",
                    "midi": 38,
                    "time": 478.92264000000154,
                    "velocity": 0.23622047244094488,
                    "duration": 0.1672800000000052
                },
                {
                    "name": "A1",
                    "midi": 33,
                    "time": 479.08992000000154,
                    "velocity": 0.2755905511811024,
                    "duration": 0.1672800000000052
                },
                {
                    "name": "D2",
                    "midi": 38,
                    "time": 479.25720000000155,
                    "velocity": 0.2283464566929134,
                    "duration": 0.1672800000000052
                },
                {
                    "name": "A1",
                    "midi": 33,
                    "time": 479.42448000000155,
                    "velocity": 0.2677165354330709,
                    "duration": 0.1672800000000052
                },
                {
                    "name": "D2",
                    "midi": 38,
                    "time": 479.59176000000156,
                    "velocity": 0.2283464566929134,
                    "duration": 0.1672800000000052
                },
                {
                    "name": "G1",
                    "midi": 31,
                    "time": 479.75904000000156,
                    "velocity": 0.3543307086614173,
                    "duration": 0.2509200000000078
                },
                {
                    "name": "B3",
                    "midi": 59,
                    "time": 480.00996000000157,
                    "velocity": 0.29133858267716534,
                    "duration": 0.2509200000000078
                },
                {
                    "name": "E4",
                    "midi": 64,
                    "time": 480.2608800000016,
                    "velocity": 0.31496062992125984,
                    "duration": 0.2509200000000078
                },
                {
                    "name": "D4",
                    "midi": 62,
                    "time": 480.5118000000016,
                    "velocity": 0.28346456692913385,
                    "duration": 0.2509200000000078
                },
                {
                    "name": "A4",
                    "midi": 69,
                    "time": 480.7627200000016,
                    "velocity": 0.31496062992125984,
                    "duration": 0.2509200000000078
                },
                {
                    "name": "G4",
                    "midi": 67,
                    "time": 481.0136400000016,
                    "velocity": 0.29133858267716534,
                    "duration": 0.2509200000000078
                },
                {
                    "name": "D4",
                    "midi": 62,
                    "time": 481.2645600000016,
                    "velocity": 0.31496062992125984,
                    "duration": 0.2509200000000078
                },
                {
                    "name": "B3",
                    "midi": 59,
                    "time": 481.5154800000016,
                    "velocity": 0.29133858267716534,
                    "duration": 0.2509200000000078
                },
                {
                    "name": "E3",
                    "midi": 52,
                    "time": 482.01732000000163,
                    "velocity": 0.28346456692913385,
                    "duration": 0.2509200000000078
                },
                {
                    "name": "B3",
                    "midi": 59,
                    "time": 482.26824000000164,
                    "velocity": 0.31496062992125984,
                    "duration": 0.2509200000000078
                },
                {
                    "name": "A3",
                    "midi": 57,
                    "time": 482.51916000000165,
                    "velocity": 0.2992125984251969,
                    "duration": 0.2509200000000078
                },
                {
                    "name": "F#4",
                    "midi": 66,
                    "time": 482.77008000000166,
                    "velocity": 0.31496062992125984,
                    "duration": 0.2509200000000078
                },
                {
                    "name": "E4",
                    "midi": 64,
                    "time": 483.02100000000166,
                    "velocity": 0.29133858267716534,
                    "duration": 0.2509200000000078
                },
                {
                    "name": "C#4",
                    "midi": 61,
                    "time": 483.27192000000167,
                    "velocity": 0.31496062992125984,
                    "duration": 0.2509200000000078
                },
                {
                    "name": "G3",
                    "midi": 55,
                    "time": 483.5228400000017,
                    "velocity": 0.29133858267716534,
                    "duration": 0.2509200000000078
                },
                {
                    "name": "D3",
                    "midi": 50,
                    "time": 484.0246800000017,
                    "velocity": 0.28346456692913385,
                    "duration": 0.2509200000000078
                },
                {
                    "name": "E4",
                    "midi": 64,
                    "time": 484.2756000000017,
                    "velocity": 0.31496062992125984,
                    "duration": 0.2509200000000078
                },
                {
                    "name": "D4",
                    "midi": 62,
                    "time": 484.5265200000017,
                    "velocity": 0.2992125984251969,
                    "duration": 0.2509200000000078
                },
                {
                    "name": "C5",
                    "midi": 72,
                    "time": 484.7774400000017,
                    "velocity": 0.31496062992125984,
                    "duration": 0.2509200000000078
                },
                {
                    "name": "A4",
                    "midi": 69,
                    "time": 485.0283600000017,
                    "velocity": 0.29133858267716534,
                    "duration": 0.2509200000000078
                },
                {
                    "name": "F#4",
                    "midi": 66,
                    "time": 485.27928000000173,
                    "velocity": 0.31496062992125984,
                    "duration": 0.2509200000000078
                },
                {
                    "name": "D4",
                    "midi": 62,
                    "time": 485.53020000000174,
                    "velocity": 0.29133858267716534,
                    "duration": 0.2509200000000078
                },
                {
                    "name": "G3",
                    "midi": 55,
                    "time": 486.03204000000176,
                    "velocity": 0.28346456692913385,
                    "duration": 0.2509200000000078
                },
                {
                    "name": "E4",
                    "midi": 64,
                    "time": 486.28296000000176,
                    "velocity": 0.31496062992125984,
                    "duration": 0.2509200000000078
                },
                {
                    "name": "D4",
                    "midi": 62,
                    "time": 486.5338800000018,
                    "velocity": 0.2992125984251969,
                    "duration": 0.2509200000000078
                },
                {
                    "name": "A4",
                    "midi": 69,
                    "time": 486.7848000000018,
                    "velocity": 0.31496062992125984,
                    "duration": 0.2509200000000078
                },
                {
                    "name": "G4",
                    "midi": 67,
                    "time": 487.0357200000018,
                    "velocity": 0.29133858267716534,
                    "duration": 0.2509200000000078
                },
                {
                    "name": "D4",
                    "midi": 62,
                    "time": 487.2866400000018,
                    "velocity": 0.31496062992125984,
                    "duration": 0.2509200000000078
                },
                {
                    "name": "B3",
                    "midi": 59,
                    "time": 487.5375600000018,
                    "velocity": 0.29133858267716534,
                    "duration": 0.2509200000000078
                },
                {
                    "name": "E2",
                    "midi": 40,
                    "time": 488.0394000000018,
                    "velocity": 0.31496062992125984,
                    "duration": 0.2509200000000078
                },
                {
                    "name": "F#3",
                    "midi": 54,
                    "time": 488.2903200000018,
                    "velocity": 0.3464566929133858,
                    "duration": 0.2509200000000078
                },
                {
                    "name": "E3",
                    "midi": 52,
                    "time": 488.54124000000184,
                    "velocity": 0.30708661417322836,
                    "duration": 0.2509200000000078
                },
                {
                    "name": "C4",
                    "midi": 60,
                    "time": 488.79216000000184,
                    "velocity": 0.3464566929133858,
                    "duration": 0.2509200000000078
                },
                {
                    "name": "B3",
                    "midi": 59,
                    "time": 489.04308000000185,
                    "velocity": 0.31496062992125984,
                    "duration": 0.2509200000000078
                },
                {
                    "name": "G3",
                    "midi": 55,
                    "time": 489.29400000000186,
                    "velocity": 0.3464566929133858,
                    "duration": 0.2509200000000078
                },
                {
                    "name": "E3",
                    "midi": 52,
                    "time": 489.54492000000187,
                    "velocity": 0.31496062992125984,
                    "duration": 0.2509200000000078
                },
                {
                    "name": "C#3",
                    "midi": 49,
                    "time": 490.0467600000019,
                    "velocity": 0.30708661417322836,
                    "duration": 0.2509200000000078
                },
                {
                    "name": "G3",
                    "midi": 55,
                    "time": 490.2976800000019,
                    "velocity": 0.3464566929133858,
                    "duration": 0.2509200000000078
                },
                {
                    "name": "F#3",
                    "midi": 54,
                    "time": 490.5486000000019,
                    "velocity": 0.3228346456692913,
                    "duration": 0.2509200000000078
                },
                {
                    "name": "E4",
                    "midi": 64,
                    "time": 490.7995200000019,
                    "velocity": 0.3464566929133858,
                    "duration": 0.2509200000000078
                },
                {
                    "name": "C#4",
                    "midi": 61,
                    "time": 491.0504400000019,
                    "velocity": 0.31496062992125984,
                    "duration": 0.2509200000000078
                },
                {
                    "name": "A#3",
                    "midi": 58,
                    "time": 491.3013600000019,
                    "velocity": 0.3464566929133858,
                    "duration": 0.2509200000000078
                },
                {
                    "name": "F#3",
                    "midi": 54,
                    "time": 491.55228000000193,
                    "velocity": 0.31496062992125984,
                    "duration": 0.2509200000000078
                },
                {
                    "name": "F#2",
                    "midi": 42,
                    "time": 492.05412000000194,
                    "velocity": 0.30708661417322836,
                    "duration": 0.2509200000000078
                },
                {
                    "name": "D4",
                    "midi": 62,
                    "time": 492.30504000000195,
                    "velocity": 0.3464566929133858,
                    "duration": 0.2509200000000078
                },
                {
                    "name": "C#4",
                    "midi": 61,
                    "time": 492.55596000000196,
                    "velocity": 0.3228346456692913,
                    "duration": 0.2509200000000078
                },
                {
                    "name": "F#4",
                    "midi": 66,
                    "time": 492.80688000000197,
                    "velocity": 0.3464566929133858,
                    "duration": 0.2509200000000078
                },
                {
                    "name": "E4",
                    "midi": 64,
                    "time": 493.057800000002,
                    "velocity": 0.31496062992125984,
                    "duration": 0.2509200000000078
                },
                {
                    "name": "C#4",
                    "midi": 61,
                    "time": 493.308720000002,
                    "velocity": 0.3464566929133858,
                    "duration": 0.2509200000000078
                },
                {
                    "name": "F#3",
                    "midi": 54,
                    "time": 493.559640000002,
                    "velocity": 0.31496062992125984,
                    "duration": 0.2509200000000078
                },
                {
                    "name": "B2",
                    "midi": 47,
                    "time": 494.061480000002,
                    "velocity": 0.2992125984251969,
                    "duration": 0.2509200000000078
                },
                {
                    "name": "C#4",
                    "midi": 61,
                    "time": 494.312400000002,
                    "velocity": 0.33070866141732286,
                    "duration": 0.2509200000000078
                },
                {
                    "name": "B3",
                    "midi": 59,
                    "time": 494.563320000002,
                    "velocity": 0.30708661417322836,
                    "duration": 0.2509200000000078
                },
                {
                    "name": "G3",
                    "midi": 55,
                    "time": 494.81424000000203,
                    "velocity": 0.3228346456692913,
                    "duration": 0.2509200000000078
                },
                {
                    "name": "F#3",
                    "midi": 54,
                    "time": 495.06516000000204,
                    "velocity": 0.2440944881889764,
                    "duration": 0.2509200000000078
                },
                {
                    "name": "D3",
                    "midi": 50,
                    "time": 495.31608000000205,
                    "velocity": 0.2677165354330709,
                    "duration": 0.2509200000000078
                },
                {
                    "name": "B2",
                    "midi": 47,
                    "time": 495.56700000000205,
                    "velocity": 0.2047244094488189,
                    "duration": 0.2509200000000078
                },
                {
                    "name": "A2",
                    "midi": 45,
                    "time": 495.81792000000206,
                    "velocity": 0.23622047244094488,
                    "duration": 0.25092000000006465
                },
                {
                    "name": "F#3",
                    "midi": 54,
                    "time": 495.8336025000021,
                    "velocity": 0.23622047244094488,
                    "duration": 0.9879975000000627
                },
                {
                    "name": "D4",
                    "midi": 62,
                    "time": 495.8492850000021,
                    "velocity": 0.23622047244094488,
                    "duration": 0.9723150000000373
                },
                {
                    "name": "A3",
                    "midi": 57,
                    "time": 496.82160000000215,
                    "velocity": 0.1889763779527559,
                    "duration": 0.7527600000000234
                },
                {
                    "name": "E4",
                    "midi": 64,
                    "time": 496.82160000000215,
                    "velocity": 0.2283464566929134,
                    "duration": 0.7527600000000234
                },
                {
                    "name": "D4",
                    "midi": 62,
                    "time": 497.5743600000022,
                    "velocity": 0.14960629921259844,
                    "duration": 0.2258279999999786
                },
                {
                    "name": "F#4",
                    "midi": 66,
                    "time": 497.5743600000022,
                    "velocity": 0.18110236220472442,
                    "duration": 0.2258279999999786
                },
                {
                    "name": "D4",
                    "midi": 62,
                    "time": 497.8252800000021,
                    "velocity": 0.23622047244094488,
                    "duration": 1.0036799999999744
                },
                {
                    "name": "F#4",
                    "midi": 66,
                    "time": 497.8252800000021,
                    "velocity": 0.23622047244094488,
                    "duration": 1.0036799999999744
                },
                {
                    "name": "A3",
                    "midi": 57,
                    "time": 498.8289600000021,
                    "velocity": 0.1889763779527559,
                    "duration": 0.5018400000000156
                },
                {
                    "name": "E4",
                    "midi": 64,
                    "time": 498.8289600000021,
                    "velocity": 0.2283464566929134,
                    "duration": 0.5018400000000156
                },
                {
                    "name": "E4",
                    "midi": 64,
                    "time": 499.5817200000021,
                    "velocity": 0.2283464566929134,
                    "duration": 0.2509200000000078
                },
                {
                    "name": "A3",
                    "midi": 57,
                    "time": 499.5817200000021,
                    "velocity": 0.1889763779527559,
                    "duration": 0.2509200000000078
                },
                {
                    "name": "A1",
                    "midi": 33,
                    "time": 500.33448000000215,
                    "velocity": 0.2283464566929134,
                    "duration": 0.1672800000000052
                },
                {
                    "name": "A2",
                    "midi": 45,
                    "time": 500.50176000000215,
                    "velocity": 0.1968503937007874,
                    "duration": 0.14636999999999034
                },
                {
                    "name": "A2",
                    "midi": 45,
                    "time": 500.66904000000216,
                    "velocity": 0.1968503937007874,
                    "duration": 0.1672800000000052
                },
                {
                    "name": "A3",
                    "midi": 57,
                    "time": 500.83632000000216,
                    "velocity": 0.25984251968503935,
                    "duration": 0.1672800000000052
                },
                {
                    "name": "G#3",
                    "midi": 56,
                    "time": 501.00360000000217,
                    "velocity": 0.2283464566929134,
                    "duration": 0.1672800000000052
                },
                {
                    "name": "B3",
                    "midi": 59,
                    "time": 501.17088000000217,
                    "velocity": 0.2283464566929134,
                    "duration": 0.1672800000000052
                },
                {
                    "name": "A3",
                    "midi": 57,
                    "time": 501.3381600000022,
                    "velocity": 0.25984251968503935,
                    "duration": 0.1672800000000052
                },
                {
                    "name": "F#3",
                    "midi": 54,
                    "time": 501.5054400000022,
                    "velocity": 0.2047244094488189,
                    "duration": 0.1672800000000052
                },
                {
                    "name": "A2",
                    "midi": 45,
                    "time": 501.6727200000022,
                    "velocity": 0.2047244094488189,
                    "duration": 0.1672800000000052
                },
                {
                    "name": "A1",
                    "midi": 33,
                    "time": 502.3418400000022,
                    "velocity": 0.2283464566929134,
                    "duration": 0.1672800000000052
                },
                {
                    "name": "A2",
                    "midi": 45,
                    "time": 502.5091200000022,
                    "velocity": 0.1968503937007874,
                    "duration": 0.14636999999999034
                },
                {
                    "name": "A2",
                    "midi": 45,
                    "time": 502.6764000000022,
                    "velocity": 0.1968503937007874,
                    "duration": 0.1672800000000052
                },
                {
                    "name": "A3",
                    "midi": 57,
                    "time": 502.8436800000022,
                    "velocity": 0.25984251968503935,
                    "duration": 0.1672800000000052
                },
                {
                    "name": "G#3",
                    "midi": 56,
                    "time": 503.0109600000022,
                    "velocity": 0.2283464566929134,
                    "duration": 0.1672800000000052
                },
                {
                    "name": "B3",
                    "midi": 59,
                    "time": 503.17824000000223,
                    "velocity": 0.2283464566929134,
                    "duration": 0.1672800000000052
                },
                {
                    "name": "A3",
                    "midi": 57,
                    "time": 503.34552000000224,
                    "velocity": 0.25984251968503935,
                    "duration": 0.1672800000000052
                },
                {
                    "name": "F#3",
                    "midi": 54,
                    "time": 503.51280000000224,
                    "velocity": 0.2047244094488189,
                    "duration": 0.1672800000000052
                },
                {
                    "name": "A2",
                    "midi": 45,
                    "time": 503.68008000000225,
                    "velocity": 0.2047244094488189,
                    "duration": 0.1672800000000052
                },
                {
                    "name": "A2",
                    "midi": 45,
                    "time": 503.84736000000225,
                    "velocity": 0.23622047244094488,
                    "duration": 0.25092000000006465
                },
                {
                    "name": "F#3",
                    "midi": 54,
                    "time": 503.8630425000023,
                    "velocity": 0.23622047244094488,
                    "duration": 0.9879975000000627
                },
                {
                    "name": "D4",
                    "midi": 62,
                    "time": 503.8787250000023,
                    "velocity": 0.23622047244094488,
                    "duration": 0.9723150000000373
                },
                {
                    "name": "A3",
                    "midi": 57,
                    "time": 504.85104000000234,
                    "velocity": 0.1889763779527559,
                    "duration": 0.7527600000000234
                },
                {
                    "name": "E4",
                    "midi": 64,
                    "time": 504.85104000000234,
                    "velocity": 0.2283464566929134,
                    "duration": 0.7527600000000234
                },
                {
                    "name": "D4",
                    "midi": 62,
                    "time": 505.60380000000237,
                    "velocity": 0.14960629921259844,
                    "duration": 0.2258279999999786
                },
                {
                    "name": "F#4",
                    "midi": 66,
                    "time": 505.60380000000237,
                    "velocity": 0.18110236220472442,
                    "duration": 0.2258279999999786
                },
                {
                    "name": "D4",
                    "midi": 62,
                    "time": 505.8547200000023,
                    "velocity": 0.23622047244094488,
                    "duration": 1.0036799999999744
                },
                {
                    "name": "F#4",
                    "midi": 66,
                    "time": 505.8547200000023,
                    "velocity": 0.23622047244094488,
                    "duration": 1.0036799999999744
                },
                {
                    "name": "A3",
                    "midi": 57,
                    "time": 506.8584000000023,
                    "velocity": 0.1889763779527559,
                    "duration": 0.5018400000000156
                },
                {
                    "name": "E4",
                    "midi": 64,
                    "time": 506.8584000000023,
                    "velocity": 0.2283464566929134,
                    "duration": 0.5018400000000156
                },
                {
                    "name": "E4",
                    "midi": 64,
                    "time": 507.6111600000023,
                    "velocity": 0.2283464566929134,
                    "duration": 0.2509200000000078
                },
                {
                    "name": "A3",
                    "midi": 57,
                    "time": 507.6111600000023,
                    "velocity": 0.1889763779527559,
                    "duration": 0.2509200000000078
                },
                {
                    "name": "B4",
                    "midi": 71,
                    "time": 507.8620800000023,
                    "velocity": 0.25984251968503935,
                    "duration": 1.0036800000000312
                },
                {
                    "name": "G4",
                    "midi": 67,
                    "time": 507.8620800000023,
                    "velocity": 0.25984251968503935,
                    "duration": 0.9879975000000059
                },
                {
                    "name": "E4",
                    "midi": 64,
                    "time": 508.86576000000235,
                    "velocity": 0.2047244094488189,
                    "duration": 0.7318500000000085
                },
                {
                    "name": "G4",
                    "midi": 67,
                    "time": 508.86576000000235,
                    "velocity": 0.2440944881889764,
                    "duration": 0.7527600000000234
                },
                {
                    "name": "C#4",
                    "midi": 61,
                    "time": 509.6185200000024,
                    "velocity": 0.15748031496062992,
                    "duration": 0.2509200000000078
                },
                {
                    "name": "E4",
                    "midi": 64,
                    "time": 509.6185200000024,
                    "velocity": 0.1968503937007874,
                    "duration": 0.2509200000000078
                },
                {
                    "name": "B4",
                    "midi": 71,
                    "time": 509.8694400000024,
                    "velocity": 0.25984251968503935,
                    "duration": 1.0036800000000312
                },
                {
                    "name": "G4",
                    "midi": 67,
                    "time": 509.8694400000024,
                    "velocity": 0.25984251968503935,
                    "duration": 0.9879975000000059
                },
                {
                    "name": "E4",
                    "midi": 64,
                    "time": 510.8731200000024,
                    "velocity": 0.2047244094488189,
                    "duration": 0.7318500000000085
                },
                {
                    "name": "G4",
                    "midi": 67,
                    "time": 510.8731200000024,
                    "velocity": 0.2440944881889764,
                    "duration": 0.7527600000000234
                },
                {
                    "name": "C#4",
                    "midi": 61,
                    "time": 511.62588000000244,
                    "velocity": 0.15748031496062992,
                    "duration": 0.2509200000000078
                },
                {
                    "name": "E4",
                    "midi": 64,
                    "time": 511.62588000000244,
                    "velocity": 0.1968503937007874,
                    "duration": 0.2509200000000078
                },
                {
                    "name": "A#4",
                    "midi": 70,
                    "time": 511.87680000000245,
                    "velocity": 0.25984251968503935,
                    "duration": 1.0036799999999744
                },
                {
                    "name": "G4",
                    "midi": 67,
                    "time": 511.87680000000245,
                    "velocity": 0.25984251968503935,
                    "duration": 0.987997499999949
                },
                {
                    "name": "E4",
                    "midi": 64,
                    "time": 512.8804800000024,
                    "velocity": 0.2047244094488189,
                    "duration": 0.7318500000000085
                },
                {
                    "name": "G4",
                    "midi": 67,
                    "time": 512.8804800000024,
                    "velocity": 0.2440944881889764,
                    "duration": 0.7527599999999666
                },
                {
                    "name": "C#4",
                    "midi": 61,
                    "time": 513.6332400000024,
                    "velocity": 0.15748031496062992,
                    "duration": 0.25091999999995096
                },
                {
                    "name": "E4",
                    "midi": 64,
                    "time": 513.6332400000024,
                    "velocity": 0.1968503937007874,
                    "duration": 0.25091999999995096
                },
                {
                    "name": "A#4",
                    "midi": 70,
                    "time": 513.8841600000023,
                    "velocity": 0.30708661417322836,
                    "duration": 0.5018400000000156
                },
                {
                    "name": "G4",
                    "midi": 67,
                    "time": 513.8841600000023,
                    "velocity": 0.30708661417322836,
                    "duration": 0.4934759999999869
                },
                {
                    "name": "E4",
                    "midi": 64,
                    "time": 514.3860000000024,
                    "velocity": 0.2440944881889764,
                    "duration": 0.32828700000004574
                },
                {
                    "name": "G4",
                    "midi": 67,
                    "time": 514.3860000000024,
                    "velocity": 0.2992125984251969,
                    "duration": 0.3345600000000104
                },
                {
                    "name": "C#4",
                    "midi": 61,
                    "time": 514.7205600000024,
                    "velocity": 0.1968503937007874,
                    "duration": 0.1672800000000052
                },
                {
                    "name": "E4",
                    "midi": 64,
                    "time": 514.7205600000024,
                    "velocity": 0.2440944881889764,
                    "duration": 0.1672800000000052
                },
                {
                    "name": "A#4",
                    "midi": 70,
                    "time": 514.8878400000024,
                    "velocity": 0.3228346456692913,
                    "duration": 0.5018400000000156
                },
                {
                    "name": "G4",
                    "midi": 67,
                    "time": 514.8878400000024,
                    "velocity": 0.3228346456692913,
                    "duration": 0.4913850000000366
                },
                {
                    "name": "E4",
                    "midi": 64,
                    "time": 515.3896800000024,
                    "velocity": 0.2677165354330709,
                    "duration": 0.3345600000000104
                },
                {
                    "name": "G4",
                    "midi": 67,
                    "time": 515.3896800000024,
                    "velocity": 0.3228346456692913,
                    "duration": 0.3345600000000104
                },
                {
                    "name": "C#4",
                    "midi": 61,
                    "time": 515.7242400000024,
                    "velocity": 0.2125984251968504,
                    "duration": 0.1672800000000052
                },
                {
                    "name": "E4",
                    "midi": 64,
                    "time": 515.7242400000024,
                    "velocity": 0.25984251968503935,
                    "duration": 0.1672800000000052
                },
                {
                    "name": "G4",
                    "midi": 67,
                    "time": 515.8915200000024,
                    "velocity": 0.44881889763779526,
                    "duration": 0.1672800000000052
                },
                {
                    "name": "A#4",
                    "midi": 70,
                    "time": 515.8915200000024,
                    "velocity": 0.44881889763779526,
                    "duration": 0.1672800000000052
                },
                {
                    "name": "E4",
                    "midi": 64,
                    "time": 516.0588000000024,
                    "velocity": 0.3858267716535433,
                    "duration": 0.1672800000000052
                },
                {
                    "name": "C#4",
                    "midi": 61,
                    "time": 516.2260800000024,
                    "velocity": 0.4094488188976378,
                    "duration": 0.1672800000000052
                },
                {
                    "name": "C#5",
                    "midi": 73,
                    "time": 516.3933600000024,
                    "velocity": 0.4881889763779528,
                    "duration": 0.1672800000000052
                },
                {
                    "name": "A#4",
                    "midi": 70,
                    "time": 516.5606400000024,
                    "velocity": 0.4251968503937008,
                    "duration": 0.1672800000000052
                },
                {
                    "name": "G4",
                    "midi": 67,
                    "time": 516.7279200000024,
                    "velocity": 0.4251968503937008,
                    "duration": 0.1672800000000052
                },
                {
                    "name": "E5",
                    "midi": 76,
                    "time": 516.8952000000024,
                    "velocity": 0.5433070866141733,
                    "duration": 0.1672800000000052
                },
                {
                    "name": "C#5",
                    "midi": 73,
                    "time": 517.0624800000024,
                    "velocity": 0.4881889763779528,
                    "duration": 0.1672800000000052
                },
                {
                    "name": "A#4",
                    "midi": 70,
                    "time": 517.2297600000024,
                    "velocity": 0.49606299212598426,
                    "duration": 0.1672800000000052
                },
                {
                    "name": "G5",
                    "midi": 79,
                    "time": 517.3970400000024,
                    "velocity": 0.5984251968503937,
                    "duration": 0.1672800000000052
                },
                {
                    "name": "E5",
                    "midi": 76,
                    "time": 517.5643200000025,
                    "velocity": 0.5039370078740157,
                    "duration": 0.1672800000000052
                },
                {
                    "name": "C#5",
                    "midi": 73,
                    "time": 517.7316000000025,
                    "velocity": 0.5196850393700787,
                    "duration": 0.1672800000000052
                },
                {
                    "name": "E4",
                    "midi": 64,
                    "time": 518.4007200000025,
                    "velocity": 0.5511811023622047,
                    "duration": 0.12545999999997548
                },
                {
                    "name": "E3",
                    "midi": 52,
                    "time": 518.4007200000025,
                    "velocity": 0.4566929133858268,
                    "duration": 0.12545999999997548
                },
                {
                    "name": "C#4",
                    "midi": 61,
                    "time": 518.6516400000024,
                    "velocity": 0.48031496062992124,
                    "duration": 0.12545999999997548
                },
                {
                    "name": "C#3",
                    "midi": 49,
                    "time": 518.6516400000024,
                    "velocity": 0.4094488188976378,
                    "duration": 0.12545999999997548
                },
                {
                    "name": "A#2",
                    "midi": 46,
                    "time": 518.9025600000024,
                    "velocity": 0.5354330708661418,
                    "duration": 0.12545999999997548
                },
                {
                    "name": "A#3",
                    "midi": 58,
                    "time": 518.9025600000024,
                    "velocity": 0.6377952755905512,
                    "duration": 0.12545999999997548
                },
                {
                    "name": "G2",
                    "midi": 43,
                    "time": 519.1534800000023,
                    "velocity": 0.5039370078740157,
                    "duration": 0.12545999999997548
                },
                {
                    "name": "G3",
                    "midi": 55,
                    "time": 519.1534800000023,
                    "velocity": 0.5984251968503937,
                    "duration": 0.12545999999997548
                },
                {
                    "name": "E2",
                    "midi": 40,
                    "time": 519.4044000000023,
                    "velocity": 0.6141732283464567,
                    "duration": 0.12545999999997548
                },
                {
                    "name": "E3",
                    "midi": 52,
                    "time": 519.4044000000023,
                    "velocity": 0.7322834645669292,
                    "duration": 0.12545999999997548
                },
                {
                    "name": "C#2",
                    "midi": 37,
                    "time": 519.6553200000022,
                    "velocity": 0.5669291338582677,
                    "duration": 0.12545999999997548
                },
                {
                    "name": "C#3",
                    "midi": 49,
                    "time": 519.6553200000022,
                    "velocity": 0.6692913385826772,
                    "duration": 0.12545999999997548
                },
                {
                    "name": "C3",
                    "midi": 48,
                    "time": 519.9062400000022,
                    "velocity": 0.6929133858267716,
                    "duration": 0.7527599999999666
                },
                {
                    "name": "G2",
                    "midi": 43,
                    "time": 519.9062400000022,
                    "velocity": 0.6220472440944882,
                    "duration": 0.7527599999999666
                },
                {
                    "name": "C2",
                    "midi": 36,
                    "time": 519.9062400000022,
                    "velocity": 0.5905511811023622,
                    "duration": 0.7527599999999666
                },
                {
                    "name": "C2",
                    "midi": 36,
                    "time": 520.6590000000022,
                    "velocity": 0.5196850393700787,
                    "duration": 0.2258279999999786
                },
                {
                    "name": "G2",
                    "midi": 43,
                    "time": 520.6590000000022,
                    "velocity": 0.5196850393700787,
                    "duration": 0.2258279999999786
                },
                {
                    "name": "C3",
                    "midi": 48,
                    "time": 520.6590000000022,
                    "velocity": 0.6141732283464567,
                    "duration": 0.2258279999999786
                },
                {
                    "name": "C2",
                    "midi": 36,
                    "time": 520.9099200000021,
                    "velocity": 0.5196850393700787,
                    "duration": 0.5018400000000156
                },
                {
                    "name": "G2",
                    "midi": 43,
                    "time": 520.9099200000021,
                    "velocity": 0.5196850393700787,
                    "duration": 0.5018400000000156
                },
                {
                    "name": "C3",
                    "midi": 48,
                    "time": 520.9099200000021,
                    "velocity": 0.6141732283464567,
                    "duration": 0.5018400000000156
                },
                {
                    "name": "D2",
                    "midi": 38,
                    "time": 521.4117600000021,
                    "velocity": 0.47244094488188976,
                    "duration": 0.12545999999997548
                },
                {
                    "name": "D3",
                    "midi": 50,
                    "time": 521.4117600000021,
                    "velocity": 0.5511811023622047,
                    "duration": 0.12545999999997548
                },
                {
                    "name": "E2",
                    "midi": 40,
                    "time": 521.6626800000021,
                    "velocity": 0.5196850393700787,
                    "duration": 0.12545999999997548
                },
                {
                    "name": "C3",
                    "midi": 48,
                    "time": 521.6626800000021,
                    "velocity": 0.5196850393700787,
                    "duration": 0.12545999999997548
                },
                {
                    "name": "E3",
                    "midi": 52,
                    "time": 521.6626800000021,
                    "velocity": 0.6141732283464567,
                    "duration": 0.12545999999997548
                },
                {
                    "name": "F2",
                    "midi": 41,
                    "time": 521.913600000002,
                    "velocity": 0.5275590551181102,
                    "duration": 0.12545999999997548
                },
                {
                    "name": "C3",
                    "midi": 48,
                    "time": 521.913600000002,
                    "velocity": 0.5275590551181102,
                    "duration": 0.12545999999997548
                },
                {
                    "name": "F3",
                    "midi": 53,
                    "time": 521.913600000002,
                    "velocity": 0.6299212598425197,
                    "duration": 0.12545999999997548
                },
                {
                    "name": "E2",
                    "midi": 40,
                    "time": 522.415440000002,
                    "velocity": 0.4881889763779528,
                    "duration": 0.12545999999997548
                },
                {
                    "name": "C3",
                    "midi": 48,
                    "time": 522.415440000002,
                    "velocity": 0.4881889763779528,
                    "duration": 0.12545999999997548
                },
                {
                    "name": "E3",
                    "midi": 52,
                    "time": 522.415440000002,
                    "velocity": 0.5826771653543307,
                    "duration": 0.12545999999997548
                },
                {
                    "name": "C2",
                    "midi": 36,
                    "time": 523.670040000002,
                    "velocity": 0.5196850393700787,
                    "duration": 0.2258279999999786
                },
                {
                    "name": "G2",
                    "midi": 43,
                    "time": 523.670040000002,
                    "velocity": 0.5196850393700787,
                    "duration": 0.2258279999999786
                },
                {
                    "name": "C3",
                    "midi": 48,
                    "time": 523.670040000002,
                    "velocity": 0.6141732283464567,
                    "duration": 0.2258279999999786
                },
                {
                    "name": "C2",
                    "midi": 36,
                    "time": 523.920960000002,
                    "velocity": 0.5196850393700787,
                    "duration": 0.5018400000000156
                },
                {
                    "name": "G2",
                    "midi": 43,
                    "time": 523.920960000002,
                    "velocity": 0.5196850393700787,
                    "duration": 0.5018400000000156
                },
                {
                    "name": "C3",
                    "midi": 48,
                    "time": 523.920960000002,
                    "velocity": 0.6141732283464567,
                    "duration": 0.5018400000000156
                },
                {
                    "name": "D2",
                    "midi": 38,
                    "time": 524.422800000002,
                    "velocity": 0.47244094488188976,
                    "duration": 0.12545999999997548
                },
                {
                    "name": "D3",
                    "midi": 50,
                    "time": 524.422800000002,
                    "velocity": 0.5511811023622047,
                    "duration": 0.12545999999997548
                },
                {
                    "name": "E2",
                    "midi": 40,
                    "time": 524.6737200000019,
                    "velocity": 0.5196850393700787,
                    "duration": 0.12545999999997548
                },
                {
                    "name": "C3",
                    "midi": 48,
                    "time": 524.6737200000019,
                    "velocity": 0.5196850393700787,
                    "duration": 0.12545999999997548
                },
                {
                    "name": "E3",
                    "midi": 52,
                    "time": 524.6737200000019,
                    "velocity": 0.6141732283464567,
                    "duration": 0.12545999999997548
                },
                {
                    "name": "F2",
                    "midi": 41,
                    "time": 524.9246400000019,
                    "velocity": 0.5275590551181102,
                    "duration": 0.25091999999995096
                },
                {
                    "name": "C3",
                    "midi": 48,
                    "time": 524.9246400000019,
                    "velocity": 0.5275590551181102,
                    "duration": 0.25091999999995096
                },
                {
                    "name": "F3",
                    "midi": 53,
                    "time": 524.9246400000019,
                    "velocity": 0.6299212598425197,
                    "duration": 0.25091999999995096
                },
                {
                    "name": "C3",
                    "midi": 48,
                    "time": 525.4264800000018,
                    "velocity": 0.47244094488188976,
                    "duration": 0.12545999999997548
                },
                {
                    "name": "E2",
                    "midi": 40,
                    "time": 525.4264800000018,
                    "velocity": 0.47244094488188976,
                    "duration": 0.12545999999997548
                },
                {
                    "name": "E3",
                    "midi": 52,
                    "time": 525.4264800000018,
                    "velocity": 0.5511811023622047,
                    "duration": 0.12545999999997548
                },
                {
                    "name": "F2",
                    "midi": 41,
                    "time": 525.6774000000017,
                    "velocity": 0.5196850393700787,
                    "duration": 0.12545999999997548
                },
                {
                    "name": "C3",
                    "midi": 48,
                    "time": 525.6774000000017,
                    "velocity": 0.5196850393700787,
                    "duration": 0.12545999999997548
                },
                {
                    "name": "F3",
                    "midi": 53,
                    "time": 525.6774000000017,
                    "velocity": 0.6141732283464567,
                    "duration": 0.12545999999997548
                },
                {
                    "name": "G2",
                    "midi": 43,
                    "time": 525.9283200000017,
                    "velocity": 0.5275590551181102,
                    "duration": 0.12545999999997548
                },
                {
                    "name": "C3",
                    "midi": 48,
                    "time": 525.9283200000017,
                    "velocity": 0.5275590551181102,
                    "duration": 0.12545999999997548
                },
                {
                    "name": "G3",
                    "midi": 55,
                    "time": 525.9283200000017,
                    "velocity": 0.6299212598425197,
                    "duration": 0.12545999999997548
                },
                {
                    "name": "F2",
                    "midi": 41,
                    "time": 526.4301600000017,
                    "velocity": 0.4881889763779528,
                    "duration": 0.12545999999997548
                },
                {
                    "name": "C3",
                    "midi": 48,
                    "time": 526.4301600000017,
                    "velocity": 0.4881889763779528,
                    "duration": 0.12545999999997548
                },
                {
                    "name": "F3",
                    "midi": 53,
                    "time": 526.4301600000017,
                    "velocity": 0.5826771653543307,
                    "duration": 0.12545999999997548
                },
                {
                    "name": "C3",
                    "midi": 48,
                    "time": 527.4338400000017,
                    "velocity": 0.3937007874015748,
                    "duration": 0.12545999999997548
                },
                {
                    "name": "E2",
                    "midi": 40,
                    "time": 527.4338400000017,
                    "velocity": 0.3937007874015748,
                    "duration": 0.12545999999997548
                },
                {
                    "name": "E3",
                    "midi": 52,
                    "time": 527.4338400000017,
                    "velocity": 0.4645669291338583,
                    "duration": 0.12545999999997548
                },
                {
                    "name": "F2",
                    "midi": 41,
                    "time": 527.6847600000017,
                    "velocity": 0.4330708661417323,
                    "duration": 0.12545999999997548
                },
                {
                    "name": "C3",
                    "midi": 48,
                    "time": 527.6847600000017,
                    "velocity": 0.4330708661417323,
                    "duration": 0.12545999999997548
                },
                {
                    "name": "F3",
                    "midi": 53,
                    "time": 527.6847600000017,
                    "velocity": 0.5118110236220472,
                    "duration": 0.12545999999997548
                },
                {
                    "name": "D2",
                    "midi": 38,
                    "time": 527.9356800000016,
                    "velocity": 0.4409448818897638,
                    "duration": 0.12545999999997548
                },
                {
                    "name": "D3",
                    "midi": 50,
                    "time": 527.9356800000016,
                    "velocity": 0.5275590551181102,
                    "duration": 0.12545999999997548
                },
                {
                    "name": "E2",
                    "midi": 40,
                    "time": 528.4375200000017,
                    "velocity": 0.44881889763779526,
                    "duration": 0.12545999999997548
                },
                {
                    "name": "E3",
                    "midi": 52,
                    "time": 528.4375200000017,
                    "velocity": 0.5354330708661418,
                    "duration": 0.12545999999997548
                },
                {
                    "name": "B1",
                    "midi": 35,
                    "time": 528.9393600000017,
                    "velocity": 0.4645669291338583,
                    "duration": 0.12545999999997548
                },
                {
                    "name": "B2",
                    "midi": 47,
                    "time": 528.9393600000017,
                    "velocity": 0.5511811023622047,
                    "duration": 0.12545999999997548
                },
                {
                    "name": "C2",
                    "midi": 36,
                    "time": 529.4412000000017,
                    "velocity": 0.4881889763779528,
                    "duration": 0.12545999999997548
                },
                {
                    "name": "C3",
                    "midi": 48,
                    "time": 529.4412000000017,
                    "velocity": 0.5748031496062992,
                    "duration": 0.12545999999997548
                },
                {
                    "name": "A1",
                    "midi": 33,
                    "time": 529.9430400000017,
                    "velocity": 0.5275590551181102,
                    "duration": 1.0036800000000312
                },
                {
                    "name": "D2",
                    "midi": 38,
                    "time": 529.9430400000017,
                    "velocity": 0.5275590551181102,
                    "duration": 1.0036800000000312
                },
                {
                    "name": "A2",
                    "midi": 45,
                    "time": 529.9430400000017,
                    "velocity": 0.6220472440944882,
                    "duration": 1.0036800000000312
                },
                {
                    "name": "G1",
                    "midi": 31,
                    "time": 530.9467200000017,
                    "velocity": 0.49606299212598426,
                    "duration": 0.5018400000000156
                },
                {
                    "name": "D2",
                    "midi": 38,
                    "time": 530.9467200000017,
                    "velocity": 0.49606299212598426,
                    "duration": 0.5018400000000156
                },
                {
                    "name": "G2",
                    "midi": 43,
                    "time": 530.9467200000017,
                    "velocity": 0.5905511811023622,
                    "duration": 0.5018400000000156
                },
                {
                    "name": "D4",
                    "midi": 62,
                    "time": 531.4485600000017,
                    "velocity": 0.5511811023622047,
                    "duration": 0.12545999999997548
                },
                {
                    "name": "F#4",
                    "midi": 66,
                    "time": 531.6994800000017,
                    "velocity": 0.49606299212598426,
                    "duration": 0.12545999999997548
                },
                {
                    "name": "G4",
                    "midi": 67,
                    "time": 531.9504000000017,
                    "velocity": 0.5433070866141733,
                    "duration": 0.12545999999997548
                },
                {
                    "name": "D3",
                    "midi": 50,
                    "time": 532.4522400000017,
                    "velocity": 0.4409448818897638,
                    "duration": 0.12545999999997548
                },
                {
                    "name": "F#3",
                    "midi": 54,
                    "time": 532.7031600000016,
                    "velocity": 0.3937007874015748,
                    "duration": 0.12545999999997548
                },
                {
                    "name": "G3",
                    "midi": 55,
                    "time": 532.9540800000016,
                    "velocity": 0.4330708661417323,
                    "duration": 0.12545999999997548
                },
                {
                    "name": "D2",
                    "midi": 38,
                    "time": 533.4559200000016,
                    "velocity": 0.4409448818897638,
                    "duration": 0.12545999999997548
                },
                {
                    "name": "F#2",
                    "midi": 42,
                    "time": 533.7068400000015,
                    "velocity": 0.3937007874015748,
                    "duration": 0.12545999999997548
                },
                {
                    "name": "G2",
                    "midi": 43,
                    "time": 533.9577600000015,
                    "velocity": 0.4330708661417323,
                    "duration": 0.5018400000000156
                },
                {
                    "name": "B3",
                    "midi": 59,
                    "time": 534.9614400000015,
                    "velocity": 0.3779527559055118,
                    "duration": 0.5018400000000156
                },
                {
                    "name": "G3",
                    "midi": 55,
                    "time": 534.9614400000015,
                    "velocity": 0.3779527559055118,
                    "duration": 0.5018400000000156
                },
                {
                    "name": "D4",
                    "midi": 62,
                    "time": 534.9614400000015,
                    "velocity": 0.4330708661417323,
                    "duration": 0.5018400000000156
                },
                {
                    "name": "C3",
                    "midi": 48,
                    "time": 535.9651200000015,
                    "velocity": 0.5433070866141733,
                    "duration": 0.7527600000001939
                },
                {
                    "name": "D#3",
                    "midi": 51,
                    "time": 535.9964850000016,
                    "velocity": 0.5669291338582677,
                    "duration": 0.7213950000001432
                },
                {
                    "name": "G3",
                    "midi": 55,
                    "time": 536.0278500000016,
                    "velocity": 0.6062992125984252,
                    "duration": 0.6900300000000925
                },
                {
                    "name": "C4",
                    "midi": 60,
                    "time": 536.0592150000017,
                    "velocity": 0.6299212598425197,
                    "duration": 0.6586650000000418
                },
                {
                    "name": "G2",
                    "midi": 43,
                    "time": 536.7178800000017,
                    "velocity": 0.47244094488188976,
                    "duration": 0.2258279999999786
                },
                {
                    "name": "C2",
                    "midi": 36,
                    "time": 536.7178800000017,
                    "velocity": 0.47244094488188976,
                    "duration": 0.2258279999999786
                },
                {
                    "name": "C3",
                    "midi": 48,
                    "time": 536.7178800000017,
                    "velocity": 0.5590551181102362,
                    "duration": 0.2258279999999786
                },
                {
                    "name": "G2",
                    "midi": 43,
                    "time": 536.9688000000017,
                    "velocity": 0.47244094488188976,
                    "duration": 0.5018400000000156
                },
                {
                    "name": "C2",
                    "midi": 36,
                    "time": 536.9688000000017,
                    "velocity": 0.47244094488188976,
                    "duration": 0.5018400000000156
                },
                {
                    "name": "C3",
                    "midi": 48,
                    "time": 536.9688000000017,
                    "velocity": 0.5590551181102362,
                    "duration": 0.5018400000000156
                },
                {
                    "name": "D2",
                    "midi": 38,
                    "time": 537.4706400000017,
                    "velocity": 0.4330708661417323,
                    "duration": 0.12545999999997548
                },
                {
                    "name": "D3",
                    "midi": 50,
                    "time": 537.4706400000017,
                    "velocity": 0.5039370078740157,
                    "duration": 0.12545999999997548
                },
                {
                    "name": "D#2",
                    "midi": 39,
                    "time": 537.7215600000017,
                    "velocity": 0.47244094488188976,
                    "duration": 0.12545999999997548
                },
                {
                    "name": "D#3",
                    "midi": 51,
                    "time": 537.7215600000017,
                    "velocity": 0.5590551181102362,
                    "duration": 0.12545999999997548
                },
                {
                    "name": "F2",
                    "midi": 41,
                    "time": 537.9724800000016,
                    "velocity": 0.48031496062992124,
                    "duration": 0.12545999999997548
                },
                {
                    "name": "C3",
                    "midi": 48,
                    "time": 537.9724800000016,
                    "velocity": 0.48031496062992124,
                    "duration": 0.12545999999997548
                },
                {
                    "name": "F3",
                    "midi": 53,
                    "time": 537.9724800000016,
                    "velocity": 0.5748031496062992,
                    "duration": 0.12545999999997548
                },
                {
                    "name": "F2",
                    "midi": 41,
                    "time": 538.4743200000016,
                    "velocity": 0.44881889763779526,
                    "duration": 0.12545999999997548
                },
                {
                    "name": "C3",
                    "midi": 48,
                    "time": 538.4743200000016,
                    "velocity": 0.44881889763779526,
                    "duration": 0.12545999999997548
                },
                {
                    "name": "F3",
                    "midi": 53,
                    "time": 538.4743200000016,
                    "velocity": 0.5354330708661418,
                    "duration": 0.12545999999997548
                },
                {
                    "name": "G#2",
                    "midi": 44,
                    "time": 539.4780000000017,
                    "velocity": 0.48031496062992124,
                    "duration": 0.12545999999997548
                },
                {
                    "name": "G#3",
                    "midi": 56,
                    "time": 539.4780000000017,
                    "velocity": 0.5748031496062992,
                    "duration": 0.12545999999997548
                },
                {
                    "name": "C#3",
                    "midi": 49,
                    "time": 539.9798400000017,
                    "velocity": 0.5433070866141733,
                    "duration": 0.7527600000001939
                },
                {
                    "name": "G#3",
                    "midi": 56,
                    "time": 540.0112050000017,
                    "velocity": 0.5669291338582677,
                    "duration": 0.7213950000001432
                },
                {
                    "name": "C#4",
                    "midi": 61,
                    "time": 540.0425700000018,
                    "velocity": 0.6062992125984252,
                    "duration": 0.6900300000000925
                },
                {
                    "name": "F4",
                    "midi": 65,
                    "time": 540.0739350000018,
                    "velocity": 0.6299212598425197,
                    "duration": 0.6586650000000418
                },
                {
                    "name": "C#2",
                    "midi": 37,
                    "time": 540.7326000000019,
                    "velocity": 0.47244094488188976,
                    "duration": 0.2258279999999786
                },
                {
                    "name": "C#3",
                    "midi": 49,
                    "time": 540.7326000000019,
                    "velocity": 0.5590551181102362,
                    "duration": 0.2258279999999786
                },
                {
                    "name": "C#2",
                    "midi": 37,
                    "time": 540.9835200000018,
                    "velocity": 0.47244094488188976,
                    "duration": 0.5018400000000156
                },
                {
                    "name": "C#3",
                    "midi": 49,
                    "time": 540.9835200000018,
                    "velocity": 0.5590551181102362,
                    "duration": 0.5018400000000156
                },
                {
                    "name": "D#2",
                    "midi": 39,
                    "time": 541.4853600000018,
                    "velocity": 0.4330708661417323,
                    "duration": 0.12545999999997548
                },
                {
                    "name": "D#3",
                    "midi": 51,
                    "time": 541.4853600000018,
                    "velocity": 0.5039370078740157,
                    "duration": 0.12545999999997548
                },
                {
                    "name": "F2",
                    "midi": 41,
                    "time": 541.7362800000018,
                    "velocity": 0.47244094488188976,
                    "duration": 0.12545999999997548
                },
                {
                    "name": "F3",
                    "midi": 53,
                    "time": 541.7362800000018,
                    "velocity": 0.5590551181102362,
                    "duration": 0.12545999999997548
                },
                {
                    "name": "F#2",
                    "midi": 42,
                    "time": 541.9872000000017,
                    "velocity": 0.4251968503937008,
                    "duration": 0.12545999999997548
                },
                {
                    "name": "C#3",
                    "midi": 49,
                    "time": 541.9872000000017,
                    "velocity": 0.4251968503937008,
                    "duration": 0.12545999999997548
                },
                {
                    "name": "F#3",
                    "midi": 54,
                    "time": 541.9872000000017,
                    "velocity": 0.5118110236220472,
                    "duration": 0.12545999999997548
                },
                {
                    "name": "F#2",
                    "midi": 42,
                    "time": 542.4890400000018,
                    "velocity": 0.4015748031496063,
                    "duration": 0.12545999999997548
                },
                {
                    "name": "C#3",
                    "midi": 49,
                    "time": 542.4890400000018,
                    "velocity": 0.4015748031496063,
                    "duration": 0.12545999999997548
                },
                {
                    "name": "F#3",
                    "midi": 54,
                    "time": 542.4890400000018,
                    "velocity": 0.48031496062992124,
                    "duration": 0.12545999999997548
                },
                {
                    "name": "A2",
                    "midi": 45,
                    "time": 543.4927200000018,
                    "velocity": 0.48031496062992124,
                    "duration": 0.12545999999997548
                },
                {
                    "name": "A3",
                    "midi": 57,
                    "time": 543.4927200000018,
                    "velocity": 0.5748031496062992,
                    "duration": 0.12545999999997548
                },
                {
                    "name": "D3",
                    "midi": 50,
                    "time": 543.9945600000018,
                    "velocity": 0.5433070866141733,
                    "duration": 0.7527600000001939
                },
                {
                    "name": "A3",
                    "midi": 57,
                    "time": 544.0259250000018,
                    "velocity": 0.5669291338582677,
                    "duration": 0.7213950000001432
                },
                {
                    "name": "D4",
                    "midi": 62,
                    "time": 544.0572900000019,
                    "velocity": 0.6062992125984252,
                    "duration": 0.6900300000000925
                },
                {
                    "name": "F#4",
                    "midi": 66,
                    "time": 544.088655000002,
                    "velocity": 0.6299212598425197,
                    "duration": 0.6586650000000418
                },
                {
                    "name": "D2",
                    "midi": 38,
                    "time": 544.747320000002,
                    "velocity": 0.47244094488188976,
                    "duration": 0.2258279999999786
                },
                {
                    "name": "D3",
                    "midi": 50,
                    "time": 544.747320000002,
                    "velocity": 0.5590551181102362,
                    "duration": 0.2258279999999786
                },
                {
                    "name": "D2",
                    "midi": 38,
                    "time": 544.9982400000019,
                    "velocity": 0.47244094488188976,
                    "duration": 0.5018400000000156
                },
                {
                    "name": "D3",
                    "midi": 50,
                    "time": 544.9982400000019,
                    "velocity": 0.5590551181102362,
                    "duration": 0.5018400000000156
                },
                {
                    "name": "E2",
                    "midi": 40,
                    "time": 545.500080000002,
                    "velocity": 0.4330708661417323,
                    "duration": 0.12545999999997548
                },
                {
                    "name": "E3",
                    "midi": 52,
                    "time": 545.500080000002,
                    "velocity": 0.5039370078740157,
                    "duration": 0.12545999999997548
                },
                {
                    "name": "F#2",
                    "midi": 42,
                    "time": 545.7510000000019,
                    "velocity": 0.47244094488188976,
                    "duration": 0.12545999999997548
                },
                {
                    "name": "F#3",
                    "midi": 54,
                    "time": 545.7510000000019,
                    "velocity": 0.5590551181102362,
                    "duration": 0.12545999999997548
                },
                {
                    "name": "G2",
                    "midi": 43,
                    "time": 546.0019200000019,
                    "velocity": 0.48031496062992124,
                    "duration": 0.12545999999997548
                },
                {
                    "name": "D3",
                    "midi": 50,
                    "time": 546.0019200000019,
                    "velocity": 0.48031496062992124,
                    "duration": 0.12545999999997548
                },
                {
                    "name": "G3",
                    "midi": 55,
                    "time": 546.0019200000019,
                    "velocity": 0.5748031496062992,
                    "duration": 0.12545999999997548
                },
                {
                    "name": "F#2",
                    "midi": 42,
                    "time": 546.5037600000019,
                    "velocity": 0.44881889763779526,
                    "duration": 0.12545999999997548
                },
                {
                    "name": "D3",
                    "midi": 50,
                    "time": 546.5037600000019,
                    "velocity": 0.44881889763779526,
                    "duration": 0.12545999999997548
                },
                {
                    "name": "F#3",
                    "midi": 54,
                    "time": 546.5037600000019,
                    "velocity": 0.5354330708661418,
                    "duration": 0.12545999999997548
                },
                {
                    "name": "D#2",
                    "midi": 39,
                    "time": 547.5074400000019,
                    "velocity": 0.4251968503937008,
                    "duration": 0.12545999999997548
                },
                {
                    "name": "D#3",
                    "midi": 51,
                    "time": 547.5074400000019,
                    "velocity": 0.5118110236220472,
                    "duration": 0.12545999999997548
                },
                {
                    "name": "D2",
                    "midi": 38,
                    "time": 548.0092800000019,
                    "velocity": 0.44881889763779526,
                    "duration": 0.12545999999997548
                },
                {
                    "name": "D3",
                    "midi": 50,
                    "time": 548.0092800000019,
                    "velocity": 0.5354330708661418,
                    "duration": 0.12545999999997548
                },
                {
                    "name": "D3",
                    "midi": 50,
                    "time": 548.2602000000019,
                    "velocity": 0.5354330708661418,
                    "duration": 0.25091999999995096
                },
                {
                    "name": "D#3",
                    "midi": 51,
                    "time": 548.5111200000018,
                    "velocity": 0.5354330708661418,
                    "duration": 0.5018400000000156
                },
                {
                    "name": "D#4",
                    "midi": 63,
                    "time": 548.5111200000018,
                    "velocity": 0.5905511811023622,
                    "duration": 0.5018400000000156
                },
                {
                    "name": "D2",
                    "midi": 38,
                    "time": 549.2638800000018,
                    "velocity": 0.5354330708661418,
                    "duration": 0.25091999999995096
                },
                {
                    "name": "D#2",
                    "midi": 39,
                    "time": 549.5148000000017,
                    "velocity": 0.5275590551181102,
                    "duration": 0.5018400000000156
                },
                {
                    "name": "D#3",
                    "midi": 51,
                    "time": 549.5148000000017,
                    "velocity": 0.5905511811023622,
                    "duration": 0.5018400000000156
                },
                {
                    "name": "D3",
                    "midi": 50,
                    "time": 550.2675600000017,
                    "velocity": 0.5354330708661418,
                    "duration": 0.25091999999995096
                },
                {
                    "name": "D#3",
                    "midi": 51,
                    "time": 550.5184800000017,
                    "velocity": 0.5354330708661418,
                    "duration": 0.5018400000000156
                },
                {
                    "name": "D#4",
                    "midi": 63,
                    "time": 550.5184800000017,
                    "velocity": 0.5905511811023622,
                    "duration": 0.5018400000000156
                },
                {
                    "name": "D2",
                    "midi": 38,
                    "time": 551.2712400000016,
                    "velocity": 0.5354330708661418,
                    "duration": 0.25091999999995096
                },
                {
                    "name": "D#2",
                    "midi": 39,
                    "time": 551.5221600000016,
                    "velocity": 0.5275590551181102,
                    "duration": 0.5018400000000156
                },
                {
                    "name": "D#3",
                    "midi": 51,
                    "time": 551.5221600000016,
                    "velocity": 0.5905511811023622,
                    "duration": 0.5018400000000156
                },
                {
                    "name": "E2",
                    "midi": 40,
                    "time": 552.0240000000016,
                    "velocity": 0.5354330708661418,
                    "duration": 0.2258279999999786
                },
                {
                    "name": "E3",
                    "midi": 52,
                    "time": 552.0240000000016,
                    "velocity": 0.5905511811023622,
                    "duration": 0.2258279999999786
                },
                {
                    "name": "E3",
                    "midi": 52,
                    "time": 552.2749200000015,
                    "velocity": 0.5354330708661418,
                    "duration": 0.25091999999995096
                },
                {
                    "name": "F3",
                    "midi": 53,
                    "time": 552.5258400000015,
                    "velocity": 0.5354330708661418,
                    "duration": 0.5018400000000156
                },
                {
                    "name": "F4",
                    "midi": 65,
                    "time": 552.5258400000015,
                    "velocity": 0.5905511811023622,
                    "duration": 0.5018400000000156
                },
                {
                    "name": "E2",
                    "midi": 40,
                    "time": 553.2786000000015,
                    "velocity": 0.5354330708661418,
                    "duration": 0.25091999999995096
                },
                {
                    "name": "F2",
                    "midi": 41,
                    "time": 553.5295200000014,
                    "velocity": 0.5275590551181102,
                    "duration": 0.5018400000000156
                },
                {
                    "name": "F3",
                    "midi": 53,
                    "time": 553.5295200000014,
                    "velocity": 0.5905511811023622,
                    "duration": 0.5018400000000156
                },
                {
                    "name": "E3",
                    "midi": 52,
                    "time": 554.2822800000014,
                    "velocity": 0.5354330708661418,
                    "duration": 0.25091999999995096
                },
                {
                    "name": "F3",
                    "midi": 53,
                    "time": 554.5332000000013,
                    "velocity": 0.5354330708661418,
                    "duration": 0.5018400000000156
                },
                {
                    "name": "F4",
                    "midi": 65,
                    "time": 554.5332000000013,
                    "velocity": 0.5905511811023622,
                    "duration": 0.5018400000000156
                },
                {
                    "name": "E2",
                    "midi": 40,
                    "time": 555.2859600000013,
                    "velocity": 0.5354330708661418,
                    "duration": 0.25091999999995096
                },
                {
                    "name": "F2",
                    "midi": 41,
                    "time": 555.5368800000012,
                    "velocity": 0.5275590551181102,
                    "duration": 0.7527599999999666
                },
                {
                    "name": "F3",
                    "midi": 53,
                    "time": 555.5368800000012,
                    "velocity": 0.5905511811023622,
                    "duration": 0.7527599999999666
                },
                {
                    "name": "F2",
                    "midi": 41,
                    "time": 556.2896400000012,
                    "velocity": 0.5354330708661418,
                    "duration": 0.25091999999995096
                },
                {
                    "name": "F#2",
                    "midi": 42,
                    "time": 556.5405600000012,
                    "velocity": 0.5275590551181102,
                    "duration": 0.7318500000000085
                },
                {
                    "name": "F#3",
                    "midi": 54,
                    "time": 556.5405600000012,
                    "velocity": 0.5905511811023622,
                    "duration": 0.7527599999999666
                },
                {
                    "name": "F#2",
                    "midi": 42,
                    "time": 557.2933200000011,
                    "velocity": 0.5354330708661418,
                    "duration": 0.25091999999995096
                },
                {
                    "name": "G2",
                    "midi": 43,
                    "time": 557.5442400000011,
                    "velocity": 0.5275590551181102,
                    "duration": 0.7527599999999666
                },
                {
                    "name": "G3",
                    "midi": 55,
                    "time": 557.5442400000011,
                    "velocity": 0.5905511811023622,
                    "duration": 0.7527599999999666
                },
                {
                    "name": "G2",
                    "midi": 43,
                    "time": 558.297000000001,
                    "velocity": 0.5354330708661418,
                    "duration": 0.25091999999995096
                },
                {
                    "name": "A2",
                    "midi": 45,
                    "time": 558.547920000001,
                    "velocity": 0.5275590551181102,
                    "duration": 0.7318500000000085
                },
                {
                    "name": "A3",
                    "midi": 57,
                    "time": 558.547920000001,
                    "velocity": 0.5905511811023622,
                    "duration": 0.7527599999999666
                },
                {
                    "name": "A2",
                    "midi": 45,
                    "time": 559.300680000001,
                    "velocity": 0.5354330708661418,
                    "duration": 0.25091999999995096
                },
                {
                    "name": "A#2",
                    "midi": 46,
                    "time": 559.5516000000009,
                    "velocity": 0.5275590551181102,
                    "duration": 0.7318500000000085
                },
                {
                    "name": "A#3",
                    "midi": 58,
                    "time": 559.5516000000009,
                    "velocity": 0.5905511811023622,
                    "duration": 0.7527599999999666
                },
                {
                    "name": "A#2",
                    "midi": 46,
                    "time": 560.3043600000009,
                    "velocity": 0.5354330708661418,
                    "duration": 0.25091999999995096
                },
                {
                    "name": "C3",
                    "midi": 48,
                    "time": 560.5552800000008,
                    "velocity": 0.5275590551181102,
                    "duration": 0.7318500000000085
                },
                {
                    "name": "C4",
                    "midi": 60,
                    "time": 560.5552800000008,
                    "velocity": 0.5905511811023622,
                    "duration": 0.7527599999999666
                },
                {
                    "name": "C3",
                    "midi": 48,
                    "time": 561.3080400000008,
                    "velocity": 0.5354330708661418,
                    "duration": 0.25091999999995096
                },
                {
                    "name": "C#3",
                    "midi": 49,
                    "time": 561.5589600000008,
                    "velocity": 0.5275590551181102,
                    "duration": 0.5018400000000156
                },
                {
                    "name": "C#4",
                    "midi": 61,
                    "time": 561.5589600000008,
                    "velocity": 0.5905511811023622,
                    "duration": 0.5018400000000156
                },
                {
                    "name": "D3",
                    "midi": 50,
                    "time": 562.0608000000008,
                    "velocity": 0.5275590551181102,
                    "duration": 0.25091999999995096
                },
                {
                    "name": "D4",
                    "midi": 62,
                    "time": 562.0608000000008,
                    "velocity": 0.5905511811023622,
                    "duration": 0.25091999999995096
                },
                {
                    "name": "D3",
                    "midi": 50,
                    "time": 563.0644800000007,
                    "velocity": 0.4251968503937008,
                    "duration": 0.12545999999997548
                },
                {
                    "name": "F#3",
                    "midi": 54,
                    "time": 563.0644800000007,
                    "velocity": 0.4251968503937008,
                    "duration": 0.12545999999997548
                },
                {
                    "name": "A3",
                    "midi": 57,
                    "time": 563.0644800000007,
                    "velocity": 0.5039370078740157,
                    "duration": 0.12545999999997548
                },
                {
                    "name": "D2",
                    "midi": 38,
                    "time": 564.0681600000007,
                    "velocity": 0.4251968503937008,
                    "duration": 0.12545999999997548
                },
                {
                    "name": "A2",
                    "midi": 45,
                    "time": 564.0681600000007,
                    "velocity": 0.4251968503937008,
                    "duration": 0.12545999999997548
                },
                {
                    "name": "F#3",
                    "midi": 54,
                    "time": 564.0681600000007,
                    "velocity": 0.5039370078740157,
                    "duration": 0.12545999999997548
                },
                {
                    "name": "D#4",
                    "midi": 63,
                    "time": 566.3264400000007,
                    "velocity": 0.5039370078740157,
                    "duration": 0.25091999999995096
                },
                {
                    "name": "G4",
                    "midi": 67,
                    "time": 566.5773600000007,
                    "velocity": 0.5511811023622047,
                    "duration": 0.25091999999995096
                },
                {
                    "name": "G5",
                    "midi": 79,
                    "time": 566.8282800000006,
                    "velocity": 0.49606299212598426,
                    "duration": 0.25091999999995096
                },
                {
                    "name": "D4",
                    "midi": 62,
                    "time": 568.3338000000006,
                    "velocity": 0.2992125984251969,
                    "duration": 0.25091999999995096
                },
                {
                    "name": "F#4",
                    "midi": 66,
                    "time": 568.5847200000005,
                    "velocity": 0.33070866141732286,
                    "duration": 0.25091999999995096
                },
                {
                    "name": "F#5",
                    "midi": 78,
                    "time": 568.8356400000005,
                    "velocity": 0.29133858267716534,
                    "duration": 0.25091999999995096
                },
                {
                    "name": "D#4",
                    "midi": 63,
                    "time": 570.3411600000004,
                    "velocity": 0.2047244094488189,
                    "duration": 0.25091999999995096
                },
                {
                    "name": "G4",
                    "midi": 67,
                    "time": 570.5920800000004,
                    "velocity": 0.2204724409448819,
                    "duration": 0.25091999999995096
                },
                {
                    "name": "D#4",
                    "midi": 63,
                    "time": 570.8430000000003,
                    "velocity": 0.1732283464566929,
                    "duration": 0.25091999999995096
                },
                {
                    "name": "G4",
                    "midi": 67,
                    "time": 571.0939200000003,
                    "velocity": 0.2204724409448819,
                    "duration": 0.25091999999995096
                },
                {
                    "name": "D#4",
                    "midi": 63,
                    "time": 571.3448400000002,
                    "velocity": 0.1889763779527559,
                    "duration": 0.25091999999995096
                },
                {
                    "name": "G4",
                    "midi": 67,
                    "time": 571.5957600000002,
                    "velocity": 0.1889763779527559,
                    "duration": 0.25091999999995096
                },
                {
                    "name": "C5",
                    "midi": 72,
                    "time": 571.8466800000001,
                    "velocity": 0.15748031496062992,
                    "duration": 0.25091999999995096
                },
                {
                    "name": "F4",
                    "midi": 65,
                    "time": 572.34852,
                    "velocity": 0.18110236220472442,
                    "duration": 0.25091999999995096
                },
                {
                    "name": "G#4",
                    "midi": 68,
                    "time": 572.59944,
                    "velocity": 0.2125984251968504,
                    "duration": 0.25091999999995096
                },
                {
                    "name": "F4",
                    "midi": 65,
                    "time": 572.8503599999999,
                    "velocity": 0.1732283464566929,
                    "duration": 0.25091999999995096
                },
                {
                    "name": "G#4",
                    "midi": 68,
                    "time": 573.1012799999999,
                    "velocity": 0.2125984251968504,
                    "duration": 0.25091999999995096
                },
                {
                    "name": "F4",
                    "midi": 65,
                    "time": 573.3521999999998,
                    "velocity": 0.1889763779527559,
                    "duration": 0.25091999999995096
                },
                {
                    "name": "G#4",
                    "midi": 68,
                    "time": 573.6031199999998,
                    "velocity": 0.1889763779527559,
                    "duration": 0.25091999999995096
                },
                {
                    "name": "C5",
                    "midi": 72,
                    "time": 573.8540399999997,
                    "velocity": 0.15748031496062992,
                    "duration": 0.25091999999995096
                },
                {
                    "name": "G3",
                    "midi": 55,
                    "time": 574.3558799999996,
                    "velocity": 0.1889763779527559,
                    "duration": 0.25091999999995096
                },
                {
                    "name": "B3",
                    "midi": 59,
                    "time": 574.6067999999996,
                    "velocity": 0.2125984251968504,
                    "duration": 0.25091999999995096
                },
                {
                    "name": "G3",
                    "midi": 55,
                    "time": 574.8577199999995,
                    "velocity": 0.1889763779527559,
                    "duration": 0.25091999999995096
                },
                {
                    "name": "B3",
                    "midi": 59,
                    "time": 575.1086399999995,
                    "velocity": 0.2125984251968504,
                    "duration": 0.25091999999995096
                },
                {
                    "name": "G3",
                    "midi": 55,
                    "time": 575.3595599999994,
                    "velocity": 0.18110236220472442,
                    "duration": 0.25091999999995096
                },
                {
                    "name": "B3",
                    "midi": 59,
                    "time": 575.6104799999994,
                    "velocity": 0.18110236220472442,
                    "duration": 0.25091999999995096
                },
                {
                    "name": "F4",
                    "midi": 65,
                    "time": 575.8613999999993,
                    "velocity": 0.14960629921259844,
                    "duration": 0.25091999999995096
                },
                {
                    "name": "C4",
                    "midi": 60,
                    "time": 576.3632399999992,
                    "velocity": 0.18110236220472442,
                    "duration": 0.25091999999995096
                },
                {
                    "name": "G4",
                    "midi": 67,
                    "time": 576.6141599999992,
                    "velocity": 0.2125984251968504,
                    "duration": 0.25091999999995096
                },
                {
                    "name": "C4",
                    "midi": 60,
                    "time": 576.8650799999991,
                    "velocity": 0.1889763779527559,
                    "duration": 0.25091999999995096
                },
                {
                    "name": "G4",
                    "midi": 67,
                    "time": 577.1159999999991,
                    "velocity": 0.2125984251968504,
                    "duration": 0.25091999999995096
                },
                {
                    "name": "C4",
                    "midi": 60,
                    "time": 577.366919999999,
                    "velocity": 0.1732283464566929,
                    "duration": 0.25091999999995096
                },
                {
                    "name": "G4",
                    "midi": 67,
                    "time": 577.617839999999,
                    "velocity": 0.1732283464566929,
                    "duration": 0.25091999999995096
                },
                {
                    "name": "C5",
                    "midi": 72,
                    "time": 577.8687599999989,
                    "velocity": 0.15748031496062992,
                    "duration": 0.25091999999995096
                },
                {
                    "name": "C3",
                    "midi": 48,
                    "time": 578.3705999999988,
                    "velocity": 0.2283464566929134,
                    "duration": 0.25091999999995096
                },
                {
                    "name": "G3",
                    "midi": 55,
                    "time": 578.6215199999988,
                    "velocity": 0.25196850393700787,
                    "duration": 0.25091999999995096
                },
                {
                    "name": "C3",
                    "midi": 48,
                    "time": 578.8724399999987,
                    "velocity": 0.2204724409448819,
                    "duration": 0.25091999999995096
                },
                {
                    "name": "G3",
                    "midi": 55,
                    "time": 579.1233599999987,
                    "velocity": 0.25196850393700787,
                    "duration": 0.25091999999995096
                },
                {
                    "name": "C3",
                    "midi": 48,
                    "time": 579.3742799999986,
                    "velocity": 0.2125984251968504,
                    "duration": 0.25091999999995096
                },
                {
                    "name": "G3",
                    "midi": 55,
                    "time": 579.6251999999986,
                    "velocity": 0.2125984251968504,
                    "duration": 0.25091999999995096
                },
                {
                    "name": "A3",
                    "midi": 57,
                    "time": 579.8761199999985,
                    "velocity": 0.2125984251968504,
                    "duration": 0.25091999999995096
                },
                {
                    "name": "A#2",
                    "midi": 46,
                    "time": 580.3779599999984,
                    "velocity": 0.2047244094488189,
                    "duration": 0.25091999999995096
                },
                {
                    "name": "G3",
                    "midi": 55,
                    "time": 580.6288799999984,
                    "velocity": 0.2440944881889764,
                    "duration": 0.25091999999995096
                },
                {
                    "name": "A#3",
                    "midi": 58,
                    "time": 580.8797999999983,
                    "velocity": 0.2125984251968504,
                    "duration": 0.25091999999995096
                },
                {
                    "name": "D#4",
                    "midi": 63,
                    "time": 581.1307199999983,
                    "velocity": 0.30708661417322836,
                    "duration": 0.25091999999995096
                },
                {
                    "name": "A#3",
                    "midi": 58,
                    "time": 581.3816399999982,
                    "velocity": 0.2677165354330709,
                    "duration": 0.25091999999995096
                },
                {
                    "name": "G3",
                    "midi": 55,
                    "time": 581.6325599999982,
                    "velocity": 0.29133858267716534,
                    "duration": 0.25091999999995096
                },
                {
                    "name": "D#3",
                    "midi": 51,
                    "time": 581.8834799999981,
                    "velocity": 0.31496062992125984,
                    "duration": 0.25091999999995096
                },
                {
                    "name": "A2",
                    "midi": 45,
                    "time": 582.1343999999981,
                    "velocity": 0.3464566929133858,
                    "duration": 0.25091999999995096
                },
                {
                    "name": "D3",
                    "midi": 50,
                    "time": 582.385319999998,
                    "velocity": 0.2992125984251969,
                    "duration": 0.25091999999995096
                },
                {
                    "name": "G3",
                    "midi": 55,
                    "time": 582.636239999998,
                    "velocity": 0.2992125984251969,
                    "duration": 0.25091999999995096
                },
                {
                    "name": "A#3",
                    "midi": 58,
                    "time": 582.887159999998,
                    "velocity": 0.2992125984251969,
                    "duration": 0.25091999999995096
                },
                {
                    "name": "G2",
                    "midi": 43,
                    "time": 583.1380799999979,
                    "velocity": 0.4015748031496063,
                    "duration": 0.25091999999995096
                },
                {
                    "name": "D3",
                    "midi": 50,
                    "time": 583.3889999999978,
                    "velocity": 0.31496062992125984,
                    "duration": 0.25091999999995096
                },
                {
                    "name": "G3",
                    "midi": 55,
                    "time": 583.6399199999978,
                    "velocity": 0.33070866141732286,
                    "duration": 0.25091999999995096
                },
                {
                    "name": "A#3",
                    "midi": 58,
                    "time": 583.8908399999978,
                    "velocity": 0.33070866141732286,
                    "duration": 0.25091999999995096
                },
                {
                    "name": "D2",
                    "midi": 38,
                    "time": 584.1417599999977,
                    "velocity": 0.44881889763779526,
                    "duration": 0.25091999999995096
                },
                {
                    "name": "D3",
                    "midi": 50,
                    "time": 584.3926799999977,
                    "velocity": 0.3464566929133858,
                    "duration": 0.25091999999995096
                },
                {
                    "name": "F3",
                    "midi": 53,
                    "time": 584.6435999999976,
                    "velocity": 0.3464566929133858,
                    "duration": 0.25091999999995096
                },
                {
                    "name": "A#3",
                    "midi": 58,
                    "time": 584.8945199999976,
                    "velocity": 0.3464566929133858,
                    "duration": 0.25091999999995096
                },
                {
                    "name": "A#4",
                    "midi": 70,
                    "time": 585.1454399999975,
                    "velocity": 0.41732283464566927,
                    "duration": 0.25091999999995096
                },
                {
                    "name": "F4",
                    "midi": 65,
                    "time": 585.3963599999975,
                    "velocity": 0.3464566929133858,
                    "duration": 0.25091999999995096
                },
                {
                    "name": "D4",
                    "midi": 62,
                    "time": 585.6472799999974,
                    "velocity": 0.3464566929133858,
                    "duration": 0.25091999999995096
                },
                {
                    "name": "A#3",
                    "midi": 58,
                    "time": 585.8981999999974,
                    "velocity": 0.3464566929133858,
                    "duration": 0.25091999999995096
                },
                {
                    "name": "D3",
                    "midi": 50,
                    "time": 586.1491199999973,
                    "velocity": 0.41732283464566927,
                    "duration": 0.25091999999995096
                },
                {
                    "name": "F3",
                    "midi": 53,
                    "time": 586.4000399999973,
                    "velocity": 0.33070866141732286,
                    "duration": 0.25091999999995096
                },
                {
                    "name": "A#3",
                    "midi": 58,
                    "time": 586.6509599999972,
                    "velocity": 0.3464566929133858,
                    "duration": 0.25091999999995096
                },
                {
                    "name": "F4",
                    "midi": 65,
                    "time": 586.9018799999972,
                    "velocity": 0.3228346456692913,
                    "duration": 0.25091999999995096
                },
                {
                    "name": "F#3",
                    "midi": 54,
                    "time": 587.4037199999971,
                    "velocity": 0.30708661417322836,
                    "duration": 0.25091999999995096
                },
                {
                    "name": "C4",
                    "midi": 60,
                    "time": 587.654639999997,
                    "velocity": 0.33070866141732286,
                    "duration": 0.25091999999995096
                },
                {
                    "name": "D#4",
                    "midi": 63,
                    "time": 587.905559999997,
                    "velocity": 0.30708661417322836,
                    "duration": 0.25091999999995096
                },
                {
                    "name": "G3",
                    "midi": 55,
                    "time": 588.4073999999969,
                    "velocity": 0.30708661417322836,
                    "duration": 0.25091999999995096
                },
                {
                    "name": "A#3",
                    "midi": 58,
                    "time": 588.6583199999968,
                    "velocity": 0.33070866141732286,
                    "duration": 0.25091999999995096
                },
                {
                    "name": "D#4",
                    "midi": 63,
                    "time": 588.9092399999968,
                    "velocity": 0.30708661417322836,
                    "duration": 0.25091999999995096
                },
                {
                    "name": "G#3",
                    "midi": 56,
                    "time": 589.4110799999967,
                    "velocity": 0.25196850393700787,
                    "duration": 0.25091999999995096
                },
                {
                    "name": "C4",
                    "midi": 60,
                    "time": 589.6619999999966,
                    "velocity": 0.29133858267716534,
                    "duration": 0.25091999999995096
                },
                {
                    "name": "D#4",
                    "midi": 63,
                    "time": 589.9129199999966,
                    "velocity": 0.25196850393700787,
                    "duration": 0.25091999999995096
                },
                {
                    "name": "A#3",
                    "midi": 58,
                    "time": 590.4147599999965,
                    "velocity": 0.25984251968503935,
                    "duration": 0.25091999999995096
                },
                {
                    "name": "D#4",
                    "midi": 63,
                    "time": 590.6656799999964,
                    "velocity": 0.29133858267716534,
                    "duration": 0.25091999999995096
                },
                {
                    "name": "G4",
                    "midi": 67,
                    "time": 590.9165999999964,
                    "velocity": 0.2677165354330709,
                    "duration": 0.25091999999995096
                },
                {
                    "name": "B3",
                    "midi": 59,
                    "time": 591.1675199999963,
                    "velocity": 0.3464566929133858,
                    "duration": 1.0036799999998038
                },
                {
                    "name": "F4",
                    "midi": 65,
                    "time": 591.4184399999963,
                    "velocity": 0.2677165354330709,
                    "duration": 0.25091999999995096
                },
                {
                    "name": "G#4",
                    "midi": 68,
                    "time": 591.6693599999962,
                    "velocity": 0.2677165354330709,
                    "duration": 0.25091999999995096
                },
                {
                    "name": "B4",
                    "midi": 71,
                    "time": 591.9202799999962,
                    "velocity": 0.2677165354330709,
                    "duration": 0.25091999999995096
                },
                {
                    "name": "C4",
                    "midi": 60,
                    "time": 592.1711999999961,
                    "velocity": 0.3464566929133858,
                    "duration": 1.0036799999998038
                },
                {
                    "name": "D#4",
                    "midi": 63,
                    "time": 592.4221199999961,
                    "velocity": 0.23622047244094488,
                    "duration": 0.25091999999995096
                },
                {
                    "name": "G#4",
                    "midi": 68,
                    "time": 592.673039999996,
                    "velocity": 0.2677165354330709,
                    "duration": 0.25091999999995096
                },
                {
                    "name": "C5",
                    "midi": 72,
                    "time": 592.923959999996,
                    "velocity": 0.2283464566929134,
                    "duration": 0.25091999999995096
                },
                {
                    "name": "D4",
                    "midi": 62,
                    "time": 593.1748799999959,
                    "velocity": 0.25196850393700787,
                    "duration": 1.0036799999998038
                },
                {
                    "name": "F#4",
                    "midi": 66,
                    "time": 593.4257999999959,
                    "velocity": 0.2047244094488189,
                    "duration": 0.25091999999995096
                },
                {
                    "name": "A4",
                    "midi": 69,
                    "time": 593.6767199999958,
                    "velocity": 0.2283464566929134,
                    "duration": 0.25091999999995096
                },
                {
                    "name": "D5",
                    "midi": 74,
                    "time": 593.9276399999958,
                    "velocity": 0.2047244094488189,
                    "duration": 0.25091999999995096
                },
                {
                    "name": "G4",
                    "midi": 67,
                    "time": 594.1785599999957,
                    "velocity": 0.2204724409448819,
                    "duration": 0.25091999999995096
                },
                {
                    "name": "G3",
                    "midi": 55,
                    "time": 594.4294799999957,
                    "velocity": 0.15748031496062992,
                    "duration": 0.25091999999995096
                },
                {
                    "name": "G4",
                    "midi": 67,
                    "time": 594.6803999999956,
                    "velocity": 0.15748031496062992,
                    "duration": 0.25091999999995096
                },
                {
                    "name": "G3",
                    "midi": 55,
                    "time": 594.9313199999956,
                    "velocity": 0.15748031496062992,
                    "duration": 0.25091999999995096
                },
                {
                    "name": "F4",
                    "midi": 65,
                    "time": 595.1822399999955,
                    "velocity": 0.2204724409448819,
                    "duration": 0.25091999999995096
                },
                {
                    "name": "D4",
                    "midi": 62,
                    "time": 595.1822399999955,
                    "velocity": 0.1889763779527559,
                    "duration": 0.25091999999995096
                },
                {
                    "name": "G3",
                    "midi": 55,
                    "time": 595.4331599999955,
                    "velocity": 0.16535433070866143,
                    "duration": 0.25091999999995096
                },
                {
                    "name": "G4",
                    "midi": 67,
                    "time": 595.6840799999954,
                    "velocity": 0.16535433070866143,
                    "duration": 0.25091999999995096
                },
                {
                    "name": "D#4",
                    "midi": 63,
                    "time": 595.6840799999954,
                    "velocity": 0.14173228346456693,
                    "duration": 0.25091999999995096
                },
                {
                    "name": "G3",
                    "midi": 55,
                    "time": 595.9349999999954,
                    "velocity": 0.16535433070866143,
                    "duration": 0.25091999999995096
                },
                {
                    "name": "G#4",
                    "midi": 68,
                    "time": 596.1859199999953,
                    "velocity": 0.2204724409448819,
                    "duration": 0.25091999999995096
                },
                {
                    "name": "F4",
                    "midi": 65,
                    "time": 596.1859199999953,
                    "velocity": 0.1889763779527559,
                    "duration": 0.25091999999995096
                },
                {
                    "name": "G3",
                    "midi": 55,
                    "time": 596.4368399999953,
                    "velocity": 0.15748031496062992,
                    "duration": 0.25091999999995096
                },
                {
                    "name": "F4",
                    "midi": 65,
                    "time": 596.6877599999953,
                    "velocity": 0.15748031496062992,
                    "duration": 0.25091999999995096
                },
                {
                    "name": "D4",
                    "midi": 62,
                    "time": 596.6877599999953,
                    "velocity": 0.13385826771653545,
                    "duration": 0.25091999999995096
                },
                {
                    "name": "G3",
                    "midi": 55,
                    "time": 596.9386799999952,
                    "velocity": 0.15748031496062992,
                    "duration": 0.25091999999995096
                },
                {
                    "name": "B3",
                    "midi": 59,
                    "time": 597.1895999999952,
                    "velocity": 0.18110236220472442,
                    "duration": 0.25091999999995096
                },
                {
                    "name": "D4",
                    "midi": 62,
                    "time": 597.1895999999952,
                    "velocity": 0.2125984251968504,
                    "duration": 0.25091999999995096
                },
                {
                    "name": "G3",
                    "midi": 55,
                    "time": 597.4405199999951,
                    "velocity": 0.16535433070866143,
                    "duration": 0.25091999999995096
                },
                {
                    "name": "D#4",
                    "midi": 63,
                    "time": 597.691439999995,
                    "velocity": 0.16535433070866143,
                    "duration": 0.25091999999995096
                },
                {
                    "name": "C4",
                    "midi": 60,
                    "time": 597.691439999995,
                    "velocity": 0.14173228346456693,
                    "duration": 0.25091999999995096
                },
                {
                    "name": "G3",
                    "midi": 55,
                    "time": 597.942359999995,
                    "velocity": 0.16535433070866143,
                    "duration": 0.25091999999995096
                },
                {
                    "name": "D4",
                    "midi": 62,
                    "time": 598.193279999995,
                    "velocity": 0.1889763779527559,
                    "duration": 0.25091999999995096
                },
                {
                    "name": "F4",
                    "midi": 65,
                    "time": 598.193279999995,
                    "velocity": 0.2204724409448819,
                    "duration": 0.25091999999995096
                },
                {
                    "name": "G3",
                    "midi": 55,
                    "time": 598.4441999999949,
                    "velocity": 0.15748031496062992,
                    "duration": 0.25091999999995096
                },
                {
                    "name": "C4",
                    "midi": 60,
                    "time": 598.6951199999949,
                    "velocity": 0.1889763779527559,
                    "duration": 0.25091999999995096
                },
                {
                    "name": "D#4",
                    "midi": 63,
                    "time": 598.6951199999949,
                    "velocity": 0.15748031496062992,
                    "duration": 0.25091999999995096
                },
                {
                    "name": "G3",
                    "midi": 55,
                    "time": 598.9460399999948,
                    "velocity": 0.15748031496062992,
                    "duration": 0.25091999999995096
                },
                {
                    "name": "D4",
                    "midi": 62,
                    "time": 599.1969599999948,
                    "velocity": 0.2204724409448819,
                    "duration": 0.25091999999995096
                },
                {
                    "name": "A#3",
                    "midi": 58,
                    "time": 599.1969599999948,
                    "velocity": 0.1889763779527559,
                    "duration": 0.25091999999995096
                },
                {
                    "name": "G3",
                    "midi": 55,
                    "time": 599.4478799999947,
                    "velocity": 0.16535433070866143,
                    "duration": 0.25091999999995096
                },
                {
                    "name": "C4",
                    "midi": 60,
                    "time": 599.6987999999947,
                    "velocity": 0.16535433070866143,
                    "duration": 0.25091999999995096
                },
                {
                    "name": "G#3",
                    "midi": 56,
                    "time": 599.6987999999947,
                    "velocity": 0.14173228346456693,
                    "duration": 0.25091999999995096
                },
                {
                    "name": "G3",
                    "midi": 55,
                    "time": 599.9497199999946,
                    "velocity": 0.16535433070866143,
                    "duration": 0.25091999999995096
                },
                {
                    "name": "B3",
                    "midi": 59,
                    "time": 600.2006399999946,
                    "velocity": 0.2204724409448819,
                    "duration": 0.25091999999995096
                },
                {
                    "name": "G3",
                    "midi": 55,
                    "time": 600.4515599999945,
                    "velocity": 0.15748031496062992,
                    "duration": 0.25091999999995096
                },
                {
                    "name": "C4",
                    "midi": 60,
                    "time": 600.7024799999945,
                    "velocity": 0.15748031496062992,
                    "duration": 0.25091999999995096
                },
                {
                    "name": "A3",
                    "midi": 57,
                    "time": 600.7024799999945,
                    "velocity": 0.13385826771653545,
                    "duration": 0.25091999999995096
                },
                {
                    "name": "G3",
                    "midi": 55,
                    "time": 600.9533999999944,
                    "velocity": 0.15748031496062992,
                    "duration": 0.25091999999995096
                },
                {
                    "name": "B3",
                    "midi": 59,
                    "time": 601.2043199999944,
                    "velocity": 0.18110236220472442,
                    "duration": 0.25091999999995096
                },
                {
                    "name": "D4",
                    "midi": 62,
                    "time": 601.2043199999944,
                    "velocity": 0.2125984251968504,
                    "duration": 0.25091999999995096
                },
                {
                    "name": "G3",
                    "midi": 55,
                    "time": 601.4552399999943,
                    "velocity": 0.16535433070866143,
                    "duration": 0.25091999999995096
                },
                {
                    "name": "B3",
                    "midi": 59,
                    "time": 601.7061599999943,
                    "velocity": 0.16535433070866143,
                    "duration": 0.25091999999995096
                },
                {
                    "name": "G3",
                    "midi": 55,
                    "time": 601.9570799999942,
                    "velocity": 0.16535433070866143,
                    "duration": 0.25091999999995096
                },
                {
                    "name": "D#4",
                    "midi": 63,
                    "time": 602.2079999999942,
                    "velocity": 0.1889763779527559,
                    "duration": 0.25091999999995096
                },
                {
                    "name": "G4",
                    "midi": 67,
                    "time": 602.2079999999942,
                    "velocity": 0.2204724409448819,
                    "duration": 0.25091999999995096
                },
                {
                    "name": "G3",
                    "midi": 55,
                    "time": 602.4589199999941,
                    "velocity": 0.15748031496062992,
                    "duration": 0.25091999999995096
                },
                {
                    "name": "D#4",
                    "midi": 63,
                    "time": 602.7098399999941,
                    "velocity": 0.1889763779527559,
                    "duration": 0.25091999999995096
                },
                {
                    "name": "G4",
                    "midi": 67,
                    "time": 602.7098399999941,
                    "velocity": 0.15748031496062992,
                    "duration": 0.25091999999995096
                },
                {
                    "name": "G3",
                    "midi": 55,
                    "time": 602.960759999994,
                    "velocity": 0.15748031496062992,
                    "duration": 0.25091999999995096
                },
                {
                    "name": "F4",
                    "midi": 65,
                    "time": 603.211679999994,
                    "velocity": 0.2204724409448819,
                    "duration": 0.25091999999995096
                },
                {
                    "name": "D4",
                    "midi": 62,
                    "time": 603.211679999994,
                    "velocity": 0.1889763779527559,
                    "duration": 0.25091999999995096
                },
                {
                    "name": "G3",
                    "midi": 55,
                    "time": 603.4625999999939,
                    "velocity": 0.16535433070866143,
                    "duration": 0.25091999999995096
                },
                {
                    "name": "G4",
                    "midi": 67,
                    "time": 603.7135199999939,
                    "velocity": 0.1732283464566929,
                    "duration": 0.25091999999995096
                },
                {
                    "name": "D#4",
                    "midi": 63,
                    "time": 603.7135199999939,
                    "velocity": 0.14173228346456693,
                    "duration": 0.25091999999995096
                },
                {
                    "name": "G3",
                    "midi": 55,
                    "time": 603.9644399999938,
                    "velocity": 0.1732283464566929,
                    "duration": 0.25091999999995096
                },
                {
                    "name": "A#4",
                    "midi": 70,
                    "time": 604.2153599999938,
                    "velocity": 0.2440944881889764,
                    "duration": 0.25091999999995096
                },
                {
                    "name": "G4",
                    "midi": 67,
                    "time": 604.2153599999938,
                    "velocity": 0.2047244094488189,
                    "duration": 0.25091999999995096
                },
                {
                    "name": "G3",
                    "midi": 55,
                    "time": 604.4662799999937,
                    "velocity": 0.1732283464566929,
                    "duration": 0.25091999999995096
                },
                {
                    "name": "G#4",
                    "midi": 68,
                    "time": 604.7171999999937,
                    "velocity": 0.1732283464566929,
                    "duration": 0.25091999999995096
                },
                {
                    "name": "F4",
                    "midi": 65,
                    "time": 604.7171999999937,
                    "velocity": 0.14173228346456693,
                    "duration": 0.25091999999995096
                },
                {
                    "name": "G3",
                    "midi": 55,
                    "time": 604.9681199999936,
                    "velocity": 0.1732283464566929,
                    "duration": 0.25091999999995096
                },
                {
                    "name": "D4",
                    "midi": 62,
                    "time": 605.2190399999936,
                    "velocity": 0.1968503937007874,
                    "duration": 0.25091999999995096
                },
                {
                    "name": "F4",
                    "midi": 65,
                    "time": 605.2190399999936,
                    "velocity": 0.23622047244094488,
                    "duration": 0.25091999999995096
                },
                {
                    "name": "G3",
                    "midi": 55,
                    "time": 605.4699599999935,
                    "velocity": 0.18110236220472442,
                    "duration": 0.25091999999995096
                },
                {
                    "name": "G#4",
                    "midi": 68,
                    "time": 605.7208799999935,
                    "velocity": 0.18110236220472442,
                    "duration": 0.25091999999995096
                },
                {
                    "name": "F4",
                    "midi": 65,
                    "time": 605.7208799999935,
                    "velocity": 0.14960629921259844,
                    "duration": 0.25091999999995096
                },
                {
                    "name": "G3",
                    "midi": 55,
                    "time": 605.9717999999934,
                    "velocity": 0.18110236220472442,
                    "duration": 0.25091999999995096
                },
                {
                    "name": "D#4",
                    "midi": 63,
                    "time": 606.2227199999934,
                    "velocity": 0.2047244094488189,
                    "duration": 0.25091999999995096
                },
                {
                    "name": "G4",
                    "midi": 67,
                    "time": 606.2227199999934,
                    "velocity": 0.2440944881889764,
                    "duration": 0.25091999999995096
                },
                {
                    "name": "G3",
                    "midi": 55,
                    "time": 606.4736399999933,
                    "velocity": 0.1732283464566929,
                    "duration": 0.25091999999995096
                },
                {
                    "name": "C4",
                    "midi": 60,
                    "time": 606.7245599999933,
                    "velocity": 0.2047244094488189,
                    "duration": 0.25091999999995096
                },
                {
                    "name": "D#4",
                    "midi": 63,
                    "time": 606.7245599999933,
                    "velocity": 0.16535433070866143,
                    "duration": 0.25091999999995096
                },
                {
                    "name": "G3",
                    "midi": 55,
                    "time": 606.9754799999932,
                    "velocity": 0.16535433070866143,
                    "duration": 0.25091999999995096
                },
                {
                    "name": "F4",
                    "midi": 65,
                    "time": 607.2263999999932,
                    "velocity": 0.2283464566929134,
                    "duration": 0.25091999999995096
                },
                {
                    "name": "D4",
                    "midi": 62,
                    "time": 607.2263999999932,
                    "velocity": 0.1968503937007874,
                    "duration": 0.25091999999995096
                },
                {
                    "name": "G3",
                    "midi": 55,
                    "time": 607.4773199999931,
                    "velocity": 0.16535433070866143,
                    "duration": 0.25091999999995096
                },
                {
                    "name": "D4",
                    "midi": 62,
                    "time": 607.7282399999931,
                    "velocity": 0.16535433070866143,
                    "duration": 0.25091999999995096
                },
                {
                    "name": "B3",
                    "midi": 59,
                    "time": 607.7282399999931,
                    "velocity": 0.14173228346456693,
                    "duration": 0.25091999999995096
                },
                {
                    "name": "G3",
                    "midi": 55,
                    "time": 607.979159999993,
                    "velocity": 0.16535433070866143,
                    "duration": 0.25091999999995096
                },
                {
                    "name": "C4",
                    "midi": 60,
                    "time": 608.230079999993,
                    "velocity": 0.1889763779527559,
                    "duration": 0.25091999999995096
                },
                {
                    "name": "D#4",
                    "midi": 63,
                    "time": 608.230079999993,
                    "velocity": 0.2204724409448819,
                    "duration": 0.25091999999995096
                },
                {
                    "name": "G3",
                    "midi": 55,
                    "time": 608.480999999993,
                    "velocity": 0.15748031496062992,
                    "duration": 0.25091999999995096
                },
                {
                    "name": "C4",
                    "midi": 60,
                    "time": 608.7319199999929,
                    "velocity": 0.15748031496062992,
                    "duration": 0.25091999999995096
                },
                {
                    "name": "A3",
                    "midi": 57,
                    "time": 608.7319199999929,
                    "velocity": 0.13385826771653545,
                    "duration": 0.25091999999995096
                },
                {
                    "name": "G3",
                    "midi": 55,
                    "time": 608.9828399999928,
                    "velocity": 0.15748031496062992,
                    "duration": 0.25091999999995096
                },
                {
                    "name": "B3",
                    "midi": 59,
                    "time": 609.2337599999928,
                    "velocity": 0.18110236220472442,
                    "duration": 0.25091999999995096
                },
                {
                    "name": "D4",
                    "midi": 62,
                    "time": 609.2337599999928,
                    "velocity": 0.2125984251968504,
                    "duration": 0.25091999999995096
                },
                {
                    "name": "G3",
                    "midi": 55,
                    "time": 609.4846799999927,
                    "velocity": 0.16535433070866143,
                    "duration": 0.25091999999995096
                },
                {
                    "name": "B3",
                    "midi": 59,
                    "time": 609.7355999999927,
                    "velocity": 0.16535433070866143,
                    "duration": 0.25091999999995096
                },
                {
                    "name": "G3",
                    "midi": 55,
                    "time": 609.9865199999927,
                    "velocity": 0.16535433070866143,
                    "duration": 0.25091999999995096
                },
                {
                    "name": "D#4",
                    "midi": 63,
                    "time": 610.2374399999926,
                    "velocity": 0.2283464566929134,
                    "duration": 0.25091999999995096
                },
                {
                    "name": "C4",
                    "midi": 60,
                    "time": 610.4883599999926,
                    "velocity": 0.16535433070866143,
                    "duration": 0.25091999999995096
                },
                {
                    "name": "G3",
                    "midi": 55,
                    "time": 610.7392799999925,
                    "velocity": 0.1889763779527559,
                    "duration": 0.25091999999995096
                },
                {
                    "name": "D#3",
                    "midi": 51,
                    "time": 610.9901999999925,
                    "velocity": 0.16535433070866143,
                    "duration": 0.25091999999995096
                },
                {
                    "name": "D#4",
                    "midi": 63,
                    "time": 611.2411199999924,
                    "velocity": 0.2283464566929134,
                    "duration": 0.25091999999995096
                },
                {
                    "name": "C4",
                    "midi": 60,
                    "time": 611.4920399999924,
                    "velocity": 0.1732283464566929,
                    "duration": 0.25091999999995096
                },
                {
                    "name": "G3",
                    "midi": 55,
                    "time": 611.7429599999923,
                    "velocity": 0.1889763779527559,
                    "duration": 0.25091999999995096
                },
                {
                    "name": "D#3",
                    "midi": 51,
                    "time": 611.9938799999923,
                    "velocity": 0.15748031496062992,
                    "duration": 0.25091999999995096
                },
                {
                    "name": "F4",
                    "midi": 65,
                    "time": 612.2447999999922,
                    "velocity": 0.2283464566929134,
                    "duration": 0.25091999999995096
                },
                {
                    "name": "C4",
                    "midi": 60,
                    "time": 612.4957199999922,
                    "velocity": 0.15748031496062992,
                    "duration": 0.25091999999995096
                },
                {
                    "name": "G#3",
                    "midi": 56,
                    "time": 612.7466399999921,
                    "velocity": 0.1889763779527559,
                    "duration": 0.25091999999995096
                },
                {
                    "name": "F3",
                    "midi": 53,
                    "time": 612.9975599999921,
                    "velocity": 0.16535433070866143,
                    "duration": 0.25091999999995096
                },
                {
                    "name": "F4",
                    "midi": 65,
                    "time": 613.248479999992,
                    "velocity": 0.2283464566929134,
                    "duration": 0.25091999999995096
                },
                {
                    "name": "C4",
                    "midi": 60,
                    "time": 613.499399999992,
                    "velocity": 0.1889763779527559,
                    "duration": 0.25091999999995096
                },
                {
                    "name": "G#3",
                    "midi": 56,
                    "time": 613.7503199999919,
                    "velocity": 0.1889763779527559,
                    "duration": 0.25091999999995096
                },
                {
                    "name": "F3",
                    "midi": 53,
                    "time": 613.9866029999919,
                    "velocity": 0.18110236220472442,
                    "duration": 0.25091999999995096
                },
                {
                    "name": "F4",
                    "midi": 65,
                    "time": 614.2521599999918,
                    "velocity": 0.2283464566929134,
                    "duration": 0.25091999999995096
                },
                {
                    "name": "D4",
                    "midi": 62,
                    "time": 614.5030799999918,
                    "velocity": 0.16535433070866143,
                    "duration": 0.25091999999995096
                },
                {
                    "name": "C4",
                    "midi": 60,
                    "time": 614.7539999999917,
                    "velocity": 0.1889763779527559,
                    "duration": 0.25091999999995096
                },
                {
                    "name": "G3",
                    "midi": 55,
                    "time": 615.0049199999917,
                    "velocity": 0.1732283464566929,
                    "duration": 0.25091999999995096
                },
                {
                    "name": "F4",
                    "midi": 65,
                    "time": 615.2558399999916,
                    "velocity": 0.23622047244094488,
                    "duration": 0.25091999999995096
                },
                {
                    "name": "D4",
                    "midi": 62,
                    "time": 615.5067599999916,
                    "velocity": 0.1732283464566929,
                    "duration": 0.25091999999995096
                },
                {
                    "name": "B3",
                    "midi": 59,
                    "time": 615.7576799999915,
                    "velocity": 0.1968503937007874,
                    "duration": 0.25091999999995096
                },
                {
                    "name": "G3",
                    "midi": 55,
                    "time": 616.0085999999915,
                    "velocity": 0.1968503937007874,
                    "duration": 0.25091999999995096
                },
                {
                    "name": "C5",
                    "midi": 72,
                    "time": 616.2595199999914,
                    "velocity": 0.23622047244094488,
                    "duration": 0.25091999999995096
                },
                {
                    "name": "G4",
                    "midi": 67,
                    "time": 616.5104399999914,
                    "velocity": 0.18110236220472442,
                    "duration": 0.25091999999995096
                },
                {
                    "name": "F4",
                    "midi": 65,
                    "time": 616.7613599999913,
                    "velocity": 0.1968503937007874,
                    "duration": 0.25091999999995096
                },
                {
                    "name": "C4",
                    "midi": 60,
                    "time": 617.0122799999913,
                    "velocity": 0.1732283464566929,
                    "duration": 0.25091999999995096
                },
                {
                    "name": "C5",
                    "midi": 72,
                    "time": 617.2631999999912,
                    "velocity": 0.2440944881889764,
                    "duration": 0.25091999999995096
                },
                {
                    "name": "G4",
                    "midi": 67,
                    "time": 617.5141199999912,
                    "velocity": 0.1968503937007874,
                    "duration": 0.25091999999995096
                },
                {
                    "name": "D#4",
                    "midi": 63,
                    "time": 617.7650399999911,
                    "velocity": 0.2283464566929134,
                    "duration": 0.25091999999995096
                },
                {
                    "name": "C4",
                    "midi": 60,
                    "time": 618.0159599999911,
                    "velocity": 0.2047244094488189,
                    "duration": 0.25091999999995096
                },
                {
                    "name": "F2",
                    "midi": 41,
                    "time": 618.266879999991,
                    "velocity": 0.33858267716535434,
                    "duration": 0.25091999999995096
                },
                {
                    "name": "F3",
                    "midi": 53,
                    "time": 618.517799999991,
                    "velocity": 0.2992125984251969,
                    "duration": 0.25091999999995096
                },
                {
                    "name": "G#3",
                    "midi": 56,
                    "time": 618.7687199999909,
                    "velocity": 0.33070866141732286,
                    "duration": 2.5091999999998507
                },
                {
                    "name": "C4",
                    "midi": 60,
                    "time": 619.0196399999909,
                    "velocity": 0.3700787401574803,
                    "duration": 2.2582799999998997
                },
                {
                    "name": "F4",
                    "midi": 65,
                    "time": 619.2705599999908,
                    "velocity": 0.4015748031496063,
                    "duration": 2.0073599999999487
                },
                {
                    "name": "F2",
                    "midi": 41,
                    "time": 622.2815999999908,
                    "velocity": 0.33858267716535434,
                    "duration": 0.25091999999995096
                },
                {
                    "name": "F3",
                    "midi": 53,
                    "time": 622.5325199999908,
                    "velocity": 0.2992125984251969,
                    "duration": 0.25091999999995096
                },
                {
                    "name": "G#3",
                    "midi": 56,
                    "time": 622.7834399999907,
                    "velocity": 0.33070866141732286,
                    "duration": 2.0073599999999487
                },
                {
                    "name": "B3",
                    "midi": 59,
                    "time": 623.0343599999907,
                    "velocity": 0.3700787401574803,
                    "duration": 1.7564399999999978
                },
                {
                    "name": "D4",
                    "midi": 62,
                    "time": 623.2852799999906,
                    "velocity": 0.4015748031496063,
                    "duration": 1.5055200000000468
                },
                {
                    "name": "C#4",
                    "midi": 61,
                    "time": 625.2926399999907,
                    "velocity": 0.33858267716535434,
                    "duration": 0.7527599999999666
                },
                {
                    "name": "G#4",
                    "midi": 68,
                    "time": 625.2926399999907,
                    "velocity": 0.4015748031496063,
                    "duration": 0.7527599999999666
                },
                {
                    "name": "B4",
                    "midi": 71,
                    "time": 625.2926399999907,
                    "velocity": 0.47244094488188976,
                    "duration": 0.7527599999999666
                },
                {
                    "name": "A#2",
                    "midi": 46,
                    "time": 627.2999999999906,
                    "velocity": 0.3543307086614173,
                    "duration": 0.1380060000000185
                },
                {
                    "name": "B2",
                    "midi": 47,
                    "time": 627.4254599999906,
                    "velocity": 0.29133858267716534,
                    "duration": 0.1380060000001322
                },
                {
                    "name": "A#2",
                    "midi": 46,
                    "time": 627.5509199999907,
                    "velocity": 0.29133858267716534,
                    "duration": 0.1380060000001322
                },
                {
                    "name": "A2",
                    "midi": 45,
                    "time": 627.6763799999908,
                    "velocity": 0.29133858267716534,
                    "duration": 0.1380060000001322
                },
                {
                    "name": "A#2",
                    "midi": 46,
                    "time": 627.8018399999909,
                    "velocity": 0.3543307086614173,
                    "duration": 0.1380060000001322
                },
                {
                    "name": "C#3",
                    "midi": 49,
                    "time": 627.927299999991,
                    "velocity": 0.33070866141732286,
                    "duration": 0.1380060000001322
                },
                {
                    "name": "F#3",
                    "midi": 54,
                    "time": 628.052759999991,
                    "velocity": 0.3543307086614173,
                    "duration": 0.1380060000001322
                },
                {
                    "name": "A#3",
                    "midi": 58,
                    "time": 628.1782199999911,
                    "velocity": 0.3779527559055118,
                    "duration": 0.1380060000001322
                },
                {
                    "name": "B3",
                    "midi": 59,
                    "time": 628.3036799999912,
                    "velocity": 0.4094488188976378,
                    "duration": 0.7527600000000803
                },
                {
                    "name": "C#4",
                    "midi": 61,
                    "time": 628.3036799999912,
                    "velocity": 0.4094488188976378,
                    "duration": 0.7527600000000803
                },
                {
                    "name": "A#3",
                    "midi": 58,
                    "time": 629.3073599999913,
                    "velocity": 0.3543307086614173,
                    "duration": 0.1380060000000185
                },
                {
                    "name": "B3",
                    "midi": 59,
                    "time": 629.4328199999912,
                    "velocity": 0.29133858267716534,
                    "duration": 0.1380060000001322
                },
                {
                    "name": "A#3",
                    "midi": 58,
                    "time": 629.5582799999913,
                    "velocity": 0.29133858267716534,
                    "duration": 0.1380060000001322
                },
                {
                    "name": "A3",
                    "midi": 57,
                    "time": 629.6837399999914,
                    "velocity": 0.29133858267716534,
                    "duration": 0.1380060000001322
                },
                {
                    "name": "A#3",
                    "midi": 58,
                    "time": 629.8091999999915,
                    "velocity": 0.3543307086614173,
                    "duration": 0.1380060000001322
                },
                {
                    "name": "C#4",
                    "midi": 61,
                    "time": 629.9346599999916,
                    "velocity": 0.33070866141732286,
                    "duration": 0.1380060000001322
                },
                {
                    "name": "F#4",
                    "midi": 66,
                    "time": 630.0601199999917,
                    "velocity": 0.3543307086614173,
                    "duration": 0.1380060000001322
                },
                {
                    "name": "A#4",
                    "midi": 70,
                    "time": 630.1855799999918,
                    "velocity": 0.3779527559055118,
                    "duration": 0.1380060000001322
                },
                {
                    "name": "B4",
                    "midi": 71,
                    "time": 630.3110399999919,
                    "velocity": 0.4645669291338583,
                    "duration": 0.7527600000000803
                },
                {
                    "name": "C#5",
                    "midi": 73,
                    "time": 630.3110399999919,
                    "velocity": 0.4645669291338583,
                    "duration": 0.7527600000000803
                },
                {
                    "name": "B5",
                    "midi": 83,
                    "time": 631.3147199999919,
                    "velocity": 0.4015748031496063,
                    "duration": 0.1380060000000185
                },
                {
                    "name": "G#5",
                    "midi": 80,
                    "time": 631.4401799999919,
                    "velocity": 0.33070866141732286,
                    "duration": 0.1380060000001322
                },
                {
                    "name": "F5",
                    "midi": 77,
                    "time": 631.565639999992,
                    "velocity": 0.33070866141732286,
                    "duration": 0.1380060000001322
                },
                {
                    "name": "C#5",
                    "midi": 73,
                    "time": 631.691099999992,
                    "velocity": 0.33070866141732286,
                    "duration": 0.1380060000001322
                },
                {
                    "name": "B4",
                    "midi": 71,
                    "time": 631.8165599999921,
                    "velocity": 0.4015748031496063,
                    "duration": 0.1380060000001322
                },
                {
                    "name": "G#4",
                    "midi": 68,
                    "time": 631.9420199999922,
                    "velocity": 0.3779527559055118,
                    "duration": 0.1380060000001322
                },
                {
                    "name": "F4",
                    "midi": 65,
                    "time": 632.0674799999923,
                    "velocity": 0.4015748031496063,
                    "duration": 0.1380060000001322
                },
                {
                    "name": "B3",
                    "midi": 59,
                    "time": 632.1929399999924,
                    "velocity": 0.4330708661417323,
                    "duration": 0.1380060000001322
                },
                {
                    "name": "C4",
                    "midi": 60,
                    "time": 632.3183999999925,
                    "velocity": 0.4330708661417323,
                    "duration": 7.025760000000105
                },
                {
                    "name": "G#3",
                    "midi": 56,
                    "time": 633.3220799999925,
                    "velocity": 0.36220472440944884,
                    "duration": 1.0036800000000312
                },
                {
                    "name": "F4",
                    "midi": 65,
                    "time": 633.3220799999925,
                    "velocity": 0.4330708661417323,
                    "duration": 1.0036800000000312
                },
                {
                    "name": "G3",
                    "midi": 55,
                    "time": 634.3257599999926,
                    "velocity": 0.3937007874015748,
                    "duration": 1.0036800000000312
                },
                {
                    "name": "G4",
                    "midi": 67,
                    "time": 634.3257599999926,
                    "velocity": 0.4645669291338583,
                    "duration": 1.0036800000000312
                },
                {
                    "name": "F3",
                    "midi": 53,
                    "time": 635.3294399999926,
                    "velocity": 0.4094488188976378,
                    "duration": 2.0073599999999487
                },
                {
                    "name": "G#4",
                    "midi": 68,
                    "time": 635.3294399999926,
                    "velocity": 0.4881889763779528,
                    "duration": 2.0073599999999487
                },
                {
                    "name": "G#3",
                    "midi": 56,
                    "time": 637.3367999999925,
                    "velocity": 0.3543307086614173,
                    "duration": 1.0036800000000312
                },
                {
                    "name": "F4",
                    "midi": 65,
                    "time": 637.3367999999925,
                    "velocity": 0.4251968503937008,
                    "duration": 1.0036800000000312
                },
                {
                    "name": "G3",
                    "midi": 55,
                    "time": 638.3404799999926,
                    "velocity": 0.31496062992125984,
                    "duration": 1.0036800000000312
                },
                {
                    "name": "D#4",
                    "midi": 63,
                    "time": 638.3404799999926,
                    "velocity": 0.3779527559055118,
                    "duration": 1.0036800000000312
                },
                {
                    "name": "G3",
                    "midi": 55,
                    "time": 640.3478399999926,
                    "velocity": 0.2204724409448819,
                    "duration": 1.0036799999999175
                },
                {
                    "name": "B3",
                    "midi": 59,
                    "time": 640.3478399999926,
                    "velocity": 0.2204724409448819,
                    "duration": 0.9827699999999595
                },
                {
                    "name": "D4",
                    "midi": 62,
                    "time": 640.3478399999926,
                    "velocity": 0.25984251968503935,
                    "duration": 1.0036799999999175
                },
                {
                    "name": "G#4",
                    "midi": 68,
                    "time": 640.8496799999926,
                    "velocity": 0.3464566929133858,
                    "duration": 0.5018399999999019
                },
                {
                    "name": "G4",
                    "midi": 67,
                    "time": 641.3515199999925,
                    "velocity": 0.25984251968503935,
                    "duration": 0.5018400000000156
                },
                {
                    "name": "B3",
                    "midi": 59,
                    "time": 641.8533599999926,
                    "velocity": 0.1889763779527559,
                    "duration": 0.5018400000000156
                },
                {
                    "name": "C3",
                    "midi": 48,
                    "time": 642.3551999999926,
                    "velocity": 0.2125984251968504,
                    "duration": 1.0036800000000312
                },
                {
                    "name": "C4",
                    "midi": 60,
                    "time": 642.3551999999926,
                    "velocity": 0.25196850393700787,
                    "duration": 1.0036800000000312
                },
                {
                    "name": "A#4",
                    "midi": 70,
                    "time": 643.3588799999926,
                    "velocity": 0.25196850393700787,
                    "duration": 0.5018399999999019
                },
                {
                    "name": "G4",
                    "midi": 67,
                    "time": 643.3588799999926,
                    "velocity": 0.1889763779527559,
                    "duration": 0.25091999999995096
                },
                {
                    "name": "C4",
                    "midi": 60,
                    "time": 643.6097999999926,
                    "velocity": 0.16535433070866143,
                    "duration": 0.25091999999995096
                },
                {
                    "name": "C5",
                    "midi": 72,
                    "time": 643.8607199999925,
                    "velocity": 0.1889763779527559,
                    "duration": 0.5018399999999019
                },
                {
                    "name": "G#4",
                    "midi": 68,
                    "time": 643.8607199999925,
                    "velocity": 0.14173228346456693,
                    "duration": 0.25091999999995096
                },
                {
                    "name": "C4",
                    "midi": 60,
                    "time": 644.1116399999925,
                    "velocity": 0.16535433070866143,
                    "duration": 0.25091999999995096
                },
                {
                    "name": "C#5",
                    "midi": 73,
                    "time": 644.3625599999924,
                    "velocity": 0.25196850393700787,
                    "duration": 0.25091999999995096
                },
                {
                    "name": "A#4",
                    "midi": 70,
                    "time": 644.3625599999924,
                    "velocity": 0.1889763779527559,
                    "duration": 0.25091999999995096
                },
                {
                    "name": "C4",
                    "midi": 60,
                    "time": 644.6134799999924,
                    "velocity": 0.15748031496062992,
                    "duration": 0.25091999999995096
                },
                {
                    "name": "A#4",
                    "midi": 70,
                    "time": 644.8643999999923,
                    "velocity": 0.18110236220472442,
                    "duration": 0.25091999999995096
                },
                {
                    "name": "G4",
                    "midi": 67,
                    "time": 644.8643999999923,
                    "velocity": 0.13385826771653545,
                    "duration": 0.25091999999995096
                },
                {
                    "name": "C4",
                    "midi": 60,
                    "time": 645.1153199999923,
                    "velocity": 0.15748031496062992,
                    "duration": 0.25091999999995096
                },
                {
                    "name": "E4",
                    "midi": 64,
                    "time": 645.3662399999922,
                    "velocity": 0.18110236220472442,
                    "duration": 0.25091999999995096
                },
                {
                    "name": "G4",
                    "midi": 67,
                    "time": 645.3662399999922,
                    "velocity": 0.2440944881889764,
                    "duration": 0.25091999999995096
                },
                {
                    "name": "C4",
                    "midi": 60,
                    "time": 645.6171599999922,
                    "velocity": 0.16535433070866143,
                    "duration": 0.25091999999995096
                },
                {
                    "name": "G#4",
                    "midi": 68,
                    "time": 645.8680799999921,
                    "velocity": 0.1889763779527559,
                    "duration": 0.25091999999995096
                },
                {
                    "name": "F4",
                    "midi": 65,
                    "time": 645.8680799999921,
                    "velocity": 0.14173228346456693,
                    "duration": 0.25091999999995096
                },
                {
                    "name": "C4",
                    "midi": 60,
                    "time": 646.1189999999921,
                    "velocity": 0.16535433070866143,
                    "duration": 0.25091999999995096
                },
                {
                    "name": "G4",
                    "midi": 67,
                    "time": 646.369919999992,
                    "velocity": 0.1889763779527559,
                    "duration": 0.25091999999995096
                },
                {
                    "name": "A#4",
                    "midi": 70,
                    "time": 646.369919999992,
                    "velocity": 0.25196850393700787,
                    "duration": 0.25091999999995096
                },
                {
                    "name": "C4",
                    "midi": 60,
                    "time": 646.620839999992,
                    "velocity": 0.15748031496062992,
                    "duration": 0.25091999999995096
                },
                {
                    "name": "F4",
                    "midi": 65,
                    "time": 646.8717599999919,
                    "velocity": 0.1889763779527559,
                    "duration": 0.25091999999995096
                },
                {
                    "name": "G#4",
                    "midi": 68,
                    "time": 646.8717599999919,
                    "velocity": 0.18110236220472442,
                    "duration": 0.25091999999995096
                },
                {
                    "name": "C4",
                    "midi": 60,
                    "time": 647.1226799999919,
                    "velocity": 0.15748031496062992,
                    "duration": 0.25091999999995096
                },
                {
                    "name": "G4",
                    "midi": 67,
                    "time": 647.3735999999918,
                    "velocity": 0.25196850393700787,
                    "duration": 0.25091999999995096
                },
                {
                    "name": "D#4",
                    "midi": 63,
                    "time": 647.3735999999918,
                    "velocity": 0.1889763779527559,
                    "duration": 0.25091999999995096
                },
                {
                    "name": "C4",
                    "midi": 60,
                    "time": 647.6245199999918,
                    "velocity": 0.16535433070866143,
                    "duration": 0.25091999999995096
                },
                {
                    "name": "F4",
                    "midi": 65,
                    "time": 647.8754399999917,
                    "velocity": 0.1889763779527559,
                    "duration": 0.25091999999995096
                },
                {
                    "name": "C#4",
                    "midi": 61,
                    "time": 647.8754399999917,
                    "velocity": 0.14173228346456693,
                    "duration": 0.25091999999995096
                },
                {
                    "name": "C4",
                    "midi": 60,
                    "time": 648.1263599999917,
                    "velocity": 0.16535433070866143,
                    "duration": 0.25091999999995096
                },
                {
                    "name": "E4",
                    "midi": 64,
                    "time": 648.3772799999916,
                    "velocity": 0.25196850393700787,
                    "duration": 0.25091999999995096
                },
                {
                    "name": "C4",
                    "midi": 60,
                    "time": 648.6281999999916,
                    "velocity": 0.18110236220472442,
                    "duration": 0.25091999999995096
                },
                {
                    "name": "D4",
                    "midi": 62,
                    "time": 648.8791199999915,
                    "velocity": 0.14960629921259844,
                    "duration": 0.25091999999995096
                },
                {
                    "name": "F4",
                    "midi": 65,
                    "time": 648.8791199999915,
                    "velocity": 0.18110236220472442,
                    "duration": 0.25091999999995096
                },
                {
                    "name": "C4",
                    "midi": 60,
                    "time": 649.1300399999915,
                    "velocity": 0.18110236220472442,
                    "duration": 0.25091999999995096
                },
                {
                    "name": "E4",
                    "midi": 64,
                    "time": 649.3809599999914,
                    "velocity": 0.2047244094488189,
                    "duration": 0.25091999999995096
                },
                {
                    "name": "G4",
                    "midi": 67,
                    "time": 649.3809599999914,
                    "velocity": 0.2440944881889764,
                    "duration": 0.25091999999995096
                },
                {
                    "name": "C4",
                    "midi": 60,
                    "time": 649.6433804999914,
                    "velocity": 0.1889763779527559,
                    "duration": 0.25091999999995096
                },
                {
                    "name": "C#3",
                    "midi": 49,
                    "time": 650.2591799999914,
                    "velocity": 0.28346456692913385,
                    "duration": 0.12545999999997548
                },
                {
                    "name": "C#4",
                    "midi": 61,
                    "time": 650.3846399999914,
                    "velocity": 0.33070866141732286,
                    "duration": 0.12545999999997548
                },
                {
                    "name": "B3",
                    "midi": 59,
                    "time": 650.8864799999914,
                    "velocity": 0.1889763779527559,
                    "duration": 0.12545999999997548
                },
                {
                    "name": "C#4",
                    "midi": 61,
                    "time": 651.1373999999913,
                    "velocity": 0.2047244094488189,
                    "duration": 0.12545999999997548
                },
                {
                    "name": "D4",
                    "midi": 62,
                    "time": 651.3883199999913,
                    "velocity": 0.2440944881889764,
                    "duration": 0.25091999999995096
                },
                {
                    "name": "B3",
                    "midi": 59,
                    "time": 651.6392399999912,
                    "velocity": 0.2204724409448819,
                    "duration": 0.25091999999995096
                },
                {
                    "name": "G#3",
                    "midi": 56,
                    "time": 651.8901599999912,
                    "velocity": 0.18110236220472442,
                    "duration": 0.12545999999997548
                },
                {
                    "name": "A3",
                    "midi": 57,
                    "time": 652.1410799999911,
                    "velocity": 0.2204724409448819,
                    "duration": 0.12545999999997548
                },
                {
                    "name": "B3",
                    "midi": 59,
                    "time": 652.3919999999911,
                    "velocity": 0.28346456692913385,
                    "duration": 0.25091999999995096
                },
                {
                    "name": "G#3",
                    "midi": 56,
                    "time": 652.642919999991,
                    "velocity": 0.2125984251968504,
                    "duration": 0.25091999999995096
                },
                {
                    "name": "F3",
                    "midi": 53,
                    "time": 652.893839999991,
                    "velocity": 0.28346456692913385,
                    "duration": 0.12545999999997548
                },
                {
                    "name": "F#3",
                    "midi": 54,
                    "time": 653.1447599999909,
                    "velocity": 0.2283464566929134,
                    "duration": 0.12545999999997548
                },
                {
                    "name": "G#3",
                    "midi": 56,
                    "time": 653.3956799999909,
                    "velocity": 0.2755905511811024,
                    "duration": 0.12545999999997548
                },
                {
                    "name": "F3",
                    "midi": 53,
                    "time": 653.6465999999908,
                    "velocity": 0.1889763779527559,
                    "duration": 0.12545999999997548
                },
                {
                    "name": "C#3",
                    "midi": 49,
                    "time": 653.8975199999908,
                    "velocity": 0.2125984251968504,
                    "duration": 0.12545999999997548
                },
                {
                    "name": "F#3",
                    "midi": 54,
                    "time": 654.2738999999907,
                    "velocity": 0.3228346456692913,
                    "duration": 0.12545999999997548
                },
                {
                    "name": "F#4",
                    "midi": 66,
                    "time": 654.3993599999907,
                    "velocity": 0.4251968503937008,
                    "duration": 0.12545999999997548
                },
                {
                    "name": "E4",
                    "midi": 64,
                    "time": 654.9011999999907,
                    "velocity": 0.3228346456692913,
                    "duration": 0.12545999999997548
                },
                {
                    "name": "F#4",
                    "midi": 66,
                    "time": 655.1521199999906,
                    "velocity": 0.3228346456692913,
                    "duration": 0.12545999999997548
                },
                {
                    "name": "G4",
                    "midi": 67,
                    "time": 655.4030399999906,
                    "velocity": 0.3858267716535433,
                    "duration": 0.25091999999995096
                },
                {
                    "name": "E4",
                    "midi": 64,
                    "time": 655.6539599999905,
                    "velocity": 0.33858267716535434,
                    "duration": 0.25091999999995096
                },
                {
                    "name": "C#4",
                    "midi": 61,
                    "time": 655.9048799999905,
                    "velocity": 0.29133858267716534,
                    "duration": 0.12545999999997548
                },
                {
                    "name": "D4",
                    "midi": 62,
                    "time": 656.1557999999904,
                    "velocity": 0.33858267716535434,
                    "duration": 0.12545999999997548
                },
                {
                    "name": "E4",
                    "midi": 64,
                    "time": 656.4067199999904,
                    "velocity": 0.3700787401574803,
                    "duration": 0.25091999999995096
                },
                {
                    "name": "C#4",
                    "midi": 61,
                    "time": 656.6576399999904,
                    "velocity": 0.29133858267716534,
                    "duration": 0.25091999999995096
                },
                {
                    "name": "A#3",
                    "midi": 58,
                    "time": 656.9085599999903,
                    "velocity": 0.3700787401574803,
                    "duration": 0.12545999999997548
                },
                {
                    "name": "B3",
                    "midi": 59,
                    "time": 657.1594799999903,
                    "velocity": 0.29133858267716534,
                    "duration": 0.12545999999997548
                },
                {
                    "name": "C#4",
                    "midi": 61,
                    "time": 657.4103999999902,
                    "velocity": 0.3779527559055118,
                    "duration": 0.12545999999997548
                },
                {
                    "name": "A#3",
                    "midi": 58,
                    "time": 657.6613199999902,
                    "velocity": 0.31496062992125984,
                    "duration": 0.12545999999997548
                },
                {
                    "name": "F#3",
                    "midi": 54,
                    "time": 657.9122399999901,
                    "velocity": 0.3779527559055118,
                    "duration": 0.12545999999997548
                },
                {
                    "name": "B3",
                    "midi": 59,
                    "time": 658.4140799999901,
                    "velocity": 0.6535433070866141,
                    "duration": 1.0036800000000312
                },
                {
                    "name": "B2",
                    "midi": 47,
                    "time": 658.4140799999901,
                    "velocity": 0.5354330708661418,
                    "duration": 1.0036800000000312
                },
                {
                    "name": "A3",
                    "midi": 57,
                    "time": 659.4177599999902,
                    "velocity": 0.5590551181102362,
                    "duration": 0.5018400000000156
                },
                {
                    "name": "A2",
                    "midi": 45,
                    "time": 659.4177599999902,
                    "velocity": 0.47244094488188976,
                    "duration": 0.5018400000000156
                },
                {
                    "name": "B3",
                    "midi": 59,
                    "time": 659.9195999999902,
                    "velocity": 0.5984251968503937,
                    "duration": 0.5018400000000156
                },
                {
                    "name": "B2",
                    "midi": 47,
                    "time": 659.9195999999902,
                    "velocity": 0.5039370078740157,
                    "duration": 0.5018400000000156
                },
                {
                    "name": "C4",
                    "midi": 60,
                    "time": 660.4214399999902,
                    "velocity": 0.6456692913385826,
                    "duration": 0.7527599999999666
                },
                {
                    "name": "C3",
                    "midi": 48,
                    "time": 660.4214399999902,
                    "velocity": 0.5433070866141733,
                    "duration": 0.7527599999999666
                },
                {
                    "name": "A3",
                    "midi": 57,
                    "time": 661.1741999999902,
                    "velocity": 0.5905511811023622,
                    "duration": 0.25091999999995096
                },
                {
                    "name": "A2",
                    "midi": 45,
                    "time": 661.1741999999902,
                    "velocity": 0.49606299212598426,
                    "duration": 0.25091999999995096
                },
                {
                    "name": "F#3",
                    "midi": 54,
                    "time": 661.4251199999901,
                    "velocity": 0.6377952755905512,
                    "duration": 0.5018400000000156
                },
                {
                    "name": "F#2",
                    "midi": 42,
                    "time": 661.4251199999901,
                    "velocity": 0.5433070866141733,
                    "duration": 0.5018400000000156
                },
                {
                    "name": "G3",
                    "midi": 55,
                    "time": 661.9269599999901,
                    "velocity": 0.6141732283464567,
                    "duration": 0.5018400000000156
                },
                {
                    "name": "G2",
                    "midi": 43,
                    "time": 661.9269599999901,
                    "velocity": 0.5196850393700787,
                    "duration": 0.5018400000000156
                },
                {
                    "name": "A2",
                    "midi": 45,
                    "time": 662.4287999999901,
                    "velocity": 0.5511811023622047,
                    "duration": 0.7527599999999666
                },
                {
                    "name": "A3",
                    "midi": 57,
                    "time": 662.4287999999901,
                    "velocity": 0.6535433070866141,
                    "duration": 0.7527599999999666
                },
                {
                    "name": "F#2",
                    "midi": 42,
                    "time": 663.1815599999901,
                    "velocity": 0.5275590551181102,
                    "duration": 0.25091999999995096
                },
                {
                    "name": "F#3",
                    "midi": 54,
                    "time": 663.1815599999901,
                    "velocity": 0.6299212598425197,
                    "duration": 0.25091999999995096
                },
                {
                    "name": "D#2",
                    "midi": 39,
                    "time": 663.43247999999,
                    "velocity": 0.5826771653543307,
                    "duration": 0.5018400000000156
                },
                {
                    "name": "D#3",
                    "midi": 51,
                    "time": 663.43247999999,
                    "velocity": 0.6850393700787402,
                    "duration": 0.5018400000000156
                },
                {
                    "name": "E2",
                    "midi": 40,
                    "time": 663.9343199999901,
                    "velocity": 0.5590551181102362,
                    "duration": 0.5018400000000156
                },
                {
                    "name": "E3",
                    "midi": 52,
                    "time": 663.9343199999901,
                    "velocity": 0.6614173228346457,
                    "duration": 0.5018400000000156
                },
                {
                    "name": "C2",
                    "midi": 36,
                    "time": 664.4361599999901,
                    "velocity": 0.5984251968503937,
                    "duration": 0.5018400000000156
                },
                {
                    "name": "C3",
                    "midi": 48,
                    "time": 664.4361599999901,
                    "velocity": 0.7165354330708661,
                    "duration": 0.5018400000000156
                },
                {
                    "name": "C#2",
                    "midi": 37,
                    "time": 664.9379999999901,
                    "velocity": 0.5511811023622047,
                    "duration": 0.5018400000000156
                },
                {
                    "name": "C#3",
                    "midi": 49,
                    "time": 664.9379999999901,
                    "velocity": 0.6614173228346457,
                    "duration": 0.5018400000000156
                },
                {
                    "name": "A1",
                    "midi": 33,
                    "time": 665.4398399999901,
                    "velocity": 0.6141732283464567,
                    "duration": 0.5018400000000156
                },
                {
                    "name": "A2",
                    "midi": 45,
                    "time": 665.4398399999901,
                    "velocity": 0.7322834645669292,
                    "duration": 0.5018400000000156
                },
                {
                    "name": "G1",
                    "midi": 31,
                    "time": 665.9416799999901,
                    "velocity": 0.6692913385826772,
                    "duration": 0.3763800000000401
                },
                {
                    "name": "G2",
                    "midi": 43,
                    "time": 665.9416799999901,
                    "velocity": 0.7874015748031497,
                    "duration": 0.3763800000000401
                },
                {
                    "name": "F1",
                    "midi": 29,
                    "time": 666.3180599999902,
                    "velocity": 0.49606299212598426,
                    "duration": 0.06272999999998774
                },
                {
                    "name": "F2",
                    "midi": 41,
                    "time": 666.3807899999902,
                    "velocity": 0.49606299212598426,
                    "duration": 0.06272999999998774
                },
                {
                    "name": "F3",
                    "midi": 53,
                    "time": 666.4435199999901,
                    "velocity": 0.41732283464566927,
                    "duration": 1.0036799999999175
                },
                {
                    "name": "A#3",
                    "midi": 58,
                    "time": 666.4435199999901,
                    "velocity": 0.41732283464566927,
                    "duration": 1.0036799999999175
                },
                {
                    "name": "E4",
                    "midi": 64,
                    "time": 666.4435199999901,
                    "velocity": 0.49606299212598426,
                    "duration": 1.0036799999999175
                },
                {
                    "name": "C#4",
                    "midi": 61,
                    "time": 666.4497929999901,
                    "velocity": 0.5354330708661418,
                    "duration": 1.0036799999999175
                },
                {
                    "name": "F3",
                    "midi": 53,
                    "time": 667.4471999999901,
                    "velocity": 0.44881889763779526,
                    "duration": 0.5018400000000156
                },
                {
                    "name": "A3",
                    "midi": 57,
                    "time": 667.4471999999901,
                    "velocity": 0.44881889763779526,
                    "duration": 0.5018400000000156
                },
                {
                    "name": "F4",
                    "midi": 65,
                    "time": 667.4471999999901,
                    "velocity": 0.5354330708661418,
                    "duration": 0.5018400000000156
                },
                {
                    "name": "D4",
                    "midi": 62,
                    "time": 667.4471999999901,
                    "velocity": 0.44881889763779526,
                    "duration": 0.5018400000000156
                },
                {
                    "name": "F1",
                    "midi": 29,
                    "time": 668.19995999999,
                    "velocity": 0.49606299212598426,
                    "duration": 0.12545999999997548
                },
                {
                    "name": "F2",
                    "midi": 41,
                    "time": 668.32541999999,
                    "velocity": 0.49606299212598426,
                    "duration": 0.12545999999997548
                },
                {
                    "name": "F3",
                    "midi": 53,
                    "time": 668.45087999999,
                    "velocity": 0.41732283464566927,
                    "duration": 1.0036799999999175
                },
                {
                    "name": "A#3",
                    "midi": 58,
                    "time": 668.45087999999,
                    "velocity": 0.41732283464566927,
                    "duration": 1.0036799999999175
                },
                {
                    "name": "E4",
                    "midi": 64,
                    "time": 668.45087999999,
                    "velocity": 0.49606299212598426,
                    "duration": 1.0036799999999175
                },
                {
                    "name": "C#4",
                    "midi": 61,
                    "time": 668.45715299999,
                    "velocity": 0.5354330708661418,
                    "duration": 1.0036799999999175
                },
                {
                    "name": "F3",
                    "midi": 53,
                    "time": 669.4545599999899,
                    "velocity": 0.44881889763779526,
                    "duration": 0.5018400000000156
                },
                {
                    "name": "A3",
                    "midi": 57,
                    "time": 669.4545599999899,
                    "velocity": 0.44881889763779526,
                    "duration": 0.5018400000000156
                },
                {
                    "name": "F4",
                    "midi": 65,
                    "time": 669.4545599999899,
                    "velocity": 0.5354330708661418,
                    "duration": 0.5018400000000156
                },
                {
                    "name": "D4",
                    "midi": 62,
                    "time": 669.4545599999899,
                    "velocity": 0.44881889763779526,
                    "duration": 0.5018400000000156
                },
                {
                    "name": "F1",
                    "midi": 29,
                    "time": 670.2073199999899,
                    "velocity": 0.49606299212598426,
                    "duration": 0.12545999999997548
                },
                {
                    "name": "F2",
                    "midi": 41,
                    "time": 670.3327799999898,
                    "velocity": 0.49606299212598426,
                    "duration": 0.12545999999997548
                },
                {
                    "name": "E1",
                    "midi": 28,
                    "time": 670.4582399999898,
                    "velocity": 0.5196850393700787,
                    "duration": 1.0036800000000312
                },
                {
                    "name": "E2",
                    "midi": 40,
                    "time": 670.4582399999898,
                    "velocity": 0.6141732283464567,
                    "duration": 1.0036800000000312
                },
                {
                    "name": "A1",
                    "midi": 33,
                    "time": 671.4619199999898,
                    "velocity": 0.5196850393700787,
                    "duration": 1.0036800000000312
                },
                {
                    "name": "E2",
                    "midi": 40,
                    "time": 671.4619199999898,
                    "velocity": 0.5196850393700787,
                    "duration": 1.0036800000000312
                },
                {
                    "name": "A2",
                    "midi": 45,
                    "time": 671.4619199999898,
                    "velocity": 0.6141732283464567,
                    "duration": 1.0036800000000312
                },
                {
                    "name": "F1",
                    "midi": 29,
                    "time": 672.4655999999899,
                    "velocity": 0.5196850393700787,
                    "duration": 1.0036800000000312
                },
                {
                    "name": "D2",
                    "midi": 38,
                    "time": 672.4655999999899,
                    "velocity": 0.5196850393700787,
                    "duration": 1.0036800000000312
                },
                {
                    "name": "F2",
                    "midi": 41,
                    "time": 672.4655999999899,
                    "velocity": 0.6141732283464567,
                    "duration": 1.0036800000000312
                },
                {
                    "name": "D1",
                    "midi": 26,
                    "time": 673.4692799999899,
                    "velocity": 0.5196850393700787,
                    "duration": 1.0036800000000312
                },
                {
                    "name": "A1",
                    "midi": 33,
                    "time": 673.4692799999899,
                    "velocity": 0.5196850393700787,
                    "duration": 1.0036800000000312
                },
                {
                    "name": "D2",
                    "midi": 38,
                    "time": 673.4692799999899,
                    "velocity": 0.6141732283464567,
                    "duration": 1.0036800000000312
                },
                {
                    "name": "G1",
                    "midi": 31,
                    "time": 674.4729599999899,
                    "velocity": 0.5196850393700787,
                    "duration": 1.0036800000000312
                },
                {
                    "name": "G2",
                    "midi": 43,
                    "time": 674.4729599999899,
                    "velocity": 0.6141732283464567,
                    "duration": 1.0036800000000312
                },
                {
                    "name": "G2",
                    "midi": 43,
                    "time": 675.47663999999,
                    "velocity": 0.5196850393700787,
                    "duration": 0.8782200000000557
                },
                {
                    "name": "E3",
                    "midi": 52,
                    "time": 675.47663999999,
                    "velocity": 0.5196850393700787,
                    "duration": 0.8782200000000557
                },
                {
                    "name": "C4",
                    "midi": 60,
                    "time": 675.47663999999,
                    "velocity": 0.6141732283464567,
                    "duration": 0.8782200000000557
                },
                {
                    "name": "G2",
                    "midi": 43,
                    "time": 676.35485999999,
                    "velocity": 0.47244094488188976,
                    "duration": 1.0036799999999175
                },
                {
                    "name": "D3",
                    "midi": 50,
                    "time": 676.41758999999,
                    "velocity": 0.47244094488188976,
                    "duration": 0.9409499999999298
                },
                {
                    "name": "B3",
                    "midi": 59,
                    "time": 676.48031999999,
                    "velocity": 0.6456692913385826,
                    "duration": 0.5018400000000156
                },
                {
                    "name": "C4",
                    "midi": 60,
                    "time": 676.98215999999,
                    "velocity": 0.6062992125984252,
                    "duration": 0.12545999999997548
                },
                {
                    "name": "D4",
                    "midi": 62,
                    "time": 677.23307999999,
                    "velocity": 0.6377952755905512,
                    "duration": 0.12545999999997548
                },
                {
                    "name": "G2",
                    "midi": 43,
                    "time": 677.35853999999,
                    "velocity": 0.47244094488188976,
                    "duration": 1.0036799999999175
                },
                {
                    "name": "E3",
                    "midi": 52,
                    "time": 677.4212699999899,
                    "velocity": 0.47244094488188976,
                    "duration": 0.9409499999999298
                },
                {
                    "name": "E4",
                    "midi": 64,
                    "time": 677.4839999999899,
                    "velocity": 0.6456692913385826,
                    "duration": 0.5018400000000156
                },
                {
                    "name": "C4",
                    "midi": 60,
                    "time": 677.9858399999899,
                    "velocity": 0.6062992125984252,
                    "duration": 0.12545999999997548
                },
                {
                    "name": "B3",
                    "midi": 59,
                    "time": 678.2367599999899,
                    "velocity": 0.6377952755905512,
                    "duration": 0.12545999999997548
                },
                {
                    "name": "G2",
                    "midi": 43,
                    "time": 678.3622199999899,
                    "velocity": 0.47244094488188976,
                    "duration": 1.0036799999999175
                },
                {
                    "name": "C#3",
                    "midi": 49,
                    "time": 678.4249499999898,
                    "velocity": 0.47244094488188976,
                    "duration": 0.9409499999999298
                },
                {
                    "name": "A3",
                    "midi": 57,
                    "time": 678.4876799999898,
                    "velocity": 0.6456692913385826,
                    "duration": 0.5018400000000156
                },
                {
                    "name": "C#4",
                    "midi": 61,
                    "time": 678.9895199999899,
                    "velocity": 0.6062992125984252,
                    "duration": 0.12545999999997548
                },
                {
                    "name": "E4",
                    "midi": 64,
                    "time": 679.2404399999898,
                    "velocity": 0.6377952755905512,
                    "duration": 0.12545999999997548
                },
                {
                    "name": "G2",
                    "midi": 43,
                    "time": 679.3658999999898,
                    "velocity": 0.47244094488188976,
                    "duration": 1.0036799999999175
                },
                {
                    "name": "D3",
                    "midi": 50,
                    "time": 679.4286299999898,
                    "velocity": 0.47244094488188976,
                    "duration": 0.9409499999999298
                },
                {
                    "name": "F4",
                    "midi": 65,
                    "time": 679.4913599999898,
                    "velocity": 0.6456692913385826,
                    "duration": 0.5018400000000156
                },
                {
                    "name": "D4",
                    "midi": 62,
                    "time": 679.9931999999898,
                    "velocity": 0.6062992125984252,
                    "duration": 0.12545999999997548
                },
                {
                    "name": "C4",
                    "midi": 60,
                    "time": 680.2441199999897,
                    "velocity": 0.6377952755905512,
                    "duration": 0.12545999999997548
                },
                {
                    "name": "G2",
                    "midi": 43,
                    "time": 680.3695799999897,
                    "velocity": 0.47244094488188976,
                    "duration": 1.0036799999999175
                },
                {
                    "name": "D3",
                    "midi": 50,
                    "time": 680.4323099999897,
                    "velocity": 0.47244094488188976,
                    "duration": 0.9409499999999298
                },
                {
                    "name": "B3",
                    "midi": 59,
                    "time": 680.4950399999897,
                    "velocity": 0.6456692913385826,
                    "duration": 0.5018400000000156
                },
                {
                    "name": "D4",
                    "midi": 62,
                    "time": 680.9968799999897,
                    "velocity": 0.6062992125984252,
                    "duration": 0.12545999999997548
                },
                {
                    "name": "D#4",
                    "midi": 63,
                    "time": 681.2477999999896,
                    "velocity": 0.6377952755905512,
                    "duration": 0.12545999999997548
                },
                {
                    "name": "G2",
                    "midi": 43,
                    "time": 681.3732599999896,
                    "velocity": 0.47244094488188976,
                    "duration": 1.0036799999999175
                },
                {
                    "name": "E3",
                    "midi": 52,
                    "time": 681.4359899999896,
                    "velocity": 0.47244094488188976,
                    "duration": 0.9409499999999298
                },
                {
                    "name": "E4",
                    "midi": 64,
                    "time": 681.4987199999896,
                    "velocity": 0.6456692913385826,
                    "duration": 0.5018400000000156
                },
                {
                    "name": "C4",
                    "midi": 60,
                    "time": 682.0005599999896,
                    "velocity": 0.6062992125984252,
                    "duration": 0.12545999999997548
                },
                {
                    "name": "B3",
                    "midi": 59,
                    "time": 682.2514799999896,
                    "velocity": 0.6377952755905512,
                    "duration": 0.12545999999997548
                },
                {
                    "name": "G2",
                    "midi": 43,
                    "time": 682.3769399999895,
                    "velocity": 0.47244094488188976,
                    "duration": 1.0036799999999175
                },
                {
                    "name": "C3",
                    "midi": 48,
                    "time": 682.4396699999895,
                    "velocity": 0.47244094488188976,
                    "duration": 0.9409499999999298
                },
                {
                    "name": "A3",
                    "midi": 57,
                    "time": 682.5023999999895,
                    "velocity": 0.6456692913385826,
                    "duration": 0.5018400000000156
                },
                {
                    "name": "C4",
                    "midi": 60,
                    "time": 683.0042399999895,
                    "velocity": 0.6062992125984252,
                    "duration": 0.12545999999997548
                },
                {
                    "name": "C#4",
                    "midi": 61,
                    "time": 683.2551599999895,
                    "velocity": 0.6377952755905512,
                    "duration": 0.12545999999997548
                },
                {
                    "name": "G2",
                    "midi": 43,
                    "time": 683.3806199999894,
                    "velocity": 0.47244094488188976,
                    "duration": 1.0036799999999175
                },
                {
                    "name": "D3",
                    "midi": 50,
                    "time": 683.4433499999894,
                    "velocity": 0.47244094488188976,
                    "duration": 0.9409499999999298
                },
                {
                    "name": "D4",
                    "midi": 62,
                    "time": 683.5060799999894,
                    "velocity": 0.6456692913385826,
                    "duration": 0.5018400000000156
                },
                {
                    "name": "B3",
                    "midi": 59,
                    "time": 684.0079199999894,
                    "velocity": 0.6062992125984252,
                    "duration": 0.12545999999997548
                },
                {
                    "name": "A3",
                    "midi": 57,
                    "time": 684.2588399999894,
                    "velocity": 0.6377952755905512,
                    "duration": 0.12545999999997548
                },
                {
                    "name": "G2",
                    "midi": 43,
                    "time": 684.5097599999893,
                    "velocity": 0.47244094488188976,
                    "duration": 0.878219999999942
                },
                {
                    "name": "B2",
                    "midi": 47,
                    "time": 684.5097599999893,
                    "velocity": 0.47244094488188976,
                    "duration": 0.878219999999942
                },
                {
                    "name": "G3",
                    "midi": 55,
                    "time": 684.5097599999893,
                    "velocity": 0.6456692913385826,
                    "duration": 0.5018400000000156
                },
                {
                    "name": "A3",
                    "midi": 57,
                    "time": 685.0115999999894,
                    "velocity": 0.6062992125984252,
                    "duration": 0.12545999999997548
                },
                {
                    "name": "B3",
                    "midi": 59,
                    "time": 685.2625199999893,
                    "velocity": 0.6377952755905512,
                    "duration": 0.12545999999997548
                },
                {
                    "name": "G2",
                    "midi": 43,
                    "time": 685.3879799999893,
                    "velocity": 0.47244094488188976,
                    "duration": 1.0036799999999175
                },
                {
                    "name": "C3",
                    "midi": 48,
                    "time": 685.4507099999893,
                    "velocity": 0.47244094488188976,
                    "duration": 0.9409499999999298
                },
                {
                    "name": "C4",
                    "midi": 60,
                    "time": 685.5134399999893,
                    "velocity": 0.6456692913385826,
                    "duration": 0.5018400000000156
                },
                {
                    "name": "D4",
                    "midi": 62,
                    "time": 686.0152799999893,
                    "velocity": 0.6062992125984252,
                    "duration": 0.12545999999997548
                },
                {
                    "name": "E4",
                    "midi": 64,
                    "time": 686.2661999999892,
                    "velocity": 0.6377952755905512,
                    "duration": 0.12545999999997548
                },
                {
                    "name": "G2",
                    "midi": 43,
                    "time": 686.4230249999893,
                    "velocity": 0.4094488188976378,
                    "duration": 0.501840000000243
                },
                {
                    "name": "C3",
                    "midi": 48,
                    "time": 686.4543899999893,
                    "velocity": 0.4094488188976378,
                    "duration": 0.47047500000019227
                },
                {
                    "name": "F#3",
                    "midi": 54,
                    "time": 686.4857549999894,
                    "velocity": 0.4094488188976378,
                    "duration": 0.40774500000009084
                },
                {
                    "name": "F#4",
                    "midi": 66,
                    "time": 686.5171199999894,
                    "velocity": 0.4881889763779528,
                    "duration": 0.40774500000009084
                },
                {
                    "name": "G2",
                    "midi": 43,
                    "time": 686.9248649999895,
                    "velocity": 0.4015748031496063,
                    "duration": 1.003680000000145
                },
                {
                    "name": "C3",
                    "midi": 48,
                    "time": 686.9562299999895,
                    "velocity": 0.3937007874015748,
                    "duration": 0.9723150000000942
                },
                {
                    "name": "F#3",
                    "midi": 54,
                    "time": 686.9875949999896,
                    "velocity": 0.3937007874015748,
                    "duration": 0.9409500000000435
                },
                {
                    "name": "D#4",
                    "midi": 63,
                    "time": 687.0189599999896,
                    "velocity": 0.47244094488188976,
                    "duration": 0.9095849999999928
                },
                {
                    "name": "G2",
                    "midi": 43,
                    "time": 687.9285449999896,
                    "velocity": 0.3700787401574803,
                    "duration": 0.5018400000001293
                },
                {
                    "name": "C3",
                    "midi": 48,
                    "time": 687.9599099999897,
                    "velocity": 0.3700787401574803,
                    "duration": 0.4704750000000786
                },
                {
                    "name": "F#3",
                    "midi": 54,
                    "time": 687.9912749999897,
                    "velocity": 0.36220472440944884,
                    "duration": 0.43911000000002787
                },
                {
                    "name": "C4",
                    "midi": 60,
                    "time": 688.0226399999898,
                    "velocity": 0.4330708661417323,
                    "duration": 0.40774499999997715
                },
                {
                    "name": "G2",
                    "midi": 43,
                    "time": 688.4303849999898,
                    "velocity": 0.3543307086614173,
                    "duration": 0.5959350000001677
                },
                {
                    "name": "D3",
                    "midi": 50,
                    "time": 688.4617499999898,
                    "velocity": 0.3543307086614173,
                    "duration": 0.564570000000117
                },
                {
                    "name": "G3",
                    "midi": 55,
                    "time": 688.4931149999899,
                    "velocity": 0.3543307086614173,
                    "duration": 0.5018400000000156
                },
                {
                    "name": "B3",
                    "midi": 59,
                    "time": 688.5244799999899,
                    "velocity": 0.41732283464566927,
                    "duration": 0.5018400000000156
                },
                {
                    "name": "G2",
                    "midi": 43,
                    "time": 689.0263199999899,
                    "velocity": 0.48031496062992124,
                    "duration": 0.25091999999995096
                },
                {
                    "name": "B2",
                    "midi": 47,
                    "time": 689.0263199999899,
                    "velocity": 0.48031496062992124,
                    "duration": 0.25091999999995096
                },
                {
                    "name": "B2",
                    "midi": 47,
                    "time": 689.4026999999899,
                    "velocity": 0.4330708661417323,
                    "duration": 0.12545999999997548
                },
                {
                    "name": "G2",
                    "midi": 43,
                    "time": 689.5281599999898,
                    "velocity": 0.48031496062992124,
                    "duration": 1.2545999999999822
                },
                {
                    "name": "C#3",
                    "midi": 49,
                    "time": 689.5281599999898,
                    "velocity": 0.48031496062992124,
                    "duration": 0.5018400000000156
                },
                {
                    "name": "C#4",
                    "midi": 61,
                    "time": 690.0299999999899,
                    "velocity": 0.49606299212598426,
                    "duration": 0.5018400000000156
                },
                {
                    "name": "D4",
                    "midi": 62,
                    "time": 690.5318399999899,
                    "velocity": 0.4881889763779528,
                    "duration": 0.25091999999995096
                },
                {
                    "name": "G2",
                    "midi": 43,
                    "time": 691.0336799999898,
                    "velocity": 0.48031496062992124,
                    "duration": 0.25092000000006465
                },
                {
                    "name": "D3",
                    "midi": 50,
                    "time": 691.0389074999898,
                    "velocity": 0.48031496062992124,
                    "duration": 0.25092000000006465
                },
                {
                    "name": "D3",
                    "midi": 50,
                    "time": 691.4100599999899,
                    "velocity": 0.4409448818897638,
                    "duration": 0.12545999999997548
                },
                {
                    "name": "G2",
                    "midi": 43,
                    "time": 691.5355199999899,
                    "velocity": 0.4881889763779528,
                    "duration": 1.2545999999999822
                },
                {
                    "name": "D#3",
                    "midi": 51,
                    "time": 691.5355199999899,
                    "velocity": 0.4881889763779528,
                    "duration": 0.5018400000000156
                },
                {
                    "name": "D#4",
                    "midi": 63,
                    "time": 692.0373599999899,
                    "velocity": 0.5039370078740157,
                    "duration": 0.5018400000000156
                },
                {
                    "name": "E4",
                    "midi": 64,
                    "time": 692.5391999999899,
                    "velocity": 0.5118110236220472,
                    "duration": 0.25091999999995096
                },
                {
                    "name": "E3",
                    "midi": 52,
                    "time": 693.0410399999898,
                    "velocity": 0.5039370078740157,
                    "duration": 0.25091999999995096
                },
                {
                    "name": "G2",
                    "midi": 43,
                    "time": 693.0410399999898,
                    "velocity": 0.5039370078740157,
                    "duration": 0.25091999999995096
                },
                {
                    "name": "E3",
                    "midi": 52,
                    "time": 693.4174199999898,
                    "velocity": 0.4566929133858268,
                    "duration": 0.12545999999997548
                },
                {
                    "name": "G2",
                    "midi": 43,
                    "time": 693.5428799999897,
                    "velocity": 0.5118110236220472,
                    "duration": 1.0036799999999175
                },
                {
                    "name": "F3",
                    "midi": 53,
                    "time": 693.5428799999897,
                    "velocity": 0.5118110236220472,
                    "duration": 0.5018400000000156
                },
                {
                    "name": "F4",
                    "midi": 65,
                    "time": 694.0447199999898,
                    "velocity": 0.5354330708661418,
                    "duration": 0.25091999999995096
                },
                {
                    "name": "F3",
                    "midi": 53,
                    "time": 694.4210999999897,
                    "velocity": 0.4645669291338583,
                    "duration": 0.12545999999997548
                },
                {
                    "name": "G2",
                    "midi": 43,
                    "time": 694.5465599999897,
                    "velocity": 0.5275590551181102,
                    "duration": 1.0036799999996902
                },
                {
                    "name": "F#3",
                    "midi": 54,
                    "time": 694.5465599999897,
                    "velocity": 0.5354330708661418,
                    "duration": 0.25091999999995096
                },
                {
                    "name": "F#4",
                    "midi": 66,
                    "time": 695.0483999999896,
                    "velocity": 0.5433070866141733,
                    "duration": 0.25091999999995096
                },
                {
                    "name": "F#3",
                    "midi": 54,
                    "time": 695.4247799999895,
                    "velocity": 0.4015748031496063,
                    "duration": 0.06272999999998774
                },
                {
                    "name": "G2",
                    "midi": 43,
                    "time": 695.4875099999895,
                    "velocity": 0.4645669291338583,
                    "duration": 0.5645699999998897
                },
                {
                    "name": "D3",
                    "midi": 50,
                    "time": 695.5084199999894,
                    "velocity": 0.4645669291338583,
                    "duration": 0.5436599999999316
                },
                {
                    "name": "F3",
                    "midi": 53,
                    "time": 695.5293299999894,
                    "velocity": 0.4645669291338583,
                    "duration": 0.5227499999999736
                },
                {
                    "name": "G3",
                    "midi": 55,
                    "time": 695.5502399999893,
                    "velocity": 0.5511811023622047,
                    "duration": 0.5018400000000156
                },
                {
                    "name": "F4",
                    "midi": 65,
                    "time": 696.0520799999894,
                    "velocity": 0.4645669291338583,
                    "duration": 0.5018400000000156
                },
                {
                    "name": "G4",
                    "midi": 67,
                    "time": 696.0520799999894,
                    "velocity": 0.5590551181102362,
                    "duration": 0.5018400000000156
                },
                {
                    "name": "D4",
                    "midi": 62,
                    "time": 696.0520799999894,
                    "velocity": 0.4645669291338583,
                    "duration": 0.5018400000000156
                },
                {
                    "name": "G3",
                    "midi": 55,
                    "time": 696.0520799999894,
                    "velocity": 0.4645669291338583,
                    "duration": 0.5018400000000156
                },
                {
                    "name": "G1",
                    "midi": 31,
                    "time": 696.5539199999894,
                    "velocity": 0.5590551181102362,
                    "duration": 0.1672800000000052
                },
                {
                    "name": "G2",
                    "midi": 43,
                    "time": 696.7211999999894,
                    "velocity": 0.49606299212598426,
                    "duration": 0.14637000000004718
                },
                {
                    "name": "G2",
                    "midi": 43,
                    "time": 696.8884799999894,
                    "velocity": 0.49606299212598426,
                    "duration": 0.1672800000000052
                },
                {
                    "name": "G3",
                    "midi": 55,
                    "time": 697.0557599999894,
                    "velocity": 0.5590551181102362,
                    "duration": 0.1672800000000052
                },
                {
                    "name": "F#3",
                    "midi": 54,
                    "time": 697.2230399999894,
                    "velocity": 0.49606299212598426,
                    "duration": 0.1672800000000052
                },
                {
                    "name": "A3",
                    "midi": 57,
                    "time": 697.3903199999894,
                    "velocity": 0.49606299212598426,
                    "duration": 0.1672800000000052
                },
                {
                    "name": "G3",
                    "midi": 55,
                    "time": 697.5575999999894,
                    "velocity": 0.5590551181102362,
                    "duration": 0.1672800000000052
                },
                {
                    "name": "E3",
                    "midi": 52,
                    "time": 697.7248799999894,
                    "velocity": 0.4881889763779528,
                    "duration": 0.1672800000000052
                },
                {
                    "name": "A#2",
                    "midi": 46,
                    "time": 697.8921599999894,
                    "velocity": 0.4881889763779528,
                    "duration": 0.1672800000000052
                },
                {
                    "name": "G2",
                    "midi": 43,
                    "time": 698.0594399999894,
                    "velocity": 0.5590551181102362,
                    "duration": 0.1672800000000052
                },
                {
                    "name": "E2",
                    "midi": 40,
                    "time": 698.2267199999894,
                    "velocity": 0.49606299212598426,
                    "duration": 0.1672800000000052
                },
                {
                    "name": "A#1",
                    "midi": 34,
                    "time": 698.3939999999894,
                    "velocity": 0.4881889763779528,
                    "duration": 0.1672800000000052
                },
                {
                    "name": "F1",
                    "midi": 29,
                    "time": 698.5612799999894,
                    "velocity": 0.5590551181102362,
                    "duration": 0.1672800000000052
                },
                {
                    "name": "F2",
                    "midi": 41,
                    "time": 698.7285599999894,
                    "velocity": 0.49606299212598426,
                    "duration": 0.14637000000004718
                },
                {
                    "name": "F2",
                    "midi": 41,
                    "time": 698.8958399999894,
                    "velocity": 0.49606299212598426,
                    "duration": 0.1672800000000052
                },
                {
                    "name": "E3",
                    "midi": 52,
                    "time": 699.0631199999895,
                    "velocity": 0.5590551181102362,
                    "duration": 0.1672800000000052
                },
                {
                    "name": "G3",
                    "midi": 55,
                    "time": 699.2303999999895,
                    "velocity": 0.49606299212598426,
                    "duration": 0.1672800000000052
                },
                {
                    "name": "F3",
                    "midi": 53,
                    "time": 699.3976799999895,
                    "velocity": 0.49606299212598426,
                    "duration": 0.1672800000000052
                },
                {
                    "name": "E3",
                    "midi": 52,
                    "time": 699.5649599999895,
                    "velocity": 0.5590551181102362,
                    "duration": 0.1672800000000052
                },
                {
                    "name": "C#3",
                    "midi": 49,
                    "time": 699.7322399999895,
                    "velocity": 0.49606299212598426,
                    "duration": 0.1672800000000052
                },
                {
                    "name": "A#2",
                    "midi": 46,
                    "time": 699.8995199999895,
                    "velocity": 0.49606299212598426,
                    "duration": 0.1672800000000052
                },
                {
                    "name": "G2",
                    "midi": 43,
                    "time": 700.0667999999895,
                    "velocity": 0.5748031496062992,
                    "duration": 0.1672800000000052
                },
                {
                    "name": "E2",
                    "midi": 40,
                    "time": 700.2340799999895,
                    "velocity": 0.5039370078740157,
                    "duration": 0.1672800000000052
                },
                {
                    "name": "C#2",
                    "midi": 37,
                    "time": 700.4013599999895,
                    "velocity": 0.5039370078740157,
                    "duration": 0.1672800000000052
                },
                {
                    "name": "D1",
                    "midi": 26,
                    "time": 700.5686399999895,
                    "velocity": 0.5748031496062992,
                    "duration": 0.1672800000000052
                },
                {
                    "name": "D2",
                    "midi": 38,
                    "time": 700.7359199999895,
                    "velocity": 0.5196850393700787,
                    "duration": 0.14637000000004718
                },
                {
                    "name": "D2",
                    "midi": 38,
                    "time": 700.9031999999895,
                    "velocity": 0.5196850393700787,
                    "duration": 0.1672800000000052
                },
                {
                    "name": "D3",
                    "midi": 50,
                    "time": 701.0704799999895,
                    "velocity": 0.5905511811023622,
                    "duration": 0.1672800000000052
                },
                {
                    "name": "C#3",
                    "midi": 49,
                    "time": 701.2377599999895,
                    "velocity": 0.5196850393700787,
                    "duration": 0.1672800000000052
                },
                {
                    "name": "E3",
                    "midi": 52,
                    "time": 701.4050399999895,
                    "velocity": 0.5275590551181102,
                    "duration": 0.1672800000000052
                },
                {
                    "name": "D3",
                    "midi": 50,
                    "time": 701.5723199999895,
                    "velocity": 0.5905511811023622,
                    "duration": 0.1672800000000052
                },
                {
                    "name": "A2",
                    "midi": 45,
                    "time": 701.7395999999895,
                    "velocity": 0.5196850393700787,
                    "duration": 0.1672800000000052
                },
                {
                    "name": "F2",
                    "midi": 41,
                    "time": 701.9068799999895,
                    "velocity": 0.5196850393700787,
                    "duration": 0.1672800000000052
                },
                {
                    "name": "D2",
                    "midi": 38,
                    "time": 702.0741599999895,
                    "velocity": 0.6062992125984252,
                    "duration": 0.1672800000000052
                },
                {
                    "name": "A1",
                    "midi": 33,
                    "time": 702.2414399999896,
                    "velocity": 0.5354330708661418,
                    "duration": 0.1672800000000052
                },
                {
                    "name": "D1",
                    "midi": 26,
                    "time": 702.4087199999896,
                    "velocity": 0.5354330708661418,
                    "duration": 0.1672800000000052
                },
                {
                    "name": "G1",
                    "midi": 31,
                    "time": 702.5759999999896,
                    "velocity": 0.6141732283464567,
                    "duration": 0.1672800000000052
                },
                {
                    "name": "G2",
                    "midi": 43,
                    "time": 702.7432799999896,
                    "velocity": 0.5433070866141733,
                    "duration": 0.14637000000004718
                },
                {
                    "name": "G2",
                    "midi": 43,
                    "time": 702.9105599999896,
                    "velocity": 0.5433070866141733,
                    "duration": 0.1672800000000052
                },
                {
                    "name": "G3",
                    "midi": 55,
                    "time": 703.0778399999896,
                    "velocity": 0.6220472440944882,
                    "duration": 0.1672800000000052
                },
                {
                    "name": "F#3",
                    "midi": 54,
                    "time": 703.2451199999896,
                    "velocity": 0.5511811023622047,
                    "duration": 0.1672800000000052
                },
                {
                    "name": "G3",
                    "midi": 55,
                    "time": 703.4123999999896,
                    "velocity": 0.5590551181102362,
                    "duration": 0.1672800000000052
                },
                {
                    "name": "G2",
                    "midi": 43,
                    "time": 703.5796799999896,
                    "velocity": 0.6299212598425197,
                    "duration": 0.1672800000000052
                },
                {
                    "name": "G3",
                    "midi": 55,
                    "time": 703.7469599999896,
                    "velocity": 0.5511811023622047,
                    "duration": 0.14637000000004718
                },
                {
                    "name": "G3",
                    "midi": 55,
                    "time": 703.9142399999896,
                    "velocity": 0.5511811023622047,
                    "duration": 0.1672800000000052
                },
                {
                    "name": "G4",
                    "midi": 67,
                    "time": 704.0815199999896,
                    "velocity": 0.6377952755905512,
                    "duration": 0.1672800000000052
                },
                {
                    "name": "F#4",
                    "midi": 66,
                    "time": 704.2487999999896,
                    "velocity": 0.5669291338582677,
                    "duration": 0.1672800000000052
                },
                {
                    "name": "A4",
                    "midi": 69,
                    "time": 704.4160799999896,
                    "velocity": 0.5590551181102362,
                    "duration": 0.1672800000000052
                },
                {
                    "name": "G4",
                    "midi": 67,
                    "time": 704.5833599999896,
                    "velocity": 0.6456692913385826,
                    "duration": 0.1672800000000052
                },
                {
                    "name": "E4",
                    "midi": 64,
                    "time": 704.7506399999896,
                    "velocity": 0.5748031496062992,
                    "duration": 0.1672800000000052
                },
                {
                    "name": "B3",
                    "midi": 59,
                    "time": 704.9179199999896,
                    "velocity": 0.5748031496062992,
                    "duration": 0.1672800000000052
                },
                {
                    "name": "G3",
                    "midi": 55,
                    "time": 705.0851999999896,
                    "velocity": 0.6535433070866141,
                    "duration": 0.1672800000000052
                },
                {
                    "name": "D3",
                    "midi": 50,
                    "time": 705.2524799999896,
                    "velocity": 0.5826771653543307,
                    "duration": 0.1672800000000052
                },
                {
                    "name": "B2",
                    "midi": 47,
                    "time": 705.4197599999897,
                    "velocity": 0.5826771653543307,
                    "duration": 0.1672800000000052
                },
                {
                    "name": "G2",
                    "midi": 43,
                    "time": 705.5870399999897,
                    "velocity": 0.6614173228346457,
                    "duration": 0.1672800000000052
                },
                {
                    "name": "D2",
                    "midi": 38,
                    "time": 705.7543199999897,
                    "velocity": 0.5826771653543307,
                    "duration": 0.1672800000000052
                },
                {
                    "name": "B1",
                    "midi": 35,
                    "time": 705.9215999999897,
                    "velocity": 0.5826771653543307,
                    "duration": 0.1672800000000052
                },
                {
                    "name": "G1",
                    "midi": 31,
                    "time": 706.0888799999897,
                    "velocity": 0.6692913385826772,
                    "duration": 0.1672800000000052
                },
                {
                    "name": "D2",
                    "midi": 38,
                    "time": 706.2561599999897,
                    "velocity": 0.5984251968503937,
                    "duration": 0.1672800000000052
                },
                {
                    "name": "G2",
                    "midi": 43,
                    "time": 706.4234399999897,
                    "velocity": 0.5905511811023622,
                    "duration": 0.1672800000000052
                },
                {
                    "name": "C2",
                    "midi": 36,
                    "time": 706.5907199999897,
                    "velocity": 0.6771653543307087,
                    "duration": 0.5018400000000156
                },
                {
                    "name": "C3",
                    "midi": 48,
                    "time": 707.3434799999897,
                    "velocity": 0.49606299212598426,
                    "duration": 0.2258279999999786
                },
                {
                    "name": "G3",
                    "midi": 55,
                    "time": 707.3434799999897,
                    "velocity": 0.49606299212598426,
                    "duration": 0.2258279999999786
                },
                {
                    "name": "C4",
                    "midi": 60,
                    "time": 707.3434799999897,
                    "velocity": 0.5826771653543307,
                    "duration": 0.2258279999999786
                },
                {
                    "name": "C3",
                    "midi": 48,
                    "time": 707.5943999999896,
                    "velocity": 0.49606299212598426,
                    "duration": 0.5018400000000156
                },
                {
                    "name": "G3",
                    "midi": 55,
                    "time": 707.5943999999896,
                    "velocity": 0.49606299212598426,
                    "duration": 0.5018400000000156
                },
                {
                    "name": "C4",
                    "midi": 60,
                    "time": 707.5943999999896,
                    "velocity": 0.5826771653543307,
                    "duration": 0.5018400000000156
                },
                {
                    "name": "D3",
                    "midi": 50,
                    "time": 708.0962399999896,
                    "velocity": 0.44881889763779526,
                    "duration": 0.12545999999997548
                },
                {
                    "name": "D4",
                    "midi": 62,
                    "time": 708.0962399999896,
                    "velocity": 0.5275590551181102,
                    "duration": 0.12545999999997548
                },
                {
                    "name": "E3",
                    "midi": 52,
                    "time": 708.3471599999896,
                    "velocity": 0.49606299212598426,
                    "duration": 0.12545999999997548
                },
                {
                    "name": "C4",
                    "midi": 60,
                    "time": 708.3471599999896,
                    "velocity": 0.49606299212598426,
                    "duration": 0.12545999999997548
                },
                {
                    "name": "E4",
                    "midi": 64,
                    "time": 708.3471599999896,
                    "velocity": 0.5826771653543307,
                    "duration": 0.12545999999997548
                },
                {
                    "name": "F3",
                    "midi": 53,
                    "time": 708.5980799999895,
                    "velocity": 0.5039370078740157,
                    "duration": 0.12545999999997548
                },
                {
                    "name": "C4",
                    "midi": 60,
                    "time": 708.5980799999895,
                    "velocity": 0.5039370078740157,
                    "duration": 0.12545999999997548
                },
                {
                    "name": "F4",
                    "midi": 65,
                    "time": 708.5980799999895,
                    "velocity": 0.6062992125984252,
                    "duration": 0.12545999999997548
                },
                {
                    "name": "E3",
                    "midi": 52,
                    "time": 709.0999199999895,
                    "velocity": 0.4645669291338583,
                    "duration": 0.12545999999997548
                },
                {
                    "name": "C4",
                    "midi": 60,
                    "time": 709.0999199999895,
                    "velocity": 0.4645669291338583,
                    "duration": 0.12545999999997548
                },
                {
                    "name": "E4",
                    "midi": 64,
                    "time": 709.0999199999895,
                    "velocity": 0.5590551181102362,
                    "duration": 0.12545999999997548
                },
                {
                    "name": "A1",
                    "midi": 33,
                    "time": 710.3545199999895,
                    "velocity": 0.4566929133858268,
                    "duration": 0.2258279999999786
                },
                {
                    "name": "A2",
                    "midi": 45,
                    "time": 710.3545199999895,
                    "velocity": 0.5433070866141733,
                    "duration": 0.2258279999999786
                },
                {
                    "name": "A1",
                    "midi": 33,
                    "time": 710.6054399999895,
                    "velocity": 0.4881889763779528,
                    "duration": 0.9733605000000125
                },
                {
                    "name": "A2",
                    "midi": 45,
                    "time": 710.6054399999895,
                    "velocity": 0.5826771653543307,
                    "duration": 0.9733605000000125
                },
                {
                    "name": "F1",
                    "midi": 29,
                    "time": 711.6091199999895,
                    "velocity": 0.4881889763779528,
                    "duration": 0.47674800000004325
                },
                {
                    "name": "F2",
                    "midi": 41,
                    "time": 711.6091199999895,
                    "velocity": 0.5826771653543307,
                    "duration": 0.47674800000004325
                },
                {
                    "name": "E1",
                    "midi": 28,
                    "time": 712.1109599999895,
                    "velocity": 0.4881889763779528,
                    "duration": 0.47674800000004325
                },
                {
                    "name": "E2",
                    "midi": 40,
                    "time": 712.1109599999895,
                    "velocity": 0.5826771653543307,
                    "duration": 0.47674800000004325
                },
                {
                    "name": "D1",
                    "midi": 26,
                    "time": 712.6127999999895,
                    "velocity": 0.5354330708661418,
                    "duration": 1.0036800000000312
                },
                {
                    "name": "D2",
                    "midi": 38,
                    "time": 712.6127999999895,
                    "velocity": 0.6299212598425197,
                    "duration": 2.0073600000000624
                },
                {
                    "name": "G1",
                    "midi": 31,
                    "time": 713.6164799999896,
                    "velocity": 0.5118110236220472,
                    "duration": 0.9733605000000125
                },
                {
                    "name": "C1",
                    "midi": 24,
                    "time": 714.6201599999896,
                    "velocity": 0.5433070866141733,
                    "duration": 2.0073599999999487
                },
                {
                    "name": "C2",
                    "midi": 36,
                    "time": 714.6201599999896,
                    "velocity": 0.6456692913385826,
                    "duration": 2.0073599999999487
                }
            ],
            "controlChanges": {},
            "id": 2,
            "name": "Piano left",
            "instrumentNumber": 0,
            "instrument": "acoustic grand piano",
            "instrumentFamily": "piano",
            "channelNumber": 0,
            "isPercussion": false
        },
        {
            "startTime": 0,
            "duration": 0,
            "length": 0,
            "notes": [],
            "controlChanges": {
                "64": [
                    {
                        "number": 64,
                        "time": 0,
                        "value": 1
                    },
                    {
                        "number": 64,
                        "time": 1.5170204999999999,
                        "value": 0
                    },
                    {
                        "number": 64,
                        "time": 3.859986,
                        "value": 1
                    },
                    {
                        "number": 64,
                        "time": 4.5385155,
                        "value": 0
                    },
                    {
                        "number": 64,
                        "time": 5.0549925,
                        "value": 1
                    },
                    {
                        "number": 64,
                        "time": 5.5401045,
                        "value": 0
                    },
                    {
                        "number": 64,
                        "time": 10.0629375,
                        "value": 1
                    },
                    {
                        "number": 64,
                        "time": 11.050935,
                        "value": 0
                    },
                    {
                        "number": 64,
                        "time": 14.093340000000001,
                        "value": 1
                    },
                    {
                        "number": 64,
                        "time": 15.063564000000001,
                        "value": 0
                    },
                    {
                        "number": 64,
                        "time": 15.1628865,
                        "value": 1
                    },
                    {
                        "number": 64,
                        "time": 16.062016500000002,
                        "value": 0
                    },
                    {
                        "number": 64,
                        "time": 16.117428000000004,
                        "value": 1
                    },
                    {
                        "number": 64,
                        "time": 17.575900500000003,
                        "value": 0
                    },
                    {
                        "number": 64,
                        "time": 19.918866,
                        "value": 1
                    },
                    {
                        "number": 64,
                        "time": 20.5973955,
                        "value": 0
                    },
                    {
                        "number": 64,
                        "time": 21.1138725,
                        "value": 1
                    },
                    {
                        "number": 64,
                        "time": 21.5989845,
                        "value": 0
                    },
                    {
                        "number": 64,
                        "time": 26.6633865,
                        "value": 1
                    },
                    {
                        "number": 64,
                        "time": 27.615837000000003,
                        "value": 0
                    },
                    {
                        "number": 64,
                        "time": 27.674385,
                        "value": 1
                    },
                    {
                        "number": 64,
                        "time": 28.77216,
                        "value": 0
                    },
                    {
                        "number": 64,
                        "time": 29.079537,
                        "value": 1
                    },
                    {
                        "number": 64,
                        "time": 30.083216999999998,
                        "value": 0
                    },
                    {
                        "number": 64,
                        "time": 32.892475499999996,
                        "value": 1
                    },
                    {
                        "number": 64,
                        "time": 33.625370999999994,
                        "value": 0
                    },
                    {
                        "number": 64,
                        "time": 35.24694149999999,
                        "value": 1
                    },
                    {
                        "number": 64,
                        "time": 35.63900399999999,
                        "value": 0
                    },
                    {
                        "number": 64,
                        "time": 36.161753999999995,
                        "value": 1
                    },
                    {
                        "number": 64,
                        "time": 36.64791149999999,
                        "value": 0
                    },
                    {
                        "number": 64,
                        "time": 37.172752499999994,
                        "value": 1
                    },
                    {
                        "number": 64,
                        "time": 37.647409499999995,
                        "value": 0
                    },
                    {
                        "number": 64,
                        "time": 38.147158499999996,
                        "value": 1
                    },
                    {
                        "number": 64,
                        "time": 38.656316999999994,
                        "value": 0
                    },
                    {
                        "number": 64,
                        "time": 39.187431,
                        "value": 1
                    },
                    {
                        "number": 64,
                        "time": 39.65686049999999,
                        "value": 0
                    },
                    {
                        "number": 64,
                        "time": 40.183792499999996,
                        "value": 1
                    },
                    {
                        "number": 64,
                        "time": 40.66576799999999,
                        "value": 0
                    },
                    {
                        "number": 64,
                        "time": 41.269021499999994,
                        "value": 1
                    },
                    {
                        "number": 64,
                        "time": 41.654810999999995,
                        "value": 0
                    },
                    {
                        "number": 64,
                        "time": 43.27638149999999,
                        "value": 1
                    },
                    {
                        "number": 64,
                        "time": 43.668443999999994,
                        "value": 0
                    },
                    {
                        "number": 64,
                        "time": 44.191193999999996,
                        "value": 1
                    },
                    {
                        "number": 64,
                        "time": 44.67735149999999,
                        "value": 0
                    },
                    {
                        "number": 64,
                        "time": 45.202192499999995,
                        "value": 1
                    },
                    {
                        "number": 64,
                        "time": 45.676849499999996,
                        "value": 0
                    },
                    {
                        "number": 64,
                        "time": 46.1765985,
                        "value": 1
                    },
                    {
                        "number": 64,
                        "time": 46.685756999999995,
                        "value": 0
                    },
                    {
                        "number": 64,
                        "time": 47.216871,
                        "value": 1
                    },
                    {
                        "number": 64,
                        "time": 47.686300499999994,
                        "value": 0
                    },
                    {
                        "number": 64,
                        "time": 48.2132325,
                        "value": 1
                    },
                    {
                        "number": 64,
                        "time": 48.695207999999994,
                        "value": 0
                    },
                    {
                        "number": 64,
                        "time": 49.298461499999995,
                        "value": 1
                    },
                    {
                        "number": 64,
                        "time": 49.690523999999996,
                        "value": 0
                    },
                    {
                        "number": 64,
                        "time": 50.220592499999995,
                        "value": 1
                    },
                    {
                        "number": 64,
                        "time": 50.70256799999999,
                        "value": 0
                    },
                    {
                        "number": 64,
                        "time": 51.30582149999999,
                        "value": 1
                    },
                    {
                        "number": 64,
                        "time": 51.697883999999995,
                        "value": 0
                    },
                    {
                        "number": 64,
                        "time": 52.227952499999994,
                        "value": 1
                    },
                    {
                        "number": 64,
                        "time": 52.70992799999999,
                        "value": 0
                    },
                    {
                        "number": 64,
                        "time": 53.32049999999999,
                        "value": 1
                    },
                    {
                        "number": 64,
                        "time": 53.71360799999999,
                        "value": 0
                    },
                    {
                        "number": 64,
                        "time": 66.82835999999999,
                        "value": 1
                    },
                    {
                        "number": 64,
                        "time": 67.75885499999998,
                        "value": 0
                    },
                    {
                        "number": 64,
                        "time": 67.87908749999998,
                        "value": 1
                    },
                    {
                        "number": 64,
                        "time": 68.25023999999998,
                        "value": 0
                    },
                    {
                        "number": 64,
                        "time": 68.81167349999998,
                        "value": 1
                    },
                    {
                        "number": 64,
                        "time": 69.81535349999999,
                        "value": 0
                    },
                    {
                        "number": 64,
                        "time": 69.94708649999998,
                        "value": 1
                    },
                    {
                        "number": 64,
                        "time": 70.25759999999998,
                        "value": 0
                    },
                    {
                        "number": 64,
                        "time": 70.31092049999998,
                        "value": 1
                    },
                    {
                        "number": 64,
                        "time": 70.44265349999998,
                        "value": 0
                    },
                    {
                        "number": 64,
                        "time": 70.81276049999998,
                        "value": 1
                    },
                    {
                        "number": 64,
                        "time": 70.99781399999998,
                        "value": 0
                    },
                    {
                        "number": 64,
                        "time": 72.54515399999998,
                        "value": 1
                    },
                    {
                        "number": 64,
                        "time": 73.66697549999998,
                        "value": 0
                    },
                    {
                        "number": 64,
                        "time": 74.55251399999997,
                        "value": 1
                    },
                    {
                        "number": 64,
                        "time": 75.67433549999997,
                        "value": 0
                    },
                    {
                        "number": 64,
                        "time": 76.38318449999997,
                        "value": 1
                    },
                    {
                        "number": 64,
                        "time": 77.29276949999996,
                        "value": 0
                    },
                    {
                        "number": 64,
                        "time": 77.50500599999997,
                        "value": 1
                    },
                    {
                        "number": 64,
                        "time": 78.28703999999996,
                        "value": 0
                    },
                    {
                        "number": 64,
                        "time": 78.43445549999996,
                        "value": 1
                    },
                    {
                        "number": 64,
                        "time": 79.29699299999996,
                        "value": 0
                    },
                    {
                        "number": 64,
                        "time": 79.51236599999996,
                        "value": 1
                    },
                    {
                        "number": 64,
                        "time": 80.29439999999995,
                        "value": 0
                    },
                    {
                        "number": 64,
                        "time": 80.50872749999995,
                        "value": 1
                    },
                    {
                        "number": 64,
                        "time": 81.30330749999995,
                        "value": 0
                    },
                    {
                        "number": 64,
                        "time": 81.40576649999994,
                        "value": 1
                    },
                    {
                        "number": 64,
                        "time": 82.30175999999994,
                        "value": 0
                    },
                    {
                        "number": 64,
                        "time": 82.52340599999995,
                        "value": 1
                    },
                    {
                        "number": 64,
                        "time": 83.32634999999995,
                        "value": 0
                    },
                    {
                        "number": 64,
                        "time": 83.43821849999995,
                        "value": 1
                    },
                    {
                        "number": 64,
                        "time": 84.30911999999995,
                        "value": 0
                    },
                    {
                        "number": 64,
                        "time": 84.41262449999995,
                        "value": 1
                    },
                    {
                        "number": 64,
                        "time": 85.32220949999996,
                        "value": 0
                    },
                    {
                        "number": 64,
                        "time": 85.53444599999996,
                        "value": 1
                    },
                    {
                        "number": 64,
                        "time": 86.33111699999996,
                        "value": 0
                    },
                    {
                        "number": 64,
                        "time": 86.47853249999996,
                        "value": 1
                    },
                    {
                        "number": 64,
                        "time": 88.32383999999996,
                        "value": 0
                    },
                    {
                        "number": 64,
                        "time": 88.53816749999996,
                        "value": 1
                    },
                    {
                        "number": 64,
                        "time": 89.34529349999995,
                        "value": 0
                    },
                    {
                        "number": 64,
                        "time": 89.51884649999995,
                        "value": 1
                    },
                    {
                        "number": 64,
                        "time": 90.33119999999995,
                        "value": 0
                    },
                    {
                        "number": 64,
                        "time": 90.47861549999995,
                        "value": 1
                    },
                    {
                        "number": 64,
                        "time": 91.34010749999995,
                        "value": 0
                    },
                    {
                        "number": 64,
                        "time": 91.38610949999995,
                        "value": 1
                    },
                    {
                        "number": 64,
                        "time": 92.33855999999994,
                        "value": 0
                    },
                    {
                        "number": 64,
                        "time": 92.45774699999994,
                        "value": 1
                    },
                    {
                        "number": 64,
                        "time": 93.36001349999994,
                        "value": 0
                    },
                    {
                        "number": 64,
                        "time": 93.47292749999994,
                        "value": 1
                    },
                    {
                        "number": 64,
                        "time": 94.34591999999994,
                        "value": 0
                    },
                    {
                        "number": 64,
                        "time": 94.47869849999994,
                        "value": 1
                    },
                    {
                        "number": 64,
                        "time": 95.36319149999994,
                        "value": 0
                    },
                    {
                        "number": 64,
                        "time": 95.36737349999994,
                        "value": 0
                    },
                    {
                        "number": 64,
                        "time": 95.48028749999995,
                        "value": 1
                    },
                    {
                        "number": 64,
                        "time": 96.35327999999994,
                        "value": 0
                    },
                    {
                        "number": 64,
                        "time": 96.48605849999994,
                        "value": 1
                    },
                    {
                        "number": 64,
                        "time": 97.37264249999994,
                        "value": 0
                    },
                    {
                        "number": 64,
                        "time": 97.56605999999994,
                        "value": 1
                    },
                    {
                        "number": 64,
                        "time": 98.36063999999993,
                        "value": 0
                    },
                    {
                        "number": 64,
                        "time": 98.47982699999993,
                        "value": 1
                    },
                    {
                        "number": 64,
                        "time": 99.38209349999993,
                        "value": 0
                    },
                    {
                        "number": 64,
                        "time": 99.49500749999993,
                        "value": 1
                    },
                    {
                        "number": 64,
                        "time": 100.45163999999993,
                        "value": 0
                    },
                    {
                        "number": 64,
                        "time": 100.61891999999993,
                        "value": 1
                    },
                    {
                        "number": 64,
                        "time": 101.37795299999993,
                        "value": 0
                    },
                    {
                        "number": 64,
                        "time": 101.53373249999993,
                        "value": 1
                    },
                    {
                        "number": 64,
                        "time": 101.87979299999992,
                        "value": 0
                    },
                    {
                        "number": 64,
                        "time": 102.00629849999991,
                        "value": 1
                    },
                    {
                        "number": 64,
                        "time": 102.38686049999991,
                        "value": 0
                    },
                    {
                        "number": 64,
                        "time": 102.49454699999991,
                        "value": 1
                    },
                    {
                        "number": 64,
                        "time": 102.88556399999992,
                        "value": 0
                    },
                    {
                        "number": 64,
                        "time": 102.99638699999991,
                        "value": 1
                    },
                    {
                        "number": 64,
                        "time": 103.38635849999991,
                        "value": 0
                    },
                    {
                        "number": 64,
                        "time": 103.52227349999991,
                        "value": 1
                    },
                    {
                        "number": 64,
                        "time": 103.89447149999991,
                        "value": 0
                    },
                    {
                        "number": 64,
                        "time": 104.00006699999992,
                        "value": 1
                    },
                    {
                        "number": 64,
                        "time": 104.46635999999991,
                        "value": 0
                    },
                    {
                        "number": 64,
                        "time": 104.63363999999991,
                        "value": 1
                    },
                    {
                        "number": 64,
                        "time": 105.39267299999992,
                        "value": 0
                    },
                    {
                        "number": 64,
                        "time": 105.54845249999991,
                        "value": 1
                    },
                    {
                        "number": 64,
                        "time": 105.8945129999999,
                        "value": 0
                    },
                    {
                        "number": 64,
                        "time": 106.0210184999999,
                        "value": 1
                    },
                    {
                        "number": 64,
                        "time": 106.4015804999999,
                        "value": 0
                    },
                    {
                        "number": 64,
                        "time": 106.5092669999999,
                        "value": 1
                    },
                    {
                        "number": 64,
                        "time": 106.9002839999999,
                        "value": 0
                    },
                    {
                        "number": 64,
                        "time": 107.0111069999999,
                        "value": 1
                    },
                    {
                        "number": 64,
                        "time": 107.4010784999999,
                        "value": 0
                    },
                    {
                        "number": 64,
                        "time": 107.5369934999999,
                        "value": 1
                    },
                    {
                        "number": 64,
                        "time": 107.90919149999989,
                        "value": 0
                    },
                    {
                        "number": 64,
                        "time": 108.0147869999999,
                        "value": 1
                    },
                    {
                        "number": 64,
                        "time": 108.48107999999989,
                        "value": 0
                    },
                    {
                        "number": 64,
                        "time": 108.6483599999999,
                        "value": 1
                    },
                    {
                        "number": 64,
                        "time": 109.4073929999999,
                        "value": 0
                    },
                    {
                        "number": 64,
                        "time": 109.5631724999999,
                        "value": 1
                    },
                    {
                        "number": 64,
                        "time": 109.90923299999989,
                        "value": 0
                    },
                    {
                        "number": 64,
                        "time": 110.03573849999988,
                        "value": 1
                    },
                    {
                        "number": 64,
                        "time": 110.41630049999988,
                        "value": 0
                    },
                    {
                        "number": 64,
                        "time": 110.52398699999988,
                        "value": 1
                    },
                    {
                        "number": 64,
                        "time": 110.91500399999988,
                        "value": 0
                    },
                    {
                        "number": 64,
                        "time": 111.02582699999988,
                        "value": 1
                    },
                    {
                        "number": 64,
                        "time": 111.41579849999988,
                        "value": 0
                    },
                    {
                        "number": 64,
                        "time": 111.55171349999988,
                        "value": 1
                    },
                    {
                        "number": 64,
                        "time": 111.92391149999987,
                        "value": 0
                    },
                    {
                        "number": 64,
                        "time": 112.02950699999988,
                        "value": 1
                    },
                    {
                        "number": 64,
                        "time": 112.49579999999987,
                        "value": 0
                    },
                    {
                        "number": 64,
                        "time": 112.66307999999988,
                        "value": 1
                    },
                    {
                        "number": 64,
                        "time": 113.42211299999988,
                        "value": 0
                    },
                    {
                        "number": 64,
                        "time": 113.57789249999988,
                        "value": 1
                    },
                    {
                        "number": 64,
                        "time": 113.92395299999987,
                        "value": 0
                    },
                    {
                        "number": 64,
                        "time": 114.05045849999986,
                        "value": 1
                    },
                    {
                        "number": 64,
                        "time": 114.43102049999986,
                        "value": 0
                    },
                    {
                        "number": 64,
                        "time": 114.53870699999986,
                        "value": 1
                    },
                    {
                        "number": 64,
                        "time": 114.92972399999987,
                        "value": 0
                    },
                    {
                        "number": 64,
                        "time": 115.04054699999986,
                        "value": 1
                    },
                    {
                        "number": 64,
                        "time": 115.43051849999986,
                        "value": 0
                    },
                    {
                        "number": 64,
                        "time": 115.56643349999986,
                        "value": 1
                    },
                    {
                        "number": 64,
                        "time": 115.93863149999986,
                        "value": 0
                    },
                    {
                        "number": 64,
                        "time": 116.04422699999986,
                        "value": 1
                    },
                    {
                        "number": 64,
                        "time": 116.42687999999987,
                        "value": 0
                    },
                    {
                        "number": 64,
                        "time": 116.55965849999987,
                        "value": 1
                    },
                    {
                        "number": 64,
                        "time": 117.43787849999987,
                        "value": 0
                    },
                    {
                        "number": 64,
                        "time": 117.56333849999987,
                        "value": 1
                    },
                    {
                        "number": 64,
                        "time": 118.43423999999987,
                        "value": 0
                    },
                    {
                        "number": 64,
                        "time": 118.56701849999988,
                        "value": 1
                    },
                    {
                        "number": 64,
                        "time": 119.44523849999987,
                        "value": 0
                    },
                    {
                        "number": 64,
                        "time": 119.57069849999988,
                        "value": 1
                    },
                    {
                        "number": 64,
                        "time": 120.44159999999988,
                        "value": 0
                    },
                    {
                        "number": 64,
                        "time": 120.57437849999988,
                        "value": 1
                    },
                    {
                        "number": 64,
                        "time": 121.45259849999988,
                        "value": 0
                    },
                    {
                        "number": 64,
                        "time": 121.57805849999988,
                        "value": 1
                    },
                    {
                        "number": 64,
                        "time": 122.44895999999989,
                        "value": 0
                    },
                    {
                        "number": 64,
                        "time": 122.58173849999989,
                        "value": 1
                    },
                    {
                        "number": 64,
                        "time": 123.45995849999989,
                        "value": 0
                    },
                    {
                        "number": 64,
                        "time": 123.58541849999989,
                        "value": 1
                    },
                    {
                        "number": 64,
                        "time": 124.45631999999989,
                        "value": 0
                    },
                    {
                        "number": 64,
                        "time": 124.5817799999999,
                        "value": 1
                    },
                    {
                        "number": 64,
                        "time": 125.4746369999999,
                        "value": 0
                    },
                    {
                        "number": 64,
                        "time": 128.4710399999999,
                        "value": 0
                    },
                    {
                        "number": 64,
                        "time": 128.5964999999999,
                        "value": 1
                    },
                    {
                        "number": 64,
                        "time": 129.4893569999999,
                        "value": 0
                    },
                    {
                        "number": 64,
                        "time": 138.6510734999999,
                        "value": 1
                    },
                    {
                        "number": 64,
                        "time": 139.52302049999992,
                        "value": 0
                    },
                    {
                        "number": 64,
                        "time": 139.6787999999999,
                        "value": 1
                    },
                    {
                        "number": 64,
                        "time": 140.5151999999999,
                        "value": 0
                    },
                    {
                        "number": 64,
                        "time": 140.65843349999992,
                        "value": 1
                    },
                    {
                        "number": 64,
                        "time": 141.53038049999992,
                        "value": 0
                    },
                    {
                        "number": 64,
                        "time": 141.66211349999992,
                        "value": 1
                    },
                    {
                        "number": 64,
                        "time": 142.53301499999992,
                        "value": 0
                    },
                    {
                        "number": 64,
                        "time": 142.66579349999992,
                        "value": 1
                    },
                    {
                        "number": 64,
                        "time": 143.5419224999999,
                        "value": 0
                    },
                    {
                        "number": 64,
                        "time": 143.71756649999992,
                        "value": 1
                    },
                    {
                        "number": 64,
                        "time": 144.52991999999992,
                        "value": 0
                    },
                    {
                        "number": 64,
                        "time": 148.6282799999999,
                        "value": 0
                    },
                    {
                        "number": 64,
                        "time": 148.7955599999999,
                        "value": 1
                    },
                    {
                        "number": 64,
                        "time": 149.5545929999999,
                        "value": 0
                    },
                    {
                        "number": 64,
                        "time": 149.7103724999999,
                        "value": 1
                    },
                    {
                        "number": 64,
                        "time": 150.05643299999988,
                        "value": 0
                    },
                    {
                        "number": 64,
                        "time": 150.1829384999999,
                        "value": 1
                    },
                    {
                        "number": 64,
                        "time": 150.5635004999999,
                        "value": 0
                    },
                    {
                        "number": 64,
                        "time": 150.6711869999999,
                        "value": 1
                    },
                    {
                        "number": 64,
                        "time": 151.0622039999999,
                        "value": 0
                    },
                    {
                        "number": 64,
                        "time": 151.1730269999999,
                        "value": 1
                    },
                    {
                        "number": 64,
                        "time": 151.5629984999999,
                        "value": 0
                    },
                    {
                        "number": 64,
                        "time": 151.69891349999992,
                        "value": 1
                    },
                    {
                        "number": 64,
                        "time": 152.07111149999992,
                        "value": 0
                    },
                    {
                        "number": 64,
                        "time": 152.1767069999999,
                        "value": 1
                    },
                    {
                        "number": 64,
                        "time": 152.64299999999992,
                        "value": 0
                    },
                    {
                        "number": 64,
                        "time": 152.81027999999992,
                        "value": 1
                    },
                    {
                        "number": 64,
                        "time": 153.07583699999992,
                        "value": 0
                    },
                    {
                        "number": 64,
                        "time": 153.21593399999992,
                        "value": 1
                    },
                    {
                        "number": 64,
                        "time": 153.5693129999999,
                        "value": 0
                    },
                    {
                        "number": 64,
                        "time": 153.7250924999999,
                        "value": 1
                    },
                    {
                        "number": 64,
                        "time": 154.0711529999999,
                        "value": 0
                    },
                    {
                        "number": 64,
                        "time": 154.1976584999999,
                        "value": 1
                    },
                    {
                        "number": 64,
                        "time": 154.5782204999999,
                        "value": 0
                    },
                    {
                        "number": 64,
                        "time": 154.6859069999999,
                        "value": 1
                    },
                    {
                        "number": 64,
                        "time": 155.0758784999999,
                        "value": 0
                    },
                    {
                        "number": 64,
                        "time": 155.1992474999999,
                        "value": 1
                    },
                    {
                        "number": 64,
                        "time": 155.5777184999999,
                        "value": 0
                    },
                    {
                        "number": 64,
                        "time": 155.7136334999999,
                        "value": 1
                    },
                    {
                        "number": 64,
                        "time": 156.0858314999999,
                        "value": 0
                    },
                    {
                        "number": 64,
                        "time": 156.1914269999999,
                        "value": 1
                    },
                    {
                        "number": 64,
                        "time": 156.58558049999988,
                        "value": 0
                    },
                    {
                        "number": 64,
                        "time": 156.69326699999988,
                        "value": 1
                    },
                    {
                        "number": 64,
                        "time": 157.58507849999987,
                        "value": 0
                    },
                    {
                        "number": 64,
                        "time": 157.72099349999988,
                        "value": 1
                    },
                    {
                        "number": 64,
                        "time": 158.09319149999988,
                        "value": 0
                    },
                    {
                        "number": 64,
                        "time": 158.19878699999987,
                        "value": 1
                    },
                    {
                        "number": 64,
                        "time": 158.59294049999986,
                        "value": 0
                    },
                    {
                        "number": 64,
                        "time": 158.70062699999986,
                        "value": 1
                    },
                    {
                        "number": 64,
                        "time": 159.59243849999984,
                        "value": 0
                    },
                    {
                        "number": 64,
                        "time": 159.72835349999986,
                        "value": 1
                    },
                    {
                        "number": 64,
                        "time": 160.60030049999986,
                        "value": 0
                    },
                    {
                        "number": 64,
                        "time": 160.70798699999986,
                        "value": 1
                    },
                    {
                        "number": 64,
                        "time": 161.59979849999985,
                        "value": 0
                    },
                    {
                        "number": 64,
                        "time": 161.73571349999986,
                        "value": 1
                    },
                    {
                        "number": 64,
                        "time": 162.60766049999987,
                        "value": 0
                    },
                    {
                        "number": 64,
                        "time": 162.71534699999987,
                        "value": 1
                    },
                    {
                        "number": 64,
                        "time": 163.60715849999985,
                        "value": 0
                    },
                    {
                        "number": 64,
                        "time": 163.74307349999987,
                        "value": 1
                    },
                    {
                        "number": 64,
                        "time": 164.61502049999987,
                        "value": 0
                    },
                    {
                        "number": 64,
                        "time": 164.72270699999987,
                        "value": 1
                    },
                    {
                        "number": 64,
                        "time": 165.61451849999986,
                        "value": 0
                    },
                    {
                        "number": 64,
                        "time": 165.75043349999987,
                        "value": 1
                    },
                    {
                        "number": 64,
                        "time": 166.62238049999988,
                        "value": 0
                    },
                    {
                        "number": 64,
                        "time": 166.73006699999988,
                        "value": 1
                    },
                    {
                        "number": 64,
                        "time": 167.62187849999987,
                        "value": 0
                    },
                    {
                        "number": 64,
                        "time": 167.75779349999988,
                        "value": 1
                    },
                    {
                        "number": 64,
                        "time": 168.61823999999987,
                        "value": 0
                    },
                    {
                        "number": 64,
                        "time": 168.72592649999987,
                        "value": 1
                    },
                    {
                        "number": 64,
                        "time": 168.87125099999986,
                        "value": 0
                    },
                    {
                        "number": 64,
                        "time": 168.99984749999985,
                        "value": 1
                    },
                    {
                        "number": 64,
                        "time": 169.13576249999986,
                        "value": 0
                    },
                    {
                        "number": 64,
                        "time": 169.26331349999987,
                        "value": 1
                    },
                    {
                        "number": 64,
                        "time": 169.38145499999987,
                        "value": 0
                    },
                    {
                        "number": 64,
                        "time": 169.49018699999988,
                        "value": 1
                    },
                    {
                        "number": 64,
                        "time": 169.6334204999999,
                        "value": 0
                    },
                    {
                        "number": 64,
                        "time": 169.7170604999999,
                        "value": 1
                    },
                    {
                        "number": 64,
                        "time": 169.88015849999988,
                        "value": 0
                    },
                    {
                        "number": 64,
                        "time": 169.9920269999999,
                        "value": 1
                    },
                    {
                        "number": 64,
                        "time": 170.13735149999988,
                        "value": 0
                    },
                    {
                        "number": 64,
                        "time": 170.21890049999988,
                        "value": 1
                    },
                    {
                        "number": 64,
                        "time": 170.3882714999999,
                        "value": 0
                    },
                    {
                        "number": 64,
                        "time": 170.46982049999988,
                        "value": 1
                    },
                    {
                        "number": 64,
                        "time": 170.62559999999988,
                        "value": 0
                    },
                    {
                        "number": 64,
                        "time": 170.71760399999988,
                        "value": 1
                    },
                    {
                        "number": 64,
                        "time": 170.8859294999999,
                        "value": 0
                    },
                    {
                        "number": 64,
                        "time": 170.9559779999999,
                        "value": 1
                    },
                    {
                        "number": 64,
                        "time": 171.1358039999999,
                        "value": 0
                    },
                    {
                        "number": 64,
                        "time": 171.20689799999988,
                        "value": 1
                    },
                    {
                        "number": 64,
                        "time": 171.38881499999988,
                        "value": 0
                    },
                    {
                        "number": 64,
                        "time": 171.4504994999999,
                        "value": 1
                    },
                    {
                        "number": 64,
                        "time": 171.6365984999999,
                        "value": 0
                    },
                    {
                        "number": 64,
                        "time": 171.6951464999999,
                        "value": 1
                    },
                    {
                        "number": 64,
                        "time": 171.8906549999999,
                        "value": 0
                    },
                    {
                        "number": 64,
                        "time": 171.9523394999999,
                        "value": 1
                    },
                    {
                        "number": 64,
                        "time": 172.14575699999992,
                        "value": 0
                    },
                    {
                        "number": 64,
                        "time": 172.22939699999992,
                        "value": 1
                    },
                    {
                        "number": 64,
                        "time": 172.6329599999999,
                        "value": 0
                    },
                    {
                        "number": 64,
                        "time": 172.6810529999999,
                        "value": 1
                    },
                    {
                        "number": 64,
                        "time": 172.8985169999999,
                        "value": 0
                    },
                    {
                        "number": 64,
                        "time": 172.93510949999992,
                        "value": 1
                    },
                    {
                        "number": 64,
                        "time": 173.14943699999992,
                        "value": 0
                    },
                    {
                        "number": 64,
                        "time": 173.18289299999992,
                        "value": 1
                    },
                    {
                        "number": 64,
                        "time": 173.39199299999993,
                        "value": 0
                    },
                    {
                        "number": 64,
                        "time": 173.43694949999994,
                        "value": 1
                    },
                    {
                        "number": 64,
                        "time": 173.65441349999995,
                        "value": 0
                    },
                    {
                        "number": 64,
                        "time": 173.70250649999994,
                        "value": 1
                    },
                    {
                        "number": 64,
                        "time": 173.89801499999993,
                        "value": 0
                    },
                    {
                        "number": 64,
                        "time": 173.93878949999993,
                        "value": 1
                    },
                    {
                        "number": 64,
                        "time": 174.15311699999992,
                        "value": 0
                    },
                    {
                        "number": 64,
                        "time": 174.20120999999992,
                        "value": 1
                    },
                    {
                        "number": 64,
                        "time": 174.64450199999993,
                        "value": 0
                    },
                    {
                        "number": 64,
                        "time": 174.80237249999993,
                        "value": 1
                    },
                    {
                        "number": 64,
                        "time": 176.15734049999995,
                        "value": 0
                    },
                    {
                        "number": 64,
                        "time": 178.50030599999994,
                        "value": 1
                    },
                    {
                        "number": 64,
                        "time": 179.17883549999993,
                        "value": 0
                    },
                    {
                        "number": 64,
                        "time": 179.69531249999994,
                        "value": 1
                    },
                    {
                        "number": 64,
                        "time": 180.18042449999993,
                        "value": 0
                    },
                    {
                        "number": 64,
                        "time": 184.70325749999992,
                        "value": 1
                    },
                    {
                        "number": 64,
                        "time": 185.69125499999993,
                        "value": 0
                    },
                    {
                        "number": 64,
                        "time": 188.73365999999993,
                        "value": 1
                    },
                    {
                        "number": 64,
                        "time": 189.70388399999993,
                        "value": 0
                    },
                    {
                        "number": 64,
                        "time": 189.80320649999993,
                        "value": 1
                    },
                    {
                        "number": 64,
                        "time": 190.71697349999994,
                        "value": 0
                    },
                    {
                        "number": 64,
                        "time": 190.79538599999995,
                        "value": 1
                    },
                    {
                        "number": 64,
                        "time": 192.21622049999996,
                        "value": 0
                    },
                    {
                        "number": 64,
                        "time": 194.55918599999995,
                        "value": 1
                    },
                    {
                        "number": 64,
                        "time": 195.23771549999995,
                        "value": 0
                    },
                    {
                        "number": 64,
                        "time": 195.75419249999996,
                        "value": 1
                    },
                    {
                        "number": 64,
                        "time": 196.23930449999995,
                        "value": 0
                    },
                    {
                        "number": 64,
                        "time": 201.30370649999995,
                        "value": 1
                    },
                    {
                        "number": 64,
                        "time": 202.25615699999994,
                        "value": 0
                    },
                    {
                        "number": 64,
                        "time": 202.31470499999995,
                        "value": 1
                    },
                    {
                        "number": 64,
                        "time": 203.41247999999996,
                        "value": 0
                    },
                    {
                        "number": 64,
                        "time": 203.71985699999996,
                        "value": 1
                    },
                    {
                        "number": 64,
                        "time": 204.72353699999996,
                        "value": 0
                    },
                    {
                        "number": 64,
                        "time": 207.53279549999996,
                        "value": 1
                    },
                    {
                        "number": 64,
                        "time": 208.26569099999998,
                        "value": 0
                    },
                    {
                        "number": 64,
                        "time": 209.88726149999997,
                        "value": 1
                    },
                    {
                        "number": 64,
                        "time": 210.27932399999997,
                        "value": 0
                    },
                    {
                        "number": 64,
                        "time": 210.80207399999998,
                        "value": 1
                    },
                    {
                        "number": 64,
                        "time": 211.28823149999997,
                        "value": 0
                    },
                    {
                        "number": 64,
                        "time": 211.81307249999998,
                        "value": 1
                    },
                    {
                        "number": 64,
                        "time": 212.28772949999998,
                        "value": 0
                    },
                    {
                        "number": 64,
                        "time": 212.7874785,
                        "value": 1
                    },
                    {
                        "number": 64,
                        "time": 213.296637,
                        "value": 0
                    },
                    {
                        "number": 64,
                        "time": 213.827751,
                        "value": 1
                    },
                    {
                        "number": 64,
                        "time": 214.2971805,
                        "value": 0
                    },
                    {
                        "number": 64,
                        "time": 214.82411249999998,
                        "value": 1
                    },
                    {
                        "number": 64,
                        "time": 215.306088,
                        "value": 0
                    },
                    {
                        "number": 64,
                        "time": 215.90934149999998,
                        "value": 1
                    },
                    {
                        "number": 64,
                        "time": 216.29513099999997,
                        "value": 0
                    },
                    {
                        "number": 64,
                        "time": 217.91670149999996,
                        "value": 1
                    },
                    {
                        "number": 64,
                        "time": 218.30876399999997,
                        "value": 0
                    },
                    {
                        "number": 64,
                        "time": 218.83151399999997,
                        "value": 1
                    },
                    {
                        "number": 64,
                        "time": 219.31767149999996,
                        "value": 0
                    },
                    {
                        "number": 64,
                        "time": 219.84251249999997,
                        "value": 1
                    },
                    {
                        "number": 64,
                        "time": 220.31716949999998,
                        "value": 0
                    },
                    {
                        "number": 64,
                        "time": 220.81691849999999,
                        "value": 1
                    },
                    {
                        "number": 64,
                        "time": 221.326077,
                        "value": 0
                    },
                    {
                        "number": 64,
                        "time": 221.857191,
                        "value": 1
                    },
                    {
                        "number": 64,
                        "time": 222.3266205,
                        "value": 0
                    },
                    {
                        "number": 64,
                        "time": 222.85355249999998,
                        "value": 1
                    },
                    {
                        "number": 64,
                        "time": 223.33552799999998,
                        "value": 0
                    },
                    {
                        "number": 64,
                        "time": 223.93878149999998,
                        "value": 1
                    },
                    {
                        "number": 64,
                        "time": 224.33084399999998,
                        "value": 0
                    },
                    {
                        "number": 64,
                        "time": 224.86091249999998,
                        "value": 1
                    },
                    {
                        "number": 64,
                        "time": 225.342888,
                        "value": 0
                    },
                    {
                        "number": 64,
                        "time": 225.94614149999998,
                        "value": 1
                    },
                    {
                        "number": 64,
                        "time": 226.338204,
                        "value": 0
                    },
                    {
                        "number": 64,
                        "time": 226.8682725,
                        "value": 1
                    },
                    {
                        "number": 64,
                        "time": 227.350248,
                        "value": 0
                    },
                    {
                        "number": 64,
                        "time": 227.96081999999998,
                        "value": 1
                    },
                    {
                        "number": 64,
                        "time": 228.353928,
                        "value": 0
                    },
                    {
                        "number": 64,
                        "time": 241.46868,
                        "value": 1
                    },
                    {
                        "number": 64,
                        "time": 242.399175,
                        "value": 0
                    },
                    {
                        "number": 64,
                        "time": 242.5194075,
                        "value": 1
                    },
                    {
                        "number": 64,
                        "time": 242.89056,
                        "value": 0
                    },
                    {
                        "number": 64,
                        "time": 243.4519935,
                        "value": 1
                    },
                    {
                        "number": 64,
                        "time": 244.4556735,
                        "value": 0
                    },
                    {
                        "number": 64,
                        "time": 244.5874065,
                        "value": 1
                    },
                    {
                        "number": 64,
                        "time": 244.89792,
                        "value": 0
                    },
                    {
                        "number": 64,
                        "time": 244.9512405,
                        "value": 1
                    },
                    {
                        "number": 64,
                        "time": 245.0829735,
                        "value": 0
                    },
                    {
                        "number": 64,
                        "time": 245.4530805,
                        "value": 1
                    },
                    {
                        "number": 64,
                        "time": 245.638134,
                        "value": 0
                    },
                    {
                        "number": 64,
                        "time": 247.185474,
                        "value": 1
                    },
                    {
                        "number": 64,
                        "time": 248.3072955,
                        "value": 0
                    },
                    {
                        "number": 64,
                        "time": 249.192834,
                        "value": 1
                    },
                    {
                        "number": 64,
                        "time": 250.31465550000001,
                        "value": 0
                    },
                    {
                        "number": 64,
                        "time": 251.0235045,
                        "value": 1
                    },
                    {
                        "number": 64,
                        "time": 251.9330895,
                        "value": 0
                    },
                    {
                        "number": 64,
                        "time": 252.14532599999998,
                        "value": 1
                    },
                    {
                        "number": 64,
                        "time": 252.92736,
                        "value": 0
                    },
                    {
                        "number": 64,
                        "time": 253.0747755,
                        "value": 1
                    },
                    {
                        "number": 64,
                        "time": 253.937313,
                        "value": 0
                    },
                    {
                        "number": 64,
                        "time": 254.152686,
                        "value": 1
                    },
                    {
                        "number": 64,
                        "time": 254.93472,
                        "value": 0
                    },
                    {
                        "number": 64,
                        "time": 255.1490475,
                        "value": 1
                    },
                    {
                        "number": 64,
                        "time": 255.9436275,
                        "value": 0
                    },
                    {
                        "number": 64,
                        "time": 256.0460865,
                        "value": 1
                    },
                    {
                        "number": 64,
                        "time": 256.94208,
                        "value": 0
                    },
                    {
                        "number": 64,
                        "time": 257.163726,
                        "value": 1
                    },
                    {
                        "number": 64,
                        "time": 257.96667,
                        "value": 0
                    },
                    {
                        "number": 64,
                        "time": 258.07853850000004,
                        "value": 1
                    },
                    {
                        "number": 64,
                        "time": 258.94944000000004,
                        "value": 0
                    },
                    {
                        "number": 64,
                        "time": 259.0529445,
                        "value": 1
                    },
                    {
                        "number": 64,
                        "time": 259.9625295,
                        "value": 0
                    },
                    {
                        "number": 64,
                        "time": 260.17476600000003,
                        "value": 1
                    },
                    {
                        "number": 64,
                        "time": 260.97143700000004,
                        "value": 0
                    },
                    {
                        "number": 64,
                        "time": 261.11885250000006,
                        "value": 1
                    },
                    {
                        "number": 64,
                        "time": 262.96416000000005,
                        "value": 0
                    },
                    {
                        "number": 64,
                        "time": 263.1784875000001,
                        "value": 1
                    },
                    {
                        "number": 64,
                        "time": 263.98561350000006,
                        "value": 0
                    },
                    {
                        "number": 64,
                        "time": 264.1591665000001,
                        "value": 1
                    },
                    {
                        "number": 64,
                        "time": 264.97152000000006,
                        "value": 0
                    },
                    {
                        "number": 64,
                        "time": 265.1189355000001,
                        "value": 1
                    },
                    {
                        "number": 64,
                        "time": 265.9804275000001,
                        "value": 0
                    },
                    {
                        "number": 64,
                        "time": 266.02642950000006,
                        "value": 1
                    },
                    {
                        "number": 64,
                        "time": 266.97888000000006,
                        "value": 0
                    },
                    {
                        "number": 64,
                        "time": 267.09806700000007,
                        "value": 1
                    },
                    {
                        "number": 64,
                        "time": 268.00033350000007,
                        "value": 0
                    },
                    {
                        "number": 64,
                        "time": 268.11324750000006,
                        "value": 1
                    },
                    {
                        "number": 64,
                        "time": 268.98624000000007,
                        "value": 0
                    },
                    {
                        "number": 64,
                        "time": 269.11901850000004,
                        "value": 1
                    },
                    {
                        "number": 64,
                        "time": 270.00351150000006,
                        "value": 0
                    },
                    {
                        "number": 64,
                        "time": 270.0076935000001,
                        "value": 0
                    },
                    {
                        "number": 64,
                        "time": 270.12060750000006,
                        "value": 1
                    },
                    {
                        "number": 64,
                        "time": 270.9936000000001,
                        "value": 0
                    },
                    {
                        "number": 64,
                        "time": 271.12637850000004,
                        "value": 1
                    },
                    {
                        "number": 64,
                        "time": 272.01191700000004,
                        "value": 0
                    },
                    {
                        "number": 64,
                        "time": 272.20638,
                        "value": 1
                    },
                    {
                        "number": 64,
                        "time": 273.00096,
                        "value": 0
                    },
                    {
                        "number": 64,
                        "time": 273.12014700000003,
                        "value": 1
                    },
                    {
                        "number": 64,
                        "time": 274.0224135,
                        "value": 0
                    },
                    {
                        "number": 64,
                        "time": 274.1353275,
                        "value": 1
                    },
                    {
                        "number": 64,
                        "time": 275.09196000000003,
                        "value": 0
                    },
                    {
                        "number": 64,
                        "time": 275.25924000000003,
                        "value": 1
                    },
                    {
                        "number": 64,
                        "time": 276.018273,
                        "value": 0
                    },
                    {
                        "number": 64,
                        "time": 276.1740525,
                        "value": 1
                    },
                    {
                        "number": 64,
                        "time": 276.52011300000004,
                        "value": 0
                    },
                    {
                        "number": 64,
                        "time": 276.64661850000005,
                        "value": 1
                    },
                    {
                        "number": 64,
                        "time": 277.02718050000004,
                        "value": 0
                    },
                    {
                        "number": 64,
                        "time": 277.13486700000004,
                        "value": 1
                    },
                    {
                        "number": 64,
                        "time": 277.525884,
                        "value": 0
                    },
                    {
                        "number": 64,
                        "time": 277.636707,
                        "value": 1
                    },
                    {
                        "number": 64,
                        "time": 278.0266785,
                        "value": 0
                    },
                    {
                        "number": 64,
                        "time": 278.1625935,
                        "value": 1
                    },
                    {
                        "number": 64,
                        "time": 278.53479150000004,
                        "value": 0
                    },
                    {
                        "number": 64,
                        "time": 278.64038700000003,
                        "value": 1
                    },
                    {
                        "number": 64,
                        "time": 279.10668000000004,
                        "value": 0
                    },
                    {
                        "number": 64,
                        "time": 279.27396000000005,
                        "value": 1
                    },
                    {
                        "number": 64,
                        "time": 280.03299300000003,
                        "value": 0
                    },
                    {
                        "number": 64,
                        "time": 280.1887725,
                        "value": 1
                    },
                    {
                        "number": 64,
                        "time": 280.53483300000005,
                        "value": 0
                    },
                    {
                        "number": 64,
                        "time": 280.66133850000006,
                        "value": 1
                    },
                    {
                        "number": 64,
                        "time": 281.04190050000005,
                        "value": 0
                    },
                    {
                        "number": 64,
                        "time": 281.14958700000005,
                        "value": 1
                    },
                    {
                        "number": 64,
                        "time": 281.54060400000003,
                        "value": 0
                    },
                    {
                        "number": 64,
                        "time": 281.651427,
                        "value": 1
                    },
                    {
                        "number": 64,
                        "time": 282.0413985,
                        "value": 0
                    },
                    {
                        "number": 64,
                        "time": 282.1773135,
                        "value": 1
                    },
                    {
                        "number": 64,
                        "time": 282.54951150000005,
                        "value": 0
                    },
                    {
                        "number": 64,
                        "time": 282.65510700000004,
                        "value": 1
                    },
                    {
                        "number": 64,
                        "time": 283.12140000000005,
                        "value": 0
                    },
                    {
                        "number": 64,
                        "time": 283.28868000000006,
                        "value": 1
                    },
                    {
                        "number": 64,
                        "time": 284.04771300000004,
                        "value": 0
                    },
                    {
                        "number": 64,
                        "time": 284.20349250000004,
                        "value": 1
                    },
                    {
                        "number": 64,
                        "time": 284.54955300000006,
                        "value": 0
                    },
                    {
                        "number": 64,
                        "time": 284.67605850000007,
                        "value": 1
                    },
                    {
                        "number": 64,
                        "time": 285.05662050000007,
                        "value": 0
                    },
                    {
                        "number": 64,
                        "time": 285.16430700000006,
                        "value": 1
                    },
                    {
                        "number": 64,
                        "time": 285.55532400000004,
                        "value": 0
                    },
                    {
                        "number": 64,
                        "time": 285.666147,
                        "value": 1
                    },
                    {
                        "number": 64,
                        "time": 286.0561185,
                        "value": 0
                    },
                    {
                        "number": 64,
                        "time": 286.19203350000004,
                        "value": 1
                    },
                    {
                        "number": 64,
                        "time": 286.56423150000006,
                        "value": 0
                    },
                    {
                        "number": 64,
                        "time": 286.66982700000005,
                        "value": 1
                    },
                    {
                        "number": 64,
                        "time": 287.13612000000006,
                        "value": 0
                    },
                    {
                        "number": 64,
                        "time": 287.30340000000007,
                        "value": 1
                    },
                    {
                        "number": 64,
                        "time": 288.06243300000006,
                        "value": 0
                    },
                    {
                        "number": 64,
                        "time": 288.21821250000005,
                        "value": 1
                    },
                    {
                        "number": 64,
                        "time": 288.56427300000007,
                        "value": 0
                    },
                    {
                        "number": 64,
                        "time": 288.6907785000001,
                        "value": 1
                    },
                    {
                        "number": 64,
                        "time": 289.0713405000001,
                        "value": 0
                    },
                    {
                        "number": 64,
                        "time": 289.1790270000001,
                        "value": 1
                    },
                    {
                        "number": 64,
                        "time": 289.57004400000005,
                        "value": 0
                    },
                    {
                        "number": 64,
                        "time": 289.68086700000003,
                        "value": 1
                    },
                    {
                        "number": 64,
                        "time": 290.07083850000004,
                        "value": 0
                    },
                    {
                        "number": 64,
                        "time": 290.20675350000005,
                        "value": 1
                    },
                    {
                        "number": 64,
                        "time": 290.5789515000001,
                        "value": 0
                    },
                    {
                        "number": 64,
                        "time": 290.68454700000007,
                        "value": 1
                    },
                    {
                        "number": 64,
                        "time": 291.06720000000007,
                        "value": 0
                    },
                    {
                        "number": 64,
                        "time": 291.19997850000004,
                        "value": 1
                    },
                    {
                        "number": 64,
                        "time": 292.07819850000004,
                        "value": 0
                    },
                    {
                        "number": 64,
                        "time": 292.2036585,
                        "value": 1
                    },
                    {
                        "number": 64,
                        "time": 293.07456,
                        "value": 0
                    },
                    {
                        "number": 64,
                        "time": 293.2073385,
                        "value": 1
                    },
                    {
                        "number": 64,
                        "time": 294.0855585,
                        "value": 0
                    },
                    {
                        "number": 64,
                        "time": 294.21101849999997,
                        "value": 1
                    },
                    {
                        "number": 64,
                        "time": 295.08191999999997,
                        "value": 0
                    },
                    {
                        "number": 64,
                        "time": 295.21469849999994,
                        "value": 1
                    },
                    {
                        "number": 64,
                        "time": 296.09291849999994,
                        "value": 0
                    },
                    {
                        "number": 64,
                        "time": 296.2183784999999,
                        "value": 1
                    },
                    {
                        "number": 64,
                        "time": 297.0892799999999,
                        "value": 0
                    },
                    {
                        "number": 64,
                        "time": 297.2220584999999,
                        "value": 1
                    },
                    {
                        "number": 64,
                        "time": 298.1002784999999,
                        "value": 0
                    },
                    {
                        "number": 64,
                        "time": 298.22573849999986,
                        "value": 1
                    },
                    {
                        "number": 64,
                        "time": 299.09663999999987,
                        "value": 0
                    },
                    {
                        "number": 64,
                        "time": 299.22209999999984,
                        "value": 1
                    },
                    {
                        "number": 64,
                        "time": 300.11495699999983,
                        "value": 0
                    },
                    {
                        "number": 64,
                        "time": 303.1113599999998,
                        "value": 0
                    },
                    {
                        "number": 64,
                        "time": 303.2368199999998,
                        "value": 1
                    },
                    {
                        "number": 64,
                        "time": 304.1296769999998,
                        "value": 0
                    },
                    {
                        "number": 64,
                        "time": 313.2913934999998,
                        "value": 1
                    },
                    {
                        "number": 64,
                        "time": 314.1633404999998,
                        "value": 0
                    },
                    {
                        "number": 64,
                        "time": 314.31911999999977,
                        "value": 1
                    },
                    {
                        "number": 64,
                        "time": 315.1555199999998,
                        "value": 0
                    },
                    {
                        "number": 64,
                        "time": 315.2987534999998,
                        "value": 1
                    },
                    {
                        "number": 64,
                        "time": 316.1707004999998,
                        "value": 0
                    },
                    {
                        "number": 64,
                        "time": 316.3024334999998,
                        "value": 1
                    },
                    {
                        "number": 64,
                        "time": 317.1733349999998,
                        "value": 0
                    },
                    {
                        "number": 64,
                        "time": 317.30611349999975,
                        "value": 1
                    },
                    {
                        "number": 64,
                        "time": 318.18224249999975,
                        "value": 0
                    },
                    {
                        "number": 64,
                        "time": 318.3578864999997,
                        "value": 1
                    },
                    {
                        "number": 64,
                        "time": 319.1702399999997,
                        "value": 0
                    },
                    {
                        "number": 64,
                        "time": 323.2685999999997,
                        "value": 0
                    },
                    {
                        "number": 64,
                        "time": 323.4358799999997,
                        "value": 1
                    },
                    {
                        "number": 64,
                        "time": 324.1949129999997,
                        "value": 0
                    },
                    {
                        "number": 64,
                        "time": 324.3506924999997,
                        "value": 1
                    },
                    {
                        "number": 64,
                        "time": 324.6967529999997,
                        "value": 0
                    },
                    {
                        "number": 64,
                        "time": 324.8232584999997,
                        "value": 1
                    },
                    {
                        "number": 64,
                        "time": 325.2038204999997,
                        "value": 0
                    },
                    {
                        "number": 64,
                        "time": 325.3115069999997,
                        "value": 1
                    },
                    {
                        "number": 64,
                        "time": 325.7025239999997,
                        "value": 0
                    },
                    {
                        "number": 64,
                        "time": 325.8133469999997,
                        "value": 1
                    },
                    {
                        "number": 64,
                        "time": 326.2033184999997,
                        "value": 0
                    },
                    {
                        "number": 64,
                        "time": 326.3392334999997,
                        "value": 1
                    },
                    {
                        "number": 64,
                        "time": 326.7114314999997,
                        "value": 0
                    },
                    {
                        "number": 64,
                        "time": 326.8170269999997,
                        "value": 1
                    },
                    {
                        "number": 64,
                        "time": 327.2833199999997,
                        "value": 0
                    },
                    {
                        "number": 64,
                        "time": 327.4505999999997,
                        "value": 1
                    },
                    {
                        "number": 64,
                        "time": 327.7161569999997,
                        "value": 0
                    },
                    {
                        "number": 64,
                        "time": 327.85625399999975,
                        "value": 1
                    },
                    {
                        "number": 64,
                        "time": 328.20963299999977,
                        "value": 0
                    },
                    {
                        "number": 64,
                        "time": 328.36541249999976,
                        "value": 1
                    },
                    {
                        "number": 64,
                        "time": 328.7114729999998,
                        "value": 0
                    },
                    {
                        "number": 64,
                        "time": 328.8379784999998,
                        "value": 1
                    },
                    {
                        "number": 64,
                        "time": 329.2185404999998,
                        "value": 0
                    },
                    {
                        "number": 64,
                        "time": 329.3262269999998,
                        "value": 1
                    },
                    {
                        "number": 64,
                        "time": 329.7161984999998,
                        "value": 0
                    },
                    {
                        "number": 64,
                        "time": 329.8395674999998,
                        "value": 1
                    },
                    {
                        "number": 64,
                        "time": 330.2180384999998,
                        "value": 0
                    },
                    {
                        "number": 64,
                        "time": 330.3539534999998,
                        "value": 1
                    },
                    {
                        "number": 64,
                        "time": 330.72615149999984,
                        "value": 0
                    },
                    {
                        "number": 64,
                        "time": 330.83174699999984,
                        "value": 1
                    },
                    {
                        "number": 64,
                        "time": 331.22590049999985,
                        "value": 0
                    },
                    {
                        "number": 64,
                        "time": 331.33358699999985,
                        "value": 1
                    },
                    {
                        "number": 64,
                        "time": 332.22539849999987,
                        "value": 0
                    },
                    {
                        "number": 64,
                        "time": 332.3613134999999,
                        "value": 1
                    },
                    {
                        "number": 64,
                        "time": 332.7335114999999,
                        "value": 0
                    },
                    {
                        "number": 64,
                        "time": 332.8391069999999,
                        "value": 1
                    },
                    {
                        "number": 64,
                        "time": 333.2332604999999,
                        "value": 0
                    },
                    {
                        "number": 64,
                        "time": 333.3409469999999,
                        "value": 1
                    },
                    {
                        "number": 64,
                        "time": 334.23275849999993,
                        "value": 0
                    },
                    {
                        "number": 64,
                        "time": 334.36867349999994,
                        "value": 1
                    },
                    {
                        "number": 64,
                        "time": 335.2406204999999,
                        "value": 0
                    },
                    {
                        "number": 64,
                        "time": 335.3483069999999,
                        "value": 1
                    },
                    {
                        "number": 64,
                        "time": 336.24011849999994,
                        "value": 0
                    },
                    {
                        "number": 64,
                        "time": 336.37603349999995,
                        "value": 1
                    },
                    {
                        "number": 64,
                        "time": 337.2479804999999,
                        "value": 0
                    },
                    {
                        "number": 64,
                        "time": 337.3556669999999,
                        "value": 1
                    },
                    {
                        "number": 64,
                        "time": 338.24747849999994,
                        "value": 0
                    },
                    {
                        "number": 64,
                        "time": 338.38339349999995,
                        "value": 1
                    },
                    {
                        "number": 64,
                        "time": 339.25534049999993,
                        "value": 0
                    },
                    {
                        "number": 64,
                        "time": 339.36302699999993,
                        "value": 1
                    },
                    {
                        "number": 64,
                        "time": 340.25483849999995,
                        "value": 0
                    },
                    {
                        "number": 64,
                        "time": 340.39075349999996,
                        "value": 1
                    },
                    {
                        "number": 64,
                        "time": 341.26270049999994,
                        "value": 0
                    },
                    {
                        "number": 64,
                        "time": 341.37038699999994,
                        "value": 1
                    },
                    {
                        "number": 64,
                        "time": 342.26219849999995,
                        "value": 0
                    },
                    {
                        "number": 64,
                        "time": 342.39811349999997,
                        "value": 1
                    },
                    {
                        "number": 64,
                        "time": 343.25856,
                        "value": 0
                    },
                    {
                        "number": 64,
                        "time": 343.3662465,
                        "value": 1
                    },
                    {
                        "number": 64,
                        "time": 343.511571,
                        "value": 0
                    },
                    {
                        "number": 64,
                        "time": 343.6401675,
                        "value": 1
                    },
                    {
                        "number": 64,
                        "time": 343.77608250000003,
                        "value": 0
                    },
                    {
                        "number": 64,
                        "time": 343.9036335,
                        "value": 1
                    },
                    {
                        "number": 64,
                        "time": 344.021775,
                        "value": 0
                    },
                    {
                        "number": 64,
                        "time": 344.13050699999997,
                        "value": 1
                    },
                    {
                        "number": 64,
                        "time": 344.2737405,
                        "value": 0
                    },
                    {
                        "number": 64,
                        "time": 344.3573805,
                        "value": 1
                    },
                    {
                        "number": 64,
                        "time": 344.52047849999997,
                        "value": 0
                    },
                    {
                        "number": 64,
                        "time": 344.632347,
                        "value": 1
                    },
                    {
                        "number": 64,
                        "time": 344.7776715,
                        "value": 0
                    },
                    {
                        "number": 64,
                        "time": 344.8592205,
                        "value": 1
                    },
                    {
                        "number": 64,
                        "time": 345.0285915,
                        "value": 0
                    },
                    {
                        "number": 64,
                        "time": 345.1101405,
                        "value": 1
                    },
                    {
                        "number": 64,
                        "time": 345.26592,
                        "value": 0
                    },
                    {
                        "number": 64,
                        "time": 345.35792399999997,
                        "value": 1
                    },
                    {
                        "number": 64,
                        "time": 345.52624949999995,
                        "value": 0
                    },
                    {
                        "number": 64,
                        "time": 345.59629799999993,
                        "value": 1
                    },
                    {
                        "number": 64,
                        "time": 345.7761239999999,
                        "value": 0
                    },
                    {
                        "number": 64,
                        "time": 345.84721799999994,
                        "value": 1
                    },
                    {
                        "number": 64,
                        "time": 346.02913499999994,
                        "value": 0
                    },
                    {
                        "number": 64,
                        "time": 346.09081949999995,
                        "value": 1
                    },
                    {
                        "number": 64,
                        "time": 346.27691849999997,
                        "value": 0
                    },
                    {
                        "number": 64,
                        "time": 346.33546649999994,
                        "value": 1
                    },
                    {
                        "number": 64,
                        "time": 347.27327999999994,
                        "value": 0
                    },
                    {
                        "number": 64,
                        "time": 347.32137299999994,
                        "value": 1
                    },
                    {
                        "number": 64,
                        "time": 347.53883699999994,
                        "value": 0
                    },
                    {
                        "number": 64,
                        "time": 347.5754294999999,
                        "value": 1
                    },
                    {
                        "number": 64,
                        "time": 347.78975699999995,
                        "value": 0
                    },
                    {
                        "number": 64,
                        "time": 347.82321299999995,
                        "value": 1
                    },
                    {
                        "number": 64,
                        "time": 348.03231299999993,
                        "value": 0
                    },
                    {
                        "number": 64,
                        "time": 348.07726949999994,
                        "value": 1
                    },
                    {
                        "number": 64,
                        "time": 348.29473349999995,
                        "value": 0
                    },
                    {
                        "number": 64,
                        "time": 348.3961469999999,
                        "value": 1
                    },
                    {
                        "number": 64,
                        "time": 349.28063999999995,
                        "value": 0
                    },
                    {
                        "number": 64,
                        "time": 349.48660349999994,
                        "value": 1
                    },
                    {
                        "number": 64,
                        "time": 350.29059299999994,
                        "value": 0
                    },
                    {
                        "number": 64,
                        "time": 350.44637249999994,
                        "value": 1
                    },
                    {
                        "number": 64,
                        "time": 350.79243299999996,
                        "value": 0
                    },
                    {
                        "number": 64,
                        "time": 350.91893849999997,
                        "value": 1
                    },
                    {
                        "number": 64,
                        "time": 351.29950049999997,
                        "value": 0
                    },
                    {
                        "number": 64,
                        "time": 351.40718699999996,
                        "value": 1
                    },
                    {
                        "number": 64,
                        "time": 351.79820399999994,
                        "value": 0
                    },
                    {
                        "number": 64,
                        "time": 351.9090269999999,
                        "value": 1
                    },
                    {
                        "number": 64,
                        "time": 352.2989984999999,
                        "value": 0
                    },
                    {
                        "number": 64,
                        "time": 352.43491349999994,
                        "value": 1
                    },
                    {
                        "number": 64,
                        "time": 352.80711149999996,
                        "value": 0
                    },
                    {
                        "number": 64,
                        "time": 352.91270699999995,
                        "value": 1
                    },
                    {
                        "number": 64,
                        "time": 353.37899999999996,
                        "value": 0
                    },
                    {
                        "number": 64,
                        "time": 353.54627999999997,
                        "value": 1
                    },
                    {
                        "number": 64,
                        "time": 353.81183699999997,
                        "value": 0
                    },
                    {
                        "number": 64,
                        "time": 353.951934,
                        "value": 1
                    },
                    {
                        "number": 64,
                        "time": 354.305313,
                        "value": 0
                    },
                    {
                        "number": 64,
                        "time": 354.4610925,
                        "value": 1
                    },
                    {
                        "number": 64,
                        "time": 354.807153,
                        "value": 0
                    },
                    {
                        "number": 64,
                        "time": 354.93365850000004,
                        "value": 1
                    },
                    {
                        "number": 64,
                        "time": 355.38636,
                        "value": 0
                    },
                    {
                        "number": 64,
                        "time": 355.55364000000003,
                        "value": 1
                    },
                    {
                        "number": 64,
                        "time": 355.81919700000003,
                        "value": 0
                    },
                    {
                        "number": 64,
                        "time": 355.95929400000006,
                        "value": 1
                    },
                    {
                        "number": 64,
                        "time": 356.3126730000001,
                        "value": 0
                    },
                    {
                        "number": 64,
                        "time": 356.46845250000007,
                        "value": 1
                    },
                    {
                        "number": 64,
                        "time": 356.8145130000001,
                        "value": 0
                    },
                    {
                        "number": 64,
                        "time": 356.9410185000001,
                        "value": 1
                    },
                    {
                        "number": 64,
                        "time": 357.3100800000001,
                        "value": 0
                    },
                    {
                        "number": 64,
                        "time": 357.4407675000001,
                        "value": 1
                    },
                    {
                        "number": 64,
                        "time": 358.0732950000001,
                        "value": 0
                    },
                    {
                        "number": 64,
                        "time": 358.4758125000001,
                        "value": 1
                    },
                    {
                        "number": 64,
                        "time": 358.8218730000001,
                        "value": 0
                    },
                    {
                        "number": 64,
                        "time": 358.9483785000001,
                        "value": 1
                    },
                    {
                        "number": 64,
                        "time": 359.3289405000001,
                        "value": 0
                    },
                    {
                        "number": 64,
                        "time": 359.4366270000001,
                        "value": 1
                    },
                    {
                        "number": 64,
                        "time": 359.8276440000001,
                        "value": 0
                    },
                    {
                        "number": 64,
                        "time": 359.93846700000006,
                        "value": 1
                    },
                    {
                        "number": 64,
                        "time": 360.32843850000006,
                        "value": 0
                    },
                    {
                        "number": 64,
                        "time": 360.4643535000001,
                        "value": 1
                    },
                    {
                        "number": 64,
                        "time": 360.8365515000001,
                        "value": 0
                    },
                    {
                        "number": 64,
                        "time": 360.9421470000001,
                        "value": 1
                    },
                    {
                        "number": 64,
                        "time": 361.4084400000001,
                        "value": 0
                    },
                    {
                        "number": 64,
                        "time": 361.5757200000001,
                        "value": 1
                    },
                    {
                        "number": 64,
                        "time": 361.8412770000001,
                        "value": 0
                    },
                    {
                        "number": 64,
                        "time": 361.98137400000013,
                        "value": 1
                    },
                    {
                        "number": 64,
                        "time": 362.33475300000015,
                        "value": 0
                    },
                    {
                        "number": 64,
                        "time": 362.49053250000014,
                        "value": 1
                    },
                    {
                        "number": 64,
                        "time": 362.83659300000016,
                        "value": 0
                    },
                    {
                        "number": 64,
                        "time": 362.96309850000017,
                        "value": 1
                    },
                    {
                        "number": 64,
                        "time": 363.41580000000016,
                        "value": 0
                    },
                    {
                        "number": 64,
                        "time": 363.58308000000017,
                        "value": 1
                    },
                    {
                        "number": 64,
                        "time": 363.84863700000017,
                        "value": 0
                    },
                    {
                        "number": 64,
                        "time": 363.9887340000002,
                        "value": 1
                    },
                    {
                        "number": 64,
                        "time": 364.3421130000002,
                        "value": 0
                    },
                    {
                        "number": 64,
                        "time": 364.4978925000002,
                        "value": 1
                    },
                    {
                        "number": 64,
                        "time": 364.8439530000002,
                        "value": 0
                    },
                    {
                        "number": 64,
                        "time": 364.97045850000023,
                        "value": 1
                    },
                    {
                        "number": 64,
                        "time": 365.3395200000002,
                        "value": 0
                    },
                    {
                        "number": 64,
                        "time": 365.51620950000023,
                        "value": 1
                    },
                    {
                        "number": 64,
                        "time": 366.34633650000023,
                        "value": 0
                    },
                    {
                        "number": 64,
                        "time": 366.5052525000002,
                        "value": 1
                    },
                    {
                        "number": 64,
                        "time": 367.3468800000002,
                        "value": 0
                    },
                    {
                        "number": 64,
                        "time": 367.46606700000024,
                        "value": 1
                    },
                    {
                        "number": 64,
                        "time": 369.35424000000023,
                        "value": 0
                    },
                    {
                        "number": 64,
                        "time": 369.53092950000024,
                        "value": 1
                    },
                    {
                        "number": 64,
                        "time": 370.36105650000025,
                        "value": 0
                    },
                    {
                        "number": 64,
                        "time": 370.5199725000002,
                        "value": 1
                    },
                    {
                        "number": 64,
                        "time": 371.36160000000024,
                        "value": 0
                    },
                    {
                        "number": 64,
                        "time": 371.48078700000025,
                        "value": 1
                    },
                    {
                        "number": 64,
                        "time": 372.74688750000024,
                        "value": 0
                    },
                    {
                        "number": 64,
                        "time": 372.90266700000024,
                        "value": 1
                    },
                    {
                        "number": 64,
                        "time": 374.39564100000024,
                        "value": 0
                    },
                    {
                        "number": 64,
                        "time": 374.5786035000002,
                        "value": 1
                    },
                    {
                        "number": 64,
                        "time": 374.89120800000023,
                        "value": 0
                    },
                    {
                        "number": 64,
                        "time": 375.03653250000025,
                        "value": 1
                    },
                    {
                        "number": 64,
                        "time": 375.37632000000025,
                        "value": 0
                    },
                    {
                        "number": 64,
                        "time": 375.5739195000003,
                        "value": 1
                    },
                    {
                        "number": 64,
                        "time": 376.41972900000025,
                        "value": 0
                    },
                    {
                        "number": 64,
                        "time": 376.57759950000025,
                        "value": 1
                    },
                    {
                        "number": 64,
                        "time": 376.8922950000003,
                        "value": 0
                    },
                    {
                        "number": 64,
                        "time": 377.0930310000003,
                        "value": 1
                    },
                    {
                        "number": 64,
                        "time": 377.38368000000025,
                        "value": 0
                    },
                    {
                        "number": 64,
                        "time": 377.6053260000003,
                        "value": 1
                    },
                    {
                        "number": 64,
                        "time": 377.90015700000026,
                        "value": 0
                    },
                    {
                        "number": 64,
                        "time": 378.0475725000003,
                        "value": 1
                    },
                    {
                        "number": 64,
                        "time": 378.39990600000027,
                        "value": 0
                    },
                    {
                        "number": 64,
                        "time": 378.5640495000003,
                        "value": 1
                    },
                    {
                        "number": 64,
                        "time": 378.8996550000003,
                        "value": 0
                    },
                    {
                        "number": 64,
                        "time": 379.0219785000003,
                        "value": 1
                    },
                    {
                        "number": 64,
                        "time": 379.39104000000026,
                        "value": 0
                    },
                    {
                        "number": 64,
                        "time": 379.55832000000026,
                        "value": 1
                    },
                    {
                        "number": 64,
                        "time": 380.4114480000003,
                        "value": 0
                    },
                    {
                        "number": 64,
                        "time": 380.5975470000003,
                        "value": 1
                    },
                    {
                        "number": 64,
                        "time": 380.9080605000003,
                        "value": 0
                    },
                    {
                        "number": 64,
                        "time": 381.0157470000003,
                        "value": 1
                    },
                    {
                        "number": 64,
                        "time": 381.3419430000003,
                        "value": 0
                    },
                    {
                        "number": 64,
                        "time": 381.5019045000003,
                        "value": 1
                    },
                    {
                        "number": 64,
                        "time": 382.4167170000003,
                        "value": 0
                    },
                    {
                        "number": 64,
                        "time": 382.4899020000003,
                        "value": 1
                    },
                    {
                        "number": 64,
                        "time": 382.9258755000003,
                        "value": 0
                    },
                    {
                        "number": 64,
                        "time": 383.48940000000033,
                        "value": 1
                    },
                    {
                        "number": 64,
                        "time": 384.42721350000033,
                        "value": 0
                    },
                    {
                        "number": 64,
                        "time": 384.49830750000035,
                        "value": 1
                    },
                    {
                        "number": 64,
                        "time": 385.41312000000033,
                        "value": 0
                    },
                    {
                        "number": 64,
                        "time": 385.5166245000003,
                        "value": 1
                    },
                    {
                        "number": 64,
                        "time": 386.4314370000003,
                        "value": 0
                    },
                    {
                        "number": 64,
                        "time": 386.5046220000003,
                        "value": 1
                    },
                    {
                        "number": 64,
                        "time": 386.9405955000003,
                        "value": 0
                    },
                    {
                        "number": 64,
                        "time": 387.50412000000034,
                        "value": 1
                    },
                    {
                        "number": 64,
                        "time": 388.44193350000035,
                        "value": 0
                    },
                    {
                        "number": 64,
                        "time": 388.48689000000036,
                        "value": 1
                    },
                    {
                        "number": 64,
                        "time": 389.42993100000035,
                        "value": 0
                    },
                    {
                        "number": 64,
                        "time": 389.53239000000036,
                        "value": 1
                    },
                    {
                        "number": 64,
                        "time": 390.44929350000035,
                        "value": 0
                    },
                    {
                        "number": 64,
                        "time": 390.50261400000034,
                        "value": 1
                    },
                    {
                        "number": 64,
                        "time": 390.95008800000033,
                        "value": 0
                    },
                    {
                        "number": 64,
                        "time": 390.99295350000034,
                        "value": 1
                    },
                    {
                        "number": 64,
                        "time": 391.46865600000035,
                        "value": 0
                    },
                    {
                        "number": 64,
                        "time": 395.53356000000036,
                        "value": 1
                    },
                    {
                        "number": 64,
                        "time": 396.45360000000034,
                        "value": 0
                    },
                    {
                        "number": 64,
                        "time": 396.57278700000035,
                        "value": 1
                    },
                    {
                        "number": 64,
                        "time": 397.21786050000037,
                        "value": 0
                    },
                    {
                        "number": 64,
                        "time": 397.32554700000037,
                        "value": 1
                    },
                    {
                        "number": 64,
                        "time": 397.45728000000037,
                        "value": 0
                    },
                    {
                        "number": 64,
                        "time": 397.76152050000036,
                        "value": 1
                    },
                    {
                        "number": 64,
                        "time": 398.21213100000034,
                        "value": 0
                    },
                    {
                        "number": 64,
                        "time": 398.26963350000034,
                        "value": 1
                    },
                    {
                        "number": 64,
                        "time": 398.9763915000003,
                        "value": 0
                    },
                    {
                        "number": 64,
                        "time": 399.5482800000003,
                        "value": 1
                    },
                    {
                        "number": 64,
                        "time": 400.4683200000003,
                        "value": 0
                    },
                    {
                        "number": 64,
                        "time": 400.5875070000003,
                        "value": 1
                    },
                    {
                        "number": 64,
                        "time": 401.2325805000003,
                        "value": 0
                    },
                    {
                        "number": 64,
                        "time": 401.3402670000003,
                        "value": 1
                    },
                    {
                        "number": 64,
                        "time": 401.4720000000003,
                        "value": 0
                    },
                    {
                        "number": 64,
                        "time": 401.7762405000003,
                        "value": 1
                    },
                    {
                        "number": 64,
                        "time": 402.2268510000003,
                        "value": 0
                    },
                    {
                        "number": 64,
                        "time": 402.2843535000003,
                        "value": 1
                    },
                    {
                        "number": 64,
                        "time": 402.9911115000003,
                        "value": 0
                    },
                    {
                        "number": 64,
                        "time": 403.5630000000003,
                        "value": 1
                    },
                    {
                        "number": 64,
                        "time": 404.48304000000024,
                        "value": 0
                    },
                    {
                        "number": 64,
                        "time": 404.60222700000025,
                        "value": 1
                    },
                    {
                        "number": 64,
                        "time": 405.2473005000003,
                        "value": 0
                    },
                    {
                        "number": 64,
                        "time": 405.3549870000003,
                        "value": 1
                    },
                    {
                        "number": 64,
                        "time": 405.4867200000003,
                        "value": 0
                    },
                    {
                        "number": 64,
                        "time": 405.55154100000027,
                        "value": 1
                    },
                    {
                        "number": 64,
                        "time": 405.99483300000026,
                        "value": 0
                    },
                    {
                        "number": 64,
                        "time": 406.6158600000003,
                        "value": 1
                    },
                    {
                        "number": 64,
                        "time": 407.0058315000003,
                        "value": 0
                    },
                    {
                        "number": 64,
                        "time": 407.5181265000003,
                        "value": 1
                    },
                    {
                        "number": 64,
                        "time": 408.5155335000003,
                        "value": 0
                    },
                    {
                        "number": 64,
                        "time": 408.66504000000026,
                        "value": 1
                    },
                    {
                        "number": 64,
                        "time": 409.01528250000024,
                        "value": 0
                    },
                    {
                        "number": 64,
                        "time": 409.15433400000023,
                        "value": 1
                    },
                    {
                        "number": 64,
                        "time": 409.50144000000023,
                        "value": 0
                    },
                    {
                        "number": 64,
                        "time": 409.58508000000023,
                        "value": 1
                    },
                    {
                        "number": 64,
                        "time": 409.76386050000025,
                        "value": 0
                    },
                    {
                        "number": 64,
                        "time": 410.07437400000026,
                        "value": 1
                    },
                    {
                        "number": 64,
                        "time": 411.01532400000025,
                        "value": 0
                    },
                    {
                        "number": 64,
                        "time": 411.50880000000024,
                        "value": 0
                    },
                    {
                        "number": 64,
                        "time": 411.59244000000024,
                        "value": 1
                    },
                    {
                        "number": 64,
                        "time": 411.77122050000025,
                        "value": 0
                    },
                    {
                        "number": 64,
                        "time": 412.08173400000027,
                        "value": 1
                    },
                    {
                        "number": 64,
                        "time": 413.02268400000025,
                        "value": 0
                    },
                    {
                        "number": 64,
                        "time": 413.51616000000024,
                        "value": 0
                    },
                    {
                        "number": 64,
                        "time": 413.59980000000024,
                        "value": 1
                    },
                    {
                        "number": 64,
                        "time": 413.77858050000026,
                        "value": 0
                    },
                    {
                        "number": 64,
                        "time": 414.0890940000003,
                        "value": 1
                    },
                    {
                        "number": 64,
                        "time": 415.03004400000026,
                        "value": 0
                    },
                    {
                        "number": 64,
                        "time": 415.52352000000025,
                        "value": 0
                    },
                    {
                        "number": 64,
                        "time": 415.60716000000025,
                        "value": 1
                    },
                    {
                        "number": 64,
                        "time": 415.78594050000027,
                        "value": 0
                    },
                    {
                        "number": 64,
                        "time": 416.0964540000003,
                        "value": 1
                    },
                    {
                        "number": 64,
                        "time": 417.03740400000027,
                        "value": 0
                    },
                    {
                        "number": 64,
                        "time": 417.53088000000025,
                        "value": 1
                    },
                    {
                        "number": 64,
                        "time": 418.54292400000026,
                        "value": 0
                    },
                    {
                        "number": 64,
                        "time": 418.67988450000024,
                        "value": 1
                    },
                    {
                        "number": 64,
                        "time": 419.53824000000026,
                        "value": 0
                    },
                    {
                        "number": 64,
                        "time": 419.63965350000024,
                        "value": 1
                    },
                    {
                        "number": 64,
                        "time": 420.55342050000024,
                        "value": 0
                    },
                    {
                        "number": 64,
                        "time": 420.67469850000026,
                        "value": 1
                    },
                    {
                        "number": 64,
                        "time": 421.54560000000026,
                        "value": 0
                    },
                    {
                        "number": 64,
                        "time": 421.63760400000024,
                        "value": 1
                    },
                    {
                        "number": 64,
                        "time": 422.55555300000026,
                        "value": 0
                    },
                    {
                        "number": 64,
                        "time": 422.6548755000003,
                        "value": 1
                    },
                    {
                        "number": 64,
                        "time": 423.31876800000026,
                        "value": 0
                    },
                    {
                        "number": 64,
                        "time": 423.55296000000027,
                        "value": 0
                    },
                    {
                        "number": 64,
                        "time": 423.64496400000024,
                        "value": 1
                    },
                    {
                        "number": 64,
                        "time": 424.56291300000026,
                        "value": 0
                    },
                    {
                        "number": 64,
                        "time": 424.6622355000003,
                        "value": 1
                    },
                    {
                        "number": 64,
                        "time": 425.32612800000027,
                        "value": 0
                    },
                    {
                        "number": 64,
                        "time": 425.5603200000003,
                        "value": 1
                    },
                    {
                        "number": 64,
                        "time": 426.5483175000003,
                        "value": 0
                    },
                    {
                        "number": 64,
                        "time": 426.61627500000026,
                        "value": 1
                    },
                    {
                        "number": 64,
                        "time": 427.07315850000026,
                        "value": 0
                    },
                    {
                        "number": 64,
                        "time": 427.5676800000003,
                        "value": 1
                    },
                    {
                        "number": 64,
                        "time": 428.0747475000003,
                        "value": 0
                    },
                    {
                        "number": 64,
                        "time": 428.1479325000003,
                        "value": 1
                    },
                    {
                        "number": 64,
                        "time": 428.5807695000003,
                        "value": 0
                    },
                    {
                        "number": 64,
                        "time": 428.6497725000003,
                        "value": 1
                    },
                    {
                        "number": 64,
                        "time": 429.08888250000035,
                        "value": 0
                    },
                    {
                        "number": 64,
                        "time": 429.17252250000035,
                        "value": 1
                    },
                    {
                        "number": 64,
                        "time": 429.57504000000034,
                        "value": 0
                    },
                    {
                        "number": 64,
                        "time": 429.73291050000034,
                        "value": 1
                    },
                    {
                        "number": 64,
                        "time": 430.59649350000035,
                        "value": 0
                    },
                    {
                        "number": 64,
                        "time": 430.68431550000037,
                        "value": 1
                    },
                    {
                        "number": 64,
                        "time": 431.34298050000035,
                        "value": 0
                    },
                    {
                        "number": 64,
                        "time": 431.60226450000033,
                        "value": 1
                    },
                    {
                        "number": 64,
                        "time": 432.6028080000003,
                        "value": 0
                    },
                    {
                        "number": 64,
                        "time": 432.7042215000003,
                        "value": 1
                    },
                    {
                        "number": 64,
                        "time": 433.3555680000003,
                        "value": 0
                    },
                    {
                        "number": 64,
                        "time": 433.5897600000003,
                        "value": 1
                    },
                    {
                        "number": 64,
                        "time": 434.6007585000003,
                        "value": 0
                    },
                    {
                        "number": 64,
                        "time": 434.67185250000034,
                        "value": 1
                    },
                    {
                        "number": 64,
                        "time": 435.10782600000033,
                        "value": 0
                    },
                    {
                        "number": 64,
                        "time": 435.17369250000036,
                        "value": 1
                    },
                    {
                        "number": 64,
                        "time": 435.59712000000036,
                        "value": 0
                    },
                    {
                        "number": 64,
                        "time": 435.68598750000035,
                        "value": 1
                    },
                    {
                        "number": 64,
                        "time": 436.11150600000036,
                        "value": 0
                    },
                    {
                        "number": 64,
                        "time": 436.1773725000004,
                        "value": 1
                    },
                    {
                        "number": 64,
                        "time": 436.6008000000004,
                        "value": 0
                    },
                    {
                        "number": 64,
                        "time": 436.6896675000004,
                        "value": 1
                    },
                    {
                        "number": 64,
                        "time": 437.1151860000004,
                        "value": 0
                    },
                    {
                        "number": 64,
                        "time": 437.1705975000004,
                        "value": 1
                    },
                    {
                        "number": 64,
                        "time": 437.60448000000036,
                        "value": 0
                    },
                    {
                        "number": 64,
                        "time": 437.60448000000036,
                        "value": 0
                    },
                    {
                        "number": 64,
                        "time": 437.69648400000034,
                        "value": 1
                    },
                    {
                        "number": 64,
                        "time": 438.61443300000036,
                        "value": 0
                    },
                    {
                        "number": 64,
                        "time": 438.7137555000004,
                        "value": 1
                    },
                    {
                        "number": 64,
                        "time": 439.37764800000036,
                        "value": 0
                    },
                    {
                        "number": 64,
                        "time": 439.61184000000037,
                        "value": 0
                    },
                    {
                        "number": 64,
                        "time": 439.70384400000034,
                        "value": 1
                    },
                    {
                        "number": 64,
                        "time": 440.62179300000037,
                        "value": 0
                    },
                    {
                        "number": 64,
                        "time": 440.7211155000004,
                        "value": 1
                    },
                    {
                        "number": 64,
                        "time": 441.38500800000037,
                        "value": 0
                    },
                    {
                        "number": 64,
                        "time": 441.6192000000004,
                        "value": 1
                    },
                    {
                        "number": 64,
                        "time": 442.6071975000004,
                        "value": 0
                    },
                    {
                        "number": 64,
                        "time": 442.67515500000036,
                        "value": 1
                    },
                    {
                        "number": 64,
                        "time": 443.13203850000036,
                        "value": 0
                    },
                    {
                        "number": 64,
                        "time": 443.6265600000004,
                        "value": 1
                    },
                    {
                        "number": 64,
                        "time": 444.1336275000004,
                        "value": 0
                    },
                    {
                        "number": 64,
                        "time": 444.2068125000004,
                        "value": 1
                    },
                    {
                        "number": 64,
                        "time": 444.6396495000004,
                        "value": 0
                    },
                    {
                        "number": 64,
                        "time": 444.7086525000004,
                        "value": 1
                    },
                    {
                        "number": 64,
                        "time": 445.14776250000045,
                        "value": 0
                    },
                    {
                        "number": 64,
                        "time": 445.23140250000046,
                        "value": 1
                    },
                    {
                        "number": 64,
                        "time": 445.63392000000044,
                        "value": 0
                    },
                    {
                        "number": 64,
                        "time": 445.68619500000045,
                        "value": 1
                    },
                    {
                        "number": 64,
                        "time": 446.64805500000045,
                        "value": 0
                    },
                    {
                        "number": 64,
                        "time": 446.7526050000005,
                        "value": 1
                    },
                    {
                        "number": 64,
                        "time": 447.1593045000005,
                        "value": 0
                    },
                    {
                        "number": 64,
                        "time": 447.64128000000045,
                        "value": 0
                    },
                    {
                        "number": 64,
                        "time": 447.69355500000046,
                        "value": 1
                    },
                    {
                        "number": 64,
                        "time": 448.65541500000046,
                        "value": 0
                    },
                    {
                        "number": 64,
                        "time": 448.7599650000005,
                        "value": 1
                    },
                    {
                        "number": 64,
                        "time": 449.1666645000005,
                        "value": 0
                    },
                    {
                        "number": 64,
                        "time": 449.64864000000046,
                        "value": 1
                    },
                    {
                        "number": 64,
                        "time": 451.65600000000046,
                        "value": 0
                    },
                    {
                        "number": 64,
                        "time": 451.71559350000047,
                        "value": 1
                    },
                    {
                        "number": 64,
                        "time": 452.17038600000046,
                        "value": 0
                    },
                    {
                        "number": 64,
                        "time": 452.24984400000045,
                        "value": 1
                    },
                    {
                        "number": 64,
                        "time": 452.6743170000004,
                        "value": 0
                    },
                    {
                        "number": 64,
                        "time": 452.71927350000044,
                        "value": 1
                    },
                    {
                        "number": 64,
                        "time": 453.1751115000004,
                        "value": 0
                    },
                    {
                        "number": 64,
                        "time": 453.2169315000004,
                        "value": 1
                    },
                    {
                        "number": 64,
                        "time": 453.6759060000004,
                        "value": 0
                    },
                    {
                        "number": 64,
                        "time": 453.7229535000004,
                        "value": 1
                    },
                    {
                        "number": 64,
                        "time": 454.1683365000004,
                        "value": 0
                    },
                    {
                        "number": 64,
                        "time": 454.2143385000004,
                        "value": 1
                    },
                    {
                        "number": 64,
                        "time": 454.6764495000004,
                        "value": 0
                    },
                    {
                        "number": 64,
                        "time": 454.7329065000004,
                        "value": 1
                    },
                    {
                        "number": 64,
                        "time": 455.1803805000004,
                        "value": 0
                    },
                    {
                        "number": 64,
                        "time": 455.2410195000004,
                        "value": 1
                    },
                    {
                        "number": 64,
                        "time": 455.6749020000004,
                        "value": 0
                    },
                    {
                        "number": 64,
                        "time": 455.7198585000004,
                        "value": 1
                    },
                    {
                        "number": 64,
                        "time": 456.18510600000036,
                        "value": 0
                    },
                    {
                        "number": 64,
                        "time": 456.2321535000004,
                        "value": 1
                    },
                    {
                        "number": 64,
                        "time": 456.6859005000004,
                        "value": 0
                    },
                    {
                        "number": 64,
                        "time": 456.7371300000004,
                        "value": 1
                    },
                    {
                        "number": 64,
                        "time": 457.1929680000004,
                        "value": 0
                    },
                    {
                        "number": 64,
                        "time": 457.2556980000004,
                        "value": 1
                    },
                    {
                        "number": 64,
                        "time": 457.6780800000004,
                        "value": 0
                    },
                    {
                        "number": 64,
                        "time": 457.7209455000004,
                        "value": 1
                    },
                    {
                        "number": 64,
                        "time": 458.1882840000004,
                        "value": 0
                    },
                    {
                        "number": 64,
                        "time": 458.2290585000004,
                        "value": 1
                    },
                    {
                        "number": 64,
                        "time": 458.6911695000004,
                        "value": 0
                    },
                    {
                        "number": 64,
                        "time": 458.7340350000004,
                        "value": 1
                    },
                    {
                        "number": 64,
                        "time": 459.1961460000004,
                        "value": 0
                    },
                    {
                        "number": 64,
                        "time": 459.2390115000004,
                        "value": 1
                    },
                    {
                        "number": 64,
                        "time": 459.6854400000004,
                        "value": 0
                    },
                    {
                        "number": 64,
                        "time": 459.7408515000004,
                        "value": 1
                    },
                    {
                        "number": 64,
                        "time": 460.1966895000004,
                        "value": 0
                    },
                    {
                        "number": 64,
                        "time": 460.2761475000004,
                        "value": 1
                    },
                    {
                        "number": 64,
                        "time": 460.6985295000004,
                        "value": 0
                    },
                    {
                        "number": 64,
                        "time": 460.7445315000004,
                        "value": 1
                    },
                    {
                        "number": 64,
                        "time": 461.2035060000004,
                        "value": 0
                    },
                    {
                        "number": 64,
                        "time": 461.2599630000004,
                        "value": 1
                    },
                    {
                        "number": 64,
                        "time": 461.69280000000043,
                        "value": 0
                    },
                    {
                        "number": 64,
                        "time": 461.75239350000044,
                        "value": 1
                    },
                    {
                        "number": 64,
                        "time": 462.2050950000004,
                        "value": 0
                    },
                    {
                        "number": 64,
                        "time": 462.2605065000004,
                        "value": 1
                    },
                    {
                        "number": 64,
                        "time": 462.7090260000004,
                        "value": 0
                    },
                    {
                        "number": 64,
                        "time": 462.7717560000004,
                        "value": 1
                    },
                    {
                        "number": 64,
                        "time": 463.2108660000004,
                        "value": 0
                    },
                    {
                        "number": 64,
                        "time": 463.2735960000004,
                        "value": 1
                    },
                    {
                        "number": 64,
                        "time": 463.7001600000004,
                        "value": 0
                    },
                    {
                        "number": 64,
                        "time": 463.7524350000004,
                        "value": 1
                    },
                    {
                        "number": 64,
                        "time": 464.2114095000004,
                        "value": 0
                    },
                    {
                        "number": 64,
                        "time": 464.2710030000004,
                        "value": 1
                    },
                    {
                        "number": 64,
                        "time": 464.7069765000004,
                        "value": 0
                    },
                    {
                        "number": 64,
                        "time": 464.7561150000004,
                        "value": 1
                    },
                    {
                        "number": 64,
                        "time": 465.70752000000044,
                        "value": 0
                    },
                    {
                        "number": 64,
                        "time": 465.75979500000045,
                        "value": 1
                    },
                    {
                        "number": 64,
                        "time": 466.21876950000046,
                        "value": 0
                    },
                    {
                        "number": 64,
                        "time": 466.27836300000047,
                        "value": 1
                    },
                    {
                        "number": 64,
                        "time": 466.71433650000046,
                        "value": 0
                    },
                    {
                        "number": 64,
                        "time": 466.7634750000005,
                        "value": 1
                    },
                    {
                        "number": 64,
                        "time": 467.7148800000005,
                        "value": 0
                    },
                    {
                        "number": 64,
                        "time": 467.7671550000005,
                        "value": 1
                    },
                    {
                        "number": 64,
                        "time": 468.2261295000005,
                        "value": 0
                    },
                    {
                        "number": 64,
                        "time": 468.28572300000053,
                        "value": 1
                    },
                    {
                        "number": 64,
                        "time": 468.7216965000005,
                        "value": 0
                    },
                    {
                        "number": 64,
                        "time": 468.77083500000055,
                        "value": 1
                    },
                    {
                        "number": 64,
                        "time": 469.72224000000057,
                        "value": 0
                    },
                    {
                        "number": 64,
                        "time": 469.7745150000006,
                        "value": 1
                    },
                    {
                        "number": 64,
                        "time": 470.2334895000006,
                        "value": 0
                    },
                    {
                        "number": 64,
                        "time": 470.2930830000006,
                        "value": 1
                    },
                    {
                        "number": 64,
                        "time": 470.7290565000006,
                        "value": 0
                    },
                    {
                        "number": 64,
                        "time": 470.7781950000006,
                        "value": 1
                    },
                    {
                        "number": 64,
                        "time": 471.72960000000063,
                        "value": 0
                    },
                    {
                        "number": 64,
                        "time": 471.78919350000064,
                        "value": 1
                    },
                    {
                        "number": 64,
                        "time": 472.24816800000065,
                        "value": 0
                    },
                    {
                        "number": 64,
                        "time": 472.30044300000066,
                        "value": 1
                    },
                    {
                        "number": 64,
                        "time": 472.73850750000065,
                        "value": 0
                    },
                    {
                        "number": 64,
                        "time": 472.78555500000067,
                        "value": 1
                    },
                    {
                        "number": 64,
                        "time": 473.2539390000007,
                        "value": 0
                    },
                    {
                        "number": 64,
                        "time": 473.3103960000007,
                        "value": 1
                    },
                    {
                        "number": 64,
                        "time": 473.7411420000007,
                        "value": 0
                    },
                    {
                        "number": 64,
                        "time": 473.7798255000007,
                        "value": 1
                    },
                    {
                        "number": 64,
                        "time": 474.2492550000007,
                        "value": 0
                    },
                    {
                        "number": 64,
                        "time": 474.29107500000066,
                        "value": 1
                    },
                    {
                        "number": 64,
                        "time": 474.75004950000067,
                        "value": 0
                    },
                    {
                        "number": 64,
                        "time": 474.79605150000066,
                        "value": 1
                    },
                    {
                        "number": 64,
                        "time": 475.25816250000065,
                        "value": 0
                    },
                    {
                        "number": 64,
                        "time": 475.30521000000067,
                        "value": 1
                    },
                    {
                        "number": 64,
                        "time": 475.7443200000007,
                        "value": 0
                    },
                    {
                        "number": 64,
                        "time": 475.8227325000007,
                        "value": 1
                    },
                    {
                        "number": 64,
                        "time": 476.7595005000007,
                        "value": 0
                    },
                    {
                        "number": 64,
                        "time": 476.81073000000066,
                        "value": 1
                    },
                    {
                        "number": 64,
                        "time": 477.75168000000065,
                        "value": 0
                    },
                    {
                        "number": 64,
                        "time": 477.84054750000064,
                        "value": 1
                    },
                    {
                        "number": 64,
                        "time": 478.77104250000065,
                        "value": 0
                    },
                    {
                        "number": 64,
                        "time": 478.81809000000067,
                        "value": 1
                    },
                    {
                        "number": 64,
                        "time": 479.75904000000065,
                        "value": 0
                    },
                    {
                        "number": 64,
                        "time": 479.75904000000065,
                        "value": 0
                    },
                    {
                        "number": 64,
                        "time": 479.91691050000065,
                        "value": 1
                    },
                    {
                        "number": 64,
                        "time": 480.78049350000066,
                        "value": 0
                    },
                    {
                        "number": 64,
                        "time": 480.8683155000007,
                        "value": 1
                    },
                    {
                        "number": 64,
                        "time": 481.52698050000066,
                        "value": 0
                    },
                    {
                        "number": 64,
                        "time": 481.78626450000064,
                        "value": 1
                    },
                    {
                        "number": 64,
                        "time": 482.78680800000063,
                        "value": 0
                    },
                    {
                        "number": 64,
                        "time": 482.8882215000006,
                        "value": 1
                    },
                    {
                        "number": 64,
                        "time": 483.7758510000006,
                        "value": 0
                    },
                    {
                        "number": 64,
                        "time": 483.9096750000006,
                        "value": 1
                    },
                    {
                        "number": 64,
                        "time": 484.8401700000006,
                        "value": 0
                    },
                    {
                        "number": 64,
                        "time": 485.00745000000063,
                        "value": 1
                    },
                    {
                        "number": 64,
                        "time": 485.7811200000006,
                        "value": 0
                    },
                    {
                        "number": 64,
                        "time": 485.9170350000006,
                        "value": 1
                    },
                    {
                        "number": 64,
                        "time": 486.84753000000063,
                        "value": 0
                    },
                    {
                        "number": 64,
                        "time": 487.01481000000064,
                        "value": 1
                    },
                    {
                        "number": 64,
                        "time": 487.7884800000006,
                        "value": 0
                    },
                    {
                        "number": 64,
                        "time": 487.7884800000006,
                        "value": 0
                    },
                    {
                        "number": 64,
                        "time": 487.9463505000006,
                        "value": 1
                    },
                    {
                        "number": 64,
                        "time": 488.8099335000006,
                        "value": 0
                    },
                    {
                        "number": 64,
                        "time": 488.89775550000064,
                        "value": 1
                    },
                    {
                        "number": 64,
                        "time": 489.5564205000006,
                        "value": 0
                    },
                    {
                        "number": 64,
                        "time": 489.8157045000006,
                        "value": 1
                    },
                    {
                        "number": 64,
                        "time": 490.8162480000006,
                        "value": 0
                    },
                    {
                        "number": 64,
                        "time": 490.9176615000006,
                        "value": 1
                    },
                    {
                        "number": 64,
                        "time": 491.8052910000006,
                        "value": 0
                    },
                    {
                        "number": 64,
                        "time": 491.9391150000006,
                        "value": 1
                    },
                    {
                        "number": 64,
                        "time": 492.8696100000006,
                        "value": 0
                    },
                    {
                        "number": 64,
                        "time": 493.0368900000006,
                        "value": 1
                    },
                    {
                        "number": 64,
                        "time": 493.8105600000006,
                        "value": 0
                    },
                    {
                        "number": 64,
                        "time": 493.9464750000006,
                        "value": 1
                    },
                    {
                        "number": 64,
                        "time": 494.8769700000006,
                        "value": 0
                    },
                    {
                        "number": 64,
                        "time": 495.0442500000006,
                        "value": 1
                    },
                    {
                        "number": 64,
                        "time": 495.8179200000006,
                        "value": 0
                    },
                    {
                        "number": 64,
                        "time": 495.8733315000006,
                        "value": 1
                    },
                    {
                        "number": 64,
                        "time": 496.83100950000056,
                        "value": 0
                    },
                    {
                        "number": 64,
                        "time": 496.8968760000006,
                        "value": 1
                    },
                    {
                        "number": 64,
                        "time": 497.8252800000006,
                        "value": 0
                    },
                    {
                        "number": 64,
                        "time": 497.9141475000006,
                        "value": 1
                    },
                    {
                        "number": 64,
                        "time": 498.8446425000006,
                        "value": 0
                    },
                    {
                        "number": 64,
                        "time": 498.91260000000057,
                        "value": 1
                    },
                    {
                        "number": 64,
                        "time": 499.91628000000054,
                        "value": 0
                    },
                    {
                        "number": 64,
                        "time": 499.99469250000055,
                        "value": 1
                    },
                    {
                        "number": 64,
                        "time": 500.84677500000055,
                        "value": 0
                    },
                    {
                        "number": 64,
                        "time": 501.52112250000056,
                        "value": 1
                    },
                    {
                        "number": 64,
                        "time": 501.84000000000054,
                        "value": 0
                    },
                    {
                        "number": 64,
                        "time": 501.93932250000057,
                        "value": 1
                    },
                    {
                        "number": 64,
                        "time": 502.84890750000056,
                        "value": 0
                    },
                    {
                        "number": 64,
                        "time": 503.6278050000006,
                        "value": 1
                    },
                    {
                        "number": 64,
                        "time": 503.8473600000006,
                        "value": 0
                    },
                    {
                        "number": 64,
                        "time": 503.9728200000006,
                        "value": 1
                    },
                    {
                        "number": 64,
                        "time": 504.8604495000006,
                        "value": 0
                    },
                    {
                        "number": 64,
                        "time": 504.9263160000006,
                        "value": 1
                    },
                    {
                        "number": 64,
                        "time": 505.8547200000006,
                        "value": 0
                    },
                    {
                        "number": 64,
                        "time": 505.9435875000006,
                        "value": 1
                    },
                    {
                        "number": 64,
                        "time": 506.8740825000006,
                        "value": 0
                    },
                    {
                        "number": 64,
                        "time": 506.9420400000006,
                        "value": 1
                    },
                    {
                        "number": 64,
                        "time": 507.86208000000056,
                        "value": 0
                    },
                    {
                        "number": 64,
                        "time": 507.9906765000006,
                        "value": 1
                    },
                    {
                        "number": 64,
                        "time": 508.8772605000006,
                        "value": 0
                    },
                    {
                        "number": 64,
                        "time": 508.9253535000006,
                        "value": 1
                    },
                    {
                        "number": 64,
                        "time": 509.8694400000006,
                        "value": 0
                    },
                    {
                        "number": 64,
                        "time": 509.99803650000064,
                        "value": 1
                    },
                    {
                        "number": 64,
                        "time": 510.88462050000066,
                        "value": 0
                    },
                    {
                        "number": 64,
                        "time": 510.93271350000066,
                        "value": 1
                    },
                    {
                        "number": 64,
                        "time": 511.8768000000007,
                        "value": 0
                    },
                    {
                        "number": 64,
                        "time": 512.0053965000006,
                        "value": 1
                    },
                    {
                        "number": 64,
                        "time": 512.8919805000006,
                        "value": 0
                    },
                    {
                        "number": 64,
                        "time": 512.9400735000006,
                        "value": 1
                    },
                    {
                        "number": 64,
                        "time": 513.8527950000006,
                        "value": 0
                    },
                    {
                        "number": 64,
                        "time": 513.9468900000006,
                        "value": 1
                    },
                    {
                        "number": 64,
                        "time": 514.9003860000006,
                        "value": 0
                    },
                    {
                        "number": 64,
                        "time": 514.9599795000006,
                        "value": 1
                    },
                    {
                        "number": 64,
                        "time": 515.8915200000006,
                        "value": 0
                    },
                    {
                        "number": 64,
                        "time": 515.9542500000006,
                        "value": 1
                    },
                    {
                        "number": 64,
                        "time": 517.8988800000005,
                        "value": 0
                    },
                    {
                        "number": 64,
                        "time": 517.9982025000005,
                        "value": 1
                    },
                    {
                        "number": 64,
                        "time": 519.9459690000004,
                        "value": 0
                    },
                    {
                        "number": 64,
                        "time": 520.1069760000005,
                        "value": 1
                    },
                    {
                        "number": 64,
                        "time": 521.4232605000005,
                        "value": 0
                    },
                    {
                        "number": 64,
                        "time": 523.7662260000005,
                        "value": 1
                    },
                    {
                        "number": 64,
                        "time": 524.4447555000005,
                        "value": 0
                    },
                    {
                        "number": 64,
                        "time": 524.9612325000005,
                        "value": 1
                    },
                    {
                        "number": 64,
                        "time": 525.4463445000005,
                        "value": 0
                    },
                    {
                        "number": 64,
                        "time": 529.9691775000005,
                        "value": 1
                    },
                    {
                        "number": 64,
                        "time": 530.9571750000005,
                        "value": 0
                    },
                    {
                        "number": 64,
                        "time": 533.9995800000005,
                        "value": 1
                    },
                    {
                        "number": 64,
                        "time": 534.9698040000005,
                        "value": 0
                    },
                    {
                        "number": 64,
                        "time": 535.0691265000005,
                        "value": 1
                    },
                    {
                        "number": 64,
                        "time": 535.9682565000005,
                        "value": 0
                    },
                    {
                        "number": 64,
                        "time": 536.0236680000005,
                        "value": 1
                    },
                    {
                        "number": 64,
                        "time": 537.4821405000005,
                        "value": 0
                    },
                    {
                        "number": 64,
                        "time": 539.9829765000005,
                        "value": 0
                    },
                    {
                        "number": 64,
                        "time": 540.0383880000005,
                        "value": 1
                    },
                    {
                        "number": 64,
                        "time": 541.4968605000005,
                        "value": 0
                    },
                    {
                        "number": 64,
                        "time": 543.9976965000005,
                        "value": 0
                    },
                    {
                        "number": 64,
                        "time": 544.0531080000005,
                        "value": 1
                    },
                    {
                        "number": 64,
                        "time": 545.5115805000005,
                        "value": 0
                    },
                    {
                        "number": 64,
                        "time": 548.8927275000005,
                        "value": 1
                    },
                    {
                        "number": 64,
                        "time": 549.5304825000005,
                        "value": 0
                    },
                    {
                        "number": 64,
                        "time": 550.9000875000005,
                        "value": 1
                    },
                    {
                        "number": 64,
                        "time": 551.5378425000005,
                        "value": 0
                    },
                    {
                        "number": 64,
                        "time": 552.9074475000004,
                        "value": 1
                    },
                    {
                        "number": 64,
                        "time": 553.5452025000004,
                        "value": 0
                    },
                    {
                        "number": 64,
                        "time": 562.3901325000004,
                        "value": 1
                    },
                    {
                        "number": 64,
                        "time": 562.5887775000004,
                        "value": 0
                    },
                    {
                        "number": 64,
                        "time": 562.8501525000005,
                        "value": 1
                    },
                    {
                        "number": 64,
                        "time": 563.1010725000004,
                        "value": 0
                    },
                    {
                        "number": 64,
                        "time": 563.3572200000004,
                        "value": 1
                    },
                    {
                        "number": 64,
                        "time": 563.6708700000005,
                        "value": 0
                    },
                    {
                        "number": 64,
                        "time": 563.9374725000005,
                        "value": 1
                    },
                    {
                        "number": 64,
                        "time": 564.1674825000005,
                        "value": 0
                    },
                    {
                        "number": 64,
                        "time": 566.3504865000004,
                        "value": 1
                    },
                    {
                        "number": 64,
                        "time": 567.4723080000005,
                        "value": 0
                    },
                    {
                        "number": 64,
                        "time": 568.3578465000005,
                        "value": 1
                    },
                    {
                        "number": 64,
                        "time": 569.4796680000005,
                        "value": 0
                    },
                    {
                        "number": 64,
                        "time": 570.1937445000005,
                        "value": 1
                    },
                    {
                        "number": 64,
                        "time": 571.1033295000005,
                        "value": 0
                    },
                    {
                        "number": 64,
                        "time": 571.3155660000006,
                        "value": 1
                    },
                    {
                        "number": 64,
                        "time": 572.0976000000005,
                        "value": 0
                    },
                    {
                        "number": 64,
                        "time": 572.2450155000005,
                        "value": 1
                    },
                    {
                        "number": 64,
                        "time": 573.1075530000005,
                        "value": 0
                    },
                    {
                        "number": 64,
                        "time": 573.3229260000005,
                        "value": 1
                    },
                    {
                        "number": 64,
                        "time": 574.1049600000005,
                        "value": 0
                    },
                    {
                        "number": 64,
                        "time": 574.3192875000004,
                        "value": 1
                    },
                    {
                        "number": 64,
                        "time": 575.1138675000004,
                        "value": 0
                    },
                    {
                        "number": 64,
                        "time": 575.2163265000004,
                        "value": 1
                    },
                    {
                        "number": 64,
                        "time": 576.1123200000004,
                        "value": 0
                    },
                    {
                        "number": 64,
                        "time": 576.3339660000004,
                        "value": 1
                    },
                    {
                        "number": 64,
                        "time": 577.1369100000004,
                        "value": 0
                    },
                    {
                        "number": 64,
                        "time": 577.2487785000004,
                        "value": 1
                    },
                    {
                        "number": 64,
                        "time": 578.1196800000004,
                        "value": 0
                    },
                    {
                        "number": 64,
                        "time": 578.2231845000003,
                        "value": 1
                    },
                    {
                        "number": 64,
                        "time": 579.1327695000003,
                        "value": 0
                    },
                    {
                        "number": 64,
                        "time": 579.3450060000004,
                        "value": 1
                    },
                    {
                        "number": 64,
                        "time": 580.1416770000003,
                        "value": 0
                    },
                    {
                        "number": 64,
                        "time": 580.2890925000003,
                        "value": 1
                    },
                    {
                        "number": 64,
                        "time": 582.1344000000003,
                        "value": 0
                    },
                    {
                        "number": 64,
                        "time": 582.3487275000002,
                        "value": 1
                    },
                    {
                        "number": 64,
                        "time": 583.1558535000003,
                        "value": 0
                    },
                    {
                        "number": 64,
                        "time": 583.3294065000002,
                        "value": 1
                    },
                    {
                        "number": 64,
                        "time": 584.1417600000002,
                        "value": 0
                    },
                    {
                        "number": 64,
                        "time": 584.2891755000002,
                        "value": 1
                    },
                    {
                        "number": 64,
                        "time": 585.1506675000002,
                        "value": 0
                    },
                    {
                        "number": 64,
                        "time": 585.1966695000002,
                        "value": 1
                    },
                    {
                        "number": 64,
                        "time": 586.1491200000003,
                        "value": 0
                    },
                    {
                        "number": 64,
                        "time": 586.2683070000003,
                        "value": 1
                    },
                    {
                        "number": 64,
                        "time": 587.1705735000003,
                        "value": 0
                    },
                    {
                        "number": 64,
                        "time": 587.2834875000003,
                        "value": 1
                    },
                    {
                        "number": 64,
                        "time": 588.1564800000003,
                        "value": 0
                    },
                    {
                        "number": 64,
                        "time": 588.2892585000003,
                        "value": 1
                    },
                    {
                        "number": 64,
                        "time": 589.1737515000003,
                        "value": 0
                    },
                    {
                        "number": 64,
                        "time": 589.1779335000003,
                        "value": 0
                    },
                    {
                        "number": 64,
                        "time": 589.2908475000004,
                        "value": 1
                    },
                    {
                        "number": 64,
                        "time": 590.1638400000004,
                        "value": 0
                    },
                    {
                        "number": 64,
                        "time": 590.2966185000004,
                        "value": 1
                    },
                    {
                        "number": 64,
                        "time": 591.2187495000004,
                        "value": 1
                    },
                    {
                        "number": 64,
                        "time": 591.4184400000004,
                        "value": 0
                    },
                    {
                        "number": 64,
                        "time": 592.1712000000003,
                        "value": 0
                    },
                    {
                        "number": 64,
                        "time": 592.2903870000004,
                        "value": 1
                    },
                    {
                        "number": 64,
                        "time": 593.1926535000003,
                        "value": 0
                    },
                    {
                        "number": 64,
                        "time": 593.3055675000004,
                        "value": 1
                    },
                    {
                        "number": 64,
                        "time": 594.2622000000003,
                        "value": 0
                    },
                    {
                        "number": 64,
                        "time": 594.4294800000004,
                        "value": 1
                    },
                    {
                        "number": 64,
                        "time": 595.1885130000004,
                        "value": 0
                    },
                    {
                        "number": 64,
                        "time": 595.3442925000004,
                        "value": 1
                    },
                    {
                        "number": 64,
                        "time": 595.6903530000004,
                        "value": 0
                    },
                    {
                        "number": 64,
                        "time": 595.8168585000004,
                        "value": 1
                    },
                    {
                        "number": 64,
                        "time": 596.1974205000005,
                        "value": 0
                    },
                    {
                        "number": 64,
                        "time": 596.3051070000005,
                        "value": 1
                    },
                    {
                        "number": 64,
                        "time": 596.6961240000005,
                        "value": 0
                    },
                    {
                        "number": 64,
                        "time": 596.8069470000005,
                        "value": 1
                    },
                    {
                        "number": 64,
                        "time": 597.1969185000005,
                        "value": 0
                    },
                    {
                        "number": 64,
                        "time": 597.3328335000004,
                        "value": 1
                    },
                    {
                        "number": 64,
                        "time": 597.7050315000005,
                        "value": 0
                    },
                    {
                        "number": 64,
                        "time": 597.8106270000005,
                        "value": 1
                    },
                    {
                        "number": 64,
                        "time": 598.2769200000005,
                        "value": 0
                    },
                    {
                        "number": 64,
                        "time": 598.4442000000005,
                        "value": 1
                    },
                    {
                        "number": 64,
                        "time": 599.2032330000005,
                        "value": 0
                    },
                    {
                        "number": 64,
                        "time": 599.3590125000005,
                        "value": 1
                    },
                    {
                        "number": 64,
                        "time": 599.7050730000005,
                        "value": 0
                    },
                    {
                        "number": 64,
                        "time": 599.8315785000005,
                        "value": 1
                    },
                    {
                        "number": 64,
                        "time": 600.2121405000006,
                        "value": 0
                    },
                    {
                        "number": 64,
                        "time": 600.3198270000006,
                        "value": 1
                    },
                    {
                        "number": 64,
                        "time": 600.7108440000006,
                        "value": 0
                    },
                    {
                        "number": 64,
                        "time": 600.8216670000006,
                        "value": 1
                    },
                    {
                        "number": 64,
                        "time": 601.2116385000006,
                        "value": 0
                    },
                    {
                        "number": 64,
                        "time": 601.3475535000006,
                        "value": 1
                    },
                    {
                        "number": 64,
                        "time": 601.7197515000006,
                        "value": 0
                    },
                    {
                        "number": 64,
                        "time": 601.8253470000006,
                        "value": 1
                    },
                    {
                        "number": 64,
                        "time": 602.2916400000006,
                        "value": 0
                    },
                    {
                        "number": 64,
                        "time": 602.4589200000006,
                        "value": 1
                    },
                    {
                        "number": 64,
                        "time": 603.2179530000006,
                        "value": 0
                    },
                    {
                        "number": 64,
                        "time": 603.3737325000006,
                        "value": 1
                    },
                    {
                        "number": 64,
                        "time": 603.7197930000007,
                        "value": 0
                    },
                    {
                        "number": 64,
                        "time": 603.8462985000007,
                        "value": 1
                    },
                    {
                        "number": 64,
                        "time": 604.2268605000007,
                        "value": 0
                    },
                    {
                        "number": 64,
                        "time": 604.3345470000007,
                        "value": 1
                    },
                    {
                        "number": 64,
                        "time": 604.7255640000008,
                        "value": 0
                    },
                    {
                        "number": 64,
                        "time": 604.8363870000007,
                        "value": 1
                    },
                    {
                        "number": 64,
                        "time": 605.2263585000007,
                        "value": 0
                    },
                    {
                        "number": 64,
                        "time": 605.3622735000007,
                        "value": 1
                    },
                    {
                        "number": 64,
                        "time": 605.7344715000007,
                        "value": 0
                    },
                    {
                        "number": 64,
                        "time": 605.8400670000008,
                        "value": 1
                    },
                    {
                        "number": 64,
                        "time": 606.3063600000007,
                        "value": 0
                    },
                    {
                        "number": 64,
                        "time": 606.4736400000007,
                        "value": 1
                    },
                    {
                        "number": 64,
                        "time": 607.2326730000008,
                        "value": 0
                    },
                    {
                        "number": 64,
                        "time": 607.3884525000008,
                        "value": 1
                    },
                    {
                        "number": 64,
                        "time": 607.7345130000008,
                        "value": 0
                    },
                    {
                        "number": 64,
                        "time": 607.8610185000008,
                        "value": 1
                    },
                    {
                        "number": 64,
                        "time": 608.2415805000009,
                        "value": 0
                    },
                    {
                        "number": 64,
                        "time": 608.3492670000009,
                        "value": 1
                    },
                    {
                        "number": 64,
                        "time": 608.7402840000009,
                        "value": 0
                    },
                    {
                        "number": 64,
                        "time": 608.8511070000009,
                        "value": 1
                    },
                    {
                        "number": 64,
                        "time": 609.2410785000009,
                        "value": 0
                    },
                    {
                        "number": 64,
                        "time": 609.3769935000008,
                        "value": 1
                    },
                    {
                        "number": 64,
                        "time": 609.7491915000008,
                        "value": 0
                    },
                    {
                        "number": 64,
                        "time": 609.8547870000009,
                        "value": 1
                    },
                    {
                        "number": 64,
                        "time": 610.2374400000009,
                        "value": 0
                    },
                    {
                        "number": 64,
                        "time": 610.3702185000009,
                        "value": 1
                    },
                    {
                        "number": 64,
                        "time": 611.2484385000009,
                        "value": 0
                    },
                    {
                        "number": 64,
                        "time": 611.3738985000009,
                        "value": 1
                    },
                    {
                        "number": 64,
                        "time": 612.2448000000009,
                        "value": 0
                    },
                    {
                        "number": 64,
                        "time": 612.3775785000008,
                        "value": 1
                    },
                    {
                        "number": 64,
                        "time": 613.2557985000009,
                        "value": 0
                    },
                    {
                        "number": 64,
                        "time": 613.3812585000009,
                        "value": 1
                    },
                    {
                        "number": 64,
                        "time": 614.2521600000008,
                        "value": 0
                    },
                    {
                        "number": 64,
                        "time": 614.3849385000008,
                        "value": 1
                    },
                    {
                        "number": 64,
                        "time": 615.2631585000008,
                        "value": 0
                    },
                    {
                        "number": 64,
                        "time": 615.3886185000008,
                        "value": 1
                    },
                    {
                        "number": 64,
                        "time": 616.2595200000007,
                        "value": 0
                    },
                    {
                        "number": 64,
                        "time": 616.3922985000007,
                        "value": 1
                    },
                    {
                        "number": 64,
                        "time": 617.2705185000008,
                        "value": 0
                    },
                    {
                        "number": 64,
                        "time": 617.3959785000008,
                        "value": 1
                    },
                    {
                        "number": 64,
                        "time": 618.2668800000007,
                        "value": 0
                    },
                    {
                        "number": 64,
                        "time": 618.3923400000007,
                        "value": 1
                    },
                    {
                        "number": 64,
                        "time": 619.2851970000007,
                        "value": 0
                    },
                    {
                        "number": 64,
                        "time": 622.2816000000007,
                        "value": 0
                    },
                    {
                        "number": 64,
                        "time": 622.4070600000007,
                        "value": 1
                    },
                    {
                        "number": 64,
                        "time": 623.2999170000007,
                        "value": 0
                    },
                    {
                        "number": 64,
                        "time": 632.4616335000007,
                        "value": 1
                    },
                    {
                        "number": 64,
                        "time": 633.3335805000007,
                        "value": 0
                    },
                    {
                        "number": 64,
                        "time": 633.4893600000007,
                        "value": 1
                    },
                    {
                        "number": 64,
                        "time": 634.3257600000007,
                        "value": 0
                    },
                    {
                        "number": 64,
                        "time": 634.4689935000007,
                        "value": 1
                    },
                    {
                        "number": 64,
                        "time": 635.3409405000007,
                        "value": 0
                    },
                    {
                        "number": 64,
                        "time": 635.4726735000007,
                        "value": 1
                    },
                    {
                        "number": 64,
                        "time": 636.3435750000007,
                        "value": 0
                    },
                    {
                        "number": 64,
                        "time": 636.4763535000006,
                        "value": 1
                    },
                    {
                        "number": 64,
                        "time": 637.3524825000006,
                        "value": 0
                    },
                    {
                        "number": 64,
                        "time": 637.5281265000007,
                        "value": 1
                    },
                    {
                        "number": 64,
                        "time": 638.3404800000006,
                        "value": 0
                    },
                    {
                        "number": 64,
                        "time": 642.4388400000006,
                        "value": 0
                    },
                    {
                        "number": 64,
                        "time": 642.6061200000006,
                        "value": 1
                    },
                    {
                        "number": 64,
                        "time": 643.3651530000006,
                        "value": 0
                    },
                    {
                        "number": 64,
                        "time": 643.5209325000006,
                        "value": 1
                    },
                    {
                        "number": 64,
                        "time": 643.8669930000007,
                        "value": 0
                    },
                    {
                        "number": 64,
                        "time": 643.9934985000007,
                        "value": 1
                    },
                    {
                        "number": 64,
                        "time": 644.3740605000007,
                        "value": 0
                    },
                    {
                        "number": 64,
                        "time": 644.4817470000007,
                        "value": 1
                    },
                    {
                        "number": 64,
                        "time": 644.8727640000008,
                        "value": 0
                    },
                    {
                        "number": 64,
                        "time": 644.9835870000007,
                        "value": 1
                    },
                    {
                        "number": 64,
                        "time": 645.3735585000007,
                        "value": 0
                    },
                    {
                        "number": 64,
                        "time": 645.5094735000007,
                        "value": 1
                    },
                    {
                        "number": 64,
                        "time": 645.8816715000007,
                        "value": 0
                    },
                    {
                        "number": 64,
                        "time": 645.9872670000008,
                        "value": 1
                    },
                    {
                        "number": 64,
                        "time": 646.4535600000007,
                        "value": 0
                    },
                    {
                        "number": 64,
                        "time": 646.6208400000007,
                        "value": 1
                    },
                    {
                        "number": 64,
                        "time": 646.8863970000007,
                        "value": 0
                    },
                    {
                        "number": 64,
                        "time": 647.0264940000006,
                        "value": 1
                    },
                    {
                        "number": 64,
                        "time": 647.3798730000007,
                        "value": 0
                    },
                    {
                        "number": 64,
                        "time": 647.5356525000007,
                        "value": 1
                    },
                    {
                        "number": 64,
                        "time": 647.8817130000007,
                        "value": 0
                    },
                    {
                        "number": 64,
                        "time": 648.0082185000007,
                        "value": 1
                    },
                    {
                        "number": 64,
                        "time": 648.3887805000007,
                        "value": 0
                    },
                    {
                        "number": 64,
                        "time": 648.4964670000007,
                        "value": 1
                    },
                    {
                        "number": 64,
                        "time": 648.8864385000007,
                        "value": 0
                    },
                    {
                        "number": 64,
                        "time": 649.0098075000008,
                        "value": 1
                    },
                    {
                        "number": 64,
                        "time": 649.3882785000008,
                        "value": 0
                    },
                    {
                        "number": 64,
                        "time": 649.5241935000007,
                        "value": 1
                    },
                    {
                        "number": 64,
                        "time": 649.8963915000007,
                        "value": 0
                    },
                    {
                        "number": 64,
                        "time": 650.3198190000007,
                        "value": 1
                    },
                    {
                        "number": 64,
                        "time": 651.3883200000007,
                        "value": 0
                    },
                    {
                        "number": 64,
                        "time": 651.5503725000007,
                        "value": 1
                    },
                    {
                        "number": 64,
                        "time": 651.8964330000007,
                        "value": 0
                    },
                    {
                        "number": 64,
                        "time": 652.0229385000007,
                        "value": 1
                    },
                    {
                        "number": 64,
                        "time": 652.4035005000007,
                        "value": 0
                    },
                    {
                        "number": 64,
                        "time": 652.5111870000007,
                        "value": 1
                    },
                    {
                        "number": 64,
                        "time": 652.9022040000008,
                        "value": 0
                    },
                    {
                        "number": 64,
                        "time": 653.0130270000008,
                        "value": 1
                    },
                    {
                        "number": 64,
                        "time": 653.4029985000008,
                        "value": 0
                    },
                    {
                        "number": 64,
                        "time": 653.5389135000007,
                        "value": 1
                    },
                    {
                        "number": 64,
                        "time": 653.9111115000007,
                        "value": 0
                    },
                    {
                        "number": 64,
                        "time": 654.0167070000008,
                        "value": 1
                    },
                    {
                        "number": 64,
                        "time": 654.3000375000008,
                        "value": 0
                    },
                    {
                        "number": 64,
                        "time": 654.4882275000008,
                        "value": 1
                    },
                    {
                        "number": 64,
                        "time": 655.4093130000008,
                        "value": 0
                    },
                    {
                        "number": 64,
                        "time": 655.5650925000008,
                        "value": 1
                    },
                    {
                        "number": 64,
                        "time": 655.9111530000008,
                        "value": 0
                    },
                    {
                        "number": 64,
                        "time": 656.0376585000008,
                        "value": 1
                    },
                    {
                        "number": 64,
                        "time": 656.4182205000009,
                        "value": 0
                    },
                    {
                        "number": 64,
                        "time": 656.5259070000009,
                        "value": 1
                    },
                    {
                        "number": 64,
                        "time": 656.9169240000009,
                        "value": 0
                    },
                    {
                        "number": 64,
                        "time": 657.0277470000009,
                        "value": 1
                    },
                    {
                        "number": 64,
                        "time": 657.4177185000009,
                        "value": 0
                    },
                    {
                        "number": 64,
                        "time": 657.5536335000008,
                        "value": 1
                    },
                    {
                        "number": 64,
                        "time": 657.9258315000009,
                        "value": 0
                    },
                    {
                        "number": 64,
                        "time": 658.0314270000009,
                        "value": 1
                    },
                    {
                        "number": 64,
                        "time": 658.4140800000009,
                        "value": 0
                    },
                    {
                        "number": 64,
                        "time": 658.5134025000009,
                        "value": 1
                    },
                    {
                        "number": 64,
                        "time": 659.4407610000009,
                        "value": 0
                    },
                    {
                        "number": 64,
                        "time": 659.6237235000009,
                        "value": 1
                    },
                    {
                        "number": 64,
                        "time": 659.9363280000009,
                        "value": 0
                    },
                    {
                        "number": 64,
                        "time": 660.0816525000009,
                        "value": 1
                    },
                    {
                        "number": 64,
                        "time": 660.421440000001,
                        "value": 0
                    },
                    {
                        "number": 64,
                        "time": 660.619039500001,
                        "value": 1
                    },
                    {
                        "number": 64,
                        "time": 661.464849000001,
                        "value": 0
                    },
                    {
                        "number": 64,
                        "time": 661.6227195000009,
                        "value": 1
                    },
                    {
                        "number": 64,
                        "time": 661.9374150000009,
                        "value": 0
                    },
                    {
                        "number": 64,
                        "time": 662.1381510000009,
                        "value": 1
                    },
                    {
                        "number": 64,
                        "time": 662.4288000000009,
                        "value": 0
                    },
                    {
                        "number": 64,
                        "time": 662.6504460000009,
                        "value": 1
                    },
                    {
                        "number": 64,
                        "time": 662.9452770000009,
                        "value": 0
                    },
                    {
                        "number": 64,
                        "time": 663.0926925000009,
                        "value": 1
                    },
                    {
                        "number": 64,
                        "time": 663.4450260000009,
                        "value": 0
                    },
                    {
                        "number": 64,
                        "time": 663.6091695000009,
                        "value": 1
                    },
                    {
                        "number": 64,
                        "time": 663.944775000001,
                        "value": 0
                    },
                    {
                        "number": 64,
                        "time": 664.067098500001,
                        "value": 1
                    },
                    {
                        "number": 64,
                        "time": 664.436160000001,
                        "value": 0
                    },
                    {
                        "number": 64,
                        "time": 664.603440000001,
                        "value": 1
                    },
                    {
                        "number": 64,
                        "time": 664.947409500001,
                        "value": 0
                    },
                    {
                        "number": 64,
                        "time": 665.0801880000009,
                        "value": 1
                    },
                    {
                        "number": 64,
                        "time": 665.456568000001,
                        "value": 0
                    },
                    {
                        "number": 64,
                        "time": 665.642667000001,
                        "value": 1
                    },
                    {
                        "number": 64,
                        "time": 665.9531805000009,
                        "value": 0
                    },
                    {
                        "number": 64,
                        "time": 666.0608670000009,
                        "value": 1
                    },
                    {
                        "number": 64,
                        "time": 666.3044685000009,
                        "value": 0
                    },
                    {
                        "number": 64,
                        "time": 666.3577890000009,
                        "value": 1
                    },
                    {
                        "number": 64,
                        "time": 667.4555640000009,
                        "value": 0
                    },
                    {
                        "number": 64,
                        "time": 668.3118285000008,
                        "value": 0
                    },
                    {
                        "number": 64,
                        "time": 668.3651490000009,
                        "value": 1
                    },
                    {
                        "number": 64,
                        "time": 669.4629240000008,
                        "value": 0
                    },
                    {
                        "number": 64,
                        "time": 670.3191885000008,
                        "value": 0
                    },
                    {
                        "number": 64,
                        "time": 670.3725090000008,
                        "value": 1
                    },
                    {
                        "number": 64,
                        "time": 671.4765570000009,
                        "value": 0
                    },
                    {
                        "number": 64,
                        "time": 671.7881160000009,
                        "value": 1
                    },
                    {
                        "number": 64,
                        "time": 672.4697820000008,
                        "value": 0
                    },
                    {
                        "number": 64,
                        "time": 672.8921640000008,
                        "value": 1
                    },
                    {
                        "number": 64,
                        "time": 673.4849625000007,
                        "value": 0
                    },
                    {
                        "number": 64,
                        "time": 674.0714880000007,
                        "value": 1
                    },
                    {
                        "number": 64,
                        "time": 674.4729600000007,
                        "value": 0
                    },
                    {
                        "number": 64,
                        "time": 674.5325535000007,
                        "value": 1
                    },
                    {
                        "number": 64,
                        "time": 676.0046175000008,
                        "value": 0
                    },
                    {
                        "number": 64,
                        "time": 676.5273675000008,
                        "value": 1
                    },
                    {
                        "number": 64,
                        "time": 676.9957515000008,
                        "value": 0
                    },
                    {
                        "number": 64,
                        "time": 677.5310475000008,
                        "value": 1
                    },
                    {
                        "number": 64,
                        "time": 678.0077955000008,
                        "value": 0
                    },
                    {
                        "number": 64,
                        "time": 678.5399550000009,
                        "value": 1
                    },
                    {
                        "number": 64,
                        "time": 679.0062480000008,
                        "value": 0
                    },
                    {
                        "number": 64,
                        "time": 679.5269070000008,
                        "value": 1
                    },
                    {
                        "number": 64,
                        "time": 680.0067915000009,
                        "value": 0
                    },
                    {
                        "number": 64,
                        "time": 680.5807710000008,
                        "value": 1
                    },
                    {
                        "number": 64,
                        "time": 681.0073350000008,
                        "value": 0
                    },
                    {
                        "number": 64,
                        "time": 681.5645865000008,
                        "value": 1
                    },
                    {
                        "number": 64,
                        "time": 682.0162425000008,
                        "value": 0
                    },
                    {
                        "number": 64,
                        "time": 682.5421290000007,
                        "value": 1
                    },
                    {
                        "number": 64,
                        "time": 683.0136495000007,
                        "value": 0
                    },
                    {
                        "number": 64,
                        "time": 683.5520820000007,
                        "value": 1
                    },
                    {
                        "number": 64,
                        "time": 684.0298755000007,
                        "value": 0
                    },
                    {
                        "number": 64,
                        "time": 684.6184920000006,
                        "value": 1
                    },
                    {
                        "number": 64,
                        "time": 685.0241460000007,
                        "value": 0
                    },
                    {
                        "number": 64,
                        "time": 685.5563055000007,
                        "value": 1
                    },
                    {
                        "number": 64,
                        "time": 686.0299170000006,
                        "value": 0
                    },
                    {
                        "number": 64,
                        "time": 686.5171200000007,
                        "value": 1
                    },
                    {
                        "number": 64,
                        "time": 686.9300925000007,
                        "value": 0
                    },
                    {
                        "number": 64,
                        "time": 687.1130550000007,
                        "value": 1
                    },
                    {
                        "number": 64,
                        "time": 687.9421365000007,
                        "value": 0
                    },
                    {
                        "number": 64,
                        "time": 688.0540050000008,
                        "value": 1
                    },
                    {
                        "number": 64,
                        "time": 688.4753415000008,
                        "value": 0
                    },
                    {
                        "number": 64,
                        "time": 688.7063970000008,
                        "value": 1
                    },
                    {
                        "number": 64,
                        "time": 689.5386150000008,
                        "value": 0
                    },
                    {
                        "number": 64,
                        "time": 689.6013450000008,
                        "value": 1
                    },
                    {
                        "number": 64,
                        "time": 690.5632050000008,
                        "value": 0
                    },
                    {
                        "number": 64,
                        "time": 691.0702725000008,
                        "value": 1
                    },
                    {
                        "number": 64,
                        "time": 691.5512025000007,
                        "value": 0
                    },
                    {
                        "number": 64,
                        "time": 691.6348425000007,
                        "value": 1
                    },
                    {
                        "number": 64,
                        "time": 692.5705650000007,
                        "value": 0
                    },
                    {
                        "number": 64,
                        "time": 693.0776325000006,
                        "value": 1
                    },
                    {
                        "number": 64,
                        "time": 693.5585625000006,
                        "value": 0
                    },
                    {
                        "number": 64,
                        "time": 693.6422025000005,
                        "value": 1
                    },
                    {
                        "number": 64,
                        "time": 694.5779250000005,
                        "value": 0
                    },
                    {
                        "number": 64,
                        "time": 694.6322910000005,
                        "value": 1
                    },
                    {
                        "number": 64,
                        "time": 695.5669680000004,
                        "value": 0
                    },
                    {
                        "number": 64,
                        "time": 695.6223795000004,
                        "value": 1
                    },
                    {
                        "number": 64,
                        "time": 696.0593985000004,
                        "value": 0
                    },
                    {
                        "number": 64,
                        "time": 696.1472205000003,
                        "value": 1
                    },
                    {
                        "number": 64,
                        "time": 696.5539200000003,
                        "value": 0
                    },
                    {
                        "number": 64,
                        "time": 696.6427875000003,
                        "value": 1
                    },
                    {
                        "number": 64,
                        "time": 697.5722370000003,
                        "value": 0
                    },
                    {
                        "number": 64,
                        "time": 697.6830600000003,
                        "value": 1
                    },
                    {
                        "number": 64,
                        "time": 698.5612800000004,
                        "value": 0
                    },
                    {
                        "number": 64,
                        "time": 698.6501475000003,
                        "value": 1
                    },
                    {
                        "number": 64,
                        "time": 699.5795970000004,
                        "value": 0
                    },
                    {
                        "number": 64,
                        "time": 699.6904200000004,
                        "value": 1
                    },
                    {
                        "number": 64,
                        "time": 700.5686400000004,
                        "value": 0
                    },
                    {
                        "number": 64,
                        "time": 700.6575075000004,
                        "value": 1
                    },
                    {
                        "number": 64,
                        "time": 701.5869570000004,
                        "value": 0
                    },
                    {
                        "number": 64,
                        "time": 701.6977800000004,
                        "value": 1
                    },
                    {
                        "number": 64,
                        "time": 702.5760000000005,
                        "value": 0
                    },
                    {
                        "number": 64,
                        "time": 702.6648675000005,
                        "value": 1
                    },
                    {
                        "number": 64,
                        "time": 703.5943170000005,
                        "value": 0
                    },
                    {
                        "number": 64,
                        "time": 703.7051400000005,
                        "value": 1
                    },
                    {
                        "number": 64,
                        "time": 704.0877930000005,
                        "value": 0
                    },
                    {
                        "number": 64,
                        "time": 704.1912975000005,
                        "value": 1
                    },
                    {
                        "number": 64,
                        "time": 705.0977460000005,
                        "value": 0
                    },
                    {
                        "number": 64,
                        "time": 705.2367975000005,
                        "value": 1
                    },
                    {
                        "number": 64,
                        "time": 706.5907200000005,
                        "value": 0
                    },
                    {
                        "number": 64,
                        "time": 707.3361615000005,
                        "value": 1
                    },
                    {
                        "number": 64,
                        "time": 708.1077405000004,
                        "value": 0
                    },
                    {
                        "number": 64,
                        "time": 710.3942490000004,
                        "value": 1
                    },
                    {
                        "number": 64,
                        "time": 711.6258480000004,
                        "value": 0
                    },
                    {
                        "number": 64,
                        "time": 711.9509985000003,
                        "value": 1
                    },
                    {
                        "number": 64,
                        "time": 712.1266425000003,
                        "value": 0
                    },
                    {
                        "number": 64,
                        "time": 712.2928770000003,
                        "value": 1
                    },
                    {
                        "number": 64,
                        "time": 712.6190730000003,
                        "value": 0
                    },
                    {
                        "number": 64,
                        "time": 712.8386280000003,
                        "value": 1
                    },
                    {
                        "number": 64,
                        "time": 713.6311170000004,
                        "value": 0
                    },
                    {
                        "number": 64,
                        "time": 713.9426760000003,
                        "value": 1
                    },
                    {
                        "number": 64,
                        "time": 714.6295695000003,
                        "value": 0
                    },
                    {
                        "number": 64,
                        "time": 714.9714480000004,
                        "value": 1
                    },
                    {
                        "number": 64,
                        "time": 718.2083160000003,
                        "value": 0
                    }
                ]
            },
            "id": 3,
            "name": "Pedale",
            "instrumentNumber": 0,
            "instrument": "acoustic grand piano",
            "instrumentFamily": "piano",
            "channelNumber": 0,
            "isPercussion": false
        },
        {
            "startTime": 0,
            "duration": 0,
            "length": 0,
            "notes": [],
            "controlChanges": {},
            "id": 4,
            "name": "Brahms: Sonata C 1. movement"
        },
        {
            "startTime": 0,
            "duration": 0,
            "length": 0,
            "notes": [],
            "controlChanges": {},
            "id": 5,
            "name": "Copyright  2009 by Bernd Krueger"
        },
        {
            "startTime": 0,
            "duration": 0,
            "length": 0,
            "notes": [],
            "controlChanges": {},
            "id": 6,
            "name": "http://www.piano-midi.de/"
        },
        {
            "startTime": 0,
            "duration": 0,
            "length": 0,
            "notes": [],
            "controlChanges": {},
            "id": 7,
            "name": "Edition:"
        },
        {
            "startTime": 0,
            "duration": 0,
            "length": 0,
            "notes": [],
            "controlChanges": {},
            "id": 8
        },
        {
            "startTime": 0,
            "duration": 0,
            "length": 0,
            "notes": [],
            "controlChanges": {},
            "id": 9
        },
        {
            "startTime": 0,
            "duration": 0,
            "length": 0,
            "notes": [],
            "controlChanges": {},
            "id": 10
        },
        {
            "startTime": 0,
            "duration": 0,
            "length": 0,
            "notes": [],
            "controlChanges": {},
            "id": 11
        },
        {
            "startTime": 0,
            "duration": 0,
            "length": 0,
            "notes": [],
            "controlChanges": {},
            "id": 12
        },
        {
            "startTime": 0,
            "duration": 0,
            "length": 0,
            "notes": [],
            "controlChanges": {},
            "id": 13
        },
        {
            "startTime": 0,
            "duration": 0,
            "length": 0,
            "notes": [],
            "controlChanges": {},
            "id": 14
        },
        {
            "startTime": 0,
            "duration": 0,
            "length": 0,
            "notes": [],
            "controlChanges": {},
            "id": 15
        },
        {
            "startTime": 0,
            "duration": 0,
            "length": 0,
            "notes": [],
            "controlChanges": {},
            "id": 16
        }
    ]
}