{
    "header": {
        "PPQ": 480,
        "timeSignature": [
            3,
            4
        ],
        "bpm": 143.99988480009216,
        "name": "Chopin Mazurka Opus 7 No. 2"
    },
    "startTime": 0,
    "duration": 150.83345400000013,
    "tracks": [
        {
            "startTime": 0,
            "duration": 0,
            "length": 0,
            "notes": [],
            "controlChanges": {},
            "id": 0,
            "name": "Chopin Mazurka Opus 7 No. 2"
        },
        {
            "startTime": 0.833334,
            "duration": 150.83345399999996,
            "length": 637,
            "notes": [
                {
                    "name": "E5",
                    "midi": 76,
                    "time": 0.833334,
                    "velocity": 0.3543307086614173,
                    "duration": 0.4166670000000001
                },
                {
                    "name": "F5",
                    "midi": 77,
                    "time": 1.2500010000000001,
                    "velocity": 0.36220472440944884,
                    "duration": 0.31250025000000003
                },
                {
                    "name": "E5",
                    "midi": 76,
                    "time": 1.5625012500000002,
                    "velocity": 0.3543307086614173,
                    "duration": 0.10416675000000009
                },
                {
                    "name": "D5",
                    "midi": 74,
                    "time": 1.6666680000000003,
                    "velocity": 0.3543307086614173,
                    "duration": 0.4166670000000001
                },
                {
                    "name": "F5",
                    "midi": 77,
                    "time": 2.0833350000000004,
                    "velocity": 0.3779527559055118,
                    "duration": 0.413194775
                },
                {
                    "name": "F5",
                    "midi": 77,
                    "time": 2.5000020000000003,
                    "velocity": 0.3700787401574803,
                    "duration": 0.8333339999999998
                },
                {
                    "name": "E5",
                    "midi": 76,
                    "time": 3.333336,
                    "velocity": 0.33858267716535434,
                    "duration": 0.4166669999999999
                },
                {
                    "name": "D5",
                    "midi": 74,
                    "time": 3.750003,
                    "velocity": 0.33070866141732286,
                    "duration": 0.06944449999999991
                },
                {
                    "name": "E5",
                    "midi": 76,
                    "time": 3.8194475,
                    "velocity": 0.33858267716535434,
                    "duration": 0.06944449999999991
                },
                {
                    "name": "D5",
                    "midi": 74,
                    "time": 3.888892,
                    "velocity": 0.3464566929133858,
                    "duration": 0.06944449999999991
                },
                {
                    "name": "C#5",
                    "midi": 73,
                    "time": 3.9583364999999997,
                    "velocity": 0.3543307086614173,
                    "duration": 0.20833350000000017
                },
                {
                    "name": "D5",
                    "midi": 74,
                    "time": 4.16667,
                    "velocity": 0.3700787401574803,
                    "duration": 0.20833350000000017
                },
                {
                    "name": "D#5",
                    "midi": 75,
                    "time": 4.3750035,
                    "velocity": 0.3543307086614173,
                    "duration": 0.20833350000000017
                },
                {
                    "name": "E5",
                    "midi": 76,
                    "time": 4.583337,
                    "velocity": 0.3937007874015748,
                    "duration": 0.20833350000000017
                },
                {
                    "name": "B4",
                    "midi": 71,
                    "time": 4.7916705,
                    "velocity": 0.3937007874015748,
                    "duration": 0.20833350000000017
                },
                {
                    "name": "D5",
                    "midi": 74,
                    "time": 5.000004000000001,
                    "velocity": 0.4251968503937008,
                    "duration": 0.8333339999999998
                },
                {
                    "name": "C5",
                    "midi": 72,
                    "time": 5.833338,
                    "velocity": 0.3543307086614173,
                    "duration": 0.41666700000000034
                },
                {
                    "name": "A4",
                    "midi": 69,
                    "time": 6.250005000000001,
                    "velocity": 0.4881889763779528,
                    "duration": 0.13888899999999982
                },
                {
                    "name": "B4",
                    "midi": 71,
                    "time": 6.3888940000000005,
                    "velocity": 0.44881889763779526,
                    "duration": 0.13888899999999982
                },
                {
                    "name": "A4",
                    "midi": 69,
                    "time": 6.527783,
                    "velocity": 0.44881889763779526,
                    "duration": 0.13888899999999982
                },
                {
                    "name": "G#4",
                    "midi": 68,
                    "time": 6.666672,
                    "velocity": 0.49606299212598426,
                    "duration": 0.20833350000000017
                },
                {
                    "name": "A4",
                    "midi": 69,
                    "time": 7.0833390000000005,
                    "velocity": 0.5275590551181102,
                    "duration": 0.20833350000000017
                },
                {
                    "name": "B4",
                    "midi": 71,
                    "time": 7.500006000000001,
                    "velocity": 0.5511811023622047,
                    "duration": 0.20833350000000017
                },
                {
                    "name": "E5",
                    "midi": 76,
                    "time": 7.916673000000001,
                    "velocity": 0.5669291338582677,
                    "duration": 0.8333340000000007
                },
                {
                    "name": "B4",
                    "midi": 71,
                    "time": 8.750007000000002,
                    "velocity": 0.5984251968503937,
                    "duration": 0.20833350000000017
                },
                {
                    "name": "G4",
                    "midi": 67,
                    "time": 8.958340500000002,
                    "velocity": 0.5748031496062992,
                    "duration": 0.20833350000000017
                },
                {
                    "name": "E4",
                    "midi": 64,
                    "time": 9.166674000000002,
                    "velocity": 0.5984251968503937,
                    "duration": 0.20833350000000017
                },
                {
                    "name": "B4",
                    "midi": 71,
                    "time": 9.375007500000002,
                    "velocity": 0.5590551181102362,
                    "duration": 0.20833350000000017
                },
                {
                    "name": "D#4",
                    "midi": 63,
                    "time": 9.583341000000003,
                    "velocity": 0.5748031496062992,
                    "duration": 0.41666700000000034
                },
                {
                    "name": "E4",
                    "midi": 64,
                    "time": 10.000008000000003,
                    "velocity": 0.5984251968503937,
                    "duration": 0.8333340000000007
                },
                {
                    "name": "E5",
                    "midi": 76,
                    "time": 10.833342000000004,
                    "velocity": 0.3543307086614173,
                    "duration": 0.41666700000000034
                },
                {
                    "name": "F5",
                    "midi": 77,
                    "time": 11.250009000000004,
                    "velocity": 0.36220472440944884,
                    "duration": 0.31250024999999937
                },
                {
                    "name": "E5",
                    "midi": 76,
                    "time": 11.562509250000003,
                    "velocity": 0.3543307086614173,
                    "duration": 0.1041667499999992
                },
                {
                    "name": "D5",
                    "midi": 74,
                    "time": 11.666676000000002,
                    "velocity": 0.3543307086614173,
                    "duration": 0.41666700000000034
                },
                {
                    "name": "F5",
                    "midi": 77,
                    "time": 12.083343000000003,
                    "velocity": 0.3779527559055118,
                    "duration": 0.4114586624999994
                },
                {
                    "name": "F5",
                    "midi": 77,
                    "time": 12.500010000000001,
                    "velocity": 0.3700787401574803,
                    "duration": 0.8333340000000007
                },
                {
                    "name": "E5",
                    "midi": 76,
                    "time": 13.333344000000002,
                    "velocity": 0.33858267716535434,
                    "duration": 0.41666700000000034
                },
                {
                    "name": "D5",
                    "midi": 74,
                    "time": 13.750011000000002,
                    "velocity": 0.33070866141732286,
                    "duration": 0.06944449999999946
                },
                {
                    "name": "E5",
                    "midi": 76,
                    "time": 13.819455500000002,
                    "velocity": 0.33858267716535434,
                    "duration": 0.06944449999999946
                },
                {
                    "name": "D5",
                    "midi": 74,
                    "time": 13.888900000000001,
                    "velocity": 0.3464566929133858,
                    "duration": 0.06944449999999946
                },
                {
                    "name": "C#5",
                    "midi": 73,
                    "time": 13.9583445,
                    "velocity": 0.3543307086614173,
                    "duration": 0.20833350000000017
                },
                {
                    "name": "D5",
                    "midi": 74,
                    "time": 14.166678000000001,
                    "velocity": 0.3700787401574803,
                    "duration": 0.20833350000000017
                },
                {
                    "name": "D#5",
                    "midi": 75,
                    "time": 14.375011500000001,
                    "velocity": 0.3543307086614173,
                    "duration": 0.20833350000000017
                },
                {
                    "name": "E5",
                    "midi": 76,
                    "time": 14.583345000000001,
                    "velocity": 0.3700787401574803,
                    "duration": 0.20833350000000017
                },
                {
                    "name": "B4",
                    "midi": 71,
                    "time": 14.791678500000002,
                    "velocity": 0.33070866141732286,
                    "duration": 0.09895841250000004
                },
                {
                    "name": "B4",
                    "midi": 71,
                    "time": 14.89584525,
                    "velocity": 0.3700787401574803,
                    "duration": 0.1041667499999992
                },
                {
                    "name": "D5",
                    "midi": 74,
                    "time": 15.000012,
                    "velocity": 0.4015748031496063,
                    "duration": 0.8333340000000007
                },
                {
                    "name": "C5",
                    "midi": 72,
                    "time": 15.833346,
                    "velocity": 0.3543307086614173,
                    "duration": 0.41666699999999857
                },
                {
                    "name": "A4",
                    "midi": 69,
                    "time": 16.250013,
                    "velocity": 0.36220472440944884,
                    "duration": 0.13888899999999893
                },
                {
                    "name": "A#4",
                    "midi": 70,
                    "time": 16.388901999999998,
                    "velocity": 0.33858267716535434,
                    "duration": 0.13888899999999893
                },
                {
                    "name": "A4",
                    "midi": 69,
                    "time": 16.527790999999997,
                    "velocity": 0.33858267716535434,
                    "duration": 0.13888899999999893
                },
                {
                    "name": "G4",
                    "midi": 67,
                    "time": 16.666679999999996,
                    "velocity": 0.3700787401574803,
                    "duration": 0.41666700000000034
                },
                {
                    "name": "A4",
                    "midi": 69,
                    "time": 17.083346999999996,
                    "velocity": 0.4015748031496063,
                    "duration": 0.41666700000000034
                },
                {
                    "name": "A#4",
                    "midi": 70,
                    "time": 17.500013999999997,
                    "velocity": 0.41732283464566927,
                    "duration": 0.41666700000000034
                },
                {
                    "name": "D5",
                    "midi": 74,
                    "time": 17.916680999999997,
                    "velocity": 0.4251968503937008,
                    "duration": 0.41666700000000034
                },
                {
                    "name": "A4",
                    "midi": 69,
                    "time": 18.750014999999998,
                    "velocity": 0.3779527559055118,
                    "duration": 0.31250024999999937
                },
                {
                    "name": "G#4",
                    "midi": 68,
                    "time": 19.062515249999997,
                    "velocity": 0.3464566929133858,
                    "duration": 0.10416675000000097
                },
                {
                    "name": "D4",
                    "midi": 62,
                    "time": 19.166681999999998,
                    "velocity": 0.31496062992125984,
                    "duration": 0.41666700000000034
                },
                {
                    "name": "E4",
                    "midi": 64,
                    "time": 19.166681999999998,
                    "velocity": 0.3779527559055118,
                    "duration": 0.41666700000000034
                },
                {
                    "name": "G#4",
                    "midi": 68,
                    "time": 19.583349,
                    "velocity": 0.3543307086614173,
                    "duration": 0.41666700000000034
                },
                {
                    "name": "D4",
                    "midi": 62,
                    "time": 19.583349,
                    "velocity": 0.2992125984251969,
                    "duration": 0.41666700000000034
                },
                {
                    "name": "C4",
                    "midi": 60,
                    "time": 20.000016,
                    "velocity": 0.30708661417322836,
                    "duration": 0.41666700000000034
                },
                {
                    "name": "A4",
                    "midi": 69,
                    "time": 20.000016,
                    "velocity": 0.36220472440944884,
                    "duration": 0.8333340000000007
                },
                {
                    "name": "E5",
                    "midi": 76,
                    "time": 20.83335,
                    "velocity": 0.3543307086614173,
                    "duration": 0.41666700000000034
                },
                {
                    "name": "F5",
                    "midi": 77,
                    "time": 21.250017,
                    "velocity": 0.36220472440944884,
                    "duration": 0.31250024999999937
                },
                {
                    "name": "E5",
                    "midi": 76,
                    "time": 21.56251725,
                    "velocity": 0.3543307086614173,
                    "duration": 0.10416675000000097
                },
                {
                    "name": "D5",
                    "midi": 74,
                    "time": 21.666684,
                    "velocity": 0.3543307086614173,
                    "duration": 0.41666700000000034
                },
                {
                    "name": "F5",
                    "midi": 77,
                    "time": 22.083351,
                    "velocity": 0.3779527559055118,
                    "duration": 0.41666700000000034
                },
                {
                    "name": "F5",
                    "midi": 77,
                    "time": 22.500018,
                    "velocity": 0.3700787401574803,
                    "duration": 0.8333340000000007
                },
                {
                    "name": "E5",
                    "midi": 76,
                    "time": 23.333352,
                    "velocity": 0.33858267716535434,
                    "duration": 0.41666700000000034
                },
                {
                    "name": "D5",
                    "midi": 74,
                    "time": 23.750019,
                    "velocity": 0.33070866141732286,
                    "duration": 0.06944449999999946
                },
                {
                    "name": "E5",
                    "midi": 76,
                    "time": 23.8194635,
                    "velocity": 0.33858267716535434,
                    "duration": 0.06944449999999946
                },
                {
                    "name": "D5",
                    "midi": 74,
                    "time": 23.888908,
                    "velocity": 0.3464566929133858,
                    "duration": 0.06944449999999946
                },
                {
                    "name": "C#5",
                    "midi": 73,
                    "time": 23.9583525,
                    "velocity": 0.3543307086614173,
                    "duration": 0.2083334999999984
                },
                {
                    "name": "D5",
                    "midi": 74,
                    "time": 24.166686,
                    "velocity": 0.3700787401574803,
                    "duration": 0.2083334999999984
                },
                {
                    "name": "D#5",
                    "midi": 75,
                    "time": 24.375019499999997,
                    "velocity": 0.3543307086614173,
                    "duration": 0.2083334999999984
                },
                {
                    "name": "E5",
                    "midi": 76,
                    "time": 24.583352999999995,
                    "velocity": 0.41732283464566927,
                    "duration": 0.2083334999999984
                },
                {
                    "name": "B4",
                    "midi": 71,
                    "time": 24.791686499999994,
                    "velocity": 0.3779527559055118,
                    "duration": 0.2083334999999984
                },
                {
                    "name": "D5",
                    "midi": 74,
                    "time": 25.000019999999992,
                    "velocity": 0.4566929133858268,
                    "duration": 0.8333340000000007
                },
                {
                    "name": "C5",
                    "midi": 72,
                    "time": 25.833353999999993,
                    "velocity": 0.3543307086614173,
                    "duration": 0.41666700000000034
                },
                {
                    "name": "A4",
                    "midi": 69,
                    "time": 26.250020999999993,
                    "velocity": 0.4881889763779528,
                    "duration": 0.13888899999999893
                },
                {
                    "name": "B4",
                    "midi": 71,
                    "time": 26.388909999999992,
                    "velocity": 0.44881889763779526,
                    "duration": 0.13888899999999893
                },
                {
                    "name": "A4",
                    "midi": 69,
                    "time": 26.52779899999999,
                    "velocity": 0.44881889763779526,
                    "duration": 0.13888899999999893
                },
                {
                    "name": "G#4",
                    "midi": 68,
                    "time": 26.66668799999999,
                    "velocity": 0.49606299212598426,
                    "duration": 0.2083334999999984
                },
                {
                    "name": "A4",
                    "midi": 69,
                    "time": 27.083354999999987,
                    "velocity": 0.5275590551181102,
                    "duration": 0.2083334999999984
                },
                {
                    "name": "B4",
                    "midi": 71,
                    "time": 27.500021999999984,
                    "velocity": 0.5511811023622047,
                    "duration": 0.2083334999999984
                },
                {
                    "name": "E5",
                    "midi": 76,
                    "time": 27.91668899999998,
                    "velocity": 0.5669291338582677,
                    "duration": 0.8333340000000007
                },
                {
                    "name": "B4",
                    "midi": 71,
                    "time": 28.75002299999998,
                    "velocity": 0.5984251968503937,
                    "duration": 0.2083334999999984
                },
                {
                    "name": "G4",
                    "midi": 67,
                    "time": 28.95835649999998,
                    "velocity": 0.5748031496062992,
                    "duration": 0.2083334999999984
                },
                {
                    "name": "E4",
                    "midi": 64,
                    "time": 29.166689999999978,
                    "velocity": 0.5984251968503937,
                    "duration": 0.2083334999999984
                },
                {
                    "name": "B4",
                    "midi": 71,
                    "time": 29.375023499999976,
                    "velocity": 0.5590551181102362,
                    "duration": 0.2083334999999984
                },
                {
                    "name": "D#4",
                    "midi": 63,
                    "time": 29.583356999999975,
                    "velocity": 0.5748031496062992,
                    "duration": 0.41666700000000034
                },
                {
                    "name": "E4",
                    "midi": 64,
                    "time": 30.000023999999975,
                    "velocity": 0.5984251968503937,
                    "duration": 0.8333340000000007
                },
                {
                    "name": "E5",
                    "midi": 76,
                    "time": 30.833357999999976,
                    "velocity": 0.3543307086614173,
                    "duration": 0.41666700000000034
                },
                {
                    "name": "F5",
                    "midi": 77,
                    "time": 31.250024999999976,
                    "velocity": 0.36220472440944884,
                    "duration": 0.31250024999999937
                },
                {
                    "name": "E5",
                    "midi": 76,
                    "time": 31.562525249999975,
                    "velocity": 0.3543307086614173,
                    "duration": 0.10416675000000097
                },
                {
                    "name": "D5",
                    "midi": 74,
                    "time": 31.666691999999976,
                    "velocity": 0.3543307086614173,
                    "duration": 0.4166669999999968
                },
                {
                    "name": "F5",
                    "midi": 77,
                    "time": 32.08335899999997,
                    "velocity": 0.3779527559055118,
                    "duration": 0.4166669999999968
                },
                {
                    "name": "F5",
                    "midi": 77,
                    "time": 32.50002599999997,
                    "velocity": 0.3700787401574803,
                    "duration": 0.8333340000000007
                },
                {
                    "name": "E5",
                    "midi": 76,
                    "time": 33.33335999999997,
                    "velocity": 0.33858267716535434,
                    "duration": 0.4166669999999968
                },
                {
                    "name": "D5",
                    "midi": 74,
                    "time": 33.75002699999997,
                    "velocity": 0.33070866141732286,
                    "duration": 0.06944450000000302
                },
                {
                    "name": "E5",
                    "midi": 76,
                    "time": 33.81947149999997,
                    "velocity": 0.33858267716535434,
                    "duration": 0.06944450000000302
                },
                {
                    "name": "D5",
                    "midi": 74,
                    "time": 33.88891599999997,
                    "velocity": 0.3464566929133858,
                    "duration": 0.06944450000000302
                },
                {
                    "name": "C#5",
                    "midi": 73,
                    "time": 33.958360499999976,
                    "velocity": 0.3543307086614173,
                    "duration": 0.20833350000000195
                },
                {
                    "name": "D5",
                    "midi": 74,
                    "time": 34.16669399999998,
                    "velocity": 0.3700787401574803,
                    "duration": 0.20833350000000195
                },
                {
                    "name": "D#5",
                    "midi": 75,
                    "time": 34.37502749999998,
                    "velocity": 0.3543307086614173,
                    "duration": 0.20833350000000195
                },
                {
                    "name": "E5",
                    "midi": 76,
                    "time": 34.58336099999998,
                    "velocity": 0.3700787401574803,
                    "duration": 0.20833350000000195
                },
                {
                    "name": "B4",
                    "midi": 71,
                    "time": 34.791694499999984,
                    "velocity": 0.33070866141732286,
                    "duration": 0.09895841249999648
                },
                {
                    "name": "B4",
                    "midi": 71,
                    "time": 34.89586124999998,
                    "velocity": 0.33070866141732286,
                    "duration": 0.10416674999999742
                },
                {
                    "name": "D5",
                    "midi": 74,
                    "time": 35.00002799999998,
                    "velocity": 0.36220472440944884,
                    "duration": 0.8333340000000007
                },
                {
                    "name": "C5",
                    "midi": 72,
                    "time": 35.83336199999998,
                    "velocity": 0.3543307086614173,
                    "duration": 0.4166669999999968
                },
                {
                    "name": "A4",
                    "midi": 69,
                    "time": 36.25002899999998,
                    "velocity": 0.36220472440944884,
                    "duration": 0.13888899999999893
                },
                {
                    "name": "A#4",
                    "midi": 70,
                    "time": 36.388917999999975,
                    "velocity": 0.33858267716535434,
                    "duration": 0.13888899999999893
                },
                {
                    "name": "A4",
                    "midi": 69,
                    "time": 36.527806999999974,
                    "velocity": 0.33858267716535434,
                    "duration": 0.13888899999999893
                },
                {
                    "name": "G4",
                    "midi": 67,
                    "time": 36.66669599999997,
                    "velocity": 0.3700787401574803,
                    "duration": 0.4166669999999968
                },
                {
                    "name": "A4",
                    "midi": 69,
                    "time": 37.08336299999997,
                    "velocity": 0.4251968503937008,
                    "duration": 0.4166669999999968
                },
                {
                    "name": "A#4",
                    "midi": 70,
                    "time": 37.50002999999997,
                    "velocity": 0.4881889763779528,
                    "duration": 0.4166669999999968
                },
                {
                    "name": "D5",
                    "midi": 74,
                    "time": 37.916696999999964,
                    "velocity": 0.4645669291338583,
                    "duration": 0.4166669999999968
                },
                {
                    "name": "A4",
                    "midi": 69,
                    "time": 38.75003099999996,
                    "velocity": 0.3779527559055118,
                    "duration": 0.31250024999999937
                },
                {
                    "name": "G#4",
                    "midi": 68,
                    "time": 39.06253124999996,
                    "velocity": 0.3464566929133858,
                    "duration": 0.10416674999999742
                },
                {
                    "name": "D4",
                    "midi": 62,
                    "time": 39.166697999999954,
                    "velocity": 0.31496062992125984,
                    "duration": 0.4166669999999968
                },
                {
                    "name": "E4",
                    "midi": 64,
                    "time": 39.166697999999954,
                    "velocity": 0.3779527559055118,
                    "duration": 0.4166669999999968
                },
                {
                    "name": "G#4",
                    "midi": 68,
                    "time": 39.58336499999995,
                    "velocity": 0.3543307086614173,
                    "duration": 0.4166669999999968
                },
                {
                    "name": "D4",
                    "midi": 62,
                    "time": 39.58336499999995,
                    "velocity": 0.2992125984251969,
                    "duration": 0.4166669999999968
                },
                {
                    "name": "C4",
                    "midi": 60,
                    "time": 40.00003199999995,
                    "velocity": 0.30708661417322836,
                    "duration": 0.4166669999999968
                },
                {
                    "name": "A4",
                    "midi": 69,
                    "time": 40.00003199999995,
                    "velocity": 0.36220472440944884,
                    "duration": 0.8333339999999936
                },
                {
                    "name": "B4",
                    "midi": 71,
                    "time": 40.83336599999994,
                    "velocity": 0.4015748031496063,
                    "duration": 0.4166669999999968
                },
                {
                    "name": "C5",
                    "midi": 72,
                    "time": 41.25003299999994,
                    "velocity": 0.4094488188976378,
                    "duration": 0.20833350000000195
                },
                {
                    "name": "D5",
                    "midi": 74,
                    "time": 41.45836649999994,
                    "velocity": 0.41732283464566927,
                    "duration": 0.20833350000000195
                },
                {
                    "name": "D#5",
                    "midi": 75,
                    "time": 41.66669999999994,
                    "velocity": 0.4330708661417323,
                    "duration": 0.41232671875000193
                },
                {
                    "name": "D#5",
                    "midi": 75,
                    "time": 42.083366999999946,
                    "velocity": 0.47244094488188976,
                    "duration": 0.31250024999999937
                },
                {
                    "name": "F5",
                    "midi": 77,
                    "time": 42.395867249999945,
                    "velocity": 0.4330708661417323,
                    "duration": 0.10416674999999742
                },
                {
                    "name": "D#5",
                    "midi": 75,
                    "time": 42.50003399999994,
                    "velocity": 0.4881889763779528,
                    "duration": 0.8333340000000007
                },
                {
                    "name": "D5",
                    "midi": 74,
                    "time": 43.33336799999994,
                    "velocity": 0.4251968503937008,
                    "duration": 0.4166669999999968
                },
                {
                    "name": "C5",
                    "midi": 72,
                    "time": 43.75003499999994,
                    "velocity": 0.4094488188976378,
                    "duration": 0.20833350000000195
                },
                {
                    "name": "D5",
                    "midi": 74,
                    "time": 43.95836849999994,
                    "velocity": 0.4251968503937008,
                    "duration": 0.20833350000000195
                },
                {
                    "name": "D#5",
                    "midi": 75,
                    "time": 44.166701999999944,
                    "velocity": 0.44881889763779526,
                    "duration": 0.4131947750000009
                },
                {
                    "name": "D#5",
                    "midi": 75,
                    "time": 44.58336899999995,
                    "velocity": 0.5196850393700787,
                    "duration": 0.31250024999999937
                },
                {
                    "name": "F5",
                    "midi": 77,
                    "time": 44.89586924999995,
                    "velocity": 0.4881889763779528,
                    "duration": 0.10416674999999742
                },
                {
                    "name": "D#5",
                    "midi": 75,
                    "time": 45.000035999999945,
                    "velocity": 0.5984251968503937,
                    "duration": 0.8333340000000007
                },
                {
                    "name": "D5",
                    "midi": 74,
                    "time": 45.833369999999945,
                    "velocity": 0.5275590551181102,
                    "duration": 0.4166669999999968
                },
                {
                    "name": "A#5",
                    "midi": 82,
                    "time": 46.25003699999994,
                    "velocity": 0.6771653543307087,
                    "duration": 0.8333340000000007
                },
                {
                    "name": "C#5",
                    "midi": 73,
                    "time": 47.08337099999994,
                    "velocity": 0.5196850393700787,
                    "duration": 0.4166669999999968
                },
                {
                    "name": "A5",
                    "midi": 81,
                    "time": 47.50003799999994,
                    "velocity": 0.5984251968503937,
                    "duration": 0.8333340000000007
                },
                {
                    "name": "C5",
                    "midi": 72,
                    "time": 48.33337199999994,
                    "velocity": 0.4881889763779528,
                    "duration": 0.4166669999999968
                },
                {
                    "name": "G#5",
                    "midi": 80,
                    "time": 48.75003899999994,
                    "velocity": 0.5984251968503937,
                    "duration": 0.8333340000000007
                },
                {
                    "name": "B4",
                    "midi": 71,
                    "time": 49.58337299999994,
                    "velocity": 0.4409448818897638,
                    "duration": 0.4166669999999968
                },
                {
                    "name": "G5",
                    "midi": 79,
                    "time": 50.000039999999935,
                    "velocity": 0.5275590551181102,
                    "duration": 0.6250004999999987
                },
                {
                    "name": "A#4",
                    "midi": 70,
                    "time": 50.62504049999993,
                    "velocity": 0.4251968503937008,
                    "duration": 0.20833350000000195
                },
                {
                    "name": "A4",
                    "midi": 69,
                    "time": 50.833373999999935,
                    "velocity": 0.3543307086614173,
                    "duration": 0.20833350000000195
                },
                {
                    "name": "E5",
                    "midi": 76,
                    "time": 51.04170749999994,
                    "velocity": 0.3543307086614173,
                    "duration": 0.20833350000000195
                },
                {
                    "name": "F5",
                    "midi": 77,
                    "time": 51.25004099999994,
                    "velocity": 0.36220472440944884,
                    "duration": 0.20833350000000195
                },
                {
                    "name": "E5",
                    "midi": 76,
                    "time": 51.45837449999994,
                    "velocity": 0.3543307086614173,
                    "duration": 0.20833350000000195
                },
                {
                    "name": "D5",
                    "midi": 74,
                    "time": 51.66670799999994,
                    "velocity": 0.3543307086614173,
                    "duration": 0.4166669999999968
                },
                {
                    "name": "F5",
                    "midi": 77,
                    "time": 52.08337499999994,
                    "velocity": 0.3779527559055118,
                    "duration": 0.4166669999999968
                },
                {
                    "name": "F5",
                    "midi": 77,
                    "time": 52.50004199999994,
                    "velocity": 0.3700787401574803,
                    "duration": 0.8333340000000007
                },
                {
                    "name": "E5",
                    "midi": 76,
                    "time": 53.33337599999994,
                    "velocity": 0.33858267716535434,
                    "duration": 0.4166669999999968
                },
                {
                    "name": "D5",
                    "midi": 74,
                    "time": 53.750042999999934,
                    "velocity": 0.33070866141732286,
                    "duration": 0.06944450000000302
                },
                {
                    "name": "E5",
                    "midi": 76,
                    "time": 53.81948749999994,
                    "velocity": 0.33858267716535434,
                    "duration": 0.06944450000000302
                },
                {
                    "name": "D5",
                    "midi": 74,
                    "time": 53.88893199999994,
                    "velocity": 0.3464566929133858,
                    "duration": 0.06944450000000302
                },
                {
                    "name": "C#5",
                    "midi": 73,
                    "time": 53.95837649999994,
                    "velocity": 0.3543307086614173,
                    "duration": 0.20833350000000195
                },
                {
                    "name": "D5",
                    "midi": 74,
                    "time": 54.166709999999945,
                    "velocity": 0.3700787401574803,
                    "duration": 0.20833350000000195
                },
                {
                    "name": "D#5",
                    "midi": 75,
                    "time": 54.37504349999995,
                    "velocity": 0.3543307086614173,
                    "duration": 0.20833350000000195
                },
                {
                    "name": "E5",
                    "midi": 76,
                    "time": 54.58337699999995,
                    "velocity": 0.3858267716535433,
                    "duration": 0.20833350000000195
                },
                {
                    "name": "B4",
                    "midi": 71,
                    "time": 54.79171049999995,
                    "velocity": 0.36220472440944884,
                    "duration": 0.20833350000000195
                },
                {
                    "name": "D5",
                    "midi": 74,
                    "time": 55.00004399999995,
                    "velocity": 0.4330708661417323,
                    "duration": 0.8333340000000007
                },
                {
                    "name": "C5",
                    "midi": 72,
                    "time": 55.83337799999995,
                    "velocity": 0.3543307086614173,
                    "duration": 0.4166669999999968
                },
                {
                    "name": "A4",
                    "midi": 69,
                    "time": 56.25004499999995,
                    "velocity": 0.36220472440944884,
                    "duration": 0.13888899999999893
                },
                {
                    "name": "A#4",
                    "midi": 70,
                    "time": 56.38893399999995,
                    "velocity": 0.33858267716535434,
                    "duration": 0.13888899999999893
                },
                {
                    "name": "A4",
                    "midi": 69,
                    "time": 56.52782299999995,
                    "velocity": 0.33858267716535434,
                    "duration": 0.13888899999999893
                },
                {
                    "name": "G4",
                    "midi": 67,
                    "time": 56.66671199999995,
                    "velocity": 0.3700787401574803,
                    "duration": 0.4166669999999968
                },
                {
                    "name": "A4",
                    "midi": 69,
                    "time": 57.083378999999944,
                    "velocity": 0.4015748031496063,
                    "duration": 0.4166669999999968
                },
                {
                    "name": "A#4",
                    "midi": 70,
                    "time": 57.50004599999994,
                    "velocity": 0.41732283464566927,
                    "duration": 0.4166669999999968
                },
                {
                    "name": "D5",
                    "midi": 74,
                    "time": 57.91671299999994,
                    "velocity": 0.4251968503937008,
                    "duration": 0.4166669999999968
                },
                {
                    "name": "A4",
                    "midi": 69,
                    "time": 58.75004699999993,
                    "velocity": 0.3779527559055118,
                    "duration": 0.31250024999999937
                },
                {
                    "name": "G#4",
                    "midi": 68,
                    "time": 59.06254724999993,
                    "velocity": 0.3464566929133858,
                    "duration": 0.10416674999999742
                },
                {
                    "name": "D4",
                    "midi": 62,
                    "time": 59.16671399999993,
                    "velocity": 0.31496062992125984,
                    "duration": 0.4166669999999968
                },
                {
                    "name": "E4",
                    "midi": 64,
                    "time": 59.16671399999993,
                    "velocity": 0.3779527559055118,
                    "duration": 0.4166669999999968
                },
                {
                    "name": "G#4",
                    "midi": 68,
                    "time": 59.583380999999925,
                    "velocity": 0.3543307086614173,
                    "duration": 0.4166669999999968
                },
                {
                    "name": "D4",
                    "midi": 62,
                    "time": 59.583380999999925,
                    "velocity": 0.2992125984251969,
                    "duration": 0.4166669999999968
                },
                {
                    "name": "C4",
                    "midi": 60,
                    "time": 60.00004799999992,
                    "velocity": 0.30708661417322836,
                    "duration": 0.4166669999999968
                },
                {
                    "name": "A4",
                    "midi": 69,
                    "time": 60.00004799999992,
                    "velocity": 0.36220472440944884,
                    "duration": 0.8333339999999936
                },
                {
                    "name": "B4",
                    "midi": 71,
                    "time": 60.833381999999915,
                    "velocity": 0.4015748031496063,
                    "duration": 0.4166669999999968
                },
                {
                    "name": "C5",
                    "midi": 72,
                    "time": 61.25004899999991,
                    "velocity": 0.4094488188976378,
                    "duration": 0.20833350000000195
                },
                {
                    "name": "D5",
                    "midi": 74,
                    "time": 61.458382499999914,
                    "velocity": 0.41732283464566927,
                    "duration": 0.20833350000000195
                },
                {
                    "name": "D#5",
                    "midi": 75,
                    "time": 61.666715999999916,
                    "velocity": 0.4330708661417323,
                    "duration": 0.4131947750000009
                },
                {
                    "name": "D#5",
                    "midi": 75,
                    "time": 62.08338299999992,
                    "velocity": 0.47244094488188976,
                    "duration": 0.31250024999999937
                },
                {
                    "name": "F5",
                    "midi": 77,
                    "time": 62.39588324999992,
                    "velocity": 0.4330708661417323,
                    "duration": 0.10416674999999742
                },
                {
                    "name": "D#5",
                    "midi": 75,
                    "time": 62.500049999999916,
                    "velocity": 0.4881889763779528,
                    "duration": 0.8333340000000007
                },
                {
                    "name": "D5",
                    "midi": 74,
                    "time": 63.33338399999992,
                    "velocity": 0.4251968503937008,
                    "duration": 0.4166669999999968
                },
                {
                    "name": "C5",
                    "midi": 72,
                    "time": 63.750050999999914,
                    "velocity": 0.4094488188976378,
                    "duration": 0.20833350000000195
                },
                {
                    "name": "D5",
                    "midi": 74,
                    "time": 63.958384499999916,
                    "velocity": 0.4251968503937008,
                    "duration": 0.20833350000000195
                },
                {
                    "name": "D#5",
                    "midi": 75,
                    "time": 64.16671799999992,
                    "velocity": 0.44881889763779526,
                    "duration": 0.4131947749999938
                },
                {
                    "name": "D#5",
                    "midi": 75,
                    "time": 64.58338499999991,
                    "velocity": 0.5196850393700787,
                    "duration": 0.31250024999999937
                },
                {
                    "name": "F5",
                    "midi": 77,
                    "time": 64.8958852499999,
                    "velocity": 0.4881889763779528,
                    "duration": 0.10416675000000453
                },
                {
                    "name": "D#5",
                    "midi": 75,
                    "time": 65.00005199999991,
                    "velocity": 0.5984251968503937,
                    "duration": 0.8333339999999936
                },
                {
                    "name": "D5",
                    "midi": 74,
                    "time": 65.8333859999999,
                    "velocity": 0.4881889763779528,
                    "duration": 0.4166670000000039
                },
                {
                    "name": "A#5",
                    "midi": 82,
                    "time": 66.25005299999991,
                    "velocity": 0.6377952755905512,
                    "duration": 0.8333339999999936
                },
                {
                    "name": "C#5",
                    "midi": 73,
                    "time": 67.0833869999999,
                    "velocity": 0.4881889763779528,
                    "duration": 0.4166670000000039
                },
                {
                    "name": "A5",
                    "midi": 81,
                    "time": 67.5000539999999,
                    "velocity": 0.5984251968503937,
                    "duration": 0.8333339999999936
                },
                {
                    "name": "C5",
                    "midi": 72,
                    "time": 68.3333879999999,
                    "velocity": 0.4330708661417323,
                    "duration": 0.4166670000000039
                },
                {
                    "name": "G#5",
                    "midi": 80,
                    "time": 68.7500549999999,
                    "velocity": 0.5590551181102362,
                    "duration": 0.8333339999999936
                },
                {
                    "name": "B4",
                    "midi": 71,
                    "time": 69.5833889999999,
                    "velocity": 0.33070866141732286,
                    "duration": 0.4166670000000039
                },
                {
                    "name": "G5",
                    "midi": 79,
                    "time": 70.0000559999999,
                    "velocity": 0.4409448818897638,
                    "duration": 0.6250004999999987
                },
                {
                    "name": "A#4",
                    "midi": 70,
                    "time": 70.6250564999999,
                    "velocity": 0.3700787401574803,
                    "duration": 0.20833349999999484
                },
                {
                    "name": "A4",
                    "midi": 69,
                    "time": 70.8333899999999,
                    "velocity": 0.3543307086614173,
                    "duration": 0.20833349999999484
                },
                {
                    "name": "E5",
                    "midi": 76,
                    "time": 71.04172349999989,
                    "velocity": 0.3543307086614173,
                    "duration": 0.20833349999999484
                },
                {
                    "name": "F5",
                    "midi": 77,
                    "time": 71.25005699999988,
                    "velocity": 0.36220472440944884,
                    "duration": 0.20833349999999484
                },
                {
                    "name": "E5",
                    "midi": 76,
                    "time": 71.45839049999988,
                    "velocity": 0.3543307086614173,
                    "duration": 0.20833349999999484
                },
                {
                    "name": "D5",
                    "midi": 74,
                    "time": 71.66672399999987,
                    "velocity": 0.3543307086614173,
                    "duration": 0.4166670000000039
                },
                {
                    "name": "F5",
                    "midi": 77,
                    "time": 72.08339099999988,
                    "velocity": 0.3779527559055118,
                    "duration": 0.41145866249999585
                },
                {
                    "name": "F5",
                    "midi": 77,
                    "time": 72.50005799999987,
                    "velocity": 0.3700787401574803,
                    "duration": 0.8333339999999936
                },
                {
                    "name": "E5",
                    "midi": 76,
                    "time": 73.33339199999986,
                    "velocity": 0.33858267716535434,
                    "duration": 0.4166670000000039
                },
                {
                    "name": "D5",
                    "midi": 74,
                    "time": 73.75005899999987,
                    "velocity": 0.33070866141732286,
                    "duration": 0.06944450000000302
                },
                {
                    "name": "E5",
                    "midi": 76,
                    "time": 73.81950349999987,
                    "velocity": 0.33858267716535434,
                    "duration": 0.06944450000000302
                },
                {
                    "name": "D5",
                    "midi": 74,
                    "time": 73.88894799999987,
                    "velocity": 0.3464566929133858,
                    "duration": 0.06944450000000302
                },
                {
                    "name": "C#5",
                    "midi": 73,
                    "time": 73.95839249999987,
                    "velocity": 0.3543307086614173,
                    "duration": 0.20833349999999484
                },
                {
                    "name": "D5",
                    "midi": 74,
                    "time": 74.16672599999987,
                    "velocity": 0.3700787401574803,
                    "duration": 0.20833349999999484
                },
                {
                    "name": "D#5",
                    "midi": 75,
                    "time": 74.37505949999986,
                    "velocity": 0.3543307086614173,
                    "duration": 0.20833349999999484
                },
                {
                    "name": "E5",
                    "midi": 76,
                    "time": 74.58339299999986,
                    "velocity": 0.41732283464566927,
                    "duration": 0.20833349999999484
                },
                {
                    "name": "B4",
                    "midi": 71,
                    "time": 74.79172649999985,
                    "velocity": 0.36220472440944884,
                    "duration": 0.20833349999999484
                },
                {
                    "name": "D5",
                    "midi": 74,
                    "time": 75.00005999999985,
                    "velocity": 0.4251968503937008,
                    "duration": 0.8333339999999936
                },
                {
                    "name": "C5",
                    "midi": 72,
                    "time": 75.83339399999984,
                    "velocity": 0.3543307086614173,
                    "duration": 0.4166670000000039
                },
                {
                    "name": "A4",
                    "midi": 69,
                    "time": 76.25006099999985,
                    "velocity": 0.36220472440944884,
                    "duration": 0.13888900000000604
                },
                {
                    "name": "A#4",
                    "midi": 70,
                    "time": 76.38894999999985,
                    "velocity": 0.33858267716535434,
                    "duration": 0.13888900000000604
                },
                {
                    "name": "A4",
                    "midi": 69,
                    "time": 76.52783899999986,
                    "velocity": 0.33858267716535434,
                    "duration": 0.13888900000000604
                },
                {
                    "name": "G4",
                    "midi": 67,
                    "time": 76.66672799999986,
                    "velocity": 0.3700787401574803,
                    "duration": 0.4166670000000039
                },
                {
                    "name": "A4",
                    "midi": 69,
                    "time": 77.08339499999987,
                    "velocity": 0.4015748031496063,
                    "duration": 0.4166670000000039
                },
                {
                    "name": "A#4",
                    "midi": 70,
                    "time": 77.50006199999987,
                    "velocity": 0.48031496062992124,
                    "duration": 0.4166670000000039
                },
                {
                    "name": "D5",
                    "midi": 74,
                    "time": 77.91672899999988,
                    "velocity": 0.48031496062992124,
                    "duration": 0.4166670000000039
                },
                {
                    "name": "A4",
                    "midi": 69,
                    "time": 78.75006299999988,
                    "velocity": 0.3779527559055118,
                    "duration": 0.31250024999999937
                },
                {
                    "name": "G#4",
                    "midi": 68,
                    "time": 79.06256324999988,
                    "velocity": 0.3464566929133858,
                    "duration": 0.10416675000000453
                },
                {
                    "name": "D4",
                    "midi": 62,
                    "time": 79.16672999999989,
                    "velocity": 0.31496062992125984,
                    "duration": 0.4166670000000039
                },
                {
                    "name": "E4",
                    "midi": 64,
                    "time": 79.16672999999989,
                    "velocity": 0.3779527559055118,
                    "duration": 0.4166670000000039
                },
                {
                    "name": "G#4",
                    "midi": 68,
                    "time": 79.58339699999989,
                    "velocity": 0.3543307086614173,
                    "duration": 0.4166670000000039
                },
                {
                    "name": "D4",
                    "midi": 62,
                    "time": 79.58339699999989,
                    "velocity": 0.2992125984251969,
                    "duration": 0.4166670000000039
                },
                {
                    "name": "A4",
                    "midi": 69,
                    "time": 80.0000639999999,
                    "velocity": 0.36220472440944884,
                    "duration": 0.8333340000000078
                },
                {
                    "name": "C#4",
                    "midi": 61,
                    "time": 80.4167309999999,
                    "velocity": 0.1968503937007874,
                    "duration": 0.4166670000000039
                },
                {
                    "name": "E4",
                    "midi": 64,
                    "time": 80.4167309999999,
                    "velocity": 0.23622047244094488,
                    "duration": 0.4166670000000039
                },
                {
                    "name": "C#4",
                    "midi": 61,
                    "time": 80.8333979999999,
                    "velocity": 0.2047244094488189,
                    "duration": 0.4166670000000039
                },
                {
                    "name": "E4",
                    "midi": 64,
                    "time": 80.8333979999999,
                    "velocity": 0.2440944881889764,
                    "duration": 0.4166670000000039
                },
                {
                    "name": "G4",
                    "midi": 67,
                    "time": 81.2500649999999,
                    "velocity": 0.3543307086614173,
                    "duration": 0.4166670000000039
                },
                {
                    "name": "C#5",
                    "midi": 73,
                    "time": 81.2500649999999,
                    "velocity": 0.4251968503937008,
                    "duration": 0.20833349999999484
                },
                {
                    "name": "C#5",
                    "midi": 73,
                    "time": 81.5625652499999,
                    "velocity": 0.3858267716535433,
                    "duration": 0.10416675000000453
                },
                {
                    "name": "F#4",
                    "midi": 66,
                    "time": 81.66673199999991,
                    "velocity": 0.3543307086614173,
                    "duration": 0.4166670000000039
                },
                {
                    "name": "D5",
                    "midi": 74,
                    "time": 81.66673199999991,
                    "velocity": 0.4251968503937008,
                    "duration": 0.4166670000000039
                },
                {
                    "name": "F4",
                    "midi": 65,
                    "time": 82.08339899999991,
                    "velocity": 0.3464566929133858,
                    "duration": 0.4166670000000039
                },
                {
                    "name": "B4",
                    "midi": 71,
                    "time": 82.08339899999991,
                    "velocity": 0.41732283464566927,
                    "duration": 0.4166670000000039
                },
                {
                    "name": "D4",
                    "midi": 62,
                    "time": 82.50006599999992,
                    "velocity": 0.3543307086614173,
                    "duration": 0.4166670000000039
                },
                {
                    "name": "G#4",
                    "midi": 68,
                    "time": 82.50006599999992,
                    "velocity": 0.4251968503937008,
                    "duration": 0.31250024999999937
                },
                {
                    "name": "E4",
                    "midi": 64,
                    "time": 82.81256624999992,
                    "velocity": 0.4015748031496063,
                    "duration": 0.10416675000000453
                },
                {
                    "name": "C#4",
                    "midi": 61,
                    "time": 82.91673299999992,
                    "velocity": 0.3543307086614173,
                    "duration": 0.6250004999999987
                },
                {
                    "name": "A4",
                    "midi": 69,
                    "time": 82.91673299999992,
                    "velocity": 0.4251968503937008,
                    "duration": 0.6250004999999987
                },
                {
                    "name": "G#4",
                    "midi": 68,
                    "time": 83.54173349999992,
                    "velocity": 0.3543307086614173,
                    "duration": 0.20833349999999484
                },
                {
                    "name": "B4",
                    "midi": 71,
                    "time": 83.54173349999992,
                    "velocity": 0.4251968503937008,
                    "duration": 0.20833349999999484
                },
                {
                    "name": "G4",
                    "midi": 67,
                    "time": 83.75006699999992,
                    "velocity": 0.3543307086614173,
                    "duration": 0.4166670000000039
                },
                {
                    "name": "C#5",
                    "midi": 73,
                    "time": 83.75006699999992,
                    "velocity": 0.4251968503937008,
                    "duration": 0.31250024999999937
                },
                {
                    "name": "E5",
                    "midi": 76,
                    "time": 84.06256724999992,
                    "velocity": 0.4251968503937008,
                    "duration": 0.10416675000000453
                },
                {
                    "name": "F#4",
                    "midi": 66,
                    "time": 84.16673399999992,
                    "velocity": 0.3700787401574803,
                    "duration": 0.31250024999999937
                },
                {
                    "name": "D5",
                    "midi": 74,
                    "time": 84.16673399999992,
                    "velocity": 0.4409448818897638,
                    "duration": 0.31250024999999937
                },
                {
                    "name": "F4",
                    "midi": 65,
                    "time": 84.58340099999992,
                    "velocity": 0.3543307086614173,
                    "duration": 0.4166670000000039
                },
                {
                    "name": "B4",
                    "midi": 71,
                    "time": 84.58340099999992,
                    "velocity": 0.4251968503937008,
                    "duration": 0.4166670000000039
                },
                {
                    "name": "D4",
                    "midi": 62,
                    "time": 85.00006799999993,
                    "velocity": 0.3543307086614173,
                    "duration": 0.4166670000000181
                },
                {
                    "name": "G#4",
                    "midi": 68,
                    "time": 85.00006799999993,
                    "velocity": 0.4251968503937008,
                    "duration": 0.13888900000000604
                },
                {
                    "name": "F#4",
                    "midi": 66,
                    "time": 85.13895699999993,
                    "velocity": 0.4409448818897638,
                    "duration": 0.13888900000000604
                },
                {
                    "name": "E4",
                    "midi": 64,
                    "time": 85.27784599999994,
                    "velocity": 0.44881889763779526,
                    "duration": 0.13888900000000604
                },
                {
                    "name": "C#4",
                    "midi": 61,
                    "time": 85.41673499999995,
                    "velocity": 0.4094488188976378,
                    "duration": 0.6250004999999987
                },
                {
                    "name": "A4",
                    "midi": 69,
                    "time": 85.41673499999995,
                    "velocity": 0.4881889763779528,
                    "duration": 0.6250004999999987
                },
                {
                    "name": "G#4",
                    "midi": 68,
                    "time": 86.04173549999994,
                    "velocity": 0.3543307086614173,
                    "duration": 0.20833349999999484
                },
                {
                    "name": "B4",
                    "midi": 71,
                    "time": 86.04173549999994,
                    "velocity": 0.4251968503937008,
                    "duration": 0.20833349999999484
                },
                {
                    "name": "G4",
                    "midi": 67,
                    "time": 86.25006899999994,
                    "velocity": 0.3464566929133858,
                    "duration": 0.05208337499999516
                },
                {
                    "name": "C#5",
                    "midi": 73,
                    "time": 86.25006899999994,
                    "velocity": 0.4094488188976378,
                    "duration": 0.05208337499999516
                },
                {
                    "name": "G4",
                    "midi": 67,
                    "time": 86.38895799999993,
                    "velocity": 0.3543307086614173,
                    "duration": 0.05208337499999516
                },
                {
                    "name": "C#5",
                    "midi": 73,
                    "time": 86.38895799999993,
                    "velocity": 0.4251968503937008,
                    "duration": 0.05208337499999516
                },
                {
                    "name": "G4",
                    "midi": 67,
                    "time": 86.52784699999992,
                    "velocity": 0.36220472440944884,
                    "duration": 0.05208337499999516
                },
                {
                    "name": "C#5",
                    "midi": 73,
                    "time": 86.52784699999992,
                    "velocity": 0.4330708661417323,
                    "duration": 0.05208337499999516
                },
                {
                    "name": "F#4",
                    "midi": 66,
                    "time": 86.66673599999991,
                    "velocity": 0.3937007874015748,
                    "duration": 0.20833349999999484
                },
                {
                    "name": "D5",
                    "midi": 74,
                    "time": 86.66673599999991,
                    "velocity": 0.4645669291338583,
                    "duration": 0.20833349999999484
                },
                {
                    "name": "F4",
                    "midi": 65,
                    "time": 87.0834029999999,
                    "velocity": 0.3464566929133858,
                    "duration": 0.4166670000000039
                },
                {
                    "name": "B4",
                    "midi": 71,
                    "time": 87.0834029999999,
                    "velocity": 0.41732283464566927,
                    "duration": 0.4166670000000039
                },
                {
                    "name": "D4",
                    "midi": 62,
                    "time": 87.50006999999991,
                    "velocity": 0.3543307086614173,
                    "duration": 0.05208337499999516
                },
                {
                    "name": "G#4",
                    "midi": 68,
                    "time": 87.50006999999991,
                    "velocity": 0.4251968503937008,
                    "duration": 0.05208337499999516
                },
                {
                    "name": "D4",
                    "midi": 62,
                    "time": 87.6389589999999,
                    "velocity": 0.33858267716535434,
                    "duration": 0.05208337499999516
                },
                {
                    "name": "F#4",
                    "midi": 66,
                    "time": 87.6389589999999,
                    "velocity": 0.4015748031496063,
                    "duration": 0.05208337499999516
                },
                {
                    "name": "D4",
                    "midi": 62,
                    "time": 87.77784799999989,
                    "velocity": 0.33858267716535434,
                    "duration": 0.05208337499999516
                },
                {
                    "name": "E4",
                    "midi": 64,
                    "time": 87.77784799999989,
                    "velocity": 0.4015748031496063,
                    "duration": 0.05208337499999516
                },
                {
                    "name": "C#4",
                    "midi": 61,
                    "time": 87.91673699999988,
                    "velocity": 0.3543307086614173,
                    "duration": 0.6250004999999987
                },
                {
                    "name": "A4",
                    "midi": 69,
                    "time": 87.91673699999988,
                    "velocity": 0.4251968503937008,
                    "duration": 0.6250004999999987
                },
                {
                    "name": "G#4",
                    "midi": 68,
                    "time": 88.54173749999988,
                    "velocity": 0.3543307086614173,
                    "duration": 0.20833349999999484
                },
                {
                    "name": "B4",
                    "midi": 71,
                    "time": 88.54173749999988,
                    "velocity": 0.4251968503937008,
                    "duration": 0.20833349999999484
                },
                {
                    "name": "G4",
                    "midi": 67,
                    "time": 88.75007099999988,
                    "velocity": 0.33858267716535434,
                    "duration": 0.05208337499999516
                },
                {
                    "name": "C#5",
                    "midi": 73,
                    "time": 88.75007099999988,
                    "velocity": 0.4015748031496063,
                    "duration": 0.05208337499999516
                },
                {
                    "name": "G4",
                    "midi": 67,
                    "time": 88.88895999999987,
                    "velocity": 0.3543307086614173,
                    "duration": 0.05208337499999516
                },
                {
                    "name": "D5",
                    "midi": 74,
                    "time": 88.88895999999987,
                    "velocity": 0.4251968503937008,
                    "duration": 0.05208337499999516
                },
                {
                    "name": "G4",
                    "midi": 67,
                    "time": 89.02784899999986,
                    "velocity": 0.3700787401574803,
                    "duration": 0.05208337499999516
                },
                {
                    "name": "E5",
                    "midi": 76,
                    "time": 89.02784899999986,
                    "velocity": 0.4409448818897638,
                    "duration": 0.05208337499999516
                },
                {
                    "name": "F#4",
                    "midi": 66,
                    "time": 89.16673799999985,
                    "velocity": 0.4015748031496063,
                    "duration": 0.20833349999999484
                },
                {
                    "name": "D5",
                    "midi": 74,
                    "time": 89.16673799999985,
                    "velocity": 0.48031496062992124,
                    "duration": 0.20833349999999484
                },
                {
                    "name": "F4",
                    "midi": 65,
                    "time": 89.58340499999984,
                    "velocity": 0.3543307086614173,
                    "duration": 0.4166670000000039
                },
                {
                    "name": "B4",
                    "midi": 71,
                    "time": 89.58340499999984,
                    "velocity": 0.4251968503937008,
                    "duration": 0.4166670000000039
                },
                {
                    "name": "D4",
                    "midi": 62,
                    "time": 90.00007199999985,
                    "velocity": 0.3543307086614173,
                    "duration": 0.05208337499999516
                },
                {
                    "name": "G#4",
                    "midi": 68,
                    "time": 90.00007199999985,
                    "velocity": 0.4251968503937008,
                    "duration": 0.05208337499999516
                },
                {
                    "name": "D4",
                    "midi": 62,
                    "time": 90.13896099999984,
                    "velocity": 0.3543307086614173,
                    "duration": 0.05208337499999516
                },
                {
                    "name": "F#4",
                    "midi": 66,
                    "time": 90.13896099999984,
                    "velocity": 0.4409448818897638,
                    "duration": 0.05208337499999516
                },
                {
                    "name": "D4",
                    "midi": 62,
                    "time": 90.27784999999983,
                    "velocity": 0.3543307086614173,
                    "duration": 0.05208337499999516
                },
                {
                    "name": "E4",
                    "midi": 64,
                    "time": 90.27784999999983,
                    "velocity": 0.44881889763779526,
                    "duration": 0.05208337499999516
                },
                {
                    "name": "C#4",
                    "midi": 61,
                    "time": 90.41673899999982,
                    "velocity": 0.4015748031496063,
                    "duration": 0.8333339999999936
                },
                {
                    "name": "A4",
                    "midi": 69,
                    "time": 90.41673899999982,
                    "velocity": 0.48031496062992124,
                    "duration": 0.8333339999999936
                },
                {
                    "name": "C#5",
                    "midi": 73,
                    "time": 91.25007299999982,
                    "velocity": 0.6299212598425197,
                    "duration": 0.20833349999999484
                },
                {
                    "name": "A4",
                    "midi": 69,
                    "time": 91.25007299999982,
                    "velocity": 0.5354330708661418,
                    "duration": 0.20833349999999484
                },
                {
                    "name": "C#5",
                    "midi": 73,
                    "time": 91.56257324999982,
                    "velocity": 0.5905511811023622,
                    "duration": 0.10416675000000453
                },
                {
                    "name": "A4",
                    "midi": 69,
                    "time": 91.56257324999982,
                    "velocity": 0.5039370078740157,
                    "duration": 0.10416675000000453
                },
                {
                    "name": "D5",
                    "midi": 74,
                    "time": 91.66673999999982,
                    "velocity": 0.6220472440944882,
                    "duration": 0.31250024999999937
                },
                {
                    "name": "B4",
                    "midi": 71,
                    "time": 91.66673999999982,
                    "velocity": 0.5275590551181102,
                    "duration": 0.31250024999999937
                },
                {
                    "name": "B4",
                    "midi": 71,
                    "time": 92.08340699999982,
                    "velocity": 0.5669291338582677,
                    "duration": 0.31250024999999937
                },
                {
                    "name": "G#4",
                    "midi": 68,
                    "time": 92.08340699999982,
                    "velocity": 0.47244094488188976,
                    "duration": 0.31250024999999937
                },
                {
                    "name": "A4",
                    "midi": 69,
                    "time": 92.50007399999983,
                    "velocity": 0.5118110236220472,
                    "duration": 0.13888900000000604
                },
                {
                    "name": "C#5",
                    "midi": 73,
                    "time": 92.50007399999983,
                    "velocity": 0.6062992125984252,
                    "duration": 0.13888900000000604
                },
                {
                    "name": "G#4",
                    "midi": 68,
                    "time": 92.63896299999983,
                    "velocity": 0.47244094488188976,
                    "duration": 0.13888900000000604
                },
                {
                    "name": "B4",
                    "midi": 71,
                    "time": 92.63896299999983,
                    "velocity": 0.5669291338582677,
                    "duration": 0.13888900000000604
                },
                {
                    "name": "A4",
                    "midi": 69,
                    "time": 92.77785199999984,
                    "velocity": 0.5669291338582677,
                    "duration": 0.13888900000000604
                },
                {
                    "name": "F#4",
                    "midi": 66,
                    "time": 92.77785199999984,
                    "velocity": 0.47244094488188976,
                    "duration": 0.13888900000000604
                },
                {
                    "name": "B4",
                    "midi": 71,
                    "time": 92.91674099999985,
                    "velocity": 0.5196850393700787,
                    "duration": 0.31250024999999937
                },
                {
                    "name": "D5",
                    "midi": 74,
                    "time": 92.91674099999985,
                    "velocity": 0.6141732283464567,
                    "duration": 0.31250024999999937
                },
                {
                    "name": "G#4",
                    "midi": 68,
                    "time": 93.33340799999985,
                    "velocity": 0.48031496062992124,
                    "duration": 0.31250024999999937
                },
                {
                    "name": "B4",
                    "midi": 71,
                    "time": 93.33340799999985,
                    "velocity": 0.5748031496062992,
                    "duration": 0.31250024999999937
                },
                {
                    "name": "C#5",
                    "midi": 73,
                    "time": 93.75007499999985,
                    "velocity": 0.6299212598425197,
                    "duration": 0.20833349999999484
                },
                {
                    "name": "A4",
                    "midi": 69,
                    "time": 93.75007499999985,
                    "velocity": 0.5354330708661418,
                    "duration": 0.20833349999999484
                },
                {
                    "name": "C#5",
                    "midi": 73,
                    "time": 94.06257524999985,
                    "velocity": 0.5905511811023622,
                    "duration": 0.10416675000000453
                },
                {
                    "name": "A4",
                    "midi": 69,
                    "time": 94.06257524999985,
                    "velocity": 0.5039370078740157,
                    "duration": 0.10416675000000453
                },
                {
                    "name": "D5",
                    "midi": 74,
                    "time": 94.16674199999986,
                    "velocity": 0.6220472440944882,
                    "duration": 0.31250024999999937
                },
                {
                    "name": "B4",
                    "midi": 71,
                    "time": 94.16674199999986,
                    "velocity": 0.5275590551181102,
                    "duration": 0.31250024999999937
                },
                {
                    "name": "B4",
                    "midi": 71,
                    "time": 94.58340899999986,
                    "velocity": 0.5669291338582677,
                    "duration": 0.31250024999999937
                },
                {
                    "name": "G#4",
                    "midi": 68,
                    "time": 94.58340899999986,
                    "velocity": 0.47244094488188976,
                    "duration": 0.31250024999999937
                },
                {
                    "name": "A4",
                    "midi": 69,
                    "time": 95.00007599999986,
                    "velocity": 0.5118110236220472,
                    "duration": 0.13888900000000604
                },
                {
                    "name": "C#5",
                    "midi": 73,
                    "time": 95.00007599999986,
                    "velocity": 0.6062992125984252,
                    "duration": 0.13888900000000604
                },
                {
                    "name": "G#4",
                    "midi": 68,
                    "time": 95.13896499999987,
                    "velocity": 0.47244094488188976,
                    "duration": 0.13888900000000604
                },
                {
                    "name": "B4",
                    "midi": 71,
                    "time": 95.13896499999987,
                    "velocity": 0.5669291338582677,
                    "duration": 0.13888900000000604
                },
                {
                    "name": "A4",
                    "midi": 69,
                    "time": 95.27785399999988,
                    "velocity": 0.5669291338582677,
                    "duration": 0.13888900000000604
                },
                {
                    "name": "F#4",
                    "midi": 66,
                    "time": 95.27785399999988,
                    "velocity": 0.47244094488188976,
                    "duration": 0.13888900000000604
                },
                {
                    "name": "F#5",
                    "midi": 78,
                    "time": 95.41674299999988,
                    "velocity": 0.5905511811023622,
                    "duration": 0.4166670000000039
                },
                {
                    "name": "F#6",
                    "midi": 90,
                    "time": 95.41674299999988,
                    "velocity": 0.7007874015748031,
                    "duration": 0.4166670000000039
                },
                {
                    "name": "F#5",
                    "midi": 78,
                    "time": 95.83340999999989,
                    "velocity": 0.5511811023622047,
                    "duration": 0.4166670000000039
                },
                {
                    "name": "F#6",
                    "midi": 90,
                    "time": 95.83340999999989,
                    "velocity": 0.6535433070866141,
                    "duration": 0.4166670000000039
                },
                {
                    "name": "C#5",
                    "midi": 73,
                    "time": 96.25007699999989,
                    "velocity": 0.6299212598425197,
                    "duration": 0.20833349999999484
                },
                {
                    "name": "A4",
                    "midi": 69,
                    "time": 96.25007699999989,
                    "velocity": 0.5354330708661418,
                    "duration": 0.20833349999999484
                },
                {
                    "name": "C#5",
                    "midi": 73,
                    "time": 96.56257724999989,
                    "velocity": 0.5905511811023622,
                    "duration": 0.10416675000000453
                },
                {
                    "name": "A4",
                    "midi": 69,
                    "time": 96.56257724999989,
                    "velocity": 0.5039370078740157,
                    "duration": 0.10416675000000453
                },
                {
                    "name": "D5",
                    "midi": 74,
                    "time": 96.6667439999999,
                    "velocity": 0.6220472440944882,
                    "duration": 0.31250024999999937
                },
                {
                    "name": "B4",
                    "midi": 71,
                    "time": 96.6667439999999,
                    "velocity": 0.5275590551181102,
                    "duration": 0.31250024999999937
                },
                {
                    "name": "B4",
                    "midi": 71,
                    "time": 97.0834109999999,
                    "velocity": 0.5669291338582677,
                    "duration": 0.31250024999999937
                },
                {
                    "name": "G#4",
                    "midi": 68,
                    "time": 97.0834109999999,
                    "velocity": 0.47244094488188976,
                    "duration": 0.31250024999999937
                },
                {
                    "name": "A4",
                    "midi": 69,
                    "time": 97.5000779999999,
                    "velocity": 0.5118110236220472,
                    "duration": 0.13888900000000604
                },
                {
                    "name": "C#5",
                    "midi": 73,
                    "time": 97.5000779999999,
                    "velocity": 0.6062992125984252,
                    "duration": 0.13888900000000604
                },
                {
                    "name": "G#4",
                    "midi": 68,
                    "time": 97.63896699999991,
                    "velocity": 0.47244094488188976,
                    "duration": 0.13888900000000604
                },
                {
                    "name": "B4",
                    "midi": 71,
                    "time": 97.63896699999991,
                    "velocity": 0.5669291338582677,
                    "duration": 0.13888900000000604
                },
                {
                    "name": "A4",
                    "midi": 69,
                    "time": 97.77785599999991,
                    "velocity": 0.5669291338582677,
                    "duration": 0.13888900000000604
                },
                {
                    "name": "F#4",
                    "midi": 66,
                    "time": 97.77785599999991,
                    "velocity": 0.47244094488188976,
                    "duration": 0.13888900000000604
                },
                {
                    "name": "B4",
                    "midi": 71,
                    "time": 97.91674499999992,
                    "velocity": 0.5196850393700787,
                    "duration": 0.31250024999999937
                },
                {
                    "name": "D5",
                    "midi": 74,
                    "time": 97.91674499999992,
                    "velocity": 0.6141732283464567,
                    "duration": 0.31250024999999937
                },
                {
                    "name": "G#4",
                    "midi": 68,
                    "time": 98.33341199999992,
                    "velocity": 0.48031496062992124,
                    "duration": 0.31250024999999937
                },
                {
                    "name": "B4",
                    "midi": 71,
                    "time": 98.33341199999992,
                    "velocity": 0.5748031496062992,
                    "duration": 0.31250024999999937
                },
                {
                    "name": "A4",
                    "midi": 69,
                    "time": 98.75007899999993,
                    "velocity": 0.44881889763779526,
                    "duration": 0.4166669999999897
                },
                {
                    "name": "C#5",
                    "midi": 73,
                    "time": 98.75007899999993,
                    "velocity": 0.5354330708661418,
                    "duration": 0.20833349999999484
                },
                {
                    "name": "D#5",
                    "midi": 75,
                    "time": 98.95841249999992,
                    "velocity": 0.5590551181102362,
                    "duration": 0.20833349999999484
                },
                {
                    "name": "G#4",
                    "midi": 68,
                    "time": 99.16674599999992,
                    "velocity": 0.4881889763779528,
                    "duration": 0.8333339999999936
                },
                {
                    "name": "E5",
                    "midi": 76,
                    "time": 99.16674599999992,
                    "velocity": 0.5826771653543307,
                    "duration": 0.8333339999999936
                },
                {
                    "name": "A4",
                    "midi": 69,
                    "time": 100.00007999999991,
                    "velocity": 0.44881889763779526,
                    "duration": 0.4166670000000039
                },
                {
                    "name": "C#5",
                    "midi": 73,
                    "time": 100.00007999999991,
                    "velocity": 0.5354330708661418,
                    "duration": 0.20833349999999484
                },
                {
                    "name": "D#5",
                    "midi": 75,
                    "time": 100.2084134999999,
                    "velocity": 0.5590551181102362,
                    "duration": 0.10416675000000453
                },
                {
                    "name": "F#5",
                    "midi": 78,
                    "time": 100.31258024999991,
                    "velocity": 0.5433070866141733,
                    "duration": 0.10416675000000453
                },
                {
                    "name": "G#4",
                    "midi": 68,
                    "time": 100.41674699999992,
                    "velocity": 0.4881889763779528,
                    "duration": 0.8333339999999936
                },
                {
                    "name": "E5",
                    "midi": 76,
                    "time": 100.41674699999992,
                    "velocity": 0.5826771653543307,
                    "duration": 0.6250004999999987
                },
                {
                    "name": "D5",
                    "midi": 74,
                    "time": 101.04174749999991,
                    "velocity": 0.5511811023622047,
                    "duration": 0.20833349999999484
                },
                {
                    "name": "G4",
                    "midi": 67,
                    "time": 101.25008099999991,
                    "velocity": 0.3937007874015748,
                    "duration": 0.4166670000000039
                },
                {
                    "name": "C#5",
                    "midi": 73,
                    "time": 101.25008099999991,
                    "velocity": 0.47244094488188976,
                    "duration": 0.20833349999999484
                },
                {
                    "name": "C#5",
                    "midi": 73,
                    "time": 101.56258124999991,
                    "velocity": 0.4330708661417323,
                    "duration": 0.10416675000000453
                },
                {
                    "name": "F#4",
                    "midi": 66,
                    "time": 101.66674799999991,
                    "velocity": 0.4015748031496063,
                    "duration": 0.4166670000000039
                },
                {
                    "name": "D5",
                    "midi": 74,
                    "time": 101.66674799999991,
                    "velocity": 0.48031496062992124,
                    "duration": 0.4166670000000039
                },
                {
                    "name": "F4",
                    "midi": 65,
                    "time": 102.08341499999992,
                    "velocity": 0.3858267716535433,
                    "duration": 0.4166670000000039
                },
                {
                    "name": "B4",
                    "midi": 71,
                    "time": 102.08341499999992,
                    "velocity": 0.4645669291338583,
                    "duration": 0.4166670000000039
                },
                {
                    "name": "D4",
                    "midi": 62,
                    "time": 102.50008199999992,
                    "velocity": 0.3937007874015748,
                    "duration": 0.4166670000000039
                },
                {
                    "name": "G#4",
                    "midi": 68,
                    "time": 102.50008199999992,
                    "velocity": 0.47244094488188976,
                    "duration": 0.31250024999999937
                },
                {
                    "name": "E4",
                    "midi": 64,
                    "time": 102.81258224999992,
                    "velocity": 0.44881889763779526,
                    "duration": 0.10416675000000453
                },
                {
                    "name": "C#4",
                    "midi": 61,
                    "time": 102.91674899999992,
                    "velocity": 0.3937007874015748,
                    "duration": 0.6250004999999987
                },
                {
                    "name": "A4",
                    "midi": 69,
                    "time": 102.91674899999992,
                    "velocity": 0.47244094488188976,
                    "duration": 0.6250004999999987
                },
                {
                    "name": "G#4",
                    "midi": 68,
                    "time": 103.54174949999992,
                    "velocity": 0.3937007874015748,
                    "duration": 0.20833349999999484
                },
                {
                    "name": "B4",
                    "midi": 71,
                    "time": 103.54174949999992,
                    "velocity": 0.47244094488188976,
                    "duration": 0.20833349999999484
                },
                {
                    "name": "G4",
                    "midi": 67,
                    "time": 103.75008299999992,
                    "velocity": 0.4015748031496063,
                    "duration": 0.4166670000000039
                },
                {
                    "name": "C#5",
                    "midi": 73,
                    "time": 103.75008299999992,
                    "velocity": 0.48031496062992124,
                    "duration": 0.31250024999999937
                },
                {
                    "name": "E5",
                    "midi": 76,
                    "time": 104.06258324999992,
                    "velocity": 0.47244094488188976,
                    "duration": 0.10416675000000453
                },
                {
                    "name": "F#4",
                    "midi": 66,
                    "time": 104.16674999999992,
                    "velocity": 0.41732283464566927,
                    "duration": 0.4166670000000039
                },
                {
                    "name": "D5",
                    "midi": 74,
                    "time": 104.16674999999992,
                    "velocity": 0.49606299212598426,
                    "duration": 0.4166670000000039
                },
                {
                    "name": "F4",
                    "midi": 65,
                    "time": 104.58341699999993,
                    "velocity": 0.3937007874015748,
                    "duration": 0.4166670000000039
                },
                {
                    "name": "B4",
                    "midi": 71,
                    "time": 104.58341699999993,
                    "velocity": 0.47244094488188976,
                    "duration": 0.4166670000000039
                },
                {
                    "name": "D4",
                    "midi": 62,
                    "time": 105.00008399999993,
                    "velocity": 0.4015748031496063,
                    "duration": 0.4166670000000181
                },
                {
                    "name": "G#4",
                    "midi": 68,
                    "time": 105.00008399999993,
                    "velocity": 0.48031496062992124,
                    "duration": 0.13888900000000604
                },
                {
                    "name": "F#4",
                    "midi": 66,
                    "time": 105.13897299999994,
                    "velocity": 0.49606299212598426,
                    "duration": 0.13888900000000604
                },
                {
                    "name": "E4",
                    "midi": 64,
                    "time": 105.27786199999994,
                    "velocity": 0.5039370078740157,
                    "duration": 0.13888900000000604
                },
                {
                    "name": "C#4",
                    "midi": 61,
                    "time": 105.41675099999995,
                    "velocity": 0.4566929133858268,
                    "duration": 0.6250004999999987
                },
                {
                    "name": "A4",
                    "midi": 69,
                    "time": 105.41675099999995,
                    "velocity": 0.5433070866141733,
                    "duration": 0.6250004999999987
                },
                {
                    "name": "G#4",
                    "midi": 68,
                    "time": 106.04175149999995,
                    "velocity": 0.3937007874015748,
                    "duration": 0.20833349999999484
                },
                {
                    "name": "B4",
                    "midi": 71,
                    "time": 106.04175149999995,
                    "velocity": 0.47244094488188976,
                    "duration": 0.20833349999999484
                },
                {
                    "name": "G4",
                    "midi": 67,
                    "time": 106.25008499999994,
                    "velocity": 0.3858267716535433,
                    "duration": 0.05208337499999516
                },
                {
                    "name": "C#5",
                    "midi": 73,
                    "time": 106.25008499999994,
                    "velocity": 0.4566929133858268,
                    "duration": 0.05208337499999516
                },
                {
                    "name": "G4",
                    "midi": 67,
                    "time": 106.38897399999993,
                    "velocity": 0.3937007874015748,
                    "duration": 0.05208337499999516
                },
                {
                    "name": "C#5",
                    "midi": 73,
                    "time": 106.38897399999993,
                    "velocity": 0.47244094488188976,
                    "duration": 0.05208337499999516
                },
                {
                    "name": "G4",
                    "midi": 67,
                    "time": 106.52786299999993,
                    "velocity": 0.4094488188976378,
                    "duration": 0.05208337499999516
                },
                {
                    "name": "C#5",
                    "midi": 73,
                    "time": 106.52786299999993,
                    "velocity": 0.4881889763779528,
                    "duration": 0.05208337499999516
                },
                {
                    "name": "F#4",
                    "midi": 66,
                    "time": 106.66675199999992,
                    "velocity": 0.4409448818897638,
                    "duration": 0.20833349999999484
                },
                {
                    "name": "D5",
                    "midi": 74,
                    "time": 106.66675199999992,
                    "velocity": 0.5196850393700787,
                    "duration": 0.20833349999999484
                },
                {
                    "name": "F4",
                    "midi": 65,
                    "time": 107.0834189999999,
                    "velocity": 0.3858267716535433,
                    "duration": 0.4166670000000039
                },
                {
                    "name": "B4",
                    "midi": 71,
                    "time": 107.0834189999999,
                    "velocity": 0.4645669291338583,
                    "duration": 0.4166670000000039
                },
                {
                    "name": "D4",
                    "midi": 62,
                    "time": 107.50008599999991,
                    "velocity": 0.4015748031496063,
                    "duration": 0.05208337499999516
                },
                {
                    "name": "G#4",
                    "midi": 68,
                    "time": 107.50008599999991,
                    "velocity": 0.48031496062992124,
                    "duration": 0.05208337499999516
                },
                {
                    "name": "D4",
                    "midi": 62,
                    "time": 107.6389749999999,
                    "velocity": 0.3779527559055118,
                    "duration": 0.05208337499999516
                },
                {
                    "name": "F#4",
                    "midi": 66,
                    "time": 107.6389749999999,
                    "velocity": 0.44881889763779526,
                    "duration": 0.05208337499999516
                },
                {
                    "name": "D4",
                    "midi": 62,
                    "time": 107.7778639999999,
                    "velocity": 0.3779527559055118,
                    "duration": 0.05208337499999516
                },
                {
                    "name": "E4",
                    "midi": 64,
                    "time": 107.7778639999999,
                    "velocity": 0.44881889763779526,
                    "duration": 0.05208337499999516
                },
                {
                    "name": "C#4",
                    "midi": 61,
                    "time": 107.91675299999989,
                    "velocity": 0.3937007874015748,
                    "duration": 0.6250004999999987
                },
                {
                    "name": "A4",
                    "midi": 69,
                    "time": 107.91675299999989,
                    "velocity": 0.47244094488188976,
                    "duration": 0.6250004999999987
                },
                {
                    "name": "G#4",
                    "midi": 68,
                    "time": 108.54175349999988,
                    "velocity": 0.3937007874015748,
                    "duration": 0.20833349999999484
                },
                {
                    "name": "B4",
                    "midi": 71,
                    "time": 108.54175349999988,
                    "velocity": 0.47244094488188976,
                    "duration": 0.20833349999999484
                },
                {
                    "name": "G4",
                    "midi": 67,
                    "time": 108.75008699999988,
                    "velocity": 0.3779527559055118,
                    "duration": 0.05208337499999516
                },
                {
                    "name": "C#5",
                    "midi": 73,
                    "time": 108.75008699999988,
                    "velocity": 0.44881889763779526,
                    "duration": 0.05208337499999516
                },
                {
                    "name": "G4",
                    "midi": 67,
                    "time": 108.88897599999987,
                    "velocity": 0.3937007874015748,
                    "duration": 0.05208337499999516
                },
                {
                    "name": "D5",
                    "midi": 74,
                    "time": 108.88897599999987,
                    "velocity": 0.47244094488188976,
                    "duration": 0.05208337499999516
                },
                {
                    "name": "G4",
                    "midi": 67,
                    "time": 109.02786499999986,
                    "velocity": 0.41732283464566927,
                    "duration": 0.05208337499999516
                },
                {
                    "name": "E5",
                    "midi": 76,
                    "time": 109.02786499999986,
                    "velocity": 0.49606299212598426,
                    "duration": 0.05208337499999516
                },
                {
                    "name": "F#4",
                    "midi": 66,
                    "time": 109.16675399999986,
                    "velocity": 0.44881889763779526,
                    "duration": 0.20833349999999484
                },
                {
                    "name": "D5",
                    "midi": 74,
                    "time": 109.16675399999986,
                    "velocity": 0.5354330708661418,
                    "duration": 0.20833349999999484
                },
                {
                    "name": "F4",
                    "midi": 65,
                    "time": 109.58342099999984,
                    "velocity": 0.3937007874015748,
                    "duration": 0.4166670000000039
                },
                {
                    "name": "B4",
                    "midi": 71,
                    "time": 109.58342099999984,
                    "velocity": 0.47244094488188976,
                    "duration": 0.4166670000000039
                },
                {
                    "name": "D4",
                    "midi": 62,
                    "time": 110.00008799999985,
                    "velocity": 0.4015748031496063,
                    "duration": 0.05208337499999516
                },
                {
                    "name": "G#4",
                    "midi": 68,
                    "time": 110.00008799999985,
                    "velocity": 0.48031496062992124,
                    "duration": 0.05208337499999516
                },
                {
                    "name": "D4",
                    "midi": 62,
                    "time": 110.13897699999984,
                    "velocity": 0.4015748031496063,
                    "duration": 0.05208337499999516
                },
                {
                    "name": "F#4",
                    "midi": 66,
                    "time": 110.13897699999984,
                    "velocity": 0.49606299212598426,
                    "duration": 0.05208337499999516
                },
                {
                    "name": "D4",
                    "midi": 62,
                    "time": 110.27786599999983,
                    "velocity": 0.4015748031496063,
                    "duration": 0.05208337499999516
                },
                {
                    "name": "E4",
                    "midi": 64,
                    "time": 110.27786599999983,
                    "velocity": 0.5039370078740157,
                    "duration": 0.05208337499999516
                },
                {
                    "name": "C#4",
                    "midi": 61,
                    "time": 110.41675499999982,
                    "velocity": 0.44881889763779526,
                    "duration": 0.8333339999999936
                },
                {
                    "name": "A4",
                    "midi": 69,
                    "time": 110.41675499999982,
                    "velocity": 0.5354330708661418,
                    "duration": 0.8333339999999936
                },
                {
                    "name": "C#5",
                    "midi": 73,
                    "time": 111.25008899999982,
                    "velocity": 0.6299212598425197,
                    "duration": 0.20833349999999484
                },
                {
                    "name": "A4",
                    "midi": 69,
                    "time": 111.25008899999982,
                    "velocity": 0.5354330708661418,
                    "duration": 0.20833349999999484
                },
                {
                    "name": "C#5",
                    "midi": 73,
                    "time": 111.56258924999982,
                    "velocity": 0.5905511811023622,
                    "duration": 0.10416675000000453
                },
                {
                    "name": "A4",
                    "midi": 69,
                    "time": 111.56258924999982,
                    "velocity": 0.5039370078740157,
                    "duration": 0.10416675000000453
                },
                {
                    "name": "D5",
                    "midi": 74,
                    "time": 111.66675599999982,
                    "velocity": 0.6220472440944882,
                    "duration": 0.31250024999999937
                },
                {
                    "name": "B4",
                    "midi": 71,
                    "time": 111.66675599999982,
                    "velocity": 0.5275590551181102,
                    "duration": 0.31250024999999937
                },
                {
                    "name": "B4",
                    "midi": 71,
                    "time": 112.08342299999983,
                    "velocity": 0.5669291338582677,
                    "duration": 0.31250024999999937
                },
                {
                    "name": "G#4",
                    "midi": 68,
                    "time": 112.08342299999983,
                    "velocity": 0.47244094488188976,
                    "duration": 0.31250024999999937
                },
                {
                    "name": "A4",
                    "midi": 69,
                    "time": 112.50008999999983,
                    "velocity": 0.5118110236220472,
                    "duration": 0.13888900000000604
                },
                {
                    "name": "C#5",
                    "midi": 73,
                    "time": 112.50008999999983,
                    "velocity": 0.6062992125984252,
                    "duration": 0.13888900000000604
                },
                {
                    "name": "G#4",
                    "midi": 68,
                    "time": 112.63897899999984,
                    "velocity": 0.47244094488188976,
                    "duration": 0.13888900000000604
                },
                {
                    "name": "B4",
                    "midi": 71,
                    "time": 112.63897899999984,
                    "velocity": 0.5669291338582677,
                    "duration": 0.13888900000000604
                },
                {
                    "name": "A4",
                    "midi": 69,
                    "time": 112.77786799999984,
                    "velocity": 0.5669291338582677,
                    "duration": 0.13888900000000604
                },
                {
                    "name": "F#4",
                    "midi": 66,
                    "time": 112.77786799999984,
                    "velocity": 0.47244094488188976,
                    "duration": 0.13888900000000604
                },
                {
                    "name": "B4",
                    "midi": 71,
                    "time": 112.91675699999985,
                    "velocity": 0.5196850393700787,
                    "duration": 0.31250024999999937
                },
                {
                    "name": "D5",
                    "midi": 74,
                    "time": 112.91675699999985,
                    "velocity": 0.6141732283464567,
                    "duration": 0.31250024999999937
                },
                {
                    "name": "G#4",
                    "midi": 68,
                    "time": 113.33342399999985,
                    "velocity": 0.48031496062992124,
                    "duration": 0.31250024999999937
                },
                {
                    "name": "B4",
                    "midi": 71,
                    "time": 113.33342399999985,
                    "velocity": 0.5748031496062992,
                    "duration": 0.31250024999999937
                },
                {
                    "name": "C#5",
                    "midi": 73,
                    "time": 113.75009099999986,
                    "velocity": 0.6299212598425197,
                    "duration": 0.20833349999999484
                },
                {
                    "name": "A4",
                    "midi": 69,
                    "time": 113.75009099999986,
                    "velocity": 0.5354330708661418,
                    "duration": 0.20833349999999484
                },
                {
                    "name": "C#5",
                    "midi": 73,
                    "time": 114.06259124999985,
                    "velocity": 0.5905511811023622,
                    "duration": 0.10416675000000453
                },
                {
                    "name": "A4",
                    "midi": 69,
                    "time": 114.06259124999985,
                    "velocity": 0.5039370078740157,
                    "duration": 0.10416675000000453
                },
                {
                    "name": "D5",
                    "midi": 74,
                    "time": 114.16675799999986,
                    "velocity": 0.6220472440944882,
                    "duration": 0.31250024999999937
                },
                {
                    "name": "B4",
                    "midi": 71,
                    "time": 114.16675799999986,
                    "velocity": 0.5275590551181102,
                    "duration": 0.31250024999999937
                },
                {
                    "name": "B4",
                    "midi": 71,
                    "time": 114.58342499999986,
                    "velocity": 0.5669291338582677,
                    "duration": 0.31250024999999937
                },
                {
                    "name": "G#4",
                    "midi": 68,
                    "time": 114.58342499999986,
                    "velocity": 0.47244094488188976,
                    "duration": 0.31250024999999937
                },
                {
                    "name": "A4",
                    "midi": 69,
                    "time": 115.00009199999987,
                    "velocity": 0.5118110236220472,
                    "duration": 0.13888900000000604
                },
                {
                    "name": "C#5",
                    "midi": 73,
                    "time": 115.00009199999987,
                    "velocity": 0.6062992125984252,
                    "duration": 0.13888900000000604
                },
                {
                    "name": "G#4",
                    "midi": 68,
                    "time": 115.13898099999987,
                    "velocity": 0.47244094488188976,
                    "duration": 0.13888900000000604
                },
                {
                    "name": "B4",
                    "midi": 71,
                    "time": 115.13898099999987,
                    "velocity": 0.5669291338582677,
                    "duration": 0.13888900000000604
                },
                {
                    "name": "A4",
                    "midi": 69,
                    "time": 115.27786999999988,
                    "velocity": 0.5669291338582677,
                    "duration": 0.13888900000000604
                },
                {
                    "name": "F#4",
                    "midi": 66,
                    "time": 115.27786999999988,
                    "velocity": 0.47244094488188976,
                    "duration": 0.13888900000000604
                },
                {
                    "name": "F#5",
                    "midi": 78,
                    "time": 115.41675899999989,
                    "velocity": 0.5905511811023622,
                    "duration": 0.4166670000000039
                },
                {
                    "name": "F#6",
                    "midi": 90,
                    "time": 115.41675899999989,
                    "velocity": 0.7007874015748031,
                    "duration": 0.4166670000000039
                },
                {
                    "name": "F#5",
                    "midi": 78,
                    "time": 115.83342599999989,
                    "velocity": 0.5511811023622047,
                    "duration": 0.4166670000000039
                },
                {
                    "name": "F#6",
                    "midi": 90,
                    "time": 115.83342599999989,
                    "velocity": 0.6535433070866141,
                    "duration": 0.4166670000000039
                },
                {
                    "name": "C#5",
                    "midi": 73,
                    "time": 116.2500929999999,
                    "velocity": 0.6299212598425197,
                    "duration": 0.20833349999999484
                },
                {
                    "name": "A4",
                    "midi": 69,
                    "time": 116.2500929999999,
                    "velocity": 0.5354330708661418,
                    "duration": 0.20833349999999484
                },
                {
                    "name": "C#5",
                    "midi": 73,
                    "time": 116.56259324999989,
                    "velocity": 0.5905511811023622,
                    "duration": 0.10416675000000453
                },
                {
                    "name": "A4",
                    "midi": 69,
                    "time": 116.56259324999989,
                    "velocity": 0.5039370078740157,
                    "duration": 0.10416675000000453
                },
                {
                    "name": "D5",
                    "midi": 74,
                    "time": 116.6667599999999,
                    "velocity": 0.6220472440944882,
                    "duration": 0.31250024999999937
                },
                {
                    "name": "B4",
                    "midi": 71,
                    "time": 116.6667599999999,
                    "velocity": 0.5275590551181102,
                    "duration": 0.31250024999999937
                },
                {
                    "name": "B4",
                    "midi": 71,
                    "time": 117.0834269999999,
                    "velocity": 0.5669291338582677,
                    "duration": 0.31250024999999937
                },
                {
                    "name": "G#4",
                    "midi": 68,
                    "time": 117.0834269999999,
                    "velocity": 0.47244094488188976,
                    "duration": 0.31250024999999937
                },
                {
                    "name": "A4",
                    "midi": 69,
                    "time": 117.5000939999999,
                    "velocity": 0.5118110236220472,
                    "duration": 0.13888900000000604
                },
                {
                    "name": "C#5",
                    "midi": 73,
                    "time": 117.5000939999999,
                    "velocity": 0.6062992125984252,
                    "duration": 0.13888900000000604
                },
                {
                    "name": "G#4",
                    "midi": 68,
                    "time": 117.63898299999991,
                    "velocity": 0.47244094488188976,
                    "duration": 0.13888900000000604
                },
                {
                    "name": "B4",
                    "midi": 71,
                    "time": 117.63898299999991,
                    "velocity": 0.5669291338582677,
                    "duration": 0.13888900000000604
                },
                {
                    "name": "A4",
                    "midi": 69,
                    "time": 117.77787199999992,
                    "velocity": 0.5669291338582677,
                    "duration": 0.13888900000000604
                },
                {
                    "name": "F#4",
                    "midi": 66,
                    "time": 117.77787199999992,
                    "velocity": 0.47244094488188976,
                    "duration": 0.13888900000000604
                },
                {
                    "name": "B4",
                    "midi": 71,
                    "time": 117.91676099999992,
                    "velocity": 0.5196850393700787,
                    "duration": 0.31250024999999937
                },
                {
                    "name": "D5",
                    "midi": 74,
                    "time": 117.91676099999992,
                    "velocity": 0.6141732283464567,
                    "duration": 0.31250024999999937
                },
                {
                    "name": "G#4",
                    "midi": 68,
                    "time": 118.33342799999993,
                    "velocity": 0.48031496062992124,
                    "duration": 0.31250024999999937
                },
                {
                    "name": "B4",
                    "midi": 71,
                    "time": 118.33342799999993,
                    "velocity": 0.5748031496062992,
                    "duration": 0.31250024999999937
                },
                {
                    "name": "A4",
                    "midi": 69,
                    "time": 118.75009499999993,
                    "velocity": 0.44881889763779526,
                    "duration": 0.4166669999999897
                },
                {
                    "name": "C#5",
                    "midi": 73,
                    "time": 118.75009499999993,
                    "velocity": 0.5354330708661418,
                    "duration": 0.20833349999999484
                },
                {
                    "name": "D#5",
                    "midi": 75,
                    "time": 118.95842849999993,
                    "velocity": 0.5590551181102362,
                    "duration": 0.20833349999999484
                },
                {
                    "name": "G#4",
                    "midi": 68,
                    "time": 119.16676199999992,
                    "velocity": 0.4881889763779528,
                    "duration": 0.8333339999999936
                },
                {
                    "name": "E5",
                    "midi": 76,
                    "time": 119.16676199999992,
                    "velocity": 0.5826771653543307,
                    "duration": 0.8333339999999936
                },
                {
                    "name": "A4",
                    "midi": 69,
                    "time": 120.00009599999991,
                    "velocity": 0.44881889763779526,
                    "duration": 0.4166670000000039
                },
                {
                    "name": "C#5",
                    "midi": 73,
                    "time": 120.00009599999991,
                    "velocity": 0.5354330708661418,
                    "duration": 0.20833349999999484
                },
                {
                    "name": "D#5",
                    "midi": 75,
                    "time": 120.20842949999991,
                    "velocity": 0.5590551181102362,
                    "duration": 0.10416675000000453
                },
                {
                    "name": "F#5",
                    "midi": 78,
                    "time": 120.31259624999991,
                    "velocity": 0.5433070866141733,
                    "duration": 0.10416675000000453
                },
                {
                    "name": "G#4",
                    "midi": 68,
                    "time": 120.41676299999992,
                    "velocity": 0.4881889763779528,
                    "duration": 0.8333339999999936
                },
                {
                    "name": "E5",
                    "midi": 76,
                    "time": 120.41676299999992,
                    "velocity": 0.5826771653543307,
                    "duration": 0.6250004999999987
                },
                {
                    "name": "D5",
                    "midi": 74,
                    "time": 121.04176349999992,
                    "velocity": 0.5511811023622047,
                    "duration": 0.20833349999999484
                },
                {
                    "name": "G4",
                    "midi": 67,
                    "time": 121.25009699999991,
                    "velocity": 0.3937007874015748,
                    "duration": 0.4166670000000039
                },
                {
                    "name": "C#5",
                    "midi": 73,
                    "time": 121.25009699999991,
                    "velocity": 0.47244094488188976,
                    "duration": 0.20833349999999484
                },
                {
                    "name": "C#5",
                    "midi": 73,
                    "time": 121.56259724999991,
                    "velocity": 0.4330708661417323,
                    "duration": 0.10416675000000453
                },
                {
                    "name": "F#4",
                    "midi": 66,
                    "time": 121.66676399999992,
                    "velocity": 0.4015748031496063,
                    "duration": 0.4166670000000039
                },
                {
                    "name": "D5",
                    "midi": 74,
                    "time": 121.66676399999992,
                    "velocity": 0.48031496062992124,
                    "duration": 0.4166670000000039
                },
                {
                    "name": "F4",
                    "midi": 65,
                    "time": 122.08343099999992,
                    "velocity": 0.3858267716535433,
                    "duration": 0.4166670000000039
                },
                {
                    "name": "B4",
                    "midi": 71,
                    "time": 122.08343099999992,
                    "velocity": 0.4645669291338583,
                    "duration": 0.4166670000000039
                },
                {
                    "name": "D4",
                    "midi": 62,
                    "time": 122.50009799999992,
                    "velocity": 0.3937007874015748,
                    "duration": 0.4166670000000039
                },
                {
                    "name": "G#4",
                    "midi": 68,
                    "time": 122.50009799999992,
                    "velocity": 0.47244094488188976,
                    "duration": 0.31250024999999937
                },
                {
                    "name": "E4",
                    "midi": 64,
                    "time": 122.81259824999992,
                    "velocity": 0.44881889763779526,
                    "duration": 0.10416675000000453
                },
                {
                    "name": "C#4",
                    "midi": 61,
                    "time": 122.91676499999993,
                    "velocity": 0.3937007874015748,
                    "duration": 0.6250004999999987
                },
                {
                    "name": "A4",
                    "midi": 69,
                    "time": 122.91676499999993,
                    "velocity": 0.47244094488188976,
                    "duration": 0.6250004999999987
                },
                {
                    "name": "G#4",
                    "midi": 68,
                    "time": 123.54176549999993,
                    "velocity": 0.3937007874015748,
                    "duration": 0.20833349999999484
                },
                {
                    "name": "B4",
                    "midi": 71,
                    "time": 123.54176549999993,
                    "velocity": 0.47244094488188976,
                    "duration": 0.20833349999999484
                },
                {
                    "name": "G4",
                    "midi": 67,
                    "time": 123.75009899999992,
                    "velocity": 0.4015748031496063,
                    "duration": 0.4166670000000039
                },
                {
                    "name": "C#5",
                    "midi": 73,
                    "time": 123.75009899999992,
                    "velocity": 0.48031496062992124,
                    "duration": 0.31250024999999937
                },
                {
                    "name": "E5",
                    "midi": 76,
                    "time": 124.06259924999992,
                    "velocity": 0.47244094488188976,
                    "duration": 0.10416675000000453
                },
                {
                    "name": "F#4",
                    "midi": 66,
                    "time": 124.16676599999992,
                    "velocity": 0.41732283464566927,
                    "duration": 0.4166670000000039
                },
                {
                    "name": "D5",
                    "midi": 74,
                    "time": 124.16676599999992,
                    "velocity": 0.49606299212598426,
                    "duration": 0.4166670000000039
                },
                {
                    "name": "F4",
                    "midi": 65,
                    "time": 124.58343299999993,
                    "velocity": 0.3937007874015748,
                    "duration": 0.4166670000000039
                },
                {
                    "name": "B4",
                    "midi": 71,
                    "time": 124.58343299999993,
                    "velocity": 0.47244094488188976,
                    "duration": 0.4166670000000039
                },
                {
                    "name": "D4",
                    "midi": 62,
                    "time": 125.00009999999993,
                    "velocity": 0.4015748031496063,
                    "duration": 0.4166670000000181
                },
                {
                    "name": "G#4",
                    "midi": 68,
                    "time": 125.00009999999993,
                    "velocity": 0.48031496062992124,
                    "duration": 0.13888900000000604
                },
                {
                    "name": "F#4",
                    "midi": 66,
                    "time": 125.13898899999994,
                    "velocity": 0.49606299212598426,
                    "duration": 0.13888900000000604
                },
                {
                    "name": "E4",
                    "midi": 64,
                    "time": 125.27787799999994,
                    "velocity": 0.5039370078740157,
                    "duration": 0.13888900000000604
                },
                {
                    "name": "C#4",
                    "midi": 61,
                    "time": 125.41676699999995,
                    "velocity": 0.4566929133858268,
                    "duration": 0.6250004999999987
                },
                {
                    "name": "A4",
                    "midi": 69,
                    "time": 125.41676699999995,
                    "velocity": 0.5433070866141733,
                    "duration": 0.6250004999999987
                },
                {
                    "name": "G#4",
                    "midi": 68,
                    "time": 126.04176749999995,
                    "velocity": 0.3937007874015748,
                    "duration": 0.20833349999999484
                },
                {
                    "name": "B4",
                    "midi": 71,
                    "time": 126.04176749999995,
                    "velocity": 0.47244094488188976,
                    "duration": 0.20833349999999484
                },
                {
                    "name": "G4",
                    "midi": 67,
                    "time": 126.25010099999994,
                    "velocity": 0.3858267716535433,
                    "duration": 0.05208337499999516
                },
                {
                    "name": "C#5",
                    "midi": 73,
                    "time": 126.25010099999994,
                    "velocity": 0.4566929133858268,
                    "duration": 0.05208337499999516
                },
                {
                    "name": "G4",
                    "midi": 67,
                    "time": 126.38898999999994,
                    "velocity": 0.3937007874015748,
                    "duration": 0.05208337499999516
                },
                {
                    "name": "C#5",
                    "midi": 73,
                    "time": 126.38898999999994,
                    "velocity": 0.47244094488188976,
                    "duration": 0.05208337499999516
                },
                {
                    "name": "G4",
                    "midi": 67,
                    "time": 126.52787899999993,
                    "velocity": 0.4094488188976378,
                    "duration": 0.05208337499999516
                },
                {
                    "name": "C#5",
                    "midi": 73,
                    "time": 126.52787899999993,
                    "velocity": 0.4881889763779528,
                    "duration": 0.05208337499999516
                },
                {
                    "name": "F#4",
                    "midi": 66,
                    "time": 126.66676799999992,
                    "velocity": 0.4409448818897638,
                    "duration": 0.20833349999999484
                },
                {
                    "name": "D5",
                    "midi": 74,
                    "time": 126.66676799999992,
                    "velocity": 0.5196850393700787,
                    "duration": 0.20833349999999484
                },
                {
                    "name": "F4",
                    "midi": 65,
                    "time": 127.08343499999991,
                    "velocity": 0.3858267716535433,
                    "duration": 0.4166670000000039
                },
                {
                    "name": "B4",
                    "midi": 71,
                    "time": 127.08343499999991,
                    "velocity": 0.4645669291338583,
                    "duration": 0.4166670000000039
                },
                {
                    "name": "D4",
                    "midi": 62,
                    "time": 127.50010199999991,
                    "velocity": 0.4015748031496063,
                    "duration": 0.05208337499999516
                },
                {
                    "name": "G#4",
                    "midi": 68,
                    "time": 127.50010199999991,
                    "velocity": 0.48031496062992124,
                    "duration": 0.05208337499999516
                },
                {
                    "name": "D4",
                    "midi": 62,
                    "time": 127.6389909999999,
                    "velocity": 0.3779527559055118,
                    "duration": 0.05208337499999516
                },
                {
                    "name": "F#4",
                    "midi": 66,
                    "time": 127.6389909999999,
                    "velocity": 0.44881889763779526,
                    "duration": 0.05208337499999516
                },
                {
                    "name": "D4",
                    "midi": 62,
                    "time": 127.7778799999999,
                    "velocity": 0.3779527559055118,
                    "duration": 0.05208337499999516
                },
                {
                    "name": "E4",
                    "midi": 64,
                    "time": 127.7778799999999,
                    "velocity": 0.44881889763779526,
                    "duration": 0.05208337499999516
                },
                {
                    "name": "C#4",
                    "midi": 61,
                    "time": 127.91676899999989,
                    "velocity": 0.3937007874015748,
                    "duration": 0.625000500000013
                },
                {
                    "name": "A4",
                    "midi": 69,
                    "time": 127.91676899999989,
                    "velocity": 0.47244094488188976,
                    "duration": 0.625000500000013
                },
                {
                    "name": "G#4",
                    "midi": 68,
                    "time": 128.5417694999999,
                    "velocity": 0.3937007874015748,
                    "duration": 0.20833350000000905
                },
                {
                    "name": "B4",
                    "midi": 71,
                    "time": 128.5417694999999,
                    "velocity": 0.47244094488188976,
                    "duration": 0.20833350000000905
                },
                {
                    "name": "G4",
                    "midi": 67,
                    "time": 128.7501029999999,
                    "velocity": 0.3779527559055118,
                    "duration": 0.05208337499999516
                },
                {
                    "name": "C#5",
                    "midi": 73,
                    "time": 128.7501029999999,
                    "velocity": 0.44881889763779526,
                    "duration": 0.05208337499999516
                },
                {
                    "name": "G4",
                    "midi": 67,
                    "time": 128.88899199999992,
                    "velocity": 0.3937007874015748,
                    "duration": 0.05208337499999516
                },
                {
                    "name": "D5",
                    "midi": 74,
                    "time": 128.88899199999992,
                    "velocity": 0.47244094488188976,
                    "duration": 0.05208337499999516
                },
                {
                    "name": "G4",
                    "midi": 67,
                    "time": 129.02788099999992,
                    "velocity": 0.41732283464566927,
                    "duration": 0.05208337499999516
                },
                {
                    "name": "E5",
                    "midi": 76,
                    "time": 129.02788099999992,
                    "velocity": 0.49606299212598426,
                    "duration": 0.05208337499999516
                },
                {
                    "name": "F#4",
                    "midi": 66,
                    "time": 129.16676999999993,
                    "velocity": 0.44881889763779526,
                    "duration": 0.20833350000000905
                },
                {
                    "name": "D5",
                    "midi": 74,
                    "time": 129.16676999999993,
                    "velocity": 0.5354330708661418,
                    "duration": 0.20833350000000905
                },
                {
                    "name": "F4",
                    "midi": 65,
                    "time": 129.58343699999995,
                    "velocity": 0.3937007874015748,
                    "duration": 0.4166669999999897
                },
                {
                    "name": "B4",
                    "midi": 71,
                    "time": 129.58343699999995,
                    "velocity": 0.47244094488188976,
                    "duration": 0.4166669999999897
                },
                {
                    "name": "D4",
                    "midi": 62,
                    "time": 130.00010399999994,
                    "velocity": 0.4015748031496063,
                    "duration": 0.05208337499999516
                },
                {
                    "name": "G#4",
                    "midi": 68,
                    "time": 130.00010399999994,
                    "velocity": 0.48031496062992124,
                    "duration": 0.05208337499999516
                },
                {
                    "name": "D4",
                    "midi": 62,
                    "time": 130.13899299999994,
                    "velocity": 0.4015748031496063,
                    "duration": 0.05208337499999516
                },
                {
                    "name": "F#4",
                    "midi": 66,
                    "time": 130.13899299999994,
                    "velocity": 0.49606299212598426,
                    "duration": 0.05208337499999516
                },
                {
                    "name": "D4",
                    "midi": 62,
                    "time": 130.27788199999995,
                    "velocity": 0.4015748031496063,
                    "duration": 0.05208337499999516
                },
                {
                    "name": "E4",
                    "midi": 64,
                    "time": 130.27788199999995,
                    "velocity": 0.5039370078740157,
                    "duration": 0.05208337499999516
                },
                {
                    "name": "C#4",
                    "midi": 61,
                    "time": 130.41677099999995,
                    "velocity": 0.44881889763779526,
                    "duration": 0.4166669999999897
                },
                {
                    "name": "A4",
                    "midi": 69,
                    "time": 130.41677099999995,
                    "velocity": 0.5354330708661418,
                    "duration": 0.4166669999999897
                },
                {
                    "name": "E5",
                    "midi": 76,
                    "time": 130.83343799999994,
                    "velocity": 0.3543307086614173,
                    "duration": 0.4166669999999897
                },
                {
                    "name": "F5",
                    "midi": 77,
                    "time": 131.25010499999993,
                    "velocity": 0.36220472440944884,
                    "duration": 0.31250024999999937
                },
                {
                    "name": "E5",
                    "midi": 76,
                    "time": 131.56260524999993,
                    "velocity": 0.3543307086614173,
                    "duration": 0.10416674999999032
                },
                {
                    "name": "D5",
                    "midi": 74,
                    "time": 131.66677199999992,
                    "velocity": 0.3543307086614173,
                    "duration": 0.4166669999999897
                },
                {
                    "name": "F5",
                    "midi": 77,
                    "time": 132.0834389999999,
                    "velocity": 0.3779527559055118,
                    "duration": 0.4123267187499948
                },
                {
                    "name": "F5",
                    "midi": 77,
                    "time": 132.5001059999999,
                    "velocity": 0.3700787401574803,
                    "duration": 0.8333340000000078
                },
                {
                    "name": "E5",
                    "midi": 76,
                    "time": 133.3334399999999,
                    "velocity": 0.33858267716535434,
                    "duration": 0.4166669999999897
                },
                {
                    "name": "D5",
                    "midi": 74,
                    "time": 133.7501069999999,
                    "velocity": 0.33070866141732286,
                    "duration": 0.06944450000000302
                },
                {
                    "name": "E5",
                    "midi": 76,
                    "time": 133.8195514999999,
                    "velocity": 0.33858267716535434,
                    "duration": 0.06944450000000302
                },
                {
                    "name": "D5",
                    "midi": 74,
                    "time": 133.8889959999999,
                    "velocity": 0.3464566929133858,
                    "duration": 0.06944450000000302
                },
                {
                    "name": "C#5",
                    "midi": 73,
                    "time": 133.9584404999999,
                    "velocity": 0.3543307086614173,
                    "duration": 0.20833350000000905
                },
                {
                    "name": "D5",
                    "midi": 74,
                    "time": 134.16677399999992,
                    "velocity": 0.3700787401574803,
                    "duration": 0.20833350000000905
                },
                {
                    "name": "D#5",
                    "midi": 75,
                    "time": 134.37510749999993,
                    "velocity": 0.3543307086614173,
                    "duration": 0.20833350000000905
                },
                {
                    "name": "E5",
                    "midi": 76,
                    "time": 134.58344099999994,
                    "velocity": 0.4015748031496063,
                    "duration": 0.20833350000000905
                },
                {
                    "name": "B4",
                    "midi": 71,
                    "time": 134.79177449999995,
                    "velocity": 0.36220472440944884,
                    "duration": 0.20833350000000905
                },
                {
                    "name": "D5",
                    "midi": 74,
                    "time": 135.00010799999995,
                    "velocity": 0.4251968503937008,
                    "duration": 0.8333340000000078
                },
                {
                    "name": "C5",
                    "midi": 72,
                    "time": 135.83344199999996,
                    "velocity": 0.3543307086614173,
                    "duration": 0.4166669999999897
                },
                {
                    "name": "A4",
                    "midi": 69,
                    "time": 136.25010899999995,
                    "velocity": 0.4881889763779528,
                    "duration": 0.13888900000000604
                },
                {
                    "name": "B4",
                    "midi": 71,
                    "time": 136.38899799999996,
                    "velocity": 0.44881889763779526,
                    "duration": 0.13888900000000604
                },
                {
                    "name": "A4",
                    "midi": 69,
                    "time": 136.52788699999996,
                    "velocity": 0.44881889763779526,
                    "duration": 0.13888900000000604
                },
                {
                    "name": "G#4",
                    "midi": 68,
                    "time": 136.66677599999997,
                    "velocity": 0.49606299212598426,
                    "duration": 0.20833350000000905
                },
                {
                    "name": "A4",
                    "midi": 69,
                    "time": 137.083443,
                    "velocity": 0.5275590551181102,
                    "duration": 0.20833350000000905
                },
                {
                    "name": "B4",
                    "midi": 71,
                    "time": 137.50011,
                    "velocity": 0.5511811023622047,
                    "duration": 0.20833350000000905
                },
                {
                    "name": "E5",
                    "midi": 76,
                    "time": 137.91677700000002,
                    "velocity": 0.5669291338582677,
                    "duration": 0.8333340000000078
                },
                {
                    "name": "B4",
                    "midi": 71,
                    "time": 138.75011100000003,
                    "velocity": 0.5984251968503937,
                    "duration": 0.20833350000000905
                },
                {
                    "name": "G4",
                    "midi": 67,
                    "time": 138.95844450000004,
                    "velocity": 0.5748031496062992,
                    "duration": 0.20833350000000905
                },
                {
                    "name": "E4",
                    "midi": 64,
                    "time": 139.16677800000005,
                    "velocity": 0.5984251968503937,
                    "duration": 0.20833350000000905
                },
                {
                    "name": "B4",
                    "midi": 71,
                    "time": 139.37511150000006,
                    "velocity": 0.5590551181102362,
                    "duration": 0.20833350000000905
                },
                {
                    "name": "D#4",
                    "midi": 63,
                    "time": 139.58344500000007,
                    "velocity": 0.5748031496062992,
                    "duration": 0.4166669999999897
                },
                {
                    "name": "E4",
                    "midi": 64,
                    "time": 140.00011200000006,
                    "velocity": 0.5984251968503937,
                    "duration": 0.8333340000000078
                },
                {
                    "name": "E5",
                    "midi": 76,
                    "time": 140.83344600000007,
                    "velocity": 0.3543307086614173,
                    "duration": 0.4166669999999897
                },
                {
                    "name": "F5",
                    "midi": 77,
                    "time": 141.25011300000006,
                    "velocity": 0.36220472440944884,
                    "duration": 0.31250024999999937
                },
                {
                    "name": "E5",
                    "midi": 76,
                    "time": 141.56261325000006,
                    "velocity": 0.3543307086614173,
                    "duration": 0.10416674999999032
                },
                {
                    "name": "D5",
                    "midi": 74,
                    "time": 141.66678000000005,
                    "velocity": 0.3543307086614173,
                    "duration": 0.4166669999999897
                },
                {
                    "name": "F5",
                    "midi": 77,
                    "time": 142.08344700000004,
                    "velocity": 0.3779527559055118,
                    "duration": 0.4131947749999938
                },
                {
                    "name": "F5",
                    "midi": 77,
                    "time": 142.50011400000002,
                    "velocity": 0.3700787401574803,
                    "duration": 0.8333340000000078
                },
                {
                    "name": "E5",
                    "midi": 76,
                    "time": 143.33344800000003,
                    "velocity": 0.33858267716535434,
                    "duration": 0.4166669999999897
                },
                {
                    "name": "D5",
                    "midi": 74,
                    "time": 143.75011500000002,
                    "velocity": 0.33070866141732286,
                    "duration": 0.06944450000000302
                },
                {
                    "name": "E5",
                    "midi": 76,
                    "time": 143.81955950000003,
                    "velocity": 0.33858267716535434,
                    "duration": 0.06944450000000302
                },
                {
                    "name": "D5",
                    "midi": 74,
                    "time": 143.88900400000003,
                    "velocity": 0.3464566929133858,
                    "duration": 0.06944450000000302
                },
                {
                    "name": "C#5",
                    "midi": 73,
                    "time": 143.95844850000003,
                    "velocity": 0.3543307086614173,
                    "duration": 0.20833350000000905
                },
                {
                    "name": "D5",
                    "midi": 74,
                    "time": 144.16678200000004,
                    "velocity": 0.3700787401574803,
                    "duration": 0.20833350000000905
                },
                {
                    "name": "D#5",
                    "midi": 75,
                    "time": 144.37511550000005,
                    "velocity": 0.3543307086614173,
                    "duration": 0.20833350000000905
                },
                {
                    "name": "E5",
                    "midi": 76,
                    "time": 144.58344900000006,
                    "velocity": 0.3700787401574803,
                    "duration": 0.20833350000000905
                },
                {
                    "name": "B4",
                    "midi": 71,
                    "time": 144.79178250000007,
                    "velocity": 0.33070866141732286,
                    "duration": 0.09982646874999546
                },
                {
                    "name": "B4",
                    "midi": 71,
                    "time": 144.89594925000006,
                    "velocity": 0.33070866141732286,
                    "duration": 0.10416674999999032
                },
                {
                    "name": "D5",
                    "midi": 74,
                    "time": 145.00011600000005,
                    "velocity": 0.41732283464566927,
                    "duration": 0.8333340000000078
                },
                {
                    "name": "C5",
                    "midi": 72,
                    "time": 145.83345000000006,
                    "velocity": 0.3543307086614173,
                    "duration": 0.4166669999999897
                },
                {
                    "name": "A4",
                    "midi": 69,
                    "time": 146.25011700000005,
                    "velocity": 0.3228346456692913,
                    "duration": 0.13888900000000604
                },
                {
                    "name": "A#4",
                    "midi": 70,
                    "time": 146.38900600000005,
                    "velocity": 0.2992125984251969,
                    "duration": 0.13888900000000604
                },
                {
                    "name": "A4",
                    "midi": 69,
                    "time": 146.52789500000006,
                    "velocity": 0.2992125984251969,
                    "duration": 0.13888900000000604
                },
                {
                    "name": "G4",
                    "midi": 67,
                    "time": 146.66678400000006,
                    "velocity": 0.33070866141732286,
                    "duration": 0.4166669999999897
                },
                {
                    "name": "A4",
                    "midi": 69,
                    "time": 147.08345100000005,
                    "velocity": 0.3543307086614173,
                    "duration": 0.4166669999999897
                },
                {
                    "name": "A#4",
                    "midi": 70,
                    "time": 147.50011800000004,
                    "velocity": 0.3700787401574803,
                    "duration": 0.4166669999999897
                },
                {
                    "name": "D5",
                    "midi": 74,
                    "time": 147.91678500000003,
                    "velocity": 0.3779527559055118,
                    "duration": 0.4166669999999897
                },
                {
                    "name": "A4",
                    "midi": 69,
                    "time": 148.750119,
                    "velocity": 0.31496062992125984,
                    "duration": 0.31250024999999937
                },
                {
                    "name": "G#4",
                    "midi": 68,
                    "time": 149.06261925,
                    "velocity": 0.29133858267716534,
                    "duration": 0.10416674999999032
                },
                {
                    "name": "D4",
                    "midi": 62,
                    "time": 149.166786,
                    "velocity": 0.2677165354330709,
                    "duration": 0.4166669999999897
                },
                {
                    "name": "E4",
                    "midi": 64,
                    "time": 149.166786,
                    "velocity": 0.31496062992125984,
                    "duration": 0.4166669999999897
                },
                {
                    "name": "G#4",
                    "midi": 68,
                    "time": 149.583453,
                    "velocity": 0.2992125984251969,
                    "duration": 0.4166669999999897
                },
                {
                    "name": "D4",
                    "midi": 62,
                    "time": 149.583453,
                    "velocity": 0.25196850393700787,
                    "duration": 0.4166669999999897
                },
                {
                    "name": "C4",
                    "midi": 60,
                    "time": 150.00011999999998,
                    "velocity": 0.25984251968503935,
                    "duration": 0.4166669999999897
                },
                {
                    "name": "A4",
                    "midi": 69,
                    "time": 150.00011999999998,
                    "velocity": 0.30708661417322836,
                    "duration": 0.8333339999999794
                }
            ],
            "controlChanges": {
                "7": [
                    {
                        "number": 7,
                        "time": 0,
                        "value": 0.7874015748031497
                    }
                ],
                "10": [
                    {
                        "number": 10,
                        "time": 0,
                        "value": 0.5039370078740157
                    }
                ],
                "91": [
                    {
                        "number": 91,
                        "time": 0,
                        "value": 1
                    }
                ]
            },
            "id": 1,
            "name": "Piano right",
            "instrumentNumber": 0,
            "instrument": "acoustic grand piano",
            "instrumentFamily": "piano",
            "channelNumber": 0,
            "isPercussion": false
        },
        {
            "startTime": 1.666668,
            "duration": 150.83345400000013,
            "length": 570,
            "notes": [
                {
                    "name": "F4",
                    "midi": 65,
                    "time": 1.666668,
                    "velocity": 0.2125984251968504,
                    "duration": 0.4166669999999999
                },
                {
                    "name": "D4",
                    "midi": 62,
                    "time": 1.666668,
                    "velocity": 0.1732283464566929,
                    "duration": 0.4166669999999999
                },
                {
                    "name": "A3",
                    "midi": 57,
                    "time": 1.666668,
                    "velocity": 0.1732283464566929,
                    "duration": 0.4166669999999999
                },
                {
                    "name": "F4",
                    "midi": 65,
                    "time": 2.083335,
                    "velocity": 0.2125984251968504,
                    "duration": 0.4166669999999999
                },
                {
                    "name": "D4",
                    "midi": 62,
                    "time": 2.083335,
                    "velocity": 0.1732283464566929,
                    "duration": 0.4166669999999999
                },
                {
                    "name": "A3",
                    "midi": 57,
                    "time": 2.083335,
                    "velocity": 0.1732283464566929,
                    "duration": 0.4166669999999999
                },
                {
                    "name": "F4",
                    "midi": 65,
                    "time": 2.916669,
                    "velocity": 0.1968503937007874,
                    "duration": 0.4166669999999999
                },
                {
                    "name": "C4",
                    "midi": 60,
                    "time": 2.916669,
                    "velocity": 0.16535433070866143,
                    "duration": 0.4166669999999999
                },
                {
                    "name": "A3",
                    "midi": 57,
                    "time": 2.916669,
                    "velocity": 0.16535433070866143,
                    "duration": 0.4166669999999999
                },
                {
                    "name": "E4",
                    "midi": 64,
                    "time": 3.333336,
                    "velocity": 0.1968503937007874,
                    "duration": 0.4166669999999999
                },
                {
                    "name": "C4",
                    "midi": 60,
                    "time": 3.333336,
                    "velocity": 0.16535433070866143,
                    "duration": 0.4166669999999999
                },
                {
                    "name": "A3",
                    "midi": 57,
                    "time": 3.333336,
                    "velocity": 0.16535433070866143,
                    "duration": 0.4166669999999999
                },
                {
                    "name": "D4",
                    "midi": 62,
                    "time": 4.16667,
                    "velocity": 0.2204724409448819,
                    "duration": 0.41666700000000034
                },
                {
                    "name": "E3",
                    "midi": 52,
                    "time": 4.16667,
                    "velocity": 0.18110236220472442,
                    "duration": 0.41666700000000034
                },
                {
                    "name": "G#3",
                    "midi": 56,
                    "time": 4.16667,
                    "velocity": 0.18110236220472442,
                    "duration": 0.41666700000000034
                },
                {
                    "name": "D4",
                    "midi": 62,
                    "time": 4.583337,
                    "velocity": 0.1968503937007874,
                    "duration": 0.41666700000000034
                },
                {
                    "name": "G#3",
                    "midi": 56,
                    "time": 4.583337,
                    "velocity": 0.16535433070866143,
                    "duration": 0.41666700000000034
                },
                {
                    "name": "E3",
                    "midi": 52,
                    "time": 4.583337,
                    "velocity": 0.16535433070866143,
                    "duration": 0.41666700000000034
                },
                {
                    "name": "A2",
                    "midi": 45,
                    "time": 5.416671000000001,
                    "velocity": 0.23622047244094488,
                    "duration": 0.41666700000000034
                },
                {
                    "name": "C4",
                    "midi": 60,
                    "time": 5.833338000000001,
                    "velocity": 0.2204724409448819,
                    "duration": 0.41666700000000034
                },
                {
                    "name": "E3",
                    "midi": 52,
                    "time": 5.833338000000001,
                    "velocity": 0.1732283464566929,
                    "duration": 0.41666700000000034
                },
                {
                    "name": "E3",
                    "midi": 52,
                    "time": 6.666672000000001,
                    "velocity": 0.30708661417322836,
                    "duration": 0.20833350000000017
                },
                {
                    "name": "C4",
                    "midi": 60,
                    "time": 6.666672000000001,
                    "velocity": 0.36220472440944884,
                    "duration": 0.20833350000000017
                },
                {
                    "name": "A2",
                    "midi": 45,
                    "time": 7.083339000000001,
                    "velocity": 0.3779527559055118,
                    "duration": 0.20833350000000017
                },
                {
                    "name": "E3",
                    "midi": 52,
                    "time": 7.916673000000001,
                    "velocity": 0.3228346456692913,
                    "duration": 0.41666700000000034
                },
                {
                    "name": "B3",
                    "midi": 59,
                    "time": 7.916673000000001,
                    "velocity": 0.3858267716535433,
                    "duration": 0.41666700000000034
                },
                {
                    "name": "G3",
                    "midi": 55,
                    "time": 7.916673000000001,
                    "velocity": 0.3228346456692913,
                    "duration": 0.41666700000000034
                },
                {
                    "name": "B2",
                    "midi": 47,
                    "time": 8.333340000000002,
                    "velocity": 0.4409448818897638,
                    "duration": 0.41666700000000034
                },
                {
                    "name": "B2",
                    "midi": 47,
                    "time": 9.166674000000004,
                    "velocity": 0.3543307086614173,
                    "duration": 0.41666700000000034
                },
                {
                    "name": "G3",
                    "midi": 55,
                    "time": 9.166674000000004,
                    "velocity": 0.3543307086614173,
                    "duration": 0.41666700000000034
                },
                {
                    "name": "B3",
                    "midi": 59,
                    "time": 9.166674000000004,
                    "velocity": 0.4251968503937008,
                    "duration": 0.41666700000000034
                },
                {
                    "name": "B2",
                    "midi": 47,
                    "time": 9.583341000000004,
                    "velocity": 0.3228346456692913,
                    "duration": 0.41666700000000034
                },
                {
                    "name": "F#3",
                    "midi": 54,
                    "time": 9.583341000000004,
                    "velocity": 0.3228346456692913,
                    "duration": 0.41666700000000034
                },
                {
                    "name": "B3",
                    "midi": 59,
                    "time": 9.583341000000004,
                    "velocity": 0.3858267716535433,
                    "duration": 0.41666700000000034
                },
                {
                    "name": "E3",
                    "midi": 52,
                    "time": 10.000008000000005,
                    "velocity": 0.3543307086614173,
                    "duration": 0.41666700000000034
                },
                {
                    "name": "G3",
                    "midi": 55,
                    "time": 10.000008000000005,
                    "velocity": 0.3543307086614173,
                    "duration": 0.41666700000000034
                },
                {
                    "name": "B3",
                    "midi": 59,
                    "time": 10.000008000000005,
                    "velocity": 0.4251968503937008,
                    "duration": 0.41666700000000034
                },
                {
                    "name": "E2",
                    "midi": 40,
                    "time": 10.416675000000005,
                    "velocity": 0.3937007874015748,
                    "duration": 0.41666700000000034
                },
                {
                    "name": "F4",
                    "midi": 65,
                    "time": 11.666676000000004,
                    "velocity": 0.2125984251968504,
                    "duration": 0.41666700000000034
                },
                {
                    "name": "D4",
                    "midi": 62,
                    "time": 11.666676000000004,
                    "velocity": 0.1732283464566929,
                    "duration": 0.41666700000000034
                },
                {
                    "name": "A3",
                    "midi": 57,
                    "time": 11.666676000000004,
                    "velocity": 0.1732283464566929,
                    "duration": 0.41666700000000034
                },
                {
                    "name": "F4",
                    "midi": 65,
                    "time": 12.083343000000005,
                    "velocity": 0.2125984251968504,
                    "duration": 0.41666700000000034
                },
                {
                    "name": "D4",
                    "midi": 62,
                    "time": 12.083343000000005,
                    "velocity": 0.1732283464566929,
                    "duration": 0.41666700000000034
                },
                {
                    "name": "A3",
                    "midi": 57,
                    "time": 12.083343000000005,
                    "velocity": 0.1732283464566929,
                    "duration": 0.41666700000000034
                },
                {
                    "name": "F4",
                    "midi": 65,
                    "time": 12.916677000000005,
                    "velocity": 0.1968503937007874,
                    "duration": 0.41666700000000034
                },
                {
                    "name": "C4",
                    "midi": 60,
                    "time": 12.916677000000005,
                    "velocity": 0.16535433070866143,
                    "duration": 0.41666700000000034
                },
                {
                    "name": "A3",
                    "midi": 57,
                    "time": 12.916677000000005,
                    "velocity": 0.16535433070866143,
                    "duration": 0.41666700000000034
                },
                {
                    "name": "E4",
                    "midi": 64,
                    "time": 13.333344000000006,
                    "velocity": 0.1968503937007874,
                    "duration": 0.41666699999999857
                },
                {
                    "name": "C4",
                    "midi": 60,
                    "time": 13.333344000000006,
                    "velocity": 0.16535433070866143,
                    "duration": 0.41666699999999857
                },
                {
                    "name": "A3",
                    "midi": 57,
                    "time": 13.333344000000006,
                    "velocity": 0.16535433070866143,
                    "duration": 0.41666699999999857
                },
                {
                    "name": "D4",
                    "midi": 62,
                    "time": 14.166678000000005,
                    "velocity": 0.2204724409448819,
                    "duration": 0.41666700000000034
                },
                {
                    "name": "E3",
                    "midi": 52,
                    "time": 14.166678000000005,
                    "velocity": 0.18110236220472442,
                    "duration": 0.41666700000000034
                },
                {
                    "name": "G#3",
                    "midi": 56,
                    "time": 14.166678000000005,
                    "velocity": 0.18110236220472442,
                    "duration": 0.41666700000000034
                },
                {
                    "name": "D4",
                    "midi": 62,
                    "time": 14.583345000000005,
                    "velocity": 0.1968503937007874,
                    "duration": 0.41666700000000034
                },
                {
                    "name": "G#3",
                    "midi": 56,
                    "time": 14.583345000000005,
                    "velocity": 0.16535433070866143,
                    "duration": 0.41666700000000034
                },
                {
                    "name": "E3",
                    "midi": 52,
                    "time": 14.583345000000005,
                    "velocity": 0.16535433070866143,
                    "duration": 0.41666700000000034
                },
                {
                    "name": "F3",
                    "midi": 53,
                    "time": 15.416679000000006,
                    "velocity": 0.16535433070866143,
                    "duration": 0.41666700000000034
                },
                {
                    "name": "A3",
                    "midi": 57,
                    "time": 15.416679000000006,
                    "velocity": 0.16535433070866143,
                    "duration": 0.41666700000000034
                },
                {
                    "name": "D4",
                    "midi": 62,
                    "time": 15.416679000000006,
                    "velocity": 0.2204724409448819,
                    "duration": 0.41666700000000034
                },
                {
                    "name": "A3",
                    "midi": 57,
                    "time": 15.833346000000006,
                    "velocity": 0.16535433070866143,
                    "duration": 0.41666700000000034
                },
                {
                    "name": "C4",
                    "midi": 60,
                    "time": 15.833346000000006,
                    "velocity": 0.2047244094488189,
                    "duration": 0.41666700000000034
                },
                {
                    "name": "F3",
                    "midi": 53,
                    "time": 15.833346000000006,
                    "velocity": 0.16535433070866143,
                    "duration": 0.41666700000000034
                },
                {
                    "name": "C4",
                    "midi": 60,
                    "time": 16.666680000000003,
                    "velocity": 0.2283464566929134,
                    "duration": 0.41666700000000034
                },
                {
                    "name": "F3",
                    "midi": 53,
                    "time": 16.666680000000003,
                    "velocity": 0.2283464566929134,
                    "duration": 0.41666700000000034
                },
                {
                    "name": "D#4",
                    "midi": 63,
                    "time": 16.666680000000003,
                    "velocity": 0.2677165354330709,
                    "duration": 0.41666700000000034
                },
                {
                    "name": "F3",
                    "midi": 53,
                    "time": 17.083347000000003,
                    "velocity": 0.2283464566929134,
                    "duration": 0.41666700000000034
                },
                {
                    "name": "C4",
                    "midi": 60,
                    "time": 17.083347000000003,
                    "velocity": 0.2283464566929134,
                    "duration": 0.41666700000000034
                },
                {
                    "name": "D#4",
                    "midi": 63,
                    "time": 17.083347000000003,
                    "velocity": 0.2677165354330709,
                    "duration": 0.41666700000000034
                },
                {
                    "name": "A#3",
                    "midi": 58,
                    "time": 17.500014000000004,
                    "velocity": 0.2677165354330709,
                    "duration": 0.8333340000000007
                },
                {
                    "name": "D4",
                    "midi": 62,
                    "time": 17.500014000000004,
                    "velocity": 0.29133858267716534,
                    "duration": 0.41666700000000034
                },
                {
                    "name": "F4",
                    "midi": 65,
                    "time": 17.916681000000004,
                    "velocity": 0.29133858267716534,
                    "duration": 0.41666700000000034
                },
                {
                    "name": "E3",
                    "midi": 52,
                    "time": 19.166682,
                    "velocity": 0.2283464566929134,
                    "duration": 0.4166669999999968
                },
                {
                    "name": "B3",
                    "midi": 59,
                    "time": 19.166682,
                    "velocity": 0.2755905511811024,
                    "duration": 0.4166669999999968
                },
                {
                    "name": "E3",
                    "midi": 52,
                    "time": 19.583349,
                    "velocity": 0.2047244094488189,
                    "duration": 0.41666700000000034
                },
                {
                    "name": "B3",
                    "midi": 59,
                    "time": 19.583349,
                    "velocity": 0.2440944881889764,
                    "duration": 0.41666700000000034
                },
                {
                    "name": "A2",
                    "midi": 45,
                    "time": 20.000016,
                    "velocity": 0.2283464566929134,
                    "duration": 0.4166670000000039
                },
                {
                    "name": "E3",
                    "midi": 52,
                    "time": 20.000016,
                    "velocity": 0.2755905511811024,
                    "duration": 0.4166670000000039
                },
                {
                    "name": "A1",
                    "midi": 33,
                    "time": 20.416683000000003,
                    "velocity": 0.28346456692913385,
                    "duration": 0.41666700000000034
                },
                {
                    "name": "F4",
                    "midi": 65,
                    "time": 21.666684000000004,
                    "velocity": 0.2125984251968504,
                    "duration": 0.41666700000000034
                },
                {
                    "name": "D4",
                    "midi": 62,
                    "time": 21.666684000000004,
                    "velocity": 0.1732283464566929,
                    "duration": 0.41666700000000034
                },
                {
                    "name": "A3",
                    "midi": 57,
                    "time": 21.666684000000004,
                    "velocity": 0.1732283464566929,
                    "duration": 0.41666700000000034
                },
                {
                    "name": "F4",
                    "midi": 65,
                    "time": 22.083351000000004,
                    "velocity": 0.2125984251968504,
                    "duration": 0.41666700000000034
                },
                {
                    "name": "D4",
                    "midi": 62,
                    "time": 22.083351000000004,
                    "velocity": 0.1732283464566929,
                    "duration": 0.41666700000000034
                },
                {
                    "name": "A3",
                    "midi": 57,
                    "time": 22.083351000000004,
                    "velocity": 0.1732283464566929,
                    "duration": 0.41666700000000034
                },
                {
                    "name": "F4",
                    "midi": 65,
                    "time": 22.916685,
                    "velocity": 0.1968503937007874,
                    "duration": 0.41666700000000034
                },
                {
                    "name": "C4",
                    "midi": 60,
                    "time": 22.916685,
                    "velocity": 0.16535433070866143,
                    "duration": 0.41666700000000034
                },
                {
                    "name": "A3",
                    "midi": 57,
                    "time": 22.916685,
                    "velocity": 0.16535433070866143,
                    "duration": 0.41666700000000034
                },
                {
                    "name": "E4",
                    "midi": 64,
                    "time": 23.333352,
                    "velocity": 0.1968503937007874,
                    "duration": 0.41666700000000034
                },
                {
                    "name": "C4",
                    "midi": 60,
                    "time": 23.333352,
                    "velocity": 0.16535433070866143,
                    "duration": 0.41666700000000034
                },
                {
                    "name": "A3",
                    "midi": 57,
                    "time": 23.333352,
                    "velocity": 0.16535433070866143,
                    "duration": 0.41666700000000034
                },
                {
                    "name": "D4",
                    "midi": 62,
                    "time": 24.166686000000002,
                    "velocity": 0.2204724409448819,
                    "duration": 0.41666700000000034
                },
                {
                    "name": "E3",
                    "midi": 52,
                    "time": 24.166686000000002,
                    "velocity": 0.18110236220472442,
                    "duration": 0.41666700000000034
                },
                {
                    "name": "G#3",
                    "midi": 56,
                    "time": 24.166686000000002,
                    "velocity": 0.18110236220472442,
                    "duration": 0.41666700000000034
                },
                {
                    "name": "D4",
                    "midi": 62,
                    "time": 24.583353000000002,
                    "velocity": 0.1968503937007874,
                    "duration": 0.41666700000000034
                },
                {
                    "name": "G#3",
                    "midi": 56,
                    "time": 24.583353000000002,
                    "velocity": 0.16535433070866143,
                    "duration": 0.41666700000000034
                },
                {
                    "name": "E3",
                    "midi": 52,
                    "time": 24.583353000000002,
                    "velocity": 0.16535433070866143,
                    "duration": 0.41666700000000034
                },
                {
                    "name": "A2",
                    "midi": 45,
                    "time": 25.416687000000003,
                    "velocity": 0.23622047244094488,
                    "duration": 0.41666700000000034
                },
                {
                    "name": "C4",
                    "midi": 60,
                    "time": 25.833354000000003,
                    "velocity": 0.2204724409448819,
                    "duration": 0.41666700000000034
                },
                {
                    "name": "E3",
                    "midi": 52,
                    "time": 25.833354000000003,
                    "velocity": 0.1732283464566929,
                    "duration": 0.41666700000000034
                },
                {
                    "name": "E3",
                    "midi": 52,
                    "time": 26.666688000000004,
                    "velocity": 0.30708661417322836,
                    "duration": 0.20833350000000195
                },
                {
                    "name": "C4",
                    "midi": 60,
                    "time": 26.666688000000004,
                    "velocity": 0.36220472440944884,
                    "duration": 0.20833350000000195
                },
                {
                    "name": "A2",
                    "midi": 45,
                    "time": 27.083355000000005,
                    "velocity": 0.3779527559055118,
                    "duration": 0.2083334999999984
                },
                {
                    "name": "E3",
                    "midi": 52,
                    "time": 27.916689,
                    "velocity": 0.3228346456692913,
                    "duration": 0.41666700000000034
                },
                {
                    "name": "B3",
                    "midi": 59,
                    "time": 27.916689,
                    "velocity": 0.3858267716535433,
                    "duration": 0.41666700000000034
                },
                {
                    "name": "G3",
                    "midi": 55,
                    "time": 27.916689,
                    "velocity": 0.3228346456692913,
                    "duration": 0.41666700000000034
                },
                {
                    "name": "B2",
                    "midi": 47,
                    "time": 28.333356000000002,
                    "velocity": 0.4409448818897638,
                    "duration": 0.41666700000000034
                },
                {
                    "name": "B2",
                    "midi": 47,
                    "time": 29.166690000000003,
                    "velocity": 0.3543307086614173,
                    "duration": 0.41666700000000034
                },
                {
                    "name": "G3",
                    "midi": 55,
                    "time": 29.166690000000003,
                    "velocity": 0.3543307086614173,
                    "duration": 0.41666700000000034
                },
                {
                    "name": "B3",
                    "midi": 59,
                    "time": 29.166690000000003,
                    "velocity": 0.4251968503937008,
                    "duration": 0.41666700000000034
                },
                {
                    "name": "B2",
                    "midi": 47,
                    "time": 29.583357000000003,
                    "velocity": 0.3228346456692913,
                    "duration": 0.41666700000000034
                },
                {
                    "name": "F#3",
                    "midi": 54,
                    "time": 29.583357000000003,
                    "velocity": 0.3228346456692913,
                    "duration": 0.41666700000000034
                },
                {
                    "name": "B3",
                    "midi": 59,
                    "time": 29.583357000000003,
                    "velocity": 0.3858267716535433,
                    "duration": 0.41666700000000034
                },
                {
                    "name": "E3",
                    "midi": 52,
                    "time": 30.000024000000003,
                    "velocity": 0.3543307086614173,
                    "duration": 0.41666700000000034
                },
                {
                    "name": "G3",
                    "midi": 55,
                    "time": 30.000024000000003,
                    "velocity": 0.3543307086614173,
                    "duration": 0.41666700000000034
                },
                {
                    "name": "B3",
                    "midi": 59,
                    "time": 30.000024000000003,
                    "velocity": 0.4251968503937008,
                    "duration": 0.41666700000000034
                },
                {
                    "name": "E2",
                    "midi": 40,
                    "time": 30.416691000000004,
                    "velocity": 0.3937007874015748,
                    "duration": 0.41666700000000034
                },
                {
                    "name": "F4",
                    "midi": 65,
                    "time": 31.666692000000005,
                    "velocity": 0.2125984251968504,
                    "duration": 0.4166670000000039
                },
                {
                    "name": "D4",
                    "midi": 62,
                    "time": 31.666692000000005,
                    "velocity": 0.1732283464566929,
                    "duration": 0.4166670000000039
                },
                {
                    "name": "A3",
                    "midi": 57,
                    "time": 31.666692000000005,
                    "velocity": 0.1732283464566929,
                    "duration": 0.4166670000000039
                },
                {
                    "name": "F4",
                    "midi": 65,
                    "time": 32.08335900000001,
                    "velocity": 0.2125984251968504,
                    "duration": 0.4166669999999968
                },
                {
                    "name": "D4",
                    "midi": 62,
                    "time": 32.08335900000001,
                    "velocity": 0.1732283464566929,
                    "duration": 0.4166669999999968
                },
                {
                    "name": "A3",
                    "midi": 57,
                    "time": 32.08335900000001,
                    "velocity": 0.1732283464566929,
                    "duration": 0.4166669999999968
                },
                {
                    "name": "F4",
                    "midi": 65,
                    "time": 32.916693,
                    "velocity": 0.1968503937007874,
                    "duration": 0.4166669999999968
                },
                {
                    "name": "C4",
                    "midi": 60,
                    "time": 32.916693,
                    "velocity": 0.16535433070866143,
                    "duration": 0.4166669999999968
                },
                {
                    "name": "A3",
                    "midi": 57,
                    "time": 32.916693,
                    "velocity": 0.16535433070866143,
                    "duration": 0.4166669999999968
                },
                {
                    "name": "E4",
                    "midi": 64,
                    "time": 33.33336,
                    "velocity": 0.1968503937007874,
                    "duration": 0.4166669999999968
                },
                {
                    "name": "C4",
                    "midi": 60,
                    "time": 33.33336,
                    "velocity": 0.16535433070866143,
                    "duration": 0.4166669999999968
                },
                {
                    "name": "A3",
                    "midi": 57,
                    "time": 33.33336,
                    "velocity": 0.16535433070866143,
                    "duration": 0.4166669999999968
                },
                {
                    "name": "D4",
                    "midi": 62,
                    "time": 34.16669399999999,
                    "velocity": 0.2204724409448819,
                    "duration": 0.4166669999999968
                },
                {
                    "name": "E3",
                    "midi": 52,
                    "time": 34.16669399999999,
                    "velocity": 0.18110236220472442,
                    "duration": 0.4166669999999968
                },
                {
                    "name": "G#3",
                    "midi": 56,
                    "time": 34.16669399999999,
                    "velocity": 0.18110236220472442,
                    "duration": 0.4166669999999968
                },
                {
                    "name": "D4",
                    "midi": 62,
                    "time": 34.58336099999999,
                    "velocity": 0.1968503937007874,
                    "duration": 0.4166669999999968
                },
                {
                    "name": "G#3",
                    "midi": 56,
                    "time": 34.58336099999999,
                    "velocity": 0.16535433070866143,
                    "duration": 0.4166669999999968
                },
                {
                    "name": "E3",
                    "midi": 52,
                    "time": 34.58336099999999,
                    "velocity": 0.16535433070866143,
                    "duration": 0.4166669999999968
                },
                {
                    "name": "F3",
                    "midi": 53,
                    "time": 35.41669499999998,
                    "velocity": 0.16535433070866143,
                    "duration": 0.4166670000000039
                },
                {
                    "name": "A3",
                    "midi": 57,
                    "time": 35.41669499999998,
                    "velocity": 0.16535433070866143,
                    "duration": 0.4166670000000039
                },
                {
                    "name": "D4",
                    "midi": 62,
                    "time": 35.41669499999998,
                    "velocity": 0.2204724409448819,
                    "duration": 0.4166670000000039
                },
                {
                    "name": "A3",
                    "midi": 57,
                    "time": 35.83336199999999,
                    "velocity": 0.16535433070866143,
                    "duration": 0.4166669999999968
                },
                {
                    "name": "C4",
                    "midi": 60,
                    "time": 35.83336199999999,
                    "velocity": 0.2047244094488189,
                    "duration": 0.4166669999999968
                },
                {
                    "name": "F3",
                    "midi": 53,
                    "time": 35.83336199999999,
                    "velocity": 0.16535433070866143,
                    "duration": 0.4166669999999968
                },
                {
                    "name": "C4",
                    "midi": 60,
                    "time": 36.66669599999998,
                    "velocity": 0.2283464566929134,
                    "duration": 0.4166669999999968
                },
                {
                    "name": "F3",
                    "midi": 53,
                    "time": 36.66669599999998,
                    "velocity": 0.2283464566929134,
                    "duration": 0.4166669999999968
                },
                {
                    "name": "D#4",
                    "midi": 63,
                    "time": 36.66669599999998,
                    "velocity": 0.2677165354330709,
                    "duration": 0.4166669999999968
                },
                {
                    "name": "F3",
                    "midi": 53,
                    "time": 37.08336299999998,
                    "velocity": 0.2283464566929134,
                    "duration": 0.4166669999999968
                },
                {
                    "name": "C4",
                    "midi": 60,
                    "time": 37.08336299999998,
                    "velocity": 0.2283464566929134,
                    "duration": 0.4166669999999968
                },
                {
                    "name": "D#4",
                    "midi": 63,
                    "time": 37.08336299999998,
                    "velocity": 0.2677165354330709,
                    "duration": 0.4166669999999968
                },
                {
                    "name": "A#3",
                    "midi": 58,
                    "time": 37.500029999999974,
                    "velocity": 0.2677165354330709,
                    "duration": 0.8333339999999936
                },
                {
                    "name": "D4",
                    "midi": 62,
                    "time": 37.500029999999974,
                    "velocity": 0.29133858267716534,
                    "duration": 0.4166669999999968
                },
                {
                    "name": "F4",
                    "midi": 65,
                    "time": 37.91669699999997,
                    "velocity": 0.29133858267716534,
                    "duration": 0.4166669999999968
                },
                {
                    "name": "E3",
                    "midi": 52,
                    "time": 39.16669799999996,
                    "velocity": 0.2283464566929134,
                    "duration": 0.4166670000000039
                },
                {
                    "name": "B3",
                    "midi": 59,
                    "time": 39.16669799999996,
                    "velocity": 0.2755905511811024,
                    "duration": 0.4166670000000039
                },
                {
                    "name": "E3",
                    "midi": 52,
                    "time": 39.583364999999965,
                    "velocity": 0.2047244094488189,
                    "duration": 0.4166670000000039
                },
                {
                    "name": "B3",
                    "midi": 59,
                    "time": 39.583364999999965,
                    "velocity": 0.2440944881889764,
                    "duration": 0.4166670000000039
                },
                {
                    "name": "A2",
                    "midi": 45,
                    "time": 40.00003199999997,
                    "velocity": 0.2283464566929134,
                    "duration": 0.4166669999999968
                },
                {
                    "name": "E3",
                    "midi": 52,
                    "time": 40.00003199999997,
                    "velocity": 0.2755905511811024,
                    "duration": 0.4166669999999968
                },
                {
                    "name": "A1",
                    "midi": 33,
                    "time": 40.416698999999966,
                    "velocity": 0.23622047244094488,
                    "duration": 0.4166669999999968
                },
                {
                    "name": "F#4",
                    "midi": 66,
                    "time": 41.66669999999996,
                    "velocity": 0.25196850393700787,
                    "duration": 0.4166669999999968
                },
                {
                    "name": "C4",
                    "midi": 60,
                    "time": 41.66669999999996,
                    "velocity": 0.2125984251968504,
                    "duration": 0.4166669999999968
                },
                {
                    "name": "G#3",
                    "midi": 56,
                    "time": 41.66669999999996,
                    "velocity": 0.2125984251968504,
                    "duration": 0.4166669999999968
                },
                {
                    "name": "F#4",
                    "midi": 66,
                    "time": 42.08336699999996,
                    "velocity": 0.25196850393700787,
                    "duration": 0.4166669999999968
                },
                {
                    "name": "C4",
                    "midi": 60,
                    "time": 42.08336699999996,
                    "velocity": 0.2125984251968504,
                    "duration": 0.4166669999999968
                },
                {
                    "name": "G#3",
                    "midi": 56,
                    "time": 42.08336699999996,
                    "velocity": 0.2125984251968504,
                    "duration": 0.4166669999999968
                },
                {
                    "name": "F#4",
                    "midi": 66,
                    "time": 42.916700999999954,
                    "velocity": 0.25984251968503935,
                    "duration": 0.4166669999999968
                },
                {
                    "name": "C4",
                    "midi": 60,
                    "time": 42.916700999999954,
                    "velocity": 0.2125984251968504,
                    "duration": 0.4166669999999968
                },
                {
                    "name": "G3",
                    "midi": 55,
                    "time": 42.916700999999954,
                    "velocity": 0.2125984251968504,
                    "duration": 0.4166669999999968
                },
                {
                    "name": "G4",
                    "midi": 67,
                    "time": 43.33336799999995,
                    "velocity": 0.25984251968503935,
                    "duration": 0.4166670000000039
                },
                {
                    "name": "B3",
                    "midi": 59,
                    "time": 43.33336799999995,
                    "velocity": 0.2125984251968504,
                    "duration": 0.4166670000000039
                },
                {
                    "name": "G3",
                    "midi": 55,
                    "time": 43.33336799999995,
                    "velocity": 0.2125984251968504,
                    "duration": 0.4166670000000039
                },
                {
                    "name": "F#4",
                    "midi": 66,
                    "time": 44.16670199999995,
                    "velocity": 0.28346456692913385,
                    "duration": 0.4166669999999968
                },
                {
                    "name": "C4",
                    "midi": 60,
                    "time": 44.16670199999995,
                    "velocity": 0.23622047244094488,
                    "duration": 0.4166669999999968
                },
                {
                    "name": "G#3",
                    "midi": 56,
                    "time": 44.16670199999995,
                    "velocity": 0.23622047244094488,
                    "duration": 0.4166669999999968
                },
                {
                    "name": "F#4",
                    "midi": 66,
                    "time": 44.58336899999995,
                    "velocity": 0.2992125984251969,
                    "duration": 0.4166669999999968
                },
                {
                    "name": "C4",
                    "midi": 60,
                    "time": 44.58336899999995,
                    "velocity": 0.2440944881889764,
                    "duration": 0.4166669999999968
                },
                {
                    "name": "G#3",
                    "midi": 56,
                    "time": 44.58336899999995,
                    "velocity": 0.2440944881889764,
                    "duration": 0.4166669999999968
                },
                {
                    "name": "F4",
                    "midi": 65,
                    "time": 45.41670299999995,
                    "velocity": 0.3779527559055118,
                    "duration": 0.4166669999999968
                },
                {
                    "name": "B3",
                    "midi": 59,
                    "time": 45.41670299999995,
                    "velocity": 0.31496062992125984,
                    "duration": 0.4166669999999968
                },
                {
                    "name": "G#3",
                    "midi": 56,
                    "time": 45.41670299999995,
                    "velocity": 0.31496062992125984,
                    "duration": 0.4166669999999968
                },
                {
                    "name": "F4",
                    "midi": 65,
                    "time": 45.833369999999945,
                    "velocity": 0.3779527559055118,
                    "duration": 0.4166669999999968
                },
                {
                    "name": "A#3",
                    "midi": 58,
                    "time": 45.833369999999945,
                    "velocity": 0.31496062992125984,
                    "duration": 0.4166669999999968
                },
                {
                    "name": "G#3",
                    "midi": 56,
                    "time": 45.833369999999945,
                    "velocity": 0.31496062992125984,
                    "duration": 0.4166669999999968
                },
                {
                    "name": "F4",
                    "midi": 65,
                    "time": 46.666703999999946,
                    "velocity": 0.4645669291338583,
                    "duration": 0.4166669999999968
                },
                {
                    "name": "A#3",
                    "midi": 58,
                    "time": 46.666703999999946,
                    "velocity": 0.3779527559055118,
                    "duration": 0.4166669999999968
                },
                {
                    "name": "G3",
                    "midi": 55,
                    "time": 46.666703999999946,
                    "velocity": 0.3779527559055118,
                    "duration": 0.4166669999999968
                },
                {
                    "name": "E4",
                    "midi": 64,
                    "time": 47.08337099999994,
                    "velocity": 0.4330708661417323,
                    "duration": 0.4166670000000039
                },
                {
                    "name": "A#3",
                    "midi": 58,
                    "time": 47.08337099999994,
                    "velocity": 0.36220472440944884,
                    "duration": 0.4166670000000039
                },
                {
                    "name": "G3",
                    "midi": 55,
                    "time": 47.08337099999994,
                    "velocity": 0.36220472440944884,
                    "duration": 0.4166670000000039
                },
                {
                    "name": "E4",
                    "midi": 64,
                    "time": 47.91670499999995,
                    "velocity": 0.4251968503937008,
                    "duration": 0.4166669999999968
                },
                {
                    "name": "A3",
                    "midi": 57,
                    "time": 47.91670499999995,
                    "velocity": 0.33070866141732286,
                    "duration": 0.4166669999999968
                },
                {
                    "name": "G3",
                    "midi": 55,
                    "time": 47.91670499999995,
                    "velocity": 0.33070866141732286,
                    "duration": 0.4166669999999968
                },
                {
                    "name": "D#4",
                    "midi": 63,
                    "time": 48.33337199999995,
                    "velocity": 0.3779527559055118,
                    "duration": 0.4166670000000039
                },
                {
                    "name": "A3",
                    "midi": 57,
                    "time": 48.33337199999995,
                    "velocity": 0.31496062992125984,
                    "duration": 0.4166670000000039
                },
                {
                    "name": "F#3",
                    "midi": 54,
                    "time": 48.33337199999995,
                    "velocity": 0.31496062992125984,
                    "duration": 0.4166670000000039
                },
                {
                    "name": "D#4",
                    "midi": 63,
                    "time": 49.16670599999995,
                    "velocity": 0.3464566929133858,
                    "duration": 0.4166669999999968
                },
                {
                    "name": "G#3",
                    "midi": 56,
                    "time": 49.16670599999995,
                    "velocity": 0.2755905511811024,
                    "duration": 0.4166669999999968
                },
                {
                    "name": "F3",
                    "midi": 53,
                    "time": 49.16670599999995,
                    "velocity": 0.2755905511811024,
                    "duration": 0.4166669999999968
                },
                {
                    "name": "D4",
                    "midi": 62,
                    "time": 49.583372999999945,
                    "velocity": 0.30708661417322836,
                    "duration": 0.4166669999999968
                },
                {
                    "name": "G#3",
                    "midi": 56,
                    "time": 49.583372999999945,
                    "velocity": 0.25196850393700787,
                    "duration": 0.4166669999999968
                },
                {
                    "name": "F3",
                    "midi": 53,
                    "time": 49.583372999999945,
                    "velocity": 0.25196850393700787,
                    "duration": 0.4166669999999968
                },
                {
                    "name": "D4",
                    "midi": 62,
                    "time": 50.416706999999946,
                    "velocity": 0.28346456692913385,
                    "duration": 0.4166669999999968
                },
                {
                    "name": "G3",
                    "midi": 55,
                    "time": 50.416706999999946,
                    "velocity": 0.2283464566929134,
                    "duration": 0.4166669999999968
                },
                {
                    "name": "E3",
                    "midi": 52,
                    "time": 50.416706999999946,
                    "velocity": 0.2283464566929134,
                    "duration": 0.4166669999999968
                },
                {
                    "name": "C#4",
                    "midi": 61,
                    "time": 50.83337399999994,
                    "velocity": 0.2204724409448819,
                    "duration": 0.4166669999999968
                },
                {
                    "name": "G3",
                    "midi": 55,
                    "time": 50.83337399999994,
                    "velocity": 0.1732283464566929,
                    "duration": 0.4166669999999968
                },
                {
                    "name": "E3",
                    "midi": 52,
                    "time": 50.83337399999994,
                    "velocity": 0.1732283464566929,
                    "duration": 0.4166669999999968
                },
                {
                    "name": "D3",
                    "midi": 50,
                    "time": 51.25004099999994,
                    "velocity": 0.1732283464566929,
                    "duration": 0.4166669999999968
                },
                {
                    "name": "F3",
                    "midi": 53,
                    "time": 51.25004099999994,
                    "velocity": 0.1732283464566929,
                    "duration": 0.4166669999999968
                },
                {
                    "name": "D4",
                    "midi": 62,
                    "time": 51.25004099999994,
                    "velocity": 0.2204724409448819,
                    "duration": 0.4166669999999968
                },
                {
                    "name": "F4",
                    "midi": 65,
                    "time": 51.666707999999936,
                    "velocity": 0.2125984251968504,
                    "duration": 0.4166670000000039
                },
                {
                    "name": "D4",
                    "midi": 62,
                    "time": 51.666707999999936,
                    "velocity": 0.1732283464566929,
                    "duration": 0.4166670000000039
                },
                {
                    "name": "A3",
                    "midi": 57,
                    "time": 51.666707999999936,
                    "velocity": 0.1732283464566929,
                    "duration": 0.4166670000000039
                },
                {
                    "name": "F4",
                    "midi": 65,
                    "time": 52.08337499999994,
                    "velocity": 0.2125984251968504,
                    "duration": 0.4166669999999968
                },
                {
                    "name": "D4",
                    "midi": 62,
                    "time": 52.08337499999994,
                    "velocity": 0.1732283464566929,
                    "duration": 0.4166669999999968
                },
                {
                    "name": "A3",
                    "midi": 57,
                    "time": 52.08337499999994,
                    "velocity": 0.1732283464566929,
                    "duration": 0.4166669999999968
                },
                {
                    "name": "F4",
                    "midi": 65,
                    "time": 52.91670899999994,
                    "velocity": 0.1968503937007874,
                    "duration": 0.4166669999999968
                },
                {
                    "name": "C4",
                    "midi": 60,
                    "time": 52.91670899999994,
                    "velocity": 0.16535433070866143,
                    "duration": 0.4166669999999968
                },
                {
                    "name": "A3",
                    "midi": 57,
                    "time": 52.91670899999994,
                    "velocity": 0.16535433070866143,
                    "duration": 0.4166669999999968
                },
                {
                    "name": "E4",
                    "midi": 64,
                    "time": 53.33337599999994,
                    "velocity": 0.1968503937007874,
                    "duration": 0.4166669999999968
                },
                {
                    "name": "C4",
                    "midi": 60,
                    "time": 53.33337599999994,
                    "velocity": 0.16535433070866143,
                    "duration": 0.4166669999999968
                },
                {
                    "name": "A3",
                    "midi": 57,
                    "time": 53.33337599999994,
                    "velocity": 0.16535433070866143,
                    "duration": 0.4166669999999968
                },
                {
                    "name": "D4",
                    "midi": 62,
                    "time": 54.16670999999993,
                    "velocity": 0.2204724409448819,
                    "duration": 0.4166669999999968
                },
                {
                    "name": "E3",
                    "midi": 52,
                    "time": 54.16670999999993,
                    "velocity": 0.18110236220472442,
                    "duration": 0.4166669999999968
                },
                {
                    "name": "G#3",
                    "midi": 56,
                    "time": 54.16670999999993,
                    "velocity": 0.18110236220472442,
                    "duration": 0.4166669999999968
                },
                {
                    "name": "D4",
                    "midi": 62,
                    "time": 54.58337699999993,
                    "velocity": 0.1968503937007874,
                    "duration": 0.4166669999999968
                },
                {
                    "name": "G#3",
                    "midi": 56,
                    "time": 54.58337699999993,
                    "velocity": 0.16535433070866143,
                    "duration": 0.4166669999999968
                },
                {
                    "name": "E3",
                    "midi": 52,
                    "time": 54.58337699999993,
                    "velocity": 0.16535433070866143,
                    "duration": 0.4166669999999968
                },
                {
                    "name": "F3",
                    "midi": 53,
                    "time": 55.41671099999992,
                    "velocity": 0.16535433070866143,
                    "duration": 0.4166670000000039
                },
                {
                    "name": "A3",
                    "midi": 57,
                    "time": 55.41671099999992,
                    "velocity": 0.16535433070866143,
                    "duration": 0.4166670000000039
                },
                {
                    "name": "D4",
                    "midi": 62,
                    "time": 55.41671099999992,
                    "velocity": 0.2204724409448819,
                    "duration": 0.4166670000000039
                },
                {
                    "name": "A3",
                    "midi": 57,
                    "time": 55.833377999999925,
                    "velocity": 0.16535433070866143,
                    "duration": 0.4166669999999968
                },
                {
                    "name": "C4",
                    "midi": 60,
                    "time": 55.833377999999925,
                    "velocity": 0.2047244094488189,
                    "duration": 0.4166669999999968
                },
                {
                    "name": "F3",
                    "midi": 53,
                    "time": 55.833377999999925,
                    "velocity": 0.16535433070866143,
                    "duration": 0.4166669999999968
                },
                {
                    "name": "C4",
                    "midi": 60,
                    "time": 56.66671199999992,
                    "velocity": 0.2283464566929134,
                    "duration": 0.4166670000000039
                },
                {
                    "name": "F3",
                    "midi": 53,
                    "time": 56.66671199999992,
                    "velocity": 0.2283464566929134,
                    "duration": 0.4166670000000039
                },
                {
                    "name": "D#4",
                    "midi": 63,
                    "time": 56.66671199999992,
                    "velocity": 0.2677165354330709,
                    "duration": 0.4166670000000039
                },
                {
                    "name": "F3",
                    "midi": 53,
                    "time": 57.08337899999992,
                    "velocity": 0.2283464566929134,
                    "duration": 0.4166669999999968
                },
                {
                    "name": "C4",
                    "midi": 60,
                    "time": 57.08337899999992,
                    "velocity": 0.2283464566929134,
                    "duration": 0.4166669999999968
                },
                {
                    "name": "D#4",
                    "midi": 63,
                    "time": 57.08337899999992,
                    "velocity": 0.2677165354330709,
                    "duration": 0.4166669999999968
                },
                {
                    "name": "A#3",
                    "midi": 58,
                    "time": 57.50004599999992,
                    "velocity": 0.2677165354330709,
                    "duration": 0.8333339999999936
                },
                {
                    "name": "D4",
                    "midi": 62,
                    "time": 57.50004599999992,
                    "velocity": 0.29133858267716534,
                    "duration": 0.4166669999999968
                },
                {
                    "name": "F4",
                    "midi": 65,
                    "time": 57.916712999999916,
                    "velocity": 0.29133858267716534,
                    "duration": 0.4166669999999968
                },
                {
                    "name": "E3",
                    "midi": 52,
                    "time": 59.166713999999914,
                    "velocity": 0.2283464566929134,
                    "duration": 0.4166669999999968
                },
                {
                    "name": "B3",
                    "midi": 59,
                    "time": 59.166713999999914,
                    "velocity": 0.2755905511811024,
                    "duration": 0.4166669999999968
                },
                {
                    "name": "E3",
                    "midi": 52,
                    "time": 59.58338099999991,
                    "velocity": 0.2047244094488189,
                    "duration": 0.4166669999999968
                },
                {
                    "name": "B3",
                    "midi": 59,
                    "time": 59.58338099999991,
                    "velocity": 0.2440944881889764,
                    "duration": 0.4166669999999968
                },
                {
                    "name": "A2",
                    "midi": 45,
                    "time": 60.00004799999991,
                    "velocity": 0.2283464566929134,
                    "duration": 0.4166670000000039
                },
                {
                    "name": "E3",
                    "midi": 52,
                    "time": 60.00004799999991,
                    "velocity": 0.2755905511811024,
                    "duration": 0.4166670000000039
                },
                {
                    "name": "A1",
                    "midi": 33,
                    "time": 60.41671499999991,
                    "velocity": 0.23622047244094488,
                    "duration": 0.4166669999999968
                },
                {
                    "name": "F#4",
                    "midi": 66,
                    "time": 61.66671599999991,
                    "velocity": 0.25196850393700787,
                    "duration": 0.4166669999999968
                },
                {
                    "name": "C4",
                    "midi": 60,
                    "time": 61.66671599999991,
                    "velocity": 0.2125984251968504,
                    "duration": 0.4166669999999968
                },
                {
                    "name": "G#3",
                    "midi": 56,
                    "time": 61.66671599999991,
                    "velocity": 0.2125984251968504,
                    "duration": 0.4166669999999968
                },
                {
                    "name": "F#4",
                    "midi": 66,
                    "time": 62.083382999999905,
                    "velocity": 0.25196850393700787,
                    "duration": 0.4166669999999968
                },
                {
                    "name": "C4",
                    "midi": 60,
                    "time": 62.083382999999905,
                    "velocity": 0.2125984251968504,
                    "duration": 0.4166669999999968
                },
                {
                    "name": "G#3",
                    "midi": 56,
                    "time": 62.083382999999905,
                    "velocity": 0.2125984251968504,
                    "duration": 0.4166669999999968
                },
                {
                    "name": "F#4",
                    "midi": 66,
                    "time": 62.9167169999999,
                    "velocity": 0.25984251968503935,
                    "duration": 0.4166669999999968
                },
                {
                    "name": "C4",
                    "midi": 60,
                    "time": 62.9167169999999,
                    "velocity": 0.2125984251968504,
                    "duration": 0.4166669999999968
                },
                {
                    "name": "G3",
                    "midi": 55,
                    "time": 62.9167169999999,
                    "velocity": 0.2125984251968504,
                    "duration": 0.4166669999999968
                },
                {
                    "name": "G4",
                    "midi": 67,
                    "time": 63.333383999999896,
                    "velocity": 0.25984251968503935,
                    "duration": 0.4166670000000039
                },
                {
                    "name": "B3",
                    "midi": 59,
                    "time": 63.333383999999896,
                    "velocity": 0.2125984251968504,
                    "duration": 0.4166670000000039
                },
                {
                    "name": "G3",
                    "midi": 55,
                    "time": 63.333383999999896,
                    "velocity": 0.2125984251968504,
                    "duration": 0.4166670000000039
                },
                {
                    "name": "F#4",
                    "midi": 66,
                    "time": 64.1667179999999,
                    "velocity": 0.28346456692913385,
                    "duration": 0.4166670000000039
                },
                {
                    "name": "C4",
                    "midi": 60,
                    "time": 64.1667179999999,
                    "velocity": 0.23622047244094488,
                    "duration": 0.4166670000000039
                },
                {
                    "name": "G#3",
                    "midi": 56,
                    "time": 64.1667179999999,
                    "velocity": 0.23622047244094488,
                    "duration": 0.4166670000000039
                },
                {
                    "name": "F#4",
                    "midi": 66,
                    "time": 64.58338499999991,
                    "velocity": 0.2992125984251969,
                    "duration": 0.4166670000000039
                },
                {
                    "name": "C4",
                    "midi": 60,
                    "time": 64.58338499999991,
                    "velocity": 0.2440944881889764,
                    "duration": 0.4166670000000039
                },
                {
                    "name": "G#3",
                    "midi": 56,
                    "time": 64.58338499999991,
                    "velocity": 0.2440944881889764,
                    "duration": 0.4166670000000039
                },
                {
                    "name": "F4",
                    "midi": 65,
                    "time": 65.41671899999992,
                    "velocity": 0.3779527559055118,
                    "duration": 0.4166670000000039
                },
                {
                    "name": "B3",
                    "midi": 59,
                    "time": 65.41671899999992,
                    "velocity": 0.31496062992125984,
                    "duration": 0.4166670000000039
                },
                {
                    "name": "G#3",
                    "midi": 56,
                    "time": 65.41671899999992,
                    "velocity": 0.31496062992125984,
                    "duration": 0.4166670000000039
                },
                {
                    "name": "F4",
                    "midi": 65,
                    "time": 65.83338599999992,
                    "velocity": 0.3779527559055118,
                    "duration": 0.4166670000000039
                },
                {
                    "name": "A#3",
                    "midi": 58,
                    "time": 65.83338599999992,
                    "velocity": 0.31496062992125984,
                    "duration": 0.4166670000000039
                },
                {
                    "name": "G#3",
                    "midi": 56,
                    "time": 65.83338599999992,
                    "velocity": 0.31496062992125984,
                    "duration": 0.4166670000000039
                },
                {
                    "name": "F4",
                    "midi": 65,
                    "time": 66.66671999999993,
                    "velocity": 0.4645669291338583,
                    "duration": 0.4166670000000039
                },
                {
                    "name": "A#3",
                    "midi": 58,
                    "time": 66.66671999999993,
                    "velocity": 0.3779527559055118,
                    "duration": 0.4166670000000039
                },
                {
                    "name": "G3",
                    "midi": 55,
                    "time": 66.66671999999993,
                    "velocity": 0.3779527559055118,
                    "duration": 0.4166670000000039
                },
                {
                    "name": "E4",
                    "midi": 64,
                    "time": 67.08338699999993,
                    "velocity": 0.4330708661417323,
                    "duration": 0.4166670000000039
                },
                {
                    "name": "A#3",
                    "midi": 58,
                    "time": 67.08338699999993,
                    "velocity": 0.36220472440944884,
                    "duration": 0.4166670000000039
                },
                {
                    "name": "G3",
                    "midi": 55,
                    "time": 67.08338699999993,
                    "velocity": 0.36220472440944884,
                    "duration": 0.4166670000000039
                },
                {
                    "name": "E4",
                    "midi": 64,
                    "time": 67.91672099999994,
                    "velocity": 0.4251968503937008,
                    "duration": 0.4166670000000039
                },
                {
                    "name": "A3",
                    "midi": 57,
                    "time": 67.91672099999994,
                    "velocity": 0.33070866141732286,
                    "duration": 0.4166670000000039
                },
                {
                    "name": "G3",
                    "midi": 55,
                    "time": 67.91672099999994,
                    "velocity": 0.33070866141732286,
                    "duration": 0.4166670000000039
                },
                {
                    "name": "D#4",
                    "midi": 63,
                    "time": 68.33338799999994,
                    "velocity": 0.3779527559055118,
                    "duration": 0.4166670000000039
                },
                {
                    "name": "A3",
                    "midi": 57,
                    "time": 68.33338799999994,
                    "velocity": 0.31496062992125984,
                    "duration": 0.4166670000000039
                },
                {
                    "name": "F#3",
                    "midi": 54,
                    "time": 68.33338799999994,
                    "velocity": 0.31496062992125984,
                    "duration": 0.4166670000000039
                },
                {
                    "name": "D#4",
                    "midi": 63,
                    "time": 69.16672199999995,
                    "velocity": 0.3464566929133858,
                    "duration": 0.4166670000000039
                },
                {
                    "name": "G#3",
                    "midi": 56,
                    "time": 69.16672199999995,
                    "velocity": 0.2755905511811024,
                    "duration": 0.4166670000000039
                },
                {
                    "name": "F3",
                    "midi": 53,
                    "time": 69.16672199999995,
                    "velocity": 0.2755905511811024,
                    "duration": 0.4166670000000039
                },
                {
                    "name": "D4",
                    "midi": 62,
                    "time": 69.58338899999995,
                    "velocity": 0.30708661417322836,
                    "duration": 0.4166670000000039
                },
                {
                    "name": "G#3",
                    "midi": 56,
                    "time": 69.58338899999995,
                    "velocity": 0.25196850393700787,
                    "duration": 0.4166670000000039
                },
                {
                    "name": "F3",
                    "midi": 53,
                    "time": 69.58338899999995,
                    "velocity": 0.25196850393700787,
                    "duration": 0.4166670000000039
                },
                {
                    "name": "D4",
                    "midi": 62,
                    "time": 70.41672299999996,
                    "velocity": 0.28346456692913385,
                    "duration": 0.4166670000000039
                },
                {
                    "name": "G3",
                    "midi": 55,
                    "time": 70.41672299999996,
                    "velocity": 0.2283464566929134,
                    "duration": 0.4166670000000039
                },
                {
                    "name": "E3",
                    "midi": 52,
                    "time": 70.41672299999996,
                    "velocity": 0.2283464566929134,
                    "duration": 0.4166670000000039
                },
                {
                    "name": "C#4",
                    "midi": 61,
                    "time": 70.83338999999997,
                    "velocity": 0.2204724409448819,
                    "duration": 0.4166670000000039
                },
                {
                    "name": "G3",
                    "midi": 55,
                    "time": 70.83338999999997,
                    "velocity": 0.1732283464566929,
                    "duration": 0.4166670000000039
                },
                {
                    "name": "E3",
                    "midi": 52,
                    "time": 70.83338999999997,
                    "velocity": 0.1732283464566929,
                    "duration": 0.4166670000000039
                },
                {
                    "name": "D3",
                    "midi": 50,
                    "time": 71.25005699999997,
                    "velocity": 0.1732283464566929,
                    "duration": 0.4166670000000039
                },
                {
                    "name": "F3",
                    "midi": 53,
                    "time": 71.25005699999997,
                    "velocity": 0.1732283464566929,
                    "duration": 0.4166670000000039
                },
                {
                    "name": "D4",
                    "midi": 62,
                    "time": 71.25005699999997,
                    "velocity": 0.2204724409448819,
                    "duration": 0.4166670000000039
                },
                {
                    "name": "F4",
                    "midi": 65,
                    "time": 71.66672399999997,
                    "velocity": 0.2125984251968504,
                    "duration": 0.4166670000000039
                },
                {
                    "name": "D4",
                    "midi": 62,
                    "time": 71.66672399999997,
                    "velocity": 0.1732283464566929,
                    "duration": 0.4166670000000039
                },
                {
                    "name": "A3",
                    "midi": 57,
                    "time": 71.66672399999997,
                    "velocity": 0.1732283464566929,
                    "duration": 0.4166670000000039
                },
                {
                    "name": "F4",
                    "midi": 65,
                    "time": 72.08339099999998,
                    "velocity": 0.2125984251968504,
                    "duration": 0.4166670000000039
                },
                {
                    "name": "D4",
                    "midi": 62,
                    "time": 72.08339099999998,
                    "velocity": 0.1732283464566929,
                    "duration": 0.4166670000000039
                },
                {
                    "name": "A3",
                    "midi": 57,
                    "time": 72.08339099999998,
                    "velocity": 0.1732283464566929,
                    "duration": 0.4166670000000039
                },
                {
                    "name": "F4",
                    "midi": 65,
                    "time": 72.91672499999999,
                    "velocity": 0.1968503937007874,
                    "duration": 0.4166670000000039
                },
                {
                    "name": "C4",
                    "midi": 60,
                    "time": 72.91672499999999,
                    "velocity": 0.16535433070866143,
                    "duration": 0.4166670000000039
                },
                {
                    "name": "A3",
                    "midi": 57,
                    "time": 72.91672499999999,
                    "velocity": 0.16535433070866143,
                    "duration": 0.4166670000000039
                },
                {
                    "name": "E4",
                    "midi": 64,
                    "time": 73.33339199999999,
                    "velocity": 0.1968503937007874,
                    "duration": 0.4166670000000039
                },
                {
                    "name": "C4",
                    "midi": 60,
                    "time": 73.33339199999999,
                    "velocity": 0.16535433070866143,
                    "duration": 0.4166670000000039
                },
                {
                    "name": "A3",
                    "midi": 57,
                    "time": 73.33339199999999,
                    "velocity": 0.16535433070866143,
                    "duration": 0.4166670000000039
                },
                {
                    "name": "D4",
                    "midi": 62,
                    "time": 74.166726,
                    "velocity": 0.2204724409448819,
                    "duration": 0.4166670000000039
                },
                {
                    "name": "E3",
                    "midi": 52,
                    "time": 74.166726,
                    "velocity": 0.18110236220472442,
                    "duration": 0.4166670000000039
                },
                {
                    "name": "G#3",
                    "midi": 56,
                    "time": 74.166726,
                    "velocity": 0.18110236220472442,
                    "duration": 0.4166670000000039
                },
                {
                    "name": "D4",
                    "midi": 62,
                    "time": 74.583393,
                    "velocity": 0.1968503937007874,
                    "duration": 0.4166670000000039
                },
                {
                    "name": "G#3",
                    "midi": 56,
                    "time": 74.583393,
                    "velocity": 0.16535433070866143,
                    "duration": 0.4166670000000039
                },
                {
                    "name": "E3",
                    "midi": 52,
                    "time": 74.583393,
                    "velocity": 0.16535433070866143,
                    "duration": 0.4166670000000039
                },
                {
                    "name": "F3",
                    "midi": 53,
                    "time": 75.41672700000001,
                    "velocity": 0.16535433070866143,
                    "duration": 0.4166670000000039
                },
                {
                    "name": "A3",
                    "midi": 57,
                    "time": 75.41672700000001,
                    "velocity": 0.16535433070866143,
                    "duration": 0.4166670000000039
                },
                {
                    "name": "D4",
                    "midi": 62,
                    "time": 75.41672700000001,
                    "velocity": 0.2204724409448819,
                    "duration": 0.4166670000000039
                },
                {
                    "name": "A3",
                    "midi": 57,
                    "time": 75.83339400000001,
                    "velocity": 0.16535433070866143,
                    "duration": 0.4166670000000039
                },
                {
                    "name": "C4",
                    "midi": 60,
                    "time": 75.83339400000001,
                    "velocity": 0.2047244094488189,
                    "duration": 0.4166670000000039
                },
                {
                    "name": "F3",
                    "midi": 53,
                    "time": 75.83339400000001,
                    "velocity": 0.16535433070866143,
                    "duration": 0.4166670000000039
                },
                {
                    "name": "C4",
                    "midi": 60,
                    "time": 76.66672800000002,
                    "velocity": 0.2283464566929134,
                    "duration": 0.4166670000000039
                },
                {
                    "name": "F3",
                    "midi": 53,
                    "time": 76.66672800000002,
                    "velocity": 0.2283464566929134,
                    "duration": 0.4166670000000039
                },
                {
                    "name": "D#4",
                    "midi": 63,
                    "time": 76.66672800000002,
                    "velocity": 0.2677165354330709,
                    "duration": 0.4166670000000039
                },
                {
                    "name": "F3",
                    "midi": 53,
                    "time": 77.08339500000002,
                    "velocity": 0.2283464566929134,
                    "duration": 0.4166670000000039
                },
                {
                    "name": "C4",
                    "midi": 60,
                    "time": 77.08339500000002,
                    "velocity": 0.2283464566929134,
                    "duration": 0.4166670000000039
                },
                {
                    "name": "D#4",
                    "midi": 63,
                    "time": 77.08339500000002,
                    "velocity": 0.2677165354330709,
                    "duration": 0.4166670000000039
                },
                {
                    "name": "A#3",
                    "midi": 58,
                    "time": 77.50006200000003,
                    "velocity": 0.2677165354330709,
                    "duration": 0.8333340000000078
                },
                {
                    "name": "D4",
                    "midi": 62,
                    "time": 77.50006200000003,
                    "velocity": 0.29133858267716534,
                    "duration": 0.4166670000000039
                },
                {
                    "name": "F4",
                    "midi": 65,
                    "time": 77.91672900000003,
                    "velocity": 0.29133858267716534,
                    "duration": 0.4166670000000039
                },
                {
                    "name": "E3",
                    "midi": 52,
                    "time": 79.16673000000004,
                    "velocity": 0.2283464566929134,
                    "duration": 0.4166669999999897
                },
                {
                    "name": "B3",
                    "midi": 59,
                    "time": 79.16673000000004,
                    "velocity": 0.2755905511811024,
                    "duration": 0.4166669999999897
                },
                {
                    "name": "E3",
                    "midi": 52,
                    "time": 79.58339700000003,
                    "velocity": 0.2047244094488189,
                    "duration": 0.4166670000000039
                },
                {
                    "name": "B3",
                    "midi": 59,
                    "time": 79.58339700000003,
                    "velocity": 0.2440944881889764,
                    "duration": 0.4166670000000039
                },
                {
                    "name": "A2",
                    "midi": 45,
                    "time": 80.41673100000003,
                    "velocity": 0.14960629921259844,
                    "duration": 0.4166670000000039
                },
                {
                    "name": "A3",
                    "midi": 57,
                    "time": 80.41673100000003,
                    "velocity": 0.1732283464566929,
                    "duration": 0.4166670000000039
                },
                {
                    "name": "A2",
                    "midi": 45,
                    "time": 80.83339800000003,
                    "velocity": 0.15748031496062992,
                    "duration": 0.8333339999999936
                },
                {
                    "name": "A3",
                    "midi": 57,
                    "time": 80.83339800000003,
                    "velocity": 0.18110236220472442,
                    "duration": 0.8333339999999936
                },
                {
                    "name": "D3",
                    "midi": 50,
                    "time": 81.66673200000002,
                    "velocity": 0.28346456692913385,
                    "duration": 0.4166670000000039
                },
                {
                    "name": "D2",
                    "midi": 38,
                    "time": 82.08339900000003,
                    "velocity": 0.28346456692913385,
                    "duration": 0.4166670000000039
                },
                {
                    "name": "E2",
                    "midi": 40,
                    "time": 82.50006600000003,
                    "velocity": 0.33070866141732286,
                    "duration": 0.4166670000000039
                },
                {
                    "name": "A2",
                    "midi": 45,
                    "time": 82.91673300000004,
                    "velocity": 0.2755905511811024,
                    "duration": 0.4166669999999897
                },
                {
                    "name": "E3",
                    "midi": 52,
                    "time": 83.33340000000003,
                    "velocity": 0.30708661417322836,
                    "duration": 0.4166670000000039
                },
                {
                    "name": "A3",
                    "midi": 57,
                    "time": 83.75006700000003,
                    "velocity": 0.3464566929133858,
                    "duration": 0.4166670000000039
                },
                {
                    "name": "D3",
                    "midi": 50,
                    "time": 84.16673400000003,
                    "velocity": 0.3228346456692913,
                    "duration": 0.31250024999999937
                },
                {
                    "name": "D2",
                    "midi": 38,
                    "time": 84.58340100000004,
                    "velocity": 0.28346456692913385,
                    "duration": 0.4166670000000039
                },
                {
                    "name": "E2",
                    "midi": 40,
                    "time": 85.00006800000004,
                    "velocity": 0.3228346456692913,
                    "duration": 0.4166670000000039
                },
                {
                    "name": "A2",
                    "midi": 45,
                    "time": 85.41673500000005,
                    "velocity": 0.28346456692913385,
                    "duration": 0.4166670000000039
                },
                {
                    "name": "E3",
                    "midi": 52,
                    "time": 85.83340200000005,
                    "velocity": 0.3228346456692913,
                    "duration": 0.4166669999999897
                },
                {
                    "name": "A3",
                    "midi": 57,
                    "time": 86.25006900000004,
                    "velocity": 0.3464566929133858,
                    "duration": 0.4166670000000039
                },
                {
                    "name": "D3",
                    "midi": 50,
                    "time": 86.66673600000004,
                    "velocity": 0.28346456692913385,
                    "duration": 0.20833349999999484
                },
                {
                    "name": "D2",
                    "midi": 38,
                    "time": 87.08340300000003,
                    "velocity": 0.28346456692913385,
                    "duration": 0.4166670000000039
                },
                {
                    "name": "E2",
                    "midi": 40,
                    "time": 87.50007000000004,
                    "velocity": 0.33070866141732286,
                    "duration": 0.4166670000000039
                },
                {
                    "name": "A2",
                    "midi": 45,
                    "time": 87.91673700000004,
                    "velocity": 0.2755905511811024,
                    "duration": 0.4166670000000039
                },
                {
                    "name": "E3",
                    "midi": 52,
                    "time": 88.33340400000004,
                    "velocity": 0.30708661417322836,
                    "duration": 0.4166669999999897
                },
                {
                    "name": "A3",
                    "midi": 57,
                    "time": 88.75007100000003,
                    "velocity": 0.3464566929133858,
                    "duration": 0.4166670000000039
                },
                {
                    "name": "D3",
                    "midi": 50,
                    "time": 89.16673800000004,
                    "velocity": 0.3228346456692913,
                    "duration": 0.20833349999999484
                },
                {
                    "name": "D2",
                    "midi": 38,
                    "time": 89.58340500000003,
                    "velocity": 0.28346456692913385,
                    "duration": 0.4166670000000039
                },
                {
                    "name": "E2",
                    "midi": 40,
                    "time": 90.00007200000003,
                    "velocity": 0.3228346456692913,
                    "duration": 0.4166670000000039
                },
                {
                    "name": "A2",
                    "midi": 45,
                    "time": 90.41673900000004,
                    "velocity": 0.28346456692913385,
                    "duration": 0.4166670000000039
                },
                {
                    "name": "A3",
                    "midi": 57,
                    "time": 90.83340600000004,
                    "velocity": 0.3228346456692913,
                    "duration": 0.4166670000000039
                },
                {
                    "name": "F#3",
                    "midi": 54,
                    "time": 91.25007300000004,
                    "velocity": 0.4566929133858268,
                    "duration": 1.250001000000026
                },
                {
                    "name": "C#4",
                    "midi": 61,
                    "time": 91.25007300000004,
                    "velocity": 0.5511811023622047,
                    "duration": 0.20833349999999484
                },
                {
                    "name": "C#4",
                    "midi": 61,
                    "time": 91.56257325000004,
                    "velocity": 0.49606299212598426,
                    "duration": 0.10416675000000453
                },
                {
                    "name": "D4",
                    "midi": 62,
                    "time": 91.66674000000005,
                    "velocity": 0.5433070866141733,
                    "duration": 0.31250024999999937
                },
                {
                    "name": "B3",
                    "midi": 59,
                    "time": 92.08340700000005,
                    "velocity": 0.49606299212598426,
                    "duration": 0.3125002500000136
                },
                {
                    "name": "F#3",
                    "midi": 54,
                    "time": 92.50007400000007,
                    "velocity": 0.4330708661417323,
                    "duration": 1.250001000000026
                },
                {
                    "name": "C#4",
                    "midi": 61,
                    "time": 92.50007400000007,
                    "velocity": 0.5196850393700787,
                    "duration": 0.13888900000000604
                },
                {
                    "name": "B3",
                    "midi": 59,
                    "time": 92.63896300000007,
                    "velocity": 0.44881889763779526,
                    "duration": 0.13888900000000604
                },
                {
                    "name": "A3",
                    "midi": 57,
                    "time": 92.77785200000008,
                    "velocity": 0.44881889763779526,
                    "duration": 0.13888900000000604
                },
                {
                    "name": "D4",
                    "midi": 62,
                    "time": 92.91674100000009,
                    "velocity": 0.5196850393700787,
                    "duration": 0.31250024999999937
                },
                {
                    "name": "B3",
                    "midi": 59,
                    "time": 93.33340800000009,
                    "velocity": 0.44881889763779526,
                    "duration": 0.31250024999999937
                },
                {
                    "name": "F#3",
                    "midi": 54,
                    "time": 93.7500750000001,
                    "velocity": 0.4566929133858268,
                    "duration": 1.2500010000000117
                },
                {
                    "name": "C#4",
                    "midi": 61,
                    "time": 93.7500750000001,
                    "velocity": 0.5511811023622047,
                    "duration": 0.20833349999999484
                },
                {
                    "name": "C#4",
                    "midi": 61,
                    "time": 94.0625752500001,
                    "velocity": 0.49606299212598426,
                    "duration": 0.10416675000000453
                },
                {
                    "name": "D4",
                    "midi": 62,
                    "time": 94.1667420000001,
                    "velocity": 0.5433070866141733,
                    "duration": 0.31250024999999937
                },
                {
                    "name": "B3",
                    "midi": 59,
                    "time": 94.5834090000001,
                    "velocity": 0.49606299212598426,
                    "duration": 0.31250024999999937
                },
                {
                    "name": "F#3",
                    "midi": 54,
                    "time": 95.0000760000001,
                    "velocity": 0.4330708661417323,
                    "duration": 0.4166670000000181
                },
                {
                    "name": "C#4",
                    "midi": 61,
                    "time": 95.0000760000001,
                    "velocity": 0.5196850393700787,
                    "duration": 0.13888900000000604
                },
                {
                    "name": "B3",
                    "midi": 59,
                    "time": 95.13896500000011,
                    "velocity": 0.44881889763779526,
                    "duration": 0.13888900000000604
                },
                {
                    "name": "A3",
                    "midi": 57,
                    "time": 95.27785400000012,
                    "velocity": 0.44881889763779526,
                    "duration": 0.13888900000000604
                },
                {
                    "name": "F#2",
                    "midi": 42,
                    "time": 95.41674300000012,
                    "velocity": 0.5905511811023622,
                    "duration": 0.4166670000000039
                },
                {
                    "name": "F#3",
                    "midi": 54,
                    "time": 95.41674300000012,
                    "velocity": 0.5905511811023622,
                    "duration": 0.4166670000000039
                },
                {
                    "name": "F#2",
                    "midi": 42,
                    "time": 95.83341000000013,
                    "velocity": 0.5118110236220472,
                    "duration": 0.4166670000000039
                },
                {
                    "name": "F#3",
                    "midi": 54,
                    "time": 95.83341000000013,
                    "velocity": 0.5118110236220472,
                    "duration": 0.4166670000000039
                },
                {
                    "name": "F#3",
                    "midi": 54,
                    "time": 96.25007700000013,
                    "velocity": 0.4566929133858268,
                    "duration": 1.2500010000000117
                },
                {
                    "name": "C#4",
                    "midi": 61,
                    "time": 96.25007700000013,
                    "velocity": 0.5511811023622047,
                    "duration": 0.20833349999999484
                },
                {
                    "name": "C#4",
                    "midi": 61,
                    "time": 96.56257725000013,
                    "velocity": 0.49606299212598426,
                    "duration": 0.10416675000000453
                },
                {
                    "name": "D4",
                    "midi": 62,
                    "time": 96.66674400000014,
                    "velocity": 0.5433070866141733,
                    "duration": 0.31250024999999937
                },
                {
                    "name": "B3",
                    "midi": 59,
                    "time": 97.08341100000014,
                    "velocity": 0.49606299212598426,
                    "duration": 0.31250024999999937
                },
                {
                    "name": "F#3",
                    "midi": 54,
                    "time": 97.50007800000014,
                    "velocity": 0.4330708661417323,
                    "duration": 1.6666680000000156
                },
                {
                    "name": "C#4",
                    "midi": 61,
                    "time": 97.50007800000014,
                    "velocity": 0.5196850393700787,
                    "duration": 0.13888900000000604
                },
                {
                    "name": "B3",
                    "midi": 59,
                    "time": 97.63896700000015,
                    "velocity": 0.44881889763779526,
                    "duration": 0.13888900000000604
                },
                {
                    "name": "A3",
                    "midi": 57,
                    "time": 97.77785600000016,
                    "velocity": 0.44881889763779526,
                    "duration": 0.13888900000000604
                },
                {
                    "name": "D4",
                    "midi": 62,
                    "time": 97.91674500000016,
                    "velocity": 0.5196850393700787,
                    "duration": 0.31250024999999937
                },
                {
                    "name": "B3",
                    "midi": 59,
                    "time": 98.33341200000017,
                    "velocity": 0.44881889763779526,
                    "duration": 0.31250024999999937
                },
                {
                    "name": "C#4",
                    "midi": 61,
                    "time": 98.75007900000017,
                    "velocity": 0.41732283464566927,
                    "duration": 0.20833349999999484
                },
                {
                    "name": "B3",
                    "midi": 59,
                    "time": 98.95841250000016,
                    "velocity": 0.44881889763779526,
                    "duration": 1.0416674999999884
                },
                {
                    "name": "E3",
                    "midi": 52,
                    "time": 99.16674600000016,
                    "velocity": 0.4015748031496063,
                    "duration": 1.2500009999999833
                },
                {
                    "name": "C#4",
                    "midi": 61,
                    "time": 100.00008000000015,
                    "velocity": 0.41732283464566927,
                    "duration": 0.20833349999999484
                },
                {
                    "name": "B3",
                    "midi": 59,
                    "time": 100.20841350000015,
                    "velocity": 0.44881889763779526,
                    "duration": 1.0416675000000026
                },
                {
                    "name": "E3",
                    "midi": 52,
                    "time": 100.41674700000014,
                    "velocity": 0.4015748031496063,
                    "duration": 0.8333340000000078
                },
                {
                    "name": "A3",
                    "midi": 57,
                    "time": 101.25008100000015,
                    "velocity": 0.3858267716535433,
                    "duration": 0.4166670000000039
                },
                {
                    "name": "D3",
                    "midi": 50,
                    "time": 101.66674800000015,
                    "velocity": 0.31496062992125984,
                    "duration": 0.4166670000000039
                },
                {
                    "name": "D2",
                    "midi": 38,
                    "time": 102.08341500000016,
                    "velocity": 0.31496062992125984,
                    "duration": 0.4166670000000039
                },
                {
                    "name": "E2",
                    "midi": 40,
                    "time": 102.50008200000016,
                    "velocity": 0.3700787401574803,
                    "duration": 0.4166670000000039
                },
                {
                    "name": "A2",
                    "midi": 45,
                    "time": 102.91674900000017,
                    "velocity": 0.30708661417322836,
                    "duration": 0.4166670000000039
                },
                {
                    "name": "E3",
                    "midi": 52,
                    "time": 103.33341600000017,
                    "velocity": 0.3464566929133858,
                    "duration": 0.4166670000000039
                },
                {
                    "name": "A3",
                    "midi": 57,
                    "time": 103.75008300000017,
                    "velocity": 0.3858267716535433,
                    "duration": 0.4166670000000039
                },
                {
                    "name": "D3",
                    "midi": 50,
                    "time": 104.16675000000018,
                    "velocity": 0.36220472440944884,
                    "duration": 0.4166670000000039
                },
                {
                    "name": "D2",
                    "midi": 38,
                    "time": 104.58341700000018,
                    "velocity": 0.31496062992125984,
                    "duration": 0.4166670000000039
                },
                {
                    "name": "E2",
                    "midi": 40,
                    "time": 105.00008400000019,
                    "velocity": 0.36220472440944884,
                    "duration": 0.4166670000000039
                },
                {
                    "name": "A2",
                    "midi": 45,
                    "time": 105.41675100000019,
                    "velocity": 0.31496062992125984,
                    "duration": 0.4166670000000039
                },
                {
                    "name": "E3",
                    "midi": 52,
                    "time": 105.8334180000002,
                    "velocity": 0.36220472440944884,
                    "duration": 0.4166670000000039
                },
                {
                    "name": "A3",
                    "midi": 57,
                    "time": 106.2500850000002,
                    "velocity": 0.3858267716535433,
                    "duration": 0.4166670000000039
                },
                {
                    "name": "D3",
                    "midi": 50,
                    "time": 106.6667520000002,
                    "velocity": 0.31496062992125984,
                    "duration": 0.4166670000000039
                },
                {
                    "name": "D2",
                    "midi": 38,
                    "time": 107.0834190000002,
                    "velocity": 0.31496062992125984,
                    "duration": 0.4166670000000039
                },
                {
                    "name": "E2",
                    "midi": 40,
                    "time": 107.50008600000021,
                    "velocity": 0.3700787401574803,
                    "duration": 0.4166670000000039
                },
                {
                    "name": "A2",
                    "midi": 45,
                    "time": 107.91675300000021,
                    "velocity": 0.30708661417322836,
                    "duration": 0.4166670000000039
                },
                {
                    "name": "E3",
                    "midi": 52,
                    "time": 108.33342000000022,
                    "velocity": 0.3464566929133858,
                    "duration": 0.4166669999999897
                },
                {
                    "name": "A3",
                    "midi": 57,
                    "time": 108.7500870000002,
                    "velocity": 0.3858267716535433,
                    "duration": 0.4166670000000039
                },
                {
                    "name": "D3",
                    "midi": 50,
                    "time": 109.16675400000021,
                    "velocity": 0.36220472440944884,
                    "duration": 0.4166670000000039
                },
                {
                    "name": "D2",
                    "midi": 38,
                    "time": 109.58342100000021,
                    "velocity": 0.31496062992125984,
                    "duration": 0.4166670000000039
                },
                {
                    "name": "E2",
                    "midi": 40,
                    "time": 110.00008800000022,
                    "velocity": 0.36220472440944884,
                    "duration": 0.4166670000000039
                },
                {
                    "name": "A2",
                    "midi": 45,
                    "time": 110.41675500000022,
                    "velocity": 0.31496062992125984,
                    "duration": 0.4166670000000039
                },
                {
                    "name": "A3",
                    "midi": 57,
                    "time": 110.83342200000023,
                    "velocity": 0.36220472440944884,
                    "duration": 0.4166670000000039
                },
                {
                    "name": "F#3",
                    "midi": 54,
                    "time": 111.25008900000023,
                    "velocity": 0.4566929133858268,
                    "duration": 1.2500010000000117
                },
                {
                    "name": "C#4",
                    "midi": 61,
                    "time": 111.25008900000023,
                    "velocity": 0.5511811023622047,
                    "duration": 0.20833349999999484
                },
                {
                    "name": "C#4",
                    "midi": 61,
                    "time": 111.56258925000023,
                    "velocity": 0.49606299212598426,
                    "duration": 0.10416675000000453
                },
                {
                    "name": "D4",
                    "midi": 62,
                    "time": 111.66675600000023,
                    "velocity": 0.5433070866141733,
                    "duration": 0.31250024999999937
                },
                {
                    "name": "B3",
                    "midi": 59,
                    "time": 112.08342300000024,
                    "velocity": 0.49606299212598426,
                    "duration": 0.31250024999999937
                },
                {
                    "name": "F#3",
                    "midi": 54,
                    "time": 112.50009000000024,
                    "velocity": 0.4330708661417323,
                    "duration": 1.250001000000026
                },
                {
                    "name": "C#4",
                    "midi": 61,
                    "time": 112.50009000000024,
                    "velocity": 0.5196850393700787,
                    "duration": 0.13888900000000604
                },
                {
                    "name": "B3",
                    "midi": 59,
                    "time": 112.63897900000025,
                    "velocity": 0.44881889763779526,
                    "duration": 0.13888900000000604
                },
                {
                    "name": "A3",
                    "midi": 57,
                    "time": 112.77786800000025,
                    "velocity": 0.44881889763779526,
                    "duration": 0.13888900000000604
                },
                {
                    "name": "D4",
                    "midi": 62,
                    "time": 112.91675700000026,
                    "velocity": 0.5196850393700787,
                    "duration": 0.31250024999999937
                },
                {
                    "name": "B3",
                    "midi": 59,
                    "time": 113.33342400000026,
                    "velocity": 0.44881889763779526,
                    "duration": 0.31250024999999937
                },
                {
                    "name": "F#3",
                    "midi": 54,
                    "time": 113.75009100000027,
                    "velocity": 0.4566929133858268,
                    "duration": 1.2500010000000117
                },
                {
                    "name": "C#4",
                    "midi": 61,
                    "time": 113.75009100000027,
                    "velocity": 0.5511811023622047,
                    "duration": 0.20833349999999484
                },
                {
                    "name": "C#4",
                    "midi": 61,
                    "time": 114.06259125000027,
                    "velocity": 0.49606299212598426,
                    "duration": 0.10416675000000453
                },
                {
                    "name": "D4",
                    "midi": 62,
                    "time": 114.16675800000027,
                    "velocity": 0.5433070866141733,
                    "duration": 0.31250024999999937
                },
                {
                    "name": "B3",
                    "midi": 59,
                    "time": 114.58342500000028,
                    "velocity": 0.49606299212598426,
                    "duration": 0.31250024999999937
                },
                {
                    "name": "F#3",
                    "midi": 54,
                    "time": 115.00009200000028,
                    "velocity": 0.4330708661417323,
                    "duration": 0.4166670000000181
                },
                {
                    "name": "C#4",
                    "midi": 61,
                    "time": 115.00009200000028,
                    "velocity": 0.5196850393700787,
                    "duration": 0.13888900000000604
                },
                {
                    "name": "B3",
                    "midi": 59,
                    "time": 115.13898100000029,
                    "velocity": 0.44881889763779526,
                    "duration": 0.13888900000000604
                },
                {
                    "name": "A3",
                    "midi": 57,
                    "time": 115.27787000000029,
                    "velocity": 0.44881889763779526,
                    "duration": 0.13888900000000604
                },
                {
                    "name": "F#2",
                    "midi": 42,
                    "time": 115.4167590000003,
                    "velocity": 0.5905511811023622,
                    "duration": 0.4166670000000039
                },
                {
                    "name": "F#3",
                    "midi": 54,
                    "time": 115.4167590000003,
                    "velocity": 0.5905511811023622,
                    "duration": 0.4166670000000039
                },
                {
                    "name": "F#2",
                    "midi": 42,
                    "time": 115.8334260000003,
                    "velocity": 0.5118110236220472,
                    "duration": 0.4166670000000039
                },
                {
                    "name": "F#3",
                    "midi": 54,
                    "time": 115.8334260000003,
                    "velocity": 0.5118110236220472,
                    "duration": 0.4166670000000039
                },
                {
                    "name": "F#3",
                    "midi": 54,
                    "time": 116.2500930000003,
                    "velocity": 0.4566929133858268,
                    "duration": 1.2500010000000117
                },
                {
                    "name": "C#4",
                    "midi": 61,
                    "time": 116.2500930000003,
                    "velocity": 0.5511811023622047,
                    "duration": 0.20833349999999484
                },
                {
                    "name": "C#4",
                    "midi": 61,
                    "time": 116.5625932500003,
                    "velocity": 0.49606299212598426,
                    "duration": 0.10416675000000453
                },
                {
                    "name": "D4",
                    "midi": 62,
                    "time": 116.66676000000031,
                    "velocity": 0.5433070866141733,
                    "duration": 0.31250024999999937
                },
                {
                    "name": "B3",
                    "midi": 59,
                    "time": 117.08342700000031,
                    "velocity": 0.49606299212598426,
                    "duration": 0.31250024999999937
                },
                {
                    "name": "F#3",
                    "midi": 54,
                    "time": 117.50009400000032,
                    "velocity": 0.4330708661417323,
                    "duration": 1.6666680000000156
                },
                {
                    "name": "C#4",
                    "midi": 61,
                    "time": 117.50009400000032,
                    "velocity": 0.5196850393700787,
                    "duration": 0.13888900000000604
                },
                {
                    "name": "B3",
                    "midi": 59,
                    "time": 117.63898300000032,
                    "velocity": 0.44881889763779526,
                    "duration": 0.13888900000000604
                },
                {
                    "name": "A3",
                    "midi": 57,
                    "time": 117.77787200000033,
                    "velocity": 0.44881889763779526,
                    "duration": 0.13888900000000604
                },
                {
                    "name": "D4",
                    "midi": 62,
                    "time": 117.91676100000034,
                    "velocity": 0.5196850393700787,
                    "duration": 0.31250024999999937
                },
                {
                    "name": "B3",
                    "midi": 59,
                    "time": 118.33342800000034,
                    "velocity": 0.44881889763779526,
                    "duration": 0.31250024999999937
                },
                {
                    "name": "C#4",
                    "midi": 61,
                    "time": 118.75009500000034,
                    "velocity": 0.41732283464566927,
                    "duration": 0.20833349999999484
                },
                {
                    "name": "B3",
                    "midi": 59,
                    "time": 118.95842850000034,
                    "velocity": 0.44881889763779526,
                    "duration": 1.0416674999999884
                },
                {
                    "name": "E3",
                    "midi": 52,
                    "time": 119.16676200000033,
                    "velocity": 0.4015748031496063,
                    "duration": 1.2500009999999833
                },
                {
                    "name": "C#4",
                    "midi": 61,
                    "time": 120.00009600000033,
                    "velocity": 0.41732283464566927,
                    "duration": 0.20833349999999484
                },
                {
                    "name": "B3",
                    "midi": 59,
                    "time": 120.20842950000032,
                    "velocity": 0.44881889763779526,
                    "duration": 1.0416674999999884
                },
                {
                    "name": "E3",
                    "midi": 52,
                    "time": 120.41676300000032,
                    "velocity": 0.4015748031496063,
                    "duration": 0.8333339999999936
                },
                {
                    "name": "A3",
                    "midi": 57,
                    "time": 121.25009700000031,
                    "velocity": 0.3858267716535433,
                    "duration": 0.4166669999999897
                },
                {
                    "name": "D3",
                    "midi": 50,
                    "time": 121.6667640000003,
                    "velocity": 0.31496062992125984,
                    "duration": 0.4166670000000039
                },
                {
                    "name": "D2",
                    "midi": 38,
                    "time": 122.0834310000003,
                    "velocity": 0.31496062992125984,
                    "duration": 0.4166670000000039
                },
                {
                    "name": "E2",
                    "midi": 40,
                    "time": 122.5000980000003,
                    "velocity": 0.3700787401574803,
                    "duration": 0.4166670000000039
                },
                {
                    "name": "A2",
                    "midi": 45,
                    "time": 122.91676500000031,
                    "velocity": 0.30708661417322836,
                    "duration": 0.4166669999999897
                },
                {
                    "name": "E3",
                    "midi": 52,
                    "time": 123.3334320000003,
                    "velocity": 0.3464566929133858,
                    "duration": 0.4166670000000039
                },
                {
                    "name": "A3",
                    "midi": 57,
                    "time": 123.7500990000003,
                    "velocity": 0.3858267716535433,
                    "duration": 0.4166670000000039
                },
                {
                    "name": "D3",
                    "midi": 50,
                    "time": 124.16676600000031,
                    "velocity": 0.36220472440944884,
                    "duration": 0.4166670000000039
                },
                {
                    "name": "D2",
                    "midi": 38,
                    "time": 124.58343300000031,
                    "velocity": 0.31496062992125984,
                    "duration": 0.4166670000000039
                },
                {
                    "name": "E2",
                    "midi": 40,
                    "time": 125.00010000000032,
                    "velocity": 0.36220472440944884,
                    "duration": 0.4166670000000039
                },
                {
                    "name": "A2",
                    "midi": 45,
                    "time": 125.41676700000032,
                    "velocity": 0.31496062992125984,
                    "duration": 0.4166670000000039
                },
                {
                    "name": "E3",
                    "midi": 52,
                    "time": 125.83343400000032,
                    "velocity": 0.36220472440944884,
                    "duration": 0.4166670000000039
                },
                {
                    "name": "A3",
                    "midi": 57,
                    "time": 126.25010100000033,
                    "velocity": 0.3858267716535433,
                    "duration": 0.4166670000000039
                },
                {
                    "name": "D3",
                    "midi": 50,
                    "time": 126.66676800000033,
                    "velocity": 0.31496062992125984,
                    "duration": 0.4166670000000039
                },
                {
                    "name": "D2",
                    "midi": 38,
                    "time": 127.08343500000034,
                    "velocity": 0.31496062992125984,
                    "duration": 0.4166670000000039
                },
                {
                    "name": "E2",
                    "midi": 40,
                    "time": 127.50010200000034,
                    "velocity": 0.3700787401574803,
                    "duration": 0.4166670000000039
                },
                {
                    "name": "A2",
                    "midi": 45,
                    "time": 127.91676900000034,
                    "velocity": 0.30708661417322836,
                    "duration": 0.4166670000000039
                },
                {
                    "name": "E3",
                    "midi": 52,
                    "time": 128.33343600000035,
                    "velocity": 0.3464566929133858,
                    "duration": 0.4166669999999897
                },
                {
                    "name": "A3",
                    "midi": 57,
                    "time": 128.75010300000034,
                    "velocity": 0.3858267716535433,
                    "duration": 0.4166669999999897
                },
                {
                    "name": "D3",
                    "midi": 50,
                    "time": 129.16677000000033,
                    "velocity": 0.36220472440944884,
                    "duration": 0.4166669999999897
                },
                {
                    "name": "D2",
                    "midi": 38,
                    "time": 129.58343700000032,
                    "velocity": 0.31496062992125984,
                    "duration": 0.4166669999999897
                },
                {
                    "name": "E2",
                    "midi": 40,
                    "time": 130.0001040000003,
                    "velocity": 0.36220472440944884,
                    "duration": 0.4166669999999897
                },
                {
                    "name": "A1",
                    "midi": 33,
                    "time": 130.4167710000003,
                    "velocity": 0.2677165354330709,
                    "duration": 0.4166670000000181
                },
                {
                    "name": "A2",
                    "midi": 45,
                    "time": 130.4167710000003,
                    "velocity": 0.31496062992125984,
                    "duration": 0.4166670000000181
                },
                {
                    "name": "F4",
                    "midi": 65,
                    "time": 131.66677200000032,
                    "velocity": 0.2125984251968504,
                    "duration": 0.4166669999999897
                },
                {
                    "name": "D4",
                    "midi": 62,
                    "time": 131.66677200000032,
                    "velocity": 0.1732283464566929,
                    "duration": 0.4166669999999897
                },
                {
                    "name": "A3",
                    "midi": 57,
                    "time": 131.66677200000032,
                    "velocity": 0.1732283464566929,
                    "duration": 0.4166669999999897
                },
                {
                    "name": "F4",
                    "midi": 65,
                    "time": 132.0834390000003,
                    "velocity": 0.2125984251968504,
                    "duration": 0.4166669999999897
                },
                {
                    "name": "D4",
                    "midi": 62,
                    "time": 132.0834390000003,
                    "velocity": 0.1732283464566929,
                    "duration": 0.4166669999999897
                },
                {
                    "name": "A3",
                    "midi": 57,
                    "time": 132.0834390000003,
                    "velocity": 0.1732283464566929,
                    "duration": 0.4166669999999897
                },
                {
                    "name": "F4",
                    "midi": 65,
                    "time": 132.9167730000003,
                    "velocity": 0.1968503937007874,
                    "duration": 0.4166669999999897
                },
                {
                    "name": "C4",
                    "midi": 60,
                    "time": 132.9167730000003,
                    "velocity": 0.16535433070866143,
                    "duration": 0.4166669999999897
                },
                {
                    "name": "A3",
                    "midi": 57,
                    "time": 132.9167730000003,
                    "velocity": 0.16535433070866143,
                    "duration": 0.4166669999999897
                },
                {
                    "name": "E4",
                    "midi": 64,
                    "time": 133.33344000000028,
                    "velocity": 0.1968503937007874,
                    "duration": 0.4166670000000181
                },
                {
                    "name": "C4",
                    "midi": 60,
                    "time": 133.33344000000028,
                    "velocity": 0.16535433070866143,
                    "duration": 0.4166670000000181
                },
                {
                    "name": "A3",
                    "midi": 57,
                    "time": 133.33344000000028,
                    "velocity": 0.16535433070866143,
                    "duration": 0.4166670000000181
                },
                {
                    "name": "D4",
                    "midi": 62,
                    "time": 134.1667740000003,
                    "velocity": 0.2204724409448819,
                    "duration": 0.4166669999999897
                },
                {
                    "name": "E3",
                    "midi": 52,
                    "time": 134.1667740000003,
                    "velocity": 0.18110236220472442,
                    "duration": 0.4166669999999897
                },
                {
                    "name": "G#3",
                    "midi": 56,
                    "time": 134.1667740000003,
                    "velocity": 0.18110236220472442,
                    "duration": 0.4166669999999897
                },
                {
                    "name": "D4",
                    "midi": 62,
                    "time": 134.58344100000028,
                    "velocity": 0.1968503937007874,
                    "duration": 0.4166669999999897
                },
                {
                    "name": "G#3",
                    "midi": 56,
                    "time": 134.58344100000028,
                    "velocity": 0.16535433070866143,
                    "duration": 0.4166669999999897
                },
                {
                    "name": "E3",
                    "midi": 52,
                    "time": 134.58344100000028,
                    "velocity": 0.16535433070866143,
                    "duration": 0.4166669999999897
                },
                {
                    "name": "A2",
                    "midi": 45,
                    "time": 135.41677500000026,
                    "velocity": 0.23622047244094488,
                    "duration": 0.4166669999999897
                },
                {
                    "name": "C4",
                    "midi": 60,
                    "time": 135.83344200000025,
                    "velocity": 0.2204724409448819,
                    "duration": 0.4166669999999897
                },
                {
                    "name": "E3",
                    "midi": 52,
                    "time": 135.83344200000025,
                    "velocity": 0.1732283464566929,
                    "duration": 0.4166669999999897
                },
                {
                    "name": "E3",
                    "midi": 52,
                    "time": 136.66677600000023,
                    "velocity": 0.30708661417322836,
                    "duration": 0.20833349999998063
                },
                {
                    "name": "C4",
                    "midi": 60,
                    "time": 136.66677600000023,
                    "velocity": 0.36220472440944884,
                    "duration": 0.20833349999998063
                },
                {
                    "name": "A2",
                    "midi": 45,
                    "time": 137.08344300000022,
                    "velocity": 0.3779527559055118,
                    "duration": 0.20833350000000905
                },
                {
                    "name": "E3",
                    "midi": 52,
                    "time": 137.91677700000022,
                    "velocity": 0.3228346456692913,
                    "duration": 0.4166670000000181
                },
                {
                    "name": "B3",
                    "midi": 59,
                    "time": 137.91677700000022,
                    "velocity": 0.3858267716535433,
                    "duration": 0.4166670000000181
                },
                {
                    "name": "G3",
                    "midi": 55,
                    "time": 137.91677700000022,
                    "velocity": 0.3228346456692913,
                    "duration": 0.4166670000000181
                },
                {
                    "name": "B2",
                    "midi": 47,
                    "time": 138.33344400000024,
                    "velocity": 0.4409448818897638,
                    "duration": 0.4166669999999897
                },
                {
                    "name": "B2",
                    "midi": 47,
                    "time": 139.16677800000022,
                    "velocity": 0.3543307086614173,
                    "duration": 0.4166669999999897
                },
                {
                    "name": "G3",
                    "midi": 55,
                    "time": 139.16677800000022,
                    "velocity": 0.3543307086614173,
                    "duration": 0.4166669999999897
                },
                {
                    "name": "B3",
                    "midi": 59,
                    "time": 139.16677800000022,
                    "velocity": 0.4251968503937008,
                    "duration": 0.4166669999999897
                },
                {
                    "name": "B2",
                    "midi": 47,
                    "time": 139.5834450000002,
                    "velocity": 0.3228346456692913,
                    "duration": 0.4166669999999897
                },
                {
                    "name": "F#3",
                    "midi": 54,
                    "time": 139.5834450000002,
                    "velocity": 0.3228346456692913,
                    "duration": 0.4166669999999897
                },
                {
                    "name": "B3",
                    "midi": 59,
                    "time": 139.5834450000002,
                    "velocity": 0.3858267716535433,
                    "duration": 0.4166669999999897
                },
                {
                    "name": "E3",
                    "midi": 52,
                    "time": 140.0001120000002,
                    "velocity": 0.3543307086614173,
                    "duration": 0.4166670000000181
                },
                {
                    "name": "G3",
                    "midi": 55,
                    "time": 140.0001120000002,
                    "velocity": 0.3543307086614173,
                    "duration": 0.4166670000000181
                },
                {
                    "name": "B3",
                    "midi": 59,
                    "time": 140.0001120000002,
                    "velocity": 0.4251968503937008,
                    "duration": 0.4166670000000181
                },
                {
                    "name": "E2",
                    "midi": 40,
                    "time": 140.41677900000022,
                    "velocity": 0.3937007874015748,
                    "duration": 0.4166669999999897
                },
                {
                    "name": "F4",
                    "midi": 65,
                    "time": 141.66678000000022,
                    "velocity": 0.2125984251968504,
                    "duration": 0.4166669999999897
                },
                {
                    "name": "D4",
                    "midi": 62,
                    "time": 141.66678000000022,
                    "velocity": 0.1732283464566929,
                    "duration": 0.4166669999999897
                },
                {
                    "name": "A3",
                    "midi": 57,
                    "time": 141.66678000000022,
                    "velocity": 0.1732283464566929,
                    "duration": 0.4166669999999897
                },
                {
                    "name": "F4",
                    "midi": 65,
                    "time": 142.0834470000002,
                    "velocity": 0.2125984251968504,
                    "duration": 0.4166669999999897
                },
                {
                    "name": "D4",
                    "midi": 62,
                    "time": 142.0834470000002,
                    "velocity": 0.1732283464566929,
                    "duration": 0.4166669999999897
                },
                {
                    "name": "A3",
                    "midi": 57,
                    "time": 142.0834470000002,
                    "velocity": 0.1732283464566929,
                    "duration": 0.4166669999999897
                },
                {
                    "name": "F4",
                    "midi": 65,
                    "time": 142.91678100000019,
                    "velocity": 0.1968503937007874,
                    "duration": 0.4166669999999897
                },
                {
                    "name": "C4",
                    "midi": 60,
                    "time": 142.91678100000019,
                    "velocity": 0.16535433070866143,
                    "duration": 0.4166669999999897
                },
                {
                    "name": "A3",
                    "midi": 57,
                    "time": 142.91678100000019,
                    "velocity": 0.16535433070866143,
                    "duration": 0.4166669999999897
                },
                {
                    "name": "E4",
                    "midi": 64,
                    "time": 143.33344800000017,
                    "velocity": 0.1968503937007874,
                    "duration": 0.4166670000000181
                },
                {
                    "name": "C4",
                    "midi": 60,
                    "time": 143.33344800000017,
                    "velocity": 0.16535433070866143,
                    "duration": 0.4166670000000181
                },
                {
                    "name": "A3",
                    "midi": 57,
                    "time": 143.33344800000017,
                    "velocity": 0.16535433070866143,
                    "duration": 0.4166670000000181
                },
                {
                    "name": "D4",
                    "midi": 62,
                    "time": 144.16678200000018,
                    "velocity": 0.2204724409448819,
                    "duration": 0.4166669999999897
                },
                {
                    "name": "E3",
                    "midi": 52,
                    "time": 144.16678200000018,
                    "velocity": 0.18110236220472442,
                    "duration": 0.4166669999999897
                },
                {
                    "name": "G#3",
                    "midi": 56,
                    "time": 144.16678200000018,
                    "velocity": 0.18110236220472442,
                    "duration": 0.4166669999999897
                },
                {
                    "name": "D4",
                    "midi": 62,
                    "time": 144.58344900000017,
                    "velocity": 0.1968503937007874,
                    "duration": 0.4166669999999897
                },
                {
                    "name": "G#3",
                    "midi": 56,
                    "time": 144.58344900000017,
                    "velocity": 0.16535433070866143,
                    "duration": 0.4166669999999897
                },
                {
                    "name": "E3",
                    "midi": 52,
                    "time": 144.58344900000017,
                    "velocity": 0.16535433070866143,
                    "duration": 0.4166669999999897
                },
                {
                    "name": "F3",
                    "midi": 53,
                    "time": 145.41678300000015,
                    "velocity": 0.16535433070866143,
                    "duration": 0.4166669999999897
                },
                {
                    "name": "A3",
                    "midi": 57,
                    "time": 145.41678300000015,
                    "velocity": 0.16535433070866143,
                    "duration": 0.4166669999999897
                },
                {
                    "name": "D4",
                    "midi": 62,
                    "time": 145.41678300000015,
                    "velocity": 0.2204724409448819,
                    "duration": 0.4166669999999897
                },
                {
                    "name": "A3",
                    "midi": 57,
                    "time": 145.83345000000014,
                    "velocity": 0.16535433070866143,
                    "duration": 0.4166669999999897
                },
                {
                    "name": "C4",
                    "midi": 60,
                    "time": 145.83345000000014,
                    "velocity": 0.2047244094488189,
                    "duration": 0.4166669999999897
                },
                {
                    "name": "F3",
                    "midi": 53,
                    "time": 145.83345000000014,
                    "velocity": 0.16535433070866143,
                    "duration": 0.4166669999999897
                },
                {
                    "name": "C4",
                    "midi": 60,
                    "time": 146.66678400000012,
                    "velocity": 0.2047244094488189,
                    "duration": 0.4166669999999897
                },
                {
                    "name": "F3",
                    "midi": 53,
                    "time": 146.66678400000012,
                    "velocity": 0.2047244094488189,
                    "duration": 0.4166669999999897
                },
                {
                    "name": "D#4",
                    "midi": 63,
                    "time": 146.66678400000012,
                    "velocity": 0.23622047244094488,
                    "duration": 0.4166669999999897
                },
                {
                    "name": "F3",
                    "midi": 53,
                    "time": 147.0834510000001,
                    "velocity": 0.2047244094488189,
                    "duration": 0.4166669999999897
                },
                {
                    "name": "C4",
                    "midi": 60,
                    "time": 147.0834510000001,
                    "velocity": 0.2047244094488189,
                    "duration": 0.4166669999999897
                },
                {
                    "name": "D#4",
                    "midi": 63,
                    "time": 147.0834510000001,
                    "velocity": 0.23622047244094488,
                    "duration": 0.4166669999999897
                },
                {
                    "name": "A#3",
                    "midi": 58,
                    "time": 147.5001180000001,
                    "velocity": 0.23622047244094488,
                    "duration": 0.8333340000000078
                },
                {
                    "name": "D4",
                    "midi": 62,
                    "time": 147.5001180000001,
                    "velocity": 0.25984251968503935,
                    "duration": 0.4166670000000181
                },
                {
                    "name": "F4",
                    "midi": 65,
                    "time": 147.91678500000012,
                    "velocity": 0.25984251968503935,
                    "duration": 0.4166669999999897
                },
                {
                    "name": "E3",
                    "midi": 52,
                    "time": 149.16678600000012,
                    "velocity": 0.1889763779527559,
                    "duration": 0.4166670000000181
                },
                {
                    "name": "B3",
                    "midi": 59,
                    "time": 149.16678600000012,
                    "velocity": 0.2283464566929134,
                    "duration": 0.4166670000000181
                },
                {
                    "name": "E3",
                    "midi": 52,
                    "time": 149.58345300000013,
                    "velocity": 0.1732283464566929,
                    "duration": 0.4166669999999897
                },
                {
                    "name": "B3",
                    "midi": 59,
                    "time": 149.58345300000013,
                    "velocity": 0.2047244094488189,
                    "duration": 0.4166669999999897
                },
                {
                    "name": "A2",
                    "midi": 45,
                    "time": 150.00012000000012,
                    "velocity": 0.1889763779527559,
                    "duration": 0.4166670000000181
                },
                {
                    "name": "E3",
                    "midi": 52,
                    "time": 150.00012000000012,
                    "velocity": 0.2283464566929134,
                    "duration": 0.4166670000000181
                },
                {
                    "name": "A1",
                    "midi": 33,
                    "time": 150.41678700000014,
                    "velocity": 0.1968503937007874,
                    "duration": 0.4166669999999897
                }
            ],
            "controlChanges": {
                "7": [
                    {
                        "number": 7,
                        "time": 0,
                        "value": 0.7874015748031497
                    }
                ],
                "10": [
                    {
                        "number": 10,
                        "time": 0,
                        "value": 0.5039370078740157
                    }
                ],
                "64": [
                    {
                        "number": 64,
                        "time": 0,
                        "value": 0
                    },
                    {
                        "number": 64,
                        "time": 1.7222236,
                        "value": 1
                    },
                    {
                        "number": 64,
                        "time": 2.50694645,
                        "value": 0
                    },
                    {
                        "number": 64,
                        "time": 2.7552105375,
                        "value": 1
                    },
                    {
                        "number": 64,
                        "time": 3.34114850625,
                        "value": 0
                    },
                    {
                        "number": 64,
                        "time": 5.486115500000001,
                        "value": 1
                    },
                    {
                        "number": 64,
                        "time": 6.251741112500001,
                        "value": 0
                    },
                    {
                        "number": 64,
                        "time": 6.329866175000001,
                        "value": 1
                    },
                    {
                        "number": 64,
                        "time": 6.673616450000001,
                        "value": 0
                    },
                    {
                        "number": 64,
                        "time": 8.026916143750002,
                        "value": 1
                    },
                    {
                        "number": 64,
                        "time": 8.756951450000003,
                        "value": 0
                    },
                    {
                        "number": 64,
                        "time": 8.885423775000003,
                        "value": 1
                    },
                    {
                        "number": 64,
                        "time": 9.592021562500005,
                        "value": 0
                    },
                    {
                        "number": 64,
                        "time": 9.705736931250005,
                        "value": 1
                    },
                    {
                        "number": 64,
                        "time": 10.010424675000005,
                        "value": 0
                    },
                    {
                        "number": 64,
                        "time": 10.162334518750004,
                        "value": 1
                    },
                    {
                        "number": 64,
                        "time": 10.848967012500005,
                        "value": 0
                    },
                    {
                        "number": 64,
                        "time": 11.722231600000004,
                        "value": 1
                    },
                    {
                        "number": 64,
                        "time": 12.500010000000005,
                        "value": 0
                    },
                    {
                        "number": 64,
                        "time": 12.777788000000005,
                        "value": 1
                    },
                    {
                        "number": 64,
                        "time": 13.348969012500005,
                        "value": 0
                    },
                    {
                        "number": 64,
                        "time": 15.486123500000005,
                        "value": 1
                    },
                    {
                        "number": 64,
                        "time": 16.256957450000005,
                        "value": 0
                    },
                    {
                        "number": 64,
                        "time": 16.329874175000004,
                        "value": 1
                    },
                    {
                        "number": 64,
                        "time": 16.673624450000002,
                        "value": 0
                    },
                    {
                        "number": 64,
                        "time": 17.638903000000003,
                        "value": 1
                    },
                    {
                        "number": 64,
                        "time": 18.351577181250004,
                        "value": 0
                    },
                    {
                        "number": 64,
                        "time": 18.811646993750003,
                        "value": 1
                    },
                    {
                        "number": 64,
                        "time": 19.177098675,
                        "value": 0
                    },
                    {
                        "number": 64,
                        "time": 19.23178621875,
                        "value": 1
                    },
                    {
                        "number": 64,
                        "time": 19.5920295625,
                        "value": 0
                    },
                    {
                        "number": 64,
                        "time": 19.70574493125,
                        "value": 1
                    },
                    {
                        "number": 64,
                        "time": 20.0052243375,
                        "value": 0
                    },
                    {
                        "number": 64,
                        "time": 20.23178701875,
                        "value": 1
                    },
                    {
                        "number": 64,
                        "time": 20.839426393750003,
                        "value": 0
                    },
                    {
                        "number": 64,
                        "time": 21.746545175000005,
                        "value": 1
                    },
                    {
                        "number": 64,
                        "time": 22.504358281250003,
                        "value": 0
                    },
                    {
                        "number": 64,
                        "time": 22.801233518750003,
                        "value": 1
                    },
                    {
                        "number": 64,
                        "time": 23.33942839375,
                        "value": 0
                    },
                    {
                        "number": 64,
                        "time": 25.486131500000003,
                        "value": 1
                    },
                    {
                        "number": 64,
                        "time": 26.256097393750004,
                        "value": 0
                    },
                    {
                        "number": 64,
                        "time": 26.329882175000005,
                        "value": 1
                    },
                    {
                        "number": 64,
                        "time": 26.674500506250006,
                        "value": 0
                    },
                    {
                        "number": 64,
                        "time": 28.026932143750003,
                        "value": 1
                    },
                    {
                        "number": 64,
                        "time": 28.75436328125,
                        "value": 0
                    },
                    {
                        "number": 64,
                        "time": 28.885439775000002,
                        "value": 1
                    },
                    {
                        "number": 64,
                        "time": 29.592905618750002,
                        "value": 0
                    },
                    {
                        "number": 64,
                        "time": 29.705752931250004,
                        "value": 1
                    },
                    {
                        "number": 64,
                        "time": 30.006968450000002,
                        "value": 0
                    },
                    {
                        "number": 64,
                        "time": 30.255232537500003,
                        "value": 1
                    },
                    {
                        "number": 64,
                        "time": 30.845510787500004,
                        "value": 0
                    },
                    {
                        "number": 64,
                        "time": 31.746553175000006,
                        "value": 1
                    },
                    {
                        "number": 64,
                        "time": 32.5087065625,
                        "value": 0
                    },
                    {
                        "number": 64,
                        "time": 32.73179701875,
                        "value": 1
                    },
                    {
                        "number": 64,
                        "time": 33.342040562499996,
                        "value": 0
                    },
                    {
                        "number": 64,
                        "time": 35.486139499999986,
                        "value": 1
                    },
                    {
                        "number": 64,
                        "time": 36.25697344999998,
                        "value": 0
                    },
                    {
                        "number": 64,
                        "time": 36.32989017499998,
                        "value": 1
                    },
                    {
                        "number": 64,
                        "time": 36.68145295624998,
                        "value": 0
                    },
                    {
                        "number": 64,
                        "time": 37.63891899999997,
                        "value": 1
                    },
                    {
                        "number": 64,
                        "time": 38.347252899999965,
                        "value": 0
                    },
                    {
                        "number": 64,
                        "time": 38.81166299374996,
                        "value": 1
                    },
                    {
                        "number": 64,
                        "time": 39.17711467499996,
                        "value": 0
                    },
                    {
                        "number": 64,
                        "time": 39.25610779374996,
                        "value": 1
                    },
                    {
                        "number": 64,
                        "time": 39.58683722499997,
                        "value": 0
                    },
                    {
                        "number": 64,
                        "time": 39.70576093124997,
                        "value": 1
                    },
                    {
                        "number": 64,
                        "time": 40.014788956249966,
                        "value": 0
                    },
                    {
                        "number": 64,
                        "time": 40.16235851874997,
                        "value": 1
                    },
                    {
                        "number": 64,
                        "time": 40.84551878749996,
                        "value": 0
                    },
                    {
                        "number": 64,
                        "time": 41.75871396249996,
                        "value": 1
                    },
                    {
                        "number": 64,
                        "time": 42.50611039374996,
                        "value": 0
                    },
                    {
                        "number": 64,
                        "time": 42.698818881249956,
                        "value": 1
                    },
                    {
                        "number": 64,
                        "time": 43.33684022499995,
                        "value": 0
                    },
                    {
                        "number": 64,
                        "time": 44.25871596249995,
                        "value": 1
                    },
                    {
                        "number": 64,
                        "time": 45.006112393749945,
                        "value": 0
                    },
                    {
                        "number": 64,
                        "time": 45.172779193749946,
                        "value": 1
                    },
                    {
                        "number": 64,
                        "time": 45.84205056249994,
                        "value": 0
                    },
                    {
                        "number": 64,
                        "time": 46.36896070624994,
                        "value": 1
                    },
                    {
                        "number": 64,
                        "time": 47.093787674999945,
                        "value": 0
                    },
                    {
                        "number": 64,
                        "time": 47.61896170624995,
                        "value": 1
                    },
                    {
                        "number": 64,
                        "time": 48.34292061874995,
                        "value": 0
                    },
                    {
                        "number": 64,
                        "time": 48.96878917499995,
                        "value": 1
                    },
                    {
                        "number": 64,
                        "time": 49.590317449999944,
                        "value": 0
                    },
                    {
                        "number": 64,
                        "time": 50.11896370624994,
                        "value": 1
                    },
                    {
                        "number": 64,
                        "time": 50.83597816874994,
                        "value": 0
                    },
                    {
                        "number": 64,
                        "time": 51.83858313749994,
                        "value": 1
                    },
                    {
                        "number": 64,
                        "time": 52.50525033749994,
                        "value": 0
                    },
                    {
                        "number": 64,
                        "time": 52.75525053749994,
                        "value": 1
                    },
                    {
                        "number": 64,
                        "time": 53.342056562499934,
                        "value": 0
                    },
                    {
                        "number": 64,
                        "time": 55.486155499999924,
                        "value": 1
                    },
                    {
                        "number": 64,
                        "time": 56.25525333749992,
                        "value": 0
                    },
                    {
                        "number": 64,
                        "time": 56.32990617499992,
                        "value": 1
                    },
                    {
                        "number": 64,
                        "time": 56.67626061874992,
                        "value": 0
                    },
                    {
                        "number": 64,
                        "time": 57.63893499999992,
                        "value": 1
                    },
                    {
                        "number": 64,
                        "time": 58.344664731249914,
                        "value": 0
                    },
                    {
                        "number": 64,
                        "time": 58.811678993749915,
                        "value": 1
                    },
                    {
                        "number": 64,
                        "time": 59.17539456249991,
                        "value": 0
                    },
                    {
                        "number": 64,
                        "time": 59.26654046874991,
                        "value": 1
                    },
                    {
                        "number": 64,
                        "time": 59.59206156249991,
                        "value": 0
                    },
                    {
                        "number": 64,
                        "time": 59.70577693124991,
                        "value": 1
                    },
                    {
                        "number": 64,
                        "time": 60.00004799999991,
                        "value": 0
                    },
                    {
                        "number": 64,
                        "time": 60.20838149999991,
                        "value": 1
                    },
                    {
                        "number": 64,
                        "time": 60.83685422499991,
                        "value": 0
                    },
                    {
                        "number": 64,
                        "time": 61.758729962499906,
                        "value": 1
                    },
                    {
                        "number": 64,
                        "time": 62.5061263937499,
                        "value": 0
                    },
                    {
                        "number": 64,
                        "time": 62.6988348812499,
                        "value": 1
                    },
                    {
                        "number": 64,
                        "time": 63.3377242812499,
                        "value": 0
                    },
                    {
                        "number": 64,
                        "time": 64.25873196249991,
                        "value": 1
                    },
                    {
                        "number": 64,
                        "time": 65.00612839374992,
                        "value": 0
                    },
                    {
                        "number": 64,
                        "time": 65.11897570624991,
                        "value": 1
                    },
                    {
                        "number": 64,
                        "time": 65.84033044999993,
                        "value": 0
                    },
                    {
                        "number": 64,
                        "time": 66.36897670624992,
                        "value": 1
                    },
                    {
                        "number": 64,
                        "time": 67.09293561874993,
                        "value": 0
                    },
                    {
                        "number": 64,
                        "time": 67.61897770624994,
                        "value": 1
                    },
                    {
                        "number": 64,
                        "time": 68.34120050624995,
                        "value": 0
                    },
                    {
                        "number": 64,
                        "time": 68.86897870624995,
                        "value": 1
                    },
                    {
                        "number": 64,
                        "time": 69.59120150624996,
                        "value": 0
                    },
                    {
                        "number": 64,
                        "time": 70.11897970624996,
                        "value": 1
                    },
                    {
                        "number": 64,
                        "time": 70.84033444999997,
                        "value": 0
                    },
                    {
                        "number": 64,
                        "time": 71.75266156874997,
                        "value": 1
                    },
                    {
                        "number": 64,
                        "time": 72.50873856249999,
                        "value": 0
                    },
                    {
                        "number": 64,
                        "time": 72.77783599999998,
                        "value": 1
                    },
                    {
                        "number": 64,
                        "time": 73.33946839375,
                        "value": 0
                    },
                    {
                        "number": 64,
                        "time": 75.48617150000001,
                        "value": 1
                    },
                    {
                        "number": 64,
                        "time": 76.25700545000002,
                        "value": 0
                    },
                    {
                        "number": 64,
                        "time": 76.32992217500002,
                        "value": 1
                    },
                    {
                        "number": 64,
                        "time": 76.67627661875002,
                        "value": 0
                    },
                    {
                        "number": 64,
                        "time": 77.63895100000003,
                        "value": 1
                    },
                    {
                        "number": 64,
                        "time": 78.34207656250004,
                        "value": 0
                    },
                    {
                        "number": 64,
                        "time": 78.81169499375004,
                        "value": 1
                    },
                    {
                        "number": 64,
                        "time": 79.18148695625004,
                        "value": 0
                    },
                    {
                        "number": 64,
                        "time": 79.26655646875004,
                        "value": 1
                    },
                    {
                        "number": 64,
                        "time": 79.58860533750003,
                        "value": 0
                    },
                    {
                        "number": 64,
                        "time": 79.70579293125003,
                        "value": 1
                    },
                    {
                        "number": 64,
                        "time": 80.00440428125003,
                        "value": 0
                    },
                    {
                        "number": 64,
                        "time": 80.31777258750003,
                        "value": 1
                    },
                    {
                        "number": 64,
                        "time": 81.25614139375003,
                        "value": 0
                    },
                    {
                        "number": 64,
                        "time": 82.56169799375003,
                        "value": 1
                    },
                    {
                        "number": 64,
                        "time": 82.93062190000003,
                        "value": 0
                    },
                    {
                        "number": 64,
                        "time": 83.06430256250003,
                        "value": 1
                    },
                    {
                        "number": 64,
                        "time": 83.55041406250002,
                        "value": 0
                    },
                    {
                        "number": 64,
                        "time": 83.82385178125003,
                        "value": 1
                    },
                    {
                        "number": 64,
                        "time": 84.16673400000003,
                        "value": 0
                    },
                    {
                        "number": 64,
                        "time": 85.05562360000005,
                        "value": 1
                    },
                    {
                        "number": 64,
                        "time": 85.43062390000004,
                        "value": 0
                    },
                    {
                        "number": 64,
                        "time": 85.52697814375004,
                        "value": 1
                    },
                    {
                        "number": 64,
                        "time": 86.05388828750004,
                        "value": 0
                    },
                    {
                        "number": 64,
                        "time": 87.94711896875005,
                        "value": 1
                    },
                    {
                        "number": 64,
                        "time": 88.55215417500004,
                        "value": 0
                    },
                    {
                        "number": 64,
                        "time": 90.44712096875004,
                        "value": 1
                    },
                    {
                        "number": 64,
                        "time": 91.26309384375004,
                        "value": 0
                    },
                    {
                        "number": 64,
                        "time": 91.74660117500005,
                        "value": 1
                    },
                    {
                        "number": 64,
                        "time": 92.38983085625006,
                        "value": 0
                    },
                    {
                        "number": 64,
                        "time": 93.00875496250009,
                        "value": 1
                    },
                    {
                        "number": 64,
                        "time": 93.64590825000009,
                        "value": 0
                    },
                    {
                        "number": 64,
                        "time": 94.2466031750001,
                        "value": 1
                    },
                    {
                        "number": 64,
                        "time": 94.9323676125001,
                        "value": 0
                    },
                    {
                        "number": 64,
                        "time": 95.50875696250013,
                        "value": 1
                    },
                    {
                        "number": 64,
                        "time": 96.25181311250013,
                        "value": 0
                    },
                    {
                        "number": 64,
                        "time": 96.74660517500014,
                        "value": 1
                    },
                    {
                        "number": 64,
                        "time": 97.37160567500014,
                        "value": 0
                    },
                    {
                        "number": 64,
                        "time": 98.00875896250017,
                        "value": 1
                    },
                    {
                        "number": 64,
                        "time": 98.59730110000017,
                        "value": 0
                    },
                    {
                        "number": 64,
                        "time": 100.48619150000015,
                        "value": 1
                    },
                    {
                        "number": 64,
                        "time": 101.25008100000015,
                        "value": 0
                    },
                    {
                        "number": 64,
                        "time": 102.60424875000017,
                        "value": 1
                    },
                    {
                        "number": 64,
                        "time": 102.93063790000016,
                        "value": 0
                    },
                    {
                        "number": 64,
                        "time": 103.01483935625016,
                        "value": 1
                    },
                    {
                        "number": 64,
                        "time": 103.55129811875017,
                        "value": 0
                    },
                    {
                        "number": 64,
                        "time": 103.79956220625017,
                        "value": 1
                    },
                    {
                        "number": 64,
                        "time": 104.17890278750018,
                        "value": 0
                    },
                    {
                        "number": 64,
                        "time": 105.08602156875018,
                        "value": 1
                    },
                    {
                        "number": 64,
                        "time": 105.43063990000019,
                        "value": 0
                    },
                    {
                        "number": 64,
                        "time": 105.5209177500002,
                        "value": 1
                    },
                    {
                        "number": 64,
                        "time": 106.0556404000002,
                        "value": 0
                    },
                    {
                        "number": 64,
                        "time": 107.96362803750021,
                        "value": 1
                    },
                    {
                        "number": 64,
                        "time": 108.55303823125021,
                        "value": 0
                    },
                    {
                        "number": 64,
                        "time": 110.46623420625022,
                        "value": 1
                    },
                    {
                        "number": 64,
                        "time": 111.25356122500023,
                        "value": 0
                    },
                    {
                        "number": 64,
                        "time": 111.74661717500024,
                        "value": 1
                    },
                    {
                        "number": 64,
                        "time": 112.43238161250024,
                        "value": 0
                    },
                    {
                        "number": 64,
                        "time": 113.00877096250026,
                        "value": 1
                    },
                    {
                        "number": 64,
                        "time": 113.71970903125026,
                        "value": 0
                    },
                    {
                        "number": 64,
                        "time": 114.24661917500028,
                        "value": 1
                    },
                    {
                        "number": 64,
                        "time": 114.93238361250027,
                        "value": 0
                    },
                    {
                        "number": 64,
                        "time": 115.5087729625003,
                        "value": 1
                    },
                    {
                        "number": 64,
                        "time": 116.2526971687503,
                        "value": 0
                    },
                    {
                        "number": 64,
                        "time": 116.74662117500031,
                        "value": 1
                    },
                    {
                        "number": 64,
                        "time": 117.43238561250031,
                        "value": 0
                    },
                    {
                        "number": 64,
                        "time": 118.00877496250034,
                        "value": 1
                    },
                    {
                        "number": 64,
                        "time": 118.71971303125034,
                        "value": 0
                    },
                    {
                        "number": 64,
                        "time": 120.56606867500031,
                        "value": 1
                    },
                    {
                        "number": 64,
                        "time": 121.2544372812503,
                        "value": 0
                    },
                    {
                        "number": 64,
                        "time": 122.5860355687503,
                        "value": 1
                    },
                    {
                        "number": 64,
                        "time": 122.93065390000031,
                        "value": 0
                    },
                    {
                        "number": 64,
                        "time": 123.0764873500003,
                        "value": 1
                    },
                    {
                        "number": 64,
                        "time": 123.5504460625003,
                        "value": 0
                    },
                    {
                        "number": 64,
                        "time": 125.11034314375031,
                        "value": 1
                    },
                    {
                        "number": 64,
                        "time": 125.42805173125032,
                        "value": 0
                    },
                    {
                        "number": 64,
                        "time": 125.57041295625032,
                        "value": 1
                    },
                    {
                        "number": 64,
                        "time": 126.04784389375033,
                        "value": 0
                    },
                    {
                        "number": 64,
                        "time": 128.01833158125035,
                        "value": 1
                    },
                    {
                        "number": 64,
                        "time": 128.55131811875034,
                        "value": 0
                    },
                    {
                        "number": 64,
                        "time": 130.5070488500003,
                        "value": 1
                    },
                    {
                        "number": 64,
                        "time": 130.84819495625032,
                        "value": 0
                    },
                    {
                        "number": 64,
                        "time": 131.76486235625032,
                        "value": 1
                    },
                    {
                        "number": 64,
                        "time": 132.5044462812503,
                        "value": 0
                    },
                    {
                        "number": 64,
                        "time": 132.82475903750029,
                        "value": 1
                    },
                    {
                        "number": 64,
                        "time": 133.3499330687503,
                        "value": 0
                    },
                    {
                        "number": 64,
                        "time": 135.48621950000026,
                        "value": 1
                    },
                    {
                        "number": 64,
                        "time": 136.25358122500023,
                        "value": 0
                    },
                    {
                        "number": 64,
                        "time": 136.32997017500023,
                        "value": 1
                    },
                    {
                        "number": 64,
                        "time": 136.67545656250022,
                        "value": 0
                    },
                    {
                        "number": 64,
                        "time": 138.02702014375024,
                        "value": 1
                    },
                    {
                        "number": 64,
                        "time": 138.75705545000022,
                        "value": 0
                    },
                    {
                        "number": 64,
                        "time": 138.9098333500002,
                        "value": 1
                    },
                    {
                        "number": 64,
                        "time": 139.5912575062502,
                        "value": 0
                    },
                    {
                        "number": 64,
                        "time": 139.7058409312502,
                        "value": 1
                    },
                    {
                        "number": 64,
                        "time": 140.0035842250002,
                        "value": 0
                    },
                    {
                        "number": 64,
                        "time": 140.1624385187502,
                        "value": 1
                    },
                    {
                        "number": 64,
                        "time": 140.84559878750022,
                        "value": 0
                    },
                    {
                        "number": 64,
                        "time": 141.83257874375022,
                        "value": 1
                    },
                    {
                        "number": 64,
                        "time": 142.5079265062502,
                        "value": 0
                    },
                    {
                        "number": 64,
                        "time": 142.68587803750017,
                        "value": 1
                    },
                    {
                        "number": 64,
                        "time": 143.3456007875002,
                        "value": 0
                    },
                    {
                        "number": 64,
                        "time": 145.48622750000015,
                        "value": 1
                    },
                    {
                        "number": 64,
                        "time": 146.25706145000012,
                        "value": 0
                    },
                    {
                        "number": 64,
                        "time": 146.32997817500012,
                        "value": 1
                    },
                    {
                        "number": 64,
                        "time": 146.6737284500001,
                        "value": 0
                    },
                    {
                        "number": 64,
                        "time": 147.6390070000001,
                        "value": 1
                    },
                    {
                        "number": 64,
                        "time": 148.3377922812501,
                        "value": 0
                    },
                    {
                        "number": 64,
                        "time": 148.8117509937501,
                        "value": 1
                    },
                    {
                        "number": 64,
                        "time": 149.18067490000013,
                        "value": 0
                    },
                    {
                        "number": 64,
                        "time": 149.27616108750013,
                        "value": 1
                    },
                    {
                        "number": 64,
                        "time": 149.59126550625012,
                        "value": 0
                    },
                    {
                        "number": 64,
                        "time": 149.70584893125013,
                        "value": 1
                    },
                    {
                        "number": 64,
                        "time": 150.00012000000012,
                        "value": 0
                    },
                    {
                        "number": 64,
                        "time": 150.16244651875013,
                        "value": 1
                    },
                    {
                        "number": 64,
                        "time": 150.88032903750013,
                        "value": 0
                    }
                ]
            },
            "id": 2,
            "name": "Piano left",
            "instrumentNumber": 0,
            "instrument": "acoustic grand piano",
            "instrumentFamily": "piano",
            "channelNumber": 0,
            "isPercussion": false
        },
        {
            "startTime": 0,
            "duration": 0,
            "length": 0,
            "notes": [],
            "controlChanges": {},
            "id": 3,
            "name": "Chopin: Mazurka Opus 7 No 2"
        },
        {
            "startTime": 0,
            "duration": 0,
            "length": 0,
            "notes": [],
            "controlChanges": {},
            "id": 4,
            "name": "Copyright  2003 by Bernd Krueger"
        },
        {
            "startTime": 0,
            "duration": 0,
            "length": 0,
            "notes": [],
            "controlChanges": {},
            "id": 5,
            "name": "http://www.piano-midi.de"
        },
        {
            "startTime": 0,
            "duration": 0,
            "length": 0,
            "notes": [],
            "controlChanges": {},
            "id": 6,
            "name": "Edition: 2014-02-11"
        },
        {
            "startTime": 0,
            "duration": 0,
            "length": 0,
            "notes": [],
            "controlChanges": {},
            "id": 7,
            "name": "Spur 7"
        }
    ]
}