{
    "header": {
        "PPQ": 480,
        "timeSignature": [
            4,
            4
        ],
        "bpm": 201.53028664324438,
        "name": "Sonate opus 35, 4. Satz"
    },
    "startTime": 0,
    "duration": 89.31660000000034,
    "tracks": [
        {
            "startTime": 0,
            "duration": 0,
            "length": 0,
            "notes": [],
            "controlChanges": {},
            "id": 0,
            "name": "Sonate opus 35, 4. Satz"
        },
        {
            "startTime": 0,
            "duration": 89.31660000000034,
            "length": 879,
            "notes": [
                {
                    "name": "F3",
                    "midi": 53,
                    "time": 0,
                    "velocity": 0.2755905511811024,
                    "duration": 0.12405083333333332
                },
                {
                    "name": "G3",
                    "midi": 55,
                    "time": 0.09924066666666666,
                    "velocity": 0.2283464566929134,
                    "duration": 0.12405083333333332
                },
                {
                    "name": "A#3",
                    "midi": 58,
                    "time": 0.19848133333333332,
                    "velocity": 0.23622047244094488,
                    "duration": 0.12405083333333336
                },
                {
                    "name": "C#4",
                    "midi": 61,
                    "time": 0.297722,
                    "velocity": 0.23622047244094488,
                    "duration": 0.12405083333333339
                },
                {
                    "name": "E3",
                    "midi": 52,
                    "time": 0.3969626666666667,
                    "velocity": 0.25984251968503935,
                    "duration": 0.12405083333333333
                },
                {
                    "name": "G3",
                    "midi": 55,
                    "time": 0.4962033333333334,
                    "velocity": 0.2440944881889764,
                    "duration": 0.09924066666666659
                },
                {
                    "name": "F3",
                    "midi": 53,
                    "time": 0.595444,
                    "velocity": 0.29133858267716534,
                    "duration": 0.12405083333333333
                },
                {
                    "name": "G3",
                    "midi": 55,
                    "time": 0.6946846666666666,
                    "velocity": 0.23622047244094488,
                    "duration": 0.12405083333333333
                },
                {
                    "name": "A#3",
                    "midi": 58,
                    "time": 0.7939253333333333,
                    "velocity": 0.2440944881889764,
                    "duration": 0.12405083333333333
                },
                {
                    "name": "C#4",
                    "midi": 61,
                    "time": 0.8931659999999999,
                    "velocity": 0.25196850393700787,
                    "duration": 0.12405083333333322
                },
                {
                    "name": "E3",
                    "midi": 52,
                    "time": 0.9924066666666665,
                    "velocity": 0.2677165354330709,
                    "duration": 0.12405083333333333
                },
                {
                    "name": "G3",
                    "midi": 55,
                    "time": 1.0916473333333332,
                    "velocity": 0.25984251968503935,
                    "duration": 0.08931660000000008
                },
                {
                    "name": "G3",
                    "midi": 55,
                    "time": 1.190888,
                    "velocity": 0.31496062992125984,
                    "duration": 0.12405083333333344
                },
                {
                    "name": "A3",
                    "midi": 57,
                    "time": 1.2901286666666667,
                    "velocity": 0.25984251968503935,
                    "duration": 0.12405083333333344
                },
                {
                    "name": "C4",
                    "midi": 60,
                    "time": 1.3893693333333335,
                    "velocity": 0.2755905511811024,
                    "duration": 0.12405083333333344
                },
                {
                    "name": "D#4",
                    "midi": 63,
                    "time": 1.4886100000000002,
                    "velocity": 0.28346456692913385,
                    "duration": 0.12405083333333344
                },
                {
                    "name": "F#3",
                    "midi": 54,
                    "time": 1.587850666666667,
                    "velocity": 0.2677165354330709,
                    "duration": 0.12405083333333344
                },
                {
                    "name": "A3",
                    "midi": 57,
                    "time": 1.6870913333333337,
                    "velocity": 0.28346456692913385,
                    "duration": 0.09924066666666675
                },
                {
                    "name": "G3",
                    "midi": 55,
                    "time": 1.7863320000000005,
                    "velocity": 0.31496062992125984,
                    "duration": 0.12405083333333344
                },
                {
                    "name": "A3",
                    "midi": 57,
                    "time": 1.8855726666666672,
                    "velocity": 0.2677165354330709,
                    "duration": 0.12405083333333322
                },
                {
                    "name": "C4",
                    "midi": 60,
                    "time": 1.984813333333334,
                    "velocity": 0.2677165354330709,
                    "duration": 0.12405083333333322
                },
                {
                    "name": "D#4",
                    "midi": 63,
                    "time": 2.0840540000000005,
                    "velocity": 0.2755905511811024,
                    "duration": 0.12405083333333344
                },
                {
                    "name": "F#3",
                    "midi": 54,
                    "time": 2.1832946666666673,
                    "velocity": 0.2677165354330709,
                    "duration": 0.12405083333333344
                },
                {
                    "name": "A3",
                    "midi": 57,
                    "time": 2.282535333333334,
                    "velocity": 0.28346456692913385,
                    "duration": 0.09924066666666675
                },
                {
                    "name": "A#3",
                    "midi": 58,
                    "time": 2.381776000000001,
                    "velocity": 0.3543307086614173,
                    "duration": 0.12405083333333344
                },
                {
                    "name": "C4",
                    "midi": 60,
                    "time": 2.4810166666666675,
                    "velocity": 0.2755905511811024,
                    "duration": 0.12405083333333344
                },
                {
                    "name": "D#4",
                    "midi": 63,
                    "time": 2.5802573333333343,
                    "velocity": 0.2992125984251969,
                    "duration": 0.12405083333333344
                },
                {
                    "name": "F#4",
                    "midi": 66,
                    "time": 2.679498000000001,
                    "velocity": 0.33858267716535434,
                    "duration": 0.12405083333333344
                },
                {
                    "name": "A3",
                    "midi": 57,
                    "time": 2.778738666666668,
                    "velocity": 0.30708661417322836,
                    "duration": 0.12405083333333344
                },
                {
                    "name": "C4",
                    "midi": 60,
                    "time": 2.8779793333333346,
                    "velocity": 0.2992125984251969,
                    "duration": 0.09924066666666675
                },
                {
                    "name": "C#4",
                    "midi": 61,
                    "time": 2.9772200000000013,
                    "velocity": 0.3228346456692913,
                    "duration": 0.12405083333333344
                },
                {
                    "name": "D#4",
                    "midi": 63,
                    "time": 3.076460666666668,
                    "velocity": 0.30708661417322836,
                    "duration": 0.12405083333333344
                },
                {
                    "name": "F#4",
                    "midi": 66,
                    "time": 3.175701333333335,
                    "velocity": 0.30708661417322836,
                    "duration": 0.12405083333333344
                },
                {
                    "name": "A4",
                    "midi": 69,
                    "time": 3.2749420000000016,
                    "velocity": 0.33858267716535434,
                    "duration": 0.12405083333333344
                },
                {
                    "name": "C4",
                    "midi": 60,
                    "time": 3.3741826666666683,
                    "velocity": 0.30708661417322836,
                    "duration": 0.12405083333333344
                },
                {
                    "name": "D#4",
                    "midi": 63,
                    "time": 3.473423333333335,
                    "velocity": 0.30708661417322836,
                    "duration": 0.09924066666666675
                },
                {
                    "name": "C#4",
                    "midi": 61,
                    "time": 3.572664000000002,
                    "velocity": 0.3858267716535433,
                    "duration": 0.12405083333333344
                },
                {
                    "name": "D#4",
                    "midi": 63,
                    "time": 3.6719046666666686,
                    "velocity": 0.33070866141732286,
                    "duration": 0.12405083333333344
                },
                {
                    "name": "F#4",
                    "midi": 66,
                    "time": 3.7711453333333353,
                    "velocity": 0.30708661417322836,
                    "duration": 0.09924066666666675
                },
                {
                    "name": "A4",
                    "midi": 69,
                    "time": 3.870386000000002,
                    "velocity": 0.31496062992125984,
                    "duration": 0.12405083333333344
                },
                {
                    "name": "C4",
                    "midi": 60,
                    "time": 3.969626666666669,
                    "velocity": 0.33070866141732286,
                    "duration": 0.124050833333333
                },
                {
                    "name": "D#4",
                    "midi": 63,
                    "time": 4.068867333333335,
                    "velocity": 0.33858267716535434,
                    "duration": 0.09924066666666675
                },
                {
                    "name": "F#4",
                    "midi": 66,
                    "time": 4.168108000000002,
                    "velocity": 0.3937007874015748,
                    "duration": 0.12405083333333344
                },
                {
                    "name": "A#4",
                    "midi": 70,
                    "time": 4.267348666666669,
                    "velocity": 0.31496062992125984,
                    "duration": 0.12405083333333344
                },
                {
                    "name": "C5",
                    "midi": 72,
                    "time": 4.366589333333335,
                    "velocity": 0.3228346456692913,
                    "duration": 0.12405083333333344
                },
                {
                    "name": "D#5",
                    "midi": 75,
                    "time": 4.465830000000002,
                    "velocity": 0.3464566929133858,
                    "duration": 0.12405083333333344
                },
                {
                    "name": "F4",
                    "midi": 65,
                    "time": 4.565070666666669,
                    "velocity": 0.3464566929133858,
                    "duration": 0.12405083333333344
                },
                {
                    "name": "A4",
                    "midi": 69,
                    "time": 4.664311333333336,
                    "velocity": 0.3464566929133858,
                    "duration": 0.09924066666666675
                },
                {
                    "name": "A#4",
                    "midi": 70,
                    "time": 4.7635520000000025,
                    "velocity": 0.4409448818897638,
                    "duration": 0.12405083333333344
                },
                {
                    "name": "C#5",
                    "midi": 73,
                    "time": 4.862792666666669,
                    "velocity": 0.3543307086614173,
                    "duration": 0.12405083333333344
                },
                {
                    "name": "F#5",
                    "midi": 78,
                    "time": 4.962033333333336,
                    "velocity": 0.3858267716535433,
                    "duration": 0.12405083333333344
                },
                {
                    "name": "F5",
                    "midi": 77,
                    "time": 5.061274000000003,
                    "velocity": 0.36220472440944884,
                    "duration": 0.12405083333333344
                },
                {
                    "name": "C5",
                    "midi": 72,
                    "time": 5.1605146666666695,
                    "velocity": 0.3543307086614173,
                    "duration": 0.12405083333333344
                },
                {
                    "name": "C#5",
                    "midi": 73,
                    "time": 5.259755333333336,
                    "velocity": 0.3543307086614173,
                    "duration": 0.09924066666666675
                },
                {
                    "name": "E5",
                    "midi": 76,
                    "time": 5.358996000000003,
                    "velocity": 0.3937007874015748,
                    "duration": 0.1984813333333335
                },
                {
                    "name": "C5",
                    "midi": 72,
                    "time": 5.45823666666667,
                    "velocity": 0.36220472440944884,
                    "duration": 0.09924066666666675
                },
                {
                    "name": "C#5",
                    "midi": 73,
                    "time": 5.5574773333333365,
                    "velocity": 0.3543307086614173,
                    "duration": 0.12405083333333344
                },
                {
                    "name": "A4",
                    "midi": 69,
                    "time": 5.656718000000003,
                    "velocity": 0.33858267716535434,
                    "duration": 0.09924066666666675
                },
                {
                    "name": "A#4",
                    "midi": 70,
                    "time": 5.75595866666667,
                    "velocity": 0.3700787401574803,
                    "duration": 0.12405083333333344
                },
                {
                    "name": "F#4",
                    "midi": 66,
                    "time": 5.855199333333337,
                    "velocity": 0.3464566929133858,
                    "duration": 0.09924066666666675
                },
                {
                    "name": "E4",
                    "midi": 64,
                    "time": 5.9544400000000035,
                    "velocity": 0.3779527559055118,
                    "duration": 0.12405083333333344
                },
                {
                    "name": "F4",
                    "midi": 65,
                    "time": 6.05368066666667,
                    "velocity": 0.3464566929133858,
                    "duration": 0.12405083333333344
                },
                {
                    "name": "A#4",
                    "midi": 70,
                    "time": 6.152921333333337,
                    "velocity": 0.3464566929133858,
                    "duration": 0.09924066666666675
                },
                {
                    "name": "G#4",
                    "midi": 68,
                    "time": 6.252162000000004,
                    "velocity": 0.3543307086614173,
                    "duration": 0.12405083333333344
                },
                {
                    "name": "A4",
                    "midi": 69,
                    "time": 6.3514026666666705,
                    "velocity": 0.3543307086614173,
                    "duration": 0.12405083333333344
                },
                {
                    "name": "C#5",
                    "midi": 73,
                    "time": 6.450643333333337,
                    "velocity": 0.3543307086614173,
                    "duration": 0.09924066666666675
                },
                {
                    "name": "A4",
                    "midi": 69,
                    "time": 6.549884000000004,
                    "velocity": 0.3700787401574803,
                    "duration": 0.12405083333333344
                },
                {
                    "name": "A#4",
                    "midi": 70,
                    "time": 6.649124666666671,
                    "velocity": 0.3464566929133858,
                    "duration": 0.12405083333333344
                },
                {
                    "name": "C#5",
                    "midi": 73,
                    "time": 6.7483653333333375,
                    "velocity": 0.3543307086614173,
                    "duration": 0.09924066666666675
                },
                {
                    "name": "B4",
                    "midi": 71,
                    "time": 6.847606000000004,
                    "velocity": 0.36220472440944884,
                    "duration": 0.12405083333333344
                },
                {
                    "name": "C5",
                    "midi": 72,
                    "time": 6.946846666666671,
                    "velocity": 0.3543307086614173,
                    "duration": 0.12405083333333344
                },
                {
                    "name": "F5",
                    "midi": 77,
                    "time": 7.046087333333338,
                    "velocity": 0.3543307086614173,
                    "duration": 0.09924066666666675
                },
                {
                    "name": "G#4",
                    "midi": 68,
                    "time": 7.145328000000005,
                    "velocity": 0.3779527559055118,
                    "duration": 0.12405083333333344
                },
                {
                    "name": "B4",
                    "midi": 71,
                    "time": 7.244568666666671,
                    "velocity": 0.33858267716535434,
                    "duration": 0.12405083333333344
                },
                {
                    "name": "E5",
                    "midi": 76,
                    "time": 7.343809333333338,
                    "velocity": 0.3543307086614173,
                    "duration": 0.12405083333333344
                },
                {
                    "name": "D#5",
                    "midi": 75,
                    "time": 7.443050000000005,
                    "velocity": 0.3464566929133858,
                    "duration": 0.12405083333333344
                },
                {
                    "name": "A#4",
                    "midi": 70,
                    "time": 7.542290666666672,
                    "velocity": 0.31496062992125984,
                    "duration": 0.12405083333333344
                },
                {
                    "name": "B4",
                    "midi": 71,
                    "time": 7.641531333333338,
                    "velocity": 0.2992125984251969,
                    "duration": 0.09924066666666675
                },
                {
                    "name": "D5",
                    "midi": 74,
                    "time": 7.740772000000005,
                    "velocity": 0.4015748031496063,
                    "duration": 0.1984813333333335
                },
                {
                    "name": "A#4",
                    "midi": 70,
                    "time": 7.840012666666672,
                    "velocity": 0.33858267716535434,
                    "duration": 0.12405083333333344
                },
                {
                    "name": "B4",
                    "midi": 71,
                    "time": 7.939253333333339,
                    "velocity": 0.33070866141732286,
                    "duration": 0.12405083333333344
                },
                {
                    "name": "G4",
                    "midi": 67,
                    "time": 8.038494000000005,
                    "velocity": 0.33858267716535434,
                    "duration": 0.1984813333333335
                },
                {
                    "name": "G#4",
                    "midi": 68,
                    "time": 8.137734666666672,
                    "velocity": 0.3543307086614173,
                    "duration": 0.12405083333333344
                },
                {
                    "name": "E4",
                    "midi": 64,
                    "time": 8.236975333333339,
                    "velocity": 0.33858267716535434,
                    "duration": 0.09924066666666675
                },
                {
                    "name": "D4",
                    "midi": 62,
                    "time": 8.336216000000006,
                    "velocity": 0.3700787401574803,
                    "duration": 0.1984813333333335
                },
                {
                    "name": "D#4",
                    "midi": 63,
                    "time": 8.435456666666672,
                    "velocity": 0.3228346456692913,
                    "duration": 0.12405083333333344
                },
                {
                    "name": "G#4",
                    "midi": 68,
                    "time": 8.53469733333334,
                    "velocity": 0.3228346456692913,
                    "duration": 0.09924066666666675
                },
                {
                    "name": "E4",
                    "midi": 64,
                    "time": 8.633938000000006,
                    "velocity": 0.3464566929133858,
                    "duration": 0.1984813333333335
                },
                {
                    "name": "F4",
                    "midi": 65,
                    "time": 8.733178666666673,
                    "velocity": 0.33070866141732286,
                    "duration": 0.12405083333333344
                },
                {
                    "name": "B4",
                    "midi": 71,
                    "time": 8.83241933333334,
                    "velocity": 0.33070866141732286,
                    "duration": 0.09924066666666675
                },
                {
                    "name": "F4",
                    "midi": 65,
                    "time": 8.931660000000006,
                    "velocity": 0.3700787401574803,
                    "duration": 0.1984813333333335
                },
                {
                    "name": "F#4",
                    "midi": 66,
                    "time": 9.030900666666673,
                    "velocity": 0.3543307086614173,
                    "duration": 0.12405083333333344
                },
                {
                    "name": "B4",
                    "midi": 71,
                    "time": 9.13014133333334,
                    "velocity": 0.33858267716535434,
                    "duration": 0.09924066666666675
                },
                {
                    "name": "A4",
                    "midi": 69,
                    "time": 9.229382000000006,
                    "velocity": 0.3543307086614173,
                    "duration": 0.1984813333333335
                },
                {
                    "name": "A#4",
                    "midi": 70,
                    "time": 9.328622666666673,
                    "velocity": 0.3464566929133858,
                    "duration": 0.12405083333333344
                },
                {
                    "name": "D#5",
                    "midi": 75,
                    "time": 9.42786333333334,
                    "velocity": 0.3464566929133858,
                    "duration": 0.09924066666666675
                },
                {
                    "name": "C#5",
                    "midi": 73,
                    "time": 9.527104000000007,
                    "velocity": 0.4015748031496063,
                    "duration": 0.1984813333333335
                },
                {
                    "name": "F4",
                    "midi": 65,
                    "time": 9.626344666666673,
                    "velocity": 0.3543307086614173,
                    "duration": 0.12405083333333344
                },
                {
                    "name": "A#4",
                    "midi": 70,
                    "time": 9.72558533333334,
                    "velocity": 0.3228346456692913,
                    "duration": 0.12405083333333344
                },
                {
                    "name": "C#4",
                    "midi": 61,
                    "time": 9.824826000000007,
                    "velocity": 0.3543307086614173,
                    "duration": 0.1984813333333335
                },
                {
                    "name": "E4",
                    "midi": 64,
                    "time": 9.924066666666674,
                    "velocity": 0.33858267716535434,
                    "duration": 0.12405083333333344
                },
                {
                    "name": "A4",
                    "midi": 69,
                    "time": 10.02330733333334,
                    "velocity": 0.33858267716535434,
                    "duration": 0.09924066666666675
                },
                {
                    "name": "C5",
                    "midi": 72,
                    "time": 10.122548000000007,
                    "velocity": 0.3543307086614173,
                    "duration": 0.1984813333333335
                },
                {
                    "name": "D#4",
                    "midi": 63,
                    "time": 10.221788666666674,
                    "velocity": 0.3228346456692913,
                    "duration": 0.12405083333333344
                },
                {
                    "name": "G#4",
                    "midi": 68,
                    "time": 10.32102933333334,
                    "velocity": 0.33070866141732286,
                    "duration": 0.12405083333333344
                },
                {
                    "name": "B3",
                    "midi": 59,
                    "time": 10.420270000000007,
                    "velocity": 0.33070866141732286,
                    "duration": 0.1984813333333335
                },
                {
                    "name": "D4",
                    "midi": 62,
                    "time": 10.519510666666674,
                    "velocity": 0.3228346456692913,
                    "duration": 0.12405083333333344
                },
                {
                    "name": "G4",
                    "midi": 67,
                    "time": 10.618751333333341,
                    "velocity": 0.33070866141732286,
                    "duration": 0.09924066666666675
                },
                {
                    "name": "B4",
                    "midi": 71,
                    "time": 10.717992000000008,
                    "velocity": 0.41732283464566927,
                    "duration": 0.12405083333333344
                },
                {
                    "name": "D4",
                    "midi": 62,
                    "time": 10.817232666666674,
                    "velocity": 0.3543307086614173,
                    "duration": 0.12405083333333344
                },
                {
                    "name": "F#4",
                    "midi": 66,
                    "time": 10.916473333333341,
                    "velocity": 0.3543307086614173,
                    "duration": 0.12405083333333344
                },
                {
                    "name": "A#3",
                    "midi": 58,
                    "time": 11.015714000000008,
                    "velocity": 0.33070866141732286,
                    "duration": 0.12405083333333344
                },
                {
                    "name": "C#4",
                    "midi": 61,
                    "time": 11.114954666666675,
                    "velocity": 0.33070866141732286,
                    "duration": 0.12405083333333344
                },
                {
                    "name": "F#4",
                    "midi": 66,
                    "time": 11.214195333333342,
                    "velocity": 0.33858267716535434,
                    "duration": 0.09924066666666675
                },
                {
                    "name": "A#4",
                    "midi": 70,
                    "time": 11.313436000000008,
                    "velocity": 0.3937007874015748,
                    "duration": 0.12405083333333344
                },
                {
                    "name": "F#4",
                    "midi": 66,
                    "time": 11.412676666666675,
                    "velocity": 0.3543307086614173,
                    "duration": 0.12405083333333344
                },
                {
                    "name": "B4",
                    "midi": 71,
                    "time": 11.511917333333342,
                    "velocity": 0.33070866141732286,
                    "duration": 0.12405083333333344
                },
                {
                    "name": "C5",
                    "midi": 72,
                    "time": 11.611158000000009,
                    "velocity": 0.36220472440944884,
                    "duration": 0.12405083333333344
                },
                {
                    "name": "C#5",
                    "midi": 73,
                    "time": 11.710398666666675,
                    "velocity": 0.4015748031496063,
                    "duration": 0.12405083333333344
                },
                {
                    "name": "D#5",
                    "midi": 75,
                    "time": 11.809639333333342,
                    "velocity": 0.4251968503937008,
                    "duration": 0.09924066666666675
                },
                {
                    "name": "E5",
                    "midi": 76,
                    "time": 11.908880000000009,
                    "velocity": 0.44881889763779526,
                    "duration": 0.12405083333333344
                },
                {
                    "name": "G4",
                    "midi": 67,
                    "time": 12.008120666666676,
                    "velocity": 0.3543307086614173,
                    "duration": 0.12405083333333344
                },
                {
                    "name": "C5",
                    "midi": 72,
                    "time": 12.107361333333342,
                    "velocity": 0.3543307086614173,
                    "duration": 0.12405083333333344
                },
                {
                    "name": "D#4",
                    "midi": 63,
                    "time": 12.206602000000009,
                    "velocity": 0.33858267716535434,
                    "duration": 0.1984813333333335
                },
                {
                    "name": "F#4",
                    "midi": 66,
                    "time": 12.305842666666676,
                    "velocity": 0.3464566929133858,
                    "duration": 0.12405083333333344
                },
                {
                    "name": "B4",
                    "midi": 71,
                    "time": 12.405083333333343,
                    "velocity": 0.3464566929133858,
                    "duration": 0.09924066666666675
                },
                {
                    "name": "D5",
                    "midi": 74,
                    "time": 12.50432400000001,
                    "velocity": 0.3779527559055118,
                    "duration": 0.1984813333333335
                },
                {
                    "name": "F4",
                    "midi": 65,
                    "time": 12.603564666666676,
                    "velocity": 0.33070866141732286,
                    "duration": 0.12405083333333344
                },
                {
                    "name": "A#4",
                    "midi": 70,
                    "time": 12.702805333333343,
                    "velocity": 0.33858267716535434,
                    "duration": 0.12405083333333344
                },
                {
                    "name": "C#4",
                    "midi": 61,
                    "time": 12.80204600000001,
                    "velocity": 0.33858267716535434,
                    "duration": 0.1984813333333335
                },
                {
                    "name": "E4",
                    "midi": 64,
                    "time": 12.901286666666676,
                    "velocity": 0.3543307086614173,
                    "duration": 0.12405083333333344
                },
                {
                    "name": "A4",
                    "midi": 69,
                    "time": 13.000527333333343,
                    "velocity": 0.3543307086614173,
                    "duration": 0.09924066666666675
                },
                {
                    "name": "C5",
                    "midi": 72,
                    "time": 13.09976800000001,
                    "velocity": 0.3858267716535433,
                    "duration": 0.12405083333333344
                },
                {
                    "name": "E4",
                    "midi": 64,
                    "time": 13.199008666666677,
                    "velocity": 0.3543307086614173,
                    "duration": 0.12405083333333344
                },
                {
                    "name": "G#4",
                    "midi": 68,
                    "time": 13.298249333333343,
                    "velocity": 0.3543307086614173,
                    "duration": 0.12405083333333344
                },
                {
                    "name": "B3",
                    "midi": 59,
                    "time": 13.39749000000001,
                    "velocity": 0.3543307086614173,
                    "duration": 0.12405083333333344
                },
                {
                    "name": "D4",
                    "midi": 62,
                    "time": 13.496730666666677,
                    "velocity": 0.33858267716535434,
                    "duration": 0.12405083333333344
                },
                {
                    "name": "G4",
                    "midi": 67,
                    "time": 13.595971333333344,
                    "velocity": 0.33858267716535434,
                    "duration": 0.09924066666666675
                },
                {
                    "name": "B4",
                    "midi": 71,
                    "time": 13.69521200000001,
                    "velocity": 0.3937007874015748,
                    "duration": 0.12405083333333344
                },
                {
                    "name": "F#4",
                    "midi": 66,
                    "time": 13.794452666666677,
                    "velocity": 0.3543307086614173,
                    "duration": 0.12405083333333344
                },
                {
                    "name": "C#5",
                    "midi": 73,
                    "time": 13.893693333333344,
                    "velocity": 0.3543307086614173,
                    "duration": 0.12405083333333344
                },
                {
                    "name": "D5",
                    "midi": 74,
                    "time": 13.99293400000001,
                    "velocity": 0.3937007874015748,
                    "duration": 0.12405083333333344
                },
                {
                    "name": "D#5",
                    "midi": 75,
                    "time": 14.092174666666677,
                    "velocity": 0.4094488188976378,
                    "duration": 0.12405083333333344
                },
                {
                    "name": "E5",
                    "midi": 76,
                    "time": 14.191415333333344,
                    "velocity": 0.4251968503937008,
                    "duration": 0.09924066666666675
                },
                {
                    "name": "F5",
                    "midi": 77,
                    "time": 14.290656000000011,
                    "velocity": 0.4409448818897638,
                    "duration": 0.12405083333333344
                },
                {
                    "name": "A4",
                    "midi": 69,
                    "time": 14.389896666666678,
                    "velocity": 0.3543307086614173,
                    "duration": 0.12405083333333344
                },
                {
                    "name": "D#5",
                    "midi": 75,
                    "time": 14.489137333333344,
                    "velocity": 0.3543307086614173,
                    "duration": 0.12405083333333344
                },
                {
                    "name": "E5",
                    "midi": 76,
                    "time": 14.588378000000011,
                    "velocity": 0.4251968503937008,
                    "duration": 0.12405083333333344
                },
                {
                    "name": "F5",
                    "midi": 77,
                    "time": 14.687618666666678,
                    "velocity": 0.41732283464566927,
                    "duration": 0.12405083333333344
                },
                {
                    "name": "F#5",
                    "midi": 78,
                    "time": 14.786859333333345,
                    "velocity": 0.4409448818897638,
                    "duration": 0.09924066666666675
                },
                {
                    "name": "F5",
                    "midi": 77,
                    "time": 14.886100000000011,
                    "velocity": 0.48031496062992124,
                    "duration": 0.12405083333333344
                },
                {
                    "name": "A#4",
                    "midi": 70,
                    "time": 14.985340666666678,
                    "velocity": 0.36220472440944884,
                    "duration": 0.12405083333333344
                },
                {
                    "name": "C#5",
                    "midi": 73,
                    "time": 15.084581333333345,
                    "velocity": 0.3937007874015748,
                    "duration": 0.12405083333333344
                },
                {
                    "name": "E5",
                    "midi": 76,
                    "time": 15.183822000000012,
                    "velocity": 0.4330708661417323,
                    "duration": 0.12405083333333344
                },
                {
                    "name": "F5",
                    "midi": 77,
                    "time": 15.283062666666678,
                    "velocity": 0.44881889763779526,
                    "duration": 0.12405083333333344
                },
                {
                    "name": "F#5",
                    "midi": 78,
                    "time": 15.382303333333345,
                    "velocity": 0.4645669291338583,
                    "duration": 0.09924066666666675
                },
                {
                    "name": "G5",
                    "midi": 79,
                    "time": 15.481544000000012,
                    "velocity": 0.5039370078740157,
                    "duration": 0.12405083333333344
                },
                {
                    "name": "B4",
                    "midi": 71,
                    "time": 15.580784666666679,
                    "velocity": 0.3700787401574803,
                    "duration": 0.12405083333333344
                },
                {
                    "name": "F5",
                    "midi": 77,
                    "time": 15.680025333333345,
                    "velocity": 0.4251968503937008,
                    "duration": 0.12405083333333344
                },
                {
                    "name": "F#5",
                    "midi": 78,
                    "time": 15.779266000000012,
                    "velocity": 0.47244094488188976,
                    "duration": 0.12405083333333344
                },
                {
                    "name": "G5",
                    "midi": 79,
                    "time": 15.878506666666679,
                    "velocity": 0.47244094488188976,
                    "duration": 0.12405083333333344
                },
                {
                    "name": "G#5",
                    "midi": 80,
                    "time": 15.977747333333346,
                    "velocity": 0.5118110236220472,
                    "duration": 0.09924066666666498
                },
                {
                    "name": "G5",
                    "midi": 79,
                    "time": 16.07698800000001,
                    "velocity": 0.5354330708661418,
                    "duration": 0.12405083333333167
                },
                {
                    "name": "C5",
                    "midi": 72,
                    "time": 16.176228666666677,
                    "velocity": 0.4015748031496063,
                    "duration": 0.12405083333332811
                },
                {
                    "name": "D#5",
                    "midi": 75,
                    "time": 16.27546933333334,
                    "velocity": 0.47244094488188976,
                    "duration": 0.12405083333332811
                },
                {
                    "name": "F#5",
                    "midi": 78,
                    "time": 16.374710000000004,
                    "velocity": 0.5039370078740157,
                    "duration": 0.12405083333332811
                },
                {
                    "name": "G5",
                    "midi": 79,
                    "time": 16.473950666666667,
                    "velocity": 0.5275590551181102,
                    "duration": 0.12405083333332811
                },
                {
                    "name": "G#5",
                    "midi": 80,
                    "time": 16.57319133333333,
                    "velocity": 0.5354330708661418,
                    "duration": 0.0992406666666632
                },
                {
                    "name": "D#5",
                    "midi": 75,
                    "time": 16.672431999999993,
                    "velocity": 0.5354330708661418,
                    "duration": 0.1984813333333335
                },
                {
                    "name": "C5",
                    "midi": 72,
                    "time": 16.77167266666666,
                    "velocity": 0.4566929133858268,
                    "duration": 0.12405083333333167
                },
                {
                    "name": "F5",
                    "midi": 77,
                    "time": 16.870913333333327,
                    "velocity": 0.4015748031496063,
                    "duration": 0.12405083333332811
                },
                {
                    "name": "D#5",
                    "midi": 75,
                    "time": 16.97015399999999,
                    "velocity": 0.41732283464566927,
                    "duration": 0.19848133333332996
                },
                {
                    "name": "G#4",
                    "midi": 68,
                    "time": 17.069394666666653,
                    "velocity": 0.3858267716535433,
                    "duration": 0.12405083333333167
                },
                {
                    "name": "C#5",
                    "midi": 73,
                    "time": 17.16863533333332,
                    "velocity": 0.4094488188976378,
                    "duration": 0.0992406666666632
                },
                {
                    "name": "C5",
                    "midi": 72,
                    "time": 17.267875999999983,
                    "velocity": 0.44881889763779526,
                    "duration": 0.1984813333333335
                },
                {
                    "name": "D#4",
                    "midi": 63,
                    "time": 17.36711666666665,
                    "velocity": 0.3543307086614173,
                    "duration": 0.12405083333333167
                },
                {
                    "name": "A#4",
                    "midi": 70,
                    "time": 17.466357333333317,
                    "velocity": 0.3700787401574803,
                    "duration": 0.12405083333332811
                },
                {
                    "name": "G#4",
                    "midi": 68,
                    "time": 17.56559799999998,
                    "velocity": 0.3937007874015748,
                    "duration": 0.19848133333332996
                },
                {
                    "name": "C4",
                    "midi": 60,
                    "time": 17.664838666666643,
                    "velocity": 0.3700787401574803,
                    "duration": 0.12405083333333167
                },
                {
                    "name": "F4",
                    "midi": 65,
                    "time": 17.76407933333331,
                    "velocity": 0.3700787401574803,
                    "duration": 0.0992406666666632
                },
                {
                    "name": "D#4",
                    "midi": 63,
                    "time": 17.863319999999973,
                    "velocity": 0.4409448818897638,
                    "duration": 0.12405083333333167
                },
                {
                    "name": "G#3",
                    "midi": 56,
                    "time": 17.96256066666664,
                    "velocity": 0.3543307086614173,
                    "duration": 0.12405083333332811
                },
                {
                    "name": "C#4",
                    "midi": 61,
                    "time": 18.061801333333303,
                    "velocity": 0.3543307086614173,
                    "duration": 0.12405083333332811
                },
                {
                    "name": "C4",
                    "midi": 60,
                    "time": 18.161041999999966,
                    "velocity": 0.3543307086614173,
                    "duration": 0.12405083333332811
                },
                {
                    "name": "G3",
                    "midi": 55,
                    "time": 18.26028266666663,
                    "velocity": 0.33070866141732286,
                    "duration": 0.12405083333332811
                },
                {
                    "name": "G#3",
                    "midi": 56,
                    "time": 18.359523333333293,
                    "velocity": 0.33858267716535434,
                    "duration": 0.0992406666666632
                },
                {
                    "name": "C4",
                    "midi": 60,
                    "time": 18.458763999999956,
                    "velocity": 0.3700787401574803,
                    "duration": 0.12405083333333167
                },
                {
                    "name": "F#3",
                    "midi": 54,
                    "time": 18.558004666666623,
                    "velocity": 0.30708661417322836,
                    "duration": 0.12405083333332811
                },
                {
                    "name": "D4",
                    "midi": 62,
                    "time": 18.657245333333286,
                    "velocity": 0.2992125984251969,
                    "duration": 0.12405083333332811
                },
                {
                    "name": "C4",
                    "midi": 60,
                    "time": 18.75648599999995,
                    "velocity": 0.31496062992125984,
                    "duration": 0.12405083333332811
                },
                {
                    "name": "F3",
                    "midi": 53,
                    "time": 18.855726666666612,
                    "velocity": 0.30708661417322836,
                    "duration": 0.12405083333332811
                },
                {
                    "name": "F#3",
                    "midi": 54,
                    "time": 18.954967333333276,
                    "velocity": 0.29133858267716534,
                    "duration": 0.0992406666666632
                },
                {
                    "name": "G3",
                    "midi": 55,
                    "time": 19.05420799999994,
                    "velocity": 0.33070866141732286,
                    "duration": 0.12405083333333167
                },
                {
                    "name": "A3",
                    "midi": 57,
                    "time": 19.153448666666606,
                    "velocity": 0.2992125984251969,
                    "duration": 0.12405083333332811
                },
                {
                    "name": "B3",
                    "midi": 59,
                    "time": 19.25268933333327,
                    "velocity": 0.2755905511811024,
                    "duration": 0.12405083333332811
                },
                {
                    "name": "C4",
                    "midi": 60,
                    "time": 19.351929999999932,
                    "velocity": 0.28346456692913385,
                    "duration": 0.12405083333332811
                },
                {
                    "name": "D4",
                    "midi": 62,
                    "time": 19.451170666666595,
                    "velocity": 0.2992125984251969,
                    "duration": 0.12405083333332811
                },
                {
                    "name": "D#4",
                    "midi": 63,
                    "time": 19.55041133333326,
                    "velocity": 0.33070866141732286,
                    "duration": 0.0992406666666632
                },
                {
                    "name": "G#3",
                    "midi": 56,
                    "time": 19.64965199999992,
                    "velocity": 0.3543307086614173,
                    "duration": 0.12405083333333167
                },
                {
                    "name": "A#3",
                    "midi": 58,
                    "time": 19.74889266666659,
                    "velocity": 0.28346456692913385,
                    "duration": 0.12405083333332811
                },
                {
                    "name": "B3",
                    "midi": 59,
                    "time": 19.84813333333325,
                    "velocity": 0.2677165354330709,
                    "duration": 0.12405083333332811
                },
                {
                    "name": "C4",
                    "midi": 60,
                    "time": 19.947373999999915,
                    "velocity": 0.2992125984251969,
                    "duration": 0.12405083333332811
                },
                {
                    "name": "C#4",
                    "midi": 61,
                    "time": 20.046614666666578,
                    "velocity": 0.29133858267716534,
                    "duration": 0.12405083333332811
                },
                {
                    "name": "D#4",
                    "midi": 63,
                    "time": 20.14585533333324,
                    "velocity": 0.29133858267716534,
                    "duration": 0.0992406666666632
                },
                {
                    "name": "A3",
                    "midi": 57,
                    "time": 20.245095999999904,
                    "velocity": 0.3779527559055118,
                    "duration": 0.12405083333333167
                },
                {
                    "name": "A#3",
                    "midi": 58,
                    "time": 20.34433666666657,
                    "velocity": 0.3228346456692913,
                    "duration": 0.12405083333332811
                },
                {
                    "name": "C4",
                    "midi": 60,
                    "time": 20.443577333333234,
                    "velocity": 0.2992125984251969,
                    "duration": 0.12405083333332811
                },
                {
                    "name": "C#4",
                    "midi": 61,
                    "time": 20.542817999999897,
                    "velocity": 0.33858267716535434,
                    "duration": 0.12405083333332811
                },
                {
                    "name": "D#4",
                    "midi": 63,
                    "time": 20.64205866666656,
                    "velocity": 0.3228346456692913,
                    "duration": 0.12405083333332811
                },
                {
                    "name": "F4",
                    "midi": 65,
                    "time": 20.741299333333224,
                    "velocity": 0.33070866141732286,
                    "duration": 0.0992406666666632
                },
                {
                    "name": "A#3",
                    "midi": 58,
                    "time": 20.840539999999887,
                    "velocity": 0.3779527559055118,
                    "duration": 0.12405083333333167
                },
                {
                    "name": "B3",
                    "midi": 59,
                    "time": 20.939780666666554,
                    "velocity": 0.2992125984251969,
                    "duration": 0.12405083333332811
                },
                {
                    "name": "C4",
                    "midi": 60,
                    "time": 21.039021333333217,
                    "velocity": 0.30708661417322836,
                    "duration": 0.12405083333332811
                },
                {
                    "name": "C#4",
                    "midi": 61,
                    "time": 21.13826199999988,
                    "velocity": 0.33858267716535434,
                    "duration": 0.12405083333332811
                },
                {
                    "name": "D#4",
                    "midi": 63,
                    "time": 21.237502666666543,
                    "velocity": 0.30708661417322836,
                    "duration": 0.12405083333332811
                },
                {
                    "name": "F4",
                    "midi": 65,
                    "time": 21.336743333333207,
                    "velocity": 0.33858267716535434,
                    "duration": 0.0992406666666632
                },
                {
                    "name": "C4",
                    "midi": 60,
                    "time": 21.43598399999987,
                    "velocity": 0.4015748031496063,
                    "duration": 0.12405083333333167
                },
                {
                    "name": "C#4",
                    "midi": 61,
                    "time": 21.535224666666537,
                    "velocity": 0.33858267716535434,
                    "duration": 0.12405083333332811
                },
                {
                    "name": "D4",
                    "midi": 62,
                    "time": 21.6344653333332,
                    "velocity": 0.30708661417322836,
                    "duration": 0.12405083333332811
                },
                {
                    "name": "D#4",
                    "midi": 63,
                    "time": 21.733705999999863,
                    "velocity": 0.3464566929133858,
                    "duration": 0.12405083333332811
                },
                {
                    "name": "F4",
                    "midi": 65,
                    "time": 21.832946666666526,
                    "velocity": 0.33858267716535434,
                    "duration": 0.12405083333332811
                },
                {
                    "name": "F#4",
                    "midi": 66,
                    "time": 21.93218733333319,
                    "velocity": 0.3543307086614173,
                    "duration": 0.0992406666666632
                },
                {
                    "name": "A3",
                    "midi": 57,
                    "time": 22.031427999999853,
                    "velocity": 0.4015748031496063,
                    "duration": 0.12405083333333167
                },
                {
                    "name": "C#4",
                    "midi": 61,
                    "time": 22.13066866666652,
                    "velocity": 0.33858267716535434,
                    "duration": 0.12405083333332811
                },
                {
                    "name": "D4",
                    "midi": 62,
                    "time": 22.229909333333183,
                    "velocity": 0.33858267716535434,
                    "duration": 0.12405083333332811
                },
                {
                    "name": "D#4",
                    "midi": 63,
                    "time": 22.329149999999846,
                    "velocity": 0.3700787401574803,
                    "duration": 0.12405083333332811
                },
                {
                    "name": "F4",
                    "midi": 65,
                    "time": 22.42839066666651,
                    "velocity": 0.3543307086614173,
                    "duration": 0.12405083333332811
                },
                {
                    "name": "F#4",
                    "midi": 66,
                    "time": 22.527631333333172,
                    "velocity": 0.3779527559055118,
                    "duration": 0.0992406666666632
                },
                {
                    "name": "A4",
                    "midi": 69,
                    "time": 22.626871999999835,
                    "velocity": 0.4645669291338583,
                    "duration": 0.12405083333333167
                },
                {
                    "name": "F#4",
                    "midi": 66,
                    "time": 22.726112666666502,
                    "velocity": 0.3779527559055118,
                    "duration": 0.12405083333332811
                },
                {
                    "name": "E4",
                    "midi": 64,
                    "time": 22.825353333333165,
                    "velocity": 0.3779527559055118,
                    "duration": 0.12405083333332811
                },
                {
                    "name": "D4",
                    "midi": 62,
                    "time": 22.92459399999983,
                    "velocity": 0.3858267716535433,
                    "duration": 0.12405083333332811
                },
                {
                    "name": "E4",
                    "midi": 64,
                    "time": 23.02383466666649,
                    "velocity": 0.3543307086614173,
                    "duration": 0.12405083333332811
                },
                {
                    "name": "F#4",
                    "midi": 66,
                    "time": 23.123075333333155,
                    "velocity": 0.36220472440944884,
                    "duration": 0.0992406666666632
                },
                {
                    "name": "A3",
                    "midi": 57,
                    "time": 23.222315999999818,
                    "velocity": 0.4015748031496063,
                    "duration": 0.12405083333333167
                },
                {
                    "name": "C#4",
                    "midi": 61,
                    "time": 23.321556666666485,
                    "velocity": 0.33858267716535434,
                    "duration": 0.12405083333332811
                },
                {
                    "name": "D4",
                    "midi": 62,
                    "time": 23.420797333333148,
                    "velocity": 0.3228346456692913,
                    "duration": 0.12405083333332811
                },
                {
                    "name": "E4",
                    "midi": 64,
                    "time": 23.52003799999981,
                    "velocity": 0.3543307086614173,
                    "duration": 0.12405083333332811
                },
                {
                    "name": "F4",
                    "midi": 65,
                    "time": 23.619278666666474,
                    "velocity": 0.31496062992125984,
                    "duration": 0.12405083333332811
                },
                {
                    "name": "F#4",
                    "midi": 66,
                    "time": 23.718519333333138,
                    "velocity": 0.3543307086614173,
                    "duration": 0.0992406666666632
                },
                {
                    "name": "A4",
                    "midi": 69,
                    "time": 23.8177599999998,
                    "velocity": 0.4015748031496063,
                    "duration": 0.12405083333333167
                },
                {
                    "name": "G#4",
                    "midi": 68,
                    "time": 23.917000666666468,
                    "velocity": 0.3464566929133858,
                    "duration": 0.12405083333332811
                },
                {
                    "name": "G4",
                    "midi": 67,
                    "time": 24.01624133333313,
                    "velocity": 0.31496062992125984,
                    "duration": 0.12405083333332811
                },
                {
                    "name": "F#4",
                    "midi": 66,
                    "time": 24.115481999999794,
                    "velocity": 0.36220472440944884,
                    "duration": 0.12405083333332811
                },
                {
                    "name": "D#4",
                    "midi": 63,
                    "time": 24.214722666666457,
                    "velocity": 0.33858267716535434,
                    "duration": 0.12405083333332811
                },
                {
                    "name": "C4",
                    "midi": 60,
                    "time": 24.31396333333312,
                    "velocity": 0.3464566929133858,
                    "duration": 0.0992406666666632
                },
                {
                    "name": "F#4",
                    "midi": 66,
                    "time": 24.413203999999784,
                    "velocity": 0.3858267716535433,
                    "duration": 0.12405083333333167
                },
                {
                    "name": "D#4",
                    "midi": 63,
                    "time": 24.51244466666645,
                    "velocity": 0.33858267716535434,
                    "duration": 0.12405083333332811
                },
                {
                    "name": "C4",
                    "midi": 60,
                    "time": 24.611685333333114,
                    "velocity": 0.33858267716535434,
                    "duration": 0.12405083333332811
                },
                {
                    "name": "A#3",
                    "midi": 58,
                    "time": 24.710925999999777,
                    "velocity": 0.3543307086614173,
                    "duration": 0.12405083333332811
                },
                {
                    "name": "A3",
                    "midi": 57,
                    "time": 24.81016666666644,
                    "velocity": 0.3464566929133858,
                    "duration": 0.12405083333332811
                },
                {
                    "name": "G#3",
                    "midi": 56,
                    "time": 24.909407333333103,
                    "velocity": 0.33858267716535434,
                    "duration": 0.0992406666666632
                },
                {
                    "name": "G3",
                    "midi": 55,
                    "time": 25.008647999999766,
                    "velocity": 0.36220472440944884,
                    "duration": 0.12405083333333167
                },
                {
                    "name": "G#3",
                    "midi": 56,
                    "time": 25.107888666666433,
                    "velocity": 0.30708661417322836,
                    "duration": 0.12405083333332811
                },
                {
                    "name": "A3",
                    "midi": 57,
                    "time": 25.207129333333096,
                    "velocity": 0.30708661417322836,
                    "duration": 0.12405083333332811
                },
                {
                    "name": "F3",
                    "midi": 53,
                    "time": 25.30636999999976,
                    "velocity": 0.30708661417322836,
                    "duration": 0.12405083333332811
                },
                {
                    "name": "F#3",
                    "midi": 54,
                    "time": 25.405610666666423,
                    "velocity": 0.30708661417322836,
                    "duration": 0.12405083333332811
                },
                {
                    "name": "G#3",
                    "midi": 56,
                    "time": 25.504851333333086,
                    "velocity": 0.30708661417322836,
                    "duration": 0.0992406666666632
                },
                {
                    "name": "E3",
                    "midi": 52,
                    "time": 25.60409199999975,
                    "velocity": 0.3464566929133858,
                    "duration": 0.12405083333333167
                },
                {
                    "name": "F3",
                    "midi": 53,
                    "time": 25.703332666666416,
                    "velocity": 0.2992125984251969,
                    "duration": 0.12405083333332811
                },
                {
                    "name": "F#3",
                    "midi": 54,
                    "time": 25.80257333333308,
                    "velocity": 0.29133858267716534,
                    "duration": 0.12405083333332811
                },
                {
                    "name": "D3",
                    "midi": 50,
                    "time": 25.901813999999742,
                    "velocity": 0.2992125984251969,
                    "duration": 0.12405083333332811
                },
                {
                    "name": "D#3",
                    "midi": 51,
                    "time": 26.001054666666406,
                    "velocity": 0.28346456692913385,
                    "duration": 0.12405083333332811
                },
                {
                    "name": "F3",
                    "midi": 53,
                    "time": 26.10029533333307,
                    "velocity": 0.28346456692913385,
                    "duration": 0.0992406666666632
                },
                {
                    "name": "G2",
                    "midi": 43,
                    "time": 26.199535999999732,
                    "velocity": 0.2992125984251969,
                    "duration": 0.12405083333333167
                },
                {
                    "name": "G#2",
                    "midi": 44,
                    "time": 26.2987766666664,
                    "velocity": 0.2677165354330709,
                    "duration": 0.12405083333332811
                },
                {
                    "name": "A#2",
                    "midi": 46,
                    "time": 26.398017333333062,
                    "velocity": 0.2677165354330709,
                    "duration": 0.12405083333332811
                },
                {
                    "name": "C3",
                    "midi": 48,
                    "time": 26.497257999999725,
                    "velocity": 0.28346456692913385,
                    "duration": 0.12405083333332811
                },
                {
                    "name": "C#3",
                    "midi": 49,
                    "time": 26.59649866666639,
                    "velocity": 0.2992125984251969,
                    "duration": 0.12405083333332811
                },
                {
                    "name": "D#3",
                    "midi": 51,
                    "time": 26.69573933333305,
                    "velocity": 0.30708661417322836,
                    "duration": 0.0992406666666632
                },
                {
                    "name": "F3",
                    "midi": 53,
                    "time": 26.794979999999715,
                    "velocity": 0.3228346456692913,
                    "duration": 0.12405083333333167
                },
                {
                    "name": "F#3",
                    "midi": 54,
                    "time": 26.89422066666638,
                    "velocity": 0.31496062992125984,
                    "duration": 0.12405083333332811
                },
                {
                    "name": "G3",
                    "midi": 55,
                    "time": 26.993461333333045,
                    "velocity": 0.3228346456692913,
                    "duration": 0.12405083333332811
                },
                {
                    "name": "G#3",
                    "midi": 56,
                    "time": 27.092701999999708,
                    "velocity": 0.33070866141732286,
                    "duration": 0.12405083333332811
                },
                {
                    "name": "F3",
                    "midi": 53,
                    "time": 27.19194266666637,
                    "velocity": 0.3228346456692913,
                    "duration": 0.12405083333332811
                },
                {
                    "name": "A#3",
                    "midi": 58,
                    "time": 27.291183333333034,
                    "velocity": 0.3228346456692913,
                    "duration": 0.0992406666666632
                },
                {
                    "name": "G#3",
                    "midi": 56,
                    "time": 27.390423999999697,
                    "velocity": 0.36220472440944884,
                    "duration": 0.12405083333333167
                },
                {
                    "name": "F4",
                    "midi": 65,
                    "time": 27.489664666666364,
                    "velocity": 0.3858267716535433,
                    "duration": 0.12405083333332811
                },
                {
                    "name": "D#4",
                    "midi": 63,
                    "time": 27.588905333333027,
                    "velocity": 0.3700787401574803,
                    "duration": 0.12405083333332811
                },
                {
                    "name": "C#4",
                    "midi": 61,
                    "time": 27.68814599999969,
                    "velocity": 0.3858267716535433,
                    "duration": 0.12405083333332811
                },
                {
                    "name": "C4",
                    "midi": 60,
                    "time": 27.787386666666354,
                    "velocity": 0.36220472440944884,
                    "duration": 0.12405083333332811
                },
                {
                    "name": "A#3",
                    "midi": 58,
                    "time": 27.886627333333017,
                    "velocity": 0.36220472440944884,
                    "duration": 0.0992406666666632
                },
                {
                    "name": "G#3",
                    "midi": 56,
                    "time": 27.98586799999968,
                    "velocity": 0.3543307086614173,
                    "duration": 0.12405083333333167
                },
                {
                    "name": "F3",
                    "midi": 53,
                    "time": 28.085108666666347,
                    "velocity": 0.33858267716535434,
                    "duration": 0.12405083333332811
                },
                {
                    "name": "F#3",
                    "midi": 54,
                    "time": 28.18434933333301,
                    "velocity": 0.33858267716535434,
                    "duration": 0.12405083333332811
                },
                {
                    "name": "G#3",
                    "midi": 56,
                    "time": 28.283589999999673,
                    "velocity": 0.33858267716535434,
                    "duration": 0.12405083333332811
                },
                {
                    "name": "F3",
                    "midi": 53,
                    "time": 28.382830666666337,
                    "velocity": 0.36220472440944884,
                    "duration": 0.12405083333332811
                },
                {
                    "name": "A#3",
                    "midi": 58,
                    "time": 28.482071333333,
                    "velocity": 0.3543307086614173,
                    "duration": 0.0992406666666632
                },
                {
                    "name": "G#3",
                    "midi": 56,
                    "time": 28.581311999999663,
                    "velocity": 0.4015748031496063,
                    "duration": 0.12405083333333167
                },
                {
                    "name": "D#3",
                    "midi": 51,
                    "time": 28.68055266666633,
                    "velocity": 0.3464566929133858,
                    "duration": 0.12405083333332811
                },
                {
                    "name": "F3",
                    "midi": 53,
                    "time": 28.779793333332993,
                    "velocity": 0.3464566929133858,
                    "duration": 0.12405083333332811
                },
                {
                    "name": "F#3",
                    "midi": 54,
                    "time": 28.879033999999656,
                    "velocity": 0.3543307086614173,
                    "duration": 0.12405083333332811
                },
                {
                    "name": "D#3",
                    "midi": 51,
                    "time": 28.97827466666632,
                    "velocity": 0.33858267716535434,
                    "duration": 0.12405083333332811
                },
                {
                    "name": "A#3",
                    "midi": 58,
                    "time": 29.077515333332983,
                    "velocity": 0.41732283464566927,
                    "duration": 0.0992406666666632
                },
                {
                    "name": "G#3",
                    "midi": 56,
                    "time": 29.176755999999646,
                    "velocity": 0.4015748031496063,
                    "duration": 0.12405083333333167
                },
                {
                    "name": "C#3",
                    "midi": 49,
                    "time": 29.275996666666313,
                    "velocity": 0.36220472440944884,
                    "duration": 0.12405083333332811
                },
                {
                    "name": "D#3",
                    "midi": 51,
                    "time": 29.375237333332976,
                    "velocity": 0.3700787401574803,
                    "duration": 0.12405083333332811
                },
                {
                    "name": "F3",
                    "midi": 53,
                    "time": 29.47447799999964,
                    "velocity": 0.4015748031496063,
                    "duration": 0.12405083333332811
                },
                {
                    "name": "C#3",
                    "midi": 49,
                    "time": 29.573718666666302,
                    "velocity": 0.3700787401574803,
                    "duration": 0.12405083333332811
                },
                {
                    "name": "A#3",
                    "midi": 58,
                    "time": 29.672959333332965,
                    "velocity": 0.41732283464566927,
                    "duration": 0.0992406666666632
                },
                {
                    "name": "G#3",
                    "midi": 56,
                    "time": 29.77219999999963,
                    "velocity": 0.4015748031496063,
                    "duration": 0.12405083333333167
                },
                {
                    "name": "C3",
                    "midi": 48,
                    "time": 29.871440666666295,
                    "velocity": 0.3464566929133858,
                    "duration": 0.12405083333332811
                },
                {
                    "name": "C#3",
                    "midi": 49,
                    "time": 29.97068133333296,
                    "velocity": 0.3464566929133858,
                    "duration": 0.12405083333332811
                },
                {
                    "name": "D#3",
                    "midi": 51,
                    "time": 30.06992199999962,
                    "velocity": 0.36220472440944884,
                    "duration": 0.12405083333332811
                },
                {
                    "name": "C3",
                    "midi": 48,
                    "time": 30.169162666666285,
                    "velocity": 0.33858267716535434,
                    "duration": 0.12405083333332811
                },
                {
                    "name": "F3",
                    "midi": 53,
                    "time": 30.268403333332948,
                    "velocity": 0.3937007874015748,
                    "duration": 0.0992406666666632
                },
                {
                    "name": "D#3",
                    "midi": 51,
                    "time": 30.36764399999961,
                    "velocity": 0.3779527559055118,
                    "duration": 0.12405083333333167
                },
                {
                    "name": "A#2",
                    "midi": 46,
                    "time": 30.466884666666278,
                    "velocity": 0.36220472440944884,
                    "duration": 0.12405083333332811
                },
                {
                    "name": "F3",
                    "midi": 53,
                    "time": 30.56612533333294,
                    "velocity": 0.3700787401574803,
                    "duration": 0.12405083333332811
                },
                {
                    "name": "D#3",
                    "midi": 51,
                    "time": 30.665365999999604,
                    "velocity": 0.4015748031496063,
                    "duration": 0.12405083333332811
                },
                {
                    "name": "G#2",
                    "midi": 44,
                    "time": 30.764606666666268,
                    "velocity": 0.3700787401574803,
                    "duration": 0.12405083333332811
                },
                {
                    "name": "A#2",
                    "midi": 46,
                    "time": 30.86384733333293,
                    "velocity": 0.3700787401574803,
                    "duration": 0.0992406666666632
                },
                {
                    "name": "G#2",
                    "midi": 44,
                    "time": 30.963087999999594,
                    "velocity": 0.4015748031496063,
                    "duration": 0.12405083333333167
                },
                {
                    "name": "C#3",
                    "midi": 49,
                    "time": 31.06232866666626,
                    "velocity": 0.31496062992125984,
                    "duration": 0.12405083333332811
                },
                {
                    "name": "D#3",
                    "midi": 51,
                    "time": 31.161569333332924,
                    "velocity": 0.33070866141732286,
                    "duration": 0.12405083333332811
                },
                {
                    "name": "F3",
                    "midi": 53,
                    "time": 31.260809999999587,
                    "velocity": 0.33858267716535434,
                    "duration": 0.12405083333332811
                },
                {
                    "name": "F#3",
                    "midi": 54,
                    "time": 31.36005066666625,
                    "velocity": 0.3543307086614173,
                    "duration": 0.12405083333332811
                },
                {
                    "name": "G#3",
                    "midi": 56,
                    "time": 31.459291333332914,
                    "velocity": 0.36220472440944884,
                    "duration": 0.0992406666666632
                },
                {
                    "name": "A#3",
                    "midi": 58,
                    "time": 31.558531999999577,
                    "velocity": 0.3779527559055118,
                    "duration": 0.12405083333333167
                },
                {
                    "name": "C4",
                    "midi": 60,
                    "time": 31.657772666666244,
                    "velocity": 0.4015748031496063,
                    "duration": 0.12405083333332811
                },
                {
                    "name": "C#4",
                    "midi": 61,
                    "time": 31.757013333332907,
                    "velocity": 0.3779527559055118,
                    "duration": 0.12405083333332811
                },
                {
                    "name": "D#4",
                    "midi": 63,
                    "time": 31.85625399999957,
                    "velocity": 0.41732283464566927,
                    "duration": 0.12405083333332811
                },
                {
                    "name": "F4",
                    "midi": 65,
                    "time": 31.955494666666233,
                    "velocity": 0.3937007874015748,
                    "duration": 0.12405083333333522
                },
                {
                    "name": "F#4",
                    "midi": 66,
                    "time": 32.0547353333329,
                    "velocity": 0.4409448818897638,
                    "duration": 0.09924066666666675
                },
                {
                    "name": "G#4",
                    "midi": 68,
                    "time": 32.15397599999957,
                    "velocity": 0.4645669291338583,
                    "duration": 0.12405083333333522
                },
                {
                    "name": "F5",
                    "midi": 77,
                    "time": 32.25321666666623,
                    "velocity": 0.47244094488188976,
                    "duration": 0.12405083333333522
                },
                {
                    "name": "D#5",
                    "midi": 75,
                    "time": 32.3524573333329,
                    "velocity": 0.44881889763779526,
                    "duration": 0.12405083333333522
                },
                {
                    "name": "C#5",
                    "midi": 73,
                    "time": 32.45169799999957,
                    "velocity": 0.4409448818897638,
                    "duration": 0.12405083333333522
                },
                {
                    "name": "C5",
                    "midi": 72,
                    "time": 32.550938666666234,
                    "velocity": 0.4251968503937008,
                    "duration": 0.12405083333333522
                },
                {
                    "name": "A#4",
                    "midi": 70,
                    "time": 32.6501793333329,
                    "velocity": 0.4251968503937008,
                    "duration": 0.09924066666666675
                },
                {
                    "name": "G#4",
                    "midi": 68,
                    "time": 32.74941999999957,
                    "velocity": 0.4409448818897638,
                    "duration": 0.12405083333333522
                },
                {
                    "name": "F4",
                    "midi": 65,
                    "time": 32.848660666666234,
                    "velocity": 0.4015748031496063,
                    "duration": 0.12405083333333522
                },
                {
                    "name": "F#4",
                    "midi": 66,
                    "time": 32.9479013333329,
                    "velocity": 0.4015748031496063,
                    "duration": 0.12405083333333522
                },
                {
                    "name": "G#4",
                    "midi": 68,
                    "time": 33.04714199999957,
                    "velocity": 0.4094488188976378,
                    "duration": 0.12405083333333522
                },
                {
                    "name": "F4",
                    "midi": 65,
                    "time": 33.146382666666234,
                    "velocity": 0.4015748031496063,
                    "duration": 0.12405083333333522
                },
                {
                    "name": "A#4",
                    "midi": 70,
                    "time": 33.2456233333329,
                    "velocity": 0.4015748031496063,
                    "duration": 0.09924066666666675
                },
                {
                    "name": "G#4",
                    "midi": 68,
                    "time": 33.34486399999957,
                    "velocity": 0.4409448818897638,
                    "duration": 0.12405083333333522
                },
                {
                    "name": "D#4",
                    "midi": 63,
                    "time": 33.444104666666234,
                    "velocity": 0.3779527559055118,
                    "duration": 0.12405083333333522
                },
                {
                    "name": "F4",
                    "midi": 65,
                    "time": 33.5433453333329,
                    "velocity": 0.3779527559055118,
                    "duration": 0.12405083333333522
                },
                {
                    "name": "F#4",
                    "midi": 66,
                    "time": 33.64258599999957,
                    "velocity": 0.41732283464566927,
                    "duration": 0.12405083333333522
                },
                {
                    "name": "D#4",
                    "midi": 63,
                    "time": 33.741826666666235,
                    "velocity": 0.4015748031496063,
                    "duration": 0.12405083333333522
                },
                {
                    "name": "A#4",
                    "midi": 70,
                    "time": 33.8410673333329,
                    "velocity": 0.4015748031496063,
                    "duration": 0.09924066666666675
                },
                {
                    "name": "G#4",
                    "midi": 68,
                    "time": 33.94030799999957,
                    "velocity": 0.4094488188976378,
                    "duration": 0.12405083333333522
                },
                {
                    "name": "C#4",
                    "midi": 61,
                    "time": 34.039548666666235,
                    "velocity": 0.36220472440944884,
                    "duration": 0.12405083333333522
                },
                {
                    "name": "D#4",
                    "midi": 63,
                    "time": 34.1387893333329,
                    "velocity": 0.36220472440944884,
                    "duration": 0.12405083333333522
                },
                {
                    "name": "F4",
                    "midi": 65,
                    "time": 34.23802999999957,
                    "velocity": 0.4015748031496063,
                    "duration": 0.12405083333333522
                },
                {
                    "name": "C#4",
                    "midi": 61,
                    "time": 34.337270666666235,
                    "velocity": 0.3858267716535433,
                    "duration": 0.12405083333333522
                },
                {
                    "name": "A#4",
                    "midi": 70,
                    "time": 34.4365113333329,
                    "velocity": 0.4409448818897638,
                    "duration": 0.09924066666666675
                },
                {
                    "name": "G#4",
                    "midi": 68,
                    "time": 34.53575199999957,
                    "velocity": 0.4094488188976378,
                    "duration": 0.12405083333333522
                },
                {
                    "name": "C4",
                    "midi": 60,
                    "time": 34.634992666666236,
                    "velocity": 0.3779527559055118,
                    "duration": 0.12405083333333522
                },
                {
                    "name": "C#4",
                    "midi": 61,
                    "time": 34.7342333333329,
                    "velocity": 0.31496062992125984,
                    "duration": 0.12405083333333522
                },
                {
                    "name": "D#4",
                    "midi": 63,
                    "time": 34.83347399999957,
                    "velocity": 0.3779527559055118,
                    "duration": 0.12405083333333522
                },
                {
                    "name": "C4",
                    "midi": 60,
                    "time": 34.932714666666236,
                    "velocity": 0.3700787401574803,
                    "duration": 0.12405083333333522
                },
                {
                    "name": "F4",
                    "midi": 65,
                    "time": 35.0319553333329,
                    "velocity": 0.33858267716535434,
                    "duration": 0.09924066666666675
                },
                {
                    "name": "D#4",
                    "midi": 63,
                    "time": 35.13119599999957,
                    "velocity": 0.4015748031496063,
                    "duration": 0.12405083333333522
                },
                {
                    "name": "A#3",
                    "midi": 58,
                    "time": 35.230436666666236,
                    "velocity": 0.36220472440944884,
                    "duration": 0.12405083333333522
                },
                {
                    "name": "F4",
                    "midi": 65,
                    "time": 35.3296773333329,
                    "velocity": 0.3700787401574803,
                    "duration": 0.12405083333333522
                },
                {
                    "name": "D#4",
                    "midi": 63,
                    "time": 35.42891799999957,
                    "velocity": 0.3858267716535433,
                    "duration": 0.12405083333333522
                },
                {
                    "name": "G#3",
                    "midi": 56,
                    "time": 35.528158666666236,
                    "velocity": 0.3779527559055118,
                    "duration": 0.12405083333333522
                },
                {
                    "name": "F4",
                    "midi": 65,
                    "time": 35.6273993333329,
                    "velocity": 0.3858267716535433,
                    "duration": 0.09924066666666675
                },
                {
                    "name": "F#4",
                    "midi": 66,
                    "time": 35.72663999999957,
                    "velocity": 0.41732283464566927,
                    "duration": 0.12405083333333522
                },
                {
                    "name": "F4",
                    "midi": 65,
                    "time": 35.82588066666624,
                    "velocity": 0.3858267716535433,
                    "duration": 0.12405083333333522
                },
                {
                    "name": "D#4",
                    "midi": 63,
                    "time": 35.9251213333329,
                    "velocity": 0.4015748031496063,
                    "duration": 0.12405083333333522
                },
                {
                    "name": "C#4",
                    "midi": 61,
                    "time": 36.02436199999957,
                    "velocity": 0.3858267716535433,
                    "duration": 0.12405083333333522
                },
                {
                    "name": "C4",
                    "midi": 60,
                    "time": 36.12360266666624,
                    "velocity": 0.3779527559055118,
                    "duration": 0.12405083333333522
                },
                {
                    "name": "A#3",
                    "midi": 58,
                    "time": 36.222843333332904,
                    "velocity": 0.3464566929133858,
                    "duration": 0.09924066666666675
                },
                {
                    "name": "A3",
                    "midi": 57,
                    "time": 36.32208399999957,
                    "velocity": 0.4251968503937008,
                    "duration": 0.1984813333333335
                },
                {
                    "name": "F4",
                    "midi": 65,
                    "time": 36.42132466666624,
                    "velocity": 0.3700787401574803,
                    "duration": 0.12405083333333522
                },
                {
                    "name": "C4",
                    "midi": 60,
                    "time": 36.520565333332904,
                    "velocity": 0.36220472440944884,
                    "duration": 0.12405083333333522
                },
                {
                    "name": "D#4",
                    "midi": 63,
                    "time": 36.61980599999957,
                    "velocity": 0.3858267716535433,
                    "duration": 0.12405083333333522
                },
                {
                    "name": "C#4",
                    "midi": 61,
                    "time": 36.71904666666624,
                    "velocity": 0.3700787401574803,
                    "duration": 0.12405083333333522
                },
                {
                    "name": "A#3",
                    "midi": 58,
                    "time": 36.818287333332904,
                    "velocity": 0.3700787401574803,
                    "duration": 0.09924066666666675
                },
                {
                    "name": "A3",
                    "midi": 57,
                    "time": 36.91752799999957,
                    "velocity": 0.4251968503937008,
                    "duration": 0.1984813333333335
                },
                {
                    "name": "F4",
                    "midi": 65,
                    "time": 37.01676866666624,
                    "velocity": 0.3700787401574803,
                    "duration": 0.12405083333333522
                },
                {
                    "name": "C4",
                    "midi": 60,
                    "time": 37.116009333332904,
                    "velocity": 0.36220472440944884,
                    "duration": 0.12405083333333522
                },
                {
                    "name": "D#4",
                    "midi": 63,
                    "time": 37.21524999999957,
                    "velocity": 0.3700787401574803,
                    "duration": 0.12405083333333522
                },
                {
                    "name": "C#4",
                    "midi": 61,
                    "time": 37.31449066666624,
                    "velocity": 0.3543307086614173,
                    "duration": 0.12405083333333522
                },
                {
                    "name": "A#3",
                    "midi": 58,
                    "time": 37.413731333332905,
                    "velocity": 0.3543307086614173,
                    "duration": 0.09924066666666675
                },
                {
                    "name": "A3",
                    "midi": 57,
                    "time": 37.51297199999957,
                    "velocity": 0.4251968503937008,
                    "duration": 0.1984813333333335
                },
                {
                    "name": "F4",
                    "midi": 65,
                    "time": 37.61221266666624,
                    "velocity": 0.3700787401574803,
                    "duration": 0.12405083333333522
                },
                {
                    "name": "C4",
                    "midi": 60,
                    "time": 37.711453333332905,
                    "velocity": 0.36220472440944884,
                    "duration": 0.12405083333333522
                },
                {
                    "name": "D#4",
                    "midi": 63,
                    "time": 37.81069399999957,
                    "velocity": 0.3858267716535433,
                    "duration": 0.12405083333333522
                },
                {
                    "name": "C#4",
                    "midi": 61,
                    "time": 37.90993466666624,
                    "velocity": 0.3700787401574803,
                    "duration": 0.12405083333333522
                },
                {
                    "name": "A#3",
                    "midi": 58,
                    "time": 38.009175333332905,
                    "velocity": 0.3543307086614173,
                    "duration": 0.09924066666666675
                },
                {
                    "name": "G#4",
                    "midi": 68,
                    "time": 38.10841599999957,
                    "velocity": 0.41732283464566927,
                    "duration": 0.12405083333333522
                },
                {
                    "name": "G4",
                    "midi": 67,
                    "time": 38.20765666666624,
                    "velocity": 0.3700787401574803,
                    "duration": 0.12405083333333522
                },
                {
                    "name": "F4",
                    "midi": 65,
                    "time": 38.306897333332905,
                    "velocity": 0.3543307086614173,
                    "duration": 0.12405083333333522
                },
                {
                    "name": "D#4",
                    "midi": 63,
                    "time": 38.40613799999957,
                    "velocity": 0.3858267716535433,
                    "duration": 0.12405083333333522
                },
                {
                    "name": "D4",
                    "midi": 62,
                    "time": 38.50537866666624,
                    "velocity": 0.3543307086614173,
                    "duration": 0.12405083333333522
                },
                {
                    "name": "C4",
                    "midi": 60,
                    "time": 38.604619333332906,
                    "velocity": 0.3700787401574803,
                    "duration": 0.09924066666666675
                },
                {
                    "name": "B3",
                    "midi": 59,
                    "time": 38.70385999999957,
                    "velocity": 0.3858267716535433,
                    "duration": 0.1984813333333335
                },
                {
                    "name": "G4",
                    "midi": 67,
                    "time": 38.80310066666624,
                    "velocity": 0.3700787401574803,
                    "duration": 0.12405083333333522
                },
                {
                    "name": "D4",
                    "midi": 62,
                    "time": 38.902341333332906,
                    "velocity": 0.33858267716535434,
                    "duration": 0.12405083333333522
                },
                {
                    "name": "F4",
                    "midi": 65,
                    "time": 39.00158199999957,
                    "velocity": 0.3700787401574803,
                    "duration": 0.12405083333333522
                },
                {
                    "name": "D#4",
                    "midi": 63,
                    "time": 39.10082266666624,
                    "velocity": 0.3700787401574803,
                    "duration": 0.12405083333333522
                },
                {
                    "name": "C4",
                    "midi": 60,
                    "time": 39.200063333332906,
                    "velocity": 0.3700787401574803,
                    "duration": 0.09924066666666675
                },
                {
                    "name": "B3",
                    "midi": 59,
                    "time": 39.29930399999957,
                    "velocity": 0.3858267716535433,
                    "duration": 0.1984813333333335
                },
                {
                    "name": "G4",
                    "midi": 67,
                    "time": 39.39854466666624,
                    "velocity": 0.3700787401574803,
                    "duration": 0.12405083333333522
                },
                {
                    "name": "D4",
                    "midi": 62,
                    "time": 39.49778533333291,
                    "velocity": 0.3464566929133858,
                    "duration": 0.12405083333333522
                },
                {
                    "name": "F4",
                    "midi": 65,
                    "time": 39.59702599999957,
                    "velocity": 0.4015748031496063,
                    "duration": 0.12405083333333522
                },
                {
                    "name": "D#4",
                    "midi": 63,
                    "time": 39.69626666666624,
                    "velocity": 0.3700787401574803,
                    "duration": 0.12405083333333522
                },
                {
                    "name": "C4",
                    "midi": 60,
                    "time": 39.79550733333291,
                    "velocity": 0.3700787401574803,
                    "duration": 0.09924066666666675
                },
                {
                    "name": "B3",
                    "midi": 59,
                    "time": 39.89474799999957,
                    "velocity": 0.4251968503937008,
                    "duration": 0.1984813333333335
                },
                {
                    "name": "G4",
                    "midi": 67,
                    "time": 39.99398866666624,
                    "velocity": 0.3700787401574803,
                    "duration": 0.12405083333333522
                },
                {
                    "name": "D4",
                    "midi": 62,
                    "time": 40.09322933333291,
                    "velocity": 0.33858267716535434,
                    "duration": 0.12405083333333522
                },
                {
                    "name": "F4",
                    "midi": 65,
                    "time": 40.192469999999574,
                    "velocity": 0.4015748031496063,
                    "duration": 0.12405083333333522
                },
                {
                    "name": "D#4",
                    "midi": 63,
                    "time": 40.29171066666624,
                    "velocity": 0.3700787401574803,
                    "duration": 0.12405083333333522
                },
                {
                    "name": "C4",
                    "midi": 60,
                    "time": 40.39095133333291,
                    "velocity": 0.3700787401574803,
                    "duration": 0.09924066666666675
                },
                {
                    "name": "C#5",
                    "midi": 73,
                    "time": 40.490191999999574,
                    "velocity": 0.5275590551181102,
                    "duration": 0.12405083333333522
                },
                {
                    "name": "C5",
                    "midi": 72,
                    "time": 40.58943266666624,
                    "velocity": 0.4566929133858268,
                    "duration": 0.12405083333333522
                },
                {
                    "name": "A#4",
                    "midi": 70,
                    "time": 40.68867333333291,
                    "velocity": 0.4409448818897638,
                    "duration": 0.12405083333333522
                },
                {
                    "name": "G#4",
                    "midi": 68,
                    "time": 40.787913999999574,
                    "velocity": 0.4409448818897638,
                    "duration": 0.12405083333333522
                },
                {
                    "name": "G4",
                    "midi": 67,
                    "time": 40.88715466666624,
                    "velocity": 0.4330708661417323,
                    "duration": 0.12405083333333522
                },
                {
                    "name": "F4",
                    "midi": 65,
                    "time": 40.98639533333291,
                    "velocity": 0.4330708661417323,
                    "duration": 0.09924066666666675
                },
                {
                    "name": "A#4",
                    "midi": 70,
                    "time": 41.085635999999575,
                    "velocity": 0.48031496062992124,
                    "duration": 0.12405083333333522
                },
                {
                    "name": "E4",
                    "midi": 64,
                    "time": 41.18487666666624,
                    "velocity": 0.4330708661417323,
                    "duration": 0.12405083333333522
                },
                {
                    "name": "G4",
                    "midi": 67,
                    "time": 41.28411733333291,
                    "velocity": 0.4251968503937008,
                    "duration": 0.12405083333333522
                },
                {
                    "name": "C#4",
                    "midi": 61,
                    "time": 41.383357999999575,
                    "velocity": 0.4409448818897638,
                    "duration": 0.12405083333333522
                },
                {
                    "name": "E4",
                    "midi": 64,
                    "time": 41.48259866666624,
                    "velocity": 0.4330708661417323,
                    "duration": 0.12405083333333522
                },
                {
                    "name": "C4",
                    "midi": 60,
                    "time": 41.58183933333291,
                    "velocity": 0.4094488188976378,
                    "duration": 0.09924066666666675
                },
                {
                    "name": "C#5",
                    "midi": 73,
                    "time": 41.681079999999575,
                    "velocity": 0.5275590551181102,
                    "duration": 0.12405083333333522
                },
                {
                    "name": "C5",
                    "midi": 72,
                    "time": 41.78032066666624,
                    "velocity": 0.4409448818897638,
                    "duration": 0.12405083333333522
                },
                {
                    "name": "A#4",
                    "midi": 70,
                    "time": 41.87956133333291,
                    "velocity": 0.4645669291338583,
                    "duration": 0.12405083333333522
                },
                {
                    "name": "G#4",
                    "midi": 68,
                    "time": 41.978801999999575,
                    "velocity": 0.4566929133858268,
                    "duration": 0.12405083333333522
                },
                {
                    "name": "G4",
                    "midi": 67,
                    "time": 42.07804266666624,
                    "velocity": 0.4409448818897638,
                    "duration": 0.12405083333333522
                },
                {
                    "name": "F4",
                    "midi": 65,
                    "time": 42.17728333333291,
                    "velocity": 0.4409448818897638,
                    "duration": 0.09924066666666675
                },
                {
                    "name": "A#4",
                    "midi": 70,
                    "time": 42.276523999999576,
                    "velocity": 0.4881889763779528,
                    "duration": 0.12405083333333522
                },
                {
                    "name": "E4",
                    "midi": 64,
                    "time": 42.37576466666624,
                    "velocity": 0.4330708661417323,
                    "duration": 0.12405083333333522
                },
                {
                    "name": "G4",
                    "midi": 67,
                    "time": 42.47500533333291,
                    "velocity": 0.4409448818897638,
                    "duration": 0.09924066666666675
                },
                {
                    "name": "C#4",
                    "midi": 61,
                    "time": 42.574245999999576,
                    "velocity": 0.4251968503937008,
                    "duration": 0.12405083333333522
                },
                {
                    "name": "E4",
                    "midi": 64,
                    "time": 42.67348666666624,
                    "velocity": 0.4330708661417323,
                    "duration": 0.12405083333333522
                },
                {
                    "name": "C4",
                    "midi": 60,
                    "time": 42.77272733333291,
                    "velocity": 0.44881889763779526,
                    "duration": 0.09924066666666675
                },
                {
                    "name": "A#4",
                    "midi": 70,
                    "time": 42.871967999999576,
                    "velocity": 0.4645669291338583,
                    "duration": 0.12405083333333522
                },
                {
                    "name": "E4",
                    "midi": 64,
                    "time": 42.97120866666624,
                    "velocity": 0.41732283464566927,
                    "duration": 0.12405083333333522
                },
                {
                    "name": "G4",
                    "midi": 67,
                    "time": 43.07044933333291,
                    "velocity": 0.41732283464566927,
                    "duration": 0.12405083333333522
                },
                {
                    "name": "C#4",
                    "midi": 61,
                    "time": 43.16968999999958,
                    "velocity": 0.4015748031496063,
                    "duration": 0.12405083333333522
                },
                {
                    "name": "E4",
                    "midi": 64,
                    "time": 43.26893066666624,
                    "velocity": 0.3779527559055118,
                    "duration": 0.12405083333333522
                },
                {
                    "name": "C4",
                    "midi": 60,
                    "time": 43.36817133333291,
                    "velocity": 0.3779527559055118,
                    "duration": 0.09924066666666675
                },
                {
                    "name": "G4",
                    "midi": 67,
                    "time": 43.46741199999958,
                    "velocity": 0.44881889763779526,
                    "duration": 0.12405083333333522
                },
                {
                    "name": "C#4",
                    "midi": 61,
                    "time": 43.56665266666624,
                    "velocity": 0.4015748031496063,
                    "duration": 0.12405083333333522
                },
                {
                    "name": "E4",
                    "midi": 64,
                    "time": 43.66589333333291,
                    "velocity": 0.3858267716535433,
                    "duration": 0.12405083333333522
                },
                {
                    "name": "C4",
                    "midi": 60,
                    "time": 43.76513399999958,
                    "velocity": 0.3937007874015748,
                    "duration": 0.12405083333333522
                },
                {
                    "name": "E4",
                    "midi": 64,
                    "time": 43.864374666666244,
                    "velocity": 0.3779527559055118,
                    "duration": 0.12405083333333522
                },
                {
                    "name": "A#3",
                    "midi": 58,
                    "time": 43.96361533333291,
                    "velocity": 0.3779527559055118,
                    "duration": 0.09924066666666675
                },
                {
                    "name": "E4",
                    "midi": 64,
                    "time": 44.06285599999958,
                    "velocity": 0.4645669291338583,
                    "duration": 0.12405083333333522
                },
                {
                    "name": "A#3",
                    "midi": 58,
                    "time": 44.162096666666244,
                    "velocity": 0.3937007874015748,
                    "duration": 0.12405083333333522
                },
                {
                    "name": "C#4",
                    "midi": 61,
                    "time": 44.26133733333291,
                    "velocity": 0.3779527559055118,
                    "duration": 0.12405083333333522
                },
                {
                    "name": "A3",
                    "midi": 57,
                    "time": 44.36057799999958,
                    "velocity": 0.4015748031496063,
                    "duration": 0.12405083333333522
                },
                {
                    "name": "A#3",
                    "midi": 58,
                    "time": 44.459818666666244,
                    "velocity": 0.3858267716535433,
                    "duration": 0.12405083333333522
                },
                {
                    "name": "G#3",
                    "midi": 56,
                    "time": 44.55905933333291,
                    "velocity": 0.3937007874015748,
                    "duration": 0.09924066666666675
                },
                {
                    "name": "C#4",
                    "midi": 61,
                    "time": 44.65829999999958,
                    "velocity": 0.4015748031496063,
                    "duration": 0.12405083333333522
                },
                {
                    "name": "G#3",
                    "midi": 56,
                    "time": 44.757540666666245,
                    "velocity": 0.3779527559055118,
                    "duration": 0.12405083333333522
                },
                {
                    "name": "A#3",
                    "midi": 58,
                    "time": 44.85678133333291,
                    "velocity": 0.3779527559055118,
                    "duration": 0.12405083333333522
                },
                {
                    "name": "G3",
                    "midi": 55,
                    "time": 44.95602199999958,
                    "velocity": 0.3937007874015748,
                    "duration": 0.12405083333333522
                },
                {
                    "name": "A#3",
                    "midi": 58,
                    "time": 45.055262666666245,
                    "velocity": 0.3779527559055118,
                    "duration": 0.12405083333333522
                },
                {
                    "name": "F#3",
                    "midi": 54,
                    "time": 45.15450333333291,
                    "velocity": 0.3228346456692913,
                    "duration": 0.09924066666666675
                },
                {
                    "name": "F3",
                    "midi": 53,
                    "time": 45.25374399999958,
                    "velocity": 0.4015748031496063,
                    "duration": 0.12405083333333522
                },
                {
                    "name": "G3",
                    "midi": 55,
                    "time": 45.352984666666245,
                    "velocity": 0.36220472440944884,
                    "duration": 0.12405083333333522
                },
                {
                    "name": "A#3",
                    "midi": 58,
                    "time": 45.45222533333291,
                    "velocity": 0.3543307086614173,
                    "duration": 0.12405083333333522
                },
                {
                    "name": "C#4",
                    "midi": 61,
                    "time": 45.55146599999958,
                    "velocity": 0.3543307086614173,
                    "duration": 0.12405083333333522
                },
                {
                    "name": "E3",
                    "midi": 52,
                    "time": 45.650706666666245,
                    "velocity": 0.3543307086614173,
                    "duration": 0.12405083333333522
                },
                {
                    "name": "G3",
                    "midi": 55,
                    "time": 45.74994733333291,
                    "velocity": 0.36220472440944884,
                    "duration": 0.09924066666666675
                },
                {
                    "name": "F3",
                    "midi": 53,
                    "time": 45.84918799999958,
                    "velocity": 0.4015748031496063,
                    "duration": 0.12405083333333522
                },
                {
                    "name": "G3",
                    "midi": 55,
                    "time": 45.948428666666246,
                    "velocity": 0.36220472440944884,
                    "duration": 0.12405083333333522
                },
                {
                    "name": "A#3",
                    "midi": 58,
                    "time": 46.04766933333291,
                    "velocity": 0.3543307086614173,
                    "duration": 0.12405083333333522
                },
                {
                    "name": "C#4",
                    "midi": 61,
                    "time": 46.14690999999958,
                    "velocity": 0.3543307086614173,
                    "duration": 0.12405083333333522
                },
                {
                    "name": "E3",
                    "midi": 52,
                    "time": 46.246150666666246,
                    "velocity": 0.3543307086614173,
                    "duration": 0.12405083333333522
                },
                {
                    "name": "G3",
                    "midi": 55,
                    "time": 46.34539133333291,
                    "velocity": 0.36220472440944884,
                    "duration": 0.08931660000000363
                },
                {
                    "name": "G3",
                    "midi": 55,
                    "time": 46.44463199999958,
                    "velocity": 0.41732283464566927,
                    "duration": 0.12405083333333522
                },
                {
                    "name": "A3",
                    "midi": 57,
                    "time": 46.543872666666246,
                    "velocity": 0.3543307086614173,
                    "duration": 0.12405083333333522
                },
                {
                    "name": "C4",
                    "midi": 60,
                    "time": 46.64311333333291,
                    "velocity": 0.36220472440944884,
                    "duration": 0.12405083333333522
                },
                {
                    "name": "D#4",
                    "midi": 63,
                    "time": 46.74235399999958,
                    "velocity": 0.3700787401574803,
                    "duration": 0.12405083333333522
                },
                {
                    "name": "F#3",
                    "midi": 54,
                    "time": 46.841594666666246,
                    "velocity": 0.3543307086614173,
                    "duration": 0.12405083333333522
                },
                {
                    "name": "A3",
                    "midi": 57,
                    "time": 46.94083533333291,
                    "velocity": 0.3779527559055118,
                    "duration": 0.09924066666666675
                },
                {
                    "name": "G3",
                    "midi": 55,
                    "time": 47.04007599999958,
                    "velocity": 0.41732283464566927,
                    "duration": 0.12405083333333522
                },
                {
                    "name": "A3",
                    "midi": 57,
                    "time": 47.13931666666625,
                    "velocity": 0.3700787401574803,
                    "duration": 0.12405083333333522
                },
                {
                    "name": "C4",
                    "midi": 60,
                    "time": 47.23855733333291,
                    "velocity": 0.36220472440944884,
                    "duration": 0.12405083333333522
                },
                {
                    "name": "D#4",
                    "midi": 63,
                    "time": 47.33779799999958,
                    "velocity": 0.3858267716535433,
                    "duration": 0.12405083333333522
                },
                {
                    "name": "F#3",
                    "midi": 54,
                    "time": 47.43703866666625,
                    "velocity": 0.3779527559055118,
                    "duration": 0.12405083333333522
                },
                {
                    "name": "A3",
                    "midi": 57,
                    "time": 47.536279333332914,
                    "velocity": 0.36220472440944884,
                    "duration": 0.09924066666666675
                },
                {
                    "name": "A#3",
                    "midi": 58,
                    "time": 47.63551999999958,
                    "velocity": 0.4330708661417323,
                    "duration": 0.12405083333333522
                },
                {
                    "name": "C4",
                    "midi": 60,
                    "time": 47.73476066666625,
                    "velocity": 0.3700787401574803,
                    "duration": 0.12405083333333522
                },
                {
                    "name": "D#4",
                    "midi": 63,
                    "time": 47.834001333332914,
                    "velocity": 0.3779527559055118,
                    "duration": 0.12405083333333522
                },
                {
                    "name": "F#4",
                    "midi": 66,
                    "time": 47.93324199999958,
                    "velocity": 0.3858267716535433,
                    "duration": 0.12405083333333522
                },
                {
                    "name": "A3",
                    "midi": 57,
                    "time": 48.03248266666625,
                    "velocity": 0.3779527559055118,
                    "duration": 0.12405083333333522
                },
                {
                    "name": "C4",
                    "midi": 60,
                    "time": 48.131723333332914,
                    "velocity": 0.3543307086614173,
                    "duration": 0.09924066666666675
                },
                {
                    "name": "C#4",
                    "midi": 61,
                    "time": 48.23096399999958,
                    "velocity": 0.3937007874015748,
                    "duration": 0.12405083333333522
                },
                {
                    "name": "D#4",
                    "midi": 63,
                    "time": 48.33020466666625,
                    "velocity": 0.3858267716535433,
                    "duration": 0.12405083333333522
                },
                {
                    "name": "F#4",
                    "midi": 66,
                    "time": 48.429445333332914,
                    "velocity": 0.3779527559055118,
                    "duration": 0.12405083333333522
                },
                {
                    "name": "A4",
                    "midi": 69,
                    "time": 48.52868599999958,
                    "velocity": 0.3858267716535433,
                    "duration": 0.12405083333333522
                },
                {
                    "name": "C4",
                    "midi": 60,
                    "time": 48.62792666666625,
                    "velocity": 0.3858267716535433,
                    "duration": 0.12405083333333522
                },
                {
                    "name": "D#4",
                    "midi": 63,
                    "time": 48.727167333332915,
                    "velocity": 0.3937007874015748,
                    "duration": 0.09924066666666675
                },
                {
                    "name": "C#4",
                    "midi": 61,
                    "time": 48.82640799999958,
                    "velocity": 0.4330708661417323,
                    "duration": 0.12405083333333522
                },
                {
                    "name": "D#4",
                    "midi": 63,
                    "time": 48.92564866666625,
                    "velocity": 0.3858267716535433,
                    "duration": 0.12405083333333522
                },
                {
                    "name": "F#4",
                    "midi": 66,
                    "time": 49.024889333332915,
                    "velocity": 0.3779527559055118,
                    "duration": 0.12405083333333522
                },
                {
                    "name": "A4",
                    "midi": 69,
                    "time": 49.12412999999958,
                    "velocity": 0.3937007874015748,
                    "duration": 0.12405083333333522
                },
                {
                    "name": "C4",
                    "midi": 60,
                    "time": 49.22337066666625,
                    "velocity": 0.3858267716535433,
                    "duration": 0.12405083333333522
                },
                {
                    "name": "D#4",
                    "midi": 63,
                    "time": 49.322611333332915,
                    "velocity": 0.3937007874015748,
                    "duration": 0.09924066666666675
                },
                {
                    "name": "F#4",
                    "midi": 66,
                    "time": 49.42185199999958,
                    "velocity": 0.44881889763779526,
                    "duration": 0.12405083333333522
                },
                {
                    "name": "A#4",
                    "midi": 70,
                    "time": 49.52109266666625,
                    "velocity": 0.4015748031496063,
                    "duration": 0.12405083333333522
                },
                {
                    "name": "C5",
                    "midi": 72,
                    "time": 49.620333333332916,
                    "velocity": 0.4094488188976378,
                    "duration": 0.12405083333333522
                },
                {
                    "name": "D#5",
                    "midi": 75,
                    "time": 49.71957399999958,
                    "velocity": 0.4251968503937008,
                    "duration": 0.12405083333333522
                },
                {
                    "name": "F4",
                    "midi": 65,
                    "time": 49.81881466666625,
                    "velocity": 0.4251968503937008,
                    "duration": 0.12405083333333522
                },
                {
                    "name": "A4",
                    "midi": 69,
                    "time": 49.918055333332916,
                    "velocity": 0.4330708661417323,
                    "duration": 0.09924066666666675
                },
                {
                    "name": "A#4",
                    "midi": 70,
                    "time": 50.01729599999958,
                    "velocity": 0.5118110236220472,
                    "duration": 0.12405083333333522
                },
                {
                    "name": "C#5",
                    "midi": 73,
                    "time": 50.11653666666625,
                    "velocity": 0.4409448818897638,
                    "duration": 0.12405083333333522
                },
                {
                    "name": "F#5",
                    "midi": 78,
                    "time": 50.215777333332916,
                    "velocity": 0.4330708661417323,
                    "duration": 0.12405083333333522
                },
                {
                    "name": "F5",
                    "midi": 77,
                    "time": 50.31501799999958,
                    "velocity": 0.4330708661417323,
                    "duration": 0.12405083333333522
                },
                {
                    "name": "C5",
                    "midi": 72,
                    "time": 50.41425866666625,
                    "velocity": 0.4251968503937008,
                    "duration": 0.12405083333333522
                },
                {
                    "name": "C#5",
                    "midi": 73,
                    "time": 50.513499333332916,
                    "velocity": 0.4330708661417323,
                    "duration": 0.09924066666666675
                },
                {
                    "name": "E5",
                    "midi": 76,
                    "time": 50.61273999999958,
                    "velocity": 0.4881889763779528,
                    "duration": 0.1984813333333335
                },
                {
                    "name": "C5",
                    "midi": 72,
                    "time": 50.71198066666625,
                    "velocity": 0.44881889763779526,
                    "duration": 0.12405083333333522
                },
                {
                    "name": "C#5",
                    "midi": 73,
                    "time": 50.81122133333292,
                    "velocity": 0.4330708661417323,
                    "duration": 0.12405083333333522
                },
                {
                    "name": "A4",
                    "midi": 69,
                    "time": 50.91046199999958,
                    "velocity": 0.4409448818897638,
                    "duration": 0.1984813333333335
                },
                {
                    "name": "A#4",
                    "midi": 70,
                    "time": 51.00970266666625,
                    "velocity": 0.4330708661417323,
                    "duration": 0.12405083333333522
                },
                {
                    "name": "F#4",
                    "midi": 66,
                    "time": 51.10894333333292,
                    "velocity": 0.4015748031496063,
                    "duration": 0.09924066666666675
                },
                {
                    "name": "E4",
                    "midi": 64,
                    "time": 51.208183999999584,
                    "velocity": 0.4409448818897638,
                    "duration": 0.1984813333333335
                },
                {
                    "name": "F4",
                    "midi": 65,
                    "time": 51.30742466666625,
                    "velocity": 0.4015748031496063,
                    "duration": 0.12405083333333522
                },
                {
                    "name": "A#4",
                    "midi": 70,
                    "time": 51.40666533333292,
                    "velocity": 0.4015748031496063,
                    "duration": 0.09924066666666675
                },
                {
                    "name": "G#4",
                    "midi": 68,
                    "time": 51.505905999999584,
                    "velocity": 0.4409448818897638,
                    "duration": 0.1984813333333335
                },
                {
                    "name": "A4",
                    "midi": 69,
                    "time": 51.60514666666625,
                    "velocity": 0.4015748031496063,
                    "duration": 0.12405083333333522
                },
                {
                    "name": "C#5",
                    "midi": 73,
                    "time": 51.70438733333292,
                    "velocity": 0.4015748031496063,
                    "duration": 0.09924066666666675
                },
                {
                    "name": "A4",
                    "midi": 69,
                    "time": 51.803627999999584,
                    "velocity": 0.4566929133858268,
                    "duration": 0.1984813333333335
                },
                {
                    "name": "A#4",
                    "midi": 70,
                    "time": 51.90286866666625,
                    "velocity": 0.4330708661417323,
                    "duration": 0.12405083333333522
                },
                {
                    "name": "C#5",
                    "midi": 73,
                    "time": 52.00210933333292,
                    "velocity": 0.4409448818897638,
                    "duration": 0.09924066666666675
                },
                {
                    "name": "B4",
                    "midi": 71,
                    "time": 52.101349999999584,
                    "velocity": 0.4645669291338583,
                    "duration": 0.1984813333333335
                },
                {
                    "name": "C5",
                    "midi": 72,
                    "time": 52.20059066666625,
                    "velocity": 0.4409448818897638,
                    "duration": 0.12405083333333522
                },
                {
                    "name": "F5",
                    "midi": 77,
                    "time": 52.29983133333292,
                    "velocity": 0.41732283464566927,
                    "duration": 0.09924066666666675
                },
                {
                    "name": "G#4",
                    "midi": 68,
                    "time": 52.399071999999585,
                    "velocity": 0.5118110236220472,
                    "duration": 0.12405083333333522
                },
                {
                    "name": "B4",
                    "midi": 71,
                    "time": 52.49831266666625,
                    "velocity": 0.4645669291338583,
                    "duration": 0.12405083333333522
                },
                {
                    "name": "E5",
                    "midi": 76,
                    "time": 52.59755333333292,
                    "velocity": 0.4409448818897638,
                    "duration": 0.12405083333333522
                },
                {
                    "name": "D#5",
                    "midi": 75,
                    "time": 52.696793999999585,
                    "velocity": 0.4881889763779528,
                    "duration": 0.12405083333333522
                },
                {
                    "name": "A#4",
                    "midi": 70,
                    "time": 52.79603466666625,
                    "velocity": 0.4566929133858268,
                    "duration": 0.12405083333333522
                },
                {
                    "name": "B4",
                    "midi": 71,
                    "time": 52.89527533333292,
                    "velocity": 0.4251968503937008,
                    "duration": 0.09924066666666675
                },
                {
                    "name": "D5",
                    "midi": 74,
                    "time": 52.994515999999585,
                    "velocity": 0.4881889763779528,
                    "duration": 0.1984813333333335
                },
                {
                    "name": "A#4",
                    "midi": 70,
                    "time": 53.09375666666625,
                    "velocity": 0.4409448818897638,
                    "duration": 0.12405083333333522
                },
                {
                    "name": "B4",
                    "midi": 71,
                    "time": 53.19299733333292,
                    "velocity": 0.41732283464566927,
                    "duration": 0.12405083333333522
                },
                {
                    "name": "G4",
                    "midi": 67,
                    "time": 53.292237999999585,
                    "velocity": 0.4566929133858268,
                    "duration": 0.1984813333333335
                },
                {
                    "name": "G#4",
                    "midi": 68,
                    "time": 53.39147866666625,
                    "velocity": 0.4015748031496063,
                    "duration": 0.12405083333333522
                },
                {
                    "name": "E4",
                    "midi": 64,
                    "time": 53.49071933333292,
                    "velocity": 0.4015748031496063,
                    "duration": 0.09924066666666675
                },
                {
                    "name": "D4",
                    "midi": 62,
                    "time": 53.589959999999586,
                    "velocity": 0.4409448818897638,
                    "duration": 0.1984813333333335
                },
                {
                    "name": "D#4",
                    "midi": 63,
                    "time": 53.68920066666625,
                    "velocity": 0.4015748031496063,
                    "duration": 0.12405083333333522
                },
                {
                    "name": "G#4",
                    "midi": 68,
                    "time": 53.78844133333292,
                    "velocity": 0.4015748031496063,
                    "duration": 0.09924066666666675
                },
                {
                    "name": "E4",
                    "midi": 64,
                    "time": 53.887681999999586,
                    "velocity": 0.4409448818897638,
                    "duration": 0.1984813333333335
                },
                {
                    "name": "F4",
                    "midi": 65,
                    "time": 53.98692266666625,
                    "velocity": 0.41732283464566927,
                    "duration": 0.12405083333333522
                },
                {
                    "name": "B4",
                    "midi": 71,
                    "time": 54.08616333333292,
                    "velocity": 0.4251968503937008,
                    "duration": 0.09924066666666675
                },
                {
                    "name": "F4",
                    "midi": 65,
                    "time": 54.185403999999586,
                    "velocity": 0.48031496062992124,
                    "duration": 0.1984813333333335
                },
                {
                    "name": "F#4",
                    "midi": 66,
                    "time": 54.28464466666625,
                    "velocity": 0.4330708661417323,
                    "duration": 0.12405083333333522
                },
                {
                    "name": "B4",
                    "midi": 71,
                    "time": 54.38388533333292,
                    "velocity": 0.4409448818897638,
                    "duration": 0.09924066666666675
                },
                {
                    "name": "A4",
                    "midi": 69,
                    "time": 54.48312599999959,
                    "velocity": 0.5039370078740157,
                    "duration": 0.1984813333333335
                },
                {
                    "name": "A#4",
                    "midi": 70,
                    "time": 54.58236666666625,
                    "velocity": 0.4409448818897638,
                    "duration": 0.12405083333333522
                },
                {
                    "name": "D#5",
                    "midi": 75,
                    "time": 54.68160733333292,
                    "velocity": 0.4566929133858268,
                    "duration": 0.09924066666666675
                },
                {
                    "name": "C#5",
                    "midi": 73,
                    "time": 54.78084799999959,
                    "velocity": 0.5039370078740157,
                    "duration": 0.12405083333333522
                },
                {
                    "name": "C5",
                    "midi": 72,
                    "time": 54.88008866666625,
                    "velocity": 0.41732283464566927,
                    "duration": 0.12405083333333522
                },
                {
                    "name": "B4",
                    "midi": 71,
                    "time": 54.97932933333292,
                    "velocity": 0.3700787401574803,
                    "duration": 0.12405083333333522
                },
                {
                    "name": "A#4",
                    "midi": 70,
                    "time": 55.07856999999959,
                    "velocity": 0.4409448818897638,
                    "duration": 0.12405083333333522
                },
                {
                    "name": "A4",
                    "midi": 69,
                    "time": 55.177810666666254,
                    "velocity": 0.4094488188976378,
                    "duration": 0.12405083333333522
                },
                {
                    "name": "F5",
                    "midi": 77,
                    "time": 55.27705133333292,
                    "velocity": 0.4409448818897638,
                    "duration": 0.09924066666666675
                },
                {
                    "name": "D#5",
                    "midi": 75,
                    "time": 55.37629199999959,
                    "velocity": 0.5039370078740157,
                    "duration": 0.12405083333333522
                },
                {
                    "name": "D5",
                    "midi": 74,
                    "time": 55.475532666666254,
                    "velocity": 0.4330708661417323,
                    "duration": 0.12405083333333522
                },
                {
                    "name": "C#5",
                    "midi": 73,
                    "time": 55.57477333333292,
                    "velocity": 0.4330708661417323,
                    "duration": 0.12405083333333522
                },
                {
                    "name": "C5",
                    "midi": 72,
                    "time": 55.67401399999959,
                    "velocity": 0.44881889763779526,
                    "duration": 0.12405083333333522
                },
                {
                    "name": "A#4",
                    "midi": 70,
                    "time": 55.773254666666254,
                    "velocity": 0.4251968503937008,
                    "duration": 0.12405083333333522
                },
                {
                    "name": "F#5",
                    "midi": 78,
                    "time": 55.87249533333292,
                    "velocity": 0.4566929133858268,
                    "duration": 0.09924066666666675
                },
                {
                    "name": "F5",
                    "midi": 77,
                    "time": 55.97173599999959,
                    "velocity": 0.5275590551181102,
                    "duration": 0.12405083333333522
                },
                {
                    "name": "D#5",
                    "midi": 75,
                    "time": 56.070976666666255,
                    "velocity": 0.4645669291338583,
                    "duration": 0.12405083333333522
                },
                {
                    "name": "D5",
                    "midi": 74,
                    "time": 56.17021733333292,
                    "velocity": 0.4409448818897638,
                    "duration": 0.12405083333333522
                },
                {
                    "name": "C#5",
                    "midi": 73,
                    "time": 56.26945799999959,
                    "velocity": 0.47244094488188976,
                    "duration": 0.12405083333333522
                },
                {
                    "name": "C5",
                    "midi": 72,
                    "time": 56.368698666666255,
                    "velocity": 0.4566929133858268,
                    "duration": 0.12405083333333522
                },
                {
                    "name": "A5",
                    "midi": 81,
                    "time": 56.46793933333292,
                    "velocity": 0.49606299212598426,
                    "duration": 0.09924066666666675
                },
                {
                    "name": "C5",
                    "midi": 72,
                    "time": 56.56717999999959,
                    "velocity": 0.5354330708661418,
                    "duration": 0.1984813333333335
                },
                {
                    "name": "C#5",
                    "midi": 73,
                    "time": 56.666420666666255,
                    "velocity": 0.4881889763779528,
                    "duration": 0.12405083333333522
                },
                {
                    "name": "A#5",
                    "midi": 82,
                    "time": 56.76566133333292,
                    "velocity": 0.4881889763779528,
                    "duration": 0.09924066666666675
                },
                {
                    "name": "D5",
                    "midi": 74,
                    "time": 56.86490199999959,
                    "velocity": 0.5590551181102362,
                    "duration": 0.1984813333333335
                },
                {
                    "name": "D#5",
                    "midi": 75,
                    "time": 56.964142666666255,
                    "velocity": 0.4881889763779528,
                    "duration": 0.12405083333333522
                },
                {
                    "name": "A#5",
                    "midi": 82,
                    "time": 57.06338333333292,
                    "velocity": 0.5275590551181102,
                    "duration": 0.09924066666666675
                },
                {
                    "name": "C6",
                    "midi": 84,
                    "time": 57.16262399999959,
                    "velocity": 0.5669291338582677,
                    "duration": 0.12405083333333522
                },
                {
                    "name": "A#5",
                    "midi": 82,
                    "time": 57.261864666666256,
                    "velocity": 0.47244094488188976,
                    "duration": 0.12405083333333522
                },
                {
                    "name": "G#5",
                    "midi": 80,
                    "time": 57.36110533333292,
                    "velocity": 0.4409448818897638,
                    "duration": 0.12405083333333522
                },
                {
                    "name": "F#5",
                    "midi": 78,
                    "time": 57.46034599999959,
                    "velocity": 0.4881889763779528,
                    "duration": 0.12405083333333522
                },
                {
                    "name": "F5",
                    "midi": 77,
                    "time": 57.559586666666256,
                    "velocity": 0.47244094488188976,
                    "duration": 0.12405083333333522
                },
                {
                    "name": "E5",
                    "midi": 76,
                    "time": 57.65882733333292,
                    "velocity": 0.47244094488188976,
                    "duration": 0.09924066666666675
                },
                {
                    "name": "C6",
                    "midi": 84,
                    "time": 57.75806799999959,
                    "velocity": 0.5669291338582677,
                    "duration": 0.12405083333333522
                },
                {
                    "name": "A#5",
                    "midi": 82,
                    "time": 57.857308666666256,
                    "velocity": 0.4881889763779528,
                    "duration": 0.12405083333333522
                },
                {
                    "name": "G#5",
                    "midi": 80,
                    "time": 57.95654933333292,
                    "velocity": 0.4645669291338583,
                    "duration": 0.12405083333333522
                },
                {
                    "name": "F#5",
                    "midi": 78,
                    "time": 58.05578999999959,
                    "velocity": 0.49606299212598426,
                    "duration": 0.12405083333333522
                },
                {
                    "name": "F5",
                    "midi": 77,
                    "time": 58.155030666666256,
                    "velocity": 0.4645669291338583,
                    "duration": 0.12405083333333522
                },
                {
                    "name": "E5",
                    "midi": 76,
                    "time": 58.25427133333292,
                    "velocity": 0.4566929133858268,
                    "duration": 0.09924066666666675
                },
                {
                    "name": "F#5",
                    "midi": 78,
                    "time": 58.35351199999959,
                    "velocity": 0.5275590551181102,
                    "duration": 0.12405083333333522
                },
                {
                    "name": "F5",
                    "midi": 77,
                    "time": 58.45275266666626,
                    "velocity": 0.4566929133858268,
                    "duration": 0.12405083333333522
                },
                {
                    "name": "E5",
                    "midi": 76,
                    "time": 58.55199333333292,
                    "velocity": 0.4409448818897638,
                    "duration": 0.12405083333333522
                },
                {
                    "name": "D#5",
                    "midi": 75,
                    "time": 58.65123399999959,
                    "velocity": 0.47244094488188976,
                    "duration": 0.12405083333333522
                },
                {
                    "name": "D5",
                    "midi": 74,
                    "time": 58.75047466666626,
                    "velocity": 0.4409448818897638,
                    "duration": 0.12405083333333522
                },
                {
                    "name": "C#5",
                    "midi": 73,
                    "time": 58.849715333332924,
                    "velocity": 0.4330708661417323,
                    "duration": 0.09924066666666675
                },
                {
                    "name": "D#5",
                    "midi": 75,
                    "time": 58.94895599999959,
                    "velocity": 0.4566929133858268,
                    "duration": 0.12405083333333522
                },
                {
                    "name": "B4",
                    "midi": 71,
                    "time": 59.04819666666626,
                    "velocity": 0.4251968503937008,
                    "duration": 0.12405083333333522
                },
                {
                    "name": "C5",
                    "midi": 72,
                    "time": 59.147437333332924,
                    "velocity": 0.3937007874015748,
                    "duration": 0.12405083333333522
                },
                {
                    "name": "C#5",
                    "midi": 73,
                    "time": 59.24667799999959,
                    "velocity": 0.4015748031496063,
                    "duration": 0.12405083333333522
                },
                {
                    "name": "A4",
                    "midi": 69,
                    "time": 59.34591866666626,
                    "velocity": 0.3700787401574803,
                    "duration": 0.12405083333333522
                },
                {
                    "name": "A#4",
                    "midi": 70,
                    "time": 59.445159333332924,
                    "velocity": 0.3937007874015748,
                    "duration": 0.09924066666666675
                },
                {
                    "name": "C5",
                    "midi": 72,
                    "time": 59.54439999999959,
                    "velocity": 0.41732283464566927,
                    "duration": 0.1984813333333335
                },
                {
                    "name": "G4",
                    "midi": 67,
                    "time": 59.64364066666626,
                    "velocity": 0.3543307086614173,
                    "duration": 0.12405083333333522
                },
                {
                    "name": "G#4",
                    "midi": 68,
                    "time": 59.742881333332924,
                    "velocity": 0.3543307086614173,
                    "duration": 0.12405083333333522
                },
                {
                    "name": "B4",
                    "midi": 71,
                    "time": 59.84212199999959,
                    "velocity": 0.36220472440944884,
                    "duration": 0.1984813333333335
                },
                {
                    "name": "F#4",
                    "midi": 66,
                    "time": 59.94136266666626,
                    "velocity": 0.33070866141732286,
                    "duration": 0.12405083333333522
                },
                {
                    "name": "D#5",
                    "midi": 75,
                    "time": 60.040603333332925,
                    "velocity": 0.30708661417322836,
                    "duration": 0.09924066666666675
                },
                {
                    "name": "A#4",
                    "midi": 70,
                    "time": 60.13984399999959,
                    "velocity": 0.36220472440944884,
                    "duration": 0.1984813333333335
                },
                {
                    "name": "F4",
                    "midi": 65,
                    "time": 60.23908466666626,
                    "velocity": 0.33070866141732286,
                    "duration": 0.12405083333333522
                },
                {
                    "name": "F#4",
                    "midi": 66,
                    "time": 60.338325333332925,
                    "velocity": 0.3543307086614173,
                    "duration": 0.12405083333333522
                },
                {
                    "name": "A4",
                    "midi": 69,
                    "time": 60.43756599999959,
                    "velocity": 0.33858267716535434,
                    "duration": 0.1984813333333335
                },
                {
                    "name": "E4",
                    "midi": 64,
                    "time": 60.53680666666626,
                    "velocity": 0.3228346456692913,
                    "duration": 0.12405083333333522
                },
                {
                    "name": "C#5",
                    "midi": 73,
                    "time": 60.636047333332925,
                    "velocity": 0.30708661417322836,
                    "duration": 0.09924066666666675
                },
                {
                    "name": "G#4",
                    "midi": 68,
                    "time": 60.73528799999959,
                    "velocity": 0.4015748031496063,
                    "duration": 0.1984813333333335
                },
                {
                    "name": "D#4",
                    "midi": 63,
                    "time": 60.83452866666626,
                    "velocity": 0.3464566929133858,
                    "duration": 0.12405083333333522
                },
                {
                    "name": "E4",
                    "midi": 64,
                    "time": 60.933769333332926,
                    "velocity": 0.3464566929133858,
                    "duration": 0.12405083333333522
                },
                {
                    "name": "G4",
                    "midi": 67,
                    "time": 61.03300999999959,
                    "velocity": 0.33858267716535434,
                    "duration": 0.1984813333333335
                },
                {
                    "name": "D4",
                    "midi": 62,
                    "time": 61.13225066666626,
                    "velocity": 0.3228346456692913,
                    "duration": 0.12405083333333522
                },
                {
                    "name": "B4",
                    "midi": 71,
                    "time": 61.231491333332926,
                    "velocity": 0.3228346456692913,
                    "duration": 0.09924066666666675
                },
                {
                    "name": "F#4",
                    "midi": 66,
                    "time": 61.33073199999959,
                    "velocity": 0.3700787401574803,
                    "duration": 0.1984813333333335
                },
                {
                    "name": "C#4",
                    "midi": 61,
                    "time": 61.42997266666626,
                    "velocity": 0.31496062992125984,
                    "duration": 0.12405083333333522
                },
                {
                    "name": "D4",
                    "midi": 62,
                    "time": 61.529213333332926,
                    "velocity": 0.31496062992125984,
                    "duration": 0.12405083333333522
                },
                {
                    "name": "F4",
                    "midi": 65,
                    "time": 61.62845399999959,
                    "velocity": 0.3464566929133858,
                    "duration": 0.1984813333333335
                },
                {
                    "name": "C4",
                    "midi": 60,
                    "time": 61.72769466666626,
                    "velocity": 0.2992125984251969,
                    "duration": 0.12405083333333522
                },
                {
                    "name": "A4",
                    "midi": 69,
                    "time": 61.826935333332926,
                    "velocity": 0.31496062992125984,
                    "duration": 0.09924066666666675
                },
                {
                    "name": "D5",
                    "midi": 74,
                    "time": 61.92617599999959,
                    "velocity": 0.3858267716535433,
                    "duration": 0.1984813333333335
                },
                {
                    "name": "A4",
                    "midi": 69,
                    "time": 62.02541666666626,
                    "velocity": 0.33070866141732286,
                    "duration": 0.12405083333333522
                },
                {
                    "name": "A#4",
                    "midi": 70,
                    "time": 62.12465733333293,
                    "velocity": 0.3543307086614173,
                    "duration": 0.12405083333333522
                },
                {
                    "name": "C#5",
                    "midi": 73,
                    "time": 62.22389799999959,
                    "velocity": 0.3779527559055118,
                    "duration": 0.1984813333333335
                },
                {
                    "name": "G#4",
                    "midi": 68,
                    "time": 62.32313866666626,
                    "velocity": 0.33070866141732286,
                    "duration": 0.12405083333333522
                },
                {
                    "name": "F5",
                    "midi": 77,
                    "time": 62.42237933333293,
                    "velocity": 0.30708661417322836,
                    "duration": 0.09924066666666675
                },
                {
                    "name": "C5",
                    "midi": 72,
                    "time": 62.521619999999594,
                    "velocity": 0.3700787401574803,
                    "duration": 0.1984813333333335
                },
                {
                    "name": "G4",
                    "midi": 67,
                    "time": 62.62086066666626,
                    "velocity": 0.33070866141732286,
                    "duration": 0.12405083333333522
                },
                {
                    "name": "G#4",
                    "midi": 68,
                    "time": 62.72010133333293,
                    "velocity": 0.33070866141732286,
                    "duration": 0.12405083333333522
                },
                {
                    "name": "B4",
                    "midi": 71,
                    "time": 62.819341999999594,
                    "velocity": 0.3464566929133858,
                    "duration": 0.1984813333333335
                },
                {
                    "name": "F#4",
                    "midi": 66,
                    "time": 62.91858266666626,
                    "velocity": 0.33858267716535434,
                    "duration": 0.12405083333333522
                },
                {
                    "name": "D#5",
                    "midi": 75,
                    "time": 63.01782333333293,
                    "velocity": 0.30708661417322836,
                    "duration": 0.09924066666666675
                },
                {
                    "name": "A#4",
                    "midi": 70,
                    "time": 63.117063999999594,
                    "velocity": 0.3700787401574803,
                    "duration": 0.1984813333333335
                },
                {
                    "name": "F4",
                    "midi": 65,
                    "time": 63.21630466666626,
                    "velocity": 0.30708661417322836,
                    "duration": 0.12405083333333522
                },
                {
                    "name": "F#4",
                    "midi": 66,
                    "time": 63.31554533333293,
                    "velocity": 0.3228346456692913,
                    "duration": 0.12405083333333522
                },
                {
                    "name": "A4",
                    "midi": 69,
                    "time": 63.414785999999594,
                    "velocity": 0.3228346456692913,
                    "duration": 0.1984813333333335
                },
                {
                    "name": "E4",
                    "midi": 64,
                    "time": 63.51402666666626,
                    "velocity": 0.30708661417322836,
                    "duration": 0.12405083333333522
                },
                {
                    "name": "C#5",
                    "midi": 73,
                    "time": 63.61326733333293,
                    "velocity": 0.30708661417322836,
                    "duration": 0.09924066666666675
                },
                {
                    "name": "G#4",
                    "midi": 68,
                    "time": 63.712507999999595,
                    "velocity": 0.3464566929133858,
                    "duration": 0.1984813333333335
                },
                {
                    "name": "D#4",
                    "midi": 63,
                    "time": 63.81174866666626,
                    "velocity": 0.30708661417322836,
                    "duration": 0.12405083333333522
                },
                {
                    "name": "E4",
                    "midi": 64,
                    "time": 63.91098933333293,
                    "velocity": 0.3228346456692913,
                    "duration": 0.12405083333333522
                },
                {
                    "name": "G4",
                    "midi": 67,
                    "time": 64.0102299999996,
                    "velocity": 0.33070866141732286,
                    "duration": 0.1984813333333335
                },
                {
                    "name": "D4",
                    "midi": 62,
                    "time": 64.10947066666627,
                    "velocity": 0.30708661417322836,
                    "duration": 0.12405083333332811
                },
                {
                    "name": "B4",
                    "midi": 71,
                    "time": 64.20871133333293,
                    "velocity": 0.33858267716535434,
                    "duration": 0.09924066666667386
                },
                {
                    "name": "E5",
                    "midi": 76,
                    "time": 64.3079519999996,
                    "velocity": 0.41732283464566927,
                    "duration": 0.1984813333333193
                },
                {
                    "name": "B4",
                    "midi": 71,
                    "time": 64.40719266666626,
                    "velocity": 0.30708661417322836,
                    "duration": 0.12405083333332811
                },
                {
                    "name": "C5",
                    "midi": 72,
                    "time": 64.50643333333292,
                    "velocity": 0.3543307086614173,
                    "duration": 0.12405083333334233
                },
                {
                    "name": "D#5",
                    "midi": 75,
                    "time": 64.6056739999996,
                    "velocity": 0.3543307086614173,
                    "duration": 0.1984813333333335
                },
                {
                    "name": "A#4",
                    "midi": 70,
                    "time": 64.70491466666627,
                    "velocity": 0.30708661417322836,
                    "duration": 0.12405083333332811
                },
                {
                    "name": "G5",
                    "midi": 79,
                    "time": 64.80415533333293,
                    "velocity": 0.33070866141732286,
                    "duration": 0.09924066666667386
                },
                {
                    "name": "D5",
                    "midi": 74,
                    "time": 64.9033959999996,
                    "velocity": 0.4015748031496063,
                    "duration": 0.1984813333333193
                },
                {
                    "name": "A4",
                    "midi": 69,
                    "time": 65.00263666666626,
                    "velocity": 0.2992125984251969,
                    "duration": 0.12405083333332811
                },
                {
                    "name": "A#4",
                    "midi": 70,
                    "time": 65.10187733333292,
                    "velocity": 0.33070866141732286,
                    "duration": 0.12405083333334233
                },
                {
                    "name": "C#5",
                    "midi": 73,
                    "time": 65.2011179999996,
                    "velocity": 0.33858267716535434,
                    "duration": 0.1984813333333335
                },
                {
                    "name": "G#4",
                    "midi": 68,
                    "time": 65.30035866666627,
                    "velocity": 0.2992125984251969,
                    "duration": 0.12405083333332811
                },
                {
                    "name": "F5",
                    "midi": 77,
                    "time": 65.39959933333293,
                    "velocity": 0.30708661417322836,
                    "duration": 0.09924066666667386
                },
                {
                    "name": "C5",
                    "midi": 72,
                    "time": 65.4988399999996,
                    "velocity": 0.3858267716535433,
                    "duration": 0.1984813333333193
                },
                {
                    "name": "G4",
                    "midi": 67,
                    "time": 65.59808066666626,
                    "velocity": 0.2992125984251969,
                    "duration": 0.12405083333332811
                },
                {
                    "name": "G#4",
                    "midi": 68,
                    "time": 65.69732133333292,
                    "velocity": 0.30708661417322836,
                    "duration": 0.12405083333334233
                },
                {
                    "name": "B4",
                    "midi": 71,
                    "time": 65.7965619999996,
                    "velocity": 0.30708661417322836,
                    "duration": 0.1984813333333335
                },
                {
                    "name": "F#4",
                    "midi": 66,
                    "time": 65.89580266666627,
                    "velocity": 0.28346456692913385,
                    "duration": 0.12405083333332811
                },
                {
                    "name": "D#5",
                    "midi": 75,
                    "time": 65.99504333333293,
                    "velocity": 0.29133858267716534,
                    "duration": 0.09924066666667386
                },
                {
                    "name": "A#4",
                    "midi": 70,
                    "time": 66.0942839999996,
                    "velocity": 0.3700787401574803,
                    "duration": 0.1984813333333193
                },
                {
                    "name": "F4",
                    "midi": 65,
                    "time": 66.19352466666626,
                    "velocity": 0.28346456692913385,
                    "duration": 0.12405083333332811
                },
                {
                    "name": "D#5",
                    "midi": 75,
                    "time": 66.29276533333292,
                    "velocity": 0.30708661417322836,
                    "duration": 0.12405083333334233
                },
                {
                    "name": "A#4",
                    "midi": 70,
                    "time": 66.3920059999996,
                    "velocity": 0.3228346456692913,
                    "duration": 0.1984813333333335
                },
                {
                    "name": "F4",
                    "midi": 65,
                    "time": 66.49124666666627,
                    "velocity": 0.2677165354330709,
                    "duration": 0.12405083333332811
                },
                {
                    "name": "C#5",
                    "midi": 73,
                    "time": 66.59048733333293,
                    "velocity": 0.30708661417322836,
                    "duration": 0.09924066666667386
                },
                {
                    "name": "F#4",
                    "midi": 66,
                    "time": 66.6897279999996,
                    "velocity": 0.3858267716535433,
                    "duration": 0.12405083333332811
                },
                {
                    "name": "F4",
                    "midi": 65,
                    "time": 66.78896866666626,
                    "velocity": 0.33070866141732286,
                    "duration": 0.12405083333334233
                },
                {
                    "name": "E4",
                    "midi": 64,
                    "time": 66.88820933333294,
                    "velocity": 0.30708661417322836,
                    "duration": 0.12405083333334233
                },
                {
                    "name": "D#4",
                    "midi": 63,
                    "time": 66.98744999999961,
                    "velocity": 0.33858267716535434,
                    "duration": 0.12405083333334233
                },
                {
                    "name": "C#4",
                    "midi": 61,
                    "time": 67.08669066666629,
                    "velocity": 0.33858267716535434,
                    "duration": 0.12405083333334233
                },
                {
                    "name": "C4",
                    "midi": 60,
                    "time": 67.18593133333296,
                    "velocity": 0.33070866141732286,
                    "duration": 0.09924066666667386
                },
                {
                    "name": "F#4",
                    "midi": 66,
                    "time": 67.28517199999963,
                    "velocity": 0.3858267716535433,
                    "duration": 0.12405083333332811
                },
                {
                    "name": "F4",
                    "midi": 65,
                    "time": 67.3844126666663,
                    "velocity": 0.33070866141732286,
                    "duration": 0.12405083333334233
                },
                {
                    "name": "D#4",
                    "midi": 63,
                    "time": 67.48365333333297,
                    "velocity": 0.33070866141732286,
                    "duration": 0.12405083333334233
                },
                {
                    "name": "C#4",
                    "midi": 61,
                    "time": 67.58289399999964,
                    "velocity": 0.3543307086614173,
                    "duration": 0.12405083333334233
                },
                {
                    "name": "C4",
                    "midi": 60,
                    "time": 67.68213466666631,
                    "velocity": 0.3464566929133858,
                    "duration": 0.12405083333334233
                },
                {
                    "name": "A#3",
                    "midi": 58,
                    "time": 67.78137533333299,
                    "velocity": 0.33070866141732286,
                    "duration": 0.09924066666667386
                },
                {
                    "name": "F#4",
                    "midi": 66,
                    "time": 67.88061599999966,
                    "velocity": 0.3858267716535433,
                    "duration": 0.12405083333332811
                },
                {
                    "name": "F4",
                    "midi": 65,
                    "time": 67.97985666666632,
                    "velocity": 0.3543307086614173,
                    "duration": 0.12405083333334233
                },
                {
                    "name": "D#4",
                    "midi": 63,
                    "time": 68.079097333333,
                    "velocity": 0.33070866141732286,
                    "duration": 0.12405083333334233
                },
                {
                    "name": "C#4",
                    "midi": 61,
                    "time": 68.17833799999967,
                    "velocity": 0.3543307086614173,
                    "duration": 0.12405083333334233
                },
                {
                    "name": "C4",
                    "midi": 60,
                    "time": 68.27757866666634,
                    "velocity": 0.3464566929133858,
                    "duration": 0.12405083333334233
                },
                {
                    "name": "B3",
                    "midi": 59,
                    "time": 68.37681933333302,
                    "velocity": 0.33070866141732286,
                    "duration": 0.09924066666667386
                },
                {
                    "name": "F#4",
                    "midi": 66,
                    "time": 68.47605999999969,
                    "velocity": 0.3858267716535433,
                    "duration": 0.12405083333332811
                },
                {
                    "name": "F4",
                    "midi": 65,
                    "time": 68.57530066666635,
                    "velocity": 0.3543307086614173,
                    "duration": 0.12405083333334233
                },
                {
                    "name": "D#4",
                    "midi": 63,
                    "time": 68.67454133333302,
                    "velocity": 0.33070866141732286,
                    "duration": 0.12405083333334233
                },
                {
                    "name": "C#4",
                    "midi": 61,
                    "time": 68.7737819999997,
                    "velocity": 0.3543307086614173,
                    "duration": 0.12405083333334233
                },
                {
                    "name": "B3",
                    "midi": 59,
                    "time": 68.87302266666637,
                    "velocity": 0.3464566929133858,
                    "duration": 0.12405083333334233
                },
                {
                    "name": "A#3",
                    "midi": 58,
                    "time": 68.97226333333305,
                    "velocity": 0.33070866141732286,
                    "duration": 0.09924066666667386
                },
                {
                    "name": "A3",
                    "midi": 57,
                    "time": 69.07150399999972,
                    "velocity": 0.3543307086614173,
                    "duration": 0.12405083333332811
                },
                {
                    "name": "A#3",
                    "midi": 58,
                    "time": 69.17074466666638,
                    "velocity": 0.33858267716535434,
                    "duration": 0.12405083333334233
                },
                {
                    "name": "C4",
                    "midi": 60,
                    "time": 69.26998533333305,
                    "velocity": 0.33858267716535434,
                    "duration": 0.12405083333334233
                },
                {
                    "name": "D#4",
                    "midi": 63,
                    "time": 69.36922599999973,
                    "velocity": 0.3464566929133858,
                    "duration": 0.12405083333334233
                },
                {
                    "name": "C#4",
                    "midi": 61,
                    "time": 69.4684666666664,
                    "velocity": 0.3228346456692913,
                    "duration": 0.12405083333334233
                },
                {
                    "name": "A3",
                    "midi": 57,
                    "time": 69.56770733333308,
                    "velocity": 0.31496062992125984,
                    "duration": 0.09924066666667386
                },
                {
                    "name": "C4",
                    "midi": 60,
                    "time": 69.66694799999975,
                    "velocity": 0.3543307086614173,
                    "duration": 0.12405083333332811
                },
                {
                    "name": "A#3",
                    "midi": 58,
                    "time": 69.76618866666641,
                    "velocity": 0.31496062992125984,
                    "duration": 0.12405083333334233
                },
                {
                    "name": "F3",
                    "midi": 53,
                    "time": 69.86542933333308,
                    "velocity": 0.31496062992125984,
                    "duration": 0.12405083333334233
                },
                {
                    "name": "G#3",
                    "midi": 56,
                    "time": 69.96466999999976,
                    "velocity": 0.3228346456692913,
                    "duration": 0.12405083333334233
                },
                {
                    "name": "F#3",
                    "midi": 54,
                    "time": 70.06391066666643,
                    "velocity": 0.31496062992125984,
                    "duration": 0.12405083333334233
                },
                {
                    "name": "F3",
                    "midi": 53,
                    "time": 70.1631513333331,
                    "velocity": 0.31496062992125984,
                    "duration": 0.09924066666667386
                },
                {
                    "name": "D#3",
                    "midi": 51,
                    "time": 70.26239199999978,
                    "velocity": 0.3543307086614173,
                    "duration": 0.12405083333332811
                },
                {
                    "name": "F3",
                    "midi": 53,
                    "time": 70.36163266666644,
                    "velocity": 0.33858267716535434,
                    "duration": 0.12405083333334233
                },
                {
                    "name": "F#3",
                    "midi": 54,
                    "time": 70.46087333333311,
                    "velocity": 0.33858267716535434,
                    "duration": 0.12405083333334233
                },
                {
                    "name": "A#3",
                    "midi": 58,
                    "time": 70.56011399999979,
                    "velocity": 0.3464566929133858,
                    "duration": 0.12405083333334233
                },
                {
                    "name": "G#3",
                    "midi": 56,
                    "time": 70.65935466666646,
                    "velocity": 0.3228346456692913,
                    "duration": 0.12405083333334233
                },
                {
                    "name": "F#3",
                    "midi": 54,
                    "time": 70.75859533333313,
                    "velocity": 0.31496062992125984,
                    "duration": 0.09924066666667386
                },
                {
                    "name": "F3",
                    "midi": 53,
                    "time": 70.8578359999998,
                    "velocity": 0.3464566929133858,
                    "duration": 0.12405083333332811
                },
                {
                    "name": "C#3",
                    "midi": 49,
                    "time": 70.95707666666647,
                    "velocity": 0.31496062992125984,
                    "duration": 0.12405083333334233
                },
                {
                    "name": "D#3",
                    "midi": 51,
                    "time": 71.05631733333314,
                    "velocity": 0.31496062992125984,
                    "duration": 0.12405083333334233
                },
                {
                    "name": "F3",
                    "midi": 53,
                    "time": 71.15555799999981,
                    "velocity": 0.33858267716535434,
                    "duration": 0.12405083333334233
                },
                {
                    "name": "E3",
                    "midi": 52,
                    "time": 71.25479866666649,
                    "velocity": 0.31496062992125984,
                    "duration": 0.12405083333334233
                },
                {
                    "name": "F3",
                    "midi": 53,
                    "time": 71.35403933333316,
                    "velocity": 0.31496062992125984,
                    "duration": 0.09924066666667386
                },
                {
                    "name": "F#3",
                    "midi": 54,
                    "time": 71.45327999999984,
                    "velocity": 0.3464566929133858,
                    "duration": 0.12405083333332811
                },
                {
                    "name": "F3",
                    "midi": 53,
                    "time": 71.5525206666665,
                    "velocity": 0.30708661417322836,
                    "duration": 0.12405083333334233
                },
                {
                    "name": "E3",
                    "midi": 52,
                    "time": 71.65176133333317,
                    "velocity": 0.30708661417322836,
                    "duration": 0.12405083333334233
                },
                {
                    "name": "D#3",
                    "midi": 51,
                    "time": 71.75100199999984,
                    "velocity": 0.30708661417322836,
                    "duration": 0.12405083333334233
                },
                {
                    "name": "C#3",
                    "midi": 49,
                    "time": 71.85024266666652,
                    "velocity": 0.28346456692913385,
                    "duration": 0.12405083333334233
                },
                {
                    "name": "C3",
                    "midi": 48,
                    "time": 71.94948333333319,
                    "velocity": 0.29133858267716534,
                    "duration": 0.09924066666667386
                },
                {
                    "name": "F#3",
                    "midi": 54,
                    "time": 72.04872399999986,
                    "velocity": 0.3464566929133858,
                    "duration": 0.12405083333332811
                },
                {
                    "name": "F3",
                    "midi": 53,
                    "time": 72.14796466666652,
                    "velocity": 0.30708661417322836,
                    "duration": 0.12405083333334233
                },
                {
                    "name": "D#3",
                    "midi": 51,
                    "time": 72.2472053333332,
                    "velocity": 0.30708661417322836,
                    "duration": 0.12405083333334233
                },
                {
                    "name": "C#3",
                    "midi": 49,
                    "time": 72.34644599999987,
                    "velocity": 0.30708661417322836,
                    "duration": 0.12405083333334233
                },
                {
                    "name": "C3",
                    "midi": 48,
                    "time": 72.44568666666655,
                    "velocity": 0.28346456692913385,
                    "duration": 0.12405083333334233
                },
                {
                    "name": "A#2",
                    "midi": 46,
                    "time": 72.54492733333322,
                    "velocity": 0.29133858267716534,
                    "duration": 0.09924066666667386
                },
                {
                    "name": "F#3",
                    "midi": 54,
                    "time": 72.6441679999999,
                    "velocity": 0.3464566929133858,
                    "duration": 0.12405083333332811
                },
                {
                    "name": "F3",
                    "midi": 53,
                    "time": 72.74340866666655,
                    "velocity": 0.30708661417322836,
                    "duration": 0.12405083333334233
                },
                {
                    "name": "D#3",
                    "midi": 51,
                    "time": 72.84264933333323,
                    "velocity": 0.30708661417322836,
                    "duration": 0.12405083333334233
                },
                {
                    "name": "C#3",
                    "midi": 49,
                    "time": 72.9418899999999,
                    "velocity": 0.30708661417322836,
                    "duration": 0.12405083333334233
                },
                {
                    "name": "C3",
                    "midi": 48,
                    "time": 73.04113066666658,
                    "velocity": 0.28346456692913385,
                    "duration": 0.12405083333334233
                },
                {
                    "name": "B2",
                    "midi": 47,
                    "time": 73.14037133333325,
                    "velocity": 0.29133858267716534,
                    "duration": 0.09924066666667386
                },
                {
                    "name": "F#3",
                    "midi": 54,
                    "time": 73.23961199999992,
                    "velocity": 0.3464566929133858,
                    "duration": 0.12405083333332811
                },
                {
                    "name": "F3",
                    "midi": 53,
                    "time": 73.33885266666658,
                    "velocity": 0.30708661417322836,
                    "duration": 0.12405083333334233
                },
                {
                    "name": "D#3",
                    "midi": 51,
                    "time": 73.43809333333326,
                    "velocity": 0.30708661417322836,
                    "duration": 0.12405083333334233
                },
                {
                    "name": "C#3",
                    "midi": 49,
                    "time": 73.53733399999993,
                    "velocity": 0.30708661417322836,
                    "duration": 0.12405083333334233
                },
                {
                    "name": "B2",
                    "midi": 47,
                    "time": 73.6365746666666,
                    "velocity": 0.28346456692913385,
                    "duration": 0.12405083333334233
                },
                {
                    "name": "A#2",
                    "midi": 46,
                    "time": 73.73581533333328,
                    "velocity": 0.29133858267716534,
                    "duration": 0.09924066666667386
                },
                {
                    "name": "A2",
                    "midi": 45,
                    "time": 73.83505599999995,
                    "velocity": 0.3228346456692913,
                    "duration": 0.12405083333332811
                },
                {
                    "name": "A#2",
                    "midi": 46,
                    "time": 73.93429666666661,
                    "velocity": 0.28346456692913385,
                    "duration": 0.12405083333334233
                },
                {
                    "name": "B2",
                    "midi": 47,
                    "time": 74.03353733333329,
                    "velocity": 0.29133858267716534,
                    "duration": 0.12405083333334233
                },
                {
                    "name": "C#3",
                    "midi": 49,
                    "time": 74.13277799999996,
                    "velocity": 0.3543307086614173,
                    "duration": 0.12405083333334233
                },
                {
                    "name": "D#3",
                    "midi": 51,
                    "time": 74.23201866666663,
                    "velocity": 0.30708661417322836,
                    "duration": 0.12405083333334233
                },
                {
                    "name": "F3",
                    "midi": 53,
                    "time": 74.3312593333333,
                    "velocity": 0.31496062992125984,
                    "duration": 0.09924066666667386
                },
                {
                    "name": "F#3",
                    "midi": 54,
                    "time": 74.43049999999998,
                    "velocity": 0.3858267716535433,
                    "duration": 0.12405083333332811
                },
                {
                    "name": "G#3",
                    "midi": 56,
                    "time": 74.52974066666664,
                    "velocity": 0.3543307086614173,
                    "duration": 0.12405083333334233
                },
                {
                    "name": "A#3",
                    "midi": 58,
                    "time": 74.62898133333331,
                    "velocity": 0.36220472440944884,
                    "duration": 0.12405083333334233
                },
                {
                    "name": "B3",
                    "midi": 59,
                    "time": 74.72822199999999,
                    "velocity": 0.4251968503937008,
                    "duration": 0.12405083333334233
                },
                {
                    "name": "C#4",
                    "midi": 61,
                    "time": 74.82746266666666,
                    "velocity": 0.4015748031496063,
                    "duration": 0.12405083333334233
                },
                {
                    "name": "D#4",
                    "midi": 63,
                    "time": 74.92670333333334,
                    "velocity": 0.4015748031496063,
                    "duration": 0.09924066666667386
                },
                {
                    "name": "F4",
                    "midi": 65,
                    "time": 75.02594400000001,
                    "velocity": 0.4566929133858268,
                    "duration": 0.12405083333332811
                },
                {
                    "name": "E4",
                    "midi": 64,
                    "time": 75.12518466666667,
                    "velocity": 0.41732283464566927,
                    "duration": 0.12405083333334233
                },
                {
                    "name": "C#4",
                    "midi": 61,
                    "time": 75.22442533333334,
                    "velocity": 0.36220472440944884,
                    "duration": 0.12405083333334233
                },
                {
                    "name": "C4",
                    "midi": 60,
                    "time": 75.32366600000002,
                    "velocity": 0.3937007874015748,
                    "duration": 0.12405083333334233
                },
                {
                    "name": "A#3",
                    "midi": 58,
                    "time": 75.42290666666669,
                    "velocity": 0.3858267716535433,
                    "duration": 0.12405083333334233
                },
                {
                    "name": "F#3",
                    "midi": 54,
                    "time": 75.52214733333336,
                    "velocity": 0.3464566929133858,
                    "duration": 0.09924066666667386
                },
                {
                    "name": "F3",
                    "midi": 53,
                    "time": 75.62138800000004,
                    "velocity": 0.3858267716535433,
                    "duration": 0.12405083333332811
                },
                {
                    "name": "E3",
                    "midi": 52,
                    "time": 75.7206286666667,
                    "velocity": 0.33858267716535434,
                    "duration": 0.12405083333334233
                },
                {
                    "name": "C#3",
                    "midi": 49,
                    "time": 75.81986933333337,
                    "velocity": 0.30708661417322836,
                    "duration": 0.12405083333334233
                },
                {
                    "name": "C3",
                    "midi": 48,
                    "time": 75.91911000000005,
                    "velocity": 0.33858267716535434,
                    "duration": 0.12405083333334233
                },
                {
                    "name": "A#2",
                    "midi": 46,
                    "time": 76.01835066666672,
                    "velocity": 0.28346456692913385,
                    "duration": 0.12405083333334233
                },
                {
                    "name": "F#2",
                    "midi": 42,
                    "time": 76.1175913333334,
                    "velocity": 0.2677165354330709,
                    "duration": 0.09924066666667386
                },
                {
                    "name": "F2",
                    "midi": 41,
                    "time": 76.21683200000007,
                    "velocity": 0.30708661417322836,
                    "duration": 0.1984813333333193
                },
                {
                    "name": "A#2",
                    "midi": 46,
                    "time": 76.31607266666673,
                    "velocity": 0.25984251968503935,
                    "duration": 0.12405083333332811
                },
                {
                    "name": "G#2",
                    "midi": 44,
                    "time": 76.41531333333339,
                    "velocity": 0.25984251968503935,
                    "duration": 0.12405083333334233
                },
                {
                    "name": "A2",
                    "midi": 45,
                    "time": 76.51455400000006,
                    "velocity": 0.28346456692913385,
                    "duration": 0.1984813333333335
                },
                {
                    "name": "C#3",
                    "midi": 49,
                    "time": 76.61379466666673,
                    "velocity": 0.2677165354330709,
                    "duration": 0.12405083333332811
                },
                {
                    "name": "A2",
                    "midi": 45,
                    "time": 76.7130353333334,
                    "velocity": 0.2677165354330709,
                    "duration": 0.09924066666667386
                },
                {
                    "name": "A#2",
                    "midi": 46,
                    "time": 76.81227600000007,
                    "velocity": 0.3228346456692913,
                    "duration": 0.1984813333333193
                },
                {
                    "name": "D#3",
                    "midi": 51,
                    "time": 76.91151666666673,
                    "velocity": 0.29133858267716534,
                    "duration": 0.12405083333332811
                },
                {
                    "name": "B2",
                    "midi": 47,
                    "time": 77.01075733333339,
                    "velocity": 0.29133858267716534,
                    "duration": 0.12405083333334233
                },
                {
                    "name": "C3",
                    "midi": 48,
                    "time": 77.10999800000006,
                    "velocity": 0.30708661417322836,
                    "duration": 0.1984813333333335
                },
                {
                    "name": "F3",
                    "midi": 53,
                    "time": 77.20923866666674,
                    "velocity": 0.30708661417322836,
                    "duration": 0.12405083333332811
                },
                {
                    "name": "C3",
                    "midi": 48,
                    "time": 77.3084793333334,
                    "velocity": 0.30708661417322836,
                    "duration": 0.09924066666667386
                },
                {
                    "name": "C#3",
                    "midi": 49,
                    "time": 77.40772000000007,
                    "velocity": 0.33858267716535434,
                    "duration": 0.1984813333333193
                },
                {
                    "name": "F#3",
                    "midi": 54,
                    "time": 77.50696066666673,
                    "velocity": 0.30708661417322836,
                    "duration": 0.12405083333332811
                },
                {
                    "name": "D3",
                    "midi": 50,
                    "time": 77.60620133333339,
                    "velocity": 0.30708661417322836,
                    "duration": 0.12405083333334233
                },
                {
                    "name": "D#3",
                    "midi": 51,
                    "time": 77.70544200000006,
                    "velocity": 0.3228346456692913,
                    "duration": 0.1984813333333335
                },
                {
                    "name": "A3",
                    "midi": 57,
                    "time": 77.80468266666674,
                    "velocity": 0.30708661417322836,
                    "duration": 0.12405083333332811
                },
                {
                    "name": "F3",
                    "midi": 53,
                    "time": 77.9039233333334,
                    "velocity": 0.30708661417322836,
                    "duration": 0.09924066666667386
                },
                {
                    "name": "F#3",
                    "midi": 54,
                    "time": 78.00316400000007,
                    "velocity": 0.36220472440944884,
                    "duration": 0.1984813333333193
                },
                {
                    "name": "C#4",
                    "midi": 61,
                    "time": 78.10240466666673,
                    "velocity": 0.31496062992125984,
                    "duration": 0.12405083333332811
                },
                {
                    "name": "A3",
                    "midi": 57,
                    "time": 78.20164533333339,
                    "velocity": 0.30708661417322836,
                    "duration": 0.12405083333334233
                },
                {
                    "name": "C4",
                    "midi": 60,
                    "time": 78.30088600000006,
                    "velocity": 0.31496062992125984,
                    "duration": 0.1984813333333335
                },
                {
                    "name": "F#4",
                    "midi": 66,
                    "time": 78.40012666666674,
                    "velocity": 0.33070866141732286,
                    "duration": 0.12405083333332811
                },
                {
                    "name": "F4",
                    "midi": 65,
                    "time": 78.4993673333334,
                    "velocity": 0.31496062992125984,
                    "duration": 0.09924066666667386
                },
                {
                    "name": "A3",
                    "midi": 57,
                    "time": 78.59860800000007,
                    "velocity": 0.3543307086614173,
                    "duration": 0.1984813333333193
                },
                {
                    "name": "C#4",
                    "midi": 61,
                    "time": 78.69784866666673,
                    "velocity": 0.30708661417322836,
                    "duration": 0.12405083333332811
                },
                {
                    "name": "A3",
                    "midi": 57,
                    "time": 78.79708933333339,
                    "velocity": 0.3228346456692913,
                    "duration": 0.12405083333334233
                },
                {
                    "name": "C4",
                    "midi": 60,
                    "time": 78.89633000000006,
                    "velocity": 0.33070866141732286,
                    "duration": 0.1984813333333335
                },
                {
                    "name": "F#4",
                    "midi": 66,
                    "time": 78.99557066666674,
                    "velocity": 0.33858267716535434,
                    "duration": 0.12405083333332811
                },
                {
                    "name": "F4",
                    "midi": 65,
                    "time": 79.0948113333334,
                    "velocity": 0.33858267716535434,
                    "duration": 0.09924066666667386
                },
                {
                    "name": "A3",
                    "midi": 57,
                    "time": 79.19405200000007,
                    "velocity": 0.3543307086614173,
                    "duration": 0.1984813333333193
                },
                {
                    "name": "C#4",
                    "midi": 61,
                    "time": 79.29329266666673,
                    "velocity": 0.30708661417322836,
                    "duration": 0.12405083333332811
                },
                {
                    "name": "A3",
                    "midi": 57,
                    "time": 79.39253333333339,
                    "velocity": 0.3228346456692913,
                    "duration": 0.12405083333334233
                },
                {
                    "name": "C4",
                    "midi": 60,
                    "time": 79.49177400000006,
                    "velocity": 0.33858267716535434,
                    "duration": 0.1984813333333335
                },
                {
                    "name": "F#4",
                    "midi": 66,
                    "time": 79.59101466666674,
                    "velocity": 0.33858267716535434,
                    "duration": 0.12405083333332811
                },
                {
                    "name": "F4",
                    "midi": 65,
                    "time": 79.6902553333334,
                    "velocity": 0.33858267716535434,
                    "duration": 0.09924066666667386
                },
                {
                    "name": "C4",
                    "midi": 60,
                    "time": 79.78949600000007,
                    "velocity": 0.3700787401574803,
                    "duration": 0.1984813333333193
                },
                {
                    "name": "F#4",
                    "midi": 66,
                    "time": 79.88873666666673,
                    "velocity": 0.33858267716535434,
                    "duration": 0.12405083333332811
                },
                {
                    "name": "F4",
                    "midi": 65,
                    "time": 79.98797733333339,
                    "velocity": 0.31496062992125984,
                    "duration": 0.12405083333334233
                },
                {
                    "name": "C4",
                    "midi": 60,
                    "time": 80.08721800000006,
                    "velocity": 0.3228346456692913,
                    "duration": 0.1984813333333335
                },
                {
                    "name": "F#4",
                    "midi": 66,
                    "time": 80.18645866666674,
                    "velocity": 0.33858267716535434,
                    "duration": 0.12405083333332811
                },
                {
                    "name": "F4",
                    "midi": 65,
                    "time": 80.2856993333334,
                    "velocity": 0.31496062992125984,
                    "duration": 0.09924066666667386
                },
                {
                    "name": "C4",
                    "midi": 60,
                    "time": 80.38494000000007,
                    "velocity": 0.3543307086614173,
                    "duration": 0.1984813333333193
                },
                {
                    "name": "F#4",
                    "midi": 66,
                    "time": 80.48418066666673,
                    "velocity": 0.33858267716535434,
                    "duration": 0.12405083333332811
                },
                {
                    "name": "F4",
                    "midi": 65,
                    "time": 80.58342133333339,
                    "velocity": 0.31496062992125984,
                    "duration": 0.12405083333334233
                },
                {
                    "name": "A#3",
                    "midi": 58,
                    "time": 80.68266200000006,
                    "velocity": 0.3464566929133858,
                    "duration": 0.1984813333333335
                },
                {
                    "name": "F#4",
                    "midi": 66,
                    "time": 80.78190266666674,
                    "velocity": 0.33858267716535434,
                    "duration": 0.12405083333332811
                },
                {
                    "name": "F4",
                    "midi": 65,
                    "time": 80.8811433333334,
                    "velocity": 0.33858267716535434,
                    "duration": 0.09924066666667386
                },
                {
                    "name": "C#4",
                    "midi": 61,
                    "time": 80.98038400000007,
                    "velocity": 0.3543307086614173,
                    "duration": 0.1984813333333193
                },
                {
                    "name": "F3",
                    "midi": 53,
                    "time": 81.07962466666673,
                    "velocity": 0.28346456692913385,
                    "duration": 0.12405083333332811
                },
                {
                    "name": "D#4",
                    "midi": 63,
                    "time": 81.17886533333339,
                    "velocity": 0.30708661417322836,
                    "duration": 0.12405083333334233
                },
                {
                    "name": "F4",
                    "midi": 65,
                    "time": 81.27810600000007,
                    "velocity": 0.30708661417322836,
                    "duration": 0.12405083333334233
                },
                {
                    "name": "D#4",
                    "midi": 63,
                    "time": 81.37734666666674,
                    "velocity": 0.31496062992125984,
                    "duration": 0.12405083333334233
                },
                {
                    "name": "C#4",
                    "midi": 61,
                    "time": 81.47658733333341,
                    "velocity": 0.31496062992125984,
                    "duration": 0.09924066666667386
                },
                {
                    "name": "A#3",
                    "midi": 58,
                    "time": 81.57582800000009,
                    "velocity": 0.3464566929133858,
                    "duration": 0.12405083333332811
                },
                {
                    "name": "F3",
                    "midi": 53,
                    "time": 81.67506866666675,
                    "velocity": 0.30708661417322836,
                    "duration": 0.12405083333334233
                },
                {
                    "name": "C4",
                    "midi": 60,
                    "time": 81.77430933333342,
                    "velocity": 0.30708661417322836,
                    "duration": 0.12405083333334233
                },
                {
                    "name": "C#4",
                    "midi": 61,
                    "time": 81.8735500000001,
                    "velocity": 0.31496062992125984,
                    "duration": 0.12405083333334233
                },
                {
                    "name": "C4",
                    "midi": 60,
                    "time": 81.97279066666677,
                    "velocity": 0.30708661417322836,
                    "duration": 0.12405083333334233
                },
                {
                    "name": "A#3",
                    "midi": 58,
                    "time": 82.07203133333344,
                    "velocity": 0.31496062992125984,
                    "duration": 0.09924066666667386
                },
                {
                    "name": "C#4",
                    "midi": 61,
                    "time": 82.17127200000012,
                    "velocity": 0.3543307086614173,
                    "duration": 0.12405083333332811
                },
                {
                    "name": "F3",
                    "midi": 53,
                    "time": 82.27051266666678,
                    "velocity": 0.30708661417322836,
                    "duration": 0.12405083333334233
                },
                {
                    "name": "D#4",
                    "midi": 63,
                    "time": 82.36975333333345,
                    "velocity": 0.30708661417322836,
                    "duration": 0.12405083333334233
                },
                {
                    "name": "F4",
                    "midi": 65,
                    "time": 82.46899400000012,
                    "velocity": 0.3228346456692913,
                    "duration": 0.12405083333334233
                },
                {
                    "name": "D#4",
                    "midi": 63,
                    "time": 82.5682346666668,
                    "velocity": 0.31496062992125984,
                    "duration": 0.12405083333334233
                },
                {
                    "name": "C#4",
                    "midi": 61,
                    "time": 82.66747533333347,
                    "velocity": 0.31496062992125984,
                    "duration": 0.09924066666667386
                },
                {
                    "name": "A#3",
                    "midi": 58,
                    "time": 82.76671600000014,
                    "velocity": 0.3464566929133858,
                    "duration": 0.12405083333332811
                },
                {
                    "name": "F3",
                    "midi": 53,
                    "time": 82.8659566666668,
                    "velocity": 0.30708661417322836,
                    "duration": 0.12405083333334233
                },
                {
                    "name": "C4",
                    "midi": 60,
                    "time": 82.96519733333348,
                    "velocity": 0.30708661417322836,
                    "duration": 0.12405083333334233
                },
                {
                    "name": "C#4",
                    "midi": 61,
                    "time": 83.06443800000015,
                    "velocity": 0.31496062992125984,
                    "duration": 0.12405083333334233
                },
                {
                    "name": "C4",
                    "midi": 60,
                    "time": 83.16367866666683,
                    "velocity": 0.31496062992125984,
                    "duration": 0.12405083333334233
                },
                {
                    "name": "A#3",
                    "midi": 58,
                    "time": 83.2629193333335,
                    "velocity": 0.31496062992125984,
                    "duration": 0.09924066666667386
                },
                {
                    "name": "D#3",
                    "midi": 51,
                    "time": 83.36216000000017,
                    "velocity": 0.3464566929133858,
                    "duration": 0.12405083333332811
                },
                {
                    "name": "F3",
                    "midi": 53,
                    "time": 83.46140066666683,
                    "velocity": 0.30708661417322836,
                    "duration": 0.12405083333334233
                },
                {
                    "name": "A#3",
                    "midi": 58,
                    "time": 83.5606413333335,
                    "velocity": 0.2677165354330709,
                    "duration": 0.12405083333334233
                },
                {
                    "name": "C#4",
                    "midi": 61,
                    "time": 83.65988200000018,
                    "velocity": 0.29133858267716534,
                    "duration": 0.12405083333334233
                },
                {
                    "name": "C#3",
                    "midi": 49,
                    "time": 83.75912266666685,
                    "velocity": 0.2755905511811024,
                    "duration": 0.12405083333334233
                },
                {
                    "name": "F3",
                    "midi": 53,
                    "time": 83.85836333333353,
                    "velocity": 0.2755905511811024,
                    "duration": 0.09924066666667386
                },
                {
                    "name": "D#3",
                    "midi": 51,
                    "time": 83.9576040000002,
                    "velocity": 0.3464566929133858,
                    "duration": 0.12405083333332811
                },
                {
                    "name": "F3",
                    "midi": 53,
                    "time": 84.05684466666686,
                    "velocity": 0.30708661417322836,
                    "duration": 0.12405083333334233
                },
                {
                    "name": "A#3",
                    "midi": 58,
                    "time": 84.15608533333354,
                    "velocity": 0.2677165354330709,
                    "duration": 0.12405083333334233
                },
                {
                    "name": "C#4",
                    "midi": 61,
                    "time": 84.25532600000021,
                    "velocity": 0.28346456692913385,
                    "duration": 0.12405083333334233
                },
                {
                    "name": "C#3",
                    "midi": 49,
                    "time": 84.35456666666688,
                    "velocity": 0.2755905511811024,
                    "duration": 0.12405083333334233
                },
                {
                    "name": "F3",
                    "midi": 53,
                    "time": 84.45380733333356,
                    "velocity": 0.2755905511811024,
                    "duration": 0.09924066666667386
                },
                {
                    "name": "C3",
                    "midi": 48,
                    "time": 84.55304800000023,
                    "velocity": 0.3464566929133858,
                    "duration": 0.12405083333332811
                },
                {
                    "name": "C#3",
                    "midi": 49,
                    "time": 84.65228866666689,
                    "velocity": 0.30708661417322836,
                    "duration": 0.12405083333334233
                },
                {
                    "name": "F3",
                    "midi": 53,
                    "time": 84.75152933333356,
                    "velocity": 0.2677165354330709,
                    "duration": 0.12405083333334233
                },
                {
                    "name": "A#3",
                    "midi": 58,
                    "time": 84.85077000000024,
                    "velocity": 0.28346456692913385,
                    "duration": 0.12405083333334233
                },
                {
                    "name": "A#2",
                    "midi": 46,
                    "time": 84.95001066666691,
                    "velocity": 0.2755905511811024,
                    "duration": 0.12405083333334233
                },
                {
                    "name": "C#3",
                    "midi": 49,
                    "time": 85.04925133333359,
                    "velocity": 0.2755905511811024,
                    "duration": 0.09924066666667386
                },
                {
                    "name": "C3",
                    "midi": 48,
                    "time": 85.14849200000026,
                    "velocity": 0.3464566929133858,
                    "duration": 0.12405083333332811
                },
                {
                    "name": "C#3",
                    "midi": 49,
                    "time": 85.24773266666692,
                    "velocity": 0.30708661417322836,
                    "duration": 0.12405083333334233
                },
                {
                    "name": "F3",
                    "midi": 53,
                    "time": 85.3469733333336,
                    "velocity": 0.2677165354330709,
                    "duration": 0.12405083333334233
                },
                {
                    "name": "A#3",
                    "midi": 58,
                    "time": 85.44621400000027,
                    "velocity": 0.28346456692913385,
                    "duration": 0.12405083333334233
                },
                {
                    "name": "A#2",
                    "midi": 46,
                    "time": 85.54545466666694,
                    "velocity": 0.2755905511811024,
                    "duration": 0.12405083333334233
                },
                {
                    "name": "C#3",
                    "midi": 49,
                    "time": 85.64469533333362,
                    "velocity": 0.2755905511811024,
                    "duration": 0.09924066666667386
                },
                {
                    "name": "C3",
                    "midi": 48,
                    "time": 86.33938000000029,
                    "velocity": 0.3464566929133858,
                    "duration": 0.12405083333332811
                },
                {
                    "name": "C#3",
                    "midi": 49,
                    "time": 86.43862066666695,
                    "velocity": 0.30708661417322836,
                    "duration": 0.12405083333334233
                },
                {
                    "name": "F3",
                    "midi": 53,
                    "time": 86.53786133333362,
                    "velocity": 0.2677165354330709,
                    "duration": 0.12405083333334233
                },
                {
                    "name": "A#3",
                    "midi": 58,
                    "time": 86.6371020000003,
                    "velocity": 0.2755905511811024,
                    "duration": 0.12405083333334233
                },
                {
                    "name": "A#2",
                    "midi": 46,
                    "time": 86.73634266666697,
                    "velocity": 0.2755905511811024,
                    "duration": 0.12405083333334233
                },
                {
                    "name": "C#3",
                    "midi": 49,
                    "time": 86.83558333333364,
                    "velocity": 0.2755905511811024,
                    "duration": 0.09924066666667386
                },
                {
                    "name": "C3",
                    "midi": 48,
                    "time": 87.53026800000032,
                    "velocity": 0.44881889763779526,
                    "duration": 0.12405083333332811
                },
                {
                    "name": "C#3",
                    "midi": 49,
                    "time": 87.62950866666698,
                    "velocity": 0.4015748031496063,
                    "duration": 0.12405083333334233
                },
                {
                    "name": "F3",
                    "midi": 53,
                    "time": 87.72874933333365,
                    "velocity": 0.36220472440944884,
                    "duration": 0.12405083333334233
                },
                {
                    "name": "A#3",
                    "midi": 58,
                    "time": 87.82799000000033,
                    "velocity": 0.3700787401574803,
                    "duration": 0.12405083333334233
                },
                {
                    "name": "A#2",
                    "midi": 46,
                    "time": 87.927230666667,
                    "velocity": 0.3779527559055118,
                    "duration": 0.12405083333334233
                },
                {
                    "name": "C#3",
                    "midi": 49,
                    "time": 88.02647133333367,
                    "velocity": 0.3858267716535433,
                    "duration": 0.09924066666667386
                },
                {
                    "name": "A#2",
                    "midi": 46,
                    "time": 88.12571200000035,
                    "velocity": 0.7874015748031497,
                    "duration": 0.29772199999999316
                },
                {
                    "name": "A#6",
                    "midi": 94,
                    "time": 88.72115600000033,
                    "velocity": 0.7795275590551181,
                    "duration": 0.5954440000000005
                },
                {
                    "name": "A#5",
                    "midi": 82,
                    "time": 88.72115600000033,
                    "velocity": 0.6535433070866141,
                    "duration": 0.5954440000000005
                }
            ],
            "controlChanges": {
                "7": [
                    {
                        "number": 7,
                        "time": 0,
                        "value": 0.7874015748031497
                    }
                ],
                "10": [
                    {
                        "number": 10,
                        "time": 0,
                        "value": 0.5039370078740157
                    }
                ],
                "64": [
                    {
                        "number": 64,
                        "time": 0,
                        "value": 0
                    }
                ],
                "91": [
                    {
                        "number": 91,
                        "time": 0,
                        "value": 1
                    },
                    {
                        "number": 91,
                        "time": 0,
                        "value": 1
                    }
                ]
            },
            "id": 1,
            "name": "Piano right",
            "instrumentNumber": 0,
            "instrument": "acoustic grand piano",
            "instrumentFamily": "piano",
            "channelNumber": 0,
            "isPercussion": false
        },
        {
            "startTime": 0,
            "duration": 89.31660000000022,
            "length": 881,
            "notes": [
                {
                    "name": "F2",
                    "midi": 41,
                    "time": 0,
                    "velocity": 0.23622047244094488,
                    "duration": 0.12405083333333332
                },
                {
                    "name": "G2",
                    "midi": 43,
                    "time": 0.09924066666666666,
                    "velocity": 0.1889763779527559,
                    "duration": 0.12405083333333332
                },
                {
                    "name": "A#2",
                    "midi": 46,
                    "time": 0.19848133333333332,
                    "velocity": 0.1968503937007874,
                    "duration": 0.12405083333333336
                },
                {
                    "name": "C#3",
                    "midi": 49,
                    "time": 0.297722,
                    "velocity": 0.1968503937007874,
                    "duration": 0.12405083333333339
                },
                {
                    "name": "E2",
                    "midi": 40,
                    "time": 0.3969626666666667,
                    "velocity": 0.2204724409448819,
                    "duration": 0.12405083333333333
                },
                {
                    "name": "G2",
                    "midi": 43,
                    "time": 0.4962033333333334,
                    "velocity": 0.2047244094488189,
                    "duration": 0.09924066666666659
                },
                {
                    "name": "F2",
                    "midi": 41,
                    "time": 0.595444,
                    "velocity": 0.23622047244094488,
                    "duration": 0.12405083333333333
                },
                {
                    "name": "G2",
                    "midi": 43,
                    "time": 0.6946846666666666,
                    "velocity": 0.2047244094488189,
                    "duration": 0.12405083333333333
                },
                {
                    "name": "A#2",
                    "midi": 46,
                    "time": 0.7939253333333333,
                    "velocity": 0.2047244094488189,
                    "duration": 0.12405083333333333
                },
                {
                    "name": "C#3",
                    "midi": 49,
                    "time": 0.8931659999999999,
                    "velocity": 0.2125984251968504,
                    "duration": 0.12405083333333322
                },
                {
                    "name": "E2",
                    "midi": 40,
                    "time": 0.9924066666666665,
                    "velocity": 0.2204724409448819,
                    "duration": 0.12405083333333333
                },
                {
                    "name": "G2",
                    "midi": 43,
                    "time": 1.0916473333333332,
                    "velocity": 0.2125984251968504,
                    "duration": 0.08931660000000008
                },
                {
                    "name": "G2",
                    "midi": 43,
                    "time": 1.190888,
                    "velocity": 0.2677165354330709,
                    "duration": 0.12405083333333344
                },
                {
                    "name": "A2",
                    "midi": 45,
                    "time": 1.2901286666666667,
                    "velocity": 0.2204724409448819,
                    "duration": 0.12405083333333344
                },
                {
                    "name": "C3",
                    "midi": 48,
                    "time": 1.3893693333333335,
                    "velocity": 0.2283464566929134,
                    "duration": 0.12405083333333344
                },
                {
                    "name": "D#3",
                    "midi": 51,
                    "time": 1.4886100000000002,
                    "velocity": 0.2204724409448819,
                    "duration": 0.12405083333333344
                },
                {
                    "name": "F#2",
                    "midi": 42,
                    "time": 1.587850666666667,
                    "velocity": 0.2204724409448819,
                    "duration": 0.12405083333333344
                },
                {
                    "name": "A2",
                    "midi": 45,
                    "time": 1.6870913333333337,
                    "velocity": 0.23622047244094488,
                    "duration": 0.09924066666666675
                },
                {
                    "name": "G2",
                    "midi": 43,
                    "time": 1.7863320000000005,
                    "velocity": 0.2677165354330709,
                    "duration": 0.12405083333333344
                },
                {
                    "name": "A2",
                    "midi": 45,
                    "time": 1.8855726666666672,
                    "velocity": 0.2204724409448819,
                    "duration": 0.12405083333333322
                },
                {
                    "name": "C3",
                    "midi": 48,
                    "time": 1.984813333333334,
                    "velocity": 0.2204724409448819,
                    "duration": 0.12405083333333322
                },
                {
                    "name": "D#3",
                    "midi": 51,
                    "time": 2.0840540000000005,
                    "velocity": 0.23622047244094488,
                    "duration": 0.12405083333333344
                },
                {
                    "name": "F#2",
                    "midi": 42,
                    "time": 2.1832946666666673,
                    "velocity": 0.2204724409448819,
                    "duration": 0.12405083333333344
                },
                {
                    "name": "A2",
                    "midi": 45,
                    "time": 2.282535333333334,
                    "velocity": 0.23622047244094488,
                    "duration": 0.09924066666666675
                },
                {
                    "name": "A#2",
                    "midi": 46,
                    "time": 2.381776000000001,
                    "velocity": 0.2992125984251969,
                    "duration": 0.12405083333333344
                },
                {
                    "name": "C3",
                    "midi": 48,
                    "time": 2.4810166666666675,
                    "velocity": 0.2283464566929134,
                    "duration": 0.12405083333333344
                },
                {
                    "name": "D#3",
                    "midi": 51,
                    "time": 2.5802573333333343,
                    "velocity": 0.25196850393700787,
                    "duration": 0.12405083333333344
                },
                {
                    "name": "F#3",
                    "midi": 54,
                    "time": 2.679498000000001,
                    "velocity": 0.28346456692913385,
                    "duration": 0.12405083333333344
                },
                {
                    "name": "A2",
                    "midi": 45,
                    "time": 2.778738666666668,
                    "velocity": 0.25984251968503935,
                    "duration": 0.12405083333333344
                },
                {
                    "name": "C3",
                    "midi": 48,
                    "time": 2.8779793333333346,
                    "velocity": 0.2440944881889764,
                    "duration": 0.09924066666666675
                },
                {
                    "name": "C#3",
                    "midi": 49,
                    "time": 2.9772200000000013,
                    "velocity": 0.2677165354330709,
                    "duration": 0.12405083333333344
                },
                {
                    "name": "D#3",
                    "midi": 51,
                    "time": 3.076460666666668,
                    "velocity": 0.25196850393700787,
                    "duration": 0.12405083333333344
                },
                {
                    "name": "F#3",
                    "midi": 54,
                    "time": 3.175701333333335,
                    "velocity": 0.25984251968503935,
                    "duration": 0.12405083333333344
                },
                {
                    "name": "A3",
                    "midi": 57,
                    "time": 3.2749420000000016,
                    "velocity": 0.2755905511811024,
                    "duration": 0.12405083333333344
                },
                {
                    "name": "C3",
                    "midi": 48,
                    "time": 3.3741826666666683,
                    "velocity": 0.25984251968503935,
                    "duration": 0.12405083333333344
                },
                {
                    "name": "D#3",
                    "midi": 51,
                    "time": 3.473423333333335,
                    "velocity": 0.2677165354330709,
                    "duration": 0.09924066666666675
                },
                {
                    "name": "C#3",
                    "midi": 49,
                    "time": 3.572664000000002,
                    "velocity": 0.3228346456692913,
                    "duration": 0.12405083333333344
                },
                {
                    "name": "D#3",
                    "midi": 51,
                    "time": 3.6719046666666686,
                    "velocity": 0.2755905511811024,
                    "duration": 0.12405083333333344
                },
                {
                    "name": "F#3",
                    "midi": 54,
                    "time": 3.7711453333333353,
                    "velocity": 0.25196850393700787,
                    "duration": 0.09924066666666675
                },
                {
                    "name": "A3",
                    "midi": 57,
                    "time": 3.870386000000002,
                    "velocity": 0.29133858267716534,
                    "duration": 0.12405083333333344
                },
                {
                    "name": "C3",
                    "midi": 48,
                    "time": 3.969626666666669,
                    "velocity": 0.28346456692913385,
                    "duration": 0.124050833333333
                },
                {
                    "name": "D#3",
                    "midi": 51,
                    "time": 4.068867333333335,
                    "velocity": 0.28346456692913385,
                    "duration": 0.09924066666666675
                },
                {
                    "name": "F#3",
                    "midi": 54,
                    "time": 4.168108000000002,
                    "velocity": 0.3228346456692913,
                    "duration": 0.12405083333333344
                },
                {
                    "name": "A#3",
                    "midi": 58,
                    "time": 4.267348666666669,
                    "velocity": 0.2677165354330709,
                    "duration": 0.12405083333333344
                },
                {
                    "name": "C4",
                    "midi": 60,
                    "time": 4.366589333333335,
                    "velocity": 0.2677165354330709,
                    "duration": 0.12405083333333344
                },
                {
                    "name": "D#4",
                    "midi": 63,
                    "time": 4.465830000000002,
                    "velocity": 0.2992125984251969,
                    "duration": 0.12405083333333344
                },
                {
                    "name": "F3",
                    "midi": 53,
                    "time": 4.565070666666669,
                    "velocity": 0.29133858267716534,
                    "duration": 0.12405083333333344
                },
                {
                    "name": "A3",
                    "midi": 57,
                    "time": 4.664311333333336,
                    "velocity": 0.29133858267716534,
                    "duration": 0.09924066666666675
                },
                {
                    "name": "A#3",
                    "midi": 58,
                    "time": 4.7635520000000025,
                    "velocity": 0.3700787401574803,
                    "duration": 0.12405083333333344
                },
                {
                    "name": "C#4",
                    "midi": 61,
                    "time": 4.862792666666669,
                    "velocity": 0.2992125984251969,
                    "duration": 0.12405083333333344
                },
                {
                    "name": "F#4",
                    "midi": 66,
                    "time": 4.962033333333336,
                    "velocity": 0.31496062992125984,
                    "duration": 0.12405083333333344
                },
                {
                    "name": "F4",
                    "midi": 65,
                    "time": 5.061274000000003,
                    "velocity": 0.29133858267716534,
                    "duration": 0.12405083333333344
                },
                {
                    "name": "C4",
                    "midi": 60,
                    "time": 5.1605146666666695,
                    "velocity": 0.2992125984251969,
                    "duration": 0.12405083333333344
                },
                {
                    "name": "C#4",
                    "midi": 61,
                    "time": 5.259755333333336,
                    "velocity": 0.2992125984251969,
                    "duration": 0.09924066666666675
                },
                {
                    "name": "E4",
                    "midi": 64,
                    "time": 5.358996000000003,
                    "velocity": 0.33070866141732286,
                    "duration": 0.1984813333333335
                },
                {
                    "name": "C4",
                    "midi": 60,
                    "time": 5.45823666666667,
                    "velocity": 0.30708661417322836,
                    "duration": 0.09924066666666675
                },
                {
                    "name": "C#4",
                    "midi": 61,
                    "time": 5.5574773333333365,
                    "velocity": 0.31496062992125984,
                    "duration": 0.12405083333333344
                },
                {
                    "name": "A3",
                    "midi": 57,
                    "time": 5.656718000000003,
                    "velocity": 0.28346456692913385,
                    "duration": 0.09924066666666675
                },
                {
                    "name": "A#3",
                    "midi": 58,
                    "time": 5.75595866666667,
                    "velocity": 0.30708661417322836,
                    "duration": 0.12405083333333344
                },
                {
                    "name": "F#3",
                    "midi": 54,
                    "time": 5.855199333333337,
                    "velocity": 0.28346456692913385,
                    "duration": 0.09924066666666675
                },
                {
                    "name": "E3",
                    "midi": 52,
                    "time": 5.9544400000000035,
                    "velocity": 0.31496062992125984,
                    "duration": 0.12405083333333344
                },
                {
                    "name": "F3",
                    "midi": 53,
                    "time": 6.05368066666667,
                    "velocity": 0.29133858267716534,
                    "duration": 0.12405083333333344
                },
                {
                    "name": "A#3",
                    "midi": 58,
                    "time": 6.152921333333337,
                    "velocity": 0.29133858267716534,
                    "duration": 0.09924066666666675
                },
                {
                    "name": "G#3",
                    "midi": 56,
                    "time": 6.252162000000004,
                    "velocity": 0.30708661417322836,
                    "duration": 0.12405083333333344
                },
                {
                    "name": "A3",
                    "midi": 57,
                    "time": 6.3514026666666705,
                    "velocity": 0.2992125984251969,
                    "duration": 0.12405083333333344
                },
                {
                    "name": "C#4",
                    "midi": 61,
                    "time": 6.450643333333337,
                    "velocity": 0.2992125984251969,
                    "duration": 0.09924066666666675
                },
                {
                    "name": "A3",
                    "midi": 57,
                    "time": 6.549884000000004,
                    "velocity": 0.3228346456692913,
                    "duration": 0.12405083333333344
                },
                {
                    "name": "A#3",
                    "midi": 58,
                    "time": 6.649124666666671,
                    "velocity": 0.29133858267716534,
                    "duration": 0.12405083333333344
                },
                {
                    "name": "C#4",
                    "midi": 61,
                    "time": 6.7483653333333375,
                    "velocity": 0.2992125984251969,
                    "duration": 0.09924066666666675
                },
                {
                    "name": "B3",
                    "midi": 59,
                    "time": 6.847606000000004,
                    "velocity": 0.30708661417322836,
                    "duration": 0.12405083333333344
                },
                {
                    "name": "C4",
                    "midi": 60,
                    "time": 6.946846666666671,
                    "velocity": 0.2992125984251969,
                    "duration": 0.12405083333333344
                },
                {
                    "name": "F4",
                    "midi": 65,
                    "time": 7.046087333333338,
                    "velocity": 0.2992125984251969,
                    "duration": 0.09924066666666675
                },
                {
                    "name": "G#3",
                    "midi": 56,
                    "time": 7.145328000000005,
                    "velocity": 0.31496062992125984,
                    "duration": 0.12405083333333344
                },
                {
                    "name": "B3",
                    "midi": 59,
                    "time": 7.244568666666671,
                    "velocity": 0.28346456692913385,
                    "duration": 0.12405083333333344
                },
                {
                    "name": "E4",
                    "midi": 64,
                    "time": 7.343809333333338,
                    "velocity": 0.2992125984251969,
                    "duration": 0.12405083333333344
                },
                {
                    "name": "D#4",
                    "midi": 63,
                    "time": 7.443050000000005,
                    "velocity": 0.29133858267716534,
                    "duration": 0.12405083333333344
                },
                {
                    "name": "A#3",
                    "midi": 58,
                    "time": 7.542290666666672,
                    "velocity": 0.2677165354330709,
                    "duration": 0.12405083333333344
                },
                {
                    "name": "B3",
                    "midi": 59,
                    "time": 7.641531333333338,
                    "velocity": 0.2440944881889764,
                    "duration": 0.09924066666666675
                },
                {
                    "name": "D4",
                    "midi": 62,
                    "time": 7.740772000000005,
                    "velocity": 0.33858267716535434,
                    "duration": 0.1984813333333335
                },
                {
                    "name": "A#3",
                    "midi": 58,
                    "time": 7.840012666666672,
                    "velocity": 0.28346456692913385,
                    "duration": 0.12405083333333344
                },
                {
                    "name": "B3",
                    "midi": 59,
                    "time": 7.939253333333339,
                    "velocity": 0.2755905511811024,
                    "duration": 0.12405083333333344
                },
                {
                    "name": "G3",
                    "midi": 55,
                    "time": 8.038494000000005,
                    "velocity": 0.28346456692913385,
                    "duration": 0.1984813333333335
                },
                {
                    "name": "G#3",
                    "midi": 56,
                    "time": 8.137734666666672,
                    "velocity": 0.2992125984251969,
                    "duration": 0.12405083333333344
                },
                {
                    "name": "E3",
                    "midi": 52,
                    "time": 8.236975333333339,
                    "velocity": 0.28346456692913385,
                    "duration": 0.09924066666666675
                },
                {
                    "name": "D3",
                    "midi": 50,
                    "time": 8.336216000000006,
                    "velocity": 0.30708661417322836,
                    "duration": 0.1984813333333335
                },
                {
                    "name": "D#3",
                    "midi": 51,
                    "time": 8.435456666666672,
                    "velocity": 0.2677165354330709,
                    "duration": 0.12405083333333344
                },
                {
                    "name": "G#3",
                    "midi": 56,
                    "time": 8.53469733333334,
                    "velocity": 0.2677165354330709,
                    "duration": 0.09924066666666675
                },
                {
                    "name": "E3",
                    "midi": 52,
                    "time": 8.633938000000006,
                    "velocity": 0.28346456692913385,
                    "duration": 0.1984813333333335
                },
                {
                    "name": "F3",
                    "midi": 53,
                    "time": 8.733178666666673,
                    "velocity": 0.2755905511811024,
                    "duration": 0.12405083333333344
                },
                {
                    "name": "B3",
                    "midi": 59,
                    "time": 8.83241933333334,
                    "velocity": 0.2755905511811024,
                    "duration": 0.09924066666666675
                },
                {
                    "name": "F3",
                    "midi": 53,
                    "time": 8.931660000000006,
                    "velocity": 0.30708661417322836,
                    "duration": 0.1984813333333335
                },
                {
                    "name": "F#3",
                    "midi": 54,
                    "time": 9.030900666666673,
                    "velocity": 0.2992125984251969,
                    "duration": 0.12405083333333344
                },
                {
                    "name": "B3",
                    "midi": 59,
                    "time": 9.13014133333334,
                    "velocity": 0.28346456692913385,
                    "duration": 0.09924066666666675
                },
                {
                    "name": "A3",
                    "midi": 57,
                    "time": 9.229382000000006,
                    "velocity": 0.29133858267716534,
                    "duration": 0.1984813333333335
                },
                {
                    "name": "A#3",
                    "midi": 58,
                    "time": 9.328622666666673,
                    "velocity": 0.29133858267716534,
                    "duration": 0.12405083333333344
                },
                {
                    "name": "D#4",
                    "midi": 63,
                    "time": 9.42786333333334,
                    "velocity": 0.29133858267716534,
                    "duration": 0.09924066666666675
                },
                {
                    "name": "C#4",
                    "midi": 61,
                    "time": 9.527104000000007,
                    "velocity": 0.33858267716535434,
                    "duration": 0.1984813333333335
                },
                {
                    "name": "F3",
                    "midi": 53,
                    "time": 9.626344666666673,
                    "velocity": 0.2992125984251969,
                    "duration": 0.12405083333333344
                },
                {
                    "name": "A#3",
                    "midi": 58,
                    "time": 9.72558533333334,
                    "velocity": 0.2677165354330709,
                    "duration": 0.12405083333333344
                },
                {
                    "name": "C#3",
                    "midi": 49,
                    "time": 9.824826000000007,
                    "velocity": 0.2677165354330709,
                    "duration": 0.1984813333333335
                },
                {
                    "name": "E3",
                    "midi": 52,
                    "time": 9.924066666666674,
                    "velocity": 0.28346456692913385,
                    "duration": 0.12405083333333344
                },
                {
                    "name": "A3",
                    "midi": 57,
                    "time": 10.02330733333334,
                    "velocity": 0.28346456692913385,
                    "duration": 0.09924066666666675
                },
                {
                    "name": "C4",
                    "midi": 60,
                    "time": 10.122548000000007,
                    "velocity": 0.2992125984251969,
                    "duration": 0.1984813333333335
                },
                {
                    "name": "D#3",
                    "midi": 51,
                    "time": 10.221788666666674,
                    "velocity": 0.2677165354330709,
                    "duration": 0.12405083333333344
                },
                {
                    "name": "G#3",
                    "midi": 56,
                    "time": 10.32102933333334,
                    "velocity": 0.2755905511811024,
                    "duration": 0.12405083333333344
                },
                {
                    "name": "B2",
                    "midi": 47,
                    "time": 10.420270000000007,
                    "velocity": 0.2677165354330709,
                    "duration": 0.1984813333333335
                },
                {
                    "name": "D3",
                    "midi": 50,
                    "time": 10.519510666666674,
                    "velocity": 0.2677165354330709,
                    "duration": 0.12405083333333344
                },
                {
                    "name": "G3",
                    "midi": 55,
                    "time": 10.618751333333341,
                    "velocity": 0.2755905511811024,
                    "duration": 0.09924066666666675
                },
                {
                    "name": "B3",
                    "midi": 59,
                    "time": 10.717992000000008,
                    "velocity": 0.3543307086614173,
                    "duration": 0.12405083333333344
                },
                {
                    "name": "D3",
                    "midi": 50,
                    "time": 10.817232666666674,
                    "velocity": 0.2992125984251969,
                    "duration": 0.12405083333333344
                },
                {
                    "name": "F#3",
                    "midi": 54,
                    "time": 10.916473333333341,
                    "velocity": 0.2992125984251969,
                    "duration": 0.12405083333333344
                },
                {
                    "name": "A#2",
                    "midi": 46,
                    "time": 11.015714000000008,
                    "velocity": 0.28346456692913385,
                    "duration": 0.12405083333333344
                },
                {
                    "name": "C#3",
                    "midi": 49,
                    "time": 11.114954666666675,
                    "velocity": 0.2755905511811024,
                    "duration": 0.12405083333333344
                },
                {
                    "name": "F#3",
                    "midi": 54,
                    "time": 11.214195333333342,
                    "velocity": 0.28346456692913385,
                    "duration": 0.09924066666666675
                },
                {
                    "name": "A#3",
                    "midi": 58,
                    "time": 11.313436000000008,
                    "velocity": 0.33070866141732286,
                    "duration": 0.12405083333333344
                },
                {
                    "name": "F#3",
                    "midi": 54,
                    "time": 11.412676666666675,
                    "velocity": 0.2992125984251969,
                    "duration": 0.12405083333333344
                },
                {
                    "name": "B3",
                    "midi": 59,
                    "time": 11.511917333333342,
                    "velocity": 0.2755905511811024,
                    "duration": 0.12405083333333344
                },
                {
                    "name": "C4",
                    "midi": 60,
                    "time": 11.611158000000009,
                    "velocity": 0.30708661417322836,
                    "duration": 0.12405083333333344
                },
                {
                    "name": "C#4",
                    "midi": 61,
                    "time": 11.710398666666675,
                    "velocity": 0.33858267716535434,
                    "duration": 0.12405083333333344
                },
                {
                    "name": "D#4",
                    "midi": 63,
                    "time": 11.809639333333342,
                    "velocity": 0.3543307086614173,
                    "duration": 0.09924066666666675
                },
                {
                    "name": "E4",
                    "midi": 64,
                    "time": 11.908880000000009,
                    "velocity": 0.3779527559055118,
                    "duration": 0.12405083333333344
                },
                {
                    "name": "G3",
                    "midi": 55,
                    "time": 12.008120666666676,
                    "velocity": 0.2992125984251969,
                    "duration": 0.12405083333333344
                },
                {
                    "name": "C4",
                    "midi": 60,
                    "time": 12.107361333333342,
                    "velocity": 0.2992125984251969,
                    "duration": 0.12405083333333344
                },
                {
                    "name": "D#3",
                    "midi": 51,
                    "time": 12.206602000000009,
                    "velocity": 0.2677165354330709,
                    "duration": 0.1984813333333335
                },
                {
                    "name": "F#3",
                    "midi": 54,
                    "time": 12.305842666666676,
                    "velocity": 0.2677165354330709,
                    "duration": 0.12405083333333344
                },
                {
                    "name": "B3",
                    "midi": 59,
                    "time": 12.405083333333343,
                    "velocity": 0.2677165354330709,
                    "duration": 0.09924066666666675
                },
                {
                    "name": "D4",
                    "midi": 62,
                    "time": 12.50432400000001,
                    "velocity": 0.31496062992125984,
                    "duration": 0.1984813333333335
                },
                {
                    "name": "F3",
                    "midi": 53,
                    "time": 12.603564666666676,
                    "velocity": 0.2755905511811024,
                    "duration": 0.12405083333333344
                },
                {
                    "name": "A#3",
                    "midi": 58,
                    "time": 12.702805333333343,
                    "velocity": 0.28346456692913385,
                    "duration": 0.12405083333333344
                },
                {
                    "name": "C#3",
                    "midi": 49,
                    "time": 12.80204600000001,
                    "velocity": 0.28346456692913385,
                    "duration": 0.1984813333333335
                },
                {
                    "name": "E3",
                    "midi": 52,
                    "time": 12.901286666666676,
                    "velocity": 0.2992125984251969,
                    "duration": 0.12405083333333344
                },
                {
                    "name": "A3",
                    "midi": 57,
                    "time": 13.000527333333343,
                    "velocity": 0.2992125984251969,
                    "duration": 0.09924066666666675
                },
                {
                    "name": "C4",
                    "midi": 60,
                    "time": 13.09976800000001,
                    "velocity": 0.3228346456692913,
                    "duration": 0.12405083333333344
                },
                {
                    "name": "E3",
                    "midi": 52,
                    "time": 13.199008666666677,
                    "velocity": 0.2992125984251969,
                    "duration": 0.12405083333333344
                },
                {
                    "name": "G#3",
                    "midi": 56,
                    "time": 13.298249333333343,
                    "velocity": 0.2992125984251969,
                    "duration": 0.12405083333333344
                },
                {
                    "name": "B2",
                    "midi": 47,
                    "time": 13.39749000000001,
                    "velocity": 0.30708661417322836,
                    "duration": 0.12405083333333344
                },
                {
                    "name": "D3",
                    "midi": 50,
                    "time": 13.496730666666677,
                    "velocity": 0.28346456692913385,
                    "duration": 0.12405083333333344
                },
                {
                    "name": "G3",
                    "midi": 55,
                    "time": 13.595971333333344,
                    "velocity": 0.28346456692913385,
                    "duration": 0.09924066666666675
                },
                {
                    "name": "B3",
                    "midi": 59,
                    "time": 13.69521200000001,
                    "velocity": 0.33070866141732286,
                    "duration": 0.12405083333333344
                },
                {
                    "name": "F#3",
                    "midi": 54,
                    "time": 13.794452666666677,
                    "velocity": 0.2992125984251969,
                    "duration": 0.12405083333333344
                },
                {
                    "name": "C#4",
                    "midi": 61,
                    "time": 13.893693333333344,
                    "velocity": 0.2992125984251969,
                    "duration": 0.12405083333333344
                },
                {
                    "name": "D4",
                    "midi": 62,
                    "time": 13.99293400000001,
                    "velocity": 0.33070866141732286,
                    "duration": 0.12405083333333344
                },
                {
                    "name": "D#4",
                    "midi": 63,
                    "time": 14.092174666666677,
                    "velocity": 0.3464566929133858,
                    "duration": 0.12405083333333344
                },
                {
                    "name": "E4",
                    "midi": 64,
                    "time": 14.191415333333344,
                    "velocity": 0.3543307086614173,
                    "duration": 0.09924066666666675
                },
                {
                    "name": "F4",
                    "midi": 65,
                    "time": 14.290656000000011,
                    "velocity": 0.3700787401574803,
                    "duration": 0.12405083333333344
                },
                {
                    "name": "A3",
                    "midi": 57,
                    "time": 14.389896666666678,
                    "velocity": 0.2992125984251969,
                    "duration": 0.12405083333333344
                },
                {
                    "name": "D#4",
                    "midi": 63,
                    "time": 14.489137333333344,
                    "velocity": 0.2992125984251969,
                    "duration": 0.12405083333333344
                },
                {
                    "name": "E4",
                    "midi": 64,
                    "time": 14.588378000000011,
                    "velocity": 0.3543307086614173,
                    "duration": 0.12405083333333344
                },
                {
                    "name": "F4",
                    "midi": 65,
                    "time": 14.687618666666678,
                    "velocity": 0.3543307086614173,
                    "duration": 0.12405083333333344
                },
                {
                    "name": "F#4",
                    "midi": 66,
                    "time": 14.786859333333345,
                    "velocity": 0.3700787401574803,
                    "duration": 0.09924066666666675
                },
                {
                    "name": "F4",
                    "midi": 65,
                    "time": 14.886100000000011,
                    "velocity": 0.4015748031496063,
                    "duration": 0.12405083333333344
                },
                {
                    "name": "A#3",
                    "midi": 58,
                    "time": 14.985340666666678,
                    "velocity": 0.30708661417322836,
                    "duration": 0.12405083333333344
                },
                {
                    "name": "C#4",
                    "midi": 61,
                    "time": 15.084581333333345,
                    "velocity": 0.33070866141732286,
                    "duration": 0.12405083333333344
                },
                {
                    "name": "E4",
                    "midi": 64,
                    "time": 15.183822000000012,
                    "velocity": 0.36220472440944884,
                    "duration": 0.12405083333333344
                },
                {
                    "name": "F4",
                    "midi": 65,
                    "time": 15.283062666666678,
                    "velocity": 0.3779527559055118,
                    "duration": 0.12405083333333344
                },
                {
                    "name": "F#4",
                    "midi": 66,
                    "time": 15.382303333333345,
                    "velocity": 0.3937007874015748,
                    "duration": 0.09924066666666675
                },
                {
                    "name": "G4",
                    "midi": 67,
                    "time": 15.481544000000012,
                    "velocity": 0.4251968503937008,
                    "duration": 0.12405083333333344
                },
                {
                    "name": "B3",
                    "midi": 59,
                    "time": 15.580784666666679,
                    "velocity": 0.30708661417322836,
                    "duration": 0.12405083333333344
                },
                {
                    "name": "F4",
                    "midi": 65,
                    "time": 15.680025333333345,
                    "velocity": 0.3543307086614173,
                    "duration": 0.12405083333333344
                },
                {
                    "name": "F#4",
                    "midi": 66,
                    "time": 15.779266000000012,
                    "velocity": 0.4015748031496063,
                    "duration": 0.12405083333333344
                },
                {
                    "name": "G4",
                    "midi": 67,
                    "time": 15.878506666666679,
                    "velocity": 0.4015748031496063,
                    "duration": 0.12405083333333344
                },
                {
                    "name": "G#4",
                    "midi": 68,
                    "time": 15.977747333333346,
                    "velocity": 0.4330708661417323,
                    "duration": 0.09924066666666498
                },
                {
                    "name": "G4",
                    "midi": 67,
                    "time": 16.07698800000001,
                    "velocity": 0.44881889763779526,
                    "duration": 0.12405083333333167
                },
                {
                    "name": "C4",
                    "midi": 60,
                    "time": 16.176228666666677,
                    "velocity": 0.33858267716535434,
                    "duration": 0.12405083333332811
                },
                {
                    "name": "D#4",
                    "midi": 63,
                    "time": 16.27546933333334,
                    "velocity": 0.4015748031496063,
                    "duration": 0.12405083333332811
                },
                {
                    "name": "F#4",
                    "midi": 66,
                    "time": 16.374710000000004,
                    "velocity": 0.4251968503937008,
                    "duration": 0.12405083333332811
                },
                {
                    "name": "G4",
                    "midi": 67,
                    "time": 16.473950666666667,
                    "velocity": 0.4409448818897638,
                    "duration": 0.12405083333332811
                },
                {
                    "name": "G#4",
                    "midi": 68,
                    "time": 16.57319133333333,
                    "velocity": 0.44881889763779526,
                    "duration": 0.0992406666666632
                },
                {
                    "name": "D#4",
                    "midi": 63,
                    "time": 16.672431999999993,
                    "velocity": 0.44881889763779526,
                    "duration": 0.1984813333333335
                },
                {
                    "name": "C4",
                    "midi": 60,
                    "time": 16.77167266666666,
                    "velocity": 0.3858267716535433,
                    "duration": 0.12405083333333167
                },
                {
                    "name": "F4",
                    "midi": 65,
                    "time": 16.870913333333327,
                    "velocity": 0.33858267716535434,
                    "duration": 0.12405083333332811
                },
                {
                    "name": "D#4",
                    "midi": 63,
                    "time": 16.97015399999999,
                    "velocity": 0.33858267716535434,
                    "duration": 0.19848133333332996
                },
                {
                    "name": "G#3",
                    "midi": 56,
                    "time": 17.069394666666653,
                    "velocity": 0.3228346456692913,
                    "duration": 0.12405083333333167
                },
                {
                    "name": "C#4",
                    "midi": 61,
                    "time": 17.16863533333332,
                    "velocity": 0.3464566929133858,
                    "duration": 0.0992406666666632
                },
                {
                    "name": "C4",
                    "midi": 60,
                    "time": 17.267875999999983,
                    "velocity": 0.3779527559055118,
                    "duration": 0.1984813333333335
                },
                {
                    "name": "D#3",
                    "midi": 51,
                    "time": 17.36711666666665,
                    "velocity": 0.2992125984251969,
                    "duration": 0.12405083333333167
                },
                {
                    "name": "A#3",
                    "midi": 58,
                    "time": 17.466357333333317,
                    "velocity": 0.30708661417322836,
                    "duration": 0.12405083333332811
                },
                {
                    "name": "G#3",
                    "midi": 56,
                    "time": 17.56559799999998,
                    "velocity": 0.3228346456692913,
                    "duration": 0.19848133333332996
                },
                {
                    "name": "C3",
                    "midi": 48,
                    "time": 17.664838666666643,
                    "velocity": 0.30708661417322836,
                    "duration": 0.12405083333333167
                },
                {
                    "name": "F3",
                    "midi": 53,
                    "time": 17.76407933333331,
                    "velocity": 0.30708661417322836,
                    "duration": 0.0992406666666632
                },
                {
                    "name": "D#3",
                    "midi": 51,
                    "time": 17.863319999999973,
                    "velocity": 0.3700787401574803,
                    "duration": 0.12405083333333167
                },
                {
                    "name": "G#2",
                    "midi": 44,
                    "time": 17.96256066666664,
                    "velocity": 0.2992125984251969,
                    "duration": 0.12405083333332811
                },
                {
                    "name": "C#3",
                    "midi": 49,
                    "time": 18.061801333333303,
                    "velocity": 0.2992125984251969,
                    "duration": 0.12405083333332811
                },
                {
                    "name": "C3",
                    "midi": 48,
                    "time": 18.161041999999966,
                    "velocity": 0.28346456692913385,
                    "duration": 0.12405083333332811
                },
                {
                    "name": "G2",
                    "midi": 43,
                    "time": 18.26028266666663,
                    "velocity": 0.2755905511811024,
                    "duration": 0.12405083333332811
                },
                {
                    "name": "G#2",
                    "midi": 44,
                    "time": 18.359523333333293,
                    "velocity": 0.28346456692913385,
                    "duration": 0.0992406666666632
                },
                {
                    "name": "C3",
                    "midi": 48,
                    "time": 18.458763999999956,
                    "velocity": 0.30708661417322836,
                    "duration": 0.12405083333333167
                },
                {
                    "name": "F#2",
                    "midi": 42,
                    "time": 18.558004666666623,
                    "velocity": 0.25984251968503935,
                    "duration": 0.12405083333332811
                },
                {
                    "name": "D3",
                    "midi": 50,
                    "time": 18.657245333333286,
                    "velocity": 0.25196850393700787,
                    "duration": 0.12405083333332811
                },
                {
                    "name": "C3",
                    "midi": 48,
                    "time": 18.75648599999995,
                    "velocity": 0.2677165354330709,
                    "duration": 0.12405083333332811
                },
                {
                    "name": "F2",
                    "midi": 41,
                    "time": 18.855726666666612,
                    "velocity": 0.25984251968503935,
                    "duration": 0.12405083333332811
                },
                {
                    "name": "F#2",
                    "midi": 42,
                    "time": 18.954967333333276,
                    "velocity": 0.2283464566929134,
                    "duration": 0.0992406666666632
                },
                {
                    "name": "G2",
                    "midi": 43,
                    "time": 19.05420799999994,
                    "velocity": 0.2755905511811024,
                    "duration": 0.12405083333333167
                },
                {
                    "name": "A2",
                    "midi": 45,
                    "time": 19.153448666666606,
                    "velocity": 0.25196850393700787,
                    "duration": 0.12405083333332811
                },
                {
                    "name": "B2",
                    "midi": 47,
                    "time": 19.25268933333327,
                    "velocity": 0.2283464566929134,
                    "duration": 0.12405083333332811
                },
                {
                    "name": "C3",
                    "midi": 48,
                    "time": 19.351929999999932,
                    "velocity": 0.25984251968503935,
                    "duration": 0.12405083333332811
                },
                {
                    "name": "D3",
                    "midi": 50,
                    "time": 19.451170666666595,
                    "velocity": 0.25196850393700787,
                    "duration": 0.12405083333332811
                },
                {
                    "name": "D#3",
                    "midi": 51,
                    "time": 19.55041133333326,
                    "velocity": 0.2755905511811024,
                    "duration": 0.0992406666666632
                },
                {
                    "name": "G#2",
                    "midi": 44,
                    "time": 19.64965199999992,
                    "velocity": 0.2992125984251969,
                    "duration": 0.12405083333333167
                },
                {
                    "name": "A#2",
                    "midi": 46,
                    "time": 19.74889266666659,
                    "velocity": 0.23622047244094488,
                    "duration": 0.12405083333332811
                },
                {
                    "name": "B2",
                    "midi": 47,
                    "time": 19.84813333333325,
                    "velocity": 0.2204724409448819,
                    "duration": 0.12405083333332811
                },
                {
                    "name": "C3",
                    "midi": 48,
                    "time": 19.947373999999915,
                    "velocity": 0.25196850393700787,
                    "duration": 0.12405083333332811
                },
                {
                    "name": "C#3",
                    "midi": 49,
                    "time": 20.046614666666578,
                    "velocity": 0.25196850393700787,
                    "duration": 0.12405083333332811
                },
                {
                    "name": "D#3",
                    "midi": 51,
                    "time": 20.14585533333324,
                    "velocity": 0.2440944881889764,
                    "duration": 0.0992406666666632
                },
                {
                    "name": "A2",
                    "midi": 45,
                    "time": 20.245095999999904,
                    "velocity": 0.31496062992125984,
                    "duration": 0.12405083333333167
                },
                {
                    "name": "A#2",
                    "midi": 46,
                    "time": 20.34433666666657,
                    "velocity": 0.2677165354330709,
                    "duration": 0.12405083333332811
                },
                {
                    "name": "C3",
                    "midi": 48,
                    "time": 20.443577333333234,
                    "velocity": 0.25196850393700787,
                    "duration": 0.12405083333332811
                },
                {
                    "name": "C#3",
                    "midi": 49,
                    "time": 20.542817999999897,
                    "velocity": 0.28346456692913385,
                    "duration": 0.12405083333332811
                },
                {
                    "name": "D#3",
                    "midi": 51,
                    "time": 20.64205866666656,
                    "velocity": 0.2677165354330709,
                    "duration": 0.12405083333332811
                },
                {
                    "name": "F3",
                    "midi": 53,
                    "time": 20.741299333333224,
                    "velocity": 0.2755905511811024,
                    "duration": 0.0992406666666632
                },
                {
                    "name": "A#2",
                    "midi": 46,
                    "time": 20.840539999999887,
                    "velocity": 0.31496062992125984,
                    "duration": 0.12405083333333167
                },
                {
                    "name": "B2",
                    "midi": 47,
                    "time": 20.939780666666554,
                    "velocity": 0.25196850393700787,
                    "duration": 0.12405083333332811
                },
                {
                    "name": "C3",
                    "midi": 48,
                    "time": 21.039021333333217,
                    "velocity": 0.25984251968503935,
                    "duration": 0.12405083333332811
                },
                {
                    "name": "C#3",
                    "midi": 49,
                    "time": 21.13826199999988,
                    "velocity": 0.28346456692913385,
                    "duration": 0.12405083333332811
                },
                {
                    "name": "D#3",
                    "midi": 51,
                    "time": 21.237502666666543,
                    "velocity": 0.25984251968503935,
                    "duration": 0.12405083333332811
                },
                {
                    "name": "F3",
                    "midi": 53,
                    "time": 21.336743333333207,
                    "velocity": 0.28346456692913385,
                    "duration": 0.0992406666666632
                },
                {
                    "name": "C3",
                    "midi": 48,
                    "time": 21.43598399999987,
                    "velocity": 0.33858267716535434,
                    "duration": 0.12405083333333167
                },
                {
                    "name": "C#3",
                    "midi": 49,
                    "time": 21.535224666666537,
                    "velocity": 0.28346456692913385,
                    "duration": 0.12405083333332811
                },
                {
                    "name": "D3",
                    "midi": 50,
                    "time": 21.6344653333332,
                    "velocity": 0.25984251968503935,
                    "duration": 0.12405083333332811
                },
                {
                    "name": "D#3",
                    "midi": 51,
                    "time": 21.733705999999863,
                    "velocity": 0.29133858267716534,
                    "duration": 0.12405083333332811
                },
                {
                    "name": "F3",
                    "midi": 53,
                    "time": 21.832946666666526,
                    "velocity": 0.28346456692913385,
                    "duration": 0.12405083333332811
                },
                {
                    "name": "F#3",
                    "midi": 54,
                    "time": 21.93218733333319,
                    "velocity": 0.2992125984251969,
                    "duration": 0.0992406666666632
                },
                {
                    "name": "A2",
                    "midi": 45,
                    "time": 22.031427999999853,
                    "velocity": 0.33858267716535434,
                    "duration": 0.12405083333333167
                },
                {
                    "name": "C#3",
                    "midi": 49,
                    "time": 22.13066866666652,
                    "velocity": 0.28346456692913385,
                    "duration": 0.12405083333332811
                },
                {
                    "name": "D3",
                    "midi": 50,
                    "time": 22.229909333333183,
                    "velocity": 0.28346456692913385,
                    "duration": 0.12405083333332811
                },
                {
                    "name": "D#3",
                    "midi": 51,
                    "time": 22.329149999999846,
                    "velocity": 0.30708661417322836,
                    "duration": 0.12405083333332811
                },
                {
                    "name": "F3",
                    "midi": 53,
                    "time": 22.42839066666651,
                    "velocity": 0.2992125984251969,
                    "duration": 0.12405083333332811
                },
                {
                    "name": "F#3",
                    "midi": 54,
                    "time": 22.527631333333172,
                    "velocity": 0.31496062992125984,
                    "duration": 0.0992406666666632
                },
                {
                    "name": "A3",
                    "midi": 57,
                    "time": 22.626871999999835,
                    "velocity": 0.3937007874015748,
                    "duration": 0.12405083333333167
                },
                {
                    "name": "F#3",
                    "midi": 54,
                    "time": 22.726112666666502,
                    "velocity": 0.31496062992125984,
                    "duration": 0.12405083333332811
                },
                {
                    "name": "E3",
                    "midi": 52,
                    "time": 22.825353333333165,
                    "velocity": 0.31496062992125984,
                    "duration": 0.12405083333332811
                },
                {
                    "name": "D3",
                    "midi": 50,
                    "time": 22.92459399999983,
                    "velocity": 0.3228346456692913,
                    "duration": 0.12405083333332811
                },
                {
                    "name": "E3",
                    "midi": 52,
                    "time": 23.02383466666649,
                    "velocity": 0.2992125984251969,
                    "duration": 0.12405083333332811
                },
                {
                    "name": "F#3",
                    "midi": 54,
                    "time": 23.123075333333155,
                    "velocity": 0.30708661417322836,
                    "duration": 0.0992406666666632
                },
                {
                    "name": "A2",
                    "midi": 45,
                    "time": 23.222315999999818,
                    "velocity": 0.33858267716535434,
                    "duration": 0.12405083333333167
                },
                {
                    "name": "C#3",
                    "midi": 49,
                    "time": 23.321556666666485,
                    "velocity": 0.28346456692913385,
                    "duration": 0.12405083333332811
                },
                {
                    "name": "D3",
                    "midi": 50,
                    "time": 23.420797333333148,
                    "velocity": 0.2677165354330709,
                    "duration": 0.12405083333332811
                },
                {
                    "name": "E3",
                    "midi": 52,
                    "time": 23.52003799999981,
                    "velocity": 0.2992125984251969,
                    "duration": 0.12405083333332811
                },
                {
                    "name": "F3",
                    "midi": 53,
                    "time": 23.619278666666474,
                    "velocity": 0.2677165354330709,
                    "duration": 0.12405083333332811
                },
                {
                    "name": "F#3",
                    "midi": 54,
                    "time": 23.718519333333138,
                    "velocity": 0.2992125984251969,
                    "duration": 0.0992406666666632
                },
                {
                    "name": "A3",
                    "midi": 57,
                    "time": 23.8177599999998,
                    "velocity": 0.33858267716535434,
                    "duration": 0.12405083333333167
                },
                {
                    "name": "G#3",
                    "midi": 56,
                    "time": 23.917000666666468,
                    "velocity": 0.29133858267716534,
                    "duration": 0.12405083333332811
                },
                {
                    "name": "G3",
                    "midi": 55,
                    "time": 24.01624133333313,
                    "velocity": 0.2677165354330709,
                    "duration": 0.12405083333332811
                },
                {
                    "name": "F#3",
                    "midi": 54,
                    "time": 24.115481999999794,
                    "velocity": 0.30708661417322836,
                    "duration": 0.12405083333332811
                },
                {
                    "name": "D#3",
                    "midi": 51,
                    "time": 24.214722666666457,
                    "velocity": 0.28346456692913385,
                    "duration": 0.12405083333332811
                },
                {
                    "name": "C3",
                    "midi": 48,
                    "time": 24.31396333333312,
                    "velocity": 0.29133858267716534,
                    "duration": 0.0992406666666632
                },
                {
                    "name": "F#3",
                    "midi": 54,
                    "time": 24.413203999999784,
                    "velocity": 0.3228346456692913,
                    "duration": 0.12405083333333167
                },
                {
                    "name": "D#3",
                    "midi": 51,
                    "time": 24.51244466666645,
                    "velocity": 0.28346456692913385,
                    "duration": 0.12405083333332811
                },
                {
                    "name": "C3",
                    "midi": 48,
                    "time": 24.611685333333114,
                    "velocity": 0.28346456692913385,
                    "duration": 0.12405083333332811
                },
                {
                    "name": "A#2",
                    "midi": 46,
                    "time": 24.710925999999777,
                    "velocity": 0.2992125984251969,
                    "duration": 0.12405083333332811
                },
                {
                    "name": "A2",
                    "midi": 45,
                    "time": 24.81016666666644,
                    "velocity": 0.29133858267716534,
                    "duration": 0.12405083333332811
                },
                {
                    "name": "G#2",
                    "midi": 44,
                    "time": 24.909407333333103,
                    "velocity": 0.28346456692913385,
                    "duration": 0.0992406666666632
                },
                {
                    "name": "G2",
                    "midi": 43,
                    "time": 25.008647999999766,
                    "velocity": 0.30708661417322836,
                    "duration": 0.12405083333333167
                },
                {
                    "name": "G#2",
                    "midi": 44,
                    "time": 25.107888666666433,
                    "velocity": 0.25984251968503935,
                    "duration": 0.12405083333332811
                },
                {
                    "name": "A2",
                    "midi": 45,
                    "time": 25.207129333333096,
                    "velocity": 0.25984251968503935,
                    "duration": 0.12405083333332811
                },
                {
                    "name": "F2",
                    "midi": 41,
                    "time": 25.30636999999976,
                    "velocity": 0.2755905511811024,
                    "duration": 0.12405083333332811
                },
                {
                    "name": "F#2",
                    "midi": 42,
                    "time": 25.405610666666423,
                    "velocity": 0.25984251968503935,
                    "duration": 0.12405083333332811
                },
                {
                    "name": "G#2",
                    "midi": 44,
                    "time": 25.504851333333086,
                    "velocity": 0.25984251968503935,
                    "duration": 0.0992406666666632
                },
                {
                    "name": "E2",
                    "midi": 40,
                    "time": 25.60409199999975,
                    "velocity": 0.29133858267716534,
                    "duration": 0.12405083333333167
                },
                {
                    "name": "F2",
                    "midi": 41,
                    "time": 25.703332666666416,
                    "velocity": 0.25196850393700787,
                    "duration": 0.12405083333332811
                },
                {
                    "name": "F#2",
                    "midi": 42,
                    "time": 25.80257333333308,
                    "velocity": 0.2440944881889764,
                    "duration": 0.12405083333332811
                },
                {
                    "name": "D2",
                    "midi": 38,
                    "time": 25.901813999999742,
                    "velocity": 0.23622047244094488,
                    "duration": 0.12405083333332811
                },
                {
                    "name": "D#2",
                    "midi": 39,
                    "time": 26.001054666666406,
                    "velocity": 0.23622047244094488,
                    "duration": 0.12405083333332811
                },
                {
                    "name": "F2",
                    "midi": 41,
                    "time": 26.10029533333307,
                    "velocity": 0.23622047244094488,
                    "duration": 0.0992406666666632
                },
                {
                    "name": "G1",
                    "midi": 31,
                    "time": 26.199535999999732,
                    "velocity": 0.25196850393700787,
                    "duration": 0.12405083333333167
                },
                {
                    "name": "G#1",
                    "midi": 32,
                    "time": 26.2987766666664,
                    "velocity": 0.2204724409448819,
                    "duration": 0.12405083333332811
                },
                {
                    "name": "A#1",
                    "midi": 34,
                    "time": 26.398017333333062,
                    "velocity": 0.2204724409448819,
                    "duration": 0.12405083333332811
                },
                {
                    "name": "C2",
                    "midi": 36,
                    "time": 26.497257999999725,
                    "velocity": 0.23622047244094488,
                    "duration": 0.12405083333332811
                },
                {
                    "name": "C#2",
                    "midi": 37,
                    "time": 26.59649866666639,
                    "velocity": 0.25196850393700787,
                    "duration": 0.12405083333332811
                },
                {
                    "name": "D#2",
                    "midi": 39,
                    "time": 26.69573933333305,
                    "velocity": 0.25196850393700787,
                    "duration": 0.0992406666666632
                },
                {
                    "name": "F2",
                    "midi": 41,
                    "time": 26.794979999999715,
                    "velocity": 0.2677165354330709,
                    "duration": 0.12405083333333167
                },
                {
                    "name": "F#2",
                    "midi": 42,
                    "time": 26.89422066666638,
                    "velocity": 0.2677165354330709,
                    "duration": 0.12405083333332811
                },
                {
                    "name": "G2",
                    "midi": 43,
                    "time": 26.993461333333045,
                    "velocity": 0.2677165354330709,
                    "duration": 0.12405083333332811
                },
                {
                    "name": "G#2",
                    "midi": 44,
                    "time": 27.092701999999708,
                    "velocity": 0.29133858267716534,
                    "duration": 0.12405083333332811
                },
                {
                    "name": "F2",
                    "midi": 41,
                    "time": 27.19194266666637,
                    "velocity": 0.2677165354330709,
                    "duration": 0.12405083333332811
                },
                {
                    "name": "A#2",
                    "midi": 46,
                    "time": 27.291183333333034,
                    "velocity": 0.2677165354330709,
                    "duration": 0.0992406666666632
                },
                {
                    "name": "G#2",
                    "midi": 44,
                    "time": 27.390423999999697,
                    "velocity": 0.30708661417322836,
                    "duration": 0.12405083333333167
                },
                {
                    "name": "F3",
                    "midi": 53,
                    "time": 27.489664666666364,
                    "velocity": 0.3228346456692913,
                    "duration": 0.12405083333332811
                },
                {
                    "name": "D#3",
                    "midi": 51,
                    "time": 27.588905333333027,
                    "velocity": 0.30708661417322836,
                    "duration": 0.12405083333332811
                },
                {
                    "name": "C#3",
                    "midi": 49,
                    "time": 27.68814599999969,
                    "velocity": 0.3228346456692913,
                    "duration": 0.12405083333332811
                },
                {
                    "name": "C3",
                    "midi": 48,
                    "time": 27.787386666666354,
                    "velocity": 0.2992125984251969,
                    "duration": 0.12405083333332811
                },
                {
                    "name": "A#2",
                    "midi": 46,
                    "time": 27.886627333333017,
                    "velocity": 0.30708661417322836,
                    "duration": 0.0992406666666632
                },
                {
                    "name": "G#2",
                    "midi": 44,
                    "time": 27.98586799999968,
                    "velocity": 0.2992125984251969,
                    "duration": 0.12405083333333167
                },
                {
                    "name": "F2",
                    "midi": 41,
                    "time": 28.085108666666347,
                    "velocity": 0.28346456692913385,
                    "duration": 0.12405083333332811
                },
                {
                    "name": "F#2",
                    "midi": 42,
                    "time": 28.18434933333301,
                    "velocity": 0.28346456692913385,
                    "duration": 0.12405083333332811
                },
                {
                    "name": "G#2",
                    "midi": 44,
                    "time": 28.283589999999673,
                    "velocity": 0.30708661417322836,
                    "duration": 0.12405083333332811
                },
                {
                    "name": "F2",
                    "midi": 41,
                    "time": 28.382830666666337,
                    "velocity": 0.2992125984251969,
                    "duration": 0.12405083333332811
                },
                {
                    "name": "A#2",
                    "midi": 46,
                    "time": 28.482071333333,
                    "velocity": 0.2992125984251969,
                    "duration": 0.0992406666666632
                },
                {
                    "name": "G#2",
                    "midi": 44,
                    "time": 28.581311999999663,
                    "velocity": 0.33858267716535434,
                    "duration": 0.12405083333333167
                },
                {
                    "name": "D#2",
                    "midi": 39,
                    "time": 28.68055266666633,
                    "velocity": 0.29133858267716534,
                    "duration": 0.12405083333332811
                },
                {
                    "name": "F2",
                    "midi": 41,
                    "time": 28.779793333332993,
                    "velocity": 0.29133858267716534,
                    "duration": 0.12405083333332811
                },
                {
                    "name": "F#2",
                    "midi": 42,
                    "time": 28.879033999999656,
                    "velocity": 0.2992125984251969,
                    "duration": 0.12405083333332811
                },
                {
                    "name": "D#2",
                    "midi": 39,
                    "time": 28.97827466666632,
                    "velocity": 0.28346456692913385,
                    "duration": 0.12405083333332811
                },
                {
                    "name": "A#2",
                    "midi": 46,
                    "time": 29.077515333332983,
                    "velocity": 0.3543307086614173,
                    "duration": 0.0992406666666632
                },
                {
                    "name": "G#2",
                    "midi": 44,
                    "time": 29.176755999999646,
                    "velocity": 0.33858267716535434,
                    "duration": 0.12405083333333167
                },
                {
                    "name": "C#2",
                    "midi": 37,
                    "time": 29.275996666666313,
                    "velocity": 0.30708661417322836,
                    "duration": 0.12405083333332811
                },
                {
                    "name": "D#2",
                    "midi": 39,
                    "time": 29.375237333332976,
                    "velocity": 0.30708661417322836,
                    "duration": 0.12405083333332811
                },
                {
                    "name": "F2",
                    "midi": 41,
                    "time": 29.47447799999964,
                    "velocity": 0.33858267716535434,
                    "duration": 0.12405083333332811
                },
                {
                    "name": "C#2",
                    "midi": 37,
                    "time": 29.573718666666302,
                    "velocity": 0.30708661417322836,
                    "duration": 0.12405083333332811
                },
                {
                    "name": "A#2",
                    "midi": 46,
                    "time": 29.672959333332965,
                    "velocity": 0.3543307086614173,
                    "duration": 0.0992406666666632
                },
                {
                    "name": "G#2",
                    "midi": 44,
                    "time": 29.77219999999963,
                    "velocity": 0.33858267716535434,
                    "duration": 0.12405083333333167
                },
                {
                    "name": "C2",
                    "midi": 36,
                    "time": 29.871440666666295,
                    "velocity": 0.29133858267716534,
                    "duration": 0.12405083333332811
                },
                {
                    "name": "C#2",
                    "midi": 37,
                    "time": 29.97068133333296,
                    "velocity": 0.29133858267716534,
                    "duration": 0.12405083333332811
                },
                {
                    "name": "D#2",
                    "midi": 39,
                    "time": 30.06992199999962,
                    "velocity": 0.30708661417322836,
                    "duration": 0.12405083333332811
                },
                {
                    "name": "C2",
                    "midi": 36,
                    "time": 30.169162666666285,
                    "velocity": 0.28346456692913385,
                    "duration": 0.12405083333332811
                },
                {
                    "name": "F2",
                    "midi": 41,
                    "time": 30.268403333332948,
                    "velocity": 0.33070866141732286,
                    "duration": 0.0992406666666632
                },
                {
                    "name": "D#2",
                    "midi": 39,
                    "time": 30.36764399999961,
                    "velocity": 0.31496062992125984,
                    "duration": 0.12405083333333167
                },
                {
                    "name": "A#1",
                    "midi": 34,
                    "time": 30.466884666666278,
                    "velocity": 0.30708661417322836,
                    "duration": 0.12405083333332811
                },
                {
                    "name": "F2",
                    "midi": 41,
                    "time": 30.56612533333294,
                    "velocity": 0.30708661417322836,
                    "duration": 0.12405083333332811
                },
                {
                    "name": "D#2",
                    "midi": 39,
                    "time": 30.665365999999604,
                    "velocity": 0.33858267716535434,
                    "duration": 0.12405083333332811
                },
                {
                    "name": "G#1",
                    "midi": 32,
                    "time": 30.764606666666268,
                    "velocity": 0.30708661417322836,
                    "duration": 0.12405083333332811
                },
                {
                    "name": "A#1",
                    "midi": 34,
                    "time": 30.86384733333293,
                    "velocity": 0.30708661417322836,
                    "duration": 0.0992406666666632
                },
                {
                    "name": "G#1",
                    "midi": 32,
                    "time": 30.963087999999594,
                    "velocity": 0.33858267716535434,
                    "duration": 0.12405083333333167
                },
                {
                    "name": "C#2",
                    "midi": 37,
                    "time": 31.06232866666626,
                    "velocity": 0.2677165354330709,
                    "duration": 0.12405083333332811
                },
                {
                    "name": "D#2",
                    "midi": 39,
                    "time": 31.161569333332924,
                    "velocity": 0.2755905511811024,
                    "duration": 0.12405083333332811
                },
                {
                    "name": "F2",
                    "midi": 41,
                    "time": 31.260809999999587,
                    "velocity": 0.28346456692913385,
                    "duration": 0.12405083333332811
                },
                {
                    "name": "F#2",
                    "midi": 42,
                    "time": 31.36005066666625,
                    "velocity": 0.2992125984251969,
                    "duration": 0.12405083333332811
                },
                {
                    "name": "G#2",
                    "midi": 44,
                    "time": 31.459291333332914,
                    "velocity": 0.30708661417322836,
                    "duration": 0.0992406666666632
                },
                {
                    "name": "A#2",
                    "midi": 46,
                    "time": 31.558531999999577,
                    "velocity": 0.31496062992125984,
                    "duration": 0.12405083333333167
                },
                {
                    "name": "C3",
                    "midi": 48,
                    "time": 31.657772666666244,
                    "velocity": 0.33858267716535434,
                    "duration": 0.12405083333332811
                },
                {
                    "name": "C#3",
                    "midi": 49,
                    "time": 31.757013333332907,
                    "velocity": 0.31496062992125984,
                    "duration": 0.12405083333332811
                },
                {
                    "name": "D#3",
                    "midi": 51,
                    "time": 31.85625399999957,
                    "velocity": 0.3543307086614173,
                    "duration": 0.12405083333332811
                },
                {
                    "name": "F3",
                    "midi": 53,
                    "time": 31.955494666666233,
                    "velocity": 0.33070866141732286,
                    "duration": 0.12405083333333522
                },
                {
                    "name": "F#3",
                    "midi": 54,
                    "time": 32.0547353333329,
                    "velocity": 0.3700787401574803,
                    "duration": 0.09924066666666675
                },
                {
                    "name": "G#3",
                    "midi": 56,
                    "time": 32.15397599999957,
                    "velocity": 0.3937007874015748,
                    "duration": 0.12405083333333522
                },
                {
                    "name": "F4",
                    "midi": 65,
                    "time": 32.25321666666623,
                    "velocity": 0.4015748031496063,
                    "duration": 0.12405083333333522
                },
                {
                    "name": "D#4",
                    "midi": 63,
                    "time": 32.3524573333329,
                    "velocity": 0.3779527559055118,
                    "duration": 0.12405083333333522
                },
                {
                    "name": "C#4",
                    "midi": 61,
                    "time": 32.45169799999957,
                    "velocity": 0.3700787401574803,
                    "duration": 0.12405083333333522
                },
                {
                    "name": "C4",
                    "midi": 60,
                    "time": 32.550938666666234,
                    "velocity": 0.3543307086614173,
                    "duration": 0.12405083333333522
                },
                {
                    "name": "A#3",
                    "midi": 58,
                    "time": 32.6501793333329,
                    "velocity": 0.3543307086614173,
                    "duration": 0.09924066666666675
                },
                {
                    "name": "G#3",
                    "midi": 56,
                    "time": 32.74941999999957,
                    "velocity": 0.3700787401574803,
                    "duration": 0.12405083333333522
                },
                {
                    "name": "F3",
                    "midi": 53,
                    "time": 32.848660666666234,
                    "velocity": 0.33858267716535434,
                    "duration": 0.12405083333333522
                },
                {
                    "name": "F#3",
                    "midi": 54,
                    "time": 32.9479013333329,
                    "velocity": 0.33858267716535434,
                    "duration": 0.12405083333333522
                },
                {
                    "name": "G#3",
                    "midi": 56,
                    "time": 33.04714199999957,
                    "velocity": 0.3464566929133858,
                    "duration": 0.12405083333333522
                },
                {
                    "name": "F3",
                    "midi": 53,
                    "time": 33.146382666666234,
                    "velocity": 0.33858267716535434,
                    "duration": 0.12405083333333522
                },
                {
                    "name": "A#3",
                    "midi": 58,
                    "time": 33.2456233333329,
                    "velocity": 0.33858267716535434,
                    "duration": 0.09924066666666675
                },
                {
                    "name": "G#3",
                    "midi": 56,
                    "time": 33.34486399999957,
                    "velocity": 0.3700787401574803,
                    "duration": 0.12405083333333522
                },
                {
                    "name": "D#3",
                    "midi": 51,
                    "time": 33.444104666666234,
                    "velocity": 0.31496062992125984,
                    "duration": 0.12405083333333522
                },
                {
                    "name": "F3",
                    "midi": 53,
                    "time": 33.5433453333329,
                    "velocity": 0.31496062992125984,
                    "duration": 0.12405083333333522
                },
                {
                    "name": "F#3",
                    "midi": 54,
                    "time": 33.64258599999957,
                    "velocity": 0.3543307086614173,
                    "duration": 0.12405083333333522
                },
                {
                    "name": "D#3",
                    "midi": 51,
                    "time": 33.741826666666235,
                    "velocity": 0.33858267716535434,
                    "duration": 0.12405083333333522
                },
                {
                    "name": "A#3",
                    "midi": 58,
                    "time": 33.8410673333329,
                    "velocity": 0.33858267716535434,
                    "duration": 0.09924066666666675
                },
                {
                    "name": "G#3",
                    "midi": 56,
                    "time": 33.94030799999957,
                    "velocity": 0.3464566929133858,
                    "duration": 0.12405083333333522
                },
                {
                    "name": "C#3",
                    "midi": 49,
                    "time": 34.039548666666235,
                    "velocity": 0.30708661417322836,
                    "duration": 0.12405083333333522
                },
                {
                    "name": "D#3",
                    "midi": 51,
                    "time": 34.1387893333329,
                    "velocity": 0.30708661417322836,
                    "duration": 0.12405083333333522
                },
                {
                    "name": "F3",
                    "midi": 53,
                    "time": 34.23802999999957,
                    "velocity": 0.33858267716535434,
                    "duration": 0.12405083333333522
                },
                {
                    "name": "C#3",
                    "midi": 49,
                    "time": 34.337270666666235,
                    "velocity": 0.3228346456692913,
                    "duration": 0.12405083333333522
                },
                {
                    "name": "A#3",
                    "midi": 58,
                    "time": 34.4365113333329,
                    "velocity": 0.3700787401574803,
                    "duration": 0.09924066666666675
                },
                {
                    "name": "G#3",
                    "midi": 56,
                    "time": 34.53575199999957,
                    "velocity": 0.3464566929133858,
                    "duration": 0.12405083333333522
                },
                {
                    "name": "C3",
                    "midi": 48,
                    "time": 34.634992666666236,
                    "velocity": 0.31496062992125984,
                    "duration": 0.12405083333333522
                },
                {
                    "name": "C#3",
                    "midi": 49,
                    "time": 34.7342333333329,
                    "velocity": 0.2677165354330709,
                    "duration": 0.12405083333333522
                },
                {
                    "name": "D#3",
                    "midi": 51,
                    "time": 34.83347399999957,
                    "velocity": 0.31496062992125984,
                    "duration": 0.12405083333333522
                },
                {
                    "name": "C3",
                    "midi": 48,
                    "time": 34.932714666666236,
                    "velocity": 0.30708661417322836,
                    "duration": 0.12405083333333522
                },
                {
                    "name": "F3",
                    "midi": 53,
                    "time": 35.0319553333329,
                    "velocity": 0.28346456692913385,
                    "duration": 0.09924066666666675
                },
                {
                    "name": "D#3",
                    "midi": 51,
                    "time": 35.13119599999957,
                    "velocity": 0.33858267716535434,
                    "duration": 0.12405083333333522
                },
                {
                    "name": "A#2",
                    "midi": 46,
                    "time": 35.230436666666236,
                    "velocity": 0.30708661417322836,
                    "duration": 0.12405083333333522
                },
                {
                    "name": "F3",
                    "midi": 53,
                    "time": 35.3296773333329,
                    "velocity": 0.30708661417322836,
                    "duration": 0.12405083333333522
                },
                {
                    "name": "D#3",
                    "midi": 51,
                    "time": 35.42891799999957,
                    "velocity": 0.3228346456692913,
                    "duration": 0.12405083333333522
                },
                {
                    "name": "G#2",
                    "midi": 44,
                    "time": 35.528158666666236,
                    "velocity": 0.31496062992125984,
                    "duration": 0.12405083333333522
                },
                {
                    "name": "F3",
                    "midi": 53,
                    "time": 35.6273993333329,
                    "velocity": 0.3228346456692913,
                    "duration": 0.09924066666666675
                },
                {
                    "name": "F#3",
                    "midi": 54,
                    "time": 35.72663999999957,
                    "velocity": 0.3543307086614173,
                    "duration": 0.12405083333333522
                },
                {
                    "name": "F3",
                    "midi": 53,
                    "time": 35.82588066666624,
                    "velocity": 0.3228346456692913,
                    "duration": 0.12405083333333522
                },
                {
                    "name": "D#3",
                    "midi": 51,
                    "time": 35.9251213333329,
                    "velocity": 0.33858267716535434,
                    "duration": 0.12405083333333522
                },
                {
                    "name": "C#3",
                    "midi": 49,
                    "time": 36.02436199999957,
                    "velocity": 0.3228346456692913,
                    "duration": 0.12405083333333522
                },
                {
                    "name": "C3",
                    "midi": 48,
                    "time": 36.12360266666624,
                    "velocity": 0.31496062992125984,
                    "duration": 0.12405083333333522
                },
                {
                    "name": "A#2",
                    "midi": 46,
                    "time": 36.222843333332904,
                    "velocity": 0.29133858267716534,
                    "duration": 0.09924066666666675
                },
                {
                    "name": "A2",
                    "midi": 45,
                    "time": 36.32208399999957,
                    "velocity": 0.3543307086614173,
                    "duration": 0.1984813333333335
                },
                {
                    "name": "F3",
                    "midi": 53,
                    "time": 36.42132466666624,
                    "velocity": 0.30708661417322836,
                    "duration": 0.12405083333333522
                },
                {
                    "name": "C3",
                    "midi": 48,
                    "time": 36.520565333332904,
                    "velocity": 0.30708661417322836,
                    "duration": 0.12405083333333522
                },
                {
                    "name": "D#3",
                    "midi": 51,
                    "time": 36.61980599999957,
                    "velocity": 0.3228346456692913,
                    "duration": 0.12405083333333522
                },
                {
                    "name": "C#3",
                    "midi": 49,
                    "time": 36.71904666666624,
                    "velocity": 0.30708661417322836,
                    "duration": 0.12405083333333522
                },
                {
                    "name": "A#2",
                    "midi": 46,
                    "time": 36.818287333332904,
                    "velocity": 0.30708661417322836,
                    "duration": 0.09924066666666675
                },
                {
                    "name": "A2",
                    "midi": 45,
                    "time": 36.91752799999957,
                    "velocity": 0.3543307086614173,
                    "duration": 0.1984813333333335
                },
                {
                    "name": "F3",
                    "midi": 53,
                    "time": 37.01676866666624,
                    "velocity": 0.30708661417322836,
                    "duration": 0.12405083333333522
                },
                {
                    "name": "C3",
                    "midi": 48,
                    "time": 37.116009333332904,
                    "velocity": 0.30708661417322836,
                    "duration": 0.12405083333333522
                },
                {
                    "name": "D#3",
                    "midi": 51,
                    "time": 37.21524999999957,
                    "velocity": 0.30708661417322836,
                    "duration": 0.12405083333333522
                },
                {
                    "name": "C#3",
                    "midi": 49,
                    "time": 37.31449066666624,
                    "velocity": 0.28346456692913385,
                    "duration": 0.12405083333333522
                },
                {
                    "name": "A#2",
                    "midi": 46,
                    "time": 37.413731333332905,
                    "velocity": 0.29133858267716534,
                    "duration": 0.09924066666666675
                },
                {
                    "name": "A2",
                    "midi": 45,
                    "time": 37.51297199999957,
                    "velocity": 0.3543307086614173,
                    "duration": 0.1984813333333335
                },
                {
                    "name": "F3",
                    "midi": 53,
                    "time": 37.61221266666624,
                    "velocity": 0.30708661417322836,
                    "duration": 0.12405083333333522
                },
                {
                    "name": "C3",
                    "midi": 48,
                    "time": 37.711453333332905,
                    "velocity": 0.30708661417322836,
                    "duration": 0.12405083333333522
                },
                {
                    "name": "D#3",
                    "midi": 51,
                    "time": 37.81069399999957,
                    "velocity": 0.3228346456692913,
                    "duration": 0.12405083333333522
                },
                {
                    "name": "C#3",
                    "midi": 49,
                    "time": 37.90993466666624,
                    "velocity": 0.30708661417322836,
                    "duration": 0.12405083333333522
                },
                {
                    "name": "A#2",
                    "midi": 46,
                    "time": 38.009175333332905,
                    "velocity": 0.2992125984251969,
                    "duration": 0.09924066666666675
                },
                {
                    "name": "G#3",
                    "midi": 56,
                    "time": 38.10841599999957,
                    "velocity": 0.3543307086614173,
                    "duration": 0.12405083333333522
                },
                {
                    "name": "G3",
                    "midi": 55,
                    "time": 38.20765666666624,
                    "velocity": 0.30708661417322836,
                    "duration": 0.12405083333333522
                },
                {
                    "name": "F3",
                    "midi": 53,
                    "time": 38.306897333332905,
                    "velocity": 0.29133858267716534,
                    "duration": 0.12405083333333522
                },
                {
                    "name": "D#3",
                    "midi": 51,
                    "time": 38.40613799999957,
                    "velocity": 0.3228346456692913,
                    "duration": 0.12405083333333522
                },
                {
                    "name": "D3",
                    "midi": 50,
                    "time": 38.50537866666624,
                    "velocity": 0.2992125984251969,
                    "duration": 0.12405083333333522
                },
                {
                    "name": "C3",
                    "midi": 48,
                    "time": 38.604619333332906,
                    "velocity": 0.30708661417322836,
                    "duration": 0.09924066666666675
                },
                {
                    "name": "B2",
                    "midi": 47,
                    "time": 38.70385999999957,
                    "velocity": 0.33070866141732286,
                    "duration": 0.1984813333333335
                },
                {
                    "name": "G3",
                    "midi": 55,
                    "time": 38.80310066666624,
                    "velocity": 0.30708661417322836,
                    "duration": 0.12405083333333522
                },
                {
                    "name": "D3",
                    "midi": 50,
                    "time": 38.902341333332906,
                    "velocity": 0.28346456692913385,
                    "duration": 0.12405083333333522
                },
                {
                    "name": "F3",
                    "midi": 53,
                    "time": 39.00158199999957,
                    "velocity": 0.30708661417322836,
                    "duration": 0.12405083333333522
                },
                {
                    "name": "D#3",
                    "midi": 51,
                    "time": 39.10082266666624,
                    "velocity": 0.30708661417322836,
                    "duration": 0.12405083333333522
                },
                {
                    "name": "C3",
                    "midi": 48,
                    "time": 39.200063333332906,
                    "velocity": 0.30708661417322836,
                    "duration": 0.09924066666666675
                },
                {
                    "name": "B2",
                    "midi": 47,
                    "time": 39.29930399999957,
                    "velocity": 0.33858267716535434,
                    "duration": 0.1984813333333335
                },
                {
                    "name": "G3",
                    "midi": 55,
                    "time": 39.39854466666624,
                    "velocity": 0.30708661417322836,
                    "duration": 0.12405083333333522
                },
                {
                    "name": "D3",
                    "midi": 50,
                    "time": 39.49778533333291,
                    "velocity": 0.29133858267716534,
                    "duration": 0.12405083333333522
                },
                {
                    "name": "F3",
                    "midi": 53,
                    "time": 39.59702599999957,
                    "velocity": 0.33858267716535434,
                    "duration": 0.12405083333333522
                },
                {
                    "name": "D#3",
                    "midi": 51,
                    "time": 39.69626666666624,
                    "velocity": 0.30708661417322836,
                    "duration": 0.12405083333333522
                },
                {
                    "name": "C3",
                    "midi": 48,
                    "time": 39.79550733333291,
                    "velocity": 0.30708661417322836,
                    "duration": 0.09924066666666675
                },
                {
                    "name": "B2",
                    "midi": 47,
                    "time": 39.89474799999957,
                    "velocity": 0.3543307086614173,
                    "duration": 0.1984813333333335
                },
                {
                    "name": "G3",
                    "midi": 55,
                    "time": 39.99398866666624,
                    "velocity": 0.30708661417322836,
                    "duration": 0.12405083333333522
                },
                {
                    "name": "D3",
                    "midi": 50,
                    "time": 40.09322933333291,
                    "velocity": 0.28346456692913385,
                    "duration": 0.12405083333333522
                },
                {
                    "name": "F3",
                    "midi": 53,
                    "time": 40.192469999999574,
                    "velocity": 0.33858267716535434,
                    "duration": 0.12405083333333522
                },
                {
                    "name": "D#3",
                    "midi": 51,
                    "time": 40.29171066666624,
                    "velocity": 0.30708661417322836,
                    "duration": 0.12405083333333522
                },
                {
                    "name": "C3",
                    "midi": 48,
                    "time": 40.39095133333291,
                    "velocity": 0.30708661417322836,
                    "duration": 0.09924066666666675
                },
                {
                    "name": "C#4",
                    "midi": 61,
                    "time": 40.490191999999574,
                    "velocity": 0.4409448818897638,
                    "duration": 0.12405083333333522
                },
                {
                    "name": "C4",
                    "midi": 60,
                    "time": 40.58943266666624,
                    "velocity": 0.3858267716535433,
                    "duration": 0.12405083333333522
                },
                {
                    "name": "A#3",
                    "midi": 58,
                    "time": 40.68867333333291,
                    "velocity": 0.3700787401574803,
                    "duration": 0.12405083333333522
                },
                {
                    "name": "G#3",
                    "midi": 56,
                    "time": 40.787913999999574,
                    "velocity": 0.3700787401574803,
                    "duration": 0.12405083333333522
                },
                {
                    "name": "G3",
                    "midi": 55,
                    "time": 40.88715466666624,
                    "velocity": 0.36220472440944884,
                    "duration": 0.12405083333333522
                },
                {
                    "name": "F3",
                    "midi": 53,
                    "time": 40.98639533333291,
                    "velocity": 0.36220472440944884,
                    "duration": 0.09924066666666675
                },
                {
                    "name": "A#3",
                    "midi": 58,
                    "time": 41.085635999999575,
                    "velocity": 0.4015748031496063,
                    "duration": 0.12405083333332811
                },
                {
                    "name": "E3",
                    "midi": 52,
                    "time": 41.184876666666234,
                    "velocity": 0.36220472440944884,
                    "duration": 0.12405083333333522
                },
                {
                    "name": "G3",
                    "midi": 55,
                    "time": 41.2841173333329,
                    "velocity": 0.3543307086614173,
                    "duration": 0.12405083333333522
                },
                {
                    "name": "C#3",
                    "midi": 49,
                    "time": 41.38335799999957,
                    "velocity": 0.3700787401574803,
                    "duration": 0.12405083333333522
                },
                {
                    "name": "E3",
                    "midi": 52,
                    "time": 41.482598666666235,
                    "velocity": 0.36220472440944884,
                    "duration": 0.12405083333333522
                },
                {
                    "name": "C3",
                    "midi": 48,
                    "time": 41.5818393333329,
                    "velocity": 0.3464566929133858,
                    "duration": 0.09924066666666675
                },
                {
                    "name": "C#4",
                    "midi": 61,
                    "time": 41.68107999999957,
                    "velocity": 0.4409448818897638,
                    "duration": 0.12405083333333522
                },
                {
                    "name": "C4",
                    "midi": 60,
                    "time": 41.780320666666235,
                    "velocity": 0.3700787401574803,
                    "duration": 0.12405083333333522
                },
                {
                    "name": "A#3",
                    "midi": 58,
                    "time": 41.8795613333329,
                    "velocity": 0.3937007874015748,
                    "duration": 0.12405083333333522
                },
                {
                    "name": "G#3",
                    "midi": 56,
                    "time": 41.97880199999957,
                    "velocity": 0.3858267716535433,
                    "duration": 0.12405083333333522
                },
                {
                    "name": "G3",
                    "midi": 55,
                    "time": 42.078042666666235,
                    "velocity": 0.3700787401574803,
                    "duration": 0.12405083333333522
                },
                {
                    "name": "F3",
                    "midi": 53,
                    "time": 42.1772833333329,
                    "velocity": 0.3700787401574803,
                    "duration": 0.09924066666666675
                },
                {
                    "name": "A#3",
                    "midi": 58,
                    "time": 42.27652399999957,
                    "velocity": 0.4094488188976378,
                    "duration": 0.12405083333334233
                },
                {
                    "name": "E3",
                    "midi": 52,
                    "time": 42.37576466666624,
                    "velocity": 0.36220472440944884,
                    "duration": 0.12405083333333522
                },
                {
                    "name": "G3",
                    "midi": 55,
                    "time": 42.47500533333291,
                    "velocity": 0.3700787401574803,
                    "duration": 0.09924066666666675
                },
                {
                    "name": "C#3",
                    "midi": 49,
                    "time": 42.574245999999576,
                    "velocity": 0.36220472440944884,
                    "duration": 0.12405083333333522
                },
                {
                    "name": "E3",
                    "midi": 52,
                    "time": 42.67348666666624,
                    "velocity": 0.36220472440944884,
                    "duration": 0.12405083333333522
                },
                {
                    "name": "C3",
                    "midi": 48,
                    "time": 42.77272733333291,
                    "velocity": 0.3543307086614173,
                    "duration": 0.09924066666666675
                },
                {
                    "name": "A#3",
                    "midi": 58,
                    "time": 42.871967999999576,
                    "velocity": 0.3858267716535433,
                    "duration": 0.12405083333333522
                },
                {
                    "name": "E3",
                    "midi": 52,
                    "time": 42.97120866666624,
                    "velocity": 0.3543307086614173,
                    "duration": 0.12405083333333522
                },
                {
                    "name": "G3",
                    "midi": 55,
                    "time": 43.07044933333291,
                    "velocity": 0.3543307086614173,
                    "duration": 0.12405083333333522
                },
                {
                    "name": "C#3",
                    "midi": 49,
                    "time": 43.16968999999958,
                    "velocity": 0.33858267716535434,
                    "duration": 0.12405083333333522
                },
                {
                    "name": "E3",
                    "midi": 52,
                    "time": 43.26893066666624,
                    "velocity": 0.31496062992125984,
                    "duration": 0.12405083333333522
                },
                {
                    "name": "C3",
                    "midi": 48,
                    "time": 43.36817133333291,
                    "velocity": 0.31496062992125984,
                    "duration": 0.09924066666666675
                },
                {
                    "name": "G3",
                    "midi": 55,
                    "time": 43.46741199999958,
                    "velocity": 0.3779527559055118,
                    "duration": 0.12405083333333522
                },
                {
                    "name": "C#3",
                    "midi": 49,
                    "time": 43.56665266666624,
                    "velocity": 0.33858267716535434,
                    "duration": 0.12405083333333522
                },
                {
                    "name": "E3",
                    "midi": 52,
                    "time": 43.66589333333291,
                    "velocity": 0.33070866141732286,
                    "duration": 0.12405083333333522
                },
                {
                    "name": "C3",
                    "midi": 48,
                    "time": 43.76513399999958,
                    "velocity": 0.3228346456692913,
                    "duration": 0.12405083333333522
                },
                {
                    "name": "E3",
                    "midi": 52,
                    "time": 43.864374666666244,
                    "velocity": 0.31496062992125984,
                    "duration": 0.12405083333333522
                },
                {
                    "name": "A#2",
                    "midi": 46,
                    "time": 43.96361533333291,
                    "velocity": 0.31496062992125984,
                    "duration": 0.09924066666666675
                },
                {
                    "name": "E3",
                    "midi": 52,
                    "time": 44.06285599999958,
                    "velocity": 0.3937007874015748,
                    "duration": 0.12405083333333522
                },
                {
                    "name": "A#2",
                    "midi": 46,
                    "time": 44.162096666666244,
                    "velocity": 0.33070866141732286,
                    "duration": 0.12405083333333522
                },
                {
                    "name": "C#3",
                    "midi": 49,
                    "time": 44.26133733333291,
                    "velocity": 0.3228346456692913,
                    "duration": 0.12405083333333522
                },
                {
                    "name": "A2",
                    "midi": 45,
                    "time": 44.36057799999958,
                    "velocity": 0.3464566929133858,
                    "duration": 0.12405083333333522
                },
                {
                    "name": "A#2",
                    "midi": 46,
                    "time": 44.459818666666244,
                    "velocity": 0.3228346456692913,
                    "duration": 0.12405083333333522
                },
                {
                    "name": "G#2",
                    "midi": 44,
                    "time": 44.55905933333291,
                    "velocity": 0.33070866141732286,
                    "duration": 0.09924066666666675
                },
                {
                    "name": "C#3",
                    "midi": 49,
                    "time": 44.65829999999958,
                    "velocity": 0.33858267716535434,
                    "duration": 0.12405083333333522
                },
                {
                    "name": "G#2",
                    "midi": 44,
                    "time": 44.757540666666245,
                    "velocity": 0.31496062992125984,
                    "duration": 0.12405083333333522
                },
                {
                    "name": "A#2",
                    "midi": 46,
                    "time": 44.85678133333291,
                    "velocity": 0.31496062992125984,
                    "duration": 0.12405083333333522
                },
                {
                    "name": "G2",
                    "midi": 43,
                    "time": 44.95602199999958,
                    "velocity": 0.33070866141732286,
                    "duration": 0.12405083333333522
                },
                {
                    "name": "A#2",
                    "midi": 46,
                    "time": 45.055262666666245,
                    "velocity": 0.31496062992125984,
                    "duration": 0.12405083333333522
                },
                {
                    "name": "F#2",
                    "midi": 42,
                    "time": 45.15450333333291,
                    "velocity": 0.2677165354330709,
                    "duration": 0.09924066666666675
                },
                {
                    "name": "F2",
                    "midi": 41,
                    "time": 45.25374399999958,
                    "velocity": 0.33858267716535434,
                    "duration": 0.12405083333333522
                },
                {
                    "name": "G2",
                    "midi": 43,
                    "time": 45.352984666666245,
                    "velocity": 0.30708661417322836,
                    "duration": 0.12405083333333522
                },
                {
                    "name": "A#2",
                    "midi": 46,
                    "time": 45.45222533333291,
                    "velocity": 0.2992125984251969,
                    "duration": 0.12405083333333522
                },
                {
                    "name": "C#3",
                    "midi": 49,
                    "time": 45.55146599999958,
                    "velocity": 0.30708661417322836,
                    "duration": 0.12405083333333522
                },
                {
                    "name": "E2",
                    "midi": 40,
                    "time": 45.650706666666245,
                    "velocity": 0.2992125984251969,
                    "duration": 0.12405083333333522
                },
                {
                    "name": "G2",
                    "midi": 43,
                    "time": 45.74994733333291,
                    "velocity": 0.30708661417322836,
                    "duration": 0.09924066666666675
                },
                {
                    "name": "F2",
                    "midi": 41,
                    "time": 45.84918799999958,
                    "velocity": 0.33858267716535434,
                    "duration": 0.12405083333333522
                },
                {
                    "name": "G2",
                    "midi": 43,
                    "time": 45.948428666666246,
                    "velocity": 0.30708661417322836,
                    "duration": 0.12405083333333522
                },
                {
                    "name": "A#2",
                    "midi": 46,
                    "time": 46.04766933333291,
                    "velocity": 0.2992125984251969,
                    "duration": 0.12405083333333522
                },
                {
                    "name": "C#3",
                    "midi": 49,
                    "time": 46.14690999999958,
                    "velocity": 0.30708661417322836,
                    "duration": 0.12405083333333522
                },
                {
                    "name": "E2",
                    "midi": 40,
                    "time": 46.246150666666246,
                    "velocity": 0.2992125984251969,
                    "duration": 0.12405083333333522
                },
                {
                    "name": "G2",
                    "midi": 43,
                    "time": 46.34539133333291,
                    "velocity": 0.30708661417322836,
                    "duration": 0.08931660000000363
                },
                {
                    "name": "G2",
                    "midi": 43,
                    "time": 46.44463199999958,
                    "velocity": 0.3543307086614173,
                    "duration": 0.12405083333333522
                },
                {
                    "name": "A2",
                    "midi": 45,
                    "time": 46.543872666666246,
                    "velocity": 0.2992125984251969,
                    "duration": 0.12405083333333522
                },
                {
                    "name": "C3",
                    "midi": 48,
                    "time": 46.64311333333291,
                    "velocity": 0.30708661417322836,
                    "duration": 0.12405083333333522
                },
                {
                    "name": "D#3",
                    "midi": 51,
                    "time": 46.74235399999958,
                    "velocity": 0.30708661417322836,
                    "duration": 0.12405083333333522
                },
                {
                    "name": "F#2",
                    "midi": 42,
                    "time": 46.841594666666246,
                    "velocity": 0.2992125984251969,
                    "duration": 0.12405083333333522
                },
                {
                    "name": "A2",
                    "midi": 45,
                    "time": 46.94083533333291,
                    "velocity": 0.31496062992125984,
                    "duration": 0.09924066666666675
                },
                {
                    "name": "G2",
                    "midi": 43,
                    "time": 47.04007599999958,
                    "velocity": 0.3543307086614173,
                    "duration": 0.12405083333333522
                },
                {
                    "name": "A2",
                    "midi": 45,
                    "time": 47.13931666666625,
                    "velocity": 0.30708661417322836,
                    "duration": 0.12405083333333522
                },
                {
                    "name": "C3",
                    "midi": 48,
                    "time": 47.23855733333291,
                    "velocity": 0.30708661417322836,
                    "duration": 0.12405083333333522
                },
                {
                    "name": "D#3",
                    "midi": 51,
                    "time": 47.33779799999958,
                    "velocity": 0.3228346456692913,
                    "duration": 0.12405083333333522
                },
                {
                    "name": "F#2",
                    "midi": 42,
                    "time": 47.43703866666625,
                    "velocity": 0.33070866141732286,
                    "duration": 0.12405083333333522
                },
                {
                    "name": "A2",
                    "midi": 45,
                    "time": 47.536279333332914,
                    "velocity": 0.30708661417322836,
                    "duration": 0.09924066666666675
                },
                {
                    "name": "A#2",
                    "midi": 46,
                    "time": 47.63551999999958,
                    "velocity": 0.36220472440944884,
                    "duration": 0.12405083333333522
                },
                {
                    "name": "C3",
                    "midi": 48,
                    "time": 47.73476066666625,
                    "velocity": 0.30708661417322836,
                    "duration": 0.12405083333333522
                },
                {
                    "name": "D#3",
                    "midi": 51,
                    "time": 47.834001333332914,
                    "velocity": 0.31496062992125984,
                    "duration": 0.12405083333333522
                },
                {
                    "name": "F#3",
                    "midi": 54,
                    "time": 47.93324199999958,
                    "velocity": 0.3228346456692913,
                    "duration": 0.12405083333333522
                },
                {
                    "name": "A2",
                    "midi": 45,
                    "time": 48.03248266666625,
                    "velocity": 0.31496062992125984,
                    "duration": 0.12405083333333522
                },
                {
                    "name": "C3",
                    "midi": 48,
                    "time": 48.131723333332914,
                    "velocity": 0.2992125984251969,
                    "duration": 0.09924066666666675
                },
                {
                    "name": "C#3",
                    "midi": 49,
                    "time": 48.23096399999958,
                    "velocity": 0.33070866141732286,
                    "duration": 0.12405083333333522
                },
                {
                    "name": "D#3",
                    "midi": 51,
                    "time": 48.33020466666625,
                    "velocity": 0.3228346456692913,
                    "duration": 0.12405083333333522
                },
                {
                    "name": "F#3",
                    "midi": 54,
                    "time": 48.429445333332914,
                    "velocity": 0.31496062992125984,
                    "duration": 0.12405083333333522
                },
                {
                    "name": "A3",
                    "midi": 57,
                    "time": 48.52868599999958,
                    "velocity": 0.33070866141732286,
                    "duration": 0.12405083333333522
                },
                {
                    "name": "C3",
                    "midi": 48,
                    "time": 48.62792666666625,
                    "velocity": 0.3228346456692913,
                    "duration": 0.12405083333333522
                },
                {
                    "name": "D#3",
                    "midi": 51,
                    "time": 48.727167333332915,
                    "velocity": 0.33070866141732286,
                    "duration": 0.09924066666666675
                },
                {
                    "name": "C#3",
                    "midi": 49,
                    "time": 48.82640799999958,
                    "velocity": 0.36220472440944884,
                    "duration": 0.12405083333333522
                },
                {
                    "name": "D#3",
                    "midi": 51,
                    "time": 48.92564866666625,
                    "velocity": 0.3228346456692913,
                    "duration": 0.12405083333333522
                },
                {
                    "name": "F#3",
                    "midi": 54,
                    "time": 49.024889333332915,
                    "velocity": 0.31496062992125984,
                    "duration": 0.12405083333333522
                },
                {
                    "name": "A3",
                    "midi": 57,
                    "time": 49.12412999999958,
                    "velocity": 0.31496062992125984,
                    "duration": 0.12405083333333522
                },
                {
                    "name": "C3",
                    "midi": 48,
                    "time": 49.22337066666625,
                    "velocity": 0.3228346456692913,
                    "duration": 0.12405083333333522
                },
                {
                    "name": "D#3",
                    "midi": 51,
                    "time": 49.322611333332915,
                    "velocity": 0.33070866141732286,
                    "duration": 0.09924066666666675
                },
                {
                    "name": "F#3",
                    "midi": 54,
                    "time": 49.42185199999958,
                    "velocity": 0.3700787401574803,
                    "duration": 0.12405083333333522
                },
                {
                    "name": "A#3",
                    "midi": 58,
                    "time": 49.52109266666625,
                    "velocity": 0.33858267716535434,
                    "duration": 0.12405083333333522
                },
                {
                    "name": "C4",
                    "midi": 60,
                    "time": 49.620333333332916,
                    "velocity": 0.3464566929133858,
                    "duration": 0.12405083333333522
                },
                {
                    "name": "D#4",
                    "midi": 63,
                    "time": 49.71957399999958,
                    "velocity": 0.3543307086614173,
                    "duration": 0.12405083333333522
                },
                {
                    "name": "F3",
                    "midi": 53,
                    "time": 49.81881466666625,
                    "velocity": 0.3543307086614173,
                    "duration": 0.12405083333333522
                },
                {
                    "name": "A3",
                    "midi": 57,
                    "time": 49.918055333332916,
                    "velocity": 0.36220472440944884,
                    "duration": 0.09924066666666675
                },
                {
                    "name": "A#3",
                    "midi": 58,
                    "time": 50.01729599999958,
                    "velocity": 0.4330708661417323,
                    "duration": 0.12405083333333522
                },
                {
                    "name": "C#4",
                    "midi": 61,
                    "time": 50.11653666666625,
                    "velocity": 0.36220472440944884,
                    "duration": 0.12405083333333522
                },
                {
                    "name": "F#4",
                    "midi": 66,
                    "time": 50.215777333332916,
                    "velocity": 0.36220472440944884,
                    "duration": 0.12405083333333522
                },
                {
                    "name": "F4",
                    "midi": 65,
                    "time": 50.31501799999958,
                    "velocity": 0.3779527559055118,
                    "duration": 0.12405083333333522
                },
                {
                    "name": "C4",
                    "midi": 60,
                    "time": 50.41425866666625,
                    "velocity": 0.3543307086614173,
                    "duration": 0.12405083333333522
                },
                {
                    "name": "C#4",
                    "midi": 61,
                    "time": 50.513499333332916,
                    "velocity": 0.36220472440944884,
                    "duration": 0.09924066666666675
                },
                {
                    "name": "E4",
                    "midi": 64,
                    "time": 50.61273999999958,
                    "velocity": 0.4094488188976378,
                    "duration": 0.1984813333333335
                },
                {
                    "name": "C4",
                    "midi": 60,
                    "time": 50.71198066666625,
                    "velocity": 0.3779527559055118,
                    "duration": 0.12405083333333522
                },
                {
                    "name": "C#4",
                    "midi": 61,
                    "time": 50.81122133333292,
                    "velocity": 0.36220472440944884,
                    "duration": 0.12405083333333522
                },
                {
                    "name": "A3",
                    "midi": 57,
                    "time": 50.91046199999958,
                    "velocity": 0.3700787401574803,
                    "duration": 0.1984813333333335
                },
                {
                    "name": "A#3",
                    "midi": 58,
                    "time": 51.00970266666625,
                    "velocity": 0.36220472440944884,
                    "duration": 0.12405083333333522
                },
                {
                    "name": "F#3",
                    "midi": 54,
                    "time": 51.10894333333292,
                    "velocity": 0.33858267716535434,
                    "duration": 0.09924066666666675
                },
                {
                    "name": "E3",
                    "midi": 52,
                    "time": 51.208183999999584,
                    "velocity": 0.3700787401574803,
                    "duration": 0.1984813333333335
                },
                {
                    "name": "F3",
                    "midi": 53,
                    "time": 51.30742466666625,
                    "velocity": 0.33858267716535434,
                    "duration": 0.12405083333333522
                },
                {
                    "name": "A#3",
                    "midi": 58,
                    "time": 51.40666533333292,
                    "velocity": 0.33858267716535434,
                    "duration": 0.09924066666666675
                },
                {
                    "name": "G#3",
                    "midi": 56,
                    "time": 51.505905999999584,
                    "velocity": 0.3543307086614173,
                    "duration": 0.1984813333333335
                },
                {
                    "name": "A3",
                    "midi": 57,
                    "time": 51.60514666666625,
                    "velocity": 0.33858267716535434,
                    "duration": 0.12405083333333522
                },
                {
                    "name": "C#4",
                    "midi": 61,
                    "time": 51.70438733333292,
                    "velocity": 0.33858267716535434,
                    "duration": 0.09924066666666675
                },
                {
                    "name": "A3",
                    "midi": 57,
                    "time": 51.803627999999584,
                    "velocity": 0.3779527559055118,
                    "duration": 0.1984813333333335
                },
                {
                    "name": "A#3",
                    "midi": 58,
                    "time": 51.90286866666625,
                    "velocity": 0.36220472440944884,
                    "duration": 0.12405083333333522
                },
                {
                    "name": "C#4",
                    "midi": 61,
                    "time": 52.00210933333292,
                    "velocity": 0.3700787401574803,
                    "duration": 0.09924066666666675
                },
                {
                    "name": "B3",
                    "midi": 59,
                    "time": 52.101349999999584,
                    "velocity": 0.3937007874015748,
                    "duration": 0.1984813333333335
                },
                {
                    "name": "C4",
                    "midi": 60,
                    "time": 52.20059066666625,
                    "velocity": 0.3700787401574803,
                    "duration": 0.12405083333333522
                },
                {
                    "name": "F4",
                    "midi": 65,
                    "time": 52.29983133333292,
                    "velocity": 0.3464566929133858,
                    "duration": 0.09924066666666675
                },
                {
                    "name": "G#3",
                    "midi": 56,
                    "time": 52.399071999999585,
                    "velocity": 0.4330708661417323,
                    "duration": 0.12405083333333522
                },
                {
                    "name": "B3",
                    "midi": 59,
                    "time": 52.49831266666625,
                    "velocity": 0.3937007874015748,
                    "duration": 0.12405083333333522
                },
                {
                    "name": "E4",
                    "midi": 64,
                    "time": 52.59755333333292,
                    "velocity": 0.3700787401574803,
                    "duration": 0.12405083333333522
                },
                {
                    "name": "D#4",
                    "midi": 63,
                    "time": 52.696793999999585,
                    "velocity": 0.4094488188976378,
                    "duration": 0.12405083333333522
                },
                {
                    "name": "A#3",
                    "midi": 58,
                    "time": 52.79603466666625,
                    "velocity": 0.3858267716535433,
                    "duration": 0.12405083333333522
                },
                {
                    "name": "B3",
                    "midi": 59,
                    "time": 52.89527533333292,
                    "velocity": 0.33858267716535434,
                    "duration": 0.09924066666666675
                },
                {
                    "name": "D4",
                    "midi": 62,
                    "time": 52.994515999999585,
                    "velocity": 0.4094488188976378,
                    "duration": 0.1984813333333335
                },
                {
                    "name": "A#3",
                    "midi": 58,
                    "time": 53.09375666666625,
                    "velocity": 0.3700787401574803,
                    "duration": 0.12405083333333522
                },
                {
                    "name": "B3",
                    "midi": 59,
                    "time": 53.19299733333292,
                    "velocity": 0.3543307086614173,
                    "duration": 0.12405083333333522
                },
                {
                    "name": "G3",
                    "midi": 55,
                    "time": 53.292237999999585,
                    "velocity": 0.3858267716535433,
                    "duration": 0.1984813333333335
                },
                {
                    "name": "G#3",
                    "midi": 56,
                    "time": 53.39147866666625,
                    "velocity": 0.33858267716535434,
                    "duration": 0.12405083333333522
                },
                {
                    "name": "E3",
                    "midi": 52,
                    "time": 53.49071933333292,
                    "velocity": 0.33858267716535434,
                    "duration": 0.09924066666666675
                },
                {
                    "name": "D3",
                    "midi": 50,
                    "time": 53.589959999999586,
                    "velocity": 0.3700787401574803,
                    "duration": 0.1984813333333335
                },
                {
                    "name": "D#3",
                    "midi": 51,
                    "time": 53.68920066666625,
                    "velocity": 0.33858267716535434,
                    "duration": 0.12405083333333522
                },
                {
                    "name": "G#3",
                    "midi": 56,
                    "time": 53.78844133333292,
                    "velocity": 0.33858267716535434,
                    "duration": 0.09924066666666675
                },
                {
                    "name": "E3",
                    "midi": 52,
                    "time": 53.887681999999586,
                    "velocity": 0.3779527559055118,
                    "duration": 0.1984813333333335
                },
                {
                    "name": "F3",
                    "midi": 53,
                    "time": 53.98692266666625,
                    "velocity": 0.3543307086614173,
                    "duration": 0.12405083333333522
                },
                {
                    "name": "B3",
                    "midi": 59,
                    "time": 54.08616333333292,
                    "velocity": 0.3543307086614173,
                    "duration": 0.09924066666666675
                },
                {
                    "name": "F3",
                    "midi": 53,
                    "time": 54.185403999999586,
                    "velocity": 0.3937007874015748,
                    "duration": 0.1984813333333335
                },
                {
                    "name": "F#3",
                    "midi": 54,
                    "time": 54.28464466666625,
                    "velocity": 0.36220472440944884,
                    "duration": 0.12405083333333522
                },
                {
                    "name": "B3",
                    "midi": 59,
                    "time": 54.38388533333292,
                    "velocity": 0.3700787401574803,
                    "duration": 0.09924066666666675
                },
                {
                    "name": "A3",
                    "midi": 57,
                    "time": 54.48312599999959,
                    "velocity": 0.4015748031496063,
                    "duration": 0.1984813333333335
                },
                {
                    "name": "A#3",
                    "midi": 58,
                    "time": 54.58236666666625,
                    "velocity": 0.3700787401574803,
                    "duration": 0.12405083333333522
                },
                {
                    "name": "D#4",
                    "midi": 63,
                    "time": 54.68160733333292,
                    "velocity": 0.3858267716535433,
                    "duration": 0.09924066666666675
                },
                {
                    "name": "C#4",
                    "midi": 61,
                    "time": 54.78084799999959,
                    "velocity": 0.4251968503937008,
                    "duration": 0.12405083333333522
                },
                {
                    "name": "C4",
                    "midi": 60,
                    "time": 54.88008866666625,
                    "velocity": 0.3543307086614173,
                    "duration": 0.12405083333333522
                },
                {
                    "name": "B3",
                    "midi": 59,
                    "time": 54.97932933333292,
                    "velocity": 0.30708661417322836,
                    "duration": 0.12405083333333522
                },
                {
                    "name": "A#3",
                    "midi": 58,
                    "time": 55.07856999999959,
                    "velocity": 0.3700787401574803,
                    "duration": 0.12405083333333522
                },
                {
                    "name": "A3",
                    "midi": 57,
                    "time": 55.177810666666254,
                    "velocity": 0.3464566929133858,
                    "duration": 0.12405083333333522
                },
                {
                    "name": "F4",
                    "midi": 65,
                    "time": 55.27705133333292,
                    "velocity": 0.3543307086614173,
                    "duration": 0.09924066666666675
                },
                {
                    "name": "D#4",
                    "midi": 63,
                    "time": 55.37629199999959,
                    "velocity": 0.4251968503937008,
                    "duration": 0.12405083333333522
                },
                {
                    "name": "D4",
                    "midi": 62,
                    "time": 55.475532666666254,
                    "velocity": 0.3543307086614173,
                    "duration": 0.12405083333333522
                },
                {
                    "name": "C#4",
                    "midi": 61,
                    "time": 55.57477333333292,
                    "velocity": 0.3543307086614173,
                    "duration": 0.12405083333333522
                },
                {
                    "name": "C4",
                    "midi": 60,
                    "time": 55.67401399999959,
                    "velocity": 0.3779527559055118,
                    "duration": 0.12405083333333522
                },
                {
                    "name": "A#3",
                    "midi": 58,
                    "time": 55.773254666666254,
                    "velocity": 0.3543307086614173,
                    "duration": 0.12405083333333522
                },
                {
                    "name": "F#4",
                    "midi": 66,
                    "time": 55.87249533333292,
                    "velocity": 0.3779527559055118,
                    "duration": 0.09924066666666675
                },
                {
                    "name": "F4",
                    "midi": 65,
                    "time": 55.97173599999959,
                    "velocity": 0.4409448818897638,
                    "duration": 0.12405083333333522
                },
                {
                    "name": "D#4",
                    "midi": 63,
                    "time": 56.070976666666255,
                    "velocity": 0.3937007874015748,
                    "duration": 0.12405083333333522
                },
                {
                    "name": "D4",
                    "midi": 62,
                    "time": 56.17021733333292,
                    "velocity": 0.3700787401574803,
                    "duration": 0.12405083333333522
                },
                {
                    "name": "C#4",
                    "midi": 61,
                    "time": 56.26945799999959,
                    "velocity": 0.4015748031496063,
                    "duration": 0.12405083333333522
                },
                {
                    "name": "C4",
                    "midi": 60,
                    "time": 56.368698666666255,
                    "velocity": 0.3858267716535433,
                    "duration": 0.12405083333333522
                },
                {
                    "name": "A4",
                    "midi": 69,
                    "time": 56.46793933333292,
                    "velocity": 0.41732283464566927,
                    "duration": 0.09924066666666675
                },
                {
                    "name": "C4",
                    "midi": 60,
                    "time": 56.56717999999959,
                    "velocity": 0.44881889763779526,
                    "duration": 0.1984813333333335
                },
                {
                    "name": "C#4",
                    "midi": 61,
                    "time": 56.666420666666255,
                    "velocity": 0.4094488188976378,
                    "duration": 0.12405083333333522
                },
                {
                    "name": "A#4",
                    "midi": 70,
                    "time": 56.76566133333292,
                    "velocity": 0.4094488188976378,
                    "duration": 0.09924066666666675
                },
                {
                    "name": "D4",
                    "midi": 62,
                    "time": 56.86490199999959,
                    "velocity": 0.47244094488188976,
                    "duration": 0.1984813333333335
                },
                {
                    "name": "D#4",
                    "midi": 63,
                    "time": 56.964142666666255,
                    "velocity": 0.4094488188976378,
                    "duration": 0.12405083333333522
                },
                {
                    "name": "A#4",
                    "midi": 70,
                    "time": 57.06338333333292,
                    "velocity": 0.4409448818897638,
                    "duration": 0.09924066666666675
                },
                {
                    "name": "C5",
                    "midi": 72,
                    "time": 57.16262399999959,
                    "velocity": 0.48031496062992124,
                    "duration": 0.12405083333333522
                },
                {
                    "name": "A#4",
                    "midi": 70,
                    "time": 57.261864666666256,
                    "velocity": 0.4015748031496063,
                    "duration": 0.12405083333333522
                },
                {
                    "name": "G#4",
                    "midi": 68,
                    "time": 57.36110533333292,
                    "velocity": 0.3700787401574803,
                    "duration": 0.12405083333333522
                },
                {
                    "name": "F#4",
                    "midi": 66,
                    "time": 57.46034599999959,
                    "velocity": 0.4094488188976378,
                    "duration": 0.12405083333333522
                },
                {
                    "name": "F4",
                    "midi": 65,
                    "time": 57.559586666666256,
                    "velocity": 0.3858267716535433,
                    "duration": 0.12405083333333522
                },
                {
                    "name": "E4",
                    "midi": 64,
                    "time": 57.65882733333292,
                    "velocity": 0.3858267716535433,
                    "duration": 0.09924066666666675
                },
                {
                    "name": "C5",
                    "midi": 72,
                    "time": 57.75806799999959,
                    "velocity": 0.48031496062992124,
                    "duration": 0.12405083333333522
                },
                {
                    "name": "A#4",
                    "midi": 70,
                    "time": 57.857308666666256,
                    "velocity": 0.4094488188976378,
                    "duration": 0.12405083333333522
                },
                {
                    "name": "G#4",
                    "midi": 68,
                    "time": 57.95654933333292,
                    "velocity": 0.3700787401574803,
                    "duration": 0.12405083333333522
                },
                {
                    "name": "F#4",
                    "midi": 66,
                    "time": 58.05578999999959,
                    "velocity": 0.41732283464566927,
                    "duration": 0.12405083333333522
                },
                {
                    "name": "F4",
                    "midi": 65,
                    "time": 58.155030666666256,
                    "velocity": 0.3779527559055118,
                    "duration": 0.12405083333333522
                },
                {
                    "name": "E4",
                    "midi": 64,
                    "time": 58.25427133333292,
                    "velocity": 0.3858267716535433,
                    "duration": 0.09924066666666675
                },
                {
                    "name": "F#4",
                    "midi": 66,
                    "time": 58.35351199999959,
                    "velocity": 0.4409448818897638,
                    "duration": 0.12405083333333522
                },
                {
                    "name": "F4",
                    "midi": 65,
                    "time": 58.45275266666626,
                    "velocity": 0.3779527559055118,
                    "duration": 0.12405083333333522
                },
                {
                    "name": "E4",
                    "midi": 64,
                    "time": 58.55199333333292,
                    "velocity": 0.3700787401574803,
                    "duration": 0.12405083333333522
                },
                {
                    "name": "D#4",
                    "midi": 63,
                    "time": 58.65123399999959,
                    "velocity": 0.4015748031496063,
                    "duration": 0.12405083333333522
                },
                {
                    "name": "D4",
                    "midi": 62,
                    "time": 58.75047466666626,
                    "velocity": 0.3700787401574803,
                    "duration": 0.12405083333333522
                },
                {
                    "name": "C#4",
                    "midi": 61,
                    "time": 58.849715333332924,
                    "velocity": 0.36220472440944884,
                    "duration": 0.09924066666666675
                },
                {
                    "name": "D#4",
                    "midi": 63,
                    "time": 58.94895599999959,
                    "velocity": 0.3858267716535433,
                    "duration": 0.12405083333333522
                },
                {
                    "name": "B3",
                    "midi": 59,
                    "time": 59.04819666666626,
                    "velocity": 0.3543307086614173,
                    "duration": 0.12405083333333522
                },
                {
                    "name": "C4",
                    "midi": 60,
                    "time": 59.147437333332924,
                    "velocity": 0.33070866141732286,
                    "duration": 0.12405083333333522
                },
                {
                    "name": "C#4",
                    "midi": 61,
                    "time": 59.24667799999959,
                    "velocity": 0.33858267716535434,
                    "duration": 0.12405083333333522
                },
                {
                    "name": "A3",
                    "midi": 57,
                    "time": 59.34591866666626,
                    "velocity": 0.31496062992125984,
                    "duration": 0.12405083333333522
                },
                {
                    "name": "A#3",
                    "midi": 58,
                    "time": 59.445159333332924,
                    "velocity": 0.33070866141732286,
                    "duration": 0.09924066666666675
                },
                {
                    "name": "C4",
                    "midi": 60,
                    "time": 59.54439999999959,
                    "velocity": 0.3543307086614173,
                    "duration": 0.1984813333333335
                },
                {
                    "name": "G3",
                    "midi": 55,
                    "time": 59.64364066666626,
                    "velocity": 0.29133858267716534,
                    "duration": 0.12405083333333522
                },
                {
                    "name": "G#3",
                    "midi": 56,
                    "time": 59.742881333332924,
                    "velocity": 0.2992125984251969,
                    "duration": 0.12405083333333522
                },
                {
                    "name": "B3",
                    "midi": 59,
                    "time": 59.84212199999959,
                    "velocity": 0.30708661417322836,
                    "duration": 0.1984813333333335
                },
                {
                    "name": "F#3",
                    "midi": 54,
                    "time": 59.94136266666626,
                    "velocity": 0.2755905511811024,
                    "duration": 0.12405083333333522
                },
                {
                    "name": "D#4",
                    "midi": 63,
                    "time": 60.040603333332925,
                    "velocity": 0.2440944881889764,
                    "duration": 0.09924066666666675
                },
                {
                    "name": "A#3",
                    "midi": 58,
                    "time": 60.13984399999959,
                    "velocity": 0.30708661417322836,
                    "duration": 0.1984813333333335
                },
                {
                    "name": "F3",
                    "midi": 53,
                    "time": 60.23908466666626,
                    "velocity": 0.2755905511811024,
                    "duration": 0.12405083333333522
                },
                {
                    "name": "F#3",
                    "midi": 54,
                    "time": 60.338325333332925,
                    "velocity": 0.29133858267716534,
                    "duration": 0.12405083333333522
                },
                {
                    "name": "A3",
                    "midi": 57,
                    "time": 60.43756599999959,
                    "velocity": 0.30708661417322836,
                    "duration": 0.1984813333333335
                },
                {
                    "name": "E3",
                    "midi": 52,
                    "time": 60.53680666666626,
                    "velocity": 0.2677165354330709,
                    "duration": 0.12405083333333522
                },
                {
                    "name": "C#4",
                    "midi": 61,
                    "time": 60.636047333332925,
                    "velocity": 0.25196850393700787,
                    "duration": 0.09924066666666675
                },
                {
                    "name": "G#3",
                    "midi": 56,
                    "time": 60.73528799999959,
                    "velocity": 0.33858267716535434,
                    "duration": 0.1984813333333335
                },
                {
                    "name": "D#3",
                    "midi": 51,
                    "time": 60.83452866666626,
                    "velocity": 0.28346456692913385,
                    "duration": 0.12405083333333522
                },
                {
                    "name": "E3",
                    "midi": 52,
                    "time": 60.933769333332926,
                    "velocity": 0.28346456692913385,
                    "duration": 0.12405083333333522
                },
                {
                    "name": "G3",
                    "midi": 55,
                    "time": 61.03300999999959,
                    "velocity": 0.29133858267716534,
                    "duration": 0.1984813333333335
                },
                {
                    "name": "D3",
                    "midi": 50,
                    "time": 61.13225066666626,
                    "velocity": 0.2677165354330709,
                    "duration": 0.12405083333333522
                },
                {
                    "name": "B3",
                    "midi": 59,
                    "time": 61.231491333332926,
                    "velocity": 0.2440944881889764,
                    "duration": 0.09924066666666675
                },
                {
                    "name": "F#3",
                    "midi": 54,
                    "time": 61.33073199999959,
                    "velocity": 0.30708661417322836,
                    "duration": 0.1984813333333335
                },
                {
                    "name": "C#3",
                    "midi": 49,
                    "time": 61.42997266666626,
                    "velocity": 0.2677165354330709,
                    "duration": 0.12405083333333522
                },
                {
                    "name": "D3",
                    "midi": 50,
                    "time": 61.529213333332926,
                    "velocity": 0.2677165354330709,
                    "duration": 0.12405083333333522
                },
                {
                    "name": "F3",
                    "midi": 53,
                    "time": 61.62845399999959,
                    "velocity": 0.28346456692913385,
                    "duration": 0.1984813333333335
                },
                {
                    "name": "C3",
                    "midi": 48,
                    "time": 61.72769466666626,
                    "velocity": 0.25196850393700787,
                    "duration": 0.12405083333333522
                },
                {
                    "name": "A3",
                    "midi": 57,
                    "time": 61.826935333332926,
                    "velocity": 0.25196850393700787,
                    "duration": 0.09924066666666675
                },
                {
                    "name": "D4",
                    "midi": 62,
                    "time": 61.92617599999959,
                    "velocity": 0.3228346456692913,
                    "duration": 0.1984813333333335
                },
                {
                    "name": "A3",
                    "midi": 57,
                    "time": 62.02541666666626,
                    "velocity": 0.2755905511811024,
                    "duration": 0.12405083333333522
                },
                {
                    "name": "A#3",
                    "midi": 58,
                    "time": 62.12465733333293,
                    "velocity": 0.2992125984251969,
                    "duration": 0.12405083333333522
                },
                {
                    "name": "C#4",
                    "midi": 61,
                    "time": 62.22389799999959,
                    "velocity": 0.3228346456692913,
                    "duration": 0.1984813333333335
                },
                {
                    "name": "G#3",
                    "midi": 56,
                    "time": 62.32313866666626,
                    "velocity": 0.2755905511811024,
                    "duration": 0.12405083333333522
                },
                {
                    "name": "F4",
                    "midi": 65,
                    "time": 62.42237933333293,
                    "velocity": 0.23622047244094488,
                    "duration": 0.09924066666666675
                },
                {
                    "name": "C4",
                    "midi": 60,
                    "time": 62.521619999999594,
                    "velocity": 0.31496062992125984,
                    "duration": 0.1984813333333335
                },
                {
                    "name": "G3",
                    "midi": 55,
                    "time": 62.62086066666626,
                    "velocity": 0.2755905511811024,
                    "duration": 0.12405083333333522
                },
                {
                    "name": "G#3",
                    "midi": 56,
                    "time": 62.72010133333293,
                    "velocity": 0.2755905511811024,
                    "duration": 0.12405083333333522
                },
                {
                    "name": "B3",
                    "midi": 59,
                    "time": 62.819341999999594,
                    "velocity": 0.28346456692913385,
                    "duration": 0.1984813333333335
                },
                {
                    "name": "F#3",
                    "midi": 54,
                    "time": 62.91858266666626,
                    "velocity": 0.2755905511811024,
                    "duration": 0.12405083333333522
                },
                {
                    "name": "D#4",
                    "midi": 63,
                    "time": 63.01782333333293,
                    "velocity": 0.25196850393700787,
                    "duration": 0.09924066666666675
                },
                {
                    "name": "A#3",
                    "midi": 58,
                    "time": 63.117063999999594,
                    "velocity": 0.30708661417322836,
                    "duration": 0.1984813333333335
                },
                {
                    "name": "F3",
                    "midi": 53,
                    "time": 63.21630466666626,
                    "velocity": 0.25984251968503935,
                    "duration": 0.12405083333333522
                },
                {
                    "name": "F#3",
                    "midi": 54,
                    "time": 63.31554533333293,
                    "velocity": 0.2677165354330709,
                    "duration": 0.12405083333333522
                },
                {
                    "name": "A3",
                    "midi": 57,
                    "time": 63.414785999999594,
                    "velocity": 0.2755905511811024,
                    "duration": 0.1984813333333335
                },
                {
                    "name": "E3",
                    "midi": 52,
                    "time": 63.51402666666626,
                    "velocity": 0.25196850393700787,
                    "duration": 0.12405083333333522
                },
                {
                    "name": "C#4",
                    "midi": 61,
                    "time": 63.61326733333293,
                    "velocity": 0.25196850393700787,
                    "duration": 0.09924066666666675
                },
                {
                    "name": "G#3",
                    "midi": 56,
                    "time": 63.712507999999595,
                    "velocity": 0.29133858267716534,
                    "duration": 0.1984813333333335
                },
                {
                    "name": "D#3",
                    "midi": 51,
                    "time": 63.81174866666626,
                    "velocity": 0.25984251968503935,
                    "duration": 0.12405083333333522
                },
                {
                    "name": "E3",
                    "midi": 52,
                    "time": 63.91098933333293,
                    "velocity": 0.2677165354330709,
                    "duration": 0.12405083333333522
                },
                {
                    "name": "G3",
                    "midi": 55,
                    "time": 64.0102299999996,
                    "velocity": 0.28346456692913385,
                    "duration": 0.1984813333333335
                },
                {
                    "name": "D3",
                    "midi": 50,
                    "time": 64.10947066666627,
                    "velocity": 0.25984251968503935,
                    "duration": 0.12405083333332811
                },
                {
                    "name": "B3",
                    "midi": 59,
                    "time": 64.20871133333293,
                    "velocity": 0.2755905511811024,
                    "duration": 0.09924066666667386
                },
                {
                    "name": "E4",
                    "midi": 64,
                    "time": 64.3079519999996,
                    "velocity": 0.3543307086614173,
                    "duration": 0.1984813333333193
                },
                {
                    "name": "B3",
                    "midi": 59,
                    "time": 64.40719266666626,
                    "velocity": 0.25984251968503935,
                    "duration": 0.12405083333332811
                },
                {
                    "name": "C4",
                    "midi": 60,
                    "time": 64.50643333333292,
                    "velocity": 0.2992125984251969,
                    "duration": 0.12405083333334233
                },
                {
                    "name": "D#4",
                    "midi": 63,
                    "time": 64.6056739999996,
                    "velocity": 0.2992125984251969,
                    "duration": 0.1984813333333335
                },
                {
                    "name": "A#3",
                    "midi": 58,
                    "time": 64.70491466666627,
                    "velocity": 0.25196850393700787,
                    "duration": 0.12405083333332811
                },
                {
                    "name": "G4",
                    "midi": 67,
                    "time": 64.80415533333293,
                    "velocity": 0.28346456692913385,
                    "duration": 0.09924066666667386
                },
                {
                    "name": "D4",
                    "midi": 62,
                    "time": 64.9033959999996,
                    "velocity": 0.31496062992125984,
                    "duration": 0.1984813333333193
                },
                {
                    "name": "A3",
                    "midi": 57,
                    "time": 65.00263666666626,
                    "velocity": 0.25196850393700787,
                    "duration": 0.12405083333332811
                },
                {
                    "name": "A#3",
                    "midi": 58,
                    "time": 65.10187733333292,
                    "velocity": 0.2755905511811024,
                    "duration": 0.12405083333334233
                },
                {
                    "name": "C#4",
                    "midi": 61,
                    "time": 65.2011179999996,
                    "velocity": 0.2755905511811024,
                    "duration": 0.1984813333333335
                },
                {
                    "name": "G#3",
                    "midi": 56,
                    "time": 65.30035866666627,
                    "velocity": 0.25196850393700787,
                    "duration": 0.12405083333332811
                },
                {
                    "name": "F4",
                    "midi": 65,
                    "time": 65.39959933333293,
                    "velocity": 0.25196850393700787,
                    "duration": 0.09924066666667386
                },
                {
                    "name": "C4",
                    "midi": 60,
                    "time": 65.4988399999996,
                    "velocity": 0.3228346456692913,
                    "duration": 0.1984813333333193
                },
                {
                    "name": "G3",
                    "midi": 55,
                    "time": 65.59808066666626,
                    "velocity": 0.25196850393700787,
                    "duration": 0.12405083333332811
                },
                {
                    "name": "G#3",
                    "midi": 56,
                    "time": 65.69732133333292,
                    "velocity": 0.25984251968503935,
                    "duration": 0.12405083333334233
                },
                {
                    "name": "B3",
                    "midi": 59,
                    "time": 65.7965619999996,
                    "velocity": 0.2677165354330709,
                    "duration": 0.1984813333333335
                },
                {
                    "name": "F#3",
                    "midi": 54,
                    "time": 65.89580266666627,
                    "velocity": 0.2440944881889764,
                    "duration": 0.12405083333332811
                },
                {
                    "name": "D#4",
                    "midi": 63,
                    "time": 65.99504333333293,
                    "velocity": 0.2440944881889764,
                    "duration": 0.09924066666667386
                },
                {
                    "name": "A#3",
                    "midi": 58,
                    "time": 66.0942839999996,
                    "velocity": 0.30708661417322836,
                    "duration": 0.1984813333333193
                },
                {
                    "name": "F3",
                    "midi": 53,
                    "time": 66.19352466666626,
                    "velocity": 0.2440944881889764,
                    "duration": 0.12405083333332811
                },
                {
                    "name": "D#4",
                    "midi": 63,
                    "time": 66.29276533333292,
                    "velocity": 0.25984251968503935,
                    "duration": 0.12405083333334233
                },
                {
                    "name": "A#3",
                    "midi": 58,
                    "time": 66.3920059999996,
                    "velocity": 0.2677165354330709,
                    "duration": 0.1984813333333335
                },
                {
                    "name": "F3",
                    "midi": 53,
                    "time": 66.49124666666627,
                    "velocity": 0.2283464566929134,
                    "duration": 0.12405083333332811
                },
                {
                    "name": "C#4",
                    "midi": 61,
                    "time": 66.59048733333293,
                    "velocity": 0.25196850393700787,
                    "duration": 0.09924066666667386
                },
                {
                    "name": "F#3",
                    "midi": 54,
                    "time": 66.6897279999996,
                    "velocity": 0.3228346456692913,
                    "duration": 0.12405083333332811
                },
                {
                    "name": "F3",
                    "midi": 53,
                    "time": 66.78896866666626,
                    "velocity": 0.2755905511811024,
                    "duration": 0.12405083333334233
                },
                {
                    "name": "E3",
                    "midi": 52,
                    "time": 66.88820933333294,
                    "velocity": 0.25984251968503935,
                    "duration": 0.12405083333334233
                },
                {
                    "name": "D#3",
                    "midi": 51,
                    "time": 66.98744999999961,
                    "velocity": 0.28346456692913385,
                    "duration": 0.12405083333334233
                },
                {
                    "name": "C#3",
                    "midi": 49,
                    "time": 67.08669066666629,
                    "velocity": 0.2755905511811024,
                    "duration": 0.12405083333334233
                },
                {
                    "name": "C3",
                    "midi": 48,
                    "time": 67.18593133333296,
                    "velocity": 0.2755905511811024,
                    "duration": 0.09924066666667386
                },
                {
                    "name": "F#3",
                    "midi": 54,
                    "time": 67.28517199999963,
                    "velocity": 0.3228346456692913,
                    "duration": 0.12405083333332811
                },
                {
                    "name": "F3",
                    "midi": 53,
                    "time": 67.3844126666663,
                    "velocity": 0.2755905511811024,
                    "duration": 0.12405083333334233
                },
                {
                    "name": "D#3",
                    "midi": 51,
                    "time": 67.48365333333297,
                    "velocity": 0.2755905511811024,
                    "duration": 0.12405083333334233
                },
                {
                    "name": "C#3",
                    "midi": 49,
                    "time": 67.58289399999964,
                    "velocity": 0.2992125984251969,
                    "duration": 0.12405083333334233
                },
                {
                    "name": "C3",
                    "midi": 48,
                    "time": 67.68213466666631,
                    "velocity": 0.29133858267716534,
                    "duration": 0.12405083333334233
                },
                {
                    "name": "A#2",
                    "midi": 46,
                    "time": 67.78137533333299,
                    "velocity": 0.2755905511811024,
                    "duration": 0.09924066666667386
                },
                {
                    "name": "F#3",
                    "midi": 54,
                    "time": 67.88061599999966,
                    "velocity": 0.3228346456692913,
                    "duration": 0.12405083333332811
                },
                {
                    "name": "F3",
                    "midi": 53,
                    "time": 67.97985666666632,
                    "velocity": 0.2992125984251969,
                    "duration": 0.12405083333334233
                },
                {
                    "name": "D#3",
                    "midi": 51,
                    "time": 68.079097333333,
                    "velocity": 0.2755905511811024,
                    "duration": 0.12405083333334233
                },
                {
                    "name": "C#3",
                    "midi": 49,
                    "time": 68.17833799999967,
                    "velocity": 0.2992125984251969,
                    "duration": 0.12405083333334233
                },
                {
                    "name": "C3",
                    "midi": 48,
                    "time": 68.27757866666634,
                    "velocity": 0.29133858267716534,
                    "duration": 0.12405083333334233
                },
                {
                    "name": "B2",
                    "midi": 47,
                    "time": 68.37681933333302,
                    "velocity": 0.2755905511811024,
                    "duration": 0.09924066666667386
                },
                {
                    "name": "F#3",
                    "midi": 54,
                    "time": 68.47605999999969,
                    "velocity": 0.3228346456692913,
                    "duration": 0.12405083333332811
                },
                {
                    "name": "F3",
                    "midi": 53,
                    "time": 68.57530066666635,
                    "velocity": 0.2992125984251969,
                    "duration": 0.12405083333334233
                },
                {
                    "name": "D#3",
                    "midi": 51,
                    "time": 68.67454133333302,
                    "velocity": 0.2755905511811024,
                    "duration": 0.12405083333334233
                },
                {
                    "name": "C#3",
                    "midi": 49,
                    "time": 68.7737819999997,
                    "velocity": 0.2992125984251969,
                    "duration": 0.12405083333334233
                },
                {
                    "name": "B2",
                    "midi": 47,
                    "time": 68.87302266666637,
                    "velocity": 0.29133858267716534,
                    "duration": 0.12405083333334233
                },
                {
                    "name": "A#2",
                    "midi": 46,
                    "time": 68.97226333333305,
                    "velocity": 0.2755905511811024,
                    "duration": 0.09924066666667386
                },
                {
                    "name": "A2",
                    "midi": 45,
                    "time": 69.07150399999972,
                    "velocity": 0.2992125984251969,
                    "duration": 0.12405083333332811
                },
                {
                    "name": "A#2",
                    "midi": 46,
                    "time": 69.17074466666638,
                    "velocity": 0.28346456692913385,
                    "duration": 0.12405083333334233
                },
                {
                    "name": "C3",
                    "midi": 48,
                    "time": 69.26998533333305,
                    "velocity": 0.28346456692913385,
                    "duration": 0.12405083333334233
                },
                {
                    "name": "D#3",
                    "midi": 51,
                    "time": 69.36922599999973,
                    "velocity": 0.2755905511811024,
                    "duration": 0.12405083333334233
                },
                {
                    "name": "C#3",
                    "midi": 49,
                    "time": 69.4684666666664,
                    "velocity": 0.2677165354330709,
                    "duration": 0.12405083333334233
                },
                {
                    "name": "A2",
                    "midi": 45,
                    "time": 69.56770733333308,
                    "velocity": 0.2677165354330709,
                    "duration": 0.09924066666667386
                },
                {
                    "name": "C3",
                    "midi": 48,
                    "time": 69.66694799999975,
                    "velocity": 0.2992125984251969,
                    "duration": 0.12405083333332811
                },
                {
                    "name": "A#2",
                    "midi": 46,
                    "time": 69.76618866666641,
                    "velocity": 0.2677165354330709,
                    "duration": 0.12405083333334233
                },
                {
                    "name": "F2",
                    "midi": 41,
                    "time": 69.86542933333308,
                    "velocity": 0.2677165354330709,
                    "duration": 0.12405083333334233
                },
                {
                    "name": "G#2",
                    "midi": 44,
                    "time": 69.96466999999976,
                    "velocity": 0.2677165354330709,
                    "duration": 0.12405083333334233
                },
                {
                    "name": "F#2",
                    "midi": 42,
                    "time": 70.06391066666643,
                    "velocity": 0.2677165354330709,
                    "duration": 0.12405083333334233
                },
                {
                    "name": "F2",
                    "midi": 41,
                    "time": 70.1631513333331,
                    "velocity": 0.2677165354330709,
                    "duration": 0.09924066666667386
                },
                {
                    "name": "D#2",
                    "midi": 39,
                    "time": 70.26239199999978,
                    "velocity": 0.2992125984251969,
                    "duration": 0.12405083333332811
                },
                {
                    "name": "F2",
                    "midi": 41,
                    "time": 70.36163266666644,
                    "velocity": 0.28346456692913385,
                    "duration": 0.12405083333334233
                },
                {
                    "name": "F#2",
                    "midi": 42,
                    "time": 70.46087333333311,
                    "velocity": 0.28346456692913385,
                    "duration": 0.12405083333334233
                },
                {
                    "name": "A#2",
                    "midi": 46,
                    "time": 70.56011399999979,
                    "velocity": 0.28346456692913385,
                    "duration": 0.12405083333334233
                },
                {
                    "name": "G#2",
                    "midi": 44,
                    "time": 70.65935466666646,
                    "velocity": 0.2677165354330709,
                    "duration": 0.12405083333334233
                },
                {
                    "name": "F#2",
                    "midi": 42,
                    "time": 70.75859533333313,
                    "velocity": 0.2677165354330709,
                    "duration": 0.09924066666667386
                },
                {
                    "name": "F2",
                    "midi": 41,
                    "time": 70.8578359999998,
                    "velocity": 0.29133858267716534,
                    "duration": 0.12405083333332811
                },
                {
                    "name": "C#2",
                    "midi": 37,
                    "time": 70.95707666666647,
                    "velocity": 0.2677165354330709,
                    "duration": 0.12405083333334233
                },
                {
                    "name": "D#2",
                    "midi": 39,
                    "time": 71.05631733333314,
                    "velocity": 0.2677165354330709,
                    "duration": 0.12405083333334233
                },
                {
                    "name": "F2",
                    "midi": 41,
                    "time": 71.15555799999981,
                    "velocity": 0.28346456692913385,
                    "duration": 0.12405083333334233
                },
                {
                    "name": "E2",
                    "midi": 40,
                    "time": 71.25479866666649,
                    "velocity": 0.2677165354330709,
                    "duration": 0.12405083333334233
                },
                {
                    "name": "F2",
                    "midi": 41,
                    "time": 71.35403933333316,
                    "velocity": 0.2677165354330709,
                    "duration": 0.09924066666667386
                },
                {
                    "name": "F#2",
                    "midi": 42,
                    "time": 71.45327999999984,
                    "velocity": 0.29133858267716534,
                    "duration": 0.12405083333332811
                },
                {
                    "name": "F2",
                    "midi": 41,
                    "time": 71.5525206666665,
                    "velocity": 0.25984251968503935,
                    "duration": 0.12405083333334233
                },
                {
                    "name": "E2",
                    "midi": 40,
                    "time": 71.65176133333317,
                    "velocity": 0.25984251968503935,
                    "duration": 0.12405083333334233
                },
                {
                    "name": "D#2",
                    "midi": 39,
                    "time": 71.75100199999984,
                    "velocity": 0.25984251968503935,
                    "duration": 0.12405083333334233
                },
                {
                    "name": "C#2",
                    "midi": 37,
                    "time": 71.85024266666652,
                    "velocity": 0.23622047244094488,
                    "duration": 0.12405083333334233
                },
                {
                    "name": "C2",
                    "midi": 36,
                    "time": 71.94948333333319,
                    "velocity": 0.2440944881889764,
                    "duration": 0.09924066666667386
                },
                {
                    "name": "F#2",
                    "midi": 42,
                    "time": 72.04872399999986,
                    "velocity": 0.29133858267716534,
                    "duration": 0.12405083333332811
                },
                {
                    "name": "F2",
                    "midi": 41,
                    "time": 72.14796466666652,
                    "velocity": 0.25984251968503935,
                    "duration": 0.12405083333334233
                },
                {
                    "name": "D#2",
                    "midi": 39,
                    "time": 72.2472053333332,
                    "velocity": 0.25984251968503935,
                    "duration": 0.12405083333334233
                },
                {
                    "name": "C#2",
                    "midi": 37,
                    "time": 72.34644599999987,
                    "velocity": 0.25984251968503935,
                    "duration": 0.12405083333334233
                },
                {
                    "name": "C2",
                    "midi": 36,
                    "time": 72.44568666666655,
                    "velocity": 0.23622047244094488,
                    "duration": 0.12405083333334233
                },
                {
                    "name": "A#1",
                    "midi": 34,
                    "time": 72.54492733333322,
                    "velocity": 0.2440944881889764,
                    "duration": 0.09924066666667386
                },
                {
                    "name": "F#2",
                    "midi": 42,
                    "time": 72.6441679999999,
                    "velocity": 0.29133858267716534,
                    "duration": 0.12405083333332811
                },
                {
                    "name": "F2",
                    "midi": 41,
                    "time": 72.74340866666655,
                    "velocity": 0.25984251968503935,
                    "duration": 0.12405083333334233
                },
                {
                    "name": "D#2",
                    "midi": 39,
                    "time": 72.84264933333323,
                    "velocity": 0.25984251968503935,
                    "duration": 0.12405083333334233
                },
                {
                    "name": "C#2",
                    "midi": 37,
                    "time": 72.9418899999999,
                    "velocity": 0.25984251968503935,
                    "duration": 0.12405083333334233
                },
                {
                    "name": "C2",
                    "midi": 36,
                    "time": 73.04113066666658,
                    "velocity": 0.23622047244094488,
                    "duration": 0.12405083333334233
                },
                {
                    "name": "B1",
                    "midi": 35,
                    "time": 73.14037133333325,
                    "velocity": 0.2440944881889764,
                    "duration": 0.09924066666667386
                },
                {
                    "name": "F#2",
                    "midi": 42,
                    "time": 73.23961199999992,
                    "velocity": 0.29133858267716534,
                    "duration": 0.12405083333332811
                },
                {
                    "name": "F2",
                    "midi": 41,
                    "time": 73.33885266666658,
                    "velocity": 0.25984251968503935,
                    "duration": 0.12405083333334233
                },
                {
                    "name": "D#2",
                    "midi": 39,
                    "time": 73.43809333333326,
                    "velocity": 0.25984251968503935,
                    "duration": 0.12405083333334233
                },
                {
                    "name": "C#2",
                    "midi": 37,
                    "time": 73.53733399999993,
                    "velocity": 0.25984251968503935,
                    "duration": 0.12405083333334233
                },
                {
                    "name": "B1",
                    "midi": 35,
                    "time": 73.6365746666666,
                    "velocity": 0.23622047244094488,
                    "duration": 0.12405083333334233
                },
                {
                    "name": "A#1",
                    "midi": 34,
                    "time": 73.73581533333328,
                    "velocity": 0.2440944881889764,
                    "duration": 0.09924066666667386
                },
                {
                    "name": "A1",
                    "midi": 33,
                    "time": 73.83505599999995,
                    "velocity": 0.2677165354330709,
                    "duration": 0.12405083333332811
                },
                {
                    "name": "A#1",
                    "midi": 34,
                    "time": 73.93429666666661,
                    "velocity": 0.23622047244094488,
                    "duration": 0.12405083333334233
                },
                {
                    "name": "B1",
                    "midi": 35,
                    "time": 74.03353733333329,
                    "velocity": 0.2440944881889764,
                    "duration": 0.12405083333334233
                },
                {
                    "name": "C#2",
                    "midi": 37,
                    "time": 74.13277799999996,
                    "velocity": 0.2992125984251969,
                    "duration": 0.12405083333334233
                },
                {
                    "name": "D#2",
                    "midi": 39,
                    "time": 74.23201866666663,
                    "velocity": 0.25984251968503935,
                    "duration": 0.12405083333334233
                },
                {
                    "name": "F2",
                    "midi": 41,
                    "time": 74.3312593333333,
                    "velocity": 0.2677165354330709,
                    "duration": 0.09924066666667386
                },
                {
                    "name": "F#2",
                    "midi": 42,
                    "time": 74.43049999999998,
                    "velocity": 0.3228346456692913,
                    "duration": 0.12405083333332811
                },
                {
                    "name": "G#2",
                    "midi": 44,
                    "time": 74.52974066666664,
                    "velocity": 0.2992125984251969,
                    "duration": 0.12405083333334233
                },
                {
                    "name": "A#2",
                    "midi": 46,
                    "time": 74.62898133333331,
                    "velocity": 0.30708661417322836,
                    "duration": 0.12405083333334233
                },
                {
                    "name": "B2",
                    "midi": 47,
                    "time": 74.72822199999999,
                    "velocity": 0.3543307086614173,
                    "duration": 0.12405083333334233
                },
                {
                    "name": "C#3",
                    "midi": 49,
                    "time": 74.82746266666666,
                    "velocity": 0.33858267716535434,
                    "duration": 0.12405083333334233
                },
                {
                    "name": "D#3",
                    "midi": 51,
                    "time": 74.92670333333334,
                    "velocity": 0.33858267716535434,
                    "duration": 0.09924066666667386
                },
                {
                    "name": "F3",
                    "midi": 53,
                    "time": 75.02594400000001,
                    "velocity": 0.3858267716535433,
                    "duration": 0.12405083333332811
                },
                {
                    "name": "E3",
                    "midi": 52,
                    "time": 75.12518466666667,
                    "velocity": 0.3543307086614173,
                    "duration": 0.12405083333334233
                },
                {
                    "name": "C#3",
                    "midi": 49,
                    "time": 75.22442533333334,
                    "velocity": 0.30708661417322836,
                    "duration": 0.12405083333334233
                },
                {
                    "name": "C3",
                    "midi": 48,
                    "time": 75.32366600000002,
                    "velocity": 0.31496062992125984,
                    "duration": 0.12405083333334233
                },
                {
                    "name": "A#2",
                    "midi": 46,
                    "time": 75.42290666666669,
                    "velocity": 0.3228346456692913,
                    "duration": 0.12405083333334233
                },
                {
                    "name": "F#2",
                    "midi": 42,
                    "time": 75.52214733333336,
                    "velocity": 0.29133858267716534,
                    "duration": 0.09924066666667386
                },
                {
                    "name": "F2",
                    "midi": 41,
                    "time": 75.62138800000004,
                    "velocity": 0.3228346456692913,
                    "duration": 0.12405083333332811
                },
                {
                    "name": "E2",
                    "midi": 40,
                    "time": 75.7206286666667,
                    "velocity": 0.28346456692913385,
                    "duration": 0.12405083333334233
                },
                {
                    "name": "C#2",
                    "midi": 37,
                    "time": 75.81986933333337,
                    "velocity": 0.25984251968503935,
                    "duration": 0.12405083333334233
                },
                {
                    "name": "C2",
                    "midi": 36,
                    "time": 75.91911000000005,
                    "velocity": 0.28346456692913385,
                    "duration": 0.12405083333334233
                },
                {
                    "name": "A#1",
                    "midi": 34,
                    "time": 76.01835066666672,
                    "velocity": 0.23622047244094488,
                    "duration": 0.12405083333334233
                },
                {
                    "name": "F#1",
                    "midi": 30,
                    "time": 76.1175913333334,
                    "velocity": 0.23622047244094488,
                    "duration": 0.09924066666667386
                },
                {
                    "name": "F1",
                    "midi": 29,
                    "time": 76.21683200000007,
                    "velocity": 0.25984251968503935,
                    "duration": 0.1984813333333193
                },
                {
                    "name": "A#1",
                    "midi": 34,
                    "time": 76.31607266666673,
                    "velocity": 0.2204724409448819,
                    "duration": 0.12405083333332811
                },
                {
                    "name": "G#1",
                    "midi": 32,
                    "time": 76.41531333333339,
                    "velocity": 0.2204724409448819,
                    "duration": 0.12405083333334233
                },
                {
                    "name": "A1",
                    "midi": 33,
                    "time": 76.51455400000006,
                    "velocity": 0.2283464566929134,
                    "duration": 0.1984813333333335
                },
                {
                    "name": "C#2",
                    "midi": 37,
                    "time": 76.61379466666673,
                    "velocity": 0.2204724409448819,
                    "duration": 0.12405083333332811
                },
                {
                    "name": "A1",
                    "midi": 33,
                    "time": 76.7130353333334,
                    "velocity": 0.2204724409448819,
                    "duration": 0.09924066666667386
                },
                {
                    "name": "A#1",
                    "midi": 34,
                    "time": 76.81227600000007,
                    "velocity": 0.2677165354330709,
                    "duration": 0.1984813333333193
                },
                {
                    "name": "D#2",
                    "midi": 39,
                    "time": 76.91151666666673,
                    "velocity": 0.2440944881889764,
                    "duration": 0.12405083333332811
                },
                {
                    "name": "B1",
                    "midi": 35,
                    "time": 77.01075733333339,
                    "velocity": 0.2440944881889764,
                    "duration": 0.12405083333334233
                },
                {
                    "name": "C2",
                    "midi": 36,
                    "time": 77.10999800000006,
                    "velocity": 0.28346456692913385,
                    "duration": 0.1984813333333335
                },
                {
                    "name": "F2",
                    "midi": 41,
                    "time": 77.20923866666674,
                    "velocity": 0.25984251968503935,
                    "duration": 0.12405083333332811
                },
                {
                    "name": "C2",
                    "midi": 36,
                    "time": 77.3084793333334,
                    "velocity": 0.25984251968503935,
                    "duration": 0.09924066666667386
                },
                {
                    "name": "C#2",
                    "midi": 37,
                    "time": 77.40772000000007,
                    "velocity": 0.28346456692913385,
                    "duration": 0.1984813333333193
                },
                {
                    "name": "F#2",
                    "midi": 42,
                    "time": 77.50696066666673,
                    "velocity": 0.25984251968503935,
                    "duration": 0.12405083333332811
                },
                {
                    "name": "D2",
                    "midi": 38,
                    "time": 77.60620133333339,
                    "velocity": 0.25984251968503935,
                    "duration": 0.12405083333334233
                },
                {
                    "name": "D#2",
                    "midi": 39,
                    "time": 77.70544200000006,
                    "velocity": 0.2677165354330709,
                    "duration": 0.1984813333333335
                },
                {
                    "name": "A2",
                    "midi": 45,
                    "time": 77.80468266666674,
                    "velocity": 0.25984251968503935,
                    "duration": 0.12405083333332811
                },
                {
                    "name": "F2",
                    "midi": 41,
                    "time": 77.9039233333334,
                    "velocity": 0.25984251968503935,
                    "duration": 0.09924066666667386
                },
                {
                    "name": "F#2",
                    "midi": 42,
                    "time": 78.00316400000007,
                    "velocity": 0.2677165354330709,
                    "duration": 0.1984813333333193
                },
                {
                    "name": "C#3",
                    "midi": 49,
                    "time": 78.10240466666673,
                    "velocity": 0.2677165354330709,
                    "duration": 0.12405083333332811
                },
                {
                    "name": "A2",
                    "midi": 45,
                    "time": 78.20164533333339,
                    "velocity": 0.25984251968503935,
                    "duration": 0.12405083333334233
                },
                {
                    "name": "C3",
                    "midi": 48,
                    "time": 78.30088600000006,
                    "velocity": 0.2677165354330709,
                    "duration": 0.1984813333333335
                },
                {
                    "name": "F#3",
                    "midi": 54,
                    "time": 78.40012666666674,
                    "velocity": 0.2755905511811024,
                    "duration": 0.12405083333332811
                },
                {
                    "name": "F3",
                    "midi": 53,
                    "time": 78.4993673333334,
                    "velocity": 0.2677165354330709,
                    "duration": 0.09924066666667386
                },
                {
                    "name": "A2",
                    "midi": 45,
                    "time": 78.59860800000007,
                    "velocity": 0.2992125984251969,
                    "duration": 0.1984813333333193
                },
                {
                    "name": "C#3",
                    "midi": 49,
                    "time": 78.69784866666673,
                    "velocity": 0.25984251968503935,
                    "duration": 0.12405083333332811
                },
                {
                    "name": "A2",
                    "midi": 45,
                    "time": 78.79708933333339,
                    "velocity": 0.2677165354330709,
                    "duration": 0.12405083333334233
                },
                {
                    "name": "C3",
                    "midi": 48,
                    "time": 78.89633000000006,
                    "velocity": 0.28346456692913385,
                    "duration": 0.1984813333333335
                },
                {
                    "name": "F#3",
                    "midi": 54,
                    "time": 78.99557066666674,
                    "velocity": 0.28346456692913385,
                    "duration": 0.12405083333332811
                },
                {
                    "name": "F3",
                    "midi": 53,
                    "time": 79.0948113333334,
                    "velocity": 0.28346456692913385,
                    "duration": 0.09924066666667386
                },
                {
                    "name": "A2",
                    "midi": 45,
                    "time": 79.19405200000007,
                    "velocity": 0.2992125984251969,
                    "duration": 0.1984813333333193
                },
                {
                    "name": "C#3",
                    "midi": 49,
                    "time": 79.29329266666673,
                    "velocity": 0.25984251968503935,
                    "duration": 0.12405083333332811
                },
                {
                    "name": "A2",
                    "midi": 45,
                    "time": 79.39253333333339,
                    "velocity": 0.2677165354330709,
                    "duration": 0.12405083333334233
                },
                {
                    "name": "C3",
                    "midi": 48,
                    "time": 79.49177400000006,
                    "velocity": 0.2677165354330709,
                    "duration": 0.1984813333333335
                },
                {
                    "name": "F#3",
                    "midi": 54,
                    "time": 79.59101466666674,
                    "velocity": 0.28346456692913385,
                    "duration": 0.12405083333332811
                },
                {
                    "name": "F3",
                    "midi": 53,
                    "time": 79.6902553333334,
                    "velocity": 0.28346456692913385,
                    "duration": 0.09924066666667386
                },
                {
                    "name": "C3",
                    "midi": 48,
                    "time": 79.78949600000007,
                    "velocity": 0.30708661417322836,
                    "duration": 0.1984813333333193
                },
                {
                    "name": "F#3",
                    "midi": 54,
                    "time": 79.88873666666673,
                    "velocity": 0.28346456692913385,
                    "duration": 0.12405083333332811
                },
                {
                    "name": "F3",
                    "midi": 53,
                    "time": 79.98797733333339,
                    "velocity": 0.2677165354330709,
                    "duration": 0.12405083333334233
                },
                {
                    "name": "C3",
                    "midi": 48,
                    "time": 80.08721800000006,
                    "velocity": 0.2677165354330709,
                    "duration": 0.1984813333333335
                },
                {
                    "name": "F#3",
                    "midi": 54,
                    "time": 80.18645866666674,
                    "velocity": 0.28346456692913385,
                    "duration": 0.12405083333332811
                },
                {
                    "name": "F3",
                    "midi": 53,
                    "time": 80.2856993333334,
                    "velocity": 0.2677165354330709,
                    "duration": 0.09924066666667386
                },
                {
                    "name": "C3",
                    "midi": 48,
                    "time": 80.38494000000007,
                    "velocity": 0.2992125984251969,
                    "duration": 0.1984813333333193
                },
                {
                    "name": "F#3",
                    "midi": 54,
                    "time": 80.48418066666673,
                    "velocity": 0.28346456692913385,
                    "duration": 0.12405083333332811
                },
                {
                    "name": "F3",
                    "midi": 53,
                    "time": 80.58342133333339,
                    "velocity": 0.2677165354330709,
                    "duration": 0.12405083333334233
                },
                {
                    "name": "A#2",
                    "midi": 46,
                    "time": 80.68266200000006,
                    "velocity": 0.29133858267716534,
                    "duration": 0.1984813333333335
                },
                {
                    "name": "F#3",
                    "midi": 54,
                    "time": 80.78190266666674,
                    "velocity": 0.28346456692913385,
                    "duration": 0.12405083333332811
                },
                {
                    "name": "F3",
                    "midi": 53,
                    "time": 80.8811433333334,
                    "velocity": 0.28346456692913385,
                    "duration": 0.09924066666667386
                },
                {
                    "name": "C#3",
                    "midi": 49,
                    "time": 80.98038400000007,
                    "velocity": 0.2992125984251969,
                    "duration": 0.1984813333333193
                },
                {
                    "name": "F2",
                    "midi": 41,
                    "time": 81.07962466666673,
                    "velocity": 0.23622047244094488,
                    "duration": 0.12405083333332811
                },
                {
                    "name": "D#3",
                    "midi": 51,
                    "time": 81.17886533333339,
                    "velocity": 0.25984251968503935,
                    "duration": 0.12405083333334233
                },
                {
                    "name": "F3",
                    "midi": 53,
                    "time": 81.27810600000007,
                    "velocity": 0.2677165354330709,
                    "duration": 0.12405083333334233
                },
                {
                    "name": "D#3",
                    "midi": 51,
                    "time": 81.37734666666674,
                    "velocity": 0.2677165354330709,
                    "duration": 0.12405083333334233
                },
                {
                    "name": "C#3",
                    "midi": 49,
                    "time": 81.47658733333341,
                    "velocity": 0.2677165354330709,
                    "duration": 0.09924066666667386
                },
                {
                    "name": "A#2",
                    "midi": 46,
                    "time": 81.57582800000009,
                    "velocity": 0.29133858267716534,
                    "duration": 0.12405083333332811
                },
                {
                    "name": "F2",
                    "midi": 41,
                    "time": 81.67506866666675,
                    "velocity": 0.25984251968503935,
                    "duration": 0.12405083333334233
                },
                {
                    "name": "C3",
                    "midi": 48,
                    "time": 81.77430933333342,
                    "velocity": 0.25984251968503935,
                    "duration": 0.12405083333334233
                },
                {
                    "name": "C#3",
                    "midi": 49,
                    "time": 81.8735500000001,
                    "velocity": 0.2677165354330709,
                    "duration": 0.12405083333334233
                },
                {
                    "name": "C3",
                    "midi": 48,
                    "time": 81.97279066666677,
                    "velocity": 0.25984251968503935,
                    "duration": 0.12405083333334233
                },
                {
                    "name": "A#2",
                    "midi": 46,
                    "time": 82.07203133333344,
                    "velocity": 0.2677165354330709,
                    "duration": 0.09924066666667386
                },
                {
                    "name": "C#3",
                    "midi": 49,
                    "time": 82.17127200000012,
                    "velocity": 0.2992125984251969,
                    "duration": 0.12405083333332811
                },
                {
                    "name": "F2",
                    "midi": 41,
                    "time": 82.27051266666678,
                    "velocity": 0.25984251968503935,
                    "duration": 0.12405083333334233
                },
                {
                    "name": "D#3",
                    "midi": 51,
                    "time": 82.36975333333345,
                    "velocity": 0.25984251968503935,
                    "duration": 0.12405083333334233
                },
                {
                    "name": "F3",
                    "midi": 53,
                    "time": 82.46899400000012,
                    "velocity": 0.2677165354330709,
                    "duration": 0.12405083333334233
                },
                {
                    "name": "D#3",
                    "midi": 51,
                    "time": 82.5682346666668,
                    "velocity": 0.2677165354330709,
                    "duration": 0.12405083333334233
                },
                {
                    "name": "C#3",
                    "midi": 49,
                    "time": 82.66747533333347,
                    "velocity": 0.2677165354330709,
                    "duration": 0.09924066666667386
                },
                {
                    "name": "A#2",
                    "midi": 46,
                    "time": 82.76671600000014,
                    "velocity": 0.29133858267716534,
                    "duration": 0.12405083333332811
                },
                {
                    "name": "F2",
                    "midi": 41,
                    "time": 82.8659566666668,
                    "velocity": 0.25984251968503935,
                    "duration": 0.12405083333334233
                },
                {
                    "name": "C3",
                    "midi": 48,
                    "time": 82.96519733333348,
                    "velocity": 0.25984251968503935,
                    "duration": 0.12405083333334233
                },
                {
                    "name": "C#3",
                    "midi": 49,
                    "time": 83.06443800000015,
                    "velocity": 0.29133858267716534,
                    "duration": 0.12405083333334233
                },
                {
                    "name": "C3",
                    "midi": 48,
                    "time": 83.16367866666683,
                    "velocity": 0.2677165354330709,
                    "duration": 0.12405083333334233
                },
                {
                    "name": "A#2",
                    "midi": 46,
                    "time": 83.2629193333335,
                    "velocity": 0.2677165354330709,
                    "duration": 0.09924066666667386
                },
                {
                    "name": "D#2",
                    "midi": 39,
                    "time": 83.36216000000017,
                    "velocity": 0.29133858267716534,
                    "duration": 0.12405083333332811
                },
                {
                    "name": "F2",
                    "midi": 41,
                    "time": 83.46140066666683,
                    "velocity": 0.25984251968503935,
                    "duration": 0.12405083333334233
                },
                {
                    "name": "A#2",
                    "midi": 46,
                    "time": 83.5606413333335,
                    "velocity": 0.2204724409448819,
                    "duration": 0.12405083333334233
                },
                {
                    "name": "C#3",
                    "midi": 49,
                    "time": 83.65988200000018,
                    "velocity": 0.2283464566929134,
                    "duration": 0.09551914166667075
                },
                {
                    "name": "C#2",
                    "midi": 37,
                    "time": 83.75912266666685,
                    "velocity": 0.2283464566929134,
                    "duration": 0.12405083333332811
                },
                {
                    "name": "F2",
                    "midi": 41,
                    "time": 83.85836333333351,
                    "velocity": 0.2283464566929134,
                    "duration": 0.09924066666667386
                },
                {
                    "name": "D#2",
                    "midi": 39,
                    "time": 83.95760400000019,
                    "velocity": 0.29133858267716534,
                    "duration": 0.12405083333332811
                },
                {
                    "name": "F2",
                    "midi": 41,
                    "time": 84.05684466666685,
                    "velocity": 0.25984251968503935,
                    "duration": 0.12405083333334233
                },
                {
                    "name": "A#2",
                    "midi": 46,
                    "time": 84.15608533333352,
                    "velocity": 0.2204724409448819,
                    "duration": 0.12405083333334233
                },
                {
                    "name": "C#3",
                    "midi": 49,
                    "time": 84.2553260000002,
                    "velocity": 0.23622047244094488,
                    "duration": 0.09675964999999564
                },
                {
                    "name": "C#2",
                    "midi": 37,
                    "time": 84.35456666666686,
                    "velocity": 0.2283464566929134,
                    "duration": 0.12405083333332811
                },
                {
                    "name": "F2",
                    "midi": 41,
                    "time": 84.45380733333351,
                    "velocity": 0.2283464566929134,
                    "duration": 0.09924066666667386
                },
                {
                    "name": "C2",
                    "midi": 36,
                    "time": 84.55304800000019,
                    "velocity": 0.29133858267716534,
                    "duration": 0.12405083333332811
                },
                {
                    "name": "C#2",
                    "midi": 37,
                    "time": 84.65228866666685,
                    "velocity": 0.25984251968503935,
                    "duration": 0.12405083333334233
                },
                {
                    "name": "F2",
                    "midi": 41,
                    "time": 84.75152933333352,
                    "velocity": 0.2204724409448819,
                    "duration": 0.12405083333334233
                },
                {
                    "name": "A#2",
                    "midi": 46,
                    "time": 84.8507700000002,
                    "velocity": 0.23622047244094488,
                    "duration": 0.09924066666667386
                },
                {
                    "name": "A#1",
                    "midi": 34,
                    "time": 84.95001066666687,
                    "velocity": 0.2283464566929134,
                    "duration": 0.12405083333332811
                },
                {
                    "name": "C#2",
                    "midi": 37,
                    "time": 85.04925133333353,
                    "velocity": 0.2283464566929134,
                    "duration": 0.09924066666667386
                },
                {
                    "name": "C2",
                    "midi": 36,
                    "time": 85.1484920000002,
                    "velocity": 0.29133858267716534,
                    "duration": 0.12405083333332811
                },
                {
                    "name": "C#2",
                    "midi": 37,
                    "time": 85.24773266666686,
                    "velocity": 0.25984251968503935,
                    "duration": 0.12405083333334233
                },
                {
                    "name": "F2",
                    "midi": 41,
                    "time": 85.34697333333354,
                    "velocity": 0.2204724409448819,
                    "duration": 0.12405083333334233
                },
                {
                    "name": "A#2",
                    "midi": 46,
                    "time": 85.44621400000021,
                    "velocity": 0.23622047244094488,
                    "duration": 0.09924066666667386
                },
                {
                    "name": "A#1",
                    "midi": 34,
                    "time": 85.54545466666688,
                    "velocity": 0.2283464566929134,
                    "duration": 0.12405083333332811
                },
                {
                    "name": "C#2",
                    "midi": 37,
                    "time": 85.64469533333354,
                    "velocity": 0.2283464566929134,
                    "duration": 0.09924066666667386
                },
                {
                    "name": "C2",
                    "midi": 36,
                    "time": 86.33938000000022,
                    "velocity": 0.29133858267716534,
                    "duration": 0.12405083333332811
                },
                {
                    "name": "C#2",
                    "midi": 37,
                    "time": 86.43862066666688,
                    "velocity": 0.25984251968503935,
                    "duration": 0.12405083333334233
                },
                {
                    "name": "F2",
                    "midi": 41,
                    "time": 86.53786133333355,
                    "velocity": 0.2204724409448819,
                    "duration": 0.12405083333334233
                },
                {
                    "name": "A#2",
                    "midi": 46,
                    "time": 86.63710200000023,
                    "velocity": 0.2283464566929134,
                    "duration": 0.09551914166667075
                },
                {
                    "name": "A#1",
                    "midi": 34,
                    "time": 86.7363426666669,
                    "velocity": 0.2283464566929134,
                    "duration": 0.12405083333332811
                },
                {
                    "name": "C#2",
                    "midi": 37,
                    "time": 86.83558333333356,
                    "velocity": 0.2283464566929134,
                    "duration": 0.09924066666667386
                },
                {
                    "name": "C2",
                    "midi": 36,
                    "time": 87.53026800000023,
                    "velocity": 0.3779527559055118,
                    "duration": 0.12405083333332811
                },
                {
                    "name": "C#2",
                    "midi": 37,
                    "time": 87.6295086666669,
                    "velocity": 0.33858267716535434,
                    "duration": 0.12405083333334233
                },
                {
                    "name": "F2",
                    "midi": 41,
                    "time": 87.72874933333357,
                    "velocity": 0.30708661417322836,
                    "duration": 0.12405083333334233
                },
                {
                    "name": "A#2",
                    "midi": 46,
                    "time": 87.82799000000024,
                    "velocity": 0.31496062992125984,
                    "duration": 0.0961393958333332
                },
                {
                    "name": "A#1",
                    "midi": 34,
                    "time": 87.9272306666669,
                    "velocity": 0.31496062992125984,
                    "duration": 0.12405083333332811
                },
                {
                    "name": "C#2",
                    "midi": 37,
                    "time": 88.02647133333356,
                    "velocity": 0.3228346456692913,
                    "duration": 0.09924066666667386
                },
                {
                    "name": "A#1",
                    "midi": 34,
                    "time": 88.12571200000023,
                    "velocity": 0.6141732283464567,
                    "duration": 0.29772199999999316
                },
                {
                    "name": "F3",
                    "midi": 53,
                    "time": 88.72115600000022,
                    "velocity": 0.5196850393700787,
                    "duration": 0.5954440000000005
                },
                {
                    "name": "F4",
                    "midi": 65,
                    "time": 88.72115600000022,
                    "velocity": 0.6220472440944882,
                    "duration": 0.5954440000000005
                },
                {
                    "name": "C#4",
                    "midi": 61,
                    "time": 88.72115600000022,
                    "velocity": 0.5196850393700787,
                    "duration": 0.5954440000000005
                },
                {
                    "name": "A#3",
                    "midi": 58,
                    "time": 88.72115600000022,
                    "velocity": 0.5196850393700787,
                    "duration": 0.5954440000000005
                }
            ],
            "controlChanges": {
                "7": [
                    {
                        "number": 7,
                        "time": 0,
                        "value": 0.7874015748031497
                    }
                ],
                "10": [
                    {
                        "number": 10,
                        "time": 0,
                        "value": 0.5039370078740157
                    }
                ],
                "64": [
                    {
                        "number": 64,
                        "time": 11.635968166666675,
                        "value": 1
                    },
                    {
                        "number": 64,
                        "time": 11.914462287500008,
                        "value": 0
                    },
                    {
                        "number": 64,
                        "time": 14.014642895833344,
                        "value": 1
                    },
                    {
                        "number": 64,
                        "time": 14.298719304166678,
                        "value": 0
                    },
                    {
                        "number": 64,
                        "time": 14.627454012500012,
                        "value": 1
                    },
                    {
                        "number": 64,
                        "time": 14.896024066666678,
                        "value": 0
                    },
                    {
                        "number": 64,
                        "time": 15.210492929166678,
                        "value": 1
                    },
                    {
                        "number": 64,
                        "time": 15.48588577916668,
                        "value": 0
                    },
                    {
                        "number": 64,
                        "time": 15.793531845833346,
                        "value": 1
                    },
                    {
                        "number": 64,
                        "time": 16.083190541666678,
                        "value": 0
                    },
                    {
                        "number": 64,
                        "time": 16.36416567916667,
                        "value": 1
                    },
                    {
                        "number": 64,
                        "time": 16.68049530416666,
                        "value": 0
                    },
                    {
                        "number": 64,
                        "time": 40.525546487499575,
                        "value": 1
                    },
                    {
                        "number": 64,
                        "time": 41.09866133749957,
                        "value": 0
                    },
                    {
                        "number": 64,
                        "time": 41.12843353749957,
                        "value": 1
                    },
                    {
                        "number": 64,
                        "time": 41.2524843708329,
                        "value": 0
                    },
                    {
                        "number": 64,
                        "time": 41.432978333332905,
                        "value": 1
                    },
                    {
                        "number": 64,
                        "time": 41.68107999999957,
                        "value": 0
                    },
                    {
                        "number": 64,
                        "time": 41.74124465416624,
                        "value": 1
                    },
                    {
                        "number": 64,
                        "time": 42.28768857499957,
                        "value": 0
                    },
                    {
                        "number": 64,
                        "time": 42.32490382499957,
                        "value": 1
                    },
                    {
                        "number": 64,
                        "time": 42.58106879583291,
                        "value": 0
                    },
                    {
                        "number": 64,
                        "time": 42.60960048749958,
                        "value": 1
                    },
                    {
                        "number": 64,
                        "time": 42.87630977916624,
                        "value": 0
                    },
                    {
                        "number": 64,
                        "time": 74.46213296249998,
                        "value": 1
                    },
                    {
                        "number": 64,
                        "time": 75.037108575,
                        "value": 0
                    },
                    {
                        "number": 64,
                        "time": 88.29131986250023,
                        "value": 1
                    },
                    {
                        "number": 64,
                        "time": 90.50748800000022,
                        "value": 0
                    }
                ]
            },
            "id": 2,
            "name": "Piano left",
            "instrumentNumber": 0,
            "instrument": "acoustic grand piano",
            "instrumentFamily": "piano",
            "channelNumber": 0,
            "isPercussion": false
        },
        {
            "startTime": 0,
            "duration": 0,
            "length": 0,
            "notes": [],
            "controlChanges": {},
            "id": 3,
            "name": "Chopin Sonate Op. 35  4. Satz"
        },
        {
            "startTime": 0,
            "duration": 0,
            "length": 0,
            "notes": [],
            "controlChanges": {},
            "id": 4,
            "name": "Copyright  2002 by Bernd Krger"
        },
        {
            "startTime": 0,
            "duration": 0,
            "length": 0,
            "notes": [],
            "controlChanges": {},
            "id": 5,
            "name": "http://www.piano-midi.de"
        },
        {
            "startTime": 0,
            "duration": 0,
            "length": 0,
            "notes": [],
            "controlChanges": {},
            "id": 6,
            "name": "Edition: 2014-02-26"
        },
        {
            "startTime": 0,
            "duration": 0,
            "length": 0,
            "notes": [],
            "controlChanges": {},
            "id": 7,
            "name": "Spur 7"
        },
        {
            "startTime": 0,
            "duration": 0,
            "length": 0,
            "notes": [],
            "controlChanges": {},
            "id": 8,
            "name": "Spur 8"
        },
        {
            "startTime": 0,
            "duration": 0,
            "length": 0,
            "notes": [],
            "controlChanges": {},
            "id": 9,
            "name": "Spur 9"
        }
    ]
}