{
    "header": {
        "PPQ": 480,
        "timeSignature": [
            6,
            4
        ],
        "bpm": 86.49995242502617,
        "name": "Chopin Prelude  No. 13, Opus 28"
    },
    "startTime": 0,
    "duration": 158.1503760000009,
    "tracks": [
        {
            "startTime": 0,
            "duration": 0,
            "length": 0,
            "notes": [],
            "controlChanges": {},
            "id": 0,
            "name": "Chopin Prelude  No. 13, Opus 28"
        },
        {
            "startTime": 0,
            "duration": 158.15037600000045,
            "length": 358,
            "notes": [
                {
                    "name": "C#4",
                    "midi": 61,
                    "time": 0,
                    "velocity": 0.2677165354330709,
                    "duration": 2.080926
                },
                {
                    "name": "F#4",
                    "midi": 66,
                    "time": 0,
                    "velocity": 0.3228346456692913,
                    "duration": 2.080926
                },
                {
                    "name": "A#4",
                    "midi": 70,
                    "time": 0,
                    "velocity": 0.4330708661417323,
                    "duration": 2.080926
                },
                {
                    "name": "F#4",
                    "midi": 66,
                    "time": 2.080926,
                    "velocity": 0.3228346456692913,
                    "duration": 2.080926
                },
                {
                    "name": "C#4",
                    "midi": 61,
                    "time": 2.080926,
                    "velocity": 0.2677165354330709,
                    "duration": 2.080926
                },
                {
                    "name": "A#4",
                    "midi": 70,
                    "time": 2.080926,
                    "velocity": 0.4330708661417323,
                    "duration": 2.080926
                },
                {
                    "name": "C#4",
                    "midi": 61,
                    "time": 4.161852,
                    "velocity": 0.2677165354330709,
                    "duration": 2.080926
                },
                {
                    "name": "A#4",
                    "midi": 70,
                    "time": 4.161852,
                    "velocity": 0.4330708661417323,
                    "duration": 2.080926
                },
                {
                    "name": "F#4",
                    "midi": 66,
                    "time": 4.161852,
                    "velocity": 0.3228346456692913,
                    "duration": 2.080926
                },
                {
                    "name": "F4",
                    "midi": 65,
                    "time": 6.2427779999999995,
                    "velocity": 0.3228346456692913,
                    "duration": 2.080926
                },
                {
                    "name": "B4",
                    "midi": 71,
                    "time": 6.2427779999999995,
                    "velocity": 0.4330708661417323,
                    "duration": 1.3872840000000002
                },
                {
                    "name": "G#4",
                    "midi": 68,
                    "time": 7.630062,
                    "velocity": 0.3858267716535433,
                    "duration": 0.6936419999999996
                },
                {
                    "name": "F#4",
                    "midi": 66,
                    "time": 8.323704,
                    "velocity": 0.29133858267716534,
                    "duration": 2.080926
                },
                {
                    "name": "A#4",
                    "midi": 70,
                    "time": 8.323704,
                    "velocity": 0.4015748031496063,
                    "duration": 2.080926
                },
                {
                    "name": "C#4",
                    "midi": 61,
                    "time": 8.323704,
                    "velocity": 0.25196850393700787,
                    "duration": 2.080926
                },
                {
                    "name": "C#4",
                    "midi": 61,
                    "time": 10.40463,
                    "velocity": 0.2755905511811024,
                    "duration": 2.080926
                },
                {
                    "name": "F#4",
                    "midi": 66,
                    "time": 10.40463,
                    "velocity": 0.33858267716535434,
                    "duration": 1.3872839999999993
                },
                {
                    "name": "A#4",
                    "midi": 70,
                    "time": 10.40463,
                    "velocity": 0.44881889763779526,
                    "duration": 1.3872839999999993
                },
                {
                    "name": "A#4",
                    "midi": 70,
                    "time": 11.791913999999998,
                    "velocity": 0.4645669291338583,
                    "duration": 0.6936420000000005
                },
                {
                    "name": "F#4",
                    "midi": 66,
                    "time": 11.791913999999998,
                    "velocity": 0.3464566929133858,
                    "duration": 0.6936420000000005
                },
                {
                    "name": "C#4",
                    "midi": 61,
                    "time": 12.485555999999999,
                    "velocity": 0.25984251968503935,
                    "duration": 2.0809259999999963
                },
                {
                    "name": "A#4",
                    "midi": 70,
                    "time": 12.485555999999999,
                    "velocity": 0.5196850393700787,
                    "duration": 0.41618519999999926
                },
                {
                    "name": "F#4",
                    "midi": 66,
                    "time": 12.485555999999999,
                    "velocity": 0.3858267716535433,
                    "duration": 0.41618519999999926
                },
                {
                    "name": "B4",
                    "midi": 71,
                    "time": 12.901741199999998,
                    "velocity": 0.3858267716535433,
                    "duration": 0.41618519999999926
                },
                {
                    "name": "G#4",
                    "midi": 68,
                    "time": 12.901741199999998,
                    "velocity": 0.28346456692913385,
                    "duration": 0.41618519999999926
                },
                {
                    "name": "A#4",
                    "midi": 70,
                    "time": 13.317926399999997,
                    "velocity": 0.3858267716535433,
                    "duration": 0.41618519999999926
                },
                {
                    "name": "F#4",
                    "midi": 66,
                    "time": 13.317926399999997,
                    "velocity": 0.28346456692913385,
                    "duration": 0.41618519999999926
                },
                {
                    "name": "F4",
                    "midi": 65,
                    "time": 13.734111599999997,
                    "velocity": 0.28346456692913385,
                    "duration": 0.41618519999999926
                },
                {
                    "name": "G#4",
                    "midi": 68,
                    "time": 13.734111599999997,
                    "velocity": 0.3858267716535433,
                    "duration": 0.41618519999999926
                },
                {
                    "name": "A#4",
                    "midi": 70,
                    "time": 14.150296799999996,
                    "velocity": 0.3700787401574803,
                    "duration": 0.41618519999999926
                },
                {
                    "name": "F#4",
                    "midi": 66,
                    "time": 14.150296799999996,
                    "velocity": 0.28346456692913385,
                    "duration": 0.41618519999999926
                },
                {
                    "name": "F4",
                    "midi": 65,
                    "time": 14.566481999999995,
                    "velocity": 0.25196850393700787,
                    "duration": 1.387284000000001
                },
                {
                    "name": "C#5",
                    "midi": 73,
                    "time": 14.566481999999995,
                    "velocity": 0.5196850393700787,
                    "duration": 0.6936420000000005
                },
                {
                    "name": "A#4",
                    "midi": 70,
                    "time": 14.566481999999995,
                    "velocity": 0.3858267716535433,
                    "duration": 0.6936420000000005
                },
                {
                    "name": "B4",
                    "midi": 71,
                    "time": 15.260123999999996,
                    "velocity": 0.3858267716535433,
                    "duration": 0.6936420000000005
                },
                {
                    "name": "G#4",
                    "midi": 68,
                    "time": 15.260123999999996,
                    "velocity": 0.28346456692913385,
                    "duration": 0.6936420000000005
                },
                {
                    "name": "G#4",
                    "midi": 68,
                    "time": 16.300586999999997,
                    "velocity": 0.3937007874015748,
                    "duration": 0.3468209999999985
                },
                {
                    "name": "C#4",
                    "midi": 61,
                    "time": 16.300586999999997,
                    "velocity": 0.25196850393700787,
                    "duration": 0.3468209999999985
                },
                {
                    "name": "C#4",
                    "midi": 61,
                    "time": 16.647407999999995,
                    "velocity": 0.2677165354330709,
                    "duration": 2.0809260000000016
                },
                {
                    "name": "F#4",
                    "midi": 66,
                    "time": 16.647407999999995,
                    "velocity": 0.36220472440944884,
                    "duration": 2.0809260000000016
                },
                {
                    "name": "A#4",
                    "midi": 70,
                    "time": 16.647407999999995,
                    "velocity": 0.4330708661417323,
                    "duration": 2.0809260000000016
                },
                {
                    "name": "A#4",
                    "midi": 70,
                    "time": 18.728333999999997,
                    "velocity": 0.4330708661417323,
                    "duration": 2.080925999999998
                },
                {
                    "name": "C#4",
                    "midi": 61,
                    "time": 18.728333999999997,
                    "velocity": 0.3228346456692913,
                    "duration": 2.080925999999998
                },
                {
                    "name": "C#5",
                    "midi": 73,
                    "time": 18.728333999999997,
                    "velocity": 0.5196850393700787,
                    "duration": 2.080925999999998
                },
                {
                    "name": "A#4",
                    "midi": 70,
                    "time": 20.809259999999995,
                    "velocity": 0.4881889763779528,
                    "duration": 2.080925999999998
                },
                {
                    "name": "F#5",
                    "midi": 78,
                    "time": 20.809259999999995,
                    "velocity": 0.5669291338582677,
                    "duration": 2.080925999999998
                },
                {
                    "name": "F#4",
                    "midi": 66,
                    "time": 20.809259999999995,
                    "velocity": 0.36220472440944884,
                    "duration": 2.080925999999998
                },
                {
                    "name": "C#5",
                    "midi": 73,
                    "time": 22.890185999999993,
                    "velocity": 0.3937007874015748,
                    "duration": 2.0809259999999945
                },
                {
                    "name": "F5",
                    "midi": 77,
                    "time": 22.890185999999993,
                    "velocity": 0.47244094488188976,
                    "duration": 1.9075154999999988
                },
                {
                    "name": "G#4",
                    "midi": 68,
                    "time": 22.890185999999993,
                    "velocity": 0.29133858267716534,
                    "duration": 2.0809259999999945
                },
                {
                    "name": "F#4",
                    "midi": 66,
                    "time": 24.79770149999999,
                    "velocity": 0.28346456692913385,
                    "duration": 2.2543364999999973
                },
                {
                    "name": "G#4",
                    "midi": 68,
                    "time": 24.85550499999999,
                    "velocity": 0.33070866141732286,
                    "duration": 2.1965329999999987
                },
                {
                    "name": "F5",
                    "midi": 77,
                    "time": 24.91330849999999,
                    "velocity": 0.3464566929133858,
                    "duration": 0.057803499999998564
                },
                {
                    "name": "D#5",
                    "midi": 75,
                    "time": 24.971111999999987,
                    "velocity": 0.4409448818897638,
                    "duration": 2.0809260000000016
                },
                {
                    "name": "F4",
                    "midi": 65,
                    "time": 27.05203799999999,
                    "velocity": 0.2204724409448819,
                    "duration": 2.080925999999998
                },
                {
                    "name": "C#5",
                    "midi": 73,
                    "time": 27.05203799999999,
                    "velocity": 0.3543307086614173,
                    "duration": 2.080925999999998
                },
                {
                    "name": "G#4",
                    "midi": 68,
                    "time": 27.05203799999999,
                    "velocity": 0.29133858267716534,
                    "duration": 2.080925999999998
                },
                {
                    "name": "A#3",
                    "midi": 58,
                    "time": 33.12140549999999,
                    "velocity": 0.2125984251968504,
                    "duration": 0.20231225000000563
                },
                {
                    "name": "F#4",
                    "midi": 66,
                    "time": 33.29481599999999,
                    "velocity": 0.28346456692913385,
                    "duration": 2.080926000000005
                },
                {
                    "name": "A#4",
                    "midi": 70,
                    "time": 33.29481599999999,
                    "velocity": 0.3858267716535433,
                    "duration": 2.080926000000005
                },
                {
                    "name": "C#4",
                    "midi": 61,
                    "time": 33.29481599999999,
                    "velocity": 0.2125984251968504,
                    "duration": 2.080926000000005
                },
                {
                    "name": "C#4",
                    "midi": 61,
                    "time": 35.375741999999995,
                    "velocity": 0.2677165354330709,
                    "duration": 2.080925999999998
                },
                {
                    "name": "F#4",
                    "midi": 66,
                    "time": 35.375741999999995,
                    "velocity": 0.3228346456692913,
                    "duration": 2.080925999999998
                },
                {
                    "name": "A#4",
                    "midi": 70,
                    "time": 35.375741999999995,
                    "velocity": 0.4330708661417323,
                    "duration": 2.080925999999998
                },
                {
                    "name": "F#4",
                    "midi": 66,
                    "time": 37.45666799999999,
                    "velocity": 0.3228346456692913,
                    "duration": 2.080925999999998
                },
                {
                    "name": "C#4",
                    "midi": 61,
                    "time": 37.45666799999999,
                    "velocity": 0.2677165354330709,
                    "duration": 4.161852000000003
                },
                {
                    "name": "A#4",
                    "midi": 70,
                    "time": 37.45666799999999,
                    "velocity": 0.4330708661417323,
                    "duration": 2.080925999999998
                },
                {
                    "name": "B4",
                    "midi": 71,
                    "time": 39.53759399999999,
                    "velocity": 0.4330708661417323,
                    "duration": 1.9075155000000024
                },
                {
                    "name": "F4",
                    "midi": 65,
                    "time": 39.53759399999999,
                    "velocity": 0.36220472440944884,
                    "duration": 2.080926000000005
                },
                {
                    "name": "G#4",
                    "midi": 68,
                    "time": 41.445109499999994,
                    "velocity": 0.36220472440944884,
                    "duration": 0.1734105000000028
                },
                {
                    "name": "F#4",
                    "midi": 66,
                    "time": 41.61852,
                    "velocity": 0.29133858267716534,
                    "duration": 2.080925999999998
                },
                {
                    "name": "C#4",
                    "midi": 61,
                    "time": 41.61852,
                    "velocity": 0.25196850393700787,
                    "duration": 2.080925999999998
                },
                {
                    "name": "A#4",
                    "midi": 70,
                    "time": 41.61852,
                    "velocity": 0.4015748031496063,
                    "duration": 2.080925999999998
                },
                {
                    "name": "C#4",
                    "midi": 61,
                    "time": 43.699445999999995,
                    "velocity": 0.3228346456692913,
                    "duration": 0.9248559999999983
                },
                {
                    "name": "A#4",
                    "midi": 70,
                    "time": 43.699445999999995,
                    "velocity": 0.4330708661417323,
                    "duration": 0.9248559999999983
                },
                {
                    "name": "F#4",
                    "midi": 66,
                    "time": 43.699445999999995,
                    "velocity": 0.3228346456692913,
                    "duration": 0.693641999999997
                },
                {
                    "name": "C#4",
                    "midi": 61,
                    "time": 44.62430199999999,
                    "velocity": 0.2047244094488189,
                    "duration": 0.2196532999999974
                },
                {
                    "name": "A#4",
                    "midi": 70,
                    "time": 44.62430199999999,
                    "velocity": 0.3779527559055118,
                    "duration": 0.2196532999999974
                },
                {
                    "name": "F#4",
                    "midi": 66,
                    "time": 44.62430199999999,
                    "velocity": 0.2755905511811024,
                    "duration": 0.2196532999999974
                },
                {
                    "name": "F#4",
                    "midi": 66,
                    "time": 44.85551599999999,
                    "velocity": 0.28346456692913385,
                    "duration": 0.2196532999999974
                },
                {
                    "name": "A#4",
                    "midi": 70,
                    "time": 44.85551599999999,
                    "velocity": 0.3858267716535433,
                    "duration": 0.2196532999999974
                },
                {
                    "name": "C#4",
                    "midi": 61,
                    "time": 44.85551599999999,
                    "velocity": 0.2125984251968504,
                    "duration": 0.2196532999999974
                },
                {
                    "name": "C#4",
                    "midi": 61,
                    "time": 45.08672999999998,
                    "velocity": 0.2204724409448819,
                    "duration": 0.2196532999999974
                },
                {
                    "name": "F#4",
                    "midi": 66,
                    "time": 45.08672999999998,
                    "velocity": 0.28346456692913385,
                    "duration": 0.2196532999999974
                },
                {
                    "name": "A#4",
                    "midi": 70,
                    "time": 45.08672999999998,
                    "velocity": 0.4015748031496063,
                    "duration": 0.2196532999999974
                },
                {
                    "name": "F#4",
                    "midi": 66,
                    "time": 45.317943999999976,
                    "velocity": 0.30708661417322836,
                    "duration": 0.2196532999999974
                },
                {
                    "name": "A#4",
                    "midi": 70,
                    "time": 45.317943999999976,
                    "velocity": 0.4094488188976378,
                    "duration": 0.2196532999999974
                },
                {
                    "name": "C#4",
                    "midi": 61,
                    "time": 45.317943999999976,
                    "velocity": 0.2283464566929134,
                    "duration": 0.2196532999999974
                },
                {
                    "name": "A#4",
                    "midi": 70,
                    "time": 45.54915799999997,
                    "velocity": 0.4409448818897638,
                    "duration": 0.2196532999999974
                },
                {
                    "name": "F#4",
                    "midi": 66,
                    "time": 45.54915799999997,
                    "velocity": 0.3228346456692913,
                    "duration": 0.2196532999999974
                },
                {
                    "name": "C#4",
                    "midi": 61,
                    "time": 45.54915799999997,
                    "velocity": 0.2440944881889764,
                    "duration": 0.2196532999999974
                },
                {
                    "name": "F#4",
                    "midi": 66,
                    "time": 45.780371999999964,
                    "velocity": 0.3858267716535433,
                    "duration": 0.693641999999997
                },
                {
                    "name": "A#4",
                    "midi": 70,
                    "time": 45.780371999999964,
                    "velocity": 0.5196850393700787,
                    "duration": 0.693641999999997
                },
                {
                    "name": "C#4",
                    "midi": 61,
                    "time": 45.780371999999964,
                    "velocity": 0.28346456692913385,
                    "duration": 2.080925999999991
                },
                {
                    "name": "G#4",
                    "midi": 68,
                    "time": 46.47401399999996,
                    "velocity": 0.3228346456692913,
                    "duration": 0.3468209999999985
                },
                {
                    "name": "B4",
                    "midi": 71,
                    "time": 46.47401399999996,
                    "velocity": 0.44881889763779526,
                    "duration": 0.3468209999999985
                },
                {
                    "name": "F#4",
                    "midi": 66,
                    "time": 46.82083499999996,
                    "velocity": 0.33858267716535434,
                    "duration": 0.3468209999999985
                },
                {
                    "name": "A#4",
                    "midi": 70,
                    "time": 46.82083499999996,
                    "velocity": 0.4566929133858268,
                    "duration": 0.3468209999999985
                },
                {
                    "name": "G#4",
                    "midi": 68,
                    "time": 47.16765599999996,
                    "velocity": 0.47244094488188976,
                    "duration": 0.3468209999999985
                },
                {
                    "name": "F4",
                    "midi": 65,
                    "time": 47.16765599999996,
                    "velocity": 0.3464566929133858,
                    "duration": 0.3468209999999985
                },
                {
                    "name": "A#4",
                    "midi": 70,
                    "time": 47.51447699999996,
                    "velocity": 0.47244094488188976,
                    "duration": 0.3468209999999985
                },
                {
                    "name": "F#4",
                    "midi": 66,
                    "time": 47.51447699999996,
                    "velocity": 0.3543307086614173,
                    "duration": 0.3468209999999985
                },
                {
                    "name": "A#4",
                    "midi": 70,
                    "time": 47.861297999999955,
                    "velocity": 0.3858267716535433,
                    "duration": 0.693641999999997
                },
                {
                    "name": "C#5",
                    "midi": 73,
                    "time": 47.861297999999955,
                    "velocity": 0.5196850393700787,
                    "duration": 0.693641999999997
                },
                {
                    "name": "F4",
                    "midi": 65,
                    "time": 47.861297999999955,
                    "velocity": 0.28346456692913385,
                    "duration": 1.387283999999994
                },
                {
                    "name": "G#4",
                    "midi": 68,
                    "time": 48.55493999999995,
                    "velocity": 0.2677165354330709,
                    "duration": 0.693641999999997
                },
                {
                    "name": "B4",
                    "midi": 71,
                    "time": 48.55493999999995,
                    "velocity": 0.36220472440944884,
                    "duration": 0.693641999999997
                },
                {
                    "name": "C#4",
                    "midi": 61,
                    "time": 49.59540299999995,
                    "velocity": 0.25196850393700787,
                    "duration": 0.3468209999999985
                },
                {
                    "name": "G#4",
                    "midi": 68,
                    "time": 49.59540299999995,
                    "velocity": 0.3937007874015748,
                    "duration": 0.3468209999999985
                },
                {
                    "name": "E4",
                    "midi": 64,
                    "time": 49.942223999999946,
                    "velocity": 0.36220472440944884,
                    "duration": 2.080925999999998
                },
                {
                    "name": "C#4",
                    "midi": 61,
                    "time": 49.942223999999946,
                    "velocity": 0.2677165354330709,
                    "duration": 2.080925999999998
                },
                {
                    "name": "A#4",
                    "midi": 70,
                    "time": 49.942223999999946,
                    "velocity": 0.4330708661417323,
                    "duration": 2.080925999999998
                },
                {
                    "name": "A#4",
                    "midi": 70,
                    "time": 52.023149999999944,
                    "velocity": 0.5196850393700787,
                    "duration": 1.9075155000000024
                },
                {
                    "name": "E4",
                    "midi": 64,
                    "time": 52.023149999999944,
                    "velocity": 0.4330708661417323,
                    "duration": 2.080926000000005
                },
                {
                    "name": "B4",
                    "midi": 71,
                    "time": 53.93066549999995,
                    "velocity": 0.4881889763779528,
                    "duration": 0.1734105000000028
                },
                {
                    "name": "A#4",
                    "midi": 70,
                    "time": 54.10407599999995,
                    "velocity": 0.4645669291338583,
                    "duration": 2.080925999999998
                },
                {
                    "name": "E4",
                    "midi": 64,
                    "time": 54.10407599999995,
                    "velocity": 0.3464566929133858,
                    "duration": 2.080925999999998
                },
                {
                    "name": "C#5",
                    "midi": 73,
                    "time": 54.10407599999995,
                    "velocity": 0.5590551181102362,
                    "duration": 2.080925999999998
                },
                {
                    "name": "E4",
                    "midi": 64,
                    "time": 56.18500199999995,
                    "velocity": 0.3543307086614173,
                    "duration": 2.080926000000005
                },
                {
                    "name": "D#5",
                    "midi": 75,
                    "time": 56.18500199999995,
                    "velocity": 0.5669291338582677,
                    "duration": 1.9075155000000024
                },
                {
                    "name": "A#4",
                    "midi": 70,
                    "time": 56.18500199999995,
                    "velocity": 0.47244094488188976,
                    "duration": 2.080926000000005
                },
                {
                    "name": "C#5",
                    "midi": 73,
                    "time": 58.09251749999995,
                    "velocity": 0.47244094488188976,
                    "duration": 0.1734105000000028
                },
                {
                    "name": "C#5",
                    "midi": 73,
                    "time": 58.26592799999995,
                    "velocity": 0.4881889763779528,
                    "duration": 2.080925999999998
                },
                {
                    "name": "E4",
                    "midi": 64,
                    "time": 58.26592799999995,
                    "velocity": 0.2677165354330709,
                    "duration": 2.080925999999998
                },
                {
                    "name": "A#4",
                    "midi": 70,
                    "time": 58.26592799999995,
                    "velocity": 0.33070866141732286,
                    "duration": 2.080925999999998
                },
                {
                    "name": "G#4",
                    "midi": 68,
                    "time": 60.34685399999995,
                    "velocity": 0.33070866141732286,
                    "duration": 2.080925999999998
                },
                {
                    "name": "B4",
                    "midi": 71,
                    "time": 60.34685399999995,
                    "velocity": 0.4015748031496063,
                    "duration": 2.080925999999998
                },
                {
                    "name": "D#4",
                    "midi": 63,
                    "time": 60.34685399999995,
                    "velocity": 0.25196850393700787,
                    "duration": 2.080925999999998
                },
                {
                    "name": "C#4",
                    "midi": 61,
                    "time": 62.42777999999995,
                    "velocity": 0.3937007874015748,
                    "duration": 2.080925999999998
                },
                {
                    "name": "G4",
                    "midi": 67,
                    "time": 62.42777999999995,
                    "velocity": 0.4409448818897638,
                    "duration": 2.080925999999998
                },
                {
                    "name": "A#4",
                    "midi": 70,
                    "time": 62.42777999999995,
                    "velocity": 0.4409448818897638,
                    "duration": 2.080925999999998
                },
                {
                    "name": "G#4",
                    "midi": 68,
                    "time": 64.50870599999995,
                    "velocity": 0.3937007874015748,
                    "duration": 2.080926000000005
                },
                {
                    "name": "B3",
                    "midi": 59,
                    "time": 64.50870599999995,
                    "velocity": 0.3543307086614173,
                    "duration": 2.080926000000005
                },
                {
                    "name": "B4",
                    "midi": 71,
                    "time": 64.50870599999995,
                    "velocity": 0.47244094488188976,
                    "duration": 1.9075155000000024
                },
                {
                    "name": "D#4",
                    "midi": 63,
                    "time": 66.41622149999995,
                    "velocity": 0.3858267716535433,
                    "duration": 0.1734105000000028
                },
                {
                    "name": "G#4",
                    "midi": 68,
                    "time": 66.58963199999995,
                    "velocity": 0.44881889763779526,
                    "duration": 2.080926000000005
                },
                {
                    "name": "F4",
                    "midi": 65,
                    "time": 66.58963199999995,
                    "velocity": 0.2440944881889764,
                    "duration": 4.16185200000001
                },
                {
                    "name": "B3",
                    "midi": 59,
                    "time": 66.58963199999995,
                    "velocity": 0.29133858267716534,
                    "duration": 2.080926000000005
                },
                {
                    "name": "A#4",
                    "midi": 70,
                    "time": 68.67055799999996,
                    "velocity": 0.4015748031496063,
                    "duration": 2.080926000000005
                },
                {
                    "name": "C#4",
                    "midi": 61,
                    "time": 68.67055799999996,
                    "velocity": 0.25984251968503935,
                    "duration": 2.080926000000005
                },
                {
                    "name": "A#3",
                    "midi": 58,
                    "time": 70.75148399999996,
                    "velocity": 0.25984251968503935,
                    "duration": 1.387283999999994
                },
                {
                    "name": "F#4",
                    "midi": 66,
                    "time": 70.75148399999996,
                    "velocity": 0.4015748031496063,
                    "duration": 1.387283999999994
                },
                {
                    "name": "B4",
                    "midi": 71,
                    "time": 72.83240999999995,
                    "velocity": 0.41732283464566927,
                    "duration": 2.080926000000005
                },
                {
                    "name": "D#4",
                    "midi": 63,
                    "time": 72.83240999999995,
                    "velocity": 0.28346456692913385,
                    "duration": 2.080926000000005
                },
                {
                    "name": "B3",
                    "midi": 59,
                    "time": 74.91333599999996,
                    "velocity": 0.25196850393700787,
                    "duration": 2.080926000000005
                },
                {
                    "name": "G#4",
                    "midi": 68,
                    "time": 74.91333599999996,
                    "velocity": 0.3937007874015748,
                    "duration": 2.080926000000005
                },
                {
                    "name": "F4",
                    "midi": 65,
                    "time": 74.91333599999996,
                    "velocity": 0.3228346456692913,
                    "duration": 4.161851999999996
                },
                {
                    "name": "A#4",
                    "midi": 70,
                    "time": 76.99426199999996,
                    "velocity": 0.33070866141732286,
                    "duration": 2.080925999999991
                },
                {
                    "name": "C#4",
                    "midi": 61,
                    "time": 76.99426199999996,
                    "velocity": 0.2755905511811024,
                    "duration": 1.387283999999994
                },
                {
                    "name": "B3",
                    "midi": 59,
                    "time": 78.38154599999996,
                    "velocity": 0.30708661417322836,
                    "duration": 0.693641999999997
                },
                {
                    "name": "A#3",
                    "midi": 58,
                    "time": 79.07518799999995,
                    "velocity": 0.1889763779527559,
                    "duration": 2.774568000000002
                },
                {
                    "name": "F#4",
                    "midi": 66,
                    "time": 79.07518799999995,
                    "velocity": 0.2992125984251969,
                    "duration": 2.774568000000002
                },
                {
                    "name": "F#5",
                    "midi": 78,
                    "time": 83.23703999999995,
                    "velocity": 0.47244094488188976,
                    "duration": 2.0809260000000336
                },
                {
                    "name": "F#4",
                    "midi": 66,
                    "time": 83.58386099999996,
                    "velocity": 0.1889763779527559,
                    "duration": 0.32947995000000674
                },
                {
                    "name": "F#4",
                    "midi": 66,
                    "time": 83.93068199999996,
                    "velocity": 0.2047244094488189,
                    "duration": 0.32947995000000674
                },
                {
                    "name": "F#4",
                    "midi": 66,
                    "time": 84.27750299999997,
                    "velocity": 0.2204724409448819,
                    "duration": 0.32947995000000674
                },
                {
                    "name": "F#4",
                    "midi": 66,
                    "time": 84.62432399999997,
                    "velocity": 0.2440944881889764,
                    "duration": 0.32947995000000674
                },
                {
                    "name": "F#4",
                    "midi": 66,
                    "time": 84.97114499999998,
                    "velocity": 0.2204724409448819,
                    "duration": 0.32947995000000674
                },
                {
                    "name": "A#4",
                    "midi": 70,
                    "time": 85.31796599999998,
                    "velocity": 0.44881889763779526,
                    "duration": 1.3872840000000224
                },
                {
                    "name": "F#4",
                    "midi": 66,
                    "time": 85.31796599999998,
                    "velocity": 0.2283464566929134,
                    "duration": 0.32947995000000674
                },
                {
                    "name": "F#4",
                    "midi": 66,
                    "time": 85.66478699999999,
                    "velocity": 0.2283464566929134,
                    "duration": 0.32947995000000674
                },
                {
                    "name": "F#4",
                    "midi": 66,
                    "time": 86.011608,
                    "velocity": 0.2204724409448819,
                    "duration": 0.32947995000000674
                },
                {
                    "name": "F#4",
                    "midi": 66,
                    "time": 86.358429,
                    "velocity": 0.2125984251968504,
                    "duration": 0.32947995000000674
                },
                {
                    "name": "F#4",
                    "midi": 66,
                    "time": 86.70525,
                    "velocity": 0.2047244094488189,
                    "duration": 0.32947995000000674
                },
                {
                    "name": "C5",
                    "midi": 72,
                    "time": 86.70525,
                    "velocity": 0.4566929133858268,
                    "duration": 0.6936420000000112
                },
                {
                    "name": "F#4",
                    "midi": 66,
                    "time": 87.05207100000001,
                    "velocity": 0.2047244094488189,
                    "duration": 0.32947995000000674
                },
                {
                    "name": "F4",
                    "midi": 65,
                    "time": 87.39889200000002,
                    "velocity": 0.23622047244094488,
                    "duration": 0.32947995000000674
                },
                {
                    "name": "C5",
                    "midi": 72,
                    "time": 87.39889200000002,
                    "velocity": 0.47244094488188976,
                    "duration": 1.5606945000000252
                },
                {
                    "name": "F4",
                    "midi": 65,
                    "time": 87.74571300000002,
                    "velocity": 0.2125984251968504,
                    "duration": 0.32947995000000674
                },
                {
                    "name": "F4",
                    "midi": 65,
                    "time": 88.09253400000003,
                    "velocity": 0.2440944881889764,
                    "duration": 0.32947995000000674
                },
                {
                    "name": "F4",
                    "midi": 65,
                    "time": 88.43935500000003,
                    "velocity": 0.23622047244094488,
                    "duration": 0.32947995000000674
                },
                {
                    "name": "F4",
                    "midi": 65,
                    "time": 88.78617600000004,
                    "velocity": 0.2047244094488189,
                    "duration": 0.32947995000000674
                },
                {
                    "name": "C#5",
                    "midi": 73,
                    "time": 88.95958650000004,
                    "velocity": 0.33858267716535434,
                    "duration": 0.1734105000000028
                },
                {
                    "name": "F4",
                    "midi": 65,
                    "time": 89.13299700000005,
                    "velocity": 0.2047244094488189,
                    "duration": 0.32947995000000674
                },
                {
                    "name": "F5",
                    "midi": 77,
                    "time": 89.13299700000005,
                    "velocity": 0.33070866141732286,
                    "duration": 0.1734105000000028
                },
                {
                    "name": "D#5",
                    "midi": 75,
                    "time": 89.30640750000005,
                    "velocity": 0.31496062992125984,
                    "duration": 0.1734105000000028
                },
                {
                    "name": "C#5",
                    "midi": 73,
                    "time": 89.47981800000005,
                    "velocity": 0.4094488188976378,
                    "duration": 2.0809260000000336
                },
                {
                    "name": "F4",
                    "midi": 65,
                    "time": 89.47981800000005,
                    "velocity": 0.2047244094488189,
                    "duration": 0.32947995000000674
                },
                {
                    "name": "F4",
                    "midi": 65,
                    "time": 89.82663900000006,
                    "velocity": 0.2047244094488189,
                    "duration": 0.32947995000000674
                },
                {
                    "name": "F4",
                    "midi": 65,
                    "time": 90.17346000000006,
                    "velocity": 0.2047244094488189,
                    "duration": 0.32947995000000674
                },
                {
                    "name": "F4",
                    "midi": 65,
                    "time": 90.52028100000007,
                    "velocity": 0.2047244094488189,
                    "duration": 0.32947995000000674
                },
                {
                    "name": "F4",
                    "midi": 65,
                    "time": 90.86710200000007,
                    "velocity": 0.2047244094488189,
                    "duration": 0.32947995000000674
                },
                {
                    "name": "F4",
                    "midi": 65,
                    "time": 91.21392300000008,
                    "velocity": 0.2047244094488189,
                    "duration": 0.32947995000000674
                },
                {
                    "name": "E5",
                    "midi": 76,
                    "time": 91.56074400000008,
                    "velocity": 0.47244094488188976,
                    "duration": 2.0809260000000336
                },
                {
                    "name": "E4",
                    "midi": 64,
                    "time": 91.90756500000009,
                    "velocity": 0.1889763779527559,
                    "duration": 0.32947995000000674
                },
                {
                    "name": "E4",
                    "midi": 64,
                    "time": 92.2543860000001,
                    "velocity": 0.2047244094488189,
                    "duration": 0.32947995000000674
                },
                {
                    "name": "E4",
                    "midi": 64,
                    "time": 92.6012070000001,
                    "velocity": 0.2204724409448819,
                    "duration": 0.32947995000000674
                },
                {
                    "name": "E4",
                    "midi": 64,
                    "time": 92.94802800000011,
                    "velocity": 0.2440944881889764,
                    "duration": 0.32947995000000674
                },
                {
                    "name": "E4",
                    "midi": 64,
                    "time": 93.29484900000011,
                    "velocity": 0.2204724409448819,
                    "duration": 0.32947995000000674
                },
                {
                    "name": "E4",
                    "midi": 64,
                    "time": 93.64167000000012,
                    "velocity": 0.2283464566929134,
                    "duration": 0.32947995000000674
                },
                {
                    "name": "G#4",
                    "midi": 68,
                    "time": 93.64167000000012,
                    "velocity": 0.44881889763779526,
                    "duration": 1.3872840000000224
                },
                {
                    "name": "E4",
                    "midi": 64,
                    "time": 93.98849100000012,
                    "velocity": 0.2283464566929134,
                    "duration": 0.32947995000000674
                },
                {
                    "name": "E4",
                    "midi": 64,
                    "time": 94.33531200000013,
                    "velocity": 0.2204724409448819,
                    "duration": 0.32947995000000674
                },
                {
                    "name": "E4",
                    "midi": 64,
                    "time": 94.68213300000014,
                    "velocity": 0.2125984251968504,
                    "duration": 0.32947995000000674
                },
                {
                    "name": "A#4",
                    "midi": 70,
                    "time": 95.02895400000014,
                    "velocity": 0.4566929133858268,
                    "duration": 0.6936420000000112
                },
                {
                    "name": "E4",
                    "midi": 64,
                    "time": 95.02895400000014,
                    "velocity": 0.2047244094488189,
                    "duration": 0.32947995000000674
                },
                {
                    "name": "E4",
                    "midi": 64,
                    "time": 95.37577500000015,
                    "velocity": 0.2047244094488189,
                    "duration": 0.32947995000000674
                },
                {
                    "name": "D#4",
                    "midi": 63,
                    "time": 95.72259600000015,
                    "velocity": 0.23622047244094488,
                    "duration": 0.32947995000000674
                },
                {
                    "name": "A#4",
                    "midi": 70,
                    "time": 95.72259600000015,
                    "velocity": 0.47244094488188976,
                    "duration": 1.5606945000000252
                },
                {
                    "name": "D#4",
                    "midi": 63,
                    "time": 96.06941700000016,
                    "velocity": 0.2125984251968504,
                    "duration": 0.32947995000000674
                },
                {
                    "name": "D#4",
                    "midi": 63,
                    "time": 96.41623800000016,
                    "velocity": 0.2440944881889764,
                    "duration": 0.32947995000000674
                },
                {
                    "name": "D#4",
                    "midi": 63,
                    "time": 96.76305900000017,
                    "velocity": 0.23622047244094488,
                    "duration": 0.32947995000000674
                },
                {
                    "name": "D#4",
                    "midi": 63,
                    "time": 97.10988000000017,
                    "velocity": 0.2047244094488189,
                    "duration": 0.32947995000000674
                },
                {
                    "name": "B4",
                    "midi": 71,
                    "time": 97.28329050000018,
                    "velocity": 0.33858267716535434,
                    "duration": 0.1734105000000028
                },
                {
                    "name": "D#5",
                    "midi": 75,
                    "time": 97.45670100000018,
                    "velocity": 0.33070866141732286,
                    "duration": 0.1734105000000028
                },
                {
                    "name": "D#4",
                    "midi": 63,
                    "time": 97.45670100000018,
                    "velocity": 0.2047244094488189,
                    "duration": 0.32947995000000674
                },
                {
                    "name": "C#5",
                    "midi": 73,
                    "time": 97.63011150000018,
                    "velocity": 0.31496062992125984,
                    "duration": 0.1734105000000028
                },
                {
                    "name": "D#4",
                    "midi": 63,
                    "time": 97.80352200000019,
                    "velocity": 0.1889763779527559,
                    "duration": 0.32947995000000674
                },
                {
                    "name": "B4",
                    "midi": 71,
                    "time": 97.80352200000019,
                    "velocity": 0.3543307086614173,
                    "duration": 1.3872840000000224
                },
                {
                    "name": "D#4",
                    "midi": 63,
                    "time": 98.15034300000019,
                    "velocity": 0.2047244094488189,
                    "duration": 0.32947995000000674
                },
                {
                    "name": "D#4",
                    "midi": 63,
                    "time": 98.4971640000002,
                    "velocity": 0.2047244094488189,
                    "duration": 0.32947995000000674
                },
                {
                    "name": "D#4",
                    "midi": 63,
                    "time": 98.8439850000002,
                    "velocity": 0.2047244094488189,
                    "duration": 0.32947995000000674
                },
                {
                    "name": "D#4",
                    "midi": 63,
                    "time": 99.19080600000021,
                    "velocity": 0.2047244094488189,
                    "duration": 0.32947995000000674
                },
                {
                    "name": "A#4",
                    "midi": 70,
                    "time": 99.19080600000021,
                    "velocity": 0.4409448818897638,
                    "duration": 0.6936420000000112
                },
                {
                    "name": "C#4",
                    "midi": 61,
                    "time": 99.53762700000021,
                    "velocity": 0.2047244094488189,
                    "duration": 0.32947995000000674
                },
                {
                    "name": "B3",
                    "midi": 59,
                    "time": 99.88444800000022,
                    "velocity": 0.23622047244094488,
                    "duration": 0.32947995000000674
                },
                {
                    "name": "A#4",
                    "midi": 70,
                    "time": 99.88444800000022,
                    "velocity": 0.47244094488188976,
                    "duration": 0.6936420000000112
                },
                {
                    "name": "B3",
                    "midi": 59,
                    "time": 100.23126900000022,
                    "velocity": 0.2125984251968504,
                    "duration": 0.32947995000000674
                },
                {
                    "name": "G#4",
                    "midi": 68,
                    "time": 100.57809000000023,
                    "velocity": 0.4330708661417323,
                    "duration": 0.867052500000014
                },
                {
                    "name": "B3",
                    "midi": 59,
                    "time": 100.57809000000023,
                    "velocity": 0.16535433070866143,
                    "duration": 0.32947995000000674
                },
                {
                    "name": "B3",
                    "midi": 59,
                    "time": 100.92491100000024,
                    "velocity": 0.23622047244094488,
                    "duration": 0.32947995000000674
                },
                {
                    "name": "C#4",
                    "midi": 61,
                    "time": 101.27173200000024,
                    "velocity": 0.2047244094488189,
                    "duration": 0.32947995000000674
                },
                {
                    "name": "A#4",
                    "midi": 70,
                    "time": 101.44514250000024,
                    "velocity": 0.33858267716535434,
                    "duration": 0.1734105000000028
                },
                {
                    "name": "C#5",
                    "midi": 73,
                    "time": 101.61855300000025,
                    "velocity": 0.33070866141732286,
                    "duration": 0.1734105000000028
                },
                {
                    "name": "C#4",
                    "midi": 61,
                    "time": 101.61855300000025,
                    "velocity": 0.2047244094488189,
                    "duration": 0.32947995000000674
                },
                {
                    "name": "B4",
                    "midi": 71,
                    "time": 101.79196350000025,
                    "velocity": 0.31496062992125984,
                    "duration": 0.1734105000000028
                },
                {
                    "name": "D#4",
                    "midi": 63,
                    "time": 101.96537400000025,
                    "velocity": 0.23622047244094488,
                    "duration": 0.32947995000000674
                },
                {
                    "name": "A#4",
                    "midi": 70,
                    "time": 101.96537400000025,
                    "velocity": 0.47244094488188976,
                    "duration": 0.6936420000000112
                },
                {
                    "name": "D#4",
                    "midi": 63,
                    "time": 102.31219500000026,
                    "velocity": 0.2125984251968504,
                    "duration": 0.32947995000000674
                },
                {
                    "name": "G#4",
                    "midi": 68,
                    "time": 102.65901600000026,
                    "velocity": 0.4251968503937008,
                    "duration": 0.867052500000014
                },
                {
                    "name": "D#4",
                    "midi": 63,
                    "time": 102.65901600000026,
                    "velocity": 0.16535433070866143,
                    "duration": 0.32947995000000674
                },
                {
                    "name": "D#4",
                    "midi": 63,
                    "time": 103.00583700000027,
                    "velocity": 0.23622047244094488,
                    "duration": 0.32947995000000674
                },
                {
                    "name": "C#4",
                    "midi": 61,
                    "time": 103.35265800000028,
                    "velocity": 0.2047244094488189,
                    "duration": 0.32947995000000674
                },
                {
                    "name": "A#4",
                    "midi": 70,
                    "time": 103.52606850000028,
                    "velocity": 0.31496062992125984,
                    "duration": 0.1734105000000028
                },
                {
                    "name": "C#4",
                    "midi": 61,
                    "time": 103.69947900000028,
                    "velocity": 0.2047244094488189,
                    "duration": 0.32947995000000674
                },
                {
                    "name": "C#5",
                    "midi": 73,
                    "time": 103.69947900000028,
                    "velocity": 0.30708661417322836,
                    "duration": 0.1734105000000028
                },
                {
                    "name": "B4",
                    "midi": 71,
                    "time": 103.87288950000028,
                    "velocity": 0.2992125984251969,
                    "duration": 0.1734105000000028
                },
                {
                    "name": "B3",
                    "midi": 59,
                    "time": 104.04630000000029,
                    "velocity": 0.25984251968503935,
                    "duration": 0.32947995000000674
                },
                {
                    "name": "A#4",
                    "midi": 70,
                    "time": 104.04630000000029,
                    "velocity": 0.44881889763779526,
                    "duration": 0.6936420000000112
                },
                {
                    "name": "B3",
                    "midi": 59,
                    "time": 104.39312100000029,
                    "velocity": 0.2283464566929134,
                    "duration": 0.32947995000000674
                },
                {
                    "name": "G#4",
                    "midi": 68,
                    "time": 104.7399420000003,
                    "velocity": 0.41732283464566927,
                    "duration": 2.427747000000039
                },
                {
                    "name": "D#4",
                    "midi": 63,
                    "time": 104.7399420000003,
                    "velocity": 0.31496062992125984,
                    "duration": 0.32947995000000674
                },
                {
                    "name": "D#4",
                    "midi": 63,
                    "time": 105.0867630000003,
                    "velocity": 0.3464566929133858,
                    "duration": 0.32947995000000674
                },
                {
                    "name": "F4",
                    "midi": 65,
                    "time": 105.43358400000031,
                    "velocity": 0.41732283464566927,
                    "duration": 0.32947995000000674
                },
                {
                    "name": "D#4",
                    "midi": 63,
                    "time": 105.78040500000031,
                    "velocity": 0.33070866141732286,
                    "duration": 0.32947995000000674
                },
                {
                    "name": "F4",
                    "midi": 65,
                    "time": 106.12722600000032,
                    "velocity": 0.3779527559055118,
                    "duration": 0.3468210000000056
                },
                {
                    "name": "D#4",
                    "midi": 63,
                    "time": 106.47404700000033,
                    "velocity": 0.33070866141732286,
                    "duration": 0.3468210000000056
                },
                {
                    "name": "F4",
                    "midi": 65,
                    "time": 106.82086800000033,
                    "velocity": 0.31496062992125984,
                    "duration": 0.3468210000000056
                },
                {
                    "name": "D#4",
                    "midi": 63,
                    "time": 107.16768900000034,
                    "velocity": 0.36220472440944884,
                    "duration": 0.3468210000000056
                },
                {
                    "name": "A#4",
                    "midi": 70,
                    "time": 107.16768900000034,
                    "velocity": 0.4330708661417323,
                    "duration": 0.3468210000000056
                },
                {
                    "name": "C#4",
                    "midi": 61,
                    "time": 107.51451000000034,
                    "velocity": 0.4015748031496063,
                    "duration": 0.3468210000000056
                },
                {
                    "name": "C#5",
                    "midi": 73,
                    "time": 107.51451000000034,
                    "velocity": 0.48031496062992124,
                    "duration": 0.3468210000000056
                },
                {
                    "name": "A#4",
                    "midi": 70,
                    "time": 107.86133100000035,
                    "velocity": 0.4330708661417323,
                    "duration": 0.3468210000000056
                },
                {
                    "name": "C#4",
                    "midi": 61,
                    "time": 107.86133100000035,
                    "velocity": 0.36220472440944884,
                    "duration": 0.3468210000000056
                },
                {
                    "name": "A#3",
                    "midi": 58,
                    "time": 108.20815200000035,
                    "velocity": 0.23622047244094488,
                    "duration": 0.32947995000000674
                },
                {
                    "name": "F#4",
                    "midi": 66,
                    "time": 108.20815200000035,
                    "velocity": 0.47244094488188976,
                    "duration": 0.6936420000000112
                },
                {
                    "name": "A#3",
                    "midi": 58,
                    "time": 108.55497300000036,
                    "velocity": 0.2677165354330709,
                    "duration": 0.32947995000000674
                },
                {
                    "name": "D#4",
                    "midi": 63,
                    "time": 108.90179400000036,
                    "velocity": 0.36220472440944884,
                    "duration": 0.32947995000000674
                },
                {
                    "name": "F#4",
                    "midi": 66,
                    "time": 108.90179400000036,
                    "velocity": 0.4566929133858268,
                    "duration": 0.6936420000000112
                },
                {
                    "name": "D#4",
                    "midi": 63,
                    "time": 109.24861500000037,
                    "velocity": 0.2677165354330709,
                    "duration": 0.32947995000000674
                },
                {
                    "name": "F#4",
                    "midi": 66,
                    "time": 109.59543600000038,
                    "velocity": 0.44881889763779526,
                    "duration": 0.6936420000000112
                },
                {
                    "name": "C4",
                    "midi": 60,
                    "time": 109.59543600000038,
                    "velocity": 0.3779527559055118,
                    "duration": 0.32947995000000674
                },
                {
                    "name": "D#4",
                    "midi": 63,
                    "time": 109.59543600000038,
                    "velocity": 0.3779527559055118,
                    "duration": 0.6936420000000112
                },
                {
                    "name": "C4",
                    "midi": 60,
                    "time": 109.94225700000038,
                    "velocity": 0.29133858267716534,
                    "duration": 0.32947995000000674
                },
                {
                    "name": "G#4",
                    "midi": 68,
                    "time": 110.28907800000039,
                    "velocity": 0.4251968503937008,
                    "duration": 1.3872840000000224
                },
                {
                    "name": "F#4",
                    "midi": 66,
                    "time": 110.28907800000039,
                    "velocity": 0.47244094488188976,
                    "duration": 0.6936420000000112
                },
                {
                    "name": "B3",
                    "midi": 59,
                    "time": 110.28907800000039,
                    "velocity": 0.2677165354330709,
                    "duration": 0.32947995000000674
                },
                {
                    "name": "D#4",
                    "midi": 63,
                    "time": 110.28907800000039,
                    "velocity": 0.4015748031496063,
                    "duration": 0.6936420000000112
                },
                {
                    "name": "B3",
                    "midi": 59,
                    "time": 110.63589900000039,
                    "velocity": 0.3228346456692913,
                    "duration": 0.32947995000000674
                },
                {
                    "name": "C#4",
                    "midi": 61,
                    "time": 110.9827200000004,
                    "velocity": 0.33070866141732286,
                    "duration": 0.6936420000000112
                },
                {
                    "name": "F4",
                    "midi": 65,
                    "time": 110.9827200000004,
                    "velocity": 0.4409448818897638,
                    "duration": 0.6936420000000112
                },
                {
                    "name": "B3",
                    "midi": 59,
                    "time": 110.9827200000004,
                    "velocity": 0.3937007874015748,
                    "duration": 0.32947995000000674
                },
                {
                    "name": "B3",
                    "midi": 59,
                    "time": 111.3295410000004,
                    "velocity": 0.3228346456692913,
                    "duration": 0.32947995000000674
                },
                {
                    "name": "D#4",
                    "midi": 63,
                    "time": 111.67636200000041,
                    "velocity": 0.33070866141732286,
                    "duration": 0.6936420000000112
                },
                {
                    "name": "B3",
                    "midi": 59,
                    "time": 111.67636200000041,
                    "velocity": 0.3937007874015748,
                    "duration": 0.32947995000000674
                },
                {
                    "name": "G#4",
                    "midi": 68,
                    "time": 111.67636200000041,
                    "velocity": 0.4409448818897638,
                    "duration": 0.6936420000000112
                },
                {
                    "name": "B3",
                    "midi": 59,
                    "time": 112.02318300000042,
                    "velocity": 0.3228346456692913,
                    "duration": 0.32947995000000674
                },
                {
                    "name": "D#4",
                    "midi": 63,
                    "time": 112.37000400000042,
                    "velocity": 0.33070866141732286,
                    "duration": 0.693641999999997
                },
                {
                    "name": "G#4",
                    "midi": 68,
                    "time": 112.37000400000042,
                    "velocity": 0.4409448818897638,
                    "duration": 0.693641999999997
                },
                {
                    "name": "B3",
                    "midi": 59,
                    "time": 112.37000400000042,
                    "velocity": 0.33070866141732286,
                    "duration": 0.693641999999997
                },
                {
                    "name": "A#4",
                    "midi": 70,
                    "time": 113.06364600000042,
                    "velocity": 0.4094488188976378,
                    "duration": 0.693641999999997
                },
                {
                    "name": "A#3",
                    "midi": 58,
                    "time": 113.06364600000042,
                    "velocity": 0.30708661417322836,
                    "duration": 0.693641999999997
                },
                {
                    "name": "C#4",
                    "midi": 61,
                    "time": 113.06364600000042,
                    "velocity": 0.30708661417322836,
                    "duration": 0.693641999999997
                },
                {
                    "name": "D#4",
                    "midi": 63,
                    "time": 113.75728800000041,
                    "velocity": 0.29133858267716534,
                    "duration": 0.693641999999997
                },
                {
                    "name": "G#4",
                    "midi": 68,
                    "time": 113.75728800000041,
                    "velocity": 0.3937007874015748,
                    "duration": 0.693641999999997
                },
                {
                    "name": "B3",
                    "midi": 59,
                    "time": 113.75728800000041,
                    "velocity": 0.25196850393700787,
                    "duration": 0.693641999999997
                },
                {
                    "name": "A#3",
                    "midi": 58,
                    "time": 114.45093000000041,
                    "velocity": 0.2992125984251969,
                    "duration": 2.080926000000005
                },
                {
                    "name": "C#4",
                    "midi": 61,
                    "time": 114.45093000000041,
                    "velocity": 0.2992125984251969,
                    "duration": 2.080926000000005
                },
                {
                    "name": "A#4",
                    "midi": 70,
                    "time": 114.45093000000041,
                    "velocity": 0.4015748031496063,
                    "duration": 2.080926000000005
                },
                {
                    "name": "A#4",
                    "midi": 70,
                    "time": 116.53185600000042,
                    "velocity": 0.4330708661417323,
                    "duration": 2.080926000000005
                },
                {
                    "name": "E4",
                    "midi": 64,
                    "time": 116.53185600000042,
                    "velocity": 0.36220472440944884,
                    "duration": 2.080926000000005
                },
                {
                    "name": "A#4",
                    "midi": 70,
                    "time": 118.61278200000042,
                    "velocity": 0.5196850393700787,
                    "duration": 1.9075155000000024
                },
                {
                    "name": "E4",
                    "midi": 64,
                    "time": 118.61278200000042,
                    "velocity": 0.4330708661417323,
                    "duration": 2.080926000000005
                },
                {
                    "name": "B4",
                    "midi": 71,
                    "time": 120.52029750000042,
                    "velocity": 0.4881889763779528,
                    "duration": 0.1734105000000028
                },
                {
                    "name": "A#4",
                    "midi": 70,
                    "time": 120.69370800000043,
                    "velocity": 0.4645669291338583,
                    "duration": 2.080926000000005
                },
                {
                    "name": "C#5",
                    "midi": 73,
                    "time": 120.69370800000043,
                    "velocity": 0.5590551181102362,
                    "duration": 2.080926000000005
                },
                {
                    "name": "E4",
                    "midi": 64,
                    "time": 120.69370800000043,
                    "velocity": 0.3464566929133858,
                    "duration": 2.080926000000005
                },
                {
                    "name": "D#5",
                    "midi": 75,
                    "time": 122.77463400000043,
                    "velocity": 0.5275590551181102,
                    "duration": 1.9075155000000024
                },
                {
                    "name": "E4",
                    "midi": 64,
                    "time": 122.77463400000043,
                    "velocity": 0.23622047244094488,
                    "duration": 2.080926000000005
                },
                {
                    "name": "F#5",
                    "midi": 78,
                    "time": 122.77463400000043,
                    "velocity": 0.5275590551181102,
                    "duration": 2.080926000000005
                },
                {
                    "name": "A#4",
                    "midi": 70,
                    "time": 122.77463400000043,
                    "velocity": 0.3543307086614173,
                    "duration": 2.080926000000005
                },
                {
                    "name": "C#5",
                    "midi": 73,
                    "time": 124.68214950000043,
                    "velocity": 0.5196850393700787,
                    "duration": 0.1734105000000028
                },
                {
                    "name": "F#5",
                    "midi": 78,
                    "time": 124.85556000000044,
                    "velocity": 0.5433070866141733,
                    "duration": 2.080926000000005
                },
                {
                    "name": "E4",
                    "midi": 64,
                    "time": 124.85556000000044,
                    "velocity": 0.23622047244094488,
                    "duration": 2.080926000000005
                },
                {
                    "name": "C#5",
                    "midi": 73,
                    "time": 124.85556000000044,
                    "velocity": 0.3779527559055118,
                    "duration": 2.080926000000005
                },
                {
                    "name": "B4",
                    "midi": 71,
                    "time": 126.93648600000044,
                    "velocity": 0.3937007874015748,
                    "duration": 2.080925999999991
                },
                {
                    "name": "D#5",
                    "midi": 75,
                    "time": 126.93648600000044,
                    "velocity": 0.48031496062992124,
                    "duration": 4.161851999999996
                },
                {
                    "name": "D#4",
                    "midi": 63,
                    "time": 126.93648600000044,
                    "velocity": 0.29133858267716534,
                    "duration": 2.080925999999991
                },
                {
                    "name": "C#4",
                    "midi": 61,
                    "time": 129.01741200000043,
                    "velocity": 0.3937007874015748,
                    "duration": 2.080926000000005
                },
                {
                    "name": "G4",
                    "midi": 67,
                    "time": 129.01741200000043,
                    "velocity": 0.3937007874015748,
                    "duration": 2.080926000000005
                },
                {
                    "name": "B4",
                    "midi": 71,
                    "time": 129.01741200000043,
                    "velocity": 0.4409448818897638,
                    "duration": 2.080926000000005
                },
                {
                    "name": "G#4",
                    "midi": 68,
                    "time": 131.09833800000044,
                    "velocity": 0.3700787401574803,
                    "duration": 2.0809259999999767
                },
                {
                    "name": "B3",
                    "midi": 59,
                    "time": 131.09833800000044,
                    "velocity": 0.33070866141732286,
                    "duration": 2.0809259999999767
                },
                {
                    "name": "B4",
                    "midi": 71,
                    "time": 131.09833800000044,
                    "velocity": 0.44881889763779526,
                    "duration": 1.9075154999999882
                },
                {
                    "name": "D#4",
                    "midi": 63,
                    "time": 133.00585350000043,
                    "velocity": 0.3858267716535433,
                    "duration": 0.1734104999999886
                },
                {
                    "name": "G#4",
                    "midi": 68,
                    "time": 133.17926400000042,
                    "velocity": 0.4645669291338583,
                    "duration": 2.080926000000005
                },
                {
                    "name": "F4",
                    "midi": 65,
                    "time": 133.17926400000042,
                    "velocity": 0.3700787401574803,
                    "duration": 2.080926000000005
                },
                {
                    "name": "B3",
                    "midi": 59,
                    "time": 133.17926400000042,
                    "velocity": 0.33070866141732286,
                    "duration": 2.080926000000005
                },
                {
                    "name": "F5",
                    "midi": 77,
                    "time": 133.52608500000042,
                    "velocity": 0.4251968503937008,
                    "duration": 3.8150310000000047
                },
                {
                    "name": "F4",
                    "midi": 65,
                    "time": 135.26019000000042,
                    "velocity": 0.33070866141732286,
                    "duration": 1.387283999999994
                },
                {
                    "name": "B3",
                    "midi": 59,
                    "time": 135.26019000000042,
                    "velocity": 0.29133858267716534,
                    "duration": 1.387283999999994
                },
                {
                    "name": "G#4",
                    "midi": 68,
                    "time": 135.26019000000042,
                    "velocity": 0.4015748031496063,
                    "duration": 1.387283999999994
                },
                {
                    "name": "A#4",
                    "midi": 70,
                    "time": 136.64747400000041,
                    "velocity": 0.4015748031496063,
                    "duration": 0.6936420000000112
                },
                {
                    "name": "C#4",
                    "midi": 61,
                    "time": 136.64747400000041,
                    "velocity": 0.33070866141732286,
                    "duration": 0.6936420000000112
                },
                {
                    "name": "A#3",
                    "midi": 58,
                    "time": 137.34111600000043,
                    "velocity": 0.33070866141732286,
                    "duration": 1.387283999999994
                },
                {
                    "name": "F#4",
                    "midi": 66,
                    "time": 137.34111600000043,
                    "velocity": 0.4251968503937008,
                    "duration": 1.387283999999994
                },
                {
                    "name": "F#5",
                    "midi": 78,
                    "time": 137.68793700000043,
                    "velocity": 0.4645669291338583,
                    "duration": 1.7341049999999996
                },
                {
                    "name": "D#4",
                    "midi": 63,
                    "time": 139.42204200000043,
                    "velocity": 0.31496062992125984,
                    "duration": 2.080926000000005
                },
                {
                    "name": "B4",
                    "midi": 71,
                    "time": 139.42204200000043,
                    "velocity": 0.44881889763779526,
                    "duration": 2.080926000000005
                },
                {
                    "name": "G#4",
                    "midi": 68,
                    "time": 139.42204200000043,
                    "velocity": 0.3543307086614173,
                    "duration": 2.080926000000005
                },
                {
                    "name": "G#5",
                    "midi": 80,
                    "time": 139.76886300000044,
                    "velocity": 0.48031496062992124,
                    "duration": 1.7341049999999996
                },
                {
                    "name": "B3",
                    "midi": 59,
                    "time": 141.50296800000044,
                    "velocity": 0.2677165354330709,
                    "duration": 4.161851999999982
                },
                {
                    "name": "F4",
                    "midi": 65,
                    "time": 141.50296800000044,
                    "velocity": 0.2992125984251969,
                    "duration": 4.161851999999982
                },
                {
                    "name": "G#4",
                    "midi": 68,
                    "time": 141.50296800000044,
                    "velocity": 0.4015748031496063,
                    "duration": 2.080926000000005
                },
                {
                    "name": "F5",
                    "midi": 77,
                    "time": 141.84978900000044,
                    "velocity": 0.4566929133858268,
                    "duration": 3.6416204999999877
                },
                {
                    "name": "A#4",
                    "midi": 70,
                    "time": 143.58389400000044,
                    "velocity": 0.4409448818897638,
                    "duration": 2.0809259999999767
                },
                {
                    "name": "F#5",
                    "midi": 78,
                    "time": 145.49140950000043,
                    "velocity": 0.4251968503937008,
                    "duration": 0.1734104999999886
                },
                {
                    "name": "F#4",
                    "midi": 66,
                    "time": 145.66482000000042,
                    "velocity": 0.33070866141732286,
                    "duration": 4.16185200000001
                },
                {
                    "name": "A#3",
                    "midi": 58,
                    "time": 145.66482000000042,
                    "velocity": 0.2125984251968504,
                    "duration": 4.16185200000001
                },
                {
                    "name": "F#5",
                    "midi": 78,
                    "time": 146.01164100000042,
                    "velocity": 0.44881889763779526,
                    "duration": 3.8150310000000047
                },
                {
                    "name": "A#3",
                    "midi": 58,
                    "time": 150.17349300000043,
                    "velocity": 0.23622047244094488,
                    "duration": 0.32947995000000674
                },
                {
                    "name": "A#3",
                    "midi": 58,
                    "time": 150.52031400000044,
                    "velocity": 0.25984251968503935,
                    "duration": 0.32947995000000674
                },
                {
                    "name": "A#3",
                    "midi": 58,
                    "time": 150.86713500000045,
                    "velocity": 0.2677165354330709,
                    "duration": 0.32947995000000674
                },
                {
                    "name": "D#4",
                    "midi": 63,
                    "time": 151.21395600000045,
                    "velocity": 0.29133858267716534,
                    "duration": 0.32947995000000674
                },
                {
                    "name": "A#3",
                    "midi": 58,
                    "time": 151.56077700000046,
                    "velocity": 0.31496062992125984,
                    "duration": 0.32947995000000674
                },
                {
                    "name": "A#3",
                    "midi": 58,
                    "time": 151.90759800000046,
                    "velocity": 0.1968503937007874,
                    "duration": 0.32947995000000674
                },
                {
                    "name": "A#4",
                    "midi": 70,
                    "time": 151.90759800000046,
                    "velocity": 0.4094488188976378,
                    "duration": 1.3872840000000224
                },
                {
                    "name": "C#4",
                    "midi": 61,
                    "time": 152.25441900000047,
                    "velocity": 0.2992125984251969,
                    "duration": 0.32947995000000674
                },
                {
                    "name": "B3",
                    "midi": 59,
                    "time": 152.60124000000047,
                    "velocity": 0.29133858267716534,
                    "duration": 0.32947995000000674
                },
                {
                    "name": "A#3",
                    "midi": 58,
                    "time": 152.94806100000048,
                    "velocity": 0.23622047244094488,
                    "duration": 0.32947995000000674
                },
                {
                    "name": "A#3",
                    "midi": 58,
                    "time": 153.29488200000048,
                    "velocity": 0.14173228346456693,
                    "duration": 0.3294799499999783
                },
                {
                    "name": "A4",
                    "midi": 69,
                    "time": 153.29488200000048,
                    "velocity": 0.31496062992125984,
                    "duration": 0.1734104999999886
                },
                {
                    "name": "A#4",
                    "midi": 70,
                    "time": 153.46829250000047,
                    "velocity": 0.2755905511811024,
                    "duration": 0.1734104999999886
                },
                {
                    "name": "C#5",
                    "midi": 73,
                    "time": 153.64170300000046,
                    "velocity": 0.31496062992125984,
                    "duration": 0.1734104999999886
                },
                {
                    "name": "A#3",
                    "midi": 58,
                    "time": 153.64170300000046,
                    "velocity": 0.14173228346456693,
                    "duration": 0.3294799499999783
                },
                {
                    "name": "B4",
                    "midi": 71,
                    "time": 153.81511350000045,
                    "velocity": 0.2755905511811024,
                    "duration": 0.1734104999999886
                },
                {
                    "name": "A#4",
                    "midi": 70,
                    "time": 153.98852400000044,
                    "velocity": 0.25984251968503935,
                    "duration": 4.16185200000001
                },
                {
                    "name": "A#3",
                    "midi": 58,
                    "time": 153.98852400000044,
                    "velocity": 0.23622047244094488,
                    "duration": 4.16185200000001
                }
            ],
            "controlChanges": {
                "7": [
                    {
                        "number": 7,
                        "time": 0,
                        "value": 0.7874015748031497
                    }
                ],
                "10": [
                    {
                        "number": 10,
                        "time": 0,
                        "value": 0.5039370078740157
                    }
                ],
                "91": [
                    {
                        "number": 91,
                        "time": 0,
                        "value": 1
                    }
                ]
            },
            "id": 1,
            "name": "Piano right",
            "instrumentNumber": 0,
            "instrument": "acoustic grand piano",
            "instrumentFamily": "piano",
            "channelNumber": 0,
            "isPercussion": false
        },
        {
            "startTime": 0,
            "duration": 158.1503760000009,
            "length": 546,
            "notes": [
                {
                    "name": "F#2",
                    "midi": 42,
                    "time": 0,
                    "velocity": 0.30708661417322836,
                    "duration": 0.346821
                },
                {
                    "name": "F3",
                    "midi": 53,
                    "time": 0.346821,
                    "velocity": 0.15748031496062992,
                    "duration": 0.346821
                },
                {
                    "name": "G#3",
                    "midi": 56,
                    "time": 0.693642,
                    "velocity": 0.1968503937007874,
                    "duration": 0.34682099999999993
                },
                {
                    "name": "F#3",
                    "midi": 54,
                    "time": 1.040463,
                    "velocity": 0.16535433070866143,
                    "duration": 0.34682100000000005
                },
                {
                    "name": "A#3",
                    "midi": 58,
                    "time": 1.387284,
                    "velocity": 0.2204724409448819,
                    "duration": 0.34682100000000005
                },
                {
                    "name": "C#3",
                    "midi": 49,
                    "time": 1.734105,
                    "velocity": 0.1968503937007874,
                    "duration": 0.3468209999999998
                },
                {
                    "name": "F#2",
                    "midi": 42,
                    "time": 2.080926,
                    "velocity": 0.30708661417322836,
                    "duration": 0.34682100000000027
                },
                {
                    "name": "F3",
                    "midi": 53,
                    "time": 2.427747,
                    "velocity": 0.1732283464566929,
                    "duration": 0.3468209999999998
                },
                {
                    "name": "G#3",
                    "midi": 56,
                    "time": 2.774568,
                    "velocity": 0.2283464566929134,
                    "duration": 0.3468209999999998
                },
                {
                    "name": "F#3",
                    "midi": 54,
                    "time": 3.1213889999999997,
                    "velocity": 0.18110236220472442,
                    "duration": 0.3468209999999998
                },
                {
                    "name": "A#3",
                    "midi": 58,
                    "time": 3.4682099999999996,
                    "velocity": 0.2440944881889764,
                    "duration": 0.3468209999999998
                },
                {
                    "name": "C#3",
                    "midi": 49,
                    "time": 3.8150309999999994,
                    "velocity": 0.2125984251968504,
                    "duration": 0.34682100000000027
                },
                {
                    "name": "F#2",
                    "midi": 42,
                    "time": 4.161852,
                    "velocity": 0.30708661417322836,
                    "duration": 0.34682100000000027
                },
                {
                    "name": "F3",
                    "midi": 53,
                    "time": 4.508673,
                    "velocity": 0.1968503937007874,
                    "duration": 0.34682100000000027
                },
                {
                    "name": "G#3",
                    "midi": 56,
                    "time": 4.855494,
                    "velocity": 0.2204724409448819,
                    "duration": 0.34682100000000027
                },
                {
                    "name": "F#3",
                    "midi": 54,
                    "time": 5.2023150000000005,
                    "velocity": 0.1968503937007874,
                    "duration": 0.34682100000000027
                },
                {
                    "name": "A#3",
                    "midi": 58,
                    "time": 5.549136000000001,
                    "velocity": 0.25196850393700787,
                    "duration": 0.34682100000000027
                },
                {
                    "name": "C#3",
                    "midi": 49,
                    "time": 5.895957000000001,
                    "velocity": 0.2204724409448819,
                    "duration": 0.34682100000000027
                },
                {
                    "name": "C#2",
                    "midi": 37,
                    "time": 6.242778000000001,
                    "velocity": 0.30708661417322836,
                    "duration": 0.3468209999999994
                },
                {
                    "name": "G3",
                    "midi": 55,
                    "time": 6.589599000000001,
                    "velocity": 0.2283464566929134,
                    "duration": 0.34682100000000027
                },
                {
                    "name": "A#3",
                    "midi": 58,
                    "time": 6.936420000000001,
                    "velocity": 0.25196850393700787,
                    "duration": 0.34682100000000027
                },
                {
                    "name": "G#3",
                    "midi": 56,
                    "time": 7.283241000000001,
                    "velocity": 0.2204724409448819,
                    "duration": 0.34682100000000027
                },
                {
                    "name": "B3",
                    "midi": 59,
                    "time": 7.6300620000000015,
                    "velocity": 0.25196850393700787,
                    "duration": 0.34682100000000027
                },
                {
                    "name": "C#3",
                    "midi": 49,
                    "time": 7.976883000000002,
                    "velocity": 0.2125984251968504,
                    "duration": 0.3468209999999994
                },
                {
                    "name": "F#2",
                    "midi": 42,
                    "time": 8.323704000000001,
                    "velocity": 0.30708661417322836,
                    "duration": 0.3468209999999985
                },
                {
                    "name": "F3",
                    "midi": 53,
                    "time": 8.670525,
                    "velocity": 0.1968503937007874,
                    "duration": 0.34682100000000027
                },
                {
                    "name": "G#3",
                    "midi": 56,
                    "time": 9.017346,
                    "velocity": 0.2204724409448819,
                    "duration": 0.34682100000000027
                },
                {
                    "name": "F#3",
                    "midi": 54,
                    "time": 9.364167,
                    "velocity": 0.2047244094488189,
                    "duration": 0.34682100000000027
                },
                {
                    "name": "A#3",
                    "midi": 58,
                    "time": 9.710988,
                    "velocity": 0.2204724409448819,
                    "duration": 0.34682100000000027
                },
                {
                    "name": "C#3",
                    "midi": 49,
                    "time": 10.057809,
                    "velocity": 0.2125984251968504,
                    "duration": 0.34682100000000027
                },
                {
                    "name": "F#2",
                    "midi": 42,
                    "time": 10.404630000000001,
                    "velocity": 0.31496062992125984,
                    "duration": 0.3468209999999985
                },
                {
                    "name": "F3",
                    "midi": 53,
                    "time": 10.751451,
                    "velocity": 0.25984251968503935,
                    "duration": 0.34682100000000027
                },
                {
                    "name": "G#3",
                    "midi": 56,
                    "time": 11.098272,
                    "velocity": 0.2992125984251969,
                    "duration": 0.34682100000000027
                },
                {
                    "name": "F#3",
                    "midi": 54,
                    "time": 11.445093,
                    "velocity": 0.25984251968503935,
                    "duration": 0.34682100000000027
                },
                {
                    "name": "A#3",
                    "midi": 58,
                    "time": 11.791914,
                    "velocity": 0.2992125984251969,
                    "duration": 0.34682100000000027
                },
                {
                    "name": "C#3",
                    "midi": 49,
                    "time": 12.138735,
                    "velocity": 0.25984251968503935,
                    "duration": 0.34682100000000027
                },
                {
                    "name": "F#2",
                    "midi": 42,
                    "time": 12.485556,
                    "velocity": 0.3464566929133858,
                    "duration": 0.3468209999999985
                },
                {
                    "name": "F3",
                    "midi": 53,
                    "time": 12.832377,
                    "velocity": 0.25984251968503935,
                    "duration": 0.34682100000000027
                },
                {
                    "name": "G#3",
                    "midi": 56,
                    "time": 13.179198,
                    "velocity": 0.29133858267716534,
                    "duration": 0.34682100000000027
                },
                {
                    "name": "F#3",
                    "midi": 54,
                    "time": 13.526019,
                    "velocity": 0.23622047244094488,
                    "duration": 0.34682100000000027
                },
                {
                    "name": "A#3",
                    "midi": 58,
                    "time": 13.87284,
                    "velocity": 0.2992125984251969,
                    "duration": 0.34682100000000027
                },
                {
                    "name": "C#3",
                    "midi": 49,
                    "time": 14.219661,
                    "velocity": 0.25984251968503935,
                    "duration": 0.34682100000000027
                },
                {
                    "name": "C#2",
                    "midi": 37,
                    "time": 14.566482,
                    "velocity": 0.30708661417322836,
                    "duration": 0.3468209999999985
                },
                {
                    "name": "G3",
                    "midi": 55,
                    "time": 14.913302999999999,
                    "velocity": 0.2204724409448819,
                    "duration": 0.34682100000000027
                },
                {
                    "name": "A#3",
                    "midi": 58,
                    "time": 15.260124,
                    "velocity": 0.25984251968503935,
                    "duration": 0.34682100000000027
                },
                {
                    "name": "G#3",
                    "midi": 56,
                    "time": 15.606945,
                    "velocity": 0.2204724409448819,
                    "duration": 0.34682100000000027
                },
                {
                    "name": "B3",
                    "midi": 59,
                    "time": 15.953766,
                    "velocity": 0.25196850393700787,
                    "duration": 0.34682100000000027
                },
                {
                    "name": "C#3",
                    "midi": 49,
                    "time": 16.300587,
                    "velocity": 0.2283464566929134,
                    "duration": 0.3468209999999985
                },
                {
                    "name": "F#2",
                    "midi": 42,
                    "time": 16.647408,
                    "velocity": 0.30708661417322836,
                    "duration": 0.3468209999999985
                },
                {
                    "name": "F3",
                    "midi": 53,
                    "time": 16.994228999999997,
                    "velocity": 0.2047244094488189,
                    "duration": 0.3468209999999985
                },
                {
                    "name": "G#3",
                    "midi": 56,
                    "time": 17.341049999999996,
                    "velocity": 0.2440944881889764,
                    "duration": 0.3468209999999985
                },
                {
                    "name": "F#3",
                    "midi": 54,
                    "time": 17.687870999999994,
                    "velocity": 0.23622047244094488,
                    "duration": 0.3468209999999985
                },
                {
                    "name": "A#3",
                    "midi": 58,
                    "time": 18.034691999999993,
                    "velocity": 0.2755905511811024,
                    "duration": 0.3468209999999985
                },
                {
                    "name": "C#3",
                    "midi": 49,
                    "time": 18.38151299999999,
                    "velocity": 0.25984251968503935,
                    "duration": 0.3468209999999985
                },
                {
                    "name": "F#2",
                    "midi": 42,
                    "time": 18.72833399999999,
                    "velocity": 0.36220472440944884,
                    "duration": 0.3468209999999985
                },
                {
                    "name": "F3",
                    "midi": 53,
                    "time": 19.075154999999988,
                    "velocity": 0.23622047244094488,
                    "duration": 0.3468209999999985
                },
                {
                    "name": "G#3",
                    "midi": 56,
                    "time": 19.421975999999987,
                    "velocity": 0.33858267716535434,
                    "duration": 0.3468209999999985
                },
                {
                    "name": "F#3",
                    "midi": 54,
                    "time": 19.768796999999985,
                    "velocity": 0.29133858267716534,
                    "duration": 0.3468209999999985
                },
                {
                    "name": "A#3",
                    "midi": 58,
                    "time": 20.115617999999984,
                    "velocity": 0.36220472440944884,
                    "duration": 0.3468209999999985
                },
                {
                    "name": "C#3",
                    "midi": 49,
                    "time": 20.462438999999982,
                    "velocity": 0.3228346456692913,
                    "duration": 0.3468209999999985
                },
                {
                    "name": "D#2",
                    "midi": 39,
                    "time": 20.80925999999998,
                    "velocity": 0.41732283464566927,
                    "duration": 0.3468209999999985
                },
                {
                    "name": "A3",
                    "midi": 57,
                    "time": 21.15608099999998,
                    "velocity": 0.30708661417322836,
                    "duration": 0.3468209999999985
                },
                {
                    "name": "C4",
                    "midi": 60,
                    "time": 21.502901999999978,
                    "velocity": 0.36220472440944884,
                    "duration": 0.3468209999999985
                },
                {
                    "name": "A#3",
                    "midi": 58,
                    "time": 21.849722999999976,
                    "velocity": 0.2992125984251969,
                    "duration": 0.3468209999999985
                },
                {
                    "name": "D#4",
                    "midi": 63,
                    "time": 22.196543999999975,
                    "velocity": 0.33858267716535434,
                    "duration": 0.3468209999999985
                },
                {
                    "name": "F#3",
                    "midi": 54,
                    "time": 22.543364999999973,
                    "velocity": 0.2677165354330709,
                    "duration": 0.3468209999999985
                },
                {
                    "name": "G#2",
                    "midi": 44,
                    "time": 22.89018599999997,
                    "velocity": 0.33070866141732286,
                    "duration": 0.3468209999999985
                },
                {
                    "name": "G3",
                    "midi": 55,
                    "time": 23.23700699999997,
                    "velocity": 0.2204724409448819,
                    "duration": 0.3468209999999985
                },
                {
                    "name": "A#3",
                    "midi": 58,
                    "time": 23.58382799999997,
                    "velocity": 0.25984251968503935,
                    "duration": 0.3468209999999985
                },
                {
                    "name": "G#3",
                    "midi": 56,
                    "time": 23.930648999999967,
                    "velocity": 0.2204724409448819,
                    "duration": 0.3468209999999985
                },
                {
                    "name": "C#4",
                    "midi": 61,
                    "time": 24.277469999999965,
                    "velocity": 0.2440944881889764,
                    "duration": 0.3468209999999985
                },
                {
                    "name": "F3",
                    "midi": 53,
                    "time": 24.624290999999964,
                    "velocity": 0.2125984251968504,
                    "duration": 0.26011575000000065
                },
                {
                    "name": "G#2",
                    "midi": 44,
                    "time": 24.971111999999962,
                    "velocity": 0.30708661417322836,
                    "duration": 0.3468209999999985
                },
                {
                    "name": "G3",
                    "midi": 55,
                    "time": 25.31793299999996,
                    "velocity": 0.2047244094488189,
                    "duration": 0.3468209999999985
                },
                {
                    "name": "A#3",
                    "midi": 58,
                    "time": 25.66475399999996,
                    "velocity": 0.2283464566929134,
                    "duration": 0.3468209999999985
                },
                {
                    "name": "G#3",
                    "midi": 56,
                    "time": 26.011574999999958,
                    "velocity": 0.2047244094488189,
                    "duration": 0.3468209999999985
                },
                {
                    "name": "C4",
                    "midi": 60,
                    "time": 26.358395999999956,
                    "velocity": 0.2283464566929134,
                    "duration": 0.3468209999999985
                },
                {
                    "name": "D#3",
                    "midi": 51,
                    "time": 26.705216999999955,
                    "velocity": 0.1968503937007874,
                    "duration": 0.3468209999999985
                },
                {
                    "name": "C#3",
                    "midi": 49,
                    "time": 27.052037999999953,
                    "velocity": 0.28346456692913385,
                    "duration": 0.3468209999999985
                },
                {
                    "name": "G3",
                    "midi": 55,
                    "time": 27.398858999999952,
                    "velocity": 0.2047244094488189,
                    "duration": 0.3468209999999985
                },
                {
                    "name": "A#3",
                    "midi": 58,
                    "time": 27.74567999999995,
                    "velocity": 0.2283464566929134,
                    "duration": 0.3468209999999985
                },
                {
                    "name": "G#3",
                    "midi": 56,
                    "time": 28.09250099999995,
                    "velocity": 0.2047244094488189,
                    "duration": 0.3468209999999985
                },
                {
                    "name": "C#4",
                    "midi": 61,
                    "time": 28.439321999999947,
                    "velocity": 0.2283464566929134,
                    "duration": 0.3468209999999985
                },
                {
                    "name": "F3",
                    "midi": 53,
                    "time": 28.786142999999946,
                    "velocity": 0.1968503937007874,
                    "duration": 0.3468209999999985
                },
                {
                    "name": "G#3",
                    "midi": 56,
                    "time": 29.132963999999944,
                    "velocity": 0.25984251968503935,
                    "duration": 0.34682100000000204
                },
                {
                    "name": "F#3",
                    "midi": 54,
                    "time": 29.479784999999946,
                    "velocity": 0.2047244094488189,
                    "duration": 0.3468209999999985
                },
                {
                    "name": "B3",
                    "midi": 59,
                    "time": 29.826605999999945,
                    "velocity": 0.23622047244094488,
                    "duration": 0.3468209999999985
                },
                {
                    "name": "D#3",
                    "midi": 51,
                    "time": 30.173426999999943,
                    "velocity": 0.2125984251968504,
                    "duration": 0.3468209999999985
                },
                {
                    "name": "F#3",
                    "midi": 54,
                    "time": 30.520247999999942,
                    "velocity": 0.2440944881889764,
                    "duration": 0.34682100000000204
                },
                {
                    "name": "F3",
                    "midi": 53,
                    "time": 30.867068999999944,
                    "velocity": 0.2125984251968504,
                    "duration": 0.3468209999999985
                },
                {
                    "name": "A#3",
                    "midi": 58,
                    "time": 31.213889999999942,
                    "velocity": 0.23622047244094488,
                    "duration": 0.34682100000000204
                },
                {
                    "name": "C#3",
                    "midi": 49,
                    "time": 31.560710999999944,
                    "velocity": 0.2204724409448819,
                    "duration": 0.3468209999999985
                },
                {
                    "name": "A#3",
                    "midi": 58,
                    "time": 31.907531999999943,
                    "velocity": 0.2440944881889764,
                    "duration": 0.34682099999999494
                },
                {
                    "name": "B2",
                    "midi": 47,
                    "time": 32.25435299999994,
                    "velocity": 0.2204724409448819,
                    "duration": 0.3468209999999985
                },
                {
                    "name": "A#3",
                    "midi": 58,
                    "time": 32.601173999999936,
                    "velocity": 0.25984251968503935,
                    "duration": 0.3468209999999985
                },
                {
                    "name": "G#3",
                    "midi": 56,
                    "time": 32.947994999999935,
                    "velocity": 0.2204724409448819,
                    "duration": 0.1734105000000028
                },
                {
                    "name": "F#2",
                    "midi": 42,
                    "time": 33.29481599999994,
                    "velocity": 0.30708661417322836,
                    "duration": 0.3468209999999985
                },
                {
                    "name": "F3",
                    "midi": 53,
                    "time": 33.64163699999994,
                    "velocity": 0.16535433070866143,
                    "duration": 0.3468209999999985
                },
                {
                    "name": "G#3",
                    "midi": 56,
                    "time": 33.98845799999994,
                    "velocity": 0.2125984251968504,
                    "duration": 0.3468209999999985
                },
                {
                    "name": "F#3",
                    "midi": 54,
                    "time": 34.335278999999936,
                    "velocity": 0.2047244094488189,
                    "duration": 0.3468209999999985
                },
                {
                    "name": "A#3",
                    "midi": 58,
                    "time": 34.682099999999934,
                    "velocity": 0.2283464566929134,
                    "duration": 0.3468209999999985
                },
                {
                    "name": "C#3",
                    "midi": 49,
                    "time": 35.02892099999993,
                    "velocity": 0.1968503937007874,
                    "duration": 0.3468209999999985
                },
                {
                    "name": "F#2",
                    "midi": 42,
                    "time": 35.37574199999993,
                    "velocity": 0.30708661417322836,
                    "duration": 0.3468209999999985
                },
                {
                    "name": "F3",
                    "midi": 53,
                    "time": 35.72256299999993,
                    "velocity": 0.18110236220472442,
                    "duration": 0.3468209999999985
                },
                {
                    "name": "G#3",
                    "midi": 56,
                    "time": 36.06938399999993,
                    "velocity": 0.2125984251968504,
                    "duration": 0.3468209999999985
                },
                {
                    "name": "F#3",
                    "midi": 54,
                    "time": 36.41620499999993,
                    "velocity": 0.2047244094488189,
                    "duration": 0.3468209999999985
                },
                {
                    "name": "A#3",
                    "midi": 58,
                    "time": 36.763025999999925,
                    "velocity": 0.2440944881889764,
                    "duration": 0.3468209999999985
                },
                {
                    "name": "C#3",
                    "midi": 49,
                    "time": 37.109846999999924,
                    "velocity": 0.2204724409448819,
                    "duration": 0.3468209999999985
                },
                {
                    "name": "F#2",
                    "midi": 42,
                    "time": 37.45666799999992,
                    "velocity": 0.30708661417322836,
                    "duration": 0.3468209999999985
                },
                {
                    "name": "F3",
                    "midi": 53,
                    "time": 37.80348899999992,
                    "velocity": 0.1968503937007874,
                    "duration": 0.3468209999999985
                },
                {
                    "name": "G#3",
                    "midi": 56,
                    "time": 38.15030999999992,
                    "velocity": 0.2204724409448819,
                    "duration": 0.3468209999999985
                },
                {
                    "name": "F#3",
                    "midi": 54,
                    "time": 38.49713099999992,
                    "velocity": 0.1968503937007874,
                    "duration": 0.3468209999999985
                },
                {
                    "name": "A#3",
                    "midi": 58,
                    "time": 38.843951999999916,
                    "velocity": 0.25984251968503935,
                    "duration": 0.3468209999999985
                },
                {
                    "name": "C#3",
                    "midi": 49,
                    "time": 39.190772999999915,
                    "velocity": 0.2283464566929134,
                    "duration": 0.3468209999999985
                },
                {
                    "name": "C#2",
                    "midi": 37,
                    "time": 39.53759399999991,
                    "velocity": 0.30708661417322836,
                    "duration": 0.3468209999999985
                },
                {
                    "name": "G3",
                    "midi": 55,
                    "time": 39.88441499999991,
                    "velocity": 0.1968503937007874,
                    "duration": 0.3468209999999985
                },
                {
                    "name": "A#3",
                    "midi": 58,
                    "time": 40.23123599999991,
                    "velocity": 0.2204724409448819,
                    "duration": 0.3468209999999985
                },
                {
                    "name": "G#3",
                    "midi": 56,
                    "time": 40.57805699999991,
                    "velocity": 0.1968503937007874,
                    "duration": 0.3468209999999985
                },
                {
                    "name": "B3",
                    "midi": 59,
                    "time": 40.92487799999991,
                    "velocity": 0.2204724409448819,
                    "duration": 0.3468209999999985
                },
                {
                    "name": "C#3",
                    "midi": 49,
                    "time": 41.271698999999906,
                    "velocity": 0.1968503937007874,
                    "duration": 0.3468209999999985
                },
                {
                    "name": "F#2",
                    "midi": 42,
                    "time": 41.618519999999904,
                    "velocity": 0.30708661417322836,
                    "duration": 0.3468209999999985
                },
                {
                    "name": "F3",
                    "midi": 53,
                    "time": 41.9653409999999,
                    "velocity": 0.1968503937007874,
                    "duration": 0.3468209999999985
                },
                {
                    "name": "G#3",
                    "midi": 56,
                    "time": 42.3121619999999,
                    "velocity": 0.2204724409448819,
                    "duration": 0.3468209999999985
                },
                {
                    "name": "F#3",
                    "midi": 54,
                    "time": 42.6589829999999,
                    "velocity": 0.2047244094488189,
                    "duration": 0.3468209999999985
                },
                {
                    "name": "A#3",
                    "midi": 58,
                    "time": 43.0058039999999,
                    "velocity": 0.2204724409448819,
                    "duration": 0.3468209999999985
                },
                {
                    "name": "C#3",
                    "midi": 49,
                    "time": 43.3526249999999,
                    "velocity": 0.2047244094488189,
                    "duration": 0.3468209999999985
                },
                {
                    "name": "F#2",
                    "midi": 42,
                    "time": 43.699445999999895,
                    "velocity": 0.30708661417322836,
                    "duration": 0.3468209999999985
                },
                {
                    "name": "F3",
                    "midi": 53,
                    "time": 44.046266999999894,
                    "velocity": 0.25196850393700787,
                    "duration": 0.3468209999999985
                },
                {
                    "name": "G#3",
                    "midi": 56,
                    "time": 44.39308799999989,
                    "velocity": 0.28346456692913385,
                    "duration": 0.3468209999999985
                },
                {
                    "name": "F#3",
                    "midi": 54,
                    "time": 44.73990899999989,
                    "velocity": 0.23622047244094488,
                    "duration": 0.3468209999999985
                },
                {
                    "name": "A#3",
                    "midi": 58,
                    "time": 45.08672999999989,
                    "velocity": 0.2755905511811024,
                    "duration": 0.3468209999999985
                },
                {
                    "name": "C#3",
                    "midi": 49,
                    "time": 45.43355099999989,
                    "velocity": 0.2440944881889764,
                    "duration": 0.3468209999999985
                },
                {
                    "name": "F#2",
                    "midi": 42,
                    "time": 45.780371999999886,
                    "velocity": 0.30708661417322836,
                    "duration": 0.3468209999999985
                },
                {
                    "name": "F3",
                    "midi": 53,
                    "time": 46.127192999999885,
                    "velocity": 0.25196850393700787,
                    "duration": 0.3468209999999985
                },
                {
                    "name": "G#3",
                    "midi": 56,
                    "time": 46.47401399999988,
                    "velocity": 0.28346456692913385,
                    "duration": 0.3468209999999985
                },
                {
                    "name": "F#3",
                    "midi": 54,
                    "time": 46.82083499999988,
                    "velocity": 0.2440944881889764,
                    "duration": 0.3468209999999985
                },
                {
                    "name": "A#3",
                    "midi": 58,
                    "time": 47.16765599999988,
                    "velocity": 0.28346456692913385,
                    "duration": 0.3468209999999985
                },
                {
                    "name": "C#3",
                    "midi": 49,
                    "time": 47.51447699999988,
                    "velocity": 0.2440944881889764,
                    "duration": 0.3468209999999985
                },
                {
                    "name": "C#2",
                    "midi": 37,
                    "time": 47.86129799999988,
                    "velocity": 0.30708661417322836,
                    "duration": 0.3468209999999985
                },
                {
                    "name": "G3",
                    "midi": 55,
                    "time": 48.208118999999876,
                    "velocity": 0.23622047244094488,
                    "duration": 0.3468209999999985
                },
                {
                    "name": "A#3",
                    "midi": 58,
                    "time": 48.554939999999874,
                    "velocity": 0.2677165354330709,
                    "duration": 0.3468209999999985
                },
                {
                    "name": "G#3",
                    "midi": 56,
                    "time": 48.90176099999987,
                    "velocity": 0.2204724409448819,
                    "duration": 0.3468210000000056
                },
                {
                    "name": "B3",
                    "midi": 59,
                    "time": 49.24858199999988,
                    "velocity": 0.2677165354330709,
                    "duration": 0.3468209999999985
                },
                {
                    "name": "C#3",
                    "midi": 49,
                    "time": 49.59540299999988,
                    "velocity": 0.2440944881889764,
                    "duration": 0.3468209999999985
                },
                {
                    "name": "F#2",
                    "midi": 42,
                    "time": 49.942223999999875,
                    "velocity": 0.30708661417322836,
                    "duration": 0.3468209999999985
                },
                {
                    "name": "F3",
                    "midi": 53,
                    "time": 50.289044999999874,
                    "velocity": 0.2047244094488189,
                    "duration": 0.3468209999999985
                },
                {
                    "name": "G#3",
                    "midi": 56,
                    "time": 50.63586599999987,
                    "velocity": 0.2440944881889764,
                    "duration": 0.3468209999999985
                },
                {
                    "name": "F#3",
                    "midi": 54,
                    "time": 50.98268699999987,
                    "velocity": 0.23622047244094488,
                    "duration": 0.3468209999999985
                },
                {
                    "name": "A#3",
                    "midi": 58,
                    "time": 51.32950799999987,
                    "velocity": 0.2755905511811024,
                    "duration": 0.3468209999999985
                },
                {
                    "name": "C#3",
                    "midi": 49,
                    "time": 51.67632899999987,
                    "velocity": 0.25984251968503935,
                    "duration": 0.3468209999999985
                },
                {
                    "name": "F#2",
                    "midi": 42,
                    "time": 52.023149999999866,
                    "velocity": 0.36220472440944884,
                    "duration": 0.3468209999999985
                },
                {
                    "name": "F3",
                    "midi": 53,
                    "time": 52.369970999999865,
                    "velocity": 0.23622047244094488,
                    "duration": 0.3468209999999985
                },
                {
                    "name": "G#3",
                    "midi": 56,
                    "time": 52.71679199999986,
                    "velocity": 0.31496062992125984,
                    "duration": 0.3468209999999985
                },
                {
                    "name": "F#3",
                    "midi": 54,
                    "time": 53.06361299999986,
                    "velocity": 0.2755905511811024,
                    "duration": 0.3468209999999985
                },
                {
                    "name": "A#3",
                    "midi": 58,
                    "time": 53.41043399999986,
                    "velocity": 0.33070866141732286,
                    "duration": 0.3468209999999985
                },
                {
                    "name": "C#3",
                    "midi": 49,
                    "time": 53.75725499999986,
                    "velocity": 0.29133858267716534,
                    "duration": 0.3468209999999985
                },
                {
                    "name": "F#2",
                    "midi": 42,
                    "time": 54.10407599999986,
                    "velocity": 0.3700787401574803,
                    "duration": 0.3468209999999985
                },
                {
                    "name": "F3",
                    "midi": 53,
                    "time": 54.450896999999856,
                    "velocity": 0.2677165354330709,
                    "duration": 0.3468209999999985
                },
                {
                    "name": "G#3",
                    "midi": 56,
                    "time": 54.797717999999854,
                    "velocity": 0.3543307086614173,
                    "duration": 0.3468209999999985
                },
                {
                    "name": "F#3",
                    "midi": 54,
                    "time": 55.14453899999985,
                    "velocity": 0.29133858267716534,
                    "duration": 0.3468209999999985
                },
                {
                    "name": "A#3",
                    "midi": 58,
                    "time": 55.49135999999985,
                    "velocity": 0.3464566929133858,
                    "duration": 0.3468209999999985
                },
                {
                    "name": "C#3",
                    "midi": 49,
                    "time": 55.83818099999985,
                    "velocity": 0.2283464566929134,
                    "duration": 0.3468209999999985
                },
                {
                    "name": "F#2",
                    "midi": 42,
                    "time": 56.18500199999985,
                    "velocity": 0.4015748031496063,
                    "duration": 0.3468209999999985
                },
                {
                    "name": "F3",
                    "midi": 53,
                    "time": 56.53182299999985,
                    "velocity": 0.2992125984251969,
                    "duration": 0.3468209999999985
                },
                {
                    "name": "G#3",
                    "midi": 56,
                    "time": 56.878643999999845,
                    "velocity": 0.36220472440944884,
                    "duration": 0.3468209999999985
                },
                {
                    "name": "F#3",
                    "midi": 54,
                    "time": 57.22546499999984,
                    "velocity": 0.29133858267716534,
                    "duration": 0.3468209999999985
                },
                {
                    "name": "A#3",
                    "midi": 58,
                    "time": 57.57228599999984,
                    "velocity": 0.3464566929133858,
                    "duration": 0.3468209999999985
                },
                {
                    "name": "C#3",
                    "midi": 49,
                    "time": 57.91910699999984,
                    "velocity": 0.2677165354330709,
                    "duration": 0.3468209999999985
                },
                {
                    "name": "B2",
                    "midi": 47,
                    "time": 58.26592799999984,
                    "velocity": 0.30708661417322836,
                    "duration": 0.3468209999999914
                },
                {
                    "name": "F#3",
                    "midi": 54,
                    "time": 58.61274899999983,
                    "velocity": 0.2283464566929134,
                    "duration": 0.3468209999999985
                },
                {
                    "name": "G#3",
                    "midi": 56,
                    "time": 58.95956999999983,
                    "velocity": 0.2677165354330709,
                    "duration": 0.3468209999999985
                },
                {
                    "name": "G3",
                    "midi": 55,
                    "time": 59.30639099999983,
                    "velocity": 0.2283464566929134,
                    "duration": 0.3468209999999985
                },
                {
                    "name": "A#3",
                    "midi": 58,
                    "time": 59.653211999999826,
                    "velocity": 0.2283464566929134,
                    "duration": 0.3468209999999985
                },
                {
                    "name": "C#3",
                    "midi": 49,
                    "time": 60.000032999999824,
                    "velocity": 0.1968503937007874,
                    "duration": 0.3468209999999985
                },
                {
                    "name": "B2",
                    "midi": 47,
                    "time": 60.34685399999982,
                    "velocity": 0.28346456692913385,
                    "duration": 0.3468209999999985
                },
                {
                    "name": "G3",
                    "midi": 55,
                    "time": 60.69367499999982,
                    "velocity": 0.2047244094488189,
                    "duration": 0.3468209999999985
                },
                {
                    "name": "A#3",
                    "midi": 58,
                    "time": 61.04049599999982,
                    "velocity": 0.2283464566929134,
                    "duration": 0.3468209999999985
                },
                {
                    "name": "G#3",
                    "midi": 56,
                    "time": 61.38731699999982,
                    "velocity": 0.2047244094488189,
                    "duration": 0.3468209999999985
                },
                {
                    "name": "B3",
                    "midi": 59,
                    "time": 61.73413799999982,
                    "velocity": 0.2283464566929134,
                    "duration": 0.3468209999999985
                },
                {
                    "name": "D#3",
                    "midi": 51,
                    "time": 62.080958999999815,
                    "velocity": 0.1968503937007874,
                    "duration": 0.3468209999999985
                },
                {
                    "name": "D#2",
                    "midi": 39,
                    "time": 62.427779999999814,
                    "velocity": 0.3228346456692913,
                    "duration": 0.3468210000000056
                },
                {
                    "name": "D3",
                    "midi": 50,
                    "time": 62.77460099999982,
                    "velocity": 0.23622047244094488,
                    "duration": 0.3468209999999985
                },
                {
                    "name": "E3",
                    "midi": 52,
                    "time": 63.12142199999982,
                    "velocity": 0.2992125984251969,
                    "duration": 0.3468209999999985
                },
                {
                    "name": "D#3",
                    "midi": 51,
                    "time": 63.468242999999816,
                    "velocity": 0.23622047244094488,
                    "duration": 0.3468209999999985
                },
                {
                    "name": "G3",
                    "midi": 55,
                    "time": 63.815063999999815,
                    "velocity": 0.28346456692913385,
                    "duration": 0.3468209999999985
                },
                {
                    "name": "A#2",
                    "midi": 46,
                    "time": 64.16188499999981,
                    "velocity": 0.2283464566929134,
                    "duration": 0.3468210000000056
                },
                {
                    "name": "G#2",
                    "midi": 44,
                    "time": 64.50870599999982,
                    "velocity": 0.2992125984251969,
                    "duration": 0.3468210000000056
                },
                {
                    "name": "D3",
                    "midi": 50,
                    "time": 64.85552699999982,
                    "velocity": 0.25984251968503935,
                    "duration": 0.3468210000000056
                },
                {
                    "name": "E3",
                    "midi": 52,
                    "time": 65.20234799999983,
                    "velocity": 0.29133858267716534,
                    "duration": 0.3468210000000056
                },
                {
                    "name": "D#3",
                    "midi": 51,
                    "time": 65.54916899999984,
                    "velocity": 0.2283464566929134,
                    "duration": 0.3468210000000056
                },
                {
                    "name": "G#3",
                    "midi": 56,
                    "time": 65.89598999999984,
                    "velocity": 0.2677165354330709,
                    "duration": 0.3468210000000056
                },
                {
                    "name": "G#2",
                    "midi": 44,
                    "time": 66.24281099999985,
                    "velocity": 0.2204724409448819,
                    "duration": 0.3468210000000056
                },
                {
                    "name": "C#2",
                    "midi": 37,
                    "time": 66.58963199999985,
                    "velocity": 0.30708661417322836,
                    "duration": 0.3468210000000056
                },
                {
                    "name": "C3",
                    "midi": 48,
                    "time": 66.93645299999986,
                    "velocity": 0.2047244094488189,
                    "duration": 0.3468210000000056
                },
                {
                    "name": "D#3",
                    "midi": 51,
                    "time": 67.28327399999986,
                    "velocity": 0.2283464566929134,
                    "duration": 0.3468210000000056
                },
                {
                    "name": "C#3",
                    "midi": 49,
                    "time": 67.63009499999987,
                    "velocity": 0.2047244094488189,
                    "duration": 0.3468210000000056
                },
                {
                    "name": "F3",
                    "midi": 53,
                    "time": 67.97691599999987,
                    "velocity": 0.2283464566929134,
                    "duration": 0.3468210000000056
                },
                {
                    "name": "G#2",
                    "midi": 44,
                    "time": 68.32373699999988,
                    "velocity": 0.1968503937007874,
                    "duration": 0.3468210000000056
                },
                {
                    "name": "C#2",
                    "midi": 37,
                    "time": 68.67055799999989,
                    "velocity": 0.28346456692913385,
                    "duration": 0.3468210000000056
                },
                {
                    "name": "C3",
                    "midi": 48,
                    "time": 69.01737899999989,
                    "velocity": 0.2047244094488189,
                    "duration": 0.3468210000000056
                },
                {
                    "name": "D#3",
                    "midi": 51,
                    "time": 69.3641999999999,
                    "velocity": 0.2283464566929134,
                    "duration": 0.3468210000000056
                },
                {
                    "name": "C#3",
                    "midi": 49,
                    "time": 69.7110209999999,
                    "velocity": 0.2047244094488189,
                    "duration": 0.3468210000000056
                },
                {
                    "name": "F3",
                    "midi": 53,
                    "time": 70.05784199999991,
                    "velocity": 0.2283464566929134,
                    "duration": 0.3468210000000056
                },
                {
                    "name": "G#2",
                    "midi": 44,
                    "time": 70.40466299999991,
                    "velocity": 0.1968503937007874,
                    "duration": 0.3468210000000056
                },
                {
                    "name": "F#2",
                    "midi": 42,
                    "time": 70.75148399999992,
                    "velocity": 0.28346456692913385,
                    "duration": 0.3468209999999914
                },
                {
                    "name": "C3",
                    "midi": 48,
                    "time": 71.09830499999991,
                    "velocity": 0.2047244094488189,
                    "duration": 0.3468210000000056
                },
                {
                    "name": "D#3",
                    "midi": 51,
                    "time": 71.44512599999992,
                    "velocity": 0.2283464566929134,
                    "duration": 0.3468210000000056
                },
                {
                    "name": "C#3",
                    "midi": 49,
                    "time": 71.79194699999992,
                    "velocity": 0.2047244094488189,
                    "duration": 0.3468210000000056
                },
                {
                    "name": "F#3",
                    "midi": 54,
                    "time": 72.13876799999993,
                    "velocity": 0.2283464566929134,
                    "duration": 0.3468210000000056
                },
                {
                    "name": "F#2",
                    "midi": 42,
                    "time": 72.48558899999993,
                    "velocity": 0.1968503937007874,
                    "duration": 0.3468210000000056
                },
                {
                    "name": "B1",
                    "midi": 35,
                    "time": 72.83240999999994,
                    "velocity": 0.2677165354330709,
                    "duration": 0.3468209999999914
                },
                {
                    "name": "F3",
                    "midi": 53,
                    "time": 73.17923099999993,
                    "velocity": 0.2283464566929134,
                    "duration": 0.3468210000000056
                },
                {
                    "name": "G#3",
                    "midi": 56,
                    "time": 73.52605199999994,
                    "velocity": 0.25984251968503935,
                    "duration": 0.3468210000000056
                },
                {
                    "name": "F#3",
                    "midi": 54,
                    "time": 73.87287299999994,
                    "velocity": 0.2047244094488189,
                    "duration": 0.3468210000000056
                },
                {
                    "name": "B3",
                    "midi": 59,
                    "time": 74.21969399999995,
                    "velocity": 0.2283464566929134,
                    "duration": 0.3468210000000056
                },
                {
                    "name": "B2",
                    "midi": 47,
                    "time": 74.56651499999995,
                    "velocity": 0.1968503937007874,
                    "duration": 0.3468210000000056
                },
                {
                    "name": "C#2",
                    "midi": 37,
                    "time": 74.91333599999996,
                    "velocity": 0.2755905511811024,
                    "duration": 0.3468209999999914
                },
                {
                    "name": "C3",
                    "midi": 48,
                    "time": 75.26015699999995,
                    "velocity": 0.18110236220472442,
                    "duration": 0.3468210000000056
                },
                {
                    "name": "D#3",
                    "midi": 51,
                    "time": 75.60697799999996,
                    "velocity": 0.1968503937007874,
                    "duration": 0.3468210000000056
                },
                {
                    "name": "C#3",
                    "midi": 49,
                    "time": 75.95379899999996,
                    "velocity": 0.1732283464566929,
                    "duration": 0.3468210000000056
                },
                {
                    "name": "F3",
                    "midi": 53,
                    "time": 76.30061999999997,
                    "velocity": 0.1889763779527559,
                    "duration": 0.3468210000000056
                },
                {
                    "name": "G#2",
                    "midi": 44,
                    "time": 76.64744099999997,
                    "velocity": 0.15748031496062992,
                    "duration": 0.3468210000000056
                },
                {
                    "name": "C#2",
                    "midi": 37,
                    "time": 76.99426199999998,
                    "velocity": 0.2283464566929134,
                    "duration": 0.3468210000000056
                },
                {
                    "name": "C3",
                    "midi": 48,
                    "time": 77.34108299999998,
                    "velocity": 0.15748031496062992,
                    "duration": 0.3468210000000056
                },
                {
                    "name": "D#3",
                    "midi": 51,
                    "time": 77.68790399999999,
                    "velocity": 0.18110236220472442,
                    "duration": 0.3468210000000056
                },
                {
                    "name": "C#3",
                    "midi": 49,
                    "time": 78.034725,
                    "velocity": 0.14960629921259844,
                    "duration": 0.3468210000000056
                },
                {
                    "name": "F3",
                    "midi": 53,
                    "time": 78.381546,
                    "velocity": 0.18110236220472442,
                    "duration": 0.3468210000000056
                },
                {
                    "name": "G#2",
                    "midi": 44,
                    "time": 78.728367,
                    "velocity": 0.14173228346456693,
                    "duration": 0.3468210000000056
                },
                {
                    "name": "F#2",
                    "midi": 42,
                    "time": 79.07518800000001,
                    "velocity": 0.2047244094488189,
                    "duration": 0.3468209999999914
                },
                {
                    "name": "C3",
                    "midi": 48,
                    "time": 79.422009,
                    "velocity": 0.14960629921259844,
                    "duration": 0.3468210000000056
                },
                {
                    "name": "D#3",
                    "midi": 51,
                    "time": 79.76883000000001,
                    "velocity": 0.1732283464566929,
                    "duration": 0.3468210000000056
                },
                {
                    "name": "C#3",
                    "midi": 49,
                    "time": 80.11565100000001,
                    "velocity": 0.14960629921259844,
                    "duration": 0.3468210000000056
                },
                {
                    "name": "F#3",
                    "midi": 54,
                    "time": 80.46247200000002,
                    "velocity": 0.1732283464566929,
                    "duration": 0.3468210000000056
                },
                {
                    "name": "C#2",
                    "midi": 37,
                    "time": 80.80929300000003,
                    "velocity": 0.14173228346456693,
                    "duration": 0.3468210000000056
                },
                {
                    "name": "F#2",
                    "midi": 42,
                    "time": 81.15611400000003,
                    "velocity": 0.2047244094488189,
                    "duration": 0.3468210000000056
                },
                {
                    "name": "C3",
                    "midi": 48,
                    "time": 81.50293500000004,
                    "velocity": 0.14960629921259844,
                    "duration": 0.3468210000000056
                },
                {
                    "name": "D#3",
                    "midi": 51,
                    "time": 81.84975600000004,
                    "velocity": 0.1732283464566929,
                    "duration": 0.3468210000000056
                },
                {
                    "name": "C#3",
                    "midi": 49,
                    "time": 82.19657700000005,
                    "velocity": 0.14960629921259844,
                    "duration": 0.3468210000000056
                },
                {
                    "name": "F#3",
                    "midi": 54,
                    "time": 82.54339800000005,
                    "velocity": 0.1732283464566929,
                    "duration": 0.3468210000000056
                },
                {
                    "name": "F2",
                    "midi": 41,
                    "time": 82.89021900000006,
                    "velocity": 0.14173228346456693,
                    "duration": 0.3468210000000056
                },
                {
                    "name": "D#2",
                    "midi": 39,
                    "time": 83.23704000000006,
                    "velocity": 0.2440944881889764,
                    "duration": 0.3468210000000056
                },
                {
                    "name": "D#3",
                    "midi": 51,
                    "time": 83.58386100000007,
                    "velocity": 0.15748031496062992,
                    "duration": 0.32947995000000674
                },
                {
                    "name": "A#3",
                    "midi": 58,
                    "time": 83.58386100000007,
                    "velocity": 0.23622047244094488,
                    "duration": 0.32947995000000674
                },
                {
                    "name": "D#3",
                    "midi": 51,
                    "time": 83.93068200000008,
                    "velocity": 0.1732283464566929,
                    "duration": 0.32947995000000674
                },
                {
                    "name": "A#3",
                    "midi": 58,
                    "time": 83.93068200000008,
                    "velocity": 0.25984251968503935,
                    "duration": 0.32947995000000674
                },
                {
                    "name": "D#3",
                    "midi": 51,
                    "time": 84.27750300000008,
                    "velocity": 0.18110236220472442,
                    "duration": 0.32947995000000674
                },
                {
                    "name": "A#3",
                    "midi": 58,
                    "time": 84.27750300000008,
                    "velocity": 0.28346456692913385,
                    "duration": 0.32947995000000674
                },
                {
                    "name": "D#3",
                    "midi": 51,
                    "time": 84.62432400000009,
                    "velocity": 0.2047244094488189,
                    "duration": 0.32947995000000674
                },
                {
                    "name": "D#4",
                    "midi": 63,
                    "time": 84.62432400000009,
                    "velocity": 0.31496062992125984,
                    "duration": 0.32947995000000674
                },
                {
                    "name": "D#3",
                    "midi": 51,
                    "time": 84.97114500000009,
                    "velocity": 0.18110236220472442,
                    "duration": 0.32947995000000674
                },
                {
                    "name": "A#3",
                    "midi": 58,
                    "time": 84.97114500000009,
                    "velocity": 0.28346456692913385,
                    "duration": 0.32947995000000674
                },
                {
                    "name": "D#3",
                    "midi": 51,
                    "time": 85.3179660000001,
                    "velocity": 0.1889763779527559,
                    "duration": 0.3294799499999925
                },
                {
                    "name": "A#3",
                    "midi": 58,
                    "time": 85.3179660000001,
                    "velocity": 0.29133858267716534,
                    "duration": 0.3294799499999925
                },
                {
                    "name": "D#3",
                    "midi": 51,
                    "time": 85.66478700000009,
                    "velocity": 0.1889763779527559,
                    "duration": 0.32947995000000674
                },
                {
                    "name": "C#4",
                    "midi": 61,
                    "time": 85.66478700000009,
                    "velocity": 0.29133858267716534,
                    "duration": 0.32947995000000674
                },
                {
                    "name": "D#3",
                    "midi": 51,
                    "time": 86.0116080000001,
                    "velocity": 0.18110236220472442,
                    "duration": 0.32947995000000674
                },
                {
                    "name": "C4",
                    "midi": 60,
                    "time": 86.0116080000001,
                    "velocity": 0.28346456692913385,
                    "duration": 0.32947995000000674
                },
                {
                    "name": "D#3",
                    "midi": 51,
                    "time": 86.3584290000001,
                    "velocity": 0.1732283464566929,
                    "duration": 0.32947995000000674
                },
                {
                    "name": "A#3",
                    "midi": 58,
                    "time": 86.3584290000001,
                    "velocity": 0.2677165354330709,
                    "duration": 0.32947995000000674
                },
                {
                    "name": "G#2",
                    "midi": 44,
                    "time": 86.7052500000001,
                    "velocity": 0.1732283464566929,
                    "duration": 0.3294799499999925
                },
                {
                    "name": "A#3",
                    "midi": 58,
                    "time": 86.7052500000001,
                    "velocity": 0.25984251968503935,
                    "duration": 0.3294799499999925
                },
                {
                    "name": "G#2",
                    "midi": 44,
                    "time": 87.0520710000001,
                    "velocity": 0.1732283464566929,
                    "duration": 0.32947995000000674
                },
                {
                    "name": "G#3",
                    "midi": 56,
                    "time": 87.0520710000001,
                    "velocity": 0.25984251968503935,
                    "duration": 0.32947995000000674
                },
                {
                    "name": "C#2",
                    "midi": 37,
                    "time": 87.3988920000001,
                    "velocity": 0.23622047244094488,
                    "duration": 0.3468210000000056
                },
                {
                    "name": "G#3",
                    "midi": 56,
                    "time": 87.74571300000011,
                    "velocity": 0.2125984251968504,
                    "duration": 0.32947995000000674
                },
                {
                    "name": "G#2",
                    "midi": 44,
                    "time": 87.74571300000011,
                    "velocity": 0.2204724409448819,
                    "duration": 0.32947995000000674
                },
                {
                    "name": "C#3",
                    "midi": 49,
                    "time": 88.09253400000011,
                    "velocity": 0.25984251968503935,
                    "duration": 0.32947995000000674
                },
                {
                    "name": "G#3",
                    "midi": 56,
                    "time": 88.09253400000011,
                    "velocity": 0.2440944881889764,
                    "duration": 0.32947995000000674
                },
                {
                    "name": "D#3",
                    "midi": 51,
                    "time": 88.43935500000012,
                    "velocity": 0.2440944881889764,
                    "duration": 0.32947995000000674
                },
                {
                    "name": "G#3",
                    "midi": 56,
                    "time": 88.43935500000012,
                    "velocity": 0.23622047244094488,
                    "duration": 0.32947995000000674
                },
                {
                    "name": "C#3",
                    "midi": 49,
                    "time": 88.78617600000013,
                    "velocity": 0.2204724409448819,
                    "duration": 0.32947995000000674
                },
                {
                    "name": "G#3",
                    "midi": 56,
                    "time": 88.78617600000013,
                    "velocity": 0.2047244094488189,
                    "duration": 0.32947995000000674
                },
                {
                    "name": "G#2",
                    "midi": 44,
                    "time": 89.13299700000013,
                    "velocity": 0.2204724409448819,
                    "duration": 0.32947995000000674
                },
                {
                    "name": "G#3",
                    "midi": 56,
                    "time": 89.13299700000013,
                    "velocity": 0.2047244094488189,
                    "duration": 0.32947995000000674
                },
                {
                    "name": "C#3",
                    "midi": 49,
                    "time": 89.47981800000014,
                    "velocity": 0.2204724409448819,
                    "duration": 0.32947995000000674
                },
                {
                    "name": "G#3",
                    "midi": 56,
                    "time": 89.47981800000014,
                    "velocity": 0.2047244094488189,
                    "duration": 0.32947995000000674
                },
                {
                    "name": "D#3",
                    "midi": 51,
                    "time": 89.82663900000014,
                    "velocity": 0.2204724409448819,
                    "duration": 0.32947995000000674
                },
                {
                    "name": "G#3",
                    "midi": 56,
                    "time": 89.82663900000014,
                    "velocity": 0.2047244094488189,
                    "duration": 0.32947995000000674
                },
                {
                    "name": "C#3",
                    "midi": 49,
                    "time": 90.17346000000015,
                    "velocity": 0.2204724409448819,
                    "duration": 0.3294799499999925
                },
                {
                    "name": "G#3",
                    "midi": 56,
                    "time": 90.17346000000015,
                    "velocity": 0.2047244094488189,
                    "duration": 0.3294799499999925
                },
                {
                    "name": "F#3",
                    "midi": 54,
                    "time": 90.52028100000014,
                    "velocity": 0.2204724409448819,
                    "duration": 0.32947995000000674
                },
                {
                    "name": "G#3",
                    "midi": 56,
                    "time": 90.52028100000014,
                    "velocity": 0.2047244094488189,
                    "duration": 0.32947995000000674
                },
                {
                    "name": "F3",
                    "midi": 53,
                    "time": 90.86710200000014,
                    "velocity": 0.2204724409448819,
                    "duration": 0.32947995000000674
                },
                {
                    "name": "G#3",
                    "midi": 56,
                    "time": 90.86710200000014,
                    "velocity": 0.2047244094488189,
                    "duration": 0.32947995000000674
                },
                {
                    "name": "G#2",
                    "midi": 44,
                    "time": 91.21392300000015,
                    "velocity": 0.2204724409448819,
                    "duration": 0.32947995000000674
                },
                {
                    "name": "G#3",
                    "midi": 56,
                    "time": 91.21392300000015,
                    "velocity": 0.2047244094488189,
                    "duration": 0.32947995000000674
                },
                {
                    "name": "C#2",
                    "midi": 37,
                    "time": 91.56074400000016,
                    "velocity": 0.2440944881889764,
                    "duration": 0.3468210000000056
                },
                {
                    "name": "C#3",
                    "midi": 49,
                    "time": 91.90756500000016,
                    "velocity": 0.15748031496062992,
                    "duration": 0.32947995000000674
                },
                {
                    "name": "G#3",
                    "midi": 56,
                    "time": 91.90756500000016,
                    "velocity": 0.23622047244094488,
                    "duration": 0.32947995000000674
                },
                {
                    "name": "C#3",
                    "midi": 49,
                    "time": 92.25438600000017,
                    "velocity": 0.1732283464566929,
                    "duration": 0.32947995000000674
                },
                {
                    "name": "G#3",
                    "midi": 56,
                    "time": 92.25438600000017,
                    "velocity": 0.25984251968503935,
                    "duration": 0.32947995000000674
                },
                {
                    "name": "C#3",
                    "midi": 49,
                    "time": 92.60120700000017,
                    "velocity": 0.18110236220472442,
                    "duration": 0.32947995000000674
                },
                {
                    "name": "G#3",
                    "midi": 56,
                    "time": 92.60120700000017,
                    "velocity": 0.28346456692913385,
                    "duration": 0.32947995000000674
                },
                {
                    "name": "C#3",
                    "midi": 49,
                    "time": 92.94802800000018,
                    "velocity": 0.2047244094488189,
                    "duration": 0.32947995000000674
                },
                {
                    "name": "C#4",
                    "midi": 61,
                    "time": 92.94802800000018,
                    "velocity": 0.31496062992125984,
                    "duration": 0.32947995000000674
                },
                {
                    "name": "C#3",
                    "midi": 49,
                    "time": 93.29484900000018,
                    "velocity": 0.18110236220472442,
                    "duration": 0.32947995000000674
                },
                {
                    "name": "G#3",
                    "midi": 56,
                    "time": 93.29484900000018,
                    "velocity": 0.28346456692913385,
                    "duration": 0.32947995000000674
                },
                {
                    "name": "C#3",
                    "midi": 49,
                    "time": 93.64167000000019,
                    "velocity": 0.1889763779527559,
                    "duration": 0.32947995000000674
                },
                {
                    "name": "G#3",
                    "midi": 56,
                    "time": 93.64167000000019,
                    "velocity": 0.29133858267716534,
                    "duration": 0.32947995000000674
                },
                {
                    "name": "C#3",
                    "midi": 49,
                    "time": 93.9884910000002,
                    "velocity": 0.1889763779527559,
                    "duration": 0.32947995000000674
                },
                {
                    "name": "B3",
                    "midi": 59,
                    "time": 93.9884910000002,
                    "velocity": 0.29133858267716534,
                    "duration": 0.32947995000000674
                },
                {
                    "name": "C#3",
                    "midi": 49,
                    "time": 94.3353120000002,
                    "velocity": 0.18110236220472442,
                    "duration": 0.3294799499999925
                },
                {
                    "name": "A#3",
                    "midi": 58,
                    "time": 94.3353120000002,
                    "velocity": 0.28346456692913385,
                    "duration": 0.3294799499999925
                },
                {
                    "name": "C#3",
                    "midi": 49,
                    "time": 94.68213300000019,
                    "velocity": 0.1732283464566929,
                    "duration": 0.32947995000000674
                },
                {
                    "name": "G#3",
                    "midi": 56,
                    "time": 94.68213300000019,
                    "velocity": 0.2677165354330709,
                    "duration": 0.32947995000000674
                },
                {
                    "name": "F#2",
                    "midi": 42,
                    "time": 95.0289540000002,
                    "velocity": 0.1732283464566929,
                    "duration": 0.32947995000000674
                },
                {
                    "name": "G#3",
                    "midi": 56,
                    "time": 95.0289540000002,
                    "velocity": 0.25984251968503935,
                    "duration": 0.32947995000000674
                },
                {
                    "name": "F#2",
                    "midi": 42,
                    "time": 95.3757750000002,
                    "velocity": 0.1732283464566929,
                    "duration": 0.32947995000000674
                },
                {
                    "name": "F#3",
                    "midi": 54,
                    "time": 95.3757750000002,
                    "velocity": 0.25984251968503935,
                    "duration": 0.32947995000000674
                },
                {
                    "name": "B1",
                    "midi": 35,
                    "time": 95.72259600000021,
                    "velocity": 0.23622047244094488,
                    "duration": 0.3468209999999914
                },
                {
                    "name": "F#3",
                    "midi": 54,
                    "time": 96.0694170000002,
                    "velocity": 0.2125984251968504,
                    "duration": 0.32947995000000674
                },
                {
                    "name": "F#2",
                    "midi": 42,
                    "time": 96.0694170000002,
                    "velocity": 0.2204724409448819,
                    "duration": 0.32947995000000674
                },
                {
                    "name": "B2",
                    "midi": 47,
                    "time": 96.4162380000002,
                    "velocity": 0.25984251968503935,
                    "duration": 0.32947995000000674
                },
                {
                    "name": "F#3",
                    "midi": 54,
                    "time": 96.4162380000002,
                    "velocity": 0.2440944881889764,
                    "duration": 0.32947995000000674
                },
                {
                    "name": "C#3",
                    "midi": 49,
                    "time": 96.76305900000021,
                    "velocity": 0.2440944881889764,
                    "duration": 0.32947995000000674
                },
                {
                    "name": "F#3",
                    "midi": 54,
                    "time": 96.76305900000021,
                    "velocity": 0.23622047244094488,
                    "duration": 0.32947995000000674
                },
                {
                    "name": "B2",
                    "midi": 47,
                    "time": 97.10988000000022,
                    "velocity": 0.2204724409448819,
                    "duration": 0.32947995000000674
                },
                {
                    "name": "F#3",
                    "midi": 54,
                    "time": 97.10988000000022,
                    "velocity": 0.2047244094488189,
                    "duration": 0.32947995000000674
                },
                {
                    "name": "F#2",
                    "midi": 42,
                    "time": 97.45670100000022,
                    "velocity": 0.2204724409448819,
                    "duration": 0.32947995000000674
                },
                {
                    "name": "F#3",
                    "midi": 54,
                    "time": 97.45670100000022,
                    "velocity": 0.2047244094488189,
                    "duration": 0.32947995000000674
                },
                {
                    "name": "B2",
                    "midi": 47,
                    "time": 97.80352200000023,
                    "velocity": 0.2204724409448819,
                    "duration": 0.32947995000000674
                },
                {
                    "name": "F#3",
                    "midi": 54,
                    "time": 97.80352200000023,
                    "velocity": 0.2047244094488189,
                    "duration": 0.32947995000000674
                },
                {
                    "name": "C#3",
                    "midi": 49,
                    "time": 98.15034300000023,
                    "velocity": 0.2204724409448819,
                    "duration": 0.32947995000000674
                },
                {
                    "name": "F#3",
                    "midi": 54,
                    "time": 98.15034300000023,
                    "velocity": 0.2047244094488189,
                    "duration": 0.32947995000000674
                },
                {
                    "name": "B2",
                    "midi": 47,
                    "time": 98.49716400000024,
                    "velocity": 0.2204724409448819,
                    "duration": 0.32947995000000674
                },
                {
                    "name": "F#3",
                    "midi": 54,
                    "time": 98.49716400000024,
                    "velocity": 0.2047244094488189,
                    "duration": 0.32947995000000674
                },
                {
                    "name": "F#2",
                    "midi": 42,
                    "time": 98.84398500000025,
                    "velocity": 0.2204724409448819,
                    "duration": 0.32947995000000674
                },
                {
                    "name": "F#3",
                    "midi": 54,
                    "time": 98.84398500000025,
                    "velocity": 0.2047244094488189,
                    "duration": 0.32947995000000674
                },
                {
                    "name": "B2",
                    "midi": 47,
                    "time": 99.19080600000025,
                    "velocity": 0.2204724409448819,
                    "duration": 0.32947995000000674
                },
                {
                    "name": "F#3",
                    "midi": 54,
                    "time": 99.19080600000025,
                    "velocity": 0.2047244094488189,
                    "duration": 0.32947995000000674
                },
                {
                    "name": "C#3",
                    "midi": 49,
                    "time": 99.53762700000026,
                    "velocity": 0.2204724409448819,
                    "duration": 0.32947995000000674
                },
                {
                    "name": "F#3",
                    "midi": 54,
                    "time": 99.53762700000026,
                    "velocity": 0.2047244094488189,
                    "duration": 0.32947995000000674
                },
                {
                    "name": "D#3",
                    "midi": 51,
                    "time": 99.88444800000026,
                    "velocity": 0.1732283464566929,
                    "duration": 0.32947995000000674
                },
                {
                    "name": "F#3",
                    "midi": 54,
                    "time": 99.88444800000026,
                    "velocity": 0.23622047244094488,
                    "duration": 0.32947995000000674
                },
                {
                    "name": "F#3",
                    "midi": 54,
                    "time": 100.23126900000027,
                    "velocity": 0.2125984251968504,
                    "duration": 0.32947995000000674
                },
                {
                    "name": "D#3",
                    "midi": 51,
                    "time": 100.23126900000027,
                    "velocity": 0.1732283464566929,
                    "duration": 0.32947995000000674
                },
                {
                    "name": "D#3",
                    "midi": 51,
                    "time": 100.57809000000027,
                    "velocity": 0.2047244094488189,
                    "duration": 0.32947995000000674
                },
                {
                    "name": "F#3",
                    "midi": 54,
                    "time": 100.57809000000027,
                    "velocity": 0.2440944881889764,
                    "duration": 0.32947995000000674
                },
                {
                    "name": "D#3",
                    "midi": 51,
                    "time": 100.92491100000028,
                    "velocity": 0.1968503937007874,
                    "duration": 0.32947995000000674
                },
                {
                    "name": "F#3",
                    "midi": 54,
                    "time": 100.92491100000028,
                    "velocity": 0.23622047244094488,
                    "duration": 0.32947995000000674
                },
                {
                    "name": "C#3",
                    "midi": 49,
                    "time": 101.27173200000028,
                    "velocity": 0.1732283464566929,
                    "duration": 0.32947995000000674
                },
                {
                    "name": "F#3",
                    "midi": 54,
                    "time": 101.27173200000028,
                    "velocity": 0.2047244094488189,
                    "duration": 0.32947995000000674
                },
                {
                    "name": "C#3",
                    "midi": 49,
                    "time": 101.61855300000029,
                    "velocity": 0.1732283464566929,
                    "duration": 0.32947995000000674
                },
                {
                    "name": "F#3",
                    "midi": 54,
                    "time": 101.61855300000029,
                    "velocity": 0.2047244094488189,
                    "duration": 0.32947995000000674
                },
                {
                    "name": "B2",
                    "midi": 47,
                    "time": 101.9653740000003,
                    "velocity": 0.1732283464566929,
                    "duration": 0.32947995000000674
                },
                {
                    "name": "F#3",
                    "midi": 54,
                    "time": 101.9653740000003,
                    "velocity": 0.23622047244094488,
                    "duration": 0.32947995000000674
                },
                {
                    "name": "F#3",
                    "midi": 54,
                    "time": 102.3121950000003,
                    "velocity": 0.2125984251968504,
                    "duration": 0.32947995000000674
                },
                {
                    "name": "B2",
                    "midi": 47,
                    "time": 102.3121950000003,
                    "velocity": 0.1732283464566929,
                    "duration": 0.32947995000000674
                },
                {
                    "name": "B2",
                    "midi": 47,
                    "time": 102.6590160000003,
                    "velocity": 0.2047244094488189,
                    "duration": 0.32947995000000674
                },
                {
                    "name": "F#3",
                    "midi": 54,
                    "time": 102.6590160000003,
                    "velocity": 0.2440944881889764,
                    "duration": 0.32947995000000674
                },
                {
                    "name": "B2",
                    "midi": 47,
                    "time": 103.00583700000031,
                    "velocity": 0.1968503937007874,
                    "duration": 0.32947995000000674
                },
                {
                    "name": "F#3",
                    "midi": 54,
                    "time": 103.00583700000031,
                    "velocity": 0.23622047244094488,
                    "duration": 0.32947995000000674
                },
                {
                    "name": "C#3",
                    "midi": 49,
                    "time": 103.35265800000032,
                    "velocity": 0.1732283464566929,
                    "duration": 0.3294799499999925
                },
                {
                    "name": "F#3",
                    "midi": 54,
                    "time": 103.35265800000032,
                    "velocity": 0.2047244094488189,
                    "duration": 0.3294799499999925
                },
                {
                    "name": "C#3",
                    "midi": 49,
                    "time": 103.69947900000031,
                    "velocity": 0.1732283464566929,
                    "duration": 0.32947995000000674
                },
                {
                    "name": "F#3",
                    "midi": 54,
                    "time": 103.69947900000031,
                    "velocity": 0.2047244094488189,
                    "duration": 0.32947995000000674
                },
                {
                    "name": "D#3",
                    "midi": 51,
                    "time": 104.04630000000031,
                    "velocity": 0.1732283464566929,
                    "duration": 0.32947995000000674
                },
                {
                    "name": "F#3",
                    "midi": 54,
                    "time": 104.04630000000031,
                    "velocity": 0.23622047244094488,
                    "duration": 0.32947995000000674
                },
                {
                    "name": "F#3",
                    "midi": 54,
                    "time": 104.39312100000032,
                    "velocity": 0.2125984251968504,
                    "duration": 0.32947995000000674
                },
                {
                    "name": "D#3",
                    "midi": 51,
                    "time": 104.39312100000032,
                    "velocity": 0.1732283464566929,
                    "duration": 0.32947995000000674
                },
                {
                    "name": "B2",
                    "midi": 47,
                    "time": 104.73994200000033,
                    "velocity": 0.2047244094488189,
                    "duration": 0.32947995000000674
                },
                {
                    "name": "F#3",
                    "midi": 54,
                    "time": 104.73994200000033,
                    "velocity": 0.2440944881889764,
                    "duration": 0.32947995000000674
                },
                {
                    "name": "B2",
                    "midi": 47,
                    "time": 105.08676300000033,
                    "velocity": 0.1968503937007874,
                    "duration": 0.32947995000000674
                },
                {
                    "name": "F#3",
                    "midi": 54,
                    "time": 105.08676300000033,
                    "velocity": 0.23622047244094488,
                    "duration": 0.32947995000000674
                },
                {
                    "name": "B2",
                    "midi": 47,
                    "time": 105.43358400000034,
                    "velocity": 0.2283464566929134,
                    "duration": 0.32947995000000674
                },
                {
                    "name": "G#3",
                    "midi": 56,
                    "time": 105.43358400000034,
                    "velocity": 0.2755905511811024,
                    "duration": 0.32947995000000674
                },
                {
                    "name": "B2",
                    "midi": 47,
                    "time": 105.78040500000034,
                    "velocity": 0.1889763779527559,
                    "duration": 0.32947995000000674
                },
                {
                    "name": "G#3",
                    "midi": 56,
                    "time": 105.78040500000034,
                    "velocity": 0.2283464566929134,
                    "duration": 0.32947995000000674
                },
                {
                    "name": "B2",
                    "midi": 47,
                    "time": 106.12722600000035,
                    "velocity": 0.1732283464566929,
                    "duration": 0.32947995000000674
                },
                {
                    "name": "G#3",
                    "midi": 56,
                    "time": 106.12722600000035,
                    "velocity": 0.23622047244094488,
                    "duration": 0.32947995000000674
                },
                {
                    "name": "F#3",
                    "midi": 54,
                    "time": 106.47404700000035,
                    "velocity": 0.2125984251968504,
                    "duration": 0.32947995000000674
                },
                {
                    "name": "B2",
                    "midi": 47,
                    "time": 106.47404700000035,
                    "velocity": 0.1732283464566929,
                    "duration": 0.32947995000000674
                },
                {
                    "name": "B2",
                    "midi": 47,
                    "time": 106.82086800000036,
                    "velocity": 0.2047244094488189,
                    "duration": 0.3294799499999925
                },
                {
                    "name": "G#3",
                    "midi": 56,
                    "time": 106.82086800000036,
                    "velocity": 0.2440944881889764,
                    "duration": 0.3294799499999925
                },
                {
                    "name": "B2",
                    "midi": 47,
                    "time": 107.16768900000035,
                    "velocity": 0.2125984251968504,
                    "duration": 0.32947995000000674
                },
                {
                    "name": "F#3",
                    "midi": 54,
                    "time": 107.16768900000035,
                    "velocity": 0.25196850393700787,
                    "duration": 0.32947995000000674
                },
                {
                    "name": "A#2",
                    "midi": 46,
                    "time": 107.51451000000036,
                    "velocity": 0.2204724409448819,
                    "duration": 0.32947995000000674
                },
                {
                    "name": "F#3",
                    "midi": 54,
                    "time": 107.51451000000036,
                    "velocity": 0.2677165354330709,
                    "duration": 0.32947995000000674
                },
                {
                    "name": "C#3",
                    "midi": 49,
                    "time": 107.86133100000036,
                    "velocity": 0.2283464566929134,
                    "duration": 0.32947995000000674
                },
                {
                    "name": "F#3",
                    "midi": 54,
                    "time": 107.86133100000036,
                    "velocity": 0.2755905511811024,
                    "duration": 0.32947995000000674
                },
                {
                    "name": "D#3",
                    "midi": 51,
                    "time": 108.20815200000037,
                    "velocity": 0.1732283464566929,
                    "duration": 0.3294799499999925
                },
                {
                    "name": "F#3",
                    "midi": 54,
                    "time": 108.20815200000037,
                    "velocity": 0.23622047244094488,
                    "duration": 0.3294799499999925
                },
                {
                    "name": "F#3",
                    "midi": 54,
                    "time": 108.55497300000036,
                    "velocity": 0.2125984251968504,
                    "duration": 0.32947995000000674
                },
                {
                    "name": "D#3",
                    "midi": 51,
                    "time": 108.55497300000036,
                    "velocity": 0.1732283464566929,
                    "duration": 0.32947995000000674
                },
                {
                    "name": "D#3",
                    "midi": 51,
                    "time": 108.90179400000036,
                    "velocity": 0.2047244094488189,
                    "duration": 0.32947995000000674
                },
                {
                    "name": "A#3",
                    "midi": 58,
                    "time": 108.90179400000036,
                    "velocity": 0.2440944881889764,
                    "duration": 0.32947995000000674
                },
                {
                    "name": "D#3",
                    "midi": 51,
                    "time": 109.24861500000037,
                    "velocity": 0.1968503937007874,
                    "duration": 0.32947995000000674
                },
                {
                    "name": "A#3",
                    "midi": 58,
                    "time": 109.24861500000037,
                    "velocity": 0.23622047244094488,
                    "duration": 0.32947995000000674
                },
                {
                    "name": "G#2",
                    "midi": 44,
                    "time": 109.59543600000038,
                    "velocity": 0.1889763779527559,
                    "duration": 0.3294799499999925
                },
                {
                    "name": "D#3",
                    "midi": 51,
                    "time": 109.59543600000038,
                    "velocity": 0.2283464566929134,
                    "duration": 0.3294799499999925
                },
                {
                    "name": "G#3",
                    "midi": 56,
                    "time": 109.59543600000038,
                    "velocity": 0.2755905511811024,
                    "duration": 0.3294799499999925
                },
                {
                    "name": "G#2",
                    "midi": 44,
                    "time": 109.94225700000037,
                    "velocity": 0.1889763779527559,
                    "duration": 0.32947995000000674
                },
                {
                    "name": "D#3",
                    "midi": 51,
                    "time": 109.94225700000037,
                    "velocity": 0.1889763779527559,
                    "duration": 0.32947995000000674
                },
                {
                    "name": "G#3",
                    "midi": 56,
                    "time": 109.94225700000037,
                    "velocity": 0.2283464566929134,
                    "duration": 0.32947995000000674
                },
                {
                    "name": "C#3",
                    "midi": 49,
                    "time": 110.28907800000037,
                    "velocity": 0.25984251968503935,
                    "duration": 0.3294799499999925
                },
                {
                    "name": "G#3",
                    "midi": 56,
                    "time": 110.28907800000037,
                    "velocity": 0.30708661417322836,
                    "duration": 0.3294799499999925
                },
                {
                    "name": "G#3",
                    "midi": 56,
                    "time": 110.63589900000036,
                    "velocity": 0.2677165354330709,
                    "duration": 0.32947995000000674
                },
                {
                    "name": "C#3",
                    "midi": 49,
                    "time": 110.63589900000036,
                    "velocity": 0.2204724409448819,
                    "duration": 0.32947995000000674
                },
                {
                    "name": "C#3",
                    "midi": 49,
                    "time": 110.98272000000037,
                    "velocity": 0.2440944881889764,
                    "duration": 0.3294799499999925
                },
                {
                    "name": "G#3",
                    "midi": 56,
                    "time": 110.98272000000037,
                    "velocity": 0.29133858267716534,
                    "duration": 0.3294799499999925
                },
                {
                    "name": "C#3",
                    "midi": 49,
                    "time": 111.32954100000036,
                    "velocity": 0.2125984251968504,
                    "duration": 0.32947995000000674
                },
                {
                    "name": "G#3",
                    "midi": 56,
                    "time": 111.32954100000036,
                    "velocity": 0.25196850393700787,
                    "duration": 0.32947995000000674
                },
                {
                    "name": "C#3",
                    "midi": 49,
                    "time": 111.67636200000037,
                    "velocity": 0.23622047244094488,
                    "duration": 0.3294799499999925
                },
                {
                    "name": "G#3",
                    "midi": 56,
                    "time": 111.67636200000037,
                    "velocity": 0.28346456692913385,
                    "duration": 0.3294799499999925
                },
                {
                    "name": "C#3",
                    "midi": 49,
                    "time": 112.02318300000036,
                    "velocity": 0.2125984251968504,
                    "duration": 0.32947995000000674
                },
                {
                    "name": "G#3",
                    "midi": 56,
                    "time": 112.02318300000036,
                    "velocity": 0.25196850393700787,
                    "duration": 0.32947995000000674
                },
                {
                    "name": "C#3",
                    "midi": 49,
                    "time": 112.37000400000036,
                    "velocity": 0.1732283464566929,
                    "duration": 0.3294799499999925
                },
                {
                    "name": "G#3",
                    "midi": 56,
                    "time": 112.37000400000036,
                    "velocity": 0.23622047244094488,
                    "duration": 0.3294799499999925
                },
                {
                    "name": "C#3",
                    "midi": 49,
                    "time": 112.71682500000036,
                    "velocity": 0.2125984251968504,
                    "duration": 0.32947995000000674
                },
                {
                    "name": "F#2",
                    "midi": 42,
                    "time": 112.71682500000036,
                    "velocity": 0.14960629921259844,
                    "duration": 0.32947995000000674
                },
                {
                    "name": "F#2",
                    "midi": 42,
                    "time": 113.06364600000036,
                    "velocity": 0.18110236220472442,
                    "duration": 0.3294799499999925
                },
                {
                    "name": "C#3",
                    "midi": 49,
                    "time": 113.06364600000036,
                    "velocity": 0.2440944881889764,
                    "duration": 0.3294799499999925
                },
                {
                    "name": "F#2",
                    "midi": 42,
                    "time": 113.41046700000035,
                    "velocity": 0.1732283464566929,
                    "duration": 0.32947995000000674
                },
                {
                    "name": "C#3",
                    "midi": 49,
                    "time": 113.41046700000035,
                    "velocity": 0.23622047244094488,
                    "duration": 0.32947995000000674
                },
                {
                    "name": "F#2",
                    "midi": 42,
                    "time": 113.75728800000036,
                    "velocity": 0.16535433070866143,
                    "duration": 0.32947995000000674
                },
                {
                    "name": "C#3",
                    "midi": 49,
                    "time": 113.75728800000036,
                    "velocity": 0.2755905511811024,
                    "duration": 0.32947995000000674
                },
                {
                    "name": "F#2",
                    "midi": 42,
                    "time": 114.10410900000036,
                    "velocity": 0.16535433070866143,
                    "duration": 0.32947995000000674
                },
                {
                    "name": "F3",
                    "midi": 53,
                    "time": 114.10410900000036,
                    "velocity": 0.2283464566929134,
                    "duration": 0.32947995000000674
                },
                {
                    "name": "F#2",
                    "midi": 42,
                    "time": 114.45093000000037,
                    "velocity": 0.2677165354330709,
                    "duration": 0.32947995000000674
                },
                {
                    "name": "F#3",
                    "midi": 54,
                    "time": 114.45093000000037,
                    "velocity": 0.2677165354330709,
                    "duration": 0.32947995000000674
                },
                {
                    "name": "F2",
                    "midi": 41,
                    "time": 114.79775100000037,
                    "velocity": 0.2283464566929134,
                    "duration": 0.3468210000000056
                },
                {
                    "name": "G#2",
                    "midi": 44,
                    "time": 115.14457200000038,
                    "velocity": 0.25196850393700787,
                    "duration": 0.3468210000000056
                },
                {
                    "name": "F#2",
                    "midi": 42,
                    "time": 115.49139300000039,
                    "velocity": 0.2283464566929134,
                    "duration": 0.3468210000000056
                },
                {
                    "name": "A#2",
                    "midi": 46,
                    "time": 115.83821400000039,
                    "velocity": 0.25196850393700787,
                    "duration": 0.3468210000000056
                },
                {
                    "name": "C#2",
                    "midi": 37,
                    "time": 116.1850350000004,
                    "velocity": 0.2283464566929134,
                    "duration": 0.3468210000000056
                },
                {
                    "name": "F#1",
                    "midi": 30,
                    "time": 116.5318560000004,
                    "velocity": 0.30708661417322836,
                    "duration": 0.3468210000000056
                },
                {
                    "name": "F3",
                    "midi": 53,
                    "time": 116.87867700000041,
                    "velocity": 0.2047244094488189,
                    "duration": 0.3468210000000056
                },
                {
                    "name": "G#3",
                    "midi": 56,
                    "time": 117.22549800000041,
                    "velocity": 0.2440944881889764,
                    "duration": 0.3468210000000056
                },
                {
                    "name": "F#3",
                    "midi": 54,
                    "time": 117.57231900000042,
                    "velocity": 0.23622047244094488,
                    "duration": 0.3468210000000056
                },
                {
                    "name": "A#3",
                    "midi": 58,
                    "time": 117.91914000000043,
                    "velocity": 0.2755905511811024,
                    "duration": 0.3468210000000056
                },
                {
                    "name": "C#3",
                    "midi": 49,
                    "time": 118.26596100000043,
                    "velocity": 0.25984251968503935,
                    "duration": 0.3468210000000056
                },
                {
                    "name": "F#2",
                    "midi": 42,
                    "time": 118.61278200000044,
                    "velocity": 0.36220472440944884,
                    "duration": 0.3468210000000056
                },
                {
                    "name": "F3",
                    "midi": 53,
                    "time": 118.95960300000044,
                    "velocity": 0.23622047244094488,
                    "duration": 0.3468210000000056
                },
                {
                    "name": "G#3",
                    "midi": 56,
                    "time": 119.30642400000045,
                    "velocity": 0.31496062992125984,
                    "duration": 0.3468210000000056
                },
                {
                    "name": "F#3",
                    "midi": 54,
                    "time": 119.65324500000045,
                    "velocity": 0.2755905511811024,
                    "duration": 0.3468210000000056
                },
                {
                    "name": "A#3",
                    "midi": 58,
                    "time": 120.00006600000046,
                    "velocity": 0.33070866141732286,
                    "duration": 0.3468210000000056
                },
                {
                    "name": "C#3",
                    "midi": 49,
                    "time": 120.34688700000046,
                    "velocity": 0.29133858267716534,
                    "duration": 0.3468210000000056
                },
                {
                    "name": "F#2",
                    "midi": 42,
                    "time": 120.69370800000047,
                    "velocity": 0.3700787401574803,
                    "duration": 0.3468210000000056
                },
                {
                    "name": "F3",
                    "midi": 53,
                    "time": 121.04052900000048,
                    "velocity": 0.2677165354330709,
                    "duration": 0.3468210000000056
                },
                {
                    "name": "G#3",
                    "midi": 56,
                    "time": 121.38735000000048,
                    "velocity": 0.3543307086614173,
                    "duration": 0.3468210000000056
                },
                {
                    "name": "F#3",
                    "midi": 54,
                    "time": 121.73417100000049,
                    "velocity": 0.29133858267716534,
                    "duration": 0.3468210000000056
                },
                {
                    "name": "A#3",
                    "midi": 58,
                    "time": 122.08099200000049,
                    "velocity": 0.3464566929133858,
                    "duration": 0.3468210000000056
                },
                {
                    "name": "C#3",
                    "midi": 49,
                    "time": 122.4278130000005,
                    "velocity": 0.2283464566929134,
                    "duration": 0.3468210000000056
                },
                {
                    "name": "F#2",
                    "midi": 42,
                    "time": 122.7746340000005,
                    "velocity": 0.3779527559055118,
                    "duration": 0.3468210000000056
                },
                {
                    "name": "F3",
                    "midi": 53,
                    "time": 123.12145500000051,
                    "velocity": 0.25984251968503935,
                    "duration": 0.3468210000000056
                },
                {
                    "name": "G#3",
                    "midi": 56,
                    "time": 123.46827600000051,
                    "velocity": 0.30708661417322836,
                    "duration": 0.3468210000000056
                },
                {
                    "name": "F#3",
                    "midi": 54,
                    "time": 123.81509700000052,
                    "velocity": 0.2677165354330709,
                    "duration": 0.3468210000000056
                },
                {
                    "name": "A#3",
                    "midi": 58,
                    "time": 124.16191800000053,
                    "velocity": 0.2992125984251969,
                    "duration": 0.3468210000000056
                },
                {
                    "name": "C#3",
                    "midi": 49,
                    "time": 124.50873900000053,
                    "velocity": 0.2677165354330709,
                    "duration": 0.3468210000000056
                },
                {
                    "name": "B2",
                    "midi": 47,
                    "time": 124.85556000000054,
                    "velocity": 0.3464566929133858,
                    "duration": 0.3468210000000056
                },
                {
                    "name": "F3",
                    "midi": 53,
                    "time": 125.20238100000054,
                    "velocity": 0.2283464566929134,
                    "duration": 0.3468210000000056
                },
                {
                    "name": "G#3",
                    "midi": 56,
                    "time": 125.54920200000055,
                    "velocity": 0.25984251968503935,
                    "duration": 0.3468210000000056
                },
                {
                    "name": "F#3",
                    "midi": 54,
                    "time": 125.89602300000055,
                    "velocity": 0.2283464566929134,
                    "duration": 0.3468210000000056
                },
                {
                    "name": "A#3",
                    "midi": 58,
                    "time": 126.24284400000056,
                    "velocity": 0.25196850393700787,
                    "duration": 0.3468210000000056
                },
                {
                    "name": "C#3",
                    "midi": 49,
                    "time": 126.58966500000056,
                    "velocity": 0.2125984251968504,
                    "duration": 0.3468210000000056
                },
                {
                    "name": "B2",
                    "midi": 47,
                    "time": 126.93648600000057,
                    "velocity": 0.30708661417322836,
                    "duration": 0.3468209999999914
                },
                {
                    "name": "F3",
                    "midi": 53,
                    "time": 127.28330700000056,
                    "velocity": 0.2204724409448819,
                    "duration": 0.3468210000000056
                },
                {
                    "name": "G#3",
                    "midi": 56,
                    "time": 127.63012800000057,
                    "velocity": 0.2440944881889764,
                    "duration": 0.3468210000000056
                },
                {
                    "name": "F#3",
                    "midi": 54,
                    "time": 127.97694900000057,
                    "velocity": 0.2204724409448819,
                    "duration": 0.3468209999999914
                },
                {
                    "name": "B3",
                    "midi": 59,
                    "time": 128.32377000000056,
                    "velocity": 0.2440944881889764,
                    "duration": 0.3468210000000056
                },
                {
                    "name": "B2",
                    "midi": 47,
                    "time": 128.67059100000057,
                    "velocity": 0.2047244094488189,
                    "duration": 0.3468210000000056
                },
                {
                    "name": "D#2",
                    "midi": 39,
                    "time": 129.01741200000058,
                    "velocity": 0.3228346456692913,
                    "duration": 0.3468210000000056
                },
                {
                    "name": "D3",
                    "midi": 50,
                    "time": 129.36423300000058,
                    "velocity": 0.23622047244094488,
                    "duration": 0.3468210000000056
                },
                {
                    "name": "E3",
                    "midi": 52,
                    "time": 129.7110540000006,
                    "velocity": 0.2992125984251969,
                    "duration": 0.3468210000000056
                },
                {
                    "name": "D#3",
                    "midi": 51,
                    "time": 130.0578750000006,
                    "velocity": 0.23622047244094488,
                    "duration": 0.3468210000000056
                },
                {
                    "name": "G3",
                    "midi": 55,
                    "time": 130.4046960000006,
                    "velocity": 0.28346456692913385,
                    "duration": 0.3468210000000056
                },
                {
                    "name": "A#2",
                    "midi": 46,
                    "time": 130.7515170000006,
                    "velocity": 0.2283464566929134,
                    "duration": 0.3468210000000056
                },
                {
                    "name": "G#2",
                    "midi": 44,
                    "time": 131.0983380000006,
                    "velocity": 0.2992125984251969,
                    "duration": 0.3468210000000056
                },
                {
                    "name": "D3",
                    "midi": 50,
                    "time": 131.44515900000061,
                    "velocity": 0.25984251968503935,
                    "duration": 0.3468210000000056
                },
                {
                    "name": "E3",
                    "midi": 52,
                    "time": 131.79198000000062,
                    "velocity": 0.29133858267716534,
                    "duration": 0.3468210000000056
                },
                {
                    "name": "D#3",
                    "midi": 51,
                    "time": 132.13880100000063,
                    "velocity": 0.2283464566929134,
                    "duration": 0.3468210000000056
                },
                {
                    "name": "G#3",
                    "midi": 56,
                    "time": 132.48562200000063,
                    "velocity": 0.2677165354330709,
                    "duration": 0.3468210000000056
                },
                {
                    "name": "G#2",
                    "midi": 44,
                    "time": 132.83244300000064,
                    "velocity": 0.2204724409448819,
                    "duration": 0.3468210000000056
                },
                {
                    "name": "C#2",
                    "midi": 37,
                    "time": 133.17926400000064,
                    "velocity": 0.30708661417322836,
                    "duration": 0.3468210000000056
                },
                {
                    "name": "C3",
                    "midi": 48,
                    "time": 133.52608500000065,
                    "velocity": 0.2047244094488189,
                    "duration": 0.3468210000000056
                },
                {
                    "name": "D#3",
                    "midi": 51,
                    "time": 133.87290600000065,
                    "velocity": 0.2283464566929134,
                    "duration": 0.3468210000000056
                },
                {
                    "name": "C#3",
                    "midi": 49,
                    "time": 134.21972700000066,
                    "velocity": 0.2047244094488189,
                    "duration": 0.3468210000000056
                },
                {
                    "name": "F3",
                    "midi": 53,
                    "time": 134.56654800000067,
                    "velocity": 0.2283464566929134,
                    "duration": 0.3468210000000056
                },
                {
                    "name": "G#2",
                    "midi": 44,
                    "time": 134.91336900000067,
                    "velocity": 0.1968503937007874,
                    "duration": 0.3468210000000056
                },
                {
                    "name": "C#2",
                    "midi": 37,
                    "time": 135.26019000000068,
                    "velocity": 0.28346456692913385,
                    "duration": 0.3468210000000056
                },
                {
                    "name": "C3",
                    "midi": 48,
                    "time": 135.60701100000068,
                    "velocity": 0.2047244094488189,
                    "duration": 0.3468210000000056
                },
                {
                    "name": "D#3",
                    "midi": 51,
                    "time": 135.9538320000007,
                    "velocity": 0.2283464566929134,
                    "duration": 0.3468210000000056
                },
                {
                    "name": "C#3",
                    "midi": 49,
                    "time": 136.3006530000007,
                    "velocity": 0.2047244094488189,
                    "duration": 0.3468210000000056
                },
                {
                    "name": "F3",
                    "midi": 53,
                    "time": 136.6474740000007,
                    "velocity": 0.2283464566929134,
                    "duration": 0.3468210000000056
                },
                {
                    "name": "G#2",
                    "midi": 44,
                    "time": 136.9942950000007,
                    "velocity": 0.1968503937007874,
                    "duration": 0.3468210000000056
                },
                {
                    "name": "F#2",
                    "midi": 42,
                    "time": 137.3411160000007,
                    "velocity": 0.28346456692913385,
                    "duration": 0.3468210000000056
                },
                {
                    "name": "C3",
                    "midi": 48,
                    "time": 137.68793700000072,
                    "velocity": 0.2047244094488189,
                    "duration": 0.3468210000000056
                },
                {
                    "name": "D#3",
                    "midi": 51,
                    "time": 138.03475800000072,
                    "velocity": 0.2283464566929134,
                    "duration": 0.3468210000000056
                },
                {
                    "name": "C#3",
                    "midi": 49,
                    "time": 138.38157900000073,
                    "velocity": 0.2047244094488189,
                    "duration": 0.3468210000000056
                },
                {
                    "name": "F#3",
                    "midi": 54,
                    "time": 138.72840000000073,
                    "velocity": 0.2283464566929134,
                    "duration": 0.3468210000000056
                },
                {
                    "name": "F#2",
                    "midi": 42,
                    "time": 139.07522100000074,
                    "velocity": 0.1968503937007874,
                    "duration": 0.3468210000000056
                },
                {
                    "name": "B1",
                    "midi": 35,
                    "time": 139.42204200000074,
                    "velocity": 0.2677165354330709,
                    "duration": 0.3468210000000056
                },
                {
                    "name": "D3",
                    "midi": 50,
                    "time": 139.76886300000075,
                    "velocity": 0.2283464566929134,
                    "duration": 0.3468210000000056
                },
                {
                    "name": "F3",
                    "midi": 53,
                    "time": 140.11568400000075,
                    "velocity": 0.25984251968503935,
                    "duration": 0.3468210000000056
                },
                {
                    "name": "D#3",
                    "midi": 51,
                    "time": 140.46250500000076,
                    "velocity": 0.2047244094488189,
                    "duration": 0.3468210000000056
                },
                {
                    "name": "B3",
                    "midi": 59,
                    "time": 140.80932600000077,
                    "velocity": 0.2283464566929134,
                    "duration": 0.3468210000000056
                },
                {
                    "name": "G#2",
                    "midi": 44,
                    "time": 141.15614700000077,
                    "velocity": 0.1968503937007874,
                    "duration": 0.3468210000000056
                },
                {
                    "name": "C#2",
                    "midi": 37,
                    "time": 141.50296800000078,
                    "velocity": 0.2755905511811024,
                    "duration": 0.3468210000000056
                },
                {
                    "name": "C3",
                    "midi": 48,
                    "time": 141.84978900000078,
                    "velocity": 0.18110236220472442,
                    "duration": 0.3468210000000056
                },
                {
                    "name": "D#3",
                    "midi": 51,
                    "time": 142.1966100000008,
                    "velocity": 0.1968503937007874,
                    "duration": 0.3468210000000056
                },
                {
                    "name": "C#3",
                    "midi": 49,
                    "time": 142.5434310000008,
                    "velocity": 0.1732283464566929,
                    "duration": 0.3468210000000056
                },
                {
                    "name": "F3",
                    "midi": 53,
                    "time": 142.8902520000008,
                    "velocity": 0.1889763779527559,
                    "duration": 0.3468210000000056
                },
                {
                    "name": "G#2",
                    "midi": 44,
                    "time": 143.2370730000008,
                    "velocity": 0.15748031496062992,
                    "duration": 0.3468210000000056
                },
                {
                    "name": "C#2",
                    "midi": 37,
                    "time": 143.5838940000008,
                    "velocity": 0.2283464566929134,
                    "duration": 0.3468210000000056
                },
                {
                    "name": "C3",
                    "midi": 48,
                    "time": 143.93071500000082,
                    "velocity": 0.15748031496062992,
                    "duration": 0.3468210000000056
                },
                {
                    "name": "D#3",
                    "midi": 51,
                    "time": 144.27753600000082,
                    "velocity": 0.18110236220472442,
                    "duration": 0.3468210000000056
                },
                {
                    "name": "C#3",
                    "midi": 49,
                    "time": 144.62435700000083,
                    "velocity": 0.14960629921259844,
                    "duration": 0.3468210000000056
                },
                {
                    "name": "G#3",
                    "midi": 56,
                    "time": 144.97117800000083,
                    "velocity": 0.18110236220472442,
                    "duration": 0.3468210000000056
                },
                {
                    "name": "C#2",
                    "midi": 37,
                    "time": 145.31799900000084,
                    "velocity": 0.14173228346456693,
                    "duration": 0.3468210000000056
                },
                {
                    "name": "F#1",
                    "midi": 30,
                    "time": 145.66482000000084,
                    "velocity": 0.2047244094488189,
                    "duration": 0.3468209999999772
                },
                {
                    "name": "C3",
                    "midi": 48,
                    "time": 146.01164100000082,
                    "velocity": 0.14960629921259844,
                    "duration": 0.3468210000000056
                },
                {
                    "name": "D#3",
                    "midi": 51,
                    "time": 146.35846200000083,
                    "velocity": 0.1732283464566929,
                    "duration": 0.3468210000000056
                },
                {
                    "name": "C#3",
                    "midi": 49,
                    "time": 146.70528300000083,
                    "velocity": 0.14960629921259844,
                    "duration": 0.3468210000000056
                },
                {
                    "name": "F#3",
                    "midi": 54,
                    "time": 147.05210400000084,
                    "velocity": 0.1732283464566929,
                    "duration": 0.3468210000000056
                },
                {
                    "name": "C#2",
                    "midi": 37,
                    "time": 147.39892500000084,
                    "velocity": 0.14173228346456693,
                    "duration": 0.3468210000000056
                },
                {
                    "name": "F#2",
                    "midi": 42,
                    "time": 147.74574600000085,
                    "velocity": 0.2047244094488189,
                    "duration": 0.3468210000000056
                },
                {
                    "name": "C3",
                    "midi": 48,
                    "time": 148.09256700000086,
                    "velocity": 0.14960629921259844,
                    "duration": 0.3468210000000056
                },
                {
                    "name": "D#3",
                    "midi": 51,
                    "time": 148.43938800000086,
                    "velocity": 0.1732283464566929,
                    "duration": 0.3468210000000056
                },
                {
                    "name": "C#3",
                    "midi": 49,
                    "time": 148.78620900000087,
                    "velocity": 0.14960629921259844,
                    "duration": 0.3468210000000056
                },
                {
                    "name": "F#3",
                    "midi": 54,
                    "time": 149.13303000000087,
                    "velocity": 0.1732283464566929,
                    "duration": 0.3468210000000056
                },
                {
                    "name": "C#2",
                    "midi": 37,
                    "time": 149.47985100000088,
                    "velocity": 0.14173228346456693,
                    "duration": 0.3468210000000056
                },
                {
                    "name": "F#1",
                    "midi": 30,
                    "time": 149.82667200000088,
                    "velocity": 0.25984251968503935,
                    "duration": 0.3468209999999772
                },
                {
                    "name": "F#2",
                    "midi": 42,
                    "time": 150.17349300000086,
                    "velocity": 0.1968503937007874,
                    "duration": 0.32947995000000674
                },
                {
                    "name": "D#3",
                    "midi": 51,
                    "time": 150.17349300000086,
                    "velocity": 0.1968503937007874,
                    "duration": 0.32947995000000674
                },
                {
                    "name": "F#2",
                    "midi": 42,
                    "time": 150.52031400000087,
                    "velocity": 0.2125984251968504,
                    "duration": 0.32947995000000674
                },
                {
                    "name": "D#3",
                    "midi": 51,
                    "time": 150.52031400000087,
                    "velocity": 0.2125984251968504,
                    "duration": 0.32947995000000674
                },
                {
                    "name": "F#2",
                    "midi": 42,
                    "time": 150.86713500000087,
                    "velocity": 0.2204724409448819,
                    "duration": 0.32947995000000674
                },
                {
                    "name": "D#3",
                    "midi": 51,
                    "time": 150.86713500000087,
                    "velocity": 0.2204724409448819,
                    "duration": 0.32947995000000674
                },
                {
                    "name": "F#2",
                    "midi": 42,
                    "time": 151.21395600000088,
                    "velocity": 0.23622047244094488,
                    "duration": 0.32947995000000674
                },
                {
                    "name": "D#3",
                    "midi": 51,
                    "time": 151.21395600000088,
                    "velocity": 0.23622047244094488,
                    "duration": 0.32947995000000674
                },
                {
                    "name": "F#2",
                    "midi": 42,
                    "time": 151.56077700000088,
                    "velocity": 0.2047244094488189,
                    "duration": 0.32947995000000674
                },
                {
                    "name": "D#3",
                    "midi": 51,
                    "time": 151.56077700000088,
                    "velocity": 0.2047244094488189,
                    "duration": 0.32947995000000674
                },
                {
                    "name": "F#2",
                    "midi": 42,
                    "time": 151.9075980000009,
                    "velocity": 0.2047244094488189,
                    "duration": 0.32947995000000674
                },
                {
                    "name": "D#3",
                    "midi": 51,
                    "time": 151.9075980000009,
                    "velocity": 0.2047244094488189,
                    "duration": 0.32947995000000674
                },
                {
                    "name": "F#2",
                    "midi": 42,
                    "time": 152.2544190000009,
                    "velocity": 0.2047244094488189,
                    "duration": 0.32947995000000674
                },
                {
                    "name": "D#3",
                    "midi": 51,
                    "time": 152.2544190000009,
                    "velocity": 0.2047244094488189,
                    "duration": 0.32947995000000674
                },
                {
                    "name": "F#2",
                    "midi": 42,
                    "time": 152.6012400000009,
                    "velocity": 0.1968503937007874,
                    "duration": 0.32947995000000674
                },
                {
                    "name": "D#3",
                    "midi": 51,
                    "time": 152.6012400000009,
                    "velocity": 0.1968503937007874,
                    "duration": 0.32947995000000674
                },
                {
                    "name": "F#2",
                    "midi": 42,
                    "time": 152.9480610000009,
                    "velocity": 0.1968503937007874,
                    "duration": 0.32947995000000674
                },
                {
                    "name": "C#3",
                    "midi": 49,
                    "time": 152.9480610000009,
                    "velocity": 0.1968503937007874,
                    "duration": 0.32947995000000674
                },
                {
                    "name": "F#2",
                    "midi": 42,
                    "time": 153.2948820000009,
                    "velocity": 0.16535433070866143,
                    "duration": 0.32947995000000674
                },
                {
                    "name": "C#3",
                    "midi": 49,
                    "time": 153.2948820000009,
                    "velocity": 0.16535433070866143,
                    "duration": 0.32947995000000674
                },
                {
                    "name": "F#2",
                    "midi": 42,
                    "time": 153.64170300000092,
                    "velocity": 0.13385826771653545,
                    "duration": 0.32947995000000674
                },
                {
                    "name": "C#3",
                    "midi": 49,
                    "time": 153.64170300000092,
                    "velocity": 0.13385826771653545,
                    "duration": 0.32947995000000674
                },
                {
                    "name": "F#2",
                    "midi": 42,
                    "time": 153.98852400000092,
                    "velocity": 0.15748031496062992,
                    "duration": 4.161851999999982
                },
                {
                    "name": "C#3",
                    "midi": 49,
                    "time": 153.98852400000092,
                    "velocity": 0.1968503937007874,
                    "duration": 4.161851999999982
                }
            ],
            "controlChanges": {
                "7": [
                    {
                        "number": 7,
                        "time": 0,
                        "value": 0.7874015748031497
                    }
                ],
                "10": [
                    {
                        "number": 10,
                        "time": 0,
                        "value": 0.5039370078740157
                    }
                ],
                "64": [
                    {
                        "number": 64,
                        "time": 0.16329488749999999,
                        "value": 1
                    },
                    {
                        "number": 64,
                        "time": 2.0968219625,
                        "value": 0
                    },
                    {
                        "number": 64,
                        "time": 2.3049145625,
                        "value": 1
                    },
                    {
                        "number": 64,
                        "time": 4.1820832249999995,
                        "value": 0
                    },
                    {
                        "number": 64,
                        "time": 4.3251468875,
                        "value": 1
                    },
                    {
                        "number": 64,
                        "time": 6.257228875000001,
                        "value": 0
                    },
                    {
                        "number": 64,
                        "time": 6.491333050000001,
                        "value": 1
                    },
                    {
                        "number": 64,
                        "time": 8.343935225000001,
                        "value": 0
                    },
                    {
                        "number": 64,
                        "time": 8.569368875,
                        "value": 1
                    },
                    {
                        "number": 64,
                        "time": 10.424861225,
                        "value": 0
                    },
                    {
                        "number": 64,
                        "time": 10.650294875,
                        "value": 1
                    },
                    {
                        "number": 64,
                        "time": 12.505787225,
                        "value": 0
                    },
                    {
                        "number": 64,
                        "time": 12.6488508875,
                        "value": 1
                    },
                    {
                        "number": 64,
                        "time": 14.586713225,
                        "value": 0
                    },
                    {
                        "number": 64,
                        "time": 14.6979849625,
                        "value": 1
                    },
                    {
                        "number": 64,
                        "time": 15.280355225,
                        "value": 0
                    },
                    {
                        "number": 64,
                        "time": 15.393072049999999,
                        "value": 1
                    },
                    {
                        "number": 64,
                        "time": 15.973997225,
                        "value": 0
                    },
                    {
                        "number": 64,
                        "time": 16.1026100125,
                        "value": 1
                    },
                    {
                        "number": 64,
                        "time": 16.664749049999998,
                        "value": 0
                    },
                    {
                        "number": 64,
                        "time": 16.994228999999997,
                        "value": 1
                    },
                    {
                        "number": 64,
                        "time": 18.74567504999999,
                        "value": 0
                    },
                    {
                        "number": 64,
                        "time": 19.03469254999999,
                        "value": 1
                    },
                    {
                        "number": 64,
                        "time": 20.82660104999998,
                        "value": 0
                    },
                    {
                        "number": 64,
                        "time": 20.992786112499978,
                        "value": 1
                    },
                    {
                        "number": 64,
                        "time": 22.90752704999997,
                        "value": 0
                    },
                    {
                        "number": 64,
                        "time": 23.07371211249997,
                        "value": 1
                    },
                    {
                        "number": 64,
                        "time": 24.293365962499966,
                        "value": 0
                    },
                    {
                        "number": 64,
                        "time": 24.390186824999965,
                        "value": 1
                    },
                    {
                        "number": 64,
                        "time": 24.815042549999966,
                        "value": 0
                    },
                    {
                        "number": 64,
                        "time": 24.890187099999963,
                        "value": 1
                    },
                    {
                        "number": 64,
                        "time": 27.069379049999952,
                        "value": 0
                    },
                    {
                        "number": 64,
                        "time": 27.23556411249995,
                        "value": 1
                    },
                    {
                        "number": 64,
                        "time": 29.132963999999944,
                        "value": 0
                    },
                    {
                        "number": 64,
                        "time": 29.296258887499945,
                        "value": 1
                    },
                    {
                        "number": 64,
                        "time": 29.839611787499944,
                        "value": 0
                    },
                    {
                        "number": 64,
                        "time": 29.969669662499943,
                        "value": 1
                    },
                    {
                        "number": 64,
                        "time": 30.531808699999942,
                        "value": 0
                    },
                    {
                        "number": 64,
                        "time": 30.663311662499943,
                        "value": 1
                    },
                    {
                        "number": 64,
                        "time": 31.213889999999942,
                        "value": 0
                    },
                    {
                        "number": 64,
                        "time": 31.356953662499944,
                        "value": 1
                    },
                    {
                        "number": 64,
                        "time": 31.920537787499942,
                        "value": 0
                    },
                    {
                        "number": 64,
                        "time": 32.06071127499994,
                        "value": 1
                    },
                    {
                        "number": 64,
                        "time": 32.622850312499935,
                        "value": 0
                    },
                    {
                        "number": 64,
                        "time": 32.784700112499934,
                        "value": 1
                    },
                    {
                        "number": 64,
                        "time": 33.13152111249994,
                        "value": 0
                    },
                    {
                        "number": 64,
                        "time": 33.27024951249994,
                        "value": 1
                    },
                    {
                        "number": 64,
                        "time": 35.40175357499993,
                        "value": 0
                    },
                    {
                        "number": 64,
                        "time": 35.61273634999993,
                        "value": 1
                    },
                    {
                        "number": 64,
                        "time": 37.49713044999992,
                        "value": 0
                    },
                    {
                        "number": 64,
                        "time": 37.61996288749992,
                        "value": 1
                    },
                    {
                        "number": 64,
                        "time": 39.52169803749992,
                        "value": 0
                    },
                    {
                        "number": 64,
                        "time": 39.669096962499914,
                        "value": 1
                    },
                    {
                        "number": 64,
                        "time": 41.658982449999904,
                        "value": 0
                    },
                    {
                        "number": 64,
                        "time": 41.781814887499905,
                        "value": 1
                    },
                    {
                        "number": 64,
                        "time": 43.7196772249999,
                        "value": 0
                    },
                    {
                        "number": 64,
                        "time": 43.934995262499896,
                        "value": 1
                    },
                    {
                        "number": 64,
                        "time": 45.820834449999886,
                        "value": 0
                    },
                    {
                        "number": 64,
                        "time": 45.94366688749989,
                        "value": 1
                    },
                    {
                        "number": 64,
                        "time": 47.878639049999876,
                        "value": 0
                    },
                    {
                        "number": 64,
                        "time": 48.15898602499988,
                        "value": 1
                    },
                    {
                        "number": 64,
                        "time": 48.57661631249987,
                        "value": 0
                    },
                    {
                        "number": 64,
                        "time": 48.934998012499875,
                        "value": 1
                    },
                    {
                        "number": 64,
                        "time": 49.959565049999874,
                        "value": 0
                    },
                    {
                        "number": 64,
                        "time": 50.12575011249987,
                        "value": 1
                    },
                    {
                        "number": 64,
                        "time": 52.040491049999865,
                        "value": 0
                    },
                    {
                        "number": 64,
                        "time": 52.20667611249986,
                        "value": 1
                    },
                    {
                        "number": 64,
                        "time": 54.121417049999856,
                        "value": 0
                    },
                    {
                        "number": 64,
                        "time": 54.287602112499854,
                        "value": 1
                    },
                    {
                        "number": 64,
                        "time": 56.20234304999985,
                        "value": 0
                    },
                    {
                        "number": 64,
                        "time": 56.368528112499845,
                        "value": 1
                    },
                    {
                        "number": 64,
                        "time": 58.277488699999836,
                        "value": 0
                    },
                    {
                        "number": 64,
                        "time": 58.49714199999983,
                        "value": 1
                    },
                    {
                        "number": 64,
                        "time": 60.36419504999982,
                        "value": 0
                    },
                    {
                        "number": 64,
                        "time": 60.59540904999982,
                        "value": 1
                    },
                    {
                        "number": 64,
                        "time": 62.48847367499982,
                        "value": 0
                    },
                    {
                        "number": 64,
                        "time": 62.61130611249982,
                        "value": 1
                    },
                    {
                        "number": 64,
                        "time": 64.52604704999982,
                        "value": 0
                    },
                    {
                        "number": 64,
                        "time": 64.69223211249982,
                        "value": 1
                    },
                    {
                        "number": 64,
                        "time": 66.60552796249985,
                        "value": 0
                    },
                    {
                        "number": 64,
                        "time": 66.87142406249986,
                        "value": 1
                    },
                    {
                        "number": 64,
                        "time": 68.68789904999988,
                        "value": 0
                    },
                    {
                        "number": 64,
                        "time": 68.95235006249989,
                        "value": 1
                    },
                    {
                        "number": 64,
                        "time": 70.76882504999992,
                        "value": 0
                    },
                    {
                        "number": 64,
                        "time": 71.00003904999991,
                        "value": 1
                    },
                    {
                        "number": 64,
                        "time": 72.84975104999994,
                        "value": 0
                    },
                    {
                        "number": 64,
                        "time": 73.08096504999993,
                        "value": 1
                    },
                    {
                        "number": 64,
                        "time": 74.91333599999996,
                        "value": 0
                    },
                    {
                        "number": 64,
                        "time": 75.14454999999995,
                        "value": 1
                    },
                    {
                        "number": 64,
                        "time": 77.01160304999998,
                        "value": 0
                    },
                    {
                        "number": 64,
                        "time": 77.25871301249998,
                        "value": 1
                    },
                    {
                        "number": 64,
                        "time": 78.4032223125,
                        "value": 0
                    },
                    {
                        "number": 64,
                        "time": 78.6459970125,
                        "value": 1
                    },
                    {
                        "number": 64,
                        "time": 79.09252905000001,
                        "value": 0
                    },
                    {
                        "number": 64,
                        "time": 79.306402,
                        "value": 1
                    },
                    {
                        "number": 64,
                        "time": 81.17779031250004,
                        "value": 0
                    },
                    {
                        "number": 64,
                        "time": 81.43790606250003,
                        "value": 1
                    },
                    {
                        "number": 64,
                        "time": 83.23993017500007,
                        "value": 0
                    },
                    {
                        "number": 64,
                        "time": 83.36854296250007,
                        "value": 1
                    },
                    {
                        "number": 64,
                        "time": 85.4176770375001,
                        "value": 0
                    },
                    {
                        "number": 64,
                        "time": 85.5159429875001,
                        "value": 1
                    },
                    {
                        "number": 64,
                        "time": 86.0231687000001,
                        "value": 0
                    },
                    {
                        "number": 64,
                        "time": 86.1604520125001,
                        "value": 1
                    },
                    {
                        "number": 64,
                        "time": 86.7139205250001,
                        "value": 0
                    },
                    {
                        "number": 64,
                        "time": 86.8367529625001,
                        "value": 1
                    },
                    {
                        "number": 64,
                        "time": 87.41189778750011,
                        "value": 0
                    },
                    {
                        "number": 64,
                        "time": 87.5621868875001,
                        "value": 1
                    },
                    {
                        "number": 64,
                        "time": 89.51016483750014,
                        "value": 0
                    },
                    {
                        "number": 64,
                        "time": 89.58241921250014,
                        "value": 1
                    },
                    {
                        "number": 64,
                        "time": 90.19658140000014,
                        "value": 0
                    },
                    {
                        "number": 64,
                        "time": 90.36710172500014,
                        "value": 1
                    },
                    {
                        "number": 64,
                        "time": 90.88733322500015,
                        "value": 0
                    },
                    {
                        "number": 64,
                        "time": 91.06074372500015,
                        "value": 1
                    },
                    {
                        "number": 64,
                        "time": 91.57085961250016,
                        "value": 0
                    },
                    {
                        "number": 64,
                        "time": 91.74282502500016,
                        "value": 1
                    },
                    {
                        "number": 64,
                        "time": 93.55930001250019,
                        "value": 0
                    },
                    {
                        "number": 64,
                        "time": 93.7081440250002,
                        "value": 1
                    },
                    {
                        "number": 64,
                        "time": 94.3540981375002,
                        "value": 0
                    },
                    {
                        "number": 64,
                        "time": 94.5506300375002,
                        "value": 1
                    },
                    {
                        "number": 64,
                        "time": 95.0419597875002,
                        "value": 0
                    },
                    {
                        "number": 64,
                        "time": 95.22693098750021,
                        "value": 1
                    },
                    {
                        "number": 64,
                        "time": 95.73271161250021,
                        "value": 0
                    },
                    {
                        "number": 64,
                        "time": 95.8656596625002,
                        "value": 1
                    },
                    {
                        "number": 64,
                        "time": 97.82230813750023,
                        "value": 0
                    },
                    {
                        "number": 64,
                        "time": 97.98704811250023,
                        "value": 1
                    },
                    {
                        "number": 64,
                        "time": 99.21103722500025,
                        "value": 0
                    },
                    {
                        "number": 64,
                        "time": 99.39456333750026,
                        "value": 1
                    },
                    {
                        "number": 64,
                        "time": 99.89456361250026,
                        "value": 0
                    },
                    {
                        "number": 64,
                        "time": 100.04774288750026,
                        "value": 1
                    },
                    {
                        "number": 64,
                        "time": 100.58965070000028,
                        "value": 0
                    },
                    {
                        "number": 64,
                        "time": 100.69080682500028,
                        "value": 1
                    },
                    {
                        "number": 64,
                        "time": 101.29196322500029,
                        "value": 0
                    },
                    {
                        "number": 64,
                        "time": 101.47548933750029,
                        "value": 1
                    },
                    {
                        "number": 64,
                        "time": 101.9841601375003,
                        "value": 0
                    },
                    {
                        "number": 64,
                        "time": 102.0780908250003,
                        "value": 1
                    },
                    {
                        "number": 64,
                        "time": 102.67924722500031,
                        "value": 0
                    },
                    {
                        "number": 64,
                        "time": 102.79196405000032,
                        "value": 1
                    },
                    {
                        "number": 64,
                        "time": 103.36999905000032,
                        "value": 0
                    },
                    {
                        "number": 64,
                        "time": 103.48560605000031,
                        "value": 1
                    },
                    {
                        "number": 64,
                        "time": 104.05641561250032,
                        "value": 0
                    },
                    {
                        "number": 64,
                        "time": 104.18358331250032,
                        "value": 1
                    },
                    {
                        "number": 64,
                        "time": 104.75872813750033,
                        "value": 0
                    },
                    {
                        "number": 64,
                        "time": 104.98560687500033,
                        "value": 1
                    },
                    {
                        "number": 64,
                        "time": 105.44369961250034,
                        "value": 0
                    },
                    {
                        "number": 64,
                        "time": 105.61711011250034,
                        "value": 1
                    },
                    {
                        "number": 64,
                        "time": 106.14023178750035,
                        "value": 0
                    },
                    {
                        "number": 64,
                        "time": 106.37289087500035,
                        "value": 1
                    },
                    {
                        "number": 64,
                        "time": 106.83242870000036,
                        "value": 0
                    },
                    {
                        "number": 64,
                        "time": 107.04630165000036,
                        "value": 1
                    },
                    {
                        "number": 64,
                        "time": 107.52462561250036,
                        "value": 0
                    },
                    {
                        "number": 64,
                        "time": 107.71826733750036,
                        "value": 1
                    },
                    {
                        "number": 64,
                        "time": 108.21826761250037,
                        "value": 0
                    },
                    {
                        "number": 64,
                        "time": 108.40612898750037,
                        "value": 1
                    },
                    {
                        "number": 64,
                        "time": 109.61855740000037,
                        "value": 0
                    },
                    {
                        "number": 64,
                        "time": 109.76162106250037,
                        "value": 1
                    },
                    {
                        "number": 64,
                        "time": 110.30641905000037,
                        "value": 0
                    },
                    {
                        "number": 64,
                        "time": 110.43792201250037,
                        "value": 1
                    },
                    {
                        "number": 64,
                        "time": 111.00006105000037,
                        "value": 0
                    },
                    {
                        "number": 64,
                        "time": 111.11566805000037,
                        "value": 1
                    },
                    {
                        "number": 64,
                        "time": 111.68503252500037,
                        "value": 0
                    },
                    {
                        "number": 64,
                        "time": 111.82520601250036,
                        "value": 1
                    },
                    {
                        "number": 64,
                        "time": 112.38879013750037,
                        "value": 0
                    },
                    {
                        "number": 64,
                        "time": 112.65613132500036,
                        "value": 1
                    },
                    {
                        "number": 64,
                        "time": 113.08243213750036,
                        "value": 0
                    },
                    {
                        "number": 64,
                        "time": 113.28907965000036,
                        "value": 1
                    },
                    {
                        "number": 64,
                        "time": 113.77751922500036,
                        "value": 0
                    },
                    {
                        "number": 64,
                        "time": 114.04341532500037,
                        "value": 1
                    },
                    {
                        "number": 64,
                        "time": 114.47116122500037,
                        "value": 0
                    },
                    {
                        "number": 64,
                        "time": 114.69659487500037,
                        "value": 1
                    },
                    {
                        "number": 64,
                        "time": 115.16480322500038,
                        "value": 0
                    },
                    {
                        "number": 64,
                        "time": 115.32809811250038,
                        "value": 1
                    },
                    {
                        "number": 64,
                        "time": 115.8584452250004,
                        "value": 0
                    },
                    {
                        "number": 64,
                        "time": 116.06364765000039,
                        "value": 1
                    },
                    {
                        "number": 64,
                        "time": 116.5491970500004,
                        "value": 0
                    },
                    {
                        "number": 64,
                        "time": 116.7572896500004,
                        "value": 1
                    },
                    {
                        "number": 64,
                        "time": 118.63012305000044,
                        "value": 0
                    },
                    {
                        "number": 64,
                        "time": 118.79630811250044,
                        "value": 1
                    },
                    {
                        "number": 64,
                        "time": 120.71104905000047,
                        "value": 0
                    },
                    {
                        "number": 64,
                        "time": 120.87723411250047,
                        "value": 1
                    },
                    {
                        "number": 64,
                        "time": 122.7919750500005,
                        "value": 0
                    },
                    {
                        "number": 64,
                        "time": 122.95816011250051,
                        "value": 1
                    },
                    {
                        "number": 64,
                        "time": 124.86856578750054,
                        "value": 0
                    },
                    {
                        "number": 64,
                        "time": 125.08099365000054,
                        "value": 1
                    },
                    {
                        "number": 64,
                        "time": 126.95382705000057,
                        "value": 0
                    },
                    {
                        "number": 64,
                        "time": 127.20238210000056,
                        "value": 1
                    },
                    {
                        "number": 64,
                        "time": 129.03475305000057,
                        "value": 0
                    },
                    {
                        "number": 64,
                        "time": 129.20093811250058,
                        "value": 1
                    },
                    {
                        "number": 64,
                        "time": 131.15903167500062,
                        "value": 0
                    },
                    {
                        "number": 64,
                        "time": 131.2818641125006,
                        "value": 1
                    },
                    {
                        "number": 64,
                        "time": 133.18937961250063,
                        "value": 0
                    },
                    {
                        "number": 64,
                        "time": 133.39458203750064,
                        "value": 1
                    },
                    {
                        "number": 64,
                        "time": 137.3584570500007,
                        "value": 0
                    },
                    {
                        "number": 64,
                        "time": 137.52464211250071,
                        "value": 1
                    },
                    {
                        "number": 64,
                        "time": 139.43938305000074,
                        "value": 0
                    },
                    {
                        "number": 64,
                        "time": 139.60556811250075,
                        "value": 1
                    },
                    {
                        "number": 64,
                        "time": 141.51741887500077,
                        "value": 0
                    },
                    {
                        "number": 64,
                        "time": 141.73418200000077,
                        "value": 1
                    },
                    {
                        "number": 64,
                        "time": 145.68216105000084,
                        "value": 0
                    },
                    {
                        "number": 64,
                        "time": 145.94661206250083,
                        "value": 1
                    },
                    {
                        "number": 64,
                        "time": 149.83823270000087,
                        "value": 0
                    },
                    {
                        "number": 64,
                        "time": 149.97551601250086,
                        "value": 1
                    },
                    {
                        "number": 64,
                        "time": 152.6229163125009,
                        "value": 0
                    },
                    {
                        "number": 64,
                        "time": 152.7255175250009,
                        "value": 1
                    },
                    {
                        "number": 64,
                        "time": 152.9682922250009,
                        "value": 0
                    },
                    {
                        "number": 64,
                        "time": 153.0391015125009,
                        "value": 1
                    },
                    {
                        "number": 64,
                        "time": 153.31944848750092,
                        "value": 0
                    },
                    {
                        "number": 64,
                        "time": 153.39459303750093,
                        "value": 1
                    },
                    {
                        "number": 64,
                        "time": 153.66193422500092,
                        "value": 0
                    },
                    {
                        "number": 64,
                        "time": 153.77465105000093,
                        "value": 1
                    },
                    {
                        "number": 64,
                        "time": 154.00731013750092,
                        "value": 0
                    },
                    {
                        "number": 64,
                        "time": 154.7211833625009,
                        "value": 1
                    },
                    {
                        "number": 64,
                        "time": 161.0795683625009,
                        "value": 0
                    }
                ]
            },
            "id": 2,
            "name": "Piano left",
            "instrumentNumber": 0,
            "instrument": "acoustic grand piano",
            "instrumentFamily": "piano",
            "channelNumber": 0,
            "isPercussion": false
        },
        {
            "startTime": 0,
            "duration": 0,
            "length": 0,
            "notes": [],
            "controlChanges": {},
            "id": 3,
            "name": "Chopin: Prelude No.13 in F# Major, Op. 28"
        },
        {
            "startTime": 0,
            "duration": 0,
            "length": 0,
            "notes": [],
            "controlChanges": {},
            "id": 4,
            "name": "Copyright  2002 by Bernd Krueger"
        },
        {
            "startTime": 0,
            "duration": 0,
            "length": 0,
            "notes": [],
            "controlChanges": {},
            "id": 5,
            "name": "http://www.piano-midi.de"
        },
        {
            "startTime": 0,
            "duration": 0,
            "length": 0,
            "notes": [],
            "controlChanges": {},
            "id": 6,
            "name": "Edition: 2014-02-21"
        },
        {
            "startTime": 0,
            "duration": 0,
            "length": 0,
            "notes": [],
            "controlChanges": {
                "7": [
                    {
                        "number": 7,
                        "time": 0,
                        "value": 1
                    }
                ],
                "10": [
                    {
                        "number": 10,
                        "time": 0,
                        "value": 0.5039370078740157
                    }
                ]
            },
            "id": 7,
            "name": "Spur 7"
        },
        {
            "startTime": 0,
            "duration": 0,
            "length": 0,
            "notes": [],
            "controlChanges": {
                "7": [
                    {
                        "number": 7,
                        "time": 0,
                        "value": 1
                    }
                ],
                "10": [
                    {
                        "number": 10,
                        "time": 0,
                        "value": 0.5039370078740157
                    }
                ]
            },
            "id": 8,
            "name": "Spur 8"
        }
    ]
}