{
    "header": {
        "PPQ": 480,
        "timeSignature": [
            3,
            4
        ],
        "bpm": 120,
        "name": "Chopin Mazurka Opus 33 Nr. 4"
    },
    "startTime": 0,
    "duration": 337.5000000000001,
    "tracks": [
        {
            "startTime": 0,
            "duration": 0,
            "length": 0,
            "notes": [],
            "controlChanges": {},
            "id": 0,
            "name": "Chopin Mazurka Opus 33 Nr. 4"
        },
        {
            "startTime": 1,
            "duration": 337.5000000000001,
            "length": 982,
            "notes": [
                {
                    "name": "F#5",
                    "midi": 78,
                    "time": 1,
                    "velocity": 0.4330708661417323,
                    "duration": 0.75
                },
                {
                    "name": "B5",
                    "midi": 83,
                    "time": 1.75,
                    "velocity": 0.3937007874015748,
                    "duration": 0.25
                },
                {
                    "name": "G5",
                    "midi": 79,
                    "time": 2,
                    "velocity": 0.3937007874015748,
                    "duration": 0.0625
                },
                {
                    "name": "A5",
                    "midi": 81,
                    "time": 2.0625,
                    "velocity": 0.3937007874015748,
                    "duration": 0.0625
                },
                {
                    "name": "G5",
                    "midi": 79,
                    "time": 2.125,
                    "velocity": 0.44881889763779526,
                    "duration": 0.375
                },
                {
                    "name": "F#5",
                    "midi": 78,
                    "time": 2.5,
                    "velocity": 0.41732283464566927,
                    "duration": 0.25
                },
                {
                    "name": "E5",
                    "midi": 76,
                    "time": 2.75,
                    "velocity": 0.3937007874015748,
                    "duration": 0.25
                },
                {
                    "name": "F#5",
                    "midi": 78,
                    "time": 3,
                    "velocity": 0.4330708661417323,
                    "duration": 0.25
                },
                {
                    "name": "B4",
                    "midi": 71,
                    "time": 3.25,
                    "velocity": 0.3937007874015748,
                    "duration": 1.25
                },
                {
                    "name": "C#5",
                    "midi": 73,
                    "time": 4.5,
                    "velocity": 0.4566929133858268,
                    "duration": 0.25
                },
                {
                    "name": "E5",
                    "midi": 76,
                    "time": 4.75,
                    "velocity": 0.3937007874015748,
                    "duration": 0.25
                },
                {
                    "name": "D5",
                    "midi": 74,
                    "time": 5,
                    "velocity": 0.3937007874015748,
                    "duration": 0.0625
                },
                {
                    "name": "E5",
                    "midi": 76,
                    "time": 5.0625,
                    "velocity": 0.3937007874015748,
                    "duration": 0.0625
                },
                {
                    "name": "D5",
                    "midi": 74,
                    "time": 5.125,
                    "velocity": 0.44881889763779526,
                    "duration": 0.375
                },
                {
                    "name": "C#5",
                    "midi": 73,
                    "time": 5.5,
                    "velocity": 0.41732283464566927,
                    "duration": 0.5
                },
                {
                    "name": "D5",
                    "midi": 74,
                    "time": 6,
                    "velocity": 0.4330708661417323,
                    "duration": 0.25
                },
                {
                    "name": "B4",
                    "midi": 71,
                    "time": 6.25,
                    "velocity": 0.3937007874015748,
                    "duration": 1.25
                },
                {
                    "name": "C#5",
                    "midi": 73,
                    "time": 7.5,
                    "velocity": 0.4566929133858268,
                    "duration": 0.25
                },
                {
                    "name": "B4",
                    "midi": 71,
                    "time": 7.75,
                    "velocity": 0.3937007874015748,
                    "duration": 0.25
                },
                {
                    "name": "A4",
                    "midi": 69,
                    "time": 8,
                    "velocity": 0.36220472440944884,
                    "duration": 0.0625
                },
                {
                    "name": "B4",
                    "midi": 71,
                    "time": 8.0625,
                    "velocity": 0.3700787401574803,
                    "duration": 0.0625
                },
                {
                    "name": "A4",
                    "midi": 69,
                    "time": 8.125,
                    "velocity": 0.4330708661417323,
                    "duration": 0.375
                },
                {
                    "name": "G#4",
                    "midi": 68,
                    "time": 8.5,
                    "velocity": 0.41732283464566927,
                    "duration": 0.5
                },
                {
                    "name": "A4",
                    "midi": 69,
                    "time": 9,
                    "velocity": 0.4330708661417323,
                    "duration": 0.25
                },
                {
                    "name": "C#5",
                    "midi": 73,
                    "time": 9.25,
                    "velocity": 0.3937007874015748,
                    "duration": 0.5
                },
                {
                    "name": "C#4",
                    "midi": 61,
                    "time": 10,
                    "velocity": 0.5354330708661418,
                    "duration": 0.75
                },
                {
                    "name": "B3",
                    "midi": 59,
                    "time": 10.75,
                    "velocity": 0.47244094488188976,
                    "duration": 0.25
                },
                {
                    "name": "A3",
                    "midi": 57,
                    "time": 11,
                    "velocity": 0.44881889763779526,
                    "duration": 0.0625
                },
                {
                    "name": "B3",
                    "midi": 59,
                    "time": 11.0625,
                    "velocity": 0.44881889763779526,
                    "duration": 0.0625
                },
                {
                    "name": "A3",
                    "midi": 57,
                    "time": 11.125,
                    "velocity": 0.5354330708661418,
                    "duration": 0.375
                },
                {
                    "name": "G#3",
                    "midi": 56,
                    "time": 11.5,
                    "velocity": 0.5275590551181102,
                    "duration": 0.5
                },
                {
                    "name": "A3",
                    "midi": 57,
                    "time": 12,
                    "velocity": 0.5590551181102362,
                    "duration": 0.5
                },
                {
                    "name": "C#4",
                    "midi": 61,
                    "time": 12.5,
                    "velocity": 0.5275590551181102,
                    "duration": 1
                },
                {
                    "name": "B3",
                    "midi": 59,
                    "time": 13.5,
                    "velocity": 0.5590551181102362,
                    "duration": 0.5
                },
                {
                    "name": "A3",
                    "midi": 57,
                    "time": 14,
                    "velocity": 0.5354330708661418,
                    "duration": 0.5
                },
                {
                    "name": "C#4",
                    "midi": 61,
                    "time": 14.5,
                    "velocity": 0.5354330708661418,
                    "duration": 0.5
                },
                {
                    "name": "B3",
                    "midi": 59,
                    "time": 15,
                    "velocity": 0.49606299212598426,
                    "duration": 0.0625
                },
                {
                    "name": "C#4",
                    "midi": 61,
                    "time": 15.0625,
                    "velocity": 0.49606299212598426,
                    "duration": 0.0625
                },
                {
                    "name": "B3",
                    "midi": 59,
                    "time": 15.125,
                    "velocity": 0.5748031496062992,
                    "duration": 0.125
                },
                {
                    "name": "A3",
                    "midi": 57,
                    "time": 15.25,
                    "velocity": 0.5196850393700787,
                    "duration": 0.2468749999999993
                },
                {
                    "name": "C#4",
                    "midi": 61,
                    "time": 15.5,
                    "velocity": 0.5669291338582677,
                    "duration": 0.5
                },
                {
                    "name": "C#4",
                    "midi": 61,
                    "time": 16,
                    "velocity": 0.5354330708661418,
                    "duration": 0.5
                },
                {
                    "name": "B3",
                    "midi": 59,
                    "time": 16.5,
                    "velocity": 0.48031496062992124,
                    "duration": 0.0625
                },
                {
                    "name": "C#4",
                    "midi": 61,
                    "time": 16.5625,
                    "velocity": 0.48031496062992124,
                    "duration": 0.0625
                },
                {
                    "name": "B3",
                    "midi": 59,
                    "time": 16.625,
                    "velocity": 0.5669291338582677,
                    "duration": 0.375
                },
                {
                    "name": "A#3",
                    "midi": 58,
                    "time": 17,
                    "velocity": 0.5669291338582677,
                    "duration": 0.5
                },
                {
                    "name": "C#4",
                    "midi": 61,
                    "time": 17.5,
                    "velocity": 0.5354330708661418,
                    "duration": 0.5
                },
                {
                    "name": "B3",
                    "midi": 59,
                    "time": 18,
                    "velocity": 0.4881889763779528,
                    "duration": 0.0625
                },
                {
                    "name": "C#4",
                    "midi": 61,
                    "time": 18.0625,
                    "velocity": 0.49606299212598426,
                    "duration": 0.0625
                },
                {
                    "name": "B3",
                    "midi": 59,
                    "time": 18.125,
                    "velocity": 0.5748031496062992,
                    "duration": 0.125
                },
                {
                    "name": "A#3",
                    "midi": 58,
                    "time": 18.25,
                    "velocity": 0.5196850393700787,
                    "duration": 0.25
                },
                {
                    "name": "F#4",
                    "midi": 66,
                    "time": 18.5,
                    "velocity": 0.5669291338582677,
                    "duration": 0.5
                },
                {
                    "name": "F#5",
                    "midi": 78,
                    "time": 19,
                    "velocity": 0.4566929133858268,
                    "duration": 0.75
                },
                {
                    "name": "B5",
                    "midi": 83,
                    "time": 19.75,
                    "velocity": 0.3937007874015748,
                    "duration": 0.25
                },
                {
                    "name": "G5",
                    "midi": 79,
                    "time": 20,
                    "velocity": 0.3937007874015748,
                    "duration": 0.0625
                },
                {
                    "name": "A5",
                    "midi": 81,
                    "time": 20.0625,
                    "velocity": 0.3937007874015748,
                    "duration": 0.0625
                },
                {
                    "name": "G5",
                    "midi": 79,
                    "time": 20.125,
                    "velocity": 0.44881889763779526,
                    "duration": 0.375
                },
                {
                    "name": "F#5",
                    "midi": 78,
                    "time": 20.5,
                    "velocity": 0.41732283464566927,
                    "duration": 0.25
                },
                {
                    "name": "E5",
                    "midi": 76,
                    "time": 20.75,
                    "velocity": 0.3937007874015748,
                    "duration": 0.25
                },
                {
                    "name": "F#5",
                    "midi": 78,
                    "time": 21,
                    "velocity": 0.4330708661417323,
                    "duration": 0.25
                },
                {
                    "name": "B4",
                    "midi": 71,
                    "time": 21.25,
                    "velocity": 0.3937007874015748,
                    "duration": 1.25
                },
                {
                    "name": "C#5",
                    "midi": 73,
                    "time": 22.5,
                    "velocity": 0.4566929133858268,
                    "duration": 0.25
                },
                {
                    "name": "E5",
                    "midi": 76,
                    "time": 22.75,
                    "velocity": 0.3937007874015748,
                    "duration": 0.25
                },
                {
                    "name": "D5",
                    "midi": 74,
                    "time": 23,
                    "velocity": 0.3937007874015748,
                    "duration": 0.0625
                },
                {
                    "name": "E5",
                    "midi": 76,
                    "time": 23.0625,
                    "velocity": 0.3937007874015748,
                    "duration": 0.0625
                },
                {
                    "name": "D5",
                    "midi": 74,
                    "time": 23.125,
                    "velocity": 0.44881889763779526,
                    "duration": 0.375
                },
                {
                    "name": "C#5",
                    "midi": 73,
                    "time": 23.5,
                    "velocity": 0.41732283464566927,
                    "duration": 0.5
                },
                {
                    "name": "D5",
                    "midi": 74,
                    "time": 24,
                    "velocity": 0.4330708661417323,
                    "duration": 0.25
                },
                {
                    "name": "B4",
                    "midi": 71,
                    "time": 24.25,
                    "velocity": 0.3937007874015748,
                    "duration": 0.75
                },
                {
                    "name": "D3",
                    "midi": 50,
                    "time": 25,
                    "velocity": 0.5196850393700787,
                    "duration": 0.75
                },
                {
                    "name": "G3",
                    "midi": 55,
                    "time": 25.75,
                    "velocity": 0.4566929133858268,
                    "duration": 0.25
                },
                {
                    "name": "E3",
                    "midi": 52,
                    "time": 26,
                    "velocity": 0.5118110236220472,
                    "duration": 0.16666666666666785
                },
                {
                    "name": "F3",
                    "midi": 53,
                    "time": 26.166666666666668,
                    "velocity": 0.44881889763779526,
                    "duration": 0.16666666666666785
                },
                {
                    "name": "E3",
                    "midi": 52,
                    "time": 26.333333333333336,
                    "velocity": 0.4330708661417323,
                    "duration": 0.16666666666666785
                },
                {
                    "name": "D3",
                    "midi": 50,
                    "time": 26.500000000000004,
                    "velocity": 0.49606299212598426,
                    "duration": 0.25
                },
                {
                    "name": "C3",
                    "midi": 48,
                    "time": 26.750000000000004,
                    "velocity": 0.44881889763779526,
                    "duration": 0.25
                },
                {
                    "name": "D3",
                    "midi": 50,
                    "time": 27.000000000000004,
                    "velocity": 0.5039370078740157,
                    "duration": 0.375
                },
                {
                    "name": "G2",
                    "midi": 43,
                    "time": 27.375000000000004,
                    "velocity": 0.4330708661417323,
                    "duration": 0.125
                },
                {
                    "name": "D3",
                    "midi": 50,
                    "time": 27.500000000000004,
                    "velocity": 0.5039370078740157,
                    "duration": 0.5
                },
                {
                    "name": "C3",
                    "midi": 48,
                    "time": 28.000000000000004,
                    "velocity": 0.4645669291338583,
                    "duration": 0.5
                },
                {
                    "name": "D3",
                    "midi": 50,
                    "time": 28.500000000000004,
                    "velocity": 0.5196850393700787,
                    "duration": 0.25
                },
                {
                    "name": "G3",
                    "midi": 55,
                    "time": 28.750000000000004,
                    "velocity": 0.4566929133858268,
                    "duration": 0.25
                },
                {
                    "name": "E3",
                    "midi": 52,
                    "time": 29.000000000000004,
                    "velocity": 0.5118110236220472,
                    "duration": 0.16666666666666785
                },
                {
                    "name": "F3",
                    "midi": 53,
                    "time": 29.16666666666667,
                    "velocity": 0.44881889763779526,
                    "duration": 0.16666666666666785
                },
                {
                    "name": "E3",
                    "midi": 52,
                    "time": 29.33333333333334,
                    "velocity": 0.4330708661417323,
                    "duration": 0.16666666666666785
                },
                {
                    "name": "D3",
                    "midi": 50,
                    "time": 29.500000000000007,
                    "velocity": 0.49606299212598426,
                    "duration": 0.25
                },
                {
                    "name": "C3",
                    "midi": 48,
                    "time": 29.750000000000007,
                    "velocity": 0.44881889763779526,
                    "duration": 0.25
                },
                {
                    "name": "D3",
                    "midi": 50,
                    "time": 30.000000000000007,
                    "velocity": 0.5039370078740157,
                    "duration": 0.375
                },
                {
                    "name": "G2",
                    "midi": 43,
                    "time": 30.375000000000007,
                    "velocity": 0.4251968503937008,
                    "duration": 0.125
                },
                {
                    "name": "D3",
                    "midi": 50,
                    "time": 30.500000000000007,
                    "velocity": 0.4881889763779528,
                    "duration": 0.5
                },
                {
                    "name": "C3",
                    "midi": 48,
                    "time": 31.000000000000007,
                    "velocity": 0.4409448818897638,
                    "duration": 0.5
                },
                {
                    "name": "D3",
                    "midi": 50,
                    "time": 31.500000000000007,
                    "velocity": 0.47244094488188976,
                    "duration": 0.375
                },
                {
                    "name": "G2",
                    "midi": 43,
                    "time": 31.875000000000007,
                    "velocity": 0.4015748031496063,
                    "duration": 0.125
                },
                {
                    "name": "C3",
                    "midi": 48,
                    "time": 32.00000000000001,
                    "velocity": 0.4566929133858268,
                    "duration": 0.5
                },
                {
                    "name": "D3",
                    "midi": 50,
                    "time": 32.50000000000001,
                    "velocity": 0.44881889763779526,
                    "duration": 0.375
                },
                {
                    "name": "G2",
                    "midi": 43,
                    "time": 32.87500000000001,
                    "velocity": 0.3779527559055118,
                    "duration": 0.125
                },
                {
                    "name": "C3",
                    "midi": 48,
                    "time": 33.00000000000001,
                    "velocity": 0.4409448818897638,
                    "duration": 0.5
                },
                {
                    "name": "D3",
                    "midi": 50,
                    "time": 33.50000000000001,
                    "velocity": 0.4330708661417323,
                    "duration": 0.375
                },
                {
                    "name": "G2",
                    "midi": 43,
                    "time": 33.87500000000001,
                    "velocity": 0.36220472440944884,
                    "duration": 0.125
                },
                {
                    "name": "C3",
                    "midi": 48,
                    "time": 34.00000000000001,
                    "velocity": 0.41732283464566927,
                    "duration": 0.5
                },
                {
                    "name": "G2",
                    "midi": 43,
                    "time": 34.50000000000001,
                    "velocity": 0.4094488188976378,
                    "duration": 1.5
                },
                {
                    "name": "F#2",
                    "midi": 42,
                    "time": 36.00000000000001,
                    "velocity": 0.3779527559055118,
                    "duration": 1.5
                },
                {
                    "name": "F#5",
                    "midi": 78,
                    "time": 37.50000000000001,
                    "velocity": 0.4330708661417323,
                    "duration": 0.25
                },
                {
                    "name": "B5",
                    "midi": 83,
                    "time": 37.75000000000001,
                    "velocity": 0.3937007874015748,
                    "duration": 0.25
                },
                {
                    "name": "G5",
                    "midi": 79,
                    "time": 38.00000000000001,
                    "velocity": 0.3937007874015748,
                    "duration": 0.0625
                },
                {
                    "name": "A5",
                    "midi": 81,
                    "time": 38.06250000000001,
                    "velocity": 0.3937007874015748,
                    "duration": 0.0625
                },
                {
                    "name": "G5",
                    "midi": 79,
                    "time": 38.12500000000001,
                    "velocity": 0.44881889763779526,
                    "duration": 0.375
                },
                {
                    "name": "F#5",
                    "midi": 78,
                    "time": 38.50000000000001,
                    "velocity": 0.41732283464566927,
                    "duration": 0.25
                },
                {
                    "name": "E5",
                    "midi": 76,
                    "time": 38.75000000000001,
                    "velocity": 0.3937007874015748,
                    "duration": 0.25
                },
                {
                    "name": "F#5",
                    "midi": 78,
                    "time": 39.00000000000001,
                    "velocity": 0.4330708661417323,
                    "duration": 0.25
                },
                {
                    "name": "B4",
                    "midi": 71,
                    "time": 39.25000000000001,
                    "velocity": 0.3937007874015748,
                    "duration": 1.25
                },
                {
                    "name": "C#5",
                    "midi": 73,
                    "time": 40.50000000000001,
                    "velocity": 0.4566929133858268,
                    "duration": 0.25
                },
                {
                    "name": "E5",
                    "midi": 76,
                    "time": 40.75000000000001,
                    "velocity": 0.3937007874015748,
                    "duration": 0.25
                },
                {
                    "name": "D5",
                    "midi": 74,
                    "time": 41.00000000000001,
                    "velocity": 0.3937007874015748,
                    "duration": 0.0625
                },
                {
                    "name": "E5",
                    "midi": 76,
                    "time": 41.06250000000001,
                    "velocity": 0.3937007874015748,
                    "duration": 0.0625
                },
                {
                    "name": "D5",
                    "midi": 74,
                    "time": 41.12500000000001,
                    "velocity": 0.44881889763779526,
                    "duration": 0.375
                },
                {
                    "name": "C#5",
                    "midi": 73,
                    "time": 41.50000000000001,
                    "velocity": 0.41732283464566927,
                    "duration": 0.5
                },
                {
                    "name": "D5",
                    "midi": 74,
                    "time": 42.00000000000001,
                    "velocity": 0.4330708661417323,
                    "duration": 0.25
                },
                {
                    "name": "B4",
                    "midi": 71,
                    "time": 42.25000000000001,
                    "velocity": 0.3937007874015748,
                    "duration": 1.25
                },
                {
                    "name": "C#5",
                    "midi": 73,
                    "time": 43.50000000000001,
                    "velocity": 0.4566929133858268,
                    "duration": 0.25
                },
                {
                    "name": "B4",
                    "midi": 71,
                    "time": 43.75000000000001,
                    "velocity": 0.3937007874015748,
                    "duration": 0.25
                },
                {
                    "name": "A4",
                    "midi": 69,
                    "time": 44.00000000000001,
                    "velocity": 0.36220472440944884,
                    "duration": 0.0625
                },
                {
                    "name": "B4",
                    "midi": 71,
                    "time": 44.06250000000001,
                    "velocity": 0.3700787401574803,
                    "duration": 0.0625
                },
                {
                    "name": "A4",
                    "midi": 69,
                    "time": 44.12500000000001,
                    "velocity": 0.4330708661417323,
                    "duration": 0.375
                },
                {
                    "name": "G#4",
                    "midi": 68,
                    "time": 44.50000000000001,
                    "velocity": 0.41732283464566927,
                    "duration": 0.5
                },
                {
                    "name": "A4",
                    "midi": 69,
                    "time": 45.00000000000001,
                    "velocity": 0.4330708661417323,
                    "duration": 0.25
                },
                {
                    "name": "C#5",
                    "midi": 73,
                    "time": 45.25000000000001,
                    "velocity": 0.3937007874015748,
                    "duration": 0.5
                },
                {
                    "name": "C#4",
                    "midi": 61,
                    "time": 46.00000000000001,
                    "velocity": 0.5354330708661418,
                    "duration": 0.75
                },
                {
                    "name": "B3",
                    "midi": 59,
                    "time": 46.75000000000001,
                    "velocity": 0.47244094488188976,
                    "duration": 0.25
                },
                {
                    "name": "A3",
                    "midi": 57,
                    "time": 47.00000000000001,
                    "velocity": 0.44881889763779526,
                    "duration": 0.0625
                },
                {
                    "name": "B3",
                    "midi": 59,
                    "time": 47.06250000000001,
                    "velocity": 0.44881889763779526,
                    "duration": 0.0625
                },
                {
                    "name": "A3",
                    "midi": 57,
                    "time": 47.12500000000001,
                    "velocity": 0.5354330708661418,
                    "duration": 0.375
                },
                {
                    "name": "G#3",
                    "midi": 56,
                    "time": 47.50000000000001,
                    "velocity": 0.5275590551181102,
                    "duration": 0.5
                },
                {
                    "name": "A3",
                    "midi": 57,
                    "time": 48.00000000000001,
                    "velocity": 0.5590551181102362,
                    "duration": 0.5
                },
                {
                    "name": "C#4",
                    "midi": 61,
                    "time": 48.50000000000001,
                    "velocity": 0.5275590551181102,
                    "duration": 1
                },
                {
                    "name": "B3",
                    "midi": 59,
                    "time": 49.50000000000001,
                    "velocity": 0.5590551181102362,
                    "duration": 0.5
                },
                {
                    "name": "A3",
                    "midi": 57,
                    "time": 50.00000000000001,
                    "velocity": 0.5354330708661418,
                    "duration": 0.5
                },
                {
                    "name": "C#4",
                    "midi": 61,
                    "time": 50.50000000000001,
                    "velocity": 0.5354330708661418,
                    "duration": 0.5
                },
                {
                    "name": "B3",
                    "midi": 59,
                    "time": 51.00000000000001,
                    "velocity": 0.49606299212598426,
                    "duration": 0.0625
                },
                {
                    "name": "C#4",
                    "midi": 61,
                    "time": 51.06250000000001,
                    "velocity": 0.49606299212598426,
                    "duration": 0.0625
                },
                {
                    "name": "B3",
                    "midi": 59,
                    "time": 51.12500000000001,
                    "velocity": 0.5748031496062992,
                    "duration": 0.125
                },
                {
                    "name": "A3",
                    "midi": 57,
                    "time": 51.25000000000001,
                    "velocity": 0.5196850393700787,
                    "duration": 0.24583333333333002
                },
                {
                    "name": "C#4",
                    "midi": 61,
                    "time": 51.50000000000001,
                    "velocity": 0.5669291338582677,
                    "duration": 0.5
                },
                {
                    "name": "C#4",
                    "midi": 61,
                    "time": 52.00000000000001,
                    "velocity": 0.5354330708661418,
                    "duration": 0.5
                },
                {
                    "name": "B3",
                    "midi": 59,
                    "time": 52.50000000000001,
                    "velocity": 0.48031496062992124,
                    "duration": 0.0625
                },
                {
                    "name": "C#4",
                    "midi": 61,
                    "time": 52.56250000000001,
                    "velocity": 0.48031496062992124,
                    "duration": 0.0625
                },
                {
                    "name": "B3",
                    "midi": 59,
                    "time": 52.62500000000001,
                    "velocity": 0.5669291338582677,
                    "duration": 0.375
                },
                {
                    "name": "A#3",
                    "midi": 58,
                    "time": 53.00000000000001,
                    "velocity": 0.5669291338582677,
                    "duration": 0.5
                },
                {
                    "name": "C#4",
                    "midi": 61,
                    "time": 53.50000000000001,
                    "velocity": 0.5354330708661418,
                    "duration": 0.5
                },
                {
                    "name": "B3",
                    "midi": 59,
                    "time": 54.00000000000001,
                    "velocity": 0.4881889763779528,
                    "duration": 0.0625
                },
                {
                    "name": "C#4",
                    "midi": 61,
                    "time": 54.06250000000001,
                    "velocity": 0.49606299212598426,
                    "duration": 0.0625
                },
                {
                    "name": "B3",
                    "midi": 59,
                    "time": 54.12500000000001,
                    "velocity": 0.5748031496062992,
                    "duration": 0.125
                },
                {
                    "name": "A#3",
                    "midi": 58,
                    "time": 54.25000000000001,
                    "velocity": 0.5196850393700787,
                    "duration": 0.25
                },
                {
                    "name": "F#4",
                    "midi": 66,
                    "time": 54.50000000000001,
                    "velocity": 0.5669291338582677,
                    "duration": 0.5
                },
                {
                    "name": "F#5",
                    "midi": 78,
                    "time": 55.00000000000001,
                    "velocity": 0.4566929133858268,
                    "duration": 0.75
                },
                {
                    "name": "B5",
                    "midi": 83,
                    "time": 55.75000000000001,
                    "velocity": 0.3937007874015748,
                    "duration": 0.25
                },
                {
                    "name": "G5",
                    "midi": 79,
                    "time": 56.00000000000001,
                    "velocity": 0.3937007874015748,
                    "duration": 0.0625
                },
                {
                    "name": "A5",
                    "midi": 81,
                    "time": 56.06250000000001,
                    "velocity": 0.3937007874015748,
                    "duration": 0.0625
                },
                {
                    "name": "G5",
                    "midi": 79,
                    "time": 56.12500000000001,
                    "velocity": 0.44881889763779526,
                    "duration": 0.375
                },
                {
                    "name": "F#5",
                    "midi": 78,
                    "time": 56.50000000000001,
                    "velocity": 0.41732283464566927,
                    "duration": 0.25
                },
                {
                    "name": "E5",
                    "midi": 76,
                    "time": 56.75000000000001,
                    "velocity": 0.3937007874015748,
                    "duration": 0.25
                },
                {
                    "name": "F#5",
                    "midi": 78,
                    "time": 57.00000000000001,
                    "velocity": 0.4330708661417323,
                    "duration": 0.25
                },
                {
                    "name": "B4",
                    "midi": 71,
                    "time": 57.25000000000001,
                    "velocity": 0.3937007874015748,
                    "duration": 1.25
                },
                {
                    "name": "C#5",
                    "midi": 73,
                    "time": 58.50000000000001,
                    "velocity": 0.4566929133858268,
                    "duration": 0.25
                },
                {
                    "name": "E5",
                    "midi": 76,
                    "time": 58.75000000000001,
                    "velocity": 0.3937007874015748,
                    "duration": 0.25
                },
                {
                    "name": "D5",
                    "midi": 74,
                    "time": 59.00000000000001,
                    "velocity": 0.3937007874015748,
                    "duration": 0.0625
                },
                {
                    "name": "E5",
                    "midi": 76,
                    "time": 59.06250000000001,
                    "velocity": 0.3937007874015748,
                    "duration": 0.0625
                },
                {
                    "name": "D5",
                    "midi": 74,
                    "time": 59.12500000000001,
                    "velocity": 0.44881889763779526,
                    "duration": 0.375
                },
                {
                    "name": "C#5",
                    "midi": 73,
                    "time": 59.50000000000001,
                    "velocity": 0.41732283464566927,
                    "duration": 0.5
                },
                {
                    "name": "D5",
                    "midi": 74,
                    "time": 60.00000000000001,
                    "velocity": 0.4330708661417323,
                    "duration": 0.25
                },
                {
                    "name": "B4",
                    "midi": 71,
                    "time": 60.25000000000001,
                    "velocity": 0.3937007874015748,
                    "duration": 0.75
                },
                {
                    "name": "D3",
                    "midi": 50,
                    "time": 61.00000000000001,
                    "velocity": 0.5196850393700787,
                    "duration": 0.75
                },
                {
                    "name": "G3",
                    "midi": 55,
                    "time": 61.75000000000001,
                    "velocity": 0.4566929133858268,
                    "duration": 0.25
                },
                {
                    "name": "E3",
                    "midi": 52,
                    "time": 62.00000000000001,
                    "velocity": 0.5118110236220472,
                    "duration": 0.1666666666666643
                },
                {
                    "name": "F3",
                    "midi": 53,
                    "time": 62.16666666666667,
                    "velocity": 0.44881889763779526,
                    "duration": 0.1666666666666643
                },
                {
                    "name": "E3",
                    "midi": 52,
                    "time": 62.333333333333336,
                    "velocity": 0.4330708661417323,
                    "duration": 0.1666666666666643
                },
                {
                    "name": "D3",
                    "midi": 50,
                    "time": 62.5,
                    "velocity": 0.49606299212598426,
                    "duration": 0.25
                },
                {
                    "name": "C3",
                    "midi": 48,
                    "time": 62.75,
                    "velocity": 0.44881889763779526,
                    "duration": 0.25
                },
                {
                    "name": "D3",
                    "midi": 50,
                    "time": 63,
                    "velocity": 0.5039370078740157,
                    "duration": 0.375
                },
                {
                    "name": "G2",
                    "midi": 43,
                    "time": 63.375,
                    "velocity": 0.4330708661417323,
                    "duration": 0.125
                },
                {
                    "name": "D3",
                    "midi": 50,
                    "time": 63.5,
                    "velocity": 0.5039370078740157,
                    "duration": 0.5
                },
                {
                    "name": "C3",
                    "midi": 48,
                    "time": 64,
                    "velocity": 0.4645669291338583,
                    "duration": 0.5
                },
                {
                    "name": "D3",
                    "midi": 50,
                    "time": 64.5,
                    "velocity": 0.5196850393700787,
                    "duration": 0.25
                },
                {
                    "name": "G3",
                    "midi": 55,
                    "time": 64.75,
                    "velocity": 0.4566929133858268,
                    "duration": 0.25
                },
                {
                    "name": "E3",
                    "midi": 52,
                    "time": 65,
                    "velocity": 0.5118110236220472,
                    "duration": 0.1666666666666714
                },
                {
                    "name": "F3",
                    "midi": 53,
                    "time": 65.16666666666667,
                    "velocity": 0.44881889763779526,
                    "duration": 0.1666666666666714
                },
                {
                    "name": "E3",
                    "midi": 52,
                    "time": 65.33333333333334,
                    "velocity": 0.4330708661417323,
                    "duration": 0.1666666666666714
                },
                {
                    "name": "D3",
                    "midi": 50,
                    "time": 65.50000000000001,
                    "velocity": 0.49606299212598426,
                    "duration": 0.25
                },
                {
                    "name": "C3",
                    "midi": 48,
                    "time": 65.75000000000001,
                    "velocity": 0.44881889763779526,
                    "duration": 0.25
                },
                {
                    "name": "D3",
                    "midi": 50,
                    "time": 66.00000000000001,
                    "velocity": 0.5039370078740157,
                    "duration": 0.375
                },
                {
                    "name": "G2",
                    "midi": 43,
                    "time": 66.37500000000001,
                    "velocity": 0.4251968503937008,
                    "duration": 0.125
                },
                {
                    "name": "D3",
                    "midi": 50,
                    "time": 66.50000000000001,
                    "velocity": 0.4881889763779528,
                    "duration": 0.5
                },
                {
                    "name": "C3",
                    "midi": 48,
                    "time": 67.00000000000001,
                    "velocity": 0.4409448818897638,
                    "duration": 0.5
                },
                {
                    "name": "D3",
                    "midi": 50,
                    "time": 67.50000000000001,
                    "velocity": 0.47244094488188976,
                    "duration": 0.375
                },
                {
                    "name": "G2",
                    "midi": 43,
                    "time": 67.87500000000001,
                    "velocity": 0.4015748031496063,
                    "duration": 0.125
                },
                {
                    "name": "C3",
                    "midi": 48,
                    "time": 68.00000000000001,
                    "velocity": 0.4566929133858268,
                    "duration": 0.5
                },
                {
                    "name": "D3",
                    "midi": 50,
                    "time": 68.50000000000001,
                    "velocity": 0.44881889763779526,
                    "duration": 0.375
                },
                {
                    "name": "G2",
                    "midi": 43,
                    "time": 68.87500000000001,
                    "velocity": 0.3779527559055118,
                    "duration": 0.125
                },
                {
                    "name": "C3",
                    "midi": 48,
                    "time": 69.00000000000001,
                    "velocity": 0.4409448818897638,
                    "duration": 0.5
                },
                {
                    "name": "D3",
                    "midi": 50,
                    "time": 69.50000000000001,
                    "velocity": 0.4330708661417323,
                    "duration": 0.375
                },
                {
                    "name": "G2",
                    "midi": 43,
                    "time": 69.87500000000001,
                    "velocity": 0.36220472440944884,
                    "duration": 0.125
                },
                {
                    "name": "C3",
                    "midi": 48,
                    "time": 70.00000000000001,
                    "velocity": 0.41732283464566927,
                    "duration": 0.5
                },
                {
                    "name": "G2",
                    "midi": 43,
                    "time": 70.50000000000001,
                    "velocity": 0.4094488188976378,
                    "duration": 1.5
                },
                {
                    "name": "F#2",
                    "midi": 42,
                    "time": 72.00000000000001,
                    "velocity": 0.47244094488188976,
                    "duration": 1
                },
                {
                    "name": "F2",
                    "midi": 41,
                    "time": 73.00000000000001,
                    "velocity": 0.5196850393700787,
                    "duration": 0.5
                },
                {
                    "name": "F4",
                    "midi": 65,
                    "time": 74.00000000000001,
                    "velocity": 0.5354330708661418,
                    "duration": 0.5
                },
                {
                    "name": "A#4",
                    "midi": 70,
                    "time": 74.00000000000001,
                    "velocity": 0.5354330708661418,
                    "duration": 0.5
                },
                {
                    "name": "D5",
                    "midi": 74,
                    "time": 74.00000000000001,
                    "velocity": 0.6299212598425197,
                    "duration": 0.5
                },
                {
                    "name": "F#4",
                    "midi": 66,
                    "time": 74.50000000000001,
                    "velocity": 0.5354330708661418,
                    "duration": 0.5
                },
                {
                    "name": "A#4",
                    "midi": 70,
                    "time": 74.50000000000001,
                    "velocity": 0.5354330708661418,
                    "duration": 0.5
                },
                {
                    "name": "D#5",
                    "midi": 75,
                    "time": 74.50000000000001,
                    "velocity": 0.6299212598425197,
                    "duration": 0.5
                },
                {
                    "name": "F#5",
                    "midi": 78,
                    "time": 75.00000000000001,
                    "velocity": 0.6771653543307087,
                    "duration": 0.125
                },
                {
                    "name": "F5",
                    "midi": 77,
                    "time": 75.37500000000001,
                    "velocity": 0.6299212598425197,
                    "duration": 0.5
                },
                {
                    "name": "D5",
                    "midi": 74,
                    "time": 75.37500000000001,
                    "velocity": 0.48031496062992124,
                    "duration": 0.125
                },
                {
                    "name": "C5",
                    "midi": 72,
                    "time": 75.50000000000001,
                    "velocity": 0.48031496062992124,
                    "duration": 0.375
                },
                {
                    "name": "D5",
                    "midi": 74,
                    "time": 75.87500000000001,
                    "velocity": 0.48031496062992124,
                    "duration": 0.125
                },
                {
                    "name": "F5",
                    "midi": 77,
                    "time": 75.87500000000001,
                    "velocity": 0.6299212598425197,
                    "duration": 0.5
                },
                {
                    "name": "A#4",
                    "midi": 70,
                    "time": 76.00000000000001,
                    "velocity": 0.6299212598425197,
                    "duration": 0.5
                },
                {
                    "name": "A#5",
                    "midi": 82,
                    "time": 76.50000000000001,
                    "velocity": 0.6692913385826772,
                    "duration": 0.25
                },
                {
                    "name": "F4",
                    "midi": 65,
                    "time": 77.00000000000001,
                    "velocity": 0.5354330708661418,
                    "duration": 0.5
                },
                {
                    "name": "A#4",
                    "midi": 70,
                    "time": 77.00000000000001,
                    "velocity": 0.5354330708661418,
                    "duration": 0.5
                },
                {
                    "name": "D5",
                    "midi": 74,
                    "time": 77.00000000000001,
                    "velocity": 0.6299212598425197,
                    "duration": 0.5
                },
                {
                    "name": "F#4",
                    "midi": 66,
                    "time": 77.50000000000001,
                    "velocity": 0.5354330708661418,
                    "duration": 0.5
                },
                {
                    "name": "A#4",
                    "midi": 70,
                    "time": 77.50000000000001,
                    "velocity": 0.5354330708661418,
                    "duration": 0.5
                },
                {
                    "name": "D#5",
                    "midi": 75,
                    "time": 77.50000000000001,
                    "velocity": 0.6299212598425197,
                    "duration": 0.5
                },
                {
                    "name": "F#5",
                    "midi": 78,
                    "time": 78.00000000000001,
                    "velocity": 0.6771653543307087,
                    "duration": 0.125
                },
                {
                    "name": "F5",
                    "midi": 77,
                    "time": 78.37500000000001,
                    "velocity": 0.6299212598425197,
                    "duration": 0.5
                },
                {
                    "name": "D5",
                    "midi": 74,
                    "time": 78.37500000000001,
                    "velocity": 0.48031496062992124,
                    "duration": 0.125
                },
                {
                    "name": "C5",
                    "midi": 72,
                    "time": 78.50000000000001,
                    "velocity": 0.48031496062992124,
                    "duration": 0.375
                },
                {
                    "name": "D5",
                    "midi": 74,
                    "time": 78.87500000000001,
                    "velocity": 0.48031496062992124,
                    "duration": 0.125
                },
                {
                    "name": "F5",
                    "midi": 77,
                    "time": 78.87500000000001,
                    "velocity": 0.6299212598425197,
                    "duration": 0.5
                },
                {
                    "name": "A#4",
                    "midi": 70,
                    "time": 79.00000000000001,
                    "velocity": 0.6299212598425197,
                    "duration": 0.5
                },
                {
                    "name": "F4",
                    "midi": 65,
                    "time": 80.00000000000001,
                    "velocity": 0.5354330708661418,
                    "duration": 0.5
                },
                {
                    "name": "A#4",
                    "midi": 70,
                    "time": 80.00000000000001,
                    "velocity": 0.5354330708661418,
                    "duration": 0.5
                },
                {
                    "name": "D5",
                    "midi": 74,
                    "time": 80.00000000000001,
                    "velocity": 0.6299212598425197,
                    "duration": 0.5
                },
                {
                    "name": "F#4",
                    "midi": 66,
                    "time": 80.50000000000001,
                    "velocity": 0.5354330708661418,
                    "duration": 0.5
                },
                {
                    "name": "A#4",
                    "midi": 70,
                    "time": 80.50000000000001,
                    "velocity": 0.5354330708661418,
                    "duration": 0.5
                },
                {
                    "name": "D#5",
                    "midi": 75,
                    "time": 80.50000000000001,
                    "velocity": 0.6299212598425197,
                    "duration": 0.5
                },
                {
                    "name": "F#5",
                    "midi": 78,
                    "time": 81.00000000000001,
                    "velocity": 0.6771653543307087,
                    "duration": 0.125
                },
                {
                    "name": "F5",
                    "midi": 77,
                    "time": 81.37500000000001,
                    "velocity": 0.6299212598425197,
                    "duration": 0.5
                },
                {
                    "name": "D5",
                    "midi": 74,
                    "time": 81.37500000000001,
                    "velocity": 0.48031496062992124,
                    "duration": 0.125
                },
                {
                    "name": "C5",
                    "midi": 72,
                    "time": 81.50000000000001,
                    "velocity": 0.48031496062992124,
                    "duration": 0.375
                },
                {
                    "name": "D5",
                    "midi": 74,
                    "time": 81.87500000000001,
                    "velocity": 0.48031496062992124,
                    "duration": 0.125
                },
                {
                    "name": "F5",
                    "midi": 77,
                    "time": 81.87500000000001,
                    "velocity": 0.6299212598425197,
                    "duration": 0.5
                },
                {
                    "name": "A#4",
                    "midi": 70,
                    "time": 82.00000000000001,
                    "velocity": 0.6299212598425197,
                    "duration": 0.5
                },
                {
                    "name": "A#6",
                    "midi": 94,
                    "time": 82.50000000000001,
                    "velocity": 0.6692913385826772,
                    "duration": 0.25
                },
                {
                    "name": "A#5",
                    "midi": 82,
                    "time": 82.50000000000001,
                    "velocity": 0.6299212598425197,
                    "duration": 0.25
                },
                {
                    "name": "F4",
                    "midi": 65,
                    "time": 83.00000000000001,
                    "velocity": 0.5354330708661418,
                    "duration": 0.5
                },
                {
                    "name": "A#4",
                    "midi": 70,
                    "time": 83.00000000000001,
                    "velocity": 0.5354330708661418,
                    "duration": 0.5
                },
                {
                    "name": "D5",
                    "midi": 74,
                    "time": 83.00000000000001,
                    "velocity": 0.6299212598425197,
                    "duration": 0.5
                },
                {
                    "name": "F#4",
                    "midi": 66,
                    "time": 83.50000000000001,
                    "velocity": 0.5354330708661418,
                    "duration": 0.5
                },
                {
                    "name": "A#4",
                    "midi": 70,
                    "time": 83.50000000000001,
                    "velocity": 0.5354330708661418,
                    "duration": 0.5
                },
                {
                    "name": "D#5",
                    "midi": 75,
                    "time": 83.50000000000001,
                    "velocity": 0.6299212598425197,
                    "duration": 0.5
                },
                {
                    "name": "F#5",
                    "midi": 78,
                    "time": 84.00000000000001,
                    "velocity": 0.6771653543307087,
                    "duration": 0.125
                },
                {
                    "name": "F5",
                    "midi": 77,
                    "time": 84.37500000000001,
                    "velocity": 0.6299212598425197,
                    "duration": 0.5
                },
                {
                    "name": "D5",
                    "midi": 74,
                    "time": 84.37500000000001,
                    "velocity": 0.48031496062992124,
                    "duration": 0.125
                },
                {
                    "name": "C5",
                    "midi": 72,
                    "time": 84.50000000000001,
                    "velocity": 0.48031496062992124,
                    "duration": 0.375
                },
                {
                    "name": "D5",
                    "midi": 74,
                    "time": 84.87500000000001,
                    "velocity": 0.48031496062992124,
                    "duration": 0.125
                },
                {
                    "name": "F5",
                    "midi": 77,
                    "time": 84.87500000000001,
                    "velocity": 0.6299212598425197,
                    "duration": 0.5
                },
                {
                    "name": "A#4",
                    "midi": 70,
                    "time": 85.00000000000001,
                    "velocity": 0.6299212598425197,
                    "duration": 0.5
                },
                {
                    "name": "A#4",
                    "midi": 70,
                    "time": 86.00000000000001,
                    "velocity": 0.5354330708661418,
                    "duration": 0.5
                },
                {
                    "name": "D#5",
                    "midi": 75,
                    "time": 86.00000000000001,
                    "velocity": 0.5354330708661418,
                    "duration": 0.5
                },
                {
                    "name": "G5",
                    "midi": 79,
                    "time": 86.00000000000001,
                    "velocity": 0.6299212598425197,
                    "duration": 0.5
                },
                {
                    "name": "B4",
                    "midi": 71,
                    "time": 86.50000000000001,
                    "velocity": 0.5354330708661418,
                    "duration": 0.5
                },
                {
                    "name": "D#5",
                    "midi": 75,
                    "time": 86.50000000000001,
                    "velocity": 0.5354330708661418,
                    "duration": 0.5
                },
                {
                    "name": "G#5",
                    "midi": 80,
                    "time": 86.50000000000001,
                    "velocity": 0.6299212598425197,
                    "duration": 0.5
                },
                {
                    "name": "B5",
                    "midi": 83,
                    "time": 87.00000000000001,
                    "velocity": 0.6929133858267716,
                    "duration": 0.125
                },
                {
                    "name": "A#5",
                    "midi": 82,
                    "time": 87.37500000000001,
                    "velocity": 0.6929133858267716,
                    "duration": 0.5
                },
                {
                    "name": "G5",
                    "midi": 79,
                    "time": 87.37500000000001,
                    "velocity": 0.48031496062992124,
                    "duration": 0.125
                },
                {
                    "name": "F5",
                    "midi": 77,
                    "time": 87.50000000000001,
                    "velocity": 0.48031496062992124,
                    "duration": 0.375
                },
                {
                    "name": "G5",
                    "midi": 79,
                    "time": 87.87500000000001,
                    "velocity": 0.48031496062992124,
                    "duration": 0.125
                },
                {
                    "name": "A#5",
                    "midi": 82,
                    "time": 87.87500000000001,
                    "velocity": 0.6929133858267716,
                    "duration": 0.5
                },
                {
                    "name": "D#5",
                    "midi": 75,
                    "time": 88.00000000000001,
                    "velocity": 0.6299212598425197,
                    "duration": 0.5
                },
                {
                    "name": "D#7",
                    "midi": 99,
                    "time": 88.50000000000001,
                    "velocity": 0.7322834645669292,
                    "duration": 0.25
                },
                {
                    "name": "D#6",
                    "midi": 87,
                    "time": 88.50000000000001,
                    "velocity": 0.6929133858267716,
                    "duration": 0.25
                },
                {
                    "name": "A#4",
                    "midi": 70,
                    "time": 89.00000000000001,
                    "velocity": 0.5354330708661418,
                    "duration": 0.5
                },
                {
                    "name": "D#5",
                    "midi": 75,
                    "time": 89.00000000000001,
                    "velocity": 0.5354330708661418,
                    "duration": 0.5
                },
                {
                    "name": "G5",
                    "midi": 79,
                    "time": 89.00000000000001,
                    "velocity": 0.6299212598425197,
                    "duration": 0.5
                },
                {
                    "name": "B4",
                    "midi": 71,
                    "time": 89.50000000000001,
                    "velocity": 0.5354330708661418,
                    "duration": 0.5
                },
                {
                    "name": "D#5",
                    "midi": 75,
                    "time": 89.50000000000001,
                    "velocity": 0.5354330708661418,
                    "duration": 0.5
                },
                {
                    "name": "G#5",
                    "midi": 80,
                    "time": 89.50000000000001,
                    "velocity": 0.6299212598425197,
                    "duration": 0.5
                },
                {
                    "name": "B5",
                    "midi": 83,
                    "time": 90.00000000000001,
                    "velocity": 0.6850393700787402,
                    "duration": 0.125
                },
                {
                    "name": "A#5",
                    "midi": 82,
                    "time": 90.37500000000001,
                    "velocity": 0.6929133858267716,
                    "duration": 0.5
                },
                {
                    "name": "G5",
                    "midi": 79,
                    "time": 90.37500000000001,
                    "velocity": 0.48031496062992124,
                    "duration": 0.125
                },
                {
                    "name": "F5",
                    "midi": 77,
                    "time": 90.50000000000001,
                    "velocity": 0.48031496062992124,
                    "duration": 0.375
                },
                {
                    "name": "G5",
                    "midi": 79,
                    "time": 90.87500000000001,
                    "velocity": 0.48031496062992124,
                    "duration": 0.125
                },
                {
                    "name": "A#5",
                    "midi": 82,
                    "time": 90.87500000000001,
                    "velocity": 0.6929133858267716,
                    "duration": 0.5
                },
                {
                    "name": "E5",
                    "midi": 76,
                    "time": 91.00000000000001,
                    "velocity": 0.6299212598425197,
                    "duration": 2
                },
                {
                    "name": "A#4",
                    "midi": 70,
                    "time": 92.00000000000001,
                    "velocity": 0.5354330708661418,
                    "duration": 0.5
                },
                {
                    "name": "G5",
                    "midi": 79,
                    "time": 92.00000000000001,
                    "velocity": 0.6299212598425197,
                    "duration": 0.5
                },
                {
                    "name": "B4",
                    "midi": 71,
                    "time": 92.50000000000001,
                    "velocity": 0.5118110236220472,
                    "duration": 0.5
                },
                {
                    "name": "G#5",
                    "midi": 80,
                    "time": 92.50000000000001,
                    "velocity": 0.6062992125984252,
                    "duration": 0.5
                },
                {
                    "name": "A#4",
                    "midi": 70,
                    "time": 93.00000000000001,
                    "velocity": 0.5118110236220472,
                    "duration": 3
                },
                {
                    "name": "D#5",
                    "midi": 75,
                    "time": 93.00000000000001,
                    "velocity": 0.5118110236220472,
                    "duration": 0.5
                },
                {
                    "name": "G5",
                    "midi": 79,
                    "time": 93.00000000000001,
                    "velocity": 0.6062992125984252,
                    "duration": 0.5
                },
                {
                    "name": "C#5",
                    "midi": 73,
                    "time": 93.50000000000001,
                    "velocity": 0.4881889763779528,
                    "duration": 2
                },
                {
                    "name": "F#5",
                    "midi": 78,
                    "time": 93.50000000000001,
                    "velocity": 0.5826771653543307,
                    "duration": 0.5
                },
                {
                    "name": "F5",
                    "midi": 77,
                    "time": 94.00000000000001,
                    "velocity": 0.5590551181102362,
                    "duration": 0.5
                },
                {
                    "name": "E5",
                    "midi": 76,
                    "time": 94.50000000000001,
                    "velocity": 0.5433070866141733,
                    "duration": 1.5
                },
                {
                    "name": "F#5",
                    "midi": 78,
                    "time": 97.50000000000001,
                    "velocity": 0.4330708661417323,
                    "duration": 0.25
                },
                {
                    "name": "B5",
                    "midi": 83,
                    "time": 97.75000000000001,
                    "velocity": 0.3937007874015748,
                    "duration": 0.25
                },
                {
                    "name": "G5",
                    "midi": 79,
                    "time": 98.00000000000001,
                    "velocity": 0.3937007874015748,
                    "duration": 0.0625
                },
                {
                    "name": "A5",
                    "midi": 81,
                    "time": 98.06250000000001,
                    "velocity": 0.3937007874015748,
                    "duration": 0.0625
                },
                {
                    "name": "G5",
                    "midi": 79,
                    "time": 98.12500000000001,
                    "velocity": 0.44881889763779526,
                    "duration": 0.375
                },
                {
                    "name": "F#5",
                    "midi": 78,
                    "time": 98.50000000000001,
                    "velocity": 0.41732283464566927,
                    "duration": 0.25
                },
                {
                    "name": "E5",
                    "midi": 76,
                    "time": 98.75000000000001,
                    "velocity": 0.3937007874015748,
                    "duration": 0.25
                },
                {
                    "name": "F#5",
                    "midi": 78,
                    "time": 99.00000000000001,
                    "velocity": 0.4330708661417323,
                    "duration": 0.25
                },
                {
                    "name": "B4",
                    "midi": 71,
                    "time": 99.25000000000001,
                    "velocity": 0.3937007874015748,
                    "duration": 1.25
                },
                {
                    "name": "C#5",
                    "midi": 73,
                    "time": 100.50000000000001,
                    "velocity": 0.4566929133858268,
                    "duration": 0.25
                },
                {
                    "name": "E5",
                    "midi": 76,
                    "time": 100.75000000000001,
                    "velocity": 0.3937007874015748,
                    "duration": 0.25
                },
                {
                    "name": "D5",
                    "midi": 74,
                    "time": 101.00000000000001,
                    "velocity": 0.3937007874015748,
                    "duration": 0.0625
                },
                {
                    "name": "E5",
                    "midi": 76,
                    "time": 101.06250000000001,
                    "velocity": 0.3937007874015748,
                    "duration": 0.0625
                },
                {
                    "name": "D5",
                    "midi": 74,
                    "time": 101.12500000000001,
                    "velocity": 0.44881889763779526,
                    "duration": 0.375
                },
                {
                    "name": "C#5",
                    "midi": 73,
                    "time": 101.50000000000001,
                    "velocity": 0.41732283464566927,
                    "duration": 0.5
                },
                {
                    "name": "D5",
                    "midi": 74,
                    "time": 102.00000000000001,
                    "velocity": 0.4330708661417323,
                    "duration": 0.25
                },
                {
                    "name": "B4",
                    "midi": 71,
                    "time": 102.25000000000001,
                    "velocity": 0.3937007874015748,
                    "duration": 1.25
                },
                {
                    "name": "C#5",
                    "midi": 73,
                    "time": 103.50000000000001,
                    "velocity": 0.4566929133858268,
                    "duration": 0.25
                },
                {
                    "name": "B4",
                    "midi": 71,
                    "time": 103.75000000000001,
                    "velocity": 0.3937007874015748,
                    "duration": 0.25
                },
                {
                    "name": "A4",
                    "midi": 69,
                    "time": 104.00000000000001,
                    "velocity": 0.36220472440944884,
                    "duration": 0.0625
                },
                {
                    "name": "B4",
                    "midi": 71,
                    "time": 104.06250000000001,
                    "velocity": 0.3700787401574803,
                    "duration": 0.0625
                },
                {
                    "name": "A4",
                    "midi": 69,
                    "time": 104.12500000000001,
                    "velocity": 0.4330708661417323,
                    "duration": 0.375
                },
                {
                    "name": "G#4",
                    "midi": 68,
                    "time": 104.50000000000001,
                    "velocity": 0.41732283464566927,
                    "duration": 0.5
                },
                {
                    "name": "A4",
                    "midi": 69,
                    "time": 105.00000000000001,
                    "velocity": 0.4330708661417323,
                    "duration": 0.25
                },
                {
                    "name": "C#5",
                    "midi": 73,
                    "time": 105.25000000000001,
                    "velocity": 0.3937007874015748,
                    "duration": 0.5
                },
                {
                    "name": "C#4",
                    "midi": 61,
                    "time": 106.00000000000001,
                    "velocity": 0.5354330708661418,
                    "duration": 0.75
                },
                {
                    "name": "B3",
                    "midi": 59,
                    "time": 106.75000000000001,
                    "velocity": 0.47244094488188976,
                    "duration": 0.25
                },
                {
                    "name": "A3",
                    "midi": 57,
                    "time": 107.00000000000001,
                    "velocity": 0.44881889763779526,
                    "duration": 0.0625
                },
                {
                    "name": "B3",
                    "midi": 59,
                    "time": 107.06250000000001,
                    "velocity": 0.44881889763779526,
                    "duration": 0.0625
                },
                {
                    "name": "A3",
                    "midi": 57,
                    "time": 107.12500000000001,
                    "velocity": 0.5354330708661418,
                    "duration": 0.375
                },
                {
                    "name": "G#3",
                    "midi": 56,
                    "time": 107.50000000000001,
                    "velocity": 0.5275590551181102,
                    "duration": 0.5
                },
                {
                    "name": "A3",
                    "midi": 57,
                    "time": 108.00000000000001,
                    "velocity": 0.5590551181102362,
                    "duration": 0.5
                },
                {
                    "name": "C#4",
                    "midi": 61,
                    "time": 108.50000000000001,
                    "velocity": 0.5275590551181102,
                    "duration": 1
                },
                {
                    "name": "B3",
                    "midi": 59,
                    "time": 109.50000000000001,
                    "velocity": 0.5590551181102362,
                    "duration": 0.5
                },
                {
                    "name": "A3",
                    "midi": 57,
                    "time": 110.00000000000001,
                    "velocity": 0.5354330708661418,
                    "duration": 0.5
                },
                {
                    "name": "C#4",
                    "midi": 61,
                    "time": 110.50000000000001,
                    "velocity": 0.5354330708661418,
                    "duration": 0.5
                },
                {
                    "name": "B3",
                    "midi": 59,
                    "time": 111.00000000000001,
                    "velocity": 0.49606299212598426,
                    "duration": 0.0625
                },
                {
                    "name": "C#4",
                    "midi": 61,
                    "time": 111.06250000000001,
                    "velocity": 0.49606299212598426,
                    "duration": 0.0625
                },
                {
                    "name": "B3",
                    "midi": 59,
                    "time": 111.12500000000001,
                    "velocity": 0.5748031496062992,
                    "duration": 0.125
                },
                {
                    "name": "A3",
                    "midi": 57,
                    "time": 111.25000000000001,
                    "velocity": 0.5196850393700787,
                    "duration": 0.24687500000000284
                },
                {
                    "name": "C#4",
                    "midi": 61,
                    "time": 111.50000000000001,
                    "velocity": 0.5669291338582677,
                    "duration": 0.5
                },
                {
                    "name": "C#4",
                    "midi": 61,
                    "time": 112.00000000000001,
                    "velocity": 0.5354330708661418,
                    "duration": 0.5
                },
                {
                    "name": "B3",
                    "midi": 59,
                    "time": 112.50000000000001,
                    "velocity": 0.48031496062992124,
                    "duration": 0.0625
                },
                {
                    "name": "C#4",
                    "midi": 61,
                    "time": 112.56250000000001,
                    "velocity": 0.48031496062992124,
                    "duration": 0.0625
                },
                {
                    "name": "B3",
                    "midi": 59,
                    "time": 112.62500000000001,
                    "velocity": 0.5669291338582677,
                    "duration": 0.375
                },
                {
                    "name": "A#3",
                    "midi": 58,
                    "time": 113.00000000000001,
                    "velocity": 0.5669291338582677,
                    "duration": 0.5
                },
                {
                    "name": "C#4",
                    "midi": 61,
                    "time": 113.50000000000001,
                    "velocity": 0.5354330708661418,
                    "duration": 0.5
                },
                {
                    "name": "B3",
                    "midi": 59,
                    "time": 114.00000000000001,
                    "velocity": 0.4881889763779528,
                    "duration": 0.0625
                },
                {
                    "name": "C#4",
                    "midi": 61,
                    "time": 114.06250000000001,
                    "velocity": 0.49606299212598426,
                    "duration": 0.0625
                },
                {
                    "name": "B3",
                    "midi": 59,
                    "time": 114.12500000000001,
                    "velocity": 0.5748031496062992,
                    "duration": 0.125
                },
                {
                    "name": "A#3",
                    "midi": 58,
                    "time": 114.25000000000001,
                    "velocity": 0.5196850393700787,
                    "duration": 0.25
                },
                {
                    "name": "F#4",
                    "midi": 66,
                    "time": 114.50000000000001,
                    "velocity": 0.5669291338582677,
                    "duration": 0.5
                },
                {
                    "name": "F#5",
                    "midi": 78,
                    "time": 115.00000000000001,
                    "velocity": 0.4566929133858268,
                    "duration": 0.75
                },
                {
                    "name": "B5",
                    "midi": 83,
                    "time": 115.75000000000001,
                    "velocity": 0.3937007874015748,
                    "duration": 0.25
                },
                {
                    "name": "G5",
                    "midi": 79,
                    "time": 116.00000000000001,
                    "velocity": 0.3937007874015748,
                    "duration": 0.0625
                },
                {
                    "name": "A5",
                    "midi": 81,
                    "time": 116.06250000000001,
                    "velocity": 0.3937007874015748,
                    "duration": 0.0625
                },
                {
                    "name": "G5",
                    "midi": 79,
                    "time": 116.12500000000001,
                    "velocity": 0.44881889763779526,
                    "duration": 0.375
                },
                {
                    "name": "F#5",
                    "midi": 78,
                    "time": 116.50000000000001,
                    "velocity": 0.41732283464566927,
                    "duration": 0.25
                },
                {
                    "name": "E5",
                    "midi": 76,
                    "time": 116.75000000000001,
                    "velocity": 0.3937007874015748,
                    "duration": 0.25
                },
                {
                    "name": "F#5",
                    "midi": 78,
                    "time": 117.00000000000001,
                    "velocity": 0.4330708661417323,
                    "duration": 0.25
                },
                {
                    "name": "B4",
                    "midi": 71,
                    "time": 117.25000000000001,
                    "velocity": 0.3937007874015748,
                    "duration": 1.25
                },
                {
                    "name": "C#5",
                    "midi": 73,
                    "time": 118.50000000000001,
                    "velocity": 0.4566929133858268,
                    "duration": 0.25
                },
                {
                    "name": "E5",
                    "midi": 76,
                    "time": 118.75000000000001,
                    "velocity": 0.3937007874015748,
                    "duration": 0.25
                },
                {
                    "name": "D5",
                    "midi": 74,
                    "time": 119.00000000000001,
                    "velocity": 0.3937007874015748,
                    "duration": 0.0625
                },
                {
                    "name": "E5",
                    "midi": 76,
                    "time": 119.06250000000001,
                    "velocity": 0.3937007874015748,
                    "duration": 0.0625
                },
                {
                    "name": "D5",
                    "midi": 74,
                    "time": 119.12500000000001,
                    "velocity": 0.44881889763779526,
                    "duration": 0.375
                },
                {
                    "name": "C#5",
                    "midi": 73,
                    "time": 119.50000000000001,
                    "velocity": 0.41732283464566927,
                    "duration": 0.5
                },
                {
                    "name": "D5",
                    "midi": 74,
                    "time": 120.00000000000001,
                    "velocity": 0.4330708661417323,
                    "duration": 0.25
                },
                {
                    "name": "B4",
                    "midi": 71,
                    "time": 120.25000000000001,
                    "velocity": 0.3937007874015748,
                    "duration": 0.75
                },
                {
                    "name": "D3",
                    "midi": 50,
                    "time": 121.00000000000001,
                    "velocity": 0.5196850393700787,
                    "duration": 0.75
                },
                {
                    "name": "G3",
                    "midi": 55,
                    "time": 121.75000000000001,
                    "velocity": 0.4566929133858268,
                    "duration": 0.25
                },
                {
                    "name": "E3",
                    "midi": 52,
                    "time": 122.00000000000001,
                    "velocity": 0.5118110236220472,
                    "duration": 0.1666666666666714
                },
                {
                    "name": "F3",
                    "midi": 53,
                    "time": 122.16666666666669,
                    "velocity": 0.44881889763779526,
                    "duration": 0.1666666666666714
                },
                {
                    "name": "E3",
                    "midi": 52,
                    "time": 122.33333333333336,
                    "velocity": 0.4330708661417323,
                    "duration": 0.1666666666666714
                },
                {
                    "name": "D3",
                    "midi": 50,
                    "time": 122.50000000000003,
                    "velocity": 0.49606299212598426,
                    "duration": 0.25
                },
                {
                    "name": "C3",
                    "midi": 48,
                    "time": 122.75000000000003,
                    "velocity": 0.44881889763779526,
                    "duration": 0.25
                },
                {
                    "name": "D3",
                    "midi": 50,
                    "time": 123.00000000000003,
                    "velocity": 0.5039370078740157,
                    "duration": 0.375
                },
                {
                    "name": "G2",
                    "midi": 43,
                    "time": 123.37500000000003,
                    "velocity": 0.4330708661417323,
                    "duration": 0.125
                },
                {
                    "name": "D3",
                    "midi": 50,
                    "time": 123.50000000000003,
                    "velocity": 0.5039370078740157,
                    "duration": 0.5
                },
                {
                    "name": "C3",
                    "midi": 48,
                    "time": 124.00000000000003,
                    "velocity": 0.4645669291338583,
                    "duration": 0.5
                },
                {
                    "name": "D3",
                    "midi": 50,
                    "time": 124.50000000000003,
                    "velocity": 0.5196850393700787,
                    "duration": 0.25
                },
                {
                    "name": "G3",
                    "midi": 55,
                    "time": 124.75000000000003,
                    "velocity": 0.4566929133858268,
                    "duration": 0.25
                },
                {
                    "name": "E3",
                    "midi": 52,
                    "time": 125.00000000000003,
                    "velocity": 0.5118110236220472,
                    "duration": 0.1666666666666714
                },
                {
                    "name": "F3",
                    "midi": 53,
                    "time": 125.1666666666667,
                    "velocity": 0.44881889763779526,
                    "duration": 0.1666666666666714
                },
                {
                    "name": "E3",
                    "midi": 52,
                    "time": 125.33333333333337,
                    "velocity": 0.4330708661417323,
                    "duration": 0.1666666666666714
                },
                {
                    "name": "D3",
                    "midi": 50,
                    "time": 125.50000000000004,
                    "velocity": 0.49606299212598426,
                    "duration": 0.25
                },
                {
                    "name": "C3",
                    "midi": 48,
                    "time": 125.75000000000004,
                    "velocity": 0.44881889763779526,
                    "duration": 0.25
                },
                {
                    "name": "D3",
                    "midi": 50,
                    "time": 126.00000000000004,
                    "velocity": 0.5039370078740157,
                    "duration": 0.375
                },
                {
                    "name": "G2",
                    "midi": 43,
                    "time": 126.37500000000004,
                    "velocity": 0.4251968503937008,
                    "duration": 0.125
                },
                {
                    "name": "D3",
                    "midi": 50,
                    "time": 126.50000000000004,
                    "velocity": 0.4881889763779528,
                    "duration": 0.5
                },
                {
                    "name": "C3",
                    "midi": 48,
                    "time": 127.00000000000004,
                    "velocity": 0.4409448818897638,
                    "duration": 0.5
                },
                {
                    "name": "D3",
                    "midi": 50,
                    "time": 127.50000000000004,
                    "velocity": 0.47244094488188976,
                    "duration": 0.375
                },
                {
                    "name": "G2",
                    "midi": 43,
                    "time": 127.87500000000004,
                    "velocity": 0.4015748031496063,
                    "duration": 0.1250000000000142
                },
                {
                    "name": "C3",
                    "midi": 48,
                    "time": 128.00000000000006,
                    "velocity": 0.4566929133858268,
                    "duration": 0.5
                },
                {
                    "name": "D3",
                    "midi": 50,
                    "time": 128.50000000000006,
                    "velocity": 0.44881889763779526,
                    "duration": 0.375
                },
                {
                    "name": "G2",
                    "midi": 43,
                    "time": 128.87500000000006,
                    "velocity": 0.3779527559055118,
                    "duration": 0.125
                },
                {
                    "name": "C3",
                    "midi": 48,
                    "time": 129.00000000000006,
                    "velocity": 0.4409448818897638,
                    "duration": 0.5
                },
                {
                    "name": "D3",
                    "midi": 50,
                    "time": 129.50000000000006,
                    "velocity": 0.4330708661417323,
                    "duration": 0.375
                },
                {
                    "name": "G2",
                    "midi": 43,
                    "time": 129.87500000000006,
                    "velocity": 0.36220472440944884,
                    "duration": 0.125
                },
                {
                    "name": "C3",
                    "midi": 48,
                    "time": 130.00000000000006,
                    "velocity": 0.41732283464566927,
                    "duration": 0.5
                },
                {
                    "name": "G2",
                    "midi": 43,
                    "time": 130.50000000000006,
                    "velocity": 0.4094488188976378,
                    "duration": 1.5
                },
                {
                    "name": "F#2",
                    "midi": 42,
                    "time": 132.00000000000006,
                    "velocity": 0.3779527559055118,
                    "duration": 1.5
                },
                {
                    "name": "F#5",
                    "midi": 78,
                    "time": 133.50000000000006,
                    "velocity": 0.4330708661417323,
                    "duration": 0.25
                },
                {
                    "name": "B5",
                    "midi": 83,
                    "time": 133.75000000000006,
                    "velocity": 0.3937007874015748,
                    "duration": 0.25
                },
                {
                    "name": "G5",
                    "midi": 79,
                    "time": 134.00000000000006,
                    "velocity": 0.3937007874015748,
                    "duration": 0.0625
                },
                {
                    "name": "A5",
                    "midi": 81,
                    "time": 134.06250000000006,
                    "velocity": 0.3937007874015748,
                    "duration": 0.0625
                },
                {
                    "name": "G5",
                    "midi": 79,
                    "time": 134.12500000000006,
                    "velocity": 0.44881889763779526,
                    "duration": 0.375
                },
                {
                    "name": "F#5",
                    "midi": 78,
                    "time": 134.50000000000006,
                    "velocity": 0.41732283464566927,
                    "duration": 0.25
                },
                {
                    "name": "E5",
                    "midi": 76,
                    "time": 134.75000000000006,
                    "velocity": 0.3937007874015748,
                    "duration": 0.25
                },
                {
                    "name": "F#5",
                    "midi": 78,
                    "time": 135.00000000000006,
                    "velocity": 0.4330708661417323,
                    "duration": 0.25
                },
                {
                    "name": "B4",
                    "midi": 71,
                    "time": 135.25000000000006,
                    "velocity": 0.3937007874015748,
                    "duration": 1.25
                },
                {
                    "name": "C#5",
                    "midi": 73,
                    "time": 136.50000000000006,
                    "velocity": 0.4566929133858268,
                    "duration": 0.25
                },
                {
                    "name": "E5",
                    "midi": 76,
                    "time": 136.75000000000006,
                    "velocity": 0.3937007874015748,
                    "duration": 0.25
                },
                {
                    "name": "D5",
                    "midi": 74,
                    "time": 137.00000000000006,
                    "velocity": 0.3937007874015748,
                    "duration": 0.0625
                },
                {
                    "name": "E5",
                    "midi": 76,
                    "time": 137.06250000000006,
                    "velocity": 0.3937007874015748,
                    "duration": 0.0625
                },
                {
                    "name": "D5",
                    "midi": 74,
                    "time": 137.12500000000006,
                    "velocity": 0.44881889763779526,
                    "duration": 0.375
                },
                {
                    "name": "C#5",
                    "midi": 73,
                    "time": 137.50000000000006,
                    "velocity": 0.41732283464566927,
                    "duration": 0.5
                },
                {
                    "name": "D5",
                    "midi": 74,
                    "time": 138.00000000000006,
                    "velocity": 0.4330708661417323,
                    "duration": 0.25
                },
                {
                    "name": "B4",
                    "midi": 71,
                    "time": 138.25000000000006,
                    "velocity": 0.3937007874015748,
                    "duration": 1.25
                },
                {
                    "name": "C#5",
                    "midi": 73,
                    "time": 139.50000000000006,
                    "velocity": 0.4566929133858268,
                    "duration": 0.25
                },
                {
                    "name": "B4",
                    "midi": 71,
                    "time": 139.75000000000006,
                    "velocity": 0.3937007874015748,
                    "duration": 0.25
                },
                {
                    "name": "A4",
                    "midi": 69,
                    "time": 140.00000000000006,
                    "velocity": 0.36220472440944884,
                    "duration": 0.0625
                },
                {
                    "name": "B4",
                    "midi": 71,
                    "time": 140.06250000000006,
                    "velocity": 0.3700787401574803,
                    "duration": 0.0625
                },
                {
                    "name": "A4",
                    "midi": 69,
                    "time": 140.12500000000006,
                    "velocity": 0.4330708661417323,
                    "duration": 0.375
                },
                {
                    "name": "G#4",
                    "midi": 68,
                    "time": 140.50000000000006,
                    "velocity": 0.41732283464566927,
                    "duration": 0.5
                },
                {
                    "name": "A4",
                    "midi": 69,
                    "time": 141.00000000000006,
                    "velocity": 0.4330708661417323,
                    "duration": 0.25
                },
                {
                    "name": "C#5",
                    "midi": 73,
                    "time": 141.25000000000006,
                    "velocity": 0.3937007874015748,
                    "duration": 0.5
                },
                {
                    "name": "C#4",
                    "midi": 61,
                    "time": 142.00000000000006,
                    "velocity": 0.5354330708661418,
                    "duration": 0.75
                },
                {
                    "name": "B3",
                    "midi": 59,
                    "time": 142.75000000000006,
                    "velocity": 0.47244094488188976,
                    "duration": 0.25
                },
                {
                    "name": "A3",
                    "midi": 57,
                    "time": 143.00000000000006,
                    "velocity": 0.44881889763779526,
                    "duration": 0.0625
                },
                {
                    "name": "B3",
                    "midi": 59,
                    "time": 143.06250000000006,
                    "velocity": 0.44881889763779526,
                    "duration": 0.0625
                },
                {
                    "name": "A3",
                    "midi": 57,
                    "time": 143.12500000000006,
                    "velocity": 0.5354330708661418,
                    "duration": 0.375
                },
                {
                    "name": "G#3",
                    "midi": 56,
                    "time": 143.50000000000006,
                    "velocity": 0.5275590551181102,
                    "duration": 0.5
                },
                {
                    "name": "A3",
                    "midi": 57,
                    "time": 144.00000000000006,
                    "velocity": 0.5590551181102362,
                    "duration": 0.5
                },
                {
                    "name": "C#4",
                    "midi": 61,
                    "time": 144.50000000000006,
                    "velocity": 0.5275590551181102,
                    "duration": 1
                },
                {
                    "name": "B3",
                    "midi": 59,
                    "time": 145.50000000000006,
                    "velocity": 0.5590551181102362,
                    "duration": 0.5
                },
                {
                    "name": "A3",
                    "midi": 57,
                    "time": 146.00000000000006,
                    "velocity": 0.5354330708661418,
                    "duration": 0.5
                },
                {
                    "name": "C#4",
                    "midi": 61,
                    "time": 146.50000000000006,
                    "velocity": 0.5354330708661418,
                    "duration": 0.5
                },
                {
                    "name": "B3",
                    "midi": 59,
                    "time": 147.00000000000006,
                    "velocity": 0.49606299212598426,
                    "duration": 0.0625
                },
                {
                    "name": "C#4",
                    "midi": 61,
                    "time": 147.06250000000006,
                    "velocity": 0.49606299212598426,
                    "duration": 0.0625
                },
                {
                    "name": "B3",
                    "midi": 59,
                    "time": 147.12500000000006,
                    "velocity": 0.5748031496062992,
                    "duration": 0.125
                },
                {
                    "name": "A3",
                    "midi": 57,
                    "time": 147.25000000000006,
                    "velocity": 0.5196850393700787,
                    "duration": 0.25
                },
                {
                    "name": "C#4",
                    "midi": 61,
                    "time": 147.50000000000006,
                    "velocity": 0.5669291338582677,
                    "duration": 0.5
                },
                {
                    "name": "C#4",
                    "midi": 61,
                    "time": 148.00000000000006,
                    "velocity": 0.5354330708661418,
                    "duration": 0.5
                },
                {
                    "name": "B3",
                    "midi": 59,
                    "time": 148.50000000000006,
                    "velocity": 0.48031496062992124,
                    "duration": 0.0625
                },
                {
                    "name": "C#4",
                    "midi": 61,
                    "time": 148.56250000000006,
                    "velocity": 0.48031496062992124,
                    "duration": 0.0625
                },
                {
                    "name": "B3",
                    "midi": 59,
                    "time": 148.62500000000006,
                    "velocity": 0.5669291338582677,
                    "duration": 0.375
                },
                {
                    "name": "A#3",
                    "midi": 58,
                    "time": 149.00000000000006,
                    "velocity": 0.5669291338582677,
                    "duration": 0.4937500000000057
                },
                {
                    "name": "C#4",
                    "midi": 61,
                    "time": 149.50000000000006,
                    "velocity": 0.5354330708661418,
                    "duration": 0.5
                },
                {
                    "name": "B3",
                    "midi": 59,
                    "time": 150.00000000000006,
                    "velocity": 0.4881889763779528,
                    "duration": 0.0625
                },
                {
                    "name": "C#4",
                    "midi": 61,
                    "time": 150.06250000000006,
                    "velocity": 0.49606299212598426,
                    "duration": 0.0625
                },
                {
                    "name": "B3",
                    "midi": 59,
                    "time": 150.12500000000006,
                    "velocity": 0.5748031496062992,
                    "duration": 0.125
                },
                {
                    "name": "A#3",
                    "midi": 58,
                    "time": 150.25000000000006,
                    "velocity": 0.5196850393700787,
                    "duration": 0.25
                },
                {
                    "name": "F#4",
                    "midi": 66,
                    "time": 150.50000000000006,
                    "velocity": 0.5669291338582677,
                    "duration": 0.5
                },
                {
                    "name": "F#5",
                    "midi": 78,
                    "time": 151.00000000000006,
                    "velocity": 0.4566929133858268,
                    "duration": 0.75
                },
                {
                    "name": "B5",
                    "midi": 83,
                    "time": 151.75000000000006,
                    "velocity": 0.3937007874015748,
                    "duration": 0.25
                },
                {
                    "name": "G5",
                    "midi": 79,
                    "time": 152.00000000000006,
                    "velocity": 0.3937007874015748,
                    "duration": 0.0625
                },
                {
                    "name": "A5",
                    "midi": 81,
                    "time": 152.06250000000006,
                    "velocity": 0.3937007874015748,
                    "duration": 0.0625
                },
                {
                    "name": "G5",
                    "midi": 79,
                    "time": 152.12500000000006,
                    "velocity": 0.44881889763779526,
                    "duration": 0.375
                },
                {
                    "name": "F#5",
                    "midi": 78,
                    "time": 152.50000000000006,
                    "velocity": 0.41732283464566927,
                    "duration": 0.25
                },
                {
                    "name": "E5",
                    "midi": 76,
                    "time": 152.75000000000006,
                    "velocity": 0.3937007874015748,
                    "duration": 0.25
                },
                {
                    "name": "F#5",
                    "midi": 78,
                    "time": 153.00000000000006,
                    "velocity": 0.4330708661417323,
                    "duration": 0.25
                },
                {
                    "name": "B4",
                    "midi": 71,
                    "time": 153.25000000000006,
                    "velocity": 0.3937007874015748,
                    "duration": 1.25
                },
                {
                    "name": "C#5",
                    "midi": 73,
                    "time": 154.50000000000006,
                    "velocity": 0.4566929133858268,
                    "duration": 0.25
                },
                {
                    "name": "E5",
                    "midi": 76,
                    "time": 154.75000000000006,
                    "velocity": 0.3937007874015748,
                    "duration": 0.25
                },
                {
                    "name": "D5",
                    "midi": 74,
                    "time": 155.00000000000006,
                    "velocity": 0.3937007874015748,
                    "duration": 0.0625
                },
                {
                    "name": "E5",
                    "midi": 76,
                    "time": 155.06250000000006,
                    "velocity": 0.3937007874015748,
                    "duration": 0.0625
                },
                {
                    "name": "D5",
                    "midi": 74,
                    "time": 155.12500000000006,
                    "velocity": 0.44881889763779526,
                    "duration": 0.375
                },
                {
                    "name": "C#5",
                    "midi": 73,
                    "time": 155.50000000000006,
                    "velocity": 0.41732283464566927,
                    "duration": 0.5
                },
                {
                    "name": "D5",
                    "midi": 74,
                    "time": 156.00000000000006,
                    "velocity": 0.4330708661417323,
                    "duration": 0.25
                },
                {
                    "name": "B4",
                    "midi": 71,
                    "time": 156.25000000000006,
                    "velocity": 0.3937007874015748,
                    "duration": 0.75
                },
                {
                    "name": "D3",
                    "midi": 50,
                    "time": 157.00000000000006,
                    "velocity": 0.5196850393700787,
                    "duration": 0.75
                },
                {
                    "name": "G3",
                    "midi": 55,
                    "time": 157.75000000000006,
                    "velocity": 0.4566929133858268,
                    "duration": 0.25
                },
                {
                    "name": "E3",
                    "midi": 52,
                    "time": 158.00000000000006,
                    "velocity": 0.5118110236220472,
                    "duration": 0.1666666666666572
                },
                {
                    "name": "F3",
                    "midi": 53,
                    "time": 158.1666666666667,
                    "velocity": 0.44881889763779526,
                    "duration": 0.1666666666666572
                },
                {
                    "name": "E3",
                    "midi": 52,
                    "time": 158.33333333333337,
                    "velocity": 0.4330708661417323,
                    "duration": 0.1666666666666572
                },
                {
                    "name": "D3",
                    "midi": 50,
                    "time": 158.50000000000003,
                    "velocity": 0.49606299212598426,
                    "duration": 0.25
                },
                {
                    "name": "C3",
                    "midi": 48,
                    "time": 158.75000000000003,
                    "velocity": 0.44881889763779526,
                    "duration": 0.25
                },
                {
                    "name": "D3",
                    "midi": 50,
                    "time": 159.00000000000003,
                    "velocity": 0.5039370078740157,
                    "duration": 0.375
                },
                {
                    "name": "G2",
                    "midi": 43,
                    "time": 159.37500000000003,
                    "velocity": 0.4330708661417323,
                    "duration": 0.125
                },
                {
                    "name": "D3",
                    "midi": 50,
                    "time": 159.50000000000003,
                    "velocity": 0.5039370078740157,
                    "duration": 0.5
                },
                {
                    "name": "C3",
                    "midi": 48,
                    "time": 160.00000000000003,
                    "velocity": 0.4645669291338583,
                    "duration": 0.5
                },
                {
                    "name": "D3",
                    "midi": 50,
                    "time": 160.50000000000003,
                    "velocity": 0.5196850393700787,
                    "duration": 0.25
                },
                {
                    "name": "G3",
                    "midi": 55,
                    "time": 160.75000000000003,
                    "velocity": 0.4566929133858268,
                    "duration": 0.25
                },
                {
                    "name": "E3",
                    "midi": 52,
                    "time": 161.00000000000003,
                    "velocity": 0.5118110236220472,
                    "duration": 0.1666666666666572
                },
                {
                    "name": "F3",
                    "midi": 53,
                    "time": 161.16666666666669,
                    "velocity": 0.44881889763779526,
                    "duration": 0.1666666666666572
                },
                {
                    "name": "E3",
                    "midi": 52,
                    "time": 161.33333333333334,
                    "velocity": 0.4330708661417323,
                    "duration": 0.1666666666666572
                },
                {
                    "name": "D3",
                    "midi": 50,
                    "time": 161.5,
                    "velocity": 0.49606299212598426,
                    "duration": 0.25
                },
                {
                    "name": "C3",
                    "midi": 48,
                    "time": 161.75,
                    "velocity": 0.44881889763779526,
                    "duration": 0.25
                },
                {
                    "name": "D3",
                    "midi": 50,
                    "time": 162,
                    "velocity": 0.5039370078740157,
                    "duration": 0.375
                },
                {
                    "name": "G2",
                    "midi": 43,
                    "time": 162.375,
                    "velocity": 0.4251968503937008,
                    "duration": 0.125
                },
                {
                    "name": "D3",
                    "midi": 50,
                    "time": 162.5,
                    "velocity": 0.4881889763779528,
                    "duration": 0.5
                },
                {
                    "name": "C3",
                    "midi": 48,
                    "time": 163,
                    "velocity": 0.4409448818897638,
                    "duration": 0.5
                },
                {
                    "name": "D3",
                    "midi": 50,
                    "time": 163.5,
                    "velocity": 0.47244094488188976,
                    "duration": 0.375
                },
                {
                    "name": "G2",
                    "midi": 43,
                    "time": 163.875,
                    "velocity": 0.4015748031496063,
                    "duration": 0.125
                },
                {
                    "name": "C3",
                    "midi": 48,
                    "time": 164,
                    "velocity": 0.4566929133858268,
                    "duration": 0.5
                },
                {
                    "name": "D3",
                    "midi": 50,
                    "time": 164.5,
                    "velocity": 0.44881889763779526,
                    "duration": 0.375
                },
                {
                    "name": "G2",
                    "midi": 43,
                    "time": 164.875,
                    "velocity": 0.3779527559055118,
                    "duration": 0.125
                },
                {
                    "name": "C3",
                    "midi": 48,
                    "time": 165,
                    "velocity": 0.4409448818897638,
                    "duration": 0.5
                },
                {
                    "name": "D3",
                    "midi": 50,
                    "time": 165.5,
                    "velocity": 0.4330708661417323,
                    "duration": 0.375
                },
                {
                    "name": "G2",
                    "midi": 43,
                    "time": 165.875,
                    "velocity": 0.36220472440944884,
                    "duration": 0.125
                },
                {
                    "name": "C3",
                    "midi": 48,
                    "time": 166,
                    "velocity": 0.41732283464566927,
                    "duration": 0.5
                },
                {
                    "name": "G2",
                    "midi": 43,
                    "time": 166.5,
                    "velocity": 0.4094488188976378,
                    "duration": 1.5
                },
                {
                    "name": "F#2",
                    "midi": 42,
                    "time": 168,
                    "velocity": 0.47244094488188976,
                    "duration": 1
                },
                {
                    "name": "F2",
                    "midi": 41,
                    "time": 169,
                    "velocity": 0.5196850393700787,
                    "duration": 0.5
                },
                {
                    "name": "F4",
                    "midi": 65,
                    "time": 170,
                    "velocity": 0.5354330708661418,
                    "duration": 0.5
                },
                {
                    "name": "A#4",
                    "midi": 70,
                    "time": 170,
                    "velocity": 0.5354330708661418,
                    "duration": 0.5
                },
                {
                    "name": "D5",
                    "midi": 74,
                    "time": 170,
                    "velocity": 0.6299212598425197,
                    "duration": 0.5
                },
                {
                    "name": "F#4",
                    "midi": 66,
                    "time": 170.5,
                    "velocity": 0.5354330708661418,
                    "duration": 0.5
                },
                {
                    "name": "A#4",
                    "midi": 70,
                    "time": 170.5,
                    "velocity": 0.5354330708661418,
                    "duration": 0.5
                },
                {
                    "name": "D#5",
                    "midi": 75,
                    "time": 170.5,
                    "velocity": 0.6299212598425197,
                    "duration": 0.5
                },
                {
                    "name": "F#5",
                    "midi": 78,
                    "time": 171,
                    "velocity": 0.6771653543307087,
                    "duration": 0.125
                },
                {
                    "name": "F5",
                    "midi": 77,
                    "time": 171.375,
                    "velocity": 0.6299212598425197,
                    "duration": 0.5
                },
                {
                    "name": "D5",
                    "midi": 74,
                    "time": 171.375,
                    "velocity": 0.48031496062992124,
                    "duration": 0.125
                },
                {
                    "name": "C5",
                    "midi": 72,
                    "time": 171.5,
                    "velocity": 0.48031496062992124,
                    "duration": 0.375
                },
                {
                    "name": "D5",
                    "midi": 74,
                    "time": 171.875,
                    "velocity": 0.48031496062992124,
                    "duration": 0.125
                },
                {
                    "name": "F5",
                    "midi": 77,
                    "time": 171.875,
                    "velocity": 0.6299212598425197,
                    "duration": 0.5
                },
                {
                    "name": "A#4",
                    "midi": 70,
                    "time": 172,
                    "velocity": 0.6299212598425197,
                    "duration": 0.5
                },
                {
                    "name": "A#5",
                    "midi": 82,
                    "time": 172.5,
                    "velocity": 0.6692913385826772,
                    "duration": 0.25
                },
                {
                    "name": "F4",
                    "midi": 65,
                    "time": 173,
                    "velocity": 0.5354330708661418,
                    "duration": 0.5
                },
                {
                    "name": "A#4",
                    "midi": 70,
                    "time": 173,
                    "velocity": 0.5354330708661418,
                    "duration": 0.5
                },
                {
                    "name": "D5",
                    "midi": 74,
                    "time": 173,
                    "velocity": 0.6299212598425197,
                    "duration": 0.5
                },
                {
                    "name": "F#4",
                    "midi": 66,
                    "time": 173.5,
                    "velocity": 0.5354330708661418,
                    "duration": 0.5
                },
                {
                    "name": "A#4",
                    "midi": 70,
                    "time": 173.5,
                    "velocity": 0.5354330708661418,
                    "duration": 0.5
                },
                {
                    "name": "D#5",
                    "midi": 75,
                    "time": 173.5,
                    "velocity": 0.6299212598425197,
                    "duration": 0.5
                },
                {
                    "name": "F#5",
                    "midi": 78,
                    "time": 174,
                    "velocity": 0.6771653543307087,
                    "duration": 0.125
                },
                {
                    "name": "F5",
                    "midi": 77,
                    "time": 174.375,
                    "velocity": 0.6299212598425197,
                    "duration": 0.5
                },
                {
                    "name": "D5",
                    "midi": 74,
                    "time": 174.375,
                    "velocity": 0.48031496062992124,
                    "duration": 0.125
                },
                {
                    "name": "C5",
                    "midi": 72,
                    "time": 174.5,
                    "velocity": 0.48031496062992124,
                    "duration": 0.375
                },
                {
                    "name": "D5",
                    "midi": 74,
                    "time": 174.875,
                    "velocity": 0.48031496062992124,
                    "duration": 0.125
                },
                {
                    "name": "F5",
                    "midi": 77,
                    "time": 174.875,
                    "velocity": 0.6299212598425197,
                    "duration": 0.5
                },
                {
                    "name": "A#4",
                    "midi": 70,
                    "time": 175,
                    "velocity": 0.6299212598425197,
                    "duration": 0.5
                },
                {
                    "name": "F4",
                    "midi": 65,
                    "time": 176,
                    "velocity": 0.5354330708661418,
                    "duration": 0.5
                },
                {
                    "name": "A#4",
                    "midi": 70,
                    "time": 176,
                    "velocity": 0.5354330708661418,
                    "duration": 0.5
                },
                {
                    "name": "D5",
                    "midi": 74,
                    "time": 176,
                    "velocity": 0.6299212598425197,
                    "duration": 0.5
                },
                {
                    "name": "F#4",
                    "midi": 66,
                    "time": 176.5,
                    "velocity": 0.5354330708661418,
                    "duration": 0.5
                },
                {
                    "name": "A#4",
                    "midi": 70,
                    "time": 176.5,
                    "velocity": 0.5354330708661418,
                    "duration": 0.5
                },
                {
                    "name": "D#5",
                    "midi": 75,
                    "time": 176.5,
                    "velocity": 0.6299212598425197,
                    "duration": 0.5
                },
                {
                    "name": "F#5",
                    "midi": 78,
                    "time": 177,
                    "velocity": 0.6771653543307087,
                    "duration": 0.125
                },
                {
                    "name": "F5",
                    "midi": 77,
                    "time": 177.375,
                    "velocity": 0.6299212598425197,
                    "duration": 0.5
                },
                {
                    "name": "D5",
                    "midi": 74,
                    "time": 177.375,
                    "velocity": 0.48031496062992124,
                    "duration": 0.125
                },
                {
                    "name": "C5",
                    "midi": 72,
                    "time": 177.5,
                    "velocity": 0.48031496062992124,
                    "duration": 0.375
                },
                {
                    "name": "D5",
                    "midi": 74,
                    "time": 177.875,
                    "velocity": 0.48031496062992124,
                    "duration": 0.125
                },
                {
                    "name": "F5",
                    "midi": 77,
                    "time": 177.875,
                    "velocity": 0.6299212598425197,
                    "duration": 0.5
                },
                {
                    "name": "A#4",
                    "midi": 70,
                    "time": 178,
                    "velocity": 0.6299212598425197,
                    "duration": 0.5
                },
                {
                    "name": "A#6",
                    "midi": 94,
                    "time": 178.5,
                    "velocity": 0.6692913385826772,
                    "duration": 0.25
                },
                {
                    "name": "A#5",
                    "midi": 82,
                    "time": 178.5,
                    "velocity": 0.6299212598425197,
                    "duration": 0.25
                },
                {
                    "name": "F4",
                    "midi": 65,
                    "time": 179,
                    "velocity": 0.5354330708661418,
                    "duration": 0.5
                },
                {
                    "name": "A#4",
                    "midi": 70,
                    "time": 179,
                    "velocity": 0.5354330708661418,
                    "duration": 0.5
                },
                {
                    "name": "D5",
                    "midi": 74,
                    "time": 179,
                    "velocity": 0.6299212598425197,
                    "duration": 0.5
                },
                {
                    "name": "F#4",
                    "midi": 66,
                    "time": 179.5,
                    "velocity": 0.5354330708661418,
                    "duration": 0.5
                },
                {
                    "name": "A#4",
                    "midi": 70,
                    "time": 179.5,
                    "velocity": 0.5354330708661418,
                    "duration": 0.5
                },
                {
                    "name": "D#5",
                    "midi": 75,
                    "time": 179.5,
                    "velocity": 0.6299212598425197,
                    "duration": 0.5
                },
                {
                    "name": "F#5",
                    "midi": 78,
                    "time": 180,
                    "velocity": 0.6771653543307087,
                    "duration": 0.125
                },
                {
                    "name": "F5",
                    "midi": 77,
                    "time": 180.375,
                    "velocity": 0.6299212598425197,
                    "duration": 0.5
                },
                {
                    "name": "D5",
                    "midi": 74,
                    "time": 180.375,
                    "velocity": 0.48031496062992124,
                    "duration": 0.125
                },
                {
                    "name": "C5",
                    "midi": 72,
                    "time": 180.5,
                    "velocity": 0.48031496062992124,
                    "duration": 0.375
                },
                {
                    "name": "D5",
                    "midi": 74,
                    "time": 180.875,
                    "velocity": 0.48031496062992124,
                    "duration": 0.125
                },
                {
                    "name": "F5",
                    "midi": 77,
                    "time": 180.875,
                    "velocity": 0.6299212598425197,
                    "duration": 0.5
                },
                {
                    "name": "A#4",
                    "midi": 70,
                    "time": 181,
                    "velocity": 0.6299212598425197,
                    "duration": 0.5
                },
                {
                    "name": "A#4",
                    "midi": 70,
                    "time": 182,
                    "velocity": 0.5354330708661418,
                    "duration": 0.5
                },
                {
                    "name": "D#5",
                    "midi": 75,
                    "time": 182,
                    "velocity": 0.5354330708661418,
                    "duration": 0.5
                },
                {
                    "name": "G5",
                    "midi": 79,
                    "time": 182,
                    "velocity": 0.6299212598425197,
                    "duration": 0.5
                },
                {
                    "name": "B4",
                    "midi": 71,
                    "time": 182.5,
                    "velocity": 0.5354330708661418,
                    "duration": 0.5
                },
                {
                    "name": "D#5",
                    "midi": 75,
                    "time": 182.5,
                    "velocity": 0.5354330708661418,
                    "duration": 0.5
                },
                {
                    "name": "G#5",
                    "midi": 80,
                    "time": 182.5,
                    "velocity": 0.6299212598425197,
                    "duration": 0.5
                },
                {
                    "name": "B5",
                    "midi": 83,
                    "time": 183,
                    "velocity": 0.6929133858267716,
                    "duration": 0.125
                },
                {
                    "name": "A#5",
                    "midi": 82,
                    "time": 183.375,
                    "velocity": 0.6929133858267716,
                    "duration": 0.5
                },
                {
                    "name": "G5",
                    "midi": 79,
                    "time": 183.375,
                    "velocity": 0.48031496062992124,
                    "duration": 0.125
                },
                {
                    "name": "F5",
                    "midi": 77,
                    "time": 183.5,
                    "velocity": 0.48031496062992124,
                    "duration": 0.375
                },
                {
                    "name": "G5",
                    "midi": 79,
                    "time": 183.875,
                    "velocity": 0.48031496062992124,
                    "duration": 0.125
                },
                {
                    "name": "A#5",
                    "midi": 82,
                    "time": 183.875,
                    "velocity": 0.6929133858267716,
                    "duration": 0.5
                },
                {
                    "name": "D#5",
                    "midi": 75,
                    "time": 184,
                    "velocity": 0.6299212598425197,
                    "duration": 0.5
                },
                {
                    "name": "D#7",
                    "midi": 99,
                    "time": 184.5,
                    "velocity": 0.7322834645669292,
                    "duration": 0.25
                },
                {
                    "name": "D#6",
                    "midi": 87,
                    "time": 184.5,
                    "velocity": 0.6929133858267716,
                    "duration": 0.25
                },
                {
                    "name": "A#4",
                    "midi": 70,
                    "time": 185,
                    "velocity": 0.5354330708661418,
                    "duration": 0.5
                },
                {
                    "name": "D#5",
                    "midi": 75,
                    "time": 185,
                    "velocity": 0.5354330708661418,
                    "duration": 0.5
                },
                {
                    "name": "G5",
                    "midi": 79,
                    "time": 185,
                    "velocity": 0.6299212598425197,
                    "duration": 0.5
                },
                {
                    "name": "B4",
                    "midi": 71,
                    "time": 185.5,
                    "velocity": 0.5354330708661418,
                    "duration": 0.5
                },
                {
                    "name": "D#5",
                    "midi": 75,
                    "time": 185.5,
                    "velocity": 0.5354330708661418,
                    "duration": 0.5
                },
                {
                    "name": "G#5",
                    "midi": 80,
                    "time": 185.5,
                    "velocity": 0.6299212598425197,
                    "duration": 0.5
                },
                {
                    "name": "B5",
                    "midi": 83,
                    "time": 186,
                    "velocity": 0.6850393700787402,
                    "duration": 0.125
                },
                {
                    "name": "A#5",
                    "midi": 82,
                    "time": 186.375,
                    "velocity": 0.6929133858267716,
                    "duration": 0.5
                },
                {
                    "name": "G5",
                    "midi": 79,
                    "time": 186.375,
                    "velocity": 0.48031496062992124,
                    "duration": 0.125
                },
                {
                    "name": "F5",
                    "midi": 77,
                    "time": 186.5,
                    "velocity": 0.48031496062992124,
                    "duration": 0.375
                },
                {
                    "name": "G5",
                    "midi": 79,
                    "time": 186.875,
                    "velocity": 0.48031496062992124,
                    "duration": 0.125
                },
                {
                    "name": "A#5",
                    "midi": 82,
                    "time": 186.875,
                    "velocity": 0.6929133858267716,
                    "duration": 0.5
                },
                {
                    "name": "E5",
                    "midi": 76,
                    "time": 187,
                    "velocity": 0.6299212598425197,
                    "duration": 2
                },
                {
                    "name": "A#4",
                    "midi": 70,
                    "time": 188,
                    "velocity": 0.5354330708661418,
                    "duration": 0.5
                },
                {
                    "name": "G5",
                    "midi": 79,
                    "time": 188,
                    "velocity": 0.6299212598425197,
                    "duration": 0.5
                },
                {
                    "name": "B4",
                    "midi": 71,
                    "time": 188.5,
                    "velocity": 0.5118110236220472,
                    "duration": 0.5
                },
                {
                    "name": "G#5",
                    "midi": 80,
                    "time": 188.5,
                    "velocity": 0.6062992125984252,
                    "duration": 0.5
                },
                {
                    "name": "A#4",
                    "midi": 70,
                    "time": 189,
                    "velocity": 0.5118110236220472,
                    "duration": 3
                },
                {
                    "name": "D#5",
                    "midi": 75,
                    "time": 189,
                    "velocity": 0.5118110236220472,
                    "duration": 0.5
                },
                {
                    "name": "G5",
                    "midi": 79,
                    "time": 189,
                    "velocity": 0.6062992125984252,
                    "duration": 0.5
                },
                {
                    "name": "C#5",
                    "midi": 73,
                    "time": 189.5,
                    "velocity": 0.4881889763779528,
                    "duration": 2.5
                },
                {
                    "name": "F#5",
                    "midi": 78,
                    "time": 189.5,
                    "velocity": 0.5826771653543307,
                    "duration": 0.5
                },
                {
                    "name": "F5",
                    "midi": 77,
                    "time": 190,
                    "velocity": 0.5590551181102362,
                    "duration": 0.5
                },
                {
                    "name": "E5",
                    "midi": 76,
                    "time": 190.5,
                    "velocity": 0.5433070866141733,
                    "duration": 1.5
                },
                {
                    "name": "D#5",
                    "midi": 75,
                    "time": 193.5,
                    "velocity": 0.4645669291338583,
                    "duration": 0.25
                },
                {
                    "name": "E5",
                    "midi": 76,
                    "time": 193.75,
                    "velocity": 0.48031496062992124,
                    "duration": 0.25
                },
                {
                    "name": "F5",
                    "midi": 77,
                    "time": 194,
                    "velocity": 0.49606299212598426,
                    "duration": 0.5
                },
                {
                    "name": "F#5",
                    "midi": 78,
                    "time": 194.5,
                    "velocity": 0.5511811023622047,
                    "duration": 0.5
                },
                {
                    "name": "G5",
                    "midi": 79,
                    "time": 195,
                    "velocity": 0.6062992125984252,
                    "duration": 0.375
                },
                {
                    "name": "G#5",
                    "midi": 80,
                    "time": 195.375,
                    "velocity": 0.5039370078740157,
                    "duration": 0.125
                },
                {
                    "name": "E5",
                    "midi": 76,
                    "time": 195.5,
                    "velocity": 0.5984251968503937,
                    "duration": 0.75
                },
                {
                    "name": "D#5",
                    "midi": 75,
                    "time": 196.25,
                    "velocity": 0.5275590551181102,
                    "duration": 0.25
                },
                {
                    "name": "D#5",
                    "midi": 75,
                    "time": 196.5,
                    "velocity": 0.5590551181102362,
                    "duration": 0.25
                },
                {
                    "name": "C#5",
                    "midi": 73,
                    "time": 196.75,
                    "velocity": 0.4645669291338583,
                    "duration": 0.0625
                },
                {
                    "name": "D#5",
                    "midi": 75,
                    "time": 196.8125,
                    "velocity": 0.47244094488188976,
                    "duration": 0.0625
                },
                {
                    "name": "C#5",
                    "midi": 73,
                    "time": 196.875,
                    "velocity": 0.5433070866141733,
                    "duration": 0.125
                },
                {
                    "name": "C5",
                    "midi": 72,
                    "time": 197,
                    "velocity": 0.5275590551181102,
                    "duration": 0.5
                },
                {
                    "name": "C#5",
                    "midi": 73,
                    "time": 197.5,
                    "velocity": 0.5511811023622047,
                    "duration": 0.5
                },
                {
                    "name": "E5",
                    "midi": 76,
                    "time": 198,
                    "velocity": 0.5826771653543307,
                    "duration": 1
                },
                {
                    "name": "D#5",
                    "midi": 75,
                    "time": 199,
                    "velocity": 0.5039370078740157,
                    "duration": 0.5
                },
                {
                    "name": "B4",
                    "midi": 71,
                    "time": 199.5,
                    "velocity": 0.4566929133858268,
                    "duration": 0.25
                },
                {
                    "name": "C#5",
                    "midi": 73,
                    "time": 199.75,
                    "velocity": 0.47244094488188976,
                    "duration": 0.25
                },
                {
                    "name": "D5",
                    "midi": 74,
                    "time": 200,
                    "velocity": 0.49606299212598426,
                    "duration": 0.5
                },
                {
                    "name": "D#5",
                    "midi": 75,
                    "time": 200.5,
                    "velocity": 0.5354330708661418,
                    "duration": 0.5
                },
                {
                    "name": "F#5",
                    "midi": 78,
                    "time": 201,
                    "velocity": 0.5669291338582677,
                    "duration": 0.25
                },
                {
                    "name": "E5",
                    "midi": 76,
                    "time": 201.25,
                    "velocity": 0.5039370078740157,
                    "duration": 0.25
                },
                {
                    "name": "C#5",
                    "midi": 73,
                    "time": 201.5,
                    "velocity": 0.5511811023622047,
                    "duration": 0.5
                },
                {
                    "name": "G#4",
                    "midi": 68,
                    "time": 202,
                    "velocity": 0.4409448818897638,
                    "duration": 0.0625
                },
                {
                    "name": "A#4",
                    "midi": 70,
                    "time": 202.0625,
                    "velocity": 0.4409448818897638,
                    "duration": 0.0625
                },
                {
                    "name": "G#4",
                    "midi": 68,
                    "time": 202.125,
                    "velocity": 0.5039370078740157,
                    "duration": 0.375
                },
                {
                    "name": "G4",
                    "midi": 67,
                    "time": 202.5,
                    "velocity": 0.5039370078740157,
                    "duration": 0.375
                },
                {
                    "name": "G#4",
                    "midi": 68,
                    "time": 202.875,
                    "velocity": 0.48031496062992124,
                    "duration": 0.125
                },
                {
                    "name": "B4",
                    "midi": 71,
                    "time": 203,
                    "velocity": 0.5039370078740157,
                    "duration": 0.5
                },
                {
                    "name": "A#4",
                    "midi": 70,
                    "time": 203.5,
                    "velocity": 0.5039370078740157,
                    "duration": 0.5
                },
                {
                    "name": "G4",
                    "midi": 67,
                    "time": 204,
                    "velocity": 0.5433070866141733,
                    "duration": 1
                },
                {
                    "name": "F#4",
                    "midi": 66,
                    "time": 205,
                    "velocity": 0.5039370078740157,
                    "duration": 0.5
                },
                {
                    "name": "D#5",
                    "midi": 75,
                    "time": 205.5,
                    "velocity": 0.4645669291338583,
                    "duration": 0.25
                },
                {
                    "name": "E5",
                    "midi": 76,
                    "time": 205.75,
                    "velocity": 0.48031496062992124,
                    "duration": 0.25
                },
                {
                    "name": "F#5",
                    "midi": 78,
                    "time": 206,
                    "velocity": 0.49606299212598426,
                    "duration": 0.5
                },
                {
                    "name": "D#6",
                    "midi": 87,
                    "time": 206.5,
                    "velocity": 0.5433070866141733,
                    "duration": 0.5
                },
                {
                    "name": "C#6",
                    "midi": 85,
                    "time": 207,
                    "velocity": 0.5433070866141733,
                    "duration": 0.25
                },
                {
                    "name": "B5",
                    "midi": 83,
                    "time": 207.25,
                    "velocity": 0.5039370078740157,
                    "duration": 0.25
                },
                {
                    "name": "G#5",
                    "midi": 80,
                    "time": 207.5,
                    "velocity": 0.5433070866141733,
                    "duration": 0.5
                },
                {
                    "name": "E5",
                    "midi": 76,
                    "time": 208,
                    "velocity": 0.5275590551181102,
                    "duration": 0.5
                },
                {
                    "name": "D#5",
                    "midi": 75,
                    "time": 208.5,
                    "velocity": 0.5590551181102362,
                    "duration": 0.25
                },
                {
                    "name": "C#5",
                    "midi": 73,
                    "time": 208.75,
                    "velocity": 0.4645669291338583,
                    "duration": 0.0625
                },
                {
                    "name": "D#5",
                    "midi": 75,
                    "time": 208.8125,
                    "velocity": 0.47244094488188976,
                    "duration": 0.0625
                },
                {
                    "name": "C#5",
                    "midi": 73,
                    "time": 208.875,
                    "velocity": 0.5433070866141733,
                    "duration": 0.125
                },
                {
                    "name": "C5",
                    "midi": 72,
                    "time": 209,
                    "velocity": 0.5275590551181102,
                    "duration": 0.5
                },
                {
                    "name": "C#5",
                    "midi": 73,
                    "time": 209.5,
                    "velocity": 0.5511811023622047,
                    "duration": 0.5
                },
                {
                    "name": "E5",
                    "midi": 76,
                    "time": 210,
                    "velocity": 0.5590551181102362,
                    "duration": 1
                },
                {
                    "name": "D#5",
                    "midi": 75,
                    "time": 211,
                    "velocity": 0.5039370078740157,
                    "duration": 0.5
                },
                {
                    "name": "D#5",
                    "midi": 75,
                    "time": 211.5,
                    "velocity": 0.6062992125984252,
                    "duration": 0.75
                },
                {
                    "name": "D#5",
                    "midi": 75,
                    "time": 212.25,
                    "velocity": 0.5039370078740157,
                    "duration": 0.0625
                },
                {
                    "name": "F5",
                    "midi": 77,
                    "time": 212.3125,
                    "velocity": 0.5039370078740157,
                    "duration": 0.0625
                },
                {
                    "name": "D#5",
                    "midi": 75,
                    "time": 212.375,
                    "velocity": 0.5669291338582677,
                    "duration": 0.125
                },
                {
                    "name": "C#5",
                    "midi": 73,
                    "time": 212.5,
                    "velocity": 0.5826771653543307,
                    "duration": 0.25
                },
                {
                    "name": "B4",
                    "midi": 71,
                    "time": 212.75,
                    "velocity": 0.5590551181102362,
                    "duration": 0.25
                },
                {
                    "name": "A#4",
                    "midi": 70,
                    "time": 213,
                    "velocity": 0.6220472440944882,
                    "duration": 0.25
                },
                {
                    "name": "D#5",
                    "midi": 75,
                    "time": 213.25,
                    "velocity": 0.5748031496062992,
                    "duration": 0.25
                },
                {
                    "name": "F#5",
                    "midi": 78,
                    "time": 213.5,
                    "velocity": 0.6299212598425197,
                    "duration": 0.5
                },
                {
                    "name": "B5",
                    "midi": 83,
                    "time": 214,
                    "velocity": 0.6220472440944882,
                    "duration": 0.5
                },
                {
                    "name": "A#5",
                    "midi": 82,
                    "time": 214.5,
                    "velocity": 0.6377952755905512,
                    "duration": 0.25
                },
                {
                    "name": "F5",
                    "midi": 77,
                    "time": 214.75,
                    "velocity": 0.5511811023622047,
                    "duration": 0.25
                },
                {
                    "name": "G#5",
                    "midi": 80,
                    "time": 215,
                    "velocity": 0.6299212598425197,
                    "duration": 0.75
                },
                {
                    "name": "F#5",
                    "midi": 78,
                    "time": 215.75,
                    "velocity": 0.6062992125984252,
                    "duration": 0.25
                },
                {
                    "name": "D#5",
                    "midi": 75,
                    "time": 216,
                    "velocity": 0.6377952755905512,
                    "duration": 0.5
                },
                {
                    "name": "F#4",
                    "midi": 66,
                    "time": 216.5,
                    "velocity": 0.6299212598425197,
                    "duration": 0.25
                },
                {
                    "name": "F#5",
                    "midi": 78,
                    "time": 216.75,
                    "velocity": 0.6220472440944882,
                    "duration": 0.25
                },
                {
                    "name": "F5",
                    "midi": 77,
                    "time": 217,
                    "velocity": 0.6141732283464567,
                    "duration": 0.25
                },
                {
                    "name": "E5",
                    "midi": 76,
                    "time": 217.25,
                    "velocity": 0.5511811023622047,
                    "duration": 0.25
                },
                {
                    "name": "D#5",
                    "midi": 75,
                    "time": 217.5,
                    "velocity": 0.5275590551181102,
                    "duration": 0.25
                },
                {
                    "name": "E5",
                    "midi": 76,
                    "time": 217.75,
                    "velocity": 0.5511811023622047,
                    "duration": 0.25
                },
                {
                    "name": "F5",
                    "midi": 77,
                    "time": 218,
                    "velocity": 0.5669291338582677,
                    "duration": 0.5
                },
                {
                    "name": "F#5",
                    "midi": 78,
                    "time": 218.5,
                    "velocity": 0.5905511811023622,
                    "duration": 0.5
                },
                {
                    "name": "G5",
                    "midi": 79,
                    "time": 219,
                    "velocity": 0.5905511811023622,
                    "duration": 0.375
                },
                {
                    "name": "G#5",
                    "midi": 80,
                    "time": 219.375,
                    "velocity": 0.5039370078740157,
                    "duration": 0.125
                },
                {
                    "name": "E5",
                    "midi": 76,
                    "time": 219.5,
                    "velocity": 0.5433070866141733,
                    "duration": 0.75
                },
                {
                    "name": "D#5",
                    "midi": 75,
                    "time": 220.25,
                    "velocity": 0.5275590551181102,
                    "duration": 0.25
                },
                {
                    "name": "D#5",
                    "midi": 75,
                    "time": 220.5,
                    "velocity": 0.5590551181102362,
                    "duration": 0.25
                },
                {
                    "name": "C#5",
                    "midi": 73,
                    "time": 220.75,
                    "velocity": 0.4645669291338583,
                    "duration": 0.0625
                },
                {
                    "name": "D#5",
                    "midi": 75,
                    "time": 220.8125,
                    "velocity": 0.47244094488188976,
                    "duration": 0.0625
                },
                {
                    "name": "C#5",
                    "midi": 73,
                    "time": 220.875,
                    "velocity": 0.5433070866141733,
                    "duration": 0.125
                },
                {
                    "name": "C5",
                    "midi": 72,
                    "time": 221,
                    "velocity": 0.5275590551181102,
                    "duration": 0.5
                },
                {
                    "name": "C#5",
                    "midi": 73,
                    "time": 221.5,
                    "velocity": 0.5511811023622047,
                    "duration": 0.5
                },
                {
                    "name": "E5",
                    "midi": 76,
                    "time": 222,
                    "velocity": 0.5748031496062992,
                    "duration": 1
                },
                {
                    "name": "D#5",
                    "midi": 75,
                    "time": 223,
                    "velocity": 0.5039370078740157,
                    "duration": 0.5
                },
                {
                    "name": "B4",
                    "midi": 71,
                    "time": 223.5,
                    "velocity": 0.4566929133858268,
                    "duration": 0.25
                },
                {
                    "name": "C#5",
                    "midi": 73,
                    "time": 223.75,
                    "velocity": 0.47244094488188976,
                    "duration": 0.25
                },
                {
                    "name": "D5",
                    "midi": 74,
                    "time": 224,
                    "velocity": 0.49606299212598426,
                    "duration": 0.5
                },
                {
                    "name": "D#5",
                    "midi": 75,
                    "time": 224.5,
                    "velocity": 0.5275590551181102,
                    "duration": 0.5
                },
                {
                    "name": "F#5",
                    "midi": 78,
                    "time": 225,
                    "velocity": 0.5433070866141733,
                    "duration": 0.25
                },
                {
                    "name": "E5",
                    "midi": 76,
                    "time": 225.25,
                    "velocity": 0.5039370078740157,
                    "duration": 0.25
                },
                {
                    "name": "C#5",
                    "midi": 73,
                    "time": 225.5,
                    "velocity": 0.5511811023622047,
                    "duration": 0.5
                },
                {
                    "name": "G#4",
                    "midi": 68,
                    "time": 226,
                    "velocity": 0.4409448818897638,
                    "duration": 0.0625
                },
                {
                    "name": "A#4",
                    "midi": 70,
                    "time": 226.0625,
                    "velocity": 0.4409448818897638,
                    "duration": 0.0625
                },
                {
                    "name": "G#4",
                    "midi": 68,
                    "time": 226.125,
                    "velocity": 0.5039370078740157,
                    "duration": 0.375
                },
                {
                    "name": "G4",
                    "midi": 67,
                    "time": 226.5,
                    "velocity": 0.5039370078740157,
                    "duration": 0.375
                },
                {
                    "name": "G#4",
                    "midi": 68,
                    "time": 226.875,
                    "velocity": 0.48031496062992124,
                    "duration": 0.125
                },
                {
                    "name": "B4",
                    "midi": 71,
                    "time": 227,
                    "velocity": 0.5039370078740157,
                    "duration": 0.5
                },
                {
                    "name": "A#4",
                    "midi": 70,
                    "time": 227.5,
                    "velocity": 0.5039370078740157,
                    "duration": 0.5
                },
                {
                    "name": "G4",
                    "midi": 67,
                    "time": 228,
                    "velocity": 0.5433070866141733,
                    "duration": 1
                },
                {
                    "name": "F#4",
                    "midi": 66,
                    "time": 229,
                    "velocity": 0.5039370078740157,
                    "duration": 0.5
                },
                {
                    "name": "D#5",
                    "midi": 75,
                    "time": 229.5,
                    "velocity": 0.4645669291338583,
                    "duration": 0.25
                },
                {
                    "name": "E5",
                    "midi": 76,
                    "time": 229.75,
                    "velocity": 0.48031496062992124,
                    "duration": 0.25
                },
                {
                    "name": "F#5",
                    "midi": 78,
                    "time": 230,
                    "velocity": 0.49606299212598426,
                    "duration": 0.5
                },
                {
                    "name": "D#6",
                    "midi": 87,
                    "time": 230.5,
                    "velocity": 0.5433070866141733,
                    "duration": 0.5
                },
                {
                    "name": "C#6",
                    "midi": 85,
                    "time": 231,
                    "velocity": 0.5433070866141733,
                    "duration": 0.25
                },
                {
                    "name": "B5",
                    "midi": 83,
                    "time": 231.25,
                    "velocity": 0.5039370078740157,
                    "duration": 0.25
                },
                {
                    "name": "G#5",
                    "midi": 80,
                    "time": 231.5,
                    "velocity": 0.5433070866141733,
                    "duration": 0.5
                },
                {
                    "name": "E5",
                    "midi": 76,
                    "time": 232,
                    "velocity": 0.5275590551181102,
                    "duration": 0.5
                },
                {
                    "name": "D#5",
                    "midi": 75,
                    "time": 232.5,
                    "velocity": 0.5590551181102362,
                    "duration": 0.25
                },
                {
                    "name": "C#5",
                    "midi": 73,
                    "time": 232.75,
                    "velocity": 0.4645669291338583,
                    "duration": 0.0625
                },
                {
                    "name": "D#5",
                    "midi": 75,
                    "time": 232.8125,
                    "velocity": 0.47244094488188976,
                    "duration": 0.0625
                },
                {
                    "name": "C#5",
                    "midi": 73,
                    "time": 232.875,
                    "velocity": 0.5433070866141733,
                    "duration": 0.125
                },
                {
                    "name": "C5",
                    "midi": 72,
                    "time": 233,
                    "velocity": 0.5275590551181102,
                    "duration": 0.5
                },
                {
                    "name": "C#5",
                    "midi": 73,
                    "time": 233.5,
                    "velocity": 0.5511811023622047,
                    "duration": 0.5
                },
                {
                    "name": "E5",
                    "midi": 76,
                    "time": 234,
                    "velocity": 0.5590551181102362,
                    "duration": 1
                },
                {
                    "name": "D#5",
                    "midi": 75,
                    "time": 235,
                    "velocity": 0.5039370078740157,
                    "duration": 0.5
                },
                {
                    "name": "D#5",
                    "midi": 75,
                    "time": 235.5,
                    "velocity": 0.5275590551181102,
                    "duration": 0.75
                },
                {
                    "name": "D#5",
                    "midi": 75,
                    "time": 236.25,
                    "velocity": 0.4409448818897638,
                    "duration": 0.0625
                },
                {
                    "name": "F5",
                    "midi": 77,
                    "time": 236.3125,
                    "velocity": 0.4409448818897638,
                    "duration": 0.0625
                },
                {
                    "name": "D#5",
                    "midi": 75,
                    "time": 236.375,
                    "velocity": 0.49606299212598426,
                    "duration": 0.125
                },
                {
                    "name": "C#5",
                    "midi": 73,
                    "time": 236.5,
                    "velocity": 0.5118110236220472,
                    "duration": 0.25
                },
                {
                    "name": "B4",
                    "midi": 71,
                    "time": 236.75,
                    "velocity": 0.4881889763779528,
                    "duration": 0.25
                },
                {
                    "name": "A#4",
                    "midi": 70,
                    "time": 237,
                    "velocity": 0.5433070866141733,
                    "duration": 0.25
                },
                {
                    "name": "D#5",
                    "midi": 75,
                    "time": 237.25,
                    "velocity": 0.5039370078740157,
                    "duration": 0.25
                },
                {
                    "name": "F#5",
                    "midi": 78,
                    "time": 237.5,
                    "velocity": 0.5511811023622047,
                    "duration": 0.5
                },
                {
                    "name": "B5",
                    "midi": 83,
                    "time": 238,
                    "velocity": 0.5433070866141733,
                    "duration": 0.5
                },
                {
                    "name": "A#5",
                    "midi": 82,
                    "time": 238.5,
                    "velocity": 0.5590551181102362,
                    "duration": 0.25
                },
                {
                    "name": "F5",
                    "midi": 77,
                    "time": 238.75,
                    "velocity": 0.48031496062992124,
                    "duration": 0.25
                },
                {
                    "name": "G#5",
                    "midi": 80,
                    "time": 239,
                    "velocity": 0.5511811023622047,
                    "duration": 0.75
                },
                {
                    "name": "F#5",
                    "midi": 78,
                    "time": 239.75,
                    "velocity": 0.5275590551181102,
                    "duration": 0.25
                },
                {
                    "name": "D#5",
                    "midi": 75,
                    "time": 240,
                    "velocity": 0.5590551181102362,
                    "duration": 1
                },
                {
                    "name": "F#5",
                    "midi": 78,
                    "time": 241,
                    "velocity": 0.5905511811023622,
                    "duration": 0.5
                },
                {
                    "name": "G#6",
                    "midi": 92,
                    "time": 241.5,
                    "velocity": 0.6456692913385826,
                    "duration": 0.375
                },
                {
                    "name": "G#5",
                    "midi": 80,
                    "time": 241.5,
                    "velocity": 0.5433070866141733,
                    "duration": 0.375
                },
                {
                    "name": "F#6",
                    "midi": 90,
                    "time": 241.875,
                    "velocity": 0.6062992125984252,
                    "duration": 0.125
                },
                {
                    "name": "F#5",
                    "midi": 78,
                    "time": 241.875,
                    "velocity": 0.5118110236220472,
                    "duration": 0.125
                },
                {
                    "name": "E6",
                    "midi": 88,
                    "time": 242,
                    "velocity": 0.5984251968503937,
                    "duration": 0.375
                },
                {
                    "name": "E5",
                    "midi": 76,
                    "time": 242,
                    "velocity": 0.5039370078740157,
                    "duration": 0.375
                },
                {
                    "name": "E4",
                    "midi": 64,
                    "time": 242.5,
                    "velocity": 0.49606299212598426,
                    "duration": 0.5
                },
                {
                    "name": "A#4",
                    "midi": 70,
                    "time": 242.5,
                    "velocity": 0.5905511811023622,
                    "duration": 0.5
                },
                {
                    "name": "D#4",
                    "midi": 63,
                    "time": 243,
                    "velocity": 0.5039370078740157,
                    "duration": 0.25
                },
                {
                    "name": "B4",
                    "midi": 71,
                    "time": 243,
                    "velocity": 0.5984251968503937,
                    "duration": 0.25
                },
                {
                    "name": "F#4",
                    "midi": 66,
                    "time": 243.375,
                    "velocity": 0.4881889763779528,
                    "duration": 0.125
                },
                {
                    "name": "C#5",
                    "midi": 73,
                    "time": 243.375,
                    "velocity": 0.5748031496062992,
                    "duration": 0.125
                },
                {
                    "name": "B4",
                    "midi": 71,
                    "time": 243.5,
                    "velocity": 0.5354330708661418,
                    "duration": 0.5
                },
                {
                    "name": "D#5",
                    "midi": 75,
                    "time": 243.5,
                    "velocity": 0.6377952755905512,
                    "duration": 0.5
                },
                {
                    "name": "F#5",
                    "midi": 78,
                    "time": 244,
                    "velocity": 0.5118110236220472,
                    "duration": 0.5
                },
                {
                    "name": "F#6",
                    "midi": 90,
                    "time": 244,
                    "velocity": 0.6062992125984252,
                    "duration": 0.5
                },
                {
                    "name": "G#6",
                    "midi": 92,
                    "time": 244.5,
                    "velocity": 0.6456692913385826,
                    "duration": 0.375
                },
                {
                    "name": "G#5",
                    "midi": 80,
                    "time": 244.5,
                    "velocity": 0.5433070866141733,
                    "duration": 0.375
                },
                {
                    "name": "F#6",
                    "midi": 90,
                    "time": 244.875,
                    "velocity": 0.6062992125984252,
                    "duration": 0.125
                },
                {
                    "name": "F#5",
                    "midi": 78,
                    "time": 244.875,
                    "velocity": 0.5118110236220472,
                    "duration": 0.125
                },
                {
                    "name": "E6",
                    "midi": 88,
                    "time": 245,
                    "velocity": 0.5984251968503937,
                    "duration": 0.375
                },
                {
                    "name": "E5",
                    "midi": 76,
                    "time": 245,
                    "velocity": 0.5039370078740157,
                    "duration": 0.375
                },
                {
                    "name": "E4",
                    "midi": 64,
                    "time": 245.5,
                    "velocity": 0.49606299212598426,
                    "duration": 0.5
                },
                {
                    "name": "A#4",
                    "midi": 70,
                    "time": 245.5,
                    "velocity": 0.5905511811023622,
                    "duration": 0.5
                },
                {
                    "name": "D#4",
                    "midi": 63,
                    "time": 246,
                    "velocity": 0.5039370078740157,
                    "duration": 0.25
                },
                {
                    "name": "B4",
                    "midi": 71,
                    "time": 246,
                    "velocity": 0.5984251968503937,
                    "duration": 0.25
                },
                {
                    "name": "F#4",
                    "midi": 66,
                    "time": 246.375,
                    "velocity": 0.4881889763779528,
                    "duration": 0.125
                },
                {
                    "name": "C#5",
                    "midi": 73,
                    "time": 246.375,
                    "velocity": 0.5748031496062992,
                    "duration": 0.125
                },
                {
                    "name": "B4",
                    "midi": 71,
                    "time": 246.5,
                    "velocity": 0.5354330708661418,
                    "duration": 0.5
                },
                {
                    "name": "D#5",
                    "midi": 75,
                    "time": 246.5,
                    "velocity": 0.6377952755905512,
                    "duration": 0.5
                },
                {
                    "name": "D#5",
                    "midi": 75,
                    "time": 247,
                    "velocity": 0.5118110236220472,
                    "duration": 0.5
                },
                {
                    "name": "F#5",
                    "midi": 78,
                    "time": 247,
                    "velocity": 0.6062992125984252,
                    "duration": 0.5
                },
                {
                    "name": "C#6",
                    "midi": 85,
                    "time": 247.5,
                    "velocity": 0.5433070866141733,
                    "duration": 0.125
                },
                {
                    "name": "E6",
                    "midi": 88,
                    "time": 247.5,
                    "velocity": 0.6377952755905512,
                    "duration": 0.125
                },
                {
                    "name": "F#5",
                    "midi": 78,
                    "time": 247.875,
                    "velocity": 0.4881889763779528,
                    "duration": 0.125
                },
                {
                    "name": "A#5",
                    "midi": 82,
                    "time": 247.875,
                    "velocity": 0.5748031496062992,
                    "duration": 0.125
                },
                {
                    "name": "E5",
                    "midi": 76,
                    "time": 248,
                    "velocity": 0.5196850393700787,
                    "duration": 0.375
                },
                {
                    "name": "G#5",
                    "midi": 80,
                    "time": 248,
                    "velocity": 0.5748031496062992,
                    "duration": 0.375
                },
                {
                    "name": "F#5",
                    "midi": 78,
                    "time": 248.375,
                    "velocity": 0.4881889763779528,
                    "duration": 0.125
                },
                {
                    "name": "A#5",
                    "midi": 82,
                    "time": 248.375,
                    "velocity": 0.5748031496062992,
                    "duration": 0.125
                },
                {
                    "name": "E5",
                    "midi": 76,
                    "time": 248.5,
                    "velocity": 0.5118110236220472,
                    "duration": 0.5
                },
                {
                    "name": "G#5",
                    "midi": 80,
                    "time": 248.5,
                    "velocity": 0.6062992125984252,
                    "duration": 0.5
                },
                {
                    "name": "B5",
                    "midi": 83,
                    "time": 249,
                    "velocity": 0.5433070866141733,
                    "duration": 0.125
                },
                {
                    "name": "D#6",
                    "midi": 87,
                    "time": 249,
                    "velocity": 0.6377952755905512,
                    "duration": 0.125
                },
                {
                    "name": "E5",
                    "midi": 76,
                    "time": 249.375,
                    "velocity": 0.4881889763779528,
                    "duration": 0.125
                },
                {
                    "name": "G#5",
                    "midi": 80,
                    "time": 249.375,
                    "velocity": 0.5748031496062992,
                    "duration": 0.125
                },
                {
                    "name": "D#5",
                    "midi": 75,
                    "time": 249.5,
                    "velocity": 0.5196850393700787,
                    "duration": 0.375
                },
                {
                    "name": "F#5",
                    "midi": 78,
                    "time": 249.5,
                    "velocity": 0.5748031496062992,
                    "duration": 0.375
                },
                {
                    "name": "E5",
                    "midi": 76,
                    "time": 249.875,
                    "velocity": 0.4881889763779528,
                    "duration": 0.125
                },
                {
                    "name": "G#5",
                    "midi": 80,
                    "time": 249.875,
                    "velocity": 0.5748031496062992,
                    "duration": 0.125
                },
                {
                    "name": "D#5",
                    "midi": 75,
                    "time": 250,
                    "velocity": 0.5118110236220472,
                    "duration": 0.5
                },
                {
                    "name": "F#5",
                    "midi": 78,
                    "time": 250,
                    "velocity": 0.6062992125984252,
                    "duration": 0.5
                },
                {
                    "name": "A#5",
                    "midi": 82,
                    "time": 250.5,
                    "velocity": 0.5433070866141733,
                    "duration": 0.125
                },
                {
                    "name": "C#6",
                    "midi": 85,
                    "time": 250.5,
                    "velocity": 0.6377952755905512,
                    "duration": 0.125
                },
                {
                    "name": "D#5",
                    "midi": 75,
                    "time": 250.875,
                    "velocity": 0.4881889763779528,
                    "duration": 0.125
                },
                {
                    "name": "F#5",
                    "midi": 78,
                    "time": 250.875,
                    "velocity": 0.5748031496062992,
                    "duration": 0.125
                },
                {
                    "name": "C#5",
                    "midi": 73,
                    "time": 251,
                    "velocity": 0.5196850393700787,
                    "duration": 0.375
                },
                {
                    "name": "E5",
                    "midi": 76,
                    "time": 251,
                    "velocity": 0.5748031496062992,
                    "duration": 0.375
                },
                {
                    "name": "D#5",
                    "midi": 75,
                    "time": 251.375,
                    "velocity": 0.4881889763779528,
                    "duration": 0.125
                },
                {
                    "name": "F#5",
                    "midi": 78,
                    "time": 251.375,
                    "velocity": 0.5748031496062992,
                    "duration": 0.125
                },
                {
                    "name": "C#5",
                    "midi": 73,
                    "time": 251.5,
                    "velocity": 0.5118110236220472,
                    "duration": 0.5
                },
                {
                    "name": "E5",
                    "midi": 76,
                    "time": 251.5,
                    "velocity": 0.6062992125984252,
                    "duration": 0.5
                },
                {
                    "name": "B4",
                    "midi": 71,
                    "time": 252,
                    "velocity": 0.4566929133858268,
                    "duration": 0.125
                },
                {
                    "name": "D#5",
                    "midi": 75,
                    "time": 252,
                    "velocity": 0.5433070866141733,
                    "duration": 0.125
                },
                {
                    "name": "C#5",
                    "midi": 73,
                    "time": 252.375,
                    "velocity": 0.4094488188976378,
                    "duration": 0.125
                },
                {
                    "name": "E5",
                    "midi": 76,
                    "time": 252.375,
                    "velocity": 0.4881889763779528,
                    "duration": 0.125
                },
                {
                    "name": "D5",
                    "midi": 74,
                    "time": 252.5,
                    "velocity": 0.4409448818897638,
                    "duration": 0.5
                },
                {
                    "name": "G#5",
                    "midi": 80,
                    "time": 252.5,
                    "velocity": 0.5275590551181102,
                    "duration": 0.5
                },
                {
                    "name": "D#5",
                    "midi": 75,
                    "time": 253,
                    "velocity": 0.3937007874015748,
                    "duration": 0.5
                },
                {
                    "name": "F#5",
                    "midi": 78,
                    "time": 253,
                    "velocity": 0.4645669291338583,
                    "duration": 0.5
                },
                {
                    "name": "G#6",
                    "midi": 92,
                    "time": 253.5,
                    "velocity": 0.6456692913385826,
                    "duration": 0.375
                },
                {
                    "name": "G#5",
                    "midi": 80,
                    "time": 253.5,
                    "velocity": 0.5433070866141733,
                    "duration": 0.375
                },
                {
                    "name": "F#6",
                    "midi": 90,
                    "time": 253.875,
                    "velocity": 0.6062992125984252,
                    "duration": 0.125
                },
                {
                    "name": "F#5",
                    "midi": 78,
                    "time": 253.875,
                    "velocity": 0.5118110236220472,
                    "duration": 0.125
                },
                {
                    "name": "E6",
                    "midi": 88,
                    "time": 254,
                    "velocity": 0.5984251968503937,
                    "duration": 0.375
                },
                {
                    "name": "E5",
                    "midi": 76,
                    "time": 254,
                    "velocity": 0.5039370078740157,
                    "duration": 0.375
                },
                {
                    "name": "E4",
                    "midi": 64,
                    "time": 254.5,
                    "velocity": 0.49606299212598426,
                    "duration": 0.5
                },
                {
                    "name": "A#4",
                    "midi": 70,
                    "time": 254.5,
                    "velocity": 0.5905511811023622,
                    "duration": 0.5
                },
                {
                    "name": "D#4",
                    "midi": 63,
                    "time": 255,
                    "velocity": 0.5039370078740157,
                    "duration": 0.25
                },
                {
                    "name": "B4",
                    "midi": 71,
                    "time": 255,
                    "velocity": 0.5984251968503937,
                    "duration": 0.25
                },
                {
                    "name": "F#4",
                    "midi": 66,
                    "time": 255.375,
                    "velocity": 0.4881889763779528,
                    "duration": 0.125
                },
                {
                    "name": "C#5",
                    "midi": 73,
                    "time": 255.375,
                    "velocity": 0.5748031496062992,
                    "duration": 0.125
                },
                {
                    "name": "B4",
                    "midi": 71,
                    "time": 255.5,
                    "velocity": 0.5354330708661418,
                    "duration": 0.5
                },
                {
                    "name": "D#5",
                    "midi": 75,
                    "time": 255.5,
                    "velocity": 0.6377952755905512,
                    "duration": 0.5
                },
                {
                    "name": "F#5",
                    "midi": 78,
                    "time": 256,
                    "velocity": 0.5118110236220472,
                    "duration": 0.5
                },
                {
                    "name": "F#6",
                    "midi": 90,
                    "time": 256,
                    "velocity": 0.6062992125984252,
                    "duration": 0.5
                },
                {
                    "name": "G#6",
                    "midi": 92,
                    "time": 256.5,
                    "velocity": 0.6456692913385826,
                    "duration": 0.375
                },
                {
                    "name": "G#5",
                    "midi": 80,
                    "time": 256.5,
                    "velocity": 0.5433070866141733,
                    "duration": 0.375
                },
                {
                    "name": "F#6",
                    "midi": 90,
                    "time": 256.875,
                    "velocity": 0.6062992125984252,
                    "duration": 0.125
                },
                {
                    "name": "F#5",
                    "midi": 78,
                    "time": 256.875,
                    "velocity": 0.5118110236220472,
                    "duration": 0.125
                },
                {
                    "name": "E6",
                    "midi": 88,
                    "time": 257,
                    "velocity": 0.5984251968503937,
                    "duration": 0.375
                },
                {
                    "name": "E5",
                    "midi": 76,
                    "time": 257,
                    "velocity": 0.5039370078740157,
                    "duration": 0.375
                },
                {
                    "name": "E4",
                    "midi": 64,
                    "time": 257.5,
                    "velocity": 0.49606299212598426,
                    "duration": 0.5
                },
                {
                    "name": "A#4",
                    "midi": 70,
                    "time": 257.5,
                    "velocity": 0.5905511811023622,
                    "duration": 0.5
                },
                {
                    "name": "D#4",
                    "midi": 63,
                    "time": 258,
                    "velocity": 0.5039370078740157,
                    "duration": 0.25
                },
                {
                    "name": "B4",
                    "midi": 71,
                    "time": 258,
                    "velocity": 0.5984251968503937,
                    "duration": 0.25
                },
                {
                    "name": "F#4",
                    "midi": 66,
                    "time": 258.375,
                    "velocity": 0.4881889763779528,
                    "duration": 0.125
                },
                {
                    "name": "C#5",
                    "midi": 73,
                    "time": 258.375,
                    "velocity": 0.5748031496062992,
                    "duration": 0.125
                },
                {
                    "name": "B4",
                    "midi": 71,
                    "time": 258.5,
                    "velocity": 0.5354330708661418,
                    "duration": 0.5
                },
                {
                    "name": "D#5",
                    "midi": 75,
                    "time": 258.5,
                    "velocity": 0.6377952755905512,
                    "duration": 0.5
                },
                {
                    "name": "D#5",
                    "midi": 75,
                    "time": 259,
                    "velocity": 0.5118110236220472,
                    "duration": 0.5
                },
                {
                    "name": "F#5",
                    "midi": 78,
                    "time": 259,
                    "velocity": 0.6062992125984252,
                    "duration": 0.5
                },
                {
                    "name": "C#6",
                    "midi": 85,
                    "time": 259.5,
                    "velocity": 0.5433070866141733,
                    "duration": 0.125
                },
                {
                    "name": "E6",
                    "midi": 88,
                    "time": 259.5,
                    "velocity": 0.6377952755905512,
                    "duration": 0.125
                },
                {
                    "name": "F#5",
                    "midi": 78,
                    "time": 259.875,
                    "velocity": 0.4881889763779528,
                    "duration": 0.125
                },
                {
                    "name": "A#5",
                    "midi": 82,
                    "time": 259.875,
                    "velocity": 0.5748031496062992,
                    "duration": 0.125
                },
                {
                    "name": "E5",
                    "midi": 76,
                    "time": 260,
                    "velocity": 0.5196850393700787,
                    "duration": 0.375
                },
                {
                    "name": "G#5",
                    "midi": 80,
                    "time": 260,
                    "velocity": 0.5748031496062992,
                    "duration": 0.375
                },
                {
                    "name": "F#5",
                    "midi": 78,
                    "time": 260.375,
                    "velocity": 0.4881889763779528,
                    "duration": 0.125
                },
                {
                    "name": "A#5",
                    "midi": 82,
                    "time": 260.375,
                    "velocity": 0.5748031496062992,
                    "duration": 0.125
                },
                {
                    "name": "E5",
                    "midi": 76,
                    "time": 260.5,
                    "velocity": 0.5118110236220472,
                    "duration": 0.5
                },
                {
                    "name": "G#5",
                    "midi": 80,
                    "time": 260.5,
                    "velocity": 0.6062992125984252,
                    "duration": 0.5
                },
                {
                    "name": "B5",
                    "midi": 83,
                    "time": 261,
                    "velocity": 0.5433070866141733,
                    "duration": 0.125
                },
                {
                    "name": "D#6",
                    "midi": 87,
                    "time": 261,
                    "velocity": 0.6377952755905512,
                    "duration": 0.125
                },
                {
                    "name": "E5",
                    "midi": 76,
                    "time": 261.375,
                    "velocity": 0.4881889763779528,
                    "duration": 0.125
                },
                {
                    "name": "G#5",
                    "midi": 80,
                    "time": 261.375,
                    "velocity": 0.5748031496062992,
                    "duration": 0.125
                },
                {
                    "name": "D#5",
                    "midi": 75,
                    "time": 261.5,
                    "velocity": 0.5196850393700787,
                    "duration": 0.375
                },
                {
                    "name": "F#5",
                    "midi": 78,
                    "time": 261.5,
                    "velocity": 0.5748031496062992,
                    "duration": 0.375
                },
                {
                    "name": "E5",
                    "midi": 76,
                    "time": 261.875,
                    "velocity": 0.4881889763779528,
                    "duration": 0.125
                },
                {
                    "name": "G#5",
                    "midi": 80,
                    "time": 261.875,
                    "velocity": 0.5748031496062992,
                    "duration": 0.125
                },
                {
                    "name": "D#5",
                    "midi": 75,
                    "time": 262,
                    "velocity": 0.5118110236220472,
                    "duration": 0.5
                },
                {
                    "name": "F#5",
                    "midi": 78,
                    "time": 262,
                    "velocity": 0.6062992125984252,
                    "duration": 0.5
                },
                {
                    "name": "A#5",
                    "midi": 82,
                    "time": 262.5,
                    "velocity": 0.5433070866141733,
                    "duration": 0.125
                },
                {
                    "name": "C#6",
                    "midi": 85,
                    "time": 262.5,
                    "velocity": 0.6377952755905512,
                    "duration": 0.125
                },
                {
                    "name": "D#5",
                    "midi": 75,
                    "time": 262.875,
                    "velocity": 0.4881889763779528,
                    "duration": 0.125
                },
                {
                    "name": "F#5",
                    "midi": 78,
                    "time": 262.875,
                    "velocity": 0.5748031496062992,
                    "duration": 0.125
                },
                {
                    "name": "C#5",
                    "midi": 73,
                    "time": 263,
                    "velocity": 0.5196850393700787,
                    "duration": 0.375
                },
                {
                    "name": "E5",
                    "midi": 76,
                    "time": 263,
                    "velocity": 0.5748031496062992,
                    "duration": 0.375
                },
                {
                    "name": "D#5",
                    "midi": 75,
                    "time": 263.375,
                    "velocity": 0.4881889763779528,
                    "duration": 0.125
                },
                {
                    "name": "F#5",
                    "midi": 78,
                    "time": 263.375,
                    "velocity": 0.5748031496062992,
                    "duration": 0.125
                },
                {
                    "name": "C#5",
                    "midi": 73,
                    "time": 263.5,
                    "velocity": 0.5118110236220472,
                    "duration": 0.5
                },
                {
                    "name": "E5",
                    "midi": 76,
                    "time": 263.5,
                    "velocity": 0.6062992125984252,
                    "duration": 0.5
                },
                {
                    "name": "F#5",
                    "midi": 78,
                    "time": 289.5,
                    "velocity": 0.36220472440944884,
                    "duration": 0.25
                },
                {
                    "name": "B5",
                    "midi": 83,
                    "time": 289.75,
                    "velocity": 0.33070866141732286,
                    "duration": 0.25
                },
                {
                    "name": "G5",
                    "midi": 79,
                    "time": 290,
                    "velocity": 0.33070866141732286,
                    "duration": 0.0625
                },
                {
                    "name": "A5",
                    "midi": 81,
                    "time": 290.0625,
                    "velocity": 0.33070866141732286,
                    "duration": 0.0625
                },
                {
                    "name": "G5",
                    "midi": 79,
                    "time": 290.125,
                    "velocity": 0.3779527559055118,
                    "duration": 0.375
                },
                {
                    "name": "F#5",
                    "midi": 78,
                    "time": 290.5,
                    "velocity": 0.3543307086614173,
                    "duration": 0.25
                },
                {
                    "name": "E5",
                    "midi": 76,
                    "time": 290.75,
                    "velocity": 0.33070866141732286,
                    "duration": 0.25
                },
                {
                    "name": "F#5",
                    "midi": 78,
                    "time": 291,
                    "velocity": 0.36220472440944884,
                    "duration": 0.25
                },
                {
                    "name": "B4",
                    "midi": 71,
                    "time": 291.25,
                    "velocity": 0.33070866141732286,
                    "duration": 1.25
                },
                {
                    "name": "C#5",
                    "midi": 73,
                    "time": 292.5,
                    "velocity": 0.3858267716535433,
                    "duration": 0.25
                },
                {
                    "name": "E5",
                    "midi": 76,
                    "time": 292.75,
                    "velocity": 0.33070866141732286,
                    "duration": 0.25
                },
                {
                    "name": "D5",
                    "midi": 74,
                    "time": 293,
                    "velocity": 0.33070866141732286,
                    "duration": 0.0625
                },
                {
                    "name": "E5",
                    "midi": 76,
                    "time": 293.0625,
                    "velocity": 0.33070866141732286,
                    "duration": 0.0625
                },
                {
                    "name": "D5",
                    "midi": 74,
                    "time": 293.125,
                    "velocity": 0.3779527559055118,
                    "duration": 0.375
                },
                {
                    "name": "C#5",
                    "midi": 73,
                    "time": 293.5,
                    "velocity": 0.3543307086614173,
                    "duration": 0.5
                },
                {
                    "name": "D5",
                    "midi": 74,
                    "time": 294,
                    "velocity": 0.36220472440944884,
                    "duration": 0.25
                },
                {
                    "name": "B4",
                    "midi": 71,
                    "time": 294.25,
                    "velocity": 0.33070866141732286,
                    "duration": 1.25
                },
                {
                    "name": "C#5",
                    "midi": 73,
                    "time": 295.5,
                    "velocity": 0.4330708661417323,
                    "duration": 0.25
                },
                {
                    "name": "B4",
                    "midi": 71,
                    "time": 295.75,
                    "velocity": 0.3700787401574803,
                    "duration": 0.25
                },
                {
                    "name": "A4",
                    "midi": 69,
                    "time": 296,
                    "velocity": 0.33858267716535434,
                    "duration": 0.0625
                },
                {
                    "name": "B4",
                    "midi": 71,
                    "time": 296.0625,
                    "velocity": 0.3464566929133858,
                    "duration": 0.0625
                },
                {
                    "name": "A4",
                    "midi": 69,
                    "time": 296.125,
                    "velocity": 0.4094488188976378,
                    "duration": 0.375
                },
                {
                    "name": "G#4",
                    "midi": 68,
                    "time": 296.5,
                    "velocity": 0.3937007874015748,
                    "duration": 0.5
                },
                {
                    "name": "A4",
                    "midi": 69,
                    "time": 297,
                    "velocity": 0.4094488188976378,
                    "duration": 0.25
                },
                {
                    "name": "C#5",
                    "midi": 73,
                    "time": 297.25,
                    "velocity": 0.3700787401574803,
                    "duration": 0.5
                },
                {
                    "name": "C#4",
                    "midi": 61,
                    "time": 298,
                    "velocity": 0.5354330708661418,
                    "duration": 0.75
                },
                {
                    "name": "B3",
                    "midi": 59,
                    "time": 298.75,
                    "velocity": 0.47244094488188976,
                    "duration": 0.25
                },
                {
                    "name": "A3",
                    "midi": 57,
                    "time": 299,
                    "velocity": 0.44881889763779526,
                    "duration": 0.0625
                },
                {
                    "name": "B3",
                    "midi": 59,
                    "time": 299.0625,
                    "velocity": 0.44881889763779526,
                    "duration": 0.0625
                },
                {
                    "name": "A3",
                    "midi": 57,
                    "time": 299.125,
                    "velocity": 0.5354330708661418,
                    "duration": 0.375
                },
                {
                    "name": "G#3",
                    "midi": 56,
                    "time": 299.5,
                    "velocity": 0.5275590551181102,
                    "duration": 0.5
                },
                {
                    "name": "A3",
                    "midi": 57,
                    "time": 300,
                    "velocity": 0.5590551181102362,
                    "duration": 0.5
                },
                {
                    "name": "C#4",
                    "midi": 61,
                    "time": 300.5,
                    "velocity": 0.5275590551181102,
                    "duration": 1
                },
                {
                    "name": "B3",
                    "midi": 59,
                    "time": 301.5,
                    "velocity": 0.5590551181102362,
                    "duration": 0.5
                },
                {
                    "name": "A3",
                    "midi": 57,
                    "time": 302,
                    "velocity": 0.5354330708661418,
                    "duration": 0.4958333333333371
                },
                {
                    "name": "C#4",
                    "midi": 61,
                    "time": 302.5,
                    "velocity": 0.5354330708661418,
                    "duration": 0.5
                },
                {
                    "name": "B3",
                    "midi": 59,
                    "time": 303,
                    "velocity": 0.49606299212598426,
                    "duration": 0.0625
                },
                {
                    "name": "C#4",
                    "midi": 61,
                    "time": 303.0625,
                    "velocity": 0.49606299212598426,
                    "duration": 0.0625
                },
                {
                    "name": "B3",
                    "midi": 59,
                    "time": 303.125,
                    "velocity": 0.5748031496062992,
                    "duration": 0.125
                },
                {
                    "name": "A3",
                    "midi": 57,
                    "time": 303.25,
                    "velocity": 0.5196850393700787,
                    "duration": 0.25
                },
                {
                    "name": "C#4",
                    "midi": 61,
                    "time": 303.5,
                    "velocity": 0.5669291338582677,
                    "duration": 0.5
                },
                {
                    "name": "C#4",
                    "midi": 61,
                    "time": 304,
                    "velocity": 0.5354330708661418,
                    "duration": 0.5
                },
                {
                    "name": "B3",
                    "midi": 59,
                    "time": 304.5,
                    "velocity": 0.48031496062992124,
                    "duration": 0.0625
                },
                {
                    "name": "C#4",
                    "midi": 61,
                    "time": 304.5625,
                    "velocity": 0.48031496062992124,
                    "duration": 0.0625
                },
                {
                    "name": "B3",
                    "midi": 59,
                    "time": 304.625,
                    "velocity": 0.5669291338582677,
                    "duration": 0.375
                },
                {
                    "name": "A#3",
                    "midi": 58,
                    "time": 305,
                    "velocity": 0.5669291338582677,
                    "duration": 0.4947916666666856
                },
                {
                    "name": "C#4",
                    "midi": 61,
                    "time": 305.5,
                    "velocity": 0.5354330708661418,
                    "duration": 0.5
                },
                {
                    "name": "B3",
                    "midi": 59,
                    "time": 306,
                    "velocity": 0.4881889763779528,
                    "duration": 0.0625
                },
                {
                    "name": "C#4",
                    "midi": 61,
                    "time": 306.0625,
                    "velocity": 0.49606299212598426,
                    "duration": 0.0625
                },
                {
                    "name": "B3",
                    "midi": 59,
                    "time": 306.125,
                    "velocity": 0.5748031496062992,
                    "duration": 0.125
                },
                {
                    "name": "A#3",
                    "midi": 58,
                    "time": 306.25,
                    "velocity": 0.5196850393700787,
                    "duration": 0.25
                },
                {
                    "name": "F#4",
                    "midi": 66,
                    "time": 306.5,
                    "velocity": 0.5669291338582677,
                    "duration": 0.5
                },
                {
                    "name": "F#5",
                    "midi": 78,
                    "time": 307,
                    "velocity": 0.4566929133858268,
                    "duration": 0.75
                },
                {
                    "name": "B5",
                    "midi": 83,
                    "time": 307.75,
                    "velocity": 0.3937007874015748,
                    "duration": 0.25
                },
                {
                    "name": "G5",
                    "midi": 79,
                    "time": 308,
                    "velocity": 0.3937007874015748,
                    "duration": 0.0625
                },
                {
                    "name": "A5",
                    "midi": 81,
                    "time": 308.0625,
                    "velocity": 0.3937007874015748,
                    "duration": 0.0625
                },
                {
                    "name": "G5",
                    "midi": 79,
                    "time": 308.125,
                    "velocity": 0.44881889763779526,
                    "duration": 0.375
                },
                {
                    "name": "F#5",
                    "midi": 78,
                    "time": 308.5,
                    "velocity": 0.41732283464566927,
                    "duration": 0.25
                },
                {
                    "name": "E5",
                    "midi": 76,
                    "time": 308.75,
                    "velocity": 0.3937007874015748,
                    "duration": 0.25
                },
                {
                    "name": "F#5",
                    "midi": 78,
                    "time": 309,
                    "velocity": 0.4330708661417323,
                    "duration": 0.25
                },
                {
                    "name": "B4",
                    "midi": 71,
                    "time": 309.25,
                    "velocity": 0.3937007874015748,
                    "duration": 1.25
                },
                {
                    "name": "C#5",
                    "midi": 73,
                    "time": 310.5,
                    "velocity": 0.4566929133858268,
                    "duration": 0.25
                },
                {
                    "name": "E5",
                    "midi": 76,
                    "time": 310.75,
                    "velocity": 0.3937007874015748,
                    "duration": 0.25
                },
                {
                    "name": "D5",
                    "midi": 74,
                    "time": 311,
                    "velocity": 0.3937007874015748,
                    "duration": 0.0625
                },
                {
                    "name": "E5",
                    "midi": 76,
                    "time": 311.0625,
                    "velocity": 0.3937007874015748,
                    "duration": 0.0625
                },
                {
                    "name": "D5",
                    "midi": 74,
                    "time": 311.125,
                    "velocity": 0.44881889763779526,
                    "duration": 0.375
                },
                {
                    "name": "C#5",
                    "midi": 73,
                    "time": 311.5,
                    "velocity": 0.41732283464566927,
                    "duration": 0.5
                },
                {
                    "name": "D5",
                    "midi": 74,
                    "time": 312,
                    "velocity": 0.4330708661417323,
                    "duration": 0.25
                },
                {
                    "name": "B4",
                    "midi": 71,
                    "time": 312.25,
                    "velocity": 0.3937007874015748,
                    "duration": 0.75
                },
                {
                    "name": "D3",
                    "midi": 50,
                    "time": 313,
                    "velocity": 0.5196850393700787,
                    "duration": 0.75
                },
                {
                    "name": "G3",
                    "midi": 55,
                    "time": 313.75,
                    "velocity": 0.4566929133858268,
                    "duration": 0.25
                },
                {
                    "name": "E3",
                    "midi": 52,
                    "time": 314,
                    "velocity": 0.5118110236220472,
                    "duration": 0.16666666666668561
                },
                {
                    "name": "F3",
                    "midi": 53,
                    "time": 314.1666666666667,
                    "velocity": 0.44881889763779526,
                    "duration": 0.16666666666668561
                },
                {
                    "name": "E3",
                    "midi": 52,
                    "time": 314.33333333333337,
                    "velocity": 0.4330708661417323,
                    "duration": 0.16666666666668561
                },
                {
                    "name": "D3",
                    "midi": 50,
                    "time": 314.50000000000006,
                    "velocity": 0.49606299212598426,
                    "duration": 0.25
                },
                {
                    "name": "C3",
                    "midi": 48,
                    "time": 314.75000000000006,
                    "velocity": 0.44881889763779526,
                    "duration": 0.25
                },
                {
                    "name": "D3",
                    "midi": 50,
                    "time": 315.00000000000006,
                    "velocity": 0.5039370078740157,
                    "duration": 0.375
                },
                {
                    "name": "G2",
                    "midi": 43,
                    "time": 315.37500000000006,
                    "velocity": 0.4330708661417323,
                    "duration": 0.125
                },
                {
                    "name": "D3",
                    "midi": 50,
                    "time": 315.50000000000006,
                    "velocity": 0.5039370078740157,
                    "duration": 0.5
                },
                {
                    "name": "C3",
                    "midi": 48,
                    "time": 316.00000000000006,
                    "velocity": 0.4645669291338583,
                    "duration": 0.5
                },
                {
                    "name": "D3",
                    "midi": 50,
                    "time": 316.50000000000006,
                    "velocity": 0.5196850393700787,
                    "duration": 0.25
                },
                {
                    "name": "G3",
                    "midi": 55,
                    "time": 316.75000000000006,
                    "velocity": 0.4566929133858268,
                    "duration": 0.25
                },
                {
                    "name": "E3",
                    "midi": 52,
                    "time": 317.00000000000006,
                    "velocity": 0.5118110236220472,
                    "duration": 0.16666666666668561
                },
                {
                    "name": "F3",
                    "midi": 53,
                    "time": 317.16666666666674,
                    "velocity": 0.44881889763779526,
                    "duration": 0.16666666666668561
                },
                {
                    "name": "E3",
                    "midi": 52,
                    "time": 317.3333333333334,
                    "velocity": 0.4330708661417323,
                    "duration": 0.16666666666668561
                },
                {
                    "name": "D3",
                    "midi": 50,
                    "time": 317.5000000000001,
                    "velocity": 0.49606299212598426,
                    "duration": 0.25
                },
                {
                    "name": "C3",
                    "midi": 48,
                    "time": 317.7500000000001,
                    "velocity": 0.44881889763779526,
                    "duration": 0.25
                },
                {
                    "name": "D3",
                    "midi": 50,
                    "time": 318.0000000000001,
                    "velocity": 0.5039370078740157,
                    "duration": 0.375
                },
                {
                    "name": "G2",
                    "midi": 43,
                    "time": 318.3750000000001,
                    "velocity": 0.4251968503937008,
                    "duration": 0.125
                },
                {
                    "name": "D3",
                    "midi": 50,
                    "time": 318.5000000000001,
                    "velocity": 0.4881889763779528,
                    "duration": 0.5
                },
                {
                    "name": "C3",
                    "midi": 48,
                    "time": 319.0000000000001,
                    "velocity": 0.4409448818897638,
                    "duration": 0.5
                },
                {
                    "name": "D3",
                    "midi": 50,
                    "time": 319.5000000000001,
                    "velocity": 0.47244094488188976,
                    "duration": 0.375
                },
                {
                    "name": "G2",
                    "midi": 43,
                    "time": 319.8750000000001,
                    "velocity": 0.4015748031496063,
                    "duration": 0.125
                },
                {
                    "name": "C3",
                    "midi": 48,
                    "time": 320.0000000000001,
                    "velocity": 0.4566929133858268,
                    "duration": 0.5
                },
                {
                    "name": "D3",
                    "midi": 50,
                    "time": 320.5000000000001,
                    "velocity": 0.44881889763779526,
                    "duration": 0.375
                },
                {
                    "name": "G2",
                    "midi": 43,
                    "time": 320.8750000000001,
                    "velocity": 0.3779527559055118,
                    "duration": 0.125
                },
                {
                    "name": "C3",
                    "midi": 48,
                    "time": 321.0000000000001,
                    "velocity": 0.4409448818897638,
                    "duration": 0.5
                },
                {
                    "name": "D3",
                    "midi": 50,
                    "time": 321.5000000000001,
                    "velocity": 0.4330708661417323,
                    "duration": 0.375
                },
                {
                    "name": "G2",
                    "midi": 43,
                    "time": 321.8750000000001,
                    "velocity": 0.36220472440944884,
                    "duration": 0.125
                },
                {
                    "name": "C3",
                    "midi": 48,
                    "time": 322.0000000000001,
                    "velocity": 0.41732283464566927,
                    "duration": 0.5
                },
                {
                    "name": "D3",
                    "midi": 50,
                    "time": 322.5000000000001,
                    "velocity": 0.4251968503937008,
                    "duration": 0.375
                },
                {
                    "name": "G2",
                    "midi": 43,
                    "time": 322.8750000000001,
                    "velocity": 0.3543307086614173,
                    "duration": 0.125
                },
                {
                    "name": "D3",
                    "midi": 50,
                    "time": 323.0000000000001,
                    "velocity": 0.4015748031496063,
                    "duration": 0.5
                },
                {
                    "name": "C3",
                    "midi": 48,
                    "time": 323.5000000000001,
                    "velocity": 0.3543307086614173,
                    "duration": 0.5
                },
                {
                    "name": "D3",
                    "midi": 50,
                    "time": 324.0000000000001,
                    "velocity": 0.3937007874015748,
                    "duration": 0.375
                },
                {
                    "name": "G2",
                    "midi": 43,
                    "time": 324.3750000000001,
                    "velocity": 0.3228346456692913,
                    "duration": 0.125
                },
                {
                    "name": "D3",
                    "midi": 50,
                    "time": 324.5000000000001,
                    "velocity": 0.36220472440944884,
                    "duration": 0.5
                },
                {
                    "name": "C3",
                    "midi": 48,
                    "time": 325.0000000000001,
                    "velocity": 0.3228346456692913,
                    "duration": 0.5
                },
                {
                    "name": "G4",
                    "midi": 67,
                    "time": 334.5000000000001,
                    "velocity": 0.4251968503937008,
                    "duration": 0.5
                },
                {
                    "name": "C4",
                    "midi": 60,
                    "time": 335.0000000000001,
                    "velocity": 0.4645669291338583,
                    "duration": 0.75
                },
                {
                    "name": "B3",
                    "midi": 59,
                    "time": 335.7500000000001,
                    "velocity": 0.4094488188976378,
                    "duration": 0.25
                },
                {
                    "name": "E3",
                    "midi": 52,
                    "time": 336.0000000000001,
                    "velocity": 0.3937007874015748,
                    "duration": 0.375
                },
                {
                    "name": "A#3",
                    "midi": 58,
                    "time": 336.0000000000001,
                    "velocity": 0.4645669291338583,
                    "duration": 0.375
                },
                {
                    "name": "C#4",
                    "midi": 61,
                    "time": 336.0000000000001,
                    "velocity": 0.4645669291338583,
                    "duration": 0.375
                },
                {
                    "name": "F#3",
                    "midi": 54,
                    "time": 336.3750000000001,
                    "velocity": 0.3543307086614173,
                    "duration": 0.625
                },
                {
                    "name": "E3",
                    "midi": 52,
                    "time": 336.5000000000001,
                    "velocity": 0.3858267716535433,
                    "duration": 0.5
                },
                {
                    "name": "A#3",
                    "midi": 58,
                    "time": 336.5000000000001,
                    "velocity": 0.4566929133858268,
                    "duration": 0.5
                },
                {
                    "name": "C#4",
                    "midi": 61,
                    "time": 336.5000000000001,
                    "velocity": 0.4566929133858268,
                    "duration": 0.5
                },
                {
                    "name": "D3",
                    "midi": 50,
                    "time": 337.0000000000001,
                    "velocity": 0.3700787401574803,
                    "duration": 0.5
                },
                {
                    "name": "F#3",
                    "midi": 54,
                    "time": 337.0000000000001,
                    "velocity": 0.3700787401574803,
                    "duration": 0.5
                },
                {
                    "name": "B3",
                    "midi": 59,
                    "time": 337.0000000000001,
                    "velocity": 0.4409448818897638,
                    "duration": 0.5
                }
            ],
            "controlChanges": {
                "7": [
                    {
                        "number": 7,
                        "time": 0,
                        "value": 0.7874015748031497
                    }
                ],
                "10": [
                    {
                        "number": 10,
                        "time": 0,
                        "value": 0.5039370078740157
                    }
                ],
                "91": [
                    {
                        "number": 91,
                        "time": 0,
                        "value": 1
                    }
                ]
            },
            "id": 1,
            "name": "Piano right",
            "instrumentNumber": 0,
            "instrument": "acoustic grand piano",
            "instrumentFamily": "piano",
            "channelNumber": 0,
            "isPercussion": false
        },
        {
            "startTime": 1.5,
            "duration": 337.4999999999998,
            "length": 1183,
            "notes": [
                {
                    "name": "B2",
                    "midi": 47,
                    "time": 1.5,
                    "velocity": 0.3937007874015748,
                    "duration": 0.5
                },
                {
                    "name": "E4",
                    "midi": 64,
                    "time": 2,
                    "velocity": 0.31496062992125984,
                    "duration": 0.5
                },
                {
                    "name": "B3",
                    "midi": 59,
                    "time": 2,
                    "velocity": 0.2677165354330709,
                    "duration": 0.5
                },
                {
                    "name": "G3",
                    "midi": 55,
                    "time": 2,
                    "velocity": 0.2677165354330709,
                    "duration": 0.5
                },
                {
                    "name": "E4",
                    "midi": 64,
                    "time": 2.5,
                    "velocity": 0.30708661417322836,
                    "duration": 0.5
                },
                {
                    "name": "B3",
                    "midi": 59,
                    "time": 2.5,
                    "velocity": 0.25984251968503935,
                    "duration": 0.5
                },
                {
                    "name": "G3",
                    "midi": 55,
                    "time": 2.5,
                    "velocity": 0.25984251968503935,
                    "duration": 0.5
                },
                {
                    "name": "B2",
                    "midi": 47,
                    "time": 3,
                    "velocity": 0.3937007874015748,
                    "duration": 0.5
                },
                {
                    "name": "D4",
                    "midi": 62,
                    "time": 3.5,
                    "velocity": 0.2440944881889764,
                    "duration": 0.5
                },
                {
                    "name": "B3",
                    "midi": 59,
                    "time": 3.5,
                    "velocity": 0.2047244094488189,
                    "duration": 0.5
                },
                {
                    "name": "F#3",
                    "midi": 54,
                    "time": 3.5,
                    "velocity": 0.2047244094488189,
                    "duration": 0.5
                },
                {
                    "name": "D4",
                    "midi": 62,
                    "time": 4,
                    "velocity": 0.2440944881889764,
                    "duration": 0.5
                },
                {
                    "name": "B3",
                    "midi": 59,
                    "time": 4,
                    "velocity": 0.2047244094488189,
                    "duration": 0.5
                },
                {
                    "name": "F#3",
                    "midi": 54,
                    "time": 4,
                    "velocity": 0.2047244094488189,
                    "duration": 0.5
                },
                {
                    "name": "B2",
                    "midi": 47,
                    "time": 4.5,
                    "velocity": 0.3937007874015748,
                    "duration": 0.5
                },
                {
                    "name": "E4",
                    "midi": 64,
                    "time": 5,
                    "velocity": 0.31496062992125984,
                    "duration": 0.5
                },
                {
                    "name": "A#3",
                    "midi": 58,
                    "time": 5,
                    "velocity": 0.2677165354330709,
                    "duration": 0.5
                },
                {
                    "name": "F#3",
                    "midi": 54,
                    "time": 5,
                    "velocity": 0.2677165354330709,
                    "duration": 0.5
                },
                {
                    "name": "E4",
                    "midi": 64,
                    "time": 5.5,
                    "velocity": 0.30708661417322836,
                    "duration": 0.5
                },
                {
                    "name": "A#3",
                    "midi": 58,
                    "time": 5.5,
                    "velocity": 0.25984251968503935,
                    "duration": 0.5
                },
                {
                    "name": "F#3",
                    "midi": 54,
                    "time": 5.5,
                    "velocity": 0.25984251968503935,
                    "duration": 0.5
                },
                {
                    "name": "B2",
                    "midi": 47,
                    "time": 6,
                    "velocity": 0.3937007874015748,
                    "duration": 0.5
                },
                {
                    "name": "D4",
                    "midi": 62,
                    "time": 6.5,
                    "velocity": 0.2440944881889764,
                    "duration": 0.5
                },
                {
                    "name": "B3",
                    "midi": 59,
                    "time": 6.5,
                    "velocity": 0.2047244094488189,
                    "duration": 0.5
                },
                {
                    "name": "F#3",
                    "midi": 54,
                    "time": 6.5,
                    "velocity": 0.2047244094488189,
                    "duration": 0.5
                },
                {
                    "name": "D4",
                    "midi": 62,
                    "time": 7,
                    "velocity": 0.2440944881889764,
                    "duration": 0.5
                },
                {
                    "name": "B3",
                    "midi": 59,
                    "time": 7,
                    "velocity": 0.2047244094488189,
                    "duration": 0.5
                },
                {
                    "name": "F#3",
                    "midi": 54,
                    "time": 7,
                    "velocity": 0.2047244094488189,
                    "duration": 0.5
                },
                {
                    "name": "C#2",
                    "midi": 37,
                    "time": 7.5,
                    "velocity": 0.3937007874015748,
                    "duration": 0.5
                },
                {
                    "name": "B3",
                    "midi": 59,
                    "time": 8,
                    "velocity": 0.31496062992125984,
                    "duration": 0.5
                },
                {
                    "name": "F3",
                    "midi": 53,
                    "time": 8,
                    "velocity": 0.2677165354330709,
                    "duration": 0.5
                },
                {
                    "name": "C#3",
                    "midi": 49,
                    "time": 8,
                    "velocity": 0.2677165354330709,
                    "duration": 0.5
                },
                {
                    "name": "B3",
                    "midi": 59,
                    "time": 8.5,
                    "velocity": 0.30708661417322836,
                    "duration": 0.5
                },
                {
                    "name": "F3",
                    "midi": 53,
                    "time": 8.5,
                    "velocity": 0.25984251968503935,
                    "duration": 0.5
                },
                {
                    "name": "C#3",
                    "midi": 49,
                    "time": 8.5,
                    "velocity": 0.25984251968503935,
                    "duration": 0.5
                },
                {
                    "name": "F#2",
                    "midi": 42,
                    "time": 9,
                    "velocity": 0.3937007874015748,
                    "duration": 0.5
                },
                {
                    "name": "A3",
                    "midi": 57,
                    "time": 9.5,
                    "velocity": 0.29133858267716534,
                    "duration": 0.5
                },
                {
                    "name": "C#3",
                    "midi": 49,
                    "time": 9.5,
                    "velocity": 0.2440944881889764,
                    "duration": 0.5
                },
                {
                    "name": "C#3",
                    "midi": 49,
                    "time": 13.5,
                    "velocity": 0.3700787401574803,
                    "duration": 1.5
                },
                {
                    "name": "G#3",
                    "midi": 56,
                    "time": 13.5,
                    "velocity": 0.4566929133858268,
                    "duration": 0.5
                },
                {
                    "name": "F#3",
                    "midi": 54,
                    "time": 14,
                    "velocity": 0.4330708661417323,
                    "duration": 0.5
                },
                {
                    "name": "A3",
                    "midi": 57,
                    "time": 14.5,
                    "velocity": 0.4330708661417323,
                    "duration": 0.5
                },
                {
                    "name": "C#3",
                    "midi": 49,
                    "time": 15,
                    "velocity": 0.3700787401574803,
                    "duration": 1.5
                },
                {
                    "name": "G#3",
                    "midi": 56,
                    "time": 15,
                    "velocity": 0.44881889763779526,
                    "duration": 0.25
                },
                {
                    "name": "F#3",
                    "midi": 54,
                    "time": 15.25,
                    "velocity": 0.4015748031496063,
                    "duration": 0.25
                },
                {
                    "name": "A3",
                    "midi": 57,
                    "time": 15.5,
                    "velocity": 0.4409448818897638,
                    "duration": 0.5
                },
                {
                    "name": "A3",
                    "midi": 57,
                    "time": 16,
                    "velocity": 0.4251968503937008,
                    "duration": 0.5
                },
                {
                    "name": "C#3",
                    "midi": 49,
                    "time": 16.5,
                    "velocity": 0.3700787401574803,
                    "duration": 1.5
                },
                {
                    "name": "G#3",
                    "midi": 56,
                    "time": 16.5,
                    "velocity": 0.44881889763779526,
                    "duration": 0.5
                },
                {
                    "name": "F#3",
                    "midi": 54,
                    "time": 17,
                    "velocity": 0.4409448818897638,
                    "duration": 0.5
                },
                {
                    "name": "A#3",
                    "midi": 58,
                    "time": 17.5,
                    "velocity": 0.4251968503937008,
                    "duration": 0.5
                },
                {
                    "name": "C#3",
                    "midi": 49,
                    "time": 18,
                    "velocity": 0.3700787401574803,
                    "duration": 0.5
                },
                {
                    "name": "G#3",
                    "midi": 56,
                    "time": 18,
                    "velocity": 0.44881889763779526,
                    "duration": 0.25
                },
                {
                    "name": "F#3",
                    "midi": 54,
                    "time": 18.25,
                    "velocity": 0.4015748031496063,
                    "duration": 0.75
                },
                {
                    "name": "F#2",
                    "midi": 42,
                    "time": 18.5,
                    "velocity": 0.3700787401574803,
                    "duration": 1
                },
                {
                    "name": "B2",
                    "midi": 47,
                    "time": 19.5,
                    "velocity": 0.3937007874015748,
                    "duration": 0.5
                },
                {
                    "name": "E4",
                    "midi": 64,
                    "time": 20,
                    "velocity": 0.31496062992125984,
                    "duration": 0.5
                },
                {
                    "name": "B3",
                    "midi": 59,
                    "time": 20,
                    "velocity": 0.2677165354330709,
                    "duration": 0.5
                },
                {
                    "name": "G3",
                    "midi": 55,
                    "time": 20,
                    "velocity": 0.2677165354330709,
                    "duration": 0.5
                },
                {
                    "name": "E4",
                    "midi": 64,
                    "time": 20.5,
                    "velocity": 0.30708661417322836,
                    "duration": 0.5
                },
                {
                    "name": "B3",
                    "midi": 59,
                    "time": 20.5,
                    "velocity": 0.25984251968503935,
                    "duration": 0.5
                },
                {
                    "name": "G3",
                    "midi": 55,
                    "time": 20.5,
                    "velocity": 0.25984251968503935,
                    "duration": 0.5
                },
                {
                    "name": "B2",
                    "midi": 47,
                    "time": 21,
                    "velocity": 0.3937007874015748,
                    "duration": 0.49999999999999645
                },
                {
                    "name": "D4",
                    "midi": 62,
                    "time": 21.499999999999996,
                    "velocity": 0.2440944881889764,
                    "duration": 0.5
                },
                {
                    "name": "B3",
                    "midi": 59,
                    "time": 21.499999999999996,
                    "velocity": 0.2047244094488189,
                    "duration": 0.5
                },
                {
                    "name": "F#3",
                    "midi": 54,
                    "time": 21.499999999999996,
                    "velocity": 0.2047244094488189,
                    "duration": 0.5
                },
                {
                    "name": "D4",
                    "midi": 62,
                    "time": 21.999999999999996,
                    "velocity": 0.2440944881889764,
                    "duration": 0.5
                },
                {
                    "name": "B3",
                    "midi": 59,
                    "time": 21.999999999999996,
                    "velocity": 0.2047244094488189,
                    "duration": 0.5
                },
                {
                    "name": "F#3",
                    "midi": 54,
                    "time": 21.999999999999996,
                    "velocity": 0.2047244094488189,
                    "duration": 0.5
                },
                {
                    "name": "B2",
                    "midi": 47,
                    "time": 22.499999999999996,
                    "velocity": 0.3937007874015748,
                    "duration": 0.5
                },
                {
                    "name": "E4",
                    "midi": 64,
                    "time": 22.999999999999996,
                    "velocity": 0.31496062992125984,
                    "duration": 0.5
                },
                {
                    "name": "A#3",
                    "midi": 58,
                    "time": 22.999999999999996,
                    "velocity": 0.2677165354330709,
                    "duration": 0.5
                },
                {
                    "name": "F#3",
                    "midi": 54,
                    "time": 22.999999999999996,
                    "velocity": 0.2677165354330709,
                    "duration": 0.5
                },
                {
                    "name": "E4",
                    "midi": 64,
                    "time": 23.499999999999996,
                    "velocity": 0.30708661417322836,
                    "duration": 0.5
                },
                {
                    "name": "A#3",
                    "midi": 58,
                    "time": 23.499999999999996,
                    "velocity": 0.25984251968503935,
                    "duration": 0.5
                },
                {
                    "name": "F#3",
                    "midi": 54,
                    "time": 23.499999999999996,
                    "velocity": 0.25984251968503935,
                    "duration": 0.5
                },
                {
                    "name": "B2",
                    "midi": 47,
                    "time": 23.999999999999996,
                    "velocity": 0.3937007874015748,
                    "duration": 0.5
                },
                {
                    "name": "D4",
                    "midi": 62,
                    "time": 24.499999999999996,
                    "velocity": 0.2440944881889764,
                    "duration": 0.5
                },
                {
                    "name": "B3",
                    "midi": 59,
                    "time": 24.499999999999996,
                    "velocity": 0.2047244094488189,
                    "duration": 0.5
                },
                {
                    "name": "F#3",
                    "midi": 54,
                    "time": 24.499999999999996,
                    "velocity": 0.2047244094488189,
                    "duration": 0.5
                },
                {
                    "name": "B3",
                    "midi": 59,
                    "time": 25.499999999999996,
                    "velocity": 0.2992125984251969,
                    "duration": 0.5
                },
                {
                    "name": "F4",
                    "midi": 65,
                    "time": 25.499999999999996,
                    "velocity": 0.33858267716535434,
                    "duration": 0.5
                },
                {
                    "name": "C4",
                    "midi": 60,
                    "time": 25.999999999999996,
                    "velocity": 0.2677165354330709,
                    "duration": 0.5
                },
                {
                    "name": "E4",
                    "midi": 64,
                    "time": 25.999999999999996,
                    "velocity": 0.2992125984251969,
                    "duration": 0.5
                },
                {
                    "name": "C4",
                    "midi": 60,
                    "time": 26.499999999999996,
                    "velocity": 0.2677165354330709,
                    "duration": 0.5
                },
                {
                    "name": "E4",
                    "midi": 64,
                    "time": 26.499999999999996,
                    "velocity": 0.2992125984251969,
                    "duration": 0.5
                },
                {
                    "name": "G3",
                    "midi": 55,
                    "time": 26.999999999999996,
                    "velocity": 0.3228346456692913,
                    "duration": 0.5
                },
                {
                    "name": "B3",
                    "midi": 59,
                    "time": 26.999999999999996,
                    "velocity": 0.3228346456692913,
                    "duration": 0.5
                },
                {
                    "name": "F4",
                    "midi": 65,
                    "time": 26.999999999999996,
                    "velocity": 0.36220472440944884,
                    "duration": 0.5
                },
                {
                    "name": "G3",
                    "midi": 55,
                    "time": 27.499999999999996,
                    "velocity": 0.2677165354330709,
                    "duration": 0.5
                },
                {
                    "name": "B3",
                    "midi": 59,
                    "time": 27.499999999999996,
                    "velocity": 0.2677165354330709,
                    "duration": 0.5
                },
                {
                    "name": "F4",
                    "midi": 65,
                    "time": 27.499999999999996,
                    "velocity": 0.2992125984251969,
                    "duration": 0.5
                },
                {
                    "name": "C4",
                    "midi": 60,
                    "time": 27.999999999999996,
                    "velocity": 0.2677165354330709,
                    "duration": 0.5
                },
                {
                    "name": "E4",
                    "midi": 64,
                    "time": 27.999999999999996,
                    "velocity": 0.2992125984251969,
                    "duration": 0.5
                },
                {
                    "name": "B3",
                    "midi": 59,
                    "time": 28.499999999999996,
                    "velocity": 0.2992125984251969,
                    "duration": 0.5
                },
                {
                    "name": "F4",
                    "midi": 65,
                    "time": 28.499999999999996,
                    "velocity": 0.33858267716535434,
                    "duration": 0.5
                },
                {
                    "name": "C4",
                    "midi": 60,
                    "time": 28.999999999999996,
                    "velocity": 0.2677165354330709,
                    "duration": 0.5
                },
                {
                    "name": "E4",
                    "midi": 64,
                    "time": 28.999999999999996,
                    "velocity": 0.2992125984251969,
                    "duration": 0.5
                },
                {
                    "name": "C4",
                    "midi": 60,
                    "time": 29.499999999999996,
                    "velocity": 0.2677165354330709,
                    "duration": 0.5
                },
                {
                    "name": "E4",
                    "midi": 64,
                    "time": 29.499999999999996,
                    "velocity": 0.2992125984251969,
                    "duration": 0.5
                },
                {
                    "name": "G3",
                    "midi": 55,
                    "time": 29.999999999999996,
                    "velocity": 0.3228346456692913,
                    "duration": 0.5
                },
                {
                    "name": "B3",
                    "midi": 59,
                    "time": 29.999999999999996,
                    "velocity": 0.3228346456692913,
                    "duration": 0.5
                },
                {
                    "name": "F4",
                    "midi": 65,
                    "time": 29.999999999999996,
                    "velocity": 0.36220472440944884,
                    "duration": 0.5
                },
                {
                    "name": "G3",
                    "midi": 55,
                    "time": 30.499999999999996,
                    "velocity": 0.25984251968503935,
                    "duration": 0.5
                },
                {
                    "name": "B3",
                    "midi": 59,
                    "time": 30.499999999999996,
                    "velocity": 0.25984251968503935,
                    "duration": 0.5
                },
                {
                    "name": "F4",
                    "midi": 65,
                    "time": 30.499999999999996,
                    "velocity": 0.29133858267716534,
                    "duration": 0.5
                },
                {
                    "name": "C4",
                    "midi": 60,
                    "time": 30.999999999999996,
                    "velocity": 0.25196850393700787,
                    "duration": 0.5
                },
                {
                    "name": "E4",
                    "midi": 64,
                    "time": 30.999999999999996,
                    "velocity": 0.28346456692913385,
                    "duration": 0.5
                },
                {
                    "name": "G3",
                    "midi": 55,
                    "time": 31.499999999999996,
                    "velocity": 0.2992125984251969,
                    "duration": 0.5
                },
                {
                    "name": "B3",
                    "midi": 59,
                    "time": 31.499999999999996,
                    "velocity": 0.2992125984251969,
                    "duration": 0.5
                },
                {
                    "name": "F4",
                    "midi": 65,
                    "time": 31.499999999999996,
                    "velocity": 0.33858267716535434,
                    "duration": 0.5
                },
                {
                    "name": "C4",
                    "midi": 60,
                    "time": 31.999999999999996,
                    "velocity": 0.2440944881889764,
                    "duration": 0.5000000000000036
                },
                {
                    "name": "E4",
                    "midi": 64,
                    "time": 31.999999999999996,
                    "velocity": 0.2677165354330709,
                    "duration": 0.5000000000000036
                },
                {
                    "name": "G3",
                    "midi": 55,
                    "time": 32.5,
                    "velocity": 0.28346456692913385,
                    "duration": 0.5
                },
                {
                    "name": "B3",
                    "midi": 59,
                    "time": 32.5,
                    "velocity": 0.28346456692913385,
                    "duration": 0.5
                },
                {
                    "name": "F4",
                    "midi": 65,
                    "time": 32.5,
                    "velocity": 0.3228346456692913,
                    "duration": 0.5
                },
                {
                    "name": "C4",
                    "midi": 60,
                    "time": 33,
                    "velocity": 0.2283464566929134,
                    "duration": 0.5
                },
                {
                    "name": "E4",
                    "midi": 64,
                    "time": 33,
                    "velocity": 0.2283464566929134,
                    "duration": 0.5
                },
                {
                    "name": "G3",
                    "midi": 55,
                    "time": 33.5,
                    "velocity": 0.2755905511811024,
                    "duration": 0.5
                },
                {
                    "name": "B3",
                    "midi": 59,
                    "time": 33.5,
                    "velocity": 0.2755905511811024,
                    "duration": 0.5
                },
                {
                    "name": "F4",
                    "midi": 65,
                    "time": 33.5,
                    "velocity": 0.30708661417322836,
                    "duration": 0.5
                },
                {
                    "name": "C4",
                    "midi": 60,
                    "time": 34,
                    "velocity": 0.2204724409448819,
                    "duration": 0.5
                },
                {
                    "name": "E4",
                    "midi": 64,
                    "time": 34,
                    "velocity": 0.2440944881889764,
                    "duration": 0.5
                },
                {
                    "name": "G3",
                    "midi": 55,
                    "time": 34.5,
                    "velocity": 0.4094488188976378,
                    "duration": 1.5
                },
                {
                    "name": "F#3",
                    "midi": 54,
                    "time": 36,
                    "velocity": 0.3779527559055118,
                    "duration": 1.5
                },
                {
                    "name": "B1",
                    "midi": 35,
                    "time": 37.5,
                    "velocity": 0.36220472440944884,
                    "duration": 0.5
                },
                {
                    "name": "B2",
                    "midi": 47,
                    "time": 37.5,
                    "velocity": 0.3937007874015748,
                    "duration": 0.5
                },
                {
                    "name": "E4",
                    "midi": 64,
                    "time": 38,
                    "velocity": 0.31496062992125984,
                    "duration": 0.5
                },
                {
                    "name": "B3",
                    "midi": 59,
                    "time": 38,
                    "velocity": 0.2677165354330709,
                    "duration": 0.5
                },
                {
                    "name": "G3",
                    "midi": 55,
                    "time": 38,
                    "velocity": 0.2677165354330709,
                    "duration": 0.5
                },
                {
                    "name": "E4",
                    "midi": 64,
                    "time": 38.5,
                    "velocity": 0.30708661417322836,
                    "duration": 0.5
                },
                {
                    "name": "B3",
                    "midi": 59,
                    "time": 38.5,
                    "velocity": 0.25984251968503935,
                    "duration": 0.5
                },
                {
                    "name": "G3",
                    "midi": 55,
                    "time": 38.5,
                    "velocity": 0.25984251968503935,
                    "duration": 0.5
                },
                {
                    "name": "B2",
                    "midi": 47,
                    "time": 39,
                    "velocity": 0.3937007874015748,
                    "duration": 0.5
                },
                {
                    "name": "D4",
                    "midi": 62,
                    "time": 39.5,
                    "velocity": 0.2440944881889764,
                    "duration": 0.5
                },
                {
                    "name": "B3",
                    "midi": 59,
                    "time": 39.5,
                    "velocity": 0.2047244094488189,
                    "duration": 0.5
                },
                {
                    "name": "F#3",
                    "midi": 54,
                    "time": 39.5,
                    "velocity": 0.2047244094488189,
                    "duration": 0.5
                },
                {
                    "name": "D4",
                    "midi": 62,
                    "time": 40,
                    "velocity": 0.2440944881889764,
                    "duration": 0.5
                },
                {
                    "name": "B3",
                    "midi": 59,
                    "time": 40,
                    "velocity": 0.2047244094488189,
                    "duration": 0.5
                },
                {
                    "name": "F#3",
                    "midi": 54,
                    "time": 40,
                    "velocity": 0.2047244094488189,
                    "duration": 0.5
                },
                {
                    "name": "B2",
                    "midi": 47,
                    "time": 40.5,
                    "velocity": 0.3937007874015748,
                    "duration": 0.5
                },
                {
                    "name": "E4",
                    "midi": 64,
                    "time": 41,
                    "velocity": 0.31496062992125984,
                    "duration": 0.5
                },
                {
                    "name": "A#3",
                    "midi": 58,
                    "time": 41,
                    "velocity": 0.2677165354330709,
                    "duration": 0.5
                },
                {
                    "name": "F#3",
                    "midi": 54,
                    "time": 41,
                    "velocity": 0.2677165354330709,
                    "duration": 0.5
                },
                {
                    "name": "E4",
                    "midi": 64,
                    "time": 41.5,
                    "velocity": 0.30708661417322836,
                    "duration": 0.5
                },
                {
                    "name": "A#3",
                    "midi": 58,
                    "time": 41.5,
                    "velocity": 0.25984251968503935,
                    "duration": 0.5
                },
                {
                    "name": "F#3",
                    "midi": 54,
                    "time": 41.5,
                    "velocity": 0.25984251968503935,
                    "duration": 0.5
                },
                {
                    "name": "B2",
                    "midi": 47,
                    "time": 42,
                    "velocity": 0.3937007874015748,
                    "duration": 0.5
                },
                {
                    "name": "D4",
                    "midi": 62,
                    "time": 42.5,
                    "velocity": 0.2440944881889764,
                    "duration": 0.5
                },
                {
                    "name": "B3",
                    "midi": 59,
                    "time": 42.5,
                    "velocity": 0.2047244094488189,
                    "duration": 0.5
                },
                {
                    "name": "F#3",
                    "midi": 54,
                    "time": 42.5,
                    "velocity": 0.2047244094488189,
                    "duration": 0.5
                },
                {
                    "name": "D4",
                    "midi": 62,
                    "time": 43,
                    "velocity": 0.2440944881889764,
                    "duration": 0.5
                },
                {
                    "name": "B3",
                    "midi": 59,
                    "time": 43,
                    "velocity": 0.2047244094488189,
                    "duration": 0.5
                },
                {
                    "name": "F#3",
                    "midi": 54,
                    "time": 43,
                    "velocity": 0.2047244094488189,
                    "duration": 0.5
                },
                {
                    "name": "C#2",
                    "midi": 37,
                    "time": 43.5,
                    "velocity": 0.3937007874015748,
                    "duration": 0.5
                },
                {
                    "name": "B3",
                    "midi": 59,
                    "time": 44,
                    "velocity": 0.31496062992125984,
                    "duration": 0.5
                },
                {
                    "name": "F3",
                    "midi": 53,
                    "time": 44,
                    "velocity": 0.2677165354330709,
                    "duration": 0.5
                },
                {
                    "name": "C#3",
                    "midi": 49,
                    "time": 44,
                    "velocity": 0.2677165354330709,
                    "duration": 0.5
                },
                {
                    "name": "B3",
                    "midi": 59,
                    "time": 44.5,
                    "velocity": 0.30708661417322836,
                    "duration": 0.5
                },
                {
                    "name": "F3",
                    "midi": 53,
                    "time": 44.5,
                    "velocity": 0.25984251968503935,
                    "duration": 0.5
                },
                {
                    "name": "C#3",
                    "midi": 49,
                    "time": 44.5,
                    "velocity": 0.25984251968503935,
                    "duration": 0.5
                },
                {
                    "name": "F#2",
                    "midi": 42,
                    "time": 45,
                    "velocity": 0.3937007874015748,
                    "duration": 0.5
                },
                {
                    "name": "A3",
                    "midi": 57,
                    "time": 45.5,
                    "velocity": 0.29133858267716534,
                    "duration": 0.5
                },
                {
                    "name": "C#3",
                    "midi": 49,
                    "time": 45.5,
                    "velocity": 0.2440944881889764,
                    "duration": 0.5
                },
                {
                    "name": "C#3",
                    "midi": 49,
                    "time": 49.5,
                    "velocity": 0.3700787401574803,
                    "duration": 1.5
                },
                {
                    "name": "G#3",
                    "midi": 56,
                    "time": 49.5,
                    "velocity": 0.4566929133858268,
                    "duration": 0.5
                },
                {
                    "name": "F#3",
                    "midi": 54,
                    "time": 50,
                    "velocity": 0.4330708661417323,
                    "duration": 0.5
                },
                {
                    "name": "A3",
                    "midi": 57,
                    "time": 50.5,
                    "velocity": 0.4330708661417323,
                    "duration": 0.5
                },
                {
                    "name": "C#3",
                    "midi": 49,
                    "time": 51,
                    "velocity": 0.3700787401574803,
                    "duration": 1.5
                },
                {
                    "name": "G#3",
                    "midi": 56,
                    "time": 51,
                    "velocity": 0.44881889763779526,
                    "duration": 0.25
                },
                {
                    "name": "F#3",
                    "midi": 54,
                    "time": 51.25,
                    "velocity": 0.4015748031496063,
                    "duration": 0.25
                },
                {
                    "name": "A3",
                    "midi": 57,
                    "time": 51.5,
                    "velocity": 0.4409448818897638,
                    "duration": 0.5
                },
                {
                    "name": "A3",
                    "midi": 57,
                    "time": 52,
                    "velocity": 0.4251968503937008,
                    "duration": 0.5
                },
                {
                    "name": "C#3",
                    "midi": 49,
                    "time": 52.5,
                    "velocity": 0.3700787401574803,
                    "duration": 1.5
                },
                {
                    "name": "G#3",
                    "midi": 56,
                    "time": 52.5,
                    "velocity": 0.44881889763779526,
                    "duration": 0.5
                },
                {
                    "name": "F#3",
                    "midi": 54,
                    "time": 53,
                    "velocity": 0.4409448818897638,
                    "duration": 0.5
                },
                {
                    "name": "A#3",
                    "midi": 58,
                    "time": 53.5,
                    "velocity": 0.4251968503937008,
                    "duration": 0.5
                },
                {
                    "name": "C#3",
                    "midi": 49,
                    "time": 54,
                    "velocity": 0.3700787401574803,
                    "duration": 0.5
                },
                {
                    "name": "G#3",
                    "midi": 56,
                    "time": 54,
                    "velocity": 0.44881889763779526,
                    "duration": 0.25
                },
                {
                    "name": "F#3",
                    "midi": 54,
                    "time": 54.25,
                    "velocity": 0.4015748031496063,
                    "duration": 0.75
                },
                {
                    "name": "F#2",
                    "midi": 42,
                    "time": 54.5,
                    "velocity": 0.3700787401574803,
                    "duration": 1
                },
                {
                    "name": "B2",
                    "midi": 47,
                    "time": 55.5,
                    "velocity": 0.3937007874015748,
                    "duration": 0.5
                },
                {
                    "name": "E4",
                    "midi": 64,
                    "time": 56,
                    "velocity": 0.31496062992125984,
                    "duration": 0.5
                },
                {
                    "name": "B3",
                    "midi": 59,
                    "time": 56,
                    "velocity": 0.2677165354330709,
                    "duration": 0.5
                },
                {
                    "name": "G3",
                    "midi": 55,
                    "time": 56,
                    "velocity": 0.2677165354330709,
                    "duration": 0.5
                },
                {
                    "name": "E4",
                    "midi": 64,
                    "time": 56.5,
                    "velocity": 0.30708661417322836,
                    "duration": 0.5
                },
                {
                    "name": "B3",
                    "midi": 59,
                    "time": 56.5,
                    "velocity": 0.25984251968503935,
                    "duration": 0.5
                },
                {
                    "name": "G3",
                    "midi": 55,
                    "time": 56.5,
                    "velocity": 0.25984251968503935,
                    "duration": 0.5
                },
                {
                    "name": "B2",
                    "midi": 47,
                    "time": 57,
                    "velocity": 0.3937007874015748,
                    "duration": 0.5
                },
                {
                    "name": "D4",
                    "midi": 62,
                    "time": 57.5,
                    "velocity": 0.2440944881889764,
                    "duration": 0.5
                },
                {
                    "name": "B3",
                    "midi": 59,
                    "time": 57.5,
                    "velocity": 0.2047244094488189,
                    "duration": 0.5
                },
                {
                    "name": "F#3",
                    "midi": 54,
                    "time": 57.5,
                    "velocity": 0.2047244094488189,
                    "duration": 0.5
                },
                {
                    "name": "D4",
                    "midi": 62,
                    "time": 58,
                    "velocity": 0.2440944881889764,
                    "duration": 0.5
                },
                {
                    "name": "B3",
                    "midi": 59,
                    "time": 58,
                    "velocity": 0.2047244094488189,
                    "duration": 0.5
                },
                {
                    "name": "F#3",
                    "midi": 54,
                    "time": 58,
                    "velocity": 0.2047244094488189,
                    "duration": 0.5
                },
                {
                    "name": "B2",
                    "midi": 47,
                    "time": 58.5,
                    "velocity": 0.3937007874015748,
                    "duration": 0.5
                },
                {
                    "name": "E4",
                    "midi": 64,
                    "time": 59,
                    "velocity": 0.31496062992125984,
                    "duration": 0.5
                },
                {
                    "name": "A#3",
                    "midi": 58,
                    "time": 59,
                    "velocity": 0.2677165354330709,
                    "duration": 0.5
                },
                {
                    "name": "F#3",
                    "midi": 54,
                    "time": 59,
                    "velocity": 0.2677165354330709,
                    "duration": 0.5
                },
                {
                    "name": "E4",
                    "midi": 64,
                    "time": 59.5,
                    "velocity": 0.30708661417322836,
                    "duration": 0.5
                },
                {
                    "name": "A#3",
                    "midi": 58,
                    "time": 59.5,
                    "velocity": 0.25984251968503935,
                    "duration": 0.5
                },
                {
                    "name": "F#3",
                    "midi": 54,
                    "time": 59.5,
                    "velocity": 0.25984251968503935,
                    "duration": 0.5
                },
                {
                    "name": "B2",
                    "midi": 47,
                    "time": 60,
                    "velocity": 0.3937007874015748,
                    "duration": 0.5
                },
                {
                    "name": "D4",
                    "midi": 62,
                    "time": 60.5,
                    "velocity": 0.2440944881889764,
                    "duration": 0.5
                },
                {
                    "name": "B3",
                    "midi": 59,
                    "time": 60.5,
                    "velocity": 0.2047244094488189,
                    "duration": 0.5
                },
                {
                    "name": "F#3",
                    "midi": 54,
                    "time": 60.5,
                    "velocity": 0.2047244094488189,
                    "duration": 0.5
                },
                {
                    "name": "B3",
                    "midi": 59,
                    "time": 61.5,
                    "velocity": 0.2992125984251969,
                    "duration": 0.5
                },
                {
                    "name": "F4",
                    "midi": 65,
                    "time": 61.5,
                    "velocity": 0.33858267716535434,
                    "duration": 0.5
                },
                {
                    "name": "C4",
                    "midi": 60,
                    "time": 62,
                    "velocity": 0.2677165354330709,
                    "duration": 0.5
                },
                {
                    "name": "E4",
                    "midi": 64,
                    "time": 62,
                    "velocity": 0.2992125984251969,
                    "duration": 0.5
                },
                {
                    "name": "C4",
                    "midi": 60,
                    "time": 62.5,
                    "velocity": 0.2677165354330709,
                    "duration": 0.5
                },
                {
                    "name": "E4",
                    "midi": 64,
                    "time": 62.5,
                    "velocity": 0.2992125984251969,
                    "duration": 0.5
                },
                {
                    "name": "G3",
                    "midi": 55,
                    "time": 63,
                    "velocity": 0.3228346456692913,
                    "duration": 0.5
                },
                {
                    "name": "B3",
                    "midi": 59,
                    "time": 63,
                    "velocity": 0.3228346456692913,
                    "duration": 0.5
                },
                {
                    "name": "F4",
                    "midi": 65,
                    "time": 63,
                    "velocity": 0.36220472440944884,
                    "duration": 0.5
                },
                {
                    "name": "G3",
                    "midi": 55,
                    "time": 63.5,
                    "velocity": 0.2677165354330709,
                    "duration": 0.5
                },
                {
                    "name": "B3",
                    "midi": 59,
                    "time": 63.5,
                    "velocity": 0.2677165354330709,
                    "duration": 0.5
                },
                {
                    "name": "F4",
                    "midi": 65,
                    "time": 63.5,
                    "velocity": 0.2992125984251969,
                    "duration": 0.5
                },
                {
                    "name": "C4",
                    "midi": 60,
                    "time": 64,
                    "velocity": 0.2677165354330709,
                    "duration": 0.5
                },
                {
                    "name": "E4",
                    "midi": 64,
                    "time": 64,
                    "velocity": 0.2992125984251969,
                    "duration": 0.5
                },
                {
                    "name": "B3",
                    "midi": 59,
                    "time": 64.5,
                    "velocity": 0.2992125984251969,
                    "duration": 0.5
                },
                {
                    "name": "F4",
                    "midi": 65,
                    "time": 64.5,
                    "velocity": 0.33858267716535434,
                    "duration": 0.5
                },
                {
                    "name": "C4",
                    "midi": 60,
                    "time": 65,
                    "velocity": 0.2677165354330709,
                    "duration": 0.5
                },
                {
                    "name": "E4",
                    "midi": 64,
                    "time": 65,
                    "velocity": 0.2992125984251969,
                    "duration": 0.5
                },
                {
                    "name": "C4",
                    "midi": 60,
                    "time": 65.5,
                    "velocity": 0.2677165354330709,
                    "duration": 0.5
                },
                {
                    "name": "E4",
                    "midi": 64,
                    "time": 65.5,
                    "velocity": 0.2992125984251969,
                    "duration": 0.5
                },
                {
                    "name": "G3",
                    "midi": 55,
                    "time": 66,
                    "velocity": 0.3228346456692913,
                    "duration": 0.5
                },
                {
                    "name": "B3",
                    "midi": 59,
                    "time": 66,
                    "velocity": 0.3228346456692913,
                    "duration": 0.5
                },
                {
                    "name": "F4",
                    "midi": 65,
                    "time": 66,
                    "velocity": 0.36220472440944884,
                    "duration": 0.5
                },
                {
                    "name": "G3",
                    "midi": 55,
                    "time": 66.5,
                    "velocity": 0.25984251968503935,
                    "duration": 0.5
                },
                {
                    "name": "B3",
                    "midi": 59,
                    "time": 66.5,
                    "velocity": 0.25984251968503935,
                    "duration": 0.5
                },
                {
                    "name": "F4",
                    "midi": 65,
                    "time": 66.5,
                    "velocity": 0.29133858267716534,
                    "duration": 0.5
                },
                {
                    "name": "C4",
                    "midi": 60,
                    "time": 67,
                    "velocity": 0.25196850393700787,
                    "duration": 0.5
                },
                {
                    "name": "E4",
                    "midi": 64,
                    "time": 67,
                    "velocity": 0.28346456692913385,
                    "duration": 0.5
                },
                {
                    "name": "G3",
                    "midi": 55,
                    "time": 67.5,
                    "velocity": 0.2992125984251969,
                    "duration": 0.5
                },
                {
                    "name": "B3",
                    "midi": 59,
                    "time": 67.5,
                    "velocity": 0.2992125984251969,
                    "duration": 0.5
                },
                {
                    "name": "F4",
                    "midi": 65,
                    "time": 67.5,
                    "velocity": 0.33858267716535434,
                    "duration": 0.5
                },
                {
                    "name": "C4",
                    "midi": 60,
                    "time": 68,
                    "velocity": 0.2440944881889764,
                    "duration": 0.5
                },
                {
                    "name": "E4",
                    "midi": 64,
                    "time": 68,
                    "velocity": 0.2677165354330709,
                    "duration": 0.5
                },
                {
                    "name": "G3",
                    "midi": 55,
                    "time": 68.5,
                    "velocity": 0.28346456692913385,
                    "duration": 0.5
                },
                {
                    "name": "B3",
                    "midi": 59,
                    "time": 68.5,
                    "velocity": 0.28346456692913385,
                    "duration": 0.5
                },
                {
                    "name": "F4",
                    "midi": 65,
                    "time": 68.5,
                    "velocity": 0.3228346456692913,
                    "duration": 0.5
                },
                {
                    "name": "C4",
                    "midi": 60,
                    "time": 69,
                    "velocity": 0.2283464566929134,
                    "duration": 0.5
                },
                {
                    "name": "E4",
                    "midi": 64,
                    "time": 69,
                    "velocity": 0.2283464566929134,
                    "duration": 0.5
                },
                {
                    "name": "G3",
                    "midi": 55,
                    "time": 69.5,
                    "velocity": 0.2755905511811024,
                    "duration": 0.5
                },
                {
                    "name": "B3",
                    "midi": 59,
                    "time": 69.5,
                    "velocity": 0.2755905511811024,
                    "duration": 0.5
                },
                {
                    "name": "F4",
                    "midi": 65,
                    "time": 69.5,
                    "velocity": 0.30708661417322836,
                    "duration": 0.5
                },
                {
                    "name": "C4",
                    "midi": 60,
                    "time": 70,
                    "velocity": 0.2204724409448819,
                    "duration": 0.5
                },
                {
                    "name": "E4",
                    "midi": 64,
                    "time": 70,
                    "velocity": 0.2440944881889764,
                    "duration": 0.5
                },
                {
                    "name": "G3",
                    "midi": 55,
                    "time": 70.5,
                    "velocity": 0.4094488188976378,
                    "duration": 1.5
                },
                {
                    "name": "F#3",
                    "midi": 54,
                    "time": 72,
                    "velocity": 0.4645669291338583,
                    "duration": 1
                },
                {
                    "name": "F3",
                    "midi": 53,
                    "time": 73,
                    "velocity": 0.4881889763779528,
                    "duration": 0.5
                },
                {
                    "name": "A#1",
                    "midi": 34,
                    "time": 73.5,
                    "velocity": 0.5826771653543307,
                    "duration": 0.25
                },
                {
                    "name": "F3",
                    "midi": 53,
                    "time": 74,
                    "velocity": 0.4251968503937008,
                    "duration": 0.5
                },
                {
                    "name": "D4",
                    "midi": 62,
                    "time": 74,
                    "velocity": 0.5039370078740157,
                    "duration": 0.5
                },
                {
                    "name": "A#3",
                    "midi": 58,
                    "time": 74,
                    "velocity": 0.4251968503937008,
                    "duration": 0.5
                },
                {
                    "name": "D#4",
                    "midi": 63,
                    "time": 74.5,
                    "velocity": 0.5039370078740157,
                    "duration": 0.5
                },
                {
                    "name": "A#3",
                    "midi": 58,
                    "time": 74.5,
                    "velocity": 0.5039370078740157,
                    "duration": 0.5
                },
                {
                    "name": "F#3",
                    "midi": 54,
                    "time": 74.5,
                    "velocity": 0.5039370078740157,
                    "duration": 0.5
                },
                {
                    "name": "A#2",
                    "midi": 46,
                    "time": 75,
                    "velocity": 0.5748031496062992,
                    "duration": 0.2500000000000142
                },
                {
                    "name": "F4",
                    "midi": 65,
                    "time": 75.50000000000001,
                    "velocity": 0.5354330708661418,
                    "duration": 1
                },
                {
                    "name": "D4",
                    "midi": 62,
                    "time": 75.50000000000001,
                    "velocity": 0.44881889763779526,
                    "duration": 1
                },
                {
                    "name": "A#3",
                    "midi": 58,
                    "time": 75.50000000000001,
                    "velocity": 0.44881889763779526,
                    "duration": 1
                },
                {
                    "name": "F3",
                    "midi": 53,
                    "time": 76.00000000000001,
                    "velocity": 0.5354330708661418,
                    "duration": 0.5
                },
                {
                    "name": "A#1",
                    "midi": 34,
                    "time": 76.50000000000001,
                    "velocity": 0.5669291338582677,
                    "duration": 0.25
                },
                {
                    "name": "F3",
                    "midi": 53,
                    "time": 77.00000000000001,
                    "velocity": 0.4251968503937008,
                    "duration": 0.5
                },
                {
                    "name": "D4",
                    "midi": 62,
                    "time": 77.00000000000001,
                    "velocity": 0.5039370078740157,
                    "duration": 0.5
                },
                {
                    "name": "A#3",
                    "midi": 58,
                    "time": 77.00000000000001,
                    "velocity": 0.4251968503937008,
                    "duration": 0.5
                },
                {
                    "name": "D#4",
                    "midi": 63,
                    "time": 77.50000000000001,
                    "velocity": 0.5039370078740157,
                    "duration": 0.5000000000000142
                },
                {
                    "name": "A#3",
                    "midi": 58,
                    "time": 77.50000000000001,
                    "velocity": 0.5039370078740157,
                    "duration": 0.5000000000000142
                },
                {
                    "name": "F#3",
                    "midi": 54,
                    "time": 77.50000000000001,
                    "velocity": 0.5039370078740157,
                    "duration": 0.5000000000000142
                },
                {
                    "name": "A#2",
                    "midi": 46,
                    "time": 78.00000000000003,
                    "velocity": 0.5748031496062992,
                    "duration": 0.25
                },
                {
                    "name": "F4",
                    "midi": 65,
                    "time": 78.50000000000003,
                    "velocity": 0.5354330708661418,
                    "duration": 1
                },
                {
                    "name": "D4",
                    "midi": 62,
                    "time": 78.50000000000003,
                    "velocity": 0.44881889763779526,
                    "duration": 1
                },
                {
                    "name": "A#3",
                    "midi": 58,
                    "time": 78.50000000000003,
                    "velocity": 0.44881889763779526,
                    "duration": 1
                },
                {
                    "name": "F3",
                    "midi": 53,
                    "time": 79.00000000000003,
                    "velocity": 0.5354330708661418,
                    "duration": 0.5
                },
                {
                    "name": "A#1",
                    "midi": 34,
                    "time": 79.50000000000003,
                    "velocity": 0.6220472440944882,
                    "duration": 0.25
                },
                {
                    "name": "F3",
                    "midi": 53,
                    "time": 80.00000000000003,
                    "velocity": 0.4251968503937008,
                    "duration": 0.5
                },
                {
                    "name": "D4",
                    "midi": 62,
                    "time": 80.00000000000003,
                    "velocity": 0.5039370078740157,
                    "duration": 0.5
                },
                {
                    "name": "A#3",
                    "midi": 58,
                    "time": 80.00000000000003,
                    "velocity": 0.4251968503937008,
                    "duration": 0.5
                },
                {
                    "name": "D#4",
                    "midi": 63,
                    "time": 80.50000000000003,
                    "velocity": 0.5039370078740157,
                    "duration": 0.5000000000000142
                },
                {
                    "name": "A#3",
                    "midi": 58,
                    "time": 80.50000000000003,
                    "velocity": 0.5039370078740157,
                    "duration": 0.5000000000000142
                },
                {
                    "name": "F#3",
                    "midi": 54,
                    "time": 80.50000000000003,
                    "velocity": 0.5039370078740157,
                    "duration": 0.5000000000000142
                },
                {
                    "name": "A#2",
                    "midi": 46,
                    "time": 81.00000000000004,
                    "velocity": 0.5748031496062992,
                    "duration": 0.2500000000000142
                },
                {
                    "name": "F4",
                    "midi": 65,
                    "time": 81.50000000000006,
                    "velocity": 0.5354330708661418,
                    "duration": 1
                },
                {
                    "name": "D4",
                    "midi": 62,
                    "time": 81.50000000000006,
                    "velocity": 0.44881889763779526,
                    "duration": 1
                },
                {
                    "name": "A#3",
                    "midi": 58,
                    "time": 81.50000000000006,
                    "velocity": 0.44881889763779526,
                    "duration": 1
                },
                {
                    "name": "F3",
                    "midi": 53,
                    "time": 82.00000000000006,
                    "velocity": 0.5354330708661418,
                    "duration": 0.5
                },
                {
                    "name": "A#2",
                    "midi": 46,
                    "time": 82.50000000000006,
                    "velocity": 0.5669291338582677,
                    "duration": 0.25
                },
                {
                    "name": "A#1",
                    "midi": 34,
                    "time": 82.50000000000006,
                    "velocity": 0.5433070866141733,
                    "duration": 0.25
                },
                {
                    "name": "F3",
                    "midi": 53,
                    "time": 83.00000000000006,
                    "velocity": 0.4251968503937008,
                    "duration": 0.5
                },
                {
                    "name": "D4",
                    "midi": 62,
                    "time": 83.00000000000006,
                    "velocity": 0.5039370078740157,
                    "duration": 0.5
                },
                {
                    "name": "A#3",
                    "midi": 58,
                    "time": 83.00000000000006,
                    "velocity": 0.4251968503937008,
                    "duration": 0.5
                },
                {
                    "name": "D#4",
                    "midi": 63,
                    "time": 83.50000000000006,
                    "velocity": 0.5039370078740157,
                    "duration": 0.5
                },
                {
                    "name": "A#3",
                    "midi": 58,
                    "time": 83.50000000000006,
                    "velocity": 0.5039370078740157,
                    "duration": 0.5
                },
                {
                    "name": "F#3",
                    "midi": 54,
                    "time": 83.50000000000006,
                    "velocity": 0.5039370078740157,
                    "duration": 0.5
                },
                {
                    "name": "A#2",
                    "midi": 46,
                    "time": 84.00000000000006,
                    "velocity": 0.5748031496062992,
                    "duration": 0.2500000000000142
                },
                {
                    "name": "F4",
                    "midi": 65,
                    "time": 84.50000000000007,
                    "velocity": 0.5354330708661418,
                    "duration": 1
                },
                {
                    "name": "D4",
                    "midi": 62,
                    "time": 84.50000000000007,
                    "velocity": 0.44881889763779526,
                    "duration": 1
                },
                {
                    "name": "A#3",
                    "midi": 58,
                    "time": 84.50000000000007,
                    "velocity": 0.44881889763779526,
                    "duration": 1
                },
                {
                    "name": "F3",
                    "midi": 53,
                    "time": 85.00000000000007,
                    "velocity": 0.5354330708661418,
                    "duration": 0.5
                },
                {
                    "name": "D#2",
                    "midi": 39,
                    "time": 85.50000000000007,
                    "velocity": 0.6377952755905512,
                    "duration": 0.25
                },
                {
                    "name": "A#3",
                    "midi": 58,
                    "time": 86.00000000000007,
                    "velocity": 0.4251968503937008,
                    "duration": 0.5
                },
                {
                    "name": "G4",
                    "midi": 67,
                    "time": 86.00000000000007,
                    "velocity": 0.5039370078740157,
                    "duration": 0.5
                },
                {
                    "name": "D#4",
                    "midi": 63,
                    "time": 86.00000000000007,
                    "velocity": 0.4251968503937008,
                    "duration": 0.5
                },
                {
                    "name": "G#4",
                    "midi": 68,
                    "time": 86.50000000000007,
                    "velocity": 0.5039370078740157,
                    "duration": 0.5000000000000142
                },
                {
                    "name": "D#4",
                    "midi": 63,
                    "time": 86.50000000000007,
                    "velocity": 0.5039370078740157,
                    "duration": 0.5000000000000142
                },
                {
                    "name": "B3",
                    "midi": 59,
                    "time": 86.50000000000007,
                    "velocity": 0.5039370078740157,
                    "duration": 0.5000000000000142
                },
                {
                    "name": "D#3",
                    "midi": 51,
                    "time": 87.00000000000009,
                    "velocity": 0.5748031496062992,
                    "duration": 0.25
                },
                {
                    "name": "G4",
                    "midi": 67,
                    "time": 87.50000000000009,
                    "velocity": 0.5354330708661418,
                    "duration": 0.5
                },
                {
                    "name": "D#4",
                    "midi": 63,
                    "time": 87.50000000000009,
                    "velocity": 0.44881889763779526,
                    "duration": 0.5
                },
                {
                    "name": "A#3",
                    "midi": 58,
                    "time": 87.50000000000009,
                    "velocity": 0.44881889763779526,
                    "duration": 0.5
                },
                {
                    "name": "D#3",
                    "midi": 51,
                    "time": 88.00000000000009,
                    "velocity": 0.5354330708661418,
                    "duration": 0.5
                },
                {
                    "name": "D#2",
                    "midi": 39,
                    "time": 88.50000000000009,
                    "velocity": 0.5748031496062992,
                    "duration": 0.25
                },
                {
                    "name": "A#3",
                    "midi": 58,
                    "time": 89.00000000000009,
                    "velocity": 0.4251968503937008,
                    "duration": 0.5
                },
                {
                    "name": "G4",
                    "midi": 67,
                    "time": 89.00000000000009,
                    "velocity": 0.5039370078740157,
                    "duration": 0.5
                },
                {
                    "name": "D#4",
                    "midi": 63,
                    "time": 89.00000000000009,
                    "velocity": 0.4251968503937008,
                    "duration": 0.5
                },
                {
                    "name": "G#4",
                    "midi": 68,
                    "time": 89.50000000000009,
                    "velocity": 0.5039370078740157,
                    "duration": 0.5000000000000142
                },
                {
                    "name": "D#4",
                    "midi": 63,
                    "time": 89.50000000000009,
                    "velocity": 0.5039370078740157,
                    "duration": 0.5000000000000142
                },
                {
                    "name": "B3",
                    "midi": 59,
                    "time": 89.50000000000009,
                    "velocity": 0.5039370078740157,
                    "duration": 0.5000000000000142
                },
                {
                    "name": "D#3",
                    "midi": 51,
                    "time": 90.0000000000001,
                    "velocity": 0.5748031496062992,
                    "duration": 0.25
                },
                {
                    "name": "A#4",
                    "midi": 70,
                    "time": 90.5000000000001,
                    "velocity": 0.5354330708661418,
                    "duration": 0.5
                },
                {
                    "name": "G4",
                    "midi": 67,
                    "time": 90.5000000000001,
                    "velocity": 0.44881889763779526,
                    "duration": 0.5
                },
                {
                    "name": "C#4",
                    "midi": 61,
                    "time": 90.5000000000001,
                    "velocity": 0.44881889763779526,
                    "duration": 0.5
                },
                {
                    "name": "D#3",
                    "midi": 51,
                    "time": 91.0000000000001,
                    "velocity": 0.5354330708661418,
                    "duration": 0.5
                },
                {
                    "name": "D#2",
                    "midi": 39,
                    "time": 91.5000000000001,
                    "velocity": 0.5748031496062992,
                    "duration": 0.25
                },
                {
                    "name": "C#4",
                    "midi": 61,
                    "time": 92.0000000000001,
                    "velocity": 0.5118110236220472,
                    "duration": 0.5
                },
                {
                    "name": "D4",
                    "midi": 62,
                    "time": 92.5000000000001,
                    "velocity": 0.44881889763779526,
                    "duration": 0.5
                },
                {
                    "name": "D#4",
                    "midi": 63,
                    "time": 93.0000000000001,
                    "velocity": 0.4645669291338583,
                    "duration": 0.5
                },
                {
                    "name": "E4",
                    "midi": 64,
                    "time": 93.5000000000001,
                    "velocity": 0.44881889763779526,
                    "duration": 0.5
                },
                {
                    "name": "F4",
                    "midi": 65,
                    "time": 94.0000000000001,
                    "velocity": 0.4251968503937008,
                    "duration": 0.5
                },
                {
                    "name": "F#4",
                    "midi": 66,
                    "time": 94.5000000000001,
                    "velocity": 0.4094488188976378,
                    "duration": 0.5
                },
                {
                    "name": "F#3",
                    "midi": 54,
                    "time": 95.0000000000001,
                    "velocity": 0.4645669291338583,
                    "duration": 0.4375
                },
                {
                    "name": "A3",
                    "midi": 57,
                    "time": 95.4375000000001,
                    "velocity": 0.47244094488188976,
                    "duration": 0.0625
                },
                {
                    "name": "G3",
                    "midi": 55,
                    "time": 95.5000000000001,
                    "velocity": 0.5354330708661418,
                    "duration": 0.5
                },
                {
                    "name": "F#3",
                    "midi": 54,
                    "time": 96.0000000000001,
                    "velocity": 0.4881889763779528,
                    "duration": 0.5
                },
                {
                    "name": "C#3",
                    "midi": 49,
                    "time": 96.5000000000001,
                    "velocity": 0.4330708661417323,
                    "duration": 0.5
                },
                {
                    "name": "D3",
                    "midi": 50,
                    "time": 97.0000000000001,
                    "velocity": 0.4251968503937008,
                    "duration": 0.5
                },
                {
                    "name": "B2",
                    "midi": 47,
                    "time": 97.5000000000001,
                    "velocity": 0.3937007874015748,
                    "duration": 0.5
                },
                {
                    "name": "E4",
                    "midi": 64,
                    "time": 98.0000000000001,
                    "velocity": 0.31496062992125984,
                    "duration": 0.5
                },
                {
                    "name": "B3",
                    "midi": 59,
                    "time": 98.0000000000001,
                    "velocity": 0.2677165354330709,
                    "duration": 0.5
                },
                {
                    "name": "G3",
                    "midi": 55,
                    "time": 98.0000000000001,
                    "velocity": 0.2677165354330709,
                    "duration": 0.5
                },
                {
                    "name": "E4",
                    "midi": 64,
                    "time": 98.5000000000001,
                    "velocity": 0.30708661417322836,
                    "duration": 0.5
                },
                {
                    "name": "B3",
                    "midi": 59,
                    "time": 98.5000000000001,
                    "velocity": 0.25984251968503935,
                    "duration": 0.5
                },
                {
                    "name": "G3",
                    "midi": 55,
                    "time": 98.5000000000001,
                    "velocity": 0.25984251968503935,
                    "duration": 0.5
                },
                {
                    "name": "B2",
                    "midi": 47,
                    "time": 99.0000000000001,
                    "velocity": 0.3937007874015748,
                    "duration": 0.5
                },
                {
                    "name": "D4",
                    "midi": 62,
                    "time": 99.5000000000001,
                    "velocity": 0.2440944881889764,
                    "duration": 0.5
                },
                {
                    "name": "B3",
                    "midi": 59,
                    "time": 99.5000000000001,
                    "velocity": 0.2047244094488189,
                    "duration": 0.5
                },
                {
                    "name": "F#3",
                    "midi": 54,
                    "time": 99.5000000000001,
                    "velocity": 0.2047244094488189,
                    "duration": 0.5
                },
                {
                    "name": "D4",
                    "midi": 62,
                    "time": 100.0000000000001,
                    "velocity": 0.2440944881889764,
                    "duration": 0.5
                },
                {
                    "name": "B3",
                    "midi": 59,
                    "time": 100.0000000000001,
                    "velocity": 0.2047244094488189,
                    "duration": 0.5
                },
                {
                    "name": "F#3",
                    "midi": 54,
                    "time": 100.0000000000001,
                    "velocity": 0.2047244094488189,
                    "duration": 0.5
                },
                {
                    "name": "B2",
                    "midi": 47,
                    "time": 100.5000000000001,
                    "velocity": 0.3937007874015748,
                    "duration": 0.5
                },
                {
                    "name": "E4",
                    "midi": 64,
                    "time": 101.0000000000001,
                    "velocity": 0.31496062992125984,
                    "duration": 0.5
                },
                {
                    "name": "A#3",
                    "midi": 58,
                    "time": 101.0000000000001,
                    "velocity": 0.2677165354330709,
                    "duration": 0.5
                },
                {
                    "name": "F#3",
                    "midi": 54,
                    "time": 101.0000000000001,
                    "velocity": 0.2677165354330709,
                    "duration": 0.5
                },
                {
                    "name": "E4",
                    "midi": 64,
                    "time": 101.5000000000001,
                    "velocity": 0.30708661417322836,
                    "duration": 0.5
                },
                {
                    "name": "A#3",
                    "midi": 58,
                    "time": 101.5000000000001,
                    "velocity": 0.25984251968503935,
                    "duration": 0.5
                },
                {
                    "name": "F#3",
                    "midi": 54,
                    "time": 101.5000000000001,
                    "velocity": 0.25984251968503935,
                    "duration": 0.5
                },
                {
                    "name": "B2",
                    "midi": 47,
                    "time": 102.0000000000001,
                    "velocity": 0.3937007874015748,
                    "duration": 0.5
                },
                {
                    "name": "D4",
                    "midi": 62,
                    "time": 102.5000000000001,
                    "velocity": 0.2440944881889764,
                    "duration": 0.5
                },
                {
                    "name": "B3",
                    "midi": 59,
                    "time": 102.5000000000001,
                    "velocity": 0.2047244094488189,
                    "duration": 0.5
                },
                {
                    "name": "F#3",
                    "midi": 54,
                    "time": 102.5000000000001,
                    "velocity": 0.2047244094488189,
                    "duration": 0.5
                },
                {
                    "name": "D4",
                    "midi": 62,
                    "time": 103.0000000000001,
                    "velocity": 0.2440944881889764,
                    "duration": 0.5
                },
                {
                    "name": "B3",
                    "midi": 59,
                    "time": 103.0000000000001,
                    "velocity": 0.2047244094488189,
                    "duration": 0.5
                },
                {
                    "name": "F#3",
                    "midi": 54,
                    "time": 103.0000000000001,
                    "velocity": 0.2047244094488189,
                    "duration": 0.5
                },
                {
                    "name": "C#2",
                    "midi": 37,
                    "time": 103.5000000000001,
                    "velocity": 0.3937007874015748,
                    "duration": 0.5
                },
                {
                    "name": "B3",
                    "midi": 59,
                    "time": 104.0000000000001,
                    "velocity": 0.31496062992125984,
                    "duration": 0.5
                },
                {
                    "name": "F3",
                    "midi": 53,
                    "time": 104.0000000000001,
                    "velocity": 0.2677165354330709,
                    "duration": 0.5
                },
                {
                    "name": "C#3",
                    "midi": 49,
                    "time": 104.0000000000001,
                    "velocity": 0.2677165354330709,
                    "duration": 0.5
                },
                {
                    "name": "B3",
                    "midi": 59,
                    "time": 104.5000000000001,
                    "velocity": 0.30708661417322836,
                    "duration": 0.5
                },
                {
                    "name": "F3",
                    "midi": 53,
                    "time": 104.5000000000001,
                    "velocity": 0.25984251968503935,
                    "duration": 0.5
                },
                {
                    "name": "C#3",
                    "midi": 49,
                    "time": 104.5000000000001,
                    "velocity": 0.25984251968503935,
                    "duration": 0.5
                },
                {
                    "name": "F#2",
                    "midi": 42,
                    "time": 105.0000000000001,
                    "velocity": 0.3937007874015748,
                    "duration": 0.5
                },
                {
                    "name": "A3",
                    "midi": 57,
                    "time": 105.5000000000001,
                    "velocity": 0.29133858267716534,
                    "duration": 0.5
                },
                {
                    "name": "C#3",
                    "midi": 49,
                    "time": 105.5000000000001,
                    "velocity": 0.2440944881889764,
                    "duration": 0.5
                },
                {
                    "name": "C#3",
                    "midi": 49,
                    "time": 109.5000000000001,
                    "velocity": 0.3700787401574803,
                    "duration": 1.5
                },
                {
                    "name": "G#3",
                    "midi": 56,
                    "time": 109.5000000000001,
                    "velocity": 0.4566929133858268,
                    "duration": 0.5
                },
                {
                    "name": "F#3",
                    "midi": 54,
                    "time": 110.0000000000001,
                    "velocity": 0.4330708661417323,
                    "duration": 0.5
                },
                {
                    "name": "A3",
                    "midi": 57,
                    "time": 110.5000000000001,
                    "velocity": 0.4330708661417323,
                    "duration": 0.5
                },
                {
                    "name": "C#3",
                    "midi": 49,
                    "time": 111.0000000000001,
                    "velocity": 0.3700787401574803,
                    "duration": 1.5
                },
                {
                    "name": "G#3",
                    "midi": 56,
                    "time": 111.0000000000001,
                    "velocity": 0.44881889763779526,
                    "duration": 0.25
                },
                {
                    "name": "F#3",
                    "midi": 54,
                    "time": 111.2500000000001,
                    "velocity": 0.4015748031496063,
                    "duration": 0.25
                },
                {
                    "name": "A3",
                    "midi": 57,
                    "time": 111.5000000000001,
                    "velocity": 0.4409448818897638,
                    "duration": 0.5
                },
                {
                    "name": "A3",
                    "midi": 57,
                    "time": 112.0000000000001,
                    "velocity": 0.4251968503937008,
                    "duration": 0.5
                },
                {
                    "name": "C#3",
                    "midi": 49,
                    "time": 112.5000000000001,
                    "velocity": 0.3700787401574803,
                    "duration": 1.5
                },
                {
                    "name": "G#3",
                    "midi": 56,
                    "time": 112.5000000000001,
                    "velocity": 0.44881889763779526,
                    "duration": 0.5
                },
                {
                    "name": "F#3",
                    "midi": 54,
                    "time": 113.0000000000001,
                    "velocity": 0.4409448818897638,
                    "duration": 0.5
                },
                {
                    "name": "A#3",
                    "midi": 58,
                    "time": 113.5000000000001,
                    "velocity": 0.4251968503937008,
                    "duration": 0.5
                },
                {
                    "name": "C#3",
                    "midi": 49,
                    "time": 114.0000000000001,
                    "velocity": 0.3700787401574803,
                    "duration": 0.5
                },
                {
                    "name": "G#3",
                    "midi": 56,
                    "time": 114.0000000000001,
                    "velocity": 0.44881889763779526,
                    "duration": 0.25
                },
                {
                    "name": "F#3",
                    "midi": 54,
                    "time": 114.2500000000001,
                    "velocity": 0.4015748031496063,
                    "duration": 0.75
                },
                {
                    "name": "F#2",
                    "midi": 42,
                    "time": 114.5000000000001,
                    "velocity": 0.3700787401574803,
                    "duration": 1
                },
                {
                    "name": "B2",
                    "midi": 47,
                    "time": 115.5000000000001,
                    "velocity": 0.3937007874015748,
                    "duration": 0.5
                },
                {
                    "name": "E4",
                    "midi": 64,
                    "time": 116.0000000000001,
                    "velocity": 0.31496062992125984,
                    "duration": 0.5
                },
                {
                    "name": "B3",
                    "midi": 59,
                    "time": 116.0000000000001,
                    "velocity": 0.2677165354330709,
                    "duration": 0.5
                },
                {
                    "name": "G3",
                    "midi": 55,
                    "time": 116.0000000000001,
                    "velocity": 0.2677165354330709,
                    "duration": 0.5
                },
                {
                    "name": "E4",
                    "midi": 64,
                    "time": 116.5000000000001,
                    "velocity": 0.30708661417322836,
                    "duration": 0.5
                },
                {
                    "name": "B3",
                    "midi": 59,
                    "time": 116.5000000000001,
                    "velocity": 0.25984251968503935,
                    "duration": 0.5
                },
                {
                    "name": "G3",
                    "midi": 55,
                    "time": 116.5000000000001,
                    "velocity": 0.25984251968503935,
                    "duration": 0.5
                },
                {
                    "name": "B2",
                    "midi": 47,
                    "time": 117.0000000000001,
                    "velocity": 0.3937007874015748,
                    "duration": 0.5
                },
                {
                    "name": "D4",
                    "midi": 62,
                    "time": 117.5000000000001,
                    "velocity": 0.2440944881889764,
                    "duration": 0.5
                },
                {
                    "name": "B3",
                    "midi": 59,
                    "time": 117.5000000000001,
                    "velocity": 0.2047244094488189,
                    "duration": 0.5
                },
                {
                    "name": "F#3",
                    "midi": 54,
                    "time": 117.5000000000001,
                    "velocity": 0.2047244094488189,
                    "duration": 0.5
                },
                {
                    "name": "D4",
                    "midi": 62,
                    "time": 118.0000000000001,
                    "velocity": 0.2440944881889764,
                    "duration": 0.5
                },
                {
                    "name": "B3",
                    "midi": 59,
                    "time": 118.0000000000001,
                    "velocity": 0.2047244094488189,
                    "duration": 0.5
                },
                {
                    "name": "F#3",
                    "midi": 54,
                    "time": 118.0000000000001,
                    "velocity": 0.2047244094488189,
                    "duration": 0.5
                },
                {
                    "name": "B2",
                    "midi": 47,
                    "time": 118.5000000000001,
                    "velocity": 0.3937007874015748,
                    "duration": 0.5
                },
                {
                    "name": "E4",
                    "midi": 64,
                    "time": 119.0000000000001,
                    "velocity": 0.31496062992125984,
                    "duration": 0.5
                },
                {
                    "name": "A#3",
                    "midi": 58,
                    "time": 119.0000000000001,
                    "velocity": 0.2677165354330709,
                    "duration": 0.5
                },
                {
                    "name": "F#3",
                    "midi": 54,
                    "time": 119.0000000000001,
                    "velocity": 0.2677165354330709,
                    "duration": 0.5
                },
                {
                    "name": "E4",
                    "midi": 64,
                    "time": 119.5000000000001,
                    "velocity": 0.30708661417322836,
                    "duration": 0.5
                },
                {
                    "name": "A#3",
                    "midi": 58,
                    "time": 119.5000000000001,
                    "velocity": 0.25984251968503935,
                    "duration": 0.5
                },
                {
                    "name": "F#3",
                    "midi": 54,
                    "time": 119.5000000000001,
                    "velocity": 0.25984251968503935,
                    "duration": 0.5
                },
                {
                    "name": "B2",
                    "midi": 47,
                    "time": 120.0000000000001,
                    "velocity": 0.3937007874015748,
                    "duration": 0.5
                },
                {
                    "name": "D4",
                    "midi": 62,
                    "time": 120.5000000000001,
                    "velocity": 0.2440944881889764,
                    "duration": 0.5
                },
                {
                    "name": "B3",
                    "midi": 59,
                    "time": 120.5000000000001,
                    "velocity": 0.2047244094488189,
                    "duration": 0.5
                },
                {
                    "name": "F#3",
                    "midi": 54,
                    "time": 120.5000000000001,
                    "velocity": 0.2047244094488189,
                    "duration": 0.5
                },
                {
                    "name": "B3",
                    "midi": 59,
                    "time": 121.5000000000001,
                    "velocity": 0.2992125984251969,
                    "duration": 0.5
                },
                {
                    "name": "F4",
                    "midi": 65,
                    "time": 121.5000000000001,
                    "velocity": 0.33858267716535434,
                    "duration": 0.5
                },
                {
                    "name": "C4",
                    "midi": 60,
                    "time": 122.0000000000001,
                    "velocity": 0.2677165354330709,
                    "duration": 0.5
                },
                {
                    "name": "E4",
                    "midi": 64,
                    "time": 122.0000000000001,
                    "velocity": 0.2992125984251969,
                    "duration": 0.5
                },
                {
                    "name": "C4",
                    "midi": 60,
                    "time": 122.5000000000001,
                    "velocity": 0.2677165354330709,
                    "duration": 0.5
                },
                {
                    "name": "E4",
                    "midi": 64,
                    "time": 122.5000000000001,
                    "velocity": 0.2992125984251969,
                    "duration": 0.5
                },
                {
                    "name": "G3",
                    "midi": 55,
                    "time": 123.0000000000001,
                    "velocity": 0.3228346456692913,
                    "duration": 0.5
                },
                {
                    "name": "B3",
                    "midi": 59,
                    "time": 123.0000000000001,
                    "velocity": 0.3228346456692913,
                    "duration": 0.5
                },
                {
                    "name": "F4",
                    "midi": 65,
                    "time": 123.0000000000001,
                    "velocity": 0.36220472440944884,
                    "duration": 0.5
                },
                {
                    "name": "G3",
                    "midi": 55,
                    "time": 123.5000000000001,
                    "velocity": 0.2677165354330709,
                    "duration": 0.5
                },
                {
                    "name": "B3",
                    "midi": 59,
                    "time": 123.5000000000001,
                    "velocity": 0.2677165354330709,
                    "duration": 0.5
                },
                {
                    "name": "F4",
                    "midi": 65,
                    "time": 123.5000000000001,
                    "velocity": 0.2992125984251969,
                    "duration": 0.5
                },
                {
                    "name": "C4",
                    "midi": 60,
                    "time": 124.0000000000001,
                    "velocity": 0.2677165354330709,
                    "duration": 0.5
                },
                {
                    "name": "E4",
                    "midi": 64,
                    "time": 124.0000000000001,
                    "velocity": 0.2992125984251969,
                    "duration": 0.5
                },
                {
                    "name": "B3",
                    "midi": 59,
                    "time": 124.5000000000001,
                    "velocity": 0.2992125984251969,
                    "duration": 0.5
                },
                {
                    "name": "F4",
                    "midi": 65,
                    "time": 124.5000000000001,
                    "velocity": 0.33858267716535434,
                    "duration": 0.5
                },
                {
                    "name": "C4",
                    "midi": 60,
                    "time": 125.0000000000001,
                    "velocity": 0.2677165354330709,
                    "duration": 0.5
                },
                {
                    "name": "E4",
                    "midi": 64,
                    "time": 125.0000000000001,
                    "velocity": 0.2992125984251969,
                    "duration": 0.5
                },
                {
                    "name": "C4",
                    "midi": 60,
                    "time": 125.5000000000001,
                    "velocity": 0.2677165354330709,
                    "duration": 0.5
                },
                {
                    "name": "E4",
                    "midi": 64,
                    "time": 125.5000000000001,
                    "velocity": 0.2992125984251969,
                    "duration": 0.5
                },
                {
                    "name": "G3",
                    "midi": 55,
                    "time": 126.0000000000001,
                    "velocity": 0.3228346456692913,
                    "duration": 0.5
                },
                {
                    "name": "B3",
                    "midi": 59,
                    "time": 126.0000000000001,
                    "velocity": 0.3228346456692913,
                    "duration": 0.5
                },
                {
                    "name": "F4",
                    "midi": 65,
                    "time": 126.0000000000001,
                    "velocity": 0.36220472440944884,
                    "duration": 0.5
                },
                {
                    "name": "G3",
                    "midi": 55,
                    "time": 126.5000000000001,
                    "velocity": 0.25984251968503935,
                    "duration": 0.5
                },
                {
                    "name": "B3",
                    "midi": 59,
                    "time": 126.5000000000001,
                    "velocity": 0.25984251968503935,
                    "duration": 0.5
                },
                {
                    "name": "F4",
                    "midi": 65,
                    "time": 126.5000000000001,
                    "velocity": 0.29133858267716534,
                    "duration": 0.5
                },
                {
                    "name": "C4",
                    "midi": 60,
                    "time": 127.0000000000001,
                    "velocity": 0.25196850393700787,
                    "duration": 0.5
                },
                {
                    "name": "E4",
                    "midi": 64,
                    "time": 127.0000000000001,
                    "velocity": 0.28346456692913385,
                    "duration": 0.5
                },
                {
                    "name": "G3",
                    "midi": 55,
                    "time": 127.5000000000001,
                    "velocity": 0.2992125984251969,
                    "duration": 0.5000000000000142
                },
                {
                    "name": "B3",
                    "midi": 59,
                    "time": 127.5000000000001,
                    "velocity": 0.2992125984251969,
                    "duration": 0.5000000000000142
                },
                {
                    "name": "F4",
                    "midi": 65,
                    "time": 127.5000000000001,
                    "velocity": 0.33858267716535434,
                    "duration": 0.5000000000000142
                },
                {
                    "name": "C4",
                    "midi": 60,
                    "time": 128.0000000000001,
                    "velocity": 0.2440944881889764,
                    "duration": 0.5
                },
                {
                    "name": "E4",
                    "midi": 64,
                    "time": 128.0000000000001,
                    "velocity": 0.2677165354330709,
                    "duration": 0.5
                },
                {
                    "name": "G3",
                    "midi": 55,
                    "time": 128.5000000000001,
                    "velocity": 0.28346456692913385,
                    "duration": 0.5
                },
                {
                    "name": "B3",
                    "midi": 59,
                    "time": 128.5000000000001,
                    "velocity": 0.28346456692913385,
                    "duration": 0.5
                },
                {
                    "name": "F4",
                    "midi": 65,
                    "time": 128.5000000000001,
                    "velocity": 0.3228346456692913,
                    "duration": 0.5
                },
                {
                    "name": "C4",
                    "midi": 60,
                    "time": 129.0000000000001,
                    "velocity": 0.2283464566929134,
                    "duration": 0.5
                },
                {
                    "name": "E4",
                    "midi": 64,
                    "time": 129.0000000000001,
                    "velocity": 0.2283464566929134,
                    "duration": 0.5
                },
                {
                    "name": "G3",
                    "midi": 55,
                    "time": 129.5000000000001,
                    "velocity": 0.2755905511811024,
                    "duration": 0.5
                },
                {
                    "name": "B3",
                    "midi": 59,
                    "time": 129.5000000000001,
                    "velocity": 0.2755905511811024,
                    "duration": 0.5
                },
                {
                    "name": "F4",
                    "midi": 65,
                    "time": 129.5000000000001,
                    "velocity": 0.30708661417322836,
                    "duration": 0.5
                },
                {
                    "name": "C4",
                    "midi": 60,
                    "time": 130.0000000000001,
                    "velocity": 0.2204724409448819,
                    "duration": 0.5
                },
                {
                    "name": "E4",
                    "midi": 64,
                    "time": 130.0000000000001,
                    "velocity": 0.2440944881889764,
                    "duration": 0.5
                },
                {
                    "name": "G3",
                    "midi": 55,
                    "time": 130.5000000000001,
                    "velocity": 0.4094488188976378,
                    "duration": 1.5
                },
                {
                    "name": "F#3",
                    "midi": 54,
                    "time": 132.0000000000001,
                    "velocity": 0.3779527559055118,
                    "duration": 1.5
                },
                {
                    "name": "B1",
                    "midi": 35,
                    "time": 133.5000000000001,
                    "velocity": 0.36220472440944884,
                    "duration": 0.5
                },
                {
                    "name": "B2",
                    "midi": 47,
                    "time": 133.5000000000001,
                    "velocity": 0.3937007874015748,
                    "duration": 0.5
                },
                {
                    "name": "E4",
                    "midi": 64,
                    "time": 134.0000000000001,
                    "velocity": 0.31496062992125984,
                    "duration": 0.5
                },
                {
                    "name": "B3",
                    "midi": 59,
                    "time": 134.0000000000001,
                    "velocity": 0.2677165354330709,
                    "duration": 0.5
                },
                {
                    "name": "G3",
                    "midi": 55,
                    "time": 134.0000000000001,
                    "velocity": 0.2677165354330709,
                    "duration": 0.5
                },
                {
                    "name": "E4",
                    "midi": 64,
                    "time": 134.5000000000001,
                    "velocity": 0.30708661417322836,
                    "duration": 0.5
                },
                {
                    "name": "B3",
                    "midi": 59,
                    "time": 134.5000000000001,
                    "velocity": 0.25984251968503935,
                    "duration": 0.5
                },
                {
                    "name": "G3",
                    "midi": 55,
                    "time": 134.5000000000001,
                    "velocity": 0.25984251968503935,
                    "duration": 0.5
                },
                {
                    "name": "B2",
                    "midi": 47,
                    "time": 135.0000000000001,
                    "velocity": 0.3937007874015748,
                    "duration": 0.4999999999999716
                },
                {
                    "name": "D4",
                    "midi": 62,
                    "time": 135.50000000000009,
                    "velocity": 0.2440944881889764,
                    "duration": 0.5
                },
                {
                    "name": "B3",
                    "midi": 59,
                    "time": 135.50000000000009,
                    "velocity": 0.2047244094488189,
                    "duration": 0.5
                },
                {
                    "name": "F#3",
                    "midi": 54,
                    "time": 135.50000000000009,
                    "velocity": 0.2047244094488189,
                    "duration": 0.5
                },
                {
                    "name": "D4",
                    "midi": 62,
                    "time": 136.00000000000009,
                    "velocity": 0.2440944881889764,
                    "duration": 0.5
                },
                {
                    "name": "B3",
                    "midi": 59,
                    "time": 136.00000000000009,
                    "velocity": 0.2047244094488189,
                    "duration": 0.5
                },
                {
                    "name": "F#3",
                    "midi": 54,
                    "time": 136.00000000000009,
                    "velocity": 0.2047244094488189,
                    "duration": 0.5
                },
                {
                    "name": "B2",
                    "midi": 47,
                    "time": 136.50000000000009,
                    "velocity": 0.3937007874015748,
                    "duration": 0.4999999999999716
                },
                {
                    "name": "E4",
                    "midi": 64,
                    "time": 137.00000000000006,
                    "velocity": 0.31496062992125984,
                    "duration": 0.5
                },
                {
                    "name": "A#3",
                    "midi": 58,
                    "time": 137.00000000000006,
                    "velocity": 0.2677165354330709,
                    "duration": 0.5
                },
                {
                    "name": "F#3",
                    "midi": 54,
                    "time": 137.00000000000006,
                    "velocity": 0.2677165354330709,
                    "duration": 0.5
                },
                {
                    "name": "E4",
                    "midi": 64,
                    "time": 137.50000000000006,
                    "velocity": 0.30708661417322836,
                    "duration": 0.5
                },
                {
                    "name": "A#3",
                    "midi": 58,
                    "time": 137.50000000000006,
                    "velocity": 0.25984251968503935,
                    "duration": 0.5
                },
                {
                    "name": "F#3",
                    "midi": 54,
                    "time": 137.50000000000006,
                    "velocity": 0.25984251968503935,
                    "duration": 0.5
                },
                {
                    "name": "B2",
                    "midi": 47,
                    "time": 138.00000000000006,
                    "velocity": 0.3937007874015748,
                    "duration": 0.5
                },
                {
                    "name": "D4",
                    "midi": 62,
                    "time": 138.50000000000006,
                    "velocity": 0.2440944881889764,
                    "duration": 0.5
                },
                {
                    "name": "B3",
                    "midi": 59,
                    "time": 138.50000000000006,
                    "velocity": 0.2047244094488189,
                    "duration": 0.5
                },
                {
                    "name": "F#3",
                    "midi": 54,
                    "time": 138.50000000000006,
                    "velocity": 0.2047244094488189,
                    "duration": 0.5
                },
                {
                    "name": "D4",
                    "midi": 62,
                    "time": 139.00000000000006,
                    "velocity": 0.2440944881889764,
                    "duration": 0.5
                },
                {
                    "name": "B3",
                    "midi": 59,
                    "time": 139.00000000000006,
                    "velocity": 0.2047244094488189,
                    "duration": 0.5
                },
                {
                    "name": "F#3",
                    "midi": 54,
                    "time": 139.00000000000006,
                    "velocity": 0.2047244094488189,
                    "duration": 0.5
                },
                {
                    "name": "C#2",
                    "midi": 37,
                    "time": 139.50000000000006,
                    "velocity": 0.3937007874015748,
                    "duration": 0.4999999999999716
                },
                {
                    "name": "B3",
                    "midi": 59,
                    "time": 140.00000000000003,
                    "velocity": 0.31496062992125984,
                    "duration": 0.5
                },
                {
                    "name": "F3",
                    "midi": 53,
                    "time": 140.00000000000003,
                    "velocity": 0.2677165354330709,
                    "duration": 0.5
                },
                {
                    "name": "C#3",
                    "midi": 49,
                    "time": 140.00000000000003,
                    "velocity": 0.2677165354330709,
                    "duration": 0.5
                },
                {
                    "name": "B3",
                    "midi": 59,
                    "time": 140.50000000000003,
                    "velocity": 0.30708661417322836,
                    "duration": 0.5
                },
                {
                    "name": "F3",
                    "midi": 53,
                    "time": 140.50000000000003,
                    "velocity": 0.25984251968503935,
                    "duration": 0.5
                },
                {
                    "name": "C#3",
                    "midi": 49,
                    "time": 140.50000000000003,
                    "velocity": 0.25984251968503935,
                    "duration": 0.5
                },
                {
                    "name": "F#2",
                    "midi": 42,
                    "time": 141.00000000000003,
                    "velocity": 0.3937007874015748,
                    "duration": 0.5
                },
                {
                    "name": "A3",
                    "midi": 57,
                    "time": 141.50000000000003,
                    "velocity": 0.29133858267716534,
                    "duration": 0.5
                },
                {
                    "name": "C#3",
                    "midi": 49,
                    "time": 141.50000000000003,
                    "velocity": 0.2440944881889764,
                    "duration": 0.5
                },
                {
                    "name": "C#3",
                    "midi": 49,
                    "time": 145.50000000000003,
                    "velocity": 0.3700787401574803,
                    "duration": 1.5
                },
                {
                    "name": "G#3",
                    "midi": 56,
                    "time": 145.50000000000003,
                    "velocity": 0.4566929133858268,
                    "duration": 0.5
                },
                {
                    "name": "F#3",
                    "midi": 54,
                    "time": 146.00000000000003,
                    "velocity": 0.4330708661417323,
                    "duration": 0.5
                },
                {
                    "name": "A3",
                    "midi": 57,
                    "time": 146.50000000000003,
                    "velocity": 0.4330708661417323,
                    "duration": 0.5
                },
                {
                    "name": "C#3",
                    "midi": 49,
                    "time": 147.00000000000003,
                    "velocity": 0.3700787401574803,
                    "duration": 1.5
                },
                {
                    "name": "G#3",
                    "midi": 56,
                    "time": 147.00000000000003,
                    "velocity": 0.44881889763779526,
                    "duration": 0.25
                },
                {
                    "name": "F#3",
                    "midi": 54,
                    "time": 147.25000000000003,
                    "velocity": 0.4015748031496063,
                    "duration": 0.25
                },
                {
                    "name": "A3",
                    "midi": 57,
                    "time": 147.50000000000003,
                    "velocity": 0.4409448818897638,
                    "duration": 0.5
                },
                {
                    "name": "A3",
                    "midi": 57,
                    "time": 148.00000000000003,
                    "velocity": 0.4251968503937008,
                    "duration": 0.5
                },
                {
                    "name": "C#3",
                    "midi": 49,
                    "time": 148.50000000000003,
                    "velocity": 0.3700787401574803,
                    "duration": 1.5
                },
                {
                    "name": "G#3",
                    "midi": 56,
                    "time": 148.50000000000003,
                    "velocity": 0.44881889763779526,
                    "duration": 0.5
                },
                {
                    "name": "F#3",
                    "midi": 54,
                    "time": 149.00000000000003,
                    "velocity": 0.4409448818897638,
                    "duration": 0.5
                },
                {
                    "name": "A#3",
                    "midi": 58,
                    "time": 149.50000000000003,
                    "velocity": 0.4251968503937008,
                    "duration": 0.5
                },
                {
                    "name": "C#3",
                    "midi": 49,
                    "time": 150.00000000000003,
                    "velocity": 0.3700787401574803,
                    "duration": 0.5
                },
                {
                    "name": "G#3",
                    "midi": 56,
                    "time": 150.00000000000003,
                    "velocity": 0.44881889763779526,
                    "duration": 0.25
                },
                {
                    "name": "F#3",
                    "midi": 54,
                    "time": 150.25000000000003,
                    "velocity": 0.4015748031496063,
                    "duration": 0.75
                },
                {
                    "name": "F#2",
                    "midi": 42,
                    "time": 150.50000000000003,
                    "velocity": 0.3700787401574803,
                    "duration": 1
                },
                {
                    "name": "B2",
                    "midi": 47,
                    "time": 151.50000000000003,
                    "velocity": 0.3937007874015748,
                    "duration": 0.5
                },
                {
                    "name": "E4",
                    "midi": 64,
                    "time": 152.00000000000003,
                    "velocity": 0.31496062992125984,
                    "duration": 0.5
                },
                {
                    "name": "B3",
                    "midi": 59,
                    "time": 152.00000000000003,
                    "velocity": 0.2677165354330709,
                    "duration": 0.5
                },
                {
                    "name": "G3",
                    "midi": 55,
                    "time": 152.00000000000003,
                    "velocity": 0.2677165354330709,
                    "duration": 0.5
                },
                {
                    "name": "E4",
                    "midi": 64,
                    "time": 152.50000000000003,
                    "velocity": 0.30708661417322836,
                    "duration": 0.5
                },
                {
                    "name": "B3",
                    "midi": 59,
                    "time": 152.50000000000003,
                    "velocity": 0.25984251968503935,
                    "duration": 0.5
                },
                {
                    "name": "G3",
                    "midi": 55,
                    "time": 152.50000000000003,
                    "velocity": 0.25984251968503935,
                    "duration": 0.5
                },
                {
                    "name": "B2",
                    "midi": 47,
                    "time": 153.00000000000003,
                    "velocity": 0.3937007874015748,
                    "duration": 0.5
                },
                {
                    "name": "D4",
                    "midi": 62,
                    "time": 153.50000000000003,
                    "velocity": 0.2440944881889764,
                    "duration": 0.5
                },
                {
                    "name": "B3",
                    "midi": 59,
                    "time": 153.50000000000003,
                    "velocity": 0.2047244094488189,
                    "duration": 0.5
                },
                {
                    "name": "F#3",
                    "midi": 54,
                    "time": 153.50000000000003,
                    "velocity": 0.2047244094488189,
                    "duration": 0.5
                },
                {
                    "name": "D4",
                    "midi": 62,
                    "time": 154.00000000000003,
                    "velocity": 0.2440944881889764,
                    "duration": 0.5
                },
                {
                    "name": "B3",
                    "midi": 59,
                    "time": 154.00000000000003,
                    "velocity": 0.2047244094488189,
                    "duration": 0.5
                },
                {
                    "name": "F#3",
                    "midi": 54,
                    "time": 154.00000000000003,
                    "velocity": 0.2047244094488189,
                    "duration": 0.5
                },
                {
                    "name": "B2",
                    "midi": 47,
                    "time": 154.50000000000003,
                    "velocity": 0.3937007874015748,
                    "duration": 0.4999999999999716
                },
                {
                    "name": "E4",
                    "midi": 64,
                    "time": 155,
                    "velocity": 0.31496062992125984,
                    "duration": 0.5
                },
                {
                    "name": "A#3",
                    "midi": 58,
                    "time": 155,
                    "velocity": 0.2677165354330709,
                    "duration": 0.5
                },
                {
                    "name": "F#3",
                    "midi": 54,
                    "time": 155,
                    "velocity": 0.2677165354330709,
                    "duration": 0.5
                },
                {
                    "name": "E4",
                    "midi": 64,
                    "time": 155.5,
                    "velocity": 0.30708661417322836,
                    "duration": 0.5
                },
                {
                    "name": "A#3",
                    "midi": 58,
                    "time": 155.5,
                    "velocity": 0.25984251968503935,
                    "duration": 0.5
                },
                {
                    "name": "F#3",
                    "midi": 54,
                    "time": 155.5,
                    "velocity": 0.25984251968503935,
                    "duration": 0.5
                },
                {
                    "name": "B2",
                    "midi": 47,
                    "time": 156,
                    "velocity": 0.3937007874015748,
                    "duration": 0.5
                },
                {
                    "name": "D4",
                    "midi": 62,
                    "time": 156.5,
                    "velocity": 0.2440944881889764,
                    "duration": 0.5
                },
                {
                    "name": "B3",
                    "midi": 59,
                    "time": 156.5,
                    "velocity": 0.2047244094488189,
                    "duration": 0.5
                },
                {
                    "name": "F#3",
                    "midi": 54,
                    "time": 156.5,
                    "velocity": 0.2047244094488189,
                    "duration": 0.5
                },
                {
                    "name": "B3",
                    "midi": 59,
                    "time": 157.5,
                    "velocity": 0.2992125984251969,
                    "duration": 0.5
                },
                {
                    "name": "F4",
                    "midi": 65,
                    "time": 157.5,
                    "velocity": 0.33858267716535434,
                    "duration": 0.5
                },
                {
                    "name": "C4",
                    "midi": 60,
                    "time": 158,
                    "velocity": 0.2677165354330709,
                    "duration": 0.5
                },
                {
                    "name": "E4",
                    "midi": 64,
                    "time": 158,
                    "velocity": 0.2992125984251969,
                    "duration": 0.5
                },
                {
                    "name": "C4",
                    "midi": 60,
                    "time": 158.5,
                    "velocity": 0.2677165354330709,
                    "duration": 0.5
                },
                {
                    "name": "E4",
                    "midi": 64,
                    "time": 158.5,
                    "velocity": 0.2992125984251969,
                    "duration": 0.5
                },
                {
                    "name": "G3",
                    "midi": 55,
                    "time": 159,
                    "velocity": 0.3228346456692913,
                    "duration": 0.5
                },
                {
                    "name": "B3",
                    "midi": 59,
                    "time": 159,
                    "velocity": 0.3228346456692913,
                    "duration": 0.5
                },
                {
                    "name": "F4",
                    "midi": 65,
                    "time": 159,
                    "velocity": 0.36220472440944884,
                    "duration": 0.5
                },
                {
                    "name": "G3",
                    "midi": 55,
                    "time": 159.5,
                    "velocity": 0.2677165354330709,
                    "duration": 0.5
                },
                {
                    "name": "B3",
                    "midi": 59,
                    "time": 159.5,
                    "velocity": 0.2677165354330709,
                    "duration": 0.5
                },
                {
                    "name": "F4",
                    "midi": 65,
                    "time": 159.5,
                    "velocity": 0.2992125984251969,
                    "duration": 0.5
                },
                {
                    "name": "C4",
                    "midi": 60,
                    "time": 160,
                    "velocity": 0.2677165354330709,
                    "duration": 0.5
                },
                {
                    "name": "E4",
                    "midi": 64,
                    "time": 160,
                    "velocity": 0.2992125984251969,
                    "duration": 0.5
                },
                {
                    "name": "B3",
                    "midi": 59,
                    "time": 160.5,
                    "velocity": 0.2992125984251969,
                    "duration": 0.5
                },
                {
                    "name": "F4",
                    "midi": 65,
                    "time": 160.5,
                    "velocity": 0.33858267716535434,
                    "duration": 0.5
                },
                {
                    "name": "C4",
                    "midi": 60,
                    "time": 161,
                    "velocity": 0.2677165354330709,
                    "duration": 0.5
                },
                {
                    "name": "E4",
                    "midi": 64,
                    "time": 161,
                    "velocity": 0.2992125984251969,
                    "duration": 0.5
                },
                {
                    "name": "C4",
                    "midi": 60,
                    "time": 161.5,
                    "velocity": 0.2677165354330709,
                    "duration": 0.5
                },
                {
                    "name": "E4",
                    "midi": 64,
                    "time": 161.5,
                    "velocity": 0.2992125984251969,
                    "duration": 0.5
                },
                {
                    "name": "G3",
                    "midi": 55,
                    "time": 162,
                    "velocity": 0.3228346456692913,
                    "duration": 0.5
                },
                {
                    "name": "B3",
                    "midi": 59,
                    "time": 162,
                    "velocity": 0.3228346456692913,
                    "duration": 0.5
                },
                {
                    "name": "F4",
                    "midi": 65,
                    "time": 162,
                    "velocity": 0.36220472440944884,
                    "duration": 0.5
                },
                {
                    "name": "G3",
                    "midi": 55,
                    "time": 162.5,
                    "velocity": 0.25984251968503935,
                    "duration": 0.5
                },
                {
                    "name": "B3",
                    "midi": 59,
                    "time": 162.5,
                    "velocity": 0.25984251968503935,
                    "duration": 0.5
                },
                {
                    "name": "F4",
                    "midi": 65,
                    "time": 162.5,
                    "velocity": 0.29133858267716534,
                    "duration": 0.5
                },
                {
                    "name": "C4",
                    "midi": 60,
                    "time": 163,
                    "velocity": 0.25196850393700787,
                    "duration": 0.5
                },
                {
                    "name": "E4",
                    "midi": 64,
                    "time": 163,
                    "velocity": 0.28346456692913385,
                    "duration": 0.5
                },
                {
                    "name": "G3",
                    "midi": 55,
                    "time": 163.5,
                    "velocity": 0.2992125984251969,
                    "duration": 0.5
                },
                {
                    "name": "B3",
                    "midi": 59,
                    "time": 163.5,
                    "velocity": 0.2992125984251969,
                    "duration": 0.5
                },
                {
                    "name": "F4",
                    "midi": 65,
                    "time": 163.5,
                    "velocity": 0.33858267716535434,
                    "duration": 0.5
                },
                {
                    "name": "C4",
                    "midi": 60,
                    "time": 164,
                    "velocity": 0.2440944881889764,
                    "duration": 0.5
                },
                {
                    "name": "E4",
                    "midi": 64,
                    "time": 164,
                    "velocity": 0.2677165354330709,
                    "duration": 0.5
                },
                {
                    "name": "G3",
                    "midi": 55,
                    "time": 164.5,
                    "velocity": 0.28346456692913385,
                    "duration": 0.5
                },
                {
                    "name": "B3",
                    "midi": 59,
                    "time": 164.5,
                    "velocity": 0.28346456692913385,
                    "duration": 0.5
                },
                {
                    "name": "F4",
                    "midi": 65,
                    "time": 164.5,
                    "velocity": 0.3228346456692913,
                    "duration": 0.5
                },
                {
                    "name": "C4",
                    "midi": 60,
                    "time": 165,
                    "velocity": 0.2283464566929134,
                    "duration": 0.5
                },
                {
                    "name": "E4",
                    "midi": 64,
                    "time": 165,
                    "velocity": 0.2283464566929134,
                    "duration": 0.5
                },
                {
                    "name": "G3",
                    "midi": 55,
                    "time": 165.5,
                    "velocity": 0.2755905511811024,
                    "duration": 0.5
                },
                {
                    "name": "B3",
                    "midi": 59,
                    "time": 165.5,
                    "velocity": 0.2755905511811024,
                    "duration": 0.5
                },
                {
                    "name": "F4",
                    "midi": 65,
                    "time": 165.5,
                    "velocity": 0.30708661417322836,
                    "duration": 0.5
                },
                {
                    "name": "C4",
                    "midi": 60,
                    "time": 166,
                    "velocity": 0.2204724409448819,
                    "duration": 0.5
                },
                {
                    "name": "E4",
                    "midi": 64,
                    "time": 166,
                    "velocity": 0.2440944881889764,
                    "duration": 0.5
                },
                {
                    "name": "G3",
                    "midi": 55,
                    "time": 166.5,
                    "velocity": 0.4094488188976378,
                    "duration": 1.5
                },
                {
                    "name": "F#3",
                    "midi": 54,
                    "time": 168,
                    "velocity": 0.4645669291338583,
                    "duration": 1
                },
                {
                    "name": "F3",
                    "midi": 53,
                    "time": 169,
                    "velocity": 0.4881889763779528,
                    "duration": 0.5
                },
                {
                    "name": "A#1",
                    "midi": 34,
                    "time": 169.5,
                    "velocity": 0.5826771653543307,
                    "duration": 0.25
                },
                {
                    "name": "F3",
                    "midi": 53,
                    "time": 170,
                    "velocity": 0.4251968503937008,
                    "duration": 0.5
                },
                {
                    "name": "D4",
                    "midi": 62,
                    "time": 170,
                    "velocity": 0.5039370078740157,
                    "duration": 0.5
                },
                {
                    "name": "A#3",
                    "midi": 58,
                    "time": 170,
                    "velocity": 0.4251968503937008,
                    "duration": 0.5
                },
                {
                    "name": "D#4",
                    "midi": 63,
                    "time": 170.5,
                    "velocity": 0.5039370078740157,
                    "duration": 0.4999999999999716
                },
                {
                    "name": "A#3",
                    "midi": 58,
                    "time": 170.5,
                    "velocity": 0.5039370078740157,
                    "duration": 0.4999999999999716
                },
                {
                    "name": "F#3",
                    "midi": 54,
                    "time": 170.5,
                    "velocity": 0.5039370078740157,
                    "duration": 0.4999999999999716
                },
                {
                    "name": "A#2",
                    "midi": 46,
                    "time": 170.99999999999997,
                    "velocity": 0.5748031496062992,
                    "duration": 0.25
                },
                {
                    "name": "F4",
                    "midi": 65,
                    "time": 171.49999999999997,
                    "velocity": 0.5354330708661418,
                    "duration": 1
                },
                {
                    "name": "D4",
                    "midi": 62,
                    "time": 171.49999999999997,
                    "velocity": 0.44881889763779526,
                    "duration": 1
                },
                {
                    "name": "A#3",
                    "midi": 58,
                    "time": 171.49999999999997,
                    "velocity": 0.44881889763779526,
                    "duration": 1
                },
                {
                    "name": "F3",
                    "midi": 53,
                    "time": 171.99999999999997,
                    "velocity": 0.5354330708661418,
                    "duration": 0.5
                },
                {
                    "name": "A#1",
                    "midi": 34,
                    "time": 172.49999999999997,
                    "velocity": 0.5669291338582677,
                    "duration": 0.25
                },
                {
                    "name": "F3",
                    "midi": 53,
                    "time": 172.99999999999997,
                    "velocity": 0.4251968503937008,
                    "duration": 0.5
                },
                {
                    "name": "D4",
                    "midi": 62,
                    "time": 172.99999999999997,
                    "velocity": 0.5039370078740157,
                    "duration": 0.5
                },
                {
                    "name": "A#3",
                    "midi": 58,
                    "time": 172.99999999999997,
                    "velocity": 0.4251968503937008,
                    "duration": 0.5
                },
                {
                    "name": "D#4",
                    "midi": 63,
                    "time": 173.49999999999997,
                    "velocity": 0.5039370078740157,
                    "duration": 0.4999999999999716
                },
                {
                    "name": "A#3",
                    "midi": 58,
                    "time": 173.49999999999997,
                    "velocity": 0.5039370078740157,
                    "duration": 0.4999999999999716
                },
                {
                    "name": "F#3",
                    "midi": 54,
                    "time": 173.49999999999997,
                    "velocity": 0.5039370078740157,
                    "duration": 0.4999999999999716
                },
                {
                    "name": "A#2",
                    "midi": 46,
                    "time": 173.99999999999994,
                    "velocity": 0.5748031496062992,
                    "duration": 0.25
                },
                {
                    "name": "F4",
                    "midi": 65,
                    "time": 174.49999999999994,
                    "velocity": 0.5354330708661418,
                    "duration": 1
                },
                {
                    "name": "D4",
                    "midi": 62,
                    "time": 174.49999999999994,
                    "velocity": 0.44881889763779526,
                    "duration": 1
                },
                {
                    "name": "A#3",
                    "midi": 58,
                    "time": 174.49999999999994,
                    "velocity": 0.44881889763779526,
                    "duration": 1
                },
                {
                    "name": "F3",
                    "midi": 53,
                    "time": 174.99999999999994,
                    "velocity": 0.5354330708661418,
                    "duration": 0.5
                },
                {
                    "name": "A#1",
                    "midi": 34,
                    "time": 175.49999999999994,
                    "velocity": 0.6220472440944882,
                    "duration": 0.25
                },
                {
                    "name": "F3",
                    "midi": 53,
                    "time": 175.99999999999994,
                    "velocity": 0.4251968503937008,
                    "duration": 0.5
                },
                {
                    "name": "D4",
                    "midi": 62,
                    "time": 175.99999999999994,
                    "velocity": 0.5039370078740157,
                    "duration": 0.5
                },
                {
                    "name": "A#3",
                    "midi": 58,
                    "time": 175.99999999999994,
                    "velocity": 0.4251968503937008,
                    "duration": 0.5
                },
                {
                    "name": "D#4",
                    "midi": 63,
                    "time": 176.49999999999994,
                    "velocity": 0.5039370078740157,
                    "duration": 0.5
                },
                {
                    "name": "A#3",
                    "midi": 58,
                    "time": 176.49999999999994,
                    "velocity": 0.5039370078740157,
                    "duration": 0.5
                },
                {
                    "name": "F#3",
                    "midi": 54,
                    "time": 176.49999999999994,
                    "velocity": 0.5039370078740157,
                    "duration": 0.5
                },
                {
                    "name": "A#2",
                    "midi": 46,
                    "time": 176.99999999999994,
                    "velocity": 0.5748031496062992,
                    "duration": 0.25
                },
                {
                    "name": "F4",
                    "midi": 65,
                    "time": 177.49999999999994,
                    "velocity": 0.5354330708661418,
                    "duration": 1
                },
                {
                    "name": "D4",
                    "midi": 62,
                    "time": 177.49999999999994,
                    "velocity": 0.44881889763779526,
                    "duration": 1
                },
                {
                    "name": "A#3",
                    "midi": 58,
                    "time": 177.49999999999994,
                    "velocity": 0.44881889763779526,
                    "duration": 1
                },
                {
                    "name": "F3",
                    "midi": 53,
                    "time": 177.99999999999994,
                    "velocity": 0.5354330708661418,
                    "duration": 0.5
                },
                {
                    "name": "A#2",
                    "midi": 46,
                    "time": 178.49999999999994,
                    "velocity": 0.5669291338582677,
                    "duration": 0.25
                },
                {
                    "name": "A#1",
                    "midi": 34,
                    "time": 178.49999999999994,
                    "velocity": 0.5433070866141733,
                    "duration": 0.25
                },
                {
                    "name": "F3",
                    "midi": 53,
                    "time": 178.99999999999994,
                    "velocity": 0.4251968503937008,
                    "duration": 0.5
                },
                {
                    "name": "D4",
                    "midi": 62,
                    "time": 178.99999999999994,
                    "velocity": 0.5039370078740157,
                    "duration": 0.5
                },
                {
                    "name": "A#3",
                    "midi": 58,
                    "time": 178.99999999999994,
                    "velocity": 0.4251968503937008,
                    "duration": 0.5
                },
                {
                    "name": "D#4",
                    "midi": 63,
                    "time": 179.49999999999994,
                    "velocity": 0.5039370078740157,
                    "duration": 0.5
                },
                {
                    "name": "A#3",
                    "midi": 58,
                    "time": 179.49999999999994,
                    "velocity": 0.5039370078740157,
                    "duration": 0.5
                },
                {
                    "name": "F#3",
                    "midi": 54,
                    "time": 179.49999999999994,
                    "velocity": 0.5039370078740157,
                    "duration": 0.5
                },
                {
                    "name": "A#2",
                    "midi": 46,
                    "time": 179.99999999999994,
                    "velocity": 0.5748031496062992,
                    "duration": 0.25
                },
                {
                    "name": "F4",
                    "midi": 65,
                    "time": 180.49999999999994,
                    "velocity": 0.5354330708661418,
                    "duration": 1
                },
                {
                    "name": "D4",
                    "midi": 62,
                    "time": 180.49999999999994,
                    "velocity": 0.44881889763779526,
                    "duration": 1
                },
                {
                    "name": "A#3",
                    "midi": 58,
                    "time": 180.49999999999994,
                    "velocity": 0.44881889763779526,
                    "duration": 1
                },
                {
                    "name": "F3",
                    "midi": 53,
                    "time": 180.99999999999994,
                    "velocity": 0.5354330708661418,
                    "duration": 0.5
                },
                {
                    "name": "D#2",
                    "midi": 39,
                    "time": 181.49999999999994,
                    "velocity": 0.6377952755905512,
                    "duration": 0.25
                },
                {
                    "name": "A#3",
                    "midi": 58,
                    "time": 181.99999999999994,
                    "velocity": 0.4251968503937008,
                    "duration": 0.5
                },
                {
                    "name": "G4",
                    "midi": 67,
                    "time": 181.99999999999994,
                    "velocity": 0.5039370078740157,
                    "duration": 0.5
                },
                {
                    "name": "D#4",
                    "midi": 63,
                    "time": 181.99999999999994,
                    "velocity": 0.4251968503937008,
                    "duration": 0.5
                },
                {
                    "name": "G#4",
                    "midi": 68,
                    "time": 182.49999999999994,
                    "velocity": 0.5039370078740157,
                    "duration": 0.5
                },
                {
                    "name": "D#4",
                    "midi": 63,
                    "time": 182.49999999999994,
                    "velocity": 0.5039370078740157,
                    "duration": 0.5
                },
                {
                    "name": "B3",
                    "midi": 59,
                    "time": 182.49999999999994,
                    "velocity": 0.5039370078740157,
                    "duration": 0.5
                },
                {
                    "name": "D#3",
                    "midi": 51,
                    "time": 182.99999999999994,
                    "velocity": 0.5748031496062992,
                    "duration": 0.25
                },
                {
                    "name": "G4",
                    "midi": 67,
                    "time": 183.49999999999994,
                    "velocity": 0.5354330708661418,
                    "duration": 0.5
                },
                {
                    "name": "D#4",
                    "midi": 63,
                    "time": 183.49999999999994,
                    "velocity": 0.44881889763779526,
                    "duration": 0.5
                },
                {
                    "name": "A#3",
                    "midi": 58,
                    "time": 183.49999999999994,
                    "velocity": 0.44881889763779526,
                    "duration": 0.5
                },
                {
                    "name": "D#3",
                    "midi": 51,
                    "time": 183.99999999999994,
                    "velocity": 0.5354330708661418,
                    "duration": 0.5
                },
                {
                    "name": "D#2",
                    "midi": 39,
                    "time": 184.49999999999994,
                    "velocity": 0.5748031496062992,
                    "duration": 0.25
                },
                {
                    "name": "A#3",
                    "midi": 58,
                    "time": 184.99999999999994,
                    "velocity": 0.4251968503937008,
                    "duration": 0.5
                },
                {
                    "name": "G4",
                    "midi": 67,
                    "time": 184.99999999999994,
                    "velocity": 0.5039370078740157,
                    "duration": 0.5
                },
                {
                    "name": "D#4",
                    "midi": 63,
                    "time": 184.99999999999994,
                    "velocity": 0.4251968503937008,
                    "duration": 0.5
                },
                {
                    "name": "G#4",
                    "midi": 68,
                    "time": 185.49999999999994,
                    "velocity": 0.5039370078740157,
                    "duration": 0.5
                },
                {
                    "name": "D#4",
                    "midi": 63,
                    "time": 185.49999999999994,
                    "velocity": 0.5039370078740157,
                    "duration": 0.5
                },
                {
                    "name": "B3",
                    "midi": 59,
                    "time": 185.49999999999994,
                    "velocity": 0.5039370078740157,
                    "duration": 0.5
                },
                {
                    "name": "D#3",
                    "midi": 51,
                    "time": 185.99999999999994,
                    "velocity": 0.5748031496062992,
                    "duration": 0.24999999999997158
                },
                {
                    "name": "A#4",
                    "midi": 70,
                    "time": 186.49999999999991,
                    "velocity": 0.5354330708661418,
                    "duration": 0.5
                },
                {
                    "name": "G4",
                    "midi": 67,
                    "time": 186.49999999999991,
                    "velocity": 0.44881889763779526,
                    "duration": 0.5
                },
                {
                    "name": "C#4",
                    "midi": 61,
                    "time": 186.49999999999991,
                    "velocity": 0.44881889763779526,
                    "duration": 0.5
                },
                {
                    "name": "D#3",
                    "midi": 51,
                    "time": 186.99999999999991,
                    "velocity": 0.5354330708661418,
                    "duration": 0.5
                },
                {
                    "name": "D#2",
                    "midi": 39,
                    "time": 187.49999999999991,
                    "velocity": 0.5748031496062992,
                    "duration": 0.25
                },
                {
                    "name": "C#4",
                    "midi": 61,
                    "time": 187.99999999999991,
                    "velocity": 0.5118110236220472,
                    "duration": 0.5
                },
                {
                    "name": "D4",
                    "midi": 62,
                    "time": 188.49999999999991,
                    "velocity": 0.44881889763779526,
                    "duration": 0.5
                },
                {
                    "name": "D#4",
                    "midi": 63,
                    "time": 188.99999999999991,
                    "velocity": 0.4645669291338583,
                    "duration": 0.5
                },
                {
                    "name": "E4",
                    "midi": 64,
                    "time": 189.49999999999991,
                    "velocity": 0.44881889763779526,
                    "duration": 0.5
                },
                {
                    "name": "F4",
                    "midi": 65,
                    "time": 189.99999999999991,
                    "velocity": 0.4251968503937008,
                    "duration": 0.5
                },
                {
                    "name": "F#4",
                    "midi": 66,
                    "time": 190.49999999999991,
                    "velocity": 0.4094488188976378,
                    "duration": 0.5
                },
                {
                    "name": "F#3",
                    "midi": 54,
                    "time": 190.99999999999991,
                    "velocity": 0.4645669291338583,
                    "duration": 0.4375
                },
                {
                    "name": "A#3",
                    "midi": 58,
                    "time": 191.43749999999991,
                    "velocity": 0.47244094488188976,
                    "duration": 0.0625
                },
                {
                    "name": "G#3",
                    "midi": 56,
                    "time": 191.49999999999991,
                    "velocity": 0.5354330708661418,
                    "duration": 0.5
                },
                {
                    "name": "F#3",
                    "midi": 54,
                    "time": 191.99999999999991,
                    "velocity": 0.49606299212598426,
                    "duration": 0.5
                },
                {
                    "name": "C#3",
                    "midi": 49,
                    "time": 192.49999999999991,
                    "velocity": 0.4409448818897638,
                    "duration": 0.5
                },
                {
                    "name": "F#3",
                    "midi": 54,
                    "time": 192.99999999999991,
                    "velocity": 0.41732283464566927,
                    "duration": 0.5
                },
                {
                    "name": "B2",
                    "midi": 47,
                    "time": 193.49999999999991,
                    "velocity": 0.3937007874015748,
                    "duration": 0.5
                },
                {
                    "name": "D#4",
                    "midi": 63,
                    "time": 193.99999999999991,
                    "velocity": 0.33858267716535434,
                    "duration": 0.5
                },
                {
                    "name": "B3",
                    "midi": 59,
                    "time": 193.99999999999991,
                    "velocity": 0.28346456692913385,
                    "duration": 0.5
                },
                {
                    "name": "F#3",
                    "midi": 54,
                    "time": 193.99999999999991,
                    "velocity": 0.28346456692913385,
                    "duration": 0.5
                },
                {
                    "name": "D#4",
                    "midi": 63,
                    "time": 194.49999999999991,
                    "velocity": 0.28346456692913385,
                    "duration": 0.5
                },
                {
                    "name": "B4",
                    "midi": 71,
                    "time": 194.49999999999991,
                    "velocity": 0.33858267716535434,
                    "duration": 0.5
                },
                {
                    "name": "E2",
                    "midi": 40,
                    "time": 194.99999999999991,
                    "velocity": 0.41732283464566927,
                    "duration": 0.5
                },
                {
                    "name": "C#4",
                    "midi": 61,
                    "time": 195.49999999999991,
                    "velocity": 0.29133858267716534,
                    "duration": 0.4999999999999716
                },
                {
                    "name": "B3",
                    "midi": 59,
                    "time": 195.49999999999991,
                    "velocity": 0.29133858267716534,
                    "duration": 0.4999999999999716
                },
                {
                    "name": "E4",
                    "midi": 64,
                    "time": 195.49999999999991,
                    "velocity": 0.29133858267716534,
                    "duration": 0.4999999999999716
                },
                {
                    "name": "G#4",
                    "midi": 68,
                    "time": 195.49999999999991,
                    "velocity": 0.3464566929133858,
                    "duration": 0.4999999999999716
                },
                {
                    "name": "F#2",
                    "midi": 42,
                    "time": 196.4999999999999,
                    "velocity": 0.3937007874015748,
                    "duration": 0.5
                },
                {
                    "name": "E4",
                    "midi": 64,
                    "time": 196.9999999999999,
                    "velocity": 0.33858267716535434,
                    "duration": 0.5
                },
                {
                    "name": "A#3",
                    "midi": 58,
                    "time": 196.9999999999999,
                    "velocity": 0.28346456692913385,
                    "duration": 0.5
                },
                {
                    "name": "F#3",
                    "midi": 54,
                    "time": 196.9999999999999,
                    "velocity": 0.28346456692913385,
                    "duration": 0.5
                },
                {
                    "name": "F#3",
                    "midi": 54,
                    "time": 197.4999999999999,
                    "velocity": 0.2992125984251969,
                    "duration": 0.5
                },
                {
                    "name": "A#3",
                    "midi": 58,
                    "time": 197.4999999999999,
                    "velocity": 0.2992125984251969,
                    "duration": 0.5
                },
                {
                    "name": "E4",
                    "midi": 64,
                    "time": 197.4999999999999,
                    "velocity": 0.3543307086614173,
                    "duration": 0.5
                },
                {
                    "name": "G2",
                    "midi": 43,
                    "time": 197.9999999999999,
                    "velocity": 0.4251968503937008,
                    "duration": 0.5
                },
                {
                    "name": "D#4",
                    "midi": 63,
                    "time": 198.4999999999999,
                    "velocity": 0.3700787401574803,
                    "duration": 0.5
                },
                {
                    "name": "A#3",
                    "midi": 58,
                    "time": 198.4999999999999,
                    "velocity": 0.30708661417322836,
                    "duration": 0.5
                },
                {
                    "name": "D#3",
                    "midi": 51,
                    "time": 198.4999999999999,
                    "velocity": 0.30708661417322836,
                    "duration": 0.5
                },
                {
                    "name": "D#3",
                    "midi": 51,
                    "time": 198.9999999999999,
                    "velocity": 0.29133858267716534,
                    "duration": 0.5
                },
                {
                    "name": "A#3",
                    "midi": 58,
                    "time": 198.9999999999999,
                    "velocity": 0.29133858267716534,
                    "duration": 0.5
                },
                {
                    "name": "D#4",
                    "midi": 63,
                    "time": 198.9999999999999,
                    "velocity": 0.3464566929133858,
                    "duration": 0.5
                },
                {
                    "name": "G#2",
                    "midi": 44,
                    "time": 199.4999999999999,
                    "velocity": 0.3937007874015748,
                    "duration": 0.4999999999999716
                },
                {
                    "name": "B3",
                    "midi": 59,
                    "time": 199.99999999999986,
                    "velocity": 0.33858267716535434,
                    "duration": 0.5
                },
                {
                    "name": "G#3",
                    "midi": 56,
                    "time": 199.99999999999986,
                    "velocity": 0.28346456692913385,
                    "duration": 0.5
                },
                {
                    "name": "D#3",
                    "midi": 51,
                    "time": 199.99999999999986,
                    "velocity": 0.28346456692913385,
                    "duration": 0.5
                },
                {
                    "name": "D#3",
                    "midi": 51,
                    "time": 200.49999999999986,
                    "velocity": 0.28346456692913385,
                    "duration": 0.5
                },
                {
                    "name": "G#3",
                    "midi": 56,
                    "time": 200.49999999999986,
                    "velocity": 0.28346456692913385,
                    "duration": 0.5
                },
                {
                    "name": "B3",
                    "midi": 59,
                    "time": 200.49999999999986,
                    "velocity": 0.33858267716535434,
                    "duration": 0.5
                },
                {
                    "name": "C#2",
                    "midi": 37,
                    "time": 200.99999999999986,
                    "velocity": 0.41732283464566927,
                    "duration": 0.5
                },
                {
                    "name": "E4",
                    "midi": 64,
                    "time": 201.49999999999986,
                    "velocity": 0.3543307086614173,
                    "duration": 0.5
                },
                {
                    "name": "C#4",
                    "midi": 61,
                    "time": 201.49999999999986,
                    "velocity": 0.2992125984251969,
                    "duration": 0.5
                },
                {
                    "name": "G#3",
                    "midi": 56,
                    "time": 201.49999999999986,
                    "velocity": 0.2992125984251969,
                    "duration": 0.5
                },
                {
                    "name": "D3",
                    "midi": 50,
                    "time": 202.49999999999986,
                    "velocity": 0.3937007874015748,
                    "duration": 0.5
                },
                {
                    "name": "F4",
                    "midi": 65,
                    "time": 202.99999999999986,
                    "velocity": 0.3464566929133858,
                    "duration": 0.5
                },
                {
                    "name": "B3",
                    "midi": 59,
                    "time": 202.99999999999986,
                    "velocity": 0.29133858267716534,
                    "duration": 0.5
                },
                {
                    "name": "G#3",
                    "midi": 56,
                    "time": 202.99999999999986,
                    "velocity": 0.29133858267716534,
                    "duration": 0.5
                },
                {
                    "name": "G#3",
                    "midi": 56,
                    "time": 203.49999999999986,
                    "velocity": 0.29133858267716534,
                    "duration": 0.5
                },
                {
                    "name": "A#3",
                    "midi": 58,
                    "time": 203.49999999999986,
                    "velocity": 0.29133858267716534,
                    "duration": 0.5
                },
                {
                    "name": "F4",
                    "midi": 65,
                    "time": 203.49999999999986,
                    "velocity": 0.3464566929133858,
                    "duration": 0.5
                },
                {
                    "name": "D#3",
                    "midi": 51,
                    "time": 203.99999999999986,
                    "velocity": 0.4330708661417323,
                    "duration": 0.5
                },
                {
                    "name": "D#4",
                    "midi": 63,
                    "time": 204.49999999999986,
                    "velocity": 0.3700787401574803,
                    "duration": 0.5
                },
                {
                    "name": "A#3",
                    "midi": 58,
                    "time": 204.49999999999986,
                    "velocity": 0.30708661417322836,
                    "duration": 0.5
                },
                {
                    "name": "G3",
                    "midi": 55,
                    "time": 204.49999999999986,
                    "velocity": 0.30708661417322836,
                    "duration": 0.5
                },
                {
                    "name": "C#3",
                    "midi": 49,
                    "time": 204.99999999999986,
                    "velocity": 0.30708661417322836,
                    "duration": 0.5
                },
                {
                    "name": "F#3",
                    "midi": 54,
                    "time": 204.99999999999986,
                    "velocity": 0.30708661417322836,
                    "duration": 0.5
                },
                {
                    "name": "A#3",
                    "midi": 58,
                    "time": 204.99999999999986,
                    "velocity": 0.30708661417322836,
                    "duration": 0.5
                },
                {
                    "name": "E4",
                    "midi": 64,
                    "time": 204.99999999999986,
                    "velocity": 0.3700787401574803,
                    "duration": 0.5
                },
                {
                    "name": "B2",
                    "midi": 47,
                    "time": 205.49999999999986,
                    "velocity": 0.3937007874015748,
                    "duration": 0.5
                },
                {
                    "name": "D#4",
                    "midi": 63,
                    "time": 205.99999999999986,
                    "velocity": 0.33858267716535434,
                    "duration": 0.5
                },
                {
                    "name": "B3",
                    "midi": 59,
                    "time": 205.99999999999986,
                    "velocity": 0.28346456692913385,
                    "duration": 0.5
                },
                {
                    "name": "F#3",
                    "midi": 54,
                    "time": 205.99999999999986,
                    "velocity": 0.28346456692913385,
                    "duration": 0.5
                },
                {
                    "name": "E2",
                    "midi": 40,
                    "time": 206.99999999999986,
                    "velocity": 0.4015748031496063,
                    "duration": 0.5
                },
                {
                    "name": "C#4",
                    "midi": 61,
                    "time": 207.49999999999986,
                    "velocity": 0.29133858267716534,
                    "duration": 0.5
                },
                {
                    "name": "B3",
                    "midi": 59,
                    "time": 207.49999999999986,
                    "velocity": 0.29133858267716534,
                    "duration": 0.5
                },
                {
                    "name": "E4",
                    "midi": 64,
                    "time": 207.49999999999986,
                    "velocity": 0.29133858267716534,
                    "duration": 0.5
                },
                {
                    "name": "G#4",
                    "midi": 68,
                    "time": 207.49999999999986,
                    "velocity": 0.3464566929133858,
                    "duration": 0.5
                },
                {
                    "name": "F#2",
                    "midi": 42,
                    "time": 208.49999999999986,
                    "velocity": 0.3937007874015748,
                    "duration": 0.5000000000000284
                },
                {
                    "name": "E4",
                    "midi": 64,
                    "time": 208.9999999999999,
                    "velocity": 0.33858267716535434,
                    "duration": 0.5
                },
                {
                    "name": "A#3",
                    "midi": 58,
                    "time": 208.9999999999999,
                    "velocity": 0.28346456692913385,
                    "duration": 0.5
                },
                {
                    "name": "F#3",
                    "midi": 54,
                    "time": 208.9999999999999,
                    "velocity": 0.28346456692913385,
                    "duration": 0.5
                },
                {
                    "name": "F#3",
                    "midi": 54,
                    "time": 209.4999999999999,
                    "velocity": 0.2992125984251969,
                    "duration": 0.5
                },
                {
                    "name": "A#3",
                    "midi": 58,
                    "time": 209.4999999999999,
                    "velocity": 0.2992125984251969,
                    "duration": 0.5
                },
                {
                    "name": "E4",
                    "midi": 64,
                    "time": 209.4999999999999,
                    "velocity": 0.3543307086614173,
                    "duration": 0.5
                },
                {
                    "name": "G2",
                    "midi": 43,
                    "time": 209.9999999999999,
                    "velocity": 0.4251968503937008,
                    "duration": 0.5
                },
                {
                    "name": "D#4",
                    "midi": 63,
                    "time": 210.4999999999999,
                    "velocity": 0.3700787401574803,
                    "duration": 0.5
                },
                {
                    "name": "A#3",
                    "midi": 58,
                    "time": 210.4999999999999,
                    "velocity": 0.30708661417322836,
                    "duration": 0.5
                },
                {
                    "name": "D#3",
                    "midi": 51,
                    "time": 210.4999999999999,
                    "velocity": 0.30708661417322836,
                    "duration": 0.5
                },
                {
                    "name": "D#3",
                    "midi": 51,
                    "time": 210.9999999999999,
                    "velocity": 0.29133858267716534,
                    "duration": 0.5
                },
                {
                    "name": "A#3",
                    "midi": 58,
                    "time": 210.9999999999999,
                    "velocity": 0.29133858267716534,
                    "duration": 0.5
                },
                {
                    "name": "D#4",
                    "midi": 63,
                    "time": 210.9999999999999,
                    "velocity": 0.3464566929133858,
                    "duration": 0.5
                },
                {
                    "name": "G#2",
                    "midi": 44,
                    "time": 211.4999999999999,
                    "velocity": 0.4330708661417323,
                    "duration": 0.5
                },
                {
                    "name": "F3",
                    "midi": 53,
                    "time": 211.9999999999999,
                    "velocity": 0.28346456692913385,
                    "duration": 0.5
                },
                {
                    "name": "D#4",
                    "midi": 63,
                    "time": 211.9999999999999,
                    "velocity": 0.33858267716535434,
                    "duration": 0.5
                },
                {
                    "name": "B3",
                    "midi": 59,
                    "time": 211.9999999999999,
                    "velocity": 0.28346456692913385,
                    "duration": 0.5
                },
                {
                    "name": "G#3",
                    "midi": 56,
                    "time": 211.9999999999999,
                    "velocity": 0.28346456692913385,
                    "duration": 0.5
                },
                {
                    "name": "A#2",
                    "midi": 46,
                    "time": 212.9999999999999,
                    "velocity": 0.41732283464566927,
                    "duration": 0.5
                },
                {
                    "name": "D#4",
                    "midi": 63,
                    "time": 213.4999999999999,
                    "velocity": 0.3543307086614173,
                    "duration": 0.5
                },
                {
                    "name": "A#3",
                    "midi": 58,
                    "time": 213.4999999999999,
                    "velocity": 0.2992125984251969,
                    "duration": 0.5
                },
                {
                    "name": "F#3",
                    "midi": 54,
                    "time": 213.4999999999999,
                    "velocity": 0.2992125984251969,
                    "duration": 0.5
                },
                {
                    "name": "F#3",
                    "midi": 54,
                    "time": 213.9999999999999,
                    "velocity": 0.2992125984251969,
                    "duration": 0.5
                },
                {
                    "name": "A#3",
                    "midi": 58,
                    "time": 213.9999999999999,
                    "velocity": 0.2992125984251969,
                    "duration": 0.5
                },
                {
                    "name": "D#4",
                    "midi": 63,
                    "time": 213.9999999999999,
                    "velocity": 0.3543307086614173,
                    "duration": 0.5
                },
                {
                    "name": "A#2",
                    "midi": 46,
                    "time": 214.4999999999999,
                    "velocity": 0.3937007874015748,
                    "duration": 0.5
                },
                {
                    "name": "D4",
                    "midi": 62,
                    "time": 214.9999999999999,
                    "velocity": 0.3464566929133858,
                    "duration": 0.5
                },
                {
                    "name": "A#3",
                    "midi": 58,
                    "time": 214.9999999999999,
                    "velocity": 0.29133858267716534,
                    "duration": 0.5
                },
                {
                    "name": "G#3",
                    "midi": 56,
                    "time": 214.9999999999999,
                    "velocity": 0.29133858267716534,
                    "duration": 0.5
                },
                {
                    "name": "G#3",
                    "midi": 56,
                    "time": 215.4999999999999,
                    "velocity": 0.29133858267716534,
                    "duration": 0.5
                },
                {
                    "name": "A#3",
                    "midi": 58,
                    "time": 215.4999999999999,
                    "velocity": 0.29133858267716534,
                    "duration": 0.5
                },
                {
                    "name": "F4",
                    "midi": 65,
                    "time": 215.4999999999999,
                    "velocity": 0.3464566929133858,
                    "duration": 0.5
                },
                {
                    "name": "D#3",
                    "midi": 51,
                    "time": 215.9999999999999,
                    "velocity": 0.4330708661417323,
                    "duration": 0.4999999999999716
                },
                {
                    "name": "D#4",
                    "midi": 63,
                    "time": 216.49999999999986,
                    "velocity": 0.30708661417322836,
                    "duration": 0.5
                },
                {
                    "name": "A#3",
                    "midi": 58,
                    "time": 216.49999999999986,
                    "velocity": 0.25984251968503935,
                    "duration": 0.5
                },
                {
                    "name": "F#3",
                    "midi": 54,
                    "time": 216.49999999999986,
                    "velocity": 0.2283464566929134,
                    "duration": 0.5
                },
                {
                    "name": "C#3",
                    "midi": 49,
                    "time": 216.99999999999986,
                    "velocity": 0.18110236220472442,
                    "duration": 0.5
                },
                {
                    "name": "F#3",
                    "midi": 54,
                    "time": 216.99999999999986,
                    "velocity": 0.2204724409448819,
                    "duration": 0.5
                },
                {
                    "name": "A#3",
                    "midi": 58,
                    "time": 216.99999999999986,
                    "velocity": 0.23622047244094488,
                    "duration": 0.5
                },
                {
                    "name": "E4",
                    "midi": 64,
                    "time": 216.99999999999986,
                    "velocity": 0.2755905511811024,
                    "duration": 0.5
                },
                {
                    "name": "B2",
                    "midi": 47,
                    "time": 217.49999999999986,
                    "velocity": 0.3937007874015748,
                    "duration": 0.5
                },
                {
                    "name": "D#4",
                    "midi": 63,
                    "time": 217.99999999999986,
                    "velocity": 0.33858267716535434,
                    "duration": 0.5
                },
                {
                    "name": "B3",
                    "midi": 59,
                    "time": 217.99999999999986,
                    "velocity": 0.28346456692913385,
                    "duration": 0.5
                },
                {
                    "name": "A3",
                    "midi": 57,
                    "time": 217.99999999999986,
                    "velocity": 0.28346456692913385,
                    "duration": 0.5
                },
                {
                    "name": "B3",
                    "midi": 59,
                    "time": 218.49999999999986,
                    "velocity": 0.28346456692913385,
                    "duration": 0.5
                },
                {
                    "name": "D#4",
                    "midi": 63,
                    "time": 218.49999999999986,
                    "velocity": 0.28346456692913385,
                    "duration": 0.5
                },
                {
                    "name": "A4",
                    "midi": 69,
                    "time": 218.49999999999986,
                    "velocity": 0.33858267716535434,
                    "duration": 0.5
                },
                {
                    "name": "E2",
                    "midi": 40,
                    "time": 218.99999999999986,
                    "velocity": 0.41732283464566927,
                    "duration": 0.5
                },
                {
                    "name": "C#4",
                    "midi": 61,
                    "time": 219.49999999999986,
                    "velocity": 0.29133858267716534,
                    "duration": 0.5
                },
                {
                    "name": "B3",
                    "midi": 59,
                    "time": 219.49999999999986,
                    "velocity": 0.29133858267716534,
                    "duration": 0.5
                },
                {
                    "name": "E4",
                    "midi": 64,
                    "time": 219.49999999999986,
                    "velocity": 0.29133858267716534,
                    "duration": 0.5
                },
                {
                    "name": "G#4",
                    "midi": 68,
                    "time": 219.49999999999986,
                    "velocity": 0.3464566929133858,
                    "duration": 0.5
                },
                {
                    "name": "F#2",
                    "midi": 42,
                    "time": 220.49999999999986,
                    "velocity": 0.3937007874015748,
                    "duration": 0.5
                },
                {
                    "name": "E4",
                    "midi": 64,
                    "time": 220.99999999999986,
                    "velocity": 0.33858267716535434,
                    "duration": 0.5
                },
                {
                    "name": "A#3",
                    "midi": 58,
                    "time": 220.99999999999986,
                    "velocity": 0.28346456692913385,
                    "duration": 0.5
                },
                {
                    "name": "F#3",
                    "midi": 54,
                    "time": 220.99999999999986,
                    "velocity": 0.28346456692913385,
                    "duration": 0.5
                },
                {
                    "name": "F#3",
                    "midi": 54,
                    "time": 221.49999999999986,
                    "velocity": 0.2992125984251969,
                    "duration": 0.5
                },
                {
                    "name": "A#3",
                    "midi": 58,
                    "time": 221.49999999999986,
                    "velocity": 0.2992125984251969,
                    "duration": 0.5
                },
                {
                    "name": "E4",
                    "midi": 64,
                    "time": 221.49999999999986,
                    "velocity": 0.3543307086614173,
                    "duration": 0.5
                },
                {
                    "name": "G2",
                    "midi": 43,
                    "time": 221.99999999999986,
                    "velocity": 0.4251968503937008,
                    "duration": 0.5
                },
                {
                    "name": "D#4",
                    "midi": 63,
                    "time": 222.49999999999986,
                    "velocity": 0.3700787401574803,
                    "duration": 0.5
                },
                {
                    "name": "A#3",
                    "midi": 58,
                    "time": 222.49999999999986,
                    "velocity": 0.30708661417322836,
                    "duration": 0.5
                },
                {
                    "name": "D#3",
                    "midi": 51,
                    "time": 222.49999999999986,
                    "velocity": 0.30708661417322836,
                    "duration": 0.5
                },
                {
                    "name": "D#3",
                    "midi": 51,
                    "time": 222.99999999999986,
                    "velocity": 0.29133858267716534,
                    "duration": 0.5
                },
                {
                    "name": "A#3",
                    "midi": 58,
                    "time": 222.99999999999986,
                    "velocity": 0.29133858267716534,
                    "duration": 0.5
                },
                {
                    "name": "D#4",
                    "midi": 63,
                    "time": 222.99999999999986,
                    "velocity": 0.3464566929133858,
                    "duration": 0.5
                },
                {
                    "name": "G#2",
                    "midi": 44,
                    "time": 223.49999999999986,
                    "velocity": 0.3937007874015748,
                    "duration": 0.5
                },
                {
                    "name": "B3",
                    "midi": 59,
                    "time": 223.99999999999986,
                    "velocity": 0.33858267716535434,
                    "duration": 0.5
                },
                {
                    "name": "G#3",
                    "midi": 56,
                    "time": 223.99999999999986,
                    "velocity": 0.28346456692913385,
                    "duration": 0.5
                },
                {
                    "name": "D#3",
                    "midi": 51,
                    "time": 223.99999999999986,
                    "velocity": 0.28346456692913385,
                    "duration": 0.5
                },
                {
                    "name": "D#3",
                    "midi": 51,
                    "time": 224.49999999999986,
                    "velocity": 0.28346456692913385,
                    "duration": 0.5
                },
                {
                    "name": "G#3",
                    "midi": 56,
                    "time": 224.49999999999986,
                    "velocity": 0.28346456692913385,
                    "duration": 0.5
                },
                {
                    "name": "B3",
                    "midi": 59,
                    "time": 224.49999999999986,
                    "velocity": 0.33858267716535434,
                    "duration": 0.5
                },
                {
                    "name": "C#2",
                    "midi": 37,
                    "time": 224.99999999999986,
                    "velocity": 0.41732283464566927,
                    "duration": 0.5
                },
                {
                    "name": "E4",
                    "midi": 64,
                    "time": 225.49999999999986,
                    "velocity": 0.3543307086614173,
                    "duration": 0.5
                },
                {
                    "name": "C#4",
                    "midi": 61,
                    "time": 225.49999999999986,
                    "velocity": 0.2992125984251969,
                    "duration": 0.5
                },
                {
                    "name": "G#3",
                    "midi": 56,
                    "time": 225.49999999999986,
                    "velocity": 0.2992125984251969,
                    "duration": 0.5
                },
                {
                    "name": "D3",
                    "midi": 50,
                    "time": 226.49999999999986,
                    "velocity": 0.3937007874015748,
                    "duration": 0.5
                },
                {
                    "name": "F4",
                    "midi": 65,
                    "time": 226.99999999999986,
                    "velocity": 0.3464566929133858,
                    "duration": 0.5
                },
                {
                    "name": "B3",
                    "midi": 59,
                    "time": 226.99999999999986,
                    "velocity": 0.29133858267716534,
                    "duration": 0.5
                },
                {
                    "name": "G#3",
                    "midi": 56,
                    "time": 226.99999999999986,
                    "velocity": 0.29133858267716534,
                    "duration": 0.5
                },
                {
                    "name": "G#3",
                    "midi": 56,
                    "time": 227.49999999999986,
                    "velocity": 0.29133858267716534,
                    "duration": 0.5
                },
                {
                    "name": "A#3",
                    "midi": 58,
                    "time": 227.49999999999986,
                    "velocity": 0.29133858267716534,
                    "duration": 0.5
                },
                {
                    "name": "F4",
                    "midi": 65,
                    "time": 227.49999999999986,
                    "velocity": 0.3464566929133858,
                    "duration": 0.5
                },
                {
                    "name": "D#3",
                    "midi": 51,
                    "time": 227.99999999999986,
                    "velocity": 0.4330708661417323,
                    "duration": 0.5
                },
                {
                    "name": "D#4",
                    "midi": 63,
                    "time": 228.49999999999986,
                    "velocity": 0.3700787401574803,
                    "duration": 0.5
                },
                {
                    "name": "A#3",
                    "midi": 58,
                    "time": 228.49999999999986,
                    "velocity": 0.30708661417322836,
                    "duration": 0.5
                },
                {
                    "name": "G3",
                    "midi": 55,
                    "time": 228.49999999999986,
                    "velocity": 0.30708661417322836,
                    "duration": 0.5
                },
                {
                    "name": "C#3",
                    "midi": 49,
                    "time": 228.99999999999986,
                    "velocity": 0.2677165354330709,
                    "duration": 0.5
                },
                {
                    "name": "F#3",
                    "midi": 54,
                    "time": 228.99999999999986,
                    "velocity": 0.2755905511811024,
                    "duration": 0.5
                },
                {
                    "name": "A#3",
                    "midi": 58,
                    "time": 228.99999999999986,
                    "velocity": 0.30708661417322836,
                    "duration": 0.5
                },
                {
                    "name": "E4",
                    "midi": 64,
                    "time": 228.99999999999986,
                    "velocity": 0.3700787401574803,
                    "duration": 0.5
                },
                {
                    "name": "B2",
                    "midi": 47,
                    "time": 229.49999999999986,
                    "velocity": 0.3937007874015748,
                    "duration": 0.5
                },
                {
                    "name": "D#4",
                    "midi": 63,
                    "time": 229.99999999999986,
                    "velocity": 0.33858267716535434,
                    "duration": 0.5
                },
                {
                    "name": "B3",
                    "midi": 59,
                    "time": 229.99999999999986,
                    "velocity": 0.28346456692913385,
                    "duration": 0.5
                },
                {
                    "name": "F#3",
                    "midi": 54,
                    "time": 229.99999999999986,
                    "velocity": 0.28346456692913385,
                    "duration": 0.5
                },
                {
                    "name": "E2",
                    "midi": 40,
                    "time": 230.99999999999986,
                    "velocity": 0.4015748031496063,
                    "duration": 0.5
                },
                {
                    "name": "C#4",
                    "midi": 61,
                    "time": 231.49999999999986,
                    "velocity": 0.29133858267716534,
                    "duration": 0.5
                },
                {
                    "name": "B3",
                    "midi": 59,
                    "time": 231.49999999999986,
                    "velocity": 0.29133858267716534,
                    "duration": 0.5
                },
                {
                    "name": "E4",
                    "midi": 64,
                    "time": 231.49999999999986,
                    "velocity": 0.29133858267716534,
                    "duration": 0.5
                },
                {
                    "name": "G#4",
                    "midi": 68,
                    "time": 231.49999999999986,
                    "velocity": 0.3464566929133858,
                    "duration": 0.5
                },
                {
                    "name": "F#2",
                    "midi": 42,
                    "time": 232.49999999999986,
                    "velocity": 0.3937007874015748,
                    "duration": 0.5
                },
                {
                    "name": "E4",
                    "midi": 64,
                    "time": 232.99999999999986,
                    "velocity": 0.33858267716535434,
                    "duration": 0.5
                },
                {
                    "name": "A#3",
                    "midi": 58,
                    "time": 232.99999999999986,
                    "velocity": 0.28346456692913385,
                    "duration": 0.5
                },
                {
                    "name": "F#3",
                    "midi": 54,
                    "time": 232.99999999999986,
                    "velocity": 0.28346456692913385,
                    "duration": 0.5
                },
                {
                    "name": "F#3",
                    "midi": 54,
                    "time": 233.49999999999986,
                    "velocity": 0.2992125984251969,
                    "duration": 0.5
                },
                {
                    "name": "A#3",
                    "midi": 58,
                    "time": 233.49999999999986,
                    "velocity": 0.2992125984251969,
                    "duration": 0.5
                },
                {
                    "name": "E4",
                    "midi": 64,
                    "time": 233.49999999999986,
                    "velocity": 0.3543307086614173,
                    "duration": 0.5
                },
                {
                    "name": "G2",
                    "midi": 43,
                    "time": 233.99999999999986,
                    "velocity": 0.4251968503937008,
                    "duration": 0.5
                },
                {
                    "name": "D#4",
                    "midi": 63,
                    "time": 234.49999999999986,
                    "velocity": 0.3700787401574803,
                    "duration": 0.5
                },
                {
                    "name": "A#3",
                    "midi": 58,
                    "time": 234.49999999999986,
                    "velocity": 0.30708661417322836,
                    "duration": 0.5
                },
                {
                    "name": "D#3",
                    "midi": 51,
                    "time": 234.49999999999986,
                    "velocity": 0.30708661417322836,
                    "duration": 0.5
                },
                {
                    "name": "D#3",
                    "midi": 51,
                    "time": 234.99999999999986,
                    "velocity": 0.29133858267716534,
                    "duration": 0.5
                },
                {
                    "name": "A#3",
                    "midi": 58,
                    "time": 234.99999999999986,
                    "velocity": 0.29133858267716534,
                    "duration": 0.5
                },
                {
                    "name": "D#4",
                    "midi": 63,
                    "time": 234.99999999999986,
                    "velocity": 0.3464566929133858,
                    "duration": 0.5
                },
                {
                    "name": "G#2",
                    "midi": 44,
                    "time": 235.49999999999986,
                    "velocity": 0.4330708661417323,
                    "duration": 0.5
                },
                {
                    "name": "F3",
                    "midi": 53,
                    "time": 235.99999999999986,
                    "velocity": 0.28346456692913385,
                    "duration": 0.5
                },
                {
                    "name": "D#4",
                    "midi": 63,
                    "time": 235.99999999999986,
                    "velocity": 0.33858267716535434,
                    "duration": 0.5
                },
                {
                    "name": "B3",
                    "midi": 59,
                    "time": 235.99999999999986,
                    "velocity": 0.28346456692913385,
                    "duration": 0.5
                },
                {
                    "name": "G#3",
                    "midi": 56,
                    "time": 235.99999999999986,
                    "velocity": 0.28346456692913385,
                    "duration": 0.5
                },
                {
                    "name": "A#2",
                    "midi": 46,
                    "time": 236.99999999999986,
                    "velocity": 0.41732283464566927,
                    "duration": 0.5
                },
                {
                    "name": "D#4",
                    "midi": 63,
                    "time": 237.49999999999986,
                    "velocity": 0.3543307086614173,
                    "duration": 0.5
                },
                {
                    "name": "A#3",
                    "midi": 58,
                    "time": 237.49999999999986,
                    "velocity": 0.2992125984251969,
                    "duration": 0.5
                },
                {
                    "name": "F#3",
                    "midi": 54,
                    "time": 237.49999999999986,
                    "velocity": 0.2992125984251969,
                    "duration": 0.5
                },
                {
                    "name": "F#3",
                    "midi": 54,
                    "time": 237.99999999999986,
                    "velocity": 0.2992125984251969,
                    "duration": 0.5
                },
                {
                    "name": "A#3",
                    "midi": 58,
                    "time": 237.99999999999986,
                    "velocity": 0.2992125984251969,
                    "duration": 0.5
                },
                {
                    "name": "D#4",
                    "midi": 63,
                    "time": 237.99999999999986,
                    "velocity": 0.3543307086614173,
                    "duration": 0.5
                },
                {
                    "name": "A#2",
                    "midi": 46,
                    "time": 238.49999999999986,
                    "velocity": 0.3937007874015748,
                    "duration": 0.5
                },
                {
                    "name": "D4",
                    "midi": 62,
                    "time": 238.99999999999986,
                    "velocity": 0.3464566929133858,
                    "duration": 0.5
                },
                {
                    "name": "A#3",
                    "midi": 58,
                    "time": 238.99999999999986,
                    "velocity": 0.29133858267716534,
                    "duration": 0.5
                },
                {
                    "name": "G#3",
                    "midi": 56,
                    "time": 238.99999999999986,
                    "velocity": 0.29133858267716534,
                    "duration": 0.5
                },
                {
                    "name": "G#3",
                    "midi": 56,
                    "time": 239.49999999999986,
                    "velocity": 0.29133858267716534,
                    "duration": 0.5
                },
                {
                    "name": "A#3",
                    "midi": 58,
                    "time": 239.49999999999986,
                    "velocity": 0.29133858267716534,
                    "duration": 0.5
                },
                {
                    "name": "F4",
                    "midi": 65,
                    "time": 239.49999999999986,
                    "velocity": 0.3464566929133858,
                    "duration": 0.5
                },
                {
                    "name": "D#3",
                    "midi": 51,
                    "time": 239.99999999999986,
                    "velocity": 0.4330708661417323,
                    "duration": 0.5
                },
                {
                    "name": "D#4",
                    "midi": 63,
                    "time": 240.49999999999986,
                    "velocity": 0.30708661417322836,
                    "duration": 0.5
                },
                {
                    "name": "A#3",
                    "midi": 58,
                    "time": 240.49999999999986,
                    "velocity": 0.25984251968503935,
                    "duration": 0.5
                },
                {
                    "name": "F#3",
                    "midi": 54,
                    "time": 240.49999999999986,
                    "velocity": 0.2283464566929134,
                    "duration": 0.5
                },
                {
                    "name": "F#3",
                    "midi": 54,
                    "time": 240.99999999999986,
                    "velocity": 0.28346456692913385,
                    "duration": 0.5
                },
                {
                    "name": "A#3",
                    "midi": 58,
                    "time": 240.99999999999986,
                    "velocity": 0.33070866141732286,
                    "duration": 0.5
                },
                {
                    "name": "F#4",
                    "midi": 66,
                    "time": 240.99999999999986,
                    "velocity": 0.3937007874015748,
                    "duration": 0.5
                },
                {
                    "name": "A#4",
                    "midi": 70,
                    "time": 241.49999999999986,
                    "velocity": 0.4251968503937008,
                    "duration": 0.125
                },
                {
                    "name": "E5",
                    "midi": 76,
                    "time": 241.49999999999986,
                    "velocity": 0.5039370078740157,
                    "duration": 0.125
                },
                {
                    "name": "F#4",
                    "midi": 66,
                    "time": 241.87499999999986,
                    "velocity": 0.47244094488188976,
                    "duration": 0.125
                },
                {
                    "name": "F#3",
                    "midi": 54,
                    "time": 241.99999999999986,
                    "velocity": 0.4566929133858268,
                    "duration": 0.5
                },
                {
                    "name": "F#2",
                    "midi": 42,
                    "time": 242.49999999999986,
                    "velocity": 0.47244094488188976,
                    "duration": 0.5
                },
                {
                    "name": "B2",
                    "midi": 47,
                    "time": 242.99999999999986,
                    "velocity": 0.5354330708661418,
                    "duration": 0.25
                },
                {
                    "name": "F#3",
                    "midi": 54,
                    "time": 243.37499999999986,
                    "velocity": 0.4645669291338583,
                    "duration": 0.125
                },
                {
                    "name": "D#4",
                    "midi": 63,
                    "time": 243.49999999999986,
                    "velocity": 0.5196850393700787,
                    "duration": 0.5
                },
                {
                    "name": "B3",
                    "midi": 59,
                    "time": 243.49999999999986,
                    "velocity": 0.4409448818897638,
                    "duration": 0.5
                },
                {
                    "name": "B4",
                    "midi": 71,
                    "time": 243.99999999999986,
                    "velocity": 0.4015748031496063,
                    "duration": 0.5
                },
                {
                    "name": "D#5",
                    "midi": 75,
                    "time": 243.99999999999986,
                    "velocity": 0.47244094488188976,
                    "duration": 0.5
                },
                {
                    "name": "A#4",
                    "midi": 70,
                    "time": 244.49999999999986,
                    "velocity": 0.4251968503937008,
                    "duration": 0.125
                },
                {
                    "name": "E5",
                    "midi": 76,
                    "time": 244.49999999999986,
                    "velocity": 0.5039370078740157,
                    "duration": 0.125
                },
                {
                    "name": "F#4",
                    "midi": 66,
                    "time": 244.87499999999986,
                    "velocity": 0.47244094488188976,
                    "duration": 0.125
                },
                {
                    "name": "F#3",
                    "midi": 54,
                    "time": 244.99999999999986,
                    "velocity": 0.4566929133858268,
                    "duration": 0.5
                },
                {
                    "name": "F#2",
                    "midi": 42,
                    "time": 245.49999999999986,
                    "velocity": 0.47244094488188976,
                    "duration": 0.5
                },
                {
                    "name": "B2",
                    "midi": 47,
                    "time": 245.99999999999986,
                    "velocity": 0.5354330708661418,
                    "duration": 0.25
                },
                {
                    "name": "F#3",
                    "midi": 54,
                    "time": 246.37499999999986,
                    "velocity": 0.4645669291338583,
                    "duration": 0.125
                },
                {
                    "name": "D#4",
                    "midi": 63,
                    "time": 246.49999999999986,
                    "velocity": 0.5196850393700787,
                    "duration": 0.5
                },
                {
                    "name": "B3",
                    "midi": 59,
                    "time": 246.49999999999986,
                    "velocity": 0.4409448818897638,
                    "duration": 0.5
                },
                {
                    "name": "E3",
                    "midi": 52,
                    "time": 247.49999999999986,
                    "velocity": 0.5354330708661418,
                    "duration": 0.125
                },
                {
                    "name": "C#5",
                    "midi": 73,
                    "time": 247.87499999999986,
                    "velocity": 0.4881889763779528,
                    "duration": 0.125
                },
                {
                    "name": "E4",
                    "midi": 64,
                    "time": 247.99999999999986,
                    "velocity": 0.4409448818897638,
                    "duration": 0.375
                },
                {
                    "name": "G#4",
                    "midi": 68,
                    "time": 247.99999999999986,
                    "velocity": 0.5196850393700787,
                    "duration": 0.375
                },
                {
                    "name": "C#5",
                    "midi": 73,
                    "time": 248.37499999999986,
                    "velocity": 0.4881889763779528,
                    "duration": 0.125
                },
                {
                    "name": "E4",
                    "midi": 64,
                    "time": 248.49999999999986,
                    "velocity": 0.4330708661417323,
                    "duration": 0.5
                },
                {
                    "name": "G#4",
                    "midi": 68,
                    "time": 248.49999999999986,
                    "velocity": 0.5118110236220472,
                    "duration": 0.5
                },
                {
                    "name": "F#2",
                    "midi": 42,
                    "time": 248.99999999999986,
                    "velocity": 0.5354330708661418,
                    "duration": 0.125
                },
                {
                    "name": "B4",
                    "midi": 71,
                    "time": 249.37499999999986,
                    "velocity": 0.4881889763779528,
                    "duration": 0.125
                },
                {
                    "name": "D#4",
                    "midi": 63,
                    "time": 249.49999999999986,
                    "velocity": 0.4409448818897638,
                    "duration": 0.375
                },
                {
                    "name": "F#4",
                    "midi": 66,
                    "time": 249.49999999999986,
                    "velocity": 0.5196850393700787,
                    "duration": 0.375
                },
                {
                    "name": "B4",
                    "midi": 71,
                    "time": 249.87499999999986,
                    "velocity": 0.4881889763779528,
                    "duration": 0.125
                },
                {
                    "name": "D#4",
                    "midi": 63,
                    "time": 249.99999999999986,
                    "velocity": 0.4330708661417323,
                    "duration": 0.5
                },
                {
                    "name": "F#4",
                    "midi": 66,
                    "time": 249.99999999999986,
                    "velocity": 0.5118110236220472,
                    "duration": 0.5
                },
                {
                    "name": "F#2",
                    "midi": 42,
                    "time": 250.49999999999986,
                    "velocity": 0.5354330708661418,
                    "duration": 0.125
                },
                {
                    "name": "A#4",
                    "midi": 70,
                    "time": 250.87499999999986,
                    "velocity": 0.4881889763779528,
                    "duration": 0.125
                },
                {
                    "name": "C#4",
                    "midi": 61,
                    "time": 250.99999999999986,
                    "velocity": 0.4409448818897638,
                    "duration": 0.375
                },
                {
                    "name": "E4",
                    "midi": 64,
                    "time": 250.99999999999986,
                    "velocity": 0.5196850393700787,
                    "duration": 0.375
                },
                {
                    "name": "A#4",
                    "midi": 70,
                    "time": 251.37499999999986,
                    "velocity": 0.4881889763779528,
                    "duration": 0.125
                },
                {
                    "name": "C#4",
                    "midi": 61,
                    "time": 251.49999999999986,
                    "velocity": 0.4330708661417323,
                    "duration": 0.5
                },
                {
                    "name": "E4",
                    "midi": 64,
                    "time": 251.49999999999986,
                    "velocity": 0.5118110236220472,
                    "duration": 0.5
                },
                {
                    "name": "B2",
                    "midi": 47,
                    "time": 251.99999999999986,
                    "velocity": 0.48031496062992124,
                    "duration": 0.25
                },
                {
                    "name": "B3",
                    "midi": 59,
                    "time": 252.49999999999986,
                    "velocity": 0.36220472440944884,
                    "duration": 1
                },
                {
                    "name": "F4",
                    "midi": 65,
                    "time": 252.49999999999986,
                    "velocity": 0.4330708661417323,
                    "duration": 0.5
                },
                {
                    "name": "F#4",
                    "midi": 66,
                    "time": 252.99999999999986,
                    "velocity": 0.3937007874015748,
                    "duration": 0.5
                },
                {
                    "name": "A#4",
                    "midi": 70,
                    "time": 253.49999999999986,
                    "velocity": 0.4251968503937008,
                    "duration": 0.125
                },
                {
                    "name": "E5",
                    "midi": 76,
                    "time": 253.49999999999986,
                    "velocity": 0.5039370078740157,
                    "duration": 0.125
                },
                {
                    "name": "F#4",
                    "midi": 66,
                    "time": 253.87499999999986,
                    "velocity": 0.47244094488188976,
                    "duration": 0.125
                },
                {
                    "name": "F#3",
                    "midi": 54,
                    "time": 253.99999999999986,
                    "velocity": 0.4566929133858268,
                    "duration": 0.5
                },
                {
                    "name": "F#2",
                    "midi": 42,
                    "time": 254.49999999999986,
                    "velocity": 0.47244094488188976,
                    "duration": 0.5
                },
                {
                    "name": "B2",
                    "midi": 47,
                    "time": 254.99999999999986,
                    "velocity": 0.5354330708661418,
                    "duration": 0.25
                },
                {
                    "name": "F#3",
                    "midi": 54,
                    "time": 255.37499999999986,
                    "velocity": 0.4645669291338583,
                    "duration": 0.125
                },
                {
                    "name": "D#4",
                    "midi": 63,
                    "time": 255.49999999999986,
                    "velocity": 0.5196850393700787,
                    "duration": 0.5
                },
                {
                    "name": "B3",
                    "midi": 59,
                    "time": 255.49999999999986,
                    "velocity": 0.4409448818897638,
                    "duration": 0.5
                },
                {
                    "name": "B4",
                    "midi": 71,
                    "time": 255.99999999999986,
                    "velocity": 0.4015748031496063,
                    "duration": 0.5000000000000284
                },
                {
                    "name": "D#5",
                    "midi": 75,
                    "time": 255.99999999999986,
                    "velocity": 0.47244094488188976,
                    "duration": 0.5000000000000284
                },
                {
                    "name": "A#4",
                    "midi": 70,
                    "time": 256.4999999999999,
                    "velocity": 0.4251968503937008,
                    "duration": 0.125
                },
                {
                    "name": "E5",
                    "midi": 76,
                    "time": 256.4999999999999,
                    "velocity": 0.5039370078740157,
                    "duration": 0.125
                },
                {
                    "name": "F#4",
                    "midi": 66,
                    "time": 256.8749999999999,
                    "velocity": 0.47244094488188976,
                    "duration": 0.125
                },
                {
                    "name": "F#3",
                    "midi": 54,
                    "time": 256.9999999999999,
                    "velocity": 0.4566929133858268,
                    "duration": 0.5
                },
                {
                    "name": "F#2",
                    "midi": 42,
                    "time": 257.4999999999999,
                    "velocity": 0.47244094488188976,
                    "duration": 0.5
                },
                {
                    "name": "B2",
                    "midi": 47,
                    "time": 257.9999999999999,
                    "velocity": 0.5354330708661418,
                    "duration": 0.25
                },
                {
                    "name": "F#3",
                    "midi": 54,
                    "time": 258.3749999999999,
                    "velocity": 0.4645669291338583,
                    "duration": 0.125
                },
                {
                    "name": "D#4",
                    "midi": 63,
                    "time": 258.4999999999999,
                    "velocity": 0.5196850393700787,
                    "duration": 0.5
                },
                {
                    "name": "B3",
                    "midi": 59,
                    "time": 258.4999999999999,
                    "velocity": 0.4409448818897638,
                    "duration": 0.5
                },
                {
                    "name": "E3",
                    "midi": 52,
                    "time": 259.4999999999999,
                    "velocity": 0.5354330708661418,
                    "duration": 0.125
                },
                {
                    "name": "C#5",
                    "midi": 73,
                    "time": 259.8749999999999,
                    "velocity": 0.4881889763779528,
                    "duration": 0.125
                },
                {
                    "name": "E4",
                    "midi": 64,
                    "time": 259.9999999999999,
                    "velocity": 0.4409448818897638,
                    "duration": 0.375
                },
                {
                    "name": "G#4",
                    "midi": 68,
                    "time": 259.9999999999999,
                    "velocity": 0.5196850393700787,
                    "duration": 0.375
                },
                {
                    "name": "C#5",
                    "midi": 73,
                    "time": 260.3749999999999,
                    "velocity": 0.4881889763779528,
                    "duration": 0.125
                },
                {
                    "name": "E4",
                    "midi": 64,
                    "time": 260.4999999999999,
                    "velocity": 0.4330708661417323,
                    "duration": 0.5
                },
                {
                    "name": "G#4",
                    "midi": 68,
                    "time": 260.4999999999999,
                    "velocity": 0.5118110236220472,
                    "duration": 0.5
                },
                {
                    "name": "F#2",
                    "midi": 42,
                    "time": 260.9999999999999,
                    "velocity": 0.5354330708661418,
                    "duration": 0.125
                },
                {
                    "name": "B4",
                    "midi": 71,
                    "time": 261.3749999999999,
                    "velocity": 0.4881889763779528,
                    "duration": 0.125
                },
                {
                    "name": "D#4",
                    "midi": 63,
                    "time": 261.4999999999999,
                    "velocity": 0.4409448818897638,
                    "duration": 0.375
                },
                {
                    "name": "F#4",
                    "midi": 66,
                    "time": 261.4999999999999,
                    "velocity": 0.5196850393700787,
                    "duration": 0.375
                },
                {
                    "name": "B4",
                    "midi": 71,
                    "time": 261.8749999999999,
                    "velocity": 0.4881889763779528,
                    "duration": 0.125
                },
                {
                    "name": "D#4",
                    "midi": 63,
                    "time": 261.9999999999999,
                    "velocity": 0.4330708661417323,
                    "duration": 0.5
                },
                {
                    "name": "F#4",
                    "midi": 66,
                    "time": 261.9999999999999,
                    "velocity": 0.5118110236220472,
                    "duration": 0.5
                },
                {
                    "name": "F#2",
                    "midi": 42,
                    "time": 262.4999999999999,
                    "velocity": 0.5354330708661418,
                    "duration": 0.125
                },
                {
                    "name": "A#4",
                    "midi": 70,
                    "time": 262.8749999999999,
                    "velocity": 0.4881889763779528,
                    "duration": 0.125
                },
                {
                    "name": "C#4",
                    "midi": 61,
                    "time": 262.9999999999999,
                    "velocity": 0.4409448818897638,
                    "duration": 0.375
                },
                {
                    "name": "E4",
                    "midi": 64,
                    "time": 262.9999999999999,
                    "velocity": 0.5196850393700787,
                    "duration": 0.375
                },
                {
                    "name": "A#4",
                    "midi": 70,
                    "time": 263.3749999999999,
                    "velocity": 0.4881889763779528,
                    "duration": 0.125
                },
                {
                    "name": "C#4",
                    "midi": 61,
                    "time": 263.4999999999999,
                    "velocity": 0.4330708661417323,
                    "duration": 0.5
                },
                {
                    "name": "E4",
                    "midi": 64,
                    "time": 263.4999999999999,
                    "velocity": 0.5118110236220472,
                    "duration": 0.5
                },
                {
                    "name": "G#3",
                    "midi": 56,
                    "time": 264.3749999999999,
                    "velocity": 0.3228346456692913,
                    "duration": 0.125
                },
                {
                    "name": "F#3",
                    "midi": 54,
                    "time": 264.4999999999999,
                    "velocity": 0.3700787401574803,
                    "duration": 0.375
                },
                {
                    "name": "G#3",
                    "midi": 56,
                    "time": 264.8749999999999,
                    "velocity": 0.3228346456692913,
                    "duration": 0.125
                },
                {
                    "name": "F#3",
                    "midi": 54,
                    "time": 264.9999999999999,
                    "velocity": 0.36220472440944884,
                    "duration": 0.5
                },
                {
                    "name": "G#3",
                    "midi": 56,
                    "time": 265.4999999999999,
                    "velocity": 0.3464566929133858,
                    "duration": 0.375
                },
                {
                    "name": "F#3",
                    "midi": 54,
                    "time": 265.8749999999999,
                    "velocity": 0.29133858267716534,
                    "duration": 0.125
                },
                {
                    "name": "E3",
                    "midi": 52,
                    "time": 265.9999999999999,
                    "velocity": 0.3464566929133858,
                    "duration": 0.5
                },
                {
                    "name": "F#2",
                    "midi": 42,
                    "time": 266.4999999999999,
                    "velocity": 0.2992125984251969,
                    "duration": 0.5
                },
                {
                    "name": "B2",
                    "midi": 47,
                    "time": 266.9999999999999,
                    "velocity": 0.3464566929133858,
                    "duration": 0.375
                },
                {
                    "name": "C#3",
                    "midi": 49,
                    "time": 267.3749999999999,
                    "velocity": 0.3228346456692913,
                    "duration": 0.125
                },
                {
                    "name": "D#3",
                    "midi": 51,
                    "time": 267.4999999999999,
                    "velocity": 0.3543307086614173,
                    "duration": 0.5
                },
                {
                    "name": "F#3",
                    "midi": 54,
                    "time": 267.9999999999999,
                    "velocity": 0.3464566929133858,
                    "duration": 0.5
                },
                {
                    "name": "G#3",
                    "midi": 56,
                    "time": 268.4999999999999,
                    "velocity": 0.36220472440944884,
                    "duration": 0.375
                },
                {
                    "name": "F#3",
                    "midi": 54,
                    "time": 268.8749999999999,
                    "velocity": 0.33070866141732286,
                    "duration": 0.125
                },
                {
                    "name": "E3",
                    "midi": 52,
                    "time": 268.9999999999999,
                    "velocity": 0.3543307086614173,
                    "duration": 0.5
                },
                {
                    "name": "F#2",
                    "midi": 42,
                    "time": 269.4999999999999,
                    "velocity": 0.30708661417322836,
                    "duration": 0.5
                },
                {
                    "name": "B2",
                    "midi": 47,
                    "time": 269.9999999999999,
                    "velocity": 0.3464566929133858,
                    "duration": 0.375
                },
                {
                    "name": "C#3",
                    "midi": 49,
                    "time": 270.3749999999999,
                    "velocity": 0.3228346456692913,
                    "duration": 0.125
                },
                {
                    "name": "D#3",
                    "midi": 51,
                    "time": 270.4999999999999,
                    "velocity": 0.3543307086614173,
                    "duration": 0.5
                },
                {
                    "name": "F#3",
                    "midi": 54,
                    "time": 270.9999999999999,
                    "velocity": 0.3464566929133858,
                    "duration": 0.5
                },
                {
                    "name": "E4",
                    "midi": 64,
                    "time": 271.4999999999999,
                    "velocity": 0.3858267716535433,
                    "duration": 1.5
                },
                {
                    "name": "A#3",
                    "midi": 58,
                    "time": 271.8749999999999,
                    "velocity": 0.3228346456692913,
                    "duration": 0.125
                },
                {
                    "name": "G#3",
                    "midi": 56,
                    "time": 271.9999999999999,
                    "velocity": 0.3464566929133858,
                    "duration": 0.375
                },
                {
                    "name": "A#3",
                    "midi": 58,
                    "time": 272.3749999999999,
                    "velocity": 0.3228346456692913,
                    "duration": 0.125
                },
                {
                    "name": "G#3",
                    "midi": 56,
                    "time": 272.4999999999999,
                    "velocity": 0.3543307086614173,
                    "duration": 0.5
                },
                {
                    "name": "D#4",
                    "midi": 63,
                    "time": 272.9999999999999,
                    "velocity": 0.3858267716535433,
                    "duration": 1.5
                },
                {
                    "name": "G#3",
                    "midi": 56,
                    "time": 273.3749999999999,
                    "velocity": 0.3228346456692913,
                    "duration": 0.125
                },
                {
                    "name": "F#3",
                    "midi": 54,
                    "time": 273.4999999999999,
                    "velocity": 0.3464566929133858,
                    "duration": 0.375
                },
                {
                    "name": "G#3",
                    "midi": 56,
                    "time": 273.8749999999999,
                    "velocity": 0.3228346456692913,
                    "duration": 0.125
                },
                {
                    "name": "F#3",
                    "midi": 54,
                    "time": 273.9999999999999,
                    "velocity": 0.3543307086614173,
                    "duration": 0.5
                },
                {
                    "name": "C#4",
                    "midi": 61,
                    "time": 274.4999999999999,
                    "velocity": 0.3858267716535433,
                    "duration": 1.5
                },
                {
                    "name": "F#3",
                    "midi": 54,
                    "time": 274.8749999999999,
                    "velocity": 0.3228346456692913,
                    "duration": 0.125
                },
                {
                    "name": "E3",
                    "midi": 52,
                    "time": 274.9999999999999,
                    "velocity": 0.3464566929133858,
                    "duration": 0.375
                },
                {
                    "name": "F#3",
                    "midi": 54,
                    "time": 275.3749999999999,
                    "velocity": 0.3228346456692913,
                    "duration": 0.125
                },
                {
                    "name": "E3",
                    "midi": 52,
                    "time": 275.4999999999999,
                    "velocity": 0.3543307086614173,
                    "duration": 0.5
                },
                {
                    "name": "D#3",
                    "midi": 51,
                    "time": 275.9999999999999,
                    "velocity": 0.3464566929133858,
                    "duration": 0.375
                },
                {
                    "name": "E3",
                    "midi": 52,
                    "time": 276.3749999999999,
                    "velocity": 0.3228346456692913,
                    "duration": 0.125
                },
                {
                    "name": "G#3",
                    "midi": 56,
                    "time": 276.4999999999999,
                    "velocity": 0.3543307086614173,
                    "duration": 0.5
                },
                {
                    "name": "F#3",
                    "midi": 54,
                    "time": 276.9999999999999,
                    "velocity": 0.3464566929133858,
                    "duration": 0.5
                },
                {
                    "name": "G#3",
                    "midi": 56,
                    "time": 277.4999999999999,
                    "velocity": 0.36220472440944884,
                    "duration": 0.375
                },
                {
                    "name": "F#3",
                    "midi": 54,
                    "time": 277.8749999999999,
                    "velocity": 0.33070866141732286,
                    "duration": 0.125
                },
                {
                    "name": "E3",
                    "midi": 52,
                    "time": 277.9999999999999,
                    "velocity": 0.3543307086614173,
                    "duration": 0.5
                },
                {
                    "name": "F#2",
                    "midi": 42,
                    "time": 278.4999999999999,
                    "velocity": 0.30708661417322836,
                    "duration": 0.5
                },
                {
                    "name": "B2",
                    "midi": 47,
                    "time": 278.9999999999999,
                    "velocity": 0.3464566929133858,
                    "duration": 0.375
                },
                {
                    "name": "C#3",
                    "midi": 49,
                    "time": 279.3749999999999,
                    "velocity": 0.3228346456692913,
                    "duration": 0.125
                },
                {
                    "name": "D#3",
                    "midi": 51,
                    "time": 279.4999999999999,
                    "velocity": 0.3543307086614173,
                    "duration": 0.5
                },
                {
                    "name": "F#3",
                    "midi": 54,
                    "time": 279.9999999999999,
                    "velocity": 0.3464566929133858,
                    "duration": 0.5
                },
                {
                    "name": "G3",
                    "midi": 55,
                    "time": 280.4999999999999,
                    "velocity": 0.33858267716535434,
                    "duration": 0.375
                },
                {
                    "name": "F#3",
                    "midi": 54,
                    "time": 280.8749999999999,
                    "velocity": 0.30708661417322836,
                    "duration": 0.125
                },
                {
                    "name": "E3",
                    "midi": 52,
                    "time": 280.9999999999999,
                    "velocity": 0.33070866141732286,
                    "duration": 0.5
                },
                {
                    "name": "F#2",
                    "midi": 42,
                    "time": 281.4999999999999,
                    "velocity": 0.28346456692913385,
                    "duration": 0.5
                },
                {
                    "name": "B2",
                    "midi": 47,
                    "time": 281.9999999999999,
                    "velocity": 0.3228346456692913,
                    "duration": 0.375
                },
                {
                    "name": "C#3",
                    "midi": 49,
                    "time": 282.3749999999999,
                    "velocity": 0.2992125984251969,
                    "duration": 0.125
                },
                {
                    "name": "D3",
                    "midi": 50,
                    "time": 282.4999999999999,
                    "velocity": 0.3228346456692913,
                    "duration": 0.5
                },
                {
                    "name": "F#3",
                    "midi": 54,
                    "time": 282.9999999999999,
                    "velocity": 0.31496062992125984,
                    "duration": 0.5
                },
                {
                    "name": "G3",
                    "midi": 55,
                    "time": 283.4999999999999,
                    "velocity": 0.33070866141732286,
                    "duration": 0.25
                },
                {
                    "name": "F#3",
                    "midi": 54,
                    "time": 283.7499999999999,
                    "velocity": 0.2992125984251969,
                    "duration": 0.25
                },
                {
                    "name": "E3",
                    "midi": 52,
                    "time": 283.9999999999999,
                    "velocity": 0.3228346456692913,
                    "duration": 0.5
                },
                {
                    "name": "G2",
                    "midi": 43,
                    "time": 284.4999999999999,
                    "velocity": 0.2755905511811024,
                    "duration": 0.5
                },
                {
                    "name": "G3",
                    "midi": 55,
                    "time": 284.9999999999999,
                    "velocity": 0.3228346456692913,
                    "duration": 0.25
                },
                {
                    "name": "F#3",
                    "midi": 54,
                    "time": 285.2499999999999,
                    "velocity": 0.29133858267716534,
                    "duration": 0.25
                },
                {
                    "name": "E3",
                    "midi": 52,
                    "time": 285.4999999999999,
                    "velocity": 0.31496062992125984,
                    "duration": 0.5
                },
                {
                    "name": "G#2",
                    "midi": 44,
                    "time": 285.9999999999999,
                    "velocity": 0.2677165354330709,
                    "duration": 0.5
                },
                {
                    "name": "G3",
                    "midi": 55,
                    "time": 286.4999999999999,
                    "velocity": 0.31496062992125984,
                    "duration": 0.375
                },
                {
                    "name": "F#3",
                    "midi": 54,
                    "time": 286.8749999999999,
                    "velocity": 0.28346456692913385,
                    "duration": 0.125
                },
                {
                    "name": "E3",
                    "midi": 52,
                    "time": 286.9999999999999,
                    "velocity": 0.30708661417322836,
                    "duration": 0.5
                },
                {
                    "name": "A2",
                    "midi": 45,
                    "time": 287.4999999999999,
                    "velocity": 0.2677165354330709,
                    "duration": 0.5
                },
                {
                    "name": "G3",
                    "midi": 55,
                    "time": 287.9999999999999,
                    "velocity": 0.31496062992125984,
                    "duration": 0.375
                },
                {
                    "name": "F#3",
                    "midi": 54,
                    "time": 288.3749999999999,
                    "velocity": 0.28346456692913385,
                    "duration": 0.125
                },
                {
                    "name": "E3",
                    "midi": 52,
                    "time": 288.4999999999999,
                    "velocity": 0.30708661417322836,
                    "duration": 0.5
                },
                {
                    "name": "A#2",
                    "midi": 46,
                    "time": 288.9999999999999,
                    "velocity": 0.25984251968503935,
                    "duration": 0.5
                },
                {
                    "name": "B2",
                    "midi": 47,
                    "time": 289.4999999999999,
                    "velocity": 0.33070866141732286,
                    "duration": 0.5
                },
                {
                    "name": "E4",
                    "midi": 64,
                    "time": 289.9999999999999,
                    "velocity": 0.2677165354330709,
                    "duration": 0.5
                },
                {
                    "name": "B3",
                    "midi": 59,
                    "time": 289.9999999999999,
                    "velocity": 0.2204724409448819,
                    "duration": 0.5
                },
                {
                    "name": "G3",
                    "midi": 55,
                    "time": 289.9999999999999,
                    "velocity": 0.2204724409448819,
                    "duration": 0.5
                },
                {
                    "name": "E4",
                    "midi": 64,
                    "time": 290.4999999999999,
                    "velocity": 0.25984251968503935,
                    "duration": 0.5
                },
                {
                    "name": "B3",
                    "midi": 59,
                    "time": 290.4999999999999,
                    "velocity": 0.2204724409448819,
                    "duration": 0.5
                },
                {
                    "name": "G3",
                    "midi": 55,
                    "time": 290.4999999999999,
                    "velocity": 0.2204724409448819,
                    "duration": 0.5
                },
                {
                    "name": "B2",
                    "midi": 47,
                    "time": 290.9999999999999,
                    "velocity": 0.33070866141732286,
                    "duration": 0.49999999999994316
                },
                {
                    "name": "D4",
                    "midi": 62,
                    "time": 291.49999999999983,
                    "velocity": 0.2047244094488189,
                    "duration": 0.5
                },
                {
                    "name": "B3",
                    "midi": 59,
                    "time": 291.49999999999983,
                    "velocity": 0.1732283464566929,
                    "duration": 0.5
                },
                {
                    "name": "F#3",
                    "midi": 54,
                    "time": 291.49999999999983,
                    "velocity": 0.1732283464566929,
                    "duration": 0.5
                },
                {
                    "name": "D4",
                    "midi": 62,
                    "time": 291.99999999999983,
                    "velocity": 0.2047244094488189,
                    "duration": 0.5
                },
                {
                    "name": "B3",
                    "midi": 59,
                    "time": 291.99999999999983,
                    "velocity": 0.1732283464566929,
                    "duration": 0.5
                },
                {
                    "name": "F#3",
                    "midi": 54,
                    "time": 291.99999999999983,
                    "velocity": 0.1732283464566929,
                    "duration": 0.5
                },
                {
                    "name": "B2",
                    "midi": 47,
                    "time": 292.49999999999983,
                    "velocity": 0.33070866141732286,
                    "duration": 0.5
                },
                {
                    "name": "E4",
                    "midi": 64,
                    "time": 292.99999999999983,
                    "velocity": 0.2677165354330709,
                    "duration": 0.5
                },
                {
                    "name": "A#3",
                    "midi": 58,
                    "time": 292.99999999999983,
                    "velocity": 0.2204724409448819,
                    "duration": 0.5
                },
                {
                    "name": "F#3",
                    "midi": 54,
                    "time": 292.99999999999983,
                    "velocity": 0.2204724409448819,
                    "duration": 0.5
                },
                {
                    "name": "E4",
                    "midi": 64,
                    "time": 293.49999999999983,
                    "velocity": 0.25984251968503935,
                    "duration": 0.5
                },
                {
                    "name": "A#3",
                    "midi": 58,
                    "time": 293.49999999999983,
                    "velocity": 0.2204724409448819,
                    "duration": 0.5
                },
                {
                    "name": "F#3",
                    "midi": 54,
                    "time": 293.49999999999983,
                    "velocity": 0.2204724409448819,
                    "duration": 0.5
                },
                {
                    "name": "B2",
                    "midi": 47,
                    "time": 293.99999999999983,
                    "velocity": 0.33070866141732286,
                    "duration": 0.5
                },
                {
                    "name": "D4",
                    "midi": 62,
                    "time": 294.49999999999983,
                    "velocity": 0.2047244094488189,
                    "duration": 0.5
                },
                {
                    "name": "B3",
                    "midi": 59,
                    "time": 294.49999999999983,
                    "velocity": 0.1732283464566929,
                    "duration": 0.5
                },
                {
                    "name": "F#3",
                    "midi": 54,
                    "time": 294.49999999999983,
                    "velocity": 0.1732283464566929,
                    "duration": 0.5
                },
                {
                    "name": "D4",
                    "midi": 62,
                    "time": 294.99999999999983,
                    "velocity": 0.2047244094488189,
                    "duration": 0.5
                },
                {
                    "name": "B3",
                    "midi": 59,
                    "time": 294.99999999999983,
                    "velocity": 0.1732283464566929,
                    "duration": 0.5
                },
                {
                    "name": "F#3",
                    "midi": 54,
                    "time": 294.99999999999983,
                    "velocity": 0.1732283464566929,
                    "duration": 0.5
                },
                {
                    "name": "C#2",
                    "midi": 37,
                    "time": 295.49999999999983,
                    "velocity": 0.3700787401574803,
                    "duration": 0.5
                },
                {
                    "name": "B3",
                    "midi": 59,
                    "time": 295.99999999999983,
                    "velocity": 0.2992125984251969,
                    "duration": 0.5
                },
                {
                    "name": "F3",
                    "midi": 53,
                    "time": 295.99999999999983,
                    "velocity": 0.25196850393700787,
                    "duration": 0.5
                },
                {
                    "name": "C#3",
                    "midi": 49,
                    "time": 295.99999999999983,
                    "velocity": 0.25196850393700787,
                    "duration": 0.5
                },
                {
                    "name": "B3",
                    "midi": 59,
                    "time": 296.49999999999983,
                    "velocity": 0.29133858267716534,
                    "duration": 0.5
                },
                {
                    "name": "F3",
                    "midi": 53,
                    "time": 296.49999999999983,
                    "velocity": 0.2440944881889764,
                    "duration": 0.5
                },
                {
                    "name": "C#3",
                    "midi": 49,
                    "time": 296.49999999999983,
                    "velocity": 0.2440944881889764,
                    "duration": 0.5
                },
                {
                    "name": "F#2",
                    "midi": 42,
                    "time": 296.99999999999983,
                    "velocity": 0.3700787401574803,
                    "duration": 0.5
                },
                {
                    "name": "A3",
                    "midi": 57,
                    "time": 297.49999999999983,
                    "velocity": 0.2755905511811024,
                    "duration": 0.5
                },
                {
                    "name": "C#3",
                    "midi": 49,
                    "time": 297.49999999999983,
                    "velocity": 0.2283464566929134,
                    "duration": 0.5
                },
                {
                    "name": "C#3",
                    "midi": 49,
                    "time": 301.49999999999983,
                    "velocity": 0.3700787401574803,
                    "duration": 1.5
                },
                {
                    "name": "G#3",
                    "midi": 56,
                    "time": 301.49999999999983,
                    "velocity": 0.4566929133858268,
                    "duration": 0.5
                },
                {
                    "name": "F#3",
                    "midi": 54,
                    "time": 301.99999999999983,
                    "velocity": 0.4330708661417323,
                    "duration": 0.5
                },
                {
                    "name": "A3",
                    "midi": 57,
                    "time": 302.49999999999983,
                    "velocity": 0.4330708661417323,
                    "duration": 0.5
                },
                {
                    "name": "C#3",
                    "midi": 49,
                    "time": 302.99999999999983,
                    "velocity": 0.3700787401574803,
                    "duration": 1.5
                },
                {
                    "name": "G#3",
                    "midi": 56,
                    "time": 302.99999999999983,
                    "velocity": 0.44881889763779526,
                    "duration": 0.25
                },
                {
                    "name": "F#3",
                    "midi": 54,
                    "time": 303.24999999999983,
                    "velocity": 0.4015748031496063,
                    "duration": 0.25
                },
                {
                    "name": "A3",
                    "midi": 57,
                    "time": 303.49999999999983,
                    "velocity": 0.4409448818897638,
                    "duration": 0.5
                },
                {
                    "name": "A3",
                    "midi": 57,
                    "time": 303.99999999999983,
                    "velocity": 0.4251968503937008,
                    "duration": 0.5
                },
                {
                    "name": "C#3",
                    "midi": 49,
                    "time": 304.49999999999983,
                    "velocity": 0.3700787401574803,
                    "duration": 1.5
                },
                {
                    "name": "G#3",
                    "midi": 56,
                    "time": 304.49999999999983,
                    "velocity": 0.44881889763779526,
                    "duration": 0.5
                },
                {
                    "name": "F#3",
                    "midi": 54,
                    "time": 304.99999999999983,
                    "velocity": 0.4409448818897638,
                    "duration": 0.5
                },
                {
                    "name": "A#3",
                    "midi": 58,
                    "time": 305.49999999999983,
                    "velocity": 0.4251968503937008,
                    "duration": 0.5
                },
                {
                    "name": "C#3",
                    "midi": 49,
                    "time": 305.99999999999983,
                    "velocity": 0.3700787401574803,
                    "duration": 0.5
                },
                {
                    "name": "G#3",
                    "midi": 56,
                    "time": 305.99999999999983,
                    "velocity": 0.44881889763779526,
                    "duration": 0.25
                },
                {
                    "name": "F#3",
                    "midi": 54,
                    "time": 306.24999999999983,
                    "velocity": 0.4015748031496063,
                    "duration": 0.75
                },
                {
                    "name": "F#2",
                    "midi": 42,
                    "time": 306.49999999999983,
                    "velocity": 0.3700787401574803,
                    "duration": 1
                },
                {
                    "name": "B2",
                    "midi": 47,
                    "time": 307.49999999999983,
                    "velocity": 0.3937007874015748,
                    "duration": 0.5
                },
                {
                    "name": "E4",
                    "midi": 64,
                    "time": 307.99999999999983,
                    "velocity": 0.31496062992125984,
                    "duration": 0.5
                },
                {
                    "name": "B3",
                    "midi": 59,
                    "time": 307.99999999999983,
                    "velocity": 0.2677165354330709,
                    "duration": 0.5
                },
                {
                    "name": "G3",
                    "midi": 55,
                    "time": 307.99999999999983,
                    "velocity": 0.2677165354330709,
                    "duration": 0.5
                },
                {
                    "name": "E4",
                    "midi": 64,
                    "time": 308.49999999999983,
                    "velocity": 0.30708661417322836,
                    "duration": 0.5
                },
                {
                    "name": "B3",
                    "midi": 59,
                    "time": 308.49999999999983,
                    "velocity": 0.25984251968503935,
                    "duration": 0.5
                },
                {
                    "name": "G3",
                    "midi": 55,
                    "time": 308.49999999999983,
                    "velocity": 0.25984251968503935,
                    "duration": 0.5
                },
                {
                    "name": "B2",
                    "midi": 47,
                    "time": 308.99999999999983,
                    "velocity": 0.3937007874015748,
                    "duration": 0.49999999999994316
                },
                {
                    "name": "D4",
                    "midi": 62,
                    "time": 309.4999999999998,
                    "velocity": 0.2440944881889764,
                    "duration": 0.5
                },
                {
                    "name": "B3",
                    "midi": 59,
                    "time": 309.4999999999998,
                    "velocity": 0.2047244094488189,
                    "duration": 0.5
                },
                {
                    "name": "F#3",
                    "midi": 54,
                    "time": 309.4999999999998,
                    "velocity": 0.2047244094488189,
                    "duration": 0.5
                },
                {
                    "name": "D4",
                    "midi": 62,
                    "time": 309.9999999999998,
                    "velocity": 0.2440944881889764,
                    "duration": 0.5
                },
                {
                    "name": "B3",
                    "midi": 59,
                    "time": 309.9999999999998,
                    "velocity": 0.2047244094488189,
                    "duration": 0.5
                },
                {
                    "name": "F#3",
                    "midi": 54,
                    "time": 309.9999999999998,
                    "velocity": 0.2047244094488189,
                    "duration": 0.5
                },
                {
                    "name": "B2",
                    "midi": 47,
                    "time": 310.4999999999998,
                    "velocity": 0.3937007874015748,
                    "duration": 0.49999999999994316
                },
                {
                    "name": "E4",
                    "midi": 64,
                    "time": 310.9999999999997,
                    "velocity": 0.31496062992125984,
                    "duration": 0.5
                },
                {
                    "name": "A#3",
                    "midi": 58,
                    "time": 310.9999999999997,
                    "velocity": 0.2677165354330709,
                    "duration": 0.5
                },
                {
                    "name": "F#3",
                    "midi": 54,
                    "time": 310.9999999999997,
                    "velocity": 0.2677165354330709,
                    "duration": 0.5
                },
                {
                    "name": "E4",
                    "midi": 64,
                    "time": 311.4999999999997,
                    "velocity": 0.30708661417322836,
                    "duration": 0.5
                },
                {
                    "name": "A#3",
                    "midi": 58,
                    "time": 311.4999999999997,
                    "velocity": 0.25984251968503935,
                    "duration": 0.5
                },
                {
                    "name": "F#3",
                    "midi": 54,
                    "time": 311.4999999999997,
                    "velocity": 0.25984251968503935,
                    "duration": 0.5
                },
                {
                    "name": "B2",
                    "midi": 47,
                    "time": 311.9999999999997,
                    "velocity": 0.3937007874015748,
                    "duration": 0.5
                },
                {
                    "name": "D4",
                    "midi": 62,
                    "time": 312.4999999999997,
                    "velocity": 0.2440944881889764,
                    "duration": 0.5
                },
                {
                    "name": "B3",
                    "midi": 59,
                    "time": 312.4999999999997,
                    "velocity": 0.2047244094488189,
                    "duration": 0.5
                },
                {
                    "name": "F#3",
                    "midi": 54,
                    "time": 312.4999999999997,
                    "velocity": 0.2047244094488189,
                    "duration": 0.5
                },
                {
                    "name": "B3",
                    "midi": 59,
                    "time": 313.4999999999997,
                    "velocity": 0.2992125984251969,
                    "duration": 0.5
                },
                {
                    "name": "F4",
                    "midi": 65,
                    "time": 313.4999999999997,
                    "velocity": 0.33858267716535434,
                    "duration": 0.5
                },
                {
                    "name": "C4",
                    "midi": 60,
                    "time": 313.9999999999997,
                    "velocity": 0.2677165354330709,
                    "duration": 0.5
                },
                {
                    "name": "E4",
                    "midi": 64,
                    "time": 313.9999999999997,
                    "velocity": 0.2992125984251969,
                    "duration": 0.5
                },
                {
                    "name": "C4",
                    "midi": 60,
                    "time": 314.4999999999997,
                    "velocity": 0.2677165354330709,
                    "duration": 0.5
                },
                {
                    "name": "E4",
                    "midi": 64,
                    "time": 314.4999999999997,
                    "velocity": 0.2992125984251969,
                    "duration": 0.5
                },
                {
                    "name": "G3",
                    "midi": 55,
                    "time": 314.9999999999997,
                    "velocity": 0.3228346456692913,
                    "duration": 0.5
                },
                {
                    "name": "B3",
                    "midi": 59,
                    "time": 314.9999999999997,
                    "velocity": 0.3228346456692913,
                    "duration": 0.5
                },
                {
                    "name": "F4",
                    "midi": 65,
                    "time": 314.9999999999997,
                    "velocity": 0.36220472440944884,
                    "duration": 0.5
                },
                {
                    "name": "G3",
                    "midi": 55,
                    "time": 315.4999999999997,
                    "velocity": 0.2677165354330709,
                    "duration": 0.5
                },
                {
                    "name": "B3",
                    "midi": 59,
                    "time": 315.4999999999997,
                    "velocity": 0.2677165354330709,
                    "duration": 0.5
                },
                {
                    "name": "F4",
                    "midi": 65,
                    "time": 315.4999999999997,
                    "velocity": 0.2992125984251969,
                    "duration": 0.5
                },
                {
                    "name": "C4",
                    "midi": 60,
                    "time": 315.9999999999997,
                    "velocity": 0.2677165354330709,
                    "duration": 0.5
                },
                {
                    "name": "E4",
                    "midi": 64,
                    "time": 315.9999999999997,
                    "velocity": 0.2992125984251969,
                    "duration": 0.5
                },
                {
                    "name": "B3",
                    "midi": 59,
                    "time": 316.4999999999997,
                    "velocity": 0.2992125984251969,
                    "duration": 0.5
                },
                {
                    "name": "F4",
                    "midi": 65,
                    "time": 316.4999999999997,
                    "velocity": 0.33858267716535434,
                    "duration": 0.5
                },
                {
                    "name": "C4",
                    "midi": 60,
                    "time": 316.9999999999997,
                    "velocity": 0.2677165354330709,
                    "duration": 0.5
                },
                {
                    "name": "E4",
                    "midi": 64,
                    "time": 316.9999999999997,
                    "velocity": 0.2992125984251969,
                    "duration": 0.5
                },
                {
                    "name": "C4",
                    "midi": 60,
                    "time": 317.4999999999997,
                    "velocity": 0.2677165354330709,
                    "duration": 0.5
                },
                {
                    "name": "E4",
                    "midi": 64,
                    "time": 317.4999999999997,
                    "velocity": 0.2992125984251969,
                    "duration": 0.5
                },
                {
                    "name": "G3",
                    "midi": 55,
                    "time": 317.9999999999997,
                    "velocity": 0.3228346456692913,
                    "duration": 0.5
                },
                {
                    "name": "B3",
                    "midi": 59,
                    "time": 317.9999999999997,
                    "velocity": 0.3228346456692913,
                    "duration": 0.5
                },
                {
                    "name": "F4",
                    "midi": 65,
                    "time": 317.9999999999997,
                    "velocity": 0.36220472440944884,
                    "duration": 0.5
                },
                {
                    "name": "G3",
                    "midi": 55,
                    "time": 318.4999999999997,
                    "velocity": 0.25984251968503935,
                    "duration": 0.5
                },
                {
                    "name": "B3",
                    "midi": 59,
                    "time": 318.4999999999997,
                    "velocity": 0.25984251968503935,
                    "duration": 0.5
                },
                {
                    "name": "F4",
                    "midi": 65,
                    "time": 318.4999999999997,
                    "velocity": 0.29133858267716534,
                    "duration": 0.5
                },
                {
                    "name": "C4",
                    "midi": 60,
                    "time": 318.9999999999997,
                    "velocity": 0.25196850393700787,
                    "duration": 0.5
                },
                {
                    "name": "E4",
                    "midi": 64,
                    "time": 318.9999999999997,
                    "velocity": 0.28346456692913385,
                    "duration": 0.5
                },
                {
                    "name": "G3",
                    "midi": 55,
                    "time": 319.4999999999997,
                    "velocity": 0.2992125984251969,
                    "duration": 0.5
                },
                {
                    "name": "B3",
                    "midi": 59,
                    "time": 319.4999999999997,
                    "velocity": 0.2992125984251969,
                    "duration": 0.5
                },
                {
                    "name": "F4",
                    "midi": 65,
                    "time": 319.4999999999997,
                    "velocity": 0.33858267716535434,
                    "duration": 0.5
                },
                {
                    "name": "C4",
                    "midi": 60,
                    "time": 319.9999999999997,
                    "velocity": 0.2440944881889764,
                    "duration": 0.5
                },
                {
                    "name": "E4",
                    "midi": 64,
                    "time": 319.9999999999997,
                    "velocity": 0.2677165354330709,
                    "duration": 0.5
                },
                {
                    "name": "G3",
                    "midi": 55,
                    "time": 320.4999999999997,
                    "velocity": 0.28346456692913385,
                    "duration": 0.5
                },
                {
                    "name": "B3",
                    "midi": 59,
                    "time": 320.4999999999997,
                    "velocity": 0.28346456692913385,
                    "duration": 0.5
                },
                {
                    "name": "F4",
                    "midi": 65,
                    "time": 320.4999999999997,
                    "velocity": 0.3228346456692913,
                    "duration": 0.5
                },
                {
                    "name": "C4",
                    "midi": 60,
                    "time": 320.9999999999997,
                    "velocity": 0.2283464566929134,
                    "duration": 0.5
                },
                {
                    "name": "E4",
                    "midi": 64,
                    "time": 320.9999999999997,
                    "velocity": 0.2283464566929134,
                    "duration": 0.5
                },
                {
                    "name": "G3",
                    "midi": 55,
                    "time": 321.4999999999997,
                    "velocity": 0.2755905511811024,
                    "duration": 0.5
                },
                {
                    "name": "B3",
                    "midi": 59,
                    "time": 321.4999999999997,
                    "velocity": 0.2755905511811024,
                    "duration": 0.5
                },
                {
                    "name": "F4",
                    "midi": 65,
                    "time": 321.4999999999997,
                    "velocity": 0.30708661417322836,
                    "duration": 0.5
                },
                {
                    "name": "C4",
                    "midi": 60,
                    "time": 321.9999999999997,
                    "velocity": 0.2204724409448819,
                    "duration": 0.5
                },
                {
                    "name": "E4",
                    "midi": 64,
                    "time": 321.9999999999997,
                    "velocity": 0.2440944881889764,
                    "duration": 0.5
                },
                {
                    "name": "G3",
                    "midi": 55,
                    "time": 322.4999999999997,
                    "velocity": 0.2677165354330709,
                    "duration": 0.5
                },
                {
                    "name": "B3",
                    "midi": 59,
                    "time": 322.4999999999997,
                    "velocity": 0.2677165354330709,
                    "duration": 0.5
                },
                {
                    "name": "F4",
                    "midi": 65,
                    "time": 322.4999999999997,
                    "velocity": 0.2992125984251969,
                    "duration": 0.5
                },
                {
                    "name": "G3",
                    "midi": 55,
                    "time": 322.9999999999997,
                    "velocity": 0.2047244094488189,
                    "duration": 0.5
                },
                {
                    "name": "B3",
                    "midi": 59,
                    "time": 322.9999999999997,
                    "velocity": 0.2047244094488189,
                    "duration": 0.5
                },
                {
                    "name": "F4",
                    "midi": 65,
                    "time": 322.9999999999997,
                    "velocity": 0.23622047244094488,
                    "duration": 0.5
                },
                {
                    "name": "C4",
                    "midi": 60,
                    "time": 323.4999999999997,
                    "velocity": 0.1968503937007874,
                    "duration": 0.5
                },
                {
                    "name": "E4",
                    "midi": 64,
                    "time": 323.4999999999997,
                    "velocity": 0.2204724409448819,
                    "duration": 0.5
                },
                {
                    "name": "G3",
                    "midi": 55,
                    "time": 323.9999999999997,
                    "velocity": 0.2440944881889764,
                    "duration": 0.5
                },
                {
                    "name": "B3",
                    "midi": 59,
                    "time": 323.9999999999997,
                    "velocity": 0.2440944881889764,
                    "duration": 0.5
                },
                {
                    "name": "F4",
                    "midi": 65,
                    "time": 323.9999999999997,
                    "velocity": 0.28346456692913385,
                    "duration": 0.5
                },
                {
                    "name": "G3",
                    "midi": 55,
                    "time": 324.4999999999997,
                    "velocity": 0.1889763779527559,
                    "duration": 0.5
                },
                {
                    "name": "B3",
                    "midi": 59,
                    "time": 324.4999999999997,
                    "velocity": 0.1889763779527559,
                    "duration": 0.5
                },
                {
                    "name": "F4",
                    "midi": 65,
                    "time": 324.4999999999997,
                    "velocity": 0.2204724409448819,
                    "duration": 0.5
                },
                {
                    "name": "C4",
                    "midi": 60,
                    "time": 324.9999999999997,
                    "velocity": 0.18110236220472442,
                    "duration": 0.5
                },
                {
                    "name": "E4",
                    "midi": 64,
                    "time": 324.9999999999997,
                    "velocity": 0.2047244094488189,
                    "duration": 0.5
                },
                {
                    "name": "G4",
                    "midi": 67,
                    "time": 325.4999999999997,
                    "velocity": 0.31496062992125984,
                    "duration": 1.5
                },
                {
                    "name": "C4",
                    "midi": 60,
                    "time": 326.9999999999997,
                    "velocity": 0.3543307086614173,
                    "duration": 1.5
                },
                {
                    "name": "G4",
                    "midi": 67,
                    "time": 328.4999999999997,
                    "velocity": 0.31496062992125984,
                    "duration": 1.5
                },
                {
                    "name": "C4",
                    "midi": 60,
                    "time": 329.9999999999997,
                    "velocity": 0.3543307086614173,
                    "duration": 1.5
                },
                {
                    "name": "G4",
                    "midi": 67,
                    "time": 331.4999999999997,
                    "velocity": 0.3228346456692913,
                    "duration": 2.9947916666666856
                },
                {
                    "name": "F#2",
                    "midi": 42,
                    "time": 335.9999999999997,
                    "velocity": 0.3464566929133858,
                    "duration": 0.5
                },
                {
                    "name": "F#2",
                    "midi": 42,
                    "time": 336.4999999999997,
                    "velocity": 0.30708661417322836,
                    "duration": 0.5000000000000568
                },
                {
                    "name": "B1",
                    "midi": 35,
                    "time": 336.9999999999998,
                    "velocity": 0.29133858267716534,
                    "duration": 0.5
                },
                {
                    "name": "B2",
                    "midi": 47,
                    "time": 336.9999999999998,
                    "velocity": 0.3464566929133858,
                    "duration": 0.5
                }
            ],
            "controlChanges": {
                "7": [
                    {
                        "number": 7,
                        "time": 0,
                        "value": 0.7874015748031497
                    }
                ],
                "10": [
                    {
                        "number": 10,
                        "time": 0,
                        "value": 0.5039370078740157
                    }
                ],
                "64": [
                    {
                        "number": 64,
                        "time": 1.5552083333333333,
                        "value": 1
                    },
                    {
                        "number": 64,
                        "time": 3.011458333333333,
                        "value": 0
                    },
                    {
                        "number": 64,
                        "time": 3.20625,
                        "value": 1
                    },
                    {
                        "number": 64,
                        "time": 4.503125,
                        "value": 0
                    },
                    {
                        "number": 64,
                        "time": 4.547916666666667,
                        "value": 1
                    },
                    {
                        "number": 64,
                        "time": 5.5125,
                        "value": 0
                    },
                    {
                        "number": 64,
                        "time": 6.20625,
                        "value": 1
                    },
                    {
                        "number": 64,
                        "time": 7.507291666666666,
                        "value": 0
                    },
                    {
                        "number": 64,
                        "time": 7.547916666666667,
                        "value": 1
                    },
                    {
                        "number": 64,
                        "time": 8.01875,
                        "value": 0
                    },
                    {
                        "number": 64,
                        "time": 8.125,
                        "value": 1
                    },
                    {
                        "number": 64,
                        "time": 8.507291666666667,
                        "value": 0
                    },
                    {
                        "number": 64,
                        "time": 9.20625,
                        "value": 1
                    },
                    {
                        "number": 64,
                        "time": 10.017708333333333,
                        "value": 0
                    },
                    {
                        "number": 64,
                        "time": 14.309375,
                        "value": 1
                    },
                    {
                        "number": 64,
                        "time": 15.008333333333333,
                        "value": 0
                    },
                    {
                        "number": 64,
                        "time": 17.165625,
                        "value": 1
                    },
                    {
                        "number": 64,
                        "time": 18.047916666666666,
                        "value": 0
                    },
                    {
                        "number": 64,
                        "time": 18.533333333333335,
                        "value": 1
                    },
                    {
                        "number": 64,
                        "time": 19.013541666666665,
                        "value": 0
                    },
                    {
                        "number": 64,
                        "time": 19.607291666666665,
                        "value": 1
                    },
                    {
                        "number": 64,
                        "time": 21.009375,
                        "value": 0
                    },
                    {
                        "number": 64,
                        "time": 21.206249999999997,
                        "value": 1
                    },
                    {
                        "number": 64,
                        "time": 22.507291666666664,
                        "value": 0
                    },
                    {
                        "number": 64,
                        "time": 22.547916666666662,
                        "value": 1
                    },
                    {
                        "number": 64,
                        "time": 23.51145833333333,
                        "value": 0
                    },
                    {
                        "number": 64,
                        "time": 24.206249999999997,
                        "value": 1
                    },
                    {
                        "number": 64,
                        "time": 25.004166666666663,
                        "value": 0
                    },
                    {
                        "number": 64,
                        "time": 37.59166666666667,
                        "value": 1
                    },
                    {
                        "number": 64,
                        "time": 39.01145833333333,
                        "value": 0
                    },
                    {
                        "number": 64,
                        "time": 39.20625,
                        "value": 1
                    },
                    {
                        "number": 64,
                        "time": 40.50729166666667,
                        "value": 0
                    },
                    {
                        "number": 64,
                        "time": 40.547916666666666,
                        "value": 1
                    },
                    {
                        "number": 64,
                        "time": 41.51354166666667,
                        "value": 0
                    },
                    {
                        "number": 64,
                        "time": 42.20625,
                        "value": 1
                    },
                    {
                        "number": 64,
                        "time": 43.5,
                        "value": 0
                    },
                    {
                        "number": 64,
                        "time": 43.547916666666666,
                        "value": 1
                    },
                    {
                        "number": 64,
                        "time": 44.021875,
                        "value": 0
                    },
                    {
                        "number": 64,
                        "time": 44.125,
                        "value": 1
                    },
                    {
                        "number": 64,
                        "time": 44.5125,
                        "value": 0
                    },
                    {
                        "number": 64,
                        "time": 45.20625,
                        "value": 1
                    },
                    {
                        "number": 64,
                        "time": 46.01770833333333,
                        "value": 0
                    },
                    {
                        "number": 64,
                        "time": 53.084375,
                        "value": 1
                    },
                    {
                        "number": 64,
                        "time": 54.00729166666667,
                        "value": 0
                    },
                    {
                        "number": 64,
                        "time": 54.53333333333333,
                        "value": 1
                    },
                    {
                        "number": 64,
                        "time": 55.01145833333333,
                        "value": 0
                    },
                    {
                        "number": 64,
                        "time": 55.577083333333334,
                        "value": 1
                    },
                    {
                        "number": 64,
                        "time": 57.00729166666667,
                        "value": 0
                    },
                    {
                        "number": 64,
                        "time": 57.20625,
                        "value": 1
                    },
                    {
                        "number": 64,
                        "time": 58.509375,
                        "value": 0
                    },
                    {
                        "number": 64,
                        "time": 58.588541666666664,
                        "value": 1
                    },
                    {
                        "number": 64,
                        "time": 59.514583333333334,
                        "value": 0
                    },
                    {
                        "number": 64,
                        "time": 60.20625,
                        "value": 1
                    },
                    {
                        "number": 64,
                        "time": 60.94166666666667,
                        "value": 0
                    },
                    {
                        "number": 64,
                        "time": 73.603125,
                        "value": 1
                    },
                    {
                        "number": 64,
                        "time": 74.51979166666666,
                        "value": 0
                    },
                    {
                        "number": 64,
                        "time": 74.67708333333333,
                        "value": 1
                    },
                    {
                        "number": 64,
                        "time": 75.00833333333334,
                        "value": 0
                    },
                    {
                        "number": 64,
                        "time": 75.10104166666667,
                        "value": 1
                    },
                    {
                        "number": 64,
                        "time": 76.01250000000002,
                        "value": 0
                    },
                    {
                        "number": 64,
                        "time": 76.62500000000001,
                        "value": 1
                    },
                    {
                        "number": 64,
                        "time": 77.50833333333335,
                        "value": 0
                    },
                    {
                        "number": 64,
                        "time": 77.64687500000002,
                        "value": 1
                    },
                    {
                        "number": 64,
                        "time": 78.00625000000002,
                        "value": 0
                    },
                    {
                        "number": 64,
                        "time": 78.10104166666669,
                        "value": 1
                    },
                    {
                        "number": 64,
                        "time": 79.01250000000003,
                        "value": 0
                    },
                    {
                        "number": 64,
                        "time": 79.60312500000003,
                        "value": 1
                    },
                    {
                        "number": 64,
                        "time": 80.50937500000003,
                        "value": 0
                    },
                    {
                        "number": 64,
                        "time": 80.64687500000004,
                        "value": 1
                    },
                    {
                        "number": 64,
                        "time": 81.01041666666671,
                        "value": 0
                    },
                    {
                        "number": 64,
                        "time": 81.10104166666672,
                        "value": 1
                    },
                    {
                        "number": 64,
                        "time": 82.01250000000006,
                        "value": 0
                    },
                    {
                        "number": 64,
                        "time": 82.62500000000006,
                        "value": 1
                    },
                    {
                        "number": 64,
                        "time": 83.51770833333339,
                        "value": 0
                    },
                    {
                        "number": 64,
                        "time": 83.66250000000005,
                        "value": 1
                    },
                    {
                        "number": 64,
                        "time": 84.0083333333334,
                        "value": 0
                    },
                    {
                        "number": 64,
                        "time": 84.10104166666673,
                        "value": 1
                    },
                    {
                        "number": 64,
                        "time": 85.01250000000007,
                        "value": 0
                    },
                    {
                        "number": 64,
                        "time": 85.60312500000008,
                        "value": 1
                    },
                    {
                        "number": 64,
                        "time": 86.51145833333341,
                        "value": 0
                    },
                    {
                        "number": 64,
                        "time": 86.66250000000008,
                        "value": 1
                    },
                    {
                        "number": 64,
                        "time": 87.00000000000009,
                        "value": 0
                    },
                    {
                        "number": 64,
                        "time": 87.10104166666675,
                        "value": 1
                    },
                    {
                        "number": 64,
                        "time": 88.01666666666675,
                        "value": 0
                    },
                    {
                        "number": 64,
                        "time": 88.62500000000009,
                        "value": 1
                    },
                    {
                        "number": 64,
                        "time": 89.51041666666676,
                        "value": 0
                    },
                    {
                        "number": 64,
                        "time": 89.6625000000001,
                        "value": 1
                    },
                    {
                        "number": 64,
                        "time": 90.00729166666676,
                        "value": 0
                    },
                    {
                        "number": 64,
                        "time": 90.10104166666676,
                        "value": 1
                    },
                    {
                        "number": 64,
                        "time": 91.01770833333343,
                        "value": 0
                    },
                    {
                        "number": 64,
                        "time": 91.55833333333344,
                        "value": 1
                    },
                    {
                        "number": 64,
                        "time": 92.51666666666677,
                        "value": 0
                    },
                    {
                        "number": 64,
                        "time": 97.5625000000001,
                        "value": 1
                    },
                    {
                        "number": 64,
                        "time": 99.00729166666676,
                        "value": 0
                    },
                    {
                        "number": 64,
                        "time": 99.2062500000001,
                        "value": 1
                    },
                    {
                        "number": 64,
                        "time": 100.50729166666676,
                        "value": 0
                    },
                    {
                        "number": 64,
                        "time": 100.54791666666677,
                        "value": 1
                    },
                    {
                        "number": 64,
                        "time": 101.51666666666677,
                        "value": 0
                    },
                    {
                        "number": 64,
                        "time": 102.2062500000001,
                        "value": 1
                    },
                    {
                        "number": 64,
                        "time": 103.50729166666676,
                        "value": 0
                    },
                    {
                        "number": 64,
                        "time": 103.54791666666677,
                        "value": 1
                    },
                    {
                        "number": 64,
                        "time": 104.0218750000001,
                        "value": 0
                    },
                    {
                        "number": 64,
                        "time": 104.1250000000001,
                        "value": 1
                    },
                    {
                        "number": 64,
                        "time": 104.51666666666677,
                        "value": 0
                    },
                    {
                        "number": 64,
                        "time": 105.2062500000001,
                        "value": 1
                    },
                    {
                        "number": 64,
                        "time": 106.01666666666677,
                        "value": 0
                    },
                    {
                        "number": 64,
                        "time": 110.33333333333343,
                        "value": 1
                    },
                    {
                        "number": 64,
                        "time": 111.0156250000001,
                        "value": 0
                    },
                    {
                        "number": 64,
                        "time": 113.05208333333343,
                        "value": 1
                    },
                    {
                        "number": 64,
                        "time": 114.00729166666676,
                        "value": 0
                    },
                    {
                        "number": 64,
                        "time": 114.53333333333343,
                        "value": 1
                    },
                    {
                        "number": 64,
                        "time": 115.01354166666677,
                        "value": 0
                    },
                    {
                        "number": 64,
                        "time": 115.5812500000001,
                        "value": 1
                    },
                    {
                        "number": 64,
                        "time": 117.01354166666677,
                        "value": 0
                    },
                    {
                        "number": 64,
                        "time": 117.2062500000001,
                        "value": 1
                    },
                    {
                        "number": 64,
                        "time": 118.50729166666676,
                        "value": 0
                    },
                    {
                        "number": 64,
                        "time": 118.5812500000001,
                        "value": 1
                    },
                    {
                        "number": 64,
                        "time": 119.51458333333343,
                        "value": 0
                    },
                    {
                        "number": 64,
                        "time": 120.2062500000001,
                        "value": 1
                    },
                    {
                        "number": 64,
                        "time": 121.00416666666676,
                        "value": 0
                    },
                    {
                        "number": 64,
                        "time": 133.59166666666678,
                        "value": 1
                    },
                    {
                        "number": 64,
                        "time": 135.00833333333344,
                        "value": 0
                    },
                    {
                        "number": 64,
                        "time": 135.2062500000001,
                        "value": 1
                    },
                    {
                        "number": 64,
                        "time": 136.5083333333334,
                        "value": 0
                    },
                    {
                        "number": 64,
                        "time": 136.54791666666674,
                        "value": 1
                    },
                    {
                        "number": 64,
                        "time": 137.51458333333338,
                        "value": 0
                    },
                    {
                        "number": 64,
                        "time": 138.20625000000007,
                        "value": 1
                    },
                    {
                        "number": 64,
                        "time": 139.50833333333338,
                        "value": 0
                    },
                    {
                        "number": 64,
                        "time": 139.5479166666667,
                        "value": 1
                    },
                    {
                        "number": 64,
                        "time": 140.01875000000004,
                        "value": 0
                    },
                    {
                        "number": 64,
                        "time": 140.12500000000003,
                        "value": 1
                    },
                    {
                        "number": 64,
                        "time": 140.5135416666667,
                        "value": 0
                    },
                    {
                        "number": 64,
                        "time": 141.20625000000004,
                        "value": 1
                    },
                    {
                        "number": 64,
                        "time": 142.01770833333336,
                        "value": 0
                    },
                    {
                        "number": 64,
                        "time": 146.21458333333337,
                        "value": 1
                    },
                    {
                        "number": 64,
                        "time": 147.01250000000002,
                        "value": 0
                    },
                    {
                        "number": 64,
                        "time": 149.10312500000003,
                        "value": 1
                    },
                    {
                        "number": 64,
                        "time": 150.01562500000003,
                        "value": 0
                    },
                    {
                        "number": 64,
                        "time": 150.53333333333336,
                        "value": 1
                    },
                    {
                        "number": 64,
                        "time": 151.01145833333337,
                        "value": 0
                    },
                    {
                        "number": 64,
                        "time": 151.5666666666667,
                        "value": 1
                    },
                    {
                        "number": 64,
                        "time": 153.00833333333335,
                        "value": 0
                    },
                    {
                        "number": 64,
                        "time": 153.30937500000002,
                        "value": 1
                    },
                    {
                        "number": 64,
                        "time": 154.50833333333335,
                        "value": 0
                    },
                    {
                        "number": 64,
                        "time": 154.58125,
                        "value": 1
                    },
                    {
                        "number": 64,
                        "time": 155.51458333333332,
                        "value": 0
                    },
                    {
                        "number": 64,
                        "time": 156.20625,
                        "value": 1
                    },
                    {
                        "number": 64,
                        "time": 157.01458333333332,
                        "value": 0
                    },
                    {
                        "number": 64,
                        "time": 169.603125,
                        "value": 1
                    },
                    {
                        "number": 64,
                        "time": 170.5125,
                        "value": 0
                    },
                    {
                        "number": 64,
                        "time": 170.67708333333331,
                        "value": 1
                    },
                    {
                        "number": 64,
                        "time": 171.00937499999998,
                        "value": 0
                    },
                    {
                        "number": 64,
                        "time": 171.10104166666665,
                        "value": 1
                    },
                    {
                        "number": 64,
                        "time": 172.0177083333333,
                        "value": 0
                    },
                    {
                        "number": 64,
                        "time": 172.62499999999997,
                        "value": 1
                    },
                    {
                        "number": 64,
                        "time": 173.5145833333333,
                        "value": 0
                    },
                    {
                        "number": 64,
                        "time": 173.6770833333333,
                        "value": 1
                    },
                    {
                        "number": 64,
                        "time": 174.00937499999995,
                        "value": 0
                    },
                    {
                        "number": 64,
                        "time": 174.10104166666662,
                        "value": 1
                    },
                    {
                        "number": 64,
                        "time": 175.00729166666662,
                        "value": 0
                    },
                    {
                        "number": 64,
                        "time": 175.60312499999995,
                        "value": 1
                    },
                    {
                        "number": 64,
                        "time": 176.50937499999995,
                        "value": 0
                    },
                    {
                        "number": 64,
                        "time": 176.70624999999995,
                        "value": 1
                    },
                    {
                        "number": 64,
                        "time": 177.01145833333328,
                        "value": 0
                    },
                    {
                        "number": 64,
                        "time": 177.10104166666662,
                        "value": 1
                    },
                    {
                        "number": 64,
                        "time": 178.0104166666666,
                        "value": 0
                    },
                    {
                        "number": 64,
                        "time": 178.62499999999994,
                        "value": 1
                    },
                    {
                        "number": 64,
                        "time": 179.5197916666666,
                        "value": 0
                    },
                    {
                        "number": 64,
                        "time": 179.66249999999994,
                        "value": 1
                    },
                    {
                        "number": 64,
                        "time": 180.00624999999994,
                        "value": 0
                    },
                    {
                        "number": 64,
                        "time": 180.10104166666662,
                        "value": 1
                    },
                    {
                        "number": 64,
                        "time": 181.01458333333326,
                        "value": 0
                    },
                    {
                        "number": 64,
                        "time": 181.60312499999995,
                        "value": 1
                    },
                    {
                        "number": 64,
                        "time": 182.51770833333327,
                        "value": 0
                    },
                    {
                        "number": 64,
                        "time": 182.64687499999994,
                        "value": 1
                    },
                    {
                        "number": 64,
                        "time": 183.00729166666662,
                        "value": 0
                    },
                    {
                        "number": 64,
                        "time": 183.10104166666662,
                        "value": 1
                    },
                    {
                        "number": 64,
                        "time": 184.01770833333327,
                        "value": 0
                    },
                    {
                        "number": 64,
                        "time": 184.62499999999994,
                        "value": 1
                    },
                    {
                        "number": 64,
                        "time": 185.50937499999995,
                        "value": 0
                    },
                    {
                        "number": 64,
                        "time": 185.66249999999994,
                        "value": 1
                    },
                    {
                        "number": 64,
                        "time": 186.01458333333326,
                        "value": 0
                    },
                    {
                        "number": 64,
                        "time": 186.1010416666666,
                        "value": 1
                    },
                    {
                        "number": 64,
                        "time": 187.0124999999999,
                        "value": 0
                    },
                    {
                        "number": 64,
                        "time": 187.69166666666658,
                        "value": 1
                    },
                    {
                        "number": 64,
                        "time": 188.5166666666666,
                        "value": 0
                    },
                    {
                        "number": 64,
                        "time": 193.67604166666658,
                        "value": 1
                    },
                    {
                        "number": 64,
                        "time": 194.5124999999999,
                        "value": 0
                    },
                    {
                        "number": 64,
                        "time": 195.11770833333324,
                        "value": 1
                    },
                    {
                        "number": 64,
                        "time": 195.5218749999999,
                        "value": 0
                    },
                    {
                        "number": 64,
                        "time": 195.7062499999999,
                        "value": 1
                    },
                    {
                        "number": 64,
                        "time": 196.4999999999999,
                        "value": 0
                    },
                    {
                        "number": 64,
                        "time": 196.58854166666654,
                        "value": 1
                    },
                    {
                        "number": 64,
                        "time": 197.51354166666655,
                        "value": 0
                    },
                    {
                        "number": 64,
                        "time": 198.23854166666655,
                        "value": 1
                    },
                    {
                        "number": 64,
                        "time": 199.51249999999987,
                        "value": 0
                    },
                    {
                        "number": 64,
                        "time": 199.6614583333332,
                        "value": 1
                    },
                    {
                        "number": 64,
                        "time": 200.51458333333318,
                        "value": 0
                    },
                    {
                        "number": 64,
                        "time": 201.04374999999985,
                        "value": 1
                    },
                    {
                        "number": 64,
                        "time": 202.13541666666652,
                        "value": 0
                    },
                    {
                        "number": 64,
                        "time": 202.5958333333332,
                        "value": 1
                    },
                    {
                        "number": 64,
                        "time": 203.51979166666652,
                        "value": 0
                    },
                    {
                        "number": 64,
                        "time": 204.19062499999987,
                        "value": 1
                    },
                    {
                        "number": 64,
                        "time": 205.0177083333332,
                        "value": 0
                    },
                    {
                        "number": 64,
                        "time": 205.67604166666652,
                        "value": 1
                    },
                    {
                        "number": 64,
                        "time": 207.00729166666653,
                        "value": 0
                    },
                    {
                        "number": 64,
                        "time": 207.19166666666652,
                        "value": 1
                    },
                    {
                        "number": 64,
                        "time": 208.50729166666653,
                        "value": 0
                    },
                    {
                        "number": 64,
                        "time": 208.58854166666654,
                        "value": 1
                    },
                    {
                        "number": 64,
                        "time": 209.5187499999999,
                        "value": 0
                    },
                    {
                        "number": 64,
                        "time": 210.23854166666655,
                        "value": 1
                    },
                    {
                        "number": 64,
                        "time": 211.51145833333322,
                        "value": 0
                    },
                    {
                        "number": 64,
                        "time": 211.66145833333323,
                        "value": 1
                    },
                    {
                        "number": 64,
                        "time": 212.5156249999999,
                        "value": 0
                    },
                    {
                        "number": 64,
                        "time": 213.04374999999987,
                        "value": 1
                    },
                    {
                        "number": 64,
                        "time": 214.01354166666655,
                        "value": 0
                    },
                    {
                        "number": 64,
                        "time": 214.59583333333322,
                        "value": 1
                    },
                    {
                        "number": 64,
                        "time": 216.01041666666654,
                        "value": 0
                    },
                    {
                        "number": 64,
                        "time": 216.19062499999987,
                        "value": 1
                    },
                    {
                        "number": 64,
                        "time": 217.01458333333318,
                        "value": 0
                    },
                    {
                        "number": 64,
                        "time": 217.16666666666652,
                        "value": 1
                    },
                    {
                        "number": 64,
                        "time": 217.50729166666653,
                        "value": 0
                    },
                    {
                        "number": 64,
                        "time": 217.67604166666652,
                        "value": 1
                    },
                    {
                        "number": 64,
                        "time": 218.51354166666653,
                        "value": 0
                    },
                    {
                        "number": 64,
                        "time": 219.11770833333318,
                        "value": 1
                    },
                    {
                        "number": 64,
                        "time": 219.52187499999985,
                        "value": 0
                    },
                    {
                        "number": 64,
                        "time": 219.6208333333332,
                        "value": 1
                    },
                    {
                        "number": 64,
                        "time": 220.49999999999986,
                        "value": 0
                    },
                    {
                        "number": 64,
                        "time": 220.58854166666652,
                        "value": 1
                    },
                    {
                        "number": 64,
                        "time": 221.51458333333318,
                        "value": 0
                    },
                    {
                        "number": 64,
                        "time": 222.23854166666652,
                        "value": 1
                    },
                    {
                        "number": 64,
                        "time": 223.50729166666653,
                        "value": 0
                    },
                    {
                        "number": 64,
                        "time": 223.6614583333332,
                        "value": 1
                    },
                    {
                        "number": 64,
                        "time": 224.51458333333318,
                        "value": 0
                    },
                    {
                        "number": 64,
                        "time": 225.04374999999985,
                        "value": 1
                    },
                    {
                        "number": 64,
                        "time": 226.15624999999986,
                        "value": 0
                    },
                    {
                        "number": 64,
                        "time": 226.5958333333332,
                        "value": 1
                    },
                    {
                        "number": 64,
                        "time": 227.01666666666654,
                        "value": 0
                    },
                    {
                        "number": 64,
                        "time": 228.19062499999987,
                        "value": 1
                    },
                    {
                        "number": 64,
                        "time": 229.01666666666654,
                        "value": 0
                    },
                    {
                        "number": 64,
                        "time": 229.67604166666652,
                        "value": 1
                    },
                    {
                        "number": 64,
                        "time": 231.0114583333332,
                        "value": 0
                    },
                    {
                        "number": 64,
                        "time": 231.20624999999987,
                        "value": 1
                    },
                    {
                        "number": 64,
                        "time": 232.50833333333318,
                        "value": 0
                    },
                    {
                        "number": 64,
                        "time": 232.58854166666652,
                        "value": 1
                    },
                    {
                        "number": 64,
                        "time": 233.5114583333332,
                        "value": 0
                    },
                    {
                        "number": 64,
                        "time": 234.23854166666652,
                        "value": 1
                    },
                    {
                        "number": 64,
                        "time": 235.50729166666653,
                        "value": 0
                    },
                    {
                        "number": 64,
                        "time": 235.6614583333332,
                        "value": 1
                    },
                    {
                        "number": 64,
                        "time": 236.51249999999985,
                        "value": 0
                    },
                    {
                        "number": 64,
                        "time": 237.11770833333318,
                        "value": 1
                    },
                    {
                        "number": 64,
                        "time": 238.5114583333332,
                        "value": 0
                    },
                    {
                        "number": 64,
                        "time": 238.72604166666653,
                        "value": 1
                    },
                    {
                        "number": 64,
                        "time": 240.0114583333332,
                        "value": 0
                    },
                    {
                        "number": 64,
                        "time": 240.3333333333332,
                        "value": 1
                    },
                    {
                        "number": 64,
                        "time": 241.49999999999986,
                        "value": 0
                    },
                    {
                        "number": 64,
                        "time": 241.63958333333318,
                        "value": 1
                    },
                    {
                        "number": 64,
                        "time": 242.51249999999985,
                        "value": 0
                    },
                    {
                        "number": 64,
                        "time": 243.08854166666652,
                        "value": 1
                    },
                    {
                        "number": 64,
                        "time": 244.01562499999986,
                        "value": 0
                    },
                    {
                        "number": 64,
                        "time": 244.5583333333332,
                        "value": 1
                    },
                    {
                        "number": 64,
                        "time": 245.51354166666653,
                        "value": 0
                    },
                    {
                        "number": 64,
                        "time": 246.08854166666652,
                        "value": 1
                    },
                    {
                        "number": 64,
                        "time": 247.01562499999986,
                        "value": 0
                    },
                    {
                        "number": 64,
                        "time": 247.58854166666652,
                        "value": 1
                    },
                    {
                        "number": 64,
                        "time": 248.51562499999986,
                        "value": 0
                    },
                    {
                        "number": 64,
                        "time": 249.08854166666652,
                        "value": 1
                    },
                    {
                        "number": 64,
                        "time": 250.01562499999986,
                        "value": 0
                    },
                    {
                        "number": 64,
                        "time": 250.58854166666652,
                        "value": 1
                    },
                    {
                        "number": 64,
                        "time": 251.51562499999986,
                        "value": 0
                    },
                    {
                        "number": 64,
                        "time": 252.08854166666652,
                        "value": 1
                    },
                    {
                        "number": 64,
                        "time": 252.51249999999985,
                        "value": 0
                    },
                    {
                        "number": 64,
                        "time": 253.49999999999986,
                        "value": 0
                    },
                    {
                        "number": 64,
                        "time": 253.5958333333332,
                        "value": 1
                    },
                    {
                        "number": 64,
                        "time": 254.5177083333332,
                        "value": 0
                    },
                    {
                        "number": 64,
                        "time": 255.08854166666652,
                        "value": 1
                    },
                    {
                        "number": 64,
                        "time": 256.0156249999999,
                        "value": 0
                    },
                    {
                        "number": 64,
                        "time": 256.5583333333332,
                        "value": 1
                    },
                    {
                        "number": 64,
                        "time": 257.51666666666654,
                        "value": 0
                    },
                    {
                        "number": 64,
                        "time": 258.0885416666666,
                        "value": 1
                    },
                    {
                        "number": 64,
                        "time": 259.0156249999999,
                        "value": 0
                    },
                    {
                        "number": 64,
                        "time": 259.5885416666666,
                        "value": 1
                    },
                    {
                        "number": 64,
                        "time": 260.5156249999999,
                        "value": 0
                    },
                    {
                        "number": 64,
                        "time": 261.0885416666666,
                        "value": 1
                    },
                    {
                        "number": 64,
                        "time": 262.0156249999999,
                        "value": 0
                    },
                    {
                        "number": 64,
                        "time": 262.5885416666666,
                        "value": 1
                    },
                    {
                        "number": 64,
                        "time": 263.5156249999999,
                        "value": 0
                    },
                    {
                        "number": 64,
                        "time": 289.5916666666665,
                        "value": 1
                    },
                    {
                        "number": 64,
                        "time": 291.00937499999986,
                        "value": 0
                    },
                    {
                        "number": 64,
                        "time": 291.20624999999984,
                        "value": 1
                    },
                    {
                        "number": 64,
                        "time": 292.49999999999983,
                        "value": 0
                    },
                    {
                        "number": 64,
                        "time": 292.58437499999985,
                        "value": 1
                    },
                    {
                        "number": 64,
                        "time": 293.51562499999983,
                        "value": 0
                    },
                    {
                        "number": 64,
                        "time": 294.20624999999984,
                        "value": 1
                    },
                    {
                        "number": 64,
                        "time": 295.49999999999983,
                        "value": 0
                    },
                    {
                        "number": 64,
                        "time": 295.5479166666665,
                        "value": 1
                    },
                    {
                        "number": 64,
                        "time": 296.02187499999985,
                        "value": 0
                    },
                    {
                        "number": 64,
                        "time": 296.12499999999983,
                        "value": 1
                    },
                    {
                        "number": 64,
                        "time": 296.5145833333332,
                        "value": 0
                    },
                    {
                        "number": 64,
                        "time": 297.20624999999984,
                        "value": 1
                    },
                    {
                        "number": 64,
                        "time": 298.02916666666647,
                        "value": 0
                    },
                    {
                        "number": 64,
                        "time": 302.19062499999984,
                        "value": 1
                    },
                    {
                        "number": 64,
                        "time": 303.0072916666665,
                        "value": 0
                    },
                    {
                        "number": 64,
                        "time": 305.1031249999998,
                        "value": 1
                    },
                    {
                        "number": 64,
                        "time": 306.00833333333316,
                        "value": 0
                    },
                    {
                        "number": 64,
                        "time": 306.5333333333332,
                        "value": 1
                    },
                    {
                        "number": 64,
                        "time": 307.01145833333317,
                        "value": 0
                    },
                    {
                        "number": 64,
                        "time": 307.58437499999985,
                        "value": 1
                    },
                    {
                        "number": 64,
                        "time": 309.0093749999998,
                        "value": 0
                    },
                    {
                        "number": 64,
                        "time": 309.2062499999998,
                        "value": 1
                    },
                    {
                        "number": 64,
                        "time": 310.50937499999975,
                        "value": 0
                    },
                    {
                        "number": 64,
                        "time": 310.5958333333331,
                        "value": 1
                    },
                    {
                        "number": 64,
                        "time": 311.51458333333306,
                        "value": 0
                    },
                    {
                        "number": 64,
                        "time": 312.2062499999997,
                        "value": 1
                    },
                    {
                        "number": 64,
                        "time": 313.0156249999997,
                        "value": 0
                    },
                    {
                        "number": 64,
                        "time": 325.6114583333331,
                        "value": 1
                    },
                    {
                        "number": 64,
                        "time": 334.5031249999997,
                        "value": 0
                    },
                    {
                        "number": 64,
                        "time": 336.1031249999997,
                        "value": 1
                    },
                    {
                        "number": 64,
                        "time": 336.5177083333331,
                        "value": 0
                    },
                    {
                        "number": 64,
                        "time": 336.6614583333331,
                        "value": 1
                    },
                    {
                        "number": 64,
                        "time": 337.0166666666664,
                        "value": 0
                    },
                    {
                        "number": 64,
                        "time": 337.13229166666645,
                        "value": 1
                    },
                    {
                        "number": 64,
                        "time": 337.4999999999998,
                        "value": 0
                    }
                ]
            },
            "id": 2,
            "name": "Piano left",
            "instrumentNumber": 0,
            "instrument": "acoustic grand piano",
            "instrumentFamily": "piano",
            "channelNumber": 0,
            "isPercussion": false
        },
        {
            "startTime": 0,
            "duration": 0,
            "length": 0,
            "notes": [],
            "controlChanges": {},
            "id": 3,
            "name": "Chopin:  Nocturne Op. 33 Nr. 4"
        },
        {
            "startTime": 0,
            "duration": 0,
            "length": 0,
            "notes": [],
            "controlChanges": {},
            "id": 4,
            "name": "Copyright  2003 by Bernd Krueger"
        },
        {
            "startTime": 0,
            "duration": 0,
            "length": 0,
            "notes": [],
            "controlChanges": {},
            "id": 5,
            "name": "http://www.piano-midi.de"
        },
        {
            "startTime": 0,
            "duration": 0,
            "length": 0,
            "notes": [],
            "controlChanges": {},
            "id": 6,
            "name": "Edition: 2014-02-25"
        },
        {
            "startTime": 0,
            "duration": 0,
            "length": 0,
            "notes": [],
            "controlChanges": {},
            "id": 7,
            "name": "Spur 7"
        }
    ]
}