{
    "header": {
        "PPQ": 480,
        "timeSignature": [
            4,
            4
        ],
        "bpm": 74.41998920910156,
        "name": "Chopin Prelude  No. 15, Opus 28"
    },
    "startTime": 0,
    "duration": 287.01966000000164,
    "tracks": [
        {
            "startTime": 0,
            "duration": 0,
            "length": 0,
            "notes": [],
            "controlChanges": {},
            "id": 0,
            "name": "Chopin Prelude  No. 15, Opus 28"
        },
        {
            "startTime": 0,
            "duration": 287.01966000000164,
            "length": 910,
            "notes": [
                {
                    "name": "F5",
                    "midi": 77,
                    "time": 0,
                    "velocity": 0.3858267716535433,
                    "duration": 0.60467625
                },
                {
                    "name": "C#5",
                    "midi": 73,
                    "time": 0.60467625,
                    "velocity": 0.3464566929133858,
                    "duration": 0.20155875
                },
                {
                    "name": "G#4",
                    "midi": 68,
                    "time": 0.806235,
                    "velocity": 0.3700787401574803,
                    "duration": 1.61247
                },
                {
                    "name": "A#4",
                    "midi": 70,
                    "time": 2.418705,
                    "velocity": 0.3937007874015748,
                    "duration": 0.806235
                },
                {
                    "name": "C5",
                    "midi": 72,
                    "time": 3.22494,
                    "velocity": 0.3858267716535433,
                    "duration": 2.418705
                },
                {
                    "name": "C#5",
                    "midi": 73,
                    "time": 5.643645,
                    "velocity": 0.4015748031496063,
                    "duration": 0.806235
                },
                {
                    "name": "F#4",
                    "midi": 66,
                    "time": 6.44988,
                    "velocity": 0.3543307086614173,
                    "duration": 0.6046762499999998
                },
                {
                    "name": "D#5",
                    "midi": 75,
                    "time": 6.44988,
                    "velocity": 0.4251968503937008,
                    "duration": 0.6046762499999998
                },
                {
                    "name": "C4",
                    "midi": 60,
                    "time": 6.44988,
                    "velocity": 0.3543307086614173,
                    "duration": 2.418704999999999
                },
                {
                    "name": "G#4",
                    "midi": 68,
                    "time": 7.05455625,
                    "velocity": 0.3700787401574803,
                    "duration": 0.20155875000000023
                },
                {
                    "name": "F5",
                    "midi": 77,
                    "time": 7.05455625,
                    "velocity": 0.4409448818897638,
                    "duration": 0.20155875000000023
                },
                {
                    "name": "F#5",
                    "midi": 78,
                    "time": 7.256115,
                    "velocity": 0.44881889763779526,
                    "duration": 1.6124699999999992
                },
                {
                    "name": "A#4",
                    "midi": 70,
                    "time": 7.256115,
                    "velocity": 0.3858267716535433,
                    "duration": 1.6124699999999992
                },
                {
                    "name": "C#4",
                    "midi": 61,
                    "time": 8.868585,
                    "velocity": 0.3464566929133858,
                    "duration": 0.40311750000000046
                },
                {
                    "name": "G#4",
                    "midi": 68,
                    "time": 8.868585,
                    "velocity": 0.3464566929133858,
                    "duration": 0.40311750000000046
                },
                {
                    "name": "F5",
                    "midi": 77,
                    "time": 8.868585,
                    "velocity": 0.41732283464566927,
                    "duration": 0.8062350000000009
                },
                {
                    "name": "G#4",
                    "midi": 68,
                    "time": 9.67482,
                    "velocity": 0.3464566929133858,
                    "duration": 0.40311750000000046
                },
                {
                    "name": "F5",
                    "midi": 77,
                    "time": 9.67482,
                    "velocity": 0.41732283464566927,
                    "duration": 1.2093525000000014
                },
                {
                    "name": "C4",
                    "midi": 60,
                    "time": 9.67482,
                    "velocity": 0.33070866141732286,
                    "duration": 1.6124700000000018
                },
                {
                    "name": "F#4",
                    "midi": 66,
                    "time": 10.481055000000001,
                    "velocity": 0.2677165354330709,
                    "duration": 0.40311750000000046
                },
                {
                    "name": "D#5",
                    "midi": 75,
                    "time": 10.884172500000002,
                    "velocity": 0.3858267716535433,
                    "duration": 0.40311750000000046
                },
                {
                    "name": "C#5",
                    "midi": 73,
                    "time": 11.287290000000002,
                    "velocity": 0.36220472440944884,
                    "duration": 0.7054556250000008
                },
                {
                    "name": "D#5",
                    "midi": 75,
                    "time": 11.992745625000003,
                    "velocity": 0.3543307086614173,
                    "duration": 0.10077937500000012
                },
                {
                    "name": "D#5",
                    "midi": 75,
                    "time": 12.093525000000003,
                    "velocity": 0.4015748031496063,
                    "duration": 0.11421662499999918
                },
                {
                    "name": "F5",
                    "midi": 77,
                    "time": 12.207741625000002,
                    "velocity": 0.36220472440944884,
                    "duration": 0.11421662499999918
                },
                {
                    "name": "D#5",
                    "midi": 75,
                    "time": 12.321958250000002,
                    "velocity": 0.36220472440944884,
                    "duration": 0.11421662499999918
                },
                {
                    "name": "D5",
                    "midi": 74,
                    "time": 12.436174875,
                    "velocity": 0.4015748031496063,
                    "duration": 0.11421662499999918
                },
                {
                    "name": "D#5",
                    "midi": 75,
                    "time": 12.5503915,
                    "velocity": 0.36220472440944884,
                    "duration": 0.11421662499999918
                },
                {
                    "name": "F5",
                    "midi": 77,
                    "time": 12.664608124999999,
                    "velocity": 0.36220472440944884,
                    "duration": 0.11421662499999918
                },
                {
                    "name": "F#5",
                    "midi": 78,
                    "time": 12.778824749999998,
                    "velocity": 0.36220472440944884,
                    "duration": 0.1209352500000005
                },
                {
                    "name": "F5",
                    "midi": 77,
                    "time": 12.899759999999999,
                    "velocity": 0.3858267716535433,
                    "duration": 0.6046762500000007
                },
                {
                    "name": "C#5",
                    "midi": 73,
                    "time": 13.50443625,
                    "velocity": 0.3464566929133858,
                    "duration": 0.20155875000000023
                },
                {
                    "name": "G#4",
                    "midi": 68,
                    "time": 13.705995,
                    "velocity": 0.36220472440944884,
                    "duration": 1.61247
                },
                {
                    "name": "A#4",
                    "midi": 70,
                    "time": 15.318465,
                    "velocity": 0.3937007874015748,
                    "duration": 0.8062350000000009
                },
                {
                    "name": "C5",
                    "midi": 72,
                    "time": 16.1247,
                    "velocity": 0.3858267716535433,
                    "duration": 2.418704999999999
                },
                {
                    "name": "C#5",
                    "midi": 73,
                    "time": 18.543405,
                    "velocity": 0.4015748031496063,
                    "duration": 0.8062350000000009
                },
                {
                    "name": "F#4",
                    "midi": 66,
                    "time": 19.34964,
                    "velocity": 0.3543307086614173,
                    "duration": 0.6046762500000007
                },
                {
                    "name": "D#5",
                    "midi": 75,
                    "time": 19.34964,
                    "velocity": 0.4251968503937008,
                    "duration": 0.6046762500000007
                },
                {
                    "name": "C4",
                    "midi": 60,
                    "time": 19.34964,
                    "velocity": 0.3543307086614173,
                    "duration": 2.4187050000000028
                },
                {
                    "name": "G#4",
                    "midi": 68,
                    "time": 19.95431625,
                    "velocity": 0.3700787401574803,
                    "duration": 0.20155875000000023
                },
                {
                    "name": "F5",
                    "midi": 77,
                    "time": 19.95431625,
                    "velocity": 0.4409448818897638,
                    "duration": 0.20155875000000023
                },
                {
                    "name": "F#5",
                    "midi": 78,
                    "time": 20.155875,
                    "velocity": 0.44881889763779526,
                    "duration": 1.6124700000000018
                },
                {
                    "name": "A#4",
                    "midi": 70,
                    "time": 20.155875,
                    "velocity": 0.3858267716535433,
                    "duration": 1.6124700000000018
                },
                {
                    "name": "C#4",
                    "midi": 61,
                    "time": 21.768345000000004,
                    "velocity": 0.31496062992125984,
                    "duration": 0.40311750000000046
                },
                {
                    "name": "G#4",
                    "midi": 68,
                    "time": 21.768345000000004,
                    "velocity": 0.3464566929133858,
                    "duration": 0.40311750000000046
                },
                {
                    "name": "F5",
                    "midi": 77,
                    "time": 21.768345000000004,
                    "velocity": 0.41732283464566927,
                    "duration": 0.8062350000000009
                },
                {
                    "name": "G#4",
                    "midi": 68,
                    "time": 22.574580000000005,
                    "velocity": 0.3464566929133858,
                    "duration": 0.40311750000000046
                },
                {
                    "name": "F5",
                    "midi": 77,
                    "time": 22.574580000000005,
                    "velocity": 0.41732283464566927,
                    "duration": 1.2093525000000014
                },
                {
                    "name": "C4",
                    "midi": 60,
                    "time": 22.574580000000005,
                    "velocity": 0.3464566929133858,
                    "duration": 1.6124700000000018
                },
                {
                    "name": "F#4",
                    "midi": 66,
                    "time": 23.380815000000005,
                    "velocity": 0.2677165354330709,
                    "duration": 0.40311750000000046
                },
                {
                    "name": "D#5",
                    "midi": 75,
                    "time": 23.783932500000006,
                    "velocity": 0.3858267716535433,
                    "duration": 0.40311750000000046
                },
                {
                    "name": "C#5",
                    "midi": 73,
                    "time": 24.187050000000006,
                    "velocity": 0.36220472440944884,
                    "duration": 0.8062350000000009
                },
                {
                    "name": "C5",
                    "midi": 72,
                    "time": 24.993285000000007,
                    "velocity": 0.4015748031496063,
                    "duration": 0.40311750000000046
                },
                {
                    "name": "C#5",
                    "midi": 73,
                    "time": 25.396402500000008,
                    "velocity": 0.3858267716535433,
                    "duration": 0.40311750000000046
                },
                {
                    "name": "D#5",
                    "midi": 75,
                    "time": 25.79952000000001,
                    "velocity": 0.4251968503937008,
                    "duration": 0.8062350000000009
                },
                {
                    "name": "D#5",
                    "midi": 75,
                    "time": 26.60575500000001,
                    "velocity": 0.4251968503937008,
                    "duration": 1.6124700000000018
                },
                {
                    "name": "F5",
                    "midi": 77,
                    "time": 28.21822500000001,
                    "velocity": 0.4251968503937008,
                    "duration": 0.8062350000000009
                },
                {
                    "name": "F#5",
                    "midi": 78,
                    "time": 29.024460000000012,
                    "velocity": 0.44881889763779526,
                    "duration": 0.40311750000000046
                },
                {
                    "name": "F5",
                    "midi": 77,
                    "time": 29.427577500000012,
                    "velocity": 0.41732283464566927,
                    "duration": 0.40311750000000046
                },
                {
                    "name": "D#5",
                    "midi": 75,
                    "time": 29.830695000000013,
                    "velocity": 0.41732283464566927,
                    "duration": 0.40311750000000046
                },
                {
                    "name": "C#5",
                    "midi": 73,
                    "time": 30.233812500000013,
                    "velocity": 0.41732283464566927,
                    "duration": 0.40311750000000046
                },
                {
                    "name": "F5",
                    "midi": 77,
                    "time": 30.636930000000014,
                    "velocity": 0.4330708661417323,
                    "duration": 1.6124700000000018
                },
                {
                    "name": "D#5",
                    "midi": 75,
                    "time": 32.249400000000016,
                    "velocity": 0.44881889763779526,
                    "duration": 0.40311750000000046
                },
                {
                    "name": "B4",
                    "midi": 71,
                    "time": 32.652517500000016,
                    "velocity": 0.4015748031496063,
                    "duration": 0.40311750000000046
                },
                {
                    "name": "A#4",
                    "midi": 70,
                    "time": 33.05563500000002,
                    "velocity": 0.4251968503937008,
                    "duration": 0.40311750000000046
                },
                {
                    "name": "G#4",
                    "midi": 68,
                    "time": 33.45875250000002,
                    "velocity": 0.4251968503937008,
                    "duration": 0.40311750000000046
                },
                {
                    "name": "A#4",
                    "midi": 70,
                    "time": 33.86187000000002,
                    "velocity": 0.4645669291338583,
                    "duration": 0.705455624999999
                },
                {
                    "name": "B4",
                    "midi": 71,
                    "time": 34.466546250000015,
                    "velocity": 0.4015748031496063,
                    "duration": 0.06718624999999889
                },
                {
                    "name": "A#4",
                    "midi": 70,
                    "time": 34.53373250000001,
                    "velocity": 0.4015748031496063,
                    "duration": 0.067186250000006
                },
                {
                    "name": "G#4",
                    "midi": 68,
                    "time": 34.60091875000002,
                    "velocity": 0.4015748031496063,
                    "duration": 0.06718624999999889
                },
                {
                    "name": "A#4",
                    "midi": 70,
                    "time": 34.66810500000002,
                    "velocity": 0.4251968503937008,
                    "duration": 0.6046762499999971
                },
                {
                    "name": "B4",
                    "midi": 71,
                    "time": 35.272781250000016,
                    "velocity": 0.3700787401574803,
                    "duration": 0.20155874999999668
                },
                {
                    "name": "G#4",
                    "midi": 68,
                    "time": 35.47434000000001,
                    "velocity": 0.4015748031496063,
                    "duration": 0.8062350000000009
                },
                {
                    "name": "D#5",
                    "midi": 75,
                    "time": 36.28057500000001,
                    "velocity": 0.4881889763779528,
                    "duration": 0.8062350000000009
                },
                {
                    "name": "C#5",
                    "midi": 73,
                    "time": 37.086810000000014,
                    "velocity": 0.5118110236220472,
                    "duration": 0.8062350000000009
                },
                {
                    "name": "E5",
                    "midi": 76,
                    "time": 37.893045000000015,
                    "velocity": 0.4645669291338583,
                    "duration": 0.8062350000000009
                },
                {
                    "name": "D#5",
                    "midi": 75,
                    "time": 38.699280000000016,
                    "velocity": 0.49606299212598426,
                    "duration": 0.8062350000000009
                },
                {
                    "name": "D#5",
                    "midi": 75,
                    "time": 39.50551500000002,
                    "velocity": 0.4409448818897638,
                    "duration": 1.6124700000000018
                },
                {
                    "name": "F5",
                    "midi": 77,
                    "time": 41.11798500000002,
                    "velocity": 0.44881889763779526,
                    "duration": 0.8062350000000009
                },
                {
                    "name": "F#5",
                    "midi": 78,
                    "time": 41.92422000000002,
                    "velocity": 0.49606299212598426,
                    "duration": 0.40311750000000046
                },
                {
                    "name": "F5",
                    "midi": 77,
                    "time": 42.32733750000002,
                    "velocity": 0.4251968503937008,
                    "duration": 0.40311750000000046
                },
                {
                    "name": "D#5",
                    "midi": 75,
                    "time": 42.73045500000002,
                    "velocity": 0.4251968503937008,
                    "duration": 0.40311750000000046
                },
                {
                    "name": "C#5",
                    "midi": 73,
                    "time": 43.13357250000002,
                    "velocity": 0.4251968503937008,
                    "duration": 0.40311750000000046
                },
                {
                    "name": "F5",
                    "midi": 77,
                    "time": 43.53669000000002,
                    "velocity": 0.4015748031496063,
                    "duration": 2.0155875000000023
                },
                {
                    "name": "C#5",
                    "midi": 73,
                    "time": 45.552277500000024,
                    "velocity": 0.4251968503937008,
                    "duration": 0.40311750000000046
                },
                {
                    "name": "C5",
                    "midi": 72,
                    "time": 45.955395000000024,
                    "velocity": 0.4251968503937008,
                    "duration": 0.40311750000000046
                },
                {
                    "name": "A#4",
                    "midi": 70,
                    "time": 46.358512500000025,
                    "velocity": 0.4251968503937008,
                    "duration": 0.40311750000000046
                },
                {
                    "name": "C5",
                    "midi": 72,
                    "time": 46.761630000000025,
                    "velocity": 0.4645669291338583,
                    "duration": 0.705455624999999
                },
                {
                    "name": "C#5",
                    "midi": 73,
                    "time": 47.36630625000002,
                    "velocity": 0.4094488188976378,
                    "duration": 0.06718624999999889
                },
                {
                    "name": "C5",
                    "midi": 72,
                    "time": 47.43349250000002,
                    "velocity": 0.4094488188976378,
                    "duration": 0.067186250000006
                },
                {
                    "name": "A#4",
                    "midi": 70,
                    "time": 47.50067875000003,
                    "velocity": 0.41732283464566927,
                    "duration": 0.06718624999999889
                },
                {
                    "name": "C5",
                    "midi": 72,
                    "time": 47.567865000000026,
                    "velocity": 0.4330708661417323,
                    "duration": 0.40311750000000046
                },
                {
                    "name": "C#5",
                    "midi": 73,
                    "time": 47.97098250000003,
                    "velocity": 0.4015748031496063,
                    "duration": 0.40311750000000046
                },
                {
                    "name": "A#4",
                    "midi": 70,
                    "time": 48.37410000000003,
                    "velocity": 0.4015748031496063,
                    "duration": 0.8062350000000009
                },
                {
                    "name": "F5",
                    "midi": 77,
                    "time": 49.18033500000003,
                    "velocity": 0.4645669291338583,
                    "duration": 0.8062350000000009
                },
                {
                    "name": "D#5",
                    "midi": 75,
                    "time": 49.98657000000003,
                    "velocity": 0.4645669291338583,
                    "duration": 0.8062350000000009
                },
                {
                    "name": "F#5",
                    "midi": 78,
                    "time": 50.79280500000003,
                    "velocity": 0.49606299212598426,
                    "duration": 0.8062350000000009
                },
                {
                    "name": "F5",
                    "midi": 77,
                    "time": 51.59904000000003,
                    "velocity": 0.44881889763779526,
                    "duration": 0.40311750000000046
                },
                {
                    "name": "C#5",
                    "midi": 73,
                    "time": 52.00215750000003,
                    "velocity": 0.41732283464566927,
                    "duration": 0.40311750000000046
                },
                {
                    "name": "C5",
                    "midi": 72,
                    "time": 52.40527500000003,
                    "velocity": 0.41732283464566927,
                    "duration": 0.40311750000000046
                },
                {
                    "name": "A#4",
                    "midi": 70,
                    "time": 52.80839250000003,
                    "velocity": 0.41732283464566927,
                    "duration": 0.40311750000000046
                },
                {
                    "name": "C5",
                    "midi": 72,
                    "time": 53.21151000000003,
                    "velocity": 0.4645669291338583,
                    "duration": 0.705455624999999
                },
                {
                    "name": "C#5",
                    "midi": 73,
                    "time": 53.81618625000003,
                    "velocity": 0.4330708661417323,
                    "duration": 0.06718624999999889
                },
                {
                    "name": "C5",
                    "midi": 72,
                    "time": 53.88337250000003,
                    "velocity": 0.4330708661417323,
                    "duration": 0.067186250000006
                },
                {
                    "name": "A#4",
                    "midi": 70,
                    "time": 53.950558750000035,
                    "velocity": 0.4330708661417323,
                    "duration": 0.06718624999999889
                },
                {
                    "name": "C5",
                    "midi": 72,
                    "time": 54.01774500000003,
                    "velocity": 0.4330708661417323,
                    "duration": 0.6046762499999971
                },
                {
                    "name": "C#5",
                    "midi": 73,
                    "time": 54.62242125000003,
                    "velocity": 0.4015748031496063,
                    "duration": 0.20155874999999668
                },
                {
                    "name": "A#4",
                    "midi": 70,
                    "time": 54.82398000000003,
                    "velocity": 0.4015748031496063,
                    "duration": 0.8062350000000009
                },
                {
                    "name": "D#5",
                    "midi": 75,
                    "time": 55.63021500000003,
                    "velocity": 0.4881889763779528,
                    "duration": 0.8062350000000009
                },
                {
                    "name": "F5",
                    "midi": 77,
                    "time": 56.43645000000003,
                    "velocity": 0.5118110236220472,
                    "duration": 0.8062350000000009
                },
                {
                    "name": "D#5",
                    "midi": 75,
                    "time": 57.24268500000003,
                    "velocity": 0.4881889763779528,
                    "duration": 0.8062350000000009
                },
                {
                    "name": "F5",
                    "midi": 77,
                    "time": 58.04892000000003,
                    "velocity": 0.5196850393700787,
                    "duration": 2.4187050000000028
                },
                {
                    "name": "D#5",
                    "midi": 75,
                    "time": 60.467625000000034,
                    "velocity": 0.4015748031496063,
                    "duration": 0.8062350000000009
                },
                {
                    "name": "F5",
                    "midi": 77,
                    "time": 61.273860000000035,
                    "velocity": 0.3858267716535433,
                    "duration": 0.6046762499999971
                },
                {
                    "name": "C#5",
                    "midi": 73,
                    "time": 61.87853625000003,
                    "velocity": 0.3543307086614173,
                    "duration": 0.20155874999999668
                },
                {
                    "name": "G#4",
                    "midi": 68,
                    "time": 62.08009500000003,
                    "velocity": 0.3858267716535433,
                    "duration": 1.6124700000000018
                },
                {
                    "name": "A#4",
                    "midi": 70,
                    "time": 63.69256500000003,
                    "velocity": 0.3858267716535433,
                    "duration": 0.8062350000000009
                },
                {
                    "name": "C5",
                    "midi": 72,
                    "time": 64.49880000000003,
                    "velocity": 0.3858267716535433,
                    "duration": 2.4187050000000028
                },
                {
                    "name": "C#5",
                    "midi": 73,
                    "time": 66.91750500000003,
                    "velocity": 0.4015748031496063,
                    "duration": 0.8062350000000009
                },
                {
                    "name": "C4",
                    "midi": 60,
                    "time": 67.72374000000003,
                    "velocity": 0.3543307086614173,
                    "duration": 2.4187050000000028
                },
                {
                    "name": "F#4",
                    "midi": 66,
                    "time": 67.72374000000003,
                    "velocity": 0.3543307086614173,
                    "duration": 0.6046762499999971
                },
                {
                    "name": "D#5",
                    "midi": 75,
                    "time": 67.72374000000003,
                    "velocity": 0.4251968503937008,
                    "duration": 0.6046762499999971
                },
                {
                    "name": "F5",
                    "midi": 77,
                    "time": 68.32841625000003,
                    "velocity": 0.4409448818897638,
                    "duration": 0.20155875000000378
                },
                {
                    "name": "G#4",
                    "midi": 68,
                    "time": 68.32841625000003,
                    "velocity": 0.3700787401574803,
                    "duration": 0.20155875000000378
                },
                {
                    "name": "A#4",
                    "midi": 70,
                    "time": 68.52997500000004,
                    "velocity": 0.3858267716535433,
                    "duration": 1.6124700000000018
                },
                {
                    "name": "F#5",
                    "midi": 78,
                    "time": 68.52997500000004,
                    "velocity": 0.44881889763779526,
                    "duration": 1.6124700000000018
                },
                {
                    "name": "C#4",
                    "midi": 61,
                    "time": 70.14244500000004,
                    "velocity": 0.3464566929133858,
                    "duration": 0.40311749999999336
                },
                {
                    "name": "F5",
                    "midi": 77,
                    "time": 70.14244500000004,
                    "velocity": 0.41732283464566927,
                    "duration": 0.8062349999999867
                },
                {
                    "name": "G#4",
                    "midi": 68,
                    "time": 70.14244500000004,
                    "velocity": 0.3464566929133858,
                    "duration": 0.40311749999999336
                },
                {
                    "name": "C4",
                    "midi": 60,
                    "time": 70.94868000000002,
                    "velocity": 0.3464566929133858,
                    "duration": 0.40311749999999336
                },
                {
                    "name": "G#4",
                    "midi": 68,
                    "time": 70.94868000000002,
                    "velocity": 0.3464566929133858,
                    "duration": 0.40311749999999336
                },
                {
                    "name": "F5",
                    "midi": 77,
                    "time": 70.94868000000002,
                    "velocity": 0.41732283464566927,
                    "duration": 1.20935249999998
                },
                {
                    "name": "F#4",
                    "midi": 66,
                    "time": 71.75491500000001,
                    "velocity": 0.2677165354330709,
                    "duration": 0.40311749999999336
                },
                {
                    "name": "C4",
                    "midi": 60,
                    "time": 71.75491500000001,
                    "velocity": 0.31496062992125984,
                    "duration": 0.40311749999999336
                },
                {
                    "name": "D#5",
                    "midi": 75,
                    "time": 72.1580325,
                    "velocity": 0.3858267716535433,
                    "duration": 0.40311749999999336
                },
                {
                    "name": "C#5",
                    "midi": 73,
                    "time": 72.56115,
                    "velocity": 0.36220472440944884,
                    "duration": 0.8062350000000009
                },
                {
                    "name": "D5",
                    "midi": 74,
                    "time": 73.367385,
                    "velocity": 0.4015748031496063,
                    "duration": 0.11421662499999741
                },
                {
                    "name": "D#5",
                    "midi": 75,
                    "time": 73.481601625,
                    "velocity": 0.3937007874015748,
                    "duration": 0.11421662499999741
                },
                {
                    "name": "E5",
                    "midi": 76,
                    "time": 73.59581825,
                    "velocity": 0.4094488188976378,
                    "duration": 0.11421662499999741
                },
                {
                    "name": "F5",
                    "midi": 77,
                    "time": 73.71003487499999,
                    "velocity": 0.4409448818897638,
                    "duration": 0.11421662499999741
                },
                {
                    "name": "G#5",
                    "midi": 80,
                    "time": 73.82425149999999,
                    "velocity": 0.4251968503937008,
                    "duration": 0.11421662499999741
                },
                {
                    "name": "G5",
                    "midi": 79,
                    "time": 73.93846812499999,
                    "velocity": 0.41732283464566927,
                    "duration": 0.11421662499999741
                },
                {
                    "name": "F#5",
                    "midi": 78,
                    "time": 74.05268474999998,
                    "velocity": 0.4094488188976378,
                    "duration": 0.12093525000000227
                },
                {
                    "name": "F5",
                    "midi": 77,
                    "time": 74.17361999999999,
                    "velocity": 0.3858267716535433,
                    "duration": 0.6046762499999971
                },
                {
                    "name": "C#5",
                    "midi": 73,
                    "time": 74.77829624999998,
                    "velocity": 0.3464566929133858,
                    "duration": 0.20155875000000378
                },
                {
                    "name": "G#4",
                    "midi": 68,
                    "time": 74.97985499999999,
                    "velocity": 0.36220472440944884,
                    "duration": 1.6124700000000018
                },
                {
                    "name": "A#4",
                    "midi": 70,
                    "time": 76.59232499999999,
                    "velocity": 0.3779527559055118,
                    "duration": 0.8062350000000009
                },
                {
                    "name": "C5",
                    "midi": 72,
                    "time": 77.39855999999999,
                    "velocity": 0.3858267716535433,
                    "duration": 2.4187050000000028
                },
                {
                    "name": "C#5",
                    "midi": 73,
                    "time": 79.81726499999999,
                    "velocity": 0.4015748031496063,
                    "duration": 0.8062350000000009
                },
                {
                    "name": "C4",
                    "midi": 60,
                    "time": 80.62349999999999,
                    "velocity": 0.3543307086614173,
                    "duration": 2.4187050000000028
                },
                {
                    "name": "F#4",
                    "midi": 66,
                    "time": 80.62349999999999,
                    "velocity": 0.3543307086614173,
                    "duration": 0.6046762499999971
                },
                {
                    "name": "D#5",
                    "midi": 75,
                    "time": 80.62349999999999,
                    "velocity": 0.4251968503937008,
                    "duration": 0.6046762499999971
                },
                {
                    "name": "F5",
                    "midi": 77,
                    "time": 81.22817624999999,
                    "velocity": 0.4409448818897638,
                    "duration": 0.20155875000000378
                },
                {
                    "name": "G#4",
                    "midi": 68,
                    "time": 81.22817624999999,
                    "velocity": 0.3700787401574803,
                    "duration": 0.20155875000000378
                },
                {
                    "name": "A#4",
                    "midi": 70,
                    "time": 81.429735,
                    "velocity": 0.3858267716535433,
                    "duration": 1.6124700000000018
                },
                {
                    "name": "F#5",
                    "midi": 78,
                    "time": 81.429735,
                    "velocity": 0.44881889763779526,
                    "duration": 1.6124700000000018
                },
                {
                    "name": "D#4",
                    "midi": 63,
                    "time": 83.042205,
                    "velocity": 0.30708661417322836,
                    "duration": 0.40311749999999336
                },
                {
                    "name": "C5",
                    "midi": 72,
                    "time": 83.042205,
                    "velocity": 0.36220472440944884,
                    "duration": 0.8062349999999867
                },
                {
                    "name": "D#5",
                    "midi": 75,
                    "time": 83.84843999999998,
                    "velocity": 0.36220472440944884,
                    "duration": 1.6124700000000018
                },
                {
                    "name": "F#4",
                    "midi": 66,
                    "time": 83.84843999999998,
                    "velocity": 0.30708661417322836,
                    "duration": 1.6124700000000018
                },
                {
                    "name": "G#3",
                    "midi": 56,
                    "time": 87.07337999999999,
                    "velocity": 0.2440944881889764,
                    "duration": 0.382961624999993
                },
                {
                    "name": "G#3",
                    "midi": 56,
                    "time": 87.47649749999998,
                    "velocity": 0.23622047244094488,
                    "duration": 0.382961624999993
                },
                {
                    "name": "G#3",
                    "midi": 56,
                    "time": 87.87961499999997,
                    "velocity": 0.2440944881889764,
                    "duration": 0.382961624999993
                },
                {
                    "name": "G#3",
                    "midi": 56,
                    "time": 88.28273249999997,
                    "velocity": 0.25196850393700787,
                    "duration": 0.382961624999993
                },
                {
                    "name": "G#3",
                    "midi": 56,
                    "time": 88.68584999999996,
                    "velocity": 0.2755905511811024,
                    "duration": 0.382961624999993
                },
                {
                    "name": "G#3",
                    "midi": 56,
                    "time": 89.08896749999995,
                    "velocity": 0.25984251968503935,
                    "duration": 0.382961624999993
                },
                {
                    "name": "G#3",
                    "midi": 56,
                    "time": 89.49208499999995,
                    "velocity": 0.2440944881889764,
                    "duration": 0.382961624999993
                },
                {
                    "name": "G#3",
                    "midi": 56,
                    "time": 89.89520249999994,
                    "velocity": 0.2440944881889764,
                    "duration": 0.382961624999993
                },
                {
                    "name": "G#3",
                    "midi": 56,
                    "time": 90.29831999999993,
                    "velocity": 0.30708661417322836,
                    "duration": 0.382961624999993
                },
                {
                    "name": "G#3",
                    "midi": 56,
                    "time": 90.70143749999993,
                    "velocity": 0.28346456692913385,
                    "duration": 0.382961624999993
                },
                {
                    "name": "G#3",
                    "midi": 56,
                    "time": 91.10455499999992,
                    "velocity": 0.29133858267716534,
                    "duration": 0.382961624999993
                },
                {
                    "name": "G#3",
                    "midi": 56,
                    "time": 91.50767249999991,
                    "velocity": 0.29133858267716534,
                    "duration": 0.382961624999993
                },
                {
                    "name": "G#3",
                    "midi": 56,
                    "time": 91.9107899999999,
                    "velocity": 0.3543307086614173,
                    "duration": 0.382961624999993
                },
                {
                    "name": "G#3",
                    "midi": 56,
                    "time": 92.3139074999999,
                    "velocity": 0.2992125984251969,
                    "duration": 0.382961624999993
                },
                {
                    "name": "G#3",
                    "midi": 56,
                    "time": 92.7170249999999,
                    "velocity": 0.2755905511811024,
                    "duration": 0.382961624999993
                },
                {
                    "name": "G#3",
                    "midi": 56,
                    "time": 93.12014249999989,
                    "velocity": 0.28346456692913385,
                    "duration": 0.382961624999993
                },
                {
                    "name": "G#3",
                    "midi": 56,
                    "time": 93.52325999999988,
                    "velocity": 0.3858267716535433,
                    "duration": 0.382961624999993
                },
                {
                    "name": "G#3",
                    "midi": 56,
                    "time": 93.92637749999987,
                    "velocity": 0.33070866141732286,
                    "duration": 0.382961624999993
                },
                {
                    "name": "G#3",
                    "midi": 56,
                    "time": 94.32949499999987,
                    "velocity": 0.33070866141732286,
                    "duration": 0.382961624999993
                },
                {
                    "name": "G#3",
                    "midi": 56,
                    "time": 94.73261249999986,
                    "velocity": 0.33070866141732286,
                    "duration": 0.382961624999993
                },
                {
                    "name": "G#3",
                    "midi": 56,
                    "time": 95.13572999999985,
                    "velocity": 0.3858267716535433,
                    "duration": 0.382961624999993
                },
                {
                    "name": "G#3",
                    "midi": 56,
                    "time": 95.53884749999985,
                    "velocity": 0.31496062992125984,
                    "duration": 0.382961624999993
                },
                {
                    "name": "G#3",
                    "midi": 56,
                    "time": 95.94196499999984,
                    "velocity": 0.30708661417322836,
                    "duration": 0.382961624999993
                },
                {
                    "name": "G#3",
                    "midi": 56,
                    "time": 96.34508249999983,
                    "velocity": 0.30708661417322836,
                    "duration": 0.382961624999993
                },
                {
                    "name": "G#3",
                    "midi": 56,
                    "time": 96.74819999999983,
                    "velocity": 0.3858267716535433,
                    "duration": 0.382961624999993
                },
                {
                    "name": "G#3",
                    "midi": 56,
                    "time": 97.15131749999982,
                    "velocity": 0.31496062992125984,
                    "duration": 0.382961624999993
                },
                {
                    "name": "G#3",
                    "midi": 56,
                    "time": 97.55443499999981,
                    "velocity": 0.33070866141732286,
                    "duration": 0.382961624999993
                },
                {
                    "name": "G#3",
                    "midi": 56,
                    "time": 97.9575524999998,
                    "velocity": 0.3228346456692913,
                    "duration": 0.382961624999993
                },
                {
                    "name": "G#3",
                    "midi": 56,
                    "time": 98.3606699999998,
                    "velocity": 0.33070866141732286,
                    "duration": 0.382961624999993
                },
                {
                    "name": "G#3",
                    "midi": 56,
                    "time": 98.7637874999998,
                    "velocity": 0.3228346456692913,
                    "duration": 0.382961624999993
                },
                {
                    "name": "G#3",
                    "midi": 56,
                    "time": 99.16690499999979,
                    "velocity": 0.31496062992125984,
                    "duration": 0.382961624999993
                },
                {
                    "name": "G#3",
                    "midi": 56,
                    "time": 99.57002249999978,
                    "velocity": 0.31496062992125984,
                    "duration": 0.382961624999993
                },
                {
                    "name": "G#3",
                    "midi": 56,
                    "time": 99.97313999999977,
                    "velocity": 0.3464566929133858,
                    "duration": 0.382961624999993
                },
                {
                    "name": "G#3",
                    "midi": 56,
                    "time": 100.37625749999977,
                    "velocity": 0.30708661417322836,
                    "duration": 0.382961624999993
                },
                {
                    "name": "G#3",
                    "midi": 56,
                    "time": 100.77937499999976,
                    "velocity": 0.30708661417322836,
                    "duration": 0.382961624999993
                },
                {
                    "name": "G#3",
                    "midi": 56,
                    "time": 101.18249249999975,
                    "velocity": 0.29133858267716534,
                    "duration": 0.382961624999993
                },
                {
                    "name": "G#3",
                    "midi": 56,
                    "time": 101.58560999999975,
                    "velocity": 0.3228346456692913,
                    "duration": 0.382961624999993
                },
                {
                    "name": "G#3",
                    "midi": 56,
                    "time": 101.98872749999974,
                    "velocity": 0.29133858267716534,
                    "duration": 0.382961624999993
                },
                {
                    "name": "G#3",
                    "midi": 56,
                    "time": 102.39184499999973,
                    "velocity": 0.2755905511811024,
                    "duration": 0.382961624999993
                },
                {
                    "name": "G#3",
                    "midi": 56,
                    "time": 102.79496249999973,
                    "velocity": 0.2755905511811024,
                    "duration": 0.382961624999993
                },
                {
                    "name": "G#3",
                    "midi": 56,
                    "time": 103.19807999999972,
                    "velocity": 0.31496062992125984,
                    "duration": 0.382961624999993
                },
                {
                    "name": "G#3",
                    "midi": 56,
                    "time": 103.60119749999971,
                    "velocity": 0.2755905511811024,
                    "duration": 0.382961624999993
                },
                {
                    "name": "G#3",
                    "midi": 56,
                    "time": 104.0043149999997,
                    "velocity": 0.2755905511811024,
                    "duration": 0.382961624999993
                },
                {
                    "name": "G#3",
                    "midi": 56,
                    "time": 104.4074324999997,
                    "velocity": 0.2440944881889764,
                    "duration": 0.382961624999993
                },
                {
                    "name": "G#3",
                    "midi": 56,
                    "time": 104.8105499999997,
                    "velocity": 0.2992125984251969,
                    "duration": 0.382961624999993
                },
                {
                    "name": "G#3",
                    "midi": 56,
                    "time": 105.21366749999969,
                    "velocity": 0.2755905511811024,
                    "duration": 0.382961624999993
                },
                {
                    "name": "G#3",
                    "midi": 56,
                    "time": 105.61678499999968,
                    "velocity": 0.2755905511811024,
                    "duration": 0.382961624999993
                },
                {
                    "name": "G#3",
                    "midi": 56,
                    "time": 106.01990249999967,
                    "velocity": 0.25984251968503935,
                    "duration": 0.382961624999993
                },
                {
                    "name": "G#3",
                    "midi": 56,
                    "time": 106.42301999999967,
                    "velocity": 0.2992125984251969,
                    "duration": 0.382961624999993
                },
                {
                    "name": "G#3",
                    "midi": 56,
                    "time": 106.82613749999966,
                    "velocity": 0.31496062992125984,
                    "duration": 0.382961624999993
                },
                {
                    "name": "G#3",
                    "midi": 56,
                    "time": 107.22925499999965,
                    "velocity": 0.3228346456692913,
                    "duration": 0.382961624999993
                },
                {
                    "name": "G#3",
                    "midi": 56,
                    "time": 107.63237249999965,
                    "velocity": 0.3464566929133858,
                    "duration": 0.382961624999993
                },
                {
                    "name": "G#3",
                    "midi": 56,
                    "time": 108.03548999999964,
                    "velocity": 0.36220472440944884,
                    "duration": 0.382961624999993
                },
                {
                    "name": "G#3",
                    "midi": 56,
                    "time": 108.43860749999963,
                    "velocity": 0.3779527559055118,
                    "duration": 0.382961624999993
                },
                {
                    "name": "G#3",
                    "midi": 56,
                    "time": 108.84172499999963,
                    "velocity": 0.3858267716535433,
                    "duration": 0.382961624999993
                },
                {
                    "name": "G#3",
                    "midi": 56,
                    "time": 109.24484249999962,
                    "velocity": 0.4015748031496063,
                    "duration": 0.382961624999993
                },
                {
                    "name": "G#3",
                    "midi": 56,
                    "time": 109.64795999999961,
                    "velocity": 0.41732283464566927,
                    "duration": 0.382961624999993
                },
                {
                    "name": "G#4",
                    "midi": 68,
                    "time": 110.05107749999961,
                    "velocity": 0.41732283464566927,
                    "duration": 0.382961624999993
                },
                {
                    "name": "G#3",
                    "midi": 56,
                    "time": 110.05107749999961,
                    "velocity": 0.3543307086614173,
                    "duration": 0.382961624999993
                },
                {
                    "name": "G#4",
                    "midi": 68,
                    "time": 110.4541949999996,
                    "velocity": 0.4330708661417323,
                    "duration": 0.382961624999993
                },
                {
                    "name": "G#3",
                    "midi": 56,
                    "time": 110.4541949999996,
                    "velocity": 0.36220472440944884,
                    "duration": 0.382961624999993
                },
                {
                    "name": "G#4",
                    "midi": 68,
                    "time": 110.8573124999996,
                    "velocity": 0.4409448818897638,
                    "duration": 0.382961624999993
                },
                {
                    "name": "G#3",
                    "midi": 56,
                    "time": 110.8573124999996,
                    "velocity": 0.3700787401574803,
                    "duration": 0.382961624999993
                },
                {
                    "name": "G#4",
                    "midi": 68,
                    "time": 111.26042999999959,
                    "velocity": 0.44881889763779526,
                    "duration": 0.382961624999993
                },
                {
                    "name": "G#3",
                    "midi": 56,
                    "time": 111.26042999999959,
                    "velocity": 0.3779527559055118,
                    "duration": 0.382961624999993
                },
                {
                    "name": "G#4",
                    "midi": 68,
                    "time": 111.66354749999958,
                    "velocity": 0.4645669291338583,
                    "duration": 0.382961624999993
                },
                {
                    "name": "G#3",
                    "midi": 56,
                    "time": 111.66354749999958,
                    "velocity": 0.3858267716535433,
                    "duration": 0.382961624999993
                },
                {
                    "name": "G#4",
                    "midi": 68,
                    "time": 112.06666499999957,
                    "velocity": 0.47244094488188976,
                    "duration": 0.382961624999993
                },
                {
                    "name": "G#3",
                    "midi": 56,
                    "time": 112.06666499999957,
                    "velocity": 0.3937007874015748,
                    "duration": 0.382961624999993
                },
                {
                    "name": "G#4",
                    "midi": 68,
                    "time": 112.46978249999957,
                    "velocity": 0.48031496062992124,
                    "duration": 0.382961624999993
                },
                {
                    "name": "G#3",
                    "midi": 56,
                    "time": 112.46978249999957,
                    "velocity": 0.4015748031496063,
                    "duration": 0.382961624999993
                },
                {
                    "name": "G#4",
                    "midi": 68,
                    "time": 112.87289999999956,
                    "velocity": 0.48031496062992124,
                    "duration": 0.382961624999993
                },
                {
                    "name": "G#3",
                    "midi": 56,
                    "time": 112.87289999999956,
                    "velocity": 0.4015748031496063,
                    "duration": 0.382961624999993
                },
                {
                    "name": "G#4",
                    "midi": 68,
                    "time": 113.27601749999955,
                    "velocity": 0.4645669291338583,
                    "duration": 0.382961624999993
                },
                {
                    "name": "G#3",
                    "midi": 56,
                    "time": 113.27601749999955,
                    "velocity": 0.3858267716535433,
                    "duration": 0.382961624999993
                },
                {
                    "name": "G#4",
                    "midi": 68,
                    "time": 113.67913499999955,
                    "velocity": 0.4645669291338583,
                    "duration": 0.382961624999993
                },
                {
                    "name": "G#3",
                    "midi": 56,
                    "time": 113.67913499999955,
                    "velocity": 0.3858267716535433,
                    "duration": 0.382961624999993
                },
                {
                    "name": "G#4",
                    "midi": 68,
                    "time": 114.08225249999954,
                    "velocity": 0.4645669291338583,
                    "duration": 0.382961624999993
                },
                {
                    "name": "G#3",
                    "midi": 56,
                    "time": 114.08225249999954,
                    "velocity": 0.3858267716535433,
                    "duration": 0.382961624999993
                },
                {
                    "name": "C#4",
                    "midi": 61,
                    "time": 114.48536999999953,
                    "velocity": 0.5275590551181102,
                    "duration": 0.8062349999999867
                },
                {
                    "name": "G#4",
                    "midi": 68,
                    "time": 114.48536999999953,
                    "velocity": 0.48031496062992124,
                    "duration": 0.382961624999993
                },
                {
                    "name": "G#3",
                    "midi": 56,
                    "time": 114.48536999999953,
                    "velocity": 0.4094488188976378,
                    "duration": 0.382961624999993
                },
                {
                    "name": "G#4",
                    "midi": 68,
                    "time": 114.88848749999953,
                    "velocity": 0.47244094488188976,
                    "duration": 0.382961624999993
                },
                {
                    "name": "G#3",
                    "midi": 56,
                    "time": 114.88848749999953,
                    "velocity": 0.3937007874015748,
                    "duration": 0.382961624999993
                },
                {
                    "name": "C4",
                    "midi": 60,
                    "time": 115.29160499999952,
                    "velocity": 0.4645669291338583,
                    "duration": 0.8062349999999867
                },
                {
                    "name": "G#4",
                    "midi": 68,
                    "time": 115.29160499999952,
                    "velocity": 0.4566929133858268,
                    "duration": 0.382961624999993
                },
                {
                    "name": "G#3",
                    "midi": 56,
                    "time": 115.29160499999952,
                    "velocity": 0.3779527559055118,
                    "duration": 0.382961624999993
                },
                {
                    "name": "G#4",
                    "midi": 68,
                    "time": 115.69472249999951,
                    "velocity": 0.4566929133858268,
                    "duration": 0.382961624999993
                },
                {
                    "name": "G#3",
                    "midi": 56,
                    "time": 115.69472249999951,
                    "velocity": 0.3779527559055118,
                    "duration": 0.382961624999993
                },
                {
                    "name": "G#4",
                    "midi": 68,
                    "time": 116.09783999999951,
                    "velocity": 0.5039370078740157,
                    "duration": 0.382961624999993
                },
                {
                    "name": "G#3",
                    "midi": 56,
                    "time": 116.09783999999951,
                    "velocity": 0.4330708661417323,
                    "duration": 0.382961624999993
                },
                {
                    "name": "G#4",
                    "midi": 68,
                    "time": 116.5009574999995,
                    "velocity": 0.48031496062992124,
                    "duration": 0.382961624999993
                },
                {
                    "name": "G#3",
                    "midi": 56,
                    "time": 116.5009574999995,
                    "velocity": 0.4015748031496063,
                    "duration": 0.382961624999993
                },
                {
                    "name": "G#4",
                    "midi": 68,
                    "time": 116.9040749999995,
                    "velocity": 0.48031496062992124,
                    "duration": 0.382961624999993
                },
                {
                    "name": "G#3",
                    "midi": 56,
                    "time": 116.9040749999995,
                    "velocity": 0.4015748031496063,
                    "duration": 0.382961624999993
                },
                {
                    "name": "G#4",
                    "midi": 68,
                    "time": 117.30719249999949,
                    "velocity": 0.48031496062992124,
                    "duration": 0.382961624999993
                },
                {
                    "name": "G#3",
                    "midi": 56,
                    "time": 117.30719249999949,
                    "velocity": 0.4015748031496063,
                    "duration": 0.382961624999993
                },
                {
                    "name": "D#4",
                    "midi": 63,
                    "time": 117.71030999999948,
                    "velocity": 0.5590551181102362,
                    "duration": 0.8062349999999867
                },
                {
                    "name": "G#4",
                    "midi": 68,
                    "time": 117.71030999999948,
                    "velocity": 0.5196850393700787,
                    "duration": 0.382961624999993
                },
                {
                    "name": "G#3",
                    "midi": 56,
                    "time": 117.71030999999948,
                    "velocity": 0.4409448818897638,
                    "duration": 0.382961624999993
                },
                {
                    "name": "G#4",
                    "midi": 68,
                    "time": 118.11342749999947,
                    "velocity": 0.48031496062992124,
                    "duration": 0.382961624999993
                },
                {
                    "name": "G#3",
                    "midi": 56,
                    "time": 118.11342749999947,
                    "velocity": 0.4015748031496063,
                    "duration": 0.382961624999993
                },
                {
                    "name": "C#4",
                    "midi": 61,
                    "time": 118.51654499999947,
                    "velocity": 0.5354330708661418,
                    "duration": 1.6124699999999734
                },
                {
                    "name": "G#4",
                    "midi": 68,
                    "time": 118.51654499999947,
                    "velocity": 0.48031496062992124,
                    "duration": 0.382961624999993
                },
                {
                    "name": "G#3",
                    "midi": 56,
                    "time": 118.51654499999947,
                    "velocity": 0.4015748031496063,
                    "duration": 0.382961624999993
                },
                {
                    "name": "G#4",
                    "midi": 68,
                    "time": 118.91966249999946,
                    "velocity": 0.48031496062992124,
                    "duration": 0.382961624999993
                },
                {
                    "name": "G#3",
                    "midi": 56,
                    "time": 118.91966249999946,
                    "velocity": 0.4015748031496063,
                    "duration": 0.382961624999993
                },
                {
                    "name": "G#4",
                    "midi": 68,
                    "time": 119.32277999999945,
                    "velocity": 0.5826771653543307,
                    "duration": 0.382961624999993
                },
                {
                    "name": "G#3",
                    "midi": 56,
                    "time": 119.32277999999945,
                    "velocity": 0.4881889763779528,
                    "duration": 0.382961624999993
                },
                {
                    "name": "G#4",
                    "midi": 68,
                    "time": 119.72589749999945,
                    "velocity": 0.5354330708661418,
                    "duration": 0.382961624999993
                },
                {
                    "name": "G#3",
                    "midi": 56,
                    "time": 119.72589749999945,
                    "velocity": 0.44881889763779526,
                    "duration": 0.382961624999993
                },
                {
                    "name": "D#4",
                    "midi": 63,
                    "time": 120.12901499999944,
                    "velocity": 0.5748031496062992,
                    "duration": 0.8062349999999867
                },
                {
                    "name": "G#4",
                    "midi": 68,
                    "time": 120.12901499999944,
                    "velocity": 0.5354330708661418,
                    "duration": 0.382961624999993
                },
                {
                    "name": "G#3",
                    "midi": 56,
                    "time": 120.12901499999944,
                    "velocity": 0.44881889763779526,
                    "duration": 0.382961624999993
                },
                {
                    "name": "G#4",
                    "midi": 68,
                    "time": 120.53213249999943,
                    "velocity": 0.5354330708661418,
                    "duration": 0.382961624999993
                },
                {
                    "name": "G#3",
                    "midi": 56,
                    "time": 120.53213249999943,
                    "velocity": 0.44881889763779526,
                    "duration": 0.382961624999993
                },
                {
                    "name": "E4",
                    "midi": 64,
                    "time": 120.93524999999943,
                    "velocity": 0.6141732283464567,
                    "duration": 0.8062349999999867
                },
                {
                    "name": "G#4",
                    "midi": 68,
                    "time": 120.93524999999943,
                    "velocity": 0.5433070866141733,
                    "duration": 0.382961624999993
                },
                {
                    "name": "G#3",
                    "midi": 56,
                    "time": 120.93524999999943,
                    "velocity": 0.4566929133858268,
                    "duration": 0.382961624999993
                },
                {
                    "name": "G#4",
                    "midi": 68,
                    "time": 121.33836749999942,
                    "velocity": 0.5354330708661418,
                    "duration": 0.382961624999993
                },
                {
                    "name": "G#3",
                    "midi": 56,
                    "time": 121.33836749999942,
                    "velocity": 0.44881889763779526,
                    "duration": 0.382961624999993
                },
                {
                    "name": "D#4",
                    "midi": 63,
                    "time": 121.74148499999941,
                    "velocity": 0.5748031496062992,
                    "duration": 0.8062349999999867
                },
                {
                    "name": "G#4",
                    "midi": 68,
                    "time": 121.74148499999941,
                    "velocity": 0.5354330708661418,
                    "duration": 0.382961624999993
                },
                {
                    "name": "G#3",
                    "midi": 56,
                    "time": 121.74148499999941,
                    "velocity": 0.44881889763779526,
                    "duration": 0.382961624999993
                },
                {
                    "name": "G#4",
                    "midi": 68,
                    "time": 122.14460249999941,
                    "velocity": 0.5354330708661418,
                    "duration": 0.382961624999993
                },
                {
                    "name": "G#3",
                    "midi": 56,
                    "time": 122.14460249999941,
                    "velocity": 0.44881889763779526,
                    "duration": 0.382961624999993
                },
                {
                    "name": "D#4",
                    "midi": 63,
                    "time": 122.5477199999994,
                    "velocity": 0.5826771653543307,
                    "duration": 3.224939999999947
                },
                {
                    "name": "G#4",
                    "midi": 68,
                    "time": 122.5477199999994,
                    "velocity": 0.6220472440944882,
                    "duration": 0.382961624999993
                },
                {
                    "name": "G#3",
                    "midi": 56,
                    "time": 122.5477199999994,
                    "velocity": 0.5275590551181102,
                    "duration": 0.382961624999993
                },
                {
                    "name": "G#4",
                    "midi": 68,
                    "time": 122.9508374999994,
                    "velocity": 0.5826771653543307,
                    "duration": 0.382961624999993
                },
                {
                    "name": "G#3",
                    "midi": 56,
                    "time": 122.9508374999994,
                    "velocity": 0.4881889763779528,
                    "duration": 0.382961624999993
                },
                {
                    "name": "G#4",
                    "midi": 68,
                    "time": 123.35395499999939,
                    "velocity": 0.6062992125984252,
                    "duration": 0.382961624999993
                },
                {
                    "name": "G#3",
                    "midi": 56,
                    "time": 123.35395499999939,
                    "velocity": 0.49606299212598426,
                    "duration": 0.382961624999993
                },
                {
                    "name": "G#4",
                    "midi": 68,
                    "time": 123.75707249999938,
                    "velocity": 0.6141732283464567,
                    "duration": 0.382961624999993
                },
                {
                    "name": "G#3",
                    "midi": 56,
                    "time": 123.75707249999938,
                    "velocity": 0.5039370078740157,
                    "duration": 0.382961624999993
                },
                {
                    "name": "G#4",
                    "midi": 68,
                    "time": 124.16018999999937,
                    "velocity": 0.6220472440944882,
                    "duration": 0.382961624999993
                },
                {
                    "name": "G#3",
                    "midi": 56,
                    "time": 124.16018999999937,
                    "velocity": 0.5196850393700787,
                    "duration": 0.382961624999993
                },
                {
                    "name": "G#4",
                    "midi": 68,
                    "time": 124.56330749999937,
                    "velocity": 0.6141732283464567,
                    "duration": 0.382961624999993
                },
                {
                    "name": "G#3",
                    "midi": 56,
                    "time": 124.56330749999937,
                    "velocity": 0.5196850393700787,
                    "duration": 0.382961624999993
                },
                {
                    "name": "G#4",
                    "midi": 68,
                    "time": 124.96642499999936,
                    "velocity": 0.6220472440944882,
                    "duration": 0.382961624999993
                },
                {
                    "name": "G#3",
                    "midi": 56,
                    "time": 124.96642499999936,
                    "velocity": 0.5275590551181102,
                    "duration": 0.382961624999993
                },
                {
                    "name": "G#4",
                    "midi": 68,
                    "time": 125.36954249999935,
                    "velocity": 0.6299212598425197,
                    "duration": 0.382961624999993
                },
                {
                    "name": "G#3",
                    "midi": 56,
                    "time": 125.36954249999935,
                    "velocity": 0.5354330708661418,
                    "duration": 0.382961624999993
                },
                {
                    "name": "E4",
                    "midi": 64,
                    "time": 125.77265999999935,
                    "velocity": 0.6929133858267716,
                    "duration": 1.6124699999999734
                },
                {
                    "name": "G#4",
                    "midi": 68,
                    "time": 125.77265999999935,
                    "velocity": 0.7244094488188977,
                    "duration": 1.6124699999999734
                },
                {
                    "name": "B3",
                    "midi": 59,
                    "time": 125.77265999999935,
                    "velocity": 0.5826771653543307,
                    "duration": 0.382961624999993
                },
                {
                    "name": "B4",
                    "midi": 71,
                    "time": 125.77265999999935,
                    "velocity": 0.6929133858267716,
                    "duration": 0.382961624999993
                },
                {
                    "name": "B3",
                    "midi": 59,
                    "time": 126.17577749999934,
                    "velocity": 0.5511811023622047,
                    "duration": 0.382961624999993
                },
                {
                    "name": "B4",
                    "midi": 71,
                    "time": 126.17577749999934,
                    "velocity": 0.6535433070866141,
                    "duration": 0.382961624999993
                },
                {
                    "name": "B3",
                    "midi": 59,
                    "time": 126.57889499999933,
                    "velocity": 0.5511811023622047,
                    "duration": 0.382961624999993
                },
                {
                    "name": "B4",
                    "midi": 71,
                    "time": 126.57889499999933,
                    "velocity": 0.6535433070866141,
                    "duration": 0.382961624999993
                },
                {
                    "name": "B3",
                    "midi": 59,
                    "time": 126.98201249999933,
                    "velocity": 0.5196850393700787,
                    "duration": 0.382961624999993
                },
                {
                    "name": "B4",
                    "midi": 71,
                    "time": 126.98201249999933,
                    "velocity": 0.6220472440944882,
                    "duration": 0.382961624999993
                },
                {
                    "name": "D#4",
                    "midi": 63,
                    "time": 127.38512999999932,
                    "velocity": 0.6929133858267716,
                    "duration": 1.6124700000000018
                },
                {
                    "name": "G#4",
                    "midi": 68,
                    "time": 127.38512999999932,
                    "velocity": 0.7244094488188977,
                    "duration": 1.6124700000000018
                },
                {
                    "name": "B3",
                    "midi": 59,
                    "time": 127.38512999999932,
                    "velocity": 0.5826771653543307,
                    "duration": 0.382961624999993
                },
                {
                    "name": "B4",
                    "midi": 71,
                    "time": 127.38512999999932,
                    "velocity": 0.6929133858267716,
                    "duration": 0.382961624999993
                },
                {
                    "name": "B3",
                    "midi": 59,
                    "time": 127.78824749999931,
                    "velocity": 0.5511811023622047,
                    "duration": 0.382961624999993
                },
                {
                    "name": "B4",
                    "midi": 71,
                    "time": 127.78824749999931,
                    "velocity": 0.6535433070866141,
                    "duration": 0.382961624999993
                },
                {
                    "name": "B3",
                    "midi": 59,
                    "time": 128.1913649999993,
                    "velocity": 0.5511811023622047,
                    "duration": 0.3829616250000072
                },
                {
                    "name": "B4",
                    "midi": 71,
                    "time": 128.1913649999993,
                    "velocity": 0.6535433070866141,
                    "duration": 0.3829616250000072
                },
                {
                    "name": "B3",
                    "midi": 59,
                    "time": 128.59448249999932,
                    "velocity": 0.5196850393700787,
                    "duration": 0.3829616250000072
                },
                {
                    "name": "B4",
                    "midi": 71,
                    "time": 128.59448249999932,
                    "velocity": 0.6220472440944882,
                    "duration": 0.3829616250000072
                },
                {
                    "name": "E4",
                    "midi": 64,
                    "time": 128.99759999999932,
                    "velocity": 0.6929133858267716,
                    "duration": 1.6124700000000303
                },
                {
                    "name": "G#4",
                    "midi": 68,
                    "time": 128.99759999999932,
                    "velocity": 0.7244094488188977,
                    "duration": 1.6124700000000303
                },
                {
                    "name": "B3",
                    "midi": 59,
                    "time": 128.99759999999932,
                    "velocity": 0.5826771653543307,
                    "duration": 0.3829616250000072
                },
                {
                    "name": "B4",
                    "midi": 71,
                    "time": 128.99759999999932,
                    "velocity": 0.6929133858267716,
                    "duration": 0.3829616250000072
                },
                {
                    "name": "B3",
                    "midi": 59,
                    "time": 129.40071749999933,
                    "velocity": 0.5511811023622047,
                    "duration": 0.3829616250000072
                },
                {
                    "name": "B4",
                    "midi": 71,
                    "time": 129.40071749999933,
                    "velocity": 0.6535433070866141,
                    "duration": 0.3829616250000072
                },
                {
                    "name": "B3",
                    "midi": 59,
                    "time": 129.80383499999934,
                    "velocity": 0.5511811023622047,
                    "duration": 0.3829616250000072
                },
                {
                    "name": "B4",
                    "midi": 71,
                    "time": 129.80383499999934,
                    "velocity": 0.6535433070866141,
                    "duration": 0.3829616250000072
                },
                {
                    "name": "B3",
                    "midi": 59,
                    "time": 130.20695249999935,
                    "velocity": 0.5196850393700787,
                    "duration": 0.3829616250000072
                },
                {
                    "name": "B4",
                    "midi": 71,
                    "time": 130.20695249999935,
                    "velocity": 0.6220472440944882,
                    "duration": 0.3829616250000072
                },
                {
                    "name": "D#4",
                    "midi": 63,
                    "time": 130.61006999999935,
                    "velocity": 0.6929133858267716,
                    "duration": 1.6124700000000303
                },
                {
                    "name": "G#4",
                    "midi": 68,
                    "time": 130.61006999999935,
                    "velocity": 0.7244094488188977,
                    "duration": 1.6124700000000303
                },
                {
                    "name": "B3",
                    "midi": 59,
                    "time": 130.61006999999935,
                    "velocity": 0.5826771653543307,
                    "duration": 0.3829616250000072
                },
                {
                    "name": "B4",
                    "midi": 71,
                    "time": 130.61006999999935,
                    "velocity": 0.6929133858267716,
                    "duration": 0.3829616250000072
                },
                {
                    "name": "B3",
                    "midi": 59,
                    "time": 131.01318749999936,
                    "velocity": 0.5511811023622047,
                    "duration": 0.3829616250000072
                },
                {
                    "name": "B4",
                    "midi": 71,
                    "time": 131.01318749999936,
                    "velocity": 0.6535433070866141,
                    "duration": 0.3829616250000072
                },
                {
                    "name": "B3",
                    "midi": 59,
                    "time": 131.41630499999937,
                    "velocity": 0.5511811023622047,
                    "duration": 0.3829616250000072
                },
                {
                    "name": "B4",
                    "midi": 71,
                    "time": 131.41630499999937,
                    "velocity": 0.6535433070866141,
                    "duration": 0.3829616250000072
                },
                {
                    "name": "B3",
                    "midi": 59,
                    "time": 131.81942249999938,
                    "velocity": 0.5511811023622047,
                    "duration": 0.3829616250000072
                },
                {
                    "name": "B4",
                    "midi": 71,
                    "time": 131.81942249999938,
                    "velocity": 0.6535433070866141,
                    "duration": 0.3829616250000072
                },
                {
                    "name": "D#4",
                    "midi": 63,
                    "time": 132.22253999999938,
                    "velocity": 0.6929133858267716,
                    "duration": 1.6124700000000303
                },
                {
                    "name": "G#4",
                    "midi": 68,
                    "time": 132.22253999999938,
                    "velocity": 0.7244094488188977,
                    "duration": 1.6124700000000303
                },
                {
                    "name": "B3",
                    "midi": 59,
                    "time": 132.22253999999938,
                    "velocity": 0.5826771653543307,
                    "duration": 0.3829616250000072
                },
                {
                    "name": "B4",
                    "midi": 71,
                    "time": 132.22253999999938,
                    "velocity": 0.6929133858267716,
                    "duration": 0.3829616250000072
                },
                {
                    "name": "B3",
                    "midi": 59,
                    "time": 132.6256574999994,
                    "velocity": 0.5511811023622047,
                    "duration": 0.3829616250000072
                },
                {
                    "name": "B4",
                    "midi": 71,
                    "time": 132.6256574999994,
                    "velocity": 0.6535433070866141,
                    "duration": 0.3829616250000072
                },
                {
                    "name": "B3",
                    "midi": 59,
                    "time": 133.0287749999994,
                    "velocity": 0.5511811023622047,
                    "duration": 0.3829616250000072
                },
                {
                    "name": "B4",
                    "midi": 71,
                    "time": 133.0287749999994,
                    "velocity": 0.6535433070866141,
                    "duration": 0.3829616250000072
                },
                {
                    "name": "B3",
                    "midi": 59,
                    "time": 133.4318924999994,
                    "velocity": 0.5196850393700787,
                    "duration": 0.3829616250000072
                },
                {
                    "name": "B4",
                    "midi": 71,
                    "time": 133.4318924999994,
                    "velocity": 0.6220472440944882,
                    "duration": 0.3829616250000072
                },
                {
                    "name": "D#4",
                    "midi": 63,
                    "time": 133.83500999999941,
                    "velocity": 0.6929133858267716,
                    "duration": 1.6124700000000303
                },
                {
                    "name": "G4",
                    "midi": 67,
                    "time": 133.83500999999941,
                    "velocity": 0.7244094488188977,
                    "duration": 1.6124700000000303
                },
                {
                    "name": "B3",
                    "midi": 59,
                    "time": 133.83500999999941,
                    "velocity": 0.5826771653543307,
                    "duration": 0.3829616250000072
                },
                {
                    "name": "B4",
                    "midi": 71,
                    "time": 133.83500999999941,
                    "velocity": 0.6929133858267716,
                    "duration": 0.3829616250000072
                },
                {
                    "name": "B3",
                    "midi": 59,
                    "time": 134.23812749999942,
                    "velocity": 0.5511811023622047,
                    "duration": 0.3829616250000072
                },
                {
                    "name": "B4",
                    "midi": 71,
                    "time": 134.23812749999942,
                    "velocity": 0.6535433070866141,
                    "duration": 0.3829616250000072
                },
                {
                    "name": "B3",
                    "midi": 59,
                    "time": 134.64124499999943,
                    "velocity": 0.5511811023622047,
                    "duration": 0.3829616250000072
                },
                {
                    "name": "B4",
                    "midi": 71,
                    "time": 134.64124499999943,
                    "velocity": 0.6535433070866141,
                    "duration": 0.3829616250000072
                },
                {
                    "name": "B3",
                    "midi": 59,
                    "time": 135.04436249999944,
                    "velocity": 0.5196850393700787,
                    "duration": 0.3829616250000072
                },
                {
                    "name": "B4",
                    "midi": 71,
                    "time": 135.04436249999944,
                    "velocity": 0.6220472440944882,
                    "duration": 0.3829616250000072
                },
                {
                    "name": "D#4",
                    "midi": 63,
                    "time": 135.44747999999944,
                    "velocity": 0.5826771653543307,
                    "duration": 0.40311750000000757
                },
                {
                    "name": "G#4",
                    "midi": 68,
                    "time": 135.44747999999944,
                    "velocity": 0.5826771653543307,
                    "duration": 0.40311750000000757
                },
                {
                    "name": "B3",
                    "midi": 59,
                    "time": 135.44747999999944,
                    "velocity": 0.4881889763779528,
                    "duration": 0.40311750000000757
                },
                {
                    "name": "B4",
                    "midi": 71,
                    "time": 135.44747999999944,
                    "velocity": 0.6929133858267716,
                    "duration": 0.40311750000000757
                },
                {
                    "name": "G#3",
                    "midi": 56,
                    "time": 135.85059749999945,
                    "velocity": 0.49606299212598426,
                    "duration": 0.3829616250000072
                },
                {
                    "name": "G#3",
                    "midi": 56,
                    "time": 136.25371499999946,
                    "velocity": 0.44881889763779526,
                    "duration": 0.3829616250000072
                },
                {
                    "name": "G#3",
                    "midi": 56,
                    "time": 136.65683249999947,
                    "velocity": 0.3858267716535433,
                    "duration": 0.3829616250000072
                },
                {
                    "name": "G#3",
                    "midi": 56,
                    "time": 137.05994999999947,
                    "velocity": 0.36220472440944884,
                    "duration": 0.3829616250000072
                },
                {
                    "name": "G#3",
                    "midi": 56,
                    "time": 137.46306749999948,
                    "velocity": 0.33070866141732286,
                    "duration": 0.3829616250000072
                },
                {
                    "name": "G#3",
                    "midi": 56,
                    "time": 137.8661849999995,
                    "velocity": 0.30708661417322836,
                    "duration": 0.3829616250000072
                },
                {
                    "name": "G#3",
                    "midi": 56,
                    "time": 138.2693024999995,
                    "velocity": 0.28346456692913385,
                    "duration": 0.3829616250000072
                },
                {
                    "name": "G#3",
                    "midi": 56,
                    "time": 138.6724199999995,
                    "velocity": 0.2755905511811024,
                    "duration": 0.3829616250000072
                },
                {
                    "name": "G#3",
                    "midi": 56,
                    "time": 139.0755374999995,
                    "velocity": 0.25984251968503935,
                    "duration": 0.3829616250000072
                },
                {
                    "name": "G#3",
                    "midi": 56,
                    "time": 139.47865499999952,
                    "velocity": 0.25984251968503935,
                    "duration": 0.3829616250000072
                },
                {
                    "name": "G#3",
                    "midi": 56,
                    "time": 139.88177249999953,
                    "velocity": 0.25984251968503935,
                    "duration": 0.3829616250000072
                },
                {
                    "name": "G#3",
                    "midi": 56,
                    "time": 140.28488999999954,
                    "velocity": 0.2755905511811024,
                    "duration": 0.3829616250000072
                },
                {
                    "name": "G#3",
                    "midi": 56,
                    "time": 140.68800749999954,
                    "velocity": 0.25984251968503935,
                    "duration": 0.3829616250000072
                },
                {
                    "name": "G#3",
                    "midi": 56,
                    "time": 141.09112499999955,
                    "velocity": 0.2440944881889764,
                    "duration": 0.3829616250000072
                },
                {
                    "name": "G#3",
                    "midi": 56,
                    "time": 141.49424249999956,
                    "velocity": 0.2440944881889764,
                    "duration": 0.3829616250000072
                },
                {
                    "name": "G#3",
                    "midi": 56,
                    "time": 141.89735999999957,
                    "velocity": 0.30708661417322836,
                    "duration": 0.3829616250000072
                },
                {
                    "name": "G#3",
                    "midi": 56,
                    "time": 142.30047749999957,
                    "velocity": 0.28346456692913385,
                    "duration": 0.3829616250000072
                },
                {
                    "name": "G#3",
                    "midi": 56,
                    "time": 142.70359499999958,
                    "velocity": 0.29133858267716534,
                    "duration": 0.3829616250000072
                },
                {
                    "name": "G#3",
                    "midi": 56,
                    "time": 143.1067124999996,
                    "velocity": 0.29133858267716534,
                    "duration": 0.3829616250000072
                },
                {
                    "name": "G#3",
                    "midi": 56,
                    "time": 143.5098299999996,
                    "velocity": 0.3543307086614173,
                    "duration": 0.3829616250000072
                },
                {
                    "name": "G#3",
                    "midi": 56,
                    "time": 143.9129474999996,
                    "velocity": 0.2992125984251969,
                    "duration": 0.3829616250000072
                },
                {
                    "name": "G#3",
                    "midi": 56,
                    "time": 144.3160649999996,
                    "velocity": 0.2755905511811024,
                    "duration": 0.3829616250000072
                },
                {
                    "name": "G#3",
                    "midi": 56,
                    "time": 144.71918249999962,
                    "velocity": 0.28346456692913385,
                    "duration": 0.3829616250000072
                },
                {
                    "name": "G#3",
                    "midi": 56,
                    "time": 145.12229999999963,
                    "velocity": 0.3858267716535433,
                    "duration": 0.3829616250000072
                },
                {
                    "name": "G#3",
                    "midi": 56,
                    "time": 145.52541749999963,
                    "velocity": 0.33070866141732286,
                    "duration": 0.3829616250000072
                },
                {
                    "name": "G#3",
                    "midi": 56,
                    "time": 145.92853499999964,
                    "velocity": 0.33070866141732286,
                    "duration": 0.3829616250000072
                },
                {
                    "name": "G#3",
                    "midi": 56,
                    "time": 146.33165249999965,
                    "velocity": 0.33070866141732286,
                    "duration": 0.3829616250000072
                },
                {
                    "name": "G#3",
                    "midi": 56,
                    "time": 146.73476999999966,
                    "velocity": 0.3858267716535433,
                    "duration": 0.3829616250000072
                },
                {
                    "name": "G#3",
                    "midi": 56,
                    "time": 147.13788749999966,
                    "velocity": 0.31496062992125984,
                    "duration": 0.3829616250000072
                },
                {
                    "name": "G#3",
                    "midi": 56,
                    "time": 147.54100499999967,
                    "velocity": 0.30708661417322836,
                    "duration": 0.3829616250000072
                },
                {
                    "name": "G#3",
                    "midi": 56,
                    "time": 147.94412249999968,
                    "velocity": 0.30708661417322836,
                    "duration": 0.3829616250000072
                },
                {
                    "name": "G#3",
                    "midi": 56,
                    "time": 148.3472399999997,
                    "velocity": 0.3858267716535433,
                    "duration": 0.3829616250000072
                },
                {
                    "name": "G#3",
                    "midi": 56,
                    "time": 148.7503574999997,
                    "velocity": 0.31496062992125984,
                    "duration": 0.3829616250000072
                },
                {
                    "name": "G#3",
                    "midi": 56,
                    "time": 149.1534749999997,
                    "velocity": 0.33070866141732286,
                    "duration": 0.3829616250000072
                },
                {
                    "name": "G#3",
                    "midi": 56,
                    "time": 149.5565924999997,
                    "velocity": 0.3228346456692913,
                    "duration": 0.3829616250000072
                },
                {
                    "name": "G#3",
                    "midi": 56,
                    "time": 149.95970999999972,
                    "velocity": 0.33070866141732286,
                    "duration": 0.3829616250000072
                },
                {
                    "name": "G#3",
                    "midi": 56,
                    "time": 150.36282749999972,
                    "velocity": 0.3228346456692913,
                    "duration": 0.3829616250000072
                },
                {
                    "name": "G#3",
                    "midi": 56,
                    "time": 150.76594499999973,
                    "velocity": 0.31496062992125984,
                    "duration": 0.3829616250000072
                },
                {
                    "name": "G#3",
                    "midi": 56,
                    "time": 151.16906249999974,
                    "velocity": 0.31496062992125984,
                    "duration": 0.3829616250000072
                },
                {
                    "name": "G#3",
                    "midi": 56,
                    "time": 151.57217999999975,
                    "velocity": 0.3464566929133858,
                    "duration": 0.3829616250000072
                },
                {
                    "name": "G#3",
                    "midi": 56,
                    "time": 151.97529749999975,
                    "velocity": 0.30708661417322836,
                    "duration": 0.3829616250000072
                },
                {
                    "name": "G#3",
                    "midi": 56,
                    "time": 152.37841499999976,
                    "velocity": 0.30708661417322836,
                    "duration": 0.3829616250000072
                },
                {
                    "name": "G#3",
                    "midi": 56,
                    "time": 152.78153249999977,
                    "velocity": 0.29133858267716534,
                    "duration": 0.3829616250000072
                },
                {
                    "name": "G#3",
                    "midi": 56,
                    "time": 153.18464999999978,
                    "velocity": 0.3228346456692913,
                    "duration": 0.3829616250000072
                },
                {
                    "name": "G#3",
                    "midi": 56,
                    "time": 153.58776749999979,
                    "velocity": 0.29133858267716534,
                    "duration": 0.3829616250000072
                },
                {
                    "name": "G#3",
                    "midi": 56,
                    "time": 153.9908849999998,
                    "velocity": 0.2755905511811024,
                    "duration": 0.3829616250000072
                },
                {
                    "name": "G#3",
                    "midi": 56,
                    "time": 154.3940024999998,
                    "velocity": 0.2755905511811024,
                    "duration": 0.3829616250000072
                },
                {
                    "name": "G#3",
                    "midi": 56,
                    "time": 154.7971199999998,
                    "velocity": 0.31496062992125984,
                    "duration": 0.3829616250000072
                },
                {
                    "name": "G#3",
                    "midi": 56,
                    "time": 155.20023749999982,
                    "velocity": 0.2755905511811024,
                    "duration": 0.3829616250000072
                },
                {
                    "name": "G#3",
                    "midi": 56,
                    "time": 155.60335499999982,
                    "velocity": 0.2755905511811024,
                    "duration": 0.3829616250000072
                },
                {
                    "name": "G#3",
                    "midi": 56,
                    "time": 156.00647249999983,
                    "velocity": 0.2440944881889764,
                    "duration": 0.3829616250000072
                },
                {
                    "name": "G#3",
                    "midi": 56,
                    "time": 156.40958999999984,
                    "velocity": 0.2992125984251969,
                    "duration": 0.3829616250000072
                },
                {
                    "name": "G#3",
                    "midi": 56,
                    "time": 156.81270749999985,
                    "velocity": 0.2755905511811024,
                    "duration": 0.3829616250000072
                },
                {
                    "name": "G#3",
                    "midi": 56,
                    "time": 157.21582499999985,
                    "velocity": 0.2755905511811024,
                    "duration": 0.3829616250000072
                },
                {
                    "name": "G#3",
                    "midi": 56,
                    "time": 157.61894249999986,
                    "velocity": 0.25984251968503935,
                    "duration": 0.3829616250000072
                },
                {
                    "name": "G#3",
                    "midi": 56,
                    "time": 158.02205999999987,
                    "velocity": 0.2992125984251969,
                    "duration": 0.3829616250000072
                },
                {
                    "name": "G#3",
                    "midi": 56,
                    "time": 158.42517749999988,
                    "velocity": 0.31496062992125984,
                    "duration": 0.3829616250000072
                },
                {
                    "name": "G#3",
                    "midi": 56,
                    "time": 158.82829499999988,
                    "velocity": 0.3228346456692913,
                    "duration": 0.3829616250000072
                },
                {
                    "name": "G#3",
                    "midi": 56,
                    "time": 159.2314124999999,
                    "velocity": 0.3464566929133858,
                    "duration": 0.3829616250000072
                },
                {
                    "name": "G#3",
                    "midi": 56,
                    "time": 159.6345299999999,
                    "velocity": 0.36220472440944884,
                    "duration": 0.3829616250000072
                },
                {
                    "name": "G#3",
                    "midi": 56,
                    "time": 160.0376474999999,
                    "velocity": 0.3779527559055118,
                    "duration": 0.3829616250000072
                },
                {
                    "name": "G#3",
                    "midi": 56,
                    "time": 160.4407649999999,
                    "velocity": 0.3858267716535433,
                    "duration": 0.3829616250000072
                },
                {
                    "name": "G#3",
                    "midi": 56,
                    "time": 160.84388249999992,
                    "velocity": 0.4015748031496063,
                    "duration": 0.3829616250000072
                },
                {
                    "name": "G#3",
                    "midi": 56,
                    "time": 161.24699999999993,
                    "velocity": 0.41732283464566927,
                    "duration": 0.3829616250000072
                },
                {
                    "name": "G#4",
                    "midi": 68,
                    "time": 161.65011749999994,
                    "velocity": 0.41732283464566927,
                    "duration": 0.3829616250000072
                },
                {
                    "name": "G#3",
                    "midi": 56,
                    "time": 161.65011749999994,
                    "velocity": 0.3543307086614173,
                    "duration": 0.3829616250000072
                },
                {
                    "name": "G#4",
                    "midi": 68,
                    "time": 162.05323499999994,
                    "velocity": 0.4330708661417323,
                    "duration": 0.3829616250000072
                },
                {
                    "name": "G#3",
                    "midi": 56,
                    "time": 162.05323499999994,
                    "velocity": 0.36220472440944884,
                    "duration": 0.3829616250000072
                },
                {
                    "name": "G#4",
                    "midi": 68,
                    "time": 162.45635249999995,
                    "velocity": 0.4409448818897638,
                    "duration": 0.3829616250000072
                },
                {
                    "name": "G#3",
                    "midi": 56,
                    "time": 162.45635249999995,
                    "velocity": 0.3700787401574803,
                    "duration": 0.3829616250000072
                },
                {
                    "name": "G#4",
                    "midi": 68,
                    "time": 162.85946999999996,
                    "velocity": 0.44881889763779526,
                    "duration": 0.3829616250000072
                },
                {
                    "name": "G#3",
                    "midi": 56,
                    "time": 162.85946999999996,
                    "velocity": 0.3779527559055118,
                    "duration": 0.3829616250000072
                },
                {
                    "name": "G#4",
                    "midi": 68,
                    "time": 163.26258749999997,
                    "velocity": 0.4645669291338583,
                    "duration": 0.3829616250000072
                },
                {
                    "name": "G#3",
                    "midi": 56,
                    "time": 163.26258749999997,
                    "velocity": 0.3858267716535433,
                    "duration": 0.3829616250000072
                },
                {
                    "name": "G#4",
                    "midi": 68,
                    "time": 163.66570499999997,
                    "velocity": 0.47244094488188976,
                    "duration": 0.3829616250000072
                },
                {
                    "name": "G#3",
                    "midi": 56,
                    "time": 163.66570499999997,
                    "velocity": 0.3937007874015748,
                    "duration": 0.3829616250000072
                },
                {
                    "name": "G#4",
                    "midi": 68,
                    "time": 164.06882249999998,
                    "velocity": 0.48031496062992124,
                    "duration": 0.3829616250000072
                },
                {
                    "name": "G#3",
                    "midi": 56,
                    "time": 164.06882249999998,
                    "velocity": 0.4015748031496063,
                    "duration": 0.3829616250000072
                },
                {
                    "name": "G#4",
                    "midi": 68,
                    "time": 164.47194,
                    "velocity": 0.48031496062992124,
                    "duration": 0.3829616250000072
                },
                {
                    "name": "G#3",
                    "midi": 56,
                    "time": 164.47194,
                    "velocity": 0.4015748031496063,
                    "duration": 0.3829616250000072
                },
                {
                    "name": "G#4",
                    "midi": 68,
                    "time": 164.8750575,
                    "velocity": 0.4645669291338583,
                    "duration": 0.3829616250000072
                },
                {
                    "name": "G#3",
                    "midi": 56,
                    "time": 164.8750575,
                    "velocity": 0.3858267716535433,
                    "duration": 0.3829616250000072
                },
                {
                    "name": "G#4",
                    "midi": 68,
                    "time": 165.278175,
                    "velocity": 0.4645669291338583,
                    "duration": 0.3829616250000072
                },
                {
                    "name": "G#3",
                    "midi": 56,
                    "time": 165.278175,
                    "velocity": 0.3858267716535433,
                    "duration": 0.3829616250000072
                },
                {
                    "name": "G#4",
                    "midi": 68,
                    "time": 165.6812925,
                    "velocity": 0.4645669291338583,
                    "duration": 0.3829616250000072
                },
                {
                    "name": "G#3",
                    "midi": 56,
                    "time": 165.6812925,
                    "velocity": 0.3858267716535433,
                    "duration": 0.3829616250000072
                },
                {
                    "name": "C#4",
                    "midi": 61,
                    "time": 166.08441000000002,
                    "velocity": 0.5275590551181102,
                    "duration": 0.8062350000000151
                },
                {
                    "name": "G#4",
                    "midi": 68,
                    "time": 166.08441000000002,
                    "velocity": 0.48031496062992124,
                    "duration": 0.3829616250000072
                },
                {
                    "name": "G#3",
                    "midi": 56,
                    "time": 166.08441000000002,
                    "velocity": 0.4094488188976378,
                    "duration": 0.3829616250000072
                },
                {
                    "name": "G#4",
                    "midi": 68,
                    "time": 166.48752750000003,
                    "velocity": 0.47244094488188976,
                    "duration": 0.3829616250000072
                },
                {
                    "name": "G#3",
                    "midi": 56,
                    "time": 166.48752750000003,
                    "velocity": 0.3937007874015748,
                    "duration": 0.3829616250000072
                },
                {
                    "name": "C4",
                    "midi": 60,
                    "time": 166.89064500000003,
                    "velocity": 0.4645669291338583,
                    "duration": 0.8062350000000151
                },
                {
                    "name": "G#4",
                    "midi": 68,
                    "time": 166.89064500000003,
                    "velocity": 0.4566929133858268,
                    "duration": 0.3829616250000072
                },
                {
                    "name": "G#3",
                    "midi": 56,
                    "time": 166.89064500000003,
                    "velocity": 0.3779527559055118,
                    "duration": 0.3829616250000072
                },
                {
                    "name": "G#4",
                    "midi": 68,
                    "time": 167.29376250000004,
                    "velocity": 0.4566929133858268,
                    "duration": 0.3829616250000072
                },
                {
                    "name": "G#3",
                    "midi": 56,
                    "time": 167.29376250000004,
                    "velocity": 0.3779527559055118,
                    "duration": 0.3829616250000072
                },
                {
                    "name": "G#4",
                    "midi": 68,
                    "time": 167.69688000000005,
                    "velocity": 0.5039370078740157,
                    "duration": 0.3829616250000072
                },
                {
                    "name": "G#3",
                    "midi": 56,
                    "time": 167.69688000000005,
                    "velocity": 0.4330708661417323,
                    "duration": 0.3829616250000072
                },
                {
                    "name": "G#4",
                    "midi": 68,
                    "time": 168.09999750000006,
                    "velocity": 0.48031496062992124,
                    "duration": 0.3829616250000072
                },
                {
                    "name": "G#3",
                    "midi": 56,
                    "time": 168.09999750000006,
                    "velocity": 0.4015748031496063,
                    "duration": 0.3829616250000072
                },
                {
                    "name": "G#4",
                    "midi": 68,
                    "time": 168.50311500000007,
                    "velocity": 0.48031496062992124,
                    "duration": 0.3829616250000072
                },
                {
                    "name": "G#3",
                    "midi": 56,
                    "time": 168.50311500000007,
                    "velocity": 0.4015748031496063,
                    "duration": 0.3829616250000072
                },
                {
                    "name": "G#4",
                    "midi": 68,
                    "time": 168.90623250000007,
                    "velocity": 0.48031496062992124,
                    "duration": 0.3829616250000072
                },
                {
                    "name": "G#3",
                    "midi": 56,
                    "time": 168.90623250000007,
                    "velocity": 0.4015748031496063,
                    "duration": 0.3829616250000072
                },
                {
                    "name": "D#4",
                    "midi": 63,
                    "time": 169.30935000000008,
                    "velocity": 0.5590551181102362,
                    "duration": 0.8062350000000151
                },
                {
                    "name": "G#4",
                    "midi": 68,
                    "time": 169.30935000000008,
                    "velocity": 0.5196850393700787,
                    "duration": 0.3829616250000072
                },
                {
                    "name": "G#3",
                    "midi": 56,
                    "time": 169.30935000000008,
                    "velocity": 0.4409448818897638,
                    "duration": 0.3829616250000072
                },
                {
                    "name": "G#4",
                    "midi": 68,
                    "time": 169.7124675000001,
                    "velocity": 0.48031496062992124,
                    "duration": 0.3829616250000072
                },
                {
                    "name": "G#3",
                    "midi": 56,
                    "time": 169.7124675000001,
                    "velocity": 0.4015748031496063,
                    "duration": 0.3829616250000072
                },
                {
                    "name": "C#4",
                    "midi": 61,
                    "time": 170.1155850000001,
                    "velocity": 0.5354330708661418,
                    "duration": 1.6124700000000303
                },
                {
                    "name": "G#4",
                    "midi": 68,
                    "time": 170.1155850000001,
                    "velocity": 0.48031496062992124,
                    "duration": 0.3829616250000072
                },
                {
                    "name": "G#3",
                    "midi": 56,
                    "time": 170.1155850000001,
                    "velocity": 0.4015748031496063,
                    "duration": 0.3829616250000072
                },
                {
                    "name": "G#4",
                    "midi": 68,
                    "time": 170.5187025000001,
                    "velocity": 0.48031496062992124,
                    "duration": 0.3829616250000072
                },
                {
                    "name": "G#3",
                    "midi": 56,
                    "time": 170.5187025000001,
                    "velocity": 0.4015748031496063,
                    "duration": 0.3829616250000072
                },
                {
                    "name": "G#4",
                    "midi": 68,
                    "time": 170.9218200000001,
                    "velocity": 0.5826771653543307,
                    "duration": 0.3829616250000072
                },
                {
                    "name": "G#3",
                    "midi": 56,
                    "time": 170.9218200000001,
                    "velocity": 0.4881889763779528,
                    "duration": 0.3829616250000072
                },
                {
                    "name": "G#4",
                    "midi": 68,
                    "time": 171.32493750000012,
                    "velocity": 0.5354330708661418,
                    "duration": 0.3829616250000072
                },
                {
                    "name": "G#3",
                    "midi": 56,
                    "time": 171.32493750000012,
                    "velocity": 0.44881889763779526,
                    "duration": 0.3829616250000072
                },
                {
                    "name": "D#4",
                    "midi": 63,
                    "time": 171.72805500000013,
                    "velocity": 0.5748031496062992,
                    "duration": 0.8062350000000151
                },
                {
                    "name": "G#4",
                    "midi": 68,
                    "time": 171.72805500000013,
                    "velocity": 0.5354330708661418,
                    "duration": 0.3829616250000072
                },
                {
                    "name": "G#3",
                    "midi": 56,
                    "time": 171.72805500000013,
                    "velocity": 0.44881889763779526,
                    "duration": 0.3829616250000072
                },
                {
                    "name": "G#4",
                    "midi": 68,
                    "time": 172.13117250000013,
                    "velocity": 0.5354330708661418,
                    "duration": 0.3829616250000072
                },
                {
                    "name": "G#3",
                    "midi": 56,
                    "time": 172.13117250000013,
                    "velocity": 0.44881889763779526,
                    "duration": 0.3829616250000072
                },
                {
                    "name": "E4",
                    "midi": 64,
                    "time": 172.53429000000014,
                    "velocity": 0.6141732283464567,
                    "duration": 0.8062350000000151
                },
                {
                    "name": "G#4",
                    "midi": 68,
                    "time": 172.53429000000014,
                    "velocity": 0.5433070866141733,
                    "duration": 0.3829616250000072
                },
                {
                    "name": "G#3",
                    "midi": 56,
                    "time": 172.53429000000014,
                    "velocity": 0.4566929133858268,
                    "duration": 0.3829616250000072
                },
                {
                    "name": "G#4",
                    "midi": 68,
                    "time": 172.93740750000015,
                    "velocity": 0.5354330708661418,
                    "duration": 0.3829616250000072
                },
                {
                    "name": "G#3",
                    "midi": 56,
                    "time": 172.93740750000015,
                    "velocity": 0.44881889763779526,
                    "duration": 0.3829616250000072
                },
                {
                    "name": "D#4",
                    "midi": 63,
                    "time": 173.34052500000016,
                    "velocity": 0.5748031496062992,
                    "duration": 0.8062350000000151
                },
                {
                    "name": "G#4",
                    "midi": 68,
                    "time": 173.34052500000016,
                    "velocity": 0.5354330708661418,
                    "duration": 0.3829616250000072
                },
                {
                    "name": "G#3",
                    "midi": 56,
                    "time": 173.34052500000016,
                    "velocity": 0.44881889763779526,
                    "duration": 0.3829616250000072
                },
                {
                    "name": "G#4",
                    "midi": 68,
                    "time": 173.74364250000016,
                    "velocity": 0.5354330708661418,
                    "duration": 0.3829616250000072
                },
                {
                    "name": "G#3",
                    "midi": 56,
                    "time": 173.74364250000016,
                    "velocity": 0.44881889763779526,
                    "duration": 0.3829616250000072
                },
                {
                    "name": "D#4",
                    "midi": 63,
                    "time": 174.14676000000017,
                    "velocity": 0.5826771653543307,
                    "duration": 3.2249400000000605
                },
                {
                    "name": "G#4",
                    "midi": 68,
                    "time": 174.14676000000017,
                    "velocity": 0.6220472440944882,
                    "duration": 0.3829616250000072
                },
                {
                    "name": "G#3",
                    "midi": 56,
                    "time": 174.14676000000017,
                    "velocity": 0.5275590551181102,
                    "duration": 0.3829616250000072
                },
                {
                    "name": "G#4",
                    "midi": 68,
                    "time": 174.54987750000018,
                    "velocity": 0.5826771653543307,
                    "duration": 0.3829616250000072
                },
                {
                    "name": "G#3",
                    "midi": 56,
                    "time": 174.54987750000018,
                    "velocity": 0.4881889763779528,
                    "duration": 0.3829616250000072
                },
                {
                    "name": "G#4",
                    "midi": 68,
                    "time": 174.9529950000002,
                    "velocity": 0.6062992125984252,
                    "duration": 0.3829616250000072
                },
                {
                    "name": "G#3",
                    "midi": 56,
                    "time": 174.9529950000002,
                    "velocity": 0.49606299212598426,
                    "duration": 0.3829616250000072
                },
                {
                    "name": "G#4",
                    "midi": 68,
                    "time": 175.3561125000002,
                    "velocity": 0.6141732283464567,
                    "duration": 0.3829616250000072
                },
                {
                    "name": "G#3",
                    "midi": 56,
                    "time": 175.3561125000002,
                    "velocity": 0.5039370078740157,
                    "duration": 0.3829616250000072
                },
                {
                    "name": "G#4",
                    "midi": 68,
                    "time": 175.7592300000002,
                    "velocity": 0.6220472440944882,
                    "duration": 0.3829616250000072
                },
                {
                    "name": "G#3",
                    "midi": 56,
                    "time": 175.7592300000002,
                    "velocity": 0.5196850393700787,
                    "duration": 0.3829616250000072
                },
                {
                    "name": "G#4",
                    "midi": 68,
                    "time": 176.1623475000002,
                    "velocity": 0.6141732283464567,
                    "duration": 0.3829616250000072
                },
                {
                    "name": "G#3",
                    "midi": 56,
                    "time": 176.1623475000002,
                    "velocity": 0.5196850393700787,
                    "duration": 0.3829616250000072
                },
                {
                    "name": "G#4",
                    "midi": 68,
                    "time": 176.56546500000022,
                    "velocity": 0.6220472440944882,
                    "duration": 0.3829616250000072
                },
                {
                    "name": "G#3",
                    "midi": 56,
                    "time": 176.56546500000022,
                    "velocity": 0.5275590551181102,
                    "duration": 0.3829616250000072
                },
                {
                    "name": "G#4",
                    "midi": 68,
                    "time": 176.96858250000022,
                    "velocity": 0.6299212598425197,
                    "duration": 0.3829616250000072
                },
                {
                    "name": "G#3",
                    "midi": 56,
                    "time": 176.96858250000022,
                    "velocity": 0.5354330708661418,
                    "duration": 0.3829616250000072
                },
                {
                    "name": "E4",
                    "midi": 64,
                    "time": 177.37170000000023,
                    "velocity": 0.6929133858267716,
                    "duration": 1.6124700000000303
                },
                {
                    "name": "G#4",
                    "midi": 68,
                    "time": 177.37170000000023,
                    "velocity": 0.7244094488188977,
                    "duration": 1.6124700000000303
                },
                {
                    "name": "B3",
                    "midi": 59,
                    "time": 177.37170000000023,
                    "velocity": 0.5826771653543307,
                    "duration": 0.3829616250000072
                },
                {
                    "name": "B4",
                    "midi": 71,
                    "time": 177.37170000000023,
                    "velocity": 0.6929133858267716,
                    "duration": 0.3829616250000072
                },
                {
                    "name": "B3",
                    "midi": 59,
                    "time": 177.77481750000024,
                    "velocity": 0.5511811023622047,
                    "duration": 0.3829616250000072
                },
                {
                    "name": "B4",
                    "midi": 71,
                    "time": 177.77481750000024,
                    "velocity": 0.6535433070866141,
                    "duration": 0.3829616250000072
                },
                {
                    "name": "B3",
                    "midi": 59,
                    "time": 178.17793500000025,
                    "velocity": 0.5511811023622047,
                    "duration": 0.3829616250000072
                },
                {
                    "name": "B4",
                    "midi": 71,
                    "time": 178.17793500000025,
                    "velocity": 0.6535433070866141,
                    "duration": 0.3829616250000072
                },
                {
                    "name": "B3",
                    "midi": 59,
                    "time": 178.58105250000025,
                    "velocity": 0.5196850393700787,
                    "duration": 0.3829616250000072
                },
                {
                    "name": "B4",
                    "midi": 71,
                    "time": 178.58105250000025,
                    "velocity": 0.6220472440944882,
                    "duration": 0.3829616250000072
                },
                {
                    "name": "D#4",
                    "midi": 63,
                    "time": 178.98417000000026,
                    "velocity": 0.6929133858267716,
                    "duration": 1.6124700000000303
                },
                {
                    "name": "G#4",
                    "midi": 68,
                    "time": 178.98417000000026,
                    "velocity": 0.7244094488188977,
                    "duration": 1.6124700000000303
                },
                {
                    "name": "B3",
                    "midi": 59,
                    "time": 178.98417000000026,
                    "velocity": 0.5826771653543307,
                    "duration": 0.3829616250000072
                },
                {
                    "name": "B4",
                    "midi": 71,
                    "time": 178.98417000000026,
                    "velocity": 0.6929133858267716,
                    "duration": 0.3829616250000072
                },
                {
                    "name": "B3",
                    "midi": 59,
                    "time": 179.38728750000027,
                    "velocity": 0.5511811023622047,
                    "duration": 0.3829616250000072
                },
                {
                    "name": "B4",
                    "midi": 71,
                    "time": 179.38728750000027,
                    "velocity": 0.6535433070866141,
                    "duration": 0.3829616250000072
                },
                {
                    "name": "B3",
                    "midi": 59,
                    "time": 179.79040500000028,
                    "velocity": 0.5511811023622047,
                    "duration": 0.3829616250000072
                },
                {
                    "name": "B4",
                    "midi": 71,
                    "time": 179.79040500000028,
                    "velocity": 0.6535433070866141,
                    "duration": 0.3829616250000072
                },
                {
                    "name": "B3",
                    "midi": 59,
                    "time": 180.19352250000028,
                    "velocity": 0.5196850393700787,
                    "duration": 0.3829616250000072
                },
                {
                    "name": "B4",
                    "midi": 71,
                    "time": 180.19352250000028,
                    "velocity": 0.6220472440944882,
                    "duration": 0.3829616250000072
                },
                {
                    "name": "E4",
                    "midi": 64,
                    "time": 180.5966400000003,
                    "velocity": 0.6929133858267716,
                    "duration": 1.6124700000000303
                },
                {
                    "name": "G#4",
                    "midi": 68,
                    "time": 180.5966400000003,
                    "velocity": 0.7244094488188977,
                    "duration": 1.6124700000000303
                },
                {
                    "name": "B3",
                    "midi": 59,
                    "time": 180.5966400000003,
                    "velocity": 0.5826771653543307,
                    "duration": 0.3829616250000072
                },
                {
                    "name": "B4",
                    "midi": 71,
                    "time": 180.5966400000003,
                    "velocity": 0.6929133858267716,
                    "duration": 0.3829616250000072
                },
                {
                    "name": "B3",
                    "midi": 59,
                    "time": 180.9997575000003,
                    "velocity": 0.5511811023622047,
                    "duration": 0.3829616250000072
                },
                {
                    "name": "B4",
                    "midi": 71,
                    "time": 180.9997575000003,
                    "velocity": 0.6535433070866141,
                    "duration": 0.3829616250000072
                },
                {
                    "name": "B3",
                    "midi": 59,
                    "time": 181.4028750000003,
                    "velocity": 0.5511811023622047,
                    "duration": 0.3829616250000072
                },
                {
                    "name": "B4",
                    "midi": 71,
                    "time": 181.4028750000003,
                    "velocity": 0.6535433070866141,
                    "duration": 0.3829616250000072
                },
                {
                    "name": "B3",
                    "midi": 59,
                    "time": 181.80599250000031,
                    "velocity": 0.5196850393700787,
                    "duration": 0.3829616250000072
                },
                {
                    "name": "B4",
                    "midi": 71,
                    "time": 181.80599250000031,
                    "velocity": 0.6220472440944882,
                    "duration": 0.3829616250000072
                },
                {
                    "name": "D#4",
                    "midi": 63,
                    "time": 182.20911000000032,
                    "velocity": 0.6929133858267716,
                    "duration": 1.6124700000000303
                },
                {
                    "name": "G#4",
                    "midi": 68,
                    "time": 182.20911000000032,
                    "velocity": 0.7244094488188977,
                    "duration": 1.6124700000000303
                },
                {
                    "name": "B3",
                    "midi": 59,
                    "time": 182.20911000000032,
                    "velocity": 0.5826771653543307,
                    "duration": 0.3829616250000072
                },
                {
                    "name": "B4",
                    "midi": 71,
                    "time": 182.20911000000032,
                    "velocity": 0.6929133858267716,
                    "duration": 0.3829616250000072
                },
                {
                    "name": "B3",
                    "midi": 59,
                    "time": 182.61222750000033,
                    "velocity": 0.5511811023622047,
                    "duration": 0.3829616250000072
                },
                {
                    "name": "B4",
                    "midi": 71,
                    "time": 182.61222750000033,
                    "velocity": 0.6535433070866141,
                    "duration": 0.3829616250000072
                },
                {
                    "name": "B3",
                    "midi": 59,
                    "time": 183.01534500000034,
                    "velocity": 0.5511811023622047,
                    "duration": 0.3829616250000072
                },
                {
                    "name": "B4",
                    "midi": 71,
                    "time": 183.01534500000034,
                    "velocity": 0.6535433070866141,
                    "duration": 0.3829616250000072
                },
                {
                    "name": "B3",
                    "midi": 59,
                    "time": 183.41846250000035,
                    "velocity": 0.5511811023622047,
                    "duration": 0.3829616250000072
                },
                {
                    "name": "B4",
                    "midi": 71,
                    "time": 183.41846250000035,
                    "velocity": 0.6535433070866141,
                    "duration": 0.3829616250000072
                },
                {
                    "name": "D#4",
                    "midi": 63,
                    "time": 183.82158000000035,
                    "velocity": 0.6929133858267716,
                    "duration": 1.6124700000000303
                },
                {
                    "name": "G#4",
                    "midi": 68,
                    "time": 183.82158000000035,
                    "velocity": 0.7244094488188977,
                    "duration": 1.6124700000000303
                },
                {
                    "name": "B3",
                    "midi": 59,
                    "time": 183.82158000000035,
                    "velocity": 0.5826771653543307,
                    "duration": 0.3829616250000072
                },
                {
                    "name": "B4",
                    "midi": 71,
                    "time": 183.82158000000035,
                    "velocity": 0.6929133858267716,
                    "duration": 0.3829616250000072
                },
                {
                    "name": "B3",
                    "midi": 59,
                    "time": 184.22469750000036,
                    "velocity": 0.5511811023622047,
                    "duration": 0.3829616250000072
                },
                {
                    "name": "B4",
                    "midi": 71,
                    "time": 184.22469750000036,
                    "velocity": 0.6535433070866141,
                    "duration": 0.3829616250000072
                },
                {
                    "name": "B3",
                    "midi": 59,
                    "time": 184.62781500000037,
                    "velocity": 0.5511811023622047,
                    "duration": 0.3829616250000072
                },
                {
                    "name": "B4",
                    "midi": 71,
                    "time": 184.62781500000037,
                    "velocity": 0.6535433070866141,
                    "duration": 0.3829616250000072
                },
                {
                    "name": "B3",
                    "midi": 59,
                    "time": 185.03093250000038,
                    "velocity": 0.5196850393700787,
                    "duration": 0.3829616250000072
                },
                {
                    "name": "B4",
                    "midi": 71,
                    "time": 185.03093250000038,
                    "velocity": 0.6220472440944882,
                    "duration": 0.3829616250000072
                },
                {
                    "name": "D#4",
                    "midi": 63,
                    "time": 185.43405000000038,
                    "velocity": 0.6929133858267716,
                    "duration": 1.6124700000000303
                },
                {
                    "name": "G4",
                    "midi": 67,
                    "time": 185.43405000000038,
                    "velocity": 0.7244094488188977,
                    "duration": 1.6124700000000303
                },
                {
                    "name": "B3",
                    "midi": 59,
                    "time": 185.43405000000038,
                    "velocity": 0.5826771653543307,
                    "duration": 0.3829616250000072
                },
                {
                    "name": "B4",
                    "midi": 71,
                    "time": 185.43405000000038,
                    "velocity": 0.6929133858267716,
                    "duration": 0.3829616250000072
                },
                {
                    "name": "B3",
                    "midi": 59,
                    "time": 185.8371675000004,
                    "velocity": 0.5511811023622047,
                    "duration": 0.3829616250000072
                },
                {
                    "name": "B4",
                    "midi": 71,
                    "time": 185.8371675000004,
                    "velocity": 0.6535433070866141,
                    "duration": 0.3829616250000072
                },
                {
                    "name": "B3",
                    "midi": 59,
                    "time": 186.2402850000004,
                    "velocity": 0.5511811023622047,
                    "duration": 0.3829616250000072
                },
                {
                    "name": "B4",
                    "midi": 71,
                    "time": 186.2402850000004,
                    "velocity": 0.6535433070866141,
                    "duration": 0.3829616250000072
                },
                {
                    "name": "B3",
                    "midi": 59,
                    "time": 186.6434025000004,
                    "velocity": 0.5196850393700787,
                    "duration": 0.3829616250000072
                },
                {
                    "name": "B4",
                    "midi": 71,
                    "time": 186.6434025000004,
                    "velocity": 0.6220472440944882,
                    "duration": 0.3829616250000072
                },
                {
                    "name": "D#4",
                    "midi": 63,
                    "time": 187.0465200000004,
                    "velocity": 0.5826771653543307,
                    "duration": 0.40311750000000757
                },
                {
                    "name": "G#4",
                    "midi": 68,
                    "time": 187.0465200000004,
                    "velocity": 0.5826771653543307,
                    "duration": 0.40311750000000757
                },
                {
                    "name": "B3",
                    "midi": 59,
                    "time": 187.0465200000004,
                    "velocity": 0.4881889763779528,
                    "duration": 0.40311750000000757
                },
                {
                    "name": "B4",
                    "midi": 71,
                    "time": 187.0465200000004,
                    "velocity": 0.6929133858267716,
                    "duration": 0.40311750000000757
                },
                {
                    "name": "G#4",
                    "midi": 68,
                    "time": 187.44963750000042,
                    "velocity": 0.49606299212598426,
                    "duration": 0.3829616250000072
                },
                {
                    "name": "G#4",
                    "midi": 68,
                    "time": 187.85275500000043,
                    "velocity": 0.44881889763779526,
                    "duration": 0.3829616250000072
                },
                {
                    "name": "G#4",
                    "midi": 68,
                    "time": 188.25587250000044,
                    "velocity": 0.4330708661417323,
                    "duration": 0.3829616250000072
                },
                {
                    "name": "G#4",
                    "midi": 68,
                    "time": 188.65899000000044,
                    "velocity": 0.4094488188976378,
                    "duration": 0.3829616250000072
                },
                {
                    "name": "G#4",
                    "midi": 68,
                    "time": 189.06210750000045,
                    "velocity": 0.3937007874015748,
                    "duration": 0.3829616250000072
                },
                {
                    "name": "G#4",
                    "midi": 68,
                    "time": 189.46522500000046,
                    "velocity": 0.3779527559055118,
                    "duration": 0.3829616250000072
                },
                {
                    "name": "G#4",
                    "midi": 68,
                    "time": 189.86834250000047,
                    "velocity": 0.3779527559055118,
                    "duration": 0.3829616250000072
                },
                {
                    "name": "G#4",
                    "midi": 68,
                    "time": 190.27146000000047,
                    "velocity": 0.3464566929133858,
                    "duration": 0.3829616250000072
                },
                {
                    "name": "C4",
                    "midi": 60,
                    "time": 190.27146000000047,
                    "velocity": 0.3700787401574803,
                    "duration": 1.6124700000000303
                },
                {
                    "name": "C5",
                    "midi": 72,
                    "time": 190.27146000000047,
                    "velocity": 0.4409448818897638,
                    "duration": 1.6124700000000303
                },
                {
                    "name": "G#4",
                    "midi": 68,
                    "time": 190.67457750000048,
                    "velocity": 0.3464566929133858,
                    "duration": 0.3829616250000072
                },
                {
                    "name": "G#4",
                    "midi": 68,
                    "time": 191.0776950000005,
                    "velocity": 0.3464566929133858,
                    "duration": 0.3829616250000072
                },
                {
                    "name": "G#4",
                    "midi": 68,
                    "time": 191.4808125000005,
                    "velocity": 0.3464566929133858,
                    "duration": 0.3829616250000072
                },
                {
                    "name": "G#4",
                    "midi": 68,
                    "time": 191.8839300000005,
                    "velocity": 0.36220472440944884,
                    "duration": 0.3829616250000072
                },
                {
                    "name": "C#4",
                    "midi": 61,
                    "time": 191.8839300000005,
                    "velocity": 0.3937007874015748,
                    "duration": 1.6124700000000303
                },
                {
                    "name": "C#5",
                    "midi": 73,
                    "time": 191.8839300000005,
                    "velocity": 0.4645669291338583,
                    "duration": 1.6124700000000303
                },
                {
                    "name": "G#4",
                    "midi": 68,
                    "time": 192.2870475000005,
                    "velocity": 0.36220472440944884,
                    "duration": 0.3829616250000072
                },
                {
                    "name": "G#4",
                    "midi": 68,
                    "time": 192.69016500000052,
                    "velocity": 0.36220472440944884,
                    "duration": 0.3829616250000072
                },
                {
                    "name": "G#4",
                    "midi": 68,
                    "time": 193.09328250000053,
                    "velocity": 0.36220472440944884,
                    "duration": 0.3829616250000072
                },
                {
                    "name": "G#4",
                    "midi": 68,
                    "time": 193.49640000000053,
                    "velocity": 0.36220472440944884,
                    "duration": 0.3829616250000072
                },
                {
                    "name": "D#4",
                    "midi": 63,
                    "time": 193.49640000000053,
                    "velocity": 0.4015748031496063,
                    "duration": 2.4187050000000454
                },
                {
                    "name": "C#5",
                    "midi": 73,
                    "time": 193.49640000000053,
                    "velocity": 0.48031496062992124,
                    "duration": 2.4187050000000454
                },
                {
                    "name": "D#5",
                    "midi": 75,
                    "time": 193.49640000000053,
                    "velocity": 0.48031496062992124,
                    "duration": 2.4187050000000454
                },
                {
                    "name": "G#4",
                    "midi": 68,
                    "time": 193.89951750000054,
                    "velocity": 0.36220472440944884,
                    "duration": 0.3829616250000072
                },
                {
                    "name": "G#4",
                    "midi": 68,
                    "time": 194.30263500000055,
                    "velocity": 0.36220472440944884,
                    "duration": 0.3829616250000072
                },
                {
                    "name": "G#4",
                    "midi": 68,
                    "time": 194.70575250000056,
                    "velocity": 0.36220472440944884,
                    "duration": 0.3829616250000072
                },
                {
                    "name": "G#4",
                    "midi": 68,
                    "time": 195.10887000000056,
                    "velocity": 0.36220472440944884,
                    "duration": 0.3829616250000072
                },
                {
                    "name": "G#4",
                    "midi": 68,
                    "time": 195.51198750000057,
                    "velocity": 0.3700787401574803,
                    "duration": 0.3829616250000072
                },
                {
                    "name": "G#4",
                    "midi": 68,
                    "time": 195.91510500000058,
                    "velocity": 0.3700787401574803,
                    "duration": 0.3829616250000072
                },
                {
                    "name": "D#4",
                    "midi": 63,
                    "time": 195.91510500000058,
                    "velocity": 0.4015748031496063,
                    "duration": 0.8062350000000151
                },
                {
                    "name": "C5",
                    "midi": 72,
                    "time": 195.91510500000058,
                    "velocity": 0.47244094488188976,
                    "duration": 0.8062350000000151
                },
                {
                    "name": "D#5",
                    "midi": 75,
                    "time": 195.91510500000058,
                    "velocity": 0.47244094488188976,
                    "duration": 0.8062350000000151
                },
                {
                    "name": "G#4",
                    "midi": 68,
                    "time": 196.3182225000006,
                    "velocity": 0.3779527559055118,
                    "duration": 0.3829616250000072
                },
                {
                    "name": "G#4",
                    "midi": 68,
                    "time": 196.7213400000006,
                    "velocity": 0.3779527559055118,
                    "duration": 0.3829616250000072
                },
                {
                    "name": "E4",
                    "midi": 64,
                    "time": 196.7213400000006,
                    "velocity": 0.41732283464566927,
                    "duration": 0.8062350000000151
                },
                {
                    "name": "D#5",
                    "midi": 75,
                    "time": 196.7213400000006,
                    "velocity": 0.49606299212598426,
                    "duration": 0.8062350000000151
                },
                {
                    "name": "E5",
                    "midi": 76,
                    "time": 196.7213400000006,
                    "velocity": 0.49606299212598426,
                    "duration": 0.8062350000000151
                },
                {
                    "name": "G#4",
                    "midi": 68,
                    "time": 197.1244575000006,
                    "velocity": 0.3779527559055118,
                    "duration": 0.3829616250000072
                },
                {
                    "name": "G#4",
                    "midi": 68,
                    "time": 197.5275750000006,
                    "velocity": 0.3779527559055118,
                    "duration": 0.3829616250000072
                },
                {
                    "name": "E4",
                    "midi": 64,
                    "time": 197.5275750000006,
                    "velocity": 0.3858267716535433,
                    "duration": 0.8062350000000151
                },
                {
                    "name": "C#5",
                    "midi": 73,
                    "time": 197.5275750000006,
                    "velocity": 0.4645669291338583,
                    "duration": 0.8062350000000151
                },
                {
                    "name": "E5",
                    "midi": 76,
                    "time": 197.5275750000006,
                    "velocity": 0.4645669291338583,
                    "duration": 0.8062350000000151
                },
                {
                    "name": "G#4",
                    "midi": 68,
                    "time": 197.93069250000062,
                    "velocity": 0.3779527559055118,
                    "duration": 0.3829616250000072
                },
                {
                    "name": "G#4",
                    "midi": 68,
                    "time": 198.33381000000062,
                    "velocity": 0.36220472440944884,
                    "duration": 0.3829616250000072
                },
                {
                    "name": "D#4",
                    "midi": 63,
                    "time": 198.33381000000062,
                    "velocity": 0.4015748031496063,
                    "duration": 0.8062350000000151
                },
                {
                    "name": "C#5",
                    "midi": 73,
                    "time": 198.33381000000062,
                    "velocity": 0.48031496062992124,
                    "duration": 0.8062350000000151
                },
                {
                    "name": "D#5",
                    "midi": 75,
                    "time": 198.33381000000062,
                    "velocity": 0.48031496062992124,
                    "duration": 0.8062350000000151
                },
                {
                    "name": "G#4",
                    "midi": 68,
                    "time": 198.73692750000063,
                    "velocity": 0.36220472440944884,
                    "duration": 0.3829616250000072
                },
                {
                    "name": "G#4",
                    "midi": 68,
                    "time": 199.14004500000064,
                    "velocity": 0.36220472440944884,
                    "duration": 0.3829616250000072
                },
                {
                    "name": "D#4",
                    "midi": 63,
                    "time": 199.14004500000064,
                    "velocity": 0.36220472440944884,
                    "duration": 0.8062350000000151
                },
                {
                    "name": "C5",
                    "midi": 72,
                    "time": 199.14004500000064,
                    "velocity": 0.4330708661417323,
                    "duration": 0.8062350000000151
                },
                {
                    "name": "D#5",
                    "midi": 75,
                    "time": 199.14004500000064,
                    "velocity": 0.4330708661417323,
                    "duration": 0.8062350000000151
                },
                {
                    "name": "G#4",
                    "midi": 68,
                    "time": 199.54316250000065,
                    "velocity": 0.36220472440944884,
                    "duration": 0.3829616250000072
                },
                {
                    "name": "G#4",
                    "midi": 68,
                    "time": 199.94628000000066,
                    "velocity": 0.36220472440944884,
                    "duration": 0.3829616250000072
                },
                {
                    "name": "C#4",
                    "midi": 61,
                    "time": 199.94628000000066,
                    "velocity": 0.4015748031496063,
                    "duration": 3.2249400000000605
                },
                {
                    "name": "C#5",
                    "midi": 73,
                    "time": 199.94628000000066,
                    "velocity": 0.4645669291338583,
                    "duration": 3.2249400000000605
                },
                {
                    "name": "G#4",
                    "midi": 68,
                    "time": 200.34939750000066,
                    "velocity": 0.36220472440944884,
                    "duration": 0.3829616250000072
                },
                {
                    "name": "F#4",
                    "midi": 66,
                    "time": 200.75251500000067,
                    "velocity": 0.3543307086614173,
                    "duration": 0.3829616250000072
                },
                {
                    "name": "F#4",
                    "midi": 66,
                    "time": 201.15563250000068,
                    "velocity": 0.3228346456692913,
                    "duration": 0.3829616250000072
                },
                {
                    "name": "G#4",
                    "midi": 68,
                    "time": 201.55875000000069,
                    "velocity": 0.3543307086614173,
                    "duration": 0.3829616250000072
                },
                {
                    "name": "G#4",
                    "midi": 68,
                    "time": 201.9618675000007,
                    "velocity": 0.3228346456692913,
                    "duration": 0.3829616250000072
                },
                {
                    "name": "A4",
                    "midi": 69,
                    "time": 202.3649850000007,
                    "velocity": 0.3464566929133858,
                    "duration": 0.3829616250000072
                },
                {
                    "name": "A4",
                    "midi": 69,
                    "time": 202.7681025000007,
                    "velocity": 0.31496062992125984,
                    "duration": 0.3829616250000072
                },
                {
                    "name": "G#3",
                    "midi": 56,
                    "time": 203.17122000000072,
                    "velocity": 0.30708661417322836,
                    "duration": 0.3829616250000072
                },
                {
                    "name": "C4",
                    "midi": 60,
                    "time": 203.17122000000072,
                    "velocity": 0.3700787401574803,
                    "duration": 1.6124700000000303
                },
                {
                    "name": "D#4",
                    "midi": 63,
                    "time": 203.17122000000072,
                    "velocity": 0.4409448818897638,
                    "duration": 1.6124700000000303
                },
                {
                    "name": "G#4",
                    "midi": 68,
                    "time": 203.17122000000072,
                    "velocity": 0.3700787401574803,
                    "duration": 1.6124700000000303
                },
                {
                    "name": "G#3",
                    "midi": 56,
                    "time": 203.57433750000072,
                    "velocity": 0.30708661417322836,
                    "duration": 0.3829616250000072
                },
                {
                    "name": "G#3",
                    "midi": 56,
                    "time": 203.97745500000073,
                    "velocity": 0.30708661417322836,
                    "duration": 0.3829616250000072
                },
                {
                    "name": "G#3",
                    "midi": 56,
                    "time": 204.38057250000074,
                    "velocity": 0.30708661417322836,
                    "duration": 0.3829616250000072
                },
                {
                    "name": "G#3",
                    "midi": 56,
                    "time": 204.78369000000075,
                    "velocity": 0.2992125984251969,
                    "duration": 0.3829616250000072
                },
                {
                    "name": "C#4",
                    "midi": 61,
                    "time": 204.78369000000075,
                    "velocity": 0.36220472440944884,
                    "duration": 0.8062350000000151
                },
                {
                    "name": "E4",
                    "midi": 64,
                    "time": 204.78369000000075,
                    "velocity": 0.4330708661417323,
                    "duration": 0.8062350000000151
                },
                {
                    "name": "G#4",
                    "midi": 68,
                    "time": 204.78369000000075,
                    "velocity": 0.36220472440944884,
                    "duration": 0.8062350000000151
                },
                {
                    "name": "G#3",
                    "midi": 56,
                    "time": 205.18680750000075,
                    "velocity": 0.2992125984251969,
                    "duration": 0.3829616250000072
                },
                {
                    "name": "G#3",
                    "midi": 56,
                    "time": 205.58992500000076,
                    "velocity": 0.2992125984251969,
                    "duration": 0.3829616250000072
                },
                {
                    "name": "A#3",
                    "midi": 58,
                    "time": 205.58992500000076,
                    "velocity": 0.36220472440944884,
                    "duration": 0.8062350000000151
                },
                {
                    "name": "C#4",
                    "midi": 61,
                    "time": 205.58992500000076,
                    "velocity": 0.4330708661417323,
                    "duration": 0.8062350000000151
                },
                {
                    "name": "G#4",
                    "midi": 68,
                    "time": 205.58992500000076,
                    "velocity": 0.36220472440944884,
                    "duration": 0.8062350000000151
                },
                {
                    "name": "G#3",
                    "midi": 56,
                    "time": 205.99304250000077,
                    "velocity": 0.2992125984251969,
                    "duration": 0.3829616250000072
                },
                {
                    "name": "G#3",
                    "midi": 56,
                    "time": 206.39616000000078,
                    "velocity": 0.30708661417322836,
                    "duration": 0.3829616250000072
                },
                {
                    "name": "C4",
                    "midi": 60,
                    "time": 206.39616000000078,
                    "velocity": 0.3700787401574803,
                    "duration": 0.8062350000000151
                },
                {
                    "name": "D#4",
                    "midi": 63,
                    "time": 206.39616000000078,
                    "velocity": 0.4409448818897638,
                    "duration": 0.8062350000000151
                },
                {
                    "name": "G#4",
                    "midi": 68,
                    "time": 206.39616000000078,
                    "velocity": 0.3700787401574803,
                    "duration": 0.8062350000000151
                },
                {
                    "name": "G#3",
                    "midi": 56,
                    "time": 206.79927750000078,
                    "velocity": 0.30708661417322836,
                    "duration": 0.3829616250000072
                },
                {
                    "name": "G#3",
                    "midi": 56,
                    "time": 207.2023950000008,
                    "velocity": 0.2992125984251969,
                    "duration": 0.3829616250000072
                },
                {
                    "name": "C#4",
                    "midi": 61,
                    "time": 207.2023950000008,
                    "velocity": 0.36220472440944884,
                    "duration": 0.8062350000000151
                },
                {
                    "name": "E4",
                    "midi": 64,
                    "time": 207.2023950000008,
                    "velocity": 0.4330708661417323,
                    "duration": 0.8062350000000151
                },
                {
                    "name": "G#4",
                    "midi": 68,
                    "time": 207.2023950000008,
                    "velocity": 0.36220472440944884,
                    "duration": 0.8062350000000151
                },
                {
                    "name": "G#3",
                    "midi": 56,
                    "time": 207.6055125000008,
                    "velocity": 0.2992125984251969,
                    "duration": 0.3829616250000072
                },
                {
                    "name": "G#3",
                    "midi": 56,
                    "time": 208.0086300000008,
                    "velocity": 0.2992125984251969,
                    "duration": 0.3829616250000072
                },
                {
                    "name": "A#3",
                    "midi": 58,
                    "time": 208.0086300000008,
                    "velocity": 0.36220472440944884,
                    "duration": 0.8062350000000151
                },
                {
                    "name": "C#4",
                    "midi": 61,
                    "time": 208.0086300000008,
                    "velocity": 0.4330708661417323,
                    "duration": 0.8062350000000151
                },
                {
                    "name": "G#4",
                    "midi": 68,
                    "time": 208.0086300000008,
                    "velocity": 0.36220472440944884,
                    "duration": 0.8062350000000151
                },
                {
                    "name": "G#3",
                    "midi": 56,
                    "time": 208.4117475000008,
                    "velocity": 0.2992125984251969,
                    "duration": 0.3829616250000072
                },
                {
                    "name": "G#3",
                    "midi": 56,
                    "time": 208.81486500000082,
                    "velocity": 0.2992125984251969,
                    "duration": 0.3829616250000072
                },
                {
                    "name": "C#4",
                    "midi": 61,
                    "time": 208.81486500000082,
                    "velocity": 0.36220472440944884,
                    "duration": 0.8062350000000151
                },
                {
                    "name": "E4",
                    "midi": 64,
                    "time": 208.81486500000082,
                    "velocity": 0.4330708661417323,
                    "duration": 0.8062350000000151
                },
                {
                    "name": "G#4",
                    "midi": 68,
                    "time": 208.81486500000082,
                    "velocity": 0.36220472440944884,
                    "duration": 0.8062350000000151
                },
                {
                    "name": "G#3",
                    "midi": 56,
                    "time": 209.21798250000083,
                    "velocity": 0.2992125984251969,
                    "duration": 0.3829616250000072
                },
                {
                    "name": "G#3",
                    "midi": 56,
                    "time": 209.62110000000084,
                    "velocity": 0.33070866141732286,
                    "duration": 0.3829616250000072
                },
                {
                    "name": "C#4",
                    "midi": 61,
                    "time": 209.62110000000084,
                    "velocity": 0.3937007874015748,
                    "duration": 0.8062350000000151
                },
                {
                    "name": "E4",
                    "midi": 64,
                    "time": 209.62110000000084,
                    "velocity": 0.47244094488188976,
                    "duration": 0.8062350000000151
                },
                {
                    "name": "G#4",
                    "midi": 68,
                    "time": 209.62110000000084,
                    "velocity": 0.3937007874015748,
                    "duration": 0.8062350000000151
                },
                {
                    "name": "G#3",
                    "midi": 56,
                    "time": 210.02421750000084,
                    "velocity": 0.33070866141732286,
                    "duration": 0.3829616250000072
                },
                {
                    "name": "G#3",
                    "midi": 56,
                    "time": 210.42733500000085,
                    "velocity": 0.30708661417322836,
                    "duration": 0.3829616250000072
                },
                {
                    "name": "C4",
                    "midi": 60,
                    "time": 210.42733500000085,
                    "velocity": 0.3700787401574803,
                    "duration": 0.8062350000000151
                },
                {
                    "name": "D#4",
                    "midi": 63,
                    "time": 210.42733500000085,
                    "velocity": 0.4409448818897638,
                    "duration": 0.8062350000000151
                },
                {
                    "name": "G#4",
                    "midi": 68,
                    "time": 210.42733500000085,
                    "velocity": 0.3700787401574803,
                    "duration": 0.8062350000000151
                },
                {
                    "name": "G#3",
                    "midi": 56,
                    "time": 210.83045250000086,
                    "velocity": 0.30708661417322836,
                    "duration": 0.3829616250000072
                },
                {
                    "name": "G#3",
                    "midi": 56,
                    "time": 211.23357000000087,
                    "velocity": 0.3228346456692913,
                    "duration": 0.3829616250000072
                },
                {
                    "name": "D#4",
                    "midi": 63,
                    "time": 211.23357000000087,
                    "velocity": 0.3858267716535433,
                    "duration": 0.8062350000000151
                },
                {
                    "name": "F#4",
                    "midi": 66,
                    "time": 211.23357000000087,
                    "velocity": 0.4566929133858268,
                    "duration": 0.8062350000000151
                },
                {
                    "name": "G#4",
                    "midi": 68,
                    "time": 211.23357000000087,
                    "velocity": 0.3858267716535433,
                    "duration": 0.8062350000000151
                },
                {
                    "name": "G#3",
                    "midi": 56,
                    "time": 211.63668750000087,
                    "velocity": 0.3228346456692913,
                    "duration": 0.3829616250000072
                },
                {
                    "name": "G#3",
                    "midi": 56,
                    "time": 212.03980500000088,
                    "velocity": 0.30708661417322836,
                    "duration": 0.3829616250000072
                },
                {
                    "name": "C#4",
                    "midi": 61,
                    "time": 212.03980500000088,
                    "velocity": 0.3700787401574803,
                    "duration": 0.8062350000000151
                },
                {
                    "name": "E4",
                    "midi": 64,
                    "time": 212.03980500000088,
                    "velocity": 0.4409448818897638,
                    "duration": 0.8062350000000151
                },
                {
                    "name": "G#4",
                    "midi": 68,
                    "time": 212.03980500000088,
                    "velocity": 0.3700787401574803,
                    "duration": 0.8062350000000151
                },
                {
                    "name": "G#3",
                    "midi": 56,
                    "time": 212.4429225000009,
                    "velocity": 0.30708661417322836,
                    "duration": 0.3829616250000072
                },
                {
                    "name": "G#3",
                    "midi": 56,
                    "time": 212.8460400000009,
                    "velocity": 0.30708661417322836,
                    "duration": 0.3829616250000072
                },
                {
                    "name": "C4",
                    "midi": 60,
                    "time": 212.8460400000009,
                    "velocity": 0.3700787401574803,
                    "duration": 3.2249400000000605
                },
                {
                    "name": "D#4",
                    "midi": 63,
                    "time": 212.8460400000009,
                    "velocity": 0.4409448818897638,
                    "duration": 3.2249400000000605
                },
                {
                    "name": "G#4",
                    "midi": 68,
                    "time": 212.8460400000009,
                    "velocity": 0.3700787401574803,
                    "duration": 3.2249400000000605
                },
                {
                    "name": "G#3",
                    "midi": 56,
                    "time": 213.2491575000009,
                    "velocity": 0.30708661417322836,
                    "duration": 0.3829616250000072
                },
                {
                    "name": "G#3",
                    "midi": 56,
                    "time": 213.6522750000009,
                    "velocity": 0.30708661417322836,
                    "duration": 0.3829616250000072
                },
                {
                    "name": "G#3",
                    "midi": 56,
                    "time": 214.05539250000092,
                    "velocity": 0.30708661417322836,
                    "duration": 0.3829616250000072
                },
                {
                    "name": "G#3",
                    "midi": 56,
                    "time": 214.45851000000093,
                    "velocity": 0.30708661417322836,
                    "duration": 0.3829616250000072
                },
                {
                    "name": "G#3",
                    "midi": 56,
                    "time": 214.86162750000094,
                    "velocity": 0.30708661417322836,
                    "duration": 0.3829616250000072
                },
                {
                    "name": "G#3",
                    "midi": 56,
                    "time": 215.26474500000094,
                    "velocity": 0.30708661417322836,
                    "duration": 0.3829616250000072
                },
                {
                    "name": "G#3",
                    "midi": 56,
                    "time": 215.66786250000095,
                    "velocity": 0.30708661417322836,
                    "duration": 0.3829616250000072
                },
                {
                    "name": "D#4",
                    "midi": 63,
                    "time": 216.07098000000096,
                    "velocity": 0.4015748031496063,
                    "duration": 1.6124700000000303
                },
                {
                    "name": "G#4",
                    "midi": 68,
                    "time": 216.07098000000096,
                    "velocity": 0.3779527559055118,
                    "duration": 0.3829616250000072
                },
                {
                    "name": "C4",
                    "midi": 60,
                    "time": 216.07098000000096,
                    "velocity": 0.4015748031496063,
                    "duration": 1.6124700000000303
                },
                {
                    "name": "C5",
                    "midi": 72,
                    "time": 216.07098000000096,
                    "velocity": 0.48031496062992124,
                    "duration": 1.6124700000000303
                },
                {
                    "name": "G#4",
                    "midi": 68,
                    "time": 216.47409750000097,
                    "velocity": 0.41732283464566927,
                    "duration": 0.3829616250000072
                },
                {
                    "name": "G#4",
                    "midi": 68,
                    "time": 216.87721500000097,
                    "velocity": 0.44881889763779526,
                    "duration": 0.3829616250000072
                },
                {
                    "name": "G#4",
                    "midi": 68,
                    "time": 217.28033250000098,
                    "velocity": 0.44881889763779526,
                    "duration": 0.3829616250000072
                },
                {
                    "name": "G#4",
                    "midi": 68,
                    "time": 217.683450000001,
                    "velocity": 0.41732283464566927,
                    "duration": 0.3829616250000072
                },
                {
                    "name": "C#4",
                    "midi": 61,
                    "time": 217.683450000001,
                    "velocity": 0.4566929133858268,
                    "duration": 1.6124700000000303
                },
                {
                    "name": "C#5",
                    "midi": 73,
                    "time": 217.683450000001,
                    "velocity": 0.5433070866141733,
                    "duration": 1.6124700000000303
                },
                {
                    "name": "G#4",
                    "midi": 68,
                    "time": 218.086567500001,
                    "velocity": 0.4566929133858268,
                    "duration": 0.3829616250000072
                },
                {
                    "name": "G#4",
                    "midi": 68,
                    "time": 218.489685000001,
                    "velocity": 0.4645669291338583,
                    "duration": 0.3829616250000072
                },
                {
                    "name": "G#4",
                    "midi": 68,
                    "time": 218.892802500001,
                    "velocity": 0.48031496062992124,
                    "duration": 0.3829616250000072
                },
                {
                    "name": "G#4",
                    "midi": 68,
                    "time": 219.29592000000102,
                    "velocity": 0.44881889763779526,
                    "duration": 0.3829616250000072
                },
                {
                    "name": "D#4",
                    "midi": 63,
                    "time": 219.29592000000102,
                    "velocity": 0.49606299212598426,
                    "duration": 2.4187050000000454
                },
                {
                    "name": "C#5",
                    "midi": 73,
                    "time": 219.29592000000102,
                    "velocity": 0.6062992125984252,
                    "duration": 2.4187050000000454
                },
                {
                    "name": "D#5",
                    "midi": 75,
                    "time": 219.29592000000102,
                    "velocity": 0.6062992125984252,
                    "duration": 2.4187050000000454
                },
                {
                    "name": "G#4",
                    "midi": 68,
                    "time": 219.69903750000103,
                    "velocity": 0.5196850393700787,
                    "duration": 0.3829616250000072
                },
                {
                    "name": "G#4",
                    "midi": 68,
                    "time": 220.10215500000103,
                    "velocity": 0.5354330708661418,
                    "duration": 0.3829616250000072
                },
                {
                    "name": "G#4",
                    "midi": 68,
                    "time": 220.50527250000104,
                    "velocity": 0.5433070866141733,
                    "duration": 0.3829616250000072
                },
                {
                    "name": "G#4",
                    "midi": 68,
                    "time": 220.90839000000105,
                    "velocity": 0.5590551181102362,
                    "duration": 0.3829616250000072
                },
                {
                    "name": "G#4",
                    "midi": 68,
                    "time": 221.31150750000106,
                    "velocity": 0.5748031496062992,
                    "duration": 0.3829616250000072
                },
                {
                    "name": "G#4",
                    "midi": 68,
                    "time": 221.71462500000106,
                    "velocity": 0.49606299212598426,
                    "duration": 0.3829616250000072
                },
                {
                    "name": "D#4",
                    "midi": 63,
                    "time": 221.71462500000106,
                    "velocity": 0.5433070866141733,
                    "duration": 0.8062350000000151
                },
                {
                    "name": "C5",
                    "midi": 72,
                    "time": 221.71462500000106,
                    "velocity": 0.6377952755905512,
                    "duration": 0.8062350000000151
                },
                {
                    "name": "D#5",
                    "midi": 75,
                    "time": 221.71462500000106,
                    "velocity": 0.6377952755905512,
                    "duration": 0.8062350000000151
                },
                {
                    "name": "G#4",
                    "midi": 68,
                    "time": 222.11774250000107,
                    "velocity": 0.5748031496062992,
                    "duration": 0.3829616250000072
                },
                {
                    "name": "G#4",
                    "midi": 68,
                    "time": 222.52086000000108,
                    "velocity": 0.5275590551181102,
                    "duration": 0.3829616250000072
                },
                {
                    "name": "E4",
                    "midi": 64,
                    "time": 222.52086000000108,
                    "velocity": 0.5826771653543307,
                    "duration": 0.8062350000000151
                },
                {
                    "name": "D#5",
                    "midi": 75,
                    "time": 222.52086000000108,
                    "velocity": 0.7007874015748031,
                    "duration": 0.8062350000000151
                },
                {
                    "name": "E5",
                    "midi": 76,
                    "time": 222.52086000000108,
                    "velocity": 0.7007874015748031,
                    "duration": 0.8062350000000151
                },
                {
                    "name": "G#4",
                    "midi": 68,
                    "time": 222.9239775000011,
                    "velocity": 0.5275590551181102,
                    "duration": 0.3829616250000072
                },
                {
                    "name": "G#4",
                    "midi": 68,
                    "time": 223.3270950000011,
                    "velocity": 0.5275590551181102,
                    "duration": 0.3829616250000072
                },
                {
                    "name": "E4",
                    "midi": 64,
                    "time": 223.3270950000011,
                    "velocity": 0.5433070866141733,
                    "duration": 0.8062350000000151
                },
                {
                    "name": "C#5",
                    "midi": 73,
                    "time": 223.3270950000011,
                    "velocity": 0.6456692913385826,
                    "duration": 0.8062350000000151
                },
                {
                    "name": "E5",
                    "midi": 76,
                    "time": 223.3270950000011,
                    "velocity": 0.6456692913385826,
                    "duration": 0.8062350000000151
                },
                {
                    "name": "G#4",
                    "midi": 68,
                    "time": 223.7302125000011,
                    "velocity": 0.5275590551181102,
                    "duration": 0.3829616250000072
                },
                {
                    "name": "G#4",
                    "midi": 68,
                    "time": 224.1333300000011,
                    "velocity": 0.49606299212598426,
                    "duration": 0.3829616250000072
                },
                {
                    "name": "D#4",
                    "midi": 63,
                    "time": 224.1333300000011,
                    "velocity": 0.5590551181102362,
                    "duration": 0.8062350000000151
                },
                {
                    "name": "C#5",
                    "midi": 73,
                    "time": 224.1333300000011,
                    "velocity": 0.6692913385826772,
                    "duration": 0.8062350000000151
                },
                {
                    "name": "D#5",
                    "midi": 75,
                    "time": 224.1333300000011,
                    "velocity": 0.6692913385826772,
                    "duration": 0.8062350000000151
                },
                {
                    "name": "G#4",
                    "midi": 68,
                    "time": 224.53644750000112,
                    "velocity": 0.49606299212598426,
                    "duration": 0.3829616250000072
                },
                {
                    "name": "G#4",
                    "midi": 68,
                    "time": 224.93956500000112,
                    "velocity": 0.49606299212598426,
                    "duration": 0.3829616250000072
                },
                {
                    "name": "D#4",
                    "midi": 63,
                    "time": 224.93956500000112,
                    "velocity": 0.49606299212598426,
                    "duration": 0.8062350000000151
                },
                {
                    "name": "C5",
                    "midi": 72,
                    "time": 224.93956500000112,
                    "velocity": 0.6062992125984252,
                    "duration": 0.8062350000000151
                },
                {
                    "name": "D#5",
                    "midi": 75,
                    "time": 224.93956500000112,
                    "velocity": 0.6062992125984252,
                    "duration": 0.8062350000000151
                },
                {
                    "name": "G#4",
                    "midi": 68,
                    "time": 225.34268250000113,
                    "velocity": 0.49606299212598426,
                    "duration": 0.3829616250000072
                },
                {
                    "name": "B4",
                    "midi": 71,
                    "time": 225.74580000000114,
                    "velocity": 0.5275590551181102,
                    "duration": 1.6124700000000303
                },
                {
                    "name": "G#4",
                    "midi": 68,
                    "time": 225.74580000000114,
                    "velocity": 0.5275590551181102,
                    "duration": 1.6124700000000303
                },
                {
                    "name": "C#4",
                    "midi": 61,
                    "time": 225.74580000000114,
                    "velocity": 0.4645669291338583,
                    "duration": 0.3829616250000072
                },
                {
                    "name": "C#5",
                    "midi": 73,
                    "time": 225.74580000000114,
                    "velocity": 0.6062992125984252,
                    "duration": 1.6124700000000303
                },
                {
                    "name": "C#4",
                    "midi": 61,
                    "time": 226.14891750000115,
                    "velocity": 0.4645669291338583,
                    "duration": 0.3829616250000072
                },
                {
                    "name": "C#4",
                    "midi": 61,
                    "time": 226.55203500000115,
                    "velocity": 0.4566929133858268,
                    "duration": 0.3829616250000072
                },
                {
                    "name": "C#4",
                    "midi": 61,
                    "time": 226.95515250000116,
                    "velocity": 0.4566929133858268,
                    "duration": 0.3829616250000072
                },
                {
                    "name": "G#4",
                    "midi": 68,
                    "time": 227.35827000000117,
                    "velocity": 0.4881889763779528,
                    "duration": 0.8062350000000151
                },
                {
                    "name": "A4",
                    "midi": 69,
                    "time": 227.35827000000117,
                    "velocity": 0.4881889763779528,
                    "duration": 0.8062350000000151
                },
                {
                    "name": "C#5",
                    "midi": 73,
                    "time": 227.35827000000117,
                    "velocity": 0.5669291338582677,
                    "duration": 0.8062350000000151
                },
                {
                    "name": "C#4",
                    "midi": 61,
                    "time": 227.35827000000117,
                    "velocity": 0.4330708661417323,
                    "duration": 0.3829616250000072
                },
                {
                    "name": "C#4",
                    "midi": 61,
                    "time": 227.76138750000118,
                    "velocity": 0.41732283464566927,
                    "duration": 0.3829616250000072
                },
                {
                    "name": "F#4",
                    "midi": 66,
                    "time": 228.16450500000118,
                    "velocity": 0.4881889763779528,
                    "duration": 0.8062350000000151
                },
                {
                    "name": "A4",
                    "midi": 69,
                    "time": 228.16450500000118,
                    "velocity": 0.4881889763779528,
                    "duration": 0.8062350000000151
                },
                {
                    "name": "C#5",
                    "midi": 73,
                    "time": 228.16450500000118,
                    "velocity": 0.5669291338582677,
                    "duration": 0.8062350000000151
                },
                {
                    "name": "C#4",
                    "midi": 61,
                    "time": 228.16450500000118,
                    "velocity": 0.41732283464566927,
                    "duration": 0.3829616250000072
                },
                {
                    "name": "C#4",
                    "midi": 61,
                    "time": 228.5676225000012,
                    "velocity": 0.41732283464566927,
                    "duration": 0.3829616250000072
                },
                {
                    "name": "G#3",
                    "midi": 56,
                    "time": 228.9707400000012,
                    "velocity": 0.3700787401574803,
                    "duration": 0.3829616250000072
                },
                {
                    "name": "D#4",
                    "midi": 63,
                    "time": 228.9707400000012,
                    "velocity": 0.4409448818897638,
                    "duration": 1.6124700000000303
                },
                {
                    "name": "F#4",
                    "midi": 66,
                    "time": 228.9707400000012,
                    "velocity": 0.4409448818897638,
                    "duration": 1.6124700000000303
                },
                {
                    "name": "G#4",
                    "midi": 68,
                    "time": 228.9707400000012,
                    "velocity": 0.5275590551181102,
                    "duration": 1.6124700000000303
                },
                {
                    "name": "G#3",
                    "midi": 56,
                    "time": 229.3738575000012,
                    "velocity": 0.3700787401574803,
                    "duration": 0.3829616250000072
                },
                {
                    "name": "G#3",
                    "midi": 56,
                    "time": 229.77697500000122,
                    "velocity": 0.3700787401574803,
                    "duration": 0.3829616250000072
                },
                {
                    "name": "G#3",
                    "midi": 56,
                    "time": 230.18009250000122,
                    "velocity": 0.3779527559055118,
                    "duration": 0.3829616250000072
                },
                {
                    "name": "G#3",
                    "midi": 56,
                    "time": 230.58321000000123,
                    "velocity": 0.3700787401574803,
                    "duration": 0.3829616250000072
                },
                {
                    "name": "C#4",
                    "midi": 61,
                    "time": 230.58321000000123,
                    "velocity": 0.3779527559055118,
                    "duration": 0.8062350000000151
                },
                {
                    "name": "F#4",
                    "midi": 66,
                    "time": 230.58321000000123,
                    "velocity": 0.44881889763779526,
                    "duration": 0.8062350000000151
                },
                {
                    "name": "G#4",
                    "midi": 68,
                    "time": 230.58321000000123,
                    "velocity": 0.5354330708661418,
                    "duration": 0.8062350000000151
                },
                {
                    "name": "G#3",
                    "midi": 56,
                    "time": 230.98632750000124,
                    "velocity": 0.3779527559055118,
                    "duration": 0.3829616250000072
                },
                {
                    "name": "G#3",
                    "midi": 56,
                    "time": 231.38944500000125,
                    "velocity": 0.3779527559055118,
                    "duration": 0.3829616250000072
                },
                {
                    "name": "C#4",
                    "midi": 61,
                    "time": 231.38944500000125,
                    "velocity": 0.3858267716535433,
                    "duration": 0.8062350000000151
                },
                {
                    "name": "E4",
                    "midi": 64,
                    "time": 231.38944500000125,
                    "velocity": 0.4566929133858268,
                    "duration": 0.8062350000000151
                },
                {
                    "name": "A#4",
                    "midi": 70,
                    "time": 231.38944500000125,
                    "velocity": 0.5433070866141733,
                    "duration": 0.8062350000000151
                },
                {
                    "name": "G#3",
                    "midi": 56,
                    "time": 231.79256250000125,
                    "velocity": 0.3779527559055118,
                    "duration": 0.3829616250000072
                },
                {
                    "name": "G#3",
                    "midi": 56,
                    "time": 232.19568000000126,
                    "velocity": 0.3937007874015748,
                    "duration": 0.3829616250000072
                },
                {
                    "name": "C#4",
                    "midi": 61,
                    "time": 232.19568000000126,
                    "velocity": 0.4015748031496063,
                    "duration": 1.6124700000000303
                },
                {
                    "name": "E4",
                    "midi": 64,
                    "time": 232.19568000000126,
                    "velocity": 0.47244094488188976,
                    "duration": 1.6124700000000303
                },
                {
                    "name": "A#4",
                    "midi": 70,
                    "time": 232.19568000000126,
                    "velocity": 0.5433070866141733,
                    "duration": 1.6124700000000303
                },
                {
                    "name": "G#3",
                    "midi": 56,
                    "time": 232.59879750000127,
                    "velocity": 0.3937007874015748,
                    "duration": 0.3829616250000072
                },
                {
                    "name": "G#3",
                    "midi": 56,
                    "time": 233.00191500000128,
                    "velocity": 0.3779527559055118,
                    "duration": 0.3829616250000072
                },
                {
                    "name": "G#3",
                    "midi": 56,
                    "time": 233.40503250000128,
                    "velocity": 0.3779527559055118,
                    "duration": 0.3829616250000072
                },
                {
                    "name": "G#3",
                    "midi": 56,
                    "time": 233.8081500000013,
                    "velocity": 0.3700787401574803,
                    "duration": 0.3829616250000072
                },
                {
                    "name": "C4",
                    "midi": 60,
                    "time": 233.8081500000013,
                    "velocity": 0.3937007874015748,
                    "duration": 0.8062350000000151
                },
                {
                    "name": "D#4",
                    "midi": 63,
                    "time": 233.8081500000013,
                    "velocity": 0.44881889763779526,
                    "duration": 0.8062350000000151
                },
                {
                    "name": "G#4",
                    "midi": 68,
                    "time": 233.8081500000013,
                    "velocity": 0.5354330708661418,
                    "duration": 0.8062350000000151
                },
                {
                    "name": "G#3",
                    "midi": 56,
                    "time": 234.2112675000013,
                    "velocity": 0.3700787401574803,
                    "duration": 0.3829616250000072
                },
                {
                    "name": "G#3",
                    "midi": 56,
                    "time": 234.6143850000013,
                    "velocity": 0.3700787401574803,
                    "duration": 0.3829616250000072
                },
                {
                    "name": "C#4",
                    "midi": 61,
                    "time": 234.6143850000013,
                    "velocity": 0.3700787401574803,
                    "duration": 0.8062350000000151
                },
                {
                    "name": "E4",
                    "midi": 64,
                    "time": 234.6143850000013,
                    "velocity": 0.4409448818897638,
                    "duration": 0.8062350000000151
                },
                {
                    "name": "A#4",
                    "midi": 70,
                    "time": 234.6143850000013,
                    "velocity": 0.5275590551181102,
                    "duration": 0.8062350000000151
                },
                {
                    "name": "G#3",
                    "midi": 56,
                    "time": 235.0175025000013,
                    "velocity": 0.36220472440944884,
                    "duration": 0.3829616250000072
                },
                {
                    "name": "G#3",
                    "midi": 56,
                    "time": 235.42062000000132,
                    "velocity": 0.3700787401574803,
                    "duration": 0.3829616250000072
                },
                {
                    "name": "C#4",
                    "midi": 61,
                    "time": 235.42062000000132,
                    "velocity": 0.3700787401574803,
                    "duration": 1.6124700000000303
                },
                {
                    "name": "E4",
                    "midi": 64,
                    "time": 235.42062000000132,
                    "velocity": 0.4409448818897638,
                    "duration": 1.6124700000000303
                },
                {
                    "name": "A#4",
                    "midi": 70,
                    "time": 235.42062000000132,
                    "velocity": 0.5275590551181102,
                    "duration": 1.6124700000000303
                },
                {
                    "name": "G#3",
                    "midi": 56,
                    "time": 235.82373750000133,
                    "velocity": 0.36220472440944884,
                    "duration": 0.3829616250000072
                },
                {
                    "name": "G#3",
                    "midi": 56,
                    "time": 236.22685500000134,
                    "velocity": 0.3464566929133858,
                    "duration": 0.3829616250000072
                },
                {
                    "name": "G#3",
                    "midi": 56,
                    "time": 236.62997250000134,
                    "velocity": 0.33070866141732286,
                    "duration": 0.3829616250000072
                },
                {
                    "name": "G#3",
                    "midi": 56,
                    "time": 237.03309000000135,
                    "velocity": 0.3228346456692913,
                    "duration": 0.3829616250000072
                },
                {
                    "name": "C4",
                    "midi": 60,
                    "time": 237.03309000000135,
                    "velocity": 0.3464566929133858,
                    "duration": 0.8062350000000151
                },
                {
                    "name": "D#4",
                    "midi": 63,
                    "time": 237.03309000000135,
                    "velocity": 0.3937007874015748,
                    "duration": 0.8062350000000151
                },
                {
                    "name": "G#4",
                    "midi": 68,
                    "time": 237.03309000000135,
                    "velocity": 0.47244094488188976,
                    "duration": 0.8062350000000151
                },
                {
                    "name": "G#3",
                    "midi": 56,
                    "time": 237.43620750000136,
                    "velocity": 0.31496062992125984,
                    "duration": 0.3829616250000072
                },
                {
                    "name": "G#3",
                    "midi": 56,
                    "time": 237.83932500000137,
                    "velocity": 0.30708661417322836,
                    "duration": 0.3829616250000072
                },
                {
                    "name": "C#4",
                    "midi": 61,
                    "time": 237.83932500000137,
                    "velocity": 0.3779527559055118,
                    "duration": 0.8062350000000151
                },
                {
                    "name": "E4",
                    "midi": 64,
                    "time": 237.83932500000137,
                    "velocity": 0.3779527559055118,
                    "duration": 0.8062350000000151
                },
                {
                    "name": "A#4",
                    "midi": 70,
                    "time": 237.83932500000137,
                    "velocity": 0.44881889763779526,
                    "duration": 0.8062350000000151
                },
                {
                    "name": "G#3",
                    "midi": 56,
                    "time": 238.24244250000137,
                    "velocity": 0.30708661417322836,
                    "duration": 0.3829616250000072
                },
                {
                    "name": "G#3",
                    "midi": 56,
                    "time": 238.64556000000138,
                    "velocity": 0.2992125984251969,
                    "duration": 0.3829616250000072
                },
                {
                    "name": "C#4",
                    "midi": 61,
                    "time": 238.64556000000138,
                    "velocity": 0.36220472440944884,
                    "duration": 0.8062350000000151
                },
                {
                    "name": "E4",
                    "midi": 64,
                    "time": 238.64556000000138,
                    "velocity": 0.36220472440944884,
                    "duration": 0.8062350000000151
                },
                {
                    "name": "A#4",
                    "midi": 70,
                    "time": 238.64556000000138,
                    "velocity": 0.4330708661417323,
                    "duration": 0.8062350000000151
                },
                {
                    "name": "G#3",
                    "midi": 56,
                    "time": 239.0486775000014,
                    "velocity": 0.2992125984251969,
                    "duration": 0.3829616250000072
                },
                {
                    "name": "G#3",
                    "midi": 56,
                    "time": 239.4517950000014,
                    "velocity": 0.2677165354330709,
                    "duration": 0.3829616250000072
                },
                {
                    "name": "C4",
                    "midi": 60,
                    "time": 239.4517950000014,
                    "velocity": 0.31496062992125984,
                    "duration": 0.8062350000000151
                },
                {
                    "name": "D#4",
                    "midi": 63,
                    "time": 239.4517950000014,
                    "velocity": 0.31496062992125984,
                    "duration": 0.8062350000000151
                },
                {
                    "name": "G#4",
                    "midi": 68,
                    "time": 239.4517950000014,
                    "velocity": 0.3858267716535433,
                    "duration": 0.8062350000000151
                },
                {
                    "name": "G#3",
                    "midi": 56,
                    "time": 239.8549125000014,
                    "velocity": 0.2677165354330709,
                    "duration": 0.3829616250000072
                },
                {
                    "name": "G#3",
                    "midi": 56,
                    "time": 240.2580300000014,
                    "velocity": 0.29133858267716534,
                    "duration": 0.3829616250000072
                },
                {
                    "name": "G#3",
                    "midi": 56,
                    "time": 240.66114750000142,
                    "velocity": 0.29133858267716534,
                    "duration": 0.3829616250000072
                },
                {
                    "name": "G#3",
                    "midi": 56,
                    "time": 241.06426500000143,
                    "velocity": 0.31496062992125984,
                    "duration": 0.3829616250000072
                },
                {
                    "name": "G#3",
                    "midi": 56,
                    "time": 241.46738250000143,
                    "velocity": 0.29133858267716534,
                    "duration": 0.3829616250000072
                },
                {
                    "name": "F5",
                    "midi": 77,
                    "time": 241.87050000000144,
                    "velocity": 0.41732283464566927,
                    "duration": 0.6046762500000114
                },
                {
                    "name": "C#5",
                    "midi": 73,
                    "time": 242.47517625000145,
                    "velocity": 0.3543307086614173,
                    "duration": 0.20155875000000378
                },
                {
                    "name": "G#4",
                    "midi": 68,
                    "time": 242.67673500000146,
                    "velocity": 0.4015748031496063,
                    "duration": 1.6124700000000018
                },
                {
                    "name": "A#4",
                    "midi": 70,
                    "time": 244.28920500000146,
                    "velocity": 0.3937007874015748,
                    "duration": 0.8062349999999867
                },
                {
                    "name": "C5",
                    "midi": 72,
                    "time": 245.09544000000145,
                    "velocity": 0.4015748031496063,
                    "duration": 2.4187049999999886
                },
                {
                    "name": "C#5",
                    "midi": 73,
                    "time": 247.51414500000143,
                    "velocity": 0.4015748031496063,
                    "duration": 0.8062349999999867
                },
                {
                    "name": "C4",
                    "midi": 60,
                    "time": 248.32038000000142,
                    "velocity": 0.3543307086614173,
                    "duration": 2.418705000000017
                },
                {
                    "name": "F#4",
                    "midi": 66,
                    "time": 248.32038000000142,
                    "velocity": 0.3543307086614173,
                    "duration": 0.6046762500000114
                },
                {
                    "name": "D#5",
                    "midi": 75,
                    "time": 248.32038000000142,
                    "velocity": 0.4251968503937008,
                    "duration": 0.6046762500000114
                },
                {
                    "name": "G#4",
                    "midi": 68,
                    "time": 248.92505625000143,
                    "velocity": 0.3700787401574803,
                    "duration": 0.20155875000000378
                },
                {
                    "name": "F5",
                    "midi": 77,
                    "time": 248.92505625000143,
                    "velocity": 0.4409448818897638,
                    "duration": 0.20155875000000378
                },
                {
                    "name": "A#4",
                    "midi": 70,
                    "time": 249.12661500000144,
                    "velocity": 0.3858267716535433,
                    "duration": 1.6124700000000018
                },
                {
                    "name": "F#5",
                    "midi": 78,
                    "time": 249.12661500000144,
                    "velocity": 0.44881889763779526,
                    "duration": 1.6124700000000018
                },
                {
                    "name": "C#4",
                    "midi": 61,
                    "time": 250.73908500000144,
                    "velocity": 0.3464566929133858,
                    "duration": 0.40311750000000757
                },
                {
                    "name": "G#4",
                    "midi": 68,
                    "time": 250.73908500000144,
                    "velocity": 0.3464566929133858,
                    "duration": 0.40311750000000757
                },
                {
                    "name": "F5",
                    "midi": 77,
                    "time": 250.73908500000144,
                    "velocity": 0.41732283464566927,
                    "duration": 0.8062350000000151
                },
                {
                    "name": "C4",
                    "midi": 60,
                    "time": 251.54532000000145,
                    "velocity": 0.3464566929133858,
                    "duration": 1.6124700000000303
                },
                {
                    "name": "G#4",
                    "midi": 68,
                    "time": 251.54532000000145,
                    "velocity": 0.3464566929133858,
                    "duration": 0.40311750000000757
                },
                {
                    "name": "F5",
                    "midi": 77,
                    "time": 251.54532000000145,
                    "velocity": 0.41732283464566927,
                    "duration": 1.2093525000000227
                },
                {
                    "name": "F#4",
                    "midi": 66,
                    "time": 252.35155500000147,
                    "velocity": 0.2677165354330709,
                    "duration": 0.40311750000000757
                },
                {
                    "name": "D#5",
                    "midi": 75,
                    "time": 252.75467250000148,
                    "velocity": 0.3858267716535433,
                    "duration": 0.40311750000000757
                },
                {
                    "name": "C#5",
                    "midi": 73,
                    "time": 253.15779000000148,
                    "velocity": 0.36220472440944884,
                    "duration": 0.6046762500000114
                },
                {
                    "name": "D5",
                    "midi": 74,
                    "time": 253.7624662500015,
                    "velocity": 0.3543307086614173,
                    "duration": 0.20155875000000378
                },
                {
                    "name": "D#5",
                    "midi": 75,
                    "time": 253.9640250000015,
                    "velocity": 0.4015748031496063,
                    "duration": 0.08062350000000151
                },
                {
                    "name": "F5",
                    "midi": 77,
                    "time": 254.0446485000015,
                    "velocity": 0.3543307086614173,
                    "duration": 0.08062350000000151
                },
                {
                    "name": "D#5",
                    "midi": 75,
                    "time": 254.1252720000015,
                    "velocity": 0.36220472440944884,
                    "duration": 0.08062350000000151
                },
                {
                    "name": "D5",
                    "midi": 74,
                    "time": 254.2058955000015,
                    "velocity": 0.3464566929133858,
                    "duration": 0.08062350000000151
                },
                {
                    "name": "D#5",
                    "midi": 75,
                    "time": 254.2865190000015,
                    "velocity": 0.3543307086614173,
                    "duration": 0.08062350000000151
                },
                {
                    "name": "E5",
                    "midi": 76,
                    "time": 254.3671425000015,
                    "velocity": 0.36220472440944884,
                    "duration": 0.08062350000000151
                },
                {
                    "name": "F5",
                    "midi": 77,
                    "time": 254.4477660000015,
                    "velocity": 0.4015748031496063,
                    "duration": 0.08062350000000151
                },
                {
                    "name": "G#5",
                    "midi": 80,
                    "time": 254.5283895000015,
                    "velocity": 0.4330708661417323,
                    "duration": 0.08062350000000151
                },
                {
                    "name": "G5",
                    "midi": 79,
                    "time": 254.6090130000015,
                    "velocity": 0.41732283464566927,
                    "duration": 0.08062350000000151
                },
                {
                    "name": "F#5",
                    "midi": 78,
                    "time": 254.6896365000015,
                    "velocity": 0.4015748031496063,
                    "duration": 0.08062350000000151
                },
                {
                    "name": "F5",
                    "midi": 77,
                    "time": 254.7702600000015,
                    "velocity": 0.3858267716535433,
                    "duration": 0.6046762500000114
                },
                {
                    "name": "C#5",
                    "midi": 73,
                    "time": 255.37493625000153,
                    "velocity": 0.3464566929133858,
                    "duration": 0.20155875000000378
                },
                {
                    "name": "G#4",
                    "midi": 68,
                    "time": 255.57649500000153,
                    "velocity": 0.36220472440944884,
                    "duration": 1.6124700000000018
                },
                {
                    "name": "A#4",
                    "midi": 70,
                    "time": 257.18896500000153,
                    "velocity": 0.4015748031496063,
                    "duration": 0.8062350000000151
                },
                {
                    "name": "C5",
                    "midi": 72,
                    "time": 257.99520000000155,
                    "velocity": 0.3858267716535433,
                    "duration": 2.4187049999999886
                },
                {
                    "name": "A#5",
                    "midi": 82,
                    "time": 260.41390500000153,
                    "velocity": 0.49606299212598426,
                    "duration": 1.6124699999999734
                },
                {
                    "name": "G#5",
                    "midi": 80,
                    "time": 262.0263750000015,
                    "velocity": 0.4330708661417323,
                    "duration": 0.8062350000000151
                },
                {
                    "name": "F#5",
                    "midi": 78,
                    "time": 262.8326100000015,
                    "velocity": 0.4251968503937008,
                    "duration": 0.8062350000000151
                },
                {
                    "name": "C5",
                    "midi": 72,
                    "time": 263.63884500000154,
                    "velocity": 0.3700787401574803,
                    "duration": 0.8062350000000151
                },
                {
                    "name": "F5",
                    "midi": 77,
                    "time": 264.44508000000155,
                    "velocity": 0.41732283464566927,
                    "duration": 0.8062350000000151
                },
                {
                    "name": "D#5",
                    "midi": 75,
                    "time": 265.25131500000157,
                    "velocity": 0.3937007874015748,
                    "duration": 0.8062350000000151
                },
                {
                    "name": "C#5",
                    "midi": 73,
                    "time": 266.0575500000016,
                    "velocity": 0.36220472440944884,
                    "duration": 0.8062350000000151
                },
                {
                    "name": "A#4",
                    "midi": 70,
                    "time": 266.8637850000016,
                    "velocity": 0.3464566929133858,
                    "duration": 0.8062350000000151
                },
                {
                    "name": "A#3",
                    "midi": 58,
                    "time": 267.6700200000016,
                    "velocity": 0.29133858267716534,
                    "duration": 1.6124699999999734
                },
                {
                    "name": "D#4",
                    "midi": 63,
                    "time": 267.6700200000016,
                    "velocity": 0.29133858267716534,
                    "duration": 3.224939999999947
                },
                {
                    "name": "F#4",
                    "midi": 66,
                    "time": 267.6700200000016,
                    "velocity": 0.29133858267716534,
                    "duration": 3.224939999999947
                },
                {
                    "name": "C4",
                    "midi": 60,
                    "time": 269.2824900000016,
                    "velocity": 0.29133858267716534,
                    "duration": 1.6124699999999734
                },
                {
                    "name": "C#4",
                    "midi": 61,
                    "time": 270.89496000000156,
                    "velocity": 0.29133858267716534,
                    "duration": 2.015587499999981
                },
                {
                    "name": "F4",
                    "midi": 65,
                    "time": 270.89496000000156,
                    "velocity": 0.29133858267716534,
                    "duration": 3.2249400000000037
                },
                {
                    "name": "C#4",
                    "midi": 61,
                    "time": 272.91054750000154,
                    "velocity": 0.3228346456692913,
                    "duration": 0.40311750000000757
                },
                {
                    "name": "D#4",
                    "midi": 63,
                    "time": 273.31366500000155,
                    "velocity": 0.3464566929133858,
                    "duration": 0.6046762500000114
                },
                {
                    "name": "C#4",
                    "midi": 61,
                    "time": 273.91834125000156,
                    "velocity": 0.3228346456692913,
                    "duration": 0.20155875000000378
                },
                {
                    "name": "C#4",
                    "midi": 61,
                    "time": 274.11990000000156,
                    "velocity": 0.3543307086614173,
                    "duration": 0.8062350000000151
                },
                {
                    "name": "D#4",
                    "midi": 63,
                    "time": 274.11990000000156,
                    "velocity": 0.2677165354330709,
                    "duration": 3.2249400000000605
                },
                {
                    "name": "F#4",
                    "midi": 66,
                    "time": 274.11990000000156,
                    "velocity": 0.30708661417322836,
                    "duration": 3.2249400000000605
                },
                {
                    "name": "C4",
                    "midi": 60,
                    "time": 274.9261350000016,
                    "velocity": 0.3464566929133858,
                    "duration": 0.8062350000000151
                },
                {
                    "name": "A#4",
                    "midi": 70,
                    "time": 275.7323700000016,
                    "velocity": 0.36220472440944884,
                    "duration": 0.8062350000000151
                },
                {
                    "name": "C4",
                    "midi": 60,
                    "time": 276.5386050000016,
                    "velocity": 0.31496062992125984,
                    "duration": 0.8062350000000151
                },
                {
                    "name": "C4",
                    "midi": 60,
                    "time": 277.3448400000016,
                    "velocity": 0.2440944881889764,
                    "duration": 3.2249400000000037
                },
                {
                    "name": "D#4",
                    "midi": 63,
                    "time": 277.3448400000016,
                    "velocity": 0.2440944881889764,
                    "duration": 3.2249400000000037
                },
                {
                    "name": "F#4",
                    "midi": 66,
                    "time": 277.3448400000016,
                    "velocity": 0.29133858267716534,
                    "duration": 3.2249400000000037
                },
                {
                    "name": "C#4",
                    "midi": 61,
                    "time": 280.56978000000163,
                    "velocity": 0.2125984251968504,
                    "duration": 3.2249400000000037
                },
                {
                    "name": "F4",
                    "midi": 65,
                    "time": 280.56978000000163,
                    "velocity": 0.2677165354330709,
                    "duration": 3.2249400000000037
                },
                {
                    "name": "G#3",
                    "midi": 56,
                    "time": 283.79472000000163,
                    "velocity": 0.18110236220472442,
                    "duration": 3.2249400000000037
                },
                {
                    "name": "C#4",
                    "midi": 61,
                    "time": 283.79472000000163,
                    "velocity": 0.18110236220472442,
                    "duration": 3.2249400000000037
                },
                {
                    "name": "F4",
                    "midi": 65,
                    "time": 283.79472000000163,
                    "velocity": 0.2125984251968504,
                    "duration": 3.2249400000000037
                }
            ],
            "controlChanges": {
                "7": [
                    {
                        "number": 7,
                        "time": 0,
                        "value": 0.7874015748031497
                    }
                ],
                "10": [
                    {
                        "number": 10,
                        "time": 0,
                        "value": 0.5039370078740157
                    }
                ],
                "64": [
                    {
                        "number": 64,
                        "time": 0,
                        "value": 0
                    }
                ],
                "91": [
                    {
                        "number": 91,
                        "time": 0,
                        "value": 1
                    }
                ]
            },
            "id": 1,
            "name": "Piano right",
            "instrumentNumber": 0,
            "instrument": "acoustic grand piano",
            "instrumentFamily": "piano",
            "channelNumber": 0,
            "isPercussion": false
        },
        {
            "startTime": 0,
            "duration": 287.01966000000084,
            "length": 608,
            "notes": [
                {
                    "name": "C#3",
                    "midi": 49,
                    "time": 0,
                    "velocity": 0.2755905511811024,
                    "duration": 0.4031175
                },
                {
                    "name": "G#3",
                    "midi": 56,
                    "time": 0.4031175,
                    "velocity": 0.1889763779527559,
                    "duration": 0.4031175
                },
                {
                    "name": "F4",
                    "midi": 65,
                    "time": 0.806235,
                    "velocity": 0.1732283464566929,
                    "duration": 1.61247
                },
                {
                    "name": "C#4",
                    "midi": 61,
                    "time": 0.806235,
                    "velocity": 0.13385826771653545,
                    "duration": 1.61247
                },
                {
                    "name": "G#3",
                    "midi": 56,
                    "time": 1.2093525,
                    "velocity": 0.16535433070866143,
                    "duration": 0.3829616250000001
                },
                {
                    "name": "G#3",
                    "midi": 56,
                    "time": 1.61247,
                    "velocity": 0.18110236220472442,
                    "duration": 0.3829616250000001
                },
                {
                    "name": "G#3",
                    "midi": 56,
                    "time": 2.0155875,
                    "velocity": 0.14960629921259844,
                    "duration": 0.3829616250000001
                },
                {
                    "name": "F4",
                    "midi": 65,
                    "time": 2.418705,
                    "velocity": 0.2125984251968504,
                    "duration": 0.4031175
                },
                {
                    "name": "C#4",
                    "midi": 61,
                    "time": 2.418705,
                    "velocity": 0.16535433070866143,
                    "duration": 0.4031175
                },
                {
                    "name": "G#3",
                    "midi": 56,
                    "time": 2.8218225,
                    "velocity": 0.1889763779527559,
                    "duration": 0.4031175
                },
                {
                    "name": "F#4",
                    "midi": 66,
                    "time": 3.22494,
                    "velocity": 0.2755905511811024,
                    "duration": 2.418705000000001
                },
                {
                    "name": "D#4",
                    "midi": 63,
                    "time": 3.22494,
                    "velocity": 0.2755905511811024,
                    "duration": 2.418705000000001
                },
                {
                    "name": "G#3",
                    "midi": 56,
                    "time": 3.6280575,
                    "velocity": 0.2047244094488189,
                    "duration": 0.38296162499999964
                },
                {
                    "name": "G#3",
                    "midi": 56,
                    "time": 4.031175,
                    "velocity": 0.2204724409448819,
                    "duration": 0.3829616250000001
                },
                {
                    "name": "G#3",
                    "midi": 56,
                    "time": 4.434292500000001,
                    "velocity": 0.25196850393700787,
                    "duration": 0.3829616250000001
                },
                {
                    "name": "A#3",
                    "midi": 58,
                    "time": 4.837410000000001,
                    "velocity": 0.2755905511811024,
                    "duration": 0.40311750000000046
                },
                {
                    "name": "G#3",
                    "midi": 56,
                    "time": 5.240527500000002,
                    "velocity": 0.25196850393700787,
                    "duration": 0.4031174999999996
                },
                {
                    "name": "F4",
                    "midi": 65,
                    "time": 5.643645000000001,
                    "velocity": 0.2755905511811024,
                    "duration": 0.40311750000000046
                },
                {
                    "name": "C#4",
                    "midi": 61,
                    "time": 5.643645000000001,
                    "velocity": 0.2755905511811024,
                    "duration": 0.40311750000000046
                },
                {
                    "name": "G#3",
                    "midi": 56,
                    "time": 6.046762500000002,
                    "velocity": 0.2440944881889764,
                    "duration": 0.40311750000000046
                },
                {
                    "name": "G#3",
                    "midi": 56,
                    "time": 6.8529975000000025,
                    "velocity": 0.25196850393700787,
                    "duration": 0.806235
                },
                {
                    "name": "G#3",
                    "midi": 56,
                    "time": 7.6592325000000026,
                    "velocity": 0.2755905511811024,
                    "duration": 0.3829616249999992
                },
                {
                    "name": "G#3",
                    "midi": 56,
                    "time": 8.062350000000002,
                    "velocity": 0.25196850393700787,
                    "duration": 0.3829616250000001
                },
                {
                    "name": "G#3",
                    "midi": 56,
                    "time": 8.465467500000003,
                    "velocity": 0.25196850393700787,
                    "duration": 0.8062350000000009
                },
                {
                    "name": "G#3",
                    "midi": 56,
                    "time": 9.271702500000004,
                    "velocity": 0.2283464566929134,
                    "duration": 0.40311750000000046
                },
                {
                    "name": "G#3",
                    "midi": 56,
                    "time": 10.077937500000003,
                    "velocity": 0.2047244094488189,
                    "duration": 0.40311750000000046
                },
                {
                    "name": "G#3",
                    "midi": 56,
                    "time": 10.884172500000004,
                    "velocity": 0.2125984251968504,
                    "duration": 0.40311750000000046
                },
                {
                    "name": "F4",
                    "midi": 65,
                    "time": 11.287290000000004,
                    "velocity": 0.2440944881889764,
                    "duration": 0.4031174999999987
                },
                {
                    "name": "C#4",
                    "midi": 61,
                    "time": 11.287290000000004,
                    "velocity": 0.2047244094488189,
                    "duration": 0.4031174999999987
                },
                {
                    "name": "G#3",
                    "midi": 56,
                    "time": 11.690407500000003,
                    "velocity": 0.2125984251968504,
                    "duration": 0.4031174999999987
                },
                {
                    "name": "F#4",
                    "midi": 66,
                    "time": 12.093525000000001,
                    "velocity": 0.25196850393700787,
                    "duration": 0.40311750000000046
                },
                {
                    "name": "C4",
                    "midi": 60,
                    "time": 12.093525000000001,
                    "velocity": 0.2125984251968504,
                    "duration": 0.40311750000000046
                },
                {
                    "name": "G#3",
                    "midi": 56,
                    "time": 12.496642500000002,
                    "velocity": 0.2440944881889764,
                    "duration": 0.40311750000000046
                },
                {
                    "name": "C#3",
                    "midi": 49,
                    "time": 12.899760000000002,
                    "velocity": 0.2755905511811024,
                    "duration": 0.40311750000000046
                },
                {
                    "name": "G#3",
                    "midi": 56,
                    "time": 13.302877500000003,
                    "velocity": 0.23622047244094488,
                    "duration": 0.40311750000000046
                },
                {
                    "name": "F4",
                    "midi": 65,
                    "time": 13.705995000000003,
                    "velocity": 0.1732283464566929,
                    "duration": 2.418705000000001
                },
                {
                    "name": "C#4",
                    "midi": 61,
                    "time": 13.705995000000003,
                    "velocity": 0.14173228346456693,
                    "duration": 2.418705000000001
                },
                {
                    "name": "G#3",
                    "midi": 56,
                    "time": 14.109112500000004,
                    "velocity": 0.16535433070866143,
                    "duration": 0.3829616250000001
                },
                {
                    "name": "G#3",
                    "midi": 56,
                    "time": 14.512230000000004,
                    "velocity": 0.1889763779527559,
                    "duration": 0.3829616250000001
                },
                {
                    "name": "G#3",
                    "midi": 56,
                    "time": 14.915347500000005,
                    "velocity": 0.16535433070866143,
                    "duration": 0.3829616250000001
                },
                {
                    "name": "G#3",
                    "midi": 56,
                    "time": 15.318465000000005,
                    "velocity": 0.25196850393700787,
                    "duration": 0.3829616250000001
                },
                {
                    "name": "G#3",
                    "midi": 56,
                    "time": 15.721582500000006,
                    "velocity": 0.2204724409448819,
                    "duration": 0.3829616249999983
                },
                {
                    "name": "F#4",
                    "midi": 66,
                    "time": 16.124700000000004,
                    "velocity": 0.2755905511811024,
                    "duration": 2.4187050000000028
                },
                {
                    "name": "D#4",
                    "midi": 63,
                    "time": 16.124700000000004,
                    "velocity": 0.2755905511811024,
                    "duration": 2.4187050000000028
                },
                {
                    "name": "G#3",
                    "midi": 56,
                    "time": 16.527817500000005,
                    "velocity": 0.2440944881889764,
                    "duration": 0.3829616250000001
                },
                {
                    "name": "G#3",
                    "midi": 56,
                    "time": 16.930935000000005,
                    "velocity": 0.2283464566929134,
                    "duration": 0.3829616250000001
                },
                {
                    "name": "G#3",
                    "midi": 56,
                    "time": 17.334052500000006,
                    "velocity": 0.25196850393700787,
                    "duration": 0.3829616250000001
                },
                {
                    "name": "A#3",
                    "midi": 58,
                    "time": 17.737170000000006,
                    "velocity": 0.2755905511811024,
                    "duration": 0.40311750000000046
                },
                {
                    "name": "G#3",
                    "midi": 56,
                    "time": 18.140287500000007,
                    "velocity": 0.25196850393700787,
                    "duration": 0.40311750000000046
                },
                {
                    "name": "F4",
                    "midi": 65,
                    "time": 18.543405000000007,
                    "velocity": 0.2755905511811024,
                    "duration": 0.40311750000000046
                },
                {
                    "name": "C#4",
                    "midi": 61,
                    "time": 18.543405000000007,
                    "velocity": 0.2755905511811024,
                    "duration": 0.40311750000000046
                },
                {
                    "name": "G#3",
                    "midi": 56,
                    "time": 18.946522500000007,
                    "velocity": 0.2440944881889764,
                    "duration": 0.40311750000000046
                },
                {
                    "name": "G#3",
                    "midi": 56,
                    "time": 19.75275750000001,
                    "velocity": 0.25196850393700787,
                    "duration": 0.8062350000000009
                },
                {
                    "name": "G#3",
                    "midi": 56,
                    "time": 20.55899250000001,
                    "velocity": 0.2755905511811024,
                    "duration": 0.3829616250000001
                },
                {
                    "name": "G#3",
                    "midi": 56,
                    "time": 20.96211000000001,
                    "velocity": 0.25196850393700787,
                    "duration": 0.3829616250000001
                },
                {
                    "name": "G#3",
                    "midi": 56,
                    "time": 21.36522750000001,
                    "velocity": 0.25196850393700787,
                    "duration": 0.8062350000000009
                },
                {
                    "name": "G#3",
                    "midi": 56,
                    "time": 22.17146250000001,
                    "velocity": 0.2283464566929134,
                    "duration": 0.40311750000000046
                },
                {
                    "name": "G#3",
                    "midi": 56,
                    "time": 22.977697500000012,
                    "velocity": 0.2440944881889764,
                    "duration": 0.40311750000000046
                },
                {
                    "name": "G#3",
                    "midi": 56,
                    "time": 23.783932500000013,
                    "velocity": 0.2440944881889764,
                    "duration": 0.40311750000000046
                },
                {
                    "name": "F4",
                    "midi": 65,
                    "time": 24.187050000000013,
                    "velocity": 0.2755905511811024,
                    "duration": 0.40311750000000046
                },
                {
                    "name": "C#4",
                    "midi": 61,
                    "time": 24.187050000000013,
                    "velocity": 0.2283464566929134,
                    "duration": 0.40311750000000046
                },
                {
                    "name": "G#3",
                    "midi": 56,
                    "time": 24.590167500000014,
                    "velocity": 0.1889763779527559,
                    "duration": 0.40311750000000046
                },
                {
                    "name": "F4",
                    "midi": 65,
                    "time": 24.993285000000014,
                    "velocity": 0.25984251968503935,
                    "duration": 0.40311750000000046
                },
                {
                    "name": "C#4",
                    "midi": 61,
                    "time": 24.993285000000014,
                    "velocity": 0.2125984251968504,
                    "duration": 0.40311750000000046
                },
                {
                    "name": "G#3",
                    "midi": 56,
                    "time": 25.396402500000015,
                    "velocity": 0.23622047244094488,
                    "duration": 0.40311750000000046
                },
                {
                    "name": "G#2",
                    "midi": 44,
                    "time": 25.799520000000015,
                    "velocity": 0.30708661417322836,
                    "duration": 0.4031174999999969
                },
                {
                    "name": "G#3",
                    "midi": 56,
                    "time": 26.202637500000012,
                    "velocity": 0.25196850393700787,
                    "duration": 0.40311750000000046
                },
                {
                    "name": "D#4",
                    "midi": 63,
                    "time": 26.605755000000013,
                    "velocity": 0.23622047244094488,
                    "duration": 0.40311750000000046
                },
                {
                    "name": "C4",
                    "midi": 60,
                    "time": 26.605755000000013,
                    "velocity": 0.23622047244094488,
                    "duration": 0.40311750000000046
                },
                {
                    "name": "G#3",
                    "midi": 56,
                    "time": 27.008872500000013,
                    "velocity": 0.1968503937007874,
                    "duration": 0.40311750000000046
                },
                {
                    "name": "B3",
                    "midi": 59,
                    "time": 27.411990000000014,
                    "velocity": 0.23622047244094488,
                    "duration": 0.40311750000000046
                },
                {
                    "name": "D#4",
                    "midi": 63,
                    "time": 27.411990000000014,
                    "velocity": 0.23622047244094488,
                    "duration": 0.40311750000000046
                },
                {
                    "name": "G#3",
                    "midi": 56,
                    "time": 27.815107500000014,
                    "velocity": 0.25196850393700787,
                    "duration": 0.40311750000000046
                },
                {
                    "name": "C#3",
                    "midi": 49,
                    "time": 28.218225000000015,
                    "velocity": 0.2440944881889764,
                    "duration": 0.40311750000000046
                },
                {
                    "name": "B3",
                    "midi": 59,
                    "time": 28.218225000000015,
                    "velocity": 0.28346456692913385,
                    "duration": 0.40311750000000046
                },
                {
                    "name": "F4",
                    "midi": 65,
                    "time": 28.218225000000015,
                    "velocity": 0.28346456692913385,
                    "duration": 0.40311750000000046
                },
                {
                    "name": "C#4",
                    "midi": 61,
                    "time": 28.621342500000015,
                    "velocity": 0.25984251968503935,
                    "duration": 0.40311750000000046
                },
                {
                    "name": "F#3",
                    "midi": 54,
                    "time": 29.024460000000015,
                    "velocity": 0.25984251968503935,
                    "duration": 0.40311750000000046
                },
                {
                    "name": "A#3",
                    "midi": 58,
                    "time": 29.024460000000015,
                    "velocity": 0.30708661417322836,
                    "duration": 0.40311750000000046
                },
                {
                    "name": "C#4",
                    "midi": 61,
                    "time": 29.427577500000016,
                    "velocity": 0.25984251968503935,
                    "duration": 0.40311750000000046
                },
                {
                    "name": "A#3",
                    "midi": 58,
                    "time": 29.830695000000016,
                    "velocity": 0.2047244094488189,
                    "duration": 0.40311750000000046
                },
                {
                    "name": "F#4",
                    "midi": 66,
                    "time": 29.830695000000016,
                    "velocity": 0.2440944881889764,
                    "duration": 0.40311750000000046
                },
                {
                    "name": "C#4",
                    "midi": 61,
                    "time": 30.233812500000017,
                    "velocity": 0.1968503937007874,
                    "duration": 0.40311750000000046
                },
                {
                    "name": "C#3",
                    "midi": 49,
                    "time": 30.636930000000017,
                    "velocity": 0.28346456692913385,
                    "duration": 0.40311750000000046
                },
                {
                    "name": "G#3",
                    "midi": 56,
                    "time": 31.040047500000018,
                    "velocity": 0.25196850393700787,
                    "duration": 0.40311750000000046
                },
                {
                    "name": "F4",
                    "midi": 65,
                    "time": 31.44316500000002,
                    "velocity": 0.2677165354330709,
                    "duration": 0.40311750000000046
                },
                {
                    "name": "C#4",
                    "midi": 61,
                    "time": 31.44316500000002,
                    "velocity": 0.2125984251968504,
                    "duration": 0.40311750000000046
                },
                {
                    "name": "G#3",
                    "midi": 56,
                    "time": 31.84628250000002,
                    "velocity": 0.2125984251968504,
                    "duration": 0.4031174999999969
                },
                {
                    "name": "D#3",
                    "midi": 51,
                    "time": 32.249400000000016,
                    "velocity": 0.30708661417322836,
                    "duration": 0.40311750000000046
                },
                {
                    "name": "G#3",
                    "midi": 56,
                    "time": 32.652517500000016,
                    "velocity": 0.23622047244094488,
                    "duration": 0.40311750000000046
                },
                {
                    "name": "D#4",
                    "midi": 63,
                    "time": 33.05563500000002,
                    "velocity": 0.2440944881889764,
                    "duration": 0.40311750000000046
                },
                {
                    "name": "B3",
                    "midi": 59,
                    "time": 33.05563500000002,
                    "velocity": 0.2440944881889764,
                    "duration": 0.40311750000000046
                },
                {
                    "name": "G#3",
                    "midi": 56,
                    "time": 33.45875250000002,
                    "velocity": 0.2440944881889764,
                    "duration": 0.40311750000000046
                },
                {
                    "name": "D#3",
                    "midi": 51,
                    "time": 33.86187000000002,
                    "velocity": 0.30708661417322836,
                    "duration": 0.40311750000000046
                },
                {
                    "name": "G3",
                    "midi": 55,
                    "time": 34.26498750000002,
                    "velocity": 0.2677165354330709,
                    "duration": 0.40311750000000046
                },
                {
                    "name": "D#4",
                    "midi": 63,
                    "time": 34.66810500000002,
                    "velocity": 0.2677165354330709,
                    "duration": 0.40311750000000046
                },
                {
                    "name": "C#4",
                    "midi": 61,
                    "time": 34.66810500000002,
                    "velocity": 0.2125984251968504,
                    "duration": 0.40311750000000046
                },
                {
                    "name": "G3",
                    "midi": 55,
                    "time": 35.07122250000002,
                    "velocity": 0.2283464566929134,
                    "duration": 0.40311750000000046
                },
                {
                    "name": "G#2",
                    "midi": 44,
                    "time": 35.47434000000002,
                    "velocity": 0.30708661417322836,
                    "duration": 0.40311750000000046
                },
                {
                    "name": "G#3",
                    "midi": 56,
                    "time": 35.87745750000002,
                    "velocity": 0.23622047244094488,
                    "duration": 0.40311750000000046
                },
                {
                    "name": "D#4",
                    "midi": 63,
                    "time": 36.28057500000002,
                    "velocity": 0.29133858267716534,
                    "duration": 0.40311750000000046
                },
                {
                    "name": "B3",
                    "midi": 59,
                    "time": 36.28057500000002,
                    "velocity": 0.25196850393700787,
                    "duration": 0.40311750000000046
                },
                {
                    "name": "G#3",
                    "midi": 56,
                    "time": 36.68369250000002,
                    "velocity": 0.2440944881889764,
                    "duration": 0.40311750000000046
                },
                {
                    "name": "C#4",
                    "midi": 61,
                    "time": 37.08681000000002,
                    "velocity": 0.28346456692913385,
                    "duration": 0.40311750000000046
                },
                {
                    "name": "A#3",
                    "midi": 58,
                    "time": 37.08681000000002,
                    "velocity": 0.23622047244094488,
                    "duration": 0.40311750000000046
                },
                {
                    "name": "G#3",
                    "midi": 56,
                    "time": 37.48992750000002,
                    "velocity": 0.2283464566929134,
                    "duration": 0.40311750000000046
                },
                {
                    "name": "E4",
                    "midi": 64,
                    "time": 37.89304500000002,
                    "velocity": 0.28346456692913385,
                    "duration": 0.40311750000000046
                },
                {
                    "name": "C#4",
                    "midi": 61,
                    "time": 37.89304500000002,
                    "velocity": 0.23622047244094488,
                    "duration": 0.40311750000000046
                },
                {
                    "name": "G#3",
                    "midi": 56,
                    "time": 38.29616250000002,
                    "velocity": 0.2677165354330709,
                    "duration": 0.40311750000000046
                },
                {
                    "name": "G#2",
                    "midi": 44,
                    "time": 38.69928000000002,
                    "velocity": 0.33858267716535434,
                    "duration": 0.40311750000000046
                },
                {
                    "name": "G#3",
                    "midi": 56,
                    "time": 39.10239750000002,
                    "velocity": 0.29133858267716534,
                    "duration": 0.40311750000000046
                },
                {
                    "name": "D#4",
                    "midi": 63,
                    "time": 39.505515000000024,
                    "velocity": 0.29133858267716534,
                    "duration": 1.6124700000000018
                },
                {
                    "name": "B3",
                    "midi": 59,
                    "time": 39.505515000000024,
                    "velocity": 0.25196850393700787,
                    "duration": 1.6124700000000018
                },
                {
                    "name": "G#3",
                    "midi": 56,
                    "time": 39.908632500000024,
                    "velocity": 0.30708661417322836,
                    "duration": 0.3829616250000001
                },
                {
                    "name": "G#3",
                    "midi": 56,
                    "time": 40.311750000000025,
                    "velocity": 0.33858267716535434,
                    "duration": 0.3829616250000001
                },
                {
                    "name": "G#3",
                    "midi": 56,
                    "time": 40.714867500000025,
                    "velocity": 0.31496062992125984,
                    "duration": 0.3829616250000001
                },
                {
                    "name": "F4",
                    "midi": 65,
                    "time": 41.117985000000026,
                    "velocity": 0.36220472440944884,
                    "duration": 0.40311750000000046
                },
                {
                    "name": "B3",
                    "midi": 59,
                    "time": 41.117985000000026,
                    "velocity": 0.30708661417322836,
                    "duration": 0.40311750000000046
                },
                {
                    "name": "G#3",
                    "midi": 56,
                    "time": 41.521102500000026,
                    "velocity": 0.3464566929133858,
                    "duration": 0.40311750000000046
                },
                {
                    "name": "D#3",
                    "midi": 51,
                    "time": 41.92422000000003,
                    "velocity": 0.3937007874015748,
                    "duration": 0.40311750000000046
                },
                {
                    "name": "F#3",
                    "midi": 54,
                    "time": 42.32733750000003,
                    "velocity": 0.28346456692913385,
                    "duration": 0.40311750000000046
                },
                {
                    "name": "F#4",
                    "midi": 66,
                    "time": 42.73045500000003,
                    "velocity": 0.33858267716535434,
                    "duration": 0.40311749999999336
                },
                {
                    "name": "A#3",
                    "midi": 58,
                    "time": 42.73045500000003,
                    "velocity": 0.28346456692913385,
                    "duration": 0.40311749999999336
                },
                {
                    "name": "F#3",
                    "midi": 54,
                    "time": 43.13357250000002,
                    "velocity": 0.25196850393700787,
                    "duration": 0.40311750000000046
                },
                {
                    "name": "A#2",
                    "midi": 46,
                    "time": 43.53669000000002,
                    "velocity": 0.3700787401574803,
                    "duration": 0.40311750000000046
                },
                {
                    "name": "F3",
                    "midi": 53,
                    "time": 43.93980750000002,
                    "velocity": 0.28346456692913385,
                    "duration": 0.40311750000000046
                },
                {
                    "name": "F4",
                    "midi": 65,
                    "time": 44.34292500000002,
                    "velocity": 0.28346456692913385,
                    "duration": 0.40311750000000046
                },
                {
                    "name": "C#4",
                    "midi": 61,
                    "time": 44.34292500000002,
                    "velocity": 0.23622047244094488,
                    "duration": 0.40311750000000046
                },
                {
                    "name": "A#3",
                    "midi": 58,
                    "time": 44.34292500000002,
                    "velocity": 0.23622047244094488,
                    "duration": 0.40311750000000046
                },
                {
                    "name": "F3",
                    "midi": 53,
                    "time": 44.74604250000002,
                    "velocity": 0.2440944881889764,
                    "duration": 0.40311750000000046
                },
                {
                    "name": "F2",
                    "midi": 41,
                    "time": 45.14916000000002,
                    "velocity": 0.33858267716535434,
                    "duration": 0.40311750000000046
                },
                {
                    "name": "F3",
                    "midi": 53,
                    "time": 45.552277500000024,
                    "velocity": 0.2755905511811024,
                    "duration": 0.40311750000000046
                },
                {
                    "name": "F4",
                    "midi": 65,
                    "time": 45.955395000000024,
                    "velocity": 0.28346456692913385,
                    "duration": 0.40311750000000046
                },
                {
                    "name": "C#4",
                    "midi": 61,
                    "time": 45.955395000000024,
                    "velocity": 0.23622047244094488,
                    "duration": 0.40311750000000046
                },
                {
                    "name": "A#3",
                    "midi": 58,
                    "time": 45.955395000000024,
                    "velocity": 0.23622047244094488,
                    "duration": 0.40311750000000046
                },
                {
                    "name": "F3",
                    "midi": 53,
                    "time": 46.358512500000025,
                    "velocity": 0.2283464566929134,
                    "duration": 0.40311750000000046
                },
                {
                    "name": "F2",
                    "midi": 41,
                    "time": 46.761630000000025,
                    "velocity": 0.33858267716535434,
                    "duration": 0.40311750000000757
                },
                {
                    "name": "F3",
                    "midi": 53,
                    "time": 47.16474750000003,
                    "velocity": 0.25984251968503935,
                    "duration": 0.40311750000000046
                },
                {
                    "name": "F4",
                    "midi": 65,
                    "time": 47.56786500000003,
                    "velocity": 0.29133858267716534,
                    "duration": 0.40311749999999336
                },
                {
                    "name": "D#4",
                    "midi": 63,
                    "time": 47.56786500000003,
                    "velocity": 0.2283464566929134,
                    "duration": 0.40311749999999336
                },
                {
                    "name": "A3",
                    "midi": 57,
                    "time": 47.56786500000003,
                    "velocity": 0.2125984251968504,
                    "duration": 0.40311749999999336
                },
                {
                    "name": "F3",
                    "midi": 53,
                    "time": 47.97098250000003,
                    "velocity": 0.23622047244094488,
                    "duration": 0.40311750000000046
                },
                {
                    "name": "A#2",
                    "midi": 46,
                    "time": 48.37410000000003,
                    "velocity": 0.33858267716535434,
                    "duration": 0.40311750000000757
                },
                {
                    "name": "F3",
                    "midi": 53,
                    "time": 48.777217500000035,
                    "velocity": 0.29133858267716534,
                    "duration": 0.40311750000000046
                },
                {
                    "name": "F4",
                    "midi": 65,
                    "time": 49.180335000000035,
                    "velocity": 0.3464566929133858,
                    "duration": 0.40311750000000046
                },
                {
                    "name": "C#4",
                    "midi": 61,
                    "time": 49.180335000000035,
                    "velocity": 0.28346456692913385,
                    "duration": 0.40311750000000046
                },
                {
                    "name": "F3",
                    "midi": 53,
                    "time": 49.583452500000035,
                    "velocity": 0.30708661417322836,
                    "duration": 0.40311750000000046
                },
                {
                    "name": "D#4",
                    "midi": 63,
                    "time": 49.986570000000036,
                    "velocity": 0.33858267716535434,
                    "duration": 0.40311750000000046
                },
                {
                    "name": "C4",
                    "midi": 60,
                    "time": 49.986570000000036,
                    "velocity": 0.28346456692913385,
                    "duration": 0.40311750000000046
                },
                {
                    "name": "F3",
                    "midi": 53,
                    "time": 50.389687500000036,
                    "velocity": 0.29133858267716534,
                    "duration": 0.40311750000000046
                },
                {
                    "name": "F#4",
                    "midi": 66,
                    "time": 50.79280500000004,
                    "velocity": 0.33858267716535434,
                    "duration": 0.40311750000000046
                },
                {
                    "name": "D#4",
                    "midi": 63,
                    "time": 50.79280500000004,
                    "velocity": 0.28346456692913385,
                    "duration": 0.40311750000000046
                },
                {
                    "name": "F3",
                    "midi": 53,
                    "time": 51.19592250000004,
                    "velocity": 0.28346456692913385,
                    "duration": 0.40311750000000046
                },
                {
                    "name": "F4",
                    "midi": 65,
                    "time": 51.59904000000004,
                    "velocity": 0.33858267716535434,
                    "duration": 0.40311750000000046
                },
                {
                    "name": "C#4",
                    "midi": 61,
                    "time": 51.59904000000004,
                    "velocity": 0.28346456692913385,
                    "duration": 0.40311750000000046
                },
                {
                    "name": "F3",
                    "midi": 53,
                    "time": 52.00215750000004,
                    "velocity": 0.2677165354330709,
                    "duration": 0.40311750000000046
                },
                {
                    "name": "F4",
                    "midi": 65,
                    "time": 52.40527500000004,
                    "velocity": 0.28346456692913385,
                    "duration": 0.40311750000000046
                },
                {
                    "name": "C#4",
                    "midi": 61,
                    "time": 52.40527500000004,
                    "velocity": 0.1968503937007874,
                    "duration": 0.40311750000000046
                },
                {
                    "name": "A#3",
                    "midi": 58,
                    "time": 52.40527500000004,
                    "velocity": 0.1968503937007874,
                    "duration": 0.40311750000000046
                },
                {
                    "name": "F3",
                    "midi": 53,
                    "time": 52.80839250000004,
                    "velocity": 0.2440944881889764,
                    "duration": 0.40311750000000046
                },
                {
                    "name": "D#4",
                    "midi": 63,
                    "time": 53.21151000000004,
                    "velocity": 0.33858267716535434,
                    "duration": 0.40311750000000046
                },
                {
                    "name": "A3",
                    "midi": 57,
                    "time": 53.21151000000004,
                    "velocity": 0.28346456692913385,
                    "duration": 0.40311750000000046
                },
                {
                    "name": "F3",
                    "midi": 53,
                    "time": 53.61462750000004,
                    "velocity": 0.29133858267716534,
                    "duration": 0.40311750000000046
                },
                {
                    "name": "D#4",
                    "midi": 63,
                    "time": 54.01774500000004,
                    "velocity": 0.23622047244094488,
                    "duration": 0.40311750000000757
                },
                {
                    "name": "F4",
                    "midi": 65,
                    "time": 54.01774500000004,
                    "velocity": 0.29133858267716534,
                    "duration": 0.40311750000000757
                },
                {
                    "name": "F3",
                    "midi": 53,
                    "time": 54.42086250000005,
                    "velocity": 0.30708661417322836,
                    "duration": 0.40311750000000046
                },
                {
                    "name": "A#2",
                    "midi": 46,
                    "time": 54.82398000000005,
                    "velocity": 0.33858267716535434,
                    "duration": 0.40311750000000046
                },
                {
                    "name": "F3",
                    "midi": 53,
                    "time": 55.22709750000005,
                    "velocity": 0.29133858267716534,
                    "duration": 0.40311750000000046
                },
                {
                    "name": "D#4",
                    "midi": 63,
                    "time": 55.63021500000005,
                    "velocity": 0.3543307086614173,
                    "duration": 0.40311750000000046
                },
                {
                    "name": "C4",
                    "midi": 60,
                    "time": 55.63021500000005,
                    "velocity": 0.29133858267716534,
                    "duration": 0.40311750000000046
                },
                {
                    "name": "F3",
                    "midi": 53,
                    "time": 56.03333250000005,
                    "velocity": 0.30708661417322836,
                    "duration": 0.40311750000000046
                },
                {
                    "name": "F4",
                    "midi": 65,
                    "time": 56.43645000000005,
                    "velocity": 0.3937007874015748,
                    "duration": 0.40311750000000046
                },
                {
                    "name": "C#4",
                    "midi": 61,
                    "time": 56.43645000000005,
                    "velocity": 0.3228346456692913,
                    "duration": 0.40311750000000046
                },
                {
                    "name": "F3",
                    "midi": 53,
                    "time": 56.83956750000005,
                    "velocity": 0.33858267716535434,
                    "duration": 0.40311750000000046
                },
                {
                    "name": "D#4",
                    "midi": 63,
                    "time": 57.24268500000005,
                    "velocity": 0.4015748031496063,
                    "duration": 0.40311750000000046
                },
                {
                    "name": "C4",
                    "midi": 60,
                    "time": 57.24268500000005,
                    "velocity": 0.33858267716535434,
                    "duration": 0.40311750000000046
                },
                {
                    "name": "F3",
                    "midi": 53,
                    "time": 57.64580250000005,
                    "velocity": 0.33858267716535434,
                    "duration": 0.40311750000000046
                },
                {
                    "name": "F4",
                    "midi": 65,
                    "time": 58.04892000000005,
                    "velocity": 0.41732283464566927,
                    "duration": 1.6124700000000018
                },
                {
                    "name": "C#4",
                    "midi": 61,
                    "time": 58.04892000000005,
                    "velocity": 0.3464566929133858,
                    "duration": 1.6124700000000018
                },
                {
                    "name": "F3",
                    "midi": 53,
                    "time": 58.45203750000005,
                    "velocity": 0.30708661417322836,
                    "duration": 0.40311750000000046
                },
                {
                    "name": "F3",
                    "midi": 53,
                    "time": 58.85515500000005,
                    "velocity": 0.30708661417322836,
                    "duration": 0.40311750000000046
                },
                {
                    "name": "F3",
                    "midi": 53,
                    "time": 59.258272500000054,
                    "velocity": 0.30708661417322836,
                    "duration": 0.40311750000000046
                },
                {
                    "name": "F4",
                    "midi": 65,
                    "time": 59.661390000000054,
                    "velocity": 0.33858267716535434,
                    "duration": 0.40311750000000046
                },
                {
                    "name": "C#4",
                    "midi": 61,
                    "time": 59.661390000000054,
                    "velocity": 0.2755905511811024,
                    "duration": 0.40311750000000046
                },
                {
                    "name": "F#3",
                    "midi": 54,
                    "time": 60.064507500000055,
                    "velocity": 0.28346456692913385,
                    "duration": 0.8062350000000009
                },
                {
                    "name": "D#4",
                    "midi": 63,
                    "time": 60.467625000000055,
                    "velocity": 0.29133858267716534,
                    "duration": 0.40311750000000046
                },
                {
                    "name": "C4",
                    "midi": 60,
                    "time": 60.467625000000055,
                    "velocity": 0.25196850393700787,
                    "duration": 0.40311750000000046
                },
                {
                    "name": "G#3",
                    "midi": 56,
                    "time": 60.870742500000055,
                    "velocity": 0.2125984251968504,
                    "duration": 0.40311750000000046
                },
                {
                    "name": "C#3",
                    "midi": 49,
                    "time": 61.273860000000056,
                    "velocity": 0.2755905511811024,
                    "duration": 0.40311750000000046
                },
                {
                    "name": "G#3",
                    "midi": 56,
                    "time": 61.676977500000056,
                    "velocity": 0.23622047244094488,
                    "duration": 0.40311750000000046
                },
                {
                    "name": "F4",
                    "midi": 65,
                    "time": 62.08009500000006,
                    "velocity": 0.2125984251968504,
                    "duration": 1.6124699999999947
                },
                {
                    "name": "C#4",
                    "midi": 61,
                    "time": 62.08009500000006,
                    "velocity": 0.13385826771653545,
                    "duration": 1.6124699999999947
                },
                {
                    "name": "G#3",
                    "midi": 56,
                    "time": 62.48321250000005,
                    "velocity": 0.18110236220472442,
                    "duration": 0.40311750000000046
                },
                {
                    "name": "G#3",
                    "midi": 56,
                    "time": 62.88633000000005,
                    "velocity": 0.18110236220472442,
                    "duration": 0.40311750000000046
                },
                {
                    "name": "G#3",
                    "midi": 56,
                    "time": 63.28944750000005,
                    "velocity": 0.14960629921259844,
                    "duration": 0.40311750000000046
                },
                {
                    "name": "F4",
                    "midi": 65,
                    "time": 63.69256500000005,
                    "velocity": 0.23622047244094488,
                    "duration": 0.40311750000000046
                },
                {
                    "name": "C#4",
                    "midi": 61,
                    "time": 63.69256500000005,
                    "velocity": 0.14960629921259844,
                    "duration": 0.40311750000000046
                },
                {
                    "name": "G#3",
                    "midi": 56,
                    "time": 64.09568250000005,
                    "velocity": 0.2204724409448819,
                    "duration": 0.40311749999999336
                },
                {
                    "name": "F#4",
                    "midi": 66,
                    "time": 64.49880000000005,
                    "velocity": 0.2755905511811024,
                    "duration": 2.4187049999999743
                },
                {
                    "name": "D#4",
                    "midi": 63,
                    "time": 64.49880000000005,
                    "velocity": 0.2755905511811024,
                    "duration": 2.4187049999999743
                },
                {
                    "name": "G#3",
                    "midi": 56,
                    "time": 64.90191750000005,
                    "velocity": 0.2047244094488189,
                    "duration": 0.40311749999999336
                },
                {
                    "name": "G#3",
                    "midi": 56,
                    "time": 65.30503500000005,
                    "velocity": 0.2204724409448819,
                    "duration": 0.40311749999999336
                },
                {
                    "name": "G#3",
                    "midi": 56,
                    "time": 65.70815250000004,
                    "velocity": 0.25196850393700787,
                    "duration": 0.40311749999999336
                },
                {
                    "name": "A#3",
                    "midi": 58,
                    "time": 66.11127000000003,
                    "velocity": 0.2755905511811024,
                    "duration": 0.40311749999999336
                },
                {
                    "name": "G#3",
                    "midi": 56,
                    "time": 66.51438750000003,
                    "velocity": 0.25196850393700787,
                    "duration": 0.40311749999999336
                },
                {
                    "name": "F4",
                    "midi": 65,
                    "time": 66.91750500000002,
                    "velocity": 0.2755905511811024,
                    "duration": 0.40311750000000757
                },
                {
                    "name": "C#4",
                    "midi": 61,
                    "time": 66.91750500000002,
                    "velocity": 0.2755905511811024,
                    "duration": 0.40311750000000757
                },
                {
                    "name": "G#3",
                    "midi": 56,
                    "time": 67.32062250000003,
                    "velocity": 0.2283464566929134,
                    "duration": 0.40311749999999336
                },
                {
                    "name": "G#3",
                    "midi": 56,
                    "time": 68.12685750000003,
                    "velocity": 0.25196850393700787,
                    "duration": 0.8062349999999867
                },
                {
                    "name": "G#3",
                    "midi": 56,
                    "time": 68.93309250000001,
                    "velocity": 0.2755905511811024,
                    "duration": 0.382961624999993
                },
                {
                    "name": "G#3",
                    "midi": 56,
                    "time": 69.33621000000001,
                    "velocity": 0.25196850393700787,
                    "duration": 0.382961624999993
                },
                {
                    "name": "G#3",
                    "midi": 56,
                    "time": 69.7393275,
                    "velocity": 0.25196850393700787,
                    "duration": 0.8062350000000009
                },
                {
                    "name": "G#3",
                    "midi": 56,
                    "time": 70.5455625,
                    "velocity": 0.2283464566929134,
                    "duration": 0.40311749999999336
                },
                {
                    "name": "G#3",
                    "midi": 56,
                    "time": 71.3517975,
                    "velocity": 0.2440944881889764,
                    "duration": 0.40311749999999336
                },
                {
                    "name": "G#3",
                    "midi": 56,
                    "time": 72.15803249999999,
                    "velocity": 0.2125984251968504,
                    "duration": 0.40311749999999336
                },
                {
                    "name": "F4",
                    "midi": 65,
                    "time": 72.56114999999998,
                    "velocity": 0.2755905511811024,
                    "duration": 0.40311750000000757
                },
                {
                    "name": "C#4",
                    "midi": 61,
                    "time": 72.56114999999998,
                    "velocity": 0.2283464566929134,
                    "duration": 0.40311750000000757
                },
                {
                    "name": "G#3",
                    "midi": 56,
                    "time": 72.96426749999999,
                    "velocity": 0.2125984251968504,
                    "duration": 0.40311749999999336
                },
                {
                    "name": "F#4",
                    "midi": 66,
                    "time": 73.36738499999998,
                    "velocity": 0.25196850393700787,
                    "duration": 0.40311749999999336
                },
                {
                    "name": "C4",
                    "midi": 60,
                    "time": 73.36738499999998,
                    "velocity": 0.2125984251968504,
                    "duration": 0.40311749999999336
                },
                {
                    "name": "G#3",
                    "midi": 56,
                    "time": 73.77050249999998,
                    "velocity": 0.2440944881889764,
                    "duration": 0.40311749999999336
                },
                {
                    "name": "C#3",
                    "midi": 49,
                    "time": 74.17361999999997,
                    "velocity": 0.2755905511811024,
                    "duration": 0.40311750000000757
                },
                {
                    "name": "G#3",
                    "midi": 56,
                    "time": 74.57673749999998,
                    "velocity": 0.23622047244094488,
                    "duration": 0.40311749999999336
                },
                {
                    "name": "F4",
                    "midi": 65,
                    "time": 74.97985499999997,
                    "velocity": 0.2047244094488189,
                    "duration": 2.41870499999996
                },
                {
                    "name": "C#4",
                    "midi": 61,
                    "time": 74.97985499999997,
                    "velocity": 0.14173228346456693,
                    "duration": 2.41870499999996
                },
                {
                    "name": "G#3",
                    "midi": 56,
                    "time": 75.38297249999997,
                    "velocity": 0.18110236220472442,
                    "duration": 0.382961624999993
                },
                {
                    "name": "G#3",
                    "midi": 56,
                    "time": 75.78608999999996,
                    "velocity": 0.1889763779527559,
                    "duration": 0.382961624999993
                },
                {
                    "name": "G#3",
                    "midi": 56,
                    "time": 76.18920749999995,
                    "velocity": 0.16535433070866143,
                    "duration": 0.382961624999993
                },
                {
                    "name": "G#3",
                    "midi": 56,
                    "time": 76.59232499999995,
                    "velocity": 0.23622047244094488,
                    "duration": 0.382961624999993
                },
                {
                    "name": "G#3",
                    "midi": 56,
                    "time": 76.99544249999994,
                    "velocity": 0.2204724409448819,
                    "duration": 0.382961624999993
                },
                {
                    "name": "F#4",
                    "midi": 66,
                    "time": 77.39855999999993,
                    "velocity": 0.2755905511811024,
                    "duration": 2.41870499999996
                },
                {
                    "name": "D#4",
                    "midi": 63,
                    "time": 77.39855999999993,
                    "velocity": 0.2755905511811024,
                    "duration": 2.41870499999996
                },
                {
                    "name": "G#3",
                    "midi": 56,
                    "time": 77.80167749999993,
                    "velocity": 0.2440944881889764,
                    "duration": 0.382961624999993
                },
                {
                    "name": "G#3",
                    "midi": 56,
                    "time": 78.20479499999992,
                    "velocity": 0.2283464566929134,
                    "duration": 0.382961624999993
                },
                {
                    "name": "G#3",
                    "midi": 56,
                    "time": 78.60791249999991,
                    "velocity": 0.25196850393700787,
                    "duration": 0.382961624999993
                },
                {
                    "name": "A#3",
                    "midi": 58,
                    "time": 79.0110299999999,
                    "velocity": 0.2755905511811024,
                    "duration": 0.40311749999999336
                },
                {
                    "name": "G#3",
                    "midi": 56,
                    "time": 79.4141474999999,
                    "velocity": 0.25196850393700787,
                    "duration": 0.40311749999999336
                },
                {
                    "name": "F4",
                    "midi": 65,
                    "time": 79.81726499999989,
                    "velocity": 0.2755905511811024,
                    "duration": 0.40311750000000757
                },
                {
                    "name": "C#4",
                    "midi": 61,
                    "time": 79.81726499999989,
                    "velocity": 0.2755905511811024,
                    "duration": 0.40311750000000757
                },
                {
                    "name": "G#3",
                    "midi": 56,
                    "time": 80.2203824999999,
                    "velocity": 0.2440944881889764,
                    "duration": 0.40311749999999336
                },
                {
                    "name": "G#3",
                    "midi": 56,
                    "time": 81.02661749999989,
                    "velocity": 0.25196850393700787,
                    "duration": 0.8062349999999867
                },
                {
                    "name": "G#3",
                    "midi": 56,
                    "time": 81.83285249999987,
                    "velocity": 0.2755905511811024,
                    "duration": 0.40311749999999336
                },
                {
                    "name": "G#3",
                    "midi": 56,
                    "time": 82.23596999999987,
                    "velocity": 0.25196850393700787,
                    "duration": 0.40311749999999336
                },
                {
                    "name": "G#3",
                    "midi": 56,
                    "time": 82.63908749999986,
                    "velocity": 0.25196850393700787,
                    "duration": 0.8062349999999867
                },
                {
                    "name": "G#3",
                    "midi": 56,
                    "time": 83.44532249999985,
                    "velocity": 0.2283464566929134,
                    "duration": 0.40311749999999336
                },
                {
                    "name": "G#3",
                    "midi": 56,
                    "time": 84.25155749999983,
                    "velocity": 0.2047244094488189,
                    "duration": 0.382961624999993
                },
                {
                    "name": "G#3",
                    "midi": 56,
                    "time": 84.65467499999983,
                    "velocity": 0.2283464566929134,
                    "duration": 0.382961624999993
                },
                {
                    "name": "G#3",
                    "midi": 56,
                    "time": 85.05779249999982,
                    "velocity": 0.2125984251968504,
                    "duration": 0.382961624999993
                },
                {
                    "name": "G#3",
                    "midi": 56,
                    "time": 85.46090999999981,
                    "velocity": 0.23622047244094488,
                    "duration": 0.382961624999993
                },
                {
                    "name": "G#3",
                    "midi": 56,
                    "time": 85.8640274999998,
                    "velocity": 0.2125984251968504,
                    "duration": 0.382961624999993
                },
                {
                    "name": "G#3",
                    "midi": 56,
                    "time": 86.2671449999998,
                    "velocity": 0.23622047244094488,
                    "duration": 0.382961624999993
                },
                {
                    "name": "G#3",
                    "midi": 56,
                    "time": 86.6702624999998,
                    "velocity": 0.2047244094488189,
                    "duration": 0.382961624999993
                },
                {
                    "name": "C#2",
                    "midi": 37,
                    "time": 87.07337999999979,
                    "velocity": 0.2047244094488189,
                    "duration": 0.8062349999999867
                },
                {
                    "name": "G#2",
                    "midi": 44,
                    "time": 87.07337999999979,
                    "velocity": 0.2440944881889764,
                    "duration": 0.8062349999999867
                },
                {
                    "name": "D#2",
                    "midi": 39,
                    "time": 87.87961499999977,
                    "velocity": 0.1889763779527559,
                    "duration": 0.8062350000000009
                },
                {
                    "name": "G#2",
                    "midi": 44,
                    "time": 87.87961499999977,
                    "velocity": 0.2283464566929134,
                    "duration": 0.8062350000000009
                },
                {
                    "name": "E2",
                    "midi": 40,
                    "time": 88.68584999999977,
                    "velocity": 0.2283464566929134,
                    "duration": 0.8062350000000009
                },
                {
                    "name": "C#3",
                    "midi": 49,
                    "time": 88.68584999999977,
                    "velocity": 0.2755905511811024,
                    "duration": 0.8062350000000009
                },
                {
                    "name": "D#2",
                    "midi": 39,
                    "time": 89.49208499999978,
                    "velocity": 0.2125984251968504,
                    "duration": 0.8062350000000009
                },
                {
                    "name": "C3",
                    "midi": 48,
                    "time": 89.49208499999978,
                    "velocity": 0.25984251968503935,
                    "duration": 0.8062350000000009
                },
                {
                    "name": "D#2",
                    "midi": 39,
                    "time": 90.29831999999978,
                    "velocity": 0.25984251968503935,
                    "duration": 0.8062350000000009
                },
                {
                    "name": "G#2",
                    "midi": 44,
                    "time": 90.29831999999978,
                    "velocity": 0.30708661417322836,
                    "duration": 0.8062350000000009
                },
                {
                    "name": "E2",
                    "midi": 40,
                    "time": 91.10455499999978,
                    "velocity": 0.2283464566929134,
                    "duration": 0.8062350000000009
                },
                {
                    "name": "G#2",
                    "midi": 44,
                    "time": 91.10455499999978,
                    "velocity": 0.2755905511811024,
                    "duration": 0.8062350000000009
                },
                {
                    "name": "F#2",
                    "midi": 42,
                    "time": 91.91078999999978,
                    "velocity": 0.2755905511811024,
                    "duration": 0.8062350000000009
                },
                {
                    "name": "D#3",
                    "midi": 51,
                    "time": 91.91078999999978,
                    "velocity": 0.3228346456692913,
                    "duration": 0.8062350000000009
                },
                {
                    "name": "E2",
                    "midi": 40,
                    "time": 92.71702499999978,
                    "velocity": 0.2440944881889764,
                    "duration": 0.8062350000000009
                },
                {
                    "name": "C#3",
                    "midi": 49,
                    "time": 92.71702499999978,
                    "velocity": 0.2992125984251969,
                    "duration": 0.8062350000000009
                },
                {
                    "name": "E2",
                    "midi": 40,
                    "time": 93.52325999999978,
                    "velocity": 0.2992125984251969,
                    "duration": 0.8062350000000009
                },
                {
                    "name": "C#3",
                    "midi": 49,
                    "time": 93.52325999999978,
                    "velocity": 0.36220472440944884,
                    "duration": 0.8062350000000009
                },
                {
                    "name": "G#2",
                    "midi": 44,
                    "time": 94.32949499999978,
                    "velocity": 0.2992125984251969,
                    "duration": 0.8062350000000009
                },
                {
                    "name": "D#3",
                    "midi": 51,
                    "time": 94.32949499999978,
                    "velocity": 0.36220472440944884,
                    "duration": 0.8062350000000009
                },
                {
                    "name": "C#3",
                    "midi": 49,
                    "time": 95.13572999999978,
                    "velocity": 0.3228346456692913,
                    "duration": 0.8062350000000009
                },
                {
                    "name": "E3",
                    "midi": 52,
                    "time": 95.13572999999978,
                    "velocity": 0.3858267716535433,
                    "duration": 0.8062350000000009
                },
                {
                    "name": "G#2",
                    "midi": 44,
                    "time": 95.94196499999978,
                    "velocity": 0.2992125984251969,
                    "duration": 0.8062350000000009
                },
                {
                    "name": "D#3",
                    "midi": 51,
                    "time": 95.94196499999978,
                    "velocity": 0.36220472440944884,
                    "duration": 0.8062350000000009
                },
                {
                    "name": "G#2",
                    "midi": 44,
                    "time": 96.74819999999978,
                    "velocity": 0.30708661417322836,
                    "duration": 4.031175000000005
                },
                {
                    "name": "D#3",
                    "midi": 51,
                    "time": 96.74819999999978,
                    "velocity": 0.3700787401574803,
                    "duration": 4.031175000000005
                },
                {
                    "name": "C#3",
                    "midi": 49,
                    "time": 100.77937499999979,
                    "velocity": 0.25984251968503935,
                    "duration": 0.8062350000000009
                },
                {
                    "name": "E3",
                    "midi": 52,
                    "time": 100.77937499999979,
                    "velocity": 0.30708661417322836,
                    "duration": 0.8062350000000009
                },
                {
                    "name": "G#2",
                    "midi": 44,
                    "time": 101.58560999999979,
                    "velocity": 0.2755905511811024,
                    "duration": 0.8062350000000009
                },
                {
                    "name": "D#3",
                    "midi": 51,
                    "time": 101.58560999999979,
                    "velocity": 0.3228346456692913,
                    "duration": 0.8062350000000009
                },
                {
                    "name": "E2",
                    "midi": 40,
                    "time": 102.39184499999979,
                    "velocity": 0.23622047244094488,
                    "duration": 0.8062350000000009
                },
                {
                    "name": "C#3",
                    "midi": 49,
                    "time": 102.39184499999979,
                    "velocity": 0.29133858267716534,
                    "duration": 0.8062350000000009
                },
                {
                    "name": "G#2",
                    "midi": 44,
                    "time": 103.19807999999979,
                    "velocity": 0.2755905511811024,
                    "duration": 0.8062350000000009
                },
                {
                    "name": "D#3",
                    "midi": 51,
                    "time": 103.19807999999979,
                    "velocity": 0.3228346456692913,
                    "duration": 0.8062350000000009
                },
                {
                    "name": "E2",
                    "midi": 40,
                    "time": 104.00431499999979,
                    "velocity": 0.23622047244094488,
                    "duration": 0.8062350000000009
                },
                {
                    "name": "C#3",
                    "midi": 49,
                    "time": 104.00431499999979,
                    "velocity": 0.29133858267716534,
                    "duration": 0.8062350000000009
                },
                {
                    "name": "D#2",
                    "midi": 39,
                    "time": 104.8105499999998,
                    "velocity": 0.2440944881889764,
                    "duration": 0.8062350000000009
                },
                {
                    "name": "C3",
                    "midi": 48,
                    "time": 104.8105499999998,
                    "velocity": 0.2992125984251969,
                    "duration": 0.8062350000000009
                },
                {
                    "name": "E2",
                    "midi": 40,
                    "time": 105.6167849999998,
                    "velocity": 0.2283464566929134,
                    "duration": 0.8062350000000009
                },
                {
                    "name": "C#3",
                    "midi": 49,
                    "time": 105.6167849999998,
                    "velocity": 0.2755905511811024,
                    "duration": 0.8062350000000009
                },
                {
                    "name": "D#2",
                    "midi": 39,
                    "time": 106.4230199999998,
                    "velocity": 0.25984251968503935,
                    "duration": 0.8062349999999867
                },
                {
                    "name": "C3",
                    "midi": 48,
                    "time": 106.4230199999998,
                    "velocity": 0.30708661417322836,
                    "duration": 0.8062349999999867
                },
                {
                    "name": "E2",
                    "midi": 40,
                    "time": 107.22925499999978,
                    "velocity": 0.23622047244094488,
                    "duration": 0.8062349999999867
                },
                {
                    "name": "C#3",
                    "midi": 49,
                    "time": 107.22925499999978,
                    "velocity": 0.29133858267716534,
                    "duration": 0.8062349999999867
                },
                {
                    "name": "D#2",
                    "midi": 39,
                    "time": 108.03548999999977,
                    "velocity": 0.2677165354330709,
                    "duration": 0.8062350000000009
                },
                {
                    "name": "D#3",
                    "midi": 51,
                    "time": 108.03548999999977,
                    "velocity": 0.31496062992125984,
                    "duration": 0.8062350000000009
                },
                {
                    "name": "C#2",
                    "midi": 37,
                    "time": 108.84172499999977,
                    "velocity": 0.29133858267716534,
                    "duration": 0.8062350000000009
                },
                {
                    "name": "E3",
                    "midi": 52,
                    "time": 108.84172499999977,
                    "velocity": 0.3543307086614173,
                    "duration": 0.8062350000000009
                },
                {
                    "name": "G#2",
                    "midi": 44,
                    "time": 109.64795999999977,
                    "velocity": 0.31496062992125984,
                    "duration": 3.2249400000000037
                },
                {
                    "name": "D#3",
                    "midi": 51,
                    "time": 109.64795999999977,
                    "velocity": 0.3779527559055118,
                    "duration": 3.2249400000000037
                },
                {
                    "name": "C#2",
                    "midi": 37,
                    "time": 112.87289999999977,
                    "velocity": 0.4094488188976378,
                    "duration": 0.8062350000000009
                },
                {
                    "name": "G#2",
                    "midi": 44,
                    "time": 112.87289999999977,
                    "velocity": 0.4881889763779528,
                    "duration": 0.8062350000000009
                },
                {
                    "name": "D#2",
                    "midi": 39,
                    "time": 113.67913499999977,
                    "velocity": 0.4015748031496063,
                    "duration": 0.8062350000000009
                },
                {
                    "name": "G#2",
                    "midi": 44,
                    "time": 113.67913499999977,
                    "velocity": 0.48031496062992124,
                    "duration": 0.8062350000000009
                },
                {
                    "name": "E2",
                    "midi": 40,
                    "time": 114.48536999999978,
                    "velocity": 0.4409448818897638,
                    "duration": 0.8062350000000009
                },
                {
                    "name": "C#3",
                    "midi": 49,
                    "time": 114.48536999999978,
                    "velocity": 0.5275590551181102,
                    "duration": 0.8062350000000009
                },
                {
                    "name": "D#2",
                    "midi": 39,
                    "time": 115.29160499999978,
                    "velocity": 0.4094488188976378,
                    "duration": 0.8062349999999867
                },
                {
                    "name": "C3",
                    "midi": 48,
                    "time": 115.29160499999978,
                    "velocity": 0.4881889763779528,
                    "duration": 0.8062349999999867
                },
                {
                    "name": "D#2",
                    "midi": 39,
                    "time": 116.09783999999976,
                    "velocity": 0.44881889763779526,
                    "duration": 0.8062350000000009
                },
                {
                    "name": "G#2",
                    "midi": 44,
                    "time": 116.09783999999976,
                    "velocity": 0.5275590551181102,
                    "duration": 0.8062350000000009
                },
                {
                    "name": "E2",
                    "midi": 40,
                    "time": 116.90407499999976,
                    "velocity": 0.4409448818897638,
                    "duration": 0.8062350000000009
                },
                {
                    "name": "G#2",
                    "midi": 44,
                    "time": 116.90407499999976,
                    "velocity": 0.5196850393700787,
                    "duration": 0.8062350000000009
                },
                {
                    "name": "F#2",
                    "midi": 42,
                    "time": 117.71030999999977,
                    "velocity": 0.47244094488188976,
                    "duration": 0.8062349999999867
                },
                {
                    "name": "D#3",
                    "midi": 51,
                    "time": 117.71030999999977,
                    "velocity": 0.5590551181102362,
                    "duration": 0.8062349999999867
                },
                {
                    "name": "E2",
                    "midi": 40,
                    "time": 118.51654499999975,
                    "velocity": 0.44881889763779526,
                    "duration": 0.8062350000000009
                },
                {
                    "name": "C#3",
                    "midi": 49,
                    "time": 118.51654499999975,
                    "velocity": 0.5354330708661418,
                    "duration": 0.8062350000000009
                },
                {
                    "name": "E2",
                    "midi": 40,
                    "time": 119.32277999999975,
                    "velocity": 0.4645669291338583,
                    "duration": 0.8062350000000009
                },
                {
                    "name": "C#3",
                    "midi": 49,
                    "time": 119.32277999999975,
                    "velocity": 0.5511811023622047,
                    "duration": 0.8062350000000009
                },
                {
                    "name": "G#2",
                    "midi": 44,
                    "time": 120.12901499999975,
                    "velocity": 0.48031496062992124,
                    "duration": 0.8062350000000009
                },
                {
                    "name": "D#3",
                    "midi": 51,
                    "time": 120.12901499999975,
                    "velocity": 0.5748031496062992,
                    "duration": 0.8062350000000009
                },
                {
                    "name": "C#3",
                    "midi": 49,
                    "time": 120.93524999999975,
                    "velocity": 0.5196850393700787,
                    "duration": 0.8062350000000009
                },
                {
                    "name": "E3",
                    "midi": 52,
                    "time": 120.93524999999975,
                    "velocity": 0.6141732283464567,
                    "duration": 0.8062350000000009
                },
                {
                    "name": "G#2",
                    "midi": 44,
                    "time": 121.74148499999976,
                    "velocity": 0.48031496062992124,
                    "duration": 0.6046762500000114
                },
                {
                    "name": "D#3",
                    "midi": 51,
                    "time": 121.74148499999976,
                    "velocity": 0.5748031496062992,
                    "duration": 0.6046762500000114
                },
                {
                    "name": "G#1",
                    "midi": 32,
                    "time": 122.34616124999977,
                    "velocity": 0.6456692913385826,
                    "duration": 0.20155875000000378
                },
                {
                    "name": "G#2",
                    "midi": 44,
                    "time": 122.54771999999977,
                    "velocity": 0.4881889763779528,
                    "duration": 3.2249400000000037
                },
                {
                    "name": "D#3",
                    "midi": 51,
                    "time": 122.54771999999977,
                    "velocity": 0.5826771653543307,
                    "duration": 3.2249400000000037
                },
                {
                    "name": "E1",
                    "midi": 28,
                    "time": 125.77265999999977,
                    "velocity": 0.5826771653543307,
                    "duration": 1.6124699999999876
                },
                {
                    "name": "E2",
                    "midi": 40,
                    "time": 125.77265999999977,
                    "velocity": 0.6929133858267716,
                    "duration": 1.6124699999999876
                },
                {
                    "name": "B1",
                    "midi": 35,
                    "time": 127.38512999999976,
                    "velocity": 0.5511811023622047,
                    "duration": 1.612470000000016
                },
                {
                    "name": "B2",
                    "midi": 47,
                    "time": 127.38512999999976,
                    "velocity": 0.6535433070866141,
                    "duration": 1.612470000000016
                },
                {
                    "name": "E1",
                    "midi": 28,
                    "time": 128.99759999999978,
                    "velocity": 0.5826771653543307,
                    "duration": 1.6124700000000018
                },
                {
                    "name": "E2",
                    "midi": 40,
                    "time": 128.99759999999978,
                    "velocity": 0.6929133858267716,
                    "duration": 1.6124700000000018
                },
                {
                    "name": "B1",
                    "midi": 35,
                    "time": 130.61006999999978,
                    "velocity": 0.5669291338582677,
                    "duration": 1.2093524999999943
                },
                {
                    "name": "B2",
                    "midi": 47,
                    "time": 130.61006999999978,
                    "velocity": 0.6692913385826772,
                    "duration": 1.2093524999999943
                },
                {
                    "name": "A#1",
                    "midi": 34,
                    "time": 131.81942249999977,
                    "velocity": 0.5826771653543307,
                    "duration": 0.40311750000000757
                },
                {
                    "name": "A#2",
                    "midi": 46,
                    "time": 131.81942249999977,
                    "velocity": 0.6929133858267716,
                    "duration": 0.40311750000000757
                },
                {
                    "name": "G#1",
                    "midi": 32,
                    "time": 132.22253999999978,
                    "velocity": 0.5826771653543307,
                    "duration": 1.6124700000000018
                },
                {
                    "name": "G#2",
                    "midi": 44,
                    "time": 132.22253999999978,
                    "velocity": 0.6929133858267716,
                    "duration": 1.6124700000000018
                },
                {
                    "name": "D#2",
                    "midi": 39,
                    "time": 133.83500999999978,
                    "velocity": 0.5590551181102362,
                    "duration": 1.6124700000000018
                },
                {
                    "name": "D#3",
                    "midi": 51,
                    "time": 133.83500999999978,
                    "velocity": 0.6614173228346457,
                    "duration": 1.6124700000000018
                },
                {
                    "name": "G#1",
                    "midi": 32,
                    "time": 135.44747999999979,
                    "velocity": 0.5275590551181102,
                    "duration": 1.6124700000000018
                },
                {
                    "name": "G#2",
                    "midi": 44,
                    "time": 135.44747999999979,
                    "velocity": 0.6220472440944882,
                    "duration": 1.6124700000000018
                },
                {
                    "name": "C#2",
                    "midi": 37,
                    "time": 138.6724199999998,
                    "velocity": 0.2283464566929134,
                    "duration": 0.8062349999999867
                },
                {
                    "name": "G#2",
                    "midi": 44,
                    "time": 138.6724199999998,
                    "velocity": 0.2755905511811024,
                    "duration": 0.8062349999999867
                },
                {
                    "name": "D#2",
                    "midi": 39,
                    "time": 139.47865499999978,
                    "velocity": 0.2047244094488189,
                    "duration": 0.8062349999999867
                },
                {
                    "name": "G#2",
                    "midi": 44,
                    "time": 139.47865499999978,
                    "velocity": 0.2440944881889764,
                    "duration": 0.8062349999999867
                },
                {
                    "name": "E2",
                    "midi": 40,
                    "time": 140.28488999999976,
                    "velocity": 0.2283464566929134,
                    "duration": 0.8062350000000151
                },
                {
                    "name": "C#3",
                    "midi": 49,
                    "time": 140.28488999999976,
                    "velocity": 0.2755905511811024,
                    "duration": 0.8062350000000151
                },
                {
                    "name": "D#2",
                    "midi": 39,
                    "time": 141.09112499999978,
                    "velocity": 0.2125984251968504,
                    "duration": 0.8062349999999867
                },
                {
                    "name": "C3",
                    "midi": 48,
                    "time": 141.09112499999978,
                    "velocity": 0.25984251968503935,
                    "duration": 0.8062349999999867
                },
                {
                    "name": "D#2",
                    "midi": 39,
                    "time": 141.89735999999976,
                    "velocity": 0.25984251968503935,
                    "duration": 0.8062349999999867
                },
                {
                    "name": "G#2",
                    "midi": 44,
                    "time": 141.89735999999976,
                    "velocity": 0.30708661417322836,
                    "duration": 0.8062349999999867
                },
                {
                    "name": "E2",
                    "midi": 40,
                    "time": 142.70359499999975,
                    "velocity": 0.2283464566929134,
                    "duration": 0.8062350000000151
                },
                {
                    "name": "G#2",
                    "midi": 44,
                    "time": 142.70359499999975,
                    "velocity": 0.2755905511811024,
                    "duration": 0.8062350000000151
                },
                {
                    "name": "F#2",
                    "midi": 42,
                    "time": 143.50982999999977,
                    "velocity": 0.2755905511811024,
                    "duration": 0.8062349999999867
                },
                {
                    "name": "D#3",
                    "midi": 51,
                    "time": 143.50982999999977,
                    "velocity": 0.3228346456692913,
                    "duration": 0.8062349999999867
                },
                {
                    "name": "E2",
                    "midi": 40,
                    "time": 144.31606499999975,
                    "velocity": 0.2440944881889764,
                    "duration": 0.8062350000000151
                },
                {
                    "name": "C#3",
                    "midi": 49,
                    "time": 144.31606499999975,
                    "velocity": 0.2992125984251969,
                    "duration": 0.8062350000000151
                },
                {
                    "name": "E2",
                    "midi": 40,
                    "time": 145.12229999999977,
                    "velocity": 0.2992125984251969,
                    "duration": 0.8062349999999867
                },
                {
                    "name": "C#3",
                    "midi": 49,
                    "time": 145.12229999999977,
                    "velocity": 0.36220472440944884,
                    "duration": 0.8062349999999867
                },
                {
                    "name": "G#2",
                    "midi": 44,
                    "time": 145.92853499999975,
                    "velocity": 0.2992125984251969,
                    "duration": 0.8062349999999867
                },
                {
                    "name": "D#3",
                    "midi": 51,
                    "time": 145.92853499999975,
                    "velocity": 0.36220472440944884,
                    "duration": 0.8062349999999867
                },
                {
                    "name": "C#3",
                    "midi": 49,
                    "time": 146.73476999999974,
                    "velocity": 0.3228346456692913,
                    "duration": 0.8062350000000151
                },
                {
                    "name": "E3",
                    "midi": 52,
                    "time": 146.73476999999974,
                    "velocity": 0.3858267716535433,
                    "duration": 0.8062350000000151
                },
                {
                    "name": "G#2",
                    "midi": 44,
                    "time": 147.54100499999976,
                    "velocity": 0.2992125984251969,
                    "duration": 0.8062349999999867
                },
                {
                    "name": "D#3",
                    "midi": 51,
                    "time": 147.54100499999976,
                    "velocity": 0.36220472440944884,
                    "duration": 0.8062349999999867
                },
                {
                    "name": "G#2",
                    "midi": 44,
                    "time": 148.34723999999974,
                    "velocity": 0.30708661417322836,
                    "duration": 4.03117499999999
                },
                {
                    "name": "D#3",
                    "midi": 51,
                    "time": 148.34723999999974,
                    "velocity": 0.3700787401574803,
                    "duration": 4.03117499999999
                },
                {
                    "name": "C#3",
                    "midi": 49,
                    "time": 152.37841499999973,
                    "velocity": 0.25984251968503935,
                    "duration": 0.8062350000000151
                },
                {
                    "name": "E3",
                    "midi": 52,
                    "time": 152.37841499999973,
                    "velocity": 0.30708661417322836,
                    "duration": 0.8062350000000151
                },
                {
                    "name": "G#2",
                    "midi": 44,
                    "time": 153.18464999999975,
                    "velocity": 0.2755905511811024,
                    "duration": 0.8062350000000151
                },
                {
                    "name": "D#3",
                    "midi": 51,
                    "time": 153.18464999999975,
                    "velocity": 0.3228346456692913,
                    "duration": 0.8062350000000151
                },
                {
                    "name": "E2",
                    "midi": 40,
                    "time": 153.99088499999976,
                    "velocity": 0.23622047244094488,
                    "duration": 0.8062349999999867
                },
                {
                    "name": "C#3",
                    "midi": 49,
                    "time": 153.99088499999976,
                    "velocity": 0.29133858267716534,
                    "duration": 0.8062349999999867
                },
                {
                    "name": "G#2",
                    "midi": 44,
                    "time": 154.79711999999975,
                    "velocity": 0.2755905511811024,
                    "duration": 0.8062350000000151
                },
                {
                    "name": "D#3",
                    "midi": 51,
                    "time": 154.79711999999975,
                    "velocity": 0.3228346456692913,
                    "duration": 0.8062350000000151
                },
                {
                    "name": "E2",
                    "midi": 40,
                    "time": 155.60335499999977,
                    "velocity": 0.23622047244094488,
                    "duration": 0.8062350000000151
                },
                {
                    "name": "C#3",
                    "midi": 49,
                    "time": 155.60335499999977,
                    "velocity": 0.29133858267716534,
                    "duration": 0.8062350000000151
                },
                {
                    "name": "D#2",
                    "midi": 39,
                    "time": 156.40958999999978,
                    "velocity": 0.2440944881889764,
                    "duration": 0.8062350000000151
                },
                {
                    "name": "C3",
                    "midi": 48,
                    "time": 156.40958999999978,
                    "velocity": 0.2992125984251969,
                    "duration": 0.8062350000000151
                },
                {
                    "name": "E2",
                    "midi": 40,
                    "time": 157.2158249999998,
                    "velocity": 0.2283464566929134,
                    "duration": 0.8062350000000151
                },
                {
                    "name": "C#3",
                    "midi": 49,
                    "time": 157.2158249999998,
                    "velocity": 0.2755905511811024,
                    "duration": 0.8062350000000151
                },
                {
                    "name": "D#2",
                    "midi": 39,
                    "time": 158.0220599999998,
                    "velocity": 0.25984251968503935,
                    "duration": 0.8062349999999867
                },
                {
                    "name": "C3",
                    "midi": 48,
                    "time": 158.0220599999998,
                    "velocity": 0.30708661417322836,
                    "duration": 0.8062349999999867
                },
                {
                    "name": "E2",
                    "midi": 40,
                    "time": 158.8282949999998,
                    "velocity": 0.23622047244094488,
                    "duration": 0.8062350000000151
                },
                {
                    "name": "C#3",
                    "midi": 49,
                    "time": 158.8282949999998,
                    "velocity": 0.29133858267716534,
                    "duration": 0.8062350000000151
                },
                {
                    "name": "D#2",
                    "midi": 39,
                    "time": 159.6345299999998,
                    "velocity": 0.2677165354330709,
                    "duration": 0.8062349999999867
                },
                {
                    "name": "D#3",
                    "midi": 51,
                    "time": 159.6345299999998,
                    "velocity": 0.31496062992125984,
                    "duration": 0.8062349999999867
                },
                {
                    "name": "C#2",
                    "midi": 37,
                    "time": 160.4407649999998,
                    "velocity": 0.29133858267716534,
                    "duration": 0.8062349999999867
                },
                {
                    "name": "E3",
                    "midi": 52,
                    "time": 160.4407649999998,
                    "velocity": 0.3543307086614173,
                    "duration": 0.8062349999999867
                },
                {
                    "name": "G#2",
                    "midi": 44,
                    "time": 161.2469999999998,
                    "velocity": 0.31496062992125984,
                    "duration": 3.2249399999999753
                },
                {
                    "name": "D#3",
                    "midi": 51,
                    "time": 161.2469999999998,
                    "velocity": 0.3779527559055118,
                    "duration": 3.2249399999999753
                },
                {
                    "name": "C#2",
                    "midi": 37,
                    "time": 164.47193999999976,
                    "velocity": 0.4094488188976378,
                    "duration": 0.8062350000000151
                },
                {
                    "name": "G#2",
                    "midi": 44,
                    "time": 164.47193999999976,
                    "velocity": 0.4881889763779528,
                    "duration": 0.8062350000000151
                },
                {
                    "name": "D#2",
                    "midi": 39,
                    "time": 165.27817499999978,
                    "velocity": 0.4015748031496063,
                    "duration": 0.8062350000000151
                },
                {
                    "name": "G#2",
                    "midi": 44,
                    "time": 165.27817499999978,
                    "velocity": 0.48031496062992124,
                    "duration": 0.8062350000000151
                },
                {
                    "name": "E2",
                    "midi": 40,
                    "time": 166.0844099999998,
                    "velocity": 0.4409448818897638,
                    "duration": 0.8062350000000151
                },
                {
                    "name": "C#3",
                    "midi": 49,
                    "time": 166.0844099999998,
                    "velocity": 0.5275590551181102,
                    "duration": 0.8062350000000151
                },
                {
                    "name": "D#2",
                    "midi": 39,
                    "time": 166.8906449999998,
                    "velocity": 0.4094488188976378,
                    "duration": 0.8062350000000151
                },
                {
                    "name": "C3",
                    "midi": 48,
                    "time": 166.8906449999998,
                    "velocity": 0.4881889763779528,
                    "duration": 0.8062350000000151
                },
                {
                    "name": "D#2",
                    "midi": 39,
                    "time": 167.69687999999982,
                    "velocity": 0.44881889763779526,
                    "duration": 0.8062349999999867
                },
                {
                    "name": "G#2",
                    "midi": 44,
                    "time": 167.69687999999982,
                    "velocity": 0.5275590551181102,
                    "duration": 0.8062349999999867
                },
                {
                    "name": "E2",
                    "midi": 40,
                    "time": 168.5031149999998,
                    "velocity": 0.4409448818897638,
                    "duration": 0.8062350000000151
                },
                {
                    "name": "G#2",
                    "midi": 44,
                    "time": 168.5031149999998,
                    "velocity": 0.5196850393700787,
                    "duration": 0.8062350000000151
                },
                {
                    "name": "F#2",
                    "midi": 42,
                    "time": 169.30934999999982,
                    "velocity": 0.47244094488188976,
                    "duration": 0.8062350000000151
                },
                {
                    "name": "D#3",
                    "midi": 51,
                    "time": 169.30934999999982,
                    "velocity": 0.5590551181102362,
                    "duration": 0.8062350000000151
                },
                {
                    "name": "E2",
                    "midi": 40,
                    "time": 170.11558499999984,
                    "velocity": 0.44881889763779526,
                    "duration": 0.8062350000000151
                },
                {
                    "name": "C#3",
                    "midi": 49,
                    "time": 170.11558499999984,
                    "velocity": 0.5354330708661418,
                    "duration": 0.8062350000000151
                },
                {
                    "name": "E2",
                    "midi": 40,
                    "time": 170.92181999999985,
                    "velocity": 0.4645669291338583,
                    "duration": 0.8062349999999867
                },
                {
                    "name": "C#3",
                    "midi": 49,
                    "time": 170.92181999999985,
                    "velocity": 0.5511811023622047,
                    "duration": 0.8062349999999867
                },
                {
                    "name": "G#2",
                    "midi": 44,
                    "time": 171.72805499999984,
                    "velocity": 0.48031496062992124,
                    "duration": 0.8062350000000151
                },
                {
                    "name": "D#3",
                    "midi": 51,
                    "time": 171.72805499999984,
                    "velocity": 0.5748031496062992,
                    "duration": 0.8062350000000151
                },
                {
                    "name": "C#3",
                    "midi": 49,
                    "time": 172.53428999999986,
                    "velocity": 0.5196850393700787,
                    "duration": 0.8062350000000151
                },
                {
                    "name": "E3",
                    "midi": 52,
                    "time": 172.53428999999986,
                    "velocity": 0.6141732283464567,
                    "duration": 0.8062350000000151
                },
                {
                    "name": "G#2",
                    "midi": 44,
                    "time": 173.34052499999987,
                    "velocity": 0.48031496062992124,
                    "duration": 0.6046762499999829
                },
                {
                    "name": "D#3",
                    "midi": 51,
                    "time": 173.34052499999987,
                    "velocity": 0.5748031496062992,
                    "duration": 0.6046762499999829
                },
                {
                    "name": "G#1",
                    "midi": 32,
                    "time": 173.94520124999985,
                    "velocity": 0.6456692913385826,
                    "duration": 0.20155875000000378
                },
                {
                    "name": "G#2",
                    "midi": 44,
                    "time": 174.14675999999986,
                    "velocity": 0.4881889763779528,
                    "duration": 3.2249400000000037
                },
                {
                    "name": "D#3",
                    "midi": 51,
                    "time": 174.14675999999986,
                    "velocity": 0.5826771653543307,
                    "duration": 3.2249400000000037
                },
                {
                    "name": "E1",
                    "midi": 28,
                    "time": 177.37169999999986,
                    "velocity": 0.5826771653543307,
                    "duration": 1.6124700000000018
                },
                {
                    "name": "E2",
                    "midi": 40,
                    "time": 177.37169999999986,
                    "velocity": 0.6929133858267716,
                    "duration": 1.6124700000000018
                },
                {
                    "name": "B1",
                    "midi": 35,
                    "time": 178.98416999999986,
                    "velocity": 0.5511811023622047,
                    "duration": 1.6124700000000018
                },
                {
                    "name": "B2",
                    "midi": 47,
                    "time": 178.98416999999986,
                    "velocity": 0.6535433070866141,
                    "duration": 1.6124700000000018
                },
                {
                    "name": "E1",
                    "midi": 28,
                    "time": 180.59663999999987,
                    "velocity": 0.5826771653543307,
                    "duration": 1.6124700000000018
                },
                {
                    "name": "E2",
                    "midi": 40,
                    "time": 180.59663999999987,
                    "velocity": 0.6929133858267716,
                    "duration": 1.6124700000000018
                },
                {
                    "name": "B1",
                    "midi": 35,
                    "time": 182.20910999999987,
                    "velocity": 0.5669291338582677,
                    "duration": 1.2093524999999943
                },
                {
                    "name": "B2",
                    "midi": 47,
                    "time": 182.20910999999987,
                    "velocity": 0.6692913385826772,
                    "duration": 1.2093524999999943
                },
                {
                    "name": "A#1",
                    "midi": 34,
                    "time": 183.41846249999986,
                    "velocity": 0.5826771653543307,
                    "duration": 0.40311750000000757
                },
                {
                    "name": "A#2",
                    "midi": 46,
                    "time": 183.41846249999986,
                    "velocity": 0.6929133858267716,
                    "duration": 0.40311750000000757
                },
                {
                    "name": "G#1",
                    "midi": 32,
                    "time": 183.82157999999987,
                    "velocity": 0.5826771653543307,
                    "duration": 1.6124700000000018
                },
                {
                    "name": "G#2",
                    "midi": 44,
                    "time": 183.82157999999987,
                    "velocity": 0.6929133858267716,
                    "duration": 1.6124700000000018
                },
                {
                    "name": "D#2",
                    "midi": 39,
                    "time": 185.43404999999987,
                    "velocity": 0.5590551181102362,
                    "duration": 1.6124700000000018
                },
                {
                    "name": "D#3",
                    "midi": 51,
                    "time": 185.43404999999987,
                    "velocity": 0.6614173228346457,
                    "duration": 1.6124700000000018
                },
                {
                    "name": "G#1",
                    "midi": 32,
                    "time": 187.04651999999987,
                    "velocity": 0.5275590551181102,
                    "duration": 1.6124700000000018
                },
                {
                    "name": "G#2",
                    "midi": 44,
                    "time": 187.04651999999987,
                    "velocity": 0.6220472440944882,
                    "duration": 1.6124700000000018
                },
                {
                    "name": "G#2",
                    "midi": 44,
                    "time": 190.27145999999988,
                    "velocity": 0.29133858267716534,
                    "duration": 1.6124700000000018
                },
                {
                    "name": "F#2",
                    "midi": 42,
                    "time": 190.27145999999988,
                    "velocity": 0.29133858267716534,
                    "duration": 1.6124700000000018
                },
                {
                    "name": "F#3",
                    "midi": 54,
                    "time": 190.27145999999988,
                    "velocity": 0.3464566929133858,
                    "duration": 1.6124700000000018
                },
                {
                    "name": "E2",
                    "midi": 40,
                    "time": 191.88392999999988,
                    "velocity": 0.25984251968503935,
                    "duration": 0.8062350000000151
                },
                {
                    "name": "E3",
                    "midi": 52,
                    "time": 191.88392999999988,
                    "velocity": 0.30708661417322836,
                    "duration": 0.8062350000000151
                },
                {
                    "name": "G#2",
                    "midi": 44,
                    "time": 191.88392999999988,
                    "velocity": 0.25984251968503935,
                    "duration": 1.6124700000000303
                },
                {
                    "name": "C#2",
                    "midi": 37,
                    "time": 192.6901649999999,
                    "velocity": 0.2440944881889764,
                    "duration": 0.8062350000000151
                },
                {
                    "name": "C#3",
                    "midi": 49,
                    "time": 192.6901649999999,
                    "velocity": 0.2992125984251969,
                    "duration": 0.8062350000000151
                },
                {
                    "name": "G#1",
                    "midi": 32,
                    "time": 193.4963999999999,
                    "velocity": 0.29133858267716534,
                    "duration": 2.418705000000017
                },
                {
                    "name": "G#2",
                    "midi": 44,
                    "time": 193.4963999999999,
                    "velocity": 0.3464566929133858,
                    "duration": 2.418705000000017
                },
                {
                    "name": "G#2",
                    "midi": 44,
                    "time": 195.91510499999993,
                    "velocity": 0.29133858267716534,
                    "duration": 0.8062350000000151
                },
                {
                    "name": "G#3",
                    "midi": 56,
                    "time": 195.91510499999993,
                    "velocity": 0.3464566929133858,
                    "duration": 0.8062350000000151
                },
                {
                    "name": "C#3",
                    "midi": 49,
                    "time": 196.72133999999994,
                    "velocity": 0.3228346456692913,
                    "duration": 1.6124699999999734
                },
                {
                    "name": "G#3",
                    "midi": 56,
                    "time": 196.72133999999994,
                    "velocity": 0.3858267716535433,
                    "duration": 1.6124699999999734
                },
                {
                    "name": "G#2",
                    "midi": 44,
                    "time": 198.33380999999991,
                    "velocity": 0.29133858267716534,
                    "duration": 1.6124699999999734
                },
                {
                    "name": "G#3",
                    "midi": 56,
                    "time": 198.33380999999991,
                    "velocity": 0.3464566929133858,
                    "duration": 1.6124699999999734
                },
                {
                    "name": "A2",
                    "midi": 45,
                    "time": 199.9462799999999,
                    "velocity": 0.3543307086614173,
                    "duration": 1.6124700000000018
                },
                {
                    "name": "A3",
                    "midi": 57,
                    "time": 199.9462799999999,
                    "velocity": 0.41732283464566927,
                    "duration": 1.6124700000000018
                },
                {
                    "name": "G#2",
                    "midi": 44,
                    "time": 201.5587499999999,
                    "velocity": 0.33070866141732286,
                    "duration": 0.8062350000000151
                },
                {
                    "name": "G#3",
                    "midi": 56,
                    "time": 201.5587499999999,
                    "velocity": 0.4015748031496063,
                    "duration": 0.8062350000000151
                },
                {
                    "name": "F#2",
                    "midi": 42,
                    "time": 202.3649849999999,
                    "velocity": 0.29133858267716534,
                    "duration": 0.8062350000000151
                },
                {
                    "name": "F#3",
                    "midi": 54,
                    "time": 202.3649849999999,
                    "velocity": 0.3464566929133858,
                    "duration": 0.8062350000000151
                },
                {
                    "name": "G#2",
                    "midi": 44,
                    "time": 203.17121999999992,
                    "velocity": 0.3858267716535433,
                    "duration": 1.6124700000000018
                },
                {
                    "name": "C#2",
                    "midi": 37,
                    "time": 204.78368999999992,
                    "velocity": 0.29133858267716534,
                    "duration": 1.6124699999999734
                },
                {
                    "name": "G#2",
                    "midi": 44,
                    "time": 204.78368999999992,
                    "velocity": 0.3464566929133858,
                    "duration": 1.6124699999999734
                },
                {
                    "name": "G#1",
                    "midi": 32,
                    "time": 206.3961599999999,
                    "velocity": 0.28346456692913385,
                    "duration": 0.8062350000000151
                },
                {
                    "name": "G#2",
                    "midi": 44,
                    "time": 206.3961599999999,
                    "velocity": 0.33070866141732286,
                    "duration": 0.8062350000000151
                },
                {
                    "name": "C#2",
                    "midi": 37,
                    "time": 207.2023949999999,
                    "velocity": 0.3228346456692913,
                    "duration": 2.4187050000000454
                },
                {
                    "name": "G#2",
                    "midi": 44,
                    "time": 207.2023949999999,
                    "velocity": 0.3858267716535433,
                    "duration": 2.4187050000000454
                },
                {
                    "name": "C#2",
                    "midi": 37,
                    "time": 209.62109999999996,
                    "velocity": 0.29133858267716534,
                    "duration": 0.8062349999999867
                },
                {
                    "name": "G#2",
                    "midi": 44,
                    "time": 209.62109999999996,
                    "velocity": 0.3543307086614173,
                    "duration": 0.8062349999999867
                },
                {
                    "name": "G#1",
                    "midi": 32,
                    "time": 210.42733499999994,
                    "velocity": 0.25984251968503935,
                    "duration": 1.6124700000000018
                },
                {
                    "name": "G#2",
                    "midi": 44,
                    "time": 210.42733499999994,
                    "velocity": 0.30708661417322836,
                    "duration": 1.6124700000000018
                },
                {
                    "name": "C#2",
                    "midi": 37,
                    "time": 212.03980499999994,
                    "velocity": 0.2755905511811024,
                    "duration": 0.8062349999999867
                },
                {
                    "name": "G#2",
                    "midi": 44,
                    "time": 212.03980499999994,
                    "velocity": 0.3228346456692913,
                    "duration": 0.8062349999999867
                },
                {
                    "name": "G#1",
                    "midi": 32,
                    "time": 212.84603999999993,
                    "velocity": 0.2755905511811024,
                    "duration": 3.2249400000000037
                },
                {
                    "name": "G#2",
                    "midi": 44,
                    "time": 212.84603999999993,
                    "velocity": 0.3228346456692913,
                    "duration": 3.2249400000000037
                },
                {
                    "name": "G#2",
                    "midi": 44,
                    "time": 216.07097999999993,
                    "velocity": 0.31496062992125984,
                    "duration": 0.3829616250000072
                },
                {
                    "name": "F#2",
                    "midi": 42,
                    "time": 216.07097999999993,
                    "velocity": 0.31496062992125984,
                    "duration": 1.6124700000000303
                },
                {
                    "name": "F#3",
                    "midi": 54,
                    "time": 216.07097999999993,
                    "velocity": 0.3779527559055118,
                    "duration": 1.6124700000000303
                },
                {
                    "name": "G#2",
                    "midi": 44,
                    "time": 216.47409749999994,
                    "velocity": 0.31496062992125984,
                    "duration": 0.3829616250000072
                },
                {
                    "name": "G#2",
                    "midi": 44,
                    "time": 216.87721499999995,
                    "velocity": 0.31496062992125984,
                    "duration": 0.3829616250000072
                },
                {
                    "name": "G#2",
                    "midi": 44,
                    "time": 217.28033249999996,
                    "velocity": 0.31496062992125984,
                    "duration": 0.3829616250000072
                },
                {
                    "name": "E2",
                    "midi": 40,
                    "time": 217.68344999999997,
                    "velocity": 0.3228346456692913,
                    "duration": 0.8062349999999867
                },
                {
                    "name": "E3",
                    "midi": 52,
                    "time": 217.68344999999997,
                    "velocity": 0.3937007874015748,
                    "duration": 0.8062349999999867
                },
                {
                    "name": "G#2",
                    "midi": 44,
                    "time": 217.68344999999997,
                    "velocity": 0.3228346456692913,
                    "duration": 1.6124700000000018
                },
                {
                    "name": "C#2",
                    "midi": 37,
                    "time": 218.48968499999995,
                    "velocity": 0.3228346456692913,
                    "duration": 0.8062350000000151
                },
                {
                    "name": "C#3",
                    "midi": 49,
                    "time": 218.48968499999995,
                    "velocity": 0.3937007874015748,
                    "duration": 0.8062350000000151
                },
                {
                    "name": "G#1",
                    "midi": 32,
                    "time": 219.29591999999997,
                    "velocity": 0.3937007874015748,
                    "duration": 3.2249400000000037
                },
                {
                    "name": "G#2",
                    "midi": 44,
                    "time": 219.29591999999997,
                    "velocity": 0.47244094488188976,
                    "duration": 3.2249400000000037
                },
                {
                    "name": "C#2",
                    "midi": 37,
                    "time": 222.52085999999997,
                    "velocity": 0.4566929133858268,
                    "duration": 1.6124700000000303
                },
                {
                    "name": "G#2",
                    "midi": 44,
                    "time": 222.52085999999997,
                    "velocity": 0.5433070866141733,
                    "duration": 1.6124700000000303
                },
                {
                    "name": "G#2",
                    "midi": 44,
                    "time": 224.13333,
                    "velocity": 0.4015748031496063,
                    "duration": 1.6124699999999734
                },
                {
                    "name": "G#3",
                    "midi": 56,
                    "time": 224.13333,
                    "velocity": 0.48031496062992124,
                    "duration": 1.6124699999999734
                },
                {
                    "name": "F2",
                    "midi": 41,
                    "time": 225.74579999999997,
                    "velocity": 0.4566929133858268,
                    "duration": 1.6124700000000018
                },
                {
                    "name": "F3",
                    "midi": 53,
                    "time": 225.74579999999997,
                    "velocity": 0.5433070866141733,
                    "duration": 1.6124700000000018
                },
                {
                    "name": "F#2",
                    "midi": 42,
                    "time": 227.35826999999998,
                    "velocity": 0.4015748031496063,
                    "duration": 1.6124700000000303
                },
                {
                    "name": "F#3",
                    "midi": 54,
                    "time": 227.35826999999998,
                    "velocity": 0.4881889763779528,
                    "duration": 1.6124700000000303
                },
                {
                    "name": "C2",
                    "midi": 36,
                    "time": 228.97074,
                    "velocity": 0.4094488188976378,
                    "duration": 1.6124700000000018
                },
                {
                    "name": "C3",
                    "midi": 48,
                    "time": 228.97074,
                    "velocity": 0.4645669291338583,
                    "duration": 1.6124700000000018
                },
                {
                    "name": "C#2",
                    "midi": 37,
                    "time": 230.58321,
                    "velocity": 0.3464566929133858,
                    "duration": 1.6124699999999734
                },
                {
                    "name": "C#3",
                    "midi": 49,
                    "time": 230.58321,
                    "velocity": 0.4094488188976378,
                    "duration": 1.6124699999999734
                },
                {
                    "name": "G#1",
                    "midi": 32,
                    "time": 232.19567999999998,
                    "velocity": 0.33070866141732286,
                    "duration": 2.418705000000017
                },
                {
                    "name": "G#2",
                    "midi": 44,
                    "time": 232.19567999999998,
                    "velocity": 0.4330708661417323,
                    "duration": 2.418705000000017
                },
                {
                    "name": "C#2",
                    "midi": 37,
                    "time": 234.614385,
                    "velocity": 0.36220472440944884,
                    "duration": 0.8062350000000151
                },
                {
                    "name": "G#2",
                    "midi": 44,
                    "time": 234.614385,
                    "velocity": 0.47244094488188976,
                    "duration": 0.8062350000000151
                },
                {
                    "name": "G#1",
                    "midi": 32,
                    "time": 235.42062,
                    "velocity": 0.33070866141732286,
                    "duration": 2.418705000000017
                },
                {
                    "name": "G#2",
                    "midi": 44,
                    "time": 235.42062,
                    "velocity": 0.3937007874015748,
                    "duration": 2.418705000000017
                },
                {
                    "name": "C#2",
                    "midi": 37,
                    "time": 237.83932500000003,
                    "velocity": 0.33070866141732286,
                    "duration": 0.8062350000000151
                },
                {
                    "name": "G#2",
                    "midi": 44,
                    "time": 237.83932500000003,
                    "velocity": 0.4015748031496063,
                    "duration": 0.8062350000000151
                },
                {
                    "name": "G#1",
                    "midi": 32,
                    "time": 238.64556000000005,
                    "velocity": 0.3228346456692913,
                    "duration": 2.418705000000074
                },
                {
                    "name": "G#2",
                    "midi": 44,
                    "time": 238.64556000000005,
                    "velocity": 0.3858267716535433,
                    "duration": 0.8062350000000151
                },
                {
                    "name": "G#2",
                    "midi": 44,
                    "time": 239.45179500000006,
                    "velocity": 0.3464566929133858,
                    "duration": 0.8062350000000151
                },
                {
                    "name": "F3",
                    "midi": 53,
                    "time": 240.66114750000008,
                    "velocity": 0.25984251968503935,
                    "duration": 0.403117500000036
                },
                {
                    "name": "F#3",
                    "midi": 54,
                    "time": 241.06426500000012,
                    "velocity": 0.29133858267716534,
                    "duration": 0.40311750000000757
                },
                {
                    "name": "D#3",
                    "midi": 51,
                    "time": 241.46738250000013,
                    "velocity": 0.2677165354330709,
                    "duration": 0.403117500000036
                },
                {
                    "name": "C#3",
                    "midi": 49,
                    "time": 241.87050000000016,
                    "velocity": 0.2755905511811024,
                    "duration": 0.40311750000000757
                },
                {
                    "name": "G#3",
                    "midi": 56,
                    "time": 242.27361750000017,
                    "velocity": 0.23622047244094488,
                    "duration": 0.40311750000000757
                },
                {
                    "name": "F4",
                    "midi": 65,
                    "time": 242.67673500000018,
                    "velocity": 0.2047244094488189,
                    "duration": 2.4187050000000454
                },
                {
                    "name": "C#4",
                    "midi": 61,
                    "time": 242.67673500000018,
                    "velocity": 0.13385826771653545,
                    "duration": 2.4187050000000454
                },
                {
                    "name": "G#3",
                    "midi": 56,
                    "time": 243.0798525000002,
                    "velocity": 0.14960629921259844,
                    "duration": 0.3829616250000072
                },
                {
                    "name": "G#3",
                    "midi": 56,
                    "time": 243.4829700000002,
                    "velocity": 0.18110236220472442,
                    "duration": 0.3829616250000072
                },
                {
                    "name": "G#3",
                    "midi": 56,
                    "time": 243.8860875000002,
                    "velocity": 0.14960629921259844,
                    "duration": 0.3829616250000072
                },
                {
                    "name": "G#3",
                    "midi": 56,
                    "time": 244.2892050000002,
                    "velocity": 0.2125984251968504,
                    "duration": 0.3829616250000072
                },
                {
                    "name": "G#3",
                    "midi": 56,
                    "time": 244.69232250000022,
                    "velocity": 0.2204724409448819,
                    "duration": 0.3829616250000072
                },
                {
                    "name": "F#4",
                    "midi": 66,
                    "time": 245.09544000000022,
                    "velocity": 0.2755905511811024,
                    "duration": 2.418705000000017
                },
                {
                    "name": "D#4",
                    "midi": 63,
                    "time": 245.09544000000022,
                    "velocity": 0.2755905511811024,
                    "duration": 2.418705000000017
                },
                {
                    "name": "G#3",
                    "midi": 56,
                    "time": 245.49855750000023,
                    "velocity": 0.2047244094488189,
                    "duration": 0.3829616250000072
                },
                {
                    "name": "G#3",
                    "midi": 56,
                    "time": 245.90167500000024,
                    "velocity": 0.2204724409448819,
                    "duration": 0.3829616250000072
                },
                {
                    "name": "G#3",
                    "midi": 56,
                    "time": 246.30479250000025,
                    "velocity": 0.25196850393700787,
                    "duration": 0.3829616250000072
                },
                {
                    "name": "A#3",
                    "midi": 58,
                    "time": 246.70791000000025,
                    "velocity": 0.2755905511811024,
                    "duration": 0.40311749999997915
                },
                {
                    "name": "G#3",
                    "midi": 56,
                    "time": 247.11102750000023,
                    "velocity": 0.25196850393700787,
                    "duration": 0.40311750000000757
                },
                {
                    "name": "F4",
                    "midi": 65,
                    "time": 247.51414500000024,
                    "velocity": 0.2755905511811024,
                    "duration": 0.40311750000000757
                },
                {
                    "name": "C#4",
                    "midi": 61,
                    "time": 247.51414500000024,
                    "velocity": 0.2755905511811024,
                    "duration": 0.40311750000000757
                },
                {
                    "name": "G#3",
                    "midi": 56,
                    "time": 247.91726250000025,
                    "velocity": 0.2440944881889764,
                    "duration": 0.40311750000000757
                },
                {
                    "name": "G#3",
                    "midi": 56,
                    "time": 248.7234975000003,
                    "velocity": 0.25196850393700787,
                    "duration": 0.8062350000000151
                },
                {
                    "name": "G#3",
                    "midi": 56,
                    "time": 249.5297325000003,
                    "velocity": 0.2755905511811024,
                    "duration": 0.3829616250000072
                },
                {
                    "name": "G#3",
                    "midi": 56,
                    "time": 249.93285000000031,
                    "velocity": 0.25196850393700787,
                    "duration": 0.3829616250000072
                },
                {
                    "name": "G#3",
                    "midi": 56,
                    "time": 250.33596750000032,
                    "velocity": 0.25196850393700787,
                    "duration": 0.8062349999999867
                },
                {
                    "name": "G#3",
                    "midi": 56,
                    "time": 251.1422025000003,
                    "velocity": 0.2283464566929134,
                    "duration": 0.40311750000000757
                },
                {
                    "name": "G#3",
                    "midi": 56,
                    "time": 251.94843750000032,
                    "velocity": 0.2440944881889764,
                    "duration": 0.40311750000000757
                },
                {
                    "name": "G#3",
                    "midi": 56,
                    "time": 252.7546725000003,
                    "velocity": 0.2440944881889764,
                    "duration": 0.40311750000000757
                },
                {
                    "name": "F4",
                    "midi": 65,
                    "time": 253.15779000000032,
                    "velocity": 0.2755905511811024,
                    "duration": 0.40311750000000757
                },
                {
                    "name": "C#4",
                    "midi": 61,
                    "time": 253.15779000000032,
                    "velocity": 0.2283464566929134,
                    "duration": 0.40311750000000757
                },
                {
                    "name": "G#3",
                    "midi": 56,
                    "time": 253.56090750000033,
                    "velocity": 0.2440944881889764,
                    "duration": 0.40311750000000757
                },
                {
                    "name": "F#4",
                    "midi": 66,
                    "time": 253.96402500000033,
                    "velocity": 0.25196850393700787,
                    "duration": 0.40311750000000757
                },
                {
                    "name": "C4",
                    "midi": 60,
                    "time": 253.96402500000033,
                    "velocity": 0.2125984251968504,
                    "duration": 0.40311750000000757
                },
                {
                    "name": "G#3",
                    "midi": 56,
                    "time": 254.36714250000034,
                    "velocity": 0.2440944881889764,
                    "duration": 0.40311750000000757
                },
                {
                    "name": "C#3",
                    "midi": 49,
                    "time": 254.77026000000035,
                    "velocity": 0.2755905511811024,
                    "duration": 0.40311750000000757
                },
                {
                    "name": "G#3",
                    "midi": 56,
                    "time": 255.17337750000036,
                    "velocity": 0.23622047244094488,
                    "duration": 0.40311750000000757
                },
                {
                    "name": "F4",
                    "midi": 65,
                    "time": 255.57649500000036,
                    "velocity": 0.2047244094488189,
                    "duration": 2.4187050000000454
                },
                {
                    "name": "C#4",
                    "midi": 61,
                    "time": 255.57649500000036,
                    "velocity": 0.14173228346456693,
                    "duration": 2.4187050000000454
                },
                {
                    "name": "G#3",
                    "midi": 56,
                    "time": 255.97961250000037,
                    "velocity": 0.15748031496062992,
                    "duration": 0.3829616250000072
                },
                {
                    "name": "G#3",
                    "midi": 56,
                    "time": 256.3827300000004,
                    "velocity": 0.1889763779527559,
                    "duration": 0.3829616250000072
                },
                {
                    "name": "G#3",
                    "midi": 56,
                    "time": 256.7858475000004,
                    "velocity": 0.16535433070866143,
                    "duration": 0.3829616250000072
                },
                {
                    "name": "G#3",
                    "midi": 56,
                    "time": 257.1889650000004,
                    "velocity": 0.23622047244094488,
                    "duration": 0.3829616250000072
                },
                {
                    "name": "G#3",
                    "midi": 56,
                    "time": 257.5920825000004,
                    "velocity": 0.2204724409448819,
                    "duration": 0.3829616250000072
                },
                {
                    "name": "F#4",
                    "midi": 66,
                    "time": 257.9952000000004,
                    "velocity": 0.2755905511811024,
                    "duration": 0.40311750000000757
                },
                {
                    "name": "D#4",
                    "midi": 63,
                    "time": 257.9952000000004,
                    "velocity": 0.2755905511811024,
                    "duration": 0.40311750000000757
                },
                {
                    "name": "G#3",
                    "midi": 56,
                    "time": 258.3983175000004,
                    "velocity": 0.2440944881889764,
                    "duration": 0.3829616250000072
                },
                {
                    "name": "G#3",
                    "midi": 56,
                    "time": 258.8014350000004,
                    "velocity": 0.2283464566929134,
                    "duration": 0.3829616250000072
                },
                {
                    "name": "G#3",
                    "midi": 56,
                    "time": 259.20455250000043,
                    "velocity": 0.25984251968503935,
                    "duration": 0.3829616250000072
                },
                {
                    "name": "A#3",
                    "midi": 58,
                    "time": 259.60767000000044,
                    "velocity": 0.2992125984251969,
                    "duration": 0.40311750000000757
                },
                {
                    "name": "G#3",
                    "midi": 56,
                    "time": 260.01078750000045,
                    "velocity": 0.2755905511811024,
                    "duration": 0.40311750000000757
                },
                {
                    "name": "G#2",
                    "midi": 44,
                    "time": 267.6700200000005,
                    "velocity": 0.28346456692913385,
                    "duration": 3.2249400000001174
                },
                {
                    "name": "G#3",
                    "midi": 56,
                    "time": 268.07313750000054,
                    "velocity": 0.2283464566929134,
                    "duration": 0.3829616250000072
                },
                {
                    "name": "G#3",
                    "midi": 56,
                    "time": 268.47625500000055,
                    "velocity": 0.2283464566929134,
                    "duration": 0.3829616250000072
                },
                {
                    "name": "G#3",
                    "midi": 56,
                    "time": 268.87937250000056,
                    "velocity": 0.2283464566929134,
                    "duration": 0.3829616250000072
                },
                {
                    "name": "G#3",
                    "midi": 56,
                    "time": 269.28249000000056,
                    "velocity": 0.2283464566929134,
                    "duration": 0.3829616250000072
                },
                {
                    "name": "G#3",
                    "midi": 56,
                    "time": 269.6856075000006,
                    "velocity": 0.2283464566929134,
                    "duration": 0.3829616250000072
                },
                {
                    "name": "G#3",
                    "midi": 56,
                    "time": 270.0887250000006,
                    "velocity": 0.2283464566929134,
                    "duration": 0.3829616250000072
                },
                {
                    "name": "G#3",
                    "midi": 56,
                    "time": 270.4918425000006,
                    "velocity": 0.2283464566929134,
                    "duration": 0.3829616250000072
                },
                {
                    "name": "G#3",
                    "midi": 56,
                    "time": 270.8949600000006,
                    "velocity": 0.28346456692913385,
                    "duration": 0.3829616250000072
                },
                {
                    "name": "C#3",
                    "midi": 49,
                    "time": 270.8949600000006,
                    "velocity": 0.28346456692913385,
                    "duration": 3.2249400000000605
                },
                {
                    "name": "G#3",
                    "midi": 56,
                    "time": 271.2980775000006,
                    "velocity": 0.2283464566929134,
                    "duration": 0.3829616250000072
                },
                {
                    "name": "G#3",
                    "midi": 56,
                    "time": 271.7011950000006,
                    "velocity": 0.2283464566929134,
                    "duration": 0.3829616250000072
                },
                {
                    "name": "G#3",
                    "midi": 56,
                    "time": 272.1043125000006,
                    "velocity": 0.2283464566929134,
                    "duration": 0.3829616250000072
                },
                {
                    "name": "G#3",
                    "midi": 56,
                    "time": 272.5074300000006,
                    "velocity": 0.2283464566929134,
                    "duration": 0.3829616250000072
                },
                {
                    "name": "G#3",
                    "midi": 56,
                    "time": 272.91054750000063,
                    "velocity": 0.2283464566929134,
                    "duration": 0.3829616250000072
                },
                {
                    "name": "G#3",
                    "midi": 56,
                    "time": 273.31366500000064,
                    "velocity": 0.2283464566929134,
                    "duration": 0.3829616250000072
                },
                {
                    "name": "G#3",
                    "midi": 56,
                    "time": 273.71678250000065,
                    "velocity": 0.2283464566929134,
                    "duration": 0.3829616250000072
                },
                {
                    "name": "G#3",
                    "midi": 56,
                    "time": 274.11990000000065,
                    "velocity": 0.28346456692913385,
                    "duration": 0.3829616250000072
                },
                {
                    "name": "G#2",
                    "midi": 44,
                    "time": 274.11990000000065,
                    "velocity": 0.28346456692913385,
                    "duration": 3.2249400000000605
                },
                {
                    "name": "G#3",
                    "midi": 56,
                    "time": 274.52301750000066,
                    "velocity": 0.2283464566929134,
                    "duration": 0.3829616250000072
                },
                {
                    "name": "G#3",
                    "midi": 56,
                    "time": 274.92613500000067,
                    "velocity": 0.2283464566929134,
                    "duration": 0.3829616250000072
                },
                {
                    "name": "G#3",
                    "midi": 56,
                    "time": 275.3292525000007,
                    "velocity": 0.2283464566929134,
                    "duration": 0.3829616250000072
                },
                {
                    "name": "G#3",
                    "midi": 56,
                    "time": 275.7323700000007,
                    "velocity": 0.2125984251968504,
                    "duration": 0.3829616250000072
                },
                {
                    "name": "G#3",
                    "midi": 56,
                    "time": 276.1354875000007,
                    "velocity": 0.2125984251968504,
                    "duration": 0.3829616250000072
                },
                {
                    "name": "G#3",
                    "midi": 56,
                    "time": 276.5386050000007,
                    "velocity": 0.2047244094488189,
                    "duration": 0.3829616250000072
                },
                {
                    "name": "G#3",
                    "midi": 56,
                    "time": 276.9417225000007,
                    "velocity": 0.2047244094488189,
                    "duration": 0.3829616250000072
                },
                {
                    "name": "G#3",
                    "midi": 56,
                    "time": 277.3448400000007,
                    "velocity": 0.2047244094488189,
                    "duration": 0.3829616250000072
                },
                {
                    "name": "G#2",
                    "midi": 44,
                    "time": 277.3448400000007,
                    "velocity": 0.2283464566929134,
                    "duration": 3.2249400000000605
                },
                {
                    "name": "G#3",
                    "midi": 56,
                    "time": 277.7479575000007,
                    "velocity": 0.2047244094488189,
                    "duration": 0.3829616250000072
                },
                {
                    "name": "G#3",
                    "midi": 56,
                    "time": 278.15107500000073,
                    "velocity": 0.2047244094488189,
                    "duration": 0.3829616250000072
                },
                {
                    "name": "G#3",
                    "midi": 56,
                    "time": 278.55419250000074,
                    "velocity": 0.2047244094488189,
                    "duration": 0.3829616250000072
                },
                {
                    "name": "G#3",
                    "midi": 56,
                    "time": 278.95731000000075,
                    "velocity": 0.2047244094488189,
                    "duration": 0.3829616250000072
                },
                {
                    "name": "G#3",
                    "midi": 56,
                    "time": 279.36042750000075,
                    "velocity": 0.2047244094488189,
                    "duration": 0.3829616250000072
                },
                {
                    "name": "G#3",
                    "midi": 56,
                    "time": 279.76354500000076,
                    "velocity": 0.2047244094488189,
                    "duration": 0.3829616250000072
                },
                {
                    "name": "G#3",
                    "midi": 56,
                    "time": 280.16666250000077,
                    "velocity": 0.2047244094488189,
                    "duration": 0.3829616250000072
                },
                {
                    "name": "G#3",
                    "midi": 56,
                    "time": 280.5697800000008,
                    "velocity": 0.2047244094488189,
                    "duration": 0.3829616250000072
                },
                {
                    "name": "C#3",
                    "midi": 49,
                    "time": 280.5697800000008,
                    "velocity": 0.23622047244094488,
                    "duration": 1.6124700000000303
                },
                {
                    "name": "G#3",
                    "midi": 56,
                    "time": 280.9728975000008,
                    "velocity": 0.2047244094488189,
                    "duration": 0.3829616250000072
                },
                {
                    "name": "G#3",
                    "midi": 56,
                    "time": 281.3760150000008,
                    "velocity": 0.2047244094488189,
                    "duration": 0.3829616250000072
                },
                {
                    "name": "G#3",
                    "midi": 56,
                    "time": 281.7791325000008,
                    "velocity": 0.2047244094488189,
                    "duration": 0.3829616250000072
                },
                {
                    "name": "G#3",
                    "midi": 56,
                    "time": 282.1822500000008,
                    "velocity": 0.2047244094488189,
                    "duration": 0.3829616250000072
                },
                {
                    "name": "G#2",
                    "midi": 44,
                    "time": 282.1822500000008,
                    "velocity": 0.2047244094488189,
                    "duration": 1.6124700000000303
                },
                {
                    "name": "G#3",
                    "midi": 56,
                    "time": 282.5853675000008,
                    "velocity": 0.2047244094488189,
                    "duration": 0.3829616250000072
                },
                {
                    "name": "G#3",
                    "midi": 56,
                    "time": 282.9884850000008,
                    "velocity": 0.2047244094488189,
                    "duration": 0.3829616250000072
                },
                {
                    "name": "G#3",
                    "midi": 56,
                    "time": 283.39160250000083,
                    "velocity": 0.2047244094488189,
                    "duration": 0.3796023125000261
                },
                {
                    "name": "C#2",
                    "midi": 37,
                    "time": 283.79472000000084,
                    "velocity": 0.1889763779527559,
                    "duration": 3.2249400000000037
                }
            ],
            "controlChanges": {
                "7": [
                    {
                        "number": 7,
                        "time": 0,
                        "value": 0.7874015748031497
                    }
                ],
                "10": [
                    {
                        "number": 10,
                        "time": 0,
                        "value": 0.5039370078740157
                    }
                ],
                "64": [
                    {
                        "number": 64,
                        "time": 0.11925559375000001,
                        "value": 1
                    },
                    {
                        "number": 64,
                        "time": 0.81799259375,
                        "value": 0
                    },
                    {
                        "number": 64,
                        "time": 0.9372481875,
                        "value": 1
                    },
                    {
                        "number": 64,
                        "time": 2.44389984375,
                        "value": 0
                    },
                    {
                        "number": 64,
                        "time": 2.6085061562500003,
                        "value": 1
                    },
                    {
                        "number": 64,
                        "time": 3.23837725,
                        "value": 0
                    },
                    {
                        "number": 64,
                        "time": 3.486966375,
                        "value": 1
                    },
                    {
                        "number": 64,
                        "time": 4.852526906250001,
                        "value": 0
                    },
                    {
                        "number": 64,
                        "time": 5.835125812500001,
                        "value": 1
                    },
                    {
                        "number": 64,
                        "time": 6.464996906250002,
                        "value": 0
                    },
                    {
                        "number": 64,
                        "time": 6.627923562500002,
                        "value": 1
                    },
                    {
                        "number": 64,
                        "time": 7.281309843750003,
                        "value": 0
                    },
                    {
                        "number": 64,
                        "time": 7.504704125000003,
                        "value": 1
                    },
                    {
                        "number": 64,
                        "time": 8.878662937500003,
                        "value": 0
                    },
                    {
                        "number": 64,
                        "time": 9.058386156250004,
                        "value": 1
                    },
                    {
                        "number": 64,
                        "time": 9.689936906250004,
                        "value": 0
                    },
                    {
                        "number": 64,
                        "time": 9.958681906250003,
                        "value": 1
                    },
                    {
                        "number": 64,
                        "time": 10.506249843750004,
                        "value": 0
                    },
                    {
                        "number": 64,
                        "time": 10.635583375000003,
                        "value": 1
                    },
                    {
                        "number": 64,
                        "time": 11.310805187500003,
                        "value": 0
                    },
                    {
                        "number": 64,
                        "time": 11.406545593750003,
                        "value": 1
                    },
                    {
                        "number": 64,
                        "time": 11.697126125000002,
                        "value": 0
                    },
                    {
                        "number": 64,
                        "time": 12.904798968750002,
                        "value": 0
                    },
                    {
                        "number": 64,
                        "time": 13.066045968750002,
                        "value": 1
                    },
                    {
                        "number": 64,
                        "time": 13.731189843750004,
                        "value": 0
                    },
                    {
                        "number": 64,
                        "time": 13.931068937500005,
                        "value": 1
                    },
                    {
                        "number": 64,
                        "time": 15.343659843750006,
                        "value": 0
                    },
                    {
                        "number": 64,
                        "time": 15.508266156250006,
                        "value": 1
                    },
                    {
                        "number": 64,
                        "time": 16.133098281250003,
                        "value": 0
                    },
                    {
                        "number": 64,
                        "time": 16.457271937500003,
                        "value": 1
                    },
                    {
                        "number": 64,
                        "time": 17.752286906250006,
                        "value": 0
                    },
                    {
                        "number": 64,
                        "time": 18.734885812500007,
                        "value": 1
                    },
                    {
                        "number": 64,
                        "time": 19.359717937500008,
                        "value": 0
                    },
                    {
                        "number": 64,
                        "time": 19.52768356250001,
                        "value": 1
                    },
                    {
                        "number": 64,
                        "time": 20.174351218750008,
                        "value": 0
                    },
                    {
                        "number": 64,
                        "time": 20.404464125000008,
                        "value": 1
                    },
                    {
                        "number": 64,
                        "time": 21.79186018750001,
                        "value": 0
                    },
                    {
                        "number": 64,
                        "time": 21.99341893750001,
                        "value": 1
                    },
                    {
                        "number": 64,
                        "time": 22.57458000000001,
                        "value": 0
                    },
                    {
                        "number": 64,
                        "time": 22.85844190625001,
                        "value": 1
                    },
                    {
                        "number": 64,
                        "time": 23.406009843750013,
                        "value": 0
                    },
                    {
                        "number": 64,
                        "time": 23.71338693750001,
                        "value": 1
                    },
                    {
                        "number": 64,
                        "time": 24.212244843750014,
                        "value": 0
                    },
                    {
                        "number": 64,
                        "time": 24.423881531250014,
                        "value": 1
                    },
                    {
                        "number": 64,
                        "time": 25.001683281250013,
                        "value": 0
                    },
                    {
                        "number": 64,
                        "time": 25.915416281250014,
                        "value": 1
                    },
                    {
                        "number": 64,
                        "time": 27.437184843750014,
                        "value": 0
                    },
                    {
                        "number": 64,
                        "time": 27.662258781250014,
                        "value": 1
                    },
                    {
                        "number": 64,
                        "time": 28.233341906250015,
                        "value": 0
                    },
                    {
                        "number": 64,
                        "time": 28.468493781250015,
                        "value": 1
                    },
                    {
                        "number": 64,
                        "time": 29.039576906250016,
                        "value": 0
                    },
                    {
                        "number": 64,
                        "time": 29.310001562500016,
                        "value": 1
                    },
                    {
                        "number": 64,
                        "time": 29.845811906250017,
                        "value": 0
                    },
                    {
                        "number": 64,
                        "time": 30.044011343750018,
                        "value": 1
                    },
                    {
                        "number": 64,
                        "time": 30.652046906250018,
                        "value": 0
                    },
                    {
                        "number": 64,
                        "time": 30.922471562500018,
                        "value": 1
                    },
                    {
                        "number": 64,
                        "time": 32.27291518750002,
                        "value": 0
                    },
                    {
                        "number": 64,
                        "time": 32.41568596875002,
                        "value": 1
                    },
                    {
                        "number": 64,
                        "time": 33.072431562500014,
                        "value": 0
                    },
                    {
                        "number": 64,
                        "time": 33.149695750000014,
                        "value": 1
                    },
                    {
                        "number": 64,
                        "time": 33.87530725000002,
                        "value": 0
                    },
                    {
                        "number": 64,
                        "time": 33.96936800000002,
                        "value": 1
                    },
                    {
                        "number": 64,
                        "time": 34.684901562500016,
                        "value": 0
                    },
                    {
                        "number": 64,
                        "time": 34.79071990625002,
                        "value": 1
                    },
                    {
                        "number": 64,
                        "time": 35.48945690625002,
                        "value": 0
                    },
                    {
                        "number": 64,
                        "time": 35.66582081250002,
                        "value": 1
                    },
                    {
                        "number": 64,
                        "time": 37.100247250000024,
                        "value": 0
                    },
                    {
                        "number": 64,
                        "time": 37.33707878125002,
                        "value": 1
                    },
                    {
                        "number": 64,
                        "time": 37.911521218750025,
                        "value": 0
                    },
                    {
                        "number": 64,
                        "time": 38.14331378125002,
                        "value": 1
                    },
                    {
                        "number": 64,
                        "time": 38.70599862500002,
                        "value": 0
                    },
                    {
                        "number": 64,
                        "time": 38.98650121875002,
                        "value": 1
                    },
                    {
                        "number": 64,
                        "time": 41.143179843750026,
                        "value": 0
                    },
                    {
                        "number": 64,
                        "time": 41.47407212500003,
                        "value": 1
                    },
                    {
                        "number": 64,
                        "time": 41.93429793750003,
                        "value": 0
                    },
                    {
                        "number": 64,
                        "time": 42.13753634375003,
                        "value": 1
                    },
                    {
                        "number": 64,
                        "time": 42.747251562500026,
                        "value": 0
                    },
                    {
                        "number": 64,
                        "time": 42.94377134375002,
                        "value": 1
                    },
                    {
                        "number": 64,
                        "time": 43.56188484375002,
                        "value": 0
                    },
                    {
                        "number": 64,
                        "time": 43.89277712500002,
                        "value": 1
                    },
                    {
                        "number": 64,
                        "time": 45.167636218750026,
                        "value": 0
                    },
                    {
                        "number": 64,
                        "time": 45.24658006250002,
                        "value": 1
                    },
                    {
                        "number": 64,
                        "time": 45.980589843750025,
                        "value": 0
                    },
                    {
                        "number": 64,
                        "time": 46.12168096875003,
                        "value": 1
                    },
                    {
                        "number": 64,
                        "time": 46.77506725000003,
                        "value": 0
                    },
                    {
                        "number": 64,
                        "time": 46.88592456250003,
                        "value": 1
                    },
                    {
                        "number": 64,
                        "time": 47.58466156250003,
                        "value": 0
                    },
                    {
                        "number": 64,
                        "time": 47.67872231250003,
                        "value": 1
                    },
                    {
                        "number": 64,
                        "time": 48.38753725000003,
                        "value": 0
                    },
                    {
                        "number": 64,
                        "time": 48.63612637500003,
                        "value": 1
                    },
                    {
                        "number": 64,
                        "time": 49.19881121875004,
                        "value": 0
                    },
                    {
                        "number": 64,
                        "time": 49.440681718750035,
                        "value": 1
                    },
                    {
                        "number": 64,
                        "time": 50.006725875000036,
                        "value": 0
                    },
                    {
                        "number": 64,
                        "time": 50.246916718750036,
                        "value": 1
                    },
                    {
                        "number": 64,
                        "time": 50.809601562500035,
                        "value": 0
                    },
                    {
                        "number": 64,
                        "time": 50.982606156250036,
                        "value": 1
                    },
                    {
                        "number": 64,
                        "time": 51.61247725000004,
                        "value": 0
                    },
                    {
                        "number": 64,
                        "time": 51.67294487500004,
                        "value": 1
                    },
                    {
                        "number": 64,
                        "time": 52.43214950000004,
                        "value": 0
                    },
                    {
                        "number": 64,
                        "time": 52.524530593750036,
                        "value": 1
                    },
                    {
                        "number": 64,
                        "time": 53.23670484375004,
                        "value": 0
                    },
                    {
                        "number": 64,
                        "time": 53.37779596875004,
                        "value": 1
                    },
                    {
                        "number": 64,
                        "time": 54.04126018750004,
                        "value": 0
                    },
                    {
                        "number": 64,
                        "time": 54.20754615625005,
                        "value": 1
                    },
                    {
                        "number": 64,
                        "time": 54.83909690625005,
                        "value": 0
                    },
                    {
                        "number": 64,
                        "time": 55.086006375000046,
                        "value": 1
                    },
                    {
                        "number": 64,
                        "time": 55.65540984375005,
                        "value": 0
                    },
                    {
                        "number": 64,
                        "time": 55.86704653125005,
                        "value": 1
                    },
                    {
                        "number": 64,
                        "time": 56.45996518750005,
                        "value": 0
                    },
                    {
                        "number": 64,
                        "time": 56.64976634375005,
                        "value": 1
                    },
                    {
                        "number": 64,
                        "time": 57.256122250000054,
                        "value": 0
                    },
                    {
                        "number": 64,
                        "time": 57.45600134375005,
                        "value": 1
                    },
                    {
                        "number": 64,
                        "time": 58.06403690625005,
                        "value": 0
                    },
                    {
                        "number": 64,
                        "time": 58.23872115625005,
                        "value": 1
                    },
                    {
                        "number": 64,
                        "time": 59.68490518750006,
                        "value": 0
                    },
                    {
                        "number": 64,
                        "time": 59.82767596875006,
                        "value": 1
                    },
                    {
                        "number": 64,
                        "time": 60.487780875000055,
                        "value": 0
                    },
                    {
                        "number": 64,
                        "time": 60.657426156250054,
                        "value": 1
                    },
                    {
                        "number": 64,
                        "time": 61.29233621875006,
                        "value": 0
                    },
                    {
                        "number": 64,
                        "time": 61.45190356250006,
                        "value": 1
                    },
                    {
                        "number": 64,
                        "time": 62.091852593750055,
                        "value": 0
                    },
                    {
                        "number": 64,
                        "time": 62.21110818750005,
                        "value": 1
                    },
                    {
                        "number": 64,
                        "time": 63.71775984375005,
                        "value": 0
                    },
                    {
                        "number": 64,
                        "time": 63.88236615625005,
                        "value": 1
                    },
                    {
                        "number": 64,
                        "time": 64.51727621875004,
                        "value": 0
                    },
                    {
                        "number": 64,
                        "time": 64.85488712500005,
                        "value": 1
                    },
                    {
                        "number": 64,
                        "time": 66.12638690625003,
                        "value": 0
                    },
                    {
                        "number": 64,
                        "time": 67.10898581250002,
                        "value": 1
                    },
                    {
                        "number": 64,
                        "time": 67.74053656250003,
                        "value": 0
                    },
                    {
                        "number": 64,
                        "time": 67.90178356250003,
                        "value": 1
                    },
                    {
                        "number": 64,
                        "time": 68.55516984375002,
                        "value": 0
                    },
                    {
                        "number": 64,
                        "time": 68.71977615625002,
                        "value": 1
                    },
                    {
                        "number": 64,
                        "time": 70.1659601875,
                        "value": 0
                    },
                    {
                        "number": 64,
                        "time": 70.37927653125,
                        "value": 1
                    },
                    {
                        "number": 64,
                        "time": 70.94868,
                        "value": 0
                    },
                    {
                        "number": 64,
                        "time": 71.15023875,
                        "value": 1
                    },
                    {
                        "number": 64,
                        "time": 71.77003190625,
                        "value": 0
                    },
                    {
                        "number": 64,
                        "time": 71.909443375,
                        "value": 1
                    },
                    {
                        "number": 64,
                        "time": 72.56618896874998,
                        "value": 0
                    },
                    {
                        "number": 64,
                        "time": 72.64345315624999,
                        "value": 1
                    },
                    {
                        "number": 64,
                        "time": 72.97434543749999,
                        "value": 0
                    },
                    {
                        "number": 64,
                        "time": 74.33990596874997,
                        "value": 1
                    },
                    {
                        "number": 64,
                        "time": 75.00672949999998,
                        "value": 0
                    },
                    {
                        "number": 64,
                        "time": 75.20492893749997,
                        "value": 1
                    },
                    {
                        "number": 64,
                        "time": 76.61751984374995,
                        "value": 0
                    },
                    {
                        "number": 64,
                        "time": 76.78212615624994,
                        "value": 1
                    },
                    {
                        "number": 64,
                        "time": 77.41199724999993,
                        "value": 0
                    },
                    {
                        "number": 64,
                        "time": 77.66058637499992,
                        "value": 1
                    },
                    {
                        "number": 64,
                        "time": 79.0244672499999,
                        "value": 0
                    },
                    {
                        "number": 64,
                        "time": 80.0087458124999,
                        "value": 1
                    },
                    {
                        "number": 64,
                        "time": 80.64197621874989,
                        "value": 0
                    },
                    {
                        "number": 64,
                        "time": 80.80154356249989,
                        "value": 1
                    },
                    {
                        "number": 64,
                        "time": 81.45492984374988,
                        "value": 0
                    },
                    {
                        "number": 64,
                        "time": 81.67832412499988,
                        "value": 1
                    },
                    {
                        "number": 64,
                        "time": 83.01868981249986,
                        "value": 0
                    },
                    {
                        "number": 64,
                        "time": 83.16146059374985,
                        "value": 1
                    },
                    {
                        "number": 64,
                        "time": 83.86691621874984,
                        "value": 0
                    },
                    {
                        "number": 64,
                        "time": 84.13230190624984,
                        "value": 1
                    },
                    {
                        "number": 64,
                        "time": 85.48442518749981,
                        "value": 0
                    },
                    {
                        "number": 64,
                        "time": 87.21615078124978,
                        "value": 1
                    },
                    {
                        "number": 64,
                        "time": 87.89809121874977,
                        "value": 0
                    },
                    {
                        "number": 64,
                        "time": 88.16347690624977,
                        "value": 1
                    },
                    {
                        "number": 64,
                        "time": 88.71104484374978,
                        "value": 0
                    },
                    {
                        "number": 64,
                        "time": 89.01842193749978,
                        "value": 1
                    },
                    {
                        "number": 64,
                        "time": 89.51056121874977,
                        "value": 0
                    },
                    {
                        "number": 64,
                        "time": 89.77594690624977,
                        "value": 1
                    },
                    {
                        "number": 64,
                        "time": 90.31007759374978,
                        "value": 0
                    },
                    {
                        "number": 64,
                        "time": 90.48812115624978,
                        "value": 1
                    },
                    {
                        "number": 64,
                        "time": 91.12974984374978,
                        "value": 0
                    },
                    {
                        "number": 64,
                        "time": 91.36490171874978,
                        "value": 1
                    },
                    {
                        "number": 64,
                        "time": 91.92926621874977,
                        "value": 0
                    },
                    {
                        "number": 64,
                        "time": 92.19465190624977,
                        "value": 1
                    },
                    {
                        "number": 64,
                        "time": 92.74221984374978,
                        "value": 0
                    },
                    {
                        "number": 64,
                        "time": 92.97737171874978,
                        "value": 1
                    },
                    {
                        "number": 64,
                        "time": 93.54005656249979,
                        "value": 0
                    },
                    {
                        "number": 64,
                        "time": 93.71306115624978,
                        "value": 1
                    },
                    {
                        "number": 64,
                        "time": 94.34965087499978,
                        "value": 0
                    },
                    {
                        "number": 64,
                        "time": 94.54281134374978,
                        "value": 1
                    },
                    {
                        "number": 64,
                        "time": 95.16092484374978,
                        "value": 0
                    },
                    {
                        "number": 64,
                        "time": 95.39607671874978,
                        "value": 1
                    },
                    {
                        "number": 64,
                        "time": 95.96212087499978,
                        "value": 0
                    },
                    {
                        "number": 64,
                        "time": 96.22582690624978,
                        "value": 1
                    },
                    {
                        "number": 64,
                        "time": 96.77003553124979,
                        "value": 0
                    },
                    {
                        "number": 64,
                        "time": 97.0320619062498,
                        "value": 1
                    },
                    {
                        "number": 64,
                        "time": 100.7961715624998,
                        "value": 0
                    },
                    {
                        "number": 64,
                        "time": 101.0414013749998,
                        "value": 1
                    },
                    {
                        "number": 64,
                        "time": 101.60408621874979,
                        "value": 0
                    },
                    {
                        "number": 64,
                        "time": 101.84595671874979,
                        "value": 1
                    },
                    {
                        "number": 64,
                        "time": 102.41536018749979,
                        "value": 0
                    },
                    {
                        "number": 64,
                        "time": 102.70090174999979,
                        "value": 1
                    },
                    {
                        "number": 64,
                        "time": 103.2148765624998,
                        "value": 0
                    },
                    {
                        "number": 64,
                        "time": 103.38788115624979,
                        "value": 1
                    },
                    {
                        "number": 64,
                        "time": 104.02950984374979,
                        "value": 0
                    },
                    {
                        "number": 64,
                        "time": 104.26466171874979,
                        "value": 1
                    },
                    {
                        "number": 64,
                        "time": 104.8307058749998,
                        "value": 0
                    },
                    {
                        "number": 64,
                        "time": 105.0708967187498,
                        "value": 1
                    },
                    {
                        "number": 64,
                        "time": 105.63526121874979,
                        "value": 0
                    },
                    {
                        "number": 64,
                        "time": 105.8771317187498,
                        "value": 1
                    },
                    {
                        "number": 64,
                        "time": 106.43645724999979,
                        "value": 0
                    },
                    {
                        "number": 64,
                        "time": 106.56579078124979,
                        "value": 1
                    },
                    {
                        "number": 64,
                        "time": 107.25277018749978,
                        "value": 0
                    },
                    {
                        "number": 64,
                        "time": 107.46608653124977,
                        "value": 1
                    },
                    {
                        "number": 64,
                        "time": 108.05396621874976,
                        "value": 0
                    },
                    {
                        "number": 64,
                        "time": 108.31935190624976,
                        "value": 1
                    },
                    {
                        "number": 64,
                        "time": 108.86691984374977,
                        "value": 0
                    },
                    {
                        "number": 64,
                        "time": 109.15078174999977,
                        "value": 1
                    },
                    {
                        "number": 64,
                        "time": 109.66811587499977,
                        "value": 0
                    },
                    {
                        "number": 64,
                        "time": 109.90830671874977,
                        "value": 1
                    },
                    {
                        "number": 64,
                        "time": 112.89137621874977,
                        "value": 0
                    },
                    {
                        "number": 64,
                        "time": 113.08621634374977,
                        "value": 1
                    },
                    {
                        "number": 64,
                        "time": 113.70432984374978,
                        "value": 0
                    },
                    {
                        "number": 64,
                        "time": 113.93948171874978,
                        "value": 1
                    },
                    {
                        "number": 64,
                        "time": 114.50888518749977,
                        "value": 0
                    },
                    {
                        "number": 64,
                        "time": 114.77091156249978,
                        "value": 1
                    },
                    {
                        "number": 64,
                        "time": 115.31512018749977,
                        "value": 0
                    },
                    {
                        "number": 64,
                        "time": 115.52843653124977,
                        "value": 1
                    },
                    {
                        "number": 64,
                        "time": 116.11799587499976,
                        "value": 0
                    },
                    {
                        "number": 64,
                        "time": 116.35986637499977,
                        "value": 1
                    },
                    {
                        "number": 64,
                        "time": 116.92423087499976,
                        "value": 0
                    },
                    {
                        "number": 64,
                        "time": 117.14090653124977,
                        "value": 1
                    },
                    {
                        "number": 64,
                        "time": 117.73382518749976,
                        "value": 0
                    },
                    {
                        "number": 64,
                        "time": 117.97233637499976,
                        "value": 1
                    },
                    {
                        "number": 64,
                        "time": 118.53670087499975,
                        "value": 0
                    },
                    {
                        "number": 64,
                        "time": 118.75337653124976,
                        "value": 1
                    },
                    {
                        "number": 64,
                        "time": 119.34797484374975,
                        "value": 0
                    },
                    {
                        "number": 64,
                        "time": 119.46555078124976,
                        "value": 1
                    },
                    {
                        "number": 64,
                        "time": 120.15085053124976,
                        "value": 0
                    },
                    {
                        "number": 64,
                        "time": 120.31881615624975,
                        "value": 1
                    },
                    {
                        "number": 64,
                        "time": 120.95876518749975,
                        "value": 0
                    },
                    {
                        "number": 64,
                        "time": 121.05450559374975,
                        "value": 1
                    },
                    {
                        "number": 64,
                        "time": 121.76164087499976,
                        "value": 0
                    },
                    {
                        "number": 64,
                        "time": 121.88425578124976,
                        "value": 1
                    },
                    {
                        "number": 64,
                        "time": 122.36127815624977,
                        "value": 0
                    },
                    {
                        "number": 64,
                        "time": 122.54771999999977,
                        "value": 1
                    },
                    {
                        "number": 64,
                        "time": 125.78777690624977,
                        "value": 0
                    },
                    {
                        "number": 64,
                        "time": 125.98597634374977,
                        "value": 1
                    },
                    {
                        "number": 64,
                        "time": 127.41032484374976,
                        "value": 0
                    },
                    {
                        "number": 64,
                        "time": 127.71770193749977,
                        "value": 1
                    },
                    {
                        "number": 64,
                        "time": 129.01271690624978,
                        "value": 0
                    },
                    {
                        "number": 64,
                        "time": 129.18908081249978,
                        "value": 1
                    },
                    {
                        "number": 64,
                        "time": 130.6335851874998,
                        "value": 0
                    },
                    {
                        "number": 64,
                        "time": 130.80155081249978,
                        "value": 1
                    },
                    {
                        "number": 64,
                        "time": 132.2309382812498,
                        "value": 0
                    },
                    {
                        "number": 64,
                        "time": 132.4845663749998,
                        "value": 1
                    },
                    {
                        "number": 64,
                        "time": 133.86020484374978,
                        "value": 0
                    },
                    {
                        "number": 64,
                        "time": 134.11887190624978,
                        "value": 1
                    },
                    {
                        "number": 64,
                        "time": 135.4676358749998,
                        "value": 0
                    },
                    {
                        "number": 64,
                        "time": 135.7078267187498,
                        "value": 1
                    },
                    {
                        "number": 64,
                        "time": 137.0834651874998,
                        "value": 0
                    },
                    {
                        "number": 64,
                        "time": 138.81519078124978,
                        "value": 1
                    },
                    {
                        "number": 64,
                        "time": 139.4971312187498,
                        "value": 0
                    },
                    {
                        "number": 64,
                        "time": 139.76251690624977,
                        "value": 1
                    },
                    {
                        "number": 64,
                        "time": 140.30840518749977,
                        "value": 0
                    },
                    {
                        "number": 64,
                        "time": 140.61746193749977,
                        "value": 1
                    },
                    {
                        "number": 64,
                        "time": 141.1096012187498,
                        "value": 0
                    },
                    {
                        "number": 64,
                        "time": 141.37498690624977,
                        "value": 1
                    },
                    {
                        "number": 64,
                        "time": 141.90911759374976,
                        "value": 0
                    },
                    {
                        "number": 64,
                        "time": 142.08716115624975,
                        "value": 1
                    },
                    {
                        "number": 64,
                        "time": 142.72878984374975,
                        "value": 0
                    },
                    {
                        "number": 64,
                        "time": 142.96394171874977,
                        "value": 1
                    },
                    {
                        "number": 64,
                        "time": 143.52830621874978,
                        "value": 0
                    },
                    {
                        "number": 64,
                        "time": 143.79369190624976,
                        "value": 1
                    },
                    {
                        "number": 64,
                        "time": 144.34125984374975,
                        "value": 0
                    },
                    {
                        "number": 64,
                        "time": 144.57641171874977,
                        "value": 1
                    },
                    {
                        "number": 64,
                        "time": 145.13909656249976,
                        "value": 0
                    },
                    {
                        "number": 64,
                        "time": 145.31210115624975,
                        "value": 1
                    },
                    {
                        "number": 64,
                        "time": 145.94869087499976,
                        "value": 0
                    },
                    {
                        "number": 64,
                        "time": 146.14185134374975,
                        "value": 1
                    },
                    {
                        "number": 64,
                        "time": 146.75828518749975,
                        "value": 0
                    },
                    {
                        "number": 64,
                        "time": 146.99511671874976,
                        "value": 1
                    },
                    {
                        "number": 64,
                        "time": 147.56116087499976,
                        "value": 0
                    },
                    {
                        "number": 64,
                        "time": 147.82486690624975,
                        "value": 1
                    },
                    {
                        "number": 64,
                        "time": 148.37075518749975,
                        "value": 0
                    },
                    {
                        "number": 64,
                        "time": 148.63110190624974,
                        "value": 1
                    },
                    {
                        "number": 64,
                        "time": 152.39689121874974,
                        "value": 0
                    },
                    {
                        "number": 64,
                        "time": 152.61524653124974,
                        "value": 1
                    },
                    {
                        "number": 64,
                        "time": 153.20312621874976,
                        "value": 0
                    },
                    {
                        "number": 64,
                        "time": 153.44499671874976,
                        "value": 1
                    },
                    {
                        "number": 64,
                        "time": 154.01607984374976,
                        "value": 0
                    },
                    {
                        "number": 64,
                        "time": 154.29994174999976,
                        "value": 1
                    },
                    {
                        "number": 64,
                        "time": 154.81223690624975,
                        "value": 0
                    },
                    {
                        "number": 64,
                        "time": 154.98692115624976,
                        "value": 1
                    },
                    {
                        "number": 64,
                        "time": 155.62854984374977,
                        "value": 0
                    },
                    {
                        "number": 64,
                        "time": 155.86370171874978,
                        "value": 1
                    },
                    {
                        "number": 64,
                        "time": 156.42974587499978,
                        "value": 0
                    },
                    {
                        "number": 64,
                        "time": 156.6699367187498,
                        "value": 1
                    },
                    {
                        "number": 64,
                        "time": 157.2343012187498,
                        "value": 0
                    },
                    {
                        "number": 64,
                        "time": 157.4761717187498,
                        "value": 1
                    },
                    {
                        "number": 64,
                        "time": 158.0388565624998,
                        "value": 0
                    },
                    {
                        "number": 64,
                        "time": 158.1648307812498,
                        "value": 1
                    },
                    {
                        "number": 64,
                        "time": 158.8518101874998,
                        "value": 0
                    },
                    {
                        "number": 64,
                        "time": 159.0651265312498,
                        "value": 1
                    },
                    {
                        "number": 64,
                        "time": 159.65300621874982,
                        "value": 0
                    },
                    {
                        "number": 64,
                        "time": 159.9183919062498,
                        "value": 1
                    },
                    {
                        "number": 64,
                        "time": 160.4659598437498,
                        "value": 0
                    },
                    {
                        "number": 64,
                        "time": 160.7498217499998,
                        "value": 1
                    },
                    {
                        "number": 64,
                        "time": 161.26379656249978,
                        "value": 0
                    },
                    {
                        "number": 64,
                        "time": 161.50734671874977,
                        "value": 1
                    },
                    {
                        "number": 64,
                        "time": 164.48537724999977,
                        "value": 0
                    },
                    {
                        "number": 64,
                        "time": 164.68525634374978,
                        "value": 1
                    },
                    {
                        "number": 64,
                        "time": 165.3016901874998,
                        "value": 0
                    },
                    {
                        "number": 64,
                        "time": 165.5385217187498,
                        "value": 1
                    },
                    {
                        "number": 64,
                        "time": 166.1079251874998,
                        "value": 0
                    },
                    {
                        "number": 64,
                        "time": 166.2742111562498,
                        "value": 1
                    },
                    {
                        "number": 64,
                        "time": 166.91416018749982,
                        "value": 0
                    },
                    {
                        "number": 64,
                        "time": 167.1274765312498,
                        "value": 1
                    },
                    {
                        "number": 64,
                        "time": 167.71199690624982,
                        "value": 0
                    },
                    {
                        "number": 64,
                        "time": 167.9824215624998,
                        "value": 1
                    },
                    {
                        "number": 64,
                        "time": 168.5232708749998,
                        "value": 0
                    },
                    {
                        "number": 64,
                        "time": 168.7399465312498,
                        "value": 1
                    },
                    {
                        "number": 64,
                        "time": 169.33286518749983,
                        "value": 0
                    },
                    {
                        "number": 64,
                        "time": 169.52266634374985,
                        "value": 1
                    },
                    {
                        "number": 64,
                        "time": 170.13574087499984,
                        "value": 0
                    },
                    {
                        "number": 64,
                        "time": 170.35241653124984,
                        "value": 1
                    },
                    {
                        "number": 64,
                        "time": 170.93693690624985,
                        "value": 0
                    },
                    {
                        "number": 64,
                        "time": 171.09986356249985,
                        "value": 1
                    },
                    {
                        "number": 64,
                        "time": 171.75157018749985,
                        "value": 0
                    },
                    {
                        "number": 64,
                        "time": 171.91785615624985,
                        "value": 1
                    },
                    {
                        "number": 64,
                        "time": 172.55948484374986,
                        "value": 0
                    },
                    {
                        "number": 64,
                        "time": 172.77112153124986,
                        "value": 1
                    },
                    {
                        "number": 64,
                        "time": 173.36068087499987,
                        "value": 0
                    },
                    {
                        "number": 64,
                        "time": 173.48329578124986,
                        "value": 1
                    },
                    {
                        "number": 64,
                        "time": 173.96703678124985,
                        "value": 0
                    },
                    {
                        "number": 64,
                        "time": 174.10644824999986,
                        "value": 1
                    },
                    {
                        "number": 64,
                        "time": 177.39017621874987,
                        "value": 0
                    },
                    {
                        "number": 64,
                        "time": 177.56150115624988,
                        "value": 1
                    },
                    {
                        "number": 64,
                        "time": 179.00936484374986,
                        "value": 0
                    },
                    {
                        "number": 64,
                        "time": 179.31674193749987,
                        "value": 1
                    },
                    {
                        "number": 64,
                        "time": 180.61007724999988,
                        "value": 0
                    },
                    {
                        "number": 64,
                        "time": 180.78812081249987,
                        "value": 1
                    },
                    {
                        "number": 64,
                        "time": 182.23262518749988,
                        "value": 0
                    },
                    {
                        "number": 64,
                        "time": 182.59375128124987,
                        "value": 1
                    },
                    {
                        "number": 64,
                        "time": 183.84173587499987,
                        "value": 0
                    },
                    {
                        "number": 64,
                        "time": 184.17766712499986,
                        "value": 1
                    },
                    {
                        "number": 64,
                        "time": 185.45924484374987,
                        "value": 0
                    },
                    {
                        "number": 64,
                        "time": 185.74310674999987,
                        "value": 1
                    },
                    {
                        "number": 64,
                        "time": 187.06667587499987,
                        "value": 0
                    },
                    {
                        "number": 64,
                        "time": 187.3068667187499,
                        "value": 1
                    },
                    {
                        "number": 64,
                        "time": 188.68418484374988,
                        "value": 0
                    },
                    {
                        "number": 64,
                        "time": 190.41423078124987,
                        "value": 1
                    },
                    {
                        "number": 64,
                        "time": 191.90408587499988,
                        "value": 0
                    },
                    {
                        "number": 64,
                        "time": 192.21650193749988,
                        "value": 1
                    },
                    {
                        "number": 64,
                        "time": 192.7136801874999,
                        "value": 0
                    },
                    {
                        "number": 64,
                        "time": 192.8799661562499,
                        "value": 1
                    },
                    {
                        "number": 64,
                        "time": 193.50983724999992,
                        "value": 0
                    },
                    {
                        "number": 64,
                        "time": 193.85248712499993,
                        "value": 1
                    },
                    {
                        "number": 64,
                        "time": 195.94029984374993,
                        "value": 0
                    },
                    {
                        "number": 64,
                        "time": 196.15193653124993,
                        "value": 1
                    },
                    {
                        "number": 64,
                        "time": 196.73813656249993,
                        "value": 0
                    },
                    {
                        "number": 64,
                        "time": 196.98168671874993,
                        "value": 1
                    },
                    {
                        "number": 64,
                        "time": 197.54941053124992,
                        "value": 0
                    },
                    {
                        "number": 64,
                        "time": 197.88366212499992,
                        "value": 1
                    },
                    {
                        "number": 64,
                        "time": 198.35900484374991,
                        "value": 0
                    },
                    {
                        "number": 64,
                        "time": 198.6428667499999,
                        "value": 1
                    },
                    {
                        "number": 64,
                        "time": 199.1635601874999,
                        "value": 0
                    },
                    {
                        "number": 64,
                        "time": 199.4491017499999,
                        "value": 1
                    },
                    {
                        "number": 64,
                        "time": 199.9613969062499,
                        "value": 0
                    },
                    {
                        "number": 64,
                        "time": 200.23014190624988,
                        "value": 1
                    },
                    {
                        "number": 64,
                        "time": 201.5822651874999,
                        "value": 0
                    },
                    {
                        "number": 64,
                        "time": 201.8190967187499,
                        "value": 1
                    },
                    {
                        "number": 64,
                        "time": 202.3851408749999,
                        "value": 0
                    },
                    {
                        "number": 64,
                        "time": 202.6018165312499,
                        "value": 1
                    },
                    {
                        "number": 64,
                        "time": 203.1880165624999,
                        "value": 0
                    },
                    {
                        "number": 64,
                        "time": 203.40805153124992,
                        "value": 1
                    },
                    {
                        "number": 64,
                        "time": 204.80720518749993,
                        "value": 0
                    },
                    {
                        "number": 64,
                        "time": 205.06755190624992,
                        "value": 1
                    },
                    {
                        "number": 64,
                        "time": 205.6100808749999,
                        "value": 0
                    },
                    {
                        "number": 64,
                        "time": 205.8032413437499,
                        "value": 1
                    },
                    {
                        "number": 64,
                        "time": 206.4146362187499,
                        "value": 0
                    },
                    {
                        "number": 64,
                        "time": 206.5859611562499,
                        "value": 1
                    },
                    {
                        "number": 64,
                        "time": 207.2275898437499,
                        "value": 0
                    },
                    {
                        "number": 64,
                        "time": 207.53496693749992,
                        "value": 1
                    },
                    {
                        "number": 64,
                        "time": 208.02878587499993,
                        "value": 0
                    },
                    {
                        "number": 64,
                        "time": 208.26897671874994,
                        "value": 1
                    },
                    {
                        "number": 64,
                        "time": 208.84005984374994,
                        "value": 0
                    },
                    {
                        "number": 64,
                        "time": 209.07521171874996,
                        "value": 1
                    },
                    {
                        "number": 64,
                        "time": 209.63789656249995,
                        "value": 0
                    },
                    {
                        "number": 64,
                        "time": 209.81090115624994,
                        "value": 1
                    },
                    {
                        "number": 64,
                        "time": 210.44749087499994,
                        "value": 0
                    },
                    {
                        "number": 64,
                        "time": 210.75990693749995,
                        "value": 1
                    },
                    {
                        "number": 64,
                        "time": 211.25204621874994,
                        "value": 0
                    },
                    {
                        "number": 64,
                        "time": 211.56614193749994,
                        "value": 1
                    },
                    {
                        "number": 64,
                        "time": 212.06499984374994,
                        "value": 0
                    },
                    {
                        "number": 64,
                        "time": 212.25312134374994,
                        "value": 1
                    },
                    {
                        "number": 64,
                        "time": 212.86283656249992,
                        "value": 0
                    },
                    {
                        "number": 64,
                        "time": 213.10806637499994,
                        "value": 1
                    },
                    {
                        "number": 64,
                        "time": 216.08609690624994,
                        "value": 0
                    },
                    {
                        "number": 64,
                        "time": 216.30781153124994,
                        "value": 1
                    },
                    {
                        "number": 64,
                        "time": 217.70360587499997,
                        "value": 0
                    },
                    {
                        "number": 64,
                        "time": 217.89676634374996,
                        "value": 1
                    },
                    {
                        "number": 64,
                        "time": 218.51320018749996,
                        "value": 0
                    },
                    {
                        "number": 64,
                        "time": 218.72651653124996,
                        "value": 1
                    },
                    {
                        "number": 64,
                        "time": 219.31607587499997,
                        "value": 0
                    },
                    {
                        "number": 64,
                        "time": 219.50923634374996,
                        "value": 1
                    },
                    {
                        "number": 64,
                        "time": 221.73814018749997,
                        "value": 0
                    },
                    {
                        "number": 64,
                        "time": 222.00016656249997,
                        "value": 1
                    },
                    {
                        "number": 64,
                        "time": 222.54101587499997,
                        "value": 0
                    },
                    {
                        "number": 64,
                        "time": 222.78120671874998,
                        "value": 1
                    },
                    {
                        "number": 64,
                        "time": 223.3506101875,
                        "value": 0
                    },
                    {
                        "number": 64,
                        "time": 223.49338096875,
                        "value": 1
                    },
                    {
                        "number": 64,
                        "time": 224.15852484375,
                        "value": 0
                    },
                    {
                        "number": 64,
                        "time": 224.44238675,
                        "value": 1
                    },
                    {
                        "number": 64,
                        "time": 224.9630801875,
                        "value": 0
                    },
                    {
                        "number": 64,
                        "time": 225.24862174999998,
                        "value": 1
                    },
                    {
                        "number": 64,
                        "time": 225.76427621874998,
                        "value": 0
                    },
                    {
                        "number": 64,
                        "time": 226.02966190624997,
                        "value": 1
                    },
                    {
                        "number": 64,
                        "time": 227.3817851875,
                        "value": 0
                    },
                    {
                        "number": 64,
                        "time": 227.61861671875,
                        "value": 1
                    },
                    {
                        "number": 64,
                        "time": 228.184660875,
                        "value": 0
                    },
                    {
                        "number": 64,
                        "time": 228.40133653125,
                        "value": 1
                    },
                    {
                        "number": 64,
                        "time": 228.98921621875002,
                        "value": 0
                    },
                    {
                        "number": 64,
                        "time": 229.20757153125,
                        "value": 1
                    },
                    {
                        "number": 64,
                        "time": 230.60672518750002,
                        "value": 0
                    },
                    {
                        "number": 64,
                        "time": 230.86707190625,
                        "value": 1
                    },
                    {
                        "number": 64,
                        "time": 231.409600875,
                        "value": 0
                    },
                    {
                        "number": 64,
                        "time": 231.60276134375,
                        "value": 1
                    },
                    {
                        "number": 64,
                        "time": 232.21583587499998,
                        "value": 0
                    },
                    {
                        "number": 64,
                        "time": 232.38548115625,
                        "value": 1
                    },
                    {
                        "number": 64,
                        "time": 233.82830587499998,
                        "value": 0
                    },
                    {
                        "number": 64,
                        "time": 234.06849671875,
                        "value": 1
                    },
                    {
                        "number": 64,
                        "time": 234.63957984375,
                        "value": 0
                    },
                    {
                        "number": 64,
                        "time": 234.87473171875,
                        "value": 1
                    },
                    {
                        "number": 64,
                        "time": 235.43909621875002,
                        "value": 0
                    },
                    {
                        "number": 64,
                        "time": 235.61042115625003,
                        "value": 1
                    },
                    {
                        "number": 64,
                        "time": 237.05324587500002,
                        "value": 0
                    },
                    {
                        "number": 64,
                        "time": 237.29343671875003,
                        "value": 1
                    },
                    {
                        "number": 64,
                        "time": 237.86451984375003,
                        "value": 0
                    },
                    {
                        "number": 64,
                        "time": 238.09967171875005,
                        "value": 1
                    },
                    {
                        "number": 64,
                        "time": 238.66571587500005,
                        "value": 0
                    },
                    {
                        "number": 64,
                        "time": 238.90590671875006,
                        "value": 1
                    },
                    {
                        "number": 64,
                        "time": 239.47698984375006,
                        "value": 0
                    },
                    {
                        "number": 64,
                        "time": 239.71214171875008,
                        "value": 1
                    },
                    {
                        "number": 64,
                        "time": 240.6796237187501,
                        "value": 0
                    },
                    {
                        "number": 64,
                        "time": 240.8341520937501,
                        "value": 1
                    },
                    {
                        "number": 64,
                        "time": 241.07938190625012,
                        "value": 0
                    },
                    {
                        "number": 64,
                        "time": 241.21879337500013,
                        "value": 1
                    },
                    {
                        "number": 64,
                        "time": 241.48585871875014,
                        "value": 0
                    },
                    {
                        "number": 64,
                        "time": 241.66054296875015,
                        "value": 1
                    },
                    {
                        "number": 64,
                        "time": 241.88897621875017,
                        "value": 0
                    },
                    {
                        "number": 64,
                        "time": 241.98975559375017,
                        "value": 1
                    },
                    {
                        "number": 64,
                        "time": 242.69185190625018,
                        "value": 0
                    },
                    {
                        "number": 64,
                        "time": 242.80774818750018,
                        "value": 1
                    },
                    {
                        "number": 64,
                        "time": 244.3143998437502,
                        "value": 0
                    },
                    {
                        "number": 64,
                        "time": 244.47900615625022,
                        "value": 1
                    },
                    {
                        "number": 64,
                        "time": 245.10887725000023,
                        "value": 0
                    },
                    {
                        "number": 64,
                        "time": 245.35746637500023,
                        "value": 1
                    },
                    {
                        "number": 64,
                        "time": 246.72470656250024,
                        "value": 0
                    },
                    {
                        "number": 64,
                        "time": 247.70562581250024,
                        "value": 1
                    },
                    {
                        "number": 64,
                        "time": 248.33381725000027,
                        "value": 0
                    },
                    {
                        "number": 64,
                        "time": 248.49842356250028,
                        "value": 1
                    },
                    {
                        "number": 64,
                        "time": 249.1518098437503,
                        "value": 0
                    },
                    {
                        "number": 64,
                        "time": 249.3752041250003,
                        "value": 1
                    },
                    {
                        "number": 64,
                        "time": 250.76595950000032,
                        "value": 0
                    },
                    {
                        "number": 64,
                        "time": 251.02462656250032,
                        "value": 1
                    },
                    {
                        "number": 64,
                        "time": 251.54532000000032,
                        "value": 0
                    },
                    {
                        "number": 64,
                        "time": 251.77207359375032,
                        "value": 1
                    },
                    {
                        "number": 64,
                        "time": 252.37674984375033,
                        "value": 0
                    },
                    {
                        "number": 64,
                        "time": 252.43385815625032,
                        "value": 1
                    },
                    {
                        "number": 64,
                        "time": 253.1846645000003,
                        "value": 0
                    },
                    {
                        "number": 64,
                        "time": 253.26360834375032,
                        "value": 1
                    },
                    {
                        "number": 64,
                        "time": 253.57434475000034,
                        "value": 0
                    },
                    {
                        "number": 64,
                        "time": 254.93654596875035,
                        "value": 1
                    },
                    {
                        "number": 64,
                        "time": 255.60168984375036,
                        "value": 0
                    },
                    {
                        "number": 64,
                        "time": 255.80156893750038,
                        "value": 1
                    },
                    {
                        "number": 64,
                        "time": 257.2124801875004,
                        "value": 0
                    },
                    {
                        "number": 64,
                        "time": 257.3787661562504,
                        "value": 1
                    },
                    {
                        "number": 64,
                        "time": 258.0069575937504,
                        "value": 0
                    },
                    {
                        "number": 64,
                        "time": 258.30425675000043,
                        "value": 1
                    },
                    {
                        "number": 64,
                        "time": 259.6211072500004,
                        "value": 0
                    },
                    {
                        "number": 64,
                        "time": 260.60538581250046,
                        "value": 1
                    },
                    {
                        "number": 64,
                        "time": 262.04485121875047,
                        "value": 0
                    },
                    {
                        "number": 64,
                        "time": 266.88394087500046,
                        "value": 1
                    },
                    {
                        "number": 64,
                        "time": 267.6817775937505,
                        "value": 0
                    },
                    {
                        "number": 64,
                        "time": 267.9555615625005,
                        "value": 1
                    },
                    {
                        "number": 64,
                        "time": 269.3043255312506,
                        "value": 0
                    },
                    {
                        "number": 64,
                        "time": 269.5663519062506,
                        "value": 1
                    },
                    {
                        "number": 64,
                        "time": 270.9067175937506,
                        "value": 0
                    },
                    {
                        "number": 64,
                        "time": 271.0730035625006,
                        "value": 1
                    },
                    {
                        "number": 64,
                        "time": 273.3371801875006,
                        "value": 0
                    },
                    {
                        "number": 64,
                        "time": 274.31977909375064,
                        "value": 1
                    },
                    {
                        "number": 64,
                        "time": 277.3599569062507,
                        "value": 0
                    },
                    {
                        "number": 64,
                        "time": 277.5816715312507,
                        "value": 1
                    },
                    {
                        "number": 64,
                        "time": 280.58825621875076,
                        "value": 0
                    },
                    {
                        "number": 64,
                        "time": 280.8066115312508,
                        "value": 1
                    },
                    {
                        "number": 64,
                        "time": 288.81185321875085,
                        "value": 0
                    }
                ]
            },
            "id": 2,
            "name": "Piano left",
            "instrumentNumber": 0,
            "instrument": "acoustic grand piano",
            "instrumentFamily": "piano",
            "channelNumber": 0,
            "isPercussion": false
        },
        {
            "startTime": 0,
            "duration": 0,
            "length": 0,
            "notes": [],
            "controlChanges": {},
            "id": 3,
            "name": "Chopin: Prelude No.15 in Db Major Op. 28"
        },
        {
            "startTime": 0,
            "duration": 0,
            "length": 0,
            "notes": [],
            "controlChanges": {},
            "id": 4,
            "name": "Copyright  2002 by Bernd Krueger"
        },
        {
            "startTime": 0,
            "duration": 0,
            "length": 0,
            "notes": [],
            "controlChanges": {},
            "id": 5,
            "name": "http://www.piano-midi.de"
        },
        {
            "startTime": 0,
            "duration": 0,
            "length": 0,
            "notes": [],
            "controlChanges": {},
            "id": 6,
            "name": "Edition: 2014-02-21"
        },
        {
            "startTime": 0,
            "duration": 0,
            "length": 0,
            "notes": [],
            "controlChanges": {
                "7": [
                    {
                        "number": 7,
                        "time": 0,
                        "value": 1
                    }
                ],
                "10": [
                    {
                        "number": 10,
                        "time": 0,
                        "value": 0.5039370078740157
                    }
                ]
            },
            "id": 7,
            "name": "Spur 7"
        },
        {
            "startTime": 0,
            "duration": 0,
            "length": 0,
            "notes": [],
            "controlChanges": {
                "7": [
                    {
                        "number": 7,
                        "time": 0,
                        "value": 1
                    }
                ],
                "10": [
                    {
                        "number": 10,
                        "time": 0,
                        "value": 0.5039370078740157
                    }
                ]
            },
            "id": 8,
            "name": "Spur 8"
        }
    ]
}