{
    "header": {
        "PPQ": 480,
        "timeSignature": [
            4,
            4
        ],
        "bpm": 140.00014000014,
        "name": "Chopin Etude  No. 12, Opus 25"
    },
    "startTime": 0,
    "duration": 142.2855720000043,
    "tracks": [
        {
            "startTime": 0,
            "duration": 0,
            "length": 0,
            "notes": [],
            "controlChanges": {},
            "id": 0,
            "name": "Chopin Etude  No. 12, Opus 25"
        },
        {
            "startTime": 0,
            "duration": 142.2855720000043,
            "length": 1317,
            "notes": [
                {
                    "name": "D#3",
                    "midi": 51,
                    "time": 0,
                    "velocity": 0.6535433070866141,
                    "duration": 0.10624989375000002
                },
                {
                    "name": "G3",
                    "midi": 55,
                    "time": 0.10714275000000002,
                    "velocity": 0.4094488188976378,
                    "duration": 0.10624989375000003
                },
                {
                    "name": "D#4",
                    "midi": 63,
                    "time": 0.21428550000000005,
                    "velocity": 0.4094488188976378,
                    "duration": 0.10624989375000002
                },
                {
                    "name": "D#4",
                    "midi": 63,
                    "time": 0.3214282500000001,
                    "velocity": 0.41732283464566927,
                    "duration": 0.10624989375000005
                },
                {
                    "name": "G4",
                    "midi": 67,
                    "time": 0.42857100000000015,
                    "velocity": 0.4881889763779528,
                    "duration": 0.10624989375000005
                },
                {
                    "name": "D#5",
                    "midi": 75,
                    "time": 0.5357137500000002,
                    "velocity": 0.4330708661417323,
                    "duration": 0.10624989375000005
                },
                {
                    "name": "D#5",
                    "midi": 75,
                    "time": 0.6428565000000003,
                    "velocity": 0.41732283464566927,
                    "duration": 0.10624989375000005
                },
                {
                    "name": "G5",
                    "midi": 79,
                    "time": 0.7499992500000003,
                    "velocity": 0.41732283464566927,
                    "duration": 0.10624989375000005
                },
                {
                    "name": "D#6",
                    "midi": 87,
                    "time": 0.8571420000000004,
                    "velocity": 0.5590551181102362,
                    "duration": 0.10624989375000005
                },
                {
                    "name": "G5",
                    "midi": 79,
                    "time": 0.9642847500000005,
                    "velocity": 0.44881889763779526,
                    "duration": 0.10624989375000005
                },
                {
                    "name": "D#5",
                    "midi": 75,
                    "time": 1.0714275000000004,
                    "velocity": 0.44881889763779526,
                    "duration": 0.10624989375000005
                },
                {
                    "name": "D#5",
                    "midi": 75,
                    "time": 1.1785702500000004,
                    "velocity": 0.44881889763779526,
                    "duration": 0.10624989375000005
                },
                {
                    "name": "G4",
                    "midi": 67,
                    "time": 1.2857130000000003,
                    "velocity": 0.5039370078740157,
                    "duration": 0.10624989375000005
                },
                {
                    "name": "D#4",
                    "midi": 63,
                    "time": 1.3928557500000003,
                    "velocity": 0.4330708661417323,
                    "duration": 0.10624989375000005
                },
                {
                    "name": "D#4",
                    "midi": 63,
                    "time": 1.4999985000000002,
                    "velocity": 0.4409448818897638,
                    "duration": 0.10624989375000005
                },
                {
                    "name": "G3",
                    "midi": 55,
                    "time": 1.6071412500000002,
                    "velocity": 0.4409448818897638,
                    "duration": 0.10624989375000005
                },
                {
                    "name": "D3",
                    "midi": 50,
                    "time": 1.7142840000000001,
                    "velocity": 0.6614173228346457,
                    "duration": 0.10624989375000005
                },
                {
                    "name": "G#3",
                    "midi": 56,
                    "time": 1.82142675,
                    "velocity": 0.4094488188976378,
                    "duration": 0.10624989375000005
                },
                {
                    "name": "D4",
                    "midi": 62,
                    "time": 1.9285695,
                    "velocity": 0.4094488188976378,
                    "duration": 0.10624989374999982
                },
                {
                    "name": "D4",
                    "midi": 62,
                    "time": 2.03571225,
                    "velocity": 0.4094488188976378,
                    "duration": 0.10624989374999982
                },
                {
                    "name": "G#4",
                    "midi": 68,
                    "time": 2.142855,
                    "velocity": 0.5275590551181102,
                    "duration": 0.10624989374999982
                },
                {
                    "name": "D5",
                    "midi": 74,
                    "time": 2.24999775,
                    "velocity": 0.4330708661417323,
                    "duration": 0.10624989374999982
                },
                {
                    "name": "D5",
                    "midi": 74,
                    "time": 2.3571405,
                    "velocity": 0.41732283464566927,
                    "duration": 0.10624989374999982
                },
                {
                    "name": "G#5",
                    "midi": 80,
                    "time": 2.46428325,
                    "velocity": 0.41732283464566927,
                    "duration": 0.10624989374999982
                },
                {
                    "name": "D6",
                    "midi": 86,
                    "time": 2.5714259999999998,
                    "velocity": 0.6062992125984252,
                    "duration": 0.10624989374999982
                },
                {
                    "name": "G#5",
                    "midi": 80,
                    "time": 2.6785687499999997,
                    "velocity": 0.4566929133858268,
                    "duration": 0.10624989374999982
                },
                {
                    "name": "D5",
                    "midi": 74,
                    "time": 2.7857114999999997,
                    "velocity": 0.4566929133858268,
                    "duration": 0.10624989374999982
                },
                {
                    "name": "D5",
                    "midi": 74,
                    "time": 2.8928542499999996,
                    "velocity": 0.4566929133858268,
                    "duration": 0.10624989374999982
                },
                {
                    "name": "G#4",
                    "midi": 68,
                    "time": 2.9999969999999996,
                    "velocity": 0.5196850393700787,
                    "duration": 0.10624989374999982
                },
                {
                    "name": "D4",
                    "midi": 62,
                    "time": 3.1071397499999995,
                    "velocity": 0.4566929133858268,
                    "duration": 0.10624989374999982
                },
                {
                    "name": "D4",
                    "midi": 62,
                    "time": 3.2142824999999995,
                    "velocity": 0.4566929133858268,
                    "duration": 0.10624989374999982
                },
                {
                    "name": "G#3",
                    "midi": 56,
                    "time": 3.3214252499999994,
                    "velocity": 0.44881889763779526,
                    "duration": 0.10624989374999982
                },
                {
                    "name": "F3",
                    "midi": 53,
                    "time": 3.4285679999999994,
                    "velocity": 0.7086614173228346,
                    "duration": 0.10624989374999982
                },
                {
                    "name": "C4",
                    "midi": 60,
                    "time": 3.5357107499999993,
                    "velocity": 0.4645669291338583,
                    "duration": 0.10624989374999982
                },
                {
                    "name": "F4",
                    "midi": 65,
                    "time": 3.6428534999999993,
                    "velocity": 0.47244094488188976,
                    "duration": 0.10624989374999982
                },
                {
                    "name": "F4",
                    "midi": 65,
                    "time": 3.7499962499999993,
                    "velocity": 0.47244094488188976,
                    "duration": 0.10624989374999982
                },
                {
                    "name": "C5",
                    "midi": 72,
                    "time": 3.857138999999999,
                    "velocity": 0.5511811023622047,
                    "duration": 0.10624989374999982
                },
                {
                    "name": "F5",
                    "midi": 77,
                    "time": 3.964281749999999,
                    "velocity": 0.48031496062992124,
                    "duration": 0.10624989374999982
                },
                {
                    "name": "F5",
                    "midi": 77,
                    "time": 4.071424499999999,
                    "velocity": 0.48031496062992124,
                    "duration": 0.10624989375000027
                },
                {
                    "name": "C6",
                    "midi": 84,
                    "time": 4.1785672499999995,
                    "velocity": 0.48031496062992124,
                    "duration": 0.10624989375000027
                },
                {
                    "name": "F6",
                    "midi": 89,
                    "time": 4.28571,
                    "velocity": 0.6141732283464567,
                    "duration": 0.10624989375000027
                },
                {
                    "name": "C6",
                    "midi": 84,
                    "time": 4.39285275,
                    "velocity": 0.49606299212598426,
                    "duration": 0.10624989375000027
                },
                {
                    "name": "F5",
                    "midi": 77,
                    "time": 4.499995500000001,
                    "velocity": 0.49606299212598426,
                    "duration": 0.10624989375000027
                },
                {
                    "name": "F5",
                    "midi": 77,
                    "time": 4.607138250000001,
                    "velocity": 0.49606299212598426,
                    "duration": 0.10624989375000027
                },
                {
                    "name": "C5",
                    "midi": 72,
                    "time": 4.7142810000000015,
                    "velocity": 0.5669291338582677,
                    "duration": 0.10624989375000027
                },
                {
                    "name": "F4",
                    "midi": 65,
                    "time": 4.821423750000002,
                    "velocity": 0.49606299212598426,
                    "duration": 0.10624989375000027
                },
                {
                    "name": "F4",
                    "midi": 65,
                    "time": 4.928566500000002,
                    "velocity": 0.49606299212598426,
                    "duration": 0.10624989375000027
                },
                {
                    "name": "C4",
                    "midi": 60,
                    "time": 5.035709250000003,
                    "velocity": 0.49606299212598426,
                    "duration": 0.10624989375000027
                },
                {
                    "name": "D#3",
                    "midi": 51,
                    "time": 5.142852000000003,
                    "velocity": 0.7559055118110236,
                    "duration": 0.10624989375000027
                },
                {
                    "name": "G3",
                    "midi": 55,
                    "time": 5.2499947500000035,
                    "velocity": 0.4881889763779528,
                    "duration": 0.10624989375000027
                },
                {
                    "name": "D#4",
                    "midi": 63,
                    "time": 5.357137500000004,
                    "velocity": 0.4881889763779528,
                    "duration": 0.10624989375000027
                },
                {
                    "name": "D#4",
                    "midi": 63,
                    "time": 5.464280250000004,
                    "velocity": 0.49606299212598426,
                    "duration": 0.10624989375000027
                },
                {
                    "name": "G4",
                    "midi": 67,
                    "time": 5.571423000000005,
                    "velocity": 0.5826771653543307,
                    "duration": 0.10624989375000027
                },
                {
                    "name": "D#5",
                    "midi": 75,
                    "time": 5.678565750000005,
                    "velocity": 0.5039370078740157,
                    "duration": 0.10624989375000027
                },
                {
                    "name": "D#5",
                    "midi": 75,
                    "time": 5.7857085000000055,
                    "velocity": 0.49606299212598426,
                    "duration": 0.10624989375000027
                },
                {
                    "name": "G5",
                    "midi": 79,
                    "time": 5.892851250000006,
                    "velocity": 0.49606299212598426,
                    "duration": 0.10624989375000027
                },
                {
                    "name": "D#6",
                    "midi": 87,
                    "time": 5.999994000000006,
                    "velocity": 0.6771653543307087,
                    "duration": 0.10624989375000027
                },
                {
                    "name": "G5",
                    "midi": 79,
                    "time": 6.107136750000007,
                    "velocity": 0.5275590551181102,
                    "duration": 0.10624989375000027
                },
                {
                    "name": "D#5",
                    "midi": 75,
                    "time": 6.214279500000007,
                    "velocity": 0.5275590551181102,
                    "duration": 0.10624989375000027
                },
                {
                    "name": "D#5",
                    "midi": 75,
                    "time": 6.3214222500000075,
                    "velocity": 0.5275590551181102,
                    "duration": 0.10624989375000027
                },
                {
                    "name": "G4",
                    "midi": 67,
                    "time": 6.428565000000008,
                    "velocity": 0.5826771653543307,
                    "duration": 0.10624989375000027
                },
                {
                    "name": "D#4",
                    "midi": 63,
                    "time": 6.535707750000008,
                    "velocity": 0.49606299212598426,
                    "duration": 0.10624989375000027
                },
                {
                    "name": "D#4",
                    "midi": 63,
                    "time": 6.642850500000009,
                    "velocity": 0.49606299212598426,
                    "duration": 0.10624989375000027
                },
                {
                    "name": "G3",
                    "midi": 55,
                    "time": 6.749993250000009,
                    "velocity": 0.49606299212598426,
                    "duration": 0.10624989375000027
                },
                {
                    "name": "D3",
                    "midi": 50,
                    "time": 6.8571360000000094,
                    "velocity": 0.7637795275590551,
                    "duration": 0.10624989375000027
                },
                {
                    "name": "G#3",
                    "midi": 56,
                    "time": 6.96427875000001,
                    "velocity": 0.4645669291338583,
                    "duration": 0.10624989375000027
                },
                {
                    "name": "D4",
                    "midi": 62,
                    "time": 7.07142150000001,
                    "velocity": 0.4645669291338583,
                    "duration": 0.10624989375000027
                },
                {
                    "name": "D4",
                    "midi": 62,
                    "time": 7.178564250000011,
                    "velocity": 0.4645669291338583,
                    "duration": 0.10624989375000027
                },
                {
                    "name": "G#4",
                    "midi": 68,
                    "time": 7.285707000000011,
                    "velocity": 0.5669291338582677,
                    "duration": 0.10624989375000027
                },
                {
                    "name": "D5",
                    "midi": 74,
                    "time": 7.392849750000011,
                    "velocity": 0.4645669291338583,
                    "duration": 0.10624989375000027
                },
                {
                    "name": "D5",
                    "midi": 74,
                    "time": 7.499992500000012,
                    "velocity": 0.4566929133858268,
                    "duration": 0.10624989375000027
                },
                {
                    "name": "G#5",
                    "midi": 80,
                    "time": 7.607135250000012,
                    "velocity": 0.4566929133858268,
                    "duration": 0.10624989375000027
                },
                {
                    "name": "D6",
                    "midi": 86,
                    "time": 7.714278000000013,
                    "velocity": 0.6771653543307087,
                    "duration": 0.10624989375000027
                },
                {
                    "name": "G#5",
                    "midi": 80,
                    "time": 7.821420750000013,
                    "velocity": 0.48031496062992124,
                    "duration": 0.10624989375000027
                },
                {
                    "name": "D5",
                    "midi": 74,
                    "time": 7.928563500000013,
                    "velocity": 0.47244094488188976,
                    "duration": 0.10624989375000027
                },
                {
                    "name": "D5",
                    "midi": 74,
                    "time": 8.035706250000013,
                    "velocity": 0.47244094488188976,
                    "duration": 0.10624989375000027
                },
                {
                    "name": "G#4",
                    "midi": 68,
                    "time": 8.142849000000012,
                    "velocity": 0.5275590551181102,
                    "duration": 0.10624989375000027
                },
                {
                    "name": "D4",
                    "midi": 62,
                    "time": 8.249991750000012,
                    "velocity": 0.4645669291338583,
                    "duration": 0.10624989375000027
                },
                {
                    "name": "D4",
                    "midi": 62,
                    "time": 8.357134500000011,
                    "velocity": 0.4566929133858268,
                    "duration": 0.10624989375000027
                },
                {
                    "name": "G#3",
                    "midi": 56,
                    "time": 8.464277250000011,
                    "velocity": 0.44881889763779526,
                    "duration": 0.10624989375000027
                },
                {
                    "name": "D#3",
                    "midi": 51,
                    "time": 8.57142000000001,
                    "velocity": 0.7322834645669292,
                    "duration": 0.10624989375000027
                },
                {
                    "name": "G#3",
                    "midi": 56,
                    "time": 8.67856275000001,
                    "velocity": 0.4645669291338583,
                    "duration": 0.10624989375000027
                },
                {
                    "name": "D#4",
                    "midi": 63,
                    "time": 8.78570550000001,
                    "velocity": 0.4645669291338583,
                    "duration": 0.10624989375000027
                },
                {
                    "name": "D#4",
                    "midi": 63,
                    "time": 8.892848250000009,
                    "velocity": 0.4566929133858268,
                    "duration": 0.10624989375000027
                },
                {
                    "name": "G#4",
                    "midi": 68,
                    "time": 8.999991000000009,
                    "velocity": 0.5354330708661418,
                    "duration": 0.10624989375000027
                },
                {
                    "name": "D#5",
                    "midi": 75,
                    "time": 9.107133750000008,
                    "velocity": 0.4566929133858268,
                    "duration": 0.10624989375000027
                },
                {
                    "name": "D#5",
                    "midi": 75,
                    "time": 9.214276500000008,
                    "velocity": 0.4566929133858268,
                    "duration": 0.10624989375000027
                },
                {
                    "name": "G#5",
                    "midi": 80,
                    "time": 9.321419250000007,
                    "velocity": 0.4566929133858268,
                    "duration": 0.10624989375000027
                },
                {
                    "name": "D#6",
                    "midi": 87,
                    "time": 9.428562000000007,
                    "velocity": 0.5905511811023622,
                    "duration": 0.10624989375000027
                },
                {
                    "name": "G#5",
                    "midi": 80,
                    "time": 9.535704750000006,
                    "velocity": 0.4645669291338583,
                    "duration": 0.10624989375000027
                },
                {
                    "name": "D#5",
                    "midi": 75,
                    "time": 9.642847500000006,
                    "velocity": 0.4566929133858268,
                    "duration": 0.10624989375000027
                },
                {
                    "name": "D#5",
                    "midi": 75,
                    "time": 9.749990250000005,
                    "velocity": 0.4566929133858268,
                    "duration": 0.10624989375000027
                },
                {
                    "name": "G#4",
                    "midi": 68,
                    "time": 9.857133000000005,
                    "velocity": 0.5039370078740157,
                    "duration": 0.10624989375000027
                },
                {
                    "name": "D#4",
                    "midi": 63,
                    "time": 9.964275750000004,
                    "velocity": 0.44881889763779526,
                    "duration": 0.10624989375000027
                },
                {
                    "name": "D#4",
                    "midi": 63,
                    "time": 10.071418500000004,
                    "velocity": 0.44881889763779526,
                    "duration": 0.10624989375000027
                },
                {
                    "name": "G#3",
                    "midi": 56,
                    "time": 10.178561250000003,
                    "velocity": 0.4409448818897638,
                    "duration": 0.10624989375000027
                },
                {
                    "name": "C3",
                    "midi": 48,
                    "time": 10.285704000000003,
                    "velocity": 0.6929133858267716,
                    "duration": 0.10624989375000027
                },
                {
                    "name": "D#3",
                    "midi": 51,
                    "time": 10.392846750000002,
                    "velocity": 0.4330708661417323,
                    "duration": 0.10624989375000027
                },
                {
                    "name": "C4",
                    "midi": 60,
                    "time": 10.499989500000002,
                    "velocity": 0.4330708661417323,
                    "duration": 0.10624989375000027
                },
                {
                    "name": "C4",
                    "midi": 60,
                    "time": 10.607132250000001,
                    "velocity": 0.4330708661417323,
                    "duration": 0.10624989375000027
                },
                {
                    "name": "D#4",
                    "midi": 63,
                    "time": 10.714275,
                    "velocity": 0.4645669291338583,
                    "duration": 0.10624989375000027
                },
                {
                    "name": "C5",
                    "midi": 72,
                    "time": 10.82141775,
                    "velocity": 0.5196850393700787,
                    "duration": 0.42857099999999804
                },
                {
                    "name": "D#4",
                    "midi": 63,
                    "time": 10.9285605,
                    "velocity": 0.3937007874015748,
                    "duration": 0.10624989375000027
                },
                {
                    "name": "C4",
                    "midi": 60,
                    "time": 11.03570325,
                    "velocity": 0.3858267716535433,
                    "duration": 0.10624989375000027
                },
                {
                    "name": "D#4",
                    "midi": 63,
                    "time": 11.142845999999999,
                    "velocity": 0.4409448818897638,
                    "duration": 0.10624989375000027
                },
                {
                    "name": "A#4",
                    "midi": 70,
                    "time": 11.249988749999998,
                    "velocity": 0.48031496062992124,
                    "duration": 0.42857099999999804
                },
                {
                    "name": "D#4",
                    "midi": 63,
                    "time": 11.357131499999998,
                    "velocity": 0.3858267716535433,
                    "duration": 0.10624989375000027
                },
                {
                    "name": "C4",
                    "midi": 60,
                    "time": 11.464274249999997,
                    "velocity": 0.3779527559055118,
                    "duration": 0.10624989375000027
                },
                {
                    "name": "D#4",
                    "midi": 63,
                    "time": 11.571416999999997,
                    "velocity": 0.41732283464566927,
                    "duration": 0.10624989375000027
                },
                {
                    "name": "G#4",
                    "midi": 68,
                    "time": 11.678559749999996,
                    "velocity": 0.44881889763779526,
                    "duration": 0.42857099999999804
                },
                {
                    "name": "D#4",
                    "midi": 63,
                    "time": 11.785702499999996,
                    "velocity": 0.36220472440944884,
                    "duration": 0.10624989375000027
                },
                {
                    "name": "C4",
                    "midi": 60,
                    "time": 11.892845249999995,
                    "velocity": 0.36220472440944884,
                    "duration": 0.10624989375000027
                },
                {
                    "name": "D4",
                    "midi": 62,
                    "time": 11.999987999999995,
                    "velocity": 0.3937007874015748,
                    "duration": 0.10624989375000027
                },
                {
                    "name": "G4",
                    "midi": 67,
                    "time": 12.107130749999994,
                    "velocity": 0.4409448818897638,
                    "duration": 0.42857099999999804
                },
                {
                    "name": "D4",
                    "midi": 62,
                    "time": 12.214273499999994,
                    "velocity": 0.33070866141732286,
                    "duration": 0.10624989375000027
                },
                {
                    "name": "B3",
                    "midi": 59,
                    "time": 12.321416249999993,
                    "velocity": 0.33070866141732286,
                    "duration": 0.10624989375000027
                },
                {
                    "name": "C#4",
                    "midi": 61,
                    "time": 12.428558999999993,
                    "velocity": 0.3779527559055118,
                    "duration": 0.10624989375000027
                },
                {
                    "name": "G4",
                    "midi": 67,
                    "time": 12.535701749999992,
                    "velocity": 0.4094488188976378,
                    "duration": 0.42857099999999804
                },
                {
                    "name": "C#4",
                    "midi": 61,
                    "time": 12.642844499999992,
                    "velocity": 0.33070866141732286,
                    "duration": 0.10624989375000027
                },
                {
                    "name": "A#3",
                    "midi": 58,
                    "time": 12.749987249999991,
                    "velocity": 0.31496062992125984,
                    "duration": 0.10624989375000027
                },
                {
                    "name": "C4",
                    "midi": 60,
                    "time": 12.85712999999999,
                    "velocity": 0.36220472440944884,
                    "duration": 0.10624989375000027
                },
                {
                    "name": "F4",
                    "midi": 65,
                    "time": 12.96427274999999,
                    "velocity": 0.3858267716535433,
                    "duration": 0.42857099999999804
                },
                {
                    "name": "C4",
                    "midi": 60,
                    "time": 13.07141549999999,
                    "velocity": 0.30708661417322836,
                    "duration": 0.10624989375000027
                },
                {
                    "name": "A3",
                    "midi": 57,
                    "time": 13.17855824999999,
                    "velocity": 0.2992125984251969,
                    "duration": 0.10624989375000027
                },
                {
                    "name": "B3",
                    "midi": 59,
                    "time": 13.285700999999989,
                    "velocity": 0.33070866141732286,
                    "duration": 0.10624989375000027
                },
                {
                    "name": "F4",
                    "midi": 65,
                    "time": 13.392843749999988,
                    "velocity": 0.3700787401574803,
                    "duration": 0.3214282499999985
                },
                {
                    "name": "B3",
                    "midi": 59,
                    "time": 13.499986499999988,
                    "velocity": 0.29133858267716534,
                    "duration": 0.10624989375000027
                },
                {
                    "name": "G#3",
                    "midi": 56,
                    "time": 13.607129249999987,
                    "velocity": 0.2755905511811024,
                    "duration": 0.10624989375000027
                },
                {
                    "name": "D#3",
                    "midi": 51,
                    "time": 13.714271999999987,
                    "velocity": 0.6692913385826772,
                    "duration": 0.10624989375000027
                },
                {
                    "name": "G3",
                    "midi": 55,
                    "time": 13.821414749999986,
                    "velocity": 0.4409448818897638,
                    "duration": 0.10624989375000027
                },
                {
                    "name": "D#4",
                    "midi": 63,
                    "time": 13.928557499999986,
                    "velocity": 0.4409448818897638,
                    "duration": 0.10624989375000027
                },
                {
                    "name": "D#4",
                    "midi": 63,
                    "time": 14.035700249999985,
                    "velocity": 0.4409448818897638,
                    "duration": 0.10624989375000027
                },
                {
                    "name": "G4",
                    "midi": 67,
                    "time": 14.142842999999985,
                    "velocity": 0.5039370078740157,
                    "duration": 0.10624989375000027
                },
                {
                    "name": "D#5",
                    "midi": 75,
                    "time": 14.249985749999984,
                    "velocity": 0.44881889763779526,
                    "duration": 0.10624989375000027
                },
                {
                    "name": "D#5",
                    "midi": 75,
                    "time": 14.357128499999984,
                    "velocity": 0.4409448818897638,
                    "duration": 0.10624989375000027
                },
                {
                    "name": "G5",
                    "midi": 79,
                    "time": 14.464271249999983,
                    "velocity": 0.4409448818897638,
                    "duration": 0.10624989375000027
                },
                {
                    "name": "D#6",
                    "midi": 87,
                    "time": 14.571413999999983,
                    "velocity": 0.6220472440944882,
                    "duration": 0.10624989375000027
                },
                {
                    "name": "G5",
                    "midi": 79,
                    "time": 14.678556749999983,
                    "velocity": 0.4566929133858268,
                    "duration": 0.10624989375000027
                },
                {
                    "name": "D#5",
                    "midi": 75,
                    "time": 14.785699499999982,
                    "velocity": 0.4566929133858268,
                    "duration": 0.10624989375000027
                },
                {
                    "name": "D#5",
                    "midi": 75,
                    "time": 14.892842249999982,
                    "velocity": 0.4566929133858268,
                    "duration": 0.10624989375000027
                },
                {
                    "name": "G4",
                    "midi": 67,
                    "time": 14.999984999999981,
                    "velocity": 0.5196850393700787,
                    "duration": 0.10624989375000027
                },
                {
                    "name": "D#4",
                    "midi": 63,
                    "time": 15.10712774999998,
                    "velocity": 0.4409448818897638,
                    "duration": 0.10624989375000027
                },
                {
                    "name": "D#4",
                    "midi": 63,
                    "time": 15.21427049999998,
                    "velocity": 0.44881889763779526,
                    "duration": 0.10624989375000027
                },
                {
                    "name": "G3",
                    "midi": 55,
                    "time": 15.32141324999998,
                    "velocity": 0.44881889763779526,
                    "duration": 0.10624989375000027
                },
                {
                    "name": "D3",
                    "midi": 50,
                    "time": 15.428555999999979,
                    "velocity": 0.7165354330708661,
                    "duration": 0.10624989375000027
                },
                {
                    "name": "G#3",
                    "midi": 56,
                    "time": 15.535698749999979,
                    "velocity": 0.41732283464566927,
                    "duration": 0.10624989375000027
                },
                {
                    "name": "D4",
                    "midi": 62,
                    "time": 15.642841499999978,
                    "velocity": 0.41732283464566927,
                    "duration": 0.10624989375000027
                },
                {
                    "name": "D4",
                    "midi": 62,
                    "time": 15.749984249999978,
                    "velocity": 0.41732283464566927,
                    "duration": 0.10624989375000027
                },
                {
                    "name": "G#4",
                    "midi": 68,
                    "time": 15.857126999999977,
                    "velocity": 0.5275590551181102,
                    "duration": 0.10624989375000027
                },
                {
                    "name": "D5",
                    "midi": 74,
                    "time": 15.964269749999977,
                    "velocity": 0.4330708661417323,
                    "duration": 0.10624989374999849
                },
                {
                    "name": "D5",
                    "midi": 74,
                    "time": 16.071412499999976,
                    "velocity": 0.41732283464566927,
                    "duration": 0.10624989375000027
                },
                {
                    "name": "G#5",
                    "midi": 80,
                    "time": 16.178555249999977,
                    "velocity": 0.41732283464566927,
                    "duration": 0.10624989375000027
                },
                {
                    "name": "D6",
                    "midi": 86,
                    "time": 16.28569799999998,
                    "velocity": 0.5905511811023622,
                    "duration": 0.10624989375000027
                },
                {
                    "name": "G#5",
                    "midi": 80,
                    "time": 16.39284074999998,
                    "velocity": 0.4566929133858268,
                    "duration": 0.10624989375000027
                },
                {
                    "name": "D5",
                    "midi": 74,
                    "time": 16.49998349999998,
                    "velocity": 0.44881889763779526,
                    "duration": 0.10624989375000027
                },
                {
                    "name": "D5",
                    "midi": 74,
                    "time": 16.607126249999983,
                    "velocity": 0.44881889763779526,
                    "duration": 0.10624989375000027
                },
                {
                    "name": "G#4",
                    "midi": 68,
                    "time": 16.714268999999984,
                    "velocity": 0.5039370078740157,
                    "duration": 0.10624989375000027
                },
                {
                    "name": "D4",
                    "midi": 62,
                    "time": 16.821411749999985,
                    "velocity": 0.44881889763779526,
                    "duration": 0.10624989375000027
                },
                {
                    "name": "D4",
                    "midi": 62,
                    "time": 16.928554499999986,
                    "velocity": 0.44881889763779526,
                    "duration": 0.10624989375000027
                },
                {
                    "name": "G#3",
                    "midi": 56,
                    "time": 17.035697249999988,
                    "velocity": 0.4409448818897638,
                    "duration": 0.10624989375000027
                },
                {
                    "name": "F3",
                    "midi": 53,
                    "time": 17.14283999999999,
                    "velocity": 0.7244094488188977,
                    "duration": 0.10624989375000027
                },
                {
                    "name": "C4",
                    "midi": 60,
                    "time": 17.24998274999999,
                    "velocity": 0.4566929133858268,
                    "duration": 0.10624989375000027
                },
                {
                    "name": "F4",
                    "midi": 65,
                    "time": 17.35712549999999,
                    "velocity": 0.4566929133858268,
                    "duration": 0.10624989375000027
                },
                {
                    "name": "F4",
                    "midi": 65,
                    "time": 17.464268249999993,
                    "velocity": 0.4645669291338583,
                    "duration": 0.10624989375000027
                },
                {
                    "name": "C5",
                    "midi": 72,
                    "time": 17.571410999999994,
                    "velocity": 0.5433070866141733,
                    "duration": 0.10624989375000027
                },
                {
                    "name": "F5",
                    "midi": 77,
                    "time": 17.678553749999995,
                    "velocity": 0.47244094488188976,
                    "duration": 0.10624989375000027
                },
                {
                    "name": "F5",
                    "midi": 77,
                    "time": 17.785696499999997,
                    "velocity": 0.47244094488188976,
                    "duration": 0.10624989375000027
                },
                {
                    "name": "C6",
                    "midi": 84,
                    "time": 17.892839249999998,
                    "velocity": 0.47244094488188976,
                    "duration": 0.10624989375000027
                },
                {
                    "name": "F6",
                    "midi": 89,
                    "time": 17.999982,
                    "velocity": 0.6299212598425197,
                    "duration": 0.10624989375000027
                },
                {
                    "name": "C6",
                    "midi": 84,
                    "time": 18.10712475,
                    "velocity": 0.48031496062992124,
                    "duration": 0.10624989375000027
                },
                {
                    "name": "F5",
                    "midi": 77,
                    "time": 18.214267500000002,
                    "velocity": 0.48031496062992124,
                    "duration": 0.10624989375000027
                },
                {
                    "name": "F5",
                    "midi": 77,
                    "time": 18.321410250000003,
                    "velocity": 0.48031496062992124,
                    "duration": 0.10624989375000027
                },
                {
                    "name": "C5",
                    "midi": 72,
                    "time": 18.428553000000004,
                    "velocity": 0.5433070866141733,
                    "duration": 0.10624989375000027
                },
                {
                    "name": "F4",
                    "midi": 65,
                    "time": 18.535695750000006,
                    "velocity": 0.47244094488188976,
                    "duration": 0.10624989375000027
                },
                {
                    "name": "F4",
                    "midi": 65,
                    "time": 18.642838500000007,
                    "velocity": 0.47244094488188976,
                    "duration": 0.10624989375000027
                },
                {
                    "name": "C4",
                    "midi": 60,
                    "time": 18.74998125000001,
                    "velocity": 0.47244094488188976,
                    "duration": 0.10624989375000027
                },
                {
                    "name": "E3",
                    "midi": 52,
                    "time": 18.85712400000001,
                    "velocity": 0.7322834645669292,
                    "duration": 0.10624989375000027
                },
                {
                    "name": "C4",
                    "midi": 60,
                    "time": 18.96426675000001,
                    "velocity": 0.47244094488188976,
                    "duration": 0.10624989375000027
                },
                {
                    "name": "E4",
                    "midi": 64,
                    "time": 19.071409500000012,
                    "velocity": 0.47244094488188976,
                    "duration": 0.10624989375000027
                },
                {
                    "name": "E4",
                    "midi": 64,
                    "time": 19.178552250000013,
                    "velocity": 0.47244094488188976,
                    "duration": 0.10624989375000027
                },
                {
                    "name": "C5",
                    "midi": 72,
                    "time": 19.285695000000015,
                    "velocity": 0.5511811023622047,
                    "duration": 0.10624989375000027
                },
                {
                    "name": "E5",
                    "midi": 76,
                    "time": 19.392837750000016,
                    "velocity": 0.48031496062992124,
                    "duration": 0.10624989375000027
                },
                {
                    "name": "E5",
                    "midi": 76,
                    "time": 19.499980500000017,
                    "velocity": 0.47244094488188976,
                    "duration": 0.10624989375000027
                },
                {
                    "name": "C6",
                    "midi": 84,
                    "time": 19.60712325000002,
                    "velocity": 0.47244094488188976,
                    "duration": 0.10624989375000027
                },
                {
                    "name": "E6",
                    "midi": 88,
                    "time": 19.71426600000002,
                    "velocity": 0.6377952755905512,
                    "duration": 0.10624989375000027
                },
                {
                    "name": "C6",
                    "midi": 84,
                    "time": 19.82140875000002,
                    "velocity": 0.4881889763779528,
                    "duration": 0.10624989375000027
                },
                {
                    "name": "E5",
                    "midi": 76,
                    "time": 19.928551500000022,
                    "velocity": 0.4881889763779528,
                    "duration": 0.10624989375000027
                },
                {
                    "name": "E5",
                    "midi": 76,
                    "time": 20.035694250000024,
                    "velocity": 0.4881889763779528,
                    "duration": 0.10624989375000027
                },
                {
                    "name": "C5",
                    "midi": 72,
                    "time": 20.142837000000025,
                    "velocity": 0.5511811023622047,
                    "duration": 0.10624989375000027
                },
                {
                    "name": "E4",
                    "midi": 64,
                    "time": 20.249979750000026,
                    "velocity": 0.47244094488188976,
                    "duration": 0.10624989375000027
                },
                {
                    "name": "E4",
                    "midi": 64,
                    "time": 20.357122500000028,
                    "velocity": 0.47244094488188976,
                    "duration": 0.10624989375000027
                },
                {
                    "name": "C4",
                    "midi": 60,
                    "time": 20.46426525000003,
                    "velocity": 0.48031496062992124,
                    "duration": 0.10624989375000027
                },
                {
                    "name": "G#3",
                    "midi": 56,
                    "time": 20.57140800000003,
                    "velocity": 0.7559055118110236,
                    "duration": 0.10624989375000027
                },
                {
                    "name": "C#4",
                    "midi": 61,
                    "time": 20.67855075000003,
                    "velocity": 0.49606299212598426,
                    "duration": 0.10624989375000027
                },
                {
                    "name": "G#4",
                    "midi": 68,
                    "time": 20.785693500000033,
                    "velocity": 0.49606299212598426,
                    "duration": 0.10624989375000027
                },
                {
                    "name": "G#4",
                    "midi": 68,
                    "time": 20.892836250000034,
                    "velocity": 0.49606299212598426,
                    "duration": 0.10624989375000027
                },
                {
                    "name": "C#5",
                    "midi": 73,
                    "time": 20.999979000000035,
                    "velocity": 0.6220472440944882,
                    "duration": 0.10624989375000027
                },
                {
                    "name": "G#5",
                    "midi": 80,
                    "time": 21.107121750000037,
                    "velocity": 0.5039370078740157,
                    "duration": 0.10624989375000027
                },
                {
                    "name": "G#5",
                    "midi": 80,
                    "time": 21.214264500000038,
                    "velocity": 0.49606299212598426,
                    "duration": 0.10624989375000027
                },
                {
                    "name": "C#6",
                    "midi": 85,
                    "time": 21.32140725000004,
                    "velocity": 0.49606299212598426,
                    "duration": 0.10624989375000027
                },
                {
                    "name": "G#6",
                    "midi": 92,
                    "time": 21.42855000000004,
                    "velocity": 0.6535433070866141,
                    "duration": 0.10624989375000027
                },
                {
                    "name": "C#6",
                    "midi": 85,
                    "time": 21.53569275000004,
                    "velocity": 0.5433070866141733,
                    "duration": 0.10624989375000027
                },
                {
                    "name": "G#5",
                    "midi": 80,
                    "time": 21.642835500000043,
                    "velocity": 0.5275590551181102,
                    "duration": 0.10624989375000027
                },
                {
                    "name": "G#5",
                    "midi": 80,
                    "time": 21.749978250000044,
                    "velocity": 0.5275590551181102,
                    "duration": 0.10624989375000027
                },
                {
                    "name": "C#5",
                    "midi": 73,
                    "time": 21.857121000000046,
                    "velocity": 0.6062992125984252,
                    "duration": 0.10624989375000027
                },
                {
                    "name": "G#4",
                    "midi": 68,
                    "time": 21.964263750000047,
                    "velocity": 0.5275590551181102,
                    "duration": 0.10624989375000027
                },
                {
                    "name": "G#4",
                    "midi": 68,
                    "time": 22.071406500000048,
                    "velocity": 0.5275590551181102,
                    "duration": 0.10624989375000027
                },
                {
                    "name": "C#4",
                    "midi": 61,
                    "time": 22.17854925000005,
                    "velocity": 0.5196850393700787,
                    "duration": 0.10624989375000027
                },
                {
                    "name": "G3",
                    "midi": 55,
                    "time": 22.28569200000005,
                    "velocity": 0.8031496062992126,
                    "duration": 0.10624989375000027
                },
                {
                    "name": "B3",
                    "midi": 59,
                    "time": 22.392834750000052,
                    "velocity": 0.5511811023622047,
                    "duration": 0.10624989375000027
                },
                {
                    "name": "G4",
                    "midi": 67,
                    "time": 22.499977500000053,
                    "velocity": 0.5511811023622047,
                    "duration": 0.10624989375000027
                },
                {
                    "name": "G4",
                    "midi": 67,
                    "time": 22.607120250000055,
                    "velocity": 0.5511811023622047,
                    "duration": 0.10624989375000027
                },
                {
                    "name": "B4",
                    "midi": 71,
                    "time": 22.714263000000056,
                    "velocity": 0.6614173228346457,
                    "duration": 0.10624989375000027
                },
                {
                    "name": "G5",
                    "midi": 79,
                    "time": 22.821405750000057,
                    "velocity": 0.5748031496062992,
                    "duration": 0.10624989375000027
                },
                {
                    "name": "G5",
                    "midi": 79,
                    "time": 22.92854850000006,
                    "velocity": 0.5748031496062992,
                    "duration": 0.10624989375000027
                },
                {
                    "name": "B5",
                    "midi": 83,
                    "time": 23.03569125000006,
                    "velocity": 0.5748031496062992,
                    "duration": 0.10624989375000027
                },
                {
                    "name": "G6",
                    "midi": 91,
                    "time": 23.14283400000006,
                    "velocity": 0.6614173228346457,
                    "duration": 0.10624989375000027
                },
                {
                    "name": "B5",
                    "midi": 83,
                    "time": 23.249976750000062,
                    "velocity": 0.5826771653543307,
                    "duration": 0.10624989375000027
                },
                {
                    "name": "G5",
                    "midi": 79,
                    "time": 23.357119500000064,
                    "velocity": 0.5826771653543307,
                    "duration": 0.10624989375000027
                },
                {
                    "name": "G5",
                    "midi": 79,
                    "time": 23.464262250000065,
                    "velocity": 0.5905511811023622,
                    "duration": 0.10624989375000027
                },
                {
                    "name": "B4",
                    "midi": 71,
                    "time": 23.571405000000066,
                    "velocity": 0.6614173228346457,
                    "duration": 0.10624989375000027
                },
                {
                    "name": "G4",
                    "midi": 67,
                    "time": 23.678547750000067,
                    "velocity": 0.5826771653543307,
                    "duration": 0.10624989375000027
                },
                {
                    "name": "G4",
                    "midi": 67,
                    "time": 23.78569050000007,
                    "velocity": 0.5826771653543307,
                    "duration": 0.10624989375000027
                },
                {
                    "name": "B3",
                    "midi": 59,
                    "time": 23.89283325000007,
                    "velocity": 0.5826771653543307,
                    "duration": 0.10624989375000027
                },
                {
                    "name": "E3",
                    "midi": 52,
                    "time": 23.99997600000007,
                    "velocity": 0.84251968503937,
                    "duration": 0.10624989375000027
                },
                {
                    "name": "G3",
                    "midi": 55,
                    "time": 24.107118750000073,
                    "velocity": 0.5590551181102362,
                    "duration": 0.10624989375000027
                },
                {
                    "name": "E4",
                    "midi": 64,
                    "time": 24.214261500000074,
                    "velocity": 0.5669291338582677,
                    "duration": 0.10624989375000027
                },
                {
                    "name": "E4",
                    "midi": 64,
                    "time": 24.321404250000075,
                    "velocity": 0.5669291338582677,
                    "duration": 0.10624989375000027
                },
                {
                    "name": "G4",
                    "midi": 67,
                    "time": 24.428547000000076,
                    "velocity": 0.6692913385826772,
                    "duration": 0.10624989375000027
                },
                {
                    "name": "E5",
                    "midi": 76,
                    "time": 24.535689750000078,
                    "velocity": 0.5826771653543307,
                    "duration": 0.10624989375000027
                },
                {
                    "name": "E5",
                    "midi": 76,
                    "time": 24.64283250000008,
                    "velocity": 0.5826771653543307,
                    "duration": 0.10624989375000027
                },
                {
                    "name": "G5",
                    "midi": 79,
                    "time": 24.74997525000008,
                    "velocity": 0.5826771653543307,
                    "duration": 0.10624989375000027
                },
                {
                    "name": "E6",
                    "midi": 88,
                    "time": 24.85711800000008,
                    "velocity": 0.6929133858267716,
                    "duration": 0.10624989375000027
                },
                {
                    "name": "E6",
                    "midi": 88,
                    "time": 24.964260750000083,
                    "velocity": 0.6062992125984252,
                    "duration": 0.10624989375000027
                },
                {
                    "name": "G6",
                    "midi": 91,
                    "time": 25.071403500000084,
                    "velocity": 0.6062992125984252,
                    "duration": 0.10624989375000027
                },
                {
                    "name": "E7",
                    "midi": 100,
                    "time": 25.178546250000085,
                    "velocity": 0.6062992125984252,
                    "duration": 0.10624989375000027
                },
                {
                    "name": "G6",
                    "midi": 91,
                    "time": 25.285689000000087,
                    "velocity": 0.6771653543307087,
                    "duration": 0.10624989375000027
                },
                {
                    "name": "E6",
                    "midi": 88,
                    "time": 25.392831750000088,
                    "velocity": 0.5905511811023622,
                    "duration": 0.10624989375000027
                },
                {
                    "name": "E6",
                    "midi": 88,
                    "time": 25.49997450000009,
                    "velocity": 0.5905511811023622,
                    "duration": 0.10624989375000027
                },
                {
                    "name": "G5",
                    "midi": 79,
                    "time": 25.60711725000009,
                    "velocity": 0.5905511811023622,
                    "duration": 0.10624989375000027
                },
                {
                    "name": "E5",
                    "midi": 76,
                    "time": 25.714260000000092,
                    "velocity": 0.5905511811023622,
                    "duration": 0.10624989375000027
                },
                {
                    "name": "E5",
                    "midi": 76,
                    "time": 25.821402750000093,
                    "velocity": 0.49606299212598426,
                    "duration": 0.10624989375000027
                },
                {
                    "name": "G4",
                    "midi": 67,
                    "time": 25.928545500000094,
                    "velocity": 0.49606299212598426,
                    "duration": 0.10624989375000027
                },
                {
                    "name": "E4",
                    "midi": 64,
                    "time": 26.035688250000096,
                    "velocity": 0.49606299212598426,
                    "duration": 0.10624989375000027
                },
                {
                    "name": "E4",
                    "midi": 64,
                    "time": 26.142831000000097,
                    "velocity": 0.7480314960629921,
                    "duration": 0.42857100000000514
                },
                {
                    "name": "G3",
                    "midi": 55,
                    "time": 26.2499737500001,
                    "velocity": 0.5039370078740157,
                    "duration": 0.10624989375000027
                },
                {
                    "name": "E3",
                    "midi": 52,
                    "time": 26.3571165000001,
                    "velocity": 0.5039370078740157,
                    "duration": 0.10624989375000027
                },
                {
                    "name": "G3",
                    "midi": 55,
                    "time": 26.4642592500001,
                    "velocity": 0.5039370078740157,
                    "duration": 0.10624989375000027
                },
                {
                    "name": "D3",
                    "midi": 50,
                    "time": 26.571402000000102,
                    "velocity": 0.7480314960629921,
                    "duration": 0.10624989375000027
                },
                {
                    "name": "G3",
                    "midi": 55,
                    "time": 26.678544750000103,
                    "velocity": 0.5275590551181102,
                    "duration": 0.10624989375000027
                },
                {
                    "name": "D4",
                    "midi": 62,
                    "time": 26.785687500000105,
                    "velocity": 0.6614173228346457,
                    "duration": 0.10624989375000027
                },
                {
                    "name": "G3",
                    "midi": 55,
                    "time": 26.892830250000106,
                    "velocity": 0.5354330708661418,
                    "duration": 0.10624989375000027
                },
                {
                    "name": "F3",
                    "midi": 53,
                    "time": 26.999973000000107,
                    "velocity": 0.7401574803149606,
                    "duration": 0.10624989375000027
                },
                {
                    "name": "G3",
                    "midi": 55,
                    "time": 27.10711575000011,
                    "velocity": 0.5511811023622047,
                    "duration": 0.10624989375000027
                },
                {
                    "name": "G4",
                    "midi": 67,
                    "time": 27.21425850000011,
                    "velocity": 0.6535433070866141,
                    "duration": 0.10624989375000027
                },
                {
                    "name": "G3",
                    "midi": 55,
                    "time": 27.32140125000011,
                    "velocity": 0.5039370078740157,
                    "duration": 0.10624989375000027
                },
                {
                    "name": "E3",
                    "midi": 52,
                    "time": 27.428544000000112,
                    "velocity": 0.8346456692913385,
                    "duration": 0.10624989375000027
                },
                {
                    "name": "G3",
                    "midi": 55,
                    "time": 27.535686750000114,
                    "velocity": 0.5433070866141733,
                    "duration": 0.10624989375000027
                },
                {
                    "name": "E4",
                    "midi": 64,
                    "time": 27.642829500000115,
                    "velocity": 0.5433070866141733,
                    "duration": 0.10624989375000027
                },
                {
                    "name": "E4",
                    "midi": 64,
                    "time": 27.749972250000116,
                    "velocity": 0.5433070866141733,
                    "duration": 0.21428550000000257
                },
                {
                    "name": "G4",
                    "midi": 67,
                    "time": 27.857115000000118,
                    "velocity": 0.6299212598425197,
                    "duration": 0.10624989375000027
                },
                {
                    "name": "E5",
                    "midi": 76,
                    "time": 27.96425775000012,
                    "velocity": 0.5511811023622047,
                    "duration": 0.10624989375000027
                },
                {
                    "name": "E5",
                    "midi": 76,
                    "time": 28.07140050000012,
                    "velocity": 0.5511811023622047,
                    "duration": 0.10624989375000027
                },
                {
                    "name": "G5",
                    "midi": 79,
                    "time": 28.17854325000012,
                    "velocity": 0.5511811023622047,
                    "duration": 0.10624989375000027
                },
                {
                    "name": "E6",
                    "midi": 88,
                    "time": 28.285686000000123,
                    "velocity": 0.6850393700787402,
                    "duration": 0.10624989375000027
                },
                {
                    "name": "E6",
                    "midi": 88,
                    "time": 28.392828750000124,
                    "velocity": 0.5590551181102362,
                    "duration": 0.10624989375000027
                },
                {
                    "name": "G6",
                    "midi": 91,
                    "time": 28.499971500000125,
                    "velocity": 0.5590551181102362,
                    "duration": 0.10624989375000027
                },
                {
                    "name": "E7",
                    "midi": 100,
                    "time": 28.607114250000127,
                    "velocity": 0.5590551181102362,
                    "duration": 0.10624989375000027
                },
                {
                    "name": "G6",
                    "midi": 91,
                    "time": 28.714257000000128,
                    "velocity": 0.6299212598425197,
                    "duration": 0.10624989375000027
                },
                {
                    "name": "E6",
                    "midi": 88,
                    "time": 28.82139975000013,
                    "velocity": 0.5433070866141733,
                    "duration": 0.10624989375000027
                },
                {
                    "name": "E6",
                    "midi": 88,
                    "time": 28.92854250000013,
                    "velocity": 0.5433070866141733,
                    "duration": 0.10624989375000027
                },
                {
                    "name": "G5",
                    "midi": 79,
                    "time": 29.03568525000013,
                    "velocity": 0.5433070866141733,
                    "duration": 0.10624989375000027
                },
                {
                    "name": "E5",
                    "midi": 76,
                    "time": 29.142828000000133,
                    "velocity": 0.5669291338582677,
                    "duration": 0.10624989375000027
                },
                {
                    "name": "E5",
                    "midi": 76,
                    "time": 29.249970750000134,
                    "velocity": 0.4881889763779528,
                    "duration": 0.10624989375000027
                },
                {
                    "name": "G4",
                    "midi": 67,
                    "time": 29.357113500000136,
                    "velocity": 0.4881889763779528,
                    "duration": 0.10624989375000027
                },
                {
                    "name": "E4",
                    "midi": 64,
                    "time": 29.464256250000137,
                    "velocity": 0.4881889763779528,
                    "duration": 0.10624989375000027
                },
                {
                    "name": "E4",
                    "midi": 64,
                    "time": 29.571399000000138,
                    "velocity": 0.7244094488188977,
                    "duration": 0.42857100000000514
                },
                {
                    "name": "G3",
                    "midi": 55,
                    "time": 29.67854175000014,
                    "velocity": 0.4881889763779528,
                    "duration": 0.10624989375000027
                },
                {
                    "name": "E3",
                    "midi": 52,
                    "time": 29.78568450000014,
                    "velocity": 0.4881889763779528,
                    "duration": 0.10624989375000027
                },
                {
                    "name": "G3",
                    "midi": 55,
                    "time": 29.892827250000142,
                    "velocity": 0.4881889763779528,
                    "duration": 0.10624989375000027
                },
                {
                    "name": "D3",
                    "midi": 50,
                    "time": 29.999970000000143,
                    "velocity": 0.7007874015748031,
                    "duration": 0.10624989375000027
                },
                {
                    "name": "G3",
                    "midi": 55,
                    "time": 30.107112750000145,
                    "velocity": 0.49606299212598426,
                    "duration": 0.10624989375000027
                },
                {
                    "name": "D4",
                    "midi": 62,
                    "time": 30.214255500000146,
                    "velocity": 0.5433070866141733,
                    "duration": 0.42857100000000514
                },
                {
                    "name": "G3",
                    "midi": 55,
                    "time": 30.321398250000147,
                    "velocity": 0.5196850393700787,
                    "duration": 0.10624989375000027
                },
                {
                    "name": "C3",
                    "midi": 48,
                    "time": 30.42854100000015,
                    "velocity": 0.6771653543307087,
                    "duration": 0.10624989375000027
                },
                {
                    "name": "G3",
                    "midi": 55,
                    "time": 30.53568375000015,
                    "velocity": 0.5275590551181102,
                    "duration": 0.10624989375000027
                },
                {
                    "name": "C4",
                    "midi": 60,
                    "time": 30.64282650000015,
                    "velocity": 0.5354330708661418,
                    "duration": 0.21428550000000257
                },
                {
                    "name": "G3",
                    "midi": 55,
                    "time": 30.749969250000152,
                    "velocity": 0.4881889763779528,
                    "duration": 0.10624989375000027
                },
                {
                    "name": "D3",
                    "midi": 50,
                    "time": 30.857112000000154,
                    "velocity": 0.7480314960629921,
                    "duration": 0.10624989375000027
                },
                {
                    "name": "G3",
                    "midi": 55,
                    "time": 30.964254750000155,
                    "velocity": 0.5275590551181102,
                    "duration": 0.10624989375000027
                },
                {
                    "name": "D4",
                    "midi": 62,
                    "time": 31.071397500000156,
                    "velocity": 0.5275590551181102,
                    "duration": 0.10624989375000027
                },
                {
                    "name": "D4",
                    "midi": 62,
                    "time": 31.178540250000157,
                    "velocity": 0.5275590551181102,
                    "duration": 0.21428550000000257
                },
                {
                    "name": "G4",
                    "midi": 67,
                    "time": 31.28568300000016,
                    "velocity": 0.6141732283464567,
                    "duration": 0.10624989375000027
                },
                {
                    "name": "D5",
                    "midi": 74,
                    "time": 31.39282575000016,
                    "velocity": 0.5354330708661418,
                    "duration": 0.10624989375000027
                },
                {
                    "name": "D5",
                    "midi": 74,
                    "time": 31.49996850000016,
                    "velocity": 0.5275590551181102,
                    "duration": 0.10624989375000027
                },
                {
                    "name": "G5",
                    "midi": 79,
                    "time": 31.607111250000163,
                    "velocity": 0.5275590551181102,
                    "duration": 0.10624989375000027
                },
                {
                    "name": "D6",
                    "midi": 86,
                    "time": 31.714254000000164,
                    "velocity": 0.6299212598425197,
                    "duration": 0.10624989375000027
                },
                {
                    "name": "D6",
                    "midi": 86,
                    "time": 31.821396750000165,
                    "velocity": 0.5354330708661418,
                    "duration": 0.10624989375000027
                },
                {
                    "name": "G6",
                    "midi": 91,
                    "time": 31.928539500000166,
                    "velocity": 0.5354330708661418,
                    "duration": 0.10624989375000027
                },
                {
                    "name": "D7",
                    "midi": 98,
                    "time": 32.035682250000164,
                    "velocity": 0.5354330708661418,
                    "duration": 0.10624989374999672
                },
                {
                    "name": "G6",
                    "midi": 91,
                    "time": 32.14282500000016,
                    "velocity": 0.6141732283464567,
                    "duration": 0.10624989374999672
                },
                {
                    "name": "D6",
                    "midi": 86,
                    "time": 32.24996775000015,
                    "velocity": 0.5275590551181102,
                    "duration": 0.10624989374999672
                },
                {
                    "name": "D6",
                    "midi": 86,
                    "time": 32.35711050000015,
                    "velocity": 0.5275590551181102,
                    "duration": 0.10624989374999672
                },
                {
                    "name": "G5",
                    "midi": 79,
                    "time": 32.46425325000014,
                    "velocity": 0.5275590551181102,
                    "duration": 0.10624989374999672
                },
                {
                    "name": "D5",
                    "midi": 74,
                    "time": 32.571396000000135,
                    "velocity": 0.5511811023622047,
                    "duration": 0.10624989374999672
                },
                {
                    "name": "D5",
                    "midi": 74,
                    "time": 32.67853875000013,
                    "velocity": 0.47244094488188976,
                    "duration": 0.10624989374999672
                },
                {
                    "name": "G4",
                    "midi": 67,
                    "time": 32.78568150000012,
                    "velocity": 0.47244094488188976,
                    "duration": 0.10624989374999672
                },
                {
                    "name": "D4",
                    "midi": 62,
                    "time": 32.89282425000012,
                    "velocity": 0.47244094488188976,
                    "duration": 0.10624989374999672
                },
                {
                    "name": "D4",
                    "midi": 62,
                    "time": 32.99996700000011,
                    "velocity": 0.6535433070866141,
                    "duration": 0.4285709999999838
                },
                {
                    "name": "G3",
                    "midi": 55,
                    "time": 33.10710975000011,
                    "velocity": 0.41732283464566927,
                    "duration": 0.10624989374999672
                },
                {
                    "name": "D3",
                    "midi": 50,
                    "time": 33.21425250000011,
                    "velocity": 0.41732283464566927,
                    "duration": 0.10624989374999672
                },
                {
                    "name": "G3",
                    "midi": 55,
                    "time": 33.3213952500001,
                    "velocity": 0.41732283464566927,
                    "duration": 0.10624989374999672
                },
                {
                    "name": "C3",
                    "midi": 48,
                    "time": 33.428538000000096,
                    "velocity": 0.6299212598425197,
                    "duration": 0.10624989374999672
                },
                {
                    "name": "F3",
                    "midi": 53,
                    "time": 33.53568075000009,
                    "velocity": 0.4330708661417323,
                    "duration": 0.10624989374999672
                },
                {
                    "name": "C4",
                    "midi": 60,
                    "time": 33.642823500000084,
                    "velocity": 0.4645669291338583,
                    "duration": 0.4285709999999838
                },
                {
                    "name": "F3",
                    "midi": 53,
                    "time": 33.749966250000085,
                    "velocity": 0.44881889763779526,
                    "duration": 0.10624989374999672
                },
                {
                    "name": "C3",
                    "midi": 48,
                    "time": 33.85710900000008,
                    "velocity": 0.5905511811023622,
                    "duration": 0.10624989374999672
                },
                {
                    "name": "F3",
                    "midi": 53,
                    "time": 33.964251750000074,
                    "velocity": 0.4566929133858268,
                    "duration": 0.10624989374999672
                },
                {
                    "name": "A3",
                    "midi": 57,
                    "time": 34.07139450000007,
                    "velocity": 0.4645669291338583,
                    "duration": 0.21428549999999547
                },
                {
                    "name": "F3",
                    "midi": 53,
                    "time": 34.17853725000007,
                    "velocity": 0.41732283464566927,
                    "duration": 0.10624989374999672
                },
                {
                    "name": "C3",
                    "midi": 48,
                    "time": 34.28568000000006,
                    "velocity": 0.6062992125984252,
                    "duration": 0.10624989374999672
                },
                {
                    "name": "F3",
                    "midi": 53,
                    "time": 34.39282275000006,
                    "velocity": 0.4094488188976378,
                    "duration": 0.10624989374999672
                },
                {
                    "name": "C4",
                    "midi": 60,
                    "time": 34.49996550000005,
                    "velocity": 0.4094488188976378,
                    "duration": 0.10624989374999672
                },
                {
                    "name": "C4",
                    "midi": 60,
                    "time": 34.607108250000046,
                    "velocity": 0.4094488188976378,
                    "duration": 0.10624989374999672
                },
                {
                    "name": "F4",
                    "midi": 65,
                    "time": 34.71425100000004,
                    "velocity": 0.48031496062992124,
                    "duration": 0.10624989374999672
                },
                {
                    "name": "C5",
                    "midi": 72,
                    "time": 34.821393750000034,
                    "velocity": 0.41732283464566927,
                    "duration": 0.10624989374999672
                },
                {
                    "name": "C5",
                    "midi": 72,
                    "time": 34.92853650000003,
                    "velocity": 0.41732283464566927,
                    "duration": 0.10624989374999672
                },
                {
                    "name": "F5",
                    "midi": 77,
                    "time": 35.03567925000002,
                    "velocity": 0.41732283464566927,
                    "duration": 0.10624989374999672
                },
                {
                    "name": "C6",
                    "midi": 84,
                    "time": 35.14282200000002,
                    "velocity": 0.5433070866141733,
                    "duration": 0.10624989374999672
                },
                {
                    "name": "F5",
                    "midi": 77,
                    "time": 35.24996475000001,
                    "velocity": 0.4330708661417323,
                    "duration": 0.10624989374999672
                },
                {
                    "name": "C5",
                    "midi": 72,
                    "time": 35.357107500000005,
                    "velocity": 0.4330708661417323,
                    "duration": 0.10624989374999672
                },
                {
                    "name": "C5",
                    "midi": 72,
                    "time": 35.46425025,
                    "velocity": 0.4330708661417323,
                    "duration": 0.10624989374999672
                },
                {
                    "name": "F4",
                    "midi": 65,
                    "time": 35.57139299999999,
                    "velocity": 0.48031496062992124,
                    "duration": 0.10624989374999672
                },
                {
                    "name": "C4",
                    "midi": 60,
                    "time": 35.67853574999999,
                    "velocity": 0.41732283464566927,
                    "duration": 0.10624989374999672
                },
                {
                    "name": "C4",
                    "midi": 60,
                    "time": 35.78567849999998,
                    "velocity": 0.41732283464566927,
                    "duration": 0.10624989374999672
                },
                {
                    "name": "F3",
                    "midi": 53,
                    "time": 35.892821249999976,
                    "velocity": 0.41732283464566927,
                    "duration": 0.10624989374999672
                },
                {
                    "name": "C3",
                    "midi": 48,
                    "time": 35.99996399999997,
                    "velocity": 0.6062992125984252,
                    "duration": 0.10624989374999672
                },
                {
                    "name": "E3",
                    "midi": 52,
                    "time": 36.107106749999964,
                    "velocity": 0.4094488188976378,
                    "duration": 0.10624989374999672
                },
                {
                    "name": "C4",
                    "midi": 60,
                    "time": 36.21424949999996,
                    "velocity": 0.4094488188976378,
                    "duration": 0.10624989374999672
                },
                {
                    "name": "C4",
                    "midi": 60,
                    "time": 36.32139224999995,
                    "velocity": 0.4094488188976378,
                    "duration": 0.10624989374999672
                },
                {
                    "name": "E4",
                    "midi": 64,
                    "time": 36.42853499999995,
                    "velocity": 0.48031496062992124,
                    "duration": 0.10624989374999672
                },
                {
                    "name": "C5",
                    "midi": 72,
                    "time": 36.53567774999994,
                    "velocity": 0.41732283464566927,
                    "duration": 0.10624989374999672
                },
                {
                    "name": "C5",
                    "midi": 72,
                    "time": 36.642820499999935,
                    "velocity": 0.41732283464566927,
                    "duration": 0.10624989374999672
                },
                {
                    "name": "E5",
                    "midi": 76,
                    "time": 36.74996324999993,
                    "velocity": 0.41732283464566927,
                    "duration": 0.10624989374999672
                },
                {
                    "name": "C6",
                    "midi": 84,
                    "time": 36.85710599999992,
                    "velocity": 0.5433070866141733,
                    "duration": 0.10624989374999672
                },
                {
                    "name": "E5",
                    "midi": 76,
                    "time": 36.96424874999992,
                    "velocity": 0.4330708661417323,
                    "duration": 0.10624989374999672
                },
                {
                    "name": "C5",
                    "midi": 72,
                    "time": 37.07139149999991,
                    "velocity": 0.4330708661417323,
                    "duration": 0.10624989374999672
                },
                {
                    "name": "C5",
                    "midi": 72,
                    "time": 37.178534249999906,
                    "velocity": 0.4330708661417323,
                    "duration": 0.10624989374999672
                },
                {
                    "name": "E4",
                    "midi": 64,
                    "time": 37.2856769999999,
                    "velocity": 0.48031496062992124,
                    "duration": 0.10624989374999672
                },
                {
                    "name": "C4",
                    "midi": 60,
                    "time": 37.392819749999894,
                    "velocity": 0.41732283464566927,
                    "duration": 0.10624989374999672
                },
                {
                    "name": "C4",
                    "midi": 60,
                    "time": 37.49996249999989,
                    "velocity": 0.41732283464566927,
                    "duration": 0.10624989374999672
                },
                {
                    "name": "E3",
                    "midi": 52,
                    "time": 37.60710524999988,
                    "velocity": 0.41732283464566927,
                    "duration": 0.10624989374999672
                },
                {
                    "name": "C3",
                    "midi": 48,
                    "time": 37.71424799999988,
                    "velocity": 0.5905511811023622,
                    "duration": 0.10624989374999672
                },
                {
                    "name": "D#3",
                    "midi": 51,
                    "time": 37.82139074999987,
                    "velocity": 0.3779527559055118,
                    "duration": 0.10624989374999672
                },
                {
                    "name": "C4",
                    "midi": 60,
                    "time": 37.928533499999865,
                    "velocity": 0.3779527559055118,
                    "duration": 0.10624989374999672
                },
                {
                    "name": "C4",
                    "midi": 60,
                    "time": 38.03567624999986,
                    "velocity": 0.3779527559055118,
                    "duration": 0.10624989374999672
                },
                {
                    "name": "D#4",
                    "midi": 63,
                    "time": 38.142818999999854,
                    "velocity": 0.4409448818897638,
                    "duration": 0.10624989374999672
                },
                {
                    "name": "C5",
                    "midi": 72,
                    "time": 38.24996174999985,
                    "velocity": 0.3858267716535433,
                    "duration": 0.10624989374999672
                },
                {
                    "name": "C5",
                    "midi": 72,
                    "time": 38.35710449999984,
                    "velocity": 0.3858267716535433,
                    "duration": 0.10624989374999672
                },
                {
                    "name": "D#5",
                    "midi": 75,
                    "time": 38.464247249999836,
                    "velocity": 0.3858267716535433,
                    "duration": 0.10624989374999672
                },
                {
                    "name": "C6",
                    "midi": 84,
                    "time": 38.57138999999983,
                    "velocity": 0.49606299212598426,
                    "duration": 0.10624989374999672
                },
                {
                    "name": "C6",
                    "midi": 84,
                    "time": 38.678532749999825,
                    "velocity": 0.3858267716535433,
                    "duration": 0.10624989374999672
                },
                {
                    "name": "D#6",
                    "midi": 87,
                    "time": 38.78567549999982,
                    "velocity": 0.3858267716535433,
                    "duration": 0.10624989374999672
                },
                {
                    "name": "C7",
                    "midi": 96,
                    "time": 38.89281824999981,
                    "velocity": 0.3858267716535433,
                    "duration": 0.10624989374999672
                },
                {
                    "name": "D#6",
                    "midi": 87,
                    "time": 38.99996099999981,
                    "velocity": 0.4409448818897638,
                    "duration": 0.10624989374999672
                },
                {
                    "name": "C6",
                    "midi": 84,
                    "time": 39.1071037499998,
                    "velocity": 0.3858267716535433,
                    "duration": 0.10624989374999672
                },
                {
                    "name": "C6",
                    "midi": 84,
                    "time": 39.214246499999796,
                    "velocity": 0.3858267716535433,
                    "duration": 0.10624989374999672
                },
                {
                    "name": "D#5",
                    "midi": 75,
                    "time": 39.32138924999979,
                    "velocity": 0.3858267716535433,
                    "duration": 0.10624989374999672
                },
                {
                    "name": "C5",
                    "midi": 72,
                    "time": 39.428531999999784,
                    "velocity": 0.47244094488188976,
                    "duration": 0.10624989374999672
                },
                {
                    "name": "C5",
                    "midi": 72,
                    "time": 39.53567474999978,
                    "velocity": 0.3779527559055118,
                    "duration": 0.10624989374999672
                },
                {
                    "name": "D#4",
                    "midi": 63,
                    "time": 39.64281749999977,
                    "velocity": 0.3779527559055118,
                    "duration": 0.10624989374999672
                },
                {
                    "name": "C4",
                    "midi": 60,
                    "time": 39.749960249999766,
                    "velocity": 0.3779527559055118,
                    "duration": 0.10624989374999672
                },
                {
                    "name": "C4",
                    "midi": 60,
                    "time": 39.85710299999976,
                    "velocity": 0.5433070866141733,
                    "duration": 0.4285709999999838
                },
                {
                    "name": "D#3",
                    "midi": 51,
                    "time": 39.96424574999976,
                    "velocity": 0.3858267716535433,
                    "duration": 0.10624989374999672
                },
                {
                    "name": "C3",
                    "midi": 48,
                    "time": 40.071388499999756,
                    "velocity": 0.3858267716535433,
                    "duration": 0.10624989374999672
                },
                {
                    "name": "D#3",
                    "midi": 51,
                    "time": 40.17853124999975,
                    "velocity": 0.3858267716535433,
                    "duration": 0.10624989374999672
                },
                {
                    "name": "A#2",
                    "midi": 46,
                    "time": 40.285673999999744,
                    "velocity": 0.5433070866141733,
                    "duration": 0.10624989374999672
                },
                {
                    "name": "D#3",
                    "midi": 51,
                    "time": 40.39281674999974,
                    "velocity": 0.3858267716535433,
                    "duration": 0.10624989374999672
                },
                {
                    "name": "A#3",
                    "midi": 58,
                    "time": 40.49995949999973,
                    "velocity": 0.5039370078740157,
                    "duration": 0.10624989374999672
                },
                {
                    "name": "D#3",
                    "midi": 51,
                    "time": 40.60710224999973,
                    "velocity": 0.4015748031496063,
                    "duration": 0.10624989374999672
                },
                {
                    "name": "C#3",
                    "midi": 49,
                    "time": 40.71424499999972,
                    "velocity": 0.5354330708661418,
                    "duration": 0.10624989374999672
                },
                {
                    "name": "D#3",
                    "midi": 51,
                    "time": 40.821387749999715,
                    "velocity": 0.3858267716535433,
                    "duration": 0.10624989374999672
                },
                {
                    "name": "D#4",
                    "midi": 63,
                    "time": 40.92853049999971,
                    "velocity": 0.47244094488188976,
                    "duration": 0.10624989374999672
                },
                {
                    "name": "D#3",
                    "midi": 51,
                    "time": 41.035673249999704,
                    "velocity": 0.3858267716535433,
                    "duration": 0.10624989374999672
                },
                {
                    "name": "C3",
                    "midi": 48,
                    "time": 41.1428159999997,
                    "velocity": 0.5905511811023622,
                    "duration": 0.10624989374999672
                },
                {
                    "name": "D#3",
                    "midi": 51,
                    "time": 41.24995874999969,
                    "velocity": 0.3779527559055118,
                    "duration": 0.10624989374999672
                },
                {
                    "name": "C4",
                    "midi": 60,
                    "time": 41.357101499999686,
                    "velocity": 0.3779527559055118,
                    "duration": 0.10624989374999672
                },
                {
                    "name": "C4",
                    "midi": 60,
                    "time": 41.46424424999968,
                    "velocity": 0.3779527559055118,
                    "duration": 0.21428549999999547
                },
                {
                    "name": "D#4",
                    "midi": 63,
                    "time": 41.57138699999968,
                    "velocity": 0.4409448818897638,
                    "duration": 0.10624989374999672
                },
                {
                    "name": "C5",
                    "midi": 72,
                    "time": 41.678529749999676,
                    "velocity": 0.3858267716535433,
                    "duration": 0.10624989374999672
                },
                {
                    "name": "C5",
                    "midi": 72,
                    "time": 41.78567249999967,
                    "velocity": 0.3858267716535433,
                    "duration": 0.10624989374999672
                },
                {
                    "name": "D#5",
                    "midi": 75,
                    "time": 41.892815249999664,
                    "velocity": 0.3858267716535433,
                    "duration": 0.10624989374999672
                },
                {
                    "name": "C6",
                    "midi": 84,
                    "time": 41.99995799999966,
                    "velocity": 0.49606299212598426,
                    "duration": 0.10624989374999672
                },
                {
                    "name": "C6",
                    "midi": 84,
                    "time": 42.10710074999965,
                    "velocity": 0.3858267716535433,
                    "duration": 0.10624989374999672
                },
                {
                    "name": "D#6",
                    "midi": 87,
                    "time": 42.21424349999965,
                    "velocity": 0.3858267716535433,
                    "duration": 0.10624989374999672
                },
                {
                    "name": "C7",
                    "midi": 96,
                    "time": 42.32138624999964,
                    "velocity": 0.3858267716535433,
                    "duration": 0.10624989374999672
                },
                {
                    "name": "D#6",
                    "midi": 87,
                    "time": 42.428528999999635,
                    "velocity": 0.4409448818897638,
                    "duration": 0.10624989374999672
                },
                {
                    "name": "C6",
                    "midi": 84,
                    "time": 42.53567174999963,
                    "velocity": 0.3858267716535433,
                    "duration": 0.10624989374999672
                },
                {
                    "name": "C6",
                    "midi": 84,
                    "time": 42.64281449999962,
                    "velocity": 0.3858267716535433,
                    "duration": 0.10624989374999672
                },
                {
                    "name": "D#5",
                    "midi": 75,
                    "time": 42.74995724999962,
                    "velocity": 0.3858267716535433,
                    "duration": 0.10624989374999672
                },
                {
                    "name": "C5",
                    "midi": 72,
                    "time": 42.85709999999961,
                    "velocity": 0.47244094488188976,
                    "duration": 0.10624989374999672
                },
                {
                    "name": "C5",
                    "midi": 72,
                    "time": 42.964242749999606,
                    "velocity": 0.3779527559055118,
                    "duration": 0.10624989374999672
                },
                {
                    "name": "D#4",
                    "midi": 63,
                    "time": 43.0713854999996,
                    "velocity": 0.3779527559055118,
                    "duration": 0.10624989374999672
                },
                {
                    "name": "C4",
                    "midi": 60,
                    "time": 43.178528249999594,
                    "velocity": 0.3779527559055118,
                    "duration": 0.10624989374999672
                },
                {
                    "name": "C4",
                    "midi": 60,
                    "time": 43.28567099999959,
                    "velocity": 0.5433070866141733,
                    "duration": 0.4285709999999838
                },
                {
                    "name": "D#3",
                    "midi": 51,
                    "time": 43.39281374999959,
                    "velocity": 0.3858267716535433,
                    "duration": 0.10624989374999672
                },
                {
                    "name": "C3",
                    "midi": 48,
                    "time": 43.499956499999584,
                    "velocity": 0.3858267716535433,
                    "duration": 0.10624989374999672
                },
                {
                    "name": "D#3",
                    "midi": 51,
                    "time": 43.60709924999958,
                    "velocity": 0.3858267716535433,
                    "duration": 0.10624989374999672
                },
                {
                    "name": "A#2",
                    "midi": 46,
                    "time": 43.71424199999957,
                    "velocity": 0.5433070866141733,
                    "duration": 0.10624989374999672
                },
                {
                    "name": "D#3",
                    "midi": 51,
                    "time": 43.82138474999957,
                    "velocity": 0.3858267716535433,
                    "duration": 0.10624989374999672
                },
                {
                    "name": "A#3",
                    "midi": 58,
                    "time": 43.92852749999956,
                    "velocity": 0.5039370078740157,
                    "duration": 0.10624989374999672
                },
                {
                    "name": "D#3",
                    "midi": 51,
                    "time": 44.035670249999555,
                    "velocity": 0.4015748031496063,
                    "duration": 0.10624989374999672
                },
                {
                    "name": "G#2",
                    "midi": 44,
                    "time": 44.14281299999955,
                    "velocity": 0.5354330708661418,
                    "duration": 0.10624989374999672
                },
                {
                    "name": "D#3",
                    "midi": 51,
                    "time": 44.24995574999954,
                    "velocity": 0.3858267716535433,
                    "duration": 0.10624989374999672
                },
                {
                    "name": "G#3",
                    "midi": 56,
                    "time": 44.35709849999954,
                    "velocity": 0.47244094488188976,
                    "duration": 0.10624989374999672
                },
                {
                    "name": "D#3",
                    "midi": 51,
                    "time": 44.46424124999953,
                    "velocity": 0.3858267716535433,
                    "duration": 0.10624989374999672
                },
                {
                    "name": "A#2",
                    "midi": 46,
                    "time": 44.571383999999526,
                    "velocity": 0.5905511811023622,
                    "duration": 0.10624989374999672
                },
                {
                    "name": "D#3",
                    "midi": 51,
                    "time": 44.67852674999952,
                    "velocity": 0.3779527559055118,
                    "duration": 0.10624989374999672
                },
                {
                    "name": "A#3",
                    "midi": 58,
                    "time": 44.785669499999514,
                    "velocity": 0.3779527559055118,
                    "duration": 0.10624989374999672
                },
                {
                    "name": "A#3",
                    "midi": 58,
                    "time": 44.89281224999951,
                    "velocity": 0.3779527559055118,
                    "duration": 0.21428549999999547
                },
                {
                    "name": "D#4",
                    "midi": 63,
                    "time": 44.99995499999951,
                    "velocity": 0.4409448818897638,
                    "duration": 0.10624989374999672
                },
                {
                    "name": "A#4",
                    "midi": 70,
                    "time": 45.107097749999504,
                    "velocity": 0.3858267716535433,
                    "duration": 0.10624989374999672
                },
                {
                    "name": "A#4",
                    "midi": 70,
                    "time": 45.2142404999995,
                    "velocity": 0.3858267716535433,
                    "duration": 0.10624989374999672
                },
                {
                    "name": "D#5",
                    "midi": 75,
                    "time": 45.32138324999949,
                    "velocity": 0.3858267716535433,
                    "duration": 0.10624989374999672
                },
                {
                    "name": "A#5",
                    "midi": 82,
                    "time": 45.428525999999486,
                    "velocity": 0.49606299212598426,
                    "duration": 0.10624989374999672
                },
                {
                    "name": "A#5",
                    "midi": 82,
                    "time": 45.53566874999948,
                    "velocity": 0.3858267716535433,
                    "duration": 0.10624989374999672
                },
                {
                    "name": "D#6",
                    "midi": 87,
                    "time": 45.642811499999475,
                    "velocity": 0.3858267716535433,
                    "duration": 0.10624989374999672
                },
                {
                    "name": "A#6",
                    "midi": 94,
                    "time": 45.74995424999947,
                    "velocity": 0.3858267716535433,
                    "duration": 0.10624989374999672
                },
                {
                    "name": "D#6",
                    "midi": 87,
                    "time": 45.85709699999946,
                    "velocity": 0.4409448818897638,
                    "duration": 0.10624989374999672
                },
                {
                    "name": "A#5",
                    "midi": 82,
                    "time": 45.96423974999946,
                    "velocity": 0.3858267716535433,
                    "duration": 0.10624989374999672
                },
                {
                    "name": "A#5",
                    "midi": 82,
                    "time": 46.07138249999945,
                    "velocity": 0.3858267716535433,
                    "duration": 0.10624989374999672
                },
                {
                    "name": "D#5",
                    "midi": 75,
                    "time": 46.178525249999446,
                    "velocity": 0.3858267716535433,
                    "duration": 0.10624989374999672
                },
                {
                    "name": "A#4",
                    "midi": 70,
                    "time": 46.28566799999944,
                    "velocity": 0.47244094488188976,
                    "duration": 0.10624989374999672
                },
                {
                    "name": "A#4",
                    "midi": 70,
                    "time": 46.392810749999434,
                    "velocity": 0.3779527559055118,
                    "duration": 0.10624989374999672
                },
                {
                    "name": "D#4",
                    "midi": 63,
                    "time": 46.49995349999943,
                    "velocity": 0.3779527559055118,
                    "duration": 0.10624989374999672
                },
                {
                    "name": "A#3",
                    "midi": 58,
                    "time": 46.60709624999942,
                    "velocity": 0.3779527559055118,
                    "duration": 0.10624989374999672
                },
                {
                    "name": "A#3",
                    "midi": 58,
                    "time": 46.71423899999942,
                    "velocity": 0.5196850393700787,
                    "duration": 0.4285709999999838
                },
                {
                    "name": "D#3",
                    "midi": 51,
                    "time": 46.82138174999942,
                    "velocity": 0.36220472440944884,
                    "duration": 0.10624989374999672
                },
                {
                    "name": "A#2",
                    "midi": 46,
                    "time": 46.92852449999941,
                    "velocity": 0.36220472440944884,
                    "duration": 0.10624989374999672
                },
                {
                    "name": "D#3",
                    "midi": 51,
                    "time": 47.035667249999406,
                    "velocity": 0.36220472440944884,
                    "duration": 0.10624989374999672
                },
                {
                    "name": "G#2",
                    "midi": 44,
                    "time": 47.1428099999994,
                    "velocity": 0.5196850393700787,
                    "duration": 0.10624989374999672
                },
                {
                    "name": "C#3",
                    "midi": 49,
                    "time": 47.249952749999395,
                    "velocity": 0.3700787401574803,
                    "duration": 0.10624989374999672
                },
                {
                    "name": "G#3",
                    "midi": 56,
                    "time": 47.35709549999939,
                    "velocity": 0.48031496062992124,
                    "duration": 0.4285709999999838
                },
                {
                    "name": "C#3",
                    "midi": 49,
                    "time": 47.46423824999939,
                    "velocity": 0.3858267716535433,
                    "duration": 0.10624989374999672
                },
                {
                    "name": "G#2",
                    "midi": 44,
                    "time": 47.571380999999384,
                    "velocity": 0.49606299212598426,
                    "duration": 0.10624989374999672
                },
                {
                    "name": "C#3",
                    "midi": 49,
                    "time": 47.67852374999938,
                    "velocity": 0.36220472440944884,
                    "duration": 0.10624989374999672
                },
                {
                    "name": "F3",
                    "midi": 53,
                    "time": 47.78566649999937,
                    "velocity": 0.4409448818897638,
                    "duration": 0.21428549999999547
                },
                {
                    "name": "C#3",
                    "midi": 49,
                    "time": 47.892809249999374,
                    "velocity": 0.36220472440944884,
                    "duration": 0.10624989374999672
                },
                {
                    "name": "G#2",
                    "midi": 44,
                    "time": 47.99995199999937,
                    "velocity": 0.5669291338582677,
                    "duration": 0.10624989374999672
                },
                {
                    "name": "C#3",
                    "midi": 49,
                    "time": 48.10709474999936,
                    "velocity": 0.3543307086614173,
                    "duration": 0.10624989374999672
                },
                {
                    "name": "G#3",
                    "midi": 56,
                    "time": 48.214237499999356,
                    "velocity": 0.3543307086614173,
                    "duration": 0.10624989374999672
                },
                {
                    "name": "G#3",
                    "midi": 56,
                    "time": 48.32138024999935,
                    "velocity": 0.3543307086614173,
                    "duration": 0.10624989374999672
                },
                {
                    "name": "C#4",
                    "midi": 61,
                    "time": 48.428522999999345,
                    "velocity": 0.4094488188976378,
                    "duration": 0.10624989374999672
                },
                {
                    "name": "G#4",
                    "midi": 68,
                    "time": 48.53566574999934,
                    "velocity": 0.3543307086614173,
                    "duration": 0.10624989374999672
                },
                {
                    "name": "G#4",
                    "midi": 68,
                    "time": 48.64280849999933,
                    "velocity": 0.3543307086614173,
                    "duration": 0.10624989374999672
                },
                {
                    "name": "C#5",
                    "midi": 73,
                    "time": 48.74995124999933,
                    "velocity": 0.3464566929133858,
                    "duration": 0.10624989374999672
                },
                {
                    "name": "G#5",
                    "midi": 80,
                    "time": 48.85709399999932,
                    "velocity": 0.4881889763779528,
                    "duration": 0.10624989374999672
                },
                {
                    "name": "C#5",
                    "midi": 73,
                    "time": 48.964236749999316,
                    "velocity": 0.3543307086614173,
                    "duration": 0.10624989374999672
                },
                {
                    "name": "G#4",
                    "midi": 68,
                    "time": 49.07137949999931,
                    "velocity": 0.3543307086614173,
                    "duration": 0.10624989374999672
                },
                {
                    "name": "G#4",
                    "midi": 68,
                    "time": 49.178522249999304,
                    "velocity": 0.3464566929133858,
                    "duration": 0.10624989374999672
                },
                {
                    "name": "C#4",
                    "midi": 61,
                    "time": 49.2856649999993,
                    "velocity": 0.3937007874015748,
                    "duration": 0.10624989374999672
                },
                {
                    "name": "G#3",
                    "midi": 56,
                    "time": 49.39280774999929,
                    "velocity": 0.33070866141732286,
                    "duration": 0.10624989374999672
                },
                {
                    "name": "G#3",
                    "midi": 56,
                    "time": 49.49995049999929,
                    "velocity": 0.33070866141732286,
                    "duration": 0.10624989374999672
                },
                {
                    "name": "C#3",
                    "midi": 49,
                    "time": 49.60709324999928,
                    "velocity": 0.33070866141732286,
                    "duration": 0.10624989374999672
                },
                {
                    "name": "G#2",
                    "midi": 44,
                    "time": 49.714235999999275,
                    "velocity": 0.5039370078740157,
                    "duration": 0.10624989374999672
                },
                {
                    "name": "C3",
                    "midi": 48,
                    "time": 49.82137874999927,
                    "velocity": 0.33070866141732286,
                    "duration": 0.10624989374999672
                },
                {
                    "name": "G#3",
                    "midi": 56,
                    "time": 49.92852149999926,
                    "velocity": 0.3228346456692913,
                    "duration": 0.10624989374999672
                },
                {
                    "name": "G#3",
                    "midi": 56,
                    "time": 50.03566424999926,
                    "velocity": 0.3228346456692913,
                    "duration": 0.10624989374999672
                },
                {
                    "name": "C4",
                    "midi": 60,
                    "time": 50.14280699999925,
                    "velocity": 0.3937007874015748,
                    "duration": 0.10624989374999672
                },
                {
                    "name": "G#4",
                    "midi": 68,
                    "time": 50.249949749999246,
                    "velocity": 0.30708661417322836,
                    "duration": 0.10624989374999672
                },
                {
                    "name": "C4",
                    "midi": 60,
                    "time": 50.35709249999924,
                    "velocity": 0.2992125984251969,
                    "duration": 0.10624989374999672
                },
                {
                    "name": "G#3",
                    "midi": 56,
                    "time": 50.464235249999234,
                    "velocity": 0.2992125984251969,
                    "duration": 0.10624989374999672
                },
                {
                    "name": "F#2",
                    "midi": 42,
                    "time": 50.57137799999923,
                    "velocity": 0.48031496062992124,
                    "duration": 0.10624989374999672
                },
                {
                    "name": "C3",
                    "midi": 48,
                    "time": 50.67852074999922,
                    "velocity": 0.30708661417322836,
                    "duration": 0.10624989374999672
                },
                {
                    "name": "F#3",
                    "midi": 54,
                    "time": 50.78566349999922,
                    "velocity": 0.36220472440944884,
                    "duration": 0.10624989374999672
                },
                {
                    "name": "F#3",
                    "midi": 54,
                    "time": 50.89280624999921,
                    "velocity": 0.31496062992125984,
                    "duration": 0.10624989374999672
                },
                {
                    "name": "C4",
                    "midi": 60,
                    "time": 50.999948999999205,
                    "velocity": 0.3779527559055118,
                    "duration": 0.10624989374999672
                },
                {
                    "name": "F#4",
                    "midi": 66,
                    "time": 51.1070917499992,
                    "velocity": 0.29133858267716534,
                    "duration": 0.10624989374999672
                },
                {
                    "name": "C4",
                    "midi": 60,
                    "time": 51.21423449999919,
                    "velocity": 0.3464566929133858,
                    "duration": 0.10714275000000129
                },
                {
                    "name": "F#3",
                    "midi": 54,
                    "time": 51.321377249999195,
                    "velocity": 0.28346456692913385,
                    "duration": 0.10624989374999672
                },
                {
                    "name": "G2",
                    "midi": 43,
                    "time": 51.42851999999919,
                    "velocity": 0.48031496062992124,
                    "duration": 0.10624989374999672
                },
                {
                    "name": "B2",
                    "midi": 47,
                    "time": 51.53566274999918,
                    "velocity": 0.2992125984251969,
                    "duration": 0.10624989374999672
                },
                {
                    "name": "G3",
                    "midi": 55,
                    "time": 51.64280549999918,
                    "velocity": 0.2992125984251969,
                    "duration": 0.10624989374999672
                },
                {
                    "name": "G3",
                    "midi": 55,
                    "time": 51.74994824999917,
                    "velocity": 0.2992125984251969,
                    "duration": 0.10624989374999672
                },
                {
                    "name": "B3",
                    "midi": 59,
                    "time": 51.857090999999166,
                    "velocity": 0.36220472440944884,
                    "duration": 0.10624989374999672
                },
                {
                    "name": "G4",
                    "midi": 67,
                    "time": 51.96423374999916,
                    "velocity": 0.30708661417322836,
                    "duration": 0.10624989374999672
                },
                {
                    "name": "G4",
                    "midi": 67,
                    "time": 52.071376499999154,
                    "velocity": 0.30708661417322836,
                    "duration": 0.10624989374999672
                },
                {
                    "name": "B4",
                    "midi": 71,
                    "time": 52.17851924999915,
                    "velocity": 0.31496062992125984,
                    "duration": 0.10624989374999672
                },
                {
                    "name": "G5",
                    "midi": 79,
                    "time": 52.28566199999914,
                    "velocity": 0.4409448818897638,
                    "duration": 0.10624989374999672
                },
                {
                    "name": "B4",
                    "midi": 71,
                    "time": 52.39280474999914,
                    "velocity": 0.3228346456692913,
                    "duration": 0.10624989374999672
                },
                {
                    "name": "G4",
                    "midi": 67,
                    "time": 52.49994749999913,
                    "velocity": 0.3228346456692913,
                    "duration": 0.10624989374999672
                },
                {
                    "name": "G4",
                    "midi": 67,
                    "time": 52.607090249999125,
                    "velocity": 0.3228346456692913,
                    "duration": 0.10624989374999672
                },
                {
                    "name": "B3",
                    "midi": 59,
                    "time": 52.71423299999912,
                    "velocity": 0.3700787401574803,
                    "duration": 0.10624989374999672
                },
                {
                    "name": "G3",
                    "midi": 55,
                    "time": 52.82137574999911,
                    "velocity": 0.3228346456692913,
                    "duration": 0.10624989374999672
                },
                {
                    "name": "G3",
                    "midi": 55,
                    "time": 52.92851849999911,
                    "velocity": 0.3228346456692913,
                    "duration": 0.10624989374999672
                },
                {
                    "name": "B2",
                    "midi": 47,
                    "time": 53.0356612499991,
                    "velocity": 0.3228346456692913,
                    "duration": 0.10624989374999672
                },
                {
                    "name": "G#2",
                    "midi": 44,
                    "time": 53.142803999999096,
                    "velocity": 0.5196850393700787,
                    "duration": 0.10624989374999672
                },
                {
                    "name": "C3",
                    "midi": 48,
                    "time": 53.24994674999909,
                    "velocity": 0.3228346456692913,
                    "duration": 0.10624989374999672
                },
                {
                    "name": "G#3",
                    "midi": 56,
                    "time": 53.357089499999084,
                    "velocity": 0.3228346456692913,
                    "duration": 0.10624989374999672
                },
                {
                    "name": "G#3",
                    "midi": 56,
                    "time": 53.46423224999908,
                    "velocity": 0.3228346456692913,
                    "duration": 0.10624989374999672
                },
                {
                    "name": "C4",
                    "midi": 60,
                    "time": 53.57137499999907,
                    "velocity": 0.3858267716535433,
                    "duration": 0.10624989374999672
                },
                {
                    "name": "G#4",
                    "midi": 68,
                    "time": 53.67851774999907,
                    "velocity": 0.3464566929133858,
                    "duration": 0.10624989374999672
                },
                {
                    "name": "G#4",
                    "midi": 68,
                    "time": 53.78566049999906,
                    "velocity": 0.3464566929133858,
                    "duration": 0.10624989374999672
                },
                {
                    "name": "C5",
                    "midi": 72,
                    "time": 53.892803249999055,
                    "velocity": 0.3464566929133858,
                    "duration": 0.10624989374999672
                },
                {
                    "name": "G#5",
                    "midi": 80,
                    "time": 53.99994599999905,
                    "velocity": 0.47244094488188976,
                    "duration": 0.10624989374999672
                },
                {
                    "name": "C5",
                    "midi": 72,
                    "time": 54.10708874999904,
                    "velocity": 0.3543307086614173,
                    "duration": 0.10624989374999672
                },
                {
                    "name": "G#4",
                    "midi": 68,
                    "time": 54.21423149999904,
                    "velocity": 0.3543307086614173,
                    "duration": 0.10624989374999672
                },
                {
                    "name": "G#4",
                    "midi": 68,
                    "time": 54.32137424999903,
                    "velocity": 0.3543307086614173,
                    "duration": 0.10624989374999672
                },
                {
                    "name": "C4",
                    "midi": 60,
                    "time": 54.428516999999026,
                    "velocity": 0.4015748031496063,
                    "duration": 0.10624989374999672
                },
                {
                    "name": "G#3",
                    "midi": 56,
                    "time": 54.53565974999902,
                    "velocity": 0.3543307086614173,
                    "duration": 0.10624989374999672
                },
                {
                    "name": "G#3",
                    "midi": 56,
                    "time": 54.642802499999014,
                    "velocity": 0.3543307086614173,
                    "duration": 0.10624989374999672
                },
                {
                    "name": "C3",
                    "midi": 48,
                    "time": 54.74994524999901,
                    "velocity": 0.3543307086614173,
                    "duration": 0.10624989374999672
                },
                {
                    "name": "C3",
                    "midi": 48,
                    "time": 54.857087999999,
                    "velocity": 0.5669291338582677,
                    "duration": 0.10624989374999672
                },
                {
                    "name": "F3",
                    "midi": 53,
                    "time": 54.964230749999,
                    "velocity": 0.3543307086614173,
                    "duration": 0.10624989374999672
                },
                {
                    "name": "C4",
                    "midi": 60,
                    "time": 55.07137349999899,
                    "velocity": 0.3543307086614173,
                    "duration": 0.10624989374999672
                },
                {
                    "name": "C4",
                    "midi": 60,
                    "time": 55.178516249998985,
                    "velocity": 0.3543307086614173,
                    "duration": 0.10624989374999672
                },
                {
                    "name": "F4",
                    "midi": 65,
                    "time": 55.28565899999898,
                    "velocity": 0.4094488188976378,
                    "duration": 0.10624989374999672
                },
                {
                    "name": "C5",
                    "midi": 72,
                    "time": 55.39280174999897,
                    "velocity": 0.36220472440944884,
                    "duration": 0.10624989374999672
                },
                {
                    "name": "C5",
                    "midi": 72,
                    "time": 55.49994449999897,
                    "velocity": 0.36220472440944884,
                    "duration": 0.10624989374999672
                },
                {
                    "name": "F5",
                    "midi": 77,
                    "time": 55.60708724999896,
                    "velocity": 0.3543307086614173,
                    "duration": 0.10624989374999672
                },
                {
                    "name": "C6",
                    "midi": 84,
                    "time": 55.714229999998956,
                    "velocity": 0.5039370078740157,
                    "duration": 0.10624989374999672
                },
                {
                    "name": "F5",
                    "midi": 77,
                    "time": 55.82137274999895,
                    "velocity": 0.36220472440944884,
                    "duration": 0.10624989374999672
                },
                {
                    "name": "C5",
                    "midi": 72,
                    "time": 55.928515499998944,
                    "velocity": 0.36220472440944884,
                    "duration": 0.10624989374999672
                },
                {
                    "name": "C5",
                    "midi": 72,
                    "time": 56.03565824999894,
                    "velocity": 0.36220472440944884,
                    "duration": 0.10624989374999672
                },
                {
                    "name": "F4",
                    "midi": 65,
                    "time": 56.14280099999893,
                    "velocity": 0.4015748031496063,
                    "duration": 0.10624989374999672
                },
                {
                    "name": "C4",
                    "midi": 60,
                    "time": 56.24994374999893,
                    "velocity": 0.3543307086614173,
                    "duration": 0.10624989374999672
                },
                {
                    "name": "C4",
                    "midi": 60,
                    "time": 56.35708649999892,
                    "velocity": 0.3543307086614173,
                    "duration": 0.10624989374999672
                },
                {
                    "name": "F3",
                    "midi": 53,
                    "time": 56.464229249998915,
                    "velocity": 0.3543307086614173,
                    "duration": 0.10624989374999672
                },
                {
                    "name": "B2",
                    "midi": 47,
                    "time": 56.57137199999891,
                    "velocity": 0.5433070866141733,
                    "duration": 0.10624989374999672
                },
                {
                    "name": "F3",
                    "midi": 53,
                    "time": 56.678514749998904,
                    "velocity": 0.3464566929133858,
                    "duration": 0.10624989374999672
                },
                {
                    "name": "B3",
                    "midi": 59,
                    "time": 56.7856574999989,
                    "velocity": 0.3464566929133858,
                    "duration": 0.10624989374999672
                },
                {
                    "name": "B3",
                    "midi": 59,
                    "time": 56.89280024999889,
                    "velocity": 0.3464566929133858,
                    "duration": 0.10624989374999672
                },
                {
                    "name": "F4",
                    "midi": 65,
                    "time": 56.999942999998886,
                    "velocity": 0.4015748031496063,
                    "duration": 0.10624989374999672
                },
                {
                    "name": "B4",
                    "midi": 71,
                    "time": 57.10708574999888,
                    "velocity": 0.3464566929133858,
                    "duration": 0.10624989374999672
                },
                {
                    "name": "B4",
                    "midi": 71,
                    "time": 57.214228499998875,
                    "velocity": 0.3464566929133858,
                    "duration": 0.10624989374999672
                },
                {
                    "name": "F5",
                    "midi": 77,
                    "time": 57.32137124999887,
                    "velocity": 0.3464566929133858,
                    "duration": 0.10624989374999672
                },
                {
                    "name": "B5",
                    "midi": 83,
                    "time": 57.42851399999886,
                    "velocity": 0.4881889763779528,
                    "duration": 0.10624989374999672
                },
                {
                    "name": "F5",
                    "midi": 77,
                    "time": 57.53565674999886,
                    "velocity": 0.3543307086614173,
                    "duration": 0.10624989374999672
                },
                {
                    "name": "B4",
                    "midi": 71,
                    "time": 57.64279949999885,
                    "velocity": 0.3543307086614173,
                    "duration": 0.10624989374999672
                },
                {
                    "name": "B4",
                    "midi": 71,
                    "time": 57.749942249998846,
                    "velocity": 0.3543307086614173,
                    "duration": 0.10624989374999672
                },
                {
                    "name": "F4",
                    "midi": 65,
                    "time": 57.85708499999884,
                    "velocity": 0.3937007874015748,
                    "duration": 0.10624989374999672
                },
                {
                    "name": "B3",
                    "midi": 59,
                    "time": 57.964227749998834,
                    "velocity": 0.3464566929133858,
                    "duration": 0.10624989374999672
                },
                {
                    "name": "B3",
                    "midi": 59,
                    "time": 58.07137049999883,
                    "velocity": 0.3464566929133858,
                    "duration": 0.10624989374999672
                },
                {
                    "name": "F3",
                    "midi": 53,
                    "time": 58.17851324999882,
                    "velocity": 0.3464566929133858,
                    "duration": 0.10624989374999672
                },
                {
                    "name": "B2",
                    "midi": 47,
                    "time": 58.285655999998816,
                    "velocity": 0.5354330708661418,
                    "duration": 0.10624989374999672
                },
                {
                    "name": "F3",
                    "midi": 53,
                    "time": 58.39279874999881,
                    "velocity": 0.33070866141732286,
                    "duration": 0.10624989374999672
                },
                {
                    "name": "B3",
                    "midi": 59,
                    "time": 58.499941499998805,
                    "velocity": 0.33070866141732286,
                    "duration": 0.10624989374999672
                },
                {
                    "name": "B3",
                    "midi": 59,
                    "time": 58.6070842499988,
                    "velocity": 0.33070866141732286,
                    "duration": 0.10624989374999672
                },
                {
                    "name": "F4",
                    "midi": 65,
                    "time": 58.71422699999879,
                    "velocity": 0.3937007874015748,
                    "duration": 0.10624989374999672
                },
                {
                    "name": "B4",
                    "midi": 71,
                    "time": 58.82136974999879,
                    "velocity": 0.33070866141732286,
                    "duration": 0.10624989374999672
                },
                {
                    "name": "B4",
                    "midi": 71,
                    "time": 58.92851249999878,
                    "velocity": 0.33070866141732286,
                    "duration": 0.10624989374999672
                },
                {
                    "name": "F5",
                    "midi": 77,
                    "time": 59.035655249998776,
                    "velocity": 0.3543307086614173,
                    "duration": 0.10624989374999672
                },
                {
                    "name": "B5",
                    "midi": 83,
                    "time": 59.14279799999877,
                    "velocity": 0.4881889763779528,
                    "duration": 0.10624989374999672
                },
                {
                    "name": "F5",
                    "midi": 77,
                    "time": 59.249940749998764,
                    "velocity": 0.36220472440944884,
                    "duration": 0.10624989374999672
                },
                {
                    "name": "B4",
                    "midi": 71,
                    "time": 59.35708349999876,
                    "velocity": 0.36220472440944884,
                    "duration": 0.10624989374999672
                },
                {
                    "name": "B4",
                    "midi": 71,
                    "time": 59.46422624999875,
                    "velocity": 0.36220472440944884,
                    "duration": 0.10624989374999672
                },
                {
                    "name": "F4",
                    "midi": 65,
                    "time": 59.57136899999875,
                    "velocity": 0.4015748031496063,
                    "duration": 0.10624989374999672
                },
                {
                    "name": "B3",
                    "midi": 59,
                    "time": 59.67851174999874,
                    "velocity": 0.3543307086614173,
                    "duration": 0.10624989374999672
                },
                {
                    "name": "B3",
                    "midi": 59,
                    "time": 59.785654499998735,
                    "velocity": 0.3543307086614173,
                    "duration": 0.10624989374999672
                },
                {
                    "name": "F3",
                    "midi": 53,
                    "time": 59.89279724999873,
                    "velocity": 0.3543307086614173,
                    "duration": 0.10624989374999672
                },
                {
                    "name": "C3",
                    "midi": 48,
                    "time": 59.99993999999872,
                    "velocity": 0.5748031496062992,
                    "duration": 0.10624989374999672
                },
                {
                    "name": "F3",
                    "midi": 53,
                    "time": 60.10708274999872,
                    "velocity": 0.3700787401574803,
                    "duration": 0.10624989374999672
                },
                {
                    "name": "C4",
                    "midi": 60,
                    "time": 60.21422549999871,
                    "velocity": 0.3700787401574803,
                    "duration": 0.10624989374999672
                },
                {
                    "name": "C4",
                    "midi": 60,
                    "time": 60.321368249998706,
                    "velocity": 0.3700787401574803,
                    "duration": 0.10624989374999672
                },
                {
                    "name": "F4",
                    "midi": 65,
                    "time": 60.4285109999987,
                    "velocity": 0.4409448818897638,
                    "duration": 0.10624989374999672
                },
                {
                    "name": "C5",
                    "midi": 72,
                    "time": 60.535653749998694,
                    "velocity": 0.3779527559055118,
                    "duration": 0.10624989374999672
                },
                {
                    "name": "C5",
                    "midi": 72,
                    "time": 60.64279649999869,
                    "velocity": 0.3779527559055118,
                    "duration": 0.10624989374999672
                },
                {
                    "name": "F5",
                    "midi": 77,
                    "time": 60.74993924999868,
                    "velocity": 0.3779527559055118,
                    "duration": 0.10624989374999672
                },
                {
                    "name": "C6",
                    "midi": 84,
                    "time": 60.85708199999868,
                    "velocity": 0.5433070866141733,
                    "duration": 0.10624989374999672
                },
                {
                    "name": "F5",
                    "midi": 77,
                    "time": 60.96422474999867,
                    "velocity": 0.3858267716535433,
                    "duration": 0.10624989374999672
                },
                {
                    "name": "C5",
                    "midi": 72,
                    "time": 61.071367499998665,
                    "velocity": 0.3937007874015748,
                    "duration": 0.10624989374999672
                },
                {
                    "name": "C5",
                    "midi": 72,
                    "time": 61.17851024999866,
                    "velocity": 0.3937007874015748,
                    "duration": 0.10624989374999672
                },
                {
                    "name": "F4",
                    "midi": 65,
                    "time": 61.28565299999865,
                    "velocity": 0.44881889763779526,
                    "duration": 0.10624989374999672
                },
                {
                    "name": "C4",
                    "midi": 60,
                    "time": 61.39279574999865,
                    "velocity": 0.3858267716535433,
                    "duration": 0.10624989374999672
                },
                {
                    "name": "C4",
                    "midi": 60,
                    "time": 61.49993849999864,
                    "velocity": 0.3858267716535433,
                    "duration": 0.10624989374999672
                },
                {
                    "name": "F3",
                    "midi": 53,
                    "time": 61.607081249998636,
                    "velocity": 0.3858267716535433,
                    "duration": 0.10624989374999672
                },
                {
                    "name": "D#3",
                    "midi": 51,
                    "time": 61.71422399999863,
                    "velocity": 0.6220472440944882,
                    "duration": 0.10624989374999672
                },
                {
                    "name": "F#3",
                    "midi": 54,
                    "time": 61.821366749998624,
                    "velocity": 0.3858267716535433,
                    "duration": 0.10624989374999672
                },
                {
                    "name": "D#4",
                    "midi": 63,
                    "time": 61.92850949999862,
                    "velocity": 0.3858267716535433,
                    "duration": 0.10624989374999672
                },
                {
                    "name": "D#4",
                    "midi": 63,
                    "time": 62.03565224999861,
                    "velocity": 0.3858267716535433,
                    "duration": 0.10624989374999672
                },
                {
                    "name": "F#4",
                    "midi": 66,
                    "time": 62.14279499999861,
                    "velocity": 0.4645669291338583,
                    "duration": 0.10624989374999672
                },
                {
                    "name": "D#5",
                    "midi": 75,
                    "time": 62.2499377499986,
                    "velocity": 0.3937007874015748,
                    "duration": 0.10624989374999672
                },
                {
                    "name": "D#5",
                    "midi": 75,
                    "time": 62.357080499998595,
                    "velocity": 0.3937007874015748,
                    "duration": 0.10624989374999672
                },
                {
                    "name": "F#5",
                    "midi": 78,
                    "time": 62.46422324999859,
                    "velocity": 0.4015748031496063,
                    "duration": 0.10624989374999672
                },
                {
                    "name": "D#6",
                    "midi": 87,
                    "time": 62.571365999998584,
                    "velocity": 0.5433070866141733,
                    "duration": 0.10624989374999672
                },
                {
                    "name": "F#5",
                    "midi": 78,
                    "time": 62.67850874999858,
                    "velocity": 0.4094488188976378,
                    "duration": 0.10624989374999672
                },
                {
                    "name": "D#5",
                    "midi": 75,
                    "time": 62.78565149999857,
                    "velocity": 0.4094488188976378,
                    "duration": 0.10624989374999672
                },
                {
                    "name": "D#5",
                    "midi": 75,
                    "time": 62.892794249998566,
                    "velocity": 0.4094488188976378,
                    "duration": 0.10624989374999672
                },
                {
                    "name": "F#4",
                    "midi": 66,
                    "time": 62.99993699999856,
                    "velocity": 0.47244094488188976,
                    "duration": 0.10624989374999672
                },
                {
                    "name": "D#4",
                    "midi": 63,
                    "time": 63.107079749998555,
                    "velocity": 0.4094488188976378,
                    "duration": 0.10624989374999672
                },
                {
                    "name": "D#4",
                    "midi": 63,
                    "time": 63.21422249999855,
                    "velocity": 0.4094488188976378,
                    "duration": 0.10624989374999672
                },
                {
                    "name": "F#3",
                    "midi": 54,
                    "time": 63.32136524999854,
                    "velocity": 0.4094488188976378,
                    "duration": 0.10624989374999672
                },
                {
                    "name": "D3",
                    "midi": 50,
                    "time": 63.42850799999854,
                    "velocity": 0.6614173228346457,
                    "duration": 0.10624989374999672
                },
                {
                    "name": "G3",
                    "midi": 55,
                    "time": 63.53565074999853,
                    "velocity": 0.4015748031496063,
                    "duration": 0.10624989374999672
                },
                {
                    "name": "D4",
                    "midi": 62,
                    "time": 63.642793499998525,
                    "velocity": 0.4015748031496063,
                    "duration": 0.10624989374999672
                },
                {
                    "name": "D4",
                    "midi": 62,
                    "time": 63.74993624999852,
                    "velocity": 0.4015748031496063,
                    "duration": 0.10624989374999672
                },
                {
                    "name": "G4",
                    "midi": 67,
                    "time": 63.857078999998514,
                    "velocity": 0.49606299212598426,
                    "duration": 0.10624989374999672
                },
                {
                    "name": "D5",
                    "midi": 74,
                    "time": 63.96422174999851,
                    "velocity": 0.41732283464566927,
                    "duration": 0.10624989374999672
                },
                {
                    "name": "D5",
                    "midi": 74,
                    "time": 64.07136449999851,
                    "velocity": 0.41732283464566927,
                    "duration": 0.10624989375000382
                },
                {
                    "name": "G5",
                    "midi": 79,
                    "time": 64.17850724999852,
                    "velocity": 0.41732283464566927,
                    "duration": 0.10624989375000382
                },
                {
                    "name": "D6",
                    "midi": 86,
                    "time": 64.28564999999853,
                    "velocity": 0.6062992125984252,
                    "duration": 0.10624989375000382
                },
                {
                    "name": "G5",
                    "midi": 79,
                    "time": 64.39279274999853,
                    "velocity": 0.4409448818897638,
                    "duration": 0.10624989375000382
                },
                {
                    "name": "D5",
                    "midi": 74,
                    "time": 64.49993549999854,
                    "velocity": 0.44881889763779526,
                    "duration": 0.10624989375000382
                },
                {
                    "name": "D5",
                    "midi": 74,
                    "time": 64.60707824999855,
                    "velocity": 0.44881889763779526,
                    "duration": 0.10624989375000382
                },
                {
                    "name": "G4",
                    "midi": 67,
                    "time": 64.71422099999856,
                    "velocity": 0.5196850393700787,
                    "duration": 0.10624989375000382
                },
                {
                    "name": "D4",
                    "midi": 62,
                    "time": 64.82136374999857,
                    "velocity": 0.4409448818897638,
                    "duration": 0.10624989375000382
                },
                {
                    "name": "D4",
                    "midi": 62,
                    "time": 64.92850649999858,
                    "velocity": 0.4409448818897638,
                    "duration": 0.10624989375000382
                },
                {
                    "name": "G3",
                    "midi": 55,
                    "time": 65.03564924999858,
                    "velocity": 0.4409448818897638,
                    "duration": 0.10624989375000382
                },
                {
                    "name": "D3",
                    "midi": 50,
                    "time": 65.1427919999986,
                    "velocity": 0.7165354330708661,
                    "duration": 0.10624989375000382
                },
                {
                    "name": "G#3",
                    "midi": 56,
                    "time": 65.2499347499986,
                    "velocity": 0.44881889763779526,
                    "duration": 0.10624989375000382
                },
                {
                    "name": "D4",
                    "midi": 62,
                    "time": 65.35707749999861,
                    "velocity": 0.44881889763779526,
                    "duration": 0.10624989375000382
                },
                {
                    "name": "D4",
                    "midi": 62,
                    "time": 65.46422024999862,
                    "velocity": 0.44881889763779526,
                    "duration": 0.10624989375000382
                },
                {
                    "name": "G#4",
                    "midi": 68,
                    "time": 65.57136299999863,
                    "velocity": 0.5354330708661418,
                    "duration": 0.10624989375000382
                },
                {
                    "name": "D5",
                    "midi": 74,
                    "time": 65.67850574999864,
                    "velocity": 0.4566929133858268,
                    "duration": 0.10624989375000382
                },
                {
                    "name": "D5",
                    "midi": 74,
                    "time": 65.78564849999864,
                    "velocity": 0.4566929133858268,
                    "duration": 0.10624989375000382
                },
                {
                    "name": "G#5",
                    "midi": 80,
                    "time": 65.89279124999865,
                    "velocity": 0.4566929133858268,
                    "duration": 0.10624989375000382
                },
                {
                    "name": "D6",
                    "midi": 86,
                    "time": 65.99993399999866,
                    "velocity": 0.6062992125984252,
                    "duration": 0.10624989375000382
                },
                {
                    "name": "G#5",
                    "midi": 80,
                    "time": 66.10707674999867,
                    "velocity": 0.4645669291338583,
                    "duration": 0.10624989375000382
                },
                {
                    "name": "D5",
                    "midi": 74,
                    "time": 66.21421949999868,
                    "velocity": 0.4645669291338583,
                    "duration": 0.10624989375000382
                },
                {
                    "name": "D5",
                    "midi": 74,
                    "time": 66.32136224999869,
                    "velocity": 0.4645669291338583,
                    "duration": 0.10624989375000382
                },
                {
                    "name": "G#4",
                    "midi": 68,
                    "time": 66.4285049999987,
                    "velocity": 0.5433070866141733,
                    "duration": 0.10624989375000382
                },
                {
                    "name": "D4",
                    "midi": 62,
                    "time": 66.5356477499987,
                    "velocity": 0.47244094488188976,
                    "duration": 0.10624989375000382
                },
                {
                    "name": "D4",
                    "midi": 62,
                    "time": 66.64279049999871,
                    "velocity": 0.47244094488188976,
                    "duration": 0.10624989375000382
                },
                {
                    "name": "G#3",
                    "midi": 56,
                    "time": 66.74993324999872,
                    "velocity": 0.47244094488188976,
                    "duration": 0.10624989375000382
                },
                {
                    "name": "D#3",
                    "midi": 51,
                    "time": 66.85707599999873,
                    "velocity": 0.7401574803149606,
                    "duration": 0.10624989375000382
                },
                {
                    "name": "G#3",
                    "midi": 56,
                    "time": 66.96421874999874,
                    "velocity": 0.4645669291338583,
                    "duration": 0.10624989375000382
                },
                {
                    "name": "D#4",
                    "midi": 63,
                    "time": 67.07136149999874,
                    "velocity": 0.4645669291338583,
                    "duration": 0.10624989375000382
                },
                {
                    "name": "D#4",
                    "midi": 63,
                    "time": 67.17850424999875,
                    "velocity": 0.4645669291338583,
                    "duration": 0.10624989375000382
                },
                {
                    "name": "G#4",
                    "midi": 68,
                    "time": 67.28564699999876,
                    "velocity": 0.5590551181102362,
                    "duration": 0.10624989375000382
                },
                {
                    "name": "D#5",
                    "midi": 75,
                    "time": 67.39278974999877,
                    "velocity": 0.48031496062992124,
                    "duration": 0.10624989375000382
                },
                {
                    "name": "D#5",
                    "midi": 75,
                    "time": 67.49993249999878,
                    "velocity": 0.48031496062992124,
                    "duration": 0.10624989375000382
                },
                {
                    "name": "G#5",
                    "midi": 80,
                    "time": 67.60707524999879,
                    "velocity": 0.48031496062992124,
                    "duration": 0.10624989375000382
                },
                {
                    "name": "D#6",
                    "midi": 87,
                    "time": 67.7142179999988,
                    "velocity": 0.6614173228346457,
                    "duration": 0.10624989375000382
                },
                {
                    "name": "G#5",
                    "midi": 80,
                    "time": 67.8213607499988,
                    "velocity": 0.4881889763779528,
                    "duration": 0.10624989375000382
                },
                {
                    "name": "D#5",
                    "midi": 75,
                    "time": 67.92850349999881,
                    "velocity": 0.5039370078740157,
                    "duration": 0.10624989375000382
                },
                {
                    "name": "D#5",
                    "midi": 75,
                    "time": 68.03564624999882,
                    "velocity": 0.5039370078740157,
                    "duration": 0.10624989375000382
                },
                {
                    "name": "G#4",
                    "midi": 68,
                    "time": 68.14278899999883,
                    "velocity": 0.5748031496062992,
                    "duration": 0.10624989375000382
                },
                {
                    "name": "D#4",
                    "midi": 63,
                    "time": 68.24993174999884,
                    "velocity": 0.49606299212598426,
                    "duration": 0.10624989375000382
                },
                {
                    "name": "D#4",
                    "midi": 63,
                    "time": 68.35707449999884,
                    "velocity": 0.49606299212598426,
                    "duration": 0.10624989375000382
                },
                {
                    "name": "G#3",
                    "midi": 56,
                    "time": 68.46421724999885,
                    "velocity": 0.49606299212598426,
                    "duration": 0.10624989375000382
                },
                {
                    "name": "G3",
                    "midi": 55,
                    "time": 68.57135999999886,
                    "velocity": 0.7637795275590551,
                    "duration": 0.10624989375000382
                },
                {
                    "name": "C4",
                    "midi": 60,
                    "time": 68.67850274999887,
                    "velocity": 0.49606299212598426,
                    "duration": 0.10624989375000382
                },
                {
                    "name": "G4",
                    "midi": 67,
                    "time": 68.78564549999888,
                    "velocity": 0.49606299212598426,
                    "duration": 0.10624989375000382
                },
                {
                    "name": "G4",
                    "midi": 67,
                    "time": 68.89278824999889,
                    "velocity": 0.49606299212598426,
                    "duration": 0.10624989375000382
                },
                {
                    "name": "C5",
                    "midi": 72,
                    "time": 68.9999309999989,
                    "velocity": 0.5826771653543307,
                    "duration": 0.10624989375000382
                },
                {
                    "name": "G5",
                    "midi": 79,
                    "time": 69.1070737499989,
                    "velocity": 0.5039370078740157,
                    "duration": 0.10624989375000382
                },
                {
                    "name": "G5",
                    "midi": 79,
                    "time": 69.21421649999891,
                    "velocity": 0.5039370078740157,
                    "duration": 0.10624989375000382
                },
                {
                    "name": "C6",
                    "midi": 84,
                    "time": 69.32135924999892,
                    "velocity": 0.5196850393700787,
                    "duration": 0.10624989375000382
                },
                {
                    "name": "G6",
                    "midi": 91,
                    "time": 69.42850199999893,
                    "velocity": 0.6929133858267716,
                    "duration": 0.10624989375000382
                },
                {
                    "name": "C6",
                    "midi": 84,
                    "time": 69.53564474999894,
                    "velocity": 0.5275590551181102,
                    "duration": 0.10624989375000382
                },
                {
                    "name": "G5",
                    "midi": 79,
                    "time": 69.64278749999895,
                    "velocity": 0.5275590551181102,
                    "duration": 0.10624989375000382
                },
                {
                    "name": "G5",
                    "midi": 79,
                    "time": 69.74993024999895,
                    "velocity": 0.5275590551181102,
                    "duration": 0.10624989375000382
                },
                {
                    "name": "C5",
                    "midi": 72,
                    "time": 69.85707299999896,
                    "velocity": 0.6062992125984252,
                    "duration": 0.10624989375000382
                },
                {
                    "name": "G4",
                    "midi": 67,
                    "time": 69.96421574999897,
                    "velocity": 0.5275590551181102,
                    "duration": 0.10624989375000382
                },
                {
                    "name": "G4",
                    "midi": 67,
                    "time": 70.07135849999898,
                    "velocity": 0.5275590551181102,
                    "duration": 0.10624989375000382
                },
                {
                    "name": "C4",
                    "midi": 60,
                    "time": 70.17850124999899,
                    "velocity": 0.5275590551181102,
                    "duration": 0.10624989375000382
                },
                {
                    "name": "F3",
                    "midi": 53,
                    "time": 70.285643999999,
                    "velocity": 0.7952755905511811,
                    "duration": 0.10624989375000382
                },
                {
                    "name": "C4",
                    "midi": 60,
                    "time": 70.392786749999,
                    "velocity": 0.5196850393700787,
                    "duration": 0.10624989375000382
                },
                {
                    "name": "F4",
                    "midi": 65,
                    "time": 70.49992949999901,
                    "velocity": 0.5196850393700787,
                    "duration": 0.10624989375000382
                },
                {
                    "name": "F4",
                    "midi": 65,
                    "time": 70.60707224999902,
                    "velocity": 0.5196850393700787,
                    "duration": 0.10624989375000382
                },
                {
                    "name": "C5",
                    "midi": 72,
                    "time": 70.71421499999903,
                    "velocity": 0.6299212598425197,
                    "duration": 0.10624989375000382
                },
                {
                    "name": "F5",
                    "midi": 77,
                    "time": 70.82135774999904,
                    "velocity": 0.5354330708661418,
                    "duration": 0.10624989375000382
                },
                {
                    "name": "F5",
                    "midi": 77,
                    "time": 70.92850049999905,
                    "velocity": 0.5354330708661418,
                    "duration": 0.10624989375000382
                },
                {
                    "name": "C6",
                    "midi": 84,
                    "time": 71.03564324999905,
                    "velocity": 0.5354330708661418,
                    "duration": 0.10624989375000382
                },
                {
                    "name": "F6",
                    "midi": 89,
                    "time": 71.14278599999906,
                    "velocity": 0.6929133858267716,
                    "duration": 0.10624989375000382
                },
                {
                    "name": "B5",
                    "midi": 83,
                    "time": 71.24992874999907,
                    "velocity": 0.5590551181102362,
                    "duration": 0.10624989375000382
                },
                {
                    "name": "F5",
                    "midi": 77,
                    "time": 71.35707149999908,
                    "velocity": 0.5669291338582677,
                    "duration": 0.10624989375000382
                },
                {
                    "name": "F5",
                    "midi": 77,
                    "time": 71.46421424999909,
                    "velocity": 0.5669291338582677,
                    "duration": 0.10624989375000382
                },
                {
                    "name": "B4",
                    "midi": 71,
                    "time": 71.5713569999991,
                    "velocity": 0.6377952755905512,
                    "duration": 0.10624989375000382
                },
                {
                    "name": "F4",
                    "midi": 65,
                    "time": 71.6784997499991,
                    "velocity": 0.5433070866141733,
                    "duration": 0.10624989375000382
                },
                {
                    "name": "F4",
                    "midi": 65,
                    "time": 71.78564249999911,
                    "velocity": 0.5433070866141733,
                    "duration": 0.10624989375000382
                },
                {
                    "name": "B3",
                    "midi": 59,
                    "time": 71.89278524999912,
                    "velocity": 0.5433070866141733,
                    "duration": 0.10624989375000382
                },
                {
                    "name": "G#3",
                    "midi": 56,
                    "time": 71.99992799999913,
                    "velocity": 0.8503937007874016,
                    "duration": 0.10624989375000382
                },
                {
                    "name": "B3",
                    "midi": 59,
                    "time": 72.10707074999914,
                    "velocity": 0.5275590551181102,
                    "duration": 0.10624989375000382
                },
                {
                    "name": "G#4",
                    "midi": 68,
                    "time": 72.21421349999915,
                    "velocity": 0.5275590551181102,
                    "duration": 0.10624989375000382
                },
                {
                    "name": "G#4",
                    "midi": 68,
                    "time": 72.32135624999916,
                    "velocity": 0.5275590551181102,
                    "duration": 0.10624989375000382
                },
                {
                    "name": "B4",
                    "midi": 71,
                    "time": 72.42849899999916,
                    "velocity": 0.6377952755905512,
                    "duration": 0.10624989375000382
                },
                {
                    "name": "G#5",
                    "midi": 80,
                    "time": 72.53564174999917,
                    "velocity": 0.5511811023622047,
                    "duration": 0.10624989375000382
                },
                {
                    "name": "G#5",
                    "midi": 80,
                    "time": 72.64278449999918,
                    "velocity": 0.5511811023622047,
                    "duration": 0.10624989375000382
                },
                {
                    "name": "B5",
                    "midi": 83,
                    "time": 72.74992724999919,
                    "velocity": 0.5511811023622047,
                    "duration": 0.10624989375000382
                },
                {
                    "name": "G#6",
                    "midi": 92,
                    "time": 72.8570699999992,
                    "velocity": 0.7244094488188977,
                    "duration": 0.10624989375000382
                },
                {
                    "name": "B5",
                    "midi": 83,
                    "time": 72.9642127499992,
                    "velocity": 0.5275590551181102,
                    "duration": 0.10624989375000382
                },
                {
                    "name": "G#5",
                    "midi": 80,
                    "time": 73.07135549999921,
                    "velocity": 0.5433070866141733,
                    "duration": 0.10624989375000382
                },
                {
                    "name": "G#5",
                    "midi": 80,
                    "time": 73.17849824999922,
                    "velocity": 0.5433070866141733,
                    "duration": 0.10624989375000382
                },
                {
                    "name": "B4",
                    "midi": 71,
                    "time": 73.28564099999923,
                    "velocity": 0.6456692913385826,
                    "duration": 0.10624989375000382
                },
                {
                    "name": "G#4",
                    "midi": 68,
                    "time": 73.39278374999924,
                    "velocity": 0.5275590551181102,
                    "duration": 0.10624989375000382
                },
                {
                    "name": "G#4",
                    "midi": 68,
                    "time": 73.49992649999925,
                    "velocity": 0.5275590551181102,
                    "duration": 0.10624989375000382
                },
                {
                    "name": "B3",
                    "midi": 59,
                    "time": 73.60706924999926,
                    "velocity": 0.5275590551181102,
                    "duration": 0.10624989375000382
                },
                {
                    "name": "G3",
                    "midi": 55,
                    "time": 73.71421199999926,
                    "velocity": 0.8346456692913385,
                    "duration": 0.10624989375000382
                },
                {
                    "name": "B3",
                    "midi": 59,
                    "time": 73.82135474999927,
                    "velocity": 0.5275590551181102,
                    "duration": 0.10624989375000382
                },
                {
                    "name": "G4",
                    "midi": 67,
                    "time": 73.92849749999928,
                    "velocity": 0.5275590551181102,
                    "duration": 0.10624989375000382
                },
                {
                    "name": "G4",
                    "midi": 67,
                    "time": 74.03564024999929,
                    "velocity": 0.5275590551181102,
                    "duration": 0.10624989375000382
                },
                {
                    "name": "B4",
                    "midi": 71,
                    "time": 74.1427829999993,
                    "velocity": 0.6377952755905512,
                    "duration": 0.10624989375000382
                },
                {
                    "name": "G5",
                    "midi": 79,
                    "time": 74.2499257499993,
                    "velocity": 0.5511811023622047,
                    "duration": 0.10624989375000382
                },
                {
                    "name": "G5",
                    "midi": 79,
                    "time": 74.35706849999931,
                    "velocity": 0.5511811023622047,
                    "duration": 0.10624989375000382
                },
                {
                    "name": "B5",
                    "midi": 83,
                    "time": 74.46421124999932,
                    "velocity": 0.5511811023622047,
                    "duration": 0.10624989375000382
                },
                {
                    "name": "G6",
                    "midi": 91,
                    "time": 74.57135399999933,
                    "velocity": 0.7086614173228346,
                    "duration": 0.10624989375000382
                },
                {
                    "name": "B5",
                    "midi": 83,
                    "time": 74.67849674999934,
                    "velocity": 0.5275590551181102,
                    "duration": 0.10624989375000382
                },
                {
                    "name": "G5",
                    "midi": 79,
                    "time": 74.78563949999935,
                    "velocity": 0.5433070866141733,
                    "duration": 0.10624989375000382
                },
                {
                    "name": "G5",
                    "midi": 79,
                    "time": 74.89278224999936,
                    "velocity": 0.5433070866141733,
                    "duration": 0.10624989375000382
                },
                {
                    "name": "B4",
                    "midi": 71,
                    "time": 74.99992499999937,
                    "velocity": 0.6456692913385826,
                    "duration": 0.10624989375000382
                },
                {
                    "name": "G4",
                    "midi": 67,
                    "time": 75.10706774999937,
                    "velocity": 0.5275590551181102,
                    "duration": 0.10624989375000382
                },
                {
                    "name": "G4",
                    "midi": 67,
                    "time": 75.21421049999938,
                    "velocity": 0.5275590551181102,
                    "duration": 0.10624989375000382
                },
                {
                    "name": "B3",
                    "midi": 59,
                    "time": 75.32135324999939,
                    "velocity": 0.5275590551181102,
                    "duration": 0.10624989375000382
                },
                {
                    "name": "G2",
                    "midi": 43,
                    "time": 75.4284959999994,
                    "velocity": 0.7874015748031497,
                    "duration": 0.10624989375000382
                },
                {
                    "name": "B2",
                    "midi": 47,
                    "time": 75.5356387499994,
                    "velocity": 0.48031496062992124,
                    "duration": 0.10624989375000382
                },
                {
                    "name": "G3",
                    "midi": 55,
                    "time": 75.64278149999942,
                    "velocity": 0.4881889763779528,
                    "duration": 0.10624989375000382
                },
                {
                    "name": "G3",
                    "midi": 55,
                    "time": 75.74992424999942,
                    "velocity": 0.5039370078740157,
                    "duration": 0.10624989375000382
                },
                {
                    "name": "B3",
                    "midi": 59,
                    "time": 75.85706699999943,
                    "velocity": 0.5905511811023622,
                    "duration": 0.10624989375000382
                },
                {
                    "name": "G4",
                    "midi": 67,
                    "time": 75.96420974999944,
                    "velocity": 0.5196850393700787,
                    "duration": 0.10624989375000382
                },
                {
                    "name": "B3",
                    "midi": 59,
                    "time": 76.07135249999945,
                    "velocity": 0.5275590551181102,
                    "duration": 0.10624989375000382
                },
                {
                    "name": "G3",
                    "midi": 55,
                    "time": 76.17849524999946,
                    "velocity": 0.5354330708661418,
                    "duration": 0.10624989375000382
                },
                {
                    "name": "G2",
                    "midi": 43,
                    "time": 76.28563799999947,
                    "velocity": 0.8267716535433071,
                    "duration": 0.10624989375000382
                },
                {
                    "name": "C3",
                    "midi": 48,
                    "time": 76.39278074999947,
                    "velocity": 0.5354330708661418,
                    "duration": 0.10624989375000382
                },
                {
                    "name": "G3",
                    "midi": 55,
                    "time": 76.49992349999948,
                    "velocity": 0.5354330708661418,
                    "duration": 0.10624989375000382
                },
                {
                    "name": "G3",
                    "midi": 55,
                    "time": 76.60706624999949,
                    "velocity": 0.5433070866141733,
                    "duration": 0.10624989375000382
                },
                {
                    "name": "C4",
                    "midi": 60,
                    "time": 76.7142089999995,
                    "velocity": 0.6299212598425197,
                    "duration": 0.10624989375000382
                },
                {
                    "name": "G4",
                    "midi": 67,
                    "time": 76.82135174999951,
                    "velocity": 0.5511811023622047,
                    "duration": 0.10624989375000382
                },
                {
                    "name": "C4",
                    "midi": 60,
                    "time": 76.92849449999952,
                    "velocity": 0.5590551181102362,
                    "duration": 0.10624989375000382
                },
                {
                    "name": "G3",
                    "midi": 55,
                    "time": 77.03563724999952,
                    "velocity": 0.5669291338582677,
                    "duration": 0.10624989375000382
                },
                {
                    "name": "G2",
                    "midi": 43,
                    "time": 77.14277999999953,
                    "velocity": 0.8346456692913385,
                    "duration": 0.10624989375000382
                },
                {
                    "name": "C#3",
                    "midi": 49,
                    "time": 77.24992274999954,
                    "velocity": 0.5433070866141733,
                    "duration": 0.10624989375000382
                },
                {
                    "name": "G3",
                    "midi": 55,
                    "time": 77.35706549999955,
                    "velocity": 0.5511811023622047,
                    "duration": 0.10624989375000382
                },
                {
                    "name": "G3",
                    "midi": 55,
                    "time": 77.46420824999956,
                    "velocity": 0.5590551181102362,
                    "duration": 0.10624989375000382
                },
                {
                    "name": "C#4",
                    "midi": 61,
                    "time": 77.57135099999957,
                    "velocity": 0.6377952755905512,
                    "duration": 0.10624989375000382
                },
                {
                    "name": "G4",
                    "midi": 67,
                    "time": 77.67849374999957,
                    "velocity": 0.5669291338582677,
                    "duration": 0.10624989375000382
                },
                {
                    "name": "C#4",
                    "midi": 61,
                    "time": 77.78563649999958,
                    "velocity": 0.5826771653543307,
                    "duration": 0.10624989375000382
                },
                {
                    "name": "G3",
                    "midi": 55,
                    "time": 77.89277924999959,
                    "velocity": 0.5984251968503937,
                    "duration": 0.10624989375000382
                },
                {
                    "name": "G2",
                    "midi": 43,
                    "time": 77.9999219999996,
                    "velocity": 0.8582677165354331,
                    "duration": 0.10624989375000382
                },
                {
                    "name": "C#3",
                    "midi": 49,
                    "time": 78.10706474999961,
                    "velocity": 0.5748031496062992,
                    "duration": 0.10624989375000382
                },
                {
                    "name": "G3",
                    "midi": 55,
                    "time": 78.21420749999962,
                    "velocity": 0.5905511811023622,
                    "duration": 0.10624989375000382
                },
                {
                    "name": "C#3",
                    "midi": 49,
                    "time": 78.32135024999963,
                    "velocity": 0.5905511811023622,
                    "duration": 0.10624989375000382
                },
                {
                    "name": "G2",
                    "midi": 43,
                    "time": 78.42849299999963,
                    "velocity": 0.7559055118110236,
                    "duration": 0.10624989375000382
                },
                {
                    "name": "D3",
                    "midi": 50,
                    "time": 78.53563574999964,
                    "velocity": 0.5748031496062992,
                    "duration": 0.10624989375000382
                },
                {
                    "name": "G3",
                    "midi": 55,
                    "time": 78.64277849999965,
                    "velocity": 0.5669291338582677,
                    "duration": 0.10624989375000382
                },
                {
                    "name": "D3",
                    "midi": 50,
                    "time": 78.74992124999966,
                    "velocity": 0.5669291338582677,
                    "duration": 0.10624989375000382
                },
                {
                    "name": "D#3",
                    "midi": 51,
                    "time": 78.85706399999967,
                    "velocity": 0.8503937007874016,
                    "duration": 0.10624989375000382
                },
                {
                    "name": "G3",
                    "midi": 55,
                    "time": 78.96420674999968,
                    "velocity": 0.5511811023622047,
                    "duration": 0.10624989375000382
                },
                {
                    "name": "D#4",
                    "midi": 63,
                    "time": 79.07134949999968,
                    "velocity": 0.5511811023622047,
                    "duration": 0.10624989375000382
                },
                {
                    "name": "D#4",
                    "midi": 63,
                    "time": 79.17849224999969,
                    "velocity": 0.5511811023622047,
                    "duration": 0.10624989375000382
                },
                {
                    "name": "G4",
                    "midi": 67,
                    "time": 79.2856349999997,
                    "velocity": 0.6456692913385826,
                    "duration": 0.10624989375000382
                },
                {
                    "name": "D#5",
                    "midi": 75,
                    "time": 79.39277774999971,
                    "velocity": 0.5669291338582677,
                    "duration": 0.10624989375000382
                },
                {
                    "name": "D#5",
                    "midi": 75,
                    "time": 79.49992049999972,
                    "velocity": 0.5511811023622047,
                    "duration": 0.10624989375000382
                },
                {
                    "name": "G5",
                    "midi": 79,
                    "time": 79.60706324999973,
                    "velocity": 0.5511811023622047,
                    "duration": 0.10624989375000382
                },
                {
                    "name": "D#6",
                    "midi": 87,
                    "time": 79.71420599999973,
                    "velocity": 0.7086614173228346,
                    "duration": 0.10624989375000382
                },
                {
                    "name": "G5",
                    "midi": 79,
                    "time": 79.82134874999974,
                    "velocity": 0.5826771653543307,
                    "duration": 0.10624989375000382
                },
                {
                    "name": "D#5",
                    "midi": 75,
                    "time": 79.92849149999975,
                    "velocity": 0.5826771653543307,
                    "duration": 0.10624989375000382
                },
                {
                    "name": "D#5",
                    "midi": 75,
                    "time": 80.03563424999976,
                    "velocity": 0.5826771653543307,
                    "duration": 0.10624989375000382
                },
                {
                    "name": "G4",
                    "midi": 67,
                    "time": 80.14277699999977,
                    "velocity": 0.6456692913385826,
                    "duration": 0.10624989375000382
                },
                {
                    "name": "D#4",
                    "midi": 63,
                    "time": 80.24991974999978,
                    "velocity": 0.5511811023622047,
                    "duration": 0.10624989375000382
                },
                {
                    "name": "D#4",
                    "midi": 63,
                    "time": 80.35706249999978,
                    "velocity": 0.5511811023622047,
                    "duration": 0.10624989375000382
                },
                {
                    "name": "G3",
                    "midi": 55,
                    "time": 80.4642052499998,
                    "velocity": 0.5511811023622047,
                    "duration": 0.10624989375000382
                },
                {
                    "name": "D3",
                    "midi": 50,
                    "time": 80.5713479999998,
                    "velocity": 0.84251968503937,
                    "duration": 0.10624989375000382
                },
                {
                    "name": "G#3",
                    "midi": 56,
                    "time": 80.67849074999981,
                    "velocity": 0.5196850393700787,
                    "duration": 0.10624989375000382
                },
                {
                    "name": "D4",
                    "midi": 62,
                    "time": 80.78563349999982,
                    "velocity": 0.5196850393700787,
                    "duration": 0.10624989375000382
                },
                {
                    "name": "D4",
                    "midi": 62,
                    "time": 80.89277624999983,
                    "velocity": 0.5196850393700787,
                    "duration": 0.10624989375000382
                },
                {
                    "name": "G#4",
                    "midi": 68,
                    "time": 80.99991899999984,
                    "velocity": 0.6456692913385826,
                    "duration": 0.10624989375000382
                },
                {
                    "name": "D5",
                    "midi": 74,
                    "time": 81.10706174999984,
                    "velocity": 0.5275590551181102,
                    "duration": 0.10624989375000382
                },
                {
                    "name": "D5",
                    "midi": 74,
                    "time": 81.21420449999985,
                    "velocity": 0.5196850393700787,
                    "duration": 0.10624989375000382
                },
                {
                    "name": "G#5",
                    "midi": 80,
                    "time": 81.32134724999986,
                    "velocity": 0.5196850393700787,
                    "duration": 0.10624989375000382
                },
                {
                    "name": "D6",
                    "midi": 86,
                    "time": 81.42848999999987,
                    "velocity": 0.7244094488188977,
                    "duration": 0.10624989375000382
                },
                {
                    "name": "G#5",
                    "midi": 80,
                    "time": 81.53563274999988,
                    "velocity": 0.5669291338582677,
                    "duration": 0.10624989375000382
                },
                {
                    "name": "D5",
                    "midi": 74,
                    "time": 81.64277549999989,
                    "velocity": 0.5511811023622047,
                    "duration": 0.10624989375000382
                },
                {
                    "name": "D5",
                    "midi": 74,
                    "time": 81.7499182499999,
                    "velocity": 0.5511811023622047,
                    "duration": 0.10624989375000382
                },
                {
                    "name": "G#4",
                    "midi": 68,
                    "time": 81.8570609999999,
                    "velocity": 0.6220472440944882,
                    "duration": 0.10624989375000382
                },
                {
                    "name": "D4",
                    "midi": 62,
                    "time": 81.96420374999991,
                    "velocity": 0.5433070866141733,
                    "duration": 0.10624989375000382
                },
                {
                    "name": "D4",
                    "midi": 62,
                    "time": 82.07134649999992,
                    "velocity": 0.5433070866141733,
                    "duration": 0.10624989375000382
                },
                {
                    "name": "G#3",
                    "midi": 56,
                    "time": 82.17848924999993,
                    "velocity": 0.5275590551181102,
                    "duration": 0.10624989375000382
                },
                {
                    "name": "F3",
                    "midi": 53,
                    "time": 82.28563199999994,
                    "velocity": 0.84251968503937,
                    "duration": 0.10624989375000382
                },
                {
                    "name": "C4",
                    "midi": 60,
                    "time": 82.39277474999994,
                    "velocity": 0.5511811023622047,
                    "duration": 0.10624989375000382
                },
                {
                    "name": "F4",
                    "midi": 65,
                    "time": 82.49991749999995,
                    "velocity": 0.5511811023622047,
                    "duration": 0.10624989375000382
                },
                {
                    "name": "F4",
                    "midi": 65,
                    "time": 82.60706024999996,
                    "velocity": 0.5511811023622047,
                    "duration": 0.10624989375000382
                },
                {
                    "name": "C5",
                    "midi": 72,
                    "time": 82.71420299999997,
                    "velocity": 0.6456692913385826,
                    "duration": 0.10624989375000382
                },
                {
                    "name": "F5",
                    "midi": 77,
                    "time": 82.82134574999998,
                    "velocity": 0.5669291338582677,
                    "duration": 0.10624989375000382
                },
                {
                    "name": "F5",
                    "midi": 77,
                    "time": 82.92848849999999,
                    "velocity": 0.5669291338582677,
                    "duration": 0.10624989375000382
                },
                {
                    "name": "C6",
                    "midi": 84,
                    "time": 83.03563125,
                    "velocity": 0.5669291338582677,
                    "duration": 0.10624989375000382
                },
                {
                    "name": "F6",
                    "midi": 89,
                    "time": 83.142774,
                    "velocity": 0.6929133858267716,
                    "duration": 0.10624989375000382
                },
                {
                    "name": "C6",
                    "midi": 84,
                    "time": 83.24991675000001,
                    "velocity": 0.5826771653543307,
                    "duration": 0.10624989375000382
                },
                {
                    "name": "F5",
                    "midi": 77,
                    "time": 83.35705950000002,
                    "velocity": 0.5826771653543307,
                    "duration": 0.10624989375000382
                },
                {
                    "name": "F5",
                    "midi": 77,
                    "time": 83.46420225000003,
                    "velocity": 0.5826771653543307,
                    "duration": 0.10624989375000382
                },
                {
                    "name": "C5",
                    "midi": 72,
                    "time": 83.57134500000004,
                    "velocity": 0.6456692913385826,
                    "duration": 0.10624989375000382
                },
                {
                    "name": "F4",
                    "midi": 65,
                    "time": 83.67848775000004,
                    "velocity": 0.5669291338582677,
                    "duration": 0.10624989375000382
                },
                {
                    "name": "F4",
                    "midi": 65,
                    "time": 83.78563050000005,
                    "velocity": 0.5669291338582677,
                    "duration": 0.10624989375000382
                },
                {
                    "name": "C4",
                    "midi": 60,
                    "time": 83.89277325000006,
                    "velocity": 0.5669291338582677,
                    "duration": 0.10624989375000382
                },
                {
                    "name": "D#3",
                    "midi": 51,
                    "time": 83.99991600000007,
                    "velocity": 0.8582677165354331,
                    "duration": 0.10624989375000382
                },
                {
                    "name": "G3",
                    "midi": 55,
                    "time": 84.10705875000008,
                    "velocity": 0.5511811023622047,
                    "duration": 0.10624989375000382
                },
                {
                    "name": "D#4",
                    "midi": 63,
                    "time": 84.21420150000009,
                    "velocity": 0.5511811023622047,
                    "duration": 0.10624989375000382
                },
                {
                    "name": "D#4",
                    "midi": 63,
                    "time": 84.3213442500001,
                    "velocity": 0.5511811023622047,
                    "duration": 0.10624989375000382
                },
                {
                    "name": "G4",
                    "midi": 67,
                    "time": 84.4284870000001,
                    "velocity": 0.6456692913385826,
                    "duration": 0.10624989375000382
                },
                {
                    "name": "D#5",
                    "midi": 75,
                    "time": 84.53562975000011,
                    "velocity": 0.5669291338582677,
                    "duration": 0.10624989375000382
                },
                {
                    "name": "D#5",
                    "midi": 75,
                    "time": 84.64277250000012,
                    "velocity": 0.5511811023622047,
                    "duration": 0.10624989375000382
                },
                {
                    "name": "G5",
                    "midi": 79,
                    "time": 84.74991525000013,
                    "velocity": 0.5511811023622047,
                    "duration": 0.10624989375000382
                },
                {
                    "name": "D#6",
                    "midi": 87,
                    "time": 84.85705800000014,
                    "velocity": 0.7165354330708661,
                    "duration": 0.10624989375000382
                },
                {
                    "name": "G5",
                    "midi": 79,
                    "time": 84.96420075000015,
                    "velocity": 0.5826771653543307,
                    "duration": 0.10624989375000382
                },
                {
                    "name": "D#5",
                    "midi": 75,
                    "time": 85.07134350000015,
                    "velocity": 0.5826771653543307,
                    "duration": 0.10624989375000382
                },
                {
                    "name": "D#5",
                    "midi": 75,
                    "time": 85.17848625000016,
                    "velocity": 0.5826771653543307,
                    "duration": 0.10624989375000382
                },
                {
                    "name": "G4",
                    "midi": 67,
                    "time": 85.28562900000017,
                    "velocity": 0.6456692913385826,
                    "duration": 0.10624989375000382
                },
                {
                    "name": "D#4",
                    "midi": 63,
                    "time": 85.39277175000018,
                    "velocity": 0.5511811023622047,
                    "duration": 0.10624989375000382
                },
                {
                    "name": "D#4",
                    "midi": 63,
                    "time": 85.49991450000019,
                    "velocity": 0.5511811023622047,
                    "duration": 0.10624989375000382
                },
                {
                    "name": "G3",
                    "midi": 55,
                    "time": 85.6070572500002,
                    "velocity": 0.5511811023622047,
                    "duration": 0.10624989375000382
                },
                {
                    "name": "D3",
                    "midi": 50,
                    "time": 85.7142000000002,
                    "velocity": 0.8661417322834646,
                    "duration": 0.10624989375000382
                },
                {
                    "name": "G#3",
                    "midi": 56,
                    "time": 85.82134275000021,
                    "velocity": 0.5196850393700787,
                    "duration": 0.10624989375000382
                },
                {
                    "name": "D4",
                    "midi": 62,
                    "time": 85.92848550000022,
                    "velocity": 0.5196850393700787,
                    "duration": 0.10624989375000382
                },
                {
                    "name": "D4",
                    "midi": 62,
                    "time": 86.03562825000023,
                    "velocity": 0.5196850393700787,
                    "duration": 0.10624989375000382
                },
                {
                    "name": "G#4",
                    "midi": 68,
                    "time": 86.14277100000024,
                    "velocity": 0.6456692913385826,
                    "duration": 0.10624989375000382
                },
                {
                    "name": "D5",
                    "midi": 74,
                    "time": 86.24991375000025,
                    "velocity": 0.5275590551181102,
                    "duration": 0.10624989375000382
                },
                {
                    "name": "D5",
                    "midi": 74,
                    "time": 86.35705650000025,
                    "velocity": 0.5196850393700787,
                    "duration": 0.10624989375000382
                },
                {
                    "name": "G#5",
                    "midi": 80,
                    "time": 86.46419925000026,
                    "velocity": 0.5196850393700787,
                    "duration": 0.10624989375000382
                },
                {
                    "name": "D6",
                    "midi": 86,
                    "time": 86.57134200000027,
                    "velocity": 0.7480314960629921,
                    "duration": 0.10624989375000382
                },
                {
                    "name": "G#5",
                    "midi": 80,
                    "time": 86.67848475000028,
                    "velocity": 0.5669291338582677,
                    "duration": 0.10624989375000382
                },
                {
                    "name": "D5",
                    "midi": 74,
                    "time": 86.78562750000029,
                    "velocity": 0.5511811023622047,
                    "duration": 0.10624989375000382
                },
                {
                    "name": "D5",
                    "midi": 74,
                    "time": 86.8927702500003,
                    "velocity": 0.5511811023622047,
                    "duration": 0.10624989375000382
                },
                {
                    "name": "G#4",
                    "midi": 68,
                    "time": 86.9999130000003,
                    "velocity": 0.6220472440944882,
                    "duration": 0.10624989375000382
                },
                {
                    "name": "D4",
                    "midi": 62,
                    "time": 87.10705575000031,
                    "velocity": 0.5433070866141733,
                    "duration": 0.10624989375000382
                },
                {
                    "name": "D4",
                    "midi": 62,
                    "time": 87.21419850000032,
                    "velocity": 0.5433070866141733,
                    "duration": 0.10624989375000382
                },
                {
                    "name": "G#3",
                    "midi": 56,
                    "time": 87.32134125000033,
                    "velocity": 0.5275590551181102,
                    "duration": 0.10624989375000382
                },
                {
                    "name": "D#3",
                    "midi": 51,
                    "time": 87.42848400000034,
                    "velocity": 0.8582677165354331,
                    "duration": 0.10624989375000382
                },
                {
                    "name": "G#3",
                    "midi": 56,
                    "time": 87.53562675000035,
                    "velocity": 0.5511811023622047,
                    "duration": 0.10624989375000382
                },
                {
                    "name": "D#4",
                    "midi": 63,
                    "time": 87.64276950000036,
                    "velocity": 0.5511811023622047,
                    "duration": 0.10624989375000382
                },
                {
                    "name": "D#4",
                    "midi": 63,
                    "time": 87.74991225000036,
                    "velocity": 0.5511811023622047,
                    "duration": 0.10624989375000382
                },
                {
                    "name": "G#4",
                    "midi": 68,
                    "time": 87.85705500000037,
                    "velocity": 0.6456692913385826,
                    "duration": 0.10624989375000382
                },
                {
                    "name": "D#5",
                    "midi": 75,
                    "time": 87.96419775000038,
                    "velocity": 0.5669291338582677,
                    "duration": 0.10624989375000382
                },
                {
                    "name": "D#5",
                    "midi": 75,
                    "time": 88.07134050000039,
                    "velocity": 0.5669291338582677,
                    "duration": 0.10624989375000382
                },
                {
                    "name": "G#5",
                    "midi": 80,
                    "time": 88.1784832500004,
                    "velocity": 0.5669291338582677,
                    "duration": 0.10624989375000382
                },
                {
                    "name": "D#6",
                    "midi": 87,
                    "time": 88.2856260000004,
                    "velocity": 0.7401574803149606,
                    "duration": 0.10624989375000382
                },
                {
                    "name": "G#5",
                    "midi": 80,
                    "time": 88.39276875000041,
                    "velocity": 0.5826771653543307,
                    "duration": 0.10624989375000382
                },
                {
                    "name": "D#5",
                    "midi": 75,
                    "time": 88.49991150000042,
                    "velocity": 0.5826771653543307,
                    "duration": 0.10624989375000382
                },
                {
                    "name": "D#5",
                    "midi": 75,
                    "time": 88.60705425000043,
                    "velocity": 0.5826771653543307,
                    "duration": 0.10624989375000382
                },
                {
                    "name": "G#4",
                    "midi": 68,
                    "time": 88.71419700000044,
                    "velocity": 0.6456692913385826,
                    "duration": 0.10624989375000382
                },
                {
                    "name": "D#4",
                    "midi": 63,
                    "time": 88.82133975000045,
                    "velocity": 0.5669291338582677,
                    "duration": 0.10624989375000382
                },
                {
                    "name": "D#4",
                    "midi": 63,
                    "time": 88.92848250000046,
                    "velocity": 0.5669291338582677,
                    "duration": 0.10624989375000382
                },
                {
                    "name": "G#3",
                    "midi": 56,
                    "time": 89.03562525000046,
                    "velocity": 0.5669291338582677,
                    "duration": 0.10624989375000382
                },
                {
                    "name": "C3",
                    "midi": 48,
                    "time": 89.14276800000047,
                    "velocity": 0.8346456692913385,
                    "duration": 0.10624989375000382
                },
                {
                    "name": "D#3",
                    "midi": 51,
                    "time": 89.24991075000048,
                    "velocity": 0.5511811023622047,
                    "duration": 0.10624989375000382
                },
                {
                    "name": "C4",
                    "midi": 60,
                    "time": 89.35705350000049,
                    "velocity": 0.5511811023622047,
                    "duration": 0.10624989375000382
                },
                {
                    "name": "C4",
                    "midi": 60,
                    "time": 89.4641962500005,
                    "velocity": 0.5511811023622047,
                    "duration": 0.10624989375000382
                },
                {
                    "name": "D#4",
                    "midi": 63,
                    "time": 89.5713390000005,
                    "velocity": 0.6141732283464567,
                    "duration": 0.10624989375000382
                },
                {
                    "name": "C5",
                    "midi": 72,
                    "time": 89.67848175000051,
                    "velocity": 0.6692913385826772,
                    "duration": 0.42857100000001935
                },
                {
                    "name": "D#4",
                    "midi": 63,
                    "time": 89.78562450000051,
                    "velocity": 0.5196850393700787,
                    "duration": 0.10624989375000382
                },
                {
                    "name": "C4",
                    "midi": 60,
                    "time": 89.89276725000052,
                    "velocity": 0.5039370078740157,
                    "duration": 0.10624989375000382
                },
                {
                    "name": "D#4",
                    "midi": 63,
                    "time": 89.99991000000053,
                    "velocity": 0.5826771653543307,
                    "duration": 0.10624989375000382
                },
                {
                    "name": "A#4",
                    "midi": 70,
                    "time": 90.10705275000053,
                    "velocity": 0.6377952755905512,
                    "duration": 0.42857100000001935
                },
                {
                    "name": "D#4",
                    "midi": 63,
                    "time": 90.21419550000053,
                    "velocity": 0.5039370078740157,
                    "duration": 0.10624989375000382
                },
                {
                    "name": "C4",
                    "midi": 60,
                    "time": 90.32133825000054,
                    "velocity": 0.5039370078740157,
                    "duration": 0.10624989375000382
                },
                {
                    "name": "D#4",
                    "midi": 63,
                    "time": 90.42848100000055,
                    "velocity": 0.5748031496062992,
                    "duration": 0.10624989375000382
                },
                {
                    "name": "G#4",
                    "midi": 68,
                    "time": 90.53562375000055,
                    "velocity": 0.6062992125984252,
                    "duration": 0.42857100000001935
                },
                {
                    "name": "D#4",
                    "midi": 63,
                    "time": 90.64276650000055,
                    "velocity": 0.47244094488188976,
                    "duration": 0.10624989375000382
                },
                {
                    "name": "C4",
                    "midi": 60,
                    "time": 90.74990925000056,
                    "velocity": 0.47244094488188976,
                    "duration": 0.10624989375000382
                },
                {
                    "name": "D4",
                    "midi": 62,
                    "time": 90.85705200000056,
                    "velocity": 0.5433070866141733,
                    "duration": 0.10624989375000382
                },
                {
                    "name": "G4",
                    "midi": 67,
                    "time": 90.96419475000057,
                    "velocity": 0.5905511811023622,
                    "duration": 0.42857100000001935
                },
                {
                    "name": "D4",
                    "midi": 62,
                    "time": 91.07133750000057,
                    "velocity": 0.4566929133858268,
                    "duration": 0.10624989375000382
                },
                {
                    "name": "B3",
                    "midi": 59,
                    "time": 91.17848025000058,
                    "velocity": 0.4566929133858268,
                    "duration": 0.10624989375000382
                },
                {
                    "name": "C#4",
                    "midi": 61,
                    "time": 91.28562300000058,
                    "velocity": 0.5196850393700787,
                    "duration": 0.10624989375000382
                },
                {
                    "name": "G4",
                    "midi": 67,
                    "time": 91.39276575000059,
                    "velocity": 0.5748031496062992,
                    "duration": 0.42857100000001935
                },
                {
                    "name": "C#4",
                    "midi": 61,
                    "time": 91.49990850000059,
                    "velocity": 0.4566929133858268,
                    "duration": 0.10624989375000382
                },
                {
                    "name": "A#3",
                    "midi": 58,
                    "time": 91.6070512500006,
                    "velocity": 0.4409448818897638,
                    "duration": 0.10624989375000382
                },
                {
                    "name": "C4",
                    "midi": 60,
                    "time": 91.7141940000006,
                    "velocity": 0.49606299212598426,
                    "duration": 0.10624989375000382
                },
                {
                    "name": "F4",
                    "midi": 65,
                    "time": 91.82133675000061,
                    "velocity": 0.5511811023622047,
                    "duration": 0.42857100000001935
                },
                {
                    "name": "C4",
                    "midi": 60,
                    "time": 91.9284795000006,
                    "velocity": 0.4330708661417323,
                    "duration": 0.10624989375000382
                },
                {
                    "name": "A3",
                    "midi": 57,
                    "time": 92.03562225000061,
                    "velocity": 0.41732283464566927,
                    "duration": 0.10624989375000382
                },
                {
                    "name": "B3",
                    "midi": 59,
                    "time": 92.14276500000062,
                    "velocity": 0.4645669291338583,
                    "duration": 0.10624989375000382
                },
                {
                    "name": "F4",
                    "midi": 65,
                    "time": 92.24990775000063,
                    "velocity": 0.5196850393700787,
                    "duration": 0.32142825000001096
                },
                {
                    "name": "B3",
                    "midi": 59,
                    "time": 92.35705050000062,
                    "velocity": 0.4094488188976378,
                    "duration": 0.10624989375000382
                },
                {
                    "name": "G#3",
                    "midi": 56,
                    "time": 92.46419325000063,
                    "velocity": 0.3937007874015748,
                    "duration": 0.10624989375000382
                },
                {
                    "name": "D#3",
                    "midi": 51,
                    "time": 92.57133600000064,
                    "velocity": 0.6614173228346457,
                    "duration": 0.10624989375000382
                },
                {
                    "name": "G3",
                    "midi": 55,
                    "time": 92.67847875000065,
                    "velocity": 0.4094488188976378,
                    "duration": 0.10624989375000382
                },
                {
                    "name": "D#4",
                    "midi": 63,
                    "time": 92.78562150000066,
                    "velocity": 0.4094488188976378,
                    "duration": 0.10624989375000382
                },
                {
                    "name": "D#4",
                    "midi": 63,
                    "time": 92.89276425000067,
                    "velocity": 0.41732283464566927,
                    "duration": 0.10624989375000382
                },
                {
                    "name": "G4",
                    "midi": 67,
                    "time": 92.99990700000068,
                    "velocity": 0.49606299212598426,
                    "duration": 0.10624989375000382
                },
                {
                    "name": "D#5",
                    "midi": 75,
                    "time": 93.10704975000068,
                    "velocity": 0.4409448818897638,
                    "duration": 0.10624989375000382
                },
                {
                    "name": "D#5",
                    "midi": 75,
                    "time": 93.21419250000069,
                    "velocity": 0.4330708661417323,
                    "duration": 0.10624989375000382
                },
                {
                    "name": "G5",
                    "midi": 79,
                    "time": 93.3213352500007,
                    "velocity": 0.4330708661417323,
                    "duration": 0.10624989375000382
                },
                {
                    "name": "D#6",
                    "midi": 87,
                    "time": 93.42847800000071,
                    "velocity": 0.6220472440944882,
                    "duration": 0.10624989375000382
                },
                {
                    "name": "G5",
                    "midi": 79,
                    "time": 93.53562075000072,
                    "velocity": 0.4566929133858268,
                    "duration": 0.10624989375000382
                },
                {
                    "name": "D#5",
                    "midi": 75,
                    "time": 93.64276350000073,
                    "velocity": 0.4645669291338583,
                    "duration": 0.10624989375000382
                },
                {
                    "name": "D#5",
                    "midi": 75,
                    "time": 93.74990625000073,
                    "velocity": 0.4645669291338583,
                    "duration": 0.10624989375000382
                },
                {
                    "name": "G4",
                    "midi": 67,
                    "time": 93.85704900000074,
                    "velocity": 0.5275590551181102,
                    "duration": 0.10624989375000382
                },
                {
                    "name": "D#4",
                    "midi": 63,
                    "time": 93.96419175000075,
                    "velocity": 0.4409448818897638,
                    "duration": 0.10624989375000382
                },
                {
                    "name": "D#4",
                    "midi": 63,
                    "time": 94.07133450000076,
                    "velocity": 0.4409448818897638,
                    "duration": 0.10624989375000382
                },
                {
                    "name": "G3",
                    "midi": 55,
                    "time": 94.17847725000077,
                    "velocity": 0.44881889763779526,
                    "duration": 0.10624989375000382
                },
                {
                    "name": "D3",
                    "midi": 50,
                    "time": 94.28562000000078,
                    "velocity": 0.7244094488188977,
                    "duration": 0.10624989375000382
                },
                {
                    "name": "G#3",
                    "midi": 56,
                    "time": 94.39276275000078,
                    "velocity": 0.4330708661417323,
                    "duration": 0.10624989375000382
                },
                {
                    "name": "D4",
                    "midi": 62,
                    "time": 94.49990550000079,
                    "velocity": 0.4330708661417323,
                    "duration": 0.10624989375000382
                },
                {
                    "name": "D4",
                    "midi": 62,
                    "time": 94.6070482500008,
                    "velocity": 0.4330708661417323,
                    "duration": 0.10624989375000382
                },
                {
                    "name": "G#4",
                    "midi": 68,
                    "time": 94.71419100000081,
                    "velocity": 0.5433070866141733,
                    "duration": 0.10624989375000382
                },
                {
                    "name": "D5",
                    "midi": 74,
                    "time": 94.82133375000082,
                    "velocity": 0.4409448818897638,
                    "duration": 0.10624989375000382
                },
                {
                    "name": "D5",
                    "midi": 74,
                    "time": 94.92847650000083,
                    "velocity": 0.4409448818897638,
                    "duration": 0.10624989375000382
                },
                {
                    "name": "G#5",
                    "midi": 80,
                    "time": 95.03561925000083,
                    "velocity": 0.4409448818897638,
                    "duration": 0.10624989375000382
                },
                {
                    "name": "D6",
                    "midi": 86,
                    "time": 95.14276200000084,
                    "velocity": 0.6220472440944882,
                    "duration": 0.10624989375000382
                },
                {
                    "name": "G#5",
                    "midi": 80,
                    "time": 95.24990475000085,
                    "velocity": 0.48031496062992124,
                    "duration": 0.10624989375000382
                },
                {
                    "name": "D5",
                    "midi": 74,
                    "time": 95.35704750000086,
                    "velocity": 0.4645669291338583,
                    "duration": 0.10624989375000382
                },
                {
                    "name": "D5",
                    "midi": 74,
                    "time": 95.46419025000087,
                    "velocity": 0.47244094488188976,
                    "duration": 0.10624989375000382
                },
                {
                    "name": "G#4",
                    "midi": 68,
                    "time": 95.57133300000088,
                    "velocity": 0.5354330708661418,
                    "duration": 0.10624989375000382
                },
                {
                    "name": "D4",
                    "midi": 62,
                    "time": 95.67847575000089,
                    "velocity": 0.47244094488188976,
                    "duration": 0.10624989375000382
                },
                {
                    "name": "D4",
                    "midi": 62,
                    "time": 95.7856185000009,
                    "velocity": 0.47244094488188976,
                    "duration": 0.10624989375000382
                },
                {
                    "name": "G#3",
                    "midi": 56,
                    "time": 95.8927612500009,
                    "velocity": 0.4645669291338583,
                    "duration": 0.10624989375000382
                },
                {
                    "name": "E3",
                    "midi": 52,
                    "time": 95.99990400000091,
                    "velocity": 0.7874015748031497,
                    "duration": 0.10624989375000382
                },
                {
                    "name": "A#3",
                    "midi": 58,
                    "time": 96.10704675000092,
                    "velocity": 0.4566929133858268,
                    "duration": 0.10624989375000382
                },
                {
                    "name": "E4",
                    "midi": 64,
                    "time": 96.21418950000093,
                    "velocity": 0.4645669291338583,
                    "duration": 0.10624989375000382
                },
                {
                    "name": "E4",
                    "midi": 64,
                    "time": 96.32133225000094,
                    "velocity": 0.4645669291338583,
                    "duration": 0.10624989375000382
                },
                {
                    "name": "A#4",
                    "midi": 70,
                    "time": 96.42847500000094,
                    "velocity": 0.5826771653543307,
                    "duration": 0.10624989375000382
                },
                {
                    "name": "E5",
                    "midi": 76,
                    "time": 96.53561775000095,
                    "velocity": 0.48031496062992124,
                    "duration": 0.10624989375000382
                },
                {
                    "name": "E5",
                    "midi": 76,
                    "time": 96.64276050000096,
                    "velocity": 0.47244094488188976,
                    "duration": 0.10624989375000382
                },
                {
                    "name": "A#5",
                    "midi": 82,
                    "time": 96.74990325000097,
                    "velocity": 0.47244094488188976,
                    "duration": 0.10624989375000382
                },
                {
                    "name": "E6",
                    "midi": 88,
                    "time": 96.85704600000098,
                    "velocity": 0.6614173228346457,
                    "duration": 0.10624989375000382
                },
                {
                    "name": "A#5",
                    "midi": 82,
                    "time": 96.96418875000099,
                    "velocity": 0.5275590551181102,
                    "duration": 0.10624989375000382
                },
                {
                    "name": "E5",
                    "midi": 76,
                    "time": 97.071331500001,
                    "velocity": 0.5039370078740157,
                    "duration": 0.10624989375000382
                },
                {
                    "name": "E5",
                    "midi": 76,
                    "time": 97.178474250001,
                    "velocity": 0.5039370078740157,
                    "duration": 0.10624989375000382
                },
                {
                    "name": "A#4",
                    "midi": 70,
                    "time": 97.28561700000101,
                    "velocity": 0.5748031496062992,
                    "duration": 0.10624989375000382
                },
                {
                    "name": "E4",
                    "midi": 64,
                    "time": 97.39275975000102,
                    "velocity": 0.49606299212598426,
                    "duration": 0.10624989375000382
                },
                {
                    "name": "E4",
                    "midi": 64,
                    "time": 97.49990250000103,
                    "velocity": 0.5039370078740157,
                    "duration": 0.10624989375000382
                },
                {
                    "name": "B3",
                    "midi": 59,
                    "time": 97.60704525000104,
                    "velocity": 0.49606299212598426,
                    "duration": 0.21428550000000257
                },
                {
                    "name": "F3",
                    "midi": 53,
                    "time": 97.71418800000103,
                    "velocity": 0.8031496062992126,
                    "duration": 0.10624989375000382
                },
                {
                    "name": "G#3",
                    "midi": 56,
                    "time": 97.82133075000104,
                    "velocity": 0.47244094488188976,
                    "duration": 0.10624989375000382
                },
                {
                    "name": "F4",
                    "midi": 65,
                    "time": 97.92847350000105,
                    "velocity": 0.47244094488188976,
                    "duration": 0.10624989375000382
                },
                {
                    "name": "F4",
                    "midi": 65,
                    "time": 98.03561625000106,
                    "velocity": 0.47244094488188976,
                    "duration": 0.10624989375000382
                },
                {
                    "name": "G#4",
                    "midi": 68,
                    "time": 98.14275900000106,
                    "velocity": 0.5826771653543307,
                    "duration": 0.10624989375000382
                },
                {
                    "name": "F5",
                    "midi": 77,
                    "time": 98.24990175000107,
                    "velocity": 0.48031496062992124,
                    "duration": 0.10624989375000382
                },
                {
                    "name": "F5",
                    "midi": 77,
                    "time": 98.35704450000108,
                    "velocity": 0.47244094488188976,
                    "duration": 0.10624989375000382
                },
                {
                    "name": "G#5",
                    "midi": 80,
                    "time": 98.46418725000109,
                    "velocity": 0.47244094488188976,
                    "duration": 0.10624989375000382
                },
                {
                    "name": "F6",
                    "midi": 89,
                    "time": 98.5713300000011,
                    "velocity": 0.6535433070866141,
                    "duration": 0.10624989375000382
                },
                {
                    "name": "G#5",
                    "midi": 80,
                    "time": 98.6784727500011,
                    "velocity": 0.5039370078740157,
                    "duration": 0.10624989375000382
                },
                {
                    "name": "F5",
                    "midi": 77,
                    "time": 98.78561550000111,
                    "velocity": 0.4881889763779528,
                    "duration": 0.10624989375000382
                },
                {
                    "name": "F5",
                    "midi": 77,
                    "time": 98.89275825000112,
                    "velocity": 0.4881889763779528,
                    "duration": 0.10624989375000382
                },
                {
                    "name": "G#4",
                    "midi": 68,
                    "time": 98.99990100000113,
                    "velocity": 0.5590551181102362,
                    "duration": 0.10624989375000382
                },
                {
                    "name": "F4",
                    "midi": 65,
                    "time": 99.10704375000114,
                    "velocity": 0.4881889763779528,
                    "duration": 0.10624989375000382
                },
                {
                    "name": "F4",
                    "midi": 65,
                    "time": 99.21418650000115,
                    "velocity": 0.4881889763779528,
                    "duration": 0.10624989375000382
                },
                {
                    "name": "G#3",
                    "midi": 56,
                    "time": 99.32132925000116,
                    "velocity": 0.48031496062992124,
                    "duration": 0.10624989375000382
                },
                {
                    "name": "F3",
                    "midi": 53,
                    "time": 99.42847200000116,
                    "velocity": 0.7637795275590551,
                    "duration": 0.10624989375000382
                },
                {
                    "name": "G#3",
                    "midi": 56,
                    "time": 99.53561475000117,
                    "velocity": 0.4566929133858268,
                    "duration": 0.10624989375000382
                },
                {
                    "name": "F4",
                    "midi": 65,
                    "time": 99.64275750000118,
                    "velocity": 0.4566929133858268,
                    "duration": 0.10624989375000382
                },
                {
                    "name": "F4",
                    "midi": 65,
                    "time": 99.74990025000119,
                    "velocity": 0.4566929133858268,
                    "duration": 0.10624989375000382
                },
                {
                    "name": "G#4",
                    "midi": 68,
                    "time": 99.8570430000012,
                    "velocity": 0.5590551181102362,
                    "duration": 0.10624989375000382
                },
                {
                    "name": "F5",
                    "midi": 77,
                    "time": 99.9641857500012,
                    "velocity": 0.4645669291338583,
                    "duration": 0.10624989375000382
                },
                {
                    "name": "F5",
                    "midi": 77,
                    "time": 100.07132850000121,
                    "velocity": 0.4566929133858268,
                    "duration": 0.10624989375000382
                },
                {
                    "name": "G#5",
                    "midi": 80,
                    "time": 100.17847125000122,
                    "velocity": 0.4566929133858268,
                    "duration": 0.10624989375000382
                },
                {
                    "name": "F6",
                    "midi": 89,
                    "time": 100.28561400000123,
                    "velocity": 0.6377952755905512,
                    "duration": 0.10624989375000382
                },
                {
                    "name": "G#5",
                    "midi": 80,
                    "time": 100.39275675000124,
                    "velocity": 0.49606299212598426,
                    "duration": 0.10624989375000382
                },
                {
                    "name": "F5",
                    "midi": 77,
                    "time": 100.49989950000125,
                    "velocity": 0.4881889763779528,
                    "duration": 0.10624989375000382
                },
                {
                    "name": "F5",
                    "midi": 77,
                    "time": 100.60704225000126,
                    "velocity": 0.4881889763779528,
                    "duration": 0.10624989375000382
                },
                {
                    "name": "G#4",
                    "midi": 68,
                    "time": 100.71418500000127,
                    "velocity": 0.5433070866141733,
                    "duration": 0.10624989375000382
                },
                {
                    "name": "F4",
                    "midi": 65,
                    "time": 100.82132775000127,
                    "velocity": 0.47244094488188976,
                    "duration": 0.10624989375000382
                },
                {
                    "name": "F4",
                    "midi": 65,
                    "time": 100.92847050000128,
                    "velocity": 0.47244094488188976,
                    "duration": 0.10624989375000382
                },
                {
                    "name": "G#3",
                    "midi": 56,
                    "time": 101.03561325000129,
                    "velocity": 0.4645669291338583,
                    "duration": 0.10624989375000382
                },
                {
                    "name": "E3",
                    "midi": 52,
                    "time": 101.1427560000013,
                    "velocity": 0.7952755905511811,
                    "duration": 0.10624989375000382
                },
                {
                    "name": "A#3",
                    "midi": 58,
                    "time": 101.24989875000131,
                    "velocity": 0.4645669291338583,
                    "duration": 0.10624989375000382
                },
                {
                    "name": "E4",
                    "midi": 64,
                    "time": 101.35704150000132,
                    "velocity": 0.4645669291338583,
                    "duration": 0.10624989375000382
                },
                {
                    "name": "E4",
                    "midi": 64,
                    "time": 101.46418425000132,
                    "velocity": 0.4645669291338583,
                    "duration": 0.10624989375000382
                },
                {
                    "name": "A#4",
                    "midi": 70,
                    "time": 101.57132700000133,
                    "velocity": 0.5826771653543307,
                    "duration": 0.10624989375000382
                },
                {
                    "name": "E5",
                    "midi": 76,
                    "time": 101.67846975000134,
                    "velocity": 0.47244094488188976,
                    "duration": 0.10624989375000382
                },
                {
                    "name": "E5",
                    "midi": 76,
                    "time": 101.78561250000135,
                    "velocity": 0.4645669291338583,
                    "duration": 0.10624989375000382
                },
                {
                    "name": "A#5",
                    "midi": 82,
                    "time": 101.89275525000136,
                    "velocity": 0.4645669291338583,
                    "duration": 0.10624989375000382
                },
                {
                    "name": "E6",
                    "midi": 88,
                    "time": 101.99989800000137,
                    "velocity": 0.6692913385826772,
                    "duration": 0.10624989375000382
                },
                {
                    "name": "A#5",
                    "midi": 82,
                    "time": 102.10704075000137,
                    "velocity": 0.5039370078740157,
                    "duration": 0.10624989375000382
                },
                {
                    "name": "E5",
                    "midi": 76,
                    "time": 102.21418350000138,
                    "velocity": 0.49606299212598426,
                    "duration": 0.10624989375000382
                },
                {
                    "name": "E5",
                    "midi": 76,
                    "time": 102.32132625000139,
                    "velocity": 0.49606299212598426,
                    "duration": 0.10624989375000382
                },
                {
                    "name": "A#4",
                    "midi": 70,
                    "time": 102.4284690000014,
                    "velocity": 0.5590551181102362,
                    "duration": 0.10624989375000382
                },
                {
                    "name": "E4",
                    "midi": 64,
                    "time": 102.53561175000141,
                    "velocity": 0.48031496062992124,
                    "duration": 0.10624989375000382
                },
                {
                    "name": "E4",
                    "midi": 64,
                    "time": 102.64275450000142,
                    "velocity": 0.48031496062992124,
                    "duration": 0.10624989375000382
                },
                {
                    "name": "A#3",
                    "midi": 58,
                    "time": 102.74989725000142,
                    "velocity": 0.47244094488188976,
                    "duration": 0.10624989375000382
                },
                {
                    "name": "F3",
                    "midi": 53,
                    "time": 102.85704000000143,
                    "velocity": 0.8110236220472441,
                    "duration": 0.10624989375000382
                },
                {
                    "name": "B3",
                    "midi": 59,
                    "time": 102.96418275000144,
                    "velocity": 0.48031496062992124,
                    "duration": 0.10624989375000382
                },
                {
                    "name": "F4",
                    "midi": 65,
                    "time": 103.07132550000145,
                    "velocity": 0.48031496062992124,
                    "duration": 0.10624989375000382
                },
                {
                    "name": "F4",
                    "midi": 65,
                    "time": 103.17846825000146,
                    "velocity": 0.48031496062992124,
                    "duration": 0.10624989375000382
                },
                {
                    "name": "B4",
                    "midi": 71,
                    "time": 103.28561100000147,
                    "velocity": 0.5905511811023622,
                    "duration": 0.10624989375000382
                },
                {
                    "name": "F5",
                    "midi": 77,
                    "time": 103.39275375000148,
                    "velocity": 0.4881889763779528,
                    "duration": 0.10624989375000382
                },
                {
                    "name": "F5",
                    "midi": 77,
                    "time": 103.49989650000148,
                    "velocity": 0.48031496062992124,
                    "duration": 0.10624989375000382
                },
                {
                    "name": "B5",
                    "midi": 83,
                    "time": 103.60703925000149,
                    "velocity": 0.48031496062992124,
                    "duration": 0.10624989375000382
                },
                {
                    "name": "F6",
                    "midi": 89,
                    "time": 103.7141820000015,
                    "velocity": 0.6771653543307087,
                    "duration": 0.10624989375000382
                },
                {
                    "name": "B5",
                    "midi": 83,
                    "time": 103.82132475000151,
                    "velocity": 0.5275590551181102,
                    "duration": 0.10624989375000382
                },
                {
                    "name": "F5",
                    "midi": 77,
                    "time": 103.92846750000152,
                    "velocity": 0.5196850393700787,
                    "duration": 0.10624989375000382
                },
                {
                    "name": "F5",
                    "midi": 77,
                    "time": 104.03561025000153,
                    "velocity": 0.5196850393700787,
                    "duration": 0.10624989375000382
                },
                {
                    "name": "B4",
                    "midi": 71,
                    "time": 104.14275300000153,
                    "velocity": 0.5748031496062992,
                    "duration": 0.10624989375000382
                },
                {
                    "name": "F4",
                    "midi": 65,
                    "time": 104.24989575000154,
                    "velocity": 0.5039370078740157,
                    "duration": 0.10624989375000382
                },
                {
                    "name": "F4",
                    "midi": 65,
                    "time": 104.35703850000155,
                    "velocity": 0.5039370078740157,
                    "duration": 0.10624989375000382
                },
                {
                    "name": "B3",
                    "midi": 59,
                    "time": 104.46418125000156,
                    "velocity": 0.4881889763779528,
                    "duration": 0.10624989375000382
                },
                {
                    "name": "G3",
                    "midi": 55,
                    "time": 104.57132400000157,
                    "velocity": 0.8267716535433071,
                    "duration": 0.10624989375000382
                },
                {
                    "name": "B3",
                    "midi": 59,
                    "time": 104.67846675000158,
                    "velocity": 0.48031496062992124,
                    "duration": 0.10624989375000382
                },
                {
                    "name": "G4",
                    "midi": 67,
                    "time": 104.78560950000158,
                    "velocity": 0.4881889763779528,
                    "duration": 0.10624989375000382
                },
                {
                    "name": "G4",
                    "midi": 67,
                    "time": 104.89275225000159,
                    "velocity": 0.49606299212598426,
                    "duration": 0.10624989375000382
                },
                {
                    "name": "B4",
                    "midi": 71,
                    "time": 104.9998950000016,
                    "velocity": 0.6220472440944882,
                    "duration": 0.10624989375000382
                },
                {
                    "name": "G5",
                    "midi": 79,
                    "time": 105.10703775000161,
                    "velocity": 0.4881889763779528,
                    "duration": 0.10624989375000382
                },
                {
                    "name": "B4",
                    "midi": 71,
                    "time": 105.21418050000162,
                    "velocity": 0.5039370078740157,
                    "duration": 0.10624989375000382
                },
                {
                    "name": "G4",
                    "midi": 67,
                    "time": 105.32132325000163,
                    "velocity": 0.5196850393700787,
                    "duration": 0.10624989375000382
                },
                {
                    "name": "G#3",
                    "midi": 56,
                    "time": 105.42846600000163,
                    "velocity": 0.8346456692913385,
                    "duration": 0.10624989375000382
                },
                {
                    "name": "B3",
                    "midi": 59,
                    "time": 105.53560875000164,
                    "velocity": 0.5511811023622047,
                    "duration": 0.10624989375000382
                },
                {
                    "name": "G#4",
                    "midi": 68,
                    "time": 105.64275150000165,
                    "velocity": 0.5354330708661418,
                    "duration": 0.10624989375000382
                },
                {
                    "name": "G#4",
                    "midi": 68,
                    "time": 105.74989425000166,
                    "velocity": 0.5354330708661418,
                    "duration": 0.10624989375000382
                },
                {
                    "name": "B4",
                    "midi": 71,
                    "time": 105.85703700000167,
                    "velocity": 0.5905511811023622,
                    "duration": 0.10624989375000382
                },
                {
                    "name": "G#5",
                    "midi": 80,
                    "time": 105.96417975000168,
                    "velocity": 0.5275590551181102,
                    "duration": 0.10624989375000382
                },
                {
                    "name": "B4",
                    "midi": 71,
                    "time": 106.07132250000168,
                    "velocity": 0.5275590551181102,
                    "duration": 0.10624989375000382
                },
                {
                    "name": "G#4",
                    "midi": 68,
                    "time": 106.1784652500017,
                    "velocity": 0.5039370078740157,
                    "duration": 0.10624989375000382
                },
                {
                    "name": "G3",
                    "midi": 55,
                    "time": 106.2856080000017,
                    "velocity": 0.8503937007874016,
                    "duration": 0.10624989375000382
                },
                {
                    "name": "C4",
                    "midi": 60,
                    "time": 106.39275075000171,
                    "velocity": 0.5039370078740157,
                    "duration": 0.10624989375000382
                },
                {
                    "name": "G4",
                    "midi": 67,
                    "time": 106.49989350000172,
                    "velocity": 0.5039370078740157,
                    "duration": 0.10624989375000382
                },
                {
                    "name": "G4",
                    "midi": 67,
                    "time": 106.60703625000173,
                    "velocity": 0.5039370078740157,
                    "duration": 0.10624989375000382
                },
                {
                    "name": "C5",
                    "midi": 72,
                    "time": 106.71417900000174,
                    "velocity": 0.6377952755905512,
                    "duration": 0.10624989375000382
                },
                {
                    "name": "G5",
                    "midi": 79,
                    "time": 106.82132175000174,
                    "velocity": 0.5275590551181102,
                    "duration": 0.10624989375000382
                },
                {
                    "name": "G5",
                    "midi": 79,
                    "time": 106.92846450000175,
                    "velocity": 0.5039370078740157,
                    "duration": 0.10624989375000382
                },
                {
                    "name": "C6",
                    "midi": 84,
                    "time": 107.03560725000176,
                    "velocity": 0.5039370078740157,
                    "duration": 0.10624989375000382
                },
                {
                    "name": "G6",
                    "midi": 91,
                    "time": 107.14275000000177,
                    "velocity": 0.7322834645669292,
                    "duration": 0.10624989375000382
                },
                {
                    "name": "C6",
                    "midi": 84,
                    "time": 107.24989275000178,
                    "velocity": 0.5590551181102362,
                    "duration": 0.10624989375000382
                },
                {
                    "name": "G5",
                    "midi": 79,
                    "time": 107.35703550000179,
                    "velocity": 0.5511811023622047,
                    "duration": 0.10624989375000382
                },
                {
                    "name": "G5",
                    "midi": 79,
                    "time": 107.4641782500018,
                    "velocity": 0.5511811023622047,
                    "duration": 0.10624989375000382
                },
                {
                    "name": "C5",
                    "midi": 72,
                    "time": 107.5713210000018,
                    "velocity": 0.6141732283464567,
                    "duration": 0.10624989375000382
                },
                {
                    "name": "G4",
                    "midi": 67,
                    "time": 107.67846375000181,
                    "velocity": 0.5433070866141733,
                    "duration": 0.10624989375000382
                },
                {
                    "name": "G4",
                    "midi": 67,
                    "time": 107.78560650000182,
                    "velocity": 0.5433070866141733,
                    "duration": 0.10624989375000382
                },
                {
                    "name": "C4",
                    "midi": 60,
                    "time": 107.89274925000183,
                    "velocity": 0.5354330708661418,
                    "duration": 0.10535703749999925
                },
                {
                    "name": "C4",
                    "midi": 60,
                    "time": 107.99989200000182,
                    "velocity": 0.84251968503937,
                    "duration": 0.10624989375000382
                },
                {
                    "name": "G4",
                    "midi": 67,
                    "time": 108.10703475000183,
                    "velocity": 0.5275590551181102,
                    "duration": 0.10624989375000382
                },
                {
                    "name": "C5",
                    "midi": 72,
                    "time": 108.21417750000184,
                    "velocity": 0.5275590551181102,
                    "duration": 0.10624989375000382
                },
                {
                    "name": "C5",
                    "midi": 72,
                    "time": 108.32132025000185,
                    "velocity": 0.5275590551181102,
                    "duration": 0.10624989375000382
                },
                {
                    "name": "G5",
                    "midi": 79,
                    "time": 108.42846300000186,
                    "velocity": 0.6535433070866141,
                    "duration": 0.10624989375000382
                },
                {
                    "name": "C6",
                    "midi": 84,
                    "time": 108.53560575000186,
                    "velocity": 0.5433070866141733,
                    "duration": 0.10624989375000382
                },
                {
                    "name": "C6",
                    "midi": 84,
                    "time": 108.64274850000187,
                    "velocity": 0.5275590551181102,
                    "duration": 0.10624989375000382
                },
                {
                    "name": "G6",
                    "midi": 91,
                    "time": 108.74989125000188,
                    "velocity": 0.5275590551181102,
                    "duration": 0.10624989375000382
                },
                {
                    "name": "C7",
                    "midi": 96,
                    "time": 108.85703400000189,
                    "velocity": 0.7480314960629921,
                    "duration": 0.10624989375000382
                },
                {
                    "name": "G6",
                    "midi": 91,
                    "time": 108.9641767500019,
                    "velocity": 0.5748031496062992,
                    "duration": 0.10624989375000382
                },
                {
                    "name": "C6",
                    "midi": 84,
                    "time": 109.0713195000019,
                    "velocity": 0.5669291338582677,
                    "duration": 0.10624989375000382
                },
                {
                    "name": "C6",
                    "midi": 84,
                    "time": 109.17846225000191,
                    "velocity": 0.5669291338582677,
                    "duration": 0.10624989375000382
                },
                {
                    "name": "G5",
                    "midi": 79,
                    "time": 109.28560500000192,
                    "velocity": 0.6299212598425197,
                    "duration": 0.10624989375000382
                },
                {
                    "name": "C5",
                    "midi": 72,
                    "time": 109.39274775000193,
                    "velocity": 0.5590551181102362,
                    "duration": 0.10624989375000382
                },
                {
                    "name": "C5",
                    "midi": 72,
                    "time": 109.49989050000194,
                    "velocity": 0.5590551181102362,
                    "duration": 0.10624989375000382
                },
                {
                    "name": "G4",
                    "midi": 67,
                    "time": 109.60703325000195,
                    "velocity": 0.5433070866141733,
                    "duration": 0.10624989375000382
                },
                {
                    "name": "A#3",
                    "midi": 58,
                    "time": 109.71417600000196,
                    "velocity": 0.8267716535433071,
                    "duration": 0.10624989375000382
                },
                {
                    "name": "C4",
                    "midi": 60,
                    "time": 109.82131875000196,
                    "velocity": 0.5039370078740157,
                    "duration": 0.10624989375000382
                },
                {
                    "name": "A#4",
                    "midi": 70,
                    "time": 109.92846150000197,
                    "velocity": 0.5039370078740157,
                    "duration": 0.10624989375000382
                },
                {
                    "name": "A#4",
                    "midi": 70,
                    "time": 110.03560425000198,
                    "velocity": 0.5039370078740157,
                    "duration": 0.10624989375000382
                },
                {
                    "name": "C5",
                    "midi": 72,
                    "time": 110.14274700000199,
                    "velocity": 0.6299212598425197,
                    "duration": 0.10624989375000382
                },
                {
                    "name": "A#5",
                    "midi": 82,
                    "time": 110.249889750002,
                    "velocity": 0.5039370078740157,
                    "duration": 0.10624989375000382
                },
                {
                    "name": "C5",
                    "midi": 72,
                    "time": 110.357032500002,
                    "velocity": 0.5039370078740157,
                    "duration": 0.10624989375000382
                },
                {
                    "name": "A#4",
                    "midi": 70,
                    "time": 110.46417525000201,
                    "velocity": 0.5039370078740157,
                    "duration": 0.10624989375000382
                },
                {
                    "name": "G#3",
                    "midi": 56,
                    "time": 110.57131800000202,
                    "velocity": 0.8110236220472441,
                    "duration": 0.10624989375000382
                },
                {
                    "name": "C4",
                    "midi": 60,
                    "time": 110.67846075000203,
                    "velocity": 0.5433070866141733,
                    "duration": 0.10624989375000382
                },
                {
                    "name": "G#4",
                    "midi": 68,
                    "time": 110.78560350000204,
                    "velocity": 0.5275590551181102,
                    "duration": 0.10624989375000382
                },
                {
                    "name": "G#4",
                    "midi": 68,
                    "time": 110.89274625000205,
                    "velocity": 0.5275590551181102,
                    "duration": 0.10624989375000382
                },
                {
                    "name": "C5",
                    "midi": 72,
                    "time": 110.99988900000206,
                    "velocity": 0.6062992125984252,
                    "duration": 0.10624989375000382
                },
                {
                    "name": "G#5",
                    "midi": 80,
                    "time": 111.10703175000206,
                    "velocity": 0.5196850393700787,
                    "duration": 0.10624989375000382
                },
                {
                    "name": "C5",
                    "midi": 72,
                    "time": 111.21417450000207,
                    "velocity": 0.5196850393700787,
                    "duration": 0.10624989375000382
                },
                {
                    "name": "G#4",
                    "midi": 68,
                    "time": 111.32131725000208,
                    "velocity": 0.5039370078740157,
                    "duration": 0.10624989375000382
                },
                {
                    "name": "F3",
                    "midi": 53,
                    "time": 111.42846000000209,
                    "velocity": 0.8110236220472441,
                    "duration": 0.10624989375000382
                },
                {
                    "name": "G#3",
                    "midi": 56,
                    "time": 111.5356027500021,
                    "velocity": 0.5039370078740157,
                    "duration": 0.10624989375000382
                },
                {
                    "name": "F4",
                    "midi": 65,
                    "time": 111.6427455000021,
                    "velocity": 0.5039370078740157,
                    "duration": 0.10624989375000382
                },
                {
                    "name": "F4",
                    "midi": 65,
                    "time": 111.74988825000212,
                    "velocity": 0.5039370078740157,
                    "duration": 0.10624989375000382
                },
                {
                    "name": "G#4",
                    "midi": 68,
                    "time": 111.85703100000212,
                    "velocity": 0.6377952755905512,
                    "duration": 0.10624989375000382
                },
                {
                    "name": "F5",
                    "midi": 77,
                    "time": 111.96417375000213,
                    "velocity": 0.5196850393700787,
                    "duration": 0.10624989375000382
                },
                {
                    "name": "G#4",
                    "midi": 68,
                    "time": 112.07131650000214,
                    "velocity": 0.5039370078740157,
                    "duration": 0.10624989375000382
                },
                {
                    "name": "F4",
                    "midi": 65,
                    "time": 112.17845925000215,
                    "velocity": 0.5039370078740157,
                    "duration": 0.10624989375000382
                },
                {
                    "name": "D3",
                    "midi": 50,
                    "time": 112.28560200000216,
                    "velocity": 0.8110236220472441,
                    "duration": 0.10624989375000382
                },
                {
                    "name": "G#3",
                    "midi": 56,
                    "time": 112.39274475000217,
                    "velocity": 0.5511811023622047,
                    "duration": 0.10624989375000382
                },
                {
                    "name": "D4",
                    "midi": 62,
                    "time": 112.49988750000217,
                    "velocity": 0.5433070866141733,
                    "duration": 0.10624989375000382
                },
                {
                    "name": "D4",
                    "midi": 62,
                    "time": 112.60703025000218,
                    "velocity": 0.5433070866141733,
                    "duration": 0.10624989375000382
                },
                {
                    "name": "G#4",
                    "midi": 68,
                    "time": 112.71417300000219,
                    "velocity": 0.6062992125984252,
                    "duration": 0.10624989375000382
                },
                {
                    "name": "D5",
                    "midi": 74,
                    "time": 112.8213157500022,
                    "velocity": 0.5275590551181102,
                    "duration": 0.10624989375000382
                },
                {
                    "name": "G#4",
                    "midi": 68,
                    "time": 112.92845850000221,
                    "velocity": 0.5275590551181102,
                    "duration": 0.10624989375000382
                },
                {
                    "name": "D4",
                    "midi": 62,
                    "time": 113.03560125000222,
                    "velocity": 0.5196850393700787,
                    "duration": 0.10624989375000382
                },
                {
                    "name": "G3",
                    "midi": 55,
                    "time": 113.14274400000222,
                    "velocity": 0.8661417322834646,
                    "duration": 0.10624989375000382
                },
                {
                    "name": "C4",
                    "midi": 60,
                    "time": 113.24988675000223,
                    "velocity": 0.5511811023622047,
                    "duration": 0.10624989375000382
                },
                {
                    "name": "G4",
                    "midi": 67,
                    "time": 113.35702950000224,
                    "velocity": 0.5511811023622047,
                    "duration": 0.10624989375000382
                },
                {
                    "name": "G4",
                    "midi": 67,
                    "time": 113.46417225000225,
                    "velocity": 0.5511811023622047,
                    "duration": 0.10624989375000382
                },
                {
                    "name": "C5",
                    "midi": 72,
                    "time": 113.57131500000226,
                    "velocity": 0.6692913385826772,
                    "duration": 0.10624989375000382
                },
                {
                    "name": "G5",
                    "midi": 79,
                    "time": 113.67845775000227,
                    "velocity": 0.5590551181102362,
                    "duration": 0.10624989375000382
                },
                {
                    "name": "G5",
                    "midi": 79,
                    "time": 113.78560050000227,
                    "velocity": 0.5511811023622047,
                    "duration": 0.10624989375000382
                },
                {
                    "name": "C6",
                    "midi": 84,
                    "time": 113.89274325000228,
                    "velocity": 0.5511811023622047,
                    "duration": 0.10624989375000382
                },
                {
                    "name": "G6",
                    "midi": 91,
                    "time": 113.99988600000229,
                    "velocity": 0.7637795275590551,
                    "duration": 0.10624989375000382
                },
                {
                    "name": "C6",
                    "midi": 84,
                    "time": 114.1070287500023,
                    "velocity": 0.5905511811023622,
                    "duration": 0.10624989375000382
                },
                {
                    "name": "G5",
                    "midi": 79,
                    "time": 114.21417150000231,
                    "velocity": 0.5748031496062992,
                    "duration": 0.10624989375000382
                },
                {
                    "name": "G5",
                    "midi": 79,
                    "time": 114.32131425000232,
                    "velocity": 0.5748031496062992,
                    "duration": 0.10624989375000382
                },
                {
                    "name": "C5",
                    "midi": 72,
                    "time": 114.42845700000233,
                    "velocity": 0.6456692913385826,
                    "duration": 0.10624989375000382
                },
                {
                    "name": "G4",
                    "midi": 67,
                    "time": 114.53559975000233,
                    "velocity": 0.5669291338582677,
                    "duration": 0.10624989375000382
                },
                {
                    "name": "G4",
                    "midi": 67,
                    "time": 114.64274250000234,
                    "velocity": 0.5669291338582677,
                    "duration": 0.10624989375000382
                },
                {
                    "name": "C4",
                    "midi": 60,
                    "time": 114.74988525000235,
                    "velocity": 0.5590551181102362,
                    "duration": 0.10624989375000382
                },
                {
                    "name": "G#3",
                    "midi": 56,
                    "time": 114.85702800000236,
                    "velocity": 0.8503937007874016,
                    "duration": 0.10624989375000382
                },
                {
                    "name": "C4",
                    "midi": 60,
                    "time": 114.96417075000237,
                    "velocity": 0.5511811023622047,
                    "duration": 0.10624989375000382
                },
                {
                    "name": "G#4",
                    "midi": 68,
                    "time": 115.07131350000238,
                    "velocity": 0.5511811023622047,
                    "duration": 0.10624989375000382
                },
                {
                    "name": "G#4",
                    "midi": 68,
                    "time": 115.17845625000238,
                    "velocity": 0.5511811023622047,
                    "duration": 0.10624989375000382
                },
                {
                    "name": "C5",
                    "midi": 72,
                    "time": 115.28559900000239,
                    "velocity": 0.6692913385826772,
                    "duration": 0.10624989375000382
                },
                {
                    "name": "G#5",
                    "midi": 80,
                    "time": 115.3927417500024,
                    "velocity": 0.5590551181102362,
                    "duration": 0.10624989375000382
                },
                {
                    "name": "G#5",
                    "midi": 80,
                    "time": 115.49988450000241,
                    "velocity": 0.5511811023622047,
                    "duration": 0.10624989375000382
                },
                {
                    "name": "C6",
                    "midi": 84,
                    "time": 115.60702725000242,
                    "velocity": 0.5511811023622047,
                    "duration": 0.10624989375000382
                },
                {
                    "name": "G#6",
                    "midi": 92,
                    "time": 115.71417000000243,
                    "velocity": 0.7637795275590551,
                    "duration": 0.10624989375000382
                },
                {
                    "name": "C6",
                    "midi": 84,
                    "time": 115.82131275000243,
                    "velocity": 0.5905511811023622,
                    "duration": 0.10624989375000382
                },
                {
                    "name": "G#5",
                    "midi": 80,
                    "time": 115.92845550000244,
                    "velocity": 0.5748031496062992,
                    "duration": 0.10624989375000382
                },
                {
                    "name": "G#5",
                    "midi": 80,
                    "time": 116.03559825000245,
                    "velocity": 0.5748031496062992,
                    "duration": 0.10624989375000382
                },
                {
                    "name": "C5",
                    "midi": 72,
                    "time": 116.14274100000246,
                    "velocity": 0.6456692913385826,
                    "duration": 0.10624989375000382
                },
                {
                    "name": "G#4",
                    "midi": 68,
                    "time": 116.24988375000247,
                    "velocity": 0.5669291338582677,
                    "duration": 0.10624989375000382
                },
                {
                    "name": "G#4",
                    "midi": 68,
                    "time": 116.35702650000248,
                    "velocity": 0.5669291338582677,
                    "duration": 0.10624989375000382
                },
                {
                    "name": "C4",
                    "midi": 60,
                    "time": 116.46416925000248,
                    "velocity": 0.5590551181102362,
                    "duration": 0.10624989375000382
                },
                {
                    "name": "G#3",
                    "midi": 56,
                    "time": 116.5713120000025,
                    "velocity": 0.8661417322834646,
                    "duration": 0.10624989375000382
                },
                {
                    "name": "B3",
                    "midi": 59,
                    "time": 116.6784547500025,
                    "velocity": 0.5511811023622047,
                    "duration": 0.10624989375000382
                },
                {
                    "name": "G#4",
                    "midi": 68,
                    "time": 116.78559750000251,
                    "velocity": 0.5511811023622047,
                    "duration": 0.10624989375000382
                },
                {
                    "name": "G#4",
                    "midi": 68,
                    "time": 116.89274025000252,
                    "velocity": 0.5511811023622047,
                    "duration": 0.10624989375000382
                },
                {
                    "name": "B4",
                    "midi": 71,
                    "time": 116.99988300000253,
                    "velocity": 0.6692913385826772,
                    "duration": 0.10624989375000382
                },
                {
                    "name": "G#5",
                    "midi": 80,
                    "time": 117.10702575000253,
                    "velocity": 0.5590551181102362,
                    "duration": 0.10624989375000382
                },
                {
                    "name": "G#5",
                    "midi": 80,
                    "time": 117.21416850000254,
                    "velocity": 0.5511811023622047,
                    "duration": 0.10624989375000382
                },
                {
                    "name": "B5",
                    "midi": 83,
                    "time": 117.32131125000255,
                    "velocity": 0.5511811023622047,
                    "duration": 0.10624989375000382
                },
                {
                    "name": "G#6",
                    "midi": 92,
                    "time": 117.42845400000256,
                    "velocity": 0.7637795275590551,
                    "duration": 0.10624989375000382
                },
                {
                    "name": "B5",
                    "midi": 83,
                    "time": 117.53559675000257,
                    "velocity": 0.5905511811023622,
                    "duration": 0.10624989375000382
                },
                {
                    "name": "G#5",
                    "midi": 80,
                    "time": 117.64273950000258,
                    "velocity": 0.5748031496062992,
                    "duration": 0.10624989375000382
                },
                {
                    "name": "G#5",
                    "midi": 80,
                    "time": 117.74988225000259,
                    "velocity": 0.5748031496062992,
                    "duration": 0.10624989375000382
                },
                {
                    "name": "B4",
                    "midi": 71,
                    "time": 117.8570250000026,
                    "velocity": 0.6456692913385826,
                    "duration": 0.10624989375000382
                },
                {
                    "name": "G#4",
                    "midi": 68,
                    "time": 117.9641677500026,
                    "velocity": 0.5669291338582677,
                    "duration": 0.10624989375000382
                },
                {
                    "name": "G#4",
                    "midi": 68,
                    "time": 118.07131050000261,
                    "velocity": 0.5669291338582677,
                    "duration": 0.10624989375000382
                },
                {
                    "name": "B3",
                    "midi": 59,
                    "time": 118.17845325000262,
                    "velocity": 0.5590551181102362,
                    "duration": 0.10624989375000382
                },
                {
                    "name": "G3",
                    "midi": 55,
                    "time": 118.28559600000263,
                    "velocity": 0.8503937007874016,
                    "duration": 0.10624989375000382
                },
                {
                    "name": "B3",
                    "midi": 59,
                    "time": 118.39273875000264,
                    "velocity": 0.5511811023622047,
                    "duration": 0.10624989375000382
                },
                {
                    "name": "G4",
                    "midi": 67,
                    "time": 118.49988150000264,
                    "velocity": 0.5511811023622047,
                    "duration": 0.10624989375000382
                },
                {
                    "name": "G4",
                    "midi": 67,
                    "time": 118.60702425000265,
                    "velocity": 0.5511811023622047,
                    "duration": 0.10624989375000382
                },
                {
                    "name": "B4",
                    "midi": 71,
                    "time": 118.71416700000266,
                    "velocity": 0.6692913385826772,
                    "duration": 0.10624989375000382
                },
                {
                    "name": "G5",
                    "midi": 79,
                    "time": 118.82130975000267,
                    "velocity": 0.5590551181102362,
                    "duration": 0.10624989375000382
                },
                {
                    "name": "G5",
                    "midi": 79,
                    "time": 118.92845250000268,
                    "velocity": 0.5511811023622047,
                    "duration": 0.10624989375000382
                },
                {
                    "name": "B5",
                    "midi": 83,
                    "time": 119.03559525000269,
                    "velocity": 0.5511811023622047,
                    "duration": 0.10624989375000382
                },
                {
                    "name": "G6",
                    "midi": 91,
                    "time": 119.1427380000027,
                    "velocity": 0.7637795275590551,
                    "duration": 0.10624989375000382
                },
                {
                    "name": "B5",
                    "midi": 83,
                    "time": 119.2498807500027,
                    "velocity": 0.5905511811023622,
                    "duration": 0.10624989375000382
                },
                {
                    "name": "G5",
                    "midi": 79,
                    "time": 119.35702350000271,
                    "velocity": 0.5748031496062992,
                    "duration": 0.10624989375000382
                },
                {
                    "name": "G5",
                    "midi": 79,
                    "time": 119.46416625000272,
                    "velocity": 0.5748031496062992,
                    "duration": 0.10624989375000382
                },
                {
                    "name": "B4",
                    "midi": 71,
                    "time": 119.57130900000273,
                    "velocity": 0.6456692913385826,
                    "duration": 0.10624989375000382
                },
                {
                    "name": "G4",
                    "midi": 67,
                    "time": 119.67845175000274,
                    "velocity": 0.5669291338582677,
                    "duration": 0.10624989375000382
                },
                {
                    "name": "G4",
                    "midi": 67,
                    "time": 119.78559450000274,
                    "velocity": 0.5669291338582677,
                    "duration": 0.10624989375000382
                },
                {
                    "name": "B3",
                    "midi": 59,
                    "time": 119.89273725000275,
                    "velocity": 0.5590551181102362,
                    "duration": 0.10624989375000382
                },
                {
                    "name": "E3",
                    "midi": 52,
                    "time": 119.99988000000276,
                    "velocity": 0.8503937007874016,
                    "duration": 0.10624989375000382
                },
                {
                    "name": "G3",
                    "midi": 55,
                    "time": 120.10702275000277,
                    "velocity": 0.5511811023622047,
                    "duration": 0.10624989375000382
                },
                {
                    "name": "E4",
                    "midi": 64,
                    "time": 120.21416550000278,
                    "velocity": 0.5511811023622047,
                    "duration": 0.10624989375000382
                },
                {
                    "name": "E4",
                    "midi": 64,
                    "time": 120.32130825000279,
                    "velocity": 0.5511811023622047,
                    "duration": 0.10624989375000382
                },
                {
                    "name": "G4",
                    "midi": 67,
                    "time": 120.4284510000028,
                    "velocity": 0.6692913385826772,
                    "duration": 0.10624989375000382
                },
                {
                    "name": "E5",
                    "midi": 76,
                    "time": 120.5355937500028,
                    "velocity": 0.5590551181102362,
                    "duration": 0.10624989375000382
                },
                {
                    "name": "E5",
                    "midi": 76,
                    "time": 120.64273650000281,
                    "velocity": 0.5511811023622047,
                    "duration": 0.10624989375000382
                },
                {
                    "name": "G5",
                    "midi": 79,
                    "time": 120.74987925000282,
                    "velocity": 0.5511811023622047,
                    "duration": 0.10624989375000382
                },
                {
                    "name": "E6",
                    "midi": 88,
                    "time": 120.85702200000283,
                    "velocity": 0.7322834645669292,
                    "duration": 0.10624989375000382
                },
                {
                    "name": "E6",
                    "midi": 88,
                    "time": 120.96416475000284,
                    "velocity": 0.5905511811023622,
                    "duration": 0.10624989375000382
                },
                {
                    "name": "G6",
                    "midi": 91,
                    "time": 121.07130750000285,
                    "velocity": 0.5748031496062992,
                    "duration": 0.10624989375000382
                },
                {
                    "name": "E7",
                    "midi": 100,
                    "time": 121.17845025000285,
                    "velocity": 0.5748031496062992,
                    "duration": 0.10624989375000382
                },
                {
                    "name": "G6",
                    "midi": 91,
                    "time": 121.28559300000286,
                    "velocity": 0.6456692913385826,
                    "duration": 0.10624989375000382
                },
                {
                    "name": "E6",
                    "midi": 88,
                    "time": 121.39273575000287,
                    "velocity": 0.5669291338582677,
                    "duration": 0.10624989375000382
                },
                {
                    "name": "E6",
                    "midi": 88,
                    "time": 121.49987850000288,
                    "velocity": 0.5669291338582677,
                    "duration": 0.10624989375000382
                },
                {
                    "name": "G5",
                    "midi": 79,
                    "time": 121.60702125000289,
                    "velocity": 0.5590551181102362,
                    "duration": 0.10624989375000382
                },
                {
                    "name": "E5",
                    "midi": 76,
                    "time": 121.7141640000029,
                    "velocity": 0.6377952755905512,
                    "duration": 0.10624989375000382
                },
                {
                    "name": "E5",
                    "midi": 76,
                    "time": 121.8213067500029,
                    "velocity": 0.5433070866141733,
                    "duration": 0.10624989375000382
                },
                {
                    "name": "G4",
                    "midi": 67,
                    "time": 121.92844950000291,
                    "velocity": 0.5433070866141733,
                    "duration": 0.10624989375000382
                },
                {
                    "name": "E4",
                    "midi": 64,
                    "time": 122.03559225000292,
                    "velocity": 0.5433070866141733,
                    "duration": 0.10624989375000382
                },
                {
                    "name": "E4",
                    "midi": 64,
                    "time": 122.14273500000293,
                    "velocity": 0.7952755905511811,
                    "duration": 0.42857100000001935
                },
                {
                    "name": "G3",
                    "midi": 55,
                    "time": 122.24987775000292,
                    "velocity": 0.5511811023622047,
                    "duration": 0.10624989375000382
                },
                {
                    "name": "E3",
                    "midi": 52,
                    "time": 122.35702050000293,
                    "velocity": 0.5511811023622047,
                    "duration": 0.10624989375000382
                },
                {
                    "name": "G3",
                    "midi": 55,
                    "time": 122.46416325000294,
                    "velocity": 0.5511811023622047,
                    "duration": 0.10624989375000382
                },
                {
                    "name": "D3",
                    "midi": 50,
                    "time": 122.57130600000295,
                    "velocity": 0.8346456692913385,
                    "duration": 0.10624989375000382
                },
                {
                    "name": "G3",
                    "midi": 55,
                    "time": 122.67844875000296,
                    "velocity": 0.49606299212598426,
                    "duration": 0.10624989375000382
                },
                {
                    "name": "D4",
                    "midi": 62,
                    "time": 122.78559150000297,
                    "velocity": 0.6456692913385826,
                    "duration": 0.10624989375000382
                },
                {
                    "name": "G3",
                    "midi": 55,
                    "time": 122.89273425000297,
                    "velocity": 0.5196850393700787,
                    "duration": 0.10624989375000382
                },
                {
                    "name": "F3",
                    "midi": 53,
                    "time": 122.99987700000298,
                    "velocity": 0.8031496062992126,
                    "duration": 0.10624989375000382
                },
                {
                    "name": "G3",
                    "midi": 55,
                    "time": 123.10701975000299,
                    "velocity": 0.4881889763779528,
                    "duration": 0.10624989375000382
                },
                {
                    "name": "G4",
                    "midi": 67,
                    "time": 123.214162500003,
                    "velocity": 0.5905511811023622,
                    "duration": 0.21428550000000257
                },
                {
                    "name": "G3",
                    "midi": 55,
                    "time": 123.321305250003,
                    "velocity": 0.4881889763779528,
                    "duration": 0.10624989375000382
                },
                {
                    "name": "E3",
                    "midi": 52,
                    "time": 123.428448000003,
                    "velocity": 0.8503937007874016,
                    "duration": 0.10624989375000382
                },
                {
                    "name": "G3",
                    "midi": 55,
                    "time": 123.53559075000301,
                    "velocity": 0.5511811023622047,
                    "duration": 0.10624989375000382
                },
                {
                    "name": "E4",
                    "midi": 64,
                    "time": 123.64273350000302,
                    "velocity": 0.5511811023622047,
                    "duration": 0.10624989375000382
                },
                {
                    "name": "E4",
                    "midi": 64,
                    "time": 123.74987625000303,
                    "velocity": 0.5511811023622047,
                    "duration": 0.10624989375000382
                },
                {
                    "name": "G4",
                    "midi": 67,
                    "time": 123.85701900000304,
                    "velocity": 0.6692913385826772,
                    "duration": 0.10624989375000382
                },
                {
                    "name": "E5",
                    "midi": 76,
                    "time": 123.96416175000304,
                    "velocity": 0.5590551181102362,
                    "duration": 0.10624989375000382
                },
                {
                    "name": "E5",
                    "midi": 76,
                    "time": 124.07130450000305,
                    "velocity": 0.5511811023622047,
                    "duration": 0.10624989375000382
                },
                {
                    "name": "G5",
                    "midi": 79,
                    "time": 124.17844725000306,
                    "velocity": 0.5511811023622047,
                    "duration": 0.10624989375000382
                },
                {
                    "name": "E6",
                    "midi": 88,
                    "time": 124.28559000000307,
                    "velocity": 0.6535433070866141,
                    "duration": 0.10624989375000382
                },
                {
                    "name": "E6",
                    "midi": 88,
                    "time": 124.39273275000308,
                    "velocity": 0.5905511811023622,
                    "duration": 0.10624989375000382
                },
                {
                    "name": "G6",
                    "midi": 91,
                    "time": 124.49987550000309,
                    "velocity": 0.5748031496062992,
                    "duration": 0.10624989375000382
                },
                {
                    "name": "E7",
                    "midi": 100,
                    "time": 124.6070182500031,
                    "velocity": 0.5748031496062992,
                    "duration": 0.10624989375000382
                },
                {
                    "name": "G6",
                    "midi": 91,
                    "time": 124.7141610000031,
                    "velocity": 0.6456692913385826,
                    "duration": 0.10624989375000382
                },
                {
                    "name": "E6",
                    "midi": 88,
                    "time": 124.82130375000311,
                    "velocity": 0.5669291338582677,
                    "duration": 0.10624989375000382
                },
                {
                    "name": "E6",
                    "midi": 88,
                    "time": 124.92844650000312,
                    "velocity": 0.5669291338582677,
                    "duration": 0.10624989375000382
                },
                {
                    "name": "G5",
                    "midi": 79,
                    "time": 125.03558925000313,
                    "velocity": 0.5590551181102362,
                    "duration": 0.10624989375000382
                },
                {
                    "name": "E5",
                    "midi": 76,
                    "time": 125.14273200000314,
                    "velocity": 0.6377952755905512,
                    "duration": 0.10624989375000382
                },
                {
                    "name": "E5",
                    "midi": 76,
                    "time": 125.24987475000314,
                    "velocity": 0.5433070866141733,
                    "duration": 0.10624989375000382
                },
                {
                    "name": "G4",
                    "midi": 67,
                    "time": 125.35701750000315,
                    "velocity": 0.5433070866141733,
                    "duration": 0.10624989375000382
                },
                {
                    "name": "E4",
                    "midi": 64,
                    "time": 125.46416025000316,
                    "velocity": 0.5433070866141733,
                    "duration": 0.10624989375000382
                },
                {
                    "name": "E4",
                    "midi": 64,
                    "time": 125.57130300000317,
                    "velocity": 0.8267716535433071,
                    "duration": 0.42857100000001935
                },
                {
                    "name": "G3",
                    "midi": 55,
                    "time": 125.67844575000316,
                    "velocity": 0.5511811023622047,
                    "duration": 0.10624989375000382
                },
                {
                    "name": "E3",
                    "midi": 52,
                    "time": 125.78558850000317,
                    "velocity": 0.5511811023622047,
                    "duration": 0.10624989375000382
                },
                {
                    "name": "G3",
                    "midi": 55,
                    "time": 125.89273125000318,
                    "velocity": 0.5511811023622047,
                    "duration": 0.10624989375000382
                },
                {
                    "name": "D3",
                    "midi": 50,
                    "time": 125.99987400000319,
                    "velocity": 0.8188976377952756,
                    "duration": 0.10624989375000382
                },
                {
                    "name": "G3",
                    "midi": 55,
                    "time": 126.1070167500032,
                    "velocity": 0.49606299212598426,
                    "duration": 0.10624989375000382
                },
                {
                    "name": "D4",
                    "midi": 62,
                    "time": 126.2141595000032,
                    "velocity": 0.6456692913385826,
                    "duration": 0.42857100000001935
                },
                {
                    "name": "G3",
                    "midi": 55,
                    "time": 126.3213022500032,
                    "velocity": 0.5196850393700787,
                    "duration": 0.10624989375000382
                },
                {
                    "name": "C3",
                    "midi": 48,
                    "time": 126.42844500000321,
                    "velocity": 0.8110236220472441,
                    "duration": 0.10624989375000382
                },
                {
                    "name": "G3",
                    "midi": 55,
                    "time": 126.53558775000322,
                    "velocity": 0.4881889763779528,
                    "duration": 0.10624989375000382
                },
                {
                    "name": "C4",
                    "midi": 60,
                    "time": 126.64273050000322,
                    "velocity": 0.5905511811023622,
                    "duration": 0.21428550000000257
                },
                {
                    "name": "G3",
                    "midi": 55,
                    "time": 126.74987325000322,
                    "velocity": 0.4881889763779528,
                    "duration": 0.10624989375000382
                },
                {
                    "name": "D3",
                    "midi": 50,
                    "time": 126.85701600000323,
                    "velocity": 0.8582677165354331,
                    "duration": 0.10624989375000382
                },
                {
                    "name": "G3",
                    "midi": 55,
                    "time": 126.96415875000324,
                    "velocity": 0.5511811023622047,
                    "duration": 0.10624989375000382
                },
                {
                    "name": "D4",
                    "midi": 62,
                    "time": 127.07130150000324,
                    "velocity": 0.5511811023622047,
                    "duration": 0.10624989375000382
                },
                {
                    "name": "D4",
                    "midi": 62,
                    "time": 127.17844425000325,
                    "velocity": 0.5511811023622047,
                    "duration": 0.21428550000000257
                },
                {
                    "name": "G4",
                    "midi": 67,
                    "time": 127.28558700000325,
                    "velocity": 0.6692913385826772,
                    "duration": 0.10624989375000382
                },
                {
                    "name": "D5",
                    "midi": 74,
                    "time": 127.39272975000326,
                    "velocity": 0.5590551181102362,
                    "duration": 0.10624989375000382
                },
                {
                    "name": "D5",
                    "midi": 74,
                    "time": 127.49987250000326,
                    "velocity": 0.5511811023622047,
                    "duration": 0.10624989375000382
                },
                {
                    "name": "G5",
                    "midi": 79,
                    "time": 127.60701525000327,
                    "velocity": 0.5511811023622047,
                    "duration": 0.10624989375000382
                },
                {
                    "name": "D6",
                    "midi": 86,
                    "time": 127.71415800000328,
                    "velocity": 0.6850393700787402,
                    "duration": 0.10624989375000382
                },
                {
                    "name": "D6",
                    "midi": 86,
                    "time": 127.82130075000329,
                    "velocity": 0.5905511811023622,
                    "duration": 0.10624989375000382
                },
                {
                    "name": "G6",
                    "midi": 91,
                    "time": 127.9284435000033,
                    "velocity": 0.5748031496062992,
                    "duration": 0.10624989374998961
                },
                {
                    "name": "D7",
                    "midi": 98,
                    "time": 128.0355862500033,
                    "velocity": 0.5748031496062992,
                    "duration": 0.10624989375000382
                },
                {
                    "name": "G6",
                    "midi": 91,
                    "time": 128.1427290000033,
                    "velocity": 0.6456692913385826,
                    "duration": 0.10624989375000382
                },
                {
                    "name": "D6",
                    "midi": 86,
                    "time": 128.2498717500033,
                    "velocity": 0.5669291338582677,
                    "duration": 0.10624989375000382
                },
                {
                    "name": "D6",
                    "midi": 86,
                    "time": 128.35701450000332,
                    "velocity": 0.5669291338582677,
                    "duration": 0.10624989375000382
                },
                {
                    "name": "G5",
                    "midi": 79,
                    "time": 128.46415725000332,
                    "velocity": 0.5590551181102362,
                    "duration": 0.10624989375000382
                },
                {
                    "name": "D5",
                    "midi": 74,
                    "time": 128.57130000000333,
                    "velocity": 0.6377952755905512,
                    "duration": 0.10624989375000382
                },
                {
                    "name": "D5",
                    "midi": 74,
                    "time": 128.67844275000334,
                    "velocity": 0.5433070866141733,
                    "duration": 0.10624989375000382
                },
                {
                    "name": "G4",
                    "midi": 67,
                    "time": 128.78558550000335,
                    "velocity": 0.5433070866141733,
                    "duration": 0.10624989375000382
                },
                {
                    "name": "D4",
                    "midi": 62,
                    "time": 128.89272825000336,
                    "velocity": 0.5433070866141733,
                    "duration": 0.10624989375000382
                },
                {
                    "name": "D4",
                    "midi": 62,
                    "time": 128.99987100000337,
                    "velocity": 0.7952755905511811,
                    "duration": 0.42857100000003356
                },
                {
                    "name": "G3",
                    "midi": 55,
                    "time": 129.10701375000338,
                    "velocity": 0.5511811023622047,
                    "duration": 0.10624989375000382
                },
                {
                    "name": "D3",
                    "midi": 50,
                    "time": 129.21415650000338,
                    "velocity": 0.5511811023622047,
                    "duration": 0.10624989375000382
                },
                {
                    "name": "G3",
                    "midi": 55,
                    "time": 129.3212992500034,
                    "velocity": 0.5511811023622047,
                    "duration": 0.10624989375000382
                },
                {
                    "name": "C3",
                    "midi": 48,
                    "time": 129.4284420000034,
                    "velocity": 0.7874015748031497,
                    "duration": 0.10624989375000382
                },
                {
                    "name": "F3",
                    "midi": 53,
                    "time": 129.5355847500034,
                    "velocity": 0.49606299212598426,
                    "duration": 0.10624989375000382
                },
                {
                    "name": "C4",
                    "midi": 60,
                    "time": 129.64272750000342,
                    "velocity": 0.6456692913385826,
                    "duration": 0.42857100000003356
                },
                {
                    "name": "F3",
                    "midi": 53,
                    "time": 129.74987025000343,
                    "velocity": 0.5196850393700787,
                    "duration": 0.10624989375000382
                },
                {
                    "name": "C3",
                    "midi": 48,
                    "time": 129.85701300000343,
                    "velocity": 0.7795275590551181,
                    "duration": 0.10624989375000382
                },
                {
                    "name": "F3",
                    "midi": 53,
                    "time": 129.96415575000344,
                    "velocity": 0.4881889763779528,
                    "duration": 0.10624989375000382
                },
                {
                    "name": "A3",
                    "midi": 57,
                    "time": 130.07129850000345,
                    "velocity": 0.5905511811023622,
                    "duration": 0.21428550000001678
                },
                {
                    "name": "F3",
                    "midi": 53,
                    "time": 130.17844125000346,
                    "velocity": 0.4881889763779528,
                    "duration": 0.10624989375000382
                },
                {
                    "name": "C3",
                    "midi": 48,
                    "time": 130.28558400000347,
                    "velocity": 0.7874015748031497,
                    "duration": 0.10624989375000382
                },
                {
                    "name": "F3",
                    "midi": 53,
                    "time": 130.39272675000348,
                    "velocity": 0.5511811023622047,
                    "duration": 0.10624989375000382
                },
                {
                    "name": "C4",
                    "midi": 60,
                    "time": 130.49986950000348,
                    "velocity": 0.5511811023622047,
                    "duration": 0.10624989375000382
                },
                {
                    "name": "C4",
                    "midi": 60,
                    "time": 130.6070122500035,
                    "velocity": 0.5511811023622047,
                    "duration": 0.10624989375000382
                },
                {
                    "name": "F4",
                    "midi": 65,
                    "time": 130.7141550000035,
                    "velocity": 0.6692913385826772,
                    "duration": 0.10624989375000382
                },
                {
                    "name": "C5",
                    "midi": 72,
                    "time": 130.8212977500035,
                    "velocity": 0.5590551181102362,
                    "duration": 0.10624989375000382
                },
                {
                    "name": "C5",
                    "midi": 72,
                    "time": 130.92844050000352,
                    "velocity": 0.5511811023622047,
                    "duration": 0.10624989375000382
                },
                {
                    "name": "F5",
                    "midi": 77,
                    "time": 131.03558325000353,
                    "velocity": 0.5511811023622047,
                    "duration": 0.10624989375000382
                },
                {
                    "name": "C6",
                    "midi": 84,
                    "time": 131.14272600000353,
                    "velocity": 0.7165354330708661,
                    "duration": 0.10624989375000382
                },
                {
                    "name": "C6",
                    "midi": 84,
                    "time": 131.24986875000354,
                    "velocity": 0.5748031496062992,
                    "duration": 0.10624989375000382
                },
                {
                    "name": "F6",
                    "midi": 89,
                    "time": 131.35701150000355,
                    "velocity": 0.5748031496062992,
                    "duration": 0.10624989375000382
                },
                {
                    "name": "C7",
                    "midi": 96,
                    "time": 131.46415425000356,
                    "velocity": 0.5748031496062992,
                    "duration": 0.10624989375000382
                },
                {
                    "name": "F6",
                    "midi": 89,
                    "time": 131.57129700000357,
                    "velocity": 0.6456692913385826,
                    "duration": 0.10624989375000382
                },
                {
                    "name": "C6",
                    "midi": 84,
                    "time": 131.67843975000358,
                    "velocity": 0.5669291338582677,
                    "duration": 0.10624989375000382
                },
                {
                    "name": "C6",
                    "midi": 84,
                    "time": 131.78558250000358,
                    "velocity": 0.5669291338582677,
                    "duration": 0.10624989375000382
                },
                {
                    "name": "F5",
                    "midi": 77,
                    "time": 131.8927252500036,
                    "velocity": 0.5590551181102362,
                    "duration": 0.10624989375000382
                },
                {
                    "name": "C5",
                    "midi": 72,
                    "time": 131.9998680000036,
                    "velocity": 0.6377952755905512,
                    "duration": 0.10624989375000382
                },
                {
                    "name": "C5",
                    "midi": 72,
                    "time": 132.1070107500036,
                    "velocity": 0.5433070866141733,
                    "duration": 0.10624989375000382
                },
                {
                    "name": "F4",
                    "midi": 65,
                    "time": 132.21415350000362,
                    "velocity": 0.5433070866141733,
                    "duration": 0.10624989375000382
                },
                {
                    "name": "C4",
                    "midi": 60,
                    "time": 132.32129625000363,
                    "velocity": 0.5433070866141733,
                    "duration": 0.10624989375000382
                },
                {
                    "name": "C4",
                    "midi": 60,
                    "time": 132.42843900000364,
                    "velocity": 0.8188976377952756,
                    "duration": 0.42857100000003356
                },
                {
                    "name": "F3",
                    "midi": 53,
                    "time": 132.53558175000364,
                    "velocity": 0.5748031496062992,
                    "duration": 0.10624989375000382
                },
                {
                    "name": "C3",
                    "midi": 48,
                    "time": 132.64272450000365,
                    "velocity": 0.5748031496062992,
                    "duration": 0.10624989375000382
                },
                {
                    "name": "F3",
                    "midi": 53,
                    "time": 132.74986725000366,
                    "velocity": 0.5748031496062992,
                    "duration": 0.10624989375000382
                },
                {
                    "name": "C3",
                    "midi": 48,
                    "time": 132.85701000000367,
                    "velocity": 0.8110236220472441,
                    "duration": 0.10624989375000382
                },
                {
                    "name": "F3",
                    "midi": 53,
                    "time": 132.96415275000368,
                    "velocity": 0.5354330708661418,
                    "duration": 0.10624989375000382
                },
                {
                    "name": "C4",
                    "midi": 60,
                    "time": 133.07129550000369,
                    "velocity": 0.6456692913385826,
                    "duration": 0.42857100000003356
                },
                {
                    "name": "F3",
                    "midi": 53,
                    "time": 133.1784382500037,
                    "velocity": 0.5196850393700787,
                    "duration": 0.10624989375000382
                },
                {
                    "name": "C3",
                    "midi": 48,
                    "time": 133.2855810000037,
                    "velocity": 0.7874015748031497,
                    "duration": 0.10624989375000382
                },
                {
                    "name": "F3",
                    "midi": 53,
                    "time": 133.3927237500037,
                    "velocity": 0.4881889763779528,
                    "duration": 0.10624989375000382
                },
                {
                    "name": "D4",
                    "midi": 62,
                    "time": 133.49986650000372,
                    "velocity": 0.5905511811023622,
                    "duration": 0.21428550000001678
                },
                {
                    "name": "F3",
                    "midi": 53,
                    "time": 133.60700925000373,
                    "velocity": 0.4881889763779528,
                    "duration": 0.10624989375000382
                },
                {
                    "name": "C3",
                    "midi": 48,
                    "time": 133.71415200000374,
                    "velocity": 0.84251968503937,
                    "duration": 0.10624989375000382
                },
                {
                    "name": "F3",
                    "midi": 53,
                    "time": 133.82129475000374,
                    "velocity": 0.5748031496062992,
                    "duration": 0.10624989375000382
                },
                {
                    "name": "C4",
                    "midi": 60,
                    "time": 133.92843750000375,
                    "velocity": 0.5748031496062992,
                    "duration": 0.10624989375000382
                },
                {
                    "name": "C4",
                    "midi": 60,
                    "time": 134.03558025000376,
                    "velocity": 0.5748031496062992,
                    "duration": 0.10624989375000382
                },
                {
                    "name": "F4",
                    "midi": 65,
                    "time": 134.14272300000377,
                    "velocity": 0.6692913385826772,
                    "duration": 0.10624989375000382
                },
                {
                    "name": "C5",
                    "midi": 72,
                    "time": 134.24986575000378,
                    "velocity": 0.5590551181102362,
                    "duration": 0.10624989375000382
                },
                {
                    "name": "C5",
                    "midi": 72,
                    "time": 134.3570085000038,
                    "velocity": 0.5511811023622047,
                    "duration": 0.10624989375000382
                },
                {
                    "name": "F5",
                    "midi": 77,
                    "time": 134.4641512500038,
                    "velocity": 0.5511811023622047,
                    "duration": 0.10624989375000382
                },
                {
                    "name": "C6",
                    "midi": 84,
                    "time": 134.5712940000038,
                    "velocity": 0.7007874015748031,
                    "duration": 0.10624989375000382
                },
                {
                    "name": "C6",
                    "midi": 84,
                    "time": 134.6784367500038,
                    "velocity": 0.5905511811023622,
                    "duration": 0.10624989375000382
                },
                {
                    "name": "F6",
                    "midi": 89,
                    "time": 134.78557950000382,
                    "velocity": 0.5748031496062992,
                    "duration": 0.10624989375000382
                },
                {
                    "name": "C7",
                    "midi": 96,
                    "time": 134.89272225000383,
                    "velocity": 0.5748031496062992,
                    "duration": 0.10624989375000382
                },
                {
                    "name": "F6",
                    "midi": 89,
                    "time": 134.99986500000384,
                    "velocity": 0.6456692913385826,
                    "duration": 0.10624989375000382
                },
                {
                    "name": "C6",
                    "midi": 84,
                    "time": 135.10700775000385,
                    "velocity": 0.5669291338582677,
                    "duration": 0.10624989375000382
                },
                {
                    "name": "C6",
                    "midi": 84,
                    "time": 135.21415050000385,
                    "velocity": 0.5669291338582677,
                    "duration": 0.10624989375000382
                },
                {
                    "name": "F5",
                    "midi": 77,
                    "time": 135.32129325000386,
                    "velocity": 0.5590551181102362,
                    "duration": 0.10624989375000382
                },
                {
                    "name": "C5",
                    "midi": 72,
                    "time": 135.42843600000387,
                    "velocity": 0.6377952755905512,
                    "duration": 0.10624989375000382
                },
                {
                    "name": "C5",
                    "midi": 72,
                    "time": 135.53557875000388,
                    "velocity": 0.5433070866141733,
                    "duration": 0.10624989375000382
                },
                {
                    "name": "F4",
                    "midi": 65,
                    "time": 135.6427215000039,
                    "velocity": 0.5433070866141733,
                    "duration": 0.10624989375000382
                },
                {
                    "name": "C4",
                    "midi": 60,
                    "time": 135.7498642500039,
                    "velocity": 0.5433070866141733,
                    "duration": 0.10624989375000382
                },
                {
                    "name": "C4",
                    "midi": 60,
                    "time": 135.8570070000039,
                    "velocity": 0.8346456692913385,
                    "duration": 0.42857100000003356
                },
                {
                    "name": "F3",
                    "midi": 53,
                    "time": 135.9641497500039,
                    "velocity": 0.5511811023622047,
                    "duration": 0.10624989375000382
                },
                {
                    "name": "C3",
                    "midi": 48,
                    "time": 136.07129250000392,
                    "velocity": 0.5511811023622047,
                    "duration": 0.10624989375000382
                },
                {
                    "name": "F3",
                    "midi": 53,
                    "time": 136.17843525000393,
                    "velocity": 0.5511811023622047,
                    "duration": 0.10624989375000382
                },
                {
                    "name": "C3",
                    "midi": 48,
                    "time": 136.28557800000394,
                    "velocity": 0.8267716535433071,
                    "duration": 0.10624989375000382
                },
                {
                    "name": "F3",
                    "midi": 53,
                    "time": 136.39272075000395,
                    "velocity": 0.49606299212598426,
                    "duration": 0.10624989375000382
                },
                {
                    "name": "C4",
                    "midi": 60,
                    "time": 136.49986350000395,
                    "velocity": 0.6456692913385826,
                    "duration": 0.42857100000003356
                },
                {
                    "name": "F3",
                    "midi": 53,
                    "time": 136.60700625000396,
                    "velocity": 0.5196850393700787,
                    "duration": 0.10624989375000382
                },
                {
                    "name": "C3",
                    "midi": 48,
                    "time": 136.71414900000397,
                    "velocity": 0.8188976377952756,
                    "duration": 0.10624989375000382
                },
                {
                    "name": "F3",
                    "midi": 53,
                    "time": 136.82129175000398,
                    "velocity": 0.4881889763779528,
                    "duration": 0.10624989375000382
                },
                {
                    "name": "D4",
                    "midi": 62,
                    "time": 136.928434500004,
                    "velocity": 0.5905511811023622,
                    "duration": 0.21428550000001678
                },
                {
                    "name": "F3",
                    "midi": 53,
                    "time": 137.035577250004,
                    "velocity": 0.4881889763779528,
                    "duration": 0.10624989375000382
                },
                {
                    "name": "E3",
                    "midi": 52,
                    "time": 137.142720000004,
                    "velocity": 0.6535433070866141,
                    "duration": 0.10624989375000382
                },
                {
                    "name": "G3",
                    "midi": 55,
                    "time": 137.249862750004,
                    "velocity": 0.5433070866141733,
                    "duration": 0.10624989375000382
                },
                {
                    "name": "E4",
                    "midi": 64,
                    "time": 137.35700550000402,
                    "velocity": 0.5433070866141733,
                    "duration": 0.10624989375000382
                },
                {
                    "name": "G3",
                    "midi": 55,
                    "time": 137.46414825000403,
                    "velocity": 0.5511811023622047,
                    "duration": 0.10624989375000382
                },
                {
                    "name": "E3",
                    "midi": 52,
                    "time": 137.57129100000404,
                    "velocity": 0.6614173228346457,
                    "duration": 0.10624989375000382
                },
                {
                    "name": "G3",
                    "midi": 55,
                    "time": 137.67843375000405,
                    "velocity": 0.5669291338582677,
                    "duration": 0.10624989375000382
                },
                {
                    "name": "E4",
                    "midi": 64,
                    "time": 137.78557650000405,
                    "velocity": 0.5748031496062992,
                    "duration": 0.10624989375000382
                },
                {
                    "name": "G3",
                    "midi": 55,
                    "time": 137.89271925000406,
                    "velocity": 0.5748031496062992,
                    "duration": 0.10624989375000382
                },
                {
                    "name": "E3",
                    "midi": 52,
                    "time": 137.99986200000407,
                    "velocity": 0.6929133858267716,
                    "duration": 0.10624989375000382
                },
                {
                    "name": "G3",
                    "midi": 55,
                    "time": 138.10700475000408,
                    "velocity": 0.5669291338582677,
                    "duration": 0.10624989375000382
                },
                {
                    "name": "E4",
                    "midi": 64,
                    "time": 138.2141475000041,
                    "velocity": 0.5748031496062992,
                    "duration": 0.10624989375000382
                },
                {
                    "name": "G3",
                    "midi": 55,
                    "time": 138.3212902500041,
                    "velocity": 0.5748031496062992,
                    "duration": 0.10624989375000382
                },
                {
                    "name": "E3",
                    "midi": 52,
                    "time": 138.4284330000041,
                    "velocity": 0.6771653543307087,
                    "duration": 0.10624989375000382
                },
                {
                    "name": "G3",
                    "midi": 55,
                    "time": 138.5355757500041,
                    "velocity": 0.5669291338582677,
                    "duration": 0.10624989375000382
                },
                {
                    "name": "E4",
                    "midi": 64,
                    "time": 138.64271850000412,
                    "velocity": 0.5748031496062992,
                    "duration": 0.10624989375000382
                },
                {
                    "name": "G3",
                    "midi": 55,
                    "time": 138.74986125000413,
                    "velocity": 0.5748031496062992,
                    "duration": 0.10624989375000382
                },
                {
                    "name": "E3",
                    "midi": 52,
                    "time": 138.85700400000414,
                    "velocity": 0.7480314960629921,
                    "duration": 0.10624989375000382
                },
                {
                    "name": "G3",
                    "midi": 55,
                    "time": 138.96414675000415,
                    "velocity": 0.6220472440944882,
                    "duration": 0.10624989375000382
                },
                {
                    "name": "E4",
                    "midi": 64,
                    "time": 139.07128950000416,
                    "velocity": 0.6220472440944882,
                    "duration": 0.10624989375000382
                },
                {
                    "name": "G3",
                    "midi": 55,
                    "time": 139.17843225000416,
                    "velocity": 0.6220472440944882,
                    "duration": 0.10624989375000382
                },
                {
                    "name": "E3",
                    "midi": 52,
                    "time": 139.28557500000417,
                    "velocity": 0.7401574803149606,
                    "duration": 0.10624989375000382
                },
                {
                    "name": "G3",
                    "midi": 55,
                    "time": 139.39271775000418,
                    "velocity": 0.6299212598425197,
                    "duration": 0.10624989375000382
                },
                {
                    "name": "E4",
                    "midi": 64,
                    "time": 139.4998605000042,
                    "velocity": 0.6299212598425197,
                    "duration": 0.10624989375000382
                },
                {
                    "name": "G3",
                    "midi": 55,
                    "time": 139.6070032500042,
                    "velocity": 0.6299212598425197,
                    "duration": 0.10624989375000382
                },
                {
                    "name": "E3",
                    "midi": 52,
                    "time": 139.7141460000042,
                    "velocity": 0.7401574803149606,
                    "duration": 0.10624989375000382
                },
                {
                    "name": "G3",
                    "midi": 55,
                    "time": 139.82128875000421,
                    "velocity": 0.6062992125984252,
                    "duration": 0.10624989375000382
                },
                {
                    "name": "E4",
                    "midi": 64,
                    "time": 139.92843150000422,
                    "velocity": 0.6062992125984252,
                    "duration": 0.10624989375000382
                },
                {
                    "name": "G3",
                    "midi": 55,
                    "time": 140.03557425000423,
                    "velocity": 0.6062992125984252,
                    "duration": 0.10624989375000382
                },
                {
                    "name": "E3",
                    "midi": 52,
                    "time": 140.14271700000424,
                    "velocity": 0.7086614173228346,
                    "duration": 0.10624989375000382
                },
                {
                    "name": "G3",
                    "midi": 55,
                    "time": 140.24985975000425,
                    "velocity": 0.5826771653543307,
                    "duration": 0.10624989375000382
                },
                {
                    "name": "E4",
                    "midi": 64,
                    "time": 140.35700250000426,
                    "velocity": 0.5826771653543307,
                    "duration": 0.10624989375000382
                },
                {
                    "name": "G3",
                    "midi": 55,
                    "time": 140.46414525000426,
                    "velocity": 0.5826771653543307,
                    "duration": 0.10624989375000382
                },
                {
                    "name": "E3",
                    "midi": 52,
                    "time": 140.57128800000427,
                    "velocity": 0.8740157480314961,
                    "duration": 0.42857100000000514
                },
                {
                    "name": "C5",
                    "midi": 72,
                    "time": 141.42843000000428,
                    "velocity": 0.8267716535433071,
                    "duration": 0.8571420000000103
                },
                {
                    "name": "E4",
                    "midi": 64,
                    "time": 141.42843000000428,
                    "velocity": 0.7401574803149606,
                    "duration": 0.8571420000000103
                },
                {
                    "name": "G4",
                    "midi": 67,
                    "time": 141.42843000000428,
                    "velocity": 0.7401574803149606,
                    "duration": 0.8571420000000103
                },
                {
                    "name": "E5",
                    "midi": 76,
                    "time": 141.42843000000428,
                    "velocity": 0.8740157480314961,
                    "duration": 0.8571420000000103
                }
            ],
            "controlChanges": {
                "7": [
                    {
                        "number": 7,
                        "time": 0,
                        "value": 0.7874015748031497
                    }
                ],
                "10": [
                    {
                        "number": 10,
                        "time": 0,
                        "value": 0.5039370078740157
                    }
                ],
                "91": [
                    {
                        "number": 91,
                        "time": 0,
                        "value": 1
                    },
                    {
                        "number": 91,
                        "time": 1.7142840000000001,
                        "value": 1
                    },
                    {
                        "number": 91,
                        "time": 3.4285679999999994,
                        "value": 1
                    },
                    {
                        "number": 91,
                        "time": 5.142852000000003,
                        "value": 1
                    },
                    {
                        "number": 91,
                        "time": 6.8571360000000094,
                        "value": 1
                    },
                    {
                        "number": 91,
                        "time": 8.57142000000001,
                        "value": 1
                    },
                    {
                        "number": 91,
                        "time": 10.285704000000003,
                        "value": 1
                    },
                    {
                        "number": 91,
                        "time": 13.714271999999987,
                        "value": 1
                    },
                    {
                        "number": 91,
                        "time": 15.428555999999979,
                        "value": 1
                    },
                    {
                        "number": 91,
                        "time": 17.14283999999999,
                        "value": 1
                    },
                    {
                        "number": 91,
                        "time": 18.85712400000001,
                        "value": 1
                    },
                    {
                        "number": 91,
                        "time": 20.57140800000003,
                        "value": 1
                    },
                    {
                        "number": 91,
                        "time": 22.28569200000005,
                        "value": 1
                    },
                    {
                        "number": 91,
                        "time": 23.99997600000007,
                        "value": 1
                    },
                    {
                        "number": 91,
                        "time": 25.714260000000092,
                        "value": 1
                    },
                    {
                        "number": 91,
                        "time": 27.428544000000112,
                        "value": 1
                    },
                    {
                        "number": 91,
                        "time": 29.142828000000133,
                        "value": 1
                    },
                    {
                        "number": 91,
                        "time": 30.857112000000154,
                        "value": 1
                    },
                    {
                        "number": 91,
                        "time": 32.571396000000135,
                        "value": 1
                    },
                    {
                        "number": 91,
                        "time": 34.28568000000006,
                        "value": 1
                    },
                    {
                        "number": 91,
                        "time": 35.99996399999997,
                        "value": 1
                    },
                    {
                        "number": 91,
                        "time": 37.71424799999988,
                        "value": 1
                    },
                    {
                        "number": 91,
                        "time": 39.428531999999784,
                        "value": 1
                    },
                    {
                        "number": 91,
                        "time": 41.1428159999997,
                        "value": 1
                    },
                    {
                        "number": 91,
                        "time": 42.85709999999961,
                        "value": 1
                    },
                    {
                        "number": 91,
                        "time": 44.571383999999526,
                        "value": 1
                    },
                    {
                        "number": 91,
                        "time": 46.28566799999944,
                        "value": 1
                    },
                    {
                        "number": 91,
                        "time": 47.99995199999937,
                        "value": 1
                    },
                    {
                        "number": 91,
                        "time": 49.714235999999275,
                        "value": 1
                    },
                    {
                        "number": 91,
                        "time": 51.42851999999919,
                        "value": 1
                    },
                    {
                        "number": 91,
                        "time": 53.142803999999096,
                        "value": 1
                    },
                    {
                        "number": 91,
                        "time": 54.857087999999,
                        "value": 1
                    },
                    {
                        "number": 91,
                        "time": 56.57137199999891,
                        "value": 1
                    },
                    {
                        "number": 91,
                        "time": 58.285655999998816,
                        "value": 1
                    },
                    {
                        "number": 91,
                        "time": 59.99993999999872,
                        "value": 1
                    },
                    {
                        "number": 91,
                        "time": 61.71422399999863,
                        "value": 1
                    },
                    {
                        "number": 91,
                        "time": 63.42850799999854,
                        "value": 1
                    },
                    {
                        "number": 91,
                        "time": 65.1427919999986,
                        "value": 1
                    },
                    {
                        "number": 91,
                        "time": 66.85707599999873,
                        "value": 1
                    },
                    {
                        "number": 91,
                        "time": 68.57135999999886,
                        "value": 1
                    },
                    {
                        "number": 91,
                        "time": 70.285643999999,
                        "value": 1
                    },
                    {
                        "number": 91,
                        "time": 71.99992799999913,
                        "value": 1
                    },
                    {
                        "number": 91,
                        "time": 73.71421199999926,
                        "value": 1
                    },
                    {
                        "number": 91,
                        "time": 75.4284959999994,
                        "value": 1
                    },
                    {
                        "number": 91,
                        "time": 77.14277999999953,
                        "value": 1
                    },
                    {
                        "number": 91,
                        "time": 78.85706399999967,
                        "value": 1
                    },
                    {
                        "number": 91,
                        "time": 80.5713479999998,
                        "value": 1
                    },
                    {
                        "number": 91,
                        "time": 82.28563199999994,
                        "value": 1
                    },
                    {
                        "number": 91,
                        "time": 83.99991600000007,
                        "value": 1
                    },
                    {
                        "number": 91,
                        "time": 85.7142000000002,
                        "value": 1
                    },
                    {
                        "number": 91,
                        "time": 87.42848400000034,
                        "value": 1
                    },
                    {
                        "number": 91,
                        "time": 89.14276800000047,
                        "value": 1
                    },
                    {
                        "number": 91,
                        "time": 92.57133600000064,
                        "value": 1
                    },
                    {
                        "number": 91,
                        "time": 94.28562000000078,
                        "value": 1
                    },
                    {
                        "number": 91,
                        "time": 95.99990400000091,
                        "value": 1
                    },
                    {
                        "number": 91,
                        "time": 97.71418800000103,
                        "value": 1
                    },
                    {
                        "number": 91,
                        "time": 99.42847200000116,
                        "value": 1
                    },
                    {
                        "number": 91,
                        "time": 101.1427560000013,
                        "value": 1
                    },
                    {
                        "number": 91,
                        "time": 102.85704000000143,
                        "value": 1
                    },
                    {
                        "number": 91,
                        "time": 104.57132400000157,
                        "value": 1
                    },
                    {
                        "number": 91,
                        "time": 106.2856080000017,
                        "value": 1
                    },
                    {
                        "number": 91,
                        "time": 107.99989200000182,
                        "value": 1
                    },
                    {
                        "number": 91,
                        "time": 109.71417600000196,
                        "value": 1
                    },
                    {
                        "number": 91,
                        "time": 111.42846000000209,
                        "value": 1
                    },
                    {
                        "number": 91,
                        "time": 113.14274400000222,
                        "value": 1
                    },
                    {
                        "number": 91,
                        "time": 114.85702800000236,
                        "value": 1
                    },
                    {
                        "number": 91,
                        "time": 116.5713120000025,
                        "value": 1
                    },
                    {
                        "number": 91,
                        "time": 118.28559600000263,
                        "value": 1
                    },
                    {
                        "number": 91,
                        "time": 119.99988000000276,
                        "value": 1
                    },
                    {
                        "number": 91,
                        "time": 121.7141640000029,
                        "value": 1
                    },
                    {
                        "number": 91,
                        "time": 123.428448000003,
                        "value": 1
                    },
                    {
                        "number": 91,
                        "time": 125.14273200000314,
                        "value": 1
                    },
                    {
                        "number": 91,
                        "time": 126.85701600000323,
                        "value": 1
                    },
                    {
                        "number": 91,
                        "time": 128.57130000000333,
                        "value": 1
                    },
                    {
                        "number": 91,
                        "time": 130.28558400000347,
                        "value": 1
                    },
                    {
                        "number": 91,
                        "time": 131.9998680000036,
                        "value": 1
                    },
                    {
                        "number": 91,
                        "time": 133.71415200000374,
                        "value": 1
                    },
                    {
                        "number": 91,
                        "time": 135.42843600000387,
                        "value": 1
                    },
                    {
                        "number": 91,
                        "time": 137.142720000004,
                        "value": 1
                    },
                    {
                        "number": 91,
                        "time": 138.85700400000414,
                        "value": 1
                    }
                ]
            },
            "id": 1,
            "name": "Piano right",
            "instrumentNumber": 1,
            "instrument": "bright acoustic piano",
            "instrumentFamily": "piano",
            "channelNumber": 0,
            "isPercussion": false
        },
        {
            "startTime": 0,
            "duration": 142.2855720000042,
            "length": 1317,
            "notes": [
                {
                    "name": "C2",
                    "midi": 36,
                    "time": 0,
                    "velocity": 0.48031496062992124,
                    "duration": 0.10624989375000002
                },
                {
                    "name": "G2",
                    "midi": 43,
                    "time": 0.10714275000000002,
                    "velocity": 0.3228346456692913,
                    "duration": 0.10624989375000003
                },
                {
                    "name": "C3",
                    "midi": 48,
                    "time": 0.21428550000000005,
                    "velocity": 0.3228346456692913,
                    "duration": 0.10624989375000002
                },
                {
                    "name": "C3",
                    "midi": 48,
                    "time": 0.3214282500000001,
                    "velocity": 0.33070866141732286,
                    "duration": 0.10624989375000005
                },
                {
                    "name": "G3",
                    "midi": 55,
                    "time": 0.42857100000000015,
                    "velocity": 0.41732283464566927,
                    "duration": 0.10624989375000005
                },
                {
                    "name": "C4",
                    "midi": 60,
                    "time": 0.5357137500000002,
                    "velocity": 0.3464566929133858,
                    "duration": 0.10624989375000005
                },
                {
                    "name": "C4",
                    "midi": 60,
                    "time": 0.6428565000000003,
                    "velocity": 0.33070866141732286,
                    "duration": 0.10624989375000005
                },
                {
                    "name": "G4",
                    "midi": 67,
                    "time": 0.7499992500000003,
                    "velocity": 0.33070866141732286,
                    "duration": 0.10624989375000005
                },
                {
                    "name": "C5",
                    "midi": 72,
                    "time": 0.8571420000000004,
                    "velocity": 0.4015748031496063,
                    "duration": 0.10624989375000005
                },
                {
                    "name": "G4",
                    "midi": 67,
                    "time": 0.9642847500000005,
                    "velocity": 0.33070866141732286,
                    "duration": 0.10624989375000005
                },
                {
                    "name": "C4",
                    "midi": 60,
                    "time": 1.0714275000000004,
                    "velocity": 0.33070866141732286,
                    "duration": 0.10624989375000005
                },
                {
                    "name": "C4",
                    "midi": 60,
                    "time": 1.1785702500000004,
                    "velocity": 0.33070866141732286,
                    "duration": 0.10624989375000005
                },
                {
                    "name": "G3",
                    "midi": 55,
                    "time": 1.2857130000000003,
                    "velocity": 0.3937007874015748,
                    "duration": 0.10624989375000005
                },
                {
                    "name": "C3",
                    "midi": 48,
                    "time": 1.3928557500000003,
                    "velocity": 0.33070866141732286,
                    "duration": 0.10624989375000005
                },
                {
                    "name": "C3",
                    "midi": 48,
                    "time": 1.4999985000000002,
                    "velocity": 0.33070866141732286,
                    "duration": 0.10624989375000005
                },
                {
                    "name": "G2",
                    "midi": 43,
                    "time": 1.6071412500000002,
                    "velocity": 0.33070866141732286,
                    "duration": 0.10624989375000005
                },
                {
                    "name": "C2",
                    "midi": 36,
                    "time": 1.7142840000000001,
                    "velocity": 0.4645669291338583,
                    "duration": 0.10624989375000005
                },
                {
                    "name": "F2",
                    "midi": 41,
                    "time": 1.82142675,
                    "velocity": 0.36220472440944884,
                    "duration": 0.10624989375000005
                },
                {
                    "name": "C3",
                    "midi": 48,
                    "time": 1.9285695,
                    "velocity": 0.31496062992125984,
                    "duration": 0.10624989374999982
                },
                {
                    "name": "C3",
                    "midi": 48,
                    "time": 2.03571225,
                    "velocity": 0.31496062992125984,
                    "duration": 0.10624989374999982
                },
                {
                    "name": "F3",
                    "midi": 53,
                    "time": 2.142855,
                    "velocity": 0.44881889763779526,
                    "duration": 0.10624989374999982
                },
                {
                    "name": "C4",
                    "midi": 60,
                    "time": 2.24999775,
                    "velocity": 0.31496062992125984,
                    "duration": 0.10624989374999982
                },
                {
                    "name": "C4",
                    "midi": 60,
                    "time": 2.3571405,
                    "velocity": 0.31496062992125984,
                    "duration": 0.10624989374999982
                },
                {
                    "name": "F4",
                    "midi": 65,
                    "time": 2.46428325,
                    "velocity": 0.3228346456692913,
                    "duration": 0.10624989374999982
                },
                {
                    "name": "C5",
                    "midi": 72,
                    "time": 2.5714259999999998,
                    "velocity": 0.4409448818897638,
                    "duration": 0.10624989374999982
                },
                {
                    "name": "F4",
                    "midi": 65,
                    "time": 2.6785687499999997,
                    "velocity": 0.36220472440944884,
                    "duration": 0.10624989374999982
                },
                {
                    "name": "C4",
                    "midi": 60,
                    "time": 2.7857114999999997,
                    "velocity": 0.36220472440944884,
                    "duration": 0.10624989374999982
                },
                {
                    "name": "C4",
                    "midi": 60,
                    "time": 2.8928542499999996,
                    "velocity": 0.36220472440944884,
                    "duration": 0.10624989374999982
                },
                {
                    "name": "F3",
                    "midi": 53,
                    "time": 2.9999969999999996,
                    "velocity": 0.41732283464566927,
                    "duration": 0.10624989374999982
                },
                {
                    "name": "C3",
                    "midi": 48,
                    "time": 3.1071397499999995,
                    "velocity": 0.33070866141732286,
                    "duration": 0.10624989374999982
                },
                {
                    "name": "C3",
                    "midi": 48,
                    "time": 3.2142824999999995,
                    "velocity": 0.33070866141732286,
                    "duration": 0.10624989374999982
                },
                {
                    "name": "F2",
                    "midi": 41,
                    "time": 3.3214252499999994,
                    "velocity": 0.33070866141732286,
                    "duration": 0.10624989374999982
                },
                {
                    "name": "C2",
                    "midi": 36,
                    "time": 3.4285679999999994,
                    "velocity": 0.5039370078740157,
                    "duration": 0.10624989375000027
                },
                {
                    "name": "G#2",
                    "midi": 44,
                    "time": 3.53571075,
                    "velocity": 0.3779527559055118,
                    "duration": 0.10624989374999982
                },
                {
                    "name": "C3",
                    "midi": 48,
                    "time": 3.6428534999999997,
                    "velocity": 0.3779527559055118,
                    "duration": 0.10624989374999982
                },
                {
                    "name": "C3",
                    "midi": 48,
                    "time": 3.7499962499999997,
                    "velocity": 0.3779527559055118,
                    "duration": 0.10624989374999982
                },
                {
                    "name": "G#3",
                    "midi": 56,
                    "time": 3.8571389999999997,
                    "velocity": 0.47244094488188976,
                    "duration": 0.10624989374999982
                },
                {
                    "name": "C4",
                    "midi": 60,
                    "time": 3.9642817499999996,
                    "velocity": 0.3779527559055118,
                    "duration": 0.10624989375000027
                },
                {
                    "name": "C4",
                    "midi": 60,
                    "time": 4.0714245,
                    "velocity": 0.3779527559055118,
                    "duration": 0.10624989375000027
                },
                {
                    "name": "G#4",
                    "midi": 68,
                    "time": 4.17856725,
                    "velocity": 0.3779527559055118,
                    "duration": 0.10624989375000027
                },
                {
                    "name": "C5",
                    "midi": 72,
                    "time": 4.285710000000001,
                    "velocity": 0.4645669291338583,
                    "duration": 0.10624989375000027
                },
                {
                    "name": "G#4",
                    "midi": 68,
                    "time": 4.392852750000001,
                    "velocity": 0.3779527559055118,
                    "duration": 0.10624989375000027
                },
                {
                    "name": "C4",
                    "midi": 60,
                    "time": 4.499995500000002,
                    "velocity": 0.3858267716535433,
                    "duration": 0.10624989375000027
                },
                {
                    "name": "C4",
                    "midi": 60,
                    "time": 4.607138250000002,
                    "velocity": 0.3858267716535433,
                    "duration": 0.10624989375000027
                },
                {
                    "name": "G#3",
                    "midi": 56,
                    "time": 4.714281000000002,
                    "velocity": 0.4409448818897638,
                    "duration": 0.10624989375000027
                },
                {
                    "name": "C3",
                    "midi": 48,
                    "time": 4.821423750000003,
                    "velocity": 0.3464566929133858,
                    "duration": 0.10624989375000027
                },
                {
                    "name": "C3",
                    "midi": 48,
                    "time": 4.928566500000003,
                    "velocity": 0.3464566929133858,
                    "duration": 0.10624989375000027
                },
                {
                    "name": "G#2",
                    "midi": 44,
                    "time": 5.035709250000004,
                    "velocity": 0.3464566929133858,
                    "duration": 0.10624989375000027
                },
                {
                    "name": "C2",
                    "midi": 36,
                    "time": 5.142852000000004,
                    "velocity": 0.5748031496062992,
                    "duration": 0.10624989374999938
                },
                {
                    "name": "G2",
                    "midi": 43,
                    "time": 5.2499947500000035,
                    "velocity": 0.3937007874015748,
                    "duration": 0.10624989375000027
                },
                {
                    "name": "C3",
                    "midi": 48,
                    "time": 5.357137500000004,
                    "velocity": 0.3937007874015748,
                    "duration": 0.10624989375000027
                },
                {
                    "name": "C3",
                    "midi": 48,
                    "time": 5.464280250000004,
                    "velocity": 0.3937007874015748,
                    "duration": 0.10624989375000027
                },
                {
                    "name": "G3",
                    "midi": 55,
                    "time": 5.571423000000005,
                    "velocity": 0.49606299212598426,
                    "duration": 0.10624989375000027
                },
                {
                    "name": "C4",
                    "midi": 60,
                    "time": 5.678565750000005,
                    "velocity": 0.4015748031496063,
                    "duration": 0.10624989375000027
                },
                {
                    "name": "C4",
                    "midi": 60,
                    "time": 5.7857085000000055,
                    "velocity": 0.3937007874015748,
                    "duration": 0.10624989375000027
                },
                {
                    "name": "G4",
                    "midi": 67,
                    "time": 5.892851250000006,
                    "velocity": 0.3937007874015748,
                    "duration": 0.10624989375000027
                },
                {
                    "name": "C5",
                    "midi": 72,
                    "time": 5.999994000000006,
                    "velocity": 0.4881889763779528,
                    "duration": 0.10624989375000027
                },
                {
                    "name": "G4",
                    "midi": 67,
                    "time": 6.107136750000007,
                    "velocity": 0.4015748031496063,
                    "duration": 0.10624989375000027
                },
                {
                    "name": "C4",
                    "midi": 60,
                    "time": 6.214279500000007,
                    "velocity": 0.4015748031496063,
                    "duration": 0.10624989375000027
                },
                {
                    "name": "C4",
                    "midi": 60,
                    "time": 6.3214222500000075,
                    "velocity": 0.3937007874015748,
                    "duration": 0.10624989375000027
                },
                {
                    "name": "G3",
                    "midi": 55,
                    "time": 6.428565000000008,
                    "velocity": 0.4566929133858268,
                    "duration": 0.10624989375000027
                },
                {
                    "name": "C3",
                    "midi": 48,
                    "time": 6.535707750000008,
                    "velocity": 0.3858267716535433,
                    "duration": 0.10624989375000027
                },
                {
                    "name": "C3",
                    "midi": 48,
                    "time": 6.642850500000009,
                    "velocity": 0.3858267716535433,
                    "duration": 0.10624989375000027
                },
                {
                    "name": "G2",
                    "midi": 43,
                    "time": 6.749993250000009,
                    "velocity": 0.3858267716535433,
                    "duration": 0.10624989375000027
                },
                {
                    "name": "C2",
                    "midi": 36,
                    "time": 6.8571360000000094,
                    "velocity": 0.5196850393700787,
                    "duration": 0.10624989375000027
                },
                {
                    "name": "F2",
                    "midi": 41,
                    "time": 6.96427875000001,
                    "velocity": 0.4015748031496063,
                    "duration": 0.10624989375000027
                },
                {
                    "name": "C3",
                    "midi": 48,
                    "time": 7.07142150000001,
                    "velocity": 0.3543307086614173,
                    "duration": 0.10624989375000027
                },
                {
                    "name": "C3",
                    "midi": 48,
                    "time": 7.178564250000011,
                    "velocity": 0.3543307086614173,
                    "duration": 0.10624989375000027
                },
                {
                    "name": "F3",
                    "midi": 53,
                    "time": 7.285707000000011,
                    "velocity": 0.48031496062992124,
                    "duration": 0.10624989375000027
                },
                {
                    "name": "C4",
                    "midi": 60,
                    "time": 7.392849750000011,
                    "velocity": 0.3464566929133858,
                    "duration": 0.10624989375000027
                },
                {
                    "name": "C4",
                    "midi": 60,
                    "time": 7.499992500000012,
                    "velocity": 0.3464566929133858,
                    "duration": 0.10624989375000027
                },
                {
                    "name": "F4",
                    "midi": 65,
                    "time": 7.607135250000012,
                    "velocity": 0.3464566929133858,
                    "duration": 0.10624989375000027
                },
                {
                    "name": "C5",
                    "midi": 72,
                    "time": 7.714278000000013,
                    "velocity": 0.47244094488188976,
                    "duration": 0.10624989375000027
                },
                {
                    "name": "F4",
                    "midi": 65,
                    "time": 7.821420750000013,
                    "velocity": 0.3779527559055118,
                    "duration": 0.10624989375000027
                },
                {
                    "name": "C4",
                    "midi": 60,
                    "time": 7.928563500000013,
                    "velocity": 0.3779527559055118,
                    "duration": 0.10624989375000027
                },
                {
                    "name": "C4",
                    "midi": 60,
                    "time": 8.035706250000013,
                    "velocity": 0.3779527559055118,
                    "duration": 0.10624989375000027
                },
                {
                    "name": "F3",
                    "midi": 53,
                    "time": 8.142849000000012,
                    "velocity": 0.41732283464566927,
                    "duration": 0.10624989375000027
                },
                {
                    "name": "C3",
                    "midi": 48,
                    "time": 8.249991750000012,
                    "velocity": 0.33070866141732286,
                    "duration": 0.10624989375000027
                },
                {
                    "name": "C3",
                    "midi": 48,
                    "time": 8.357134500000011,
                    "velocity": 0.33070866141732286,
                    "duration": 0.10624989375000027
                },
                {
                    "name": "F2",
                    "midi": 41,
                    "time": 8.464277250000011,
                    "velocity": 0.33070866141732286,
                    "duration": 0.10624989375000027
                },
                {
                    "name": "C2",
                    "midi": 36,
                    "time": 8.57142000000001,
                    "velocity": 0.5039370078740157,
                    "duration": 0.10624989375000027
                },
                {
                    "name": "F2",
                    "midi": 41,
                    "time": 8.67856275000001,
                    "velocity": 0.3779527559055118,
                    "duration": 0.10624989375000027
                },
                {
                    "name": "B2",
                    "midi": 47,
                    "time": 8.78570550000001,
                    "velocity": 0.3779527559055118,
                    "duration": 0.10624989375000027
                },
                {
                    "name": "C3",
                    "midi": 48,
                    "time": 8.892848250000009,
                    "velocity": 0.3700787401574803,
                    "duration": 0.10624989375000027
                },
                {
                    "name": "G#3",
                    "midi": 56,
                    "time": 8.999991000000009,
                    "velocity": 0.4566929133858268,
                    "duration": 0.10624989375000027
                },
                {
                    "name": "B3",
                    "midi": 59,
                    "time": 9.107133750000008,
                    "velocity": 0.36220472440944884,
                    "duration": 0.10624989375000027
                },
                {
                    "name": "C4",
                    "midi": 60,
                    "time": 9.214276500000008,
                    "velocity": 0.36220472440944884,
                    "duration": 0.10624989375000027
                },
                {
                    "name": "F4",
                    "midi": 65,
                    "time": 9.321419250000007,
                    "velocity": 0.36220472440944884,
                    "duration": 0.10624989375000027
                },
                {
                    "name": "B4",
                    "midi": 71,
                    "time": 9.428562000000007,
                    "velocity": 0.4330708661417323,
                    "duration": 0.10624989375000027
                },
                {
                    "name": "F4",
                    "midi": 65,
                    "time": 9.535704750000006,
                    "velocity": 0.3543307086614173,
                    "duration": 0.10624989375000027
                },
                {
                    "name": "C4",
                    "midi": 60,
                    "time": 9.642847500000006,
                    "velocity": 0.3543307086614173,
                    "duration": 0.10624989375000027
                },
                {
                    "name": "B3",
                    "midi": 59,
                    "time": 9.749990250000005,
                    "velocity": 0.3543307086614173,
                    "duration": 0.10624989375000027
                },
                {
                    "name": "F3",
                    "midi": 53,
                    "time": 9.857133000000005,
                    "velocity": 0.3937007874015748,
                    "duration": 0.10624989375000027
                },
                {
                    "name": "C3",
                    "midi": 48,
                    "time": 9.964275750000004,
                    "velocity": 0.30708661417322836,
                    "duration": 0.10624989375000027
                },
                {
                    "name": "B2",
                    "midi": 47,
                    "time": 10.071418500000004,
                    "velocity": 0.30708661417322836,
                    "duration": 0.10624989375000027
                },
                {
                    "name": "F2",
                    "midi": 41,
                    "time": 10.178561250000003,
                    "velocity": 0.2992125984251969,
                    "duration": 0.10624989375000027
                },
                {
                    "name": "C2",
                    "midi": 36,
                    "time": 10.285704000000003,
                    "velocity": 0.47244094488188976,
                    "duration": 0.10624989375000027
                },
                {
                    "name": "G2",
                    "midi": 43,
                    "time": 10.392846750000002,
                    "velocity": 0.3464566929133858,
                    "duration": 0.10624989375000027
                },
                {
                    "name": "C3",
                    "midi": 48,
                    "time": 10.499989500000002,
                    "velocity": 0.3464566929133858,
                    "duration": 0.10624989375000027
                },
                {
                    "name": "C3",
                    "midi": 48,
                    "time": 10.607132250000001,
                    "velocity": 0.3464566929133858,
                    "duration": 0.10624989375000027
                },
                {
                    "name": "G3",
                    "midi": 55,
                    "time": 10.714275,
                    "velocity": 0.3937007874015748,
                    "duration": 0.10624989375000027
                },
                {
                    "name": "C4",
                    "midi": 60,
                    "time": 10.82141775,
                    "velocity": 0.2992125984251969,
                    "duration": 0.10624989375000027
                },
                {
                    "name": "G3",
                    "midi": 55,
                    "time": 10.9285605,
                    "velocity": 0.2992125984251969,
                    "duration": 0.10624989375000027
                },
                {
                    "name": "C3",
                    "midi": 48,
                    "time": 11.03570325,
                    "velocity": 0.2992125984251969,
                    "duration": 0.10624989375000027
                },
                {
                    "name": "G3",
                    "midi": 55,
                    "time": 11.142845999999999,
                    "velocity": 0.3700787401574803,
                    "duration": 0.10624989375000027
                },
                {
                    "name": "C4",
                    "midi": 60,
                    "time": 11.249988749999998,
                    "velocity": 0.29133858267716534,
                    "duration": 0.10624989375000027
                },
                {
                    "name": "G3",
                    "midi": 55,
                    "time": 11.357131499999998,
                    "velocity": 0.29133858267716534,
                    "duration": 0.10624989375000027
                },
                {
                    "name": "C3",
                    "midi": 48,
                    "time": 11.464274249999997,
                    "velocity": 0.2755905511811024,
                    "duration": 0.10624989375000027
                },
                {
                    "name": "G3",
                    "midi": 55,
                    "time": 11.571416999999997,
                    "velocity": 0.3228346456692913,
                    "duration": 0.10624989375000027
                },
                {
                    "name": "C4",
                    "midi": 60,
                    "time": 11.678559749999996,
                    "velocity": 0.2440944881889764,
                    "duration": 0.10624989375000027
                },
                {
                    "name": "G3",
                    "midi": 55,
                    "time": 11.785702499999996,
                    "velocity": 0.2440944881889764,
                    "duration": 0.10624989375000027
                },
                {
                    "name": "C3",
                    "midi": 48,
                    "time": 11.892845249999995,
                    "velocity": 0.2440944881889764,
                    "duration": 0.10624989375000027
                },
                {
                    "name": "G3",
                    "midi": 55,
                    "time": 11.999987999999995,
                    "velocity": 0.3464566929133858,
                    "duration": 0.10624989375000027
                },
                {
                    "name": "B3",
                    "midi": 59,
                    "time": 12.107130749999994,
                    "velocity": 0.2677165354330709,
                    "duration": 0.10624989375000027
                },
                {
                    "name": "G3",
                    "midi": 55,
                    "time": 12.214273499999994,
                    "velocity": 0.25984251968503935,
                    "duration": 0.10624989375000027
                },
                {
                    "name": "C3",
                    "midi": 48,
                    "time": 12.321416249999993,
                    "velocity": 0.25984251968503935,
                    "duration": 0.10624989375000027
                },
                {
                    "name": "G3",
                    "midi": 55,
                    "time": 12.428558999999993,
                    "velocity": 0.30708661417322836,
                    "duration": 0.10624989375000027
                },
                {
                    "name": "A#3",
                    "midi": 58,
                    "time": 12.535701749999992,
                    "velocity": 0.2440944881889764,
                    "duration": 0.10624989375000027
                },
                {
                    "name": "G3",
                    "midi": 55,
                    "time": 12.642844499999992,
                    "velocity": 0.2440944881889764,
                    "duration": 0.10624989375000027
                },
                {
                    "name": "C3",
                    "midi": 48,
                    "time": 12.749987249999991,
                    "velocity": 0.23622047244094488,
                    "duration": 0.10624989375000027
                },
                {
                    "name": "F3",
                    "midi": 53,
                    "time": 12.85712999999999,
                    "velocity": 0.2755905511811024,
                    "duration": 0.10624989375000027
                },
                {
                    "name": "A3",
                    "midi": 57,
                    "time": 12.96427274999999,
                    "velocity": 0.2047244094488189,
                    "duration": 0.10624989375000027
                },
                {
                    "name": "F3",
                    "midi": 53,
                    "time": 13.07141549999999,
                    "velocity": 0.2047244094488189,
                    "duration": 0.10624989375000027
                },
                {
                    "name": "C3",
                    "midi": 48,
                    "time": 13.17855824999999,
                    "velocity": 0.2047244094488189,
                    "duration": 0.10624989375000027
                },
                {
                    "name": "F3",
                    "midi": 53,
                    "time": 13.285700999999989,
                    "velocity": 0.2677165354330709,
                    "duration": 0.10624989375000027
                },
                {
                    "name": "G#3",
                    "midi": 56,
                    "time": 13.392843749999988,
                    "velocity": 0.1968503937007874,
                    "duration": 0.10624989375000027
                },
                {
                    "name": "F3",
                    "midi": 53,
                    "time": 13.499986499999988,
                    "velocity": 0.1968503937007874,
                    "duration": 0.10624989375000027
                },
                {
                    "name": "C3",
                    "midi": 48,
                    "time": 13.607129249999987,
                    "velocity": 0.1889763779527559,
                    "duration": 0.10624989375000027
                },
                {
                    "name": "C2",
                    "midi": 36,
                    "time": 13.714271999999987,
                    "velocity": 0.5039370078740157,
                    "duration": 0.10624989375000027
                },
                {
                    "name": "G2",
                    "midi": 43,
                    "time": 13.821414749999986,
                    "velocity": 0.3464566929133858,
                    "duration": 0.10624989375000027
                },
                {
                    "name": "C3",
                    "midi": 48,
                    "time": 13.928557499999986,
                    "velocity": 0.3464566929133858,
                    "duration": 0.10624989375000027
                },
                {
                    "name": "C3",
                    "midi": 48,
                    "time": 14.035700249999985,
                    "velocity": 0.3464566929133858,
                    "duration": 0.10624989375000027
                },
                {
                    "name": "G3",
                    "midi": 55,
                    "time": 14.142842999999985,
                    "velocity": 0.4409448818897638,
                    "duration": 0.10624989375000027
                },
                {
                    "name": "C4",
                    "midi": 60,
                    "time": 14.249985749999984,
                    "velocity": 0.3543307086614173,
                    "duration": 0.10624989375000027
                },
                {
                    "name": "C4",
                    "midi": 60,
                    "time": 14.357128499999984,
                    "velocity": 0.3464566929133858,
                    "duration": 0.10624989375000027
                },
                {
                    "name": "G4",
                    "midi": 67,
                    "time": 14.464271249999983,
                    "velocity": 0.3543307086614173,
                    "duration": 0.10624989375000027
                },
                {
                    "name": "C5",
                    "midi": 72,
                    "time": 14.571413999999983,
                    "velocity": 0.41732283464566927,
                    "duration": 0.10624989375000027
                },
                {
                    "name": "G4",
                    "midi": 67,
                    "time": 14.678556749999983,
                    "velocity": 0.3543307086614173,
                    "duration": 0.10624989375000027
                },
                {
                    "name": "C4",
                    "midi": 60,
                    "time": 14.785699499999982,
                    "velocity": 0.3543307086614173,
                    "duration": 0.10624989375000027
                },
                {
                    "name": "C4",
                    "midi": 60,
                    "time": 14.892842249999982,
                    "velocity": 0.3543307086614173,
                    "duration": 0.10624989375000027
                },
                {
                    "name": "G3",
                    "midi": 55,
                    "time": 14.999984999999981,
                    "velocity": 0.4015748031496063,
                    "duration": 0.10624989375000027
                },
                {
                    "name": "C3",
                    "midi": 48,
                    "time": 15.10712774999998,
                    "velocity": 0.3464566929133858,
                    "duration": 0.10624989375000027
                },
                {
                    "name": "C3",
                    "midi": 48,
                    "time": 15.21427049999998,
                    "velocity": 0.3464566929133858,
                    "duration": 0.10624989375000027
                },
                {
                    "name": "G2",
                    "midi": 43,
                    "time": 15.32141324999998,
                    "velocity": 0.3464566929133858,
                    "duration": 0.10624989375000027
                },
                {
                    "name": "C2",
                    "midi": 36,
                    "time": 15.428555999999979,
                    "velocity": 0.47244094488188976,
                    "duration": 0.10624989375000027
                },
                {
                    "name": "F2",
                    "midi": 41,
                    "time": 15.535698749999979,
                    "velocity": 0.36220472440944884,
                    "duration": 0.10624989375000027
                },
                {
                    "name": "C3",
                    "midi": 48,
                    "time": 15.642841499999978,
                    "velocity": 0.31496062992125984,
                    "duration": 0.10624989375000027
                },
                {
                    "name": "C3",
                    "midi": 48,
                    "time": 15.749984249999978,
                    "velocity": 0.31496062992125984,
                    "duration": 0.10624989375000027
                },
                {
                    "name": "F3",
                    "midi": 53,
                    "time": 15.857126999999977,
                    "velocity": 0.44881889763779526,
                    "duration": 0.10624989375000027
                },
                {
                    "name": "C4",
                    "midi": 60,
                    "time": 15.964269749999977,
                    "velocity": 0.3228346456692913,
                    "duration": 0.10624989374999849
                },
                {
                    "name": "C4",
                    "midi": 60,
                    "time": 16.071412499999976,
                    "velocity": 0.3228346456692913,
                    "duration": 0.10624989375000027
                },
                {
                    "name": "F4",
                    "midi": 65,
                    "time": 16.178555249999977,
                    "velocity": 0.3228346456692913,
                    "duration": 0.10624989375000027
                },
                {
                    "name": "C5",
                    "midi": 72,
                    "time": 16.28569799999998,
                    "velocity": 0.4409448818897638,
                    "duration": 0.10624989375000027
                },
                {
                    "name": "F4",
                    "midi": 65,
                    "time": 16.39284074999998,
                    "velocity": 0.36220472440944884,
                    "duration": 0.10624989375000027
                },
                {
                    "name": "C4",
                    "midi": 60,
                    "time": 16.49998349999998,
                    "velocity": 0.36220472440944884,
                    "duration": 0.10624989375000027
                },
                {
                    "name": "C4",
                    "midi": 60,
                    "time": 16.607126249999983,
                    "velocity": 0.36220472440944884,
                    "duration": 0.10624989375000027
                },
                {
                    "name": "F3",
                    "midi": 53,
                    "time": 16.714268999999984,
                    "velocity": 0.4094488188976378,
                    "duration": 0.10624989375000027
                },
                {
                    "name": "C3",
                    "midi": 48,
                    "time": 16.821411749999985,
                    "velocity": 0.3228346456692913,
                    "duration": 0.10624989375000027
                },
                {
                    "name": "C3",
                    "midi": 48,
                    "time": 16.928554499999986,
                    "velocity": 0.3228346456692913,
                    "duration": 0.10624989375000027
                },
                {
                    "name": "F2",
                    "midi": 41,
                    "time": 17.035697249999988,
                    "velocity": 0.3228346456692913,
                    "duration": 0.10624989375000027
                },
                {
                    "name": "C2",
                    "midi": 36,
                    "time": 17.14283999999999,
                    "velocity": 0.49606299212598426,
                    "duration": 0.10624989375000027
                },
                {
                    "name": "G#2",
                    "midi": 44,
                    "time": 17.24998274999999,
                    "velocity": 0.3700787401574803,
                    "duration": 0.10624989375000027
                },
                {
                    "name": "C3",
                    "midi": 48,
                    "time": 17.35712549999999,
                    "velocity": 0.3700787401574803,
                    "duration": 0.10624989375000027
                },
                {
                    "name": "C3",
                    "midi": 48,
                    "time": 17.464268249999993,
                    "velocity": 0.3779527559055118,
                    "duration": 0.10624989375000027
                },
                {
                    "name": "G#3",
                    "midi": 56,
                    "time": 17.571410999999994,
                    "velocity": 0.4645669291338583,
                    "duration": 0.10624989375000027
                },
                {
                    "name": "C4",
                    "midi": 60,
                    "time": 17.678553749999995,
                    "velocity": 0.3700787401574803,
                    "duration": 0.10624989375000027
                },
                {
                    "name": "C4",
                    "midi": 60,
                    "time": 17.785696499999997,
                    "velocity": 0.3700787401574803,
                    "duration": 0.10624989375000027
                },
                {
                    "name": "G#4",
                    "midi": 68,
                    "time": 17.892839249999998,
                    "velocity": 0.3700787401574803,
                    "duration": 0.10624989375000027
                },
                {
                    "name": "C5",
                    "midi": 72,
                    "time": 17.999982,
                    "velocity": 0.44881889763779526,
                    "duration": 0.10624989375000027
                },
                {
                    "name": "G#4",
                    "midi": 68,
                    "time": 18.10712475,
                    "velocity": 0.3700787401574803,
                    "duration": 0.10624989375000027
                },
                {
                    "name": "C4",
                    "midi": 60,
                    "time": 18.214267500000002,
                    "velocity": 0.3700787401574803,
                    "duration": 0.10624989375000027
                },
                {
                    "name": "C4",
                    "midi": 60,
                    "time": 18.321410250000003,
                    "velocity": 0.3700787401574803,
                    "duration": 0.10624989375000027
                },
                {
                    "name": "G#3",
                    "midi": 56,
                    "time": 18.428553000000004,
                    "velocity": 0.41732283464566927,
                    "duration": 0.10624989375000027
                },
                {
                    "name": "C3",
                    "midi": 48,
                    "time": 18.535695750000006,
                    "velocity": 0.3228346456692913,
                    "duration": 0.10624989375000027
                },
                {
                    "name": "C3",
                    "midi": 48,
                    "time": 18.642838500000007,
                    "velocity": 0.3228346456692913,
                    "duration": 0.10624989375000027
                },
                {
                    "name": "G#2",
                    "midi": 44,
                    "time": 18.74998125000001,
                    "velocity": 0.3228346456692913,
                    "duration": 0.10624989375000027
                },
                {
                    "name": "C2",
                    "midi": 36,
                    "time": 18.85712400000001,
                    "velocity": 0.5433070866141733,
                    "duration": 0.10624989374999672
                },
                {
                    "name": "G2",
                    "midi": 43,
                    "time": 18.964266750000007,
                    "velocity": 0.3700787401574803,
                    "duration": 0.10624989375000027
                },
                {
                    "name": "C3",
                    "midi": 48,
                    "time": 19.07140950000001,
                    "velocity": 0.3700787401574803,
                    "duration": 0.10624989375000027
                },
                {
                    "name": "C3",
                    "midi": 48,
                    "time": 19.17855225000001,
                    "velocity": 0.3700787401574803,
                    "duration": 0.10624989375000027
                },
                {
                    "name": "G3",
                    "midi": 55,
                    "time": 19.28569500000001,
                    "velocity": 0.47244094488188976,
                    "duration": 0.10624989375000027
                },
                {
                    "name": "C4",
                    "midi": 60,
                    "time": 19.392837750000012,
                    "velocity": 0.3779527559055118,
                    "duration": 0.10624989375000027
                },
                {
                    "name": "C4",
                    "midi": 60,
                    "time": 19.499980500000014,
                    "velocity": 0.3700787401574803,
                    "duration": 0.10624989375000027
                },
                {
                    "name": "G4",
                    "midi": 67,
                    "time": 19.607123250000015,
                    "velocity": 0.3700787401574803,
                    "duration": 0.10624989375000027
                },
                {
                    "name": "C5",
                    "midi": 72,
                    "time": 19.714266000000016,
                    "velocity": 0.4566929133858268,
                    "duration": 0.10624989375000027
                },
                {
                    "name": "G4",
                    "midi": 67,
                    "time": 19.821408750000018,
                    "velocity": 0.3779527559055118,
                    "duration": 0.10624989375000027
                },
                {
                    "name": "C4",
                    "midi": 60,
                    "time": 19.92855150000002,
                    "velocity": 0.3779527559055118,
                    "duration": 0.10624989375000027
                },
                {
                    "name": "C4",
                    "midi": 60,
                    "time": 20.03569425000002,
                    "velocity": 0.3779527559055118,
                    "duration": 0.10624989375000027
                },
                {
                    "name": "G3",
                    "midi": 55,
                    "time": 20.14283700000002,
                    "velocity": 0.4330708661417323,
                    "duration": 0.10624989375000027
                },
                {
                    "name": "C3",
                    "midi": 48,
                    "time": 20.249979750000023,
                    "velocity": 0.3700787401574803,
                    "duration": 0.10624989375000027
                },
                {
                    "name": "C3",
                    "midi": 48,
                    "time": 20.357122500000024,
                    "velocity": 0.3700787401574803,
                    "duration": 0.10624989375000027
                },
                {
                    "name": "G2",
                    "midi": 43,
                    "time": 20.464265250000025,
                    "velocity": 0.3700787401574803,
                    "duration": 0.10624989375000027
                },
                {
                    "name": "F2",
                    "midi": 41,
                    "time": 20.571408000000027,
                    "velocity": 0.5590551181102362,
                    "duration": 0.10624989375000027
                },
                {
                    "name": "C#3",
                    "midi": 49,
                    "time": 20.678550750000028,
                    "velocity": 0.41732283464566927,
                    "duration": 0.10624989375000027
                },
                {
                    "name": "F3",
                    "midi": 53,
                    "time": 20.78569350000003,
                    "velocity": 0.3700787401574803,
                    "duration": 0.10624989375000027
                },
                {
                    "name": "F3",
                    "midi": 53,
                    "time": 20.89283625000003,
                    "velocity": 0.3700787401574803,
                    "duration": 0.10624989375000027
                },
                {
                    "name": "C#4",
                    "midi": 61,
                    "time": 20.99997900000003,
                    "velocity": 0.5275590551181102,
                    "duration": 0.10624989375000027
                },
                {
                    "name": "F4",
                    "midi": 65,
                    "time": 21.107121750000033,
                    "velocity": 0.3700787401574803,
                    "duration": 0.10624989375000027
                },
                {
                    "name": "F4",
                    "midi": 65,
                    "time": 21.214264500000034,
                    "velocity": 0.3779527559055118,
                    "duration": 0.10624989375000027
                },
                {
                    "name": "C#5",
                    "midi": 73,
                    "time": 21.321407250000036,
                    "velocity": 0.3779527559055118,
                    "duration": 0.10624989375000027
                },
                {
                    "name": "F5",
                    "midi": 77,
                    "time": 21.428550000000037,
                    "velocity": 0.5196850393700787,
                    "duration": 0.10624989375000027
                },
                {
                    "name": "C#5",
                    "midi": 73,
                    "time": 21.535692750000038,
                    "velocity": 0.41732283464566927,
                    "duration": 0.10624989375000027
                },
                {
                    "name": "F4",
                    "midi": 65,
                    "time": 21.64283550000004,
                    "velocity": 0.41732283464566927,
                    "duration": 0.10624989375000027
                },
                {
                    "name": "F4",
                    "midi": 65,
                    "time": 21.74997825000004,
                    "velocity": 0.41732283464566927,
                    "duration": 0.10624989375000027
                },
                {
                    "name": "C#4",
                    "midi": 61,
                    "time": 21.857121000000042,
                    "velocity": 0.47244094488188976,
                    "duration": 0.10624989375000027
                },
                {
                    "name": "F3",
                    "midi": 53,
                    "time": 21.964263750000043,
                    "velocity": 0.3779527559055118,
                    "duration": 0.10624989375000027
                },
                {
                    "name": "F3",
                    "midi": 53,
                    "time": 22.071406500000045,
                    "velocity": 0.3779527559055118,
                    "duration": 0.10624989375000027
                },
                {
                    "name": "C#3",
                    "midi": 49,
                    "time": 22.178549250000046,
                    "velocity": 0.3779527559055118,
                    "duration": 0.10624989375000027
                },
                {
                    "name": "G2",
                    "midi": 43,
                    "time": 22.285692000000047,
                    "velocity": 0.5984251968503937,
                    "duration": 0.10624989374999672
                },
                {
                    "name": "D3",
                    "midi": 50,
                    "time": 22.392834750000045,
                    "velocity": 0.44881889763779526,
                    "duration": 0.10624989375000027
                },
                {
                    "name": "F3",
                    "midi": 53,
                    "time": 22.499977500000046,
                    "velocity": 0.44881889763779526,
                    "duration": 0.10624989375000027
                },
                {
                    "name": "G3",
                    "midi": 55,
                    "time": 22.607120250000047,
                    "velocity": 0.44881889763779526,
                    "duration": 0.10624989375000027
                },
                {
                    "name": "D4",
                    "midi": 62,
                    "time": 22.71426300000005,
                    "velocity": 0.5590551181102362,
                    "duration": 0.10624989375000027
                },
                {
                    "name": "F4",
                    "midi": 65,
                    "time": 22.82140575000005,
                    "velocity": 0.4330708661417323,
                    "duration": 0.10624989375000027
                },
                {
                    "name": "G4",
                    "midi": 67,
                    "time": 22.92854850000005,
                    "velocity": 0.4330708661417323,
                    "duration": 0.10624989375000027
                },
                {
                    "name": "B4",
                    "midi": 71,
                    "time": 23.035691250000053,
                    "velocity": 0.4330708661417323,
                    "duration": 0.10624989375000027
                },
                {
                    "name": "F5",
                    "midi": 77,
                    "time": 23.142834000000054,
                    "velocity": 0.5433070866141733,
                    "duration": 0.10624989375000027
                },
                {
                    "name": "B4",
                    "midi": 71,
                    "time": 23.249976750000055,
                    "velocity": 0.4251968503937008,
                    "duration": 0.10624989375000027
                },
                {
                    "name": "G4",
                    "midi": 67,
                    "time": 23.357119500000056,
                    "velocity": 0.4251968503937008,
                    "duration": 0.10624989375000027
                },
                {
                    "name": "F4",
                    "midi": 65,
                    "time": 23.464262250000058,
                    "velocity": 0.4251968503937008,
                    "duration": 0.10624989375000027
                },
                {
                    "name": "D4",
                    "midi": 62,
                    "time": 23.57140500000006,
                    "velocity": 0.5039370078740157,
                    "duration": 0.10624989375000027
                },
                {
                    "name": "G3",
                    "midi": 55,
                    "time": 23.67854775000006,
                    "velocity": 0.4015748031496063,
                    "duration": 0.10624989375000027
                },
                {
                    "name": "D3",
                    "midi": 50,
                    "time": 23.78569050000006,
                    "velocity": 0.4015748031496063,
                    "duration": 0.10624989375000027
                },
                {
                    "name": "G2",
                    "midi": 43,
                    "time": 23.892833250000063,
                    "velocity": 0.4015748031496063,
                    "duration": 0.10624989375000027
                },
                {
                    "name": "C2",
                    "midi": 36,
                    "time": 23.999976000000064,
                    "velocity": 0.6299212598425197,
                    "duration": 0.10624989375000027
                },
                {
                    "name": "G2",
                    "midi": 43,
                    "time": 24.107118750000065,
                    "velocity": 0.4645669291338583,
                    "duration": 0.10624989375000027
                },
                {
                    "name": "C3",
                    "midi": 48,
                    "time": 24.214261500000067,
                    "velocity": 0.4645669291338583,
                    "duration": 0.10624989375000027
                },
                {
                    "name": "C3",
                    "midi": 48,
                    "time": 24.321404250000068,
                    "velocity": 0.4645669291338583,
                    "duration": 0.10624989375000027
                },
                {
                    "name": "G3",
                    "midi": 55,
                    "time": 24.42854700000007,
                    "velocity": 0.5669291338582677,
                    "duration": 0.10624989375000027
                },
                {
                    "name": "C4",
                    "midi": 60,
                    "time": 24.53568975000007,
                    "velocity": 0.4566929133858268,
                    "duration": 0.10624989375000027
                },
                {
                    "name": "C4",
                    "midi": 60,
                    "time": 24.642832500000072,
                    "velocity": 0.4566929133858268,
                    "duration": 0.10624989375000027
                },
                {
                    "name": "G4",
                    "midi": 67,
                    "time": 24.749975250000073,
                    "velocity": 0.4566929133858268,
                    "duration": 0.10624989375000027
                },
                {
                    "name": "C5",
                    "midi": 72,
                    "time": 24.857118000000074,
                    "velocity": 0.5511811023622047,
                    "duration": 0.10624989375000027
                },
                {
                    "name": "C5",
                    "midi": 72,
                    "time": 24.964260750000076,
                    "velocity": 0.4566929133858268,
                    "duration": 0.10624989375000027
                },
                {
                    "name": "G5",
                    "midi": 79,
                    "time": 25.071403500000077,
                    "velocity": 0.4566929133858268,
                    "duration": 0.10624989375000027
                },
                {
                    "name": "C6",
                    "midi": 84,
                    "time": 25.17854625000008,
                    "velocity": 0.4566929133858268,
                    "duration": 0.10624989375000027
                },
                {
                    "name": "G5",
                    "midi": 79,
                    "time": 25.28568900000008,
                    "velocity": 0.5196850393700787,
                    "duration": 0.10624989375000027
                },
                {
                    "name": "C5",
                    "midi": 72,
                    "time": 25.39283175000008,
                    "velocity": 0.4094488188976378,
                    "duration": 0.10624989375000027
                },
                {
                    "name": "C5",
                    "midi": 72,
                    "time": 25.499974500000082,
                    "velocity": 0.4094488188976378,
                    "duration": 0.10624989375000027
                },
                {
                    "name": "G4",
                    "midi": 67,
                    "time": 25.607117250000083,
                    "velocity": 0.4094488188976378,
                    "duration": 0.10624989375000027
                },
                {
                    "name": "C4",
                    "midi": 60,
                    "time": 25.714260000000085,
                    "velocity": 0.5511811023622047,
                    "duration": 0.10624989375000027
                },
                {
                    "name": "C4",
                    "midi": 60,
                    "time": 25.821402750000086,
                    "velocity": 0.4015748031496063,
                    "duration": 0.10624989375000027
                },
                {
                    "name": "G3",
                    "midi": 55,
                    "time": 25.928545500000087,
                    "velocity": 0.4015748031496063,
                    "duration": 0.10624989375000027
                },
                {
                    "name": "C3",
                    "midi": 48,
                    "time": 26.03568825000009,
                    "velocity": 0.4015748031496063,
                    "duration": 0.10624989375000027
                },
                {
                    "name": "C3",
                    "midi": 48,
                    "time": 26.14283100000009,
                    "velocity": 0.49606299212598426,
                    "duration": 0.10624989375000027
                },
                {
                    "name": "G2",
                    "midi": 43,
                    "time": 26.24997375000009,
                    "velocity": 0.3937007874015748,
                    "duration": 0.10624989375000027
                },
                {
                    "name": "C2",
                    "midi": 36,
                    "time": 26.357116500000092,
                    "velocity": 0.3937007874015748,
                    "duration": 0.10624989375000027
                },
                {
                    "name": "G2",
                    "midi": 43,
                    "time": 26.464259250000094,
                    "velocity": 0.3937007874015748,
                    "duration": 0.10624989375000027
                },
                {
                    "name": "B2",
                    "midi": 47,
                    "time": 26.571402000000095,
                    "velocity": 0.6141732283464567,
                    "duration": 0.10624989375000382
                },
                {
                    "name": "G2",
                    "midi": 43,
                    "time": 26.6785447500001,
                    "velocity": 0.3937007874015748,
                    "duration": 0.10624989375000027
                },
                {
                    "name": "C2",
                    "midi": 36,
                    "time": 26.7856875000001,
                    "velocity": 0.3937007874015748,
                    "duration": 0.10624989375000027
                },
                {
                    "name": "G2",
                    "midi": 43,
                    "time": 26.892830250000102,
                    "velocity": 0.3937007874015748,
                    "duration": 0.10624989375000027
                },
                {
                    "name": "D3",
                    "midi": 50,
                    "time": 26.999973000000104,
                    "velocity": 0.6220472440944882,
                    "duration": 0.10624989375000027
                },
                {
                    "name": "G2",
                    "midi": 43,
                    "time": 27.107115750000105,
                    "velocity": 0.3543307086614173,
                    "duration": 0.10624989375000027
                },
                {
                    "name": "C2",
                    "midi": 36,
                    "time": 27.214258500000106,
                    "velocity": 0.3543307086614173,
                    "duration": 0.10624989375000027
                },
                {
                    "name": "G2",
                    "midi": 43,
                    "time": 27.321401250000108,
                    "velocity": 0.3543307086614173,
                    "duration": 0.10624989375000027
                },
                {
                    "name": "C2",
                    "midi": 36,
                    "time": 27.42854400000011,
                    "velocity": 0.6062992125984252,
                    "duration": 0.10624989375000027
                },
                {
                    "name": "G2",
                    "midi": 43,
                    "time": 27.53568675000011,
                    "velocity": 0.4409448818897638,
                    "duration": 0.10624989375000027
                },
                {
                    "name": "C3",
                    "midi": 48,
                    "time": 27.64282950000011,
                    "velocity": 0.4409448818897638,
                    "duration": 0.10624989375000027
                },
                {
                    "name": "C3",
                    "midi": 48,
                    "time": 27.749972250000113,
                    "velocity": 0.4409448818897638,
                    "duration": 0.10624989375000027
                },
                {
                    "name": "G3",
                    "midi": 55,
                    "time": 27.857115000000114,
                    "velocity": 0.5433070866141733,
                    "duration": 0.10624989375000027
                },
                {
                    "name": "C4",
                    "midi": 60,
                    "time": 27.964257750000115,
                    "velocity": 0.4330708661417323,
                    "duration": 0.10624989375000027
                },
                {
                    "name": "C4",
                    "midi": 60,
                    "time": 28.071400500000117,
                    "velocity": 0.4330708661417323,
                    "duration": 0.10624989375000027
                },
                {
                    "name": "G4",
                    "midi": 67,
                    "time": 28.178543250000118,
                    "velocity": 0.4330708661417323,
                    "duration": 0.10624989375000027
                },
                {
                    "name": "C5",
                    "midi": 72,
                    "time": 28.28568600000012,
                    "velocity": 0.5196850393700787,
                    "duration": 0.10624989375000027
                },
                {
                    "name": "C5",
                    "midi": 72,
                    "time": 28.39282875000012,
                    "velocity": 0.4330708661417323,
                    "duration": 0.10624989375000027
                },
                {
                    "name": "G5",
                    "midi": 79,
                    "time": 28.49997150000012,
                    "velocity": 0.4330708661417323,
                    "duration": 0.10624989375000027
                },
                {
                    "name": "C6",
                    "midi": 84,
                    "time": 28.607114250000123,
                    "velocity": 0.4330708661417323,
                    "duration": 0.10624989375000027
                },
                {
                    "name": "G5",
                    "midi": 79,
                    "time": 28.714257000000124,
                    "velocity": 0.48031496062992124,
                    "duration": 0.10624989375000027
                },
                {
                    "name": "C5",
                    "midi": 72,
                    "time": 28.821399750000126,
                    "velocity": 0.3779527559055118,
                    "duration": 0.10624989375000027
                },
                {
                    "name": "C5",
                    "midi": 72,
                    "time": 28.928542500000127,
                    "velocity": 0.3779527559055118,
                    "duration": 0.10624989375000027
                },
                {
                    "name": "G4",
                    "midi": 67,
                    "time": 29.035685250000128,
                    "velocity": 0.3779527559055118,
                    "duration": 0.10624989375000027
                },
                {
                    "name": "C4",
                    "midi": 60,
                    "time": 29.14282800000013,
                    "velocity": 0.5354330708661418,
                    "duration": 0.10624989375000027
                },
                {
                    "name": "C4",
                    "midi": 60,
                    "time": 29.24997075000013,
                    "velocity": 0.3937007874015748,
                    "duration": 0.10624989375000027
                },
                {
                    "name": "G3",
                    "midi": 55,
                    "time": 29.357113500000132,
                    "velocity": 0.3937007874015748,
                    "duration": 0.10624989375000027
                },
                {
                    "name": "C3",
                    "midi": 48,
                    "time": 29.464256250000133,
                    "velocity": 0.3937007874015748,
                    "duration": 0.10624989375000027
                },
                {
                    "name": "C3",
                    "midi": 48,
                    "time": 29.571399000000135,
                    "velocity": 0.48031496062992124,
                    "duration": 0.10624989375000027
                },
                {
                    "name": "G2",
                    "midi": 43,
                    "time": 29.678541750000136,
                    "velocity": 0.3858267716535433,
                    "duration": 0.10624989375000027
                },
                {
                    "name": "C2",
                    "midi": 36,
                    "time": 29.785684500000137,
                    "velocity": 0.3858267716535433,
                    "duration": 0.10624989375000027
                },
                {
                    "name": "G2",
                    "midi": 43,
                    "time": 29.89282725000014,
                    "velocity": 0.3858267716535433,
                    "duration": 0.10624989375000027
                },
                {
                    "name": "B2",
                    "midi": 47,
                    "time": 29.99997000000014,
                    "velocity": 0.5039370078740157,
                    "duration": 0.10624989375000382
                },
                {
                    "name": "G2",
                    "midi": 43,
                    "time": 30.107112750000145,
                    "velocity": 0.3858267716535433,
                    "duration": 0.10624989375000027
                },
                {
                    "name": "C2",
                    "midi": 36,
                    "time": 30.214255500000146,
                    "velocity": 0.3858267716535433,
                    "duration": 0.10624989375000027
                },
                {
                    "name": "G2",
                    "midi": 43,
                    "time": 30.321398250000147,
                    "velocity": 0.3858267716535433,
                    "duration": 0.10624989375000027
                },
                {
                    "name": "A2",
                    "midi": 45,
                    "time": 30.42854100000015,
                    "velocity": 0.4881889763779528,
                    "duration": 0.10624989375000027
                },
                {
                    "name": "G2",
                    "midi": 43,
                    "time": 30.53568375000015,
                    "velocity": 0.33070866141732286,
                    "duration": 0.10624989375000027
                },
                {
                    "name": "C2",
                    "midi": 36,
                    "time": 30.64282650000015,
                    "velocity": 0.33070866141732286,
                    "duration": 0.10624989375000027
                },
                {
                    "name": "G2",
                    "midi": 43,
                    "time": 30.749969250000152,
                    "velocity": 0.33070866141732286,
                    "duration": 0.10624989375000027
                },
                {
                    "name": "C2",
                    "midi": 36,
                    "time": 30.857112000000154,
                    "velocity": 0.5748031496062992,
                    "duration": 0.10624989375000027
                },
                {
                    "name": "G2",
                    "midi": 43,
                    "time": 30.964254750000155,
                    "velocity": 0.41732283464566927,
                    "duration": 0.10624989375000027
                },
                {
                    "name": "B2",
                    "midi": 47,
                    "time": 31.071397500000156,
                    "velocity": 0.41732283464566927,
                    "duration": 0.10624989375000027
                },
                {
                    "name": "B2",
                    "midi": 47,
                    "time": 31.178540250000157,
                    "velocity": 0.41732283464566927,
                    "duration": 0.10624989375000027
                },
                {
                    "name": "G3",
                    "midi": 55,
                    "time": 31.28568300000016,
                    "velocity": 0.5275590551181102,
                    "duration": 0.10624989375000027
                },
                {
                    "name": "B3",
                    "midi": 59,
                    "time": 31.39282575000016,
                    "velocity": 0.4094488188976378,
                    "duration": 0.10624989375000027
                },
                {
                    "name": "C4",
                    "midi": 60,
                    "time": 31.49996850000016,
                    "velocity": 0.4094488188976378,
                    "duration": 0.10624989375000027
                },
                {
                    "name": "G4",
                    "midi": 67,
                    "time": 31.607111250000163,
                    "velocity": 0.4094488188976378,
                    "duration": 0.10624989375000027
                },
                {
                    "name": "B4",
                    "midi": 71,
                    "time": 31.714254000000164,
                    "velocity": 0.49606299212598426,
                    "duration": 0.10624989375000027
                },
                {
                    "name": "C5",
                    "midi": 72,
                    "time": 31.821396750000165,
                    "velocity": 0.4094488188976378,
                    "duration": 0.10624989375000027
                },
                {
                    "name": "G5",
                    "midi": 79,
                    "time": 31.928539500000166,
                    "velocity": 0.4094488188976378,
                    "duration": 0.10624989375000027
                },
                {
                    "name": "B5",
                    "midi": 83,
                    "time": 32.035682250000164,
                    "velocity": 0.4094488188976378,
                    "duration": 0.10624989374999672
                },
                {
                    "name": "G5",
                    "midi": 79,
                    "time": 32.14282500000016,
                    "velocity": 0.4645669291338583,
                    "duration": 0.10624989374999672
                },
                {
                    "name": "C5",
                    "midi": 72,
                    "time": 32.24996775000015,
                    "velocity": 0.3700787401574803,
                    "duration": 0.10624989374999672
                },
                {
                    "name": "B4",
                    "midi": 71,
                    "time": 32.35711050000015,
                    "velocity": 0.3700787401574803,
                    "duration": 0.10624989374999672
                },
                {
                    "name": "G4",
                    "midi": 67,
                    "time": 32.46425325000014,
                    "velocity": 0.36220472440944884,
                    "duration": 0.10624989374999672
                },
                {
                    "name": "C4",
                    "midi": 60,
                    "time": 32.571396000000135,
                    "velocity": 0.5196850393700787,
                    "duration": 0.10624989375000382
                },
                {
                    "name": "B3",
                    "midi": 59,
                    "time": 32.678538750000136,
                    "velocity": 0.3779527559055118,
                    "duration": 0.10624989374999672
                },
                {
                    "name": "G3",
                    "midi": 55,
                    "time": 32.78568150000013,
                    "velocity": 0.3779527559055118,
                    "duration": 0.10624989374999672
                },
                {
                    "name": "C3",
                    "midi": 48,
                    "time": 32.892824250000125,
                    "velocity": 0.3779527559055118,
                    "duration": 0.10624989374999672
                },
                {
                    "name": "B2",
                    "midi": 47,
                    "time": 32.99996700000012,
                    "velocity": 0.4094488188976378,
                    "duration": 0.10624989374999672
                },
                {
                    "name": "G2",
                    "midi": 43,
                    "time": 33.10710975000011,
                    "velocity": 0.31496062992125984,
                    "duration": 0.10624989374999672
                },
                {
                    "name": "C2",
                    "midi": 36,
                    "time": 33.21425250000011,
                    "velocity": 0.31496062992125984,
                    "duration": 0.10624989374999672
                },
                {
                    "name": "G2",
                    "midi": 43,
                    "time": 33.3213952500001,
                    "velocity": 0.31496062992125984,
                    "duration": 0.10624989374999672
                },
                {
                    "name": "A2",
                    "midi": 45,
                    "time": 33.428538000000096,
                    "velocity": 0.4409448818897638,
                    "duration": 0.10624989375000382
                },
                {
                    "name": "F2",
                    "midi": 41,
                    "time": 33.5356807500001,
                    "velocity": 0.31496062992125984,
                    "duration": 0.10624989374999672
                },
                {
                    "name": "C2",
                    "midi": 36,
                    "time": 33.64282350000009,
                    "velocity": 0.31496062992125984,
                    "duration": 0.10624989374999672
                },
                {
                    "name": "F2",
                    "midi": 41,
                    "time": 33.749966250000085,
                    "velocity": 0.31496062992125984,
                    "duration": 0.10624989374999672
                },
                {
                    "name": "A2",
                    "midi": 45,
                    "time": 33.85710900000008,
                    "velocity": 0.41732283464566927,
                    "duration": 0.10624989374999672
                },
                {
                    "name": "F2",
                    "midi": 41,
                    "time": 33.964251750000074,
                    "velocity": 0.29133858267716534,
                    "duration": 0.10624989374999672
                },
                {
                    "name": "C2",
                    "midi": 36,
                    "time": 34.07139450000007,
                    "velocity": 0.29133858267716534,
                    "duration": 0.10624989374999672
                },
                {
                    "name": "F2",
                    "midi": 41,
                    "time": 34.17853725000006,
                    "velocity": 0.29133858267716534,
                    "duration": 0.10624989374999672
                },
                {
                    "name": "C2",
                    "midi": 36,
                    "time": 34.285680000000056,
                    "velocity": 0.4566929133858268,
                    "duration": 0.10624989374999672
                },
                {
                    "name": "G#2",
                    "midi": 44,
                    "time": 34.39282275000005,
                    "velocity": 0.3228346456692913,
                    "duration": 0.10624989374999672
                },
                {
                    "name": "C3",
                    "midi": 48,
                    "time": 34.499965500000044,
                    "velocity": 0.3228346456692913,
                    "duration": 0.10624989374999672
                },
                {
                    "name": "C3",
                    "midi": 48,
                    "time": 34.60710825000004,
                    "velocity": 0.3228346456692913,
                    "duration": 0.10624989374999672
                },
                {
                    "name": "G#3",
                    "midi": 56,
                    "time": 34.71425100000003,
                    "velocity": 0.4094488188976378,
                    "duration": 0.10624989374999672
                },
                {
                    "name": "C4",
                    "midi": 60,
                    "time": 34.82139375000003,
                    "velocity": 0.31496062992125984,
                    "duration": 0.10624989374999672
                },
                {
                    "name": "C4",
                    "midi": 60,
                    "time": 34.92853650000002,
                    "velocity": 0.31496062992125984,
                    "duration": 0.10624989374999672
                },
                {
                    "name": "G#4",
                    "midi": 68,
                    "time": 35.035679250000015,
                    "velocity": 0.31496062992125984,
                    "duration": 0.10624989374999672
                },
                {
                    "name": "C5",
                    "midi": 72,
                    "time": 35.14282200000001,
                    "velocity": 0.4015748031496063,
                    "duration": 0.10624989374999672
                },
                {
                    "name": "G#4",
                    "midi": 68,
                    "time": 35.249964750000004,
                    "velocity": 0.31496062992125984,
                    "duration": 0.10624989374999672
                },
                {
                    "name": "C4",
                    "midi": 60,
                    "time": 35.3571075,
                    "velocity": 0.31496062992125984,
                    "duration": 0.10624989374999672
                },
                {
                    "name": "C4",
                    "midi": 60,
                    "time": 35.46425024999999,
                    "velocity": 0.31496062992125984,
                    "duration": 0.10624989374999672
                },
                {
                    "name": "G#3",
                    "midi": 56,
                    "time": 35.571392999999986,
                    "velocity": 0.3779527559055118,
                    "duration": 0.10624989374999672
                },
                {
                    "name": "C3",
                    "midi": 48,
                    "time": 35.67853574999998,
                    "velocity": 0.29133858267716534,
                    "duration": 0.10624989374999672
                },
                {
                    "name": "C3",
                    "midi": 48,
                    "time": 35.785678499999975,
                    "velocity": 0.29133858267716534,
                    "duration": 0.10624989374999672
                },
                {
                    "name": "G#2",
                    "midi": 44,
                    "time": 35.89282124999997,
                    "velocity": 0.29133858267716534,
                    "duration": 0.10624989374999672
                },
                {
                    "name": "C2",
                    "midi": 36,
                    "time": 35.99996399999996,
                    "velocity": 0.4566929133858268,
                    "duration": 0.10624989374999672
                },
                {
                    "name": "G2",
                    "midi": 43,
                    "time": 36.10710674999996,
                    "velocity": 0.3228346456692913,
                    "duration": 0.10624989374999672
                },
                {
                    "name": "C3",
                    "midi": 48,
                    "time": 36.21424949999995,
                    "velocity": 0.3228346456692913,
                    "duration": 0.10624989374999672
                },
                {
                    "name": "C3",
                    "midi": 48,
                    "time": 36.321392249999946,
                    "velocity": 0.3228346456692913,
                    "duration": 0.10624989374999672
                },
                {
                    "name": "G3",
                    "midi": 55,
                    "time": 36.42853499999994,
                    "velocity": 0.4094488188976378,
                    "duration": 0.10624989374999672
                },
                {
                    "name": "C4",
                    "midi": 60,
                    "time": 36.535677749999934,
                    "velocity": 0.31496062992125984,
                    "duration": 0.10624989374999672
                },
                {
                    "name": "C4",
                    "midi": 60,
                    "time": 36.64282049999993,
                    "velocity": 0.31496062992125984,
                    "duration": 0.10624989374999672
                },
                {
                    "name": "G4",
                    "midi": 67,
                    "time": 36.74996324999992,
                    "velocity": 0.31496062992125984,
                    "duration": 0.10624989374999672
                },
                {
                    "name": "C5",
                    "midi": 72,
                    "time": 36.857105999999916,
                    "velocity": 0.4015748031496063,
                    "duration": 0.10624989374999672
                },
                {
                    "name": "G4",
                    "midi": 67,
                    "time": 36.96424874999991,
                    "velocity": 0.31496062992125984,
                    "duration": 0.10624989374999672
                },
                {
                    "name": "C4",
                    "midi": 60,
                    "time": 37.071391499999905,
                    "velocity": 0.31496062992125984,
                    "duration": 0.10624989374999672
                },
                {
                    "name": "C4",
                    "midi": 60,
                    "time": 37.1785342499999,
                    "velocity": 0.31496062992125984,
                    "duration": 0.10624989374999672
                },
                {
                    "name": "G3",
                    "midi": 55,
                    "time": 37.28567699999989,
                    "velocity": 0.3779527559055118,
                    "duration": 0.10624989374999672
                },
                {
                    "name": "C3",
                    "midi": 48,
                    "time": 37.39281974999989,
                    "velocity": 0.29133858267716534,
                    "duration": 0.10624989374999672
                },
                {
                    "name": "C3",
                    "midi": 48,
                    "time": 37.49996249999988,
                    "velocity": 0.29133858267716534,
                    "duration": 0.10624989374999672
                },
                {
                    "name": "G2",
                    "midi": 43,
                    "time": 37.607105249999876,
                    "velocity": 0.29133858267716534,
                    "duration": 0.10624989374999672
                },
                {
                    "name": "G#1",
                    "midi": 32,
                    "time": 37.71424799999987,
                    "velocity": 0.41732283464566927,
                    "duration": 0.10624989374999672
                },
                {
                    "name": "D#2",
                    "midi": 39,
                    "time": 37.821390749999864,
                    "velocity": 0.2992125984251969,
                    "duration": 0.10624989374999672
                },
                {
                    "name": "G#2",
                    "midi": 44,
                    "time": 37.92853349999986,
                    "velocity": 0.2992125984251969,
                    "duration": 0.10624989374999672
                },
                {
                    "name": "G#2",
                    "midi": 44,
                    "time": 38.03567624999985,
                    "velocity": 0.2992125984251969,
                    "duration": 0.10624989374999672
                },
                {
                    "name": "D#3",
                    "midi": 51,
                    "time": 38.14281899999985,
                    "velocity": 0.3779527559055118,
                    "duration": 0.10624989374999672
                },
                {
                    "name": "G#3",
                    "midi": 56,
                    "time": 38.24996174999984,
                    "velocity": 0.29133858267716534,
                    "duration": 0.10624989374999672
                },
                {
                    "name": "G#3",
                    "midi": 56,
                    "time": 38.357104499999835,
                    "velocity": 0.29133858267716534,
                    "duration": 0.10624989374999672
                },
                {
                    "name": "D#4",
                    "midi": 63,
                    "time": 38.46424724999983,
                    "velocity": 0.29133858267716534,
                    "duration": 0.10624989374999672
                },
                {
                    "name": "G#4",
                    "midi": 68,
                    "time": 38.57138999999982,
                    "velocity": 0.3700787401574803,
                    "duration": 0.10624989374999672
                },
                {
                    "name": "G#4",
                    "midi": 68,
                    "time": 38.67853274999982,
                    "velocity": 0.29133858267716534,
                    "duration": 0.10624989374999672
                },
                {
                    "name": "D#5",
                    "midi": 75,
                    "time": 38.78567549999981,
                    "velocity": 0.29133858267716534,
                    "duration": 0.10624989374999672
                },
                {
                    "name": "G#5",
                    "midi": 80,
                    "time": 38.892818249999806,
                    "velocity": 0.29133858267716534,
                    "duration": 0.10624989374999672
                },
                {
                    "name": "D#5",
                    "midi": 75,
                    "time": 38.9999609999998,
                    "velocity": 0.3464566929133858,
                    "duration": 0.10624989374999672
                },
                {
                    "name": "G#4",
                    "midi": 68,
                    "time": 39.107103749999794,
                    "velocity": 0.2677165354330709,
                    "duration": 0.10624989374999672
                },
                {
                    "name": "G#4",
                    "midi": 68,
                    "time": 39.21424649999979,
                    "velocity": 0.2677165354330709,
                    "duration": 0.10624989374999672
                },
                {
                    "name": "D#4",
                    "midi": 63,
                    "time": 39.32138924999978,
                    "velocity": 0.2677165354330709,
                    "duration": 0.10624989374999672
                },
                {
                    "name": "G#3",
                    "midi": 56,
                    "time": 39.42853199999978,
                    "velocity": 0.3937007874015748,
                    "duration": 0.10624989375000382
                },
                {
                    "name": "G#3",
                    "midi": 56,
                    "time": 39.53567474999978,
                    "velocity": 0.2992125984251969,
                    "duration": 0.10624989374999672
                },
                {
                    "name": "D#3",
                    "midi": 51,
                    "time": 39.64281749999977,
                    "velocity": 0.2992125984251969,
                    "duration": 0.10624989374999672
                },
                {
                    "name": "G#2",
                    "midi": 44,
                    "time": 39.749960249999766,
                    "velocity": 0.2992125984251969,
                    "duration": 0.10624989374999672
                },
                {
                    "name": "G#2",
                    "midi": 44,
                    "time": 39.85710299999976,
                    "velocity": 0.3779527559055118,
                    "duration": 0.10624989374999672
                },
                {
                    "name": "D#2",
                    "midi": 39,
                    "time": 39.964245749999755,
                    "velocity": 0.29133858267716534,
                    "duration": 0.10624989374999672
                },
                {
                    "name": "G#1",
                    "midi": 32,
                    "time": 40.07138849999975,
                    "velocity": 0.29133858267716534,
                    "duration": 0.10624989374999672
                },
                {
                    "name": "D#2",
                    "midi": 39,
                    "time": 40.17853124999974,
                    "velocity": 0.29133858267716534,
                    "duration": 0.10624989374999672
                },
                {
                    "name": "G2",
                    "midi": 43,
                    "time": 40.28567399999974,
                    "velocity": 0.3700787401574803,
                    "duration": 0.10624989374999672
                },
                {
                    "name": "D#2",
                    "midi": 39,
                    "time": 40.39281674999973,
                    "velocity": 0.29133858267716534,
                    "duration": 0.10624989374999672
                },
                {
                    "name": "G#1",
                    "midi": 32,
                    "time": 40.499959499999726,
                    "velocity": 0.29133858267716534,
                    "duration": 0.10624989374999672
                },
                {
                    "name": "D#2",
                    "midi": 39,
                    "time": 40.60710224999972,
                    "velocity": 0.29133858267716534,
                    "duration": 0.10624989374999672
                },
                {
                    "name": "A#2",
                    "midi": 46,
                    "time": 40.714244999999714,
                    "velocity": 0.3464566929133858,
                    "duration": 0.10624989374999672
                },
                {
                    "name": "D#2",
                    "midi": 39,
                    "time": 40.82138774999971,
                    "velocity": 0.2677165354330709,
                    "duration": 0.10624989374999672
                },
                {
                    "name": "G#1",
                    "midi": 32,
                    "time": 40.9285304999997,
                    "velocity": 0.2677165354330709,
                    "duration": 0.10624989374999672
                },
                {
                    "name": "D#2",
                    "midi": 39,
                    "time": 41.0356732499997,
                    "velocity": 0.2677165354330709,
                    "duration": 0.10624989374999672
                },
                {
                    "name": "G#1",
                    "midi": 32,
                    "time": 41.14281599999969,
                    "velocity": 0.41732283464566927,
                    "duration": 0.10624989375000382
                },
                {
                    "name": "D#2",
                    "midi": 39,
                    "time": 41.24995874999969,
                    "velocity": 0.2992125984251969,
                    "duration": 0.10624989374999672
                },
                {
                    "name": "G#2",
                    "midi": 44,
                    "time": 41.357101499999686,
                    "velocity": 0.2992125984251969,
                    "duration": 0.10624989374999672
                },
                {
                    "name": "G#2",
                    "midi": 44,
                    "time": 41.46424424999968,
                    "velocity": 0.2992125984251969,
                    "duration": 0.10624989374999672
                },
                {
                    "name": "D#3",
                    "midi": 51,
                    "time": 41.571386999999675,
                    "velocity": 0.3779527559055118,
                    "duration": 0.10624989374999672
                },
                {
                    "name": "G#3",
                    "midi": 56,
                    "time": 41.67852974999967,
                    "velocity": 0.29133858267716534,
                    "duration": 0.10624989374999672
                },
                {
                    "name": "G#3",
                    "midi": 56,
                    "time": 41.78567249999966,
                    "velocity": 0.29133858267716534,
                    "duration": 0.10624989374999672
                },
                {
                    "name": "D#4",
                    "midi": 63,
                    "time": 41.89281524999966,
                    "velocity": 0.29133858267716534,
                    "duration": 0.10624989374999672
                },
                {
                    "name": "G#4",
                    "midi": 68,
                    "time": 41.99995799999965,
                    "velocity": 0.3700787401574803,
                    "duration": 0.10624989374999672
                },
                {
                    "name": "G#4",
                    "midi": 68,
                    "time": 42.107100749999645,
                    "velocity": 0.29133858267716534,
                    "duration": 0.10624989374999672
                },
                {
                    "name": "D#5",
                    "midi": 75,
                    "time": 42.21424349999964,
                    "velocity": 0.29133858267716534,
                    "duration": 0.10624989374999672
                },
                {
                    "name": "G#5",
                    "midi": 80,
                    "time": 42.321386249999634,
                    "velocity": 0.29133858267716534,
                    "duration": 0.10624989374999672
                },
                {
                    "name": "D#5",
                    "midi": 75,
                    "time": 42.42852899999963,
                    "velocity": 0.3464566929133858,
                    "duration": 0.10624989374999672
                },
                {
                    "name": "G#4",
                    "midi": 68,
                    "time": 42.53567174999962,
                    "velocity": 0.2677165354330709,
                    "duration": 0.10624989374999672
                },
                {
                    "name": "G#4",
                    "midi": 68,
                    "time": 42.642814499999616,
                    "velocity": 0.2677165354330709,
                    "duration": 0.10624989374999672
                },
                {
                    "name": "D#4",
                    "midi": 63,
                    "time": 42.74995724999961,
                    "velocity": 0.2677165354330709,
                    "duration": 0.10624989374999672
                },
                {
                    "name": "G#3",
                    "midi": 56,
                    "time": 42.857099999999605,
                    "velocity": 0.3937007874015748,
                    "duration": 0.10624989375000382
                },
                {
                    "name": "G#3",
                    "midi": 56,
                    "time": 42.964242749999606,
                    "velocity": 0.2992125984251969,
                    "duration": 0.10624989374999672
                },
                {
                    "name": "D#3",
                    "midi": 51,
                    "time": 43.0713854999996,
                    "velocity": 0.2992125984251969,
                    "duration": 0.10624989374999672
                },
                {
                    "name": "G#2",
                    "midi": 44,
                    "time": 43.178528249999594,
                    "velocity": 0.2992125984251969,
                    "duration": 0.10624989374999672
                },
                {
                    "name": "G#2",
                    "midi": 44,
                    "time": 43.28567099999959,
                    "velocity": 0.3779527559055118,
                    "duration": 0.10624989374999672
                },
                {
                    "name": "D#2",
                    "midi": 39,
                    "time": 43.39281374999958,
                    "velocity": 0.29133858267716534,
                    "duration": 0.10624989374999672
                },
                {
                    "name": "G#1",
                    "midi": 32,
                    "time": 43.49995649999958,
                    "velocity": 0.29133858267716534,
                    "duration": 0.10624989374999672
                },
                {
                    "name": "D#2",
                    "midi": 39,
                    "time": 43.60709924999957,
                    "velocity": 0.29133858267716534,
                    "duration": 0.10624989374999672
                },
                {
                    "name": "G2",
                    "midi": 43,
                    "time": 43.714241999999565,
                    "velocity": 0.3700787401574803,
                    "duration": 0.10624989374999672
                },
                {
                    "name": "D#2",
                    "midi": 39,
                    "time": 43.82138474999956,
                    "velocity": 0.29133858267716534,
                    "duration": 0.10624989374999672
                },
                {
                    "name": "G#1",
                    "midi": 32,
                    "time": 43.928527499999554,
                    "velocity": 0.29133858267716534,
                    "duration": 0.10624989374999672
                },
                {
                    "name": "D#2",
                    "midi": 39,
                    "time": 44.03567024999955,
                    "velocity": 0.29133858267716534,
                    "duration": 0.10624989374999672
                },
                {
                    "name": "F2",
                    "midi": 41,
                    "time": 44.14281299999954,
                    "velocity": 0.3464566929133858,
                    "duration": 0.10624989374999672
                },
                {
                    "name": "D#2",
                    "midi": 39,
                    "time": 44.249955749999536,
                    "velocity": 0.2677165354330709,
                    "duration": 0.10624989374999672
                },
                {
                    "name": "G#1",
                    "midi": 32,
                    "time": 44.35709849999953,
                    "velocity": 0.2677165354330709,
                    "duration": 0.10624989374999672
                },
                {
                    "name": "D#2",
                    "midi": 39,
                    "time": 44.464241249999525,
                    "velocity": 0.2677165354330709,
                    "duration": 0.10624989374999672
                },
                {
                    "name": "G#1",
                    "midi": 32,
                    "time": 44.57138399999952,
                    "velocity": 0.41732283464566927,
                    "duration": 0.10624989375000382
                },
                {
                    "name": "D#2",
                    "midi": 39,
                    "time": 44.67852674999952,
                    "velocity": 0.2992125984251969,
                    "duration": 0.10624989374999672
                },
                {
                    "name": "G2",
                    "midi": 43,
                    "time": 44.785669499999514,
                    "velocity": 0.2992125984251969,
                    "duration": 0.10624989374999672
                },
                {
                    "name": "G#2",
                    "midi": 44,
                    "time": 44.89281224999951,
                    "velocity": 0.2992125984251969,
                    "duration": 0.10624989374999672
                },
                {
                    "name": "D#3",
                    "midi": 51,
                    "time": 44.9999549999995,
                    "velocity": 0.3779527559055118,
                    "duration": 0.10624989374999672
                },
                {
                    "name": "G3",
                    "midi": 55,
                    "time": 45.1070977499995,
                    "velocity": 0.29133858267716534,
                    "duration": 0.10624989374999672
                },
                {
                    "name": "G#3",
                    "midi": 56,
                    "time": 45.21424049999949,
                    "velocity": 0.29133858267716534,
                    "duration": 0.10624989374999672
                },
                {
                    "name": "D#4",
                    "midi": 63,
                    "time": 45.321383249999485,
                    "velocity": 0.29133858267716534,
                    "duration": 0.10624989374999672
                },
                {
                    "name": "G4",
                    "midi": 67,
                    "time": 45.42852599999948,
                    "velocity": 0.3700787401574803,
                    "duration": 0.10624989374999672
                },
                {
                    "name": "G#4",
                    "midi": 68,
                    "time": 45.53566874999947,
                    "velocity": 0.29133858267716534,
                    "duration": 0.10624989374999672
                },
                {
                    "name": "D#5",
                    "midi": 75,
                    "time": 45.64281149999947,
                    "velocity": 0.29133858267716534,
                    "duration": 0.10624989374999672
                },
                {
                    "name": "G5",
                    "midi": 79,
                    "time": 45.74995424999946,
                    "velocity": 0.29133858267716534,
                    "duration": 0.10624989374999672
                },
                {
                    "name": "D#5",
                    "midi": 75,
                    "time": 45.857096999999456,
                    "velocity": 0.3464566929133858,
                    "duration": 0.10624989374999672
                },
                {
                    "name": "G#4",
                    "midi": 68,
                    "time": 45.96423974999945,
                    "velocity": 0.2677165354330709,
                    "duration": 0.10624989374999672
                },
                {
                    "name": "G4",
                    "midi": 67,
                    "time": 46.071382499999444,
                    "velocity": 0.2677165354330709,
                    "duration": 0.10624989374999672
                },
                {
                    "name": "D#4",
                    "midi": 63,
                    "time": 46.17852524999944,
                    "velocity": 0.2677165354330709,
                    "duration": 0.10624989374999672
                },
                {
                    "name": "G#3",
                    "midi": 56,
                    "time": 46.28566799999943,
                    "velocity": 0.3937007874015748,
                    "duration": 0.10624989375000382
                },
                {
                    "name": "G3",
                    "midi": 55,
                    "time": 46.392810749999434,
                    "velocity": 0.2992125984251969,
                    "duration": 0.10624989374999672
                },
                {
                    "name": "D#3",
                    "midi": 51,
                    "time": 46.49995349999943,
                    "velocity": 0.2992125984251969,
                    "duration": 0.10624989374999672
                },
                {
                    "name": "G#2",
                    "midi": 44,
                    "time": 46.60709624999942,
                    "velocity": 0.2992125984251969,
                    "duration": 0.10624989374999672
                },
                {
                    "name": "G2",
                    "midi": 43,
                    "time": 46.71423899999942,
                    "velocity": 0.3543307086614173,
                    "duration": 0.10624989374999672
                },
                {
                    "name": "D#2",
                    "midi": 39,
                    "time": 46.82138174999941,
                    "velocity": 0.2755905511811024,
                    "duration": 0.10624989374999672
                },
                {
                    "name": "G#1",
                    "midi": 32,
                    "time": 46.928524499999405,
                    "velocity": 0.2755905511811024,
                    "duration": 0.10624989374999672
                },
                {
                    "name": "D#2",
                    "midi": 39,
                    "time": 47.0356672499994,
                    "velocity": 0.2755905511811024,
                    "duration": 0.10624989374999672
                },
                {
                    "name": "F2",
                    "midi": 41,
                    "time": 47.14280999999939,
                    "velocity": 0.3464566929133858,
                    "duration": 0.10624989374999672
                },
                {
                    "name": "C#2",
                    "midi": 37,
                    "time": 47.24995274999939,
                    "velocity": 0.2755905511811024,
                    "duration": 0.10624989374999672
                },
                {
                    "name": "G#1",
                    "midi": 32,
                    "time": 47.35709549999938,
                    "velocity": 0.2755905511811024,
                    "duration": 0.10624989374999672
                },
                {
                    "name": "C#2",
                    "midi": 37,
                    "time": 47.464238249999376,
                    "velocity": 0.2755905511811024,
                    "duration": 0.10624989374999672
                },
                {
                    "name": "F2",
                    "midi": 41,
                    "time": 47.57138099999937,
                    "velocity": 0.3228346456692913,
                    "duration": 0.10624989374999672
                },
                {
                    "name": "C#2",
                    "midi": 37,
                    "time": 47.678523749999364,
                    "velocity": 0.2440944881889764,
                    "duration": 0.10624989374999672
                },
                {
                    "name": "G#1",
                    "midi": 32,
                    "time": 47.78566649999936,
                    "velocity": 0.2440944881889764,
                    "duration": 0.10624989374999672
                },
                {
                    "name": "C#2",
                    "midi": 37,
                    "time": 47.89280924999935,
                    "velocity": 0.2440944881889764,
                    "duration": 0.10624989374999672
                },
                {
                    "name": "G#1",
                    "midi": 32,
                    "time": 47.99995199999935,
                    "velocity": 0.3937007874015748,
                    "duration": 0.10624989374999672
                },
                {
                    "name": "E2",
                    "midi": 40,
                    "time": 48.10709474999934,
                    "velocity": 0.28346456692913385,
                    "duration": 0.10624989374999672
                },
                {
                    "name": "G#2",
                    "midi": 44,
                    "time": 48.214237499999335,
                    "velocity": 0.28346456692913385,
                    "duration": 0.10624989374999672
                },
                {
                    "name": "G#2",
                    "midi": 44,
                    "time": 48.32138024999933,
                    "velocity": 0.2755905511811024,
                    "duration": 0.10624989374999672
                },
                {
                    "name": "E3",
                    "midi": 52,
                    "time": 48.42852299999932,
                    "velocity": 0.3543307086614173,
                    "duration": 0.10624989374999672
                },
                {
                    "name": "G#3",
                    "midi": 56,
                    "time": 48.53566574999932,
                    "velocity": 0.2677165354330709,
                    "duration": 0.10624989374999672
                },
                {
                    "name": "G#3",
                    "midi": 56,
                    "time": 48.64280849999931,
                    "velocity": 0.2677165354330709,
                    "duration": 0.10624989374999672
                },
                {
                    "name": "E4",
                    "midi": 64,
                    "time": 48.749951249999306,
                    "velocity": 0.25984251968503935,
                    "duration": 0.10624989374999672
                },
                {
                    "name": "G#4",
                    "midi": 68,
                    "time": 48.8570939999993,
                    "velocity": 0.33070866141732286,
                    "duration": 0.10624989374999672
                },
                {
                    "name": "E4",
                    "midi": 64,
                    "time": 48.964236749999294,
                    "velocity": 0.25984251968503935,
                    "duration": 0.10624989374999672
                },
                {
                    "name": "G#3",
                    "midi": 56,
                    "time": 49.07137949999929,
                    "velocity": 0.25984251968503935,
                    "duration": 0.10624989374999672
                },
                {
                    "name": "G#3",
                    "midi": 56,
                    "time": 49.17852224999928,
                    "velocity": 0.25984251968503935,
                    "duration": 0.10624989374999672
                },
                {
                    "name": "E3",
                    "midi": 52,
                    "time": 49.28566499999928,
                    "velocity": 0.30708661417322836,
                    "duration": 0.10624989374999672
                },
                {
                    "name": "G#2",
                    "midi": 44,
                    "time": 49.39280774999927,
                    "velocity": 0.23622047244094488,
                    "duration": 0.10624989374999672
                },
                {
                    "name": "G#2",
                    "midi": 44,
                    "time": 49.499950499999265,
                    "velocity": 0.23622047244094488,
                    "duration": 0.10624989374999672
                },
                {
                    "name": "E2",
                    "midi": 40,
                    "time": 49.60709324999926,
                    "velocity": 0.2283464566929134,
                    "duration": 0.10624989374999672
                },
                {
                    "name": "G#1",
                    "midi": 32,
                    "time": 49.714235999999254,
                    "velocity": 0.3464566929133858,
                    "duration": 0.10624989375000382
                },
                {
                    "name": "D#2",
                    "midi": 39,
                    "time": 49.821378749999255,
                    "velocity": 0.25984251968503935,
                    "duration": 0.10624989374999672
                },
                {
                    "name": "G#2",
                    "midi": 44,
                    "time": 49.92852149999925,
                    "velocity": 0.2440944881889764,
                    "duration": 0.10624989374999672
                },
                {
                    "name": "G#2",
                    "midi": 44,
                    "time": 50.03566424999924,
                    "velocity": 0.2440944881889764,
                    "duration": 0.10624989374999672
                },
                {
                    "name": "D#3",
                    "midi": 51,
                    "time": 50.14280699999924,
                    "velocity": 0.2992125984251969,
                    "duration": 0.10624989374999672
                },
                {
                    "name": "G#3",
                    "midi": 56,
                    "time": 50.24994974999923,
                    "velocity": 0.2283464566929134,
                    "duration": 0.10624989374999672
                },
                {
                    "name": "D#3",
                    "midi": 51,
                    "time": 50.357092499999226,
                    "velocity": 0.2283464566929134,
                    "duration": 0.10624989374999672
                },
                {
                    "name": "G#2",
                    "midi": 44,
                    "time": 50.46423524999922,
                    "velocity": 0.2283464566929134,
                    "duration": 0.10624989374999672
                },
                {
                    "name": "G#1",
                    "midi": 32,
                    "time": 50.571377999999214,
                    "velocity": 0.33070866141732286,
                    "duration": 0.10624989374999672
                },
                {
                    "name": "D2",
                    "midi": 38,
                    "time": 50.67852074999921,
                    "velocity": 0.2283464566929134,
                    "duration": 0.10624989374999672
                },
                {
                    "name": "G#2",
                    "midi": 44,
                    "time": 50.7856634999992,
                    "velocity": 0.2204724409448819,
                    "duration": 0.10624989374999672
                },
                {
                    "name": "G#2",
                    "midi": 44,
                    "time": 50.8928062499992,
                    "velocity": 0.2204724409448819,
                    "duration": 0.10624989374999672
                },
                {
                    "name": "D3",
                    "midi": 50,
                    "time": 50.99994899999919,
                    "velocity": 0.25984251968503935,
                    "duration": 0.10624989374999672
                },
                {
                    "name": "G#3",
                    "midi": 56,
                    "time": 51.107091749999185,
                    "velocity": 0.1968503937007874,
                    "duration": 0.10624989374999672
                },
                {
                    "name": "D3",
                    "midi": 50,
                    "time": 51.21423449999918,
                    "velocity": 0.1968503937007874,
                    "duration": 0.10624989374999672
                },
                {
                    "name": "G#2",
                    "midi": 44,
                    "time": 51.32137724999917,
                    "velocity": 0.1968503937007874,
                    "duration": 0.10624989374999672
                },
                {
                    "name": "G1",
                    "midi": 31,
                    "time": 51.42851999999917,
                    "velocity": 0.33070866141732286,
                    "duration": 0.10624989374999672
                },
                {
                    "name": "D2",
                    "midi": 38,
                    "time": 51.53566274999916,
                    "velocity": 0.23622047244094488,
                    "duration": 0.10624989374999672
                },
                {
                    "name": "G2",
                    "midi": 43,
                    "time": 51.642805499999156,
                    "velocity": 0.23622047244094488,
                    "duration": 0.10624989374999672
                },
                {
                    "name": "G2",
                    "midi": 43,
                    "time": 51.74994824999915,
                    "velocity": 0.23622047244094488,
                    "duration": 0.10624989374999672
                },
                {
                    "name": "D3",
                    "midi": 50,
                    "time": 51.857090999999144,
                    "velocity": 0.28346456692913385,
                    "duration": 0.10624989374999672
                },
                {
                    "name": "G3",
                    "midi": 55,
                    "time": 51.96423374999914,
                    "velocity": 0.2283464566929134,
                    "duration": 0.10624989374999672
                },
                {
                    "name": "G3",
                    "midi": 55,
                    "time": 52.07137649999913,
                    "velocity": 0.2283464566929134,
                    "duration": 0.10624989374999672
                },
                {
                    "name": "D4",
                    "midi": 62,
                    "time": 52.17851924999913,
                    "velocity": 0.2283464566929134,
                    "duration": 0.10624989374999672
                },
                {
                    "name": "G4",
                    "midi": 67,
                    "time": 52.28566199999912,
                    "velocity": 0.3228346456692913,
                    "duration": 0.10624989374999672
                },
                {
                    "name": "D4",
                    "midi": 62,
                    "time": 52.392804749999115,
                    "velocity": 0.2283464566929134,
                    "duration": 0.10624989374999672
                },
                {
                    "name": "G3",
                    "midi": 55,
                    "time": 52.49994749999911,
                    "velocity": 0.23622047244094488,
                    "duration": 0.10624989374999672
                },
                {
                    "name": "G3",
                    "midi": 55,
                    "time": 52.6070902499991,
                    "velocity": 0.23622047244094488,
                    "duration": 0.10624989374999672
                },
                {
                    "name": "D3",
                    "midi": 50,
                    "time": 52.7142329999991,
                    "velocity": 0.28346456692913385,
                    "duration": 0.10624989374999672
                },
                {
                    "name": "G2",
                    "midi": 43,
                    "time": 52.82137574999909,
                    "velocity": 0.2204724409448819,
                    "duration": 0.10624989374999672
                },
                {
                    "name": "G2",
                    "midi": 43,
                    "time": 52.928518499999086,
                    "velocity": 0.2204724409448819,
                    "duration": 0.10624989374999672
                },
                {
                    "name": "D2",
                    "midi": 38,
                    "time": 53.03566124999908,
                    "velocity": 0.2204724409448819,
                    "duration": 0.10624989374999672
                },
                {
                    "name": "G1",
                    "midi": 31,
                    "time": 53.142803999999074,
                    "velocity": 0.36220472440944884,
                    "duration": 0.10624989375000382
                },
                {
                    "name": "D#2",
                    "midi": 39,
                    "time": 53.249946749999076,
                    "velocity": 0.2440944881889764,
                    "duration": 0.10624989374999672
                },
                {
                    "name": "G2",
                    "midi": 43,
                    "time": 53.35708949999907,
                    "velocity": 0.2440944881889764,
                    "duration": 0.10624989374999672
                },
                {
                    "name": "G2",
                    "midi": 43,
                    "time": 53.464232249999064,
                    "velocity": 0.2440944881889764,
                    "duration": 0.10624989374999672
                },
                {
                    "name": "D#3",
                    "midi": 51,
                    "time": 53.57137499999906,
                    "velocity": 0.30708661417322836,
                    "duration": 0.10624989374999672
                },
                {
                    "name": "G3",
                    "midi": 55,
                    "time": 53.67851774999905,
                    "velocity": 0.25984251968503935,
                    "duration": 0.10624989374999672
                },
                {
                    "name": "G3",
                    "midi": 55,
                    "time": 53.78566049999905,
                    "velocity": 0.25984251968503935,
                    "duration": 0.10624989374999672
                },
                {
                    "name": "D#4",
                    "midi": 63,
                    "time": 53.89280324999904,
                    "velocity": 0.25984251968503935,
                    "duration": 0.10624989374999672
                },
                {
                    "name": "G4",
                    "midi": 67,
                    "time": 53.999945999999035,
                    "velocity": 0.3543307086614173,
                    "duration": 0.10624989374999672
                },
                {
                    "name": "D#4",
                    "midi": 63,
                    "time": 54.10708874999903,
                    "velocity": 0.25984251968503935,
                    "duration": 0.10624989374999672
                },
                {
                    "name": "G3",
                    "midi": 55,
                    "time": 54.21423149999902,
                    "velocity": 0.25984251968503935,
                    "duration": 0.10624989374999672
                },
                {
                    "name": "G3",
                    "midi": 55,
                    "time": 54.32137424999902,
                    "velocity": 0.25984251968503935,
                    "duration": 0.10624989374999672
                },
                {
                    "name": "D#3",
                    "midi": 51,
                    "time": 54.42851699999901,
                    "velocity": 0.30708661417322836,
                    "duration": 0.10624989374999672
                },
                {
                    "name": "G2",
                    "midi": 43,
                    "time": 54.535659749999006,
                    "velocity": 0.2440944881889764,
                    "duration": 0.10624989374999672
                },
                {
                    "name": "G2",
                    "midi": 43,
                    "time": 54.642802499999,
                    "velocity": 0.2440944881889764,
                    "duration": 0.10624989374999672
                },
                {
                    "name": "D#2",
                    "midi": 39,
                    "time": 54.749945249998994,
                    "velocity": 0.2440944881889764,
                    "duration": 0.10624989374999672
                },
                {
                    "name": "G1",
                    "midi": 31,
                    "time": 54.85708799999899,
                    "velocity": 0.3937007874015748,
                    "duration": 0.10624989375000382
                },
                {
                    "name": "D2",
                    "midi": 38,
                    "time": 54.96423074999899,
                    "velocity": 0.28346456692913385,
                    "duration": 0.10624989374999672
                },
                {
                    "name": "G#2",
                    "midi": 44,
                    "time": 55.071373499998984,
                    "velocity": 0.28346456692913385,
                    "duration": 0.10624989374999672
                },
                {
                    "name": "G#2",
                    "midi": 44,
                    "time": 55.17851624999898,
                    "velocity": 0.28346456692913385,
                    "duration": 0.10624989374999672
                },
                {
                    "name": "D3",
                    "midi": 50,
                    "time": 55.28565899999897,
                    "velocity": 0.33070866141732286,
                    "duration": 0.10624989374999672
                },
                {
                    "name": "G#3",
                    "midi": 56,
                    "time": 55.392801749998966,
                    "velocity": 0.2677165354330709,
                    "duration": 0.10624989374999672
                },
                {
                    "name": "G#3",
                    "midi": 56,
                    "time": 55.49994449999896,
                    "velocity": 0.2677165354330709,
                    "duration": 0.10624989374999672
                },
                {
                    "name": "D4",
                    "midi": 62,
                    "time": 55.607087249998955,
                    "velocity": 0.2677165354330709,
                    "duration": 0.10624989374999672
                },
                {
                    "name": "G#4",
                    "midi": 68,
                    "time": 55.71422999999895,
                    "velocity": 0.36220472440944884,
                    "duration": 0.10624989374999672
                },
                {
                    "name": "D4",
                    "midi": 62,
                    "time": 55.82137274999894,
                    "velocity": 0.2677165354330709,
                    "duration": 0.10624989374999672
                },
                {
                    "name": "G#3",
                    "midi": 56,
                    "time": 55.92851549999894,
                    "velocity": 0.2677165354330709,
                    "duration": 0.10624989374999672
                },
                {
                    "name": "G#3",
                    "midi": 56,
                    "time": 56.03565824999893,
                    "velocity": 0.2677165354330709,
                    "duration": 0.10624989374999672
                },
                {
                    "name": "D3",
                    "midi": 50,
                    "time": 56.142800999998926,
                    "velocity": 0.30708661417322836,
                    "duration": 0.10624989374999672
                },
                {
                    "name": "G#2",
                    "midi": 44,
                    "time": 56.24994374999892,
                    "velocity": 0.2440944881889764,
                    "duration": 0.10624989374999672
                },
                {
                    "name": "G#2",
                    "midi": 44,
                    "time": 56.357086499998914,
                    "velocity": 0.2440944881889764,
                    "duration": 0.10624989374999672
                },
                {
                    "name": "D2",
                    "midi": 38,
                    "time": 56.46422924999891,
                    "velocity": 0.2440944881889764,
                    "duration": 0.10624989374999672
                },
                {
                    "name": "G1",
                    "midi": 31,
                    "time": 56.5713719999989,
                    "velocity": 0.3858267716535433,
                    "duration": 0.10624989374999672
                },
                {
                    "name": "D2",
                    "midi": 38,
                    "time": 56.6785147499989,
                    "velocity": 0.2677165354330709,
                    "duration": 0.10624989374999672
                },
                {
                    "name": "G2",
                    "midi": 43,
                    "time": 56.78565749999889,
                    "velocity": 0.2677165354330709,
                    "duration": 0.10624989374999672
                },
                {
                    "name": "G2",
                    "midi": 43,
                    "time": 56.892800249998885,
                    "velocity": 0.2677165354330709,
                    "duration": 0.10624989374999672
                },
                {
                    "name": "D3",
                    "midi": 50,
                    "time": 56.99994299999888,
                    "velocity": 0.33070866141732286,
                    "duration": 0.10624989374999672
                },
                {
                    "name": "G3",
                    "midi": 55,
                    "time": 57.10708574999887,
                    "velocity": 0.2677165354330709,
                    "duration": 0.10624989374999672
                },
                {
                    "name": "G3",
                    "midi": 55,
                    "time": 57.21422849999887,
                    "velocity": 0.2677165354330709,
                    "duration": 0.10624989374999672
                },
                {
                    "name": "D4",
                    "midi": 62,
                    "time": 57.32137124999886,
                    "velocity": 0.25984251968503935,
                    "duration": 0.10624989374999672
                },
                {
                    "name": "G4",
                    "midi": 67,
                    "time": 57.428513999998856,
                    "velocity": 0.3543307086614173,
                    "duration": 0.10624989374999672
                },
                {
                    "name": "D4",
                    "midi": 62,
                    "time": 57.53565674999885,
                    "velocity": 0.25984251968503935,
                    "duration": 0.10624989374999672
                },
                {
                    "name": "G3",
                    "midi": 55,
                    "time": 57.642799499998844,
                    "velocity": 0.25984251968503935,
                    "duration": 0.10624989374999672
                },
                {
                    "name": "G3",
                    "midi": 55,
                    "time": 57.74994224999884,
                    "velocity": 0.25984251968503935,
                    "duration": 0.10624989374999672
                },
                {
                    "name": "D3",
                    "midi": 50,
                    "time": 57.85708499999883,
                    "velocity": 0.30708661417322836,
                    "duration": 0.10624989374999672
                },
                {
                    "name": "G2",
                    "midi": 43,
                    "time": 57.96422774999883,
                    "velocity": 0.23622047244094488,
                    "duration": 0.10624989374999672
                },
                {
                    "name": "G2",
                    "midi": 43,
                    "time": 58.07137049999882,
                    "velocity": 0.23622047244094488,
                    "duration": 0.10624989374999672
                },
                {
                    "name": "D2",
                    "midi": 38,
                    "time": 58.178513249998815,
                    "velocity": 0.23622047244094488,
                    "duration": 0.10624989374999672
                },
                {
                    "name": "G1",
                    "midi": 31,
                    "time": 58.28565599999881,
                    "velocity": 0.3779527559055118,
                    "duration": 0.10624989374999672
                },
                {
                    "name": "D2",
                    "midi": 38,
                    "time": 58.3927987499988,
                    "velocity": 0.2677165354330709,
                    "duration": 0.10624989374999672
                },
                {
                    "name": "G2",
                    "midi": 43,
                    "time": 58.4999414999988,
                    "velocity": 0.2677165354330709,
                    "duration": 0.10624989374999672
                },
                {
                    "name": "G2",
                    "midi": 43,
                    "time": 58.60708424999879,
                    "velocity": 0.2677165354330709,
                    "duration": 0.10624989374999672
                },
                {
                    "name": "D3",
                    "midi": 50,
                    "time": 58.714226999998786,
                    "velocity": 0.3228346456692913,
                    "duration": 0.10624989374999672
                },
                {
                    "name": "G3",
                    "midi": 55,
                    "time": 58.82136974999878,
                    "velocity": 0.25984251968503935,
                    "duration": 0.10624989374999672
                },
                {
                    "name": "G3",
                    "midi": 55,
                    "time": 58.928512499998774,
                    "velocity": 0.25984251968503935,
                    "duration": 0.10624989374999672
                },
                {
                    "name": "D4",
                    "midi": 62,
                    "time": 59.03565524999877,
                    "velocity": 0.25984251968503935,
                    "duration": 0.10624989374999672
                },
                {
                    "name": "G4",
                    "midi": 67,
                    "time": 59.14279799999876,
                    "velocity": 0.36220472440944884,
                    "duration": 0.10624989374999672
                },
                {
                    "name": "D4",
                    "midi": 62,
                    "time": 59.24994074999876,
                    "velocity": 0.25984251968503935,
                    "duration": 0.10624989374999672
                },
                {
                    "name": "G3",
                    "midi": 55,
                    "time": 59.35708349999875,
                    "velocity": 0.25984251968503935,
                    "duration": 0.10624989374999672
                },
                {
                    "name": "G3",
                    "midi": 55,
                    "time": 59.464226249998745,
                    "velocity": 0.25984251968503935,
                    "duration": 0.10624989374999672
                },
                {
                    "name": "D3",
                    "midi": 50,
                    "time": 59.57136899999874,
                    "velocity": 0.30708661417322836,
                    "duration": 0.10624989374999672
                },
                {
                    "name": "G2",
                    "midi": 43,
                    "time": 59.678511749998734,
                    "velocity": 0.2440944881889764,
                    "duration": 0.10624989374999672
                },
                {
                    "name": "G2",
                    "midi": 43,
                    "time": 59.78565449999873,
                    "velocity": 0.2440944881889764,
                    "duration": 0.10624989374999672
                },
                {
                    "name": "D2",
                    "midi": 38,
                    "time": 59.89279724999872,
                    "velocity": 0.2440944881889764,
                    "duration": 0.10624989374999672
                },
                {
                    "name": "G#1",
                    "midi": 32,
                    "time": 59.999939999998716,
                    "velocity": 0.4015748031496063,
                    "duration": 0.10624989375000382
                },
                {
                    "name": "F2",
                    "midi": 41,
                    "time": 60.10708274999872,
                    "velocity": 0.28346456692913385,
                    "duration": 0.10624989374999672
                },
                {
                    "name": "G#2",
                    "midi": 44,
                    "time": 60.21422549999871,
                    "velocity": 0.28346456692913385,
                    "duration": 0.10624989374999672
                },
                {
                    "name": "G#2",
                    "midi": 44,
                    "time": 60.321368249998706,
                    "velocity": 0.28346456692913385,
                    "duration": 0.10624989374999672
                },
                {
                    "name": "F3",
                    "midi": 53,
                    "time": 60.4285109999987,
                    "velocity": 0.36220472440944884,
                    "duration": 0.10624989374999672
                },
                {
                    "name": "G#3",
                    "midi": 56,
                    "time": 60.535653749998694,
                    "velocity": 0.28346456692913385,
                    "duration": 0.10624989374999672
                },
                {
                    "name": "G#3",
                    "midi": 56,
                    "time": 60.64279649999869,
                    "velocity": 0.28346456692913385,
                    "duration": 0.10624989374999672
                },
                {
                    "name": "F4",
                    "midi": 65,
                    "time": 60.74993924999868,
                    "velocity": 0.28346456692913385,
                    "duration": 0.10624989374999672
                },
                {
                    "name": "G#4",
                    "midi": 68,
                    "time": 60.85708199999868,
                    "velocity": 0.3858267716535433,
                    "duration": 0.10624989374999672
                },
                {
                    "name": "F4",
                    "midi": 65,
                    "time": 60.96422474999867,
                    "velocity": 0.28346456692913385,
                    "duration": 0.10624989374999672
                },
                {
                    "name": "G#3",
                    "midi": 56,
                    "time": 61.071367499998665,
                    "velocity": 0.28346456692913385,
                    "duration": 0.10624989374999672
                },
                {
                    "name": "G#3",
                    "midi": 56,
                    "time": 61.17851024999866,
                    "velocity": 0.28346456692913385,
                    "duration": 0.10624989374999672
                },
                {
                    "name": "F3",
                    "midi": 53,
                    "time": 61.28565299999865,
                    "velocity": 0.3543307086614173,
                    "duration": 0.10624989374999672
                },
                {
                    "name": "G#2",
                    "midi": 44,
                    "time": 61.39279574999865,
                    "velocity": 0.2677165354330709,
                    "duration": 0.10624989374999672
                },
                {
                    "name": "G#2",
                    "midi": 44,
                    "time": 61.49993849999864,
                    "velocity": 0.2677165354330709,
                    "duration": 0.10624989374999672
                },
                {
                    "name": "F2",
                    "midi": 41,
                    "time": 61.607081249998636,
                    "velocity": 0.2677165354330709,
                    "duration": 0.10624989374999672
                },
                {
                    "name": "A1",
                    "midi": 33,
                    "time": 61.71422399999863,
                    "velocity": 0.4409448818897638,
                    "duration": 0.10624989375000382
                },
                {
                    "name": "F#2",
                    "midi": 42,
                    "time": 61.82136674999863,
                    "velocity": 0.30708661417322836,
                    "duration": 0.10624989374999672
                },
                {
                    "name": "A2",
                    "midi": 45,
                    "time": 61.928509499998626,
                    "velocity": 0.30708661417322836,
                    "duration": 0.10624989374999672
                },
                {
                    "name": "A2",
                    "midi": 45,
                    "time": 62.03565224999862,
                    "velocity": 0.30708661417322836,
                    "duration": 0.10624989374999672
                },
                {
                    "name": "F#3",
                    "midi": 54,
                    "time": 62.142794999998614,
                    "velocity": 0.3779527559055118,
                    "duration": 0.10624989374999672
                },
                {
                    "name": "A3",
                    "midi": 57,
                    "time": 62.24993774999861,
                    "velocity": 0.2992125984251969,
                    "duration": 0.10624989374999672
                },
                {
                    "name": "A3",
                    "midi": 57,
                    "time": 62.3570804999986,
                    "velocity": 0.2992125984251969,
                    "duration": 0.10624989374999672
                },
                {
                    "name": "F#4",
                    "midi": 66,
                    "time": 62.4642232499986,
                    "velocity": 0.30708661417322836,
                    "duration": 0.10624989374999672
                },
                {
                    "name": "A4",
                    "midi": 69,
                    "time": 62.57136599999859,
                    "velocity": 0.4094488188976378,
                    "duration": 0.10624989374999672
                },
                {
                    "name": "F#4",
                    "midi": 66,
                    "time": 62.678508749998585,
                    "velocity": 0.30708661417322836,
                    "duration": 0.10624989374999672
                },
                {
                    "name": "A3",
                    "midi": 57,
                    "time": 62.78565149999858,
                    "velocity": 0.30708661417322836,
                    "duration": 0.10624989374999672
                },
                {
                    "name": "A3",
                    "midi": 57,
                    "time": 62.89279424999857,
                    "velocity": 0.30708661417322836,
                    "duration": 0.10624989374999672
                },
                {
                    "name": "F#3",
                    "midi": 54,
                    "time": 62.99993699999857,
                    "velocity": 0.3700787401574803,
                    "duration": 0.10624989374999672
                },
                {
                    "name": "A2",
                    "midi": 45,
                    "time": 63.10707974999856,
                    "velocity": 0.29133858267716534,
                    "duration": 0.10624989374999672
                },
                {
                    "name": "A2",
                    "midi": 45,
                    "time": 63.214222499998556,
                    "velocity": 0.29133858267716534,
                    "duration": 0.10624989374999672
                },
                {
                    "name": "F#2",
                    "midi": 42,
                    "time": 63.32136524999855,
                    "velocity": 0.29133858267716534,
                    "duration": 0.10624989374999672
                },
                {
                    "name": "A#1",
                    "midi": 34,
                    "time": 63.428507999998544,
                    "velocity": 0.4645669291338583,
                    "duration": 0.10624989375000382
                },
                {
                    "name": "G2",
                    "midi": 43,
                    "time": 63.535650749998545,
                    "velocity": 0.3228346456692913,
                    "duration": 0.10624989374999672
                },
                {
                    "name": "A#2",
                    "midi": 46,
                    "time": 63.64279349999854,
                    "velocity": 0.3228346456692913,
                    "duration": 0.10624989374999672
                },
                {
                    "name": "A#2",
                    "midi": 46,
                    "time": 63.749936249998534,
                    "velocity": 0.3228346456692913,
                    "duration": 0.10624989374999672
                },
                {
                    "name": "G3",
                    "midi": 55,
                    "time": 63.85707899999853,
                    "velocity": 0.4015748031496063,
                    "duration": 0.10624989374999672
                },
                {
                    "name": "A#3",
                    "midi": 58,
                    "time": 63.96422174999852,
                    "velocity": 0.33070866141732286,
                    "duration": 0.10624989374999672
                },
                {
                    "name": "A#3",
                    "midi": 58,
                    "time": 64.07136449999852,
                    "velocity": 0.33070866141732286,
                    "duration": 0.10624989375000382
                },
                {
                    "name": "G4",
                    "midi": 67,
                    "time": 64.17850724999853,
                    "velocity": 0.33070866141732286,
                    "duration": 0.10624989375000382
                },
                {
                    "name": "A#4",
                    "midi": 70,
                    "time": 64.28564999999854,
                    "velocity": 0.4409448818897638,
                    "duration": 0.10624989375000382
                },
                {
                    "name": "G4",
                    "midi": 67,
                    "time": 64.39279274999855,
                    "velocity": 0.33070866141732286,
                    "duration": 0.10624989375000382
                },
                {
                    "name": "A#3",
                    "midi": 58,
                    "time": 64.49993549999856,
                    "velocity": 0.33070866141732286,
                    "duration": 0.10624989375000382
                },
                {
                    "name": "A#3",
                    "midi": 58,
                    "time": 64.60707824999857,
                    "velocity": 0.33070866141732286,
                    "duration": 0.10624989375000382
                },
                {
                    "name": "G3",
                    "midi": 55,
                    "time": 64.71422099999857,
                    "velocity": 0.3937007874015748,
                    "duration": 0.10624989375000382
                },
                {
                    "name": "A#2",
                    "midi": 46,
                    "time": 64.82136374999858,
                    "velocity": 0.2992125984251969,
                    "duration": 0.10624989375000382
                },
                {
                    "name": "A#2",
                    "midi": 46,
                    "time": 64.92850649999859,
                    "velocity": 0.2992125984251969,
                    "duration": 0.10624989375000382
                },
                {
                    "name": "G2",
                    "midi": 43,
                    "time": 65.0356492499986,
                    "velocity": 0.2992125984251969,
                    "duration": 0.10624989375000382
                },
                {
                    "name": "B1",
                    "midi": 35,
                    "time": 65.14279199999861,
                    "velocity": 0.4881889763779528,
                    "duration": 0.10624989374998961
                },
                {
                    "name": "F2",
                    "midi": 41,
                    "time": 65.2499347499986,
                    "velocity": 0.3543307086614173,
                    "duration": 0.10624989375000382
                },
                {
                    "name": "B2",
                    "midi": 47,
                    "time": 65.35707749999861,
                    "velocity": 0.3543307086614173,
                    "duration": 0.10624989375000382
                },
                {
                    "name": "B2",
                    "midi": 47,
                    "time": 65.46422024999862,
                    "velocity": 0.3543307086614173,
                    "duration": 0.10624989375000382
                },
                {
                    "name": "F3",
                    "midi": 53,
                    "time": 65.57136299999863,
                    "velocity": 0.4330708661417323,
                    "duration": 0.10624989375000382
                },
                {
                    "name": "B3",
                    "midi": 59,
                    "time": 65.67850574999864,
                    "velocity": 0.3464566929133858,
                    "duration": 0.10624989375000382
                },
                {
                    "name": "B3",
                    "midi": 59,
                    "time": 65.78564849999864,
                    "velocity": 0.3464566929133858,
                    "duration": 0.10624989375000382
                },
                {
                    "name": "F4",
                    "midi": 65,
                    "time": 65.89279124999865,
                    "velocity": 0.3543307086614173,
                    "duration": 0.10624989375000382
                },
                {
                    "name": "B4",
                    "midi": 71,
                    "time": 65.99993399999866,
                    "velocity": 0.4645669291338583,
                    "duration": 0.10624989375000382
                },
                {
                    "name": "F4",
                    "midi": 65,
                    "time": 66.10707674999867,
                    "velocity": 0.3543307086614173,
                    "duration": 0.10624989375000382
                },
                {
                    "name": "B3",
                    "midi": 59,
                    "time": 66.21421949999868,
                    "velocity": 0.3543307086614173,
                    "duration": 0.10624989375000382
                },
                {
                    "name": "B3",
                    "midi": 59,
                    "time": 66.32136224999869,
                    "velocity": 0.3543307086614173,
                    "duration": 0.10624989375000382
                },
                {
                    "name": "F3",
                    "midi": 53,
                    "time": 66.4285049999987,
                    "velocity": 0.4094488188976378,
                    "duration": 0.10624989375000382
                },
                {
                    "name": "B2",
                    "midi": 47,
                    "time": 66.5356477499987,
                    "velocity": 0.31496062992125984,
                    "duration": 0.10624989375000382
                },
                {
                    "name": "B2",
                    "midi": 47,
                    "time": 66.64279049999871,
                    "velocity": 0.31496062992125984,
                    "duration": 0.10624989375000382
                },
                {
                    "name": "F2",
                    "midi": 41,
                    "time": 66.74993324999872,
                    "velocity": 0.31496062992125984,
                    "duration": 0.10624989375000382
                },
                {
                    "name": "C2",
                    "midi": 36,
                    "time": 66.85707599999873,
                    "velocity": 0.5275590551181102,
                    "duration": 0.10624989374998961
                },
                {
                    "name": "F2",
                    "midi": 41,
                    "time": 66.96421874999872,
                    "velocity": 0.36220472440944884,
                    "duration": 0.10624989375000382
                },
                {
                    "name": "C3",
                    "midi": 48,
                    "time": 67.07136149999873,
                    "velocity": 0.36220472440944884,
                    "duration": 0.10624989375000382
                },
                {
                    "name": "C3",
                    "midi": 48,
                    "time": 67.17850424999874,
                    "velocity": 0.36220472440944884,
                    "duration": 0.10624989375000382
                },
                {
                    "name": "F3",
                    "midi": 53,
                    "time": 67.28564699999875,
                    "velocity": 0.44881889763779526,
                    "duration": 0.10624989375000382
                },
                {
                    "name": "C4",
                    "midi": 60,
                    "time": 67.39278974999876,
                    "velocity": 0.3779527559055118,
                    "duration": 0.10624989375000382
                },
                {
                    "name": "C4",
                    "midi": 60,
                    "time": 67.49993249999876,
                    "velocity": 0.3779527559055118,
                    "duration": 0.10624989375000382
                },
                {
                    "name": "F4",
                    "midi": 65,
                    "time": 67.60707524999877,
                    "velocity": 0.3779527559055118,
                    "duration": 0.10624989375000382
                },
                {
                    "name": "C5",
                    "midi": 72,
                    "time": 67.71421799999878,
                    "velocity": 0.4881889763779528,
                    "duration": 0.10624989375000382
                },
                {
                    "name": "F4",
                    "midi": 65,
                    "time": 67.82136074999879,
                    "velocity": 0.3779527559055118,
                    "duration": 0.10624989375000382
                },
                {
                    "name": "C4",
                    "midi": 60,
                    "time": 67.9285034999988,
                    "velocity": 0.3779527559055118,
                    "duration": 0.10624989375000382
                },
                {
                    "name": "C4",
                    "midi": 60,
                    "time": 68.0356462499988,
                    "velocity": 0.3779527559055118,
                    "duration": 0.10624989375000382
                },
                {
                    "name": "F3",
                    "midi": 53,
                    "time": 68.14278899999881,
                    "velocity": 0.4409448818897638,
                    "duration": 0.10624989375000382
                },
                {
                    "name": "C3",
                    "midi": 48,
                    "time": 68.24993174999882,
                    "velocity": 0.33070866141732286,
                    "duration": 0.10624989375000382
                },
                {
                    "name": "C3",
                    "midi": 48,
                    "time": 68.35707449999883,
                    "velocity": 0.33070866141732286,
                    "duration": 0.10624989375000382
                },
                {
                    "name": "F2",
                    "midi": 41,
                    "time": 68.46421724999884,
                    "velocity": 0.33070866141732286,
                    "duration": 0.10624989375000382
                },
                {
                    "name": "D#2",
                    "midi": 39,
                    "time": 68.57135999999885,
                    "velocity": 0.5590551181102362,
                    "duration": 0.10624989374998961
                },
                {
                    "name": "G#2",
                    "midi": 44,
                    "time": 68.67850274999884,
                    "velocity": 0.4015748031496063,
                    "duration": 0.10624989375000382
                },
                {
                    "name": "D#3",
                    "midi": 51,
                    "time": 68.78564549999885,
                    "velocity": 0.4015748031496063,
                    "duration": 0.10624989375000382
                },
                {
                    "name": "D#3",
                    "midi": 51,
                    "time": 68.89278824999886,
                    "velocity": 0.4015748031496063,
                    "duration": 0.10624989375000382
                },
                {
                    "name": "G#3",
                    "midi": 56,
                    "time": 68.99993099999887,
                    "velocity": 0.48031496062992124,
                    "duration": 0.10624989375000382
                },
                {
                    "name": "D#4",
                    "midi": 63,
                    "time": 69.10707374999888,
                    "velocity": 0.3858267716535433,
                    "duration": 0.10624989375000382
                },
                {
                    "name": "D#4",
                    "midi": 63,
                    "time": 69.21421649999888,
                    "velocity": 0.3858267716535433,
                    "duration": 0.10624989375000382
                },
                {
                    "name": "G#4",
                    "midi": 68,
                    "time": 69.32135924999889,
                    "velocity": 0.3937007874015748,
                    "duration": 0.10624989375000382
                },
                {
                    "name": "D#5",
                    "midi": 75,
                    "time": 69.4285019999989,
                    "velocity": 0.5275590551181102,
                    "duration": 0.10624989375000382
                },
                {
                    "name": "G#4",
                    "midi": 68,
                    "time": 69.53564474999891,
                    "velocity": 0.3937007874015748,
                    "duration": 0.10624989375000382
                },
                {
                    "name": "D#4",
                    "midi": 63,
                    "time": 69.64278749999892,
                    "velocity": 0.3937007874015748,
                    "duration": 0.10624989375000382
                },
                {
                    "name": "D#4",
                    "midi": 63,
                    "time": 69.74993024999893,
                    "velocity": 0.3937007874015748,
                    "duration": 0.10624989375000382
                },
                {
                    "name": "G#3",
                    "midi": 56,
                    "time": 69.85707299999893,
                    "velocity": 0.4645669291338583,
                    "duration": 0.10624989375000382
                },
                {
                    "name": "D#3",
                    "midi": 51,
                    "time": 69.96421574999894,
                    "velocity": 0.3700787401574803,
                    "duration": 0.10624989375000382
                },
                {
                    "name": "D#3",
                    "midi": 51,
                    "time": 70.07135849999895,
                    "velocity": 0.3700787401574803,
                    "duration": 0.10624989375000382
                },
                {
                    "name": "G#2",
                    "midi": 44,
                    "time": 70.17850124999896,
                    "velocity": 0.3700787401574803,
                    "duration": 0.10624989375000382
                },
                {
                    "name": "D2",
                    "midi": 38,
                    "time": 70.28564399999897,
                    "velocity": 0.5590551181102362,
                    "duration": 0.10624989375000382
                },
                {
                    "name": "G#2",
                    "midi": 44,
                    "time": 70.39278674999898,
                    "velocity": 0.4015748031496063,
                    "duration": 0.10624989375000382
                },
                {
                    "name": "D3",
                    "midi": 50,
                    "time": 70.49992949999898,
                    "velocity": 0.4015748031496063,
                    "duration": 0.10624989375000382
                },
                {
                    "name": "D3",
                    "midi": 50,
                    "time": 70.60707224999899,
                    "velocity": 0.4015748031496063,
                    "duration": 0.10624989375000382
                },
                {
                    "name": "G#3",
                    "midi": 56,
                    "time": 70.714214999999,
                    "velocity": 0.49606299212598426,
                    "duration": 0.10624989375000382
                },
                {
                    "name": "D4",
                    "midi": 62,
                    "time": 70.82135774999901,
                    "velocity": 0.4094488188976378,
                    "duration": 0.10624989375000382
                },
                {
                    "name": "D4",
                    "midi": 62,
                    "time": 70.92850049999902,
                    "velocity": 0.4094488188976378,
                    "duration": 0.10624989375000382
                },
                {
                    "name": "G#4",
                    "midi": 68,
                    "time": 71.03564324999903,
                    "velocity": 0.4094488188976378,
                    "duration": 0.10624989375000382
                },
                {
                    "name": "D5",
                    "midi": 74,
                    "time": 71.14278599999903,
                    "velocity": 0.5590551181102362,
                    "duration": 0.10624989375000382
                },
                {
                    "name": "G#4",
                    "midi": 68,
                    "time": 71.24992874999904,
                    "velocity": 0.4094488188976378,
                    "duration": 0.10624989375000382
                },
                {
                    "name": "D4",
                    "midi": 62,
                    "time": 71.35707149999905,
                    "velocity": 0.4094488188976378,
                    "duration": 0.10624989375000382
                },
                {
                    "name": "D4",
                    "midi": 62,
                    "time": 71.46421424999906,
                    "velocity": 0.4094488188976378,
                    "duration": 0.10624989375000382
                },
                {
                    "name": "G#3",
                    "midi": 56,
                    "time": 71.57135699999907,
                    "velocity": 0.49606299212598426,
                    "duration": 0.10624989375000382
                },
                {
                    "name": "D3",
                    "midi": 50,
                    "time": 71.67849974999908,
                    "velocity": 0.3858267716535433,
                    "duration": 0.10624989375000382
                },
                {
                    "name": "D3",
                    "midi": 50,
                    "time": 71.78564249999908,
                    "velocity": 0.3858267716535433,
                    "duration": 0.10624989375000382
                },
                {
                    "name": "G#2",
                    "midi": 44,
                    "time": 71.8927852499991,
                    "velocity": 0.3858267716535433,
                    "duration": 0.10624989375000382
                },
                {
                    "name": "G2",
                    "midi": 43,
                    "time": 71.9999279999991,
                    "velocity": 0.6062992125984252,
                    "duration": 0.10624989375000382
                },
                {
                    "name": "D3",
                    "midi": 50,
                    "time": 72.10707074999911,
                    "velocity": 0.41732283464566927,
                    "duration": 0.10624989375000382
                },
                {
                    "name": "F3",
                    "midi": 53,
                    "time": 72.21421349999912,
                    "velocity": 0.41732283464566927,
                    "duration": 0.10624989375000382
                },
                {
                    "name": "G3",
                    "midi": 55,
                    "time": 72.32135624999913,
                    "velocity": 0.41732283464566927,
                    "duration": 0.10624989375000382
                },
                {
                    "name": "D4",
                    "midi": 62,
                    "time": 72.42849899999914,
                    "velocity": 0.5039370078740157,
                    "duration": 0.10624989375000382
                },
                {
                    "name": "F4",
                    "midi": 65,
                    "time": 72.53564174999914,
                    "velocity": 0.3937007874015748,
                    "duration": 0.10624989375000382
                },
                {
                    "name": "G4",
                    "midi": 67,
                    "time": 72.64278449999915,
                    "velocity": 0.4015748031496063,
                    "duration": 0.10624989375000382
                },
                {
                    "name": "D5",
                    "midi": 74,
                    "time": 72.74992724999916,
                    "velocity": 0.4015748031496063,
                    "duration": 0.10624989375000382
                },
                {
                    "name": "F5",
                    "midi": 77,
                    "time": 72.85706999999917,
                    "velocity": 0.5748031496062992,
                    "duration": 0.10624989375000382
                },
                {
                    "name": "D5",
                    "midi": 74,
                    "time": 72.96421274999918,
                    "velocity": 0.41732283464566927,
                    "duration": 0.10624989375000382
                },
                {
                    "name": "G4",
                    "midi": 67,
                    "time": 73.07135549999919,
                    "velocity": 0.41732283464566927,
                    "duration": 0.10624989375000382
                },
                {
                    "name": "F4",
                    "midi": 65,
                    "time": 73.1784982499992,
                    "velocity": 0.41732283464566927,
                    "duration": 0.10624989375000382
                },
                {
                    "name": "D4",
                    "midi": 62,
                    "time": 73.2856409999992,
                    "velocity": 0.49606299212598426,
                    "duration": 0.10624989375000382
                },
                {
                    "name": "G3",
                    "midi": 55,
                    "time": 73.39278374999921,
                    "velocity": 0.3937007874015748,
                    "duration": 0.10624989375000382
                },
                {
                    "name": "F3",
                    "midi": 53,
                    "time": 73.49992649999922,
                    "velocity": 0.3937007874015748,
                    "duration": 0.10624989375000382
                },
                {
                    "name": "D3",
                    "midi": 50,
                    "time": 73.60706924999923,
                    "velocity": 0.3937007874015748,
                    "duration": 0.10624989375000382
                },
                {
                    "name": "G2",
                    "midi": 43,
                    "time": 73.71421199999924,
                    "velocity": 0.6062992125984252,
                    "duration": 0.10624989375000382
                },
                {
                    "name": "D3",
                    "midi": 50,
                    "time": 73.82135474999924,
                    "velocity": 0.41732283464566927,
                    "duration": 0.10624989375000382
                },
                {
                    "name": "F3",
                    "midi": 53,
                    "time": 73.92849749999925,
                    "velocity": 0.41732283464566927,
                    "duration": 0.10624989375000382
                },
                {
                    "name": "G3",
                    "midi": 55,
                    "time": 74.03564024999926,
                    "velocity": 0.41732283464566927,
                    "duration": 0.10624989375000382
                },
                {
                    "name": "D4",
                    "midi": 62,
                    "time": 74.14278299999927,
                    "velocity": 0.5039370078740157,
                    "duration": 0.10624989375000382
                },
                {
                    "name": "F4",
                    "midi": 65,
                    "time": 74.24992574999928,
                    "velocity": 0.3937007874015748,
                    "duration": 0.10624989375000382
                },
                {
                    "name": "G4",
                    "midi": 67,
                    "time": 74.35706849999929,
                    "velocity": 0.4015748031496063,
                    "duration": 0.10624989375000382
                },
                {
                    "name": "D5",
                    "midi": 74,
                    "time": 74.4642112499993,
                    "velocity": 0.4015748031496063,
                    "duration": 0.10624989375000382
                },
                {
                    "name": "F5",
                    "midi": 77,
                    "time": 74.5713539999993,
                    "velocity": 0.5748031496062992,
                    "duration": 0.10624989375000382
                },
                {
                    "name": "D5",
                    "midi": 74,
                    "time": 74.67849674999931,
                    "velocity": 0.41732283464566927,
                    "duration": 0.10624989375000382
                },
                {
                    "name": "G4",
                    "midi": 67,
                    "time": 74.78563949999932,
                    "velocity": 0.41732283464566927,
                    "duration": 0.10624989375000382
                },
                {
                    "name": "F4",
                    "midi": 65,
                    "time": 74.89278224999933,
                    "velocity": 0.41732283464566927,
                    "duration": 0.10624989375000382
                },
                {
                    "name": "D4",
                    "midi": 62,
                    "time": 74.99992499999934,
                    "velocity": 0.49606299212598426,
                    "duration": 0.10624989375000382
                },
                {
                    "name": "G3",
                    "midi": 55,
                    "time": 75.10706774999935,
                    "velocity": 0.3937007874015748,
                    "duration": 0.10624989375000382
                },
                {
                    "name": "F3",
                    "midi": 53,
                    "time": 75.21421049999935,
                    "velocity": 0.3937007874015748,
                    "duration": 0.10624989375000382
                },
                {
                    "name": "D3",
                    "midi": 50,
                    "time": 75.32135324999936,
                    "velocity": 0.3937007874015748,
                    "duration": 0.10624989375000382
                },
                {
                    "name": "G1",
                    "midi": 31,
                    "time": 75.42849599999937,
                    "velocity": 0.5826771653543307,
                    "duration": 0.10624989375000382
                },
                {
                    "name": "D2",
                    "midi": 38,
                    "time": 75.53563874999938,
                    "velocity": 0.3464566929133858,
                    "duration": 0.10624989375000382
                },
                {
                    "name": "G2",
                    "midi": 43,
                    "time": 75.64278149999939,
                    "velocity": 0.3464566929133858,
                    "duration": 0.10624989375000382
                },
                {
                    "name": "G2",
                    "midi": 43,
                    "time": 75.7499242499994,
                    "velocity": 0.3464566929133858,
                    "duration": 0.10624989375000382
                },
                {
                    "name": "D3",
                    "midi": 50,
                    "time": 75.8570669999994,
                    "velocity": 0.4566929133858268,
                    "duration": 0.10624989375000382
                },
                {
                    "name": "G3",
                    "midi": 55,
                    "time": 75.96420974999941,
                    "velocity": 0.31496062992125984,
                    "duration": 0.10624989375000382
                },
                {
                    "name": "D3",
                    "midi": 50,
                    "time": 76.07135249999942,
                    "velocity": 0.31496062992125984,
                    "duration": 0.10624989375000382
                },
                {
                    "name": "G2",
                    "midi": 43,
                    "time": 76.17849524999943,
                    "velocity": 0.3228346456692913,
                    "duration": 0.10624989375000382
                },
                {
                    "name": "G#1",
                    "midi": 32,
                    "time": 76.28563799999944,
                    "velocity": 0.49606299212598426,
                    "duration": 0.10624989374998961
                },
                {
                    "name": "C2",
                    "midi": 36,
                    "time": 76.39278074999943,
                    "velocity": 0.3464566929133858,
                    "duration": 0.10624989375000382
                },
                {
                    "name": "G#2",
                    "midi": 44,
                    "time": 76.49992349999944,
                    "velocity": 0.3464566929133858,
                    "duration": 0.10624989375000382
                },
                {
                    "name": "G#2",
                    "midi": 44,
                    "time": 76.60706624999945,
                    "velocity": 0.3464566929133858,
                    "duration": 0.10624989375000382
                },
                {
                    "name": "C3",
                    "midi": 48,
                    "time": 76.71420899999946,
                    "velocity": 0.4566929133858268,
                    "duration": 0.10624989375000382
                },
                {
                    "name": "G#3",
                    "midi": 56,
                    "time": 76.82135174999947,
                    "velocity": 0.3228346456692913,
                    "duration": 0.10624989375000382
                },
                {
                    "name": "C3",
                    "midi": 48,
                    "time": 76.92849449999947,
                    "velocity": 0.3228346456692913,
                    "duration": 0.10624989375000382
                },
                {
                    "name": "G#2",
                    "midi": 44,
                    "time": 77.03563724999948,
                    "velocity": 0.3228346456692913,
                    "duration": 0.10624989375000382
                },
                {
                    "name": "A1",
                    "midi": 33,
                    "time": 77.14277999999949,
                    "velocity": 0.5590551181102362,
                    "duration": 0.10624989374998961
                },
                {
                    "name": "C#2",
                    "midi": 37,
                    "time": 77.24992274999948,
                    "velocity": 0.33858267716535434,
                    "duration": 0.10624989375000382
                },
                {
                    "name": "A2",
                    "midi": 45,
                    "time": 77.35706549999949,
                    "velocity": 0.3464566929133858,
                    "duration": 0.10624989375000382
                },
                {
                    "name": "A2",
                    "midi": 45,
                    "time": 77.4642082499995,
                    "velocity": 0.3543307086614173,
                    "duration": 0.10624989375000382
                },
                {
                    "name": "C#3",
                    "midi": 49,
                    "time": 77.57135099999951,
                    "velocity": 0.48031496062992124,
                    "duration": 0.10624989375000382
                },
                {
                    "name": "A3",
                    "midi": 57,
                    "time": 77.67849374999952,
                    "velocity": 0.36220472440944884,
                    "duration": 0.10624989375000382
                },
                {
                    "name": "C#3",
                    "midi": 49,
                    "time": 77.78563649999953,
                    "velocity": 0.3700787401574803,
                    "duration": 0.10624989375000382
                },
                {
                    "name": "A2",
                    "midi": 45,
                    "time": 77.89277924999953,
                    "velocity": 0.3779527559055118,
                    "duration": 0.10624989375000382
                },
                {
                    "name": "A#1",
                    "midi": 34,
                    "time": 77.99992199999954,
                    "velocity": 0.5511811023622047,
                    "duration": 0.10624989374998961
                },
                {
                    "name": "C#2",
                    "midi": 37,
                    "time": 78.10706474999954,
                    "velocity": 0.3937007874015748,
                    "duration": 0.10624989375000382
                },
                {
                    "name": "A#2",
                    "midi": 46,
                    "time": 78.21420749999955,
                    "velocity": 0.4015748031496063,
                    "duration": 0.10624989375000382
                },
                {
                    "name": "C#2",
                    "midi": 37,
                    "time": 78.32135024999955,
                    "velocity": 0.3937007874015748,
                    "duration": 0.10624989375000382
                },
                {
                    "name": "B1",
                    "midi": 35,
                    "time": 78.42849299999956,
                    "velocity": 0.5433070866141733,
                    "duration": 0.10624989374998961
                },
                {
                    "name": "D2",
                    "midi": 38,
                    "time": 78.53563574999956,
                    "velocity": 0.3937007874015748,
                    "duration": 0.10624989375000382
                },
                {
                    "name": "B2",
                    "midi": 47,
                    "time": 78.64277849999957,
                    "velocity": 0.3937007874015748,
                    "duration": 0.10624989375000382
                },
                {
                    "name": "D2",
                    "midi": 38,
                    "time": 78.74992124999957,
                    "velocity": 0.4015748031496063,
                    "duration": 0.10624989375000382
                },
                {
                    "name": "C2",
                    "midi": 36,
                    "time": 78.85706399999958,
                    "velocity": 0.6456692913385826,
                    "duration": 0.10624989375000382
                },
                {
                    "name": "G2",
                    "midi": 43,
                    "time": 78.96420674999959,
                    "velocity": 0.4409448818897638,
                    "duration": 0.10624989375000382
                },
                {
                    "name": "C3",
                    "midi": 48,
                    "time": 79.0713494999996,
                    "velocity": 0.4409448818897638,
                    "duration": 0.10624989375000382
                },
                {
                    "name": "C3",
                    "midi": 48,
                    "time": 79.17849224999961,
                    "velocity": 0.4409448818897638,
                    "duration": 0.10624989375000382
                },
                {
                    "name": "G3",
                    "midi": 55,
                    "time": 79.28563499999962,
                    "velocity": 0.5511811023622047,
                    "duration": 0.10624989375000382
                },
                {
                    "name": "C4",
                    "midi": 60,
                    "time": 79.39277774999962,
                    "velocity": 0.44881889763779526,
                    "duration": 0.10624989375000382
                },
                {
                    "name": "C4",
                    "midi": 60,
                    "time": 79.49992049999963,
                    "velocity": 0.4409448818897638,
                    "duration": 0.10624989375000382
                },
                {
                    "name": "G4",
                    "midi": 67,
                    "time": 79.60706324999964,
                    "velocity": 0.4409448818897638,
                    "duration": 0.10624989375000382
                },
                {
                    "name": "C5",
                    "midi": 72,
                    "time": 79.71420599999965,
                    "velocity": 0.5275590551181102,
                    "duration": 0.10624989375000382
                },
                {
                    "name": "G4",
                    "midi": 67,
                    "time": 79.82134874999966,
                    "velocity": 0.4409448818897638,
                    "duration": 0.10624989375000382
                },
                {
                    "name": "C4",
                    "midi": 60,
                    "time": 79.92849149999967,
                    "velocity": 0.4409448818897638,
                    "duration": 0.10624989375000382
                },
                {
                    "name": "C4",
                    "midi": 60,
                    "time": 80.03563424999967,
                    "velocity": 0.4409448818897638,
                    "duration": 0.10624989375000382
                },
                {
                    "name": "G3",
                    "midi": 55,
                    "time": 80.14277699999968,
                    "velocity": 0.49606299212598426,
                    "duration": 0.10624989375000382
                },
                {
                    "name": "C3",
                    "midi": 48,
                    "time": 80.24991974999969,
                    "velocity": 0.4330708661417323,
                    "duration": 0.10624989375000382
                },
                {
                    "name": "C3",
                    "midi": 48,
                    "time": 80.3570624999997,
                    "velocity": 0.4330708661417323,
                    "duration": 0.10624989375000382
                },
                {
                    "name": "G2",
                    "midi": 43,
                    "time": 80.46420524999971,
                    "velocity": 0.4330708661417323,
                    "duration": 0.10624989375000382
                },
                {
                    "name": "C2",
                    "midi": 36,
                    "time": 80.57134799999972,
                    "velocity": 0.5905511811023622,
                    "duration": 0.10624989374998961
                },
                {
                    "name": "F2",
                    "midi": 41,
                    "time": 80.67849074999971,
                    "velocity": 0.44881889763779526,
                    "duration": 0.10624989375000382
                },
                {
                    "name": "C3",
                    "midi": 48,
                    "time": 80.78563349999972,
                    "velocity": 0.4015748031496063,
                    "duration": 0.10624989375000382
                },
                {
                    "name": "C3",
                    "midi": 48,
                    "time": 80.89277624999973,
                    "velocity": 0.4015748031496063,
                    "duration": 0.10624989375000382
                },
                {
                    "name": "F3",
                    "midi": 53,
                    "time": 80.99991899999974,
                    "velocity": 0.5511811023622047,
                    "duration": 0.10624989375000382
                },
                {
                    "name": "C4",
                    "midi": 60,
                    "time": 81.10706174999974,
                    "velocity": 0.4015748031496063,
                    "duration": 0.10624989375000382
                },
                {
                    "name": "C4",
                    "midi": 60,
                    "time": 81.21420449999975,
                    "velocity": 0.4015748031496063,
                    "duration": 0.10624989375000382
                },
                {
                    "name": "F4",
                    "midi": 65,
                    "time": 81.32134724999976,
                    "velocity": 0.4015748031496063,
                    "duration": 0.10624989375000382
                },
                {
                    "name": "C5",
                    "midi": 72,
                    "time": 81.42848999999977,
                    "velocity": 0.5433070866141733,
                    "duration": 0.10624989375000382
                },
                {
                    "name": "F4",
                    "midi": 65,
                    "time": 81.53563274999978,
                    "velocity": 0.4409448818897638,
                    "duration": 0.10624989375000382
                },
                {
                    "name": "C4",
                    "midi": 60,
                    "time": 81.64277549999979,
                    "velocity": 0.4409448818897638,
                    "duration": 0.10624989375000382
                },
                {
                    "name": "C4",
                    "midi": 60,
                    "time": 81.7499182499998,
                    "velocity": 0.4409448818897638,
                    "duration": 0.10624989375000382
                },
                {
                    "name": "F3",
                    "midi": 53,
                    "time": 81.8570609999998,
                    "velocity": 0.49606299212598426,
                    "duration": 0.10624989375000382
                },
                {
                    "name": "C3",
                    "midi": 48,
                    "time": 81.96420374999981,
                    "velocity": 0.4015748031496063,
                    "duration": 0.10624989375000382
                },
                {
                    "name": "C3",
                    "midi": 48,
                    "time": 82.07134649999982,
                    "velocity": 0.4015748031496063,
                    "duration": 0.10624989375000382
                },
                {
                    "name": "F2",
                    "midi": 41,
                    "time": 82.17848924999983,
                    "velocity": 0.4015748031496063,
                    "duration": 0.10624989375000382
                },
                {
                    "name": "C2",
                    "midi": 36,
                    "time": 82.28563199999984,
                    "velocity": 0.6141732283464567,
                    "duration": 0.10624989375000382
                },
                {
                    "name": "G#2",
                    "midi": 44,
                    "time": 82.39277474999984,
                    "velocity": 0.44881889763779526,
                    "duration": 0.10624989375000382
                },
                {
                    "name": "C3",
                    "midi": 48,
                    "time": 82.49991749999985,
                    "velocity": 0.44881889763779526,
                    "duration": 0.10624989375000382
                },
                {
                    "name": "C3",
                    "midi": 48,
                    "time": 82.60706024999986,
                    "velocity": 0.44881889763779526,
                    "duration": 0.10624989375000382
                },
                {
                    "name": "G#3",
                    "midi": 56,
                    "time": 82.71420299999987,
                    "velocity": 0.5511811023622047,
                    "duration": 0.10624989375000382
                },
                {
                    "name": "C4",
                    "midi": 60,
                    "time": 82.82134574999988,
                    "velocity": 0.4409448818897638,
                    "duration": 0.10624989375000382
                },
                {
                    "name": "C4",
                    "midi": 60,
                    "time": 82.92848849999989,
                    "velocity": 0.4409448818897638,
                    "duration": 0.10624989375000382
                },
                {
                    "name": "G#4",
                    "midi": 68,
                    "time": 83.0356312499999,
                    "velocity": 0.4409448818897638,
                    "duration": 0.10624989375000382
                },
                {
                    "name": "C5",
                    "midi": 72,
                    "time": 83.1427739999999,
                    "velocity": 0.5275590551181102,
                    "duration": 0.10624989375000382
                },
                {
                    "name": "G#4",
                    "midi": 68,
                    "time": 83.24991674999991,
                    "velocity": 0.4409448818897638,
                    "duration": 0.10624989375000382
                },
                {
                    "name": "C4",
                    "midi": 60,
                    "time": 83.35705949999992,
                    "velocity": 0.4409448818897638,
                    "duration": 0.10624989375000382
                },
                {
                    "name": "C4",
                    "midi": 60,
                    "time": 83.46420224999993,
                    "velocity": 0.4409448818897638,
                    "duration": 0.10624989375000382
                },
                {
                    "name": "G#3",
                    "midi": 56,
                    "time": 83.57134499999994,
                    "velocity": 0.49606299212598426,
                    "duration": 0.10624989375000382
                },
                {
                    "name": "C3",
                    "midi": 48,
                    "time": 83.67848774999995,
                    "velocity": 0.3937007874015748,
                    "duration": 0.10624989375000382
                },
                {
                    "name": "C3",
                    "midi": 48,
                    "time": 83.78563049999995,
                    "velocity": 0.3937007874015748,
                    "duration": 0.10624989375000382
                },
                {
                    "name": "G#2",
                    "midi": 44,
                    "time": 83.89277324999996,
                    "velocity": 0.3937007874015748,
                    "duration": 0.10624989375000382
                },
                {
                    "name": "C2",
                    "midi": 36,
                    "time": 83.99991599999997,
                    "velocity": 0.6456692913385826,
                    "duration": 0.10624989375000382
                },
                {
                    "name": "G2",
                    "midi": 43,
                    "time": 84.10705874999998,
                    "velocity": 0.4409448818897638,
                    "duration": 0.10624989375000382
                },
                {
                    "name": "C3",
                    "midi": 48,
                    "time": 84.21420149999999,
                    "velocity": 0.4409448818897638,
                    "duration": 0.10624989375000382
                },
                {
                    "name": "C3",
                    "midi": 48,
                    "time": 84.32134425,
                    "velocity": 0.4409448818897638,
                    "duration": 0.10624989375000382
                },
                {
                    "name": "G3",
                    "midi": 55,
                    "time": 84.428487,
                    "velocity": 0.5511811023622047,
                    "duration": 0.10624989375000382
                },
                {
                    "name": "C4",
                    "midi": 60,
                    "time": 84.53562975000001,
                    "velocity": 0.44881889763779526,
                    "duration": 0.10624989375000382
                },
                {
                    "name": "C4",
                    "midi": 60,
                    "time": 84.64277250000002,
                    "velocity": 0.4409448818897638,
                    "duration": 0.10624989375000382
                },
                {
                    "name": "G4",
                    "midi": 67,
                    "time": 84.74991525000003,
                    "velocity": 0.4409448818897638,
                    "duration": 0.10624989375000382
                },
                {
                    "name": "C5",
                    "midi": 72,
                    "time": 84.85705800000004,
                    "velocity": 0.5275590551181102,
                    "duration": 0.10624989375000382
                },
                {
                    "name": "G4",
                    "midi": 67,
                    "time": 84.96420075000005,
                    "velocity": 0.4409448818897638,
                    "duration": 0.10624989375000382
                },
                {
                    "name": "C4",
                    "midi": 60,
                    "time": 85.07134350000005,
                    "velocity": 0.4409448818897638,
                    "duration": 0.10624989375000382
                },
                {
                    "name": "C4",
                    "midi": 60,
                    "time": 85.17848625000006,
                    "velocity": 0.4409448818897638,
                    "duration": 0.10624989375000382
                },
                {
                    "name": "G3",
                    "midi": 55,
                    "time": 85.28562900000007,
                    "velocity": 0.49606299212598426,
                    "duration": 0.10624989375000382
                },
                {
                    "name": "C3",
                    "midi": 48,
                    "time": 85.39277175000008,
                    "velocity": 0.4330708661417323,
                    "duration": 0.10624989375000382
                },
                {
                    "name": "C3",
                    "midi": 48,
                    "time": 85.49991450000009,
                    "velocity": 0.4330708661417323,
                    "duration": 0.10624989375000382
                },
                {
                    "name": "G2",
                    "midi": 43,
                    "time": 85.6070572500001,
                    "velocity": 0.4330708661417323,
                    "duration": 0.10624989375000382
                },
                {
                    "name": "C2",
                    "midi": 36,
                    "time": 85.7142000000001,
                    "velocity": 0.5905511811023622,
                    "duration": 0.10624989375000382
                },
                {
                    "name": "F2",
                    "midi": 41,
                    "time": 85.82134275000011,
                    "velocity": 0.44881889763779526,
                    "duration": 0.10624989375000382
                },
                {
                    "name": "C3",
                    "midi": 48,
                    "time": 85.92848550000012,
                    "velocity": 0.4015748031496063,
                    "duration": 0.10624989375000382
                },
                {
                    "name": "C3",
                    "midi": 48,
                    "time": 86.03562825000013,
                    "velocity": 0.4015748031496063,
                    "duration": 0.10624989375000382
                },
                {
                    "name": "F3",
                    "midi": 53,
                    "time": 86.14277100000014,
                    "velocity": 0.5511811023622047,
                    "duration": 0.10624989375000382
                },
                {
                    "name": "C4",
                    "midi": 60,
                    "time": 86.24991375000015,
                    "velocity": 0.4015748031496063,
                    "duration": 0.10624989375000382
                },
                {
                    "name": "C4",
                    "midi": 60,
                    "time": 86.35705650000016,
                    "velocity": 0.4015748031496063,
                    "duration": 0.10624989375000382
                },
                {
                    "name": "F4",
                    "midi": 65,
                    "time": 86.46419925000016,
                    "velocity": 0.4015748031496063,
                    "duration": 0.10624989375000382
                },
                {
                    "name": "C5",
                    "midi": 72,
                    "time": 86.57134200000017,
                    "velocity": 0.5433070866141733,
                    "duration": 0.10624989375000382
                },
                {
                    "name": "F4",
                    "midi": 65,
                    "time": 86.67848475000018,
                    "velocity": 0.4409448818897638,
                    "duration": 0.10624989375000382
                },
                {
                    "name": "C4",
                    "midi": 60,
                    "time": 86.78562750000019,
                    "velocity": 0.4409448818897638,
                    "duration": 0.10624989375000382
                },
                {
                    "name": "C4",
                    "midi": 60,
                    "time": 86.8927702500002,
                    "velocity": 0.4409448818897638,
                    "duration": 0.10624989375000382
                },
                {
                    "name": "F3",
                    "midi": 53,
                    "time": 86.9999130000002,
                    "velocity": 0.49606299212598426,
                    "duration": 0.10624989375000382
                },
                {
                    "name": "C3",
                    "midi": 48,
                    "time": 87.10705575000021,
                    "velocity": 0.4015748031496063,
                    "duration": 0.10624989375000382
                },
                {
                    "name": "C3",
                    "midi": 48,
                    "time": 87.21419850000022,
                    "velocity": 0.4015748031496063,
                    "duration": 0.10624989375000382
                },
                {
                    "name": "F2",
                    "midi": 41,
                    "time": 87.32134125000023,
                    "velocity": 0.4015748031496063,
                    "duration": 0.10624989375000382
                },
                {
                    "name": "C2",
                    "midi": 36,
                    "time": 87.42848400000024,
                    "velocity": 0.6141732283464567,
                    "duration": 0.10624989374998961
                },
                {
                    "name": "F2",
                    "midi": 41,
                    "time": 87.53562675000023,
                    "velocity": 0.44881889763779526,
                    "duration": 0.10624989375000382
                },
                {
                    "name": "B2",
                    "midi": 47,
                    "time": 87.64276950000024,
                    "velocity": 0.44881889763779526,
                    "duration": 0.10624989375000382
                },
                {
                    "name": "C3",
                    "midi": 48,
                    "time": 87.74991225000025,
                    "velocity": 0.44881889763779526,
                    "duration": 0.10624989375000382
                },
                {
                    "name": "G#3",
                    "midi": 56,
                    "time": 87.85705500000026,
                    "velocity": 0.5511811023622047,
                    "duration": 0.10624989375000382
                },
                {
                    "name": "B3",
                    "midi": 59,
                    "time": 87.96419775000027,
                    "velocity": 0.4409448818897638,
                    "duration": 0.10624989375000382
                },
                {
                    "name": "C4",
                    "midi": 60,
                    "time": 88.07134050000028,
                    "velocity": 0.4409448818897638,
                    "duration": 0.10624989375000382
                },
                {
                    "name": "F4",
                    "midi": 65,
                    "time": 88.17848325000028,
                    "velocity": 0.4409448818897638,
                    "duration": 0.10624989375000382
                },
                {
                    "name": "B4",
                    "midi": 71,
                    "time": 88.28562600000029,
                    "velocity": 0.5275590551181102,
                    "duration": 0.10624989375000382
                },
                {
                    "name": "F4",
                    "midi": 65,
                    "time": 88.3927687500003,
                    "velocity": 0.4409448818897638,
                    "duration": 0.10624989375000382
                },
                {
                    "name": "C4",
                    "midi": 60,
                    "time": 88.49991150000031,
                    "velocity": 0.4409448818897638,
                    "duration": 0.10624989375000382
                },
                {
                    "name": "B3",
                    "midi": 59,
                    "time": 88.60705425000032,
                    "velocity": 0.4409448818897638,
                    "duration": 0.10624989375000382
                },
                {
                    "name": "F3",
                    "midi": 53,
                    "time": 88.71419700000033,
                    "velocity": 0.49606299212598426,
                    "duration": 0.10624989375000382
                },
                {
                    "name": "C3",
                    "midi": 48,
                    "time": 88.82133975000033,
                    "velocity": 0.3937007874015748,
                    "duration": 0.10624989375000382
                },
                {
                    "name": "B2",
                    "midi": 47,
                    "time": 88.92848250000034,
                    "velocity": 0.3937007874015748,
                    "duration": 0.10624989375000382
                },
                {
                    "name": "F2",
                    "midi": 41,
                    "time": 89.03562525000035,
                    "velocity": 0.3937007874015748,
                    "duration": 0.10624989375000382
                },
                {
                    "name": "C2",
                    "midi": 36,
                    "time": 89.14276800000036,
                    "velocity": 0.6141732283464567,
                    "duration": 0.10624989374998961
                },
                {
                    "name": "G2",
                    "midi": 43,
                    "time": 89.24991075000035,
                    "velocity": 0.44881889763779526,
                    "duration": 0.10624989375000382
                },
                {
                    "name": "C3",
                    "midi": 48,
                    "time": 89.35705350000036,
                    "velocity": 0.44881889763779526,
                    "duration": 0.10624989375000382
                },
                {
                    "name": "C3",
                    "midi": 48,
                    "time": 89.46419625000037,
                    "velocity": 0.44881889763779526,
                    "duration": 0.10624989375000382
                },
                {
                    "name": "G3",
                    "midi": 55,
                    "time": 89.57133900000038,
                    "velocity": 0.5196850393700787,
                    "duration": 0.10624989375000382
                },
                {
                    "name": "C4",
                    "midi": 60,
                    "time": 89.67848175000039,
                    "velocity": 0.4015748031496063,
                    "duration": 0.10624989375000382
                },
                {
                    "name": "G3",
                    "midi": 55,
                    "time": 89.7856245000004,
                    "velocity": 0.4015748031496063,
                    "duration": 0.10624989375000382
                },
                {
                    "name": "C3",
                    "midi": 48,
                    "time": 89.8927672500004,
                    "velocity": 0.3937007874015748,
                    "duration": 0.10624989375000382
                },
                {
                    "name": "G3",
                    "midi": 55,
                    "time": 89.99991000000041,
                    "velocity": 0.48031496062992124,
                    "duration": 0.10624989375000382
                },
                {
                    "name": "C4",
                    "midi": 60,
                    "time": 90.10705275000042,
                    "velocity": 0.3858267716535433,
                    "duration": 0.10624989375000382
                },
                {
                    "name": "G3",
                    "midi": 55,
                    "time": 90.21419550000043,
                    "velocity": 0.3858267716535433,
                    "duration": 0.10624989375000382
                },
                {
                    "name": "C3",
                    "midi": 48,
                    "time": 90.32133825000044,
                    "velocity": 0.3779527559055118,
                    "duration": 0.10624989375000382
                },
                {
                    "name": "G3",
                    "midi": 55,
                    "time": 90.42848100000045,
                    "velocity": 0.4330708661417323,
                    "duration": 0.10624989374998961
                },
                {
                    "name": "C4",
                    "midi": 60,
                    "time": 90.53562375000044,
                    "velocity": 0.3228346456692913,
                    "duration": 0.10624989375000382
                },
                {
                    "name": "G3",
                    "midi": 55,
                    "time": 90.64276650000045,
                    "velocity": 0.3228346456692913,
                    "duration": 0.10624989375000382
                },
                {
                    "name": "C3",
                    "midi": 48,
                    "time": 90.74990925000046,
                    "velocity": 0.3228346456692913,
                    "duration": 0.10624989375000382
                },
                {
                    "name": "G3",
                    "midi": 55,
                    "time": 90.85705200000046,
                    "velocity": 0.4566929133858268,
                    "duration": 0.10624989374998961
                },
                {
                    "name": "B3",
                    "midi": 59,
                    "time": 90.96419475000046,
                    "velocity": 0.3700787401574803,
                    "duration": 0.10624989375000382
                },
                {
                    "name": "G3",
                    "midi": 55,
                    "time": 91.07133750000047,
                    "velocity": 0.36220472440944884,
                    "duration": 0.10624989375000382
                },
                {
                    "name": "C3",
                    "midi": 48,
                    "time": 91.17848025000048,
                    "velocity": 0.36220472440944884,
                    "duration": 0.10624989375000382
                },
                {
                    "name": "G3",
                    "midi": 55,
                    "time": 91.28562300000048,
                    "velocity": 0.41732283464566927,
                    "duration": 0.10624989374998961
                },
                {
                    "name": "A#3",
                    "midi": 58,
                    "time": 91.39276575000048,
                    "velocity": 0.3464566929133858,
                    "duration": 0.10624989375000382
                },
                {
                    "name": "G3",
                    "midi": 55,
                    "time": 91.49990850000049,
                    "velocity": 0.3464566929133858,
                    "duration": 0.10624989375000382
                },
                {
                    "name": "C3",
                    "midi": 48,
                    "time": 91.6070512500005,
                    "velocity": 0.3228346456692913,
                    "duration": 0.10624989375000382
                },
                {
                    "name": "F3",
                    "midi": 53,
                    "time": 91.7141940000005,
                    "velocity": 0.3858267716535433,
                    "duration": 0.10624989375000382
                },
                {
                    "name": "A3",
                    "midi": 57,
                    "time": 91.82133675000051,
                    "velocity": 0.29133858267716534,
                    "duration": 0.10624989375000382
                },
                {
                    "name": "F3",
                    "midi": 53,
                    "time": 91.92847950000052,
                    "velocity": 0.29133858267716534,
                    "duration": 0.10624989375000382
                },
                {
                    "name": "C3",
                    "midi": 48,
                    "time": 92.03562225000053,
                    "velocity": 0.29133858267716534,
                    "duration": 0.10624989375000382
                },
                {
                    "name": "F3",
                    "midi": 53,
                    "time": 92.14276500000054,
                    "velocity": 0.3779527559055118,
                    "duration": 0.10624989375000382
                },
                {
                    "name": "G#3",
                    "midi": 56,
                    "time": 92.24990775000055,
                    "velocity": 0.28346456692913385,
                    "duration": 0.10624989375000382
                },
                {
                    "name": "F3",
                    "midi": 53,
                    "time": 92.35705050000055,
                    "velocity": 0.28346456692913385,
                    "duration": 0.10624989375000382
                },
                {
                    "name": "C3",
                    "midi": 48,
                    "time": 92.46419325000056,
                    "velocity": 0.2755905511811024,
                    "duration": 0.10624989375000382
                },
                {
                    "name": "C2",
                    "midi": 36,
                    "time": 92.57133600000057,
                    "velocity": 0.4881889763779528,
                    "duration": 0.10624989375000382
                },
                {
                    "name": "G2",
                    "midi": 43,
                    "time": 92.67847875000058,
                    "velocity": 0.33070866141732286,
                    "duration": 0.10624989375000382
                },
                {
                    "name": "C3",
                    "midi": 48,
                    "time": 92.78562150000059,
                    "velocity": 0.33070866141732286,
                    "duration": 0.10624989375000382
                },
                {
                    "name": "C3",
                    "midi": 48,
                    "time": 92.8927642500006,
                    "velocity": 0.33070866141732286,
                    "duration": 0.10624989375000382
                },
                {
                    "name": "G3",
                    "midi": 55,
                    "time": 92.9999070000006,
                    "velocity": 0.41732283464566927,
                    "duration": 0.10624989375000382
                },
                {
                    "name": "C4",
                    "midi": 60,
                    "time": 93.10704975000061,
                    "velocity": 0.3543307086614173,
                    "duration": 0.10624989375000382
                },
                {
                    "name": "C4",
                    "midi": 60,
                    "time": 93.21419250000062,
                    "velocity": 0.3464566929133858,
                    "duration": 0.10624989375000382
                },
                {
                    "name": "G4",
                    "midi": 67,
                    "time": 93.32133525000063,
                    "velocity": 0.3464566929133858,
                    "duration": 0.10624989375000382
                },
                {
                    "name": "C5",
                    "midi": 72,
                    "time": 93.42847800000064,
                    "velocity": 0.4094488188976378,
                    "duration": 0.10624989375000382
                },
                {
                    "name": "G4",
                    "midi": 67,
                    "time": 93.53562075000065,
                    "velocity": 0.3464566929133858,
                    "duration": 0.10624989375000382
                },
                {
                    "name": "C4",
                    "midi": 60,
                    "time": 93.64276350000065,
                    "velocity": 0.3543307086614173,
                    "duration": 0.10624989375000382
                },
                {
                    "name": "C4",
                    "midi": 60,
                    "time": 93.74990625000066,
                    "velocity": 0.3543307086614173,
                    "duration": 0.10624989375000382
                },
                {
                    "name": "G3",
                    "midi": 55,
                    "time": 93.85704900000067,
                    "velocity": 0.4015748031496063,
                    "duration": 0.10624989375000382
                },
                {
                    "name": "C3",
                    "midi": 48,
                    "time": 93.96419175000068,
                    "velocity": 0.3464566929133858,
                    "duration": 0.10624989375000382
                },
                {
                    "name": "C3",
                    "midi": 48,
                    "time": 94.07133450000069,
                    "velocity": 0.3464566929133858,
                    "duration": 0.10624989375000382
                },
                {
                    "name": "G2",
                    "midi": 43,
                    "time": 94.1784772500007,
                    "velocity": 0.3543307086614173,
                    "duration": 0.10624989375000382
                },
                {
                    "name": "C2",
                    "midi": 36,
                    "time": 94.2856200000007,
                    "velocity": 0.48031496062992124,
                    "duration": 0.10624989374998961
                },
                {
                    "name": "F2",
                    "midi": 41,
                    "time": 94.3927627500007,
                    "velocity": 0.3700787401574803,
                    "duration": 0.10624989375000382
                },
                {
                    "name": "C3",
                    "midi": 48,
                    "time": 94.49990550000071,
                    "velocity": 0.33070866141732286,
                    "duration": 0.10624989375000382
                },
                {
                    "name": "C3",
                    "midi": 48,
                    "time": 94.60704825000072,
                    "velocity": 0.33070866141732286,
                    "duration": 0.10624989375000382
                },
                {
                    "name": "F3",
                    "midi": 53,
                    "time": 94.71419100000072,
                    "velocity": 0.4566929133858268,
                    "duration": 0.10624989375000382
                },
                {
                    "name": "C4",
                    "midi": 60,
                    "time": 94.82133375000073,
                    "velocity": 0.33070866141732286,
                    "duration": 0.10624989375000382
                },
                {
                    "name": "C4",
                    "midi": 60,
                    "time": 94.92847650000074,
                    "velocity": 0.3464566929133858,
                    "duration": 0.10624989375000382
                },
                {
                    "name": "F4",
                    "midi": 65,
                    "time": 95.03561925000075,
                    "velocity": 0.3464566929133858,
                    "duration": 0.10624989375000382
                },
                {
                    "name": "C5",
                    "midi": 72,
                    "time": 95.14276200000076,
                    "velocity": 0.4645669291338583,
                    "duration": 0.10624989375000382
                },
                {
                    "name": "F4",
                    "midi": 65,
                    "time": 95.24990475000077,
                    "velocity": 0.3779527559055118,
                    "duration": 0.10624989375000382
                },
                {
                    "name": "C4",
                    "midi": 60,
                    "time": 95.35704750000077,
                    "velocity": 0.3779527559055118,
                    "duration": 0.10624989375000382
                },
                {
                    "name": "C4",
                    "midi": 60,
                    "time": 95.46419025000078,
                    "velocity": 0.3779527559055118,
                    "duration": 0.10624989375000382
                },
                {
                    "name": "F3",
                    "midi": 53,
                    "time": 95.57133300000079,
                    "velocity": 0.4330708661417323,
                    "duration": 0.10624989375000382
                },
                {
                    "name": "C3",
                    "midi": 48,
                    "time": 95.6784757500008,
                    "velocity": 0.3543307086614173,
                    "duration": 0.10624989375000382
                },
                {
                    "name": "C3",
                    "midi": 48,
                    "time": 95.78561850000081,
                    "velocity": 0.3543307086614173,
                    "duration": 0.10624989375000382
                },
                {
                    "name": "F2",
                    "midi": 41,
                    "time": 95.89276125000082,
                    "velocity": 0.3543307086614173,
                    "duration": 0.10624989375000382
                },
                {
                    "name": "C2",
                    "midi": 36,
                    "time": 95.99990400000083,
                    "velocity": 0.5275590551181102,
                    "duration": 0.10624989375000382
                },
                {
                    "name": "G2",
                    "midi": 43,
                    "time": 96.10704675000083,
                    "velocity": 0.3937007874015748,
                    "duration": 0.10624989375000382
                },
                {
                    "name": "C3",
                    "midi": 48,
                    "time": 96.21418950000084,
                    "velocity": 0.36220472440944884,
                    "duration": 0.10624989375000382
                },
                {
                    "name": "C3",
                    "midi": 48,
                    "time": 96.32133225000085,
                    "velocity": 0.36220472440944884,
                    "duration": 0.10624989375000382
                },
                {
                    "name": "G3",
                    "midi": 55,
                    "time": 96.42847500000086,
                    "velocity": 0.4881889763779528,
                    "duration": 0.10624989375000382
                },
                {
                    "name": "C4",
                    "midi": 60,
                    "time": 96.53561775000087,
                    "velocity": 0.36220472440944884,
                    "duration": 0.10624989375000382
                },
                {
                    "name": "C4",
                    "midi": 60,
                    "time": 96.64276050000088,
                    "velocity": 0.36220472440944884,
                    "duration": 0.10624989375000382
                },
                {
                    "name": "G4",
                    "midi": 67,
                    "time": 96.74990325000088,
                    "velocity": 0.3700787401574803,
                    "duration": 0.10624989375000382
                },
                {
                    "name": "C5",
                    "midi": 72,
                    "time": 96.85704600000089,
                    "velocity": 0.4881889763779528,
                    "duration": 0.10624989375000382
                },
                {
                    "name": "G4",
                    "midi": 67,
                    "time": 96.9641887500009,
                    "velocity": 0.3858267716535433,
                    "duration": 0.10624989375000382
                },
                {
                    "name": "C4",
                    "midi": 60,
                    "time": 97.07133150000091,
                    "velocity": 0.3858267716535433,
                    "duration": 0.10624989375000382
                },
                {
                    "name": "C4",
                    "midi": 60,
                    "time": 97.17847425000092,
                    "velocity": 0.3858267716535433,
                    "duration": 0.10624989375000382
                },
                {
                    "name": "G3",
                    "midi": 55,
                    "time": 97.28561700000093,
                    "velocity": 0.4645669291338583,
                    "duration": 0.10624989375000382
                },
                {
                    "name": "C3",
                    "midi": 48,
                    "time": 97.39275975000093,
                    "velocity": 0.3779527559055118,
                    "duration": 0.10624989375000382
                },
                {
                    "name": "C3",
                    "midi": 48,
                    "time": 97.49990250000094,
                    "velocity": 0.3779527559055118,
                    "duration": 0.10624989375000382
                },
                {
                    "name": "G2",
                    "midi": 43,
                    "time": 97.60704525000095,
                    "velocity": 0.3779527559055118,
                    "duration": 0.21428550000001678
                },
                {
                    "name": "C#2",
                    "midi": 37,
                    "time": 97.71418800000095,
                    "velocity": 0.5354330708661418,
                    "duration": 0.10624989375001803
                },
                {
                    "name": "G#2",
                    "midi": 44,
                    "time": 97.82133075000097,
                    "velocity": 0.4015748031496063,
                    "duration": 0.10624989375000382
                },
                {
                    "name": "C#3",
                    "midi": 49,
                    "time": 97.92847350000098,
                    "velocity": 0.36220472440944884,
                    "duration": 0.10624989375000382
                },
                {
                    "name": "C#3",
                    "midi": 49,
                    "time": 98.03561625000098,
                    "velocity": 0.36220472440944884,
                    "duration": 0.10624989375000382
                },
                {
                    "name": "G#3",
                    "midi": 56,
                    "time": 98.14275900000099,
                    "velocity": 0.4881889763779528,
                    "duration": 0.10624989375000382
                },
                {
                    "name": "C#4",
                    "midi": 61,
                    "time": 98.249901750001,
                    "velocity": 0.36220472440944884,
                    "duration": 0.10624989375000382
                },
                {
                    "name": "C#4",
                    "midi": 61,
                    "time": 98.35704450000101,
                    "velocity": 0.36220472440944884,
                    "duration": 0.10624989375000382
                },
                {
                    "name": "G#4",
                    "midi": 68,
                    "time": 98.46418725000102,
                    "velocity": 0.36220472440944884,
                    "duration": 0.10624989375000382
                },
                {
                    "name": "C#5",
                    "midi": 73,
                    "time": 98.57133000000103,
                    "velocity": 0.4881889763779528,
                    "duration": 0.10624989375000382
                },
                {
                    "name": "G#4",
                    "midi": 68,
                    "time": 98.67847275000103,
                    "velocity": 0.3779527559055118,
                    "duration": 0.10624989375000382
                },
                {
                    "name": "C#4",
                    "midi": 61,
                    "time": 98.78561550000104,
                    "velocity": 0.3779527559055118,
                    "duration": 0.10624989375000382
                },
                {
                    "name": "C#4",
                    "midi": 61,
                    "time": 98.89275825000105,
                    "velocity": 0.3779527559055118,
                    "duration": 0.10624989375000382
                },
                {
                    "name": "G#3",
                    "midi": 56,
                    "time": 98.99990100000106,
                    "velocity": 0.4566929133858268,
                    "duration": 0.10624989375000382
                },
                {
                    "name": "C#3",
                    "midi": 49,
                    "time": 99.10704375000107,
                    "velocity": 0.36220472440944884,
                    "duration": 0.10624989375000382
                },
                {
                    "name": "C#3",
                    "midi": 49,
                    "time": 99.21418650000108,
                    "velocity": 0.36220472440944884,
                    "duration": 0.10624989375000382
                },
                {
                    "name": "G#2",
                    "midi": 44,
                    "time": 99.32132925000109,
                    "velocity": 0.36220472440944884,
                    "duration": 0.10624989375000382
                },
                {
                    "name": "C#2",
                    "midi": 37,
                    "time": 99.4284720000011,
                    "velocity": 0.5196850393700787,
                    "duration": 0.10624989375000382
                },
                {
                    "name": "G#2",
                    "midi": 44,
                    "time": 99.5356147500011,
                    "velocity": 0.3858267716535433,
                    "duration": 0.10624989375000382
                },
                {
                    "name": "C#3",
                    "midi": 49,
                    "time": 99.64275750000111,
                    "velocity": 0.3464566929133858,
                    "duration": 0.10624989375000382
                },
                {
                    "name": "C#3",
                    "midi": 49,
                    "time": 99.74990025000112,
                    "velocity": 0.3464566929133858,
                    "duration": 0.10624989375000382
                },
                {
                    "name": "G#3",
                    "midi": 56,
                    "time": 99.85704300000113,
                    "velocity": 0.48031496062992124,
                    "duration": 0.10624989375000382
                },
                {
                    "name": "C#4",
                    "midi": 61,
                    "time": 99.96418575000114,
                    "velocity": 0.3464566929133858,
                    "duration": 0.10624989375000382
                },
                {
                    "name": "C#4",
                    "midi": 61,
                    "time": 100.07132850000114,
                    "velocity": 0.3464566929133858,
                    "duration": 0.10624989375000382
                },
                {
                    "name": "G#4",
                    "midi": 68,
                    "time": 100.17847125000115,
                    "velocity": 0.3464566929133858,
                    "duration": 0.10624989375000382
                },
                {
                    "name": "C#5",
                    "midi": 73,
                    "time": 100.28561400000116,
                    "velocity": 0.47244094488188976,
                    "duration": 0.10624989375000382
                },
                {
                    "name": "G#4",
                    "midi": 68,
                    "time": 100.39275675000117,
                    "velocity": 0.3464566929133858,
                    "duration": 0.10624989375000382
                },
                {
                    "name": "C#4",
                    "midi": 61,
                    "time": 100.49989950000118,
                    "velocity": 0.3464566929133858,
                    "duration": 0.10624989375000382
                },
                {
                    "name": "C#4",
                    "midi": 61,
                    "time": 100.60704225000119,
                    "velocity": 0.3464566929133858,
                    "duration": 0.10624989375000382
                },
                {
                    "name": "G#3",
                    "midi": 56,
                    "time": 100.7141850000012,
                    "velocity": 0.4409448818897638,
                    "duration": 0.10624989375000382
                },
                {
                    "name": "C#3",
                    "midi": 49,
                    "time": 100.8213277500012,
                    "velocity": 0.3464566929133858,
                    "duration": 0.10624989375000382
                },
                {
                    "name": "C#3",
                    "midi": 49,
                    "time": 100.92847050000121,
                    "velocity": 0.3464566929133858,
                    "duration": 0.10624989375000382
                },
                {
                    "name": "G#2",
                    "midi": 44,
                    "time": 101.03561325000122,
                    "velocity": 0.3464566929133858,
                    "duration": 0.10624989375000382
                },
                {
                    "name": "C#2",
                    "midi": 37,
                    "time": 101.14275600000123,
                    "velocity": 0.5275590551181102,
                    "duration": 0.10624989374998961
                },
                {
                    "name": "G2",
                    "midi": 43,
                    "time": 101.24989875000122,
                    "velocity": 0.3937007874015748,
                    "duration": 0.10624989375000382
                },
                {
                    "name": "C#3",
                    "midi": 49,
                    "time": 101.35704150000123,
                    "velocity": 0.36220472440944884,
                    "duration": 0.10624989375000382
                },
                {
                    "name": "C#3",
                    "midi": 49,
                    "time": 101.46418425000124,
                    "velocity": 0.36220472440944884,
                    "duration": 0.10624989375000382
                },
                {
                    "name": "G3",
                    "midi": 55,
                    "time": 101.57132700000125,
                    "velocity": 0.4881889763779528,
                    "duration": 0.10624989375000382
                },
                {
                    "name": "C#4",
                    "midi": 61,
                    "time": 101.67846975000126,
                    "velocity": 0.36220472440944884,
                    "duration": 0.10624989375000382
                },
                {
                    "name": "C#4",
                    "midi": 61,
                    "time": 101.78561250000126,
                    "velocity": 0.36220472440944884,
                    "duration": 0.10624989375000382
                },
                {
                    "name": "G4",
                    "midi": 67,
                    "time": 101.89275525000127,
                    "velocity": 0.36220472440944884,
                    "duration": 0.10624989375000382
                },
                {
                    "name": "C#5",
                    "midi": 73,
                    "time": 101.99989800000128,
                    "velocity": 0.48031496062992124,
                    "duration": 0.10624989375000382
                },
                {
                    "name": "G4",
                    "midi": 67,
                    "time": 102.10704075000129,
                    "velocity": 0.3779527559055118,
                    "duration": 0.10624989375000382
                },
                {
                    "name": "C#4",
                    "midi": 61,
                    "time": 102.2141835000013,
                    "velocity": 0.3779527559055118,
                    "duration": 0.10624989375000382
                },
                {
                    "name": "C#4",
                    "midi": 61,
                    "time": 102.3213262500013,
                    "velocity": 0.3700787401574803,
                    "duration": 0.10624989375000382
                },
                {
                    "name": "G3",
                    "midi": 55,
                    "time": 102.42846900000131,
                    "velocity": 0.4566929133858268,
                    "duration": 0.10624989375000382
                },
                {
                    "name": "C#3",
                    "midi": 49,
                    "time": 102.53561175000132,
                    "velocity": 0.36220472440944884,
                    "duration": 0.10624989375000382
                },
                {
                    "name": "C#3",
                    "midi": 49,
                    "time": 102.64275450000133,
                    "velocity": 0.36220472440944884,
                    "duration": 0.10624989375000382
                },
                {
                    "name": "G2",
                    "midi": 43,
                    "time": 102.74989725000134,
                    "velocity": 0.36220472440944884,
                    "duration": 0.10624989375000382
                },
                {
                    "name": "C#2",
                    "midi": 37,
                    "time": 102.85704000000135,
                    "velocity": 0.5433070866141733,
                    "duration": 0.10624989375000382
                },
                {
                    "name": "G#2",
                    "midi": 44,
                    "time": 102.96418275000136,
                    "velocity": 0.4015748031496063,
                    "duration": 0.10624989375000382
                },
                {
                    "name": "C#3",
                    "midi": 49,
                    "time": 103.07132550000136,
                    "velocity": 0.3700787401574803,
                    "duration": 0.10624989375000382
                },
                {
                    "name": "C#3",
                    "midi": 49,
                    "time": 103.17846825000137,
                    "velocity": 0.3700787401574803,
                    "duration": 0.10624989375000382
                },
                {
                    "name": "G#3",
                    "midi": 56,
                    "time": 103.28561100000138,
                    "velocity": 0.5196850393700787,
                    "duration": 0.10624989375000382
                },
                {
                    "name": "C#4",
                    "midi": 61,
                    "time": 103.39275375000139,
                    "velocity": 0.3700787401574803,
                    "duration": 0.10624989375000382
                },
                {
                    "name": "C#4",
                    "midi": 61,
                    "time": 103.4998965000014,
                    "velocity": 0.3700787401574803,
                    "duration": 0.10624989375000382
                },
                {
                    "name": "G#4",
                    "midi": 68,
                    "time": 103.6070392500014,
                    "velocity": 0.3700787401574803,
                    "duration": 0.10624989375000382
                },
                {
                    "name": "C#5",
                    "midi": 73,
                    "time": 103.71418200000141,
                    "velocity": 0.5039370078740157,
                    "duration": 0.10624989375000382
                },
                {
                    "name": "G#4",
                    "midi": 68,
                    "time": 103.82132475000142,
                    "velocity": 0.3700787401574803,
                    "duration": 0.10624989375000382
                },
                {
                    "name": "C#4",
                    "midi": 61,
                    "time": 103.92846750000143,
                    "velocity": 0.3700787401574803,
                    "duration": 0.10624989375000382
                },
                {
                    "name": "C#4",
                    "midi": 61,
                    "time": 104.03561025000144,
                    "velocity": 0.3700787401574803,
                    "duration": 0.10624989375000382
                },
                {
                    "name": "G#3",
                    "midi": 56,
                    "time": 104.14275300000145,
                    "velocity": 0.47244094488188976,
                    "duration": 0.10624989375000382
                },
                {
                    "name": "C#3",
                    "midi": 49,
                    "time": 104.24989575000146,
                    "velocity": 0.3700787401574803,
                    "duration": 0.10624989375000382
                },
                {
                    "name": "C#3",
                    "midi": 49,
                    "time": 104.35703850000147,
                    "velocity": 0.3700787401574803,
                    "duration": 0.10624989375000382
                },
                {
                    "name": "G#2",
                    "midi": 44,
                    "time": 104.46418125000147,
                    "velocity": 0.3700787401574803,
                    "duration": 0.21428549999998836
                },
                {
                    "name": "D2",
                    "midi": 38,
                    "time": 104.57132400000147,
                    "velocity": 0.5669291338582677,
                    "duration": 0.10624989374998961
                },
                {
                    "name": "G2",
                    "midi": 43,
                    "time": 104.67846675000146,
                    "velocity": 0.4015748031496063,
                    "duration": 0.10624989375000382
                },
                {
                    "name": "D3",
                    "midi": 50,
                    "time": 104.78560950000147,
                    "velocity": 0.3858267716535433,
                    "duration": 0.10624989375000382
                },
                {
                    "name": "D3",
                    "midi": 50,
                    "time": 104.89275225000148,
                    "velocity": 0.3858267716535433,
                    "duration": 0.10624989375000382
                },
                {
                    "name": "G3",
                    "midi": 55,
                    "time": 104.99989500000149,
                    "velocity": 0.5275590551181102,
                    "duration": 0.10624989375000382
                },
                {
                    "name": "D4",
                    "midi": 62,
                    "time": 105.1070377500015,
                    "velocity": 0.3858267716535433,
                    "duration": 0.10624989375000382
                },
                {
                    "name": "G3",
                    "midi": 55,
                    "time": 105.2141805000015,
                    "velocity": 0.3858267716535433,
                    "duration": 0.10624989375000382
                },
                {
                    "name": "D3",
                    "midi": 50,
                    "time": 105.32132325000151,
                    "velocity": 0.3858267716535433,
                    "duration": 0.10624989375000382
                },
                {
                    "name": "D2",
                    "midi": 38,
                    "time": 105.42846600000152,
                    "velocity": 0.5275590551181102,
                    "duration": 0.10624989375000382
                },
                {
                    "name": "F2",
                    "midi": 41,
                    "time": 105.53560875000153,
                    "velocity": 0.3937007874015748,
                    "duration": 0.10624989375000382
                },
                {
                    "name": "D3",
                    "midi": 50,
                    "time": 105.64275150000154,
                    "velocity": 0.3937007874015748,
                    "duration": 0.10624989375000382
                },
                {
                    "name": "D3",
                    "midi": 50,
                    "time": 105.74989425000155,
                    "velocity": 0.3937007874015748,
                    "duration": 0.10624989375000382
                },
                {
                    "name": "F3",
                    "midi": 53,
                    "time": 105.85703700000155,
                    "velocity": 0.48031496062992124,
                    "duration": 0.10624989375000382
                },
                {
                    "name": "D4",
                    "midi": 62,
                    "time": 105.96417975000156,
                    "velocity": 0.3858267716535433,
                    "duration": 0.10624989375000382
                },
                {
                    "name": "F3",
                    "midi": 53,
                    "time": 106.07132250000157,
                    "velocity": 0.3858267716535433,
                    "duration": 0.10624989375000382
                },
                {
                    "name": "D3",
                    "midi": 50,
                    "time": 106.17846525000158,
                    "velocity": 0.3858267716535433,
                    "duration": 0.10624989375000382
                },
                {
                    "name": "D#2",
                    "midi": 39,
                    "time": 106.28560800000159,
                    "velocity": 0.5748031496062992,
                    "duration": 0.10624989375000382
                },
                {
                    "name": "C3",
                    "midi": 48,
                    "time": 106.3927507500016,
                    "velocity": 0.4330708661417323,
                    "duration": 0.10624989375000382
                },
                {
                    "name": "D#3",
                    "midi": 51,
                    "time": 106.4998935000016,
                    "velocity": 0.3937007874015748,
                    "duration": 0.10624989375000382
                },
                {
                    "name": "D#3",
                    "midi": 51,
                    "time": 106.60703625000161,
                    "velocity": 0.3937007874015748,
                    "duration": 0.10624989375000382
                },
                {
                    "name": "C4",
                    "midi": 60,
                    "time": 106.71417900000162,
                    "velocity": 0.5433070866141733,
                    "duration": 0.10624989375000382
                },
                {
                    "name": "D#4",
                    "midi": 63,
                    "time": 106.82132175000163,
                    "velocity": 0.3937007874015748,
                    "duration": 0.10624989375000382
                },
                {
                    "name": "D#4",
                    "midi": 63,
                    "time": 106.92846450000164,
                    "velocity": 0.3937007874015748,
                    "duration": 0.10624989375000382
                },
                {
                    "name": "C5",
                    "midi": 72,
                    "time": 107.03560725000165,
                    "velocity": 0.3937007874015748,
                    "duration": 0.10624989375000382
                },
                {
                    "name": "D#5",
                    "midi": 75,
                    "time": 107.14275000000166,
                    "velocity": 0.5433070866141733,
                    "duration": 0.10624989375000382
                },
                {
                    "name": "C5",
                    "midi": 72,
                    "time": 107.24989275000166,
                    "velocity": 0.3937007874015748,
                    "duration": 0.10624989375000382
                },
                {
                    "name": "D#4",
                    "midi": 63,
                    "time": 107.35703550000167,
                    "velocity": 0.3937007874015748,
                    "duration": 0.10624989375000382
                },
                {
                    "name": "D#4",
                    "midi": 63,
                    "time": 107.46417825000168,
                    "velocity": 0.3937007874015748,
                    "duration": 0.10624989375000382
                },
                {
                    "name": "C4",
                    "midi": 60,
                    "time": 107.57132100000169,
                    "velocity": 0.49606299212598426,
                    "duration": 0.10624989375000382
                },
                {
                    "name": "D#3",
                    "midi": 51,
                    "time": 107.6784637500017,
                    "velocity": 0.3937007874015748,
                    "duration": 0.10624989375000382
                },
                {
                    "name": "D#3",
                    "midi": 51,
                    "time": 107.7856065000017,
                    "velocity": 0.3937007874015748,
                    "duration": 0.10624989375000382
                },
                {
                    "name": "C3",
                    "midi": 48,
                    "time": 107.89274925000171,
                    "velocity": 0.3937007874015748,
                    "duration": 0.10624989375000382
                },
                {
                    "name": "E2",
                    "midi": 40,
                    "time": 107.99989200000172,
                    "velocity": 0.6062992125984252,
                    "duration": 0.10624989375000382
                },
                {
                    "name": "C3",
                    "midi": 48,
                    "time": 108.10703475000173,
                    "velocity": 0.4566929133858268,
                    "duration": 0.10624989375000382
                },
                {
                    "name": "E3",
                    "midi": 52,
                    "time": 108.21417750000174,
                    "velocity": 0.4094488188976378,
                    "duration": 0.10624989375000382
                },
                {
                    "name": "E3",
                    "midi": 52,
                    "time": 108.32132025000175,
                    "velocity": 0.4094488188976378,
                    "duration": 0.10624989375000382
                },
                {
                    "name": "C4",
                    "midi": 60,
                    "time": 108.42846300000176,
                    "velocity": 0.5669291338582677,
                    "duration": 0.10624989375000382
                },
                {
                    "name": "E4",
                    "midi": 64,
                    "time": 108.53560575000176,
                    "velocity": 0.4094488188976378,
                    "duration": 0.10624989375000382
                },
                {
                    "name": "E4",
                    "midi": 64,
                    "time": 108.64274850000177,
                    "velocity": 0.4094488188976378,
                    "duration": 0.10624989375000382
                },
                {
                    "name": "C5",
                    "midi": 72,
                    "time": 108.74989125000178,
                    "velocity": 0.4094488188976378,
                    "duration": 0.10624989375000382
                },
                {
                    "name": "E5",
                    "midi": 76,
                    "time": 108.85703400000179,
                    "velocity": 0.5590551181102362,
                    "duration": 0.10624989375000382
                },
                {
                    "name": "C5",
                    "midi": 72,
                    "time": 108.9641767500018,
                    "velocity": 0.4094488188976378,
                    "duration": 0.10624989375000382
                },
                {
                    "name": "E4",
                    "midi": 64,
                    "time": 109.0713195000018,
                    "velocity": 0.4094488188976378,
                    "duration": 0.10624989375000382
                },
                {
                    "name": "E4",
                    "midi": 64,
                    "time": 109.17846225000181,
                    "velocity": 0.4094488188976378,
                    "duration": 0.10624989375000382
                },
                {
                    "name": "C4",
                    "midi": 60,
                    "time": 109.28560500000182,
                    "velocity": 0.5039370078740157,
                    "duration": 0.10624989375000382
                },
                {
                    "name": "E3",
                    "midi": 52,
                    "time": 109.39274775000183,
                    "velocity": 0.4094488188976378,
                    "duration": 0.10624989375000382
                },
                {
                    "name": "E3",
                    "midi": 52,
                    "time": 109.49989050000184,
                    "velocity": 0.4094488188976378,
                    "duration": 0.10624989375000382
                },
                {
                    "name": "C3",
                    "midi": 48,
                    "time": 109.60703325000185,
                    "velocity": 0.4094488188976378,
                    "duration": 0.10624989375000382
                },
                {
                    "name": "F2",
                    "midi": 41,
                    "time": 109.71417600000186,
                    "velocity": 0.5669291338582677,
                    "duration": 0.10624989375000382
                },
                {
                    "name": "C3",
                    "midi": 48,
                    "time": 109.82131875000186,
                    "velocity": 0.4015748031496063,
                    "duration": 0.10624989375000382
                },
                {
                    "name": "F3",
                    "midi": 53,
                    "time": 109.92846150000187,
                    "velocity": 0.3858267716535433,
                    "duration": 0.10624989375000382
                },
                {
                    "name": "F3",
                    "midi": 53,
                    "time": 110.03560425000188,
                    "velocity": 0.3858267716535433,
                    "duration": 0.10624989375000382
                },
                {
                    "name": "C4",
                    "midi": 60,
                    "time": 110.14274700000189,
                    "velocity": 0.5275590551181102,
                    "duration": 0.10624989375000382
                },
                {
                    "name": "F4",
                    "midi": 65,
                    "time": 110.2498897500019,
                    "velocity": 0.3858267716535433,
                    "duration": 0.10624989375000382
                },
                {
                    "name": "C4",
                    "midi": 60,
                    "time": 110.3570325000019,
                    "velocity": 0.3858267716535433,
                    "duration": 0.10624989375000382
                },
                {
                    "name": "F3",
                    "midi": 53,
                    "time": 110.46417525000192,
                    "velocity": 0.3858267716535433,
                    "duration": 0.10624989375000382
                },
                {
                    "name": "F2",
                    "midi": 41,
                    "time": 110.57131800000192,
                    "velocity": 0.5196850393700787,
                    "duration": 0.10624989375000382
                },
                {
                    "name": "C3",
                    "midi": 48,
                    "time": 110.67846075000193,
                    "velocity": 0.3937007874015748,
                    "duration": 0.10624989375000382
                },
                {
                    "name": "F3",
                    "midi": 53,
                    "time": 110.78560350000194,
                    "velocity": 0.3937007874015748,
                    "duration": 0.10624989375000382
                },
                {
                    "name": "F3",
                    "midi": 53,
                    "time": 110.89274625000195,
                    "velocity": 0.3937007874015748,
                    "duration": 0.10624989375000382
                },
                {
                    "name": "C4",
                    "midi": 60,
                    "time": 110.99988900000196,
                    "velocity": 0.4881889763779528,
                    "duration": 0.10624989375000382
                },
                {
                    "name": "F4",
                    "midi": 65,
                    "time": 111.10703175000197,
                    "velocity": 0.3858267716535433,
                    "duration": 0.10624989375000382
                },
                {
                    "name": "C4",
                    "midi": 60,
                    "time": 111.21417450000197,
                    "velocity": 0.3858267716535433,
                    "duration": 0.10624989375000382
                },
                {
                    "name": "F3",
                    "midi": 53,
                    "time": 111.32131725000198,
                    "velocity": 0.3858267716535433,
                    "duration": 0.10535703749999925
                },
                {
                    "name": "F2",
                    "midi": 41,
                    "time": 111.42846000000198,
                    "velocity": 0.5748031496062992,
                    "duration": 0.10624989375000382
                },
                {
                    "name": "C3",
                    "midi": 48,
                    "time": 111.53560275000198,
                    "velocity": 0.4094488188976378,
                    "duration": 0.10624989375000382
                },
                {
                    "name": "F3",
                    "midi": 53,
                    "time": 111.642745500002,
                    "velocity": 0.3858267716535433,
                    "duration": 0.10624989375000382
                },
                {
                    "name": "F3",
                    "midi": 53,
                    "time": 111.749888250002,
                    "velocity": 0.3858267716535433,
                    "duration": 0.10624989375000382
                },
                {
                    "name": "C4",
                    "midi": 60,
                    "time": 111.85703100000201,
                    "velocity": 0.5433070866141733,
                    "duration": 0.10624989375000382
                },
                {
                    "name": "F4",
                    "midi": 65,
                    "time": 111.96417375000202,
                    "velocity": 0.3858267716535433,
                    "duration": 0.10624989375000382
                },
                {
                    "name": "C4",
                    "midi": 60,
                    "time": 112.07131650000203,
                    "velocity": 0.3858267716535433,
                    "duration": 0.10624989375000382
                },
                {
                    "name": "F3",
                    "midi": 53,
                    "time": 112.17845925000204,
                    "velocity": 0.3858267716535433,
                    "duration": 0.10624989375000382
                },
                {
                    "name": "F2",
                    "midi": 41,
                    "time": 112.28560200000204,
                    "velocity": 0.5275590551181102,
                    "duration": 0.10624989375000382
                },
                {
                    "name": "C3",
                    "midi": 48,
                    "time": 112.39274475000205,
                    "velocity": 0.3937007874015748,
                    "duration": 0.10624989375000382
                },
                {
                    "name": "F3",
                    "midi": 53,
                    "time": 112.49988750000206,
                    "velocity": 0.3937007874015748,
                    "duration": 0.10624989375000382
                },
                {
                    "name": "F3",
                    "midi": 53,
                    "time": 112.60703025000207,
                    "velocity": 0.3937007874015748,
                    "duration": 0.10624989375000382
                },
                {
                    "name": "C4",
                    "midi": 60,
                    "time": 112.71417300000208,
                    "velocity": 0.4881889763779528,
                    "duration": 0.10624989375000382
                },
                {
                    "name": "F4",
                    "midi": 65,
                    "time": 112.82131575000209,
                    "velocity": 0.3858267716535433,
                    "duration": 0.10624989375000382
                },
                {
                    "name": "C4",
                    "midi": 60,
                    "time": 112.9284585000021,
                    "velocity": 0.3858267716535433,
                    "duration": 0.10624989375000382
                },
                {
                    "name": "F3",
                    "midi": 53,
                    "time": 113.0356012500021,
                    "velocity": 0.3858267716535433,
                    "duration": 0.10624989375000382
                },
                {
                    "name": "G2",
                    "midi": 43,
                    "time": 113.14274400000211,
                    "velocity": 0.5826771653543307,
                    "duration": 0.10624989375000382
                },
                {
                    "name": "D#3",
                    "midi": 51,
                    "time": 113.24988675000212,
                    "velocity": 0.4409448818897638,
                    "duration": 0.10624989375000382
                },
                {
                    "name": "G3",
                    "midi": 55,
                    "time": 113.35702950000213,
                    "velocity": 0.4409448818897638,
                    "duration": 0.10624989375000382
                },
                {
                    "name": "G3",
                    "midi": 55,
                    "time": 113.46417225000214,
                    "velocity": 0.41732283464566927,
                    "duration": 0.10624989375000382
                },
                {
                    "name": "D#4",
                    "midi": 63,
                    "time": 113.57131500000214,
                    "velocity": 0.5196850393700787,
                    "duration": 0.10624989375000382
                },
                {
                    "name": "G4",
                    "midi": 67,
                    "time": 113.67845775000215,
                    "velocity": 0.41732283464566927,
                    "duration": 0.10624989375000382
                },
                {
                    "name": "G4",
                    "midi": 67,
                    "time": 113.78560050000216,
                    "velocity": 0.41732283464566927,
                    "duration": 0.10624989375000382
                },
                {
                    "name": "D#5",
                    "midi": 75,
                    "time": 113.89274325000217,
                    "velocity": 0.41732283464566927,
                    "duration": 0.10624989375000382
                },
                {
                    "name": "G5",
                    "midi": 79,
                    "time": 113.99988600000218,
                    "velocity": 0.5669291338582677,
                    "duration": 0.10624989375000382
                },
                {
                    "name": "D#5",
                    "midi": 75,
                    "time": 114.10702875000219,
                    "velocity": 0.41732283464566927,
                    "duration": 0.10624989375000382
                },
                {
                    "name": "G4",
                    "midi": 67,
                    "time": 114.2141715000022,
                    "velocity": 0.41732283464566927,
                    "duration": 0.10624989375000382
                },
                {
                    "name": "G4",
                    "midi": 67,
                    "time": 114.3213142500022,
                    "velocity": 0.41732283464566927,
                    "duration": 0.10624989375000382
                },
                {
                    "name": "D#4",
                    "midi": 63,
                    "time": 114.42845700000221,
                    "velocity": 0.5275590551181102,
                    "duration": 0.10624989375000382
                },
                {
                    "name": "G3",
                    "midi": 55,
                    "time": 114.53559975000222,
                    "velocity": 0.41732283464566927,
                    "duration": 0.10624989375000382
                },
                {
                    "name": "G3",
                    "midi": 55,
                    "time": 114.64274250000223,
                    "velocity": 0.41732283464566927,
                    "duration": 0.10624989375000382
                },
                {
                    "name": "D#3",
                    "midi": 51,
                    "time": 114.74988525000224,
                    "velocity": 0.41732283464566927,
                    "duration": 0.10624989375000382
                },
                {
                    "name": "G2",
                    "midi": 43,
                    "time": 114.85702800000224,
                    "velocity": 0.5826771653543307,
                    "duration": 0.10624989375000382
                },
                {
                    "name": "D#3",
                    "midi": 51,
                    "time": 114.96417075000225,
                    "velocity": 0.4409448818897638,
                    "duration": 0.10624989375000382
                },
                {
                    "name": "G3",
                    "midi": 55,
                    "time": 115.07131350000226,
                    "velocity": 0.4409448818897638,
                    "duration": 0.10624989375000382
                },
                {
                    "name": "G3",
                    "midi": 55,
                    "time": 115.17845625000227,
                    "velocity": 0.41732283464566927,
                    "duration": 0.10624989375000382
                },
                {
                    "name": "D#4",
                    "midi": 63,
                    "time": 115.28559900000228,
                    "velocity": 0.5196850393700787,
                    "duration": 0.10624989375000382
                },
                {
                    "name": "G4",
                    "midi": 67,
                    "time": 115.39274175000229,
                    "velocity": 0.41732283464566927,
                    "duration": 0.10624989375000382
                },
                {
                    "name": "G4",
                    "midi": 67,
                    "time": 115.4998845000023,
                    "velocity": 0.41732283464566927,
                    "duration": 0.10624989375000382
                },
                {
                    "name": "D#5",
                    "midi": 75,
                    "time": 115.6070272500023,
                    "velocity": 0.41732283464566927,
                    "duration": 0.10624989375000382
                },
                {
                    "name": "G5",
                    "midi": 79,
                    "time": 115.71417000000231,
                    "velocity": 0.5669291338582677,
                    "duration": 0.10624989375000382
                },
                {
                    "name": "D#5",
                    "midi": 75,
                    "time": 115.82131275000232,
                    "velocity": 0.41732283464566927,
                    "duration": 0.10624989375000382
                },
                {
                    "name": "G4",
                    "midi": 67,
                    "time": 115.92845550000233,
                    "velocity": 0.41732283464566927,
                    "duration": 0.10624989375000382
                },
                {
                    "name": "G4",
                    "midi": 67,
                    "time": 116.03559825000234,
                    "velocity": 0.41732283464566927,
                    "duration": 0.10624989375000382
                },
                {
                    "name": "D#4",
                    "midi": 63,
                    "time": 116.14274100000235,
                    "velocity": 0.5275590551181102,
                    "duration": 0.10624989375000382
                },
                {
                    "name": "G3",
                    "midi": 55,
                    "time": 116.24988375000235,
                    "velocity": 0.41732283464566927,
                    "duration": 0.10624989375000382
                },
                {
                    "name": "G3",
                    "midi": 55,
                    "time": 116.35702650000236,
                    "velocity": 0.41732283464566927,
                    "duration": 0.10624989375000382
                },
                {
                    "name": "D#3",
                    "midi": 51,
                    "time": 116.46416925000237,
                    "velocity": 0.41732283464566927,
                    "duration": 0.10624989375000382
                },
                {
                    "name": "G2",
                    "midi": 43,
                    "time": 116.57131200000238,
                    "velocity": 0.5826771653543307,
                    "duration": 0.10624989375000382
                },
                {
                    "name": "D3",
                    "midi": 50,
                    "time": 116.67845475000239,
                    "velocity": 0.4409448818897638,
                    "duration": 0.10624989375000382
                },
                {
                    "name": "F3",
                    "midi": 53,
                    "time": 116.7855975000024,
                    "velocity": 0.4409448818897638,
                    "duration": 0.10624989375000382
                },
                {
                    "name": "G3",
                    "midi": 55,
                    "time": 116.8927402500024,
                    "velocity": 0.41732283464566927,
                    "duration": 0.10624989375000382
                },
                {
                    "name": "D4",
                    "midi": 62,
                    "time": 116.99988300000241,
                    "velocity": 0.5196850393700787,
                    "duration": 0.10624989375000382
                },
                {
                    "name": "F4",
                    "midi": 65,
                    "time": 117.10702575000242,
                    "velocity": 0.41732283464566927,
                    "duration": 0.10624989375000382
                },
                {
                    "name": "G4",
                    "midi": 67,
                    "time": 117.21416850000243,
                    "velocity": 0.41732283464566927,
                    "duration": 0.10624989375000382
                },
                {
                    "name": "D5",
                    "midi": 74,
                    "time": 117.32131125000244,
                    "velocity": 0.41732283464566927,
                    "duration": 0.10624989375000382
                },
                {
                    "name": "F5",
                    "midi": 77,
                    "time": 117.42845400000245,
                    "velocity": 0.5669291338582677,
                    "duration": 0.10624989375000382
                },
                {
                    "name": "D5",
                    "midi": 74,
                    "time": 117.53559675000245,
                    "velocity": 0.41732283464566927,
                    "duration": 0.10624989375000382
                },
                {
                    "name": "G4",
                    "midi": 67,
                    "time": 117.64273950000246,
                    "velocity": 0.41732283464566927,
                    "duration": 0.10624989375000382
                },
                {
                    "name": "F4",
                    "midi": 65,
                    "time": 117.74988225000247,
                    "velocity": 0.41732283464566927,
                    "duration": 0.10624989375000382
                },
                {
                    "name": "D4",
                    "midi": 62,
                    "time": 117.85702500000248,
                    "velocity": 0.5275590551181102,
                    "duration": 0.10624989375000382
                },
                {
                    "name": "G3",
                    "midi": 55,
                    "time": 117.96416775000249,
                    "velocity": 0.41732283464566927,
                    "duration": 0.10624989375000382
                },
                {
                    "name": "F3",
                    "midi": 53,
                    "time": 118.0713105000025,
                    "velocity": 0.41732283464566927,
                    "duration": 0.10624989375000382
                },
                {
                    "name": "D3",
                    "midi": 50,
                    "time": 118.1784532500025,
                    "velocity": 0.41732283464566927,
                    "duration": 0.10624989375000382
                },
                {
                    "name": "G2",
                    "midi": 43,
                    "time": 118.28559600000251,
                    "velocity": 0.5826771653543307,
                    "duration": 0.10624989375000382
                },
                {
                    "name": "D3",
                    "midi": 50,
                    "time": 118.39273875000252,
                    "velocity": 0.4409448818897638,
                    "duration": 0.10624989375000382
                },
                {
                    "name": "F3",
                    "midi": 53,
                    "time": 118.49988150000253,
                    "velocity": 0.4409448818897638,
                    "duration": 0.10624989375000382
                },
                {
                    "name": "G3",
                    "midi": 55,
                    "time": 118.60702425000254,
                    "velocity": 0.41732283464566927,
                    "duration": 0.10624989375000382
                },
                {
                    "name": "D4",
                    "midi": 62,
                    "time": 118.71416700000255,
                    "velocity": 0.5196850393700787,
                    "duration": 0.10624989375000382
                },
                {
                    "name": "F4",
                    "midi": 65,
                    "time": 118.82130975000256,
                    "velocity": 0.41732283464566927,
                    "duration": 0.10624989375000382
                },
                {
                    "name": "G4",
                    "midi": 67,
                    "time": 118.92845250000256,
                    "velocity": 0.41732283464566927,
                    "duration": 0.10624989375000382
                },
                {
                    "name": "D5",
                    "midi": 74,
                    "time": 119.03559525000257,
                    "velocity": 0.41732283464566927,
                    "duration": 0.10624989375000382
                },
                {
                    "name": "F5",
                    "midi": 77,
                    "time": 119.14273800000258,
                    "velocity": 0.5669291338582677,
                    "duration": 0.10624989375000382
                },
                {
                    "name": "D5",
                    "midi": 74,
                    "time": 119.24988075000259,
                    "velocity": 0.41732283464566927,
                    "duration": 0.10624989375000382
                },
                {
                    "name": "G4",
                    "midi": 67,
                    "time": 119.3570235000026,
                    "velocity": 0.41732283464566927,
                    "duration": 0.10624989375000382
                },
                {
                    "name": "F4",
                    "midi": 65,
                    "time": 119.4641662500026,
                    "velocity": 0.41732283464566927,
                    "duration": 0.10624989375000382
                },
                {
                    "name": "D4",
                    "midi": 62,
                    "time": 119.57130900000261,
                    "velocity": 0.5275590551181102,
                    "duration": 0.10624989375000382
                },
                {
                    "name": "G3",
                    "midi": 55,
                    "time": 119.67845175000262,
                    "velocity": 0.41732283464566927,
                    "duration": 0.10624989375000382
                },
                {
                    "name": "D3",
                    "midi": 50,
                    "time": 119.78559450000263,
                    "velocity": 0.41732283464566927,
                    "duration": 0.10624989375000382
                },
                {
                    "name": "G2",
                    "midi": 43,
                    "time": 119.89273725000264,
                    "velocity": 0.41732283464566927,
                    "duration": 0.10624989375000382
                },
                {
                    "name": "C2",
                    "midi": 36,
                    "time": 119.99988000000265,
                    "velocity": 0.5826771653543307,
                    "duration": 0.10624989375000382
                },
                {
                    "name": "G2",
                    "midi": 43,
                    "time": 120.10702275000266,
                    "velocity": 0.4409448818897638,
                    "duration": 0.10624989375000382
                },
                {
                    "name": "C3",
                    "midi": 48,
                    "time": 120.21416550000266,
                    "velocity": 0.4409448818897638,
                    "duration": 0.10624989375000382
                },
                {
                    "name": "C3",
                    "midi": 48,
                    "time": 120.32130825000267,
                    "velocity": 0.41732283464566927,
                    "duration": 0.10624989375000382
                },
                {
                    "name": "G3",
                    "midi": 55,
                    "time": 120.42845100000268,
                    "velocity": 0.5196850393700787,
                    "duration": 0.10624989375000382
                },
                {
                    "name": "C4",
                    "midi": 60,
                    "time": 120.53559375000269,
                    "velocity": 0.41732283464566927,
                    "duration": 0.10624989375000382
                },
                {
                    "name": "C4",
                    "midi": 60,
                    "time": 120.6427365000027,
                    "velocity": 0.41732283464566927,
                    "duration": 0.10624989375000382
                },
                {
                    "name": "G4",
                    "midi": 67,
                    "time": 120.7498792500027,
                    "velocity": 0.41732283464566927,
                    "duration": 0.10624989375000382
                },
                {
                    "name": "C5",
                    "midi": 72,
                    "time": 120.85702200000271,
                    "velocity": 0.5669291338582677,
                    "duration": 0.10624989375000382
                },
                {
                    "name": "C5",
                    "midi": 72,
                    "time": 120.96416475000272,
                    "velocity": 0.41732283464566927,
                    "duration": 0.10624989375000382
                },
                {
                    "name": "G5",
                    "midi": 79,
                    "time": 121.07130750000273,
                    "velocity": 0.41732283464566927,
                    "duration": 0.10624989375000382
                },
                {
                    "name": "C6",
                    "midi": 84,
                    "time": 121.17845025000274,
                    "velocity": 0.41732283464566927,
                    "duration": 0.10624989375000382
                },
                {
                    "name": "G5",
                    "midi": 79,
                    "time": 121.28559300000275,
                    "velocity": 0.5275590551181102,
                    "duration": 0.10624989375000382
                },
                {
                    "name": "C5",
                    "midi": 72,
                    "time": 121.39273575000276,
                    "velocity": 0.41732283464566927,
                    "duration": 0.10624989375000382
                },
                {
                    "name": "C5",
                    "midi": 72,
                    "time": 121.49987850000277,
                    "velocity": 0.41732283464566927,
                    "duration": 0.10624989375000382
                },
                {
                    "name": "G4",
                    "midi": 67,
                    "time": 121.60702125000277,
                    "velocity": 0.41732283464566927,
                    "duration": 0.10624989375000382
                },
                {
                    "name": "C4",
                    "midi": 60,
                    "time": 121.71416400000278,
                    "velocity": 0.5433070866141733,
                    "duration": 0.10624989375000382
                },
                {
                    "name": "C4",
                    "midi": 60,
                    "time": 121.82130675000279,
                    "velocity": 0.4094488188976378,
                    "duration": 0.10624989375000382
                },
                {
                    "name": "G3",
                    "midi": 55,
                    "time": 121.9284495000028,
                    "velocity": 0.4094488188976378,
                    "duration": 0.10624989375000382
                },
                {
                    "name": "C3",
                    "midi": 48,
                    "time": 122.03559225000281,
                    "velocity": 0.4094488188976378,
                    "duration": 0.10624989375000382
                },
                {
                    "name": "C3",
                    "midi": 48,
                    "time": 122.14273500000282,
                    "velocity": 0.48031496062992124,
                    "duration": 0.10624989375000382
                },
                {
                    "name": "G2",
                    "midi": 43,
                    "time": 122.24987775000282,
                    "velocity": 0.3937007874015748,
                    "duration": 0.10624989375000382
                },
                {
                    "name": "C2",
                    "midi": 36,
                    "time": 122.35702050000283,
                    "velocity": 0.3937007874015748,
                    "duration": 0.10624989375000382
                },
                {
                    "name": "G2",
                    "midi": 43,
                    "time": 122.46416325000284,
                    "velocity": 0.3937007874015748,
                    "duration": 0.10624989375000382
                },
                {
                    "name": "B2",
                    "midi": 47,
                    "time": 122.57130600000285,
                    "velocity": 0.4645669291338583,
                    "duration": 0.10624989375000382
                },
                {
                    "name": "G2",
                    "midi": 43,
                    "time": 122.67844875000286,
                    "velocity": 0.3937007874015748,
                    "duration": 0.10624989375000382
                },
                {
                    "name": "C2",
                    "midi": 36,
                    "time": 122.78559150000287,
                    "velocity": 0.3937007874015748,
                    "duration": 0.10624989375000382
                },
                {
                    "name": "G2",
                    "midi": 43,
                    "time": 122.89273425000287,
                    "velocity": 0.3937007874015748,
                    "duration": 0.10624989375000382
                },
                {
                    "name": "D3",
                    "midi": 50,
                    "time": 122.99987700000288,
                    "velocity": 0.4409448818897638,
                    "duration": 0.10624989374998961
                },
                {
                    "name": "G2",
                    "midi": 43,
                    "time": 123.10701975000288,
                    "velocity": 0.3858267716535433,
                    "duration": 0.10624989375000382
                },
                {
                    "name": "C2",
                    "midi": 36,
                    "time": 123.21416250000289,
                    "velocity": 0.3858267716535433,
                    "duration": 0.10624989375000382
                },
                {
                    "name": "G2",
                    "midi": 43,
                    "time": 123.3213052500029,
                    "velocity": 0.3858267716535433,
                    "duration": 0.10624989375000382
                },
                {
                    "name": "C2",
                    "midi": 36,
                    "time": 123.4284480000029,
                    "velocity": 0.5826771653543307,
                    "duration": 0.10624989375000382
                },
                {
                    "name": "G2",
                    "midi": 43,
                    "time": 123.53559075000291,
                    "velocity": 0.4409448818897638,
                    "duration": 0.10624989375000382
                },
                {
                    "name": "C3",
                    "midi": 48,
                    "time": 123.64273350000292,
                    "velocity": 0.4409448818897638,
                    "duration": 0.10624989375000382
                },
                {
                    "name": "C3",
                    "midi": 48,
                    "time": 123.74987625000293,
                    "velocity": 0.41732283464566927,
                    "duration": 0.10624989375000382
                },
                {
                    "name": "G3",
                    "midi": 55,
                    "time": 123.85701900000294,
                    "velocity": 0.5196850393700787,
                    "duration": 0.10624989375000382
                },
                {
                    "name": "C4",
                    "midi": 60,
                    "time": 123.96416175000294,
                    "velocity": 0.41732283464566927,
                    "duration": 0.10624989375000382
                },
                {
                    "name": "C4",
                    "midi": 60,
                    "time": 124.07130450000295,
                    "velocity": 0.41732283464566927,
                    "duration": 0.10624989375000382
                },
                {
                    "name": "G4",
                    "midi": 67,
                    "time": 124.17844725000296,
                    "velocity": 0.41732283464566927,
                    "duration": 0.10624989375000382
                },
                {
                    "name": "C5",
                    "midi": 72,
                    "time": 124.28559000000297,
                    "velocity": 0.5669291338582677,
                    "duration": 0.10624989375000382
                },
                {
                    "name": "C5",
                    "midi": 72,
                    "time": 124.39273275000298,
                    "velocity": 0.41732283464566927,
                    "duration": 0.10624989375000382
                },
                {
                    "name": "G5",
                    "midi": 79,
                    "time": 124.49987550000299,
                    "velocity": 0.41732283464566927,
                    "duration": 0.10624989375000382
                },
                {
                    "name": "C6",
                    "midi": 84,
                    "time": 124.607018250003,
                    "velocity": 0.41732283464566927,
                    "duration": 0.10624989375000382
                },
                {
                    "name": "G5",
                    "midi": 79,
                    "time": 124.714161000003,
                    "velocity": 0.5275590551181102,
                    "duration": 0.10624989375000382
                },
                {
                    "name": "C5",
                    "midi": 72,
                    "time": 124.82130375000301,
                    "velocity": 0.41732283464566927,
                    "duration": 0.10624989375000382
                },
                {
                    "name": "C5",
                    "midi": 72,
                    "time": 124.92844650000302,
                    "velocity": 0.41732283464566927,
                    "duration": 0.10624989375000382
                },
                {
                    "name": "G4",
                    "midi": 67,
                    "time": 125.03558925000303,
                    "velocity": 0.41732283464566927,
                    "duration": 0.10624989375000382
                },
                {
                    "name": "C4",
                    "midi": 60,
                    "time": 125.14273200000304,
                    "velocity": 0.5433070866141733,
                    "duration": 0.10624989375000382
                },
                {
                    "name": "C4",
                    "midi": 60,
                    "time": 125.24987475000304,
                    "velocity": 0.4094488188976378,
                    "duration": 0.10624989375000382
                },
                {
                    "name": "G3",
                    "midi": 55,
                    "time": 125.35701750000305,
                    "velocity": 0.4094488188976378,
                    "duration": 0.10624989375000382
                },
                {
                    "name": "C3",
                    "midi": 48,
                    "time": 125.46416025000306,
                    "velocity": 0.4094488188976378,
                    "duration": 0.10624989375000382
                },
                {
                    "name": "C3",
                    "midi": 48,
                    "time": 125.57130300000307,
                    "velocity": 0.48031496062992124,
                    "duration": 0.10624989375000382
                },
                {
                    "name": "G2",
                    "midi": 43,
                    "time": 125.67844575000308,
                    "velocity": 0.3937007874015748,
                    "duration": 0.10624989375000382
                },
                {
                    "name": "C2",
                    "midi": 36,
                    "time": 125.78558850000309,
                    "velocity": 0.3937007874015748,
                    "duration": 0.10624989375000382
                },
                {
                    "name": "G2",
                    "midi": 43,
                    "time": 125.8927312500031,
                    "velocity": 0.3937007874015748,
                    "duration": 0.10624989375000382
                },
                {
                    "name": "B2",
                    "midi": 47,
                    "time": 125.9998740000031,
                    "velocity": 0.4645669291338583,
                    "duration": 0.10624989375000382
                },
                {
                    "name": "G2",
                    "midi": 43,
                    "time": 126.10701675000311,
                    "velocity": 0.3937007874015748,
                    "duration": 0.10624989375000382
                },
                {
                    "name": "C2",
                    "midi": 36,
                    "time": 126.21415950000312,
                    "velocity": 0.3937007874015748,
                    "duration": 0.10624989375000382
                },
                {
                    "name": "G2",
                    "midi": 43,
                    "time": 126.32130225000313,
                    "velocity": 0.3937007874015748,
                    "duration": 0.10624989375000382
                },
                {
                    "name": "A2",
                    "midi": 45,
                    "time": 126.42844500000314,
                    "velocity": 0.4409448818897638,
                    "duration": 0.10624989374998961
                },
                {
                    "name": "G2",
                    "midi": 43,
                    "time": 126.53558775000313,
                    "velocity": 0.3858267716535433,
                    "duration": 0.10624989375000382
                },
                {
                    "name": "C2",
                    "midi": 36,
                    "time": 126.64273050000314,
                    "velocity": 0.3858267716535433,
                    "duration": 0.10624989375000382
                },
                {
                    "name": "G2",
                    "midi": 43,
                    "time": 126.74987325000315,
                    "velocity": 0.3858267716535433,
                    "duration": 0.10624989375000382
                },
                {
                    "name": "C2",
                    "midi": 36,
                    "time": 126.85701600000316,
                    "velocity": 0.5826771653543307,
                    "duration": 0.10624989375000382
                },
                {
                    "name": "G2",
                    "midi": 43,
                    "time": 126.96415875000316,
                    "velocity": 0.4409448818897638,
                    "duration": 0.10624989375000382
                },
                {
                    "name": "B2",
                    "midi": 47,
                    "time": 127.07130150000317,
                    "velocity": 0.4409448818897638,
                    "duration": 0.10624989375000382
                },
                {
                    "name": "C3",
                    "midi": 48,
                    "time": 127.17844425000318,
                    "velocity": 0.41732283464566927,
                    "duration": 0.10624989375000382
                },
                {
                    "name": "G3",
                    "midi": 55,
                    "time": 127.28558700000319,
                    "velocity": 0.5196850393700787,
                    "duration": 0.10624989375000382
                },
                {
                    "name": "B3",
                    "midi": 59,
                    "time": 127.3927297500032,
                    "velocity": 0.41732283464566927,
                    "duration": 0.10624989375000382
                },
                {
                    "name": "C4",
                    "midi": 60,
                    "time": 127.4998725000032,
                    "velocity": 0.41732283464566927,
                    "duration": 0.10624989375000382
                },
                {
                    "name": "G4",
                    "midi": 67,
                    "time": 127.60701525000322,
                    "velocity": 0.41732283464566927,
                    "duration": 0.10624989375000382
                },
                {
                    "name": "B4",
                    "midi": 71,
                    "time": 127.71415800000322,
                    "velocity": 0.5669291338582677,
                    "duration": 0.10624989375000382
                },
                {
                    "name": "C5",
                    "midi": 72,
                    "time": 127.82130075000323,
                    "velocity": 0.41732283464566927,
                    "duration": 0.10624989375000382
                },
                {
                    "name": "G5",
                    "midi": 79,
                    "time": 127.92844350000324,
                    "velocity": 0.41732283464566927,
                    "duration": 0.10624989374998961
                },
                {
                    "name": "B5",
                    "midi": 83,
                    "time": 128.03558625000323,
                    "velocity": 0.41732283464566927,
                    "duration": 0.10624989375000382
                },
                {
                    "name": "G5",
                    "midi": 79,
                    "time": 128.14272900000324,
                    "velocity": 0.5275590551181102,
                    "duration": 0.10624989375000382
                },
                {
                    "name": "C5",
                    "midi": 72,
                    "time": 128.24987175000325,
                    "velocity": 0.41732283464566927,
                    "duration": 0.10624989375000382
                },
                {
                    "name": "B4",
                    "midi": 71,
                    "time": 128.35701450000326,
                    "velocity": 0.41732283464566927,
                    "duration": 0.10624989375000382
                },
                {
                    "name": "G4",
                    "midi": 67,
                    "time": 128.46415725000327,
                    "velocity": 0.41732283464566927,
                    "duration": 0.10624989375000382
                },
                {
                    "name": "C4",
                    "midi": 60,
                    "time": 128.57130000000328,
                    "velocity": 0.5433070866141733,
                    "duration": 0.10624989375000382
                },
                {
                    "name": "B3",
                    "midi": 59,
                    "time": 128.67844275000328,
                    "velocity": 0.4094488188976378,
                    "duration": 0.10624989375000382
                },
                {
                    "name": "G3",
                    "midi": 55,
                    "time": 128.7855855000033,
                    "velocity": 0.4094488188976378,
                    "duration": 0.10624989375000382
                },
                {
                    "name": "C3",
                    "midi": 48,
                    "time": 128.8927282500033,
                    "velocity": 0.4094488188976378,
                    "duration": 0.10624989375000382
                },
                {
                    "name": "B2",
                    "midi": 47,
                    "time": 128.9998710000033,
                    "velocity": 0.48031496062992124,
                    "duration": 0.10624989375000382
                },
                {
                    "name": "G2",
                    "midi": 43,
                    "time": 129.10701375000332,
                    "velocity": 0.3937007874015748,
                    "duration": 0.10624989375000382
                },
                {
                    "name": "C2",
                    "midi": 36,
                    "time": 129.21415650000333,
                    "velocity": 0.3937007874015748,
                    "duration": 0.10624989375000382
                },
                {
                    "name": "G2",
                    "midi": 43,
                    "time": 129.32129925000334,
                    "velocity": 0.3937007874015748,
                    "duration": 0.10624989375000382
                },
                {
                    "name": "A2",
                    "midi": 45,
                    "time": 129.42844200000334,
                    "velocity": 0.4645669291338583,
                    "duration": 0.10624989375000382
                },
                {
                    "name": "F2",
                    "midi": 41,
                    "time": 129.53558475000335,
                    "velocity": 0.3937007874015748,
                    "duration": 0.10624989375000382
                },
                {
                    "name": "C2",
                    "midi": 36,
                    "time": 129.64272750000336,
                    "velocity": 0.3937007874015748,
                    "duration": 0.10624989375000382
                },
                {
                    "name": "F2",
                    "midi": 41,
                    "time": 129.74987025000337,
                    "velocity": 0.3937007874015748,
                    "duration": 0.10624989375000382
                },
                {
                    "name": "A2",
                    "midi": 45,
                    "time": 129.85701300000338,
                    "velocity": 0.4409448818897638,
                    "duration": 0.10624989375000382
                },
                {
                    "name": "F2",
                    "midi": 41,
                    "time": 129.96415575000339,
                    "velocity": 0.3858267716535433,
                    "duration": 0.10624989375000382
                },
                {
                    "name": "C2",
                    "midi": 36,
                    "time": 130.0712985000034,
                    "velocity": 0.3858267716535433,
                    "duration": 0.10624989375000382
                },
                {
                    "name": "F2",
                    "midi": 41,
                    "time": 130.1784412500034,
                    "velocity": 0.3858267716535433,
                    "duration": 0.10624989375000382
                },
                {
                    "name": "C2",
                    "midi": 36,
                    "time": 130.2855840000034,
                    "velocity": 0.5433070866141733,
                    "duration": 0.10624989375000382
                },
                {
                    "name": "G#2",
                    "midi": 44,
                    "time": 130.39272675000342,
                    "velocity": 0.4330708661417323,
                    "duration": 0.10624989375000382
                },
                {
                    "name": "C3",
                    "midi": 48,
                    "time": 130.49986950000343,
                    "velocity": 0.4330708661417323,
                    "duration": 0.10624989375000382
                },
                {
                    "name": "C3",
                    "midi": 48,
                    "time": 130.60701225000344,
                    "velocity": 0.4330708661417323,
                    "duration": 0.10624989375000382
                },
                {
                    "name": "G#3",
                    "midi": 56,
                    "time": 130.71415500000344,
                    "velocity": 0.49606299212598426,
                    "duration": 0.10624989375000382
                },
                {
                    "name": "C4",
                    "midi": 60,
                    "time": 130.82129775000345,
                    "velocity": 0.41732283464566927,
                    "duration": 0.10624989375000382
                },
                {
                    "name": "C4",
                    "midi": 60,
                    "time": 130.92844050000346,
                    "velocity": 0.41732283464566927,
                    "duration": 0.10624989375000382
                },
                {
                    "name": "G#4",
                    "midi": 68,
                    "time": 131.03558325000347,
                    "velocity": 0.41732283464566927,
                    "duration": 0.10624989375000382
                },
                {
                    "name": "C5",
                    "midi": 72,
                    "time": 131.14272600000348,
                    "velocity": 0.5275590551181102,
                    "duration": 0.10624989375000382
                },
                {
                    "name": "C5",
                    "midi": 72,
                    "time": 131.2498687500035,
                    "velocity": 0.41732283464566927,
                    "duration": 0.10624989375000382
                },
                {
                    "name": "G#5",
                    "midi": 80,
                    "time": 131.3570115000035,
                    "velocity": 0.41732283464566927,
                    "duration": 0.10624989375000382
                },
                {
                    "name": "C6",
                    "midi": 84,
                    "time": 131.4641542500035,
                    "velocity": 0.41732283464566927,
                    "duration": 0.10624989375000382
                },
                {
                    "name": "G#5",
                    "midi": 80,
                    "time": 131.5712970000035,
                    "velocity": 0.5275590551181102,
                    "duration": 0.10624989375000382
                },
                {
                    "name": "C5",
                    "midi": 72,
                    "time": 131.67843975000352,
                    "velocity": 0.41732283464566927,
                    "duration": 0.10624989375000382
                },
                {
                    "name": "C5",
                    "midi": 72,
                    "time": 131.78558250000353,
                    "velocity": 0.41732283464566927,
                    "duration": 0.10624989375000382
                },
                {
                    "name": "G#4",
                    "midi": 68,
                    "time": 131.89272525000354,
                    "velocity": 0.41732283464566927,
                    "duration": 0.10624989375000382
                },
                {
                    "name": "C4",
                    "midi": 60,
                    "time": 131.99986800000354,
                    "velocity": 0.5433070866141733,
                    "duration": 0.10624989375000382
                },
                {
                    "name": "C4",
                    "midi": 60,
                    "time": 132.10701075000355,
                    "velocity": 0.4094488188976378,
                    "duration": 0.10624989375000382
                },
                {
                    "name": "G#3",
                    "midi": 56,
                    "time": 132.21415350000356,
                    "velocity": 0.4094488188976378,
                    "duration": 0.10624989375000382
                },
                {
                    "name": "C3",
                    "midi": 48,
                    "time": 132.32129625000357,
                    "velocity": 0.4094488188976378,
                    "duration": 0.10624989375000382
                },
                {
                    "name": "C3",
                    "midi": 48,
                    "time": 132.42843900000358,
                    "velocity": 0.48031496062992124,
                    "duration": 0.10624989375000382
                },
                {
                    "name": "G#2",
                    "midi": 44,
                    "time": 132.5355817500036,
                    "velocity": 0.3937007874015748,
                    "duration": 0.10624989375000382
                },
                {
                    "name": "C2",
                    "midi": 36,
                    "time": 132.6427245000036,
                    "velocity": 0.3937007874015748,
                    "duration": 0.10624989375000382
                },
                {
                    "name": "G#2",
                    "midi": 44,
                    "time": 132.7498672500036,
                    "velocity": 0.3937007874015748,
                    "duration": 0.10624989375000382
                },
                {
                    "name": "C2",
                    "midi": 36,
                    "time": 132.8570100000036,
                    "velocity": 0.4645669291338583,
                    "duration": 0.10624989375000382
                },
                {
                    "name": "G#2",
                    "midi": 44,
                    "time": 132.96415275000362,
                    "velocity": 0.3937007874015748,
                    "duration": 0.10624989375000382
                },
                {
                    "name": "C3",
                    "midi": 48,
                    "time": 133.07129550000363,
                    "velocity": 0.3937007874015748,
                    "duration": 0.10624989375000382
                },
                {
                    "name": "G#2",
                    "midi": 44,
                    "time": 133.17843825000364,
                    "velocity": 0.3937007874015748,
                    "duration": 0.10624989375000382
                },
                {
                    "name": "C2",
                    "midi": 36,
                    "time": 133.28558100000365,
                    "velocity": 0.4409448818897638,
                    "duration": 0.10624989375000382
                },
                {
                    "name": "G#2",
                    "midi": 44,
                    "time": 133.39272375000365,
                    "velocity": 0.3858267716535433,
                    "duration": 0.10624989375000382
                },
                {
                    "name": "C3",
                    "midi": 48,
                    "time": 133.49986650000366,
                    "velocity": 0.3858267716535433,
                    "duration": 0.10624989375000382
                },
                {
                    "name": "G#2",
                    "midi": 44,
                    "time": 133.60700925000367,
                    "velocity": 0.3858267716535433,
                    "duration": 0.10624989375000382
                },
                {
                    "name": "C2",
                    "midi": 36,
                    "time": 133.71415200000368,
                    "velocity": 0.5826771653543307,
                    "duration": 0.10624989375000382
                },
                {
                    "name": "G#2",
                    "midi": 44,
                    "time": 133.8212947500037,
                    "velocity": 0.4409448818897638,
                    "duration": 0.10624989375000382
                },
                {
                    "name": "C3",
                    "midi": 48,
                    "time": 133.9284375000037,
                    "velocity": 0.4409448818897638,
                    "duration": 0.10624989375000382
                },
                {
                    "name": "C3",
                    "midi": 48,
                    "time": 134.0355802500037,
                    "velocity": 0.41732283464566927,
                    "duration": 0.10624989375000382
                },
                {
                    "name": "G#3",
                    "midi": 56,
                    "time": 134.1427230000037,
                    "velocity": 0.5196850393700787,
                    "duration": 0.10624989375000382
                },
                {
                    "name": "C4",
                    "midi": 60,
                    "time": 134.24986575000372,
                    "velocity": 0.41732283464566927,
                    "duration": 0.10624989375000382
                },
                {
                    "name": "C4",
                    "midi": 60,
                    "time": 134.35700850000373,
                    "velocity": 0.41732283464566927,
                    "duration": 0.10624989375000382
                },
                {
                    "name": "G#4",
                    "midi": 68,
                    "time": 134.46415125000374,
                    "velocity": 0.41732283464566927,
                    "duration": 0.10624989375000382
                },
                {
                    "name": "C5",
                    "midi": 72,
                    "time": 134.57129400000375,
                    "velocity": 0.5669291338582677,
                    "duration": 0.10624989375000382
                },
                {
                    "name": "C5",
                    "midi": 72,
                    "time": 134.67843675000375,
                    "velocity": 0.41732283464566927,
                    "duration": 0.10624989375000382
                },
                {
                    "name": "G#5",
                    "midi": 80,
                    "time": 134.78557950000376,
                    "velocity": 0.41732283464566927,
                    "duration": 0.10624989375000382
                },
                {
                    "name": "C6",
                    "midi": 84,
                    "time": 134.89272225000377,
                    "velocity": 0.41732283464566927,
                    "duration": 0.10624989375000382
                },
                {
                    "name": "G#5",
                    "midi": 80,
                    "time": 134.99986500000378,
                    "velocity": 0.5275590551181102,
                    "duration": 0.10624989375000382
                },
                {
                    "name": "C5",
                    "midi": 72,
                    "time": 135.1070077500038,
                    "velocity": 0.41732283464566927,
                    "duration": 0.10624989375000382
                },
                {
                    "name": "C5",
                    "midi": 72,
                    "time": 135.2141505000038,
                    "velocity": 0.41732283464566927,
                    "duration": 0.10624989375000382
                },
                {
                    "name": "G#4",
                    "midi": 68,
                    "time": 135.3212932500038,
                    "velocity": 0.41732283464566927,
                    "duration": 0.10624989375000382
                },
                {
                    "name": "C4",
                    "midi": 60,
                    "time": 135.4284360000038,
                    "velocity": 0.5433070866141733,
                    "duration": 0.10624989375000382
                },
                {
                    "name": "C4",
                    "midi": 60,
                    "time": 135.53557875000382,
                    "velocity": 0.4094488188976378,
                    "duration": 0.10624989375000382
                },
                {
                    "name": "G#3",
                    "midi": 56,
                    "time": 135.64272150000383,
                    "velocity": 0.4094488188976378,
                    "duration": 0.10624989375000382
                },
                {
                    "name": "C3",
                    "midi": 48,
                    "time": 135.74986425000384,
                    "velocity": 0.4094488188976378,
                    "duration": 0.10624989375000382
                },
                {
                    "name": "C3",
                    "midi": 48,
                    "time": 135.85700700000385,
                    "velocity": 0.5669291338582677,
                    "duration": 0.10624989375000382
                },
                {
                    "name": "G#2",
                    "midi": 44,
                    "time": 135.96414975000386,
                    "velocity": 0.3937007874015748,
                    "duration": 0.10624989375000382
                },
                {
                    "name": "C2",
                    "midi": 36,
                    "time": 136.07129250000386,
                    "velocity": 0.3937007874015748,
                    "duration": 0.10624989375000382
                },
                {
                    "name": "G#2",
                    "midi": 44,
                    "time": 136.17843525000387,
                    "velocity": 0.3937007874015748,
                    "duration": 0.10624989375000382
                },
                {
                    "name": "C2",
                    "midi": 36,
                    "time": 136.28557800000388,
                    "velocity": 0.5433070866141733,
                    "duration": 0.10624989375000382
                },
                {
                    "name": "G#2",
                    "midi": 44,
                    "time": 136.3927207500039,
                    "velocity": 0.3937007874015748,
                    "duration": 0.10624989375000382
                },
                {
                    "name": "C3",
                    "midi": 48,
                    "time": 136.4998635000039,
                    "velocity": 0.3937007874015748,
                    "duration": 0.10624989375000382
                },
                {
                    "name": "G#2",
                    "midi": 44,
                    "time": 136.6070062500039,
                    "velocity": 0.3937007874015748,
                    "duration": 0.10624989375000382
                },
                {
                    "name": "C2",
                    "midi": 36,
                    "time": 136.7141490000039,
                    "velocity": 0.5590551181102362,
                    "duration": 0.10624989375000382
                },
                {
                    "name": "G#2",
                    "midi": 44,
                    "time": 136.82129175000392,
                    "velocity": 0.3858267716535433,
                    "duration": 0.10624989375000382
                },
                {
                    "name": "C3",
                    "midi": 48,
                    "time": 136.92843450000393,
                    "velocity": 0.3858267716535433,
                    "duration": 0.10624989375000382
                },
                {
                    "name": "G#2",
                    "midi": 44,
                    "time": 137.03557725000394,
                    "velocity": 0.3858267716535433,
                    "duration": 0.10624989375000382
                },
                {
                    "name": "C2",
                    "midi": 36,
                    "time": 137.14272000000395,
                    "velocity": 0.7952755905511811,
                    "duration": 0.10624989375000382
                },
                {
                    "name": "G2",
                    "midi": 43,
                    "time": 137.24986275000396,
                    "velocity": 0.44881889763779526,
                    "duration": 0.10624989375000382
                },
                {
                    "name": "C3",
                    "midi": 48,
                    "time": 137.35700550000396,
                    "velocity": 0.44881889763779526,
                    "duration": 0.10624989375000382
                },
                {
                    "name": "G2",
                    "midi": 43,
                    "time": 137.46414825000397,
                    "velocity": 0.44881889763779526,
                    "duration": 0.10624989375000382
                },
                {
                    "name": "G1",
                    "midi": 31,
                    "time": 137.57129100000398,
                    "velocity": 0.7559055118110236,
                    "duration": 0.10624989375000382
                },
                {
                    "name": "G2",
                    "midi": 43,
                    "time": 137.678433750004,
                    "velocity": 0.4330708661417323,
                    "duration": 0.10624989375000382
                },
                {
                    "name": "C3",
                    "midi": 48,
                    "time": 137.785576500004,
                    "velocity": 0.4330708661417323,
                    "duration": 0.10624989375000382
                },
                {
                    "name": "G2",
                    "midi": 43,
                    "time": 137.892719250004,
                    "velocity": 0.4330708661417323,
                    "duration": 0.10624989375000382
                },
                {
                    "name": "C2",
                    "midi": 36,
                    "time": 137.99986200000401,
                    "velocity": 0.8188976377952756,
                    "duration": 0.10624989375000382
                },
                {
                    "name": "G2",
                    "midi": 43,
                    "time": 138.10700475000402,
                    "velocity": 0.4251968503937008,
                    "duration": 0.10624989375000382
                },
                {
                    "name": "C3",
                    "midi": 48,
                    "time": 138.21414750000403,
                    "velocity": 0.44881889763779526,
                    "duration": 0.10624989375000382
                },
                {
                    "name": "G2",
                    "midi": 43,
                    "time": 138.32129025000404,
                    "velocity": 0.47244094488188976,
                    "duration": 0.10624989375000382
                },
                {
                    "name": "G1",
                    "midi": 31,
                    "time": 138.42843300000405,
                    "velocity": 0.7637795275590551,
                    "duration": 0.10624989375000382
                },
                {
                    "name": "G2",
                    "midi": 43,
                    "time": 138.53557575000406,
                    "velocity": 0.4645669291338583,
                    "duration": 0.10624989375000382
                },
                {
                    "name": "C3",
                    "midi": 48,
                    "time": 138.64271850000407,
                    "velocity": 0.4645669291338583,
                    "duration": 0.10624989375000382
                },
                {
                    "name": "G2",
                    "midi": 43,
                    "time": 138.74986125000407,
                    "velocity": 0.4645669291338583,
                    "duration": 0.10624989375000382
                },
                {
                    "name": "C2",
                    "midi": 36,
                    "time": 138.85700400000408,
                    "velocity": 0.84251968503937,
                    "duration": 0.10624989375000382
                },
                {
                    "name": "G2",
                    "midi": 43,
                    "time": 138.9641467500041,
                    "velocity": 0.5118110236220472,
                    "duration": 0.10624989375000382
                },
                {
                    "name": "C3",
                    "midi": 48,
                    "time": 139.0712895000041,
                    "velocity": 0.5118110236220472,
                    "duration": 0.10624989375000382
                },
                {
                    "name": "G2",
                    "midi": 43,
                    "time": 139.1784322500041,
                    "velocity": 0.5039370078740157,
                    "duration": 0.10624989375000382
                },
                {
                    "name": "G1",
                    "midi": 31,
                    "time": 139.28557500000412,
                    "velocity": 0.8188976377952756,
                    "duration": 0.10624989375000382
                },
                {
                    "name": "G2",
                    "midi": 43,
                    "time": 139.39271775000412,
                    "velocity": 0.4566929133858268,
                    "duration": 0.10624989375000382
                },
                {
                    "name": "C3",
                    "midi": 48,
                    "time": 139.49986050000413,
                    "velocity": 0.4566929133858268,
                    "duration": 0.10624989375000382
                },
                {
                    "name": "G2",
                    "midi": 43,
                    "time": 139.60700325000414,
                    "velocity": 0.4566929133858268,
                    "duration": 0.10624989375000382
                },
                {
                    "name": "C2",
                    "midi": 36,
                    "time": 139.71414600000415,
                    "velocity": 0.889763779527559,
                    "duration": 0.10624989375000382
                },
                {
                    "name": "G2",
                    "midi": 43,
                    "time": 139.82128875000416,
                    "velocity": 0.44881889763779526,
                    "duration": 0.10624989375000382
                },
                {
                    "name": "C3",
                    "midi": 48,
                    "time": 139.92843150000417,
                    "velocity": 0.44881889763779526,
                    "duration": 0.10624989375000382
                },
                {
                    "name": "G2",
                    "midi": 43,
                    "time": 140.03557425000417,
                    "velocity": 0.44881889763779526,
                    "duration": 0.10624989375000382
                },
                {
                    "name": "G1",
                    "midi": 31,
                    "time": 140.14271700000418,
                    "velocity": 0.8503937007874016,
                    "duration": 0.10624989375000382
                },
                {
                    "name": "G2",
                    "midi": 43,
                    "time": 140.2498597500042,
                    "velocity": 0.44881889763779526,
                    "duration": 0.10624989375000382
                },
                {
                    "name": "C3",
                    "midi": 48,
                    "time": 140.3570025000042,
                    "velocity": 0.44881889763779526,
                    "duration": 0.10624989375000382
                },
                {
                    "name": "G2",
                    "midi": 43,
                    "time": 140.4641452500042,
                    "velocity": 0.44881889763779526,
                    "duration": 0.10624989375000382
                },
                {
                    "name": "C1",
                    "midi": 24,
                    "time": 140.57128800000422,
                    "velocity": 0.7637795275590551,
                    "duration": 0.4285709999999767
                },
                {
                    "name": "C2",
                    "midi": 36,
                    "time": 140.57128800000422,
                    "velocity": 0.8740157480314961,
                    "duration": 0.4285709999999767
                },
                {
                    "name": "C3",
                    "midi": 48,
                    "time": 141.4284300000042,
                    "velocity": 0.5511811023622047,
                    "duration": 0.8571420000000103
                },
                {
                    "name": "G3",
                    "midi": 55,
                    "time": 141.4284300000042,
                    "velocity": 0.6062992125984252,
                    "duration": 0.8571420000000103
                },
                {
                    "name": "C4",
                    "midi": 60,
                    "time": 141.4284300000042,
                    "velocity": 0.6456692913385826,
                    "duration": 0.8571420000000103
                }
            ],
            "controlChanges": {
                "7": [
                    {
                        "number": 7,
                        "time": 0,
                        "value": 0.7874015748031497
                    }
                ],
                "10": [
                    {
                        "number": 10,
                        "time": 0,
                        "value": 0.5039370078740157
                    }
                ],
                "64": [
                    {
                        "number": 64,
                        "time": 0,
                        "value": 1
                    },
                    {
                        "number": 64,
                        "time": 1.7392839750000002,
                        "value": 0
                    },
                    {
                        "number": 64,
                        "time": 1.7901767812500002,
                        "value": 1
                    },
                    {
                        "number": 64,
                        "time": 3.4330322812499996,
                        "value": 0
                    },
                    {
                        "number": 64,
                        "time": 3.5169607687499997,
                        "value": 1
                    },
                    {
                        "number": 64,
                        "time": 5.147316281250004,
                        "value": 0
                    },
                    {
                        "number": 64,
                        "time": 5.212494787500003,
                        "value": 1
                    },
                    {
                        "number": 64,
                        "time": 6.8821359750000095,
                        "value": 0
                    },
                    {
                        "number": 64,
                        "time": 6.90713595000001,
                        "value": 1
                    },
                    {
                        "number": 64,
                        "time": 8.576777137500011,
                        "value": 0
                    },
                    {
                        "number": 64,
                        "time": 8.622312806250012,
                        "value": 1
                    },
                    {
                        "number": 64,
                        "time": 10.298203987500003,
                        "value": 0
                    },
                    {
                        "number": 64,
                        "time": 10.349989650000003,
                        "value": 1
                    },
                    {
                        "number": 64,
                        "time": 11.156238843749998,
                        "value": 0
                    },
                    {
                        "number": 64,
                        "time": 11.206238793749998,
                        "value": 1
                    },
                    {
                        "number": 64,
                        "time": 11.583916987499997,
                        "value": 0
                    },
                    {
                        "number": 64,
                        "time": 11.608916962499997,
                        "value": 1
                    },
                    {
                        "number": 64,
                        "time": 12.004452281249995,
                        "value": 0
                    },
                    {
                        "number": 64,
                        "time": 12.050880806249994,
                        "value": 1
                    },
                    {
                        "number": 64,
                        "time": 12.438380418749993,
                        "value": 0
                    },
                    {
                        "number": 64,
                        "time": 12.474094668749993,
                        "value": 1
                    },
                    {
                        "number": 64,
                        "time": 12.865165706249991,
                        "value": 0
                    },
                    {
                        "number": 64,
                        "time": 12.900879956249991,
                        "value": 1
                    },
                    {
                        "number": 64,
                        "time": 13.291950993749989,
                        "value": 0
                    },
                    {
                        "number": 64,
                        "time": 13.329450956249989,
                        "value": 1
                    },
                    {
                        "number": 64,
                        "time": 13.731236268749987,
                        "value": 0
                    },
                    {
                        "number": 64,
                        "time": 13.796414774999986,
                        "value": 1
                    },
                    {
                        "number": 64,
                        "time": 15.45355597499998,
                        "value": 0
                    },
                    {
                        "number": 64,
                        "time": 15.504448781249978,
                        "value": 1
                    },
                    {
                        "number": 64,
                        "time": 17.14641142499999,
                        "value": 0
                    },
                    {
                        "number": 64,
                        "time": 17.20623279374999,
                        "value": 1
                    },
                    {
                        "number": 64,
                        "time": 18.86248113750001,
                        "value": 0
                    },
                    {
                        "number": 64,
                        "time": 18.908016806250007,
                        "value": 1
                    },
                    {
                        "number": 64,
                        "time": 20.591050837500028,
                        "value": 0
                    },
                    {
                        "number": 64,
                        "time": 20.63212222500003,
                        "value": 1
                    },
                    {
                        "number": 64,
                        "time": 22.307120550000047,
                        "value": 0
                    },
                    {
                        "number": 64,
                        "time": 22.346406225000045,
                        "value": 1
                    },
                    {
                        "number": 64,
                        "time": 24.009797418750065,
                        "value": 0
                    },
                    {
                        "number": 64,
                        "time": 24.056225943750064,
                        "value": 1
                    },
                    {
                        "number": 64,
                        "time": 25.716045712500083,
                        "value": 0
                    },
                    {
                        "number": 64,
                        "time": 25.750867106250084,
                        "value": 1
                    },
                    {
                        "number": 64,
                        "time": 26.588366268750097,
                        "value": 0
                    },
                    {
                        "number": 64,
                        "time": 26.648187637500097,
                        "value": 1
                    },
                    {
                        "number": 64,
                        "time": 27.015151556250103,
                        "value": 0
                    },
                    {
                        "number": 64,
                        "time": 27.066044362500104,
                        "value": 1
                    },
                    {
                        "number": 64,
                        "time": 27.44729398125011,
                        "value": 0
                    },
                    {
                        "number": 64,
                        "time": 27.48479394375011,
                        "value": 1
                    },
                    {
                        "number": 64,
                        "time": 29.14282800000013,
                        "value": 0
                    },
                    {
                        "number": 64,
                        "time": 29.17943510625013,
                        "value": 1
                    },
                    {
                        "number": 64,
                        "time": 30.01693426875014,
                        "value": 0
                    },
                    {
                        "number": 64,
                        "time": 30.076755637500142,
                        "value": 1
                    },
                    {
                        "number": 64,
                        "time": 30.44104098750015,
                        "value": 0
                    },
                    {
                        "number": 64,
                        "time": 30.49461236250015,
                        "value": 1
                    },
                    {
                        "number": 64,
                        "time": 30.871397700000152,
                        "value": 0
                    },
                    {
                        "number": 64,
                        "time": 30.938361918750154,
                        "value": 1
                    },
                    {
                        "number": 64,
                        "time": 32.57318171250014,
                        "value": 0
                    },
                    {
                        "number": 64,
                        "time": 32.60800310625014,
                        "value": 1
                    },
                    {
                        "number": 64,
                        "time": 33.4455022687501,
                        "value": 0
                    },
                    {
                        "number": 64,
                        "time": 33.5053236375001,
                        "value": 1
                    },
                    {
                        "number": 64,
                        "time": 33.86960898750008,
                        "value": 0
                    },
                    {
                        "number": 64,
                        "time": 33.92318036250008,
                        "value": 1
                    },
                    {
                        "number": 64,
                        "time": 34.28746571250006,
                        "value": 0
                    },
                    {
                        "number": 64,
                        "time": 34.341037087500055,
                        "value": 1
                    },
                    {
                        "number": 64,
                        "time": 36.00799970624996,
                        "value": 0
                    },
                    {
                        "number": 64,
                        "time": 36.06067822499996,
                        "value": 1
                    },
                    {
                        "number": 64,
                        "time": 37.720497993749866,
                        "value": 0
                    },
                    {
                        "number": 64,
                        "time": 37.771390799999864,
                        "value": 1
                    },
                    {
                        "number": 64,
                        "time": 39.431210568749776,
                        "value": 0
                    },
                    {
                        "number": 64,
                        "time": 39.48031766249978,
                        "value": 1
                    },
                    {
                        "number": 64,
                        "time": 40.30085255624974,
                        "value": 0
                    },
                    {
                        "number": 64,
                        "time": 40.366923918749734,
                        "value": 1
                    },
                    {
                        "number": 64,
                        "time": 40.724066418749715,
                        "value": 0
                    },
                    {
                        "number": 64,
                        "time": 40.76513780624971,
                        "value": 1
                    },
                    {
                        "number": 64,
                        "time": 41.14281599999969,
                        "value": 0
                    },
                    {
                        "number": 64,
                        "time": 41.201744512499694,
                        "value": 1
                    },
                    {
                        "number": 64,
                        "time": 42.874064268749606,
                        "value": 0
                    },
                    {
                        "number": 64,
                        "time": 42.964242749999606,
                        "value": 1
                    },
                    {
                        "number": 64,
                        "time": 43.729420556249565,
                        "value": 0
                    },
                    {
                        "number": 64,
                        "time": 43.79549191874956,
                        "value": 1
                    },
                    {
                        "number": 64,
                        "time": 44.15263441874954,
                        "value": 0
                    },
                    {
                        "number": 64,
                        "time": 44.19370580624954,
                        "value": 1
                    },
                    {
                        "number": 64,
                        "time": 44.57316971249952,
                        "value": 0
                    },
                    {
                        "number": 64,
                        "time": 44.62763394374952,
                        "value": 1
                    },
                    {
                        "number": 64,
                        "time": 46.292810849999434,
                        "value": 0
                    },
                    {
                        "number": 64,
                        "time": 46.341917943749436,
                        "value": 1
                    },
                    {
                        "number": 64,
                        "time": 47.15798855624939,
                        "value": 0
                    },
                    {
                        "number": 64,
                        "time": 47.22405991874939,
                        "value": 1
                    },
                    {
                        "number": 64,
                        "time": 47.58120241874937,
                        "value": 0
                    },
                    {
                        "number": 64,
                        "time": 47.62227380624937,
                        "value": 1
                    },
                    {
                        "number": 64,
                        "time": 48.01870198124934,
                        "value": 0
                    },
                    {
                        "number": 64,
                        "time": 48.045487668749345,
                        "value": 1
                    },
                    {
                        "number": 64,
                        "time": 49.721378849999255,
                        "value": 0
                    },
                    {
                        "number": 64,
                        "time": 49.77048594374926,
                        "value": 1
                    },
                    {
                        "number": 64,
                        "time": 50.586556556249214,
                        "value": 0
                    },
                    {
                        "number": 64,
                        "time": 50.65262791874921,
                        "value": 1
                    },
                    {
                        "number": 64,
                        "time": 51.447269981249164,
                        "value": 0
                    },
                    {
                        "number": 64,
                        "time": 51.49012708124916,
                        "value": 1
                    },
                    {
                        "number": 64,
                        "time": 53.167803974999075,
                        "value": 0
                    },
                    {
                        "number": 64,
                        "time": 53.212446787499076,
                        "value": 1
                    },
                    {
                        "number": 64,
                        "time": 54.86958798749899,
                        "value": 0
                    },
                    {
                        "number": 64,
                        "time": 54.91869508124899,
                        "value": 1
                    },
                    {
                        "number": 64,
                        "time": 56.5865505562489,
                        "value": 0
                    },
                    {
                        "number": 64,
                        "time": 56.6276219437489,
                        "value": 1
                    },
                    {
                        "number": 64,
                        "time": 58.30083455624881,
                        "value": 0
                    },
                    {
                        "number": 64,
                        "time": 58.33119166874881,
                        "value": 1
                    },
                    {
                        "number": 64,
                        "time": 60.023154262498714,
                        "value": 0
                    },
                    {
                        "number": 64,
                        "time": 60.05708279999872,
                        "value": 1
                    },
                    {
                        "number": 64,
                        "time": 61.72850969999863,
                        "value": 0
                    },
                    {
                        "number": 64,
                        "time": 61.78565249999863,
                        "value": 1
                    },
                    {
                        "number": 64,
                        "time": 63.441007987498544,
                        "value": 0
                    },
                    {
                        "number": 64,
                        "time": 63.485650799998545,
                        "value": 1
                    },
                    {
                        "number": 64,
                        "time": 65.1526134187486,
                        "value": 0
                    },
                    {
                        "number": 64,
                        "time": 65.1990419437486,
                        "value": 1
                    },
                    {
                        "number": 64,
                        "time": 66.86957598749872,
                        "value": 0
                    },
                    {
                        "number": 64,
                        "time": 66.90707594999871,
                        "value": 1
                    },
                    {
                        "number": 64,
                        "time": 68.59010998124884,
                        "value": 0
                    },
                    {
                        "number": 64,
                        "time": 68.62850279999884,
                        "value": 1
                    },
                    {
                        "number": 64,
                        "time": 70.29100113749897,
                        "value": 0
                    },
                    {
                        "number": 64,
                        "time": 70.34725108124897,
                        "value": 1
                    },
                    {
                        "number": 64,
                        "time": 72.01510655624911,
                        "value": 0
                    },
                    {
                        "number": 64,
                        "time": 72.04546366874911,
                        "value": 1
                    },
                    {
                        "number": 64,
                        "time": 73.72939055624924,
                        "value": 0
                    },
                    {
                        "number": 64,
                        "time": 73.76510480624924,
                        "value": 1
                    },
                    {
                        "number": 64,
                        "time": 75.44367455624938,
                        "value": 0
                    },
                    {
                        "number": 64,
                        "time": 75.49992449999938,
                        "value": 1
                    },
                    {
                        "number": 64,
                        "time": 76.29813798749943,
                        "value": 0
                    },
                    {
                        "number": 64,
                        "time": 76.34724508124943,
                        "value": 1
                    },
                    {
                        "number": 64,
                        "time": 77.14724428124948,
                        "value": 0
                    },
                    {
                        "number": 64,
                        "time": 77.18652995624949,
                        "value": 1
                    },
                    {
                        "number": 64,
                        "time": 78.01242198749954,
                        "value": 0
                    },
                    {
                        "number": 64,
                        "time": 78.06152908124953,
                        "value": 1
                    },
                    {
                        "number": 64,
                        "time": 78.43831441874956,
                        "value": 0
                    },
                    {
                        "number": 64,
                        "time": 78.47402866874955,
                        "value": 1
                    },
                    {
                        "number": 64,
                        "time": 78.86331399374959,
                        "value": 0
                    },
                    {
                        "number": 64,
                        "time": 78.92670678749958,
                        "value": 1
                    },
                    {
                        "number": 64,
                        "time": 80.58741941249971,
                        "value": 0
                    },
                    {
                        "number": 64,
                        "time": 80.61509795624971,
                        "value": 1
                    },
                    {
                        "number": 64,
                        "time": 82.30170341249983,
                        "value": 0
                    },
                    {
                        "number": 64,
                        "time": 82.34456051249984,
                        "value": 1
                    },
                    {
                        "number": 64,
                        "time": 84.00616599374997,
                        "value": 0
                    },
                    {
                        "number": 64,
                        "time": 84.05705879999998,
                        "value": 1
                    },
                    {
                        "number": 64,
                        "time": 85.7302714125001,
                        "value": 0
                    },
                    {
                        "number": 64,
                        "time": 85.77580708125011,
                        "value": 1
                    },
                    {
                        "number": 64,
                        "time": 87.43830541875023,
                        "value": 0
                    },
                    {
                        "number": 64,
                        "time": 87.47401966875023,
                        "value": 1
                    },
                    {
                        "number": 64,
                        "time": 89.15526798750035,
                        "value": 0
                    },
                    {
                        "number": 64,
                        "time": 89.19991080000035,
                        "value": 1
                    },
                    {
                        "number": 64,
                        "time": 90.01330284375041,
                        "value": 0
                    },
                    {
                        "number": 64,
                        "time": 90.06330279375041,
                        "value": 1
                    },
                    {
                        "number": 64,
                        "time": 90.44098098750044,
                        "value": 0
                    },
                    {
                        "number": 64,
                        "time": 90.46598096250044,
                        "value": 1
                    },
                    {
                        "number": 64,
                        "time": 90.85883771250046,
                        "value": 0
                    },
                    {
                        "number": 64,
                        "time": 90.90794480625046,
                        "value": 1
                    },
                    {
                        "number": 64,
                        "time": 91.29544441875048,
                        "value": 0
                    },
                    {
                        "number": 64,
                        "time": 91.33115866875048,
                        "value": 1
                    },
                    {
                        "number": 64,
                        "time": 91.7231225625005,
                        "value": 0
                    },
                    {
                        "number": 64,
                        "time": 91.7641939500005,
                        "value": 1
                    },
                    {
                        "number": 64,
                        "time": 92.15080070625054,
                        "value": 0
                    },
                    {
                        "number": 64,
                        "time": 92.19276495000054,
                        "value": 1
                    },
                    {
                        "number": 64,
                        "time": 92.58919312500058,
                        "value": 0
                    },
                    {
                        "number": 64,
                        "time": 92.63115736875058,
                        "value": 1
                    },
                    {
                        "number": 64,
                        "time": 94.3070485500007,
                        "value": 0
                    },
                    {
                        "number": 64,
                        "time": 94.3445485125007,
                        "value": 1
                    },
                    {
                        "number": 64,
                        "time": 96.02043969375083,
                        "value": 0
                    },
                    {
                        "number": 64,
                        "time": 96.05079680625083,
                        "value": 1
                    },
                    {
                        "number": 64,
                        "time": 97.73740226250095,
                        "value": 0
                    },
                    {
                        "number": 64,
                        "time": 97.75525938750096,
                        "value": 1
                    },
                    {
                        "number": 64,
                        "time": 99.4481148375011,
                        "value": 0
                    },
                    {
                        "number": 64,
                        "time": 99.4900790812511,
                        "value": 1
                    },
                    {
                        "number": 64,
                        "time": 101.16150598125122,
                        "value": 0
                    },
                    {
                        "number": 64,
                        "time": 101.18829166875122,
                        "value": 1
                    },
                    {
                        "number": 64,
                        "time": 102.87489712500135,
                        "value": 0
                    },
                    {
                        "number": 64,
                        "time": 102.91596851250135,
                        "value": 1
                    },
                    {
                        "number": 64,
                        "time": 104.59275255000146,
                        "value": 0
                    },
                    {
                        "number": 64,
                        "time": 104.63382393750146,
                        "value": 1
                    },
                    {
                        "number": 64,
                        "time": 106.3034651250016,
                        "value": 0
                    },
                    {
                        "number": 64,
                        "time": 106.3427508000016,
                        "value": 1
                    },
                    {
                        "number": 64,
                        "time": 108.02221340625172,
                        "value": 0
                    },
                    {
                        "number": 64,
                        "time": 108.04096338750172,
                        "value": 1
                    },
                    {
                        "number": 64,
                        "time": 109.73381883750186,
                        "value": 0
                    },
                    {
                        "number": 64,
                        "time": 109.78381878750186,
                        "value": 1
                    },
                    {
                        "number": 64,
                        "time": 111.44810283750198,
                        "value": 0
                    },
                    {
                        "number": 64,
                        "time": 111.50435278125198,
                        "value": 1
                    },
                    {
                        "number": 64,
                        "time": 113.16238683750211,
                        "value": 0
                    },
                    {
                        "number": 64,
                        "time": 113.21863678125212,
                        "value": 1
                    },
                    {
                        "number": 64,
                        "time": 114.87577798125224,
                        "value": 0
                    },
                    {
                        "number": 64,
                        "time": 114.90702795000225,
                        "value": 1
                    },
                    {
                        "number": 64,
                        "time": 116.58916912500239,
                        "value": 0
                    },
                    {
                        "number": 64,
                        "time": 116.63291908125238,
                        "value": 1
                    },
                    {
                        "number": 64,
                        "time": 118.30613169375252,
                        "value": 0
                    },
                    {
                        "number": 64,
                        "time": 118.34720308125252,
                        "value": 1
                    },
                    {
                        "number": 64,
                        "time": 120.01952283750265,
                        "value": 0
                    },
                    {
                        "number": 64,
                        "time": 120.05880851250265,
                        "value": 1
                    },
                    {
                        "number": 64,
                        "time": 122.58648455625286,
                        "value": 0
                    },
                    {
                        "number": 64,
                        "time": 122.65255591875285,
                        "value": 1
                    },
                    {
                        "number": 64,
                        "time": 123.00969841875288,
                        "value": 0
                    },
                    {
                        "number": 64,
                        "time": 123.05076980625287,
                        "value": 1
                    },
                    {
                        "number": 64,
                        "time": 123.4445194125029,
                        "value": 0
                    },
                    {
                        "number": 64,
                        "time": 123.4641622500029,
                        "value": 1
                    },
                    {
                        "number": 64,
                        "time": 126.01505255625311,
                        "value": 0
                    },
                    {
                        "number": 64,
                        "time": 126.08112391875311,
                        "value": 1
                    },
                    {
                        "number": 64,
                        "time": 126.43826641875313,
                        "value": 0
                    },
                    {
                        "number": 64,
                        "time": 126.47933780625313,
                        "value": 1
                    },
                    {
                        "number": 64,
                        "time": 126.87308741250315,
                        "value": 0
                    },
                    {
                        "number": 64,
                        "time": 126.89808738750315,
                        "value": 1
                    },
                    {
                        "number": 64,
                        "time": 129.43826341875334,
                        "value": 0
                    },
                    {
                        "number": 64,
                        "time": 129.47933480625335,
                        "value": 1
                    },
                    {
                        "number": 64,
                        "time": 129.86683441875337,
                        "value": 0
                    },
                    {
                        "number": 64,
                        "time": 129.90790580625338,
                        "value": 1
                    },
                    {
                        "number": 64,
                        "time": 130.3016554125034,
                        "value": 0
                    },
                    {
                        "number": 64,
                        "time": 130.3614767812534,
                        "value": 1
                    },
                    {
                        "number": 64,
                        "time": 132.8730814125036,
                        "value": 0
                    },
                    {
                        "number": 64,
                        "time": 132.9391527750036,
                        "value": 1
                    },
                    {
                        "number": 64,
                        "time": 133.29540241875364,
                        "value": 0
                    },
                    {
                        "number": 64,
                        "time": 133.33647380625365,
                        "value": 1
                    },
                    {
                        "number": 64,
                        "time": 133.73200912500369,
                        "value": 0
                    },
                    {
                        "number": 64,
                        "time": 133.75790195625368,
                        "value": 1
                    },
                    {
                        "number": 64,
                        "time": 136.2927208500039,
                        "value": 0
                    },
                    {
                        "number": 64,
                        "time": 136.33557795000388,
                        "value": 1
                    },
                    {
                        "number": 64,
                        "time": 136.7239704187539,
                        "value": 0
                    },
                    {
                        "number": 64,
                        "time": 136.76504180625392,
                        "value": 1
                    },
                    {
                        "number": 64,
                        "time": 137.15521998750395,
                        "value": 0
                    },
                    {
                        "number": 64,
                        "time": 137.21950563750394,
                        "value": 1
                    },
                    {
                        "number": 64,
                        "time": 140.6462879250042,
                        "value": 0
                    },
                    {
                        "number": 64,
                        "time": 140.9793233062542,
                        "value": 1
                    },
                    {
                        "number": 64,
                        "time": 143.9998560000042,
                        "value": 0
                    }
                ]
            },
            "id": 2,
            "name": "Piano left",
            "instrumentNumber": 1,
            "instrument": "bright acoustic piano",
            "instrumentFamily": "piano",
            "channelNumber": 0,
            "isPercussion": false
        },
        {
            "startTime": 0,
            "duration": 0,
            "length": 0,
            "notes": [],
            "controlChanges": {},
            "id": 3,
            "name": "Chopin: Etude No.12 in C Minor Op. 25"
        },
        {
            "startTime": 0,
            "duration": 0,
            "length": 0,
            "notes": [],
            "controlChanges": {},
            "id": 4,
            "name": "Copyright  2003 by Bernd Krueger"
        },
        {
            "startTime": 0,
            "duration": 0,
            "length": 0,
            "notes": [],
            "controlChanges": {},
            "id": 5,
            "name": "http://www.piano-midi.de"
        },
        {
            "startTime": 0,
            "duration": 0,
            "length": 0,
            "notes": [],
            "controlChanges": {},
            "id": 6,
            "name": "Edition: 31.3.2003"
        },
        {
            "startTime": 0,
            "duration": 0,
            "length": 0,
            "notes": [],
            "controlChanges": {},
            "id": 7,
            "name": "Spur 7"
        }
    ]
}