{
    "header": {
        "PPQ": 480,
        "timeSignature": [
            4,
            4
        ],
        "bpm": 160.49990370005779,
        "name": "Chopin Prelude  No. 3, Opus 28"
    },
    "startTime": 0,
    "duration": 49.345823999999865,
    "tracks": [
        {
            "startTime": 0,
            "duration": 0,
            "length": 0,
            "notes": [],
            "controlChanges": {},
            "id": 0,
            "name": "Chopin Prelude  No. 3, Opus 28"
        },
        {
            "startTime": 2.990656,
            "duration": 49.345823999999865,
            "length": 160,
            "notes": [
                {
                    "name": "D4",
                    "midi": 62,
                    "time": 2.990656,
                    "velocity": 0.6062992125984252,
                    "duration": 0.5607479999999998
                },
                {
                    "name": "B4",
                    "midi": 71,
                    "time": 3.73832,
                    "velocity": 0.6062992125984252,
                    "duration": 0.5607480000000002
                },
                {
                    "name": "G4",
                    "midi": 67,
                    "time": 3.73832,
                    "velocity": 0.5433070866141733,
                    "duration": 0.5607480000000002
                },
                {
                    "name": "C5",
                    "midi": 72,
                    "time": 4.392526,
                    "velocity": 0.5196850393700787,
                    "duration": 0.09345800000000004
                },
                {
                    "name": "E5",
                    "midi": 76,
                    "time": 4.392526,
                    "velocity": 0.5826771653543307,
                    "duration": 0.09345800000000004
                },
                {
                    "name": "B4",
                    "midi": 71,
                    "time": 4.485984,
                    "velocity": 0.5748031496062992,
                    "duration": 1.1214960000000005
                },
                {
                    "name": "D5",
                    "midi": 74,
                    "time": 4.485984,
                    "velocity": 0.6456692913385826,
                    "duration": 1.1214960000000005
                },
                {
                    "name": "E5",
                    "midi": 76,
                    "time": 5.887854000000001,
                    "velocity": 0.6141732283464567,
                    "duration": 0.09345800000000004
                },
                {
                    "name": "C6",
                    "midi": 84,
                    "time": 5.887854000000001,
                    "velocity": 0.7244094488188977,
                    "duration": 0.09345800000000004
                },
                {
                    "name": "D5",
                    "midi": 74,
                    "time": 5.981312000000001,
                    "velocity": 0.5826771653543307,
                    "duration": 1.4953279999999998
                },
                {
                    "name": "B5",
                    "midi": 83,
                    "time": 5.981312000000001,
                    "velocity": 0.7007874015748031,
                    "duration": 1.4953279999999998
                },
                {
                    "name": "G5",
                    "midi": 79,
                    "time": 7.476640000000001,
                    "velocity": 0.5826771653543307,
                    "duration": 0.7476639999999994
                },
                {
                    "name": "B4",
                    "midi": 71,
                    "time": 7.476640000000001,
                    "velocity": 0.4881889763779528,
                    "duration": 0.7476639999999994
                },
                {
                    "name": "G4",
                    "midi": 67,
                    "time": 8.971968,
                    "velocity": 0.41732283464566927,
                    "duration": 1.4953279999999989
                },
                {
                    "name": "A4",
                    "midi": 69,
                    "time": 8.971968,
                    "velocity": 0.41732283464566927,
                    "duration": 1.4953279999999989
                },
                {
                    "name": "C#5",
                    "midi": 73,
                    "time": 8.971968,
                    "velocity": 0.48031496062992124,
                    "duration": 1.4953279999999989
                },
                {
                    "name": "F#5",
                    "midi": 78,
                    "time": 8.971968,
                    "velocity": 0.6062992125984252,
                    "duration": 1.4018700000000006
                },
                {
                    "name": "E5",
                    "midi": 76,
                    "time": 10.373838000000001,
                    "velocity": 0.5275590551181102,
                    "duration": 0.04672899999999913
                },
                {
                    "name": "F#4",
                    "midi": 66,
                    "time": 10.420567,
                    "velocity": 0.4330708661417323,
                    "duration": 0.4205609999999993
                },
                {
                    "name": "D5",
                    "midi": 74,
                    "time": 10.4439315,
                    "velocity": 0.47244094488188976,
                    "duration": 0.39719649999999973
                },
                {
                    "name": "A5",
                    "midi": 81,
                    "time": 10.467296,
                    "velocity": 0.5433070866141733,
                    "duration": 0.7476640000000003
                },
                {
                    "name": "A4",
                    "midi": 69,
                    "time": 11.962624,
                    "velocity": 0.4330708661417323,
                    "duration": 1.4953279999999989
                },
                {
                    "name": "C#5",
                    "midi": 73,
                    "time": 11.962624,
                    "velocity": 0.4330708661417323,
                    "duration": 1.4953279999999989
                },
                {
                    "name": "G4",
                    "midi": 67,
                    "time": 11.962624,
                    "velocity": 0.4330708661417323,
                    "duration": 1.4953279999999989
                },
                {
                    "name": "F#5",
                    "midi": 78,
                    "time": 11.962624,
                    "velocity": 0.5433070866141733,
                    "duration": 1.4018700000000006
                },
                {
                    "name": "E5",
                    "midi": 76,
                    "time": 13.364494,
                    "velocity": 0.47244094488188976,
                    "duration": 0.04672899999999913
                },
                {
                    "name": "F#4",
                    "midi": 66,
                    "time": 13.411223,
                    "velocity": 0.3858267716535433,
                    "duration": 0.4205609999999993
                },
                {
                    "name": "C5",
                    "midi": 72,
                    "time": 13.4345875,
                    "velocity": 0.4409448818897638,
                    "duration": 0.39719649999999973
                },
                {
                    "name": "A5",
                    "midi": 81,
                    "time": 13.457951999999999,
                    "velocity": 0.5669291338582677,
                    "duration": 0.7476640000000003
                },
                {
                    "name": "A5",
                    "midi": 81,
                    "time": 15.607486,
                    "velocity": 0.4330708661417323,
                    "duration": 0.09345800000000004
                },
                {
                    "name": "C6",
                    "midi": 84,
                    "time": 15.607486,
                    "velocity": 0.5196850393700787,
                    "duration": 0.09345800000000004
                },
                {
                    "name": "E5",
                    "midi": 76,
                    "time": 15.700944,
                    "velocity": 0.5511811023622047,
                    "duration": 0.5607480000000002
                },
                {
                    "name": "C5",
                    "midi": 72,
                    "time": 15.700944,
                    "velocity": 0.4566929133858268,
                    "duration": 0.5607480000000002
                },
                {
                    "name": "C5",
                    "midi": 72,
                    "time": 16.35515,
                    "velocity": 0.4330708661417323,
                    "duration": 0.09345799999999826
                },
                {
                    "name": "D5",
                    "midi": 74,
                    "time": 16.35515,
                    "velocity": 0.5196850393700787,
                    "duration": 0.09345799999999826
                },
                {
                    "name": "D4",
                    "midi": 62,
                    "time": 16.448607999999997,
                    "velocity": 0.6062992125984252,
                    "duration": 0.5607480000000002
                },
                {
                    "name": "B4",
                    "midi": 71,
                    "time": 17.196271999999997,
                    "velocity": 0.6062992125984252,
                    "duration": 0.5607480000000002
                },
                {
                    "name": "G4",
                    "midi": 67,
                    "time": 17.196271999999997,
                    "velocity": 0.5433070866141733,
                    "duration": 0.5607480000000002
                },
                {
                    "name": "C5",
                    "midi": 72,
                    "time": 17.850477999999995,
                    "velocity": 0.5196850393700787,
                    "duration": 0.09345799999999826
                },
                {
                    "name": "E5",
                    "midi": 76,
                    "time": 17.850477999999995,
                    "velocity": 0.5826771653543307,
                    "duration": 0.09345799999999826
                },
                {
                    "name": "B4",
                    "midi": 71,
                    "time": 17.943935999999994,
                    "velocity": 0.5748031496062992,
                    "duration": 1.1214960000000005
                },
                {
                    "name": "D5",
                    "midi": 74,
                    "time": 17.943935999999994,
                    "velocity": 0.6456692913385826,
                    "duration": 1.1214960000000005
                },
                {
                    "name": "E5",
                    "midi": 76,
                    "time": 19.345805999999993,
                    "velocity": 0.6377952755905512,
                    "duration": 0.09345799999999826
                },
                {
                    "name": "C6",
                    "midi": 84,
                    "time": 19.345805999999993,
                    "velocity": 0.7559055118110236,
                    "duration": 0.09345799999999826
                },
                {
                    "name": "D5",
                    "midi": 74,
                    "time": 19.43926399999999,
                    "velocity": 0.5826771653543307,
                    "duration": 1.4953280000000007
                },
                {
                    "name": "B5",
                    "midi": 83,
                    "time": 19.43926399999999,
                    "velocity": 0.7007874015748031,
                    "duration": 1.4953280000000007
                },
                {
                    "name": "G5",
                    "midi": 79,
                    "time": 20.93459199999999,
                    "velocity": 0.5826771653543307,
                    "duration": 0.7476640000000003
                },
                {
                    "name": "B4",
                    "midi": 71,
                    "time": 20.93459199999999,
                    "velocity": 0.4881889763779528,
                    "duration": 0.7476640000000003
                },
                {
                    "name": "B4",
                    "midi": 71,
                    "time": 22.429919999999992,
                    "velocity": 0.48031496062992124,
                    "duration": 1.495327999999997
                },
                {
                    "name": "F5",
                    "midi": 77,
                    "time": 22.429919999999992,
                    "velocity": 0.5905511811023622,
                    "duration": 0.7476640000000003
                },
                {
                    "name": "F5",
                    "midi": 77,
                    "time": 23.177583999999992,
                    "velocity": 0.5511811023622047,
                    "duration": 0.6542059999999985
                },
                {
                    "name": "F5",
                    "midi": 77,
                    "time": 23.83178999999999,
                    "velocity": 0.5905511811023622,
                    "duration": 0.09345799999999826
                },
                {
                    "name": "F5",
                    "midi": 77,
                    "time": 23.92524799999999,
                    "velocity": 0.5905511811023622,
                    "duration": 0.5607480000000002
                },
                {
                    "name": "B4",
                    "midi": 71,
                    "time": 23.92524799999999,
                    "velocity": 0.48031496062992124,
                    "duration": 1.49532799999999
                },
                {
                    "name": "F5",
                    "midi": 77,
                    "time": 24.48599599999999,
                    "velocity": 0.5039370078740157,
                    "duration": 0.04672899999999913
                },
                {
                    "name": "G5",
                    "midi": 79,
                    "time": 24.53272499999999,
                    "velocity": 0.4645669291338583,
                    "duration": 0.04672899999999913
                },
                {
                    "name": "F5",
                    "midi": 77,
                    "time": 24.579453999999988,
                    "velocity": 0.4881889763779528,
                    "duration": 0.09345799999999826
                },
                {
                    "name": "E5",
                    "midi": 76,
                    "time": 24.672911999999986,
                    "velocity": 0.5354330708661418,
                    "duration": 0.6542059999999985
                },
                {
                    "name": "D#5",
                    "midi": 75,
                    "time": 25.327117999999984,
                    "velocity": 0.5669291338582677,
                    "duration": 0.04672899999999913
                },
                {
                    "name": "E4",
                    "midi": 64,
                    "time": 25.373846999999984,
                    "velocity": 0.36220472440944884,
                    "duration": 3.037384999999997
                },
                {
                    "name": "G4",
                    "midi": 67,
                    "time": 25.389423333333315,
                    "velocity": 0.3937007874015748,
                    "duration": 3.021808666666665
                },
                {
                    "name": "C5",
                    "midi": 72,
                    "time": 25.404999666666647,
                    "velocity": 0.4015748031496063,
                    "duration": 3.006232333333333
                },
                {
                    "name": "E5",
                    "midi": 76,
                    "time": 25.42057599999998,
                    "velocity": 0.5196850393700787,
                    "duration": 2.9906560000000013
                },
                {
                    "name": "E4",
                    "midi": 64,
                    "time": 28.41123199999998,
                    "velocity": 0.4566929133858268,
                    "duration": 1.495327999999997
                },
                {
                    "name": "G4",
                    "midi": 67,
                    "time": 28.41123199999998,
                    "velocity": 0.47244094488188976,
                    "duration": 1.495327999999997
                },
                {
                    "name": "C5",
                    "midi": 72,
                    "time": 28.41123199999998,
                    "velocity": 0.5905511811023622,
                    "duration": 0.7476640000000003
                },
                {
                    "name": "C5",
                    "midi": 72,
                    "time": 29.15889599999998,
                    "velocity": 0.5905511811023622,
                    "duration": 0.6542059999999985
                },
                {
                    "name": "C5",
                    "midi": 72,
                    "time": 29.81310199999998,
                    "velocity": 0.6377952755905512,
                    "duration": 0.09345799999999826
                },
                {
                    "name": "E4",
                    "midi": 64,
                    "time": 29.906559999999978,
                    "velocity": 0.41732283464566927,
                    "duration": 1.495327999999997
                },
                {
                    "name": "G4",
                    "midi": 67,
                    "time": 29.906559999999978,
                    "velocity": 0.47244094488188976,
                    "duration": 1.495327999999997
                },
                {
                    "name": "C5",
                    "midi": 72,
                    "time": 29.906559999999978,
                    "velocity": 0.6141732283464567,
                    "duration": 1.3084120000000006
                },
                {
                    "name": "B4",
                    "midi": 71,
                    "time": 31.308429999999976,
                    "velocity": 0.5905511811023622,
                    "duration": 0.09345799999999826
                },
                {
                    "name": "G4",
                    "midi": 67,
                    "time": 31.401887999999975,
                    "velocity": 0.4409448818897638,
                    "duration": 2.9906559999999978
                },
                {
                    "name": "E4",
                    "midi": 64,
                    "time": 31.401887999999975,
                    "velocity": 0.41732283464566927,
                    "duration": 2.9906559999999978
                },
                {
                    "name": "B4",
                    "midi": 71,
                    "time": 31.401887999999975,
                    "velocity": 0.5826771653543307,
                    "duration": 1.495327999999997
                },
                {
                    "name": "A4",
                    "midi": 69,
                    "time": 32.89721599999997,
                    "velocity": 0.5669291338582677,
                    "duration": 1.4018700000000024
                },
                {
                    "name": "B4",
                    "midi": 71,
                    "time": 34.299085999999974,
                    "velocity": 0.5511811023622047,
                    "duration": 0.04672899999999913
                },
                {
                    "name": "A3",
                    "midi": 57,
                    "time": 34.34581499999997,
                    "velocity": 0.36220472440944884,
                    "duration": 0.4205609999999993
                },
                {
                    "name": "D4",
                    "midi": 62,
                    "time": 34.36917949999997,
                    "velocity": 0.3858267716535433,
                    "duration": 1.5186925000000002
                },
                {
                    "name": "G4",
                    "midi": 67,
                    "time": 34.39254399999997,
                    "velocity": 0.5354330708661418,
                    "duration": 1.4953280000000007
                },
                {
                    "name": "F#4",
                    "midi": 66,
                    "time": 35.88787199999997,
                    "velocity": 0.5826771653543307,
                    "duration": 1.4018700000000024
                },
                {
                    "name": "C4",
                    "midi": 60,
                    "time": 35.88787199999997,
                    "velocity": 0.3858267716535433,
                    "duration": 1.4953280000000007
                },
                {
                    "name": "D4",
                    "midi": 62,
                    "time": 35.88787199999997,
                    "velocity": 0.4881889763779528,
                    "duration": 1.4953280000000007
                },
                {
                    "name": "G4",
                    "midi": 67,
                    "time": 37.289741999999976,
                    "velocity": 0.5275590551181102,
                    "duration": 0.09345799999999826
                },
                {
                    "name": "B3",
                    "midi": 59,
                    "time": 37.383199999999974,
                    "velocity": 0.3858267716535433,
                    "duration": 1.4953280000000007
                },
                {
                    "name": "D4",
                    "midi": 62,
                    "time": 37.383199999999974,
                    "velocity": 0.4094488188976378,
                    "duration": 1.4953280000000007
                },
                {
                    "name": "G4",
                    "midi": 67,
                    "time": 37.383199999999974,
                    "velocity": 0.5748031496062992,
                    "duration": 1.4953280000000007
                },
                {
                    "name": "B3",
                    "midi": 59,
                    "time": 40.373855999999975,
                    "velocity": 0.36220472440944884,
                    "duration": 0.08411219999999986
                },
                {
                    "name": "D4",
                    "midi": 62,
                    "time": 40.46731399999997,
                    "velocity": 0.31496062992125984,
                    "duration": 0.08411219999999986
                },
                {
                    "name": "G4",
                    "midi": 67,
                    "time": 40.56077199999997,
                    "velocity": 0.3228346456692913,
                    "duration": 0.08411219999999986
                },
                {
                    "name": "A4",
                    "midi": 69,
                    "time": 40.65422999999997,
                    "velocity": 0.2677165354330709,
                    "duration": 0.08411219999999986
                },
                {
                    "name": "B4",
                    "midi": 71,
                    "time": 40.74768799999997,
                    "velocity": 0.3228346456692913,
                    "duration": 0.08411219999999986
                },
                {
                    "name": "A4",
                    "midi": 69,
                    "time": 40.841145999999966,
                    "velocity": 0.30708661417322836,
                    "duration": 0.08411219999999986
                },
                {
                    "name": "G4",
                    "midi": 67,
                    "time": 40.934603999999965,
                    "velocity": 0.30708661417322836,
                    "duration": 0.08411219999999986
                },
                {
                    "name": "E5",
                    "midi": 76,
                    "time": 41.02806199999996,
                    "velocity": 0.36220472440944884,
                    "duration": 0.08411219999999986
                },
                {
                    "name": "D5",
                    "midi": 74,
                    "time": 41.12151999999996,
                    "velocity": 0.36220472440944884,
                    "duration": 0.08411219999999986
                },
                {
                    "name": "C5",
                    "midi": 72,
                    "time": 41.21497799999996,
                    "velocity": 0.31496062992125984,
                    "duration": 0.08411219999999986
                },
                {
                    "name": "B4",
                    "midi": 71,
                    "time": 41.30843599999996,
                    "velocity": 0.28346456692913385,
                    "duration": 0.08411219999999986
                },
                {
                    "name": "A4",
                    "midi": 69,
                    "time": 41.401893999999956,
                    "velocity": 0.29133858267716534,
                    "duration": 0.08411219999999986
                },
                {
                    "name": "G4",
                    "midi": 67,
                    "time": 41.495351999999954,
                    "velocity": 0.33070866141732286,
                    "duration": 0.08411219999999986
                },
                {
                    "name": "A4",
                    "midi": 69,
                    "time": 41.58880999999995,
                    "velocity": 0.28346456692913385,
                    "duration": 0.08411219999999986
                },
                {
                    "name": "B4",
                    "midi": 71,
                    "time": 41.68226799999995,
                    "velocity": 0.31496062992125984,
                    "duration": 0.08411219999999986
                },
                {
                    "name": "D4",
                    "midi": 62,
                    "time": 41.77572599999995,
                    "velocity": 0.28346456692913385,
                    "duration": 0.08411219999999986
                },
                {
                    "name": "B3",
                    "midi": 59,
                    "time": 41.86918399999995,
                    "velocity": 0.36220472440944884,
                    "duration": 0.08411219999999986
                },
                {
                    "name": "D4",
                    "midi": 62,
                    "time": 41.962641999999946,
                    "velocity": 0.31496062992125984,
                    "duration": 0.08411219999999986
                },
                {
                    "name": "G4",
                    "midi": 67,
                    "time": 42.056099999999944,
                    "velocity": 0.3228346456692913,
                    "duration": 0.08411219999999986
                },
                {
                    "name": "A4",
                    "midi": 69,
                    "time": 42.14955799999994,
                    "velocity": 0.2677165354330709,
                    "duration": 0.08411219999999986
                },
                {
                    "name": "B4",
                    "midi": 71,
                    "time": 42.24301599999994,
                    "velocity": 0.3228346456692913,
                    "duration": 0.08411219999999986
                },
                {
                    "name": "A4",
                    "midi": 69,
                    "time": 42.33647399999994,
                    "velocity": 0.30708661417322836,
                    "duration": 0.08411219999999986
                },
                {
                    "name": "G4",
                    "midi": 67,
                    "time": 42.42993199999994,
                    "velocity": 0.30708661417322836,
                    "duration": 0.08411219999999986
                },
                {
                    "name": "E5",
                    "midi": 76,
                    "time": 42.523389999999935,
                    "velocity": 0.36220472440944884,
                    "duration": 0.08411219999999986
                },
                {
                    "name": "D5",
                    "midi": 74,
                    "time": 42.61684799999993,
                    "velocity": 0.36220472440944884,
                    "duration": 0.08411219999999986
                },
                {
                    "name": "C5",
                    "midi": 72,
                    "time": 42.71030599999993,
                    "velocity": 0.31496062992125984,
                    "duration": 0.08411219999999986
                },
                {
                    "name": "B4",
                    "midi": 71,
                    "time": 42.80376399999993,
                    "velocity": 0.28346456692913385,
                    "duration": 0.08411219999999986
                },
                {
                    "name": "A4",
                    "midi": 69,
                    "time": 42.89722199999993,
                    "velocity": 0.29133858267716534,
                    "duration": 0.08411219999999986
                },
                {
                    "name": "G4",
                    "midi": 67,
                    "time": 42.99067999999993,
                    "velocity": 0.33070866141732286,
                    "duration": 0.08411219999999986
                },
                {
                    "name": "A4",
                    "midi": 69,
                    "time": 43.084137999999925,
                    "velocity": 0.28346456692913385,
                    "duration": 0.08411219999999986
                },
                {
                    "name": "B4",
                    "midi": 71,
                    "time": 43.17759599999992,
                    "velocity": 0.31496062992125984,
                    "duration": 0.08411219999999986
                },
                {
                    "name": "D4",
                    "midi": 62,
                    "time": 43.27105399999992,
                    "velocity": 0.28346456692913385,
                    "duration": 0.08411219999999986
                },
                {
                    "name": "B3",
                    "midi": 59,
                    "time": 43.36451199999992,
                    "velocity": 0.36220472440944884,
                    "duration": 0.08411219999999986
                },
                {
                    "name": "D4",
                    "midi": 62,
                    "time": 43.45796999999992,
                    "velocity": 0.31496062992125984,
                    "duration": 0.08411219999999986
                },
                {
                    "name": "G4",
                    "midi": 67,
                    "time": 43.551427999999916,
                    "velocity": 0.3228346456692913,
                    "duration": 0.08411219999999986
                },
                {
                    "name": "A4",
                    "midi": 69,
                    "time": 43.644885999999914,
                    "velocity": 0.2677165354330709,
                    "duration": 0.08411219999999986
                },
                {
                    "name": "G4",
                    "midi": 67,
                    "time": 43.73834399999991,
                    "velocity": 0.3228346456692913,
                    "duration": 0.08411219999999986
                },
                {
                    "name": "A4",
                    "midi": 69,
                    "time": 43.83180199999991,
                    "velocity": 0.30708661417322836,
                    "duration": 0.08411219999999986
                },
                {
                    "name": "B4",
                    "midi": 71,
                    "time": 43.92525999999991,
                    "velocity": 0.30708661417322836,
                    "duration": 0.08411219999999986
                },
                {
                    "name": "D4",
                    "midi": 62,
                    "time": 44.01871799999991,
                    "velocity": 0.36220472440944884,
                    "duration": 0.08411219999999986
                },
                {
                    "name": "B3",
                    "midi": 59,
                    "time": 44.112175999999906,
                    "velocity": 0.36220472440944884,
                    "duration": 0.08411219999999986
                },
                {
                    "name": "D4",
                    "midi": 62,
                    "time": 44.205633999999904,
                    "velocity": 0.31496062992125984,
                    "duration": 0.08411219999999986
                },
                {
                    "name": "G4",
                    "midi": 67,
                    "time": 44.2990919999999,
                    "velocity": 0.28346456692913385,
                    "duration": 0.08411219999999986
                },
                {
                    "name": "A4",
                    "midi": 69,
                    "time": 44.3925499999999,
                    "velocity": 0.29133858267716534,
                    "duration": 0.08411219999999986
                },
                {
                    "name": "G4",
                    "midi": 67,
                    "time": 44.4860079999999,
                    "velocity": 0.33070866141732286,
                    "duration": 0.08411219999999986
                },
                {
                    "name": "A4",
                    "midi": 69,
                    "time": 44.5794659999999,
                    "velocity": 0.28346456692913385,
                    "duration": 0.08411219999999986
                },
                {
                    "name": "B4",
                    "midi": 71,
                    "time": 44.672923999999895,
                    "velocity": 0.31496062992125984,
                    "duration": 0.08411219999999986
                },
                {
                    "name": "D4",
                    "midi": 62,
                    "time": 44.76638199999989,
                    "velocity": 0.28346456692913385,
                    "duration": 0.08411219999999986
                },
                {
                    "name": "B3",
                    "midi": 59,
                    "time": 44.85983999999989,
                    "velocity": 0.36220472440944884,
                    "duration": 0.08411219999999986
                },
                {
                    "name": "D4",
                    "midi": 62,
                    "time": 44.95329799999989,
                    "velocity": 0.31496062992125984,
                    "duration": 0.08411219999999986
                },
                {
                    "name": "G4",
                    "midi": 67,
                    "time": 45.04675599999989,
                    "velocity": 0.3228346456692913,
                    "duration": 0.08411219999999986
                },
                {
                    "name": "A4",
                    "midi": 69,
                    "time": 45.14021399999989,
                    "velocity": 0.2677165354330709,
                    "duration": 0.08411219999999986
                },
                {
                    "name": "G4",
                    "midi": 67,
                    "time": 45.233671999999885,
                    "velocity": 0.3228346456692913,
                    "duration": 0.08411219999999986
                },
                {
                    "name": "A4",
                    "midi": 69,
                    "time": 45.32712999999988,
                    "velocity": 0.2992125984251969,
                    "duration": 0.08411219999999986
                },
                {
                    "name": "B4",
                    "midi": 71,
                    "time": 45.42058799999988,
                    "velocity": 0.29133858267716534,
                    "duration": 0.08411219999999986
                },
                {
                    "name": "D5",
                    "midi": 74,
                    "time": 45.51404599999988,
                    "velocity": 0.33070866141732286,
                    "duration": 0.08411219999999986
                },
                {
                    "name": "G5",
                    "midi": 79,
                    "time": 45.60750399999988,
                    "velocity": 0.33070866141732286,
                    "duration": 0.09345799999999826
                },
                {
                    "name": "A5",
                    "midi": 81,
                    "time": 45.700961999999876,
                    "velocity": 0.2992125984251969,
                    "duration": 0.09345799999999826
                },
                {
                    "name": "B5",
                    "midi": 83,
                    "time": 45.794419999999874,
                    "velocity": 0.31496062992125984,
                    "duration": 0.09345799999999826
                },
                {
                    "name": "D6",
                    "midi": 86,
                    "time": 45.88787799999987,
                    "velocity": 0.2677165354330709,
                    "duration": 0.09345799999999826
                },
                {
                    "name": "G6",
                    "midi": 91,
                    "time": 45.98133599999987,
                    "velocity": 0.30708661417322836,
                    "duration": 0.09345799999999826
                },
                {
                    "name": "A6",
                    "midi": 93,
                    "time": 46.07479399999987,
                    "velocity": 0.2992125984251969,
                    "duration": 0.09345799999999826
                },
                {
                    "name": "B6",
                    "midi": 95,
                    "time": 46.16825199999987,
                    "velocity": 0.29133858267716534,
                    "duration": 0.09345799999999826
                },
                {
                    "name": "D7",
                    "midi": 98,
                    "time": 46.261709999999866,
                    "velocity": 0.29133858267716534,
                    "duration": 0.09345799999999826
                },
                {
                    "name": "B6",
                    "midi": 95,
                    "time": 46.355167999999864,
                    "velocity": 0.3937007874015748,
                    "duration": 0.37383200000000016
                },
                {
                    "name": "B3",
                    "midi": 59,
                    "time": 47.032738499999866,
                    "velocity": 0.2677165354330709,
                    "duration": 0.817757499999999
                },
                {
                    "name": "D4",
                    "midi": 62,
                    "time": 47.056102999999865,
                    "velocity": 0.29133858267716534,
                    "duration": 0.7943929999999995
                },
                {
                    "name": "G4",
                    "midi": 67,
                    "time": 47.079467499999865,
                    "velocity": 0.31496062992125984,
                    "duration": 0.7710284999999999
                },
                {
                    "name": "B4",
                    "midi": 71,
                    "time": 47.102831999999864,
                    "velocity": 0.3464566929133858,
                    "duration": 0.7476640000000003
                },
                {
                    "name": "B3",
                    "midi": 59,
                    "time": 47.92058949999986,
                    "velocity": 0.25984251968503935,
                    "duration": 1.425234500000002
                },
                {
                    "name": "D4",
                    "midi": 62,
                    "time": 47.94395399999986,
                    "velocity": 0.2755905511811024,
                    "duration": 1.4018700000000024
                },
                {
                    "name": "G4",
                    "midi": 67,
                    "time": 47.96731849999986,
                    "velocity": 0.29133858267716534,
                    "duration": 1.3785055000000028
                },
                {
                    "name": "B4",
                    "midi": 71,
                    "time": 47.99068299999986,
                    "velocity": 0.30708661417322836,
                    "duration": 1.3551410000000033
                }
            ],
            "controlChanges": {
                "7": [
                    {
                        "number": 7,
                        "time": 0,
                        "value": 0.7874015748031497
                    }
                ],
                "10": [
                    {
                        "number": 10,
                        "time": 0,
                        "value": 0.5039370078740157
                    }
                ]
            },
            "id": 1,
            "name": "Piano right",
            "instrumentNumber": 0,
            "instrument": "acoustic grand piano",
            "instrumentFamily": "piano",
            "channelNumber": 0,
            "isPercussion": false
        },
        {
            "startTime": 0.0007788166666666666,
            "duration": 49.34582399999985,
            "length": 503,
            "notes": [
                {
                    "name": "G2",
                    "midi": 43,
                    "time": 0.0007788166666666666,
                    "velocity": 0.4094488188976378,
                    "duration": 0.09267918333333333
                },
                {
                    "name": "D3",
                    "midi": 50,
                    "time": 0.093458,
                    "velocity": 0.3543307086614173,
                    "duration": 0.093458
                },
                {
                    "name": "G3",
                    "midi": 55,
                    "time": 0.186916,
                    "velocity": 0.3779527559055118,
                    "duration": 0.09345800000000001
                },
                {
                    "name": "A3",
                    "midi": 57,
                    "time": 0.280374,
                    "velocity": 0.31496062992125984,
                    "duration": 0.09345799999999999
                },
                {
                    "name": "B3",
                    "midi": 59,
                    "time": 0.373832,
                    "velocity": 0.3779527559055118,
                    "duration": 0.10903433333333334
                },
                {
                    "name": "A3",
                    "midi": 57,
                    "time": 0.46729,
                    "velocity": 0.3464566929133858,
                    "duration": 0.10903433333333334
                },
                {
                    "name": "G3",
                    "midi": 55,
                    "time": 0.560748,
                    "velocity": 0.3464566929133858,
                    "duration": 0.10903433333333323
                },
                {
                    "name": "E4",
                    "midi": 64,
                    "time": 0.654206,
                    "velocity": 0.4094488188976378,
                    "duration": 0.10903433333333323
                },
                {
                    "name": "D4",
                    "midi": 62,
                    "time": 0.7476639999999999,
                    "velocity": 0.4094488188976378,
                    "duration": 0.10903433333333323
                },
                {
                    "name": "C4",
                    "midi": 60,
                    "time": 0.8411219999999998,
                    "velocity": 0.3543307086614173,
                    "duration": 0.10903433333333323
                },
                {
                    "name": "B3",
                    "midi": 59,
                    "time": 0.9345799999999997,
                    "velocity": 0.3228346456692913,
                    "duration": 0.10903433333333346
                },
                {
                    "name": "A3",
                    "midi": 57,
                    "time": 1.0280379999999998,
                    "velocity": 0.33070866141732286,
                    "duration": 0.10903433333333346
                },
                {
                    "name": "G3",
                    "midi": 55,
                    "time": 1.1214959999999998,
                    "velocity": 0.3858267716535433,
                    "duration": 0.10903433333333346
                },
                {
                    "name": "A3",
                    "midi": 57,
                    "time": 1.2149539999999999,
                    "velocity": 0.3228346456692913,
                    "duration": 0.10903433333333346
                },
                {
                    "name": "B3",
                    "midi": 59,
                    "time": 1.308412,
                    "velocity": 0.3543307086614173,
                    "duration": 0.10903433333333346
                },
                {
                    "name": "D3",
                    "midi": 50,
                    "time": 1.40187,
                    "velocity": 0.3228346456692913,
                    "duration": 0.10903433333333323
                },
                {
                    "name": "G2",
                    "midi": 43,
                    "time": 1.495328,
                    "velocity": 0.4094488188976378,
                    "duration": 0.09345800000000004
                },
                {
                    "name": "D3",
                    "midi": 50,
                    "time": 1.588786,
                    "velocity": 0.3543307086614173,
                    "duration": 0.09345800000000004
                },
                {
                    "name": "G3",
                    "midi": 55,
                    "time": 1.682244,
                    "velocity": 0.3779527559055118,
                    "duration": 0.09345800000000004
                },
                {
                    "name": "A3",
                    "midi": 57,
                    "time": 1.7757020000000001,
                    "velocity": 0.31496062992125984,
                    "duration": 0.09345800000000004
                },
                {
                    "name": "B3",
                    "midi": 59,
                    "time": 1.8691600000000002,
                    "velocity": 0.3779527559055118,
                    "duration": 0.10903433333333346
                },
                {
                    "name": "A3",
                    "midi": 57,
                    "time": 1.9626180000000002,
                    "velocity": 0.3464566929133858,
                    "duration": 0.10903433333333346
                },
                {
                    "name": "G3",
                    "midi": 55,
                    "time": 2.0560760000000005,
                    "velocity": 0.3464566929133858,
                    "duration": 0.10903433333333323
                },
                {
                    "name": "E4",
                    "midi": 64,
                    "time": 2.1495340000000005,
                    "velocity": 0.4094488188976378,
                    "duration": 0.10903433333333323
                },
                {
                    "name": "D4",
                    "midi": 62,
                    "time": 2.2429920000000005,
                    "velocity": 0.4094488188976378,
                    "duration": 0.10903433333333323
                },
                {
                    "name": "C4",
                    "midi": 60,
                    "time": 2.3364500000000006,
                    "velocity": 0.3543307086614173,
                    "duration": 0.10903433333333323
                },
                {
                    "name": "B3",
                    "midi": 59,
                    "time": 2.4299080000000006,
                    "velocity": 0.3228346456692913,
                    "duration": 0.10903433333333323
                },
                {
                    "name": "A3",
                    "midi": 57,
                    "time": 2.5233660000000007,
                    "velocity": 0.33070866141732286,
                    "duration": 0.10903433333333323
                },
                {
                    "name": "G3",
                    "midi": 55,
                    "time": 2.6168240000000007,
                    "velocity": 0.3858267716535433,
                    "duration": 0.10903433333333323
                },
                {
                    "name": "A3",
                    "midi": 57,
                    "time": 2.7102820000000007,
                    "velocity": 0.3228346456692913,
                    "duration": 0.10903433333333323
                },
                {
                    "name": "B3",
                    "midi": 59,
                    "time": 2.803740000000001,
                    "velocity": 0.3543307086614173,
                    "duration": 0.10903433333333323
                },
                {
                    "name": "D3",
                    "midi": 50,
                    "time": 2.897198000000001,
                    "velocity": 0.3228346456692913,
                    "duration": 0.10903433333333368
                },
                {
                    "name": "G2",
                    "midi": 43,
                    "time": 2.990656000000001,
                    "velocity": 0.4094488188976378,
                    "duration": 0.09345800000000049
                },
                {
                    "name": "D3",
                    "midi": 50,
                    "time": 3.0841140000000014,
                    "velocity": 0.3543307086614173,
                    "duration": 0.09345800000000004
                },
                {
                    "name": "G3",
                    "midi": 55,
                    "time": 3.1775720000000014,
                    "velocity": 0.3779527559055118,
                    "duration": 0.09345800000000004
                },
                {
                    "name": "A3",
                    "midi": 57,
                    "time": 3.2710300000000014,
                    "velocity": 0.31496062992125984,
                    "duration": 0.09345800000000004
                },
                {
                    "name": "B3",
                    "midi": 59,
                    "time": 3.3644880000000015,
                    "velocity": 0.3779527559055118,
                    "duration": 0.09345800000000004
                },
                {
                    "name": "A3",
                    "midi": 57,
                    "time": 3.4579460000000015,
                    "velocity": 0.3464566929133858,
                    "duration": 0.09345800000000004
                },
                {
                    "name": "G3",
                    "midi": 55,
                    "time": 3.5514040000000016,
                    "velocity": 0.3464566929133858,
                    "duration": 0.09345800000000004
                },
                {
                    "name": "E4",
                    "midi": 64,
                    "time": 3.6448620000000016,
                    "velocity": 0.4094488188976378,
                    "duration": 0.09345800000000004
                },
                {
                    "name": "D4",
                    "midi": 62,
                    "time": 3.7383200000000016,
                    "velocity": 0.4094488188976378,
                    "duration": 0.09345800000000049
                },
                {
                    "name": "C4",
                    "midi": 60,
                    "time": 3.831778000000002,
                    "velocity": 0.3543307086614173,
                    "duration": 0.09345800000000004
                },
                {
                    "name": "B3",
                    "midi": 59,
                    "time": 3.925236000000002,
                    "velocity": 0.3228346456692913,
                    "duration": 0.0934579999999996
                },
                {
                    "name": "A3",
                    "midi": 57,
                    "time": 4.018694000000002,
                    "velocity": 0.33070866141732286,
                    "duration": 0.09345800000000004
                },
                {
                    "name": "G3",
                    "midi": 55,
                    "time": 4.112152000000002,
                    "velocity": 0.3858267716535433,
                    "duration": 0.09345800000000004
                },
                {
                    "name": "A3",
                    "midi": 57,
                    "time": 4.205610000000002,
                    "velocity": 0.3228346456692913,
                    "duration": 0.09345800000000004
                },
                {
                    "name": "B3",
                    "midi": 59,
                    "time": 4.299068000000002,
                    "velocity": 0.3543307086614173,
                    "duration": 0.09345800000000004
                },
                {
                    "name": "D3",
                    "midi": 50,
                    "time": 4.392526000000002,
                    "velocity": 0.3228346456692913,
                    "duration": 0.09345800000000004
                },
                {
                    "name": "G2",
                    "midi": 43,
                    "time": 4.485984000000002,
                    "velocity": 0.4094488188976378,
                    "duration": 0.09345799999999915
                },
                {
                    "name": "D3",
                    "midi": 50,
                    "time": 4.579442000000001,
                    "velocity": 0.36220472440944884,
                    "duration": 0.09345800000000004
                },
                {
                    "name": "G3",
                    "midi": 55,
                    "time": 4.672900000000001,
                    "velocity": 0.3937007874015748,
                    "duration": 0.09345800000000004
                },
                {
                    "name": "A3",
                    "midi": 57,
                    "time": 4.766358000000001,
                    "velocity": 0.3464566929133858,
                    "duration": 0.09345800000000004
                },
                {
                    "name": "B3",
                    "midi": 59,
                    "time": 4.859816000000001,
                    "velocity": 0.4330708661417323,
                    "duration": 0.09345800000000004
                },
                {
                    "name": "A3",
                    "midi": 57,
                    "time": 4.953274000000001,
                    "velocity": 0.41732283464566927,
                    "duration": 0.09345800000000004
                },
                {
                    "name": "G3",
                    "midi": 55,
                    "time": 5.046732000000001,
                    "velocity": 0.4330708661417323,
                    "duration": 0.09345800000000004
                },
                {
                    "name": "E4",
                    "midi": 64,
                    "time": 5.140190000000001,
                    "velocity": 0.5354330708661418,
                    "duration": 0.09345800000000004
                },
                {
                    "name": "D4",
                    "midi": 62,
                    "time": 5.233648000000001,
                    "velocity": 0.5511811023622047,
                    "duration": 0.09345799999999915
                },
                {
                    "name": "C4",
                    "midi": 60,
                    "time": 5.327106000000001,
                    "velocity": 0.48031496062992124,
                    "duration": 0.09345800000000004
                },
                {
                    "name": "B3",
                    "midi": 59,
                    "time": 5.420564000000001,
                    "velocity": 0.4330708661417323,
                    "duration": 0.09345800000000004
                },
                {
                    "name": "A3",
                    "midi": 57,
                    "time": 5.514022000000001,
                    "velocity": 0.4409448818897638,
                    "duration": 0.09345800000000004
                },
                {
                    "name": "G3",
                    "midi": 55,
                    "time": 5.607480000000001,
                    "velocity": 0.5196850393700787,
                    "duration": 0.09345800000000004
                },
                {
                    "name": "A3",
                    "midi": 57,
                    "time": 5.700938000000001,
                    "velocity": 0.4330708661417323,
                    "duration": 0.09345800000000004
                },
                {
                    "name": "B3",
                    "midi": 59,
                    "time": 5.794396000000001,
                    "velocity": 0.47244094488188976,
                    "duration": 0.09345800000000004
                },
                {
                    "name": "D3",
                    "midi": 50,
                    "time": 5.887854000000001,
                    "velocity": 0.4330708661417323,
                    "duration": 0.09345800000000004
                },
                {
                    "name": "G2",
                    "midi": 43,
                    "time": 5.981312000000001,
                    "velocity": 0.5354330708661418,
                    "duration": 0.09345800000000004
                },
                {
                    "name": "D3",
                    "midi": 50,
                    "time": 6.074770000000001,
                    "velocity": 0.4566929133858268,
                    "duration": 0.09345800000000004
                },
                {
                    "name": "G3",
                    "midi": 55,
                    "time": 6.168228000000001,
                    "velocity": 0.47244094488188976,
                    "duration": 0.09345800000000004
                },
                {
                    "name": "A3",
                    "midi": 57,
                    "time": 6.261686000000001,
                    "velocity": 0.3858267716535433,
                    "duration": 0.09345800000000004
                },
                {
                    "name": "B3",
                    "midi": 59,
                    "time": 6.355144000000001,
                    "velocity": 0.4566929133858268,
                    "duration": 0.09345800000000004
                },
                {
                    "name": "A3",
                    "midi": 57,
                    "time": 6.448602000000001,
                    "velocity": 0.4094488188976378,
                    "duration": 0.09345800000000004
                },
                {
                    "name": "G3",
                    "midi": 55,
                    "time": 6.542060000000001,
                    "velocity": 0.4094488188976378,
                    "duration": 0.09345800000000004
                },
                {
                    "name": "E4",
                    "midi": 64,
                    "time": 6.635518000000001,
                    "velocity": 0.47244094488188976,
                    "duration": 0.09345800000000004
                },
                {
                    "name": "D4",
                    "midi": 62,
                    "time": 6.728976000000001,
                    "velocity": 0.47244094488188976,
                    "duration": 0.09345799999999915
                },
                {
                    "name": "C4",
                    "midi": 60,
                    "time": 6.822434,
                    "velocity": 0.3937007874015748,
                    "duration": 0.09345800000000004
                },
                {
                    "name": "B3",
                    "midi": 59,
                    "time": 6.915892,
                    "velocity": 0.3543307086614173,
                    "duration": 0.09345800000000004
                },
                {
                    "name": "A3",
                    "midi": 57,
                    "time": 7.00935,
                    "velocity": 0.3543307086614173,
                    "duration": 0.09345800000000004
                },
                {
                    "name": "G3",
                    "midi": 55,
                    "time": 7.1028080000000005,
                    "velocity": 0.4094488188976378,
                    "duration": 0.09345800000000004
                },
                {
                    "name": "A3",
                    "midi": 57,
                    "time": 7.1962660000000005,
                    "velocity": 0.33070866141732286,
                    "duration": 0.09345800000000004
                },
                {
                    "name": "B3",
                    "midi": 59,
                    "time": 7.2897240000000005,
                    "velocity": 0.36220472440944884,
                    "duration": 0.09345800000000004
                },
                {
                    "name": "D3",
                    "midi": 50,
                    "time": 7.383182000000001,
                    "velocity": 0.3228346456692913,
                    "duration": 0.09345800000000004
                },
                {
                    "name": "G2",
                    "midi": 43,
                    "time": 7.476640000000001,
                    "velocity": 0.36220472440944884,
                    "duration": 0.09345800000000004
                },
                {
                    "name": "D3",
                    "midi": 50,
                    "time": 7.570098000000001,
                    "velocity": 0.31496062992125984,
                    "duration": 0.09345800000000004
                },
                {
                    "name": "G3",
                    "midi": 55,
                    "time": 7.663556000000001,
                    "velocity": 0.33070866141732286,
                    "duration": 0.09345800000000004
                },
                {
                    "name": "A3",
                    "midi": 57,
                    "time": 7.757014000000001,
                    "velocity": 0.2992125984251969,
                    "duration": 0.09345800000000004
                },
                {
                    "name": "B3",
                    "midi": 59,
                    "time": 7.850472000000001,
                    "velocity": 0.36220472440944884,
                    "duration": 0.09345800000000004
                },
                {
                    "name": "A3",
                    "midi": 57,
                    "time": 7.943930000000001,
                    "velocity": 0.33070866141732286,
                    "duration": 0.09345799999999915
                },
                {
                    "name": "G3",
                    "midi": 55,
                    "time": 8.037388,
                    "velocity": 0.3464566929133858,
                    "duration": 0.09345800000000004
                },
                {
                    "name": "E4",
                    "midi": 64,
                    "time": 8.130846,
                    "velocity": 0.41732283464566927,
                    "duration": 0.09345800000000004
                },
                {
                    "name": "D4",
                    "midi": 62,
                    "time": 8.224304,
                    "velocity": 0.4330708661417323,
                    "duration": 0.10903433333333368
                },
                {
                    "name": "C4",
                    "midi": 60,
                    "time": 8.317762,
                    "velocity": 0.3779527559055118,
                    "duration": 0.10903433333333368
                },
                {
                    "name": "B3",
                    "midi": 59,
                    "time": 8.41122,
                    "velocity": 0.3228346456692913,
                    "duration": 0.10903433333333368
                },
                {
                    "name": "A3",
                    "midi": 57,
                    "time": 8.504678,
                    "velocity": 0.33070866141732286,
                    "duration": 0.10903433333333368
                },
                {
                    "name": "G3",
                    "midi": 55,
                    "time": 8.598136,
                    "velocity": 0.3779527559055118,
                    "duration": 0.10903433333333368
                },
                {
                    "name": "A3",
                    "midi": 57,
                    "time": 8.691594,
                    "velocity": 0.30708661417322836,
                    "duration": 0.10903433333333368
                },
                {
                    "name": "B3",
                    "midi": 59,
                    "time": 8.785052,
                    "velocity": 0.3228346456692913,
                    "duration": 0.10903433333333368
                },
                {
                    "name": "D3",
                    "midi": 50,
                    "time": 8.87851,
                    "velocity": 0.29133858267716534,
                    "duration": 0.10903433333333368
                },
                {
                    "name": "A2",
                    "midi": 45,
                    "time": 8.971968,
                    "velocity": 0.36220472440944884,
                    "duration": 0.09345800000000004
                },
                {
                    "name": "E3",
                    "midi": 52,
                    "time": 9.065426,
                    "velocity": 0.31496062992125984,
                    "duration": 0.09345800000000004
                },
                {
                    "name": "A3",
                    "midi": 57,
                    "time": 9.158884,
                    "velocity": 0.33070866141732286,
                    "duration": 0.09345800000000004
                },
                {
                    "name": "B3",
                    "midi": 59,
                    "time": 9.252342,
                    "velocity": 0.2677165354330709,
                    "duration": 0.09345800000000004
                },
                {
                    "name": "C#4",
                    "midi": 61,
                    "time": 9.3458,
                    "velocity": 0.33070866141732286,
                    "duration": 0.09345800000000004
                },
                {
                    "name": "B3",
                    "midi": 59,
                    "time": 9.439258,
                    "velocity": 0.30708661417322836,
                    "duration": 0.09345800000000004
                },
                {
                    "name": "A3",
                    "midi": 57,
                    "time": 9.532716,
                    "velocity": 0.30708661417322836,
                    "duration": 0.09345800000000004
                },
                {
                    "name": "F#4",
                    "midi": 66,
                    "time": 9.626174,
                    "velocity": 0.36220472440944884,
                    "duration": 0.09345800000000004
                },
                {
                    "name": "E4",
                    "midi": 64,
                    "time": 9.719632,
                    "velocity": 0.36220472440944884,
                    "duration": 0.09345800000000004
                },
                {
                    "name": "D4",
                    "midi": 62,
                    "time": 9.81309,
                    "velocity": 0.31496062992125984,
                    "duration": 0.09345800000000004
                },
                {
                    "name": "C#4",
                    "midi": 61,
                    "time": 9.906548,
                    "velocity": 0.28346456692913385,
                    "duration": 0.09345800000000004
                },
                {
                    "name": "B3",
                    "midi": 59,
                    "time": 10.000006,
                    "velocity": 0.29133858267716534,
                    "duration": 0.09345800000000004
                },
                {
                    "name": "A3",
                    "midi": 57,
                    "time": 10.093464,
                    "velocity": 0.3464566929133858,
                    "duration": 0.09345800000000004
                },
                {
                    "name": "B3",
                    "midi": 59,
                    "time": 10.186922000000001,
                    "velocity": 0.28346456692913385,
                    "duration": 0.09345800000000004
                },
                {
                    "name": "C#4",
                    "midi": 61,
                    "time": 10.280380000000001,
                    "velocity": 0.31496062992125984,
                    "duration": 0.09345800000000004
                },
                {
                    "name": "E3",
                    "midi": 52,
                    "time": 10.373838000000001,
                    "velocity": 0.28346456692913385,
                    "duration": 0.09345800000000004
                },
                {
                    "name": "D2",
                    "midi": 38,
                    "time": 10.467296000000001,
                    "velocity": 0.36220472440944884,
                    "duration": 0.09345800000000004
                },
                {
                    "name": "A2",
                    "midi": 45,
                    "time": 10.560754000000001,
                    "velocity": 0.31496062992125984,
                    "duration": 0.09345800000000004
                },
                {
                    "name": "D3",
                    "midi": 50,
                    "time": 10.654212000000001,
                    "velocity": 0.33070866141732286,
                    "duration": 0.09345800000000004
                },
                {
                    "name": "E3",
                    "midi": 52,
                    "time": 10.747670000000001,
                    "velocity": 0.2677165354330709,
                    "duration": 0.09345800000000004
                },
                {
                    "name": "F#3",
                    "midi": 54,
                    "time": 10.841128000000001,
                    "velocity": 0.33070866141732286,
                    "duration": 0.10903433333333368
                },
                {
                    "name": "E3",
                    "midi": 52,
                    "time": 10.934586000000001,
                    "velocity": 0.30708661417322836,
                    "duration": 0.10903433333333368
                },
                {
                    "name": "D3",
                    "midi": 50,
                    "time": 11.028044000000001,
                    "velocity": 0.30708661417322836,
                    "duration": 0.10903433333333368
                },
                {
                    "name": "B3",
                    "midi": 59,
                    "time": 11.121502000000001,
                    "velocity": 0.36220472440944884,
                    "duration": 0.10903433333333368
                },
                {
                    "name": "A3",
                    "midi": 57,
                    "time": 11.214960000000001,
                    "velocity": 0.36220472440944884,
                    "duration": 0.10903433333333368
                },
                {
                    "name": "G3",
                    "midi": 55,
                    "time": 11.308418000000001,
                    "velocity": 0.31496062992125984,
                    "duration": 0.10903433333333368
                },
                {
                    "name": "F#3",
                    "midi": 54,
                    "time": 11.401876000000001,
                    "velocity": 0.28346456692913385,
                    "duration": 0.10903433333333368
                },
                {
                    "name": "E3",
                    "midi": 52,
                    "time": 11.495334000000001,
                    "velocity": 0.29133858267716534,
                    "duration": 0.10903433333333368
                },
                {
                    "name": "D3",
                    "midi": 50,
                    "time": 11.588792000000002,
                    "velocity": 0.3464566929133858,
                    "duration": 0.10903433333333368
                },
                {
                    "name": "E3",
                    "midi": 52,
                    "time": 11.682250000000002,
                    "velocity": 0.28346456692913385,
                    "duration": 0.10903433333333368
                },
                {
                    "name": "F#3",
                    "midi": 54,
                    "time": 11.775708000000002,
                    "velocity": 0.31496062992125984,
                    "duration": 0.10903433333333368
                },
                {
                    "name": "B2",
                    "midi": 47,
                    "time": 11.869166000000002,
                    "velocity": 0.28346456692913385,
                    "duration": 0.10903433333333368
                },
                {
                    "name": "A2",
                    "midi": 45,
                    "time": 11.962624000000002,
                    "velocity": 0.36220472440944884,
                    "duration": 0.09345800000000004
                },
                {
                    "name": "E3",
                    "midi": 52,
                    "time": 12.056082000000002,
                    "velocity": 0.31496062992125984,
                    "duration": 0.09345800000000004
                },
                {
                    "name": "A3",
                    "midi": 57,
                    "time": 12.149540000000002,
                    "velocity": 0.33070866141732286,
                    "duration": 0.09345800000000004
                },
                {
                    "name": "B3",
                    "midi": 59,
                    "time": 12.242998000000002,
                    "velocity": 0.2677165354330709,
                    "duration": 0.09345800000000004
                },
                {
                    "name": "C#4",
                    "midi": 61,
                    "time": 12.336456000000002,
                    "velocity": 0.3464566929133858,
                    "duration": 0.09345800000000004
                },
                {
                    "name": "B3",
                    "midi": 59,
                    "time": 12.429914000000002,
                    "velocity": 0.31496062992125984,
                    "duration": 0.09345800000000004
                },
                {
                    "name": "A3",
                    "midi": 57,
                    "time": 12.523372000000002,
                    "velocity": 0.3228346456692913,
                    "duration": 0.09345800000000004
                },
                {
                    "name": "F#4",
                    "midi": 66,
                    "time": 12.616830000000002,
                    "velocity": 0.3858267716535433,
                    "duration": 0.09345800000000004
                },
                {
                    "name": "E4",
                    "midi": 64,
                    "time": 12.710288000000002,
                    "velocity": 0.3937007874015748,
                    "duration": 0.09345800000000004
                },
                {
                    "name": "D4",
                    "midi": 62,
                    "time": 12.803746000000002,
                    "velocity": 0.3464566929133858,
                    "duration": 0.09345800000000004
                },
                {
                    "name": "C#4",
                    "midi": 61,
                    "time": 12.897204000000002,
                    "velocity": 0.31496062992125984,
                    "duration": 0.09345800000000004
                },
                {
                    "name": "B3",
                    "midi": 59,
                    "time": 12.990662000000002,
                    "velocity": 0.3228346456692913,
                    "duration": 0.09345800000000004
                },
                {
                    "name": "A3",
                    "midi": 57,
                    "time": 13.084120000000002,
                    "velocity": 0.3937007874015748,
                    "duration": 0.09345800000000004
                },
                {
                    "name": "B3",
                    "midi": 59,
                    "time": 13.177578000000002,
                    "velocity": 0.3228346456692913,
                    "duration": 0.09345800000000004
                },
                {
                    "name": "C#4",
                    "midi": 61,
                    "time": 13.271036000000002,
                    "velocity": 0.36220472440944884,
                    "duration": 0.09345800000000004
                },
                {
                    "name": "E3",
                    "midi": 52,
                    "time": 13.364494000000002,
                    "velocity": 0.33070866141732286,
                    "duration": 0.09345800000000004
                },
                {
                    "name": "D2",
                    "midi": 38,
                    "time": 13.457952000000002,
                    "velocity": 0.3228346456692913,
                    "duration": 0.09345799999999826
                },
                {
                    "name": "A2",
                    "midi": 45,
                    "time": 13.55141,
                    "velocity": 0.2992125984251969,
                    "duration": 0.09345800000000004
                },
                {
                    "name": "D3",
                    "midi": 50,
                    "time": 13.644868,
                    "velocity": 0.2992125984251969,
                    "duration": 0.09345800000000004
                },
                {
                    "name": "E3",
                    "midi": 52,
                    "time": 13.738326,
                    "velocity": 0.29133858267716534,
                    "duration": 0.09345800000000004
                },
                {
                    "name": "F#3",
                    "midi": 54,
                    "time": 13.831784,
                    "velocity": 0.3543307086614173,
                    "duration": 0.10903433333333368
                },
                {
                    "name": "E3",
                    "midi": 52,
                    "time": 13.925242,
                    "velocity": 0.3228346456692913,
                    "duration": 0.10903433333333368
                },
                {
                    "name": "D3",
                    "midi": 50,
                    "time": 14.0187,
                    "velocity": 0.3228346456692913,
                    "duration": 0.10903433333333368
                },
                {
                    "name": "B3",
                    "midi": 59,
                    "time": 14.112158,
                    "velocity": 0.3228346456692913,
                    "duration": 0.10903433333333368
                },
                {
                    "name": "A3",
                    "midi": 57,
                    "time": 14.205616000000001,
                    "velocity": 0.36220472440944884,
                    "duration": 0.10903433333333368
                },
                {
                    "name": "G3",
                    "midi": 55,
                    "time": 14.299074000000001,
                    "velocity": 0.3228346456692913,
                    "duration": 0.10903433333333368
                },
                {
                    "name": "F#3",
                    "midi": 54,
                    "time": 14.392532000000001,
                    "velocity": 0.29133858267716534,
                    "duration": 0.10903433333333368
                },
                {
                    "name": "E3",
                    "midi": 52,
                    "time": 14.485990000000001,
                    "velocity": 0.30708661417322836,
                    "duration": 0.10903433333333368
                },
                {
                    "name": "D3",
                    "midi": 50,
                    "time": 14.579448000000001,
                    "velocity": 0.3543307086614173,
                    "duration": 0.10903433333333368
                },
                {
                    "name": "E3",
                    "midi": 52,
                    "time": 14.672906000000001,
                    "velocity": 0.28346456692913385,
                    "duration": 0.10903433333333368
                },
                {
                    "name": "F#3",
                    "midi": 54,
                    "time": 14.766364000000001,
                    "velocity": 0.31496062992125984,
                    "duration": 0.10903433333333368
                },
                {
                    "name": "A2",
                    "midi": 45,
                    "time": 14.859822000000001,
                    "velocity": 0.28346456692913385,
                    "duration": 0.10903433333333368
                },
                {
                    "name": "D2",
                    "midi": 38,
                    "time": 14.953280000000001,
                    "velocity": 0.36220472440944884,
                    "duration": 0.09345800000000182
                },
                {
                    "name": "A2",
                    "midi": 45,
                    "time": 15.046738000000003,
                    "velocity": 0.31496062992125984,
                    "duration": 0.09345800000000004
                },
                {
                    "name": "D3",
                    "midi": 50,
                    "time": 15.140196000000003,
                    "velocity": 0.33070866141732286,
                    "duration": 0.09345800000000004
                },
                {
                    "name": "E3",
                    "midi": 52,
                    "time": 15.233654000000003,
                    "velocity": 0.2677165354330709,
                    "duration": 0.09345800000000004
                },
                {
                    "name": "F#3",
                    "midi": 54,
                    "time": 15.327112000000003,
                    "velocity": 0.33070866141732286,
                    "duration": 0.09345800000000004
                },
                {
                    "name": "E3",
                    "midi": 52,
                    "time": 15.420570000000003,
                    "velocity": 0.30708661417322836,
                    "duration": 0.09345800000000004
                },
                {
                    "name": "D3",
                    "midi": 50,
                    "time": 15.514028000000003,
                    "velocity": 0.30708661417322836,
                    "duration": 0.09345800000000004
                },
                {
                    "name": "B3",
                    "midi": 59,
                    "time": 15.607486000000003,
                    "velocity": 0.36220472440944884,
                    "duration": 0.09345800000000004
                },
                {
                    "name": "A3",
                    "midi": 57,
                    "time": 15.700944000000003,
                    "velocity": 0.36220472440944884,
                    "duration": 0.09345800000000004
                },
                {
                    "name": "G3",
                    "midi": 55,
                    "time": 15.794402000000003,
                    "velocity": 0.31496062992125984,
                    "duration": 0.09345800000000004
                },
                {
                    "name": "F#3",
                    "midi": 54,
                    "time": 15.887860000000003,
                    "velocity": 0.28346456692913385,
                    "duration": 0.09345800000000004
                },
                {
                    "name": "E3",
                    "midi": 52,
                    "time": 15.981318000000003,
                    "velocity": 0.29133858267716534,
                    "duration": 0.09345800000000004
                },
                {
                    "name": "D3",
                    "midi": 50,
                    "time": 16.074776000000004,
                    "velocity": 0.3464566929133858,
                    "duration": 0.09345799999999826
                },
                {
                    "name": "E3",
                    "midi": 52,
                    "time": 16.168234,
                    "velocity": 0.28346456692913385,
                    "duration": 0.09345799999999826
                },
                {
                    "name": "F#3",
                    "midi": 54,
                    "time": 16.261692,
                    "velocity": 0.31496062992125984,
                    "duration": 0.09345799999999826
                },
                {
                    "name": "A2",
                    "midi": 45,
                    "time": 16.35515,
                    "velocity": 0.28346456692913385,
                    "duration": 0.09345799999999826
                },
                {
                    "name": "G2",
                    "midi": 43,
                    "time": 16.448607999999997,
                    "velocity": 0.4094488188976378,
                    "duration": 0.09345800000000182
                },
                {
                    "name": "D3",
                    "midi": 50,
                    "time": 16.542066,
                    "velocity": 0.3543307086614173,
                    "duration": 0.09345799999999826
                },
                {
                    "name": "G3",
                    "midi": 55,
                    "time": 16.635523999999997,
                    "velocity": 0.3779527559055118,
                    "duration": 0.09345799999999826
                },
                {
                    "name": "A3",
                    "midi": 57,
                    "time": 16.728981999999995,
                    "velocity": 0.31496062992125984,
                    "duration": 0.09345799999999826
                },
                {
                    "name": "B3",
                    "midi": 59,
                    "time": 16.822439999999993,
                    "velocity": 0.3779527559055118,
                    "duration": 0.09345799999999826
                },
                {
                    "name": "A3",
                    "midi": 57,
                    "time": 16.91589799999999,
                    "velocity": 0.3464566929133858,
                    "duration": 0.09345799999999826
                },
                {
                    "name": "G3",
                    "midi": 55,
                    "time": 17.00935599999999,
                    "velocity": 0.3464566929133858,
                    "duration": 0.09345799999999826
                },
                {
                    "name": "E4",
                    "midi": 64,
                    "time": 17.102813999999988,
                    "velocity": 0.4094488188976378,
                    "duration": 0.09345799999999826
                },
                {
                    "name": "D4",
                    "midi": 62,
                    "time": 17.196271999999986,
                    "velocity": 0.4094488188976378,
                    "duration": 0.09345800000000182
                },
                {
                    "name": "C4",
                    "midi": 60,
                    "time": 17.289729999999988,
                    "velocity": 0.3543307086614173,
                    "duration": 0.09345799999999826
                },
                {
                    "name": "B3",
                    "midi": 59,
                    "time": 17.383187999999986,
                    "velocity": 0.3228346456692913,
                    "duration": 0.09345799999999826
                },
                {
                    "name": "A3",
                    "midi": 57,
                    "time": 17.476645999999985,
                    "velocity": 0.33070866141732286,
                    "duration": 0.09345799999999826
                },
                {
                    "name": "G3",
                    "midi": 55,
                    "time": 17.570103999999983,
                    "velocity": 0.3858267716535433,
                    "duration": 0.09345799999999826
                },
                {
                    "name": "A3",
                    "midi": 57,
                    "time": 17.66356199999998,
                    "velocity": 0.3228346456692913,
                    "duration": 0.09345799999999826
                },
                {
                    "name": "B3",
                    "midi": 59,
                    "time": 17.75701999999998,
                    "velocity": 0.3543307086614173,
                    "duration": 0.09345799999999826
                },
                {
                    "name": "D3",
                    "midi": 50,
                    "time": 17.850477999999978,
                    "velocity": 0.3228346456692913,
                    "duration": 0.09345799999999826
                },
                {
                    "name": "G2",
                    "midi": 43,
                    "time": 17.943935999999976,
                    "velocity": 0.4094488188976378,
                    "duration": 0.09345800000000182
                },
                {
                    "name": "D3",
                    "midi": 50,
                    "time": 18.037393999999978,
                    "velocity": 0.36220472440944884,
                    "duration": 0.09345799999999826
                },
                {
                    "name": "G3",
                    "midi": 55,
                    "time": 18.130851999999976,
                    "velocity": 0.3937007874015748,
                    "duration": 0.09345799999999826
                },
                {
                    "name": "A3",
                    "midi": 57,
                    "time": 18.224309999999974,
                    "velocity": 0.3464566929133858,
                    "duration": 0.09345799999999826
                },
                {
                    "name": "B3",
                    "midi": 59,
                    "time": 18.317767999999973,
                    "velocity": 0.4330708661417323,
                    "duration": 0.09345799999999826
                },
                {
                    "name": "A3",
                    "midi": 57,
                    "time": 18.41122599999997,
                    "velocity": 0.41732283464566927,
                    "duration": 0.09345799999999826
                },
                {
                    "name": "G3",
                    "midi": 55,
                    "time": 18.50468399999997,
                    "velocity": 0.4330708661417323,
                    "duration": 0.09345799999999826
                },
                {
                    "name": "E4",
                    "midi": 64,
                    "time": 18.598141999999967,
                    "velocity": 0.5354330708661418,
                    "duration": 0.09345799999999826
                },
                {
                    "name": "D4",
                    "midi": 62,
                    "time": 18.691599999999966,
                    "velocity": 0.5511811023622047,
                    "duration": 0.09345800000000182
                },
                {
                    "name": "C4",
                    "midi": 60,
                    "time": 18.785057999999967,
                    "velocity": 0.48031496062992124,
                    "duration": 0.09345799999999826
                },
                {
                    "name": "B3",
                    "midi": 59,
                    "time": 18.878515999999966,
                    "velocity": 0.4330708661417323,
                    "duration": 0.09345799999999826
                },
                {
                    "name": "A3",
                    "midi": 57,
                    "time": 18.971973999999964,
                    "velocity": 0.4409448818897638,
                    "duration": 0.09345799999999826
                },
                {
                    "name": "G3",
                    "midi": 55,
                    "time": 19.065431999999962,
                    "velocity": 0.5196850393700787,
                    "duration": 0.09345799999999826
                },
                {
                    "name": "A3",
                    "midi": 57,
                    "time": 19.15888999999996,
                    "velocity": 0.4330708661417323,
                    "duration": 0.09345799999999826
                },
                {
                    "name": "B3",
                    "midi": 59,
                    "time": 19.25234799999996,
                    "velocity": 0.47244094488188976,
                    "duration": 0.09345799999999826
                },
                {
                    "name": "D3",
                    "midi": 50,
                    "time": 19.345805999999957,
                    "velocity": 0.4330708661417323,
                    "duration": 0.09345799999999826
                },
                {
                    "name": "G2",
                    "midi": 43,
                    "time": 19.439263999999955,
                    "velocity": 0.5354330708661418,
                    "duration": 0.09345800000000182
                },
                {
                    "name": "D3",
                    "midi": 50,
                    "time": 19.532721999999957,
                    "velocity": 0.4566929133858268,
                    "duration": 0.09345799999999826
                },
                {
                    "name": "G3",
                    "midi": 55,
                    "time": 19.626179999999955,
                    "velocity": 0.47244094488188976,
                    "duration": 0.09345799999999826
                },
                {
                    "name": "A3",
                    "midi": 57,
                    "time": 19.719637999999954,
                    "velocity": 0.3858267716535433,
                    "duration": 0.09345799999999826
                },
                {
                    "name": "B3",
                    "midi": 59,
                    "time": 19.813095999999952,
                    "velocity": 0.4566929133858268,
                    "duration": 0.09345799999999826
                },
                {
                    "name": "A3",
                    "midi": 57,
                    "time": 19.90655399999995,
                    "velocity": 0.4094488188976378,
                    "duration": 0.09345799999999826
                },
                {
                    "name": "G3",
                    "midi": 55,
                    "time": 20.00001199999995,
                    "velocity": 0.4094488188976378,
                    "duration": 0.09345799999999826
                },
                {
                    "name": "E4",
                    "midi": 64,
                    "time": 20.093469999999947,
                    "velocity": 0.47244094488188976,
                    "duration": 0.09345799999999826
                },
                {
                    "name": "D4",
                    "midi": 62,
                    "time": 20.186927999999945,
                    "velocity": 0.47244094488188976,
                    "duration": 0.09345799999999826
                },
                {
                    "name": "C4",
                    "midi": 60,
                    "time": 20.280385999999943,
                    "velocity": 0.3937007874015748,
                    "duration": 0.09345799999999826
                },
                {
                    "name": "B3",
                    "midi": 59,
                    "time": 20.37384399999994,
                    "velocity": 0.3543307086614173,
                    "duration": 0.09345799999999826
                },
                {
                    "name": "A3",
                    "midi": 57,
                    "time": 20.46730199999994,
                    "velocity": 0.3543307086614173,
                    "duration": 0.09345799999999826
                },
                {
                    "name": "G3",
                    "midi": 55,
                    "time": 20.560759999999938,
                    "velocity": 0.4094488188976378,
                    "duration": 0.09345799999999826
                },
                {
                    "name": "A3",
                    "midi": 57,
                    "time": 20.654217999999936,
                    "velocity": 0.33070866141732286,
                    "duration": 0.09345799999999826
                },
                {
                    "name": "B3",
                    "midi": 59,
                    "time": 20.747675999999935,
                    "velocity": 0.36220472440944884,
                    "duration": 0.09345799999999826
                },
                {
                    "name": "D3",
                    "midi": 50,
                    "time": 20.841133999999933,
                    "velocity": 0.3228346456692913,
                    "duration": 0.09345799999999826
                },
                {
                    "name": "G2",
                    "midi": 43,
                    "time": 20.93459199999993,
                    "velocity": 0.36220472440944884,
                    "duration": 0.09345799999999826
                },
                {
                    "name": "D3",
                    "midi": 50,
                    "time": 21.02804999999993,
                    "velocity": 0.31496062992125984,
                    "duration": 0.09345799999999826
                },
                {
                    "name": "G3",
                    "midi": 55,
                    "time": 21.121507999999928,
                    "velocity": 0.33070866141732286,
                    "duration": 0.09345799999999826
                },
                {
                    "name": "A3",
                    "midi": 57,
                    "time": 21.214965999999926,
                    "velocity": 0.2992125984251969,
                    "duration": 0.09345799999999826
                },
                {
                    "name": "B3",
                    "midi": 59,
                    "time": 21.308423999999924,
                    "velocity": 0.36220472440944884,
                    "duration": 0.09345799999999826
                },
                {
                    "name": "A3",
                    "midi": 57,
                    "time": 21.401881999999922,
                    "velocity": 0.33070866141732286,
                    "duration": 0.09345799999999826
                },
                {
                    "name": "G3",
                    "midi": 55,
                    "time": 21.49533999999992,
                    "velocity": 0.3464566929133858,
                    "duration": 0.09345799999999826
                },
                {
                    "name": "E4",
                    "midi": 64,
                    "time": 21.58879799999992,
                    "velocity": 0.41732283464566927,
                    "duration": 0.09345799999999826
                },
                {
                    "name": "D4",
                    "midi": 62,
                    "time": 21.682255999999917,
                    "velocity": 0.4330708661417323,
                    "duration": 0.10903433333333012
                },
                {
                    "name": "C4",
                    "midi": 60,
                    "time": 21.775713999999915,
                    "velocity": 0.3779527559055118,
                    "duration": 0.10903433333333012
                },
                {
                    "name": "B3",
                    "midi": 59,
                    "time": 21.869171999999914,
                    "velocity": 0.3228346456692913,
                    "duration": 0.10903433333333012
                },
                {
                    "name": "A3",
                    "midi": 57,
                    "time": 21.962629999999912,
                    "velocity": 0.33070866141732286,
                    "duration": 0.10903433333333012
                },
                {
                    "name": "G3",
                    "midi": 55,
                    "time": 22.05608799999991,
                    "velocity": 0.3779527559055118,
                    "duration": 0.10903433333333012
                },
                {
                    "name": "A3",
                    "midi": 57,
                    "time": 22.14954599999991,
                    "velocity": 0.30708661417322836,
                    "duration": 0.10903433333333012
                },
                {
                    "name": "B3",
                    "midi": 59,
                    "time": 22.243003999999907,
                    "velocity": 0.3228346456692913,
                    "duration": 0.10903433333333012
                },
                {
                    "name": "D3",
                    "midi": 50,
                    "time": 22.336461999999905,
                    "velocity": 0.29133858267716534,
                    "duration": 0.10903433333333012
                },
                {
                    "name": "G2",
                    "midi": 43,
                    "time": 22.429919999999903,
                    "velocity": 0.3228346456692913,
                    "duration": 0.09345799999999826
                },
                {
                    "name": "D3",
                    "midi": 50,
                    "time": 22.5233779999999,
                    "velocity": 0.28346456692913385,
                    "duration": 0.09345799999999826
                },
                {
                    "name": "G3",
                    "midi": 55,
                    "time": 22.6168359999999,
                    "velocity": 0.2992125984251969,
                    "duration": 0.09345799999999826
                },
                {
                    "name": "A3",
                    "midi": 57,
                    "time": 22.710293999999898,
                    "velocity": 0.23622047244094488,
                    "duration": 0.09345799999999826
                },
                {
                    "name": "B3",
                    "midi": 59,
                    "time": 22.803751999999896,
                    "velocity": 0.2992125984251969,
                    "duration": 0.09345799999999826
                },
                {
                    "name": "A3",
                    "midi": 57,
                    "time": 22.897209999999895,
                    "velocity": 0.2677165354330709,
                    "duration": 0.09345799999999826
                },
                {
                    "name": "G3",
                    "midi": 55,
                    "time": 22.990667999999893,
                    "velocity": 0.2677165354330709,
                    "duration": 0.09345799999999826
                },
                {
                    "name": "E4",
                    "midi": 64,
                    "time": 23.08412599999989,
                    "velocity": 0.33070866141732286,
                    "duration": 0.09345799999999826
                },
                {
                    "name": "D4",
                    "midi": 62,
                    "time": 23.17758399999989,
                    "velocity": 0.33070866141732286,
                    "duration": 0.09345800000000182
                },
                {
                    "name": "C4",
                    "midi": 60,
                    "time": 23.27104199999989,
                    "velocity": 0.29133858267716534,
                    "duration": 0.09345799999999826
                },
                {
                    "name": "B3",
                    "midi": 59,
                    "time": 23.36449999999989,
                    "velocity": 0.2440944881889764,
                    "duration": 0.09345799999999826
                },
                {
                    "name": "A3",
                    "midi": 57,
                    "time": 23.457957999999888,
                    "velocity": 0.2677165354330709,
                    "duration": 0.09345799999999826
                },
                {
                    "name": "G3",
                    "midi": 55,
                    "time": 23.551415999999886,
                    "velocity": 0.3228346456692913,
                    "duration": 0.09345799999999826
                },
                {
                    "name": "A3",
                    "midi": 57,
                    "time": 23.644873999999884,
                    "velocity": 0.2677165354330709,
                    "duration": 0.09345799999999826
                },
                {
                    "name": "B3",
                    "midi": 59,
                    "time": 23.738331999999883,
                    "velocity": 0.2992125984251969,
                    "duration": 0.09345799999999826
                },
                {
                    "name": "D3",
                    "midi": 50,
                    "time": 23.83178999999988,
                    "velocity": 0.2677165354330709,
                    "duration": 0.09345799999999826
                },
                {
                    "name": "G2",
                    "midi": 43,
                    "time": 23.92524799999988,
                    "velocity": 0.3464566929133858,
                    "duration": 0.09345799999999826
                },
                {
                    "name": "D3",
                    "midi": 50,
                    "time": 24.018705999999877,
                    "velocity": 0.30708661417322836,
                    "duration": 0.09345799999999826
                },
                {
                    "name": "G3",
                    "midi": 55,
                    "time": 24.112163999999876,
                    "velocity": 0.3228346456692913,
                    "duration": 0.09345799999999826
                },
                {
                    "name": "A3",
                    "midi": 57,
                    "time": 24.205621999999874,
                    "velocity": 0.2440944881889764,
                    "duration": 0.09345799999999826
                },
                {
                    "name": "B3",
                    "midi": 59,
                    "time": 24.299079999999872,
                    "velocity": 0.3228346456692913,
                    "duration": 0.09345799999999826
                },
                {
                    "name": "A3",
                    "midi": 57,
                    "time": 24.39253799999987,
                    "velocity": 0.2992125984251969,
                    "duration": 0.09345799999999826
                },
                {
                    "name": "G3",
                    "midi": 55,
                    "time": 24.48599599999987,
                    "velocity": 0.2992125984251969,
                    "duration": 0.09345799999999826
                },
                {
                    "name": "E4",
                    "midi": 64,
                    "time": 24.579453999999867,
                    "velocity": 0.33070866141732286,
                    "duration": 0.09345799999999826
                },
                {
                    "name": "D4",
                    "midi": 62,
                    "time": 24.672911999999865,
                    "velocity": 0.3543307086614173,
                    "duration": 0.09345799999999826
                },
                {
                    "name": "C4",
                    "midi": 60,
                    "time": 24.766369999999863,
                    "velocity": 0.31496062992125984,
                    "duration": 0.09345799999999826
                },
                {
                    "name": "B3",
                    "midi": 59,
                    "time": 24.85982799999986,
                    "velocity": 0.29133858267716534,
                    "duration": 0.09345799999999826
                },
                {
                    "name": "A3",
                    "midi": 57,
                    "time": 24.95328599999986,
                    "velocity": 0.2992125984251969,
                    "duration": 0.09345799999999826
                },
                {
                    "name": "G3",
                    "midi": 55,
                    "time": 25.04674399999986,
                    "velocity": 0.3464566929133858,
                    "duration": 0.09345799999999826
                },
                {
                    "name": "A3",
                    "midi": 57,
                    "time": 25.140201999999856,
                    "velocity": 0.2992125984251969,
                    "duration": 0.09345799999999826
                },
                {
                    "name": "B3",
                    "midi": 59,
                    "time": 25.233659999999855,
                    "velocity": 0.3228346456692913,
                    "duration": 0.09345799999999826
                },
                {
                    "name": "G2",
                    "midi": 43,
                    "time": 25.327117999999853,
                    "velocity": 0.2992125984251969,
                    "duration": 0.09345799999999826
                },
                {
                    "name": "C2",
                    "midi": 36,
                    "time": 25.42057599999985,
                    "velocity": 0.3464566929133858,
                    "duration": 0.09345800000000182
                },
                {
                    "name": "G2",
                    "midi": 43,
                    "time": 25.514033999999853,
                    "velocity": 0.30708661417322836,
                    "duration": 0.10903433333333012
                },
                {
                    "name": "C3",
                    "midi": 48,
                    "time": 25.60749199999985,
                    "velocity": 0.36220472440944884,
                    "duration": 0.10903433333333012
                },
                {
                    "name": "D3",
                    "midi": 50,
                    "time": 25.70094999999985,
                    "velocity": 0.3228346456692913,
                    "duration": 0.10903433333333012
                },
                {
                    "name": "E3",
                    "midi": 52,
                    "time": 25.794407999999848,
                    "velocity": 0.3858267716535433,
                    "duration": 0.10903433333333012
                },
                {
                    "name": "D3",
                    "midi": 50,
                    "time": 25.887865999999846,
                    "velocity": 0.3543307086614173,
                    "duration": 0.10903433333333012
                },
                {
                    "name": "C3",
                    "midi": 48,
                    "time": 25.981323999999844,
                    "velocity": 0.3543307086614173,
                    "duration": 0.10903433333333012
                },
                {
                    "name": "A3",
                    "midi": 57,
                    "time": 26.074781999999843,
                    "velocity": 0.41732283464566927,
                    "duration": 0.10903433333333012
                },
                {
                    "name": "G3",
                    "midi": 55,
                    "time": 26.16823999999984,
                    "velocity": 0.41732283464566927,
                    "duration": 0.10903433333333012
                },
                {
                    "name": "F3",
                    "midi": 53,
                    "time": 26.26169799999984,
                    "velocity": 0.3543307086614173,
                    "duration": 0.10903433333333012
                },
                {
                    "name": "E3",
                    "midi": 52,
                    "time": 26.355155999999837,
                    "velocity": 0.31496062992125984,
                    "duration": 0.10903433333333012
                },
                {
                    "name": "D3",
                    "midi": 50,
                    "time": 26.448613999999836,
                    "velocity": 0.3228346456692913,
                    "duration": 0.10903433333333012
                },
                {
                    "name": "C3",
                    "midi": 48,
                    "time": 26.542071999999834,
                    "velocity": 0.3858267716535433,
                    "duration": 0.10903433333333012
                },
                {
                    "name": "D3",
                    "midi": 50,
                    "time": 26.635529999999832,
                    "velocity": 0.31496062992125984,
                    "duration": 0.10903433333333012
                },
                {
                    "name": "E3",
                    "midi": 52,
                    "time": 26.72898799999983,
                    "velocity": 0.3464566929133858,
                    "duration": 0.10903433333333012
                },
                {
                    "name": "G2",
                    "midi": 43,
                    "time": 26.82244599999983,
                    "velocity": 0.31496062992125984,
                    "duration": 0.10903433333333012
                },
                {
                    "name": "C2",
                    "midi": 36,
                    "time": 26.915903999999827,
                    "velocity": 0.3937007874015748,
                    "duration": 0.10903433333333012
                },
                {
                    "name": "G2",
                    "midi": 43,
                    "time": 27.009361999999825,
                    "velocity": 0.3464566929133858,
                    "duration": 0.10903433333333012
                },
                {
                    "name": "C3",
                    "midi": 48,
                    "time": 27.102819999999824,
                    "velocity": 0.3543307086614173,
                    "duration": 0.10903433333333012
                },
                {
                    "name": "D3",
                    "midi": 50,
                    "time": 27.196277999999822,
                    "velocity": 0.29133858267716534,
                    "duration": 0.10903433333333368
                },
                {
                    "name": "E3",
                    "midi": 52,
                    "time": 27.28973599999982,
                    "velocity": 0.3543307086614173,
                    "duration": 0.10903433333333368
                },
                {
                    "name": "D3",
                    "midi": 50,
                    "time": 27.383193999999822,
                    "velocity": 0.3228346456692913,
                    "duration": 0.10903433333333012
                },
                {
                    "name": "C3",
                    "midi": 48,
                    "time": 27.47665199999982,
                    "velocity": 0.31496062992125984,
                    "duration": 0.10903433333333012
                },
                {
                    "name": "A3",
                    "midi": 57,
                    "time": 27.57010999999982,
                    "velocity": 0.3858267716535433,
                    "duration": 0.10903433333333012
                },
                {
                    "name": "G3",
                    "midi": 55,
                    "time": 27.663567999999817,
                    "velocity": 0.3779527559055118,
                    "duration": 0.10903433333333012
                },
                {
                    "name": "F3",
                    "midi": 53,
                    "time": 27.757025999999815,
                    "velocity": 0.3228346456692913,
                    "duration": 0.10903433333333012
                },
                {
                    "name": "E3",
                    "midi": 52,
                    "time": 27.850483999999813,
                    "velocity": 0.29133858267716534,
                    "duration": 0.10903433333333012
                },
                {
                    "name": "D3",
                    "midi": 50,
                    "time": 27.94394199999981,
                    "velocity": 0.29133858267716534,
                    "duration": 0.10903433333333012
                },
                {
                    "name": "C3",
                    "midi": 48,
                    "time": 28.03739999999981,
                    "velocity": 0.3464566929133858,
                    "duration": 0.10903433333333012
                },
                {
                    "name": "D3",
                    "midi": 50,
                    "time": 28.130857999999808,
                    "velocity": 0.28346456692913385,
                    "duration": 0.10903433333333012
                },
                {
                    "name": "E3",
                    "midi": 52,
                    "time": 28.224315999999806,
                    "velocity": 0.31496062992125984,
                    "duration": 0.10903433333333012
                },
                {
                    "name": "G2",
                    "midi": 43,
                    "time": 28.317773999999805,
                    "velocity": 0.28346456692913385,
                    "duration": 0.10903433333333012
                },
                {
                    "name": "C2",
                    "midi": 36,
                    "time": 28.411231999999803,
                    "velocity": 0.36220472440944884,
                    "duration": 0.09345799999999826
                },
                {
                    "name": "G2",
                    "midi": 43,
                    "time": 28.5046899999998,
                    "velocity": 0.31496062992125984,
                    "duration": 0.09345799999999826
                },
                {
                    "name": "C3",
                    "midi": 48,
                    "time": 28.5981479999998,
                    "velocity": 0.33070866141732286,
                    "duration": 0.09345799999999826
                },
                {
                    "name": "D3",
                    "midi": 50,
                    "time": 28.691605999999798,
                    "velocity": 0.2677165354330709,
                    "duration": 0.09345799999999826
                },
                {
                    "name": "E3",
                    "midi": 52,
                    "time": 28.785063999999796,
                    "velocity": 0.33070866141732286,
                    "duration": 0.09345799999999826
                },
                {
                    "name": "D3",
                    "midi": 50,
                    "time": 28.878521999999794,
                    "velocity": 0.30708661417322836,
                    "duration": 0.09345799999999826
                },
                {
                    "name": "C3",
                    "midi": 48,
                    "time": 28.971979999999792,
                    "velocity": 0.30708661417322836,
                    "duration": 0.09345799999999826
                },
                {
                    "name": "A3",
                    "midi": 57,
                    "time": 29.06543799999979,
                    "velocity": 0.3779527559055118,
                    "duration": 0.09345799999999826
                },
                {
                    "name": "G3",
                    "midi": 55,
                    "time": 29.15889599999979,
                    "velocity": 0.3779527559055118,
                    "duration": 0.09345799999999826
                },
                {
                    "name": "F3",
                    "midi": 53,
                    "time": 29.252353999999787,
                    "velocity": 0.3228346456692913,
                    "duration": 0.09345799999999826
                },
                {
                    "name": "E3",
                    "midi": 52,
                    "time": 29.345811999999786,
                    "velocity": 0.29133858267716534,
                    "duration": 0.09345799999999826
                },
                {
                    "name": "D3",
                    "midi": 50,
                    "time": 29.439269999999784,
                    "velocity": 0.30708661417322836,
                    "duration": 0.09345799999999826
                },
                {
                    "name": "C3",
                    "midi": 48,
                    "time": 29.532727999999782,
                    "velocity": 0.36220472440944884,
                    "duration": 0.09345799999999826
                },
                {
                    "name": "D3",
                    "midi": 50,
                    "time": 29.62618599999978,
                    "velocity": 0.30708661417322836,
                    "duration": 0.09345799999999826
                },
                {
                    "name": "E3",
                    "midi": 52,
                    "time": 29.71964399999978,
                    "velocity": 0.33070866141732286,
                    "duration": 0.09345799999999826
                },
                {
                    "name": "G2",
                    "midi": 43,
                    "time": 29.813101999999777,
                    "velocity": 0.30708661417322836,
                    "duration": 0.09345799999999826
                },
                {
                    "name": "C2",
                    "midi": 36,
                    "time": 29.906559999999775,
                    "velocity": 0.3937007874015748,
                    "duration": 0.09345800000000182
                },
                {
                    "name": "G2",
                    "midi": 43,
                    "time": 30.000017999999777,
                    "velocity": 0.3464566929133858,
                    "duration": 0.09345799999999826
                },
                {
                    "name": "C3",
                    "midi": 48,
                    "time": 30.093475999999775,
                    "velocity": 0.3779527559055118,
                    "duration": 0.09345799999999826
                },
                {
                    "name": "D3",
                    "midi": 50,
                    "time": 30.186933999999773,
                    "velocity": 0.31496062992125984,
                    "duration": 0.09345799999999826
                },
                {
                    "name": "E3",
                    "midi": 52,
                    "time": 30.28039199999977,
                    "velocity": 0.3937007874015748,
                    "duration": 0.09345799999999826
                },
                {
                    "name": "D3",
                    "midi": 50,
                    "time": 30.37384999999977,
                    "velocity": 0.3779527559055118,
                    "duration": 0.09345799999999826
                },
                {
                    "name": "C3",
                    "midi": 48,
                    "time": 30.46730799999977,
                    "velocity": 0.3858267716535433,
                    "duration": 0.09345799999999826
                },
                {
                    "name": "A3",
                    "midi": 57,
                    "time": 30.560765999999767,
                    "velocity": 0.49606299212598426,
                    "duration": 0.09345799999999826
                },
                {
                    "name": "G3",
                    "midi": 55,
                    "time": 30.654223999999765,
                    "velocity": 0.49606299212598426,
                    "duration": 0.09345800000000182
                },
                {
                    "name": "F3",
                    "midi": 53,
                    "time": 30.747681999999767,
                    "velocity": 0.4094488188976378,
                    "duration": 0.09345799999999826
                },
                {
                    "name": "E3",
                    "midi": 52,
                    "time": 30.841139999999765,
                    "velocity": 0.36220472440944884,
                    "duration": 0.09345799999999826
                },
                {
                    "name": "D3",
                    "midi": 50,
                    "time": 30.934597999999763,
                    "velocity": 0.36220472440944884,
                    "duration": 0.09345799999999826
                },
                {
                    "name": "C3",
                    "midi": 48,
                    "time": 31.02805599999976,
                    "velocity": 0.4330708661417323,
                    "duration": 0.09345799999999826
                },
                {
                    "name": "D3",
                    "midi": 50,
                    "time": 31.12151399999976,
                    "velocity": 0.3464566929133858,
                    "duration": 0.09345799999999826
                },
                {
                    "name": "E3",
                    "midi": 52,
                    "time": 31.214971999999758,
                    "velocity": 0.3779527559055118,
                    "duration": 0.09345799999999826
                },
                {
                    "name": "G2",
                    "midi": 43,
                    "time": 31.308429999999756,
                    "velocity": 0.33070866141732286,
                    "duration": 0.09345799999999826
                },
                {
                    "name": "C2",
                    "midi": 36,
                    "time": 31.401887999999754,
                    "velocity": 0.4409448818897638,
                    "duration": 0.09345800000000182
                },
                {
                    "name": "G2",
                    "midi": 43,
                    "time": 31.495345999999756,
                    "velocity": 0.3779527559055118,
                    "duration": 0.09345799999999826
                },
                {
                    "name": "C3",
                    "midi": 48,
                    "time": 31.588803999999755,
                    "velocity": 0.3937007874015748,
                    "duration": 0.09345799999999826
                },
                {
                    "name": "D3",
                    "midi": 50,
                    "time": 31.682261999999753,
                    "velocity": 0.3228346456692913,
                    "duration": 0.09345799999999826
                },
                {
                    "name": "E3",
                    "midi": 52,
                    "time": 31.77571999999975,
                    "velocity": 0.3858267716535433,
                    "duration": 0.10903433333333368
                },
                {
                    "name": "D3",
                    "midi": 50,
                    "time": 31.869177999999753,
                    "velocity": 0.3543307086614173,
                    "duration": 0.10903433333333012
                },
                {
                    "name": "C3",
                    "midi": 48,
                    "time": 31.96263599999975,
                    "velocity": 0.3543307086614173,
                    "duration": 0.10903433333333723
                },
                {
                    "name": "A3",
                    "midi": 57,
                    "time": 32.05609399999975,
                    "velocity": 0.41732283464566927,
                    "duration": 0.10903433333334078
                },
                {
                    "name": "G3",
                    "midi": 55,
                    "time": 32.14955199999976,
                    "velocity": 0.41732283464566927,
                    "duration": 0.10903433333334078
                },
                {
                    "name": "F#3",
                    "midi": 54,
                    "time": 32.243009999999764,
                    "velocity": 0.3543307086614173,
                    "duration": 0.10903433333334078
                },
                {
                    "name": "E3",
                    "midi": 52,
                    "time": 32.33646799999977,
                    "velocity": 0.31496062992125984,
                    "duration": 0.10903433333334078
                },
                {
                    "name": "D3",
                    "midi": 50,
                    "time": 32.429925999999774,
                    "velocity": 0.3228346456692913,
                    "duration": 0.10903433333334078
                },
                {
                    "name": "C3",
                    "midi": 48,
                    "time": 32.52338399999978,
                    "velocity": 0.3858267716535433,
                    "duration": 0.10903433333334078
                },
                {
                    "name": "D3",
                    "midi": 50,
                    "time": 32.616841999999785,
                    "velocity": 0.31496062992125984,
                    "duration": 0.10903433333334078
                },
                {
                    "name": "E3",
                    "midi": 52,
                    "time": 32.71029999999979,
                    "velocity": 0.3464566929133858,
                    "duration": 0.10903433333334078
                },
                {
                    "name": "G2",
                    "midi": 43,
                    "time": 32.803757999999796,
                    "velocity": 0.31496062992125984,
                    "duration": 0.10903433333334078
                },
                {
                    "name": "C2",
                    "midi": 36,
                    "time": 32.8972159999998,
                    "velocity": 0.3937007874015748,
                    "duration": 0.09345800000000537
                },
                {
                    "name": "G2",
                    "midi": 43,
                    "time": 32.99067399999981,
                    "velocity": 0.3464566929133858,
                    "duration": 0.09345799999999826
                },
                {
                    "name": "C3",
                    "midi": 48,
                    "time": 33.084131999999805,
                    "velocity": 0.3543307086614173,
                    "duration": 0.09345799999999826
                },
                {
                    "name": "D3",
                    "midi": 50,
                    "time": 33.1775899999998,
                    "velocity": 0.29133858267716534,
                    "duration": 0.09345799999999826
                },
                {
                    "name": "E3",
                    "midi": 52,
                    "time": 33.2710479999998,
                    "velocity": 0.3543307086614173,
                    "duration": 0.10903433333333368
                },
                {
                    "name": "D3",
                    "midi": 50,
                    "time": 33.3645059999998,
                    "velocity": 0.3228346456692913,
                    "duration": 0.10903433333334078
                },
                {
                    "name": "C3",
                    "midi": 48,
                    "time": 33.457963999999805,
                    "velocity": 0.31496062992125984,
                    "duration": 0.10903433333334078
                },
                {
                    "name": "A3",
                    "midi": 57,
                    "time": 33.55142199999981,
                    "velocity": 0.3858267716535433,
                    "duration": 0.10903433333334078
                },
                {
                    "name": "G3",
                    "midi": 55,
                    "time": 33.644879999999816,
                    "velocity": 0.3779527559055118,
                    "duration": 0.10903433333334078
                },
                {
                    "name": "F#3",
                    "midi": 54,
                    "time": 33.73833799999982,
                    "velocity": 0.3228346456692913,
                    "duration": 0.10903433333334078
                },
                {
                    "name": "E3",
                    "midi": 52,
                    "time": 33.83179599999983,
                    "velocity": 0.29133858267716534,
                    "duration": 0.10903433333334078
                },
                {
                    "name": "D3",
                    "midi": 50,
                    "time": 33.92525399999983,
                    "velocity": 0.29133858267716534,
                    "duration": 0.10903433333334078
                },
                {
                    "name": "C3",
                    "midi": 48,
                    "time": 34.01871199999984,
                    "velocity": 0.3464566929133858,
                    "duration": 0.10903433333334078
                },
                {
                    "name": "D3",
                    "midi": 50,
                    "time": 34.11216999999984,
                    "velocity": 0.28346456692913385,
                    "duration": 0.10903433333334078
                },
                {
                    "name": "E3",
                    "midi": 52,
                    "time": 34.20562799999985,
                    "velocity": 0.31496062992125984,
                    "duration": 0.10903433333334078
                },
                {
                    "name": "G2",
                    "midi": 43,
                    "time": 34.29908599999985,
                    "velocity": 0.28346456692913385,
                    "duration": 0.10903433333334078
                },
                {
                    "name": "D2",
                    "midi": 38,
                    "time": 34.39254399999986,
                    "velocity": 0.3937007874015748,
                    "duration": 0.09345800000000537
                },
                {
                    "name": "A2",
                    "midi": 45,
                    "time": 34.486001999999864,
                    "velocity": 0.3464566929133858,
                    "duration": 0.09345799999999826
                },
                {
                    "name": "C3",
                    "midi": 48,
                    "time": 34.57945999999986,
                    "velocity": 0.3543307086614173,
                    "duration": 0.09345799999999826
                },
                {
                    "name": "D3",
                    "midi": 50,
                    "time": 34.67291799999986,
                    "velocity": 0.29133858267716534,
                    "duration": 0.09345799999999826
                },
                {
                    "name": "E3",
                    "midi": 52,
                    "time": 34.76637599999986,
                    "velocity": 0.3543307086614173,
                    "duration": 0.09345799999999826
                },
                {
                    "name": "D3",
                    "midi": 50,
                    "time": 34.85983399999986,
                    "velocity": 0.3228346456692913,
                    "duration": 0.09345799999999826
                },
                {
                    "name": "C3",
                    "midi": 48,
                    "time": 34.953291999999855,
                    "velocity": 0.31496062992125984,
                    "duration": 0.09345799999999826
                },
                {
                    "name": "B3",
                    "midi": 59,
                    "time": 35.046749999999854,
                    "velocity": 0.3858267716535433,
                    "duration": 0.09345799999999826
                },
                {
                    "name": "A3",
                    "midi": 57,
                    "time": 35.14020799999985,
                    "velocity": 0.3779527559055118,
                    "duration": 0.10903433333333368
                },
                {
                    "name": "G3",
                    "midi": 55,
                    "time": 35.23366599999985,
                    "velocity": 0.3228346456692913,
                    "duration": 0.10903433333334078
                },
                {
                    "name": "E3",
                    "midi": 52,
                    "time": 35.327123999999856,
                    "velocity": 0.29133858267716534,
                    "duration": 0.10903433333334078
                },
                {
                    "name": "D3",
                    "midi": 50,
                    "time": 35.42058199999986,
                    "velocity": 0.29133858267716534,
                    "duration": 0.10903433333334078
                },
                {
                    "name": "C3",
                    "midi": 48,
                    "time": 35.514039999999866,
                    "velocity": 0.3464566929133858,
                    "duration": 0.10903433333334078
                },
                {
                    "name": "D3",
                    "midi": 50,
                    "time": 35.60749799999987,
                    "velocity": 0.28346456692913385,
                    "duration": 0.10903433333334078
                },
                {
                    "name": "E3",
                    "midi": 52,
                    "time": 35.70095599999988,
                    "velocity": 0.31496062992125984,
                    "duration": 0.10903433333334078
                },
                {
                    "name": "A2",
                    "midi": 45,
                    "time": 35.79441399999988,
                    "velocity": 0.28346456692913385,
                    "duration": 0.10903433333334078
                },
                {
                    "name": "D2",
                    "midi": 38,
                    "time": 35.88787199999989,
                    "velocity": 0.3937007874015748,
                    "duration": 0.09345799999999826
                },
                {
                    "name": "A2",
                    "midi": 45,
                    "time": 35.981329999999886,
                    "velocity": 0.3464566929133858,
                    "duration": 0.09345799999999826
                },
                {
                    "name": "D3",
                    "midi": 50,
                    "time": 36.074787999999884,
                    "velocity": 0.3543307086614173,
                    "duration": 0.09345799999999826
                },
                {
                    "name": "E3",
                    "midi": 52,
                    "time": 36.16824599999988,
                    "velocity": 0.29133858267716534,
                    "duration": 0.09345799999999826
                },
                {
                    "name": "F#3",
                    "midi": 54,
                    "time": 36.26170399999988,
                    "velocity": 0.3543307086614173,
                    "duration": 0.10903433333333368
                },
                {
                    "name": "E3",
                    "midi": 52,
                    "time": 36.35516199999988,
                    "velocity": 0.3228346456692913,
                    "duration": 0.10903433333334078
                },
                {
                    "name": "D3",
                    "midi": 50,
                    "time": 36.448619999999885,
                    "velocity": 0.31496062992125984,
                    "duration": 0.10903433333334078
                },
                {
                    "name": "B3",
                    "midi": 59,
                    "time": 36.54207799999989,
                    "velocity": 0.3858267716535433,
                    "duration": 0.10903433333334078
                },
                {
                    "name": "A3",
                    "midi": 57,
                    "time": 36.635535999999895,
                    "velocity": 0.3779527559055118,
                    "duration": 0.10903433333334078
                },
                {
                    "name": "G3",
                    "midi": 55,
                    "time": 36.7289939999999,
                    "velocity": 0.3228346456692913,
                    "duration": 0.10903433333334078
                },
                {
                    "name": "F#3",
                    "midi": 54,
                    "time": 36.822451999999906,
                    "velocity": 0.29133858267716534,
                    "duration": 0.10903433333334078
                },
                {
                    "name": "E3",
                    "midi": 52,
                    "time": 36.91590999999991,
                    "velocity": 0.29133858267716534,
                    "duration": 0.10903433333334078
                },
                {
                    "name": "D3",
                    "midi": 50,
                    "time": 37.00936799999992,
                    "velocity": 0.3464566929133858,
                    "duration": 0.10903433333334078
                },
                {
                    "name": "E3",
                    "midi": 52,
                    "time": 37.10282599999992,
                    "velocity": 0.28346456692913385,
                    "duration": 0.10903433333334078
                },
                {
                    "name": "F#3",
                    "midi": 54,
                    "time": 37.19628399999993,
                    "velocity": 0.31496062992125984,
                    "duration": 0.10903433333334078
                },
                {
                    "name": "A2",
                    "midi": 45,
                    "time": 37.28974199999993,
                    "velocity": 0.28346456692913385,
                    "duration": 0.10903433333334078
                },
                {
                    "name": "G2",
                    "midi": 43,
                    "time": 37.38319999999994,
                    "velocity": 0.3937007874015748,
                    "duration": 0.09345799999999826
                },
                {
                    "name": "D3",
                    "midi": 50,
                    "time": 37.47665799999994,
                    "velocity": 0.3464566929133858,
                    "duration": 0.09345799999999826
                },
                {
                    "name": "G3",
                    "midi": 55,
                    "time": 37.570115999999935,
                    "velocity": 0.3543307086614173,
                    "duration": 0.09345799999999826
                },
                {
                    "name": "A3",
                    "midi": 57,
                    "time": 37.66357399999993,
                    "velocity": 0.29133858267716534,
                    "duration": 0.09345799999999826
                },
                {
                    "name": "B3",
                    "midi": 59,
                    "time": 37.75703199999993,
                    "velocity": 0.3543307086614173,
                    "duration": 0.10903433333333368
                },
                {
                    "name": "A3",
                    "midi": 57,
                    "time": 37.85048999999993,
                    "velocity": 0.3228346456692913,
                    "duration": 0.10903433333334078
                },
                {
                    "name": "G3",
                    "midi": 55,
                    "time": 37.943947999999935,
                    "velocity": 0.31496062992125984,
                    "duration": 0.10903433333334078
                },
                {
                    "name": "E4",
                    "midi": 64,
                    "time": 38.03740599999994,
                    "velocity": 0.3858267716535433,
                    "duration": 0.10903433333334078
                },
                {
                    "name": "D4",
                    "midi": 62,
                    "time": 38.130863999999946,
                    "velocity": 0.3779527559055118,
                    "duration": 0.10903433333334078
                },
                {
                    "name": "C4",
                    "midi": 60,
                    "time": 38.22432199999995,
                    "velocity": 0.3228346456692913,
                    "duration": 0.10903433333334078
                },
                {
                    "name": "B3",
                    "midi": 59,
                    "time": 38.317779999999956,
                    "velocity": 0.29133858267716534,
                    "duration": 0.10903433333334078
                },
                {
                    "name": "A3",
                    "midi": 57,
                    "time": 38.41123799999996,
                    "velocity": 0.29133858267716534,
                    "duration": 0.10903433333334078
                },
                {
                    "name": "G3",
                    "midi": 55,
                    "time": 38.50469599999997,
                    "velocity": 0.3464566929133858,
                    "duration": 0.10903433333334078
                },
                {
                    "name": "A3",
                    "midi": 57,
                    "time": 38.59815399999997,
                    "velocity": 0.28346456692913385,
                    "duration": 0.10903433333334078
                },
                {
                    "name": "B3",
                    "midi": 59,
                    "time": 38.69161199999998,
                    "velocity": 0.31496062992125984,
                    "duration": 0.10903433333334078
                },
                {
                    "name": "D3",
                    "midi": 50,
                    "time": 38.78506999999998,
                    "velocity": 0.28346456692913385,
                    "duration": 0.10903433333334078
                },
                {
                    "name": "G2",
                    "midi": 43,
                    "time": 38.87852799999999,
                    "velocity": 0.3937007874015748,
                    "duration": 0.09345800000000537
                },
                {
                    "name": "D3",
                    "midi": 50,
                    "time": 38.971985999999994,
                    "velocity": 0.3464566929133858,
                    "duration": 0.09345799999999826
                },
                {
                    "name": "G3",
                    "midi": 55,
                    "time": 39.06544399999999,
                    "velocity": 0.3543307086614173,
                    "duration": 0.09345799999999826
                },
                {
                    "name": "A3",
                    "midi": 57,
                    "time": 39.15890199999999,
                    "velocity": 0.29133858267716534,
                    "duration": 0.09345799999999826
                },
                {
                    "name": "B3",
                    "midi": 59,
                    "time": 39.25235999999999,
                    "velocity": 0.3543307086614173,
                    "duration": 0.09345799999999826
                },
                {
                    "name": "A3",
                    "midi": 57,
                    "time": 39.34581799999999,
                    "velocity": 0.3228346456692913,
                    "duration": 0.09345799999999826
                },
                {
                    "name": "G3",
                    "midi": 55,
                    "time": 39.439275999999985,
                    "velocity": 0.31496062992125984,
                    "duration": 0.09345799999999826
                },
                {
                    "name": "E4",
                    "midi": 64,
                    "time": 39.532733999999984,
                    "velocity": 0.3858267716535433,
                    "duration": 0.09345799999999826
                },
                {
                    "name": "D4",
                    "midi": 62,
                    "time": 39.62619199999998,
                    "velocity": 0.3779527559055118,
                    "duration": 0.09345799999999826
                },
                {
                    "name": "C4",
                    "midi": 60,
                    "time": 39.71964999999998,
                    "velocity": 0.3228346456692913,
                    "duration": 0.09345799999999826
                },
                {
                    "name": "B3",
                    "midi": 59,
                    "time": 39.81310799999998,
                    "velocity": 0.29133858267716534,
                    "duration": 0.09345799999999826
                },
                {
                    "name": "A3",
                    "midi": 57,
                    "time": 39.90656599999998,
                    "velocity": 0.29133858267716534,
                    "duration": 0.09345799999999826
                },
                {
                    "name": "G3",
                    "midi": 55,
                    "time": 40.000023999999975,
                    "velocity": 0.3464566929133858,
                    "duration": 0.09345799999999826
                },
                {
                    "name": "A3",
                    "midi": 57,
                    "time": 40.09348199999997,
                    "velocity": 0.28346456692913385,
                    "duration": 0.09345799999999826
                },
                {
                    "name": "B3",
                    "midi": 59,
                    "time": 40.18693999999997,
                    "velocity": 0.31496062992125984,
                    "duration": 0.09345799999999826
                },
                {
                    "name": "D3",
                    "midi": 50,
                    "time": 40.28039799999997,
                    "velocity": 0.28346456692913385,
                    "duration": 0.09345799999999826
                },
                {
                    "name": "G2",
                    "midi": 43,
                    "time": 40.37385599999997,
                    "velocity": 0.31496062992125984,
                    "duration": 0.08411219999999986
                },
                {
                    "name": "D3",
                    "midi": 50,
                    "time": 40.467313999999966,
                    "velocity": 0.2677165354330709,
                    "duration": 0.08411219999999986
                },
                {
                    "name": "G3",
                    "midi": 55,
                    "time": 40.560771999999965,
                    "velocity": 0.29133858267716534,
                    "duration": 0.08411219999999986
                },
                {
                    "name": "A3",
                    "midi": 57,
                    "time": 40.65422999999996,
                    "velocity": 0.23622047244094488,
                    "duration": 0.08411219999999986
                },
                {
                    "name": "B3",
                    "midi": 59,
                    "time": 40.74768799999996,
                    "velocity": 0.29133858267716534,
                    "duration": 0.08411219999999986
                },
                {
                    "name": "A3",
                    "midi": 57,
                    "time": 40.84114599999996,
                    "velocity": 0.25984251968503935,
                    "duration": 0.08411219999999986
                },
                {
                    "name": "G3",
                    "midi": 55,
                    "time": 40.93460399999996,
                    "velocity": 0.25984251968503935,
                    "duration": 0.08411219999999986
                },
                {
                    "name": "E4",
                    "midi": 64,
                    "time": 41.028061999999956,
                    "velocity": 0.31496062992125984,
                    "duration": 0.08411219999999986
                },
                {
                    "name": "D4",
                    "midi": 62,
                    "time": 41.121519999999954,
                    "velocity": 0.31496062992125984,
                    "duration": 0.08411219999999986
                },
                {
                    "name": "C4",
                    "midi": 60,
                    "time": 41.21497799999995,
                    "velocity": 0.2677165354330709,
                    "duration": 0.08411219999999986
                },
                {
                    "name": "B3",
                    "midi": 59,
                    "time": 41.30843599999995,
                    "velocity": 0.2440944881889764,
                    "duration": 0.08411219999999986
                },
                {
                    "name": "A3",
                    "midi": 57,
                    "time": 41.40189399999995,
                    "velocity": 0.25984251968503935,
                    "duration": 0.08411219999999986
                },
                {
                    "name": "G3",
                    "midi": 55,
                    "time": 41.49535199999995,
                    "velocity": 0.2992125984251969,
                    "duration": 0.08411219999999986
                },
                {
                    "name": "A3",
                    "midi": 57,
                    "time": 41.588809999999945,
                    "velocity": 0.2440944881889764,
                    "duration": 0.08411219999999986
                },
                {
                    "name": "B3",
                    "midi": 59,
                    "time": 41.682267999999944,
                    "velocity": 0.2677165354330709,
                    "duration": 0.08411219999999986
                },
                {
                    "name": "D3",
                    "midi": 50,
                    "time": 41.77572599999994,
                    "velocity": 0.2440944881889764,
                    "duration": 0.08411219999999986
                },
                {
                    "name": "G2",
                    "midi": 43,
                    "time": 41.86918399999994,
                    "velocity": 0.31496062992125984,
                    "duration": 0.08411219999999986
                },
                {
                    "name": "D3",
                    "midi": 50,
                    "time": 41.96264199999994,
                    "velocity": 0.2677165354330709,
                    "duration": 0.08411219999999986
                },
                {
                    "name": "G3",
                    "midi": 55,
                    "time": 42.05609999999994,
                    "velocity": 0.29133858267716534,
                    "duration": 0.08411219999999986
                },
                {
                    "name": "A3",
                    "midi": 57,
                    "time": 42.149557999999935,
                    "velocity": 0.23622047244094488,
                    "duration": 0.08411219999999986
                },
                {
                    "name": "B3",
                    "midi": 59,
                    "time": 42.24301599999993,
                    "velocity": 0.29133858267716534,
                    "duration": 0.08411219999999986
                },
                {
                    "name": "A3",
                    "midi": 57,
                    "time": 42.33647399999993,
                    "velocity": 0.25984251968503935,
                    "duration": 0.08411219999999986
                },
                {
                    "name": "G3",
                    "midi": 55,
                    "time": 42.42993199999993,
                    "velocity": 0.25984251968503935,
                    "duration": 0.08411219999999986
                },
                {
                    "name": "E4",
                    "midi": 64,
                    "time": 42.52338999999993,
                    "velocity": 0.31496062992125984,
                    "duration": 0.08411219999999986
                },
                {
                    "name": "D4",
                    "midi": 62,
                    "time": 42.616847999999926,
                    "velocity": 0.31496062992125984,
                    "duration": 0.08411219999999986
                },
                {
                    "name": "C4",
                    "midi": 60,
                    "time": 42.710305999999925,
                    "velocity": 0.2677165354330709,
                    "duration": 0.08411219999999986
                },
                {
                    "name": "B3",
                    "midi": 59,
                    "time": 42.80376399999992,
                    "velocity": 0.2440944881889764,
                    "duration": 0.08411219999999986
                },
                {
                    "name": "A3",
                    "midi": 57,
                    "time": 42.89722199999992,
                    "velocity": 0.25984251968503935,
                    "duration": 0.08411219999999986
                },
                {
                    "name": "G3",
                    "midi": 55,
                    "time": 42.99067999999992,
                    "velocity": 0.2992125984251969,
                    "duration": 0.08411219999999986
                },
                {
                    "name": "A3",
                    "midi": 57,
                    "time": 43.08413799999992,
                    "velocity": 0.2440944881889764,
                    "duration": 0.08411219999999986
                },
                {
                    "name": "B3",
                    "midi": 59,
                    "time": 43.177595999999916,
                    "velocity": 0.2677165354330709,
                    "duration": 0.08411219999999986
                },
                {
                    "name": "D3",
                    "midi": 50,
                    "time": 43.271053999999914,
                    "velocity": 0.2440944881889764,
                    "duration": 0.08411219999999986
                },
                {
                    "name": "G2",
                    "midi": 43,
                    "time": 43.36451199999991,
                    "velocity": 0.31496062992125984,
                    "duration": 0.08411219999999986
                },
                {
                    "name": "D3",
                    "midi": 50,
                    "time": 43.45796999999991,
                    "velocity": 0.2677165354330709,
                    "duration": 0.08411219999999986
                },
                {
                    "name": "G3",
                    "midi": 55,
                    "time": 43.55142799999991,
                    "velocity": 0.29133858267716534,
                    "duration": 0.08411219999999986
                },
                {
                    "name": "A3",
                    "midi": 57,
                    "time": 43.64488599999991,
                    "velocity": 0.23622047244094488,
                    "duration": 0.08411219999999986
                },
                {
                    "name": "G3",
                    "midi": 55,
                    "time": 43.738343999999906,
                    "velocity": 0.29133858267716534,
                    "duration": 0.08411219999999986
                },
                {
                    "name": "A3",
                    "midi": 57,
                    "time": 43.831801999999904,
                    "velocity": 0.25984251968503935,
                    "duration": 0.08411219999999986
                },
                {
                    "name": "B3",
                    "midi": 59,
                    "time": 43.9252599999999,
                    "velocity": 0.25984251968503935,
                    "duration": 0.08411219999999986
                },
                {
                    "name": "D3",
                    "midi": 50,
                    "time": 44.0187179999999,
                    "velocity": 0.31496062992125984,
                    "duration": 0.08411219999999986
                },
                {
                    "name": "G2",
                    "midi": 43,
                    "time": 44.1121759999999,
                    "velocity": 0.31496062992125984,
                    "duration": 0.08411219999999986
                },
                {
                    "name": "D3",
                    "midi": 50,
                    "time": 44.2056339999999,
                    "velocity": 0.2677165354330709,
                    "duration": 0.08411219999999986
                },
                {
                    "name": "G3",
                    "midi": 55,
                    "time": 44.299091999999895,
                    "velocity": 0.2440944881889764,
                    "duration": 0.08411219999999986
                },
                {
                    "name": "A3",
                    "midi": 57,
                    "time": 44.39254999999989,
                    "velocity": 0.25984251968503935,
                    "duration": 0.08411219999999986
                },
                {
                    "name": "G3",
                    "midi": 55,
                    "time": 44.48600799999989,
                    "velocity": 0.2992125984251969,
                    "duration": 0.08411219999999986
                },
                {
                    "name": "A3",
                    "midi": 57,
                    "time": 44.57946599999989,
                    "velocity": 0.2440944881889764,
                    "duration": 0.08411219999999986
                },
                {
                    "name": "B3",
                    "midi": 59,
                    "time": 44.67292399999989,
                    "velocity": 0.2677165354330709,
                    "duration": 0.08411219999999986
                },
                {
                    "name": "D3",
                    "midi": 50,
                    "time": 44.766381999999886,
                    "velocity": 0.2440944881889764,
                    "duration": 0.08411219999999986
                },
                {
                    "name": "G2",
                    "midi": 43,
                    "time": 44.859839999999885,
                    "velocity": 0.31496062992125984,
                    "duration": 0.08411219999999986
                },
                {
                    "name": "D3",
                    "midi": 50,
                    "time": 44.95329799999988,
                    "velocity": 0.2677165354330709,
                    "duration": 0.08411219999999986
                },
                {
                    "name": "G3",
                    "midi": 55,
                    "time": 45.04675599999988,
                    "velocity": 0.29133858267716534,
                    "duration": 0.08411219999999986
                },
                {
                    "name": "A3",
                    "midi": 57,
                    "time": 45.14021399999988,
                    "velocity": 0.23622047244094488,
                    "duration": 0.08411219999999986
                },
                {
                    "name": "G3",
                    "midi": 55,
                    "time": 45.23367199999988,
                    "velocity": 0.29133858267716534,
                    "duration": 0.08411219999999986
                },
                {
                    "name": "A3",
                    "midi": 57,
                    "time": 45.327129999999876,
                    "velocity": 0.25984251968503935,
                    "duration": 0.08411219999999986
                },
                {
                    "name": "B3",
                    "midi": 59,
                    "time": 45.420587999999874,
                    "velocity": 0.2440944881889764,
                    "duration": 0.08411219999999986
                },
                {
                    "name": "D4",
                    "midi": 62,
                    "time": 45.51404599999987,
                    "velocity": 0.2992125984251969,
                    "duration": 0.08411219999999986
                },
                {
                    "name": "G4",
                    "midi": 67,
                    "time": 45.60750399999987,
                    "velocity": 0.29133858267716534,
                    "duration": 0.09345799999999826
                },
                {
                    "name": "A4",
                    "midi": 69,
                    "time": 45.70096199999987,
                    "velocity": 0.2440944881889764,
                    "duration": 0.09345799999999826
                },
                {
                    "name": "B4",
                    "midi": 71,
                    "time": 45.79441999999987,
                    "velocity": 0.2992125984251969,
                    "duration": 0.09345799999999826
                },
                {
                    "name": "D5",
                    "midi": 74,
                    "time": 45.887877999999866,
                    "velocity": 0.2440944881889764,
                    "duration": 0.09345799999999826
                },
                {
                    "name": "G5",
                    "midi": 79,
                    "time": 45.981335999999864,
                    "velocity": 0.2677165354330709,
                    "duration": 0.09345799999999826
                },
                {
                    "name": "A5",
                    "midi": 81,
                    "time": 46.07479399999986,
                    "velocity": 0.25984251968503935,
                    "duration": 0.09345799999999826
                },
                {
                    "name": "B5",
                    "midi": 83,
                    "time": 46.16825199999986,
                    "velocity": 0.2440944881889764,
                    "duration": 0.09345799999999826
                },
                {
                    "name": "D6",
                    "midi": 86,
                    "time": 46.26170999999986,
                    "velocity": 0.23622047244094488,
                    "duration": 0.09345799999999826
                },
                {
                    "name": "B5",
                    "midi": 83,
                    "time": 46.35516799999986,
                    "velocity": 0.31496062992125984,
                    "duration": 0.37383200000000016
                },
                {
                    "name": "G2",
                    "midi": 43,
                    "time": 46.96264499999985,
                    "velocity": 0.2440944881889764,
                    "duration": 0.8878509999999977
                },
                {
                    "name": "D3",
                    "midi": 50,
                    "time": 46.98600949999985,
                    "velocity": 0.25984251968503935,
                    "duration": 0.8644864999999982
                },
                {
                    "name": "G3",
                    "midi": 55,
                    "time": 47.00937399999985,
                    "velocity": 0.28346456692913385,
                    "duration": 0.8411219999999986
                },
                {
                    "name": "G2",
                    "midi": 43,
                    "time": 47.85049599999985,
                    "velocity": 0.2125984251968504,
                    "duration": 1.4953280000000007
                },
                {
                    "name": "D3",
                    "midi": 50,
                    "time": 47.87386049999985,
                    "velocity": 0.23622047244094488,
                    "duration": 1.471963500000001
                },
                {
                    "name": "G3",
                    "midi": 55,
                    "time": 47.89722499999985,
                    "velocity": 0.2755905511811024,
                    "duration": 1.4485990000000015
                }
            ],
            "controlChanges": {
                "7": [
                    {
                        "number": 7,
                        "time": 0,
                        "value": 0.7874015748031497
                    }
                ],
                "10": [
                    {
                        "number": 10,
                        "time": 0,
                        "value": 0.5039370078740157
                    }
                ],
                "64": [
                    {
                        "number": 64,
                        "time": 0,
                        "value": 1
                    },
                    {
                        "number": 64,
                        "time": 0.7531157166666665,
                        "value": 0
                    },
                    {
                        "number": 64,
                        "time": 0.7858260166666665,
                        "value": 1
                    },
                    {
                        "number": 64,
                        "time": 1.5038949833333333,
                        "value": 0
                    },
                    {
                        "number": 64,
                        "time": 1.5506239833333333,
                        "value": 1
                    },
                    {
                        "number": 64,
                        "time": 2.255453066666667,
                        "value": 0
                    },
                    {
                        "number": 64,
                        "time": 2.3037397000000004,
                        "value": 1
                    },
                    {
                        "number": 64,
                        "time": 2.9992229833333344,
                        "value": 0
                    },
                    {
                        "number": 64,
                        "time": 3.051403700000001,
                        "value": 1
                    },
                    {
                        "number": 64,
                        "time": 3.7437717166666684,
                        "value": 0
                    },
                    {
                        "number": 64,
                        "time": 3.7764820166666686,
                        "value": 1
                    },
                    {
                        "number": 64,
                        "time": 4.491435716666668,
                        "value": 0
                    },
                    {
                        "number": 64,
                        "time": 4.546731700000001,
                        "value": 1
                    },
                    {
                        "number": 64,
                        "time": 5.245330250000001,
                        "value": 0
                    },
                    {
                        "number": 64,
                        "time": 5.294395700000001,
                        "value": 1
                    },
                    {
                        "number": 64,
                        "time": 5.987542533333334,
                        "value": 0
                    },
                    {
                        "number": 64,
                        "time": 6.036607983333334,
                        "value": 1
                    },
                    {
                        "number": 64,
                        "time": 6.7344277166666675,
                        "value": 0
                    },
                    {
                        "number": 64,
                        "time": 6.767138016666667,
                        "value": 1
                    },
                    {
                        "number": 64,
                        "time": 7.481312900000001,
                        "value": 0
                    },
                    {
                        "number": 64,
                        "time": 7.559194566666667,
                        "value": 1
                    },
                    {
                        "number": 64,
                        "time": 8.23598625,
                        "value": 0
                    },
                    {
                        "number": 64,
                        "time": 9.01636055,
                        "value": 1
                    },
                    {
                        "number": 64,
                        "time": 9.728198983333334,
                        "value": 0
                    },
                    {
                        "number": 64,
                        "time": 9.771812716666668,
                        "value": 1
                    },
                    {
                        "number": 64,
                        "time": 10.476641800000001,
                        "value": 0
                    },
                    {
                        "number": 64,
                        "time": 10.535831866666667,
                        "value": 1
                    },
                    {
                        "number": 64,
                        "time": 10.8458009,
                        "value": 0
                    },
                    {
                        "number": 64,
                        "time": 12.007016550000001,
                        "value": 1
                    },
                    {
                        "number": 64,
                        "time": 12.719633800000002,
                        "value": 0
                    },
                    {
                        "number": 64,
                        "time": 12.757017000000003,
                        "value": 1
                    },
                    {
                        "number": 64,
                        "time": 13.465740166666668,
                        "value": 0
                    },
                    {
                        "number": 64,
                        "time": 13.504681000000001,
                        "value": 1
                    },
                    {
                        "number": 64,
                        "time": 13.84346625,
                        "value": 0
                    },
                    {
                        "number": 64,
                        "time": 14.991442016666669,
                        "value": 1
                    },
                    {
                        "number": 64,
                        "time": 15.71106861666667,
                        "value": 0
                    },
                    {
                        "number": 64,
                        "time": 15.76480696666667,
                        "value": 1
                    },
                    {
                        "number": 64,
                        "time": 16.45717498333333,
                        "value": 0
                    },
                    {
                        "number": 64,
                        "time": 16.52571085,
                        "value": 1
                    },
                    {
                        "number": 64,
                        "time": 17.201723716666653,
                        "value": 0
                    },
                    {
                        "number": 64,
                        "time": 17.234434016666654,
                        "value": 1
                    },
                    {
                        "number": 64,
                        "time": 17.950945349999976,
                        "value": 0
                    },
                    {
                        "number": 64,
                        "time": 18.004683699999976,
                        "value": 1
                    },
                    {
                        "number": 64,
                        "time": 18.703282249999965,
                        "value": 0
                    },
                    {
                        "number": 64,
                        "time": 18.752347699999966,
                        "value": 1
                    },
                    {
                        "number": 64,
                        "time": 19.44549453333329,
                        "value": 0
                    },
                    {
                        "number": 64,
                        "time": 19.49455998333329,
                        "value": 1
                    },
                    {
                        "number": 64,
                        "time": 20.19237971666661,
                        "value": 0
                    },
                    {
                        "number": 64,
                        "time": 20.25312741666661,
                        "value": 1
                    },
                    {
                        "number": 64,
                        "time": 20.9423801666666,
                        "value": 0
                    },
                    {
                        "number": 64,
                        "time": 21.000791416666598,
                        "value": 1
                    },
                    {
                        "number": 64,
                        "time": 21.693938249999917,
                        "value": 0
                    },
                    {
                        "number": 64,
                        "time": 22.4743125499999,
                        "value": 1
                    },
                    {
                        "number": 64,
                        "time": 23.18225689999989,
                        "value": 0
                    },
                    {
                        "number": 64,
                        "time": 23.232879983333223,
                        "value": 1
                    },
                    {
                        "number": 64,
                        "time": 23.934593799999877,
                        "value": 0
                    },
                    {
                        "number": 64,
                        "time": 23.969640549999877,
                        "value": 1
                    },
                    {
                        "number": 64,
                        "time": 24.49767824999987,
                        "value": 0
                    },
                    {
                        "number": 64,
                        "time": 24.5132545833332,
                        "value": 1
                    },
                    {
                        "number": 64,
                        "time": 24.683815433333198,
                        "value": 0
                    },
                    {
                        "number": 64,
                        "time": 24.714968099999865,
                        "value": 1
                    },
                    {
                        "number": 64,
                        "time": 25.42836416666652,
                        "value": 0
                    },
                    {
                        "number": 64,
                        "time": 25.49144831666652,
                        "value": 1
                    },
                    {
                        "number": 64,
                        "time": 25.803753799999846,
                        "value": 0
                    },
                    {
                        "number": 64,
                        "time": 26.951729566666494,
                        "value": 1
                    },
                    {
                        "number": 64,
                        "time": 27.298302983333155,
                        "value": 0
                    },
                    {
                        "number": 64,
                        "time": 28.4556245499998,
                        "value": 1
                    },
                    {
                        "number": 64,
                        "time": 29.168241799999787,
                        "value": 0
                    },
                    {
                        "number": 64,
                        "time": 29.217307249999788,
                        "value": 1
                    },
                    {
                        "number": 64,
                        "time": 29.914348166666443,
                        "value": 0
                    },
                    {
                        "number": 64,
                        "time": 29.950952549999776,
                        "value": 1
                    },
                    {
                        "number": 64,
                        "time": 30.6627909833331,
                        "value": 0
                    },
                    {
                        "number": 64,
                        "time": 30.729769216666433,
                        "value": 1
                    },
                    {
                        "number": 64,
                        "time": 31.408897349999755,
                        "value": 0
                    },
                    {
                        "number": 64,
                        "time": 31.44550173333309,
                        "value": 1
                    },
                    {
                        "number": 64,
                        "time": 31.78350816666642,
                        "value": 0
                    },
                    {
                        "number": 64,
                        "time": 32.941608549999806,
                        "value": 1
                    },
                    {
                        "number": 64,
                        "time": 33.281951433333134,
                        "value": 0
                    },
                    {
                        "number": 64,
                        "time": 34.447839983333196,
                        "value": 1
                    },
                    {
                        "number": 64,
                        "time": 35.151111433333185,
                        "value": 0
                    },
                    {
                        "number": 64,
                        "time": 35.923697566666554,
                        "value": 1
                    },
                    {
                        "number": 64,
                        "time": 36.27027098333321,
                        "value": 0
                    },
                    {
                        "number": 64,
                        "time": 37.433044266666606,
                        "value": 1
                    },
                    {
                        "number": 64,
                        "time": 37.767935433333264,
                        "value": 0
                    },
                    {
                        "number": 64,
                        "time": 38.92292054999999,
                        "value": 1
                    },
                    {
                        "number": 64,
                        "time": 39.63320134999998,
                        "value": 0
                    },
                    {
                        "number": 64,
                        "time": 39.67292099999998,
                        "value": 1
                    },
                    {
                        "number": 64,
                        "time": 40.38164416666663,
                        "value": 0
                    },
                    {
                        "number": 64,
                        "time": 44.89332911666655,
                        "value": 1
                    },
                    {
                        "number": 64,
                        "time": 46.36295616666652,
                        "value": 0
                    },
                    {
                        "number": 64,
                        "time": 46.500806716666524,
                        "value": 1
                    },
                    {
                        "number": 64,
                        "time": 46.750028049999855,
                        "value": 0
                    },
                    {
                        "number": 64,
                        "time": 46.94317458333319,
                        "value": 1
                    },
                    {
                        "number": 64,
                        "time": 49.34582399999985,
                        "value": 0
                    }
                ],
                "91": [
                    {
                        "number": 91,
                        "time": 0,
                        "value": 1
                    },
                    {
                        "number": 91,
                        "time": 0,
                        "value": 1
                    }
                ]
            },
            "id": 2,
            "name": "Piano left",
            "instrumentNumber": 0,
            "instrument": "acoustic grand piano",
            "instrumentFamily": "piano",
            "channelNumber": 0,
            "isPercussion": false
        },
        {
            "startTime": 0,
            "duration": 0,
            "length": 0,
            "notes": [],
            "controlChanges": {},
            "id": 3,
            "name": "Chopin: Prelude No.3 in G Major, Op. 28"
        },
        {
            "startTime": 0,
            "duration": 0,
            "length": 0,
            "notes": [],
            "controlChanges": {},
            "id": 4,
            "name": "Copyright  2002 by Bernd Krueger"
        },
        {
            "startTime": 0,
            "duration": 0,
            "length": 0,
            "notes": [],
            "controlChanges": {},
            "id": 5,
            "name": "http://www.piano-midi.de"
        },
        {
            "startTime": 0,
            "duration": 0,
            "length": 0,
            "notes": [],
            "controlChanges": {},
            "id": 6,
            "name": "Edition: 2014-02-20"
        },
        {
            "startTime": 0,
            "duration": 0,
            "length": 0,
            "notes": [],
            "controlChanges": {
                "7": [
                    {
                        "number": 7,
                        "time": 0,
                        "value": 1
                    }
                ],
                "10": [
                    {
                        "number": 10,
                        "time": 0,
                        "value": 0.5039370078740157
                    }
                ]
            },
            "id": 7,
            "name": "Spur 7"
        },
        {
            "startTime": 0,
            "duration": 0,
            "length": 0,
            "notes": [],
            "controlChanges": {
                "7": [
                    {
                        "number": 7,
                        "time": 0,
                        "value": 1
                    }
                ],
                "10": [
                    {
                        "number": 10,
                        "time": 0,
                        "value": 0.5039370078740157
                    }
                ]
            },
            "id": 8,
            "name": "Spur 8"
        }
    ]
}