{
    "header": {
        "PPQ": 480,
        "timeSignature": [
            4,
            4
        ],
        "bpm": 197.989744131254,
        "name": "Chopin Etude  No. 4, Opus 25"
    },
    "startTime": 0,
    "duration": 80.0041439999996,
    "tracks": [
        {
            "startTime": 0,
            "duration": 0,
            "length": 0,
            "notes": [],
            "controlChanges": {},
            "id": 0,
            "name": "Chopin Etude  No. 4, Opus 25"
        },
        {
            "startTime": 1.363707,
            "duration": 80.0041439999996,
            "length": 718,
            "notes": [
                {
                    "name": "E4",
                    "midi": 64,
                    "time": 1.363707,
                    "velocity": 0.3779527559055118,
                    "duration": 0.07576150000000004
                },
                {
                    "name": "A4",
                    "midi": 69,
                    "time": 1.363707,
                    "velocity": 0.3779527559055118,
                    "duration": 0.07576150000000004
                },
                {
                    "name": "E5",
                    "midi": 76,
                    "time": 1.363707,
                    "velocity": 0.4330708661417323,
                    "duration": 0.07576150000000004
                },
                {
                    "name": "A4",
                    "midi": 69,
                    "time": 1.666753,
                    "velocity": 0.3779527559055118,
                    "duration": 0.07576150000000004
                },
                {
                    "name": "E5",
                    "midi": 76,
                    "time": 1.666753,
                    "velocity": 0.3779527559055118,
                    "duration": 0.07576150000000004
                },
                {
                    "name": "A5",
                    "midi": 81,
                    "time": 1.666753,
                    "velocity": 0.4330708661417323,
                    "duration": 0.07576150000000004
                },
                {
                    "name": "A4",
                    "midi": 69,
                    "time": 1.969799,
                    "velocity": 0.3779527559055118,
                    "duration": 0.07576150000000004
                },
                {
                    "name": "D5",
                    "midi": 74,
                    "time": 1.969799,
                    "velocity": 0.3779527559055118,
                    "duration": 0.07576150000000004
                },
                {
                    "name": "A5",
                    "midi": 81,
                    "time": 1.969799,
                    "velocity": 0.4330708661417323,
                    "duration": 0.07576150000000004
                },
                {
                    "name": "G#4",
                    "midi": 68,
                    "time": 2.2728450000000002,
                    "velocity": 0.3779527559055118,
                    "duration": 0.07576150000000004
                },
                {
                    "name": "E5",
                    "midi": 76,
                    "time": 2.2728450000000002,
                    "velocity": 0.3779527559055118,
                    "duration": 0.07576150000000004
                },
                {
                    "name": "G#5",
                    "midi": 80,
                    "time": 2.2728450000000002,
                    "velocity": 0.4330708661417323,
                    "duration": 0.07576150000000004
                },
                {
                    "name": "A4",
                    "midi": 69,
                    "time": 2.5758910000000004,
                    "velocity": 0.3779527559055118,
                    "duration": 0.07576150000000004
                },
                {
                    "name": "E5",
                    "midi": 76,
                    "time": 2.5758910000000004,
                    "velocity": 0.4330708661417323,
                    "duration": 0.07576150000000004
                },
                {
                    "name": "C5",
                    "midi": 72,
                    "time": 2.8789370000000005,
                    "velocity": 0.3779527559055118,
                    "duration": 0.07576150000000004
                },
                {
                    "name": "E5",
                    "midi": 76,
                    "time": 2.8789370000000005,
                    "velocity": 0.3779527559055118,
                    "duration": 0.07576150000000004
                },
                {
                    "name": "C6",
                    "midi": 84,
                    "time": 2.8789370000000005,
                    "velocity": 0.4330708661417323,
                    "duration": 0.07576150000000004
                },
                {
                    "name": "C6",
                    "midi": 84,
                    "time": 3.1819830000000007,
                    "velocity": 0.4409448818897638,
                    "duration": 0.07576150000000004
                },
                {
                    "name": "F5",
                    "midi": 77,
                    "time": 3.1819830000000007,
                    "velocity": 0.3858267716535433,
                    "duration": 0.07576150000000004
                },
                {
                    "name": "C5",
                    "midi": 72,
                    "time": 3.1819830000000007,
                    "velocity": 0.3858267716535433,
                    "duration": 0.07576150000000004
                },
                {
                    "name": "B4",
                    "midi": 71,
                    "time": 3.485029000000001,
                    "velocity": 0.4015748031496063,
                    "duration": 0.07576150000000004
                },
                {
                    "name": "F5",
                    "midi": 77,
                    "time": 3.485029000000001,
                    "velocity": 0.4015748031496063,
                    "duration": 0.07576150000000004
                },
                {
                    "name": "B5",
                    "midi": 83,
                    "time": 3.485029000000001,
                    "velocity": 0.4566929133858268,
                    "duration": 0.07576150000000004
                },
                {
                    "name": "A5",
                    "midi": 81,
                    "time": 3.788075000000001,
                    "velocity": 0.48031496062992124,
                    "duration": 0.07576150000000004
                },
                {
                    "name": "F5",
                    "midi": 77,
                    "time": 3.788075000000001,
                    "velocity": 0.41732283464566927,
                    "duration": 0.07576150000000004
                },
                {
                    "name": "A4",
                    "midi": 69,
                    "time": 3.788075000000001,
                    "velocity": 0.41732283464566927,
                    "duration": 0.07576150000000004
                },
                {
                    "name": "E6",
                    "midi": 88,
                    "time": 4.091121000000001,
                    "velocity": 0.4881889763779528,
                    "duration": 0.07576149999999959
                },
                {
                    "name": "A5",
                    "midi": 81,
                    "time": 4.091121000000001,
                    "velocity": 0.4330708661417323,
                    "duration": 0.07576149999999959
                },
                {
                    "name": "E5",
                    "midi": 76,
                    "time": 4.091121000000001,
                    "velocity": 0.4330708661417323,
                    "duration": 0.07576149999999959
                },
                {
                    "name": "D5",
                    "midi": 74,
                    "time": 4.394167,
                    "velocity": 0.44881889763779526,
                    "duration": 0.07576149999999959
                },
                {
                    "name": "A5",
                    "midi": 81,
                    "time": 4.394167,
                    "velocity": 0.44881889763779526,
                    "duration": 0.07576149999999959
                },
                {
                    "name": "D6",
                    "midi": 86,
                    "time": 4.394167,
                    "velocity": 0.5039370078740157,
                    "duration": 0.07576149999999959
                },
                {
                    "name": "E6",
                    "midi": 88,
                    "time": 4.697213,
                    "velocity": 0.5196850393700787,
                    "duration": 0.07576149999999959
                },
                {
                    "name": "G#5",
                    "midi": 80,
                    "time": 4.697213,
                    "velocity": 0.4566929133858268,
                    "duration": 0.07576149999999959
                },
                {
                    "name": "E5",
                    "midi": 76,
                    "time": 4.697213,
                    "velocity": 0.4566929133858268,
                    "duration": 0.07576149999999959
                },
                {
                    "name": "C6",
                    "midi": 84,
                    "time": 5.000258999999999,
                    "velocity": 0.5196850393700787,
                    "duration": 0.07576149999999959
                },
                {
                    "name": "E5",
                    "midi": 76,
                    "time": 5.000258999999999,
                    "velocity": 0.4566929133858268,
                    "duration": 0.07576149999999959
                },
                {
                    "name": "C5",
                    "midi": 72,
                    "time": 5.000258999999999,
                    "velocity": 0.4566929133858268,
                    "duration": 0.07576149999999959
                },
                {
                    "name": "G#5",
                    "midi": 80,
                    "time": 5.303304999999998,
                    "velocity": 0.49606299212598426,
                    "duration": 0.07576149999999959
                },
                {
                    "name": "E5",
                    "midi": 76,
                    "time": 5.303304999999998,
                    "velocity": 0.4409448818897638,
                    "duration": 0.07576149999999959
                },
                {
                    "name": "G#4",
                    "midi": 68,
                    "time": 5.303304999999998,
                    "velocity": 0.4409448818897638,
                    "duration": 0.07576149999999959
                },
                {
                    "name": "A5",
                    "midi": 81,
                    "time": 5.606350999999997,
                    "velocity": 0.4566929133858268,
                    "duration": 0.07576149999999959
                },
                {
                    "name": "E5",
                    "midi": 76,
                    "time": 5.606350999999997,
                    "velocity": 0.4015748031496063,
                    "duration": 0.07576149999999959
                },
                {
                    "name": "A4",
                    "midi": 69,
                    "time": 5.606350999999997,
                    "velocity": 0.4015748031496063,
                    "duration": 0.07576149999999959
                },
                {
                    "name": "C6",
                    "midi": 84,
                    "time": 5.909396999999997,
                    "velocity": 0.4330708661417323,
                    "duration": 0.07576149999999959
                },
                {
                    "name": "E5",
                    "midi": 76,
                    "time": 5.909396999999997,
                    "velocity": 0.3779527559055118,
                    "duration": 0.07576149999999959
                },
                {
                    "name": "C5",
                    "midi": 72,
                    "time": 5.909396999999997,
                    "velocity": 0.3779527559055118,
                    "duration": 0.07576149999999959
                },
                {
                    "name": "B4",
                    "midi": 71,
                    "time": 6.212442999999996,
                    "velocity": 0.3779527559055118,
                    "duration": 0.07576149999999959
                },
                {
                    "name": "E5",
                    "midi": 76,
                    "time": 6.212442999999996,
                    "velocity": 0.3779527559055118,
                    "duration": 0.07576149999999959
                },
                {
                    "name": "B5",
                    "midi": 83,
                    "time": 6.212442999999996,
                    "velocity": 0.4330708661417323,
                    "duration": 0.07576149999999959
                },
                {
                    "name": "A4",
                    "midi": 69,
                    "time": 6.515488999999995,
                    "velocity": 0.3779527559055118,
                    "duration": 0.07576149999999959
                },
                {
                    "name": "E5",
                    "midi": 76,
                    "time": 6.515488999999995,
                    "velocity": 0.3779527559055118,
                    "duration": 0.07576149999999959
                },
                {
                    "name": "A5",
                    "midi": 81,
                    "time": 6.515488999999995,
                    "velocity": 0.4330708661417323,
                    "duration": 0.07576149999999959
                },
                {
                    "name": "E4",
                    "midi": 64,
                    "time": 6.8185349999999945,
                    "velocity": 0.3779527559055118,
                    "duration": 0.07576149999999959
                },
                {
                    "name": "B4",
                    "midi": 71,
                    "time": 6.8185349999999945,
                    "velocity": 0.3779527559055118,
                    "duration": 0.07576149999999959
                },
                {
                    "name": "E5",
                    "midi": 76,
                    "time": 6.8185349999999945,
                    "velocity": 0.4330708661417323,
                    "duration": 0.07576149999999959
                },
                {
                    "name": "A4",
                    "midi": 69,
                    "time": 7.121580999999994,
                    "velocity": 0.3779527559055118,
                    "duration": 0.07576149999999959
                },
                {
                    "name": "E5",
                    "midi": 76,
                    "time": 7.121580999999994,
                    "velocity": 0.3779527559055118,
                    "duration": 0.07576149999999959
                },
                {
                    "name": "A5",
                    "midi": 81,
                    "time": 7.121580999999994,
                    "velocity": 0.4330708661417323,
                    "duration": 0.07576149999999959
                },
                {
                    "name": "E5",
                    "midi": 76,
                    "time": 7.424626999999993,
                    "velocity": 0.3779527559055118,
                    "duration": 0.07576149999999959
                },
                {
                    "name": "B4",
                    "midi": 71,
                    "time": 7.424626999999993,
                    "velocity": 0.3779527559055118,
                    "duration": 0.07576149999999959
                },
                {
                    "name": "B5",
                    "midi": 83,
                    "time": 7.424626999999993,
                    "velocity": 0.4330708661417323,
                    "duration": 0.07576149999999959
                },
                {
                    "name": "A4",
                    "midi": 69,
                    "time": 7.727672999999992,
                    "velocity": 0.3779527559055118,
                    "duration": 0.07576149999999959
                },
                {
                    "name": "E5",
                    "midi": 76,
                    "time": 7.727672999999992,
                    "velocity": 0.3779527559055118,
                    "duration": 0.07576149999999959
                },
                {
                    "name": "A5",
                    "midi": 81,
                    "time": 7.727672999999992,
                    "velocity": 0.4330708661417323,
                    "duration": 0.07576149999999959
                },
                {
                    "name": "E5",
                    "midi": 76,
                    "time": 8.030718999999992,
                    "velocity": 0.44881889763779526,
                    "duration": 0.07576150000000048
                },
                {
                    "name": "B4",
                    "midi": 71,
                    "time": 8.030718999999992,
                    "velocity": 0.3937007874015748,
                    "duration": 0.07576150000000048
                },
                {
                    "name": "E4",
                    "midi": 64,
                    "time": 8.030718999999992,
                    "velocity": 0.3937007874015748,
                    "duration": 0.07576150000000048
                },
                {
                    "name": "A4",
                    "midi": 69,
                    "time": 8.333764999999993,
                    "velocity": 0.41732283464566927,
                    "duration": 0.07576150000000048
                },
                {
                    "name": "E5",
                    "midi": 76,
                    "time": 8.333764999999993,
                    "velocity": 0.41732283464566927,
                    "duration": 0.07576150000000048
                },
                {
                    "name": "A5",
                    "midi": 81,
                    "time": 8.333764999999993,
                    "velocity": 0.48031496062992124,
                    "duration": 0.07576150000000048
                },
                {
                    "name": "B5",
                    "midi": 83,
                    "time": 8.636810999999993,
                    "velocity": 0.5196850393700787,
                    "duration": 0.07576150000000048
                },
                {
                    "name": "E5",
                    "midi": 76,
                    "time": 8.636810999999993,
                    "velocity": 0.4566929133858268,
                    "duration": 0.07576150000000048
                },
                {
                    "name": "B4",
                    "midi": 71,
                    "time": 8.636810999999993,
                    "velocity": 0.4566929133858268,
                    "duration": 0.07576150000000048
                },
                {
                    "name": "C6",
                    "midi": 84,
                    "time": 8.939856999999993,
                    "velocity": 0.5669291338582677,
                    "duration": 0.07576150000000048
                },
                {
                    "name": "E5",
                    "midi": 76,
                    "time": 8.939856999999993,
                    "velocity": 0.4881889763779528,
                    "duration": 0.07576150000000048
                },
                {
                    "name": "C5",
                    "midi": 72,
                    "time": 8.939856999999993,
                    "velocity": 0.4881889763779528,
                    "duration": 0.07576150000000048
                },
                {
                    "name": "G4",
                    "midi": 67,
                    "time": 9.242902999999993,
                    "velocity": 0.4409448818897638,
                    "duration": 0.07576150000000048
                },
                {
                    "name": "B4",
                    "midi": 71,
                    "time": 9.242902999999993,
                    "velocity": 0.4409448818897638,
                    "duration": 0.07576150000000048
                },
                {
                    "name": "G5",
                    "midi": 79,
                    "time": 9.242902999999993,
                    "velocity": 0.49606299212598426,
                    "duration": 0.07576150000000048
                },
                {
                    "name": "F#5",
                    "midi": 78,
                    "time": 9.545948999999993,
                    "velocity": 0.4881889763779528,
                    "duration": 0.07576150000000048
                },
                {
                    "name": "B4",
                    "midi": 71,
                    "time": 9.545948999999993,
                    "velocity": 0.4330708661417323,
                    "duration": 0.07576150000000048
                },
                {
                    "name": "A4",
                    "midi": 69,
                    "time": 9.545948999999993,
                    "velocity": 0.4330708661417323,
                    "duration": 0.07576150000000048
                },
                {
                    "name": "E5",
                    "midi": 76,
                    "time": 9.848994999999993,
                    "velocity": 0.4881889763779528,
                    "duration": 0.07576150000000048
                },
                {
                    "name": "B4",
                    "midi": 71,
                    "time": 9.848994999999993,
                    "velocity": 0.4330708661417323,
                    "duration": 0.07576150000000048
                },
                {
                    "name": "G#4",
                    "midi": 68,
                    "time": 9.848994999999993,
                    "velocity": 0.4330708661417323,
                    "duration": 0.07576150000000048
                },
                {
                    "name": "F#5",
                    "midi": 78,
                    "time": 10.152040999999993,
                    "velocity": 0.48031496062992124,
                    "duration": 0.07576150000000048
                },
                {
                    "name": "C5",
                    "midi": 72,
                    "time": 10.152040999999993,
                    "velocity": 0.41732283464566927,
                    "duration": 0.07576150000000048
                },
                {
                    "name": "A4",
                    "midi": 69,
                    "time": 10.152040999999993,
                    "velocity": 0.41732283464566927,
                    "duration": 0.07576150000000048
                },
                {
                    "name": "B4",
                    "midi": 71,
                    "time": 10.455086999999994,
                    "velocity": 0.4015748031496063,
                    "duration": 0.07576150000000048
                },
                {
                    "name": "G5",
                    "midi": 79,
                    "time": 10.455086999999994,
                    "velocity": 0.4566929133858268,
                    "duration": 0.07576150000000048
                },
                {
                    "name": "F5",
                    "midi": 77,
                    "time": 10.455086999999994,
                    "velocity": 0.4015748031496063,
                    "duration": 0.07576150000000048
                },
                {
                    "name": "G4",
                    "midi": 67,
                    "time": 10.455086999999994,
                    "velocity": 0.4015748031496063,
                    "duration": 0.07576150000000048
                },
                {
                    "name": "D5",
                    "midi": 74,
                    "time": 10.758132999999994,
                    "velocity": 0.3779527559055118,
                    "duration": 0.07576150000000048
                },
                {
                    "name": "G#5",
                    "midi": 80,
                    "time": 10.758132999999994,
                    "velocity": 0.4330708661417323,
                    "duration": 0.07576150000000048
                },
                {
                    "name": "E5",
                    "midi": 76,
                    "time": 10.758132999999994,
                    "velocity": 0.3779527559055118,
                    "duration": 0.07576150000000048
                },
                {
                    "name": "G#4",
                    "midi": 68,
                    "time": 10.758132999999994,
                    "velocity": 0.3779527559055118,
                    "duration": 0.07576150000000048
                },
                {
                    "name": "A4",
                    "midi": 69,
                    "time": 11.061178999999994,
                    "velocity": 0.3700787401574803,
                    "duration": 0.07576150000000048
                },
                {
                    "name": "C5",
                    "midi": 72,
                    "time": 11.061178999999994,
                    "velocity": 0.3700787401574803,
                    "duration": 0.07576150000000048
                },
                {
                    "name": "E5",
                    "midi": 76,
                    "time": 11.061178999999994,
                    "velocity": 0.3700787401574803,
                    "duration": 0.07576150000000048
                },
                {
                    "name": "A5",
                    "midi": 81,
                    "time": 11.061178999999994,
                    "velocity": 0.4409448818897638,
                    "duration": 0.07576150000000048
                },
                {
                    "name": "A4",
                    "midi": 69,
                    "time": 11.364224999999994,
                    "velocity": 0.4015748031496063,
                    "duration": 0.07576150000000048
                },
                {
                    "name": "E5",
                    "midi": 76,
                    "time": 11.364224999999994,
                    "velocity": 0.4015748031496063,
                    "duration": 0.07576150000000048
                },
                {
                    "name": "A5",
                    "midi": 81,
                    "time": 11.364224999999994,
                    "velocity": 0.5590551181102362,
                    "duration": 0.6060920000000003
                },
                {
                    "name": "A4",
                    "midi": 69,
                    "time": 11.667270999999994,
                    "velocity": 0.3779527559055118,
                    "duration": 0.07576150000000048
                },
                {
                    "name": "D5",
                    "midi": 74,
                    "time": 11.667270999999994,
                    "velocity": 0.44881889763779526,
                    "duration": 0.07576150000000048
                },
                {
                    "name": "G#4",
                    "midi": 68,
                    "time": 11.970316999999994,
                    "velocity": 0.3464566929133858,
                    "duration": 0.07576150000000048
                },
                {
                    "name": "E5",
                    "midi": 76,
                    "time": 11.970316999999994,
                    "velocity": 0.3464566929133858,
                    "duration": 0.07576150000000048
                },
                {
                    "name": "G#5",
                    "midi": 80,
                    "time": 11.970316999999994,
                    "velocity": 0.41732283464566927,
                    "duration": 0.07576150000000048
                },
                {
                    "name": "A4",
                    "midi": 69,
                    "time": 12.273362999999994,
                    "velocity": 0.3700787401574803,
                    "duration": 0.07576150000000048
                },
                {
                    "name": "E5",
                    "midi": 76,
                    "time": 12.273362999999994,
                    "velocity": 0.4409448818897638,
                    "duration": 0.07576150000000048
                },
                {
                    "name": "C5",
                    "midi": 72,
                    "time": 12.576408999999995,
                    "velocity": 0.4094488188976378,
                    "duration": 0.07576150000000048
                },
                {
                    "name": "E5",
                    "midi": 76,
                    "time": 12.576408999999995,
                    "velocity": 0.4094488188976378,
                    "duration": 0.07576150000000048
                },
                {
                    "name": "C6",
                    "midi": 84,
                    "time": 12.576408999999995,
                    "velocity": 0.5590551181102362,
                    "duration": 0.6060920000000003
                },
                {
                    "name": "F5",
                    "midi": 77,
                    "time": 12.879454999999995,
                    "velocity": 0.4409448818897638,
                    "duration": 0.07576150000000048
                },
                {
                    "name": "C5",
                    "midi": 72,
                    "time": 12.879454999999995,
                    "velocity": 0.3700787401574803,
                    "duration": 0.07576150000000048
                },
                {
                    "name": "B4",
                    "midi": 71,
                    "time": 13.182500999999995,
                    "velocity": 0.3700787401574803,
                    "duration": 0.07576150000000048
                },
                {
                    "name": "F5",
                    "midi": 77,
                    "time": 13.182500999999995,
                    "velocity": 0.3700787401574803,
                    "duration": 0.07576150000000048
                },
                {
                    "name": "B5",
                    "midi": 83,
                    "time": 13.182500999999995,
                    "velocity": 0.4409448818897638,
                    "duration": 0.30304600000000015
                },
                {
                    "name": "A5",
                    "midi": 81,
                    "time": 13.485546999999995,
                    "velocity": 0.4566929133858268,
                    "duration": 0.15152300000000096
                },
                {
                    "name": "F5",
                    "midi": 77,
                    "time": 13.485546999999995,
                    "velocity": 0.3858267716535433,
                    "duration": 0.07576150000000048
                },
                {
                    "name": "A4",
                    "midi": 69,
                    "time": 13.485546999999995,
                    "velocity": 0.3858267716535433,
                    "duration": 0.07576150000000048
                },
                {
                    "name": "E6",
                    "midi": 88,
                    "time": 13.788592999999995,
                    "velocity": 0.5905511811023622,
                    "duration": 0.30304600000000015
                },
                {
                    "name": "A5",
                    "midi": 81,
                    "time": 13.788592999999995,
                    "velocity": 0.4015748031496063,
                    "duration": 0.07576150000000048
                },
                {
                    "name": "E5",
                    "midi": 76,
                    "time": 13.788592999999995,
                    "velocity": 0.4015748031496063,
                    "duration": 0.07576150000000048
                },
                {
                    "name": "D5",
                    "midi": 74,
                    "time": 14.091638999999995,
                    "velocity": 0.4330708661417323,
                    "duration": 0.07576150000000048
                },
                {
                    "name": "A5",
                    "midi": 81,
                    "time": 14.091638999999995,
                    "velocity": 0.4330708661417323,
                    "duration": 0.07576150000000048
                },
                {
                    "name": "D6",
                    "midi": 86,
                    "time": 14.091638999999995,
                    "velocity": 0.6062992125984252,
                    "duration": 0.30304600000000015
                },
                {
                    "name": "E6",
                    "midi": 88,
                    "time": 14.394684999999996,
                    "velocity": 0.6456692913385826,
                    "duration": 0.30304600000000015
                },
                {
                    "name": "G#5",
                    "midi": 80,
                    "time": 14.394684999999996,
                    "velocity": 0.4566929133858268,
                    "duration": 0.07576150000000048
                },
                {
                    "name": "E5",
                    "midi": 76,
                    "time": 14.394684999999996,
                    "velocity": 0.4566929133858268,
                    "duration": 0.07576150000000048
                },
                {
                    "name": "C6",
                    "midi": 84,
                    "time": 14.697730999999996,
                    "velocity": 0.6062992125984252,
                    "duration": 0.15152300000000096
                },
                {
                    "name": "E5",
                    "midi": 76,
                    "time": 14.697730999999996,
                    "velocity": 0.4330708661417323,
                    "duration": 0.07576150000000048
                },
                {
                    "name": "C5",
                    "midi": 72,
                    "time": 14.697730999999996,
                    "velocity": 0.4330708661417323,
                    "duration": 0.07576150000000048
                },
                {
                    "name": "B5",
                    "midi": 83,
                    "time": 15.000776999999996,
                    "velocity": 0.5196850393700787,
                    "duration": 0.30304600000000015
                },
                {
                    "name": "E5",
                    "midi": 76,
                    "time": 15.000776999999996,
                    "velocity": 0.4015748031496063,
                    "duration": 0.07576150000000048
                },
                {
                    "name": "B4",
                    "midi": 71,
                    "time": 15.000776999999996,
                    "velocity": 0.4015748031496063,
                    "duration": 0.07576150000000048
                },
                {
                    "name": "A5",
                    "midi": 81,
                    "time": 15.303822999999996,
                    "velocity": 0.48031496062992124,
                    "duration": 0.4545690000000011
                },
                {
                    "name": "E5",
                    "midi": 76,
                    "time": 15.303822999999996,
                    "velocity": 0.3700787401574803,
                    "duration": 0.07576150000000048
                },
                {
                    "name": "A4",
                    "midi": 69,
                    "time": 15.303822999999996,
                    "velocity": 0.3700787401574803,
                    "duration": 0.07576150000000048
                },
                {
                    "name": "E5",
                    "midi": 76,
                    "time": 15.606868999999996,
                    "velocity": 0.4094488188976378,
                    "duration": 0.07576150000000048
                },
                {
                    "name": "C5",
                    "midi": 72,
                    "time": 15.606868999999996,
                    "velocity": 0.3464566929133858,
                    "duration": 0.07576150000000048
                },
                {
                    "name": "B4",
                    "midi": 71,
                    "time": 15.909914999999996,
                    "velocity": 0.41732283464566927,
                    "duration": 0.15152299999999919
                },
                {
                    "name": "E5",
                    "midi": 76,
                    "time": 15.909914999999996,
                    "velocity": 0.41732283464566927,
                    "duration": 0.15152299999999919
                },
                {
                    "name": "B5",
                    "midi": 83,
                    "time": 15.909914999999996,
                    "velocity": 0.5590551181102362,
                    "duration": 0.30304600000000015
                },
                {
                    "name": "A4",
                    "midi": 69,
                    "time": 16.212960999999996,
                    "velocity": 0.4015748031496063,
                    "duration": 0.15152300000000096
                },
                {
                    "name": "E5",
                    "midi": 76,
                    "time": 16.212960999999996,
                    "velocity": 0.4015748031496063,
                    "duration": 0.15152300000000096
                },
                {
                    "name": "A5",
                    "midi": 81,
                    "time": 16.212960999999996,
                    "velocity": 0.5196850393700787,
                    "duration": 0.3030460000000019
                },
                {
                    "name": "E4",
                    "midi": 64,
                    "time": 16.516007,
                    "velocity": 0.3937007874015748,
                    "duration": 0.15152300000000096
                },
                {
                    "name": "B4",
                    "midi": 71,
                    "time": 16.516007,
                    "velocity": 0.3937007874015748,
                    "duration": 0.15152300000000096
                },
                {
                    "name": "E5",
                    "midi": 76,
                    "time": 16.516007,
                    "velocity": 0.5039370078740157,
                    "duration": 0.3030460000000019
                },
                {
                    "name": "A4",
                    "midi": 69,
                    "time": 16.819053,
                    "velocity": 0.36220472440944884,
                    "duration": 0.15152300000000096
                },
                {
                    "name": "E5",
                    "midi": 76,
                    "time": 16.819053,
                    "velocity": 0.36220472440944884,
                    "duration": 0.15152300000000096
                },
                {
                    "name": "A5",
                    "midi": 81,
                    "time": 16.819053,
                    "velocity": 0.47244094488188976,
                    "duration": 0.15152300000000096
                },
                {
                    "name": "E5",
                    "midi": 76,
                    "time": 17.122099000000002,
                    "velocity": 0.3937007874015748,
                    "duration": 0.0757614999999987
                },
                {
                    "name": "B4",
                    "midi": 71,
                    "time": 17.122099000000002,
                    "velocity": 0.3937007874015748,
                    "duration": 0.1515229999999974
                },
                {
                    "name": "B5",
                    "midi": 83,
                    "time": 17.122099000000002,
                    "velocity": 0.5275590551181102,
                    "duration": 0.30304599999999837
                },
                {
                    "name": "A4",
                    "midi": 69,
                    "time": 17.425145,
                    "velocity": 0.41732283464566927,
                    "duration": 0.1515229999999974
                },
                {
                    "name": "E5",
                    "midi": 76,
                    "time": 17.425145,
                    "velocity": 0.41732283464566927,
                    "duration": 0.0757614999999987
                },
                {
                    "name": "A5",
                    "midi": 81,
                    "time": 17.425145,
                    "velocity": 0.5433070866141733,
                    "duration": 0.30304599999999837
                },
                {
                    "name": "E5",
                    "midi": 76,
                    "time": 17.728191,
                    "velocity": 0.5905511811023622,
                    "duration": 0.3030460000000019
                },
                {
                    "name": "B4",
                    "midi": 71,
                    "time": 17.728191,
                    "velocity": 0.4566929133858268,
                    "duration": 0.15152300000000096
                },
                {
                    "name": "E4",
                    "midi": 64,
                    "time": 17.728191,
                    "velocity": 0.4566929133858268,
                    "duration": 0.15152300000000096
                },
                {
                    "name": "A4",
                    "midi": 69,
                    "time": 18.031237,
                    "velocity": 0.44881889763779526,
                    "duration": 0.15152300000000096
                },
                {
                    "name": "E5",
                    "midi": 76,
                    "time": 18.031237,
                    "velocity": 0.44881889763779526,
                    "duration": 0.15152300000000096
                },
                {
                    "name": "A5",
                    "midi": 81,
                    "time": 18.031237,
                    "velocity": 0.5275590551181102,
                    "duration": 0.15152300000000096
                },
                {
                    "name": "B5",
                    "midi": 83,
                    "time": 18.334283000000003,
                    "velocity": 0.5905511811023622,
                    "duration": 0.3030460000000019
                },
                {
                    "name": "E5",
                    "midi": 76,
                    "time": 18.334283000000003,
                    "velocity": 0.48031496062992124,
                    "duration": 0.15152300000000096
                },
                {
                    "name": "B4",
                    "midi": 71,
                    "time": 18.334283000000003,
                    "velocity": 0.48031496062992124,
                    "duration": 0.15152300000000096
                },
                {
                    "name": "C6",
                    "midi": 84,
                    "time": 18.637329000000005,
                    "velocity": 0.6062992125984252,
                    "duration": 0.3030460000000019
                },
                {
                    "name": "E5",
                    "midi": 76,
                    "time": 18.637329000000005,
                    "velocity": 0.49606299212598426,
                    "duration": 0.15152300000000096
                },
                {
                    "name": "C5",
                    "midi": 72,
                    "time": 18.637329000000005,
                    "velocity": 0.49606299212598426,
                    "duration": 0.15152300000000096
                },
                {
                    "name": "G4",
                    "midi": 67,
                    "time": 18.940375000000007,
                    "velocity": 0.4645669291338583,
                    "duration": 0.15152300000000096
                },
                {
                    "name": "B4",
                    "midi": 71,
                    "time": 18.940375000000007,
                    "velocity": 0.4645669291338583,
                    "duration": 0.15152300000000096
                },
                {
                    "name": "G5",
                    "midi": 79,
                    "time": 18.940375000000007,
                    "velocity": 0.5748031496062992,
                    "duration": 0.3030460000000019
                },
                {
                    "name": "F#5",
                    "midi": 78,
                    "time": 19.24342100000001,
                    "velocity": 0.5354330708661418,
                    "duration": 0.3030460000000019
                },
                {
                    "name": "B4",
                    "midi": 71,
                    "time": 19.24342100000001,
                    "velocity": 0.4409448818897638,
                    "duration": 0.15152300000000096
                },
                {
                    "name": "A4",
                    "midi": 69,
                    "time": 19.24342100000001,
                    "velocity": 0.4409448818897638,
                    "duration": 0.15152300000000096
                },
                {
                    "name": "E5",
                    "midi": 76,
                    "time": 19.54646700000001,
                    "velocity": 0.5039370078740157,
                    "duration": 1.0606610000000067
                },
                {
                    "name": "B4",
                    "midi": 71,
                    "time": 19.54646700000001,
                    "velocity": 0.41732283464566927,
                    "duration": 0.15152300000000096
                },
                {
                    "name": "G4",
                    "midi": 67,
                    "time": 19.54646700000001,
                    "velocity": 0.41732283464566927,
                    "duration": 0.15152300000000096
                },
                {
                    "name": "C5",
                    "midi": 72,
                    "time": 19.849513000000012,
                    "velocity": 0.41732283464566927,
                    "duration": 0.15152300000000096
                },
                {
                    "name": "A4",
                    "midi": 69,
                    "time": 19.849513000000012,
                    "velocity": 0.3464566929133858,
                    "duration": 0.15152300000000096
                },
                {
                    "name": "B4",
                    "midi": 71,
                    "time": 20.152559000000014,
                    "velocity": 0.4015748031496063,
                    "duration": 0.15152300000000096
                },
                {
                    "name": "G4",
                    "midi": 67,
                    "time": 20.152559000000014,
                    "velocity": 0.33070866141732286,
                    "duration": 0.15152300000000096
                },
                {
                    "name": "C5",
                    "midi": 72,
                    "time": 20.455605000000016,
                    "velocity": 0.3779527559055118,
                    "duration": 0.15152300000000096
                },
                {
                    "name": "A4",
                    "midi": 69,
                    "time": 20.455605000000016,
                    "velocity": 0.30708661417322836,
                    "duration": 0.15152300000000096
                },
                {
                    "name": "B5",
                    "midi": 83,
                    "time": 20.758651000000018,
                    "velocity": 0.48031496062992124,
                    "duration": 0.3030460000000019
                },
                {
                    "name": "E5",
                    "midi": 76,
                    "time": 20.758651000000018,
                    "velocity": 0.4015748031496063,
                    "duration": 0.15152300000000096
                },
                {
                    "name": "B4",
                    "midi": 71,
                    "time": 20.758651000000018,
                    "velocity": 0.4015748031496063,
                    "duration": 0.15152300000000096
                },
                {
                    "name": "C6",
                    "midi": 84,
                    "time": 21.06169700000002,
                    "velocity": 0.5039370078740157,
                    "duration": 0.3030460000000019
                },
                {
                    "name": "E5",
                    "midi": 76,
                    "time": 21.06169700000002,
                    "velocity": 0.41732283464566927,
                    "duration": 0.15152300000000096
                },
                {
                    "name": "C5",
                    "midi": 72,
                    "time": 21.06169700000002,
                    "velocity": 0.41732283464566927,
                    "duration": 0.15152300000000096
                },
                {
                    "name": "G4",
                    "midi": 67,
                    "time": 21.364743000000022,
                    "velocity": 0.3858267716535433,
                    "duration": 0.15152300000000096
                },
                {
                    "name": "B4",
                    "midi": 71,
                    "time": 21.364743000000022,
                    "velocity": 0.3858267716535433,
                    "duration": 0.15152300000000096
                },
                {
                    "name": "G5",
                    "midi": 79,
                    "time": 21.364743000000022,
                    "velocity": 0.47244094488188976,
                    "duration": 0.3030460000000019
                },
                {
                    "name": "F#5",
                    "midi": 78,
                    "time": 21.667789000000024,
                    "velocity": 0.4409448818897638,
                    "duration": 0.15152300000000096
                },
                {
                    "name": "B4",
                    "midi": 71,
                    "time": 21.667789000000024,
                    "velocity": 0.3700787401574803,
                    "duration": 0.15152300000000096
                },
                {
                    "name": "A4",
                    "midi": 69,
                    "time": 21.667789000000024,
                    "velocity": 0.3700787401574803,
                    "duration": 0.15152300000000096
                },
                {
                    "name": "E5",
                    "midi": 76,
                    "time": 21.970835000000026,
                    "velocity": 0.49606299212598426,
                    "duration": 0.6060920000000038
                },
                {
                    "name": "B4",
                    "midi": 71,
                    "time": 21.970835000000026,
                    "velocity": 0.41732283464566927,
                    "duration": 0.15152300000000096
                },
                {
                    "name": "G4",
                    "midi": 67,
                    "time": 21.970835000000026,
                    "velocity": 0.41732283464566927,
                    "duration": 0.15152300000000096
                },
                {
                    "name": "B4",
                    "midi": 71,
                    "time": 22.273881000000028,
                    "velocity": 0.47244094488188976,
                    "duration": 0.15152300000000096
                },
                {
                    "name": "G4",
                    "midi": 67,
                    "time": 22.273881000000028,
                    "velocity": 0.3937007874015748,
                    "duration": 0.15152300000000096
                },
                {
                    "name": "F5",
                    "midi": 77,
                    "time": 22.57692700000003,
                    "velocity": 0.6299212598425197,
                    "duration": 0.4545690000000029
                },
                {
                    "name": "B4",
                    "midi": 71,
                    "time": 22.57692700000003,
                    "velocity": 0.49606299212598426,
                    "duration": 0.15152300000000096
                },
                {
                    "name": "G#4",
                    "midi": 68,
                    "time": 22.57692700000003,
                    "velocity": 0.41732283464566927,
                    "duration": 0.15152300000000096
                },
                {
                    "name": "B4",
                    "midi": 71,
                    "time": 22.87997300000003,
                    "velocity": 0.5039370078740157,
                    "duration": 0.15152300000000096
                },
                {
                    "name": "G#4",
                    "midi": 68,
                    "time": 22.87997300000003,
                    "velocity": 0.4094488188976378,
                    "duration": 0.15152300000000096
                },
                {
                    "name": "A4",
                    "midi": 69,
                    "time": 23.183019000000034,
                    "velocity": 0.5826771653543307,
                    "duration": 0.30304599999999837
                },
                {
                    "name": "C5",
                    "midi": 72,
                    "time": 23.183019000000034,
                    "velocity": 0.5826771653543307,
                    "duration": 0.30304599999999837
                },
                {
                    "name": "A5",
                    "midi": 81,
                    "time": 23.183019000000034,
                    "velocity": 0.7007874015748031,
                    "duration": 0.30304599999999837
                },
                {
                    "name": "G#4",
                    "midi": 68,
                    "time": 23.486065000000032,
                    "velocity": 0.5590551181102362,
                    "duration": 0.30304599999999837
                },
                {
                    "name": "B4",
                    "midi": 71,
                    "time": 23.486065000000032,
                    "velocity": 0.5590551181102362,
                    "duration": 0.30304599999999837
                },
                {
                    "name": "G#5",
                    "midi": 80,
                    "time": 23.486065000000032,
                    "velocity": 0.6614173228346457,
                    "duration": 0.30304599999999837
                },
                {
                    "name": "G4",
                    "midi": 67,
                    "time": 23.78911100000003,
                    "velocity": 0.5511811023622047,
                    "duration": 0.0757614999999987
                },
                {
                    "name": "A#4",
                    "midi": 70,
                    "time": 23.78911100000003,
                    "velocity": 0.5511811023622047,
                    "duration": 0.0757614999999987
                },
                {
                    "name": "G5",
                    "midi": 79,
                    "time": 23.78911100000003,
                    "velocity": 0.6456692913385826,
                    "duration": 0.0757614999999987
                },
                {
                    "name": "E4",
                    "midi": 64,
                    "time": 24.09215700000003,
                    "velocity": 0.49606299212598426,
                    "duration": 0.0757614999999987
                },
                {
                    "name": "A#4",
                    "midi": 70,
                    "time": 24.09215700000003,
                    "velocity": 0.49606299212598426,
                    "duration": 0.0757614999999987
                },
                {
                    "name": "C5",
                    "midi": 72,
                    "time": 24.09215700000003,
                    "velocity": 0.6062992125984252,
                    "duration": 0.0757614999999987
                },
                {
                    "name": "G4",
                    "midi": 67,
                    "time": 24.395203000000027,
                    "velocity": 0.5511811023622047,
                    "duration": 0.0757614999999987
                },
                {
                    "name": "A#4",
                    "midi": 70,
                    "time": 24.395203000000027,
                    "velocity": 0.5511811023622047,
                    "duration": 0.0757614999999987
                },
                {
                    "name": "G5",
                    "midi": 79,
                    "time": 24.395203000000027,
                    "velocity": 0.6456692913385826,
                    "duration": 0.0757614999999987
                },
                {
                    "name": "E4",
                    "midi": 64,
                    "time": 24.698249000000025,
                    "velocity": 0.49606299212598426,
                    "duration": 0.0757614999999987
                },
                {
                    "name": "A#4",
                    "midi": 70,
                    "time": 24.698249000000025,
                    "velocity": 0.49606299212598426,
                    "duration": 0.0757614999999987
                },
                {
                    "name": "C5",
                    "midi": 72,
                    "time": 24.698249000000025,
                    "velocity": 0.6062992125984252,
                    "duration": 0.0757614999999987
                },
                {
                    "name": "G4",
                    "midi": 67,
                    "time": 25.001295000000024,
                    "velocity": 0.5511811023622047,
                    "duration": 0.0757614999999987
                },
                {
                    "name": "A#4",
                    "midi": 70,
                    "time": 25.001295000000024,
                    "velocity": 0.5511811023622047,
                    "duration": 0.0757614999999987
                },
                {
                    "name": "G5",
                    "midi": 79,
                    "time": 25.001295000000024,
                    "velocity": 0.6456692913385826,
                    "duration": 0.0757614999999987
                },
                {
                    "name": "A4",
                    "midi": 69,
                    "time": 25.304341000000022,
                    "velocity": 0.49606299212598426,
                    "duration": 0.0757614999999987
                },
                {
                    "name": "F5",
                    "midi": 77,
                    "time": 25.304341000000022,
                    "velocity": 0.6062992125984252,
                    "duration": 0.0757614999999987
                },
                {
                    "name": "F4",
                    "midi": 65,
                    "time": 25.60738700000002,
                    "velocity": 0.4645669291338583,
                    "duration": 0.30304599999999837
                },
                {
                    "name": "G#4",
                    "midi": 68,
                    "time": 25.60738700000002,
                    "velocity": 0.4645669291338583,
                    "duration": 0.30304599999999837
                },
                {
                    "name": "F5",
                    "midi": 77,
                    "time": 25.60738700000002,
                    "velocity": 0.5511811023622047,
                    "duration": 0.30304599999999837
                },
                {
                    "name": "E4",
                    "midi": 64,
                    "time": 25.91043300000002,
                    "velocity": 0.44881889763779526,
                    "duration": 0.30304599999999837
                },
                {
                    "name": "G4",
                    "midi": 67,
                    "time": 25.91043300000002,
                    "velocity": 0.44881889763779526,
                    "duration": 0.30304599999999837
                },
                {
                    "name": "E5",
                    "midi": 76,
                    "time": 25.91043300000002,
                    "velocity": 0.5275590551181102,
                    "duration": 0.30304599999999837
                },
                {
                    "name": "D#4",
                    "midi": 63,
                    "time": 26.213479000000017,
                    "velocity": 0.4409448818897638,
                    "duration": 0.0757614999999987
                },
                {
                    "name": "F#4",
                    "midi": 66,
                    "time": 26.213479000000017,
                    "velocity": 0.4409448818897638,
                    "duration": 0.0757614999999987
                },
                {
                    "name": "D#5",
                    "midi": 75,
                    "time": 26.213479000000017,
                    "velocity": 0.5196850393700787,
                    "duration": 0.0757614999999987
                },
                {
                    "name": "C4",
                    "midi": 60,
                    "time": 26.516525000000016,
                    "velocity": 0.3937007874015748,
                    "duration": 0.0757614999999987
                },
                {
                    "name": "F#4",
                    "midi": 66,
                    "time": 26.516525000000016,
                    "velocity": 0.3937007874015748,
                    "duration": 0.0757614999999987
                },
                {
                    "name": "G#4",
                    "midi": 68,
                    "time": 26.516525000000016,
                    "velocity": 0.48031496062992124,
                    "duration": 0.0757614999999987
                },
                {
                    "name": "F#4",
                    "midi": 66,
                    "time": 26.819571000000014,
                    "velocity": 0.4409448818897638,
                    "duration": 0.0757614999999987
                },
                {
                    "name": "G#4",
                    "midi": 68,
                    "time": 26.819571000000014,
                    "velocity": 0.4409448818897638,
                    "duration": 0.0757614999999987
                },
                {
                    "name": "D#5",
                    "midi": 75,
                    "time": 26.819571000000014,
                    "velocity": 0.5196850393700787,
                    "duration": 0.0757614999999987
                },
                {
                    "name": "C4",
                    "midi": 60,
                    "time": 27.122617000000012,
                    "velocity": 0.3937007874015748,
                    "duration": 0.0757614999999987
                },
                {
                    "name": "F#4",
                    "midi": 66,
                    "time": 27.122617000000012,
                    "velocity": 0.3937007874015748,
                    "duration": 0.0757614999999987
                },
                {
                    "name": "G#4",
                    "midi": 68,
                    "time": 27.122617000000012,
                    "velocity": 0.48031496062992124,
                    "duration": 0.0757614999999987
                },
                {
                    "name": "F#4",
                    "midi": 66,
                    "time": 27.42566300000001,
                    "velocity": 0.4409448818897638,
                    "duration": 0.0757614999999987
                },
                {
                    "name": "G#4",
                    "midi": 68,
                    "time": 27.42566300000001,
                    "velocity": 0.4409448818897638,
                    "duration": 0.0757614999999987
                },
                {
                    "name": "D#5",
                    "midi": 75,
                    "time": 27.42566300000001,
                    "velocity": 0.5196850393700787,
                    "duration": 0.0757614999999987
                },
                {
                    "name": "G#4",
                    "midi": 68,
                    "time": 27.72870900000001,
                    "velocity": 0.3937007874015748,
                    "duration": 0.15152300000000096
                },
                {
                    "name": "F4",
                    "midi": 65,
                    "time": 27.72870900000001,
                    "velocity": 0.3937007874015748,
                    "duration": 0.15152300000000096
                },
                {
                    "name": "C#5",
                    "midi": 73,
                    "time": 27.72870900000001,
                    "velocity": 0.48031496062992124,
                    "duration": 0.3030460000000019
                },
                {
                    "name": "D#4",
                    "midi": 63,
                    "time": 28.03175500000001,
                    "velocity": 0.4409448818897638,
                    "duration": 0.15152300000000096
                },
                {
                    "name": "G#4",
                    "midi": 68,
                    "time": 28.03175500000001,
                    "velocity": 0.4409448818897638,
                    "duration": 0.15152300000000096
                },
                {
                    "name": "C5",
                    "midi": 72,
                    "time": 28.03175500000001,
                    "velocity": 0.5196850393700787,
                    "duration": 0.3030460000000019
                },
                {
                    "name": "C#4",
                    "midi": 61,
                    "time": 28.334801000000013,
                    "velocity": 0.3937007874015748,
                    "duration": 0.15152300000000096
                },
                {
                    "name": "G#4",
                    "midi": 68,
                    "time": 28.334801000000013,
                    "velocity": 0.3937007874015748,
                    "duration": 0.15152300000000096
                },
                {
                    "name": "A#4",
                    "midi": 70,
                    "time": 28.334801000000013,
                    "velocity": 0.4881889763779528,
                    "duration": 0.3030460000000019
                },
                {
                    "name": "C4",
                    "midi": 60,
                    "time": 28.637847000000015,
                    "velocity": 0.44881889763779526,
                    "duration": 0.15152300000000096
                },
                {
                    "name": "G#4",
                    "midi": 68,
                    "time": 28.637847000000015,
                    "velocity": 0.5275590551181102,
                    "duration": 0.3030460000000019
                },
                {
                    "name": "G#4",
                    "midi": 68,
                    "time": 28.940893000000017,
                    "velocity": 0.4094488188976378,
                    "duration": 0.15152300000000096
                },
                {
                    "name": "F#4",
                    "midi": 66,
                    "time": 28.940893000000017,
                    "velocity": 0.4094488188976378,
                    "duration": 0.15152300000000096
                },
                {
                    "name": "D#5",
                    "midi": 75,
                    "time": 28.940893000000017,
                    "velocity": 0.49606299212598426,
                    "duration": 0.3030460000000019
                },
                {
                    "name": "F4",
                    "midi": 65,
                    "time": 29.24393900000002,
                    "velocity": 0.4645669291338583,
                    "duration": 0.15152300000000096
                },
                {
                    "name": "G#4",
                    "midi": 68,
                    "time": 29.24393900000002,
                    "velocity": 0.4645669291338583,
                    "duration": 0.15152300000000096
                },
                {
                    "name": "C#5",
                    "midi": 73,
                    "time": 29.24393900000002,
                    "velocity": 0.5511811023622047,
                    "duration": 0.3030460000000019
                },
                {
                    "name": "C#4",
                    "midi": 61,
                    "time": 29.54698500000002,
                    "velocity": 0.41732283464566927,
                    "duration": 0.15152300000000096
                },
                {
                    "name": "G#4",
                    "midi": 68,
                    "time": 29.54698500000002,
                    "velocity": 0.41732283464566927,
                    "duration": 0.15152300000000096
                },
                {
                    "name": "A#4",
                    "midi": 70,
                    "time": 29.54698500000002,
                    "velocity": 0.5196850393700787,
                    "duration": 0.3030460000000019
                },
                {
                    "name": "G#4",
                    "midi": 68,
                    "time": 29.850031000000023,
                    "velocity": 0.48031496062992124,
                    "duration": 0.15152300000000096
                },
                {
                    "name": "F4",
                    "midi": 65,
                    "time": 29.850031000000023,
                    "velocity": 0.48031496062992124,
                    "duration": 0.15152300000000096
                },
                {
                    "name": "C#5",
                    "midi": 73,
                    "time": 29.850031000000023,
                    "velocity": 0.5669291338582677,
                    "duration": 0.3030460000000019
                },
                {
                    "name": "G#4",
                    "midi": 68,
                    "time": 30.153077000000025,
                    "velocity": 0.4409448818897638,
                    "duration": 0.15152300000000096
                },
                {
                    "name": "D#4",
                    "midi": 63,
                    "time": 30.153077000000025,
                    "velocity": 0.4409448818897638,
                    "duration": 0.15152300000000096
                },
                {
                    "name": "C5",
                    "midi": 72,
                    "time": 30.153077000000025,
                    "velocity": 0.5354330708661418,
                    "duration": 0.3030460000000019
                },
                {
                    "name": "F#4",
                    "midi": 66,
                    "time": 30.456123000000026,
                    "velocity": 0.4881889763779528,
                    "duration": 0.15152300000000096
                },
                {
                    "name": "G#4",
                    "midi": 68,
                    "time": 30.456123000000026,
                    "velocity": 0.4881889763779528,
                    "duration": 0.15152300000000096
                },
                {
                    "name": "D#5",
                    "midi": 75,
                    "time": 30.456123000000026,
                    "velocity": 0.5748031496062992,
                    "duration": 0.3030460000000019
                },
                {
                    "name": "F4",
                    "midi": 65,
                    "time": 30.75916900000003,
                    "velocity": 0.44881889763779526,
                    "duration": 0.15152300000000096
                },
                {
                    "name": "G#4",
                    "midi": 68,
                    "time": 30.75916900000003,
                    "velocity": 0.44881889763779526,
                    "duration": 0.15152300000000096
                },
                {
                    "name": "C#5",
                    "midi": 73,
                    "time": 30.75916900000003,
                    "velocity": 0.5433070866141733,
                    "duration": 0.3030460000000019
                },
                {
                    "name": "G#4",
                    "midi": 68,
                    "time": 31.06221500000003,
                    "velocity": 0.5039370078740157,
                    "duration": 0.15152300000000096
                },
                {
                    "name": "D#4",
                    "midi": 63,
                    "time": 31.06221500000003,
                    "velocity": 0.5039370078740157,
                    "duration": 0.15152300000000096
                },
                {
                    "name": "C5",
                    "midi": 72,
                    "time": 31.06221500000003,
                    "velocity": 0.5905511811023622,
                    "duration": 0.3030460000000019
                },
                {
                    "name": "C5",
                    "midi": 72,
                    "time": 31.365261000000032,
                    "velocity": 0.4566929133858268,
                    "duration": 0.15152300000000096
                },
                {
                    "name": "F#4",
                    "midi": 66,
                    "time": 31.365261000000032,
                    "velocity": 0.4566929133858268,
                    "duration": 0.15152300000000096
                },
                {
                    "name": "F5",
                    "midi": 77,
                    "time": 31.365261000000032,
                    "velocity": 0.5590551181102362,
                    "duration": 0.3030460000000019
                },
                {
                    "name": "F#4",
                    "midi": 66,
                    "time": 31.668307000000034,
                    "velocity": 0.5196850393700787,
                    "duration": 0.15152300000000096
                },
                {
                    "name": "C5",
                    "midi": 72,
                    "time": 31.668307000000034,
                    "velocity": 0.5196850393700787,
                    "duration": 0.15152300000000096
                },
                {
                    "name": "D#5",
                    "midi": 75,
                    "time": 31.668307000000034,
                    "velocity": 0.6141732283464567,
                    "duration": 0.3030460000000019
                },
                {
                    "name": "D#4",
                    "midi": 63,
                    "time": 31.971353000000036,
                    "velocity": 0.47244094488188976,
                    "duration": 0.1515229999999974
                },
                {
                    "name": "F#4",
                    "midi": 66,
                    "time": 31.971353000000036,
                    "velocity": 0.47244094488188976,
                    "duration": 0.1515229999999974
                },
                {
                    "name": "C5",
                    "midi": 72,
                    "time": 31.971353000000036,
                    "velocity": 0.5748031496062992,
                    "duration": 0.3030459999999948
                },
                {
                    "name": "A#4",
                    "midi": 70,
                    "time": 32.27439900000003,
                    "velocity": 0.5354330708661418,
                    "duration": 0.1515229999999974
                },
                {
                    "name": "F#4",
                    "midi": 66,
                    "time": 32.27439900000003,
                    "velocity": 0.5354330708661418,
                    "duration": 0.1515229999999974
                },
                {
                    "name": "D#5",
                    "midi": 75,
                    "time": 32.27439900000003,
                    "velocity": 0.6299212598425197,
                    "duration": 0.3030459999999948
                },
                {
                    "name": "A#4",
                    "midi": 70,
                    "time": 32.577445000000026,
                    "velocity": 0.4881889763779528,
                    "duration": 0.1515229999999974
                },
                {
                    "name": "F4",
                    "midi": 65,
                    "time": 32.577445000000026,
                    "velocity": 0.4881889763779528,
                    "duration": 0.1515229999999974
                },
                {
                    "name": "D5",
                    "midi": 74,
                    "time": 32.577445000000026,
                    "velocity": 0.5905511811023622,
                    "duration": 0.3030459999999948
                },
                {
                    "name": "G#4",
                    "midi": 68,
                    "time": 32.88049100000002,
                    "velocity": 0.5590551181102362,
                    "duration": 0.1515229999999974
                },
                {
                    "name": "D5",
                    "midi": 74,
                    "time": 32.88049100000002,
                    "velocity": 0.5590551181102362,
                    "duration": 0.1515229999999974
                },
                {
                    "name": "G#5",
                    "midi": 80,
                    "time": 32.88049100000002,
                    "velocity": 0.6614173228346457,
                    "duration": 0.3030459999999948
                },
                {
                    "name": "G4",
                    "midi": 67,
                    "time": 33.183537000000015,
                    "velocity": 0.5590551181102362,
                    "duration": 0.1515229999999974
                },
                {
                    "name": "D5",
                    "midi": 74,
                    "time": 33.183537000000015,
                    "velocity": 0.5590551181102362,
                    "duration": 0.1515229999999974
                },
                {
                    "name": "G5",
                    "midi": 79,
                    "time": 33.183537000000015,
                    "velocity": 0.6614173228346457,
                    "duration": 0.3030459999999948
                },
                {
                    "name": "E4",
                    "midi": 64,
                    "time": 33.48658300000001,
                    "velocity": 0.5511811023622047,
                    "duration": 0.3030459999999948
                },
                {
                    "name": "A#4",
                    "midi": 70,
                    "time": 33.48658300000001,
                    "velocity": 0.5511811023622047,
                    "duration": 0.3030459999999948
                },
                {
                    "name": "C5",
                    "midi": 72,
                    "time": 33.48658300000001,
                    "velocity": 0.6456692913385826,
                    "duration": 0.1515229999999974
                },
                {
                    "name": "F4",
                    "midi": 65,
                    "time": 33.789629000000005,
                    "velocity": 0.49606299212598426,
                    "duration": 0.1515229999999974
                },
                {
                    "name": "G#4",
                    "midi": 68,
                    "time": 33.789629000000005,
                    "velocity": 0.49606299212598426,
                    "duration": 0.1515229999999974
                },
                {
                    "name": "F5",
                    "midi": 77,
                    "time": 33.789629000000005,
                    "velocity": 0.6062992125984252,
                    "duration": 0.1515229999999974
                },
                {
                    "name": "G#4",
                    "midi": 68,
                    "time": 34.092675,
                    "velocity": 0.5511811023622047,
                    "duration": 0.1515229999999974
                },
                {
                    "name": "D5",
                    "midi": 74,
                    "time": 34.092675,
                    "velocity": 0.5511811023622047,
                    "duration": 0.1515229999999974
                },
                {
                    "name": "G#5",
                    "midi": 80,
                    "time": 34.092675,
                    "velocity": 0.6535433070866141,
                    "duration": 0.1515229999999974
                },
                {
                    "name": "G4",
                    "midi": 67,
                    "time": 34.395720999999995,
                    "velocity": 0.5590551181102362,
                    "duration": 0.1515229999999974
                },
                {
                    "name": "D5",
                    "midi": 74,
                    "time": 34.395720999999995,
                    "velocity": 0.5590551181102362,
                    "duration": 0.1515229999999974
                },
                {
                    "name": "G5",
                    "midi": 79,
                    "time": 34.395720999999995,
                    "velocity": 0.6614173228346457,
                    "duration": 0.1515229999999974
                },
                {
                    "name": "E4",
                    "midi": 64,
                    "time": 34.69876699999999,
                    "velocity": 0.5511811023622047,
                    "duration": 0.1515229999999974
                },
                {
                    "name": "A#4",
                    "midi": 70,
                    "time": 34.69876699999999,
                    "velocity": 0.5511811023622047,
                    "duration": 0.1515229999999974
                },
                {
                    "name": "C5",
                    "midi": 72,
                    "time": 34.69876699999999,
                    "velocity": 0.6456692913385826,
                    "duration": 0.1515229999999974
                },
                {
                    "name": "F4",
                    "midi": 65,
                    "time": 35.001812999999984,
                    "velocity": 0.49606299212598426,
                    "duration": 0.1515229999999974
                },
                {
                    "name": "G#4",
                    "midi": 68,
                    "time": 35.001812999999984,
                    "velocity": 0.49606299212598426,
                    "duration": 0.1515229999999974
                },
                {
                    "name": "F5",
                    "midi": 77,
                    "time": 35.001812999999984,
                    "velocity": 0.6062992125984252,
                    "duration": 0.1515229999999974
                },
                {
                    "name": "G4",
                    "midi": 67,
                    "time": 35.30485899999998,
                    "velocity": 0.4881889763779528,
                    "duration": 0.0757614999999987
                },
                {
                    "name": "C5",
                    "midi": 72,
                    "time": 35.30485899999998,
                    "velocity": 0.4881889763779528,
                    "duration": 0.0757614999999987
                },
                {
                    "name": "G5",
                    "midi": 79,
                    "time": 35.30485899999998,
                    "velocity": 0.5826771653543307,
                    "duration": 0.0757614999999987
                },
                {
                    "name": "G#4",
                    "midi": 68,
                    "time": 35.60790499999998,
                    "velocity": 0.49606299212598426,
                    "duration": 0.0757614999999987
                },
                {
                    "name": "C5",
                    "midi": 72,
                    "time": 35.60790499999998,
                    "velocity": 0.49606299212598426,
                    "duration": 0.0757614999999987
                },
                {
                    "name": "G#5",
                    "midi": 80,
                    "time": 35.60790499999998,
                    "velocity": 0.5905511811023622,
                    "duration": 0.0757614999999987
                },
                {
                    "name": "D#4",
                    "midi": 63,
                    "time": 35.91095099999998,
                    "velocity": 0.4881889763779528,
                    "duration": 0.0757614999999987
                },
                {
                    "name": "G4",
                    "midi": 67,
                    "time": 35.91095099999998,
                    "velocity": 0.4881889763779528,
                    "duration": 0.0757614999999987
                },
                {
                    "name": "D#5",
                    "midi": 75,
                    "time": 35.91095099999998,
                    "velocity": 0.5748031496062992,
                    "duration": 0.0757614999999987
                },
                {
                    "name": "F4",
                    "midi": 65,
                    "time": 36.213996999999985,
                    "velocity": 0.44881889763779526,
                    "duration": 0.0757614999999987
                },
                {
                    "name": "G4",
                    "midi": 67,
                    "time": 36.213996999999985,
                    "velocity": 0.44881889763779526,
                    "duration": 0.0757614999999987
                },
                {
                    "name": "D5",
                    "midi": 74,
                    "time": 36.213996999999985,
                    "velocity": 0.5433070866141733,
                    "duration": 0.0757614999999987
                },
                {
                    "name": "D#4",
                    "midi": 63,
                    "time": 36.51704299999999,
                    "velocity": 0.4409448818897638,
                    "duration": 0.1515229999999974
                },
                {
                    "name": "G4",
                    "midi": 67,
                    "time": 36.51704299999999,
                    "velocity": 0.4409448818897638,
                    "duration": 0.1515229999999974
                },
                {
                    "name": "C5",
                    "midi": 72,
                    "time": 36.51704299999999,
                    "velocity": 0.5275590551181102,
                    "duration": 1.0606609999999819
                },
                {
                    "name": "F4",
                    "midi": 65,
                    "time": 36.82008899999998,
                    "velocity": 0.44881889763779526,
                    "duration": 0.1515229999999974
                },
                {
                    "name": "G#4",
                    "midi": 68,
                    "time": 36.82008899999998,
                    "velocity": 0.44881889763779526,
                    "duration": 0.1515229999999974
                },
                {
                    "name": "D#4",
                    "midi": 63,
                    "time": 37.12313499999998,
                    "velocity": 0.4409448818897638,
                    "duration": 0.1515229999999974
                },
                {
                    "name": "G4",
                    "midi": 67,
                    "time": 37.12313499999998,
                    "velocity": 0.4409448818897638,
                    "duration": 0.1515229999999974
                },
                {
                    "name": "F4",
                    "midi": 65,
                    "time": 37.42618099999997,
                    "velocity": 0.3937007874015748,
                    "duration": 0.1515229999999974
                },
                {
                    "name": "G#4",
                    "midi": 68,
                    "time": 37.42618099999997,
                    "velocity": 0.3937007874015748,
                    "duration": 0.1515229999999974
                },
                {
                    "name": "G4",
                    "midi": 67,
                    "time": 37.729226999999966,
                    "velocity": 0.3464566929133858,
                    "duration": 0.3030460000000019
                },
                {
                    "name": "C5",
                    "midi": 72,
                    "time": 37.729226999999966,
                    "velocity": 0.3464566929133858,
                    "duration": 0.3030460000000019
                },
                {
                    "name": "G5",
                    "midi": 79,
                    "time": 37.729226999999966,
                    "velocity": 0.4094488188976378,
                    "duration": 0.3030460000000019
                },
                {
                    "name": "G#4",
                    "midi": 68,
                    "time": 38.03227299999997,
                    "velocity": 0.3543307086614173,
                    "duration": 0.3030460000000019
                },
                {
                    "name": "C5",
                    "midi": 72,
                    "time": 38.03227299999997,
                    "velocity": 0.3543307086614173,
                    "duration": 0.3030460000000019
                },
                {
                    "name": "G#5",
                    "midi": 80,
                    "time": 38.03227299999997,
                    "velocity": 0.41732283464566927,
                    "duration": 0.3030460000000019
                },
                {
                    "name": "D#4",
                    "midi": 63,
                    "time": 38.33531899999997,
                    "velocity": 0.3464566929133858,
                    "duration": 0.3030460000000019
                },
                {
                    "name": "G4",
                    "midi": 67,
                    "time": 38.33531899999997,
                    "velocity": 0.3464566929133858,
                    "duration": 0.3030460000000019
                },
                {
                    "name": "D#5",
                    "midi": 75,
                    "time": 38.33531899999997,
                    "velocity": 0.4015748031496063,
                    "duration": 0.3030460000000019
                },
                {
                    "name": "F4",
                    "midi": 65,
                    "time": 38.63836499999997,
                    "velocity": 0.30708661417322836,
                    "duration": 0.1515229999999974
                },
                {
                    "name": "G4",
                    "midi": 67,
                    "time": 38.63836499999997,
                    "velocity": 0.30708661417322836,
                    "duration": 0.1515229999999974
                },
                {
                    "name": "D5",
                    "midi": 74,
                    "time": 38.63836499999997,
                    "velocity": 0.3858267716535433,
                    "duration": 0.3030459999999948
                },
                {
                    "name": "D#4",
                    "midi": 63,
                    "time": 38.94141099999997,
                    "velocity": 0.30708661417322836,
                    "duration": 0.1515229999999974
                },
                {
                    "name": "G4",
                    "midi": 67,
                    "time": 38.94141099999997,
                    "velocity": 0.30708661417322836,
                    "duration": 0.1515229999999974
                },
                {
                    "name": "C5",
                    "midi": 72,
                    "time": 38.94141099999997,
                    "velocity": 0.3700787401574803,
                    "duration": 1.0606609999999819
                },
                {
                    "name": "F4",
                    "midi": 65,
                    "time": 39.24445699999996,
                    "velocity": 0.3543307086614173,
                    "duration": 0.1515229999999974
                },
                {
                    "name": "G#4",
                    "midi": 68,
                    "time": 39.24445699999996,
                    "velocity": 0.3543307086614173,
                    "duration": 0.1515229999999974
                },
                {
                    "name": "D#4",
                    "midi": 63,
                    "time": 39.547502999999956,
                    "velocity": 0.3464566929133858,
                    "duration": 0.1515229999999974
                },
                {
                    "name": "G4",
                    "midi": 67,
                    "time": 39.547502999999956,
                    "velocity": 0.3464566929133858,
                    "duration": 0.1515229999999974
                },
                {
                    "name": "F4",
                    "midi": 65,
                    "time": 39.85054899999995,
                    "velocity": 0.30708661417322836,
                    "duration": 0.1515229999999974
                },
                {
                    "name": "G#4",
                    "midi": 68,
                    "time": 39.85054899999995,
                    "velocity": 0.30708661417322836,
                    "duration": 0.1515229999999974
                },
                {
                    "name": "G4",
                    "midi": 67,
                    "time": 40.153594999999946,
                    "velocity": 0.44881889763779526,
                    "duration": 0.3030460000000019
                },
                {
                    "name": "C5",
                    "midi": 72,
                    "time": 40.153594999999946,
                    "velocity": 0.44881889763779526,
                    "duration": 0.3030460000000019
                },
                {
                    "name": "G5",
                    "midi": 79,
                    "time": 40.153594999999946,
                    "velocity": 0.5354330708661418,
                    "duration": 0.3030460000000019
                },
                {
                    "name": "G#4",
                    "midi": 68,
                    "time": 40.45664099999995,
                    "velocity": 0.47244094488188976,
                    "duration": 0.3030460000000019
                },
                {
                    "name": "C5",
                    "midi": 72,
                    "time": 40.45664099999995,
                    "velocity": 0.47244094488188976,
                    "duration": 0.3030460000000019
                },
                {
                    "name": "G#5",
                    "midi": 80,
                    "time": 40.45664099999995,
                    "velocity": 0.5669291338582677,
                    "duration": 0.3030460000000019
                },
                {
                    "name": "C5",
                    "midi": 72,
                    "time": 40.75968699999995,
                    "velocity": 0.4645669291338583,
                    "duration": 0.3030460000000019
                },
                {
                    "name": "F5",
                    "midi": 77,
                    "time": 40.75968699999995,
                    "velocity": 0.4645669291338583,
                    "duration": 0.3030460000000019
                },
                {
                    "name": "C6",
                    "midi": 84,
                    "time": 40.75968699999995,
                    "velocity": 0.5748031496062992,
                    "duration": 0.3030460000000019
                },
                {
                    "name": "D5",
                    "midi": 74,
                    "time": 41.06273299999995,
                    "velocity": 0.41732283464566927,
                    "duration": 0.1515229999999974
                },
                {
                    "name": "G5",
                    "midi": 79,
                    "time": 41.06273299999995,
                    "velocity": 0.41732283464566927,
                    "duration": 0.1515229999999974
                },
                {
                    "name": "B5",
                    "midi": 83,
                    "time": 41.06273299999995,
                    "velocity": 0.5669291338582677,
                    "duration": 0.1515229999999974
                },
                {
                    "name": "A#5",
                    "midi": 82,
                    "time": 41.36577899999995,
                    "velocity": 0.49606299212598426,
                    "duration": 0.3030460000000019
                },
                {
                    "name": "A#4",
                    "midi": 70,
                    "time": 41.36577899999995,
                    "velocity": 0.4094488188976378,
                    "duration": 0.3030460000000019
                },
                {
                    "name": "E5",
                    "midi": 76,
                    "time": 41.36577899999995,
                    "velocity": 0.4094488188976378,
                    "duration": 0.3030460000000019
                },
                {
                    "name": "G#4",
                    "midi": 68,
                    "time": 41.66882499999995,
                    "velocity": 0.41732283464566927,
                    "duration": 0.3030460000000019
                },
                {
                    "name": "C5",
                    "midi": 72,
                    "time": 41.66882499999995,
                    "velocity": 0.41732283464566927,
                    "duration": 0.3030460000000019
                },
                {
                    "name": "G#5",
                    "midi": 80,
                    "time": 41.66882499999995,
                    "velocity": 0.5039370078740157,
                    "duration": 0.3030460000000019
                },
                {
                    "name": "G4",
                    "midi": 67,
                    "time": 41.97187099999995,
                    "velocity": 0.3937007874015748,
                    "duration": 0.3030460000000019
                },
                {
                    "name": "D#5",
                    "midi": 75,
                    "time": 41.97187099999995,
                    "velocity": 0.3937007874015748,
                    "duration": 0.3030460000000019
                },
                {
                    "name": "G5",
                    "midi": 79,
                    "time": 41.97187099999995,
                    "velocity": 0.4645669291338583,
                    "duration": 0.3030460000000019
                },
                {
                    "name": "F4",
                    "midi": 65,
                    "time": 42.27491699999995,
                    "velocity": 0.30708661417322836,
                    "duration": 0.1515229999999974
                },
                {
                    "name": "G4",
                    "midi": 67,
                    "time": 42.27491699999995,
                    "velocity": 0.30708661417322836,
                    "duration": 0.1515229999999974
                },
                {
                    "name": "B4",
                    "midi": 71,
                    "time": 42.27491699999995,
                    "velocity": 0.3937007874015748,
                    "duration": 0.3030459999999948
                },
                {
                    "name": "E4",
                    "midi": 64,
                    "time": 42.57796299999995,
                    "velocity": 0.3464566929133858,
                    "duration": 0.1515229999999974
                },
                {
                    "name": "G4",
                    "midi": 67,
                    "time": 42.57796299999995,
                    "velocity": 0.3464566929133858,
                    "duration": 0.1515229999999974
                },
                {
                    "name": "C5",
                    "midi": 72,
                    "time": 42.57796299999995,
                    "velocity": 0.4094488188976378,
                    "duration": 0.3030459999999948
                },
                {
                    "name": "F4",
                    "midi": 65,
                    "time": 42.88100899999994,
                    "velocity": 0.30708661417322836,
                    "duration": 0.1515229999999974
                },
                {
                    "name": "G#4",
                    "midi": 68,
                    "time": 42.88100899999994,
                    "velocity": 0.30708661417322836,
                    "duration": 0.1515229999999974
                },
                {
                    "name": "C#5",
                    "midi": 73,
                    "time": 42.88100899999994,
                    "velocity": 0.3858267716535433,
                    "duration": 0.3030459999999948
                },
                {
                    "name": "G4",
                    "midi": 67,
                    "time": 43.18405499999994,
                    "velocity": 0.3543307086614173,
                    "duration": 0.1515229999999974
                },
                {
                    "name": "E4",
                    "midi": 64,
                    "time": 43.18405499999994,
                    "velocity": 0.3543307086614173,
                    "duration": 0.1515229999999974
                },
                {
                    "name": "C5",
                    "midi": 72,
                    "time": 43.18405499999994,
                    "velocity": 0.4094488188976378,
                    "duration": 0.3030459999999948
                },
                {
                    "name": "G#4",
                    "midi": 68,
                    "time": 43.48710099999993,
                    "velocity": 0.3228346456692913,
                    "duration": 0.1515229999999974
                },
                {
                    "name": "F4",
                    "midi": 65,
                    "time": 43.48710099999993,
                    "velocity": 0.3228346456692913,
                    "duration": 0.1515229999999974
                },
                {
                    "name": "D5",
                    "midi": 74,
                    "time": 43.48710099999993,
                    "velocity": 0.3937007874015748,
                    "duration": 0.3030459999999948
                },
                {
                    "name": "E4",
                    "midi": 64,
                    "time": 43.790146999999926,
                    "velocity": 0.3700787401574803,
                    "duration": 0.1515229999999974
                },
                {
                    "name": "G4",
                    "midi": 67,
                    "time": 43.790146999999926,
                    "velocity": 0.3700787401574803,
                    "duration": 0.1515229999999974
                },
                {
                    "name": "C5",
                    "midi": 72,
                    "time": 43.790146999999926,
                    "velocity": 0.4409448818897638,
                    "duration": 0.3030459999999948
                },
                {
                    "name": "F4",
                    "midi": 65,
                    "time": 44.09319299999992,
                    "velocity": 0.33070866141732286,
                    "duration": 0.1515229999999974
                },
                {
                    "name": "G#4",
                    "midi": 68,
                    "time": 44.09319299999992,
                    "velocity": 0.33070866141732286,
                    "duration": 0.1515229999999974
                },
                {
                    "name": "C#5",
                    "midi": 73,
                    "time": 44.09319299999992,
                    "velocity": 0.4094488188976378,
                    "duration": 0.3030459999999948
                },
                {
                    "name": "G4",
                    "midi": 67,
                    "time": 44.396238999999916,
                    "velocity": 0.3858267716535433,
                    "duration": 0.1515229999999974
                },
                {
                    "name": "E4",
                    "midi": 64,
                    "time": 44.396238999999916,
                    "velocity": 0.3858267716535433,
                    "duration": 0.1515229999999974
                },
                {
                    "name": "C5",
                    "midi": 72,
                    "time": 44.396238999999916,
                    "velocity": 0.4566929133858268,
                    "duration": 0.3030459999999948
                },
                {
                    "name": "G#4",
                    "midi": 68,
                    "time": 44.69928499999991,
                    "velocity": 0.3464566929133858,
                    "duration": 0.1515229999999974
                },
                {
                    "name": "F4",
                    "midi": 65,
                    "time": 44.69928499999991,
                    "velocity": 0.3464566929133858,
                    "duration": 0.1515229999999974
                },
                {
                    "name": "D5",
                    "midi": 74,
                    "time": 44.69928499999991,
                    "velocity": 0.41732283464566927,
                    "duration": 0.3030459999999948
                },
                {
                    "name": "E4",
                    "midi": 64,
                    "time": 45.002330999999906,
                    "velocity": 0.3858267716535433,
                    "duration": 0.1515229999999974
                },
                {
                    "name": "G4",
                    "midi": 67,
                    "time": 45.002330999999906,
                    "velocity": 0.3858267716535433,
                    "duration": 0.1515229999999974
                },
                {
                    "name": "C5",
                    "midi": 72,
                    "time": 45.002330999999906,
                    "velocity": 0.4566929133858268,
                    "duration": 0.3030459999999948
                },
                {
                    "name": "F4",
                    "midi": 65,
                    "time": 45.3053769999999,
                    "velocity": 0.33070866141732286,
                    "duration": 0.1515229999999974
                },
                {
                    "name": "G#4",
                    "midi": 68,
                    "time": 45.3053769999999,
                    "velocity": 0.33070866141732286,
                    "duration": 0.1515229999999974
                },
                {
                    "name": "D5",
                    "midi": 74,
                    "time": 45.3053769999999,
                    "velocity": 0.4094488188976378,
                    "duration": 0.3030459999999948
                },
                {
                    "name": "G4",
                    "midi": 67,
                    "time": 45.608422999999895,
                    "velocity": 0.3779527559055118,
                    "duration": 0.1515229999999974
                },
                {
                    "name": "E4",
                    "midi": 64,
                    "time": 45.608422999999895,
                    "velocity": 0.3779527559055118,
                    "duration": 0.1515229999999974
                },
                {
                    "name": "C5",
                    "midi": 72,
                    "time": 45.608422999999895,
                    "velocity": 0.44881889763779526,
                    "duration": 0.3030459999999948
                },
                {
                    "name": "G#4",
                    "midi": 68,
                    "time": 45.91146899999989,
                    "velocity": 0.3228346456692913,
                    "duration": 0.1515229999999974
                },
                {
                    "name": "F4",
                    "midi": 65,
                    "time": 45.91146899999989,
                    "velocity": 0.3228346456692913,
                    "duration": 0.1515229999999974
                },
                {
                    "name": "C#5",
                    "midi": 73,
                    "time": 45.91146899999989,
                    "velocity": 0.4015748031496063,
                    "duration": 0.3030459999999948
                },
                {
                    "name": "E4",
                    "midi": 64,
                    "time": 46.214514999999885,
                    "velocity": 0.3700787401574803,
                    "duration": 0.1515229999999974
                },
                {
                    "name": "G4",
                    "midi": 67,
                    "time": 46.214514999999885,
                    "velocity": 0.3700787401574803,
                    "duration": 0.1515229999999974
                },
                {
                    "name": "C5",
                    "midi": 72,
                    "time": 46.214514999999885,
                    "velocity": 0.4330708661417323,
                    "duration": 0.3030459999999948
                },
                {
                    "name": "F4",
                    "midi": 65,
                    "time": 46.51756099999988,
                    "velocity": 0.31496062992125984,
                    "duration": 0.1515229999999974
                },
                {
                    "name": "G#4",
                    "midi": 68,
                    "time": 46.51756099999988,
                    "velocity": 0.31496062992125984,
                    "duration": 0.1515229999999974
                },
                {
                    "name": "D5",
                    "midi": 74,
                    "time": 46.51756099999988,
                    "velocity": 0.3937007874015748,
                    "duration": 0.3030459999999948
                },
                {
                    "name": "A4",
                    "midi": 69,
                    "time": 46.820606999999875,
                    "velocity": 0.3543307086614173,
                    "duration": 0.1515229999999974
                },
                {
                    "name": "F#4",
                    "midi": 66,
                    "time": 46.820606999999875,
                    "velocity": 0.3543307086614173,
                    "duration": 0.1515229999999974
                },
                {
                    "name": "D#5",
                    "midi": 75,
                    "time": 46.820606999999875,
                    "velocity": 0.4094488188976378,
                    "duration": 0.3030459999999948
                },
                {
                    "name": "G#4",
                    "midi": 68,
                    "time": 47.12365299999987,
                    "velocity": 0.30708661417322836,
                    "duration": 0.1515229999999974
                },
                {
                    "name": "E4",
                    "midi": 64,
                    "time": 47.12365299999987,
                    "velocity": 0.30708661417322836,
                    "duration": 0.1515229999999974
                },
                {
                    "name": "E5",
                    "midi": 76,
                    "time": 47.12365299999987,
                    "velocity": 0.3858267716535433,
                    "duration": 0.3030459999999948
                },
                {
                    "name": "E4",
                    "midi": 64,
                    "time": 47.426698999999864,
                    "velocity": 0.3937007874015748,
                    "duration": 0.1515229999999974
                },
                {
                    "name": "A4",
                    "midi": 69,
                    "time": 47.426698999999864,
                    "velocity": 0.3937007874015748,
                    "duration": 0.1515229999999974
                },
                {
                    "name": "E5",
                    "midi": 76,
                    "time": 47.426698999999864,
                    "velocity": 0.3937007874015748,
                    "duration": 0.3030459999999948
                },
                {
                    "name": "A5",
                    "midi": 81,
                    "time": 47.72974499999986,
                    "velocity": 0.5511811023622047,
                    "duration": 0.6060919999999896
                },
                {
                    "name": "A4",
                    "midi": 69,
                    "time": 47.72974499999986,
                    "velocity": 0.47244094488188976,
                    "duration": 0.1515229999999974
                },
                {
                    "name": "E5",
                    "midi": 76,
                    "time": 47.72974499999986,
                    "velocity": 0.47244094488188976,
                    "duration": 0.1515229999999974
                },
                {
                    "name": "D5",
                    "midi": 74,
                    "time": 48.032790999999854,
                    "velocity": 0.47244094488188976,
                    "duration": 0.1515229999999974
                },
                {
                    "name": "A4",
                    "midi": 69,
                    "time": 48.032790999999854,
                    "velocity": 0.4645669291338583,
                    "duration": 0.1515229999999974
                },
                {
                    "name": "G#4",
                    "midi": 68,
                    "time": 48.33583699999985,
                    "velocity": 0.41732283464566927,
                    "duration": 0.1515229999999974
                },
                {
                    "name": "E5",
                    "midi": 76,
                    "time": 48.33583699999985,
                    "velocity": 0.41732283464566927,
                    "duration": 0.1515229999999974
                },
                {
                    "name": "G#5",
                    "midi": 80,
                    "time": 48.33583699999985,
                    "velocity": 0.5039370078740157,
                    "duration": 0.1515229999999974
                },
                {
                    "name": "E4",
                    "midi": 64,
                    "time": 48.63888299999984,
                    "velocity": 0.3937007874015748,
                    "duration": 0.1515229999999974
                },
                {
                    "name": "A4",
                    "midi": 69,
                    "time": 48.63888299999984,
                    "velocity": 0.3937007874015748,
                    "duration": 0.1515229999999974
                },
                {
                    "name": "E5",
                    "midi": 76,
                    "time": 48.63888299999984,
                    "velocity": 0.3937007874015748,
                    "duration": 0.1515229999999974
                },
                {
                    "name": "C6",
                    "midi": 84,
                    "time": 48.94192899999984,
                    "velocity": 0.5511811023622047,
                    "duration": 0.6060919999999896
                },
                {
                    "name": "A4",
                    "midi": 69,
                    "time": 48.94192899999984,
                    "velocity": 0.47244094488188976,
                    "duration": 0.1515229999999974
                },
                {
                    "name": "E5",
                    "midi": 76,
                    "time": 48.94192899999984,
                    "velocity": 0.47244094488188976,
                    "duration": 0.1515229999999974
                },
                {
                    "name": "F5",
                    "midi": 77,
                    "time": 49.24497499999983,
                    "velocity": 0.47244094488188976,
                    "duration": 0.1515229999999974
                },
                {
                    "name": "C5",
                    "midi": 72,
                    "time": 49.24497499999983,
                    "velocity": 0.4645669291338583,
                    "duration": 0.1515229999999974
                },
                {
                    "name": "B4",
                    "midi": 71,
                    "time": 49.54802099999983,
                    "velocity": 0.41732283464566927,
                    "duration": 0.1515229999999974
                },
                {
                    "name": "B5",
                    "midi": 83,
                    "time": 49.54802099999983,
                    "velocity": 0.5039370078740157,
                    "duration": 0.3030459999999948
                },
                {
                    "name": "F5",
                    "midi": 77,
                    "time": 49.54802099999983,
                    "velocity": 0.41732283464566927,
                    "duration": 0.1515229999999974
                },
                {
                    "name": "A5",
                    "midi": 81,
                    "time": 49.85106699999982,
                    "velocity": 0.5039370078740157,
                    "duration": 0.1515229999999974
                },
                {
                    "name": "A4",
                    "midi": 69,
                    "time": 49.85106699999982,
                    "velocity": 0.3779527559055118,
                    "duration": 0.0757614999999987
                },
                {
                    "name": "F5",
                    "midi": 77,
                    "time": 49.85106699999982,
                    "velocity": 0.4330708661417323,
                    "duration": 0.0757614999999987
                },
                {
                    "name": "E6",
                    "midi": 88,
                    "time": 50.15411299999982,
                    "velocity": 0.5354330708661418,
                    "duration": 0.0757614999999987
                },
                {
                    "name": "A5",
                    "midi": 81,
                    "time": 50.15411299999982,
                    "velocity": 0.4330708661417323,
                    "duration": 0.0757614999999987
                },
                {
                    "name": "E5",
                    "midi": 76,
                    "time": 50.15411299999982,
                    "velocity": 0.4330708661417323,
                    "duration": 0.0757614999999987
                },
                {
                    "name": "D5",
                    "midi": 74,
                    "time": 50.45715899999982,
                    "velocity": 0.44881889763779526,
                    "duration": 0.0757614999999987
                },
                {
                    "name": "A5",
                    "midi": 81,
                    "time": 50.45715899999982,
                    "velocity": 0.44881889763779526,
                    "duration": 0.0757614999999987
                },
                {
                    "name": "D6",
                    "midi": 86,
                    "time": 50.45715899999982,
                    "velocity": 0.5511811023622047,
                    "duration": 0.0757614999999987
                },
                {
                    "name": "E6",
                    "midi": 88,
                    "time": 50.76020499999982,
                    "velocity": 0.5669291338582677,
                    "duration": 0.0757614999999987
                },
                {
                    "name": "G#5",
                    "midi": 80,
                    "time": 50.76020499999982,
                    "velocity": 0.4566929133858268,
                    "duration": 0.0757614999999987
                },
                {
                    "name": "E5",
                    "midi": 76,
                    "time": 50.76020499999982,
                    "velocity": 0.4566929133858268,
                    "duration": 0.0757614999999987
                },
                {
                    "name": "C6",
                    "midi": 84,
                    "time": 51.06325099999982,
                    "velocity": 0.5669291338582677,
                    "duration": 0.0757614999999987
                },
                {
                    "name": "E5",
                    "midi": 76,
                    "time": 51.06325099999982,
                    "velocity": 0.4566929133858268,
                    "duration": 0.0757614999999987
                },
                {
                    "name": "C5",
                    "midi": 72,
                    "time": 51.06325099999982,
                    "velocity": 0.4566929133858268,
                    "duration": 0.0757614999999987
                },
                {
                    "name": "G#5",
                    "midi": 80,
                    "time": 51.366296999999825,
                    "velocity": 0.49606299212598426,
                    "duration": 0.0757614999999987
                },
                {
                    "name": "E5",
                    "midi": 76,
                    "time": 51.366296999999825,
                    "velocity": 0.4409448818897638,
                    "duration": 0.0757614999999987
                },
                {
                    "name": "G#4",
                    "midi": 68,
                    "time": 51.366296999999825,
                    "velocity": 0.4409448818897638,
                    "duration": 0.0757614999999987
                },
                {
                    "name": "A5",
                    "midi": 81,
                    "time": 51.66934299999983,
                    "velocity": 0.4566929133858268,
                    "duration": 0.0757614999999987
                },
                {
                    "name": "E5",
                    "midi": 76,
                    "time": 51.66934299999983,
                    "velocity": 0.4015748031496063,
                    "duration": 0.0757614999999987
                },
                {
                    "name": "A4",
                    "midi": 69,
                    "time": 51.66934299999983,
                    "velocity": 0.4015748031496063,
                    "duration": 0.0757614999999987
                },
                {
                    "name": "C6",
                    "midi": 84,
                    "time": 51.97238899999983,
                    "velocity": 0.4330708661417323,
                    "duration": 0.0757614999999987
                },
                {
                    "name": "E5",
                    "midi": 76,
                    "time": 51.97238899999983,
                    "velocity": 0.3779527559055118,
                    "duration": 0.0757614999999987
                },
                {
                    "name": "C5",
                    "midi": 72,
                    "time": 51.97238899999983,
                    "velocity": 0.3779527559055118,
                    "duration": 0.0757614999999987
                },
                {
                    "name": "B4",
                    "midi": 71,
                    "time": 52.27543499999983,
                    "velocity": 0.3779527559055118,
                    "duration": 0.0757614999999987
                },
                {
                    "name": "E5",
                    "midi": 76,
                    "time": 52.27543499999983,
                    "velocity": 0.3779527559055118,
                    "duration": 0.0757614999999987
                },
                {
                    "name": "B5",
                    "midi": 83,
                    "time": 52.27543499999983,
                    "velocity": 0.4330708661417323,
                    "duration": 0.0757614999999987
                },
                {
                    "name": "A4",
                    "midi": 69,
                    "time": 52.57848099999983,
                    "velocity": 0.3779527559055118,
                    "duration": 0.0757614999999987
                },
                {
                    "name": "E5",
                    "midi": 76,
                    "time": 52.57848099999983,
                    "velocity": 0.3779527559055118,
                    "duration": 0.0757614999999987
                },
                {
                    "name": "A5",
                    "midi": 81,
                    "time": 52.57848099999983,
                    "velocity": 0.4330708661417323,
                    "duration": 0.0757614999999987
                },
                {
                    "name": "E4",
                    "midi": 64,
                    "time": 52.881526999999835,
                    "velocity": 0.3779527559055118,
                    "duration": 0.0757614999999987
                },
                {
                    "name": "B4",
                    "midi": 71,
                    "time": 52.881526999999835,
                    "velocity": 0.3779527559055118,
                    "duration": 0.0757614999999987
                },
                {
                    "name": "E5",
                    "midi": 76,
                    "time": 52.881526999999835,
                    "velocity": 0.4330708661417323,
                    "duration": 0.0757614999999987
                },
                {
                    "name": "A4",
                    "midi": 69,
                    "time": 53.18457299999984,
                    "velocity": 0.3779527559055118,
                    "duration": 0.0757614999999987
                },
                {
                    "name": "E5",
                    "midi": 76,
                    "time": 53.18457299999984,
                    "velocity": 0.3779527559055118,
                    "duration": 0.0757614999999987
                },
                {
                    "name": "A5",
                    "midi": 81,
                    "time": 53.18457299999984,
                    "velocity": 0.4330708661417323,
                    "duration": 0.0757614999999987
                },
                {
                    "name": "E5",
                    "midi": 76,
                    "time": 53.48761899999984,
                    "velocity": 0.3779527559055118,
                    "duration": 0.0757614999999987
                },
                {
                    "name": "B4",
                    "midi": 71,
                    "time": 53.48761899999984,
                    "velocity": 0.3779527559055118,
                    "duration": 0.0757614999999987
                },
                {
                    "name": "B5",
                    "midi": 83,
                    "time": 53.48761899999984,
                    "velocity": 0.4330708661417323,
                    "duration": 0.0757614999999987
                },
                {
                    "name": "A4",
                    "midi": 69,
                    "time": 53.79066499999984,
                    "velocity": 0.3779527559055118,
                    "duration": 0.0757614999999987
                },
                {
                    "name": "E5",
                    "midi": 76,
                    "time": 53.79066499999984,
                    "velocity": 0.3779527559055118,
                    "duration": 0.0757614999999987
                },
                {
                    "name": "A5",
                    "midi": 81,
                    "time": 53.79066499999984,
                    "velocity": 0.4330708661417323,
                    "duration": 0.0757614999999987
                },
                {
                    "name": "E5",
                    "midi": 76,
                    "time": 54.09371099999984,
                    "velocity": 0.44881889763779526,
                    "duration": 0.0757614999999987
                },
                {
                    "name": "B4",
                    "midi": 71,
                    "time": 54.09371099999984,
                    "velocity": 0.3937007874015748,
                    "duration": 0.0757614999999987
                },
                {
                    "name": "E4",
                    "midi": 64,
                    "time": 54.09371099999984,
                    "velocity": 0.3937007874015748,
                    "duration": 0.0757614999999987
                },
                {
                    "name": "A4",
                    "midi": 69,
                    "time": 54.396756999999845,
                    "velocity": 0.41732283464566927,
                    "duration": 0.0757614999999987
                },
                {
                    "name": "E5",
                    "midi": 76,
                    "time": 54.396756999999845,
                    "velocity": 0.41732283464566927,
                    "duration": 0.0757614999999987
                },
                {
                    "name": "A5",
                    "midi": 81,
                    "time": 54.396756999999845,
                    "velocity": 0.48031496062992124,
                    "duration": 0.0757614999999987
                },
                {
                    "name": "B5",
                    "midi": 83,
                    "time": 54.69980299999985,
                    "velocity": 0.5196850393700787,
                    "duration": 0.0757614999999987
                },
                {
                    "name": "E5",
                    "midi": 76,
                    "time": 54.69980299999985,
                    "velocity": 0.4566929133858268,
                    "duration": 0.0757614999999987
                },
                {
                    "name": "B4",
                    "midi": 71,
                    "time": 54.69980299999985,
                    "velocity": 0.4566929133858268,
                    "duration": 0.0757614999999987
                },
                {
                    "name": "C6",
                    "midi": 84,
                    "time": 55.00284899999985,
                    "velocity": 0.5669291338582677,
                    "duration": 0.0757614999999987
                },
                {
                    "name": "E5",
                    "midi": 76,
                    "time": 55.00284899999985,
                    "velocity": 0.4881889763779528,
                    "duration": 0.0757614999999987
                },
                {
                    "name": "C5",
                    "midi": 72,
                    "time": 55.00284899999985,
                    "velocity": 0.4881889763779528,
                    "duration": 0.0757614999999987
                },
                {
                    "name": "G4",
                    "midi": 67,
                    "time": 55.30589499999985,
                    "velocity": 0.4409448818897638,
                    "duration": 0.0757614999999987
                },
                {
                    "name": "B4",
                    "midi": 71,
                    "time": 55.30589499999985,
                    "velocity": 0.4409448818897638,
                    "duration": 0.0757614999999987
                },
                {
                    "name": "G5",
                    "midi": 79,
                    "time": 55.30589499999985,
                    "velocity": 0.49606299212598426,
                    "duration": 0.0757614999999987
                },
                {
                    "name": "F#5",
                    "midi": 78,
                    "time": 55.60894099999985,
                    "velocity": 0.4881889763779528,
                    "duration": 0.0757614999999987
                },
                {
                    "name": "B4",
                    "midi": 71,
                    "time": 55.60894099999985,
                    "velocity": 0.4330708661417323,
                    "duration": 0.0757614999999987
                },
                {
                    "name": "A4",
                    "midi": 69,
                    "time": 55.60894099999985,
                    "velocity": 0.4330708661417323,
                    "duration": 0.0757614999999987
                },
                {
                    "name": "E5",
                    "midi": 76,
                    "time": 55.911986999999854,
                    "velocity": 0.4881889763779528,
                    "duration": 0.0757614999999987
                },
                {
                    "name": "B4",
                    "midi": 71,
                    "time": 55.911986999999854,
                    "velocity": 0.4330708661417323,
                    "duration": 0.0757614999999987
                },
                {
                    "name": "G#4",
                    "midi": 68,
                    "time": 55.911986999999854,
                    "velocity": 0.4330708661417323,
                    "duration": 0.0757614999999987
                },
                {
                    "name": "F#5",
                    "midi": 78,
                    "time": 56.215032999999856,
                    "velocity": 0.48031496062992124,
                    "duration": 0.0757614999999987
                },
                {
                    "name": "C5",
                    "midi": 72,
                    "time": 56.215032999999856,
                    "velocity": 0.41732283464566927,
                    "duration": 0.0757614999999987
                },
                {
                    "name": "A4",
                    "midi": 69,
                    "time": 56.215032999999856,
                    "velocity": 0.41732283464566927,
                    "duration": 0.0757614999999987
                },
                {
                    "name": "B4",
                    "midi": 71,
                    "time": 56.51807899999986,
                    "velocity": 0.4015748031496063,
                    "duration": 0.0757614999999987
                },
                {
                    "name": "G5",
                    "midi": 79,
                    "time": 56.51807899999986,
                    "velocity": 0.4566929133858268,
                    "duration": 0.0757614999999987
                },
                {
                    "name": "F5",
                    "midi": 77,
                    "time": 56.51807899999986,
                    "velocity": 0.4015748031496063,
                    "duration": 0.0757614999999987
                },
                {
                    "name": "G4",
                    "midi": 67,
                    "time": 56.51807899999986,
                    "velocity": 0.4015748031496063,
                    "duration": 0.0757614999999987
                },
                {
                    "name": "D5",
                    "midi": 74,
                    "time": 56.82112499999986,
                    "velocity": 0.3779527559055118,
                    "duration": 0.0757614999999987
                },
                {
                    "name": "G#5",
                    "midi": 80,
                    "time": 56.82112499999986,
                    "velocity": 0.4330708661417323,
                    "duration": 0.0757614999999987
                },
                {
                    "name": "E5",
                    "midi": 76,
                    "time": 56.82112499999986,
                    "velocity": 0.3779527559055118,
                    "duration": 0.0757614999999987
                },
                {
                    "name": "G#4",
                    "midi": 68,
                    "time": 56.82112499999986,
                    "velocity": 0.3779527559055118,
                    "duration": 0.0757614999999987
                },
                {
                    "name": "A4",
                    "midi": 69,
                    "time": 57.12417099999986,
                    "velocity": 0.3700787401574803,
                    "duration": 0.0757614999999987
                },
                {
                    "name": "C5",
                    "midi": 72,
                    "time": 57.12417099999986,
                    "velocity": 0.3700787401574803,
                    "duration": 0.0757614999999987
                },
                {
                    "name": "E5",
                    "midi": 76,
                    "time": 57.12417099999986,
                    "velocity": 0.3700787401574803,
                    "duration": 0.0757614999999987
                },
                {
                    "name": "A5",
                    "midi": 81,
                    "time": 57.12417099999986,
                    "velocity": 0.4409448818897638,
                    "duration": 0.0757614999999987
                },
                {
                    "name": "A4",
                    "midi": 69,
                    "time": 57.427216999999864,
                    "velocity": 0.4015748031496063,
                    "duration": 0.0757614999999987
                },
                {
                    "name": "E5",
                    "midi": 76,
                    "time": 57.427216999999864,
                    "velocity": 0.4015748031496063,
                    "duration": 0.0757614999999987
                },
                {
                    "name": "A5",
                    "midi": 81,
                    "time": 57.427216999999864,
                    "velocity": 0.5590551181102362,
                    "duration": 0.6060920000000038
                },
                {
                    "name": "A4",
                    "midi": 69,
                    "time": 57.730262999999866,
                    "velocity": 0.3779527559055118,
                    "duration": 0.0757614999999987
                },
                {
                    "name": "D5",
                    "midi": 74,
                    "time": 57.730262999999866,
                    "velocity": 0.44881889763779526,
                    "duration": 0.0757614999999987
                },
                {
                    "name": "G#4",
                    "midi": 68,
                    "time": 58.03330899999987,
                    "velocity": 0.3464566929133858,
                    "duration": 0.0757614999999987
                },
                {
                    "name": "E5",
                    "midi": 76,
                    "time": 58.03330899999987,
                    "velocity": 0.3464566929133858,
                    "duration": 0.0757614999999987
                },
                {
                    "name": "G#5",
                    "midi": 80,
                    "time": 58.03330899999987,
                    "velocity": 0.41732283464566927,
                    "duration": 0.3030460000000019
                },
                {
                    "name": "A5",
                    "midi": 81,
                    "time": 58.33635499999987,
                    "velocity": 0.4566929133858268,
                    "duration": 0.3030460000000019
                },
                {
                    "name": "A4",
                    "midi": 69,
                    "time": 58.33635499999987,
                    "velocity": 0.3700787401574803,
                    "duration": 0.0757614999999987
                },
                {
                    "name": "E5",
                    "midi": 76,
                    "time": 58.33635499999987,
                    "velocity": 0.4409448818897638,
                    "duration": 0.0757614999999987
                },
                {
                    "name": "C5",
                    "midi": 72,
                    "time": 58.63940099999987,
                    "velocity": 0.4094488188976378,
                    "duration": 0.0757614999999987
                },
                {
                    "name": "E5",
                    "midi": 76,
                    "time": 58.63940099999987,
                    "velocity": 0.4094488188976378,
                    "duration": 0.0757614999999987
                },
                {
                    "name": "C6",
                    "midi": 84,
                    "time": 58.63940099999987,
                    "velocity": 0.5590551181102362,
                    "duration": 0.6060920000000038
                },
                {
                    "name": "F5",
                    "midi": 77,
                    "time": 58.94244699999987,
                    "velocity": 0.4409448818897638,
                    "duration": 0.0757614999999987
                },
                {
                    "name": "C5",
                    "midi": 72,
                    "time": 58.94244699999987,
                    "velocity": 0.3700787401574803,
                    "duration": 0.0757614999999987
                },
                {
                    "name": "B4",
                    "midi": 71,
                    "time": 59.245492999999875,
                    "velocity": 0.3700787401574803,
                    "duration": 0.0757614999999987
                },
                {
                    "name": "F5",
                    "midi": 77,
                    "time": 59.245492999999875,
                    "velocity": 0.3700787401574803,
                    "duration": 0.0757614999999987
                },
                {
                    "name": "B5",
                    "midi": 83,
                    "time": 59.245492999999875,
                    "velocity": 0.4409448818897638,
                    "duration": 0.3030460000000019
                },
                {
                    "name": "A5",
                    "midi": 81,
                    "time": 59.54853899999988,
                    "velocity": 0.4566929133858268,
                    "duration": 0.3030460000000019
                },
                {
                    "name": "F5",
                    "midi": 77,
                    "time": 59.54853899999988,
                    "velocity": 0.3858267716535433,
                    "duration": 0.0757614999999987
                },
                {
                    "name": "A4",
                    "midi": 69,
                    "time": 59.54853899999988,
                    "velocity": 0.3858267716535433,
                    "duration": 0.0757614999999987
                },
                {
                    "name": "E6",
                    "midi": 88,
                    "time": 59.85158499999988,
                    "velocity": 0.5748031496062992,
                    "duration": 0.3030460000000019
                },
                {
                    "name": "A5",
                    "midi": 81,
                    "time": 59.85158499999988,
                    "velocity": 0.4015748031496063,
                    "duration": 0.0757614999999987
                },
                {
                    "name": "E5",
                    "midi": 76,
                    "time": 59.85158499999988,
                    "velocity": 0.4015748031496063,
                    "duration": 0.0757614999999987
                },
                {
                    "name": "D5",
                    "midi": 74,
                    "time": 60.15463099999988,
                    "velocity": 0.4330708661417323,
                    "duration": 0.0757614999999987
                },
                {
                    "name": "A5",
                    "midi": 81,
                    "time": 60.15463099999988,
                    "velocity": 0.4330708661417323,
                    "duration": 0.0757614999999987
                },
                {
                    "name": "D6",
                    "midi": 86,
                    "time": 60.15463099999988,
                    "velocity": 0.5511811023622047,
                    "duration": 0.3030460000000019
                },
                {
                    "name": "E6",
                    "midi": 88,
                    "time": 60.45767699999988,
                    "velocity": 0.6456692913385826,
                    "duration": 0.3030460000000019
                },
                {
                    "name": "G#5",
                    "midi": 80,
                    "time": 60.45767699999988,
                    "velocity": 0.4566929133858268,
                    "duration": 0.0757614999999987
                },
                {
                    "name": "E5",
                    "midi": 76,
                    "time": 60.45767699999988,
                    "velocity": 0.4566929133858268,
                    "duration": 0.0757614999999987
                },
                {
                    "name": "C6",
                    "midi": 84,
                    "time": 60.760722999999885,
                    "velocity": 0.5511811023622047,
                    "duration": 0.1515229999999974
                },
                {
                    "name": "E5",
                    "midi": 76,
                    "time": 60.760722999999885,
                    "velocity": 0.4330708661417323,
                    "duration": 0.1515229999999974
                },
                {
                    "name": "C5",
                    "midi": 72,
                    "time": 60.760722999999885,
                    "velocity": 0.4330708661417323,
                    "duration": 0.1515229999999974
                },
                {
                    "name": "B5",
                    "midi": 83,
                    "time": 61.06376899999988,
                    "velocity": 0.5196850393700787,
                    "duration": 0.3030459999999948
                },
                {
                    "name": "E5",
                    "midi": 76,
                    "time": 61.06376899999988,
                    "velocity": 0.4015748031496063,
                    "duration": 0.1515229999999974
                },
                {
                    "name": "B4",
                    "midi": 71,
                    "time": 61.06376899999988,
                    "velocity": 0.4015748031496063,
                    "duration": 0.1515229999999974
                },
                {
                    "name": "A5",
                    "midi": 81,
                    "time": 61.366814999999875,
                    "velocity": 0.48031496062992124,
                    "duration": 0.45456899999999223
                },
                {
                    "name": "E5",
                    "midi": 76,
                    "time": 61.366814999999875,
                    "velocity": 0.3700787401574803,
                    "duration": 0.1515229999999974
                },
                {
                    "name": "A4",
                    "midi": 69,
                    "time": 61.366814999999875,
                    "velocity": 0.3700787401574803,
                    "duration": 0.1515229999999974
                },
                {
                    "name": "E5",
                    "midi": 76,
                    "time": 61.66986099999987,
                    "velocity": 0.4094488188976378,
                    "duration": 0.1515229999999974
                },
                {
                    "name": "C5",
                    "midi": 72,
                    "time": 61.66986099999987,
                    "velocity": 0.3464566929133858,
                    "duration": 0.1515229999999974
                },
                {
                    "name": "B4",
                    "midi": 71,
                    "time": 61.972906999999864,
                    "velocity": 0.41732283464566927,
                    "duration": 0.1515229999999974
                },
                {
                    "name": "E5",
                    "midi": 76,
                    "time": 61.972906999999864,
                    "velocity": 0.41732283464566927,
                    "duration": 0.1515229999999974
                },
                {
                    "name": "B5",
                    "midi": 83,
                    "time": 61.972906999999864,
                    "velocity": 0.5433070866141733,
                    "duration": 0.3030459999999948
                },
                {
                    "name": "A4",
                    "midi": 69,
                    "time": 62.27595299999986,
                    "velocity": 0.4015748031496063,
                    "duration": 0.1515229999999974
                },
                {
                    "name": "E5",
                    "midi": 76,
                    "time": 62.27595299999986,
                    "velocity": 0.4015748031496063,
                    "duration": 0.1515229999999974
                },
                {
                    "name": "A5",
                    "midi": 81,
                    "time": 62.27595299999986,
                    "velocity": 0.5196850393700787,
                    "duration": 0.3030459999999948
                },
                {
                    "name": "E4",
                    "midi": 64,
                    "time": 62.578998999999854,
                    "velocity": 0.3937007874015748,
                    "duration": 0.1515229999999974
                },
                {
                    "name": "B4",
                    "midi": 71,
                    "time": 62.578998999999854,
                    "velocity": 0.3937007874015748,
                    "duration": 0.1515229999999974
                },
                {
                    "name": "E5",
                    "midi": 76,
                    "time": 62.578998999999854,
                    "velocity": 0.5039370078740157,
                    "duration": 0.3030459999999948
                },
                {
                    "name": "A4",
                    "midi": 69,
                    "time": 62.88204499999985,
                    "velocity": 0.36220472440944884,
                    "duration": 0.1515229999999974
                },
                {
                    "name": "E5",
                    "midi": 76,
                    "time": 62.88204499999985,
                    "velocity": 0.36220472440944884,
                    "duration": 0.1515229999999974
                },
                {
                    "name": "A5",
                    "midi": 81,
                    "time": 62.88204499999985,
                    "velocity": 0.47244094488188976,
                    "duration": 0.3030459999999948
                },
                {
                    "name": "E5",
                    "midi": 76,
                    "time": 63.185090999999844,
                    "velocity": 0.3937007874015748,
                    "duration": 0.1515229999999974
                },
                {
                    "name": "B4",
                    "midi": 71,
                    "time": 63.185090999999844,
                    "velocity": 0.3937007874015748,
                    "duration": 0.1515229999999974
                },
                {
                    "name": "B5",
                    "midi": 83,
                    "time": 63.185090999999844,
                    "velocity": 0.5039370078740157,
                    "duration": 0.3030459999999948
                },
                {
                    "name": "A4",
                    "midi": 69,
                    "time": 63.48813699999984,
                    "velocity": 0.41732283464566927,
                    "duration": 0.1515229999999974
                },
                {
                    "name": "E5",
                    "midi": 76,
                    "time": 63.48813699999984,
                    "velocity": 0.41732283464566927,
                    "duration": 0.1515229999999974
                },
                {
                    "name": "A5",
                    "midi": 81,
                    "time": 63.48813699999984,
                    "velocity": 0.5433070866141733,
                    "duration": 0.3030459999999948
                },
                {
                    "name": "E5",
                    "midi": 76,
                    "time": 63.79118299999983,
                    "velocity": 0.5905511811023622,
                    "duration": 0.3030459999999948
                },
                {
                    "name": "B4",
                    "midi": 71,
                    "time": 63.79118299999983,
                    "velocity": 0.4566929133858268,
                    "duration": 0.1515229999999974
                },
                {
                    "name": "E4",
                    "midi": 64,
                    "time": 63.79118299999983,
                    "velocity": 0.4566929133858268,
                    "duration": 0.1515229999999974
                },
                {
                    "name": "G4",
                    "midi": 67,
                    "time": 64.09422899999983,
                    "velocity": 0.44881889763779526,
                    "duration": 0.1515229999999974
                },
                {
                    "name": "A#4",
                    "midi": 70,
                    "time": 64.09422899999983,
                    "velocity": 0.44881889763779526,
                    "duration": 0.1515229999999974
                },
                {
                    "name": "G5",
                    "midi": 79,
                    "time": 64.09422899999983,
                    "velocity": 0.5275590551181102,
                    "duration": 0.1515229999999974
                },
                {
                    "name": "F#5",
                    "midi": 78,
                    "time": 64.39727499999982,
                    "velocity": 0.5905511811023622,
                    "duration": 0.1515229999999974
                },
                {
                    "name": "A#4",
                    "midi": 70,
                    "time": 64.39727499999982,
                    "velocity": 0.48031496062992124,
                    "duration": 0.1515229999999974
                },
                {
                    "name": "F#4",
                    "midi": 66,
                    "time": 64.39727499999982,
                    "velocity": 0.48031496062992124,
                    "duration": 0.1515229999999974
                },
                {
                    "name": "F5",
                    "midi": 77,
                    "time": 64.70032099999982,
                    "velocity": 0.6062992125984252,
                    "duration": 0.1515229999999974
                },
                {
                    "name": "A#4",
                    "midi": 70,
                    "time": 64.70032099999982,
                    "velocity": 0.49606299212598426,
                    "duration": 0.1515229999999974
                },
                {
                    "name": "F4",
                    "midi": 65,
                    "time": 64.70032099999982,
                    "velocity": 0.49606299212598426,
                    "duration": 0.1515229999999974
                },
                {
                    "name": "F4",
                    "midi": 65,
                    "time": 65.00336699999981,
                    "velocity": 0.4645669291338583,
                    "duration": 0.1515229999999974
                },
                {
                    "name": "A#4",
                    "midi": 70,
                    "time": 65.00336699999981,
                    "velocity": 0.4645669291338583,
                    "duration": 0.1515229999999974
                },
                {
                    "name": "D5",
                    "midi": 74,
                    "time": 65.00336699999981,
                    "velocity": 0.5748031496062992,
                    "duration": 0.1515229999999974
                },
                {
                    "name": "B4",
                    "midi": 71,
                    "time": 65.30641299999981,
                    "velocity": 0.49606299212598426,
                    "duration": 0.1515229999999974
                },
                {
                    "name": "G#4",
                    "midi": 68,
                    "time": 65.30641299999981,
                    "velocity": 0.4094488188976378,
                    "duration": 0.1515229999999974
                },
                {
                    "name": "D4",
                    "midi": 62,
                    "time": 65.30641299999981,
                    "velocity": 0.4094488188976378,
                    "duration": 0.1515229999999974
                },
                {
                    "name": "A4",
                    "midi": 69,
                    "time": 65.6094589999998,
                    "velocity": 0.48031496062992124,
                    "duration": 1.0606609999999819
                },
                {
                    "name": "C4",
                    "midi": 60,
                    "time": 65.6094589999998,
                    "velocity": 0.3937007874015748,
                    "duration": 0.1515229999999974
                },
                {
                    "name": "F4",
                    "midi": 65,
                    "time": 65.9125049999998,
                    "velocity": 0.3937007874015748,
                    "duration": 0.1515229999999974
                },
                {
                    "name": "D4",
                    "midi": 62,
                    "time": 65.9125049999998,
                    "velocity": 0.3228346456692913,
                    "duration": 0.1515229999999974
                },
                {
                    "name": "E4",
                    "midi": 64,
                    "time": 66.21555099999979,
                    "velocity": 0.3779527559055118,
                    "duration": 0.1515229999999974
                },
                {
                    "name": "C4",
                    "midi": 60,
                    "time": 66.21555099999979,
                    "velocity": 0.31496062992125984,
                    "duration": 0.1515229999999974
                },
                {
                    "name": "F4",
                    "midi": 65,
                    "time": 66.51859699999979,
                    "velocity": 0.3543307086614173,
                    "duration": 0.1515229999999974
                },
                {
                    "name": "D4",
                    "midi": 62,
                    "time": 66.51859699999979,
                    "velocity": 0.29133858267716534,
                    "duration": 0.1515229999999974
                },
                {
                    "name": "E4",
                    "midi": 64,
                    "time": 66.82164299999978,
                    "velocity": 0.2992125984251969,
                    "duration": 0.3030459999999948
                },
                {
                    "name": "C4",
                    "midi": 60,
                    "time": 66.82164299999978,
                    "velocity": 0.2992125984251969,
                    "duration": 0.3030459999999948
                },
                {
                    "name": "E5",
                    "midi": 76,
                    "time": 67.12468899999978,
                    "velocity": 0.4015748031496063,
                    "duration": 0.3030459999999948
                },
                {
                    "name": "A4",
                    "midi": 69,
                    "time": 67.12468899999978,
                    "velocity": 0.33070866141732286,
                    "duration": 0.3030459999999948
                },
                {
                    "name": "E4",
                    "midi": 64,
                    "time": 67.12468899999978,
                    "velocity": 0.33070866141732286,
                    "duration": 0.3030459999999948
                },
                {
                    "name": "F4",
                    "midi": 65,
                    "time": 67.42773499999977,
                    "velocity": 0.30708661417322836,
                    "duration": 0.1515229999999974
                },
                {
                    "name": "A#4",
                    "midi": 70,
                    "time": 67.42773499999977,
                    "velocity": 0.30708661417322836,
                    "duration": 0.1515229999999974
                },
                {
                    "name": "D5",
                    "midi": 74,
                    "time": 67.42773499999977,
                    "velocity": 0.3937007874015748,
                    "duration": 0.3030459999999948
                },
                {
                    "name": "B4",
                    "midi": 71,
                    "time": 67.73078099999977,
                    "velocity": 0.3464566929133858,
                    "duration": 0.3030459999999948
                },
                {
                    "name": "G#4",
                    "midi": 68,
                    "time": 67.73078099999977,
                    "velocity": 0.29133858267716534,
                    "duration": 0.3030459999999948
                },
                {
                    "name": "D4",
                    "midi": 62,
                    "time": 67.73078099999977,
                    "velocity": 0.29133858267716534,
                    "duration": 0.3030459999999948
                },
                {
                    "name": "A4",
                    "midi": 69,
                    "time": 68.03382699999976,
                    "velocity": 0.3937007874015748,
                    "duration": 1.515229999999974
                },
                {
                    "name": "C4",
                    "midi": 60,
                    "time": 68.03382699999976,
                    "velocity": 0.33070866141732286,
                    "duration": 0.1515229999999974
                },
                {
                    "name": "F4",
                    "midi": 65,
                    "time": 68.33687299999976,
                    "velocity": 0.3543307086614173,
                    "duration": 0.1515229999999974
                },
                {
                    "name": "D4",
                    "midi": 62,
                    "time": 68.33687299999976,
                    "velocity": 0.29133858267716534,
                    "duration": 0.1515229999999974
                },
                {
                    "name": "E4",
                    "midi": 64,
                    "time": 68.63991899999975,
                    "velocity": 0.3700787401574803,
                    "duration": 0.1515229999999974
                },
                {
                    "name": "C4",
                    "midi": 60,
                    "time": 68.63991899999975,
                    "velocity": 0.31496062992125984,
                    "duration": 0.1515229999999974
                },
                {
                    "name": "F4",
                    "midi": 65,
                    "time": 68.94296499999975,
                    "velocity": 0.3779527559055118,
                    "duration": 0.1515229999999974
                },
                {
                    "name": "D4",
                    "midi": 62,
                    "time": 68.94296499999975,
                    "velocity": 0.30708661417322836,
                    "duration": 0.1515229999999974
                },
                {
                    "name": "C4",
                    "midi": 60,
                    "time": 69.24601099999974,
                    "velocity": 0.3228346456692913,
                    "duration": 0.1515229999999974
                },
                {
                    "name": "E4",
                    "midi": 64,
                    "time": 69.24601099999974,
                    "velocity": 0.3937007874015748,
                    "duration": 0.1515229999999974
                },
                {
                    "name": "E4",
                    "midi": 64,
                    "time": 69.54905699999973,
                    "velocity": 0.49606299212598426,
                    "duration": 0.1515229999999974
                },
                {
                    "name": "A4",
                    "midi": 69,
                    "time": 69.54905699999973,
                    "velocity": 0.49606299212598426,
                    "duration": 0.1515229999999974
                },
                {
                    "name": "E5",
                    "midi": 76,
                    "time": 69.54905699999973,
                    "velocity": 0.5905511811023622,
                    "duration": 0.3030459999999948
                },
                {
                    "name": "A4",
                    "midi": 69,
                    "time": 69.85210299999973,
                    "velocity": 0.4881889763779528,
                    "duration": 0.1515229999999974
                },
                {
                    "name": "D#5",
                    "midi": 75,
                    "time": 69.85210299999973,
                    "velocity": 0.4881889763779528,
                    "duration": 0.1515229999999974
                },
                {
                    "name": "A5",
                    "midi": 81,
                    "time": 69.85210299999973,
                    "velocity": 0.5748031496062992,
                    "duration": 0.3030459999999948
                },
                {
                    "name": "G#4",
                    "midi": 68,
                    "time": 70.15514899999972,
                    "velocity": 0.44881889763779526,
                    "duration": 0.1515229999999974
                },
                {
                    "name": "E5",
                    "midi": 76,
                    "time": 70.15514899999972,
                    "velocity": 0.44881889763779526,
                    "duration": 0.1515229999999974
                },
                {
                    "name": "G#5",
                    "midi": 80,
                    "time": 70.15514899999972,
                    "velocity": 0.5433070866141733,
                    "duration": 0.3030459999999948
                },
                {
                    "name": "G4",
                    "midi": 67,
                    "time": 70.45819499999972,
                    "velocity": 0.4881889763779528,
                    "duration": 0.1515229999999974
                },
                {
                    "name": "C#5",
                    "midi": 73,
                    "time": 70.45819499999972,
                    "velocity": 0.4881889763779528,
                    "duration": 0.1515229999999974
                },
                {
                    "name": "G5",
                    "midi": 79,
                    "time": 70.45819499999972,
                    "velocity": 0.5748031496062992,
                    "duration": 0.3030459999999948
                },
                {
                    "name": "F#4",
                    "midi": 66,
                    "time": 70.76124099999971,
                    "velocity": 0.44881889763779526,
                    "duration": 0.1515229999999974
                },
                {
                    "name": "D5",
                    "midi": 74,
                    "time": 70.76124099999971,
                    "velocity": 0.44881889763779526,
                    "duration": 0.1515229999999974
                },
                {
                    "name": "F#5",
                    "midi": 78,
                    "time": 70.76124099999971,
                    "velocity": 0.5433070866141733,
                    "duration": 0.3030459999999948
                },
                {
                    "name": "F4",
                    "midi": 65,
                    "time": 71.06428699999971,
                    "velocity": 0.4094488188976378,
                    "duration": 0.1515229999999974
                },
                {
                    "name": "A#4",
                    "midi": 70,
                    "time": 71.06428699999971,
                    "velocity": 0.4094488188976378,
                    "duration": 0.1515229999999974
                },
                {
                    "name": "F5",
                    "midi": 77,
                    "time": 71.06428699999971,
                    "velocity": 0.4881889763779528,
                    "duration": 0.3030459999999948
                },
                {
                    "name": "B4",
                    "midi": 71,
                    "time": 71.3673329999997,
                    "velocity": 0.3464566929133858,
                    "duration": 0.3030459999999948
                },
                {
                    "name": "G#4",
                    "midi": 68,
                    "time": 71.3673329999997,
                    "velocity": 0.29133858267716534,
                    "duration": 0.3030459999999948
                },
                {
                    "name": "D4",
                    "midi": 62,
                    "time": 71.3673329999997,
                    "velocity": 0.29133858267716534,
                    "duration": 0.3030459999999948
                },
                {
                    "name": "E4",
                    "midi": 64,
                    "time": 71.6703789999997,
                    "velocity": 0.33070866141732286,
                    "duration": 0.1515229999999974
                },
                {
                    "name": "A4",
                    "midi": 69,
                    "time": 71.6703789999997,
                    "velocity": 0.3937007874015748,
                    "duration": 0.45456899999999223
                },
                {
                    "name": "C4",
                    "midi": 60,
                    "time": 71.6703789999997,
                    "velocity": 0.33070866141732286,
                    "duration": 0.1515229999999974
                },
                {
                    "name": "F4",
                    "midi": 65,
                    "time": 71.9734249999997,
                    "velocity": 0.3779527559055118,
                    "duration": 0.45456899999999223
                },
                {
                    "name": "D4",
                    "midi": 62,
                    "time": 71.9734249999997,
                    "velocity": 0.30708661417322836,
                    "duration": 0.1515229999999974
                },
                {
                    "name": "D5",
                    "midi": 74,
                    "time": 72.27647099999969,
                    "velocity": 0.3700787401574803,
                    "duration": 0.3030459999999948
                },
                {
                    "name": "A#4",
                    "midi": 70,
                    "time": 72.27647099999969,
                    "velocity": 0.31496062992125984,
                    "duration": 0.3030459999999948
                },
                {
                    "name": "D4",
                    "midi": 62,
                    "time": 72.57951699999968,
                    "velocity": 0.2755905511811024,
                    "duration": 0.3030459999999948
                },
                {
                    "name": "B4",
                    "midi": 71,
                    "time": 72.57951699999968,
                    "velocity": 0.33070866141732286,
                    "duration": 0.3030459999999948
                },
                {
                    "name": "G#4",
                    "midi": 68,
                    "time": 72.57951699999968,
                    "velocity": 0.2755905511811024,
                    "duration": 0.3030459999999948
                },
                {
                    "name": "C4",
                    "midi": 60,
                    "time": 72.88256299999968,
                    "velocity": 0.29133858267716534,
                    "duration": 0.3030459999999948
                },
                {
                    "name": "A4",
                    "midi": 69,
                    "time": 72.88256299999968,
                    "velocity": 0.3543307086614173,
                    "duration": 0.3030459999999948
                },
                {
                    "name": "E4",
                    "midi": 64,
                    "time": 73.18560899999967,
                    "velocity": 0.3937007874015748,
                    "duration": 0.3030459999999948
                },
                {
                    "name": "A4",
                    "midi": 69,
                    "time": 73.18560899999967,
                    "velocity": 0.3937007874015748,
                    "duration": 0.3030459999999948
                },
                {
                    "name": "E5",
                    "midi": 76,
                    "time": 73.18560899999967,
                    "velocity": 0.47244094488188976,
                    "duration": 0.3030459999999948
                },
                {
                    "name": "F4",
                    "midi": 65,
                    "time": 73.48865499999967,
                    "velocity": 0.3858267716535433,
                    "duration": 0.3030459999999948
                },
                {
                    "name": "A#4",
                    "midi": 70,
                    "time": 73.48865499999967,
                    "velocity": 0.3858267716535433,
                    "duration": 0.3030459999999948
                },
                {
                    "name": "D5",
                    "midi": 74,
                    "time": 73.48865499999967,
                    "velocity": 0.4566929133858268,
                    "duration": 0.3030459999999948
                },
                {
                    "name": "D4",
                    "midi": 62,
                    "time": 73.79170099999966,
                    "velocity": 0.3543307086614173,
                    "duration": 0.3030459999999948
                },
                {
                    "name": "G#4",
                    "midi": 68,
                    "time": 73.79170099999966,
                    "velocity": 0.4330708661417323,
                    "duration": 0.3030459999999948
                },
                {
                    "name": "A4",
                    "midi": 69,
                    "time": 74.09474699999966,
                    "velocity": 0.3700787401574803,
                    "duration": 0.6060919999999896
                },
                {
                    "name": "C4",
                    "midi": 60,
                    "time": 74.09474699999966,
                    "velocity": 0.31496062992125984,
                    "duration": 0.1515229999999974
                },
                {
                    "name": "F4",
                    "midi": 65,
                    "time": 74.39779299999965,
                    "velocity": 0.3543307086614173,
                    "duration": 0.1515229999999974
                },
                {
                    "name": "D4",
                    "midi": 62,
                    "time": 74.39779299999965,
                    "velocity": 0.29133858267716534,
                    "duration": 0.1515229999999974
                },
                {
                    "name": "C5",
                    "midi": 72,
                    "time": 74.70083899999965,
                    "velocity": 0.36220472440944884,
                    "duration": 0.3030459999999948
                },
                {
                    "name": "E4",
                    "midi": 64,
                    "time": 74.70083899999965,
                    "velocity": 0.36220472440944884,
                    "duration": 0.1515229999999974
                },
                {
                    "name": "C4",
                    "midi": 60,
                    "time": 74.70083899999965,
                    "velocity": 0.30708661417322836,
                    "duration": 0.1515229999999974
                },
                {
                    "name": "A#4",
                    "midi": 70,
                    "time": 75.00388499999964,
                    "velocity": 0.33070866141732286,
                    "duration": 0.3030459999999948
                },
                {
                    "name": "F4",
                    "midi": 65,
                    "time": 75.00388499999964,
                    "velocity": 0.2992125984251969,
                    "duration": 0.1515229999999974
                },
                {
                    "name": "D4",
                    "midi": 62,
                    "time": 75.00388499999964,
                    "velocity": 0.29133858267716534,
                    "duration": 0.1515229999999974
                },
                {
                    "name": "E4",
                    "midi": 64,
                    "time": 75.30693099999964,
                    "velocity": 0.29133858267716534,
                    "duration": 0.1515229999999974
                },
                {
                    "name": "A4",
                    "midi": 69,
                    "time": 75.30693099999964,
                    "velocity": 0.33070866141732286,
                    "duration": 0.6060919999999896
                },
                {
                    "name": "C4",
                    "midi": 60,
                    "time": 75.30693099999964,
                    "velocity": 0.29133858267716534,
                    "duration": 0.1515229999999974
                },
                {
                    "name": "F4",
                    "midi": 65,
                    "time": 75.60997699999963,
                    "velocity": 0.31496062992125984,
                    "duration": 0.1515229999999974
                },
                {
                    "name": "D4",
                    "midi": 62,
                    "time": 75.60997699999963,
                    "velocity": 0.25984251968503935,
                    "duration": 0.1515229999999974
                },
                {
                    "name": "C5",
                    "midi": 72,
                    "time": 75.91302299999963,
                    "velocity": 0.3228346456692913,
                    "duration": 0.3030459999999948
                },
                {
                    "name": "E4",
                    "midi": 64,
                    "time": 75.91302299999963,
                    "velocity": 0.3228346456692913,
                    "duration": 0.1515229999999974
                },
                {
                    "name": "C4",
                    "midi": 60,
                    "time": 75.91302299999963,
                    "velocity": 0.2755905511811024,
                    "duration": 0.1515229999999974
                },
                {
                    "name": "A#4",
                    "midi": 70,
                    "time": 76.21606899999962,
                    "velocity": 0.2992125984251969,
                    "duration": 0.1515229999999974
                },
                {
                    "name": "F4",
                    "midi": 65,
                    "time": 76.21606899999962,
                    "velocity": 0.2755905511811024,
                    "duration": 0.1515229999999974
                },
                {
                    "name": "D4",
                    "midi": 62,
                    "time": 76.21606899999962,
                    "velocity": 0.2677165354330709,
                    "duration": 0.1515229999999974
                },
                {
                    "name": "D4",
                    "midi": 62,
                    "time": 76.67063799999961,
                    "velocity": 0.2755905511811024,
                    "duration": 2.121321999999992
                },
                {
                    "name": "F4",
                    "midi": 65,
                    "time": 76.74639949999961,
                    "velocity": 0.31496062992125984,
                    "duration": 2.0455604999999935
                },
                {
                    "name": "A#4",
                    "midi": 70,
                    "time": 76.82216099999961,
                    "velocity": 0.3858267716535433,
                    "duration": 1.363707000000005
                },
                {
                    "name": "D5",
                    "midi": 74,
                    "time": 78.18586799999962,
                    "velocity": 0.3228346456692913,
                    "duration": 0.3030459999999948
                },
                {
                    "name": "C#5",
                    "midi": 73,
                    "time": 78.48891399999961,
                    "velocity": 0.3228346456692913,
                    "duration": 0.3030459999999948
                },
                {
                    "name": "C#4",
                    "midi": 61,
                    "time": 79.0192444999996,
                    "velocity": 0.2755905511811024,
                    "duration": 0.9848994999999974
                },
                {
                    "name": "E4",
                    "midi": 64,
                    "time": 79.0950059999996,
                    "velocity": 0.2755905511811024,
                    "duration": 0.9091379999999987
                },
                {
                    "name": "A4",
                    "midi": 69,
                    "time": 79.1707674999996,
                    "velocity": 0.3228346456692913,
                    "duration": 0.8333765
                }
            ],
            "controlChanges": {
                "7": [
                    {
                        "number": 7,
                        "time": 0,
                        "value": 0.7874015748031497
                    }
                ],
                "10": [
                    {
                        "number": 10,
                        "time": 0,
                        "value": 0.5039370078740157
                    }
                ],
                "91": [
                    {
                        "number": 91,
                        "time": 0,
                        "value": 1
                    }
                ]
            },
            "id": 1,
            "name": "Piano right",
            "instrumentNumber": 0,
            "instrument": "acoustic grand piano",
            "instrumentFamily": "piano",
            "channelNumber": 0,
            "isPercussion": false
        },
        {
            "startTime": 0.909138,
            "duration": 80.00414399999909,
            "length": 789,
            "notes": [
                {
                    "name": "E3",
                    "midi": 52,
                    "time": 0.909138,
                    "velocity": 0.4330708661417323,
                    "duration": 0.3030459999999999
                },
                {
                    "name": "A2",
                    "midi": 45,
                    "time": 1.212184,
                    "velocity": 0.4330708661417323,
                    "duration": 0.07576150000000004
                },
                {
                    "name": "C4",
                    "midi": 60,
                    "time": 1.363707,
                    "velocity": 0.2992125984251969,
                    "duration": 0.07576150000000004
                },
                {
                    "name": "E3",
                    "midi": 52,
                    "time": 1.363707,
                    "velocity": 0.2440944881889764,
                    "duration": 0.07576150000000004
                },
                {
                    "name": "C3",
                    "midi": 48,
                    "time": 1.51523,
                    "velocity": 0.4330708661417323,
                    "duration": 0.07576150000000004
                },
                {
                    "name": "E4",
                    "midi": 64,
                    "time": 1.6667530000000002,
                    "velocity": 0.2992125984251969,
                    "duration": 0.07576150000000004
                },
                {
                    "name": "A3",
                    "midi": 57,
                    "time": 1.6667530000000002,
                    "velocity": 0.2440944881889764,
                    "duration": 0.07576150000000004
                },
                {
                    "name": "B2",
                    "midi": 47,
                    "time": 1.8182760000000002,
                    "velocity": 0.4330708661417323,
                    "duration": 0.07576150000000004
                },
                {
                    "name": "D4",
                    "midi": 62,
                    "time": 1.9697990000000003,
                    "velocity": 0.2992125984251969,
                    "duration": 0.07576149999999982
                },
                {
                    "name": "F3",
                    "midi": 53,
                    "time": 1.9697990000000003,
                    "velocity": 0.2440944881889764,
                    "duration": 0.07576149999999982
                },
                {
                    "name": "E3",
                    "midi": 52,
                    "time": 2.121322,
                    "velocity": 0.4330708661417323,
                    "duration": 0.07576150000000004
                },
                {
                    "name": "E4",
                    "midi": 64,
                    "time": 2.2728450000000002,
                    "velocity": 0.2992125984251969,
                    "duration": 0.07576150000000004
                },
                {
                    "name": "B3",
                    "midi": 59,
                    "time": 2.2728450000000002,
                    "velocity": 0.2440944881889764,
                    "duration": 0.07576150000000004
                },
                {
                    "name": "C3",
                    "midi": 48,
                    "time": 2.4243680000000003,
                    "velocity": 0.4330708661417323,
                    "duration": 0.07576150000000004
                },
                {
                    "name": "E4",
                    "midi": 64,
                    "time": 2.5758910000000004,
                    "velocity": 0.2992125984251969,
                    "duration": 0.07576150000000004
                },
                {
                    "name": "A3",
                    "midi": 57,
                    "time": 2.5758910000000004,
                    "velocity": 0.2440944881889764,
                    "duration": 0.07576150000000004
                },
                {
                    "name": "A2",
                    "midi": 45,
                    "time": 2.7274140000000004,
                    "velocity": 0.4330708661417323,
                    "duration": 0.07576150000000004
                },
                {
                    "name": "E4",
                    "midi": 64,
                    "time": 2.8789370000000005,
                    "velocity": 0.2992125984251969,
                    "duration": 0.07576150000000004
                },
                {
                    "name": "A3",
                    "midi": 57,
                    "time": 2.8789370000000005,
                    "velocity": 0.2440944881889764,
                    "duration": 0.07576150000000004
                },
                {
                    "name": "D3",
                    "midi": 50,
                    "time": 3.0304600000000006,
                    "velocity": 0.4409448818897638,
                    "duration": 0.07576150000000004
                },
                {
                    "name": "F4",
                    "midi": 65,
                    "time": 3.1819830000000007,
                    "velocity": 0.30708661417322836,
                    "duration": 0.07576150000000004
                },
                {
                    "name": "A3",
                    "midi": 57,
                    "time": 3.1819830000000007,
                    "velocity": 0.25984251968503935,
                    "duration": 0.07576150000000004
                },
                {
                    "name": "D3",
                    "midi": 50,
                    "time": 3.3335060000000007,
                    "velocity": 0.4566929133858268,
                    "duration": 0.07576150000000004
                },
                {
                    "name": "F4",
                    "midi": 65,
                    "time": 3.485029000000001,
                    "velocity": 0.3228346456692913,
                    "duration": 0.07576150000000004
                },
                {
                    "name": "G#3",
                    "midi": 56,
                    "time": 3.485029000000001,
                    "velocity": 0.2755905511811024,
                    "duration": 0.07576150000000004
                },
                {
                    "name": "C3",
                    "midi": 48,
                    "time": 3.636552000000001,
                    "velocity": 0.47244094488188976,
                    "duration": 0.07576150000000004
                },
                {
                    "name": "F4",
                    "midi": 65,
                    "time": 3.788075000000001,
                    "velocity": 0.3228346456692913,
                    "duration": 0.07576150000000004
                },
                {
                    "name": "A3",
                    "midi": 57,
                    "time": 3.788075000000001,
                    "velocity": 0.2755905511811024,
                    "duration": 0.07576150000000004
                },
                {
                    "name": "C3",
                    "midi": 48,
                    "time": 3.939598000000001,
                    "velocity": 0.48031496062992124,
                    "duration": 0.07576149999999959
                },
                {
                    "name": "E4",
                    "midi": 64,
                    "time": 4.091121,
                    "velocity": 0.3464566929133858,
                    "duration": 0.07576149999999959
                },
                {
                    "name": "A3",
                    "midi": 57,
                    "time": 4.091121,
                    "velocity": 0.29133858267716534,
                    "duration": 0.07576149999999959
                },
                {
                    "name": "B2",
                    "midi": 47,
                    "time": 4.242643999999999,
                    "velocity": 0.49606299212598426,
                    "duration": 0.07576149999999959
                },
                {
                    "name": "D4",
                    "midi": 62,
                    "time": 4.394166999999999,
                    "velocity": 0.3543307086614173,
                    "duration": 0.07576149999999959
                },
                {
                    "name": "F3",
                    "midi": 53,
                    "time": 4.394166999999999,
                    "velocity": 0.29133858267716534,
                    "duration": 0.07576149999999959
                },
                {
                    "name": "E2",
                    "midi": 40,
                    "time": 4.545689999999998,
                    "velocity": 0.5196850393700787,
                    "duration": 0.07576149999999959
                },
                {
                    "name": "D4",
                    "midi": 62,
                    "time": 4.697212999999997,
                    "velocity": 0.36220472440944884,
                    "duration": 0.07576149999999959
                },
                {
                    "name": "B3",
                    "midi": 59,
                    "time": 4.697212999999997,
                    "velocity": 0.2992125984251969,
                    "duration": 0.07576149999999959
                },
                {
                    "name": "E3",
                    "midi": 52,
                    "time": 4.697212999999997,
                    "velocity": 0.2992125984251969,
                    "duration": 0.07576149999999959
                },
                {
                    "name": "A2",
                    "midi": 45,
                    "time": 4.848735999999996,
                    "velocity": 0.5354330708661418,
                    "duration": 0.07576149999999959
                },
                {
                    "name": "C4",
                    "midi": 60,
                    "time": 5.000258999999995,
                    "velocity": 0.36220472440944884,
                    "duration": 0.07576149999999959
                },
                {
                    "name": "E3",
                    "midi": 52,
                    "time": 5.000258999999995,
                    "velocity": 0.2992125984251969,
                    "duration": 0.07576149999999959
                },
                {
                    "name": "B2",
                    "midi": 47,
                    "time": 5.1517819999999945,
                    "velocity": 0.5196850393700787,
                    "duration": 0.07576149999999959
                },
                {
                    "name": "D4",
                    "midi": 62,
                    "time": 5.303304999999994,
                    "velocity": 0.3464566929133858,
                    "duration": 0.07576149999999959
                },
                {
                    "name": "E3",
                    "midi": 52,
                    "time": 5.303304999999994,
                    "velocity": 0.29133858267716534,
                    "duration": 0.07576149999999959
                },
                {
                    "name": "C3",
                    "midi": 48,
                    "time": 5.454827999999993,
                    "velocity": 0.48031496062992124,
                    "duration": 0.07576149999999959
                },
                {
                    "name": "E4",
                    "midi": 64,
                    "time": 5.606350999999992,
                    "velocity": 0.3228346456692913,
                    "duration": 0.07576149999999959
                },
                {
                    "name": "E3",
                    "midi": 52,
                    "time": 5.606350999999992,
                    "velocity": 0.2755905511811024,
                    "duration": 0.07576149999999959
                },
                {
                    "name": "A2",
                    "midi": 45,
                    "time": 5.757873999999991,
                    "velocity": 0.4566929133858268,
                    "duration": 0.07576149999999959
                },
                {
                    "name": "C4",
                    "midi": 60,
                    "time": 5.9093969999999905,
                    "velocity": 0.2992125984251969,
                    "duration": 0.07576149999999959
                },
                {
                    "name": "E3",
                    "midi": 52,
                    "time": 5.9093969999999905,
                    "velocity": 0.2440944881889764,
                    "duration": 0.07576149999999959
                },
                {
                    "name": "E2",
                    "midi": 40,
                    "time": 6.06091999999999,
                    "velocity": 0.4330708661417323,
                    "duration": 0.07576149999999959
                },
                {
                    "name": "D4",
                    "midi": 62,
                    "time": 6.212442999999989,
                    "velocity": 0.2992125984251969,
                    "duration": 0.07576149999999959
                },
                {
                    "name": "E3",
                    "midi": 52,
                    "time": 6.212442999999989,
                    "velocity": 0.2440944881889764,
                    "duration": 0.07576149999999959
                },
                {
                    "name": "A2",
                    "midi": 45,
                    "time": 6.363965999999988,
                    "velocity": 0.4330708661417323,
                    "duration": 0.07576149999999959
                },
                {
                    "name": "C4",
                    "midi": 60,
                    "time": 6.515488999999987,
                    "velocity": 0.2992125984251969,
                    "duration": 0.07576149999999959
                },
                {
                    "name": "E3",
                    "midi": 52,
                    "time": 6.515488999999987,
                    "velocity": 0.2440944881889764,
                    "duration": 0.07576149999999959
                },
                {
                    "name": "B2",
                    "midi": 47,
                    "time": 6.667011999999986,
                    "velocity": 0.4330708661417323,
                    "duration": 0.07576149999999959
                },
                {
                    "name": "E3",
                    "midi": 52,
                    "time": 6.818534999999986,
                    "velocity": 0.2440944881889764,
                    "duration": 0.07576149999999959
                },
                {
                    "name": "D4",
                    "midi": 62,
                    "time": 6.818534999999986,
                    "velocity": 0.2992125984251969,
                    "duration": 0.07576149999999959
                },
                {
                    "name": "G#3",
                    "midi": 56,
                    "time": 6.818534999999986,
                    "velocity": 0.2440944881889764,
                    "duration": 0.07576149999999959
                },
                {
                    "name": "A2",
                    "midi": 45,
                    "time": 6.970057999999985,
                    "velocity": 0.4330708661417323,
                    "duration": 0.07576149999999959
                },
                {
                    "name": "E3",
                    "midi": 52,
                    "time": 7.121580999999984,
                    "velocity": 0.2440944881889764,
                    "duration": 0.07576149999999959
                },
                {
                    "name": "C4",
                    "midi": 60,
                    "time": 7.121580999999984,
                    "velocity": 0.2992125984251969,
                    "duration": 0.07576149999999959
                },
                {
                    "name": "A3",
                    "midi": 57,
                    "time": 7.121580999999984,
                    "velocity": 0.2440944881889764,
                    "duration": 0.07576149999999959
                },
                {
                    "name": "E2",
                    "midi": 40,
                    "time": 7.273103999999983,
                    "velocity": 0.4330708661417323,
                    "duration": 0.07576149999999959
                },
                {
                    "name": "E3",
                    "midi": 52,
                    "time": 7.424626999999982,
                    "velocity": 0.2440944881889764,
                    "duration": 0.07576149999999959
                },
                {
                    "name": "D4",
                    "midi": 62,
                    "time": 7.424626999999982,
                    "velocity": 0.2992125984251969,
                    "duration": 0.07576149999999959
                },
                {
                    "name": "G#3",
                    "midi": 56,
                    "time": 7.424626999999982,
                    "velocity": 0.2440944881889764,
                    "duration": 0.07576149999999959
                },
                {
                    "name": "A2",
                    "midi": 45,
                    "time": 7.5761499999999815,
                    "velocity": 0.4330708661417323,
                    "duration": 0.07576149999999959
                },
                {
                    "name": "E3",
                    "midi": 52,
                    "time": 7.727672999999981,
                    "velocity": 0.2440944881889764,
                    "duration": 0.07576149999999959
                },
                {
                    "name": "C4",
                    "midi": 60,
                    "time": 7.727672999999981,
                    "velocity": 0.2992125984251969,
                    "duration": 0.07576149999999959
                },
                {
                    "name": "A3",
                    "midi": 57,
                    "time": 7.727672999999981,
                    "velocity": 0.2440944881889764,
                    "duration": 0.07576149999999959
                },
                {
                    "name": "B2",
                    "midi": 47,
                    "time": 7.87919599999998,
                    "velocity": 0.4409448818897638,
                    "duration": 0.07576149999999959
                },
                {
                    "name": "E3",
                    "midi": 52,
                    "time": 8.03071899999998,
                    "velocity": 0.2755905511811024,
                    "duration": 0.07576150000000048
                },
                {
                    "name": "D4",
                    "midi": 62,
                    "time": 8.03071899999998,
                    "velocity": 0.3228346456692913,
                    "duration": 0.07576150000000048
                },
                {
                    "name": "G#3",
                    "midi": 56,
                    "time": 8.03071899999998,
                    "velocity": 0.2755905511811024,
                    "duration": 0.07576150000000048
                },
                {
                    "name": "A2",
                    "midi": 45,
                    "time": 8.182241999999981,
                    "velocity": 0.47244094488188976,
                    "duration": 0.07576150000000048
                },
                {
                    "name": "A3",
                    "midi": 57,
                    "time": 8.333764999999982,
                    "velocity": 0.2992125984251969,
                    "duration": 0.07576150000000048
                },
                {
                    "name": "C4",
                    "midi": 60,
                    "time": 8.333764999999982,
                    "velocity": 0.36220472440944884,
                    "duration": 0.07576150000000048
                },
                {
                    "name": "E3",
                    "midi": 52,
                    "time": 8.333764999999982,
                    "velocity": 0.2992125984251969,
                    "duration": 0.07576150000000048
                },
                {
                    "name": "G2",
                    "midi": 43,
                    "time": 8.485287999999983,
                    "velocity": 0.5039370078740157,
                    "duration": 0.07576150000000048
                },
                {
                    "name": "E4",
                    "midi": 64,
                    "time": 8.636810999999984,
                    "velocity": 0.36220472440944884,
                    "duration": 0.07576150000000048
                },
                {
                    "name": "G3",
                    "midi": 55,
                    "time": 8.636810999999984,
                    "velocity": 0.2992125984251969,
                    "duration": 0.07576150000000048
                },
                {
                    "name": "A2",
                    "midi": 45,
                    "time": 8.788333999999985,
                    "velocity": 0.5354330708661418,
                    "duration": 0.07576150000000048
                },
                {
                    "name": "E4",
                    "midi": 64,
                    "time": 8.939856999999986,
                    "velocity": 0.3464566929133858,
                    "duration": 0.07576150000000048
                },
                {
                    "name": "A3",
                    "midi": 57,
                    "time": 8.939856999999986,
                    "velocity": 0.29133858267716534,
                    "duration": 0.07576150000000048
                },
                {
                    "name": "B2",
                    "midi": 47,
                    "time": 9.091379999999987,
                    "velocity": 0.49606299212598426,
                    "duration": 0.07576150000000048
                },
                {
                    "name": "E4",
                    "midi": 64,
                    "time": 9.242902999999988,
                    "velocity": 0.3543307086614173,
                    "duration": 0.07576150000000048
                },
                {
                    "name": "B3",
                    "midi": 59,
                    "time": 9.242902999999988,
                    "velocity": 0.29133858267716534,
                    "duration": 0.07576150000000048
                },
                {
                    "name": "B2",
                    "midi": 47,
                    "time": 9.394425999999989,
                    "velocity": 0.4881889763779528,
                    "duration": 0.07576150000000048
                },
                {
                    "name": "D#4",
                    "midi": 63,
                    "time": 9.54594899999999,
                    "velocity": 0.3464566929133858,
                    "duration": 0.07576150000000048
                },
                {
                    "name": "B3",
                    "midi": 59,
                    "time": 9.54594899999999,
                    "velocity": 0.29133858267716534,
                    "duration": 0.07576150000000048
                },
                {
                    "name": "E3",
                    "midi": 52,
                    "time": 9.69747199999999,
                    "velocity": 0.48031496062992124,
                    "duration": 0.07576150000000048
                },
                {
                    "name": "E4",
                    "midi": 64,
                    "time": 9.848994999999992,
                    "velocity": 0.3464566929133858,
                    "duration": 0.07576150000000048
                },
                {
                    "name": "B3",
                    "midi": 59,
                    "time": 9.848994999999992,
                    "velocity": 0.29133858267716534,
                    "duration": 0.07576150000000048
                },
                {
                    "name": "D#3",
                    "midi": 51,
                    "time": 10.000517999999992,
                    "velocity": 0.47244094488188976,
                    "duration": 0.07576150000000048
                },
                {
                    "name": "F#4",
                    "midi": 66,
                    "time": 10.152040999999993,
                    "velocity": 0.3464566929133858,
                    "duration": 0.07576150000000048
                },
                {
                    "name": "C4",
                    "midi": 60,
                    "time": 10.152040999999993,
                    "velocity": 0.29133858267716534,
                    "duration": 0.07576150000000048
                },
                {
                    "name": "D3",
                    "midi": 50,
                    "time": 10.303563999999994,
                    "velocity": 0.48031496062992124,
                    "duration": 0.07576150000000048
                },
                {
                    "name": "F4",
                    "midi": 65,
                    "time": 10.455086999999995,
                    "velocity": 0.3228346456692913,
                    "duration": 0.07576150000000048
                },
                {
                    "name": "B3",
                    "midi": 59,
                    "time": 10.455086999999995,
                    "velocity": 0.2755905511811024,
                    "duration": 0.07576150000000048
                },
                {
                    "name": "E2",
                    "midi": 40,
                    "time": 10.606609999999996,
                    "velocity": 0.4566929133858268,
                    "duration": 0.07576150000000048
                },
                {
                    "name": "E4",
                    "midi": 64,
                    "time": 10.758132999999997,
                    "velocity": 0.2992125984251969,
                    "duration": 0.07576150000000048
                },
                {
                    "name": "B3",
                    "midi": 59,
                    "time": 10.758132999999997,
                    "velocity": 0.2440944881889764,
                    "duration": 0.07576150000000048
                },
                {
                    "name": "A2",
                    "midi": 45,
                    "time": 10.909655999999998,
                    "velocity": 0.4330708661417323,
                    "duration": 0.07576150000000048
                },
                {
                    "name": "E4",
                    "midi": 64,
                    "time": 11.061179,
                    "velocity": 0.2992125984251969,
                    "duration": 0.07576150000000048
                },
                {
                    "name": "A3",
                    "midi": 57,
                    "time": 11.061179,
                    "velocity": 0.2440944881889764,
                    "duration": 0.07576150000000048
                },
                {
                    "name": "C3",
                    "midi": 48,
                    "time": 11.212702,
                    "velocity": 0.4330708661417323,
                    "duration": 0.07576150000000048
                },
                {
                    "name": "E4",
                    "midi": 64,
                    "time": 11.364225000000001,
                    "velocity": 0.2992125984251969,
                    "duration": 0.07576150000000048
                },
                {
                    "name": "A3",
                    "midi": 57,
                    "time": 11.364225000000001,
                    "velocity": 0.2440944881889764,
                    "duration": 0.07576150000000048
                },
                {
                    "name": "B2",
                    "midi": 47,
                    "time": 11.515748000000002,
                    "velocity": 0.4330708661417323,
                    "duration": 0.07576150000000048
                },
                {
                    "name": "D4",
                    "midi": 62,
                    "time": 11.667271000000003,
                    "velocity": 0.2992125984251969,
                    "duration": 0.07576150000000048
                },
                {
                    "name": "F3",
                    "midi": 53,
                    "time": 11.667271000000003,
                    "velocity": 0.2440944881889764,
                    "duration": 0.07576150000000048
                },
                {
                    "name": "E3",
                    "midi": 52,
                    "time": 11.818794000000004,
                    "velocity": 0.4330708661417323,
                    "duration": 0.07576150000000048
                },
                {
                    "name": "E4",
                    "midi": 64,
                    "time": 11.970317000000005,
                    "velocity": 0.2992125984251969,
                    "duration": 0.07576150000000048
                },
                {
                    "name": "B3",
                    "midi": 59,
                    "time": 11.970317000000005,
                    "velocity": 0.2440944881889764,
                    "duration": 0.07576150000000048
                },
                {
                    "name": "C3",
                    "midi": 48,
                    "time": 12.121840000000006,
                    "velocity": 0.4330708661417323,
                    "duration": 0.07576150000000048
                },
                {
                    "name": "E4",
                    "midi": 64,
                    "time": 12.273363000000007,
                    "velocity": 0.2992125984251969,
                    "duration": 0.07576150000000048
                },
                {
                    "name": "A3",
                    "midi": 57,
                    "time": 12.273363000000007,
                    "velocity": 0.2440944881889764,
                    "duration": 0.07576150000000048
                },
                {
                    "name": "A2",
                    "midi": 45,
                    "time": 12.424886000000008,
                    "velocity": 0.4330708661417323,
                    "duration": 0.07576150000000048
                },
                {
                    "name": "E4",
                    "midi": 64,
                    "time": 12.576409000000009,
                    "velocity": 0.2992125984251969,
                    "duration": 0.07576150000000048
                },
                {
                    "name": "A3",
                    "midi": 57,
                    "time": 12.576409000000009,
                    "velocity": 0.2440944881889764,
                    "duration": 0.07576150000000048
                },
                {
                    "name": "D3",
                    "midi": 50,
                    "time": 12.72793200000001,
                    "velocity": 0.4409448818897638,
                    "duration": 0.07576150000000048
                },
                {
                    "name": "F4",
                    "midi": 65,
                    "time": 12.87945500000001,
                    "velocity": 0.30708661417322836,
                    "duration": 0.07576150000000048
                },
                {
                    "name": "A3",
                    "midi": 57,
                    "time": 12.87945500000001,
                    "velocity": 0.25984251968503935,
                    "duration": 0.07576150000000048
                },
                {
                    "name": "D3",
                    "midi": 50,
                    "time": 13.030978000000012,
                    "velocity": 0.4566929133858268,
                    "duration": 0.07576150000000048
                },
                {
                    "name": "F4",
                    "midi": 65,
                    "time": 13.182501000000013,
                    "velocity": 0.3228346456692913,
                    "duration": 0.07576150000000048
                },
                {
                    "name": "G#3",
                    "midi": 56,
                    "time": 13.182501000000013,
                    "velocity": 0.2755905511811024,
                    "duration": 0.07576150000000048
                },
                {
                    "name": "C3",
                    "midi": 48,
                    "time": 13.334024000000014,
                    "velocity": 0.47244094488188976,
                    "duration": 0.07576150000000048
                },
                {
                    "name": "F4",
                    "midi": 65,
                    "time": 13.485547000000015,
                    "velocity": 0.3228346456692913,
                    "duration": 0.07576150000000048
                },
                {
                    "name": "A3",
                    "midi": 57,
                    "time": 13.485547000000015,
                    "velocity": 0.2755905511811024,
                    "duration": 0.07576150000000048
                },
                {
                    "name": "C3",
                    "midi": 48,
                    "time": 13.637070000000016,
                    "velocity": 0.48031496062992124,
                    "duration": 0.07576150000000048
                },
                {
                    "name": "E4",
                    "midi": 64,
                    "time": 13.788593000000017,
                    "velocity": 0.3464566929133858,
                    "duration": 0.07576150000000048
                },
                {
                    "name": "A3",
                    "midi": 57,
                    "time": 13.788593000000017,
                    "velocity": 0.29133858267716534,
                    "duration": 0.07576150000000048
                },
                {
                    "name": "B2",
                    "midi": 47,
                    "time": 13.940116000000017,
                    "velocity": 0.49606299212598426,
                    "duration": 0.07576150000000048
                },
                {
                    "name": "D4",
                    "midi": 62,
                    "time": 14.091639000000018,
                    "velocity": 0.3543307086614173,
                    "duration": 0.07576150000000048
                },
                {
                    "name": "F3",
                    "midi": 53,
                    "time": 14.091639000000018,
                    "velocity": 0.29133858267716534,
                    "duration": 0.07576150000000048
                },
                {
                    "name": "E2",
                    "midi": 40,
                    "time": 14.24316200000002,
                    "velocity": 0.5196850393700787,
                    "duration": 0.07576150000000048
                },
                {
                    "name": "D4",
                    "midi": 62,
                    "time": 14.39468500000002,
                    "velocity": 0.36220472440944884,
                    "duration": 0.07576150000000048
                },
                {
                    "name": "B3",
                    "midi": 59,
                    "time": 14.39468500000002,
                    "velocity": 0.2992125984251969,
                    "duration": 0.07576150000000048
                },
                {
                    "name": "E3",
                    "midi": 52,
                    "time": 14.39468500000002,
                    "velocity": 0.2992125984251969,
                    "duration": 0.07576150000000048
                },
                {
                    "name": "A2",
                    "midi": 45,
                    "time": 14.546208000000021,
                    "velocity": 0.5354330708661418,
                    "duration": 0.07576150000000048
                },
                {
                    "name": "C4",
                    "midi": 60,
                    "time": 14.697731000000022,
                    "velocity": 0.36220472440944884,
                    "duration": 0.07576150000000048
                },
                {
                    "name": "E3",
                    "midi": 52,
                    "time": 14.697731000000022,
                    "velocity": 0.2992125984251969,
                    "duration": 0.07576150000000048
                },
                {
                    "name": "B2",
                    "midi": 47,
                    "time": 14.849254000000023,
                    "velocity": 0.5196850393700787,
                    "duration": 0.07576150000000048
                },
                {
                    "name": "G#3",
                    "midi": 56,
                    "time": 15.000777000000024,
                    "velocity": 0.29133858267716534,
                    "duration": 0.07576150000000048
                },
                {
                    "name": "D4",
                    "midi": 62,
                    "time": 15.000777000000024,
                    "velocity": 0.3464566929133858,
                    "duration": 0.07576150000000048
                },
                {
                    "name": "E3",
                    "midi": 52,
                    "time": 15.000777000000024,
                    "velocity": 0.29133858267716534,
                    "duration": 0.07576150000000048
                },
                {
                    "name": "C3",
                    "midi": 48,
                    "time": 15.152300000000025,
                    "velocity": 0.48031496062992124,
                    "duration": 0.07576150000000048
                },
                {
                    "name": "A3",
                    "midi": 57,
                    "time": 15.303823000000026,
                    "velocity": 0.2755905511811024,
                    "duration": 0.07576150000000048
                },
                {
                    "name": "E4",
                    "midi": 64,
                    "time": 15.303823000000026,
                    "velocity": 0.3228346456692913,
                    "duration": 0.07576150000000048
                },
                {
                    "name": "E3",
                    "midi": 52,
                    "time": 15.303823000000026,
                    "velocity": 0.2755905511811024,
                    "duration": 0.07576150000000048
                },
                {
                    "name": "A2",
                    "midi": 45,
                    "time": 15.455346000000027,
                    "velocity": 0.4566929133858268,
                    "duration": 0.07576150000000048
                },
                {
                    "name": "C4",
                    "midi": 60,
                    "time": 15.606869000000028,
                    "velocity": 0.2992125984251969,
                    "duration": 0.07576150000000048
                },
                {
                    "name": "E3",
                    "midi": 52,
                    "time": 15.606869000000028,
                    "velocity": 0.2440944881889764,
                    "duration": 0.07576150000000048
                },
                {
                    "name": "E2",
                    "midi": 40,
                    "time": 15.758392000000029,
                    "velocity": 0.4330708661417323,
                    "duration": 0.07576150000000048
                },
                {
                    "name": "D4",
                    "midi": 62,
                    "time": 15.90991500000003,
                    "velocity": 0.2992125984251969,
                    "duration": 0.07576150000000048
                },
                {
                    "name": "E3",
                    "midi": 52,
                    "time": 15.90991500000003,
                    "velocity": 0.2440944881889764,
                    "duration": 0.07576150000000048
                },
                {
                    "name": "A2",
                    "midi": 45,
                    "time": 16.06143800000003,
                    "velocity": 0.4330708661417323,
                    "duration": 0.0757614999999987
                },
                {
                    "name": "C4",
                    "midi": 60,
                    "time": 16.21296100000003,
                    "velocity": 0.2992125984251969,
                    "duration": 0.0757614999999987
                },
                {
                    "name": "E3",
                    "midi": 52,
                    "time": 16.21296100000003,
                    "velocity": 0.2440944881889764,
                    "duration": 0.0757614999999987
                },
                {
                    "name": "B2",
                    "midi": 47,
                    "time": 16.364484000000026,
                    "velocity": 0.4330708661417323,
                    "duration": 0.0757614999999987
                },
                {
                    "name": "E3",
                    "midi": 52,
                    "time": 16.516007000000023,
                    "velocity": 0.2440944881889764,
                    "duration": 0.0757614999999987
                },
                {
                    "name": "D4",
                    "midi": 62,
                    "time": 16.516007000000023,
                    "velocity": 0.2992125984251969,
                    "duration": 0.0757614999999987
                },
                {
                    "name": "G#3",
                    "midi": 56,
                    "time": 16.516007000000023,
                    "velocity": 0.2440944881889764,
                    "duration": 0.0757614999999987
                },
                {
                    "name": "A2",
                    "midi": 45,
                    "time": 16.66753000000002,
                    "velocity": 0.4330708661417323,
                    "duration": 0.0757614999999987
                },
                {
                    "name": "E3",
                    "midi": 52,
                    "time": 16.819053000000018,
                    "velocity": 0.2440944881889764,
                    "duration": 0.0757614999999987
                },
                {
                    "name": "C4",
                    "midi": 60,
                    "time": 16.819053000000018,
                    "velocity": 0.2992125984251969,
                    "duration": 0.0757614999999987
                },
                {
                    "name": "A3",
                    "midi": 57,
                    "time": 16.819053000000018,
                    "velocity": 0.2440944881889764,
                    "duration": 0.0757614999999987
                },
                {
                    "name": "E2",
                    "midi": 40,
                    "time": 16.970576000000015,
                    "velocity": 0.4330708661417323,
                    "duration": 0.0757614999999987
                },
                {
                    "name": "E3",
                    "midi": 52,
                    "time": 17.122099000000013,
                    "velocity": 0.2440944881889764,
                    "duration": 0.0757614999999987
                },
                {
                    "name": "D4",
                    "midi": 62,
                    "time": 17.122099000000013,
                    "velocity": 0.2992125984251969,
                    "duration": 0.0757614999999987
                },
                {
                    "name": "G#3",
                    "midi": 56,
                    "time": 17.122099000000013,
                    "velocity": 0.2440944881889764,
                    "duration": 0.0757614999999987
                },
                {
                    "name": "A2",
                    "midi": 45,
                    "time": 17.27362200000001,
                    "velocity": 0.4330708661417323,
                    "duration": 0.0757614999999987
                },
                {
                    "name": "E3",
                    "midi": 52,
                    "time": 17.425145000000008,
                    "velocity": 0.2440944881889764,
                    "duration": 0.0757614999999987
                },
                {
                    "name": "C4",
                    "midi": 60,
                    "time": 17.425145000000008,
                    "velocity": 0.2992125984251969,
                    "duration": 0.0757614999999987
                },
                {
                    "name": "A3",
                    "midi": 57,
                    "time": 17.425145000000008,
                    "velocity": 0.2440944881889764,
                    "duration": 0.0757614999999987
                },
                {
                    "name": "B2",
                    "midi": 47,
                    "time": 17.576668000000005,
                    "velocity": 0.4409448818897638,
                    "duration": 0.0757614999999987
                },
                {
                    "name": "E3",
                    "midi": 52,
                    "time": 17.728191000000002,
                    "velocity": 0.2755905511811024,
                    "duration": 0.0757614999999987
                },
                {
                    "name": "D4",
                    "midi": 62,
                    "time": 17.728191000000002,
                    "velocity": 0.3228346456692913,
                    "duration": 0.0757614999999987
                },
                {
                    "name": "G#3",
                    "midi": 56,
                    "time": 17.728191000000002,
                    "velocity": 0.2755905511811024,
                    "duration": 0.0757614999999987
                },
                {
                    "name": "A2",
                    "midi": 45,
                    "time": 17.879714,
                    "velocity": 0.47244094488188976,
                    "duration": 0.0757614999999987
                },
                {
                    "name": "A3",
                    "midi": 57,
                    "time": 18.031236999999997,
                    "velocity": 0.2992125984251969,
                    "duration": 0.0757614999999987
                },
                {
                    "name": "C4",
                    "midi": 60,
                    "time": 18.031236999999997,
                    "velocity": 0.36220472440944884,
                    "duration": 0.0757614999999987
                },
                {
                    "name": "E3",
                    "midi": 52,
                    "time": 18.031236999999997,
                    "velocity": 0.2992125984251969,
                    "duration": 0.0757614999999987
                },
                {
                    "name": "G2",
                    "midi": 43,
                    "time": 18.182759999999995,
                    "velocity": 0.5039370078740157,
                    "duration": 0.0757614999999987
                },
                {
                    "name": "E4",
                    "midi": 64,
                    "time": 18.334282999999992,
                    "velocity": 0.36220472440944884,
                    "duration": 0.0757614999999987
                },
                {
                    "name": "G3",
                    "midi": 55,
                    "time": 18.334282999999992,
                    "velocity": 0.2992125984251969,
                    "duration": 0.0757614999999987
                },
                {
                    "name": "A2",
                    "midi": 45,
                    "time": 18.48580599999999,
                    "velocity": 0.5354330708661418,
                    "duration": 0.0757614999999987
                },
                {
                    "name": "E4",
                    "midi": 64,
                    "time": 18.637328999999987,
                    "velocity": 0.3464566929133858,
                    "duration": 0.0757614999999987
                },
                {
                    "name": "A3",
                    "midi": 57,
                    "time": 18.637328999999987,
                    "velocity": 0.29133858267716534,
                    "duration": 0.0757614999999987
                },
                {
                    "name": "B2",
                    "midi": 47,
                    "time": 18.788851999999984,
                    "velocity": 0.49606299212598426,
                    "duration": 0.0757614999999987
                },
                {
                    "name": "E4",
                    "midi": 64,
                    "time": 18.94037499999998,
                    "velocity": 0.3543307086614173,
                    "duration": 0.0757614999999987
                },
                {
                    "name": "B3",
                    "midi": 59,
                    "time": 18.94037499999998,
                    "velocity": 0.29133858267716534,
                    "duration": 0.0757614999999987
                },
                {
                    "name": "B2",
                    "midi": 47,
                    "time": 19.09189799999998,
                    "velocity": 0.4881889763779528,
                    "duration": 0.0757614999999987
                },
                {
                    "name": "D#4",
                    "midi": 63,
                    "time": 19.243420999999977,
                    "velocity": 0.3464566929133858,
                    "duration": 0.0757614999999987
                },
                {
                    "name": "B3",
                    "midi": 59,
                    "time": 19.243420999999977,
                    "velocity": 0.29133858267716534,
                    "duration": 0.0757614999999987
                },
                {
                    "name": "E3",
                    "midi": 52,
                    "time": 19.394943999999974,
                    "velocity": 0.48031496062992124,
                    "duration": 0.0757614999999987
                },
                {
                    "name": "E4",
                    "midi": 64,
                    "time": 19.54646699999997,
                    "velocity": 0.3464566929133858,
                    "duration": 0.0757614999999987
                },
                {
                    "name": "B3",
                    "midi": 59,
                    "time": 19.54646699999997,
                    "velocity": 0.29133858267716534,
                    "duration": 0.0757614999999987
                },
                {
                    "name": "A2",
                    "midi": 45,
                    "time": 19.69798999999997,
                    "velocity": 0.47244094488188976,
                    "duration": 0.0757614999999987
                },
                {
                    "name": "E4",
                    "midi": 64,
                    "time": 19.849512999999966,
                    "velocity": 0.3464566929133858,
                    "duration": 0.0757614999999987
                },
                {
                    "name": "A3",
                    "midi": 57,
                    "time": 19.849512999999966,
                    "velocity": 0.29133858267716534,
                    "duration": 0.0757614999999987
                },
                {
                    "name": "E3",
                    "midi": 52,
                    "time": 20.001035999999964,
                    "velocity": 0.48031496062992124,
                    "duration": 0.0757614999999987
                },
                {
                    "name": "E4",
                    "midi": 64,
                    "time": 20.15255899999996,
                    "velocity": 0.3228346456692913,
                    "duration": 0.0757614999999987
                },
                {
                    "name": "B3",
                    "midi": 59,
                    "time": 20.15255899999996,
                    "velocity": 0.2755905511811024,
                    "duration": 0.0757614999999987
                },
                {
                    "name": "A2",
                    "midi": 45,
                    "time": 20.30408199999996,
                    "velocity": 0.4566929133858268,
                    "duration": 0.0757614999999987
                },
                {
                    "name": "E4",
                    "midi": 64,
                    "time": 20.455604999999956,
                    "velocity": 0.2992125984251969,
                    "duration": 0.0757614999999987
                },
                {
                    "name": "A3",
                    "midi": 57,
                    "time": 20.455604999999956,
                    "velocity": 0.2440944881889764,
                    "duration": 0.0757614999999987
                },
                {
                    "name": "G2",
                    "midi": 43,
                    "time": 20.607127999999953,
                    "velocity": 0.4330708661417323,
                    "duration": 0.0757614999999987
                },
                {
                    "name": "E4",
                    "midi": 64,
                    "time": 20.75865099999995,
                    "velocity": 0.2992125984251969,
                    "duration": 0.0757614999999987
                },
                {
                    "name": "G3",
                    "midi": 55,
                    "time": 20.75865099999995,
                    "velocity": 0.2440944881889764,
                    "duration": 0.0757614999999987
                },
                {
                    "name": "A2",
                    "midi": 45,
                    "time": 20.910173999999948,
                    "velocity": 0.44881889763779526,
                    "duration": 0.0757614999999987
                },
                {
                    "name": "E4",
                    "midi": 64,
                    "time": 21.061696999999945,
                    "velocity": 0.29133858267716534,
                    "duration": 0.0757614999999987
                },
                {
                    "name": "A3",
                    "midi": 57,
                    "time": 21.061696999999945,
                    "velocity": 0.23622047244094488,
                    "duration": 0.0757614999999987
                },
                {
                    "name": "B2",
                    "midi": 47,
                    "time": 21.213219999999943,
                    "velocity": 0.41732283464566927,
                    "duration": 0.0757614999999987
                },
                {
                    "name": "E4",
                    "midi": 64,
                    "time": 21.36474299999994,
                    "velocity": 0.29133858267716534,
                    "duration": 0.0757614999999987
                },
                {
                    "name": "B3",
                    "midi": 59,
                    "time": 21.36474299999994,
                    "velocity": 0.23622047244094488,
                    "duration": 0.0757614999999987
                },
                {
                    "name": "B2",
                    "midi": 47,
                    "time": 21.516265999999938,
                    "velocity": 0.4094488188976378,
                    "duration": 0.0757614999999987
                },
                {
                    "name": "D#4",
                    "midi": 63,
                    "time": 21.667788999999935,
                    "velocity": 0.29133858267716534,
                    "duration": 0.0757614999999987
                },
                {
                    "name": "B3",
                    "midi": 59,
                    "time": 21.667788999999935,
                    "velocity": 0.23622047244094488,
                    "duration": 0.0757614999999987
                },
                {
                    "name": "E3",
                    "midi": 52,
                    "time": 21.819311999999933,
                    "velocity": 0.4645669291338583,
                    "duration": 0.0757614999999987
                },
                {
                    "name": "G3",
                    "midi": 55,
                    "time": 21.97083499999993,
                    "velocity": 0.28346456692913385,
                    "duration": 0.0757614999999987
                },
                {
                    "name": "E4",
                    "midi": 64,
                    "time": 21.97083499999993,
                    "velocity": 0.3543307086614173,
                    "duration": 0.0757614999999987
                },
                {
                    "name": "B3",
                    "midi": 59,
                    "time": 21.97083499999993,
                    "velocity": 0.28346456692913385,
                    "duration": 0.0757614999999987
                },
                {
                    "name": "D#3",
                    "midi": 51,
                    "time": 22.122357999999927,
                    "velocity": 0.49606299212598426,
                    "duration": 0.0757614999999987
                },
                {
                    "name": "B3",
                    "midi": 59,
                    "time": 22.273880999999925,
                    "velocity": 0.31496062992125984,
                    "duration": 0.0757614999999987
                },
                {
                    "name": "E4",
                    "midi": 64,
                    "time": 22.273880999999925,
                    "velocity": 0.3937007874015748,
                    "duration": 0.0757614999999987
                },
                {
                    "name": "G3",
                    "midi": 55,
                    "time": 22.273880999999925,
                    "velocity": 0.31496062992125984,
                    "duration": 0.0757614999999987
                },
                {
                    "name": "D3",
                    "midi": 50,
                    "time": 22.425403999999922,
                    "velocity": 0.5669291338582677,
                    "duration": 0.0757614999999987
                },
                {
                    "name": "G#3",
                    "midi": 56,
                    "time": 22.57692699999992,
                    "velocity": 0.3464566929133858,
                    "duration": 0.0757614999999987
                },
                {
                    "name": "F4",
                    "midi": 65,
                    "time": 22.57692699999992,
                    "velocity": 0.4015748031496063,
                    "duration": 0.0757614999999987
                },
                {
                    "name": "B3",
                    "midi": 59,
                    "time": 22.57692699999992,
                    "velocity": 0.3464566929133858,
                    "duration": 0.0757614999999987
                },
                {
                    "name": "C#3",
                    "midi": 49,
                    "time": 22.728449999999917,
                    "velocity": 0.6062992125984252,
                    "duration": 0.0757614999999987
                },
                {
                    "name": "G#3",
                    "midi": 56,
                    "time": 22.879972999999914,
                    "velocity": 0.33070866141732286,
                    "duration": 0.0757614999999987
                },
                {
                    "name": "F4",
                    "midi": 65,
                    "time": 22.879972999999914,
                    "velocity": 0.4015748031496063,
                    "duration": 0.0757614999999987
                },
                {
                    "name": "B3",
                    "midi": 59,
                    "time": 22.879972999999914,
                    "velocity": 0.33070866141732286,
                    "duration": 0.0757614999999987
                },
                {
                    "name": "C3",
                    "midi": 48,
                    "time": 23.031495999999912,
                    "velocity": 0.6062992125984252,
                    "duration": 0.0757614999999987
                },
                {
                    "name": "F4",
                    "midi": 65,
                    "time": 23.18301899999991,
                    "velocity": 0.41732283464566927,
                    "duration": 0.0757614999999987
                },
                {
                    "name": "A3",
                    "midi": 57,
                    "time": 23.18301899999991,
                    "velocity": 0.3464566929133858,
                    "duration": 0.0757614999999987
                },
                {
                    "name": "C3",
                    "midi": 48,
                    "time": 23.334541999999907,
                    "velocity": 0.6062992125984252,
                    "duration": 0.0757614999999987
                },
                {
                    "name": "F4",
                    "midi": 65,
                    "time": 23.486064999999904,
                    "velocity": 0.41732283464566927,
                    "duration": 0.07576150000000226
                },
                {
                    "name": "G#3",
                    "midi": 56,
                    "time": 23.486064999999904,
                    "velocity": 0.3464566929133858,
                    "duration": 0.07576150000000226
                },
                {
                    "name": "C3",
                    "midi": 48,
                    "time": 23.637587999999905,
                    "velocity": 0.6062992125984252,
                    "duration": 0.0757614999999987
                },
                {
                    "name": "G3",
                    "midi": 55,
                    "time": 23.789110999999902,
                    "velocity": 0.3464566929133858,
                    "duration": 0.0757614999999987
                },
                {
                    "name": "E4",
                    "midi": 64,
                    "time": 23.789110999999902,
                    "velocity": 0.41732283464566927,
                    "duration": 0.0757614999999987
                },
                {
                    "name": "C3",
                    "midi": 48,
                    "time": 23.9406339999999,
                    "velocity": 0.6062992125984252,
                    "duration": 0.0757614999999987
                },
                {
                    "name": "G3",
                    "midi": 55,
                    "time": 24.092156999999897,
                    "velocity": 0.3464566929133858,
                    "duration": 0.0757614999999987
                },
                {
                    "name": "C4",
                    "midi": 60,
                    "time": 24.092156999999897,
                    "velocity": 0.41732283464566927,
                    "duration": 0.0757614999999987
                },
                {
                    "name": "C3",
                    "midi": 48,
                    "time": 24.243679999999895,
                    "velocity": 0.6062992125984252,
                    "duration": 0.0757614999999987
                },
                {
                    "name": "G3",
                    "midi": 55,
                    "time": 24.395202999999892,
                    "velocity": 0.3464566929133858,
                    "duration": 0.0757614999999987
                },
                {
                    "name": "E4",
                    "midi": 64,
                    "time": 24.395202999999892,
                    "velocity": 0.41732283464566927,
                    "duration": 0.0757614999999987
                },
                {
                    "name": "C3",
                    "midi": 48,
                    "time": 24.54672599999989,
                    "velocity": 0.6062992125984252,
                    "duration": 0.0757614999999987
                },
                {
                    "name": "G3",
                    "midi": 55,
                    "time": 24.698248999999887,
                    "velocity": 0.3464566929133858,
                    "duration": 0.0757614999999987
                },
                {
                    "name": "C4",
                    "midi": 60,
                    "time": 24.698248999999887,
                    "velocity": 0.41732283464566927,
                    "duration": 0.0757614999999987
                },
                {
                    "name": "C3",
                    "midi": 48,
                    "time": 24.849771999999884,
                    "velocity": 0.6062992125984252,
                    "duration": 0.0757614999999987
                },
                {
                    "name": "G3",
                    "midi": 55,
                    "time": 25.00129499999988,
                    "velocity": 0.3464566929133858,
                    "duration": 0.0757614999999987
                },
                {
                    "name": "E4",
                    "midi": 64,
                    "time": 25.00129499999988,
                    "velocity": 0.41732283464566927,
                    "duration": 0.0757614999999987
                },
                {
                    "name": "F3",
                    "midi": 53,
                    "time": 25.15281799999988,
                    "velocity": 0.6062992125984252,
                    "duration": 0.0757614999999987
                },
                {
                    "name": "A3",
                    "midi": 57,
                    "time": 25.304340999999877,
                    "velocity": 0.3464566929133858,
                    "duration": 0.0757614999999987
                },
                {
                    "name": "F4",
                    "midi": 65,
                    "time": 25.304340999999877,
                    "velocity": 0.41732283464566927,
                    "duration": 0.0757614999999987
                },
                {
                    "name": "G#2",
                    "midi": 44,
                    "time": 25.455863999999874,
                    "velocity": 0.48031496062992124,
                    "duration": 0.0757614999999987
                },
                {
                    "name": "C#4",
                    "midi": 61,
                    "time": 25.60738699999987,
                    "velocity": 0.33070866141732286,
                    "duration": 0.0757614999999987
                },
                {
                    "name": "F3",
                    "midi": 53,
                    "time": 25.60738699999987,
                    "velocity": 0.2755905511811024,
                    "duration": 0.0757614999999987
                },
                {
                    "name": "G#2",
                    "midi": 44,
                    "time": 25.75890999999987,
                    "velocity": 0.48031496062992124,
                    "duration": 0.0757614999999987
                },
                {
                    "name": "C#4",
                    "midi": 61,
                    "time": 25.910432999999866,
                    "velocity": 0.33070866141732286,
                    "duration": 0.07576150000000226
                },
                {
                    "name": "E3",
                    "midi": 52,
                    "time": 25.910432999999866,
                    "velocity": 0.2755905511811024,
                    "duration": 0.07576150000000226
                },
                {
                    "name": "G#2",
                    "midi": 44,
                    "time": 26.061955999999867,
                    "velocity": 0.48031496062992124,
                    "duration": 0.0757614999999987
                },
                {
                    "name": "D#3",
                    "midi": 51,
                    "time": 26.213478999999865,
                    "velocity": 0.2755905511811024,
                    "duration": 0.0757614999999987
                },
                {
                    "name": "C4",
                    "midi": 60,
                    "time": 26.213478999999865,
                    "velocity": 0.33070866141732286,
                    "duration": 0.0757614999999987
                },
                {
                    "name": "G#2",
                    "midi": 44,
                    "time": 26.365001999999862,
                    "velocity": 0.48031496062992124,
                    "duration": 0.0757614999999987
                },
                {
                    "name": "D#3",
                    "midi": 51,
                    "time": 26.51652499999986,
                    "velocity": 0.2755905511811024,
                    "duration": 0.0757614999999987
                },
                {
                    "name": "G#3",
                    "midi": 56,
                    "time": 26.51652499999986,
                    "velocity": 0.33070866141732286,
                    "duration": 0.0757614999999987
                },
                {
                    "name": "G#2",
                    "midi": 44,
                    "time": 26.668047999999857,
                    "velocity": 0.48031496062992124,
                    "duration": 0.0757614999999987
                },
                {
                    "name": "D#3",
                    "midi": 51,
                    "time": 26.819570999999854,
                    "velocity": 0.2755905511811024,
                    "duration": 0.0757614999999987
                },
                {
                    "name": "C4",
                    "midi": 60,
                    "time": 26.819570999999854,
                    "velocity": 0.33070866141732286,
                    "duration": 0.0757614999999987
                },
                {
                    "name": "G#2",
                    "midi": 44,
                    "time": 26.97109399999985,
                    "velocity": 0.48031496062992124,
                    "duration": 0.0757614999999987
                },
                {
                    "name": "D#3",
                    "midi": 51,
                    "time": 27.12261699999985,
                    "velocity": 0.2755905511811024,
                    "duration": 0.0757614999999987
                },
                {
                    "name": "G#3",
                    "midi": 56,
                    "time": 27.12261699999985,
                    "velocity": 0.33070866141732286,
                    "duration": 0.0757614999999987
                },
                {
                    "name": "G#2",
                    "midi": 44,
                    "time": 27.274139999999846,
                    "velocity": 0.48031496062992124,
                    "duration": 0.0757614999999987
                },
                {
                    "name": "D#3",
                    "midi": 51,
                    "time": 27.425662999999844,
                    "velocity": 0.2755905511811024,
                    "duration": 0.0757614999999987
                },
                {
                    "name": "C4",
                    "midi": 60,
                    "time": 27.425662999999844,
                    "velocity": 0.33070866141732286,
                    "duration": 0.0757614999999987
                },
                {
                    "name": "G#2",
                    "midi": 44,
                    "time": 27.57718599999984,
                    "velocity": 0.48031496062992124,
                    "duration": 0.0757614999999987
                },
                {
                    "name": "F3",
                    "midi": 53,
                    "time": 27.72870899999984,
                    "velocity": 0.2755905511811024,
                    "duration": 0.0757614999999987
                },
                {
                    "name": "C#4",
                    "midi": 61,
                    "time": 27.72870899999984,
                    "velocity": 0.33070866141732286,
                    "duration": 0.0757614999999987
                },
                {
                    "name": "G#2",
                    "midi": 44,
                    "time": 27.880231999999836,
                    "velocity": 0.48031496062992124,
                    "duration": 0.0757614999999987
                },
                {
                    "name": "D#3",
                    "midi": 51,
                    "time": 28.031754999999833,
                    "velocity": 0.2755905511811024,
                    "duration": 0.0757614999999987
                },
                {
                    "name": "C4",
                    "midi": 60,
                    "time": 28.031754999999833,
                    "velocity": 0.33070866141732286,
                    "duration": 0.0757614999999987
                },
                {
                    "name": "G#2",
                    "midi": 44,
                    "time": 28.18327799999983,
                    "velocity": 0.48031496062992124,
                    "duration": 0.0757614999999987
                },
                {
                    "name": "C#3",
                    "midi": 49,
                    "time": 28.33480099999983,
                    "velocity": 0.2755905511811024,
                    "duration": 0.0757614999999987
                },
                {
                    "name": "A#3",
                    "midi": 58,
                    "time": 28.33480099999983,
                    "velocity": 0.33070866141732286,
                    "duration": 0.0757614999999987
                },
                {
                    "name": "G#2",
                    "midi": 44,
                    "time": 28.486323999999826,
                    "velocity": 0.4881889763779528,
                    "duration": 0.0757614999999987
                },
                {
                    "name": "C3",
                    "midi": 48,
                    "time": 28.637846999999823,
                    "velocity": 0.2755905511811024,
                    "duration": 0.0757614999999987
                },
                {
                    "name": "G#3",
                    "midi": 56,
                    "time": 28.637846999999823,
                    "velocity": 0.3464566929133858,
                    "duration": 0.0757614999999987
                },
                {
                    "name": "G#2",
                    "midi": 44,
                    "time": 28.78936999999982,
                    "velocity": 0.49606299212598426,
                    "duration": 0.0757614999999987
                },
                {
                    "name": "F#3",
                    "midi": 54,
                    "time": 28.940892999999818,
                    "velocity": 0.28346456692913385,
                    "duration": 0.0757614999999987
                },
                {
                    "name": "D#4",
                    "midi": 63,
                    "time": 28.940892999999818,
                    "velocity": 0.3464566929133858,
                    "duration": 0.0757614999999987
                },
                {
                    "name": "G#2",
                    "midi": 44,
                    "time": 29.092415999999815,
                    "velocity": 0.5039370078740157,
                    "duration": 0.0757614999999987
                },
                {
                    "name": "F3",
                    "midi": 53,
                    "time": 29.243938999999813,
                    "velocity": 0.29133858267716534,
                    "duration": 0.0757614999999987
                },
                {
                    "name": "C#4",
                    "midi": 61,
                    "time": 29.243938999999813,
                    "velocity": 0.3543307086614173,
                    "duration": 0.0757614999999987
                },
                {
                    "name": "G#2",
                    "midi": 44,
                    "time": 29.39546199999981,
                    "velocity": 0.5039370078740157,
                    "duration": 0.0757614999999987
                },
                {
                    "name": "C#3",
                    "midi": 49,
                    "time": 29.546984999999808,
                    "velocity": 0.29133858267716534,
                    "duration": 0.0757614999999987
                },
                {
                    "name": "A#3",
                    "midi": 58,
                    "time": 29.546984999999808,
                    "velocity": 0.36220472440944884,
                    "duration": 0.0757614999999987
                },
                {
                    "name": "G#2",
                    "midi": 44,
                    "time": 29.698507999999805,
                    "velocity": 0.5275590551181102,
                    "duration": 0.0757614999999987
                },
                {
                    "name": "F3",
                    "midi": 53,
                    "time": 29.850030999999802,
                    "velocity": 0.2992125984251969,
                    "duration": 0.0757614999999987
                },
                {
                    "name": "C#4",
                    "midi": 61,
                    "time": 29.850030999999802,
                    "velocity": 0.36220472440944884,
                    "duration": 0.0757614999999987
                },
                {
                    "name": "G#2",
                    "midi": 44,
                    "time": 30.0015539999998,
                    "velocity": 0.5275590551181102,
                    "duration": 0.0757614999999987
                },
                {
                    "name": "D#3",
                    "midi": 51,
                    "time": 30.153076999999797,
                    "velocity": 0.2992125984251969,
                    "duration": 0.0757614999999987
                },
                {
                    "name": "C4",
                    "midi": 60,
                    "time": 30.153076999999797,
                    "velocity": 0.3700787401574803,
                    "duration": 0.0757614999999987
                },
                {
                    "name": "G#2",
                    "midi": 44,
                    "time": 30.304599999999795,
                    "velocity": 0.5354330708661418,
                    "duration": 0.0757614999999987
                },
                {
                    "name": "F#3",
                    "midi": 54,
                    "time": 30.456122999999792,
                    "velocity": 0.30708661417322836,
                    "duration": 0.0757614999999987
                },
                {
                    "name": "D#4",
                    "midi": 63,
                    "time": 30.456122999999792,
                    "velocity": 0.3779527559055118,
                    "duration": 0.0757614999999987
                },
                {
                    "name": "G#2",
                    "midi": 44,
                    "time": 30.60764599999979,
                    "velocity": 0.5433070866141733,
                    "duration": 0.0757614999999987
                },
                {
                    "name": "F3",
                    "midi": 53,
                    "time": 30.759168999999787,
                    "velocity": 0.30708661417322836,
                    "duration": 0.0757614999999987
                },
                {
                    "name": "C#4",
                    "midi": 61,
                    "time": 30.759168999999787,
                    "velocity": 0.3779527559055118,
                    "duration": 0.0757614999999987
                },
                {
                    "name": "G#2",
                    "midi": 44,
                    "time": 30.910691999999784,
                    "velocity": 0.5511811023622047,
                    "duration": 0.0757614999999987
                },
                {
                    "name": "D#3",
                    "midi": 51,
                    "time": 31.06221499999978,
                    "velocity": 0.31496062992125984,
                    "duration": 0.0757614999999987
                },
                {
                    "name": "C4",
                    "midi": 60,
                    "time": 31.06221499999978,
                    "velocity": 0.3858267716535433,
                    "duration": 0.0757614999999987
                },
                {
                    "name": "A2",
                    "midi": 45,
                    "time": 31.21373799999978,
                    "velocity": 0.5590551181102362,
                    "duration": 0.07576150000000226
                },
                {
                    "name": "F#3",
                    "midi": 54,
                    "time": 31.36526099999978,
                    "velocity": 0.31496062992125984,
                    "duration": 0.0757614999999987
                },
                {
                    "name": "F4",
                    "midi": 65,
                    "time": 31.36526099999978,
                    "velocity": 0.3858267716535433,
                    "duration": 0.0757614999999987
                },
                {
                    "name": "G#2",
                    "midi": 44,
                    "time": 31.516783999999777,
                    "velocity": 0.5669291338582677,
                    "duration": 0.0757614999999987
                },
                {
                    "name": "F#3",
                    "midi": 54,
                    "time": 31.668306999999775,
                    "velocity": 0.3228346456692913,
                    "duration": 0.07576150000000226
                },
                {
                    "name": "D#4",
                    "midi": 63,
                    "time": 31.668306999999775,
                    "velocity": 0.3937007874015748,
                    "duration": 0.07576150000000226
                },
                {
                    "name": "G#2",
                    "midi": 44,
                    "time": 31.819829999999776,
                    "velocity": 0.5748031496062992,
                    "duration": 0.0757614999999987
                },
                {
                    "name": "F#3",
                    "midi": 54,
                    "time": 31.971352999999773,
                    "velocity": 0.3228346456692913,
                    "duration": 0.0757614999999987
                },
                {
                    "name": "C4",
                    "midi": 60,
                    "time": 31.971352999999773,
                    "velocity": 0.4015748031496063,
                    "duration": 0.0757614999999987
                },
                {
                    "name": "A#2",
                    "midi": 46,
                    "time": 32.12287599999977,
                    "velocity": 0.5748031496062992,
                    "duration": 0.0757614999999987
                },
                {
                    "name": "F#3",
                    "midi": 54,
                    "time": 32.27439899999977,
                    "velocity": 0.33070866141732286,
                    "duration": 0.0757614999999987
                },
                {
                    "name": "D#4",
                    "midi": 63,
                    "time": 32.27439899999977,
                    "velocity": 0.4015748031496063,
                    "duration": 0.0757614999999987
                },
                {
                    "name": "A#2",
                    "midi": 46,
                    "time": 32.425921999999765,
                    "velocity": 0.5826771653543307,
                    "duration": 0.0757614999999987
                },
                {
                    "name": "F3",
                    "midi": 53,
                    "time": 32.57744499999976,
                    "velocity": 0.33070866141732286,
                    "duration": 0.0757614999999987
                },
                {
                    "name": "D4",
                    "midi": 62,
                    "time": 32.57744499999976,
                    "velocity": 0.4094488188976378,
                    "duration": 0.0757614999999987
                },
                {
                    "name": "B2",
                    "midi": 47,
                    "time": 32.72896799999976,
                    "velocity": 0.6062992125984252,
                    "duration": 0.0757614999999987
                },
                {
                    "name": "F4",
                    "midi": 65,
                    "time": 32.88049099999976,
                    "velocity": 0.41732283464566927,
                    "duration": 0.0757614999999987
                },
                {
                    "name": "G#3",
                    "midi": 56,
                    "time": 32.88049099999976,
                    "velocity": 0.3464566929133858,
                    "duration": 0.0757614999999987
                },
                {
                    "name": "B2",
                    "midi": 47,
                    "time": 33.032013999999755,
                    "velocity": 0.6062992125984252,
                    "duration": 0.0757614999999987
                },
                {
                    "name": "F4",
                    "midi": 65,
                    "time": 33.18353699999975,
                    "velocity": 0.41732283464566927,
                    "duration": 0.0757614999999987
                },
                {
                    "name": "G3",
                    "midi": 55,
                    "time": 33.18353699999975,
                    "velocity": 0.3464566929133858,
                    "duration": 0.0757614999999987
                },
                {
                    "name": "C3",
                    "midi": 48,
                    "time": 33.33505999999975,
                    "velocity": 0.6062992125984252,
                    "duration": 0.0757614999999987
                },
                {
                    "name": "G3",
                    "midi": 55,
                    "time": 33.48658299999975,
                    "velocity": 0.3464566929133858,
                    "duration": 0.0757614999999987
                },
                {
                    "name": "C4",
                    "midi": 60,
                    "time": 33.48658299999975,
                    "velocity": 0.41732283464566927,
                    "duration": 0.0757614999999987
                },
                {
                    "name": "F2",
                    "midi": 41,
                    "time": 33.638105999999745,
                    "velocity": 0.6062992125984252,
                    "duration": 0.0757614999999987
                },
                {
                    "name": "F3",
                    "midi": 53,
                    "time": 33.78962899999974,
                    "velocity": 0.3464566929133858,
                    "duration": 0.0757614999999987
                },
                {
                    "name": "C4",
                    "midi": 60,
                    "time": 33.78962899999974,
                    "velocity": 0.41732283464566927,
                    "duration": 0.0757614999999987
                },
                {
                    "name": "B2",
                    "midi": 47,
                    "time": 33.94115199999974,
                    "velocity": 0.6062992125984252,
                    "duration": 0.0757614999999987
                },
                {
                    "name": "F4",
                    "midi": 65,
                    "time": 34.09267499999974,
                    "velocity": 0.41732283464566927,
                    "duration": 0.0757614999999987
                },
                {
                    "name": "G#3",
                    "midi": 56,
                    "time": 34.09267499999974,
                    "velocity": 0.3464566929133858,
                    "duration": 0.0757614999999987
                },
                {
                    "name": "B2",
                    "midi": 47,
                    "time": 34.244197999999734,
                    "velocity": 0.6062992125984252,
                    "duration": 0.0757614999999987
                },
                {
                    "name": "F4",
                    "midi": 65,
                    "time": 34.39572099999973,
                    "velocity": 0.41732283464566927,
                    "duration": 0.0757614999999987
                },
                {
                    "name": "G3",
                    "midi": 55,
                    "time": 34.39572099999973,
                    "velocity": 0.3464566929133858,
                    "duration": 0.0757614999999987
                },
                {
                    "name": "C3",
                    "midi": 48,
                    "time": 34.54724399999973,
                    "velocity": 0.6062992125984252,
                    "duration": 0.0757614999999987
                },
                {
                    "name": "G3",
                    "midi": 55,
                    "time": 34.69876699999973,
                    "velocity": 0.3464566929133858,
                    "duration": 0.0757614999999987
                },
                {
                    "name": "C4",
                    "midi": 60,
                    "time": 34.69876699999973,
                    "velocity": 0.41732283464566927,
                    "duration": 0.0757614999999987
                },
                {
                    "name": "F2",
                    "midi": 41,
                    "time": 34.850289999999724,
                    "velocity": 0.6062992125984252,
                    "duration": 0.0757614999999987
                },
                {
                    "name": "F3",
                    "midi": 53,
                    "time": 35.00181299999972,
                    "velocity": 0.3464566929133858,
                    "duration": 0.0757614999999987
                },
                {
                    "name": "C4",
                    "midi": 60,
                    "time": 35.00181299999972,
                    "velocity": 0.41732283464566927,
                    "duration": 0.0757614999999987
                },
                {
                    "name": "D#2",
                    "midi": 39,
                    "time": 35.15333599999972,
                    "velocity": 0.5433070866141733,
                    "duration": 0.0757614999999987
                },
                {
                    "name": "C4",
                    "midi": 60,
                    "time": 35.304858999999716,
                    "velocity": 0.3779527559055118,
                    "duration": 0.0757614999999987
                },
                {
                    "name": "D#3",
                    "midi": 51,
                    "time": 35.304858999999716,
                    "velocity": 0.30708661417322836,
                    "duration": 0.0757614999999987
                },
                {
                    "name": "F2",
                    "midi": 41,
                    "time": 35.456381999999714,
                    "velocity": 0.5433070866141733,
                    "duration": 0.0757614999999987
                },
                {
                    "name": "C4",
                    "midi": 60,
                    "time": 35.60790499999971,
                    "velocity": 0.3779527559055118,
                    "duration": 0.0757614999999987
                },
                {
                    "name": "F3",
                    "midi": 53,
                    "time": 35.60790499999971,
                    "velocity": 0.30708661417322836,
                    "duration": 0.0757614999999987
                },
                {
                    "name": "G2",
                    "midi": 43,
                    "time": 35.75942799999971,
                    "velocity": 0.5433070866141733,
                    "duration": 0.0757614999999987
                },
                {
                    "name": "G3",
                    "midi": 55,
                    "time": 35.910950999999706,
                    "velocity": 0.30708661417322836,
                    "duration": 0.0757614999999987
                },
                {
                    "name": "C4",
                    "midi": 60,
                    "time": 35.910950999999706,
                    "velocity": 0.3779527559055118,
                    "duration": 0.0757614999999987
                },
                {
                    "name": "G2",
                    "midi": 43,
                    "time": 36.0624739999997,
                    "velocity": 0.5433070866141733,
                    "duration": 0.0757614999999987
                },
                {
                    "name": "G3",
                    "midi": 55,
                    "time": 36.2139969999997,
                    "velocity": 0.30708661417322836,
                    "duration": 0.0757614999999987
                },
                {
                    "name": "B3",
                    "midi": 59,
                    "time": 36.2139969999997,
                    "velocity": 0.3779527559055118,
                    "duration": 0.0757614999999987
                },
                {
                    "name": "C3",
                    "midi": 48,
                    "time": 36.3655199999997,
                    "velocity": 0.48031496062992124,
                    "duration": 0.0757614999999987
                },
                {
                    "name": "C4",
                    "midi": 60,
                    "time": 36.517042999999695,
                    "velocity": 0.33070866141732286,
                    "duration": 0.0757614999999987
                },
                {
                    "name": "G3",
                    "midi": 55,
                    "time": 36.517042999999695,
                    "velocity": 0.2755905511811024,
                    "duration": 0.0757614999999987
                },
                {
                    "name": "F2",
                    "midi": 41,
                    "time": 36.66856599999969,
                    "velocity": 0.48031496062992124,
                    "duration": 0.0757614999999987
                },
                {
                    "name": "C4",
                    "midi": 60,
                    "time": 36.82008899999969,
                    "velocity": 0.33070866141732286,
                    "duration": 0.0757614999999987
                },
                {
                    "name": "F3",
                    "midi": 53,
                    "time": 36.82008899999969,
                    "velocity": 0.2755905511811024,
                    "duration": 0.0757614999999987
                },
                {
                    "name": "C3",
                    "midi": 48,
                    "time": 36.97161199999969,
                    "velocity": 0.48031496062992124,
                    "duration": 0.0757614999999987
                },
                {
                    "name": "G3",
                    "midi": 55,
                    "time": 37.123134999999685,
                    "velocity": 0.2755905511811024,
                    "duration": 0.0757614999999987
                },
                {
                    "name": "C4",
                    "midi": 60,
                    "time": 37.123134999999685,
                    "velocity": 0.33070866141732286,
                    "duration": 0.0757614999999987
                },
                {
                    "name": "F2",
                    "midi": 41,
                    "time": 37.27465799999968,
                    "velocity": 0.48031496062992124,
                    "duration": 0.0757614999999987
                },
                {
                    "name": "F3",
                    "midi": 53,
                    "time": 37.42618099999968,
                    "velocity": 0.2755905511811024,
                    "duration": 0.0757614999999987
                },
                {
                    "name": "C4",
                    "midi": 60,
                    "time": 37.42618099999968,
                    "velocity": 0.33070866141732286,
                    "duration": 0.0757614999999987
                },
                {
                    "name": "D#2",
                    "midi": 39,
                    "time": 37.57770399999968,
                    "velocity": 0.4330708661417323,
                    "duration": 0.0757614999999987
                },
                {
                    "name": "C4",
                    "midi": 60,
                    "time": 37.729226999999675,
                    "velocity": 0.2677165354330709,
                    "duration": 0.0757614999999987
                },
                {
                    "name": "D#3",
                    "midi": 51,
                    "time": 37.729226999999675,
                    "velocity": 0.2125984251968504,
                    "duration": 0.0757614999999987
                },
                {
                    "name": "F2",
                    "midi": 41,
                    "time": 37.88074999999967,
                    "velocity": 0.3858267716535433,
                    "duration": 0.0757614999999987
                },
                {
                    "name": "F3",
                    "midi": 53,
                    "time": 38.03227299999967,
                    "velocity": 0.2125984251968504,
                    "duration": 0.07576150000000581
                },
                {
                    "name": "C4",
                    "midi": 60,
                    "time": 38.03227299999967,
                    "velocity": 0.2677165354330709,
                    "duration": 0.07576150000000581
                },
                {
                    "name": "G2",
                    "midi": 43,
                    "time": 38.183795999999674,
                    "velocity": 0.3858267716535433,
                    "duration": 0.0757614999999987
                },
                {
                    "name": "C4",
                    "midi": 60,
                    "time": 38.33531899999967,
                    "velocity": 0.2677165354330709,
                    "duration": 0.0757614999999987
                },
                {
                    "name": "G3",
                    "midi": 55,
                    "time": 38.33531899999967,
                    "velocity": 0.2125984251968504,
                    "duration": 0.0757614999999987
                },
                {
                    "name": "G2",
                    "midi": 43,
                    "time": 38.48684199999967,
                    "velocity": 0.3858267716535433,
                    "duration": 0.0757614999999987
                },
                {
                    "name": "B3",
                    "midi": 59,
                    "time": 38.638364999999666,
                    "velocity": 0.2677165354330709,
                    "duration": 0.0757614999999987
                },
                {
                    "name": "G3",
                    "midi": 55,
                    "time": 38.638364999999666,
                    "velocity": 0.2125984251968504,
                    "duration": 0.0757614999999987
                },
                {
                    "name": "C3",
                    "midi": 48,
                    "time": 38.78988799999967,
                    "velocity": 0.33070866141732286,
                    "duration": 0.0757614999999987
                },
                {
                    "name": "C4",
                    "midi": 60,
                    "time": 38.94141099999967,
                    "velocity": 0.2283464566929134,
                    "duration": 0.0757614999999987
                },
                {
                    "name": "G3",
                    "midi": 55,
                    "time": 38.94141099999967,
                    "velocity": 0.1889763779527559,
                    "duration": 0.0757614999999987
                },
                {
                    "name": "F2",
                    "midi": 41,
                    "time": 39.092933999999666,
                    "velocity": 0.30708661417322836,
                    "duration": 0.0757614999999987
                },
                {
                    "name": "C4",
                    "midi": 60,
                    "time": 39.24445699999966,
                    "velocity": 0.2677165354330709,
                    "duration": 0.0757614999999987
                },
                {
                    "name": "F3",
                    "midi": 53,
                    "time": 39.24445699999966,
                    "velocity": 0.2125984251968504,
                    "duration": 0.0757614999999987
                },
                {
                    "name": "C3",
                    "midi": 48,
                    "time": 39.39597999999966,
                    "velocity": 0.3228346456692913,
                    "duration": 0.0757614999999987
                },
                {
                    "name": "G3",
                    "midi": 55,
                    "time": 39.54750299999966,
                    "velocity": 0.2125984251968504,
                    "duration": 0.0757614999999987
                },
                {
                    "name": "C4",
                    "midi": 60,
                    "time": 39.54750299999966,
                    "velocity": 0.2677165354330709,
                    "duration": 0.0757614999999987
                },
                {
                    "name": "F2",
                    "midi": 41,
                    "time": 39.699025999999655,
                    "velocity": 0.33070866141732286,
                    "duration": 0.0757614999999987
                },
                {
                    "name": "F3",
                    "midi": 53,
                    "time": 39.85054899999965,
                    "velocity": 0.2125984251968504,
                    "duration": 0.0757614999999987
                },
                {
                    "name": "C4",
                    "midi": 60,
                    "time": 39.85054899999965,
                    "velocity": 0.2677165354330709,
                    "duration": 0.0757614999999987
                },
                {
                    "name": "D#2",
                    "midi": 39,
                    "time": 40.00207199999965,
                    "velocity": 0.4566929133858268,
                    "duration": 0.07576150000000581
                },
                {
                    "name": "C4",
                    "midi": 60,
                    "time": 40.153594999999655,
                    "velocity": 0.3464566929133858,
                    "duration": 0.0757614999999987
                },
                {
                    "name": "D#3",
                    "midi": 51,
                    "time": 40.153594999999655,
                    "velocity": 0.2755905511811024,
                    "duration": 0.0757614999999987
                },
                {
                    "name": "F2",
                    "midi": 41,
                    "time": 40.30511799999965,
                    "velocity": 0.5039370078740157,
                    "duration": 0.0757614999999987
                },
                {
                    "name": "C4",
                    "midi": 60,
                    "time": 40.45664099999965,
                    "velocity": 0.36220472440944884,
                    "duration": 0.0757614999999987
                },
                {
                    "name": "F3",
                    "midi": 53,
                    "time": 40.45664099999965,
                    "velocity": 0.28346456692913385,
                    "duration": 0.0757614999999987
                },
                {
                    "name": "G#2",
                    "midi": 44,
                    "time": 40.60816399999965,
                    "velocity": 0.5354330708661418,
                    "duration": 0.0757614999999987
                },
                {
                    "name": "C4",
                    "midi": 60,
                    "time": 40.759686999999644,
                    "velocity": 0.29133858267716534,
                    "duration": 0.0757614999999987
                },
                {
                    "name": "G#3",
                    "midi": 56,
                    "time": 40.759686999999644,
                    "velocity": 0.29133858267716534,
                    "duration": 0.0757614999999987
                },
                {
                    "name": "F4",
                    "midi": 65,
                    "time": 40.759686999999644,
                    "velocity": 0.3700787401574803,
                    "duration": 0.0757614999999987
                },
                {
                    "name": "G2",
                    "midi": 43,
                    "time": 40.91120999999964,
                    "velocity": 0.5511811023622047,
                    "duration": 0.0757614999999987
                },
                {
                    "name": "D4",
                    "midi": 62,
                    "time": 41.06273299999964,
                    "velocity": 0.30708661417322836,
                    "duration": 0.07576150000000581
                },
                {
                    "name": "G3",
                    "midi": 55,
                    "time": 41.06273299999964,
                    "velocity": 0.30708661417322836,
                    "duration": 0.07576150000000581
                },
                {
                    "name": "G4",
                    "midi": 67,
                    "time": 41.06273299999964,
                    "velocity": 0.3858267716535433,
                    "duration": 0.07576150000000581
                },
                {
                    "name": "C3",
                    "midi": 48,
                    "time": 41.214255999999644,
                    "velocity": 0.5590551181102362,
                    "duration": 0.0757614999999987
                },
                {
                    "name": "G4",
                    "midi": 67,
                    "time": 41.36577899999964,
                    "velocity": 0.33070866141732286,
                    "duration": 0.0757614999999987
                },
                {
                    "name": "C4",
                    "midi": 60,
                    "time": 41.36577899999964,
                    "velocity": 0.2677165354330709,
                    "duration": 0.0757614999999987
                },
                {
                    "name": "F3",
                    "midi": 53,
                    "time": 41.51730199999964,
                    "velocity": 0.47244094488188976,
                    "duration": 0.0757614999999987
                },
                {
                    "name": "F4",
                    "midi": 65,
                    "time": 41.668824999999636,
                    "velocity": 0.31496062992125984,
                    "duration": 0.0757614999999987
                },
                {
                    "name": "C4",
                    "midi": 60,
                    "time": 41.668824999999636,
                    "velocity": 0.25984251968503935,
                    "duration": 0.0757614999999987
                },
                {
                    "name": "G3",
                    "midi": 55,
                    "time": 41.82034799999963,
                    "velocity": 0.44881889763779526,
                    "duration": 0.0757614999999987
                },
                {
                    "name": "C4",
                    "midi": 60,
                    "time": 41.97187099999963,
                    "velocity": 0.23622047244094488,
                    "duration": 0.0757614999999987
                },
                {
                    "name": "D#4",
                    "midi": 63,
                    "time": 41.97187099999963,
                    "velocity": 0.2992125984251969,
                    "duration": 0.0757614999999987
                },
                {
                    "name": "G2",
                    "midi": 43,
                    "time": 42.12339399999963,
                    "velocity": 0.4330708661417323,
                    "duration": 0.0757614999999987
                },
                {
                    "name": "G3",
                    "midi": 55,
                    "time": 42.274916999999625,
                    "velocity": 0.2125984251968504,
                    "duration": 0.0757614999999987
                },
                {
                    "name": "D4",
                    "midi": 62,
                    "time": 42.274916999999625,
                    "velocity": 0.2755905511811024,
                    "duration": 0.0757614999999987
                },
                {
                    "name": "C3",
                    "midi": 48,
                    "time": 42.42643999999962,
                    "velocity": 0.3858267716535433,
                    "duration": 0.0757614999999987
                },
                {
                    "name": "G3",
                    "midi": 55,
                    "time": 42.57796299999962,
                    "velocity": 0.2125984251968504,
                    "duration": 0.0757614999999987
                },
                {
                    "name": "C4",
                    "midi": 60,
                    "time": 42.57796299999962,
                    "velocity": 0.2677165354330709,
                    "duration": 0.0757614999999987
                },
                {
                    "name": "B2",
                    "midi": 47,
                    "time": 42.72948599999962,
                    "velocity": 0.3858267716535433,
                    "duration": 0.0757614999999987
                },
                {
                    "name": "G#3",
                    "midi": 56,
                    "time": 42.881008999999615,
                    "velocity": 0.2125984251968504,
                    "duration": 0.0757614999999987
                },
                {
                    "name": "C#4",
                    "midi": 61,
                    "time": 42.881008999999615,
                    "velocity": 0.2677165354330709,
                    "duration": 0.0757614999999987
                },
                {
                    "name": "C3",
                    "midi": 48,
                    "time": 43.03253199999961,
                    "velocity": 0.3858267716535433,
                    "duration": 0.0757614999999987
                },
                {
                    "name": "G3",
                    "midi": 55,
                    "time": 43.18405499999961,
                    "velocity": 0.2125984251968504,
                    "duration": 0.0757614999999987
                },
                {
                    "name": "C4",
                    "midi": 60,
                    "time": 43.18405499999961,
                    "velocity": 0.2755905511811024,
                    "duration": 0.0757614999999987
                },
                {
                    "name": "B2",
                    "midi": 47,
                    "time": 43.33557799999961,
                    "velocity": 0.3937007874015748,
                    "duration": 0.0757614999999987
                },
                {
                    "name": "G#3",
                    "midi": 56,
                    "time": 43.487100999999605,
                    "velocity": 0.2204724409448819,
                    "duration": 0.0757614999999987
                },
                {
                    "name": "D4",
                    "midi": 62,
                    "time": 43.487100999999605,
                    "velocity": 0.2755905511811024,
                    "duration": 0.0757614999999987
                },
                {
                    "name": "C3",
                    "midi": 48,
                    "time": 43.6386239999996,
                    "velocity": 0.4015748031496063,
                    "duration": 0.0757614999999987
                },
                {
                    "name": "G3",
                    "midi": 55,
                    "time": 43.7901469999996,
                    "velocity": 0.2283464566929134,
                    "duration": 0.0757614999999987
                },
                {
                    "name": "C4",
                    "midi": 60,
                    "time": 43.7901469999996,
                    "velocity": 0.2755905511811024,
                    "duration": 0.0757614999999987
                },
                {
                    "name": "B2",
                    "midi": 47,
                    "time": 43.9416699999996,
                    "velocity": 0.4015748031496063,
                    "duration": 0.0757614999999987
                },
                {
                    "name": "G#3",
                    "midi": 56,
                    "time": 44.093192999999594,
                    "velocity": 0.2283464566929134,
                    "duration": 0.0757614999999987
                },
                {
                    "name": "C#4",
                    "midi": 61,
                    "time": 44.093192999999594,
                    "velocity": 0.28346456692913385,
                    "duration": 0.0757614999999987
                },
                {
                    "name": "C3",
                    "midi": 48,
                    "time": 44.24471599999959,
                    "velocity": 0.4094488188976378,
                    "duration": 0.0757614999999987
                },
                {
                    "name": "G3",
                    "midi": 55,
                    "time": 44.39623899999959,
                    "velocity": 0.2283464566929134,
                    "duration": 0.0757614999999987
                },
                {
                    "name": "C4",
                    "midi": 60,
                    "time": 44.39623899999959,
                    "velocity": 0.28346456692913385,
                    "duration": 0.0757614999999987
                },
                {
                    "name": "B2",
                    "midi": 47,
                    "time": 44.54776199999959,
                    "velocity": 0.4094488188976378,
                    "duration": 0.0757614999999987
                },
                {
                    "name": "G#3",
                    "midi": 56,
                    "time": 44.699284999999584,
                    "velocity": 0.2283464566929134,
                    "duration": 0.0757614999999987
                },
                {
                    "name": "D4",
                    "midi": 62,
                    "time": 44.699284999999584,
                    "velocity": 0.29133858267716534,
                    "duration": 0.0757614999999987
                },
                {
                    "name": "C3",
                    "midi": 48,
                    "time": 44.85080799999958,
                    "velocity": 0.41732283464566927,
                    "duration": 0.0757614999999987
                },
                {
                    "name": "G3",
                    "midi": 55,
                    "time": 45.00233099999958,
                    "velocity": 0.2283464566929134,
                    "duration": 0.0757614999999987
                },
                {
                    "name": "C4",
                    "midi": 60,
                    "time": 45.00233099999958,
                    "velocity": 0.29133858267716534,
                    "duration": 0.0757614999999987
                },
                {
                    "name": "B2",
                    "midi": 47,
                    "time": 45.153853999999576,
                    "velocity": 0.4094488188976378,
                    "duration": 0.0757614999999987
                },
                {
                    "name": "G#3",
                    "midi": 56,
                    "time": 45.305376999999574,
                    "velocity": 0.2283464566929134,
                    "duration": 0.0757614999999987
                },
                {
                    "name": "D4",
                    "midi": 62,
                    "time": 45.305376999999574,
                    "velocity": 0.28346456692913385,
                    "duration": 0.0757614999999987
                },
                {
                    "name": "C3",
                    "midi": 48,
                    "time": 45.45689999999957,
                    "velocity": 0.4094488188976378,
                    "duration": 0.0757614999999987
                },
                {
                    "name": "G3",
                    "midi": 55,
                    "time": 45.60842299999957,
                    "velocity": 0.2283464566929134,
                    "duration": 0.0757614999999987
                },
                {
                    "name": "C4",
                    "midi": 60,
                    "time": 45.60842299999957,
                    "velocity": 0.28346456692913385,
                    "duration": 0.0757614999999987
                },
                {
                    "name": "B2",
                    "midi": 47,
                    "time": 45.759945999999566,
                    "velocity": 0.4015748031496063,
                    "duration": 0.0757614999999987
                },
                {
                    "name": "G#3",
                    "midi": 56,
                    "time": 45.91146899999956,
                    "velocity": 0.2283464566929134,
                    "duration": 0.0757614999999987
                },
                {
                    "name": "C#4",
                    "midi": 61,
                    "time": 45.91146899999956,
                    "velocity": 0.2755905511811024,
                    "duration": 0.0757614999999987
                },
                {
                    "name": "C3",
                    "midi": 48,
                    "time": 46.06299199999956,
                    "velocity": 0.4015748031496063,
                    "duration": 0.0757614999999987
                },
                {
                    "name": "G3",
                    "midi": 55,
                    "time": 46.21451499999956,
                    "velocity": 0.2283464566929134,
                    "duration": 0.0757614999999987
                },
                {
                    "name": "C4",
                    "midi": 60,
                    "time": 46.21451499999956,
                    "velocity": 0.2755905511811024,
                    "duration": 0.0757614999999987
                },
                {
                    "name": "B2",
                    "midi": 47,
                    "time": 46.366037999999556,
                    "velocity": 0.3937007874015748,
                    "duration": 0.0757614999999987
                },
                {
                    "name": "G#3",
                    "midi": 56,
                    "time": 46.51756099999955,
                    "velocity": 0.2204724409448819,
                    "duration": 0.0757614999999987
                },
                {
                    "name": "D4",
                    "midi": 62,
                    "time": 46.51756099999955,
                    "velocity": 0.2755905511811024,
                    "duration": 0.0757614999999987
                },
                {
                    "name": "B2",
                    "midi": 47,
                    "time": 46.66908399999955,
                    "velocity": 0.3858267716535433,
                    "duration": 0.0757614999999987
                },
                {
                    "name": "A3",
                    "midi": 57,
                    "time": 46.82060699999955,
                    "velocity": 0.2204724409448819,
                    "duration": 0.0757614999999987
                },
                {
                    "name": "D#4",
                    "midi": 63,
                    "time": 46.82060699999955,
                    "velocity": 0.2677165354330709,
                    "duration": 0.0757614999999987
                },
                {
                    "name": "E2",
                    "midi": 40,
                    "time": 46.972129999999545,
                    "velocity": 0.3858267716535433,
                    "duration": 0.0757614999999987
                },
                {
                    "name": "B3",
                    "midi": 59,
                    "time": 47.12365299999954,
                    "velocity": 0.2125984251968504,
                    "duration": 0.0757614999999987
                },
                {
                    "name": "E3",
                    "midi": 52,
                    "time": 47.12365299999954,
                    "velocity": 0.2125984251968504,
                    "duration": 0.0757614999999987
                },
                {
                    "name": "D4",
                    "midi": 62,
                    "time": 47.12365299999954,
                    "velocity": 0.2677165354330709,
                    "duration": 0.0757614999999987
                },
                {
                    "name": "A2",
                    "midi": 45,
                    "time": 47.27517599999954,
                    "velocity": 0.4330708661417323,
                    "duration": 0.0757614999999987
                },
                {
                    "name": "C4",
                    "midi": 60,
                    "time": 47.42669899999954,
                    "velocity": 0.2992125984251969,
                    "duration": 0.0757614999999987
                },
                {
                    "name": "E3",
                    "midi": 52,
                    "time": 47.42669899999954,
                    "velocity": 0.23622047244094488,
                    "duration": 0.0757614999999987
                },
                {
                    "name": "C3",
                    "midi": 48,
                    "time": 47.578221999999535,
                    "velocity": 0.5039370078740157,
                    "duration": 0.0757614999999987
                },
                {
                    "name": "E4",
                    "midi": 64,
                    "time": 47.72974499999953,
                    "velocity": 0.3543307086614173,
                    "duration": 0.0757614999999987
                },
                {
                    "name": "A3",
                    "midi": 57,
                    "time": 47.72974499999953,
                    "velocity": 0.29133858267716534,
                    "duration": 0.0757614999999987
                },
                {
                    "name": "B2",
                    "midi": 47,
                    "time": 47.88126799999953,
                    "velocity": 0.5039370078740157,
                    "duration": 0.0757614999999987
                },
                {
                    "name": "F3",
                    "midi": 53,
                    "time": 48.03279099999953,
                    "velocity": 0.29133858267716534,
                    "duration": 0.0757614999999987
                },
                {
                    "name": "D4",
                    "midi": 62,
                    "time": 48.03279099999953,
                    "velocity": 0.3543307086614173,
                    "duration": 0.0757614999999987
                },
                {
                    "name": "E3",
                    "midi": 52,
                    "time": 48.184313999999524,
                    "velocity": 0.5039370078740157,
                    "duration": 0.0757614999999987
                },
                {
                    "name": "B3",
                    "midi": 59,
                    "time": 48.33583699999952,
                    "velocity": 0.29133858267716534,
                    "duration": 0.0757614999999987
                },
                {
                    "name": "E4",
                    "midi": 64,
                    "time": 48.33583699999952,
                    "velocity": 0.3543307086614173,
                    "duration": 0.0757614999999987
                },
                {
                    "name": "C3",
                    "midi": 48,
                    "time": 48.48735999999952,
                    "velocity": 0.4330708661417323,
                    "duration": 0.0757614999999987
                },
                {
                    "name": "E4",
                    "midi": 64,
                    "time": 48.63888299999952,
                    "velocity": 0.2992125984251969,
                    "duration": 0.0757614999999987
                },
                {
                    "name": "A3",
                    "midi": 57,
                    "time": 48.63888299999952,
                    "velocity": 0.23622047244094488,
                    "duration": 0.0757614999999987
                },
                {
                    "name": "A2",
                    "midi": 45,
                    "time": 48.790405999999514,
                    "velocity": 0.5039370078740157,
                    "duration": 0.0757614999999987
                },
                {
                    "name": "A3",
                    "midi": 57,
                    "time": 48.94192899999951,
                    "velocity": 0.29133858267716534,
                    "duration": 0.0757614999999987
                },
                {
                    "name": "E4",
                    "midi": 64,
                    "time": 48.94192899999951,
                    "velocity": 0.3543307086614173,
                    "duration": 0.0757614999999987
                },
                {
                    "name": "D3",
                    "midi": 50,
                    "time": 49.09345199999951,
                    "velocity": 0.5039370078740157,
                    "duration": 0.0757614999999987
                },
                {
                    "name": "A3",
                    "midi": 57,
                    "time": 49.244974999999506,
                    "velocity": 0.29133858267716534,
                    "duration": 0.0757614999999987
                },
                {
                    "name": "F4",
                    "midi": 65,
                    "time": 49.244974999999506,
                    "velocity": 0.3543307086614173,
                    "duration": 0.0757614999999987
                },
                {
                    "name": "D3",
                    "midi": 50,
                    "time": 49.396497999999504,
                    "velocity": 0.5039370078740157,
                    "duration": 0.0757614999999987
                },
                {
                    "name": "F4",
                    "midi": 65,
                    "time": 49.5480209999995,
                    "velocity": 0.3543307086614173,
                    "duration": 0.0757614999999987
                },
                {
                    "name": "G#3",
                    "midi": 56,
                    "time": 49.5480209999995,
                    "velocity": 0.29133858267716534,
                    "duration": 0.0757614999999987
                },
                {
                    "name": "C3",
                    "midi": 48,
                    "time": 49.6995439999995,
                    "velocity": 0.4330708661417323,
                    "duration": 0.0757614999999987
                },
                {
                    "name": "F4",
                    "midi": 65,
                    "time": 49.851066999999496,
                    "velocity": 0.2992125984251969,
                    "duration": 0.0757614999999987
                },
                {
                    "name": "A3",
                    "midi": 57,
                    "time": 49.851066999999496,
                    "velocity": 0.2440944881889764,
                    "duration": 0.0757614999999987
                },
                {
                    "name": "C3",
                    "midi": 48,
                    "time": 50.00258999999949,
                    "velocity": 0.48031496062992124,
                    "duration": 0.0757614999999987
                },
                {
                    "name": "E4",
                    "midi": 64,
                    "time": 50.15411299999949,
                    "velocity": 0.3464566929133858,
                    "duration": 0.0757614999999987
                },
                {
                    "name": "A3",
                    "midi": 57,
                    "time": 50.15411299999949,
                    "velocity": 0.29133858267716534,
                    "duration": 0.0757614999999987
                },
                {
                    "name": "B2",
                    "midi": 47,
                    "time": 50.30563599999949,
                    "velocity": 0.49606299212598426,
                    "duration": 0.0757614999999987
                },
                {
                    "name": "D4",
                    "midi": 62,
                    "time": 50.457158999999486,
                    "velocity": 0.3543307086614173,
                    "duration": 0.0757614999999987
                },
                {
                    "name": "F3",
                    "midi": 53,
                    "time": 50.457158999999486,
                    "velocity": 0.29133858267716534,
                    "duration": 0.0757614999999987
                },
                {
                    "name": "E2",
                    "midi": 40,
                    "time": 50.60868199999948,
                    "velocity": 0.5196850393700787,
                    "duration": 0.0757614999999987
                },
                {
                    "name": "D4",
                    "midi": 62,
                    "time": 50.76020499999948,
                    "velocity": 0.36220472440944884,
                    "duration": 0.0757614999999987
                },
                {
                    "name": "B3",
                    "midi": 59,
                    "time": 50.76020499999948,
                    "velocity": 0.2992125984251969,
                    "duration": 0.0757614999999987
                },
                {
                    "name": "E3",
                    "midi": 52,
                    "time": 50.76020499999948,
                    "velocity": 0.2992125984251969,
                    "duration": 0.0757614999999987
                },
                {
                    "name": "A2",
                    "midi": 45,
                    "time": 50.91172799999948,
                    "velocity": 0.5354330708661418,
                    "duration": 0.0757614999999987
                },
                {
                    "name": "C4",
                    "midi": 60,
                    "time": 51.063250999999475,
                    "velocity": 0.36220472440944884,
                    "duration": 0.0757614999999987
                },
                {
                    "name": "E3",
                    "midi": 52,
                    "time": 51.063250999999475,
                    "velocity": 0.2992125984251969,
                    "duration": 0.0757614999999987
                },
                {
                    "name": "B2",
                    "midi": 47,
                    "time": 51.21477399999947,
                    "velocity": 0.5196850393700787,
                    "duration": 0.0757614999999987
                },
                {
                    "name": "D4",
                    "midi": 62,
                    "time": 51.36629699999947,
                    "velocity": 0.3464566929133858,
                    "duration": 0.0757614999999987
                },
                {
                    "name": "E3",
                    "midi": 52,
                    "time": 51.36629699999947,
                    "velocity": 0.29133858267716534,
                    "duration": 0.0757614999999987
                },
                {
                    "name": "C3",
                    "midi": 48,
                    "time": 51.51781999999947,
                    "velocity": 0.48031496062992124,
                    "duration": 0.0757614999999987
                },
                {
                    "name": "E4",
                    "midi": 64,
                    "time": 51.669342999999465,
                    "velocity": 0.3228346456692913,
                    "duration": 0.0757614999999987
                },
                {
                    "name": "E3",
                    "midi": 52,
                    "time": 51.669342999999465,
                    "velocity": 0.2755905511811024,
                    "duration": 0.0757614999999987
                },
                {
                    "name": "A2",
                    "midi": 45,
                    "time": 51.82086599999946,
                    "velocity": 0.4566929133858268,
                    "duration": 0.0757614999999987
                },
                {
                    "name": "C4",
                    "midi": 60,
                    "time": 51.97238899999946,
                    "velocity": 0.2992125984251969,
                    "duration": 0.0757614999999987
                },
                {
                    "name": "E3",
                    "midi": 52,
                    "time": 51.97238899999946,
                    "velocity": 0.2440944881889764,
                    "duration": 0.0757614999999987
                },
                {
                    "name": "E2",
                    "midi": 40,
                    "time": 52.12391199999946,
                    "velocity": 0.4330708661417323,
                    "duration": 0.0757614999999987
                },
                {
                    "name": "D4",
                    "midi": 62,
                    "time": 52.275434999999455,
                    "velocity": 0.2992125984251969,
                    "duration": 0.0757614999999987
                },
                {
                    "name": "E3",
                    "midi": 52,
                    "time": 52.275434999999455,
                    "velocity": 0.2440944881889764,
                    "duration": 0.0757614999999987
                },
                {
                    "name": "A2",
                    "midi": 45,
                    "time": 52.42695799999945,
                    "velocity": 0.4330708661417323,
                    "duration": 0.0757614999999987
                },
                {
                    "name": "C4",
                    "midi": 60,
                    "time": 52.57848099999945,
                    "velocity": 0.2992125984251969,
                    "duration": 0.0757614999999987
                },
                {
                    "name": "E3",
                    "midi": 52,
                    "time": 52.57848099999945,
                    "velocity": 0.2440944881889764,
                    "duration": 0.0757614999999987
                },
                {
                    "name": "B2",
                    "midi": 47,
                    "time": 52.73000399999945,
                    "velocity": 0.4330708661417323,
                    "duration": 0.0757614999999987
                },
                {
                    "name": "E3",
                    "midi": 52,
                    "time": 52.881526999999444,
                    "velocity": 0.2440944881889764,
                    "duration": 0.0757614999999987
                },
                {
                    "name": "D4",
                    "midi": 62,
                    "time": 52.881526999999444,
                    "velocity": 0.2992125984251969,
                    "duration": 0.0757614999999987
                },
                {
                    "name": "G#3",
                    "midi": 56,
                    "time": 52.881526999999444,
                    "velocity": 0.2440944881889764,
                    "duration": 0.0757614999999987
                },
                {
                    "name": "A2",
                    "midi": 45,
                    "time": 53.03304999999944,
                    "velocity": 0.4330708661417323,
                    "duration": 0.0757614999999987
                },
                {
                    "name": "E3",
                    "midi": 52,
                    "time": 53.18457299999944,
                    "velocity": 0.2440944881889764,
                    "duration": 0.0757614999999987
                },
                {
                    "name": "C4",
                    "midi": 60,
                    "time": 53.18457299999944,
                    "velocity": 0.2992125984251969,
                    "duration": 0.0757614999999987
                },
                {
                    "name": "A3",
                    "midi": 57,
                    "time": 53.18457299999944,
                    "velocity": 0.2440944881889764,
                    "duration": 0.0757614999999987
                },
                {
                    "name": "E2",
                    "midi": 40,
                    "time": 53.336095999999436,
                    "velocity": 0.4330708661417323,
                    "duration": 0.0757614999999987
                },
                {
                    "name": "E3",
                    "midi": 52,
                    "time": 53.487618999999434,
                    "velocity": 0.2440944881889764,
                    "duration": 0.0757614999999987
                },
                {
                    "name": "D4",
                    "midi": 62,
                    "time": 53.487618999999434,
                    "velocity": 0.2992125984251969,
                    "duration": 0.0757614999999987
                },
                {
                    "name": "G#3",
                    "midi": 56,
                    "time": 53.487618999999434,
                    "velocity": 0.2440944881889764,
                    "duration": 0.0757614999999987
                },
                {
                    "name": "A2",
                    "midi": 45,
                    "time": 53.63914199999943,
                    "velocity": 0.4330708661417323,
                    "duration": 0.0757614999999987
                },
                {
                    "name": "E3",
                    "midi": 52,
                    "time": 53.79066499999943,
                    "velocity": 0.2440944881889764,
                    "duration": 0.0757614999999987
                },
                {
                    "name": "C4",
                    "midi": 60,
                    "time": 53.79066499999943,
                    "velocity": 0.2992125984251969,
                    "duration": 0.0757614999999987
                },
                {
                    "name": "A3",
                    "midi": 57,
                    "time": 53.79066499999943,
                    "velocity": 0.2440944881889764,
                    "duration": 0.0757614999999987
                },
                {
                    "name": "B2",
                    "midi": 47,
                    "time": 53.942187999999426,
                    "velocity": 0.4409448818897638,
                    "duration": 0.0757614999999987
                },
                {
                    "name": "E3",
                    "midi": 52,
                    "time": 54.09371099999942,
                    "velocity": 0.2755905511811024,
                    "duration": 0.0757614999999987
                },
                {
                    "name": "D4",
                    "midi": 62,
                    "time": 54.09371099999942,
                    "velocity": 0.3228346456692913,
                    "duration": 0.0757614999999987
                },
                {
                    "name": "G#3",
                    "midi": 56,
                    "time": 54.09371099999942,
                    "velocity": 0.2755905511811024,
                    "duration": 0.0757614999999987
                },
                {
                    "name": "A2",
                    "midi": 45,
                    "time": 54.24523399999942,
                    "velocity": 0.47244094488188976,
                    "duration": 0.0757614999999987
                },
                {
                    "name": "A3",
                    "midi": 57,
                    "time": 54.39675699999942,
                    "velocity": 0.2992125984251969,
                    "duration": 0.0757614999999987
                },
                {
                    "name": "C4",
                    "midi": 60,
                    "time": 54.39675699999942,
                    "velocity": 0.36220472440944884,
                    "duration": 0.0757614999999987
                },
                {
                    "name": "E3",
                    "midi": 52,
                    "time": 54.39675699999942,
                    "velocity": 0.2992125984251969,
                    "duration": 0.0757614999999987
                },
                {
                    "name": "G2",
                    "midi": 43,
                    "time": 54.548279999999416,
                    "velocity": 0.5039370078740157,
                    "duration": 0.0757614999999987
                },
                {
                    "name": "E4",
                    "midi": 64,
                    "time": 54.69980299999941,
                    "velocity": 0.36220472440944884,
                    "duration": 0.0757614999999987
                },
                {
                    "name": "G3",
                    "midi": 55,
                    "time": 54.69980299999941,
                    "velocity": 0.2992125984251969,
                    "duration": 0.0757614999999987
                },
                {
                    "name": "A2",
                    "midi": 45,
                    "time": 54.85132599999941,
                    "velocity": 0.5354330708661418,
                    "duration": 0.0757614999999987
                },
                {
                    "name": "E4",
                    "midi": 64,
                    "time": 55.00284899999941,
                    "velocity": 0.3464566929133858,
                    "duration": 0.0757614999999987
                },
                {
                    "name": "A3",
                    "midi": 57,
                    "time": 55.00284899999941,
                    "velocity": 0.29133858267716534,
                    "duration": 0.0757614999999987
                },
                {
                    "name": "B2",
                    "midi": 47,
                    "time": 55.154371999999405,
                    "velocity": 0.49606299212598426,
                    "duration": 0.0757614999999987
                },
                {
                    "name": "E4",
                    "midi": 64,
                    "time": 55.3058949999994,
                    "velocity": 0.3543307086614173,
                    "duration": 0.0757614999999987
                },
                {
                    "name": "B3",
                    "midi": 59,
                    "time": 55.3058949999994,
                    "velocity": 0.29133858267716534,
                    "duration": 0.0757614999999987
                },
                {
                    "name": "B2",
                    "midi": 47,
                    "time": 55.4574179999994,
                    "velocity": 0.4881889763779528,
                    "duration": 0.0757614999999987
                },
                {
                    "name": "D#4",
                    "midi": 63,
                    "time": 55.6089409999994,
                    "velocity": 0.3464566929133858,
                    "duration": 0.0757614999999987
                },
                {
                    "name": "B3",
                    "midi": 59,
                    "time": 55.6089409999994,
                    "velocity": 0.29133858267716534,
                    "duration": 0.0757614999999987
                },
                {
                    "name": "E3",
                    "midi": 52,
                    "time": 55.760463999999395,
                    "velocity": 0.48031496062992124,
                    "duration": 0.0757614999999987
                },
                {
                    "name": "E4",
                    "midi": 64,
                    "time": 55.91198699999939,
                    "velocity": 0.3464566929133858,
                    "duration": 0.0757614999999987
                },
                {
                    "name": "B3",
                    "midi": 59,
                    "time": 55.91198699999939,
                    "velocity": 0.29133858267716534,
                    "duration": 0.0757614999999987
                },
                {
                    "name": "D#3",
                    "midi": 51,
                    "time": 56.06350999999939,
                    "velocity": 0.47244094488188976,
                    "duration": 0.0757614999999987
                },
                {
                    "name": "F#4",
                    "midi": 66,
                    "time": 56.21503299999939,
                    "velocity": 0.3464566929133858,
                    "duration": 0.0757614999999987
                },
                {
                    "name": "C4",
                    "midi": 60,
                    "time": 56.21503299999939,
                    "velocity": 0.29133858267716534,
                    "duration": 0.0757614999999987
                },
                {
                    "name": "D3",
                    "midi": 50,
                    "time": 56.366555999999385,
                    "velocity": 0.48031496062992124,
                    "duration": 0.0757614999999987
                },
                {
                    "name": "F4",
                    "midi": 65,
                    "time": 56.51807899999938,
                    "velocity": 0.3228346456692913,
                    "duration": 0.0757614999999987
                },
                {
                    "name": "B3",
                    "midi": 59,
                    "time": 56.51807899999938,
                    "velocity": 0.2755905511811024,
                    "duration": 0.0757614999999987
                },
                {
                    "name": "E2",
                    "midi": 40,
                    "time": 56.66960199999938,
                    "velocity": 0.4566929133858268,
                    "duration": 0.0757614999999987
                },
                {
                    "name": "E4",
                    "midi": 64,
                    "time": 56.82112499999938,
                    "velocity": 0.2992125984251969,
                    "duration": 0.0757614999999987
                },
                {
                    "name": "B3",
                    "midi": 59,
                    "time": 56.82112499999938,
                    "velocity": 0.2440944881889764,
                    "duration": 0.0757614999999987
                },
                {
                    "name": "A2",
                    "midi": 45,
                    "time": 56.972647999999374,
                    "velocity": 0.4330708661417323,
                    "duration": 0.0757614999999987
                },
                {
                    "name": "E4",
                    "midi": 64,
                    "time": 57.12417099999937,
                    "velocity": 0.2992125984251969,
                    "duration": 0.0757614999999987
                },
                {
                    "name": "A3",
                    "midi": 57,
                    "time": 57.12417099999937,
                    "velocity": 0.2440944881889764,
                    "duration": 0.0757614999999987
                },
                {
                    "name": "C3",
                    "midi": 48,
                    "time": 57.27569399999937,
                    "velocity": 0.4330708661417323,
                    "duration": 0.0757614999999987
                },
                {
                    "name": "E4",
                    "midi": 64,
                    "time": 57.42721699999937,
                    "velocity": 0.2992125984251969,
                    "duration": 0.0757614999999987
                },
                {
                    "name": "A3",
                    "midi": 57,
                    "time": 57.42721699999937,
                    "velocity": 0.2440944881889764,
                    "duration": 0.0757614999999987
                },
                {
                    "name": "B2",
                    "midi": 47,
                    "time": 57.578739999999364,
                    "velocity": 0.4330708661417323,
                    "duration": 0.0757614999999987
                },
                {
                    "name": "D4",
                    "midi": 62,
                    "time": 57.73026299999936,
                    "velocity": 0.2992125984251969,
                    "duration": 0.0757614999999987
                },
                {
                    "name": "F3",
                    "midi": 53,
                    "time": 57.73026299999936,
                    "velocity": 0.2440944881889764,
                    "duration": 0.0757614999999987
                },
                {
                    "name": "E3",
                    "midi": 52,
                    "time": 57.88178599999936,
                    "velocity": 0.4330708661417323,
                    "duration": 0.0757614999999987
                },
                {
                    "name": "E4",
                    "midi": 64,
                    "time": 58.033308999999356,
                    "velocity": 0.2992125984251969,
                    "duration": 0.0757614999999987
                },
                {
                    "name": "B3",
                    "midi": 59,
                    "time": 58.033308999999356,
                    "velocity": 0.2440944881889764,
                    "duration": 0.0757614999999987
                },
                {
                    "name": "C3",
                    "midi": 48,
                    "time": 58.18483199999935,
                    "velocity": 0.4330708661417323,
                    "duration": 0.0757614999999987
                },
                {
                    "name": "E4",
                    "midi": 64,
                    "time": 58.33635499999935,
                    "velocity": 0.2992125984251969,
                    "duration": 0.0757614999999987
                },
                {
                    "name": "A3",
                    "midi": 57,
                    "time": 58.33635499999935,
                    "velocity": 0.2440944881889764,
                    "duration": 0.0757614999999987
                },
                {
                    "name": "A2",
                    "midi": 45,
                    "time": 58.48787799999935,
                    "velocity": 0.4330708661417323,
                    "duration": 0.0757614999999987
                },
                {
                    "name": "E4",
                    "midi": 64,
                    "time": 58.639400999999346,
                    "velocity": 0.2992125984251969,
                    "duration": 0.0757614999999987
                },
                {
                    "name": "A3",
                    "midi": 57,
                    "time": 58.639400999999346,
                    "velocity": 0.2440944881889764,
                    "duration": 0.0757614999999987
                },
                {
                    "name": "D3",
                    "midi": 50,
                    "time": 58.79092399999934,
                    "velocity": 0.4409448818897638,
                    "duration": 0.0757614999999987
                },
                {
                    "name": "F4",
                    "midi": 65,
                    "time": 58.94244699999934,
                    "velocity": 0.30708661417322836,
                    "duration": 0.0757614999999987
                },
                {
                    "name": "A3",
                    "midi": 57,
                    "time": 58.94244699999934,
                    "velocity": 0.25984251968503935,
                    "duration": 0.0757614999999987
                },
                {
                    "name": "D3",
                    "midi": 50,
                    "time": 59.09396999999934,
                    "velocity": 0.4566929133858268,
                    "duration": 0.0757614999999987
                },
                {
                    "name": "F4",
                    "midi": 65,
                    "time": 59.245492999999335,
                    "velocity": 0.3228346456692913,
                    "duration": 0.0757614999999987
                },
                {
                    "name": "G#3",
                    "midi": 56,
                    "time": 59.245492999999335,
                    "velocity": 0.2755905511811024,
                    "duration": 0.0757614999999987
                },
                {
                    "name": "C3",
                    "midi": 48,
                    "time": 59.39701599999933,
                    "velocity": 0.47244094488188976,
                    "duration": 0.0757614999999987
                },
                {
                    "name": "F4",
                    "midi": 65,
                    "time": 59.54853899999933,
                    "velocity": 0.3228346456692913,
                    "duration": 0.0757614999999987
                },
                {
                    "name": "A3",
                    "midi": 57,
                    "time": 59.54853899999933,
                    "velocity": 0.2755905511811024,
                    "duration": 0.0757614999999987
                },
                {
                    "name": "C3",
                    "midi": 48,
                    "time": 59.70006199999933,
                    "velocity": 0.48031496062992124,
                    "duration": 0.0757614999999987
                },
                {
                    "name": "E4",
                    "midi": 64,
                    "time": 59.851584999999325,
                    "velocity": 0.3464566929133858,
                    "duration": 0.0757614999999987
                },
                {
                    "name": "A3",
                    "midi": 57,
                    "time": 59.851584999999325,
                    "velocity": 0.29133858267716534,
                    "duration": 0.0757614999999987
                },
                {
                    "name": "B2",
                    "midi": 47,
                    "time": 60.00310799999932,
                    "velocity": 0.49606299212598426,
                    "duration": 0.0757614999999987
                },
                {
                    "name": "D4",
                    "midi": 62,
                    "time": 60.15463099999932,
                    "velocity": 0.3543307086614173,
                    "duration": 0.0757614999999987
                },
                {
                    "name": "F3",
                    "midi": 53,
                    "time": 60.15463099999932,
                    "velocity": 0.29133858267716534,
                    "duration": 0.0757614999999987
                },
                {
                    "name": "E2",
                    "midi": 40,
                    "time": 60.30615399999932,
                    "velocity": 0.5196850393700787,
                    "duration": 0.0757614999999987
                },
                {
                    "name": "D4",
                    "midi": 62,
                    "time": 60.457676999999315,
                    "velocity": 0.36220472440944884,
                    "duration": 0.0757614999999987
                },
                {
                    "name": "B3",
                    "midi": 59,
                    "time": 60.457676999999315,
                    "velocity": 0.2992125984251969,
                    "duration": 0.0757614999999987
                },
                {
                    "name": "E3",
                    "midi": 52,
                    "time": 60.457676999999315,
                    "velocity": 0.2992125984251969,
                    "duration": 0.0757614999999987
                },
                {
                    "name": "A2",
                    "midi": 45,
                    "time": 60.60919999999931,
                    "velocity": 0.5354330708661418,
                    "duration": 0.0757614999999987
                },
                {
                    "name": "A3",
                    "midi": 57,
                    "time": 60.76072299999931,
                    "velocity": 0.2992125984251969,
                    "duration": 0.0757614999999987
                },
                {
                    "name": "C4",
                    "midi": 60,
                    "time": 60.76072299999931,
                    "velocity": 0.36220472440944884,
                    "duration": 0.0757614999999987
                },
                {
                    "name": "E3",
                    "midi": 52,
                    "time": 60.76072299999931,
                    "velocity": 0.2992125984251969,
                    "duration": 0.0757614999999987
                },
                {
                    "name": "B2",
                    "midi": 47,
                    "time": 60.91224599999931,
                    "velocity": 0.5196850393700787,
                    "duration": 0.0757614999999987
                },
                {
                    "name": "G#3",
                    "midi": 56,
                    "time": 61.063768999999304,
                    "velocity": 0.29133858267716534,
                    "duration": 0.0757614999999987
                },
                {
                    "name": "D4",
                    "midi": 62,
                    "time": 61.063768999999304,
                    "velocity": 0.3464566929133858,
                    "duration": 0.0757614999999987
                },
                {
                    "name": "E3",
                    "midi": 52,
                    "time": 61.063768999999304,
                    "velocity": 0.29133858267716534,
                    "duration": 0.0757614999999987
                },
                {
                    "name": "C3",
                    "midi": 48,
                    "time": 61.2152919999993,
                    "velocity": 0.48031496062992124,
                    "duration": 0.0757614999999987
                },
                {
                    "name": "A3",
                    "midi": 57,
                    "time": 61.3668149999993,
                    "velocity": 0.2755905511811024,
                    "duration": 0.0757614999999987
                },
                {
                    "name": "E4",
                    "midi": 64,
                    "time": 61.3668149999993,
                    "velocity": 0.3228346456692913,
                    "duration": 0.0757614999999987
                },
                {
                    "name": "E3",
                    "midi": 52,
                    "time": 61.3668149999993,
                    "velocity": 0.2755905511811024,
                    "duration": 0.0757614999999987
                },
                {
                    "name": "A2",
                    "midi": 45,
                    "time": 61.5183379999993,
                    "velocity": 0.4566929133858268,
                    "duration": 0.0757614999999987
                },
                {
                    "name": "A3",
                    "midi": 57,
                    "time": 61.669860999999294,
                    "velocity": 0.2440944881889764,
                    "duration": 0.0757614999999987
                },
                {
                    "name": "C4",
                    "midi": 60,
                    "time": 61.669860999999294,
                    "velocity": 0.2992125984251969,
                    "duration": 0.0757614999999987
                },
                {
                    "name": "E3",
                    "midi": 52,
                    "time": 61.669860999999294,
                    "velocity": 0.2440944881889764,
                    "duration": 0.0757614999999987
                },
                {
                    "name": "E2",
                    "midi": 40,
                    "time": 61.82138399999929,
                    "velocity": 0.4330708661417323,
                    "duration": 0.0757614999999987
                },
                {
                    "name": "D4",
                    "midi": 62,
                    "time": 61.97290699999929,
                    "velocity": 0.2992125984251969,
                    "duration": 0.0757614999999987
                },
                {
                    "name": "E3",
                    "midi": 52,
                    "time": 61.97290699999929,
                    "velocity": 0.2440944881889764,
                    "duration": 0.0757614999999987
                },
                {
                    "name": "A2",
                    "midi": 45,
                    "time": 62.124429999999286,
                    "velocity": 0.4330708661417323,
                    "duration": 0.0757614999999987
                },
                {
                    "name": "C4",
                    "midi": 60,
                    "time": 62.275952999999284,
                    "velocity": 0.2992125984251969,
                    "duration": 0.0757614999999987
                },
                {
                    "name": "E3",
                    "midi": 52,
                    "time": 62.275952999999284,
                    "velocity": 0.2440944881889764,
                    "duration": 0.0757614999999987
                },
                {
                    "name": "B2",
                    "midi": 47,
                    "time": 62.42747599999928,
                    "velocity": 0.4330708661417323,
                    "duration": 0.0757614999999987
                },
                {
                    "name": "E3",
                    "midi": 52,
                    "time": 62.57899899999928,
                    "velocity": 0.2440944881889764,
                    "duration": 0.0757614999999987
                },
                {
                    "name": "D4",
                    "midi": 62,
                    "time": 62.57899899999928,
                    "velocity": 0.2992125984251969,
                    "duration": 0.0757614999999987
                },
                {
                    "name": "G#3",
                    "midi": 56,
                    "time": 62.57899899999928,
                    "velocity": 0.2440944881889764,
                    "duration": 0.0757614999999987
                },
                {
                    "name": "A2",
                    "midi": 45,
                    "time": 62.730521999999276,
                    "velocity": 0.4330708661417323,
                    "duration": 0.0757614999999987
                },
                {
                    "name": "E3",
                    "midi": 52,
                    "time": 62.88204499999927,
                    "velocity": 0.2440944881889764,
                    "duration": 0.0757614999999987
                },
                {
                    "name": "C4",
                    "midi": 60,
                    "time": 62.88204499999927,
                    "velocity": 0.2992125984251969,
                    "duration": 0.0757614999999987
                },
                {
                    "name": "A3",
                    "midi": 57,
                    "time": 62.88204499999927,
                    "velocity": 0.2440944881889764,
                    "duration": 0.0757614999999987
                },
                {
                    "name": "E2",
                    "midi": 40,
                    "time": 63.03356799999927,
                    "velocity": 0.4330708661417323,
                    "duration": 0.0757614999999987
                },
                {
                    "name": "E3",
                    "midi": 52,
                    "time": 63.18509099999927,
                    "velocity": 0.2440944881889764,
                    "duration": 0.0757614999999987
                },
                {
                    "name": "D4",
                    "midi": 62,
                    "time": 63.18509099999927,
                    "velocity": 0.2992125984251969,
                    "duration": 0.0757614999999987
                },
                {
                    "name": "A2",
                    "midi": 45,
                    "time": 63.336613999999265,
                    "velocity": 0.4330708661417323,
                    "duration": 0.0757614999999987
                },
                {
                    "name": "E3",
                    "midi": 52,
                    "time": 63.48813699999926,
                    "velocity": 0.2440944881889764,
                    "duration": 0.0757614999999987
                },
                {
                    "name": "C4",
                    "midi": 60,
                    "time": 63.48813699999926,
                    "velocity": 0.2992125984251969,
                    "duration": 0.0757614999999987
                },
                {
                    "name": "B2",
                    "midi": 47,
                    "time": 63.63965999999926,
                    "velocity": 0.4409448818897638,
                    "duration": 0.0757614999999987
                },
                {
                    "name": "E3",
                    "midi": 52,
                    "time": 63.79118299999926,
                    "velocity": 0.2755905511811024,
                    "duration": 0.0757614999999987
                },
                {
                    "name": "D4",
                    "midi": 62,
                    "time": 63.79118299999926,
                    "velocity": 0.3228346456692913,
                    "duration": 0.0757614999999987
                },
                {
                    "name": "C#3",
                    "midi": 49,
                    "time": 63.942705999999255,
                    "velocity": 0.47244094488188976,
                    "duration": 0.07576150000000581
                },
                {
                    "name": "A#3",
                    "midi": 58,
                    "time": 64.09422899999926,
                    "velocity": 0.2992125984251969,
                    "duration": 0.0757614999999987
                },
                {
                    "name": "E4",
                    "midi": 64,
                    "time": 64.09422899999926,
                    "velocity": 0.36220472440944884,
                    "duration": 0.0757614999999987
                },
                {
                    "name": "D3",
                    "midi": 50,
                    "time": 64.24575199999926,
                    "velocity": 0.5039370078740157,
                    "duration": 0.6060919999999896
                },
                {
                    "name": "D4",
                    "midi": 62,
                    "time": 64.39727499999925,
                    "velocity": 0.36220472440944884,
                    "duration": 0.0757614999999987
                },
                {
                    "name": "A#3",
                    "midi": 58,
                    "time": 64.39727499999925,
                    "velocity": 0.2992125984251969,
                    "duration": 0.0757614999999987
                },
                {
                    "name": "F3",
                    "midi": 53,
                    "time": 64.54879799999925,
                    "velocity": 0.5354330708661418,
                    "duration": 0.0757614999999987
                },
                {
                    "name": "D4",
                    "midi": 62,
                    "time": 64.70032099999925,
                    "velocity": 0.3464566929133858,
                    "duration": 0.0757614999999987
                },
                {
                    "name": "A#3",
                    "midi": 58,
                    "time": 64.70032099999925,
                    "velocity": 0.29133858267716534,
                    "duration": 0.0757614999999987
                },
                {
                    "name": "D2",
                    "midi": 38,
                    "time": 64.85184399999925,
                    "velocity": 0.49606299212598426,
                    "duration": 0.07576150000001292
                },
                {
                    "name": "A#3",
                    "midi": 58,
                    "time": 65.00336699999926,
                    "velocity": 0.3543307086614173,
                    "duration": 0.0757614999999987
                },
                {
                    "name": "F3",
                    "midi": 53,
                    "time": 65.00336699999926,
                    "velocity": 0.29133858267716534,
                    "duration": 0.0757614999999987
                },
                {
                    "name": "E2",
                    "midi": 40,
                    "time": 65.15488999999926,
                    "velocity": 0.4881889763779528,
                    "duration": 0.07576150000001292
                },
                {
                    "name": "B3",
                    "midi": 59,
                    "time": 65.30641299999927,
                    "velocity": 0.3228346456692913,
                    "duration": 0.0757614999999987
                },
                {
                    "name": "E3",
                    "midi": 52,
                    "time": 65.30641299999927,
                    "velocity": 0.2755905511811024,
                    "duration": 0.0757614999999987
                },
                {
                    "name": "A2",
                    "midi": 45,
                    "time": 65.45793599999926,
                    "velocity": 0.4566929133858268,
                    "duration": 0.0757614999999987
                },
                {
                    "name": "A3",
                    "midi": 57,
                    "time": 65.60945899999926,
                    "velocity": 0.3228346456692913,
                    "duration": 0.0757614999999987
                },
                {
                    "name": "E3",
                    "midi": 52,
                    "time": 65.60945899999926,
                    "velocity": 0.2755905511811024,
                    "duration": 0.0757614999999987
                },
                {
                    "name": "D3",
                    "midi": 50,
                    "time": 65.76098199999926,
                    "velocity": 0.44881889763779526,
                    "duration": 0.0757614999999987
                },
                {
                    "name": "A3",
                    "midi": 57,
                    "time": 65.91250499999926,
                    "velocity": 0.3228346456692913,
                    "duration": 0.0757614999999987
                },
                {
                    "name": "F3",
                    "midi": 53,
                    "time": 65.91250499999926,
                    "velocity": 0.2755905511811024,
                    "duration": 0.0757614999999987
                },
                {
                    "name": "A2",
                    "midi": 45,
                    "time": 66.06402799999925,
                    "velocity": 0.4566929133858268,
                    "duration": 0.0757614999999987
                },
                {
                    "name": "A3",
                    "midi": 57,
                    "time": 66.21555099999925,
                    "velocity": 0.30708661417322836,
                    "duration": 0.0757614999999987
                },
                {
                    "name": "E3",
                    "midi": 52,
                    "time": 66.21555099999925,
                    "velocity": 0.25984251968503935,
                    "duration": 0.0757614999999987
                },
                {
                    "name": "D3",
                    "midi": 50,
                    "time": 66.36707399999925,
                    "velocity": 0.4330708661417323,
                    "duration": 0.0757614999999987
                },
                {
                    "name": "A3",
                    "midi": 57,
                    "time": 66.51859699999925,
                    "velocity": 0.28346456692913385,
                    "duration": 0.0757614999999987
                },
                {
                    "name": "F3",
                    "midi": 53,
                    "time": 66.51859699999925,
                    "velocity": 0.2283464566929134,
                    "duration": 0.0757614999999987
                },
                {
                    "name": "A2",
                    "midi": 45,
                    "time": 66.67011999999924,
                    "velocity": 0.4015748031496063,
                    "duration": 0.0757614999999987
                },
                {
                    "name": "A3",
                    "midi": 57,
                    "time": 66.82164299999924,
                    "velocity": 0.2204724409448819,
                    "duration": 0.0757614999999987
                },
                {
                    "name": "E3",
                    "midi": 52,
                    "time": 66.82164299999924,
                    "velocity": 0.18110236220472442,
                    "duration": 0.0757614999999987
                },
                {
                    "name": "C2",
                    "midi": 36,
                    "time": 66.97316599999924,
                    "velocity": 0.3543307086614173,
                    "duration": 0.0757614999999987
                },
                {
                    "name": "A3",
                    "midi": 57,
                    "time": 67.12468899999924,
                    "velocity": 0.2283464566929134,
                    "duration": 0.0757614999999987
                },
                {
                    "name": "E3",
                    "midi": 52,
                    "time": 67.12468899999924,
                    "velocity": 0.1889763779527559,
                    "duration": 0.0757614999999987
                },
                {
                    "name": "D2",
                    "midi": 38,
                    "time": 67.27621199999923,
                    "velocity": 0.33070866141732286,
                    "duration": 0.0757614999999987
                },
                {
                    "name": "A#3",
                    "midi": 58,
                    "time": 67.42773499999923,
                    "velocity": 0.2283464566929134,
                    "duration": 0.0757614999999987
                },
                {
                    "name": "F3",
                    "midi": 53,
                    "time": 67.42773499999923,
                    "velocity": 0.1889763779527559,
                    "duration": 0.0757614999999987
                },
                {
                    "name": "E2",
                    "midi": 40,
                    "time": 67.57925799999923,
                    "velocity": 0.3228346456692913,
                    "duration": 0.0757614999999987
                },
                {
                    "name": "B3",
                    "midi": 59,
                    "time": 67.73078099999923,
                    "velocity": 0.2283464566929134,
                    "duration": 0.0757614999999987
                },
                {
                    "name": "E3",
                    "midi": 52,
                    "time": 67.73078099999923,
                    "velocity": 0.1889763779527559,
                    "duration": 0.0757614999999987
                },
                {
                    "name": "A2",
                    "midi": 45,
                    "time": 67.88230399999922,
                    "velocity": 0.3464566929133858,
                    "duration": 0.0757614999999987
                },
                {
                    "name": "E3",
                    "midi": 52,
                    "time": 68.03382699999922,
                    "velocity": 0.1968503937007874,
                    "duration": 0.0757614999999987
                },
                {
                    "name": "A3",
                    "midi": 57,
                    "time": 68.03382699999922,
                    "velocity": 0.23622047244094488,
                    "duration": 0.0757614999999987
                },
                {
                    "name": "D3",
                    "midi": 50,
                    "time": 68.18534999999922,
                    "velocity": 0.3228346456692913,
                    "duration": 0.0757614999999987
                },
                {
                    "name": "A3",
                    "midi": 57,
                    "time": 68.33687299999922,
                    "velocity": 0.2204724409448819,
                    "duration": 0.0757614999999987
                },
                {
                    "name": "F3",
                    "midi": 53,
                    "time": 68.33687299999922,
                    "velocity": 0.18110236220472442,
                    "duration": 0.0757614999999987
                },
                {
                    "name": "A2",
                    "midi": 45,
                    "time": 68.48839599999921,
                    "velocity": 0.30708661417322836,
                    "duration": 0.0757614999999987
                },
                {
                    "name": "E3",
                    "midi": 52,
                    "time": 68.63991899999921,
                    "velocity": 0.1968503937007874,
                    "duration": 0.0757614999999987
                },
                {
                    "name": "A3",
                    "midi": 57,
                    "time": 68.63991899999921,
                    "velocity": 0.23622047244094488,
                    "duration": 0.0757614999999987
                },
                {
                    "name": "D3",
                    "midi": 50,
                    "time": 68.79144199999921,
                    "velocity": 0.2992125984251969,
                    "duration": 0.0757614999999987
                },
                {
                    "name": "F3",
                    "midi": 53,
                    "time": 68.9429649999992,
                    "velocity": 0.2125984251968504,
                    "duration": 0.0757614999999987
                },
                {
                    "name": "A3",
                    "midi": 57,
                    "time": 68.9429649999992,
                    "velocity": 0.25984251968503935,
                    "duration": 0.0757614999999987
                },
                {
                    "name": "A2",
                    "midi": 45,
                    "time": 69.0944879999992,
                    "velocity": 0.31496062992125984,
                    "duration": 0.0757614999999987
                },
                {
                    "name": "A3",
                    "midi": 57,
                    "time": 69.2460109999992,
                    "velocity": 0.2677165354330709,
                    "duration": 0.0757614999999987
                },
                {
                    "name": "E3",
                    "midi": 52,
                    "time": 69.2460109999992,
                    "velocity": 0.2204724409448819,
                    "duration": 0.0757614999999987
                },
                {
                    "name": "C3",
                    "midi": 48,
                    "time": 69.3975339999992,
                    "velocity": 0.5039370078740157,
                    "duration": 0.0757614999999987
                },
                {
                    "name": "C4",
                    "midi": 60,
                    "time": 69.5490569999992,
                    "velocity": 0.3779527559055118,
                    "duration": 0.0757614999999987
                },
                {
                    "name": "E3",
                    "midi": 52,
                    "time": 69.5490569999992,
                    "velocity": 0.30708661417322836,
                    "duration": 0.0757614999999987
                },
                {
                    "name": "B2",
                    "midi": 47,
                    "time": 69.70057999999919,
                    "velocity": 0.4881889763779528,
                    "duration": 0.0757614999999987
                },
                {
                    "name": "B3",
                    "midi": 59,
                    "time": 69.85210299999919,
                    "velocity": 0.30708661417322836,
                    "duration": 0.0757614999999987
                },
                {
                    "name": "F4",
                    "midi": 65,
                    "time": 69.85210299999919,
                    "velocity": 0.3779527559055118,
                    "duration": 0.0757614999999987
                },
                {
                    "name": "E3",
                    "midi": 52,
                    "time": 70.00362599999919,
                    "velocity": 0.4881889763779528,
                    "duration": 0.0757614999999987
                },
                {
                    "name": "B3",
                    "midi": 59,
                    "time": 70.15514899999918,
                    "velocity": 0.30708661417322836,
                    "duration": 0.0757614999999987
                },
                {
                    "name": "E4",
                    "midi": 64,
                    "time": 70.15514899999918,
                    "velocity": 0.3779527559055118,
                    "duration": 0.0757614999999987
                },
                {
                    "name": "A2",
                    "midi": 45,
                    "time": 70.30667199999918,
                    "velocity": 0.5433070866141733,
                    "duration": 0.0757614999999987
                },
                {
                    "name": "A3",
                    "midi": 57,
                    "time": 70.45819499999918,
                    "velocity": 0.30708661417322836,
                    "duration": 0.07576150000001292
                },
                {
                    "name": "E4",
                    "midi": 64,
                    "time": 70.45819499999918,
                    "velocity": 0.3779527559055118,
                    "duration": 0.07576150000001292
                },
                {
                    "name": "D3",
                    "midi": 50,
                    "time": 70.60971799999919,
                    "velocity": 0.4645669291338583,
                    "duration": 0.0757614999999987
                },
                {
                    "name": "A3",
                    "midi": 57,
                    "time": 70.76124099999919,
                    "velocity": 0.30708661417322836,
                    "duration": 0.0757614999999987
                },
                {
                    "name": "D4",
                    "midi": 62,
                    "time": 70.76124099999919,
                    "velocity": 0.3779527559055118,
                    "duration": 0.0757614999999987
                },
                {
                    "name": "D2",
                    "midi": 38,
                    "time": 70.91276399999919,
                    "velocity": 0.4645669291338583,
                    "duration": 0.0757614999999987
                },
                {
                    "name": "F3",
                    "midi": 53,
                    "time": 71.06428699999918,
                    "velocity": 0.25984251968503935,
                    "duration": 0.0757614999999987
                },
                {
                    "name": "A#3",
                    "midi": 58,
                    "time": 71.06428699999918,
                    "velocity": 0.31496062992125984,
                    "duration": 0.0757614999999987
                },
                {
                    "name": "E2",
                    "midi": 40,
                    "time": 71.21580999999918,
                    "velocity": 0.3228346456692913,
                    "duration": 0.0757614999999987
                },
                {
                    "name": "B3",
                    "midi": 59,
                    "time": 71.36733299999918,
                    "velocity": 0.2283464566929134,
                    "duration": 0.0757614999999987
                },
                {
                    "name": "E3",
                    "midi": 52,
                    "time": 71.36733299999918,
                    "velocity": 0.1889763779527559,
                    "duration": 0.0757614999999987
                },
                {
                    "name": "A2",
                    "midi": 45,
                    "time": 71.51885599999918,
                    "velocity": 0.3464566929133858,
                    "duration": 0.0757614999999987
                },
                {
                    "name": "E3",
                    "midi": 52,
                    "time": 71.67037899999917,
                    "velocity": 0.1968503937007874,
                    "duration": 0.0757614999999987
                },
                {
                    "name": "A3",
                    "midi": 57,
                    "time": 71.67037899999917,
                    "velocity": 0.23622047244094488,
                    "duration": 0.0757614999999987
                },
                {
                    "name": "D3",
                    "midi": 50,
                    "time": 71.82190199999917,
                    "velocity": 0.3228346456692913,
                    "duration": 0.0757614999999987
                },
                {
                    "name": "A3",
                    "midi": 57,
                    "time": 71.97342499999917,
                    "velocity": 0.23622047244094488,
                    "duration": 0.0757614999999987
                },
                {
                    "name": "F3",
                    "midi": 53,
                    "time": 71.97342499999917,
                    "velocity": 0.1968503937007874,
                    "duration": 0.0757614999999987
                },
                {
                    "name": "D2",
                    "midi": 38,
                    "time": 72.12494799999916,
                    "velocity": 0.30708661417322836,
                    "duration": 0.0757614999999987
                },
                {
                    "name": "F3",
                    "midi": 53,
                    "time": 72.27647099999916,
                    "velocity": 0.1968503937007874,
                    "duration": 0.0757614999999987
                },
                {
                    "name": "A#3",
                    "midi": 58,
                    "time": 72.27647099999916,
                    "velocity": 0.23622047244094488,
                    "duration": 0.0757614999999987
                },
                {
                    "name": "E2",
                    "midi": 40,
                    "time": 72.42799399999916,
                    "velocity": 0.2992125984251969,
                    "duration": 0.0757614999999987
                },
                {
                    "name": "E3",
                    "midi": 52,
                    "time": 72.57951699999916,
                    "velocity": 0.1889763779527559,
                    "duration": 0.0757614999999987
                },
                {
                    "name": "B3",
                    "midi": 59,
                    "time": 72.57951699999916,
                    "velocity": 0.2204724409448819,
                    "duration": 0.0757614999999987
                },
                {
                    "name": "F2",
                    "midi": 41,
                    "time": 72.73103999999915,
                    "velocity": 0.28346456692913385,
                    "duration": 0.0757614999999987
                },
                {
                    "name": "A3",
                    "midi": 57,
                    "time": 72.88256299999915,
                    "velocity": 0.2283464566929134,
                    "duration": 0.0757614999999987
                },
                {
                    "name": "F3",
                    "midi": 53,
                    "time": 72.88256299999915,
                    "velocity": 0.1968503937007874,
                    "duration": 0.0757614999999987
                },
                {
                    "name": "C2",
                    "midi": 36,
                    "time": 73.03408599999915,
                    "velocity": 0.4330708661417323,
                    "duration": 0.0757614999999987
                },
                {
                    "name": "A3",
                    "midi": 57,
                    "time": 73.18560899999915,
                    "velocity": 0.2992125984251969,
                    "duration": 0.0757614999999987
                },
                {
                    "name": "C3",
                    "midi": 48,
                    "time": 73.18560899999915,
                    "velocity": 0.23622047244094488,
                    "duration": 0.0757614999999987
                },
                {
                    "name": "D2",
                    "midi": 38,
                    "time": 73.33713199999914,
                    "velocity": 0.4330708661417323,
                    "duration": 0.0757614999999987
                },
                {
                    "name": "D3",
                    "midi": 50,
                    "time": 73.48865499999914,
                    "velocity": 0.23622047244094488,
                    "duration": 0.0757614999999987
                },
                {
                    "name": "A#3",
                    "midi": 58,
                    "time": 73.48865499999914,
                    "velocity": 0.2992125984251969,
                    "duration": 0.0757614999999987
                },
                {
                    "name": "E2",
                    "midi": 40,
                    "time": 73.64017799999914,
                    "velocity": 0.4330708661417323,
                    "duration": 0.0757614999999987
                },
                {
                    "name": "E3",
                    "midi": 52,
                    "time": 73.79170099999914,
                    "velocity": 0.23622047244094488,
                    "duration": 0.0757614999999987
                },
                {
                    "name": "B3",
                    "midi": 59,
                    "time": 73.79170099999914,
                    "velocity": 0.2992125984251969,
                    "duration": 0.0757614999999987
                },
                {
                    "name": "A2",
                    "midi": 45,
                    "time": 73.94322399999913,
                    "velocity": 0.3228346456692913,
                    "duration": 0.0757614999999987
                },
                {
                    "name": "E3",
                    "midi": 52,
                    "time": 74.09474699999913,
                    "velocity": 0.18110236220472442,
                    "duration": 0.0757614999999987
                },
                {
                    "name": "A3",
                    "midi": 57,
                    "time": 74.09474699999913,
                    "velocity": 0.2204724409448819,
                    "duration": 0.0757614999999987
                },
                {
                    "name": "D3",
                    "midi": 50,
                    "time": 74.24626999999913,
                    "velocity": 0.30708661417322836,
                    "duration": 0.0757614999999987
                },
                {
                    "name": "A3",
                    "midi": 57,
                    "time": 74.39779299999913,
                    "velocity": 0.2204724409448819,
                    "duration": 0.0757614999999987
                },
                {
                    "name": "F3",
                    "midi": 53,
                    "time": 74.39779299999913,
                    "velocity": 0.18110236220472442,
                    "duration": 0.0757614999999987
                },
                {
                    "name": "A2",
                    "midi": 45,
                    "time": 74.54931599999912,
                    "velocity": 0.2992125984251969,
                    "duration": 0.0757614999999987
                },
                {
                    "name": "E3",
                    "midi": 52,
                    "time": 74.70083899999912,
                    "velocity": 0.1889763779527559,
                    "duration": 0.0757614999999987
                },
                {
                    "name": "A3",
                    "midi": 57,
                    "time": 74.70083899999912,
                    "velocity": 0.2283464566929134,
                    "duration": 0.0757614999999987
                },
                {
                    "name": "D3",
                    "midi": 50,
                    "time": 74.85236199999912,
                    "velocity": 0.28346456692913385,
                    "duration": 0.0757614999999987
                },
                {
                    "name": "F3",
                    "midi": 53,
                    "time": 75.00388499999912,
                    "velocity": 0.2047244094488189,
                    "duration": 0.0757614999999987
                },
                {
                    "name": "A3",
                    "midi": 57,
                    "time": 75.00388499999912,
                    "velocity": 0.23622047244094488,
                    "duration": 0.0757614999999987
                },
                {
                    "name": "A2",
                    "midi": 45,
                    "time": 75.15540799999911,
                    "velocity": 0.30708661417322836,
                    "duration": 0.0757614999999987
                },
                {
                    "name": "E3",
                    "midi": 52,
                    "time": 75.30693099999911,
                    "velocity": 0.15748031496062992,
                    "duration": 0.0757614999999987
                },
                {
                    "name": "A3",
                    "midi": 57,
                    "time": 75.30693099999911,
                    "velocity": 0.2047244094488189,
                    "duration": 0.0757614999999987
                },
                {
                    "name": "D3",
                    "midi": 50,
                    "time": 75.45845399999911,
                    "velocity": 0.28346456692913385,
                    "duration": 0.0757614999999987
                },
                {
                    "name": "A3",
                    "midi": 57,
                    "time": 75.6099769999991,
                    "velocity": 0.1968503937007874,
                    "duration": 0.0757614999999987
                },
                {
                    "name": "F3",
                    "midi": 53,
                    "time": 75.6099769999991,
                    "velocity": 0.15748031496062992,
                    "duration": 0.0757614999999987
                },
                {
                    "name": "A2",
                    "midi": 45,
                    "time": 75.7614999999991,
                    "velocity": 0.2755905511811024,
                    "duration": 0.0757614999999987
                },
                {
                    "name": "E3",
                    "midi": 52,
                    "time": 75.9130229999991,
                    "velocity": 0.1732283464566929,
                    "duration": 0.0757614999999987
                },
                {
                    "name": "A3",
                    "midi": 57,
                    "time": 75.9130229999991,
                    "velocity": 0.2047244094488189,
                    "duration": 0.0757614999999987
                },
                {
                    "name": "A2",
                    "midi": 45,
                    "time": 76.0645459999991,
                    "velocity": 0.25984251968503935,
                    "duration": 0.1515229999999974
                },
                {
                    "name": "D3",
                    "midi": 50,
                    "time": 76.2160689999991,
                    "velocity": 0.18110236220472442,
                    "duration": 0.1515229999999974
                },
                {
                    "name": "A#3",
                    "midi": 58,
                    "time": 76.2160689999991,
                    "velocity": 0.2204724409448819,
                    "duration": 0.1515229999999974
                },
                {
                    "name": "A2",
                    "midi": 45,
                    "time": 76.36759199999909,
                    "velocity": 0.2125984251968504,
                    "duration": 2.424367999999987
                },
                {
                    "name": "D3",
                    "midi": 50,
                    "time": 76.44335349999909,
                    "velocity": 0.2125984251968504,
                    "duration": 1.1364224999999948
                },
                {
                    "name": "F3",
                    "midi": 53,
                    "time": 76.51911499999909,
                    "velocity": 0.25984251968503935,
                    "duration": 2.2728449999999896
                },
                {
                    "name": "A#3",
                    "midi": 58,
                    "time": 76.59487649999909,
                    "velocity": 0.25984251968503935,
                    "duration": 0.9848994999999974
                },
                {
                    "name": "A2",
                    "midi": 45,
                    "time": 78.79195999999908,
                    "velocity": 0.2125984251968504,
                    "duration": 1.2121840000000077
                },
                {
                    "name": "E3",
                    "midi": 52,
                    "time": 78.86772149999908,
                    "velocity": 0.2125984251968504,
                    "duration": 1.136422500000009
                },
                {
                    "name": "A3",
                    "midi": 57,
                    "time": 78.94348299999909,
                    "velocity": 0.25984251968503935,
                    "duration": 1.060660999999996
                }
            ],
            "controlChanges": {
                "7": [
                    {
                        "number": 7,
                        "time": 0,
                        "value": 0.7874015748031497
                    }
                ],
                "10": [
                    {
                        "number": 10,
                        "time": 0,
                        "value": 0.5039370078740157
                    }
                ],
                "64": [
                    {
                        "number": 64,
                        "time": 0,
                        "value": 0
                    },
                    {
                        "number": 64,
                        "time": 23.060537908333245,
                        "value": 1
                    },
                    {
                        "number": 64,
                        "time": 23.49237845833324,
                        "value": 0
                    },
                    {
                        "number": 64,
                        "time": 23.536572666666572,
                        "value": 1
                    },
                    {
                        "number": 64,
                        "time": 23.798581187499902,
                        "value": 0
                    },
                    {
                        "number": 64,
                        "time": 25.455863999999874,
                        "value": 1
                    },
                    {
                        "number": 64,
                        "time": 25.9167464583332,
                        "value": 0
                    },
                    {
                        "number": 64,
                        "time": 25.960940666666534,
                        "value": 1
                    },
                    {
                        "number": 64,
                        "time": 26.21852976666653,
                        "value": 0
                    },
                    {
                        "number": 64,
                        "time": 31.24972471249978,
                        "value": 1
                    },
                    {
                        "number": 64,
                        "time": 31.675251804166443,
                        "value": 0
                    },
                    {
                        "number": 64,
                        "time": 37.729226999999675,
                        "value": 1
                    },
                    {
                        "number": 64,
                        "time": 38.03606107499967,
                        "value": 0
                    },
                    {
                        "number": 64,
                        "time": 38.07899259166634,
                        "value": 1
                    },
                    {
                        "number": 64,
                        "time": 38.34605187916634,
                        "value": 0
                    },
                    {
                        "number": 64,
                        "time": 38.404135695833006,
                        "value": 1
                    },
                    {
                        "number": 64,
                        "time": 38.64720384166633,
                        "value": 0
                    },
                    {
                        "number": 64,
                        "time": 38.728647454166335,
                        "value": 1
                    },
                    {
                        "number": 64,
                        "time": 38.94141099999967,
                        "value": 0
                    },
                    {
                        "number": 64,
                        "time": 38.98623655416633,
                        "value": 1
                    },
                    {
                        "number": 64,
                        "time": 39.24445699999966,
                        "value": 0
                    },
                    {
                        "number": 64,
                        "time": 40.03427063749965,
                        "value": 1
                    },
                    {
                        "number": 64,
                        "time": 40.15738307499966,
                        "value": 0
                    },
                    {
                        "number": 64,
                        "time": 40.21104747083299,
                        "value": 1
                    },
                    {
                        "number": 64,
                        "time": 40.46737387916632,
                        "value": 0
                    },
                    {
                        "number": 64,
                        "time": 40.52545769583298,
                        "value": 1
                    },
                    {
                        "number": 64,
                        "time": 40.766000458332975,
                        "value": 0
                    },
                    {
                        "number": 64,
                        "time": 40.82850369583298,
                        "value": 1
                    },
                    {
                        "number": 64,
                        "time": 41.07599126249964,
                        "value": 0
                    },
                    {
                        "number": 64,
                        "time": 41.123973545832975,
                        "value": 1
                    },
                    {
                        "number": 64,
                        "time": 41.214255999999644,
                        "value": 0
                    },
                    {
                        "number": 64,
                        "time": 41.27233981666631,
                        "value": 1
                    },
                    {
                        "number": 64,
                        "time": 41.678295187499636,
                        "value": 0
                    },
                    {
                        "number": 64,
                        "time": 41.719332666666304,
                        "value": 1
                    },
                    {
                        "number": 64,
                        "time": 41.976921766666294,
                        "value": 0
                    },
                    {
                        "number": 64,
                        "time": 42.03311154583296,
                        "value": 1
                    },
                    {
                        "number": 64,
                        "time": 42.282493149999624,
                        "value": 0
                    },
                    {
                        "number": 64,
                        "time": 46.98286287916621,
                        "value": 1
                    },
                    {
                        "number": 64,
                        "time": 47.27517599999954,
                        "value": 0
                    },
                    {
                        "number": 64,
                        "time": 56.687911029166045,
                        "value": 1
                    },
                    {
                        "number": 64,
                        "time": 56.997901833332705,
                        "value": 0
                    },
                    {
                        "number": 64,
                        "time": 63.96101502916592,
                        "value": 1
                    },
                    {
                        "number": 64,
                        "time": 64.25017142083259,
                        "value": 0
                    },
                    {
                        "number": 64,
                        "time": 64.88088590833259,
                        "value": 1
                    },
                    {
                        "number": 64,
                        "time": 65.16372884166593,
                        "value": 0
                    },
                    {
                        "number": 64,
                        "time": 65.22433804166593,
                        "value": 1
                    },
                    {
                        "number": 64,
                        "time": 65.46172407499927,
                        "value": 0
                    },
                    {
                        "number": 64,
                        "time": 69.85210299999919,
                        "value": 0
                    },
                    {
                        "number": 64,
                        "time": 69.92786449999919,
                        "value": 1
                    },
                    {
                        "number": 64,
                        "time": 70.15956842083251,
                        "value": 0
                    },
                    {
                        "number": 64,
                        "time": 70.23091049999918,
                        "value": 1
                    },
                    {
                        "number": 64,
                        "time": 70.46450845833252,
                        "value": 0
                    },
                    {
                        "number": 64,
                        "time": 70.51249074166586,
                        "value": 1
                    },
                    {
                        "number": 64,
                        "time": 70.76629176666586,
                        "value": 0
                    },
                    {
                        "number": 64,
                        "time": 70.79343963749919,
                        "value": 1
                    },
                    {
                        "number": 64,
                        "time": 71.07501987916585,
                        "value": 0
                    },
                    {
                        "number": 64,
                        "time": 71.14004849999918,
                        "value": 1
                    },
                    {
                        "number": 64,
                        "time": 71.3679643458325,
                        "value": 0
                    },
                    {
                        "number": 64,
                        "time": 71.42541681666584,
                        "value": 1
                    },
                    {
                        "number": 64,
                        "time": 71.51885599999918,
                        "value": 0
                    },
                    {
                        "number": 64,
                        "time": 72.61550371249916,
                        "value": 1
                    },
                    {
                        "number": 64,
                        "time": 72.88950780416582,
                        "value": 0
                    },
                    {
                        "number": 64,
                        "time": 72.94380354583248,
                        "value": 1
                    },
                    {
                        "number": 64,
                        "time": 73.19255380416581,
                        "value": 0
                    },
                    {
                        "number": 64,
                        "time": 73.23990474166581,
                        "value": 1
                    },
                    {
                        "number": 64,
                        "time": 73.4955998041658,
                        "value": 0
                    },
                    {
                        "number": 64,
                        "time": 73.5391626666658,
                        "value": 1
                    },
                    {
                        "number": 64,
                        "time": 73.79170099999914,
                        "value": 0
                    },
                    {
                        "number": 64,
                        "time": 76.09611329166576,
                        "value": 1
                    },
                    {
                        "number": 64,
                        "time": 78.79195999999908,
                        "value": 0
                    },
                    {
                        "number": 64,
                        "time": 78.88603052916575,
                        "value": 1
                    },
                    {
                        "number": 64,
                        "time": 80.94674332916576,
                        "value": 0
                    }
                ]
            },
            "id": 2,
            "name": "Piano left",
            "instrumentNumber": 0,
            "instrument": "acoustic grand piano",
            "instrumentFamily": "piano",
            "channelNumber": 0,
            "isPercussion": false
        },
        {
            "startTime": 0,
            "duration": 0,
            "length": 0,
            "notes": [],
            "controlChanges": {},
            "id": 3,
            "name": "Chopin: Etude No. 4 in A Minor Op. 25"
        },
        {
            "startTime": 0,
            "duration": 0,
            "length": 0,
            "notes": [],
            "controlChanges": {},
            "id": 4,
            "name": "Copyright  2003 by Bernd Krueger"
        },
        {
            "startTime": 0,
            "duration": 0,
            "length": 0,
            "notes": [],
            "controlChanges": {},
            "id": 5,
            "name": "http://www.piano-midi.de"
        },
        {
            "startTime": 0,
            "duration": 0,
            "length": 0,
            "notes": [],
            "controlChanges": {},
            "id": 6,
            "name": "Edition: 2014-02-17"
        },
        {
            "startTime": 0,
            "duration": 0,
            "length": 0,
            "notes": [],
            "controlChanges": {},
            "id": 7,
            "name": "Spur 7"
        }
    ]
}