{
    "header": {
        "PPQ": 480,
        "timeSignature": [
            3,
            4
        ],
        "bpm": 101.45005951736825,
        "name": "Chopin Prelude No. 7"
    },
    "startTime": 0,
    "duration": 29.571199999999997,
    "tracks": [
        {
            "startTime": 0,
            "duration": 0,
            "length": 0,
            "notes": [],
            "controlChanges": {},
            "id": 0,
            "name": "Chopin Prelude No. 7"
        },
        {
            "startTime": 1.1828480000000001,
            "duration": 29.571199999999997,
            "length": 101,
            "notes": [
                {
                    "name": "E4",
                    "midi": 64,
                    "time": 1.1828480000000001,
                    "velocity": 0.4094488188976378,
                    "duration": 0.5914240000000002
                },
                {
                    "name": "C#5",
                    "midi": 73,
                    "time": 1.7742720000000003,
                    "velocity": 0.4566929133858268,
                    "duration": 0.45588933333333337
                },
                {
                    "name": "D5",
                    "midi": 74,
                    "time": 2.2178400000000003,
                    "velocity": 0.33858267716535434,
                    "duration": 0.147856
                },
                {
                    "name": "D4",
                    "midi": 62,
                    "time": 2.3656960000000002,
                    "velocity": 0.25196850393700787,
                    "duration": 0.591424
                },
                {
                    "name": "G#4",
                    "midi": 68,
                    "time": 2.3656960000000002,
                    "velocity": 0.25196850393700787,
                    "duration": 0.591424
                },
                {
                    "name": "B4",
                    "midi": 71,
                    "time": 2.3656960000000002,
                    "velocity": 0.2992125984251969,
                    "duration": 0.591424
                },
                {
                    "name": "D4",
                    "midi": 62,
                    "time": 2.95712,
                    "velocity": 0.1732283464566929,
                    "duration": 0.591424
                },
                {
                    "name": "G#4",
                    "midi": 68,
                    "time": 2.95712,
                    "velocity": 0.1732283464566929,
                    "duration": 0.591424
                },
                {
                    "name": "B4",
                    "midi": 71,
                    "time": 2.95712,
                    "velocity": 0.2125984251968504,
                    "duration": 0.591424
                },
                {
                    "name": "D4",
                    "midi": 62,
                    "time": 3.548544,
                    "velocity": 0.14173228346456693,
                    "duration": 1.1582053333333335
                },
                {
                    "name": "G#4",
                    "midi": 68,
                    "time": 3.548544,
                    "velocity": 0.14173228346456693,
                    "duration": 1.1582053333333335
                },
                {
                    "name": "B4",
                    "midi": 71,
                    "time": 3.548544,
                    "velocity": 0.16535433070866143,
                    "duration": 1.1582053333333335
                },
                {
                    "name": "D5",
                    "midi": 74,
                    "time": 4.7313920000000005,
                    "velocity": 0.3543307086614173,
                    "duration": 0.591424
                },
                {
                    "name": "F#5",
                    "midi": 78,
                    "time": 4.7313920000000005,
                    "velocity": 0.3543307086614173,
                    "duration": 0.591424
                },
                {
                    "name": "C5",
                    "midi": 72,
                    "time": 5.322816,
                    "velocity": 0.3464566929133858,
                    "duration": 0.45588933333333337
                },
                {
                    "name": "D#5",
                    "midi": 75,
                    "time": 5.322816,
                    "velocity": 0.4094488188976378,
                    "duration": 0.45588933333333337
                },
                {
                    "name": "C#5",
                    "midi": 73,
                    "time": 5.766384,
                    "velocity": 0.33858267716535434,
                    "duration": 0.147856
                },
                {
                    "name": "E5",
                    "midi": 76,
                    "time": 5.766384,
                    "velocity": 0.4015748031496063,
                    "duration": 0.147856
                },
                {
                    "name": "C#5",
                    "midi": 73,
                    "time": 5.91424,
                    "velocity": 0.2047244094488189,
                    "duration": 0.591424
                },
                {
                    "name": "A5",
                    "midi": 81,
                    "time": 5.91424,
                    "velocity": 0.3464566929133858,
                    "duration": 0.591424
                },
                {
                    "name": "A5",
                    "midi": 81,
                    "time": 6.505664,
                    "velocity": 0.2440944881889764,
                    "duration": 0.591424
                },
                {
                    "name": "C#5",
                    "midi": 73,
                    "time": 6.505664,
                    "velocity": 0.2047244094488189,
                    "duration": 0.591424
                },
                {
                    "name": "A5",
                    "midi": 81,
                    "time": 7.097088,
                    "velocity": 0.2440944881889764,
                    "duration": 1.158205333333334
                },
                {
                    "name": "C#5",
                    "midi": 73,
                    "time": 7.097088,
                    "velocity": 0.2047244094488189,
                    "duration": 1.158205333333334
                },
                {
                    "name": "C#5",
                    "midi": 73,
                    "time": 8.279936000000001,
                    "velocity": 0.3779527559055118,
                    "duration": 0.591424
                },
                {
                    "name": "E4",
                    "midi": 64,
                    "time": 8.279936000000001,
                    "velocity": 0.31496062992125984,
                    "duration": 0.591424
                },
                {
                    "name": "C#4",
                    "midi": 61,
                    "time": 8.871360000000001,
                    "velocity": 0.31496062992125984,
                    "duration": 0.45588933333333337
                },
                {
                    "name": "A#4",
                    "midi": 70,
                    "time": 8.871360000000001,
                    "velocity": 0.3779527559055118,
                    "duration": 0.45588933333333337
                },
                {
                    "name": "D4",
                    "midi": 62,
                    "time": 9.314928000000002,
                    "velocity": 0.25196850393700787,
                    "duration": 2.513551999999999
                },
                {
                    "name": "B4",
                    "midi": 71,
                    "time": 9.314928000000002,
                    "velocity": 0.2992125984251969,
                    "duration": 0.1478559999999991
                },
                {
                    "name": "D5",
                    "midi": 74,
                    "time": 9.462784000000001,
                    "velocity": 0.33070866141732286,
                    "duration": 0.591424
                },
                {
                    "name": "F#4",
                    "midi": 66,
                    "time": 9.462784000000001,
                    "velocity": 0.2755905511811024,
                    "duration": 0.591424
                },
                {
                    "name": "D5",
                    "midi": 74,
                    "time": 10.054208000000001,
                    "velocity": 0.25196850393700787,
                    "duration": 0.591424
                },
                {
                    "name": "F#4",
                    "midi": 66,
                    "time": 10.054208000000001,
                    "velocity": 0.2125984251968504,
                    "duration": 0.591424
                },
                {
                    "name": "D5",
                    "midi": 74,
                    "time": 10.645632,
                    "velocity": 0.2125984251968504,
                    "duration": 1.158205333333333
                },
                {
                    "name": "F#4",
                    "midi": 66,
                    "time": 10.645632,
                    "velocity": 0.18110236220472442,
                    "duration": 1.158205333333333
                },
                {
                    "name": "D4",
                    "midi": 62,
                    "time": 11.82848,
                    "velocity": 0.2440944881889764,
                    "duration": 0.591424
                },
                {
                    "name": "G#4",
                    "midi": 68,
                    "time": 11.82848,
                    "velocity": 0.29133858267716534,
                    "duration": 0.591424
                },
                {
                    "name": "D4",
                    "midi": 62,
                    "time": 12.419904,
                    "velocity": 0.25984251968503935,
                    "duration": 0.45588933333333337
                },
                {
                    "name": "G#4",
                    "midi": 68,
                    "time": 12.419904,
                    "velocity": 0.30708661417322836,
                    "duration": 0.45588933333333337
                },
                {
                    "name": "C#4",
                    "midi": 61,
                    "time": 12.863472000000002,
                    "velocity": 0.2440944881889764,
                    "duration": 0.1478559999999991
                },
                {
                    "name": "A4",
                    "midi": 69,
                    "time": 12.863472000000002,
                    "velocity": 0.29133858267716534,
                    "duration": 0.1478559999999991
                },
                {
                    "name": "C#4",
                    "midi": 61,
                    "time": 13.011328,
                    "velocity": 0.14173228346456693,
                    "duration": 0.591424
                },
                {
                    "name": "C#5",
                    "midi": 73,
                    "time": 13.011328,
                    "velocity": 0.25984251968503935,
                    "duration": 0.591424
                },
                {
                    "name": "C#5",
                    "midi": 73,
                    "time": 13.602752,
                    "velocity": 0.1732283464566929,
                    "duration": 0.591424
                },
                {
                    "name": "C#4",
                    "midi": 61,
                    "time": 13.602752,
                    "velocity": 0.14173228346456693,
                    "duration": 0.591424
                },
                {
                    "name": "C#4",
                    "midi": 61,
                    "time": 14.194176,
                    "velocity": 0.11811023622047244,
                    "duration": 1.158205333333333
                },
                {
                    "name": "C#5",
                    "midi": 73,
                    "time": 14.194176,
                    "velocity": 0.14173228346456693,
                    "duration": 1.158205333333333
                },
                {
                    "name": "E4",
                    "midi": 64,
                    "time": 15.377024,
                    "velocity": 0.47244094488188976,
                    "duration": 1.1828480000000017
                },
                {
                    "name": "C#5",
                    "midi": 73,
                    "time": 15.968448,
                    "velocity": 0.44881889763779526,
                    "duration": 0.45588933333333337
                },
                {
                    "name": "G#4",
                    "midi": 68,
                    "time": 15.968448,
                    "velocity": 0.3779527559055118,
                    "duration": 0.5914240000000017
                },
                {
                    "name": "D5",
                    "midi": 74,
                    "time": 16.412016,
                    "velocity": 0.44881889763779526,
                    "duration": 0.14785600000000088
                },
                {
                    "name": "G#4",
                    "midi": 68,
                    "time": 16.559872000000002,
                    "velocity": 0.3228346456692913,
                    "duration": 0.591424
                },
                {
                    "name": "D4",
                    "midi": 62,
                    "time": 16.559872000000002,
                    "velocity": 0.3228346456692913,
                    "duration": 0.591424
                },
                {
                    "name": "B4",
                    "midi": 71,
                    "time": 16.559872000000002,
                    "velocity": 0.3858267716535433,
                    "duration": 0.591424
                },
                {
                    "name": "D4",
                    "midi": 62,
                    "time": 17.151296000000002,
                    "velocity": 0.2440944881889764,
                    "duration": 0.591424
                },
                {
                    "name": "G#4",
                    "midi": 68,
                    "time": 17.151296000000002,
                    "velocity": 0.2440944881889764,
                    "duration": 0.591424
                },
                {
                    "name": "B4",
                    "midi": 71,
                    "time": 17.151296000000002,
                    "velocity": 0.29133858267716534,
                    "duration": 0.591424
                },
                {
                    "name": "D4",
                    "midi": 62,
                    "time": 17.742720000000002,
                    "velocity": 0.2125984251968504,
                    "duration": 1.1582053333333349
                },
                {
                    "name": "G#4",
                    "midi": 68,
                    "time": 17.742720000000002,
                    "velocity": 0.2125984251968504,
                    "duration": 1.1582053333333349
                },
                {
                    "name": "B4",
                    "midi": 71,
                    "time": 17.742720000000002,
                    "velocity": 0.25196850393700787,
                    "duration": 1.1582053333333349
                },
                {
                    "name": "D5",
                    "midi": 74,
                    "time": 18.925568000000002,
                    "velocity": 0.3779527559055118,
                    "duration": 0.591424
                },
                {
                    "name": "F#5",
                    "midi": 78,
                    "time": 18.925568000000002,
                    "velocity": 0.44881889763779526,
                    "duration": 0.591424
                },
                {
                    "name": "C5",
                    "midi": 72,
                    "time": 19.516992000000002,
                    "velocity": 0.4251968503937008,
                    "duration": 0.4558893333333316
                },
                {
                    "name": "D#5",
                    "midi": 75,
                    "time": 19.516992000000002,
                    "velocity": 0.5039370078740157,
                    "duration": 0.4558893333333316
                },
                {
                    "name": "C#5",
                    "midi": 73,
                    "time": 19.96056,
                    "velocity": 0.3779527559055118,
                    "duration": 1.3307040000000008
                },
                {
                    "name": "E5",
                    "midi": 76,
                    "time": 19.96056,
                    "velocity": 0.44881889763779526,
                    "duration": 1.3307040000000008
                },
                {
                    "name": "C#6",
                    "midi": 85,
                    "time": 20.108416000000002,
                    "velocity": 0.5039370078740157,
                    "duration": 0.591424
                },
                {
                    "name": "A5",
                    "midi": 81,
                    "time": 20.108416000000002,
                    "velocity": 0.4251968503937008,
                    "duration": 0.591424
                },
                {
                    "name": "C#6",
                    "midi": 85,
                    "time": 20.699840000000002,
                    "velocity": 0.5354330708661418,
                    "duration": 0.591424
                },
                {
                    "name": "A5",
                    "midi": 81,
                    "time": 20.699840000000002,
                    "velocity": 0.44881889763779526,
                    "duration": 0.591424
                },
                {
                    "name": "C#5",
                    "midi": 73,
                    "time": 21.291264,
                    "velocity": 0.3464566929133858,
                    "duration": 1.1582053333333349
                },
                {
                    "name": "A#5",
                    "midi": 82,
                    "time": 21.291264,
                    "velocity": 0.3464566929133858,
                    "duration": 1.1582053333333349
                },
                {
                    "name": "E5",
                    "midi": 76,
                    "time": 21.291264,
                    "velocity": 0.3464566929133858,
                    "duration": 1.1582053333333349
                },
                {
                    "name": "C#6",
                    "midi": 85,
                    "time": 21.291264,
                    "velocity": 0.4094488188976378,
                    "duration": 1.1582053333333349
                },
                {
                    "name": "A#4",
                    "midi": 70,
                    "time": 21.291264,
                    "velocity": 0.3464566929133858,
                    "duration": 1.1582053333333349
                },
                {
                    "name": "C#5",
                    "midi": 73,
                    "time": 22.474112,
                    "velocity": 0.3543307086614173,
                    "duration": 0.591424
                },
                {
                    "name": "A#4",
                    "midi": 70,
                    "time": 22.474112,
                    "velocity": 0.2992125984251969,
                    "duration": 0.591424
                },
                {
                    "name": "A#4",
                    "midi": 70,
                    "time": 23.065536,
                    "velocity": 0.31496062992125984,
                    "duration": 0.4558893333333316
                },
                {
                    "name": "C#5",
                    "midi": 73,
                    "time": 23.065536,
                    "velocity": 0.3779527559055118,
                    "duration": 0.4558893333333316
                },
                {
                    "name": "B4",
                    "midi": 71,
                    "time": 23.509104,
                    "velocity": 0.2677165354330709,
                    "duration": 0.14785600000000088
                },
                {
                    "name": "D5",
                    "midi": 74,
                    "time": 23.509104,
                    "velocity": 0.31496062992125984,
                    "duration": 0.14785600000000088
                },
                {
                    "name": "B4",
                    "midi": 71,
                    "time": 23.65696,
                    "velocity": 0.2204724409448819,
                    "duration": 0.591424
                },
                {
                    "name": "F#5",
                    "midi": 78,
                    "time": 23.65696,
                    "velocity": 0.29133858267716534,
                    "duration": 0.591424
                },
                {
                    "name": "A4",
                    "midi": 69,
                    "time": 24.248384,
                    "velocity": 0.2204724409448819,
                    "duration": 0.591424
                },
                {
                    "name": "F#5",
                    "midi": 78,
                    "time": 24.248384,
                    "velocity": 0.25984251968503935,
                    "duration": 0.591424
                },
                {
                    "name": "G#4",
                    "midi": 68,
                    "time": 24.839808,
                    "velocity": 0.18110236220472442,
                    "duration": 1.1582053333333349
                },
                {
                    "name": "F#5",
                    "midi": 78,
                    "time": 24.839808,
                    "velocity": 0.2204724409448819,
                    "duration": 1.1582053333333349
                },
                {
                    "name": "D4",
                    "midi": 62,
                    "time": 26.022656,
                    "velocity": 0.25984251968503935,
                    "duration": 0.591424
                },
                {
                    "name": "G#4",
                    "midi": 68,
                    "time": 26.022656,
                    "velocity": 0.30708661417322836,
                    "duration": 0.591424
                },
                {
                    "name": "D4",
                    "midi": 62,
                    "time": 26.61408,
                    "velocity": 0.28346456692913385,
                    "duration": 0.4558893333333316
                },
                {
                    "name": "B4",
                    "midi": 71,
                    "time": 26.61408,
                    "velocity": 0.33858267716535434,
                    "duration": 0.4558893333333316
                },
                {
                    "name": "C#4",
                    "midi": 61,
                    "time": 27.057648,
                    "velocity": 0.2440944881889764,
                    "duration": 0.12321333333333229
                },
                {
                    "name": "A4",
                    "midi": 69,
                    "time": 27.057648,
                    "velocity": 0.29133858267716534,
                    "duration": 0.12321333333333229
                },
                {
                    "name": "A4",
                    "midi": 69,
                    "time": 27.205503999999998,
                    "velocity": 0.33858267716535434,
                    "duration": 2.365696
                },
                {
                    "name": "C#5",
                    "midi": 73,
                    "time": 27.35336,
                    "velocity": 0.2125984251968504,
                    "duration": 0.4435679999999991
                },
                {
                    "name": "A5",
                    "midi": 81,
                    "time": 27.35336,
                    "velocity": 0.25196850393700787,
                    "duration": 0.4435679999999991
                },
                {
                    "name": "A5",
                    "midi": 81,
                    "time": 27.796927999999998,
                    "velocity": 0.25196850393700787,
                    "duration": 0.591424
                },
                {
                    "name": "C#5",
                    "midi": 73,
                    "time": 27.796927999999998,
                    "velocity": 0.2125984251968504,
                    "duration": 0.591424
                },
                {
                    "name": "A5",
                    "midi": 81,
                    "time": 28.388351999999998,
                    "velocity": 0.2440944881889764,
                    "duration": 1.182848
                },
                {
                    "name": "C#5",
                    "midi": 73,
                    "time": 28.388351999999998,
                    "velocity": 0.2047244094488189,
                    "duration": 1.182848
                }
            ],
            "controlChanges": {
                "7": [
                    {
                        "number": 7,
                        "time": 0,
                        "value": 0.7874015748031497
                    }
                ],
                "10": [
                    {
                        "number": 10,
                        "time": 0,
                        "value": 0.5039370078740157
                    }
                ],
                "64": [
                    {
                        "number": 64,
                        "time": 0,
                        "value": 0
                    }
                ],
                "91": [
                    {
                        "number": 91,
                        "time": 1.1779194666666668,
                        "value": 1
                    }
                ]
            },
            "id": 1,
            "name": "Piano right",
            "instrumentNumber": 0,
            "instrument": "acoustic grand piano",
            "instrumentFamily": "piano",
            "channelNumber": 0,
            "isPercussion": false
        },
        {
            "startTime": 1.7742720000000003,
            "duration": 29.571199999999997,
            "length": 66,
            "notes": [
                {
                    "name": "E2",
                    "midi": 40,
                    "time": 1.7742720000000003,
                    "velocity": 0.2440944881889764,
                    "duration": 0.591424
                },
                {
                    "name": "E4",
                    "midi": 64,
                    "time": 2.3656960000000002,
                    "velocity": 0.2677165354330709,
                    "duration": 0.591424
                },
                {
                    "name": "E3",
                    "midi": 52,
                    "time": 2.3656960000000002,
                    "velocity": 0.2204724409448819,
                    "duration": 0.591424
                },
                {
                    "name": "E4",
                    "midi": 64,
                    "time": 2.95712,
                    "velocity": 0.2125984251968504,
                    "duration": 0.591424
                },
                {
                    "name": "E3",
                    "midi": 52,
                    "time": 2.95712,
                    "velocity": 0.18110236220472442,
                    "duration": 0.591424
                },
                {
                    "name": "E4",
                    "midi": 64,
                    "time": 3.548544,
                    "velocity": 0.1889763779527559,
                    "duration": 1.1582053333333335
                },
                {
                    "name": "E3",
                    "midi": 52,
                    "time": 3.548544,
                    "velocity": 0.14960629921259844,
                    "duration": 1.1582053333333335
                },
                {
                    "name": "A2",
                    "midi": 45,
                    "time": 5.322816,
                    "velocity": 0.25196850393700787,
                    "duration": 0.591424
                },
                {
                    "name": "E4",
                    "midi": 64,
                    "time": 5.91424,
                    "velocity": 0.28346456692913385,
                    "duration": 0.591424
                },
                {
                    "name": "A3",
                    "midi": 57,
                    "time": 5.91424,
                    "velocity": 0.23622047244094488,
                    "duration": 0.591424
                },
                {
                    "name": "E4",
                    "midi": 64,
                    "time": 6.505664,
                    "velocity": 0.23622047244094488,
                    "duration": 0.591424
                },
                {
                    "name": "A3",
                    "midi": 57,
                    "time": 6.505664,
                    "velocity": 0.1968503937007874,
                    "duration": 0.591424
                },
                {
                    "name": "E4",
                    "midi": 64,
                    "time": 7.097088,
                    "velocity": 0.23622047244094488,
                    "duration": 1.158205333333334
                },
                {
                    "name": "A3",
                    "midi": 57,
                    "time": 7.097088,
                    "velocity": 0.1968503937007874,
                    "duration": 1.158205333333334
                },
                {
                    "name": "E2",
                    "midi": 40,
                    "time": 8.871360000000001,
                    "velocity": 0.23622047244094488,
                    "duration": 0.591424
                },
                {
                    "name": "B3",
                    "midi": 59,
                    "time": 9.462784000000001,
                    "velocity": 0.2440944881889764,
                    "duration": 0.591424
                },
                {
                    "name": "E3",
                    "midi": 52,
                    "time": 9.462784000000001,
                    "velocity": 0.2047244094488189,
                    "duration": 0.591424
                },
                {
                    "name": "B3",
                    "midi": 59,
                    "time": 10.054208000000001,
                    "velocity": 0.1889763779527559,
                    "duration": 0.591424
                },
                {
                    "name": "E3",
                    "midi": 52,
                    "time": 10.054208000000001,
                    "velocity": 0.14960629921259844,
                    "duration": 0.591424
                },
                {
                    "name": "B3",
                    "midi": 59,
                    "time": 10.645632,
                    "velocity": 0.1732283464566929,
                    "duration": 1.158205333333333
                },
                {
                    "name": "E3",
                    "midi": 52,
                    "time": 10.645632,
                    "velocity": 0.14173228346456693,
                    "duration": 1.158205333333333
                },
                {
                    "name": "A1",
                    "midi": 33,
                    "time": 12.419904,
                    "velocity": 0.23622047244094488,
                    "duration": 0.591424
                },
                {
                    "name": "E4",
                    "midi": 64,
                    "time": 13.011328,
                    "velocity": 0.25984251968503935,
                    "duration": 0.5914239999999982
                },
                {
                    "name": "A3",
                    "midi": 57,
                    "time": 13.011328,
                    "velocity": 0.2204724409448819,
                    "duration": 0.5914239999999982
                },
                {
                    "name": "E3",
                    "midi": 52,
                    "time": 13.011328,
                    "velocity": 0.2204724409448819,
                    "duration": 0.5914239999999982
                },
                {
                    "name": "E4",
                    "midi": 64,
                    "time": 13.602751999999999,
                    "velocity": 0.2125984251968504,
                    "duration": 0.591424
                },
                {
                    "name": "A3",
                    "midi": 57,
                    "time": 13.602751999999999,
                    "velocity": 0.1732283464566929,
                    "duration": 0.591424
                },
                {
                    "name": "E3",
                    "midi": 52,
                    "time": 13.602751999999999,
                    "velocity": 0.1732283464566929,
                    "duration": 0.591424
                },
                {
                    "name": "E4",
                    "midi": 64,
                    "time": 14.194175999999999,
                    "velocity": 0.14173228346456693,
                    "duration": 1.158205333333333
                },
                {
                    "name": "A3",
                    "midi": 57,
                    "time": 14.194175999999999,
                    "velocity": 0.11811023622047244,
                    "duration": 1.158205333333333
                },
                {
                    "name": "E3",
                    "midi": 52,
                    "time": 14.194175999999999,
                    "velocity": 0.11811023622047244,
                    "duration": 1.158205333333333
                },
                {
                    "name": "E2",
                    "midi": 40,
                    "time": 15.968447999999999,
                    "velocity": 0.25984251968503935,
                    "duration": 0.591424
                },
                {
                    "name": "E4",
                    "midi": 64,
                    "time": 16.559872,
                    "velocity": 0.2440944881889764,
                    "duration": 0.591424
                },
                {
                    "name": "E3",
                    "midi": 52,
                    "time": 16.559872,
                    "velocity": 0.2047244094488189,
                    "duration": 0.591424
                },
                {
                    "name": "E4",
                    "midi": 64,
                    "time": 17.151296,
                    "velocity": 0.2283464566929134,
                    "duration": 0.591424
                },
                {
                    "name": "E3",
                    "midi": 52,
                    "time": 17.151296,
                    "velocity": 0.1968503937007874,
                    "duration": 0.591424
                },
                {
                    "name": "E4",
                    "midi": 64,
                    "time": 17.74272,
                    "velocity": 0.2125984251968504,
                    "duration": 1.1582053333333349
                },
                {
                    "name": "E3",
                    "midi": 52,
                    "time": 17.74272,
                    "velocity": 0.18110236220472442,
                    "duration": 1.1582053333333349
                },
                {
                    "name": "A2",
                    "midi": 45,
                    "time": 19.516992000000002,
                    "velocity": 0.30708661417322836,
                    "duration": 0.591424
                },
                {
                    "name": "A4",
                    "midi": 69,
                    "time": 20.108416000000002,
                    "velocity": 0.33070866141732286,
                    "duration": 0.5914239999999964
                },
                {
                    "name": "E4",
                    "midi": 64,
                    "time": 20.108416000000002,
                    "velocity": 0.2755905511811024,
                    "duration": 0.5914239999999964
                },
                {
                    "name": "A3",
                    "midi": 57,
                    "time": 20.108416000000002,
                    "velocity": 0.2755905511811024,
                    "duration": 0.5914239999999964
                },
                {
                    "name": "A3",
                    "midi": 57,
                    "time": 20.69984,
                    "velocity": 0.29133858267716534,
                    "duration": 0.591424
                },
                {
                    "name": "E4",
                    "midi": 64,
                    "time": 20.69984,
                    "velocity": 0.29133858267716534,
                    "duration": 0.591424
                },
                {
                    "name": "A4",
                    "midi": 69,
                    "time": 20.69984,
                    "velocity": 0.3464566929133858,
                    "duration": 0.591424
                },
                {
                    "name": "F#4",
                    "midi": 66,
                    "time": 21.291263999999998,
                    "velocity": 0.2992125984251969,
                    "duration": 1.1582053333333313
                },
                {
                    "name": "E4",
                    "midi": 64,
                    "time": 21.291263999999998,
                    "velocity": 0.25196850393700787,
                    "duration": 1.1582053333333313
                },
                {
                    "name": "C#4",
                    "midi": 61,
                    "time": 21.291263999999998,
                    "velocity": 0.25196850393700787,
                    "duration": 1.1582053333333313
                },
                {
                    "name": "F#3",
                    "midi": 54,
                    "time": 21.291263999999998,
                    "velocity": 0.25196850393700787,
                    "duration": 1.1582053333333313
                },
                {
                    "name": "B1",
                    "midi": 35,
                    "time": 23.065535999999994,
                    "velocity": 0.2204724409448819,
                    "duration": 0.591424
                },
                {
                    "name": "D4",
                    "midi": 62,
                    "time": 23.656959999999994,
                    "velocity": 0.33070866141732286,
                    "duration": 0.591424
                },
                {
                    "name": "F#3",
                    "midi": 54,
                    "time": 23.656959999999994,
                    "velocity": 0.2755905511811024,
                    "duration": 0.591424
                },
                {
                    "name": "D4",
                    "midi": 62,
                    "time": 24.248383999999994,
                    "velocity": 0.2440944881889764,
                    "duration": 0.591424
                },
                {
                    "name": "B3",
                    "midi": 59,
                    "time": 24.248383999999994,
                    "velocity": 0.2047244094488189,
                    "duration": 0.591424
                },
                {
                    "name": "F#3",
                    "midi": 54,
                    "time": 24.248383999999994,
                    "velocity": 0.2047244094488189,
                    "duration": 0.591424
                },
                {
                    "name": "D4",
                    "midi": 62,
                    "time": 24.839807999999994,
                    "velocity": 0.1732283464566929,
                    "duration": 1.1582053333333349
                },
                {
                    "name": "B3",
                    "midi": 59,
                    "time": 24.839807999999994,
                    "velocity": 0.14173228346456693,
                    "duration": 1.1582053333333349
                },
                {
                    "name": "E3",
                    "midi": 52,
                    "time": 24.839807999999994,
                    "velocity": 0.14173228346456693,
                    "duration": 1.1582053333333349
                },
                {
                    "name": "A1",
                    "midi": 33,
                    "time": 26.614079999999994,
                    "velocity": 0.16535433070866143,
                    "duration": 0.8871360000000017
                },
                {
                    "name": "E3",
                    "midi": 52,
                    "time": 27.353359999999995,
                    "velocity": 0.2204724409448819,
                    "duration": 0.4435680000000026
                },
                {
                    "name": "A3",
                    "midi": 57,
                    "time": 27.353359999999995,
                    "velocity": 0.2204724409448819,
                    "duration": 0.4435680000000026
                },
                {
                    "name": "E4",
                    "midi": 64,
                    "time": 27.353359999999995,
                    "velocity": 0.2677165354330709,
                    "duration": 0.4435680000000026
                },
                {
                    "name": "E4",
                    "midi": 64,
                    "time": 27.796927999999998,
                    "velocity": 0.2440944881889764,
                    "duration": 0.591424
                },
                {
                    "name": "A3",
                    "midi": 57,
                    "time": 27.796927999999998,
                    "velocity": 0.2047244094488189,
                    "duration": 0.591424
                },
                {
                    "name": "E4",
                    "midi": 64,
                    "time": 28.388351999999998,
                    "velocity": 0.2204724409448819,
                    "duration": 1.182848
                },
                {
                    "name": "A3",
                    "midi": 57,
                    "time": 28.388351999999998,
                    "velocity": 0.18110236220472442,
                    "duration": 1.182848
                }
            ],
            "controlChanges": {
                "7": [
                    {
                        "number": 7,
                        "time": 0,
                        "value": 0.7874015748031497
                    }
                ],
                "10": [
                    {
                        "number": 10,
                        "time": 0,
                        "value": 0.5039370078740157
                    }
                ],
                "64": [
                    {
                        "number": 64,
                        "time": 1.8358786666666669,
                        "value": 1
                    },
                    {
                        "number": 64,
                        "time": 2.3841780000000004,
                        "value": 0
                    },
                    {
                        "number": 64,
                        "time": 2.5837836000000003,
                        "value": 1
                    },
                    {
                        "number": 64,
                        "time": 4.4689476,
                        "value": 0
                    },
                    {
                        "number": 64,
                        "time": 5.410297466666667,
                        "value": 1
                    },
                    {
                        "number": 64,
                        "time": 5.933954133333334,
                        "value": 0
                    },
                    {
                        "number": 64,
                        "time": 6.1582024,
                        "value": 1
                    },
                    {
                        "number": 64,
                        "time": 7.984224,
                        "value": 0
                    },
                    {
                        "number": 64,
                        "time": 8.984716266666668,
                        "value": 1
                    },
                    {
                        "number": 64,
                        "time": 9.475105333333333,
                        "value": 0
                    },
                    {
                        "number": 64,
                        "time": 9.715371333333334,
                        "value": 1
                    },
                    {
                        "number": 64,
                        "time": 11.434197333333334,
                        "value": 0
                    },
                    {
                        "number": 64,
                        "time": 12.559135066666668,
                        "value": 1
                    },
                    {
                        "number": 64,
                        "time": 13.023649333333333,
                        "value": 0
                    },
                    {
                        "number": 64,
                        "time": 13.238040533333333,
                        "value": 1
                    },
                    {
                        "number": 64,
                        "time": 15.114579599999999,
                        "value": 0
                    },
                    {
                        "number": 64,
                        "time": 16.150803733333333,
                        "value": 1
                    },
                    {
                        "number": 64,
                        "time": 16.577121866666666,
                        "value": 0
                    },
                    {
                        "number": 64,
                        "time": 16.760709733333332,
                        "value": 1
                    },
                    {
                        "number": 64,
                        "time": 18.629856,
                        "value": 0
                    },
                    {
                        "number": 64,
                        "time": 19.638973200000002,
                        "value": 1
                    },
                    {
                        "number": 64,
                        "time": 20.120737333333334,
                        "value": 0
                    },
                    {
                        "number": 64,
                        "time": 20.290771733333333,
                        "value": 1
                    },
                    {
                        "number": 64,
                        "time": 21.291263999999998,
                        "value": 0
                    },
                    {
                        "number": 64,
                        "time": 21.752081866666664,
                        "value": 1
                    },
                    {
                        "number": 64,
                        "time": 22.104471999999998,
                        "value": 0
                    },
                    {
                        "number": 64,
                        "time": 23.170267333333328,
                        "value": 1
                    },
                    {
                        "number": 64,
                        "time": 23.665584933333328,
                        "value": 0
                    },
                    {
                        "number": 64,
                        "time": 23.822065866666662,
                        "value": 1
                    },
                    {
                        "number": 64,
                        "time": 24.84596866666666,
                        "value": 0
                    },
                    {
                        "number": 64,
                        "time": 25.168787599999995,
                        "value": 1
                    },
                    {
                        "number": 64,
                        "time": 25.726943999999996,
                        "value": 0
                    },
                    {
                        "number": 64,
                        "time": 26.692936533333327,
                        "value": 1
                    },
                    {
                        "number": 64,
                        "time": 27.07366573333333,
                        "value": 0
                    },
                    {
                        "number": 64,
                        "time": 27.13650453333333,
                        "value": 1
                    },
                    {
                        "number": 64,
                        "time": 29.340791066666664,
                        "value": 0
                    }
                ],
                "91": [
                    {
                        "number": 91,
                        "time": 1.1779194666666668,
                        "value": 1
                    }
                ]
            },
            "id": 2,
            "name": "Piano left",
            "instrumentNumber": 0,
            "instrument": "acoustic grand piano",
            "instrumentFamily": "piano",
            "channelNumber": 0,
            "isPercussion": false
        },
        {
            "startTime": 0,
            "duration": 0,
            "length": 0,
            "notes": [],
            "controlChanges": {},
            "id": 3,
            "name": "Chopin: Prelude No.7 in A, Op. 28"
        },
        {
            "startTime": 0,
            "duration": 0,
            "length": 0,
            "notes": [],
            "controlChanges": {},
            "id": 4,
            "name": "Copyright  1997 by Bernd Krueger"
        },
        {
            "startTime": 0,
            "duration": 0,
            "length": 0,
            "notes": [],
            "controlChanges": {},
            "id": 5,
            "name": "http://www.piano-midi.de"
        },
        {
            "startTime": 0,
            "duration": 0,
            "length": 0,
            "notes": [],
            "controlChanges": {},
            "id": 6,
            "name": "Edition: 2014-02-20"
        },
        {
            "startTime": 0,
            "duration": 0,
            "length": 0,
            "notes": [],
            "controlChanges": {
                "7": [
                    {
                        "number": 7,
                        "time": 0,
                        "value": 1
                    }
                ],
                "10": [
                    {
                        "number": 10,
                        "time": 0,
                        "value": 0.5039370078740157
                    }
                ]
            },
            "id": 7,
            "name": "Spur 7"
        },
        {
            "startTime": 0,
            "duration": 0,
            "length": 0,
            "notes": [],
            "controlChanges": {
                "7": [
                    {
                        "number": 7,
                        "time": 0,
                        "value": 1
                    }
                ],
                "10": [
                    {
                        "number": 10,
                        "time": 0,
                        "value": 0.5039370078740157
                    }
                ]
            },
            "id": 8,
            "name": "Spur 8"
        }
    ]
}