{
    "header": {
        "PPQ": 480,
        "timeSignature": [
            3,
            4
        ],
        "bpm": 133.26995606533782,
        "name": "Serenade of the Doll"
    },
    "startTime": 0,
    "duration": 165.00343099999998,
    "tracks": [
        {
            "startTime": 0,
            "duration": 0,
            "length": 0,
            "notes": [],
            "controlChanges": {},
            "id": 0,
            "name": "Serenade of the Doll"
        },
        {
            "startTime": 0.225107,
            "duration": 165.00343099999998,
            "length": 742,
            "notes": [
                {
                    "name": "E4",
                    "midi": 64,
                    "time": 0.225107,
                    "velocity": 0.14960629921259844,
                    "duration": 0.11255350000000003
                },
                {
                    "name": "B4",
                    "midi": 71,
                    "time": 0.225107,
                    "velocity": 0.18110236220472442,
                    "duration": 0.11255350000000003
                },
                {
                    "name": "E4",
                    "midi": 64,
                    "time": 0.6753210000000001,
                    "velocity": 0.14960629921259844,
                    "duration": 0.11255349999999997
                },
                {
                    "name": "B4",
                    "midi": 71,
                    "time": 0.6753210000000001,
                    "velocity": 0.18110236220472442,
                    "duration": 0.11255349999999997
                },
                {
                    "name": "E4",
                    "midi": 64,
                    "time": 1.1255350000000002,
                    "velocity": 0.14960629921259844,
                    "duration": 0.11255349999999997
                },
                {
                    "name": "B4",
                    "midi": 71,
                    "time": 1.1255350000000002,
                    "velocity": 0.18110236220472442,
                    "duration": 0.11255349999999997
                },
                {
                    "name": "E4",
                    "midi": 64,
                    "time": 1.575749,
                    "velocity": 0.14960629921259844,
                    "duration": 0.11255349999999997
                },
                {
                    "name": "B4",
                    "midi": 71,
                    "time": 1.575749,
                    "velocity": 0.18110236220472442,
                    "duration": 0.11255349999999997
                },
                {
                    "name": "E4",
                    "midi": 64,
                    "time": 2.025963,
                    "velocity": 0.14960629921259844,
                    "duration": 0.1125535000000002
                },
                {
                    "name": "B4",
                    "midi": 71,
                    "time": 2.025963,
                    "velocity": 0.18110236220472442,
                    "duration": 0.1125535000000002
                },
                {
                    "name": "E4",
                    "midi": 64,
                    "time": 2.4761770000000003,
                    "velocity": 0.14960629921259844,
                    "duration": 0.1125535000000002
                },
                {
                    "name": "B4",
                    "midi": 71,
                    "time": 2.4761770000000003,
                    "velocity": 0.18110236220472442,
                    "duration": 0.1125535000000002
                },
                {
                    "name": "E4",
                    "midi": 64,
                    "time": 2.7012840000000007,
                    "velocity": 0.2283464566929134,
                    "duration": 0.1125535000000002
                },
                {
                    "name": "E4",
                    "midi": 64,
                    "time": 2.926391000000001,
                    "velocity": 0.14960629921259844,
                    "duration": 0.1125535000000002
                },
                {
                    "name": "B4",
                    "midi": 71,
                    "time": 2.926391000000001,
                    "velocity": 0.18110236220472442,
                    "duration": 0.1125535000000002
                },
                {
                    "name": "E4",
                    "midi": 64,
                    "time": 3.3766050000000014,
                    "velocity": 0.14960629921259844,
                    "duration": 0.1125535000000002
                },
                {
                    "name": "B4",
                    "midi": 71,
                    "time": 3.3766050000000014,
                    "velocity": 0.18110236220472442,
                    "duration": 0.1125535000000002
                },
                {
                    "name": "E4",
                    "midi": 64,
                    "time": 3.8268190000000017,
                    "velocity": 0.14960629921259844,
                    "duration": 0.1125535000000002
                },
                {
                    "name": "B4",
                    "midi": 71,
                    "time": 3.8268190000000017,
                    "velocity": 0.18110236220472442,
                    "duration": 0.1125535000000002
                },
                {
                    "name": "E4",
                    "midi": 64,
                    "time": 4.051926000000002,
                    "velocity": 0.2283464566929134,
                    "duration": 0.11255349999999975
                },
                {
                    "name": "E4",
                    "midi": 64,
                    "time": 4.277033000000001,
                    "velocity": 0.14960629921259844,
                    "duration": 0.11255349999999975
                },
                {
                    "name": "B4",
                    "midi": 71,
                    "time": 4.277033000000001,
                    "velocity": 0.18110236220472442,
                    "duration": 0.11255349999999975
                },
                {
                    "name": "E4",
                    "midi": 64,
                    "time": 4.727247000000001,
                    "velocity": 0.14960629921259844,
                    "duration": 0.11255349999999975
                },
                {
                    "name": "B4",
                    "midi": 71,
                    "time": 4.727247000000001,
                    "velocity": 0.18110236220472442,
                    "duration": 0.11255349999999975
                },
                {
                    "name": "E4",
                    "midi": 64,
                    "time": 5.177461000000001,
                    "velocity": 0.14960629921259844,
                    "duration": 0.11255349999999975
                },
                {
                    "name": "B4",
                    "midi": 71,
                    "time": 5.177461000000001,
                    "velocity": 0.18110236220472442,
                    "duration": 0.11255349999999975
                },
                {
                    "name": "E4",
                    "midi": 64,
                    "time": 5.627675000000001,
                    "velocity": 0.14960629921259844,
                    "duration": 0.11255349999999975
                },
                {
                    "name": "B4",
                    "midi": 71,
                    "time": 5.627675000000001,
                    "velocity": 0.18110236220472442,
                    "duration": 0.11255349999999975
                },
                {
                    "name": "E4",
                    "midi": 64,
                    "time": 6.077889000000001,
                    "velocity": 0.14960629921259844,
                    "duration": 0.11255349999999975
                },
                {
                    "name": "B4",
                    "midi": 71,
                    "time": 6.077889000000001,
                    "velocity": 0.18110236220472442,
                    "duration": 0.11255349999999975
                },
                {
                    "name": "E4",
                    "midi": 64,
                    "time": 6.528103000000001,
                    "velocity": 0.14960629921259844,
                    "duration": 0.11255349999999975
                },
                {
                    "name": "B4",
                    "midi": 71,
                    "time": 6.528103000000001,
                    "velocity": 0.18110236220472442,
                    "duration": 0.11255349999999975
                },
                {
                    "name": "E4",
                    "midi": 64,
                    "time": 6.75321,
                    "velocity": 0.2283464566929134,
                    "duration": 0.11255349999999975
                },
                {
                    "name": "E4",
                    "midi": 64,
                    "time": 6.978317,
                    "velocity": 0.14960629921259844,
                    "duration": 0.11255349999999975
                },
                {
                    "name": "B4",
                    "midi": 71,
                    "time": 6.978317,
                    "velocity": 0.18110236220472442,
                    "duration": 0.11255349999999975
                },
                {
                    "name": "E4",
                    "midi": 64,
                    "time": 7.4285309999999996,
                    "velocity": 0.14960629921259844,
                    "duration": 0.11255349999999975
                },
                {
                    "name": "B4",
                    "midi": 71,
                    "time": 7.4285309999999996,
                    "velocity": 0.18110236220472442,
                    "duration": 0.11255349999999975
                },
                {
                    "name": "E4",
                    "midi": 64,
                    "time": 7.878744999999999,
                    "velocity": 0.14960629921259844,
                    "duration": 0.11255349999999975
                },
                {
                    "name": "B4",
                    "midi": 71,
                    "time": 7.878744999999999,
                    "velocity": 0.18110236220472442,
                    "duration": 0.11255349999999975
                },
                {
                    "name": "B4",
                    "midi": 71,
                    "time": 8.328959,
                    "velocity": 0.1732283464566929,
                    "duration": 0.2251069999999995
                },
                {
                    "name": "E4",
                    "midi": 64,
                    "time": 8.328959,
                    "velocity": 0.14173228346456693,
                    "duration": 0.2251069999999995
                },
                {
                    "name": "B4",
                    "midi": 71,
                    "time": 8.779172999999998,
                    "velocity": 0.1732283464566929,
                    "duration": 0.2251069999999995
                },
                {
                    "name": "E4",
                    "midi": 64,
                    "time": 8.779172999999998,
                    "velocity": 0.14173228346456693,
                    "duration": 0.2251069999999995
                },
                {
                    "name": "B4",
                    "midi": 71,
                    "time": 9.229386999999997,
                    "velocity": 0.1732283464566929,
                    "duration": 0.11255350000000064
                },
                {
                    "name": "E4",
                    "midi": 64,
                    "time": 9.229386999999997,
                    "velocity": 0.14173228346456693,
                    "duration": 0.11255350000000064
                },
                {
                    "name": "B3",
                    "midi": 59,
                    "time": 9.454493999999999,
                    "velocity": 0.29133858267716534,
                    "duration": 0.11255350000000064
                },
                {
                    "name": "B4",
                    "midi": 71,
                    "time": 9.679601,
                    "velocity": 0.2677165354330709,
                    "duration": 0.11255350000000064
                },
                {
                    "name": "E4",
                    "midi": 64,
                    "time": 9.679601,
                    "velocity": 0.2204724409448819,
                    "duration": 0.11255350000000064
                },
                {
                    "name": "E4",
                    "midi": 64,
                    "time": 10.129815,
                    "velocity": 0.1889763779527559,
                    "duration": 0.11255350000000064
                },
                {
                    "name": "B4",
                    "midi": 71,
                    "time": 10.129815,
                    "velocity": 0.2283464566929134,
                    "duration": 0.11255350000000064
                },
                {
                    "name": "E4",
                    "midi": 64,
                    "time": 10.580029000000001,
                    "velocity": 0.1889763779527559,
                    "duration": 0.11255350000000064
                },
                {
                    "name": "B4",
                    "midi": 71,
                    "time": 10.580029000000001,
                    "velocity": 0.2283464566929134,
                    "duration": 0.11255350000000064
                },
                {
                    "name": "A#4",
                    "midi": 70,
                    "time": 11.199073250000001,
                    "velocity": 0.2992125984251969,
                    "duration": 0.05627675000000032
                },
                {
                    "name": "D#5",
                    "midi": 75,
                    "time": 11.255350000000002,
                    "velocity": 0.4015748031496063,
                    "duration": 0.11255350000000064
                },
                {
                    "name": "D#5",
                    "midi": 75,
                    "time": 11.649287250000002,
                    "velocity": 0.30708661417322836,
                    "duration": 0.05627675000000032
                },
                {
                    "name": "G#5",
                    "midi": 80,
                    "time": 11.705564000000003,
                    "velocity": 0.4251968503937008,
                    "duration": 0.11255350000000064
                },
                {
                    "name": "G#4",
                    "midi": 68,
                    "time": 12.099501250000003,
                    "velocity": 0.2992125984251969,
                    "duration": 0.05627675000000032
                },
                {
                    "name": "C#5",
                    "midi": 73,
                    "time": 12.155778000000003,
                    "velocity": 0.41732283464566927,
                    "duration": 0.9004279999999998
                },
                {
                    "name": "A#4",
                    "midi": 70,
                    "time": 12.999929250000003,
                    "velocity": 0.2992125984251969,
                    "duration": 0.05627675000000032
                },
                {
                    "name": "D#5",
                    "midi": 75,
                    "time": 13.056206000000003,
                    "velocity": 0.4015748031496063,
                    "duration": 0.11255350000000064
                },
                {
                    "name": "D#4",
                    "midi": 63,
                    "time": 13.225036250000004,
                    "velocity": 0.2440944881889764,
                    "duration": 0.05627675000000032
                },
                {
                    "name": "G#4",
                    "midi": 68,
                    "time": 13.281313000000004,
                    "velocity": 0.33858267716535434,
                    "duration": 0.11255350000000064
                },
                {
                    "name": "G#4",
                    "midi": 68,
                    "time": 13.450143250000005,
                    "velocity": 0.2992125984251969,
                    "duration": 0.05627675000000032
                },
                {
                    "name": "C#5",
                    "midi": 73,
                    "time": 13.506420000000006,
                    "velocity": 0.41732283464566927,
                    "duration": 0.11255350000000064
                },
                {
                    "name": "A#4",
                    "midi": 70,
                    "time": 13.900357250000006,
                    "velocity": 0.31496062992125984,
                    "duration": 0.05627675000000032
                },
                {
                    "name": "D#5",
                    "midi": 75,
                    "time": 13.956634000000006,
                    "velocity": 0.4330708661417323,
                    "duration": 0.11255350000000064
                },
                {
                    "name": "D#5",
                    "midi": 75,
                    "time": 14.350571250000007,
                    "velocity": 0.3543307086614173,
                    "duration": 0.05627675000000032
                },
                {
                    "name": "G#5",
                    "midi": 80,
                    "time": 14.406848000000007,
                    "velocity": 0.4645669291338583,
                    "duration": 0.11255350000000064
                },
                {
                    "name": "G#4",
                    "midi": 68,
                    "time": 14.800785250000008,
                    "velocity": 0.3700787401574803,
                    "duration": 0.05627675000000032
                },
                {
                    "name": "C#5",
                    "midi": 73,
                    "time": 14.857062000000008,
                    "velocity": 0.44881889763779526,
                    "duration": 0.9004279999999998
                },
                {
                    "name": "D#4",
                    "midi": 63,
                    "time": 15.701213250000007,
                    "velocity": 0.33070866141732286,
                    "duration": 0.3939372499999987
                },
                {
                    "name": "G#4",
                    "midi": 68,
                    "time": 15.757490000000008,
                    "velocity": 0.3858267716535433,
                    "duration": 0.33766049999999836
                },
                {
                    "name": "C#4",
                    "midi": 61,
                    "time": 16.151427250000005,
                    "velocity": 0.4015748031496063,
                    "duration": 0.3939372499999969
                },
                {
                    "name": "F#4",
                    "midi": 66,
                    "time": 16.207704000000003,
                    "velocity": 0.4881889763779528,
                    "duration": 0.33766049999999836
                },
                {
                    "name": "D#4",
                    "midi": 63,
                    "time": 16.60164125,
                    "velocity": 0.30708661417322836,
                    "duration": 0.9567047500000001
                },
                {
                    "name": "G#4",
                    "midi": 68,
                    "time": 16.657918,
                    "velocity": 0.36220472440944884,
                    "duration": 0.9004280000000016
                },
                {
                    "name": "B3",
                    "midi": 59,
                    "time": 17.558346,
                    "velocity": 0.29133858267716534,
                    "duration": 0.11255350000000064
                },
                {
                    "name": "B4",
                    "midi": 71,
                    "time": 17.783453,
                    "velocity": 0.2677165354330709,
                    "duration": 0.11255350000000064
                },
                {
                    "name": "F#4",
                    "midi": 66,
                    "time": 17.783453,
                    "velocity": 0.2204724409448819,
                    "duration": 0.11255350000000064
                },
                {
                    "name": "B3",
                    "midi": 59,
                    "time": 18.233667,
                    "velocity": 0.1889763779527559,
                    "duration": 0.11255350000000064
                },
                {
                    "name": "F#4",
                    "midi": 66,
                    "time": 18.233667,
                    "velocity": 0.1889763779527559,
                    "duration": 0.11255350000000064
                },
                {
                    "name": "B4",
                    "midi": 71,
                    "time": 18.233667,
                    "velocity": 0.2283464566929134,
                    "duration": 0.11255350000000064
                },
                {
                    "name": "B3",
                    "midi": 59,
                    "time": 18.683881,
                    "velocity": 0.1889763779527559,
                    "duration": 0.11255350000000064
                },
                {
                    "name": "F#4",
                    "midi": 66,
                    "time": 18.683881,
                    "velocity": 0.1889763779527559,
                    "duration": 0.11255350000000064
                },
                {
                    "name": "B4",
                    "midi": 71,
                    "time": 18.683881,
                    "velocity": 0.2283464566929134,
                    "duration": 0.11255350000000064
                },
                {
                    "name": "B3",
                    "midi": 59,
                    "time": 19.134095,
                    "velocity": 0.1889763779527559,
                    "duration": 0.11255350000000064
                },
                {
                    "name": "F#4",
                    "midi": 66,
                    "time": 19.134095,
                    "velocity": 0.1889763779527559,
                    "duration": 0.11255350000000064
                },
                {
                    "name": "B4",
                    "midi": 71,
                    "time": 19.134095,
                    "velocity": 0.2283464566929134,
                    "duration": 0.11255350000000064
                },
                {
                    "name": "B4",
                    "midi": 71,
                    "time": 19.584308999999998,
                    "velocity": 0.2283464566929134,
                    "duration": 0.11255350000000064
                },
                {
                    "name": "C#4",
                    "midi": 61,
                    "time": 19.584308999999998,
                    "velocity": 0.1889763779527559,
                    "duration": 0.11255350000000064
                },
                {
                    "name": "F#4",
                    "midi": 66,
                    "time": 19.584308999999998,
                    "velocity": 0.1889763779527559,
                    "duration": 0.11255350000000064
                },
                {
                    "name": "E4",
                    "midi": 64,
                    "time": 20.034522999999997,
                    "velocity": 0.1889763779527559,
                    "duration": 0.11255350000000064
                },
                {
                    "name": "F#4",
                    "midi": 66,
                    "time": 20.034522999999997,
                    "velocity": 0.1889763779527559,
                    "duration": 0.11255350000000064
                },
                {
                    "name": "B4",
                    "midi": 71,
                    "time": 20.034522999999997,
                    "velocity": 0.2283464566929134,
                    "duration": 0.11255350000000064
                },
                {
                    "name": "D#4",
                    "midi": 63,
                    "time": 20.484736999999996,
                    "velocity": 0.1889763779527559,
                    "duration": 0.11255350000000064
                },
                {
                    "name": "F#4",
                    "midi": 66,
                    "time": 20.484736999999996,
                    "velocity": 0.1889763779527559,
                    "duration": 0.11255350000000064
                },
                {
                    "name": "B4",
                    "midi": 71,
                    "time": 20.484736999999996,
                    "velocity": 0.2283464566929134,
                    "duration": 0.11255350000000064
                },
                {
                    "name": "B4",
                    "midi": 71,
                    "time": 20.934950999999995,
                    "velocity": 0.2283464566929134,
                    "duration": 0.11255350000000064
                },
                {
                    "name": "D#4",
                    "midi": 63,
                    "time": 20.934950999999995,
                    "velocity": 0.1889763779527559,
                    "duration": 0.11255350000000064
                },
                {
                    "name": "F#4",
                    "midi": 66,
                    "time": 20.934950999999995,
                    "velocity": 0.1889763779527559,
                    "duration": 0.11255350000000064
                },
                {
                    "name": "D4",
                    "midi": 62,
                    "time": 21.385164999999994,
                    "velocity": 0.1889763779527559,
                    "duration": 0.11255350000000064
                },
                {
                    "name": "F#4",
                    "midi": 66,
                    "time": 21.385164999999994,
                    "velocity": 0.1889763779527559,
                    "duration": 0.11255350000000064
                },
                {
                    "name": "B4",
                    "midi": 71,
                    "time": 21.385164999999994,
                    "velocity": 0.2283464566929134,
                    "duration": 0.11255350000000064
                },
                {
                    "name": "C#4",
                    "midi": 61,
                    "time": 21.835378999999993,
                    "velocity": 0.1889763779527559,
                    "duration": 0.11255350000000064
                },
                {
                    "name": "F#4",
                    "midi": 66,
                    "time": 21.835378999999993,
                    "velocity": 0.1889763779527559,
                    "duration": 0.11255350000000064
                },
                {
                    "name": "B4",
                    "midi": 71,
                    "time": 21.835378999999993,
                    "velocity": 0.2283464566929134,
                    "duration": 0.11255350000000064
                },
                {
                    "name": "C#4",
                    "midi": 61,
                    "time": 22.28559299999999,
                    "velocity": 0.1889763779527559,
                    "duration": 0.11255350000000064
                },
                {
                    "name": "F#4",
                    "midi": 66,
                    "time": 22.28559299999999,
                    "velocity": 0.1889763779527559,
                    "duration": 0.11255350000000064
                },
                {
                    "name": "B4",
                    "midi": 71,
                    "time": 22.28559299999999,
                    "velocity": 0.2283464566929134,
                    "duration": 0.11255350000000064
                },
                {
                    "name": "C#4",
                    "midi": 61,
                    "time": 22.73580699999999,
                    "velocity": 0.1889763779527559,
                    "duration": 0.11255350000000064
                },
                {
                    "name": "F#4",
                    "midi": 66,
                    "time": 22.73580699999999,
                    "velocity": 0.1889763779527559,
                    "duration": 0.11255350000000064
                },
                {
                    "name": "B4",
                    "midi": 71,
                    "time": 22.73580699999999,
                    "velocity": 0.2283464566929134,
                    "duration": 0.11255350000000064
                },
                {
                    "name": "C#4",
                    "midi": 61,
                    "time": 23.18602099999999,
                    "velocity": 0.1889763779527559,
                    "duration": 0.11255350000000064
                },
                {
                    "name": "F#4",
                    "midi": 66,
                    "time": 23.18602099999999,
                    "velocity": 0.1889763779527559,
                    "duration": 0.11255350000000064
                },
                {
                    "name": "B4",
                    "midi": 71,
                    "time": 23.18602099999999,
                    "velocity": 0.2283464566929134,
                    "duration": 0.11255350000000064
                },
                {
                    "name": "D#4",
                    "midi": 63,
                    "time": 23.63623499999999,
                    "velocity": 0.1889763779527559,
                    "duration": 0.11255350000000064
                },
                {
                    "name": "F#4",
                    "midi": 66,
                    "time": 23.63623499999999,
                    "velocity": 0.1889763779527559,
                    "duration": 0.11255350000000064
                },
                {
                    "name": "B4",
                    "midi": 71,
                    "time": 23.63623499999999,
                    "velocity": 0.2283464566929134,
                    "duration": 0.11255350000000064
                },
                {
                    "name": "F#4",
                    "midi": 66,
                    "time": 24.086448999999988,
                    "velocity": 0.1889763779527559,
                    "duration": 0.11255350000000064
                },
                {
                    "name": "B4",
                    "midi": 71,
                    "time": 24.086448999999988,
                    "velocity": 0.2283464566929134,
                    "duration": 0.11255350000000064
                },
                {
                    "name": "G#4",
                    "midi": 68,
                    "time": 24.536662999999987,
                    "velocity": 0.1889763779527559,
                    "duration": 0.11255350000000064
                },
                {
                    "name": "B4",
                    "midi": 71,
                    "time": 24.536662999999987,
                    "velocity": 0.2283464566929134,
                    "duration": 0.11255350000000064
                },
                {
                    "name": "B4",
                    "midi": 71,
                    "time": 24.986876999999986,
                    "velocity": 0.2283464566929134,
                    "duration": 0.11255350000000064
                },
                {
                    "name": "G#4",
                    "midi": 68,
                    "time": 24.986876999999986,
                    "velocity": 0.1889763779527559,
                    "duration": 0.11255350000000064
                },
                {
                    "name": "G#4",
                    "midi": 68,
                    "time": 25.437090999999985,
                    "velocity": 0.1889763779527559,
                    "duration": 0.11255350000000064
                },
                {
                    "name": "B4",
                    "midi": 71,
                    "time": 25.437090999999985,
                    "velocity": 0.2283464566929134,
                    "duration": 0.11255350000000064
                },
                {
                    "name": "D#4",
                    "midi": 63,
                    "time": 25.887304999999984,
                    "velocity": 0.1889763779527559,
                    "duration": 0.11255350000000064
                },
                {
                    "name": "G#4",
                    "midi": 68,
                    "time": 25.887304999999984,
                    "velocity": 0.1889763779527559,
                    "duration": 0.11255350000000064
                },
                {
                    "name": "B4",
                    "midi": 71,
                    "time": 25.887304999999984,
                    "velocity": 0.2283464566929134,
                    "duration": 0.11255350000000064
                },
                {
                    "name": "D#4",
                    "midi": 63,
                    "time": 26.337518999999983,
                    "velocity": 0.1889763779527559,
                    "duration": 0.11255350000000064
                },
                {
                    "name": "G#4",
                    "midi": 68,
                    "time": 26.337518999999983,
                    "velocity": 0.1889763779527559,
                    "duration": 0.11255350000000064
                },
                {
                    "name": "B4",
                    "midi": 71,
                    "time": 26.337518999999983,
                    "velocity": 0.2283464566929134,
                    "duration": 0.11255350000000064
                },
                {
                    "name": "D#4",
                    "midi": 63,
                    "time": 26.78773299999998,
                    "velocity": 0.1968503937007874,
                    "duration": 0.11255350000000064
                },
                {
                    "name": "G#4",
                    "midi": 68,
                    "time": 26.78773299999998,
                    "velocity": 0.1968503937007874,
                    "duration": 0.11255350000000064
                },
                {
                    "name": "B4",
                    "midi": 71,
                    "time": 26.78773299999998,
                    "velocity": 0.23622047244094488,
                    "duration": 0.11255350000000064
                },
                {
                    "name": "F4",
                    "midi": 65,
                    "time": 27.23794699999998,
                    "velocity": 0.1968503937007874,
                    "duration": 0.11255350000000064
                },
                {
                    "name": "G#4",
                    "midi": 68,
                    "time": 27.23794699999998,
                    "velocity": 0.1968503937007874,
                    "duration": 0.11255350000000064
                },
                {
                    "name": "B4",
                    "midi": 71,
                    "time": 27.23794699999998,
                    "velocity": 0.23622047244094488,
                    "duration": 0.11255350000000064
                },
                {
                    "name": "F4",
                    "midi": 65,
                    "time": 27.68816099999998,
                    "velocity": 0.2047244094488189,
                    "duration": 0.11255350000000064
                },
                {
                    "name": "G#4",
                    "midi": 68,
                    "time": 27.68816099999998,
                    "velocity": 0.2047244094488189,
                    "duration": 0.11255350000000064
                },
                {
                    "name": "B4",
                    "midi": 71,
                    "time": 27.68816099999998,
                    "velocity": 0.2440944881889764,
                    "duration": 0.11255350000000064
                },
                {
                    "name": "F4",
                    "midi": 65,
                    "time": 28.13837499999998,
                    "velocity": 0.2047244094488189,
                    "duration": 0.11255350000000064
                },
                {
                    "name": "G#4",
                    "midi": 68,
                    "time": 28.13837499999998,
                    "velocity": 0.2047244094488189,
                    "duration": 0.11255350000000064
                },
                {
                    "name": "B4",
                    "midi": 71,
                    "time": 28.13837499999998,
                    "velocity": 0.2440944881889764,
                    "duration": 0.11255350000000064
                },
                {
                    "name": "D#4",
                    "midi": 63,
                    "time": 28.588588999999978,
                    "velocity": 0.2125984251968504,
                    "duration": 0.11255350000000064
                },
                {
                    "name": "G#4",
                    "midi": 68,
                    "time": 28.588588999999978,
                    "velocity": 0.2125984251968504,
                    "duration": 0.11255350000000064
                },
                {
                    "name": "B4",
                    "midi": 71,
                    "time": 28.588588999999978,
                    "velocity": 0.25196850393700787,
                    "duration": 0.11255350000000064
                },
                {
                    "name": "D#4",
                    "midi": 63,
                    "time": 29.038802999999977,
                    "velocity": 0.2125984251968504,
                    "duration": 0.11255350000000064
                },
                {
                    "name": "G#4",
                    "midi": 68,
                    "time": 29.038802999999977,
                    "velocity": 0.2125984251968504,
                    "duration": 0.11255350000000064
                },
                {
                    "name": "B4",
                    "midi": 71,
                    "time": 29.038802999999977,
                    "velocity": 0.25196850393700787,
                    "duration": 0.11255350000000064
                },
                {
                    "name": "D#4",
                    "midi": 63,
                    "time": 29.489016999999976,
                    "velocity": 0.2204724409448819,
                    "duration": 0.11255350000000064
                },
                {
                    "name": "G#4",
                    "midi": 68,
                    "time": 29.489016999999976,
                    "velocity": 0.2204724409448819,
                    "duration": 0.11255350000000064
                },
                {
                    "name": "B4",
                    "midi": 71,
                    "time": 29.489016999999976,
                    "velocity": 0.25984251968503935,
                    "duration": 0.11255350000000064
                },
                {
                    "name": "F4",
                    "midi": 65,
                    "time": 29.939230999999975,
                    "velocity": 0.2204724409448819,
                    "duration": 0.11255350000000064
                },
                {
                    "name": "G#4",
                    "midi": 68,
                    "time": 29.939230999999975,
                    "velocity": 0.2204724409448819,
                    "duration": 0.11255350000000064
                },
                {
                    "name": "B4",
                    "midi": 71,
                    "time": 29.939230999999975,
                    "velocity": 0.2677165354330709,
                    "duration": 0.11255350000000064
                },
                {
                    "name": "F4",
                    "midi": 65,
                    "time": 30.389444999999974,
                    "velocity": 0.2283464566929134,
                    "duration": 0.11255350000000064
                },
                {
                    "name": "G#4",
                    "midi": 68,
                    "time": 30.389444999999974,
                    "velocity": 0.2283464566929134,
                    "duration": 0.11255350000000064
                },
                {
                    "name": "B4",
                    "midi": 71,
                    "time": 30.389444999999974,
                    "velocity": 0.2755905511811024,
                    "duration": 0.11255350000000064
                },
                {
                    "name": "F4",
                    "midi": 65,
                    "time": 30.839658999999973,
                    "velocity": 0.2283464566929134,
                    "duration": 0.11255350000000064
                },
                {
                    "name": "G#4",
                    "midi": 68,
                    "time": 30.839658999999973,
                    "velocity": 0.2283464566929134,
                    "duration": 0.11255350000000064
                },
                {
                    "name": "B4",
                    "midi": 71,
                    "time": 30.839658999999973,
                    "velocity": 0.2755905511811024,
                    "duration": 0.11255350000000064
                },
                {
                    "name": "B4",
                    "midi": 71,
                    "time": 31.28987299999997,
                    "velocity": 0.3228346456692913,
                    "duration": 0.11255350000000064
                },
                {
                    "name": "G#4",
                    "midi": 68,
                    "time": 31.28987299999997,
                    "velocity": 0.2677165354330709,
                    "duration": 0.11255350000000064
                },
                {
                    "name": "G#4",
                    "midi": 68,
                    "time": 31.74008699999997,
                    "velocity": 0.2677165354330709,
                    "duration": 0.11255350000000064
                },
                {
                    "name": "B4",
                    "midi": 71,
                    "time": 31.74008699999997,
                    "velocity": 0.31496062992125984,
                    "duration": 0.11255350000000064
                },
                {
                    "name": "G#4",
                    "midi": 68,
                    "time": 32.19030099999997,
                    "velocity": 0.2677165354330709,
                    "duration": 0.11255349999999709
                },
                {
                    "name": "B4",
                    "midi": 71,
                    "time": 32.19030099999997,
                    "velocity": 0.31496062992125984,
                    "duration": 0.11255349999999709
                },
                {
                    "name": "G#4",
                    "midi": 68,
                    "time": 32.640514999999965,
                    "velocity": 0.2677165354330709,
                    "duration": 0.11255349999999709
                },
                {
                    "name": "B4",
                    "midi": 71,
                    "time": 32.640514999999965,
                    "velocity": 0.31496062992125984,
                    "duration": 0.11255349999999709
                },
                {
                    "name": "B4",
                    "midi": 71,
                    "time": 33.09072899999996,
                    "velocity": 0.2992125984251969,
                    "duration": 0.11255349999999709
                },
                {
                    "name": "G#4",
                    "midi": 68,
                    "time": 33.09072899999996,
                    "velocity": 0.25196850393700787,
                    "duration": 0.11255349999999709
                },
                {
                    "name": "B4",
                    "midi": 71,
                    "time": 33.540942999999956,
                    "velocity": 0.2992125984251969,
                    "duration": 0.11255349999999709
                },
                {
                    "name": "G#4",
                    "midi": 68,
                    "time": 33.540942999999956,
                    "velocity": 0.25196850393700787,
                    "duration": 0.11255349999999709
                },
                {
                    "name": "B4",
                    "midi": 71,
                    "time": 33.99115699999995,
                    "velocity": 0.3228346456692913,
                    "duration": 0.11255349999999709
                },
                {
                    "name": "G#4",
                    "midi": 68,
                    "time": 33.99115699999995,
                    "velocity": 0.2677165354330709,
                    "duration": 0.11255349999999709
                },
                {
                    "name": "G#4",
                    "midi": 68,
                    "time": 34.44137099999995,
                    "velocity": 0.2677165354330709,
                    "duration": 0.11255349999999709
                },
                {
                    "name": "B4",
                    "midi": 71,
                    "time": 34.44137099999995,
                    "velocity": 0.31496062992125984,
                    "duration": 0.11255349999999709
                },
                {
                    "name": "G#4",
                    "midi": 68,
                    "time": 34.89158499999994,
                    "velocity": 0.2677165354330709,
                    "duration": 0.11255349999999709
                },
                {
                    "name": "B4",
                    "midi": 71,
                    "time": 34.89158499999994,
                    "velocity": 0.31496062992125984,
                    "duration": 0.11255349999999709
                },
                {
                    "name": "G#4",
                    "midi": 68,
                    "time": 35.34179899999994,
                    "velocity": 0.2677165354330709,
                    "duration": 0.11255349999999709
                },
                {
                    "name": "B4",
                    "midi": 71,
                    "time": 35.34179899999994,
                    "velocity": 0.31496062992125984,
                    "duration": 0.11255349999999709
                },
                {
                    "name": "B4",
                    "midi": 71,
                    "time": 35.79201299999993,
                    "velocity": 0.2992125984251969,
                    "duration": 0.11255349999999709
                },
                {
                    "name": "G#4",
                    "midi": 68,
                    "time": 35.79201299999993,
                    "velocity": 0.25196850393700787,
                    "duration": 0.11255349999999709
                },
                {
                    "name": "B4",
                    "midi": 71,
                    "time": 36.24222699999993,
                    "velocity": 0.2992125984251969,
                    "duration": 0.11255349999999709
                },
                {
                    "name": "G#4",
                    "midi": 68,
                    "time": 36.24222699999993,
                    "velocity": 0.25196850393700787,
                    "duration": 0.11255349999999709
                },
                {
                    "name": "B4",
                    "midi": 71,
                    "time": 36.692440999999924,
                    "velocity": 0.25196850393700787,
                    "duration": 0.11255349999999709
                },
                {
                    "name": "B4",
                    "midi": 71,
                    "time": 37.14265499999992,
                    "velocity": 0.25984251968503935,
                    "duration": 0.11255349999999709
                },
                {
                    "name": "B4",
                    "midi": 71,
                    "time": 37.592868999999915,
                    "velocity": 0.23622047244094488,
                    "duration": 0.11255349999999709
                },
                {
                    "name": "B4",
                    "midi": 71,
                    "time": 38.04308299999991,
                    "velocity": 0.2125984251968504,
                    "duration": 0.11255349999999709
                },
                {
                    "name": "B4",
                    "midi": 71,
                    "time": 38.493296999999906,
                    "velocity": 0.18110236220472442,
                    "duration": 0.11255349999999709
                },
                {
                    "name": "B4",
                    "midi": 71,
                    "time": 38.9435109999999,
                    "velocity": 0.2047244094488189,
                    "duration": 0.11255349999999709
                },
                {
                    "name": "B3",
                    "midi": 59,
                    "time": 39.1123412499999,
                    "velocity": 0.1968503937007874,
                    "duration": 0.2813837500000034
                },
                {
                    "name": "E4",
                    "midi": 64,
                    "time": 39.1686179999999,
                    "velocity": 0.31496062992125984,
                    "duration": 0.22510700000000128
                },
                {
                    "name": "B4",
                    "midi": 71,
                    "time": 39.393724999999904,
                    "velocity": 0.25984251968503935,
                    "duration": 0.22510700000000128
                },
                {
                    "name": "D#5",
                    "midi": 75,
                    "time": 39.618831999999905,
                    "velocity": 0.2283464566929134,
                    "duration": 0.22510700000000128
                },
                {
                    "name": "G#5",
                    "midi": 80,
                    "time": 39.618831999999905,
                    "velocity": 0.33070866141732286,
                    "duration": 0.22510700000000128
                },
                {
                    "name": "D#5",
                    "midi": 75,
                    "time": 39.84393899999991,
                    "velocity": 0.2755905511811024,
                    "duration": 0.22510700000000128
                },
                {
                    "name": "G#4",
                    "midi": 68,
                    "time": 39.84393899999991,
                    "velocity": 0.1889763779527559,
                    "duration": 0.22510700000000128
                },
                {
                    "name": "G#5",
                    "midi": 80,
                    "time": 40.06904599999991,
                    "velocity": 0.2677165354330709,
                    "duration": 0.22510700000000128
                },
                {
                    "name": "C#6",
                    "midi": 85,
                    "time": 40.06904599999991,
                    "velocity": 0.3779527559055118,
                    "duration": 0.22510700000000128
                },
                {
                    "name": "D#5",
                    "midi": 75,
                    "time": 40.29415299999991,
                    "velocity": 0.2047244094488189,
                    "duration": 0.22510700000000128
                },
                {
                    "name": "G#5",
                    "midi": 80,
                    "time": 40.29415299999991,
                    "velocity": 0.29133858267716534,
                    "duration": 0.22510700000000128
                },
                {
                    "name": "F#5",
                    "midi": 78,
                    "time": 40.51925999999991,
                    "velocity": 0.33858267716535434,
                    "duration": 0.900427999999998
                },
                {
                    "name": "C#5",
                    "midi": 73,
                    "time": 40.51925999999991,
                    "velocity": 0.33858267716535434,
                    "duration": 0.16883024999999918
                },
                {
                    "name": "F#4",
                    "midi": 66,
                    "time": 40.74436699999991,
                    "velocity": 0.1732283464566929,
                    "duration": 0.33766049999999836
                },
                {
                    "name": "C#5",
                    "midi": 73,
                    "time": 40.74436699999991,
                    "velocity": 0.25196850393700787,
                    "duration": 0.33766049999999836
                },
                {
                    "name": "C#5",
                    "midi": 73,
                    "time": 41.19458099999991,
                    "velocity": 0.25196850393700787,
                    "duration": 0.16883024999999918
                },
                {
                    "name": "F#4",
                    "midi": 66,
                    "time": 41.19458099999991,
                    "velocity": 0.1732283464566929,
                    "duration": 0.16883024999999918
                },
                {
                    "name": "D#5",
                    "midi": 75,
                    "time": 41.41968799999991,
                    "velocity": 0.2204724409448819,
                    "duration": 0.22510700000000128
                },
                {
                    "name": "G#5",
                    "midi": 80,
                    "time": 41.41968799999991,
                    "velocity": 0.31496062992125984,
                    "duration": 0.22510700000000128
                },
                {
                    "name": "G#4",
                    "midi": 68,
                    "time": 41.64479499999991,
                    "velocity": 0.2204724409448819,
                    "duration": 0.22510700000000128
                },
                {
                    "name": "C#5",
                    "midi": 73,
                    "time": 41.64479499999991,
                    "velocity": 0.31496062992125984,
                    "duration": 0.22510700000000128
                },
                {
                    "name": "F#5",
                    "midi": 78,
                    "time": 41.86990199999991,
                    "velocity": 0.3464566929133858,
                    "duration": 0.22510700000000128
                },
                {
                    "name": "C#5",
                    "midi": 73,
                    "time": 41.86990199999991,
                    "velocity": 0.2440944881889764,
                    "duration": 0.22510700000000128
                },
                {
                    "name": "F#4",
                    "midi": 66,
                    "time": 42.09500899999991,
                    "velocity": 0.2204724409448819,
                    "duration": 0.22510700000000128
                },
                {
                    "name": "C#5",
                    "midi": 73,
                    "time": 42.09500899999991,
                    "velocity": 0.31496062992125984,
                    "duration": 0.22510700000000128
                },
                {
                    "name": "G#5",
                    "midi": 80,
                    "time": 42.32011599999991,
                    "velocity": 0.3228346456692913,
                    "duration": 0.22510700000000128
                },
                {
                    "name": "D#5",
                    "midi": 75,
                    "time": 42.32011599999991,
                    "velocity": 0.2204724409448819,
                    "duration": 0.22510700000000128
                },
                {
                    "name": "G#4",
                    "midi": 68,
                    "time": 42.545222999999915,
                    "velocity": 0.2204724409448819,
                    "duration": 0.22510700000000128
                },
                {
                    "name": "D#5",
                    "midi": 75,
                    "time": 42.545222999999915,
                    "velocity": 0.31496062992125984,
                    "duration": 0.22510700000000128
                },
                {
                    "name": "G#5",
                    "midi": 80,
                    "time": 42.770329999999916,
                    "velocity": 0.2677165354330709,
                    "duration": 0.22510700000000128
                },
                {
                    "name": "C#6",
                    "midi": 85,
                    "time": 42.770329999999916,
                    "velocity": 0.3858267716535433,
                    "duration": 0.22510700000000128
                },
                {
                    "name": "G#5",
                    "midi": 80,
                    "time": 42.99543699999992,
                    "velocity": 0.3228346456692913,
                    "duration": 0.22510700000000128
                },
                {
                    "name": "D#5",
                    "midi": 75,
                    "time": 42.99543699999992,
                    "velocity": 0.2204724409448819,
                    "duration": 0.22510700000000128
                },
                {
                    "name": "F#5",
                    "midi": 78,
                    "time": 43.22054399999992,
                    "velocity": 0.4015748031496063,
                    "duration": 1.3506419999999935
                },
                {
                    "name": "C#5",
                    "midi": 73,
                    "time": 43.22054399999992,
                    "velocity": 0.4015748031496063,
                    "duration": 0.16883024999999918
                },
                {
                    "name": "C#5",
                    "midi": 73,
                    "time": 43.44565099999992,
                    "velocity": 0.2677165354330709,
                    "duration": 0.33766049999999836
                },
                {
                    "name": "F#4",
                    "midi": 66,
                    "time": 43.44565099999992,
                    "velocity": 0.18110236220472442,
                    "duration": 0.33766049999999836
                },
                {
                    "name": "C#5",
                    "midi": 73,
                    "time": 43.895864999999915,
                    "velocity": 0.25196850393700787,
                    "duration": 0.33766049999999836
                },
                {
                    "name": "F#4",
                    "midi": 66,
                    "time": 43.895864999999915,
                    "velocity": 0.1732283464566929,
                    "duration": 0.33766049999999836
                },
                {
                    "name": "C#5",
                    "midi": 73,
                    "time": 44.34607899999991,
                    "velocity": 0.2677165354330709,
                    "duration": 0.16883024999999918
                },
                {
                    "name": "F#4",
                    "midi": 66,
                    "time": 44.34607899999991,
                    "velocity": 0.18110236220472442,
                    "duration": 0.16883024999999918
                },
                {
                    "name": "G#5",
                    "midi": 80,
                    "time": 44.57118599999991,
                    "velocity": 0.3543307086614173,
                    "duration": 0.45021400000000256
                },
                {
                    "name": "D#5",
                    "midi": 75,
                    "time": 44.57118599999991,
                    "velocity": 0.25196850393700787,
                    "duration": 0.22510700000000128
                },
                {
                    "name": "D#5",
                    "midi": 75,
                    "time": 44.79629299999991,
                    "velocity": 0.18110236220472442,
                    "duration": 0.22510700000000128
                },
                {
                    "name": "G#4",
                    "midi": 68,
                    "time": 44.79629299999991,
                    "velocity": 0.18110236220472442,
                    "duration": 0.22510700000000128
                },
                {
                    "name": "C#5",
                    "midi": 73,
                    "time": 45.021399999999915,
                    "velocity": 0.2204724409448819,
                    "duration": 0.22510700000000128
                },
                {
                    "name": "F#5",
                    "midi": 78,
                    "time": 45.021399999999915,
                    "velocity": 0.31496062992125984,
                    "duration": 0.45021400000000256
                },
                {
                    "name": "C#5",
                    "midi": 73,
                    "time": 45.246506999999916,
                    "velocity": 0.16535433070866143,
                    "duration": 0.22510700000000128
                },
                {
                    "name": "F#4",
                    "midi": 66,
                    "time": 45.246506999999916,
                    "velocity": 0.16535433070866143,
                    "duration": 0.22510700000000128
                },
                {
                    "name": "G#5",
                    "midi": 80,
                    "time": 45.47161399999992,
                    "velocity": 0.31496062992125984,
                    "duration": 0.45021400000000256
                },
                {
                    "name": "D#5",
                    "midi": 75,
                    "time": 45.47161399999992,
                    "velocity": 0.2204724409448819,
                    "duration": 0.22510700000000128
                },
                {
                    "name": "D#5",
                    "midi": 75,
                    "time": 45.69672099999992,
                    "velocity": 0.1732283464566929,
                    "duration": 0.22510700000000128
                },
                {
                    "name": "G#4",
                    "midi": 68,
                    "time": 45.69672099999992,
                    "velocity": 0.1732283464566929,
                    "duration": 0.22510700000000128
                },
                {
                    "name": "E4",
                    "midi": 64,
                    "time": 45.92182799999992,
                    "velocity": 0.2047244094488189,
                    "duration": 1.3506420000000006
                },
                {
                    "name": "G#4",
                    "midi": 68,
                    "time": 45.92182799999992,
                    "velocity": 0.2047244094488189,
                    "duration": 1.3506420000000006
                },
                {
                    "name": "C#5",
                    "midi": 73,
                    "time": 45.92182799999992,
                    "velocity": 0.3858267716535433,
                    "duration": 0.6753209999999967
                },
                {
                    "name": "D#5",
                    "midi": 75,
                    "time": 46.597148999999916,
                    "velocity": 0.29133858267716534,
                    "duration": 0.22510700000000128
                },
                {
                    "name": "C#5",
                    "midi": 73,
                    "time": 46.82225599999992,
                    "velocity": 0.29133858267716534,
                    "duration": 0.45021400000000256
                },
                {
                    "name": "E4",
                    "midi": 64,
                    "time": 47.27246999999992,
                    "velocity": 0.2047244094488189,
                    "duration": 1.3506420000000006
                },
                {
                    "name": "G4",
                    "midi": 67,
                    "time": 47.27246999999992,
                    "velocity": 0.2047244094488189,
                    "duration": 1.3506420000000006
                },
                {
                    "name": "D#5",
                    "midi": 75,
                    "time": 47.27246999999992,
                    "velocity": 0.3464566929133858,
                    "duration": 0.6753209999999967
                },
                {
                    "name": "C#5",
                    "midi": 73,
                    "time": 47.94779099999992,
                    "velocity": 0.2992125984251969,
                    "duration": 0.22510700000000128
                },
                {
                    "name": "D#5",
                    "midi": 75,
                    "time": 48.17289799999992,
                    "velocity": 0.2992125984251969,
                    "duration": 0.45021400000000256
                },
                {
                    "name": "E4",
                    "midi": 64,
                    "time": 48.62311199999992,
                    "velocity": 0.2047244094488189,
                    "duration": 1.3506420000000006
                },
                {
                    "name": "B4",
                    "midi": 71,
                    "time": 48.62311199999992,
                    "velocity": 0.2204724409448819,
                    "duration": 1.3506420000000006
                },
                {
                    "name": "C#5",
                    "midi": 73,
                    "time": 48.62311199999992,
                    "velocity": 0.33070866141732286,
                    "duration": 0.6753209999999967
                },
                {
                    "name": "D#5",
                    "midi": 75,
                    "time": 49.29843299999992,
                    "velocity": 0.29133858267716534,
                    "duration": 0.22510700000000128
                },
                {
                    "name": "C#5",
                    "midi": 73,
                    "time": 49.52353999999992,
                    "velocity": 0.29133858267716534,
                    "duration": 0.45021400000000256
                },
                {
                    "name": "E4",
                    "midi": 64,
                    "time": 49.97375399999992,
                    "velocity": 0.2047244094488189,
                    "duration": 1.3506420000000006
                },
                {
                    "name": "A#4",
                    "midi": 70,
                    "time": 49.97375399999992,
                    "velocity": 0.2047244094488189,
                    "duration": 1.3506420000000006
                },
                {
                    "name": "D#5",
                    "midi": 75,
                    "time": 49.97375399999992,
                    "velocity": 0.3228346456692913,
                    "duration": 0.6753209999999967
                },
                {
                    "name": "C#5",
                    "midi": 73,
                    "time": 50.64907499999992,
                    "velocity": 0.31496062992125984,
                    "duration": 0.22510700000000128
                },
                {
                    "name": "D#5",
                    "midi": 75,
                    "time": 50.87418199999992,
                    "velocity": 0.31496062992125984,
                    "duration": 0.45021400000000256
                },
                {
                    "name": "G#4",
                    "midi": 68,
                    "time": 51.54950299999992,
                    "velocity": 0.18110236220472442,
                    "duration": 0.22510700000000128
                },
                {
                    "name": "E4",
                    "midi": 64,
                    "time": 51.54950299999992,
                    "velocity": 0.14173228346456693,
                    "duration": 0.22510700000000128
                },
                {
                    "name": "B3",
                    "midi": 59,
                    "time": 51.54950299999992,
                    "velocity": 0.14173228346456693,
                    "duration": 0.22510700000000128
                },
                {
                    "name": "G#4",
                    "midi": 68,
                    "time": 51.999716999999926,
                    "velocity": 0.18110236220472442,
                    "duration": 0.22510700000000128
                },
                {
                    "name": "E4",
                    "midi": 64,
                    "time": 51.999716999999926,
                    "velocity": 0.14173228346456693,
                    "duration": 0.22510700000000128
                },
                {
                    "name": "B3",
                    "midi": 59,
                    "time": 51.999716999999926,
                    "velocity": 0.14173228346456693,
                    "duration": 0.22510700000000128
                },
                {
                    "name": "G#4",
                    "midi": 68,
                    "time": 52.44993099999993,
                    "velocity": 0.18110236220472442,
                    "duration": 0.22510700000000128
                },
                {
                    "name": "E4",
                    "midi": 64,
                    "time": 52.44993099999993,
                    "velocity": 0.14173228346456693,
                    "duration": 0.22510700000000128
                },
                {
                    "name": "B3",
                    "midi": 59,
                    "time": 52.44993099999993,
                    "velocity": 0.14173228346456693,
                    "duration": 0.22510700000000128
                },
                {
                    "name": "G4",
                    "midi": 67,
                    "time": 52.90014499999993,
                    "velocity": 0.18110236220472442,
                    "duration": 0.22510700000000128
                },
                {
                    "name": "E4",
                    "midi": 64,
                    "time": 52.90014499999993,
                    "velocity": 0.14173228346456693,
                    "duration": 0.22510700000000128
                },
                {
                    "name": "B3",
                    "midi": 59,
                    "time": 52.90014499999993,
                    "velocity": 0.14173228346456693,
                    "duration": 0.22510700000000128
                },
                {
                    "name": "G4",
                    "midi": 67,
                    "time": 53.35035899999993,
                    "velocity": 0.18110236220472442,
                    "duration": 0.22510700000000128
                },
                {
                    "name": "E4",
                    "midi": 64,
                    "time": 53.35035899999993,
                    "velocity": 0.14173228346456693,
                    "duration": 0.22510700000000128
                },
                {
                    "name": "B3",
                    "midi": 59,
                    "time": 53.35035899999993,
                    "velocity": 0.14173228346456693,
                    "duration": 0.22510700000000128
                },
                {
                    "name": "G4",
                    "midi": 67,
                    "time": 53.800572999999936,
                    "velocity": 0.18110236220472442,
                    "duration": 0.22510700000000128
                },
                {
                    "name": "E4",
                    "midi": 64,
                    "time": 53.800572999999936,
                    "velocity": 0.14173228346456693,
                    "duration": 0.22510700000000128
                },
                {
                    "name": "B3",
                    "midi": 59,
                    "time": 53.800572999999936,
                    "velocity": 0.14173228346456693,
                    "duration": 0.22510700000000128
                },
                {
                    "name": "F#4",
                    "midi": 66,
                    "time": 54.25078699999994,
                    "velocity": 0.18110236220472442,
                    "duration": 0.22510700000000128
                },
                {
                    "name": "E4",
                    "midi": 64,
                    "time": 54.25078699999994,
                    "velocity": 0.14173228346456693,
                    "duration": 0.22510700000000128
                },
                {
                    "name": "B3",
                    "midi": 59,
                    "time": 54.25078699999994,
                    "velocity": 0.14173228346456693,
                    "duration": 0.22510700000000128
                },
                {
                    "name": "F#4",
                    "midi": 66,
                    "time": 54.70100099999994,
                    "velocity": 0.18110236220472442,
                    "duration": 0.22510700000000128
                },
                {
                    "name": "E4",
                    "midi": 64,
                    "time": 54.70100099999994,
                    "velocity": 0.14173228346456693,
                    "duration": 0.22510700000000128
                },
                {
                    "name": "B3",
                    "midi": 59,
                    "time": 54.70100099999994,
                    "velocity": 0.14173228346456693,
                    "duration": 0.22510700000000128
                },
                {
                    "name": "F#4",
                    "midi": 66,
                    "time": 55.151214999999944,
                    "velocity": 0.18110236220472442,
                    "duration": 0.22510700000000128
                },
                {
                    "name": "E4",
                    "midi": 64,
                    "time": 55.151214999999944,
                    "velocity": 0.14173228346456693,
                    "duration": 0.22510700000000128
                },
                {
                    "name": "B3",
                    "midi": 59,
                    "time": 55.151214999999944,
                    "velocity": 0.14173228346456693,
                    "duration": 0.22510700000000128
                },
                {
                    "name": "F#4",
                    "midi": 66,
                    "time": 55.601428999999946,
                    "velocity": 0.18110236220472442,
                    "duration": 0.22510700000000128
                },
                {
                    "name": "E4",
                    "midi": 64,
                    "time": 55.601428999999946,
                    "velocity": 0.14173228346456693,
                    "duration": 0.22510700000000128
                },
                {
                    "name": "A#3",
                    "midi": 58,
                    "time": 55.601428999999946,
                    "velocity": 0.14173228346456693,
                    "duration": 0.22510700000000128
                },
                {
                    "name": "F#4",
                    "midi": 66,
                    "time": 56.05164299999995,
                    "velocity": 0.18110236220472442,
                    "duration": 0.22510700000000128
                },
                {
                    "name": "E4",
                    "midi": 64,
                    "time": 56.05164299999995,
                    "velocity": 0.14173228346456693,
                    "duration": 0.22510700000000128
                },
                {
                    "name": "A#3",
                    "midi": 58,
                    "time": 56.05164299999995,
                    "velocity": 0.14173228346456693,
                    "duration": 0.22510700000000128
                },
                {
                    "name": "F#4",
                    "midi": 66,
                    "time": 56.50185699999995,
                    "velocity": 0.18110236220472442,
                    "duration": 0.22510700000000128
                },
                {
                    "name": "E4",
                    "midi": 64,
                    "time": 56.50185699999995,
                    "velocity": 0.14173228346456693,
                    "duration": 0.22510700000000128
                },
                {
                    "name": "A#3",
                    "midi": 58,
                    "time": 56.50185699999995,
                    "velocity": 0.14173228346456693,
                    "duration": 0.22510700000000128
                },
                {
                    "name": "B3",
                    "midi": 59,
                    "time": 56.72696399999995,
                    "velocity": 0.2677165354330709,
                    "duration": 0.22510700000000128
                },
                {
                    "name": "B4",
                    "midi": 71,
                    "time": 56.952070999999954,
                    "velocity": 0.2283464566929134,
                    "duration": 0.11255349999999709
                },
                {
                    "name": "F#4",
                    "midi": 66,
                    "time": 56.952070999999954,
                    "velocity": 0.2283464566929134,
                    "duration": 0.11255349999999709
                },
                {
                    "name": "F#4",
                    "midi": 66,
                    "time": 57.40228499999995,
                    "velocity": 0.1889763779527559,
                    "duration": 0.11255349999999709
                },
                {
                    "name": "B3",
                    "midi": 59,
                    "time": 57.40228499999995,
                    "velocity": 0.1889763779527559,
                    "duration": 0.11255349999999709
                },
                {
                    "name": "B4",
                    "midi": 71,
                    "time": 57.40228499999995,
                    "velocity": 0.2283464566929134,
                    "duration": 0.11255349999999709
                },
                {
                    "name": "B3",
                    "midi": 59,
                    "time": 57.852498999999945,
                    "velocity": 0.1889763779527559,
                    "duration": 0.11255349999999709
                },
                {
                    "name": "B4",
                    "midi": 71,
                    "time": 57.852498999999945,
                    "velocity": 0.2283464566929134,
                    "duration": 0.11255349999999709
                },
                {
                    "name": "F#4",
                    "midi": 66,
                    "time": 57.852498999999945,
                    "velocity": 0.1889763779527559,
                    "duration": 0.11255349999999709
                },
                {
                    "name": "B3",
                    "midi": 59,
                    "time": 58.30271299999994,
                    "velocity": 0.1889763779527559,
                    "duration": 0.11255349999999709
                },
                {
                    "name": "F#4",
                    "midi": 66,
                    "time": 58.30271299999994,
                    "velocity": 0.1889763779527559,
                    "duration": 0.11255349999999709
                },
                {
                    "name": "B4",
                    "midi": 71,
                    "time": 58.30271299999994,
                    "velocity": 0.2283464566929134,
                    "duration": 0.11255349999999709
                },
                {
                    "name": "B3",
                    "midi": 59,
                    "time": 58.752926999999936,
                    "velocity": 0.1889763779527559,
                    "duration": 0.11255349999999709
                },
                {
                    "name": "F#4",
                    "midi": 66,
                    "time": 58.752926999999936,
                    "velocity": 0.1889763779527559,
                    "duration": 0.11255349999999709
                },
                {
                    "name": "B4",
                    "midi": 71,
                    "time": 58.752926999999936,
                    "velocity": 0.2283464566929134,
                    "duration": 0.11255349999999709
                },
                {
                    "name": "B3",
                    "midi": 59,
                    "time": 59.20314099999993,
                    "velocity": 0.1889763779527559,
                    "duration": 0.11255349999999709
                },
                {
                    "name": "F#4",
                    "midi": 66,
                    "time": 59.20314099999993,
                    "velocity": 0.1889763779527559,
                    "duration": 0.11255349999999709
                },
                {
                    "name": "B4",
                    "midi": 71,
                    "time": 59.20314099999993,
                    "velocity": 0.2283464566929134,
                    "duration": 0.11255349999999709
                },
                {
                    "name": "B4",
                    "midi": 71,
                    "time": 59.65335499999993,
                    "velocity": 0.1968503937007874,
                    "duration": 0.11255349999999709
                },
                {
                    "name": "F#4",
                    "midi": 66,
                    "time": 59.65335499999993,
                    "velocity": 0.16535433070866143,
                    "duration": 0.11255349999999709
                },
                {
                    "name": "F#4",
                    "midi": 66,
                    "time": 60.10356899999992,
                    "velocity": 0.1732283464566929,
                    "duration": 0.11255349999999709
                },
                {
                    "name": "B4",
                    "midi": 71,
                    "time": 60.10356899999992,
                    "velocity": 0.2047244094488189,
                    "duration": 0.11255349999999709
                },
                {
                    "name": "B4",
                    "midi": 71,
                    "time": 60.55378299999992,
                    "velocity": 0.2125984251968504,
                    "duration": 0.11255349999999709
                },
                {
                    "name": "F#4",
                    "midi": 66,
                    "time": 60.55378299999992,
                    "velocity": 0.1732283464566929,
                    "duration": 0.11255349999999709
                },
                {
                    "name": "F#4",
                    "midi": 66,
                    "time": 61.00399699999991,
                    "velocity": 0.18110236220472442,
                    "duration": 0.11255349999999709
                },
                {
                    "name": "B4",
                    "midi": 71,
                    "time": 61.00399699999991,
                    "velocity": 0.2204724409448819,
                    "duration": 0.11255349999999709
                },
                {
                    "name": "F#4",
                    "midi": 66,
                    "time": 61.45421099999991,
                    "velocity": 0.1889763779527559,
                    "duration": 0.11255349999999709
                },
                {
                    "name": "B4",
                    "midi": 71,
                    "time": 61.45421099999991,
                    "velocity": 0.2283464566929134,
                    "duration": 0.11255349999999709
                },
                {
                    "name": "B4",
                    "midi": 71,
                    "time": 61.904424999999904,
                    "velocity": 0.2440944881889764,
                    "duration": 0.11255349999999709
                },
                {
                    "name": "F#4",
                    "midi": 66,
                    "time": 61.904424999999904,
                    "velocity": 0.2047244094488189,
                    "duration": 0.11255349999999709
                },
                {
                    "name": "B4",
                    "midi": 71,
                    "time": 62.3546389999999,
                    "velocity": 0.2440944881889764,
                    "duration": 0.11255349999999709
                },
                {
                    "name": "G4",
                    "midi": 67,
                    "time": 62.3546389999999,
                    "velocity": 0.2047244094488189,
                    "duration": 0.11255349999999709
                },
                {
                    "name": "G4",
                    "midi": 67,
                    "time": 62.804852999999895,
                    "velocity": 0.1968503937007874,
                    "duration": 0.11255349999999709
                },
                {
                    "name": "B4",
                    "midi": 71,
                    "time": 62.804852999999895,
                    "velocity": 0.23622047244094488,
                    "duration": 0.11255349999999709
                },
                {
                    "name": "B4",
                    "midi": 71,
                    "time": 63.25506699999989,
                    "velocity": 0.2283464566929134,
                    "duration": 0.11255349999999709
                },
                {
                    "name": "G4",
                    "midi": 67,
                    "time": 63.25506699999989,
                    "velocity": 0.1889763779527559,
                    "duration": 0.11255349999999709
                },
                {
                    "name": "G4",
                    "midi": 67,
                    "time": 63.705280999999886,
                    "velocity": 0.18110236220472442,
                    "duration": 0.11255349999999709
                },
                {
                    "name": "B4",
                    "midi": 71,
                    "time": 63.705280999999886,
                    "velocity": 0.2204724409448819,
                    "duration": 0.11255349999999709
                },
                {
                    "name": "G4",
                    "midi": 67,
                    "time": 64.15549499999989,
                    "velocity": 0.1732283464566929,
                    "duration": 0.11255350000000419
                },
                {
                    "name": "B4",
                    "midi": 71,
                    "time": 64.15549499999989,
                    "velocity": 0.2125984251968504,
                    "duration": 0.11255350000000419
                },
                {
                    "name": "B4",
                    "midi": 71,
                    "time": 64.60570899999989,
                    "velocity": 0.2047244094488189,
                    "duration": 0.11255350000000419
                },
                {
                    "name": "G4",
                    "midi": 67,
                    "time": 64.60570899999989,
                    "velocity": 0.1732283464566929,
                    "duration": 0.11255350000000419
                },
                {
                    "name": "B4",
                    "midi": 71,
                    "time": 65.0559229999999,
                    "velocity": 0.1968503937007874,
                    "duration": 0.11255350000000419
                },
                {
                    "name": "F#4",
                    "midi": 66,
                    "time": 65.0559229999999,
                    "velocity": 0.16535433070866143,
                    "duration": 0.11255350000000419
                },
                {
                    "name": "F#4",
                    "midi": 66,
                    "time": 65.5061369999999,
                    "velocity": 0.1732283464566929,
                    "duration": 0.11255350000000419
                },
                {
                    "name": "B4",
                    "midi": 71,
                    "time": 65.5061369999999,
                    "velocity": 0.2047244094488189,
                    "duration": 0.11255350000000419
                },
                {
                    "name": "B4",
                    "midi": 71,
                    "time": 65.9563509999999,
                    "velocity": 0.2125984251968504,
                    "duration": 0.11255350000000419
                },
                {
                    "name": "F#4",
                    "midi": 66,
                    "time": 65.9563509999999,
                    "velocity": 0.1732283464566929,
                    "duration": 0.11255350000000419
                },
                {
                    "name": "F#4",
                    "midi": 66,
                    "time": 66.4065649999999,
                    "velocity": 0.18110236220472442,
                    "duration": 0.11255350000000419
                },
                {
                    "name": "B4",
                    "midi": 71,
                    "time": 66.4065649999999,
                    "velocity": 0.2204724409448819,
                    "duration": 0.11255350000000419
                },
                {
                    "name": "F#4",
                    "midi": 66,
                    "time": 66.8567789999999,
                    "velocity": 0.1889763779527559,
                    "duration": 0.11255350000000419
                },
                {
                    "name": "B4",
                    "midi": 71,
                    "time": 66.8567789999999,
                    "velocity": 0.2283464566929134,
                    "duration": 0.11255350000000419
                },
                {
                    "name": "B4",
                    "midi": 71,
                    "time": 67.3069929999999,
                    "velocity": 0.2440944881889764,
                    "duration": 0.11255350000000419
                },
                {
                    "name": "F#4",
                    "midi": 66,
                    "time": 67.3069929999999,
                    "velocity": 0.2047244094488189,
                    "duration": 0.11255350000000419
                },
                {
                    "name": "B4",
                    "midi": 71,
                    "time": 67.75720699999991,
                    "velocity": 0.2440944881889764,
                    "duration": 0.11255350000000419
                },
                {
                    "name": "A4",
                    "midi": 69,
                    "time": 67.75720699999991,
                    "velocity": 0.2047244094488189,
                    "duration": 0.11255350000000419
                },
                {
                    "name": "A4",
                    "midi": 69,
                    "time": 68.20742099999991,
                    "velocity": 0.1968503937007874,
                    "duration": 0.11255350000000419
                },
                {
                    "name": "B4",
                    "midi": 71,
                    "time": 68.20742099999991,
                    "velocity": 0.23622047244094488,
                    "duration": 0.11255350000000419
                },
                {
                    "name": "B4",
                    "midi": 71,
                    "time": 68.65763499999991,
                    "velocity": 0.2283464566929134,
                    "duration": 0.11255350000000419
                },
                {
                    "name": "G4",
                    "midi": 67,
                    "time": 68.65763499999991,
                    "velocity": 0.1889763779527559,
                    "duration": 0.11255350000000419
                },
                {
                    "name": "G4",
                    "midi": 67,
                    "time": 69.10784899999992,
                    "velocity": 0.18110236220472442,
                    "duration": 0.11255350000000419
                },
                {
                    "name": "B4",
                    "midi": 71,
                    "time": 69.10784899999992,
                    "velocity": 0.2204724409448819,
                    "duration": 0.11255350000000419
                },
                {
                    "name": "F4",
                    "midi": 65,
                    "time": 69.55806299999992,
                    "velocity": 0.1732283464566929,
                    "duration": 0.11255350000000419
                },
                {
                    "name": "B4",
                    "midi": 71,
                    "time": 69.55806299999992,
                    "velocity": 0.2125984251968504,
                    "duration": 0.11255350000000419
                },
                {
                    "name": "G4",
                    "midi": 67,
                    "time": 70.00827699999992,
                    "velocity": 0.2047244094488189,
                    "duration": 0.11255350000000419
                },
                {
                    "name": "F4",
                    "midi": 65,
                    "time": 70.00827699999992,
                    "velocity": 0.1732283464566929,
                    "duration": 0.11255350000000419
                },
                {
                    "name": "G4",
                    "midi": 67,
                    "time": 70.45849099999992,
                    "velocity": 0.1968503937007874,
                    "duration": 0.11255350000000419
                },
                {
                    "name": "F4",
                    "midi": 65,
                    "time": 70.45849099999992,
                    "velocity": 0.16535433070866143,
                    "duration": 0.11255350000000419
                },
                {
                    "name": "F4",
                    "midi": 65,
                    "time": 70.90870499999993,
                    "velocity": 0.1732283464566929,
                    "duration": 0.11255350000000419
                },
                {
                    "name": "G4",
                    "midi": 67,
                    "time": 70.90870499999993,
                    "velocity": 0.2047244094488189,
                    "duration": 0.11255350000000419
                },
                {
                    "name": "G4",
                    "midi": 67,
                    "time": 71.35891899999993,
                    "velocity": 0.2125984251968504,
                    "duration": 0.11255350000000419
                },
                {
                    "name": "F4",
                    "midi": 65,
                    "time": 71.35891899999993,
                    "velocity": 0.1732283464566929,
                    "duration": 0.11255350000000419
                },
                {
                    "name": "E4",
                    "midi": 64,
                    "time": 71.80913299999993,
                    "velocity": 0.18110236220472442,
                    "duration": 0.11255350000000419
                },
                {
                    "name": "A4",
                    "midi": 69,
                    "time": 71.80913299999993,
                    "velocity": 0.2204724409448819,
                    "duration": 0.11255350000000419
                },
                {
                    "name": "A4",
                    "midi": 69,
                    "time": 72.25934699999993,
                    "velocity": 0.2047244094488189,
                    "duration": 0.11255350000000419
                },
                {
                    "name": "E4",
                    "midi": 64,
                    "time": 72.25934699999993,
                    "velocity": 0.1732283464566929,
                    "duration": 0.11255350000000419
                },
                {
                    "name": "E4",
                    "midi": 64,
                    "time": 72.70956099999994,
                    "velocity": 0.16535433070866143,
                    "duration": 0.11255350000000419
                },
                {
                    "name": "A4",
                    "midi": 69,
                    "time": 72.70956099999994,
                    "velocity": 0.1968503937007874,
                    "duration": 0.11255350000000419
                },
                {
                    "name": "G4",
                    "midi": 67,
                    "time": 73.15977499999994,
                    "velocity": 0.1968503937007874,
                    "duration": 0.11255350000000419
                },
                {
                    "name": "F4",
                    "midi": 65,
                    "time": 73.15977499999994,
                    "velocity": 0.16535433070866143,
                    "duration": 0.11255350000000419
                },
                {
                    "name": "F4",
                    "midi": 65,
                    "time": 73.60998899999994,
                    "velocity": 0.1732283464566929,
                    "duration": 0.11255350000000419
                },
                {
                    "name": "G4",
                    "midi": 67,
                    "time": 73.60998899999994,
                    "velocity": 0.2047244094488189,
                    "duration": 0.11255350000000419
                },
                {
                    "name": "G4",
                    "midi": 67,
                    "time": 74.06020299999994,
                    "velocity": 0.2125984251968504,
                    "duration": 0.11255350000000419
                },
                {
                    "name": "F4",
                    "midi": 65,
                    "time": 74.06020299999994,
                    "velocity": 0.1732283464566929,
                    "duration": 0.11255350000000419
                },
                {
                    "name": "A4",
                    "midi": 69,
                    "time": 74.51041699999995,
                    "velocity": 0.2440944881889764,
                    "duration": 0.11255350000000419
                },
                {
                    "name": "E4",
                    "midi": 64,
                    "time": 74.51041699999995,
                    "velocity": 0.2047244094488189,
                    "duration": 0.11255350000000419
                },
                {
                    "name": "A4",
                    "midi": 69,
                    "time": 74.96063099999995,
                    "velocity": 0.28346456692913385,
                    "duration": 0.11255350000000419
                },
                {
                    "name": "F4",
                    "midi": 65,
                    "time": 74.96063099999995,
                    "velocity": 0.2283464566929134,
                    "duration": 0.11255350000000419
                },
                {
                    "name": "G4",
                    "midi": 67,
                    "time": 75.41084499999995,
                    "velocity": 0.29133858267716534,
                    "duration": 0.11255350000000419
                },
                {
                    "name": "A4",
                    "midi": 69,
                    "time": 75.41084499999995,
                    "velocity": 0.3464566929133858,
                    "duration": 0.11255350000000419
                },
                {
                    "name": "A#4",
                    "midi": 70,
                    "time": 75.86105899999995,
                    "velocity": 0.1968503937007874,
                    "duration": 0.11255350000000419
                },
                {
                    "name": "G#4",
                    "midi": 68,
                    "time": 75.86105899999995,
                    "velocity": 0.16535433070866143,
                    "duration": 0.11255350000000419
                },
                {
                    "name": "G#4",
                    "midi": 68,
                    "time": 76.31127299999996,
                    "velocity": 0.1732283464566929,
                    "duration": 0.11255350000000419
                },
                {
                    "name": "A#4",
                    "midi": 70,
                    "time": 76.31127299999996,
                    "velocity": 0.2047244094488189,
                    "duration": 0.11255350000000419
                },
                {
                    "name": "A#4",
                    "midi": 70,
                    "time": 76.76148699999996,
                    "velocity": 0.2125984251968504,
                    "duration": 0.11255350000000419
                },
                {
                    "name": "G#4",
                    "midi": 68,
                    "time": 76.76148699999996,
                    "velocity": 0.1732283464566929,
                    "duration": 0.11255350000000419
                },
                {
                    "name": "G4",
                    "midi": 67,
                    "time": 77.21170099999996,
                    "velocity": 0.18110236220472442,
                    "duration": 0.11255350000000419
                },
                {
                    "name": "C5",
                    "midi": 72,
                    "time": 77.21170099999996,
                    "velocity": 0.2204724409448819,
                    "duration": 0.11255350000000419
                },
                {
                    "name": "C5",
                    "midi": 72,
                    "time": 77.66191499999996,
                    "velocity": 0.2047244094488189,
                    "duration": 0.11255350000000419
                },
                {
                    "name": "G4",
                    "midi": 67,
                    "time": 77.66191499999996,
                    "velocity": 0.1732283464566929,
                    "duration": 0.11255350000000419
                },
                {
                    "name": "G4",
                    "midi": 67,
                    "time": 78.11212899999997,
                    "velocity": 0.16535433070866143,
                    "duration": 0.11255350000000419
                },
                {
                    "name": "C5",
                    "midi": 72,
                    "time": 78.11212899999997,
                    "velocity": 0.1968503937007874,
                    "duration": 0.11255350000000419
                },
                {
                    "name": "A#4",
                    "midi": 70,
                    "time": 78.56234299999997,
                    "velocity": 0.1968503937007874,
                    "duration": 0.11255350000000419
                },
                {
                    "name": "G#4",
                    "midi": 68,
                    "time": 78.56234299999997,
                    "velocity": 0.16535433070866143,
                    "duration": 0.11255350000000419
                },
                {
                    "name": "G#4",
                    "midi": 68,
                    "time": 79.01255699999997,
                    "velocity": 0.1732283464566929,
                    "duration": 0.11255350000000419
                },
                {
                    "name": "A#4",
                    "midi": 70,
                    "time": 79.01255699999997,
                    "velocity": 0.2047244094488189,
                    "duration": 0.11255350000000419
                },
                {
                    "name": "A#4",
                    "midi": 70,
                    "time": 79.46277099999998,
                    "velocity": 0.2125984251968504,
                    "duration": 0.11255350000000419
                },
                {
                    "name": "G#4",
                    "midi": 68,
                    "time": 79.46277099999998,
                    "velocity": 0.1732283464566929,
                    "duration": 0.11255350000000419
                },
                {
                    "name": "C5",
                    "midi": 72,
                    "time": 79.91298499999998,
                    "velocity": 0.2440944881889764,
                    "duration": 0.11255350000000419
                },
                {
                    "name": "G4",
                    "midi": 67,
                    "time": 79.91298499999998,
                    "velocity": 0.2047244094488189,
                    "duration": 0.11255350000000419
                },
                {
                    "name": "C5",
                    "midi": 72,
                    "time": 80.36319899999998,
                    "velocity": 0.28346456692913385,
                    "duration": 0.11255350000000419
                },
                {
                    "name": "G#4",
                    "midi": 68,
                    "time": 80.36319899999998,
                    "velocity": 0.2283464566929134,
                    "duration": 0.11255350000000419
                },
                {
                    "name": "A#4",
                    "midi": 70,
                    "time": 80.81341299999998,
                    "velocity": 0.29133858267716534,
                    "duration": 0.11255350000000419
                },
                {
                    "name": "C5",
                    "midi": 72,
                    "time": 80.81341299999998,
                    "velocity": 0.3464566929133858,
                    "duration": 0.11255350000000419
                },
                {
                    "name": "C5",
                    "midi": 72,
                    "time": 81.488734,
                    "velocity": 0.33070866141732286,
                    "duration": 0.11255350000000419
                },
                {
                    "name": "D#5",
                    "midi": 75,
                    "time": 81.713841,
                    "velocity": 0.2992125984251969,
                    "duration": 0.11255350000000419
                },
                {
                    "name": "D5",
                    "midi": 74,
                    "time": 81.93894800000001,
                    "velocity": 0.33070866141732286,
                    "duration": 0.11255350000000419
                },
                {
                    "name": "C5",
                    "midi": 72,
                    "time": 82.16405500000002,
                    "velocity": 0.29133858267716534,
                    "duration": 0.11255350000000419
                },
                {
                    "name": "A#4",
                    "midi": 70,
                    "time": 82.38916200000003,
                    "velocity": 0.33070866141732286,
                    "duration": 0.11255350000000419
                },
                {
                    "name": "G#4",
                    "midi": 68,
                    "time": 82.61426900000004,
                    "velocity": 0.29133858267716534,
                    "duration": 0.11255350000000419
                },
                {
                    "name": "G4",
                    "midi": 67,
                    "time": 82.83937600000004,
                    "velocity": 0.3228346456692913,
                    "duration": 0.11255350000000419
                },
                {
                    "name": "F4",
                    "midi": 65,
                    "time": 83.06448300000005,
                    "velocity": 0.2992125984251969,
                    "duration": 0.11255350000000419
                },
                {
                    "name": "D#4",
                    "midi": 63,
                    "time": 83.28959000000006,
                    "velocity": 0.3228346456692913,
                    "duration": 0.11255350000000419
                },
                {
                    "name": "D4",
                    "midi": 62,
                    "time": 83.51469700000007,
                    "velocity": 0.25984251968503935,
                    "duration": 0.11255350000000419
                },
                {
                    "name": "C4",
                    "midi": 60,
                    "time": 83.73980400000008,
                    "velocity": 0.33070866141732286,
                    "duration": 0.22510699999999417
                },
                {
                    "name": "D#4",
                    "midi": 63,
                    "time": 83.96491100000007,
                    "velocity": 0.2992125984251969,
                    "duration": 0.22510699999999417
                },
                {
                    "name": "D#4",
                    "midi": 63,
                    "time": 84.19001800000007,
                    "velocity": 0.2440944881889764,
                    "duration": 0.11255350000000419
                },
                {
                    "name": "G4",
                    "midi": 67,
                    "time": 84.19001800000007,
                    "velocity": 0.29133858267716534,
                    "duration": 0.11255350000000419
                },
                {
                    "name": "D#4",
                    "midi": 63,
                    "time": 84.64023200000007,
                    "velocity": 0.1968503937007874,
                    "duration": 0.11255350000000419
                },
                {
                    "name": "G4",
                    "midi": 67,
                    "time": 84.64023200000007,
                    "velocity": 0.23622047244094488,
                    "duration": 0.11255350000000419
                },
                {
                    "name": "C4",
                    "midi": 60,
                    "time": 85.09044600000007,
                    "velocity": 0.33070866141732286,
                    "duration": 0.22510699999999417
                },
                {
                    "name": "D#4",
                    "midi": 63,
                    "time": 85.31555300000007,
                    "velocity": 0.29133858267716534,
                    "duration": 0.22510699999999417
                },
                {
                    "name": "D#4",
                    "midi": 63,
                    "time": 85.54066000000006,
                    "velocity": 0.1889763779527559,
                    "duration": 0.11255350000000419
                },
                {
                    "name": "G4",
                    "midi": 67,
                    "time": 85.54066000000006,
                    "velocity": 0.2283464566929134,
                    "duration": 0.11255350000000419
                },
                {
                    "name": "D4",
                    "midi": 62,
                    "time": 85.99087400000006,
                    "velocity": 0.14173228346456693,
                    "duration": 0.11255350000000419
                },
                {
                    "name": "G4",
                    "midi": 67,
                    "time": 85.99087400000006,
                    "velocity": 0.1732283464566929,
                    "duration": 0.11255350000000419
                },
                {
                    "name": "C4",
                    "midi": 60,
                    "time": 91.84365600000007,
                    "velocity": 0.2204724409448819,
                    "duration": 0.1641405208333282
                },
                {
                    "name": "D#4",
                    "midi": 63,
                    "time": 91.84365600000007,
                    "velocity": 0.2992125984251969,
                    "duration": 0.1641405208333282
                },
                {
                    "name": "F#4",
                    "midi": 66,
                    "time": 92.06876300000006,
                    "velocity": 0.3228346456692913,
                    "duration": 1.125534999999985
                },
                {
                    "name": "A#4",
                    "midi": 70,
                    "time": 92.29387000000006,
                    "velocity": 0.36220472440944884,
                    "duration": 0.9004279999999909
                },
                {
                    "name": "C4",
                    "midi": 60,
                    "time": 92.68780725000005,
                    "velocity": 0.15748031496062992,
                    "duration": 0.16883024999999918
                },
                {
                    "name": "D#4",
                    "midi": 63,
                    "time": 92.74408400000004,
                    "velocity": 0.2125984251968504,
                    "duration": 0.11255350000000419
                },
                {
                    "name": "D4",
                    "midi": 62,
                    "time": 93.19429800000005,
                    "velocity": 0.2204724409448819,
                    "duration": 0.1641405208333282
                },
                {
                    "name": "F4",
                    "midi": 65,
                    "time": 93.19429800000005,
                    "velocity": 0.2992125984251969,
                    "duration": 0.1641405208333282
                },
                {
                    "name": "G#4",
                    "midi": 68,
                    "time": 93.41940500000004,
                    "velocity": 0.3228346456692913,
                    "duration": 1.125534999999985
                },
                {
                    "name": "C5",
                    "midi": 72,
                    "time": 93.64451200000003,
                    "velocity": 0.36220472440944884,
                    "duration": 0.9004279999999909
                },
                {
                    "name": "D4",
                    "midi": 62,
                    "time": 94.03844925000003,
                    "velocity": 0.15748031496062992,
                    "duration": 0.16883024999999918
                },
                {
                    "name": "F4",
                    "midi": 65,
                    "time": 94.09472600000002,
                    "velocity": 0.2125984251968504,
                    "duration": 0.11255350000000419
                },
                {
                    "name": "C4",
                    "midi": 60,
                    "time": 94.54494000000003,
                    "velocity": 0.2204724409448819,
                    "duration": 0.6753209999999825
                },
                {
                    "name": "D#4",
                    "midi": 63,
                    "time": 94.54494000000003,
                    "velocity": 0.2992125984251969,
                    "duration": 0.6753209999999825
                },
                {
                    "name": "F#4",
                    "midi": 66,
                    "time": 94.77004700000002,
                    "velocity": 0.3228346456692913,
                    "duration": 0.22510699999999417
                },
                {
                    "name": "A#4",
                    "midi": 70,
                    "time": 94.99515400000001,
                    "velocity": 0.36220472440944884,
                    "duration": 0.22510699999999417
                },
                {
                    "name": "C4",
                    "midi": 60,
                    "time": 95.22026100000001,
                    "velocity": 0.2204724409448819,
                    "duration": 0.6753209999999825
                },
                {
                    "name": "D#4",
                    "midi": 63,
                    "time": 95.22026100000001,
                    "velocity": 0.2992125984251969,
                    "duration": 0.6753209999999825
                },
                {
                    "name": "F#4",
                    "midi": 66,
                    "time": 95.445368,
                    "velocity": 0.3228346456692913,
                    "duration": 0.22510699999999417
                },
                {
                    "name": "A#4",
                    "midi": 70,
                    "time": 95.670475,
                    "velocity": 0.36220472440944884,
                    "duration": 0.22510699999999417
                },
                {
                    "name": "D4",
                    "midi": 62,
                    "time": 95.89558199999999,
                    "velocity": 0.2204724409448819,
                    "duration": 0.1641405208333282
                },
                {
                    "name": "F4",
                    "midi": 65,
                    "time": 95.89558199999999,
                    "velocity": 0.2992125984251969,
                    "duration": 0.1641405208333282
                },
                {
                    "name": "G#4",
                    "midi": 68,
                    "time": 96.12068899999998,
                    "velocity": 0.3228346456692913,
                    "duration": 0.33766049999999836
                },
                {
                    "name": "C5",
                    "midi": 72,
                    "time": 96.34579599999998,
                    "velocity": 0.36220472440944884,
                    "duration": 0.11255350000000419
                },
                {
                    "name": "D4",
                    "midi": 62,
                    "time": 96.71159487499999,
                    "velocity": 0.3464566929133858,
                    "duration": 0.19696862499999668
                },
                {
                    "name": "F4",
                    "midi": 65,
                    "time": 96.73973324999999,
                    "velocity": 0.36220472440944884,
                    "duration": 0.16883024999999918
                },
                {
                    "name": "G#4",
                    "midi": 68,
                    "time": 96.76787162499998,
                    "velocity": 0.3700787401574803,
                    "duration": 0.1406918750000017
                },
                {
                    "name": "C5",
                    "midi": 72,
                    "time": 96.79600999999998,
                    "velocity": 0.3937007874015748,
                    "duration": 0.11255350000000419
                },
                {
                    "name": "D4",
                    "midi": 62,
                    "time": 97.69643799999999,
                    "velocity": 0.2204724409448819,
                    "duration": 0.9004279999999909
                },
                {
                    "name": "F4",
                    "midi": 65,
                    "time": 97.69643799999999,
                    "velocity": 0.2992125984251969,
                    "duration": 0.9004279999999909
                },
                {
                    "name": "G#4",
                    "midi": 68,
                    "time": 97.92154499999998,
                    "velocity": 0.3228346456692913,
                    "duration": 0.6753209999999967
                },
                {
                    "name": "C5",
                    "midi": 72,
                    "time": 98.14665199999997,
                    "velocity": 0.36220472440944884,
                    "duration": 0.45021400000000256
                },
                {
                    "name": "E4",
                    "midi": 64,
                    "time": 99.04707999999998,
                    "velocity": 0.2204724409448819,
                    "duration": 0.9004279999999909
                },
                {
                    "name": "G4",
                    "midi": 67,
                    "time": 99.04707999999998,
                    "velocity": 0.2992125984251969,
                    "duration": 0.9004279999999909
                },
                {
                    "name": "A#4",
                    "midi": 70,
                    "time": 99.27218699999997,
                    "velocity": 0.3228346456692913,
                    "duration": 0.6753209999999967
                },
                {
                    "name": "D5",
                    "midi": 74,
                    "time": 99.49729399999997,
                    "velocity": 0.36220472440944884,
                    "duration": 0.45021400000000256
                },
                {
                    "name": "D4",
                    "midi": 62,
                    "time": 99.94750799999997,
                    "velocity": 0.2204724409448819,
                    "duration": 0.6753209999999825
                },
                {
                    "name": "F4",
                    "midi": 65,
                    "time": 99.94750799999997,
                    "velocity": 0.2992125984251969,
                    "duration": 0.6753209999999825
                },
                {
                    "name": "G#4",
                    "midi": 68,
                    "time": 100.17261499999996,
                    "velocity": 0.3228346456692913,
                    "duration": 0.22510699999999417
                },
                {
                    "name": "C5",
                    "midi": 72,
                    "time": 100.39772199999996,
                    "velocity": 0.36220472440944884,
                    "duration": 0.22510699999999417
                },
                {
                    "name": "D4",
                    "midi": 62,
                    "time": 100.62282899999995,
                    "velocity": 0.2204724409448819,
                    "duration": 0.6753209999999825
                },
                {
                    "name": "F4",
                    "midi": 65,
                    "time": 100.62282899999995,
                    "velocity": 0.2992125984251969,
                    "duration": 0.6753209999999825
                },
                {
                    "name": "G#4",
                    "midi": 68,
                    "time": 100.84793599999995,
                    "velocity": 0.3228346456692913,
                    "duration": 0.22510699999999417
                },
                {
                    "name": "C5",
                    "midi": 72,
                    "time": 101.07304299999994,
                    "velocity": 0.36220472440944884,
                    "duration": 0.22510699999999417
                },
                {
                    "name": "E4",
                    "midi": 64,
                    "time": 101.29814999999994,
                    "velocity": 0.2204724409448819,
                    "duration": 0.1641405208333282
                },
                {
                    "name": "G4",
                    "midi": 67,
                    "time": 101.29814999999994,
                    "velocity": 0.2992125984251969,
                    "duration": 0.1641405208333282
                },
                {
                    "name": "A#4",
                    "midi": 70,
                    "time": 101.52325699999993,
                    "velocity": 0.3228346456692913,
                    "duration": 0.33766049999999836
                },
                {
                    "name": "D5",
                    "midi": 74,
                    "time": 101.74273632499992,
                    "velocity": 0.36220472440944884,
                    "duration": 0.11255350000000419
                },
                {
                    "name": "E4",
                    "midi": 64,
                    "time": 102.11416287499993,
                    "velocity": 0.3464566929133858,
                    "duration": 0.19696862499999668
                },
                {
                    "name": "G4",
                    "midi": 67,
                    "time": 102.14230124999993,
                    "velocity": 0.36220472440944884,
                    "duration": 0.16883024999999918
                },
                {
                    "name": "A#4",
                    "midi": 70,
                    "time": 102.17043962499993,
                    "velocity": 0.3700787401574803,
                    "duration": 0.1406918750000017
                },
                {
                    "name": "D5",
                    "midi": 74,
                    "time": 102.19857799999993,
                    "velocity": 0.3937007874015748,
                    "duration": 0.11255350000000419
                },
                {
                    "name": "E4",
                    "midi": 64,
                    "time": 102.64879199999993,
                    "velocity": 0.2204724409448819,
                    "duration": 0.1641405208333282
                },
                {
                    "name": "G4",
                    "midi": 67,
                    "time": 102.64879199999993,
                    "velocity": 0.2992125984251969,
                    "duration": 0.1641405208333282
                },
                {
                    "name": "A#4",
                    "midi": 70,
                    "time": 102.87389899999992,
                    "velocity": 0.3228346456692913,
                    "duration": 0.33766049999999836
                },
                {
                    "name": "D5",
                    "midi": 74,
                    "time": 103.09337832499992,
                    "velocity": 0.36220472440944884,
                    "duration": 0.11255350000000419
                },
                {
                    "name": "G4",
                    "midi": 67,
                    "time": 103.54921999999992,
                    "velocity": 0.3228346456692913,
                    "duration": 0.11255350000000419
                },
                {
                    "name": "A#4",
                    "midi": 70,
                    "time": 103.54921999999992,
                    "velocity": 0.33070866141732286,
                    "duration": 0.11255350000000419
                },
                {
                    "name": "F5",
                    "midi": 77,
                    "time": 103.54921999999992,
                    "velocity": 0.3543307086614173,
                    "duration": 0.11255350000000419
                },
                {
                    "name": "A#4",
                    "midi": 70,
                    "time": 103.94315724999993,
                    "velocity": 0.36220472440944884,
                    "duration": 0.16883024999999918
                },
                {
                    "name": "C#5",
                    "midi": 73,
                    "time": 103.97129562499993,
                    "velocity": 0.3700787401574803,
                    "duration": 0.1406918750000017
                },
                {
                    "name": "G#5",
                    "midi": 80,
                    "time": 103.99943399999992,
                    "velocity": 0.3937007874015748,
                    "duration": 0.11255350000000419
                },
                {
                    "name": "E4",
                    "midi": 64,
                    "time": 105.35007599999993,
                    "velocity": 0.2204724409448819,
                    "duration": 0.6753209999999825
                },
                {
                    "name": "G4",
                    "midi": 67,
                    "time": 105.35007599999993,
                    "velocity": 0.2992125984251969,
                    "duration": 0.6753209999999825
                },
                {
                    "name": "A#4",
                    "midi": 70,
                    "time": 105.57518299999992,
                    "velocity": 0.33070866141732286,
                    "duration": 0.22510699999999417
                },
                {
                    "name": "D5",
                    "midi": 74,
                    "time": 105.80028999999992,
                    "velocity": 0.3858267716535433,
                    "duration": 0.22510699999999417
                },
                {
                    "name": "G4",
                    "midi": 67,
                    "time": 106.02539699999991,
                    "velocity": 0.23622047244094488,
                    "duration": 0.6753209999999825
                },
                {
                    "name": "A#4",
                    "midi": 70,
                    "time": 106.02539699999991,
                    "velocity": 0.3228346456692913,
                    "duration": 0.22510699999999417
                },
                {
                    "name": "C#5",
                    "midi": 73,
                    "time": 106.2505039999999,
                    "velocity": 0.36220472440944884,
                    "duration": 0.22510699999999417
                },
                {
                    "name": "F5",
                    "midi": 77,
                    "time": 106.4756109999999,
                    "velocity": 0.4251968503937008,
                    "duration": 0.16883024999999918
                },
                {
                    "name": "A#4",
                    "midi": 70,
                    "time": 106.6444412499999,
                    "velocity": 0.36220472440944884,
                    "duration": 0.16883024999999918
                },
                {
                    "name": "C#5",
                    "midi": 73,
                    "time": 106.6725796249999,
                    "velocity": 0.3700787401574803,
                    "duration": 0.1406918750000017
                },
                {
                    "name": "G#5",
                    "midi": 80,
                    "time": 106.7007179999999,
                    "velocity": 0.3937007874015748,
                    "duration": 0.11255350000000419
                },
                {
                    "name": "A#4",
                    "midi": 70,
                    "time": 107.9950832499999,
                    "velocity": 0.36220472440944884,
                    "duration": 0.16883024999999918
                },
                {
                    "name": "C#5",
                    "midi": 73,
                    "time": 108.02322162499989,
                    "velocity": 0.3700787401574803,
                    "duration": 0.1406918750000017
                },
                {
                    "name": "G#5",
                    "midi": 80,
                    "time": 108.05135999999989,
                    "velocity": 0.3937007874015748,
                    "duration": 0.11255350000000419
                },
                {
                    "name": "A#4",
                    "midi": 70,
                    "time": 109.34572524999989,
                    "velocity": 0.3228346456692913,
                    "duration": 0.16883024999999918
                },
                {
                    "name": "C#5",
                    "midi": 73,
                    "time": 109.37386362499988,
                    "velocity": 0.33070866141732286,
                    "duration": 0.1406918750000017
                },
                {
                    "name": "G#5",
                    "midi": 80,
                    "time": 109.40200199999988,
                    "velocity": 0.3543307086614173,
                    "duration": 0.11255350000000419
                },
                {
                    "name": "G#5",
                    "midi": 80,
                    "time": 111.65307199999988,
                    "velocity": 0.3543307086614173,
                    "duration": 0.22510699999999417
                },
                {
                    "name": "C#6",
                    "midi": 85,
                    "time": 111.87817899999988,
                    "velocity": 0.28346456692913385,
                    "duration": 0.22510699999999417
                },
                {
                    "name": "C#5",
                    "midi": 73,
                    "time": 112.10328599999987,
                    "velocity": 0.2677165354330709,
                    "duration": 0.11255350000000419
                },
                {
                    "name": "F#5",
                    "midi": 78,
                    "time": 112.10328599999987,
                    "velocity": 0.3464566929133858,
                    "duration": 0.9004280000000051
                },
                {
                    "name": "C#5",
                    "midi": 73,
                    "time": 112.55349999999987,
                    "velocity": 0.2677165354330709,
                    "duration": 0.11255350000000419
                },
                {
                    "name": "C#5",
                    "midi": 73,
                    "time": 113.00371399999987,
                    "velocity": 0.2677165354330709,
                    "duration": 0.11255350000000419
                },
                {
                    "name": "G#5",
                    "midi": 80,
                    "time": 113.00371399999987,
                    "velocity": 0.25984251968503935,
                    "duration": 0.22510700000000838
                },
                {
                    "name": "C#6",
                    "midi": 85,
                    "time": 113.22882099999988,
                    "velocity": 0.31496062992125984,
                    "duration": 0.22510699999999417
                },
                {
                    "name": "F#5",
                    "midi": 78,
                    "time": 113.45392799999988,
                    "velocity": 0.31496062992125984,
                    "duration": 0.11255350000000419
                },
                {
                    "name": "C#5",
                    "midi": 73,
                    "time": 113.45392799999988,
                    "velocity": 0.2677165354330709,
                    "duration": 0.11255350000000419
                },
                {
                    "name": "G#5",
                    "midi": 80,
                    "time": 113.90414199999988,
                    "velocity": 0.31496062992125984,
                    "duration": 0.11255350000000419
                },
                {
                    "name": "C#5",
                    "midi": 73,
                    "time": 113.90414199999988,
                    "velocity": 0.2677165354330709,
                    "duration": 0.11255350000000419
                },
                {
                    "name": "C#5",
                    "midi": 73,
                    "time": 114.35435599999988,
                    "velocity": 0.2677165354330709,
                    "duration": 0.11255350000000419
                },
                {
                    "name": "C#5",
                    "midi": 73,
                    "time": 114.80456999999988,
                    "velocity": 0.2755905511811024,
                    "duration": 0.11255350000000419
                },
                {
                    "name": "F#5",
                    "midi": 78,
                    "time": 114.80456999999988,
                    "velocity": 0.33070866141732286,
                    "duration": 1.3506420000000077
                },
                {
                    "name": "C#5",
                    "midi": 73,
                    "time": 115.25478399999989,
                    "velocity": 0.2992125984251969,
                    "duration": 0.11255350000000419
                },
                {
                    "name": "C#5",
                    "midi": 73,
                    "time": 115.70499799999989,
                    "velocity": 0.2992125984251969,
                    "duration": 0.11255350000000419
                },
                {
                    "name": "C5",
                    "midi": 72,
                    "time": 116.15521199999989,
                    "velocity": 0.25196850393700787,
                    "duration": 0.11255350000000419
                },
                {
                    "name": "G#5",
                    "midi": 80,
                    "time": 116.15521199999989,
                    "velocity": 0.2992125984251969,
                    "duration": 0.11255350000000419
                },
                {
                    "name": "C#5",
                    "midi": 73,
                    "time": 116.6054259999999,
                    "velocity": 0.2677165354330709,
                    "duration": 0.11255350000000419
                },
                {
                    "name": "F#5",
                    "midi": 78,
                    "time": 116.6054259999999,
                    "velocity": 0.3228346456692913,
                    "duration": 0.11255350000000419
                },
                {
                    "name": "D5",
                    "midi": 74,
                    "time": 117.0556399999999,
                    "velocity": 0.3228346456692913,
                    "duration": 0.11255350000000419
                },
                {
                    "name": "G#5",
                    "midi": 80,
                    "time": 117.0556399999999,
                    "velocity": 0.3858267716535433,
                    "duration": 0.11255350000000419
                },
                {
                    "name": "C#5",
                    "midi": 73,
                    "time": 117.5058539999999,
                    "velocity": 0.31496062992125984,
                    "duration": 1.3506420000000077
                },
                {
                    "name": "G#4",
                    "midi": 68,
                    "time": 117.5058539999999,
                    "velocity": 0.2677165354330709,
                    "duration": 0.11255350000000419
                },
                {
                    "name": "G#4",
                    "midi": 68,
                    "time": 117.9560679999999,
                    "velocity": 0.2677165354330709,
                    "duration": 0.11255350000000419
                },
                {
                    "name": "G#4",
                    "midi": 68,
                    "time": 118.4062819999999,
                    "velocity": 0.2677165354330709,
                    "duration": 0.11255350000000419
                },
                {
                    "name": "G4",
                    "midi": 67,
                    "time": 118.85649599999991,
                    "velocity": 0.30708661417322836,
                    "duration": 0.11255350000000419
                },
                {
                    "name": "D#5",
                    "midi": 75,
                    "time": 118.85649599999991,
                    "velocity": 0.3700787401574803,
                    "duration": 0.11255350000000419
                },
                {
                    "name": "G#4",
                    "midi": 68,
                    "time": 119.30670999999991,
                    "velocity": 0.2755905511811024,
                    "duration": 0.11255350000000419
                },
                {
                    "name": "C#5",
                    "midi": 73,
                    "time": 119.30670999999991,
                    "velocity": 0.33070866141732286,
                    "duration": 0.11255350000000419
                },
                {
                    "name": "A4",
                    "midi": 69,
                    "time": 119.75692399999991,
                    "velocity": 0.2677165354330709,
                    "duration": 0.11255350000000419
                },
                {
                    "name": "D#5",
                    "midi": 75,
                    "time": 119.75692399999991,
                    "velocity": 0.3228346456692913,
                    "duration": 0.11255350000000419
                },
                {
                    "name": "C#4",
                    "midi": 61,
                    "time": 120.18837908333325,
                    "velocity": 0.5275590551181102,
                    "duration": 0.13131241666665971
                },
                {
                    "name": "E4",
                    "midi": 64,
                    "time": 120.19775854166657,
                    "velocity": 0.5433070866141733,
                    "duration": 0.12193295833333195
                },
                {
                    "name": "G#4",
                    "midi": 68,
                    "time": 120.2071379999999,
                    "velocity": 0.5905511811023622,
                    "duration": 0.11255350000000419
                },
                {
                    "name": "C#4",
                    "midi": 61,
                    "time": 120.63859308333323,
                    "velocity": 0.5275590551181102,
                    "duration": 0.13131241666665971
                },
                {
                    "name": "E4",
                    "midi": 64,
                    "time": 120.64797254166656,
                    "velocity": 0.5433070866141733,
                    "duration": 0.12193295833333195
                },
                {
                    "name": "G#4",
                    "midi": 68,
                    "time": 120.65735199999989,
                    "velocity": 0.5905511811023622,
                    "duration": 0.11255350000000419
                },
                {
                    "name": "C#4",
                    "midi": 61,
                    "time": 121.08880708333322,
                    "velocity": 0.5275590551181102,
                    "duration": 0.13131241666665971
                },
                {
                    "name": "E4",
                    "midi": 64,
                    "time": 121.09818654166655,
                    "velocity": 0.5433070866141733,
                    "duration": 0.12193295833333195
                },
                {
                    "name": "G#4",
                    "midi": 68,
                    "time": 121.10756599999988,
                    "velocity": 0.5905511811023622,
                    "duration": 0.11255350000000419
                },
                {
                    "name": "C#4",
                    "midi": 61,
                    "time": 121.53902108333321,
                    "velocity": 0.49606299212598426,
                    "duration": 0.13131241666665971
                },
                {
                    "name": "E4",
                    "midi": 64,
                    "time": 121.54840054166654,
                    "velocity": 0.5196850393700787,
                    "duration": 0.12193295833333195
                },
                {
                    "name": "G#4",
                    "midi": 68,
                    "time": 121.55777999999987,
                    "velocity": 0.5590551181102362,
                    "duration": 0.11255350000000419
                },
                {
                    "name": "C#4",
                    "midi": 61,
                    "time": 121.9892350833332,
                    "velocity": 0.48031496062992124,
                    "duration": 0.13131241666665971
                },
                {
                    "name": "E4",
                    "midi": 64,
                    "time": 121.99861454166653,
                    "velocity": 0.49606299212598426,
                    "duration": 0.12193295833333195
                },
                {
                    "name": "G#4",
                    "midi": 68,
                    "time": 122.00799399999985,
                    "velocity": 0.5354330708661418,
                    "duration": 0.11255350000000419
                },
                {
                    "name": "C#4",
                    "midi": 61,
                    "time": 122.43944908333319,
                    "velocity": 0.44881889763779526,
                    "duration": 0.13131241666665971
                },
                {
                    "name": "E4",
                    "midi": 64,
                    "time": 122.44882854166651,
                    "velocity": 0.4645669291338583,
                    "duration": 0.12193295833333195
                },
                {
                    "name": "G#4",
                    "midi": 68,
                    "time": 122.45820799999984,
                    "velocity": 0.5039370078740157,
                    "duration": 0.11255350000000419
                },
                {
                    "name": "C#4",
                    "midi": 61,
                    "time": 122.88966308333318,
                    "velocity": 0.2992125984251969,
                    "duration": 0.13131241666665971
                },
                {
                    "name": "D#4",
                    "midi": 63,
                    "time": 122.8990425416665,
                    "velocity": 0.30708661417322836,
                    "duration": 0.12193295833333195
                },
                {
                    "name": "G#4",
                    "midi": 68,
                    "time": 122.90842199999983,
                    "velocity": 0.33858267716535434,
                    "duration": 0.11255350000000419
                },
                {
                    "name": "C#4",
                    "midi": 61,
                    "time": 123.33987708333316,
                    "velocity": 0.2755905511811024,
                    "duration": 0.13131241666665971
                },
                {
                    "name": "D#4",
                    "midi": 63,
                    "time": 123.34925654166649,
                    "velocity": 0.28346456692913385,
                    "duration": 0.12193295833333195
                },
                {
                    "name": "G#4",
                    "midi": 68,
                    "time": 123.35863599999982,
                    "velocity": 0.31496062992125984,
                    "duration": 0.11255350000000419
                },
                {
                    "name": "C#4",
                    "midi": 61,
                    "time": 123.79009108333315,
                    "velocity": 0.25196850393700787,
                    "duration": 0.13131241666665971
                },
                {
                    "name": "D#4",
                    "midi": 63,
                    "time": 123.79947054166648,
                    "velocity": 0.25984251968503935,
                    "duration": 0.12193295833333195
                },
                {
                    "name": "G#4",
                    "midi": 68,
                    "time": 123.80884999999981,
                    "velocity": 0.28346456692913385,
                    "duration": 0.11255350000000419
                },
                {
                    "name": "A3",
                    "midi": 57,
                    "time": 124.24030508333314,
                    "velocity": 0.2125984251968504,
                    "duration": 0.13131241666667393
                },
                {
                    "name": "B3",
                    "midi": 59,
                    "time": 124.25906399999981,
                    "velocity": 0.25196850393700787,
                    "duration": 0.11255350000000419
                },
                {
                    "name": "A3",
                    "midi": 57,
                    "time": 124.69051908333314,
                    "velocity": 0.2125984251968504,
                    "duration": 0.13131241666667393
                },
                {
                    "name": "B3",
                    "midi": 59,
                    "time": 124.70927799999981,
                    "velocity": 0.25196850393700787,
                    "duration": 0.11255350000000419
                },
                {
                    "name": "A3",
                    "midi": 57,
                    "time": 125.14073308333315,
                    "velocity": 0.2125984251968504,
                    "duration": 0.13131241666667393
                },
                {
                    "name": "B3",
                    "midi": 59,
                    "time": 125.15949199999982,
                    "velocity": 0.25196850393700787,
                    "duration": 0.11255350000000419
                },
                {
                    "name": "G#3",
                    "midi": 56,
                    "time": 125.59094708333315,
                    "velocity": 0.2125984251968504,
                    "duration": 0.13131241666665971
                },
                {
                    "name": "B3",
                    "midi": 59,
                    "time": 125.60032654166648,
                    "velocity": 0.2125984251968504,
                    "duration": 0.12193295833333195
                },
                {
                    "name": "C#4",
                    "midi": 61,
                    "time": 125.6097059999998,
                    "velocity": 0.25196850393700787,
                    "duration": 0.11255350000000419
                },
                {
                    "name": "G#3",
                    "midi": 56,
                    "time": 126.04116108333314,
                    "velocity": 0.2125984251968504,
                    "duration": 0.13131241666665971
                },
                {
                    "name": "B3",
                    "midi": 59,
                    "time": 126.05054054166646,
                    "velocity": 0.2125984251968504,
                    "duration": 0.12193295833333195
                },
                {
                    "name": "C#4",
                    "midi": 61,
                    "time": 126.05991999999979,
                    "velocity": 0.25196850393700787,
                    "duration": 0.11255350000000419
                },
                {
                    "name": "G#3",
                    "midi": 56,
                    "time": 126.49137508333312,
                    "velocity": 0.2125984251968504,
                    "duration": 0.13131241666665971
                },
                {
                    "name": "B3",
                    "midi": 59,
                    "time": 126.50075454166645,
                    "velocity": 0.2125984251968504,
                    "duration": 0.12193295833333195
                },
                {
                    "name": "C#4",
                    "midi": 61,
                    "time": 126.51013399999978,
                    "velocity": 0.25196850393700787,
                    "duration": 0.11255350000000419
                },
                {
                    "name": "G#3",
                    "midi": 56,
                    "time": 126.94158908333311,
                    "velocity": 0.2125984251968504,
                    "duration": 0.13131241666665971
                },
                {
                    "name": "B3",
                    "midi": 59,
                    "time": 126.95096854166644,
                    "velocity": 0.2125984251968504,
                    "duration": 0.12193295833333195
                },
                {
                    "name": "C#4",
                    "midi": 61,
                    "time": 126.96034799999977,
                    "velocity": 0.25196850393700787,
                    "duration": 0.11255350000000419
                },
                {
                    "name": "G#3",
                    "midi": 56,
                    "time": 127.3918030833331,
                    "velocity": 0.2125984251968504,
                    "duration": 0.13131241666665971
                },
                {
                    "name": "B3",
                    "midi": 59,
                    "time": 127.40118254166643,
                    "velocity": 0.2125984251968504,
                    "duration": 0.12193295833333195
                },
                {
                    "name": "C#4",
                    "midi": 61,
                    "time": 127.41056199999976,
                    "velocity": 0.25196850393700787,
                    "duration": 0.11255350000000419
                },
                {
                    "name": "G#3",
                    "midi": 56,
                    "time": 127.84201708333309,
                    "velocity": 0.2125984251968504,
                    "duration": 0.13131241666665971
                },
                {
                    "name": "B3",
                    "midi": 59,
                    "time": 127.85139654166642,
                    "velocity": 0.2125984251968504,
                    "duration": 0.12193295833333195
                },
                {
                    "name": "C#4",
                    "midi": 61,
                    "time": 127.86077599999975,
                    "velocity": 0.25196850393700787,
                    "duration": 0.11255350000000419
                },
                {
                    "name": "G3",
                    "midi": 55,
                    "time": 128.2922310833331,
                    "velocity": 0.2125984251968504,
                    "duration": 0.13131241666667393
                },
                {
                    "name": "A#3",
                    "midi": 58,
                    "time": 128.30161054166643,
                    "velocity": 0.2125984251968504,
                    "duration": 0.12193295833333195
                },
                {
                    "name": "D4",
                    "midi": 62,
                    "time": 128.31098999999978,
                    "velocity": 0.25196850393700787,
                    "duration": 0.11255349999998998
                },
                {
                    "name": "G3",
                    "midi": 55,
                    "time": 128.7424450833331,
                    "velocity": 0.2125984251968504,
                    "duration": 0.13131241666667393
                },
                {
                    "name": "A#3",
                    "midi": 58,
                    "time": 128.75182454166645,
                    "velocity": 0.2125984251968504,
                    "duration": 0.12193295833333195
                },
                {
                    "name": "D4",
                    "midi": 62,
                    "time": 128.7612039999998,
                    "velocity": 0.25196850393700787,
                    "duration": 0.11255349999998998
                },
                {
                    "name": "G3",
                    "midi": 55,
                    "time": 129.66163199999977,
                    "velocity": 0.3858267716535433,
                    "duration": 0.22510700000000838
                },
                {
                    "name": "A3",
                    "midi": 57,
                    "time": 129.88673899999978,
                    "velocity": 0.4330708661417323,
                    "duration": 0.22510700000000838
                },
                {
                    "name": "A#3",
                    "midi": 58,
                    "time": 130.1118459999998,
                    "velocity": 0.25984251968503935,
                    "duration": 0.11255349999998998
                },
                {
                    "name": "C4",
                    "midi": 60,
                    "time": 130.56205999999978,
                    "velocity": 0.25984251968503935,
                    "duration": 0.11255349999998998
                },
                {
                    "name": "G#3",
                    "midi": 56,
                    "time": 130.9935150833331,
                    "velocity": 0.2125984251968504,
                    "duration": 0.13131241666667393
                },
                {
                    "name": "B3",
                    "midi": 59,
                    "time": 131.00289454166645,
                    "velocity": 0.2125984251968504,
                    "duration": 0.12193295833333195
                },
                {
                    "name": "C#4",
                    "midi": 61,
                    "time": 131.0122739999998,
                    "velocity": 0.25196850393700787,
                    "duration": 0.11255349999998998
                },
                {
                    "name": "G#3",
                    "midi": 56,
                    "time": 131.44372908333312,
                    "velocity": 0.2125984251968504,
                    "duration": 0.13131241666667393
                },
                {
                    "name": "B3",
                    "midi": 59,
                    "time": 131.45310854166647,
                    "velocity": 0.2125984251968504,
                    "duration": 0.12193295833333195
                },
                {
                    "name": "C#4",
                    "midi": 61,
                    "time": 131.4624879999998,
                    "velocity": 0.25196850393700787,
                    "duration": 0.11255349999998998
                },
                {
                    "name": "G#3",
                    "midi": 56,
                    "time": 131.89394308333314,
                    "velocity": 0.2125984251968504,
                    "duration": 0.13131241666667393
                },
                {
                    "name": "B3",
                    "midi": 59,
                    "time": 131.90332254166648,
                    "velocity": 0.2125984251968504,
                    "duration": 0.12193295833333195
                },
                {
                    "name": "C#4",
                    "midi": 61,
                    "time": 131.91270199999983,
                    "velocity": 0.25196850393700787,
                    "duration": 0.11255349999998998
                },
                {
                    "name": "G#3",
                    "midi": 56,
                    "time": 132.34415708333316,
                    "velocity": 0.2125984251968504,
                    "duration": 0.13131241666667393
                },
                {
                    "name": "B3",
                    "midi": 59,
                    "time": 132.3535365416665,
                    "velocity": 0.2125984251968504,
                    "duration": 0.12193295833333195
                },
                {
                    "name": "C#4",
                    "midi": 61,
                    "time": 132.36291599999984,
                    "velocity": 0.25196850393700787,
                    "duration": 0.11255349999998998
                },
                {
                    "name": "G#3",
                    "midi": 56,
                    "time": 132.79437108333317,
                    "velocity": 0.2125984251968504,
                    "duration": 0.13131241666667393
                },
                {
                    "name": "B3",
                    "midi": 59,
                    "time": 132.80375054166652,
                    "velocity": 0.2125984251968504,
                    "duration": 0.12193295833333195
                },
                {
                    "name": "C#4",
                    "midi": 61,
                    "time": 132.81312999999986,
                    "velocity": 0.25196850393700787,
                    "duration": 0.11255349999998998
                },
                {
                    "name": "G#3",
                    "midi": 56,
                    "time": 133.2445850833332,
                    "velocity": 0.2125984251968504,
                    "duration": 0.13131241666667393
                },
                {
                    "name": "B3",
                    "midi": 59,
                    "time": 133.25396454166653,
                    "velocity": 0.2125984251968504,
                    "duration": 0.12193295833333195
                },
                {
                    "name": "C#4",
                    "midi": 61,
                    "time": 133.26334399999988,
                    "velocity": 0.25196850393700787,
                    "duration": 0.11255349999998998
                },
                {
                    "name": "G3",
                    "midi": 55,
                    "time": 133.6947990833332,
                    "velocity": 0.2125984251968504,
                    "duration": 0.13131241666667393
                },
                {
                    "name": "A#3",
                    "midi": 58,
                    "time": 133.70417854166655,
                    "velocity": 0.2125984251968504,
                    "duration": 0.12193295833333195
                },
                {
                    "name": "D4",
                    "midi": 62,
                    "time": 133.7135579999999,
                    "velocity": 0.25196850393700787,
                    "duration": 0.11255349999998998
                },
                {
                    "name": "G3",
                    "midi": 55,
                    "time": 134.14501308333323,
                    "velocity": 0.2125984251968504,
                    "duration": 0.13131241666667393
                },
                {
                    "name": "A#3",
                    "midi": 58,
                    "time": 134.15439254166657,
                    "velocity": 0.2125984251968504,
                    "duration": 0.12193295833333195
                },
                {
                    "name": "D4",
                    "midi": 62,
                    "time": 134.1637719999999,
                    "velocity": 0.25196850393700787,
                    "duration": 0.11255349999998998
                },
                {
                    "name": "G3",
                    "midi": 55,
                    "time": 135.0641999999999,
                    "velocity": 0.3858267716535433,
                    "duration": 0.22510700000000838
                },
                {
                    "name": "A3",
                    "midi": 57,
                    "time": 135.2893069999999,
                    "velocity": 0.4330708661417323,
                    "duration": 0.22510700000000838
                },
                {
                    "name": "A#3",
                    "midi": 58,
                    "time": 135.5144139999999,
                    "velocity": 0.25984251968503935,
                    "duration": 0.11255349999998998
                },
                {
                    "name": "C4",
                    "midi": 60,
                    "time": 135.9646279999999,
                    "velocity": 0.25984251968503935,
                    "duration": 0.11255349999998998
                },
                {
                    "name": "G4",
                    "midi": 67,
                    "time": 137.76548399999987,
                    "velocity": 0.3858267716535433,
                    "duration": 0.22510700000000838
                },
                {
                    "name": "A4",
                    "midi": 69,
                    "time": 137.99059099999988,
                    "velocity": 0.4330708661417323,
                    "duration": 0.22510700000000838
                },
                {
                    "name": "A#4",
                    "midi": 70,
                    "time": 138.2156979999999,
                    "velocity": 0.25984251968503935,
                    "duration": 0.11255349999998998
                },
                {
                    "name": "C5",
                    "midi": 72,
                    "time": 138.66591199999988,
                    "velocity": 0.25984251968503935,
                    "duration": 0.11255349999998998
                },
                {
                    "name": "G5",
                    "midi": 79,
                    "time": 140.46676799999986,
                    "velocity": 0.3858267716535433,
                    "duration": 0.22510700000000838
                },
                {
                    "name": "A5",
                    "midi": 81,
                    "time": 140.69187499999987,
                    "velocity": 0.4330708661417323,
                    "duration": 0.22510700000000838
                },
                {
                    "name": "A#5",
                    "midi": 82,
                    "time": 140.91698199999988,
                    "velocity": 0.25984251968503935,
                    "duration": 0.11255349999998998
                },
                {
                    "name": "B4",
                    "midi": 71,
                    "time": 141.3343678958332,
                    "velocity": 0.3543307086614173,
                    "duration": 0.26731456250004726
                },
                {
                    "name": "D#5",
                    "midi": 75,
                    "time": 141.33905762499987,
                    "velocity": 0.36220472440944884,
                    "duration": 0.2532453750000343
                },
                {
                    "name": "F#5",
                    "midi": 78,
                    "time": 141.35312681249988,
                    "velocity": 0.3937007874015748,
                    "duration": 0.23917618750002134
                },
                {
                    "name": "B5",
                    "midi": 83,
                    "time": 141.3671959999999,
                    "velocity": 0.4251968503937008,
                    "duration": 0.22510700000000838
                },
                {
                    "name": "D#4",
                    "midi": 63,
                    "time": 143.5619892499999,
                    "velocity": 0.25196850393700787,
                    "duration": 0.05627674999999499
                },
                {
                    "name": "G#4",
                    "midi": 68,
                    "time": 143.6182659999999,
                    "velocity": 0.31496062992125984,
                    "duration": 0.11255349999998998
                },
                {
                    "name": "G#4",
                    "midi": 68,
                    "time": 144.01220324999989,
                    "velocity": 0.28346456692913385,
                    "duration": 0.05627674999999499
                },
                {
                    "name": "C#5",
                    "midi": 73,
                    "time": 144.06847999999988,
                    "velocity": 0.3700787401574803,
                    "duration": 0.11255349999998998
                },
                {
                    "name": "C#4",
                    "midi": 61,
                    "time": 144.46241724999987,
                    "velocity": 0.29133858267716534,
                    "duration": 0.05627674999999499
                },
                {
                    "name": "F#4",
                    "midi": 66,
                    "time": 144.51869399999987,
                    "velocity": 0.3543307086614173,
                    "duration": 1.3506419999999935
                },
                {
                    "name": "A#4",
                    "midi": 70,
                    "time": 146.26327324999986,
                    "velocity": 0.25196850393700787,
                    "duration": 0.05627674999999499
                },
                {
                    "name": "D#5",
                    "midi": 75,
                    "time": 146.31954999999985,
                    "velocity": 0.31496062992125984,
                    "duration": 0.11255349999998998
                },
                {
                    "name": "D#5",
                    "midi": 75,
                    "time": 146.71348724999984,
                    "velocity": 0.28346456692913385,
                    "duration": 0.05627674999999499
                },
                {
                    "name": "G#5",
                    "midi": 80,
                    "time": 146.76976399999984,
                    "velocity": 0.3700787401574803,
                    "duration": 0.11255349999998998
                },
                {
                    "name": "G#4",
                    "midi": 68,
                    "time": 147.16370124999983,
                    "velocity": 0.29133858267716534,
                    "duration": 0.05627674999999499
                },
                {
                    "name": "C#5",
                    "midi": 73,
                    "time": 147.21997799999983,
                    "velocity": 0.3543307086614173,
                    "duration": 1.3506419999999935
                },
                {
                    "name": "D#4",
                    "midi": 63,
                    "time": 148.9645572499998,
                    "velocity": 0.25196850393700787,
                    "duration": 0.05627674999999499
                },
                {
                    "name": "G#4",
                    "midi": 68,
                    "time": 149.0208339999998,
                    "velocity": 0.31496062992125984,
                    "duration": 0.11255349999998998
                },
                {
                    "name": "G#4",
                    "midi": 68,
                    "time": 149.4147712499998,
                    "velocity": 0.28346456692913385,
                    "duration": 0.05627674999999499
                },
                {
                    "name": "C#5",
                    "midi": 73,
                    "time": 149.4710479999998,
                    "velocity": 0.3700787401574803,
                    "duration": 0.11255349999998998
                },
                {
                    "name": "C#4",
                    "midi": 61,
                    "time": 149.8649852499998,
                    "velocity": 0.29133858267716534,
                    "duration": 0.05627674999999499
                },
                {
                    "name": "F#4",
                    "midi": 66,
                    "time": 149.92126199999979,
                    "velocity": 0.3464566929133858,
                    "duration": 0.11255349999998998
                },
                {
                    "name": "A#4",
                    "midi": 70,
                    "time": 150.31519924999978,
                    "velocity": 0.3228346456692913,
                    "duration": 0.05627674999999499
                },
                {
                    "name": "D#5",
                    "midi": 75,
                    "time": 150.37147599999977,
                    "velocity": 0.3858267716535433,
                    "duration": 0.11255349999998998
                },
                {
                    "name": "D#5",
                    "midi": 75,
                    "time": 150.76541324999977,
                    "velocity": 0.36220472440944884,
                    "duration": 0.05627674999999499
                },
                {
                    "name": "G#5",
                    "midi": 80,
                    "time": 150.82168999999976,
                    "velocity": 0.4645669291338583,
                    "duration": 0.11255349999998998
                },
                {
                    "name": "G#4",
                    "midi": 68,
                    "time": 151.21562724999976,
                    "velocity": 0.29133858267716534,
                    "duration": 0.05627674999999499
                },
                {
                    "name": "C#5",
                    "midi": 73,
                    "time": 151.27190399999975,
                    "velocity": 0.3464566929133858,
                    "duration": 0.11255349999998998
                },
                {
                    "name": "D#4",
                    "midi": 63,
                    "time": 151.66584124999974,
                    "velocity": 0.25196850393700787,
                    "duration": 0.05627674999999499
                },
                {
                    "name": "G#4",
                    "midi": 68,
                    "time": 151.72211799999974,
                    "velocity": 0.31496062992125984,
                    "duration": 0.11255349999998998
                },
                {
                    "name": "G#4",
                    "midi": 68,
                    "time": 152.11605524999973,
                    "velocity": 0.28346456692913385,
                    "duration": 0.05627674999999499
                },
                {
                    "name": "C#5",
                    "midi": 73,
                    "time": 152.17233199999973,
                    "velocity": 0.3700787401574803,
                    "duration": 0.11255349999998998
                },
                {
                    "name": "C#4",
                    "midi": 61,
                    "time": 152.56626924999972,
                    "velocity": 0.29133858267716534,
                    "duration": 0.05627674999999499
                },
                {
                    "name": "F#4",
                    "midi": 66,
                    "time": 152.62254599999972,
                    "velocity": 0.3464566929133858,
                    "duration": 0.11255349999998998
                },
                {
                    "name": "A#4",
                    "midi": 70,
                    "time": 153.0164832499997,
                    "velocity": 0.3228346456692913,
                    "duration": 0.05627674999999499
                },
                {
                    "name": "D#5",
                    "midi": 75,
                    "time": 153.0727599999997,
                    "velocity": 0.3858267716535433,
                    "duration": 0.11255349999998998
                },
                {
                    "name": "D#5",
                    "midi": 75,
                    "time": 153.4666972499997,
                    "velocity": 0.36220472440944884,
                    "duration": 0.05627674999999499
                },
                {
                    "name": "G#5",
                    "midi": 80,
                    "time": 153.5229739999997,
                    "velocity": 0.4645669291338583,
                    "duration": 0.11255349999998998
                },
                {
                    "name": "C#5",
                    "midi": 73,
                    "time": 153.97318799999968,
                    "velocity": 0.25984251968503935,
                    "duration": 0.22510700000000838
                },
                {
                    "name": "G#4",
                    "midi": 68,
                    "time": 153.97318799999968,
                    "velocity": 0.2047244094488189,
                    "duration": 0.22510700000000838
                },
                {
                    "name": "E4",
                    "midi": 64,
                    "time": 154.1982949999997,
                    "velocity": 0.13385826771653545,
                    "duration": 0.22510700000000838
                },
                {
                    "name": "B4",
                    "midi": 71,
                    "time": 154.1982949999997,
                    "velocity": 0.1732283464566929,
                    "duration": 0.22510700000000838
                },
                {
                    "name": "D#4",
                    "midi": 63,
                    "time": 154.4234019999997,
                    "velocity": 0.1968503937007874,
                    "duration": 0.22510700000000838
                },
                {
                    "name": "G#4",
                    "midi": 68,
                    "time": 154.4234019999997,
                    "velocity": 0.25196850393700787,
                    "duration": 0.22510700000000838
                },
                {
                    "name": "E4",
                    "midi": 64,
                    "time": 154.6485089999997,
                    "velocity": 0.13385826771653545,
                    "duration": 0.22510700000000838
                },
                {
                    "name": "B4",
                    "midi": 71,
                    "time": 154.6485089999997,
                    "velocity": 0.1732283464566929,
                    "duration": 0.22510700000000838
                },
                {
                    "name": "G#4",
                    "midi": 68,
                    "time": 154.8736159999997,
                    "velocity": 0.2047244094488189,
                    "duration": 0.22510700000000838
                },
                {
                    "name": "C#5",
                    "midi": 73,
                    "time": 154.8736159999997,
                    "velocity": 0.25984251968503935,
                    "duration": 0.22510700000000838
                },
                {
                    "name": "E4",
                    "midi": 64,
                    "time": 155.09872299999972,
                    "velocity": 0.14173228346456693,
                    "duration": 0.22510700000000838
                },
                {
                    "name": "B4",
                    "midi": 71,
                    "time": 155.09872299999972,
                    "velocity": 0.18110236220472442,
                    "duration": 0.22510700000000838
                },
                {
                    "name": "G#4",
                    "midi": 68,
                    "time": 155.32382999999973,
                    "velocity": 0.25984251968503935,
                    "duration": 0.22510700000000838
                },
                {
                    "name": "D#4",
                    "midi": 63,
                    "time": 155.32382999999973,
                    "velocity": 0.2047244094488189,
                    "duration": 0.22510700000000838
                },
                {
                    "name": "E4",
                    "midi": 64,
                    "time": 155.54893699999974,
                    "velocity": 0.13385826771653545,
                    "duration": 0.22510700000000838
                },
                {
                    "name": "B4",
                    "midi": 71,
                    "time": 155.54893699999974,
                    "velocity": 0.1732283464566929,
                    "duration": 0.22510700000000838
                },
                {
                    "name": "G#4",
                    "midi": 68,
                    "time": 155.77404399999975,
                    "velocity": 0.1968503937007874,
                    "duration": 0.22510700000000838
                },
                {
                    "name": "C#5",
                    "midi": 73,
                    "time": 155.77404399999975,
                    "velocity": 0.25196850393700787,
                    "duration": 0.22510700000000838
                },
                {
                    "name": "E4",
                    "midi": 64,
                    "time": 155.99915099999976,
                    "velocity": 0.13385826771653545,
                    "duration": 0.22510700000000838
                },
                {
                    "name": "B4",
                    "midi": 71,
                    "time": 155.99915099999976,
                    "velocity": 0.1732283464566929,
                    "duration": 0.22510700000000838
                },
                {
                    "name": "D#4",
                    "midi": 63,
                    "time": 156.22425799999976,
                    "velocity": 0.2047244094488189,
                    "duration": 0.22510700000000838
                },
                {
                    "name": "G#4",
                    "midi": 68,
                    "time": 156.22425799999976,
                    "velocity": 0.25984251968503935,
                    "duration": 0.22510700000000838
                },
                {
                    "name": "E4",
                    "midi": 64,
                    "time": 156.44936499999977,
                    "velocity": 0.14173228346456693,
                    "duration": 0.22510700000000838
                },
                {
                    "name": "B4",
                    "midi": 71,
                    "time": 156.44936499999977,
                    "velocity": 0.18110236220472442,
                    "duration": 0.22510700000000838
                },
                {
                    "name": "C#5",
                    "midi": 73,
                    "time": 156.67447199999978,
                    "velocity": 0.2204724409448819,
                    "duration": 0.22510700000000838
                },
                {
                    "name": "G#4",
                    "midi": 68,
                    "time": 156.67447199999978,
                    "velocity": 0.1732283464566929,
                    "duration": 0.22510700000000838
                },
                {
                    "name": "E4",
                    "midi": 64,
                    "time": 156.8995789999998,
                    "velocity": 0.11023622047244094,
                    "duration": 0.22510700000000838
                },
                {
                    "name": "B4",
                    "midi": 71,
                    "time": 156.8995789999998,
                    "velocity": 0.14173228346456693,
                    "duration": 0.22510700000000838
                },
                {
                    "name": "D#4",
                    "midi": 63,
                    "time": 157.1246859999998,
                    "velocity": 0.16535433070866143,
                    "duration": 0.22510700000000838
                },
                {
                    "name": "G#4",
                    "midi": 68,
                    "time": 157.1246859999998,
                    "velocity": 0.2125984251968504,
                    "duration": 0.22510700000000838
                },
                {
                    "name": "E4",
                    "midi": 64,
                    "time": 157.3497929999998,
                    "velocity": 0.11023622047244094,
                    "duration": 0.22510700000000838
                },
                {
                    "name": "B4",
                    "midi": 71,
                    "time": 157.3497929999998,
                    "velocity": 0.14173228346456693,
                    "duration": 0.22510700000000838
                },
                {
                    "name": "G#4",
                    "midi": 68,
                    "time": 157.57489999999981,
                    "velocity": 0.1732283464566929,
                    "duration": 0.22510700000000838
                },
                {
                    "name": "C#5",
                    "midi": 73,
                    "time": 157.57489999999981,
                    "velocity": 0.2204724409448819,
                    "duration": 0.22510700000000838
                },
                {
                    "name": "E4",
                    "midi": 64,
                    "time": 157.80000699999982,
                    "velocity": 0.11811023622047244,
                    "duration": 0.22510700000000838
                },
                {
                    "name": "B4",
                    "midi": 71,
                    "time": 157.80000699999982,
                    "velocity": 0.14960629921259844,
                    "duration": 0.22510700000000838
                },
                {
                    "name": "G#4",
                    "midi": 68,
                    "time": 158.02511399999983,
                    "velocity": 0.2204724409448819,
                    "duration": 0.22510700000000838
                },
                {
                    "name": "D#4",
                    "midi": 63,
                    "time": 158.02511399999983,
                    "velocity": 0.1732283464566929,
                    "duration": 0.22510700000000838
                },
                {
                    "name": "E4",
                    "midi": 64,
                    "time": 158.25022099999984,
                    "velocity": 0.11023622047244094,
                    "duration": 0.22510700000000838
                },
                {
                    "name": "B4",
                    "midi": 71,
                    "time": 158.25022099999984,
                    "velocity": 0.14173228346456693,
                    "duration": 0.22510700000000838
                },
                {
                    "name": "G#4",
                    "midi": 68,
                    "time": 158.47532799999985,
                    "velocity": 0.16535433070866143,
                    "duration": 0.22510700000000838
                },
                {
                    "name": "C#5",
                    "midi": 73,
                    "time": 158.47532799999985,
                    "velocity": 0.2125984251968504,
                    "duration": 0.22510700000000838
                },
                {
                    "name": "E4",
                    "midi": 64,
                    "time": 158.70043499999986,
                    "velocity": 0.11023622047244094,
                    "duration": 0.22510700000000838
                },
                {
                    "name": "B4",
                    "midi": 71,
                    "time": 158.70043499999986,
                    "velocity": 0.14173228346456693,
                    "duration": 0.22510700000000838
                },
                {
                    "name": "D#4",
                    "midi": 63,
                    "time": 158.92554199999987,
                    "velocity": 0.1732283464566929,
                    "duration": 0.22510700000000838
                },
                {
                    "name": "G#4",
                    "midi": 68,
                    "time": 158.92554199999987,
                    "velocity": 0.2204724409448819,
                    "duration": 0.22510700000000838
                },
                {
                    "name": "E4",
                    "midi": 64,
                    "time": 159.15064899999987,
                    "velocity": 0.11811023622047244,
                    "duration": 0.22510700000000838
                },
                {
                    "name": "B4",
                    "midi": 71,
                    "time": 159.15064899999987,
                    "velocity": 0.14960629921259844,
                    "duration": 0.22510700000000838
                },
                {
                    "name": "G#4",
                    "midi": 68,
                    "time": 159.37575599999988,
                    "velocity": 0.2204724409448819,
                    "duration": 0.22510700000000838
                },
                {
                    "name": "D#4",
                    "midi": 63,
                    "time": 159.37575599999988,
                    "velocity": 0.1732283464566929,
                    "duration": 0.22510700000000838
                },
                {
                    "name": "D#4",
                    "midi": 63,
                    "time": 160.7263979999999,
                    "velocity": 0.18110236220472442,
                    "duration": 0.22510700000000838
                },
                {
                    "name": "G#4",
                    "midi": 68,
                    "time": 160.7263979999999,
                    "velocity": 0.18110236220472442,
                    "duration": 0.22510700000000838
                },
                {
                    "name": "B4",
                    "midi": 71,
                    "time": 160.7263979999999,
                    "velocity": 0.18110236220472442,
                    "duration": 0.22510700000000838
                },
                {
                    "name": "E4",
                    "midi": 64,
                    "time": 162.5272539999999,
                    "velocity": 0.15748031496062992,
                    "duration": 0.22510700000000838
                },
                {
                    "name": "G#4",
                    "midi": 68,
                    "time": 162.75236099999992,
                    "velocity": 0.1732283464566929,
                    "duration": 0.22510700000000838
                },
                {
                    "name": "E5",
                    "midi": 76,
                    "time": 162.97746799999993,
                    "velocity": 0.1968503937007874,
                    "duration": 0.22510700000000838
                },
                {
                    "name": "G#5",
                    "midi": 80,
                    "time": 163.20257499999994,
                    "velocity": 0.1968503937007874,
                    "duration": 0.22510700000000838
                },
                {
                    "name": "E6",
                    "midi": 88,
                    "time": 163.42768199999995,
                    "velocity": 0.2283464566929134,
                    "duration": 0.22510700000000838
                },
                {
                    "name": "E7",
                    "midi": 100,
                    "time": 164.77832399999997,
                    "velocity": 0.25196850393700787,
                    "duration": 0.22510700000000838
                }
            ],
            "controlChanges": {},
            "id": 1,
            "name": "Piano right",
            "instrumentNumber": 0,
            "instrument": "acoustic grand piano",
            "instrumentFamily": "piano",
            "channelNumber": 0,
            "isPercussion": false
        },
        {
            "startTime": 0,
            "duration": 162.52725400000097,
            "length": 499,
            "notes": [
                {
                    "name": "E4",
                    "midi": 64,
                    "time": 0,
                    "velocity": 0.2283464566929134,
                    "duration": 0.1125535
                },
                {
                    "name": "E4",
                    "midi": 64,
                    "time": 0.450214,
                    "velocity": 0.23622047244094488,
                    "duration": 0.11255349999999997
                },
                {
                    "name": "E4",
                    "midi": 64,
                    "time": 0.900428,
                    "velocity": 0.23622047244094488,
                    "duration": 0.11255349999999997
                },
                {
                    "name": "E4",
                    "midi": 64,
                    "time": 1.3506420000000001,
                    "velocity": 0.2283464566929134,
                    "duration": 0.11255349999999997
                },
                {
                    "name": "E4",
                    "midi": 64,
                    "time": 1.800856,
                    "velocity": 0.23622047244094488,
                    "duration": 0.11255349999999997
                },
                {
                    "name": "E4",
                    "midi": 64,
                    "time": 2.25107,
                    "velocity": 0.23622047244094488,
                    "duration": 0.1125535000000002
                },
                {
                    "name": "D#4",
                    "midi": 63,
                    "time": 3.0952212500000003,
                    "velocity": 0.23622047244094488,
                    "duration": 0.056276749999999875
                },
                {
                    "name": "G#4",
                    "midi": 68,
                    "time": 3.151498,
                    "velocity": 0.30708661417322836,
                    "duration": 0.1125535000000002
                },
                {
                    "name": "G#4",
                    "midi": 68,
                    "time": 3.54543525,
                    "velocity": 0.2440944881889764,
                    "duration": 0.056276749999999875
                },
                {
                    "name": "C#5",
                    "midi": 73,
                    "time": 3.601712,
                    "velocity": 0.33070866141732286,
                    "duration": 0.1125535000000002
                },
                {
                    "name": "C#4",
                    "midi": 61,
                    "time": 3.99564925,
                    "velocity": 0.23622047244094488,
                    "duration": 0.056276749999999875
                },
                {
                    "name": "F#4",
                    "midi": 66,
                    "time": 4.051926,
                    "velocity": 0.28346456692913385,
                    "duration": 0.9004280000000007
                },
                {
                    "name": "D#4",
                    "midi": 63,
                    "time": 4.89607725,
                    "velocity": 0.23622047244094488,
                    "duration": 0.05627675000000032
                },
                {
                    "name": "G#4",
                    "midi": 68,
                    "time": 4.952354000000001,
                    "velocity": 0.28346456692913385,
                    "duration": 0.11255349999999975
                },
                {
                    "name": "G#4",
                    "midi": 68,
                    "time": 5.121184250000001,
                    "velocity": 0.2440944881889764,
                    "duration": 0.05627675000000032
                },
                {
                    "name": "C#5",
                    "midi": 73,
                    "time": 5.177461000000001,
                    "velocity": 0.31496062992125984,
                    "duration": 0.11255349999999975
                },
                {
                    "name": "C#4",
                    "midi": 61,
                    "time": 5.346291250000001,
                    "velocity": 0.23622047244094488,
                    "duration": 0.05627675000000032
                },
                {
                    "name": "F#4",
                    "midi": 66,
                    "time": 5.402568000000001,
                    "velocity": 0.33858267716535434,
                    "duration": 0.11255349999999975
                },
                {
                    "name": "D#4",
                    "midi": 63,
                    "time": 5.796505250000001,
                    "velocity": 0.23622047244094488,
                    "duration": 0.05627675000000032
                },
                {
                    "name": "G#4",
                    "midi": 68,
                    "time": 5.852782000000001,
                    "velocity": 0.28346456692913385,
                    "duration": 0.11255349999999975
                },
                {
                    "name": "G#3",
                    "midi": 56,
                    "time": 6.246719250000001,
                    "velocity": 0.2440944881889764,
                    "duration": 0.05627675000000032
                },
                {
                    "name": "C#4",
                    "midi": 61,
                    "time": 6.302996000000001,
                    "velocity": 0.31496062992125984,
                    "duration": 0.11255349999999975
                },
                {
                    "name": "C#4",
                    "midi": 61,
                    "time": 6.696933250000001,
                    "velocity": 0.23622047244094488,
                    "duration": 1.4069187500000009
                },
                {
                    "name": "F#4",
                    "midi": 66,
                    "time": 6.753210000000001,
                    "velocity": 0.28346456692913385,
                    "duration": 1.3506420000000006
                },
                {
                    "name": "D#4",
                    "midi": 63,
                    "time": 8.047575250000001,
                    "velocity": 0.23622047244094488,
                    "duration": 1.4069187500000009
                },
                {
                    "name": "G#4",
                    "midi": 68,
                    "time": 8.103852000000002,
                    "velocity": 0.28346456692913385,
                    "duration": 1.3506420000000006
                },
                {
                    "name": "E2",
                    "midi": 40,
                    "time": 9.454494000000002,
                    "velocity": 0.44881889763779526,
                    "duration": 0.4502140000000008
                },
                {
                    "name": "E4",
                    "midi": 64,
                    "time": 9.904708000000003,
                    "velocity": 0.3700787401574803,
                    "duration": 0.11255350000000064
                },
                {
                    "name": "E4",
                    "midi": 64,
                    "time": 10.354922000000004,
                    "velocity": 0.3464566929133858,
                    "duration": 0.11255350000000064
                },
                {
                    "name": "E4",
                    "midi": 64,
                    "time": 10.805136000000005,
                    "velocity": 0.29133858267716534,
                    "duration": 0.11255350000000064
                },
                {
                    "name": "E4",
                    "midi": 64,
                    "time": 11.030243000000006,
                    "velocity": 0.1889763779527559,
                    "duration": 0.11255350000000064
                },
                {
                    "name": "B4",
                    "midi": 71,
                    "time": 11.030243000000006,
                    "velocity": 0.2283464566929134,
                    "duration": 0.11255350000000064
                },
                {
                    "name": "E4",
                    "midi": 64,
                    "time": 11.480457000000007,
                    "velocity": 0.1889763779527559,
                    "duration": 0.11255350000000064
                },
                {
                    "name": "B4",
                    "midi": 71,
                    "time": 11.480457000000007,
                    "velocity": 0.2283464566929134,
                    "duration": 0.11255350000000064
                },
                {
                    "name": "E4",
                    "midi": 64,
                    "time": 11.930671000000007,
                    "velocity": 0.1889763779527559,
                    "duration": 0.11255350000000064
                },
                {
                    "name": "B4",
                    "midi": 71,
                    "time": 11.930671000000007,
                    "velocity": 0.2283464566929134,
                    "duration": 0.11255350000000064
                },
                {
                    "name": "E4",
                    "midi": 64,
                    "time": 12.380885000000008,
                    "velocity": 0.1889763779527559,
                    "duration": 0.11255350000000064
                },
                {
                    "name": "B4",
                    "midi": 71,
                    "time": 12.380885000000008,
                    "velocity": 0.2283464566929134,
                    "duration": 0.11255350000000064
                },
                {
                    "name": "E4",
                    "midi": 64,
                    "time": 12.831099000000009,
                    "velocity": 0.1889763779527559,
                    "duration": 0.11255350000000064
                },
                {
                    "name": "B4",
                    "midi": 71,
                    "time": 12.831099000000009,
                    "velocity": 0.2283464566929134,
                    "duration": 0.11255350000000064
                },
                {
                    "name": "E4",
                    "midi": 64,
                    "time": 13.28131300000001,
                    "velocity": 0.1889763779527559,
                    "duration": 0.11255350000000064
                },
                {
                    "name": "B4",
                    "midi": 71,
                    "time": 13.28131300000001,
                    "velocity": 0.2283464566929134,
                    "duration": 0.11255350000000064
                },
                {
                    "name": "E4",
                    "midi": 64,
                    "time": 13.73152700000001,
                    "velocity": 0.1968503937007874,
                    "duration": 0.11255350000000064
                },
                {
                    "name": "B4",
                    "midi": 71,
                    "time": 13.73152700000001,
                    "velocity": 0.23622047244094488,
                    "duration": 0.11255350000000064
                },
                {
                    "name": "E4",
                    "midi": 64,
                    "time": 14.181741000000011,
                    "velocity": 0.2125984251968504,
                    "duration": 0.11255350000000064
                },
                {
                    "name": "B4",
                    "midi": 71,
                    "time": 14.181741000000011,
                    "velocity": 0.25196850393700787,
                    "duration": 0.11255350000000064
                },
                {
                    "name": "E4",
                    "midi": 64,
                    "time": 14.631955000000012,
                    "velocity": 0.2283464566929134,
                    "duration": 0.11255350000000064
                },
                {
                    "name": "B4",
                    "midi": 71,
                    "time": 14.631955000000012,
                    "velocity": 0.2755905511811024,
                    "duration": 0.11255350000000064
                },
                {
                    "name": "E4",
                    "midi": 64,
                    "time": 15.082169000000013,
                    "velocity": 0.2204724409448819,
                    "duration": 0.11255350000000064
                },
                {
                    "name": "B4",
                    "midi": 71,
                    "time": 15.082169000000013,
                    "velocity": 0.2677165354330709,
                    "duration": 0.11255350000000064
                },
                {
                    "name": "E4",
                    "midi": 64,
                    "time": 15.532383000000014,
                    "velocity": 0.2125984251968504,
                    "duration": 0.11255350000000064
                },
                {
                    "name": "B4",
                    "midi": 71,
                    "time": 15.532383000000014,
                    "velocity": 0.25196850393700787,
                    "duration": 0.11255350000000064
                },
                {
                    "name": "E4",
                    "midi": 64,
                    "time": 15.982597000000014,
                    "velocity": 0.1889763779527559,
                    "duration": 0.11255349999999886
                },
                {
                    "name": "B4",
                    "midi": 71,
                    "time": 15.982597000000014,
                    "velocity": 0.2283464566929134,
                    "duration": 0.11255349999999886
                },
                {
                    "name": "E4",
                    "midi": 64,
                    "time": 16.43281100000001,
                    "velocity": 0.2440944881889764,
                    "duration": 0.11255350000000064
                },
                {
                    "name": "B4",
                    "midi": 71,
                    "time": 16.43281100000001,
                    "velocity": 0.29133858267716534,
                    "duration": 0.11255350000000064
                },
                {
                    "name": "E4",
                    "midi": 64,
                    "time": 16.88302500000001,
                    "velocity": 0.1889763779527559,
                    "duration": 0.11255350000000064
                },
                {
                    "name": "B4",
                    "midi": 71,
                    "time": 16.88302500000001,
                    "velocity": 0.2283464566929134,
                    "duration": 0.11255350000000064
                },
                {
                    "name": "E4",
                    "midi": 64,
                    "time": 17.33323900000001,
                    "velocity": 0.16535433070866143,
                    "duration": 0.11255350000000064
                },
                {
                    "name": "B4",
                    "midi": 71,
                    "time": 17.33323900000001,
                    "velocity": 0.1968503937007874,
                    "duration": 0.11255350000000064
                },
                {
                    "name": "B2",
                    "midi": 47,
                    "time": 17.50206925000001,
                    "velocity": 0.3858267716535433,
                    "duration": 0.3751783333333343
                },
                {
                    "name": "F#3",
                    "midi": 54,
                    "time": 17.558346000000007,
                    "velocity": 0.44881889763779526,
                    "duration": 0.22510700000000128
                },
                {
                    "name": "B3",
                    "midi": 59,
                    "time": 18.00856000000001,
                    "velocity": 0.3700787401574803,
                    "duration": 0.11255350000000064
                },
                {
                    "name": "B3",
                    "midi": 59,
                    "time": 18.45877400000001,
                    "velocity": 0.3464566929133858,
                    "duration": 0.11255350000000064
                },
                {
                    "name": "B3",
                    "midi": 59,
                    "time": 18.908988000000008,
                    "velocity": 0.3700787401574803,
                    "duration": 0.22510700000000128
                },
                {
                    "name": "C#4",
                    "midi": 61,
                    "time": 19.35920200000001,
                    "velocity": 0.3543307086614173,
                    "duration": 0.22510700000000128
                },
                {
                    "name": "E4",
                    "midi": 64,
                    "time": 19.809416000000013,
                    "velocity": 0.3543307086614173,
                    "duration": 0.22510700000000128
                },
                {
                    "name": "D#4",
                    "midi": 63,
                    "time": 20.259630000000016,
                    "velocity": 0.3700787401574803,
                    "duration": 0.16883024999999918
                },
                {
                    "name": "D4",
                    "midi": 62,
                    "time": 21.160058000000014,
                    "velocity": 0.3228346456692913,
                    "duration": 0.16883024999999918
                },
                {
                    "name": "C#4",
                    "midi": 61,
                    "time": 21.610272000000013,
                    "velocity": 0.3700787401574803,
                    "duration": 0.16883024999999918
                },
                {
                    "name": "G#3",
                    "midi": 56,
                    "time": 21.610272000000013,
                    "velocity": 0.3700787401574803,
                    "duration": 2.701283999999994
                },
                {
                    "name": "C#4",
                    "midi": 61,
                    "time": 22.06048600000001,
                    "velocity": 0.23622047244094488,
                    "duration": 0.16883024999999918
                },
                {
                    "name": "C#4",
                    "midi": 61,
                    "time": 22.51070000000001,
                    "velocity": 0.23622047244094488,
                    "duration": 0.16883024999999918
                },
                {
                    "name": "C#4",
                    "midi": 61,
                    "time": 22.96091400000001,
                    "velocity": 0.23622047244094488,
                    "duration": 0.16883024999999918
                },
                {
                    "name": "D#4",
                    "midi": 63,
                    "time": 23.41112800000001,
                    "velocity": 0.3937007874015748,
                    "duration": 0.16883024999999918
                },
                {
                    "name": "F#4",
                    "midi": 66,
                    "time": 23.861342000000008,
                    "velocity": 0.3937007874015748,
                    "duration": 0.16883024999999918
                },
                {
                    "name": "F4",
                    "midi": 65,
                    "time": 24.311556000000007,
                    "velocity": 0.3700787401574803,
                    "duration": 0.9004280000000016
                },
                {
                    "name": "E4",
                    "midi": 64,
                    "time": 25.211984000000008,
                    "velocity": 0.3228346456692913,
                    "duration": 0.22510700000000128
                },
                {
                    "name": "D#4",
                    "midi": 63,
                    "time": 25.66219800000001,
                    "velocity": 0.3700787401574803,
                    "duration": 0.16883024999999918
                },
                {
                    "name": "G#3",
                    "midi": 56,
                    "time": 25.66219800000001,
                    "velocity": 0.3700787401574803,
                    "duration": 2.701284000000001
                },
                {
                    "name": "C#4",
                    "midi": 61,
                    "time": 26.56262600000001,
                    "velocity": 0.36220472440944884,
                    "duration": 0.22510700000000128
                },
                {
                    "name": "F4",
                    "midi": 65,
                    "time": 27.01284000000001,
                    "velocity": 0.2440944881889764,
                    "duration": 0.16883024999999918
                },
                {
                    "name": "C#4",
                    "midi": 61,
                    "time": 27.46305400000001,
                    "velocity": 0.3700787401574803,
                    "duration": 0.22510700000000128
                },
                {
                    "name": "F4",
                    "midi": 65,
                    "time": 27.913268000000013,
                    "velocity": 0.3779527559055118,
                    "duration": 0.16883024999999918
                },
                {
                    "name": "D#4",
                    "midi": 63,
                    "time": 28.363482000000012,
                    "velocity": 0.4015748031496063,
                    "duration": 0.16883024999999918
                },
                {
                    "name": "G#3",
                    "midi": 56,
                    "time": 28.363482000000012,
                    "velocity": 0.4015748031496063,
                    "duration": 2.701284000000001
                },
                {
                    "name": "C#4",
                    "midi": 61,
                    "time": 29.26391000000001,
                    "velocity": 0.41732283464566927,
                    "duration": 0.22510700000000128
                },
                {
                    "name": "F4",
                    "midi": 65,
                    "time": 29.714124000000012,
                    "velocity": 0.2755905511811024,
                    "duration": 0.16883024999999918
                },
                {
                    "name": "C#4",
                    "midi": 61,
                    "time": 30.16433800000001,
                    "velocity": 0.4251968503937008,
                    "duration": 0.22510700000000128
                },
                {
                    "name": "F4",
                    "midi": 65,
                    "time": 30.614552000000014,
                    "velocity": 0.4251968503937008,
                    "duration": 0.16883024999999918
                },
                {
                    "name": "G#4",
                    "midi": 68,
                    "time": 31.064766000000013,
                    "velocity": 0.44881889763779526,
                    "duration": 0.9004280000000016
                },
                {
                    "name": "G4",
                    "midi": 67,
                    "time": 31.965194000000015,
                    "velocity": 0.3858267716535433,
                    "duration": 0.450213999999999
                },
                {
                    "name": "F#4",
                    "midi": 66,
                    "time": 32.41540800000001,
                    "velocity": 0.3937007874015748,
                    "duration": 0.900427999999998
                },
                {
                    "name": "F4",
                    "midi": 65,
                    "time": 33.31583600000001,
                    "velocity": 0.36220472440944884,
                    "duration": 0.45021400000000256
                },
                {
                    "name": "G#4",
                    "midi": 68,
                    "time": 33.766050000000014,
                    "velocity": 0.44881889763779526,
                    "duration": 0.9004280000000051
                },
                {
                    "name": "D#5",
                    "midi": 75,
                    "time": 34.21626400000002,
                    "velocity": 0.3858267716535433,
                    "duration": 0.22510700000000128
                },
                {
                    "name": "G4",
                    "midi": 67,
                    "time": 34.66647800000002,
                    "velocity": 0.3858267716535433,
                    "duration": 0.45021400000000256
                },
                {
                    "name": "F#4",
                    "midi": 66,
                    "time": 35.11669200000002,
                    "velocity": 0.3937007874015748,
                    "duration": 0.9004280000000051
                },
                {
                    "name": "G#5",
                    "midi": 80,
                    "time": 35.566906000000024,
                    "velocity": 0.3858267716535433,
                    "duration": 0.22510700000000128
                },
                {
                    "name": "F4",
                    "midi": 65,
                    "time": 36.01712000000003,
                    "velocity": 0.36220472440944884,
                    "duration": 0.45021400000000256
                },
                {
                    "name": "G#4",
                    "midi": 68,
                    "time": 36.46733400000003,
                    "velocity": 0.33070866141732286,
                    "duration": 0.9004280000000051
                },
                {
                    "name": "D5",
                    "midi": 74,
                    "time": 36.91754800000003,
                    "velocity": 0.28346456692913385,
                    "duration": 0.22510700000000128
                },
                {
                    "name": "G4",
                    "midi": 67,
                    "time": 37.367762000000035,
                    "velocity": 0.28346456692913385,
                    "duration": 0.45021400000000256
                },
                {
                    "name": "F#4",
                    "midi": 66,
                    "time": 37.81797600000004,
                    "velocity": 0.3228346456692913,
                    "duration": 0.9004280000000051
                },
                {
                    "name": "D#5",
                    "midi": 75,
                    "time": 38.26819000000004,
                    "velocity": 0.2440944881889764,
                    "duration": 0.22510700000000128
                },
                {
                    "name": "F4",
                    "midi": 65,
                    "time": 38.71840400000004,
                    "velocity": 0.1968503937007874,
                    "duration": 0.45021400000000256
                },
                {
                    "name": "E2",
                    "midi": 40,
                    "time": 39.168618000000045,
                    "velocity": 0.1968503937007874,
                    "duration": 0.22510700000000128
                },
                {
                    "name": "E3",
                    "midi": 52,
                    "time": 39.168618000000045,
                    "velocity": 0.25984251968503935,
                    "duration": 0.22510700000000128
                },
                {
                    "name": "E4",
                    "midi": 64,
                    "time": 39.61883200000005,
                    "velocity": 0.15748031496062992,
                    "duration": 0.16883024999999918
                },
                {
                    "name": "B4",
                    "midi": 71,
                    "time": 39.61883200000005,
                    "velocity": 0.1889763779527559,
                    "duration": 0.16883024999999918
                },
                {
                    "name": "D#4",
                    "midi": 63,
                    "time": 39.61883200000005,
                    "velocity": 0.2283464566929134,
                    "duration": 0.900427999999998
                },
                {
                    "name": "E4",
                    "midi": 64,
                    "time": 39.84393900000005,
                    "velocity": 0.15748031496062992,
                    "duration": 0.33766049999999836
                },
                {
                    "name": "B4",
                    "midi": 71,
                    "time": 39.84393900000005,
                    "velocity": 0.1889763779527559,
                    "duration": 0.33766049999999836
                },
                {
                    "name": "E4",
                    "midi": 64,
                    "time": 40.294153000000044,
                    "velocity": 0.15748031496062992,
                    "duration": 0.16883024999999918
                },
                {
                    "name": "B4",
                    "midi": 71,
                    "time": 40.294153000000044,
                    "velocity": 0.1889763779527559,
                    "duration": 0.16883024999999918
                },
                {
                    "name": "E4",
                    "midi": 64,
                    "time": 40.519260000000045,
                    "velocity": 0.1889763779527559,
                    "duration": 0.16883024999999918
                },
                {
                    "name": "A4",
                    "midi": 69,
                    "time": 40.519260000000045,
                    "velocity": 0.2283464566929134,
                    "duration": 0.16883024999999918
                },
                {
                    "name": "C#4",
                    "midi": 61,
                    "time": 40.519260000000045,
                    "velocity": 0.2204724409448819,
                    "duration": 0.900427999999998
                },
                {
                    "name": "E4",
                    "midi": 64,
                    "time": 40.74436700000005,
                    "velocity": 0.15748031496062992,
                    "duration": 0.33766049999999836
                },
                {
                    "name": "A4",
                    "midi": 69,
                    "time": 40.74436700000005,
                    "velocity": 0.1889763779527559,
                    "duration": 0.33766049999999836
                },
                {
                    "name": "E4",
                    "midi": 64,
                    "time": 41.19458100000004,
                    "velocity": 0.15748031496062992,
                    "duration": 0.16883024999999918
                },
                {
                    "name": "A4",
                    "midi": 69,
                    "time": 41.19458100000004,
                    "velocity": 0.1889763779527559,
                    "duration": 0.16883024999999918
                },
                {
                    "name": "E4",
                    "midi": 64,
                    "time": 41.41968800000004,
                    "velocity": 0.1889763779527559,
                    "duration": 0.45021400000000256
                },
                {
                    "name": "B4",
                    "midi": 71,
                    "time": 41.41968800000004,
                    "velocity": 0.2283464566929134,
                    "duration": 0.45021400000000256
                },
                {
                    "name": "D#4",
                    "midi": 63,
                    "time": 41.41968800000004,
                    "velocity": 0.16535433070866143,
                    "duration": 0.45021400000000256
                },
                {
                    "name": "E4",
                    "midi": 64,
                    "time": 41.869902000000046,
                    "velocity": 0.1889763779527559,
                    "duration": 0.45021400000000256
                },
                {
                    "name": "A4",
                    "midi": 69,
                    "time": 41.869902000000046,
                    "velocity": 0.2283464566929134,
                    "duration": 0.45021400000000256
                },
                {
                    "name": "C#4",
                    "midi": 61,
                    "time": 41.869902000000046,
                    "velocity": 0.2204724409448819,
                    "duration": 0.45021400000000256
                },
                {
                    "name": "E4",
                    "midi": 64,
                    "time": 42.32011600000005,
                    "velocity": 0.15748031496062992,
                    "duration": 0.16883024999999918
                },
                {
                    "name": "B4",
                    "midi": 71,
                    "time": 42.32011600000005,
                    "velocity": 0.1889763779527559,
                    "duration": 0.16883024999999918
                },
                {
                    "name": "D#4",
                    "midi": 63,
                    "time": 42.32011600000005,
                    "velocity": 0.18110236220472442,
                    "duration": 0.900427999999998
                },
                {
                    "name": "E4",
                    "midi": 64,
                    "time": 42.54522300000005,
                    "velocity": 0.15748031496062992,
                    "duration": 0.33766049999999836
                },
                {
                    "name": "B4",
                    "midi": 71,
                    "time": 42.54522300000005,
                    "velocity": 0.1889763779527559,
                    "duration": 0.33766049999999836
                },
                {
                    "name": "E4",
                    "midi": 64,
                    "time": 42.995437000000045,
                    "velocity": 0.15748031496062992,
                    "duration": 0.16883024999999918
                },
                {
                    "name": "B4",
                    "midi": 71,
                    "time": 42.995437000000045,
                    "velocity": 0.1889763779527559,
                    "duration": 0.16883024999999918
                },
                {
                    "name": "E4",
                    "midi": 64,
                    "time": 43.22054400000005,
                    "velocity": 0.1889763779527559,
                    "duration": 0.16883024999999918
                },
                {
                    "name": "A4",
                    "midi": 69,
                    "time": 43.22054400000005,
                    "velocity": 0.2283464566929134,
                    "duration": 0.16883024999999918
                },
                {
                    "name": "C#4",
                    "midi": 61,
                    "time": 43.22054400000005,
                    "velocity": 0.2283464566929134,
                    "duration": 1.3506419999999935
                },
                {
                    "name": "E4",
                    "midi": 64,
                    "time": 43.44565100000005,
                    "velocity": 0.15748031496062992,
                    "duration": 0.33766049999999836
                },
                {
                    "name": "A4",
                    "midi": 69,
                    "time": 43.44565100000005,
                    "velocity": 0.1889763779527559,
                    "duration": 0.33766049999999836
                },
                {
                    "name": "E4",
                    "midi": 64,
                    "time": 43.89586500000004,
                    "velocity": 0.15748031496062992,
                    "duration": 0.33766049999999836
                },
                {
                    "name": "A4",
                    "midi": 69,
                    "time": 43.89586500000004,
                    "velocity": 0.1889763779527559,
                    "duration": 0.33766049999999836
                },
                {
                    "name": "E4",
                    "midi": 64,
                    "time": 44.34607900000004,
                    "velocity": 0.15748031496062992,
                    "duration": 0.16883024999999918
                },
                {
                    "name": "A4",
                    "midi": 69,
                    "time": 44.34607900000004,
                    "velocity": 0.1889763779527559,
                    "duration": 0.16883024999999918
                },
                {
                    "name": "E4",
                    "midi": 64,
                    "time": 44.57118600000004,
                    "velocity": 0.15748031496062992,
                    "duration": 0.45021400000000256
                },
                {
                    "name": "B4",
                    "midi": 71,
                    "time": 44.57118600000004,
                    "velocity": 0.1889763779527559,
                    "duration": 0.45021400000000256
                },
                {
                    "name": "D#4",
                    "midi": 63,
                    "time": 44.57118600000004,
                    "velocity": 0.16535433070866143,
                    "duration": 0.45021400000000256
                },
                {
                    "name": "E4",
                    "midi": 64,
                    "time": 45.02140000000004,
                    "velocity": 0.15748031496062992,
                    "duration": 0.45021400000000256
                },
                {
                    "name": "A4",
                    "midi": 69,
                    "time": 45.02140000000004,
                    "velocity": 0.1889763779527559,
                    "duration": 0.45021400000000256
                },
                {
                    "name": "C#4",
                    "midi": 61,
                    "time": 45.02140000000004,
                    "velocity": 0.14173228346456693,
                    "duration": 0.45021400000000256
                },
                {
                    "name": "E4",
                    "midi": 64,
                    "time": 45.471614000000045,
                    "velocity": 0.15748031496062992,
                    "duration": 0.45021400000000256
                },
                {
                    "name": "B4",
                    "midi": 71,
                    "time": 45.471614000000045,
                    "velocity": 0.1889763779527559,
                    "duration": 0.45021400000000256
                },
                {
                    "name": "D#4",
                    "midi": 63,
                    "time": 45.471614000000045,
                    "velocity": 0.16535433070866143,
                    "duration": 0.45021400000000256
                },
                {
                    "name": "C#4",
                    "midi": 61,
                    "time": 45.92182800000005,
                    "velocity": 0.18110236220472442,
                    "duration": 0.20259630000000328
                },
                {
                    "name": "B3",
                    "midi": 59,
                    "time": 45.92182800000005,
                    "velocity": 0.18110236220472442,
                    "duration": 1.3506420000000077
                },
                {
                    "name": "C#4",
                    "midi": 61,
                    "time": 46.14693500000005,
                    "velocity": 0.18110236220472442,
                    "duration": 0.40519259999999946
                },
                {
                    "name": "C#4",
                    "midi": 61,
                    "time": 46.59714900000005,
                    "velocity": 0.18110236220472442,
                    "duration": 0.40519259999999946
                },
                {
                    "name": "C#4",
                    "midi": 61,
                    "time": 47.047363000000054,
                    "velocity": 0.18110236220472442,
                    "duration": 0.40519259999999946
                },
                {
                    "name": "A#3",
                    "midi": 58,
                    "time": 47.272470000000055,
                    "velocity": 0.18110236220472442,
                    "duration": 1.2155778000000055
                },
                {
                    "name": "C#4",
                    "midi": 61,
                    "time": 47.49757700000006,
                    "velocity": 0.18110236220472442,
                    "duration": 0.40519259999999946
                },
                {
                    "name": "C#4",
                    "midi": 61,
                    "time": 47.94779100000006,
                    "velocity": 0.18110236220472442,
                    "duration": 0.40519259999999946
                },
                {
                    "name": "C#4",
                    "midi": 61,
                    "time": 48.39800500000006,
                    "velocity": 0.18110236220472442,
                    "duration": 0.40519259999999946
                },
                {
                    "name": "G#3",
                    "midi": 56,
                    "time": 48.62311200000006,
                    "velocity": 0.18110236220472442,
                    "duration": 1.3506420000000077
                },
                {
                    "name": "C#4",
                    "midi": 61,
                    "time": 48.848219000000064,
                    "velocity": 0.18110236220472442,
                    "duration": 0.40519259999999946
                },
                {
                    "name": "C#4",
                    "midi": 61,
                    "time": 49.29843300000007,
                    "velocity": 0.18110236220472442,
                    "duration": 0.40519259999999946
                },
                {
                    "name": "C#4",
                    "midi": 61,
                    "time": 49.74864700000007,
                    "velocity": 0.18110236220472442,
                    "duration": 0.40519259999999946
                },
                {
                    "name": "G3",
                    "midi": 55,
                    "time": 49.97375400000007,
                    "velocity": 0.18110236220472442,
                    "duration": 1.3506420000000077
                },
                {
                    "name": "C#4",
                    "midi": 61,
                    "time": 50.19886100000007,
                    "velocity": 0.18110236220472442,
                    "duration": 0.40519259999999946
                },
                {
                    "name": "C#4",
                    "midi": 61,
                    "time": 50.649075000000074,
                    "velocity": 0.18110236220472442,
                    "duration": 0.40519259999999946
                },
                {
                    "name": "C#4",
                    "midi": 61,
                    "time": 51.09928900000008,
                    "velocity": 0.18110236220472442,
                    "duration": 0.6753210000000038
                },
                {
                    "name": "F#3",
                    "midi": 54,
                    "time": 51.32439600000008,
                    "velocity": 0.18110236220472442,
                    "duration": 2.7012840000000153
                },
                {
                    "name": "D#4",
                    "midi": 63,
                    "time": 51.77461000000008,
                    "velocity": 0.2755905511811024,
                    "duration": 0.16883024999999918
                },
                {
                    "name": "C#4",
                    "midi": 61,
                    "time": 51.99971700000008,
                    "velocity": 0.2677165354330709,
                    "duration": 0.16883024999999918
                },
                {
                    "name": "D#4",
                    "midi": 63,
                    "time": 52.22482400000008,
                    "velocity": 0.2992125984251969,
                    "duration": 0.45021400000000256
                },
                {
                    "name": "C#4",
                    "midi": 61,
                    "time": 52.675038000000086,
                    "velocity": 0.31496062992125984,
                    "duration": 0.45021400000000256
                },
                {
                    "name": "D#4",
                    "midi": 63,
                    "time": 53.12525200000009,
                    "velocity": 0.2440944881889764,
                    "duration": 0.16883024999999918
                },
                {
                    "name": "C#4",
                    "midi": 61,
                    "time": 53.35035900000009,
                    "velocity": 0.2047244094488189,
                    "duration": 0.16883024999999918
                },
                {
                    "name": "D#4",
                    "midi": 63,
                    "time": 53.57546600000009,
                    "velocity": 0.25196850393700787,
                    "duration": 0.45021400000000256
                },
                {
                    "name": "F#3",
                    "midi": 54,
                    "time": 54.025680000000094,
                    "velocity": 0.18110236220472442,
                    "duration": 1.8008560000000102
                },
                {
                    "name": "C#4",
                    "midi": 61,
                    "time": 54.025680000000094,
                    "velocity": 0.29133858267716534,
                    "duration": 0.45021400000000256
                },
                {
                    "name": "D#4",
                    "midi": 63,
                    "time": 54.475894000000096,
                    "velocity": 0.2047244094488189,
                    "duration": 0.16883024999999918
                },
                {
                    "name": "C#4",
                    "midi": 61,
                    "time": 54.7010010000001,
                    "velocity": 0.2125984251968504,
                    "duration": 0.16883024999999918
                },
                {
                    "name": "D#4",
                    "midi": 63,
                    "time": 54.9261080000001,
                    "velocity": 0.2677165354330709,
                    "duration": 0.45021400000000256
                },
                {
                    "name": "C#4",
                    "midi": 61,
                    "time": 55.3763220000001,
                    "velocity": 0.29133858267716534,
                    "duration": 0.45021400000000256
                },
                {
                    "name": "D#3",
                    "midi": 51,
                    "time": 55.826536000000104,
                    "velocity": 0.18110236220472442,
                    "duration": 0.45021400000000256
                },
                {
                    "name": "C#3",
                    "midi": 49,
                    "time": 56.276750000000106,
                    "velocity": 0.18110236220472442,
                    "duration": 0.45021400000000256
                },
                {
                    "name": "B2",
                    "midi": 47,
                    "time": 56.72696400000011,
                    "velocity": 0.31496062992125984,
                    "duration": 0.22510700000000128
                },
                {
                    "name": "B3",
                    "midi": 59,
                    "time": 57.17717800000011,
                    "velocity": 0.25984251968503935,
                    "duration": 0.11255349999999709
                },
                {
                    "name": "B3",
                    "midi": 59,
                    "time": 57.62739200000011,
                    "velocity": 0.25984251968503935,
                    "duration": 0.11255349999999709
                },
                {
                    "name": "B3",
                    "midi": 59,
                    "time": 58.0776060000001,
                    "velocity": 0.25984251968503935,
                    "duration": 0.11255349999999709
                },
                {
                    "name": "B3",
                    "midi": 59,
                    "time": 58.5278200000001,
                    "velocity": 0.25984251968503935,
                    "duration": 0.11255349999999709
                },
                {
                    "name": "B3",
                    "midi": 59,
                    "time": 58.97803400000009,
                    "velocity": 0.25984251968503935,
                    "duration": 0.11255349999999709
                },
                {
                    "name": "C#4",
                    "midi": 61,
                    "time": 59.42824800000009,
                    "velocity": 0.30708661417322836,
                    "duration": 0.6753209999999967
                },
                {
                    "name": "B3",
                    "midi": 59,
                    "time": 59.42824800000009,
                    "velocity": 0.30708661417322836,
                    "duration": 2.7012840000000082
                },
                {
                    "name": "D4",
                    "midi": 62,
                    "time": 60.103569000000086,
                    "velocity": 0.2125984251968504,
                    "duration": 0.22510700000000128
                },
                {
                    "name": "E4",
                    "midi": 64,
                    "time": 60.32867600000009,
                    "velocity": 0.2755905511811024,
                    "duration": 0.45021400000000256
                },
                {
                    "name": "C#4",
                    "midi": 61,
                    "time": 60.77889000000009,
                    "velocity": 0.3464566929133858,
                    "duration": 0.45021400000000256
                },
                {
                    "name": "D4",
                    "midi": 62,
                    "time": 61.22910400000009,
                    "velocity": 0.2677165354330709,
                    "duration": 0.45021400000000256
                },
                {
                    "name": "E4",
                    "midi": 64,
                    "time": 61.679318000000094,
                    "velocity": 0.2677165354330709,
                    "duration": 0.45021400000000256
                },
                {
                    "name": "F4",
                    "midi": 65,
                    "time": 62.1295320000001,
                    "velocity": 0.3543307086614173,
                    "duration": 0.900427999999998
                },
                {
                    "name": "B3",
                    "midi": 59,
                    "time": 62.1295320000001,
                    "velocity": 0.4015748031496063,
                    "duration": 2.701284000000001
                },
                {
                    "name": "E4",
                    "midi": 64,
                    "time": 63.029960000000095,
                    "velocity": 0.30708661417322836,
                    "duration": 0.900427999999998
                },
                {
                    "name": "D4",
                    "midi": 62,
                    "time": 63.93038800000009,
                    "velocity": 0.25196850393700787,
                    "duration": 0.9004280000000051
                },
                {
                    "name": "C#4",
                    "midi": 61,
                    "time": 64.8308160000001,
                    "velocity": 0.30708661417322836,
                    "duration": 0.6753209999999967
                },
                {
                    "name": "B3",
                    "midi": 59,
                    "time": 64.8308160000001,
                    "velocity": 0.30708661417322836,
                    "duration": 2.701284000000001
                },
                {
                    "name": "D4",
                    "midi": 62,
                    "time": 65.5061370000001,
                    "velocity": 0.2125984251968504,
                    "duration": 0.22510699999999417
                },
                {
                    "name": "E4",
                    "midi": 64,
                    "time": 65.73124400000009,
                    "velocity": 0.2755905511811024,
                    "duration": 0.45021400000000256
                },
                {
                    "name": "C#4",
                    "midi": 61,
                    "time": 66.18145800000009,
                    "velocity": 0.3464566929133858,
                    "duration": 0.45021400000000256
                },
                {
                    "name": "D4",
                    "midi": 62,
                    "time": 66.6316720000001,
                    "velocity": 0.2677165354330709,
                    "duration": 0.45021400000000256
                },
                {
                    "name": "E4",
                    "midi": 64,
                    "time": 67.0818860000001,
                    "velocity": 0.2677165354330709,
                    "duration": 0.45021400000000256
                },
                {
                    "name": "F4",
                    "midi": 65,
                    "time": 67.5321000000001,
                    "velocity": 0.3543307086614173,
                    "duration": 0.9004280000000051
                },
                {
                    "name": "G3",
                    "midi": 55,
                    "time": 67.5321000000001,
                    "velocity": 0.4015748031496063,
                    "duration": 2.7012840000000153
                },
                {
                    "name": "E4",
                    "midi": 64,
                    "time": 68.4325280000001,
                    "velocity": 0.30708661417322836,
                    "duration": 0.9004280000000051
                },
                {
                    "name": "D4",
                    "midi": 62,
                    "time": 69.33295600000011,
                    "velocity": 0.25196850393700787,
                    "duration": 0.9004280000000051
                },
                {
                    "name": "D4",
                    "midi": 62,
                    "time": 70.23338400000011,
                    "velocity": 0.30708661417322836,
                    "duration": 0.6753209999999967
                },
                {
                    "name": "A#3",
                    "midi": 58,
                    "time": 70.23338400000011,
                    "velocity": 0.30708661417322836,
                    "duration": 2.701283999999987
                },
                {
                    "name": "E4",
                    "midi": 64,
                    "time": 70.90870500000011,
                    "velocity": 0.2125984251968504,
                    "duration": 0.22510699999999417
                },
                {
                    "name": "D4",
                    "midi": 62,
                    "time": 71.1338120000001,
                    "velocity": 0.2755905511811024,
                    "duration": 0.45021400000000256
                },
                {
                    "name": "C#4",
                    "midi": 61,
                    "time": 71.58402600000011,
                    "velocity": 0.3464566929133858,
                    "duration": 1.3506419999999935
                },
                {
                    "name": "D4",
                    "midi": 62,
                    "time": 72.9346680000001,
                    "velocity": 0.30708661417322836,
                    "duration": 0.6753209999999967
                },
                {
                    "name": "A#3",
                    "midi": 58,
                    "time": 72.9346680000001,
                    "velocity": 0.30708661417322836,
                    "duration": 2.701284000000001
                },
                {
                    "name": "E4",
                    "midi": 64,
                    "time": 73.6099890000001,
                    "velocity": 0.2755905511811024,
                    "duration": 0.22510699999999417
                },
                {
                    "name": "D4",
                    "midi": 62,
                    "time": 73.83509600000009,
                    "velocity": 0.36220472440944884,
                    "duration": 0.45021400000000256
                },
                {
                    "name": "C#4",
                    "midi": 61,
                    "time": 74.2853100000001,
                    "velocity": 0.33070866141732286,
                    "duration": 0.45021400000000256
                },
                {
                    "name": "D4",
                    "midi": 62,
                    "time": 74.7355240000001,
                    "velocity": 0.3700787401574803,
                    "duration": 0.45021400000000256
                },
                {
                    "name": "A3",
                    "midi": 57,
                    "time": 75.1857380000001,
                    "velocity": 0.4015748031496063,
                    "duration": 0.45021400000000256
                },
                {
                    "name": "E4",
                    "midi": 64,
                    "time": 75.1857380000001,
                    "velocity": 0.4015748031496063,
                    "duration": 0.45021400000000256
                },
                {
                    "name": "F4",
                    "midi": 65,
                    "time": 75.6359520000001,
                    "velocity": 0.30708661417322836,
                    "duration": 0.6753209999999967
                },
                {
                    "name": "C#4",
                    "midi": 61,
                    "time": 75.6359520000001,
                    "velocity": 0.30708661417322836,
                    "duration": 2.701283999999987
                },
                {
                    "name": "G4",
                    "midi": 67,
                    "time": 76.3112730000001,
                    "velocity": 0.2125984251968504,
                    "duration": 0.22510699999999417
                },
                {
                    "name": "F4",
                    "midi": 65,
                    "time": 76.5363800000001,
                    "velocity": 0.2755905511811024,
                    "duration": 0.45021400000000256
                },
                {
                    "name": "E4",
                    "midi": 64,
                    "time": 76.9865940000001,
                    "velocity": 0.3464566929133858,
                    "duration": 1.3506419999999935
                },
                {
                    "name": "F4",
                    "midi": 65,
                    "time": 78.33723600000009,
                    "velocity": 0.30708661417322836,
                    "duration": 0.6753209999999967
                },
                {
                    "name": "C#4",
                    "midi": 61,
                    "time": 78.33723600000009,
                    "velocity": 0.30708661417322836,
                    "duration": 2.701284000000001
                },
                {
                    "name": "G4",
                    "midi": 67,
                    "time": 79.01255700000009,
                    "velocity": 0.2755905511811024,
                    "duration": 0.22510699999999417
                },
                {
                    "name": "F4",
                    "midi": 65,
                    "time": 79.23766400000008,
                    "velocity": 0.36220472440944884,
                    "duration": 0.45021400000000256
                },
                {
                    "name": "E4",
                    "midi": 64,
                    "time": 79.68787800000008,
                    "velocity": 0.33070866141732286,
                    "duration": 0.45021400000000256
                },
                {
                    "name": "F4",
                    "midi": 65,
                    "time": 80.13809200000009,
                    "velocity": 0.3700787401574803,
                    "duration": 0.45021400000000256
                },
                {
                    "name": "C4",
                    "midi": 60,
                    "time": 80.58830600000009,
                    "velocity": 0.4015748031496063,
                    "duration": 0.45021400000000256
                },
                {
                    "name": "G4",
                    "midi": 67,
                    "time": 80.58830600000009,
                    "velocity": 0.4015748031496063,
                    "duration": 0.45021400000000256
                },
                {
                    "name": "F4",
                    "midi": 65,
                    "time": 81.03852000000009,
                    "velocity": 0.2755905511811024,
                    "duration": 0.11255350000000419
                },
                {
                    "name": "G#4",
                    "midi": 68,
                    "time": 81.2636270000001,
                    "velocity": 0.25984251968503935,
                    "duration": 0.11255350000000419
                },
                {
                    "name": "C4",
                    "midi": 60,
                    "time": 84.19001800000011,
                    "velocity": 0.28346456692913385,
                    "duration": 0.11255350000000419
                },
                {
                    "name": "A#3",
                    "midi": 58,
                    "time": 84.64023200000011,
                    "velocity": 0.2204724409448819,
                    "duration": 0.11255350000000419
                },
                {
                    "name": "D4",
                    "midi": 62,
                    "time": 84.64023200000011,
                    "velocity": 0.25984251968503935,
                    "duration": 0.11255350000000419
                },
                {
                    "name": "G#3",
                    "midi": 56,
                    "time": 85.54066000000012,
                    "velocity": 0.14960629921259844,
                    "duration": 0.11255350000000419
                },
                {
                    "name": "C4",
                    "midi": 60,
                    "time": 85.54066000000012,
                    "velocity": 0.2204724409448819,
                    "duration": 0.11255350000000419
                },
                {
                    "name": "G3",
                    "midi": 55,
                    "time": 85.99087400000012,
                    "velocity": 0.12598425196850394,
                    "duration": 0.11255350000000419
                },
                {
                    "name": "A#3",
                    "midi": 58,
                    "time": 85.99087400000012,
                    "velocity": 0.1889763779527559,
                    "duration": 0.11255350000000419
                },
                {
                    "name": "G#3",
                    "midi": 56,
                    "time": 88.18566725000012,
                    "velocity": 0.2047244094488189,
                    "duration": 0.16883024999999918
                },
                {
                    "name": "A#3",
                    "midi": 58,
                    "time": 88.24194400000012,
                    "velocity": 0.25984251968503935,
                    "duration": 0.11255350000000419
                },
                {
                    "name": "G#3",
                    "midi": 56,
                    "time": 88.63588125000012,
                    "velocity": 0.1889763779527559,
                    "duration": 0.16883024999999918
                },
                {
                    "name": "A#3",
                    "midi": 58,
                    "time": 88.69215800000012,
                    "velocity": 0.25196850393700787,
                    "duration": 0.11255350000000419
                },
                {
                    "name": "G#3",
                    "midi": 56,
                    "time": 89.08609525000013,
                    "velocity": 0.1889763779527559,
                    "duration": 0.16883024999999918
                },
                {
                    "name": "A#3",
                    "midi": 58,
                    "time": 89.14237200000012,
                    "velocity": 0.2440944881889764,
                    "duration": 0.11255350000000419
                },
                {
                    "name": "G#3",
                    "midi": 56,
                    "time": 89.53630925000013,
                    "velocity": 0.1889763779527559,
                    "duration": 0.16883024999999918
                },
                {
                    "name": "A#3",
                    "midi": 58,
                    "time": 89.59258600000013,
                    "velocity": 0.23622047244094488,
                    "duration": 0.11255350000000419
                },
                {
                    "name": "G#3",
                    "midi": 56,
                    "time": 89.98652325000013,
                    "velocity": 0.1732283464566929,
                    "duration": 0.16883024999999918
                },
                {
                    "name": "A#3",
                    "midi": 58,
                    "time": 90.04280000000013,
                    "velocity": 0.2283464566929134,
                    "duration": 0.11255350000000419
                },
                {
                    "name": "G#3",
                    "midi": 56,
                    "time": 90.43673725000014,
                    "velocity": 0.1732283464566929,
                    "duration": 0.16883024999999918
                },
                {
                    "name": "A#3",
                    "midi": 58,
                    "time": 90.49301400000013,
                    "velocity": 0.2283464566929134,
                    "duration": 0.11255350000000419
                },
                {
                    "name": "G#3",
                    "midi": 56,
                    "time": 90.88695125000014,
                    "velocity": 0.1732283464566929,
                    "duration": 0.16883024999999918
                },
                {
                    "name": "A#3",
                    "midi": 58,
                    "time": 90.94322800000013,
                    "velocity": 0.2204724409448819,
                    "duration": 0.11255350000000419
                },
                {
                    "name": "G#3",
                    "midi": 56,
                    "time": 91.33716525000014,
                    "velocity": 0.15748031496062992,
                    "duration": 0.16883024999999918
                },
                {
                    "name": "A#3",
                    "midi": 58,
                    "time": 91.39344200000014,
                    "velocity": 0.2125984251968504,
                    "duration": 0.11255350000000419
                },
                {
                    "name": "G#3",
                    "midi": 56,
                    "time": 91.84365600000014,
                    "velocity": 0.1732283464566929,
                    "duration": 0.11255350000000419
                },
                {
                    "name": "A#3",
                    "midi": 58,
                    "time": 91.84365600000014,
                    "velocity": 0.2283464566929134,
                    "duration": 0.11255350000000419
                },
                {
                    "name": "G#3",
                    "midi": 56,
                    "time": 92.29387000000014,
                    "velocity": 0.15748031496062992,
                    "duration": 0.11255350000000419
                },
                {
                    "name": "A#3",
                    "midi": 58,
                    "time": 92.29387000000014,
                    "velocity": 0.2125984251968504,
                    "duration": 0.11255350000000419
                },
                {
                    "name": "G#3",
                    "midi": 56,
                    "time": 92.68780725000015,
                    "velocity": 0.15748031496062992,
                    "duration": 0.16883024999999918
                },
                {
                    "name": "A#3",
                    "midi": 58,
                    "time": 92.74408400000014,
                    "velocity": 0.2125984251968504,
                    "duration": 0.11255350000000419
                },
                {
                    "name": "G#3",
                    "midi": 56,
                    "time": 93.19429800000015,
                    "velocity": 0.1732283464566929,
                    "duration": 0.11255350000000419
                },
                {
                    "name": "A#3",
                    "midi": 58,
                    "time": 93.19429800000015,
                    "velocity": 0.2283464566929134,
                    "duration": 0.11255350000000419
                },
                {
                    "name": "G#3",
                    "midi": 56,
                    "time": 93.64451200000015,
                    "velocity": 0.15748031496062992,
                    "duration": 0.11255350000000419
                },
                {
                    "name": "A#3",
                    "midi": 58,
                    "time": 93.64451200000015,
                    "velocity": 0.2125984251968504,
                    "duration": 0.11255350000000419
                },
                {
                    "name": "G#3",
                    "midi": 56,
                    "time": 94.03844925000016,
                    "velocity": 0.15748031496062992,
                    "duration": 0.16883024999999918
                },
                {
                    "name": "A#3",
                    "midi": 58,
                    "time": 94.09472600000015,
                    "velocity": 0.2125984251968504,
                    "duration": 0.11255350000000419
                },
                {
                    "name": "G#3",
                    "midi": 56,
                    "time": 94.54494000000015,
                    "velocity": 0.1732283464566929,
                    "duration": 0.11255350000000419
                },
                {
                    "name": "A#3",
                    "midi": 58,
                    "time": 94.54494000000015,
                    "velocity": 0.2283464566929134,
                    "duration": 0.11255350000000419
                },
                {
                    "name": "G#3",
                    "midi": 56,
                    "time": 94.99515400000016,
                    "velocity": 0.15748031496062992,
                    "duration": 0.11255350000000419
                },
                {
                    "name": "A#3",
                    "midi": 58,
                    "time": 94.99515400000016,
                    "velocity": 0.2125984251968504,
                    "duration": 0.11255350000000419
                },
                {
                    "name": "G#3",
                    "midi": 56,
                    "time": 95.44536800000016,
                    "velocity": 0.15748031496062992,
                    "duration": 0.11255350000000419
                },
                {
                    "name": "A#3",
                    "midi": 58,
                    "time": 95.44536800000016,
                    "velocity": 0.2125984251968504,
                    "duration": 0.11255350000000419
                },
                {
                    "name": "G#3",
                    "midi": 56,
                    "time": 95.89558200000016,
                    "velocity": 0.1732283464566929,
                    "duration": 0.11255350000000419
                },
                {
                    "name": "A#3",
                    "midi": 58,
                    "time": 95.89558200000016,
                    "velocity": 0.2283464566929134,
                    "duration": 0.11255350000000419
                },
                {
                    "name": "G#3",
                    "midi": 56,
                    "time": 96.34579600000016,
                    "velocity": 0.15748031496062992,
                    "duration": 0.11255350000000419
                },
                {
                    "name": "A#3",
                    "midi": 58,
                    "time": 96.34579600000016,
                    "velocity": 0.2125984251968504,
                    "duration": 0.11255350000000419
                },
                {
                    "name": "G#3",
                    "midi": 56,
                    "time": 96.73973325000017,
                    "velocity": 0.1968503937007874,
                    "duration": 0.16883024999999918
                },
                {
                    "name": "A#3",
                    "midi": 58,
                    "time": 96.79601000000017,
                    "velocity": 0.25196850393700787,
                    "duration": 0.11255350000000419
                },
                {
                    "name": "A#3",
                    "midi": 58,
                    "time": 97.24622400000017,
                    "velocity": 0.1732283464566929,
                    "duration": 0.11255350000000419
                },
                {
                    "name": "C4",
                    "midi": 60,
                    "time": 97.24622400000017,
                    "velocity": 0.2283464566929134,
                    "duration": 0.11255350000000419
                },
                {
                    "name": "A#3",
                    "midi": 58,
                    "time": 97.69643800000017,
                    "velocity": 0.15748031496062992,
                    "duration": 0.11255350000000419
                },
                {
                    "name": "C4",
                    "midi": 60,
                    "time": 97.69643800000017,
                    "velocity": 0.2125984251968504,
                    "duration": 0.11255350000000419
                },
                {
                    "name": "A#3",
                    "midi": 58,
                    "time": 98.14665200000017,
                    "velocity": 0.15748031496062992,
                    "duration": 0.11255350000000419
                },
                {
                    "name": "C4",
                    "midi": 60,
                    "time": 98.14665200000017,
                    "velocity": 0.2125984251968504,
                    "duration": 0.11255350000000419
                },
                {
                    "name": "A#3",
                    "midi": 58,
                    "time": 98.59686600000018,
                    "velocity": 0.1732283464566929,
                    "duration": 0.11255350000000419
                },
                {
                    "name": "C4",
                    "midi": 60,
                    "time": 98.59686600000018,
                    "velocity": 0.2283464566929134,
                    "duration": 0.11255350000000419
                },
                {
                    "name": "A#3",
                    "midi": 58,
                    "time": 99.04708000000018,
                    "velocity": 0.15748031496062992,
                    "duration": 0.11255350000000419
                },
                {
                    "name": "C4",
                    "midi": 60,
                    "time": 99.04708000000018,
                    "velocity": 0.2125984251968504,
                    "duration": 0.11255350000000419
                },
                {
                    "name": "C4",
                    "midi": 60,
                    "time": 99.49729400000018,
                    "velocity": 0.2125984251968504,
                    "duration": 0.11255350000000419
                },
                {
                    "name": "A#3",
                    "midi": 58,
                    "time": 99.49729400000018,
                    "velocity": 0.15748031496062992,
                    "duration": 0.11255350000000419
                },
                {
                    "name": "A#3",
                    "midi": 58,
                    "time": 99.94750800000018,
                    "velocity": 0.1732283464566929,
                    "duration": 0.11255350000000419
                },
                {
                    "name": "C4",
                    "midi": 60,
                    "time": 99.94750800000018,
                    "velocity": 0.2283464566929134,
                    "duration": 0.11255350000000419
                },
                {
                    "name": "A#3",
                    "midi": 58,
                    "time": 100.39772200000019,
                    "velocity": 0.15748031496062992,
                    "duration": 0.11255350000000419
                },
                {
                    "name": "C4",
                    "midi": 60,
                    "time": 100.39772200000019,
                    "velocity": 0.2125984251968504,
                    "duration": 0.11255350000000419
                },
                {
                    "name": "C4",
                    "midi": 60,
                    "time": 100.84793600000019,
                    "velocity": 0.2125984251968504,
                    "duration": 0.11255350000000419
                },
                {
                    "name": "A#3",
                    "midi": 58,
                    "time": 100.84793600000019,
                    "velocity": 0.15748031496062992,
                    "duration": 0.11255350000000419
                },
                {
                    "name": "A#3",
                    "midi": 58,
                    "time": 101.29815000000019,
                    "velocity": 0.1732283464566929,
                    "duration": 0.11255350000000419
                },
                {
                    "name": "C4",
                    "midi": 60,
                    "time": 101.29815000000019,
                    "velocity": 0.2283464566929134,
                    "duration": 0.11255350000000419
                },
                {
                    "name": "C4",
                    "midi": 60,
                    "time": 101.7455501625002,
                    "velocity": 0.2125984251968504,
                    "duration": 0.11255350000000419
                },
                {
                    "name": "A#3",
                    "midi": 58,
                    "time": 101.7483640000002,
                    "velocity": 0.15748031496062992,
                    "duration": 0.11255350000000419
                },
                {
                    "name": "A#3",
                    "midi": 58,
                    "time": 102.1423012500002,
                    "velocity": 0.1968503937007874,
                    "duration": 0.16883024999999918
                },
                {
                    "name": "C4",
                    "midi": 60,
                    "time": 102.1985780000002,
                    "velocity": 0.25196850393700787,
                    "duration": 0.11255350000000419
                },
                {
                    "name": "C4",
                    "midi": 60,
                    "time": 103.0961921625002,
                    "velocity": 0.2125984251968504,
                    "duration": 0.11255350000000419
                },
                {
                    "name": "A#3",
                    "midi": 58,
                    "time": 103.0990060000002,
                    "velocity": 0.15748031496062992,
                    "duration": 0.11255350000000419
                },
                {
                    "name": "C#4",
                    "midi": 61,
                    "time": 103.5492200000002,
                    "velocity": 0.1732283464566929,
                    "duration": 0.11255350000000419
                },
                {
                    "name": "D#4",
                    "midi": 63,
                    "time": 103.5492200000002,
                    "velocity": 0.2204724409448819,
                    "duration": 0.11255350000000419
                },
                {
                    "name": "D#4",
                    "midi": 63,
                    "time": 103.94315725000021,
                    "velocity": 0.1968503937007874,
                    "duration": 0.16883024999999918
                },
                {
                    "name": "F#4",
                    "midi": 66,
                    "time": 103.9994340000002,
                    "velocity": 0.25196850393700787,
                    "duration": 0.11255350000000419
                },
                {
                    "name": "C#4",
                    "midi": 61,
                    "time": 104.44964800000021,
                    "velocity": 0.25196850393700787,
                    "duration": 0.11255350000000419
                },
                {
                    "name": "F#3",
                    "midi": 54,
                    "time": 104.89986200000021,
                    "velocity": 0.25196850393700787,
                    "duration": 0.11255350000000419
                },
                {
                    "name": "C4",
                    "midi": 60,
                    "time": 105.80029000000022,
                    "velocity": 0.2204724409448819,
                    "duration": 0.11255350000000419
                },
                {
                    "name": "A#3",
                    "midi": 58,
                    "time": 105.80029000000022,
                    "velocity": 0.16535433070866143,
                    "duration": 0.11255350000000419
                },
                {
                    "name": "D#4",
                    "midi": 63,
                    "time": 106.25050400000022,
                    "velocity": 0.23622047244094488,
                    "duration": 0.11255350000000419
                },
                {
                    "name": "C#4",
                    "midi": 61,
                    "time": 106.25050400000022,
                    "velocity": 0.1732283464566929,
                    "duration": 0.11255350000000419
                },
                {
                    "name": "D#4",
                    "midi": 63,
                    "time": 106.64444125000023,
                    "velocity": 0.1968503937007874,
                    "duration": 0.16883024999999918
                },
                {
                    "name": "F#4",
                    "midi": 66,
                    "time": 106.70071800000022,
                    "velocity": 0.25196850393700787,
                    "duration": 0.11255350000000419
                },
                {
                    "name": "C#4",
                    "midi": 61,
                    "time": 107.15093200000022,
                    "velocity": 0.25196850393700787,
                    "duration": 0.11255350000000419
                },
                {
                    "name": "F#3",
                    "midi": 54,
                    "time": 107.60114600000023,
                    "velocity": 0.25196850393700787,
                    "duration": 0.11255350000000419
                },
                {
                    "name": "D#4",
                    "midi": 63,
                    "time": 107.99508325000023,
                    "velocity": 0.1968503937007874,
                    "duration": 0.16883024999999918
                },
                {
                    "name": "F#4",
                    "midi": 66,
                    "time": 108.05136000000023,
                    "velocity": 0.25196850393700787,
                    "duration": 0.11255350000000419
                },
                {
                    "name": "C#4",
                    "midi": 61,
                    "time": 108.50157400000023,
                    "velocity": 0.25196850393700787,
                    "duration": 0.11255350000000419
                },
                {
                    "name": "F#3",
                    "midi": 54,
                    "time": 108.95178800000024,
                    "velocity": 0.25196850393700787,
                    "duration": 0.11255350000000419
                },
                {
                    "name": "D#4",
                    "midi": 63,
                    "time": 109.34572525000024,
                    "velocity": 0.1732283464566929,
                    "duration": 0.16883024999999918
                },
                {
                    "name": "F#4",
                    "midi": 66,
                    "time": 109.40200200000024,
                    "velocity": 0.2204724409448819,
                    "duration": 0.11255350000000419
                },
                {
                    "name": "C#4",
                    "midi": 61,
                    "time": 109.85221600000024,
                    "velocity": 0.2204724409448819,
                    "duration": 0.11255350000000419
                },
                {
                    "name": "F#3",
                    "midi": 54,
                    "time": 110.30243000000024,
                    "velocity": 0.2204724409448819,
                    "duration": 0.11255350000000419
                },
                {
                    "name": "E4",
                    "midi": 64,
                    "time": 110.75264400000025,
                    "velocity": 0.1968503937007874,
                    "duration": 0.11255350000000419
                },
                {
                    "name": "C#4",
                    "midi": 61,
                    "time": 111.20285800000025,
                    "velocity": 0.1968503937007874,
                    "duration": 0.11255350000000419
                },
                {
                    "name": "F#3",
                    "midi": 54,
                    "time": 111.65307200000025,
                    "velocity": 0.1968503937007874,
                    "duration": 0.11255350000000419
                },
                {
                    "name": "E4",
                    "midi": 64,
                    "time": 112.04700925000026,
                    "velocity": 0.14960629921259844,
                    "duration": 0.16883024999999918
                },
                {
                    "name": "F#4",
                    "midi": 66,
                    "time": 112.07514762500026,
                    "velocity": 0.12598425196850394,
                    "duration": 0.1406918750000017
                },
                {
                    "name": "A4",
                    "midi": 69,
                    "time": 112.10328600000025,
                    "velocity": 0.14960629921259844,
                    "duration": 0.11255350000000419
                },
                {
                    "name": "E4",
                    "midi": 64,
                    "time": 112.49722325000026,
                    "velocity": 0.12598425196850394,
                    "duration": 0.16883024999999918
                },
                {
                    "name": "F#4",
                    "midi": 66,
                    "time": 112.52536162500026,
                    "velocity": 0.12598425196850394,
                    "duration": 0.1406918750000017
                },
                {
                    "name": "A4",
                    "midi": 69,
                    "time": 112.55350000000026,
                    "velocity": 0.14960629921259844,
                    "duration": 0.11255350000000419
                },
                {
                    "name": "E4",
                    "midi": 64,
                    "time": 112.94743725000026,
                    "velocity": 0.12598425196850394,
                    "duration": 0.16883024999999918
                },
                {
                    "name": "F#4",
                    "midi": 66,
                    "time": 112.97557562500026,
                    "velocity": 0.12598425196850394,
                    "duration": 0.1406918750000017
                },
                {
                    "name": "A4",
                    "midi": 69,
                    "time": 113.00371400000026,
                    "velocity": 0.14960629921259844,
                    "duration": 0.11255350000000419
                },
                {
                    "name": "E4",
                    "midi": 64,
                    "time": 113.39765125000027,
                    "velocity": 0.12598425196850394,
                    "duration": 0.16883024999999918
                },
                {
                    "name": "F#4",
                    "midi": 66,
                    "time": 113.42578962500026,
                    "velocity": 0.12598425196850394,
                    "duration": 0.1406918750000017
                },
                {
                    "name": "A4",
                    "midi": 69,
                    "time": 113.45392800000026,
                    "velocity": 0.14960629921259844,
                    "duration": 0.11255350000000419
                },
                {
                    "name": "E4",
                    "midi": 64,
                    "time": 113.84786525000027,
                    "velocity": 0.12598425196850394,
                    "duration": 0.16883024999999918
                },
                {
                    "name": "F#4",
                    "midi": 66,
                    "time": 113.87600362500027,
                    "velocity": 0.12598425196850394,
                    "duration": 0.1406918750000017
                },
                {
                    "name": "A4",
                    "midi": 69,
                    "time": 113.90414200000026,
                    "velocity": 0.14960629921259844,
                    "duration": 0.11255350000000419
                },
                {
                    "name": "E4",
                    "midi": 64,
                    "time": 114.29807925000027,
                    "velocity": 0.12598425196850394,
                    "duration": 0.16883024999999918
                },
                {
                    "name": "F#4",
                    "midi": 66,
                    "time": 114.32621762500027,
                    "velocity": 0.12598425196850394,
                    "duration": 0.1406918750000017
                },
                {
                    "name": "A4",
                    "midi": 69,
                    "time": 114.35435600000027,
                    "velocity": 0.14960629921259844,
                    "duration": 0.11255350000000419
                },
                {
                    "name": "E4",
                    "midi": 64,
                    "time": 114.80457000000027,
                    "velocity": 0.12598425196850394,
                    "duration": 0.11255350000000419
                },
                {
                    "name": "F#4",
                    "midi": 66,
                    "time": 114.80457000000027,
                    "velocity": 0.12598425196850394,
                    "duration": 0.11255350000000419
                },
                {
                    "name": "A4",
                    "midi": 69,
                    "time": 114.80457000000027,
                    "velocity": 0.14960629921259844,
                    "duration": 0.11255350000000419
                },
                {
                    "name": "E4",
                    "midi": 64,
                    "time": 115.25478400000027,
                    "velocity": 0.12598425196850394,
                    "duration": 0.11255350000000419
                },
                {
                    "name": "F#4",
                    "midi": 66,
                    "time": 115.25478400000027,
                    "velocity": 0.12598425196850394,
                    "duration": 0.11255350000000419
                },
                {
                    "name": "A4",
                    "midi": 69,
                    "time": 115.25478400000027,
                    "velocity": 0.14960629921259844,
                    "duration": 0.11255350000000419
                },
                {
                    "name": "E4",
                    "midi": 64,
                    "time": 115.70499800000027,
                    "velocity": 0.12598425196850394,
                    "duration": 0.11255350000000419
                },
                {
                    "name": "F#4",
                    "midi": 66,
                    "time": 115.70499800000027,
                    "velocity": 0.12598425196850394,
                    "duration": 0.11255350000000419
                },
                {
                    "name": "A4",
                    "midi": 69,
                    "time": 115.70499800000027,
                    "velocity": 0.14960629921259844,
                    "duration": 0.11255350000000419
                },
                {
                    "name": "D#4",
                    "midi": 63,
                    "time": 116.15521200000028,
                    "velocity": 0.12598425196850394,
                    "duration": 0.11255350000000419
                },
                {
                    "name": "F#4",
                    "midi": 66,
                    "time": 116.15521200000028,
                    "velocity": 0.12598425196850394,
                    "duration": 0.11255350000000419
                },
                {
                    "name": "A4",
                    "midi": 69,
                    "time": 116.15521200000028,
                    "velocity": 0.14960629921259844,
                    "duration": 0.11255350000000419
                },
                {
                    "name": "C#4",
                    "midi": 61,
                    "time": 116.60542600000028,
                    "velocity": 0.13385826771653545,
                    "duration": 0.11255350000000419
                },
                {
                    "name": "F#4",
                    "midi": 66,
                    "time": 116.60542600000028,
                    "velocity": 0.13385826771653545,
                    "duration": 0.11255350000000419
                },
                {
                    "name": "A4",
                    "midi": 69,
                    "time": 116.60542600000028,
                    "velocity": 0.15748031496062992,
                    "duration": 0.11255350000000419
                },
                {
                    "name": "C4",
                    "midi": 60,
                    "time": 117.05564000000028,
                    "velocity": 0.13385826771653545,
                    "duration": 0.11255350000000419
                },
                {
                    "name": "F#4",
                    "midi": 66,
                    "time": 117.05564000000028,
                    "velocity": 0.13385826771653545,
                    "duration": 0.11255350000000419
                },
                {
                    "name": "A4",
                    "midi": 69,
                    "time": 117.05564000000028,
                    "velocity": 0.16535433070866143,
                    "duration": 0.11255350000000419
                },
                {
                    "name": "B3",
                    "midi": 59,
                    "time": 117.50585400000028,
                    "velocity": 0.12598425196850394,
                    "duration": 0.11255350000000419
                },
                {
                    "name": "C#4",
                    "midi": 61,
                    "time": 117.50585400000028,
                    "velocity": 0.12598425196850394,
                    "duration": 0.11255350000000419
                },
                {
                    "name": "F4",
                    "midi": 65,
                    "time": 117.50585400000028,
                    "velocity": 0.14960629921259844,
                    "duration": 0.11255350000000419
                },
                {
                    "name": "B3",
                    "midi": 59,
                    "time": 117.95606800000029,
                    "velocity": 0.12598425196850394,
                    "duration": 0.11255350000000419
                },
                {
                    "name": "C#4",
                    "midi": 61,
                    "time": 117.95606800000029,
                    "velocity": 0.12598425196850394,
                    "duration": 0.11255350000000419
                },
                {
                    "name": "F4",
                    "midi": 65,
                    "time": 117.95606800000029,
                    "velocity": 0.14960629921259844,
                    "duration": 0.11255350000000419
                },
                {
                    "name": "B3",
                    "midi": 59,
                    "time": 118.40628200000029,
                    "velocity": 0.12598425196850394,
                    "duration": 0.11255350000000419
                },
                {
                    "name": "C#4",
                    "midi": 61,
                    "time": 118.40628200000029,
                    "velocity": 0.12598425196850394,
                    "duration": 0.11255350000000419
                },
                {
                    "name": "F4",
                    "midi": 65,
                    "time": 118.40628200000029,
                    "velocity": 0.14960629921259844,
                    "duration": 0.11255350000000419
                },
                {
                    "name": "A#3",
                    "midi": 58,
                    "time": 118.85649600000029,
                    "velocity": 0.12598425196850394,
                    "duration": 0.11255350000000419
                },
                {
                    "name": "C#4",
                    "midi": 61,
                    "time": 118.85649600000029,
                    "velocity": 0.12598425196850394,
                    "duration": 0.11255350000000419
                },
                {
                    "name": "E4",
                    "midi": 64,
                    "time": 118.85649600000029,
                    "velocity": 0.14960629921259844,
                    "duration": 0.11255350000000419
                },
                {
                    "name": "G#3",
                    "midi": 56,
                    "time": 119.3067100000003,
                    "velocity": 0.11023622047244094,
                    "duration": 0.11255350000000419
                },
                {
                    "name": "C#4",
                    "midi": 61,
                    "time": 119.3067100000003,
                    "velocity": 0.11023622047244094,
                    "duration": 0.11255350000000419
                },
                {
                    "name": "E4",
                    "midi": 64,
                    "time": 119.3067100000003,
                    "velocity": 0.13385826771653545,
                    "duration": 0.11255350000000419
                },
                {
                    "name": "G3",
                    "midi": 55,
                    "time": 119.7569240000003,
                    "velocity": 0.10236220472440945,
                    "duration": 0.11255350000000419
                },
                {
                    "name": "C#4",
                    "midi": 61,
                    "time": 119.7569240000003,
                    "velocity": 0.10236220472440945,
                    "duration": 0.11255350000000419
                },
                {
                    "name": "E4",
                    "midi": 64,
                    "time": 119.7569240000003,
                    "velocity": 0.13385826771653545,
                    "duration": 0.11255350000000419
                },
                {
                    "name": "F#3",
                    "midi": 54,
                    "time": 120.16962016666697,
                    "velocity": 0.44881889763779526,
                    "duration": 0.15007133333332945
                },
                {
                    "name": "A#3",
                    "midi": 58,
                    "time": 120.1789996250003,
                    "velocity": 0.4566929133858268,
                    "duration": 0.1406918750000017
                },
                {
                    "name": "F#3",
                    "midi": 54,
                    "time": 120.61983416666698,
                    "velocity": 0.44881889763779526,
                    "duration": 0.15007133333332945
                },
                {
                    "name": "A#3",
                    "midi": 58,
                    "time": 120.6292136250003,
                    "velocity": 0.4566929133858268,
                    "duration": 0.1406918750000017
                },
                {
                    "name": "F#3",
                    "midi": 54,
                    "time": 121.07004816666698,
                    "velocity": 0.44881889763779526,
                    "duration": 0.15007133333332945
                },
                {
                    "name": "A#3",
                    "midi": 58,
                    "time": 121.0794276250003,
                    "velocity": 0.4566929133858268,
                    "duration": 0.1406918750000017
                },
                {
                    "name": "F#3",
                    "midi": 54,
                    "time": 121.52026216666698,
                    "velocity": 0.4330708661417323,
                    "duration": 0.15007133333332945
                },
                {
                    "name": "A#3",
                    "midi": 58,
                    "time": 121.52964162500031,
                    "velocity": 0.4330708661417323,
                    "duration": 0.1406918750000017
                },
                {
                    "name": "F#3",
                    "midi": 54,
                    "time": 121.97047616666698,
                    "velocity": 0.4094488188976378,
                    "duration": 0.15007133333332945
                },
                {
                    "name": "A#3",
                    "midi": 58,
                    "time": 121.97985562500031,
                    "velocity": 0.41732283464566927,
                    "duration": 0.1406918750000017
                },
                {
                    "name": "F#3",
                    "midi": 54,
                    "time": 122.42069016666699,
                    "velocity": 0.3858267716535433,
                    "duration": 0.15007133333332945
                },
                {
                    "name": "A#3",
                    "midi": 58,
                    "time": 122.43006962500031,
                    "velocity": 0.3937007874015748,
                    "duration": 0.1406918750000017
                },
                {
                    "name": "F#3",
                    "midi": 54,
                    "time": 122.87090416666699,
                    "velocity": 0.25196850393700787,
                    "duration": 0.15007133333332945
                },
                {
                    "name": "A3",
                    "midi": 57,
                    "time": 122.88028362500032,
                    "velocity": 0.25984251968503935,
                    "duration": 0.1406918750000017
                },
                {
                    "name": "F#3",
                    "midi": 54,
                    "time": 123.32111816666699,
                    "velocity": 0.23622047244094488,
                    "duration": 0.15007133333332945
                },
                {
                    "name": "A3",
                    "midi": 57,
                    "time": 123.33049762500032,
                    "velocity": 0.23622047244094488,
                    "duration": 0.1406918750000017
                },
                {
                    "name": "F#3",
                    "midi": 54,
                    "time": 123.771332166667,
                    "velocity": 0.2125984251968504,
                    "duration": 0.15007133333332945
                },
                {
                    "name": "A3",
                    "midi": 57,
                    "time": 123.78071162500032,
                    "velocity": 0.2204724409448819,
                    "duration": 0.1406918750000017
                },
                {
                    "name": "B2",
                    "midi": 47,
                    "time": 124.25906400000032,
                    "velocity": 0.29133858267716534,
                    "duration": 2.4761769999999927
                },
                {
                    "name": "E2",
                    "midi": 40,
                    "time": 125.60970600000032,
                    "velocity": 0.2047244094488189,
                    "duration": 2.701284000000001
                },
                {
                    "name": "C#3",
                    "midi": 49,
                    "time": 126.73524100000031,
                    "velocity": 0.25984251968503935,
                    "duration": 0.22510699999999417
                },
                {
                    "name": "D#3",
                    "midi": 51,
                    "time": 126.96034800000031,
                    "velocity": 0.31496062992125984,
                    "duration": 1.1255349999999993
                },
                {
                    "name": "C#3",
                    "midi": 49,
                    "time": 128.0858830000003,
                    "velocity": 0.25984251968503935,
                    "duration": 0.22510700000000838
                },
                {
                    "name": "C3",
                    "midi": 48,
                    "time": 128.31099000000032,
                    "velocity": 0.31496062992125984,
                    "duration": 0.6753209999999967
                },
                {
                    "name": "E2",
                    "midi": 40,
                    "time": 128.31099000000032,
                    "velocity": 0.2047244094488189,
                    "duration": 1.3506420000000219
                },
                {
                    "name": "D3",
                    "midi": 50,
                    "time": 128.9863110000003,
                    "velocity": 0.31496062992125984,
                    "duration": 0.22510700000000838
                },
                {
                    "name": "E3",
                    "midi": 52,
                    "time": 129.21141800000032,
                    "velocity": 0.3228346456692913,
                    "duration": 0.22510700000000838
                },
                {
                    "name": "F#3",
                    "midi": 54,
                    "time": 129.43652500000033,
                    "velocity": 0.3543307086614173,
                    "duration": 0.22510700000000838
                },
                {
                    "name": "B2",
                    "midi": 47,
                    "time": 131.01227400000033,
                    "velocity": 0.31496062992125984,
                    "duration": 1.1255350000000135
                },
                {
                    "name": "E2",
                    "midi": 40,
                    "time": 131.01227400000033,
                    "velocity": 0.2047244094488189,
                    "duration": 2.7012840000000438
                },
                {
                    "name": "C#3",
                    "midi": 49,
                    "time": 132.13780900000035,
                    "velocity": 0.25984251968503935,
                    "duration": 0.22510700000000838
                },
                {
                    "name": "D#3",
                    "midi": 51,
                    "time": 132.36291600000035,
                    "velocity": 0.31496062992125984,
                    "duration": 1.1255350000000135
                },
                {
                    "name": "C#3",
                    "midi": 49,
                    "time": 133.48845100000037,
                    "velocity": 0.25984251968503935,
                    "duration": 0.22510700000000838
                },
                {
                    "name": "C3",
                    "midi": 48,
                    "time": 133.71355800000038,
                    "velocity": 0.31496062992125984,
                    "duration": 0.6753209999999967
                },
                {
                    "name": "E2",
                    "midi": 40,
                    "time": 133.71355800000038,
                    "velocity": 0.2047244094488189,
                    "duration": 1.3506420000000219
                },
                {
                    "name": "D3",
                    "midi": 50,
                    "time": 134.38887900000037,
                    "velocity": 0.31496062992125984,
                    "duration": 0.22510700000000838
                },
                {
                    "name": "E3",
                    "midi": 52,
                    "time": 134.61398600000038,
                    "velocity": 0.3228346456692913,
                    "duration": 0.22510700000000838
                },
                {
                    "name": "F#3",
                    "midi": 54,
                    "time": 134.8390930000004,
                    "velocity": 0.3543307086614173,
                    "duration": 0.22510700000000838
                },
                {
                    "name": "C4",
                    "midi": 60,
                    "time": 136.8650560000004,
                    "velocity": 0.3543307086614173,
                    "duration": 0.22510700000000838
                },
                {
                    "name": "D4",
                    "midi": 62,
                    "time": 137.09016300000042,
                    "velocity": 0.3228346456692913,
                    "duration": 0.22510700000000838
                },
                {
                    "name": "E4",
                    "midi": 64,
                    "time": 137.31527000000042,
                    "velocity": 0.3228346456692913,
                    "duration": 0.22510700000000838
                },
                {
                    "name": "F#4",
                    "midi": 66,
                    "time": 137.54037700000043,
                    "velocity": 0.3543307086614173,
                    "duration": 0.22510700000000838
                },
                {
                    "name": "C5",
                    "midi": 72,
                    "time": 139.56634000000045,
                    "velocity": 0.3543307086614173,
                    "duration": 0.22510700000000838
                },
                {
                    "name": "D5",
                    "midi": 74,
                    "time": 139.79144700000046,
                    "velocity": 0.3228346456692913,
                    "duration": 0.22510700000000838
                },
                {
                    "name": "E5",
                    "midi": 76,
                    "time": 140.01655400000047,
                    "velocity": 0.3228346456692913,
                    "duration": 0.22510700000000838
                },
                {
                    "name": "F#5",
                    "midi": 78,
                    "time": 140.24166100000048,
                    "velocity": 0.3543307086614173,
                    "duration": 0.22510700000000838
                },
                {
                    "name": "A4",
                    "midi": 69,
                    "time": 141.3671960000005,
                    "velocity": 0.3779527559055118,
                    "duration": 0.22510700000000838
                },
                {
                    "name": "F#4",
                    "midi": 66,
                    "time": 141.3671960000005,
                    "velocity": 0.3779527559055118,
                    "duration": 0.22510700000000838
                },
                {
                    "name": "B3",
                    "midi": 59,
                    "time": 141.3671960000005,
                    "velocity": 0.3779527559055118,
                    "duration": 0.22510700000000838
                },
                {
                    "name": "E4",
                    "midi": 64,
                    "time": 142.2676240000005,
                    "velocity": 0.1968503937007874,
                    "duration": 0.22510700000000838
                },
                {
                    "name": "B4",
                    "midi": 71,
                    "time": 142.4927310000005,
                    "velocity": 0.1968503937007874,
                    "duration": 0.22510700000000838
                },
                {
                    "name": "E4",
                    "midi": 64,
                    "time": 142.7178380000005,
                    "velocity": 0.2204724409448819,
                    "duration": 0.22510700000000838
                },
                {
                    "name": "B4",
                    "midi": 71,
                    "time": 142.94294500000052,
                    "velocity": 0.2204724409448819,
                    "duration": 0.22510700000000838
                },
                {
                    "name": "E4",
                    "midi": 64,
                    "time": 143.16805200000053,
                    "velocity": 0.1889763779527559,
                    "duration": 0.22510700000000838
                },
                {
                    "name": "B4",
                    "midi": 71,
                    "time": 143.39315900000054,
                    "velocity": 0.1889763779527559,
                    "duration": 0.22510700000000838
                },
                {
                    "name": "E4",
                    "midi": 64,
                    "time": 143.61826600000055,
                    "velocity": 0.16535433070866143,
                    "duration": 0.22510700000000838
                },
                {
                    "name": "B4",
                    "midi": 71,
                    "time": 143.84337300000055,
                    "velocity": 0.16535433070866143,
                    "duration": 0.22510700000000838
                },
                {
                    "name": "E4",
                    "midi": 64,
                    "time": 144.06848000000056,
                    "velocity": 0.18110236220472442,
                    "duration": 0.22510700000000838
                },
                {
                    "name": "B4",
                    "midi": 71,
                    "time": 144.29358700000057,
                    "velocity": 0.18110236220472442,
                    "duration": 0.22510700000000838
                },
                {
                    "name": "E4",
                    "midi": 64,
                    "time": 144.51869400000058,
                    "velocity": 0.15748031496062992,
                    "duration": 0.22510700000000838
                },
                {
                    "name": "B4",
                    "midi": 71,
                    "time": 144.7438010000006,
                    "velocity": 0.15748031496062992,
                    "duration": 0.22510700000000838
                },
                {
                    "name": "E4",
                    "midi": 64,
                    "time": 144.9689080000006,
                    "velocity": 0.16535433070866143,
                    "duration": 0.22510700000000838
                },
                {
                    "name": "B4",
                    "midi": 71,
                    "time": 145.1940150000006,
                    "velocity": 0.16535433070866143,
                    "duration": 0.22510700000000838
                },
                {
                    "name": "E4",
                    "midi": 64,
                    "time": 145.4191220000006,
                    "velocity": 0.18110236220472442,
                    "duration": 0.22510700000000838
                },
                {
                    "name": "B4",
                    "midi": 71,
                    "time": 145.64422900000062,
                    "velocity": 0.18110236220472442,
                    "duration": 0.22510700000000838
                },
                {
                    "name": "E4",
                    "midi": 64,
                    "time": 145.86933600000063,
                    "velocity": 0.15748031496062992,
                    "duration": 0.22510700000000838
                },
                {
                    "name": "B4",
                    "midi": 71,
                    "time": 146.09444300000064,
                    "velocity": 0.15748031496062992,
                    "duration": 0.22510700000000838
                },
                {
                    "name": "E4",
                    "midi": 64,
                    "time": 146.31955000000065,
                    "velocity": 0.16535433070866143,
                    "duration": 0.22510700000000838
                },
                {
                    "name": "B4",
                    "midi": 71,
                    "time": 146.54465700000065,
                    "velocity": 0.16535433070866143,
                    "duration": 0.22510700000000838
                },
                {
                    "name": "E4",
                    "midi": 64,
                    "time": 146.76976400000066,
                    "velocity": 0.18110236220472442,
                    "duration": 0.22510700000000838
                },
                {
                    "name": "B4",
                    "midi": 71,
                    "time": 146.99487100000067,
                    "velocity": 0.18110236220472442,
                    "duration": 0.22510700000000838
                },
                {
                    "name": "E4",
                    "midi": 64,
                    "time": 147.21997800000068,
                    "velocity": 0.15748031496062992,
                    "duration": 0.22510700000000838
                },
                {
                    "name": "B4",
                    "midi": 71,
                    "time": 147.4450850000007,
                    "velocity": 0.15748031496062992,
                    "duration": 0.22510700000000838
                },
                {
                    "name": "E4",
                    "midi": 64,
                    "time": 147.6701920000007,
                    "velocity": 0.16535433070866143,
                    "duration": 0.22510700000000838
                },
                {
                    "name": "B4",
                    "midi": 71,
                    "time": 147.8952990000007,
                    "velocity": 0.16535433070866143,
                    "duration": 0.22510700000000838
                },
                {
                    "name": "E4",
                    "midi": 64,
                    "time": 148.1204060000007,
                    "velocity": 0.18110236220472442,
                    "duration": 0.22510700000000838
                },
                {
                    "name": "B4",
                    "midi": 71,
                    "time": 148.34551300000072,
                    "velocity": 0.18110236220472442,
                    "duration": 0.22510700000000838
                },
                {
                    "name": "E4",
                    "midi": 64,
                    "time": 148.57062000000073,
                    "velocity": 0.15748031496062992,
                    "duration": 0.22510700000000838
                },
                {
                    "name": "B4",
                    "midi": 71,
                    "time": 148.79572700000074,
                    "velocity": 0.15748031496062992,
                    "duration": 0.22510700000000838
                },
                {
                    "name": "E4",
                    "midi": 64,
                    "time": 149.02083400000075,
                    "velocity": 0.16535433070866143,
                    "duration": 0.22510700000000838
                },
                {
                    "name": "B4",
                    "midi": 71,
                    "time": 149.24594100000076,
                    "velocity": 0.16535433070866143,
                    "duration": 0.22510700000000838
                },
                {
                    "name": "E4",
                    "midi": 64,
                    "time": 149.47104800000076,
                    "velocity": 0.18110236220472442,
                    "duration": 0.22510700000000838
                },
                {
                    "name": "B4",
                    "midi": 71,
                    "time": 149.69615500000077,
                    "velocity": 0.18110236220472442,
                    "duration": 0.22510700000000838
                },
                {
                    "name": "E4",
                    "midi": 64,
                    "time": 149.92126200000078,
                    "velocity": 0.15748031496062992,
                    "duration": 0.22510700000000838
                },
                {
                    "name": "B4",
                    "midi": 71,
                    "time": 150.1463690000008,
                    "velocity": 0.15748031496062992,
                    "duration": 0.22510700000000838
                },
                {
                    "name": "E4",
                    "midi": 64,
                    "time": 150.3714760000008,
                    "velocity": 0.16535433070866143,
                    "duration": 0.22510700000000838
                },
                {
                    "name": "B4",
                    "midi": 71,
                    "time": 150.5965830000008,
                    "velocity": 0.16535433070866143,
                    "duration": 0.22510700000000838
                },
                {
                    "name": "E4",
                    "midi": 64,
                    "time": 150.8216900000008,
                    "velocity": 0.18110236220472442,
                    "duration": 0.22510700000000838
                },
                {
                    "name": "B4",
                    "midi": 71,
                    "time": 151.04679700000082,
                    "velocity": 0.18110236220472442,
                    "duration": 0.22510700000000838
                },
                {
                    "name": "E4",
                    "midi": 64,
                    "time": 151.27190400000083,
                    "velocity": 0.15748031496062992,
                    "duration": 0.22510700000000838
                },
                {
                    "name": "B4",
                    "midi": 71,
                    "time": 151.49701100000084,
                    "velocity": 0.15748031496062992,
                    "duration": 0.22510700000000838
                },
                {
                    "name": "E4",
                    "midi": 64,
                    "time": 151.72211800000085,
                    "velocity": 0.16535433070866143,
                    "duration": 0.22510700000000838
                },
                {
                    "name": "B4",
                    "midi": 71,
                    "time": 151.94722500000086,
                    "velocity": 0.16535433070866143,
                    "duration": 0.22510700000000838
                },
                {
                    "name": "E4",
                    "midi": 64,
                    "time": 152.17233200000086,
                    "velocity": 0.18110236220472442,
                    "duration": 0.22510700000000838
                },
                {
                    "name": "B4",
                    "midi": 71,
                    "time": 152.39743900000087,
                    "velocity": 0.18110236220472442,
                    "duration": 0.22510700000000838
                },
                {
                    "name": "E4",
                    "midi": 64,
                    "time": 152.62254600000088,
                    "velocity": 0.15748031496062992,
                    "duration": 0.22510700000000838
                },
                {
                    "name": "B4",
                    "midi": 71,
                    "time": 152.8476530000009,
                    "velocity": 0.15748031496062992,
                    "duration": 0.22510700000000838
                },
                {
                    "name": "E4",
                    "midi": 64,
                    "time": 153.0727600000009,
                    "velocity": 0.16535433070866143,
                    "duration": 0.22510700000000838
                },
                {
                    "name": "B4",
                    "midi": 71,
                    "time": 153.2978670000009,
                    "velocity": 0.16535433070866143,
                    "duration": 0.22510700000000838
                },
                {
                    "name": "E4",
                    "midi": 64,
                    "time": 153.52297400000091,
                    "velocity": 0.18110236220472442,
                    "duration": 0.22510700000000838
                },
                {
                    "name": "B4",
                    "midi": 71,
                    "time": 153.74808100000092,
                    "velocity": 0.18110236220472442,
                    "duration": 0.22510700000000838
                },
                {
                    "name": "G#3",
                    "midi": 56,
                    "time": 160.72639800000093,
                    "velocity": 0.12598425196850394,
                    "duration": 0.22510700000000838
                },
                {
                    "name": "B3",
                    "midi": 59,
                    "time": 160.72639800000093,
                    "velocity": 0.12598425196850394,
                    "duration": 0.22510700000000838
                },
                {
                    "name": "E3",
                    "midi": 52,
                    "time": 162.07704000000095,
                    "velocity": 0.15748031496062992,
                    "duration": 0.22510700000000838
                },
                {
                    "name": "B3",
                    "midi": 59,
                    "time": 162.30214700000096,
                    "velocity": 0.12598425196850394,
                    "duration": 0.22510700000000838
                }
            ],
            "controlChanges": {},
            "id": 2,
            "name": "Piano left",
            "instrumentNumber": 0,
            "instrument": "acoustic grand piano",
            "instrumentFamily": "piano",
            "channelNumber": 0,
            "isPercussion": false
        },
        {
            "startTime": 0,
            "duration": 0,
            "length": 0,
            "notes": [],
            "controlChanges": {
                "64": [
                    {
                        "number": 64,
                        "time": 0.026262483333333333,
                        "value": 1
                    },
                    {
                        "number": 64,
                        "time": 2.701284,
                        "value": 0
                    },
                    {
                        "number": 64,
                        "time": 2.7509951291666663,
                        "value": 1
                    },
                    {
                        "number": 64,
                        "time": 2.9798539124999994,
                        "value": 0
                    },
                    {
                        "number": 64,
                        "time": 3.1017868708333327,
                        "value": 1
                    },
                    {
                        "number": 64,
                        "time": 3.324080033333333,
                        "value": 0
                    },
                    {
                        "number": 64,
                        "time": 3.549187033333333,
                        "value": 1
                    },
                    {
                        "number": 64,
                        "time": 3.9984630874999993,
                        "value": 0
                    },
                    {
                        "number": 64,
                        "time": 4.155100041666666,
                        "value": 1
                    },
                    {
                        "number": 64,
                        "time": 4.783523749999999,
                        "value": 0
                    },
                    {
                        "number": 64,
                        "time": 4.873566549999999,
                        "value": 1
                    },
                    {
                        "number": 64,
                        "time": 5.352856870833332,
                        "value": 0
                    },
                    {
                        "number": 64,
                        "time": 5.452279129166665,
                        "value": 1
                    },
                    {
                        "number": 64,
                        "time": 5.803070870833332,
                        "value": 0
                    },
                    {
                        "number": 64,
                        "time": 5.856533783333331,
                        "value": 1
                    },
                    {
                        "number": 64,
                        "time": 6.061943920833332,
                        "value": 0
                    },
                    {
                        "number": 64,
                        "time": 6.250471033333332,
                        "value": 1
                    },
                    {
                        "number": 64,
                        "time": 6.710064491666665,
                        "value": 0
                    },
                    {
                        "number": 64,
                        "time": 6.9220402499999985,
                        "value": 1
                    },
                    {
                        "number": 64,
                        "time": 8.047575249999998,
                        "value": 0
                    },
                    {
                        "number": 64,
                        "time": 8.18357739583333,
                        "value": 1
                    },
                    {
                        "number": 64,
                        "time": 9.454493999999997,
                        "value": 0
                    },
                    {
                        "number": 64,
                        "time": 9.547350637499997,
                        "value": 1
                    },
                    {
                        "number": 64,
                        "time": 10.805135999999997,
                        "value": 0
                    },
                    {
                        "number": 64,
                        "time": 10.869854262499997,
                        "value": 1
                    },
                    {
                        "number": 64,
                        "time": 11.204700924999997,
                        "value": 0
                    },
                    {
                        "number": 64,
                        "time": 11.271295079166665,
                        "value": 1
                    },
                    {
                        "number": 64,
                        "time": 11.670860004166665,
                        "value": 0
                    },
                    {
                        "number": 64,
                        "time": 11.732764429166664,
                        "value": 1
                    },
                    {
                        "number": 64,
                        "time": 12.113570437499998,
                        "value": 0
                    },
                    {
                        "number": 64,
                        "time": 12.155777999999998,
                        "value": 1
                    },
                    {
                        "number": 64,
                        "time": 13.004618979166665,
                        "value": 0
                    },
                    {
                        "number": 64,
                        "time": 13.064647512499999,
                        "value": 1
                    },
                    {
                        "number": 64,
                        "time": 13.227850087499998,
                        "value": 0
                    },
                    {
                        "number": 64,
                        "time": 13.281312999999999,
                        "value": 1
                    },
                    {
                        "number": 64,
                        "time": 13.455770925,
                        "value": 0
                    },
                    {
                        "number": 64,
                        "time": 13.530806591666666,
                        "value": 1
                    },
                    {
                        "number": 64,
                        "time": 13.905984924999998,
                        "value": 0
                    },
                    {
                        "number": 64,
                        "time": 13.972579079166666,
                        "value": 1
                    },
                    {
                        "number": 64,
                        "time": 14.372144004166666,
                        "value": 0
                    },
                    {
                        "number": 64,
                        "time": 14.428420754166666,
                        "value": 1
                    },
                    {
                        "number": 64,
                        "time": 14.8148544375,
                        "value": 0
                    },
                    {
                        "number": 64,
                        "time": 14.857061999999999,
                        "value": 1
                    },
                    {
                        "number": 64,
                        "time": 15.705902979166666,
                        "value": 0
                    },
                    {
                        "number": 64,
                        "time": 15.7659315125,
                        "value": 1
                    },
                    {
                        "number": 64,
                        "time": 15.945079166666666,
                        "value": 0
                    },
                    {
                        "number": 64,
                        "time": 15.977907270833333,
                        "value": 1
                    },
                    {
                        "number": 64,
                        "time": 16.1654964375,
                        "value": 0
                    },
                    {
                        "number": 64,
                        "time": 16.207704,
                        "value": 1
                    },
                    {
                        "number": 64,
                        "time": 16.603517141666668,
                        "value": 0
                    },
                    {
                        "number": 64,
                        "time": 16.661669783333334,
                        "value": 1
                    },
                    {
                        "number": 64,
                        "time": 17.51238665416667,
                        "value": 0
                    },
                    {
                        "number": 64,
                        "time": 17.651202637500003,
                        "value": 1
                    },
                    {
                        "number": 64,
                        "time": 18.908988000000004,
                        "value": 0
                    },
                    {
                        "number": 64,
                        "time": 18.992465179166672,
                        "value": 1
                    },
                    {
                        "number": 64,
                        "time": 19.371395295833338,
                        "value": 0
                    },
                    {
                        "number": 64,
                        "time": 19.44267917916667,
                        "value": 1
                    },
                    {
                        "number": 64,
                        "time": 19.815981620833337,
                        "value": 0
                    },
                    {
                        "number": 64,
                        "time": 19.88632755833334,
                        "value": 1
                    },
                    {
                        "number": 64,
                        "time": 20.259630000000005,
                        "value": 0
                    },
                    {
                        "number": 64,
                        "time": 20.340293341666673,
                        "value": 1
                    },
                    {
                        "number": 64,
                        "time": 21.176941025000005,
                        "value": 0
                    },
                    {
                        "number": 64,
                        "time": 21.251038745833338,
                        "value": 1
                    },
                    {
                        "number": 64,
                        "time": 21.660921075000005,
                        "value": 0
                    },
                    {
                        "number": 64,
                        "time": 21.742522362500004,
                        "value": 1
                    },
                    {
                        "number": 64,
                        "time": 22.960914000000002,
                        "value": 0
                    },
                    {
                        "number": 64,
                        "time": 23.073467500000003,
                        "value": 1
                    },
                    {
                        "number": 64,
                        "time": 23.41863156666667,
                        "value": 0
                    },
                    {
                        "number": 64,
                        "time": 23.5039846375,
                        "value": 1
                    },
                    {
                        "number": 64,
                        "time": 23.877287079166667,
                        "value": 0
                    },
                    {
                        "number": 64,
                        "time": 24.000157983333334,
                        "value": 1
                    },
                    {
                        "number": 64,
                        "time": 24.311556,
                        "value": 0
                    },
                    {
                        "number": 64,
                        "time": 24.4438063625,
                        "value": 1
                    },
                    {
                        "number": 64,
                        "time": 25.228867025,
                        "value": 0
                    },
                    {
                        "number": 64,
                        "time": 25.302964745833332,
                        "value": 1
                    },
                    {
                        "number": 64,
                        "time": 25.712847075,
                        "value": 0
                    },
                    {
                        "number": 64,
                        "time": 25.7944483625,
                        "value": 1
                    },
                    {
                        "number": 64,
                        "time": 27.012839999999997,
                        "value": 0
                    },
                    {
                        "number": 64,
                        "time": 27.125393499999998,
                        "value": 1
                    },
                    {
                        "number": 64,
                        "time": 27.470557566666663,
                        "value": 0
                    },
                    {
                        "number": 64,
                        "time": 27.555910637499995,
                        "value": 1
                    },
                    {
                        "number": 64,
                        "time": 27.92921307916666,
                        "value": 0
                    },
                    {
                        "number": 64,
                        "time": 28.05208398333333,
                        "value": 1
                    },
                    {
                        "number": 64,
                        "time": 28.414131074999997,
                        "value": 0
                    },
                    {
                        "number": 64,
                        "time": 28.495732362499997,
                        "value": 1
                    },
                    {
                        "number": 64,
                        "time": 29.714123999999998,
                        "value": 0
                    },
                    {
                        "number": 64,
                        "time": 29.8266775,
                        "value": 1
                    },
                    {
                        "number": 64,
                        "time": 30.171841566666664,
                        "value": 0
                    },
                    {
                        "number": 64,
                        "time": 30.257194637499996,
                        "value": 1
                    },
                    {
                        "number": 64,
                        "time": 30.630497079166663,
                        "value": 0
                    },
                    {
                        "number": 64,
                        "time": 30.75336798333333,
                        "value": 1
                    },
                    {
                        "number": 64,
                        "time": 31.064765999999995,
                        "value": 0
                    },
                    {
                        "number": 64,
                        "time": 31.183885120833327,
                        "value": 1
                    },
                    {
                        "number": 64,
                        "time": 31.976449349999996,
                        "value": 0
                    },
                    {
                        "number": 64,
                        "time": 32.071181879166666,
                        "value": 1
                    },
                    {
                        "number": 64,
                        "time": 32.415408,
                        "value": 0
                    },
                    {
                        "number": 64,
                        "time": 32.527961499999996,
                        "value": 1
                    },
                    {
                        "number": 64,
                        "time": 33.33740875416666,
                        "value": 0
                    },
                    {
                        "number": 64,
                        "time": 33.395561395833326,
                        "value": 1
                    },
                    {
                        "number": 64,
                        "time": 33.76604999999999,
                        "value": 0
                    },
                    {
                        "number": 64,
                        "time": 33.885169120833325,
                        "value": 1
                    },
                    {
                        "number": 64,
                        "time": 34.67773334999999,
                        "value": 0
                    },
                    {
                        "number": 64,
                        "time": 34.77246587916666,
                        "value": 1
                    },
                    {
                        "number": 64,
                        "time": 35.11669199999999,
                        "value": 0
                    },
                    {
                        "number": 64,
                        "time": 35.22924549999999,
                        "value": 1
                    },
                    {
                        "number": 64,
                        "time": 36.038692754166654,
                        "value": 0
                    },
                    {
                        "number": 64,
                        "time": 36.09684539583332,
                        "value": 1
                    },
                    {
                        "number": 64,
                        "time": 36.46733399999999,
                        "value": 0
                    },
                    {
                        "number": 64,
                        "time": 36.58645312083332,
                        "value": 1
                    },
                    {
                        "number": 64,
                        "time": 37.379017349999984,
                        "value": 0
                    },
                    {
                        "number": 64,
                        "time": 37.473749879166654,
                        "value": 1
                    },
                    {
                        "number": 64,
                        "time": 37.81797599999999,
                        "value": 0
                    },
                    {
                        "number": 64,
                        "time": 37.930529499999984,
                        "value": 1
                    },
                    {
                        "number": 64,
                        "time": 38.73997675416665,
                        "value": 0
                    },
                    {
                        "number": 64,
                        "time": 38.798129395833314,
                        "value": 1
                    },
                    {
                        "number": 64,
                        "time": 39.16861799999998,
                        "value": 0
                    },
                    {
                        "number": 64,
                        "time": 39.31493754999998,
                        "value": 1
                    },
                    {
                        "number": 64,
                        "time": 40.51925999999998,
                        "value": 0
                    },
                    {
                        "number": 64,
                        "time": 40.63181349999998,
                        "value": 1
                    },
                    {
                        "number": 64,
                        "time": 41.426253620833315,
                        "value": 0
                    },
                    {
                        "number": 64,
                        "time": 41.52567587916665,
                        "value": 1
                    },
                    {
                        "number": 64,
                        "time": 41.86990199999998,
                        "value": 0
                    },
                    {
                        "number": 64,
                        "time": 42.029352791666646,
                        "value": 1
                    },
                    {
                        "number": 64,
                        "time": 42.34168875416665,
                        "value": 0
                    },
                    {
                        "number": 64,
                        "time": 42.518960516666645,
                        "value": 1
                    },
                    {
                        "number": 64,
                        "time": 43.220543999999975,
                        "value": 0
                    },
                    {
                        "number": 64,
                        "time": 43.35279436249998,
                        "value": 1
                    },
                    {
                        "number": 64,
                        "time": 44.57587572916665,
                        "value": 0
                    },
                    {
                        "number": 64,
                        "time": 44.70343636249998,
                        "value": 1
                    },
                    {
                        "number": 64,
                        "time": 45.04391069999998,
                        "value": 0
                    },
                    {
                        "number": 64,
                        "time": 45.18085079166664,
                        "value": 1
                    },
                    {
                        "number": 64,
                        "time": 45.487559079166644,
                        "value": 0
                    },
                    {
                        "number": 64,
                        "time": 45.603864362499976,
                        "value": 1
                    },
                    {
                        "number": 64,
                        "time": 45.92182799999998,
                        "value": 0
                    },
                    {
                        "number": 64,
                        "time": 45.97810474999998,
                        "value": 1
                    },
                    {
                        "number": 64,
                        "time": 47.27246999999998,
                        "value": 0
                    },
                    {
                        "number": 64,
                        "time": 47.32874674999998,
                        "value": 1
                    },
                    {
                        "number": 64,
                        "time": 48.62311199999998,
                        "value": 0
                    },
                    {
                        "number": 64,
                        "time": 48.67938874999998,
                        "value": 1
                    },
                    {
                        "number": 64,
                        "time": 49.97375399999998,
                        "value": 0
                    },
                    {
                        "number": 64,
                        "time": 50.03003074999998,
                        "value": 1
                    },
                    {
                        "number": 64,
                        "time": 51.32439599999998,
                        "value": 0
                    },
                    {
                        "number": 64,
                        "time": 51.390990154166644,
                        "value": 1
                    },
                    {
                        "number": 64,
                        "time": 51.793368916666644,
                        "value": 0
                    },
                    {
                        "number": 64,
                        "time": 52.26796950833331,
                        "value": 1
                    },
                    {
                        "number": 64,
                        "time": 52.67878978333331,
                        "value": 0
                    },
                    {
                        "number": 64,
                        "time": 52.731314749999974,
                        "value": 1
                    },
                    {
                        "number": 64,
                        "time": 53.133693512499974,
                        "value": 0
                    },
                    {
                        "number": 64,
                        "time": 53.62892891249997,
                        "value": 1
                    },
                    {
                        "number": 64,
                        "time": 54.03412151249997,
                        "value": 0
                    },
                    {
                        "number": 64,
                        "time": 54.07257729166664,
                        "value": 1
                    },
                    {
                        "number": 64,
                        "time": 54.49746675416664,
                        "value": 0
                    },
                    {
                        "number": 64,
                        "time": 54.952370483333304,
                        "value": 1
                    },
                    {
                        "number": 64,
                        "time": 55.37632199999997,
                        "value": 0
                    },
                    {
                        "number": 64,
                        "time": 55.48512371666664,
                        "value": 1
                    },
                    {
                        "number": 64,
                        "time": 55.84248107916664,
                        "value": 0
                    },
                    {
                        "number": 64,
                        "time": 55.94284128333331,
                        "value": 1
                    },
                    {
                        "number": 64,
                        "time": 56.726963999999974,
                        "value": 0
                    },
                    {
                        "number": 64,
                        "time": 56.81982063749997,
                        "value": 1
                    },
                    {
                        "number": 64,
                        "time": 59.44419307916664,
                        "value": 0
                    },
                    {
                        "number": 64,
                        "time": 59.56049836249997,
                        "value": 1
                    },
                    {
                        "number": 64,
                        "time": 60.77888999999997,
                        "value": 0
                    },
                    {
                        "number": 64,
                        "time": 60.891443499999966,
                        "value": 1
                    },
                    {
                        "number": 64,
                        "time": 61.236607566666635,
                        "value": 0
                    },
                    {
                        "number": 64,
                        "time": 61.32196063749997,
                        "value": 1
                    },
                    {
                        "number": 64,
                        "time": 61.69526307916664,
                        "value": 0
                    },
                    {
                        "number": 64,
                        "time": 61.818133983333304,
                        "value": 1
                    },
                    {
                        "number": 64,
                        "time": 62.14547707916664,
                        "value": 0
                    },
                    {
                        "number": 64,
                        "time": 62.26178236249997,
                        "value": 1
                    },
                    {
                        "number": 64,
                        "time": 63.48017399999997,
                        "value": 0
                    },
                    {
                        "number": 64,
                        "time": 63.59272749999997,
                        "value": 1
                    },
                    {
                        "number": 64,
                        "time": 63.937891566666636,
                        "value": 0
                    },
                    {
                        "number": 64,
                        "time": 64.02324463749997,
                        "value": 1
                    },
                    {
                        "number": 64,
                        "time": 64.84676107916664,
                        "value": 0
                    },
                    {
                        "number": 64,
                        "time": 64.96306636249997,
                        "value": 1
                    },
                    {
                        "number": 64,
                        "time": 66.18145799999998,
                        "value": 0
                    },
                    {
                        "number": 64,
                        "time": 66.29401149999998,
                        "value": 1
                    },
                    {
                        "number": 64,
                        "time": 66.63917556666665,
                        "value": 0
                    },
                    {
                        "number": 64,
                        "time": 66.72452863749999,
                        "value": 1
                    },
                    {
                        "number": 64,
                        "time": 67.09783107916665,
                        "value": 0
                    },
                    {
                        "number": 64,
                        "time": 67.22070198333331,
                        "value": 1
                    },
                    {
                        "number": 64,
                        "time": 67.54804507916664,
                        "value": 0
                    },
                    {
                        "number": 64,
                        "time": 67.66435036249997,
                        "value": 1
                    },
                    {
                        "number": 64,
                        "time": 68.44659718749998,
                        "value": 0
                    },
                    {
                        "number": 64,
                        "time": 68.53476409583331,
                        "value": 1
                    },
                    {
                        "number": 64,
                        "time": 69.34045956666664,
                        "value": 0
                    },
                    {
                        "number": 64,
                        "time": 69.42581263749997,
                        "value": 1
                    },
                    {
                        "number": 64,
                        "time": 70.24932907916664,
                        "value": 0
                    },
                    {
                        "number": 64,
                        "time": 70.36563436249997,
                        "value": 1
                    },
                    {
                        "number": 64,
                        "time": 71.1460052958333,
                        "value": 0
                    },
                    {
                        "number": 64,
                        "time": 71.22854452916664,
                        "value": 1
                    },
                    {
                        "number": 64,
                        "time": 71.58402599999998,
                        "value": 0
                    },
                    {
                        "number": 64,
                        "time": 71.69657949999998,
                        "value": 1
                    },
                    {
                        "number": 64,
                        "time": 72.95061307916666,
                        "value": 0
                    },
                    {
                        "number": 64,
                        "time": 73.06691836249999,
                        "value": 1
                    },
                    {
                        "number": 64,
                        "time": 73.85948259166666,
                        "value": 0
                    },
                    {
                        "number": 64,
                        "time": 73.9476495,
                        "value": 1
                    },
                    {
                        "number": 64,
                        "time": 74.28531,
                        "value": 0
                    },
                    {
                        "number": 64,
                        "time": 74.3978635,
                        "value": 1
                    },
                    {
                        "number": 64,
                        "time": 74.74302756666667,
                        "value": 0
                    },
                    {
                        "number": 64,
                        "time": 74.8283806375,
                        "value": 1
                    },
                    {
                        "number": 64,
                        "time": 75.20168307916667,
                        "value": 0
                    },
                    {
                        "number": 64,
                        "time": 75.32455398333333,
                        "value": 1
                    },
                    {
                        "number": 64,
                        "time": 75.65189707916666,
                        "value": 0
                    },
                    {
                        "number": 64,
                        "time": 75.76820236249999,
                        "value": 1
                    },
                    {
                        "number": 64,
                        "time": 76.54857329583332,
                        "value": 0
                    },
                    {
                        "number": 64,
                        "time": 76.63111252916666,
                        "value": 1
                    },
                    {
                        "number": 64,
                        "time": 76.986594,
                        "value": 0
                    },
                    {
                        "number": 64,
                        "time": 77.0991475,
                        "value": 1
                    },
                    {
                        "number": 64,
                        "time": 78.35318107916667,
                        "value": 0
                    },
                    {
                        "number": 64,
                        "time": 78.4694863625,
                        "value": 1
                    },
                    {
                        "number": 64,
                        "time": 79.26205059166668,
                        "value": 0
                    },
                    {
                        "number": 64,
                        "time": 79.35021750000001,
                        "value": 1
                    },
                    {
                        "number": 64,
                        "time": 79.68787800000001,
                        "value": 0
                    },
                    {
                        "number": 64,
                        "time": 79.80043150000002,
                        "value": 1
                    },
                    {
                        "number": 64,
                        "time": 80.14559556666669,
                        "value": 0
                    },
                    {
                        "number": 64,
                        "time": 80.23094863750002,
                        "value": 1
                    },
                    {
                        "number": 64,
                        "time": 80.60425107916669,
                        "value": 0
                    },
                    {
                        "number": 64,
                        "time": 80.72712198333335,
                        "value": 1
                    },
                    {
                        "number": 64,
                        "time": 81.03852000000002,
                        "value": 0
                    },
                    {
                        "number": 64,
                        "time": 91.88023588750002,
                        "value": 1
                    },
                    {
                        "number": 64,
                        "time": 92.67467600833335,
                        "value": 0
                    },
                    {
                        "number": 64,
                        "time": 93.23087788750001,
                        "value": 1
                    },
                    {
                        "number": 64,
                        "time": 94.02531800833334,
                        "value": 0
                    },
                    {
                        "number": 64,
                        "time": 94.58151988750001,
                        "value": 1
                    },
                    {
                        "number": 64,
                        "time": 95.895582,
                        "value": 0
                    },
                    {
                        "number": 64,
                        "time": 95.9321618875,
                        "value": 1
                    },
                    {
                        "number": 64,
                        "time": 96.92075679583334,
                        "value": 0
                    },
                    {
                        "number": 64,
                        "time": 97.75271475000001,
                        "value": 1
                    },
                    {
                        "number": 64,
                        "time": 98.596866,
                        "value": 0
                    },
                    {
                        "number": 64,
                        "time": 99.10335675,
                        "value": 1
                    },
                    {
                        "number": 64,
                        "time": 99.95970129583334,
                        "value": 0
                    },
                    {
                        "number": 64,
                        "time": 99.98408788750001,
                        "value": 1
                    },
                    {
                        "number": 64,
                        "time": 101.29815,
                        "value": 0
                    },
                    {
                        "number": 64,
                        "time": 101.3347298875,
                        "value": 1
                    },
                    {
                        "number": 64,
                        "time": 102.32332479583334,
                        "value": 0
                    },
                    {
                        "number": 64,
                        "time": 102.64879200000001,
                        "value": 0
                    },
                    {
                        "number": 64,
                        "time": 102.68537188750001,
                        "value": 1
                    },
                    {
                        "number": 64,
                        "time": 103.20124209583335,
                        "value": 0
                    },
                    {
                        "number": 64,
                        "time": 103.61675210000001,
                        "value": 1
                    },
                    {
                        "number": 64,
                        "time": 103.70491900833335,
                        "value": 0
                    },
                    {
                        "number": 64,
                        "time": 103.93565368333334,
                        "value": 1
                    },
                    {
                        "number": 64,
                        "time": 104.224541,
                        "value": 0
                    },
                    {
                        "number": 64,
                        "time": 105.36226929583333,
                        "value": 0
                    },
                    {
                        "number": 64,
                        "time": 105.3866558875,
                        "value": 1
                    },
                    {
                        "number": 64,
                        "time": 106.66320016666667,
                        "value": 0
                    },
                    {
                        "number": 64,
                        "time": 106.70071800000001,
                        "value": 1
                    },
                    {
                        "number": 64,
                        "time": 106.85923084583334,
                        "value": 0
                    },
                    {
                        "number": 64,
                        "time": 108.05136,
                        "value": 1
                    },
                    {
                        "number": 64,
                        "time": 108.25208040833334,
                        "value": 0
                    },
                    {
                        "number": 64,
                        "time": 109.33259400833334,
                        "value": 1
                    },
                    {
                        "number": 64,
                        "time": 109.57833581666668,
                        "value": 0
                    },
                    {
                        "number": 64,
                        "time": 128.42354350000002,
                        "value": 1
                    },
                    {
                        "number": 64,
                        "time": 129.22361129583336,
                        "value": 0
                    },
                    {
                        "number": 64,
                        "time": 129.32397150000003,
                        "value": 1
                    },
                    {
                        "number": 64,
                        "time": 129.66256994583335,
                        "value": 0
                    },
                    {
                        "number": 64,
                        "time": 133.82142177083335,
                        "value": 1
                    },
                    {
                        "number": 64,
                        "time": 134.62617929583337,
                        "value": 0
                    },
                    {
                        "number": 64,
                        "time": 134.72653950000003,
                        "value": 1
                    },
                    {
                        "number": 64,
                        "time": 135.06513794583336,
                        "value": 0
                    },
                    {
                        "number": 64,
                        "time": 137.32746329583335,
                        "value": 0
                    },
                    {
                        "number": 64,
                        "time": 137.42782350000002,
                        "value": 1
                    },
                    {
                        "number": 64,
                        "time": 137.76642194583334,
                        "value": 0
                    },
                    {
                        "number": 64,
                        "time": 140.02874729583334,
                        "value": 0
                    },
                    {
                        "number": 64,
                        "time": 140.1291075,
                        "value": 1
                    },
                    {
                        "number": 64,
                        "time": 140.46770594583333,
                        "value": 0
                    },
                    {
                        "number": 64,
                        "time": 142.3604806375,
                        "value": 1
                    },
                    {
                        "number": 64,
                        "time": 143.56761692499998,
                        "value": 0
                    },
                    {
                        "number": 64,
                        "time": 143.63421107916665,
                        "value": 1
                    },
                    {
                        "number": 64,
                        "time": 144.03377600416664,
                        "value": 0
                    },
                    {
                        "number": 64,
                        "time": 144.09005275416663,
                        "value": 1
                    },
                    {
                        "number": 64,
                        "time": 144.47648643749997,
                        "value": 0
                    },
                    {
                        "number": 64,
                        "time": 144.51869399999998,
                        "value": 1
                    },
                    {
                        "number": 64,
                        "time": 145.86933599999998,
                        "value": 0
                    },
                    {
                        "number": 64,
                        "time": 145.94530961249998,
                        "value": 1
                    },
                    {
                        "number": 64,
                        "time": 146.268900925,
                        "value": 0
                    },
                    {
                        "number": 64,
                        "time": 146.33549507916666,
                        "value": 1
                    },
                    {
                        "number": 64,
                        "time": 146.73506000416666,
                        "value": 0
                    },
                    {
                        "number": 64,
                        "time": 146.79133675416665,
                        "value": 1
                    },
                    {
                        "number": 64,
                        "time": 147.1777704375,
                        "value": 0
                    },
                    {
                        "number": 64,
                        "time": 147.219978,
                        "value": 1
                    },
                    {
                        "number": 64,
                        "time": 148.57062,
                        "value": 0
                    },
                    {
                        "number": 64,
                        "time": 148.6465936125,
                        "value": 1
                    },
                    {
                        "number": 64,
                        "time": 148.970184925,
                        "value": 0
                    },
                    {
                        "number": 64,
                        "time": 149.03677907916668,
                        "value": 1
                    },
                    {
                        "number": 64,
                        "time": 149.43634400416667,
                        "value": 0
                    },
                    {
                        "number": 64,
                        "time": 149.49262075416667,
                        "value": 1
                    },
                    {
                        "number": 64,
                        "time": 149.8790544375,
                        "value": 0
                    },
                    {
                        "number": 64,
                        "time": 149.926889675,
                        "value": 1
                    },
                    {
                        "number": 64,
                        "time": 150.320826925,
                        "value": 0
                    },
                    {
                        "number": 64,
                        "time": 150.38742107916667,
                        "value": 1
                    },
                    {
                        "number": 64,
                        "time": 150.78698600416666,
                        "value": 0
                    },
                    {
                        "number": 64,
                        "time": 150.84326275416666,
                        "value": 1
                    },
                    {
                        "number": 64,
                        "time": 151.2296964375,
                        "value": 0
                    },
                    {
                        "number": 64,
                        "time": 151.271904,
                        "value": 0
                    },
                    {
                        "number": 64,
                        "time": 151.3478776125,
                        "value": 1
                    },
                    {
                        "number": 64,
                        "time": 151.67146892500003,
                        "value": 0
                    },
                    {
                        "number": 64,
                        "time": 151.7380630791667,
                        "value": 1
                    },
                    {
                        "number": 64,
                        "time": 152.1376280041667,
                        "value": 0
                    },
                    {
                        "number": 64,
                        "time": 152.19390475416668,
                        "value": 1
                    },
                    {
                        "number": 64,
                        "time": 152.58033843750002,
                        "value": 0
                    },
                    {
                        "number": 64,
                        "time": 152.62817367500003,
                        "value": 1
                    },
                    {
                        "number": 64,
                        "time": 153.02211092500002,
                        "value": 0
                    },
                    {
                        "number": 64,
                        "time": 153.0887050791667,
                        "value": 1
                    },
                    {
                        "number": 64,
                        "time": 153.48827000416668,
                        "value": 0
                    },
                    {
                        "number": 64,
                        "time": 153.54454675416667,
                        "value": 1
                    },
                    {
                        "number": 64,
                        "time": 153.97318800000002,
                        "value": 0
                    },
                    {
                        "number": 64,
                        "time": 154.1326387916667,
                        "value": 1
                    },
                    {
                        "number": 64,
                        "time": 156.67916172916668,
                        "value": 0
                    },
                    {
                        "number": 64,
                        "time": 156.83392279166668,
                        "value": 1
                    },
                    {
                        "number": 64,
                        "time": 159.71998212083335,
                        "value": 0
                    },
                    {
                        "number": 64,
                        "time": 162.27588451666668,
                        "value": 1
                    },
                    {
                        "number": 64,
                        "time": 165.94419067083334,
                        "value": 0
                    }
                ]
            },
            "id": 3,
            "name": "Pedale",
            "instrumentNumber": 0,
            "instrument": "acoustic grand piano",
            "instrumentFamily": "piano",
            "channelNumber": 0,
            "isPercussion": false
        },
        {
            "startTime": 0,
            "duration": 0,
            "length": 0,
            "notes": [],
            "controlChanges": {},
            "id": 4,
            "name": "Debussy: Childrens Corner 3"
        },
        {
            "startTime": 0,
            "duration": 0,
            "length": 0,
            "notes": [],
            "controlChanges": {},
            "id": 5,
            "name": "Copyright  2010 by Bernd Krueger"
        },
        {
            "startTime": 0,
            "duration": 0,
            "length": 0,
            "notes": [],
            "controlChanges": {},
            "id": 6,
            "name": "http://www.piano-midi.de/"
        },
        {
            "startTime": 0,
            "duration": 0,
            "length": 0,
            "notes": [],
            "controlChanges": {},
            "id": 7,
            "name": "Edition:  2011-06-11"
        },
        {
            "startTime": 0,
            "duration": 0,
            "length": 0,
            "notes": [],
            "controlChanges": {},
            "id": 8,
            "name": "Spur 8"
        },
        {
            "startTime": 0,
            "duration": 0,
            "length": 0,
            "notes": [],
            "controlChanges": {},
            "id": 9,
            "name": "Spur 9"
        },
        {
            "startTime": 0,
            "duration": 0,
            "length": 0,
            "notes": [],
            "controlChanges": {},
            "id": 10,
            "name": "Spur 10"
        },
        {
            "startTime": 0,
            "duration": 0,
            "length": 0,
            "notes": [],
            "controlChanges": {},
            "id": 11,
            "name": "Spur 11"
        },
        {
            "startTime": 0,
            "duration": 0,
            "length": 0,
            "notes": [],
            "controlChanges": {},
            "id": 12,
            "name": "Spur 12"
        },
        {
            "startTime": 0,
            "duration": 0,
            "length": 0,
            "notes": [],
            "controlChanges": {},
            "id": 13,
            "name": "Spur 13"
        },
        {
            "startTime": 0,
            "duration": 0,
            "length": 0,
            "notes": [],
            "controlChanges": {},
            "id": 14,
            "name": "Spur 14"
        },
        {
            "startTime": 0,
            "duration": 0,
            "length": 0,
            "notes": [],
            "controlChanges": {},
            "id": 15,
            "name": "Spur 15"
        },
        {
            "startTime": 0,
            "duration": 0,
            "length": 0,
            "notes": [],
            "controlChanges": {},
            "id": 16,
            "name": "Spur 16"
        }
    ]
}