{
    "header": {
        "PPQ": 480,
        "timeSignature": [
            4,
            4
        ],
        "bpm": 101.09996764801035,
        "name": "Grieg: Lyrische Stücke, Es war einmal, Opus 71 Nr. 1"
    },
    "startTime": 0,
    "duration": 286.64697600000176,
    "tracks": [
        {
            "startTime": 0,
            "duration": 0,
            "length": 0,
            "notes": [],
            "controlChanges": {},
            "id": 0,
            "name": "Grieg: Lyrische Stücke, Es war einmal, Opus 71 Nr. 1"
        },
        {
            "startTime": 1.780416,
            "duration": 286.64697600000176,
            "length": 1019,
            "notes": [
                {
                    "name": "B4",
                    "midi": 71,
                    "time": 1.780416,
                    "velocity": 0.30708661417322836,
                    "duration": 0.593472
                },
                {
                    "name": "E4",
                    "midi": 64,
                    "time": 2.373888,
                    "velocity": 0.33070866141732286,
                    "duration": 0.5872900000000003
                },
                {
                    "name": "F#4",
                    "midi": 66,
                    "time": 2.818992,
                    "velocity": 0.28346456692913385,
                    "duration": 0.14836800000000006
                },
                {
                    "name": "G4",
                    "midi": 67,
                    "time": 2.96736,
                    "velocity": 0.33858267716535434,
                    "duration": 0.44510400000000017
                },
                {
                    "name": "A4",
                    "midi": 69,
                    "time": 3.4124640000000004,
                    "velocity": 0.29133858267716534,
                    "duration": 0.14836800000000006
                },
                {
                    "name": "F#4",
                    "midi": 66,
                    "time": 3.4124640000000004,
                    "velocity": 0.2283464566929134,
                    "duration": 0.14836800000000006
                },
                {
                    "name": "G4",
                    "midi": 67,
                    "time": 3.5608320000000004,
                    "velocity": 0.28346456692913385,
                    "duration": 0.5934719999999993
                },
                {
                    "name": "B4",
                    "midi": 71,
                    "time": 3.5608320000000004,
                    "velocity": 0.3543307086614173,
                    "duration": 0.4451039999999997
                },
                {
                    "name": "E5",
                    "midi": 76,
                    "time": 4.005936,
                    "velocity": 0.29133858267716534,
                    "duration": 0.1483679999999996
                },
                {
                    "name": "C5",
                    "midi": 72,
                    "time": 4.154304,
                    "velocity": 0.28346456692913385,
                    "duration": 0.5934719999999993
                },
                {
                    "name": "G5",
                    "midi": 79,
                    "time": 4.154304,
                    "velocity": 0.3543307086614173,
                    "duration": 0.4451039999999997
                },
                {
                    "name": "F#5",
                    "midi": 78,
                    "time": 4.5994079999999995,
                    "velocity": 0.29133858267716534,
                    "duration": 0.1483679999999996
                },
                {
                    "name": "F#4",
                    "midi": 66,
                    "time": 4.747775999999999,
                    "velocity": 0.31496062992125984,
                    "duration": 0.5934719999999993
                },
                {
                    "name": "D5",
                    "midi": 74,
                    "time": 4.747775999999999,
                    "velocity": 0.3937007874015748,
                    "duration": 0.4451039999999997
                },
                {
                    "name": "C5",
                    "midi": 72,
                    "time": 5.192879999999999,
                    "velocity": 0.33858267716535434,
                    "duration": 0.1483679999999996
                },
                {
                    "name": "E5",
                    "midi": 76,
                    "time": 5.341247999999998,
                    "velocity": 0.4251968503937008,
                    "duration": 0.4451039999999997
                },
                {
                    "name": "A4",
                    "midi": 69,
                    "time": 5.341247999999998,
                    "velocity": 0.33858267716535434,
                    "duration": 0.5934719999999993
                },
                {
                    "name": "D5",
                    "midi": 74,
                    "time": 5.786351999999998,
                    "velocity": 0.36220472440944884,
                    "duration": 0.1483679999999996
                },
                {
                    "name": "B4",
                    "midi": 71,
                    "time": 5.934719999999998,
                    "velocity": 0.31496062992125984,
                    "duration": 0.8902080000000003
                },
                {
                    "name": "D#4",
                    "midi": 63,
                    "time": 5.934719999999998,
                    "velocity": 0.25196850393700787,
                    "duration": 1.1869440000000004
                },
                {
                    "name": "C5",
                    "midi": 72,
                    "time": 6.824927999999998,
                    "velocity": 0.28346456692913385,
                    "duration": 0.2967360000000001
                },
                {
                    "name": "A4",
                    "midi": 69,
                    "time": 7.121663999999998,
                    "velocity": 0.33858267716535434,
                    "duration": 0.4451039999999997
                },
                {
                    "name": "F4",
                    "midi": 65,
                    "time": 7.121663999999998,
                    "velocity": 0.2677165354330709,
                    "duration": 0.5934719999999993
                },
                {
                    "name": "B4",
                    "midi": 71,
                    "time": 7.566767999999998,
                    "velocity": 0.28346456692913385,
                    "duration": 0.1483679999999996
                },
                {
                    "name": "E4",
                    "midi": 64,
                    "time": 7.7151359999999976,
                    "velocity": 0.28346456692913385,
                    "duration": 0.5934720000000002
                },
                {
                    "name": "G4",
                    "midi": 67,
                    "time": 7.7151359999999976,
                    "velocity": 0.3543307086614173,
                    "duration": 0.4451040000000006
                },
                {
                    "name": "A4",
                    "midi": 69,
                    "time": 8.160239999999998,
                    "velocity": 0.30708661417322836,
                    "duration": 0.1483679999999996
                },
                {
                    "name": "D4",
                    "midi": 62,
                    "time": 8.308607999999998,
                    "velocity": 0.28346456692913385,
                    "duration": 0.5934720000000002
                },
                {
                    "name": "F#4",
                    "midi": 66,
                    "time": 8.308607999999998,
                    "velocity": 0.3543307086614173,
                    "duration": 0.4451040000000006
                },
                {
                    "name": "G4",
                    "midi": 67,
                    "time": 8.753711999999998,
                    "velocity": 0.28346456692913385,
                    "duration": 0.1483679999999996
                },
                {
                    "name": "E4",
                    "midi": 64,
                    "time": 8.902079999999998,
                    "velocity": 0.33858267716535434,
                    "duration": 0.4451040000000006
                },
                {
                    "name": "C4",
                    "midi": 60,
                    "time": 8.902079999999998,
                    "velocity": 0.2677165354330709,
                    "duration": 0.5934720000000002
                },
                {
                    "name": "F#4",
                    "midi": 66,
                    "time": 9.347183999999999,
                    "velocity": 0.2755905511811024,
                    "duration": 0.1483679999999996
                },
                {
                    "name": "D#4",
                    "midi": 63,
                    "time": 9.495551999999998,
                    "velocity": 0.3228346456692913,
                    "duration": 0.5934720000000002
                },
                {
                    "name": "B3",
                    "midi": 59,
                    "time": 9.495551999999998,
                    "velocity": 0.25196850393700787,
                    "duration": 0.5934720000000002
                },
                {
                    "name": "E4",
                    "midi": 64,
                    "time": 10.089023999999998,
                    "velocity": 0.28346456692913385,
                    "duration": 0.8902079999999994
                },
                {
                    "name": "B3",
                    "midi": 59,
                    "time": 10.089023999999998,
                    "velocity": 0.2204724409448819,
                    "duration": 0.8902079999999994
                },
                {
                    "name": "G3",
                    "midi": 55,
                    "time": 10.089023999999998,
                    "velocity": 0.2204724409448819,
                    "duration": 0.8902079999999994
                },
                {
                    "name": "D#4",
                    "midi": 63,
                    "time": 11.275967999999997,
                    "velocity": 0.2440944881889764,
                    "duration": 0.5934720000000002
                },
                {
                    "name": "B4",
                    "midi": 71,
                    "time": 11.275967999999997,
                    "velocity": 0.30708661417322836,
                    "duration": 0.5934720000000002
                },
                {
                    "name": "C4",
                    "midi": 60,
                    "time": 11.832347999999998,
                    "velocity": 0.2992125984251969,
                    "duration": 0.6305639999999997
                },
                {
                    "name": "E4",
                    "midi": 64,
                    "time": 11.869439999999997,
                    "velocity": 0.33070866141732286,
                    "duration": 0.4451040000000006
                },
                {
                    "name": "F#4",
                    "midi": 66,
                    "time": 12.314543999999998,
                    "velocity": 0.28346456692913385,
                    "duration": 0.1483679999999996
                },
                {
                    "name": "E4",
                    "midi": 64,
                    "time": 12.462911999999998,
                    "velocity": 0.28346456692913385,
                    "duration": 0.4451040000000006
                },
                {
                    "name": "G4",
                    "midi": 67,
                    "time": 12.462911999999998,
                    "velocity": 0.33858267716535434,
                    "duration": 0.4451040000000006
                },
                {
                    "name": "A4",
                    "midi": 69,
                    "time": 12.908015999999998,
                    "velocity": 0.29133858267716534,
                    "duration": 0.1483679999999996
                },
                {
                    "name": "F#4",
                    "midi": 66,
                    "time": 12.908015999999998,
                    "velocity": 0.2283464566929134,
                    "duration": 0.1483679999999996
                },
                {
                    "name": "G4",
                    "midi": 67,
                    "time": 13.056383999999998,
                    "velocity": 0.28346456692913385,
                    "duration": 0.5934720000000002
                },
                {
                    "name": "B4",
                    "midi": 71,
                    "time": 13.056383999999998,
                    "velocity": 0.3543307086614173,
                    "duration": 0.4451040000000006
                },
                {
                    "name": "E5",
                    "midi": 76,
                    "time": 13.501487999999998,
                    "velocity": 0.29133858267716534,
                    "duration": 0.1483679999999996
                },
                {
                    "name": "A4",
                    "midi": 69,
                    "time": 13.649855999999998,
                    "velocity": 0.28346456692913385,
                    "duration": 0.5934720000000002
                },
                {
                    "name": "G5",
                    "midi": 79,
                    "time": 13.649855999999998,
                    "velocity": 0.3543307086614173,
                    "duration": 0.4451040000000006
                },
                {
                    "name": "F#5",
                    "midi": 78,
                    "time": 14.094959999999999,
                    "velocity": 0.29133858267716534,
                    "duration": 0.1483679999999996
                },
                {
                    "name": "F#4",
                    "midi": 66,
                    "time": 14.243327999999998,
                    "velocity": 0.31496062992125984,
                    "duration": 0.5934720000000002
                },
                {
                    "name": "D5",
                    "midi": 74,
                    "time": 14.243327999999998,
                    "velocity": 0.3937007874015748,
                    "duration": 0.4451040000000006
                },
                {
                    "name": "C5",
                    "midi": 72,
                    "time": 14.688431999999999,
                    "velocity": 0.33858267716535434,
                    "duration": 0.1483679999999996
                },
                {
                    "name": "E5",
                    "midi": 76,
                    "time": 14.836799999999998,
                    "velocity": 0.4251968503937008,
                    "duration": 0.4451040000000006
                },
                {
                    "name": "G4",
                    "midi": 67,
                    "time": 14.836799999999998,
                    "velocity": 0.33858267716535434,
                    "duration": 0.5934720000000002
                },
                {
                    "name": "D5",
                    "midi": 74,
                    "time": 15.281903999999999,
                    "velocity": 0.36220472440944884,
                    "duration": 0.1483679999999996
                },
                {
                    "name": "B4",
                    "midi": 71,
                    "time": 15.430271999999999,
                    "velocity": 0.31496062992125984,
                    "duration": 0.8902079999999977
                },
                {
                    "name": "F#4",
                    "midi": 66,
                    "time": 15.430271999999999,
                    "velocity": 0.25196850393700787,
                    "duration": 0.5934719999999984
                },
                {
                    "name": "F4",
                    "midi": 65,
                    "time": 16.023743999999997,
                    "velocity": 0.25196850393700787,
                    "duration": 0.5934719999999984
                },
                {
                    "name": "C5",
                    "midi": 72,
                    "time": 16.320479999999996,
                    "velocity": 0.2125984251968504,
                    "duration": 0.2967359999999992
                },
                {
                    "name": "A4",
                    "midi": 69,
                    "time": 16.617215999999996,
                    "velocity": 0.25196850393700787,
                    "duration": 0.4451040000000006
                },
                {
                    "name": "C4",
                    "midi": 60,
                    "time": 16.617215999999996,
                    "velocity": 0.1968503937007874,
                    "duration": 0.2967359999999992
                },
                {
                    "name": "D4",
                    "midi": 62,
                    "time": 16.913951999999995,
                    "velocity": 0.14173228346456693,
                    "duration": 0.2967360000000028
                },
                {
                    "name": "B4",
                    "midi": 71,
                    "time": 17.062319999999996,
                    "velocity": 0.2125984251968504,
                    "duration": 0.1483680000000014
                },
                {
                    "name": "E4",
                    "midi": 64,
                    "time": 17.210687999999998,
                    "velocity": 0.2125984251968504,
                    "duration": 0.593472000000002
                },
                {
                    "name": "G4",
                    "midi": 67,
                    "time": 17.210687999999998,
                    "velocity": 0.25984251968503935,
                    "duration": 0.4451040000000006
                },
                {
                    "name": "A4",
                    "midi": 69,
                    "time": 17.655791999999998,
                    "velocity": 0.2283464566929134,
                    "duration": 0.1483680000000014
                },
                {
                    "name": "A3",
                    "midi": 57,
                    "time": 17.80416,
                    "velocity": 0.2125984251968504,
                    "duration": 0.2967359999999992
                },
                {
                    "name": "F#4",
                    "midi": 66,
                    "time": 17.80416,
                    "velocity": 0.25984251968503935,
                    "duration": 0.4451040000000006
                },
                {
                    "name": "B3",
                    "midi": 59,
                    "time": 18.100896,
                    "velocity": 0.15748031496062992,
                    "duration": 0.2967360000000028
                },
                {
                    "name": "G4",
                    "midi": 67,
                    "time": 18.249264,
                    "velocity": 0.2125984251968504,
                    "duration": 0.1483680000000014
                },
                {
                    "name": "E4",
                    "midi": 64,
                    "time": 18.397632,
                    "velocity": 0.25196850393700787,
                    "duration": 0.4451040000000006
                },
                {
                    "name": "C4",
                    "midi": 60,
                    "time": 18.397632,
                    "velocity": 0.1968503937007874,
                    "duration": 0.593472000000002
                },
                {
                    "name": "F#4",
                    "midi": 66,
                    "time": 18.842736000000002,
                    "velocity": 0.2047244094488189,
                    "duration": 0.1483680000000014
                },
                {
                    "name": "D#4",
                    "midi": 63,
                    "time": 18.991104000000004,
                    "velocity": 0.23622047244094488,
                    "duration": 0.5934719999999984
                },
                {
                    "name": "B3",
                    "midi": 59,
                    "time": 18.991104000000004,
                    "velocity": 0.1889763779527559,
                    "duration": 0.5934719999999984
                },
                {
                    "name": "E4",
                    "midi": 64,
                    "time": 19.584576000000002,
                    "velocity": 0.2125984251968504,
                    "duration": 1.1869440000000004
                },
                {
                    "name": "B3",
                    "midi": 59,
                    "time": 19.584576000000002,
                    "velocity": 0.16535433070866143,
                    "duration": 1.1869440000000004
                },
                {
                    "name": "G3",
                    "midi": 55,
                    "time": 19.584576000000002,
                    "velocity": 0.16535433070866143,
                    "duration": 1.1869440000000004
                },
                {
                    "name": "D4",
                    "midi": 62,
                    "time": 20.771520000000002,
                    "velocity": 0.4566929133858268,
                    "duration": 0.5934719999999984
                },
                {
                    "name": "F#4",
                    "midi": 66,
                    "time": 20.771520000000002,
                    "velocity": 0.4566929133858268,
                    "duration": 0.5934719999999984
                },
                {
                    "name": "D4",
                    "midi": 62,
                    "time": 21.364992,
                    "velocity": 0.33858267716535434,
                    "duration": 0.593472000000002
                },
                {
                    "name": "G4",
                    "midi": 67,
                    "time": 21.364992,
                    "velocity": 0.49606299212598426,
                    "duration": 0.4451040000000006
                },
                {
                    "name": "A4",
                    "midi": 69,
                    "time": 21.810096,
                    "velocity": 0.4251968503937008,
                    "duration": 0.1483680000000014
                },
                {
                    "name": "E4",
                    "midi": 64,
                    "time": 21.958464000000003,
                    "velocity": 0.33858267716535434,
                    "duration": 0.593472000000002
                },
                {
                    "name": "B4",
                    "midi": 71,
                    "time": 21.958464000000003,
                    "velocity": 0.5039370078740157,
                    "duration": 0.2967359999999992
                },
                {
                    "name": "G4",
                    "midi": 67,
                    "time": 22.255200000000002,
                    "velocity": 0.4330708661417323,
                    "duration": 0.2967360000000028
                },
                {
                    "name": "F#4",
                    "midi": 66,
                    "time": 22.514844000000004,
                    "velocity": 0.4251968503937008,
                    "duration": 0.33382800000000046
                },
                {
                    "name": "B4",
                    "midi": 71,
                    "time": 22.551936000000005,
                    "velocity": 0.5275590551181102,
                    "duration": 0.2967359999999992
                },
                {
                    "name": "E4",
                    "midi": 64,
                    "time": 22.848672000000004,
                    "velocity": 0.4330708661417323,
                    "duration": 0.2967359999999992
                },
                {
                    "name": "A4",
                    "midi": 69,
                    "time": 22.848672000000004,
                    "velocity": 0.4330708661417323,
                    "duration": 0.2967359999999992
                },
                {
                    "name": "D4",
                    "midi": 62,
                    "time": 23.145408000000003,
                    "velocity": 0.4251968503937008,
                    "duration": 0.2843720000000012
                },
                {
                    "name": "A4",
                    "midi": 69,
                    "time": 23.145408000000003,
                    "velocity": 0.5275590551181102,
                    "duration": 0.2967360000000028
                },
                {
                    "name": "D4",
                    "midi": 62,
                    "time": 23.442144000000006,
                    "velocity": 0.4330708661417323,
                    "duration": 0.2967359999999992
                },
                {
                    "name": "E4",
                    "midi": 64,
                    "time": 23.738880000000005,
                    "velocity": 0.33858267716535434,
                    "duration": 0.593472000000002
                },
                {
                    "name": "C5",
                    "midi": 72,
                    "time": 23.738880000000005,
                    "velocity": 0.49606299212598426,
                    "duration": 0.4451040000000006
                },
                {
                    "name": "D5",
                    "midi": 74,
                    "time": 24.183984000000006,
                    "velocity": 0.4409448818897638,
                    "duration": 0.1483680000000014
                },
                {
                    "name": "F#4",
                    "midi": 66,
                    "time": 24.332352000000007,
                    "velocity": 0.36220472440944884,
                    "duration": 0.593472000000002
                },
                {
                    "name": "E5",
                    "midi": 76,
                    "time": 24.332352000000007,
                    "velocity": 0.5354330708661418,
                    "duration": 0.2967359999999992
                },
                {
                    "name": "C5",
                    "midi": 72,
                    "time": 24.629088000000007,
                    "velocity": 0.48031496062992124,
                    "duration": 0.2967360000000028
                },
                {
                    "name": "G4",
                    "midi": 67,
                    "time": 24.888732000000008,
                    "velocity": 0.48031496062992124,
                    "duration": 0.6305639999999997
                },
                {
                    "name": "D5",
                    "midi": 74,
                    "time": 24.92582400000001,
                    "velocity": 0.6062992125984252,
                    "duration": 0.8902079999999977
                },
                {
                    "name": "A4",
                    "midi": 69,
                    "time": 25.519296000000008,
                    "velocity": 0.4881889763779528,
                    "duration": 0.5934719999999984
                },
                {
                    "name": "D5",
                    "midi": 74,
                    "time": 25.816032000000007,
                    "velocity": 0.6062992125984252,
                    "duration": 0.2967359999999992
                },
                {
                    "name": "B4",
                    "midi": 71,
                    "time": 26.112768000000006,
                    "velocity": 0.3858267716535433,
                    "duration": 0.593472000000002
                },
                {
                    "name": "E5",
                    "midi": 76,
                    "time": 26.112768000000006,
                    "velocity": 0.5669291338582677,
                    "duration": 0.4451040000000006
                },
                {
                    "name": "F#5",
                    "midi": 78,
                    "time": 26.557872000000007,
                    "velocity": 0.4881889763779528,
                    "duration": 0.1483680000000014
                },
                {
                    "name": "A4",
                    "midi": 69,
                    "time": 26.706240000000008,
                    "velocity": 0.3858267716535433,
                    "duration": 0.5934719999999984
                },
                {
                    "name": "D5",
                    "midi": 74,
                    "time": 26.706240000000008,
                    "velocity": 0.5748031496062992,
                    "duration": 0.2967359999999992
                },
                {
                    "name": "B4",
                    "midi": 71,
                    "time": 27.002976000000007,
                    "velocity": 0.49606299212598426,
                    "duration": 0.2967359999999992
                },
                {
                    "name": "C5",
                    "midi": 72,
                    "time": 27.299712000000007,
                    "velocity": 0.5511811023622047,
                    "duration": 0.4451040000000006
                },
                {
                    "name": "G4",
                    "midi": 67,
                    "time": 27.299712000000007,
                    "velocity": 0.4645669291338583,
                    "duration": 0.593472000000002
                },
                {
                    "name": "D5",
                    "midi": 74,
                    "time": 27.744816000000007,
                    "velocity": 0.4409448818897638,
                    "duration": 0.1483680000000014
                },
                {
                    "name": "B4",
                    "midi": 71,
                    "time": 27.89318400000001,
                    "velocity": 0.5354330708661418,
                    "duration": 0.2967359999999992
                },
                {
                    "name": "F#4",
                    "midi": 66,
                    "time": 27.89318400000001,
                    "velocity": 0.44881889763779526,
                    "duration": 0.5934719999999984
                },
                {
                    "name": "G4",
                    "midi": 67,
                    "time": 28.189920000000008,
                    "velocity": 0.44881889763779526,
                    "duration": 0.2967359999999992
                },
                {
                    "name": "E4",
                    "midi": 64,
                    "time": 28.486656000000007,
                    "velocity": 0.4566929133858268,
                    "duration": 0.593472000000002
                },
                {
                    "name": "A4",
                    "midi": 69,
                    "time": 28.486656000000007,
                    "velocity": 0.5433070866141733,
                    "duration": 0.593472000000002
                },
                {
                    "name": "D#4",
                    "midi": 63,
                    "time": 29.043036000000008,
                    "velocity": 0.3779527559055118,
                    "duration": 1.2240360000000017
                },
                {
                    "name": "B4",
                    "midi": 71,
                    "time": 29.08012800000001,
                    "velocity": 0.44881889763779526,
                    "duration": 1.1869440000000004
                },
                {
                    "name": "B4",
                    "midi": 71,
                    "time": 30.26707200000001,
                    "velocity": 0.36220472440944884,
                    "duration": 0.5934719999999984
                },
                {
                    "name": "D#4",
                    "midi": 63,
                    "time": 30.26707200000001,
                    "velocity": 0.30708661417322836,
                    "duration": 0.5934719999999984
                },
                {
                    "name": "B3",
                    "midi": 59,
                    "time": 30.860544000000008,
                    "velocity": 0.28346456692913385,
                    "duration": 0.593472000000002
                },
                {
                    "name": "E4",
                    "midi": 64,
                    "time": 30.860544000000008,
                    "velocity": 0.33070866141732286,
                    "duration": 0.4451040000000006
                },
                {
                    "name": "F#4",
                    "midi": 66,
                    "time": 31.30564800000001,
                    "velocity": 0.28346456692913385,
                    "duration": 0.1483680000000014
                },
                {
                    "name": "B3",
                    "midi": 59,
                    "time": 31.45401600000001,
                    "velocity": 0.2283464566929134,
                    "duration": 0.5934719999999984
                },
                {
                    "name": "E4",
                    "midi": 64,
                    "time": 31.45401600000001,
                    "velocity": 0.2283464566929134,
                    "duration": 0.5934719999999984
                },
                {
                    "name": "G4",
                    "midi": 67,
                    "time": 31.45401600000001,
                    "velocity": 0.33858267716535434,
                    "duration": 0.4451040000000006
                },
                {
                    "name": "A4",
                    "midi": 69,
                    "time": 31.89912000000001,
                    "velocity": 0.29133858267716534,
                    "duration": 0.14836799999999783
                },
                {
                    "name": "E4",
                    "midi": 64,
                    "time": 32.04748800000001,
                    "velocity": 0.28346456692913385,
                    "duration": 0.5934719999999984
                },
                {
                    "name": "G4",
                    "midi": 67,
                    "time": 32.04748800000001,
                    "velocity": 0.28346456692913385,
                    "duration": 0.5934719999999984
                },
                {
                    "name": "B4",
                    "midi": 71,
                    "time": 32.04748800000001,
                    "velocity": 0.3543307086614173,
                    "duration": 0.4451040000000006
                },
                {
                    "name": "E5",
                    "midi": 76,
                    "time": 32.49259200000001,
                    "velocity": 0.29133858267716534,
                    "duration": 0.14836799999999783
                },
                {
                    "name": "E4",
                    "midi": 64,
                    "time": 32.64096000000001,
                    "velocity": 0.28346456692913385,
                    "duration": 0.5934719999999984
                },
                {
                    "name": "C5",
                    "midi": 72,
                    "time": 32.64096000000001,
                    "velocity": 0.28346456692913385,
                    "duration": 0.5934719999999984
                },
                {
                    "name": "G5",
                    "midi": 79,
                    "time": 32.64096000000001,
                    "velocity": 0.3543307086614173,
                    "duration": 0.4451040000000006
                },
                {
                    "name": "F#5",
                    "midi": 78,
                    "time": 33.08606400000001,
                    "velocity": 0.29133858267716534,
                    "duration": 0.14836799999999783
                },
                {
                    "name": "B4",
                    "midi": 71,
                    "time": 33.234432000000005,
                    "velocity": 0.31496062992125984,
                    "duration": 0.5934719999999984
                },
                {
                    "name": "F#4",
                    "midi": 66,
                    "time": 33.234432000000005,
                    "velocity": 0.31496062992125984,
                    "duration": 0.5934719999999984
                },
                {
                    "name": "D5",
                    "midi": 74,
                    "time": 33.234432000000005,
                    "velocity": 0.3937007874015748,
                    "duration": 0.4451040000000006
                },
                {
                    "name": "C5",
                    "midi": 72,
                    "time": 33.679536000000006,
                    "velocity": 0.33858267716535434,
                    "duration": 0.14836799999999783
                },
                {
                    "name": "C4",
                    "midi": 60,
                    "time": 33.827904000000004,
                    "velocity": 0.33858267716535434,
                    "duration": 0.5934719999999984
                },
                {
                    "name": "E5",
                    "midi": 76,
                    "time": 33.827904000000004,
                    "velocity": 0.4251968503937008,
                    "duration": 0.4451040000000006
                },
                {
                    "name": "A4",
                    "midi": 69,
                    "time": 33.827904000000004,
                    "velocity": 0.33858267716535434,
                    "duration": 0.5934719999999984
                },
                {
                    "name": "D5",
                    "midi": 74,
                    "time": 34.273008000000004,
                    "velocity": 0.36220472440944884,
                    "duration": 0.14836799999999783
                },
                {
                    "name": "B3",
                    "midi": 59,
                    "time": 34.421376,
                    "velocity": 0.33858267716535434,
                    "duration": 0.5934719999999984
                },
                {
                    "name": "B4",
                    "midi": 71,
                    "time": 34.421376,
                    "velocity": 0.31496062992125984,
                    "duration": 0.8902080000000012
                },
                {
                    "name": "D#4",
                    "midi": 63,
                    "time": 34.421376,
                    "velocity": 0.25196850393700787,
                    "duration": 1.186944000000004
                },
                {
                    "name": "A3",
                    "midi": 57,
                    "time": 35.014848,
                    "velocity": 0.33858267716535434,
                    "duration": 0.5934720000000056
                },
                {
                    "name": "C5",
                    "midi": 72,
                    "time": 35.311584,
                    "velocity": 0.28346456692913385,
                    "duration": 0.2967360000000028
                },
                {
                    "name": "C4",
                    "midi": 60,
                    "time": 35.608320000000006,
                    "velocity": 0.1968503937007874,
                    "duration": 0.5934719999999984
                },
                {
                    "name": "A4",
                    "midi": 69,
                    "time": 35.608320000000006,
                    "velocity": 0.25196850393700787,
                    "duration": 0.4451040000000006
                },
                {
                    "name": "F4",
                    "midi": 65,
                    "time": 35.608320000000006,
                    "velocity": 0.1968503937007874,
                    "duration": 0.5934719999999984
                },
                {
                    "name": "B4",
                    "midi": 71,
                    "time": 36.05342400000001,
                    "velocity": 0.2125984251968504,
                    "duration": 0.14836799999999783
                },
                {
                    "name": "B3",
                    "midi": 59,
                    "time": 36.201792000000005,
                    "velocity": 0.2125984251968504,
                    "duration": 0.5934719999999984
                },
                {
                    "name": "E4",
                    "midi": 64,
                    "time": 36.201792000000005,
                    "velocity": 0.2125984251968504,
                    "duration": 0.5934719999999984
                },
                {
                    "name": "G4",
                    "midi": 67,
                    "time": 36.201792000000005,
                    "velocity": 0.25984251968503935,
                    "duration": 0.4451040000000006
                },
                {
                    "name": "A4",
                    "midi": 69,
                    "time": 36.646896000000005,
                    "velocity": 0.2283464566929134,
                    "duration": 0.14836799999999783
                },
                {
                    "name": "A3",
                    "midi": 57,
                    "time": 36.795264,
                    "velocity": 0.2125984251968504,
                    "duration": 0.5934719999999984
                },
                {
                    "name": "D4",
                    "midi": 62,
                    "time": 36.795264,
                    "velocity": 0.2125984251968504,
                    "duration": 0.5934719999999984
                },
                {
                    "name": "F#4",
                    "midi": 66,
                    "time": 36.795264,
                    "velocity": 0.25984251968503935,
                    "duration": 0.4451040000000006
                },
                {
                    "name": "G4",
                    "midi": 67,
                    "time": 37.240368000000004,
                    "velocity": 0.2125984251968504,
                    "duration": 0.14836799999999783
                },
                {
                    "name": "G3",
                    "midi": 55,
                    "time": 37.388736,
                    "velocity": 0.1968503937007874,
                    "duration": 0.5934719999999984
                },
                {
                    "name": "E4",
                    "midi": 64,
                    "time": 37.388736,
                    "velocity": 0.25196850393700787,
                    "duration": 0.4451040000000006
                },
                {
                    "name": "C4",
                    "midi": 60,
                    "time": 37.388736,
                    "velocity": 0.1968503937007874,
                    "duration": 0.5934719999999984
                },
                {
                    "name": "F#4",
                    "midi": 66,
                    "time": 37.83384,
                    "velocity": 0.2047244094488189,
                    "duration": 0.14836799999999783
                },
                {
                    "name": "F#3",
                    "midi": 54,
                    "time": 37.982208,
                    "velocity": 0.1889763779527559,
                    "duration": 0.5934719999999984
                },
                {
                    "name": "D#4",
                    "midi": 63,
                    "time": 37.982208,
                    "velocity": 0.23622047244094488,
                    "duration": 0.5934719999999984
                },
                {
                    "name": "B3",
                    "midi": 59,
                    "time": 37.982208,
                    "velocity": 0.1889763779527559,
                    "duration": 0.5934719999999984
                },
                {
                    "name": "E4",
                    "midi": 64,
                    "time": 38.57568,
                    "velocity": 0.2125984251968504,
                    "duration": 1.186943999999997
                },
                {
                    "name": "B3",
                    "midi": 59,
                    "time": 38.57568,
                    "velocity": 0.16535433070866143,
                    "duration": 1.186943999999997
                },
                {
                    "name": "G3",
                    "midi": 55,
                    "time": 38.57568,
                    "velocity": 0.16535433070866143,
                    "duration": 1.186943999999997
                },
                {
                    "name": "D4",
                    "midi": 62,
                    "time": 39.762623999999995,
                    "velocity": 0.4566929133858268,
                    "duration": 0.5934719999999984
                },
                {
                    "name": "F#4",
                    "midi": 66,
                    "time": 39.762623999999995,
                    "velocity": 0.4566929133858268,
                    "duration": 0.5934719999999984
                },
                {
                    "name": "D4",
                    "midi": 62,
                    "time": 40.356095999999994,
                    "velocity": 0.33858267716535434,
                    "duration": 0.5934719999999984
                },
                {
                    "name": "G4",
                    "midi": 67,
                    "time": 40.356095999999994,
                    "velocity": 0.49606299212598426,
                    "duration": 0.4451040000000006
                },
                {
                    "name": "A4",
                    "midi": 69,
                    "time": 40.801199999999994,
                    "velocity": 0.4251968503937008,
                    "duration": 0.14836799999999783
                },
                {
                    "name": "E4",
                    "midi": 64,
                    "time": 40.94956799999999,
                    "velocity": 0.33858267716535434,
                    "duration": 0.5934720000000056
                },
                {
                    "name": "B4",
                    "midi": 71,
                    "time": 40.94956799999999,
                    "velocity": 0.5039370078740157,
                    "duration": 0.2967360000000028
                },
                {
                    "name": "G4",
                    "midi": 67,
                    "time": 41.246303999999995,
                    "velocity": 0.4330708661417323,
                    "duration": 0.2967360000000028
                },
                {
                    "name": "F#4",
                    "midi": 66,
                    "time": 41.505948,
                    "velocity": 0.4251968503937008,
                    "duration": 0.333828000000004
                },
                {
                    "name": "B4",
                    "midi": 71,
                    "time": 41.54304,
                    "velocity": 0.5275590551181102,
                    "duration": 0.2967360000000028
                },
                {
                    "name": "E4",
                    "midi": 64,
                    "time": 41.839776,
                    "velocity": 0.4330708661417323,
                    "duration": 0.2967360000000028
                },
                {
                    "name": "A4",
                    "midi": 69,
                    "time": 41.839776,
                    "velocity": 0.4330708661417323,
                    "duration": 0.2967360000000028
                },
                {
                    "name": "D4",
                    "midi": 62,
                    "time": 42.136512,
                    "velocity": 0.4251968503937008,
                    "duration": 0.2843719999999976
                },
                {
                    "name": "A4",
                    "midi": 69,
                    "time": 42.136512,
                    "velocity": 0.5275590551181102,
                    "duration": 0.29673599999999567
                },
                {
                    "name": "D4",
                    "midi": 62,
                    "time": 42.433248,
                    "velocity": 0.4330708661417323,
                    "duration": 0.2967360000000028
                },
                {
                    "name": "E4",
                    "midi": 64,
                    "time": 42.729984,
                    "velocity": 0.33858267716535434,
                    "duration": 0.5934719999999984
                },
                {
                    "name": "C5",
                    "midi": 72,
                    "time": 42.729984,
                    "velocity": 0.49606299212598426,
                    "duration": 0.4451040000000006
                },
                {
                    "name": "D5",
                    "midi": 74,
                    "time": 43.175088,
                    "velocity": 0.4409448818897638,
                    "duration": 0.14836799999999783
                },
                {
                    "name": "F#4",
                    "midi": 66,
                    "time": 43.323456,
                    "velocity": 0.36220472440944884,
                    "duration": 0.5934720000000056
                },
                {
                    "name": "E5",
                    "midi": 76,
                    "time": 43.323456,
                    "velocity": 0.5354330708661418,
                    "duration": 0.2967360000000028
                },
                {
                    "name": "C5",
                    "midi": 72,
                    "time": 43.620192,
                    "velocity": 0.48031496062992124,
                    "duration": 0.2967360000000028
                },
                {
                    "name": "G4",
                    "midi": 67,
                    "time": 43.879836000000005,
                    "velocity": 0.48031496062992124,
                    "duration": 0.6305639999999997
                },
                {
                    "name": "D5",
                    "midi": 74,
                    "time": 43.916928000000006,
                    "velocity": 0.6062992125984252,
                    "duration": 0.8902080000000012
                },
                {
                    "name": "A4",
                    "midi": 69,
                    "time": 44.510400000000004,
                    "velocity": 0.4881889763779528,
                    "duration": 0.5934720000000056
                },
                {
                    "name": "D5",
                    "midi": 74,
                    "time": 44.80713600000001,
                    "velocity": 0.6062992125984252,
                    "duration": 0.2967360000000028
                },
                {
                    "name": "B4",
                    "midi": 71,
                    "time": 45.10387200000001,
                    "velocity": 0.3858267716535433,
                    "duration": 0.5934719999999984
                },
                {
                    "name": "E5",
                    "midi": 76,
                    "time": 45.10387200000001,
                    "velocity": 0.5669291338582677,
                    "duration": 0.4451040000000006
                },
                {
                    "name": "F#5",
                    "midi": 78,
                    "time": 45.54897600000001,
                    "velocity": 0.4881889763779528,
                    "duration": 0.14836799999999783
                },
                {
                    "name": "A4",
                    "midi": 69,
                    "time": 45.69734400000001,
                    "velocity": 0.3858267716535433,
                    "duration": 0.5934720000000056
                },
                {
                    "name": "D5",
                    "midi": 74,
                    "time": 45.69734400000001,
                    "velocity": 0.5748031496062992,
                    "duration": 0.2967360000000028
                },
                {
                    "name": "B4",
                    "midi": 71,
                    "time": 45.99408000000001,
                    "velocity": 0.49606299212598426,
                    "duration": 0.2967360000000028
                },
                {
                    "name": "C5",
                    "midi": 72,
                    "time": 46.290816000000014,
                    "velocity": 0.5511811023622047,
                    "duration": 0.4451040000000006
                },
                {
                    "name": "G4",
                    "midi": 67,
                    "time": 46.290816000000014,
                    "velocity": 0.4645669291338583,
                    "duration": 0.5934719999999984
                },
                {
                    "name": "D5",
                    "midi": 74,
                    "time": 46.735920000000014,
                    "velocity": 0.4409448818897638,
                    "duration": 0.14836799999999783
                },
                {
                    "name": "B4",
                    "midi": 71,
                    "time": 46.88428800000001,
                    "velocity": 0.5354330708661418,
                    "duration": 0.2967360000000028
                },
                {
                    "name": "F#4",
                    "midi": 66,
                    "time": 46.88428800000001,
                    "velocity": 0.44881889763779526,
                    "duration": 0.5934720000000056
                },
                {
                    "name": "G4",
                    "midi": 67,
                    "time": 47.181024000000015,
                    "velocity": 0.44881889763779526,
                    "duration": 0.2967360000000028
                },
                {
                    "name": "E4",
                    "midi": 64,
                    "time": 47.47776000000002,
                    "velocity": 0.4566929133858268,
                    "duration": 0.5934719999999984
                },
                {
                    "name": "A4",
                    "midi": 69,
                    "time": 47.47776000000002,
                    "velocity": 0.5433070866141733,
                    "duration": 0.5934719999999984
                },
                {
                    "name": "D#4",
                    "midi": 63,
                    "time": 48.034140000000015,
                    "velocity": 0.3779527559055118,
                    "duration": 1.2240359999999981
                },
                {
                    "name": "B4",
                    "midi": 71,
                    "time": 48.071232000000016,
                    "velocity": 0.44881889763779526,
                    "duration": 1.186943999999997
                },
                {
                    "name": "B4",
                    "midi": 71,
                    "time": 49.25817600000001,
                    "velocity": 0.36220472440944884,
                    "duration": 0.5934719999999984
                },
                {
                    "name": "D#4",
                    "midi": 63,
                    "time": 49.25817600000001,
                    "velocity": 0.30708661417322836,
                    "duration": 0.5934719999999984
                },
                {
                    "name": "B3",
                    "midi": 59,
                    "time": 49.85164800000001,
                    "velocity": 0.28346456692913385,
                    "duration": 0.5934719999999984
                },
                {
                    "name": "E4",
                    "midi": 64,
                    "time": 49.85164800000001,
                    "velocity": 0.33070866141732286,
                    "duration": 0.4451040000000006
                },
                {
                    "name": "F#4",
                    "midi": 66,
                    "time": 50.29675200000001,
                    "velocity": 0.28346456692913385,
                    "duration": 0.14836799999999783
                },
                {
                    "name": "B3",
                    "midi": 59,
                    "time": 50.44512000000001,
                    "velocity": 0.2283464566929134,
                    "duration": 0.5934719999999984
                },
                {
                    "name": "E4",
                    "midi": 64,
                    "time": 50.44512000000001,
                    "velocity": 0.2283464566929134,
                    "duration": 0.5934719999999984
                },
                {
                    "name": "G4",
                    "midi": 67,
                    "time": 50.44512000000001,
                    "velocity": 0.33858267716535434,
                    "duration": 0.4451040000000006
                },
                {
                    "name": "A4",
                    "midi": 69,
                    "time": 50.89022400000001,
                    "velocity": 0.29133858267716534,
                    "duration": 0.14836799999999783
                },
                {
                    "name": "E4",
                    "midi": 64,
                    "time": 51.03859200000001,
                    "velocity": 0.28346456692913385,
                    "duration": 0.5934719999999984
                },
                {
                    "name": "G4",
                    "midi": 67,
                    "time": 51.03859200000001,
                    "velocity": 0.28346456692913385,
                    "duration": 0.5934719999999984
                },
                {
                    "name": "B4",
                    "midi": 71,
                    "time": 51.03859200000001,
                    "velocity": 0.3543307086614173,
                    "duration": 0.4451040000000006
                },
                {
                    "name": "E5",
                    "midi": 76,
                    "time": 51.48369600000001,
                    "velocity": 0.29133858267716534,
                    "duration": 0.14836799999999783
                },
                {
                    "name": "E4",
                    "midi": 64,
                    "time": 51.63206400000001,
                    "velocity": 0.28346456692913385,
                    "duration": 0.5934719999999984
                },
                {
                    "name": "C5",
                    "midi": 72,
                    "time": 51.63206400000001,
                    "velocity": 0.28346456692913385,
                    "duration": 0.5934719999999984
                },
                {
                    "name": "G5",
                    "midi": 79,
                    "time": 51.63206400000001,
                    "velocity": 0.3543307086614173,
                    "duration": 0.4451040000000006
                },
                {
                    "name": "F#5",
                    "midi": 78,
                    "time": 52.07716800000001,
                    "velocity": 0.29133858267716534,
                    "duration": 0.14836799999999783
                },
                {
                    "name": "B4",
                    "midi": 71,
                    "time": 52.225536000000005,
                    "velocity": 0.31496062992125984,
                    "duration": 0.5934719999999984
                },
                {
                    "name": "F#4",
                    "midi": 66,
                    "time": 52.225536000000005,
                    "velocity": 0.31496062992125984,
                    "duration": 0.5934719999999984
                },
                {
                    "name": "D5",
                    "midi": 74,
                    "time": 52.225536000000005,
                    "velocity": 0.3937007874015748,
                    "duration": 0.4451040000000006
                },
                {
                    "name": "C5",
                    "midi": 72,
                    "time": 52.670640000000006,
                    "velocity": 0.33858267716535434,
                    "duration": 0.14836799999999783
                },
                {
                    "name": "C4",
                    "midi": 60,
                    "time": 52.819008000000004,
                    "velocity": 0.33858267716535434,
                    "duration": 0.5934719999999984
                },
                {
                    "name": "E5",
                    "midi": 76,
                    "time": 52.819008000000004,
                    "velocity": 0.4251968503937008,
                    "duration": 0.4451040000000006
                },
                {
                    "name": "A4",
                    "midi": 69,
                    "time": 52.819008000000004,
                    "velocity": 0.33858267716535434,
                    "duration": 0.5934719999999984
                },
                {
                    "name": "D5",
                    "midi": 74,
                    "time": 53.264112000000004,
                    "velocity": 0.36220472440944884,
                    "duration": 0.14836799999999783
                },
                {
                    "name": "B3",
                    "midi": 59,
                    "time": 53.41248,
                    "velocity": 0.33858267716535434,
                    "duration": 0.5934719999999984
                },
                {
                    "name": "B4",
                    "midi": 71,
                    "time": 53.41248,
                    "velocity": 0.31496062992125984,
                    "duration": 0.8902080000000012
                },
                {
                    "name": "D#4",
                    "midi": 63,
                    "time": 53.41248,
                    "velocity": 0.25196850393700787,
                    "duration": 1.186944000000004
                },
                {
                    "name": "A3",
                    "midi": 57,
                    "time": 54.005952,
                    "velocity": 0.33858267716535434,
                    "duration": 0.5934720000000056
                },
                {
                    "name": "C5",
                    "midi": 72,
                    "time": 54.302688,
                    "velocity": 0.28346456692913385,
                    "duration": 0.2967360000000028
                },
                {
                    "name": "C4",
                    "midi": 60,
                    "time": 54.599424000000006,
                    "velocity": 0.1968503937007874,
                    "duration": 0.5934719999999984
                },
                {
                    "name": "A4",
                    "midi": 69,
                    "time": 54.599424000000006,
                    "velocity": 0.25196850393700787,
                    "duration": 0.4451040000000006
                },
                {
                    "name": "F4",
                    "midi": 65,
                    "time": 54.599424000000006,
                    "velocity": 0.1968503937007874,
                    "duration": 0.5934719999999984
                },
                {
                    "name": "B4",
                    "midi": 71,
                    "time": 55.04452800000001,
                    "velocity": 0.2125984251968504,
                    "duration": 0.14836799999999783
                },
                {
                    "name": "B3",
                    "midi": 59,
                    "time": 55.192896000000005,
                    "velocity": 0.2125984251968504,
                    "duration": 0.5934719999999984
                },
                {
                    "name": "E4",
                    "midi": 64,
                    "time": 55.192896000000005,
                    "velocity": 0.2125984251968504,
                    "duration": 0.5934719999999984
                },
                {
                    "name": "G4",
                    "midi": 67,
                    "time": 55.192896000000005,
                    "velocity": 0.25984251968503935,
                    "duration": 0.4451040000000006
                },
                {
                    "name": "A4",
                    "midi": 69,
                    "time": 55.638000000000005,
                    "velocity": 0.2283464566929134,
                    "duration": 0.14836799999999783
                },
                {
                    "name": "A3",
                    "midi": 57,
                    "time": 55.786368,
                    "velocity": 0.2125984251968504,
                    "duration": 0.5934719999999984
                },
                {
                    "name": "D4",
                    "midi": 62,
                    "time": 55.786368,
                    "velocity": 0.2125984251968504,
                    "duration": 0.5934719999999984
                },
                {
                    "name": "F#4",
                    "midi": 66,
                    "time": 55.786368,
                    "velocity": 0.25984251968503935,
                    "duration": 0.4451040000000006
                },
                {
                    "name": "G4",
                    "midi": 67,
                    "time": 56.231472000000004,
                    "velocity": 0.2125984251968504,
                    "duration": 0.14836799999999783
                },
                {
                    "name": "G3",
                    "midi": 55,
                    "time": 56.37984,
                    "velocity": 0.1968503937007874,
                    "duration": 0.5934719999999984
                },
                {
                    "name": "E4",
                    "midi": 64,
                    "time": 56.37984,
                    "velocity": 0.25196850393700787,
                    "duration": 0.4451040000000006
                },
                {
                    "name": "C4",
                    "midi": 60,
                    "time": 56.37984,
                    "velocity": 0.1968503937007874,
                    "duration": 0.5934719999999984
                },
                {
                    "name": "F#4",
                    "midi": 66,
                    "time": 56.824944,
                    "velocity": 0.2047244094488189,
                    "duration": 0.14836799999999783
                },
                {
                    "name": "F#3",
                    "midi": 54,
                    "time": 57.566784,
                    "velocity": 0.14173228346456693,
                    "duration": 0.5934719999999984
                },
                {
                    "name": "D#4",
                    "midi": 63,
                    "time": 57.566784,
                    "velocity": 0.1732283464566929,
                    "duration": 0.5934719999999984
                },
                {
                    "name": "B3",
                    "midi": 59,
                    "time": 57.566784,
                    "velocity": 0.14173228346456693,
                    "duration": 0.5934719999999984
                },
                {
                    "name": "G#4",
                    "midi": 68,
                    "time": 63.501504,
                    "velocity": 0.2677165354330709,
                    "duration": 0.2967360000000028
                },
                {
                    "name": "E4",
                    "midi": 64,
                    "time": 63.501504,
                    "velocity": 0.23622047244094488,
                    "duration": 0.5934720000000056
                },
                {
                    "name": "B4",
                    "midi": 71,
                    "time": 63.79824,
                    "velocity": 0.2204724409448819,
                    "duration": 0.2967360000000028
                },
                {
                    "name": "E4",
                    "midi": 64,
                    "time": 64.094976,
                    "velocity": 0.2283464566929134,
                    "duration": 0.5934719999999913
                },
                {
                    "name": "G#4",
                    "midi": 68,
                    "time": 64.094976,
                    "velocity": 0.25984251968503935,
                    "duration": 0.29673599999999567
                },
                {
                    "name": "B4",
                    "midi": 71,
                    "time": 64.391712,
                    "velocity": 0.1968503937007874,
                    "duration": 0.29673599999999567
                },
                {
                    "name": "C#5",
                    "midi": 73,
                    "time": 64.688448,
                    "velocity": 0.33858267716535434,
                    "duration": 0.29673599999999567
                },
                {
                    "name": "A4",
                    "midi": 69,
                    "time": 64.98518399999999,
                    "velocity": 0.1968503937007874,
                    "duration": 0.29673599999999567
                },
                {
                    "name": "C#4",
                    "midi": 61,
                    "time": 65.28191999999999,
                    "velocity": 0.25196850393700787,
                    "duration": 0.5934719999999913
                },
                {
                    "name": "C#5",
                    "midi": 73,
                    "time": 65.28191999999999,
                    "velocity": 0.28346456692913385,
                    "duration": 0.29673599999999567
                },
                {
                    "name": "A4",
                    "midi": 69,
                    "time": 65.57865599999998,
                    "velocity": 0.1968503937007874,
                    "duration": 0.29673599999999567
                },
                {
                    "name": "C#4",
                    "midi": 61,
                    "time": 65.87539199999998,
                    "velocity": 0.25196850393700787,
                    "duration": 0.14836800000000494
                },
                {
                    "name": "F#4",
                    "midi": 66,
                    "time": 65.87539199999998,
                    "velocity": 0.28346456692913385,
                    "duration": 0.14836800000000494
                },
                {
                    "name": "F#4",
                    "midi": 66,
                    "time": 67.06233599999999,
                    "velocity": 0.2677165354330709,
                    "duration": 0.29673599999999567
                },
                {
                    "name": "C#4",
                    "midi": 61,
                    "time": 67.06233599999999,
                    "velocity": 0.23622047244094488,
                    "duration": 0.5934719999999913
                },
                {
                    "name": "A4",
                    "midi": 69,
                    "time": 67.35907199999998,
                    "velocity": 0.2204724409448819,
                    "duration": 0.29673599999999567
                },
                {
                    "name": "C#4",
                    "midi": 61,
                    "time": 67.65580799999998,
                    "velocity": 0.2283464566929134,
                    "duration": 0.5934719999999913
                },
                {
                    "name": "F#4",
                    "midi": 66,
                    "time": 67.65580799999998,
                    "velocity": 0.25984251968503935,
                    "duration": 0.29673599999999567
                },
                {
                    "name": "A4",
                    "midi": 69,
                    "time": 67.95254399999997,
                    "velocity": 0.1968503937007874,
                    "duration": 0.29673599999999567
                },
                {
                    "name": "B4",
                    "midi": 71,
                    "time": 68.24927999999997,
                    "velocity": 0.33070866141732286,
                    "duration": 1.7804160000000167
                },
                {
                    "name": "D#4",
                    "midi": 63,
                    "time": 68.84275199999998,
                    "velocity": 0.23622047244094488,
                    "duration": 0.14836800000000494
                },
                {
                    "name": "G#4",
                    "midi": 68,
                    "time": 68.84275199999998,
                    "velocity": 0.23622047244094488,
                    "duration": 0.14836800000000494
                },
                {
                    "name": "D#4",
                    "midi": 63,
                    "time": 69.43622399999998,
                    "velocity": 0.23622047244094488,
                    "duration": 0.14836800000000494
                },
                {
                    "name": "G#4",
                    "midi": 68,
                    "time": 69.43622399999998,
                    "velocity": 0.23622047244094488,
                    "duration": 0.14836800000000494
                },
                {
                    "name": "E4",
                    "midi": 64,
                    "time": 70.62316799999999,
                    "velocity": 0.2677165354330709,
                    "duration": 0.29673599999999567
                },
                {
                    "name": "D#4",
                    "midi": 63,
                    "time": 70.62316799999999,
                    "velocity": 0.23622047244094488,
                    "duration": 0.5934719999999913
                },
                {
                    "name": "G#4",
                    "midi": 68,
                    "time": 70.91990399999999,
                    "velocity": 0.2204724409448819,
                    "duration": 0.29673599999999567
                },
                {
                    "name": "D#4",
                    "midi": 63,
                    "time": 71.21663999999998,
                    "velocity": 0.2283464566929134,
                    "duration": 0.5934719999999913
                },
                {
                    "name": "E4",
                    "midi": 64,
                    "time": 71.21663999999998,
                    "velocity": 0.25984251968503935,
                    "duration": 0.29673599999999567
                },
                {
                    "name": "G#4",
                    "midi": 68,
                    "time": 71.51337599999998,
                    "velocity": 0.1968503937007874,
                    "duration": 0.29673599999999567
                },
                {
                    "name": "A4",
                    "midi": 69,
                    "time": 71.81011199999998,
                    "velocity": 0.36220472440944884,
                    "duration": 0.29673599999999567
                },
                {
                    "name": "F#4",
                    "midi": 66,
                    "time": 72.10684799999997,
                    "velocity": 0.1968503937007874,
                    "duration": 0.29673599999999567
                },
                {
                    "name": "A3",
                    "midi": 57,
                    "time": 72.40358399999997,
                    "velocity": 0.25196850393700787,
                    "duration": 0.5934719999999913
                },
                {
                    "name": "A4",
                    "midi": 69,
                    "time": 72.40358399999997,
                    "velocity": 0.28346456692913385,
                    "duration": 0.29673599999999567
                },
                {
                    "name": "F#4",
                    "midi": 66,
                    "time": 72.70031999999996,
                    "velocity": 0.1968503937007874,
                    "duration": 0.29673599999999567
                },
                {
                    "name": "A3",
                    "midi": 57,
                    "time": 72.99705599999996,
                    "velocity": 0.25196850393700787,
                    "duration": 0.14836800000000494
                },
                {
                    "name": "C#4",
                    "midi": 61,
                    "time": 72.99705599999996,
                    "velocity": 0.28346456692913385,
                    "duration": 0.14836800000000494
                },
                {
                    "name": "B3",
                    "midi": 59,
                    "time": 74.18399999999997,
                    "velocity": 0.2677165354330709,
                    "duration": 0.29673599999999567
                },
                {
                    "name": "F#3",
                    "midi": 54,
                    "time": 74.18399999999997,
                    "velocity": 0.23622047244094488,
                    "duration": 0.5934719999999913
                },
                {
                    "name": "D#4",
                    "midi": 63,
                    "time": 74.48073599999996,
                    "velocity": 0.2204724409448819,
                    "duration": 0.29673599999999567
                },
                {
                    "name": "F#3",
                    "midi": 54,
                    "time": 74.77747199999996,
                    "velocity": 0.2283464566929134,
                    "duration": 0.5934719999999913
                },
                {
                    "name": "B3",
                    "midi": 59,
                    "time": 74.77747199999996,
                    "velocity": 0.25984251968503935,
                    "duration": 0.29673599999999567
                },
                {
                    "name": "D#4",
                    "midi": 63,
                    "time": 75.07420799999996,
                    "velocity": 0.1968503937007874,
                    "duration": 0.29673599999999567
                },
                {
                    "name": "E4",
                    "midi": 64,
                    "time": 75.37094399999995,
                    "velocity": 0.33070866141732286,
                    "duration": 1.7804160000000167
                },
                {
                    "name": "G#3",
                    "midi": 56,
                    "time": 75.96441599999996,
                    "velocity": 0.23622047244094488,
                    "duration": 0.14836800000000494
                },
                {
                    "name": "B3",
                    "midi": 59,
                    "time": 75.96441599999996,
                    "velocity": 0.23622047244094488,
                    "duration": 0.14836800000000494
                },
                {
                    "name": "G#3",
                    "midi": 56,
                    "time": 76.55788799999996,
                    "velocity": 0.23622047244094488,
                    "duration": 0.14836800000000494
                },
                {
                    "name": "B3",
                    "midi": 59,
                    "time": 76.55788799999996,
                    "velocity": 0.23622047244094488,
                    "duration": 0.14836800000000494
                },
                {
                    "name": "D#4",
                    "midi": 63,
                    "time": 77.74483199999997,
                    "velocity": 0.30708661417322836,
                    "duration": 0.29673599999999567
                },
                {
                    "name": "B3",
                    "midi": 59,
                    "time": 77.74483199999997,
                    "velocity": 0.23622047244094488,
                    "duration": 0.5934719999999913
                },
                {
                    "name": "F#4",
                    "midi": 66,
                    "time": 78.04156799999997,
                    "velocity": 0.25196850393700787,
                    "duration": 0.29673599999999567
                },
                {
                    "name": "B3",
                    "midi": 59,
                    "time": 78.33830399999997,
                    "velocity": 0.2283464566929134,
                    "duration": 0.5934720000000198
                },
                {
                    "name": "D#4",
                    "midi": 63,
                    "time": 78.33830399999997,
                    "velocity": 0.29133858267716534,
                    "duration": 0.2967360000000099
                },
                {
                    "name": "F#4",
                    "midi": 66,
                    "time": 78.61773039999997,
                    "velocity": 0.2204724409448819,
                    "duration": 0.2967360000000099
                },
                {
                    "name": "G#4",
                    "midi": 68,
                    "time": 78.93177599999999,
                    "velocity": 0.3858267716535433,
                    "duration": 0.29673599999999567
                },
                {
                    "name": "E4",
                    "midi": 64,
                    "time": 79.22851199999998,
                    "velocity": 0.2204724409448819,
                    "duration": 0.29673599999999567
                },
                {
                    "name": "G#3",
                    "midi": 56,
                    "time": 79.52524799999998,
                    "velocity": 0.25196850393700787,
                    "duration": 0.5934719999999913
                },
                {
                    "name": "G#4",
                    "midi": 68,
                    "time": 79.52524799999998,
                    "velocity": 0.3228346456692913,
                    "duration": 0.29673599999999567
                },
                {
                    "name": "E4",
                    "midi": 64,
                    "time": 79.82198399999997,
                    "velocity": 0.2204724409448819,
                    "duration": 0.29673599999999567
                },
                {
                    "name": "G#3",
                    "midi": 56,
                    "time": 80.11871999999997,
                    "velocity": 0.25196850393700787,
                    "duration": 0.14836800000000494
                },
                {
                    "name": "C#4",
                    "midi": 61,
                    "time": 80.11871999999997,
                    "velocity": 0.3228346456692913,
                    "duration": 0.14836800000000494
                },
                {
                    "name": "C#4",
                    "midi": 61,
                    "time": 81.30566399999998,
                    "velocity": 0.30708661417322836,
                    "duration": 0.29673599999999567
                },
                {
                    "name": "G#3",
                    "midi": 56,
                    "time": 81.30566399999998,
                    "velocity": 0.23622047244094488,
                    "duration": 0.5934719999999913
                },
                {
                    "name": "E4",
                    "midi": 64,
                    "time": 81.60239999999997,
                    "velocity": 0.25196850393700787,
                    "duration": 0.29673599999999567
                },
                {
                    "name": "G#3",
                    "midi": 56,
                    "time": 81.89913599999997,
                    "velocity": 0.2283464566929134,
                    "duration": 0.5934719999999913
                },
                {
                    "name": "C#4",
                    "midi": 61,
                    "time": 81.89913599999997,
                    "velocity": 0.29133858267716534,
                    "duration": 0.29673599999999567
                },
                {
                    "name": "E4",
                    "midi": 64,
                    "time": 82.19587199999997,
                    "velocity": 0.2204724409448819,
                    "duration": 0.29673599999999567
                },
                {
                    "name": "F#4",
                    "midi": 66,
                    "time": 82.49260799999996,
                    "velocity": 0.3779527559055118,
                    "duration": 1.7804160000000167
                },
                {
                    "name": "A#3",
                    "midi": 58,
                    "time": 83.08607999999997,
                    "velocity": 0.23622047244094488,
                    "duration": 0.14836800000000494
                },
                {
                    "name": "D#4",
                    "midi": 63,
                    "time": 83.08607999999997,
                    "velocity": 0.23622047244094488,
                    "duration": 0.14836800000000494
                },
                {
                    "name": "A#3",
                    "midi": 58,
                    "time": 83.67955199999997,
                    "velocity": 0.23622047244094488,
                    "duration": 0.14836800000000494
                },
                {
                    "name": "D#4",
                    "midi": 63,
                    "time": 83.67955199999997,
                    "velocity": 0.23622047244094488,
                    "duration": 0.14836800000000494
                },
                {
                    "name": "B3",
                    "midi": 59,
                    "time": 84.86649599999998,
                    "velocity": 0.30708661417322836,
                    "duration": 0.29673599999999567
                },
                {
                    "name": "A#3",
                    "midi": 58,
                    "time": 84.86649599999998,
                    "velocity": 0.23622047244094488,
                    "duration": 0.5934719999999913
                },
                {
                    "name": "D#4",
                    "midi": 63,
                    "time": 85.16323199999998,
                    "velocity": 0.25196850393700787,
                    "duration": 0.29673599999999567
                },
                {
                    "name": "A#3",
                    "midi": 58,
                    "time": 85.45996799999998,
                    "velocity": 0.2283464566929134,
                    "duration": 0.5934719999999913
                },
                {
                    "name": "B3",
                    "midi": 59,
                    "time": 85.45996799999998,
                    "velocity": 0.29133858267716534,
                    "duration": 0.29673599999999567
                },
                {
                    "name": "D#4",
                    "midi": 63,
                    "time": 85.75670399999997,
                    "velocity": 0.2204724409448819,
                    "duration": 0.29673599999999567
                },
                {
                    "name": "E4",
                    "midi": 64,
                    "time": 86.05343999999997,
                    "velocity": 0.3858267716535433,
                    "duration": 0.29673599999999567
                },
                {
                    "name": "C#4",
                    "midi": 61,
                    "time": 86.35017599999996,
                    "velocity": 0.2204724409448819,
                    "duration": 0.29673599999999567
                },
                {
                    "name": "E3",
                    "midi": 52,
                    "time": 86.64691199999996,
                    "velocity": 0.25196850393700787,
                    "duration": 0.5934719999999913
                },
                {
                    "name": "E4",
                    "midi": 64,
                    "time": 86.64691199999996,
                    "velocity": 0.3228346456692913,
                    "duration": 0.29673599999999567
                },
                {
                    "name": "C#4",
                    "midi": 61,
                    "time": 86.94364799999995,
                    "velocity": 0.2204724409448819,
                    "duration": 0.29673599999999567
                },
                {
                    "name": "E3",
                    "midi": 52,
                    "time": 87.24038399999995,
                    "velocity": 0.25196850393700787,
                    "duration": 0.14836800000000494
                },
                {
                    "name": "G#3",
                    "midi": 56,
                    "time": 87.24038399999995,
                    "velocity": 0.3228346456692913,
                    "duration": 0.14836800000000494
                },
                {
                    "name": "F#3",
                    "midi": 54,
                    "time": 88.42732799999996,
                    "velocity": 0.30708661417322836,
                    "duration": 0.29673599999999567
                },
                {
                    "name": "C#3",
                    "midi": 49,
                    "time": 88.42732799999996,
                    "velocity": 0.23622047244094488,
                    "duration": 0.5934719999999913
                },
                {
                    "name": "A#3",
                    "midi": 58,
                    "time": 88.72406399999996,
                    "velocity": 0.25196850393700787,
                    "duration": 0.29673599999999567
                },
                {
                    "name": "C#3",
                    "midi": 49,
                    "time": 89.02079999999995,
                    "velocity": 0.2283464566929134,
                    "duration": 0.5934719999999913
                },
                {
                    "name": "F#3",
                    "midi": 54,
                    "time": 89.02079999999995,
                    "velocity": 0.29133858267716534,
                    "duration": 0.29673599999999567
                },
                {
                    "name": "A#3",
                    "midi": 58,
                    "time": 89.31753599999995,
                    "velocity": 0.2204724409448819,
                    "duration": 0.29673599999999567
                },
                {
                    "name": "B3",
                    "midi": 59,
                    "time": 89.61427199999994,
                    "velocity": 0.3779527559055118,
                    "duration": 1.7804160000000167
                },
                {
                    "name": "D#3",
                    "midi": 51,
                    "time": 90.20774399999995,
                    "velocity": 0.23622047244094488,
                    "duration": 0.14836800000000494
                },
                {
                    "name": "F#3",
                    "midi": 54,
                    "time": 90.20774399999995,
                    "velocity": 0.23622047244094488,
                    "duration": 0.14836800000000494
                },
                {
                    "name": "D#3",
                    "midi": 51,
                    "time": 90.80121599999995,
                    "velocity": 0.23622047244094488,
                    "duration": 0.14836800000000494
                },
                {
                    "name": "F#3",
                    "midi": 54,
                    "time": 90.80121599999995,
                    "velocity": 0.23622047244094488,
                    "duration": 0.14836800000000494
                },
                {
                    "name": "F#5",
                    "midi": 78,
                    "time": 91.98815999999997,
                    "velocity": 0.23622047244094488,
                    "duration": 0.29673599999999567
                },
                {
                    "name": "D#5",
                    "midi": 75,
                    "time": 91.98815999999997,
                    "velocity": 0.23622047244094488,
                    "duration": 0.5934719999999913
                },
                {
                    "name": "A#5",
                    "midi": 82,
                    "time": 92.28489599999996,
                    "velocity": 0.1968503937007874,
                    "duration": 0.29673599999999567
                },
                {
                    "name": "D#5",
                    "midi": 75,
                    "time": 92.58163199999996,
                    "velocity": 0.2283464566929134,
                    "duration": 0.5934719999999913
                },
                {
                    "name": "F#5",
                    "midi": 78,
                    "time": 92.58163199999996,
                    "velocity": 0.2283464566929134,
                    "duration": 0.29673599999999567
                },
                {
                    "name": "A#5",
                    "midi": 82,
                    "time": 92.87836799999995,
                    "velocity": 0.1732283464566929,
                    "duration": 0.29673599999999567
                },
                {
                    "name": "C6",
                    "midi": 84,
                    "time": 93.17510399999995,
                    "velocity": 0.2992125984251969,
                    "duration": 0.29673599999999567
                },
                {
                    "name": "G#5",
                    "midi": 80,
                    "time": 93.47183999999994,
                    "velocity": 0.1732283464566929,
                    "duration": 0.29673599999999567
                },
                {
                    "name": "C5",
                    "midi": 72,
                    "time": 93.76857599999994,
                    "velocity": 0.25196850393700787,
                    "duration": 0.5934719999999913
                },
                {
                    "name": "C6",
                    "midi": 84,
                    "time": 93.76857599999994,
                    "velocity": 0.25196850393700787,
                    "duration": 0.29673599999999567
                },
                {
                    "name": "G#5",
                    "midi": 80,
                    "time": 94.06531199999993,
                    "velocity": 0.1732283464566929,
                    "duration": 0.29673599999999567
                },
                {
                    "name": "C5",
                    "midi": 72,
                    "time": 94.36204799999993,
                    "velocity": 0.25196850393700787,
                    "duration": 0.14836800000000494
                },
                {
                    "name": "D#5",
                    "midi": 75,
                    "time": 94.36204799999993,
                    "velocity": 0.25196850393700787,
                    "duration": 0.14836800000000494
                },
                {
                    "name": "F#5",
                    "midi": 78,
                    "time": 95.54899199999994,
                    "velocity": 0.23622047244094488,
                    "duration": 0.29673599999999567
                },
                {
                    "name": "D#5",
                    "midi": 75,
                    "time": 95.54899199999994,
                    "velocity": 0.23622047244094488,
                    "duration": 0.5934719999999913
                },
                {
                    "name": "A#5",
                    "midi": 82,
                    "time": 95.84572799999994,
                    "velocity": 0.1968503937007874,
                    "duration": 0.29673599999999567
                },
                {
                    "name": "D#5",
                    "midi": 75,
                    "time": 96.14246399999993,
                    "velocity": 0.2283464566929134,
                    "duration": 0.5934719999999913
                },
                {
                    "name": "F#5",
                    "midi": 78,
                    "time": 96.14246399999993,
                    "velocity": 0.2283464566929134,
                    "duration": 0.29673599999999567
                },
                {
                    "name": "A#5",
                    "midi": 82,
                    "time": 96.43919999999993,
                    "velocity": 0.1732283464566929,
                    "duration": 0.29673599999999567
                },
                {
                    "name": "F5",
                    "midi": 77,
                    "time": 96.73593599999992,
                    "velocity": 0.29133858267716534,
                    "duration": 1.7804160000000167
                },
                {
                    "name": "A#4",
                    "midi": 70,
                    "time": 97.32940799999993,
                    "velocity": 0.23622047244094488,
                    "duration": 0.14836800000000494
                },
                {
                    "name": "D5",
                    "midi": 74,
                    "time": 97.32940799999993,
                    "velocity": 0.23622047244094488,
                    "duration": 0.14836800000000494
                },
                {
                    "name": "A#4",
                    "midi": 70,
                    "time": 97.92287999999994,
                    "velocity": 0.23622047244094488,
                    "duration": 0.14836800000000494
                },
                {
                    "name": "D5",
                    "midi": 74,
                    "time": 97.92287999999994,
                    "velocity": 0.23622047244094488,
                    "duration": 0.14836800000000494
                },
                {
                    "name": "C#6",
                    "midi": 85,
                    "time": 99.10982399999995,
                    "velocity": 0.25984251968503935,
                    "duration": 0.29673599999999567
                },
                {
                    "name": "A#5",
                    "midi": 82,
                    "time": 99.10982399999995,
                    "velocity": 0.25984251968503935,
                    "duration": 0.5934719999999913
                },
                {
                    "name": "F6",
                    "midi": 89,
                    "time": 99.40655999999994,
                    "velocity": 0.2125984251968504,
                    "duration": 0.29673599999999567
                },
                {
                    "name": "A#5",
                    "midi": 82,
                    "time": 99.70329599999994,
                    "velocity": 0.2440944881889764,
                    "duration": 0.5934719999999913
                },
                {
                    "name": "C#6",
                    "midi": 85,
                    "time": 99.70329599999994,
                    "velocity": 0.2440944881889764,
                    "duration": 0.29673599999999567
                },
                {
                    "name": "F6",
                    "midi": 89,
                    "time": 100.00003199999993,
                    "velocity": 0.1889763779527559,
                    "duration": 0.29673599999999567
                },
                {
                    "name": "G6",
                    "midi": 91,
                    "time": 100.29676799999993,
                    "velocity": 0.3464566929133858,
                    "duration": 0.29673599999999567
                },
                {
                    "name": "D#6",
                    "midi": 87,
                    "time": 100.59350399999992,
                    "velocity": 0.1889763779527559,
                    "duration": 0.29673599999999567
                },
                {
                    "name": "G5",
                    "midi": 79,
                    "time": 100.89023999999992,
                    "velocity": 0.2755905511811024,
                    "duration": 0.5934719999999913
                },
                {
                    "name": "G6",
                    "midi": 91,
                    "time": 100.89023999999992,
                    "velocity": 0.2755905511811024,
                    "duration": 0.29673599999999567
                },
                {
                    "name": "D#6",
                    "midi": 87,
                    "time": 101.18697599999992,
                    "velocity": 0.1889763779527559,
                    "duration": 0.29673599999999567
                },
                {
                    "name": "G5",
                    "midi": 79,
                    "time": 101.48371199999991,
                    "velocity": 0.2755905511811024,
                    "duration": 0.14836800000000494
                },
                {
                    "name": "A#5",
                    "midi": 82,
                    "time": 101.48371199999991,
                    "velocity": 0.2755905511811024,
                    "duration": 0.14836800000000494
                },
                {
                    "name": "C#6",
                    "midi": 85,
                    "time": 102.67065599999992,
                    "velocity": 0.25984251968503935,
                    "duration": 0.29673599999999567
                },
                {
                    "name": "A#5",
                    "midi": 82,
                    "time": 102.67065599999992,
                    "velocity": 0.25984251968503935,
                    "duration": 0.5934719999999913
                },
                {
                    "name": "F6",
                    "midi": 89,
                    "time": 102.96739199999992,
                    "velocity": 0.2125984251968504,
                    "duration": 0.29673599999999567
                },
                {
                    "name": "A#5",
                    "midi": 82,
                    "time": 103.26412799999991,
                    "velocity": 0.2440944881889764,
                    "duration": 0.5934719999999913
                },
                {
                    "name": "C#6",
                    "midi": 85,
                    "time": 103.26412799999991,
                    "velocity": 0.2440944881889764,
                    "duration": 0.29673599999999567
                },
                {
                    "name": "F6",
                    "midi": 89,
                    "time": 103.56086399999991,
                    "velocity": 0.1889763779527559,
                    "duration": 0.29673599999999567
                },
                {
                    "name": "C6",
                    "midi": 84,
                    "time": 103.8575999999999,
                    "velocity": 0.31496062992125984,
                    "duration": 1.7804160000000167
                },
                {
                    "name": "F5",
                    "midi": 77,
                    "time": 104.45107199999991,
                    "velocity": 0.25984251968503935,
                    "duration": 0.14836800000000494
                },
                {
                    "name": "A5",
                    "midi": 81,
                    "time": 104.45107199999991,
                    "velocity": 0.25984251968503935,
                    "duration": 0.14836800000000494
                },
                {
                    "name": "F5",
                    "midi": 77,
                    "time": 105.04454399999992,
                    "velocity": 0.25984251968503935,
                    "duration": 0.14836800000000494
                },
                {
                    "name": "A5",
                    "midi": 81,
                    "time": 105.04454399999992,
                    "velocity": 0.25984251968503935,
                    "duration": 0.14836800000000494
                },
                {
                    "name": "G#4",
                    "midi": 68,
                    "time": 106.23148799999993,
                    "velocity": 0.23622047244094488,
                    "duration": 0.29673599999999567
                },
                {
                    "name": "F4",
                    "midi": 65,
                    "time": 106.23148799999993,
                    "velocity": 0.23622047244094488,
                    "duration": 0.5934719999999913
                },
                {
                    "name": "C5",
                    "midi": 72,
                    "time": 106.52822399999992,
                    "velocity": 0.1968503937007874,
                    "duration": 0.29673599999999567
                },
                {
                    "name": "F4",
                    "midi": 65,
                    "time": 106.82495999999992,
                    "velocity": 0.2283464566929134,
                    "duration": 0.5934719999999913
                },
                {
                    "name": "G#4",
                    "midi": 68,
                    "time": 106.82495999999992,
                    "velocity": 0.2283464566929134,
                    "duration": 0.29673599999999567
                },
                {
                    "name": "C5",
                    "midi": 72,
                    "time": 107.12169599999991,
                    "velocity": 0.1732283464566929,
                    "duration": 0.29673599999999567
                },
                {
                    "name": "D5",
                    "midi": 74,
                    "time": 107.41843199999991,
                    "velocity": 0.2992125984251969,
                    "duration": 0.29673599999999567
                },
                {
                    "name": "A#4",
                    "midi": 70,
                    "time": 107.7151679999999,
                    "velocity": 0.1732283464566929,
                    "duration": 0.29673599999999567
                },
                {
                    "name": "D4",
                    "midi": 62,
                    "time": 108.0119039999999,
                    "velocity": 0.25196850393700787,
                    "duration": 0.5934719999999913
                },
                {
                    "name": "D5",
                    "midi": 74,
                    "time": 108.0119039999999,
                    "velocity": 0.25196850393700787,
                    "duration": 0.29673599999999567
                },
                {
                    "name": "A#4",
                    "midi": 70,
                    "time": 108.3086399999999,
                    "velocity": 0.1732283464566929,
                    "duration": 0.29673599999999567
                },
                {
                    "name": "D4",
                    "midi": 62,
                    "time": 108.6053759999999,
                    "velocity": 0.25196850393700787,
                    "duration": 0.14836800000000494
                },
                {
                    "name": "F4",
                    "midi": 65,
                    "time": 108.6053759999999,
                    "velocity": 0.25196850393700787,
                    "duration": 0.14836800000000494
                },
                {
                    "name": "G#4",
                    "midi": 68,
                    "time": 109.7923199999999,
                    "velocity": 0.23622047244094488,
                    "duration": 0.29673599999999567
                },
                {
                    "name": "F4",
                    "midi": 65,
                    "time": 109.7923199999999,
                    "velocity": 0.23622047244094488,
                    "duration": 0.5934719999999913
                },
                {
                    "name": "C5",
                    "midi": 72,
                    "time": 110.0890559999999,
                    "velocity": 0.1968503937007874,
                    "duration": 0.29673599999999567
                },
                {
                    "name": "F4",
                    "midi": 65,
                    "time": 110.3857919999999,
                    "velocity": 0.2283464566929134,
                    "duration": 0.5934719999999913
                },
                {
                    "name": "G#4",
                    "midi": 68,
                    "time": 110.3857919999999,
                    "velocity": 0.2283464566929134,
                    "duration": 0.29673599999999567
                },
                {
                    "name": "C5",
                    "midi": 72,
                    "time": 110.68252799999989,
                    "velocity": 0.1732283464566929,
                    "duration": 0.29673599999999567
                },
                {
                    "name": "G4",
                    "midi": 67,
                    "time": 110.97926399999989,
                    "velocity": 0.29133858267716534,
                    "duration": 1.7804160000000167
                },
                {
                    "name": "C4",
                    "midi": 60,
                    "time": 111.57273599999989,
                    "velocity": 0.23622047244094488,
                    "duration": 0.14836800000000494
                },
                {
                    "name": "E4",
                    "midi": 64,
                    "time": 111.57273599999989,
                    "velocity": 0.23622047244094488,
                    "duration": 0.14836800000000494
                },
                {
                    "name": "C4",
                    "midi": 60,
                    "time": 112.1662079999999,
                    "velocity": 0.23622047244094488,
                    "duration": 0.14836800000000494
                },
                {
                    "name": "E4",
                    "midi": 64,
                    "time": 112.1662079999999,
                    "velocity": 0.23622047244094488,
                    "duration": 0.14836800000000494
                },
                {
                    "name": "D#5",
                    "midi": 75,
                    "time": 113.35315199999991,
                    "velocity": 0.3228346456692913,
                    "duration": 0.29673599999999567
                },
                {
                    "name": "C5",
                    "midi": 72,
                    "time": 113.35315199999991,
                    "velocity": 0.3228346456692913,
                    "duration": 0.5934719999999913
                },
                {
                    "name": "G5",
                    "midi": 79,
                    "time": 113.6498879999999,
                    "velocity": 0.2755905511811024,
                    "duration": 0.29673599999999567
                },
                {
                    "name": "C5",
                    "midi": 72,
                    "time": 113.9466239999999,
                    "velocity": 0.31496062992125984,
                    "duration": 0.5934719999999913
                },
                {
                    "name": "D#5",
                    "midi": 75,
                    "time": 113.9466239999999,
                    "velocity": 0.31496062992125984,
                    "duration": 0.29673599999999567
                },
                {
                    "name": "G5",
                    "midi": 79,
                    "time": 114.2433599999999,
                    "velocity": 0.2440944881889764,
                    "duration": 0.29673599999999567
                },
                {
                    "name": "A5",
                    "midi": 81,
                    "time": 114.54009599999989,
                    "velocity": 0.4645669291338583,
                    "duration": 0.29673599999999567
                },
                {
                    "name": "F5",
                    "midi": 77,
                    "time": 114.83683199999989,
                    "velocity": 0.25196850393700787,
                    "duration": 0.29673599999999567
                },
                {
                    "name": "A4",
                    "midi": 69,
                    "time": 115.13356799999988,
                    "velocity": 0.3779527559055118,
                    "duration": 0.5934719999999913
                },
                {
                    "name": "A5",
                    "midi": 81,
                    "time": 115.13356799999988,
                    "velocity": 0.3779527559055118,
                    "duration": 0.29673599999999567
                },
                {
                    "name": "F5",
                    "midi": 77,
                    "time": 115.43030399999988,
                    "velocity": 0.25984251968503935,
                    "duration": 0.29673599999999567
                },
                {
                    "name": "A4",
                    "midi": 69,
                    "time": 115.72703999999987,
                    "velocity": 0.3858267716535433,
                    "duration": 0.14836800000000494
                },
                {
                    "name": "C5",
                    "midi": 72,
                    "time": 115.72703999999987,
                    "velocity": 0.3858267716535433,
                    "duration": 0.14836800000000494
                },
                {
                    "name": "D#6",
                    "midi": 87,
                    "time": 116.91398399999989,
                    "velocity": 0.41732283464566927,
                    "duration": 0.29673599999999567
                },
                {
                    "name": "C6",
                    "midi": 84,
                    "time": 116.91398399999989,
                    "velocity": 0.41732283464566927,
                    "duration": 0.5934719999999913
                },
                {
                    "name": "G6",
                    "midi": 91,
                    "time": 117.21071999999988,
                    "velocity": 0.33858267716535434,
                    "duration": 0.29673599999999567
                },
                {
                    "name": "C6",
                    "midi": 84,
                    "time": 117.50745599999988,
                    "velocity": 0.4015748031496063,
                    "duration": 0.5934719999999913
                },
                {
                    "name": "D#6",
                    "midi": 87,
                    "time": 117.50745599999988,
                    "velocity": 0.4015748031496063,
                    "duration": 0.29673599999999567
                },
                {
                    "name": "G6",
                    "midi": 91,
                    "time": 117.80419199999987,
                    "velocity": 0.2992125984251969,
                    "duration": 0.29673599999999567
                },
                {
                    "name": "A6",
                    "midi": 93,
                    "time": 118.10092799999987,
                    "velocity": 0.5826771653543307,
                    "duration": 0.29673599999999567
                },
                {
                    "name": "F6",
                    "midi": 89,
                    "time": 118.39766399999986,
                    "velocity": 0.30708661417322836,
                    "duration": 0.29673599999999567
                },
                {
                    "name": "A5",
                    "midi": 81,
                    "time": 118.69439999999986,
                    "velocity": 0.4645669291338583,
                    "duration": 0.5934719999999913
                },
                {
                    "name": "A6",
                    "midi": 93,
                    "time": 118.69439999999986,
                    "velocity": 0.4645669291338583,
                    "duration": 0.29673599999999567
                },
                {
                    "name": "F6",
                    "midi": 89,
                    "time": 118.99113599999986,
                    "velocity": 0.31496062992125984,
                    "duration": 0.29673599999999567
                },
                {
                    "name": "A5",
                    "midi": 81,
                    "time": 119.28787199999985,
                    "velocity": 0.48031496062992124,
                    "duration": 0.14836800000000494
                },
                {
                    "name": "C6",
                    "midi": 84,
                    "time": 119.28787199999985,
                    "velocity": 0.48031496062992124,
                    "duration": 0.14836800000000494
                },
                {
                    "name": "D#5",
                    "midi": 75,
                    "time": 119.88134399999986,
                    "velocity": 0.49606299212598426,
                    "duration": 0.29673599999999567
                },
                {
                    "name": "C5",
                    "midi": 72,
                    "time": 119.88134399999986,
                    "velocity": 0.41732283464566927,
                    "duration": 0.5934719999999913
                },
                {
                    "name": "G5",
                    "midi": 79,
                    "time": 120.17807999999985,
                    "velocity": 0.5511811023622047,
                    "duration": 0.29673599999999567
                },
                {
                    "name": "C5",
                    "midi": 72,
                    "time": 120.47481599999985,
                    "velocity": 0.47244094488188976,
                    "duration": 1.186943999999997
                },
                {
                    "name": "F5",
                    "midi": 77,
                    "time": 120.47481599999985,
                    "velocity": 0.5590551181102362,
                    "duration": 1.186943999999997
                },
                {
                    "name": "A5",
                    "midi": 81,
                    "time": 120.47481599999985,
                    "velocity": 0.5590551181102362,
                    "duration": 1.186943999999997
                },
                {
                    "name": "D#6",
                    "midi": 87,
                    "time": 121.66175999999984,
                    "velocity": 0.5669291338582677,
                    "duration": 0.29673599999999567
                },
                {
                    "name": "C6",
                    "midi": 84,
                    "time": 121.66175999999984,
                    "velocity": 0.48031496062992124,
                    "duration": 0.5934719999999913
                },
                {
                    "name": "G6",
                    "midi": 91,
                    "time": 121.95849599999984,
                    "velocity": 0.6299212598425197,
                    "duration": 0.29673599999999567
                },
                {
                    "name": "C6",
                    "midi": 84,
                    "time": 122.25523199999984,
                    "velocity": 0.5354330708661418,
                    "duration": 1.186943999999997
                },
                {
                    "name": "F6",
                    "midi": 89,
                    "time": 122.25523199999984,
                    "velocity": 0.6377952755905512,
                    "duration": 1.186943999999997
                },
                {
                    "name": "A6",
                    "midi": 93,
                    "time": 122.25523199999984,
                    "velocity": 0.6377952755905512,
                    "duration": 1.186943999999997
                },
                {
                    "name": "D#5",
                    "midi": 75,
                    "time": 123.44217599999983,
                    "velocity": 0.5511811023622047,
                    "duration": 0.29673599999999567
                },
                {
                    "name": "C5",
                    "midi": 72,
                    "time": 123.44217599999983,
                    "velocity": 0.4566929133858268,
                    "duration": 0.5934719999999913
                },
                {
                    "name": "G5",
                    "midi": 79,
                    "time": 123.73891199999983,
                    "velocity": 0.5984251968503937,
                    "duration": 0.29673599999999567
                },
                {
                    "name": "C5",
                    "midi": 72,
                    "time": 124.03564799999982,
                    "velocity": 0.5118110236220472,
                    "duration": 1.186943999999997
                },
                {
                    "name": "F5",
                    "midi": 77,
                    "time": 124.03564799999982,
                    "velocity": 0.6062992125984252,
                    "duration": 1.186943999999997
                },
                {
                    "name": "A5",
                    "midi": 81,
                    "time": 124.03564799999982,
                    "velocity": 0.6062992125984252,
                    "duration": 1.186943999999997
                },
                {
                    "name": "D#6",
                    "midi": 87,
                    "time": 125.22259199999982,
                    "velocity": 0.6141732283464567,
                    "duration": 0.29673599999999567
                },
                {
                    "name": "C6",
                    "midi": 84,
                    "time": 125.22259199999982,
                    "velocity": 0.5196850393700787,
                    "duration": 0.5934719999999913
                },
                {
                    "name": "G6",
                    "midi": 91,
                    "time": 125.51932799999982,
                    "velocity": 0.6850393700787402,
                    "duration": 0.29673599999999567
                },
                {
                    "name": "C6",
                    "midi": 84,
                    "time": 125.81606399999981,
                    "velocity": 0.5905511811023622,
                    "duration": 1.1758164000000022
                },
                {
                    "name": "F6",
                    "midi": 89,
                    "time": 125.81606399999981,
                    "velocity": 0.6929133858267716,
                    "duration": 1.1758164000000022
                },
                {
                    "name": "A6",
                    "midi": 93,
                    "time": 125.81606399999981,
                    "velocity": 0.6929133858267716,
                    "duration": 1.1758164000000022
                },
                {
                    "name": "C5",
                    "midi": 72,
                    "time": 127.00300799999981,
                    "velocity": 0.6692913385826772,
                    "duration": 1.175816399999988
                },
                {
                    "name": "F5",
                    "midi": 77,
                    "time": 127.00300799999981,
                    "velocity": 0.6692913385826772,
                    "duration": 1.175816399999988
                },
                {
                    "name": "A5",
                    "midi": 81,
                    "time": 127.00300799999981,
                    "velocity": 0.6692913385826772,
                    "duration": 1.175816399999988
                },
                {
                    "name": "C6",
                    "midi": 84,
                    "time": 128.1899519999998,
                    "velocity": 0.6929133858267716,
                    "duration": 1.1758164000000022
                },
                {
                    "name": "F6",
                    "midi": 89,
                    "time": 128.1899519999998,
                    "velocity": 0.6929133858267716,
                    "duration": 1.1758164000000022
                },
                {
                    "name": "A6",
                    "midi": 93,
                    "time": 128.1899519999998,
                    "velocity": 0.6929133858267716,
                    "duration": 1.1758164000000022
                },
                {
                    "name": "C5",
                    "midi": 72,
                    "time": 129.37689599999982,
                    "velocity": 0.6692913385826772,
                    "duration": 1.1758164000000022
                },
                {
                    "name": "F5",
                    "midi": 77,
                    "time": 129.37689599999982,
                    "velocity": 0.6692913385826772,
                    "duration": 1.1758164000000022
                },
                {
                    "name": "A5",
                    "midi": 81,
                    "time": 129.37689599999982,
                    "velocity": 0.6692913385826772,
                    "duration": 1.1758164000000022
                },
                {
                    "name": "C6",
                    "midi": 84,
                    "time": 130.56383999999983,
                    "velocity": 0.6929133858267716,
                    "duration": 1.1758164000000022
                },
                {
                    "name": "F6",
                    "midi": 89,
                    "time": 130.56383999999983,
                    "velocity": 0.6929133858267716,
                    "duration": 1.1758164000000022
                },
                {
                    "name": "A6",
                    "midi": 93,
                    "time": 130.56383999999983,
                    "velocity": 0.6929133858267716,
                    "duration": 1.1758164000000022
                },
                {
                    "name": "C5",
                    "midi": 72,
                    "time": 131.75078399999984,
                    "velocity": 0.6692913385826772,
                    "duration": 1.1758164000000022
                },
                {
                    "name": "F5",
                    "midi": 77,
                    "time": 131.75078399999984,
                    "velocity": 0.6692913385826772,
                    "duration": 1.1758164000000022
                },
                {
                    "name": "A5",
                    "midi": 81,
                    "time": 131.75078399999984,
                    "velocity": 0.6692913385826772,
                    "duration": 1.1758164000000022
                },
                {
                    "name": "C6",
                    "midi": 84,
                    "time": 132.93772799999985,
                    "velocity": 0.6929133858267716,
                    "duration": 1.1758164000000022
                },
                {
                    "name": "F6",
                    "midi": 89,
                    "time": 132.93772799999985,
                    "velocity": 0.6929133858267716,
                    "duration": 1.1758164000000022
                },
                {
                    "name": "A6",
                    "midi": 93,
                    "time": 132.93772799999985,
                    "velocity": 0.6929133858267716,
                    "duration": 1.1758164000000022
                },
                {
                    "name": "B4",
                    "midi": 71,
                    "time": 134.12467199999986,
                    "velocity": 0.7244094488188977,
                    "duration": 1.1758164000000022
                },
                {
                    "name": "F#5",
                    "midi": 78,
                    "time": 134.12467199999986,
                    "velocity": 0.7244094488188977,
                    "duration": 1.1758164000000022
                },
                {
                    "name": "B5",
                    "midi": 83,
                    "time": 134.12467199999986,
                    "velocity": 0.7244094488188977,
                    "duration": 1.1758164000000022
                },
                {
                    "name": "B5",
                    "midi": 83,
                    "time": 135.31161599999987,
                    "velocity": 0.7637795275590551,
                    "duration": 1.1758164000000022
                },
                {
                    "name": "F#6",
                    "midi": 90,
                    "time": 135.31161599999987,
                    "velocity": 0.7637795275590551,
                    "duration": 1.1758164000000022
                },
                {
                    "name": "B6",
                    "midi": 95,
                    "time": 135.31161599999987,
                    "velocity": 0.7637795275590551,
                    "duration": 1.1758164000000022
                },
                {
                    "name": "B4",
                    "midi": 71,
                    "time": 136.49855999999988,
                    "velocity": 0.7244094488188977,
                    "duration": 1.1758164000000022
                },
                {
                    "name": "F#5",
                    "midi": 78,
                    "time": 136.49855999999988,
                    "velocity": 0.7244094488188977,
                    "duration": 1.1758164000000022
                },
                {
                    "name": "B5",
                    "midi": 83,
                    "time": 136.49855999999988,
                    "velocity": 0.7244094488188977,
                    "duration": 1.1758164000000022
                },
                {
                    "name": "B5",
                    "midi": 83,
                    "time": 137.6855039999999,
                    "velocity": 0.7637795275590551,
                    "duration": 1.1758164000000022
                },
                {
                    "name": "F#6",
                    "midi": 90,
                    "time": 137.6855039999999,
                    "velocity": 0.7637795275590551,
                    "duration": 1.1758164000000022
                },
                {
                    "name": "B6",
                    "midi": 95,
                    "time": 137.6855039999999,
                    "velocity": 0.7637795275590551,
                    "duration": 1.1758164000000022
                },
                {
                    "name": "B4",
                    "midi": 71,
                    "time": 138.8724479999999,
                    "velocity": 0.7244094488188977,
                    "duration": 1.1758164000000022
                },
                {
                    "name": "F#5",
                    "midi": 78,
                    "time": 138.8724479999999,
                    "velocity": 0.7244094488188977,
                    "duration": 1.1758164000000022
                },
                {
                    "name": "B5",
                    "midi": 83,
                    "time": 138.8724479999999,
                    "velocity": 0.7244094488188977,
                    "duration": 1.1758164000000022
                },
                {
                    "name": "B5",
                    "midi": 83,
                    "time": 140.05939199999992,
                    "velocity": 0.7637795275590551,
                    "duration": 1.1758164000000022
                },
                {
                    "name": "F#6",
                    "midi": 90,
                    "time": 140.05939199999992,
                    "velocity": 0.7637795275590551,
                    "duration": 1.1758164000000022
                },
                {
                    "name": "B6",
                    "midi": 95,
                    "time": 140.05939199999992,
                    "velocity": 0.7637795275590551,
                    "duration": 1.1758164000000022
                },
                {
                    "name": "E5",
                    "midi": 76,
                    "time": 141.83980799999992,
                    "velocity": 0.5984251968503937,
                    "duration": 0.5934720000000198
                },
                {
                    "name": "G#5",
                    "midi": 80,
                    "time": 141.83980799999992,
                    "velocity": 0.7244094488188977,
                    "duration": 0.2967360000000099
                },
                {
                    "name": "B5",
                    "midi": 83,
                    "time": 142.13654399999993,
                    "velocity": 0.5984251968503937,
                    "duration": 0.2967360000000099
                },
                {
                    "name": "G#5",
                    "midi": 80,
                    "time": 142.43327999999994,
                    "velocity": 0.7086614173228346,
                    "duration": 0.2967360000000099
                },
                {
                    "name": "E5",
                    "midi": 76,
                    "time": 142.43327999999994,
                    "velocity": 0.5905511811023622,
                    "duration": 0.5934720000000198
                },
                {
                    "name": "B5",
                    "midi": 83,
                    "time": 142.73001599999995,
                    "velocity": 0.5984251968503937,
                    "duration": 0.2967360000000099
                },
                {
                    "name": "C#6",
                    "midi": 85,
                    "time": 143.02675199999996,
                    "velocity": 0.7244094488188977,
                    "duration": 0.2967360000000099
                },
                {
                    "name": "A5",
                    "midi": 81,
                    "time": 143.32348799999997,
                    "velocity": 0.6062992125984252,
                    "duration": 0.2967360000000099
                },
                {
                    "name": "C#5",
                    "midi": 73,
                    "time": 143.62022399999998,
                    "velocity": 0.4330708661417323,
                    "duration": 0.5934720000000198
                },
                {
                    "name": "C#6",
                    "midi": 85,
                    "time": 143.62022399999998,
                    "velocity": 0.5905511811023622,
                    "duration": 0.2967360000000099
                },
                {
                    "name": "A5",
                    "midi": 81,
                    "time": 143.91696,
                    "velocity": 0.5669291338582677,
                    "duration": 0.2967360000000099
                },
                {
                    "name": "C#5",
                    "midi": 73,
                    "time": 144.213696,
                    "velocity": 0.5590551181102362,
                    "duration": 0.14836800000000494
                },
                {
                    "name": "F#5",
                    "midi": 78,
                    "time": 144.213696,
                    "velocity": 0.6299212598425197,
                    "duration": 0.14836800000000494
                },
                {
                    "name": "F#5",
                    "midi": 78,
                    "time": 145.40064,
                    "velocity": 0.6850393700787402,
                    "duration": 0.2967360000000099
                },
                {
                    "name": "C#5",
                    "midi": 73,
                    "time": 145.40064,
                    "velocity": 0.6850393700787402,
                    "duration": 0.5934720000000198
                },
                {
                    "name": "A5",
                    "midi": 81,
                    "time": 145.69737600000002,
                    "velocity": 0.5984251968503937,
                    "duration": 0.2967360000000099
                },
                {
                    "name": "C#5",
                    "midi": 73,
                    "time": 145.99411200000003,
                    "velocity": 0.6771653543307087,
                    "duration": 0.5934720000000198
                },
                {
                    "name": "F#5",
                    "midi": 78,
                    "time": 145.99411200000003,
                    "velocity": 0.6771653543307087,
                    "duration": 0.2967360000000099
                },
                {
                    "name": "A5",
                    "midi": 81,
                    "time": 146.29084800000004,
                    "velocity": 0.5905511811023622,
                    "duration": 0.2967360000000099
                },
                {
                    "name": "B5",
                    "midi": 83,
                    "time": 146.58758400000005,
                    "velocity": 0.6929133858267716,
                    "duration": 1.780415999999974
                },
                {
                    "name": "G#5",
                    "midi": 80,
                    "time": 147.18105600000004,
                    "velocity": 0.5669291338582677,
                    "duration": 0.14836800000000494
                },
                {
                    "name": "D#5",
                    "midi": 75,
                    "time": 147.18105600000004,
                    "velocity": 0.5669291338582677,
                    "duration": 0.14836800000000494
                },
                {
                    "name": "D#5",
                    "midi": 75,
                    "time": 147.77452800000003,
                    "velocity": 0.5669291338582677,
                    "duration": 0.14836800000000494
                },
                {
                    "name": "G#5",
                    "midi": 80,
                    "time": 147.77452800000003,
                    "velocity": 0.5669291338582677,
                    "duration": 0.14836800000000494
                },
                {
                    "name": "E5",
                    "midi": 76,
                    "time": 148.96147200000001,
                    "velocity": 0.5905511811023622,
                    "duration": 0.2967360000000099
                },
                {
                    "name": "D#5",
                    "midi": 75,
                    "time": 148.96147200000001,
                    "velocity": 0.5905511811023622,
                    "duration": 0.5934720000000198
                },
                {
                    "name": "G#5",
                    "midi": 80,
                    "time": 149.25820800000002,
                    "velocity": 0.49606299212598426,
                    "duration": 0.2967360000000099
                },
                {
                    "name": "D#5",
                    "midi": 75,
                    "time": 149.55494400000003,
                    "velocity": 0.5826771653543307,
                    "duration": 0.5934720000000198
                },
                {
                    "name": "E5",
                    "midi": 76,
                    "time": 149.55494400000003,
                    "velocity": 0.5826771653543307,
                    "duration": 0.2967360000000099
                },
                {
                    "name": "G#5",
                    "midi": 80,
                    "time": 149.85168000000004,
                    "velocity": 0.49606299212598426,
                    "duration": 0.2967360000000099
                },
                {
                    "name": "A5",
                    "midi": 81,
                    "time": 150.14841600000005,
                    "velocity": 0.5748031496062992,
                    "duration": 0.2967360000000099
                },
                {
                    "name": "F#5",
                    "midi": 78,
                    "time": 150.44515200000006,
                    "velocity": 0.49606299212598426,
                    "duration": 0.2967360000000099
                },
                {
                    "name": "A5",
                    "midi": 81,
                    "time": 150.74188800000007,
                    "velocity": 0.5118110236220472,
                    "duration": 0.2967360000000099
                },
                {
                    "name": "A4",
                    "midi": 69,
                    "time": 150.74188800000007,
                    "velocity": 0.4881889763779528,
                    "duration": 0.5934720000000198
                },
                {
                    "name": "F#5",
                    "midi": 78,
                    "time": 151.03862400000008,
                    "velocity": 0.4566929133858268,
                    "duration": 0.2967360000000099
                },
                {
                    "name": "A4",
                    "midi": 69,
                    "time": 151.3353600000001,
                    "velocity": 0.5118110236220472,
                    "duration": 0.14836800000000494
                },
                {
                    "name": "C#5",
                    "midi": 73,
                    "time": 151.3353600000001,
                    "velocity": 0.5118110236220472,
                    "duration": 0.14836800000000494
                },
                {
                    "name": "F#4",
                    "midi": 66,
                    "time": 152.5223040000001,
                    "velocity": 0.41732283464566927,
                    "duration": 0.5934720000000198
                },
                {
                    "name": "B4",
                    "midi": 71,
                    "time": 152.5223040000001,
                    "velocity": 0.49606299212598426,
                    "duration": 0.2967360000000099
                },
                {
                    "name": "D#5",
                    "midi": 75,
                    "time": 152.81904000000011,
                    "velocity": 0.41732283464566927,
                    "duration": 0.2967360000000099
                },
                {
                    "name": "B4",
                    "midi": 71,
                    "time": 153.11577600000012,
                    "velocity": 0.49606299212598426,
                    "duration": 0.2967360000000099
                },
                {
                    "name": "F#4",
                    "midi": 66,
                    "time": 153.11577600000012,
                    "velocity": 0.4094488188976378,
                    "duration": 0.5934720000000198
                },
                {
                    "name": "D#5",
                    "midi": 75,
                    "time": 153.41251200000013,
                    "velocity": 0.41732283464566927,
                    "duration": 0.2967360000000099
                },
                {
                    "name": "E5",
                    "midi": 76,
                    "time": 153.70924800000014,
                    "velocity": 0.5118110236220472,
                    "duration": 1.780415999999974
                },
                {
                    "name": "B4",
                    "midi": 71,
                    "time": 154.30272000000014,
                    "velocity": 0.3700787401574803,
                    "duration": 0.14836800000000494
                },
                {
                    "name": "G#4",
                    "midi": 68,
                    "time": 154.30272000000014,
                    "velocity": 0.3700787401574803,
                    "duration": 0.14836800000000494
                },
                {
                    "name": "G#4",
                    "midi": 68,
                    "time": 154.89619200000013,
                    "velocity": 0.3543307086614173,
                    "duration": 0.14836800000000494
                },
                {
                    "name": "B4",
                    "midi": 71,
                    "time": 154.89619200000013,
                    "velocity": 0.3543307086614173,
                    "duration": 0.14836800000000494
                },
                {
                    "name": "D#4",
                    "midi": 63,
                    "time": 156.0831360000001,
                    "velocity": 0.30708661417322836,
                    "duration": 0.2967360000000099
                },
                {
                    "name": "B3",
                    "midi": 59,
                    "time": 156.0831360000001,
                    "velocity": 0.23622047244094488,
                    "duration": 0.5934720000000198
                },
                {
                    "name": "F#4",
                    "midi": 66,
                    "time": 156.37987200000012,
                    "velocity": 0.25196850393700787,
                    "duration": 0.2967360000000099
                },
                {
                    "name": "B3",
                    "midi": 59,
                    "time": 156.67660800000013,
                    "velocity": 0.2283464566929134,
                    "duration": 0.5934720000000198
                },
                {
                    "name": "D#4",
                    "midi": 63,
                    "time": 156.67660800000013,
                    "velocity": 0.29133858267716534,
                    "duration": 0.2967360000000099
                },
                {
                    "name": "F#4",
                    "midi": 66,
                    "time": 156.97334400000014,
                    "velocity": 0.2204724409448819,
                    "duration": 0.2967360000000099
                },
                {
                    "name": "G#4",
                    "midi": 68,
                    "time": 157.27008000000015,
                    "velocity": 0.3858267716535433,
                    "duration": 0.2967360000000099
                },
                {
                    "name": "E4",
                    "midi": 64,
                    "time": 157.56681600000016,
                    "velocity": 0.2204724409448819,
                    "duration": 0.2967360000000099
                },
                {
                    "name": "G#3",
                    "midi": 56,
                    "time": 157.86355200000017,
                    "velocity": 0.25196850393700787,
                    "duration": 0.5934720000000198
                },
                {
                    "name": "G#4",
                    "midi": 68,
                    "time": 157.86355200000017,
                    "velocity": 0.3228346456692913,
                    "duration": 0.2967360000000099
                },
                {
                    "name": "E4",
                    "midi": 64,
                    "time": 158.16028800000018,
                    "velocity": 0.2204724409448819,
                    "duration": 0.2967360000000099
                },
                {
                    "name": "G#3",
                    "midi": 56,
                    "time": 158.4570240000002,
                    "velocity": 0.25196850393700787,
                    "duration": 0.14836800000000494
                },
                {
                    "name": "C#4",
                    "midi": 61,
                    "time": 158.4570240000002,
                    "velocity": 0.3228346456692913,
                    "duration": 0.14836800000000494
                },
                {
                    "name": "C#4",
                    "midi": 61,
                    "time": 159.6439680000002,
                    "velocity": 0.30708661417322836,
                    "duration": 0.2967360000000099
                },
                {
                    "name": "G#3",
                    "midi": 56,
                    "time": 159.6439680000002,
                    "velocity": 0.23622047244094488,
                    "duration": 0.5934720000000198
                },
                {
                    "name": "E4",
                    "midi": 64,
                    "time": 159.9407040000002,
                    "velocity": 0.25196850393700787,
                    "duration": 0.2967360000000099
                },
                {
                    "name": "G#3",
                    "midi": 56,
                    "time": 160.23744000000022,
                    "velocity": 0.2283464566929134,
                    "duration": 0.5934720000000198
                },
                {
                    "name": "C#4",
                    "midi": 61,
                    "time": 160.23744000000022,
                    "velocity": 0.29133858267716534,
                    "duration": 0.2967360000000099
                },
                {
                    "name": "E4",
                    "midi": 64,
                    "time": 160.53417600000023,
                    "velocity": 0.2204724409448819,
                    "duration": 0.2967360000000099
                },
                {
                    "name": "F#4",
                    "midi": 66,
                    "time": 160.83091200000024,
                    "velocity": 0.3779527559055118,
                    "duration": 1.780415999999974
                },
                {
                    "name": "A#3",
                    "midi": 58,
                    "time": 161.42438400000023,
                    "velocity": 0.23622047244094488,
                    "duration": 0.14836800000000494
                },
                {
                    "name": "D#4",
                    "midi": 63,
                    "time": 161.42438400000023,
                    "velocity": 0.23622047244094488,
                    "duration": 0.14836800000000494
                },
                {
                    "name": "A#3",
                    "midi": 58,
                    "time": 162.01785600000022,
                    "velocity": 0.23622047244094488,
                    "duration": 0.14836800000000494
                },
                {
                    "name": "D#4",
                    "midi": 63,
                    "time": 162.01785600000022,
                    "velocity": 0.23622047244094488,
                    "duration": 0.14836800000000494
                },
                {
                    "name": "B3",
                    "midi": 59,
                    "time": 163.2048000000002,
                    "velocity": 0.30708661417322836,
                    "duration": 0.2967360000000099
                },
                {
                    "name": "A#3",
                    "midi": 58,
                    "time": 163.2048000000002,
                    "velocity": 0.23622047244094488,
                    "duration": 0.5934720000000198
                },
                {
                    "name": "D#4",
                    "midi": 63,
                    "time": 163.50153600000021,
                    "velocity": 0.25196850393700787,
                    "duration": 0.2967360000000099
                },
                {
                    "name": "A#3",
                    "midi": 58,
                    "time": 163.79827200000022,
                    "velocity": 0.2283464566929134,
                    "duration": 0.5934720000000198
                },
                {
                    "name": "B3",
                    "midi": 59,
                    "time": 163.79827200000022,
                    "velocity": 0.29133858267716534,
                    "duration": 0.2967360000000099
                },
                {
                    "name": "D#4",
                    "midi": 63,
                    "time": 164.09500800000023,
                    "velocity": 0.2204724409448819,
                    "duration": 0.2967360000000099
                },
                {
                    "name": "E4",
                    "midi": 64,
                    "time": 164.39174400000024,
                    "velocity": 0.3858267716535433,
                    "duration": 0.2967360000000099
                },
                {
                    "name": "C#4",
                    "midi": 61,
                    "time": 164.68848000000025,
                    "velocity": 0.2204724409448819,
                    "duration": 0.2967360000000099
                },
                {
                    "name": "E3",
                    "midi": 52,
                    "time": 164.98521600000026,
                    "velocity": 0.25196850393700787,
                    "duration": 0.5934720000000198
                },
                {
                    "name": "E4",
                    "midi": 64,
                    "time": 164.98521600000026,
                    "velocity": 0.3228346456692913,
                    "duration": 0.2967360000000099
                },
                {
                    "name": "C#4",
                    "midi": 61,
                    "time": 165.28195200000027,
                    "velocity": 0.2204724409448819,
                    "duration": 0.2967360000000099
                },
                {
                    "name": "E3",
                    "midi": 52,
                    "time": 165.57868800000028,
                    "velocity": 0.25196850393700787,
                    "duration": 0.14836800000000494
                },
                {
                    "name": "G#3",
                    "midi": 56,
                    "time": 165.57868800000028,
                    "velocity": 0.3228346456692913,
                    "duration": 0.14836800000000494
                },
                {
                    "name": "F#3",
                    "midi": 54,
                    "time": 166.7656320000003,
                    "velocity": 0.30708661417322836,
                    "duration": 0.2967360000000099
                },
                {
                    "name": "C#3",
                    "midi": 49,
                    "time": 166.7656320000003,
                    "velocity": 0.23622047244094488,
                    "duration": 0.5934720000000198
                },
                {
                    "name": "A#3",
                    "midi": 58,
                    "time": 167.0623680000003,
                    "velocity": 0.25196850393700787,
                    "duration": 0.2967360000000099
                },
                {
                    "name": "C#3",
                    "midi": 49,
                    "time": 167.35910400000031,
                    "velocity": 0.2283464566929134,
                    "duration": 0.5934720000000198
                },
                {
                    "name": "F#3",
                    "midi": 54,
                    "time": 167.35910400000031,
                    "velocity": 0.29133858267716534,
                    "duration": 0.2967360000000099
                },
                {
                    "name": "A#3",
                    "midi": 58,
                    "time": 167.65584000000032,
                    "velocity": 0.2204724409448819,
                    "duration": 0.2967360000000099
                },
                {
                    "name": "B3",
                    "midi": 59,
                    "time": 167.95257600000033,
                    "velocity": 0.3779527559055118,
                    "duration": 1.780415999999974
                },
                {
                    "name": "D#3",
                    "midi": 51,
                    "time": 168.54604800000033,
                    "velocity": 0.23622047244094488,
                    "duration": 0.14836800000000494
                },
                {
                    "name": "F#3",
                    "midi": 54,
                    "time": 168.54604800000033,
                    "velocity": 0.23622047244094488,
                    "duration": 0.14836800000000494
                },
                {
                    "name": "D#3",
                    "midi": 51,
                    "time": 169.13952000000032,
                    "velocity": 0.23622047244094488,
                    "duration": 0.14836800000000494
                },
                {
                    "name": "F#3",
                    "midi": 54,
                    "time": 169.13952000000032,
                    "velocity": 0.23622047244094488,
                    "duration": 0.14836800000000494
                },
                {
                    "name": "F#5",
                    "midi": 78,
                    "time": 170.3264640000003,
                    "velocity": 0.23622047244094488,
                    "duration": 0.2967360000000099
                },
                {
                    "name": "D#5",
                    "midi": 75,
                    "time": 170.3264640000003,
                    "velocity": 0.23622047244094488,
                    "duration": 0.5934720000000198
                },
                {
                    "name": "A#5",
                    "midi": 82,
                    "time": 170.6232000000003,
                    "velocity": 0.1968503937007874,
                    "duration": 0.2967360000000099
                },
                {
                    "name": "D#5",
                    "midi": 75,
                    "time": 170.91993600000032,
                    "velocity": 0.2283464566929134,
                    "duration": 0.5934720000000198
                },
                {
                    "name": "F#5",
                    "midi": 78,
                    "time": 170.91993600000032,
                    "velocity": 0.2283464566929134,
                    "duration": 0.2967360000000099
                },
                {
                    "name": "A#5",
                    "midi": 82,
                    "time": 171.21667200000033,
                    "velocity": 0.1732283464566929,
                    "duration": 0.2967360000000099
                },
                {
                    "name": "C6",
                    "midi": 84,
                    "time": 171.51340800000034,
                    "velocity": 0.2992125984251969,
                    "duration": 0.2967360000000099
                },
                {
                    "name": "G#5",
                    "midi": 80,
                    "time": 171.81014400000035,
                    "velocity": 0.1732283464566929,
                    "duration": 0.2967360000000099
                },
                {
                    "name": "C5",
                    "midi": 72,
                    "time": 172.10688000000036,
                    "velocity": 0.25196850393700787,
                    "duration": 0.5934720000000198
                },
                {
                    "name": "C6",
                    "midi": 84,
                    "time": 172.10688000000036,
                    "velocity": 0.25196850393700787,
                    "duration": 0.2967360000000099
                },
                {
                    "name": "G#5",
                    "midi": 80,
                    "time": 172.40361600000037,
                    "velocity": 0.1732283464566929,
                    "duration": 0.2967360000000099
                },
                {
                    "name": "C5",
                    "midi": 72,
                    "time": 172.70035200000038,
                    "velocity": 0.25196850393700787,
                    "duration": 0.14836800000000494
                },
                {
                    "name": "D#5",
                    "midi": 75,
                    "time": 172.70035200000038,
                    "velocity": 0.25196850393700787,
                    "duration": 0.14836800000000494
                },
                {
                    "name": "F#5",
                    "midi": 78,
                    "time": 173.8872960000004,
                    "velocity": 0.23622047244094488,
                    "duration": 0.2967360000000099
                },
                {
                    "name": "D#5",
                    "midi": 75,
                    "time": 173.8872960000004,
                    "velocity": 0.23622047244094488,
                    "duration": 0.5934720000000198
                },
                {
                    "name": "A#5",
                    "midi": 82,
                    "time": 174.1840320000004,
                    "velocity": 0.1968503937007874,
                    "duration": 0.2967360000000099
                },
                {
                    "name": "D#5",
                    "midi": 75,
                    "time": 174.4807680000004,
                    "velocity": 0.2283464566929134,
                    "duration": 0.5934720000000198
                },
                {
                    "name": "F#5",
                    "midi": 78,
                    "time": 174.4807680000004,
                    "velocity": 0.2283464566929134,
                    "duration": 0.2967360000000099
                },
                {
                    "name": "A#5",
                    "midi": 82,
                    "time": 174.77750400000042,
                    "velocity": 0.1732283464566929,
                    "duration": 0.2967360000000099
                },
                {
                    "name": "F5",
                    "midi": 77,
                    "time": 175.07424000000043,
                    "velocity": 0.29133858267716534,
                    "duration": 1.780415999999974
                },
                {
                    "name": "A#4",
                    "midi": 70,
                    "time": 175.66771200000042,
                    "velocity": 0.23622047244094488,
                    "duration": 0.14836800000000494
                },
                {
                    "name": "D5",
                    "midi": 74,
                    "time": 175.66771200000042,
                    "velocity": 0.23622047244094488,
                    "duration": 0.14836800000000494
                },
                {
                    "name": "A#4",
                    "midi": 70,
                    "time": 176.2611840000004,
                    "velocity": 0.23622047244094488,
                    "duration": 0.14836800000000494
                },
                {
                    "name": "D5",
                    "midi": 74,
                    "time": 176.2611840000004,
                    "velocity": 0.23622047244094488,
                    "duration": 0.14836800000000494
                },
                {
                    "name": "C#6",
                    "midi": 85,
                    "time": 177.4481280000004,
                    "velocity": 0.25984251968503935,
                    "duration": 0.2967360000000099
                },
                {
                    "name": "A#5",
                    "midi": 82,
                    "time": 177.4481280000004,
                    "velocity": 0.25984251968503935,
                    "duration": 0.5934720000000198
                },
                {
                    "name": "F6",
                    "midi": 89,
                    "time": 177.7448640000004,
                    "velocity": 0.2125984251968504,
                    "duration": 0.2967360000000099
                },
                {
                    "name": "A#5",
                    "midi": 82,
                    "time": 178.04160000000041,
                    "velocity": 0.2440944881889764,
                    "duration": 0.5934720000000198
                },
                {
                    "name": "C#6",
                    "midi": 85,
                    "time": 178.04160000000041,
                    "velocity": 0.2440944881889764,
                    "duration": 0.2967360000000099
                },
                {
                    "name": "F6",
                    "midi": 89,
                    "time": 178.33833600000042,
                    "velocity": 0.1889763779527559,
                    "duration": 0.2967360000000099
                },
                {
                    "name": "G6",
                    "midi": 91,
                    "time": 178.63507200000043,
                    "velocity": 0.3464566929133858,
                    "duration": 0.2967360000000099
                },
                {
                    "name": "D#6",
                    "midi": 87,
                    "time": 178.93180800000044,
                    "velocity": 0.1889763779527559,
                    "duration": 0.2967360000000099
                },
                {
                    "name": "G5",
                    "midi": 79,
                    "time": 179.22854400000045,
                    "velocity": 0.2755905511811024,
                    "duration": 0.5934720000000198
                },
                {
                    "name": "G6",
                    "midi": 91,
                    "time": 179.22854400000045,
                    "velocity": 0.2755905511811024,
                    "duration": 0.2967360000000099
                },
                {
                    "name": "D#6",
                    "midi": 87,
                    "time": 179.52528000000046,
                    "velocity": 0.1889763779527559,
                    "duration": 0.2967360000000099
                },
                {
                    "name": "G5",
                    "midi": 79,
                    "time": 179.82201600000047,
                    "velocity": 0.2755905511811024,
                    "duration": 0.14836800000000494
                },
                {
                    "name": "A#5",
                    "midi": 82,
                    "time": 179.82201600000047,
                    "velocity": 0.2755905511811024,
                    "duration": 0.14836800000000494
                },
                {
                    "name": "C#6",
                    "midi": 85,
                    "time": 181.00896000000049,
                    "velocity": 0.25984251968503935,
                    "duration": 0.2967360000000099
                },
                {
                    "name": "A#5",
                    "midi": 82,
                    "time": 181.00896000000049,
                    "velocity": 0.25984251968503935,
                    "duration": 0.5934720000000198
                },
                {
                    "name": "F6",
                    "midi": 89,
                    "time": 181.3056960000005,
                    "velocity": 0.2125984251968504,
                    "duration": 0.2967360000000099
                },
                {
                    "name": "A#5",
                    "midi": 82,
                    "time": 181.6024320000005,
                    "velocity": 0.2440944881889764,
                    "duration": 0.5934720000000198
                },
                {
                    "name": "C#6",
                    "midi": 85,
                    "time": 181.6024320000005,
                    "velocity": 0.2440944881889764,
                    "duration": 0.2967360000000099
                },
                {
                    "name": "F6",
                    "midi": 89,
                    "time": 181.89916800000051,
                    "velocity": 0.1889763779527559,
                    "duration": 0.2967360000000099
                },
                {
                    "name": "C6",
                    "midi": 84,
                    "time": 182.19590400000052,
                    "velocity": 0.31496062992125984,
                    "duration": 1.780415999999974
                },
                {
                    "name": "F5",
                    "midi": 77,
                    "time": 182.78937600000052,
                    "velocity": 0.25984251968503935,
                    "duration": 0.14836800000000494
                },
                {
                    "name": "A5",
                    "midi": 81,
                    "time": 182.78937600000052,
                    "velocity": 0.25984251968503935,
                    "duration": 0.14836800000000494
                },
                {
                    "name": "F5",
                    "midi": 77,
                    "time": 183.3828480000005,
                    "velocity": 0.25984251968503935,
                    "duration": 0.14836800000000494
                },
                {
                    "name": "A5",
                    "midi": 81,
                    "time": 183.3828480000005,
                    "velocity": 0.25984251968503935,
                    "duration": 0.14836800000000494
                },
                {
                    "name": "G#4",
                    "midi": 68,
                    "time": 184.5697920000005,
                    "velocity": 0.23622047244094488,
                    "duration": 0.2967360000000099
                },
                {
                    "name": "F4",
                    "midi": 65,
                    "time": 184.5697920000005,
                    "velocity": 0.23622047244094488,
                    "duration": 0.5934720000000198
                },
                {
                    "name": "C5",
                    "midi": 72,
                    "time": 184.8665280000005,
                    "velocity": 0.1968503937007874,
                    "duration": 0.2967360000000099
                },
                {
                    "name": "F4",
                    "midi": 65,
                    "time": 185.1632640000005,
                    "velocity": 0.2283464566929134,
                    "duration": 0.5934720000000198
                },
                {
                    "name": "G#4",
                    "midi": 68,
                    "time": 185.1632640000005,
                    "velocity": 0.2283464566929134,
                    "duration": 0.2967360000000099
                },
                {
                    "name": "C5",
                    "midi": 72,
                    "time": 185.46000000000052,
                    "velocity": 0.1732283464566929,
                    "duration": 0.2967360000000099
                },
                {
                    "name": "D5",
                    "midi": 74,
                    "time": 185.75673600000053,
                    "velocity": 0.2992125984251969,
                    "duration": 0.2967360000000099
                },
                {
                    "name": "A#4",
                    "midi": 70,
                    "time": 186.05347200000054,
                    "velocity": 0.1732283464566929,
                    "duration": 0.2967360000000099
                },
                {
                    "name": "D4",
                    "midi": 62,
                    "time": 186.35020800000055,
                    "velocity": 0.25196850393700787,
                    "duration": 0.5934720000000198
                },
                {
                    "name": "D5",
                    "midi": 74,
                    "time": 186.35020800000055,
                    "velocity": 0.25196850393700787,
                    "duration": 0.2967360000000099
                },
                {
                    "name": "A#4",
                    "midi": 70,
                    "time": 186.64694400000056,
                    "velocity": 0.1732283464566929,
                    "duration": 0.2967360000000099
                },
                {
                    "name": "D4",
                    "midi": 62,
                    "time": 186.94368000000057,
                    "velocity": 0.25196850393700787,
                    "duration": 0.14836800000000494
                },
                {
                    "name": "F4",
                    "midi": 65,
                    "time": 186.94368000000057,
                    "velocity": 0.25196850393700787,
                    "duration": 0.14836800000000494
                },
                {
                    "name": "G#4",
                    "midi": 68,
                    "time": 188.13062400000058,
                    "velocity": 0.23622047244094488,
                    "duration": 0.2967360000000099
                },
                {
                    "name": "F4",
                    "midi": 65,
                    "time": 188.13062400000058,
                    "velocity": 0.23622047244094488,
                    "duration": 0.5934720000000198
                },
                {
                    "name": "C5",
                    "midi": 72,
                    "time": 188.4273600000006,
                    "velocity": 0.1968503937007874,
                    "duration": 0.2967360000000099
                },
                {
                    "name": "F4",
                    "midi": 65,
                    "time": 188.7240960000006,
                    "velocity": 0.2283464566929134,
                    "duration": 0.5934720000000198
                },
                {
                    "name": "G#4",
                    "midi": 68,
                    "time": 188.7240960000006,
                    "velocity": 0.2283464566929134,
                    "duration": 0.2967360000000099
                },
                {
                    "name": "C5",
                    "midi": 72,
                    "time": 189.0208320000006,
                    "velocity": 0.1732283464566929,
                    "duration": 0.2967360000000099
                },
                {
                    "name": "G4",
                    "midi": 67,
                    "time": 189.31756800000062,
                    "velocity": 0.29133858267716534,
                    "duration": 1.780415999999974
                },
                {
                    "name": "C4",
                    "midi": 60,
                    "time": 189.9110400000006,
                    "velocity": 0.23622047244094488,
                    "duration": 0.14836800000000494
                },
                {
                    "name": "E4",
                    "midi": 64,
                    "time": 189.9110400000006,
                    "velocity": 0.23622047244094488,
                    "duration": 0.14836800000000494
                },
                {
                    "name": "C4",
                    "midi": 60,
                    "time": 190.5045120000006,
                    "velocity": 0.23622047244094488,
                    "duration": 0.14836800000000494
                },
                {
                    "name": "E4",
                    "midi": 64,
                    "time": 190.5045120000006,
                    "velocity": 0.23622047244094488,
                    "duration": 0.14836800000000494
                },
                {
                    "name": "D#5",
                    "midi": 75,
                    "time": 191.69145600000058,
                    "velocity": 0.3228346456692913,
                    "duration": 0.2967360000000099
                },
                {
                    "name": "C5",
                    "midi": 72,
                    "time": 191.69145600000058,
                    "velocity": 0.3228346456692913,
                    "duration": 0.5934720000000198
                },
                {
                    "name": "G5",
                    "midi": 79,
                    "time": 191.9881920000006,
                    "velocity": 0.2755905511811024,
                    "duration": 0.2967360000000099
                },
                {
                    "name": "C5",
                    "midi": 72,
                    "time": 192.2849280000006,
                    "velocity": 0.31496062992125984,
                    "duration": 0.5934720000000198
                },
                {
                    "name": "D#5",
                    "midi": 75,
                    "time": 192.2849280000006,
                    "velocity": 0.31496062992125984,
                    "duration": 0.2967360000000099
                },
                {
                    "name": "G5",
                    "midi": 79,
                    "time": 192.58166400000061,
                    "velocity": 0.2440944881889764,
                    "duration": 0.2967360000000099
                },
                {
                    "name": "A5",
                    "midi": 81,
                    "time": 192.87840000000062,
                    "velocity": 0.4645669291338583,
                    "duration": 0.2967360000000099
                },
                {
                    "name": "F5",
                    "midi": 77,
                    "time": 193.17513600000063,
                    "velocity": 0.25196850393700787,
                    "duration": 0.2967360000000099
                },
                {
                    "name": "A4",
                    "midi": 69,
                    "time": 193.47187200000064,
                    "velocity": 0.3779527559055118,
                    "duration": 0.5934720000000198
                },
                {
                    "name": "A5",
                    "midi": 81,
                    "time": 193.47187200000064,
                    "velocity": 0.3779527559055118,
                    "duration": 0.2967360000000099
                },
                {
                    "name": "F5",
                    "midi": 77,
                    "time": 193.76860800000065,
                    "velocity": 0.25984251968503935,
                    "duration": 0.2967360000000099
                },
                {
                    "name": "A4",
                    "midi": 69,
                    "time": 194.06534400000066,
                    "velocity": 0.3858267716535433,
                    "duration": 0.14836800000000494
                },
                {
                    "name": "C5",
                    "midi": 72,
                    "time": 194.06534400000066,
                    "velocity": 0.3858267716535433,
                    "duration": 0.14836800000000494
                },
                {
                    "name": "D#6",
                    "midi": 87,
                    "time": 195.25228800000068,
                    "velocity": 0.41732283464566927,
                    "duration": 0.2967360000000099
                },
                {
                    "name": "C6",
                    "midi": 84,
                    "time": 195.25228800000068,
                    "velocity": 0.41732283464566927,
                    "duration": 0.5934720000000198
                },
                {
                    "name": "G6",
                    "midi": 91,
                    "time": 195.54902400000068,
                    "velocity": 0.33858267716535434,
                    "duration": 0.2967360000000099
                },
                {
                    "name": "C6",
                    "midi": 84,
                    "time": 195.8457600000007,
                    "velocity": 0.4015748031496063,
                    "duration": 0.5934720000000198
                },
                {
                    "name": "D#6",
                    "midi": 87,
                    "time": 195.8457600000007,
                    "velocity": 0.4015748031496063,
                    "duration": 0.2967360000000099
                },
                {
                    "name": "G6",
                    "midi": 91,
                    "time": 196.1424960000007,
                    "velocity": 0.2992125984251969,
                    "duration": 0.2967360000000099
                },
                {
                    "name": "A6",
                    "midi": 93,
                    "time": 196.43923200000071,
                    "velocity": 0.5826771653543307,
                    "duration": 0.2967360000000099
                },
                {
                    "name": "F6",
                    "midi": 89,
                    "time": 196.73596800000072,
                    "velocity": 0.30708661417322836,
                    "duration": 0.2967360000000099
                },
                {
                    "name": "A5",
                    "midi": 81,
                    "time": 197.03270400000073,
                    "velocity": 0.4645669291338583,
                    "duration": 0.5934720000000198
                },
                {
                    "name": "A6",
                    "midi": 93,
                    "time": 197.03270400000073,
                    "velocity": 0.4645669291338583,
                    "duration": 0.2967360000000099
                },
                {
                    "name": "F6",
                    "midi": 89,
                    "time": 197.32944000000074,
                    "velocity": 0.31496062992125984,
                    "duration": 0.2967360000000099
                },
                {
                    "name": "A5",
                    "midi": 81,
                    "time": 197.62617600000075,
                    "velocity": 0.48031496062992124,
                    "duration": 0.14836800000000494
                },
                {
                    "name": "C6",
                    "midi": 84,
                    "time": 197.62617600000075,
                    "velocity": 0.48031496062992124,
                    "duration": 0.14836800000000494
                },
                {
                    "name": "D#5",
                    "midi": 75,
                    "time": 198.21964800000075,
                    "velocity": 0.49606299212598426,
                    "duration": 0.2967360000000099
                },
                {
                    "name": "C5",
                    "midi": 72,
                    "time": 198.21964800000075,
                    "velocity": 0.41732283464566927,
                    "duration": 0.5934720000000198
                },
                {
                    "name": "G5",
                    "midi": 79,
                    "time": 198.51638400000076,
                    "velocity": 0.5511811023622047,
                    "duration": 0.2967360000000099
                },
                {
                    "name": "C5",
                    "midi": 72,
                    "time": 198.81312000000077,
                    "velocity": 0.47244094488188976,
                    "duration": 1.186944000000011
                },
                {
                    "name": "F5",
                    "midi": 77,
                    "time": 198.81312000000077,
                    "velocity": 0.5590551181102362,
                    "duration": 1.186944000000011
                },
                {
                    "name": "A5",
                    "midi": 81,
                    "time": 198.81312000000077,
                    "velocity": 0.5590551181102362,
                    "duration": 1.186944000000011
                },
                {
                    "name": "D#6",
                    "midi": 87,
                    "time": 200.00006400000078,
                    "velocity": 0.5669291338582677,
                    "duration": 0.2967360000000099
                },
                {
                    "name": "C6",
                    "midi": 84,
                    "time": 200.00006400000078,
                    "velocity": 0.48031496062992124,
                    "duration": 0.5934720000000198
                },
                {
                    "name": "G6",
                    "midi": 91,
                    "time": 200.2968000000008,
                    "velocity": 0.6299212598425197,
                    "duration": 0.2967360000000099
                },
                {
                    "name": "C6",
                    "midi": 84,
                    "time": 200.5935360000008,
                    "velocity": 0.5354330708661418,
                    "duration": 1.186944000000011
                },
                {
                    "name": "F6",
                    "midi": 89,
                    "time": 200.5935360000008,
                    "velocity": 0.6377952755905512,
                    "duration": 1.186944000000011
                },
                {
                    "name": "A6",
                    "midi": 93,
                    "time": 200.5935360000008,
                    "velocity": 0.6377952755905512,
                    "duration": 1.186944000000011
                },
                {
                    "name": "D#5",
                    "midi": 75,
                    "time": 201.7804800000008,
                    "velocity": 0.5511811023622047,
                    "duration": 0.2967360000000099
                },
                {
                    "name": "C5",
                    "midi": 72,
                    "time": 201.7804800000008,
                    "velocity": 0.4566929133858268,
                    "duration": 0.5934720000000198
                },
                {
                    "name": "G5",
                    "midi": 79,
                    "time": 202.07721600000082,
                    "velocity": 0.5984251968503937,
                    "duration": 0.2967360000000099
                },
                {
                    "name": "C5",
                    "midi": 72,
                    "time": 202.37395200000083,
                    "velocity": 0.5118110236220472,
                    "duration": 1.186944000000011
                },
                {
                    "name": "F5",
                    "midi": 77,
                    "time": 202.37395200000083,
                    "velocity": 0.6062992125984252,
                    "duration": 1.186944000000011
                },
                {
                    "name": "A5",
                    "midi": 81,
                    "time": 202.37395200000083,
                    "velocity": 0.6062992125984252,
                    "duration": 1.186944000000011
                },
                {
                    "name": "D#6",
                    "midi": 87,
                    "time": 203.56089600000084,
                    "velocity": 0.6141732283464567,
                    "duration": 0.2967360000000099
                },
                {
                    "name": "C6",
                    "midi": 84,
                    "time": 203.56089600000084,
                    "velocity": 0.5196850393700787,
                    "duration": 0.5934720000000198
                },
                {
                    "name": "G6",
                    "midi": 91,
                    "time": 203.85763200000085,
                    "velocity": 0.6850393700787402,
                    "duration": 0.2967360000000099
                },
                {
                    "name": "C6",
                    "midi": 84,
                    "time": 204.15436800000086,
                    "velocity": 0.5905511811023622,
                    "duration": 1.1758164000000022
                },
                {
                    "name": "F6",
                    "midi": 89,
                    "time": 204.15436800000086,
                    "velocity": 0.6929133858267716,
                    "duration": 1.1758164000000022
                },
                {
                    "name": "A6",
                    "midi": 93,
                    "time": 204.15436800000086,
                    "velocity": 0.6929133858267716,
                    "duration": 1.1758164000000022
                },
                {
                    "name": "C5",
                    "midi": 72,
                    "time": 205.34131200000087,
                    "velocity": 0.6692913385826772,
                    "duration": 1.1758164000000022
                },
                {
                    "name": "F5",
                    "midi": 77,
                    "time": 205.34131200000087,
                    "velocity": 0.6692913385826772,
                    "duration": 1.1758164000000022
                },
                {
                    "name": "A5",
                    "midi": 81,
                    "time": 205.34131200000087,
                    "velocity": 0.6692913385826772,
                    "duration": 1.1758164000000022
                },
                {
                    "name": "C6",
                    "midi": 84,
                    "time": 206.52825600000088,
                    "velocity": 0.6929133858267716,
                    "duration": 1.1758164000000022
                },
                {
                    "name": "F6",
                    "midi": 89,
                    "time": 206.52825600000088,
                    "velocity": 0.6929133858267716,
                    "duration": 1.1758164000000022
                },
                {
                    "name": "A6",
                    "midi": 93,
                    "time": 206.52825600000088,
                    "velocity": 0.6929133858267716,
                    "duration": 1.1758164000000022
                },
                {
                    "name": "C5",
                    "midi": 72,
                    "time": 207.7152000000009,
                    "velocity": 0.6692913385826772,
                    "duration": 1.1758164000000022
                },
                {
                    "name": "F5",
                    "midi": 77,
                    "time": 207.7152000000009,
                    "velocity": 0.6692913385826772,
                    "duration": 1.1758164000000022
                },
                {
                    "name": "A5",
                    "midi": 81,
                    "time": 207.7152000000009,
                    "velocity": 0.6692913385826772,
                    "duration": 1.1758164000000022
                },
                {
                    "name": "C6",
                    "midi": 84,
                    "time": 208.9021440000009,
                    "velocity": 0.6929133858267716,
                    "duration": 1.1758164000000022
                },
                {
                    "name": "F6",
                    "midi": 89,
                    "time": 208.9021440000009,
                    "velocity": 0.6929133858267716,
                    "duration": 1.1758164000000022
                },
                {
                    "name": "A6",
                    "midi": 93,
                    "time": 208.9021440000009,
                    "velocity": 0.6929133858267716,
                    "duration": 1.1758164000000022
                },
                {
                    "name": "C5",
                    "midi": 72,
                    "time": 210.0890880000009,
                    "velocity": 0.6692913385826772,
                    "duration": 1.1758164000000022
                },
                {
                    "name": "F5",
                    "midi": 77,
                    "time": 210.0890880000009,
                    "velocity": 0.6692913385826772,
                    "duration": 1.1758164000000022
                },
                {
                    "name": "A5",
                    "midi": 81,
                    "time": 210.0890880000009,
                    "velocity": 0.6692913385826772,
                    "duration": 1.1758164000000022
                },
                {
                    "name": "C6",
                    "midi": 84,
                    "time": 211.27603200000092,
                    "velocity": 0.6929133858267716,
                    "duration": 1.1758164000000022
                },
                {
                    "name": "F6",
                    "midi": 89,
                    "time": 211.27603200000092,
                    "velocity": 0.6929133858267716,
                    "duration": 1.1758164000000022
                },
                {
                    "name": "A6",
                    "midi": 93,
                    "time": 211.27603200000092,
                    "velocity": 0.6929133858267716,
                    "duration": 1.1758164000000022
                },
                {
                    "name": "B4",
                    "midi": 71,
                    "time": 212.46297600000094,
                    "velocity": 0.7244094488188977,
                    "duration": 1.1758164000000022
                },
                {
                    "name": "F#5",
                    "midi": 78,
                    "time": 212.46297600000094,
                    "velocity": 0.7244094488188977,
                    "duration": 1.1758164000000022
                },
                {
                    "name": "B5",
                    "midi": 83,
                    "time": 212.46297600000094,
                    "velocity": 0.7244094488188977,
                    "duration": 1.1758164000000022
                },
                {
                    "name": "B5",
                    "midi": 83,
                    "time": 213.64992000000095,
                    "velocity": 0.7637795275590551,
                    "duration": 1.1758164000000022
                },
                {
                    "name": "F#6",
                    "midi": 90,
                    "time": 213.64992000000095,
                    "velocity": 0.7637795275590551,
                    "duration": 1.1758164000000022
                },
                {
                    "name": "B6",
                    "midi": 95,
                    "time": 213.64992000000095,
                    "velocity": 0.7637795275590551,
                    "duration": 1.1758164000000022
                },
                {
                    "name": "B4",
                    "midi": 71,
                    "time": 214.83686400000096,
                    "velocity": 0.7244094488188977,
                    "duration": 1.1758164000000022
                },
                {
                    "name": "F#5",
                    "midi": 78,
                    "time": 214.83686400000096,
                    "velocity": 0.7244094488188977,
                    "duration": 1.1758164000000022
                },
                {
                    "name": "B5",
                    "midi": 83,
                    "time": 214.83686400000096,
                    "velocity": 0.7244094488188977,
                    "duration": 1.1758164000000022
                },
                {
                    "name": "B5",
                    "midi": 83,
                    "time": 216.02380800000097,
                    "velocity": 0.7637795275590551,
                    "duration": 1.1758164000000022
                },
                {
                    "name": "F#6",
                    "midi": 90,
                    "time": 216.02380800000097,
                    "velocity": 0.7637795275590551,
                    "duration": 1.1758164000000022
                },
                {
                    "name": "B6",
                    "midi": 95,
                    "time": 216.02380800000097,
                    "velocity": 0.7637795275590551,
                    "duration": 1.1758164000000022
                },
                {
                    "name": "B4",
                    "midi": 71,
                    "time": 217.21075200000098,
                    "velocity": 0.7244094488188977,
                    "duration": 1.1758164000000022
                },
                {
                    "name": "F#5",
                    "midi": 78,
                    "time": 217.21075200000098,
                    "velocity": 0.7244094488188977,
                    "duration": 1.1758164000000022
                },
                {
                    "name": "B5",
                    "midi": 83,
                    "time": 217.21075200000098,
                    "velocity": 0.7244094488188977,
                    "duration": 1.1758164000000022
                },
                {
                    "name": "B5",
                    "midi": 83,
                    "time": 218.397696000001,
                    "velocity": 0.7637795275590551,
                    "duration": 1.1758164000000022
                },
                {
                    "name": "F#6",
                    "midi": 90,
                    "time": 218.397696000001,
                    "velocity": 0.7637795275590551,
                    "duration": 1.1758164000000022
                },
                {
                    "name": "B6",
                    "midi": 95,
                    "time": 218.397696000001,
                    "velocity": 0.7637795275590551,
                    "duration": 1.1758164000000022
                },
                {
                    "name": "E5",
                    "midi": 76,
                    "time": 220.178112000001,
                    "velocity": 0.5984251968503937,
                    "duration": 0.5934720000000198
                },
                {
                    "name": "G#5",
                    "midi": 80,
                    "time": 220.178112000001,
                    "velocity": 0.7244094488188977,
                    "duration": 0.2967360000000099
                },
                {
                    "name": "B5",
                    "midi": 83,
                    "time": 220.474848000001,
                    "velocity": 0.5984251968503937,
                    "duration": 0.2967360000000099
                },
                {
                    "name": "G#5",
                    "midi": 80,
                    "time": 220.771584000001,
                    "velocity": 0.7086614173228346,
                    "duration": 0.2967360000000099
                },
                {
                    "name": "E5",
                    "midi": 76,
                    "time": 220.771584000001,
                    "velocity": 0.5905511811023622,
                    "duration": 0.5934720000000198
                },
                {
                    "name": "B5",
                    "midi": 83,
                    "time": 221.06832000000102,
                    "velocity": 0.5984251968503937,
                    "duration": 0.2967360000000099
                },
                {
                    "name": "C#6",
                    "midi": 85,
                    "time": 221.36505600000103,
                    "velocity": 0.7244094488188977,
                    "duration": 0.2967360000000099
                },
                {
                    "name": "A5",
                    "midi": 81,
                    "time": 221.66179200000104,
                    "velocity": 0.6062992125984252,
                    "duration": 0.2967360000000099
                },
                {
                    "name": "C#5",
                    "midi": 73,
                    "time": 221.95852800000105,
                    "velocity": 0.4330708661417323,
                    "duration": 0.5934720000000198
                },
                {
                    "name": "C#6",
                    "midi": 85,
                    "time": 221.95852800000105,
                    "velocity": 0.5905511811023622,
                    "duration": 0.2967360000000099
                },
                {
                    "name": "A5",
                    "midi": 81,
                    "time": 222.25526400000106,
                    "velocity": 0.5669291338582677,
                    "duration": 0.2967360000000099
                },
                {
                    "name": "C#5",
                    "midi": 73,
                    "time": 222.55200000000107,
                    "velocity": 0.5590551181102362,
                    "duration": 0.14836800000000494
                },
                {
                    "name": "F#5",
                    "midi": 78,
                    "time": 222.55200000000107,
                    "velocity": 0.6299212598425197,
                    "duration": 0.14836800000000494
                },
                {
                    "name": "F#5",
                    "midi": 78,
                    "time": 223.73894400000108,
                    "velocity": 0.6850393700787402,
                    "duration": 0.2967360000000099
                },
                {
                    "name": "C#5",
                    "midi": 73,
                    "time": 223.73894400000108,
                    "velocity": 0.6850393700787402,
                    "duration": 0.5934720000000198
                },
                {
                    "name": "A5",
                    "midi": 81,
                    "time": 224.0356800000011,
                    "velocity": 0.5984251968503937,
                    "duration": 0.2967360000000099
                },
                {
                    "name": "C#5",
                    "midi": 73,
                    "time": 224.3324160000011,
                    "velocity": 0.6771653543307087,
                    "duration": 0.5934720000000198
                },
                {
                    "name": "F#5",
                    "midi": 78,
                    "time": 224.3324160000011,
                    "velocity": 0.6771653543307087,
                    "duration": 0.2967360000000099
                },
                {
                    "name": "A5",
                    "midi": 81,
                    "time": 224.6291520000011,
                    "velocity": 0.5905511811023622,
                    "duration": 0.2967360000000099
                },
                {
                    "name": "B5",
                    "midi": 83,
                    "time": 224.92588800000112,
                    "velocity": 0.6929133858267716,
                    "duration": 1.780415999999974
                },
                {
                    "name": "G#5",
                    "midi": 80,
                    "time": 225.51936000000111,
                    "velocity": 0.5669291338582677,
                    "duration": 0.14836800000000494
                },
                {
                    "name": "D#5",
                    "midi": 75,
                    "time": 225.51936000000111,
                    "velocity": 0.5669291338582677,
                    "duration": 0.14836800000000494
                },
                {
                    "name": "D#5",
                    "midi": 75,
                    "time": 226.1128320000011,
                    "velocity": 0.5669291338582677,
                    "duration": 0.14836800000000494
                },
                {
                    "name": "G#5",
                    "midi": 80,
                    "time": 226.1128320000011,
                    "velocity": 0.5669291338582677,
                    "duration": 0.14836800000000494
                },
                {
                    "name": "E5",
                    "midi": 76,
                    "time": 227.2997760000011,
                    "velocity": 0.5905511811023622,
                    "duration": 0.2967360000000099
                },
                {
                    "name": "D#5",
                    "midi": 75,
                    "time": 227.2997760000011,
                    "velocity": 0.5905511811023622,
                    "duration": 0.5934720000000198
                },
                {
                    "name": "G#5",
                    "midi": 80,
                    "time": 227.5965120000011,
                    "velocity": 0.49606299212598426,
                    "duration": 0.2967360000000099
                },
                {
                    "name": "D#5",
                    "midi": 75,
                    "time": 227.8932480000011,
                    "velocity": 0.5826771653543307,
                    "duration": 0.5934720000000198
                },
                {
                    "name": "E5",
                    "midi": 76,
                    "time": 227.8932480000011,
                    "velocity": 0.5826771653543307,
                    "duration": 0.2967360000000099
                },
                {
                    "name": "G#5",
                    "midi": 80,
                    "time": 228.18998400000112,
                    "velocity": 0.49606299212598426,
                    "duration": 0.2967360000000099
                },
                {
                    "name": "A5",
                    "midi": 81,
                    "time": 228.48672000000113,
                    "velocity": 0.5748031496062992,
                    "duration": 0.2967360000000099
                },
                {
                    "name": "F#5",
                    "midi": 78,
                    "time": 228.78345600000114,
                    "velocity": 0.49606299212598426,
                    "duration": 0.2967360000000099
                },
                {
                    "name": "A5",
                    "midi": 81,
                    "time": 229.08019200000115,
                    "velocity": 0.5039370078740157,
                    "duration": 0.2967360000000099
                },
                {
                    "name": "A4",
                    "midi": 69,
                    "time": 229.08019200000115,
                    "velocity": 0.4881889763779528,
                    "duration": 0.5934720000000198
                },
                {
                    "name": "F#5",
                    "midi": 78,
                    "time": 229.37692800000116,
                    "velocity": 0.4566929133858268,
                    "duration": 0.2967360000000099
                },
                {
                    "name": "A4",
                    "midi": 69,
                    "time": 229.67366400000117,
                    "velocity": 0.5118110236220472,
                    "duration": 0.14836800000000494
                },
                {
                    "name": "C#5",
                    "midi": 73,
                    "time": 229.67366400000117,
                    "velocity": 0.5118110236220472,
                    "duration": 0.14836800000000494
                },
                {
                    "name": "F#4",
                    "midi": 66,
                    "time": 230.86060800000118,
                    "velocity": 0.41732283464566927,
                    "duration": 0.5934720000000198
                },
                {
                    "name": "B4",
                    "midi": 71,
                    "time": 230.86060800000118,
                    "velocity": 0.49606299212598426,
                    "duration": 0.2967360000000099
                },
                {
                    "name": "D#5",
                    "midi": 75,
                    "time": 231.1573440000012,
                    "velocity": 0.41732283464566927,
                    "duration": 0.2967360000000099
                },
                {
                    "name": "B4",
                    "midi": 71,
                    "time": 231.4540800000012,
                    "velocity": 0.49606299212598426,
                    "duration": 0.2967360000000099
                },
                {
                    "name": "F#4",
                    "midi": 66,
                    "time": 231.4540800000012,
                    "velocity": 0.4094488188976378,
                    "duration": 0.5934720000000198
                },
                {
                    "name": "D#5",
                    "midi": 75,
                    "time": 231.7508160000012,
                    "velocity": 0.41732283464566927,
                    "duration": 0.2967360000000099
                },
                {
                    "name": "E5",
                    "midi": 76,
                    "time": 232.04755200000122,
                    "velocity": 0.5118110236220472,
                    "duration": 1.780415999999974
                },
                {
                    "name": "B4",
                    "midi": 71,
                    "time": 232.6410240000012,
                    "velocity": 0.3700787401574803,
                    "duration": 0.14836800000000494
                },
                {
                    "name": "G#4",
                    "midi": 68,
                    "time": 232.6410240000012,
                    "velocity": 0.3700787401574803,
                    "duration": 0.14836800000000494
                },
                {
                    "name": "G#4",
                    "midi": 68,
                    "time": 233.2344960000012,
                    "velocity": 0.3543307086614173,
                    "duration": 0.14836800000000494
                },
                {
                    "name": "B4",
                    "midi": 71,
                    "time": 233.2344960000012,
                    "velocity": 0.3543307086614173,
                    "duration": 0.14836800000000494
                },
                {
                    "name": "F#3",
                    "midi": 54,
                    "time": 236.2018560000012,
                    "velocity": 0.2440944881889764,
                    "duration": 0.5934720000000198
                },
                {
                    "name": "B3",
                    "midi": 59,
                    "time": 236.2018560000012,
                    "velocity": 0.29133858267716534,
                    "duration": 0.2967360000000099
                },
                {
                    "name": "D#4",
                    "midi": 63,
                    "time": 236.4985920000012,
                    "velocity": 0.2440944881889764,
                    "duration": 0.2967360000000099
                },
                {
                    "name": "B3",
                    "midi": 59,
                    "time": 236.7953280000012,
                    "velocity": 0.29133858267716534,
                    "duration": 0.2967360000000099
                },
                {
                    "name": "F#3",
                    "midi": 54,
                    "time": 236.7953280000012,
                    "velocity": 0.23622047244094488,
                    "duration": 0.5934720000000198
                },
                {
                    "name": "D#4",
                    "midi": 63,
                    "time": 237.09206400000122,
                    "velocity": 0.2440944881889764,
                    "duration": 0.2967360000000099
                },
                {
                    "name": "E4",
                    "midi": 64,
                    "time": 237.38880000000123,
                    "velocity": 0.2992125984251969,
                    "duration": 1.780415999999974
                },
                {
                    "name": "B3",
                    "midi": 59,
                    "time": 237.98227200000122,
                    "velocity": 0.2047244094488189,
                    "duration": 0.14836800000000494
                },
                {
                    "name": "G#3",
                    "midi": 56,
                    "time": 237.98227200000122,
                    "velocity": 0.2047244094488189,
                    "duration": 0.14836800000000494
                },
                {
                    "name": "G#3",
                    "midi": 56,
                    "time": 238.5757440000012,
                    "velocity": 0.1968503937007874,
                    "duration": 0.14836800000000494
                },
                {
                    "name": "B3",
                    "midi": 59,
                    "time": 238.5757440000012,
                    "velocity": 0.1968503937007874,
                    "duration": 0.14836800000000494
                },
                {
                    "name": "F#3",
                    "midi": 54,
                    "time": 241.5431040000012,
                    "velocity": 0.2047244094488189,
                    "duration": 0.5934720000000198
                },
                {
                    "name": "B3",
                    "midi": 59,
                    "time": 241.5431040000012,
                    "velocity": 0.2440944881889764,
                    "duration": 0.2967360000000099
                },
                {
                    "name": "D#4",
                    "midi": 63,
                    "time": 241.8398400000012,
                    "velocity": 0.2047244094488189,
                    "duration": 0.2967360000000099
                },
                {
                    "name": "B3",
                    "midi": 59,
                    "time": 242.1365760000012,
                    "velocity": 0.2440944881889764,
                    "duration": 0.2967360000000099
                },
                {
                    "name": "F#3",
                    "midi": 54,
                    "time": 242.1365760000012,
                    "velocity": 0.1968503937007874,
                    "duration": 0.5934720000000198
                },
                {
                    "name": "D#4",
                    "midi": 63,
                    "time": 242.43331200000122,
                    "velocity": 0.2047244094488189,
                    "duration": 0.2967360000000099
                },
                {
                    "name": "F#3",
                    "midi": 54,
                    "time": 245.10393600000123,
                    "velocity": 0.1732283464566929,
                    "duration": 0.5934720000000198
                },
                {
                    "name": "B3",
                    "midi": 59,
                    "time": 245.10393600000123,
                    "velocity": 0.2047244094488189,
                    "duration": 0.2967360000000099
                },
                {
                    "name": "D#4",
                    "midi": 63,
                    "time": 245.40067200000124,
                    "velocity": 0.1732283464566929,
                    "duration": 0.2967360000000099
                },
                {
                    "name": "B3",
                    "midi": 59,
                    "time": 245.69740800000125,
                    "velocity": 0.2047244094488189,
                    "duration": 0.2967360000000099
                },
                {
                    "name": "F#3",
                    "midi": 54,
                    "time": 245.69740800000125,
                    "velocity": 0.16535433070866143,
                    "duration": 0.5934720000000198
                },
                {
                    "name": "D#4",
                    "midi": 63,
                    "time": 245.99414400000126,
                    "velocity": 0.1732283464566929,
                    "duration": 0.2967360000000099
                },
                {
                    "name": "B4",
                    "midi": 71,
                    "time": 246.88435200000126,
                    "velocity": 0.30708661417322836,
                    "duration": 0.5934719999999913
                },
                {
                    "name": "E4",
                    "midi": 64,
                    "time": 247.47782400000125,
                    "velocity": 0.33070866141732286,
                    "duration": 0.5872899999999959
                },
                {
                    "name": "F#4",
                    "midi": 66,
                    "time": 247.92292800000124,
                    "velocity": 0.28346456692913385,
                    "duration": 0.14836800000000494
                },
                {
                    "name": "G4",
                    "midi": 67,
                    "time": 248.07129600000124,
                    "velocity": 0.33858267716535434,
                    "duration": 0.4451039999999864
                },
                {
                    "name": "A4",
                    "midi": 69,
                    "time": 248.51640000000123,
                    "velocity": 0.29133858267716534,
                    "duration": 0.14836800000000494
                },
                {
                    "name": "F#4",
                    "midi": 66,
                    "time": 248.51640000000123,
                    "velocity": 0.2283464566929134,
                    "duration": 0.14836800000000494
                },
                {
                    "name": "G4",
                    "midi": 67,
                    "time": 248.66476800000123,
                    "velocity": 0.28346456692913385,
                    "duration": 0.5934719999999913
                },
                {
                    "name": "B4",
                    "midi": 71,
                    "time": 248.66476800000123,
                    "velocity": 0.3543307086614173,
                    "duration": 0.4451039999999864
                },
                {
                    "name": "E5",
                    "midi": 76,
                    "time": 249.10987200000122,
                    "velocity": 0.29133858267716534,
                    "duration": 0.14836800000000494
                },
                {
                    "name": "C5",
                    "midi": 72,
                    "time": 249.25824000000122,
                    "velocity": 0.28346456692913385,
                    "duration": 0.5934719999999913
                },
                {
                    "name": "G5",
                    "midi": 79,
                    "time": 249.25824000000122,
                    "velocity": 0.3543307086614173,
                    "duration": 0.4451039999999864
                },
                {
                    "name": "F#5",
                    "midi": 78,
                    "time": 249.7033440000012,
                    "velocity": 0.29133858267716534,
                    "duration": 0.14836800000000494
                },
                {
                    "name": "F#4",
                    "midi": 66,
                    "time": 249.8517120000012,
                    "velocity": 0.31496062992125984,
                    "duration": 0.5934719999999913
                },
                {
                    "name": "D5",
                    "midi": 74,
                    "time": 249.8517120000012,
                    "velocity": 0.3937007874015748,
                    "duration": 0.4451039999999864
                },
                {
                    "name": "C5",
                    "midi": 72,
                    "time": 250.2968160000012,
                    "velocity": 0.33858267716535434,
                    "duration": 0.14836800000000494
                },
                {
                    "name": "E5",
                    "midi": 76,
                    "time": 250.4451840000012,
                    "velocity": 0.4251968503937008,
                    "duration": 0.4451039999999864
                },
                {
                    "name": "A4",
                    "midi": 69,
                    "time": 250.4451840000012,
                    "velocity": 0.33858267716535434,
                    "duration": 0.5934719999999913
                },
                {
                    "name": "D5",
                    "midi": 74,
                    "time": 250.8902880000012,
                    "velocity": 0.36220472440944884,
                    "duration": 0.14836800000000494
                },
                {
                    "name": "B4",
                    "midi": 71,
                    "time": 251.0386560000012,
                    "velocity": 0.31496062992125984,
                    "duration": 0.8902080000000012
                },
                {
                    "name": "D#4",
                    "midi": 63,
                    "time": 251.0386560000012,
                    "velocity": 0.25196850393700787,
                    "duration": 1.186944000000011
                },
                {
                    "name": "C5",
                    "midi": 72,
                    "time": 251.9288640000012,
                    "velocity": 0.28346456692913385,
                    "duration": 0.2967360000000099
                },
                {
                    "name": "A4",
                    "midi": 69,
                    "time": 252.2256000000012,
                    "velocity": 0.33858267716535434,
                    "duration": 0.4451039999999864
                },
                {
                    "name": "F4",
                    "midi": 65,
                    "time": 252.2256000000012,
                    "velocity": 0.2677165354330709,
                    "duration": 0.5934719999999913
                },
                {
                    "name": "B4",
                    "midi": 71,
                    "time": 252.6707040000012,
                    "velocity": 0.28346456692913385,
                    "duration": 0.14836800000000494
                },
                {
                    "name": "E4",
                    "midi": 64,
                    "time": 252.8190720000012,
                    "velocity": 0.28346456692913385,
                    "duration": 0.5934719999999913
                },
                {
                    "name": "G4",
                    "midi": 67,
                    "time": 252.8190720000012,
                    "velocity": 0.3543307086614173,
                    "duration": 0.4451039999999864
                },
                {
                    "name": "A4",
                    "midi": 69,
                    "time": 253.26417600000119,
                    "velocity": 0.30708661417322836,
                    "duration": 0.14836800000000494
                },
                {
                    "name": "D4",
                    "midi": 62,
                    "time": 253.4125440000012,
                    "velocity": 0.28346456692913385,
                    "duration": 0.5934719999999913
                },
                {
                    "name": "F#4",
                    "midi": 66,
                    "time": 253.4125440000012,
                    "velocity": 0.3543307086614173,
                    "duration": 0.4451039999999864
                },
                {
                    "name": "G4",
                    "midi": 67,
                    "time": 253.85764800000118,
                    "velocity": 0.28346456692913385,
                    "duration": 0.14836800000000494
                },
                {
                    "name": "E4",
                    "midi": 64,
                    "time": 254.00601600000118,
                    "velocity": 0.33858267716535434,
                    "duration": 0.4451039999999864
                },
                {
                    "name": "C4",
                    "midi": 60,
                    "time": 254.00601600000118,
                    "velocity": 0.2677165354330709,
                    "duration": 0.5934719999999913
                },
                {
                    "name": "F#4",
                    "midi": 66,
                    "time": 254.45112000000117,
                    "velocity": 0.2755905511811024,
                    "duration": 0.14836800000000494
                },
                {
                    "name": "D#4",
                    "midi": 63,
                    "time": 254.59948800000117,
                    "velocity": 0.3228346456692913,
                    "duration": 0.5934719999999913
                },
                {
                    "name": "B3",
                    "midi": 59,
                    "time": 254.59948800000117,
                    "velocity": 0.25196850393700787,
                    "duration": 0.5934719999999913
                },
                {
                    "name": "E4",
                    "midi": 64,
                    "time": 255.19296000000116,
                    "velocity": 0.28346456692913385,
                    "duration": 0.8902079999999728
                },
                {
                    "name": "B3",
                    "midi": 59,
                    "time": 255.19296000000116,
                    "velocity": 0.2204724409448819,
                    "duration": 0.8902079999999728
                },
                {
                    "name": "G3",
                    "midi": 55,
                    "time": 255.19296000000116,
                    "velocity": 0.2204724409448819,
                    "duration": 0.8902079999999728
                },
                {
                    "name": "D#4",
                    "midi": 63,
                    "time": 256.37990400000115,
                    "velocity": 0.2440944881889764,
                    "duration": 0.5934719999999629
                },
                {
                    "name": "B4",
                    "midi": 71,
                    "time": 256.37990400000115,
                    "velocity": 0.30708661417322836,
                    "duration": 0.5934719999999629
                },
                {
                    "name": "C4",
                    "midi": 60,
                    "time": 256.93628400000114,
                    "velocity": 0.2992125984251969,
                    "duration": 0.6305639999999926
                },
                {
                    "name": "E4",
                    "midi": 64,
                    "time": 256.9733760000011,
                    "velocity": 0.33070866141732286,
                    "duration": 0.4451040000000148
                },
                {
                    "name": "F#4",
                    "midi": 66,
                    "time": 257.4184800000011,
                    "velocity": 0.28346456692913385,
                    "duration": 0.14836800000000494
                },
                {
                    "name": "E4",
                    "midi": 64,
                    "time": 257.56684800000113,
                    "velocity": 0.28346456692913385,
                    "duration": 0.4451040000000148
                },
                {
                    "name": "G4",
                    "midi": 67,
                    "time": 257.56684800000113,
                    "velocity": 0.33858267716535434,
                    "duration": 0.4451040000000148
                },
                {
                    "name": "A4",
                    "midi": 69,
                    "time": 258.01195200000114,
                    "velocity": 0.29133858267716534,
                    "duration": 0.14836800000000494
                },
                {
                    "name": "F#4",
                    "midi": 66,
                    "time": 258.01195200000114,
                    "velocity": 0.2283464566929134,
                    "duration": 0.14836800000000494
                },
                {
                    "name": "G4",
                    "midi": 67,
                    "time": 258.16032000000115,
                    "velocity": 0.28346456692913385,
                    "duration": 0.5934720000000198
                },
                {
                    "name": "B4",
                    "midi": 71,
                    "time": 258.16032000000115,
                    "velocity": 0.3543307086614173,
                    "duration": 0.4451040000000148
                },
                {
                    "name": "E5",
                    "midi": 76,
                    "time": 258.60542400000116,
                    "velocity": 0.29133858267716534,
                    "duration": 0.14836800000000494
                },
                {
                    "name": "A4",
                    "midi": 69,
                    "time": 258.75379200000117,
                    "velocity": 0.28346456692913385,
                    "duration": 0.5934720000000198
                },
                {
                    "name": "G5",
                    "midi": 79,
                    "time": 258.75379200000117,
                    "velocity": 0.3543307086614173,
                    "duration": 0.4451040000000148
                },
                {
                    "name": "F#5",
                    "midi": 78,
                    "time": 259.1988960000012,
                    "velocity": 0.29133858267716534,
                    "duration": 0.14836800000000494
                },
                {
                    "name": "F#4",
                    "midi": 66,
                    "time": 259.3472640000012,
                    "velocity": 0.31496062992125984,
                    "duration": 0.5934720000000198
                },
                {
                    "name": "D5",
                    "midi": 74,
                    "time": 259.3472640000012,
                    "velocity": 0.3937007874015748,
                    "duration": 0.4451040000000148
                },
                {
                    "name": "C5",
                    "midi": 72,
                    "time": 259.7923680000012,
                    "velocity": 0.33858267716535434,
                    "duration": 0.14836800000000494
                },
                {
                    "name": "E5",
                    "midi": 76,
                    "time": 259.9407360000012,
                    "velocity": 0.4251968503937008,
                    "duration": 0.4451040000000148
                },
                {
                    "name": "G4",
                    "midi": 67,
                    "time": 259.9407360000012,
                    "velocity": 0.33858267716535434,
                    "duration": 0.5934720000000198
                },
                {
                    "name": "D5",
                    "midi": 74,
                    "time": 260.3858400000012,
                    "velocity": 0.36220472440944884,
                    "duration": 0.14836800000000494
                },
                {
                    "name": "B4",
                    "midi": 71,
                    "time": 260.53420800000123,
                    "velocity": 0.31496062992125984,
                    "duration": 0.8902080000000296
                },
                {
                    "name": "F#4",
                    "midi": 66,
                    "time": 260.53420800000123,
                    "velocity": 0.25196850393700787,
                    "duration": 0.5934720000000198
                },
                {
                    "name": "F4",
                    "midi": 65,
                    "time": 261.12768000000125,
                    "velocity": 0.25196850393700787,
                    "duration": 0.5934720000000198
                },
                {
                    "name": "C5",
                    "midi": 72,
                    "time": 261.42441600000126,
                    "velocity": 0.2125984251968504,
                    "duration": 0.2967360000000099
                },
                {
                    "name": "A4",
                    "midi": 69,
                    "time": 261.72115200000127,
                    "velocity": 0.25196850393700787,
                    "duration": 0.4451040000000148
                },
                {
                    "name": "C4",
                    "midi": 60,
                    "time": 261.72115200000127,
                    "velocity": 0.1968503937007874,
                    "duration": 0.2967360000000099
                },
                {
                    "name": "D4",
                    "midi": 62,
                    "time": 262.0178880000013,
                    "velocity": 0.14173228346456693,
                    "duration": 0.2967360000000099
                },
                {
                    "name": "B4",
                    "midi": 71,
                    "time": 262.1662560000013,
                    "velocity": 0.2125984251968504,
                    "duration": 0.14836800000000494
                },
                {
                    "name": "E4",
                    "midi": 64,
                    "time": 262.3146240000013,
                    "velocity": 0.2125984251968504,
                    "duration": 0.5934720000000198
                },
                {
                    "name": "G4",
                    "midi": 67,
                    "time": 262.3146240000013,
                    "velocity": 0.25984251968503935,
                    "duration": 0.4451040000000148
                },
                {
                    "name": "A4",
                    "midi": 69,
                    "time": 262.7597280000013,
                    "velocity": 0.2283464566929134,
                    "duration": 0.14836800000000494
                },
                {
                    "name": "A3",
                    "midi": 57,
                    "time": 262.9080960000013,
                    "velocity": 0.2125984251968504,
                    "duration": 0.2967360000000099
                },
                {
                    "name": "F#4",
                    "midi": 66,
                    "time": 262.9080960000013,
                    "velocity": 0.25984251968503935,
                    "duration": 0.4451040000000148
                },
                {
                    "name": "B3",
                    "midi": 59,
                    "time": 263.2048320000013,
                    "velocity": 0.15748031496062992,
                    "duration": 0.2967360000000099
                },
                {
                    "name": "G4",
                    "midi": 67,
                    "time": 263.3532000000013,
                    "velocity": 0.2125984251968504,
                    "duration": 0.14836800000000494
                },
                {
                    "name": "E4",
                    "midi": 64,
                    "time": 263.5015680000013,
                    "velocity": 0.25196850393700787,
                    "duration": 0.4451040000000148
                },
                {
                    "name": "C4",
                    "midi": 60,
                    "time": 263.5015680000013,
                    "velocity": 0.1968503937007874,
                    "duration": 0.5934720000000198
                },
                {
                    "name": "F#4",
                    "midi": 66,
                    "time": 263.94667200000134,
                    "velocity": 0.2047244094488189,
                    "duration": 0.14836800000000494
                },
                {
                    "name": "D#4",
                    "midi": 63,
                    "time": 264.09504000000135,
                    "velocity": 0.23622047244094488,
                    "duration": 0.5934720000000198
                },
                {
                    "name": "B3",
                    "midi": 59,
                    "time": 264.09504000000135,
                    "velocity": 0.1889763779527559,
                    "duration": 0.5934720000000198
                },
                {
                    "name": "E4",
                    "midi": 64,
                    "time": 264.68851200000137,
                    "velocity": 0.2125984251968504,
                    "duration": 1.1869439999999827
                },
                {
                    "name": "B3",
                    "midi": 59,
                    "time": 264.68851200000137,
                    "velocity": 0.16535433070866143,
                    "duration": 1.1869439999999827
                },
                {
                    "name": "G3",
                    "midi": 55,
                    "time": 264.68851200000137,
                    "velocity": 0.16535433070866143,
                    "duration": 1.1869439999999827
                },
                {
                    "name": "D4",
                    "midi": 62,
                    "time": 265.87545600000135,
                    "velocity": 0.4566929133858268,
                    "duration": 0.5934720000000198
                },
                {
                    "name": "F#4",
                    "midi": 66,
                    "time": 265.87545600000135,
                    "velocity": 0.4566929133858268,
                    "duration": 0.5934720000000198
                },
                {
                    "name": "D4",
                    "midi": 62,
                    "time": 266.46892800000137,
                    "velocity": 0.33858267716535434,
                    "duration": 0.5934720000000198
                },
                {
                    "name": "G4",
                    "midi": 67,
                    "time": 266.46892800000137,
                    "velocity": 0.49606299212598426,
                    "duration": 0.4451040000000148
                },
                {
                    "name": "A4",
                    "midi": 69,
                    "time": 266.9140320000014,
                    "velocity": 0.4251968503937008,
                    "duration": 0.14836800000000494
                },
                {
                    "name": "E4",
                    "midi": 64,
                    "time": 267.0624000000014,
                    "velocity": 0.33858267716535434,
                    "duration": 0.5934719999999629
                },
                {
                    "name": "B4",
                    "midi": 71,
                    "time": 267.0624000000014,
                    "velocity": 0.5039370078740157,
                    "duration": 0.2967360000000099
                },
                {
                    "name": "G4",
                    "midi": 67,
                    "time": 267.3591360000014,
                    "velocity": 0.4330708661417323,
                    "duration": 0.29673599999995304
                },
                {
                    "name": "F#4",
                    "midi": 66,
                    "time": 267.6187800000014,
                    "velocity": 0.4251968503937008,
                    "duration": 0.3338279999999827
                },
                {
                    "name": "B4",
                    "midi": 71,
                    "time": 267.65587200000135,
                    "velocity": 0.5275590551181102,
                    "duration": 0.2967360000000099
                },
                {
                    "name": "E4",
                    "midi": 64,
                    "time": 267.95260800000136,
                    "velocity": 0.4330708661417323,
                    "duration": 0.2967360000000099
                },
                {
                    "name": "A4",
                    "midi": 69,
                    "time": 267.95260800000136,
                    "velocity": 0.4330708661417323,
                    "duration": 0.2967360000000099
                },
                {
                    "name": "D4",
                    "midi": 62,
                    "time": 268.2493440000014,
                    "velocity": 0.4251968503937008,
                    "duration": 0.28437200000001894
                },
                {
                    "name": "A4",
                    "midi": 69,
                    "time": 268.2493440000014,
                    "velocity": 0.5275590551181102,
                    "duration": 0.2967360000000099
                },
                {
                    "name": "D4",
                    "midi": 62,
                    "time": 268.5460800000014,
                    "velocity": 0.4330708661417323,
                    "duration": 0.2967360000000099
                },
                {
                    "name": "E4",
                    "midi": 64,
                    "time": 268.8428160000014,
                    "velocity": 0.33858267716535434,
                    "duration": 0.5934720000000198
                },
                {
                    "name": "C5",
                    "midi": 72,
                    "time": 268.8428160000014,
                    "velocity": 0.49606299212598426,
                    "duration": 0.4451040000000148
                },
                {
                    "name": "D5",
                    "midi": 74,
                    "time": 269.2879200000014,
                    "velocity": 0.4409448818897638,
                    "duration": 0.14836800000000494
                },
                {
                    "name": "F#4",
                    "midi": 66,
                    "time": 269.4362880000014,
                    "velocity": 0.36220472440944884,
                    "duration": 0.5934719999999629
                },
                {
                    "name": "E5",
                    "midi": 76,
                    "time": 269.4362880000014,
                    "velocity": 0.5354330708661418,
                    "duration": 0.2967360000000099
                },
                {
                    "name": "C5",
                    "midi": 72,
                    "time": 269.7330240000014,
                    "velocity": 0.48031496062992124,
                    "duration": 0.29673599999995304
                },
                {
                    "name": "G4",
                    "midi": 67,
                    "time": 269.9926680000014,
                    "velocity": 0.48031496062992124,
                    "duration": 0.6305639999999926
                },
                {
                    "name": "D5",
                    "midi": 74,
                    "time": 270.0297600000014,
                    "velocity": 0.6062992125984252,
                    "duration": 0.8902080000000296
                },
                {
                    "name": "A4",
                    "midi": 69,
                    "time": 270.6232320000014,
                    "velocity": 0.4881889763779528,
                    "duration": 0.5934720000000198
                },
                {
                    "name": "D5",
                    "midi": 74,
                    "time": 270.9199680000014,
                    "velocity": 0.6062992125984252,
                    "duration": 0.2967360000000099
                },
                {
                    "name": "B4",
                    "midi": 71,
                    "time": 271.2167040000014,
                    "velocity": 0.3858267716535433,
                    "duration": 0.5934720000000198
                },
                {
                    "name": "E5",
                    "midi": 76,
                    "time": 271.2167040000014,
                    "velocity": 0.5669291338582677,
                    "duration": 0.4451040000000148
                },
                {
                    "name": "F#5",
                    "midi": 78,
                    "time": 271.66180800000143,
                    "velocity": 0.4881889763779528,
                    "duration": 0.14836800000000494
                },
                {
                    "name": "A4",
                    "midi": 69,
                    "time": 271.81017600000143,
                    "velocity": 0.3858267716535433,
                    "duration": 0.5934720000000198
                },
                {
                    "name": "D5",
                    "midi": 74,
                    "time": 271.81017600000143,
                    "velocity": 0.5748031496062992,
                    "duration": 0.2967360000000099
                },
                {
                    "name": "B4",
                    "midi": 71,
                    "time": 272.10691200000144,
                    "velocity": 0.49606299212598426,
                    "duration": 0.2967360000000099
                },
                {
                    "name": "C5",
                    "midi": 72,
                    "time": 272.40364800000145,
                    "velocity": 0.5511811023622047,
                    "duration": 0.4451040000000148
                },
                {
                    "name": "G4",
                    "midi": 67,
                    "time": 272.40364800000145,
                    "velocity": 0.4645669291338583,
                    "duration": 0.5934720000000198
                },
                {
                    "name": "D5",
                    "midi": 74,
                    "time": 272.84875200000147,
                    "velocity": 0.4409448818897638,
                    "duration": 0.14836800000000494
                },
                {
                    "name": "B4",
                    "midi": 71,
                    "time": 272.9971200000015,
                    "velocity": 0.5354330708661418,
                    "duration": 0.2967360000000099
                },
                {
                    "name": "F#4",
                    "midi": 66,
                    "time": 272.9971200000015,
                    "velocity": 0.44881889763779526,
                    "duration": 0.5934720000000198
                },
                {
                    "name": "G4",
                    "midi": 67,
                    "time": 273.2938560000015,
                    "velocity": 0.44881889763779526,
                    "duration": 0.2967360000000099
                },
                {
                    "name": "E4",
                    "midi": 64,
                    "time": 273.5905920000015,
                    "velocity": 0.4566929133858268,
                    "duration": 0.5934719999999629
                },
                {
                    "name": "A4",
                    "midi": 69,
                    "time": 273.5905920000015,
                    "velocity": 0.5433070866141733,
                    "duration": 0.5934719999999629
                },
                {
                    "name": "D#4",
                    "midi": 63,
                    "time": 274.1469720000015,
                    "velocity": 0.3779527559055118,
                    "duration": 1.2240359999999555
                },
                {
                    "name": "B4",
                    "midi": 71,
                    "time": 274.18406400000146,
                    "velocity": 0.44881889763779526,
                    "duration": 1.1869439999999827
                },
                {
                    "name": "B4",
                    "midi": 71,
                    "time": 275.37100800000144,
                    "velocity": 0.36220472440944884,
                    "duration": 0.5934720000000198
                },
                {
                    "name": "D#4",
                    "midi": 63,
                    "time": 275.37100800000144,
                    "velocity": 0.30708661417322836,
                    "duration": 0.5934720000000198
                },
                {
                    "name": "B3",
                    "midi": 59,
                    "time": 275.96448000000146,
                    "velocity": 0.28346456692913385,
                    "duration": 0.5934720000000198
                },
                {
                    "name": "E4",
                    "midi": 64,
                    "time": 275.96448000000146,
                    "velocity": 0.33070866141732286,
                    "duration": 0.4451040000000148
                },
                {
                    "name": "F#4",
                    "midi": 66,
                    "time": 276.4095840000015,
                    "velocity": 0.28346456692913385,
                    "duration": 0.14836800000000494
                },
                {
                    "name": "B3",
                    "midi": 59,
                    "time": 276.5579520000015,
                    "velocity": 0.2283464566929134,
                    "duration": 0.5934720000000198
                },
                {
                    "name": "E4",
                    "midi": 64,
                    "time": 276.5579520000015,
                    "velocity": 0.2283464566929134,
                    "duration": 0.5934720000000198
                },
                {
                    "name": "G4",
                    "midi": 67,
                    "time": 276.5579520000015,
                    "velocity": 0.33858267716535434,
                    "duration": 0.4451040000000148
                },
                {
                    "name": "A4",
                    "midi": 69,
                    "time": 277.0030560000015,
                    "velocity": 0.29133858267716534,
                    "duration": 0.14836800000000494
                },
                {
                    "name": "E4",
                    "midi": 64,
                    "time": 277.1514240000015,
                    "velocity": 0.28346456692913385,
                    "duration": 0.5934720000000198
                },
                {
                    "name": "G4",
                    "midi": 67,
                    "time": 277.1514240000015,
                    "velocity": 0.28346456692913385,
                    "duration": 0.5934720000000198
                },
                {
                    "name": "B4",
                    "midi": 71,
                    "time": 277.1514240000015,
                    "velocity": 0.3543307086614173,
                    "duration": 0.4451040000000148
                },
                {
                    "name": "E5",
                    "midi": 76,
                    "time": 277.5965280000015,
                    "velocity": 0.29133858267716534,
                    "duration": 0.14836800000000494
                },
                {
                    "name": "E4",
                    "midi": 64,
                    "time": 277.7448960000015,
                    "velocity": 0.28346456692913385,
                    "duration": 0.5934720000000198
                },
                {
                    "name": "C5",
                    "midi": 72,
                    "time": 277.7448960000015,
                    "velocity": 0.28346456692913385,
                    "duration": 0.5934720000000198
                },
                {
                    "name": "G5",
                    "midi": 79,
                    "time": 277.7448960000015,
                    "velocity": 0.3543307086614173,
                    "duration": 0.4451040000000148
                },
                {
                    "name": "F#5",
                    "midi": 78,
                    "time": 278.19000000000153,
                    "velocity": 0.29133858267716534,
                    "duration": 0.14836800000000494
                },
                {
                    "name": "B4",
                    "midi": 71,
                    "time": 278.33836800000154,
                    "velocity": 0.31496062992125984,
                    "duration": 0.5934720000000198
                },
                {
                    "name": "F#4",
                    "midi": 66,
                    "time": 278.33836800000154,
                    "velocity": 0.31496062992125984,
                    "duration": 0.5934720000000198
                },
                {
                    "name": "D5",
                    "midi": 74,
                    "time": 278.33836800000154,
                    "velocity": 0.3937007874015748,
                    "duration": 0.4451040000000148
                },
                {
                    "name": "C5",
                    "midi": 72,
                    "time": 278.78347200000155,
                    "velocity": 0.33858267716535434,
                    "duration": 0.14836800000000494
                },
                {
                    "name": "C4",
                    "midi": 60,
                    "time": 278.93184000000156,
                    "velocity": 0.33858267716535434,
                    "duration": 0.5934720000000198
                },
                {
                    "name": "E5",
                    "midi": 76,
                    "time": 278.93184000000156,
                    "velocity": 0.4251968503937008,
                    "duration": 0.4451040000000148
                },
                {
                    "name": "A4",
                    "midi": 69,
                    "time": 278.93184000000156,
                    "velocity": 0.33858267716535434,
                    "duration": 0.5934720000000198
                },
                {
                    "name": "D5",
                    "midi": 74,
                    "time": 279.3769440000016,
                    "velocity": 0.36220472440944884,
                    "duration": 0.14836800000000494
                },
                {
                    "name": "B3",
                    "midi": 59,
                    "time": 279.5253120000016,
                    "velocity": 0.33858267716535434,
                    "duration": 0.5934720000000198
                },
                {
                    "name": "B4",
                    "midi": 71,
                    "time": 279.5253120000016,
                    "velocity": 0.31496062992125984,
                    "duration": 0.8902080000000296
                },
                {
                    "name": "D#4",
                    "midi": 63,
                    "time": 279.5253120000016,
                    "velocity": 0.25196850393700787,
                    "duration": 1.1869440000000395
                },
                {
                    "name": "A3",
                    "midi": 57,
                    "time": 280.1187840000016,
                    "velocity": 0.33858267716535434,
                    "duration": 0.5934720000000198
                },
                {
                    "name": "C5",
                    "midi": 72,
                    "time": 280.4155200000016,
                    "velocity": 0.28346456692913385,
                    "duration": 0.2967360000000099
                },
                {
                    "name": "C4",
                    "midi": 60,
                    "time": 280.7122560000016,
                    "velocity": 0.1968503937007874,
                    "duration": 0.5934720000000198
                },
                {
                    "name": "A4",
                    "midi": 69,
                    "time": 280.7122560000016,
                    "velocity": 0.25196850393700787,
                    "duration": 0.4451040000000148
                },
                {
                    "name": "F4",
                    "midi": 65,
                    "time": 280.7122560000016,
                    "velocity": 0.1968503937007874,
                    "duration": 0.5934720000000198
                },
                {
                    "name": "B4",
                    "midi": 71,
                    "time": 281.15736000000163,
                    "velocity": 0.2125984251968504,
                    "duration": 0.14836800000000494
                },
                {
                    "name": "B3",
                    "midi": 59,
                    "time": 281.30572800000164,
                    "velocity": 0.2125984251968504,
                    "duration": 0.5934720000000198
                },
                {
                    "name": "E4",
                    "midi": 64,
                    "time": 281.30572800000164,
                    "velocity": 0.2125984251968504,
                    "duration": 0.5934720000000198
                },
                {
                    "name": "G4",
                    "midi": 67,
                    "time": 281.30572800000164,
                    "velocity": 0.25984251968503935,
                    "duration": 0.4451040000000148
                },
                {
                    "name": "A4",
                    "midi": 69,
                    "time": 281.75083200000165,
                    "velocity": 0.2283464566929134,
                    "duration": 0.14836800000000494
                },
                {
                    "name": "A3",
                    "midi": 57,
                    "time": 281.89920000000166,
                    "velocity": 0.2125984251968504,
                    "duration": 0.5934720000000198
                },
                {
                    "name": "D4",
                    "midi": 62,
                    "time": 281.89920000000166,
                    "velocity": 0.2125984251968504,
                    "duration": 0.5934720000000198
                },
                {
                    "name": "F#4",
                    "midi": 66,
                    "time": 281.89920000000166,
                    "velocity": 0.25984251968503935,
                    "duration": 0.4451040000000148
                },
                {
                    "name": "G4",
                    "midi": 67,
                    "time": 282.34430400000167,
                    "velocity": 0.2125984251968504,
                    "duration": 0.14836800000000494
                },
                {
                    "name": "G3",
                    "midi": 55,
                    "time": 282.4926720000017,
                    "velocity": 0.1968503937007874,
                    "duration": 0.5934720000000198
                },
                {
                    "name": "E4",
                    "midi": 64,
                    "time": 282.4926720000017,
                    "velocity": 0.25196850393700787,
                    "duration": 0.4451040000000148
                },
                {
                    "name": "C4",
                    "midi": 60,
                    "time": 282.4926720000017,
                    "velocity": 0.1968503937007874,
                    "duration": 0.5934720000000198
                },
                {
                    "name": "F#4",
                    "midi": 66,
                    "time": 282.9377760000017,
                    "velocity": 0.2047244094488189,
                    "duration": 0.14836800000000494
                },
                {
                    "name": "F#3",
                    "midi": 54,
                    "time": 283.6796160000017,
                    "velocity": 0.15748031496062992,
                    "duration": 0.5934720000000198
                },
                {
                    "name": "D#4",
                    "midi": 63,
                    "time": 283.6796160000017,
                    "velocity": 0.1968503937007874,
                    "duration": 0.5934720000000198
                },
                {
                    "name": "B3",
                    "midi": 59,
                    "time": 283.6796160000017,
                    "velocity": 0.15748031496062992,
                    "duration": 0.5934720000000198
                },
                {
                    "name": "E4",
                    "midi": 64,
                    "time": 284.86656000000175,
                    "velocity": 0.1732283464566929,
                    "duration": 1.7804160000000024
                },
                {
                    "name": "B3",
                    "midi": 59,
                    "time": 284.86656000000175,
                    "velocity": 0.13385826771653545,
                    "duration": 1.7804160000000024
                },
                {
                    "name": "G3",
                    "midi": 55,
                    "time": 284.86656000000175,
                    "velocity": 0.13385826771653545,
                    "duration": 1.7804160000000024
                }
            ],
            "controlChanges": {},
            "id": 1,
            "name": "Piano right",
            "instrumentNumber": 0,
            "instrument": "acoustic grand piano",
            "instrumentFamily": "piano",
            "channelNumber": 0,
            "isPercussion": false
        },
        {
            "startTime": 2.96736,
            "duration": 286.64697600000153,
            "length": 553,
            "notes": [
                {
                    "name": "E4",
                    "midi": 64,
                    "time": 2.96736,
                    "velocity": 0.23622047244094488,
                    "duration": 1.1869440000000004
                },
                {
                    "name": "D4",
                    "midi": 62,
                    "time": 2.96736,
                    "velocity": 0.1968503937007874,
                    "duration": 0.5934720000000002
                },
                {
                    "name": "C#4",
                    "midi": 61,
                    "time": 3.5608320000000004,
                    "velocity": 0.23622047244094488,
                    "duration": 0.5934720000000002
                },
                {
                    "name": "C4",
                    "midi": 60,
                    "time": 4.154304000000001,
                    "velocity": 0.1732283464566929,
                    "duration": 0.5934720000000002
                },
                {
                    "name": "E4",
                    "midi": 64,
                    "time": 4.154304000000001,
                    "velocity": 0.2047244094488189,
                    "duration": 0.5934720000000002
                },
                {
                    "name": "B3",
                    "midi": 59,
                    "time": 4.747776000000001,
                    "velocity": 0.1968503937007874,
                    "duration": 0.5934720000000002
                },
                {
                    "name": "D4",
                    "midi": 62,
                    "time": 4.747776000000001,
                    "velocity": 0.23622047244094488,
                    "duration": 0.5934720000000002
                },
                {
                    "name": "A3",
                    "midi": 57,
                    "time": 5.341248000000001,
                    "velocity": 0.2125984251968504,
                    "duration": 0.5934720000000002
                },
                {
                    "name": "C4",
                    "midi": 60,
                    "time": 5.341248000000001,
                    "velocity": 0.25196850393700787,
                    "duration": 0.5934720000000002
                },
                {
                    "name": "G3",
                    "midi": 55,
                    "time": 5.934720000000001,
                    "velocity": 0.1968503937007874,
                    "duration": 0.5934720000000002
                },
                {
                    "name": "B3",
                    "midi": 59,
                    "time": 5.934720000000001,
                    "velocity": 0.23622047244094488,
                    "duration": 0.5934720000000002
                },
                {
                    "name": "F#3",
                    "midi": 54,
                    "time": 6.5281920000000015,
                    "velocity": 0.1732283464566929,
                    "duration": 0.5934720000000002
                },
                {
                    "name": "A3",
                    "midi": 57,
                    "time": 6.5281920000000015,
                    "velocity": 0.2047244094488189,
                    "duration": 0.5934720000000002
                },
                {
                    "name": "F3",
                    "midi": 53,
                    "time": 7.121664000000002,
                    "velocity": 0.1968503937007874,
                    "duration": 0.5934720000000002
                },
                {
                    "name": "C4",
                    "midi": 60,
                    "time": 7.121664000000002,
                    "velocity": 0.23622047244094488,
                    "duration": 0.5934720000000002
                },
                {
                    "name": "B3",
                    "midi": 59,
                    "time": 7.715136000000002,
                    "velocity": 0.2047244094488189,
                    "duration": 0.5934719999999993
                },
                {
                    "name": "C3",
                    "midi": 48,
                    "time": 7.715136000000002,
                    "velocity": 0.1732283464566929,
                    "duration": 0.5934719999999993
                },
                {
                    "name": "D3",
                    "midi": 50,
                    "time": 8.308608000000001,
                    "velocity": 0.1968503937007874,
                    "duration": 0.5934720000000002
                },
                {
                    "name": "A3",
                    "midi": 57,
                    "time": 8.308608000000001,
                    "velocity": 0.23622047244094488,
                    "duration": 0.5934720000000002
                },
                {
                    "name": "G3",
                    "midi": 55,
                    "time": 8.902080000000002,
                    "velocity": 0.2047244094488189,
                    "duration": 0.5934720000000002
                },
                {
                    "name": "A2",
                    "midi": 45,
                    "time": 8.902080000000002,
                    "velocity": 0.1732283464566929,
                    "duration": 0.5934720000000002
                },
                {
                    "name": "F#3",
                    "midi": 54,
                    "time": 9.495552000000002,
                    "velocity": 0.2125984251968504,
                    "duration": 0.5934720000000002
                },
                {
                    "name": "B2",
                    "midi": 47,
                    "time": 9.495552000000002,
                    "velocity": 0.1732283464566929,
                    "duration": 0.5934720000000002
                },
                {
                    "name": "E2",
                    "midi": 40,
                    "time": 10.089024000000002,
                    "velocity": 0.1968503937007874,
                    "duration": 0.5934720000000002
                },
                {
                    "name": "E3",
                    "midi": 52,
                    "time": 10.682496000000002,
                    "velocity": 0.36220472440944884,
                    "duration": 2.967360000000001
                },
                {
                    "name": "F#3",
                    "midi": 54,
                    "time": 11.275968000000002,
                    "velocity": 0.1968503937007874,
                    "duration": 0.5934720000000002
                },
                {
                    "name": "B3",
                    "midi": 59,
                    "time": 11.869440000000003,
                    "velocity": 0.2755905511811024,
                    "duration": 0.4451040000000006
                },
                {
                    "name": "A3",
                    "midi": 57,
                    "time": 12.314544000000003,
                    "velocity": 0.23622047244094488,
                    "duration": 0.1483679999999996
                },
                {
                    "name": "D4",
                    "midi": 62,
                    "time": 12.462912000000003,
                    "velocity": 0.23622047244094488,
                    "duration": 0.4451040000000006
                },
                {
                    "name": "C4",
                    "midi": 60,
                    "time": 12.908016000000003,
                    "velocity": 0.1889763779527559,
                    "duration": 0.1483679999999996
                },
                {
                    "name": "B3",
                    "midi": 59,
                    "time": 13.056384000000003,
                    "velocity": 0.23622047244094488,
                    "duration": 0.5934720000000002
                },
                {
                    "name": "F#3",
                    "midi": 54,
                    "time": 13.649856000000003,
                    "velocity": 0.1732283464566929,
                    "duration": 0.5934720000000002
                },
                {
                    "name": "E4",
                    "midi": 64,
                    "time": 13.649856000000003,
                    "velocity": 0.2047244094488189,
                    "duration": 0.5934720000000002
                },
                {
                    "name": "G3",
                    "midi": 55,
                    "time": 14.243328000000004,
                    "velocity": 0.1968503937007874,
                    "duration": 0.5934720000000002
                },
                {
                    "name": "B3",
                    "midi": 59,
                    "time": 14.243328000000004,
                    "velocity": 0.23622047244094488,
                    "duration": 0.5934720000000002
                },
                {
                    "name": "A3",
                    "midi": 57,
                    "time": 14.836800000000004,
                    "velocity": 0.2125984251968504,
                    "duration": 0.5934720000000002
                },
                {
                    "name": "C4",
                    "midi": 60,
                    "time": 14.836800000000004,
                    "velocity": 0.25196850393700787,
                    "duration": 0.5934720000000002
                },
                {
                    "name": "B3",
                    "midi": 59,
                    "time": 15.430272000000004,
                    "velocity": 0.1968503937007874,
                    "duration": 0.5934720000000002
                },
                {
                    "name": "D4",
                    "midi": 62,
                    "time": 15.430272000000004,
                    "velocity": 0.23622047244094488,
                    "duration": 1.1869439999999987
                },
                {
                    "name": "G3",
                    "midi": 55,
                    "time": 16.023744000000004,
                    "velocity": 0.2047244094488189,
                    "duration": 0.5934719999999984
                },
                {
                    "name": "F3",
                    "midi": 53,
                    "time": 16.617216000000003,
                    "velocity": 0.14173228346456693,
                    "duration": 0.5934719999999984
                },
                {
                    "name": "A3",
                    "midi": 57,
                    "time": 16.617216000000003,
                    "velocity": 0.1732283464566929,
                    "duration": 0.2967359999999992
                },
                {
                    "name": "B3",
                    "midi": 59,
                    "time": 16.913952000000002,
                    "velocity": 0.12598425196850394,
                    "duration": 0.2967359999999992
                },
                {
                    "name": "C4",
                    "midi": 60,
                    "time": 17.210688,
                    "velocity": 0.14960629921259844,
                    "duration": 0.5934719999999984
                },
                {
                    "name": "C3",
                    "midi": 48,
                    "time": 17.210688,
                    "velocity": 0.12598425196850394,
                    "duration": 0.5934719999999984
                },
                {
                    "name": "D3",
                    "midi": 50,
                    "time": 17.80416,
                    "velocity": 0.14173228346456693,
                    "duration": 0.5934719999999984
                },
                {
                    "name": "F#3",
                    "midi": 54,
                    "time": 17.80416,
                    "velocity": 0.1732283464566929,
                    "duration": 0.2967359999999992
                },
                {
                    "name": "G3",
                    "midi": 55,
                    "time": 18.100896,
                    "velocity": 0.12598425196850394,
                    "duration": 0.2967359999999992
                },
                {
                    "name": "A3",
                    "midi": 57,
                    "time": 18.397631999999998,
                    "velocity": 0.14960629921259844,
                    "duration": 0.5934719999999984
                },
                {
                    "name": "A2",
                    "midi": 45,
                    "time": 18.397631999999998,
                    "velocity": 0.12598425196850394,
                    "duration": 0.5934719999999984
                },
                {
                    "name": "F#3",
                    "midi": 54,
                    "time": 18.991103999999996,
                    "velocity": 0.15748031496062992,
                    "duration": 0.5934719999999984
                },
                {
                    "name": "B2",
                    "midi": 47,
                    "time": 18.991103999999996,
                    "velocity": 0.12598425196850394,
                    "duration": 0.5934719999999984
                },
                {
                    "name": "E2",
                    "midi": 40,
                    "time": 19.584575999999995,
                    "velocity": 0.14173228346456693,
                    "duration": 1.1869440000000004
                },
                {
                    "name": "D3",
                    "midi": 50,
                    "time": 20.771519999999995,
                    "velocity": 0.3779527559055118,
                    "duration": 0.5934719999999984
                },
                {
                    "name": "A3",
                    "midi": 57,
                    "time": 20.771519999999995,
                    "velocity": 0.4330708661417323,
                    "duration": 0.5934719999999984
                },
                {
                    "name": "G3",
                    "midi": 55,
                    "time": 21.364991999999994,
                    "velocity": 0.4330708661417323,
                    "duration": 1.186943999999997
                },
                {
                    "name": "B3",
                    "midi": 59,
                    "time": 21.364991999999994,
                    "velocity": 0.4330708661417323,
                    "duration": 0.5934719999999984
                },
                {
                    "name": "C#4",
                    "midi": 61,
                    "time": 21.958463999999992,
                    "velocity": 0.3858267716535433,
                    "duration": 0.5934719999999984
                },
                {
                    "name": "D4",
                    "midi": 62,
                    "time": 22.55193599999999,
                    "velocity": 0.41732283464566927,
                    "duration": 0.2967359999999992
                },
                {
                    "name": "D3",
                    "midi": 50,
                    "time": 22.55193599999999,
                    "velocity": 0.41732283464566927,
                    "duration": 1.186943999999997
                },
                {
                    "name": "A3",
                    "midi": 57,
                    "time": 22.84867199999999,
                    "velocity": 0.3543307086614173,
                    "duration": 0.2967359999999992
                },
                {
                    "name": "F#3",
                    "midi": 54,
                    "time": 23.14540799999999,
                    "velocity": 0.30708661417322836,
                    "duration": 0.5934719999999984
                },
                {
                    "name": "C3",
                    "midi": 48,
                    "time": 23.738879999999988,
                    "velocity": 0.4330708661417323,
                    "duration": 1.186943999999997
                },
                {
                    "name": "G3",
                    "midi": 55,
                    "time": 23.738879999999988,
                    "velocity": 0.4330708661417323,
                    "duration": 0.5934719999999984
                },
                {
                    "name": "A3",
                    "midi": 57,
                    "time": 24.332351999999986,
                    "velocity": 0.4094488188976378,
                    "duration": 0.5934719999999984
                },
                {
                    "name": "B3",
                    "midi": 59,
                    "time": 24.925823999999984,
                    "velocity": 0.47244094488188976,
                    "duration": 0.5934719999999984
                },
                {
                    "name": "G2",
                    "midi": 43,
                    "time": 24.925823999999984,
                    "velocity": 0.47244094488188976,
                    "duration": 1.186943999999997
                },
                {
                    "name": "D4",
                    "midi": 62,
                    "time": 25.519295999999983,
                    "velocity": 0.3464566929133858,
                    "duration": 0.5934719999999984
                },
                {
                    "name": "G3",
                    "midi": 55,
                    "time": 26.11276799999998,
                    "velocity": 0.49606299212598426,
                    "duration": 3.5608319999999907
                },
                {
                    "name": "G4",
                    "midi": 67,
                    "time": 26.11276799999998,
                    "velocity": 0.49606299212598426,
                    "duration": 0.5934719999999984
                },
                {
                    "name": "F#4",
                    "midi": 66,
                    "time": 26.70623999999998,
                    "velocity": 0.4409448818897638,
                    "duration": 0.5934719999999984
                },
                {
                    "name": "E4",
                    "midi": 64,
                    "time": 27.299711999999978,
                    "velocity": 0.47244094488188976,
                    "duration": 0.5934719999999984
                },
                {
                    "name": "D4",
                    "midi": 62,
                    "time": 27.893183999999977,
                    "velocity": 0.3464566929133858,
                    "duration": 0.5934719999999984
                },
                {
                    "name": "C4",
                    "midi": 60,
                    "time": 28.486655999999975,
                    "velocity": 0.3464566929133858,
                    "duration": 0.5934719999999984
                },
                {
                    "name": "B3",
                    "midi": 59,
                    "time": 29.080127999999974,
                    "velocity": 0.3464566929133858,
                    "duration": 0.5934719999999984
                },
                {
                    "name": "A#3",
                    "midi": 58,
                    "time": 29.673599999999972,
                    "velocity": 0.25984251968503935,
                    "duration": 0.5934719999999984
                },
                {
                    "name": "F#3",
                    "midi": 54,
                    "time": 29.673599999999972,
                    "velocity": 0.2204724409448819,
                    "duration": 0.5934719999999984
                },
                {
                    "name": "F3",
                    "midi": 53,
                    "time": 30.26707199999997,
                    "velocity": 0.2125984251968504,
                    "duration": 0.5934719999999984
                },
                {
                    "name": "A3",
                    "midi": 57,
                    "time": 30.26707199999997,
                    "velocity": 0.25196850393700787,
                    "duration": 0.2967359999999992
                },
                {
                    "name": "G#3",
                    "midi": 56,
                    "time": 30.56380799999997,
                    "velocity": 0.2283464566929134,
                    "duration": 0.2967359999999992
                },
                {
                    "name": "E3",
                    "midi": 52,
                    "time": 30.86054399999997,
                    "velocity": 0.1968503937007874,
                    "duration": 0.5934719999999984
                },
                {
                    "name": "G3",
                    "midi": 55,
                    "time": 30.86054399999997,
                    "velocity": 0.23622047244094488,
                    "duration": 0.5934719999999984
                },
                {
                    "name": "D4",
                    "midi": 62,
                    "time": 31.454015999999967,
                    "velocity": 0.23622047244094488,
                    "duration": 0.5934719999999984
                },
                {
                    "name": "D3",
                    "midi": 50,
                    "time": 31.454015999999967,
                    "velocity": 0.1968503937007874,
                    "duration": 0.5934719999999984
                },
                {
                    "name": "C#3",
                    "midi": 49,
                    "time": 32.047487999999966,
                    "velocity": 0.1968503937007874,
                    "duration": 0.5934719999999984
                },
                {
                    "name": "C#4",
                    "midi": 61,
                    "time": 32.047487999999966,
                    "velocity": 0.23622047244094488,
                    "duration": 0.5934719999999984
                },
                {
                    "name": "C3",
                    "midi": 48,
                    "time": 32.640959999999964,
                    "velocity": 0.1732283464566929,
                    "duration": 0.5934719999999984
                },
                {
                    "name": "C4",
                    "midi": 60,
                    "time": 32.640959999999964,
                    "velocity": 0.2047244094488189,
                    "duration": 0.5934719999999984
                },
                {
                    "name": "B2",
                    "midi": 47,
                    "time": 33.23443199999996,
                    "velocity": 0.1968503937007874,
                    "duration": 0.5934719999999984
                },
                {
                    "name": "B3",
                    "midi": 59,
                    "time": 33.23443199999996,
                    "velocity": 0.23622047244094488,
                    "duration": 0.5934719999999984
                },
                {
                    "name": "A2",
                    "midi": 45,
                    "time": 33.82790399999996,
                    "velocity": 0.2125984251968504,
                    "duration": 0.5934719999999984
                },
                {
                    "name": "A3",
                    "midi": 57,
                    "time": 33.82790399999996,
                    "velocity": 0.25196850393700787,
                    "duration": 0.5934719999999984
                },
                {
                    "name": "G2",
                    "midi": 43,
                    "time": 34.42137599999996,
                    "velocity": 0.1968503937007874,
                    "duration": 0.5934719999999984
                },
                {
                    "name": "G3",
                    "midi": 55,
                    "time": 34.42137599999996,
                    "velocity": 0.23622047244094488,
                    "duration": 0.5934719999999984
                },
                {
                    "name": "F#2",
                    "midi": 42,
                    "time": 35.01484799999996,
                    "velocity": 0.1732283464566929,
                    "duration": 0.5934719999999984
                },
                {
                    "name": "F#3",
                    "midi": 54,
                    "time": 35.01484799999996,
                    "velocity": 0.2047244094488189,
                    "duration": 0.5934719999999984
                },
                {
                    "name": "F2",
                    "midi": 41,
                    "time": 35.60831999999996,
                    "velocity": 0.14173228346456693,
                    "duration": 0.5934719999999984
                },
                {
                    "name": "F3",
                    "midi": 53,
                    "time": 35.60831999999996,
                    "velocity": 0.1732283464566929,
                    "duration": 0.5934719999999984
                },
                {
                    "name": "C3",
                    "midi": 48,
                    "time": 36.201791999999955,
                    "velocity": 0.14960629921259844,
                    "duration": 0.5934719999999984
                },
                {
                    "name": "C2",
                    "midi": 36,
                    "time": 36.201791999999955,
                    "velocity": 0.12598425196850394,
                    "duration": 0.5934719999999984
                },
                {
                    "name": "D2",
                    "midi": 38,
                    "time": 36.79526399999995,
                    "velocity": 0.14173228346456693,
                    "duration": 0.5934719999999984
                },
                {
                    "name": "D3",
                    "midi": 50,
                    "time": 36.79526399999995,
                    "velocity": 0.1732283464566929,
                    "duration": 0.5934719999999984
                },
                {
                    "name": "A2",
                    "midi": 45,
                    "time": 37.38873599999995,
                    "velocity": 0.14960629921259844,
                    "duration": 0.5934719999999984
                },
                {
                    "name": "A1",
                    "midi": 33,
                    "time": 37.38873599999995,
                    "velocity": 0.12598425196850394,
                    "duration": 0.5934719999999984
                },
                {
                    "name": "B2",
                    "midi": 47,
                    "time": 37.98220799999995,
                    "velocity": 0.15748031496062992,
                    "duration": 0.5934719999999984
                },
                {
                    "name": "B1",
                    "midi": 35,
                    "time": 37.98220799999995,
                    "velocity": 0.12598425196850394,
                    "duration": 0.5934719999999984
                },
                {
                    "name": "E1",
                    "midi": 28,
                    "time": 38.57567999999995,
                    "velocity": 0.10236220472440945,
                    "duration": 1.186943999999997
                },
                {
                    "name": "E2",
                    "midi": 40,
                    "time": 38.57567999999995,
                    "velocity": 0.14173228346456693,
                    "duration": 1.186943999999997
                },
                {
                    "name": "D3",
                    "midi": 50,
                    "time": 39.762623999999946,
                    "velocity": 0.3779527559055118,
                    "duration": 0.5934719999999984
                },
                {
                    "name": "A3",
                    "midi": 57,
                    "time": 39.762623999999946,
                    "velocity": 0.4330708661417323,
                    "duration": 0.5934719999999984
                },
                {
                    "name": "G3",
                    "midi": 55,
                    "time": 40.356095999999944,
                    "velocity": 0.4330708661417323,
                    "duration": 1.186943999999997
                },
                {
                    "name": "B3",
                    "midi": 59,
                    "time": 40.356095999999944,
                    "velocity": 0.4330708661417323,
                    "duration": 0.5934719999999984
                },
                {
                    "name": "C#4",
                    "midi": 61,
                    "time": 40.94956799999994,
                    "velocity": 0.3858267716535433,
                    "duration": 0.5934719999999984
                },
                {
                    "name": "D4",
                    "midi": 62,
                    "time": 41.54303999999994,
                    "velocity": 0.41732283464566927,
                    "duration": 0.2967360000000028
                },
                {
                    "name": "D3",
                    "midi": 50,
                    "time": 41.54303999999994,
                    "velocity": 0.41732283464566927,
                    "duration": 1.186944000000004
                },
                {
                    "name": "A3",
                    "midi": 57,
                    "time": 41.839775999999944,
                    "velocity": 0.3543307086614173,
                    "duration": 0.2967360000000028
                },
                {
                    "name": "F#3",
                    "midi": 54,
                    "time": 42.13651199999995,
                    "velocity": 0.30708661417322836,
                    "duration": 0.5934719999999984
                },
                {
                    "name": "C3",
                    "midi": 48,
                    "time": 42.729983999999945,
                    "velocity": 0.4330708661417323,
                    "duration": 1.186943999999997
                },
                {
                    "name": "G3",
                    "midi": 55,
                    "time": 42.729983999999945,
                    "velocity": 0.4330708661417323,
                    "duration": 0.5934719999999984
                },
                {
                    "name": "A3",
                    "midi": 57,
                    "time": 43.32345599999994,
                    "velocity": 0.4094488188976378,
                    "duration": 0.5934719999999984
                },
                {
                    "name": "B3",
                    "midi": 59,
                    "time": 43.91692799999994,
                    "velocity": 0.47244094488188976,
                    "duration": 0.5934719999999984
                },
                {
                    "name": "G2",
                    "midi": 43,
                    "time": 43.91692799999994,
                    "velocity": 0.47244094488188976,
                    "duration": 1.186943999999997
                },
                {
                    "name": "D4",
                    "midi": 62,
                    "time": 44.51039999999994,
                    "velocity": 0.3464566929133858,
                    "duration": 0.5934719999999984
                },
                {
                    "name": "G3",
                    "midi": 55,
                    "time": 45.10387199999994,
                    "velocity": 0.49606299212598426,
                    "duration": 3.5608319999999907
                },
                {
                    "name": "G4",
                    "midi": 67,
                    "time": 45.10387199999994,
                    "velocity": 0.49606299212598426,
                    "duration": 0.5934719999999984
                },
                {
                    "name": "F#4",
                    "midi": 66,
                    "time": 45.69734399999994,
                    "velocity": 0.4409448818897638,
                    "duration": 0.5934719999999984
                },
                {
                    "name": "E4",
                    "midi": 64,
                    "time": 46.290815999999936,
                    "velocity": 0.47244094488188976,
                    "duration": 0.5934719999999984
                },
                {
                    "name": "D4",
                    "midi": 62,
                    "time": 46.884287999999934,
                    "velocity": 0.3464566929133858,
                    "duration": 0.5934719999999984
                },
                {
                    "name": "C4",
                    "midi": 60,
                    "time": 47.47775999999993,
                    "velocity": 0.3464566929133858,
                    "duration": 0.5934719999999984
                },
                {
                    "name": "B3",
                    "midi": 59,
                    "time": 48.07123199999993,
                    "velocity": 0.3464566929133858,
                    "duration": 0.5934719999999984
                },
                {
                    "name": "A#3",
                    "midi": 58,
                    "time": 48.66470399999993,
                    "velocity": 0.25984251968503935,
                    "duration": 0.5934719999999984
                },
                {
                    "name": "F#3",
                    "midi": 54,
                    "time": 48.66470399999993,
                    "velocity": 0.2204724409448819,
                    "duration": 0.5934719999999984
                },
                {
                    "name": "F3",
                    "midi": 53,
                    "time": 49.25817599999993,
                    "velocity": 0.2125984251968504,
                    "duration": 0.5934720000000056
                },
                {
                    "name": "A3",
                    "midi": 57,
                    "time": 49.25817599999993,
                    "velocity": 0.25196850393700787,
                    "duration": 0.2967360000000028
                },
                {
                    "name": "G#3",
                    "midi": 56,
                    "time": 49.55491199999993,
                    "velocity": 0.2283464566929134,
                    "duration": 0.2967360000000028
                },
                {
                    "name": "E3",
                    "midi": 52,
                    "time": 49.85164799999993,
                    "velocity": 0.1968503937007874,
                    "duration": 0.5934719999999984
                },
                {
                    "name": "G3",
                    "midi": 55,
                    "time": 49.85164799999993,
                    "velocity": 0.23622047244094488,
                    "duration": 0.5934719999999984
                },
                {
                    "name": "D4",
                    "midi": 62,
                    "time": 50.44511999999993,
                    "velocity": 0.23622047244094488,
                    "duration": 0.5934719999999984
                },
                {
                    "name": "D3",
                    "midi": 50,
                    "time": 50.44511999999993,
                    "velocity": 0.1968503937007874,
                    "duration": 0.5934719999999984
                },
                {
                    "name": "C#3",
                    "midi": 49,
                    "time": 51.03859199999993,
                    "velocity": 0.1968503937007874,
                    "duration": 0.5934719999999984
                },
                {
                    "name": "C#4",
                    "midi": 61,
                    "time": 51.03859199999993,
                    "velocity": 0.23622047244094488,
                    "duration": 0.5934719999999984
                },
                {
                    "name": "C3",
                    "midi": 48,
                    "time": 51.63206399999993,
                    "velocity": 0.1732283464566929,
                    "duration": 0.5934719999999984
                },
                {
                    "name": "C4",
                    "midi": 60,
                    "time": 51.63206399999993,
                    "velocity": 0.2047244094488189,
                    "duration": 0.5934719999999984
                },
                {
                    "name": "B2",
                    "midi": 47,
                    "time": 52.22553599999993,
                    "velocity": 0.1968503937007874,
                    "duration": 0.5934719999999984
                },
                {
                    "name": "B3",
                    "midi": 59,
                    "time": 52.22553599999993,
                    "velocity": 0.23622047244094488,
                    "duration": 0.5934719999999984
                },
                {
                    "name": "A2",
                    "midi": 45,
                    "time": 52.819007999999926,
                    "velocity": 0.2125984251968504,
                    "duration": 0.5934719999999984
                },
                {
                    "name": "A3",
                    "midi": 57,
                    "time": 52.819007999999926,
                    "velocity": 0.25196850393700787,
                    "duration": 0.5934719999999984
                },
                {
                    "name": "G2",
                    "midi": 43,
                    "time": 53.412479999999924,
                    "velocity": 0.1968503937007874,
                    "duration": 0.5934719999999984
                },
                {
                    "name": "G3",
                    "midi": 55,
                    "time": 53.412479999999924,
                    "velocity": 0.23622047244094488,
                    "duration": 0.5934719999999984
                },
                {
                    "name": "F#2",
                    "midi": 42,
                    "time": 54.00595199999992,
                    "velocity": 0.1732283464566929,
                    "duration": 0.5934719999999984
                },
                {
                    "name": "F#3",
                    "midi": 54,
                    "time": 54.00595199999992,
                    "velocity": 0.2047244094488189,
                    "duration": 0.5934719999999984
                },
                {
                    "name": "F2",
                    "midi": 41,
                    "time": 54.59942399999992,
                    "velocity": 0.14173228346456693,
                    "duration": 0.5934719999999984
                },
                {
                    "name": "F3",
                    "midi": 53,
                    "time": 54.59942399999992,
                    "velocity": 0.1732283464566929,
                    "duration": 0.5934719999999984
                },
                {
                    "name": "C3",
                    "midi": 48,
                    "time": 55.19289599999992,
                    "velocity": 0.14960629921259844,
                    "duration": 0.5934719999999984
                },
                {
                    "name": "C2",
                    "midi": 36,
                    "time": 55.19289599999992,
                    "velocity": 0.12598425196850394,
                    "duration": 0.5934719999999984
                },
                {
                    "name": "D2",
                    "midi": 38,
                    "time": 55.78636799999992,
                    "velocity": 0.14173228346456693,
                    "duration": 0.5934719999999984
                },
                {
                    "name": "D3",
                    "midi": 50,
                    "time": 55.78636799999992,
                    "velocity": 0.1732283464566929,
                    "duration": 0.5934719999999984
                },
                {
                    "name": "A2",
                    "midi": 45,
                    "time": 56.379839999999916,
                    "velocity": 0.14960629921259844,
                    "duration": 0.5934719999999984
                },
                {
                    "name": "A1",
                    "midi": 33,
                    "time": 56.379839999999916,
                    "velocity": 0.12598425196850394,
                    "duration": 0.5934719999999984
                },
                {
                    "name": "B2",
                    "midi": 47,
                    "time": 57.56678399999991,
                    "velocity": 0.11811023622047244,
                    "duration": 0.5934719999999984
                },
                {
                    "name": "B1",
                    "midi": 35,
                    "time": 57.56678399999991,
                    "velocity": 0.09448818897637795,
                    "duration": 0.5934719999999984
                },
                {
                    "name": "B2",
                    "midi": 47,
                    "time": 59.34719999999991,
                    "velocity": 0.1889763779527559,
                    "duration": 1.7804160000000024
                },
                {
                    "name": "E2",
                    "midi": 40,
                    "time": 59.34719999999991,
                    "velocity": 0.1889763779527559,
                    "duration": 1.7804160000000024
                },
                {
                    "name": "B2",
                    "midi": 47,
                    "time": 61.12761599999991,
                    "velocity": 0.16535433070866143,
                    "duration": 1.7804160000000024
                },
                {
                    "name": "E2",
                    "midi": 40,
                    "time": 61.12761599999991,
                    "velocity": 0.16535433070866143,
                    "duration": 1.7804160000000024
                },
                {
                    "name": "B2",
                    "midi": 47,
                    "time": 62.90803199999991,
                    "velocity": 0.16535433070866143,
                    "duration": 1.7804159999999953
                },
                {
                    "name": "E2",
                    "midi": 40,
                    "time": 62.90803199999991,
                    "velocity": 0.16535433070866143,
                    "duration": 1.7804159999999953
                },
                {
                    "name": "E2",
                    "midi": 40,
                    "time": 64.68844799999991,
                    "velocity": 0.16535433070866143,
                    "duration": 1.7804160000000024
                },
                {
                    "name": "B2",
                    "midi": 47,
                    "time": 64.68844799999991,
                    "velocity": 0.16535433070866143,
                    "duration": 1.7804160000000024
                },
                {
                    "name": "E2",
                    "midi": 40,
                    "time": 66.46886399999991,
                    "velocity": 0.16535433070866143,
                    "duration": 1.7804160000000024
                },
                {
                    "name": "B2",
                    "midi": 47,
                    "time": 66.46886399999991,
                    "velocity": 0.16535433070866143,
                    "duration": 1.7804160000000024
                },
                {
                    "name": "E2",
                    "midi": 40,
                    "time": 68.24927999999991,
                    "velocity": 0.16535433070866143,
                    "duration": 1.7804160000000024
                },
                {
                    "name": "B2",
                    "midi": 47,
                    "time": 68.24927999999991,
                    "velocity": 0.16535433070866143,
                    "duration": 1.7804160000000024
                },
                {
                    "name": "B2",
                    "midi": 47,
                    "time": 70.02969599999992,
                    "velocity": 0.16535433070866143,
                    "duration": 1.7804160000000024
                },
                {
                    "name": "E2",
                    "midi": 40,
                    "time": 70.02969599999992,
                    "velocity": 0.16535433070866143,
                    "duration": 1.7804160000000024
                },
                {
                    "name": "E2",
                    "midi": 40,
                    "time": 71.81011199999992,
                    "velocity": 0.16535433070866143,
                    "duration": 1.7804160000000024
                },
                {
                    "name": "B2",
                    "midi": 47,
                    "time": 71.81011199999992,
                    "velocity": 0.16535433070866143,
                    "duration": 1.7804160000000024
                },
                {
                    "name": "E2",
                    "midi": 40,
                    "time": 73.59052799999992,
                    "velocity": 0.16535433070866143,
                    "duration": 1.7804160000000024
                },
                {
                    "name": "B2",
                    "midi": 47,
                    "time": 73.59052799999992,
                    "velocity": 0.16535433070866143,
                    "duration": 1.7804160000000024
                },
                {
                    "name": "E2",
                    "midi": 40,
                    "time": 75.37094399999992,
                    "velocity": 0.16535433070866143,
                    "duration": 1.7804160000000024
                },
                {
                    "name": "B2",
                    "midi": 47,
                    "time": 75.37094399999992,
                    "velocity": 0.16535433070866143,
                    "duration": 1.7804160000000024
                },
                {
                    "name": "B1",
                    "midi": 35,
                    "time": 77.15135999999993,
                    "velocity": 0.16535433070866143,
                    "duration": 1.7804160000000167
                },
                {
                    "name": "F#2",
                    "midi": 42,
                    "time": 77.74483199999993,
                    "velocity": 0.16535433070866143,
                    "duration": 0.5934720000000056
                },
                {
                    "name": "F#2",
                    "midi": 42,
                    "time": 78.33830399999994,
                    "velocity": 0.16535433070866143,
                    "duration": 0.5934720000000056
                },
                {
                    "name": "B1",
                    "midi": 35,
                    "time": 78.93177599999994,
                    "velocity": 0.16535433070866143,
                    "duration": 1.7804160000000167
                },
                {
                    "name": "F#2",
                    "midi": 42,
                    "time": 79.52524799999995,
                    "velocity": 0.16535433070866143,
                    "duration": 0.5934720000000056
                },
                {
                    "name": "F#2",
                    "midi": 42,
                    "time": 80.11871999999995,
                    "velocity": 0.16535433070866143,
                    "duration": 0.14836800000000494
                },
                {
                    "name": "B1",
                    "midi": 35,
                    "time": 80.71219199999996,
                    "velocity": 0.16535433070866143,
                    "duration": 1.7804160000000167
                },
                {
                    "name": "F#2",
                    "midi": 42,
                    "time": 81.30566399999996,
                    "velocity": 0.16535433070866143,
                    "duration": 0.5934720000000056
                },
                {
                    "name": "F#2",
                    "midi": 42,
                    "time": 81.89913599999997,
                    "velocity": 0.16535433070866143,
                    "duration": 0.5934720000000056
                },
                {
                    "name": "B1",
                    "midi": 35,
                    "time": 82.49260799999998,
                    "velocity": 0.16535433070866143,
                    "duration": 1.7804160000000167
                },
                {
                    "name": "F#2",
                    "midi": 42,
                    "time": 83.08607999999998,
                    "velocity": 0.16535433070866143,
                    "duration": 0.14836800000000494
                },
                {
                    "name": "F#2",
                    "midi": 42,
                    "time": 83.67955199999999,
                    "velocity": 0.16535433070866143,
                    "duration": 0.14836800000000494
                },
                {
                    "name": "B1",
                    "midi": 35,
                    "time": 84.27302399999999,
                    "velocity": 0.16535433070866143,
                    "duration": 1.7804160000000167
                },
                {
                    "name": "F#2",
                    "midi": 42,
                    "time": 84.866496,
                    "velocity": 0.16535433070866143,
                    "duration": 0.5934720000000056
                },
                {
                    "name": "F#2",
                    "midi": 42,
                    "time": 85.459968,
                    "velocity": 0.16535433070866143,
                    "duration": 0.5934720000000056
                },
                {
                    "name": "B1",
                    "midi": 35,
                    "time": 86.05344000000001,
                    "velocity": 0.16535433070866143,
                    "duration": 1.7804160000000167
                },
                {
                    "name": "F#2",
                    "midi": 42,
                    "time": 86.64691200000001,
                    "velocity": 0.16535433070866143,
                    "duration": 0.5934720000000056
                },
                {
                    "name": "F#2",
                    "midi": 42,
                    "time": 87.24038400000002,
                    "velocity": 0.16535433070866143,
                    "duration": 0.14836800000000494
                },
                {
                    "name": "B1",
                    "midi": 35,
                    "time": 87.83385600000003,
                    "velocity": 0.16535433070866143,
                    "duration": 1.7804160000000167
                },
                {
                    "name": "F#2",
                    "midi": 42,
                    "time": 88.42732800000003,
                    "velocity": 0.16535433070866143,
                    "duration": 0.5934720000000056
                },
                {
                    "name": "F#2",
                    "midi": 42,
                    "time": 89.02080000000004,
                    "velocity": 0.16535433070866143,
                    "duration": 0.5934720000000056
                },
                {
                    "name": "B1",
                    "midi": 35,
                    "time": 89.61427200000004,
                    "velocity": 0.16535433070866143,
                    "duration": 1.7804160000000167
                },
                {
                    "name": "F#2",
                    "midi": 42,
                    "time": 90.20774400000005,
                    "velocity": 0.16535433070866143,
                    "duration": 0.14836800000000494
                },
                {
                    "name": "F#2",
                    "midi": 42,
                    "time": 90.80121600000005,
                    "velocity": 0.16535433070866143,
                    "duration": 0.14836800000000494
                },
                {
                    "name": "A#4",
                    "midi": 70,
                    "time": 91.39468800000006,
                    "velocity": 0.16535433070866143,
                    "duration": 1.7804160000000024
                },
                {
                    "name": "D#4",
                    "midi": 63,
                    "time": 91.39468800000006,
                    "velocity": 0.16535433070866143,
                    "duration": 1.7804160000000024
                },
                {
                    "name": "G#3",
                    "midi": 56,
                    "time": 93.17510400000006,
                    "velocity": 0.16535433070866143,
                    "duration": 1.7804160000000024
                },
                {
                    "name": "D#4",
                    "midi": 63,
                    "time": 93.17510400000006,
                    "velocity": 0.16535433070866143,
                    "duration": 1.7804160000000024
                },
                {
                    "name": "D#4",
                    "midi": 63,
                    "time": 94.95552000000006,
                    "velocity": 0.16535433070866143,
                    "duration": 1.7804160000000024
                },
                {
                    "name": "A#4",
                    "midi": 70,
                    "time": 94.95552000000006,
                    "velocity": 0.16535433070866143,
                    "duration": 1.7804160000000024
                },
                {
                    "name": "A#3",
                    "midi": 58,
                    "time": 96.73593600000007,
                    "velocity": 0.16535433070866143,
                    "duration": 1.7804160000000024
                },
                {
                    "name": "F4",
                    "midi": 65,
                    "time": 96.73593600000007,
                    "velocity": 0.16535433070866143,
                    "duration": 1.7804160000000024
                },
                {
                    "name": "F5",
                    "midi": 77,
                    "time": 98.51635200000007,
                    "velocity": 0.16535433070866143,
                    "duration": 1.7804160000000024
                },
                {
                    "name": "A#4",
                    "midi": 70,
                    "time": 98.51635200000007,
                    "velocity": 0.16535433070866143,
                    "duration": 1.7804160000000024
                },
                {
                    "name": "D#4",
                    "midi": 63,
                    "time": 100.29676800000007,
                    "velocity": 0.16535433070866143,
                    "duration": 1.7804160000000024
                },
                {
                    "name": "A#4",
                    "midi": 70,
                    "time": 100.29676800000007,
                    "velocity": 0.16535433070866143,
                    "duration": 1.7804160000000024
                },
                {
                    "name": "A#4",
                    "midi": 70,
                    "time": 102.07718400000007,
                    "velocity": 0.16535433070866143,
                    "duration": 1.7804160000000024
                },
                {
                    "name": "F5",
                    "midi": 77,
                    "time": 102.07718400000007,
                    "velocity": 0.16535433070866143,
                    "duration": 1.7804160000000024
                },
                {
                    "name": "F4",
                    "midi": 65,
                    "time": 103.85760000000008,
                    "velocity": 0.16535433070866143,
                    "duration": 1.7804160000000024
                },
                {
                    "name": "C5",
                    "midi": 72,
                    "time": 103.85760000000008,
                    "velocity": 0.16535433070866143,
                    "duration": 1.7804160000000024
                },
                {
                    "name": "C4",
                    "midi": 60,
                    "time": 105.63801600000008,
                    "velocity": 0.16535433070866143,
                    "duration": 1.7804160000000024
                },
                {
                    "name": "F3",
                    "midi": 53,
                    "time": 105.63801600000008,
                    "velocity": 0.16535433070866143,
                    "duration": 1.7804160000000024
                },
                {
                    "name": "A#2",
                    "midi": 46,
                    "time": 107.41843200000008,
                    "velocity": 0.16535433070866143,
                    "duration": 1.7804160000000024
                },
                {
                    "name": "F3",
                    "midi": 53,
                    "time": 107.41843200000008,
                    "velocity": 0.16535433070866143,
                    "duration": 1.7804160000000024
                },
                {
                    "name": "F3",
                    "midi": 53,
                    "time": 109.19884800000008,
                    "velocity": 0.16535433070866143,
                    "duration": 1.7804160000000024
                },
                {
                    "name": "C4",
                    "midi": 60,
                    "time": 109.19884800000008,
                    "velocity": 0.16535433070866143,
                    "duration": 1.7804160000000024
                },
                {
                    "name": "C3",
                    "midi": 48,
                    "time": 110.97926400000009,
                    "velocity": 0.16535433070866143,
                    "duration": 1.7804160000000024
                },
                {
                    "name": "G3",
                    "midi": 55,
                    "time": 110.97926400000009,
                    "velocity": 0.16535433070866143,
                    "duration": 1.7804160000000024
                },
                {
                    "name": "G4",
                    "midi": 67,
                    "time": 112.75968000000009,
                    "velocity": 0.2204724409448819,
                    "duration": 1.7804160000000024
                },
                {
                    "name": "C4",
                    "midi": 60,
                    "time": 112.75968000000009,
                    "velocity": 0.2204724409448819,
                    "duration": 1.7804160000000024
                },
                {
                    "name": "F3",
                    "midi": 53,
                    "time": 114.54009600000009,
                    "velocity": 0.23622047244094488,
                    "duration": 1.7804160000000024
                },
                {
                    "name": "C4",
                    "midi": 60,
                    "time": 114.54009600000009,
                    "velocity": 0.23622047244094488,
                    "duration": 1.7804160000000024
                },
                {
                    "name": "G5",
                    "midi": 79,
                    "time": 116.3205120000001,
                    "velocity": 0.2755905511811024,
                    "duration": 1.7804160000000024
                },
                {
                    "name": "C5",
                    "midi": 72,
                    "time": 116.3205120000001,
                    "velocity": 0.2755905511811024,
                    "duration": 1.7804160000000024
                },
                {
                    "name": "F4",
                    "midi": 65,
                    "time": 118.1009280000001,
                    "velocity": 0.2992125984251969,
                    "duration": 1.7804160000000024
                },
                {
                    "name": "C5",
                    "midi": 72,
                    "time": 118.1009280000001,
                    "velocity": 0.2992125984251969,
                    "duration": 1.7804160000000024
                },
                {
                    "name": "G4",
                    "midi": 67,
                    "time": 119.8813440000001,
                    "velocity": 0.41732283464566927,
                    "duration": 0.5934720000000056
                },
                {
                    "name": "C4",
                    "midi": 60,
                    "time": 119.8813440000001,
                    "velocity": 0.3543307086614173,
                    "duration": 0.5934720000000056
                },
                {
                    "name": "A4",
                    "midi": 69,
                    "time": 120.4748160000001,
                    "velocity": 0.3937007874015748,
                    "duration": 1.186943999999997
                },
                {
                    "name": "F4",
                    "midi": 65,
                    "time": 120.4748160000001,
                    "velocity": 0.3228346456692913,
                    "duration": 1.186943999999997
                },
                {
                    "name": "G5",
                    "midi": 79,
                    "time": 121.6617600000001,
                    "velocity": 0.4881889763779528,
                    "duration": 0.5934720000000056
                },
                {
                    "name": "C5",
                    "midi": 72,
                    "time": 121.6617600000001,
                    "velocity": 0.4015748031496063,
                    "duration": 0.5934720000000056
                },
                {
                    "name": "A5",
                    "midi": 81,
                    "time": 122.2552320000001,
                    "velocity": 0.4409448818897638,
                    "duration": 1.186943999999997
                },
                {
                    "name": "F5",
                    "midi": 77,
                    "time": 122.2552320000001,
                    "velocity": 0.3700787401574803,
                    "duration": 1.186943999999997
                },
                {
                    "name": "G4",
                    "midi": 67,
                    "time": 123.4421760000001,
                    "velocity": 0.4566929133858268,
                    "duration": 0.5934720000000056
                },
                {
                    "name": "C4",
                    "midi": 60,
                    "time": 123.4421760000001,
                    "velocity": 0.3700787401574803,
                    "duration": 0.5934720000000056
                },
                {
                    "name": "A4",
                    "midi": 69,
                    "time": 124.03564800000011,
                    "velocity": 0.41732283464566927,
                    "duration": 1.186943999999997
                },
                {
                    "name": "F4",
                    "midi": 65,
                    "time": 124.03564800000011,
                    "velocity": 0.3543307086614173,
                    "duration": 1.186943999999997
                },
                {
                    "name": "G5",
                    "midi": 79,
                    "time": 125.2225920000001,
                    "velocity": 0.5354330708661418,
                    "duration": 0.5934720000000056
                },
                {
                    "name": "C5",
                    "midi": 72,
                    "time": 125.2225920000001,
                    "velocity": 0.4409448818897638,
                    "duration": 0.5934720000000056
                },
                {
                    "name": "A5",
                    "midi": 81,
                    "time": 125.81606400000011,
                    "velocity": 0.47244094488188976,
                    "duration": 1.1758164000000022
                },
                {
                    "name": "F5",
                    "midi": 77,
                    "time": 125.81606400000011,
                    "velocity": 0.4094488188976378,
                    "duration": 1.1758164000000022
                },
                {
                    "name": "F4",
                    "midi": 65,
                    "time": 127.00300800000011,
                    "velocity": 0.3700787401574803,
                    "duration": 1.1758164000000022
                },
                {
                    "name": "A4",
                    "midi": 69,
                    "time": 127.00300800000011,
                    "velocity": 0.4566929133858268,
                    "duration": 1.1758164000000022
                },
                {
                    "name": "F5",
                    "midi": 77,
                    "time": 128.18995200000012,
                    "velocity": 0.4094488188976378,
                    "duration": 1.1758164000000022
                },
                {
                    "name": "A5",
                    "midi": 81,
                    "time": 128.18995200000012,
                    "velocity": 0.47244094488188976,
                    "duration": 1.1758164000000022
                },
                {
                    "name": "F4",
                    "midi": 65,
                    "time": 129.37689600000013,
                    "velocity": 0.3700787401574803,
                    "duration": 1.1758164000000022
                },
                {
                    "name": "A4",
                    "midi": 69,
                    "time": 129.37689600000013,
                    "velocity": 0.4566929133858268,
                    "duration": 1.1758164000000022
                },
                {
                    "name": "F5",
                    "midi": 77,
                    "time": 130.56384000000014,
                    "velocity": 0.4094488188976378,
                    "duration": 1.1758164000000022
                },
                {
                    "name": "A5",
                    "midi": 81,
                    "time": 130.56384000000014,
                    "velocity": 0.47244094488188976,
                    "duration": 1.1758164000000022
                },
                {
                    "name": "F4",
                    "midi": 65,
                    "time": 131.75078400000015,
                    "velocity": 0.3700787401574803,
                    "duration": 1.1758164000000022
                },
                {
                    "name": "A4",
                    "midi": 69,
                    "time": 131.75078400000015,
                    "velocity": 0.4566929133858268,
                    "duration": 1.1758164000000022
                },
                {
                    "name": "F5",
                    "midi": 77,
                    "time": 132.93772800000016,
                    "velocity": 0.4094488188976378,
                    "duration": 1.1758164000000022
                },
                {
                    "name": "A5",
                    "midi": 81,
                    "time": 132.93772800000016,
                    "velocity": 0.47244094488188976,
                    "duration": 1.1758164000000022
                },
                {
                    "name": "B3",
                    "midi": 59,
                    "time": 134.12467200000017,
                    "velocity": 0.33070866141732286,
                    "duration": 1.1758164000000022
                },
                {
                    "name": "F#4",
                    "midi": 66,
                    "time": 134.12467200000017,
                    "velocity": 0.4015748031496063,
                    "duration": 1.1758164000000022
                },
                {
                    "name": "B4",
                    "midi": 71,
                    "time": 135.31161600000019,
                    "velocity": 0.36220472440944884,
                    "duration": 1.1758164000000022
                },
                {
                    "name": "F#5",
                    "midi": 78,
                    "time": 135.31161600000019,
                    "velocity": 0.4094488188976378,
                    "duration": 1.1758164000000022
                },
                {
                    "name": "B3",
                    "midi": 59,
                    "time": 136.4985600000002,
                    "velocity": 0.33070866141732286,
                    "duration": 1.1758164000000022
                },
                {
                    "name": "F#4",
                    "midi": 66,
                    "time": 136.4985600000002,
                    "velocity": 0.4015748031496063,
                    "duration": 1.1758164000000022
                },
                {
                    "name": "B4",
                    "midi": 71,
                    "time": 137.6855040000002,
                    "velocity": 0.36220472440944884,
                    "duration": 1.1758164000000022
                },
                {
                    "name": "F#5",
                    "midi": 78,
                    "time": 137.6855040000002,
                    "velocity": 0.4094488188976378,
                    "duration": 1.1758164000000022
                },
                {
                    "name": "B3",
                    "midi": 59,
                    "time": 138.87244800000022,
                    "velocity": 0.33070866141732286,
                    "duration": 1.1758164000000022
                },
                {
                    "name": "F#4",
                    "midi": 66,
                    "time": 138.87244800000022,
                    "velocity": 0.4015748031496063,
                    "duration": 1.1758164000000022
                },
                {
                    "name": "B4",
                    "midi": 71,
                    "time": 140.05939200000023,
                    "velocity": 0.36220472440944884,
                    "duration": 1.1758164000000022
                },
                {
                    "name": "F#5",
                    "midi": 78,
                    "time": 140.05939200000023,
                    "velocity": 0.4094488188976378,
                    "duration": 1.1758164000000022
                },
                {
                    "name": "B2",
                    "midi": 47,
                    "time": 141.24633600000024,
                    "velocity": 0.7401574803149606,
                    "duration": 0.2967360000000099
                },
                {
                    "name": "E2",
                    "midi": 40,
                    "time": 141.24633600000024,
                    "velocity": 0.6220472440944882,
                    "duration": 0.2967360000000099
                },
                {
                    "name": "B3",
                    "midi": 59,
                    "time": 141.83980800000026,
                    "velocity": 0.5590551181102362,
                    "duration": 1.186944000000011
                },
                {
                    "name": "E3",
                    "midi": 52,
                    "time": 141.83980800000026,
                    "velocity": 0.47244094488188976,
                    "duration": 1.186944000000011
                },
                {
                    "name": "B2",
                    "midi": 47,
                    "time": 143.02675200000027,
                    "velocity": 0.6299212598425197,
                    "duration": 0.2967360000000099
                },
                {
                    "name": "E2",
                    "midi": 40,
                    "time": 143.02675200000027,
                    "velocity": 0.5354330708661418,
                    "duration": 0.2967360000000099
                },
                {
                    "name": "B3",
                    "midi": 59,
                    "time": 143.6202240000003,
                    "velocity": 0.5511811023622047,
                    "duration": 1.186944000000011
                },
                {
                    "name": "E3",
                    "midi": 52,
                    "time": 143.6202240000003,
                    "velocity": 0.4645669291338583,
                    "duration": 1.186944000000011
                },
                {
                    "name": "B2",
                    "midi": 47,
                    "time": 144.8071680000003,
                    "velocity": 0.5905511811023622,
                    "duration": 0.2967360000000099
                },
                {
                    "name": "E2",
                    "midi": 40,
                    "time": 144.8071680000003,
                    "velocity": 0.49606299212598426,
                    "duration": 0.2967360000000099
                },
                {
                    "name": "B3",
                    "midi": 59,
                    "time": 145.40064000000032,
                    "velocity": 0.5590551181102362,
                    "duration": 1.186944000000011
                },
                {
                    "name": "E3",
                    "midi": 52,
                    "time": 145.40064000000032,
                    "velocity": 0.47244094488188976,
                    "duration": 1.186944000000011
                },
                {
                    "name": "B2",
                    "midi": 47,
                    "time": 146.58758400000033,
                    "velocity": 0.6299212598425197,
                    "duration": 0.2967360000000099
                },
                {
                    "name": "E2",
                    "midi": 40,
                    "time": 146.58758400000033,
                    "velocity": 0.5354330708661418,
                    "duration": 0.2967360000000099
                },
                {
                    "name": "B3",
                    "midi": 59,
                    "time": 147.18105600000035,
                    "velocity": 0.5511811023622047,
                    "duration": 1.186944000000011
                },
                {
                    "name": "E3",
                    "midi": 52,
                    "time": 147.18105600000035,
                    "velocity": 0.4645669291338583,
                    "duration": 1.186944000000011
                },
                {
                    "name": "B2",
                    "midi": 47,
                    "time": 148.36800000000036,
                    "velocity": 0.49606299212598426,
                    "duration": 0.2967360000000099
                },
                {
                    "name": "E2",
                    "midi": 40,
                    "time": 148.36800000000036,
                    "velocity": 0.4094488188976378,
                    "duration": 0.2967360000000099
                },
                {
                    "name": "B3",
                    "midi": 59,
                    "time": 148.96147200000038,
                    "velocity": 0.4645669291338583,
                    "duration": 1.186944000000011
                },
                {
                    "name": "E3",
                    "midi": 52,
                    "time": 148.96147200000038,
                    "velocity": 0.3937007874015748,
                    "duration": 1.186944000000011
                },
                {
                    "name": "B2",
                    "midi": 47,
                    "time": 150.1484160000004,
                    "velocity": 0.5118110236220472,
                    "duration": 0.2967360000000099
                },
                {
                    "name": "E2",
                    "midi": 40,
                    "time": 150.1484160000004,
                    "velocity": 0.4330708661417323,
                    "duration": 0.2967360000000099
                },
                {
                    "name": "B3",
                    "midi": 59,
                    "time": 150.74188800000042,
                    "velocity": 0.44881889763779526,
                    "duration": 1.186944000000011
                },
                {
                    "name": "E3",
                    "midi": 52,
                    "time": 150.74188800000042,
                    "velocity": 0.3858267716535433,
                    "duration": 1.186944000000011
                },
                {
                    "name": "B2",
                    "midi": 47,
                    "time": 151.92883200000043,
                    "velocity": 0.49606299212598426,
                    "duration": 0.2967360000000099
                },
                {
                    "name": "E2",
                    "midi": 40,
                    "time": 151.92883200000043,
                    "velocity": 0.4094488188976378,
                    "duration": 0.2967360000000099
                },
                {
                    "name": "B3",
                    "midi": 59,
                    "time": 152.52230400000045,
                    "velocity": 0.4645669291338583,
                    "duration": 1.186944000000011
                },
                {
                    "name": "E3",
                    "midi": 52,
                    "time": 152.52230400000045,
                    "velocity": 0.3937007874015748,
                    "duration": 1.186944000000011
                },
                {
                    "name": "B2",
                    "midi": 47,
                    "time": 153.70924800000046,
                    "velocity": 0.5118110236220472,
                    "duration": 0.2967360000000099
                },
                {
                    "name": "E2",
                    "midi": 40,
                    "time": 153.70924800000046,
                    "velocity": 0.4330708661417323,
                    "duration": 0.2967360000000099
                },
                {
                    "name": "B3",
                    "midi": 59,
                    "time": 154.30272000000048,
                    "velocity": 0.4015748031496063,
                    "duration": 1.186944000000011
                },
                {
                    "name": "E3",
                    "midi": 52,
                    "time": 154.30272000000048,
                    "velocity": 0.3464566929133858,
                    "duration": 1.186944000000011
                },
                {
                    "name": "B1",
                    "midi": 35,
                    "time": 155.4896640000005,
                    "velocity": 0.16535433070866143,
                    "duration": 1.780415999999974
                },
                {
                    "name": "F#2",
                    "midi": 42,
                    "time": 156.08313600000048,
                    "velocity": 0.16535433070866143,
                    "duration": 0.5934719999999913
                },
                {
                    "name": "F#2",
                    "midi": 42,
                    "time": 156.67660800000047,
                    "velocity": 0.16535433070866143,
                    "duration": 0.5934719999999913
                },
                {
                    "name": "B1",
                    "midi": 35,
                    "time": 157.27008000000046,
                    "velocity": 0.16535433070866143,
                    "duration": 1.780415999999974
                },
                {
                    "name": "F#2",
                    "midi": 42,
                    "time": 157.86355200000045,
                    "velocity": 0.16535433070866143,
                    "duration": 0.5934719999999913
                },
                {
                    "name": "F#2",
                    "midi": 42,
                    "time": 158.45702400000044,
                    "velocity": 0.16535433070866143,
                    "duration": 0.14836800000000494
                },
                {
                    "name": "B1",
                    "midi": 35,
                    "time": 159.05049600000044,
                    "velocity": 0.16535433070866143,
                    "duration": 1.780415999999974
                },
                {
                    "name": "F#2",
                    "midi": 42,
                    "time": 159.64396800000043,
                    "velocity": 0.16535433070866143,
                    "duration": 0.5934719999999913
                },
                {
                    "name": "F#2",
                    "midi": 42,
                    "time": 160.23744000000042,
                    "velocity": 0.16535433070866143,
                    "duration": 0.5934719999999913
                },
                {
                    "name": "B1",
                    "midi": 35,
                    "time": 160.8309120000004,
                    "velocity": 0.16535433070866143,
                    "duration": 1.780415999999974
                },
                {
                    "name": "F#2",
                    "midi": 42,
                    "time": 161.4243840000004,
                    "velocity": 0.16535433070866143,
                    "duration": 0.14836800000000494
                },
                {
                    "name": "F#2",
                    "midi": 42,
                    "time": 162.0178560000004,
                    "velocity": 0.16535433070866143,
                    "duration": 0.14836800000000494
                },
                {
                    "name": "B1",
                    "midi": 35,
                    "time": 162.61132800000038,
                    "velocity": 0.16535433070866143,
                    "duration": 1.780415999999974
                },
                {
                    "name": "F#2",
                    "midi": 42,
                    "time": 163.20480000000038,
                    "velocity": 0.16535433070866143,
                    "duration": 0.5934719999999913
                },
                {
                    "name": "F#2",
                    "midi": 42,
                    "time": 163.79827200000037,
                    "velocity": 0.16535433070866143,
                    "duration": 0.5934719999999913
                },
                {
                    "name": "B1",
                    "midi": 35,
                    "time": 164.39174400000036,
                    "velocity": 0.16535433070866143,
                    "duration": 1.780415999999974
                },
                {
                    "name": "F#2",
                    "midi": 42,
                    "time": 164.98521600000035,
                    "velocity": 0.16535433070866143,
                    "duration": 0.5934719999999913
                },
                {
                    "name": "F#2",
                    "midi": 42,
                    "time": 165.57868800000034,
                    "velocity": 0.16535433070866143,
                    "duration": 0.14836800000000494
                },
                {
                    "name": "B1",
                    "midi": 35,
                    "time": 166.17216000000033,
                    "velocity": 0.16535433070866143,
                    "duration": 1.780415999999974
                },
                {
                    "name": "F#2",
                    "midi": 42,
                    "time": 166.76563200000032,
                    "velocity": 0.16535433070866143,
                    "duration": 0.5934719999999913
                },
                {
                    "name": "F#2",
                    "midi": 42,
                    "time": 167.35910400000031,
                    "velocity": 0.16535433070866143,
                    "duration": 0.5934719999999913
                },
                {
                    "name": "B1",
                    "midi": 35,
                    "time": 167.9525760000003,
                    "velocity": 0.16535433070866143,
                    "duration": 1.780415999999974
                },
                {
                    "name": "F#2",
                    "midi": 42,
                    "time": 168.5460480000003,
                    "velocity": 0.16535433070866143,
                    "duration": 0.14836800000000494
                },
                {
                    "name": "F#2",
                    "midi": 42,
                    "time": 169.1395200000003,
                    "velocity": 0.16535433070866143,
                    "duration": 0.14836800000000494
                },
                {
                    "name": "A#4",
                    "midi": 70,
                    "time": 169.73299200000028,
                    "velocity": 0.16535433070866143,
                    "duration": 1.7804160000000024
                },
                {
                    "name": "D#4",
                    "midi": 63,
                    "time": 169.73299200000028,
                    "velocity": 0.16535433070866143,
                    "duration": 1.7804160000000024
                },
                {
                    "name": "G#3",
                    "midi": 56,
                    "time": 171.51340800000028,
                    "velocity": 0.16535433070866143,
                    "duration": 1.7804160000000024
                },
                {
                    "name": "D#4",
                    "midi": 63,
                    "time": 171.51340800000028,
                    "velocity": 0.16535433070866143,
                    "duration": 1.7804160000000024
                },
                {
                    "name": "D#4",
                    "midi": 63,
                    "time": 173.29382400000028,
                    "velocity": 0.16535433070866143,
                    "duration": 1.7804160000000024
                },
                {
                    "name": "A#4",
                    "midi": 70,
                    "time": 173.29382400000028,
                    "velocity": 0.16535433070866143,
                    "duration": 1.7804160000000024
                },
                {
                    "name": "A#3",
                    "midi": 58,
                    "time": 175.0742400000003,
                    "velocity": 0.16535433070866143,
                    "duration": 1.7804160000000024
                },
                {
                    "name": "F4",
                    "midi": 65,
                    "time": 175.0742400000003,
                    "velocity": 0.16535433070866143,
                    "duration": 1.7804160000000024
                },
                {
                    "name": "F5",
                    "midi": 77,
                    "time": 176.8546560000003,
                    "velocity": 0.16535433070866143,
                    "duration": 1.7804160000000024
                },
                {
                    "name": "A#4",
                    "midi": 70,
                    "time": 176.8546560000003,
                    "velocity": 0.16535433070866143,
                    "duration": 1.7804160000000024
                },
                {
                    "name": "D#4",
                    "midi": 63,
                    "time": 178.6350720000003,
                    "velocity": 0.16535433070866143,
                    "duration": 1.7804160000000024
                },
                {
                    "name": "A#4",
                    "midi": 70,
                    "time": 178.6350720000003,
                    "velocity": 0.16535433070866143,
                    "duration": 1.7804160000000024
                },
                {
                    "name": "A#4",
                    "midi": 70,
                    "time": 180.4154880000003,
                    "velocity": 0.16535433070866143,
                    "duration": 1.7804160000000024
                },
                {
                    "name": "F5",
                    "midi": 77,
                    "time": 180.4154880000003,
                    "velocity": 0.16535433070866143,
                    "duration": 1.7804160000000024
                },
                {
                    "name": "F4",
                    "midi": 65,
                    "time": 182.1959040000003,
                    "velocity": 0.16535433070866143,
                    "duration": 1.7804160000000024
                },
                {
                    "name": "C5",
                    "midi": 72,
                    "time": 182.1959040000003,
                    "velocity": 0.16535433070866143,
                    "duration": 1.7804160000000024
                },
                {
                    "name": "C4",
                    "midi": 60,
                    "time": 183.9763200000003,
                    "velocity": 0.16535433070866143,
                    "duration": 1.7804160000000024
                },
                {
                    "name": "F3",
                    "midi": 53,
                    "time": 183.9763200000003,
                    "velocity": 0.16535433070866143,
                    "duration": 1.7804160000000024
                },
                {
                    "name": "A#2",
                    "midi": 46,
                    "time": 185.7567360000003,
                    "velocity": 0.16535433070866143,
                    "duration": 1.7804160000000024
                },
                {
                    "name": "F3",
                    "midi": 53,
                    "time": 185.7567360000003,
                    "velocity": 0.16535433070866143,
                    "duration": 1.7804160000000024
                },
                {
                    "name": "F3",
                    "midi": 53,
                    "time": 187.5371520000003,
                    "velocity": 0.16535433070866143,
                    "duration": 1.7804160000000024
                },
                {
                    "name": "C4",
                    "midi": 60,
                    "time": 187.5371520000003,
                    "velocity": 0.16535433070866143,
                    "duration": 1.7804160000000024
                },
                {
                    "name": "C3",
                    "midi": 48,
                    "time": 189.3175680000003,
                    "velocity": 0.16535433070866143,
                    "duration": 1.7804160000000024
                },
                {
                    "name": "G3",
                    "midi": 55,
                    "time": 189.3175680000003,
                    "velocity": 0.16535433070866143,
                    "duration": 1.7804160000000024
                },
                {
                    "name": "G4",
                    "midi": 67,
                    "time": 191.0979840000003,
                    "velocity": 0.2204724409448819,
                    "duration": 1.7804160000000024
                },
                {
                    "name": "C4",
                    "midi": 60,
                    "time": 191.0979840000003,
                    "velocity": 0.2204724409448819,
                    "duration": 1.7804160000000024
                },
                {
                    "name": "F3",
                    "midi": 53,
                    "time": 192.8784000000003,
                    "velocity": 0.23622047244094488,
                    "duration": 1.7804160000000024
                },
                {
                    "name": "C4",
                    "midi": 60,
                    "time": 192.8784000000003,
                    "velocity": 0.23622047244094488,
                    "duration": 1.7804160000000024
                },
                {
                    "name": "G5",
                    "midi": 79,
                    "time": 194.65881600000031,
                    "velocity": 0.2755905511811024,
                    "duration": 1.7804160000000024
                },
                {
                    "name": "C5",
                    "midi": 72,
                    "time": 194.65881600000031,
                    "velocity": 0.2755905511811024,
                    "duration": 1.7804160000000024
                },
                {
                    "name": "F4",
                    "midi": 65,
                    "time": 196.43923200000032,
                    "velocity": 0.2992125984251969,
                    "duration": 1.7804160000000024
                },
                {
                    "name": "C5",
                    "midi": 72,
                    "time": 196.43923200000032,
                    "velocity": 0.2992125984251969,
                    "duration": 1.7804160000000024
                },
                {
                    "name": "G4",
                    "midi": 67,
                    "time": 198.21964800000032,
                    "velocity": 0.41732283464566927,
                    "duration": 0.5934719999999913
                },
                {
                    "name": "C4",
                    "midi": 60,
                    "time": 198.21964800000032,
                    "velocity": 0.3543307086614173,
                    "duration": 0.5934719999999913
                },
                {
                    "name": "A4",
                    "midi": 69,
                    "time": 198.8131200000003,
                    "velocity": 0.3937007874015748,
                    "duration": 1.186944000000011
                },
                {
                    "name": "F4",
                    "midi": 65,
                    "time": 198.8131200000003,
                    "velocity": 0.3228346456692913,
                    "duration": 1.186944000000011
                },
                {
                    "name": "G5",
                    "midi": 79,
                    "time": 200.00006400000032,
                    "velocity": 0.4881889763779528,
                    "duration": 0.5934719999999913
                },
                {
                    "name": "C5",
                    "midi": 72,
                    "time": 200.00006400000032,
                    "velocity": 0.4015748031496063,
                    "duration": 0.5934719999999913
                },
                {
                    "name": "A5",
                    "midi": 81,
                    "time": 200.5935360000003,
                    "velocity": 0.4409448818897638,
                    "duration": 1.186944000000011
                },
                {
                    "name": "F5",
                    "midi": 77,
                    "time": 200.5935360000003,
                    "velocity": 0.3700787401574803,
                    "duration": 1.186944000000011
                },
                {
                    "name": "G4",
                    "midi": 67,
                    "time": 201.78048000000032,
                    "velocity": 0.4566929133858268,
                    "duration": 0.5934719999999913
                },
                {
                    "name": "C4",
                    "midi": 60,
                    "time": 201.78048000000032,
                    "velocity": 0.3700787401574803,
                    "duration": 0.5934719999999913
                },
                {
                    "name": "A4",
                    "midi": 69,
                    "time": 202.37395200000032,
                    "velocity": 0.41732283464566927,
                    "duration": 1.186944000000011
                },
                {
                    "name": "F4",
                    "midi": 65,
                    "time": 202.37395200000032,
                    "velocity": 0.3543307086614173,
                    "duration": 1.186944000000011
                },
                {
                    "name": "G5",
                    "midi": 79,
                    "time": 203.56089600000033,
                    "velocity": 0.5354330708661418,
                    "duration": 0.5934719999999913
                },
                {
                    "name": "C5",
                    "midi": 72,
                    "time": 203.56089600000033,
                    "velocity": 0.4409448818897638,
                    "duration": 0.5934719999999913
                },
                {
                    "name": "A5",
                    "midi": 81,
                    "time": 204.15436800000032,
                    "velocity": 0.47244094488188976,
                    "duration": 1.1758164000000022
                },
                {
                    "name": "F5",
                    "midi": 77,
                    "time": 204.15436800000032,
                    "velocity": 0.4094488188976378,
                    "duration": 1.1758164000000022
                },
                {
                    "name": "F4",
                    "midi": 65,
                    "time": 205.34131200000033,
                    "velocity": 0.3700787401574803,
                    "duration": 1.1758164000000022
                },
                {
                    "name": "A4",
                    "midi": 69,
                    "time": 205.34131200000033,
                    "velocity": 0.4566929133858268,
                    "duration": 1.1758164000000022
                },
                {
                    "name": "F5",
                    "midi": 77,
                    "time": 206.52825600000034,
                    "velocity": 0.4094488188976378,
                    "duration": 1.1758164000000022
                },
                {
                    "name": "A5",
                    "midi": 81,
                    "time": 206.52825600000034,
                    "velocity": 0.47244094488188976,
                    "duration": 1.1758164000000022
                },
                {
                    "name": "F4",
                    "midi": 65,
                    "time": 207.71520000000035,
                    "velocity": 0.3700787401574803,
                    "duration": 1.1758164000000022
                },
                {
                    "name": "A4",
                    "midi": 69,
                    "time": 207.71520000000035,
                    "velocity": 0.4566929133858268,
                    "duration": 1.1758164000000022
                },
                {
                    "name": "F5",
                    "midi": 77,
                    "time": 208.90214400000036,
                    "velocity": 0.4094488188976378,
                    "duration": 1.1758164000000022
                },
                {
                    "name": "A5",
                    "midi": 81,
                    "time": 208.90214400000036,
                    "velocity": 0.47244094488188976,
                    "duration": 1.1758164000000022
                },
                {
                    "name": "F4",
                    "midi": 65,
                    "time": 210.08908800000037,
                    "velocity": 0.3700787401574803,
                    "duration": 1.1758164000000022
                },
                {
                    "name": "A4",
                    "midi": 69,
                    "time": 210.08908800000037,
                    "velocity": 0.4566929133858268,
                    "duration": 1.1758164000000022
                },
                {
                    "name": "F5",
                    "midi": 77,
                    "time": 211.27603200000038,
                    "velocity": 0.4094488188976378,
                    "duration": 1.1758164000000022
                },
                {
                    "name": "A5",
                    "midi": 81,
                    "time": 211.27603200000038,
                    "velocity": 0.47244094488188976,
                    "duration": 1.1758164000000022
                },
                {
                    "name": "B3",
                    "midi": 59,
                    "time": 212.4629760000004,
                    "velocity": 0.33070866141732286,
                    "duration": 1.1758164000000022
                },
                {
                    "name": "F#4",
                    "midi": 66,
                    "time": 212.4629760000004,
                    "velocity": 0.4015748031496063,
                    "duration": 1.1758164000000022
                },
                {
                    "name": "B4",
                    "midi": 71,
                    "time": 213.6499200000004,
                    "velocity": 0.36220472440944884,
                    "duration": 1.1758164000000022
                },
                {
                    "name": "F#5",
                    "midi": 78,
                    "time": 213.6499200000004,
                    "velocity": 0.4094488188976378,
                    "duration": 1.1758164000000022
                },
                {
                    "name": "B3",
                    "midi": 59,
                    "time": 214.83686400000042,
                    "velocity": 0.33070866141732286,
                    "duration": 1.1758164000000022
                },
                {
                    "name": "F#4",
                    "midi": 66,
                    "time": 214.83686400000042,
                    "velocity": 0.4015748031496063,
                    "duration": 1.1758164000000022
                },
                {
                    "name": "B4",
                    "midi": 71,
                    "time": 216.02380800000043,
                    "velocity": 0.36220472440944884,
                    "duration": 1.1758164000000022
                },
                {
                    "name": "F#5",
                    "midi": 78,
                    "time": 216.02380800000043,
                    "velocity": 0.4094488188976378,
                    "duration": 1.1758164000000022
                },
                {
                    "name": "B3",
                    "midi": 59,
                    "time": 217.21075200000044,
                    "velocity": 0.33070866141732286,
                    "duration": 1.1758164000000022
                },
                {
                    "name": "F#4",
                    "midi": 66,
                    "time": 217.21075200000044,
                    "velocity": 0.4015748031496063,
                    "duration": 1.1758164000000022
                },
                {
                    "name": "B4",
                    "midi": 71,
                    "time": 218.39769600000045,
                    "velocity": 0.36220472440944884,
                    "duration": 1.1758164000000022
                },
                {
                    "name": "F#5",
                    "midi": 78,
                    "time": 218.39769600000045,
                    "velocity": 0.4094488188976378,
                    "duration": 1.1758164000000022
                },
                {
                    "name": "B2",
                    "midi": 47,
                    "time": 219.58464000000046,
                    "velocity": 0.7401574803149606,
                    "duration": 0.2967360000000099
                },
                {
                    "name": "E2",
                    "midi": 40,
                    "time": 219.58464000000046,
                    "velocity": 0.6220472440944882,
                    "duration": 0.2967360000000099
                },
                {
                    "name": "B3",
                    "midi": 59,
                    "time": 220.17811200000048,
                    "velocity": 0.5590551181102362,
                    "duration": 1.186944000000011
                },
                {
                    "name": "E3",
                    "midi": 52,
                    "time": 220.17811200000048,
                    "velocity": 0.47244094488188976,
                    "duration": 1.186944000000011
                },
                {
                    "name": "B2",
                    "midi": 47,
                    "time": 221.3650560000005,
                    "velocity": 0.6299212598425197,
                    "duration": 0.2967360000000099
                },
                {
                    "name": "E2",
                    "midi": 40,
                    "time": 221.3650560000005,
                    "velocity": 0.5354330708661418,
                    "duration": 0.2967360000000099
                },
                {
                    "name": "B3",
                    "midi": 59,
                    "time": 221.9585280000005,
                    "velocity": 0.5511811023622047,
                    "duration": 1.186944000000011
                },
                {
                    "name": "E3",
                    "midi": 52,
                    "time": 221.9585280000005,
                    "velocity": 0.4645669291338583,
                    "duration": 1.186944000000011
                },
                {
                    "name": "B2",
                    "midi": 47,
                    "time": 223.14547200000052,
                    "velocity": 0.5905511811023622,
                    "duration": 0.2967360000000099
                },
                {
                    "name": "E2",
                    "midi": 40,
                    "time": 223.14547200000052,
                    "velocity": 0.49606299212598426,
                    "duration": 0.2967360000000099
                },
                {
                    "name": "B3",
                    "midi": 59,
                    "time": 223.73894400000054,
                    "velocity": 0.5590551181102362,
                    "duration": 1.186944000000011
                },
                {
                    "name": "E3",
                    "midi": 52,
                    "time": 223.73894400000054,
                    "velocity": 0.47244094488188976,
                    "duration": 1.186944000000011
                },
                {
                    "name": "B2",
                    "midi": 47,
                    "time": 224.92588800000055,
                    "velocity": 0.6299212598425197,
                    "duration": 0.2967360000000099
                },
                {
                    "name": "E2",
                    "midi": 40,
                    "time": 224.92588800000055,
                    "velocity": 0.5354330708661418,
                    "duration": 0.2967360000000099
                },
                {
                    "name": "B3",
                    "midi": 59,
                    "time": 225.51936000000057,
                    "velocity": 0.5511811023622047,
                    "duration": 1.186944000000011
                },
                {
                    "name": "E3",
                    "midi": 52,
                    "time": 225.51936000000057,
                    "velocity": 0.4645669291338583,
                    "duration": 1.186944000000011
                },
                {
                    "name": "B2",
                    "midi": 47,
                    "time": 226.70630400000059,
                    "velocity": 0.49606299212598426,
                    "duration": 0.2967360000000099
                },
                {
                    "name": "E2",
                    "midi": 40,
                    "time": 226.70630400000059,
                    "velocity": 0.4094488188976378,
                    "duration": 0.2967360000000099
                },
                {
                    "name": "B3",
                    "midi": 59,
                    "time": 227.2997760000006,
                    "velocity": 0.4645669291338583,
                    "duration": 1.186944000000011
                },
                {
                    "name": "E3",
                    "midi": 52,
                    "time": 227.2997760000006,
                    "velocity": 0.3937007874015748,
                    "duration": 1.186944000000011
                },
                {
                    "name": "B2",
                    "midi": 47,
                    "time": 228.48672000000062,
                    "velocity": 0.5118110236220472,
                    "duration": 0.2967360000000099
                },
                {
                    "name": "E2",
                    "midi": 40,
                    "time": 228.48672000000062,
                    "velocity": 0.4330708661417323,
                    "duration": 0.2967360000000099
                },
                {
                    "name": "B3",
                    "midi": 59,
                    "time": 229.08019200000064,
                    "velocity": 0.44881889763779526,
                    "duration": 1.186944000000011
                },
                {
                    "name": "E3",
                    "midi": 52,
                    "time": 229.08019200000064,
                    "velocity": 0.3858267716535433,
                    "duration": 1.186944000000011
                },
                {
                    "name": "B2",
                    "midi": 47,
                    "time": 230.26713600000065,
                    "velocity": 0.49606299212598426,
                    "duration": 0.2967360000000099
                },
                {
                    "name": "E2",
                    "midi": 40,
                    "time": 230.26713600000065,
                    "velocity": 0.4094488188976378,
                    "duration": 0.2967360000000099
                },
                {
                    "name": "B3",
                    "midi": 59,
                    "time": 230.86060800000067,
                    "velocity": 0.4645669291338583,
                    "duration": 1.186944000000011
                },
                {
                    "name": "E3",
                    "midi": 52,
                    "time": 230.86060800000067,
                    "velocity": 0.3937007874015748,
                    "duration": 1.186944000000011
                },
                {
                    "name": "B2",
                    "midi": 47,
                    "time": 232.04755200000068,
                    "velocity": 0.5118110236220472,
                    "duration": 0.2967360000000099
                },
                {
                    "name": "E2",
                    "midi": 40,
                    "time": 232.04755200000068,
                    "velocity": 0.4330708661417323,
                    "duration": 0.2967360000000099
                },
                {
                    "name": "B3",
                    "midi": 59,
                    "time": 232.6410240000007,
                    "velocity": 0.4015748031496063,
                    "duration": 1.186944000000011
                },
                {
                    "name": "E3",
                    "midi": 52,
                    "time": 232.6410240000007,
                    "velocity": 0.3464566929133858,
                    "duration": 1.186944000000011
                },
                {
                    "name": "E2",
                    "midi": 40,
                    "time": 235.6083840000007,
                    "velocity": 0.23622047244094488,
                    "duration": 1.7804160000000024
                },
                {
                    "name": "B2",
                    "midi": 47,
                    "time": 236.2018560000007,
                    "velocity": 0.2755905511811024,
                    "duration": 1.186944000000011
                },
                {
                    "name": "E2",
                    "midi": 40,
                    "time": 237.3888000000007,
                    "velocity": 0.25984251968503935,
                    "duration": 1.7804160000000024
                },
                {
                    "name": "B2",
                    "midi": 47,
                    "time": 237.9822720000007,
                    "velocity": 0.23622047244094488,
                    "duration": 1.186944000000011
                },
                {
                    "name": "E2",
                    "midi": 40,
                    "time": 240.94963200000072,
                    "velocity": 0.1968503937007874,
                    "duration": 1.7804160000000024
                },
                {
                    "name": "B2",
                    "midi": 47,
                    "time": 241.5431040000007,
                    "velocity": 0.2283464566929134,
                    "duration": 1.186944000000011
                },
                {
                    "name": "E2",
                    "midi": 40,
                    "time": 244.51046400000072,
                    "velocity": 0.16535433070866143,
                    "duration": 1.7804160000000024
                },
                {
                    "name": "B2",
                    "midi": 47,
                    "time": 245.10393600000072,
                    "velocity": 0.1889763779527559,
                    "duration": 1.186944000000011
                },
                {
                    "name": "E4",
                    "midi": 64,
                    "time": 248.07129600000073,
                    "velocity": 0.23622047244094488,
                    "duration": 1.1869439999999827
                },
                {
                    "name": "D4",
                    "midi": 62,
                    "time": 248.07129600000073,
                    "velocity": 0.1968503937007874,
                    "duration": 0.5934719999999913
                },
                {
                    "name": "C#4",
                    "midi": 61,
                    "time": 248.66476800000072,
                    "velocity": 0.23622047244094488,
                    "duration": 0.5934719999999913
                },
                {
                    "name": "C4",
                    "midi": 60,
                    "time": 249.2582400000007,
                    "velocity": 0.1732283464566929,
                    "duration": 0.5934719999999913
                },
                {
                    "name": "E4",
                    "midi": 64,
                    "time": 249.2582400000007,
                    "velocity": 0.2047244094488189,
                    "duration": 0.5934719999999913
                },
                {
                    "name": "B3",
                    "midi": 59,
                    "time": 249.8517120000007,
                    "velocity": 0.1968503937007874,
                    "duration": 0.5934719999999913
                },
                {
                    "name": "D4",
                    "midi": 62,
                    "time": 249.8517120000007,
                    "velocity": 0.23622047244094488,
                    "duration": 0.5934719999999913
                },
                {
                    "name": "A3",
                    "midi": 57,
                    "time": 250.4451840000007,
                    "velocity": 0.2125984251968504,
                    "duration": 0.5934719999999913
                },
                {
                    "name": "C4",
                    "midi": 60,
                    "time": 250.4451840000007,
                    "velocity": 0.25196850393700787,
                    "duration": 0.5934719999999913
                },
                {
                    "name": "G3",
                    "midi": 55,
                    "time": 251.03865600000069,
                    "velocity": 0.1968503937007874,
                    "duration": 0.5934719999999913
                },
                {
                    "name": "B3",
                    "midi": 59,
                    "time": 251.03865600000069,
                    "velocity": 0.23622047244094488,
                    "duration": 0.5934719999999913
                },
                {
                    "name": "F#3",
                    "midi": 54,
                    "time": 251.63212800000068,
                    "velocity": 0.1732283464566929,
                    "duration": 0.5934719999999913
                },
                {
                    "name": "A3",
                    "midi": 57,
                    "time": 251.63212800000068,
                    "velocity": 0.2047244094488189,
                    "duration": 0.5934719999999913
                },
                {
                    "name": "F3",
                    "midi": 53,
                    "time": 252.22560000000067,
                    "velocity": 0.1968503937007874,
                    "duration": 0.5934719999999913
                },
                {
                    "name": "C4",
                    "midi": 60,
                    "time": 252.22560000000067,
                    "velocity": 0.23622047244094488,
                    "duration": 0.5934719999999913
                },
                {
                    "name": "B3",
                    "midi": 59,
                    "time": 252.81907200000066,
                    "velocity": 0.2047244094488189,
                    "duration": 0.5934719999999913
                },
                {
                    "name": "C3",
                    "midi": 48,
                    "time": 252.81907200000066,
                    "velocity": 0.1732283464566929,
                    "duration": 0.5934719999999913
                },
                {
                    "name": "D3",
                    "midi": 50,
                    "time": 253.41254400000065,
                    "velocity": 0.1968503937007874,
                    "duration": 0.5934719999999913
                },
                {
                    "name": "A3",
                    "midi": 57,
                    "time": 253.41254400000065,
                    "velocity": 0.23622047244094488,
                    "duration": 0.5934719999999913
                },
                {
                    "name": "G3",
                    "midi": 55,
                    "time": 254.00601600000064,
                    "velocity": 0.2047244094488189,
                    "duration": 0.5934719999999913
                },
                {
                    "name": "A2",
                    "midi": 45,
                    "time": 254.00601600000064,
                    "velocity": 0.1732283464566929,
                    "duration": 0.5934719999999913
                },
                {
                    "name": "F#3",
                    "midi": 54,
                    "time": 254.59948800000063,
                    "velocity": 0.2125984251968504,
                    "duration": 0.5934719999999913
                },
                {
                    "name": "B2",
                    "midi": 47,
                    "time": 254.59948800000063,
                    "velocity": 0.1732283464566929,
                    "duration": 0.5934719999999913
                },
                {
                    "name": "E2",
                    "midi": 40,
                    "time": 255.19296000000062,
                    "velocity": 0.1968503937007874,
                    "duration": 0.5934719999999913
                },
                {
                    "name": "E3",
                    "midi": 52,
                    "time": 255.78643200000062,
                    "velocity": 0.36220472440944884,
                    "duration": 2.967360000000099
                },
                {
                    "name": "F#3",
                    "midi": 54,
                    "time": 256.37990400000064,
                    "velocity": 0.1968503937007874,
                    "duration": 0.5934720000000198
                },
                {
                    "name": "B3",
                    "midi": 59,
                    "time": 256.97337600000066,
                    "velocity": 0.2755905511811024,
                    "duration": 0.2967360000000099
                },
                {
                    "name": "A3",
                    "midi": 57,
                    "time": 257.27011200000067,
                    "velocity": 0.23622047244094488,
                    "duration": 0.2967360000000099
                },
                {
                    "name": "D4",
                    "midi": 62,
                    "time": 257.5668480000007,
                    "velocity": 0.23622047244094488,
                    "duration": 0.2967360000000099
                },
                {
                    "name": "C4",
                    "midi": 60,
                    "time": 257.8635840000007,
                    "velocity": 0.1889763779527559,
                    "duration": 0.2967360000000099
                },
                {
                    "name": "B3",
                    "midi": 59,
                    "time": 258.1603200000007,
                    "velocity": 0.23622047244094488,
                    "duration": 0.5934720000000198
                },
                {
                    "name": "F#3",
                    "midi": 54,
                    "time": 258.7537920000007,
                    "velocity": 0.1732283464566929,
                    "duration": 0.5934720000000198
                },
                {
                    "name": "E4",
                    "midi": 64,
                    "time": 258.7537920000007,
                    "velocity": 0.2047244094488189,
                    "duration": 0.5934720000000198
                },
                {
                    "name": "G3",
                    "midi": 55,
                    "time": 259.34726400000073,
                    "velocity": 0.1968503937007874,
                    "duration": 0.5934720000000198
                },
                {
                    "name": "B3",
                    "midi": 59,
                    "time": 259.34726400000073,
                    "velocity": 0.23622047244094488,
                    "duration": 0.5934720000000198
                },
                {
                    "name": "A3",
                    "midi": 57,
                    "time": 259.94073600000075,
                    "velocity": 0.2125984251968504,
                    "duration": 0.5934720000000198
                },
                {
                    "name": "C4",
                    "midi": 60,
                    "time": 259.94073600000075,
                    "velocity": 0.25196850393700787,
                    "duration": 0.5934720000000198
                },
                {
                    "name": "B3",
                    "midi": 59,
                    "time": 260.5342080000008,
                    "velocity": 0.1968503937007874,
                    "duration": 0.5934720000000198
                },
                {
                    "name": "D4",
                    "midi": 62,
                    "time": 260.5342080000008,
                    "velocity": 0.23622047244094488,
                    "duration": 1.1869440000000395
                },
                {
                    "name": "G3",
                    "midi": 55,
                    "time": 261.1276800000008,
                    "velocity": 0.2047244094488189,
                    "duration": 0.5934720000000198
                },
                {
                    "name": "F3",
                    "midi": 53,
                    "time": 261.7211520000008,
                    "velocity": 0.14173228346456693,
                    "duration": 0.5934720000000198
                },
                {
                    "name": "A3",
                    "midi": 57,
                    "time": 261.7211520000008,
                    "velocity": 0.1732283464566929,
                    "duration": 0.2967360000000099
                },
                {
                    "name": "B3",
                    "midi": 59,
                    "time": 262.0178880000008,
                    "velocity": 0.12598425196850394,
                    "duration": 0.2967360000000099
                },
                {
                    "name": "C4",
                    "midi": 60,
                    "time": 262.31462400000083,
                    "velocity": 0.14960629921259844,
                    "duration": 0.5934720000000198
                },
                {
                    "name": "C3",
                    "midi": 48,
                    "time": 262.31462400000083,
                    "velocity": 0.12598425196850394,
                    "duration": 0.5934720000000198
                },
                {
                    "name": "D3",
                    "midi": 50,
                    "time": 262.90809600000085,
                    "velocity": 0.14173228346456693,
                    "duration": 0.5934720000000198
                },
                {
                    "name": "F#3",
                    "midi": 54,
                    "time": 262.90809600000085,
                    "velocity": 0.1732283464566929,
                    "duration": 0.2967360000000099
                },
                {
                    "name": "G3",
                    "midi": 55,
                    "time": 263.20483200000086,
                    "velocity": 0.12598425196850394,
                    "duration": 0.2967360000000099
                },
                {
                    "name": "A3",
                    "midi": 57,
                    "time": 263.5015680000009,
                    "velocity": 0.14960629921259844,
                    "duration": 0.5934720000000198
                },
                {
                    "name": "A2",
                    "midi": 45,
                    "time": 263.5015680000009,
                    "velocity": 0.12598425196850394,
                    "duration": 0.5934720000000198
                },
                {
                    "name": "F#3",
                    "midi": 54,
                    "time": 264.0950400000009,
                    "velocity": 0.15748031496062992,
                    "duration": 0.5934720000000198
                },
                {
                    "name": "B2",
                    "midi": 47,
                    "time": 264.0950400000009,
                    "velocity": 0.12598425196850394,
                    "duration": 0.5934720000000198
                },
                {
                    "name": "E2",
                    "midi": 40,
                    "time": 264.6885120000009,
                    "velocity": 0.14173228346456693,
                    "duration": 1.1869439999999827
                },
                {
                    "name": "D3",
                    "midi": 50,
                    "time": 265.8754560000009,
                    "velocity": 0.3779527559055118,
                    "duration": 0.5934720000000198
                },
                {
                    "name": "A3",
                    "midi": 57,
                    "time": 265.8754560000009,
                    "velocity": 0.4330708661417323,
                    "duration": 0.5934720000000198
                },
                {
                    "name": "G3",
                    "midi": 55,
                    "time": 266.4689280000009,
                    "velocity": 0.4330708661417323,
                    "duration": 1.1869440000000395
                },
                {
                    "name": "B3",
                    "midi": 59,
                    "time": 266.4689280000009,
                    "velocity": 0.4330708661417323,
                    "duration": 0.5934720000000198
                },
                {
                    "name": "C#4",
                    "midi": 61,
                    "time": 267.06240000000093,
                    "velocity": 0.3858267716535433,
                    "duration": 0.5934720000000198
                },
                {
                    "name": "D4",
                    "midi": 62,
                    "time": 267.65587200000095,
                    "velocity": 0.41732283464566927,
                    "duration": 0.2967360000000099
                },
                {
                    "name": "D3",
                    "midi": 50,
                    "time": 267.65587200000095,
                    "velocity": 0.41732283464566927,
                    "duration": 1.1869440000000395
                },
                {
                    "name": "A3",
                    "midi": 57,
                    "time": 267.95260800000096,
                    "velocity": 0.3543307086614173,
                    "duration": 0.2967360000000099
                },
                {
                    "name": "F#3",
                    "midi": 54,
                    "time": 268.249344000001,
                    "velocity": 0.30708661417322836,
                    "duration": 0.5934720000000198
                },
                {
                    "name": "C3",
                    "midi": 48,
                    "time": 268.842816000001,
                    "velocity": 0.4330708661417323,
                    "duration": 1.1869440000000395
                },
                {
                    "name": "G3",
                    "midi": 55,
                    "time": 268.842816000001,
                    "velocity": 0.4330708661417323,
                    "duration": 0.5934720000000198
                },
                {
                    "name": "A3",
                    "midi": 57,
                    "time": 269.436288000001,
                    "velocity": 0.4094488188976378,
                    "duration": 0.5934720000000198
                },
                {
                    "name": "B3",
                    "midi": 59,
                    "time": 270.02976000000103,
                    "velocity": 0.47244094488188976,
                    "duration": 0.5934720000000198
                },
                {
                    "name": "G2",
                    "midi": 43,
                    "time": 270.02976000000103,
                    "velocity": 0.47244094488188976,
                    "duration": 1.1869440000000395
                },
                {
                    "name": "D4",
                    "midi": 62,
                    "time": 270.62323200000105,
                    "velocity": 0.3464566929133858,
                    "duration": 0.5934720000000198
                },
                {
                    "name": "G3",
                    "midi": 55,
                    "time": 271.2167040000011,
                    "velocity": 0.49606299212598426,
                    "duration": 3.5608320000001186
                },
                {
                    "name": "G4",
                    "midi": 67,
                    "time": 271.2167040000011,
                    "velocity": 0.49606299212598426,
                    "duration": 0.5934720000000198
                },
                {
                    "name": "F#4",
                    "midi": 66,
                    "time": 271.8101760000011,
                    "velocity": 0.4409448818897638,
                    "duration": 0.5934720000000198
                },
                {
                    "name": "E4",
                    "midi": 64,
                    "time": 272.4036480000011,
                    "velocity": 0.47244094488188976,
                    "duration": 0.5934720000000198
                },
                {
                    "name": "D4",
                    "midi": 62,
                    "time": 272.99712000000113,
                    "velocity": 0.3464566929133858,
                    "duration": 0.5934720000000198
                },
                {
                    "name": "C4",
                    "midi": 60,
                    "time": 273.59059200000115,
                    "velocity": 0.3464566929133858,
                    "duration": 0.5934720000000198
                },
                {
                    "name": "B3",
                    "midi": 59,
                    "time": 274.1840640000012,
                    "velocity": 0.3464566929133858,
                    "duration": 0.5934720000000198
                },
                {
                    "name": "A#3",
                    "midi": 58,
                    "time": 274.7775360000012,
                    "velocity": 0.25984251968503935,
                    "duration": 0.5934720000000198
                },
                {
                    "name": "F#3",
                    "midi": 54,
                    "time": 274.7775360000012,
                    "velocity": 0.2204724409448819,
                    "duration": 0.5934720000000198
                },
                {
                    "name": "F3",
                    "midi": 53,
                    "time": 275.3710080000012,
                    "velocity": 0.2125984251968504,
                    "duration": 0.5934720000000198
                },
                {
                    "name": "A3",
                    "midi": 57,
                    "time": 275.3710080000012,
                    "velocity": 0.25196850393700787,
                    "duration": 0.2967360000000099
                },
                {
                    "name": "G#3",
                    "midi": 56,
                    "time": 275.6677440000012,
                    "velocity": 0.2283464566929134,
                    "duration": 0.2967360000000099
                },
                {
                    "name": "E3",
                    "midi": 52,
                    "time": 275.96448000000123,
                    "velocity": 0.1968503937007874,
                    "duration": 0.5934720000000198
                },
                {
                    "name": "G3",
                    "midi": 55,
                    "time": 275.96448000000123,
                    "velocity": 0.23622047244094488,
                    "duration": 0.5934720000000198
                },
                {
                    "name": "D4",
                    "midi": 62,
                    "time": 276.55795200000125,
                    "velocity": 0.23622047244094488,
                    "duration": 0.5934720000000198
                },
                {
                    "name": "D3",
                    "midi": 50,
                    "time": 276.55795200000125,
                    "velocity": 0.1968503937007874,
                    "duration": 0.5934720000000198
                },
                {
                    "name": "C#3",
                    "midi": 49,
                    "time": 277.15142400000127,
                    "velocity": 0.1968503937007874,
                    "duration": 0.5934720000000198
                },
                {
                    "name": "C#4",
                    "midi": 61,
                    "time": 277.15142400000127,
                    "velocity": 0.23622047244094488,
                    "duration": 0.5934720000000198
                },
                {
                    "name": "C3",
                    "midi": 48,
                    "time": 277.7448960000013,
                    "velocity": 0.1732283464566929,
                    "duration": 0.5934720000000198
                },
                {
                    "name": "C4",
                    "midi": 60,
                    "time": 277.7448960000013,
                    "velocity": 0.2047244094488189,
                    "duration": 0.5934720000000198
                },
                {
                    "name": "B2",
                    "midi": 47,
                    "time": 278.3383680000013,
                    "velocity": 0.1968503937007874,
                    "duration": 0.5934720000000198
                },
                {
                    "name": "B3",
                    "midi": 59,
                    "time": 278.3383680000013,
                    "velocity": 0.23622047244094488,
                    "duration": 0.5934720000000198
                },
                {
                    "name": "A2",
                    "midi": 45,
                    "time": 278.93184000000133,
                    "velocity": 0.2125984251968504,
                    "duration": 0.5934720000000198
                },
                {
                    "name": "A3",
                    "midi": 57,
                    "time": 278.93184000000133,
                    "velocity": 0.25196850393700787,
                    "duration": 0.5934720000000198
                },
                {
                    "name": "G2",
                    "midi": 43,
                    "time": 279.52531200000135,
                    "velocity": 0.1968503937007874,
                    "duration": 0.5934720000000198
                },
                {
                    "name": "G3",
                    "midi": 55,
                    "time": 279.52531200000135,
                    "velocity": 0.23622047244094488,
                    "duration": 0.5934720000000198
                },
                {
                    "name": "F#2",
                    "midi": 42,
                    "time": 280.11878400000137,
                    "velocity": 0.1732283464566929,
                    "duration": 0.5934720000000198
                },
                {
                    "name": "F#3",
                    "midi": 54,
                    "time": 280.11878400000137,
                    "velocity": 0.2047244094488189,
                    "duration": 0.5934720000000198
                },
                {
                    "name": "F2",
                    "midi": 41,
                    "time": 280.7122560000014,
                    "velocity": 0.14173228346456693,
                    "duration": 0.5934720000000198
                },
                {
                    "name": "F3",
                    "midi": 53,
                    "time": 280.7122560000014,
                    "velocity": 0.1732283464566929,
                    "duration": 0.5934720000000198
                },
                {
                    "name": "C3",
                    "midi": 48,
                    "time": 281.3057280000014,
                    "velocity": 0.14960629921259844,
                    "duration": 0.5934720000000198
                },
                {
                    "name": "C2",
                    "midi": 36,
                    "time": 281.3057280000014,
                    "velocity": 0.12598425196850394,
                    "duration": 0.5934720000000198
                },
                {
                    "name": "D2",
                    "midi": 38,
                    "time": 281.89920000000143,
                    "velocity": 0.14173228346456693,
                    "duration": 0.5934720000000198
                },
                {
                    "name": "D3",
                    "midi": 50,
                    "time": 281.89920000000143,
                    "velocity": 0.1732283464566929,
                    "duration": 0.5934720000000198
                },
                {
                    "name": "A2",
                    "midi": 45,
                    "time": 282.49267200000145,
                    "velocity": 0.14960629921259844,
                    "duration": 0.5934720000000198
                },
                {
                    "name": "A1",
                    "midi": 33,
                    "time": 282.49267200000145,
                    "velocity": 0.12598425196850394,
                    "duration": 0.5934720000000198
                },
                {
                    "name": "B2",
                    "midi": 47,
                    "time": 283.6796160000015,
                    "velocity": 0.13385826771653545,
                    "duration": 0.5934720000000198
                },
                {
                    "name": "B1",
                    "midi": 35,
                    "time": 283.6796160000015,
                    "velocity": 0.10236220472440945,
                    "duration": 0.5934720000000198
                },
                {
                    "name": "E1",
                    "midi": 28,
                    "time": 284.8665600000015,
                    "velocity": 0.08661417322834646,
                    "duration": 1.7804160000000024
                },
                {
                    "name": "E2",
                    "midi": 40,
                    "time": 284.8665600000015,
                    "velocity": 0.11811023622047244,
                    "duration": 1.7804160000000024
                }
            ],
            "controlChanges": {},
            "id": 2,
            "name": "Piano left",
            "instrumentNumber": 0,
            "instrument": "acoustic grand piano",
            "instrumentFamily": "piano",
            "channelNumber": 0,
            "isPercussion": false
        },
        {
            "startTime": 0,
            "duration": 0,
            "length": 0,
            "notes": [],
            "controlChanges": {
                "64": [
                    {
                        "number": 64,
                        "time": 2.5309108,
                        "value": 1
                    },
                    {
                        "number": 64,
                        "time": 2.9871424,
                        "value": 0
                    },
                    {
                        "number": 64,
                        "time": 3.1602384000000003,
                        "value": 1
                    },
                    {
                        "number": 64,
                        "time": 3.5756688000000003,
                        "value": 0
                    },
                    {
                        "number": 64,
                        "time": 3.7623652000000005,
                        "value": 1
                    },
                    {
                        "number": 64,
                        "time": 4.176559200000001,
                        "value": 0
                    },
                    {
                        "number": 64,
                        "time": 4.294017200000001,
                        "value": 1
                    },
                    {
                        "number": 64,
                        "time": 4.7613764000000005,
                        "value": 0
                    },
                    {
                        "number": 64,
                        "time": 4.861524800000001,
                        "value": 1
                    },
                    {
                        "number": 64,
                        "time": 5.354848400000001,
                        "value": 0
                    },
                    {
                        "number": 64,
                        "time": 5.506925600000001,
                        "value": 1
                    },
                    {
                        "number": 64,
                        "time": 5.950793200000001,
                        "value": 0
                    },
                    {
                        "number": 64,
                        "time": 6.057123600000001,
                        "value": 1
                    },
                    {
                        "number": 64,
                        "time": 6.543028800000001,
                        "value": 0
                    },
                    {
                        "number": 64,
                        "time": 7.192138800000001,
                        "value": 1
                    },
                    {
                        "number": 64,
                        "time": 7.733682000000002,
                        "value": 0
                    },
                    {
                        "number": 64,
                        "time": 7.9426336000000015,
                        "value": 1
                    },
                    {
                        "number": 64,
                        "time": 8.328390400000002,
                        "value": 0
                    },
                    {
                        "number": 64,
                        "time": 8.422356800000001,
                        "value": 1
                    },
                    {
                        "number": 64,
                        "time": 8.916916800000001,
                        "value": 0
                    },
                    {
                        "number": 64,
                        "time": 9.0331384,
                        "value": 1
                    },
                    {
                        "number": 64,
                        "time": 9.5066796,
                        "value": 0
                    },
                    {
                        "number": 64,
                        "time": 9.5783908,
                        "value": 1
                    },
                    {
                        "number": 64,
                        "time": 10.110042799999999,
                        "value": 0
                    },
                    {
                        "number": 64,
                        "time": 10.272011199999998,
                        "value": 1
                    },
                    {
                        "number": 64,
                        "time": 11.289568399999999,
                        "value": 0
                    },
                    {
                        "number": 64,
                        "time": 11.922605199999998,
                        "value": 1
                    },
                    {
                        "number": 64,
                        "time": 12.475275999999997,
                        "value": 0
                    },
                    {
                        "number": 64,
                        "time": 12.611279999999997,
                        "value": 1
                    },
                    {
                        "number": 64,
                        "time": 13.069984399999997,
                        "value": 0
                    },
                    {
                        "number": 64,
                        "time": 13.204751999999997,
                        "value": 1
                    },
                    {
                        "number": 64,
                        "time": 13.665929199999997,
                        "value": 0
                    },
                    {
                        "number": 64,
                        "time": 13.815533599999997,
                        "value": 1
                    },
                    {
                        "number": 64,
                        "time": 14.259401199999997,
                        "value": 0
                    },
                    {
                        "number": 64,
                        "time": 14.365731599999997,
                        "value": 1
                    },
                    {
                        "number": 64,
                        "time": 14.851636799999996,
                        "value": 0
                    },
                    {
                        "number": 64,
                        "time": 14.959203599999997,
                        "value": 1
                    },
                    {
                        "number": 64,
                        "time": 15.448817999999997,
                        "value": 0
                    },
                    {
                        "number": 64,
                        "time": 15.587294799999997,
                        "value": 1
                    },
                    {
                        "number": 64,
                        "time": 16.041053599999998,
                        "value": 0
                    },
                    {
                        "number": 64,
                        "time": 16.1461476,
                        "value": 1
                    },
                    {
                        "number": 64,
                        "time": 16.617216,
                        "value": 0
                    },
                    {
                        "number": 64,
                        "time": 17.2898176,
                        "value": 1
                    },
                    {
                        "number": 64,
                        "time": 17.8189968,
                        "value": 0
                    },
                    {
                        "number": 64,
                        "time": 18.485416400000002,
                        "value": 1
                    },
                    {
                        "number": 64,
                        "time": 19.000995200000002,
                        "value": 0
                    },
                    {
                        "number": 64,
                        "time": 19.386752,
                        "value": 1
                    },
                    {
                        "number": 64,
                        "time": 19.605594800000002,
                        "value": 0
                    },
                    {
                        "number": 64,
                        "time": 19.980224000000003,
                        "value": 1
                    },
                    {
                        "number": 64,
                        "time": 20.771520000000002,
                        "value": 0
                    },
                    {
                        "number": 64,
                        "time": 21.5220148,
                        "value": 1
                    },
                    {
                        "number": 64,
                        "time": 21.9782464,
                        "value": 0
                    },
                    {
                        "number": 64,
                        "time": 22.1513424,
                        "value": 1
                    },
                    {
                        "number": 64,
                        "time": 22.566772800000003,
                        "value": 0
                    },
                    {
                        "number": 64,
                        "time": 22.7534692,
                        "value": 1
                    },
                    {
                        "number": 64,
                        "time": 23.1676632,
                        "value": 0
                    },
                    {
                        "number": 64,
                        "time": 23.2851212,
                        "value": 1
                    },
                    {
                        "number": 64,
                        "time": 23.7598988,
                        "value": 0
                    },
                    {
                        "number": 64,
                        "time": 23.895902799999998,
                        "value": 1
                    },
                    {
                        "number": 64,
                        "time": 24.352134399999997,
                        "value": 0
                    },
                    {
                        "number": 64,
                        "time": 24.525230399999998,
                        "value": 1
                    },
                    {
                        "number": 64,
                        "time": 24.940660799999996,
                        "value": 0
                    },
                    {
                        "number": 64,
                        "time": 25.127357199999995,
                        "value": 1
                    },
                    {
                        "number": 64,
                        "time": 25.541551199999994,
                        "value": 0
                    },
                    {
                        "number": 64,
                        "time": 25.659009199999993,
                        "value": 1
                    },
                    {
                        "number": 64,
                        "time": 26.122659199999994,
                        "value": 0
                    },
                    {
                        "number": 64,
                        "time": 26.269790799999996,
                        "value": 1
                    },
                    {
                        "number": 64,
                        "time": 26.726022399999994,
                        "value": 0
                    },
                    {
                        "number": 64,
                        "time": 26.899118399999995,
                        "value": 1
                    },
                    {
                        "number": 64,
                        "time": 27.314548799999997,
                        "value": 0
                    },
                    {
                        "number": 64,
                        "time": 27.501245199999996,
                        "value": 1
                    },
                    {
                        "number": 64,
                        "time": 27.915439199999994,
                        "value": 0
                    },
                    {
                        "number": 64,
                        "time": 28.032897199999994,
                        "value": 1
                    },
                    {
                        "number": 64,
                        "time": 28.503965599999994,
                        "value": 0
                    },
                    {
                        "number": 64,
                        "time": 28.656042799999994,
                        "value": 1
                    },
                    {
                        "number": 64,
                        "time": 29.103619599999995,
                        "value": 0
                    },
                    {
                        "number": 64,
                        "time": 29.292788799999993,
                        "value": 1
                    },
                    {
                        "number": 64,
                        "time": 29.693382399999994,
                        "value": 0
                    },
                    {
                        "number": 64,
                        "time": 29.871423999999994,
                        "value": 1
                    },
                    {
                        "number": 64,
                        "time": 30.285617999999992,
                        "value": 0
                    },
                    {
                        "number": 64,
                        "time": 30.49333319999999,
                        "value": 1
                    },
                    {
                        "number": 64,
                        "time": 30.86054399999999,
                        "value": 0
                    },
                    {
                        "number": 64,
                        "time": 31.01756679999999,
                        "value": 1
                    },
                    {
                        "number": 64,
                        "time": 31.47379839999999,
                        "value": 0
                    },
                    {
                        "number": 64,
                        "time": 31.64689439999999,
                        "value": 1
                    },
                    {
                        "number": 64,
                        "time": 32.06232479999999,
                        "value": 0
                    },
                    {
                        "number": 64,
                        "time": 32.249021199999994,
                        "value": 1
                    },
                    {
                        "number": 64,
                        "time": 32.663215199999996,
                        "value": 0
                    },
                    {
                        "number": 64,
                        "time": 32.780673199999995,
                        "value": 1
                    },
                    {
                        "number": 64,
                        "time": 33.24803239999999,
                        "value": 0
                    },
                    {
                        "number": 64,
                        "time": 33.348180799999994,
                        "value": 1
                    },
                    {
                        "number": 64,
                        "time": 33.84150439999999,
                        "value": 0
                    },
                    {
                        "number": 64,
                        "time": 33.99358159999999,
                        "value": 1
                    },
                    {
                        "number": 64,
                        "time": 34.43744919999999,
                        "value": 0
                    },
                    {
                        "number": 64,
                        "time": 34.543779599999986,
                        "value": 1
                    },
                    {
                        "number": 64,
                        "time": 35.029684799999984,
                        "value": 0
                    },
                    {
                        "number": 64,
                        "time": 35.678794799999984,
                        "value": 1
                    },
                    {
                        "number": 64,
                        "time": 36.220337999999984,
                        "value": 0
                    },
                    {
                        "number": 64,
                        "time": 36.42928959999998,
                        "value": 1
                    },
                    {
                        "number": 64,
                        "time": 36.815046399999986,
                        "value": 0
                    },
                    {
                        "number": 64,
                        "time": 36.909012799999985,
                        "value": 1
                    },
                    {
                        "number": 64,
                        "time": 37.403572799999985,
                        "value": 0
                    },
                    {
                        "number": 64,
                        "time": 37.51979439999999,
                        "value": 1
                    },
                    {
                        "number": 64,
                        "time": 37.99333559999999,
                        "value": 0
                    },
                    {
                        "number": 64,
                        "time": 38.06504679999999,
                        "value": 1
                    },
                    {
                        "number": 64,
                        "time": 38.59669879999999,
                        "value": 0
                    },
                    {
                        "number": 64,
                        "time": 38.872415999999994,
                        "value": 1
                    },
                    {
                        "number": 64,
                        "time": 39.762623999999995,
                        "value": 0
                    },
                    {
                        "number": 64,
                        "time": 39.762623999999995,
                        "value": 0
                    },
                    {
                        "number": 64,
                        "time": 40.513118799999994,
                        "value": 1
                    },
                    {
                        "number": 64,
                        "time": 40.969350399999996,
                        "value": 0
                    },
                    {
                        "number": 64,
                        "time": 41.1424464,
                        "value": 1
                    },
                    {
                        "number": 64,
                        "time": 41.557876799999995,
                        "value": 0
                    },
                    {
                        "number": 64,
                        "time": 41.7445732,
                        "value": 1
                    },
                    {
                        "number": 64,
                        "time": 42.1587672,
                        "value": 0
                    },
                    {
                        "number": 64,
                        "time": 42.2762252,
                        "value": 1
                    },
                    {
                        "number": 64,
                        "time": 42.7510028,
                        "value": 0
                    },
                    {
                        "number": 64,
                        "time": 42.8870068,
                        "value": 1
                    },
                    {
                        "number": 64,
                        "time": 43.343238400000004,
                        "value": 0
                    },
                    {
                        "number": 64,
                        "time": 43.516334400000005,
                        "value": 1
                    },
                    {
                        "number": 64,
                        "time": 43.9317648,
                        "value": 0
                    },
                    {
                        "number": 64,
                        "time": 44.118461200000006,
                        "value": 1
                    },
                    {
                        "number": 64,
                        "time": 44.53265520000001,
                        "value": 0
                    },
                    {
                        "number": 64,
                        "time": 44.65011320000001,
                        "value": 1
                    },
                    {
                        "number": 64,
                        "time": 45.11376320000001,
                        "value": 0
                    },
                    {
                        "number": 64,
                        "time": 45.26089480000001,
                        "value": 1
                    },
                    {
                        "number": 64,
                        "time": 45.71712640000001,
                        "value": 0
                    },
                    {
                        "number": 64,
                        "time": 45.89022240000001,
                        "value": 1
                    },
                    {
                        "number": 64,
                        "time": 46.30565280000001,
                        "value": 0
                    },
                    {
                        "number": 64,
                        "time": 46.492349200000014,
                        "value": 1
                    },
                    {
                        "number": 64,
                        "time": 46.906543200000016,
                        "value": 0
                    },
                    {
                        "number": 64,
                        "time": 47.024001200000015,
                        "value": 1
                    },
                    {
                        "number": 64,
                        "time": 47.495069600000015,
                        "value": 0
                    },
                    {
                        "number": 64,
                        "time": 47.647146800000016,
                        "value": 1
                    },
                    {
                        "number": 64,
                        "time": 48.094723600000016,
                        "value": 0
                    },
                    {
                        "number": 64,
                        "time": 48.28389280000002,
                        "value": 1
                    },
                    {
                        "number": 64,
                        "time": 48.68448640000002,
                        "value": 0
                    },
                    {
                        "number": 64,
                        "time": 48.86252800000002,
                        "value": 1
                    },
                    {
                        "number": 64,
                        "time": 49.27672200000002,
                        "value": 0
                    },
                    {
                        "number": 64,
                        "time": 49.48443720000002,
                        "value": 1
                    },
                    {
                        "number": 64,
                        "time": 49.851648000000026,
                        "value": 0
                    },
                    {
                        "number": 64,
                        "time": 50.008670800000026,
                        "value": 1
                    },
                    {
                        "number": 64,
                        "time": 50.46490240000003,
                        "value": 0
                    },
                    {
                        "number": 64,
                        "time": 50.63799840000003,
                        "value": 1
                    },
                    {
                        "number": 64,
                        "time": 51.05342880000003,
                        "value": 0
                    },
                    {
                        "number": 64,
                        "time": 51.24012520000003,
                        "value": 1
                    },
                    {
                        "number": 64,
                        "time": 51.65431920000003,
                        "value": 0
                    },
                    {
                        "number": 64,
                        "time": 51.77177720000003,
                        "value": 1
                    },
                    {
                        "number": 64,
                        "time": 52.23913640000003,
                        "value": 0
                    },
                    {
                        "number": 64,
                        "time": 52.33928480000003,
                        "value": 1
                    },
                    {
                        "number": 64,
                        "time": 52.83260840000003,
                        "value": 0
                    },
                    {
                        "number": 64,
                        "time": 52.98468560000003,
                        "value": 1
                    },
                    {
                        "number": 64,
                        "time": 53.428553200000025,
                        "value": 0
                    },
                    {
                        "number": 64,
                        "time": 53.53488360000002,
                        "value": 1
                    },
                    {
                        "number": 64,
                        "time": 54.02078880000002,
                        "value": 0
                    },
                    {
                        "number": 64,
                        "time": 54.66989880000002,
                        "value": 1
                    },
                    {
                        "number": 64,
                        "time": 55.21144200000002,
                        "value": 0
                    },
                    {
                        "number": 64,
                        "time": 55.42039360000002,
                        "value": 1
                    },
                    {
                        "number": 64,
                        "time": 55.80615040000002,
                        "value": 0
                    },
                    {
                        "number": 64,
                        "time": 55.90011680000002,
                        "value": 1
                    },
                    {
                        "number": 64,
                        "time": 56.39467680000002,
                        "value": 0
                    },
                    {
                        "number": 64,
                        "time": 56.51089840000002,
                        "value": 1
                    },
                    {
                        "number": 64,
                        "time": 56.97331200000002,
                        "value": 0
                    },
                    {
                        "number": 64,
                        "time": 57.53834680000002,
                        "value": 1
                    },
                    {
                        "number": 64,
                        "time": 58.47182880000002,
                        "value": 0
                    },
                    {
                        "number": 64,
                        "time": 59.41396560000002,
                        "value": 1
                    },
                    {
                        "number": 64,
                        "time": 62.90803200000002,
                        "value": 0
                    },
                    {
                        "number": 64,
                        "time": 63.55466920000002,
                        "value": 1
                    },
                    {
                        "number": 64,
                        "time": 64.68844800000002,
                        "value": 0
                    },
                    {
                        "number": 64,
                        "time": 64.91594560000003,
                        "value": 1
                    },
                    {
                        "number": 64,
                        "time": 65.89270160000002,
                        "value": 0
                    },
                    {
                        "number": 64,
                        "time": 67.18473960000003,
                        "value": 1
                    },
                    {
                        "number": 64,
                        "time": 68.26288040000003,
                        "value": 0
                    },
                    {
                        "number": 64,
                        "time": 68.47677760000003,
                        "value": 1
                    },
                    {
                        "number": 64,
                        "time": 69.76757920000003,
                        "value": 0
                    },
                    {
                        "number": 64,
                        "time": 70.85066560000003,
                        "value": 1
                    },
                    {
                        "number": 64,
                        "time": 71.82123960000003,
                        "value": 0
                    },
                    {
                        "number": 64,
                        "time": 72.03266400000003,
                        "value": 1
                    },
                    {
                        "number": 64,
                        "time": 73.00571080000003,
                        "value": 0
                    },
                    {
                        "number": 64,
                        "time": 74.18400000000003,
                        "value": 1
                    },
                    {
                        "number": 64,
                        "time": 75.38207160000003,
                        "value": 0
                    },
                    {
                        "number": 64,
                        "time": 75.59349600000003,
                        "value": 1
                    },
                    {
                        "number": 64,
                        "time": 76.85462400000003,
                        "value": 0
                    },
                    {
                        "number": 64,
                        "time": 77.15136000000003,
                        "value": 0
                    },
                    {
                        "number": 64,
                        "time": 77.79799720000003,
                        "value": 1
                    },
                    {
                        "number": 64,
                        "time": 78.93177600000003,
                        "value": 0
                    },
                    {
                        "number": 64,
                        "time": 79.15927360000003,
                        "value": 1
                    },
                    {
                        "number": 64,
                        "time": 80.13602960000003,
                        "value": 0
                    },
                    {
                        "number": 64,
                        "time": 81.42806760000003,
                        "value": 1
                    },
                    {
                        "number": 64,
                        "time": 82.50620840000003,
                        "value": 0
                    },
                    {
                        "number": 64,
                        "time": 82.72010560000004,
                        "value": 1
                    },
                    {
                        "number": 64,
                        "time": 84.01090720000003,
                        "value": 0
                    },
                    {
                        "number": 64,
                        "time": 84.27302400000004,
                        "value": 0
                    },
                    {
                        "number": 64,
                        "time": 84.91966120000004,
                        "value": 1
                    },
                    {
                        "number": 64,
                        "time": 86.05344000000004,
                        "value": 0
                    },
                    {
                        "number": 64,
                        "time": 86.28093760000004,
                        "value": 1
                    },
                    {
                        "number": 64,
                        "time": 87.25769360000004,
                        "value": 0
                    },
                    {
                        "number": 64,
                        "time": 88.54973160000004,
                        "value": 1
                    },
                    {
                        "number": 64,
                        "time": 89.62787240000004,
                        "value": 0
                    },
                    {
                        "number": 64,
                        "time": 89.84176960000005,
                        "value": 1
                    },
                    {
                        "number": 64,
                        "time": 91.13257120000004,
                        "value": 0
                    },
                    {
                        "number": 64,
                        "time": 92.04132520000005,
                        "value": 1
                    },
                    {
                        "number": 64,
                        "time": 93.17510400000005,
                        "value": 0
                    },
                    {
                        "number": 64,
                        "time": 93.40260160000005,
                        "value": 1
                    },
                    {
                        "number": 64,
                        "time": 94.37935760000005,
                        "value": 0
                    },
                    {
                        "number": 64,
                        "time": 95.67139560000005,
                        "value": 1
                    },
                    {
                        "number": 64,
                        "time": 96.74953640000005,
                        "value": 0
                    },
                    {
                        "number": 64,
                        "time": 96.96343360000006,
                        "value": 1
                    },
                    {
                        "number": 64,
                        "time": 98.25423520000005,
                        "value": 0
                    },
                    {
                        "number": 64,
                        "time": 99.33732160000005,
                        "value": 1
                    },
                    {
                        "number": 64,
                        "time": 100.30789560000005,
                        "value": 0
                    },
                    {
                        "number": 64,
                        "time": 100.51932000000005,
                        "value": 1
                    },
                    {
                        "number": 64,
                        "time": 101.49236680000006,
                        "value": 0
                    },
                    {
                        "number": 64,
                        "time": 102.67065600000005,
                        "value": 1
                    },
                    {
                        "number": 64,
                        "time": 103.86872760000006,
                        "value": 0
                    },
                    {
                        "number": 64,
                        "time": 104.08015200000006,
                        "value": 1
                    },
                    {
                        "number": 64,
                        "time": 105.34128000000005,
                        "value": 0
                    },
                    {
                        "number": 64,
                        "time": 106.28465320000005,
                        "value": 1
                    },
                    {
                        "number": 64,
                        "time": 107.41843200000005,
                        "value": 0
                    },
                    {
                        "number": 64,
                        "time": 107.64592960000006,
                        "value": 1
                    },
                    {
                        "number": 64,
                        "time": 108.62268560000005,
                        "value": 0
                    },
                    {
                        "number": 64,
                        "time": 109.91472360000006,
                        "value": 1
                    },
                    {
                        "number": 64,
                        "time": 110.99286440000006,
                        "value": 0
                    },
                    {
                        "number": 64,
                        "time": 111.20676160000006,
                        "value": 1
                    },
                    {
                        "number": 64,
                        "time": 112.49756320000006,
                        "value": 0
                    },
                    {
                        "number": 64,
                        "time": 113.58064960000006,
                        "value": 1
                    },
                    {
                        "number": 64,
                        "time": 114.55122360000006,
                        "value": 0
                    },
                    {
                        "number": 64,
                        "time": 114.76264800000006,
                        "value": 1
                    },
                    {
                        "number": 64,
                        "time": 115.73569480000006,
                        "value": 0
                    },
                    {
                        "number": 64,
                        "time": 117.14148160000006,
                        "value": 1
                    },
                    {
                        "number": 64,
                        "time": 118.11205560000006,
                        "value": 0
                    },
                    {
                        "number": 64,
                        "time": 118.32348000000006,
                        "value": 1
                    },
                    {
                        "number": 64,
                        "time": 119.29652680000007,
                        "value": 0
                    },
                    {
                        "number": 64,
                        "time": 120.02105720000007,
                        "value": 1
                    },
                    {
                        "number": 64,
                        "time": 120.49583480000007,
                        "value": 0
                    },
                    {
                        "number": 64,
                        "time": 120.77155200000007,
                        "value": 1
                    },
                    {
                        "number": 64,
                        "time": 121.67906960000008,
                        "value": 0
                    },
                    {
                        "number": 64,
                        "time": 121.80147320000007,
                        "value": 1
                    },
                    {
                        "number": 64,
                        "time": 122.27625080000007,
                        "value": 0
                    },
                    {
                        "number": 64,
                        "time": 122.55196800000007,
                        "value": 1
                    },
                    {
                        "number": 64,
                        "time": 123.44217600000007,
                        "value": 0
                    },
                    {
                        "number": 64,
                        "time": 123.58188920000008,
                        "value": 1
                    },
                    {
                        "number": 64,
                        "time": 124.05666680000007,
                        "value": 0
                    },
                    {
                        "number": 64,
                        "time": 124.33238400000008,
                        "value": 1
                    },
                    {
                        "number": 64,
                        "time": 125.23990160000008,
                        "value": 0
                    },
                    {
                        "number": 64,
                        "time": 125.36230520000008,
                        "value": 1
                    },
                    {
                        "number": 64,
                        "time": 125.83708280000008,
                        "value": 0
                    },
                    {
                        "number": 64,
                        "time": 126.11280000000008,
                        "value": 1
                    },
                    {
                        "number": 64,
                        "time": 127.00300800000008,
                        "value": 0
                    },
                    {
                        "number": 64,
                        "time": 127.42709320000007,
                        "value": 1
                    },
                    {
                        "number": 64,
                        "time": 134.12467200000006,
                        "value": 0
                    },
                    {
                        "number": 64,
                        "time": 134.54875720000007,
                        "value": 1
                    },
                    {
                        "number": 64,
                        "time": 141.24633600000007,
                        "value": 0
                    },
                    {
                        "number": 64,
                        "time": 141.45652400000006,
                        "value": 1
                    },
                    {
                        "number": 64,
                        "time": 143.02675200000004,
                        "value": 0
                    },
                    {
                        "number": 64,
                        "time": 143.15781040000005,
                        "value": 1
                    },
                    {
                        "number": 64,
                        "time": 144.50177720000005,
                        "value": 0
                    },
                    {
                        "number": 64,
                        "time": 144.80716800000005,
                        "value": 0
                    },
                    {
                        "number": 64,
                        "time": 145.01735600000004,
                        "value": 1
                    },
                    {
                        "number": 64,
                        "time": 146.58758400000005,
                        "value": 0
                    },
                    {
                        "number": 64,
                        "time": 146.71864240000005,
                        "value": 1
                    },
                    {
                        "number": 64,
                        "time": 148.06260920000005,
                        "value": 0
                    },
                    {
                        "number": 64,
                        "time": 148.36800000000005,
                        "value": 0
                    },
                    {
                        "number": 64,
                        "time": 148.57818800000004,
                        "value": 1
                    },
                    {
                        "number": 64,
                        "time": 150.14841600000005,
                        "value": 0
                    },
                    {
                        "number": 64,
                        "time": 150.27947440000005,
                        "value": 1
                    },
                    {
                        "number": 64,
                        "time": 151.62344120000006,
                        "value": 0
                    },
                    {
                        "number": 64,
                        "time": 151.92883200000006,
                        "value": 0
                    },
                    {
                        "number": 64,
                        "time": 152.13902000000004,
                        "value": 1
                    },
                    {
                        "number": 64,
                        "time": 153.70924800000006,
                        "value": 0
                    },
                    {
                        "number": 64,
                        "time": 153.84030640000006,
                        "value": 1
                    },
                    {
                        "number": 64,
                        "time": 155.18427320000006,
                        "value": 0
                    },
                    {
                        "number": 64,
                        "time": 155.48966400000006,
                        "value": 0
                    },
                    {
                        "number": 64,
                        "time": 156.13630120000005,
                        "value": 1
                    },
                    {
                        "number": 64,
                        "time": 157.27008000000004,
                        "value": 0
                    },
                    {
                        "number": 64,
                        "time": 157.49757760000003,
                        "value": 1
                    },
                    {
                        "number": 64,
                        "time": 158.47433360000002,
                        "value": 0
                    },
                    {
                        "number": 64,
                        "time": 159.7663716,
                        "value": 1
                    },
                    {
                        "number": 64,
                        "time": 160.8445124,
                        "value": 0
                    },
                    {
                        "number": 64,
                        "time": 161.0584096,
                        "value": 1
                    },
                    {
                        "number": 64,
                        "time": 162.3492112,
                        "value": 0
                    },
                    {
                        "number": 64,
                        "time": 162.61132800000001,
                        "value": 0
                    },
                    {
                        "number": 64,
                        "time": 163.2579652,
                        "value": 1
                    },
                    {
                        "number": 64,
                        "time": 164.391744,
                        "value": 0
                    },
                    {
                        "number": 64,
                        "time": 164.61924159999998,
                        "value": 1
                    },
                    {
                        "number": 64,
                        "time": 165.59599759999998,
                        "value": 0
                    },
                    {
                        "number": 64,
                        "time": 166.88803559999997,
                        "value": 1
                    },
                    {
                        "number": 64,
                        "time": 167.96617639999997,
                        "value": 0
                    },
                    {
                        "number": 64,
                        "time": 168.18007359999996,
                        "value": 1
                    },
                    {
                        "number": 64,
                        "time": 169.47087519999997,
                        "value": 0
                    },
                    {
                        "number": 64,
                        "time": 170.37962919999995,
                        "value": 1
                    },
                    {
                        "number": 64,
                        "time": 171.51340799999994,
                        "value": 0
                    },
                    {
                        "number": 64,
                        "time": 171.74090559999993,
                        "value": 1
                    },
                    {
                        "number": 64,
                        "time": 172.71766159999993,
                        "value": 0
                    },
                    {
                        "number": 64,
                        "time": 174.00969959999992,
                        "value": 1
                    },
                    {
                        "number": 64,
                        "time": 175.08784039999992,
                        "value": 0
                    },
                    {
                        "number": 64,
                        "time": 175.3017375999999,
                        "value": 1
                    },
                    {
                        "number": 64,
                        "time": 176.59253919999992,
                        "value": 0
                    },
                    {
                        "number": 64,
                        "time": 177.67562559999993,
                        "value": 1
                    },
                    {
                        "number": 64,
                        "time": 178.64619959999993,
                        "value": 0
                    },
                    {
                        "number": 64,
                        "time": 178.85762399999993,
                        "value": 1
                    },
                    {
                        "number": 64,
                        "time": 179.83067079999992,
                        "value": 0
                    },
                    {
                        "number": 64,
                        "time": 181.00895999999992,
                        "value": 1
                    },
                    {
                        "number": 64,
                        "time": 182.2070315999999,
                        "value": 0
                    },
                    {
                        "number": 64,
                        "time": 182.4184559999999,
                        "value": 1
                    },
                    {
                        "number": 64,
                        "time": 183.67958399999992,
                        "value": 0
                    },
                    {
                        "number": 64,
                        "time": 184.62295719999992,
                        "value": 1
                    },
                    {
                        "number": 64,
                        "time": 185.7567359999999,
                        "value": 0
                    },
                    {
                        "number": 64,
                        "time": 185.9842335999999,
                        "value": 1
                    },
                    {
                        "number": 64,
                        "time": 186.9609895999999,
                        "value": 0
                    },
                    {
                        "number": 64,
                        "time": 188.25302759999988,
                        "value": 1
                    },
                    {
                        "number": 64,
                        "time": 189.33116839999988,
                        "value": 0
                    },
                    {
                        "number": 64,
                        "time": 189.54506559999987,
                        "value": 1
                    },
                    {
                        "number": 64,
                        "time": 190.83586719999988,
                        "value": 0
                    },
                    {
                        "number": 64,
                        "time": 191.9189535999999,
                        "value": 1
                    },
                    {
                        "number": 64,
                        "time": 192.8895275999999,
                        "value": 0
                    },
                    {
                        "number": 64,
                        "time": 193.1009519999999,
                        "value": 1
                    },
                    {
                        "number": 64,
                        "time": 194.07399879999988,
                        "value": 0
                    },
                    {
                        "number": 64,
                        "time": 195.47978559999987,
                        "value": 1
                    },
                    {
                        "number": 64,
                        "time": 196.45035959999987,
                        "value": 0
                    },
                    {
                        "number": 64,
                        "time": 196.66178399999987,
                        "value": 1
                    },
                    {
                        "number": 64,
                        "time": 197.63483079999986,
                        "value": 0
                    },
                    {
                        "number": 64,
                        "time": 198.35936119999985,
                        "value": 1
                    },
                    {
                        "number": 64,
                        "time": 198.83413879999986,
                        "value": 0
                    },
                    {
                        "number": 64,
                        "time": 199.10985599999987,
                        "value": 1
                    },
                    {
                        "number": 64,
                        "time": 200.01737359999987,
                        "value": 0
                    },
                    {
                        "number": 64,
                        "time": 200.13977719999988,
                        "value": 1
                    },
                    {
                        "number": 64,
                        "time": 200.6145547999999,
                        "value": 0
                    },
                    {
                        "number": 64,
                        "time": 200.8902719999999,
                        "value": 1
                    },
                    {
                        "number": 64,
                        "time": 201.7804799999999,
                        "value": 0
                    },
                    {
                        "number": 64,
                        "time": 201.9201931999999,
                        "value": 1
                    },
                    {
                        "number": 64,
                        "time": 202.3949707999999,
                        "value": 0
                    },
                    {
                        "number": 64,
                        "time": 202.6706879999999,
                        "value": 1
                    },
                    {
                        "number": 64,
                        "time": 203.5782055999999,
                        "value": 0
                    },
                    {
                        "number": 64,
                        "time": 203.70060919999992,
                        "value": 1
                    },
                    {
                        "number": 64,
                        "time": 204.17538679999993,
                        "value": 0
                    },
                    {
                        "number": 64,
                        "time": 204.45110399999993,
                        "value": 1
                    },
                    {
                        "number": 64,
                        "time": 205.34131199999993,
                        "value": 0
                    },
                    {
                        "number": 64,
                        "time": 205.76539719999994,
                        "value": 1
                    },
                    {
                        "number": 64,
                        "time": 212.46297599999994,
                        "value": 0
                    },
                    {
                        "number": 64,
                        "time": 212.88706119999995,
                        "value": 1
                    },
                    {
                        "number": 64,
                        "time": 219.58463999999995,
                        "value": 0
                    },
                    {
                        "number": 64,
                        "time": 219.79482799999994,
                        "value": 1
                    },
                    {
                        "number": 64,
                        "time": 221.36505599999992,
                        "value": 0
                    },
                    {
                        "number": 64,
                        "time": 221.49611439999993,
                        "value": 1
                    },
                    {
                        "number": 64,
                        "time": 222.84008119999993,
                        "value": 0
                    },
                    {
                        "number": 64,
                        "time": 223.14547199999993,
                        "value": 0
                    },
                    {
                        "number": 64,
                        "time": 223.35565999999992,
                        "value": 1
                    },
                    {
                        "number": 64,
                        "time": 224.92588799999993,
                        "value": 0
                    },
                    {
                        "number": 64,
                        "time": 225.05694639999993,
                        "value": 1
                    },
                    {
                        "number": 64,
                        "time": 226.40091319999993,
                        "value": 0
                    },
                    {
                        "number": 64,
                        "time": 226.70630399999993,
                        "value": 0
                    },
                    {
                        "number": 64,
                        "time": 226.91649199999992,
                        "value": 1
                    },
                    {
                        "number": 64,
                        "time": 228.48671999999993,
                        "value": 0
                    },
                    {
                        "number": 64,
                        "time": 228.61777839999993,
                        "value": 1
                    },
                    {
                        "number": 64,
                        "time": 229.96174519999994,
                        "value": 0
                    },
                    {
                        "number": 64,
                        "time": 230.26713599999994,
                        "value": 0
                    },
                    {
                        "number": 64,
                        "time": 230.47732399999992,
                        "value": 1
                    },
                    {
                        "number": 64,
                        "time": 232.04755199999994,
                        "value": 0
                    },
                    {
                        "number": 64,
                        "time": 232.17861039999994,
                        "value": 1
                    },
                    {
                        "number": 64,
                        "time": 233.52257719999994,
                        "value": 0
                    },
                    {
                        "number": 64,
                        "time": 235.60838399999994,
                        "value": 0
                    },
                    {
                        "number": 64,
                        "time": 235.81857199999993,
                        "value": 1
                    },
                    {
                        "number": 64,
                        "time": 237.38879999999995,
                        "value": 0
                    },
                    {
                        "number": 64,
                        "time": 237.68553599999996,
                        "value": 1
                    },
                    {
                        "number": 64,
                        "time": 238.86382519999995,
                        "value": 0
                    },
                    {
                        "number": 64,
                        "time": 240.94963199999995,
                        "value": 0
                    },
                    {
                        "number": 64,
                        "time": 241.15981999999994,
                        "value": 1
                    },
                    {
                        "number": 64,
                        "time": 242.73004799999995,
                        "value": 0
                    },
                    {
                        "number": 64,
                        "time": 244.51046399999996,
                        "value": 0
                    },
                    {
                        "number": 64,
                        "time": 244.72065199999994,
                        "value": 1
                    },
                    {
                        "number": 64,
                        "time": 246.35764559999996,
                        "value": 0
                    },
                    {
                        "number": 64,
                        "time": 247.63484679999996,
                        "value": 1
                    },
                    {
                        "number": 64,
                        "time": 248.09107839999996,
                        "value": 0
                    },
                    {
                        "number": 64,
                        "time": 248.26417439999994,
                        "value": 1
                    },
                    {
                        "number": 64,
                        "time": 248.67960479999994,
                        "value": 0
                    },
                    {
                        "number": 64,
                        "time": 248.86630119999992,
                        "value": 1
                    },
                    {
                        "number": 64,
                        "time": 249.28049519999993,
                        "value": 0
                    },
                    {
                        "number": 64,
                        "time": 249.39795319999993,
                        "value": 1
                    },
                    {
                        "number": 64,
                        "time": 249.86531239999994,
                        "value": 0
                    },
                    {
                        "number": 64,
                        "time": 249.96546079999993,
                        "value": 1
                    },
                    {
                        "number": 64,
                        "time": 250.45878439999993,
                        "value": 0
                    },
                    {
                        "number": 64,
                        "time": 250.61086159999994,
                        "value": 1
                    },
                    {
                        "number": 64,
                        "time": 251.05472919999994,
                        "value": 0
                    },
                    {
                        "number": 64,
                        "time": 251.16105959999993,
                        "value": 1
                    },
                    {
                        "number": 64,
                        "time": 251.64696479999992,
                        "value": 0
                    },
                    {
                        "number": 64,
                        "time": 252.29607479999993,
                        "value": 1
                    },
                    {
                        "number": 64,
                        "time": 252.83761799999994,
                        "value": 0
                    },
                    {
                        "number": 64,
                        "time": 253.04656959999994,
                        "value": 1
                    },
                    {
                        "number": 64,
                        "time": 253.43232639999994,
                        "value": 0
                    },
                    {
                        "number": 64,
                        "time": 253.52629279999994,
                        "value": 1
                    },
                    {
                        "number": 64,
                        "time": 254.02085279999994,
                        "value": 0
                    },
                    {
                        "number": 64,
                        "time": 254.13707439999993,
                        "value": 1
                    },
                    {
                        "number": 64,
                        "time": 254.61061559999993,
                        "value": 0
                    },
                    {
                        "number": 64,
                        "time": 254.68232679999994,
                        "value": 1
                    },
                    {
                        "number": 64,
                        "time": 255.21397879999995,
                        "value": 0
                    },
                    {
                        "number": 64,
                        "time": 255.37594719999996,
                        "value": 1
                    },
                    {
                        "number": 64,
                        "time": 256.3935044,
                        "value": 0
                    },
                    {
                        "number": 64,
                        "time": 257.0265412,
                        "value": 1
                    },
                    {
                        "number": 64,
                        "time": 257.579212,
                        "value": 0
                    },
                    {
                        "number": 64,
                        "time": 257.715216,
                        "value": 1
                    },
                    {
                        "number": 64,
                        "time": 258.1739204,
                        "value": 0
                    },
                    {
                        "number": 64,
                        "time": 258.30868799999996,
                        "value": 1
                    },
                    {
                        "number": 64,
                        "time": 258.76986519999997,
                        "value": 0
                    },
                    {
                        "number": 64,
                        "time": 258.91946959999996,
                        "value": 1
                    },
                    {
                        "number": 64,
                        "time": 259.36333719999993,
                        "value": 0
                    },
                    {
                        "number": 64,
                        "time": 259.4696675999999,
                        "value": 1
                    },
                    {
                        "number": 64,
                        "time": 259.9555727999999,
                        "value": 0
                    },
                    {
                        "number": 64,
                        "time": 260.0631395999999,
                        "value": 1
                    },
                    {
                        "number": 64,
                        "time": 260.5527539999999,
                        "value": 0
                    },
                    {
                        "number": 64,
                        "time": 260.69123079999986,
                        "value": 1
                    },
                    {
                        "number": 64,
                        "time": 261.14498959999986,
                        "value": 0
                    },
                    {
                        "number": 64,
                        "time": 261.25008359999987,
                        "value": 1
                    },
                    {
                        "number": 64,
                        "time": 261.72115199999985,
                        "value": 0
                    },
                    {
                        "number": 64,
                        "time": 262.39375359999985,
                        "value": 1
                    },
                    {
                        "number": 64,
                        "time": 262.92293279999984,
                        "value": 0
                    },
                    {
                        "number": 64,
                        "time": 263.5893523999998,
                        "value": 1
                    },
                    {
                        "number": 64,
                        "time": 264.10493119999984,
                        "value": 0
                    },
                    {
                        "number": 64,
                        "time": 264.49068799999986,
                        "value": 1
                    },
                    {
                        "number": 64,
                        "time": 264.70953079999987,
                        "value": 0
                    },
                    {
                        "number": 64,
                        "time": 265.0841599999999,
                        "value": 1
                    },
                    {
                        "number": 64,
                        "time": 265.8754559999999,
                        "value": 0
                    },
                    {
                        "number": 64,
                        "time": 266.6259507999999,
                        "value": 1
                    },
                    {
                        "number": 64,
                        "time": 267.0821823999999,
                        "value": 0
                    },
                    {
                        "number": 64,
                        "time": 267.2552783999999,
                        "value": 1
                    },
                    {
                        "number": 64,
                        "time": 267.6707087999999,
                        "value": 0
                    },
                    {
                        "number": 64,
                        "time": 267.8574051999999,
                        "value": 1
                    },
                    {
                        "number": 64,
                        "time": 268.2715991999999,
                        "value": 0
                    },
                    {
                        "number": 64,
                        "time": 268.3890571999999,
                        "value": 1
                    },
                    {
                        "number": 64,
                        "time": 268.8638347999999,
                        "value": 0
                    },
                    {
                        "number": 64,
                        "time": 268.9998387999999,
                        "value": 1
                    },
                    {
                        "number": 64,
                        "time": 269.45607039999993,
                        "value": 0
                    },
                    {
                        "number": 64,
                        "time": 269.6291663999999,
                        "value": 1
                    },
                    {
                        "number": 64,
                        "time": 270.0445967999999,
                        "value": 0
                    },
                    {
                        "number": 64,
                        "time": 270.2312931999999,
                        "value": 1
                    },
                    {
                        "number": 64,
                        "time": 270.64548719999993,
                        "value": 0
                    },
                    {
                        "number": 64,
                        "time": 270.76294519999993,
                        "value": 1
                    },
                    {
                        "number": 64,
                        "time": 271.2265951999999,
                        "value": 0
                    },
                    {
                        "number": 64,
                        "time": 271.37372679999993,
                        "value": 1
                    },
                    {
                        "number": 64,
                        "time": 271.82995839999995,
                        "value": 0
                    },
                    {
                        "number": 64,
                        "time": 272.00305439999994,
                        "value": 1
                    },
                    {
                        "number": 64,
                        "time": 272.41848479999993,
                        "value": 0
                    },
                    {
                        "number": 64,
                        "time": 272.60518119999995,
                        "value": 1
                    },
                    {
                        "number": 64,
                        "time": 273.01937519999996,
                        "value": 0
                    },
                    {
                        "number": 64,
                        "time": 273.13683319999996,
                        "value": 1
                    },
                    {
                        "number": 64,
                        "time": 273.60790159999993,
                        "value": 0
                    },
                    {
                        "number": 64,
                        "time": 273.75997879999994,
                        "value": 1
                    },
                    {
                        "number": 64,
                        "time": 274.2075555999999,
                        "value": 0
                    },
                    {
                        "number": 64,
                        "time": 274.3967247999999,
                        "value": 1
                    },
                    {
                        "number": 64,
                        "time": 274.7973183999999,
                        "value": 0
                    },
                    {
                        "number": 64,
                        "time": 274.97535999999985,
                        "value": 1
                    },
                    {
                        "number": 64,
                        "time": 275.38955399999986,
                        "value": 0
                    },
                    {
                        "number": 64,
                        "time": 275.59726919999986,
                        "value": 1
                    },
                    {
                        "number": 64,
                        "time": 275.96447999999987,
                        "value": 0
                    },
                    {
                        "number": 64,
                        "time": 276.12150279999986,
                        "value": 1
                    },
                    {
                        "number": 64,
                        "time": 276.5777343999999,
                        "value": 0
                    },
                    {
                        "number": 64,
                        "time": 276.75083039999987,
                        "value": 1
                    },
                    {
                        "number": 64,
                        "time": 277.16626079999986,
                        "value": 0
                    },
                    {
                        "number": 64,
                        "time": 277.3529571999999,
                        "value": 1
                    },
                    {
                        "number": 64,
                        "time": 277.7671511999999,
                        "value": 0
                    },
                    {
                        "number": 64,
                        "time": 277.8846091999999,
                        "value": 1
                    },
                    {
                        "number": 64,
                        "time": 278.35196839999986,
                        "value": 0
                    },
                    {
                        "number": 64,
                        "time": 278.4521167999999,
                        "value": 1
                    },
                    {
                        "number": 64,
                        "time": 278.9454403999999,
                        "value": 0
                    },
                    {
                        "number": 64,
                        "time": 279.0975175999999,
                        "value": 1
                    },
                    {
                        "number": 64,
                        "time": 279.54138519999987,
                        "value": 0
                    },
                    {
                        "number": 64,
                        "time": 279.64771559999986,
                        "value": 1
                    },
                    {
                        "number": 64,
                        "time": 280.13362079999985,
                        "value": 0
                    },
                    {
                        "number": 64,
                        "time": 280.78273079999985,
                        "value": 1
                    },
                    {
                        "number": 64,
                        "time": 281.32427399999983,
                        "value": 0
                    },
                    {
                        "number": 64,
                        "time": 281.5332255999998,
                        "value": 1
                    },
                    {
                        "number": 64,
                        "time": 281.91898239999983,
                        "value": 0
                    },
                    {
                        "number": 64,
                        "time": 282.01294879999983,
                        "value": 1
                    },
                    {
                        "number": 64,
                        "time": 282.5075087999998,
                        "value": 0
                    },
                    {
                        "number": 64,
                        "time": 282.62373039999983,
                        "value": 1
                    },
                    {
                        "number": 64,
                        "time": 283.0861439999998,
                        "value": 0
                    },
                    {
                        "number": 64,
                        "time": 283.76245479999983,
                        "value": 1
                    },
                    {
                        "number": 64,
                        "time": 284.41527399999984,
                        "value": 0
                    },
                    {
                        "number": 64,
                        "time": 285.16329599999983,
                        "value": 1
                    },
                    {
                        "number": 64,
                        "time": 287.4382719999998,
                        "value": 0
                    }
                ]
            },
            "id": 3,
            "name": "Pedale",
            "instrumentNumber": 0,
            "instrument": "acoustic grand piano",
            "instrumentFamily": "piano",
            "channelNumber": 0,
            "isPercussion": false
        },
        {
            "startTime": 0,
            "duration": 0,
            "length": 0,
            "notes": [],
            "controlChanges": {},
            "id": 4,
            "name": "Grieg: Lyric Pieces -  Once upon a time"
        },
        {
            "startTime": 0,
            "duration": 0,
            "length": 0,
            "notes": [],
            "controlChanges": {},
            "id": 5,
            "name": "Copyright © 2010 by Bernd Krueger"
        },
        {
            "startTime": 0,
            "duration": 0,
            "length": 0,
            "notes": [],
            "controlChanges": {},
            "id": 6,
            "name": "http://www.piano-midi.de/"
        },
        {
            "startTime": 0,
            "duration": 0,
            "length": 0,
            "notes": [],
            "controlChanges": {},
            "id": 7,
            "name": "Edition:  2012-10-23"
        },
        {
            "startTime": 0,
            "duration": 0,
            "length": 0,
            "notes": [],
            "controlChanges": {},
            "id": 8,
            "name": "Spur 8"
        },
        {
            "startTime": 0,
            "duration": 0,
            "length": 0,
            "notes": [],
            "controlChanges": {},
            "id": 9,
            "name": "Spur 9"
        },
        {
            "startTime": 0,
            "duration": 0,
            "length": 0,
            "notes": [],
            "controlChanges": {},
            "id": 10,
            "name": "Spur 10"
        },
        {
            "startTime": 0,
            "duration": 0,
            "length": 0,
            "notes": [],
            "controlChanges": {},
            "id": 11,
            "name": "Spur 11"
        },
        {
            "startTime": 0,
            "duration": 0,
            "length": 0,
            "notes": [],
            "controlChanges": {},
            "id": 12,
            "name": "Spur 12"
        },
        {
            "startTime": 0,
            "duration": 0,
            "length": 0,
            "notes": [],
            "controlChanges": {},
            "id": 13,
            "name": "Spur 13"
        },
        {
            "startTime": 0,
            "duration": 0,
            "length": 0,
            "notes": [],
            "controlChanges": {},
            "id": 14,
            "name": "Spur 14"
        },
        {
            "startTime": 0,
            "duration": 0,
            "length": 0,
            "notes": [],
            "controlChanges": {},
            "id": 15,
            "name": "Spur 15"
        },
        {
            "startTime": 0,
            "duration": 0,
            "length": 0,
            "notes": [],
            "controlChanges": {},
            "id": 16,
            "name": "Spur 16"
        }
    ]
}